<?xml version="1.0" encoding="UTF-8" standalone="no"?>
<!DOCTYPE svg PUBLIC "-//W3C//DTD SVG 1.1//EN"
 "http://www.w3.org/Graphics/SVG/1.1/DTD/svg11.dtd">
<!-- Generated by graphviz version 2.42.3 (20191010.1750)
 -->
<!-- Title: %3 Pages: 1 -->
<svg width="215pt" height="116pt"
 viewBox="0.00 0.00 214.68 116.00" xmlns="http://www.w3.org/2000/svg" xmlns:xlink="http://www.w3.org/1999/xlink">
<g id="graph0" class="graph" transform="scale(1 1) rotate(0) translate(4 112)">
<title>%3</title>
<polygon fill="white" stroke="transparent" points="-4,4 -4,-112 210.68,-112 210.68,4 -4,4"/>
<!-- grpc&#45;cpp -->
<g id="node1" class="node">
<title>grpc&#45;cpp</title>
<g id="a_node1"><a xlink:href="https://github.com/conda-forge/grpc-cpp-feedstock/pull/57" xlink:title="grpc cpp">
<ellipse fill="#31688e" stroke="black" cx="52.34" cy="-90" rx="50.09" ry="18"/>
<text text-anchor="middle" x="52.34" y="-86.3" font-family="Times,serif" font-size="14.00" fill="white">grpc cpp</text>
</a>
</g>
</g>
<!-- conda&#45;forge&#45;pinning -->
<g id="node3" class="node">
<title>conda&#45;forge&#45;pinning</title>
<ellipse fill="none" stroke="black" cx="103.34" cy="-18" rx="103.18" ry="18"/>
<text text-anchor="middle" x="103.34" y="-14.3" font-family="Times,serif" font-size="14.00">conda&#45;forge&#45;pinning</text>
</g>
<!-- grpc&#45;cpp&#45;&gt;conda&#45;forge&#45;pinning -->
<g id="edge1" class="edge">
<title>grpc&#45;cpp&#45;&gt;conda&#45;forge&#45;pinning</title>
<path fill="none" stroke="black" d="M64.43,-72.41C70.56,-63.99 78.14,-53.58 84.98,-44.2"/>
<polygon fill="black" stroke="black" points="87.93,-46.1 90.99,-35.96 82.27,-41.98 87.93,-46.1"/>
</g>
<!-- obake -->
<g id="node2" class="node">
<title>obake</title>
<g id="a_node2"><a xlink:href="https://github.com/conda-forge/obake-feedstock/pull/10" xlink:title="obake">
<ellipse fill="#31688e" stroke="black" cx="155.34" cy="-90" rx="35.19" ry="18"/>
<text text-anchor="middle" x="155.34" y="-86.3" font-family="Times,serif" font-size="14.00" fill="white">obake</text>
</a>
</g>
</g>
<!-- obake&#45;&gt;conda&#45;forge&#45;pinning -->
<g id="edge2" class="edge">
<title>obake&#45;&gt;conda&#45;forge&#45;pinning</title>
<path fill="none" stroke="black" d="M143.28,-72.76C137.03,-64.35 129.26,-53.89 122.24,-44.44"/>
<polygon fill="black" stroke="black" points="124.83,-42.06 116.06,-36.12 119.22,-46.24 124.83,-42.06"/>
</g>
</g>
</svg>
