<?xml version="1.0" encoding="UTF-8" standalone="no"?>
<!DOCTYPE svg PUBLIC "-//W3C//DTD SVG 1.1//EN"
 "http://www.w3.org/Graphics/SVG/1.1/DTD/svg11.dtd">
<!-- Generated by graphviz version 2.40.1 (20161225.0304)
 -->
<!-- Title: %3 Pages: 1 -->
<svg width="2098pt" height="332pt"
 viewBox="0.00 0.00 2097.63 332.00" xmlns="http://www.w3.org/2000/svg" xmlns:xlink="http://www.w3.org/1999/xlink">
<g id="graph0" class="graph" transform="scale(1 1) rotate(0) translate(4 328)">
<title>%3</title>
<polygon fill="#ffffff" stroke="transparent" points="-4,4 -4,-328 2093.6338,-328 2093.6338,4 -4,4"/>
<!-- arrow&#45;cpp -->
<g id="node1" class="node">
<title>arrow&#45;cpp</title>
<ellipse fill="#31688e" stroke="#000000" cx="54.5952" cy="-306" rx="54.6905" ry="18"/>
<text text-anchor="middle" x="54.5952" y="-302.3" font-family="Times,serif" font-size="14.00" fill="#ffffff">arrow cpp</text>
</g>
<!-- pyarrow -->
<g id="node16" class="node">
<title>pyarrow</title>
<ellipse fill="#fde725" stroke="#000000" cx="54.5952" cy="-234" rx="44.6926" ry="18"/>
<text text-anchor="middle" x="54.5952" y="-230.3" font-family="Times,serif" font-size="14.00" fill="#000000">pyarrow</text>
</g>
<!-- arrow&#45;cpp&#45;&gt;pyarrow -->
<g id="edge1" class="edge">
<title>arrow&#45;cpp&#45;&gt;pyarrow</title>
<path fill="none" stroke="#000000" d="M54.5952,-287.8314C54.5952,-280.131 54.5952,-270.9743 54.5952,-262.4166"/>
<polygon fill="#000000" stroke="#000000" points="58.0953,-262.4132 54.5952,-252.4133 51.0953,-262.4133 58.0953,-262.4132"/>
</g>
<!-- glew -->
<g id="node2" class="node">
<title>glew</title>
<ellipse fill="#fde725" stroke="#000000" cx="309.5952" cy="-162" rx="30.5947" ry="18"/>
<text text-anchor="middle" x="309.5952" y="-158.3" font-family="Times,serif" font-size="14.00" fill="#000000">glew</text>
</g>
<!-- root -->
<g id="node31" class="node">
<title>root</title>
<ellipse fill="#fde725" stroke="#000000" cx="398.5952" cy="-90" rx="30.5947" ry="18"/>
<text text-anchor="middle" x="398.5952" y="-86.3" font-family="Times,serif" font-size="14.00" fill="#000000">root</text>
</g>
<!-- glew&#45;&gt;root -->
<g id="edge2" class="edge">
<title>glew&#45;&gt;root</title>
<path fill="none" stroke="#000000" d="M327.6056,-147.4297C340.4285,-137.0562 357.8652,-122.9501 372.2483,-111.3143"/>
<polygon fill="#000000" stroke="#000000" points="374.7328,-113.8063 380.306,-104.7957 370.3302,-108.3642 374.7328,-113.8063"/>
</g>
<!-- gmpy2 -->
<g id="node3" class="node">
<title>gmpy2</title>
<ellipse fill="#fde725" stroke="#000000" cx="1391.5952" cy="-90" rx="35.194" ry="18"/>
<text text-anchor="middle" x="1391.5952" y="-86.3" font-family="Times,serif" font-size="14.00" fill="#000000">gmpy2</text>
</g>
<!-- sympy -->
<g id="node20" class="node">
<title>sympy</title>
<ellipse fill="#fde725" stroke="#000000" cx="1391.5952" cy="-18" rx="35.194" ry="18"/>
<text text-anchor="middle" x="1391.5952" y="-14.3" font-family="Times,serif" font-size="14.00" fill="#000000">sympy</text>
</g>
<!-- gmpy2&#45;&gt;sympy -->
<g id="edge3" class="edge">
<title>gmpy2&#45;&gt;sympy</title>
<path fill="none" stroke="#000000" d="M1391.5952,-71.8314C1391.5952,-64.131 1391.5952,-54.9743 1391.5952,-46.4166"/>
<polygon fill="#000000" stroke="#000000" points="1395.0953,-46.4132 1391.5952,-36.4133 1388.0953,-46.4133 1395.0953,-46.4132"/>
</g>
<!-- gst&#45;plugins&#45;base -->
<g id="node4" class="node">
<title>gst&#45;plugins&#45;base</title>
<ellipse fill="#fde725" stroke="#000000" cx="518.5952" cy="-234" rx="89.0842" ry="18"/>
<text text-anchor="middle" x="518.5952" y="-230.3" font-family="Times,serif" font-size="14.00" fill="#000000">gst plugins base</text>
</g>
<!-- qt -->
<g id="node18" class="node">
<title>qt</title>
<ellipse fill="#fde725" stroke="#000000" cx="635.5952" cy="-162" rx="27" ry="18"/>
<text text-anchor="middle" x="635.5952" y="-158.3" font-family="Times,serif" font-size="14.00" fill="#000000">qt</text>
</g>
<!-- gst&#45;plugins&#45;base&#45;&gt;qt -->
<g id="edge4" class="edge">
<title>gst&#45;plugins&#45;base&#45;&gt;qt</title>
<path fill="none" stroke="#000000" d="M546.6196,-216.7542C564.8622,-205.528 588.5904,-190.926 606.9547,-179.6249"/>
<polygon fill="#000000" stroke="#000000" points="608.8093,-182.5933 615.4915,-174.3715 605.1405,-176.6317 608.8093,-182.5933"/>
</g>
<!-- gstreamer -->
<g id="node5" class="node">
<title>gstreamer</title>
<ellipse fill="#31688e" stroke="#000000" cx="544.5952" cy="-306" rx="54.6905" ry="18"/>
<text text-anchor="middle" x="544.5952" y="-302.3" font-family="Times,serif" font-size="14.00" fill="#ffffff">gstreamer</text>
</g>
<!-- gstreamer&#45;&gt;gst&#45;plugins&#45;base -->
<g id="edge5" class="edge">
<title>gstreamer&#45;&gt;gst&#45;plugins&#45;base</title>
<path fill="none" stroke="#000000" d="M538.0343,-287.8314C535.1924,-279.9617 531.8014,-270.5712 528.6533,-261.8533"/>
<polygon fill="#000000" stroke="#000000" points="531.9328,-260.63 525.2444,-252.4133 525.349,-263.0076 531.9328,-260.63"/>
</g>
<!-- gstreamer&#45;&gt;qt -->
<g id="edge6" class="edge">
<title>gstreamer&#45;&gt;qt</title>
<path fill="none" stroke="#000000" d="M573.9731,-290.7646C588.9596,-281.516 606.1777,-268.3361 616.5952,-252 628.3494,-233.5676 632.9657,-209.1129 634.7168,-190.3473"/>
<polygon fill="#000000" stroke="#000000" points="638.212,-190.5382 635.4357,-180.3136 631.2299,-190.0378 638.212,-190.5382"/>
</g>
<!-- ipyparallel -->
<g id="node6" class="node">
<title>ipyparallel</title>
<ellipse fill="#31688e" stroke="#000000" cx="196.5952" cy="-162" rx="64.189" ry="18"/>
<text text-anchor="middle" x="196.5952" y="-158.3" font-family="Times,serif" font-size="14.00" fill="#ffffff">ipyparallel</text>
</g>
<!-- ipyparallel&#45;&gt;root -->
<g id="edge7" class="edge">
<title>ipyparallel&#45;&gt;root</title>
<path fill="none" stroke="#000000" d="M236.5039,-147.7751C273.288,-134.6639 327.3892,-115.3803 362.8046,-102.757"/>
<polygon fill="#000000" stroke="#000000" points="364.0238,-106.0382 372.2682,-99.3839 361.6735,-99.4446 364.0238,-106.0382"/>
</g>
<!-- jupyter_client -->
<g id="node7" class="node">
<title>jupyter_client</title>
<ellipse fill="#31688e" stroke="#000000" cx="196.5952" cy="-234" rx="79.0865" ry="18"/>
<text text-anchor="middle" x="196.5952" y="-230.3" font-family="Times,serif" font-size="14.00" fill="#ffffff">jupyter_client</text>
</g>
<!-- jupyter_client&#45;&gt;ipyparallel -->
<g id="edge8" class="edge">
<title>jupyter_client&#45;&gt;ipyparallel</title>
<path fill="none" stroke="#000000" d="M196.5952,-215.8314C196.5952,-208.131 196.5952,-198.9743 196.5952,-190.4166"/>
<polygon fill="#000000" stroke="#000000" points="200.0953,-190.4132 196.5952,-180.4133 193.0953,-190.4133 200.0953,-190.4132"/>
</g>
<!-- libglu -->
<g id="node8" class="node">
<title>libglu</title>
<ellipse fill="#31688e" stroke="#000000" cx="371.5952" cy="-234" rx="40.0939" ry="18"/>
<text text-anchor="middle" x="371.5952" y="-230.3" font-family="Times,serif" font-size="14.00" fill="#ffffff">libglu</text>
</g>
<!-- libglu&#45;&gt;glew -->
<g id="edge10" class="edge">
<title>libglu&#45;&gt;glew</title>
<path fill="none" stroke="#000000" d="M356.902,-216.937C348.9905,-207.7494 339.0979,-196.2613 330.4073,-186.1689"/>
<polygon fill="#000000" stroke="#000000" points="332.9335,-183.7388 323.7561,-178.4449 327.6291,-188.3065 332.9335,-183.7388"/>
</g>
<!-- freeglut -->
<g id="node22" class="node">
<title>freeglut</title>
<ellipse fill="#fde725" stroke="#000000" cx="408.5952" cy="-162" rx="50.0912" ry="18"/>
<text text-anchor="middle" x="408.5952" y="-158.3" font-family="Times,serif" font-size="14.00" fill="#000000">freeglut</text>
</g>
<!-- libglu&#45;&gt;freeglut -->
<g id="edge9" class="edge">
<title>libglu&#45;&gt;freeglut</title>
<path fill="none" stroke="#000000" d="M380.7412,-216.2022C384.966,-207.981 390.0741,-198.041 394.7561,-188.9301"/>
<polygon fill="#000000" stroke="#000000" points="397.9683,-190.3366 399.4261,-179.8425 391.7423,-187.1371 397.9683,-190.3366"/>
</g>
<!-- libglu&#45;&gt;root -->
<g id="edge11" class="edge">
<title>libglu&#45;&gt;root</title>
<path fill="none" stroke="#000000" d="M401.1392,-221.39C426.4987,-209.8902 460.1134,-192.7927 467.5952,-180 475.6727,-166.1886 474.6032,-158.3836 467.5952,-144 459.9435,-128.2954 445.2708,-115.8137 431.4164,-106.8239"/>
<polygon fill="#000000" stroke="#000000" points="432.8773,-103.6165 422.5122,-101.4218 429.2463,-109.6012 432.8773,-103.6165"/>
</g>
<!-- libsndfile -->
<g id="node9" class="node">
<title>libsndfile</title>
<ellipse fill="#fde725" stroke="#000000" cx="866.5952" cy="-162" rx="59.5901" ry="18"/>
<text text-anchor="middle" x="866.5952" y="-158.3" font-family="Times,serif" font-size="14.00" fill="#000000">libsndfile</text>
</g>
<!-- r&#45;base -->
<g id="node19" class="node">
<title>r&#45;base</title>
<ellipse fill="#fde725" stroke="#000000" cx="1052.5952" cy="-90" rx="40.0939" ry="18"/>
<text text-anchor="middle" x="1052.5952" y="-86.3" font-family="Times,serif" font-size="14.00" fill="#000000">r base</text>
</g>
<!-- libsndfile&#45;&gt;r&#45;base -->
<g id="edge12" class="edge">
<title>libsndfile&#45;&gt;r&#45;base</title>
<path fill="none" stroke="#000000" d="M903.3428,-147.7751C934.813,-135.5931 980.0487,-118.0825 1012.4591,-105.5365"/>
<polygon fill="#000000" stroke="#000000" points="1014.0141,-108.6877 1022.0763,-101.8137 1011.4871,-102.1598 1014.0141,-108.6877"/>
</g>
<!-- llvmlite -->
<g id="node10" class="node">
<title>llvmlite</title>
<ellipse fill="#31688e" stroke="#000000" cx="1509.5952" cy="-306" rx="50.0912" ry="18"/>
<text text-anchor="middle" x="1509.5952" y="-302.3" font-family="Times,serif" font-size="14.00" fill="#ffffff">llvmlite</text>
</g>
<!-- numba -->
<g id="node27" class="node">
<title>numba</title>
<ellipse fill="#fde725" stroke="#000000" cx="1509.5952" cy="-234" rx="35.194" ry="18"/>
<text text-anchor="middle" x="1509.5952" y="-230.3" font-family="Times,serif" font-size="14.00" fill="#000000">numba</text>
</g>
<!-- llvmlite&#45;&gt;numba -->
<g id="edge13" class="edge">
<title>llvmlite&#45;&gt;numba</title>
<path fill="none" stroke="#000000" d="M1509.5952,-287.8314C1509.5952,-280.131 1509.5952,-270.9743 1509.5952,-262.4166"/>
<polygon fill="#000000" stroke="#000000" points="1513.0953,-262.4132 1509.5952,-252.4133 1506.0953,-262.4133 1513.0953,-262.4132"/>
</g>
<!-- matplotlib -->
<g id="node11" class="node">
<title>matplotlib</title>
<ellipse fill="#fde725" stroke="#000000" cx="680.5952" cy="-18" rx="59.5901" ry="18"/>
<text text-anchor="middle" x="680.5952" y="-14.3" font-family="Times,serif" font-size="14.00" fill="#000000">matplotlib</text>
</g>
<!-- mpc -->
<g id="node12" class="node">
<title>mpc</title>
<ellipse fill="#fde725" stroke="#000000" cx="1391.5952" cy="-162" rx="27" ry="18"/>
<text text-anchor="middle" x="1391.5952" y="-158.3" font-family="Times,serif" font-size="14.00" fill="#000000">mpc</text>
</g>
<!-- mpc&#45;&gt;gmpy2 -->
<g id="edge14" class="edge">
<title>mpc&#45;&gt;gmpy2</title>
<path fill="none" stroke="#000000" d="M1391.5952,-143.8314C1391.5952,-136.131 1391.5952,-126.9743 1391.5952,-118.4166"/>
<polygon fill="#000000" stroke="#000000" points="1395.0953,-118.4132 1391.5952,-108.4133 1388.0953,-118.4133 1395.0953,-118.4132"/>
</g>
<!-- mpfr -->
<g id="node13" class="node">
<title>mpfr</title>
<ellipse fill="#fde725" stroke="#000000" cx="1334.5952" cy="-234" rx="30.5947" ry="18"/>
<text text-anchor="middle" x="1334.5952" y="-230.3" font-family="Times,serif" font-size="14.00" fill="#000000">mpfr</text>
</g>
<!-- mpfr&#45;&gt;gmpy2 -->
<g id="edge15" class="edge">
<title>mpfr&#45;&gt;gmpy2</title>
<path fill="none" stroke="#000000" d="M1336.8841,-215.8102C1339.6713,-197.1908 1345.3311,-167.7053 1355.5952,-144 1359.8931,-134.0739 1366.03,-123.9986 1372.0224,-115.2819"/>
<polygon fill="#000000" stroke="#000000" points="1374.9223,-117.2437 1377.8931,-107.0739 1369.2287,-113.1714 1374.9223,-117.2437"/>
</g>
<!-- mpfr&#45;&gt;mpc -->
<g id="edge16" class="edge">
<title>mpfr&#45;&gt;mpc</title>
<path fill="none" stroke="#000000" d="M1347.5293,-217.6621C1354.89,-208.3644 1364.249,-196.5426 1372.4469,-186.1873"/>
<polygon fill="#000000" stroke="#000000" points="1375.2493,-188.2862 1378.7122,-178.2733 1369.7609,-183.9413 1375.2493,-188.2862"/>
</g>
<!-- mpfr&#45;&gt;r&#45;base -->
<g id="edge17" class="edge">
<title>mpfr&#45;&gt;r&#45;base</title>
<path fill="none" stroke="#000000" d="M1303.8401,-231.8382C1241.6432,-226.8268 1104.0679,-212.2931 1071.5952,-180 1055.566,-164.0595 1051.4543,-138.2289 1050.9815,-118.32"/>
<polygon fill="#000000" stroke="#000000" points="1054.4817,-118.2684 1051.0311,-108.2513 1047.4817,-118.2339 1054.4817,-118.2684"/>
</g>
<!-- texlive&#45;core -->
<g id="node21" class="node">
<title>texlive&#45;core</title>
<ellipse fill="#fde725" stroke="#000000" cx="1150.5952" cy="-162" rx="69.5877" ry="18"/>
<text text-anchor="middle" x="1150.5952" y="-158.3" font-family="Times,serif" font-size="14.00" fill="#000000">texlive core</text>
</g>
<!-- mpfr&#45;&gt;texlive&#45;core -->
<g id="edge18" class="edge">
<title>mpfr&#45;&gt;texlive&#45;core</title>
<path fill="none" stroke="#000000" d="M1309.0107,-223.9887C1280.5787,-212.8631 1234.0257,-194.6467 1198.7245,-180.8332"/>
<polygon fill="#000000" stroke="#000000" points="1199.6784,-177.4481 1189.0905,-177.0634 1197.1276,-183.9668 1199.6784,-177.4481"/>
</g>
<!-- mpir -->
<g id="node14" class="node">
<title>mpir</title>
<ellipse fill="#31688e" stroke="#000000" cx="1393.5952" cy="-306" rx="30.5947" ry="18"/>
<text text-anchor="middle" x="1393.5952" y="-302.3" font-family="Times,serif" font-size="14.00" fill="#ffffff">mpir</text>
</g>
<!-- mpir&#45;&gt;gmpy2 -->
<g id="edge19" class="edge">
<title>mpir&#45;&gt;gmpy2</title>
<path fill="none" stroke="#000000" d="M1402.8314,-288.7269C1417.5761,-258.838 1443.2513,-195.7088 1427.5952,-144 1424.4607,-133.6475 1418.6145,-123.4656 1412.5313,-114.7822"/>
<polygon fill="#000000" stroke="#000000" points="1415.2465,-112.5685 1406.4607,-106.6475 1409.6365,-116.7551 1415.2465,-112.5685"/>
</g>
<!-- mpir&#45;&gt;mpc -->
<g id="edge20" class="edge">
<title>mpir&#45;&gt;mpc</title>
<path fill="none" stroke="#000000" d="M1393.3419,-287.7623C1393.0007,-263.201 1392.3903,-219.2474 1391.989,-190.3541"/>
<polygon fill="#000000" stroke="#000000" points="1395.485,-190.04 1391.8464,-180.0896 1388.4857,-190.1373 1395.485,-190.04"/>
</g>
<!-- mpir&#45;&gt;mpfr -->
<g id="edge21" class="edge">
<title>mpir&#45;&gt;mpfr</title>
<path fill="none" stroke="#000000" d="M1380.2071,-289.6621C1372.5882,-280.3644 1362.9009,-268.5426 1354.4153,-258.1873"/>
<polygon fill="#000000" stroke="#000000" points="1356.9756,-255.7897 1347.9302,-250.2733 1351.5613,-260.2265 1356.9756,-255.7897"/>
</g>
<!-- opencv -->
<g id="node15" class="node">
<title>opencv</title>
<ellipse fill="#fde725" stroke="#000000" cx="591.5952" cy="-90" rx="40.0939" ry="18"/>
<text text-anchor="middle" x="591.5952" y="-86.3" font-family="Times,serif" font-size="14.00" fill="#000000">opencv</text>
</g>
<!-- pyqt -->
<g id="node17" class="node">
<title>pyqt</title>
<ellipse fill="#fde725" stroke="#000000" cx="680.5952" cy="-90" rx="30.5947" ry="18"/>
<text text-anchor="middle" x="680.5952" y="-86.3" font-family="Times,serif" font-size="14.00" fill="#000000">pyqt</text>
</g>
<!-- pyqt&#45;&gt;matplotlib -->
<g id="edge22" class="edge">
<title>pyqt&#45;&gt;matplotlib</title>
<path fill="none" stroke="#000000" d="M680.5952,-71.8314C680.5952,-64.131 680.5952,-54.9743 680.5952,-46.4166"/>
<polygon fill="#000000" stroke="#000000" points="684.0953,-46.4132 680.5952,-36.4133 677.0953,-46.4133 684.0953,-46.4132"/>
</g>
<!-- qt&#45;&gt;opencv -->
<g id="edge23" class="edge">
<title>qt&#45;&gt;opencv</title>
<path fill="none" stroke="#000000" d="M625.3901,-145.3008C620.1033,-136.6496 613.5263,-125.8873 607.5832,-116.1623"/>
<polygon fill="#000000" stroke="#000000" points="610.5598,-114.3209 602.3588,-107.6132 604.5868,-117.9711 610.5598,-114.3209"/>
</g>
<!-- qt&#45;&gt;pyqt -->
<g id="edge24" class="edge">
<title>qt&#45;&gt;pyqt</title>
<path fill="none" stroke="#000000" d="M646.0322,-145.3008C651.5186,-136.5224 658.3637,-125.5703 664.5114,-115.7339"/>
<polygon fill="#000000" stroke="#000000" points="667.5702,-117.4436 669.9023,-107.1086 661.6342,-113.7336 667.5702,-117.4436"/>
</g>
<!-- qt&#45;&gt;root -->
<g id="edge25" class="edge">
<title>qt&#45;&gt;root</title>
<path fill="none" stroke="#000000" d="M610.6799,-154.4308C568.9615,-141.7569 484.7559,-116.1754 435.9322,-101.3429"/>
<polygon fill="#000000" stroke="#000000" points="436.6645,-97.9075 426.0789,-98.3495 434.6297,-104.6052 436.6645,-97.9075"/>
</g>
<!-- texlive&#45;core&#45;&gt;r&#45;base -->
<g id="edge26" class="edge">
<title>texlive&#45;core&#45;&gt;r&#45;base</title>
<path fill="none" stroke="#000000" d="M1127.3705,-144.937C1113.7437,-134.9255 1096.399,-122.1824 1081.8457,-111.4902"/>
<polygon fill="#000000" stroke="#000000" points="1083.7798,-108.5681 1073.6487,-105.4679 1079.6353,-114.2093 1083.7798,-108.5681"/>
</g>
<!-- libogg -->
<g id="node23" class="node">
<title>libogg</title>
<ellipse fill="#31688e" stroke="#000000" cx="866.5952" cy="-306" rx="40.0939" ry="18"/>
<text text-anchor="middle" x="866.5952" y="-302.3" font-family="Times,serif" font-size="14.00" fill="#ffffff">libogg</text>
</g>
<!-- libogg&#45;&gt;libsndfile -->
<g id="edge28" class="edge">
<title>libogg&#45;&gt;libsndfile</title>
<path fill="none" stroke="#000000" d="M840.8048,-291.8735C826.6869,-282.5863 810.4977,-269.0074 802.5952,-252 795.853,-237.4899 795.853,-230.5101 802.5952,-216 808.502,-203.2877 819.0385,-192.4909 829.8792,-183.97"/>
<polygon fill="#000000" stroke="#000000" points="832.1598,-186.6379 838.1568,-177.9037 828.022,-180.9918 832.1598,-186.6379"/>
</g>
<!-- libvorbis -->
<g id="node24" class="node">
<title>libvorbis</title>
<ellipse fill="#fde725" stroke="#000000" cx="866.5952" cy="-234" rx="54.6905" ry="18"/>
<text text-anchor="middle" x="866.5952" y="-230.3" font-family="Times,serif" font-size="14.00" fill="#000000">libvorbis</text>
</g>
<!-- libogg&#45;&gt;libvorbis -->
<g id="edge29" class="edge">
<title>libogg&#45;&gt;libvorbis</title>
<path fill="none" stroke="#000000" d="M866.5952,-287.8314C866.5952,-280.131 866.5952,-270.9743 866.5952,-262.4166"/>
<polygon fill="#000000" stroke="#000000" points="870.0953,-262.4132 866.5952,-252.4133 863.0953,-262.4133 870.0953,-262.4132"/>
</g>
<!-- libflac -->
<g id="node25" class="node">
<title>libflac</title>
<ellipse fill="#fde725" stroke="#000000" cx="983.5952" cy="-234" rx="44.6926" ry="18"/>
<text text-anchor="middle" x="983.5952" y="-230.3" font-family="Times,serif" font-size="14.00" fill="#000000">libflac</text>
</g>
<!-- libogg&#45;&gt;libflac -->
<g id="edge27" class="edge">
<title>libogg&#45;&gt;libflac</title>
<path fill="none" stroke="#000000" d="M890.2719,-291.4297C907.4497,-280.8587 930.926,-266.4118 950.0345,-254.6527"/>
<polygon fill="#000000" stroke="#000000" points="952.06,-257.516 958.7422,-249.2941 948.3913,-251.5543 952.06,-257.516"/>
</g>
<!-- libvorbis&#45;&gt;libsndfile -->
<g id="edge30" class="edge">
<title>libvorbis&#45;&gt;libsndfile</title>
<path fill="none" stroke="#000000" d="M866.5952,-215.8314C866.5952,-208.131 866.5952,-198.9743 866.5952,-190.4166"/>
<polygon fill="#000000" stroke="#000000" points="870.0953,-190.4132 866.5952,-180.4133 863.0953,-190.4133 870.0953,-190.4132"/>
</g>
<!-- libflac&#45;&gt;libsndfile -->
<g id="edge31" class="edge">
<title>libflac&#45;&gt;libsndfile</title>
<path fill="none" stroke="#000000" d="M959.0681,-218.9064C942.4836,-208.7006 920.3244,-195.0642 901.8555,-183.6987"/>
<polygon fill="#000000" stroke="#000000" points="903.4769,-180.5869 893.126,-178.3267 899.8082,-186.5485 903.4769,-180.5869"/>
</g>
<!-- openmp -->
<g id="node26" class="node">
<title>openmp</title>
<ellipse fill="#31688e" stroke="#000000" cx="984.5952" cy="-162" rx="40.0939" ry="18"/>
<text text-anchor="middle" x="984.5952" y="-158.3" font-family="Times,serif" font-size="14.00" fill="#ffffff">openmp</text>
</g>
<!-- openmp&#45;&gt;r&#45;base -->
<g id="edge32" class="edge">
<title>openmp&#45;&gt;r&#45;base</title>
<path fill="none" stroke="#000000" d="M1000.3666,-145.3008C1009.1208,-136.0317 1020.1639,-124.339 1029.8384,-114.0954"/>
<polygon fill="#000000" stroke="#000000" points="1032.5875,-116.282 1036.9092,-106.6087 1027.4984,-111.4756 1032.5875,-116.282"/>
</g>
<!-- nspr -->
<g id="node28" class="node">
<title>nspr</title>
<ellipse fill="#31688e" stroke="#000000" cx="700.5952" cy="-306" rx="30.5947" ry="18"/>
<text text-anchor="middle" x="700.5952" y="-302.3" font-family="Times,serif" font-size="14.00" fill="#ffffff">nspr</text>
</g>
<!-- nspr&#45;&gt;qt -->
<g id="edge34" class="edge">
<title>nspr&#45;&gt;qt</title>
<path fill="none" stroke="#000000" d="M692.6249,-288.3428C681.3557,-263.3773 660.6795,-217.5715 647.5619,-188.5109"/>
<polygon fill="#000000" stroke="#000000" points="650.7319,-187.0264 643.4276,-179.3519 644.3518,-189.9063 650.7319,-187.0264"/>
</g>
<!-- nss -->
<g id="node29" class="node">
<title>nss</title>
<ellipse fill="#fde725" stroke="#000000" cx="728.5952" cy="-234" rx="27" ry="18"/>
<text text-anchor="middle" x="728.5952" y="-230.3" font-family="Times,serif" font-size="14.00" fill="#000000">nss</text>
</g>
<!-- nspr&#45;&gt;nss -->
<g id="edge33" class="edge">
<title>nspr&#45;&gt;nss</title>
<path fill="none" stroke="#000000" d="M707.5165,-288.2022C710.7038,-280.0064 714.5553,-270.1024 718.0895,-261.0145"/>
<polygon fill="#000000" stroke="#000000" points="721.3909,-262.1817 721.7534,-251.593 714.8669,-259.6445 721.3909,-262.1817"/>
</g>
<!-- nss&#45;&gt;qt -->
<g id="edge35" class="edge">
<title>nss&#45;&gt;qt</title>
<path fill="none" stroke="#000000" d="M710.6638,-220.1177C696.7688,-209.3602 677.3171,-194.3009 661.6961,-182.2072"/>
<polygon fill="#000000" stroke="#000000" points="663.5213,-179.1939 653.4714,-175.8397 659.2361,-184.729 663.5213,-179.1939"/>
</g>
<!-- cvxpy -->
<g id="node30" class="node">
<title>cvxpy</title>
<ellipse fill="#31688e" stroke="#000000" cx="1612.5952" cy="-306" rx="35.194" ry="18"/>
<text text-anchor="middle" x="1612.5952" y="-302.3" font-family="Times,serif" font-size="14.00" fill="#ffffff">cvxpy</text>
</g>
<!-- lief -->
<g id="node32" class="node">
<title>lief</title>
<ellipse fill="#31688e" stroke="#000000" cx="1696.5952" cy="-306" rx="30.5947" ry="18"/>
<text text-anchor="middle" x="1696.5952" y="-302.3" font-family="Times,serif" font-size="14.00" fill="#ffffff">lief</text>
</g>
<!-- tapi -->
<g id="node33" class="node">
<title>tapi</title>
<ellipse fill="#31688e" stroke="#000000" cx="1775.5952" cy="-306" rx="30.5947" ry="18"/>
<text text-anchor="middle" x="1775.5952" y="-302.3" font-family="Times,serif" font-size="14.00" fill="#ffffff">tapi</text>
</g>
<!-- cctools&#45;and&#45;ld64 -->
<g id="node34" class="node">
<title>cctools&#45;and&#45;ld64</title>
<ellipse fill="#fde725" stroke="#000000" cx="1775.5952" cy="-234" rx="89.0842" ry="18"/>
<text text-anchor="middle" x="1775.5952" y="-230.3" font-family="Times,serif" font-size="14.00" fill="#000000">cctools and ld64</text>
</g>
<!-- tapi&#45;&gt;cctools&#45;and&#45;ld64 -->
<g id="edge36" class="edge">
<title>tapi&#45;&gt;cctools&#45;and&#45;ld64</title>
<path fill="none" stroke="#000000" d="M1775.5952,-287.8314C1775.5952,-280.131 1775.5952,-270.9743 1775.5952,-262.4166"/>
<polygon fill="#000000" stroke="#000000" points="1779.0953,-262.4132 1775.5952,-252.4133 1772.0953,-262.4133 1779.0953,-262.4132"/>
</g>
<!-- ctng&#45;compiler&#45;activation -->
<g id="node35" class="node">
<title>ctng&#45;compiler&#45;activation</title>
<ellipse fill="#fde725" stroke="#000000" cx="1961.5952" cy="-162" rx="128.0773" ry="18"/>
<text text-anchor="middle" x="1961.5952" y="-158.3" font-family="Times,serif" font-size="14.00" fill="#000000">ctng compiler activation</text>
</g>
<!-- crosstool&#45;ng -->
<g id="node36" class="node">
<title>crosstool&#45;ng</title>
<ellipse fill="#31688e" stroke="#000000" cx="1961.5952" cy="-306" rx="69.5877" ry="18"/>
<text text-anchor="middle" x="1961.5952" y="-302.3" font-family="Times,serif" font-size="14.00" fill="#ffffff">crosstool ng</text>
</g>
<!-- ctng&#45;compilers -->
<g id="node37" class="node">
<title>ctng&#45;compilers</title>
<ellipse fill="#fde725" stroke="#000000" cx="1961.5952" cy="-234" rx="79.0865" ry="18"/>
<text text-anchor="middle" x="1961.5952" y="-230.3" font-family="Times,serif" font-size="14.00" fill="#000000">ctng compilers</text>
</g>
<!-- crosstool&#45;ng&#45;&gt;ctng&#45;compilers -->
<g id="edge37" class="edge">
<title>crosstool&#45;ng&#45;&gt;ctng&#45;compilers</title>
<path fill="none" stroke="#000000" d="M1961.5952,-287.8314C1961.5952,-280.131 1961.5952,-270.9743 1961.5952,-262.4166"/>
<polygon fill="#000000" stroke="#000000" points="1965.0953,-262.4132 1961.5952,-252.4133 1958.0953,-262.4133 1965.0953,-262.4132"/>
</g>
<!-- ctng&#45;compilers&#45;&gt;ctng&#45;compiler&#45;activation -->
<g id="edge38" class="edge">
<title>ctng&#45;compilers&#45;&gt;ctng&#45;compiler&#45;activation</title>
<path fill="none" stroke="#000000" d="M1961.5952,-215.8314C1961.5952,-208.131 1961.5952,-198.9743 1961.5952,-190.4166"/>
<polygon fill="#000000" stroke="#000000" points="1965.0953,-190.4132 1961.5952,-180.4133 1958.0953,-190.4133 1965.0953,-190.4132"/>
</g>
<!-- blah_ -->
<g id="node38" class="node">
<title>blah_</title>
<ellipse fill="#35b779" stroke="#000000" cx="1273.5952" cy="-162" rx="35.194" ry="18"/>
<text text-anchor="middle" x="1273.5952" y="-158.3" font-family="Times,serif" font-size="14.00" fill="#000000">blah_</text>
</g>
<!-- blah_&#45;&gt;r&#45;base -->
<g id="edge39" class="edge">
<title>blah_&#45;&gt;r&#45;base</title>
<path fill="none" stroke="#000000" d="M1246.2844,-150.3718C1240.7934,-148.1631 1235.0375,-145.9387 1229.5952,-144 1184.9184,-128.0847 1132.911,-112.5683 1096.8831,-102.2829"/>
<polygon fill="#000000" stroke="#000000" points="1097.7403,-98.888 1087.1646,-99.5246 1095.829,-105.622 1097.7403,-98.888"/>
</g>
</g>
</svg>
