<?xml version="1.0" encoding="UTF-8" standalone="no"?>
<!DOCTYPE svg PUBLIC "-//W3C//DTD SVG 1.1//EN"
 "http://www.w3.org/Graphics/SVG/1.1/DTD/svg11.dtd">
<!-- Generated by graphviz version 2.40.1 (20161225.0304)
 -->
<!-- Title: %3 Pages: 1 -->
<svg width="1668pt" height="476pt"
 viewBox="0.00 0.00 1668.19 476.00" xmlns="http://www.w3.org/2000/svg" xmlns:xlink="http://www.w3.org/1999/xlink">
<g id="graph0" class="graph" transform="scale(1 1) rotate(0) translate(4 472)">
<title>%3</title>
<polygon fill="#ffffff" stroke="transparent" points="-4,4 -4,-472 1664.1903,-472 1664.1903,4 -4,4"/>
<!-- arrow&#45;cpp -->
<g id="node1" class="node">
<title>arrow&#45;cpp</title>
<ellipse fill="#31688e" stroke="#000000" cx="54.5952" cy="-450" rx="54.6905" ry="18"/>
<text text-anchor="middle" x="54.5952" y="-446.3" font-family="Times,serif" font-size="14.00" fill="#ffffff">arrow cpp</text>
</g>
<!-- pyarrow -->
<g id="node21" class="node">
<title>pyarrow</title>
<ellipse fill="#fde725" stroke="#000000" cx="54.5952" cy="-378" rx="44.6926" ry="18"/>
<text text-anchor="middle" x="54.5952" y="-374.3" font-family="Times,serif" font-size="14.00" fill="#000000">pyarrow</text>
</g>
<!-- arrow&#45;cpp&#45;&gt;pyarrow -->
<g id="edge1" class="edge">
<title>arrow&#45;cpp&#45;&gt;pyarrow</title>
<path fill="none" stroke="#000000" d="M54.5952,-431.8314C54.5952,-424.131 54.5952,-414.9743 54.5952,-406.4166"/>
<polygon fill="#000000" stroke="#000000" points="58.0953,-406.4132 54.5952,-396.4133 51.0953,-406.4133 58.0953,-406.4132"/>
</g>
<!-- future -->
<g id="node2" class="node">
<title>future</title>
<ellipse fill="#000000" stroke="#000000" cx="434.5952" cy="-450" rx="40.0939" ry="18"/>
<text text-anchor="middle" x="434.5952" y="-446.3" font-family="Times,serif" font-size="14.00" fill="#ffffff">future</text>
</g>
<!-- glew -->
<g id="node3" class="node">
<title>glew</title>
<ellipse fill="#fde725" stroke="#000000" cx="290.5952" cy="-306" rx="30.5947" ry="18"/>
<text text-anchor="middle" x="290.5952" y="-302.3" font-family="Times,serif" font-size="14.00" fill="#000000">glew</text>
</g>
<!-- root -->
<g id="node37" class="node">
<title>root</title>
<ellipse fill="#fde725" stroke="#000000" cx="464.5952" cy="-234" rx="30.5947" ry="18"/>
<text text-anchor="middle" x="464.5952" y="-230.3" font-family="Times,serif" font-size="14.00" fill="#000000">root</text>
</g>
<!-- glew&#45;&gt;root -->
<g id="edge2" class="edge">
<title>glew&#45;&gt;root</title>
<path fill="none" stroke="#000000" d="M315.0659,-294.8028C320.1807,-292.5146 325.5514,-290.1501 330.5952,-288 363.8849,-273.8088 402.2148,-258.4611 429.3293,-247.7683"/>
<polygon fill="#000000" stroke="#000000" points="430.7566,-250.968 438.7813,-244.0502 428.1941,-244.4538 430.7566,-250.968"/>
</g>
<!-- gstreamer -->
<g id="node4" class="node">
<title>gstreamer</title>
<ellipse fill="#31688e" stroke="#000000" cx="653.5952" cy="-378" rx="54.6905" ry="18"/>
<text text-anchor="middle" x="653.5952" y="-374.3" font-family="Times,serif" font-size="14.00" fill="#ffffff">gstreamer</text>
</g>
<!-- qt -->
<g id="node23" class="node">
<title>qt</title>
<ellipse fill="#fde725" stroke="#000000" cx="646.5952" cy="-306" rx="27" ry="18"/>
<text text-anchor="middle" x="646.5952" y="-302.3" font-family="Times,serif" font-size="14.00" fill="#000000">qt</text>
</g>
<!-- gstreamer&#45;&gt;qt -->
<g id="edge3" class="edge">
<title>gstreamer&#45;&gt;qt</title>
<path fill="none" stroke="#000000" d="M651.8288,-359.8314C651.0801,-352.131 650.1899,-342.9743 649.3579,-334.4166"/>
<polygon fill="#000000" stroke="#000000" points="652.8367,-334.0276 648.3853,-324.4133 645.8695,-334.7051 652.8367,-334.0276"/>
</g>
<!-- hdf5 -->
<g id="node5" class="node">
<title>hdf5</title>
<ellipse fill="#000000" stroke="#000000" cx="895.5952" cy="-306" rx="30.5947" ry="18"/>
<text text-anchor="middle" x="895.5952" y="-302.3" font-family="Times,serif" font-size="14.00" fill="#ffffff">hdf5</text>
</g>
<!-- opencv -->
<g id="node17" class="node">
<title>opencv</title>
<ellipse fill="#fde725" stroke="#000000" cx="958.5952" cy="-234" rx="40.0939" ry="18"/>
<text text-anchor="middle" x="958.5952" y="-230.3" font-family="Times,serif" font-size="14.00" fill="#000000">opencv</text>
</g>
<!-- hdf5&#45;&gt;opencv -->
<g id="edge4" class="edge">
<title>hdf5&#45;&gt;opencv</title>
<path fill="none" stroke="#000000" d="M909.8908,-289.6621C917.9912,-280.4046 928.281,-268.6447 937.3137,-258.3217"/>
<polygon fill="#000000" stroke="#000000" points="939.9678,-260.6035 943.9189,-250.7729 934.6998,-255.9939 939.9678,-260.6035"/>
</g>
<!-- ipyparallel -->
<g id="node6" class="node">
<title>ipyparallel</title>
<ellipse fill="#31688e" stroke="#000000" cx="403.5952" cy="-306" rx="64.189" ry="18"/>
<text text-anchor="middle" x="403.5952" y="-302.3" font-family="Times,serif" font-size="14.00" fill="#ffffff">ipyparallel</text>
</g>
<!-- ipyparallel&#45;&gt;root -->
<g id="edge5" class="edge">
<title>ipyparallel&#45;&gt;root</title>
<path fill="none" stroke="#000000" d="M418.6738,-288.2022C426.3915,-279.0928 435.897,-267.8733 444.2537,-258.0096"/>
<polygon fill="#000000" stroke="#000000" points="447.145,-260.0113 450.9388,-250.119 441.8041,-255.4864 447.145,-260.0113"/>
</g>
<!-- ipython -->
<g id="node7" class="node">
<title>ipython</title>
<ellipse fill="#000000" stroke="#000000" cx="260.5952" cy="-378" rx="44.6926" ry="18"/>
<text text-anchor="middle" x="260.5952" y="-374.3" font-family="Times,serif" font-size="14.00" fill="#ffffff">ipython</text>
</g>
<!-- ipython&#45;&gt;ipyparallel -->
<g id="edge6" class="edge">
<title>ipython&#45;&gt;ipyparallel</title>
<path fill="none" stroke="#000000" d="M288.8474,-363.7751C310.0452,-353.1021 339.3667,-338.3388 363.0632,-326.4077"/>
<polygon fill="#000000" stroke="#000000" points="364.8126,-329.4455 372.1704,-321.8223 361.6646,-323.1933 364.8126,-329.4455"/>
</g>
<!-- jupyter_client -->
<g id="node8" class="node">
<title>jupyter_client</title>
<ellipse fill="#31688e" stroke="#000000" cx="402.5952" cy="-378" rx="79.0865" ry="18"/>
<text text-anchor="middle" x="402.5952" y="-374.3" font-family="Times,serif" font-size="14.00" fill="#ffffff">jupyter_client</text>
</g>
<!-- jupyter_client&#45;&gt;ipyparallel -->
<g id="edge7" class="edge">
<title>jupyter_client&#45;&gt;ipyparallel</title>
<path fill="none" stroke="#000000" d="M402.8475,-359.8314C402.9544,-352.131 403.0816,-342.9743 403.2005,-334.4166"/>
<polygon fill="#000000" stroke="#000000" points="406.7001,-334.4609 403.3394,-324.4133 399.7008,-334.3637 406.7001,-334.4609"/>
</g>
<!-- nbconvert -->
<g id="node15" class="node">
<title>nbconvert</title>
<ellipse fill="#000000" stroke="#000000" cx="540.5952" cy="-306" rx="54.6905" ry="18"/>
<text text-anchor="middle" x="540.5952" y="-302.3" font-family="Times,serif" font-size="14.00" fill="#ffffff">nbconvert</text>
</g>
<!-- jupyter_client&#45;&gt;nbconvert -->
<g id="edge8" class="edge">
<title>jupyter_client&#45;&gt;nbconvert</title>
<path fill="none" stroke="#000000" d="M434.2551,-361.4817C454.3571,-350.9938 480.5098,-337.3489 501.8489,-326.2155"/>
<polygon fill="#000000" stroke="#000000" points="503.724,-329.1849 510.9708,-321.4562 500.486,-322.9788 503.724,-329.1849"/>
</g>
<!-- libglu -->
<g id="node9" class="node">
<title>libglu</title>
<ellipse fill="#31688e" stroke="#000000" cx="157.5952" cy="-378" rx="40.0939" ry="18"/>
<text text-anchor="middle" x="157.5952" y="-374.3" font-family="Times,serif" font-size="14.00" fill="#ffffff">libglu</text>
</g>
<!-- libglu&#45;&gt;glew -->
<g id="edge10" class="edge">
<title>libglu&#45;&gt;glew</title>
<path fill="none" stroke="#000000" d="M183.5546,-363.9468C205.0819,-352.2929 235.7748,-335.6772 258.7786,-323.224"/>
<polygon fill="#000000" stroke="#000000" points="260.6771,-326.1763 267.8049,-318.3376 257.3445,-320.0204 260.6771,-326.1763"/>
</g>
<!-- freeglut -->
<g id="node28" class="node">
<title>freeglut</title>
<ellipse fill="#fde725" stroke="#000000" cx="153.5952" cy="-306" rx="50.0912" ry="18"/>
<text text-anchor="middle" x="153.5952" y="-302.3" font-family="Times,serif" font-size="14.00" fill="#000000">freeglut</text>
</g>
<!-- libglu&#45;&gt;freeglut -->
<g id="edge9" class="edge">
<title>libglu&#45;&gt;freeglut</title>
<path fill="none" stroke="#000000" d="M156.5858,-359.8314C156.158,-352.131 155.6493,-342.9743 155.1739,-334.4166"/>
<polygon fill="#000000" stroke="#000000" points="158.6675,-334.2037 154.6181,-324.4133 151.6783,-334.592 158.6675,-334.2037"/>
</g>
<!-- libglu&#45;&gt;root -->
<g id="edge11" class="edge">
<title>libglu&#45;&gt;root</title>
<path fill="none" stroke="#000000" d="M174.564,-361.3633C200.7686,-335.702 248.3254,-289.2639 250.5952,-288 306.0331,-257.1291 379.2963,-243.6012 424.1252,-237.8967"/>
<polygon fill="#000000" stroke="#000000" points="424.5512,-241.3708 434.0616,-236.7016 423.7152,-234.4209 424.5512,-241.3708"/>
</g>
<!-- libsndfile -->
<g id="node10" class="node">
<title>libsndfile</title>
<ellipse fill="#fde725" stroke="#000000" cx="788.5952" cy="-90" rx="59.5901" ry="18"/>
<text text-anchor="middle" x="788.5952" y="-86.3" font-family="Times,serif" font-size="14.00" fill="#000000">libsndfile</text>
</g>
<!-- r&#45;base -->
<g id="node24" class="node">
<title>r&#45;base</title>
<ellipse fill="#fde725" stroke="#000000" cx="925.5952" cy="-18" rx="40.0939" ry="18"/>
<text text-anchor="middle" x="925.5952" y="-14.3" font-family="Times,serif" font-size="14.00" fill="#000000">r base</text>
</g>
<!-- libsndfile&#45;&gt;r&#45;base -->
<g id="edge12" class="edge">
<title>libsndfile&#45;&gt;r&#45;base</title>
<path fill="none" stroke="#000000" d="M818.3221,-74.3771C839.3932,-63.3032 867.7627,-48.3937 890.0347,-36.6887"/>
<polygon fill="#000000" stroke="#000000" points="891.9438,-39.6394 899.1675,-31.889 888.6872,-33.443 891.9438,-39.6394"/>
</g>
<!-- llvmlite -->
<g id="node11" class="node">
<title>llvmlite</title>
<ellipse fill="#31688e" stroke="#000000" cx="1086.5952" cy="-450" rx="50.0912" ry="18"/>
<text text-anchor="middle" x="1086.5952" y="-446.3" font-family="Times,serif" font-size="14.00" fill="#ffffff">llvmlite</text>
</g>
<!-- numba -->
<g id="node33" class="node">
<title>numba</title>
<ellipse fill="#fde725" stroke="#000000" cx="1086.5952" cy="-378" rx="35.194" ry="18"/>
<text text-anchor="middle" x="1086.5952" y="-374.3" font-family="Times,serif" font-size="14.00" fill="#000000">numba</text>
</g>
<!-- llvmlite&#45;&gt;numba -->
<g id="edge13" class="edge">
<title>llvmlite&#45;&gt;numba</title>
<path fill="none" stroke="#000000" d="M1086.5952,-431.8314C1086.5952,-424.131 1086.5952,-414.9743 1086.5952,-406.4166"/>
<polygon fill="#000000" stroke="#000000" points="1090.0953,-406.4132 1086.5952,-396.4133 1083.0953,-406.4133 1090.0953,-406.4132"/>
</g>
<!-- matplotlib -->
<g id="node12" class="node">
<title>matplotlib</title>
<ellipse fill="#fde725" stroke="#000000" cx="548.5952" cy="-162" rx="59.5901" ry="18"/>
<text text-anchor="middle" x="548.5952" y="-158.3" font-family="Times,serif" font-size="14.00" fill="#000000">matplotlib</text>
</g>
<!-- mpfr -->
<g id="node13" class="node">
<title>mpfr</title>
<ellipse fill="#fde725" stroke="#000000" cx="930.5952" cy="-162" rx="30.5947" ry="18"/>
<text text-anchor="middle" x="930.5952" y="-158.3" font-family="Times,serif" font-size="14.00" fill="#000000">mpfr</text>
</g>
<!-- mpfr&#45;&gt;r&#45;base -->
<g id="edge14" class="edge">
<title>mpfr&#45;&gt;r&#45;base</title>
<path fill="none" stroke="#000000" d="M916.4986,-145.7544C908.6751,-135.6349 899.7139,-121.9273 895.5952,-108 891.0577,-92.6569 891.5817,-87.4885 895.5952,-72 898.0844,-62.3937 902.6936,-52.6768 907.5649,-44.1845"/>
<polygon fill="#000000" stroke="#000000" points="910.6363,-45.8706 912.8659,-35.513 904.6639,-42.2196 910.6363,-45.8706"/>
</g>
<!-- texlive&#45;core -->
<g id="node26" class="node">
<title>texlive&#45;core</title>
<ellipse fill="#fde725" stroke="#000000" cx="974.5952" cy="-90" rx="69.5877" ry="18"/>
<text text-anchor="middle" x="974.5952" y="-86.3" font-family="Times,serif" font-size="14.00" fill="#000000">texlive core</text>
</g>
<!-- mpfr&#45;&gt;texlive&#45;core -->
<g id="edge15" class="edge">
<title>mpfr&#45;&gt;texlive&#45;core</title>
<path fill="none" stroke="#000000" d="M941.0225,-144.937C946.1837,-136.4914 952.5329,-126.1019 958.3154,-116.6396"/>
<polygon fill="#000000" stroke="#000000" points="961.4006,-118.3032 963.6286,-107.9453 955.4276,-114.653 961.4006,-118.3032"/>
</g>
<!-- mpir -->
<g id="node14" class="node">
<title>mpir</title>
<ellipse fill="#31688e" stroke="#000000" cx="869.5952" cy="-234" rx="30.5947" ry="18"/>
<text text-anchor="middle" x="869.5952" y="-230.3" font-family="Times,serif" font-size="14.00" fill="#ffffff">mpir</text>
</g>
<!-- mpir&#45;&gt;mpfr -->
<g id="edge16" class="edge">
<title>mpir&#45;&gt;mpfr</title>
<path fill="none" stroke="#000000" d="M883.437,-217.6621C891.3142,-208.3644 901.3299,-196.5426 910.1031,-186.1873"/>
<polygon fill="#000000" stroke="#000000" points="913.0143,-188.1656 916.8081,-178.2733 907.6734,-183.6407 913.0143,-188.1656"/>
</g>
<!-- openblas -->
<g id="node16" class="node">
<title>openblas</title>
<ellipse fill="#000000" stroke="#000000" cx="983.5952" cy="-378" rx="50.0912" ry="18"/>
<text text-anchor="middle" x="983.5952" y="-374.3" font-family="Times,serif" font-size="14.00" fill="#ffffff">openblas</text>
</g>
<!-- openblas&#45;&gt;opencv -->
<g id="edge18" class="edge">
<title>openblas&#45;&gt;opencv</title>
<path fill="none" stroke="#000000" d="M980.1809,-360.0146C978.2095,-349.5195 975.7095,-336.0195 973.5952,-324 969.9816,-303.4579 966.117,-280.2378 963.2156,-262.5289"/>
<polygon fill="#000000" stroke="#000000" points="966.6094,-261.5937 961.5444,-252.288 959.7007,-262.7212 966.6094,-261.5937"/>
</g>
<!-- openblas&#45;&gt;r&#45;base -->
<g id="edge19" class="edge">
<title>openblas&#45;&gt;r&#45;base</title>
<path fill="none" stroke="#000000" d="M1011.4569,-363.0362C1026.1897,-353.7135 1043.3078,-340.3762 1053.5952,-324 1075.3417,-289.3821 1072.5952,-274.8816 1072.5952,-234 1072.5952,-234 1072.5952,-234 1072.5952,-162 1072.5952,-121.1184 1079.612,-103.5346 1053.5952,-72 1033.5682,-47.7257 1000.7054,-34.1679 973.2933,-26.7084"/>
<polygon fill="#000000" stroke="#000000" points="974.0274,-23.284 963.4746,-24.2276 972.3125,-30.0707 974.0274,-23.284"/>
</g>
<!-- blas -->
<g id="node36" class="node">
<title>blas</title>
<ellipse fill="#000000" stroke="#000000" cx="1013.5952" cy="-306" rx="30.5947" ry="18"/>
<text text-anchor="middle" x="1013.5952" y="-302.3" font-family="Times,serif" font-size="14.00" fill="#ffffff">blas</text>
</g>
<!-- openblas&#45;&gt;blas -->
<g id="edge17" class="edge">
<title>openblas&#45;&gt;blas</title>
<path fill="none" stroke="#000000" d="M991.1654,-359.8314C994.5307,-351.7547 998.5634,-342.0761 1002.2757,-333.1668"/>
<polygon fill="#000000" stroke="#000000" points="1005.5158,-334.4904 1006.1312,-323.9134 999.0542,-331.798 1005.5158,-334.4904"/>
</g>
<!-- openblas&#45;&gt;root -->
<g id="edge20" class="edge">
<title>openblas&#45;&gt;root</title>
<path fill="none" stroke="#000000" d="M936.8415,-371.5556C871.7507,-362.0519 757.6419,-343.3078 720.5952,-324 699.9645,-313.2478 703.005,-299.1658 682.5952,-288 652.0664,-271.2983 558.1275,-251.6346 504.0458,-241.2591"/>
<polygon fill="#000000" stroke="#000000" points="504.5912,-237.8002 494.1136,-239.372 503.2845,-244.6771 504.5912,-237.8002"/>
</g>
<!-- pandoc -->
<g id="node18" class="node">
<title>pandoc</title>
<ellipse fill="#000000" stroke="#000000" cx="540.5952" cy="-378" rx="40.0939" ry="18"/>
<text text-anchor="middle" x="540.5952" y="-374.3" font-family="Times,serif" font-size="14.00" fill="#ffffff">pandoc</text>
</g>
<!-- pandoc&#45;&gt;nbconvert -->
<g id="edge21" class="edge">
<title>pandoc&#45;&gt;nbconvert</title>
<path fill="none" stroke="#000000" d="M540.5952,-359.8314C540.5952,-352.131 540.5952,-342.9743 540.5952,-334.4166"/>
<polygon fill="#000000" stroke="#000000" points="544.0953,-334.4132 540.5952,-324.4133 537.0953,-334.4133 544.0953,-334.4132"/>
</g>
<!-- pkgconfig -->
<g id="node19" class="node">
<title>pkgconfig</title>
<ellipse fill="#000000" stroke="#000000" cx="784.5952" cy="-306" rx="54.6905" ry="18"/>
<text text-anchor="middle" x="784.5952" y="-302.3" font-family="Times,serif" font-size="14.00" fill="#ffffff">pkgconfig</text>
</g>
<!-- pkgconfig&#45;&gt;opencv -->
<g id="edge24" class="edge">
<title>pkgconfig&#45;&gt;opencv</title>
<path fill="none" stroke="#000000" d="M818.972,-291.7751C847.9275,-279.7935 889.3401,-262.6572 919.5424,-250.1598"/>
<polygon fill="#000000" stroke="#000000" points="921.0225,-253.3352 928.9244,-246.2776 918.346,-246.8671 921.0225,-253.3352"/>
</g>
<!-- libogg -->
<g id="node29" class="node">
<title>libogg</title>
<ellipse fill="#31688e" stroke="#000000" cx="780.5952" cy="-234" rx="40.0939" ry="18"/>
<text text-anchor="middle" x="780.5952" y="-230.3" font-family="Times,serif" font-size="14.00" fill="#ffffff">libogg</text>
</g>
<!-- pkgconfig&#45;&gt;libogg -->
<g id="edge23" class="edge">
<title>pkgconfig&#45;&gt;libogg</title>
<path fill="none" stroke="#000000" d="M783.5858,-287.8314C783.158,-280.131 782.6493,-270.9743 782.1739,-262.4166"/>
<polygon fill="#000000" stroke="#000000" points="785.6675,-262.2037 781.6181,-252.4133 778.6783,-262.592 785.6675,-262.2037"/>
</g>
<!-- libflac -->
<g id="node31" class="node">
<title>libflac</title>
<ellipse fill="#fde725" stroke="#000000" cx="671.5952" cy="-162" rx="44.6926" ry="18"/>
<text text-anchor="middle" x="671.5952" y="-158.3" font-family="Times,serif" font-size="14.00" fill="#000000">libflac</text>
</g>
<!-- pkgconfig&#45;&gt;libflac -->
<g id="edge22" class="edge">
<title>pkgconfig&#45;&gt;libflac</title>
<path fill="none" stroke="#000000" d="M766.0445,-288.7896C755.4443,-278.5528 742.1943,-265.0528 731.5952,-252 715.0886,-231.6722 698.7626,-206.7871 687.3178,-188.3404"/>
<polygon fill="#000000" stroke="#000000" points="690.1675,-186.2921 681.9577,-179.5951 684.1993,-189.9501 690.1675,-186.2921"/>
</g>
<!-- pkgconfig&#45;&gt;root -->
<g id="edge25" class="edge">
<title>pkgconfig&#45;&gt;root</title>
<path fill="none" stroke="#000000" d="M741.9707,-294.5727C733.2618,-292.3246 724.1464,-290.0342 715.5952,-288 640.9026,-270.2316 553.0905,-251.9271 503.6283,-241.852"/>
<polygon fill="#000000" stroke="#000000" points="504.1709,-238.3908 493.6743,-239.8302 502.7774,-245.2507 504.1709,-238.3908"/>
</g>
<!-- pluggy -->
<g id="node20" class="node">
<title>pluggy</title>
<ellipse fill="#31688e" stroke="#000000" cx="1194.5952" cy="-450" rx="40.0939" ry="18"/>
<text text-anchor="middle" x="1194.5952" y="-446.3" font-family="Times,serif" font-size="14.00" fill="#ffffff">pluggy</text>
</g>
<!-- pyqt -->
<g id="node22" class="node">
<title>pyqt</title>
<ellipse fill="#fde725" stroke="#000000" cx="601.5952" cy="-234" rx="30.5947" ry="18"/>
<text text-anchor="middle" x="601.5952" y="-230.3" font-family="Times,serif" font-size="14.00" fill="#000000">pyqt</text>
</g>
<!-- pyqt&#45;&gt;matplotlib -->
<g id="edge26" class="edge">
<title>pyqt&#45;&gt;matplotlib</title>
<path fill="none" stroke="#000000" d="M589.3027,-217.3008C582.8695,-208.5614 574.8503,-197.6674 567.6346,-187.8649"/>
<polygon fill="#000000" stroke="#000000" points="570.3073,-185.5917 561.5604,-179.6132 564.6699,-189.7414 570.3073,-185.5917"/>
</g>
<!-- qt&#45;&gt;opencv -->
<g id="edge27" class="edge">
<title>qt&#45;&gt;opencv</title>
<path fill="none" stroke="#000000" d="M671.8665,-299.5188C686.1328,-295.9441 704.3136,-291.5285 720.5952,-288 804.1654,-269.889 827.1859,-274.8192 909.5952,-252 912.5566,-251.18 915.5931,-250.2614 918.6328,-249.2848"/>
<polygon fill="#000000" stroke="#000000" points="919.9193,-252.5444 928.2649,-246.0174 917.6706,-245.9154 919.9193,-252.5444"/>
</g>
<!-- qt&#45;&gt;pyqt -->
<g id="edge28" class="edge">
<title>qt&#45;&gt;pyqt</title>
<path fill="none" stroke="#000000" d="M636.1581,-289.3008C630.6717,-280.5224 623.8266,-269.5703 617.6789,-259.7339"/>
<polygon fill="#000000" stroke="#000000" points="620.5561,-257.7336 612.2881,-251.1086 614.6201,-261.4436 620.5561,-257.7336"/>
</g>
<!-- qt&#45;&gt;root -->
<g id="edge29" class="edge">
<title>qt&#45;&gt;root</title>
<path fill="none" stroke="#000000" d="M623.99,-296.1316C617.7277,-293.447 610.9143,-290.5718 604.5952,-288 569.1969,-273.5935 528.3937,-257.9652 500.0049,-247.2464"/>
<polygon fill="#000000" stroke="#000000" points="501.1023,-243.9197 490.5104,-243.6698 498.6347,-250.4704 501.1023,-243.9197"/>
</g>
<!-- sqlalchemy -->
<g id="node25" class="node">
<title>sqlalchemy</title>
<ellipse fill="#000000" stroke="#000000" cx="1312.5952" cy="-450" rx="59.5901" ry="18"/>
<text text-anchor="middle" x="1312.5952" y="-446.3" font-family="Times,serif" font-size="14.00" fill="#ffffff">sqlalchemy</text>
</g>
<!-- texlive&#45;core&#45;&gt;r&#45;base -->
<g id="edge30" class="edge">
<title>texlive&#45;core&#45;&gt;r&#45;base</title>
<path fill="none" stroke="#000000" d="M962.4828,-72.2022C956.6243,-63.5938 949.4834,-53.1011 943.0506,-43.6488"/>
<polygon fill="#000000" stroke="#000000" points="945.9189,-41.6425 937.3991,-35.3446 940.1319,-45.5809 945.9189,-41.6425"/>
</g>
<!-- unzip -->
<g id="node27" class="node">
<title>unzip</title>
<ellipse fill="#000000" stroke="#000000" cx="1425.5952" cy="-450" rx="35.194" ry="18"/>
<text text-anchor="middle" x="1425.5952" y="-446.3" font-family="Times,serif" font-size="14.00" fill="#ffffff">unzip</text>
</g>
<!-- libogg&#45;&gt;libsndfile -->
<g id="edge32" class="edge">
<title>libogg&#45;&gt;libsndfile</title>
<path fill="none" stroke="#000000" d="M808.7824,-221.0438C824.8022,-212.0189 843.4413,-198.3078 852.5952,-180 859.7506,-165.6892 859.3373,-158.5101 852.5952,-144 846.6884,-131.2877 836.1519,-120.4909 825.3111,-111.97"/>
<polygon fill="#000000" stroke="#000000" points="827.1683,-108.9918 817.0335,-105.9037 823.0305,-114.6379 827.1683,-108.9918"/>
</g>
<!-- libvorbis -->
<g id="node30" class="node">
<title>libvorbis</title>
<ellipse fill="#fde725" stroke="#000000" cx="788.5952" cy="-162" rx="54.6905" ry="18"/>
<text text-anchor="middle" x="788.5952" y="-158.3" font-family="Times,serif" font-size="14.00" fill="#000000">libvorbis</text>
</g>
<!-- libogg&#45;&gt;libvorbis -->
<g id="edge33" class="edge">
<title>libogg&#45;&gt;libvorbis</title>
<path fill="none" stroke="#000000" d="M782.6139,-215.8314C783.4695,-208.131 784.4869,-198.9743 785.4378,-190.4166"/>
<polygon fill="#000000" stroke="#000000" points="788.9234,-190.7386 786.5492,-180.4133 781.9662,-189.9656 788.9234,-190.7386"/>
</g>
<!-- libogg&#45;&gt;libflac -->
<g id="edge31" class="edge">
<title>libogg&#45;&gt;libflac</title>
<path fill="none" stroke="#000000" d="M758.0103,-219.0816C742.2924,-208.6991 721.1064,-194.7046 703.6457,-183.171"/>
<polygon fill="#000000" stroke="#000000" points="705.1762,-179.9874 694.9032,-177.3961 701.3181,-185.8282 705.1762,-179.9874"/>
</g>
<!-- libvorbis&#45;&gt;libsndfile -->
<g id="edge34" class="edge">
<title>libvorbis&#45;&gt;libsndfile</title>
<path fill="none" stroke="#000000" d="M788.5952,-143.8314C788.5952,-136.131 788.5952,-126.9743 788.5952,-118.4166"/>
<polygon fill="#000000" stroke="#000000" points="792.0953,-118.4132 788.5952,-108.4133 785.0953,-118.4133 792.0953,-118.4132"/>
</g>
<!-- libflac&#45;&gt;libsndfile -->
<g id="edge35" class="edge">
<title>libflac&#45;&gt;libsndfile</title>
<path fill="none" stroke="#000000" d="M696.1222,-146.9064C712.7067,-136.7006 734.8659,-123.0642 753.3348,-111.6987"/>
<polygon fill="#000000" stroke="#000000" points="755.3821,-114.5485 762.0643,-106.3267 751.7134,-108.5869 755.3821,-114.5485"/>
</g>
<!-- lld -->
<g id="node32" class="node">
<title>lld</title>
<ellipse fill="#31688e" stroke="#000000" cx="1505.5952" cy="-450" rx="27" ry="18"/>
<text text-anchor="middle" x="1505.5952" y="-446.3" font-family="Times,serif" font-size="14.00" fill="#ffffff">lld</text>
</g>
<!-- autotools_clang_conda -->
<g id="node38" class="node">
<title>autotools_clang_conda</title>
<ellipse fill="#fde725" stroke="#000000" cx="1505.5952" cy="-378" rx="113.18" ry="18"/>
<text text-anchor="middle" x="1505.5952" y="-374.3" font-family="Times,serif" font-size="14.00" fill="#000000">autotools_clang_conda</text>
</g>
<!-- lld&#45;&gt;autotools_clang_conda -->
<g id="edge36" class="edge">
<title>lld&#45;&gt;autotools_clang_conda</title>
<path fill="none" stroke="#000000" d="M1505.5952,-431.8314C1505.5952,-424.131 1505.5952,-414.9743 1505.5952,-406.4166"/>
<polygon fill="#000000" stroke="#000000" points="1509.0953,-406.4132 1505.5952,-396.4133 1502.0953,-406.4133 1509.0953,-406.4132"/>
</g>
<!-- nspr -->
<g id="node34" class="node">
<title>nspr</title>
<ellipse fill="#31688e" stroke="#000000" cx="763.5952" cy="-450" rx="30.5947" ry="18"/>
<text text-anchor="middle" x="763.5952" y="-446.3" font-family="Times,serif" font-size="14.00" fill="#ffffff">nspr</text>
</g>
<!-- nspr&#45;&gt;qt -->
<g id="edge38" class="edge">
<title>nspr&#45;&gt;qt</title>
<path fill="none" stroke="#000000" d="M757.1959,-432.0367C749.7438,-412.8023 736.0581,-382.0748 717.5952,-360 705.6648,-345.7357 689.3055,-332.9722 675.297,-323.4399"/>
<polygon fill="#000000" stroke="#000000" points="677.2161,-320.513 666.939,-317.9377 673.3671,-326.3598 677.2161,-320.513"/>
</g>
<!-- nss -->
<g id="node35" class="node">
<title>nss</title>
<ellipse fill="#fde725" stroke="#000000" cx="791.5952" cy="-378" rx="27" ry="18"/>
<text text-anchor="middle" x="791.5952" y="-374.3" font-family="Times,serif" font-size="14.00" fill="#000000">nss</text>
</g>
<!-- nspr&#45;&gt;nss -->
<g id="edge37" class="edge">
<title>nspr&#45;&gt;nss</title>
<path fill="none" stroke="#000000" d="M770.5165,-432.2022C773.7038,-424.0064 777.5553,-414.1024 781.0895,-405.0145"/>
<polygon fill="#000000" stroke="#000000" points="784.3909,-406.1817 784.7534,-395.593 777.8669,-403.6445 784.3909,-406.1817"/>
</g>
<!-- nss&#45;&gt;qt -->
<g id="edge39" class="edge">
<title>nss&#45;&gt;qt</title>
<path fill="none" stroke="#000000" d="M769.8872,-367.2209C745.4348,-355.079 705.4912,-335.2449 677.7211,-321.4556"/>
<polygon fill="#000000" stroke="#000000" points="678.9647,-318.1655 668.4515,-316.8528 675.8515,-324.4351 678.9647,-318.1655"/>
</g>
<!-- blas&#45;&gt;opencv -->
<g id="edge40" class="edge">
<title>blas&#45;&gt;opencv</title>
<path fill="none" stroke="#000000" d="M1000.8388,-289.3008C993.9963,-280.3433 985.4247,-269.1223 977.7941,-259.1331"/>
<polygon fill="#000000" stroke="#000000" points="980.5161,-256.9307 971.6643,-251.1086 974.9533,-261.18 980.5161,-256.9307"/>
</g>
<!-- binutils_ -->
<g id="node39" class="node">
<title>binutils_</title>
<ellipse fill="#35b779" stroke="#000000" cx="1605.5952" cy="-450" rx="54.6905" ry="18"/>
<text text-anchor="middle" x="1605.5952" y="-446.3" font-family="Times,serif" font-size="14.00" fill="#000000">binutils_</text>
</g>
</g>
</svg>
