<?xml version="1.0" encoding="UTF-8" standalone="no"?>
<!DOCTYPE svg PUBLIC "-//W3C//DTD SVG 1.1//EN"
 "http://www.w3.org/Graphics/SVG/1.1/DTD/svg11.dtd">
<!-- Generated by graphviz version 2.40.1 (20161225.0304)
 -->
<!-- Title: %3 Pages: 1 -->
<svg width="1965pt" height="332pt"
 viewBox="0.00 0.00 1965.19 332.00" xmlns="http://www.w3.org/2000/svg" xmlns:xlink="http://www.w3.org/1999/xlink">
<g id="graph0" class="graph" transform="scale(1 1) rotate(0) translate(4 328)">
<title>%3</title>
<polygon fill="#ffffff" stroke="transparent" points="-4,4 -4,-328 1961.1903,-328 1961.1903,4 -4,4"/>
<!-- arrow&#45;cpp -->
<g id="node1" class="node">
<title>arrow&#45;cpp</title>
<ellipse fill="#31688e" stroke="#000000" cx="54.5952" cy="-306" rx="54.6905" ry="18"/>
<text text-anchor="middle" x="54.5952" y="-302.3" font-family="Times,serif" font-size="14.00" fill="#ffffff">arrow cpp</text>
</g>
<!-- pyarrow -->
<g id="node17" class="node">
<title>pyarrow</title>
<ellipse fill="#fde725" stroke="#000000" cx="54.5952" cy="-234" rx="44.6926" ry="18"/>
<text text-anchor="middle" x="54.5952" y="-230.3" font-family="Times,serif" font-size="14.00" fill="#000000">pyarrow</text>
</g>
<!-- arrow&#45;cpp&#45;&gt;pyarrow -->
<g id="edge1" class="edge">
<title>arrow&#45;cpp&#45;&gt;pyarrow</title>
<path fill="none" stroke="#000000" d="M54.5952,-287.8314C54.5952,-280.131 54.5952,-270.9743 54.5952,-262.4166"/>
<polygon fill="#000000" stroke="#000000" points="58.0953,-262.4132 54.5952,-252.4133 51.0953,-262.4133 58.0953,-262.4132"/>
</g>
<!-- glew -->
<g id="node2" class="node">
<title>glew</title>
<ellipse fill="#fde725" stroke="#000000" cx="309.5952" cy="-162" rx="30.5947" ry="18"/>
<text text-anchor="middle" x="309.5952" y="-158.3" font-family="Times,serif" font-size="14.00" fill="#000000">glew</text>
</g>
<!-- root -->
<g id="node34" class="node">
<title>root</title>
<ellipse fill="#fde725" stroke="#000000" cx="444.5952" cy="-90" rx="30.5947" ry="18"/>
<text text-anchor="middle" x="444.5952" y="-86.3" font-family="Times,serif" font-size="14.00" fill="#000000">root</text>
</g>
<!-- glew&#45;&gt;root -->
<g id="edge2" class="edge">
<title>glew&#45;&gt;root</title>
<path fill="none" stroke="#000000" d="M332.4961,-149.7862C354.5087,-138.0461 387.9753,-120.1972 412.6136,-107.0568"/>
<polygon fill="#000000" stroke="#000000" points="414.4054,-110.0679 421.5819,-102.2737 411.1113,-103.8914 414.4054,-110.0679"/>
</g>
<!-- gmpy2 -->
<g id="node3" class="node">
<title>gmpy2</title>
<ellipse fill="#fde725" stroke="#000000" cx="838.5952" cy="-90" rx="35.194" ry="18"/>
<text text-anchor="middle" x="838.5952" y="-86.3" font-family="Times,serif" font-size="14.00" fill="#000000">gmpy2</text>
</g>
<!-- sympy -->
<g id="node21" class="node">
<title>sympy</title>
<ellipse fill="#fde725" stroke="#000000" cx="838.5952" cy="-18" rx="35.194" ry="18"/>
<text text-anchor="middle" x="838.5952" y="-14.3" font-family="Times,serif" font-size="14.00" fill="#000000">sympy</text>
</g>
<!-- gmpy2&#45;&gt;sympy -->
<g id="edge3" class="edge">
<title>gmpy2&#45;&gt;sympy</title>
<path fill="none" stroke="#000000" d="M838.5952,-71.8314C838.5952,-64.131 838.5952,-54.9743 838.5952,-46.4166"/>
<polygon fill="#000000" stroke="#000000" points="842.0953,-46.4132 838.5952,-36.4133 835.0953,-46.4133 842.0953,-46.4132"/>
</g>
<!-- gst&#45;plugins&#45;base -->
<g id="node4" class="node">
<title>gst&#45;plugins&#45;base</title>
<ellipse fill="#fde725" stroke="#000000" cx="518.5952" cy="-234" rx="89.0842" ry="18"/>
<text text-anchor="middle" x="518.5952" y="-230.3" font-family="Times,serif" font-size="14.00" fill="#000000">gst plugins base</text>
</g>
<!-- qt -->
<g id="node19" class="node">
<title>qt</title>
<ellipse fill="#fde725" stroke="#000000" cx="635.5952" cy="-162" rx="27" ry="18"/>
<text text-anchor="middle" x="635.5952" y="-158.3" font-family="Times,serif" font-size="14.00" fill="#000000">qt</text>
</g>
<!-- gst&#45;plugins&#45;base&#45;&gt;qt -->
<g id="edge4" class="edge">
<title>gst&#45;plugins&#45;base&#45;&gt;qt</title>
<path fill="none" stroke="#000000" d="M546.6196,-216.7542C564.8622,-205.528 588.5904,-190.926 606.9547,-179.6249"/>
<polygon fill="#000000" stroke="#000000" points="608.8093,-182.5933 615.4915,-174.3715 605.1405,-176.6317 608.8093,-182.5933"/>
</g>
<!-- gstreamer -->
<g id="node5" class="node">
<title>gstreamer</title>
<ellipse fill="#31688e" stroke="#000000" cx="544.5952" cy="-306" rx="54.6905" ry="18"/>
<text text-anchor="middle" x="544.5952" y="-302.3" font-family="Times,serif" font-size="14.00" fill="#ffffff">gstreamer</text>
</g>
<!-- gstreamer&#45;&gt;gst&#45;plugins&#45;base -->
<g id="edge5" class="edge">
<title>gstreamer&#45;&gt;gst&#45;plugins&#45;base</title>
<path fill="none" stroke="#000000" d="M538.0343,-287.8314C535.1924,-279.9617 531.8014,-270.5712 528.6533,-261.8533"/>
<polygon fill="#000000" stroke="#000000" points="531.9328,-260.63 525.2444,-252.4133 525.349,-263.0076 531.9328,-260.63"/>
</g>
<!-- gstreamer&#45;&gt;qt -->
<g id="edge6" class="edge">
<title>gstreamer&#45;&gt;qt</title>
<path fill="none" stroke="#000000" d="M573.9731,-290.7646C588.9596,-281.516 606.1777,-268.3361 616.5952,-252 628.3494,-233.5676 632.9657,-209.1129 634.7168,-190.3473"/>
<polygon fill="#000000" stroke="#000000" points="638.212,-190.5382 635.4357,-180.3136 631.2299,-190.0378 638.212,-190.5382"/>
</g>
<!-- ipyparallel -->
<g id="node6" class="node">
<title>ipyparallel</title>
<ellipse fill="#31688e" stroke="#000000" cx="196.5952" cy="-162" rx="64.189" ry="18"/>
<text text-anchor="middle" x="196.5952" y="-158.3" font-family="Times,serif" font-size="14.00" fill="#ffffff">ipyparallel</text>
</g>
<!-- ipyparallel&#45;&gt;root -->
<g id="edge7" class="edge">
<title>ipyparallel&#45;&gt;root</title>
<path fill="none" stroke="#000000" d="M241.5061,-148.9613C288.9018,-135.2013 362.7548,-113.7601 407.1276,-100.8777"/>
<polygon fill="#000000" stroke="#000000" points="408.3061,-104.1801 416.9337,-98.0307 406.3544,-97.4577 408.3061,-104.1801"/>
</g>
<!-- jupyter_client -->
<g id="node7" class="node">
<title>jupyter_client</title>
<ellipse fill="#31688e" stroke="#000000" cx="196.5952" cy="-234" rx="79.0865" ry="18"/>
<text text-anchor="middle" x="196.5952" y="-230.3" font-family="Times,serif" font-size="14.00" fill="#ffffff">jupyter_client</text>
</g>
<!-- jupyter_client&#45;&gt;ipyparallel -->
<g id="edge8" class="edge">
<title>jupyter_client&#45;&gt;ipyparallel</title>
<path fill="none" stroke="#000000" d="M196.5952,-215.8314C196.5952,-208.131 196.5952,-198.9743 196.5952,-190.4166"/>
<polygon fill="#000000" stroke="#000000" points="200.0953,-190.4132 196.5952,-180.4133 193.0953,-190.4133 200.0953,-190.4132"/>
</g>
<!-- libglu -->
<g id="node8" class="node">
<title>libglu</title>
<ellipse fill="#31688e" stroke="#000000" cx="371.5952" cy="-234" rx="40.0939" ry="18"/>
<text text-anchor="middle" x="371.5952" y="-230.3" font-family="Times,serif" font-size="14.00" fill="#ffffff">libglu</text>
</g>
<!-- libglu&#45;&gt;glew -->
<g id="edge10" class="edge">
<title>libglu&#45;&gt;glew</title>
<path fill="none" stroke="#000000" d="M356.902,-216.937C348.9905,-207.7494 339.0979,-196.2613 330.4073,-186.1689"/>
<polygon fill="#000000" stroke="#000000" points="332.9335,-183.7388 323.7561,-178.4449 327.6291,-188.3065 332.9335,-183.7388"/>
</g>
<!-- freeglut -->
<g id="node23" class="node">
<title>freeglut</title>
<ellipse fill="#fde725" stroke="#000000" cx="408.5952" cy="-162" rx="50.0912" ry="18"/>
<text text-anchor="middle" x="408.5952" y="-158.3" font-family="Times,serif" font-size="14.00" fill="#000000">freeglut</text>
</g>
<!-- libglu&#45;&gt;freeglut -->
<g id="edge9" class="edge">
<title>libglu&#45;&gt;freeglut</title>
<path fill="none" stroke="#000000" d="M380.7412,-216.2022C384.966,-207.981 390.0741,-198.041 394.7561,-188.9301"/>
<polygon fill="#000000" stroke="#000000" points="397.9683,-190.3366 399.4261,-179.8425 391.7423,-187.1371 397.9683,-190.3366"/>
</g>
<!-- libglu&#45;&gt;root -->
<g id="edge11" class="edge">
<title>libglu&#45;&gt;root</title>
<path fill="none" stroke="#000000" d="M401.1392,-221.39C426.4987,-209.8902 460.1134,-192.7927 467.5952,-180 479.157,-160.2309 470.8144,-134.7003 461.0923,-115.8834"/>
<polygon fill="#000000" stroke="#000000" points="464.0583,-114.0156 456.1358,-106.9811 457.9424,-117.4208 464.0583,-114.0156"/>
</g>
<!-- libsndfile -->
<g id="node9" class="node">
<title>libsndfile</title>
<ellipse fill="#fde725" stroke="#000000" cx="1176.5952" cy="-162" rx="59.5901" ry="18"/>
<text text-anchor="middle" x="1176.5952" y="-158.3" font-family="Times,serif" font-size="14.00" fill="#000000">libsndfile</text>
</g>
<!-- r&#45;base -->
<g id="node20" class="node">
<title>r&#45;base</title>
<ellipse fill="#fde725" stroke="#000000" cx="1029.5952" cy="-90" rx="40.0939" ry="18"/>
<text text-anchor="middle" x="1029.5952" y="-86.3" font-family="Times,serif" font-size="14.00" fill="#000000">r base</text>
</g>
<!-- libsndfile&#45;&gt;r&#45;base -->
<g id="edge12" class="edge">
<title>libsndfile&#45;&gt;r&#45;base</title>
<path fill="none" stroke="#000000" d="M1145.06,-146.5542C1121.9724,-135.246 1090.5771,-119.8687 1066.3515,-108.0031"/>
<polygon fill="#000000" stroke="#000000" points="1067.6396,-104.7368 1057.1194,-103.4813 1064.5605,-111.0232 1067.6396,-104.7368"/>
</g>
<!-- llvmlite -->
<g id="node10" class="node">
<title>llvmlite</title>
<ellipse fill="#31688e" stroke="#000000" cx="1391.5952" cy="-306" rx="50.0912" ry="18"/>
<text text-anchor="middle" x="1391.5952" y="-302.3" font-family="Times,serif" font-size="14.00" fill="#ffffff">llvmlite</text>
</g>
<!-- numba -->
<g id="node27" class="node">
<title>numba</title>
<ellipse fill="#fde725" stroke="#000000" cx="1391.5952" cy="-234" rx="35.194" ry="18"/>
<text text-anchor="middle" x="1391.5952" y="-230.3" font-family="Times,serif" font-size="14.00" fill="#000000">numba</text>
</g>
<!-- llvmlite&#45;&gt;numba -->
<g id="edge13" class="edge">
<title>llvmlite&#45;&gt;numba</title>
<path fill="none" stroke="#000000" d="M1391.5952,-287.8314C1391.5952,-280.131 1391.5952,-270.9743 1391.5952,-262.4166"/>
<polygon fill="#000000" stroke="#000000" points="1395.0953,-262.4132 1391.5952,-252.4133 1388.0953,-262.4133 1395.0953,-262.4132"/>
</g>
<!-- matplotlib -->
<g id="node11" class="node">
<title>matplotlib</title>
<ellipse fill="#fde725" stroke="#000000" cx="677.5952" cy="-18" rx="59.5901" ry="18"/>
<text text-anchor="middle" x="677.5952" y="-14.3" font-family="Times,serif" font-size="14.00" fill="#000000">matplotlib</text>
</g>
<!-- mpc -->
<g id="node12" class="node">
<title>mpc</title>
<ellipse fill="#fde725" stroke="#000000" cx="838.5952" cy="-162" rx="27" ry="18"/>
<text text-anchor="middle" x="838.5952" y="-158.3" font-family="Times,serif" font-size="14.00" fill="#000000">mpc</text>
</g>
<!-- mpc&#45;&gt;gmpy2 -->
<g id="edge14" class="edge">
<title>mpc&#45;&gt;gmpy2</title>
<path fill="none" stroke="#000000" d="M838.5952,-143.8314C838.5952,-136.131 838.5952,-126.9743 838.5952,-118.4166"/>
<polygon fill="#000000" stroke="#000000" points="842.0953,-118.4132 838.5952,-108.4133 835.0953,-118.4133 842.0953,-118.4132"/>
</g>
<!-- mpfr -->
<g id="node13" class="node">
<title>mpfr</title>
<ellipse fill="#fde725" stroke="#000000" cx="895.5952" cy="-234" rx="30.5947" ry="18"/>
<text text-anchor="middle" x="895.5952" y="-230.3" font-family="Times,serif" font-size="14.00" fill="#000000">mpfr</text>
</g>
<!-- mpfr&#45;&gt;gmpy2 -->
<g id="edge15" class="edge">
<title>mpfr&#45;&gt;gmpy2</title>
<path fill="none" stroke="#000000" d="M893.3062,-215.8102C890.519,-197.1908 884.8593,-167.7053 874.5952,-144 870.2973,-134.0739 864.1603,-123.9986 858.1679,-115.2819"/>
<polygon fill="#000000" stroke="#000000" points="860.9616,-113.1714 852.2973,-107.0739 855.268,-117.2437 860.9616,-113.1714"/>
</g>
<!-- mpfr&#45;&gt;mpc -->
<g id="edge16" class="edge">
<title>mpfr&#45;&gt;mpc</title>
<path fill="none" stroke="#000000" d="M882.661,-217.6621C875.3003,-208.3644 865.9414,-196.5426 857.7434,-186.1873"/>
<polygon fill="#000000" stroke="#000000" points="860.4294,-183.9413 851.4782,-178.2733 854.9411,-188.2862 860.4294,-183.9413"/>
</g>
<!-- mpfr&#45;&gt;r&#45;base -->
<g id="edge17" class="edge">
<title>mpfr&#45;&gt;r&#45;base</title>
<path fill="none" stroke="#000000" d="M903.614,-216.2711C912.9507,-196.9595 929.7827,-165.903 950.5952,-144 963.3889,-130.536 980.0747,-118.5331 994.8132,-109.283"/>
<polygon fill="#000000" stroke="#000000" points="996.9582,-112.0751 1003.6863,-103.8908 993.3228,-106.0931 996.9582,-112.0751"/>
</g>
<!-- texlive&#45;core -->
<g id="node22" class="node">
<title>texlive&#45;core</title>
<ellipse fill="#fde725" stroke="#000000" cx="1029.5952" cy="-162" rx="69.5877" ry="18"/>
<text text-anchor="middle" x="1029.5952" y="-158.3" font-family="Times,serif" font-size="14.00" fill="#000000">texlive core</text>
</g>
<!-- mpfr&#45;&gt;texlive&#45;core -->
<g id="edge18" class="edge">
<title>mpfr&#45;&gt;texlive&#45;core</title>
<path fill="none" stroke="#000000" d="M918.3264,-221.7862C937.9703,-211.2312 966.8039,-195.7386 990.1971,-183.1691"/>
<polygon fill="#000000" stroke="#000000" points="992.0388,-186.1528 999.1911,-178.3365 988.7255,-179.9866 992.0388,-186.1528"/>
</g>
<!-- mpir -->
<g id="node14" class="node">
<title>mpir</title>
<ellipse fill="#31688e" stroke="#000000" cx="836.5952" cy="-306" rx="30.5947" ry="18"/>
<text text-anchor="middle" x="836.5952" y="-302.3" font-family="Times,serif" font-size="14.00" fill="#ffffff">mpir</text>
</g>
<!-- mpir&#45;&gt;gmpy2 -->
<g id="edge19" class="edge">
<title>mpir&#45;&gt;gmpy2</title>
<path fill="none" stroke="#000000" d="M827.3589,-288.7269C812.6142,-258.838 786.939,-195.7088 802.5952,-144 805.7297,-133.6475 811.5758,-123.4656 817.659,-114.7822"/>
<polygon fill="#000000" stroke="#000000" points="820.5538,-116.7551 823.7297,-106.6475 814.9438,-112.5685 820.5538,-116.7551"/>
</g>
<!-- mpir&#45;&gt;mpc -->
<g id="edge20" class="edge">
<title>mpir&#45;&gt;mpc</title>
<path fill="none" stroke="#000000" d="M836.8485,-287.7623C837.1896,-263.201 837.8001,-219.2474 838.2013,-190.3541"/>
<polygon fill="#000000" stroke="#000000" points="841.7046,-190.1373 838.3439,-180.0896 834.7053,-190.04 841.7046,-190.1373"/>
</g>
<!-- mpir&#45;&gt;mpfr -->
<g id="edge21" class="edge">
<title>mpir&#45;&gt;mpfr</title>
<path fill="none" stroke="#000000" d="M849.9832,-289.6621C857.6021,-280.3644 867.2894,-268.5426 875.775,-258.1873"/>
<polygon fill="#000000" stroke="#000000" points="878.629,-260.2265 882.2601,-250.2733 873.2147,-255.7897 878.629,-260.2265"/>
</g>
<!-- multiprocess -->
<g id="node15" class="node">
<title>multiprocess</title>
<ellipse fill="#31688e" stroke="#000000" cx="1529.5952" cy="-306" rx="69.5877" ry="18"/>
<text text-anchor="middle" x="1529.5952" y="-302.3" font-family="Times,serif" font-size="14.00" fill="#ffffff">multiprocess</text>
</g>
<!-- cvxpy -->
<g id="node32" class="node">
<title>cvxpy</title>
<ellipse fill="#fde725" stroke="#000000" cx="1647.5952" cy="-234" rx="35.194" ry="18"/>
<text text-anchor="middle" x="1647.5952" y="-230.3" font-family="Times,serif" font-size="14.00" fill="#000000">cvxpy</text>
</g>
<!-- multiprocess&#45;&gt;cvxpy -->
<g id="edge22" class="edge">
<title>multiprocess&#45;&gt;cvxpy</title>
<path fill="none" stroke="#000000" d="M1556.9633,-289.3008C1574.6329,-278.5193 1597.6766,-264.4588 1616.1059,-253.2138"/>
<polygon fill="#000000" stroke="#000000" points="1618.0253,-256.1428 1624.7387,-247.9463 1614.3792,-250.1673 1618.0253,-256.1428"/>
</g>
<!-- opencv -->
<g id="node16" class="node">
<title>opencv</title>
<ellipse fill="#fde725" stroke="#000000" cx="588.5952" cy="-90" rx="40.0939" ry="18"/>
<text text-anchor="middle" x="588.5952" y="-86.3" font-family="Times,serif" font-size="14.00" fill="#000000">opencv</text>
</g>
<!-- pyqt -->
<g id="node18" class="node">
<title>pyqt</title>
<ellipse fill="#fde725" stroke="#000000" cx="677.5952" cy="-90" rx="30.5947" ry="18"/>
<text text-anchor="middle" x="677.5952" y="-86.3" font-family="Times,serif" font-size="14.00" fill="#000000">pyqt</text>
</g>
<!-- pyqt&#45;&gt;matplotlib -->
<g id="edge23" class="edge">
<title>pyqt&#45;&gt;matplotlib</title>
<path fill="none" stroke="#000000" d="M677.5952,-71.8314C677.5952,-64.131 677.5952,-54.9743 677.5952,-46.4166"/>
<polygon fill="#000000" stroke="#000000" points="681.0953,-46.4132 677.5952,-36.4133 674.0953,-46.4133 681.0953,-46.4132"/>
</g>
<!-- qt&#45;&gt;opencv -->
<g id="edge24" class="edge">
<title>qt&#45;&gt;opencv</title>
<path fill="none" stroke="#000000" d="M624.6943,-145.3008C619.047,-136.6496 612.0216,-125.8873 605.6733,-116.1623"/>
<polygon fill="#000000" stroke="#000000" points="608.4898,-114.0738 600.0926,-107.6132 602.6281,-117.9002 608.4898,-114.0738"/>
</g>
<!-- qt&#45;&gt;pyqt -->
<g id="edge25" class="edge">
<title>qt&#45;&gt;pyqt</title>
<path fill="none" stroke="#000000" d="M645.5486,-144.937C650.5487,-136.3654 656.7169,-125.7914 662.3022,-116.2165"/>
<polygon fill="#000000" stroke="#000000" points="665.4059,-117.842 667.4214,-107.4407 659.3594,-114.3149 665.4059,-117.842"/>
</g>
<!-- qt&#45;&gt;root -->
<g id="edge26" class="edge">
<title>qt&#45;&gt;root</title>
<path fill="none" stroke="#000000" d="M611.7911,-153.0267C578.7436,-140.569 518.7028,-117.9359 480.2818,-103.4526"/>
<polygon fill="#000000" stroke="#000000" points="481.1262,-100.0305 470.5344,-99.7781 478.657,-106.5806 481.1262,-100.0305"/>
</g>
<!-- texlive&#45;core&#45;&gt;r&#45;base -->
<g id="edge27" class="edge">
<title>texlive&#45;core&#45;&gt;r&#45;base</title>
<path fill="none" stroke="#000000" d="M1029.5952,-143.8314C1029.5952,-136.131 1029.5952,-126.9743 1029.5952,-118.4166"/>
<polygon fill="#000000" stroke="#000000" points="1033.0953,-118.4132 1029.5952,-108.4133 1026.0953,-118.4133 1033.0953,-118.4132"/>
</g>
<!-- libogg -->
<g id="node24" class="node">
<title>libogg</title>
<ellipse fill="#31688e" stroke="#000000" cx="1176.5952" cy="-306" rx="40.0939" ry="18"/>
<text text-anchor="middle" x="1176.5952" y="-302.3" font-family="Times,serif" font-size="14.00" fill="#ffffff">libogg</text>
</g>
<!-- libogg&#45;&gt;libsndfile -->
<g id="edge29" class="edge">
<title>libogg&#45;&gt;libsndfile</title>
<path fill="none" stroke="#000000" d="M1150.8048,-291.8735C1136.6869,-282.5863 1120.4977,-269.0074 1112.5952,-252 1105.853,-237.4899 1105.853,-230.5101 1112.5952,-216 1118.502,-203.2877 1129.0385,-192.4909 1139.8792,-183.97"/>
<polygon fill="#000000" stroke="#000000" points="1142.1598,-186.6379 1148.1568,-177.9037 1138.022,-180.9918 1142.1598,-186.6379"/>
</g>
<!-- libvorbis -->
<g id="node25" class="node">
<title>libvorbis</title>
<ellipse fill="#fde725" stroke="#000000" cx="1176.5952" cy="-234" rx="54.6905" ry="18"/>
<text text-anchor="middle" x="1176.5952" y="-230.3" font-family="Times,serif" font-size="14.00" fill="#000000">libvorbis</text>
</g>
<!-- libogg&#45;&gt;libvorbis -->
<g id="edge30" class="edge">
<title>libogg&#45;&gt;libvorbis</title>
<path fill="none" stroke="#000000" d="M1176.5952,-287.8314C1176.5952,-280.131 1176.5952,-270.9743 1176.5952,-262.4166"/>
<polygon fill="#000000" stroke="#000000" points="1180.0953,-262.4132 1176.5952,-252.4133 1173.0953,-262.4133 1180.0953,-262.4132"/>
</g>
<!-- libflac -->
<g id="node26" class="node">
<title>libflac</title>
<ellipse fill="#fde725" stroke="#000000" cx="1293.5952" cy="-234" rx="44.6926" ry="18"/>
<text text-anchor="middle" x="1293.5952" y="-230.3" font-family="Times,serif" font-size="14.00" fill="#000000">libflac</text>
</g>
<!-- libogg&#45;&gt;libflac -->
<g id="edge28" class="edge">
<title>libogg&#45;&gt;libflac</title>
<path fill="none" stroke="#000000" d="M1200.2719,-291.4297C1217.4497,-280.8587 1240.926,-266.4118 1260.0345,-254.6527"/>
<polygon fill="#000000" stroke="#000000" points="1262.06,-257.516 1268.7422,-249.2941 1258.3913,-251.5543 1262.06,-257.516"/>
</g>
<!-- libvorbis&#45;&gt;libsndfile -->
<g id="edge31" class="edge">
<title>libvorbis&#45;&gt;libsndfile</title>
<path fill="none" stroke="#000000" d="M1176.5952,-215.8314C1176.5952,-208.131 1176.5952,-198.9743 1176.5952,-190.4166"/>
<polygon fill="#000000" stroke="#000000" points="1180.0953,-190.4132 1176.5952,-180.4133 1173.0953,-190.4133 1180.0953,-190.4132"/>
</g>
<!-- libflac&#45;&gt;libsndfile -->
<g id="edge32" class="edge">
<title>libflac&#45;&gt;libsndfile</title>
<path fill="none" stroke="#000000" d="M1269.0681,-218.9064C1252.4836,-208.7006 1230.3244,-195.0642 1211.8555,-183.6987"/>
<polygon fill="#000000" stroke="#000000" points="1213.4769,-180.5869 1203.126,-178.3267 1209.8082,-186.5485 1213.4769,-180.5869"/>
</g>
<!-- nspr -->
<g id="node28" class="node">
<title>nspr</title>
<ellipse fill="#31688e" stroke="#000000" cx="700.5952" cy="-306" rx="30.5947" ry="18"/>
<text text-anchor="middle" x="700.5952" y="-302.3" font-family="Times,serif" font-size="14.00" fill="#ffffff">nspr</text>
</g>
<!-- nspr&#45;&gt;qt -->
<g id="edge34" class="edge">
<title>nspr&#45;&gt;qt</title>
<path fill="none" stroke="#000000" d="M692.6249,-288.3428C681.3557,-263.3773 660.6795,-217.5715 647.5619,-188.5109"/>
<polygon fill="#000000" stroke="#000000" points="650.7319,-187.0264 643.4276,-179.3519 644.3518,-189.9063 650.7319,-187.0264"/>
</g>
<!-- nss -->
<g id="node29" class="node">
<title>nss</title>
<ellipse fill="#fde725" stroke="#000000" cx="728.5952" cy="-234" rx="27" ry="18"/>
<text text-anchor="middle" x="728.5952" y="-230.3" font-family="Times,serif" font-size="14.00" fill="#000000">nss</text>
</g>
<!-- nspr&#45;&gt;nss -->
<g id="edge33" class="edge">
<title>nspr&#45;&gt;nss</title>
<path fill="none" stroke="#000000" d="M707.5165,-288.2022C710.7038,-280.0064 714.5553,-270.1024 718.0895,-261.0145"/>
<polygon fill="#000000" stroke="#000000" points="721.3909,-262.1817 721.7534,-251.593 714.8669,-259.6445 721.3909,-262.1817"/>
</g>
<!-- nss&#45;&gt;qt -->
<g id="edge35" class="edge">
<title>nss&#45;&gt;qt</title>
<path fill="none" stroke="#000000" d="M710.6638,-220.1177C696.7688,-209.3602 677.3171,-194.3009 661.6961,-182.2072"/>
<polygon fill="#000000" stroke="#000000" points="663.5213,-179.1939 653.4714,-175.8397 659.2361,-184.729 663.5213,-179.1939"/>
</g>
<!-- osqp -->
<g id="node30" class="node">
<title>osqp</title>
<ellipse fill="#31688e" stroke="#000000" cx="1647.5952" cy="-306" rx="30.5947" ry="18"/>
<text text-anchor="middle" x="1647.5952" y="-302.3" font-family="Times,serif" font-size="14.00" fill="#ffffff">osqp</text>
</g>
<!-- osqp&#45;&gt;cvxpy -->
<g id="edge36" class="edge">
<title>osqp&#45;&gt;cvxpy</title>
<path fill="none" stroke="#000000" d="M1647.5952,-287.8314C1647.5952,-280.131 1647.5952,-270.9743 1647.5952,-262.4166"/>
<polygon fill="#000000" stroke="#000000" points="1651.0953,-262.4132 1647.5952,-252.4133 1644.0953,-262.4133 1651.0953,-262.4132"/>
</g>
<!-- scs -->
<g id="node31" class="node">
<title>scs</title>
<ellipse fill="#31688e" stroke="#000000" cx="1723.5952" cy="-306" rx="27" ry="18"/>
<text text-anchor="middle" x="1723.5952" y="-302.3" font-family="Times,serif" font-size="14.00" fill="#ffffff">scs</text>
</g>
<!-- scs&#45;&gt;cvxpy -->
<g id="edge37" class="edge">
<title>scs&#45;&gt;cvxpy</title>
<path fill="none" stroke="#000000" d="M1707.8479,-291.0816C1697.4335,-281.2153 1683.5761,-268.0872 1671.7765,-256.9087"/>
<polygon fill="#000000" stroke="#000000" points="1674.0433,-254.2348 1664.3766,-249.8982 1669.229,-259.3165 1674.0433,-254.2348"/>
</g>
<!-- wget -->
<g id="node33" class="node">
<title>wget</title>
<ellipse fill="#31688e" stroke="#000000" cx="1799.5952" cy="-306" rx="30.5947" ry="18"/>
<text text-anchor="middle" x="1799.5952" y="-302.3" font-family="Times,serif" font-size="14.00" fill="#ffffff">wget</text>
</g>
<!-- binutils_ -->
<g id="node35" class="node">
<title>binutils_</title>
<ellipse fill="#35b779" stroke="#000000" cx="1902.5952" cy="-306" rx="54.6905" ry="18"/>
<text text-anchor="middle" x="1902.5952" y="-302.3" font-family="Times,serif" font-size="14.00" fill="#000000">binutils_</text>
</g>
</g>
</svg>
