<?xml version="1.0" encoding="UTF-8" standalone="no"?>
<!DOCTYPE svg PUBLIC "-//W3C//DTD SVG 1.1//EN"
 "http://www.w3.org/Graphics/SVG/1.1/DTD/svg11.dtd">
<!-- Generated by graphviz version 2.40.1 (20161225.0304)
 -->
<!-- Title: %3 Pages: 1 -->
<svg width="2685pt" height="332pt"
 viewBox="0.00 0.00 2685.19 332.00" xmlns="http://www.w3.org/2000/svg" xmlns:xlink="http://www.w3.org/1999/xlink">
<g id="graph0" class="graph" transform="scale(1 1) rotate(0) translate(4 328)">
<title>%3</title>
<polygon fill="#ffffff" stroke="transparent" points="-4,4 -4,-328 2681.1903,-328 2681.1903,4 -4,4"/>
<!-- arrow&#45;cpp -->
<g id="node1" class="node">
<title>arrow&#45;cpp</title>
<ellipse fill="#31688e" stroke="#000000" cx="54.5952" cy="-306" rx="54.6905" ry="18"/>
<text text-anchor="middle" x="54.5952" y="-302.3" font-family="Times,serif" font-size="14.00" fill="#ffffff">arrow cpp</text>
</g>
<!-- pyarrow -->
<g id="node17" class="node">
<title>pyarrow</title>
<ellipse fill="#fde725" stroke="#000000" cx="54.5952" cy="-234" rx="44.6926" ry="18"/>
<text text-anchor="middle" x="54.5952" y="-230.3" font-family="Times,serif" font-size="14.00" fill="#000000">pyarrow</text>
</g>
<!-- arrow&#45;cpp&#45;&gt;pyarrow -->
<g id="edge1" class="edge">
<title>arrow&#45;cpp&#45;&gt;pyarrow</title>
<path fill="none" stroke="#000000" d="M54.5952,-287.8314C54.5952,-280.131 54.5952,-270.9743 54.5952,-262.4166"/>
<polygon fill="#000000" stroke="#000000" points="58.0953,-262.4132 54.5952,-252.4133 51.0953,-262.4133 58.0953,-262.4132"/>
</g>
<!-- glew -->
<g id="node2" class="node">
<title>glew</title>
<ellipse fill="#fde725" stroke="#000000" cx="309.5952" cy="-162" rx="30.5947" ry="18"/>
<text text-anchor="middle" x="309.5952" y="-158.3" font-family="Times,serif" font-size="14.00" fill="#000000">glew</text>
</g>
<!-- root -->
<g id="node40" class="node">
<title>root</title>
<ellipse fill="#fde725" stroke="#000000" cx="398.5952" cy="-90" rx="30.5947" ry="18"/>
<text text-anchor="middle" x="398.5952" y="-86.3" font-family="Times,serif" font-size="14.00" fill="#000000">root</text>
</g>
<!-- glew&#45;&gt;root -->
<g id="edge2" class="edge">
<title>glew&#45;&gt;root</title>
<path fill="none" stroke="#000000" d="M327.6056,-147.4297C340.4285,-137.0562 357.8652,-122.9501 372.2483,-111.3143"/>
<polygon fill="#000000" stroke="#000000" points="374.7328,-113.8063 380.306,-104.7957 370.3302,-108.3642 374.7328,-113.8063"/>
</g>
<!-- gmpy2 -->
<g id="node3" class="node">
<title>gmpy2</title>
<ellipse fill="#fde725" stroke="#000000" cx="1492.5952" cy="-90" rx="35.194" ry="18"/>
<text text-anchor="middle" x="1492.5952" y="-86.3" font-family="Times,serif" font-size="14.00" fill="#000000">gmpy2</text>
</g>
<!-- sympy -->
<g id="node21" class="node">
<title>sympy</title>
<ellipse fill="#fde725" stroke="#000000" cx="1492.5952" cy="-18" rx="35.194" ry="18"/>
<text text-anchor="middle" x="1492.5952" y="-14.3" font-family="Times,serif" font-size="14.00" fill="#000000">sympy</text>
</g>
<!-- gmpy2&#45;&gt;sympy -->
<g id="edge3" class="edge">
<title>gmpy2&#45;&gt;sympy</title>
<path fill="none" stroke="#000000" d="M1492.5952,-71.8314C1492.5952,-64.131 1492.5952,-54.9743 1492.5952,-46.4166"/>
<polygon fill="#000000" stroke="#000000" points="1496.0953,-46.4132 1492.5952,-36.4133 1489.0953,-46.4133 1496.0953,-46.4132"/>
</g>
<!-- gst&#45;plugins&#45;base -->
<g id="node4" class="node">
<title>gst&#45;plugins&#45;base</title>
<ellipse fill="#fde725" stroke="#000000" cx="518.5952" cy="-234" rx="89.0842" ry="18"/>
<text text-anchor="middle" x="518.5952" y="-230.3" font-family="Times,serif" font-size="14.00" fill="#000000">gst plugins base</text>
</g>
<!-- qt -->
<g id="node19" class="node">
<title>qt</title>
<ellipse fill="#fde725" stroke="#000000" cx="654.5952" cy="-162" rx="27" ry="18"/>
<text text-anchor="middle" x="654.5952" y="-158.3" font-family="Times,serif" font-size="14.00" fill="#000000">qt</text>
</g>
<!-- gst&#45;plugins&#45;base&#45;&gt;qt -->
<g id="edge4" class="edge">
<title>gst&#45;plugins&#45;base&#45;&gt;qt</title>
<path fill="none" stroke="#000000" d="M550.4811,-217.1192C572.7389,-205.3357 602.2689,-189.7022 624.1935,-178.095"/>
<polygon fill="#000000" stroke="#000000" points="625.8805,-181.1622 633.0807,-173.39 622.6052,-174.9757 625.8805,-181.1622"/>
</g>
<!-- gstreamer -->
<g id="node5" class="node">
<title>gstreamer</title>
<ellipse fill="#31688e" stroke="#000000" cx="544.5952" cy="-306" rx="54.6905" ry="18"/>
<text text-anchor="middle" x="544.5952" y="-302.3" font-family="Times,serif" font-size="14.00" fill="#ffffff">gstreamer</text>
</g>
<!-- gstreamer&#45;&gt;gst&#45;plugins&#45;base -->
<g id="edge5" class="edge">
<title>gstreamer&#45;&gt;gst&#45;plugins&#45;base</title>
<path fill="none" stroke="#000000" d="M538.0343,-287.8314C535.1924,-279.9617 531.8014,-270.5712 528.6533,-261.8533"/>
<polygon fill="#000000" stroke="#000000" points="531.9328,-260.63 525.2444,-252.4133 525.349,-263.0076 531.9328,-260.63"/>
</g>
<!-- gstreamer&#45;&gt;qt -->
<g id="edge6" class="edge">
<title>gstreamer&#45;&gt;qt</title>
<path fill="none" stroke="#000000" d="M572.0597,-290.3675C586.8402,-280.8356 604.4715,-267.5118 616.5952,-252 631.0476,-233.5085 640.9787,-208.7121 647.0536,-189.8293"/>
<polygon fill="#000000" stroke="#000000" points="650.4742,-190.6107 650.036,-180.0249 643.7772,-188.5734 650.4742,-190.6107"/>
</g>
<!-- ipyparallel -->
<g id="node6" class="node">
<title>ipyparallel</title>
<ellipse fill="#31688e" stroke="#000000" cx="196.5952" cy="-162" rx="64.189" ry="18"/>
<text text-anchor="middle" x="196.5952" y="-158.3" font-family="Times,serif" font-size="14.00" fill="#ffffff">ipyparallel</text>
</g>
<!-- ipyparallel&#45;&gt;root -->
<g id="edge7" class="edge">
<title>ipyparallel&#45;&gt;root</title>
<path fill="none" stroke="#000000" d="M236.5039,-147.7751C273.288,-134.6639 327.3892,-115.3803 362.8046,-102.757"/>
<polygon fill="#000000" stroke="#000000" points="364.0238,-106.0382 372.2682,-99.3839 361.6735,-99.4446 364.0238,-106.0382"/>
</g>
<!-- jupyter_client -->
<g id="node7" class="node">
<title>jupyter_client</title>
<ellipse fill="#31688e" stroke="#000000" cx="196.5952" cy="-234" rx="79.0865" ry="18"/>
<text text-anchor="middle" x="196.5952" y="-230.3" font-family="Times,serif" font-size="14.00" fill="#ffffff">jupyter_client</text>
</g>
<!-- jupyter_client&#45;&gt;ipyparallel -->
<g id="edge8" class="edge">
<title>jupyter_client&#45;&gt;ipyparallel</title>
<path fill="none" stroke="#000000" d="M196.5952,-215.8314C196.5952,-208.131 196.5952,-198.9743 196.5952,-190.4166"/>
<polygon fill="#000000" stroke="#000000" points="200.0953,-190.4132 196.5952,-180.4133 193.0953,-190.4133 200.0953,-190.4132"/>
</g>
<!-- libglu -->
<g id="node8" class="node">
<title>libglu</title>
<ellipse fill="#31688e" stroke="#000000" cx="371.5952" cy="-234" rx="40.0939" ry="18"/>
<text text-anchor="middle" x="371.5952" y="-230.3" font-family="Times,serif" font-size="14.00" fill="#ffffff">libglu</text>
</g>
<!-- libglu&#45;&gt;glew -->
<g id="edge10" class="edge">
<title>libglu&#45;&gt;glew</title>
<path fill="none" stroke="#000000" d="M356.902,-216.937C348.9905,-207.7494 339.0979,-196.2613 330.4073,-186.1689"/>
<polygon fill="#000000" stroke="#000000" points="332.9335,-183.7388 323.7561,-178.4449 327.6291,-188.3065 332.9335,-183.7388"/>
</g>
<!-- freeglut -->
<g id="node23" class="node">
<title>freeglut</title>
<ellipse fill="#fde725" stroke="#000000" cx="408.5952" cy="-162" rx="50.0912" ry="18"/>
<text text-anchor="middle" x="408.5952" y="-158.3" font-family="Times,serif" font-size="14.00" fill="#000000">freeglut</text>
</g>
<!-- libglu&#45;&gt;freeglut -->
<g id="edge9" class="edge">
<title>libglu&#45;&gt;freeglut</title>
<path fill="none" stroke="#000000" d="M380.7412,-216.2022C384.966,-207.981 390.0741,-198.041 394.7561,-188.9301"/>
<polygon fill="#000000" stroke="#000000" points="397.9683,-190.3366 399.4261,-179.8425 391.7423,-187.1371 397.9683,-190.3366"/>
</g>
<!-- libglu&#45;&gt;root -->
<g id="edge11" class="edge">
<title>libglu&#45;&gt;root</title>
<path fill="none" stroke="#000000" d="M401.1392,-221.39C426.4987,-209.8902 460.1134,-192.7927 467.5952,-180 475.6727,-166.1886 474.6032,-158.3836 467.5952,-144 459.9435,-128.2954 445.2708,-115.8137 431.4164,-106.8239"/>
<polygon fill="#000000" stroke="#000000" points="432.8773,-103.6165 422.5122,-101.4218 429.2463,-109.6012 432.8773,-103.6165"/>
</g>
<!-- libsndfile -->
<g id="node9" class="node">
<title>libsndfile</title>
<ellipse fill="#fde725" stroke="#000000" cx="938.5952" cy="-162" rx="59.5901" ry="18"/>
<text text-anchor="middle" x="938.5952" y="-158.3" font-family="Times,serif" font-size="14.00" fill="#000000">libsndfile</text>
</g>
<!-- r&#45;base -->
<g id="node20" class="node">
<title>r&#45;base</title>
<ellipse fill="#fde725" stroke="#000000" cx="1134.5952" cy="-90" rx="40.0939" ry="18"/>
<text text-anchor="middle" x="1134.5952" y="-86.3" font-family="Times,serif" font-size="14.00" fill="#000000">r base</text>
</g>
<!-- libsndfile&#45;&gt;r&#45;base -->
<g id="edge12" class="edge">
<title>libsndfile&#45;&gt;r&#45;base</title>
<path fill="none" stroke="#000000" d="M976.8512,-147.9468C1010.4134,-135.6178 1059.0931,-117.7355 1093.4801,-105.1035"/>
<polygon fill="#000000" stroke="#000000" points="1095.0375,-108.2601 1103.2173,-101.5266 1092.6237,-101.6894 1095.0375,-108.2601"/>
</g>
<!-- llvmlite -->
<g id="node10" class="node">
<title>llvmlite</title>
<ellipse fill="#31688e" stroke="#000000" cx="1610.5952" cy="-306" rx="50.0912" ry="18"/>
<text text-anchor="middle" x="1610.5952" y="-302.3" font-family="Times,serif" font-size="14.00" fill="#ffffff">llvmlite</text>
</g>
<!-- numba -->
<g id="node27" class="node">
<title>numba</title>
<ellipse fill="#fde725" stroke="#000000" cx="1610.5952" cy="-234" rx="35.194" ry="18"/>
<text text-anchor="middle" x="1610.5952" y="-230.3" font-family="Times,serif" font-size="14.00" fill="#000000">numba</text>
</g>
<!-- llvmlite&#45;&gt;numba -->
<g id="edge13" class="edge">
<title>llvmlite&#45;&gt;numba</title>
<path fill="none" stroke="#000000" d="M1610.5952,-287.8314C1610.5952,-280.131 1610.5952,-270.9743 1610.5952,-262.4166"/>
<polygon fill="#000000" stroke="#000000" points="1614.0953,-262.4132 1610.5952,-252.4133 1607.0953,-262.4133 1614.0953,-262.4132"/>
</g>
<!-- matplotlib -->
<g id="node11" class="node">
<title>matplotlib</title>
<ellipse fill="#fde725" stroke="#000000" cx="713.5952" cy="-18" rx="59.5901" ry="18"/>
<text text-anchor="middle" x="713.5952" y="-14.3" font-family="Times,serif" font-size="14.00" fill="#000000">matplotlib</text>
</g>
<!-- mpc -->
<g id="node12" class="node">
<title>mpc</title>
<ellipse fill="#fde725" stroke="#000000" cx="1492.5952" cy="-162" rx="27" ry="18"/>
<text text-anchor="middle" x="1492.5952" y="-158.3" font-family="Times,serif" font-size="14.00" fill="#000000">mpc</text>
</g>
<!-- mpc&#45;&gt;gmpy2 -->
<g id="edge14" class="edge">
<title>mpc&#45;&gt;gmpy2</title>
<path fill="none" stroke="#000000" d="M1492.5952,-143.8314C1492.5952,-136.131 1492.5952,-126.9743 1492.5952,-118.4166"/>
<polygon fill="#000000" stroke="#000000" points="1496.0953,-118.4132 1492.5952,-108.4133 1489.0953,-118.4133 1496.0953,-118.4132"/>
</g>
<!-- mpfr -->
<g id="node13" class="node">
<title>mpfr</title>
<ellipse fill="#fde725" stroke="#000000" cx="1435.5952" cy="-234" rx="30.5947" ry="18"/>
<text text-anchor="middle" x="1435.5952" y="-230.3" font-family="Times,serif" font-size="14.00" fill="#000000">mpfr</text>
</g>
<!-- mpfr&#45;&gt;gmpy2 -->
<g id="edge15" class="edge">
<title>mpfr&#45;&gt;gmpy2</title>
<path fill="none" stroke="#000000" d="M1437.8841,-215.8102C1440.6713,-197.1908 1446.3311,-167.7053 1456.5952,-144 1460.8931,-134.0739 1467.03,-123.9986 1473.0224,-115.2819"/>
<polygon fill="#000000" stroke="#000000" points="1475.9223,-117.2437 1478.8931,-107.0739 1470.2287,-113.1714 1475.9223,-117.2437"/>
</g>
<!-- mpfr&#45;&gt;mpc -->
<g id="edge16" class="edge">
<title>mpfr&#45;&gt;mpc</title>
<path fill="none" stroke="#000000" d="M1448.5293,-217.6621C1455.89,-208.3644 1465.249,-196.5426 1473.4469,-186.1873"/>
<polygon fill="#000000" stroke="#000000" points="1476.2493,-188.2862 1479.7122,-178.2733 1470.7609,-183.9413 1476.2493,-188.2862"/>
</g>
<!-- mpfr&#45;&gt;r&#45;base -->
<g id="edge17" class="edge">
<title>mpfr&#45;&gt;r&#45;base</title>
<path fill="none" stroke="#000000" d="M1405.1447,-232.3275C1339.7618,-228.1001 1188.9958,-214.7393 1153.5952,-180 1137.4603,-164.1665 1133.3598,-138.3246 1132.9181,-118.3841"/>
<polygon fill="#000000" stroke="#000000" points="1136.4185,-118.3204 1132.9858,-108.2971 1129.4186,-118.2733 1136.4185,-118.3204"/>
</g>
<!-- texlive&#45;core -->
<g id="node22" class="node">
<title>texlive&#45;core</title>
<ellipse fill="#fde725" stroke="#000000" cx="1232.5952" cy="-162" rx="69.5877" ry="18"/>
<text text-anchor="middle" x="1232.5952" y="-158.3" font-family="Times,serif" font-size="14.00" fill="#000000">texlive core</text>
</g>
<!-- mpfr&#45;&gt;texlive&#45;core -->
<g id="edge18" class="edge">
<title>mpfr&#45;&gt;texlive&#45;core</title>
<path fill="none" stroke="#000000" d="M1409.0565,-224.5873C1377.2851,-213.3186 1323.3738,-194.1973 1283.4814,-180.0483"/>
<polygon fill="#000000" stroke="#000000" points="1284.5147,-176.7012 1273.9199,-176.6571 1282.1747,-183.2986 1284.5147,-176.7012"/>
</g>
<!-- mpir -->
<g id="node14" class="node">
<title>mpir</title>
<ellipse fill="#31688e" stroke="#000000" cx="1494.5952" cy="-306" rx="30.5947" ry="18"/>
<text text-anchor="middle" x="1494.5952" y="-302.3" font-family="Times,serif" font-size="14.00" fill="#ffffff">mpir</text>
</g>
<!-- mpir&#45;&gt;gmpy2 -->
<g id="edge19" class="edge">
<title>mpir&#45;&gt;gmpy2</title>
<path fill="none" stroke="#000000" d="M1503.8314,-288.7269C1518.5761,-258.838 1544.2513,-195.7088 1528.5952,-144 1525.4607,-133.6475 1519.6145,-123.4656 1513.5313,-114.7822"/>
<polygon fill="#000000" stroke="#000000" points="1516.2465,-112.5685 1507.4607,-106.6475 1510.6365,-116.7551 1516.2465,-112.5685"/>
</g>
<!-- mpir&#45;&gt;mpc -->
<g id="edge20" class="edge">
<title>mpir&#45;&gt;mpc</title>
<path fill="none" stroke="#000000" d="M1494.3419,-287.7623C1494.0007,-263.201 1493.3903,-219.2474 1492.989,-190.3541"/>
<polygon fill="#000000" stroke="#000000" points="1496.485,-190.04 1492.8464,-180.0896 1489.4857,-190.1373 1496.485,-190.04"/>
</g>
<!-- mpir&#45;&gt;mpfr -->
<g id="edge21" class="edge">
<title>mpir&#45;&gt;mpfr</title>
<path fill="none" stroke="#000000" d="M1481.2071,-289.6621C1473.5882,-280.3644 1463.9009,-268.5426 1455.4153,-258.1873"/>
<polygon fill="#000000" stroke="#000000" points="1457.9756,-255.7897 1448.9302,-250.2733 1452.5613,-260.2265 1457.9756,-255.7897"/>
</g>
<!-- multiprocess -->
<g id="node15" class="node">
<title>multiprocess</title>
<ellipse fill="#35b779" stroke="#000000" cx="1748.5952" cy="-306" rx="69.5877" ry="18"/>
<text text-anchor="middle" x="1748.5952" y="-302.3" font-family="Times,serif" font-size="14.00" fill="#000000">multiprocess</text>
</g>
<!-- cvxpy -->
<g id="node33" class="node">
<title>cvxpy</title>
<ellipse fill="#fde725" stroke="#000000" cx="1906.5952" cy="-234" rx="35.194" ry="18"/>
<text text-anchor="middle" x="1906.5952" y="-230.3" font-family="Times,serif" font-size="14.00" fill="#000000">cvxpy</text>
</g>
<!-- multiprocess&#45;&gt;cvxpy -->
<g id="edge22" class="edge">
<title>multiprocess&#45;&gt;cvxpy</title>
<path fill="none" stroke="#000000" d="M1783.2689,-290.1993C1809.32,-278.3279 1844.8793,-262.1237 1871.1222,-250.1649"/>
<polygon fill="#000000" stroke="#000000" points="1872.6859,-253.2987 1880.3342,-245.967 1869.7832,-246.9289 1872.6859,-253.2987"/>
</g>
<!-- opencv -->
<g id="node16" class="node">
<title>opencv</title>
<ellipse fill="#fde725" stroke="#000000" cx="624.5952" cy="-90" rx="40.0939" ry="18"/>
<text text-anchor="middle" x="624.5952" y="-86.3" font-family="Times,serif" font-size="14.00" fill="#000000">opencv</text>
</g>
<!-- pyqt -->
<g id="node18" class="node">
<title>pyqt</title>
<ellipse fill="#fde725" stroke="#000000" cx="713.5952" cy="-90" rx="30.5947" ry="18"/>
<text text-anchor="middle" x="713.5952" y="-86.3" font-family="Times,serif" font-size="14.00" fill="#000000">pyqt</text>
</g>
<!-- pyqt&#45;&gt;matplotlib -->
<g id="edge23" class="edge">
<title>pyqt&#45;&gt;matplotlib</title>
<path fill="none" stroke="#000000" d="M713.5952,-71.8314C713.5952,-64.131 713.5952,-54.9743 713.5952,-46.4166"/>
<polygon fill="#000000" stroke="#000000" points="717.0953,-46.4132 713.5952,-36.4133 710.0953,-46.4133 717.0953,-46.4132"/>
</g>
<!-- qt&#45;&gt;opencv -->
<g id="edge24" class="edge">
<title>qt&#45;&gt;opencv</title>
<path fill="none" stroke="#000000" d="M647.333,-144.5708C643.9201,-136.3798 639.7712,-126.4225 635.9565,-117.2671"/>
<polygon fill="#000000" stroke="#000000" points="639.0758,-115.6535 631.9989,-107.7689 632.6143,-118.3458 639.0758,-115.6535"/>
</g>
<!-- qt&#45;&gt;pyqt -->
<g id="edge25" class="edge">
<title>qt&#45;&gt;pyqt</title>
<path fill="none" stroke="#000000" d="M667.6892,-146.0209C675.2969,-136.7368 685.0392,-124.848 693.59,-114.413"/>
<polygon fill="#000000" stroke="#000000" points="696.4976,-116.3868 700.1287,-106.4336 691.0833,-111.9501 696.4976,-116.3868"/>
</g>
<!-- qt&#45;&gt;root -->
<g id="edge26" class="edge">
<title>qt&#45;&gt;root</title>
<path fill="none" stroke="#000000" d="M629.5827,-154.9652C584.432,-142.2666 489.0938,-115.4527 436.1049,-100.5496"/>
<polygon fill="#000000" stroke="#000000" points="436.9863,-97.1618 426.4121,-97.8235 435.091,-103.9003 436.9863,-97.1618"/>
</g>
<!-- texlive&#45;core&#45;&gt;r&#45;base -->
<g id="edge27" class="edge">
<title>texlive&#45;core&#45;&gt;r&#45;base</title>
<path fill="none" stroke="#000000" d="M1209.3705,-144.937C1195.7437,-134.9255 1178.399,-122.1824 1163.8457,-111.4902"/>
<polygon fill="#000000" stroke="#000000" points="1165.7798,-108.5681 1155.6487,-105.4679 1161.6353,-114.2093 1165.7798,-108.5681"/>
</g>
<!-- libogg -->
<g id="node24" class="node">
<title>libogg</title>
<ellipse fill="#31688e" stroke="#000000" cx="938.5952" cy="-306" rx="40.0939" ry="18"/>
<text text-anchor="middle" x="938.5952" y="-302.3" font-family="Times,serif" font-size="14.00" fill="#ffffff">libogg</text>
</g>
<!-- libogg&#45;&gt;libsndfile -->
<g id="edge29" class="edge">
<title>libogg&#45;&gt;libsndfile</title>
<path fill="none" stroke="#000000" d="M912.8048,-291.8735C898.6869,-282.5863 882.4977,-269.0074 874.5952,-252 867.853,-237.4899 867.853,-230.5101 874.5952,-216 880.502,-203.2877 891.0385,-192.4909 901.8792,-183.97"/>
<polygon fill="#000000" stroke="#000000" points="904.1598,-186.6379 910.1568,-177.9037 900.022,-180.9918 904.1598,-186.6379"/>
</g>
<!-- libvorbis -->
<g id="node25" class="node">
<title>libvorbis</title>
<ellipse fill="#fde725" stroke="#000000" cx="938.5952" cy="-234" rx="54.6905" ry="18"/>
<text text-anchor="middle" x="938.5952" y="-230.3" font-family="Times,serif" font-size="14.00" fill="#000000">libvorbis</text>
</g>
<!-- libogg&#45;&gt;libvorbis -->
<g id="edge30" class="edge">
<title>libogg&#45;&gt;libvorbis</title>
<path fill="none" stroke="#000000" d="M938.5952,-287.8314C938.5952,-280.131 938.5952,-270.9743 938.5952,-262.4166"/>
<polygon fill="#000000" stroke="#000000" points="942.0953,-262.4132 938.5952,-252.4133 935.0953,-262.4133 942.0953,-262.4132"/>
</g>
<!-- libflac -->
<g id="node26" class="node">
<title>libflac</title>
<ellipse fill="#fde725" stroke="#000000" cx="1055.5952" cy="-234" rx="44.6926" ry="18"/>
<text text-anchor="middle" x="1055.5952" y="-230.3" font-family="Times,serif" font-size="14.00" fill="#000000">libflac</text>
</g>
<!-- libogg&#45;&gt;libflac -->
<g id="edge28" class="edge">
<title>libogg&#45;&gt;libflac</title>
<path fill="none" stroke="#000000" d="M962.2719,-291.4297C979.4497,-280.8587 1002.926,-266.4118 1022.0345,-254.6527"/>
<polygon fill="#000000" stroke="#000000" points="1024.06,-257.516 1030.7422,-249.2941 1020.3913,-251.5543 1024.06,-257.516"/>
</g>
<!-- libvorbis&#45;&gt;libsndfile -->
<g id="edge31" class="edge">
<title>libvorbis&#45;&gt;libsndfile</title>
<path fill="none" stroke="#000000" d="M938.5952,-215.8314C938.5952,-208.131 938.5952,-198.9743 938.5952,-190.4166"/>
<polygon fill="#000000" stroke="#000000" points="942.0953,-190.4132 938.5952,-180.4133 935.0953,-190.4133 942.0953,-190.4132"/>
</g>
<!-- libflac&#45;&gt;libsndfile -->
<g id="edge32" class="edge">
<title>libflac&#45;&gt;libsndfile</title>
<path fill="none" stroke="#000000" d="M1031.0681,-218.9064C1014.4836,-208.7006 992.3244,-195.0642 973.8555,-183.6987"/>
<polygon fill="#000000" stroke="#000000" points="975.4769,-180.5869 965.126,-178.3267 971.8082,-186.5485 975.4769,-180.5869"/>
</g>
<!-- nspr -->
<g id="node28" class="node">
<title>nspr</title>
<ellipse fill="#31688e" stroke="#000000" cx="700.5952" cy="-306" rx="30.5947" ry="18"/>
<text text-anchor="middle" x="700.5952" y="-302.3" font-family="Times,serif" font-size="14.00" fill="#ffffff">nspr</text>
</g>
<!-- nspr&#45;&gt;qt -->
<g id="edge34" class="edge">
<title>nspr&#45;&gt;qt</title>
<path fill="none" stroke="#000000" d="M694.8622,-288.0535C686.9686,-263.3431 672.6806,-218.6152 663.4193,-189.6234"/>
<polygon fill="#000000" stroke="#000000" points="666.6329,-188.1811 660.2558,-179.7204 659.9648,-190.3112 666.6329,-188.1811"/>
</g>
<!-- nss -->
<g id="node29" class="node">
<title>nss</title>
<ellipse fill="#fde725" stroke="#000000" cx="728.5952" cy="-234" rx="27" ry="18"/>
<text text-anchor="middle" x="728.5952" y="-230.3" font-family="Times,serif" font-size="14.00" fill="#000000">nss</text>
</g>
<!-- nspr&#45;&gt;nss -->
<g id="edge33" class="edge">
<title>nspr&#45;&gt;nss</title>
<path fill="none" stroke="#000000" d="M707.5165,-288.2022C710.7038,-280.0064 714.5553,-270.1024 718.0895,-261.0145"/>
<polygon fill="#000000" stroke="#000000" points="721.3909,-262.1817 721.7534,-251.593 714.8669,-259.6445 721.3909,-262.1817"/>
</g>
<!-- nss&#45;&gt;qt -->
<g id="edge35" class="edge">
<title>nss&#45;&gt;qt</title>
<path fill="none" stroke="#000000" d="M713.2623,-219.0816C702.8442,-208.945 688.8874,-195.3654 677.2005,-183.9944"/>
<polygon fill="#000000" stroke="#000000" points="679.5164,-181.3644 669.9084,-176.8993 674.6349,-186.3815 679.5164,-181.3644"/>
</g>
<!-- osqp -->
<g id="node30" class="node">
<title>osqp</title>
<ellipse fill="#31688e" stroke="#000000" cx="1866.5952" cy="-306" rx="30.5947" ry="18"/>
<text text-anchor="middle" x="1866.5952" y="-302.3" font-family="Times,serif" font-size="14.00" fill="#ffffff">osqp</text>
</g>
<!-- osqp&#45;&gt;cvxpy -->
<g id="edge36" class="edge">
<title>osqp&#45;&gt;cvxpy</title>
<path fill="none" stroke="#000000" d="M1876.278,-288.5708C1880.9601,-280.1431 1886.681,-269.8455 1891.8866,-260.4755"/>
<polygon fill="#000000" stroke="#000000" points="1895.0659,-261.9596 1896.8628,-251.5182 1888.9468,-258.5601 1895.0659,-261.9596"/>
</g>
<!-- ecos -->
<g id="node31" class="node">
<title>ecos</title>
<ellipse fill="#31688e" stroke="#000000" cx="1945.5952" cy="-306" rx="30.5947" ry="18"/>
<text text-anchor="middle" x="1945.5952" y="-302.3" font-family="Times,serif" font-size="14.00" fill="#ffffff">ecos</text>
</g>
<!-- ecos&#45;&gt;cvxpy -->
<g id="edge37" class="edge">
<title>ecos&#45;&gt;cvxpy</title>
<path fill="none" stroke="#000000" d="M1936.1543,-288.5708C1931.5893,-280.1431 1926.0115,-269.8455 1920.936,-260.4755"/>
<polygon fill="#000000" stroke="#000000" points="1923.9246,-258.6442 1916.0842,-251.5182 1917.7696,-261.9782 1923.9246,-258.6442"/>
</g>
<!-- scs -->
<g id="node32" class="node">
<title>scs</title>
<ellipse fill="#31688e" stroke="#000000" cx="2021.5952" cy="-306" rx="27" ry="18"/>
<text text-anchor="middle" x="2021.5952" y="-302.3" font-family="Times,serif" font-size="14.00" fill="#ffffff">scs</text>
</g>
<!-- scs&#45;&gt;cvxpy -->
<g id="edge38" class="edge">
<title>scs&#45;&gt;cvxpy</title>
<path fill="none" stroke="#000000" d="M2001.826,-293.6228C1984.1486,-282.5552 1957.9531,-266.1545 1937.5081,-253.3542"/>
<polygon fill="#000000" stroke="#000000" points="1939.1888,-250.2771 1928.8556,-247.937 1935.4742,-256.2102 1939.1888,-250.2771"/>
</g>
<!-- bcrypt -->
<g id="node34" class="node">
<title>bcrypt</title>
<ellipse fill="#31688e" stroke="#000000" cx="2106.5952" cy="-306" rx="40.0939" ry="18"/>
<text text-anchor="middle" x="2106.5952" y="-302.3" font-family="Times,serif" font-size="14.00" fill="#ffffff">bcrypt</text>
</g>
<!-- 7za -->
<g id="node35" class="node">
<title>7za</title>
<ellipse fill="#31688e" stroke="#000000" cx="800.5952" cy="-234" rx="27" ry="18"/>
<text text-anchor="middle" x="800.5952" y="-230.3" font-family="Times,serif" font-size="14.00" fill="#ffffff">7za</text>
</g>
<!-- 7za&#45;&gt;qt -->
<g id="edge39" class="edge">
<title>7za&#45;&gt;qt</title>
<path fill="none" stroke="#000000" d="M778.9059,-223.1234C774.1913,-220.7681 769.2286,-218.2956 764.5952,-216 738.0263,-202.8365 707.7825,-188.0003 685.7405,-177.2145"/>
<polygon fill="#000000" stroke="#000000" points="687.0533,-173.9604 676.5324,-172.7108 683.9777,-180.2486 687.0533,-173.9604"/>
</g>
<!-- gdbm -->
<g id="node36" class="node">
<title>gdbm</title>
<ellipse fill="#31688e" stroke="#000000" cx="2195.5952" cy="-306" rx="30.5947" ry="18"/>
<text text-anchor="middle" x="2195.5952" y="-302.3" font-family="Times,serif" font-size="14.00" fill="#ffffff">gdbm</text>
</g>
<!-- bwidget -->
<g id="node37" class="node">
<title>bwidget</title>
<ellipse fill="#31688e" stroke="#000000" cx="1061.5952" cy="-162" rx="44.6926" ry="18"/>
<text text-anchor="middle" x="1061.5952" y="-158.3" font-family="Times,serif" font-size="14.00" fill="#ffffff">bwidget</text>
</g>
<!-- bwidget&#45;&gt;r&#45;base -->
<g id="edge40" class="edge">
<title>bwidget&#45;&gt;r&#45;base</title>
<path fill="none" stroke="#000000" d="M1078.5263,-145.3008C1088.0163,-135.9408 1100.0119,-124.1095 1110.4701,-113.7945"/>
<polygon fill="#000000" stroke="#000000" points="1113.0939,-116.1227 1117.7558,-106.6087 1108.1784,-111.1389 1113.0939,-116.1227"/>
</g>
<!-- tktable -->
<g id="node38" class="node">
<title>tktable</title>
<ellipse fill="#31688e" stroke="#000000" cx="1364.5952" cy="-162" rx="44.6926" ry="18"/>
<text text-anchor="middle" x="1364.5952" y="-158.3" font-family="Times,serif" font-size="14.00" fill="#ffffff">tktable</text>
</g>
<!-- tktable&#45;&gt;r&#45;base -->
<g id="edge41" class="edge">
<title>tktable&#45;&gt;r&#45;base</title>
<path fill="none" stroke="#000000" d="M1330.4348,-150.2233C1324.1792,-148.1166 1317.6996,-145.9673 1311.5952,-144 1266.1749,-129.3626 1213.8747,-113.5318 1177.9689,-102.8201"/>
<polygon fill="#000000" stroke="#000000" points="1178.8788,-99.4392 1168.2958,-99.9399 1176.8811,-106.1481 1178.8788,-99.4392"/>
</g>
<!-- wget -->
<g id="node39" class="node">
<title>wget</title>
<ellipse fill="#31688e" stroke="#000000" cx="2274.5952" cy="-306" rx="30.5947" ry="18"/>
<text text-anchor="middle" x="2274.5952" y="-302.3" font-family="Times,serif" font-size="14.00" fill="#ffffff">wget</text>
</g>
<!-- autotools_clang_conda -->
<g id="node41" class="node">
<title>autotools_clang_conda</title>
<ellipse fill="#31688e" stroke="#000000" cx="2436.5952" cy="-306" rx="113.18" ry="18"/>
<text text-anchor="middle" x="2436.5952" y="-302.3" font-family="Times,serif" font-size="14.00" fill="#ffffff">autotools_clang_conda</text>
</g>
<!-- binutils_ -->
<g id="node42" class="node">
<title>binutils_</title>
<ellipse fill="#35b779" stroke="#000000" cx="2622.5952" cy="-306" rx="54.6905" ry="18"/>
<text text-anchor="middle" x="2622.5952" y="-302.3" font-family="Times,serif" font-size="14.00" fill="#000000">binutils_</text>
</g>
</g>
</svg>
