<?xml version="1.0" encoding="UTF-8" standalone="no"?>
<!DOCTYPE svg PUBLIC "-//W3C//DTD SVG 1.1//EN"
 "http://www.w3.org/Graphics/SVG/1.1/DTD/svg11.dtd">
<!-- Generated by graphviz version 2.40.1 (20161225.0304)
 -->
<!-- Title: %3 Pages: 1 -->
<svg width="2022pt" height="476pt"
 viewBox="0.00 0.00 2022.38 476.00" xmlns="http://www.w3.org/2000/svg" xmlns:xlink="http://www.w3.org/1999/xlink">
<g id="graph0" class="graph" transform="scale(1 1) rotate(0) translate(4 472)">
<title>%3</title>
<polygon fill="#ffffff" stroke="transparent" points="-4,4 -4,-472 2018.3829,-472 2018.3829,4 -4,4"/>
<!-- arrow&#45;cpp -->
<g id="node1" class="node">
<title>arrow&#45;cpp</title>
<ellipse fill="#31688e" stroke="#000000" cx="54.5952" cy="-450" rx="54.6905" ry="18"/>
<text text-anchor="middle" x="54.5952" y="-446.3" font-family="Times,serif" font-size="14.00" fill="#ffffff">arrow cpp</text>
</g>
<!-- pyarrow -->
<g id="node22" class="node">
<title>pyarrow</title>
<ellipse fill="#fde725" stroke="#000000" cx="54.5952" cy="-378" rx="44.6926" ry="18"/>
<text text-anchor="middle" x="54.5952" y="-374.3" font-family="Times,serif" font-size="14.00" fill="#000000">pyarrow</text>
</g>
<!-- arrow&#45;cpp&#45;&gt;pyarrow -->
<g id="edge1" class="edge">
<title>arrow&#45;cpp&#45;&gt;pyarrow</title>
<path fill="none" stroke="#000000" d="M54.5952,-431.8314C54.5952,-424.131 54.5952,-414.9743 54.5952,-406.4166"/>
<polygon fill="#000000" stroke="#000000" points="58.0953,-406.4132 54.5952,-396.4133 51.0953,-406.4133 58.0953,-406.4132"/>
</g>
<!-- future -->
<g id="node2" class="node">
<title>future</title>
<ellipse fill="#000000" stroke="#000000" cx="500.5952" cy="-450" rx="40.0939" ry="18"/>
<text text-anchor="middle" x="500.5952" y="-446.3" font-family="Times,serif" font-size="14.00" fill="#ffffff">future</text>
</g>
<!-- glew -->
<g id="node3" class="node">
<title>glew</title>
<ellipse fill="#fde725" stroke="#000000" cx="601.5952" cy="-306" rx="30.5947" ry="18"/>
<text text-anchor="middle" x="601.5952" y="-302.3" font-family="Times,serif" font-size="14.00" fill="#000000">glew</text>
</g>
<!-- root -->
<g id="node38" class="node">
<title>root</title>
<ellipse fill="#fde725" stroke="#000000" cx="706.5952" cy="-234" rx="30.5947" ry="18"/>
<text text-anchor="middle" x="706.5952" y="-230.3" font-family="Times,serif" font-size="14.00" fill="#000000">root</text>
</g>
<!-- glew&#45;&gt;root -->
<g id="edge2" class="edge">
<title>glew&#45;&gt;root</title>
<path fill="none" stroke="#000000" d="M621.8402,-292.1177C637.8187,-281.161 660.3053,-265.7416 678.1017,-253.5384"/>
<polygon fill="#000000" stroke="#000000" points="680.1443,-256.3816 686.4123,-247.8397 676.1856,-250.6085 680.1443,-256.3816"/>
</g>
<!-- gstreamer -->
<g id="node4" class="node">
<title>gstreamer</title>
<ellipse fill="#31688e" stroke="#000000" cx="961.5952" cy="-378" rx="54.6905" ry="18"/>
<text text-anchor="middle" x="961.5952" y="-374.3" font-family="Times,serif" font-size="14.00" fill="#ffffff">gstreamer</text>
</g>
<!-- qt -->
<g id="node24" class="node">
<title>qt</title>
<ellipse fill="#fde725" stroke="#000000" cx="861.5952" cy="-306" rx="27" ry="18"/>
<text text-anchor="middle" x="861.5952" y="-302.3" font-family="Times,serif" font-size="14.00" fill="#000000">qt</text>
</g>
<!-- gstreamer&#45;&gt;qt -->
<g id="edge3" class="edge">
<title>gstreamer&#45;&gt;qt</title>
<path fill="none" stroke="#000000" d="M938.4018,-361.3008C923.4077,-350.505 903.8473,-336.4216 888.2189,-325.1691"/>
<polygon fill="#000000" stroke="#000000" points="890.1554,-322.2506 879.9949,-319.2478 886.0652,-327.9313 890.1554,-322.2506"/>
</g>
<!-- hdf5 -->
<g id="node5" class="node">
<title>hdf5</title>
<ellipse fill="#000000" stroke="#000000" cx="1181.5952" cy="-306" rx="30.5947" ry="18"/>
<text text-anchor="middle" x="1181.5952" y="-302.3" font-family="Times,serif" font-size="14.00" fill="#ffffff">hdf5</text>
</g>
<!-- opencv -->
<g id="node17" class="node">
<title>opencv</title>
<ellipse fill="#fde725" stroke="#000000" cx="1102.5952" cy="-234" rx="40.0939" ry="18"/>
<text text-anchor="middle" x="1102.5952" y="-230.3" font-family="Times,serif" font-size="14.00" fill="#000000">opencv</text>
</g>
<!-- hdf5&#45;&gt;opencv -->
<g id="edge4" class="edge">
<title>hdf5&#45;&gt;opencv</title>
<path fill="none" stroke="#000000" d="M1164.8413,-290.7307C1154.1409,-280.9784 1140.0624,-268.1473 1128.0014,-257.1551"/>
<polygon fill="#000000" stroke="#000000" points="1130.1714,-254.3972 1120.4228,-250.248 1125.4561,-259.5709 1130.1714,-254.3972"/>
</g>
<!-- ipyparallel -->
<g id="node6" class="node">
<title>ipyparallel</title>
<ellipse fill="#31688e" stroke="#000000" cx="370.5952" cy="-306" rx="64.189" ry="18"/>
<text text-anchor="middle" x="370.5952" y="-302.3" font-family="Times,serif" font-size="14.00" fill="#ffffff">ipyparallel</text>
</g>
<!-- ipyparallel&#45;&gt;root -->
<g id="edge5" class="edge">
<title>ipyparallel&#45;&gt;root</title>
<path fill="none" stroke="#000000" d="M418.4378,-293.9183C426.8095,-291.8857 435.4464,-289.8405 443.5952,-288 522.713,-270.1306 615.7886,-251.604 667.2915,-241.57"/>
<polygon fill="#000000" stroke="#000000" points="668.1773,-244.9635 677.326,-239.6201 666.8419,-238.092 668.1773,-244.9635"/>
</g>
<!-- ipython -->
<g id="node7" class="node">
<title>ipython</title>
<ellipse fill="#000000" stroke="#000000" cx="437.5952" cy="-378" rx="44.6926" ry="18"/>
<text text-anchor="middle" x="437.5952" y="-374.3" font-family="Times,serif" font-size="14.00" fill="#ffffff">ipython</text>
</g>
<!-- ipython&#45;&gt;ipyparallel -->
<g id="edge6" class="edge">
<title>ipython&#45;&gt;ipyparallel</title>
<path fill="none" stroke="#000000" d="M421.7171,-360.937C413.4118,-352.0119 403.0863,-340.9159 393.8938,-331.0373"/>
<polygon fill="#000000" stroke="#000000" points="396.1993,-328.3771 386.8247,-323.4407 391.0748,-333.1457 396.1993,-328.3771"/>
</g>
<!-- jupyter_client -->
<g id="node8" class="node">
<title>jupyter_client</title>
<ellipse fill="#31688e" stroke="#000000" cx="295.5952" cy="-378" rx="79.0865" ry="18"/>
<text text-anchor="middle" x="295.5952" y="-374.3" font-family="Times,serif" font-size="14.00" fill="#ffffff">jupyter_client</text>
</g>
<!-- jupyter_client&#45;&gt;ipyparallel -->
<g id="edge7" class="edge">
<title>jupyter_client&#45;&gt;ipyparallel</title>
<path fill="none" stroke="#000000" d="M314.1345,-360.2022C323.4676,-351.2425 334.9271,-340.2414 345.0777,-330.4968"/>
<polygon fill="#000000" stroke="#000000" points="347.7379,-332.7948 352.5279,-323.3446 342.8901,-327.7451 347.7379,-332.7948"/>
</g>
<!-- nbconvert -->
<g id="node15" class="node">
<title>nbconvert</title>
<ellipse fill="#000000" stroke="#000000" cx="233.5952" cy="-306" rx="54.6905" ry="18"/>
<text text-anchor="middle" x="233.5952" y="-302.3" font-family="Times,serif" font-size="14.00" fill="#ffffff">nbconvert</text>
</g>
<!-- jupyter_client&#45;&gt;nbconvert -->
<g id="edge8" class="edge">
<title>jupyter_client&#45;&gt;nbconvert</title>
<path fill="none" stroke="#000000" d="M280.2693,-360.2022C272.7052,-351.4182 263.4516,-340.672 255.1844,-331.0714"/>
<polygon fill="#000000" stroke="#000000" points="257.7082,-328.6385 248.5308,-323.3446 252.4038,-333.2061 257.7082,-328.6385"/>
</g>
<!-- libglu -->
<g id="node9" class="node">
<title>libglu</title>
<ellipse fill="#31688e" stroke="#000000" cx="601.5952" cy="-378" rx="40.0939" ry="18"/>
<text text-anchor="middle" x="601.5952" y="-374.3" font-family="Times,serif" font-size="14.00" fill="#ffffff">libglu</text>
</g>
<!-- libglu&#45;&gt;glew -->
<g id="edge10" class="edge">
<title>libglu&#45;&gt;glew</title>
<path fill="none" stroke="#000000" d="M601.5952,-359.8314C601.5952,-352.131 601.5952,-342.9743 601.5952,-334.4166"/>
<polygon fill="#000000" stroke="#000000" points="605.0953,-334.4132 601.5952,-324.4133 598.0953,-334.4133 605.0953,-334.4132"/>
</g>
<!-- freeglut -->
<g id="node29" class="node">
<title>freeglut</title>
<ellipse fill="#fde725" stroke="#000000" cx="502.5952" cy="-306" rx="50.0912" ry="18"/>
<text text-anchor="middle" x="502.5952" y="-302.3" font-family="Times,serif" font-size="14.00" fill="#000000">freeglut</text>
</g>
<!-- libglu&#45;&gt;freeglut -->
<g id="edge9" class="edge">
<title>libglu&#45;&gt;freeglut</title>
<path fill="none" stroke="#000000" d="M580.1136,-362.3771C566.3905,-352.3966 548.3835,-339.3006 533.1791,-328.2429"/>
<polygon fill="#000000" stroke="#000000" points="535.2116,-325.3933 525.0656,-322.3421 531.0944,-331.0545 535.2116,-325.3933"/>
</g>
<!-- libglu&#45;&gt;root -->
<g id="edge11" class="edge">
<title>libglu&#45;&gt;root</title>
<path fill="none" stroke="#000000" d="M614.6191,-360.5294C622.466,-349.9756 632.6411,-336.2417 641.5952,-324 657.6321,-302.0748 675.7121,-277.0127 688.7249,-258.913"/>
<polygon fill="#000000" stroke="#000000" points="691.6826,-260.7947 694.6749,-250.6312 685.9977,-256.7104 691.6826,-260.7947"/>
</g>
<!-- libsndfile -->
<g id="node10" class="node">
<title>libsndfile</title>
<ellipse fill="#fde725" stroke="#000000" cx="1017.5952" cy="-90" rx="59.5901" ry="18"/>
<text text-anchor="middle" x="1017.5952" y="-86.3" font-family="Times,serif" font-size="14.00" fill="#000000">libsndfile</text>
</g>
<!-- r&#45;base -->
<g id="node25" class="node">
<title>r&#45;base</title>
<ellipse fill="#fde725" stroke="#000000" cx="1154.5952" cy="-18" rx="40.0939" ry="18"/>
<text text-anchor="middle" x="1154.5952" y="-14.3" font-family="Times,serif" font-size="14.00" fill="#000000">r base</text>
</g>
<!-- libsndfile&#45;&gt;r&#45;base -->
<g id="edge12" class="edge">
<title>libsndfile&#45;&gt;r&#45;base</title>
<path fill="none" stroke="#000000" d="M1047.3221,-74.3771C1068.3932,-63.3032 1096.7627,-48.3937 1119.0347,-36.6887"/>
<polygon fill="#000000" stroke="#000000" points="1120.9438,-39.6394 1128.1675,-31.889 1117.6872,-33.443 1120.9438,-39.6394"/>
</g>
<!-- llvmlite -->
<g id="node11" class="node">
<title>llvmlite</title>
<ellipse fill="#31688e" stroke="#000000" cx="1274.5952" cy="-450" rx="50.0912" ry="18"/>
<text text-anchor="middle" x="1274.5952" y="-446.3" font-family="Times,serif" font-size="14.00" fill="#ffffff">llvmlite</text>
</g>
<!-- numba -->
<g id="node34" class="node">
<title>numba</title>
<ellipse fill="#fde725" stroke="#000000" cx="1274.5952" cy="-378" rx="35.194" ry="18"/>
<text text-anchor="middle" x="1274.5952" y="-374.3" font-family="Times,serif" font-size="14.00" fill="#000000">numba</text>
</g>
<!-- llvmlite&#45;&gt;numba -->
<g id="edge13" class="edge">
<title>llvmlite&#45;&gt;numba</title>
<path fill="none" stroke="#000000" d="M1274.5952,-431.8314C1274.5952,-424.131 1274.5952,-414.9743 1274.5952,-406.4166"/>
<polygon fill="#000000" stroke="#000000" points="1278.0953,-406.4132 1274.5952,-396.4133 1271.0953,-406.4133 1278.0953,-406.4132"/>
</g>
<!-- matplotlib -->
<g id="node12" class="node">
<title>matplotlib</title>
<ellipse fill="#fde725" stroke="#000000" cx="782.5952" cy="-162" rx="59.5901" ry="18"/>
<text text-anchor="middle" x="782.5952" y="-158.3" font-family="Times,serif" font-size="14.00" fill="#000000">matplotlib</text>
</g>
<!-- mpfr -->
<g id="node13" class="node">
<title>mpfr</title>
<ellipse fill="#fde725" stroke="#000000" cx="1198.5952" cy="-162" rx="30.5947" ry="18"/>
<text text-anchor="middle" x="1198.5952" y="-158.3" font-family="Times,serif" font-size="14.00" fill="#000000">mpfr</text>
</g>
<!-- mpfr&#45;&gt;r&#45;base -->
<g id="edge14" class="edge">
<title>mpfr&#45;&gt;r&#45;base</title>
<path fill="none" stroke="#000000" d="M1173.7283,-151.3894C1156.4761,-142.5456 1134.8271,-128.1331 1124.5952,-108 1114.0784,-87.3064 1124.2341,-62.1198 1135.4879,-43.6593"/>
<polygon fill="#000000" stroke="#000000" points="1138.4828,-45.4742 1141.0149,-35.1864 1132.6199,-41.6497 1138.4828,-45.4742"/>
</g>
<!-- texlive&#45;core -->
<g id="node27" class="node">
<title>texlive&#45;core</title>
<ellipse fill="#fde725" stroke="#000000" cx="1203.5952" cy="-90" rx="69.5877" ry="18"/>
<text text-anchor="middle" x="1203.5952" y="-86.3" font-family="Times,serif" font-size="14.00" fill="#000000">texlive core</text>
</g>
<!-- mpfr&#45;&gt;texlive&#45;core -->
<g id="edge15" class="edge">
<title>mpfr&#45;&gt;texlive&#45;core</title>
<path fill="none" stroke="#000000" d="M1199.8569,-143.8314C1200.3916,-136.131 1201.0275,-126.9743 1201.6218,-118.4166"/>
<polygon fill="#000000" stroke="#000000" points="1205.1152,-118.6317 1202.3165,-108.4133 1198.132,-118.1467 1205.1152,-118.6317"/>
</g>
<!-- mpir -->
<g id="node14" class="node">
<title>mpir</title>
<ellipse fill="#31688e" stroke="#000000" cx="1198.5952" cy="-234" rx="30.5947" ry="18"/>
<text text-anchor="middle" x="1198.5952" y="-230.3" font-family="Times,serif" font-size="14.00" fill="#ffffff">mpir</text>
</g>
<!-- mpir&#45;&gt;mpfr -->
<g id="edge16" class="edge">
<title>mpir&#45;&gt;mpfr</title>
<path fill="none" stroke="#000000" d="M1198.5952,-215.8314C1198.5952,-208.131 1198.5952,-198.9743 1198.5952,-190.4166"/>
<polygon fill="#000000" stroke="#000000" points="1202.0953,-190.4132 1198.5952,-180.4133 1195.0953,-190.4133 1202.0953,-190.4132"/>
</g>
<!-- openblas -->
<g id="node16" class="node">
<title>openblas</title>
<ellipse fill="#000000" stroke="#000000" cx="1171.5952" cy="-378" rx="50.0912" ry="18"/>
<text text-anchor="middle" x="1171.5952" y="-374.3" font-family="Times,serif" font-size="14.00" fill="#ffffff">openblas</text>
</g>
<!-- openblas&#45;&gt;opencv -->
<g id="edge18" class="edge">
<title>openblas&#45;&gt;opencv</title>
<path fill="none" stroke="#000000" d="M1192.1129,-361.3661C1212.1812,-343.0132 1237.5699,-312.7916 1221.5952,-288 1212.6689,-274.1471 1175.5504,-258.6265 1145.112,-247.7923"/>
<polygon fill="#000000" stroke="#000000" points="1146.1032,-244.4314 1135.5083,-244.4475 1143.8007,-251.0419 1146.1032,-244.4314"/>
</g>
<!-- openblas&#45;&gt;r&#45;base -->
<g id="edge19" class="edge">
<title>openblas&#45;&gt;r&#45;base</title>
<path fill="none" stroke="#000000" d="M1199.8032,-363.1168C1238.0373,-340.6697 1301.5952,-294.2882 1301.5952,-234 1301.5952,-234 1301.5952,-234 1301.5952,-162 1301.5952,-121.1184 1308.612,-103.5346 1282.5952,-72 1262.5682,-47.7257 1229.7054,-34.1679 1202.2933,-26.7084"/>
<polygon fill="#000000" stroke="#000000" points="1203.0274,-23.284 1192.4746,-24.2276 1201.3125,-30.0707 1203.0274,-23.284"/>
</g>
<!-- blas -->
<g id="node37" class="node">
<title>blas</title>
<ellipse fill="#000000" stroke="#000000" cx="1102.5952" cy="-306" rx="30.5947" ry="18"/>
<text text-anchor="middle" x="1102.5952" y="-302.3" font-family="Times,serif" font-size="14.00" fill="#ffffff">blas</text>
</g>
<!-- openblas&#45;&gt;blas -->
<g id="edge17" class="edge">
<title>openblas&#45;&gt;blas</title>
<path fill="none" stroke="#000000" d="M1155.2431,-360.937C1146.2241,-351.5259 1134.8919,-339.701 1125.0536,-329.4349"/>
<polygon fill="#000000" stroke="#000000" points="1127.3305,-326.7522 1117.8844,-321.954 1122.2765,-331.5956 1127.3305,-326.7522"/>
</g>
<!-- openblas&#45;&gt;root -->
<g id="edge20" class="edge">
<title>openblas&#45;&gt;root</title>
<path fill="none" stroke="#000000" d="M1122.3988,-374.3581C1072.7294,-368.9867 995.0645,-355.8471 935.5952,-324 915.0864,-313.0171 917.8196,-299.4981 897.5952,-288 849.5069,-260.6606 786.6256,-246.3751 746.4117,-239.5223"/>
<polygon fill="#000000" stroke="#000000" points="746.8829,-236.053 736.45,-237.898 745.7564,-242.9617 746.8829,-236.053"/>
</g>
<!-- pandoc -->
<g id="node18" class="node">
<title>pandoc</title>
<ellipse fill="#000000" stroke="#000000" cx="157.5952" cy="-378" rx="40.0939" ry="18"/>
<text text-anchor="middle" x="157.5952" y="-374.3" font-family="Times,serif" font-size="14.00" fill="#ffffff">pandoc</text>
</g>
<!-- pandoc&#45;&gt;nbconvert -->
<g id="edge21" class="edge">
<title>pandoc&#45;&gt;nbconvert</title>
<path fill="none" stroke="#000000" d="M174.8407,-361.6621C184.733,-352.2905 197.3321,-340.3545 208.3245,-329.9407"/>
<polygon fill="#000000" stroke="#000000" points="210.7724,-332.4428 215.6248,-323.0245 205.9582,-327.3611 210.7724,-332.4428"/>
</g>
<!-- pkgconfig -->
<g id="node19" class="node">
<title>pkgconfig</title>
<ellipse fill="#000000" stroke="#000000" cx="999.5952" cy="-306" rx="54.6905" ry="18"/>
<text text-anchor="middle" x="999.5952" y="-302.3" font-family="Times,serif" font-size="14.00" fill="#ffffff">pkgconfig</text>
</g>
<!-- pkgconfig&#45;&gt;opencv -->
<g id="edge24" class="edge">
<title>pkgconfig&#45;&gt;opencv</title>
<path fill="none" stroke="#000000" d="M1022.9675,-289.6621C1037.5908,-279.4399 1056.5788,-266.1668 1072.3447,-255.1459"/>
<polygon fill="#000000" stroke="#000000" points="1074.5331,-257.8866 1080.7239,-249.2886 1070.5226,-252.1493 1074.5331,-257.8866"/>
</g>
<!-- libogg -->
<g id="node30" class="node">
<title>libogg</title>
<ellipse fill="#31688e" stroke="#000000" cx="1001.5952" cy="-234" rx="40.0939" ry="18"/>
<text text-anchor="middle" x="1001.5952" y="-230.3" font-family="Times,serif" font-size="14.00" fill="#ffffff">libogg</text>
</g>
<!-- pkgconfig&#45;&gt;libogg -->
<g id="edge23" class="edge">
<title>pkgconfig&#45;&gt;libogg</title>
<path fill="none" stroke="#000000" d="M1000.0998,-287.8314C1000.3137,-280.131 1000.5681,-270.9743 1000.8058,-262.4166"/>
<polygon fill="#000000" stroke="#000000" points="1004.3046,-262.5066 1001.0837,-252.4133 997.3073,-262.3122 1004.3046,-262.5066"/>
</g>
<!-- libflac -->
<g id="node32" class="node">
<title>libflac</title>
<ellipse fill="#fde725" stroke="#000000" cx="905.5952" cy="-162" rx="44.6926" ry="18"/>
<text text-anchor="middle" x="905.5952" y="-158.3" font-family="Times,serif" font-size="14.00" fill="#000000">libflac</text>
</g>
<!-- pkgconfig&#45;&gt;libflac -->
<g id="edge22" class="edge">
<title>pkgconfig&#45;&gt;libflac</title>
<path fill="none" stroke="#000000" d="M982.8197,-288.856C973.3113,-278.6414 961.5613,-265.1414 952.5952,-252 938.9528,-232.0048 926.4227,-207.5647 917.737,-189.2017"/>
<polygon fill="#000000" stroke="#000000" points="920.8278,-187.5472 913.4423,-179.9508 914.4786,-190.4948 920.8278,-187.5472"/>
</g>
<!-- pkgconfig&#45;&gt;root -->
<g id="edge25" class="edge">
<title>pkgconfig&#45;&gt;root</title>
<path fill="none" stroke="#000000" d="M956.9304,-294.7375C948.2246,-292.4767 939.1207,-290.1395 930.5952,-288 865.6224,-271.6953 789.8052,-253.6157 745.1313,-243.0597"/>
<polygon fill="#000000" stroke="#000000" points="745.8151,-239.625 735.2785,-240.7343 744.2071,-246.4378 745.8151,-239.625"/>
</g>
<!-- pluggy -->
<g id="node20" class="node">
<title>pluggy</title>
<ellipse fill="#31688e" stroke="#000000" cx="1382.5952" cy="-450" rx="40.0939" ry="18"/>
<text text-anchor="middle" x="1382.5952" y="-446.3" font-family="Times,serif" font-size="14.00" fill="#ffffff">pluggy</text>
</g>
<!-- portalocker -->
<g id="node21" class="node">
<title>portalocker</title>
<ellipse fill="#31688e" stroke="#000000" cx="752.5952" cy="-306" rx="64.189" ry="18"/>
<text text-anchor="middle" x="752.5952" y="-302.3" font-family="Times,serif" font-size="14.00" fill="#ffffff">portalocker</text>
</g>
<!-- portalocker&#45;&gt;root -->
<g id="edge26" class="edge">
<title>portalocker&#45;&gt;root</title>
<path fill="none" stroke="#000000" d="M741.2244,-288.2022C735.7403,-279.6186 729.0593,-269.1613 723.0339,-259.7303"/>
<polygon fill="#000000" stroke="#000000" points="725.8518,-257.6398 717.5184,-251.0972 719.9529,-261.4086 725.8518,-257.6398"/>
</g>
<!-- pyqt -->
<g id="node23" class="node">
<title>pyqt</title>
<ellipse fill="#fde725" stroke="#000000" cx="846.5952" cy="-234" rx="30.5947" ry="18"/>
<text text-anchor="middle" x="846.5952" y="-230.3" font-family="Times,serif" font-size="14.00" fill="#000000">pyqt</text>
</g>
<!-- pyqt&#45;&gt;matplotlib -->
<g id="edge27" class="edge">
<title>pyqt&#45;&gt;matplotlib</title>
<path fill="none" stroke="#000000" d="M832.3915,-218.0209C824.2921,-208.909 813.9624,-197.2881 804.813,-186.9951"/>
<polygon fill="#000000" stroke="#000000" points="807.3627,-184.5952 798.1031,-179.4464 802.1308,-189.2458 807.3627,-184.5952"/>
</g>
<!-- qt&#45;&gt;opencv -->
<g id="edge28" class="edge">
<title>qt&#45;&gt;opencv</title>
<path fill="none" stroke="#000000" d="M886.7955,-299.2735C923.15,-289.4627 992.3439,-270.3883 1050.5952,-252 1054.1282,-250.8847 1057.7842,-249.6943 1061.4447,-248.477"/>
<polygon fill="#000000" stroke="#000000" points="1062.7113,-251.7435 1071.0639,-245.2254 1060.4696,-245.1121 1062.7113,-251.7435"/>
</g>
<!-- qt&#45;&gt;pyqt -->
<g id="edge29" class="edge">
<title>qt&#45;&gt;pyqt</title>
<path fill="none" stroke="#000000" d="M857.81,-287.8314C856.1632,-279.9266 854.1967,-270.4872 852.3736,-261.7365"/>
<polygon fill="#000000" stroke="#000000" points="855.7932,-260.9894 850.3271,-251.9134 848.9403,-262.4171 855.7932,-260.9894"/>
</g>
<!-- qt&#45;&gt;root -->
<g id="edge30" class="edge">
<title>qt&#45;&gt;root</title>
<path fill="none" stroke="#000000" d="M839.9579,-295.0164C835.2401,-292.6677 830.2629,-290.225 825.5952,-288 797.1558,-274.4434 764.5543,-259.7048 740.6745,-249.0555"/>
<polygon fill="#000000" stroke="#000000" points="741.8939,-245.7673 731.3346,-244.9005 739.0486,-252.163 741.8939,-245.7673"/>
</g>
<!-- sqlalchemy -->
<g id="node26" class="node">
<title>sqlalchemy</title>
<ellipse fill="#000000" stroke="#000000" cx="1500.5952" cy="-450" rx="59.5901" ry="18"/>
<text text-anchor="middle" x="1500.5952" y="-446.3" font-family="Times,serif" font-size="14.00" fill="#ffffff">sqlalchemy</text>
</g>
<!-- texlive&#45;core&#45;&gt;r&#45;base -->
<g id="edge31" class="edge">
<title>texlive&#45;core&#45;&gt;r&#45;base</title>
<path fill="none" stroke="#000000" d="M1191.4828,-72.2022C1185.6243,-63.5938 1178.4834,-53.1011 1172.0506,-43.6488"/>
<polygon fill="#000000" stroke="#000000" points="1174.9189,-41.6425 1166.3991,-35.3446 1169.1319,-45.5809 1174.9189,-41.6425"/>
</g>
<!-- unzip -->
<g id="node28" class="node">
<title>unzip</title>
<ellipse fill="#000000" stroke="#000000" cx="1613.5952" cy="-450" rx="35.194" ry="18"/>
<text text-anchor="middle" x="1613.5952" y="-446.3" font-family="Times,serif" font-size="14.00" fill="#ffffff">unzip</text>
</g>
<!-- libogg&#45;&gt;libsndfile -->
<g id="edge33" class="edge">
<title>libogg&#45;&gt;libsndfile</title>
<path fill="none" stroke="#000000" d="M1033.4227,-222.8864C1052.5538,-214.3651 1075.3139,-200.5322 1086.5952,-180 1094.2998,-165.9772 1093.6032,-158.3836 1086.5952,-144 1080.1615,-130.7953 1068.7642,-119.8691 1057.0631,-111.3814"/>
<polygon fill="#000000" stroke="#000000" points="1058.8015,-108.3319 1048.5559,-105.6342 1054.883,-114.1324 1058.8015,-108.3319"/>
</g>
<!-- libvorbis -->
<g id="node31" class="node">
<title>libvorbis</title>
<ellipse fill="#fde725" stroke="#000000" cx="1022.5952" cy="-162" rx="54.6905" ry="18"/>
<text text-anchor="middle" x="1022.5952" y="-158.3" font-family="Times,serif" font-size="14.00" fill="#000000">libvorbis</text>
</g>
<!-- libogg&#45;&gt;libvorbis -->
<g id="edge34" class="edge">
<title>libogg&#45;&gt;libvorbis</title>
<path fill="none" stroke="#000000" d="M1006.8943,-215.8314C1009.165,-208.0463 1011.8697,-198.7729 1014.3892,-190.1347"/>
<polygon fill="#000000" stroke="#000000" points="1017.7845,-190.9933 1017.2246,-180.4133 1011.0645,-189.0332 1017.7845,-190.9933"/>
</g>
<!-- libogg&#45;&gt;libflac -->
<g id="edge32" class="edge">
<title>libogg&#45;&gt;libflac</title>
<path fill="none" stroke="#000000" d="M980.7646,-218.3771C967.4884,-208.4199 950.0774,-195.3617 935.3555,-184.3203"/>
<polygon fill="#000000" stroke="#000000" points="937.1498,-181.291 927.0498,-178.091 932.9498,-186.891 937.1498,-181.291"/>
</g>
<!-- libvorbis&#45;&gt;libsndfile -->
<g id="edge35" class="edge">
<title>libvorbis&#45;&gt;libsndfile</title>
<path fill="none" stroke="#000000" d="M1021.3334,-143.8314C1020.7987,-136.131 1020.1628,-126.9743 1019.5685,-118.4166"/>
<polygon fill="#000000" stroke="#000000" points="1023.0583,-118.1467 1018.8739,-108.4133 1016.0751,-118.6317 1023.0583,-118.1467"/>
</g>
<!-- libflac&#45;&gt;libsndfile -->
<g id="edge36" class="edge">
<title>libflac&#45;&gt;libsndfile</title>
<path fill="none" stroke="#000000" d="M929.3475,-146.7307C944.9861,-136.6772 965.7146,-123.3518 983.1521,-112.142"/>
<polygon fill="#000000" stroke="#000000" points="985.4073,-114.8531 991.9264,-106.5013 981.622,-108.9648 985.4073,-114.8531"/>
</g>
<!-- lld -->
<g id="node33" class="node">
<title>lld</title>
<ellipse fill="#31688e" stroke="#000000" cx="1693.5952" cy="-450" rx="27" ry="18"/>
<text text-anchor="middle" x="1693.5952" y="-446.3" font-family="Times,serif" font-size="14.00" fill="#ffffff">lld</text>
</g>
<!-- autotools_clang_conda -->
<g id="node40" class="node">
<title>autotools_clang_conda</title>
<ellipse fill="#fde725" stroke="#000000" cx="1693.5952" cy="-378" rx="113.18" ry="18"/>
<text text-anchor="middle" x="1693.5952" y="-374.3" font-family="Times,serif" font-size="14.00" fill="#000000">autotools_clang_conda</text>
</g>
<!-- lld&#45;&gt;autotools_clang_conda -->
<g id="edge37" class="edge">
<title>lld&#45;&gt;autotools_clang_conda</title>
<path fill="none" stroke="#000000" d="M1693.5952,-431.8314C1693.5952,-424.131 1693.5952,-414.9743 1693.5952,-406.4166"/>
<polygon fill="#000000" stroke="#000000" points="1697.0953,-406.4132 1693.5952,-396.4133 1690.0953,-406.4133 1697.0953,-406.4132"/>
</g>
<!-- nspr -->
<g id="node35" class="node">
<title>nspr</title>
<ellipse fill="#31688e" stroke="#000000" cx="833.5952" cy="-450" rx="30.5947" ry="18"/>
<text text-anchor="middle" x="833.5952" y="-446.3" font-family="Times,serif" font-size="14.00" fill="#ffffff">nspr</text>
</g>
<!-- nspr&#45;&gt;qt -->
<g id="edge39" class="edge">
<title>nspr&#45;&gt;qt</title>
<path fill="none" stroke="#000000" d="M828.0842,-432.0029C823.3275,-413.5371 818.2765,-384.1718 825.5952,-360 828.8613,-349.2127 835.0715,-338.6108 841.4264,-329.6963"/>
<polygon fill="#000000" stroke="#000000" points="844.2236,-331.8001 847.4722,-321.7156 838.6439,-327.5732 844.2236,-331.8001"/>
</g>
<!-- nss -->
<g id="node36" class="node">
<title>nss</title>
<ellipse fill="#fde725" stroke="#000000" cx="861.5952" cy="-378" rx="27" ry="18"/>
<text text-anchor="middle" x="861.5952" y="-374.3" font-family="Times,serif" font-size="14.00" fill="#000000">nss</text>
</g>
<!-- nspr&#45;&gt;nss -->
<g id="edge38" class="edge">
<title>nspr&#45;&gt;nss</title>
<path fill="none" stroke="#000000" d="M840.5165,-432.2022C843.7038,-424.0064 847.5553,-414.1024 851.0895,-405.0145"/>
<polygon fill="#000000" stroke="#000000" points="854.3909,-406.1817 854.7534,-395.593 847.8669,-403.6445 854.3909,-406.1817"/>
</g>
<!-- nss&#45;&gt;qt -->
<g id="edge40" class="edge">
<title>nss&#45;&gt;qt</title>
<path fill="none" stroke="#000000" d="M861.5952,-359.8314C861.5952,-352.131 861.5952,-342.9743 861.5952,-334.4166"/>
<polygon fill="#000000" stroke="#000000" points="865.0953,-334.4132 861.5952,-324.4133 858.0953,-334.4133 865.0953,-334.4132"/>
</g>
<!-- blas&#45;&gt;opencv -->
<g id="edge41" class="edge">
<title>blas&#45;&gt;opencv</title>
<path fill="none" stroke="#000000" d="M1102.5952,-287.8314C1102.5952,-280.131 1102.5952,-270.9743 1102.5952,-262.4166"/>
<polygon fill="#000000" stroke="#000000" points="1106.0953,-262.4132 1102.5952,-252.4133 1099.0953,-262.4133 1106.0953,-262.4132"/>
</g>
<!-- compilers -->
<g id="node39" class="node">
<title>compilers</title>
<ellipse fill="#31688e" stroke="#000000" cx="106.5952" cy="-306" rx="54.6905" ry="18"/>
<text text-anchor="middle" x="106.5952" y="-302.3" font-family="Times,serif" font-size="14.00" fill="#ffffff">compilers</text>
</g>
<!-- compilers&#45;&gt;root -->
<g id="edge42" class="edge">
<title>compilers&#45;&gt;root</title>
<path fill="none" stroke="#000000" d="M146.3301,-293.4898C153.992,-291.4074 161.9982,-289.4552 169.5952,-288 352.8343,-252.8999 575.896,-239.733 665.9784,-235.6146"/>
<polygon fill="#000000" stroke="#000000" points="666.2077,-239.108 676.0424,-235.1672 665.8968,-232.1149 666.2077,-239.108"/>
</g>
<!-- _libarchive_static_for_cph -->
<g id="node41" class="node">
<title>_libarchive_static_for_cph</title>
<ellipse fill="#31688e" stroke="#000000" cx="1876.5952" cy="-450" rx="137.5759" ry="18"/>
<text text-anchor="middle" x="1876.5952" y="-446.3" font-family="Times,serif" font-size="14.00" fill="#ffffff">_libarchive_static_for_cph</text>
</g>
</g>
</svg>
