<?xml version="1.0" encoding="UTF-8" standalone="no"?>
<!DOCTYPE svg PUBLIC "-//W3C//DTD SVG 1.1//EN"
 "http://www.w3.org/Graphics/SVG/1.1/DTD/svg11.dtd">
<!-- Generated by graphviz version 2.40.1 (20161225.0304)
 -->
<!-- Title: %3 Pages: 1 -->
<svg width="2455pt" height="332pt"
 viewBox="0.00 0.00 2455.19 332.00" xmlns="http://www.w3.org/2000/svg" xmlns:xlink="http://www.w3.org/1999/xlink">
<g id="graph0" class="graph" transform="scale(1 1) rotate(0) translate(4 328)">
<title>%3</title>
<polygon fill="#ffffff" stroke="transparent" points="-4,4 -4,-328 2451.1903,-328 2451.1903,4 -4,4"/>
<!-- arrow&#45;cpp -->
<g id="node1" class="node">
<title>arrow&#45;cpp</title>
<ellipse fill="#31688e" stroke="#000000" cx="54.5952" cy="-306" rx="54.6905" ry="18"/>
<text text-anchor="middle" x="54.5952" y="-302.3" font-family="Times,serif" font-size="14.00" fill="#ffffff">arrow cpp</text>
</g>
<!-- pyarrow -->
<g id="node17" class="node">
<title>pyarrow</title>
<ellipse fill="#fde725" stroke="#000000" cx="54.5952" cy="-234" rx="44.6926" ry="18"/>
<text text-anchor="middle" x="54.5952" y="-230.3" font-family="Times,serif" font-size="14.00" fill="#000000">pyarrow</text>
</g>
<!-- arrow&#45;cpp&#45;&gt;pyarrow -->
<g id="edge1" class="edge">
<title>arrow&#45;cpp&#45;&gt;pyarrow</title>
<path fill="none" stroke="#000000" d="M54.5952,-287.8314C54.5952,-280.131 54.5952,-270.9743 54.5952,-262.4166"/>
<polygon fill="#000000" stroke="#000000" points="58.0953,-262.4132 54.5952,-252.4133 51.0953,-262.4133 58.0953,-262.4132"/>
</g>
<!-- glew -->
<g id="node2" class="node">
<title>glew</title>
<ellipse fill="#fde725" stroke="#000000" cx="309.5952" cy="-162" rx="30.5947" ry="18"/>
<text text-anchor="middle" x="309.5952" y="-158.3" font-family="Times,serif" font-size="14.00" fill="#000000">glew</text>
</g>
<!-- root -->
<g id="node37" class="node">
<title>root</title>
<ellipse fill="#fde725" stroke="#000000" cx="398.5952" cy="-90" rx="30.5947" ry="18"/>
<text text-anchor="middle" x="398.5952" y="-86.3" font-family="Times,serif" font-size="14.00" fill="#000000">root</text>
</g>
<!-- glew&#45;&gt;root -->
<g id="edge2" class="edge">
<title>glew&#45;&gt;root</title>
<path fill="none" stroke="#000000" d="M327.6056,-147.4297C340.4285,-137.0562 357.8652,-122.9501 372.2483,-111.3143"/>
<polygon fill="#000000" stroke="#000000" points="374.7328,-113.8063 380.306,-104.7957 370.3302,-108.3642 374.7328,-113.8063"/>
</g>
<!-- gmpy2 -->
<g id="node3" class="node">
<title>gmpy2</title>
<ellipse fill="#fde725" stroke="#000000" cx="1420.5952" cy="-90" rx="35.194" ry="18"/>
<text text-anchor="middle" x="1420.5952" y="-86.3" font-family="Times,serif" font-size="14.00" fill="#000000">gmpy2</text>
</g>
<!-- sympy -->
<g id="node21" class="node">
<title>sympy</title>
<ellipse fill="#fde725" stroke="#000000" cx="1420.5952" cy="-18" rx="35.194" ry="18"/>
<text text-anchor="middle" x="1420.5952" y="-14.3" font-family="Times,serif" font-size="14.00" fill="#000000">sympy</text>
</g>
<!-- gmpy2&#45;&gt;sympy -->
<g id="edge3" class="edge">
<title>gmpy2&#45;&gt;sympy</title>
<path fill="none" stroke="#000000" d="M1420.5952,-71.8314C1420.5952,-64.131 1420.5952,-54.9743 1420.5952,-46.4166"/>
<polygon fill="#000000" stroke="#000000" points="1424.0953,-46.4132 1420.5952,-36.4133 1417.0953,-46.4133 1424.0953,-46.4132"/>
</g>
<!-- gst&#45;plugins&#45;base -->
<g id="node4" class="node">
<title>gst&#45;plugins&#45;base</title>
<ellipse fill="#fde725" stroke="#000000" cx="518.5952" cy="-234" rx="89.0842" ry="18"/>
<text text-anchor="middle" x="518.5952" y="-230.3" font-family="Times,serif" font-size="14.00" fill="#000000">gst plugins base</text>
</g>
<!-- qt -->
<g id="node19" class="node">
<title>qt</title>
<ellipse fill="#fde725" stroke="#000000" cx="635.5952" cy="-162" rx="27" ry="18"/>
<text text-anchor="middle" x="635.5952" y="-158.3" font-family="Times,serif" font-size="14.00" fill="#000000">qt</text>
</g>
<!-- gst&#45;plugins&#45;base&#45;&gt;qt -->
<g id="edge4" class="edge">
<title>gst&#45;plugins&#45;base&#45;&gt;qt</title>
<path fill="none" stroke="#000000" d="M546.6196,-216.7542C564.8622,-205.528 588.5904,-190.926 606.9547,-179.6249"/>
<polygon fill="#000000" stroke="#000000" points="608.8093,-182.5933 615.4915,-174.3715 605.1405,-176.6317 608.8093,-182.5933"/>
</g>
<!-- gstreamer -->
<g id="node5" class="node">
<title>gstreamer</title>
<ellipse fill="#31688e" stroke="#000000" cx="544.5952" cy="-306" rx="54.6905" ry="18"/>
<text text-anchor="middle" x="544.5952" y="-302.3" font-family="Times,serif" font-size="14.00" fill="#ffffff">gstreamer</text>
</g>
<!-- gstreamer&#45;&gt;gst&#45;plugins&#45;base -->
<g id="edge5" class="edge">
<title>gstreamer&#45;&gt;gst&#45;plugins&#45;base</title>
<path fill="none" stroke="#000000" d="M538.0343,-287.8314C535.1924,-279.9617 531.8014,-270.5712 528.6533,-261.8533"/>
<polygon fill="#000000" stroke="#000000" points="531.9328,-260.63 525.2444,-252.4133 525.349,-263.0076 531.9328,-260.63"/>
</g>
<!-- gstreamer&#45;&gt;qt -->
<g id="edge6" class="edge">
<title>gstreamer&#45;&gt;qt</title>
<path fill="none" stroke="#000000" d="M573.9731,-290.7646C588.9596,-281.516 606.1777,-268.3361 616.5952,-252 628.3494,-233.5676 632.9657,-209.1129 634.7168,-190.3473"/>
<polygon fill="#000000" stroke="#000000" points="638.212,-190.5382 635.4357,-180.3136 631.2299,-190.0378 638.212,-190.5382"/>
</g>
<!-- ipyparallel -->
<g id="node6" class="node">
<title>ipyparallel</title>
<ellipse fill="#31688e" stroke="#000000" cx="196.5952" cy="-162" rx="64.189" ry="18"/>
<text text-anchor="middle" x="196.5952" y="-158.3" font-family="Times,serif" font-size="14.00" fill="#ffffff">ipyparallel</text>
</g>
<!-- ipyparallel&#45;&gt;root -->
<g id="edge7" class="edge">
<title>ipyparallel&#45;&gt;root</title>
<path fill="none" stroke="#000000" d="M236.5039,-147.7751C273.288,-134.6639 327.3892,-115.3803 362.8046,-102.757"/>
<polygon fill="#000000" stroke="#000000" points="364.0238,-106.0382 372.2682,-99.3839 361.6735,-99.4446 364.0238,-106.0382"/>
</g>
<!-- jupyter_client -->
<g id="node7" class="node">
<title>jupyter_client</title>
<ellipse fill="#31688e" stroke="#000000" cx="196.5952" cy="-234" rx="79.0865" ry="18"/>
<text text-anchor="middle" x="196.5952" y="-230.3" font-family="Times,serif" font-size="14.00" fill="#ffffff">jupyter_client</text>
</g>
<!-- jupyter_client&#45;&gt;ipyparallel -->
<g id="edge8" class="edge">
<title>jupyter_client&#45;&gt;ipyparallel</title>
<path fill="none" stroke="#000000" d="M196.5952,-215.8314C196.5952,-208.131 196.5952,-198.9743 196.5952,-190.4166"/>
<polygon fill="#000000" stroke="#000000" points="200.0953,-190.4132 196.5952,-180.4133 193.0953,-190.4133 200.0953,-190.4132"/>
</g>
<!-- libglu -->
<g id="node8" class="node">
<title>libglu</title>
<ellipse fill="#31688e" stroke="#000000" cx="371.5952" cy="-234" rx="40.0939" ry="18"/>
<text text-anchor="middle" x="371.5952" y="-230.3" font-family="Times,serif" font-size="14.00" fill="#ffffff">libglu</text>
</g>
<!-- libglu&#45;&gt;glew -->
<g id="edge10" class="edge">
<title>libglu&#45;&gt;glew</title>
<path fill="none" stroke="#000000" d="M356.902,-216.937C348.9905,-207.7494 339.0979,-196.2613 330.4073,-186.1689"/>
<polygon fill="#000000" stroke="#000000" points="332.9335,-183.7388 323.7561,-178.4449 327.6291,-188.3065 332.9335,-183.7388"/>
</g>
<!-- freeglut -->
<g id="node23" class="node">
<title>freeglut</title>
<ellipse fill="#fde725" stroke="#000000" cx="408.5952" cy="-162" rx="50.0912" ry="18"/>
<text text-anchor="middle" x="408.5952" y="-158.3" font-family="Times,serif" font-size="14.00" fill="#000000">freeglut</text>
</g>
<!-- libglu&#45;&gt;freeglut -->
<g id="edge9" class="edge">
<title>libglu&#45;&gt;freeglut</title>
<path fill="none" stroke="#000000" d="M380.7412,-216.2022C384.966,-207.981 390.0741,-198.041 394.7561,-188.9301"/>
<polygon fill="#000000" stroke="#000000" points="397.9683,-190.3366 399.4261,-179.8425 391.7423,-187.1371 397.9683,-190.3366"/>
</g>
<!-- libglu&#45;&gt;root -->
<g id="edge11" class="edge">
<title>libglu&#45;&gt;root</title>
<path fill="none" stroke="#000000" d="M401.1392,-221.39C426.4987,-209.8902 460.1134,-192.7927 467.5952,-180 475.6727,-166.1886 474.6032,-158.3836 467.5952,-144 459.9435,-128.2954 445.2708,-115.8137 431.4164,-106.8239"/>
<polygon fill="#000000" stroke="#000000" points="432.8773,-103.6165 422.5122,-101.4218 429.2463,-109.6012 432.8773,-103.6165"/>
</g>
<!-- libsndfile -->
<g id="node9" class="node">
<title>libsndfile</title>
<ellipse fill="#fde725" stroke="#000000" cx="866.5952" cy="-162" rx="59.5901" ry="18"/>
<text text-anchor="middle" x="866.5952" y="-158.3" font-family="Times,serif" font-size="14.00" fill="#000000">libsndfile</text>
</g>
<!-- r&#45;base -->
<g id="node20" class="node">
<title>r&#45;base</title>
<ellipse fill="#fde725" stroke="#000000" cx="1062.5952" cy="-90" rx="40.0939" ry="18"/>
<text text-anchor="middle" x="1062.5952" y="-86.3" font-family="Times,serif" font-size="14.00" fill="#000000">r base</text>
</g>
<!-- libsndfile&#45;&gt;r&#45;base -->
<g id="edge12" class="edge">
<title>libsndfile&#45;&gt;r&#45;base</title>
<path fill="none" stroke="#000000" d="M904.8512,-147.9468C938.4134,-135.6178 987.0931,-117.7355 1021.4801,-105.1035"/>
<polygon fill="#000000" stroke="#000000" points="1023.0375,-108.2601 1031.2173,-101.5266 1020.6237,-101.6894 1023.0375,-108.2601"/>
</g>
<!-- llvmlite -->
<g id="node10" class="node">
<title>llvmlite</title>
<ellipse fill="#31688e" stroke="#000000" cx="1538.5952" cy="-306" rx="50.0912" ry="18"/>
<text text-anchor="middle" x="1538.5952" y="-302.3" font-family="Times,serif" font-size="14.00" fill="#ffffff">llvmlite</text>
</g>
<!-- numba -->
<g id="node27" class="node">
<title>numba</title>
<ellipse fill="#fde725" stroke="#000000" cx="1538.5952" cy="-234" rx="35.194" ry="18"/>
<text text-anchor="middle" x="1538.5952" y="-230.3" font-family="Times,serif" font-size="14.00" fill="#000000">numba</text>
</g>
<!-- llvmlite&#45;&gt;numba -->
<g id="edge13" class="edge">
<title>llvmlite&#45;&gt;numba</title>
<path fill="none" stroke="#000000" d="M1538.5952,-287.8314C1538.5952,-280.131 1538.5952,-270.9743 1538.5952,-262.4166"/>
<polygon fill="#000000" stroke="#000000" points="1542.0953,-262.4132 1538.5952,-252.4133 1535.0953,-262.4133 1542.0953,-262.4132"/>
</g>
<!-- matplotlib -->
<g id="node11" class="node">
<title>matplotlib</title>
<ellipse fill="#fde725" stroke="#000000" cx="680.5952" cy="-18" rx="59.5901" ry="18"/>
<text text-anchor="middle" x="680.5952" y="-14.3" font-family="Times,serif" font-size="14.00" fill="#000000">matplotlib</text>
</g>
<!-- mpc -->
<g id="node12" class="node">
<title>mpc</title>
<ellipse fill="#fde725" stroke="#000000" cx="1420.5952" cy="-162" rx="27" ry="18"/>
<text text-anchor="middle" x="1420.5952" y="-158.3" font-family="Times,serif" font-size="14.00" fill="#000000">mpc</text>
</g>
<!-- mpc&#45;&gt;gmpy2 -->
<g id="edge14" class="edge">
<title>mpc&#45;&gt;gmpy2</title>
<path fill="none" stroke="#000000" d="M1420.5952,-143.8314C1420.5952,-136.131 1420.5952,-126.9743 1420.5952,-118.4166"/>
<polygon fill="#000000" stroke="#000000" points="1424.0953,-118.4132 1420.5952,-108.4133 1417.0953,-118.4133 1424.0953,-118.4132"/>
</g>
<!-- mpfr -->
<g id="node13" class="node">
<title>mpfr</title>
<ellipse fill="#fde725" stroke="#000000" cx="1363.5952" cy="-234" rx="30.5947" ry="18"/>
<text text-anchor="middle" x="1363.5952" y="-230.3" font-family="Times,serif" font-size="14.00" fill="#000000">mpfr</text>
</g>
<!-- mpfr&#45;&gt;gmpy2 -->
<g id="edge15" class="edge">
<title>mpfr&#45;&gt;gmpy2</title>
<path fill="none" stroke="#000000" d="M1365.8841,-215.8102C1368.6713,-197.1908 1374.3311,-167.7053 1384.5952,-144 1388.8931,-134.0739 1395.03,-123.9986 1401.0224,-115.2819"/>
<polygon fill="#000000" stroke="#000000" points="1403.9223,-117.2437 1406.8931,-107.0739 1398.2287,-113.1714 1403.9223,-117.2437"/>
</g>
<!-- mpfr&#45;&gt;mpc -->
<g id="edge16" class="edge">
<title>mpfr&#45;&gt;mpc</title>
<path fill="none" stroke="#000000" d="M1376.5293,-217.6621C1383.89,-208.3644 1393.249,-196.5426 1401.4469,-186.1873"/>
<polygon fill="#000000" stroke="#000000" points="1404.2493,-188.2862 1407.7122,-178.2733 1398.7609,-183.9413 1404.2493,-188.2862"/>
</g>
<!-- mpfr&#45;&gt;r&#45;base -->
<g id="edge17" class="edge">
<title>mpfr&#45;&gt;r&#45;base</title>
<path fill="none" stroke="#000000" d="M1333.1447,-232.3275C1267.7618,-228.1001 1116.9958,-214.7393 1081.5952,-180 1065.4603,-164.1665 1061.3598,-138.3246 1060.9181,-118.3841"/>
<polygon fill="#000000" stroke="#000000" points="1064.4185,-118.3204 1060.9858,-108.2971 1057.4186,-118.2733 1064.4185,-118.3204"/>
</g>
<!-- texlive&#45;core -->
<g id="node22" class="node">
<title>texlive&#45;core</title>
<ellipse fill="#fde725" stroke="#000000" cx="1160.5952" cy="-162" rx="69.5877" ry="18"/>
<text text-anchor="middle" x="1160.5952" y="-158.3" font-family="Times,serif" font-size="14.00" fill="#000000">texlive core</text>
</g>
<!-- mpfr&#45;&gt;texlive&#45;core -->
<g id="edge18" class="edge">
<title>mpfr&#45;&gt;texlive&#45;core</title>
<path fill="none" stroke="#000000" d="M1337.0565,-224.5873C1305.2851,-213.3186 1251.3738,-194.1973 1211.4814,-180.0483"/>
<polygon fill="#000000" stroke="#000000" points="1212.5147,-176.7012 1201.9199,-176.6571 1210.1747,-183.2986 1212.5147,-176.7012"/>
</g>
<!-- mpir -->
<g id="node14" class="node">
<title>mpir</title>
<ellipse fill="#31688e" stroke="#000000" cx="1422.5952" cy="-306" rx="30.5947" ry="18"/>
<text text-anchor="middle" x="1422.5952" y="-302.3" font-family="Times,serif" font-size="14.00" fill="#ffffff">mpir</text>
</g>
<!-- mpir&#45;&gt;gmpy2 -->
<g id="edge19" class="edge">
<title>mpir&#45;&gt;gmpy2</title>
<path fill="none" stroke="#000000" d="M1431.8314,-288.7269C1446.5761,-258.838 1472.2513,-195.7088 1456.5952,-144 1453.4607,-133.6475 1447.6145,-123.4656 1441.5313,-114.7822"/>
<polygon fill="#000000" stroke="#000000" points="1444.2465,-112.5685 1435.4607,-106.6475 1438.6365,-116.7551 1444.2465,-112.5685"/>
</g>
<!-- mpir&#45;&gt;mpc -->
<g id="edge20" class="edge">
<title>mpir&#45;&gt;mpc</title>
<path fill="none" stroke="#000000" d="M1422.3419,-287.7623C1422.0007,-263.201 1421.3903,-219.2474 1420.989,-190.3541"/>
<polygon fill="#000000" stroke="#000000" points="1424.485,-190.04 1420.8464,-180.0896 1417.4857,-190.1373 1424.485,-190.04"/>
</g>
<!-- mpir&#45;&gt;mpfr -->
<g id="edge21" class="edge">
<title>mpir&#45;&gt;mpfr</title>
<path fill="none" stroke="#000000" d="M1409.2071,-289.6621C1401.5882,-280.3644 1391.9009,-268.5426 1383.4153,-258.1873"/>
<polygon fill="#000000" stroke="#000000" points="1385.9756,-255.7897 1376.9302,-250.2733 1380.5613,-260.2265 1385.9756,-255.7897"/>
</g>
<!-- multiprocess -->
<g id="node15" class="node">
<title>multiprocess</title>
<ellipse fill="#31688e" stroke="#000000" cx="1676.5952" cy="-306" rx="69.5877" ry="18"/>
<text text-anchor="middle" x="1676.5952" y="-302.3" font-family="Times,serif" font-size="14.00" fill="#ffffff">multiprocess</text>
</g>
<!-- cvxpy -->
<g id="node32" class="node">
<title>cvxpy</title>
<ellipse fill="#fde725" stroke="#000000" cx="1794.5952" cy="-234" rx="35.194" ry="18"/>
<text text-anchor="middle" x="1794.5952" y="-230.3" font-family="Times,serif" font-size="14.00" fill="#000000">cvxpy</text>
</g>
<!-- multiprocess&#45;&gt;cvxpy -->
<g id="edge22" class="edge">
<title>multiprocess&#45;&gt;cvxpy</title>
<path fill="none" stroke="#000000" d="M1703.9633,-289.3008C1721.6329,-278.5193 1744.6766,-264.4588 1763.1059,-253.2138"/>
<polygon fill="#000000" stroke="#000000" points="1765.0253,-256.1428 1771.7387,-247.9463 1761.3792,-250.1673 1765.0253,-256.1428"/>
</g>
<!-- opencv -->
<g id="node16" class="node">
<title>opencv</title>
<ellipse fill="#fde725" stroke="#000000" cx="591.5952" cy="-90" rx="40.0939" ry="18"/>
<text text-anchor="middle" x="591.5952" y="-86.3" font-family="Times,serif" font-size="14.00" fill="#000000">opencv</text>
</g>
<!-- pyqt -->
<g id="node18" class="node">
<title>pyqt</title>
<ellipse fill="#fde725" stroke="#000000" cx="680.5952" cy="-90" rx="30.5947" ry="18"/>
<text text-anchor="middle" x="680.5952" y="-86.3" font-family="Times,serif" font-size="14.00" fill="#000000">pyqt</text>
</g>
<!-- pyqt&#45;&gt;matplotlib -->
<g id="edge23" class="edge">
<title>pyqt&#45;&gt;matplotlib</title>
<path fill="none" stroke="#000000" d="M680.5952,-71.8314C680.5952,-64.131 680.5952,-54.9743 680.5952,-46.4166"/>
<polygon fill="#000000" stroke="#000000" points="684.0953,-46.4132 680.5952,-36.4133 677.0953,-46.4133 684.0953,-46.4132"/>
</g>
<!-- qt&#45;&gt;opencv -->
<g id="edge24" class="edge">
<title>qt&#45;&gt;opencv</title>
<path fill="none" stroke="#000000" d="M625.3901,-145.3008C620.1033,-136.6496 613.5263,-125.8873 607.5832,-116.1623"/>
<polygon fill="#000000" stroke="#000000" points="610.5598,-114.3209 602.3588,-107.6132 604.5868,-117.9711 610.5598,-114.3209"/>
</g>
<!-- qt&#45;&gt;pyqt -->
<g id="edge25" class="edge">
<title>qt&#45;&gt;pyqt</title>
<path fill="none" stroke="#000000" d="M646.0322,-145.3008C651.5186,-136.5224 658.3637,-125.5703 664.5114,-115.7339"/>
<polygon fill="#000000" stroke="#000000" points="667.5702,-117.4436 669.9023,-107.1086 661.6342,-113.7336 667.5702,-117.4436"/>
</g>
<!-- qt&#45;&gt;root -->
<g id="edge26" class="edge">
<title>qt&#45;&gt;root</title>
<path fill="none" stroke="#000000" d="M610.6799,-154.4308C568.9615,-141.7569 484.7559,-116.1754 435.9322,-101.3429"/>
<polygon fill="#000000" stroke="#000000" points="436.6645,-97.9075 426.0789,-98.3495 434.6297,-104.6052 436.6645,-97.9075"/>
</g>
<!-- texlive&#45;core&#45;&gt;r&#45;base -->
<g id="edge27" class="edge">
<title>texlive&#45;core&#45;&gt;r&#45;base</title>
<path fill="none" stroke="#000000" d="M1137.3705,-144.937C1123.7437,-134.9255 1106.399,-122.1824 1091.8457,-111.4902"/>
<polygon fill="#000000" stroke="#000000" points="1093.7798,-108.5681 1083.6487,-105.4679 1089.6353,-114.2093 1093.7798,-108.5681"/>
</g>
<!-- libogg -->
<g id="node24" class="node">
<title>libogg</title>
<ellipse fill="#31688e" stroke="#000000" cx="866.5952" cy="-306" rx="40.0939" ry="18"/>
<text text-anchor="middle" x="866.5952" y="-302.3" font-family="Times,serif" font-size="14.00" fill="#ffffff">libogg</text>
</g>
<!-- libogg&#45;&gt;libsndfile -->
<g id="edge29" class="edge">
<title>libogg&#45;&gt;libsndfile</title>
<path fill="none" stroke="#000000" d="M840.8048,-291.8735C826.6869,-282.5863 810.4977,-269.0074 802.5952,-252 795.853,-237.4899 795.853,-230.5101 802.5952,-216 808.502,-203.2877 819.0385,-192.4909 829.8792,-183.97"/>
<polygon fill="#000000" stroke="#000000" points="832.1598,-186.6379 838.1568,-177.9037 828.022,-180.9918 832.1598,-186.6379"/>
</g>
<!-- libvorbis -->
<g id="node25" class="node">
<title>libvorbis</title>
<ellipse fill="#fde725" stroke="#000000" cx="866.5952" cy="-234" rx="54.6905" ry="18"/>
<text text-anchor="middle" x="866.5952" y="-230.3" font-family="Times,serif" font-size="14.00" fill="#000000">libvorbis</text>
</g>
<!-- libogg&#45;&gt;libvorbis -->
<g id="edge30" class="edge">
<title>libogg&#45;&gt;libvorbis</title>
<path fill="none" stroke="#000000" d="M866.5952,-287.8314C866.5952,-280.131 866.5952,-270.9743 866.5952,-262.4166"/>
<polygon fill="#000000" stroke="#000000" points="870.0953,-262.4132 866.5952,-252.4133 863.0953,-262.4133 870.0953,-262.4132"/>
</g>
<!-- libflac -->
<g id="node26" class="node">
<title>libflac</title>
<ellipse fill="#fde725" stroke="#000000" cx="983.5952" cy="-234" rx="44.6926" ry="18"/>
<text text-anchor="middle" x="983.5952" y="-230.3" font-family="Times,serif" font-size="14.00" fill="#000000">libflac</text>
</g>
<!-- libogg&#45;&gt;libflac -->
<g id="edge28" class="edge">
<title>libogg&#45;&gt;libflac</title>
<path fill="none" stroke="#000000" d="M890.2719,-291.4297C907.4497,-280.8587 930.926,-266.4118 950.0345,-254.6527"/>
<polygon fill="#000000" stroke="#000000" points="952.06,-257.516 958.7422,-249.2941 948.3913,-251.5543 952.06,-257.516"/>
</g>
<!-- libvorbis&#45;&gt;libsndfile -->
<g id="edge31" class="edge">
<title>libvorbis&#45;&gt;libsndfile</title>
<path fill="none" stroke="#000000" d="M866.5952,-215.8314C866.5952,-208.131 866.5952,-198.9743 866.5952,-190.4166"/>
<polygon fill="#000000" stroke="#000000" points="870.0953,-190.4132 866.5952,-180.4133 863.0953,-190.4133 870.0953,-190.4132"/>
</g>
<!-- libflac&#45;&gt;libsndfile -->
<g id="edge32" class="edge">
<title>libflac&#45;&gt;libsndfile</title>
<path fill="none" stroke="#000000" d="M959.0681,-218.9064C942.4836,-208.7006 920.3244,-195.0642 901.8555,-183.6987"/>
<polygon fill="#000000" stroke="#000000" points="903.4769,-180.5869 893.126,-178.3267 899.8082,-186.5485 903.4769,-180.5869"/>
</g>
<!-- nspr -->
<g id="node28" class="node">
<title>nspr</title>
<ellipse fill="#31688e" stroke="#000000" cx="700.5952" cy="-306" rx="30.5947" ry="18"/>
<text text-anchor="middle" x="700.5952" y="-302.3" font-family="Times,serif" font-size="14.00" fill="#ffffff">nspr</text>
</g>
<!-- nspr&#45;&gt;qt -->
<g id="edge34" class="edge">
<title>nspr&#45;&gt;qt</title>
<path fill="none" stroke="#000000" d="M692.6249,-288.3428C681.3557,-263.3773 660.6795,-217.5715 647.5619,-188.5109"/>
<polygon fill="#000000" stroke="#000000" points="650.7319,-187.0264 643.4276,-179.3519 644.3518,-189.9063 650.7319,-187.0264"/>
</g>
<!-- nss -->
<g id="node29" class="node">
<title>nss</title>
<ellipse fill="#fde725" stroke="#000000" cx="728.5952" cy="-234" rx="27" ry="18"/>
<text text-anchor="middle" x="728.5952" y="-230.3" font-family="Times,serif" font-size="14.00" fill="#000000">nss</text>
</g>
<!-- nspr&#45;&gt;nss -->
<g id="edge33" class="edge">
<title>nspr&#45;&gt;nss</title>
<path fill="none" stroke="#000000" d="M707.5165,-288.2022C710.7038,-280.0064 714.5553,-270.1024 718.0895,-261.0145"/>
<polygon fill="#000000" stroke="#000000" points="721.3909,-262.1817 721.7534,-251.593 714.8669,-259.6445 721.3909,-262.1817"/>
</g>
<!-- nss&#45;&gt;qt -->
<g id="edge35" class="edge">
<title>nss&#45;&gt;qt</title>
<path fill="none" stroke="#000000" d="M710.6638,-220.1177C696.7688,-209.3602 677.3171,-194.3009 661.6961,-182.2072"/>
<polygon fill="#000000" stroke="#000000" points="663.5213,-179.1939 653.4714,-175.8397 659.2361,-184.729 663.5213,-179.1939"/>
</g>
<!-- osqp -->
<g id="node30" class="node">
<title>osqp</title>
<ellipse fill="#31688e" stroke="#000000" cx="1794.5952" cy="-306" rx="30.5947" ry="18"/>
<text text-anchor="middle" x="1794.5952" y="-302.3" font-family="Times,serif" font-size="14.00" fill="#ffffff">osqp</text>
</g>
<!-- osqp&#45;&gt;cvxpy -->
<g id="edge36" class="edge">
<title>osqp&#45;&gt;cvxpy</title>
<path fill="none" stroke="#000000" d="M1794.5952,-287.8314C1794.5952,-280.131 1794.5952,-270.9743 1794.5952,-262.4166"/>
<polygon fill="#000000" stroke="#000000" points="1798.0953,-262.4132 1794.5952,-252.4133 1791.0953,-262.4133 1798.0953,-262.4132"/>
</g>
<!-- scs -->
<g id="node31" class="node">
<title>scs</title>
<ellipse fill="#31688e" stroke="#000000" cx="1870.5952" cy="-306" rx="27" ry="18"/>
<text text-anchor="middle" x="1870.5952" y="-302.3" font-family="Times,serif" font-size="14.00" fill="#ffffff">scs</text>
</g>
<!-- scs&#45;&gt;cvxpy -->
<g id="edge37" class="edge">
<title>scs&#45;&gt;cvxpy</title>
<path fill="none" stroke="#000000" d="M1854.8479,-291.0816C1844.4335,-281.2153 1830.5761,-268.0872 1818.7765,-256.9087"/>
<polygon fill="#000000" stroke="#000000" points="1821.0433,-254.2348 1811.3766,-249.8982 1816.229,-259.3165 1821.0433,-254.2348"/>
</g>
<!-- bcrypt -->
<g id="node33" class="node">
<title>bcrypt</title>
<ellipse fill="#31688e" stroke="#000000" cx="1955.5952" cy="-306" rx="40.0939" ry="18"/>
<text text-anchor="middle" x="1955.5952" y="-302.3" font-family="Times,serif" font-size="14.00" fill="#ffffff">bcrypt</text>
</g>
<!-- bwidget -->
<g id="node34" class="node">
<title>bwidget</title>
<ellipse fill="#31688e" stroke="#000000" cx="989.5952" cy="-162" rx="44.6926" ry="18"/>
<text text-anchor="middle" x="989.5952" y="-158.3" font-family="Times,serif" font-size="14.00" fill="#ffffff">bwidget</text>
</g>
<!-- bwidget&#45;&gt;r&#45;base -->
<g id="edge38" class="edge">
<title>bwidget&#45;&gt;r&#45;base</title>
<path fill="none" stroke="#000000" d="M1006.5263,-145.3008C1016.0163,-135.9408 1028.0119,-124.1095 1038.4701,-113.7945"/>
<polygon fill="#000000" stroke="#000000" points="1041.0939,-116.1227 1045.7558,-106.6087 1036.1784,-111.1389 1041.0939,-116.1227"/>
</g>
<!-- tktable -->
<g id="node35" class="node">
<title>tktable</title>
<ellipse fill="#31688e" stroke="#000000" cx="1292.5952" cy="-162" rx="44.6926" ry="18"/>
<text text-anchor="middle" x="1292.5952" y="-158.3" font-family="Times,serif" font-size="14.00" fill="#ffffff">tktable</text>
</g>
<!-- tktable&#45;&gt;r&#45;base -->
<g id="edge39" class="edge">
<title>tktable&#45;&gt;r&#45;base</title>
<path fill="none" stroke="#000000" d="M1258.4348,-150.2233C1252.1792,-148.1166 1245.6996,-145.9673 1239.5952,-144 1194.1749,-129.3626 1141.8747,-113.5318 1105.9689,-102.8201"/>
<polygon fill="#000000" stroke="#000000" points="1106.8788,-99.4392 1096.2958,-99.9399 1104.8811,-106.1481 1106.8788,-99.4392"/>
</g>
<!-- wget -->
<g id="node36" class="node">
<title>wget</title>
<ellipse fill="#31688e" stroke="#000000" cx="2044.5952" cy="-306" rx="30.5947" ry="18"/>
<text text-anchor="middle" x="2044.5952" y="-302.3" font-family="Times,serif" font-size="14.00" fill="#ffffff">wget</text>
</g>
<!-- autotools_clang_conda -->
<g id="node38" class="node">
<title>autotools_clang_conda</title>
<ellipse fill="#31688e" stroke="#000000" cx="2206.5952" cy="-306" rx="113.18" ry="18"/>
<text text-anchor="middle" x="2206.5952" y="-302.3" font-family="Times,serif" font-size="14.00" fill="#ffffff">autotools_clang_conda</text>
</g>
<!-- binutils_ -->
<g id="node39" class="node">
<title>binutils_</title>
<ellipse fill="#35b779" stroke="#000000" cx="2392.5952" cy="-306" rx="54.6905" ry="18"/>
<text text-anchor="middle" x="2392.5952" y="-302.3" font-family="Times,serif" font-size="14.00" fill="#000000">binutils_</text>
</g>
</g>
</svg>
