<?xml version="1.0" encoding="UTF-8" standalone="no"?>
<!DOCTYPE svg PUBLIC "-//W3C//DTD SVG 1.1//EN"
 "http://www.w3.org/Graphics/SVG/1.1/DTD/svg11.dtd">
<!-- Generated by graphviz version 2.40.1 (20161225.0304)
 -->
<!-- Title: %3 Pages: 1 -->
<svg width="2141pt" height="476pt"
 viewBox="0.00 0.00 2141.38 476.00" xmlns="http://www.w3.org/2000/svg" xmlns:xlink="http://www.w3.org/1999/xlink">
<g id="graph0" class="graph" transform="scale(1 1) rotate(0) translate(4 472)">
<title>%3</title>
<polygon fill="#ffffff" stroke="transparent" points="-4,4 -4,-472 2137.3829,-472 2137.3829,4 -4,4"/>
<!-- arrow&#45;cpp -->
<g id="node1" class="node">
<title>arrow&#45;cpp</title>
<ellipse fill="#31688e" stroke="#000000" cx="54.5952" cy="-450" rx="54.6905" ry="18"/>
<text text-anchor="middle" x="54.5952" y="-446.3" font-family="Times,serif" font-size="14.00" fill="#ffffff">arrow cpp</text>
</g>
<!-- pyarrow -->
<g id="node22" class="node">
<title>pyarrow</title>
<ellipse fill="#fde725" stroke="#000000" cx="54.5952" cy="-378" rx="44.6926" ry="18"/>
<text text-anchor="middle" x="54.5952" y="-374.3" font-family="Times,serif" font-size="14.00" fill="#000000">pyarrow</text>
</g>
<!-- arrow&#45;cpp&#45;&gt;pyarrow -->
<g id="edge1" class="edge">
<title>arrow&#45;cpp&#45;&gt;pyarrow</title>
<path fill="none" stroke="#000000" d="M54.5952,-431.8314C54.5952,-424.131 54.5952,-414.9743 54.5952,-406.4166"/>
<polygon fill="#000000" stroke="#000000" points="58.0953,-406.4132 54.5952,-396.4133 51.0953,-406.4133 58.0953,-406.4132"/>
</g>
<!-- future -->
<g id="node2" class="node">
<title>future</title>
<ellipse fill="#000000" stroke="#000000" cx="672.5952" cy="-450" rx="40.0939" ry="18"/>
<text text-anchor="middle" x="672.5952" y="-446.3" font-family="Times,serif" font-size="14.00" fill="#ffffff">future</text>
</g>
<!-- glew -->
<g id="node3" class="node">
<title>glew</title>
<ellipse fill="#fde725" stroke="#000000" cx="495.5952" cy="-306" rx="30.5947" ry="18"/>
<text text-anchor="middle" x="495.5952" y="-302.3" font-family="Times,serif" font-size="14.00" fill="#000000">glew</text>
</g>
<!-- root -->
<g id="node39" class="node">
<title>root</title>
<ellipse fill="#fde725" stroke="#000000" cx="906.5952" cy="-234" rx="30.5947" ry="18"/>
<text text-anchor="middle" x="906.5952" y="-230.3" font-family="Times,serif" font-size="14.00" fill="#000000">root</text>
</g>
<!-- glew&#45;&gt;root -->
<g id="edge2" class="edge">
<title>glew&#45;&gt;root</title>
<path fill="none" stroke="#000000" d="M518.8715,-294.22C524.2564,-291.8645 530.039,-289.62 535.5952,-288 652.3861,-253.9485 796.3986,-240.8345 865.629,-236.2361"/>
<polygon fill="#000000" stroke="#000000" points="865.9294,-239.7241 875.6858,-235.5936 865.483,-232.7384 865.9294,-239.7241"/>
</g>
<!-- gstreamer -->
<g id="node4" class="node">
<title>gstreamer</title>
<ellipse fill="#31688e" stroke="#000000" cx="1129.5952" cy="-378" rx="54.6905" ry="18"/>
<text text-anchor="middle" x="1129.5952" y="-374.3" font-family="Times,serif" font-size="14.00" fill="#ffffff">gstreamer</text>
</g>
<!-- qt -->
<g id="node24" class="node">
<title>qt</title>
<ellipse fill="#fde725" stroke="#000000" cx="1138.5952" cy="-306" rx="27" ry="18"/>
<text text-anchor="middle" x="1138.5952" y="-302.3" font-family="Times,serif" font-size="14.00" fill="#000000">qt</text>
</g>
<!-- gstreamer&#45;&gt;qt -->
<g id="edge3" class="edge">
<title>gstreamer&#45;&gt;qt</title>
<path fill="none" stroke="#000000" d="M1131.8662,-359.8314C1132.8288,-352.131 1133.9734,-342.9743 1135.0431,-334.4166"/>
<polygon fill="#000000" stroke="#000000" points="1138.526,-334.7702 1136.2935,-324.4133 1131.5801,-333.9019 1138.526,-334.7702"/>
</g>
<!-- hdf5 -->
<g id="node5" class="node">
<title>hdf5</title>
<ellipse fill="#000000" stroke="#000000" cx="1408.5952" cy="-306" rx="30.5947" ry="18"/>
<text text-anchor="middle" x="1408.5952" y="-302.3" font-family="Times,serif" font-size="14.00" fill="#ffffff">hdf5</text>
</g>
<!-- opencv -->
<g id="node17" class="node">
<title>opencv</title>
<ellipse fill="#fde725" stroke="#000000" cx="1317.5952" cy="-234" rx="40.0939" ry="18"/>
<text text-anchor="middle" x="1317.5952" y="-230.3" font-family="Times,serif" font-size="14.00" fill="#000000">opencv</text>
</g>
<!-- hdf5&#45;&gt;opencv -->
<g id="edge4" class="edge">
<title>hdf5&#45;&gt;opencv</title>
<path fill="none" stroke="#000000" d="M1390.1799,-291.4297C1377.4162,-281.331 1360.1817,-267.6948 1345.7093,-256.2441"/>
<polygon fill="#000000" stroke="#000000" points="1347.5759,-253.258 1337.562,-249.7979 1343.2325,-258.7476 1347.5759,-253.258"/>
</g>
<!-- ipyparallel -->
<g id="node6" class="node">
<title>ipyparallel</title>
<ellipse fill="#31688e" stroke="#000000" cx="382.5952" cy="-306" rx="64.189" ry="18"/>
<text text-anchor="middle" x="382.5952" y="-302.3" font-family="Times,serif" font-size="14.00" fill="#ffffff">ipyparallel</text>
</g>
<!-- ipyparallel&#45;&gt;root -->
<g id="edge5" class="edge">
<title>ipyparallel&#45;&gt;root</title>
<path fill="none" stroke="#000000" d="M429.5352,-293.5276C438.1626,-291.4916 447.1199,-289.5463 455.5952,-288 605.7535,-260.6044 786.6703,-243.7655 865.9913,-237.1811"/>
<polygon fill="#000000" stroke="#000000" points="866.3686,-240.662 876.049,-236.3562 865.7963,-233.6854 866.3686,-240.662"/>
</g>
<!-- ipython -->
<g id="node7" class="node">
<title>ipython</title>
<ellipse fill="#000000" stroke="#000000" cx="437.5952" cy="-378" rx="44.6926" ry="18"/>
<text text-anchor="middle" x="437.5952" y="-374.3" font-family="Times,serif" font-size="14.00" fill="#ffffff">ipython</text>
</g>
<!-- ipython&#45;&gt;ipyparallel -->
<g id="edge6" class="edge">
<title>ipython&#45;&gt;ipyparallel</title>
<path fill="none" stroke="#000000" d="M424.2812,-360.5708C417.6913,-351.9441 409.6049,-341.3582 402.3137,-331.8134"/>
<polygon fill="#000000" stroke="#000000" points="405.0204,-329.591 396.1686,-323.7689 399.4577,-333.8403 405.0204,-329.591"/>
</g>
<!-- jupyter_client -->
<g id="node8" class="node">
<title>jupyter_client</title>
<ellipse fill="#31688e" stroke="#000000" cx="295.5952" cy="-378" rx="79.0865" ry="18"/>
<text text-anchor="middle" x="295.5952" y="-374.3" font-family="Times,serif" font-size="14.00" fill="#ffffff">jupyter_client</text>
</g>
<!-- jupyter_client&#45;&gt;ipyparallel -->
<g id="edge7" class="edge">
<title>jupyter_client&#45;&gt;ipyparallel</title>
<path fill="none" stroke="#000000" d="M316.6554,-360.5708C327.7693,-351.3732 341.5742,-339.9484 353.6764,-329.9328"/>
<polygon fill="#000000" stroke="#000000" points="356.2564,-332.3408 361.7288,-323.2687 351.7934,-326.948 356.2564,-332.3408"/>
</g>
<!-- nbconvert -->
<g id="node15" class="node">
<title>nbconvert</title>
<ellipse fill="#000000" stroke="#000000" cx="228.5952" cy="-306" rx="54.6905" ry="18"/>
<text text-anchor="middle" x="228.5952" y="-302.3" font-family="Times,serif" font-size="14.00" fill="#ffffff">nbconvert</text>
</g>
<!-- jupyter_client&#45;&gt;nbconvert -->
<g id="edge8" class="edge">
<title>jupyter_client&#45;&gt;nbconvert</title>
<path fill="none" stroke="#000000" d="M279.0334,-360.2022C270.7775,-351.3303 260.6592,-340.4569 251.6578,-330.7837"/>
<polygon fill="#000000" stroke="#000000" points="254.1098,-328.281 244.7353,-323.3446 248.9853,-333.0496 254.1098,-328.281"/>
</g>
<!-- libglu -->
<g id="node9" class="node">
<title>libglu</title>
<ellipse fill="#31688e" stroke="#000000" cx="594.5952" cy="-378" rx="40.0939" ry="18"/>
<text text-anchor="middle" x="594.5952" y="-374.3" font-family="Times,serif" font-size="14.00" fill="#ffffff">libglu</text>
</g>
<!-- libglu&#45;&gt;glew -->
<g id="edge10" class="edge">
<title>libglu&#45;&gt;glew</title>
<path fill="none" stroke="#000000" d="M573.1136,-362.3771C558.5268,-351.7685 539.0999,-337.6398 523.3434,-326.1806"/>
<polygon fill="#000000" stroke="#000000" points="525.1675,-323.1794 515.0215,-320.1282 521.0503,-328.8406 525.1675,-323.1794"/>
</g>
<!-- freeglut -->
<g id="node29" class="node">
<title>freeglut</title>
<ellipse fill="#fde725" stroke="#000000" cx="594.5952" cy="-306" rx="50.0912" ry="18"/>
<text text-anchor="middle" x="594.5952" y="-302.3" font-family="Times,serif" font-size="14.00" fill="#000000">freeglut</text>
</g>
<!-- libglu&#45;&gt;freeglut -->
<g id="edge9" class="edge">
<title>libglu&#45;&gt;freeglut</title>
<path fill="none" stroke="#000000" d="M594.5952,-359.8314C594.5952,-352.131 594.5952,-342.9743 594.5952,-334.4166"/>
<polygon fill="#000000" stroke="#000000" points="598.0953,-334.4132 594.5952,-324.4133 591.0953,-334.4133 598.0953,-334.4132"/>
</g>
<!-- libglu&#45;&gt;root -->
<g id="edge11" class="edge">
<title>libglu&#45;&gt;root</title>
<path fill="none" stroke="#000000" d="M612.4832,-361.7744C624.2192,-351.093 639.8764,-336.7747 653.5952,-324 670.621,-308.1458 671.2036,-299.199 691.5952,-288 747.6141,-257.2347 821.4268,-243.6605 866.3753,-237.9201"/>
<polygon fill="#000000" stroke="#000000" points="866.8239,-241.3914 876.3317,-236.7168 865.9839,-234.442 866.8239,-241.3914"/>
</g>
<!-- libsndfile -->
<g id="node10" class="node">
<title>libsndfile</title>
<ellipse fill="#fde725" stroke="#000000" cx="1514.5952" cy="-90" rx="59.5901" ry="18"/>
<text text-anchor="middle" x="1514.5952" y="-86.3" font-family="Times,serif" font-size="14.00" fill="#000000">libsndfile</text>
</g>
<!-- r&#45;base -->
<g id="node25" class="node">
<title>r&#45;base</title>
<ellipse fill="#fde725" stroke="#000000" cx="1318.5952" cy="-18" rx="40.0939" ry="18"/>
<text text-anchor="middle" x="1318.5952" y="-14.3" font-family="Times,serif" font-size="14.00" fill="#000000">r base</text>
</g>
<!-- libsndfile&#45;&gt;r&#45;base -->
<g id="edge12" class="edge">
<title>libsndfile&#45;&gt;r&#45;base</title>
<path fill="none" stroke="#000000" d="M1476.3391,-75.9468C1442.7769,-63.6178 1394.0972,-45.7355 1359.7102,-33.1035"/>
<polygon fill="#000000" stroke="#000000" points="1360.5666,-29.6894 1349.973,-29.5266 1358.1528,-36.2601 1360.5666,-29.6894"/>
</g>
<!-- llvmlite -->
<g id="node11" class="node">
<title>llvmlite</title>
<ellipse fill="#31688e" stroke="#000000" cx="1393.5952" cy="-450" rx="50.0912" ry="18"/>
<text text-anchor="middle" x="1393.5952" y="-446.3" font-family="Times,serif" font-size="14.00" fill="#ffffff">llvmlite</text>
</g>
<!-- numba -->
<g id="node34" class="node">
<title>numba</title>
<ellipse fill="#fde725" stroke="#000000" cx="1393.5952" cy="-378" rx="35.194" ry="18"/>
<text text-anchor="middle" x="1393.5952" y="-374.3" font-family="Times,serif" font-size="14.00" fill="#000000">numba</text>
</g>
<!-- llvmlite&#45;&gt;numba -->
<g id="edge13" class="edge">
<title>llvmlite&#45;&gt;numba</title>
<path fill="none" stroke="#000000" d="M1393.5952,-431.8314C1393.5952,-424.131 1393.5952,-414.9743 1393.5952,-406.4166"/>
<polygon fill="#000000" stroke="#000000" points="1397.0953,-406.4132 1393.5952,-396.4133 1390.0953,-406.4133 1397.0953,-406.4132"/>
</g>
<!-- matplotlib -->
<g id="node12" class="node">
<title>matplotlib</title>
<ellipse fill="#fde725" stroke="#000000" cx="1138.5952" cy="-162" rx="59.5901" ry="18"/>
<text text-anchor="middle" x="1138.5952" y="-158.3" font-family="Times,serif" font-size="14.00" fill="#000000">matplotlib</text>
</g>
<!-- mpfr -->
<g id="node13" class="node">
<title>mpfr</title>
<ellipse fill="#fde725" stroke="#000000" cx="1328.5952" cy="-162" rx="30.5947" ry="18"/>
<text text-anchor="middle" x="1328.5952" y="-158.3" font-family="Times,serif" font-size="14.00" fill="#000000">mpfr</text>
</g>
<!-- mpfr&#45;&gt;r&#45;base -->
<g id="edge14" class="edge">
<title>mpfr&#45;&gt;r&#45;base</title>
<path fill="none" stroke="#000000" d="M1312.5184,-146.1C1303.5892,-136.103 1293.3485,-122.4028 1288.5952,-108 1283.5807,-92.8061 1284.5817,-87.4885 1288.5952,-72 1291.0844,-62.3937 1295.6936,-52.6768 1300.5649,-44.1845"/>
<polygon fill="#000000" stroke="#000000" points="1303.6363,-45.8706 1305.8659,-35.513 1297.6639,-42.2196 1303.6363,-45.8706"/>
</g>
<!-- texlive&#45;core -->
<g id="node27" class="node">
<title>texlive&#45;core</title>
<ellipse fill="#fde725" stroke="#000000" cx="1367.5952" cy="-90" rx="69.5877" ry="18"/>
<text text-anchor="middle" x="1367.5952" y="-86.3" font-family="Times,serif" font-size="14.00" fill="#000000">texlive core</text>
</g>
<!-- mpfr&#45;&gt;texlive&#45;core -->
<g id="edge15" class="edge">
<title>mpfr&#45;&gt;texlive&#45;core</title>
<path fill="none" stroke="#000000" d="M1338.036,-144.5708C1342.5334,-136.2679 1348.0138,-126.1502 1353.0284,-116.8925"/>
<polygon fill="#000000" stroke="#000000" points="1356.1486,-118.4805 1357.834,-108.0206 1349.9936,-115.1465 1356.1486,-118.4805"/>
</g>
<!-- mpir -->
<g id="node14" class="node">
<title>mpir</title>
<ellipse fill="#31688e" stroke="#000000" cx="1406.5952" cy="-234" rx="30.5947" ry="18"/>
<text text-anchor="middle" x="1406.5952" y="-230.3" font-family="Times,serif" font-size="14.00" fill="#ffffff">mpir</text>
</g>
<!-- mpir&#45;&gt;mpfr -->
<g id="edge16" class="edge">
<title>mpir&#45;&gt;mpfr</title>
<path fill="none" stroke="#000000" d="M1390.0534,-218.7307C1379.195,-208.7075 1364.8133,-195.4321 1352.6922,-184.2434"/>
<polygon fill="#000000" stroke="#000000" points="1354.8352,-181.4583 1345.1131,-177.2473 1350.0872,-186.602 1354.8352,-181.4583"/>
</g>
<!-- openblas -->
<g id="node16" class="node">
<title>openblas</title>
<ellipse fill="#000000" stroke="#000000" cx="1290.5952" cy="-378" rx="50.0912" ry="18"/>
<text text-anchor="middle" x="1290.5952" y="-374.3" font-family="Times,serif" font-size="14.00" fill="#ffffff">openblas</text>
</g>
<!-- openblas&#45;&gt;opencv -->
<g id="edge18" class="edge">
<title>openblas&#45;&gt;opencv</title>
<path fill="none" stroke="#000000" d="M1307.916,-360.6924C1316.5347,-350.8368 1326.0612,-337.7381 1330.5952,-324 1337.2852,-303.7289 1333.2814,-279.7635 1328.014,-261.6616"/>
<polygon fill="#000000" stroke="#000000" points="1331.3078,-260.4703 1324.9281,-252.0115 1324.6404,-262.6025 1331.3078,-260.4703"/>
</g>
<!-- openblas&#45;&gt;r&#45;base -->
<g id="edge19" class="edge">
<title>openblas&#45;&gt;r&#45;base</title>
<path fill="none" stroke="#000000" d="M1274.7928,-360.7382C1266.4111,-350.6967 1256.6269,-337.4058 1250.5952,-324 1233.8207,-286.7183 1231.5952,-274.8816 1231.5952,-234 1231.5952,-234 1231.5952,-234 1231.5952,-162 1231.5952,-113.8824 1267.6222,-68.0621 1293.3088,-41.5081"/>
<polygon fill="#000000" stroke="#000000" points="1295.9884,-43.7776 1300.5687,-34.224 1291.0304,-38.8361 1295.9884,-43.7776"/>
</g>
<!-- blas -->
<g id="node37" class="node">
<title>blas</title>
<ellipse fill="#000000" stroke="#000000" cx="1290.5952" cy="-306" rx="30.5947" ry="18"/>
<text text-anchor="middle" x="1290.5952" y="-302.3" font-family="Times,serif" font-size="14.00" fill="#ffffff">blas</text>
</g>
<!-- openblas&#45;&gt;blas -->
<g id="edge17" class="edge">
<title>openblas&#45;&gt;blas</title>
<path fill="none" stroke="#000000" d="M1290.5952,-359.8314C1290.5952,-352.131 1290.5952,-342.9743 1290.5952,-334.4166"/>
<polygon fill="#000000" stroke="#000000" points="1294.0953,-334.4132 1290.5952,-324.4133 1287.0953,-334.4133 1294.0953,-334.4132"/>
</g>
<!-- openblas&#45;&gt;root -->
<g id="edge20" class="edge">
<title>openblas&#45;&gt;root</title>
<path fill="none" stroke="#000000" d="M1267.968,-361.8003C1253.4155,-351.2501 1234.1925,-337.0673 1217.5952,-324 1198.0117,-308.5817 1197.0609,-298.7948 1174.5952,-288 1099.5955,-251.9627 1001.6334,-239.9587 947.3315,-235.9717"/>
<polygon fill="#000000" stroke="#000000" points="947.2868,-232.4608 937.073,-235.2765 946.8134,-239.4448 947.2868,-232.4608"/>
</g>
<!-- pandoc -->
<g id="node18" class="node">
<title>pandoc</title>
<ellipse fill="#000000" stroke="#000000" cx="157.5952" cy="-378" rx="40.0939" ry="18"/>
<text text-anchor="middle" x="157.5952" y="-374.3" font-family="Times,serif" font-size="14.00" fill="#ffffff">pandoc</text>
</g>
<!-- pandoc&#45;&gt;nbconvert -->
<g id="edge21" class="edge">
<title>pandoc&#45;&gt;nbconvert</title>
<path fill="none" stroke="#000000" d="M174.0624,-361.3008C182.9416,-352.2965 194.0761,-341.0052 203.9652,-330.9769"/>
<polygon fill="#000000" stroke="#000000" points="206.6973,-333.1911 211.2266,-323.6132 201.713,-328.276 206.6973,-333.1911"/>
</g>
<!-- pkgconfig -->
<g id="node19" class="node">
<title>pkgconfig</title>
<ellipse fill="#000000" stroke="#000000" cx="1512.5952" cy="-306" rx="54.6905" ry="18"/>
<text text-anchor="middle" x="1512.5952" y="-302.3" font-family="Times,serif" font-size="14.00" fill="#ffffff">pkgconfig</text>
</g>
<!-- pkgconfig&#45;&gt;opencv -->
<g id="edge24" class="edge">
<title>pkgconfig&#45;&gt;opencv</title>
<path fill="none" stroke="#000000" d="M1475.9171,-292.4574C1442.5798,-280.1482 1393.4471,-262.0069 1358.775,-249.2049"/>
<polygon fill="#000000" stroke="#000000" points="1359.5524,-245.761 1348.9591,-245.5805 1357.1277,-252.3277 1359.5524,-245.761"/>
</g>
<!-- libogg -->
<g id="node30" class="node">
<title>libogg</title>
<ellipse fill="#31688e" stroke="#000000" cx="1513.5952" cy="-234" rx="40.0939" ry="18"/>
<text text-anchor="middle" x="1513.5952" y="-230.3" font-family="Times,serif" font-size="14.00" fill="#ffffff">libogg</text>
</g>
<!-- pkgconfig&#45;&gt;libogg -->
<g id="edge23" class="edge">
<title>pkgconfig&#45;&gt;libogg</title>
<path fill="none" stroke="#000000" d="M1512.8475,-287.8314C1512.9544,-280.131 1513.0816,-270.9743 1513.2005,-262.4166"/>
<polygon fill="#000000" stroke="#000000" points="1516.7001,-262.4609 1513.3394,-252.4133 1509.7008,-262.3637 1516.7001,-262.4609"/>
</g>
<!-- libflac -->
<g id="node32" class="node">
<title>libflac</title>
<ellipse fill="#fde725" stroke="#000000" cx="1587.5952" cy="-162" rx="44.6926" ry="18"/>
<text text-anchor="middle" x="1587.5952" y="-158.3" font-family="Times,serif" font-size="14.00" fill="#000000">libflac</text>
</g>
<!-- pkgconfig&#45;&gt;libflac -->
<g id="edge22" class="edge">
<title>pkgconfig&#45;&gt;libflac</title>
<path fill="none" stroke="#000000" d="M1532.6094,-288.7697C1542.9033,-278.9368 1554.8754,-265.835 1562.5952,-252 1573.3458,-232.7329 1579.7307,-208.5245 1583.3537,-190.0691"/>
<polygon fill="#000000" stroke="#000000" points="1586.8006,-190.676 1585.1362,-180.2127 1579.9123,-189.4302 1586.8006,-190.676"/>
</g>
<!-- pkgconfig&#45;&gt;root -->
<g id="edge25" class="edge">
<title>pkgconfig&#45;&gt;root</title>
<path fill="none" stroke="#000000" d="M1472.564,-293.5848C1464.6774,-291.4677 1456.4208,-289.4786 1448.5952,-288 1423.9636,-283.3462 1068.2003,-249.3459 946.8241,-237.8137"/>
<polygon fill="#000000" stroke="#000000" points="947.1087,-234.3251 936.8226,-236.8639 946.4469,-241.2937 947.1087,-234.3251"/>
</g>
<!-- pluggy -->
<g id="node20" class="node">
<title>pluggy</title>
<ellipse fill="#31688e" stroke="#000000" cx="1501.5952" cy="-450" rx="40.0939" ry="18"/>
<text text-anchor="middle" x="1501.5952" y="-446.3" font-family="Times,serif" font-size="14.00" fill="#ffffff">pluggy</text>
</g>
<!-- portalocker -->
<g id="node21" class="node">
<title>portalocker</title>
<ellipse fill="#31688e" stroke="#000000" cx="764.5952" cy="-306" rx="64.189" ry="18"/>
<text text-anchor="middle" x="764.5952" y="-302.3" font-family="Times,serif" font-size="14.00" fill="#ffffff">portalocker</text>
</g>
<!-- portalocker&#45;&gt;root -->
<g id="edge26" class="edge">
<title>portalocker&#45;&gt;root</title>
<path fill="none" stroke="#000000" d="M795.7577,-290.1993C819.0061,-278.4113 850.6802,-262.3512 874.2158,-250.4177"/>
<polygon fill="#000000" stroke="#000000" points="876.1009,-253.3861 883.4371,-245.7421 872.9353,-247.1428 876.1009,-253.3861"/>
</g>
<!-- pyqt -->
<g id="node23" class="node">
<title>pyqt</title>
<ellipse fill="#fde725" stroke="#000000" cx="1138.5952" cy="-234" rx="30.5947" ry="18"/>
<text text-anchor="middle" x="1138.5952" y="-230.3" font-family="Times,serif" font-size="14.00" fill="#000000">pyqt</text>
</g>
<!-- pyqt&#45;&gt;matplotlib -->
<g id="edge27" class="edge">
<title>pyqt&#45;&gt;matplotlib</title>
<path fill="none" stroke="#000000" d="M1138.5952,-215.8314C1138.5952,-208.131 1138.5952,-198.9743 1138.5952,-190.4166"/>
<polygon fill="#000000" stroke="#000000" points="1142.0953,-190.4132 1138.5952,-180.4133 1135.0953,-190.4133 1142.0953,-190.4132"/>
</g>
<!-- qt&#45;&gt;opencv -->
<g id="edge28" class="edge">
<title>qt&#45;&gt;opencv</title>
<path fill="none" stroke="#000000" d="M1161.9963,-296.5873C1191.4477,-284.7409 1242.4747,-264.2161 1278.0335,-249.9131"/>
<polygon fill="#000000" stroke="#000000" points="1279.6505,-253.0352 1287.622,-246.0563 1277.0382,-246.5409 1279.6505,-253.0352"/>
</g>
<!-- qt&#45;&gt;pyqt -->
<g id="edge29" class="edge">
<title>qt&#45;&gt;pyqt</title>
<path fill="none" stroke="#000000" d="M1138.5952,-287.8314C1138.5952,-280.131 1138.5952,-270.9743 1138.5952,-262.4166"/>
<polygon fill="#000000" stroke="#000000" points="1142.0953,-262.4132 1138.5952,-252.4133 1135.0953,-262.4133 1142.0953,-262.4132"/>
</g>
<!-- qt&#45;&gt;root -->
<g id="edge30" class="edge">
<title>qt&#45;&gt;root</title>
<path fill="none" stroke="#000000" d="M1117.584,-294.638C1112.7408,-292.2608 1107.5536,-289.9018 1102.5952,-288 1049.3909,-267.5936 985.3402,-251.4489 945.284,-242.3067"/>
<polygon fill="#000000" stroke="#000000" points="945.9165,-238.8616 935.392,-240.0803 944.3793,-245.6907 945.9165,-238.8616"/>
</g>
<!-- sqlalchemy -->
<g id="node26" class="node">
<title>sqlalchemy</title>
<ellipse fill="#000000" stroke="#000000" cx="1619.5952" cy="-450" rx="59.5901" ry="18"/>
<text text-anchor="middle" x="1619.5952" y="-446.3" font-family="Times,serif" font-size="14.00" fill="#ffffff">sqlalchemy</text>
</g>
<!-- texlive&#45;core&#45;&gt;r&#45;base -->
<g id="edge31" class="edge">
<title>texlive&#45;core&#45;&gt;r&#45;base</title>
<path fill="none" stroke="#000000" d="M1355.4828,-72.2022C1349.6243,-63.5938 1342.4834,-53.1011 1336.0506,-43.6488"/>
<polygon fill="#000000" stroke="#000000" points="1338.9189,-41.6425 1330.3991,-35.3446 1333.1319,-45.5809 1338.9189,-41.6425"/>
</g>
<!-- unzip -->
<g id="node28" class="node">
<title>unzip</title>
<ellipse fill="#000000" stroke="#000000" cx="1732.5952" cy="-450" rx="35.194" ry="18"/>
<text text-anchor="middle" x="1732.5952" y="-446.3" font-family="Times,serif" font-size="14.00" fill="#ffffff">unzip</text>
</g>
<!-- libogg&#45;&gt;libsndfile -->
<g id="edge33" class="edge">
<title>libogg&#45;&gt;libsndfile</title>
<path fill="none" stroke="#000000" d="M1513.7218,-215.7623C1513.8924,-191.201 1514.1976,-147.2474 1514.3983,-118.3541"/>
<polygon fill="#000000" stroke="#000000" points="1517.8999,-118.1137 1514.4695,-108.0896 1510.9001,-118.065 1517.8999,-118.1137"/>
</g>
<!-- libvorbis -->
<g id="node31" class="node">
<title>libvorbis</title>
<ellipse fill="#fde725" stroke="#000000" cx="1431.5952" cy="-162" rx="54.6905" ry="18"/>
<text text-anchor="middle" x="1431.5952" y="-158.3" font-family="Times,serif" font-size="14.00" fill="#000000">libvorbis</text>
</g>
<!-- libogg&#45;&gt;libvorbis -->
<g id="edge34" class="edge">
<title>libogg&#45;&gt;libvorbis</title>
<path fill="none" stroke="#000000" d="M1494.9881,-217.6621C1484.2122,-208.2004 1470.4594,-196.1247 1458.5193,-185.6407"/>
<polygon fill="#000000" stroke="#000000" points="1460.8079,-182.9925 1450.9842,-179.0245 1456.1893,-188.2526 1460.8079,-182.9925"/>
</g>
<!-- libogg&#45;&gt;libflac -->
<g id="edge32" class="edge">
<title>libogg&#45;&gt;libflac</title>
<path fill="none" stroke="#000000" d="M1530.7582,-217.3008C1540.3095,-208.0077 1552.3646,-196.2784 1562.9122,-186.0158"/>
<polygon fill="#000000" stroke="#000000" points="1565.5423,-188.3402 1570.2688,-178.8581 1560.6608,-183.3231 1565.5423,-188.3402"/>
</g>
<!-- libvorbis&#45;&gt;libsndfile -->
<g id="edge35" class="edge">
<title>libvorbis&#45;&gt;libsndfile</title>
<path fill="none" stroke="#000000" d="M1451.265,-144.937C1461.9372,-135.6792 1475.302,-124.0857 1487,-113.9379"/>
<polygon fill="#000000" stroke="#000000" points="1489.5184,-116.3867 1494.7789,-107.19 1484.9315,-111.099 1489.5184,-116.3867"/>
</g>
<!-- libflac&#45;&gt;libsndfile -->
<g id="edge36" class="edge">
<title>libflac&#45;&gt;libsndfile</title>
<path fill="none" stroke="#000000" d="M1570.664,-145.3008C1561.3774,-136.1414 1549.6914,-124.6154 1539.3946,-114.4597"/>
<polygon fill="#000000" stroke="#000000" points="1541.7741,-111.8906 1532.1966,-107.3603 1536.8586,-116.8744 1541.7741,-111.8906"/>
</g>
<!-- lld -->
<g id="node33" class="node">
<title>lld</title>
<ellipse fill="#31688e" stroke="#000000" cx="1812.5952" cy="-450" rx="27" ry="18"/>
<text text-anchor="middle" x="1812.5952" y="-446.3" font-family="Times,serif" font-size="14.00" fill="#ffffff">lld</text>
</g>
<!-- autotools_clang_conda -->
<g id="node41" class="node">
<title>autotools_clang_conda</title>
<ellipse fill="#fde725" stroke="#000000" cx="1812.5952" cy="-378" rx="113.18" ry="18"/>
<text text-anchor="middle" x="1812.5952" y="-374.3" font-family="Times,serif" font-size="14.00" fill="#000000">autotools_clang_conda</text>
</g>
<!-- lld&#45;&gt;autotools_clang_conda -->
<g id="edge37" class="edge">
<title>lld&#45;&gt;autotools_clang_conda</title>
<path fill="none" stroke="#000000" d="M1812.5952,-431.8314C1812.5952,-424.131 1812.5952,-414.9743 1812.5952,-406.4166"/>
<polygon fill="#000000" stroke="#000000" points="1816.0953,-406.4132 1812.5952,-396.4133 1809.0953,-406.4133 1816.0953,-406.4132"/>
</g>
<!-- nspr -->
<g id="node35" class="node">
<title>nspr</title>
<ellipse fill="#31688e" stroke="#000000" cx="1120.5952" cy="-450" rx="30.5947" ry="18"/>
<text text-anchor="middle" x="1120.5952" y="-446.3" font-family="Times,serif" font-size="14.00" fill="#ffffff">nspr</text>
</g>
<!-- nspr&#45;&gt;qt -->
<g id="edge39" class="edge">
<title>nspr&#45;&gt;qt</title>
<path fill="none" stroke="#000000" d="M1145.4961,-439.115C1162.46,-430.2136 1183.5891,-415.848 1193.5952,-396 1200.7978,-381.7129 1199.7858,-374.7538 1193.5952,-360 1187.8602,-346.3322 1176.7914,-334.3826 1166.0782,-325.223"/>
<polygon fill="#000000" stroke="#000000" points="1168.0391,-322.3091 1158.0492,-318.7803 1163.6581,-327.7687 1168.0391,-322.3091"/>
</g>
<!-- nss -->
<g id="node36" class="node">
<title>nss</title>
<ellipse fill="#fde725" stroke="#000000" cx="1029.5952" cy="-378" rx="27" ry="18"/>
<text text-anchor="middle" x="1029.5952" y="-374.3" font-family="Times,serif" font-size="14.00" fill="#000000">nss</text>
</g>
<!-- nspr&#45;&gt;nss -->
<g id="edge38" class="edge">
<title>nspr&#45;&gt;nss</title>
<path fill="none" stroke="#000000" d="M1102.1799,-435.4297C1088.5958,-424.6819 1069.9476,-409.9272 1054.9547,-398.0647"/>
<polygon fill="#000000" stroke="#000000" points="1057.0707,-395.2758 1047.0567,-391.8158 1052.7273,-400.7654 1057.0707,-395.2758"/>
</g>
<!-- nss&#45;&gt;qt -->
<g id="edge40" class="edge">
<title>nss&#45;&gt;qt</title>
<path fill="none" stroke="#000000" d="M1048.8313,-365.2936C1066.0031,-353.9507 1091.3603,-337.201 1110.7478,-324.3946"/>
<polygon fill="#000000" stroke="#000000" points="1112.7698,-327.2536 1119.1847,-318.8216 1108.9116,-321.4128 1112.7698,-327.2536"/>
</g>
<!-- blas&#45;&gt;opencv -->
<g id="edge41" class="edge">
<title>blas&#45;&gt;opencv</title>
<path fill="none" stroke="#000000" d="M1297.2693,-288.2022C1300.3198,-280.0675 1304.0014,-270.2501 1307.3884,-261.2181"/>
<polygon fill="#000000" stroke="#000000" points="1310.6701,-262.4348 1310.9042,-251.8425 1304.1157,-259.9769 1310.6701,-262.4348"/>
</g>
<!-- afterimage -->
<g id="node38" class="node">
<title>afterimage</title>
<ellipse fill="#31688e" stroke="#000000" cx="906.5952" cy="-306" rx="59.5901" ry="18"/>
<text text-anchor="middle" x="906.5952" y="-302.3" font-family="Times,serif" font-size="14.00" fill="#ffffff">afterimage</text>
</g>
<!-- afterimage&#45;&gt;root -->
<g id="edge42" class="edge">
<title>afterimage&#45;&gt;root</title>
<path fill="none" stroke="#000000" d="M906.5952,-287.8314C906.5952,-280.131 906.5952,-270.9743 906.5952,-262.4166"/>
<polygon fill="#000000" stroke="#000000" points="910.0953,-262.4132 906.5952,-252.4133 903.0953,-262.4133 910.0953,-262.4132"/>
</g>
<!-- compilers -->
<g id="node40" class="node">
<title>compilers</title>
<ellipse fill="#31688e" stroke="#000000" cx="1038.5952" cy="-306" rx="54.6905" ry="18"/>
<text text-anchor="middle" x="1038.5952" y="-302.3" font-family="Times,serif" font-size="14.00" fill="#ffffff">compilers</text>
</g>
<!-- compilers&#45;&gt;root -->
<g id="edge43" class="edge">
<title>compilers&#45;&gt;root</title>
<path fill="none" stroke="#000000" d="M1010.2778,-290.5542C989.0668,-278.9845 960.0467,-263.1554 938.1024,-251.1857"/>
<polygon fill="#000000" stroke="#000000" points="939.6292,-248.0318 929.1742,-246.3159 936.2772,-254.1771 939.6292,-248.0318"/>
</g>
<!-- _libarchive_static_for_cph -->
<g id="node42" class="node">
<title>_libarchive_static_for_cph</title>
<ellipse fill="#31688e" stroke="#000000" cx="1995.5952" cy="-450" rx="137.5759" ry="18"/>
<text text-anchor="middle" x="1995.5952" y="-446.3" font-family="Times,serif" font-size="14.00" fill="#ffffff">_libarchive_static_for_cph</text>
</g>
</g>
</svg>
