<?xml version="1.0" encoding="UTF-8" standalone="no"?>
<!DOCTYPE svg PUBLIC "-//W3C//DTD SVG 1.1//EN"
 "http://www.w3.org/Graphics/SVG/1.1/DTD/svg11.dtd">
<!-- Generated by graphviz version 2.40.1 (20161225.0304)
 -->
<!-- Title: %3 Pages: 1 -->
<svg width="2183pt" height="548pt"
 viewBox="0.00 0.00 2183.19 548.00" xmlns="http://www.w3.org/2000/svg" xmlns:xlink="http://www.w3.org/1999/xlink">
<g id="graph0" class="graph" transform="scale(1 1) rotate(0) translate(4 544)">
<title>%3</title>
<polygon fill="#ffffff" stroke="transparent" points="-4,4 -4,-544 2179.1903,-544 2179.1903,4 -4,4"/>
<!-- arrow&#45;cpp -->
<g id="node1" class="node">
<title>arrow&#45;cpp</title>
<ellipse fill="#31688e" stroke="#000000" cx="54.5952" cy="-522" rx="54.6905" ry="18"/>
<text text-anchor="middle" x="54.5952" y="-518.3" font-family="Times,serif" font-size="14.00" fill="#ffffff">arrow cpp</text>
</g>
<!-- pyarrow -->
<g id="node26" class="node">
<title>pyarrow</title>
<ellipse fill="#fde725" stroke="#000000" cx="54.5952" cy="-450" rx="44.6926" ry="18"/>
<text text-anchor="middle" x="54.5952" y="-446.3" font-family="Times,serif" font-size="14.00" fill="#000000">pyarrow</text>
</g>
<!-- arrow&#45;cpp&#45;&gt;pyarrow -->
<g id="edge1" class="edge">
<title>arrow&#45;cpp&#45;&gt;pyarrow</title>
<path fill="none" stroke="#000000" d="M54.5952,-503.8314C54.5952,-496.131 54.5952,-486.9743 54.5952,-478.4166"/>
<polygon fill="#000000" stroke="#000000" points="58.0953,-478.4132 54.5952,-468.4133 51.0953,-478.4133 58.0953,-478.4132"/>
</g>
<!-- dill -->
<g id="node2" class="node">
<title>dill</title>
<ellipse fill="#fde725" stroke="#000000" cx="275.5952" cy="-450" rx="30.5947" ry="18"/>
<text text-anchor="middle" x="275.5952" y="-446.3" font-family="Times,serif" font-size="14.00" fill="#000000">dill</text>
</g>
<!-- multiprocess -->
<g id="node19" class="node">
<title>multiprocess</title>
<ellipse fill="#fde725" stroke="#000000" cx="275.5952" cy="-378" rx="69.5877" ry="18"/>
<text text-anchor="middle" x="275.5952" y="-374.3" font-family="Times,serif" font-size="14.00" fill="#000000">multiprocess</text>
</g>
<!-- dill&#45;&gt;multiprocess -->
<g id="edge2" class="edge">
<title>dill&#45;&gt;multiprocess</title>
<path fill="none" stroke="#000000" d="M275.5952,-431.8314C275.5952,-424.131 275.5952,-414.9743 275.5952,-406.4166"/>
<polygon fill="#000000" stroke="#000000" points="279.0953,-406.4132 275.5952,-396.4133 272.0953,-406.4133 279.0953,-406.4132"/>
</g>
<!-- future -->
<g id="node3" class="node">
<title>future</title>
<ellipse fill="#000000" stroke="#000000" cx="157.5952" cy="-450" rx="40.0939" ry="18"/>
<text text-anchor="middle" x="157.5952" y="-446.3" font-family="Times,serif" font-size="14.00" fill="#ffffff">future</text>
</g>
<!-- osqp -->
<g id="node44" class="node">
<title>osqp</title>
<ellipse fill="#fde725" stroke="#000000" cx="157.5952" cy="-378" rx="30.5947" ry="18"/>
<text text-anchor="middle" x="157.5952" y="-374.3" font-family="Times,serif" font-size="14.00" fill="#000000">osqp</text>
</g>
<!-- future&#45;&gt;osqp -->
<g id="edge3" class="edge">
<title>future&#45;&gt;osqp</title>
<path fill="none" stroke="#000000" d="M157.5952,-431.8314C157.5952,-424.131 157.5952,-414.9743 157.5952,-406.4166"/>
<polygon fill="#000000" stroke="#000000" points="161.0953,-406.4132 157.5952,-396.4133 154.0953,-406.4133 161.0953,-406.4132"/>
</g>
<!-- gevent -->
<g id="node4" class="node">
<title>gevent</title>
<ellipse fill="#31688e" stroke="#000000" cx="1586.5952" cy="-522" rx="40.0939" ry="18"/>
<text text-anchor="middle" x="1586.5952" y="-518.3" font-family="Times,serif" font-size="14.00" fill="#ffffff">gevent</text>
</g>
<!-- glew -->
<g id="node5" class="node">
<title>glew</title>
<ellipse fill="#fde725" stroke="#000000" cx="1102.5952" cy="-378" rx="30.5947" ry="18"/>
<text text-anchor="middle" x="1102.5952" y="-374.3" font-family="Times,serif" font-size="14.00" fill="#000000">glew</text>
</g>
<!-- root -->
<g id="node48" class="node">
<title>root</title>
<ellipse fill="#fde725" stroke="#000000" cx="1055.5952" cy="-306" rx="30.5947" ry="18"/>
<text text-anchor="middle" x="1055.5952" y="-302.3" font-family="Times,serif" font-size="14.00" fill="#000000">root</text>
</g>
<!-- glew&#45;&gt;root -->
<g id="edge4" class="edge">
<title>glew&#45;&gt;root</title>
<path fill="none" stroke="#000000" d="M1091.4568,-360.937C1085.7206,-352.1496 1078.6107,-341.2579 1072.2381,-331.4956"/>
<polygon fill="#000000" stroke="#000000" points="1075.0507,-329.4011 1066.6535,-322.9405 1069.189,-333.2275 1075.0507,-329.4011"/>
</g>
<!-- gmpy2 -->
<g id="node6" class="node">
<title>gmpy2</title>
<ellipse fill="#fde725" stroke="#000000" cx="1134.5952" cy="-90" rx="35.194" ry="18"/>
<text text-anchor="middle" x="1134.5952" y="-86.3" font-family="Times,serif" font-size="14.00" fill="#000000">gmpy2</text>
</g>
<!-- sympy -->
<g id="node32" class="node">
<title>sympy</title>
<ellipse fill="#fde725" stroke="#000000" cx="1134.5952" cy="-18" rx="35.194" ry="18"/>
<text text-anchor="middle" x="1134.5952" y="-14.3" font-family="Times,serif" font-size="14.00" fill="#000000">sympy</text>
</g>
<!-- gmpy2&#45;&gt;sympy -->
<g id="edge5" class="edge">
<title>gmpy2&#45;&gt;sympy</title>
<path fill="none" stroke="#000000" d="M1134.5952,-71.8314C1134.5952,-64.131 1134.5952,-54.9743 1134.5952,-46.4166"/>
<polygon fill="#000000" stroke="#000000" points="1138.0953,-46.4132 1134.5952,-36.4133 1131.0953,-46.4133 1138.0953,-46.4132"/>
</g>
<!-- gstreamer -->
<g id="node7" class="node">
<title>gstreamer</title>
<ellipse fill="#31688e" stroke="#000000" cx="1591.5952" cy="-450" rx="54.6905" ry="18"/>
<text text-anchor="middle" x="1591.5952" y="-446.3" font-family="Times,serif" font-size="14.00" fill="#ffffff">gstreamer</text>
</g>
<!-- qt -->
<g id="node29" class="node">
<title>qt</title>
<ellipse fill="#fde725" stroke="#000000" cx="1452.5952" cy="-378" rx="27" ry="18"/>
<text text-anchor="middle" x="1452.5952" y="-374.3" font-family="Times,serif" font-size="14.00" fill="#000000">qt</text>
</g>
<!-- gstreamer&#45;&gt;qt -->
<g id="edge6" class="edge">
<title>gstreamer&#45;&gt;qt</title>
<path fill="none" stroke="#000000" d="M1562.1168,-434.7307C1539.0031,-422.7581 1506.9306,-406.145 1483.4666,-393.991"/>
<polygon fill="#000000" stroke="#000000" points="1484.7937,-390.7367 1474.3044,-389.2451 1481.574,-396.9524 1484.7937,-390.7367"/>
</g>
<!-- hdf5 -->
<g id="node8" class="node">
<title>hdf5</title>
<ellipse fill="#000000" stroke="#000000" cx="662.5952" cy="-378" rx="30.5947" ry="18"/>
<text text-anchor="middle" x="662.5952" y="-374.3" font-family="Times,serif" font-size="14.00" fill="#ffffff">hdf5</text>
</g>
<!-- opencv -->
<g id="node22" class="node">
<title>opencv</title>
<ellipse fill="#fde725" stroke="#000000" cx="708.5952" cy="-306" rx="40.0939" ry="18"/>
<text text-anchor="middle" x="708.5952" y="-302.3" font-family="Times,serif" font-size="14.00" fill="#000000">opencv</text>
</g>
<!-- hdf5&#45;&gt;opencv -->
<g id="edge7" class="edge">
<title>hdf5&#45;&gt;opencv</title>
<path fill="none" stroke="#000000" d="M673.4965,-360.937C679.0293,-352.277 685.8679,-341.5731 692.0347,-331.9207"/>
<polygon fill="#000000" stroke="#000000" points="695.018,-333.752 697.4525,-323.4407 689.1191,-329.9833 695.018,-333.752"/>
</g>
<!-- ipyparallel -->
<g id="node9" class="node">
<title>ipyparallel</title>
<ellipse fill="#31688e" stroke="#000000" cx="1215.5952" cy="-378" rx="64.189" ry="18"/>
<text text-anchor="middle" x="1215.5952" y="-374.3" font-family="Times,serif" font-size="14.00" fill="#ffffff">ipyparallel</text>
</g>
<!-- ipyparallel&#45;&gt;root -->
<g id="edge8" class="edge">
<title>ipyparallel&#45;&gt;root</title>
<path fill="none" stroke="#000000" d="M1181.2711,-362.5542C1154.1203,-350.3363 1116.4136,-333.3683 1089.3988,-321.2117"/>
<polygon fill="#000000" stroke="#000000" points="1090.5247,-317.8803 1079.9691,-316.9683 1087.6521,-324.2637 1090.5247,-317.8803"/>
</g>
<!-- ipython -->
<g id="node10" class="node">
<title>ipython</title>
<ellipse fill="#000000" stroke="#000000" cx="1088.5952" cy="-450" rx="44.6926" ry="18"/>
<text text-anchor="middle" x="1088.5952" y="-446.3" font-family="Times,serif" font-size="14.00" fill="#ffffff">ipython</text>
</g>
<!-- ipython&#45;&gt;ipyparallel -->
<g id="edge9" class="edge">
<title>ipython&#45;&gt;ipyparallel</title>
<path fill="none" stroke="#000000" d="M1114.602,-435.256C1132.9342,-424.8629 1157.7619,-410.7873 1178.2127,-399.1932"/>
<polygon fill="#000000" stroke="#000000" points="1179.9959,-402.2057 1186.9689,-394.229 1176.5435,-396.1162 1179.9959,-402.2057"/>
</g>
<!-- jupyter_client -->
<g id="node11" class="node">
<title>jupyter_client</title>
<ellipse fill="#31688e" stroke="#000000" cx="1230.5952" cy="-450" rx="79.0865" ry="18"/>
<text text-anchor="middle" x="1230.5952" y="-446.3" font-family="Times,serif" font-size="14.00" fill="#ffffff">jupyter_client</text>
</g>
<!-- jupyter_client&#45;&gt;ipyparallel -->
<g id="edge10" class="edge">
<title>jupyter_client&#45;&gt;ipyparallel</title>
<path fill="none" stroke="#000000" d="M1226.81,-431.8314C1225.2058,-424.131 1223.2981,-414.9743 1221.5153,-406.4166"/>
<polygon fill="#000000" stroke="#000000" points="1224.8973,-405.4892 1219.4313,-396.4133 1218.0444,-406.9169 1224.8973,-405.4892"/>
</g>
<!-- nbconvert -->
<g id="node20" class="node">
<title>nbconvert</title>
<ellipse fill="#000000" stroke="#000000" cx="1352.5952" cy="-378" rx="54.6905" ry="18"/>
<text text-anchor="middle" x="1352.5952" y="-374.3" font-family="Times,serif" font-size="14.00" fill="#ffffff">nbconvert</text>
</g>
<!-- jupyter_client&#45;&gt;nbconvert -->
<g id="edge11" class="edge">
<title>jupyter_client&#45;&gt;nbconvert</title>
<path fill="none" stroke="#000000" d="M1259.1987,-433.1192C1276.5088,-422.9034 1298.722,-409.794 1317.142,-398.9232"/>
<polygon fill="#000000" stroke="#000000" points="1319.0086,-401.8857 1325.8418,-393.7889 1315.4508,-395.8572 1319.0086,-401.8857"/>
</g>
<!-- libglu -->
<g id="node12" class="node">
<title>libglu</title>
<ellipse fill="#31688e" stroke="#000000" cx="985.5952" cy="-450" rx="40.0939" ry="18"/>
<text text-anchor="middle" x="985.5952" y="-446.3" font-family="Times,serif" font-size="14.00" fill="#ffffff">libglu</text>
</g>
<!-- libglu&#45;&gt;glew -->
<g id="edge13" class="edge">
<title>libglu&#45;&gt;glew</title>
<path fill="none" stroke="#000000" d="M1009.2719,-435.4297C1027.5697,-424.1695 1053.0141,-408.5114 1072.7135,-396.3887"/>
<polygon fill="#000000" stroke="#000000" points="1074.6318,-399.3179 1081.314,-391.0961 1070.9631,-393.3563 1074.6318,-399.3179"/>
</g>
<!-- freeglut -->
<g id="node35" class="node">
<title>freeglut</title>
<ellipse fill="#fde725" stroke="#000000" cx="965.5952" cy="-378" rx="50.0912" ry="18"/>
<text text-anchor="middle" x="965.5952" y="-374.3" font-family="Times,serif" font-size="14.00" fill="#000000">freeglut</text>
</g>
<!-- libglu&#45;&gt;freeglut -->
<g id="edge12" class="edge">
<title>libglu&#45;&gt;freeglut</title>
<path fill="none" stroke="#000000" d="M980.5483,-431.8314C978.3525,-423.9266 975.7305,-414.4872 973.2997,-405.7365"/>
<polygon fill="#000000" stroke="#000000" points="976.6199,-404.6118 970.5711,-395.9134 969.8753,-406.4854 976.6199,-404.6118"/>
</g>
<!-- libglu&#45;&gt;root -->
<g id="edge14" class="edge">
<title>libglu&#45;&gt;root</title>
<path fill="none" stroke="#000000" d="M999.9824,-432.8544C1008.0281,-422.6392 1017.7781,-409.1392 1024.5952,-396 1034.95,-376.042 1043.0545,-351.8771 1048.3758,-333.6141"/>
<polygon fill="#000000" stroke="#000000" points="1051.7753,-334.4541 1051.1127,-323.88 1045.0366,-332.5593 1051.7753,-334.4541"/>
</g>
<!-- libsndfile -->
<g id="node13" class="node">
<title>libsndfile</title>
<ellipse fill="#fde725" stroke="#000000" cx="796.5952" cy="-162" rx="59.5901" ry="18"/>
<text text-anchor="middle" x="796.5952" y="-158.3" font-family="Times,serif" font-size="14.00" fill="#000000">libsndfile</text>
</g>
<!-- r&#45;base -->
<g id="node30" class="node">
<title>r&#45;base</title>
<ellipse fill="#fde725" stroke="#000000" cx="870.5952" cy="-90" rx="40.0939" ry="18"/>
<text text-anchor="middle" x="870.5952" y="-86.3" font-family="Times,serif" font-size="14.00" fill="#000000">r base</text>
</g>
<!-- libsndfile&#45;&gt;r&#45;base -->
<g id="edge15" class="edge">
<title>libsndfile&#45;&gt;r&#45;base</title>
<path fill="none" stroke="#000000" d="M814.5085,-144.5708C824.0773,-135.2607 835.9914,-123.6686 846.3747,-113.5659"/>
<polygon fill="#000000" stroke="#000000" points="848.8828,-116.0089 853.6094,-106.5267 844.0013,-110.9918 848.8828,-116.0089"/>
</g>
<!-- llvmlite -->
<g id="node14" class="node">
<title>llvmlite</title>
<ellipse fill="#31688e" stroke="#000000" cx="1699.5952" cy="-522" rx="50.0912" ry="18"/>
<text text-anchor="middle" x="1699.5952" y="-518.3" font-family="Times,serif" font-size="14.00" fill="#ffffff">llvmlite</text>
</g>
<!-- numba -->
<g id="node40" class="node">
<title>numba</title>
<ellipse fill="#fde725" stroke="#000000" cx="1699.5952" cy="-450" rx="35.194" ry="18"/>
<text text-anchor="middle" x="1699.5952" y="-446.3" font-family="Times,serif" font-size="14.00" fill="#000000">numba</text>
</g>
<!-- llvmlite&#45;&gt;numba -->
<g id="edge16" class="edge">
<title>llvmlite&#45;&gt;numba</title>
<path fill="none" stroke="#000000" d="M1699.5952,-503.8314C1699.5952,-496.131 1699.5952,-486.9743 1699.5952,-478.4166"/>
<polygon fill="#000000" stroke="#000000" points="1703.0953,-478.4132 1699.5952,-468.4133 1696.0953,-478.4133 1703.0953,-478.4132"/>
</g>
<!-- matplotlib -->
<g id="node15" class="node">
<title>matplotlib</title>
<ellipse fill="#fde725" stroke="#000000" cx="1452.5952" cy="-234" rx="59.5901" ry="18"/>
<text text-anchor="middle" x="1452.5952" y="-230.3" font-family="Times,serif" font-size="14.00" fill="#000000">matplotlib</text>
</g>
<!-- mpc -->
<g id="node16" class="node">
<title>mpc</title>
<ellipse fill="#fde725" stroke="#000000" cx="1134.5952" cy="-162" rx="27" ry="18"/>
<text text-anchor="middle" x="1134.5952" y="-158.3" font-family="Times,serif" font-size="14.00" fill="#000000">mpc</text>
</g>
<!-- mpc&#45;&gt;gmpy2 -->
<g id="edge17" class="edge">
<title>mpc&#45;&gt;gmpy2</title>
<path fill="none" stroke="#000000" d="M1134.5952,-143.8314C1134.5952,-136.131 1134.5952,-126.9743 1134.5952,-118.4166"/>
<polygon fill="#000000" stroke="#000000" points="1138.0953,-118.4132 1134.5952,-108.4133 1131.0953,-118.4133 1138.0953,-118.4132"/>
</g>
<!-- mpfr -->
<g id="node17" class="node">
<title>mpfr</title>
<ellipse fill="#fde725" stroke="#000000" cx="1077.5952" cy="-234" rx="30.5947" ry="18"/>
<text text-anchor="middle" x="1077.5952" y="-230.3" font-family="Times,serif" font-size="14.00" fill="#000000">mpfr</text>
</g>
<!-- mpfr&#45;&gt;gmpy2 -->
<g id="edge18" class="edge">
<title>mpfr&#45;&gt;gmpy2</title>
<path fill="none" stroke="#000000" d="M1079.8841,-215.8102C1082.6713,-197.1908 1088.3311,-167.7053 1098.5952,-144 1102.8931,-134.0739 1109.03,-123.9986 1115.0224,-115.2819"/>
<polygon fill="#000000" stroke="#000000" points="1117.9223,-117.2437 1120.8931,-107.0739 1112.2287,-113.1714 1117.9223,-117.2437"/>
</g>
<!-- mpfr&#45;&gt;mpc -->
<g id="edge19" class="edge">
<title>mpfr&#45;&gt;mpc</title>
<path fill="none" stroke="#000000" d="M1090.5293,-217.6621C1097.89,-208.3644 1107.249,-196.5426 1115.4469,-186.1873"/>
<polygon fill="#000000" stroke="#000000" points="1118.2493,-188.2862 1121.7122,-178.2733 1112.7609,-183.9413 1118.2493,-188.2862"/>
</g>
<!-- mpfr&#45;&gt;r&#45;base -->
<g id="edge20" class="edge">
<title>mpfr&#45;&gt;r&#45;base</title>
<path fill="none" stroke="#000000" d="M1071.0336,-216.2796C1062.7033,-196.0883 1046.4812,-163.387 1022.5952,-144 992.6739,-119.7145 951.0012,-105.9347 918.856,-98.3834"/>
<polygon fill="#000000" stroke="#000000" points="919.302,-94.8972 908.781,-96.1451 917.7839,-101.7306 919.302,-94.8972"/>
</g>
<!-- texlive&#45;core -->
<g id="node33" class="node">
<title>texlive&#45;core</title>
<ellipse fill="#fde725" stroke="#000000" cx="943.5952" cy="-162" rx="69.5877" ry="18"/>
<text text-anchor="middle" x="943.5952" y="-158.3" font-family="Times,serif" font-size="14.00" fill="#000000">texlive core</text>
</g>
<!-- mpfr&#45;&gt;texlive&#45;core -->
<g id="edge21" class="edge">
<title>mpfr&#45;&gt;texlive&#45;core</title>
<path fill="none" stroke="#000000" d="M1054.8639,-221.7862C1035.22,-211.2312 1006.3864,-195.7386 982.9933,-183.1691"/>
<polygon fill="#000000" stroke="#000000" points="984.4648,-179.9866 973.9992,-178.3365 981.1515,-186.1528 984.4648,-179.9866"/>
</g>
<!-- mpir -->
<g id="node18" class="node">
<title>mpir</title>
<ellipse fill="#31688e" stroke="#000000" cx="1136.5952" cy="-306" rx="30.5947" ry="18"/>
<text text-anchor="middle" x="1136.5952" y="-302.3" font-family="Times,serif" font-size="14.00" fill="#ffffff">mpir</text>
</g>
<!-- mpir&#45;&gt;gmpy2 -->
<g id="edge22" class="edge">
<title>mpir&#45;&gt;gmpy2</title>
<path fill="none" stroke="#000000" d="M1145.8314,-288.7269C1160.5761,-258.838 1186.2513,-195.7088 1170.5952,-144 1167.4607,-133.6475 1161.6145,-123.4656 1155.5313,-114.7822"/>
<polygon fill="#000000" stroke="#000000" points="1158.2465,-112.5685 1149.4607,-106.6475 1152.6365,-116.7551 1158.2465,-112.5685"/>
</g>
<!-- mpir&#45;&gt;mpc -->
<g id="edge23" class="edge">
<title>mpir&#45;&gt;mpc</title>
<path fill="none" stroke="#000000" d="M1136.3419,-287.7623C1136.0007,-263.201 1135.3903,-219.2474 1134.989,-190.3541"/>
<polygon fill="#000000" stroke="#000000" points="1138.485,-190.04 1134.8464,-180.0896 1131.4857,-190.1373 1138.485,-190.04"/>
</g>
<!-- mpir&#45;&gt;mpfr -->
<g id="edge24" class="edge">
<title>mpir&#45;&gt;mpfr</title>
<path fill="none" stroke="#000000" d="M1123.2071,-289.6621C1115.5882,-280.3644 1105.9009,-268.5426 1097.4153,-258.1873"/>
<polygon fill="#000000" stroke="#000000" points="1099.9756,-255.7897 1090.9302,-250.2733 1094.5613,-260.2265 1099.9756,-255.7897"/>
</g>
<!-- cvxpy -->
<g id="node47" class="node">
<title>cvxpy</title>
<ellipse fill="#fde725" stroke="#000000" cx="334.5952" cy="-306" rx="35.194" ry="18"/>
<text text-anchor="middle" x="334.5952" y="-302.3" font-family="Times,serif" font-size="14.00" fill="#000000">cvxpy</text>
</g>
<!-- multiprocess&#45;&gt;cvxpy -->
<g id="edge25" class="edge">
<title>multiprocess&#45;&gt;cvxpy</title>
<path fill="none" stroke="#000000" d="M290.1794,-360.2022C297.5375,-351.223 306.5756,-340.1934 314.5736,-330.4331"/>
<polygon fill="#000000" stroke="#000000" points="317.3565,-332.559 320.9876,-322.6058 311.9422,-328.1222 317.3565,-332.559"/>
</g>
<!-- openblas -->
<g id="node21" class="node">
<title>openblas</title>
<ellipse fill="#000000" stroke="#000000" cx="583.5952" cy="-450" rx="50.0912" ry="18"/>
<text text-anchor="middle" x="583.5952" y="-446.3" font-family="Times,serif" font-size="14.00" fill="#ffffff">openblas</text>
</g>
<!-- openblas&#45;&gt;opencv -->
<g id="edge27" class="edge">
<title>openblas&#45;&gt;opencv</title>
<path fill="none" stroke="#000000" d="M628.0097,-441.6779C654.2039,-434.3104 685.4808,-420.7133 702.5952,-396 715.0071,-378.077 715.6937,-353.0309 713.7373,-333.9098"/>
<polygon fill="#000000" stroke="#000000" points="717.2057,-333.4399 712.4361,-323.9794 710.265,-334.3494 717.2057,-333.4399"/>
</g>
<!-- openblas&#45;&gt;r&#45;base -->
<g id="edge28" class="edge">
<title>openblas&#45;&gt;r&#45;base</title>
<path fill="none" stroke="#000000" d="M567.7928,-432.7382C559.4111,-422.6967 549.6269,-409.4058 543.5952,-396 526.8207,-358.7183 524.5952,-346.8816 524.5952,-306 524.5952,-306 524.5952,-306 524.5952,-234 524.5952,-169.9678 729.1315,-119.2742 823.6846,-99.2606"/>
<polygon fill="#000000" stroke="#000000" points="824.4943,-102.6671 833.5671,-97.1959 823.0626,-95.815 824.4943,-102.6671"/>
</g>
<!-- blas -->
<g id="node43" class="node">
<title>blas</title>
<ellipse fill="#000000" stroke="#000000" cx="583.5952" cy="-378" rx="30.5947" ry="18"/>
<text text-anchor="middle" x="583.5952" y="-374.3" font-family="Times,serif" font-size="14.00" fill="#ffffff">blas</text>
</g>
<!-- openblas&#45;&gt;blas -->
<g id="edge26" class="edge">
<title>openblas&#45;&gt;blas</title>
<path fill="none" stroke="#000000" d="M583.5952,-431.8314C583.5952,-424.131 583.5952,-414.9743 583.5952,-406.4166"/>
<polygon fill="#000000" stroke="#000000" points="587.0953,-406.4132 583.5952,-396.4133 580.0953,-406.4133 587.0953,-406.4132"/>
</g>
<!-- scs -->
<g id="node46" class="node">
<title>scs</title>
<ellipse fill="#fde725" stroke="#000000" cx="469.5952" cy="-378" rx="27" ry="18"/>
<text text-anchor="middle" x="469.5952" y="-374.3" font-family="Times,serif" font-size="14.00" fill="#000000">scs</text>
</g>
<!-- openblas&#45;&gt;scs -->
<g id="edge30" class="edge">
<title>openblas&#45;&gt;scs</title>
<path fill="none" stroke="#000000" d="M558.5774,-434.1993C540.6658,-422.8867 516.5247,-407.6397 497.9069,-395.8811"/>
<polygon fill="#000000" stroke="#000000" points="499.5863,-392.8022 489.2624,-390.4214 495.8483,-398.7206 499.5863,-392.8022"/>
</g>
<!-- openblas&#45;&gt;root -->
<g id="edge29" class="edge">
<title>openblas&#45;&gt;root</title>
<path fill="none" stroke="#000000" d="M631.3304,-444.2668C701.3081,-435.3077 827.8518,-416.8408 868.5952,-396 889.3073,-385.4055 886.7986,-372.2202 906.5952,-360 941.454,-338.482 986.1644,-323.728 1017.4764,-315.1486"/>
<polygon fill="#000000" stroke="#000000" points="1018.3771,-318.5308 1027.1424,-312.5793 1016.5788,-311.7657 1018.3771,-318.5308"/>
</g>
<!-- pandoc -->
<g id="node23" class="node">
<title>pandoc</title>
<ellipse fill="#000000" stroke="#000000" cx="1368.5952" cy="-450" rx="40.0939" ry="18"/>
<text text-anchor="middle" x="1368.5952" y="-446.3" font-family="Times,serif" font-size="14.00" fill="#ffffff">pandoc</text>
</g>
<!-- pandoc&#45;&gt;nbconvert -->
<g id="edge31" class="edge">
<title>pandoc&#45;&gt;nbconvert</title>
<path fill="none" stroke="#000000" d="M1364.5577,-431.8314C1362.8465,-424.131 1360.8117,-414.9743 1358.91,-406.4166"/>
<polygon fill="#000000" stroke="#000000" points="1362.273,-405.4159 1356.687,-396.4133 1355.4397,-406.9344 1362.273,-405.4159"/>
</g>
<!-- pkgconfig -->
<g id="node24" class="node">
<title>pkgconfig</title>
<ellipse fill="#000000" stroke="#000000" cx="804.5952" cy="-378" rx="54.6905" ry="18"/>
<text text-anchor="middle" x="804.5952" y="-374.3" font-family="Times,serif" font-size="14.00" fill="#ffffff">pkgconfig</text>
</g>
<!-- pkgconfig&#45;&gt;opencv -->
<g id="edge34" class="edge">
<title>pkgconfig&#45;&gt;opencv</title>
<path fill="none" stroke="#000000" d="M782.3295,-361.3008C768.9945,-351.2995 751.8973,-338.4766 737.5244,-327.697"/>
<polygon fill="#000000" stroke="#000000" points="739.5258,-324.823 729.4257,-321.6229 735.3257,-330.423 739.5258,-324.823"/>
</g>
<!-- libogg -->
<g id="node36" class="node">
<title>libogg</title>
<ellipse fill="#31688e" stroke="#000000" cx="844.5952" cy="-306" rx="40.0939" ry="18"/>
<text text-anchor="middle" x="844.5952" y="-302.3" font-family="Times,serif" font-size="14.00" fill="#ffffff">libogg</text>
</g>
<!-- pkgconfig&#45;&gt;libogg -->
<g id="edge33" class="edge">
<title>pkgconfig&#45;&gt;libogg</title>
<path fill="none" stroke="#000000" d="M814.4828,-360.2022C819.1329,-351.832 824.7728,-341.6802 829.9087,-332.4356"/>
<polygon fill="#000000" stroke="#000000" points="833.0243,-334.0344 834.8213,-323.593 826.9052,-330.6348 833.0243,-334.0344"/>
</g>
<!-- libflac -->
<g id="node38" class="node">
<title>libflac</title>
<ellipse fill="#fde725" stroke="#000000" cx="771.5952" cy="-234" rx="44.6926" ry="18"/>
<text text-anchor="middle" x="771.5952" y="-230.3" font-family="Times,serif" font-size="14.00" fill="#000000">libflac</text>
</g>
<!-- pkgconfig&#45;&gt;libflac -->
<g id="edge32" class="edge">
<title>pkgconfig&#45;&gt;libflac</title>
<path fill="none" stroke="#000000" d="M800.4157,-359.7623C794.7623,-335.0928 784.6255,-290.8598 778.0057,-261.9731"/>
<polygon fill="#000000" stroke="#000000" points="781.3861,-261.0551 775.7407,-252.0896 774.563,-262.6188 781.3861,-261.0551"/>
</g>
<!-- pkgconfig&#45;&gt;root -->
<g id="edge35" class="edge">
<title>pkgconfig&#45;&gt;root</title>
<path fill="none" stroke="#000000" d="M846.0427,-366.1107C893.9392,-352.3714 972.0644,-329.961 1018.1811,-316.7323"/>
<polygon fill="#000000" stroke="#000000" points="1019.4211,-320.0178 1028.0684,-313.8961 1017.4909,-313.2892 1019.4211,-320.0178"/>
</g>
<!-- protobuf -->
<g id="node25" class="node">
<title>protobuf</title>
<ellipse fill="#fde725" stroke="#000000" cx="1802.5952" cy="-450" rx="50.0912" ry="18"/>
<text text-anchor="middle" x="1802.5952" y="-446.3" font-family="Times,serif" font-size="14.00" fill="#000000">protobuf</text>
</g>
<!-- pyqt -->
<g id="node27" class="node">
<title>pyqt</title>
<ellipse fill="#fde725" stroke="#000000" cx="1452.5952" cy="-306" rx="30.5947" ry="18"/>
<text text-anchor="middle" x="1452.5952" y="-302.3" font-family="Times,serif" font-size="14.00" fill="#000000">pyqt</text>
</g>
<!-- pyqt&#45;&gt;matplotlib -->
<g id="edge36" class="edge">
<title>pyqt&#45;&gt;matplotlib</title>
<path fill="none" stroke="#000000" d="M1452.5952,-287.8314C1452.5952,-280.131 1452.5952,-270.9743 1452.5952,-262.4166"/>
<polygon fill="#000000" stroke="#000000" points="1456.0953,-262.4132 1452.5952,-252.4133 1449.0953,-262.4133 1456.0953,-262.4132"/>
</g>
<!-- pyreadline -->
<g id="node28" class="node">
<title>pyreadline</title>
<ellipse fill="#31688e" stroke="#000000" cx="275.5952" cy="-522" rx="59.5901" ry="18"/>
<text text-anchor="middle" x="275.5952" y="-518.3" font-family="Times,serif" font-size="14.00" fill="#ffffff">pyreadline</text>
</g>
<!-- pyreadline&#45;&gt;dill -->
<g id="edge37" class="edge">
<title>pyreadline&#45;&gt;dill</title>
<path fill="none" stroke="#000000" d="M275.5952,-503.8314C275.5952,-496.131 275.5952,-486.9743 275.5952,-478.4166"/>
<polygon fill="#000000" stroke="#000000" points="279.0953,-478.4132 275.5952,-468.4133 272.0953,-478.4133 279.0953,-478.4132"/>
</g>
<!-- qt&#45;&gt;opencv -->
<g id="edge38" class="edge">
<title>qt&#45;&gt;opencv</title>
<path fill="none" stroke="#000000" d="M1432.2226,-366.033C1427.2604,-363.6252 1421.8613,-361.4053 1416.5952,-360 1149.479,-288.7191 1069.6911,-360.1028 795.5952,-324 782.0689,-322.2184 767.5034,-319.519 754.2317,-316.7488"/>
<polygon fill="#000000" stroke="#000000" points="754.8857,-313.3095 744.3735,-314.6306 753.4151,-320.1533 754.8857,-313.3095"/>
</g>
<!-- qt&#45;&gt;pyqt -->
<g id="edge39" class="edge">
<title>qt&#45;&gt;pyqt</title>
<path fill="none" stroke="#000000" d="M1452.5952,-359.8314C1452.5952,-352.131 1452.5952,-342.9743 1452.5952,-334.4166"/>
<polygon fill="#000000" stroke="#000000" points="1456.0953,-334.4132 1452.5952,-324.4133 1449.0953,-334.4133 1456.0953,-334.4132"/>
</g>
<!-- qt&#45;&gt;root -->
<g id="edge40" class="edge">
<title>qt&#45;&gt;root</title>
<path fill="none" stroke="#000000" d="M1431.7823,-366.0533C1426.9289,-363.7065 1421.6873,-361.5076 1416.5952,-360 1279.3637,-319.3713 1234.7985,-361.1885 1096.5952,-324 1093.942,-323.2861 1091.2399,-322.4262 1088.553,-321.4742"/>
<polygon fill="#000000" stroke="#000000" points="1089.5908,-318.1215 1079.0035,-317.72 1087.0296,-324.6362 1089.5908,-318.1215"/>
</g>
<!-- sqlalchemy -->
<g id="node31" class="node">
<title>sqlalchemy</title>
<ellipse fill="#000000" stroke="#000000" cx="1915.5952" cy="-522" rx="59.5901" ry="18"/>
<text text-anchor="middle" x="1915.5952" y="-518.3" font-family="Times,serif" font-size="14.00" fill="#ffffff">sqlalchemy</text>
</g>
<!-- texlive&#45;core&#45;&gt;r&#45;base -->
<g id="edge41" class="edge">
<title>texlive&#45;core&#45;&gt;r&#45;base</title>
<path fill="none" stroke="#000000" d="M925.9239,-144.5708C916.6433,-135.4174 905.1264,-124.0582 895.0069,-114.0773"/>
<polygon fill="#000000" stroke="#000000" points="897.1785,-111.3032 887.601,-106.7729 892.263,-116.287 897.1785,-111.3032"/>
</g>
<!-- unzip -->
<g id="node34" class="node">
<title>unzip</title>
<ellipse fill="#000000" stroke="#000000" cx="1802.5952" cy="-522" rx="35.194" ry="18"/>
<text text-anchor="middle" x="1802.5952" y="-518.3" font-family="Times,serif" font-size="14.00" fill="#ffffff">unzip</text>
</g>
<!-- unzip&#45;&gt;protobuf -->
<g id="edge42" class="edge">
<title>unzip&#45;&gt;protobuf</title>
<path fill="none" stroke="#000000" d="M1802.5952,-503.8314C1802.5952,-496.131 1802.5952,-486.9743 1802.5952,-478.4166"/>
<polygon fill="#000000" stroke="#000000" points="1806.0953,-478.4132 1802.5952,-468.4133 1799.0953,-478.4133 1806.0953,-478.4132"/>
</g>
<!-- libogg&#45;&gt;libsndfile -->
<g id="edge44" class="edge">
<title>libogg&#45;&gt;libsndfile</title>
<path fill="none" stroke="#000000" d="M842.3343,-287.9931C839.6613,-269.5194 834.4221,-240.148 825.5952,-216 822.2146,-206.7519 817.4892,-197.1343 812.8327,-188.6226"/>
<polygon fill="#000000" stroke="#000000" points="815.8555,-186.8578 807.8738,-179.8904 809.7685,-190.3145 815.8555,-186.8578"/>
</g>
<!-- libvorbis -->
<g id="node37" class="node">
<title>libvorbis</title>
<ellipse fill="#fde725" stroke="#000000" cx="927.5952" cy="-234" rx="54.6905" ry="18"/>
<text text-anchor="middle" x="927.5952" y="-230.3" font-family="Times,serif" font-size="14.00" fill="#000000">libvorbis</text>
</g>
<!-- libogg&#45;&gt;libvorbis -->
<g id="edge45" class="edge">
<title>libogg&#45;&gt;libvorbis</title>
<path fill="none" stroke="#000000" d="M863.4291,-289.6621C874.3364,-280.2004 888.257,-268.1247 900.3427,-257.6407"/>
<polygon fill="#000000" stroke="#000000" points="902.7092,-260.2212 907.9697,-251.0245 898.1223,-254.9334 902.7092,-260.2212"/>
</g>
<!-- libogg&#45;&gt;libflac -->
<g id="edge43" class="edge">
<title>libogg&#45;&gt;libflac</title>
<path fill="none" stroke="#000000" d="M827.664,-289.3008C818.2418,-280.0077 806.3496,-268.2784 795.9445,-258.0158"/>
<polygon fill="#000000" stroke="#000000" points="798.2648,-255.3883 788.6874,-250.8581 793.3493,-260.3721 798.2648,-255.3883"/>
</g>
<!-- libvorbis&#45;&gt;libsndfile -->
<g id="edge46" class="edge">
<title>libvorbis&#45;&gt;libsndfile</title>
<path fill="none" stroke="#000000" d="M899.4924,-218.5542C880.5006,-208.116 855.2007,-194.2107 834.4407,-182.8006"/>
<polygon fill="#000000" stroke="#000000" points="836.0073,-179.6678 825.5578,-177.9184 832.6356,-185.8023 836.0073,-179.6678"/>
</g>
<!-- libflac&#45;&gt;libsndfile -->
<g id="edge47" class="edge">
<title>libflac&#45;&gt;libsndfile</title>
<path fill="none" stroke="#000000" d="M777.9037,-215.8314C780.6783,-207.8406 783.9973,-198.2819 787.0634,-189.4514"/>
<polygon fill="#000000" stroke="#000000" points="790.4014,-190.5082 790.3752,-179.9134 783.7887,-188.2121 790.4014,-190.5082"/>
</g>
<!-- lld -->
<g id="node39" class="node">
<title>lld</title>
<ellipse fill="#31688e" stroke="#000000" cx="2020.5952" cy="-522" rx="27" ry="18"/>
<text text-anchor="middle" x="2020.5952" y="-518.3" font-family="Times,serif" font-size="14.00" fill="#ffffff">lld</text>
</g>
<!-- autotools_clang_conda -->
<g id="node49" class="node">
<title>autotools_clang_conda</title>
<ellipse fill="#fde725" stroke="#000000" cx="2020.5952" cy="-450" rx="113.18" ry="18"/>
<text text-anchor="middle" x="2020.5952" y="-446.3" font-family="Times,serif" font-size="14.00" fill="#000000">autotools_clang_conda</text>
</g>
<!-- lld&#45;&gt;autotools_clang_conda -->
<g id="edge48" class="edge">
<title>lld&#45;&gt;autotools_clang_conda</title>
<path fill="none" stroke="#000000" d="M2020.5952,-503.8314C2020.5952,-496.131 2020.5952,-486.9743 2020.5952,-478.4166"/>
<polygon fill="#000000" stroke="#000000" points="2024.0953,-478.4132 2020.5952,-468.4133 2017.0953,-478.4133 2024.0953,-478.4132"/>
</g>
<!-- nspr -->
<g id="node41" class="node">
<title>nspr</title>
<ellipse fill="#31688e" stroke="#000000" cx="1464.5952" cy="-522" rx="30.5947" ry="18"/>
<text text-anchor="middle" x="1464.5952" y="-518.3" font-family="Times,serif" font-size="14.00" fill="#ffffff">nspr</text>
</g>
<!-- nspr&#45;&gt;qt -->
<g id="edge50" class="edge">
<title>nspr&#45;&gt;qt</title>
<path fill="none" stroke="#000000" d="M1460.9991,-504.0793C1459.0504,-493.6057 1456.8004,-480.1057 1455.5952,-468 1453.5461,-447.4195 1452.8137,-424.0752 1452.5843,-406.3196"/>
<polygon fill="#000000" stroke="#000000" points="1456.0843,-406.2884 1452.5002,-396.3182 1449.0845,-406.3474 1456.0843,-406.2884"/>
</g>
<!-- nss -->
<g id="node42" class="node">
<title>nss</title>
<ellipse fill="#fde725" stroke="#000000" cx="1491.5952" cy="-450" rx="27" ry="18"/>
<text text-anchor="middle" x="1491.5952" y="-446.3" font-family="Times,serif" font-size="14.00" fill="#000000">nss</text>
</g>
<!-- nspr&#45;&gt;nss -->
<g id="edge49" class="edge">
<title>nspr&#45;&gt;nss</title>
<path fill="none" stroke="#000000" d="M1471.2693,-504.2022C1474.3428,-496.0064 1478.0568,-486.1024 1481.4647,-477.0145"/>
<polygon fill="#000000" stroke="#000000" points="1484.7636,-478.1853 1484.9978,-467.593 1478.2093,-475.7274 1484.7636,-478.1853"/>
</g>
<!-- nss&#45;&gt;qt -->
<g id="edge51" class="edge">
<title>nss&#45;&gt;qt</title>
<path fill="none" stroke="#000000" d="M1482.3527,-432.937C1477.6414,-424.2393 1471.8135,-413.4799 1466.5673,-403.7948"/>
<polygon fill="#000000" stroke="#000000" points="1469.6117,-402.0664 1461.7713,-394.9405 1463.4566,-405.4005 1469.6117,-402.0664"/>
</g>
<!-- blas&#45;&gt;opencv -->
<g id="edge52" class="edge">
<title>blas&#45;&gt;opencv</title>
<path fill="none" stroke="#000000" d="M605.6549,-365.2936C624.8743,-354.2232 653.0349,-338.0027 675.0461,-325.3243"/>
<polygon fill="#000000" stroke="#000000" points="676.836,-328.3324 683.7544,-320.3083 673.3421,-322.2667 676.836,-328.3324"/>
</g>
<!-- osqp&#45;&gt;cvxpy -->
<g id="edge53" class="edge">
<title>osqp&#45;&gt;cvxpy</title>
<path fill="none" stroke="#000000" d="M181.42,-366.7317C186.4094,-364.4486 191.6555,-362.1042 196.5952,-360 230.1542,-345.7046 268.8706,-330.68 296.7377,-320.1189"/>
<polygon fill="#000000" stroke="#000000" points="297.9969,-323.3847 306.1159,-316.578 295.5242,-316.836 297.9969,-323.3847"/>
</g>
<!-- ecos -->
<g id="node45" class="node">
<title>ecos</title>
<ellipse fill="#31688e" stroke="#000000" cx="393.5952" cy="-378" rx="30.5947" ry="18"/>
<text text-anchor="middle" x="393.5952" y="-374.3" font-family="Times,serif" font-size="14.00" fill="#ffffff">ecos</text>
</g>
<!-- ecos&#45;&gt;cvxpy -->
<g id="edge54" class="edge">
<title>ecos&#45;&gt;cvxpy</title>
<path fill="none" stroke="#000000" d="M380.2071,-361.6621C372.6955,-352.4953 363.1733,-340.8751 354.7746,-330.6257"/>
<polygon fill="#000000" stroke="#000000" points="357.3851,-328.2893 348.3396,-322.7729 351.9707,-332.7261 357.3851,-328.2893"/>
</g>
<!-- scs&#45;&gt;cvxpy -->
<g id="edge55" class="edge">
<title>scs&#45;&gt;cvxpy</title>
<path fill="none" stroke="#000000" d="M448.5014,-366.75C426.9702,-355.2667 393.2291,-337.2714 368.0499,-323.8425"/>
<polygon fill="#000000" stroke="#000000" points="369.6699,-320.7399 359.1993,-319.1222 366.3757,-326.9164 369.6699,-320.7399"/>
</g>
<!-- binutils_ -->
<g id="node50" class="node">
<title>binutils_</title>
<ellipse fill="#35b779" stroke="#000000" cx="2120.5952" cy="-522" rx="54.6905" ry="18"/>
<text text-anchor="middle" x="2120.5952" y="-518.3" font-family="Times,serif" font-size="14.00" fill="#000000">binutils_</text>
</g>
</g>
</svg>
