<?xml version="1.0" encoding="UTF-8" standalone="no"?>
<!DOCTYPE svg PUBLIC "-//W3C//DTD SVG 1.1//EN"
 "http://www.w3.org/Graphics/SVG/1.1/DTD/svg11.dtd">
<!-- Generated by graphviz version 2.40.1 (20161225.0304)
 -->
<!-- Title: %3 Pages: 1 -->
<svg width="1938pt" height="332pt"
 viewBox="0.00 0.00 1938.14 332.00" xmlns="http://www.w3.org/2000/svg" xmlns:xlink="http://www.w3.org/1999/xlink">
<g id="graph0" class="graph" transform="scale(1 1) rotate(0) translate(4 328)">
<title>%3</title>
<polygon fill="#ffffff" stroke="transparent" points="-4,4 -4,-328 1934.1424,-328 1934.1424,4 -4,4"/>
<!-- arrow&#45;cpp -->
<g id="node1" class="node">
<title>arrow&#45;cpp</title>
<ellipse fill="#31688e" stroke="#000000" cx="168.5473" cy="-306" rx="54.6905" ry="18"/>
<text text-anchor="middle" x="168.5473" y="-302.3" font-family="Times,serif" font-size="14.00" fill="#ffffff">arrow cpp</text>
</g>
<!-- pyarrow -->
<g id="node18" class="node">
<title>pyarrow</title>
<ellipse fill="#fde725" stroke="#000000" cx="168.5473" cy="-234" rx="44.6926" ry="18"/>
<text text-anchor="middle" x="168.5473" y="-230.3" font-family="Times,serif" font-size="14.00" fill="#000000">pyarrow</text>
</g>
<!-- arrow&#45;cpp&#45;&gt;pyarrow -->
<g id="edge1" class="edge">
<title>arrow&#45;cpp&#45;&gt;pyarrow</title>
<path fill="none" stroke="#000000" d="M168.5473,-287.8314C168.5473,-280.131 168.5473,-270.9743 168.5473,-262.4166"/>
<polygon fill="#000000" stroke="#000000" points="172.0474,-262.4132 168.5473,-252.4133 165.0474,-262.4133 172.0474,-262.4132"/>
</g>
<!-- dill -->
<g id="node2" class="node">
<title>dill</title>
<ellipse fill="#fde725" stroke="#000000" cx="300.5473" cy="-234" rx="30.5947" ry="18"/>
<text text-anchor="middle" x="300.5473" y="-230.3" font-family="Times,serif" font-size="14.00" fill="#000000">dill</text>
</g>
<!-- multiprocess -->
<g id="node15" class="node">
<title>multiprocess</title>
<ellipse fill="#fde725" stroke="#000000" cx="300.5473" cy="-162" rx="69.5877" ry="18"/>
<text text-anchor="middle" x="300.5473" y="-158.3" font-family="Times,serif" font-size="14.00" fill="#000000">multiprocess</text>
</g>
<!-- dill&#45;&gt;multiprocess -->
<g id="edge2" class="edge">
<title>dill&#45;&gt;multiprocess</title>
<path fill="none" stroke="#000000" d="M300.5473,-215.8314C300.5473,-208.131 300.5473,-198.9743 300.5473,-190.4166"/>
<polygon fill="#000000" stroke="#000000" points="304.0474,-190.4132 300.5473,-180.4133 297.0474,-190.4133 304.0474,-190.4132"/>
</g>
<!-- glew -->
<g id="node3" class="node">
<title>glew</title>
<ellipse fill="#fde725" stroke="#000000" cx="565.5473" cy="-162" rx="30.5947" ry="18"/>
<text text-anchor="middle" x="565.5473" y="-158.3" font-family="Times,serif" font-size="14.00" fill="#000000">glew</text>
</g>
<!-- root -->
<g id="node37" class="node">
<title>root</title>
<ellipse fill="#fde725" stroke="#000000" cx="607.5473" cy="-90" rx="30.5947" ry="18"/>
<text text-anchor="middle" x="607.5473" y="-86.3" font-family="Times,serif" font-size="14.00" fill="#000000">root</text>
</g>
<!-- glew&#45;&gt;root -->
<g id="edge3" class="edge">
<title>glew&#45;&gt;root</title>
<path fill="none" stroke="#000000" d="M575.5007,-144.937C580.5008,-136.3654 586.669,-125.7914 592.2543,-116.2165"/>
<polygon fill="#000000" stroke="#000000" points="595.358,-117.842 597.3736,-107.4407 589.3116,-114.3149 595.358,-117.842"/>
</g>
<!-- gmpy2 -->
<g id="node4" class="node">
<title>gmpy2</title>
<ellipse fill="#fde725" stroke="#000000" cx="1009.5473" cy="-90" rx="35.194" ry="18"/>
<text text-anchor="middle" x="1009.5473" y="-86.3" font-family="Times,serif" font-size="14.00" fill="#000000">gmpy2</text>
</g>
<!-- sympy -->
<g id="node23" class="node">
<title>sympy</title>
<ellipse fill="#fde725" stroke="#000000" cx="1009.5473" cy="-18" rx="35.194" ry="18"/>
<text text-anchor="middle" x="1009.5473" y="-14.3" font-family="Times,serif" font-size="14.00" fill="#000000">sympy</text>
</g>
<!-- gmpy2&#45;&gt;sympy -->
<g id="edge4" class="edge">
<title>gmpy2&#45;&gt;sympy</title>
<path fill="none" stroke="#000000" d="M1009.5473,-71.8314C1009.5473,-64.131 1009.5473,-54.9743 1009.5473,-46.4166"/>
<polygon fill="#000000" stroke="#000000" points="1013.0474,-46.4132 1009.5473,-36.4133 1006.0474,-46.4133 1013.0474,-46.4132"/>
</g>
<!-- gstreamer -->
<g id="node5" class="node">
<title>gstreamer</title>
<ellipse fill="#31688e" stroke="#000000" cx="761.5473" cy="-234" rx="54.6905" ry="18"/>
<text text-anchor="middle" x="761.5473" y="-230.3" font-family="Times,serif" font-size="14.00" fill="#ffffff">gstreamer</text>
</g>
<!-- qt -->
<g id="node21" class="node">
<title>qt</title>
<ellipse fill="#fde725" stroke="#000000" cx="828.5473" cy="-162" rx="27" ry="18"/>
<text text-anchor="middle" x="828.5473" y="-158.3" font-family="Times,serif" font-size="14.00" fill="#000000">qt</text>
</g>
<!-- gstreamer&#45;&gt;qt -->
<g id="edge5" class="edge">
<title>gstreamer&#45;&gt;qt</title>
<path fill="none" stroke="#000000" d="M777.7661,-216.5708C786.6542,-207.0194 797.7773,-195.0662 807.3459,-184.7836"/>
<polygon fill="#000000" stroke="#000000" points="810.0472,-187.0184 814.2973,-177.3134 804.9227,-182.2498 810.0472,-187.0184"/>
</g>
<!-- ipyparallel -->
<g id="node6" class="node">
<title>ipyparallel</title>
<ellipse fill="#31688e" stroke="#000000" cx="452.5473" cy="-162" rx="64.189" ry="18"/>
<text text-anchor="middle" x="452.5473" y="-158.3" font-family="Times,serif" font-size="14.00" fill="#ffffff">ipyparallel</text>
</g>
<!-- ipyparallel&#45;&gt;root -->
<g id="edge6" class="edge">
<title>ipyparallel&#45;&gt;root</title>
<path fill="none" stroke="#000000" d="M485.7987,-146.5542C511.9426,-134.4099 548.1897,-117.5726 574.3259,-105.4319"/>
<polygon fill="#000000" stroke="#000000" points="575.8653,-108.576 583.4601,-101.1889 572.9163,-102.2275 575.8653,-108.576"/>
</g>
<!-- jupyter_client -->
<g id="node7" class="node">
<title>jupyter_client</title>
<ellipse fill="#31688e" stroke="#000000" cx="452.5473" cy="-234" rx="79.0865" ry="18"/>
<text text-anchor="middle" x="452.5473" y="-230.3" font-family="Times,serif" font-size="14.00" fill="#ffffff">jupyter_client</text>
</g>
<!-- jupyter_client&#45;&gt;ipyparallel -->
<g id="edge7" class="edge">
<title>jupyter_client&#45;&gt;ipyparallel</title>
<path fill="none" stroke="#000000" d="M452.5473,-215.8314C452.5473,-208.131 452.5473,-198.9743 452.5473,-190.4166"/>
<polygon fill="#000000" stroke="#000000" points="456.0474,-190.4132 452.5473,-180.4133 449.0474,-190.4133 456.0474,-190.4132"/>
</g>
<!-- libglu -->
<g id="node8" class="node">
<title>libglu</title>
<ellipse fill="#31688e" stroke="#000000" cx="648.5473" cy="-234" rx="40.0939" ry="18"/>
<text text-anchor="middle" x="648.5473" y="-230.3" font-family="Times,serif" font-size="14.00" fill="#ffffff">libglu</text>
</g>
<!-- libglu&#45;&gt;glew -->
<g id="edge9" class="edge">
<title>libglu&#45;&gt;glew</title>
<path fill="none" stroke="#000000" d="M629.7133,-217.6621C618.1783,-207.6558 603.2731,-194.726 590.7322,-183.8471"/>
<polygon fill="#000000" stroke="#000000" points="592.7389,-180.9545 582.8915,-177.0456 588.152,-186.2423 592.7389,-180.9545"/>
</g>
<!-- freeglut -->
<g id="node25" class="node">
<title>freeglut</title>
<ellipse fill="#fde725" stroke="#000000" cx="664.5473" cy="-162" rx="50.0912" ry="18"/>
<text text-anchor="middle" x="664.5473" y="-158.3" font-family="Times,serif" font-size="14.00" fill="#000000">freeglut</text>
</g>
<!-- libglu&#45;&gt;freeglut -->
<g id="edge8" class="edge">
<title>libglu&#45;&gt;freeglut</title>
<path fill="none" stroke="#000000" d="M652.5848,-215.8314C654.296,-208.131 656.3308,-198.9743 658.2325,-190.4166"/>
<polygon fill="#000000" stroke="#000000" points="661.7027,-190.9344 660.4555,-180.4133 654.8694,-189.4159 661.7027,-190.9344"/>
</g>
<!-- libglu&#45;&gt;root -->
<g id="edge10" class="edge">
<title>libglu&#45;&gt;root</title>
<path fill="none" stroke="#000000" d="M677.8753,-221.3294C694.5502,-212.4089 713.9649,-198.7071 723.5473,-180 730.8417,-165.7595 732.1485,-157.4915 723.5473,-144 706.8168,-117.7572 673.6558,-104.0649 647.0591,-97.046"/>
<polygon fill="#000000" stroke="#000000" points="647.7775,-93.6189 637.235,-94.6704 646.1322,-100.4228 647.7775,-93.6189"/>
</g>
<!-- libsndfile -->
<g id="node9" class="node">
<title>libsndfile</title>
<ellipse fill="#fde725" stroke="#000000" cx="1347.5473" cy="-162" rx="59.5901" ry="18"/>
<text text-anchor="middle" x="1347.5473" y="-158.3" font-family="Times,serif" font-size="14.00" fill="#000000">libsndfile</text>
</g>
<!-- r&#45;base -->
<g id="node22" class="node">
<title>r&#45;base</title>
<ellipse fill="#fde725" stroke="#000000" cx="1200.5473" cy="-90" rx="40.0939" ry="18"/>
<text text-anchor="middle" x="1200.5473" y="-86.3" font-family="Times,serif" font-size="14.00" fill="#000000">r base</text>
</g>
<!-- libsndfile&#45;&gt;r&#45;base -->
<g id="edge11" class="edge">
<title>libsndfile&#45;&gt;r&#45;base</title>
<path fill="none" stroke="#000000" d="M1316.0121,-146.5542C1292.9245,-135.246 1261.5292,-119.8687 1237.3037,-108.0031"/>
<polygon fill="#000000" stroke="#000000" points="1238.5917,-104.7368 1228.0715,-103.4813 1235.5126,-111.0232 1238.5917,-104.7368"/>
</g>
<!-- llvmlite -->
<g id="node10" class="node">
<title>llvmlite</title>
<ellipse fill="#31688e" stroke="#000000" cx="1562.5473" cy="-306" rx="50.0912" ry="18"/>
<text text-anchor="middle" x="1562.5473" y="-302.3" font-family="Times,serif" font-size="14.00" fill="#ffffff">llvmlite</text>
</g>
<!-- numba -->
<g id="node30" class="node">
<title>numba</title>
<ellipse fill="#fde725" stroke="#000000" cx="1562.5473" cy="-234" rx="35.194" ry="18"/>
<text text-anchor="middle" x="1562.5473" y="-230.3" font-family="Times,serif" font-size="14.00" fill="#000000">numba</text>
</g>
<!-- llvmlite&#45;&gt;numba -->
<g id="edge12" class="edge">
<title>llvmlite&#45;&gt;numba</title>
<path fill="none" stroke="#000000" d="M1562.5473,-287.8314C1562.5473,-280.131 1562.5473,-270.9743 1562.5473,-262.4166"/>
<polygon fill="#000000" stroke="#000000" points="1566.0474,-262.4132 1562.5473,-252.4133 1559.0474,-262.4133 1566.0474,-262.4132"/>
</g>
<!-- matplotlib -->
<g id="node11" class="node">
<title>matplotlib</title>
<ellipse fill="#fde725" stroke="#000000" cx="854.5473" cy="-18" rx="59.5901" ry="18"/>
<text text-anchor="middle" x="854.5473" y="-14.3" font-family="Times,serif" font-size="14.00" fill="#000000">matplotlib</text>
</g>
<!-- mpc -->
<g id="node12" class="node">
<title>mpc</title>
<ellipse fill="#fde725" stroke="#000000" cx="1009.5473" cy="-162" rx="27" ry="18"/>
<text text-anchor="middle" x="1009.5473" y="-158.3" font-family="Times,serif" font-size="14.00" fill="#000000">mpc</text>
</g>
<!-- mpc&#45;&gt;gmpy2 -->
<g id="edge13" class="edge">
<title>mpc&#45;&gt;gmpy2</title>
<path fill="none" stroke="#000000" d="M1009.5473,-143.8314C1009.5473,-136.131 1009.5473,-126.9743 1009.5473,-118.4166"/>
<polygon fill="#000000" stroke="#000000" points="1013.0474,-118.4132 1009.5473,-108.4133 1006.0474,-118.4133 1013.0474,-118.4132"/>
</g>
<!-- mpfr -->
<g id="node13" class="node">
<title>mpfr</title>
<ellipse fill="#fde725" stroke="#000000" cx="1066.5473" cy="-234" rx="30.5947" ry="18"/>
<text text-anchor="middle" x="1066.5473" y="-230.3" font-family="Times,serif" font-size="14.00" fill="#000000">mpfr</text>
</g>
<!-- mpfr&#45;&gt;gmpy2 -->
<g id="edge14" class="edge">
<title>mpfr&#45;&gt;gmpy2</title>
<path fill="none" stroke="#000000" d="M1064.2583,-215.8102C1061.4712,-197.1908 1055.8114,-167.7053 1045.5473,-144 1041.2494,-134.0739 1035.1124,-123.9986 1029.1201,-115.2819"/>
<polygon fill="#000000" stroke="#000000" points="1031.9137,-113.1714 1023.2494,-107.0739 1026.2201,-117.2437 1031.9137,-113.1714"/>
</g>
<!-- mpfr&#45;&gt;mpc -->
<g id="edge15" class="edge">
<title>mpfr&#45;&gt;mpc</title>
<path fill="none" stroke="#000000" d="M1053.6131,-217.6621C1046.2524,-208.3644 1036.8935,-196.5426 1028.6956,-186.1873"/>
<polygon fill="#000000" stroke="#000000" points="1031.3815,-183.9413 1022.4303,-178.2733 1025.8932,-188.2862 1031.3815,-183.9413"/>
</g>
<!-- mpfr&#45;&gt;r&#45;base -->
<g id="edge16" class="edge">
<title>mpfr&#45;&gt;r&#45;base</title>
<path fill="none" stroke="#000000" d="M1074.5661,-216.2711C1083.9028,-196.9595 1100.7348,-165.903 1121.5473,-144 1134.341,-130.536 1151.0268,-118.5331 1165.7654,-109.283"/>
<polygon fill="#000000" stroke="#000000" points="1167.9103,-112.0751 1174.6384,-103.8908 1164.275,-106.0931 1167.9103,-112.0751"/>
</g>
<!-- texlive&#45;core -->
<g id="node24" class="node">
<title>texlive&#45;core</title>
<ellipse fill="#fde725" stroke="#000000" cx="1200.5473" cy="-162" rx="69.5877" ry="18"/>
<text text-anchor="middle" x="1200.5473" y="-158.3" font-family="Times,serif" font-size="14.00" fill="#000000">texlive core</text>
</g>
<!-- mpfr&#45;&gt;texlive&#45;core -->
<g id="edge17" class="edge">
<title>mpfr&#45;&gt;texlive&#45;core</title>
<path fill="none" stroke="#000000" d="M1089.2786,-221.7862C1108.9225,-211.2312 1137.756,-195.7386 1161.1492,-183.1691"/>
<polygon fill="#000000" stroke="#000000" points="1162.9909,-186.1528 1170.1432,-178.3365 1159.6777,-179.9866 1162.9909,-186.1528"/>
</g>
<!-- mpir -->
<g id="node14" class="node">
<title>mpir</title>
<ellipse fill="#31688e" stroke="#000000" cx="1007.5473" cy="-306" rx="30.5947" ry="18"/>
<text text-anchor="middle" x="1007.5473" y="-302.3" font-family="Times,serif" font-size="14.00" fill="#ffffff">mpir</text>
</g>
<!-- mpir&#45;&gt;gmpy2 -->
<g id="edge18" class="edge">
<title>mpir&#45;&gt;gmpy2</title>
<path fill="none" stroke="#000000" d="M998.311,-288.7269C983.5664,-258.838 957.8911,-195.7088 973.5473,-144 976.6818,-133.6475 982.5279,-123.4656 988.6112,-114.7822"/>
<polygon fill="#000000" stroke="#000000" points="991.506,-116.7551 994.6818,-106.6475 985.8959,-112.5685 991.506,-116.7551"/>
</g>
<!-- mpir&#45;&gt;mpc -->
<g id="edge19" class="edge">
<title>mpir&#45;&gt;mpc</title>
<path fill="none" stroke="#000000" d="M1007.8006,-287.7623C1008.1417,-263.201 1008.7522,-219.2474 1009.1535,-190.3541"/>
<polygon fill="#000000" stroke="#000000" points="1012.6567,-190.1373 1009.296,-180.0896 1005.6574,-190.04 1012.6567,-190.1373"/>
</g>
<!-- mpir&#45;&gt;mpfr -->
<g id="edge20" class="edge">
<title>mpir&#45;&gt;mpfr</title>
<path fill="none" stroke="#000000" d="M1020.9353,-289.6621C1028.5543,-280.3644 1038.2416,-268.5426 1046.7271,-258.1873"/>
<polygon fill="#000000" stroke="#000000" points="1049.5812,-260.2265 1053.2123,-250.2733 1044.1668,-255.7897 1049.5812,-260.2265"/>
</g>
<!-- cvxpy -->
<g id="node36" class="node">
<title>cvxpy</title>
<ellipse fill="#fde725" stroke="#000000" cx="147.5473" cy="-90" rx="35.194" ry="18"/>
<text text-anchor="middle" x="147.5473" y="-86.3" font-family="Times,serif" font-size="14.00" fill="#000000">cvxpy</text>
</g>
<!-- multiprocess&#45;&gt;cvxpy -->
<g id="edge21" class="edge">
<title>multiprocess&#45;&gt;cvxpy</title>
<path fill="none" stroke="#000000" d="M266.9708,-146.1993C242.0107,-134.4534 208.037,-118.4658 182.7065,-106.5455"/>
<polygon fill="#000000" stroke="#000000" points="183.9969,-103.2846 173.4584,-102.1934 181.0162,-109.6183 183.9969,-103.2846"/>
</g>
<!-- opencv -->
<g id="node16" class="node">
<title>opencv</title>
<ellipse fill="#fde725" stroke="#000000" cx="765.5473" cy="-90" rx="40.0939" ry="18"/>
<text text-anchor="middle" x="765.5473" y="-86.3" font-family="Times,serif" font-size="14.00" fill="#000000">opencv</text>
</g>
<!-- protobuf -->
<g id="node17" class="node">
<title>protobuf</title>
<ellipse fill="#31688e" stroke="#000000" cx="1680.5473" cy="-306" rx="50.0912" ry="18"/>
<text text-anchor="middle" x="1680.5473" y="-302.3" font-family="Times,serif" font-size="14.00" fill="#ffffff">protobuf</text>
</g>
<!-- pyqt -->
<g id="node19" class="node">
<title>pyqt</title>
<ellipse fill="#fde725" stroke="#000000" cx="854.5473" cy="-90" rx="30.5947" ry="18"/>
<text text-anchor="middle" x="854.5473" y="-86.3" font-family="Times,serif" font-size="14.00" fill="#000000">pyqt</text>
</g>
<!-- pyqt&#45;&gt;matplotlib -->
<g id="edge22" class="edge">
<title>pyqt&#45;&gt;matplotlib</title>
<path fill="none" stroke="#000000" d="M854.5473,-71.8314C854.5473,-64.131 854.5473,-54.9743 854.5473,-46.4166"/>
<polygon fill="#000000" stroke="#000000" points="858.0474,-46.4132 854.5473,-36.4133 851.0474,-46.4133 858.0474,-46.4132"/>
</g>
<!-- pyreadline -->
<g id="node20" class="node">
<title>pyreadline</title>
<ellipse fill="#31688e" stroke="#000000" cx="300.5473" cy="-306" rx="59.5901" ry="18"/>
<text text-anchor="middle" x="300.5473" y="-302.3" font-family="Times,serif" font-size="14.00" fill="#ffffff">pyreadline</text>
</g>
<!-- pyreadline&#45;&gt;dill -->
<g id="edge23" class="edge">
<title>pyreadline&#45;&gt;dill</title>
<path fill="none" stroke="#000000" d="M300.5473,-287.8314C300.5473,-280.131 300.5473,-270.9743 300.5473,-262.4166"/>
<polygon fill="#000000" stroke="#000000" points="304.0474,-262.4132 300.5473,-252.4133 297.0474,-262.4133 304.0474,-262.4132"/>
</g>
<!-- qt&#45;&gt;opencv -->
<g id="edge24" class="edge">
<title>qt&#45;&gt;opencv</title>
<path fill="none" stroke="#000000" d="M814.8772,-146.3771C806.7449,-137.0829 796.2484,-125.087 787.0297,-114.5513"/>
<polygon fill="#000000" stroke="#000000" points="789.5085,-112.0691 780.2894,-106.8481 784.2405,-116.6787 789.5085,-112.0691"/>
</g>
<!-- qt&#45;&gt;pyqt -->
<g id="edge25" class="edge">
<title>qt&#45;&gt;pyqt</title>
<path fill="none" stroke="#000000" d="M834.9743,-144.2022C837.8805,-136.1541 841.3816,-126.4588 844.6143,-117.5067"/>
<polygon fill="#000000" stroke="#000000" points="847.9996,-118.4369 848.1041,-107.8425 841.4157,-116.0593 847.9996,-118.4369"/>
</g>
<!-- qt&#45;&gt;root -->
<g id="edge26" class="edge">
<title>qt&#45;&gt;root</title>
<path fill="none" stroke="#000000" d="M804.052,-154.0196C765.2896,-141.3912 689.5751,-116.724 644.286,-101.9692"/>
<polygon fill="#000000" stroke="#000000" points="645.1539,-98.5709 634.5616,-98.801 642.9855,-105.2266 645.1539,-98.5709"/>
</g>
<!-- texlive&#45;core&#45;&gt;r&#45;base -->
<g id="edge27" class="edge">
<title>texlive&#45;core&#45;&gt;r&#45;base</title>
<path fill="none" stroke="#000000" d="M1200.5473,-143.8314C1200.5473,-136.131 1200.5473,-126.9743 1200.5473,-118.4166"/>
<polygon fill="#000000" stroke="#000000" points="1204.0474,-118.4132 1200.5473,-108.4133 1197.0474,-118.4133 1204.0474,-118.4132"/>
</g>
<!-- libogg -->
<g id="node26" class="node">
<title>libogg</title>
<ellipse fill="#31688e" stroke="#000000" cx="1347.5473" cy="-306" rx="40.0939" ry="18"/>
<text text-anchor="middle" x="1347.5473" y="-302.3" font-family="Times,serif" font-size="14.00" fill="#ffffff">libogg</text>
</g>
<!-- libogg&#45;&gt;libsndfile -->
<g id="edge29" class="edge">
<title>libogg&#45;&gt;libsndfile</title>
<path fill="none" stroke="#000000" d="M1321.7569,-291.8735C1307.6391,-282.5863 1291.4498,-269.0074 1283.5473,-252 1276.8051,-237.4899 1276.8051,-230.5101 1283.5473,-216 1289.4541,-203.2877 1299.9906,-192.4909 1310.8313,-183.97"/>
<polygon fill="#000000" stroke="#000000" points="1313.1119,-186.6379 1319.1089,-177.9037 1308.9741,-180.9918 1313.1119,-186.6379"/>
</g>
<!-- libvorbis -->
<g id="node27" class="node">
<title>libvorbis</title>
<ellipse fill="#fde725" stroke="#000000" cx="1347.5473" cy="-234" rx="54.6905" ry="18"/>
<text text-anchor="middle" x="1347.5473" y="-230.3" font-family="Times,serif" font-size="14.00" fill="#000000">libvorbis</text>
</g>
<!-- libogg&#45;&gt;libvorbis -->
<g id="edge30" class="edge">
<title>libogg&#45;&gt;libvorbis</title>
<path fill="none" stroke="#000000" d="M1347.5473,-287.8314C1347.5473,-280.131 1347.5473,-270.9743 1347.5473,-262.4166"/>
<polygon fill="#000000" stroke="#000000" points="1351.0474,-262.4132 1347.5473,-252.4133 1344.0474,-262.4133 1351.0474,-262.4132"/>
</g>
<!-- libflac -->
<g id="node28" class="node">
<title>libflac</title>
<ellipse fill="#fde725" stroke="#000000" cx="1464.5473" cy="-234" rx="44.6926" ry="18"/>
<text text-anchor="middle" x="1464.5473" y="-230.3" font-family="Times,serif" font-size="14.00" fill="#000000">libflac</text>
</g>
<!-- libogg&#45;&gt;libflac -->
<g id="edge28" class="edge">
<title>libogg&#45;&gt;libflac</title>
<path fill="none" stroke="#000000" d="M1371.224,-291.4297C1388.4018,-280.8587 1411.8781,-266.4118 1430.9866,-254.6527"/>
<polygon fill="#000000" stroke="#000000" points="1433.0121,-257.516 1439.6943,-249.2941 1429.3434,-251.5543 1433.0121,-257.516"/>
</g>
<!-- libvorbis&#45;&gt;libsndfile -->
<g id="edge31" class="edge">
<title>libvorbis&#45;&gt;libsndfile</title>
<path fill="none" stroke="#000000" d="M1347.5473,-215.8314C1347.5473,-208.131 1347.5473,-198.9743 1347.5473,-190.4166"/>
<polygon fill="#000000" stroke="#000000" points="1351.0474,-190.4132 1347.5473,-180.4133 1344.0474,-190.4133 1351.0474,-190.4132"/>
</g>
<!-- libflac&#45;&gt;libsndfile -->
<g id="edge32" class="edge">
<title>libflac&#45;&gt;libsndfile</title>
<path fill="none" stroke="#000000" d="M1440.0203,-218.9064C1423.4357,-208.7006 1401.2766,-195.0642 1382.8076,-183.6987"/>
<polygon fill="#000000" stroke="#000000" points="1384.4291,-180.5869 1374.0781,-178.3267 1380.7604,-186.5485 1384.4291,-180.5869"/>
</g>
<!-- lld -->
<g id="node29" class="node">
<title>lld</title>
<ellipse fill="#31688e" stroke="#000000" cx="1775.5473" cy="-306" rx="27" ry="18"/>
<text text-anchor="middle" x="1775.5473" y="-302.3" font-family="Times,serif" font-size="14.00" fill="#ffffff">lld</text>
</g>
<!-- autotools_clang_conda -->
<g id="node38" class="node">
<title>autotools_clang_conda</title>
<ellipse fill="#fde725" stroke="#000000" cx="1775.5473" cy="-234" rx="113.18" ry="18"/>
<text text-anchor="middle" x="1775.5473" y="-230.3" font-family="Times,serif" font-size="14.00" fill="#000000">autotools_clang_conda</text>
</g>
<!-- lld&#45;&gt;autotools_clang_conda -->
<g id="edge33" class="edge">
<title>lld&#45;&gt;autotools_clang_conda</title>
<path fill="none" stroke="#000000" d="M1775.5473,-287.8314C1775.5473,-280.131 1775.5473,-270.9743 1775.5473,-262.4166"/>
<polygon fill="#000000" stroke="#000000" points="1779.0474,-262.4132 1775.5473,-252.4133 1772.0474,-262.4133 1779.0474,-262.4132"/>
</g>
<!-- nspr -->
<g id="node31" class="node">
<title>nspr</title>
<ellipse fill="#31688e" stroke="#000000" cx="871.5473" cy="-306" rx="30.5947" ry="18"/>
<text text-anchor="middle" x="871.5473" y="-302.3" font-family="Times,serif" font-size="14.00" fill="#ffffff">nspr</text>
</g>
<!-- nspr&#45;&gt;qt -->
<g id="edge35" class="edge">
<title>nspr&#45;&gt;qt</title>
<path fill="none" stroke="#000000" d="M866.1883,-288.0535C858.8095,-263.3431 845.4532,-218.6152 836.7959,-189.6234"/>
<polygon fill="#000000" stroke="#000000" points="840.0538,-188.3008 833.8388,-179.7204 833.3464,-190.3037 840.0538,-188.3008"/>
</g>
<!-- nss -->
<g id="node32" class="node">
<title>nss</title>
<ellipse fill="#fde725" stroke="#000000" cx="899.5473" cy="-234" rx="27" ry="18"/>
<text text-anchor="middle" x="899.5473" y="-230.3" font-family="Times,serif" font-size="14.00" fill="#000000">nss</text>
</g>
<!-- nspr&#45;&gt;nss -->
<g id="edge34" class="edge">
<title>nspr&#45;&gt;nss</title>
<path fill="none" stroke="#000000" d="M878.4686,-288.2022C881.6559,-280.0064 885.5075,-270.1024 889.0416,-261.0145"/>
<polygon fill="#000000" stroke="#000000" points="892.343,-262.1817 892.7056,-251.593 885.819,-259.6445 892.343,-262.1817"/>
</g>
<!-- nss&#45;&gt;qt -->
<g id="edge36" class="edge">
<title>nss&#45;&gt;qt</title>
<path fill="none" stroke="#000000" d="M884.49,-218.7307C874.7003,-208.803 861.7641,-195.6847 850.7976,-184.5637"/>
<polygon fill="#000000" stroke="#000000" points="853.0965,-181.9102 843.5829,-177.2473 848.1122,-186.8252 853.0965,-181.9102"/>
</g>
<!-- osqp -->
<g id="node33" class="node">
<title>osqp</title>
<ellipse fill="#31688e" stroke="#000000" cx="30.5473" cy="-162" rx="30.5947" ry="18"/>
<text text-anchor="middle" x="30.5473" y="-158.3" font-family="Times,serif" font-size="14.00" fill="#ffffff">osqp</text>
</g>
<!-- osqp&#45;&gt;cvxpy -->
<g id="edge37" class="edge">
<title>osqp&#45;&gt;cvxpy</title>
<path fill="none" stroke="#000000" d="M51.7351,-148.9613C69.7472,-137.877 95.8587,-121.8084 116.2753,-109.2443"/>
<polygon fill="#000000" stroke="#000000" points="118.238,-112.1462 124.9203,-103.9243 114.5693,-106.1845 118.238,-112.1462"/>
</g>
<!-- ecos -->
<g id="node34" class="node">
<title>ecos</title>
<ellipse fill="#31688e" stroke="#000000" cx="109.5473" cy="-162" rx="30.5947" ry="18"/>
<text text-anchor="middle" x="109.5473" y="-158.3" font-family="Times,serif" font-size="14.00" fill="#ffffff">ecos</text>
</g>
<!-- ecos&#45;&gt;cvxpy -->
<g id="edge38" class="edge">
<title>ecos&#45;&gt;cvxpy</title>
<path fill="none" stroke="#000000" d="M118.746,-144.5708C123.194,-136.1431 128.6288,-125.8455 133.5741,-116.4755"/>
<polygon fill="#000000" stroke="#000000" points="136.7293,-117.9958 138.3016,-107.5182 130.5386,-114.7284 136.7293,-117.9958"/>
</g>
<!-- scs -->
<g id="node35" class="node">
<title>scs</title>
<ellipse fill="#31688e" stroke="#000000" cx="185.5473" cy="-162" rx="27" ry="18"/>
<text text-anchor="middle" x="185.5473" y="-158.3" font-family="Times,serif" font-size="14.00" fill="#ffffff">scs</text>
</g>
<!-- scs&#45;&gt;cvxpy -->
<g id="edge39" class="edge">
<title>scs&#45;&gt;cvxpy</title>
<path fill="none" stroke="#000000" d="M176.5418,-144.937C172.0645,-136.4537 166.5521,-126.0092 161.5403,-116.513"/>
<polygon fill="#000000" stroke="#000000" points="164.5151,-114.6509 156.7521,-107.4407 158.3244,-117.9182 164.5151,-114.6509"/>
</g>
<!-- binutils_ -->
<g id="node39" class="node">
<title>binutils_</title>
<ellipse fill="#35b779" stroke="#000000" cx="1875.5473" cy="-306" rx="54.6905" ry="18"/>
<text text-anchor="middle" x="1875.5473" y="-302.3" font-family="Times,serif" font-size="14.00" fill="#000000">binutils_</text>
</g>
</g>
</svg>
