<?xml version="1.0" encoding="UTF-8" standalone="no"?>
<!DOCTYPE svg PUBLIC "-//W3C//DTD SVG 1.1//EN"
 "http://www.w3.org/Graphics/SVG/1.1/DTD/svg11.dtd">
<!-- Generated by graphviz version 2.40.1 (20161225.0304)
 -->
<!-- Title: %3 Pages: 1 -->
<svg width="2123pt" height="332pt"
 viewBox="0.00 0.00 2123.19 332.00" xmlns="http://www.w3.org/2000/svg" xmlns:xlink="http://www.w3.org/1999/xlink">
<g id="graph0" class="graph" transform="scale(1 1) rotate(0) translate(4 328)">
<title>%3</title>
<polygon fill="#ffffff" stroke="transparent" points="-4,4 -4,-328 2119.1903,-328 2119.1903,4 -4,4"/>
<!-- arrow&#45;cpp -->
<g id="node1" class="node">
<title>arrow&#45;cpp</title>
<ellipse fill="#31688e" stroke="#000000" cx="54.5952" cy="-306" rx="54.6905" ry="18"/>
<text text-anchor="middle" x="54.5952" y="-302.3" font-family="Times,serif" font-size="14.00" fill="#ffffff">arrow cpp</text>
</g>
<!-- pyarrow -->
<g id="node17" class="node">
<title>pyarrow</title>
<ellipse fill="#fde725" stroke="#000000" cx="54.5952" cy="-234" rx="44.6926" ry="18"/>
<text text-anchor="middle" x="54.5952" y="-230.3" font-family="Times,serif" font-size="14.00" fill="#000000">pyarrow</text>
</g>
<!-- arrow&#45;cpp&#45;&gt;pyarrow -->
<g id="edge1" class="edge">
<title>arrow&#45;cpp&#45;&gt;pyarrow</title>
<path fill="none" stroke="#000000" d="M54.5952,-287.8314C54.5952,-280.131 54.5952,-270.9743 54.5952,-262.4166"/>
<polygon fill="#000000" stroke="#000000" points="58.0953,-262.4132 54.5952,-252.4133 51.0953,-262.4133 58.0953,-262.4132"/>
</g>
<!-- dill -->
<g id="node2" class="node">
<title>dill</title>
<ellipse fill="#31688e" stroke="#000000" cx="186.5952" cy="-306" rx="30.5947" ry="18"/>
<text text-anchor="middle" x="186.5952" y="-302.3" font-family="Times,serif" font-size="14.00" fill="#ffffff">dill</text>
</g>
<!-- multiprocess -->
<g id="node15" class="node">
<title>multiprocess</title>
<ellipse fill="#fde725" stroke="#000000" cx="186.5952" cy="-234" rx="69.5877" ry="18"/>
<text text-anchor="middle" x="186.5952" y="-230.3" font-family="Times,serif" font-size="14.00" fill="#000000">multiprocess</text>
</g>
<!-- dill&#45;&gt;multiprocess -->
<g id="edge2" class="edge">
<title>dill&#45;&gt;multiprocess</title>
<path fill="none" stroke="#000000" d="M186.5952,-287.8314C186.5952,-280.131 186.5952,-270.9743 186.5952,-262.4166"/>
<polygon fill="#000000" stroke="#000000" points="190.0953,-262.4132 186.5952,-252.4133 183.0953,-262.4133 190.0953,-262.4132"/>
</g>
<!-- glew -->
<g id="node3" class="node">
<title>glew</title>
<ellipse fill="#fde725" stroke="#000000" cx="696.5952" cy="-162" rx="30.5947" ry="18"/>
<text text-anchor="middle" x="696.5952" y="-158.3" font-family="Times,serif" font-size="14.00" fill="#000000">glew</text>
</g>
<!-- root -->
<g id="node34" class="node">
<title>root</title>
<ellipse fill="#fde725" stroke="#000000" cx="780.5952" cy="-90" rx="30.5947" ry="18"/>
<text text-anchor="middle" x="780.5952" y="-86.3" font-family="Times,serif" font-size="14.00" fill="#000000">root</text>
</g>
<!-- glew&#45;&gt;root -->
<g id="edge3" class="edge">
<title>glew&#45;&gt;root</title>
<path fill="none" stroke="#000000" d="M714,-147.0816C725.9387,-136.8484 741.971,-123.1064 755.3134,-111.6701"/>
<polygon fill="#000000" stroke="#000000" points="757.8978,-114.0647 763.2126,-104.8993 753.3422,-108.7499 757.8978,-114.0647"/>
</g>
<!-- gmpy2 -->
<g id="node4" class="node">
<title>gmpy2</title>
<ellipse fill="#fde725" stroke="#000000" cx="1140.5952" cy="-90" rx="35.194" ry="18"/>
<text text-anchor="middle" x="1140.5952" y="-86.3" font-family="Times,serif" font-size="14.00" fill="#000000">gmpy2</text>
</g>
<!-- sympy -->
<g id="node21" class="node">
<title>sympy</title>
<ellipse fill="#fde725" stroke="#000000" cx="1140.5952" cy="-18" rx="35.194" ry="18"/>
<text text-anchor="middle" x="1140.5952" y="-14.3" font-family="Times,serif" font-size="14.00" fill="#000000">sympy</text>
</g>
<!-- gmpy2&#45;&gt;sympy -->
<g id="edge4" class="edge">
<title>gmpy2&#45;&gt;sympy</title>
<path fill="none" stroke="#000000" d="M1140.5952,-71.8314C1140.5952,-64.131 1140.5952,-54.9743 1140.5952,-46.4166"/>
<polygon fill="#000000" stroke="#000000" points="1144.0953,-46.4132 1140.5952,-36.4133 1137.0953,-46.4133 1144.0953,-46.4132"/>
</g>
<!-- gstreamer -->
<g id="node5" class="node">
<title>gstreamer</title>
<ellipse fill="#31688e" stroke="#000000" cx="892.5952" cy="-234" rx="54.6905" ry="18"/>
<text text-anchor="middle" x="892.5952" y="-230.3" font-family="Times,serif" font-size="14.00" fill="#ffffff">gstreamer</text>
</g>
<!-- qt -->
<g id="node19" class="node">
<title>qt</title>
<ellipse fill="#fde725" stroke="#000000" cx="959.5952" cy="-162" rx="27" ry="18"/>
<text text-anchor="middle" x="959.5952" y="-158.3" font-family="Times,serif" font-size="14.00" fill="#000000">qt</text>
</g>
<!-- gstreamer&#45;&gt;qt -->
<g id="edge5" class="edge">
<title>gstreamer&#45;&gt;qt</title>
<path fill="none" stroke="#000000" d="M908.814,-216.5708C917.7021,-207.0194 928.8252,-195.0662 938.3938,-184.7836"/>
<polygon fill="#000000" stroke="#000000" points="941.0951,-187.0184 945.3452,-177.3134 935.9706,-182.2498 941.0951,-187.0184"/>
</g>
<!-- ipyparallel -->
<g id="node6" class="node">
<title>ipyparallel</title>
<ellipse fill="#31688e" stroke="#000000" cx="583.5952" cy="-162" rx="64.189" ry="18"/>
<text text-anchor="middle" x="583.5952" y="-158.3" font-family="Times,serif" font-size="14.00" fill="#ffffff">ipyparallel</text>
</g>
<!-- ipyparallel&#45;&gt;root -->
<g id="edge6" class="edge">
<title>ipyparallel&#45;&gt;root</title>
<path fill="none" stroke="#000000" d="M622.9876,-147.6028C658.5519,-134.6046 710.4298,-115.6442 744.8272,-103.0726"/>
<polygon fill="#000000" stroke="#000000" points="746.2792,-106.2684 754.47,-99.5483 743.8762,-99.6937 746.2792,-106.2684"/>
</g>
<!-- jupyter_client -->
<g id="node7" class="node">
<title>jupyter_client</title>
<ellipse fill="#31688e" stroke="#000000" cx="583.5952" cy="-234" rx="79.0865" ry="18"/>
<text text-anchor="middle" x="583.5952" y="-230.3" font-family="Times,serif" font-size="14.00" fill="#ffffff">jupyter_client</text>
</g>
<!-- jupyter_client&#45;&gt;ipyparallel -->
<g id="edge7" class="edge">
<title>jupyter_client&#45;&gt;ipyparallel</title>
<path fill="none" stroke="#000000" d="M583.5952,-215.8314C583.5952,-208.131 583.5952,-198.9743 583.5952,-190.4166"/>
<polygon fill="#000000" stroke="#000000" points="587.0953,-190.4132 583.5952,-180.4133 580.0953,-190.4133 587.0953,-190.4132"/>
</g>
<!-- libglu -->
<g id="node8" class="node">
<title>libglu</title>
<ellipse fill="#31688e" stroke="#000000" cx="779.5952" cy="-234" rx="40.0939" ry="18"/>
<text text-anchor="middle" x="779.5952" y="-230.3" font-family="Times,serif" font-size="14.00" fill="#ffffff">libglu</text>
</g>
<!-- libglu&#45;&gt;glew -->
<g id="edge9" class="edge">
<title>libglu&#45;&gt;glew</title>
<path fill="none" stroke="#000000" d="M760.7612,-217.6621C749.2261,-207.6558 734.321,-194.726 721.78,-183.8471"/>
<polygon fill="#000000" stroke="#000000" points="723.7868,-180.9545 713.9394,-177.0456 719.1998,-186.2423 723.7868,-180.9545"/>
</g>
<!-- freeglut -->
<g id="node23" class="node">
<title>freeglut</title>
<ellipse fill="#fde725" stroke="#000000" cx="795.5952" cy="-162" rx="50.0912" ry="18"/>
<text text-anchor="middle" x="795.5952" y="-158.3" font-family="Times,serif" font-size="14.00" fill="#000000">freeglut</text>
</g>
<!-- libglu&#45;&gt;freeglut -->
<g id="edge8" class="edge">
<title>libglu&#45;&gt;freeglut</title>
<path fill="none" stroke="#000000" d="M783.6326,-215.8314C785.3438,-208.131 787.3786,-198.9743 789.2803,-190.4166"/>
<polygon fill="#000000" stroke="#000000" points="792.7506,-190.9344 791.5033,-180.4133 785.9173,-189.4159 792.7506,-190.9344"/>
</g>
<!-- libglu&#45;&gt;root -->
<g id="edge10" class="edge">
<title>libglu&#45;&gt;root</title>
<path fill="none" stroke="#000000" d="M808.9231,-221.3294C825.5981,-212.4089 845.0127,-198.7071 854.5952,-180 861.8896,-165.7595 861.8442,-158.2637 854.5952,-144 846.0419,-127.17 829.5105,-114.3375 814.2385,-105.4138"/>
<polygon fill="#000000" stroke="#000000" points="815.9145,-102.3412 805.462,-100.6106 812.554,-108.4818 815.9145,-102.3412"/>
</g>
<!-- libsndfile -->
<g id="node9" class="node">
<title>libsndfile</title>
<ellipse fill="#fde725" stroke="#000000" cx="1478.5952" cy="-162" rx="59.5901" ry="18"/>
<text text-anchor="middle" x="1478.5952" y="-158.3" font-family="Times,serif" font-size="14.00" fill="#000000">libsndfile</text>
</g>
<!-- r&#45;base -->
<g id="node20" class="node">
<title>r&#45;base</title>
<ellipse fill="#fde725" stroke="#000000" cx="1331.5952" cy="-90" rx="40.0939" ry="18"/>
<text text-anchor="middle" x="1331.5952" y="-86.3" font-family="Times,serif" font-size="14.00" fill="#000000">r base</text>
</g>
<!-- libsndfile&#45;&gt;r&#45;base -->
<g id="edge11" class="edge">
<title>libsndfile&#45;&gt;r&#45;base</title>
<path fill="none" stroke="#000000" d="M1447.06,-146.5542C1423.9724,-135.246 1392.5771,-119.8687 1368.3515,-108.0031"/>
<polygon fill="#000000" stroke="#000000" points="1369.6396,-104.7368 1359.1194,-103.4813 1366.5605,-111.0232 1369.6396,-104.7368"/>
</g>
<!-- llvmlite -->
<g id="node10" class="node">
<title>llvmlite</title>
<ellipse fill="#31688e" stroke="#000000" cx="1693.5952" cy="-306" rx="50.0912" ry="18"/>
<text text-anchor="middle" x="1693.5952" y="-302.3" font-family="Times,serif" font-size="14.00" fill="#ffffff">llvmlite</text>
</g>
<!-- numba -->
<g id="node27" class="node">
<title>numba</title>
<ellipse fill="#fde725" stroke="#000000" cx="1693.5952" cy="-234" rx="35.194" ry="18"/>
<text text-anchor="middle" x="1693.5952" y="-230.3" font-family="Times,serif" font-size="14.00" fill="#000000">numba</text>
</g>
<!-- llvmlite&#45;&gt;numba -->
<g id="edge12" class="edge">
<title>llvmlite&#45;&gt;numba</title>
<path fill="none" stroke="#000000" d="M1693.5952,-287.8314C1693.5952,-280.131 1693.5952,-270.9743 1693.5952,-262.4166"/>
<polygon fill="#000000" stroke="#000000" points="1697.0953,-262.4132 1693.5952,-252.4133 1690.0953,-262.4133 1697.0953,-262.4132"/>
</g>
<!-- matplotlib -->
<g id="node11" class="node">
<title>matplotlib</title>
<ellipse fill="#fde725" stroke="#000000" cx="985.5952" cy="-18" rx="59.5901" ry="18"/>
<text text-anchor="middle" x="985.5952" y="-14.3" font-family="Times,serif" font-size="14.00" fill="#000000">matplotlib</text>
</g>
<!-- mpc -->
<g id="node12" class="node">
<title>mpc</title>
<ellipse fill="#fde725" stroke="#000000" cx="1140.5952" cy="-162" rx="27" ry="18"/>
<text text-anchor="middle" x="1140.5952" y="-158.3" font-family="Times,serif" font-size="14.00" fill="#000000">mpc</text>
</g>
<!-- mpc&#45;&gt;gmpy2 -->
<g id="edge13" class="edge">
<title>mpc&#45;&gt;gmpy2</title>
<path fill="none" stroke="#000000" d="M1140.5952,-143.8314C1140.5952,-136.131 1140.5952,-126.9743 1140.5952,-118.4166"/>
<polygon fill="#000000" stroke="#000000" points="1144.0953,-118.4132 1140.5952,-108.4133 1137.0953,-118.4133 1144.0953,-118.4132"/>
</g>
<!-- mpfr -->
<g id="node13" class="node">
<title>mpfr</title>
<ellipse fill="#fde725" stroke="#000000" cx="1197.5952" cy="-234" rx="30.5947" ry="18"/>
<text text-anchor="middle" x="1197.5952" y="-230.3" font-family="Times,serif" font-size="14.00" fill="#000000">mpfr</text>
</g>
<!-- mpfr&#45;&gt;gmpy2 -->
<g id="edge14" class="edge">
<title>mpfr&#45;&gt;gmpy2</title>
<path fill="none" stroke="#000000" d="M1195.3062,-215.8102C1192.519,-197.1908 1186.8593,-167.7053 1176.5952,-144 1172.2973,-134.0739 1166.1603,-123.9986 1160.1679,-115.2819"/>
<polygon fill="#000000" stroke="#000000" points="1162.9616,-113.1714 1154.2973,-107.0739 1157.268,-117.2437 1162.9616,-113.1714"/>
</g>
<!-- mpfr&#45;&gt;mpc -->
<g id="edge15" class="edge">
<title>mpfr&#45;&gt;mpc</title>
<path fill="none" stroke="#000000" d="M1184.661,-217.6621C1177.3003,-208.3644 1167.9414,-196.5426 1159.7434,-186.1873"/>
<polygon fill="#000000" stroke="#000000" points="1162.4294,-183.9413 1153.4782,-178.2733 1156.9411,-188.2862 1162.4294,-183.9413"/>
</g>
<!-- mpfr&#45;&gt;r&#45;base -->
<g id="edge16" class="edge">
<title>mpfr&#45;&gt;r&#45;base</title>
<path fill="none" stroke="#000000" d="M1205.614,-216.2711C1214.9507,-196.9595 1231.7827,-165.903 1252.5952,-144 1265.3889,-130.536 1282.0747,-118.5331 1296.8132,-109.283"/>
<polygon fill="#000000" stroke="#000000" points="1298.9582,-112.0751 1305.6863,-103.8908 1295.3228,-106.0931 1298.9582,-112.0751"/>
</g>
<!-- texlive&#45;core -->
<g id="node22" class="node">
<title>texlive&#45;core</title>
<ellipse fill="#fde725" stroke="#000000" cx="1331.5952" cy="-162" rx="69.5877" ry="18"/>
<text text-anchor="middle" x="1331.5952" y="-158.3" font-family="Times,serif" font-size="14.00" fill="#000000">texlive core</text>
</g>
<!-- mpfr&#45;&gt;texlive&#45;core -->
<g id="edge17" class="edge">
<title>mpfr&#45;&gt;texlive&#45;core</title>
<path fill="none" stroke="#000000" d="M1220.3264,-221.7862C1239.9703,-211.2312 1268.8039,-195.7386 1292.1971,-183.1691"/>
<polygon fill="#000000" stroke="#000000" points="1294.0388,-186.1528 1301.1911,-178.3365 1290.7255,-179.9866 1294.0388,-186.1528"/>
</g>
<!-- mpir -->
<g id="node14" class="node">
<title>mpir</title>
<ellipse fill="#31688e" stroke="#000000" cx="1138.5952" cy="-306" rx="30.5947" ry="18"/>
<text text-anchor="middle" x="1138.5952" y="-302.3" font-family="Times,serif" font-size="14.00" fill="#ffffff">mpir</text>
</g>
<!-- mpir&#45;&gt;gmpy2 -->
<g id="edge18" class="edge">
<title>mpir&#45;&gt;gmpy2</title>
<path fill="none" stroke="#000000" d="M1129.3589,-288.7269C1114.6142,-258.838 1088.939,-195.7088 1104.5952,-144 1107.7297,-133.6475 1113.5758,-123.4656 1119.659,-114.7822"/>
<polygon fill="#000000" stroke="#000000" points="1122.5538,-116.7551 1125.7297,-106.6475 1116.9438,-112.5685 1122.5538,-116.7551"/>
</g>
<!-- mpir&#45;&gt;mpc -->
<g id="edge19" class="edge">
<title>mpir&#45;&gt;mpc</title>
<path fill="none" stroke="#000000" d="M1138.8485,-287.7623C1139.1896,-263.201 1139.8001,-219.2474 1140.2013,-190.3541"/>
<polygon fill="#000000" stroke="#000000" points="1143.7046,-190.1373 1140.3439,-180.0896 1136.7053,-190.04 1143.7046,-190.1373"/>
</g>
<!-- mpir&#45;&gt;mpfr -->
<g id="edge20" class="edge">
<title>mpir&#45;&gt;mpfr</title>
<path fill="none" stroke="#000000" d="M1151.9832,-289.6621C1159.6021,-280.3644 1169.2894,-268.5426 1177.775,-258.1873"/>
<polygon fill="#000000" stroke="#000000" points="1180.629,-260.2265 1184.2601,-250.2733 1175.2147,-255.7897 1180.629,-260.2265"/>
</g>
<!-- cvxpy -->
<g id="node33" class="node">
<title>cvxpy</title>
<ellipse fill="#fde725" stroke="#000000" cx="344.5952" cy="-162" rx="35.194" ry="18"/>
<text text-anchor="middle" x="344.5952" y="-158.3" font-family="Times,serif" font-size="14.00" fill="#000000">cvxpy</text>
</g>
<!-- multiprocess&#45;&gt;cvxpy -->
<g id="edge21" class="edge">
<title>multiprocess&#45;&gt;cvxpy</title>
<path fill="none" stroke="#000000" d="M221.2689,-218.1993C247.32,-206.3279 282.8793,-190.1237 309.1222,-178.1649"/>
<polygon fill="#000000" stroke="#000000" points="310.6859,-181.2987 318.3342,-173.967 307.7832,-174.9289 310.6859,-181.2987"/>
</g>
<!-- opencv -->
<g id="node16" class="node">
<title>opencv</title>
<ellipse fill="#fde725" stroke="#000000" cx="896.5952" cy="-90" rx="40.0939" ry="18"/>
<text text-anchor="middle" x="896.5952" y="-86.3" font-family="Times,serif" font-size="14.00" fill="#000000">opencv</text>
</g>
<!-- pyqt -->
<g id="node18" class="node">
<title>pyqt</title>
<ellipse fill="#fde725" stroke="#000000" cx="985.5952" cy="-90" rx="30.5947" ry="18"/>
<text text-anchor="middle" x="985.5952" y="-86.3" font-family="Times,serif" font-size="14.00" fill="#000000">pyqt</text>
</g>
<!-- pyqt&#45;&gt;matplotlib -->
<g id="edge22" class="edge">
<title>pyqt&#45;&gt;matplotlib</title>
<path fill="none" stroke="#000000" d="M985.5952,-71.8314C985.5952,-64.131 985.5952,-54.9743 985.5952,-46.4166"/>
<polygon fill="#000000" stroke="#000000" points="989.0953,-46.4132 985.5952,-36.4133 982.0953,-46.4133 989.0953,-46.4132"/>
</g>
<!-- qt&#45;&gt;opencv -->
<g id="edge23" class="edge">
<title>qt&#45;&gt;opencv</title>
<path fill="none" stroke="#000000" d="M945.9251,-146.3771C937.7927,-137.0829 927.2963,-125.087 918.0775,-114.5513"/>
<polygon fill="#000000" stroke="#000000" points="920.5564,-112.0691 911.3373,-106.8481 915.2883,-116.6787 920.5564,-112.0691"/>
</g>
<!-- qt&#45;&gt;pyqt -->
<g id="edge24" class="edge">
<title>qt&#45;&gt;pyqt</title>
<path fill="none" stroke="#000000" d="M966.0221,-144.2022C968.9284,-136.1541 972.4295,-126.4588 975.6622,-117.5067"/>
<polygon fill="#000000" stroke="#000000" points="979.0474,-118.4369 979.152,-107.8425 972.4636,-116.0593 979.0474,-118.4369"/>
</g>
<!-- qt&#45;&gt;root -->
<g id="edge25" class="edge">
<title>qt&#45;&gt;root</title>
<path fill="none" stroke="#000000" d="M936.194,-152.5873C905.4433,-140.2182 851.1713,-118.3882 815.544,-104.0576"/>
<polygon fill="#000000" stroke="#000000" points="816.6085,-100.7133 806.0247,-100.2286 813.9962,-107.2076 816.6085,-100.7133"/>
</g>
<!-- texlive&#45;core&#45;&gt;r&#45;base -->
<g id="edge26" class="edge">
<title>texlive&#45;core&#45;&gt;r&#45;base</title>
<path fill="none" stroke="#000000" d="M1331.5952,-143.8314C1331.5952,-136.131 1331.5952,-126.9743 1331.5952,-118.4166"/>
<polygon fill="#000000" stroke="#000000" points="1335.0953,-118.4132 1331.5952,-108.4133 1328.0953,-118.4133 1335.0953,-118.4132"/>
</g>
<!-- libogg -->
<g id="node24" class="node">
<title>libogg</title>
<ellipse fill="#31688e" stroke="#000000" cx="1478.5952" cy="-306" rx="40.0939" ry="18"/>
<text text-anchor="middle" x="1478.5952" y="-302.3" font-family="Times,serif" font-size="14.00" fill="#ffffff">libogg</text>
</g>
<!-- libogg&#45;&gt;libsndfile -->
<g id="edge28" class="edge">
<title>libogg&#45;&gt;libsndfile</title>
<path fill="none" stroke="#000000" d="M1452.8048,-291.8735C1438.6869,-282.5863 1422.4977,-269.0074 1414.5952,-252 1407.853,-237.4899 1407.853,-230.5101 1414.5952,-216 1420.502,-203.2877 1431.0385,-192.4909 1441.8792,-183.97"/>
<polygon fill="#000000" stroke="#000000" points="1444.1598,-186.6379 1450.1568,-177.9037 1440.022,-180.9918 1444.1598,-186.6379"/>
</g>
<!-- libvorbis -->
<g id="node25" class="node">
<title>libvorbis</title>
<ellipse fill="#fde725" stroke="#000000" cx="1478.5952" cy="-234" rx="54.6905" ry="18"/>
<text text-anchor="middle" x="1478.5952" y="-230.3" font-family="Times,serif" font-size="14.00" fill="#000000">libvorbis</text>
</g>
<!-- libogg&#45;&gt;libvorbis -->
<g id="edge29" class="edge">
<title>libogg&#45;&gt;libvorbis</title>
<path fill="none" stroke="#000000" d="M1478.5952,-287.8314C1478.5952,-280.131 1478.5952,-270.9743 1478.5952,-262.4166"/>
<polygon fill="#000000" stroke="#000000" points="1482.0953,-262.4132 1478.5952,-252.4133 1475.0953,-262.4133 1482.0953,-262.4132"/>
</g>
<!-- libflac -->
<g id="node26" class="node">
<title>libflac</title>
<ellipse fill="#fde725" stroke="#000000" cx="1595.5952" cy="-234" rx="44.6926" ry="18"/>
<text text-anchor="middle" x="1595.5952" y="-230.3" font-family="Times,serif" font-size="14.00" fill="#000000">libflac</text>
</g>
<!-- libogg&#45;&gt;libflac -->
<g id="edge27" class="edge">
<title>libogg&#45;&gt;libflac</title>
<path fill="none" stroke="#000000" d="M1502.2719,-291.4297C1519.4497,-280.8587 1542.926,-266.4118 1562.0345,-254.6527"/>
<polygon fill="#000000" stroke="#000000" points="1564.06,-257.516 1570.7422,-249.2941 1560.3913,-251.5543 1564.06,-257.516"/>
</g>
<!-- libvorbis&#45;&gt;libsndfile -->
<g id="edge30" class="edge">
<title>libvorbis&#45;&gt;libsndfile</title>
<path fill="none" stroke="#000000" d="M1478.5952,-215.8314C1478.5952,-208.131 1478.5952,-198.9743 1478.5952,-190.4166"/>
<polygon fill="#000000" stroke="#000000" points="1482.0953,-190.4132 1478.5952,-180.4133 1475.0953,-190.4133 1482.0953,-190.4132"/>
</g>
<!-- libflac&#45;&gt;libsndfile -->
<g id="edge31" class="edge">
<title>libflac&#45;&gt;libsndfile</title>
<path fill="none" stroke="#000000" d="M1571.0681,-218.9064C1554.4836,-208.7006 1532.3244,-195.0642 1513.8555,-183.6987"/>
<polygon fill="#000000" stroke="#000000" points="1515.4769,-180.5869 1505.126,-178.3267 1511.8082,-186.5485 1515.4769,-180.5869"/>
</g>
<!-- nspr -->
<g id="node28" class="node">
<title>nspr</title>
<ellipse fill="#31688e" stroke="#000000" cx="1002.5952" cy="-306" rx="30.5947" ry="18"/>
<text text-anchor="middle" x="1002.5952" y="-302.3" font-family="Times,serif" font-size="14.00" fill="#ffffff">nspr</text>
</g>
<!-- nspr&#45;&gt;qt -->
<g id="edge33" class="edge">
<title>nspr&#45;&gt;qt</title>
<path fill="none" stroke="#000000" d="M997.2361,-288.0535C989.8573,-263.3431 976.5011,-218.6152 967.8438,-189.6234"/>
<polygon fill="#000000" stroke="#000000" points="971.1017,-188.3008 964.8867,-179.7204 964.3943,-190.3037 971.1017,-188.3008"/>
</g>
<!-- nss -->
<g id="node29" class="node">
<title>nss</title>
<ellipse fill="#fde725" stroke="#000000" cx="1030.5952" cy="-234" rx="27" ry="18"/>
<text text-anchor="middle" x="1030.5952" y="-230.3" font-family="Times,serif" font-size="14.00" fill="#000000">nss</text>
</g>
<!-- nspr&#45;&gt;nss -->
<g id="edge32" class="edge">
<title>nspr&#45;&gt;nss</title>
<path fill="none" stroke="#000000" d="M1009.5165,-288.2022C1012.7038,-280.0064 1016.5553,-270.1024 1020.0895,-261.0145"/>
<polygon fill="#000000" stroke="#000000" points="1023.3909,-262.1817 1023.7534,-251.593 1016.8669,-259.6445 1023.3909,-262.1817"/>
</g>
<!-- nss&#45;&gt;qt -->
<g id="edge34" class="edge">
<title>nss&#45;&gt;qt</title>
<path fill="none" stroke="#000000" d="M1015.5379,-218.7307C1005.7481,-208.803 992.812,-195.6847 981.8454,-184.5637"/>
<polygon fill="#000000" stroke="#000000" points="984.1443,-181.9102 974.6307,-177.2473 979.1601,-186.8252 984.1443,-181.9102"/>
</g>
<!-- osqp -->
<g id="node30" class="node">
<title>osqp</title>
<ellipse fill="#31688e" stroke="#000000" cx="304.5952" cy="-234" rx="30.5947" ry="18"/>
<text text-anchor="middle" x="304.5952" y="-230.3" font-family="Times,serif" font-size="14.00" fill="#ffffff">osqp</text>
</g>
<!-- osqp&#45;&gt;cvxpy -->
<g id="edge35" class="edge">
<title>osqp&#45;&gt;cvxpy</title>
<path fill="none" stroke="#000000" d="M314.278,-216.5708C318.9601,-208.1431 324.681,-197.8455 329.8866,-188.4755"/>
<polygon fill="#000000" stroke="#000000" points="333.0659,-189.9596 334.8628,-179.5182 326.9468,-186.5601 333.0659,-189.9596"/>
</g>
<!-- ecos -->
<g id="node31" class="node">
<title>ecos</title>
<ellipse fill="#31688e" stroke="#000000" cx="383.5952" cy="-234" rx="30.5947" ry="18"/>
<text text-anchor="middle" x="383.5952" y="-230.3" font-family="Times,serif" font-size="14.00" fill="#ffffff">ecos</text>
</g>
<!-- ecos&#45;&gt;cvxpy -->
<g id="edge36" class="edge">
<title>ecos&#45;&gt;cvxpy</title>
<path fill="none" stroke="#000000" d="M374.1543,-216.5708C369.5893,-208.1431 364.0115,-197.8455 358.936,-188.4755"/>
<polygon fill="#000000" stroke="#000000" points="361.9246,-186.6442 354.0842,-179.5182 355.7696,-189.9782 361.9246,-186.6442"/>
</g>
<!-- scs -->
<g id="node32" class="node">
<title>scs</title>
<ellipse fill="#31688e" stroke="#000000" cx="459.5952" cy="-234" rx="27" ry="18"/>
<text text-anchor="middle" x="459.5952" y="-230.3" font-family="Times,serif" font-size="14.00" fill="#ffffff">scs</text>
</g>
<!-- scs&#45;&gt;cvxpy -->
<g id="edge37" class="edge">
<title>scs&#45;&gt;cvxpy</title>
<path fill="none" stroke="#000000" d="M439.826,-221.6228C422.1486,-210.5552 395.9531,-194.1545 375.5081,-181.3542"/>
<polygon fill="#000000" stroke="#000000" points="377.1888,-178.2771 366.8556,-175.937 373.4742,-184.2102 377.1888,-178.2771"/>
</g>
<!-- autotools_clang_conda -->
<g id="node35" class="node">
<title>autotools_clang_conda</title>
<ellipse fill="#31688e" stroke="#000000" cx="1874.5952" cy="-306" rx="113.18" ry="18"/>
<text text-anchor="middle" x="1874.5952" y="-302.3" font-family="Times,serif" font-size="14.00" fill="#ffffff">autotools_clang_conda</text>
</g>
<!-- binutils_ -->
<g id="node36" class="node">
<title>binutils_</title>
<ellipse fill="#35b779" stroke="#000000" cx="2060.5952" cy="-306" rx="54.6905" ry="18"/>
<text text-anchor="middle" x="2060.5952" y="-302.3" font-family="Times,serif" font-size="14.00" fill="#000000">binutils_</text>
</g>
</g>
</svg>
