<?xml version="1.0" encoding="UTF-8" standalone="no"?>
<!DOCTYPE svg PUBLIC "-//W3C//DTD SVG 1.1//EN"
 "http://www.w3.org/Graphics/SVG/1.1/DTD/svg11.dtd">
<!-- Generated by graphviz version 2.40.1 (20161225.0304)
 -->
<!-- Title: %3 Pages: 1 -->
<svg width="2310pt" height="476pt"
 viewBox="0.00 0.00 2310.38 476.00" xmlns="http://www.w3.org/2000/svg" xmlns:xlink="http://www.w3.org/1999/xlink">
<g id="graph0" class="graph" transform="scale(1 1) rotate(0) translate(4 472)">
<title>%3</title>
<polygon fill="#ffffff" stroke="transparent" points="-4,4 -4,-472 2306.3829,-472 2306.3829,4 -4,4"/>
<!-- arrow&#45;cpp -->
<g id="node1" class="node">
<title>arrow&#45;cpp</title>
<ellipse fill="#31688e" stroke="#000000" cx="54.5952" cy="-450" rx="54.6905" ry="18"/>
<text text-anchor="middle" x="54.5952" y="-446.3" font-family="Times,serif" font-size="14.00" fill="#ffffff">arrow cpp</text>
</g>
<!-- pyarrow -->
<g id="node23" class="node">
<title>pyarrow</title>
<ellipse fill="#fde725" stroke="#000000" cx="54.5952" cy="-378" rx="44.6926" ry="18"/>
<text text-anchor="middle" x="54.5952" y="-374.3" font-family="Times,serif" font-size="14.00" fill="#000000">pyarrow</text>
</g>
<!-- arrow&#45;cpp&#45;&gt;pyarrow -->
<g id="edge1" class="edge">
<title>arrow&#45;cpp&#45;&gt;pyarrow</title>
<path fill="none" stroke="#000000" d="M54.5952,-431.8314C54.5952,-424.131 54.5952,-414.9743 54.5952,-406.4166"/>
<polygon fill="#000000" stroke="#000000" points="58.0953,-406.4132 54.5952,-396.4133 51.0953,-406.4133 58.0953,-406.4132"/>
</g>
<!-- future -->
<g id="node2" class="node">
<title>future</title>
<ellipse fill="#000000" stroke="#000000" cx="623.5952" cy="-450" rx="40.0939" ry="18"/>
<text text-anchor="middle" x="623.5952" y="-446.3" font-family="Times,serif" font-size="14.00" fill="#ffffff">future</text>
</g>
<!-- glew -->
<g id="node3" class="node">
<title>glew</title>
<ellipse fill="#fde725" stroke="#000000" cx="58.5952" cy="-306" rx="30.5947" ry="18"/>
<text text-anchor="middle" x="58.5952" y="-302.3" font-family="Times,serif" font-size="14.00" fill="#000000">glew</text>
</g>
<!-- root -->
<g id="node40" class="node">
<title>root</title>
<ellipse fill="#fde725" stroke="#000000" cx="577.5952" cy="-234" rx="30.5947" ry="18"/>
<text text-anchor="middle" x="577.5952" y="-230.3" font-family="Times,serif" font-size="14.00" fill="#000000">root</text>
</g>
<!-- glew&#45;&gt;root -->
<g id="edge2" class="edge">
<title>glew&#45;&gt;root</title>
<path fill="none" stroke="#000000" d="M81.8338,-294.0867C87.2206,-291.7381 93.0135,-289.5301 98.5952,-288 181.125,-265.3761 437.4923,-244.4366 537.2767,-236.9289"/>
<polygon fill="#000000" stroke="#000000" points="537.5561,-240.4179 547.2676,-236.1828 537.0347,-233.4373 537.5561,-240.4179"/>
</g>
<!-- gstreamer -->
<g id="node4" class="node">
<title>gstreamer</title>
<ellipse fill="#31688e" stroke="#000000" cx="1014.5952" cy="-378" rx="54.6905" ry="18"/>
<text text-anchor="middle" x="1014.5952" y="-374.3" font-family="Times,serif" font-size="14.00" fill="#ffffff">gstreamer</text>
</g>
<!-- qt -->
<g id="node25" class="node">
<title>qt</title>
<ellipse fill="#fde725" stroke="#000000" cx="1014.5952" cy="-306" rx="27" ry="18"/>
<text text-anchor="middle" x="1014.5952" y="-302.3" font-family="Times,serif" font-size="14.00" fill="#000000">qt</text>
</g>
<!-- gstreamer&#45;&gt;qt -->
<g id="edge3" class="edge">
<title>gstreamer&#45;&gt;qt</title>
<path fill="none" stroke="#000000" d="M1014.5952,-359.8314C1014.5952,-352.131 1014.5952,-342.9743 1014.5952,-334.4166"/>
<polygon fill="#000000" stroke="#000000" points="1018.0953,-334.4132 1014.5952,-324.4133 1011.0953,-334.4133 1018.0953,-334.4132"/>
</g>
<!-- hdf5 -->
<g id="node5" class="node">
<title>hdf5</title>
<ellipse fill="#000000" stroke="#000000" cx="1263.5952" cy="-306" rx="30.5947" ry="18"/>
<text text-anchor="middle" x="1263.5952" y="-302.3" font-family="Times,serif" font-size="14.00" fill="#ffffff">hdf5</text>
</g>
<!-- opencv -->
<g id="node18" class="node">
<title>opencv</title>
<ellipse fill="#fde725" stroke="#000000" cx="1326.5952" cy="-234" rx="40.0939" ry="18"/>
<text text-anchor="middle" x="1326.5952" y="-230.3" font-family="Times,serif" font-size="14.00" fill="#000000">opencv</text>
</g>
<!-- hdf5&#45;&gt;opencv -->
<g id="edge4" class="edge">
<title>hdf5&#45;&gt;opencv</title>
<path fill="none" stroke="#000000" d="M1277.8908,-289.6621C1285.9912,-280.4046 1296.281,-268.6447 1305.3137,-258.3217"/>
<polygon fill="#000000" stroke="#000000" points="1307.9678,-260.6035 1311.9189,-250.7729 1302.6998,-255.9939 1307.9678,-260.6035"/>
</g>
<!-- ipyparallel -->
<g id="node6" class="node">
<title>ipyparallel</title>
<ellipse fill="#31688e" stroke="#000000" cx="650.5952" cy="-306" rx="64.189" ry="18"/>
<text text-anchor="middle" x="650.5952" y="-302.3" font-family="Times,serif" font-size="14.00" fill="#ffffff">ipyparallel</text>
</g>
<!-- ipyparallel&#45;&gt;root -->
<g id="edge5" class="edge">
<title>ipyparallel&#45;&gt;root</title>
<path fill="none" stroke="#000000" d="M632.9239,-288.5708C623.2807,-279.0597 611.2229,-267.1671 600.8273,-256.9139"/>
<polygon fill="#000000" stroke="#000000" points="603.1871,-254.3254 593.6097,-249.7951 598.2716,-259.3092 603.1871,-254.3254"/>
</g>
<!-- ipython -->
<g id="node7" class="node">
<title>ipython</title>
<ellipse fill="#000000" stroke="#000000" cx="621.5952" cy="-378" rx="44.6926" ry="18"/>
<text text-anchor="middle" x="621.5952" y="-374.3" font-family="Times,serif" font-size="14.00" fill="#ffffff">ipython</text>
</g>
<!-- ipython&#45;&gt;ipyparallel -->
<g id="edge6" class="edge">
<title>ipython&#45;&gt;ipyparallel</title>
<path fill="none" stroke="#000000" d="M628.7637,-360.2022C632.0155,-352.1287 635.935,-342.3976 639.5502,-333.422"/>
<polygon fill="#000000" stroke="#000000" points="642.818,-334.6766 643.3076,-324.0931 636.3249,-332.0613 642.818,-334.6766"/>
</g>
<!-- jupyter_client -->
<g id="node8" class="node">
<title>jupyter_client</title>
<ellipse fill="#31688e" stroke="#000000" cx="763.5952" cy="-378" rx="79.0865" ry="18"/>
<text text-anchor="middle" x="763.5952" y="-374.3" font-family="Times,serif" font-size="14.00" fill="#ffffff">jupyter_client</text>
</g>
<!-- jupyter_client&#45;&gt;ipyparallel -->
<g id="edge7" class="edge">
<title>jupyter_client&#45;&gt;ipyparallel</title>
<path fill="none" stroke="#000000" d="M736.8157,-360.937C721.507,-351.1828 702.1288,-338.8356 685.6229,-328.3186"/>
<polygon fill="#000000" stroke="#000000" points="687.1069,-325.114 676.7925,-322.6921 683.3453,-331.0175 687.1069,-325.114"/>
</g>
<!-- nbconvert -->
<g id="node16" class="node">
<title>nbconvert</title>
<ellipse fill="#000000" stroke="#000000" cx="914.5952" cy="-306" rx="54.6905" ry="18"/>
<text text-anchor="middle" x="914.5952" y="-302.3" font-family="Times,serif" font-size="14.00" fill="#ffffff">nbconvert</text>
</g>
<!-- jupyter_client&#45;&gt;nbconvert -->
<g id="edge8" class="edge">
<title>jupyter_client&#45;&gt;nbconvert</title>
<path fill="none" stroke="#000000" d="M797.8594,-361.6621C820.5205,-350.8568 850.331,-336.6425 874.1548,-325.2828"/>
<polygon fill="#000000" stroke="#000000" points="875.775,-328.3879 883.295,-320.9246 872.7622,-322.0694 875.775,-328.3879"/>
</g>
<!-- libglu -->
<g id="node9" class="node">
<title>libglu</title>
<ellipse fill="#31688e" stroke="#000000" cx="157.5952" cy="-378" rx="40.0939" ry="18"/>
<text text-anchor="middle" x="157.5952" y="-374.3" font-family="Times,serif" font-size="14.00" fill="#ffffff">libglu</text>
</g>
<!-- libglu&#45;&gt;glew -->
<g id="edge10" class="edge">
<title>libglu&#45;&gt;glew</title>
<path fill="none" stroke="#000000" d="M136.1136,-362.3771C121.5268,-351.7685 102.0999,-337.6398 86.3434,-326.1806"/>
<polygon fill="#000000" stroke="#000000" points="88.1675,-323.1794 78.0215,-320.1282 84.0503,-328.8406 88.1675,-323.1794"/>
</g>
<!-- freeglut -->
<g id="node30" class="node">
<title>freeglut</title>
<ellipse fill="#fde725" stroke="#000000" cx="157.5952" cy="-306" rx="50.0912" ry="18"/>
<text text-anchor="middle" x="157.5952" y="-302.3" font-family="Times,serif" font-size="14.00" fill="#000000">freeglut</text>
</g>
<!-- libglu&#45;&gt;freeglut -->
<g id="edge9" class="edge">
<title>libglu&#45;&gt;freeglut</title>
<path fill="none" stroke="#000000" d="M157.5952,-359.8314C157.5952,-352.131 157.5952,-342.9743 157.5952,-334.4166"/>
<polygon fill="#000000" stroke="#000000" points="161.0953,-334.4132 157.5952,-324.4133 154.0953,-334.4133 161.0953,-334.4132"/>
</g>
<!-- libglu&#45;&gt;root -->
<g id="edge11" class="edge">
<title>libglu&#45;&gt;root</title>
<path fill="none" stroke="#000000" d="M175.4832,-361.7744C187.2192,-351.093 202.8764,-336.7747 216.5952,-324 233.621,-308.1458 233.7698,-298.3702 254.5952,-288 303.6888,-263.5533 462.2307,-245.2849 537.3748,-237.7668"/>
<polygon fill="#000000" stroke="#000000" points="537.7962,-241.2423 547.4044,-236.7778 537.1092,-234.2761 537.7962,-241.2423"/>
</g>
<!-- librsvg -->
<g id="node10" class="node">
<title>librsvg</title>
<ellipse fill="#31688e" stroke="#000000" cx="367.5952" cy="-378" rx="44.6926" ry="18"/>
<text text-anchor="middle" x="367.5952" y="-374.3" font-family="Times,serif" font-size="14.00" fill="#ffffff">librsvg</text>
</g>
<!-- afterimage -->
<g id="node39" class="node">
<title>afterimage</title>
<ellipse fill="#fde725" stroke="#000000" cx="323.5952" cy="-306" rx="59.5901" ry="18"/>
<text text-anchor="middle" x="323.5952" y="-302.3" font-family="Times,serif" font-size="14.00" fill="#000000">afterimage</text>
</g>
<!-- librsvg&#45;&gt;afterimage -->
<g id="edge12" class="edge">
<title>librsvg&#45;&gt;afterimage</title>
<path fill="none" stroke="#000000" d="M356.7187,-360.2022C351.6418,-351.8944 345.4922,-341.8316 339.8768,-332.6427"/>
<polygon fill="#000000" stroke="#000000" points="342.7,-330.5503 334.4989,-323.8425 336.727,-334.2005 342.7,-330.5503"/>
</g>
<!-- librsvg&#45;&gt;root -->
<g id="edge13" class="edge">
<title>librsvg&#45;&gt;root</title>
<path fill="none" stroke="#000000" d="M375.9926,-359.9749C386.2362,-339.8092 405.3559,-307.4293 430.5952,-288 462.5743,-263.3823 506.8899,-249.1578 538.4847,-241.5505"/>
<polygon fill="#000000" stroke="#000000" points="539.2991,-244.9547 548.2639,-239.3083 537.7346,-238.1317 539.2991,-244.9547"/>
</g>
<!-- libsndfile -->
<g id="node11" class="node">
<title>libsndfile</title>
<ellipse fill="#fde725" stroke="#000000" cx="1156.5952" cy="-90" rx="59.5901" ry="18"/>
<text text-anchor="middle" x="1156.5952" y="-86.3" font-family="Times,serif" font-size="14.00" fill="#000000">libsndfile</text>
</g>
<!-- r&#45;base -->
<g id="node26" class="node">
<title>r&#45;base</title>
<ellipse fill="#fde725" stroke="#000000" cx="1293.5952" cy="-18" rx="40.0939" ry="18"/>
<text text-anchor="middle" x="1293.5952" y="-14.3" font-family="Times,serif" font-size="14.00" fill="#000000">r base</text>
</g>
<!-- libsndfile&#45;&gt;r&#45;base -->
<g id="edge14" class="edge">
<title>libsndfile&#45;&gt;r&#45;base</title>
<path fill="none" stroke="#000000" d="M1186.3221,-74.3771C1207.3932,-63.3032 1235.7627,-48.3937 1258.0347,-36.6887"/>
<polygon fill="#000000" stroke="#000000" points="1259.9438,-39.6394 1267.1675,-31.889 1256.6872,-33.443 1259.9438,-39.6394"/>
</g>
<!-- llvmlite -->
<g id="node12" class="node">
<title>llvmlite</title>
<ellipse fill="#31688e" stroke="#000000" cx="1454.5952" cy="-450" rx="50.0912" ry="18"/>
<text text-anchor="middle" x="1454.5952" y="-446.3" font-family="Times,serif" font-size="14.00" fill="#ffffff">llvmlite</text>
</g>
<!-- numba -->
<g id="node35" class="node">
<title>numba</title>
<ellipse fill="#fde725" stroke="#000000" cx="1454.5952" cy="-378" rx="35.194" ry="18"/>
<text text-anchor="middle" x="1454.5952" y="-374.3" font-family="Times,serif" font-size="14.00" fill="#000000">numba</text>
</g>
<!-- llvmlite&#45;&gt;numba -->
<g id="edge15" class="edge">
<title>llvmlite&#45;&gt;numba</title>
<path fill="none" stroke="#000000" d="M1454.5952,-431.8314C1454.5952,-424.131 1454.5952,-414.9743 1454.5952,-406.4166"/>
<polygon fill="#000000" stroke="#000000" points="1458.0953,-406.4132 1454.5952,-396.4133 1451.0953,-406.4133 1458.0953,-406.4132"/>
</g>
<!-- matplotlib -->
<g id="node13" class="node">
<title>matplotlib</title>
<ellipse fill="#fde725" stroke="#000000" cx="916.5952" cy="-162" rx="59.5901" ry="18"/>
<text text-anchor="middle" x="916.5952" y="-158.3" font-family="Times,serif" font-size="14.00" fill="#000000">matplotlib</text>
</g>
<!-- mpfr -->
<g id="node14" class="node">
<title>mpfr</title>
<ellipse fill="#fde725" stroke="#000000" cx="1298.5952" cy="-162" rx="30.5947" ry="18"/>
<text text-anchor="middle" x="1298.5952" y="-158.3" font-family="Times,serif" font-size="14.00" fill="#000000">mpfr</text>
</g>
<!-- mpfr&#45;&gt;r&#45;base -->
<g id="edge16" class="edge">
<title>mpfr&#45;&gt;r&#45;base</title>
<path fill="none" stroke="#000000" d="M1284.4986,-145.7544C1276.6751,-135.6349 1267.7139,-121.9273 1263.5952,-108 1259.0577,-92.6569 1259.5817,-87.4885 1263.5952,-72 1266.0844,-62.3937 1270.6936,-52.6768 1275.5649,-44.1845"/>
<polygon fill="#000000" stroke="#000000" points="1278.6363,-45.8706 1280.8659,-35.513 1272.6639,-42.2196 1278.6363,-45.8706"/>
</g>
<!-- texlive&#45;core -->
<g id="node28" class="node">
<title>texlive&#45;core</title>
<ellipse fill="#fde725" stroke="#000000" cx="1342.5952" cy="-90" rx="69.5877" ry="18"/>
<text text-anchor="middle" x="1342.5952" y="-86.3" font-family="Times,serif" font-size="14.00" fill="#000000">texlive core</text>
</g>
<!-- mpfr&#45;&gt;texlive&#45;core -->
<g id="edge17" class="edge">
<title>mpfr&#45;&gt;texlive&#45;core</title>
<path fill="none" stroke="#000000" d="M1309.0225,-144.937C1314.1837,-136.4914 1320.5329,-126.1019 1326.3154,-116.6396"/>
<polygon fill="#000000" stroke="#000000" points="1329.4006,-118.3032 1331.6286,-107.9453 1323.4276,-114.653 1329.4006,-118.3032"/>
</g>
<!-- mpir -->
<g id="node15" class="node">
<title>mpir</title>
<ellipse fill="#31688e" stroke="#000000" cx="1237.5952" cy="-234" rx="30.5947" ry="18"/>
<text text-anchor="middle" x="1237.5952" y="-230.3" font-family="Times,serif" font-size="14.00" fill="#ffffff">mpir</text>
</g>
<!-- mpir&#45;&gt;mpfr -->
<g id="edge18" class="edge">
<title>mpir&#45;&gt;mpfr</title>
<path fill="none" stroke="#000000" d="M1251.437,-217.6621C1259.3142,-208.3644 1269.3299,-196.5426 1278.1031,-186.1873"/>
<polygon fill="#000000" stroke="#000000" points="1281.0143,-188.1656 1284.8081,-178.2733 1275.6734,-183.6407 1281.0143,-188.1656"/>
</g>
<!-- openblas -->
<g id="node17" class="node">
<title>openblas</title>
<ellipse fill="#000000" stroke="#000000" cx="1351.5952" cy="-378" rx="50.0912" ry="18"/>
<text text-anchor="middle" x="1351.5952" y="-374.3" font-family="Times,serif" font-size="14.00" fill="#ffffff">openblas</text>
</g>
<!-- openblas&#45;&gt;opencv -->
<g id="edge20" class="edge">
<title>openblas&#45;&gt;opencv</title>
<path fill="none" stroke="#000000" d="M1348.1809,-360.0146C1346.2095,-349.5195 1343.7095,-336.0195 1341.5952,-324 1337.9816,-303.4579 1334.117,-280.2378 1331.2156,-262.5289"/>
<polygon fill="#000000" stroke="#000000" points="1334.6094,-261.5937 1329.5444,-252.288 1327.7007,-262.7212 1334.6094,-261.5937"/>
</g>
<!-- openblas&#45;&gt;r&#45;base -->
<g id="edge21" class="edge">
<title>openblas&#45;&gt;r&#45;base</title>
<path fill="none" stroke="#000000" d="M1379.4569,-363.0362C1394.1897,-353.7135 1411.3078,-340.3762 1421.5952,-324 1443.3417,-289.3821 1440.5952,-274.8816 1440.5952,-234 1440.5952,-234 1440.5952,-234 1440.5952,-162 1440.5952,-121.1184 1447.612,-103.5346 1421.5952,-72 1401.5682,-47.7257 1368.7054,-34.1679 1341.2933,-26.7084"/>
<polygon fill="#000000" stroke="#000000" points="1342.0274,-23.284 1331.4746,-24.2276 1340.3125,-30.0707 1342.0274,-23.284"/>
</g>
<!-- blas -->
<g id="node38" class="node">
<title>blas</title>
<ellipse fill="#000000" stroke="#000000" cx="1381.5952" cy="-306" rx="30.5947" ry="18"/>
<text text-anchor="middle" x="1381.5952" y="-302.3" font-family="Times,serif" font-size="14.00" fill="#ffffff">blas</text>
</g>
<!-- openblas&#45;&gt;blas -->
<g id="edge19" class="edge">
<title>openblas&#45;&gt;blas</title>
<path fill="none" stroke="#000000" d="M1359.1654,-359.8314C1362.5307,-351.7547 1366.5634,-342.0761 1370.2757,-333.1668"/>
<polygon fill="#000000" stroke="#000000" points="1373.5158,-334.4904 1374.1312,-323.9134 1367.0542,-331.798 1373.5158,-334.4904"/>
</g>
<!-- openblas&#45;&gt;root -->
<g id="edge22" class="edge">
<title>openblas&#45;&gt;root</title>
<path fill="none" stroke="#000000" d="M1304.8415,-371.5556C1239.7507,-362.0519 1125.6419,-343.3078 1088.5952,-324 1067.9645,-313.2478 1071.6829,-297.8255 1050.5952,-288 974.0769,-252.3475 718.5135,-239.21 618.3562,-235.3564"/>
<polygon fill="#000000" stroke="#000000" points="618.4451,-231.8574 608.3214,-234.9815 618.1838,-238.8525 618.4451,-231.8574"/>
</g>
<!-- pandoc -->
<g id="node19" class="node">
<title>pandoc</title>
<ellipse fill="#000000" stroke="#000000" cx="901.5952" cy="-378" rx="40.0939" ry="18"/>
<text text-anchor="middle" x="901.5952" y="-374.3" font-family="Times,serif" font-size="14.00" fill="#ffffff">pandoc</text>
</g>
<!-- pandoc&#45;&gt;nbconvert -->
<g id="edge23" class="edge">
<title>pandoc&#45;&gt;nbconvert</title>
<path fill="none" stroke="#000000" d="M904.8756,-359.8314C906.266,-352.131 907.9192,-342.9743 909.4644,-334.4166"/>
<polygon fill="#000000" stroke="#000000" points="912.9379,-334.8761 911.2705,-324.4133 906.0493,-333.6322 912.9379,-334.8761"/>
</g>
<!-- pkgconfig -->
<g id="node20" class="node">
<title>pkgconfig</title>
<ellipse fill="#000000" stroke="#000000" cx="1152.5952" cy="-306" rx="54.6905" ry="18"/>
<text text-anchor="middle" x="1152.5952" y="-302.3" font-family="Times,serif" font-size="14.00" fill="#ffffff">pkgconfig</text>
</g>
<!-- pkgconfig&#45;&gt;opencv -->
<g id="edge26" class="edge">
<title>pkgconfig&#45;&gt;opencv</title>
<path fill="none" stroke="#000000" d="M1186.972,-291.7751C1215.9275,-279.7935 1257.3401,-262.6572 1287.5424,-250.1598"/>
<polygon fill="#000000" stroke="#000000" points="1289.0225,-253.3352 1296.9244,-246.2776 1286.346,-246.8671 1289.0225,-253.3352"/>
</g>
<!-- libogg -->
<g id="node31" class="node">
<title>libogg</title>
<ellipse fill="#31688e" stroke="#000000" cx="1148.5952" cy="-234" rx="40.0939" ry="18"/>
<text text-anchor="middle" x="1148.5952" y="-230.3" font-family="Times,serif" font-size="14.00" fill="#ffffff">libogg</text>
</g>
<!-- pkgconfig&#45;&gt;libogg -->
<g id="edge25" class="edge">
<title>pkgconfig&#45;&gt;libogg</title>
<path fill="none" stroke="#000000" d="M1151.5858,-287.8314C1151.158,-280.131 1150.6493,-270.9743 1150.1739,-262.4166"/>
<polygon fill="#000000" stroke="#000000" points="1153.6675,-262.2037 1149.6181,-252.4133 1146.6783,-262.592 1153.6675,-262.2037"/>
</g>
<!-- libflac -->
<g id="node33" class="node">
<title>libflac</title>
<ellipse fill="#fde725" stroke="#000000" cx="1039.5952" cy="-162" rx="44.6926" ry="18"/>
<text text-anchor="middle" x="1039.5952" y="-158.3" font-family="Times,serif" font-size="14.00" fill="#000000">libflac</text>
</g>
<!-- pkgconfig&#45;&gt;libflac -->
<g id="edge24" class="edge">
<title>pkgconfig&#45;&gt;libflac</title>
<path fill="none" stroke="#000000" d="M1134.0445,-288.7896C1123.4443,-278.5528 1110.1943,-265.0528 1099.5952,-252 1083.0886,-231.6722 1066.7626,-206.7871 1055.3178,-188.3404"/>
<polygon fill="#000000" stroke="#000000" points="1058.1675,-186.2921 1049.9577,-179.5951 1052.1993,-189.9501 1058.1675,-186.2921"/>
</g>
<!-- pkgconfig&#45;&gt;root -->
<g id="edge27" class="edge">
<title>pkgconfig&#45;&gt;root</title>
<path fill="none" stroke="#000000" d="M1111.2232,-294.1397C1102.1745,-291.8457 1092.6072,-289.6469 1083.5952,-288 912.1523,-256.6698 704.4648,-241.5593 618.1977,-236.2753"/>
<polygon fill="#000000" stroke="#000000" points="618.2406,-232.7716 608.0485,-235.6649 617.8203,-239.759 618.2406,-232.7716"/>
</g>
<!-- pluggy -->
<g id="node21" class="node">
<title>pluggy</title>
<ellipse fill="#31688e" stroke="#000000" cx="1562.5952" cy="-450" rx="40.0939" ry="18"/>
<text text-anchor="middle" x="1562.5952" y="-446.3" font-family="Times,serif" font-size="14.00" fill="#ffffff">pluggy</text>
</g>
<!-- portalocker -->
<g id="node22" class="node">
<title>portalocker</title>
<ellipse fill="#31688e" stroke="#000000" cx="503.5952" cy="-306" rx="64.189" ry="18"/>
<text text-anchor="middle" x="503.5952" y="-302.3" font-family="Times,serif" font-size="14.00" fill="#ffffff">portalocker</text>
</g>
<!-- portalocker&#45;&gt;root -->
<g id="edge28" class="edge">
<title>portalocker&#45;&gt;root</title>
<path fill="none" stroke="#000000" d="M521.5085,-288.5708C531.3526,-278.9927 543.679,-266.9995 554.2672,-256.6975"/>
<polygon fill="#000000" stroke="#000000" points="556.8829,-259.0358 561.6094,-249.5537 552.0014,-254.0187 556.8829,-259.0358"/>
</g>
<!-- pyqt -->
<g id="node24" class="node">
<title>pyqt</title>
<ellipse fill="#fde725" stroke="#000000" cx="966.5952" cy="-234" rx="30.5947" ry="18"/>
<text text-anchor="middle" x="966.5952" y="-230.3" font-family="Times,serif" font-size="14.00" fill="#000000">pyqt</text>
</g>
<!-- pyqt&#45;&gt;matplotlib -->
<g id="edge29" class="edge">
<title>pyqt&#45;&gt;matplotlib</title>
<path fill="none" stroke="#000000" d="M954.9985,-217.3008C948.9741,-208.6256 941.4754,-197.8275 934.7072,-188.0813"/>
<polygon fill="#000000" stroke="#000000" points="937.5817,-186.0844 929.0029,-179.8671 931.8321,-190.0772 937.5817,-186.0844"/>
</g>
<!-- qt&#45;&gt;opencv -->
<g id="edge30" class="edge">
<title>qt&#45;&gt;opencv</title>
<path fill="none" stroke="#000000" d="M1039.8665,-299.5188C1054.1328,-295.9441 1072.3136,-291.5285 1088.5952,-288 1172.1654,-269.889 1195.1859,-274.8192 1277.5952,-252 1280.5566,-251.18 1283.5931,-250.2614 1286.6328,-249.2848"/>
<polygon fill="#000000" stroke="#000000" points="1287.9193,-252.5444 1296.2649,-246.0174 1285.6706,-245.9154 1287.9193,-252.5444"/>
</g>
<!-- qt&#45;&gt;pyqt -->
<g id="edge31" class="edge">
<title>qt&#45;&gt;pyqt</title>
<path fill="none" stroke="#000000" d="M1003.4623,-289.3008C997.5504,-280.4329 990.1595,-269.3465 983.5506,-259.4332"/>
<polygon fill="#000000" stroke="#000000" points="986.4601,-257.4877 978.0009,-251.1086 980.6358,-261.3706 986.4601,-257.4877"/>
</g>
<!-- qt&#45;&gt;root -->
<g id="edge32" class="edge">
<title>qt&#45;&gt;root</title>
<path fill="none" stroke="#000000" d="M993.7575,-294.1356C988.9053,-291.7845 983.6706,-289.5631 978.5952,-288 851.0993,-248.7351 692.0867,-238.0091 618.4816,-235.0879"/>
<polygon fill="#000000" stroke="#000000" points="618.3776,-231.5818 608.2555,-234.7111 618.1198,-238.5771 618.3776,-231.5818"/>
</g>
<!-- sqlalchemy -->
<g id="node27" class="node">
<title>sqlalchemy</title>
<ellipse fill="#000000" stroke="#000000" cx="1680.5952" cy="-450" rx="59.5901" ry="18"/>
<text text-anchor="middle" x="1680.5952" y="-446.3" font-family="Times,serif" font-size="14.00" fill="#ffffff">sqlalchemy</text>
</g>
<!-- texlive&#45;core&#45;&gt;r&#45;base -->
<g id="edge33" class="edge">
<title>texlive&#45;core&#45;&gt;r&#45;base</title>
<path fill="none" stroke="#000000" d="M1330.4828,-72.2022C1324.6243,-63.5938 1317.4834,-53.1011 1311.0506,-43.6488"/>
<polygon fill="#000000" stroke="#000000" points="1313.9189,-41.6425 1305.3991,-35.3446 1308.1319,-45.5809 1313.9189,-41.6425"/>
</g>
<!-- unzip -->
<g id="node29" class="node">
<title>unzip</title>
<ellipse fill="#000000" stroke="#000000" cx="1793.5952" cy="-450" rx="35.194" ry="18"/>
<text text-anchor="middle" x="1793.5952" y="-446.3" font-family="Times,serif" font-size="14.00" fill="#ffffff">unzip</text>
</g>
<!-- libogg&#45;&gt;libsndfile -->
<g id="edge35" class="edge">
<title>libogg&#45;&gt;libsndfile</title>
<path fill="none" stroke="#000000" d="M1176.7824,-221.0438C1192.8022,-212.0189 1211.4413,-198.3078 1220.5952,-180 1227.7506,-165.6892 1227.3373,-158.5101 1220.5952,-144 1214.6884,-131.2877 1204.1519,-120.4909 1193.3111,-111.97"/>
<polygon fill="#000000" stroke="#000000" points="1195.1683,-108.9918 1185.0335,-105.9037 1191.0305,-114.6379 1195.1683,-108.9918"/>
</g>
<!-- libvorbis -->
<g id="node32" class="node">
<title>libvorbis</title>
<ellipse fill="#fde725" stroke="#000000" cx="1156.5952" cy="-162" rx="54.6905" ry="18"/>
<text text-anchor="middle" x="1156.5952" y="-158.3" font-family="Times,serif" font-size="14.00" fill="#000000">libvorbis</text>
</g>
<!-- libogg&#45;&gt;libvorbis -->
<g id="edge36" class="edge">
<title>libogg&#45;&gt;libvorbis</title>
<path fill="none" stroke="#000000" d="M1150.6139,-215.8314C1151.4695,-208.131 1152.4869,-198.9743 1153.4378,-190.4166"/>
<polygon fill="#000000" stroke="#000000" points="1156.9234,-190.7386 1154.5492,-180.4133 1149.9662,-189.9656 1156.9234,-190.7386"/>
</g>
<!-- libogg&#45;&gt;libflac -->
<g id="edge34" class="edge">
<title>libogg&#45;&gt;libflac</title>
<path fill="none" stroke="#000000" d="M1126.0103,-219.0816C1110.2924,-208.6991 1089.1064,-194.7046 1071.6457,-183.171"/>
<polygon fill="#000000" stroke="#000000" points="1073.1762,-179.9874 1062.9032,-177.3961 1069.3181,-185.8282 1073.1762,-179.9874"/>
</g>
<!-- libvorbis&#45;&gt;libsndfile -->
<g id="edge37" class="edge">
<title>libvorbis&#45;&gt;libsndfile</title>
<path fill="none" stroke="#000000" d="M1156.5952,-143.8314C1156.5952,-136.131 1156.5952,-126.9743 1156.5952,-118.4166"/>
<polygon fill="#000000" stroke="#000000" points="1160.0953,-118.4132 1156.5952,-108.4133 1153.0953,-118.4133 1160.0953,-118.4132"/>
</g>
<!-- libflac&#45;&gt;libsndfile -->
<g id="edge38" class="edge">
<title>libflac&#45;&gt;libsndfile</title>
<path fill="none" stroke="#000000" d="M1064.1222,-146.9064C1080.7067,-136.7006 1102.8659,-123.0642 1121.3348,-111.6987"/>
<polygon fill="#000000" stroke="#000000" points="1123.3821,-114.5485 1130.0643,-106.3267 1119.7134,-108.5869 1123.3821,-114.5485"/>
</g>
<!-- lld -->
<g id="node34" class="node">
<title>lld</title>
<ellipse fill="#31688e" stroke="#000000" cx="1873.5952" cy="-450" rx="27" ry="18"/>
<text text-anchor="middle" x="1873.5952" y="-446.3" font-family="Times,serif" font-size="14.00" fill="#ffffff">lld</text>
</g>
<!-- autotools_clang_conda -->
<g id="node43" class="node">
<title>autotools_clang_conda</title>
<ellipse fill="#fde725" stroke="#000000" cx="1873.5952" cy="-378" rx="113.18" ry="18"/>
<text text-anchor="middle" x="1873.5952" y="-374.3" font-family="Times,serif" font-size="14.00" fill="#000000">autotools_clang_conda</text>
</g>
<!-- lld&#45;&gt;autotools_clang_conda -->
<g id="edge39" class="edge">
<title>lld&#45;&gt;autotools_clang_conda</title>
<path fill="none" stroke="#000000" d="M1873.5952,-431.8314C1873.5952,-424.131 1873.5952,-414.9743 1873.5952,-406.4166"/>
<polygon fill="#000000" stroke="#000000" points="1877.0953,-406.4132 1873.5952,-396.4133 1870.0953,-406.4133 1877.0953,-406.4132"/>
</g>
<!-- nspr -->
<g id="node36" class="node">
<title>nspr</title>
<ellipse fill="#31688e" stroke="#000000" cx="1141.5952" cy="-450" rx="30.5947" ry="18"/>
<text text-anchor="middle" x="1141.5952" y="-446.3" font-family="Times,serif" font-size="14.00" fill="#ffffff">nspr</text>
</g>
<!-- nspr&#45;&gt;qt -->
<g id="edge41" class="edge">
<title>nspr&#45;&gt;qt</title>
<path fill="none" stroke="#000000" d="M1149.6417,-432.404C1157.2246,-412.9249 1165.4057,-381.4507 1150.5952,-360 1124.9409,-322.8439 1097.3917,-341.081 1055.5952,-324 1052.5728,-322.7649 1049.4386,-321.4505 1046.3105,-320.1162"/>
<polygon fill="#000000" stroke="#000000" points="1047.6305,-316.8737 1037.0631,-316.1124 1044.8493,-323.2975 1047.6305,-316.8737"/>
</g>
<!-- nss -->
<g id="node37" class="node">
<title>nss</title>
<ellipse fill="#fde725" stroke="#000000" cx="1114.5952" cy="-378" rx="27" ry="18"/>
<text text-anchor="middle" x="1114.5952" y="-374.3" font-family="Times,serif" font-size="14.00" fill="#000000">nss</text>
</g>
<!-- nspr&#45;&gt;nss -->
<g id="edge40" class="edge">
<title>nspr&#45;&gt;nss</title>
<path fill="none" stroke="#000000" d="M1134.921,-432.2022C1131.8475,-424.0064 1128.1335,-414.1024 1124.7256,-405.0145"/>
<polygon fill="#000000" stroke="#000000" points="1127.981,-403.7274 1121.1925,-395.593 1121.4267,-406.1853 1127.981,-403.7274"/>
</g>
<!-- nss&#45;&gt;qt -->
<g id="edge42" class="edge">
<title>nss&#45;&gt;qt</title>
<path fill="none" stroke="#000000" d="M1095.7859,-364.4574C1080.465,-353.4263 1058.6386,-337.7113 1041.4741,-325.3528"/>
<polygon fill="#000000" stroke="#000000" points="1043.1426,-322.2414 1032.9822,-319.2387 1039.0525,-327.9221 1043.1426,-322.2414"/>
</g>
<!-- blas&#45;&gt;opencv -->
<g id="edge43" class="edge">
<title>blas&#45;&gt;opencv</title>
<path fill="none" stroke="#000000" d="M1368.8388,-289.3008C1361.9963,-280.3433 1353.4247,-269.1223 1345.7941,-259.1331"/>
<polygon fill="#000000" stroke="#000000" points="1348.5161,-256.9307 1339.6643,-251.1086 1342.9533,-261.18 1348.5161,-256.9307"/>
</g>
<!-- afterimage&#45;&gt;root -->
<g id="edge44" class="edge">
<title>afterimage&#45;&gt;root</title>
<path fill="none" stroke="#000000" d="M367.2593,-293.6228C415.9184,-279.8296 493.7993,-257.7531 539.8983,-244.6857"/>
<polygon fill="#000000" stroke="#000000" points="541.1195,-247.9775 549.7859,-241.8829 539.2104,-241.2429 541.1195,-247.9775"/>
</g>
<!-- compilers -->
<g id="node41" class="node">
<title>compilers</title>
<ellipse fill="#31688e" stroke="#000000" cx="787.5952" cy="-306" rx="54.6905" ry="18"/>
<text text-anchor="middle" x="787.5952" y="-302.3" font-family="Times,serif" font-size="14.00" fill="#ffffff">compilers</text>
</g>
<!-- compilers&#45;&gt;root -->
<g id="edge45" class="edge">
<title>compilers&#45;&gt;root</title>
<path fill="none" stroke="#000000" d="M749.5657,-292.9613C710.9397,-279.7181 651.5618,-259.36 613.6588,-246.3647"/>
<polygon fill="#000000" stroke="#000000" points="614.6368,-243.0001 604.0422,-243.0676 612.3665,-249.6217 614.6368,-243.0001"/>
</g>
<!-- ripgrep -->
<g id="node42" class="node">
<title>ripgrep</title>
<ellipse fill="#31688e" stroke="#000000" cx="1963.5952" cy="-450" rx="44.6926" ry="18"/>
<text text-anchor="middle" x="1963.5952" y="-446.3" font-family="Times,serif" font-size="14.00" fill="#ffffff">ripgrep</text>
</g>
<!-- _libarchive_static_for_cph -->
<g id="node44" class="node">
<title>_libarchive_static_for_cph</title>
<ellipse fill="#31688e" stroke="#000000" cx="2164.5952" cy="-450" rx="137.5759" ry="18"/>
<text text-anchor="middle" x="2164.5952" y="-446.3" font-family="Times,serif" font-size="14.00" fill="#ffffff">_libarchive_static_for_cph</text>
</g>
</g>
</svg>
