<?xml version="1.0" encoding="UTF-8" standalone="no"?>
<!DOCTYPE svg PUBLIC "-//W3C//DTD SVG 1.1//EN"
 "http://www.w3.org/Graphics/SVG/1.1/DTD/svg11.dtd">
<!-- Generated by graphviz version 2.40.1 (20161225.0304)
 -->
<!-- Title: %3 Pages: 1 -->
<svg width="2658pt" height="548pt"
 viewBox="0.00 0.00 2658.19 548.00" xmlns="http://www.w3.org/2000/svg" xmlns:xlink="http://www.w3.org/1999/xlink">
<g id="graph0" class="graph" transform="scale(1 1) rotate(0) translate(4 544)">
<title>%3</title>
<polygon fill="#ffffff" stroke="transparent" points="-4,4 -4,-544 2654.1903,-544 2654.1903,4 -4,4"/>
<!-- arrow&#45;cpp -->
<g id="node1" class="node">
<title>arrow&#45;cpp</title>
<ellipse fill="#31688e" stroke="#000000" cx="54.5952" cy="-522" rx="54.6905" ry="18"/>
<text text-anchor="middle" x="54.5952" y="-518.3" font-family="Times,serif" font-size="14.00" fill="#ffffff">arrow cpp</text>
</g>
<!-- pyarrow -->
<g id="node29" class="node">
<title>pyarrow</title>
<ellipse fill="#fde725" stroke="#000000" cx="54.5952" cy="-450" rx="44.6926" ry="18"/>
<text text-anchor="middle" x="54.5952" y="-446.3" font-family="Times,serif" font-size="14.00" fill="#000000">pyarrow</text>
</g>
<!-- arrow&#45;cpp&#45;&gt;pyarrow -->
<g id="edge1" class="edge">
<title>arrow&#45;cpp&#45;&gt;pyarrow</title>
<path fill="none" stroke="#000000" d="M54.5952,-503.8314C54.5952,-496.131 54.5952,-486.9743 54.5952,-478.4166"/>
<polygon fill="#000000" stroke="#000000" points="58.0953,-478.4132 54.5952,-468.4133 51.0953,-478.4133 58.0953,-478.4132"/>
</g>
<!-- dill -->
<g id="node2" class="node">
<title>dill</title>
<ellipse fill="#fde725" stroke="#000000" cx="177.5952" cy="-378" rx="30.5947" ry="18"/>
<text text-anchor="middle" x="177.5952" y="-374.3" font-family="Times,serif" font-size="14.00" fill="#000000">dill</text>
</g>
<!-- multiprocess -->
<g id="node22" class="node">
<title>multiprocess</title>
<ellipse fill="#fde725" stroke="#000000" cx="177.5952" cy="-306" rx="69.5877" ry="18"/>
<text text-anchor="middle" x="177.5952" y="-302.3" font-family="Times,serif" font-size="14.00" fill="#000000">multiprocess</text>
</g>
<!-- dill&#45;&gt;multiprocess -->
<g id="edge2" class="edge">
<title>dill&#45;&gt;multiprocess</title>
<path fill="none" stroke="#000000" d="M177.5952,-359.8314C177.5952,-352.131 177.5952,-342.9743 177.5952,-334.4166"/>
<polygon fill="#000000" stroke="#000000" points="181.0953,-334.4132 177.5952,-324.4133 174.0953,-334.4133 181.0953,-334.4132"/>
</g>
<!-- fastcache -->
<g id="node3" class="node">
<title>fastcache</title>
<ellipse fill="#31688e" stroke="#000000" cx="550.5952" cy="-306" rx="54.6905" ry="18"/>
<text text-anchor="middle" x="550.5952" y="-302.3" font-family="Times,serif" font-size="14.00" fill="#ffffff">fastcache</text>
</g>
<!-- sympy -->
<g id="node35" class="node">
<title>sympy</title>
<ellipse fill="#fde725" stroke="#000000" cx="596.5952" cy="-18" rx="35.194" ry="18"/>
<text text-anchor="middle" x="596.5952" y="-14.3" font-family="Times,serif" font-size="14.00" fill="#000000">sympy</text>
</g>
<!-- fastcache&#45;&gt;sympy -->
<g id="edge4" class="edge">
<title>fastcache&#45;&gt;sympy</title>
<path fill="none" stroke="#000000" d="M552.781,-287.7198C557.6087,-248.2062 569.925,-151.9473 584.5952,-72 586.1551,-63.4986 588.1014,-54.3006 589.9696,-45.9465"/>
<polygon fill="#000000" stroke="#000000" points="593.4423,-46.4604 592.2591,-35.9319 586.6184,-44.9003 593.4423,-46.4604"/>
</g>
<!-- cvxpy -->
<g id="node50" class="node">
<title>cvxpy</title>
<ellipse fill="#fde725" stroke="#000000" cx="374.5952" cy="-234" rx="35.194" ry="18"/>
<text text-anchor="middle" x="374.5952" y="-230.3" font-family="Times,serif" font-size="14.00" fill="#000000">cvxpy</text>
</g>
<!-- fastcache&#45;&gt;cvxpy -->
<g id="edge3" class="edge">
<title>fastcache&#45;&gt;cvxpy</title>
<path fill="none" stroke="#000000" d="M516.2428,-291.9468C486.1835,-279.6498 442.6196,-261.8282 411.7553,-249.2019"/>
<polygon fill="#000000" stroke="#000000" points="412.7945,-245.8455 402.2138,-245.2986 410.1441,-252.3244 412.7945,-245.8455"/>
</g>
<!-- future -->
<g id="node4" class="node">
<title>future</title>
<ellipse fill="#000000" stroke="#000000" cx="374.5952" cy="-378" rx="40.0939" ry="18"/>
<text text-anchor="middle" x="374.5952" y="-374.3" font-family="Times,serif" font-size="14.00" fill="#ffffff">future</text>
</g>
<!-- osqp -->
<g id="node47" class="node">
<title>osqp</title>
<ellipse fill="#fde725" stroke="#000000" cx="374.5952" cy="-306" rx="30.5947" ry="18"/>
<text text-anchor="middle" x="374.5952" y="-302.3" font-family="Times,serif" font-size="14.00" fill="#000000">osqp</text>
</g>
<!-- future&#45;&gt;osqp -->
<g id="edge5" class="edge">
<title>future&#45;&gt;osqp</title>
<path fill="none" stroke="#000000" d="M374.5952,-359.8314C374.5952,-352.131 374.5952,-342.9743 374.5952,-334.4166"/>
<polygon fill="#000000" stroke="#000000" points="378.0953,-334.4132 374.5952,-324.4133 371.0953,-334.4133 378.0953,-334.4132"/>
</g>
<!-- gevent -->
<g id="node5" class="node">
<title>gevent</title>
<ellipse fill="#fde725" stroke="#000000" cx="1938.5952" cy="-450" rx="40.0939" ry="18"/>
<text text-anchor="middle" x="1938.5952" y="-446.3" font-family="Times,serif" font-size="14.00" fill="#000000">gevent</text>
</g>
<!-- glew -->
<g id="node6" class="node">
<title>glew</title>
<ellipse fill="#fde725" stroke="#000000" cx="1873.5952" cy="-378" rx="30.5947" ry="18"/>
<text text-anchor="middle" x="1873.5952" y="-374.3" font-family="Times,serif" font-size="14.00" fill="#000000">glew</text>
</g>
<!-- root -->
<g id="node51" class="node">
<title>root</title>
<ellipse fill="#fde725" stroke="#000000" cx="1480.5952" cy="-306" rx="30.5947" ry="18"/>
<text text-anchor="middle" x="1480.5952" y="-302.3" font-family="Times,serif" font-size="14.00" fill="#000000">root</text>
</g>
<!-- glew&#45;&gt;root -->
<g id="edge6" class="edge">
<title>glew&#45;&gt;root</title>
<path fill="none" stroke="#000000" d="M1850.31,-366.2499C1844.9256,-363.8928 1839.1454,-361.6401 1833.5952,-360 1723.5434,-327.4794 1588.0922,-313.7557 1521.5043,-308.6484"/>
<polygon fill="#000000" stroke="#000000" points="1521.6545,-305.1501 1511.4231,-307.9012 1521.1369,-312.1309 1521.6545,-305.1501"/>
</g>
<!-- gmpy2 -->
<g id="node7" class="node">
<title>gmpy2</title>
<ellipse fill="#fde725" stroke="#000000" cx="628.5952" cy="-90" rx="35.194" ry="18"/>
<text text-anchor="middle" x="628.5952" y="-86.3" font-family="Times,serif" font-size="14.00" fill="#000000">gmpy2</text>
</g>
<!-- gmpy2&#45;&gt;sympy -->
<g id="edge7" class="edge">
<title>gmpy2&#45;&gt;sympy</title>
<path fill="none" stroke="#000000" d="M620.685,-72.2022C617.0424,-64.0064 612.6407,-54.1024 608.6016,-45.0145"/>
<polygon fill="#000000" stroke="#000000" points="611.6741,-43.3096 604.4143,-35.593 605.2774,-46.1527 611.6741,-43.3096"/>
</g>
<!-- greenlet -->
<g id="node8" class="node">
<title>greenlet</title>
<ellipse fill="#31688e" stroke="#000000" cx="1938.5952" cy="-522" rx="50.0912" ry="18"/>
<text text-anchor="middle" x="1938.5952" y="-518.3" font-family="Times,serif" font-size="14.00" fill="#ffffff">greenlet</text>
</g>
<!-- greenlet&#45;&gt;gevent -->
<g id="edge8" class="edge">
<title>greenlet&#45;&gt;gevent</title>
<path fill="none" stroke="#000000" d="M1938.5952,-503.8314C1938.5952,-496.131 1938.5952,-486.9743 1938.5952,-478.4166"/>
<polygon fill="#000000" stroke="#000000" points="1942.0953,-478.4132 1938.5952,-468.4133 1935.0953,-478.4133 1942.0953,-478.4132"/>
</g>
<!-- gstreamer -->
<g id="node9" class="node">
<title>gstreamer</title>
<ellipse fill="#31688e" stroke="#000000" cx="1232.5952" cy="-450" rx="54.6905" ry="18"/>
<text text-anchor="middle" x="1232.5952" y="-446.3" font-family="Times,serif" font-size="14.00" fill="#ffffff">gstreamer</text>
</g>
<!-- qt -->
<g id="node32" class="node">
<title>qt</title>
<ellipse fill="#fde725" stroke="#000000" cx="1360.5952" cy="-378" rx="27" ry="18"/>
<text text-anchor="middle" x="1360.5952" y="-374.3" font-family="Times,serif" font-size="14.00" fill="#000000">qt</text>
</g>
<!-- gstreamer&#45;&gt;qt -->
<g id="edge9" class="edge">
<title>gstreamer&#45;&gt;qt</title>
<path fill="none" stroke="#000000" d="M1260.3692,-434.3771C1281.1211,-422.7042 1309.4496,-406.7694 1330.6959,-394.8183"/>
<polygon fill="#000000" stroke="#000000" points="1332.6155,-397.7543 1339.6153,-389.8012 1329.1836,-391.6533 1332.6155,-397.7543"/>
</g>
<!-- gunicorn -->
<g id="node10" class="node">
<title>gunicorn</title>
<ellipse fill="#31688e" stroke="#000000" cx="2056.5952" cy="-522" rx="50.0912" ry="18"/>
<text text-anchor="middle" x="2056.5952" y="-518.3" font-family="Times,serif" font-size="14.00" fill="#ffffff">gunicorn</text>
</g>
<!-- hdf5 -->
<g id="node11" class="node">
<title>hdf5</title>
<ellipse fill="#000000" stroke="#000000" cx="991.5952" cy="-306" rx="30.5947" ry="18"/>
<text text-anchor="middle" x="991.5952" y="-302.3" font-family="Times,serif" font-size="14.00" fill="#ffffff">hdf5</text>
</g>
<!-- opencv -->
<g id="node25" class="node">
<title>opencv</title>
<ellipse fill="#fde725" stroke="#000000" cx="1109.5952" cy="-234" rx="40.0939" ry="18"/>
<text text-anchor="middle" x="1109.5952" y="-230.3" font-family="Times,serif" font-size="14.00" fill="#000000">opencv</text>
</g>
<!-- hdf5&#45;&gt;opencv -->
<g id="edge10" class="edge">
<title>hdf5&#45;&gt;opencv</title>
<path fill="none" stroke="#000000" d="M1012.9641,-292.9613C1030.7829,-282.0888 1056.4613,-266.4206 1076.8693,-253.9683"/>
<polygon fill="#000000" stroke="#000000" points="1078.8271,-256.8739 1085.5405,-248.6774 1075.181,-250.8984 1078.8271,-256.8739"/>
</g>
<!-- ipyparallel -->
<g id="node12" class="node">
<title>ipyparallel</title>
<ellipse fill="#31688e" stroke="#000000" cx="1476.5952" cy="-378" rx="64.189" ry="18"/>
<text text-anchor="middle" x="1476.5952" y="-374.3" font-family="Times,serif" font-size="14.00" fill="#ffffff">ipyparallel</text>
</g>
<!-- ipyparallel&#45;&gt;root -->
<g id="edge11" class="edge">
<title>ipyparallel&#45;&gt;root</title>
<path fill="none" stroke="#000000" d="M1477.6045,-359.8314C1478.0323,-352.131 1478.541,-342.9743 1479.0165,-334.4166"/>
<polygon fill="#000000" stroke="#000000" points="1482.512,-334.592 1479.5722,-324.4133 1475.5228,-334.2037 1482.512,-334.592"/>
</g>
<!-- ipython -->
<g id="node13" class="node">
<title>ipython</title>
<ellipse fill="#000000" stroke="#000000" cx="1460.5952" cy="-450" rx="44.6926" ry="18"/>
<text text-anchor="middle" x="1460.5952" y="-446.3" font-family="Times,serif" font-size="14.00" fill="#ffffff">ipython</text>
</g>
<!-- ipython&#45;&gt;ipyparallel -->
<g id="edge12" class="edge">
<title>ipython&#45;&gt;ipyparallel</title>
<path fill="none" stroke="#000000" d="M1464.6326,-431.8314C1466.3438,-424.131 1468.3786,-414.9743 1470.2803,-406.4166"/>
<polygon fill="#000000" stroke="#000000" points="1473.7506,-406.9344 1472.5033,-396.4133 1466.9173,-405.4159 1473.7506,-406.9344"/>
</g>
<!-- jupyter_client -->
<g id="node14" class="node">
<title>jupyter_client</title>
<ellipse fill="#31688e" stroke="#000000" cx="1602.5952" cy="-450" rx="79.0865" ry="18"/>
<text text-anchor="middle" x="1602.5952" y="-446.3" font-family="Times,serif" font-size="14.00" fill="#ffffff">jupyter_client</text>
</g>
<!-- jupyter_client&#45;&gt;ipyparallel -->
<g id="edge13" class="edge">
<title>jupyter_client&#45;&gt;ipyparallel</title>
<path fill="none" stroke="#000000" d="M1573.0538,-433.1192C1555.4262,-423.0463 1532.8753,-410.1601 1514.0112,-399.3806"/>
<polygon fill="#000000" stroke="#000000" points="1515.5034,-396.2022 1505.0844,-394.2796 1512.0304,-402.2799 1515.5034,-396.2022"/>
</g>
<!-- nbconvert -->
<g id="node23" class="node">
<title>nbconvert</title>
<ellipse fill="#000000" stroke="#000000" cx="1613.5952" cy="-378" rx="54.6905" ry="18"/>
<text text-anchor="middle" x="1613.5952" y="-374.3" font-family="Times,serif" font-size="14.00" fill="#ffffff">nbconvert</text>
</g>
<!-- jupyter_client&#45;&gt;nbconvert -->
<g id="edge14" class="edge">
<title>jupyter_client&#45;&gt;nbconvert</title>
<path fill="none" stroke="#000000" d="M1605.3709,-431.8314C1606.5474,-424.131 1607.9463,-414.9743 1609.2537,-406.4166"/>
<polygon fill="#000000" stroke="#000000" points="1612.7315,-406.8272 1610.782,-396.4133 1605.8118,-405.7699 1612.7315,-406.8272"/>
</g>
<!-- libglu -->
<g id="node15" class="node">
<title>libglu</title>
<ellipse fill="#31688e" stroke="#000000" cx="1839.5952" cy="-450" rx="40.0939" ry="18"/>
<text text-anchor="middle" x="1839.5952" y="-446.3" font-family="Times,serif" font-size="14.00" fill="#ffffff">libglu</text>
</g>
<!-- libglu&#45;&gt;glew -->
<g id="edge16" class="edge">
<title>libglu&#45;&gt;glew</title>
<path fill="none" stroke="#000000" d="M1847.9997,-432.2022C1851.9403,-423.8574 1856.7171,-413.7417 1861.072,-404.5197"/>
<polygon fill="#000000" stroke="#000000" points="1864.2994,-405.8816 1865.4047,-395.3446 1857.9697,-402.8925 1864.2994,-405.8816"/>
</g>
<!-- freeglut -->
<g id="node38" class="node">
<title>freeglut</title>
<ellipse fill="#fde725" stroke="#000000" cx="1774.5952" cy="-378" rx="50.0912" ry="18"/>
<text text-anchor="middle" x="1774.5952" y="-374.3" font-family="Times,serif" font-size="14.00" fill="#000000">freeglut</text>
</g>
<!-- libglu&#45;&gt;freeglut -->
<g id="edge15" class="edge">
<title>libglu&#45;&gt;freeglut</title>
<path fill="none" stroke="#000000" d="M1824.5195,-433.3008C1816.4703,-424.3848 1806.3967,-413.2264 1797.4103,-403.2722"/>
<polygon fill="#000000" stroke="#000000" points="1799.795,-400.6905 1790.4959,-395.6132 1794.5991,-405.3813 1799.795,-400.6905"/>
</g>
<!-- libglu&#45;&gt;root -->
<g id="edge17" class="edge">
<title>libglu&#45;&gt;root</title>
<path fill="none" stroke="#000000" d="M1808.9968,-438.0932C1777.7434,-425.6814 1731.6033,-406.5924 1715.5952,-396 1696.1935,-383.1622 1697.8654,-371.4172 1677.5952,-360 1627.6043,-331.8426 1562.1171,-317.7074 1520.6873,-311.117"/>
<polygon fill="#000000" stroke="#000000" points="1521.1089,-307.641 1510.6968,-309.6001 1520.058,-314.5617 1521.1089,-307.641"/>
</g>
<!-- libsndfile -->
<g id="node16" class="node">
<title>libsndfile</title>
<ellipse fill="#fde725" stroke="#000000" cx="1261.5952" cy="-162" rx="59.5901" ry="18"/>
<text text-anchor="middle" x="1261.5952" y="-158.3" font-family="Times,serif" font-size="14.00" fill="#000000">libsndfile</text>
</g>
<!-- r&#45;base -->
<g id="node33" class="node">
<title>r&#45;base</title>
<ellipse fill="#fde725" stroke="#000000" cx="913.5952" cy="-90" rx="40.0939" ry="18"/>
<text text-anchor="middle" x="913.5952" y="-86.3" font-family="Times,serif" font-size="14.00" fill="#000000">r base</text>
</g>
<!-- libsndfile&#45;&gt;r&#45;base -->
<g id="edge18" class="edge">
<title>libsndfile&#45;&gt;r&#45;base</title>
<path fill="none" stroke="#000000" d="M1212.1048,-151.7606C1145.1315,-137.9041 1026.477,-113.3549 960.7374,-99.7536"/>
<polygon fill="#000000" stroke="#000000" points="961.1587,-96.2667 950.6569,-97.668 959.7404,-103.1215 961.1587,-96.2667"/>
</g>
<!-- llvmlite -->
<g id="node17" class="node">
<title>llvmlite</title>
<ellipse fill="#31688e" stroke="#000000" cx="2174.5952" cy="-522" rx="50.0912" ry="18"/>
<text text-anchor="middle" x="2174.5952" y="-518.3" font-family="Times,serif" font-size="14.00" fill="#ffffff">llvmlite</text>
</g>
<!-- numba -->
<g id="node43" class="node">
<title>numba</title>
<ellipse fill="#fde725" stroke="#000000" cx="2174.5952" cy="-450" rx="35.194" ry="18"/>
<text text-anchor="middle" x="2174.5952" y="-446.3" font-family="Times,serif" font-size="14.00" fill="#000000">numba</text>
</g>
<!-- llvmlite&#45;&gt;numba -->
<g id="edge19" class="edge">
<title>llvmlite&#45;&gt;numba</title>
<path fill="none" stroke="#000000" d="M2174.5952,-503.8314C2174.5952,-496.131 2174.5952,-486.9743 2174.5952,-478.4166"/>
<polygon fill="#000000" stroke="#000000" points="2178.0953,-478.4132 2174.5952,-468.4133 2171.0953,-478.4133 2178.0953,-478.4132"/>
</g>
<!-- matplotlib -->
<g id="node18" class="node">
<title>matplotlib</title>
<ellipse fill="#fde725" stroke="#000000" cx="1513.5952" cy="-234" rx="59.5901" ry="18"/>
<text text-anchor="middle" x="1513.5952" y="-230.3" font-family="Times,serif" font-size="14.00" fill="#000000">matplotlib</text>
</g>
<!-- mpc -->
<g id="node19" class="node">
<title>mpc</title>
<ellipse fill="#fde725" stroke="#000000" cx="643.5952" cy="-162" rx="27" ry="18"/>
<text text-anchor="middle" x="643.5952" y="-158.3" font-family="Times,serif" font-size="14.00" fill="#000000">mpc</text>
</g>
<!-- mpc&#45;&gt;gmpy2 -->
<g id="edge20" class="edge">
<title>mpc&#45;&gt;gmpy2</title>
<path fill="none" stroke="#000000" d="M639.81,-143.8314C638.1632,-135.9266 636.1967,-126.4872 634.3736,-117.7365"/>
<polygon fill="#000000" stroke="#000000" points="637.7932,-116.9894 632.3271,-107.9134 630.9403,-118.4171 637.7932,-116.9894"/>
</g>
<!-- mpfr -->
<g id="node20" class="node">
<title>mpfr</title>
<ellipse fill="#fde725" stroke="#000000" cx="702.5952" cy="-234" rx="30.5947" ry="18"/>
<text text-anchor="middle" x="702.5952" y="-230.3" font-family="Times,serif" font-size="14.00" fill="#000000">mpfr</text>
</g>
<!-- mpfr&#45;&gt;gmpy2 -->
<g id="edge21" class="edge">
<title>mpfr&#45;&gt;gmpy2</title>
<path fill="none" stroke="#000000" d="M700.6683,-215.7639C698.0631,-196.8457 692.2012,-166.8835 679.5952,-144 673.2759,-132.5287 663.9436,-121.6601 654.9836,-112.7216"/>
<polygon fill="#000000" stroke="#000000" points="657.2708,-110.0663 647.6191,-105.6962 652.439,-115.1313 657.2708,-110.0663"/>
</g>
<!-- mpfr&#45;&gt;mpc -->
<g id="edge22" class="edge">
<title>mpfr&#45;&gt;mpc</title>
<path fill="none" stroke="#000000" d="M689.2071,-217.6621C681.5882,-208.3644 671.9009,-196.5426 663.4153,-186.1873"/>
<polygon fill="#000000" stroke="#000000" points="665.9756,-183.7897 656.9302,-178.2733 660.5613,-188.2265 665.9756,-183.7897"/>
</g>
<!-- mpfr&#45;&gt;r&#45;base -->
<g id="edge23" class="edge">
<title>mpfr&#45;&gt;r&#45;base</title>
<path fill="none" stroke="#000000" d="M731.5736,-228.0508C775.0329,-218.6278 854.2753,-199.3468 875.5952,-180 893.457,-163.7912 903.2004,-137.8174 908.3332,-117.9296"/>
<polygon fill="#000000" stroke="#000000" points="911.7468,-118.7026 910.6156,-108.1683 904.9306,-117.1088 911.7468,-118.7026"/>
</g>
<!-- texlive&#45;core -->
<g id="node36" class="node">
<title>texlive&#45;core</title>
<ellipse fill="#fde725" stroke="#000000" cx="796.5952" cy="-162" rx="69.5877" ry="18"/>
<text text-anchor="middle" x="796.5952" y="-158.3" font-family="Times,serif" font-size="14.00" fill="#000000">texlive core</text>
</g>
<!-- mpfr&#45;&gt;texlive&#45;core -->
<g id="edge24" class="edge">
<title>mpfr&#45;&gt;texlive&#45;core</title>
<path fill="none" stroke="#000000" d="M721.6175,-219.4297C734.3535,-209.6745 751.399,-196.6184 766.0192,-185.4199"/>
<polygon fill="#000000" stroke="#000000" points="768.4856,-187.9395 774.2961,-179.0801 764.229,-182.3823 768.4856,-187.9395"/>
</g>
<!-- mpir -->
<g id="node21" class="node">
<title>mpir</title>
<ellipse fill="#31688e" stroke="#000000" cx="653.5952" cy="-306" rx="30.5947" ry="18"/>
<text text-anchor="middle" x="653.5952" y="-302.3" font-family="Times,serif" font-size="14.00" fill="#ffffff">mpir</text>
</g>
<!-- mpir&#45;&gt;gmpy2 -->
<g id="edge25" class="edge">
<title>mpir&#45;&gt;gmpy2</title>
<path fill="none" stroke="#000000" d="M645.0171,-288.6004C633.7978,-264.7793 614.732,-220.3593 607.5952,-180 604.8091,-164.2444 604.645,-159.7257 607.5952,-144 609.3015,-134.9044 612.4936,-125.3722 615.8831,-116.8918"/>
<polygon fill="#000000" stroke="#000000" points="619.1807,-118.081 619.8757,-107.509 612.7396,-115.3401 619.1807,-118.081"/>
</g>
<!-- mpir&#45;&gt;mpc -->
<g id="edge26" class="edge">
<title>mpir&#45;&gt;mpc</title>
<path fill="none" stroke="#000000" d="M652.3286,-287.7623C650.623,-263.201 647.5707,-219.2474 645.5642,-190.3541"/>
<polygon fill="#000000" stroke="#000000" points="649.0358,-189.8231 644.8514,-180.0896 642.0527,-190.3081 649.0358,-189.8231"/>
</g>
<!-- mpir&#45;&gt;mpfr -->
<g id="edge27" class="edge">
<title>mpir&#45;&gt;mpfr</title>
<path fill="none" stroke="#000000" d="M665.2075,-288.937C671.1878,-280.1496 678.6002,-269.2579 685.244,-259.4956"/>
<polygon fill="#000000" stroke="#000000" points="688.3334,-261.1769 691.0662,-250.9405 682.5464,-257.2385 688.3334,-261.1769"/>
</g>
<!-- multiprocess&#45;&gt;cvxpy -->
<g id="edge28" class="edge">
<title>multiprocess&#45;&gt;cvxpy</title>
<path fill="none" stroke="#000000" d="M217.9364,-291.256C252.5661,-278.5994 302.1378,-260.4819 336.194,-248.0349"/>
<polygon fill="#000000" stroke="#000000" points="337.6056,-251.2455 345.7964,-244.5254 335.2026,-244.6709 337.6056,-251.2455"/>
</g>
<!-- openblas -->
<g id="node24" class="node">
<title>openblas</title>
<ellipse fill="#000000" stroke="#000000" cx="1050.5952" cy="-378" rx="50.0912" ry="18"/>
<text text-anchor="middle" x="1050.5952" y="-374.3" font-family="Times,serif" font-size="14.00" fill="#ffffff">openblas</text>
</g>
<!-- openblas&#45;&gt;opencv -->
<g id="edge30" class="edge">
<title>openblas&#45;&gt;opencv</title>
<path fill="none" stroke="#000000" d="M1052.1444,-359.7034C1054.2505,-340.9989 1059.0456,-311.4467 1069.5952,-288 1074.2387,-277.6797 1081.1061,-267.4274 1087.8454,-258.6734"/>
<polygon fill="#000000" stroke="#000000" points="1090.6495,-260.7715 1094.1908,-250.7861 1085.1954,-256.3837 1090.6495,-260.7715"/>
</g>
<!-- openblas&#45;&gt;r&#45;base -->
<g id="edge31" class="edge">
<title>openblas&#45;&gt;r&#45;base</title>
<path fill="none" stroke="#000000" d="M1011.9578,-366.338C990.8286,-357.9506 966.0786,-344.4506 951.5952,-324 907.1282,-261.2127 907.3404,-165.3469 910.6911,-118.1926"/>
<polygon fill="#000000" stroke="#000000" points="914.1898,-118.3495 911.5116,-108.0987 907.2128,-117.7823 914.1898,-118.3495"/>
</g>
<!-- blas -->
<g id="node46" class="node">
<title>blas</title>
<ellipse fill="#000000" stroke="#000000" cx="1109.5952" cy="-306" rx="30.5947" ry="18"/>
<text text-anchor="middle" x="1109.5952" y="-302.3" font-family="Times,serif" font-size="14.00" fill="#ffffff">blas</text>
</g>
<!-- openblas&#45;&gt;blas -->
<g id="edge29" class="edge">
<title>openblas&#45;&gt;blas</title>
<path fill="none" stroke="#000000" d="M1064.8774,-360.5708C1072.3376,-351.4668 1081.5859,-340.1808 1089.7326,-330.2391"/>
<polygon fill="#000000" stroke="#000000" points="1092.6221,-332.2349 1096.2532,-322.2817 1087.2078,-327.7981 1092.6221,-332.2349"/>
</g>
<!-- scs -->
<g id="node49" class="node">
<title>scs</title>
<ellipse fill="#fde725" stroke="#000000" cx="450.5952" cy="-306" rx="27" ry="18"/>
<text text-anchor="middle" x="450.5952" y="-302.3" font-family="Times,serif" font-size="14.00" fill="#000000">scs</text>
</g>
<!-- openblas&#45;&gt;scs -->
<g id="edge33" class="edge">
<title>openblas&#45;&gt;scs</title>
<path fill="none" stroke="#000000" d="M1000.8625,-375.5799C881.7085,-369.4057 582.6774,-351.5821 486.5952,-324 484.4669,-323.389 482.3139,-322.6535 480.175,-321.8337"/>
<polygon fill="#000000" stroke="#000000" points="481.5719,-318.6246 471.0073,-317.824 478.7668,-325.038 481.5719,-318.6246"/>
</g>
<!-- openblas&#45;&gt;root -->
<g id="edge32" class="edge">
<title>openblas&#45;&gt;root</title>
<path fill="none" stroke="#000000" d="M1097.563,-371.604C1200.5582,-357.5662 1437.4797,-325.2049 1441.5952,-324 1443.7467,-323.3701 1445.9307,-322.6399 1448.1099,-321.8416"/>
<polygon fill="#000000" stroke="#000000" points="1449.5789,-325.0225 1457.5177,-318.0063 1446.9363,-318.5404 1449.5789,-325.0225"/>
</g>
<!-- pandoc -->
<g id="node26" class="node">
<title>pandoc</title>
<ellipse fill="#000000" stroke="#000000" cx="1740.5952" cy="-450" rx="40.0939" ry="18"/>
<text text-anchor="middle" x="1740.5952" y="-446.3" font-family="Times,serif" font-size="14.00" fill="#ffffff">pandoc</text>
</g>
<!-- pandoc&#45;&gt;nbconvert -->
<g id="edge34" class="edge">
<title>pandoc&#45;&gt;nbconvert</title>
<path fill="none" stroke="#000000" d="M1715.504,-435.7751C1696.8649,-425.2081 1671.1536,-410.6316 1650.2204,-398.7639"/>
<polygon fill="#000000" stroke="#000000" points="1651.7049,-395.5822 1641.2795,-393.6951 1648.2526,-401.6717 1651.7049,-395.5822"/>
</g>
<!-- pkgconfig -->
<g id="node27" class="node">
<title>pkgconfig</title>
<ellipse fill="#000000" stroke="#000000" cx="1247.5952" cy="-378" rx="54.6905" ry="18"/>
<text text-anchor="middle" x="1247.5952" y="-374.3" font-family="Times,serif" font-size="14.00" fill="#ffffff">pkgconfig</text>
</g>
<!-- pkgconfig&#45;&gt;opencv -->
<g id="edge37" class="edge">
<title>pkgconfig&#45;&gt;opencv</title>
<path fill="none" stroke="#000000" d="M1229.5384,-360.711C1218.6961,-350.2216 1204.7022,-336.4917 1192.5952,-324 1171.5569,-302.2935 1148.2779,-276.9283 1131.7408,-258.6688"/>
<polygon fill="#000000" stroke="#000000" points="1133.9497,-255.8927 1124.6493,-250.8179 1128.7551,-260.5849 1133.9497,-255.8927"/>
</g>
<!-- libogg -->
<g id="node39" class="node">
<title>libogg</title>
<ellipse fill="#31688e" stroke="#000000" cx="1312.5952" cy="-306" rx="40.0939" ry="18"/>
<text text-anchor="middle" x="1312.5952" y="-302.3" font-family="Times,serif" font-size="14.00" fill="#ffffff">libogg</text>
</g>
<!-- pkgconfig&#45;&gt;libogg -->
<g id="edge36" class="edge">
<title>pkgconfig&#45;&gt;libogg</title>
<path fill="none" stroke="#000000" d="M1263.3298,-360.5708C1271.5123,-351.5071 1281.6473,-340.2807 1290.5933,-330.3713"/>
<polygon fill="#000000" stroke="#000000" points="1293.3498,-332.541 1297.4529,-322.7729 1288.1539,-327.8502 1293.3498,-332.541"/>
</g>
<!-- libflac -->
<g id="node41" class="node">
<title>libflac</title>
<ellipse fill="#fde725" stroke="#000000" cx="1225.5952" cy="-234" rx="44.6926" ry="18"/>
<text text-anchor="middle" x="1225.5952" y="-230.3" font-family="Times,serif" font-size="14.00" fill="#000000">libflac</text>
</g>
<!-- pkgconfig&#45;&gt;libflac -->
<g id="edge35" class="edge">
<title>pkgconfig&#45;&gt;libflac</title>
<path fill="none" stroke="#000000" d="M1244.8088,-359.7623C1241.0564,-335.201 1234.3413,-291.2474 1229.927,-262.3541"/>
<polygon fill="#000000" stroke="#000000" points="1233.329,-261.4463 1228.3588,-252.0896 1226.4093,-262.5035 1233.329,-261.4463"/>
</g>
<!-- pkgconfig&#45;&gt;root -->
<g id="edge38" class="edge">
<title>pkgconfig&#45;&gt;root</title>
<path fill="none" stroke="#000000" d="M1292.544,-367.6698C1332.2838,-358.0237 1391.5476,-342.3791 1441.5952,-324 1443.4852,-323.3059 1445.4104,-322.558 1447.3422,-321.7754"/>
<polygon fill="#000000" stroke="#000000" points="1449.1177,-324.8221 1456.9259,-317.6609 1446.3561,-318.3899 1449.1177,-324.8221"/>
</g>
<!-- protobuf -->
<g id="node28" class="node">
<title>protobuf</title>
<ellipse fill="#fde725" stroke="#000000" cx="2277.5952" cy="-450" rx="50.0912" ry="18"/>
<text text-anchor="middle" x="2277.5952" y="-446.3" font-family="Times,serif" font-size="14.00" fill="#000000">protobuf</text>
</g>
<!-- pyqt -->
<g id="node30" class="node">
<title>pyqt</title>
<ellipse fill="#fde725" stroke="#000000" cx="1401.5952" cy="-306" rx="30.5947" ry="18"/>
<text text-anchor="middle" x="1401.5952" y="-302.3" font-family="Times,serif" font-size="14.00" fill="#000000">pyqt</text>
</g>
<!-- pyqt&#45;&gt;matplotlib -->
<g id="edge39" class="edge">
<title>pyqt&#45;&gt;matplotlib</title>
<path fill="none" stroke="#000000" d="M1422.399,-292.6261C1438.4549,-282.3044 1461.0023,-267.8097 1479.6599,-255.8155"/>
<polygon fill="#000000" stroke="#000000" points="1481.6713,-258.6833 1488.1905,-250.3316 1477.886,-252.7951 1481.6713,-258.6833"/>
</g>
<!-- pyreadline -->
<g id="node31" class="node">
<title>pyreadline</title>
<ellipse fill="#31688e" stroke="#000000" cx="177.5952" cy="-450" rx="59.5901" ry="18"/>
<text text-anchor="middle" x="177.5952" y="-446.3" font-family="Times,serif" font-size="14.00" fill="#ffffff">pyreadline</text>
</g>
<!-- pyreadline&#45;&gt;dill -->
<g id="edge40" class="edge">
<title>pyreadline&#45;&gt;dill</title>
<path fill="none" stroke="#000000" d="M177.5952,-431.8314C177.5952,-424.131 177.5952,-414.9743 177.5952,-406.4166"/>
<polygon fill="#000000" stroke="#000000" points="181.0953,-406.4132 177.5952,-396.4133 174.0953,-406.4133 181.0953,-406.4132"/>
</g>
<!-- qt&#45;&gt;opencv -->
<g id="edge41" class="edge">
<title>qt&#45;&gt;opencv</title>
<path fill="none" stroke="#000000" d="M1339.7106,-366.5382C1320.0185,-355.692 1289.7117,-338.8988 1263.5952,-324 1221.732,-300.1181 1173.8508,-272.0095 1142.7419,-253.6406"/>
<polygon fill="#000000" stroke="#000000" points="1144.4314,-250.5735 1134.0417,-248.499 1140.87,-256.5999 1144.4314,-250.5735"/>
</g>
<!-- qt&#45;&gt;pyqt -->
<g id="edge42" class="edge">
<title>qt&#45;&gt;pyqt</title>
<path fill="none" stroke="#000000" d="M1370.3116,-360.937C1375.1927,-352.3654 1381.214,-341.7914 1386.6663,-332.2165"/>
<polygon fill="#000000" stroke="#000000" points="1389.7567,-333.8625 1391.6637,-323.4407 1383.6738,-330.3986 1389.7567,-333.8625"/>
</g>
<!-- qt&#45;&gt;root -->
<g id="edge43" class="edge">
<title>qt&#45;&gt;root</title>
<path fill="none" stroke="#000000" d="M1380.6805,-365.9488C1399.5958,-354.5996 1428.1973,-337.4387 1449.9589,-324.3817"/>
<polygon fill="#000000" stroke="#000000" points="1452.0442,-327.2123 1458.8184,-319.066 1448.4427,-321.2098 1452.0442,-327.2123"/>
</g>
<!-- sqlalchemy -->
<g id="node34" class="node">
<title>sqlalchemy</title>
<ellipse fill="#000000" stroke="#000000" cx="2390.5952" cy="-522" rx="59.5901" ry="18"/>
<text text-anchor="middle" x="2390.5952" y="-518.3" font-family="Times,serif" font-size="14.00" fill="#ffffff">sqlalchemy</text>
</g>
<!-- texlive&#45;core&#45;&gt;r&#45;base -->
<g id="edge44" class="edge">
<title>texlive&#45;core&#45;&gt;r&#45;base</title>
<path fill="none" stroke="#000000" d="M823.7314,-145.3008C840.7471,-134.8296 862.789,-121.2654 880.7841,-110.1914"/>
<polygon fill="#000000" stroke="#000000" points="883.0952,-112.8789 889.7774,-104.6571 879.4265,-106.9173 883.0952,-112.8789"/>
</g>
<!-- unzip -->
<g id="node37" class="node">
<title>unzip</title>
<ellipse fill="#000000" stroke="#000000" cx="2277.5952" cy="-522" rx="35.194" ry="18"/>
<text text-anchor="middle" x="2277.5952" y="-518.3" font-family="Times,serif" font-size="14.00" fill="#ffffff">unzip</text>
</g>
<!-- unzip&#45;&gt;protobuf -->
<g id="edge45" class="edge">
<title>unzip&#45;&gt;protobuf</title>
<path fill="none" stroke="#000000" d="M2277.5952,-503.8314C2277.5952,-496.131 2277.5952,-486.9743 2277.5952,-478.4166"/>
<polygon fill="#000000" stroke="#000000" points="2281.0953,-478.4132 2277.5952,-468.4133 2274.0953,-478.4133 2281.0953,-478.4132"/>
</g>
<!-- libogg&#45;&gt;libsndfile -->
<g id="edge47" class="edge">
<title>libogg&#45;&gt;libsndfile</title>
<path fill="none" stroke="#000000" d="M1306.2391,-288.0535C1297.4969,-263.3696 1281.6803,-218.7111 1271.4115,-189.7167"/>
<polygon fill="#000000" stroke="#000000" points="1274.6691,-188.4305 1268.0313,-180.1727 1268.0707,-190.7675 1274.6691,-188.4305"/>
</g>
<!-- libvorbis -->
<g id="node40" class="node">
<title>libvorbis</title>
<ellipse fill="#fde725" stroke="#000000" cx="1381.5952" cy="-234" rx="54.6905" ry="18"/>
<text text-anchor="middle" x="1381.5952" y="-230.3" font-family="Times,serif" font-size="14.00" fill="#000000">libvorbis</text>
</g>
<!-- libogg&#45;&gt;libvorbis -->
<g id="edge48" class="edge">
<title>libogg&#45;&gt;libvorbis</title>
<path fill="none" stroke="#000000" d="M1328.5986,-289.3008C1337.2276,-280.2965 1348.0485,-269.0052 1357.659,-258.9769"/>
<polygon fill="#000000" stroke="#000000" points="1360.3237,-261.2548 1364.7159,-251.6132 1355.2698,-256.4114 1360.3237,-261.2548"/>
</g>
<!-- libogg&#45;&gt;libflac -->
<g id="edge46" class="edge">
<title>libogg&#45;&gt;libflac</title>
<path fill="none" stroke="#000000" d="M1293.287,-290.0209C1281.5135,-280.2772 1266.2731,-267.6645 1253.2351,-256.8745"/>
<polygon fill="#000000" stroke="#000000" points="1255.3879,-254.113 1245.4525,-250.4336 1250.9249,-259.5057 1255.3879,-254.113"/>
</g>
<!-- libvorbis&#45;&gt;libsndfile -->
<g id="edge49" class="edge">
<title>libvorbis&#45;&gt;libsndfile</title>
<path fill="none" stroke="#000000" d="M1355.2606,-218.1993C1338.3037,-208.0251 1316.0425,-194.6684 1297.4772,-183.5293"/>
<polygon fill="#000000" stroke="#000000" points="1299.0754,-180.4065 1288.6997,-178.2627 1295.4739,-186.409 1299.0754,-180.4065"/>
</g>
<!-- libflac&#45;&gt;libsndfile -->
<g id="edge50" class="edge">
<title>libflac&#45;&gt;libsndfile</title>
<path fill="none" stroke="#000000" d="M1234.494,-216.2022C1238.6047,-207.981 1243.5746,-198.041 1248.1301,-188.9301"/>
<polygon fill="#000000" stroke="#000000" points="1251.3322,-190.3521 1252.6739,-179.8425 1245.0712,-187.2216 1251.3322,-190.3521"/>
</g>
<!-- lld -->
<g id="node42" class="node">
<title>lld</title>
<ellipse fill="#31688e" stroke="#000000" cx="2495.5952" cy="-522" rx="27" ry="18"/>
<text text-anchor="middle" x="2495.5952" y="-518.3" font-family="Times,serif" font-size="14.00" fill="#ffffff">lld</text>
</g>
<!-- autotools_clang_conda -->
<g id="node52" class="node">
<title>autotools_clang_conda</title>
<ellipse fill="#fde725" stroke="#000000" cx="2495.5952" cy="-450" rx="113.18" ry="18"/>
<text text-anchor="middle" x="2495.5952" y="-446.3" font-family="Times,serif" font-size="14.00" fill="#000000">autotools_clang_conda</text>
</g>
<!-- lld&#45;&gt;autotools_clang_conda -->
<g id="edge51" class="edge">
<title>lld&#45;&gt;autotools_clang_conda</title>
<path fill="none" stroke="#000000" d="M2495.5952,-503.8314C2495.5952,-496.131 2495.5952,-486.9743 2495.5952,-478.4166"/>
<polygon fill="#000000" stroke="#000000" points="2499.0953,-478.4132 2495.5952,-468.4133 2492.0953,-478.4133 2499.0953,-478.4132"/>
</g>
<!-- nspr -->
<g id="node44" class="node">
<title>nspr</title>
<ellipse fill="#31688e" stroke="#000000" cx="1342.5952" cy="-522" rx="30.5947" ry="18"/>
<text text-anchor="middle" x="1342.5952" y="-518.3" font-family="Times,serif" font-size="14.00" fill="#ffffff">nspr</text>
</g>
<!-- nspr&#45;&gt;qt -->
<g id="edge53" class="edge">
<title>nspr&#45;&gt;qt</title>
<path fill="none" stroke="#000000" d="M1337.7864,-504.1891C1333.589,-485.8715 1328.9762,-456.6224 1334.5952,-432 1336.8052,-422.3154 1340.9828,-412.3441 1345.3531,-403.6468"/>
<polygon fill="#000000" stroke="#000000" points="1348.4632,-405.2529 1350.0869,-394.7832 1342.2886,-401.9552 1348.4632,-405.2529"/>
</g>
<!-- nss -->
<g id="node45" class="node">
<title>nss</title>
<ellipse fill="#fde725" stroke="#000000" cx="1370.5952" cy="-450" rx="27" ry="18"/>
<text text-anchor="middle" x="1370.5952" y="-446.3" font-family="Times,serif" font-size="14.00" fill="#000000">nss</text>
</g>
<!-- nspr&#45;&gt;nss -->
<g id="edge52" class="edge">
<title>nspr&#45;&gt;nss</title>
<path fill="none" stroke="#000000" d="M1349.5165,-504.2022C1352.7038,-496.0064 1356.5553,-486.1024 1360.0895,-477.0145"/>
<polygon fill="#000000" stroke="#000000" points="1363.3909,-478.1817 1363.7534,-467.593 1356.8669,-475.6445 1363.3909,-478.1817"/>
</g>
<!-- nss&#45;&gt;qt -->
<g id="edge54" class="edge">
<title>nss&#45;&gt;qt</title>
<path fill="none" stroke="#000000" d="M1368.0717,-431.8314C1367.0022,-424.131 1365.7305,-414.9743 1364.5419,-406.4166"/>
<polygon fill="#000000" stroke="#000000" points="1367.995,-405.8367 1363.1526,-396.4133 1361.0616,-406.7997 1367.995,-405.8367"/>
</g>
<!-- blas&#45;&gt;opencv -->
<g id="edge55" class="edge">
<title>blas&#45;&gt;opencv</title>
<path fill="none" stroke="#000000" d="M1109.5952,-287.8314C1109.5952,-280.131 1109.5952,-270.9743 1109.5952,-262.4166"/>
<polygon fill="#000000" stroke="#000000" points="1113.0953,-262.4132 1109.5952,-252.4133 1106.0953,-262.4133 1113.0953,-262.4132"/>
</g>
<!-- osqp&#45;&gt;cvxpy -->
<g id="edge56" class="edge">
<title>osqp&#45;&gt;cvxpy</title>
<path fill="none" stroke="#000000" d="M374.5952,-287.8314C374.5952,-280.131 374.5952,-270.9743 374.5952,-262.4166"/>
<polygon fill="#000000" stroke="#000000" points="378.0953,-262.4132 374.5952,-252.4133 371.0953,-262.4133 378.0953,-262.4132"/>
</g>
<!-- ecos -->
<g id="node48" class="node">
<title>ecos</title>
<ellipse fill="#31688e" stroke="#000000" cx="295.5952" cy="-306" rx="30.5947" ry="18"/>
<text text-anchor="middle" x="295.5952" y="-302.3" font-family="Times,serif" font-size="14.00" fill="#ffffff">ecos</text>
</g>
<!-- ecos&#45;&gt;cvxpy -->
<g id="edge57" class="edge">
<title>ecos&#45;&gt;cvxpy</title>
<path fill="none" stroke="#000000" d="M312.349,-290.7307C323.198,-280.843 337.5197,-267.7903 349.6902,-256.6981"/>
<polygon fill="#000000" stroke="#000000" points="352.286,-259.068 357.3193,-249.7451 347.5707,-253.8943 352.286,-259.068"/>
</g>
<!-- scs&#45;&gt;cvxpy -->
<g id="edge58" class="edge">
<title>scs&#45;&gt;cvxpy</title>
<path fill="none" stroke="#000000" d="M434.8479,-291.0816C424.4335,-281.2153 410.5761,-268.0872 398.7765,-256.9087"/>
<polygon fill="#000000" stroke="#000000" points="401.0433,-254.2348 391.3766,-249.8982 396.229,-259.3165 401.0433,-254.2348"/>
</g>
<!-- binutils_ -->
<g id="node53" class="node">
<title>binutils_</title>
<ellipse fill="#35b779" stroke="#000000" cx="2595.5952" cy="-522" rx="54.6905" ry="18"/>
<text text-anchor="middle" x="2595.5952" y="-518.3" font-family="Times,serif" font-size="14.00" fill="#000000">binutils_</text>
</g>
</g>
</svg>
