<?xml version="1.0" encoding="UTF-8" standalone="no"?>
<!DOCTYPE svg PUBLIC "-//W3C//DTD SVG 1.1//EN"
 "http://www.w3.org/Graphics/SVG/1.1/DTD/svg11.dtd">
<!-- Generated by graphviz version 2.40.1 (20161225.0304)
 -->
<!-- Title: %3 Pages: 1 -->
<svg width="2262pt" height="548pt"
 viewBox="0.00 0.00 2262.19 548.00" xmlns="http://www.w3.org/2000/svg" xmlns:xlink="http://www.w3.org/1999/xlink">
<g id="graph0" class="graph" transform="scale(1 1) rotate(0) translate(4 544)">
<title>%3</title>
<polygon fill="#ffffff" stroke="transparent" points="-4,4 -4,-544 2258.1903,-544 2258.1903,4 -4,4"/>
<!-- arrow&#45;cpp -->
<g id="node1" class="node">
<title>arrow&#45;cpp</title>
<ellipse fill="#31688e" stroke="#000000" cx="54.5952" cy="-522" rx="54.6905" ry="18"/>
<text text-anchor="middle" x="54.5952" y="-518.3" font-family="Times,serif" font-size="14.00" fill="#ffffff">arrow cpp</text>
</g>
<!-- pyarrow -->
<g id="node27" class="node">
<title>pyarrow</title>
<ellipse fill="#fde725" stroke="#000000" cx="54.5952" cy="-450" rx="44.6926" ry="18"/>
<text text-anchor="middle" x="54.5952" y="-446.3" font-family="Times,serif" font-size="14.00" fill="#000000">pyarrow</text>
</g>
<!-- arrow&#45;cpp&#45;&gt;pyarrow -->
<g id="edge1" class="edge">
<title>arrow&#45;cpp&#45;&gt;pyarrow</title>
<path fill="none" stroke="#000000" d="M54.5952,-503.8314C54.5952,-496.131 54.5952,-486.9743 54.5952,-478.4166"/>
<polygon fill="#000000" stroke="#000000" points="58.0953,-478.4132 54.5952,-468.4133 51.0953,-478.4133 58.0953,-478.4132"/>
</g>
<!-- dill -->
<g id="node2" class="node">
<title>dill</title>
<ellipse fill="#fde725" stroke="#000000" cx="275.5952" cy="-450" rx="30.5947" ry="18"/>
<text text-anchor="middle" x="275.5952" y="-446.3" font-family="Times,serif" font-size="14.00" fill="#000000">dill</text>
</g>
<!-- multiprocess -->
<g id="node20" class="node">
<title>multiprocess</title>
<ellipse fill="#fde725" stroke="#000000" cx="275.5952" cy="-378" rx="69.5877" ry="18"/>
<text text-anchor="middle" x="275.5952" y="-374.3" font-family="Times,serif" font-size="14.00" fill="#000000">multiprocess</text>
</g>
<!-- dill&#45;&gt;multiprocess -->
<g id="edge2" class="edge">
<title>dill&#45;&gt;multiprocess</title>
<path fill="none" stroke="#000000" d="M275.5952,-431.8314C275.5952,-424.131 275.5952,-414.9743 275.5952,-406.4166"/>
<polygon fill="#000000" stroke="#000000" points="279.0953,-406.4132 275.5952,-396.4133 272.0953,-406.4133 279.0953,-406.4132"/>
</g>
<!-- future -->
<g id="node3" class="node">
<title>future</title>
<ellipse fill="#000000" stroke="#000000" cx="157.5952" cy="-450" rx="40.0939" ry="18"/>
<text text-anchor="middle" x="157.5952" y="-446.3" font-family="Times,serif" font-size="14.00" fill="#ffffff">future</text>
</g>
<!-- osqp -->
<g id="node45" class="node">
<title>osqp</title>
<ellipse fill="#fde725" stroke="#000000" cx="157.5952" cy="-378" rx="30.5947" ry="18"/>
<text text-anchor="middle" x="157.5952" y="-374.3" font-family="Times,serif" font-size="14.00" fill="#000000">osqp</text>
</g>
<!-- future&#45;&gt;osqp -->
<g id="edge3" class="edge">
<title>future&#45;&gt;osqp</title>
<path fill="none" stroke="#000000" d="M157.5952,-431.8314C157.5952,-424.131 157.5952,-414.9743 157.5952,-406.4166"/>
<polygon fill="#000000" stroke="#000000" points="161.0953,-406.4132 157.5952,-396.4133 154.0953,-406.4133 161.0953,-406.4132"/>
</g>
<!-- gevent -->
<g id="node4" class="node">
<title>gevent</title>
<ellipse fill="#31688e" stroke="#000000" cx="1552.5952" cy="-522" rx="40.0939" ry="18"/>
<text text-anchor="middle" x="1552.5952" y="-518.3" font-family="Times,serif" font-size="14.00" fill="#ffffff">gevent</text>
</g>
<!-- glew -->
<g id="node5" class="node">
<title>glew</title>
<ellipse fill="#fde725" stroke="#000000" cx="1102.5952" cy="-378" rx="30.5947" ry="18"/>
<text text-anchor="middle" x="1102.5952" y="-374.3" font-family="Times,serif" font-size="14.00" fill="#000000">glew</text>
</g>
<!-- root -->
<g id="node49" class="node">
<title>root</title>
<ellipse fill="#fde725" stroke="#000000" cx="1045.5952" cy="-306" rx="30.5947" ry="18"/>
<text text-anchor="middle" x="1045.5952" y="-302.3" font-family="Times,serif" font-size="14.00" fill="#000000">root</text>
</g>
<!-- glew&#45;&gt;root -->
<g id="edge4" class="edge">
<title>glew&#45;&gt;root</title>
<path fill="none" stroke="#000000" d="M1089.661,-361.6621C1082.404,-352.4953 1073.2046,-340.8751 1065.0905,-330.6257"/>
<polygon fill="#000000" stroke="#000000" points="1067.8249,-328.4409 1058.8737,-322.7729 1062.3366,-332.7859 1067.8249,-328.4409"/>
</g>
<!-- gmpy2 -->
<g id="node6" class="node">
<title>gmpy2</title>
<ellipse fill="#fde725" stroke="#000000" cx="1123.5952" cy="-90" rx="35.194" ry="18"/>
<text text-anchor="middle" x="1123.5952" y="-86.3" font-family="Times,serif" font-size="14.00" fill="#000000">gmpy2</text>
</g>
<!-- sympy -->
<g id="node33" class="node">
<title>sympy</title>
<ellipse fill="#fde725" stroke="#000000" cx="1123.5952" cy="-18" rx="35.194" ry="18"/>
<text text-anchor="middle" x="1123.5952" y="-14.3" font-family="Times,serif" font-size="14.00" fill="#000000">sympy</text>
</g>
<!-- gmpy2&#45;&gt;sympy -->
<g id="edge5" class="edge">
<title>gmpy2&#45;&gt;sympy</title>
<path fill="none" stroke="#000000" d="M1123.5952,-71.8314C1123.5952,-64.131 1123.5952,-54.9743 1123.5952,-46.4166"/>
<polygon fill="#000000" stroke="#000000" points="1127.0953,-46.4132 1123.5952,-36.4133 1120.0953,-46.4133 1127.0953,-46.4132"/>
</g>
<!-- gstreamer -->
<g id="node7" class="node">
<title>gstreamer</title>
<ellipse fill="#31688e" stroke="#000000" cx="1591.5952" cy="-450" rx="54.6905" ry="18"/>
<text text-anchor="middle" x="1591.5952" y="-446.3" font-family="Times,serif" font-size="14.00" fill="#ffffff">gstreamer</text>
</g>
<!-- qt -->
<g id="node30" class="node">
<title>qt</title>
<ellipse fill="#fde725" stroke="#000000" cx="1452.5952" cy="-378" rx="27" ry="18"/>
<text text-anchor="middle" x="1452.5952" y="-374.3" font-family="Times,serif" font-size="14.00" fill="#000000">qt</text>
</g>
<!-- gstreamer&#45;&gt;qt -->
<g id="edge6" class="edge">
<title>gstreamer&#45;&gt;qt</title>
<path fill="none" stroke="#000000" d="M1562.1168,-434.7307C1539.0031,-422.7581 1506.9306,-406.145 1483.4666,-393.991"/>
<polygon fill="#000000" stroke="#000000" points="1484.7937,-390.7367 1474.3044,-389.2451 1481.574,-396.9524 1484.7937,-390.7367"/>
</g>
<!-- gunicorn -->
<g id="node8" class="node">
<title>gunicorn</title>
<ellipse fill="#31688e" stroke="#000000" cx="1660.5952" cy="-522" rx="50.0912" ry="18"/>
<text text-anchor="middle" x="1660.5952" y="-518.3" font-family="Times,serif" font-size="14.00" fill="#ffffff">gunicorn</text>
</g>
<!-- hdf5 -->
<g id="node9" class="node">
<title>hdf5</title>
<ellipse fill="#000000" stroke="#000000" cx="662.5952" cy="-378" rx="30.5947" ry="18"/>
<text text-anchor="middle" x="662.5952" y="-374.3" font-family="Times,serif" font-size="14.00" fill="#ffffff">hdf5</text>
</g>
<!-- opencv -->
<g id="node23" class="node">
<title>opencv</title>
<ellipse fill="#fde725" stroke="#000000" cx="696.5952" cy="-306" rx="40.0939" ry="18"/>
<text text-anchor="middle" x="696.5952" y="-302.3" font-family="Times,serif" font-size="14.00" fill="#000000">opencv</text>
</g>
<!-- hdf5&#45;&gt;opencv -->
<g id="edge7" class="edge">
<title>hdf5&#45;&gt;opencv</title>
<path fill="none" stroke="#000000" d="M670.8256,-360.5708C674.7347,-352.2927 679.4958,-342.2104 683.8569,-332.9752"/>
<polygon fill="#000000" stroke="#000000" points="687.0991,-334.3059 688.2043,-323.7689 680.7693,-331.3168 687.0991,-334.3059"/>
</g>
<!-- ipyparallel -->
<g id="node10" class="node">
<title>ipyparallel</title>
<ellipse fill="#31688e" stroke="#000000" cx="1215.5952" cy="-378" rx="64.189" ry="18"/>
<text text-anchor="middle" x="1215.5952" y="-374.3" font-family="Times,serif" font-size="14.00" fill="#ffffff">ipyparallel</text>
</g>
<!-- ipyparallel&#45;&gt;root -->
<g id="edge8" class="edge">
<title>ipyparallel&#45;&gt;root</title>
<path fill="none" stroke="#000000" d="M1179.0519,-363.1532C1152.9331,-352.4606 1116.9977,-337.5842 1085.5952,-324 1083.5508,-323.1156 1081.4514,-322.1984 1079.3363,-321.2673"/>
<polygon fill="#000000" stroke="#000000" points="1080.6434,-318.0182 1070.0837,-317.1557 1077.8008,-324.415 1080.6434,-318.0182"/>
</g>
<!-- ipython -->
<g id="node11" class="node">
<title>ipython</title>
<ellipse fill="#000000" stroke="#000000" cx="1088.5952" cy="-450" rx="44.6926" ry="18"/>
<text text-anchor="middle" x="1088.5952" y="-446.3" font-family="Times,serif" font-size="14.00" fill="#ffffff">ipython</text>
</g>
<!-- ipython&#45;&gt;ipyparallel -->
<g id="edge9" class="edge">
<title>ipython&#45;&gt;ipyparallel</title>
<path fill="none" stroke="#000000" d="M1114.602,-435.256C1132.9342,-424.8629 1157.7619,-410.7873 1178.2127,-399.1932"/>
<polygon fill="#000000" stroke="#000000" points="1179.9959,-402.2057 1186.9689,-394.229 1176.5435,-396.1162 1179.9959,-402.2057"/>
</g>
<!-- jupyter_client -->
<g id="node12" class="node">
<title>jupyter_client</title>
<ellipse fill="#31688e" stroke="#000000" cx="1230.5952" cy="-450" rx="79.0865" ry="18"/>
<text text-anchor="middle" x="1230.5952" y="-446.3" font-family="Times,serif" font-size="14.00" fill="#ffffff">jupyter_client</text>
</g>
<!-- jupyter_client&#45;&gt;ipyparallel -->
<g id="edge10" class="edge">
<title>jupyter_client&#45;&gt;ipyparallel</title>
<path fill="none" stroke="#000000" d="M1226.81,-431.8314C1225.2058,-424.131 1223.2981,-414.9743 1221.5153,-406.4166"/>
<polygon fill="#000000" stroke="#000000" points="1224.8973,-405.4892 1219.4313,-396.4133 1218.0444,-406.9169 1224.8973,-405.4892"/>
</g>
<!-- nbconvert -->
<g id="node21" class="node">
<title>nbconvert</title>
<ellipse fill="#000000" stroke="#000000" cx="1352.5952" cy="-378" rx="54.6905" ry="18"/>
<text text-anchor="middle" x="1352.5952" y="-374.3" font-family="Times,serif" font-size="14.00" fill="#ffffff">nbconvert</text>
</g>
<!-- jupyter_client&#45;&gt;nbconvert -->
<g id="edge11" class="edge">
<title>jupyter_client&#45;&gt;nbconvert</title>
<path fill="none" stroke="#000000" d="M1259.1987,-433.1192C1276.5088,-422.9034 1298.722,-409.794 1317.142,-398.9232"/>
<polygon fill="#000000" stroke="#000000" points="1319.0086,-401.8857 1325.8418,-393.7889 1315.4508,-395.8572 1319.0086,-401.8857"/>
</g>
<!-- libglu -->
<g id="node13" class="node">
<title>libglu</title>
<ellipse fill="#31688e" stroke="#000000" cx="985.5952" cy="-450" rx="40.0939" ry="18"/>
<text text-anchor="middle" x="985.5952" y="-446.3" font-family="Times,serif" font-size="14.00" fill="#ffffff">libglu</text>
</g>
<!-- libglu&#45;&gt;glew -->
<g id="edge13" class="edge">
<title>libglu&#45;&gt;glew</title>
<path fill="none" stroke="#000000" d="M1009.2719,-435.4297C1027.5697,-424.1695 1053.0141,-408.5114 1072.7135,-396.3887"/>
<polygon fill="#000000" stroke="#000000" points="1074.6318,-399.3179 1081.314,-391.0961 1070.9631,-393.3563 1074.6318,-399.3179"/>
</g>
<!-- freeglut -->
<g id="node36" class="node">
<title>freeglut</title>
<ellipse fill="#fde725" stroke="#000000" cx="965.5952" cy="-378" rx="50.0912" ry="18"/>
<text text-anchor="middle" x="965.5952" y="-374.3" font-family="Times,serif" font-size="14.00" fill="#000000">freeglut</text>
</g>
<!-- libglu&#45;&gt;freeglut -->
<g id="edge12" class="edge">
<title>libglu&#45;&gt;freeglut</title>
<path fill="none" stroke="#000000" d="M980.5483,-431.8314C978.3525,-423.9266 975.7305,-414.4872 973.2997,-405.7365"/>
<polygon fill="#000000" stroke="#000000" points="976.6199,-404.6118 970.5711,-395.9134 969.8753,-406.4854 976.6199,-404.6118"/>
</g>
<!-- libglu&#45;&gt;root -->
<g id="edge14" class="edge">
<title>libglu&#45;&gt;root</title>
<path fill="none" stroke="#000000" d="M1000.4938,-433.1033C1008.71,-422.9711 1018.46,-409.4711 1024.5952,-396 1033.5452,-376.3482 1038.8888,-352.4844 1041.9443,-334.2688"/>
<polygon fill="#000000" stroke="#000000" points="1045.421,-334.6882 1043.4889,-324.271 1038.5031,-333.6193 1045.421,-334.6882"/>
</g>
<!-- libsndfile -->
<g id="node14" class="node">
<title>libsndfile</title>
<ellipse fill="#fde725" stroke="#000000" cx="785.5952" cy="-162" rx="59.5901" ry="18"/>
<text text-anchor="middle" x="785.5952" y="-158.3" font-family="Times,serif" font-size="14.00" fill="#000000">libsndfile</text>
</g>
<!-- r&#45;base -->
<g id="node31" class="node">
<title>r&#45;base</title>
<ellipse fill="#fde725" stroke="#000000" cx="859.5952" cy="-90" rx="40.0939" ry="18"/>
<text text-anchor="middle" x="859.5952" y="-86.3" font-family="Times,serif" font-size="14.00" fill="#000000">r base</text>
</g>
<!-- libsndfile&#45;&gt;r&#45;base -->
<g id="edge15" class="edge">
<title>libsndfile&#45;&gt;r&#45;base</title>
<path fill="none" stroke="#000000" d="M803.5085,-144.5708C813.0773,-135.2607 824.9914,-123.6686 835.3747,-113.5659"/>
<polygon fill="#000000" stroke="#000000" points="837.8828,-116.0089 842.6094,-106.5267 833.0013,-110.9918 837.8828,-116.0089"/>
</g>
<!-- llvmlite -->
<g id="node15" class="node">
<title>llvmlite</title>
<ellipse fill="#31688e" stroke="#000000" cx="1778.5952" cy="-522" rx="50.0912" ry="18"/>
<text text-anchor="middle" x="1778.5952" y="-518.3" font-family="Times,serif" font-size="14.00" fill="#ffffff">llvmlite</text>
</g>
<!-- numba -->
<g id="node41" class="node">
<title>numba</title>
<ellipse fill="#fde725" stroke="#000000" cx="1778.5952" cy="-450" rx="35.194" ry="18"/>
<text text-anchor="middle" x="1778.5952" y="-446.3" font-family="Times,serif" font-size="14.00" fill="#000000">numba</text>
</g>
<!-- llvmlite&#45;&gt;numba -->
<g id="edge16" class="edge">
<title>llvmlite&#45;&gt;numba</title>
<path fill="none" stroke="#000000" d="M1778.5952,-503.8314C1778.5952,-496.131 1778.5952,-486.9743 1778.5952,-478.4166"/>
<polygon fill="#000000" stroke="#000000" points="1782.0953,-478.4132 1778.5952,-468.4133 1775.0953,-478.4133 1782.0953,-478.4132"/>
</g>
<!-- matplotlib -->
<g id="node16" class="node">
<title>matplotlib</title>
<ellipse fill="#fde725" stroke="#000000" cx="1452.5952" cy="-234" rx="59.5901" ry="18"/>
<text text-anchor="middle" x="1452.5952" y="-230.3" font-family="Times,serif" font-size="14.00" fill="#000000">matplotlib</text>
</g>
<!-- mpc -->
<g id="node17" class="node">
<title>mpc</title>
<ellipse fill="#fde725" stroke="#000000" cx="1123.5952" cy="-162" rx="27" ry="18"/>
<text text-anchor="middle" x="1123.5952" y="-158.3" font-family="Times,serif" font-size="14.00" fill="#000000">mpc</text>
</g>
<!-- mpc&#45;&gt;gmpy2 -->
<g id="edge17" class="edge">
<title>mpc&#45;&gt;gmpy2</title>
<path fill="none" stroke="#000000" d="M1123.5952,-143.8314C1123.5952,-136.131 1123.5952,-126.9743 1123.5952,-118.4166"/>
<polygon fill="#000000" stroke="#000000" points="1127.0953,-118.4132 1123.5952,-108.4133 1120.0953,-118.4133 1127.0953,-118.4132"/>
</g>
<!-- mpfr -->
<g id="node18" class="node">
<title>mpfr</title>
<ellipse fill="#fde725" stroke="#000000" cx="1066.5952" cy="-234" rx="30.5947" ry="18"/>
<text text-anchor="middle" x="1066.5952" y="-230.3" font-family="Times,serif" font-size="14.00" fill="#000000">mpfr</text>
</g>
<!-- mpfr&#45;&gt;gmpy2 -->
<g id="edge18" class="edge">
<title>mpfr&#45;&gt;gmpy2</title>
<path fill="none" stroke="#000000" d="M1068.8841,-215.8102C1071.6713,-197.1908 1077.3311,-167.7053 1087.5952,-144 1091.8931,-134.0739 1098.03,-123.9986 1104.0224,-115.2819"/>
<polygon fill="#000000" stroke="#000000" points="1106.9223,-117.2437 1109.8931,-107.0739 1101.2287,-113.1714 1106.9223,-117.2437"/>
</g>
<!-- mpfr&#45;&gt;mpc -->
<g id="edge19" class="edge">
<title>mpfr&#45;&gt;mpc</title>
<path fill="none" stroke="#000000" d="M1079.5293,-217.6621C1086.89,-208.3644 1096.249,-196.5426 1104.4469,-186.1873"/>
<polygon fill="#000000" stroke="#000000" points="1107.2493,-188.2862 1110.7122,-178.2733 1101.7609,-183.9413 1107.2493,-188.2862"/>
</g>
<!-- mpfr&#45;&gt;r&#45;base -->
<g id="edge20" class="edge">
<title>mpfr&#45;&gt;r&#45;base</title>
<path fill="none" stroke="#000000" d="M1060.0336,-216.2796C1051.7033,-196.0883 1035.4812,-163.387 1011.5952,-144 981.6739,-119.7145 940.0012,-105.9347 907.856,-98.3834"/>
<polygon fill="#000000" stroke="#000000" points="908.302,-94.8972 897.781,-96.1451 906.7839,-101.7306 908.302,-94.8972"/>
</g>
<!-- texlive&#45;core -->
<g id="node34" class="node">
<title>texlive&#45;core</title>
<ellipse fill="#fde725" stroke="#000000" cx="932.5952" cy="-162" rx="69.5877" ry="18"/>
<text text-anchor="middle" x="932.5952" y="-158.3" font-family="Times,serif" font-size="14.00" fill="#000000">texlive core</text>
</g>
<!-- mpfr&#45;&gt;texlive&#45;core -->
<g id="edge21" class="edge">
<title>mpfr&#45;&gt;texlive&#45;core</title>
<path fill="none" stroke="#000000" d="M1043.8639,-221.7862C1024.22,-211.2312 995.3864,-195.7386 971.9933,-183.1691"/>
<polygon fill="#000000" stroke="#000000" points="973.4648,-179.9866 962.9992,-178.3365 970.1515,-186.1528 973.4648,-179.9866"/>
</g>
<!-- mpir -->
<g id="node19" class="node">
<title>mpir</title>
<ellipse fill="#31688e" stroke="#000000" cx="1125.5952" cy="-306" rx="30.5947" ry="18"/>
<text text-anchor="middle" x="1125.5952" y="-302.3" font-family="Times,serif" font-size="14.00" fill="#ffffff">mpir</text>
</g>
<!-- mpir&#45;&gt;gmpy2 -->
<g id="edge22" class="edge">
<title>mpir&#45;&gt;gmpy2</title>
<path fill="none" stroke="#000000" d="M1134.8314,-288.7269C1149.5761,-258.838 1175.2513,-195.7088 1159.5952,-144 1156.4607,-133.6475 1150.6145,-123.4656 1144.5313,-114.7822"/>
<polygon fill="#000000" stroke="#000000" points="1147.2465,-112.5685 1138.4607,-106.6475 1141.6365,-116.7551 1147.2465,-112.5685"/>
</g>
<!-- mpir&#45;&gt;mpc -->
<g id="edge23" class="edge">
<title>mpir&#45;&gt;mpc</title>
<path fill="none" stroke="#000000" d="M1125.3419,-287.7623C1125.0007,-263.201 1124.3903,-219.2474 1123.989,-190.3541"/>
<polygon fill="#000000" stroke="#000000" points="1127.485,-190.04 1123.8464,-180.0896 1120.4857,-190.1373 1127.485,-190.04"/>
</g>
<!-- mpir&#45;&gt;mpfr -->
<g id="edge24" class="edge">
<title>mpir&#45;&gt;mpfr</title>
<path fill="none" stroke="#000000" d="M1112.2071,-289.6621C1104.5882,-280.3644 1094.9009,-268.5426 1086.4153,-258.1873"/>
<polygon fill="#000000" stroke="#000000" points="1088.9756,-255.7897 1079.9302,-250.2733 1083.5613,-260.2265 1088.9756,-255.7897"/>
</g>
<!-- cvxpy -->
<g id="node48" class="node">
<title>cvxpy</title>
<ellipse fill="#fde725" stroke="#000000" cx="334.5952" cy="-306" rx="35.194" ry="18"/>
<text text-anchor="middle" x="334.5952" y="-302.3" font-family="Times,serif" font-size="14.00" fill="#000000">cvxpy</text>
</g>
<!-- multiprocess&#45;&gt;cvxpy -->
<g id="edge25" class="edge">
<title>multiprocess&#45;&gt;cvxpy</title>
<path fill="none" stroke="#000000" d="M290.1794,-360.2022C297.5375,-351.223 306.5756,-340.1934 314.5736,-330.4331"/>
<polygon fill="#000000" stroke="#000000" points="317.3565,-332.559 320.9876,-322.6058 311.9422,-328.1222 317.3565,-332.559"/>
</g>
<!-- openblas -->
<g id="node22" class="node">
<title>openblas</title>
<ellipse fill="#000000" stroke="#000000" cx="583.5952" cy="-450" rx="50.0912" ry="18"/>
<text text-anchor="middle" x="583.5952" y="-446.3" font-family="Times,serif" font-size="14.00" fill="#ffffff">openblas</text>
</g>
<!-- openblas&#45;&gt;opencv -->
<g id="edge27" class="edge">
<title>openblas&#45;&gt;opencv</title>
<path fill="none" stroke="#000000" d="M628.5905,-442.066C655.0066,-434.8467 686.3127,-421.2691 702.5952,-396 714.4585,-377.589 711.568,-352.4314 706.5039,-333.3946"/>
<polygon fill="#000000" stroke="#000000" points="709.853,-332.3773 703.6359,-323.7983 703.1461,-334.3818 709.853,-332.3773"/>
</g>
<!-- openblas&#45;&gt;r&#45;base -->
<g id="edge28" class="edge">
<title>openblas&#45;&gt;r&#45;base</title>
<path fill="none" stroke="#000000" d="M567.7928,-432.7382C559.4111,-422.6967 549.6269,-409.4058 543.5952,-396 526.8207,-358.7183 524.5952,-346.8816 524.5952,-306 524.5952,-306 524.5952,-306 524.5952,-234 524.5952,-171.9906 720.7777,-120.5584 812.8823,-99.8287"/>
<polygon fill="#000000" stroke="#000000" points="813.7834,-103.2139 822.786,-97.6279 812.2649,-96.3806 813.7834,-103.2139"/>
</g>
<!-- blas -->
<g id="node44" class="node">
<title>blas</title>
<ellipse fill="#000000" stroke="#000000" cx="583.5952" cy="-378" rx="30.5947" ry="18"/>
<text text-anchor="middle" x="583.5952" y="-374.3" font-family="Times,serif" font-size="14.00" fill="#ffffff">blas</text>
</g>
<!-- openblas&#45;&gt;blas -->
<g id="edge26" class="edge">
<title>openblas&#45;&gt;blas</title>
<path fill="none" stroke="#000000" d="M583.5952,-431.8314C583.5952,-424.131 583.5952,-414.9743 583.5952,-406.4166"/>
<polygon fill="#000000" stroke="#000000" points="587.0953,-406.4132 583.5952,-396.4133 580.0953,-406.4133 587.0953,-406.4132"/>
</g>
<!-- scs -->
<g id="node47" class="node">
<title>scs</title>
<ellipse fill="#fde725" stroke="#000000" cx="469.5952" cy="-378" rx="27" ry="18"/>
<text text-anchor="middle" x="469.5952" y="-374.3" font-family="Times,serif" font-size="14.00" fill="#000000">scs</text>
</g>
<!-- openblas&#45;&gt;scs -->
<g id="edge30" class="edge">
<title>openblas&#45;&gt;scs</title>
<path fill="none" stroke="#000000" d="M558.5774,-434.1993C540.6658,-422.8867 516.5247,-407.6397 497.9069,-395.8811"/>
<polygon fill="#000000" stroke="#000000" points="499.5863,-392.8022 489.2624,-390.4214 495.8483,-398.7206 499.5863,-392.8022"/>
</g>
<!-- openblas&#45;&gt;root -->
<g id="edge29" class="edge">
<title>openblas&#45;&gt;root</title>
<path fill="none" stroke="#000000" d="M631.3304,-444.2668C701.3081,-435.3077 827.8518,-416.8408 868.5952,-396 889.3073,-385.4055 886.9396,-372.4456 906.5952,-360 938.2923,-339.93 978.6444,-325.2785 1007.6959,-316.3422"/>
<polygon fill="#000000" stroke="#000000" points="1008.8897,-319.6384 1017.4678,-313.4201 1006.8842,-312.9318 1008.8897,-319.6384"/>
</g>
<!-- pandoc -->
<g id="node24" class="node">
<title>pandoc</title>
<ellipse fill="#000000" stroke="#000000" cx="1368.5952" cy="-450" rx="40.0939" ry="18"/>
<text text-anchor="middle" x="1368.5952" y="-446.3" font-family="Times,serif" font-size="14.00" fill="#ffffff">pandoc</text>
</g>
<!-- pandoc&#45;&gt;nbconvert -->
<g id="edge31" class="edge">
<title>pandoc&#45;&gt;nbconvert</title>
<path fill="none" stroke="#000000" d="M1364.5577,-431.8314C1362.8465,-424.131 1360.8117,-414.9743 1358.91,-406.4166"/>
<polygon fill="#000000" stroke="#000000" points="1362.273,-405.4159 1356.687,-396.4133 1355.4397,-406.9344 1362.273,-405.4159"/>
</g>
<!-- pkgconfig -->
<g id="node25" class="node">
<title>pkgconfig</title>
<ellipse fill="#000000" stroke="#000000" cx="804.5952" cy="-378" rx="54.6905" ry="18"/>
<text text-anchor="middle" x="804.5952" y="-374.3" font-family="Times,serif" font-size="14.00" fill="#ffffff">pkgconfig</text>
</g>
<!-- pkgconfig&#45;&gt;opencv -->
<g id="edge34" class="edge">
<title>pkgconfig&#45;&gt;opencv</title>
<path fill="none" stroke="#000000" d="M780.3578,-361.8418C764.7877,-351.4617 744.4165,-337.8809 727.6626,-326.7116"/>
<polygon fill="#000000" stroke="#000000" points="729.5376,-323.7552 719.2756,-321.1203 725.6547,-329.5795 729.5376,-323.7552"/>
</g>
<!-- libogg -->
<g id="node37" class="node">
<title>libogg</title>
<ellipse fill="#31688e" stroke="#000000" cx="832.5952" cy="-306" rx="40.0939" ry="18"/>
<text text-anchor="middle" x="832.5952" y="-302.3" font-family="Times,serif" font-size="14.00" fill="#ffffff">libogg</text>
</g>
<!-- pkgconfig&#45;&gt;libogg -->
<g id="edge33" class="edge">
<title>pkgconfig&#45;&gt;libogg</title>
<path fill="none" stroke="#000000" d="M811.6607,-359.8314C814.7682,-351.8406 818.4855,-342.2819 821.9196,-333.4514"/>
<polygon fill="#000000" stroke="#000000" points="825.2663,-334.502 825.6288,-323.9134 818.7423,-331.9649 825.2663,-334.502"/>
</g>
<!-- libflac -->
<g id="node39" class="node">
<title>libflac</title>
<ellipse fill="#fde725" stroke="#000000" cx="759.5952" cy="-234" rx="44.6926" ry="18"/>
<text text-anchor="middle" x="759.5952" y="-230.3" font-family="Times,serif" font-size="14.00" fill="#000000">libflac</text>
</g>
<!-- pkgconfig&#45;&gt;libflac -->
<g id="edge32" class="edge">
<title>pkgconfig&#45;&gt;libflac</title>
<path fill="none" stroke="#000000" d="M796.8938,-359.6876C792.6796,-349.3174 787.5309,-336.0477 783.5952,-324 776.8789,-303.4405 770.6294,-279.7972 766.1923,-261.9044"/>
<polygon fill="#000000" stroke="#000000" points="769.5708,-260.9856 763.7994,-252.1007 762.7705,-262.6455 769.5708,-260.9856"/>
</g>
<!-- pkgconfig&#45;&gt;root -->
<g id="edge35" class="edge">
<title>pkgconfig&#45;&gt;root</title>
<path fill="none" stroke="#000000" d="M845.205,-365.8676C890.8791,-352.2222 964.4237,-330.2504 1008.5731,-317.0605"/>
<polygon fill="#000000" stroke="#000000" points="1009.7484,-320.3624 1018.328,-314.1462 1007.7445,-313.6553 1009.7484,-320.3624"/>
</g>
<!-- protobuf -->
<g id="node26" class="node">
<title>protobuf</title>
<ellipse fill="#fde725" stroke="#000000" cx="1881.5952" cy="-450" rx="50.0912" ry="18"/>
<text text-anchor="middle" x="1881.5952" y="-446.3" font-family="Times,serif" font-size="14.00" fill="#000000">protobuf</text>
</g>
<!-- pyqt -->
<g id="node28" class="node">
<title>pyqt</title>
<ellipse fill="#fde725" stroke="#000000" cx="1452.5952" cy="-306" rx="30.5947" ry="18"/>
<text text-anchor="middle" x="1452.5952" y="-302.3" font-family="Times,serif" font-size="14.00" fill="#000000">pyqt</text>
</g>
<!-- pyqt&#45;&gt;matplotlib -->
<g id="edge36" class="edge">
<title>pyqt&#45;&gt;matplotlib</title>
<path fill="none" stroke="#000000" d="M1452.5952,-287.8314C1452.5952,-280.131 1452.5952,-270.9743 1452.5952,-262.4166"/>
<polygon fill="#000000" stroke="#000000" points="1456.0953,-262.4132 1452.5952,-252.4133 1449.0953,-262.4133 1456.0953,-262.4132"/>
</g>
<!-- pyreadline -->
<g id="node29" class="node">
<title>pyreadline</title>
<ellipse fill="#31688e" stroke="#000000" cx="275.5952" cy="-522" rx="59.5901" ry="18"/>
<text text-anchor="middle" x="275.5952" y="-518.3" font-family="Times,serif" font-size="14.00" fill="#ffffff">pyreadline</text>
</g>
<!-- pyreadline&#45;&gt;dill -->
<g id="edge37" class="edge">
<title>pyreadline&#45;&gt;dill</title>
<path fill="none" stroke="#000000" d="M275.5952,-503.8314C275.5952,-496.131 275.5952,-486.9743 275.5952,-478.4166"/>
<polygon fill="#000000" stroke="#000000" points="279.0953,-478.4132 275.5952,-468.4133 272.0953,-478.4133 279.0953,-478.4132"/>
</g>
<!-- qt&#45;&gt;opencv -->
<g id="edge38" class="edge">
<title>qt&#45;&gt;opencv</title>
<path fill="none" stroke="#000000" d="M1432.2237,-366.0288C1427.2615,-363.6212 1421.8621,-361.4024 1416.5952,-360 1144.2947,-287.4954 1062.9902,-360.6451 783.5952,-324 770.068,-322.2258 755.5022,-319.5287 742.2304,-316.7583"/>
<polygon fill="#000000" stroke="#000000" points="742.8846,-313.3191 732.3724,-314.6396 741.4136,-320.1628 742.8846,-313.3191"/>
</g>
<!-- qt&#45;&gt;pyqt -->
<g id="edge39" class="edge">
<title>qt&#45;&gt;pyqt</title>
<path fill="none" stroke="#000000" d="M1452.5952,-359.8314C1452.5952,-352.131 1452.5952,-342.9743 1452.5952,-334.4166"/>
<polygon fill="#000000" stroke="#000000" points="1456.0953,-334.4132 1452.5952,-324.4133 1449.0953,-334.4133 1456.0953,-334.4132"/>
</g>
<!-- qt&#45;&gt;root -->
<g id="edge40" class="edge">
<title>qt&#45;&gt;root</title>
<path fill="none" stroke="#000000" d="M1432.1688,-366.2249C1427.2088,-363.8093 1421.8242,-361.5376 1416.5952,-360 1274.627,-318.2539 1228.3852,-362.8419 1085.5952,-324 1083.1519,-323.3354 1080.6685,-322.5398 1078.1967,-321.6584"/>
<polygon fill="#000000" stroke="#000000" points="1079.4148,-318.3762 1068.8294,-317.9296 1076.8259,-324.8799 1079.4148,-318.3762"/>
</g>
<!-- sqlalchemy -->
<g id="node32" class="node">
<title>sqlalchemy</title>
<ellipse fill="#000000" stroke="#000000" cx="1994.5952" cy="-522" rx="59.5901" ry="18"/>
<text text-anchor="middle" x="1994.5952" y="-518.3" font-family="Times,serif" font-size="14.00" fill="#ffffff">sqlalchemy</text>
</g>
<!-- texlive&#45;core&#45;&gt;r&#45;base -->
<g id="edge41" class="edge">
<title>texlive&#45;core&#45;&gt;r&#45;base</title>
<path fill="none" stroke="#000000" d="M914.9239,-144.5708C905.6433,-135.4174 894.1264,-124.0582 884.0069,-114.0773"/>
<polygon fill="#000000" stroke="#000000" points="886.1785,-111.3032 876.601,-106.7729 881.263,-116.287 886.1785,-111.3032"/>
</g>
<!-- unzip -->
<g id="node35" class="node">
<title>unzip</title>
<ellipse fill="#000000" stroke="#000000" cx="1881.5952" cy="-522" rx="35.194" ry="18"/>
<text text-anchor="middle" x="1881.5952" y="-518.3" font-family="Times,serif" font-size="14.00" fill="#ffffff">unzip</text>
</g>
<!-- unzip&#45;&gt;protobuf -->
<g id="edge42" class="edge">
<title>unzip&#45;&gt;protobuf</title>
<path fill="none" stroke="#000000" d="M1881.5952,-503.8314C1881.5952,-496.131 1881.5952,-486.9743 1881.5952,-478.4166"/>
<polygon fill="#000000" stroke="#000000" points="1885.0953,-478.4132 1881.5952,-468.4133 1878.0953,-478.4133 1885.0953,-478.4132"/>
</g>
<!-- libogg&#45;&gt;libsndfile -->
<g id="edge44" class="edge">
<title>libogg&#45;&gt;libsndfile</title>
<path fill="none" stroke="#000000" d="M830.2619,-288.0192C827.5314,-269.5664 822.247,-240.2113 813.5952,-216 810.3419,-206.8961 805.8348,-197.3979 801.3865,-188.9515"/>
<polygon fill="#000000" stroke="#000000" points="804.3275,-187.0345 796.4593,-179.9393 798.1855,-190.3925 804.3275,-187.0345"/>
</g>
<!-- libvorbis -->
<g id="node38" class="node">
<title>libvorbis</title>
<ellipse fill="#fde725" stroke="#000000" cx="915.5952" cy="-234" rx="54.6905" ry="18"/>
<text text-anchor="middle" x="915.5952" y="-230.3" font-family="Times,serif" font-size="14.00" fill="#000000">libvorbis</text>
</g>
<!-- libogg&#45;&gt;libvorbis -->
<g id="edge45" class="edge">
<title>libogg&#45;&gt;libvorbis</title>
<path fill="none" stroke="#000000" d="M851.4291,-289.6621C862.3364,-280.2004 876.257,-268.1247 888.3427,-257.6407"/>
<polygon fill="#000000" stroke="#000000" points="890.7092,-260.2212 895.9697,-251.0245 886.1223,-254.9334 890.7092,-260.2212"/>
</g>
<!-- libogg&#45;&gt;libflac -->
<g id="edge43" class="edge">
<title>libogg&#45;&gt;libflac</title>
<path fill="none" stroke="#000000" d="M815.664,-289.3008C806.2418,-280.0077 794.3496,-268.2784 783.9445,-258.0158"/>
<polygon fill="#000000" stroke="#000000" points="786.2648,-255.3883 776.6874,-250.8581 781.3493,-260.3721 786.2648,-255.3883"/>
</g>
<!-- libvorbis&#45;&gt;libsndfile -->
<g id="edge46" class="edge">
<title>libvorbis&#45;&gt;libsndfile</title>
<path fill="none" stroke="#000000" d="M887.3871,-218.3771C868.5227,-207.9291 843.4935,-194.0668 822.9752,-182.7028"/>
<polygon fill="#000000" stroke="#000000" points="824.6408,-179.6243 814.1971,-177.8411 821.2493,-185.7479 824.6408,-179.6243"/>
</g>
<!-- libflac&#45;&gt;libsndfile -->
<g id="edge47" class="edge">
<title>libflac&#45;&gt;libsndfile</title>
<path fill="none" stroke="#000000" d="M766.1561,-215.8314C769.0416,-207.8406 772.4934,-198.2819 775.6822,-189.4514"/>
<polygon fill="#000000" stroke="#000000" points="779.0219,-190.5077 779.1264,-179.9134 772.438,-188.1302 779.0219,-190.5077"/>
</g>
<!-- lld -->
<g id="node40" class="node">
<title>lld</title>
<ellipse fill="#31688e" stroke="#000000" cx="2099.5952" cy="-522" rx="27" ry="18"/>
<text text-anchor="middle" x="2099.5952" y="-518.3" font-family="Times,serif" font-size="14.00" fill="#ffffff">lld</text>
</g>
<!-- autotools_clang_conda -->
<g id="node50" class="node">
<title>autotools_clang_conda</title>
<ellipse fill="#fde725" stroke="#000000" cx="2099.5952" cy="-450" rx="113.18" ry="18"/>
<text text-anchor="middle" x="2099.5952" y="-446.3" font-family="Times,serif" font-size="14.00" fill="#000000">autotools_clang_conda</text>
</g>
<!-- lld&#45;&gt;autotools_clang_conda -->
<g id="edge48" class="edge">
<title>lld&#45;&gt;autotools_clang_conda</title>
<path fill="none" stroke="#000000" d="M2099.5952,-503.8314C2099.5952,-496.131 2099.5952,-486.9743 2099.5952,-478.4166"/>
<polygon fill="#000000" stroke="#000000" points="2103.0953,-478.4132 2099.5952,-468.4133 2096.0953,-478.4133 2103.0953,-478.4132"/>
</g>
<!-- nspr -->
<g id="node42" class="node">
<title>nspr</title>
<ellipse fill="#31688e" stroke="#000000" cx="1463.5952" cy="-522" rx="30.5947" ry="18"/>
<text text-anchor="middle" x="1463.5952" y="-518.3" font-family="Times,serif" font-size="14.00" fill="#ffffff">nspr</text>
</g>
<!-- nspr&#45;&gt;qt -->
<g id="edge50" class="edge">
<title>nspr&#45;&gt;qt</title>
<path fill="none" stroke="#000000" d="M1460.4147,-504.0612C1458.6879,-493.5817 1456.6879,-480.0817 1455.5952,-468 1453.7409,-447.4985 1453.0004,-424.2772 1452.7186,-406.5576"/>
<polygon fill="#000000" stroke="#000000" points="1456.2155,-406.2667 1452.5965,-396.3091 1449.216,-406.3501 1456.2155,-406.2667"/>
</g>
<!-- nss -->
<g id="node43" class="node">
<title>nss</title>
<ellipse fill="#fde725" stroke="#000000" cx="1491.5952" cy="-450" rx="27" ry="18"/>
<text text-anchor="middle" x="1491.5952" y="-446.3" font-family="Times,serif" font-size="14.00" fill="#000000">nss</text>
</g>
<!-- nspr&#45;&gt;nss -->
<g id="edge49" class="edge">
<title>nspr&#45;&gt;nss</title>
<path fill="none" stroke="#000000" d="M1470.5165,-504.2022C1473.7038,-496.0064 1477.5553,-486.1024 1481.0895,-477.0145"/>
<polygon fill="#000000" stroke="#000000" points="1484.3909,-478.1817 1484.7534,-467.593 1477.8669,-475.6445 1484.3909,-478.1817"/>
</g>
<!-- nss&#45;&gt;qt -->
<g id="edge51" class="edge">
<title>nss&#45;&gt;qt</title>
<path fill="none" stroke="#000000" d="M1482.3527,-432.937C1477.6414,-424.2393 1471.8135,-413.4799 1466.5673,-403.7948"/>
<polygon fill="#000000" stroke="#000000" points="1469.6117,-402.0664 1461.7713,-394.9405 1463.4566,-405.4005 1469.6117,-402.0664"/>
</g>
<!-- blas&#45;&gt;opencv -->
<g id="edge52" class="edge">
<title>blas&#45;&gt;opencv</title>
<path fill="none" stroke="#000000" d="M604.5848,-364.6261C621.5215,-353.8345 645.6176,-338.4813 664.9025,-326.1936"/>
<polygon fill="#000000" stroke="#000000" points="666.8288,-329.1163 673.3816,-320.791 663.0672,-323.2128 666.8288,-329.1163"/>
</g>
<!-- osqp&#45;&gt;cvxpy -->
<g id="edge53" class="edge">
<title>osqp&#45;&gt;cvxpy</title>
<path fill="none" stroke="#000000" d="M181.42,-366.7317C186.4094,-364.4486 191.6555,-362.1042 196.5952,-360 230.1542,-345.7046 268.8706,-330.68 296.7377,-320.1189"/>
<polygon fill="#000000" stroke="#000000" points="297.9969,-323.3847 306.1159,-316.578 295.5242,-316.836 297.9969,-323.3847"/>
</g>
<!-- ecos -->
<g id="node46" class="node">
<title>ecos</title>
<ellipse fill="#31688e" stroke="#000000" cx="393.5952" cy="-378" rx="30.5947" ry="18"/>
<text text-anchor="middle" x="393.5952" y="-374.3" font-family="Times,serif" font-size="14.00" fill="#ffffff">ecos</text>
</g>
<!-- ecos&#45;&gt;cvxpy -->
<g id="edge54" class="edge">
<title>ecos&#45;&gt;cvxpy</title>
<path fill="none" stroke="#000000" d="M380.2071,-361.6621C372.6955,-352.4953 363.1733,-340.8751 354.7746,-330.6257"/>
<polygon fill="#000000" stroke="#000000" points="357.3851,-328.2893 348.3396,-322.7729 351.9707,-332.7261 357.3851,-328.2893"/>
</g>
<!-- scs&#45;&gt;cvxpy -->
<g id="edge55" class="edge">
<title>scs&#45;&gt;cvxpy</title>
<path fill="none" stroke="#000000" d="M448.5014,-366.75C426.9702,-355.2667 393.2291,-337.2714 368.0499,-323.8425"/>
<polygon fill="#000000" stroke="#000000" points="369.6699,-320.7399 359.1993,-319.1222 366.3757,-326.9164 369.6699,-320.7399"/>
</g>
<!-- binutils_ -->
<g id="node51" class="node">
<title>binutils_</title>
<ellipse fill="#35b779" stroke="#000000" cx="2199.5952" cy="-522" rx="54.6905" ry="18"/>
<text text-anchor="middle" x="2199.5952" y="-518.3" font-family="Times,serif" font-size="14.00" fill="#000000">binutils_</text>
</g>
</g>
</svg>
