<?xml version="1.0" encoding="UTF-8" standalone="no"?>
<!DOCTYPE svg PUBLIC "-//W3C//DTD SVG 1.1//EN"
 "http://www.w3.org/Graphics/SVG/1.1/DTD/svg11.dtd">
<!-- Generated by graphviz version 2.40.1 (20161225.0304)
 -->
<!-- Title: %3 Pages: 1 -->
<svg width="1926pt" height="332pt"
 viewBox="0.00 0.00 1926.33 332.00" xmlns="http://www.w3.org/2000/svg" xmlns:xlink="http://www.w3.org/1999/xlink">
<g id="graph0" class="graph" transform="scale(1 1) rotate(0) translate(4 328)">
<title>%3</title>
<polygon fill="#ffffff" stroke="transparent" points="-4,4 -4,-328 1922.3316,-328 1922.3316,4 -4,4"/>
<!-- glew -->
<g id="node1" class="node">
<title>glew</title>
<ellipse fill="#fde725" stroke="#000000" cx="192.293" cy="-162" rx="30.5947" ry="18"/>
<text text-anchor="middle" x="192.293" y="-158.3" font-family="Times,serif" font-size="14.00" fill="#000000">glew</text>
</g>
<!-- root -->
<g id="node30" class="node">
<title>root</title>
<ellipse fill="#fde725" stroke="#000000" cx="281.293" cy="-90" rx="30.5947" ry="18"/>
<text text-anchor="middle" x="281.293" y="-86.3" font-family="Times,serif" font-size="14.00" fill="#000000">root</text>
</g>
<!-- glew&#45;&gt;root -->
<g id="edge1" class="edge">
<title>glew&#45;&gt;root</title>
<path fill="none" stroke="#000000" d="M210.3034,-147.4297C223.1263,-137.0562 240.563,-122.9501 254.9461,-111.3143"/>
<polygon fill="#000000" stroke="#000000" points="257.4306,-113.8063 263.0038,-104.7957 253.028,-108.3642 257.4306,-113.8063"/>
</g>
<!-- gmpy2 -->
<g id="node2" class="node">
<title>gmpy2</title>
<ellipse fill="#fde725" stroke="#000000" cx="1112.293" cy="-90" rx="35.194" ry="18"/>
<text text-anchor="middle" x="1112.293" y="-86.3" font-family="Times,serif" font-size="14.00" fill="#000000">gmpy2</text>
</g>
<!-- sympy -->
<g id="node19" class="node">
<title>sympy</title>
<ellipse fill="#fde725" stroke="#000000" cx="1112.293" cy="-18" rx="35.194" ry="18"/>
<text text-anchor="middle" x="1112.293" y="-14.3" font-family="Times,serif" font-size="14.00" fill="#000000">sympy</text>
</g>
<!-- gmpy2&#45;&gt;sympy -->
<g id="edge2" class="edge">
<title>gmpy2&#45;&gt;sympy</title>
<path fill="none" stroke="#000000" d="M1112.293,-71.8314C1112.293,-64.131 1112.293,-54.9743 1112.293,-46.4166"/>
<polygon fill="#000000" stroke="#000000" points="1115.7931,-46.4132 1112.293,-36.4133 1108.7931,-46.4133 1115.7931,-46.4132"/>
</g>
<!-- gst&#45;plugins&#45;base -->
<g id="node3" class="node">
<title>gst&#45;plugins&#45;base</title>
<ellipse fill="#fde725" stroke="#000000" cx="401.293" cy="-234" rx="89.0842" ry="18"/>
<text text-anchor="middle" x="401.293" y="-230.3" font-family="Times,serif" font-size="14.00" fill="#000000">gst plugins base</text>
</g>
<!-- qt -->
<g id="node17" class="node">
<title>qt</title>
<ellipse fill="#fde725" stroke="#000000" cx="518.293" cy="-162" rx="27" ry="18"/>
<text text-anchor="middle" x="518.293" y="-158.3" font-family="Times,serif" font-size="14.00" fill="#000000">qt</text>
</g>
<!-- gst&#45;plugins&#45;base&#45;&gt;qt -->
<g id="edge3" class="edge">
<title>gst&#45;plugins&#45;base&#45;&gt;qt</title>
<path fill="none" stroke="#000000" d="M429.3174,-216.7542C447.56,-205.528 471.2882,-190.926 489.6525,-179.6249"/>
<polygon fill="#000000" stroke="#000000" points="491.5071,-182.5933 498.1893,-174.3715 487.8383,-176.6317 491.5071,-182.5933"/>
</g>
<!-- gstreamer -->
<g id="node4" class="node">
<title>gstreamer</title>
<ellipse fill="#31688e" stroke="#000000" cx="454.293" cy="-306" rx="54.6905" ry="18"/>
<text text-anchor="middle" x="454.293" y="-302.3" font-family="Times,serif" font-size="14.00" fill="#ffffff">gstreamer</text>
</g>
<!-- gstreamer&#45;&gt;gst&#45;plugins&#45;base -->
<g id="edge4" class="edge">
<title>gstreamer&#45;&gt;gst&#45;plugins&#45;base</title>
<path fill="none" stroke="#000000" d="M441.1918,-288.2022C434.949,-279.7214 427.3598,-269.4115 420.4831,-260.0696"/>
<polygon fill="#000000" stroke="#000000" points="423.174,-257.8211 414.4271,-251.8425 417.5366,-261.9708 423.174,-257.8211"/>
</g>
<!-- gstreamer&#45;&gt;qt -->
<g id="edge5" class="edge">
<title>gstreamer&#45;&gt;qt</title>
<path fill="none" stroke="#000000" d="M472.5822,-288.5956C481.9277,-278.7116 492.6919,-265.6167 499.293,-252 508.7267,-232.54 513.4966,-208.4835 515.8969,-190.139"/>
<polygon fill="#000000" stroke="#000000" points="519.3887,-190.4104 517.0538,-180.076 512.4345,-189.6108 519.3887,-190.4104"/>
</g>
<!-- ipyparallel -->
<g id="node5" class="node">
<title>ipyparallel</title>
<ellipse fill="#31688e" stroke="#000000" cx="79.293" cy="-162" rx="64.189" ry="18"/>
<text text-anchor="middle" x="79.293" y="-158.3" font-family="Times,serif" font-size="14.00" fill="#ffffff">ipyparallel</text>
</g>
<!-- ipyparallel&#45;&gt;root -->
<g id="edge6" class="edge">
<title>ipyparallel&#45;&gt;root</title>
<path fill="none" stroke="#000000" d="M119.2017,-147.7751C155.9858,-134.6639 210.087,-115.3803 245.5024,-102.757"/>
<polygon fill="#000000" stroke="#000000" points="246.7216,-106.0382 254.966,-99.3839 244.3713,-99.4446 246.7216,-106.0382"/>
</g>
<!-- jupyter_client -->
<g id="node6" class="node">
<title>jupyter_client</title>
<ellipse fill="#31688e" stroke="#000000" cx="79.293" cy="-234" rx="79.0865" ry="18"/>
<text text-anchor="middle" x="79.293" y="-230.3" font-family="Times,serif" font-size="14.00" fill="#ffffff">jupyter_client</text>
</g>
<!-- jupyter_client&#45;&gt;ipyparallel -->
<g id="edge7" class="edge">
<title>jupyter_client&#45;&gt;ipyparallel</title>
<path fill="none" stroke="#000000" d="M79.293,-215.8314C79.293,-208.131 79.293,-198.9743 79.293,-190.4166"/>
<polygon fill="#000000" stroke="#000000" points="82.7931,-190.4132 79.293,-180.4133 75.7931,-190.4133 82.7931,-190.4132"/>
</g>
<!-- libglu -->
<g id="node7" class="node">
<title>libglu</title>
<ellipse fill="#31688e" stroke="#000000" cx="254.293" cy="-234" rx="40.0939" ry="18"/>
<text text-anchor="middle" x="254.293" y="-230.3" font-family="Times,serif" font-size="14.00" fill="#ffffff">libglu</text>
</g>
<!-- libglu&#45;&gt;glew -->
<g id="edge9" class="edge">
<title>libglu&#45;&gt;glew</title>
<path fill="none" stroke="#000000" d="M239.5998,-216.937C231.6883,-207.7494 221.7957,-196.2613 213.1051,-186.1689"/>
<polygon fill="#000000" stroke="#000000" points="215.6313,-183.7388 206.4539,-178.4449 210.3269,-188.3065 215.6313,-183.7388"/>
</g>
<!-- freeglut -->
<g id="node21" class="node">
<title>freeglut</title>
<ellipse fill="#fde725" stroke="#000000" cx="291.293" cy="-162" rx="50.0912" ry="18"/>
<text text-anchor="middle" x="291.293" y="-158.3" font-family="Times,serif" font-size="14.00" fill="#000000">freeglut</text>
</g>
<!-- libglu&#45;&gt;freeglut -->
<g id="edge8" class="edge">
<title>libglu&#45;&gt;freeglut</title>
<path fill="none" stroke="#000000" d="M263.439,-216.2022C267.6638,-207.981 272.7719,-198.041 277.4539,-188.9301"/>
<polygon fill="#000000" stroke="#000000" points="280.6661,-190.3366 282.1239,-179.8425 274.4401,-187.1371 280.6661,-190.3366"/>
</g>
<!-- libglu&#45;&gt;root -->
<g id="edge10" class="edge">
<title>libglu&#45;&gt;root</title>
<path fill="none" stroke="#000000" d="M283.837,-221.39C309.1965,-209.8902 342.8112,-192.7927 350.293,-180 358.3705,-166.1886 357.301,-158.3836 350.293,-144 342.6413,-128.2954 327.9686,-115.8137 314.1142,-106.8239"/>
<polygon fill="#000000" stroke="#000000" points="315.5751,-103.6165 305.21,-101.4218 311.9441,-109.6012 315.5751,-103.6165"/>
</g>
<!-- libsndfile -->
<g id="node8" class="node">
<title>libsndfile</title>
<ellipse fill="#fde725" stroke="#000000" cx="774.293" cy="-162" rx="59.5901" ry="18"/>
<text text-anchor="middle" x="774.293" y="-158.3" font-family="Times,serif" font-size="14.00" fill="#000000">libsndfile</text>
</g>
<!-- r&#45;base -->
<g id="node18" class="node">
<title>r&#45;base</title>
<ellipse fill="#fde725" stroke="#000000" cx="847.293" cy="-90" rx="40.0939" ry="18"/>
<text text-anchor="middle" x="847.293" y="-86.3" font-family="Times,serif" font-size="14.00" fill="#000000">r base</text>
</g>
<!-- libsndfile&#45;&gt;r&#45;base -->
<g id="edge11" class="edge">
<title>libsndfile&#45;&gt;r&#45;base</title>
<path fill="none" stroke="#000000" d="M791.9642,-144.5708C801.2448,-135.4174 812.7618,-124.0582 822.8812,-114.0773"/>
<polygon fill="#000000" stroke="#000000" points="825.6252,-116.287 830.2871,-106.7729 820.7096,-111.3032 825.6252,-116.287"/>
</g>
<!-- llvmlite -->
<g id="node9" class="node">
<title>llvmlite</title>
<ellipse fill="#31688e" stroke="#000000" cx="1230.293" cy="-306" rx="50.0912" ry="18"/>
<text text-anchor="middle" x="1230.293" y="-302.3" font-family="Times,serif" font-size="14.00" fill="#ffffff">llvmlite</text>
</g>
<!-- numba -->
<g id="node26" class="node">
<title>numba</title>
<ellipse fill="#fde725" stroke="#000000" cx="1230.293" cy="-234" rx="35.194" ry="18"/>
<text text-anchor="middle" x="1230.293" y="-230.3" font-family="Times,serif" font-size="14.00" fill="#000000">numba</text>
</g>
<!-- llvmlite&#45;&gt;numba -->
<g id="edge12" class="edge">
<title>llvmlite&#45;&gt;numba</title>
<path fill="none" stroke="#000000" d="M1230.293,-287.8314C1230.293,-280.131 1230.293,-270.9743 1230.293,-262.4166"/>
<polygon fill="#000000" stroke="#000000" points="1233.7931,-262.4132 1230.293,-252.4133 1226.7931,-262.4133 1233.7931,-262.4132"/>
</g>
<!-- matplotlib -->
<g id="node10" class="node">
<title>matplotlib</title>
<ellipse fill="#fde725" stroke="#000000" cx="577.293" cy="-18" rx="59.5901" ry="18"/>
<text text-anchor="middle" x="577.293" y="-14.3" font-family="Times,serif" font-size="14.00" fill="#000000">matplotlib</text>
</g>
<!-- mpc -->
<g id="node11" class="node">
<title>mpc</title>
<ellipse fill="#fde725" stroke="#000000" cx="1112.293" cy="-162" rx="27" ry="18"/>
<text text-anchor="middle" x="1112.293" y="-158.3" font-family="Times,serif" font-size="14.00" fill="#000000">mpc</text>
</g>
<!-- mpc&#45;&gt;gmpy2 -->
<g id="edge13" class="edge">
<title>mpc&#45;&gt;gmpy2</title>
<path fill="none" stroke="#000000" d="M1112.293,-143.8314C1112.293,-136.131 1112.293,-126.9743 1112.293,-118.4166"/>
<polygon fill="#000000" stroke="#000000" points="1115.7931,-118.4132 1112.293,-108.4133 1108.7931,-118.4133 1115.7931,-118.4132"/>
</g>
<!-- mpfr -->
<g id="node12" class="node">
<title>mpfr</title>
<ellipse fill="#fde725" stroke="#000000" cx="1055.293" cy="-234" rx="30.5947" ry="18"/>
<text text-anchor="middle" x="1055.293" y="-230.3" font-family="Times,serif" font-size="14.00" fill="#000000">mpfr</text>
</g>
<!-- mpfr&#45;&gt;gmpy2 -->
<g id="edge14" class="edge">
<title>mpfr&#45;&gt;gmpy2</title>
<path fill="none" stroke="#000000" d="M1057.582,-215.8102C1060.3691,-197.1908 1066.0289,-167.7053 1076.293,-144 1080.5909,-134.0739 1086.7278,-123.9986 1092.7202,-115.2819"/>
<polygon fill="#000000" stroke="#000000" points="1095.6201,-117.2437 1098.5909,-107.0739 1089.9265,-113.1714 1095.6201,-117.2437"/>
</g>
<!-- mpfr&#45;&gt;mpc -->
<g id="edge15" class="edge">
<title>mpfr&#45;&gt;mpc</title>
<path fill="none" stroke="#000000" d="M1068.2271,-217.6621C1075.5878,-208.3644 1084.9468,-196.5426 1093.1447,-186.1873"/>
<polygon fill="#000000" stroke="#000000" points="1095.9471,-188.2862 1099.41,-178.2733 1090.4587,-183.9413 1095.9471,-188.2862"/>
</g>
<!-- mpfr&#45;&gt;r&#45;base -->
<g id="edge16" class="edge">
<title>mpfr&#45;&gt;r&#45;base</title>
<path fill="none" stroke="#000000" d="M1048.7385,-216.2709C1040.4149,-196.0714 1024.199,-163.3623 1000.293,-144 970.0729,-119.5237 927.9499,-105.742 895.5513,-98.2385"/>
<polygon fill="#000000" stroke="#000000" points="895.9185,-94.7361 885.4014,-96.0173 894.4219,-101.5742 895.9185,-94.7361"/>
</g>
<!-- texlive&#45;core -->
<g id="node20" class="node">
<title>texlive&#45;core</title>
<ellipse fill="#fde725" stroke="#000000" cx="921.293" cy="-162" rx="69.5877" ry="18"/>
<text text-anchor="middle" x="921.293" y="-158.3" font-family="Times,serif" font-size="14.00" fill="#000000">texlive core</text>
</g>
<!-- mpfr&#45;&gt;texlive&#45;core -->
<g id="edge17" class="edge">
<title>mpfr&#45;&gt;texlive&#45;core</title>
<path fill="none" stroke="#000000" d="M1032.5617,-221.7862C1012.9178,-211.2312 984.0842,-195.7386 960.6911,-183.1691"/>
<polygon fill="#000000" stroke="#000000" points="962.1626,-179.9866 951.697,-178.3365 958.8493,-186.1528 962.1626,-179.9866"/>
</g>
<!-- mpir -->
<g id="node13" class="node">
<title>mpir</title>
<ellipse fill="#31688e" stroke="#000000" cx="1114.293" cy="-306" rx="30.5947" ry="18"/>
<text text-anchor="middle" x="1114.293" y="-302.3" font-family="Times,serif" font-size="14.00" fill="#ffffff">mpir</text>
</g>
<!-- mpir&#45;&gt;gmpy2 -->
<g id="edge18" class="edge">
<title>mpir&#45;&gt;gmpy2</title>
<path fill="none" stroke="#000000" d="M1123.5293,-288.7269C1138.2739,-258.838 1163.9491,-195.7088 1148.293,-144 1145.1585,-133.6475 1139.3123,-123.4656 1133.2291,-114.7822"/>
<polygon fill="#000000" stroke="#000000" points="1135.9444,-112.5685 1127.1585,-106.6475 1130.3343,-116.7551 1135.9444,-112.5685"/>
</g>
<!-- mpir&#45;&gt;mpc -->
<g id="edge19" class="edge">
<title>mpir&#45;&gt;mpc</title>
<path fill="none" stroke="#000000" d="M1114.0397,-287.7623C1113.6985,-263.201 1113.0881,-219.2474 1112.6868,-190.3541"/>
<polygon fill="#000000" stroke="#000000" points="1116.1828,-190.04 1112.5442,-180.0896 1109.1835,-190.1373 1116.1828,-190.04"/>
</g>
<!-- mpir&#45;&gt;mpfr -->
<g id="edge20" class="edge">
<title>mpir&#45;&gt;mpfr</title>
<path fill="none" stroke="#000000" d="M1100.905,-289.6621C1093.286,-280.3644 1083.5987,-268.5426 1075.1131,-258.1873"/>
<polygon fill="#000000" stroke="#000000" points="1077.6734,-255.7897 1068.628,-250.2733 1072.2591,-260.2265 1077.6734,-255.7897"/>
</g>
<!-- opencv -->
<g id="node14" class="node">
<title>opencv</title>
<ellipse fill="#fde725" stroke="#000000" cx="488.293" cy="-90" rx="40.0939" ry="18"/>
<text text-anchor="middle" x="488.293" y="-86.3" font-family="Times,serif" font-size="14.00" fill="#000000">opencv</text>
</g>
<!-- pyarrow -->
<g id="node15" class="node">
<title>pyarrow</title>
<ellipse fill="#31688e" stroke="#000000" cx="1343.293" cy="-306" rx="44.6926" ry="18"/>
<text text-anchor="middle" x="1343.293" y="-302.3" font-family="Times,serif" font-size="14.00" fill="#ffffff">pyarrow</text>
</g>
<!-- pyqt -->
<g id="node16" class="node">
<title>pyqt</title>
<ellipse fill="#fde725" stroke="#000000" cx="577.293" cy="-90" rx="30.5947" ry="18"/>
<text text-anchor="middle" x="577.293" y="-86.3" font-family="Times,serif" font-size="14.00" fill="#000000">pyqt</text>
</g>
<!-- pyqt&#45;&gt;matplotlib -->
<g id="edge21" class="edge">
<title>pyqt&#45;&gt;matplotlib</title>
<path fill="none" stroke="#000000" d="M577.293,-71.8314C577.293,-64.131 577.293,-54.9743 577.293,-46.4166"/>
<polygon fill="#000000" stroke="#000000" points="580.7931,-46.4132 577.293,-36.4133 573.7931,-46.4133 580.7931,-46.4132"/>
</g>
<!-- qt&#45;&gt;opencv -->
<g id="edge22" class="edge">
<title>qt&#45;&gt;opencv</title>
<path fill="none" stroke="#000000" d="M511.0308,-144.5708C507.6179,-136.3798 503.469,-126.4225 499.6543,-117.2671"/>
<polygon fill="#000000" stroke="#000000" points="502.7736,-115.6535 495.6967,-107.7689 496.3121,-118.3458 502.7736,-115.6535"/>
</g>
<!-- qt&#45;&gt;pyqt -->
<g id="edge23" class="edge">
<title>qt&#45;&gt;pyqt</title>
<path fill="none" stroke="#000000" d="M531.387,-146.0209C538.9947,-136.7368 548.737,-124.848 557.2878,-114.413"/>
<polygon fill="#000000" stroke="#000000" points="560.1954,-116.3868 563.8265,-106.4336 554.7811,-111.9501 560.1954,-116.3868"/>
</g>
<!-- qt&#45;&gt;root -->
<g id="edge24" class="edge">
<title>qt&#45;&gt;root</title>
<path fill="none" stroke="#000000" d="M493.3778,-154.4308C451.6593,-141.7569 367.4537,-116.1754 318.63,-101.3429"/>
<polygon fill="#000000" stroke="#000000" points="319.3623,-97.9075 308.7767,-98.3495 317.3275,-104.6052 319.3623,-97.9075"/>
</g>
<!-- texlive&#45;core&#45;&gt;r&#45;base -->
<g id="edge25" class="edge">
<title>texlive&#45;core&#45;&gt;r&#45;base</title>
<path fill="none" stroke="#000000" d="M903.3796,-144.5708C893.8109,-135.2607 881.8968,-123.6686 871.5135,-113.5659"/>
<polygon fill="#000000" stroke="#000000" points="873.8868,-110.9918 864.2788,-106.5267 869.0053,-116.0089 873.8868,-110.9918"/>
</g>
<!-- libogg -->
<g id="node22" class="node">
<title>libogg</title>
<ellipse fill="#31688e" stroke="#000000" cx="774.293" cy="-306" rx="40.0939" ry="18"/>
<text text-anchor="middle" x="774.293" y="-302.3" font-family="Times,serif" font-size="14.00" fill="#ffffff">libogg</text>
</g>
<!-- libogg&#45;&gt;libsndfile -->
<g id="edge27" class="edge">
<title>libogg&#45;&gt;libsndfile</title>
<path fill="none" stroke="#000000" d="M774.293,-287.7623C774.293,-263.201 774.293,-219.2474 774.293,-190.3541"/>
<polygon fill="#000000" stroke="#000000" points="777.7931,-190.0896 774.293,-180.0896 770.7931,-190.0897 777.7931,-190.0896"/>
</g>
<!-- libvorbis -->
<g id="node23" class="node">
<title>libvorbis</title>
<ellipse fill="#fde725" stroke="#000000" cx="857.293" cy="-234" rx="54.6905" ry="18"/>
<text text-anchor="middle" x="857.293" y="-230.3" font-family="Times,serif" font-size="14.00" fill="#000000">libvorbis</text>
</g>
<!-- libogg&#45;&gt;libvorbis -->
<g id="edge28" class="edge">
<title>libogg&#45;&gt;libvorbis</title>
<path fill="none" stroke="#000000" d="M793.1269,-289.6621C804.0342,-280.2004 817.9548,-268.1247 830.0405,-257.6407"/>
<polygon fill="#000000" stroke="#000000" points="832.4071,-260.2212 837.6675,-251.0245 827.8201,-254.9334 832.4071,-260.2212"/>
</g>
<!-- libflac -->
<g id="node24" class="node">
<title>libflac</title>
<ellipse fill="#fde725" stroke="#000000" cx="701.293" cy="-234" rx="44.6926" ry="18"/>
<text text-anchor="middle" x="701.293" y="-230.3" font-family="Times,serif" font-size="14.00" fill="#000000">libflac</text>
</g>
<!-- libogg&#45;&gt;libflac -->
<g id="edge26" class="edge">
<title>libogg&#45;&gt;libflac</title>
<path fill="none" stroke="#000000" d="M757.3618,-289.3008C747.9397,-280.0077 736.0475,-268.2784 725.6423,-258.0158"/>
<polygon fill="#000000" stroke="#000000" points="727.9626,-255.3883 718.3852,-250.8581 723.0471,-260.3721 727.9626,-255.3883"/>
</g>
<!-- libvorbis&#45;&gt;libsndfile -->
<g id="edge29" class="edge">
<title>libvorbis&#45;&gt;libsndfile</title>
<path fill="none" stroke="#000000" d="M837.6231,-216.937C826.9509,-207.6792 813.5862,-196.0857 801.8881,-185.9379"/>
<polygon fill="#000000" stroke="#000000" points="803.9566,-183.099 794.1093,-179.19 799.3697,-188.3867 803.9566,-183.099"/>
</g>
<!-- libflac&#45;&gt;libsndfile -->
<g id="edge30" class="edge">
<title>libflac&#45;&gt;libsndfile</title>
<path fill="none" stroke="#000000" d="M718.2241,-217.3008C727.5107,-208.1414 739.1968,-196.6154 749.4935,-186.4597"/>
<polygon fill="#000000" stroke="#000000" points="752.0296,-188.8744 756.6915,-179.3603 747.1141,-183.8906 752.0296,-188.8744"/>
</g>
<!-- openmp -->
<g id="node25" class="node">
<title>openmp</title>
<ellipse fill="#31688e" stroke="#000000" cx="656.293" cy="-162" rx="40.0939" ry="18"/>
<text text-anchor="middle" x="656.293" y="-158.3" font-family="Times,serif" font-size="14.00" fill="#ffffff">openmp</text>
</g>
<!-- openmp&#45;&gt;r&#45;base -->
<g id="edge31" class="edge">
<title>openmp&#45;&gt;r&#45;base</title>
<path fill="none" stroke="#000000" d="M687.4055,-150.2717C719.8708,-138.0335 770.9187,-118.7903 806.5736,-105.3497"/>
<polygon fill="#000000" stroke="#000000" points="808.0711,-108.5257 816.1937,-101.7233 805.6019,-101.9756 808.0711,-108.5257"/>
</g>
<!-- nspr -->
<g id="node27" class="node">
<title>nspr</title>
<ellipse fill="#31688e" stroke="#000000" cx="583.293" cy="-306" rx="30.5947" ry="18"/>
<text text-anchor="middle" x="583.293" y="-302.3" font-family="Times,serif" font-size="14.00" fill="#ffffff">nspr</text>
</g>
<!-- nspr&#45;&gt;qt -->
<g id="edge33" class="edge">
<title>nspr&#45;&gt;qt</title>
<path fill="none" stroke="#000000" d="M575.3227,-288.3428C564.0535,-263.3773 543.3773,-217.5715 530.2597,-188.5109"/>
<polygon fill="#000000" stroke="#000000" points="533.4297,-187.0264 526.1254,-179.3519 527.0496,-189.9063 533.4297,-187.0264"/>
</g>
<!-- nss -->
<g id="node28" class="node">
<title>nss</title>
<ellipse fill="#fde725" stroke="#000000" cx="611.293" cy="-234" rx="27" ry="18"/>
<text text-anchor="middle" x="611.293" y="-230.3" font-family="Times,serif" font-size="14.00" fill="#000000">nss</text>
</g>
<!-- nspr&#45;&gt;nss -->
<g id="edge32" class="edge">
<title>nspr&#45;&gt;nss</title>
<path fill="none" stroke="#000000" d="M590.2143,-288.2022C593.4016,-280.0064 597.2531,-270.1024 600.7873,-261.0145"/>
<polygon fill="#000000" stroke="#000000" points="604.0887,-262.1817 604.4512,-251.593 597.5647,-259.6445 604.0887,-262.1817"/>
</g>
<!-- nss&#45;&gt;qt -->
<g id="edge34" class="edge">
<title>nss&#45;&gt;qt</title>
<path fill="none" stroke="#000000" d="M593.3616,-220.1177C579.4666,-209.3602 560.0149,-194.3009 544.3939,-182.2072"/>
<polygon fill="#000000" stroke="#000000" points="546.2191,-179.1939 536.1693,-175.8397 541.9339,-184.729 546.2191,-179.1939"/>
</g>
<!-- cvxpy -->
<g id="node29" class="node">
<title>cvxpy</title>
<ellipse fill="#31688e" stroke="#000000" cx="1441.293" cy="-306" rx="35.194" ry="18"/>
<text text-anchor="middle" x="1441.293" y="-302.3" font-family="Times,serif" font-size="14.00" fill="#ffffff">cvxpy</text>
</g>
<!-- lief -->
<g id="node31" class="node">
<title>lief</title>
<ellipse fill="#31688e" stroke="#000000" cx="1525.293" cy="-306" rx="30.5947" ry="18"/>
<text text-anchor="middle" x="1525.293" y="-302.3" font-family="Times,serif" font-size="14.00" fill="#ffffff">lief</text>
</g>
<!-- tapi -->
<g id="node32" class="node">
<title>tapi</title>
<ellipse fill="#31688e" stroke="#000000" cx="1604.293" cy="-306" rx="30.5947" ry="18"/>
<text text-anchor="middle" x="1604.293" y="-302.3" font-family="Times,serif" font-size="14.00" fill="#ffffff">tapi</text>
</g>
<!-- cctools&#45;and&#45;ld64 -->
<g id="node33" class="node">
<title>cctools&#45;and&#45;ld64</title>
<ellipse fill="#fde725" stroke="#000000" cx="1604.293" cy="-234" rx="89.0842" ry="18"/>
<text text-anchor="middle" x="1604.293" y="-230.3" font-family="Times,serif" font-size="14.00" fill="#000000">cctools and ld64</text>
</g>
<!-- tapi&#45;&gt;cctools&#45;and&#45;ld64 -->
<g id="edge35" class="edge">
<title>tapi&#45;&gt;cctools&#45;and&#45;ld64</title>
<path fill="none" stroke="#000000" d="M1604.293,-287.8314C1604.293,-280.131 1604.293,-270.9743 1604.293,-262.4166"/>
<polygon fill="#000000" stroke="#000000" points="1607.7931,-262.4132 1604.293,-252.4133 1600.7931,-262.4133 1607.7931,-262.4132"/>
</g>
<!-- ctng&#45;compiler&#45;activation -->
<g id="node34" class="node">
<title>ctng&#45;compiler&#45;activation</title>
<ellipse fill="#fde725" stroke="#000000" cx="1790.293" cy="-162" rx="128.0773" ry="18"/>
<text text-anchor="middle" x="1790.293" y="-158.3" font-family="Times,serif" font-size="14.00" fill="#000000">ctng compiler activation</text>
</g>
<!-- crosstool&#45;ng -->
<g id="node35" class="node">
<title>crosstool&#45;ng</title>
<ellipse fill="#31688e" stroke="#000000" cx="1790.293" cy="-306" rx="69.5877" ry="18"/>
<text text-anchor="middle" x="1790.293" y="-302.3" font-family="Times,serif" font-size="14.00" fill="#ffffff">crosstool ng</text>
</g>
<!-- ctng&#45;compilers -->
<g id="node36" class="node">
<title>ctng&#45;compilers</title>
<ellipse fill="#fde725" stroke="#000000" cx="1790.293" cy="-234" rx="79.0865" ry="18"/>
<text text-anchor="middle" x="1790.293" y="-230.3" font-family="Times,serif" font-size="14.00" fill="#000000">ctng compilers</text>
</g>
<!-- crosstool&#45;ng&#45;&gt;ctng&#45;compilers -->
<g id="edge36" class="edge">
<title>crosstool&#45;ng&#45;&gt;ctng&#45;compilers</title>
<path fill="none" stroke="#000000" d="M1790.293,-287.8314C1790.293,-280.131 1790.293,-270.9743 1790.293,-262.4166"/>
<polygon fill="#000000" stroke="#000000" points="1793.7931,-262.4132 1790.293,-252.4133 1786.7931,-262.4133 1793.7931,-262.4132"/>
</g>
<!-- ctng&#45;compilers&#45;&gt;ctng&#45;compiler&#45;activation -->
<g id="edge37" class="edge">
<title>ctng&#45;compilers&#45;&gt;ctng&#45;compiler&#45;activation</title>
<path fill="none" stroke="#000000" d="M1790.293,-215.8314C1790.293,-208.131 1790.293,-198.9743 1790.293,-190.4166"/>
<polygon fill="#000000" stroke="#000000" points="1793.7931,-190.4132 1790.293,-180.4133 1786.7931,-190.4133 1793.7931,-190.4132"/>
</g>
</g>
</svg>
