<?xml version="1.0" encoding="UTF-8" standalone="no"?>
<!DOCTYPE svg PUBLIC "-//W3C//DTD SVG 1.1//EN"
 "http://www.w3.org/Graphics/SVG/1.1/DTD/svg11.dtd">
<!-- Generated by graphviz version 2.40.1 (20161225.0304)
 -->
<!-- Title: %3 Pages: 1 -->
<svg width="2418pt" height="332pt"
 viewBox="0.00 0.00 2418.19 332.00" xmlns="http://www.w3.org/2000/svg" xmlns:xlink="http://www.w3.org/1999/xlink">
<g id="graph0" class="graph" transform="scale(1 1) rotate(0) translate(4 328)">
<title>%3</title>
<polygon fill="#ffffff" stroke="transparent" points="-4,4 -4,-328 2414.1903,-328 2414.1903,4 -4,4"/>
<!-- arrow&#45;cpp -->
<g id="node1" class="node">
<title>arrow&#45;cpp</title>
<ellipse fill="#31688e" stroke="#000000" cx="54.5952" cy="-306" rx="54.6905" ry="18"/>
<text text-anchor="middle" x="54.5952" y="-302.3" font-family="Times,serif" font-size="14.00" fill="#ffffff">arrow cpp</text>
</g>
<!-- pyarrow -->
<g id="node23" class="node">
<title>pyarrow</title>
<ellipse fill="#fde725" stroke="#000000" cx="54.5952" cy="-234" rx="44.6926" ry="18"/>
<text text-anchor="middle" x="54.5952" y="-230.3" font-family="Times,serif" font-size="14.00" fill="#000000">pyarrow</text>
</g>
<!-- arrow&#45;cpp&#45;&gt;pyarrow -->
<g id="edge1" class="edge">
<title>arrow&#45;cpp&#45;&gt;pyarrow</title>
<path fill="none" stroke="#000000" d="M54.5952,-287.8314C54.5952,-280.131 54.5952,-270.9743 54.5952,-262.4166"/>
<polygon fill="#000000" stroke="#000000" points="58.0953,-262.4132 54.5952,-252.4133 51.0953,-262.4133 58.0953,-262.4132"/>
</g>
<!-- dill -->
<g id="node2" class="node">
<title>dill</title>
<ellipse fill="#fde725" stroke="#000000" cx="427.5952" cy="-234" rx="30.5947" ry="18"/>
<text text-anchor="middle" x="427.5952" y="-230.3" font-family="Times,serif" font-size="14.00" fill="#000000">dill</text>
</g>
<!-- multiprocess -->
<g id="node18" class="node">
<title>multiprocess</title>
<ellipse fill="#fde725" stroke="#000000" cx="427.5952" cy="-162" rx="69.5877" ry="18"/>
<text text-anchor="middle" x="427.5952" y="-158.3" font-family="Times,serif" font-size="14.00" fill="#000000">multiprocess</text>
</g>
<!-- dill&#45;&gt;multiprocess -->
<g id="edge2" class="edge">
<title>dill&#45;&gt;multiprocess</title>
<path fill="none" stroke="#000000" d="M427.5952,-215.8314C427.5952,-208.131 427.5952,-198.9743 427.5952,-190.4166"/>
<polygon fill="#000000" stroke="#000000" points="431.0953,-190.4132 427.5952,-180.4133 424.0953,-190.4133 431.0953,-190.4132"/>
</g>
<!-- future -->
<g id="node3" class="node">
<title>future</title>
<ellipse fill="#000000" stroke="#000000" cx="157.5952" cy="-234" rx="40.0939" ry="18"/>
<text text-anchor="middle" x="157.5952" y="-230.3" font-family="Times,serif" font-size="14.00" fill="#ffffff">future</text>
</g>
<!-- osqp -->
<g id="node41" class="node">
<title>osqp</title>
<ellipse fill="#fde725" stroke="#000000" cx="157.5952" cy="-162" rx="30.5947" ry="18"/>
<text text-anchor="middle" x="157.5952" y="-158.3" font-family="Times,serif" font-size="14.00" fill="#000000">osqp</text>
</g>
<!-- future&#45;&gt;osqp -->
<g id="edge3" class="edge">
<title>future&#45;&gt;osqp</title>
<path fill="none" stroke="#000000" d="M157.5952,-215.8314C157.5952,-208.131 157.5952,-198.9743 157.5952,-190.4166"/>
<polygon fill="#000000" stroke="#000000" points="161.0953,-190.4132 157.5952,-180.4133 154.0953,-190.4133 161.0953,-190.4132"/>
</g>
<!-- glew -->
<g id="node4" class="node">
<title>glew</title>
<ellipse fill="#fde725" stroke="#000000" cx="874.5952" cy="-162" rx="30.5947" ry="18"/>
<text text-anchor="middle" x="874.5952" y="-158.3" font-family="Times,serif" font-size="14.00" fill="#000000">glew</text>
</g>
<!-- root -->
<g id="node45" class="node">
<title>root</title>
<ellipse fill="#fde725" stroke="#000000" cx="903.5952" cy="-90" rx="30.5947" ry="18"/>
<text text-anchor="middle" x="903.5952" y="-86.3" font-family="Times,serif" font-size="14.00" fill="#000000">root</text>
</g>
<!-- glew&#45;&gt;root -->
<g id="edge4" class="edge">
<title>glew&#45;&gt;root</title>
<path fill="none" stroke="#000000" d="M881.7637,-144.2022C885.0648,-136.0064 889.0539,-126.1024 892.7143,-117.0145"/>
<polygon fill="#000000" stroke="#000000" points="896.0195,-118.1766 896.5091,-107.593 889.5264,-115.5612 896.0195,-118.1766"/>
</g>
<!-- gmpy2 -->
<g id="node5" class="node">
<title>gmpy2</title>
<ellipse fill="#fde725" stroke="#000000" cx="1381.5952" cy="-90" rx="35.194" ry="18"/>
<text text-anchor="middle" x="1381.5952" y="-86.3" font-family="Times,serif" font-size="14.00" fill="#000000">gmpy2</text>
</g>
<!-- sympy -->
<g id="node29" class="node">
<title>sympy</title>
<ellipse fill="#fde725" stroke="#000000" cx="1381.5952" cy="-18" rx="35.194" ry="18"/>
<text text-anchor="middle" x="1381.5952" y="-14.3" font-family="Times,serif" font-size="14.00" fill="#000000">sympy</text>
</g>
<!-- gmpy2&#45;&gt;sympy -->
<g id="edge5" class="edge">
<title>gmpy2&#45;&gt;sympy</title>
<path fill="none" stroke="#000000" d="M1381.5952,-71.8314C1381.5952,-64.131 1381.5952,-54.9743 1381.5952,-46.4166"/>
<polygon fill="#000000" stroke="#000000" points="1385.0953,-46.4132 1381.5952,-36.4133 1378.0953,-46.4133 1385.0953,-46.4132"/>
</g>
<!-- gstreamer -->
<g id="node6" class="node">
<title>gstreamer</title>
<ellipse fill="#31688e" stroke="#000000" cx="1189.5952" cy="-234" rx="54.6905" ry="18"/>
<text text-anchor="middle" x="1189.5952" y="-230.3" font-family="Times,serif" font-size="14.00" fill="#ffffff">gstreamer</text>
</g>
<!-- qt -->
<g id="node26" class="node">
<title>qt</title>
<ellipse fill="#fde725" stroke="#000000" cx="1106.5952" cy="-162" rx="27" ry="18"/>
<text text-anchor="middle" x="1106.5952" y="-158.3" font-family="Times,serif" font-size="14.00" fill="#000000">qt</text>
</g>
<!-- gstreamer&#45;&gt;qt -->
<g id="edge6" class="edge">
<title>gstreamer&#45;&gt;qt</title>
<path fill="none" stroke="#000000" d="M1169.9253,-216.937C1158.2067,-206.7715 1143.2417,-193.7897 1130.8015,-182.9983"/>
<polygon fill="#000000" stroke="#000000" points="1132.898,-180.1836 1123.0506,-176.2746 1128.3111,-185.4713 1132.898,-180.1836"/>
</g>
<!-- hdf5 -->
<g id="node7" class="node">
<title>hdf5</title>
<ellipse fill="#000000" stroke="#000000" cx="1188.5952" cy="-162" rx="30.5947" ry="18"/>
<text text-anchor="middle" x="1188.5952" y="-158.3" font-family="Times,serif" font-size="14.00" fill="#ffffff">hdf5</text>
</g>
<!-- opencv -->
<g id="node20" class="node">
<title>opencv</title>
<ellipse fill="#fde725" stroke="#000000" cx="1192.5952" cy="-90" rx="40.0939" ry="18"/>
<text text-anchor="middle" x="1192.5952" y="-86.3" font-family="Times,serif" font-size="14.00" fill="#000000">opencv</text>
</g>
<!-- hdf5&#45;&gt;opencv -->
<g id="edge7" class="edge">
<title>hdf5&#45;&gt;opencv</title>
<path fill="none" stroke="#000000" d="M1189.6045,-143.8314C1190.0323,-136.131 1190.541,-126.9743 1191.0165,-118.4166"/>
<polygon fill="#000000" stroke="#000000" points="1194.512,-118.592 1191.5722,-108.4133 1187.5228,-118.2037 1194.512,-118.592"/>
</g>
<!-- ipyparallel -->
<g id="node8" class="node">
<title>ipyparallel</title>
<ellipse fill="#31688e" stroke="#000000" cx="761.5952" cy="-162" rx="64.189" ry="18"/>
<text text-anchor="middle" x="761.5952" y="-158.3" font-family="Times,serif" font-size="14.00" fill="#ffffff">ipyparallel</text>
</g>
<!-- ipyparallel&#45;&gt;root -->
<g id="edge8" class="edge">
<title>ipyparallel&#45;&gt;root</title>
<path fill="none" stroke="#000000" d="M792.7577,-146.1993C816.0061,-134.4113 847.6802,-118.3512 871.2158,-106.4177"/>
<polygon fill="#000000" stroke="#000000" points="873.1009,-109.3861 880.4371,-101.7421 869.9353,-103.1428 873.1009,-109.3861"/>
</g>
<!-- ipython -->
<g id="node9" class="node">
<title>ipython</title>
<ellipse fill="#000000" stroke="#000000" cx="796.5952" cy="-234" rx="44.6926" ry="18"/>
<text text-anchor="middle" x="796.5952" y="-230.3" font-family="Times,serif" font-size="14.00" fill="#ffffff">ipython</text>
</g>
<!-- ipython&#45;&gt;ipyparallel -->
<g id="edge9" class="edge">
<title>ipython&#45;&gt;ipyparallel</title>
<path fill="none" stroke="#000000" d="M787.9435,-216.2022C783.947,-207.981 779.1151,-198.041 774.6862,-188.9301"/>
<polygon fill="#000000" stroke="#000000" points="777.7884,-187.306 770.2686,-179.8425 771.4928,-190.3664 777.7884,-187.306"/>
</g>
<!-- jupyter_client -->
<g id="node10" class="node">
<title>jupyter_client</title>
<ellipse fill="#31688e" stroke="#000000" cx="654.5952" cy="-234" rx="79.0865" ry="18"/>
<text text-anchor="middle" x="654.5952" y="-230.3" font-family="Times,serif" font-size="14.00" fill="#ffffff">jupyter_client</text>
</g>
<!-- jupyter_client&#45;&gt;ipyparallel -->
<g id="edge10" class="edge">
<title>jupyter_client&#45;&gt;ipyparallel</title>
<path fill="none" stroke="#000000" d="M679.9527,-216.937C694.4485,-207.1828 712.7978,-194.8356 728.4273,-184.3186"/>
<polygon fill="#000000" stroke="#000000" points="730.4462,-187.1787 736.7888,-178.6921 726.5382,-181.3711 730.4462,-187.1787"/>
</g>
<!-- nbconvert -->
<g id="node19" class="node">
<title>nbconvert</title>
<ellipse fill="#000000" stroke="#000000" cx="614.5952" cy="-162" rx="54.6905" ry="18"/>
<text text-anchor="middle" x="614.5952" y="-158.3" font-family="Times,serif" font-size="14.00" fill="#ffffff">nbconvert</text>
</g>
<!-- jupyter_client&#45;&gt;nbconvert -->
<g id="edge11" class="edge">
<title>jupyter_client&#45;&gt;nbconvert</title>
<path fill="none" stroke="#000000" d="M644.5015,-215.8314C639.9667,-207.6688 634.5229,-197.87 629.53,-188.8827"/>
<polygon fill="#000000" stroke="#000000" points="632.4631,-186.9552 624.5471,-179.9134 626.344,-190.3548 632.4631,-186.9552"/>
</g>
<!-- libglu -->
<g id="node11" class="node">
<title>libglu</title>
<ellipse fill="#31688e" stroke="#000000" cx="933.5952" cy="-234" rx="40.0939" ry="18"/>
<text text-anchor="middle" x="933.5952" y="-230.3" font-family="Times,serif" font-size="14.00" fill="#ffffff">libglu</text>
</g>
<!-- libglu&#45;&gt;glew -->
<g id="edge13" class="edge">
<title>libglu&#45;&gt;glew</title>
<path fill="none" stroke="#000000" d="M919.613,-216.937C912.1588,-207.8403 902.8566,-196.4886 894.6462,-186.4691"/>
<polygon fill="#000000" stroke="#000000" points="897.1163,-183.9613 888.0709,-178.4449 891.7019,-188.3981 897.1163,-183.9613"/>
</g>
<!-- freeglut -->
<g id="node32" class="node">
<title>freeglut</title>
<ellipse fill="#fde725" stroke="#000000" cx="1011.5952" cy="-162" rx="50.0912" ry="18"/>
<text text-anchor="middle" x="1011.5952" y="-158.3" font-family="Times,serif" font-size="14.00" fill="#000000">freeglut</text>
</g>
<!-- libglu&#45;&gt;freeglut -->
<g id="edge12" class="edge">
<title>libglu&#45;&gt;freeglut</title>
<path fill="none" stroke="#000000" d="M951.2946,-217.6621C961.5202,-208.223 974.564,-196.1826 985.9027,-185.7161"/>
<polygon fill="#000000" stroke="#000000" points="988.4504,-188.1276 993.4245,-178.7729 983.7024,-182.9839 988.4504,-188.1276"/>
</g>
<!-- libglu&#45;&gt;root -->
<g id="edge14" class="edge">
<title>libglu&#45;&gt;root</title>
<path fill="none" stroke="#000000" d="M929.8563,-216.0535C924.7363,-191.4774 915.4911,-147.1008 909.4488,-118.0974"/>
<polygon fill="#000000" stroke="#000000" points="912.8472,-117.2487 907.3811,-108.1727 905.9943,-118.6764 912.8472,-117.2487"/>
</g>
<!-- libsndfile -->
<g id="node12" class="node">
<title>libsndfile</title>
<ellipse fill="#fde725" stroke="#000000" cx="1719.5952" cy="-162" rx="59.5901" ry="18"/>
<text text-anchor="middle" x="1719.5952" y="-158.3" font-family="Times,serif" font-size="14.00" fill="#000000">libsndfile</text>
</g>
<!-- r&#45;base -->
<g id="node27" class="node">
<title>r&#45;base</title>
<ellipse fill="#fde725" stroke="#000000" cx="1572.5952" cy="-90" rx="40.0939" ry="18"/>
<text text-anchor="middle" x="1572.5952" y="-86.3" font-family="Times,serif" font-size="14.00" fill="#000000">r base</text>
</g>
<!-- libsndfile&#45;&gt;r&#45;base -->
<g id="edge15" class="edge">
<title>libsndfile&#45;&gt;r&#45;base</title>
<path fill="none" stroke="#000000" d="M1688.06,-146.5542C1664.9724,-135.246 1633.5771,-119.8687 1609.3515,-108.0031"/>
<polygon fill="#000000" stroke="#000000" points="1610.6396,-104.7368 1600.1194,-103.4813 1607.5605,-111.0232 1610.6396,-104.7368"/>
</g>
<!-- llvmlite -->
<g id="node13" class="node">
<title>llvmlite</title>
<ellipse fill="#31688e" stroke="#000000" cx="1934.5952" cy="-306" rx="50.0912" ry="18"/>
<text text-anchor="middle" x="1934.5952" y="-302.3" font-family="Times,serif" font-size="14.00" fill="#ffffff">llvmlite</text>
</g>
<!-- numba -->
<g id="node37" class="node">
<title>numba</title>
<ellipse fill="#fde725" stroke="#000000" cx="1934.5952" cy="-234" rx="35.194" ry="18"/>
<text text-anchor="middle" x="1934.5952" y="-230.3" font-family="Times,serif" font-size="14.00" fill="#000000">numba</text>
</g>
<!-- llvmlite&#45;&gt;numba -->
<g id="edge16" class="edge">
<title>llvmlite&#45;&gt;numba</title>
<path fill="none" stroke="#000000" d="M1934.5952,-287.8314C1934.5952,-280.131 1934.5952,-270.9743 1934.5952,-262.4166"/>
<polygon fill="#000000" stroke="#000000" points="1938.0953,-262.4132 1934.5952,-252.4133 1931.0953,-262.4133 1938.0953,-262.4132"/>
</g>
<!-- matplotlib -->
<g id="node14" class="node">
<title>matplotlib</title>
<ellipse fill="#fde725" stroke="#000000" cx="1103.5952" cy="-18" rx="59.5901" ry="18"/>
<text text-anchor="middle" x="1103.5952" y="-14.3" font-family="Times,serif" font-size="14.00" fill="#000000">matplotlib</text>
</g>
<!-- mpc -->
<g id="node15" class="node">
<title>mpc</title>
<ellipse fill="#fde725" stroke="#000000" cx="1381.5952" cy="-162" rx="27" ry="18"/>
<text text-anchor="middle" x="1381.5952" y="-158.3" font-family="Times,serif" font-size="14.00" fill="#000000">mpc</text>
</g>
<!-- mpc&#45;&gt;gmpy2 -->
<g id="edge17" class="edge">
<title>mpc&#45;&gt;gmpy2</title>
<path fill="none" stroke="#000000" d="M1381.5952,-143.8314C1381.5952,-136.131 1381.5952,-126.9743 1381.5952,-118.4166"/>
<polygon fill="#000000" stroke="#000000" points="1385.0953,-118.4132 1381.5952,-108.4133 1378.0953,-118.4133 1385.0953,-118.4132"/>
</g>
<!-- mpfr -->
<g id="node16" class="node">
<title>mpfr</title>
<ellipse fill="#fde725" stroke="#000000" cx="1438.5952" cy="-234" rx="30.5947" ry="18"/>
<text text-anchor="middle" x="1438.5952" y="-230.3" font-family="Times,serif" font-size="14.00" fill="#000000">mpfr</text>
</g>
<!-- mpfr&#45;&gt;gmpy2 -->
<g id="edge18" class="edge">
<title>mpfr&#45;&gt;gmpy2</title>
<path fill="none" stroke="#000000" d="M1436.3062,-215.8102C1433.519,-197.1908 1427.8593,-167.7053 1417.5952,-144 1413.2973,-134.0739 1407.1603,-123.9986 1401.1679,-115.2819"/>
<polygon fill="#000000" stroke="#000000" points="1403.9616,-113.1714 1395.2973,-107.0739 1398.268,-117.2437 1403.9616,-113.1714"/>
</g>
<!-- mpfr&#45;&gt;mpc -->
<g id="edge19" class="edge">
<title>mpfr&#45;&gt;mpc</title>
<path fill="none" stroke="#000000" d="M1425.661,-217.6621C1418.3003,-208.3644 1408.9414,-196.5426 1400.7434,-186.1873"/>
<polygon fill="#000000" stroke="#000000" points="1403.4294,-183.9413 1394.4782,-178.2733 1397.9411,-188.2862 1403.4294,-183.9413"/>
</g>
<!-- mpfr&#45;&gt;r&#45;base -->
<g id="edge20" class="edge">
<title>mpfr&#45;&gt;r&#45;base</title>
<path fill="none" stroke="#000000" d="M1446.614,-216.2711C1455.9507,-196.9595 1472.7827,-165.903 1493.5952,-144 1506.3889,-130.536 1523.0747,-118.5331 1537.8132,-109.283"/>
<polygon fill="#000000" stroke="#000000" points="1539.9582,-112.0751 1546.6863,-103.8908 1536.3228,-106.0931 1539.9582,-112.0751"/>
</g>
<!-- texlive&#45;core -->
<g id="node30" class="node">
<title>texlive&#45;core</title>
<ellipse fill="#fde725" stroke="#000000" cx="1572.5952" cy="-162" rx="69.5877" ry="18"/>
<text text-anchor="middle" x="1572.5952" y="-158.3" font-family="Times,serif" font-size="14.00" fill="#000000">texlive core</text>
</g>
<!-- mpfr&#45;&gt;texlive&#45;core -->
<g id="edge21" class="edge">
<title>mpfr&#45;&gt;texlive&#45;core</title>
<path fill="none" stroke="#000000" d="M1461.3264,-221.7862C1480.9703,-211.2312 1509.8039,-195.7386 1533.1971,-183.1691"/>
<polygon fill="#000000" stroke="#000000" points="1535.0388,-186.1528 1542.1911,-178.3365 1531.7255,-179.9866 1535.0388,-186.1528"/>
</g>
<!-- mpir -->
<g id="node17" class="node">
<title>mpir</title>
<ellipse fill="#31688e" stroke="#000000" cx="1379.5952" cy="-306" rx="30.5947" ry="18"/>
<text text-anchor="middle" x="1379.5952" y="-302.3" font-family="Times,serif" font-size="14.00" fill="#ffffff">mpir</text>
</g>
<!-- mpir&#45;&gt;gmpy2 -->
<g id="edge22" class="edge">
<title>mpir&#45;&gt;gmpy2</title>
<path fill="none" stroke="#000000" d="M1370.3589,-288.7269C1355.6142,-258.838 1329.939,-195.7088 1345.5952,-144 1348.7297,-133.6475 1354.5758,-123.4656 1360.659,-114.7822"/>
<polygon fill="#000000" stroke="#000000" points="1363.5538,-116.7551 1366.7297,-106.6475 1357.9438,-112.5685 1363.5538,-116.7551"/>
</g>
<!-- mpir&#45;&gt;mpc -->
<g id="edge23" class="edge">
<title>mpir&#45;&gt;mpc</title>
<path fill="none" stroke="#000000" d="M1379.8485,-287.7623C1380.1896,-263.201 1380.8001,-219.2474 1381.2013,-190.3541"/>
<polygon fill="#000000" stroke="#000000" points="1384.7046,-190.1373 1381.3439,-180.0896 1377.7053,-190.04 1384.7046,-190.1373"/>
</g>
<!-- mpir&#45;&gt;mpfr -->
<g id="edge24" class="edge">
<title>mpir&#45;&gt;mpfr</title>
<path fill="none" stroke="#000000" d="M1392.9832,-289.6621C1400.6021,-280.3644 1410.2894,-268.5426 1418.775,-258.1873"/>
<polygon fill="#000000" stroke="#000000" points="1421.629,-260.2265 1425.2601,-250.2733 1416.2147,-255.7897 1421.629,-260.2265"/>
</g>
<!-- cvxpy -->
<g id="node44" class="node">
<title>cvxpy</title>
<ellipse fill="#fde725" stroke="#000000" cx="274.5952" cy="-90" rx="35.194" ry="18"/>
<text text-anchor="middle" x="274.5952" y="-86.3" font-family="Times,serif" font-size="14.00" fill="#000000">cvxpy</text>
</g>
<!-- multiprocess&#45;&gt;cvxpy -->
<g id="edge25" class="edge">
<title>multiprocess&#45;&gt;cvxpy</title>
<path fill="none" stroke="#000000" d="M394.0187,-146.1993C369.0586,-134.4534 335.0849,-118.4658 309.7544,-106.5455"/>
<polygon fill="#000000" stroke="#000000" points="311.0447,-103.2846 300.5062,-102.1934 308.0641,-109.6183 311.0447,-103.2846"/>
</g>
<!-- pandoc -->
<g id="node21" class="node">
<title>pandoc</title>
<ellipse fill="#000000" stroke="#000000" cx="516.5952" cy="-234" rx="40.0939" ry="18"/>
<text text-anchor="middle" x="516.5952" y="-230.3" font-family="Times,serif" font-size="14.00" fill="#ffffff">pandoc</text>
</g>
<!-- pandoc&#45;&gt;nbconvert -->
<g id="edge26" class="edge">
<title>pandoc&#45;&gt;nbconvert</title>
<path fill="none" stroke="#000000" d="M537.8597,-218.3771C551.2243,-208.5582 568.6933,-195.7238 583.587,-184.7815"/>
<polygon fill="#000000" stroke="#000000" points="586.0216,-187.3359 592.0082,-178.5945 581.877,-181.6947 586.0216,-187.3359"/>
</g>
<!-- protobuf -->
<g id="node22" class="node">
<title>protobuf</title>
<ellipse fill="#fde725" stroke="#000000" cx="2037.5952" cy="-234" rx="50.0912" ry="18"/>
<text text-anchor="middle" x="2037.5952" y="-230.3" font-family="Times,serif" font-size="14.00" fill="#000000">protobuf</text>
</g>
<!-- pyqt -->
<g id="node24" class="node">
<title>pyqt</title>
<ellipse fill="#fde725" stroke="#000000" cx="1103.5952" cy="-90" rx="30.5947" ry="18"/>
<text text-anchor="middle" x="1103.5952" y="-86.3" font-family="Times,serif" font-size="14.00" fill="#000000">pyqt</text>
</g>
<!-- pyqt&#45;&gt;matplotlib -->
<g id="edge27" class="edge">
<title>pyqt&#45;&gt;matplotlib</title>
<path fill="none" stroke="#000000" d="M1103.5952,-71.8314C1103.5952,-64.131 1103.5952,-54.9743 1103.5952,-46.4166"/>
<polygon fill="#000000" stroke="#000000" points="1107.0953,-46.4132 1103.5952,-36.4133 1100.0953,-46.4133 1107.0953,-46.4132"/>
</g>
<!-- pyreadline -->
<g id="node25" class="node">
<title>pyreadline</title>
<ellipse fill="#31688e" stroke="#000000" cx="427.5952" cy="-306" rx="59.5901" ry="18"/>
<text text-anchor="middle" x="427.5952" y="-302.3" font-family="Times,serif" font-size="14.00" fill="#ffffff">pyreadline</text>
</g>
<!-- pyreadline&#45;&gt;dill -->
<g id="edge28" class="edge">
<title>pyreadline&#45;&gt;dill</title>
<path fill="none" stroke="#000000" d="M427.5952,-287.8314C427.5952,-280.131 427.5952,-270.9743 427.5952,-262.4166"/>
<polygon fill="#000000" stroke="#000000" points="431.0953,-262.4132 427.5952,-252.4133 424.0953,-262.4133 431.0953,-262.4132"/>
</g>
<!-- qt&#45;&gt;opencv -->
<g id="edge29" class="edge">
<title>qt&#45;&gt;opencv</title>
<path fill="none" stroke="#000000" d="M1123.586,-147.7751C1135.6165,-137.703 1151.9979,-123.9884 1165.7813,-112.4488"/>
<polygon fill="#000000" stroke="#000000" points="1168.1232,-115.0529 1173.544,-105.9498 1163.6296,-109.6856 1168.1232,-115.0529"/>
</g>
<!-- qt&#45;&gt;pyqt -->
<g id="edge30" class="edge">
<title>qt&#45;&gt;pyqt</title>
<path fill="none" stroke="#000000" d="M1105.8381,-143.8314C1105.5173,-136.131 1105.1358,-126.9743 1104.7792,-118.4166"/>
<polygon fill="#000000" stroke="#000000" points="1108.2757,-118.2589 1104.3624,-108.4133 1101.2818,-118.5503 1108.2757,-118.2589"/>
</g>
<!-- qt&#45;&gt;root -->
<g id="edge31" class="edge">
<title>qt&#45;&gt;root</title>
<path fill="none" stroke="#000000" d="M1085.1375,-150.6104C1080.4085,-148.287 1075.3813,-145.9573 1070.5952,-144 1027.2714,-126.2829 975.812,-110.3853 941.5787,-100.5025"/>
<polygon fill="#000000" stroke="#000000" points="942.1125,-97.015 931.5358,-97.6332 940.1895,-103.7457 942.1125,-97.015"/>
</g>
<!-- sqlalchemy -->
<g id="node28" class="node">
<title>sqlalchemy</title>
<ellipse fill="#000000" stroke="#000000" cx="2150.5952" cy="-306" rx="59.5901" ry="18"/>
<text text-anchor="middle" x="2150.5952" y="-302.3" font-family="Times,serif" font-size="14.00" fill="#ffffff">sqlalchemy</text>
</g>
<!-- texlive&#45;core&#45;&gt;r&#45;base -->
<g id="edge32" class="edge">
<title>texlive&#45;core&#45;&gt;r&#45;base</title>
<path fill="none" stroke="#000000" d="M1572.5952,-143.8314C1572.5952,-136.131 1572.5952,-126.9743 1572.5952,-118.4166"/>
<polygon fill="#000000" stroke="#000000" points="1576.0953,-118.4132 1572.5952,-108.4133 1569.0953,-118.4133 1576.0953,-118.4132"/>
</g>
<!-- unzip -->
<g id="node31" class="node">
<title>unzip</title>
<ellipse fill="#000000" stroke="#000000" cx="2037.5952" cy="-306" rx="35.194" ry="18"/>
<text text-anchor="middle" x="2037.5952" y="-302.3" font-family="Times,serif" font-size="14.00" fill="#ffffff">unzip</text>
</g>
<!-- unzip&#45;&gt;protobuf -->
<g id="edge33" class="edge">
<title>unzip&#45;&gt;protobuf</title>
<path fill="none" stroke="#000000" d="M2037.5952,-287.8314C2037.5952,-280.131 2037.5952,-270.9743 2037.5952,-262.4166"/>
<polygon fill="#000000" stroke="#000000" points="2041.0953,-262.4132 2037.5952,-252.4133 2034.0953,-262.4133 2041.0953,-262.4132"/>
</g>
<!-- libogg -->
<g id="node33" class="node">
<title>libogg</title>
<ellipse fill="#31688e" stroke="#000000" cx="1719.5952" cy="-306" rx="40.0939" ry="18"/>
<text text-anchor="middle" x="1719.5952" y="-302.3" font-family="Times,serif" font-size="14.00" fill="#ffffff">libogg</text>
</g>
<!-- libogg&#45;&gt;libsndfile -->
<g id="edge35" class="edge">
<title>libogg&#45;&gt;libsndfile</title>
<path fill="none" stroke="#000000" d="M1693.8048,-291.8735C1679.6869,-282.5863 1663.4977,-269.0074 1655.5952,-252 1648.853,-237.4899 1648.853,-230.5101 1655.5952,-216 1661.502,-203.2877 1672.0385,-192.4909 1682.8792,-183.97"/>
<polygon fill="#000000" stroke="#000000" points="1685.1598,-186.6379 1691.1568,-177.9037 1681.022,-180.9918 1685.1598,-186.6379"/>
</g>
<!-- libvorbis -->
<g id="node34" class="node">
<title>libvorbis</title>
<ellipse fill="#fde725" stroke="#000000" cx="1719.5952" cy="-234" rx="54.6905" ry="18"/>
<text text-anchor="middle" x="1719.5952" y="-230.3" font-family="Times,serif" font-size="14.00" fill="#000000">libvorbis</text>
</g>
<!-- libogg&#45;&gt;libvorbis -->
<g id="edge36" class="edge">
<title>libogg&#45;&gt;libvorbis</title>
<path fill="none" stroke="#000000" d="M1719.5952,-287.8314C1719.5952,-280.131 1719.5952,-270.9743 1719.5952,-262.4166"/>
<polygon fill="#000000" stroke="#000000" points="1723.0953,-262.4132 1719.5952,-252.4133 1716.0953,-262.4133 1723.0953,-262.4132"/>
</g>
<!-- libflac -->
<g id="node35" class="node">
<title>libflac</title>
<ellipse fill="#fde725" stroke="#000000" cx="1836.5952" cy="-234" rx="44.6926" ry="18"/>
<text text-anchor="middle" x="1836.5952" y="-230.3" font-family="Times,serif" font-size="14.00" fill="#000000">libflac</text>
</g>
<!-- libogg&#45;&gt;libflac -->
<g id="edge34" class="edge">
<title>libogg&#45;&gt;libflac</title>
<path fill="none" stroke="#000000" d="M1743.2719,-291.4297C1760.4497,-280.8587 1783.926,-266.4118 1803.0345,-254.6527"/>
<polygon fill="#000000" stroke="#000000" points="1805.06,-257.516 1811.7422,-249.2941 1801.3913,-251.5543 1805.06,-257.516"/>
</g>
<!-- libvorbis&#45;&gt;libsndfile -->
<g id="edge37" class="edge">
<title>libvorbis&#45;&gt;libsndfile</title>
<path fill="none" stroke="#000000" d="M1719.5952,-215.8314C1719.5952,-208.131 1719.5952,-198.9743 1719.5952,-190.4166"/>
<polygon fill="#000000" stroke="#000000" points="1723.0953,-190.4132 1719.5952,-180.4133 1716.0953,-190.4133 1723.0953,-190.4132"/>
</g>
<!-- libflac&#45;&gt;libsndfile -->
<g id="edge38" class="edge">
<title>libflac&#45;&gt;libsndfile</title>
<path fill="none" stroke="#000000" d="M1812.0681,-218.9064C1795.4836,-208.7006 1773.3244,-195.0642 1754.8555,-183.6987"/>
<polygon fill="#000000" stroke="#000000" points="1756.4769,-180.5869 1746.126,-178.3267 1752.8082,-186.5485 1756.4769,-180.5869"/>
</g>
<!-- lld -->
<g id="node36" class="node">
<title>lld</title>
<ellipse fill="#31688e" stroke="#000000" cx="2255.5952" cy="-306" rx="27" ry="18"/>
<text text-anchor="middle" x="2255.5952" y="-302.3" font-family="Times,serif" font-size="14.00" fill="#ffffff">lld</text>
</g>
<!-- autotools_clang_conda -->
<g id="node46" class="node">
<title>autotools_clang_conda</title>
<ellipse fill="#fde725" stroke="#000000" cx="2255.5952" cy="-234" rx="113.18" ry="18"/>
<text text-anchor="middle" x="2255.5952" y="-230.3" font-family="Times,serif" font-size="14.00" fill="#000000">autotools_clang_conda</text>
</g>
<!-- lld&#45;&gt;autotools_clang_conda -->
<g id="edge39" class="edge">
<title>lld&#45;&gt;autotools_clang_conda</title>
<path fill="none" stroke="#000000" d="M2255.5952,-287.8314C2255.5952,-280.131 2255.5952,-270.9743 2255.5952,-262.4166"/>
<polygon fill="#000000" stroke="#000000" points="2259.0953,-262.4132 2255.5952,-252.4133 2252.0953,-262.4133 2259.0953,-262.4132"/>
</g>
<!-- nspr -->
<g id="node38" class="node">
<title>nspr</title>
<ellipse fill="#31688e" stroke="#000000" cx="1078.5952" cy="-306" rx="30.5947" ry="18"/>
<text text-anchor="middle" x="1078.5952" y="-302.3" font-family="Times,serif" font-size="14.00" fill="#ffffff">nspr</text>
</g>
<!-- nspr&#45;&gt;qt -->
<g id="edge41" class="edge">
<title>nspr&#45;&gt;qt</title>
<path fill="none" stroke="#000000" d="M1082.0848,-288.0535C1086.8634,-263.4774 1095.4922,-219.1008 1101.1318,-190.0974"/>
<polygon fill="#000000" stroke="#000000" points="1104.5885,-190.6569 1103.0616,-180.1727 1097.7171,-189.3208 1104.5885,-190.6569"/>
</g>
<!-- nss -->
<g id="node39" class="node">
<title>nss</title>
<ellipse fill="#fde725" stroke="#000000" cx="1051.5952" cy="-234" rx="27" ry="18"/>
<text text-anchor="middle" x="1051.5952" y="-230.3" font-family="Times,serif" font-size="14.00" fill="#000000">nss</text>
</g>
<!-- nspr&#45;&gt;nss -->
<g id="edge40" class="edge">
<title>nspr&#45;&gt;nss</title>
<path fill="none" stroke="#000000" d="M1071.921,-288.2022C1068.8475,-280.0064 1065.1335,-270.1024 1061.7256,-261.0145"/>
<polygon fill="#000000" stroke="#000000" points="1064.981,-259.7274 1058.1925,-251.593 1058.4267,-262.1853 1064.981,-259.7274"/>
</g>
<!-- nss&#45;&gt;qt -->
<g id="edge42" class="edge">
<title>nss&#45;&gt;qt</title>
<path fill="none" stroke="#000000" d="M1064.0755,-217.6621C1071.1076,-208.4564 1080.0298,-196.7764 1087.8834,-186.4953"/>
<polygon fill="#000000" stroke="#000000" points="1090.8751,-188.3446 1094.1642,-178.2733 1085.3124,-184.0953 1090.8751,-188.3446"/>
</g>
<!-- blas -->
<g id="node40" class="node">
<title>blas</title>
<ellipse fill="#000000" stroke="#000000" cx="1267.5952" cy="-162" rx="30.5947" ry="18"/>
<text text-anchor="middle" x="1267.5952" y="-158.3" font-family="Times,serif" font-size="14.00" fill="#ffffff">blas</text>
</g>
<!-- blas&#45;&gt;opencv -->
<g id="edge43" class="edge">
<title>blas&#45;&gt;opencv</title>
<path fill="none" stroke="#000000" d="M1251.3213,-146.3771C1241.31,-136.7663 1228.2894,-124.2664 1217.0531,-113.4797"/>
<polygon fill="#000000" stroke="#000000" points="1219.256,-110.7426 1209.6182,-106.3421 1214.4082,-115.7923 1219.256,-110.7426"/>
</g>
<!-- osqp&#45;&gt;cvxpy -->
<g id="edge44" class="edge">
<title>osqp&#45;&gt;cvxpy</title>
<path fill="none" stroke="#000000" d="M178.783,-148.9613C196.795,-137.877 222.9066,-121.8084 243.3231,-109.2443"/>
<polygon fill="#000000" stroke="#000000" points="245.2859,-112.1462 251.9681,-103.9243 241.6172,-106.1845 245.2859,-112.1462"/>
</g>
<!-- ecos -->
<g id="node42" class="node">
<title>ecos</title>
<ellipse fill="#31688e" stroke="#000000" cx="236.5952" cy="-162" rx="30.5947" ry="18"/>
<text text-anchor="middle" x="236.5952" y="-158.3" font-family="Times,serif" font-size="14.00" fill="#ffffff">ecos</text>
</g>
<!-- ecos&#45;&gt;cvxpy -->
<g id="edge45" class="edge">
<title>ecos&#45;&gt;cvxpy</title>
<path fill="none" stroke="#000000" d="M245.7939,-144.5708C250.2419,-136.1431 255.6767,-125.8455 260.622,-116.4755"/>
<polygon fill="#000000" stroke="#000000" points="263.7771,-117.9958 265.3494,-107.5182 257.5864,-114.7284 263.7771,-117.9958"/>
</g>
<!-- scs -->
<g id="node43" class="node">
<title>scs</title>
<ellipse fill="#35b779" stroke="#000000" cx="312.5952" cy="-162" rx="27" ry="18"/>
<text text-anchor="middle" x="312.5952" y="-158.3" font-family="Times,serif" font-size="14.00" fill="#000000">scs</text>
</g>
<!-- scs&#45;&gt;cvxpy -->
<g id="edge46" class="edge">
<title>scs&#45;&gt;cvxpy</title>
<path fill="none" stroke="#000000" d="M303.5897,-144.937C299.1124,-136.4537 293.6,-126.0092 288.5881,-116.513"/>
<polygon fill="#000000" stroke="#000000" points="291.5629,-114.6509 283.8,-107.4407 285.3722,-117.9182 291.5629,-114.6509"/>
</g>
<!-- binutils_ -->
<g id="node47" class="node">
<title>binutils_</title>
<ellipse fill="#35b779" stroke="#000000" cx="2355.5952" cy="-306" rx="54.6905" ry="18"/>
<text text-anchor="middle" x="2355.5952" y="-302.3" font-family="Times,serif" font-size="14.00" fill="#000000">binutils_</text>
</g>
</g>
</svg>
