<?xml version="1.0" encoding="UTF-8" standalone="no"?>
<!DOCTYPE svg PUBLIC "-//W3C//DTD SVG 1.1//EN"
 "http://www.w3.org/Graphics/SVG/1.1/DTD/svg11.dtd">
<!-- Generated by graphviz version 2.40.1 (20161225.0304)
 -->
<!-- Title: %3 Pages: 1 -->
<svg width="1615pt" height="476pt"
 viewBox="0.00 0.00 1614.76 476.00" xmlns="http://www.w3.org/2000/svg" xmlns:xlink="http://www.w3.org/1999/xlink">
<g id="graph0" class="graph" transform="scale(1 1) rotate(0) translate(4 472)">
<title>%3</title>
<polygon fill="#ffffff" stroke="transparent" points="-4,4 -4,-472 1610.7555,-472 1610.7555,4 -4,4"/>
<!-- arrow&#45;cpp -->
<g id="node1" class="node">
<title>arrow&#45;cpp</title>
<ellipse fill="#31688e" stroke="#000000" cx="71.6655" cy="-450" rx="54.6905" ry="18"/>
<text text-anchor="middle" x="71.6655" y="-446.3" font-family="Times,serif" font-size="14.00" fill="#ffffff">arrow cpp</text>
</g>
<!-- pyarrow -->
<g id="node21" class="node">
<title>pyarrow</title>
<ellipse fill="#fde725" stroke="#000000" cx="71.6655" cy="-378" rx="44.6926" ry="18"/>
<text text-anchor="middle" x="71.6655" y="-374.3" font-family="Times,serif" font-size="14.00" fill="#000000">pyarrow</text>
</g>
<!-- arrow&#45;cpp&#45;&gt;pyarrow -->
<g id="edge1" class="edge">
<title>arrow&#45;cpp&#45;&gt;pyarrow</title>
<path fill="none" stroke="#000000" d="M71.6655,-431.8314C71.6655,-424.131 71.6655,-414.9743 71.6655,-406.4166"/>
<polygon fill="#000000" stroke="#000000" points="75.1656,-406.4132 71.6655,-396.4133 68.1656,-406.4133 75.1656,-406.4132"/>
</g>
<!-- future -->
<g id="node2" class="node">
<title>future</title>
<ellipse fill="#000000" stroke="#000000" cx="388.6655" cy="-450" rx="40.0939" ry="18"/>
<text text-anchor="middle" x="388.6655" y="-446.3" font-family="Times,serif" font-size="14.00" fill="#ffffff">future</text>
</g>
<!-- glew -->
<g id="node3" class="node">
<title>glew</title>
<ellipse fill="#fde725" stroke="#000000" cx="293.6655" cy="-306" rx="30.5947" ry="18"/>
<text text-anchor="middle" x="293.6655" y="-302.3" font-family="Times,serif" font-size="14.00" fill="#000000">glew</text>
</g>
<!-- root -->
<g id="node37" class="node">
<title>root</title>
<ellipse fill="#fde725" stroke="#000000" cx="533.6655" cy="-234" rx="30.5947" ry="18"/>
<text text-anchor="middle" x="533.6655" y="-230.3" font-family="Times,serif" font-size="14.00" fill="#000000">root</text>
</g>
<!-- glew&#45;&gt;root -->
<g id="edge2" class="edge">
<title>glew&#45;&gt;root</title>
<path fill="none" stroke="#000000" d="M317.3219,-294.3038C322.3235,-292.0518 327.6171,-289.8281 332.6655,-288 387.9453,-267.9819 454.1534,-251.5958 495.0663,-242.3116"/>
<polygon fill="#000000" stroke="#000000" points="495.909,-245.7096 504.9009,-240.1063 494.3773,-238.8792 495.909,-245.7096"/>
</g>
<!-- gstreamer -->
<g id="node4" class="node">
<title>gstreamer</title>
<ellipse fill="#31688e" stroke="#000000" cx="781.6655" cy="-378" rx="54.6905" ry="18"/>
<text text-anchor="middle" x="781.6655" y="-374.3" font-family="Times,serif" font-size="14.00" fill="#ffffff">gstreamer</text>
</g>
<!-- qt -->
<g id="node23" class="node">
<title>qt</title>
<ellipse fill="#fde725" stroke="#000000" cx="642.6655" cy="-306" rx="27" ry="18"/>
<text text-anchor="middle" x="642.6655" y="-302.3" font-family="Times,serif" font-size="14.00" fill="#000000">qt</text>
</g>
<!-- gstreamer&#45;&gt;qt -->
<g id="edge3" class="edge">
<title>gstreamer&#45;&gt;qt</title>
<path fill="none" stroke="#000000" d="M752.1872,-362.7307C729.0734,-350.7581 697.001,-334.145 673.537,-321.991"/>
<polygon fill="#000000" stroke="#000000" points="674.864,-318.7367 664.3747,-317.2451 671.6444,-324.9524 674.864,-318.7367"/>
</g>
<!-- hdf5 -->
<g id="node5" class="node">
<title>hdf5</title>
<ellipse fill="#000000" stroke="#000000" cx="883.6655" cy="-306" rx="30.5947" ry="18"/>
<text text-anchor="middle" x="883.6655" y="-302.3" font-family="Times,serif" font-size="14.00" fill="#ffffff">hdf5</text>
</g>
<!-- opencv -->
<g id="node17" class="node">
<title>opencv</title>
<ellipse fill="#fde725" stroke="#000000" cx="942.6655" cy="-234" rx="40.0939" ry="18"/>
<text text-anchor="middle" x="942.6655" y="-230.3" font-family="Times,serif" font-size="14.00" fill="#000000">opencv</text>
</g>
<!-- hdf5&#45;&gt;opencv -->
<g id="edge4" class="edge">
<title>hdf5&#45;&gt;opencv</title>
<path fill="none" stroke="#000000" d="M897.0535,-289.6621C904.5115,-280.5608 913.9514,-269.041 922.3059,-258.8456"/>
<polygon fill="#000000" stroke="#000000" points="925.0838,-260.9777 928.7149,-251.0245 919.6694,-256.5409 925.0838,-260.9777"/>
</g>
<!-- ipyparallel -->
<g id="node6" class="node">
<title>ipyparallel</title>
<ellipse fill="#31688e" stroke="#000000" cx="533.6655" cy="-306" rx="64.189" ry="18"/>
<text text-anchor="middle" x="533.6655" y="-302.3" font-family="Times,serif" font-size="14.00" fill="#ffffff">ipyparallel</text>
</g>
<!-- ipyparallel&#45;&gt;root -->
<g id="edge5" class="edge">
<title>ipyparallel&#45;&gt;root</title>
<path fill="none" stroke="#000000" d="M533.6655,-287.8314C533.6655,-280.131 533.6655,-270.9743 533.6655,-262.4166"/>
<polygon fill="#000000" stroke="#000000" points="537.1656,-262.4132 533.6655,-252.4133 530.1656,-262.4133 537.1656,-262.4132"/>
</g>
<!-- ipython -->
<g id="node7" class="node">
<title>ipython</title>
<ellipse fill="#000000" stroke="#000000" cx="553.6655" cy="-378" rx="44.6926" ry="18"/>
<text text-anchor="middle" x="553.6655" y="-374.3" font-family="Times,serif" font-size="14.00" fill="#ffffff">ipython</text>
</g>
<!-- ipython&#45;&gt;ipyparallel -->
<g id="edge6" class="edge">
<title>ipython&#45;&gt;ipyparallel</title>
<path fill="none" stroke="#000000" d="M548.6187,-359.8314C546.4561,-352.0463 543.8802,-342.7729 541.4807,-334.1347"/>
<polygon fill="#000000" stroke="#000000" points="544.8291,-333.1117 538.7803,-324.4133 538.0845,-334.9852 544.8291,-333.1117"/>
</g>
<!-- jupyter_client -->
<g id="node8" class="node">
<title>jupyter_client</title>
<ellipse fill="#31688e" stroke="#000000" cx="411.6655" cy="-378" rx="79.0865" ry="18"/>
<text text-anchor="middle" x="411.6655" y="-374.3" font-family="Times,serif" font-size="14.00" fill="#ffffff">jupyter_client</text>
</g>
<!-- jupyter_client&#45;&gt;ipyparallel -->
<g id="edge7" class="edge">
<title>jupyter_client&#45;&gt;ipyparallel</title>
<path fill="none" stroke="#000000" d="M440.2691,-361.1192C457.337,-351.0463 479.172,-338.1601 497.4373,-327.3806"/>
<polygon fill="#000000" stroke="#000000" points="499.2475,-330.3764 506.0807,-322.2796 495.6897,-324.3479 499.2475,-330.3764"/>
</g>
<!-- nbconvert -->
<g id="node15" class="node">
<title>nbconvert</title>
<ellipse fill="#000000" stroke="#000000" cx="396.6655" cy="-306" rx="54.6905" ry="18"/>
<text text-anchor="middle" x="396.6655" y="-302.3" font-family="Times,serif" font-size="14.00" fill="#ffffff">nbconvert</text>
</g>
<!-- jupyter_client&#45;&gt;nbconvert -->
<g id="edge8" class="edge">
<title>jupyter_client&#45;&gt;nbconvert</title>
<path fill="none" stroke="#000000" d="M407.8804,-359.8314C406.2761,-352.131 404.3685,-342.9743 402.5856,-334.4166"/>
<polygon fill="#000000" stroke="#000000" points="405.9676,-333.4892 400.5016,-324.4133 399.1148,-334.9169 405.9676,-333.4892"/>
</g>
<!-- libglu -->
<g id="node9" class="node">
<title>libglu</title>
<ellipse fill="#31688e" stroke="#000000" cx="174.6655" cy="-378" rx="40.0939" ry="18"/>
<text text-anchor="middle" x="174.6655" y="-374.3" font-family="Times,serif" font-size="14.00" fill="#ffffff">libglu</text>
</g>
<!-- libglu&#45;&gt;glew -->
<g id="edge10" class="edge">
<title>libglu&#45;&gt;glew</title>
<path fill="none" stroke="#000000" d="M198.7469,-363.4297C217.3576,-352.1695 243.2369,-336.5114 263.2731,-324.3887"/>
<polygon fill="#000000" stroke="#000000" points="265.2766,-327.2673 272.0206,-319.0961 261.6529,-321.2782 265.2766,-327.2673"/>
</g>
<!-- freeglut -->
<g id="node28" class="node">
<title>freeglut</title>
<ellipse fill="#fde725" stroke="#000000" cx="194.6655" cy="-306" rx="50.0912" ry="18"/>
<text text-anchor="middle" x="194.6655" y="-302.3" font-family="Times,serif" font-size="14.00" fill="#000000">freeglut</text>
</g>
<!-- libglu&#45;&gt;freeglut -->
<g id="edge9" class="edge">
<title>libglu&#45;&gt;freeglut</title>
<path fill="none" stroke="#000000" d="M179.7123,-359.8314C181.9081,-351.9266 184.5302,-342.4872 186.9609,-333.7365"/>
<polygon fill="#000000" stroke="#000000" points="190.3854,-334.4854 189.6895,-323.9134 183.6407,-332.6118 190.3854,-334.4854"/>
</g>
<!-- libglu&#45;&gt;root -->
<g id="edge11" class="edge">
<title>libglu&#45;&gt;root</title>
<path fill="none" stroke="#000000" d="M143.6523,-366.3104C137.703,-364.1523 131.5074,-361.9624 125.6655,-360 73.6889,-342.5399 40.2931,-368.0665 7.6655,-324 -1.8555,-311.1411 -3.055,-299.8774 7.6655,-288 40.0561,-252.1139 375.2647,-238.7236 493.0307,-235.1052"/>
<polygon fill="#000000" stroke="#000000" points="493.1945,-238.602 503.0851,-234.8039 492.9848,-231.6051 493.1945,-238.602"/>
</g>
<!-- libsndfile -->
<g id="node10" class="node">
<title>libsndfile</title>
<ellipse fill="#fde725" stroke="#000000" cx="739.6655" cy="-90" rx="59.5901" ry="18"/>
<text text-anchor="middle" x="739.6655" y="-86.3" font-family="Times,serif" font-size="14.00" fill="#000000">libsndfile</text>
</g>
<!-- r&#45;base -->
<g id="node24" class="node">
<title>r&#45;base</title>
<ellipse fill="#fde725" stroke="#000000" cx="901.6655" cy="-18" rx="40.0939" ry="18"/>
<text text-anchor="middle" x="901.6655" y="-14.3" font-family="Times,serif" font-size="14.00" fill="#000000">r base</text>
</g>
<!-- libsndfile&#45;&gt;r&#45;base -->
<g id="edge12" class="edge">
<title>libsndfile&#45;&gt;r&#45;base</title>
<path fill="none" stroke="#000000" d="M773.232,-75.0816C799.5951,-63.3646 836.3087,-47.0475 863.7339,-34.8585"/>
<polygon fill="#000000" stroke="#000000" points="865.2984,-37.9933 873.015,-30.7336 862.4554,-31.5967 865.2984,-37.9933"/>
</g>
<!-- llvmlite -->
<g id="node11" class="node">
<title>llvmlite</title>
<ellipse fill="#31688e" stroke="#000000" cx="1074.6655" cy="-450" rx="50.0912" ry="18"/>
<text text-anchor="middle" x="1074.6655" y="-446.3" font-family="Times,serif" font-size="14.00" fill="#ffffff">llvmlite</text>
</g>
<!-- numba -->
<g id="node33" class="node">
<title>numba</title>
<ellipse fill="#fde725" stroke="#000000" cx="1074.6655" cy="-378" rx="35.194" ry="18"/>
<text text-anchor="middle" x="1074.6655" y="-374.3" font-family="Times,serif" font-size="14.00" fill="#000000">numba</text>
</g>
<!-- llvmlite&#45;&gt;numba -->
<g id="edge13" class="edge">
<title>llvmlite&#45;&gt;numba</title>
<path fill="none" stroke="#000000" d="M1074.6655,-431.8314C1074.6655,-424.131 1074.6655,-414.9743 1074.6655,-406.4166"/>
<polygon fill="#000000" stroke="#000000" points="1078.1656,-406.4132 1074.6655,-396.4133 1071.1656,-406.4133 1078.1656,-406.4132"/>
</g>
<!-- matplotlib -->
<g id="node12" class="node">
<title>matplotlib</title>
<ellipse fill="#fde725" stroke="#000000" cx="511.6655" cy="-162" rx="59.5901" ry="18"/>
<text text-anchor="middle" x="511.6655" y="-158.3" font-family="Times,serif" font-size="14.00" fill="#000000">matplotlib</text>
</g>
<!-- mpfr -->
<g id="node13" class="node">
<title>mpfr</title>
<ellipse fill="#fde725" stroke="#000000" cx="892.6655" cy="-162" rx="30.5947" ry="18"/>
<text text-anchor="middle" x="892.6655" y="-158.3" font-family="Times,serif" font-size="14.00" fill="#000000">mpfr</text>
</g>
<!-- mpfr&#45;&gt;r&#45;base -->
<g id="edge14" class="edge">
<title>mpfr&#45;&gt;r&#45;base</title>
<path fill="none" stroke="#000000" d="M883.6135,-144.6853C875.2869,-126.5186 865.1455,-97.1614 871.6655,-72 874.1548,-62.3937 878.7639,-52.6768 883.6353,-44.1845"/>
<polygon fill="#000000" stroke="#000000" points="886.7067,-45.8706 888.9362,-35.513 880.7342,-42.2196 886.7067,-45.8706"/>
</g>
<!-- texlive&#45;core -->
<g id="node26" class="node">
<title>texlive&#45;core</title>
<ellipse fill="#fde725" stroke="#000000" cx="950.6655" cy="-90" rx="69.5877" ry="18"/>
<text text-anchor="middle" x="950.6655" y="-86.3" font-family="Times,serif" font-size="14.00" fill="#000000">texlive core</text>
</g>
<!-- mpfr&#45;&gt;texlive&#45;core -->
<g id="edge15" class="edge">
<title>mpfr&#45;&gt;texlive&#45;core</title>
<path fill="none" stroke="#000000" d="M905.8266,-145.6621C912.9289,-136.8454 921.8596,-125.759 929.8775,-115.8058"/>
<polygon fill="#000000" stroke="#000000" points="932.79,-117.7694 936.3377,-107.7862 927.3387,-113.3781 932.79,-117.7694"/>
</g>
<!-- mpir -->
<g id="node14" class="node">
<title>mpir</title>
<ellipse fill="#31688e" stroke="#000000" cx="853.6655" cy="-234" rx="30.5947" ry="18"/>
<text text-anchor="middle" x="853.6655" y="-230.3" font-family="Times,serif" font-size="14.00" fill="#ffffff">mpir</text>
</g>
<!-- mpir&#45;&gt;mpfr -->
<g id="edge16" class="edge">
<title>mpir&#45;&gt;mpfr</title>
<path fill="none" stroke="#000000" d="M863.1063,-216.5708C867.7051,-208.0807 873.3319,-197.6929 878.4373,-188.2674"/>
<polygon fill="#000000" stroke="#000000" points="881.6263,-189.7286 883.3116,-179.2687 875.4712,-186.3946 881.6263,-189.7286"/>
</g>
<!-- openblas -->
<g id="node16" class="node">
<title>openblas</title>
<ellipse fill="#000000" stroke="#000000" cx="971.6655" cy="-378" rx="50.0912" ry="18"/>
<text text-anchor="middle" x="971.6655" y="-374.3" font-family="Times,serif" font-size="14.00" fill="#ffffff">openblas</text>
</g>
<!-- openblas&#45;&gt;opencv -->
<g id="edge18" class="edge">
<title>openblas&#45;&gt;opencv</title>
<path fill="none" stroke="#000000" d="M967.9926,-359.7623C963.0245,-335.0928 954.1164,-290.8598 948.299,-261.9731"/>
<polygon fill="#000000" stroke="#000000" points="951.714,-261.2018 946.3085,-252.0896 944.8518,-262.5838 951.714,-261.2018"/>
</g>
<!-- openblas&#45;&gt;r&#45;base -->
<g id="edge19" class="edge">
<title>openblas&#45;&gt;r&#45;base</title>
<path fill="none" stroke="#000000" d="M999.5273,-363.0362C1014.26,-353.7135 1031.3782,-340.3762 1041.6655,-324 1063.412,-289.3821 1060.6655,-274.8816 1060.6655,-234 1060.6655,-234 1060.6655,-234 1060.6655,-162 1060.6655,-119.6937 1058.5541,-102.9076 1029.6655,-72 1008.2502,-49.088 975.5663,-35.5197 948.5864,-27.7144"/>
<polygon fill="#000000" stroke="#000000" points="949.5038,-24.3368 938.936,-25.0929 947.6687,-31.092 949.5038,-24.3368"/>
</g>
<!-- blas -->
<g id="node36" class="node">
<title>blas</title>
<ellipse fill="#000000" stroke="#000000" cx="1001.6655" cy="-306" rx="30.5947" ry="18"/>
<text text-anchor="middle" x="1001.6655" y="-302.3" font-family="Times,serif" font-size="14.00" fill="#ffffff">blas</text>
</g>
<!-- openblas&#45;&gt;blas -->
<g id="edge17" class="edge">
<title>openblas&#45;&gt;blas</title>
<path fill="none" stroke="#000000" d="M979.2358,-359.8314C982.601,-351.7547 986.6338,-342.0761 990.346,-333.1668"/>
<polygon fill="#000000" stroke="#000000" points="993.5861,-334.4904 994.2016,-323.9134 987.1246,-331.798 993.5861,-334.4904"/>
</g>
<!-- openblas&#45;&gt;root -->
<g id="edge20" class="edge">
<title>openblas&#45;&gt;root</title>
<path fill="none" stroke="#000000" d="M925.0035,-371.2304C861.6766,-361.5168 752.3232,-342.724 716.6655,-324 696.0681,-313.1842 698.408,-300.3072 678.6655,-288 669.0774,-282.0229 609.4654,-260.5791 569.7216,-246.5794"/>
<polygon fill="#000000" stroke="#000000" points="570.6827,-243.2074 560.0879,-243.1945 568.3622,-249.8116 570.6827,-243.2074"/>
</g>
<!-- pandoc -->
<g id="node18" class="node">
<title>pandoc</title>
<ellipse fill="#000000" stroke="#000000" cx="273.6655" cy="-378" rx="40.0939" ry="18"/>
<text text-anchor="middle" x="273.6655" y="-374.3" font-family="Times,serif" font-size="14.00" fill="#ffffff">pandoc</text>
</g>
<!-- pandoc&#45;&gt;nbconvert -->
<g id="edge21" class="edge">
<title>pandoc&#45;&gt;nbconvert</title>
<path fill="none" stroke="#000000" d="M298.2608,-363.6028C316.1346,-353.14 340.6081,-338.8141 360.6766,-327.0667"/>
<polygon fill="#000000" stroke="#000000" points="362.6857,-329.9462 369.5477,-321.8738 359.1494,-323.9051 362.6857,-329.9462"/>
</g>
<!-- pkgconfig -->
<g id="node19" class="node">
<title>pkgconfig</title>
<ellipse fill="#000000" stroke="#000000" cx="780.6655" cy="-306" rx="54.6905" ry="18"/>
<text text-anchor="middle" x="780.6655" y="-302.3" font-family="Times,serif" font-size="14.00" fill="#ffffff">pkgconfig</text>
</g>
<!-- pkgconfig&#45;&gt;opencv -->
<g id="edge24" class="edge">
<title>pkgconfig&#45;&gt;opencv</title>
<path fill="none" stroke="#000000" d="M813.4486,-291.4297C839.8311,-279.7042 876.9435,-263.2098 904.6304,-250.9045"/>
<polygon fill="#000000" stroke="#000000" points="906.2809,-254.0011 913.9975,-246.7413 903.4379,-247.6044 906.2809,-254.0011"/>
</g>
<!-- libogg -->
<g id="node29" class="node">
<title>libogg</title>
<ellipse fill="#31688e" stroke="#000000" cx="726.6655" cy="-234" rx="40.0939" ry="18"/>
<text text-anchor="middle" x="726.6655" y="-230.3" font-family="Times,serif" font-size="14.00" fill="#ffffff">libogg</text>
</g>
<!-- pkgconfig&#45;&gt;libogg -->
<g id="edge23" class="edge">
<title>pkgconfig&#45;&gt;libogg</title>
<path fill="none" stroke="#000000" d="M767.3172,-288.2022C760.7467,-279.4416 752.7125,-268.7293 745.5267,-259.1482"/>
<polygon fill="#000000" stroke="#000000" points="748.2885,-256.9972 739.4884,-251.0972 742.6884,-261.1973 748.2885,-256.9972"/>
</g>
<!-- libflac -->
<g id="node31" class="node">
<title>libflac</title>
<ellipse fill="#fde725" stroke="#000000" cx="799.6655" cy="-162" rx="44.6926" ry="18"/>
<text text-anchor="middle" x="799.6655" y="-158.3" font-family="Times,serif" font-size="14.00" fill="#000000">libflac</text>
</g>
<!-- pkgconfig&#45;&gt;libflac -->
<g id="edge22" class="edge">
<title>pkgconfig&#45;&gt;libflac</title>
<path fill="none" stroke="#000000" d="M783.0719,-287.7623C786.3126,-263.201 792.112,-219.2474 795.9243,-190.3541"/>
<polygon fill="#000000" stroke="#000000" points="799.4404,-190.4616 797.2787,-180.0896 792.5006,-189.5458 799.4404,-190.4616"/>
</g>
<!-- pkgconfig&#45;&gt;root -->
<g id="edge25" class="edge">
<title>pkgconfig&#45;&gt;root</title>
<path fill="none" stroke="#000000" d="M738.2293,-294.585C689.9119,-281.5285 614.0082,-260.8202 585.6655,-252 580.3634,-250.35 574.7883,-248.5213 569.3375,-246.6802"/>
<polygon fill="#000000" stroke="#000000" points="570.3407,-243.3242 559.7461,-243.3886 568.0685,-249.9451 570.3407,-243.3242"/>
</g>
<!-- pluggy -->
<g id="node20" class="node">
<title>pluggy</title>
<ellipse fill="#31688e" stroke="#000000" cx="1182.6655" cy="-450" rx="40.0939" ry="18"/>
<text text-anchor="middle" x="1182.6655" y="-446.3" font-family="Times,serif" font-size="14.00" fill="#ffffff">pluggy</text>
</g>
<!-- pyqt -->
<g id="node22" class="node">
<title>pyqt</title>
<ellipse fill="#fde725" stroke="#000000" cx="625.6655" cy="-234" rx="30.5947" ry="18"/>
<text text-anchor="middle" x="625.6655" y="-230.3" font-family="Times,serif" font-size="14.00" fill="#000000">pyqt</text>
</g>
<!-- pyqt&#45;&gt;matplotlib -->
<g id="edge26" class="edge">
<title>pyqt&#45;&gt;matplotlib</title>
<path fill="none" stroke="#000000" d="M604.7561,-220.7941C588.368,-210.4437 565.2183,-195.8228 546.1045,-183.751"/>
<polygon fill="#000000" stroke="#000000" points="547.9692,-180.789 537.6453,-178.4083 544.2312,-186.7075 547.9692,-180.789"/>
</g>
<!-- qt&#45;&gt;opencv -->
<g id="edge27" class="edge">
<title>qt&#45;&gt;opencv</title>
<path fill="none" stroke="#000000" d="M667.9541,-299.597C682.2257,-296.0468 700.4062,-291.6296 716.6655,-288 795.0144,-270.51 816.4341,-273.9032 893.6655,-252 896.6218,-251.1616 899.6545,-250.2295 902.6916,-249.2433"/>
<polygon fill="#000000" stroke="#000000" points="903.9852,-252.5001 912.3184,-245.9573 901.7239,-245.8754 903.9852,-252.5001"/>
</g>
<!-- qt&#45;&gt;pyqt -->
<g id="edge28" class="edge">
<title>qt&#45;&gt;pyqt</title>
<path fill="none" stroke="#000000" d="M638.4632,-288.2022C636.5834,-280.2406 634.323,-270.6671 632.2284,-261.7957"/>
<polygon fill="#000000" stroke="#000000" points="635.5827,-260.7706 629.8783,-251.8425 628.77,-262.3792 635.5827,-260.7706"/>
</g>
<!-- qt&#45;&gt;root -->
<g id="edge29" class="edge">
<title>qt&#45;&gt;root</title>
<path fill="none" stroke="#000000" d="M623.4294,-293.2936C606.5755,-282.1607 581.8367,-265.8195 562.596,-253.11"/>
<polygon fill="#000000" stroke="#000000" points="564.4637,-250.1491 554.1906,-247.5578 560.6055,-255.9899 564.4637,-250.1491"/>
</g>
<!-- sqlalchemy -->
<g id="node25" class="node">
<title>sqlalchemy</title>
<ellipse fill="#000000" stroke="#000000" cx="1300.6655" cy="-450" rx="59.5901" ry="18"/>
<text text-anchor="middle" x="1300.6655" y="-446.3" font-family="Times,serif" font-size="14.00" fill="#ffffff">sqlalchemy</text>
</g>
<!-- texlive&#45;core&#45;&gt;r&#45;base -->
<g id="edge30" class="edge">
<title>texlive&#45;core&#45;&gt;r&#45;base</title>
<path fill="none" stroke="#000000" d="M938.5531,-72.2022C932.6946,-63.5938 925.5537,-53.1011 919.1209,-43.6488"/>
<polygon fill="#000000" stroke="#000000" points="921.9892,-41.6425 913.4694,-35.3446 916.2022,-45.5809 921.9892,-41.6425"/>
</g>
<!-- unzip -->
<g id="node27" class="node">
<title>unzip</title>
<ellipse fill="#000000" stroke="#000000" cx="1413.6655" cy="-450" rx="35.194" ry="18"/>
<text text-anchor="middle" x="1413.6655" y="-446.3" font-family="Times,serif" font-size="14.00" fill="#ffffff">unzip</text>
</g>
<!-- libogg&#45;&gt;libsndfile -->
<g id="edge32" class="edge">
<title>libogg&#45;&gt;libsndfile</title>
<path fill="none" stroke="#000000" d="M728.312,-215.7623C730.5293,-191.201 734.4973,-147.2474 737.1058,-118.3541"/>
<polygon fill="#000000" stroke="#000000" points="740.619,-118.3638 738.0324,-108.0896 733.6474,-117.7344 740.619,-118.3638"/>
</g>
<!-- libvorbis -->
<g id="node30" class="node">
<title>libvorbis</title>
<ellipse fill="#fde725" stroke="#000000" cx="643.6655" cy="-162" rx="54.6905" ry="18"/>
<text text-anchor="middle" x="643.6655" y="-158.3" font-family="Times,serif" font-size="14.00" fill="#000000">libvorbis</text>
</g>
<!-- libogg&#45;&gt;libvorbis -->
<g id="edge33" class="edge">
<title>libogg&#45;&gt;libvorbis</title>
<path fill="none" stroke="#000000" d="M707.8315,-217.6621C696.9242,-208.2004 683.0037,-196.1247 670.918,-185.6407"/>
<polygon fill="#000000" stroke="#000000" points="673.1384,-182.9334 663.291,-179.0245 668.5514,-188.2212 673.1384,-182.9334"/>
</g>
<!-- libogg&#45;&gt;libflac -->
<g id="edge31" class="edge">
<title>libogg&#45;&gt;libflac</title>
<path fill="none" stroke="#000000" d="M743.5966,-217.3008C753.0188,-208.0077 764.911,-196.2784 775.3161,-186.0158"/>
<polygon fill="#000000" stroke="#000000" points="777.9114,-188.3721 782.5733,-178.8581 772.9958,-183.3883 777.9114,-188.3721"/>
</g>
<!-- libvorbis&#45;&gt;libsndfile -->
<g id="edge34" class="edge">
<title>libvorbis&#45;&gt;libsndfile</title>
<path fill="none" stroke="#000000" d="M665.9311,-145.3008C678.6828,-135.737 694.8747,-123.5931 708.835,-113.1229"/>
<polygon fill="#000000" stroke="#000000" points="711.2881,-115.6581 717.1881,-106.8581 707.088,-110.0581 711.2881,-115.6581"/>
</g>
<!-- libflac&#45;&gt;libsndfile -->
<g id="edge35" class="edge">
<title>libflac&#45;&gt;libsndfile</title>
<path fill="none" stroke="#000000" d="M785.1412,-144.5708C777.8254,-135.7919 768.8189,-124.9841 760.7565,-115.3093"/>
<polygon fill="#000000" stroke="#000000" points="763.3547,-112.9598 754.264,-107.5182 757.9771,-117.4411 763.3547,-112.9598"/>
</g>
<!-- lld -->
<g id="node32" class="node">
<title>lld</title>
<ellipse fill="#31688e" stroke="#000000" cx="1493.6655" cy="-450" rx="27" ry="18"/>
<text text-anchor="middle" x="1493.6655" y="-446.3" font-family="Times,serif" font-size="14.00" fill="#ffffff">lld</text>
</g>
<!-- autotools_clang_conda -->
<g id="node39" class="node">
<title>autotools_clang_conda</title>
<ellipse fill="#fde725" stroke="#000000" cx="1493.6655" cy="-378" rx="113.18" ry="18"/>
<text text-anchor="middle" x="1493.6655" y="-374.3" font-family="Times,serif" font-size="14.00" fill="#000000">autotools_clang_conda</text>
</g>
<!-- lld&#45;&gt;autotools_clang_conda -->
<g id="edge36" class="edge">
<title>lld&#45;&gt;autotools_clang_conda</title>
<path fill="none" stroke="#000000" d="M1493.6655,-431.8314C1493.6655,-424.131 1493.6655,-414.9743 1493.6655,-406.4166"/>
<polygon fill="#000000" stroke="#000000" points="1497.1656,-406.4132 1493.6655,-396.4133 1490.1656,-406.4133 1497.1656,-406.4132"/>
</g>
<!-- nspr -->
<g id="node34" class="node">
<title>nspr</title>
<ellipse fill="#31688e" stroke="#000000" cx="653.6655" cy="-450" rx="30.5947" ry="18"/>
<text text-anchor="middle" x="653.6655" y="-446.3" font-family="Times,serif" font-size="14.00" fill="#ffffff">nspr</text>
</g>
<!-- nspr&#45;&gt;qt -->
<g id="edge38" class="edge">
<title>nspr&#45;&gt;qt</title>
<path fill="none" stroke="#000000" d="M650.485,-432.0612C648.7582,-421.5817 646.7582,-408.0817 645.6655,-396 643.8112,-375.4985 643.0708,-352.2772 642.7889,-334.5576"/>
<polygon fill="#000000" stroke="#000000" points="646.2858,-334.2667 642.6668,-324.3091 639.2863,-334.3501 646.2858,-334.2667"/>
</g>
<!-- nss -->
<g id="node35" class="node">
<title>nss</title>
<ellipse fill="#fde725" stroke="#000000" cx="681.6655" cy="-378" rx="27" ry="18"/>
<text text-anchor="middle" x="681.6655" y="-374.3" font-family="Times,serif" font-size="14.00" fill="#000000">nss</text>
</g>
<!-- nspr&#45;&gt;nss -->
<g id="edge37" class="edge">
<title>nspr&#45;&gt;nss</title>
<path fill="none" stroke="#000000" d="M660.5868,-432.2022C663.7741,-424.0064 667.6257,-414.1024 671.1598,-405.0145"/>
<polygon fill="#000000" stroke="#000000" points="674.4613,-406.1817 674.8238,-395.593 667.9372,-403.6445 674.4613,-406.1817"/>
</g>
<!-- nss&#45;&gt;qt -->
<g id="edge39" class="edge">
<title>nss&#45;&gt;qt</title>
<path fill="none" stroke="#000000" d="M672.423,-360.937C667.7118,-352.2393 661.8838,-341.4799 656.6377,-331.7948"/>
<polygon fill="#000000" stroke="#000000" points="659.682,-330.0664 651.8416,-322.9405 653.527,-333.4005 659.682,-330.0664"/>
</g>
<!-- blas&#45;&gt;opencv -->
<g id="edge40" class="edge">
<title>blas&#45;&gt;opencv</title>
<path fill="none" stroke="#000000" d="M988.2775,-289.6621C980.8195,-280.5608 971.3796,-269.041 963.0251,-258.8456"/>
<polygon fill="#000000" stroke="#000000" points="965.6616,-256.5409 956.6161,-251.0245 960.2472,-260.9777 965.6616,-256.5409"/>
</g>
<!-- compilers -->
<g id="node38" class="node">
<title>compilers</title>
<ellipse fill="#31688e" stroke="#000000" cx="71.6655" cy="-306" rx="54.6905" ry="18"/>
<text text-anchor="middle" x="71.6655" y="-302.3" font-family="Times,serif" font-size="14.00" fill="#ffffff">compilers</text>
</g>
<!-- compilers&#45;&gt;root -->
<g id="edge41" class="edge">
<title>compilers&#45;&gt;root</title>
<path fill="none" stroke="#000000" d="M112.0836,-293.7143C119.8623,-291.6112 127.9804,-289.594 135.6655,-288 265.0054,-261.1735 420.8588,-244.4805 493.1653,-237.6131"/>
<polygon fill="#000000" stroke="#000000" points="493.5845,-241.0892 503.2141,-236.6711 492.9311,-234.1198 493.5845,-241.0892"/>
</g>
</g>
</svg>
