<?xml version="1.0" encoding="UTF-8" standalone="no"?>
<!DOCTYPE svg PUBLIC "-//W3C//DTD SVG 1.1//EN"
 "http://www.w3.org/Graphics/SVG/1.1/DTD/svg11.dtd">
<!-- Generated by graphviz version 2.40.1 (20161225.0304)
 -->
<!-- Title: %3 Pages: 1 -->
<svg width="2831pt" height="332pt"
 viewBox="0.00 0.00 2831.19 332.00" xmlns="http://www.w3.org/2000/svg" xmlns:xlink="http://www.w3.org/1999/xlink">
<g id="graph0" class="graph" transform="scale(1 1) rotate(0) translate(4 328)">
<title>%3</title>
<polygon fill="#ffffff" stroke="transparent" points="-4,4 -4,-328 2827.1903,-328 2827.1903,4 -4,4"/>
<!-- arrow&#45;cpp -->
<g id="node1" class="node">
<title>arrow&#45;cpp</title>
<ellipse fill="#31688e" stroke="#000000" cx="54.5952" cy="-306" rx="54.6905" ry="18"/>
<text text-anchor="middle" x="54.5952" y="-302.3" font-family="Times,serif" font-size="14.00" fill="#ffffff">arrow cpp</text>
</g>
<!-- pyarrow -->
<g id="node18" class="node">
<title>pyarrow</title>
<ellipse fill="#fde725" stroke="#000000" cx="54.5952" cy="-234" rx="44.6926" ry="18"/>
<text text-anchor="middle" x="54.5952" y="-230.3" font-family="Times,serif" font-size="14.00" fill="#000000">pyarrow</text>
</g>
<!-- arrow&#45;cpp&#45;&gt;pyarrow -->
<g id="edge1" class="edge">
<title>arrow&#45;cpp&#45;&gt;pyarrow</title>
<path fill="none" stroke="#000000" d="M54.5952,-287.8314C54.5952,-280.131 54.5952,-270.9743 54.5952,-262.4166"/>
<polygon fill="#000000" stroke="#000000" points="58.0953,-262.4132 54.5952,-252.4133 51.0953,-262.4133 58.0953,-262.4132"/>
</g>
<!-- dill -->
<g id="node2" class="node">
<title>dill</title>
<ellipse fill="#31688e" stroke="#000000" cx="186.5952" cy="-306" rx="30.5947" ry="18"/>
<text text-anchor="middle" x="186.5952" y="-302.3" font-family="Times,serif" font-size="14.00" fill="#ffffff">dill</text>
</g>
<!-- multiprocess -->
<g id="node16" class="node">
<title>multiprocess</title>
<ellipse fill="#fde725" stroke="#000000" cx="186.5952" cy="-234" rx="69.5877" ry="18"/>
<text text-anchor="middle" x="186.5952" y="-230.3" font-family="Times,serif" font-size="14.00" fill="#000000">multiprocess</text>
</g>
<!-- dill&#45;&gt;multiprocess -->
<g id="edge2" class="edge">
<title>dill&#45;&gt;multiprocess</title>
<path fill="none" stroke="#000000" d="M186.5952,-287.8314C186.5952,-280.131 186.5952,-270.9743 186.5952,-262.4166"/>
<polygon fill="#000000" stroke="#000000" points="190.0953,-262.4132 186.5952,-252.4133 183.0953,-262.4133 190.0953,-262.4132"/>
</g>
<!-- glew -->
<g id="node3" class="node">
<title>glew</title>
<ellipse fill="#fde725" stroke="#000000" cx="696.5952" cy="-162" rx="30.5947" ry="18"/>
<text text-anchor="middle" x="696.5952" y="-158.3" font-family="Times,serif" font-size="14.00" fill="#000000">glew</text>
</g>
<!-- root -->
<g id="node42" class="node">
<title>root</title>
<ellipse fill="#fde725" stroke="#000000" cx="785.5952" cy="-90" rx="30.5947" ry="18"/>
<text text-anchor="middle" x="785.5952" y="-86.3" font-family="Times,serif" font-size="14.00" fill="#000000">root</text>
</g>
<!-- glew&#45;&gt;root -->
<g id="edge3" class="edge">
<title>glew&#45;&gt;root</title>
<path fill="none" stroke="#000000" d="M714.6056,-147.4297C727.4285,-137.0562 744.8652,-122.9501 759.2483,-111.3143"/>
<polygon fill="#000000" stroke="#000000" points="761.7328,-113.8063 767.306,-104.7957 757.3302,-108.3642 761.7328,-113.8063"/>
</g>
<!-- gmpy2 -->
<g id="node4" class="node">
<title>gmpy2</title>
<ellipse fill="#fde725" stroke="#000000" cx="1879.5952" cy="-90" rx="35.194" ry="18"/>
<text text-anchor="middle" x="1879.5952" y="-86.3" font-family="Times,serif" font-size="14.00" fill="#000000">gmpy2</text>
</g>
<!-- sympy -->
<g id="node22" class="node">
<title>sympy</title>
<ellipse fill="#fde725" stroke="#000000" cx="1879.5952" cy="-18" rx="35.194" ry="18"/>
<text text-anchor="middle" x="1879.5952" y="-14.3" font-family="Times,serif" font-size="14.00" fill="#000000">sympy</text>
</g>
<!-- gmpy2&#45;&gt;sympy -->
<g id="edge4" class="edge">
<title>gmpy2&#45;&gt;sympy</title>
<path fill="none" stroke="#000000" d="M1879.5952,-71.8314C1879.5952,-64.131 1879.5952,-54.9743 1879.5952,-46.4166"/>
<polygon fill="#000000" stroke="#000000" points="1883.0953,-46.4132 1879.5952,-36.4133 1876.0953,-46.4133 1883.0953,-46.4132"/>
</g>
<!-- gst&#45;plugins&#45;base -->
<g id="node5" class="node">
<title>gst&#45;plugins&#45;base</title>
<ellipse fill="#fde725" stroke="#000000" cx="905.5952" cy="-234" rx="89.0842" ry="18"/>
<text text-anchor="middle" x="905.5952" y="-230.3" font-family="Times,serif" font-size="14.00" fill="#000000">gst plugins base</text>
</g>
<!-- qt -->
<g id="node20" class="node">
<title>qt</title>
<ellipse fill="#fde725" stroke="#000000" cx="1041.5952" cy="-162" rx="27" ry="18"/>
<text text-anchor="middle" x="1041.5952" y="-158.3" font-family="Times,serif" font-size="14.00" fill="#000000">qt</text>
</g>
<!-- gst&#45;plugins&#45;base&#45;&gt;qt -->
<g id="edge5" class="edge">
<title>gst&#45;plugins&#45;base&#45;&gt;qt</title>
<path fill="none" stroke="#000000" d="M937.4811,-217.1192C959.7389,-205.3357 989.2689,-189.7022 1011.1935,-178.095"/>
<polygon fill="#000000" stroke="#000000" points="1012.8805,-181.1622 1020.0807,-173.39 1009.6052,-174.9757 1012.8805,-181.1622"/>
</g>
<!-- gstreamer -->
<g id="node6" class="node">
<title>gstreamer</title>
<ellipse fill="#31688e" stroke="#000000" cx="931.5952" cy="-306" rx="54.6905" ry="18"/>
<text text-anchor="middle" x="931.5952" y="-302.3" font-family="Times,serif" font-size="14.00" fill="#ffffff">gstreamer</text>
</g>
<!-- gstreamer&#45;&gt;gst&#45;plugins&#45;base -->
<g id="edge6" class="edge">
<title>gstreamer&#45;&gt;gst&#45;plugins&#45;base</title>
<path fill="none" stroke="#000000" d="M925.0343,-287.8314C922.1924,-279.9617 918.8014,-270.5712 915.6533,-261.8533"/>
<polygon fill="#000000" stroke="#000000" points="918.9328,-260.63 912.2444,-252.4133 912.349,-263.0076 918.9328,-260.63"/>
</g>
<!-- gstreamer&#45;&gt;qt -->
<g id="edge7" class="edge">
<title>gstreamer&#45;&gt;qt</title>
<path fill="none" stroke="#000000" d="M959.0597,-290.3675C973.8402,-280.8356 991.4715,-267.5118 1003.5952,-252 1018.0476,-233.5085 1027.9787,-208.7121 1034.0536,-189.8293"/>
<polygon fill="#000000" stroke="#000000" points="1037.4742,-190.6107 1037.036,-180.0249 1030.7772,-188.5734 1037.4742,-190.6107"/>
</g>
<!-- ipyparallel -->
<g id="node7" class="node">
<title>ipyparallel</title>
<ellipse fill="#31688e" stroke="#000000" cx="583.5952" cy="-162" rx="64.189" ry="18"/>
<text text-anchor="middle" x="583.5952" y="-158.3" font-family="Times,serif" font-size="14.00" fill="#ffffff">ipyparallel</text>
</g>
<!-- ipyparallel&#45;&gt;root -->
<g id="edge8" class="edge">
<title>ipyparallel&#45;&gt;root</title>
<path fill="none" stroke="#000000" d="M623.5039,-147.7751C660.288,-134.6639 714.3892,-115.3803 749.8046,-102.757"/>
<polygon fill="#000000" stroke="#000000" points="751.0238,-106.0382 759.2682,-99.3839 748.6735,-99.4446 751.0238,-106.0382"/>
</g>
<!-- jupyter_client -->
<g id="node8" class="node">
<title>jupyter_client</title>
<ellipse fill="#31688e" stroke="#000000" cx="583.5952" cy="-234" rx="79.0865" ry="18"/>
<text text-anchor="middle" x="583.5952" y="-230.3" font-family="Times,serif" font-size="14.00" fill="#ffffff">jupyter_client</text>
</g>
<!-- jupyter_client&#45;&gt;ipyparallel -->
<g id="edge9" class="edge">
<title>jupyter_client&#45;&gt;ipyparallel</title>
<path fill="none" stroke="#000000" d="M583.5952,-215.8314C583.5952,-208.131 583.5952,-198.9743 583.5952,-190.4166"/>
<polygon fill="#000000" stroke="#000000" points="587.0953,-190.4132 583.5952,-180.4133 580.0953,-190.4133 587.0953,-190.4132"/>
</g>
<!-- libglu -->
<g id="node9" class="node">
<title>libglu</title>
<ellipse fill="#31688e" stroke="#000000" cx="758.5952" cy="-234" rx="40.0939" ry="18"/>
<text text-anchor="middle" x="758.5952" y="-230.3" font-family="Times,serif" font-size="14.00" fill="#ffffff">libglu</text>
</g>
<!-- libglu&#45;&gt;glew -->
<g id="edge11" class="edge">
<title>libglu&#45;&gt;glew</title>
<path fill="none" stroke="#000000" d="M743.902,-216.937C735.9905,-207.7494 726.0979,-196.2613 717.4073,-186.1689"/>
<polygon fill="#000000" stroke="#000000" points="719.9335,-183.7388 710.7561,-178.4449 714.6291,-188.3065 719.9335,-183.7388"/>
</g>
<!-- freeglut -->
<g id="node25" class="node">
<title>freeglut</title>
<ellipse fill="#fde725" stroke="#000000" cx="795.5952" cy="-162" rx="50.0912" ry="18"/>
<text text-anchor="middle" x="795.5952" y="-158.3" font-family="Times,serif" font-size="14.00" fill="#000000">freeglut</text>
</g>
<!-- libglu&#45;&gt;freeglut -->
<g id="edge10" class="edge">
<title>libglu&#45;&gt;freeglut</title>
<path fill="none" stroke="#000000" d="M767.7412,-216.2022C771.966,-207.981 777.0741,-198.041 781.7561,-188.9301"/>
<polygon fill="#000000" stroke="#000000" points="784.9683,-190.3366 786.4261,-179.8425 778.7423,-187.1371 784.9683,-190.3366"/>
</g>
<!-- libglu&#45;&gt;root -->
<g id="edge12" class="edge">
<title>libglu&#45;&gt;root</title>
<path fill="none" stroke="#000000" d="M788.1392,-221.39C813.4987,-209.8902 847.1134,-192.7927 854.5952,-180 862.6727,-166.1886 861.6032,-158.3836 854.5952,-144 846.9435,-128.2954 832.2708,-115.8137 818.4164,-106.8239"/>
<polygon fill="#000000" stroke="#000000" points="819.8773,-103.6165 809.5122,-101.4218 816.2463,-109.6012 819.8773,-103.6165"/>
</g>
<!-- libsndfile -->
<g id="node10" class="node">
<title>libsndfile</title>
<ellipse fill="#fde725" stroke="#000000" cx="1325.5952" cy="-162" rx="59.5901" ry="18"/>
<text text-anchor="middle" x="1325.5952" y="-158.3" font-family="Times,serif" font-size="14.00" fill="#000000">libsndfile</text>
</g>
<!-- r&#45;base -->
<g id="node21" class="node">
<title>r&#45;base</title>
<ellipse fill="#fde725" stroke="#000000" cx="1521.5952" cy="-90" rx="40.0939" ry="18"/>
<text text-anchor="middle" x="1521.5952" y="-86.3" font-family="Times,serif" font-size="14.00" fill="#000000">r base</text>
</g>
<!-- libsndfile&#45;&gt;r&#45;base -->
<g id="edge13" class="edge">
<title>libsndfile&#45;&gt;r&#45;base</title>
<path fill="none" stroke="#000000" d="M1363.8512,-147.9468C1397.4134,-135.6178 1446.0931,-117.7355 1480.4801,-105.1035"/>
<polygon fill="#000000" stroke="#000000" points="1482.0375,-108.2601 1490.2173,-101.5266 1479.6237,-101.6894 1482.0375,-108.2601"/>
</g>
<!-- llvmlite -->
<g id="node11" class="node">
<title>llvmlite</title>
<ellipse fill="#31688e" stroke="#000000" cx="1997.5952" cy="-306" rx="50.0912" ry="18"/>
<text text-anchor="middle" x="1997.5952" y="-302.3" font-family="Times,serif" font-size="14.00" fill="#ffffff">llvmlite</text>
</g>
<!-- numba -->
<g id="node29" class="node">
<title>numba</title>
<ellipse fill="#fde725" stroke="#000000" cx="1997.5952" cy="-234" rx="35.194" ry="18"/>
<text text-anchor="middle" x="1997.5952" y="-230.3" font-family="Times,serif" font-size="14.00" fill="#000000">numba</text>
</g>
<!-- llvmlite&#45;&gt;numba -->
<g id="edge14" class="edge">
<title>llvmlite&#45;&gt;numba</title>
<path fill="none" stroke="#000000" d="M1997.5952,-287.8314C1997.5952,-280.131 1997.5952,-270.9743 1997.5952,-262.4166"/>
<polygon fill="#000000" stroke="#000000" points="2001.0953,-262.4132 1997.5952,-252.4133 1994.0953,-262.4133 2001.0953,-262.4132"/>
</g>
<!-- matplotlib -->
<g id="node12" class="node">
<title>matplotlib</title>
<ellipse fill="#fde725" stroke="#000000" cx="1086.5952" cy="-18" rx="59.5901" ry="18"/>
<text text-anchor="middle" x="1086.5952" y="-14.3" font-family="Times,serif" font-size="14.00" fill="#000000">matplotlib</text>
</g>
<!-- mpc -->
<g id="node13" class="node">
<title>mpc</title>
<ellipse fill="#fde725" stroke="#000000" cx="1879.5952" cy="-162" rx="27" ry="18"/>
<text text-anchor="middle" x="1879.5952" y="-158.3" font-family="Times,serif" font-size="14.00" fill="#000000">mpc</text>
</g>
<!-- mpc&#45;&gt;gmpy2 -->
<g id="edge15" class="edge">
<title>mpc&#45;&gt;gmpy2</title>
<path fill="none" stroke="#000000" d="M1879.5952,-143.8314C1879.5952,-136.131 1879.5952,-126.9743 1879.5952,-118.4166"/>
<polygon fill="#000000" stroke="#000000" points="1883.0953,-118.4132 1879.5952,-108.4133 1876.0953,-118.4133 1883.0953,-118.4132"/>
</g>
<!-- mpfr -->
<g id="node14" class="node">
<title>mpfr</title>
<ellipse fill="#fde725" stroke="#000000" cx="1822.5952" cy="-234" rx="30.5947" ry="18"/>
<text text-anchor="middle" x="1822.5952" y="-230.3" font-family="Times,serif" font-size="14.00" fill="#000000">mpfr</text>
</g>
<!-- mpfr&#45;&gt;gmpy2 -->
<g id="edge16" class="edge">
<title>mpfr&#45;&gt;gmpy2</title>
<path fill="none" stroke="#000000" d="M1824.8841,-215.8102C1827.6713,-197.1908 1833.3311,-167.7053 1843.5952,-144 1847.8931,-134.0739 1854.03,-123.9986 1860.0224,-115.2819"/>
<polygon fill="#000000" stroke="#000000" points="1862.9223,-117.2437 1865.8931,-107.0739 1857.2287,-113.1714 1862.9223,-117.2437"/>
</g>
<!-- mpfr&#45;&gt;mpc -->
<g id="edge17" class="edge">
<title>mpfr&#45;&gt;mpc</title>
<path fill="none" stroke="#000000" d="M1835.5293,-217.6621C1842.89,-208.3644 1852.249,-196.5426 1860.4469,-186.1873"/>
<polygon fill="#000000" stroke="#000000" points="1863.2493,-188.2862 1866.7122,-178.2733 1857.7609,-183.9413 1863.2493,-188.2862"/>
</g>
<!-- mpfr&#45;&gt;r&#45;base -->
<g id="edge18" class="edge">
<title>mpfr&#45;&gt;r&#45;base</title>
<path fill="none" stroke="#000000" d="M1792.1447,-232.3275C1726.7618,-228.1001 1575.9958,-214.7393 1540.5952,-180 1524.4603,-164.1665 1520.3598,-138.3246 1519.9181,-118.3841"/>
<polygon fill="#000000" stroke="#000000" points="1523.4185,-118.3204 1519.9858,-108.2971 1516.4186,-118.2733 1523.4185,-118.3204"/>
</g>
<!-- texlive&#45;core -->
<g id="node23" class="node">
<title>texlive&#45;core</title>
<ellipse fill="#fde725" stroke="#000000" cx="1619.5952" cy="-162" rx="69.5877" ry="18"/>
<text text-anchor="middle" x="1619.5952" y="-158.3" font-family="Times,serif" font-size="14.00" fill="#000000">texlive core</text>
</g>
<!-- mpfr&#45;&gt;texlive&#45;core -->
<g id="edge19" class="edge">
<title>mpfr&#45;&gt;texlive&#45;core</title>
<path fill="none" stroke="#000000" d="M1796.0565,-224.5873C1764.2851,-213.3186 1710.3738,-194.1973 1670.4814,-180.0483"/>
<polygon fill="#000000" stroke="#000000" points="1671.5147,-176.7012 1660.9199,-176.6571 1669.1747,-183.2986 1671.5147,-176.7012"/>
</g>
<!-- mpir -->
<g id="node15" class="node">
<title>mpir</title>
<ellipse fill="#31688e" stroke="#000000" cx="1881.5952" cy="-306" rx="30.5947" ry="18"/>
<text text-anchor="middle" x="1881.5952" y="-302.3" font-family="Times,serif" font-size="14.00" fill="#ffffff">mpir</text>
</g>
<!-- mpir&#45;&gt;gmpy2 -->
<g id="edge20" class="edge">
<title>mpir&#45;&gt;gmpy2</title>
<path fill="none" stroke="#000000" d="M1890.8314,-288.7269C1905.5761,-258.838 1931.2513,-195.7088 1915.5952,-144 1912.4607,-133.6475 1906.6145,-123.4656 1900.5313,-114.7822"/>
<polygon fill="#000000" stroke="#000000" points="1903.2465,-112.5685 1894.4607,-106.6475 1897.6365,-116.7551 1903.2465,-112.5685"/>
</g>
<!-- mpir&#45;&gt;mpc -->
<g id="edge21" class="edge">
<title>mpir&#45;&gt;mpc</title>
<path fill="none" stroke="#000000" d="M1881.3419,-287.7623C1881.0007,-263.201 1880.3903,-219.2474 1879.989,-190.3541"/>
<polygon fill="#000000" stroke="#000000" points="1883.485,-190.04 1879.8464,-180.0896 1876.4857,-190.1373 1883.485,-190.04"/>
</g>
<!-- mpir&#45;&gt;mpfr -->
<g id="edge22" class="edge">
<title>mpir&#45;&gt;mpfr</title>
<path fill="none" stroke="#000000" d="M1868.2071,-289.6621C1860.5882,-280.3644 1850.9009,-268.5426 1842.4153,-258.1873"/>
<polygon fill="#000000" stroke="#000000" points="1844.9756,-255.7897 1835.9302,-250.2733 1839.5613,-260.2265 1844.9756,-255.7897"/>
</g>
<!-- cvxpy -->
<g id="node35" class="node">
<title>cvxpy</title>
<ellipse fill="#fde725" stroke="#000000" cx="344.5952" cy="-162" rx="35.194" ry="18"/>
<text text-anchor="middle" x="344.5952" y="-158.3" font-family="Times,serif" font-size="14.00" fill="#000000">cvxpy</text>
</g>
<!-- multiprocess&#45;&gt;cvxpy -->
<g id="edge23" class="edge">
<title>multiprocess&#45;&gt;cvxpy</title>
<path fill="none" stroke="#000000" d="M221.2689,-218.1993C247.32,-206.3279 282.8793,-190.1237 309.1222,-178.1649"/>
<polygon fill="#000000" stroke="#000000" points="310.6859,-181.2987 318.3342,-173.967 307.7832,-174.9289 310.6859,-181.2987"/>
</g>
<!-- opencv -->
<g id="node17" class="node">
<title>opencv</title>
<ellipse fill="#fde725" stroke="#000000" cx="997.5952" cy="-90" rx="40.0939" ry="18"/>
<text text-anchor="middle" x="997.5952" y="-86.3" font-family="Times,serif" font-size="14.00" fill="#000000">opencv</text>
</g>
<!-- pyqt -->
<g id="node19" class="node">
<title>pyqt</title>
<ellipse fill="#fde725" stroke="#000000" cx="1086.5952" cy="-90" rx="30.5947" ry="18"/>
<text text-anchor="middle" x="1086.5952" y="-86.3" font-family="Times,serif" font-size="14.00" fill="#000000">pyqt</text>
</g>
<!-- pyqt&#45;&gt;matplotlib -->
<g id="edge24" class="edge">
<title>pyqt&#45;&gt;matplotlib</title>
<path fill="none" stroke="#000000" d="M1086.5952,-71.8314C1086.5952,-64.131 1086.5952,-54.9743 1086.5952,-46.4166"/>
<polygon fill="#000000" stroke="#000000" points="1090.0953,-46.4132 1086.5952,-36.4133 1083.0953,-46.4133 1090.0953,-46.4132"/>
</g>
<!-- qt&#45;&gt;opencv -->
<g id="edge25" class="edge">
<title>qt&#45;&gt;opencv</title>
<path fill="none" stroke="#000000" d="M1031.3901,-145.3008C1026.1033,-136.6496 1019.5263,-125.8873 1013.5832,-116.1623"/>
<polygon fill="#000000" stroke="#000000" points="1016.5598,-114.3209 1008.3588,-107.6132 1010.5868,-117.9711 1016.5598,-114.3209"/>
</g>
<!-- qt&#45;&gt;pyqt -->
<g id="edge26" class="edge">
<title>qt&#45;&gt;pyqt</title>
<path fill="none" stroke="#000000" d="M1052.0322,-145.3008C1057.5186,-136.5224 1064.3637,-125.5703 1070.5114,-115.7339"/>
<polygon fill="#000000" stroke="#000000" points="1073.5702,-117.4436 1075.9023,-107.1086 1067.6342,-113.7336 1073.5702,-117.4436"/>
</g>
<!-- qt&#45;&gt;root -->
<g id="edge27" class="edge">
<title>qt&#45;&gt;root</title>
<path fill="none" stroke="#000000" d="M1016.5827,-154.9652C971.432,-142.2666 876.0938,-115.4527 823.1049,-100.5496"/>
<polygon fill="#000000" stroke="#000000" points="823.9863,-97.1618 813.4121,-97.8235 822.091,-103.9003 823.9863,-97.1618"/>
</g>
<!-- texlive&#45;core&#45;&gt;r&#45;base -->
<g id="edge28" class="edge">
<title>texlive&#45;core&#45;&gt;r&#45;base</title>
<path fill="none" stroke="#000000" d="M1596.3705,-144.937C1582.7437,-134.9255 1565.399,-122.1824 1550.8457,-111.4902"/>
<polygon fill="#000000" stroke="#000000" points="1552.7798,-108.5681 1542.6487,-105.4679 1548.6353,-114.2093 1552.7798,-108.5681"/>
</g>
<!-- xorg&#45;libxcb -->
<g id="node24" class="node">
<title>xorg&#45;libxcb</title>
<ellipse fill="#35b779" stroke="#000000" cx="2129.5952" cy="-306" rx="64.189" ry="18"/>
<text text-anchor="middle" x="2129.5952" y="-302.3" font-family="Times,serif" font-size="14.00" fill="#000000">xorg libxcb</text>
</g>
<!-- libogg -->
<g id="node26" class="node">
<title>libogg</title>
<ellipse fill="#31688e" stroke="#000000" cx="1325.5952" cy="-306" rx="40.0939" ry="18"/>
<text text-anchor="middle" x="1325.5952" y="-302.3" font-family="Times,serif" font-size="14.00" fill="#ffffff">libogg</text>
</g>
<!-- libogg&#45;&gt;libsndfile -->
<g id="edge30" class="edge">
<title>libogg&#45;&gt;libsndfile</title>
<path fill="none" stroke="#000000" d="M1299.8048,-291.8735C1285.6869,-282.5863 1269.4977,-269.0074 1261.5952,-252 1254.853,-237.4899 1254.853,-230.5101 1261.5952,-216 1267.502,-203.2877 1278.0385,-192.4909 1288.8792,-183.97"/>
<polygon fill="#000000" stroke="#000000" points="1291.1598,-186.6379 1297.1568,-177.9037 1287.022,-180.9918 1291.1598,-186.6379"/>
</g>
<!-- libvorbis -->
<g id="node27" class="node">
<title>libvorbis</title>
<ellipse fill="#fde725" stroke="#000000" cx="1325.5952" cy="-234" rx="54.6905" ry="18"/>
<text text-anchor="middle" x="1325.5952" y="-230.3" font-family="Times,serif" font-size="14.00" fill="#000000">libvorbis</text>
</g>
<!-- libogg&#45;&gt;libvorbis -->
<g id="edge31" class="edge">
<title>libogg&#45;&gt;libvorbis</title>
<path fill="none" stroke="#000000" d="M1325.5952,-287.8314C1325.5952,-280.131 1325.5952,-270.9743 1325.5952,-262.4166"/>
<polygon fill="#000000" stroke="#000000" points="1329.0953,-262.4132 1325.5952,-252.4133 1322.0953,-262.4133 1329.0953,-262.4132"/>
</g>
<!-- libflac -->
<g id="node28" class="node">
<title>libflac</title>
<ellipse fill="#fde725" stroke="#000000" cx="1442.5952" cy="-234" rx="44.6926" ry="18"/>
<text text-anchor="middle" x="1442.5952" y="-230.3" font-family="Times,serif" font-size="14.00" fill="#000000">libflac</text>
</g>
<!-- libogg&#45;&gt;libflac -->
<g id="edge29" class="edge">
<title>libogg&#45;&gt;libflac</title>
<path fill="none" stroke="#000000" d="M1349.2719,-291.4297C1366.4497,-280.8587 1389.926,-266.4118 1409.0345,-254.6527"/>
<polygon fill="#000000" stroke="#000000" points="1411.06,-257.516 1417.7422,-249.2941 1407.3913,-251.5543 1411.06,-257.516"/>
</g>
<!-- libvorbis&#45;&gt;libsndfile -->
<g id="edge32" class="edge">
<title>libvorbis&#45;&gt;libsndfile</title>
<path fill="none" stroke="#000000" d="M1325.5952,-215.8314C1325.5952,-208.131 1325.5952,-198.9743 1325.5952,-190.4166"/>
<polygon fill="#000000" stroke="#000000" points="1329.0953,-190.4132 1325.5952,-180.4133 1322.0953,-190.4133 1329.0953,-190.4132"/>
</g>
<!-- libflac&#45;&gt;libsndfile -->
<g id="edge33" class="edge">
<title>libflac&#45;&gt;libsndfile</title>
<path fill="none" stroke="#000000" d="M1418.0681,-218.9064C1401.4836,-208.7006 1379.3244,-195.0642 1360.8555,-183.6987"/>
<polygon fill="#000000" stroke="#000000" points="1362.4769,-180.5869 1352.126,-178.3267 1358.8082,-186.5485 1362.4769,-180.5869"/>
</g>
<!-- nspr -->
<g id="node30" class="node">
<title>nspr</title>
<ellipse fill="#31688e" stroke="#000000" cx="1087.5952" cy="-306" rx="30.5947" ry="18"/>
<text text-anchor="middle" x="1087.5952" y="-302.3" font-family="Times,serif" font-size="14.00" fill="#ffffff">nspr</text>
</g>
<!-- nspr&#45;&gt;qt -->
<g id="edge35" class="edge">
<title>nspr&#45;&gt;qt</title>
<path fill="none" stroke="#000000" d="M1081.8622,-288.0535C1073.9686,-263.3431 1059.6806,-218.6152 1050.4193,-189.6234"/>
<polygon fill="#000000" stroke="#000000" points="1053.6329,-188.1811 1047.2558,-179.7204 1046.9648,-190.3112 1053.6329,-188.1811"/>
</g>
<!-- nss -->
<g id="node31" class="node">
<title>nss</title>
<ellipse fill="#fde725" stroke="#000000" cx="1115.5952" cy="-234" rx="27" ry="18"/>
<text text-anchor="middle" x="1115.5952" y="-230.3" font-family="Times,serif" font-size="14.00" fill="#000000">nss</text>
</g>
<!-- nspr&#45;&gt;nss -->
<g id="edge34" class="edge">
<title>nspr&#45;&gt;nss</title>
<path fill="none" stroke="#000000" d="M1094.5165,-288.2022C1097.7038,-280.0064 1101.5553,-270.1024 1105.0895,-261.0145"/>
<polygon fill="#000000" stroke="#000000" points="1108.3909,-262.1817 1108.7534,-251.593 1101.8669,-259.6445 1108.3909,-262.1817"/>
</g>
<!-- nss&#45;&gt;qt -->
<g id="edge36" class="edge">
<title>nss&#45;&gt;qt</title>
<path fill="none" stroke="#000000" d="M1100.2623,-219.0816C1089.8442,-208.945 1075.8874,-195.3654 1064.2005,-183.9944"/>
<polygon fill="#000000" stroke="#000000" points="1066.5164,-181.3644 1056.9084,-176.8993 1061.6349,-186.3815 1066.5164,-181.3644"/>
</g>
<!-- osqp -->
<g id="node32" class="node">
<title>osqp</title>
<ellipse fill="#31688e" stroke="#000000" cx="304.5952" cy="-234" rx="30.5947" ry="18"/>
<text text-anchor="middle" x="304.5952" y="-230.3" font-family="Times,serif" font-size="14.00" fill="#ffffff">osqp</text>
</g>
<!-- osqp&#45;&gt;cvxpy -->
<g id="edge37" class="edge">
<title>osqp&#45;&gt;cvxpy</title>
<path fill="none" stroke="#000000" d="M314.278,-216.5708C318.9601,-208.1431 324.681,-197.8455 329.8866,-188.4755"/>
<polygon fill="#000000" stroke="#000000" points="333.0659,-189.9596 334.8628,-179.5182 326.9468,-186.5601 333.0659,-189.9596"/>
</g>
<!-- ecos -->
<g id="node33" class="node">
<title>ecos</title>
<ellipse fill="#31688e" stroke="#000000" cx="383.5952" cy="-234" rx="30.5947" ry="18"/>
<text text-anchor="middle" x="383.5952" y="-230.3" font-family="Times,serif" font-size="14.00" fill="#ffffff">ecos</text>
</g>
<!-- ecos&#45;&gt;cvxpy -->
<g id="edge38" class="edge">
<title>ecos&#45;&gt;cvxpy</title>
<path fill="none" stroke="#000000" d="M374.1543,-216.5708C369.5893,-208.1431 364.0115,-197.8455 358.936,-188.4755"/>
<polygon fill="#000000" stroke="#000000" points="361.9246,-186.6442 354.0842,-179.5182 355.7696,-189.9782 361.9246,-186.6442"/>
</g>
<!-- scs -->
<g id="node34" class="node">
<title>scs</title>
<ellipse fill="#31688e" stroke="#000000" cx="459.5952" cy="-234" rx="27" ry="18"/>
<text text-anchor="middle" x="459.5952" y="-230.3" font-family="Times,serif" font-size="14.00" fill="#ffffff">scs</text>
</g>
<!-- scs&#45;&gt;cvxpy -->
<g id="edge39" class="edge">
<title>scs&#45;&gt;cvxpy</title>
<path fill="none" stroke="#000000" d="M439.826,-221.6228C422.1486,-210.5552 395.9531,-194.1545 375.5081,-181.3542"/>
<polygon fill="#000000" stroke="#000000" points="377.1888,-178.2771 366.8556,-175.937 373.4742,-184.2102 377.1888,-178.2771"/>
</g>
<!-- bcrypt -->
<g id="node36" class="node">
<title>bcrypt</title>
<ellipse fill="#31688e" stroke="#000000" cx="2252.5952" cy="-306" rx="40.0939" ry="18"/>
<text text-anchor="middle" x="2252.5952" y="-302.3" font-family="Times,serif" font-size="14.00" fill="#ffffff">bcrypt</text>
</g>
<!-- 7za -->
<g id="node37" class="node">
<title>7za</title>
<ellipse fill="#31688e" stroke="#000000" cx="1187.5952" cy="-234" rx="27" ry="18"/>
<text text-anchor="middle" x="1187.5952" y="-230.3" font-family="Times,serif" font-size="14.00" fill="#ffffff">7za</text>
</g>
<!-- 7za&#45;&gt;qt -->
<g id="edge40" class="edge">
<title>7za&#45;&gt;qt</title>
<path fill="none" stroke="#000000" d="M1165.9059,-223.1234C1161.1913,-220.7681 1156.2286,-218.2956 1151.5952,-216 1125.0263,-202.8365 1094.7825,-188.0003 1072.7405,-177.2145"/>
<polygon fill="#000000" stroke="#000000" points="1074.0533,-173.9604 1063.5324,-172.7108 1070.9777,-180.2486 1074.0533,-173.9604"/>
</g>
<!-- gdbm -->
<g id="node38" class="node">
<title>gdbm</title>
<ellipse fill="#31688e" stroke="#000000" cx="2341.5952" cy="-306" rx="30.5947" ry="18"/>
<text text-anchor="middle" x="2341.5952" y="-302.3" font-family="Times,serif" font-size="14.00" fill="#ffffff">gdbm</text>
</g>
<!-- bwidget -->
<g id="node39" class="node">
<title>bwidget</title>
<ellipse fill="#31688e" stroke="#000000" cx="1448.5952" cy="-162" rx="44.6926" ry="18"/>
<text text-anchor="middle" x="1448.5952" y="-158.3" font-family="Times,serif" font-size="14.00" fill="#ffffff">bwidget</text>
</g>
<!-- bwidget&#45;&gt;r&#45;base -->
<g id="edge41" class="edge">
<title>bwidget&#45;&gt;r&#45;base</title>
<path fill="none" stroke="#000000" d="M1465.5263,-145.3008C1475.0163,-135.9408 1487.0119,-124.1095 1497.4701,-113.7945"/>
<polygon fill="#000000" stroke="#000000" points="1500.0939,-116.1227 1504.7558,-106.6087 1495.1784,-111.1389 1500.0939,-116.1227"/>
</g>
<!-- tktable -->
<g id="node40" class="node">
<title>tktable</title>
<ellipse fill="#31688e" stroke="#000000" cx="1751.5952" cy="-162" rx="44.6926" ry="18"/>
<text text-anchor="middle" x="1751.5952" y="-158.3" font-family="Times,serif" font-size="14.00" fill="#ffffff">tktable</text>
</g>
<!-- tktable&#45;&gt;r&#45;base -->
<g id="edge42" class="edge">
<title>tktable&#45;&gt;r&#45;base</title>
<path fill="none" stroke="#000000" d="M1717.4348,-150.2233C1711.1792,-148.1166 1704.6996,-145.9673 1698.5952,-144 1653.1749,-129.3626 1600.8747,-113.5318 1564.9689,-102.8201"/>
<polygon fill="#000000" stroke="#000000" points="1565.8788,-99.4392 1555.2958,-99.9399 1563.8811,-106.1481 1565.8788,-99.4392"/>
</g>
<!-- wget -->
<g id="node41" class="node">
<title>wget</title>
<ellipse fill="#35b779" stroke="#000000" cx="2420.5952" cy="-306" rx="30.5947" ry="18"/>
<text text-anchor="middle" x="2420.5952" y="-302.3" font-family="Times,serif" font-size="14.00" fill="#000000">wget</text>
</g>
<!-- autotools_clang_conda -->
<g id="node43" class="node">
<title>autotools_clang_conda</title>
<ellipse fill="#31688e" stroke="#000000" cx="2582.5952" cy="-306" rx="113.18" ry="18"/>
<text text-anchor="middle" x="2582.5952" y="-302.3" font-family="Times,serif" font-size="14.00" fill="#ffffff">autotools_clang_conda</text>
</g>
<!-- binutils_ -->
<g id="node44" class="node">
<title>binutils_</title>
<ellipse fill="#35b779" stroke="#000000" cx="2768.5952" cy="-306" rx="54.6905" ry="18"/>
<text text-anchor="middle" x="2768.5952" y="-302.3" font-family="Times,serif" font-size="14.00" fill="#000000">binutils_</text>
</g>
</g>
</svg>
