<?xml version="1.0" encoding="UTF-8" standalone="no"?>
<!DOCTYPE svg PUBLIC "-//W3C//DTD SVG 1.1//EN"
 "http://www.w3.org/Graphics/SVG/1.1/DTD/svg11.dtd">
<!-- Generated by graphviz version 2.40.1 (20161225.0304)
 -->
<!-- Title: %3 Pages: 1 -->
<svg width="2079pt" height="332pt"
 viewBox="0.00 0.00 2078.69 332.00" xmlns="http://www.w3.org/2000/svg" xmlns:xlink="http://www.w3.org/1999/xlink">
<g id="graph0" class="graph" transform="scale(1 1) rotate(0) translate(4 328)">
<title>%3</title>
<polygon fill="#ffffff" stroke="transparent" points="-4,4 -4,-328 2074.6886,-328 2074.6886,4 -4,4"/>
<!-- arrow&#45;cpp -->
<g id="node1" class="node">
<title>arrow&#45;cpp</title>
<ellipse fill="#31688e" stroke="#000000" cx="54.5952" cy="-306" rx="54.6905" ry="18"/>
<text text-anchor="middle" x="54.5952" y="-302.3" font-family="Times,serif" font-size="14.00" fill="#ffffff">arrow cpp</text>
</g>
<!-- pyarrow -->
<g id="node17" class="node">
<title>pyarrow</title>
<ellipse fill="#fde725" stroke="#000000" cx="54.5952" cy="-234" rx="44.6926" ry="18"/>
<text text-anchor="middle" x="54.5952" y="-230.3" font-family="Times,serif" font-size="14.00" fill="#000000">pyarrow</text>
</g>
<!-- arrow&#45;cpp&#45;&gt;pyarrow -->
<g id="edge1" class="edge">
<title>arrow&#45;cpp&#45;&gt;pyarrow</title>
<path fill="none" stroke="#000000" d="M54.5952,-287.8314C54.5952,-280.131 54.5952,-270.9743 54.5952,-262.4166"/>
<polygon fill="#000000" stroke="#000000" points="58.0953,-262.4132 54.5952,-252.4133 51.0953,-262.4133 58.0953,-262.4132"/>
</g>
<!-- glew -->
<g id="node2" class="node">
<title>glew</title>
<ellipse fill="#fde725" stroke="#000000" cx="309.5952" cy="-162" rx="30.5947" ry="18"/>
<text text-anchor="middle" x="309.5952" y="-158.3" font-family="Times,serif" font-size="14.00" fill="#000000">glew</text>
</g>
<!-- root -->
<g id="node32" class="node">
<title>root</title>
<ellipse fill="#fde725" stroke="#000000" cx="398.5952" cy="-90" rx="30.5947" ry="18"/>
<text text-anchor="middle" x="398.5952" y="-86.3" font-family="Times,serif" font-size="14.00" fill="#000000">root</text>
</g>
<!-- glew&#45;&gt;root -->
<g id="edge2" class="edge">
<title>glew&#45;&gt;root</title>
<path fill="none" stroke="#000000" d="M327.6056,-147.4297C340.4285,-137.0562 357.8652,-122.9501 372.2483,-111.3143"/>
<polygon fill="#000000" stroke="#000000" points="374.7328,-113.8063 380.306,-104.7957 370.3302,-108.3642 374.7328,-113.8063"/>
</g>
<!-- gmpy2 -->
<g id="node3" class="node">
<title>gmpy2</title>
<ellipse fill="#fde725" stroke="#000000" cx="1229.5952" cy="-90" rx="35.194" ry="18"/>
<text text-anchor="middle" x="1229.5952" y="-86.3" font-family="Times,serif" font-size="14.00" fill="#000000">gmpy2</text>
</g>
<!-- sympy -->
<g id="node21" class="node">
<title>sympy</title>
<ellipse fill="#fde725" stroke="#000000" cx="1229.5952" cy="-18" rx="35.194" ry="18"/>
<text text-anchor="middle" x="1229.5952" y="-14.3" font-family="Times,serif" font-size="14.00" fill="#000000">sympy</text>
</g>
<!-- gmpy2&#45;&gt;sympy -->
<g id="edge3" class="edge">
<title>gmpy2&#45;&gt;sympy</title>
<path fill="none" stroke="#000000" d="M1229.5952,-71.8314C1229.5952,-64.131 1229.5952,-54.9743 1229.5952,-46.4166"/>
<polygon fill="#000000" stroke="#000000" points="1233.0953,-46.4132 1229.5952,-36.4133 1226.0953,-46.4133 1233.0953,-46.4132"/>
</g>
<!-- gst&#45;plugins&#45;base -->
<g id="node4" class="node">
<title>gst&#45;plugins&#45;base</title>
<ellipse fill="#fde725" stroke="#000000" cx="518.5952" cy="-234" rx="89.0842" ry="18"/>
<text text-anchor="middle" x="518.5952" y="-230.3" font-family="Times,serif" font-size="14.00" fill="#000000">gst plugins base</text>
</g>
<!-- qt -->
<g id="node19" class="node">
<title>qt</title>
<ellipse fill="#fde725" stroke="#000000" cx="635.5952" cy="-162" rx="27" ry="18"/>
<text text-anchor="middle" x="635.5952" y="-158.3" font-family="Times,serif" font-size="14.00" fill="#000000">qt</text>
</g>
<!-- gst&#45;plugins&#45;base&#45;&gt;qt -->
<g id="edge4" class="edge">
<title>gst&#45;plugins&#45;base&#45;&gt;qt</title>
<path fill="none" stroke="#000000" d="M546.6196,-216.7542C564.8622,-205.528 588.5904,-190.926 606.9547,-179.6249"/>
<polygon fill="#000000" stroke="#000000" points="608.8093,-182.5933 615.4915,-174.3715 605.1405,-176.6317 608.8093,-182.5933"/>
</g>
<!-- gstreamer -->
<g id="node5" class="node">
<title>gstreamer</title>
<ellipse fill="#31688e" stroke="#000000" cx="544.5952" cy="-306" rx="54.6905" ry="18"/>
<text text-anchor="middle" x="544.5952" y="-302.3" font-family="Times,serif" font-size="14.00" fill="#ffffff">gstreamer</text>
</g>
<!-- gstreamer&#45;&gt;gst&#45;plugins&#45;base -->
<g id="edge5" class="edge">
<title>gstreamer&#45;&gt;gst&#45;plugins&#45;base</title>
<path fill="none" stroke="#000000" d="M538.0343,-287.8314C535.1924,-279.9617 531.8014,-270.5712 528.6533,-261.8533"/>
<polygon fill="#000000" stroke="#000000" points="531.9328,-260.63 525.2444,-252.4133 525.349,-263.0076 531.9328,-260.63"/>
</g>
<!-- gstreamer&#45;&gt;qt -->
<g id="edge6" class="edge">
<title>gstreamer&#45;&gt;qt</title>
<path fill="none" stroke="#000000" d="M573.9731,-290.7646C588.9596,-281.516 606.1777,-268.3361 616.5952,-252 628.3494,-233.5676 632.9657,-209.1129 634.7168,-190.3473"/>
<polygon fill="#000000" stroke="#000000" points="638.212,-190.5382 635.4357,-180.3136 631.2299,-190.0378 638.212,-190.5382"/>
</g>
<!-- ipyparallel -->
<g id="node6" class="node">
<title>ipyparallel</title>
<ellipse fill="#31688e" stroke="#000000" cx="196.5952" cy="-162" rx="64.189" ry="18"/>
<text text-anchor="middle" x="196.5952" y="-158.3" font-family="Times,serif" font-size="14.00" fill="#ffffff">ipyparallel</text>
</g>
<!-- ipyparallel&#45;&gt;root -->
<g id="edge7" class="edge">
<title>ipyparallel&#45;&gt;root</title>
<path fill="none" stroke="#000000" d="M236.5039,-147.7751C273.288,-134.6639 327.3892,-115.3803 362.8046,-102.757"/>
<polygon fill="#000000" stroke="#000000" points="364.0238,-106.0382 372.2682,-99.3839 361.6735,-99.4446 364.0238,-106.0382"/>
</g>
<!-- jupyter_client -->
<g id="node7" class="node">
<title>jupyter_client</title>
<ellipse fill="#31688e" stroke="#000000" cx="196.5952" cy="-234" rx="79.0865" ry="18"/>
<text text-anchor="middle" x="196.5952" y="-230.3" font-family="Times,serif" font-size="14.00" fill="#ffffff">jupyter_client</text>
</g>
<!-- jupyter_client&#45;&gt;ipyparallel -->
<g id="edge8" class="edge">
<title>jupyter_client&#45;&gt;ipyparallel</title>
<path fill="none" stroke="#000000" d="M196.5952,-215.8314C196.5952,-208.131 196.5952,-198.9743 196.5952,-190.4166"/>
<polygon fill="#000000" stroke="#000000" points="200.0953,-190.4132 196.5952,-180.4133 193.0953,-190.4133 200.0953,-190.4132"/>
</g>
<!-- libglu -->
<g id="node8" class="node">
<title>libglu</title>
<ellipse fill="#31688e" stroke="#000000" cx="371.5952" cy="-234" rx="40.0939" ry="18"/>
<text text-anchor="middle" x="371.5952" y="-230.3" font-family="Times,serif" font-size="14.00" fill="#ffffff">libglu</text>
</g>
<!-- libglu&#45;&gt;glew -->
<g id="edge10" class="edge">
<title>libglu&#45;&gt;glew</title>
<path fill="none" stroke="#000000" d="M356.902,-216.937C348.9905,-207.7494 339.0979,-196.2613 330.4073,-186.1689"/>
<polygon fill="#000000" stroke="#000000" points="332.9335,-183.7388 323.7561,-178.4449 327.6291,-188.3065 332.9335,-183.7388"/>
</g>
<!-- freeglut -->
<g id="node23" class="node">
<title>freeglut</title>
<ellipse fill="#fde725" stroke="#000000" cx="408.5952" cy="-162" rx="50.0912" ry="18"/>
<text text-anchor="middle" x="408.5952" y="-158.3" font-family="Times,serif" font-size="14.00" fill="#000000">freeglut</text>
</g>
<!-- libglu&#45;&gt;freeglut -->
<g id="edge9" class="edge">
<title>libglu&#45;&gt;freeglut</title>
<path fill="none" stroke="#000000" d="M380.7412,-216.2022C384.966,-207.981 390.0741,-198.041 394.7561,-188.9301"/>
<polygon fill="#000000" stroke="#000000" points="397.9683,-190.3366 399.4261,-179.8425 391.7423,-187.1371 397.9683,-190.3366"/>
</g>
<!-- libglu&#45;&gt;root -->
<g id="edge11" class="edge">
<title>libglu&#45;&gt;root</title>
<path fill="none" stroke="#000000" d="M401.1392,-221.39C426.4987,-209.8902 460.1134,-192.7927 467.5952,-180 475.6727,-166.1886 474.6032,-158.3836 467.5952,-144 459.9435,-128.2954 445.2708,-115.8137 431.4164,-106.8239"/>
<polygon fill="#000000" stroke="#000000" points="432.8773,-103.6165 422.5122,-101.4218 429.2463,-109.6012 432.8773,-103.6165"/>
</g>
<!-- libsndfile -->
<g id="node9" class="node">
<title>libsndfile</title>
<ellipse fill="#fde725" stroke="#000000" cx="891.5952" cy="-162" rx="59.5901" ry="18"/>
<text text-anchor="middle" x="891.5952" y="-158.3" font-family="Times,serif" font-size="14.00" fill="#000000">libsndfile</text>
</g>
<!-- r&#45;base -->
<g id="node20" class="node">
<title>r&#45;base</title>
<ellipse fill="#fde725" stroke="#000000" cx="964.5952" cy="-90" rx="40.0939" ry="18"/>
<text text-anchor="middle" x="964.5952" y="-86.3" font-family="Times,serif" font-size="14.00" fill="#000000">r base</text>
</g>
<!-- libsndfile&#45;&gt;r&#45;base -->
<g id="edge12" class="edge">
<title>libsndfile&#45;&gt;r&#45;base</title>
<path fill="none" stroke="#000000" d="M909.2664,-144.5708C918.547,-135.4174 930.064,-124.0582 940.1834,-114.0773"/>
<polygon fill="#000000" stroke="#000000" points="942.9274,-116.287 947.5893,-106.7729 938.0118,-111.3032 942.9274,-116.287"/>
</g>
<!-- llvmlite -->
<g id="node10" class="node">
<title>llvmlite</title>
<ellipse fill="#31688e" stroke="#000000" cx="1347.5952" cy="-306" rx="50.0912" ry="18"/>
<text text-anchor="middle" x="1347.5952" y="-302.3" font-family="Times,serif" font-size="14.00" fill="#ffffff">llvmlite</text>
</g>
<!-- numba -->
<g id="node28" class="node">
<title>numba</title>
<ellipse fill="#fde725" stroke="#000000" cx="1347.5952" cy="-234" rx="35.194" ry="18"/>
<text text-anchor="middle" x="1347.5952" y="-230.3" font-family="Times,serif" font-size="14.00" fill="#000000">numba</text>
</g>
<!-- llvmlite&#45;&gt;numba -->
<g id="edge13" class="edge">
<title>llvmlite&#45;&gt;numba</title>
<path fill="none" stroke="#000000" d="M1347.5952,-287.8314C1347.5952,-280.131 1347.5952,-270.9743 1347.5952,-262.4166"/>
<polygon fill="#000000" stroke="#000000" points="1351.0953,-262.4132 1347.5952,-252.4133 1344.0953,-262.4133 1351.0953,-262.4132"/>
</g>
<!-- matplotlib -->
<g id="node11" class="node">
<title>matplotlib</title>
<ellipse fill="#fde725" stroke="#000000" cx="680.5952" cy="-18" rx="59.5901" ry="18"/>
<text text-anchor="middle" x="680.5952" y="-14.3" font-family="Times,serif" font-size="14.00" fill="#000000">matplotlib</text>
</g>
<!-- mpc -->
<g id="node12" class="node">
<title>mpc</title>
<ellipse fill="#fde725" stroke="#000000" cx="1229.5952" cy="-162" rx="27" ry="18"/>
<text text-anchor="middle" x="1229.5952" y="-158.3" font-family="Times,serif" font-size="14.00" fill="#000000">mpc</text>
</g>
<!-- mpc&#45;&gt;gmpy2 -->
<g id="edge14" class="edge">
<title>mpc&#45;&gt;gmpy2</title>
<path fill="none" stroke="#000000" d="M1229.5952,-143.8314C1229.5952,-136.131 1229.5952,-126.9743 1229.5952,-118.4166"/>
<polygon fill="#000000" stroke="#000000" points="1233.0953,-118.4132 1229.5952,-108.4133 1226.0953,-118.4133 1233.0953,-118.4132"/>
</g>
<!-- mpfr -->
<g id="node13" class="node">
<title>mpfr</title>
<ellipse fill="#fde725" stroke="#000000" cx="1172.5952" cy="-234" rx="30.5947" ry="18"/>
<text text-anchor="middle" x="1172.5952" y="-230.3" font-family="Times,serif" font-size="14.00" fill="#000000">mpfr</text>
</g>
<!-- mpfr&#45;&gt;gmpy2 -->
<g id="edge15" class="edge">
<title>mpfr&#45;&gt;gmpy2</title>
<path fill="none" stroke="#000000" d="M1174.8841,-215.8102C1177.6713,-197.1908 1183.3311,-167.7053 1193.5952,-144 1197.8931,-134.0739 1204.03,-123.9986 1210.0224,-115.2819"/>
<polygon fill="#000000" stroke="#000000" points="1212.9223,-117.2437 1215.8931,-107.0739 1207.2287,-113.1714 1212.9223,-117.2437"/>
</g>
<!-- mpfr&#45;&gt;mpc -->
<g id="edge16" class="edge">
<title>mpfr&#45;&gt;mpc</title>
<path fill="none" stroke="#000000" d="M1185.5293,-217.6621C1192.89,-208.3644 1202.249,-196.5426 1210.4469,-186.1873"/>
<polygon fill="#000000" stroke="#000000" points="1213.2493,-188.2862 1216.7122,-178.2733 1207.7609,-183.9413 1213.2493,-188.2862"/>
</g>
<!-- mpfr&#45;&gt;r&#45;base -->
<g id="edge17" class="edge">
<title>mpfr&#45;&gt;r&#45;base</title>
<path fill="none" stroke="#000000" d="M1166.0407,-216.2709C1157.7171,-196.0714 1141.5012,-163.3623 1117.5952,-144 1087.3751,-119.5237 1045.2521,-105.742 1012.8535,-98.2385"/>
<polygon fill="#000000" stroke="#000000" points="1013.2207,-94.7361 1002.7036,-96.0173 1011.7241,-101.5742 1013.2207,-94.7361"/>
</g>
<!-- texlive&#45;core -->
<g id="node22" class="node">
<title>texlive&#45;core</title>
<ellipse fill="#fde725" stroke="#000000" cx="1038.5952" cy="-162" rx="69.5877" ry="18"/>
<text text-anchor="middle" x="1038.5952" y="-158.3" font-family="Times,serif" font-size="14.00" fill="#000000">texlive core</text>
</g>
<!-- mpfr&#45;&gt;texlive&#45;core -->
<g id="edge18" class="edge">
<title>mpfr&#45;&gt;texlive&#45;core</title>
<path fill="none" stroke="#000000" d="M1149.8639,-221.7862C1130.22,-211.2312 1101.3864,-195.7386 1077.9933,-183.1691"/>
<polygon fill="#000000" stroke="#000000" points="1079.4648,-179.9866 1068.9992,-178.3365 1076.1515,-186.1528 1079.4648,-179.9866"/>
</g>
<!-- mpir -->
<g id="node14" class="node">
<title>mpir</title>
<ellipse fill="#31688e" stroke="#000000" cx="1231.5952" cy="-306" rx="30.5947" ry="18"/>
<text text-anchor="middle" x="1231.5952" y="-302.3" font-family="Times,serif" font-size="14.00" fill="#ffffff">mpir</text>
</g>
<!-- mpir&#45;&gt;gmpy2 -->
<g id="edge19" class="edge">
<title>mpir&#45;&gt;gmpy2</title>
<path fill="none" stroke="#000000" d="M1240.8314,-288.7269C1255.5761,-258.838 1281.2513,-195.7088 1265.5952,-144 1262.4607,-133.6475 1256.6145,-123.4656 1250.5313,-114.7822"/>
<polygon fill="#000000" stroke="#000000" points="1253.2465,-112.5685 1244.4607,-106.6475 1247.6365,-116.7551 1253.2465,-112.5685"/>
</g>
<!-- mpir&#45;&gt;mpc -->
<g id="edge20" class="edge">
<title>mpir&#45;&gt;mpc</title>
<path fill="none" stroke="#000000" d="M1231.3419,-287.7623C1231.0007,-263.201 1230.3903,-219.2474 1229.989,-190.3541"/>
<polygon fill="#000000" stroke="#000000" points="1233.485,-190.04 1229.8464,-180.0896 1226.4857,-190.1373 1233.485,-190.04"/>
</g>
<!-- mpir&#45;&gt;mpfr -->
<g id="edge21" class="edge">
<title>mpir&#45;&gt;mpfr</title>
<path fill="none" stroke="#000000" d="M1218.2071,-289.6621C1210.5882,-280.3644 1200.9009,-268.5426 1192.4153,-258.1873"/>
<polygon fill="#000000" stroke="#000000" points="1194.9756,-255.7897 1185.9302,-250.2733 1189.5613,-260.2265 1194.9756,-255.7897"/>
</g>
<!-- multiprocess -->
<g id="node15" class="node">
<title>multiprocess</title>
<ellipse fill="#31688e" stroke="#000000" cx="1485.5952" cy="-306" rx="69.5877" ry="18"/>
<text text-anchor="middle" x="1485.5952" y="-302.3" font-family="Times,serif" font-size="14.00" fill="#ffffff">multiprocess</text>
</g>
<!-- cvxpy -->
<g id="node31" class="node">
<title>cvxpy</title>
<ellipse fill="#fde725" stroke="#000000" cx="1485.5952" cy="-234" rx="35.194" ry="18"/>
<text text-anchor="middle" x="1485.5952" y="-230.3" font-family="Times,serif" font-size="14.00" fill="#000000">cvxpy</text>
</g>
<!-- multiprocess&#45;&gt;cvxpy -->
<g id="edge22" class="edge">
<title>multiprocess&#45;&gt;cvxpy</title>
<path fill="none" stroke="#000000" d="M1485.5952,-287.8314C1485.5952,-280.131 1485.5952,-270.9743 1485.5952,-262.4166"/>
<polygon fill="#000000" stroke="#000000" points="1489.0953,-262.4132 1485.5952,-252.4133 1482.0953,-262.4133 1489.0953,-262.4132"/>
</g>
<!-- opencv -->
<g id="node16" class="node">
<title>opencv</title>
<ellipse fill="#fde725" stroke="#000000" cx="591.5952" cy="-90" rx="40.0939" ry="18"/>
<text text-anchor="middle" x="591.5952" y="-86.3" font-family="Times,serif" font-size="14.00" fill="#000000">opencv</text>
</g>
<!-- pyqt -->
<g id="node18" class="node">
<title>pyqt</title>
<ellipse fill="#fde725" stroke="#000000" cx="680.5952" cy="-90" rx="30.5947" ry="18"/>
<text text-anchor="middle" x="680.5952" y="-86.3" font-family="Times,serif" font-size="14.00" fill="#000000">pyqt</text>
</g>
<!-- pyqt&#45;&gt;matplotlib -->
<g id="edge23" class="edge">
<title>pyqt&#45;&gt;matplotlib</title>
<path fill="none" stroke="#000000" d="M680.5952,-71.8314C680.5952,-64.131 680.5952,-54.9743 680.5952,-46.4166"/>
<polygon fill="#000000" stroke="#000000" points="684.0953,-46.4132 680.5952,-36.4133 677.0953,-46.4133 684.0953,-46.4132"/>
</g>
<!-- qt&#45;&gt;opencv -->
<g id="edge24" class="edge">
<title>qt&#45;&gt;opencv</title>
<path fill="none" stroke="#000000" d="M625.3901,-145.3008C620.1033,-136.6496 613.5263,-125.8873 607.5832,-116.1623"/>
<polygon fill="#000000" stroke="#000000" points="610.5598,-114.3209 602.3588,-107.6132 604.5868,-117.9711 610.5598,-114.3209"/>
</g>
<!-- qt&#45;&gt;pyqt -->
<g id="edge25" class="edge">
<title>qt&#45;&gt;pyqt</title>
<path fill="none" stroke="#000000" d="M646.0322,-145.3008C651.5186,-136.5224 658.3637,-125.5703 664.5114,-115.7339"/>
<polygon fill="#000000" stroke="#000000" points="667.5702,-117.4436 669.9023,-107.1086 661.6342,-113.7336 667.5702,-117.4436"/>
</g>
<!-- qt&#45;&gt;root -->
<g id="edge26" class="edge">
<title>qt&#45;&gt;root</title>
<path fill="none" stroke="#000000" d="M610.6799,-154.4308C568.9615,-141.7569 484.7559,-116.1754 435.9322,-101.3429"/>
<polygon fill="#000000" stroke="#000000" points="436.6645,-97.9075 426.0789,-98.3495 434.6297,-104.6052 436.6645,-97.9075"/>
</g>
<!-- texlive&#45;core&#45;&gt;r&#45;base -->
<g id="edge27" class="edge">
<title>texlive&#45;core&#45;&gt;r&#45;base</title>
<path fill="none" stroke="#000000" d="M1020.6818,-144.5708C1011.113,-135.2607 999.199,-123.6686 988.8156,-113.5659"/>
<polygon fill="#000000" stroke="#000000" points="991.189,-110.9918 981.581,-106.5267 986.3075,-116.0089 991.189,-110.9918"/>
</g>
<!-- libogg -->
<g id="node24" class="node">
<title>libogg</title>
<ellipse fill="#31688e" stroke="#000000" cx="891.5952" cy="-306" rx="40.0939" ry="18"/>
<text text-anchor="middle" x="891.5952" y="-302.3" font-family="Times,serif" font-size="14.00" fill="#ffffff">libogg</text>
</g>
<!-- libogg&#45;&gt;libsndfile -->
<g id="edge29" class="edge">
<title>libogg&#45;&gt;libsndfile</title>
<path fill="none" stroke="#000000" d="M891.5952,-287.7623C891.5952,-263.201 891.5952,-219.2474 891.5952,-190.3541"/>
<polygon fill="#000000" stroke="#000000" points="895.0953,-190.0896 891.5952,-180.0896 888.0953,-190.0897 895.0953,-190.0896"/>
</g>
<!-- libvorbis -->
<g id="node25" class="node">
<title>libvorbis</title>
<ellipse fill="#fde725" stroke="#000000" cx="974.5952" cy="-234" rx="54.6905" ry="18"/>
<text text-anchor="middle" x="974.5952" y="-230.3" font-family="Times,serif" font-size="14.00" fill="#000000">libvorbis</text>
</g>
<!-- libogg&#45;&gt;libvorbis -->
<g id="edge30" class="edge">
<title>libogg&#45;&gt;libvorbis</title>
<path fill="none" stroke="#000000" d="M910.4291,-289.6621C921.3364,-280.2004 935.257,-268.1247 947.3427,-257.6407"/>
<polygon fill="#000000" stroke="#000000" points="949.7092,-260.2212 954.9697,-251.0245 945.1223,-254.9334 949.7092,-260.2212"/>
</g>
<!-- libflac -->
<g id="node26" class="node">
<title>libflac</title>
<ellipse fill="#fde725" stroke="#000000" cx="818.5952" cy="-234" rx="44.6926" ry="18"/>
<text text-anchor="middle" x="818.5952" y="-230.3" font-family="Times,serif" font-size="14.00" fill="#000000">libflac</text>
</g>
<!-- libogg&#45;&gt;libflac -->
<g id="edge28" class="edge">
<title>libogg&#45;&gt;libflac</title>
<path fill="none" stroke="#000000" d="M874.664,-289.3008C865.2418,-280.0077 853.3496,-268.2784 842.9445,-258.0158"/>
<polygon fill="#000000" stroke="#000000" points="845.2648,-255.3883 835.6874,-250.8581 840.3493,-260.3721 845.2648,-255.3883"/>
</g>
<!-- libvorbis&#45;&gt;libsndfile -->
<g id="edge31" class="edge">
<title>libvorbis&#45;&gt;libsndfile</title>
<path fill="none" stroke="#000000" d="M954.9253,-216.937C944.2531,-207.6792 930.8884,-196.0857 919.1903,-185.9379"/>
<polygon fill="#000000" stroke="#000000" points="921.2588,-183.099 911.4114,-179.19 916.6719,-188.3867 921.2588,-183.099"/>
</g>
<!-- libflac&#45;&gt;libsndfile -->
<g id="edge32" class="edge">
<title>libflac&#45;&gt;libsndfile</title>
<path fill="none" stroke="#000000" d="M835.5263,-217.3008C844.8129,-208.1414 856.499,-196.6154 866.7957,-186.4597"/>
<polygon fill="#000000" stroke="#000000" points="869.3318,-188.8744 873.9937,-179.3603 864.4162,-183.8906 869.3318,-188.8744"/>
</g>
<!-- openmp -->
<g id="node27" class="node">
<title>openmp</title>
<ellipse fill="#31688e" stroke="#000000" cx="773.5952" cy="-162" rx="40.0939" ry="18"/>
<text text-anchor="middle" x="773.5952" y="-158.3" font-family="Times,serif" font-size="14.00" fill="#ffffff">openmp</text>
</g>
<!-- openmp&#45;&gt;r&#45;base -->
<g id="edge33" class="edge">
<title>openmp&#45;&gt;r&#45;base</title>
<path fill="none" stroke="#000000" d="M804.7077,-150.2717C837.173,-138.0335 888.2209,-118.7903 923.8758,-105.3497"/>
<polygon fill="#000000" stroke="#000000" points="925.3733,-108.5257 933.4959,-101.7233 922.9041,-101.9756 925.3733,-108.5257"/>
</g>
<!-- nspr -->
<g id="node29" class="node">
<title>nspr</title>
<ellipse fill="#31688e" stroke="#000000" cx="700.5952" cy="-306" rx="30.5947" ry="18"/>
<text text-anchor="middle" x="700.5952" y="-302.3" font-family="Times,serif" font-size="14.00" fill="#ffffff">nspr</text>
</g>
<!-- nspr&#45;&gt;qt -->
<g id="edge35" class="edge">
<title>nspr&#45;&gt;qt</title>
<path fill="none" stroke="#000000" d="M692.6249,-288.3428C681.3557,-263.3773 660.6795,-217.5715 647.5619,-188.5109"/>
<polygon fill="#000000" stroke="#000000" points="650.7319,-187.0264 643.4276,-179.3519 644.3518,-189.9063 650.7319,-187.0264"/>
</g>
<!-- nss -->
<g id="node30" class="node">
<title>nss</title>
<ellipse fill="#fde725" stroke="#000000" cx="728.5952" cy="-234" rx="27" ry="18"/>
<text text-anchor="middle" x="728.5952" y="-230.3" font-family="Times,serif" font-size="14.00" fill="#000000">nss</text>
</g>
<!-- nspr&#45;&gt;nss -->
<g id="edge34" class="edge">
<title>nspr&#45;&gt;nss</title>
<path fill="none" stroke="#000000" d="M707.5165,-288.2022C710.7038,-280.0064 714.5553,-270.1024 718.0895,-261.0145"/>
<polygon fill="#000000" stroke="#000000" points="721.3909,-262.1817 721.7534,-251.593 714.8669,-259.6445 721.3909,-262.1817"/>
</g>
<!-- nss&#45;&gt;qt -->
<g id="edge36" class="edge">
<title>nss&#45;&gt;qt</title>
<path fill="none" stroke="#000000" d="M710.6638,-220.1177C696.7688,-209.3602 677.3171,-194.3009 661.6961,-182.2072"/>
<polygon fill="#000000" stroke="#000000" points="663.5213,-179.1939 653.4714,-175.8397 659.2361,-184.729 663.5213,-179.1939"/>
</g>
<!-- lief -->
<g id="node33" class="node">
<title>lief</title>
<ellipse fill="#31688e" stroke="#000000" cx="1603.5952" cy="-306" rx="30.5947" ry="18"/>
<text text-anchor="middle" x="1603.5952" y="-302.3" font-family="Times,serif" font-size="14.00" fill="#ffffff">lief</text>
</g>
<!-- tapi -->
<g id="node34" class="node">
<title>tapi</title>
<ellipse fill="#31688e" stroke="#000000" cx="1682.5952" cy="-306" rx="30.5947" ry="18"/>
<text text-anchor="middle" x="1682.5952" y="-302.3" font-family="Times,serif" font-size="14.00" fill="#ffffff">tapi</text>
</g>
<!-- cctools&#45;and&#45;ld64 -->
<g id="node35" class="node">
<title>cctools&#45;and&#45;ld64</title>
<ellipse fill="#fde725" stroke="#000000" cx="1682.5952" cy="-234" rx="89.0842" ry="18"/>
<text text-anchor="middle" x="1682.5952" y="-230.3" font-family="Times,serif" font-size="14.00" fill="#000000">cctools and ld64</text>
</g>
<!-- tapi&#45;&gt;cctools&#45;and&#45;ld64 -->
<g id="edge37" class="edge">
<title>tapi&#45;&gt;cctools&#45;and&#45;ld64</title>
<path fill="none" stroke="#000000" d="M1682.5952,-287.8314C1682.5952,-280.131 1682.5952,-270.9743 1682.5952,-262.4166"/>
<polygon fill="#000000" stroke="#000000" points="1686.0953,-262.4132 1682.5952,-252.4133 1679.0953,-262.4133 1686.0953,-262.4132"/>
</g>
<!-- ctng&#45;compiler&#45;activation -->
<g id="node36" class="node">
<title>ctng&#45;compiler&#45;activation</title>
<ellipse fill="#fde725" stroke="#000000" cx="1932.5952" cy="-162" rx="128.0773" ry="18"/>
<text text-anchor="middle" x="1932.5952" y="-158.3" font-family="Times,serif" font-size="14.00" fill="#000000">ctng compiler activation</text>
</g>
<!-- crosstool&#45;ng -->
<g id="node37" class="node">
<title>crosstool&#45;ng</title>
<ellipse fill="#31688e" stroke="#000000" cx="1834.5952" cy="-306" rx="69.5877" ry="18"/>
<text text-anchor="middle" x="1834.5952" y="-302.3" font-family="Times,serif" font-size="14.00" fill="#ffffff">crosstool ng</text>
</g>
<!-- ctng&#45;compilers -->
<g id="node38" class="node">
<title>ctng&#45;compilers</title>
<ellipse fill="#fde725" stroke="#000000" cx="1932.5952" cy="-234" rx="79.0865" ry="18"/>
<text text-anchor="middle" x="1932.5952" y="-230.3" font-family="Times,serif" font-size="14.00" fill="#000000">ctng compilers</text>
</g>
<!-- crosstool&#45;ng&#45;&gt;ctng&#45;compilers -->
<g id="edge38" class="edge">
<title>crosstool&#45;ng&#45;&gt;ctng&#45;compilers</title>
<path fill="none" stroke="#000000" d="M1857.8198,-288.937C1870.5693,-279.57 1886.5733,-267.8119 1900.5007,-257.5796"/>
<polygon fill="#000000" stroke="#000000" points="1902.8699,-260.1821 1908.8565,-251.4407 1898.7253,-254.5409 1902.8699,-260.1821"/>
</g>
<!-- ctng&#45;compilers&#45;&gt;ctng&#45;compiler&#45;activation -->
<g id="edge39" class="edge">
<title>ctng&#45;compilers&#45;&gt;ctng&#45;compiler&#45;activation</title>
<path fill="none" stroke="#000000" d="M1932.5952,-215.8314C1932.5952,-208.131 1932.5952,-198.9743 1932.5952,-190.4166"/>
<polygon fill="#000000" stroke="#000000" points="1936.0953,-190.4132 1932.5952,-180.4133 1929.0953,-190.4133 1936.0953,-190.4132"/>
</g>
<!-- _libgcc_mutex -->
<g id="node39" class="node">
<title>_libgcc_mutex</title>
<ellipse fill="#35b779" stroke="#000000" cx="1996.5952" cy="-306" rx="74.187" ry="18"/>
<text text-anchor="middle" x="1996.5952" y="-302.3" font-family="Times,serif" font-size="14.00" fill="#000000">_libgcc_mutex</text>
</g>
<!-- _libgcc_mutex&#45;&gt;ctng&#45;compilers -->
<g id="edge40" class="edge">
<title>_libgcc_mutex&#45;&gt;ctng&#45;compilers</title>
<path fill="none" stroke="#000000" d="M1980.7749,-288.2022C1973.0825,-279.5483 1963.6973,-268.99 1955.2608,-259.4988"/>
<polygon fill="#000000" stroke="#000000" points="1957.7148,-256.9914 1948.4552,-251.8425 1952.4829,-261.6419 1957.7148,-256.9914"/>
</g>
</g>
</svg>
