<?xml version="1.0" encoding="UTF-8" standalone="no"?>
<!DOCTYPE svg PUBLIC "-//W3C//DTD SVG 1.1//EN"
 "http://www.w3.org/Graphics/SVG/1.1/DTD/svg11.dtd">
<!-- Generated by graphviz version 2.42.3 (20191010.1750)
 -->
<!-- Title: %3 Pages: 1 -->
<svg width="411pt" height="188pt"
 viewBox="0.00 0.00 411.39 188.00" xmlns="http://www.w3.org/2000/svg" xmlns:xlink="http://www.w3.org/1999/xlink">
<g id="graph0" class="graph" transform="scale(1 1) rotate(0) translate(4 184)">
<title>%3</title>
<polygon fill="white" stroke="transparent" points="-4,4 -4,-184 407.39,-184 407.39,4 -4,4"/>
<!-- julia -->
<g id="node1" class="node">
<title>julia</title>
<g id="a_node1"><a xlink:href="https://github.com/conda-forge/julia-feedstock/pull/84" xlink:title="julia">
<ellipse fill="#31688e" stroke="black" cx="35.1" cy="-90" rx="35.19" ry="18"/>
<text text-anchor="middle" x="35.1" y="-86.3" font-family="Times,serif" font-size="14.00" fill="white">julia</text>
</a>
</g>
</g>
<!-- conda&#45;forge&#45;pinning -->
<g id="node6" class="node">
<title>conda&#45;forge&#45;pinning</title>
<ellipse fill="none" stroke="black" cx="227.1" cy="-18" rx="103.18" ry="18"/>
<text text-anchor="middle" x="227.1" y="-14.3" font-family="Times,serif" font-size="14.00">conda&#45;forge&#45;pinning</text>
</g>
<!-- julia&#45;&gt;conda&#45;forge&#45;pinning -->
<g id="edge1" class="edge">
<title>julia&#45;&gt;conda&#45;forge&#45;pinning</title>
<path fill="none" stroke="black" d="M62.05,-78.47C67.67,-76.3 73.57,-74.06 79.1,-72 110.33,-60.38 145.44,-47.78 173.62,-37.79"/>
<polygon fill="black" stroke="black" points="175.02,-41.01 183.28,-34.37 172.69,-34.41 175.02,-41.01"/>
</g>
<!-- octave -->
<g id="node2" class="node">
<title>octave</title>
<g id="a_node2"><a xlink:href="https://github.com/conda-forge/octave-feedstock/pull/40" xlink:title="octave">
<ellipse fill="#31688e" stroke="black" cx="128.1" cy="-90" rx="40.09" ry="18"/>
<text text-anchor="middle" x="128.1" y="-86.3" font-family="Times,serif" font-size="14.00" fill="white">octave</text>
</a>
</g>
</g>
<!-- octave&#45;&gt;conda&#45;forge&#45;pinning -->
<g id="edge2" class="edge">
<title>octave&#45;&gt;conda&#45;forge&#45;pinning</title>
<path fill="none" stroke="black" d="M148.61,-74.5C162.09,-64.97 179.99,-52.31 195.29,-41.49"/>
<polygon fill="black" stroke="black" points="197.34,-44.33 203.48,-35.7 193.29,-38.61 197.34,-44.33"/>
</g>
<!-- shogun -->
<g id="node3" class="node">
<title>shogun</title>
<g id="a_node3"><a xlink:href="https://github.com/conda-forge/shogun-feedstock" xlink:title="shogun">
<ellipse fill="#fde725" stroke="black" cx="227.1" cy="-90" rx="40.09" ry="18"/>
<text text-anchor="middle" x="227.1" y="-86.3" font-family="Times,serif" font-size="14.00">shogun</text>
</a>
</g>
</g>
<!-- shogun&#45;&gt;conda&#45;forge&#45;pinning -->
<g id="edge3" class="edge">
<title>shogun&#45;&gt;conda&#45;forge&#45;pinning</title>
<path fill="none" stroke="black" d="M227.1,-71.7C227.1,-63.98 227.1,-54.71 227.1,-46.11"/>
<polygon fill="black" stroke="black" points="230.6,-46.1 227.1,-36.1 223.6,-46.1 230.6,-46.1"/>
</g>
<!-- shogun&#45;cpp -->
<g id="node4" class="node">
<title>shogun&#45;cpp</title>
<g id="a_node4"><a xlink:href="https://github.com/conda-forge/shogun-cpp-feedstock/pull/36" xlink:title="shogun cpp">
<ellipse fill="#31688e" stroke="black" cx="261.1" cy="-162" rx="59.59" ry="18"/>
<text text-anchor="middle" x="261.1" y="-158.3" font-family="Times,serif" font-size="14.00" fill="white">shogun cpp</text>
</a>
</g>
</g>
<!-- shogun&#45;cpp&#45;&gt;shogun -->
<g id="edge4" class="edge">
<title>shogun&#45;cpp&#45;&gt;shogun</title>
<path fill="none" stroke="black" d="M252.87,-144.05C248.9,-135.89 244.05,-125.91 239.64,-116.82"/>
<polygon fill="black" stroke="black" points="242.77,-115.25 235.25,-107.79 236.47,-118.31 242.77,-115.25"/>
</g>
<!-- shogun&#45;cpp&#45;&gt;conda&#45;forge&#45;pinning -->
<g id="edge5" class="edge">
<title>shogun&#45;cpp&#45;&gt;conda&#45;forge&#45;pinning</title>
<path fill="none" stroke="black" d="M269.15,-144.05C276.67,-125.73 285.46,-95.93 276.1,-72 271.83,-61.1 264.15,-51.1 256.12,-42.79"/>
<polygon fill="black" stroke="black" points="258.36,-40.09 248.74,-35.66 253.5,-45.12 258.36,-40.09"/>
</g>
<!-- scilab -->
<g id="node5" class="node">
<title>scilab</title>
<g id="a_node5"><a xlink:href="https://github.com/conda-forge/scilab-feedstock/pull/13" xlink:title="scilab">
<ellipse fill="#31688e" stroke="black" cx="363.1" cy="-90" rx="40.09" ry="18"/>
<text text-anchor="middle" x="363.1" y="-86.3" font-family="Times,serif" font-size="14.00" fill="white">scilab</text>
</a>
</g>
</g>
<!-- scilab&#45;&gt;conda&#45;forge&#45;pinning -->
<g id="edge6" class="edge">
<title>scilab&#45;&gt;conda&#45;forge&#45;pinning</title>
<path fill="none" stroke="black" d="M337.52,-75.83C317.9,-65.74 290.45,-51.61 267.83,-39.97"/>
<polygon fill="black" stroke="black" points="269.28,-36.78 258.79,-35.31 266.08,-43 269.28,-36.78"/>
</g>
</g>
</svg>
