<?xml version="1.0" encoding="UTF-8" standalone="no"?>
<!DOCTYPE svg PUBLIC "-//W3C//DTD SVG 1.1//EN"
 "http://www.w3.org/Graphics/SVG/1.1/DTD/svg11.dtd">
<!-- Generated by graphviz version 2.42.3 (20191010.1750)
 -->
<!-- Title: %3 Pages: 1 -->
<svg width="275pt" height="116pt"
 viewBox="0.00 0.00 275.39 116.00" xmlns="http://www.w3.org/2000/svg" xmlns:xlink="http://www.w3.org/1999/xlink">
<g id="graph0" class="graph" transform="scale(1 1) rotate(0) translate(4 112)">
<title>%3</title>
<polygon fill="white" stroke="transparent" points="-4,4 -4,-112 271.39,-112 271.39,4 -4,4"/>
<!-- julia -->
<g id="node1" class="node">
<title>julia</title>
<g id="a_node1"><a xlink:href="https://github.com/conda-forge/julia-feedstock/pull/84" xlink:title="julia">
<ellipse fill="#31688e" stroke="black" cx="35.1" cy="-90" rx="35.19" ry="18"/>
<text text-anchor="middle" x="35.1" y="-86.3" font-family="Times,serif" font-size="14.00" fill="white">julia</text>
</a>
</g>
</g>
<!-- conda&#45;forge&#45;pinning -->
<g id="node4" class="node">
<title>conda&#45;forge&#45;pinning</title>
<ellipse fill="none" stroke="black" cx="128.1" cy="-18" rx="103.18" ry="18"/>
<text text-anchor="middle" x="128.1" y="-14.3" font-family="Times,serif" font-size="14.00">conda&#45;forge&#45;pinning</text>
</g>
<!-- julia&#45;&gt;conda&#45;forge&#45;pinning -->
<g id="edge1" class="edge">
<title>julia&#45;&gt;conda&#45;forge&#45;pinning</title>
<path fill="none" stroke="black" d="M54.37,-74.5C66.91,-65.06 83.53,-52.54 97.82,-41.79"/>
<polygon fill="black" stroke="black" points="100.03,-44.51 105.91,-35.7 95.82,-38.92 100.03,-44.51"/>
</g>
<!-- shogun -->
<g id="node2" class="node">
<title>shogun</title>
<g id="a_node2"><a xlink:href="https://github.com/conda-forge/shogun-feedstock/pull/21" xlink:title="shogun">
<ellipse fill="#31688e" stroke="black" cx="128.1" cy="-90" rx="40.09" ry="18"/>
<text text-anchor="middle" x="128.1" y="-86.3" font-family="Times,serif" font-size="14.00" fill="white">shogun</text>
</a>
</g>
</g>
<!-- shogun&#45;&gt;conda&#45;forge&#45;pinning -->
<g id="edge2" class="edge">
<title>shogun&#45;&gt;conda&#45;forge&#45;pinning</title>
<path fill="none" stroke="black" d="M128.1,-71.7C128.1,-63.98 128.1,-54.71 128.1,-46.11"/>
<polygon fill="black" stroke="black" points="131.6,-46.1 128.1,-36.1 124.6,-46.1 131.6,-46.1"/>
</g>
<!-- scilab -->
<g id="node3" class="node">
<title>scilab</title>
<g id="a_node3"><a xlink:href="https://github.com/conda-forge/scilab-feedstock/pull/13" xlink:title="scilab">
<ellipse fill="#31688e" stroke="black" cx="227.1" cy="-90" rx="40.09" ry="18"/>
<text text-anchor="middle" x="227.1" y="-86.3" font-family="Times,serif" font-size="14.00" fill="white">scilab</text>
</a>
</g>
</g>
<!-- scilab&#45;&gt;conda&#45;forge&#45;pinning -->
<g id="edge3" class="edge">
<title>scilab&#45;&gt;conda&#45;forge&#45;pinning</title>
<path fill="none" stroke="black" d="M206.58,-74.5C193.11,-64.97 175.21,-52.31 159.9,-41.49"/>
<polygon fill="black" stroke="black" points="161.9,-38.61 151.71,-35.7 157.86,-44.33 161.9,-38.61"/>
</g>
</g>
</svg>
