<?xml version="1.0" encoding="UTF-8" standalone="no"?>
<!DOCTYPE svg PUBLIC "-//W3C//DTD SVG 1.1//EN"
 "http://www.w3.org/Graphics/SVG/1.1/DTD/svg11.dtd">
<!-- Generated by graphviz version 2.42.3 (20191010.1750)
 -->
<!-- Title: %3 Pages: 1 -->
<svg width="215pt" height="116pt"
 viewBox="0.00 0.00 214.68 116.00" xmlns="http://www.w3.org/2000/svg" xmlns:xlink="http://www.w3.org/1999/xlink">
<g id="graph0" class="graph" transform="scale(1 1) rotate(0) translate(4 112)">
<title>%3</title>
<polygon fill="white" stroke="transparent" points="-4,4 -4,-112 210.68,-112 210.68,4 -4,4"/>
<!-- shogun -->
<g id="node1" class="node">
<title>shogun</title>
<g id="a_node1"><a xlink:href="https://github.com/conda-forge/shogun-feedstock" xlink:title="shogun">
<ellipse fill="#35b779" stroke="black" cx="54.34" cy="-90" rx="40.09" ry="18"/>
<text text-anchor="middle" x="54.34" y="-86.3" font-family="Times,serif" font-size="14.00">shogun</text>
</a>
</g>
</g>
<!-- conda&#45;forge&#45;pinning -->
<g id="node3" class="node">
<title>conda&#45;forge&#45;pinning</title>
<ellipse fill="none" stroke="black" cx="103.34" cy="-18" rx="103.18" ry="18"/>
<text text-anchor="middle" x="103.34" y="-14.3" font-family="Times,serif" font-size="14.00">conda&#45;forge&#45;pinning</text>
</g>
<!-- shogun&#45;&gt;conda&#45;forge&#45;pinning -->
<g id="edge1" class="edge">
<title>shogun&#45;&gt;conda&#45;forge&#45;pinning</title>
<path fill="none" stroke="black" d="M65.95,-72.41C71.85,-63.99 79.13,-53.58 85.7,-44.2"/>
<polygon fill="black" stroke="black" points="88.6,-46.16 91.47,-35.96 82.87,-42.14 88.6,-46.16"/>
</g>
<!-- scilab -->
<g id="node2" class="node">
<title>scilab</title>
<g id="a_node2"><a xlink:href="https://github.com/conda-forge/scilab-feedstock/pull/13" xlink:title="scilab">
<ellipse fill="#31688e" stroke="black" cx="153.34" cy="-90" rx="40.09" ry="18"/>
<text text-anchor="middle" x="153.34" y="-86.3" font-family="Times,serif" font-size="14.00" fill="white">scilab</text>
</a>
</g>
</g>
<!-- scilab&#45;&gt;conda&#45;forge&#45;pinning -->
<g id="edge2" class="edge">
<title>scilab&#45;&gt;conda&#45;forge&#45;pinning</title>
<path fill="none" stroke="black" d="M141.49,-72.41C135.48,-63.99 128.04,-53.58 121.34,-44.2"/>
<polygon fill="black" stroke="black" points="124.11,-42.06 115.45,-35.96 118.42,-46.13 124.11,-42.06"/>
</g>
</g>
</svg>
