<?xml version="1.0" encoding="UTF-8" standalone="no"?>
<!DOCTYPE svg PUBLIC "-//W3C//DTD SVG 1.1//EN"
 "http://www.w3.org/Graphics/SVG/1.1/DTD/svg11.dtd">
<!-- Generated by graphviz version 2.42.3 (20191010.1750)
 -->
<!-- Title: %3 Pages: 1 -->
<svg width="657pt" height="188pt"
 viewBox="0.00 0.00 656.89 188.00" xmlns="http://www.w3.org/2000/svg" xmlns:xlink="http://www.w3.org/1999/xlink">
<g id="graph0" class="graph" transform="scale(1 1) rotate(0) translate(4 184)">
<title>%3</title>
<polygon fill="white" stroke="transparent" points="-4,4 -4,-184 652.89,-184 652.89,4 -4,4"/>
<!-- armadillo -->
<g id="node1" class="node">
<title>armadillo</title>
<g id="a_node1"><a xlink:href="https://github.com/conda-forge/armadillo-feedstock/pull/21" xlink:title="armadillo">
<ellipse fill="#31688e" stroke="black" cx="54.6" cy="-90" rx="54.69" ry="18"/>
<text text-anchor="middle" x="54.6" y="-86.3" font-family="Times,serif" font-size="14.00" fill="white">armadillo</text>
</a>
</g>
</g>
<!-- conda&#45;forge&#45;pinning -->
<g id="node8" class="node">
<title>conda&#45;forge&#45;pinning</title>
<ellipse fill="none" stroke="black" cx="354.6" cy="-18" rx="103.18" ry="18"/>
<text text-anchor="middle" x="354.6" y="-14.3" font-family="Times,serif" font-size="14.00">conda&#45;forge&#45;pinning</text>
</g>
<!-- armadillo&#45;&gt;conda&#45;forge&#45;pinning -->
<g id="edge1" class="edge">
<title>armadillo&#45;&gt;conda&#45;forge&#45;pinning</title>
<path fill="none" stroke="black" d="M95.51,-77.88C103.16,-75.87 111.11,-73.83 118.6,-72 173.12,-58.64 235.06,-44.78 281.8,-34.59"/>
<polygon fill="black" stroke="black" points="282.81,-37.95 291.83,-32.4 281.32,-31.11 282.81,-37.95"/>
</g>
<!-- julia -->
<g id="node2" class="node">
<title>julia</title>
<g id="a_node2"><a xlink:href="https://github.com/conda-forge/julia-feedstock/pull/84" xlink:title="julia">
<ellipse fill="#31688e" stroke="black" cx="162.6" cy="-90" rx="35.19" ry="18"/>
<text text-anchor="middle" x="162.6" y="-86.3" font-family="Times,serif" font-size="14.00" fill="white">julia</text>
</a>
</g>
</g>
<!-- julia&#45;&gt;conda&#45;forge&#45;pinning -->
<g id="edge2" class="edge">
<title>julia&#45;&gt;conda&#45;forge&#45;pinning</title>
<path fill="none" stroke="black" d="M189.55,-78.47C195.17,-76.3 201.07,-74.06 206.6,-72 237.83,-60.38 272.94,-47.78 301.12,-37.79"/>
<polygon fill="black" stroke="black" points="302.52,-41.01 310.78,-34.37 300.18,-34.41 302.52,-41.01"/>
</g>
<!-- octave -->
<g id="node3" class="node">
<title>octave</title>
<g id="a_node3"><a xlink:href="https://github.com/conda-forge/octave-feedstock" xlink:title="octave">
<ellipse fill="#35b779" stroke="black" cx="255.6" cy="-90" rx="40.09" ry="18"/>
<text text-anchor="middle" x="255.6" y="-86.3" font-family="Times,serif" font-size="14.00">octave</text>
</a>
</g>
</g>
<!-- octave&#45;&gt;conda&#45;forge&#45;pinning -->
<g id="edge3" class="edge">
<title>octave&#45;&gt;conda&#45;forge&#45;pinning</title>
<path fill="none" stroke="black" d="M276.11,-74.5C289.58,-64.97 307.49,-52.31 322.79,-41.49"/>
<polygon fill="black" stroke="black" points="324.83,-44.33 330.98,-35.7 320.79,-38.61 324.83,-44.33"/>
</g>
<!-- shogun -->
<g id="node4" class="node">
<title>shogun</title>
<g id="a_node4"><a xlink:href="https://github.com/conda-forge/shogun-feedstock" xlink:title="shogun">
<ellipse fill="#fde725" stroke="black" cx="354.6" cy="-90" rx="40.09" ry="18"/>
<text text-anchor="middle" x="354.6" y="-86.3" font-family="Times,serif" font-size="14.00">shogun</text>
</a>
</g>
</g>
<!-- shogun&#45;&gt;conda&#45;forge&#45;pinning -->
<g id="edge4" class="edge">
<title>shogun&#45;&gt;conda&#45;forge&#45;pinning</title>
<path fill="none" stroke="black" d="M354.6,-71.7C354.6,-63.98 354.6,-54.71 354.6,-46.11"/>
<polygon fill="black" stroke="black" points="358.1,-46.1 354.6,-36.1 351.1,-46.1 358.1,-46.1"/>
</g>
<!-- shogun&#45;cpp -->
<g id="node5" class="node">
<title>shogun&#45;cpp</title>
<g id="a_node5"><a xlink:href="https://github.com/conda-forge/shogun-cpp-feedstock" xlink:title="shogun cpp">
<ellipse fill="#35b779" stroke="black" cx="388.6" cy="-162" rx="59.59" ry="18"/>
<text text-anchor="middle" x="388.6" y="-158.3" font-family="Times,serif" font-size="14.00">shogun cpp</text>
</a>
</g>
</g>
<!-- shogun&#45;cpp&#45;&gt;shogun -->
<g id="edge5" class="edge">
<title>shogun&#45;cpp&#45;&gt;shogun</title>
<path fill="none" stroke="black" d="M380.36,-144.05C376.4,-135.89 371.55,-125.91 367.14,-116.82"/>
<polygon fill="black" stroke="black" points="370.27,-115.25 362.75,-107.79 363.97,-118.31 370.27,-115.25"/>
</g>
<!-- shogun&#45;cpp&#45;&gt;conda&#45;forge&#45;pinning -->
<g id="edge6" class="edge">
<title>shogun&#45;cpp&#45;&gt;conda&#45;forge&#45;pinning</title>
<path fill="none" stroke="black" d="M396.64,-144.05C404.17,-125.73 412.96,-95.93 403.6,-72 399.33,-61.1 391.65,-51.1 383.62,-42.79"/>
<polygon fill="black" stroke="black" points="385.86,-40.09 376.24,-35.66 381,-45.12 385.86,-40.09"/>
</g>
<!-- calculix -->
<g id="node6" class="node">
<title>calculix</title>
<g id="a_node6"><a xlink:href="https://github.com/conda-forge/calculix-feedstock" xlink:title="calculix">
<ellipse fill="#35b779" stroke="black" cx="500.6" cy="-90" rx="50.09" ry="18"/>
<text text-anchor="middle" x="500.6" y="-86.3" font-family="Times,serif" font-size="14.00">calculix</text>
</a>
</g>
</g>
<!-- calculix&#45;&gt;conda&#45;forge&#45;pinning -->
<g id="edge7" class="edge">
<title>calculix&#45;&gt;conda&#45;forge&#45;pinning</title>
<path fill="none" stroke="black" d="M471.75,-75.17C450.55,-65 421.39,-51.02 397.46,-39.55"/>
<polygon fill="black" stroke="black" points="398.77,-36.3 388.24,-35.13 395.74,-42.61 398.77,-36.3"/>
</g>
<!-- scilab -->
<g id="node7" class="node">
<title>scilab</title>
<g id="a_node7"><a xlink:href="https://github.com/conda-forge/scilab-feedstock" xlink:title="scilab">
<ellipse fill="#35b779" stroke="black" cx="608.6" cy="-90" rx="40.09" ry="18"/>
<text text-anchor="middle" x="608.6" y="-86.3" font-family="Times,serif" font-size="14.00">scilab</text>
</a>
</g>
</g>
<!-- scilab&#45;&gt;conda&#45;forge&#45;pinning -->
<g id="edge8" class="edge">
<title>scilab&#45;&gt;conda&#45;forge&#45;pinning</title>
<path fill="none" stroke="black" d="M578.14,-78.01C572.03,-75.92 565.63,-73.82 559.6,-72 514.5,-58.37 463.19,-45.11 423.18,-35.26"/>
<polygon fill="black" stroke="black" points="423.81,-31.81 413.26,-32.83 422.14,-38.61 423.81,-31.81"/>
</g>
</g>
</svg>
