<?xml version="1.0" encoding="UTF-8" standalone="no"?>
<!DOCTYPE svg PUBLIC "-//W3C//DTD SVG 1.1//EN"
 "http://www.w3.org/Graphics/SVG/1.1/DTD/svg11.dtd">
<!-- Generated by graphviz version 2.42.3 (20191010.1750)
 -->
<!-- Title: %3 Pages: 1 -->
<svg width="312pt" height="188pt"
 viewBox="0.00 0.00 312.39 188.00" xmlns="http://www.w3.org/2000/svg" xmlns:xlink="http://www.w3.org/1999/xlink">
<g id="graph0" class="graph" transform="scale(1 1) rotate(0) translate(4 184)">
<title>%3</title>
<polygon fill="white" stroke="transparent" points="-4,4 -4,-184 308.39,-184 308.39,4 -4,4"/>
<!-- julia -->
<g id="node1" class="node">
<title>julia</title>
<g id="a_node1"><a xlink:href="https://github.com/conda-forge/julia-feedstock/pull/84" xlink:title="julia">
<ellipse fill="#31688e" stroke="black" cx="35.1" cy="-90" rx="35.19" ry="18"/>
<text text-anchor="middle" x="35.1" y="-86.3" font-family="Times,serif" font-size="14.00" fill="white">julia</text>
</a>
</g>
</g>
<!-- conda&#45;forge&#45;pinning -->
<g id="node5" class="node">
<title>conda&#45;forge&#45;pinning</title>
<ellipse fill="none" stroke="black" cx="162.1" cy="-18" rx="103.18" ry="18"/>
<text text-anchor="middle" x="162.1" y="-14.3" font-family="Times,serif" font-size="14.00">conda&#45;forge&#45;pinning</text>
</g>
<!-- julia&#45;&gt;conda&#45;forge&#45;pinning -->
<g id="edge1" class="edge">
<title>julia&#45;&gt;conda&#45;forge&#45;pinning</title>
<path fill="none" stroke="black" d="M58.1,-76.32C76.36,-66.26 102.29,-51.96 123.69,-40.17"/>
<polygon fill="black" stroke="black" points="125.49,-43.18 132.55,-35.28 122.11,-37.05 125.49,-43.18"/>
</g>
<!-- shogun -->
<g id="node2" class="node">
<title>shogun</title>
<g id="a_node2"><a xlink:href="https://github.com/conda-forge/shogun-feedstock" xlink:title="shogun">
<ellipse fill="#fde725" stroke="black" cx="128.1" cy="-90" rx="40.09" ry="18"/>
<text text-anchor="middle" x="128.1" y="-86.3" font-family="Times,serif" font-size="14.00">shogun</text>
</a>
</g>
</g>
<!-- shogun&#45;&gt;conda&#45;forge&#45;pinning -->
<g id="edge2" class="edge">
<title>shogun&#45;&gt;conda&#45;forge&#45;pinning</title>
<path fill="none" stroke="black" d="M136.33,-72.05C140.2,-64.09 144.9,-54.41 149.22,-45.51"/>
<polygon fill="black" stroke="black" points="152.49,-46.8 153.71,-36.28 146.19,-43.74 152.49,-46.8"/>
</g>
<!-- shogun&#45;cpp -->
<g id="node3" class="node">
<title>shogun&#45;cpp</title>
<g id="a_node3"><a xlink:href="https://github.com/conda-forge/shogun-cpp-feedstock/pull/36" xlink:title="shogun cpp">
<ellipse fill="#31688e" stroke="black" cx="162.1" cy="-162" rx="59.59" ry="18"/>
<text text-anchor="middle" x="162.1" y="-158.3" font-family="Times,serif" font-size="14.00" fill="white">shogun cpp</text>
</a>
</g>
</g>
<!-- shogun&#45;cpp&#45;&gt;shogun -->
<g id="edge3" class="edge">
<title>shogun&#45;cpp&#45;&gt;shogun</title>
<path fill="none" stroke="black" d="M153.87,-144.05C149.9,-135.89 145.05,-125.91 140.64,-116.82"/>
<polygon fill="black" stroke="black" points="143.77,-115.25 136.25,-107.79 137.47,-118.31 143.77,-115.25"/>
</g>
<!-- shogun&#45;cpp&#45;&gt;conda&#45;forge&#45;pinning -->
<g id="edge4" class="edge">
<title>shogun&#45;cpp&#45;&gt;conda&#45;forge&#45;pinning</title>
<path fill="none" stroke="black" d="M168.18,-144.07C171.55,-133.79 175.39,-120.31 177.1,-108 179.3,-92.15 179.3,-87.85 177.1,-72 175.91,-63.48 173.71,-54.39 171.35,-46.2"/>
<polygon fill="black" stroke="black" points="174.62,-44.94 168.33,-36.41 167.93,-46.99 174.62,-44.94"/>
</g>
<!-- scilab -->
<g id="node4" class="node">
<title>scilab</title>
<g id="a_node4"><a xlink:href="https://github.com/conda-forge/scilab-feedstock/pull/13" xlink:title="scilab">
<ellipse fill="#31688e" stroke="black" cx="264.1" cy="-90" rx="40.09" ry="18"/>
<text text-anchor="middle" x="264.1" y="-86.3" font-family="Times,serif" font-size="14.00" fill="white">scilab</text>
</a>
</g>
</g>
<!-- scilab&#45;&gt;conda&#45;forge&#45;pinning -->
<g id="edge5" class="edge">
<title>scilab&#45;&gt;conda&#45;forge&#45;pinning</title>
<path fill="none" stroke="black" d="M242.96,-74.5C229.08,-64.97 210.63,-52.31 194.87,-41.49"/>
<polygon fill="black" stroke="black" points="196.65,-38.47 186.43,-35.7 192.69,-44.24 196.65,-38.47"/>
</g>
</g>
</svg>
