<?xml version="1.0" encoding="UTF-8" standalone="no"?>
<!DOCTYPE svg PUBLIC "-//W3C//DTD SVG 1.1//EN"
 "http://www.w3.org/Graphics/SVG/1.1/DTD/svg11.dtd">
<!-- Generated by graphviz version 2.42.3 (20191010.1750)
 -->
<!-- Title: %3 Pages: 1 -->
<svg width="230pt" height="116pt"
 viewBox="0.00 0.00 230.14 116.00" xmlns="http://www.w3.org/2000/svg" xmlns:xlink="http://www.w3.org/1999/xlink">
<g id="graph0" class="graph" transform="scale(1 1) rotate(0) translate(4 112)">
<title>%3</title>
<polygon fill="white" stroke="transparent" points="-4,4 -4,-112 226.14,-112 226.14,4 -4,4"/>
<!-- scilab -->
<g id="node1" class="node">
<title>scilab</title>
<g id="a_node1"><a xlink:href="https://github.com/conda-forge/scilab-feedstock/pull/13" xlink:title="scilab">
<ellipse fill="#31688e" stroke="black" cx="44.34" cy="-90" rx="40.09" ry="18"/>
<text text-anchor="middle" x="44.34" y="-86.3" font-family="Times,serif" font-size="14.00" fill="white">scilab</text>
</a>
</g>
</g>
<!-- conda&#45;forge&#45;pinning -->
<g id="node3" class="node">
<title>conda&#45;forge&#45;pinning</title>
<ellipse fill="none" stroke="black" cx="103.34" cy="-18" rx="103.18" ry="18"/>
<text text-anchor="middle" x="103.34" y="-14.3" font-family="Times,serif" font-size="14.00">conda&#45;forge&#45;pinning</text>
</g>
<!-- scilab&#45;&gt;conda&#45;forge&#45;pinning -->
<g id="edge1" class="edge">
<title>scilab&#45;&gt;conda&#45;forge&#45;pinning</title>
<path fill="none" stroke="black" d="M58.02,-72.76C65.26,-64.18 74.29,-53.46 82.39,-43.86"/>
<polygon fill="black" stroke="black" points="85.14,-46.03 88.91,-36.12 79.79,-41.51 85.14,-46.03"/>
</g>
<!-- ambertools -->
<g id="node2" class="node">
<title>ambertools</title>
<g id="a_node2"><a xlink:href="https://github.com/conda-forge/ambertools-feedstock/pull/32" xlink:title="ambertools">
<ellipse fill="#31688e" stroke="black" cx="162.34" cy="-90" rx="59.59" ry="18"/>
<text text-anchor="middle" x="162.34" y="-86.3" font-family="Times,serif" font-size="14.00" fill="white">ambertools</text>
</a>
</g>
</g>
<!-- ambertools&#45;&gt;conda&#45;forge&#45;pinning -->
<g id="edge2" class="edge">
<title>ambertools&#45;&gt;conda&#45;forge&#45;pinning</title>
<path fill="none" stroke="black" d="M148.36,-72.41C141.12,-63.82 132.13,-53.16 124.1,-43.63"/>
<polygon fill="black" stroke="black" points="126.75,-41.35 117.63,-35.96 121.4,-45.86 126.75,-41.35"/>
</g>
</g>
</svg>
