<?xml version="1.0" encoding="UTF-8" standalone="no"?>
<!DOCTYPE svg PUBLIC "-//W3C//DTD SVG 1.1//EN"
 "http://www.w3.org/Graphics/SVG/1.1/DTD/svg11.dtd">
<!-- Generated by graphviz version 2.42.3 (20191010.1750)
 -->
<!-- Title: %3 Pages: 1 -->
<svg width="606pt" height="188pt"
 viewBox="0.00 0.00 606.14 188.00" xmlns="http://www.w3.org/2000/svg" xmlns:xlink="http://www.w3.org/1999/xlink">
<g id="graph0" class="graph" transform="scale(1 1) rotate(0) translate(4 184)">
<title>%3</title>
<polygon fill="white" stroke="transparent" points="-4,4 -4,-184 602.14,-184 602.14,4 -4,4"/>
<!-- pyarrow -->
<g id="node1" class="node">
<title>pyarrow</title>
<g id="a_node1"><a xlink:href="https://github.com/conda-forge/pyarrow-feedstock/pull/106" xlink:title="pyarrow">
<ellipse fill="#31688e" stroke="black" cx="256.05" cy="-162" rx="44.69" ry="18"/>
<text text-anchor="middle" x="256.05" y="-158.3" font-family="Times,serif" font-size="14.00" fill="white">pyarrow</text>
</a>
</g>
</g>
<!-- turbodbc -->
<g id="node2" class="node">
<title>turbodbc</title>
<g id="a_node2"><a xlink:href="https://github.com/conda-forge/turbodbc-feedstock" xlink:title="turbodbc">
<ellipse fill="#fde725" stroke="black" cx="50.05" cy="-90" rx="50.09" ry="18"/>
<text text-anchor="middle" x="50.05" y="-86.3" font-family="Times,serif" font-size="14.00">turbodbc</text>
</a>
</g>
</g>
<!-- pyarrow&#45;&gt;turbodbc -->
<g id="edge2" class="edge">
<title>pyarrow&#45;&gt;turbodbc</title>
<path fill="none" stroke="black" d="M222.95,-149.75C188.29,-137.97 133.63,-119.4 95.06,-106.3"/>
<polygon fill="black" stroke="black" points="95.72,-102.83 85.13,-102.92 93.47,-109.45 95.72,-102.83"/>
</g>
<!-- snowflake&#45;connector&#45;python -->
<g id="node3" class="node">
<title>snowflake&#45;connector&#45;python</title>
<g id="a_node3"><a xlink:href="https://github.com/conda-forge/snowflake-connector-python-feedstock" xlink:title="snowflake connector python">
<ellipse fill="#fde725" stroke="black" cx="256.05" cy="-90" rx="137.58" ry="18"/>
<text text-anchor="middle" x="256.05" y="-86.3" font-family="Times,serif" font-size="14.00">snowflake connector python</text>
</a>
</g>
</g>
<!-- pyarrow&#45;&gt;snowflake&#45;connector&#45;python -->
<g id="edge1" class="edge">
<title>pyarrow&#45;&gt;snowflake&#45;connector&#45;python</title>
<path fill="none" stroke="black" d="M256.05,-143.7C256.05,-135.98 256.05,-126.71 256.05,-118.11"/>
<polygon fill="black" stroke="black" points="259.55,-118.1 256.05,-108.1 252.55,-118.1 259.55,-118.1"/>
</g>
<!-- conda&#45;forge&#45;pinning -->
<g id="node5" class="node">
<title>conda&#45;forge&#45;pinning</title>
<ellipse fill="none" stroke="black" cx="339.05" cy="-18" rx="103.18" ry="18"/>
<text text-anchor="middle" x="339.05" y="-14.3" font-family="Times,serif" font-size="14.00">conda&#45;forge&#45;pinning</text>
</g>
<!-- pyarrow&#45;&gt;conda&#45;forge&#45;pinning -->
<g id="edge3" class="edge">
<title>pyarrow&#45;&gt;conda&#45;forge&#45;pinning</title>
<path fill="none" stroke="black" d="M300.14,-158.2C334.44,-153.44 379.97,-140.85 403.05,-108 412.24,-94.91 409.85,-86.48 403.05,-72 397.38,-59.95 387.47,-49.7 377.13,-41.51"/>
<polygon fill="black" stroke="black" points="378.94,-38.5 368.81,-35.4 374.79,-44.14 378.94,-38.5"/>
</g>
<!-- turbodbc&#45;&gt;conda&#45;forge&#45;pinning -->
<g id="edge4" class="edge">
<title>turbodbc&#45;&gt;conda&#45;forge&#45;pinning</title>
<path fill="none" stroke="black" d="M87.42,-77.9C94.58,-75.87 102.03,-73.82 109.05,-72 161.71,-58.36 221.6,-44.61 267.07,-34.54"/>
<polygon fill="black" stroke="black" points="267.83,-37.95 276.84,-32.38 266.32,-31.12 267.83,-37.95"/>
</g>
<!-- snowflake&#45;connector&#45;python&#45;&gt;conda&#45;forge&#45;pinning -->
<g id="edge5" class="edge">
<title>snowflake&#45;connector&#45;python&#45;&gt;conda&#45;forge&#45;pinning</title>
<path fill="none" stroke="black" d="M276.14,-72.05C286.74,-63.11 299.91,-52.01 311.46,-42.27"/>
<polygon fill="black" stroke="black" points="313.75,-44.91 319.14,-35.79 309.24,-39.56 313.75,-44.91"/>
</g>
<!-- omniscidb&#45;cpu -->
<g id="node4" class="node">
<title>omniscidb&#45;cpu</title>
<g id="a_node4"><a xlink:href="https://github.com/conda-forge/omniscidb-cpu-feedstock" xlink:title="omniscidb cpu">
<ellipse fill="#35b779" stroke="black" cx="524.05" cy="-90" rx="74.19" ry="18"/>
<text text-anchor="middle" x="524.05" y="-86.3" font-family="Times,serif" font-size="14.00">omniscidb cpu</text>
</a>
</g>
</g>
<!-- omniscidb&#45;cpu&#45;&gt;conda&#45;forge&#45;pinning -->
<g id="edge6" class="edge">
<title>omniscidb&#45;cpu&#45;&gt;conda&#45;forge&#45;pinning</title>
<path fill="none" stroke="black" d="M485.71,-74.5C457.92,-63.98 420.06,-49.65 389.77,-38.19"/>
<polygon fill="black" stroke="black" points="390.81,-34.84 380.22,-34.58 388.33,-41.39 390.81,-34.84"/>
</g>
</g>
</svg>
