<?xml version="1.0" encoding="UTF-8" standalone="no"?>
<!DOCTYPE svg PUBLIC "-//W3C//DTD SVG 1.1//EN"
 "http://www.w3.org/Graphics/SVG/1.1/DTD/svg11.dtd">
<!-- Generated by graphviz version 2.42.3 (20191010.1750)
 -->
<!-- Title: %3 Pages: 1 -->
<svg width="568pt" height="116pt"
 viewBox="0.00 0.00 568.14 116.00" xmlns="http://www.w3.org/2000/svg" xmlns:xlink="http://www.w3.org/1999/xlink">
<g id="graph0" class="graph" transform="scale(1 1) rotate(0) translate(4 112)">
<title>%3</title>
<polygon fill="white" stroke="transparent" points="-4,4 -4,-112 564.14,-112 564.14,4 -4,4"/>
<!-- turbodbc -->
<g id="node1" class="node">
<title>turbodbc</title>
<g id="a_node1"><a xlink:href="https://github.com/conda-forge/turbodbc-feedstock/pull/41" xlink:title="turbodbc">
<ellipse fill="#31688e" stroke="black" cx="50.05" cy="-90" rx="50.09" ry="18"/>
<text text-anchor="middle" x="50.05" y="-86.3" font-family="Times,serif" font-size="14.00" fill="white">turbodbc</text>
</a>
</g>
</g>
<!-- conda&#45;forge&#45;pinning -->
<g id="node4" class="node">
<title>conda&#45;forge&#45;pinning</title>
<ellipse fill="none" stroke="black" cx="256.05" cy="-18" rx="103.18" ry="18"/>
<text text-anchor="middle" x="256.05" y="-14.3" font-family="Times,serif" font-size="14.00">conda&#45;forge&#45;pinning</text>
</g>
<!-- turbodbc&#45;&gt;conda&#45;forge&#45;pinning -->
<g id="edge1" class="edge">
<title>turbodbc&#45;&gt;conda&#45;forge&#45;pinning</title>
<path fill="none" stroke="black" d="M85.46,-76.97C117.35,-66.13 164.72,-50.03 201.45,-37.55"/>
<polygon fill="black" stroke="black" points="202.68,-40.83 211.03,-34.3 200.43,-34.2 202.68,-40.83"/>
</g>
<!-- snowflake&#45;connector&#45;python -->
<g id="node2" class="node">
<title>snowflake&#45;connector&#45;python</title>
<g id="a_node2"><a xlink:href="https://github.com/conda-forge/snowflake-connector-python-feedstock/pull/40" xlink:title="snowflake connector python">
<ellipse fill="#31688e" stroke="black" cx="256.05" cy="-90" rx="137.58" ry="18"/>
<text text-anchor="middle" x="256.05" y="-86.3" font-family="Times,serif" font-size="14.00" fill="white">snowflake connector python</text>
</a>
</g>
</g>
<!-- snowflake&#45;connector&#45;python&#45;&gt;conda&#45;forge&#45;pinning -->
<g id="edge2" class="edge">
<title>snowflake&#45;connector&#45;python&#45;&gt;conda&#45;forge&#45;pinning</title>
<path fill="none" stroke="black" d="M256.05,-71.7C256.05,-63.98 256.05,-54.71 256.05,-46.11"/>
<polygon fill="black" stroke="black" points="259.55,-46.1 256.05,-36.1 252.55,-46.1 259.55,-46.1"/>
</g>
<!-- omniscidb&#45;cpu -->
<g id="node3" class="node">
<title>omniscidb&#45;cpu</title>
<g id="a_node3"><a xlink:href="https://github.com/conda-forge/omniscidb-cpu-feedstock/pull/27" xlink:title="omniscidb cpu">
<ellipse fill="#31688e" stroke="black" cx="486.05" cy="-90" rx="74.19" ry="18"/>
<text text-anchor="middle" x="486.05" y="-86.3" font-family="Times,serif" font-size="14.00" fill="white">omniscidb cpu</text>
</a>
</g>
</g>
<!-- omniscidb&#45;cpu&#45;&gt;conda&#45;forge&#45;pinning -->
<g id="edge3" class="edge">
<title>omniscidb&#45;cpu&#45;&gt;conda&#45;forge&#45;pinning</title>
<path fill="none" stroke="black" d="M441.7,-75.5C405.6,-64.52 354.33,-48.91 314.81,-36.89"/>
<polygon fill="black" stroke="black" points="315.62,-33.47 305.03,-33.91 313.58,-40.17 315.62,-33.47"/>
</g>
</g>
</svg>
