<?xml version="1.0" encoding="UTF-8" standalone="no"?>
<!DOCTYPE svg PUBLIC "-//W3C//DTD SVG 1.1//EN"
 "http://www.w3.org/Graphics/SVG/1.1/DTD/svg11.dtd">
<!-- Generated by graphviz version 2.42.3 (20191010.1750)
 -->
<!-- Title: %3 Pages: 1 -->
<svg width="2694pt" height="764pt"
 viewBox="0.00 0.00 2694.09 764.00" xmlns="http://www.w3.org/2000/svg" xmlns:xlink="http://www.w3.org/1999/xlink">
<g id="graph0" class="graph" transform="scale(1 1) rotate(0) translate(4 760)">
<title>%3</title>
<polygon fill="white" stroke="transparent" points="-4,4 -4,-760 2690.09,-760 2690.09,4 -4,4"/>
<!-- cyclus -->
<g id="node1" class="node">
<title>cyclus</title>
<g id="a_node1"><a xlink:href="https://github.com/conda-forge/cyclus-feedstock/pull/54" xlink:title="cyclus">
<ellipse fill="#31688e" stroke="black" cx="64.5" cy="-738" rx="40.5" ry="18"/>
<text text-anchor="middle" x="64.5" y="-734.3" font-family="Times,serif" font-size="14.00" fill="white">cyclus</text>
</a>
</g>
</g>
<!-- dionysus -->
<g id="node2" class="node">
<title>dionysus</title>
<g id="a_node2"><a xlink:href="https://github.com/conda-forge/dionysus-feedstock/pull/7" xlink:title="dionysus">
<ellipse fill="#31688e" stroke="black" cx="64.5" cy="-666" rx="50.09" ry="18"/>
<text text-anchor="middle" x="64.5" y="-662.3" font-family="Times,serif" font-size="14.00" fill="white">dionysus</text>
</a>
</g>
</g>
<!-- cyclus&#45;&gt;dionysus -->
<!-- libradolan -->
<g id="node3" class="node">
<title>libradolan</title>
<g id="a_node3"><a xlink:href="https://github.com/conda-forge/libradolan-feedstock/pull/22" xlink:title="libradolan">
<ellipse fill="#31688e" stroke="black" cx="64.5" cy="-594" rx="60" ry="18"/>
<text text-anchor="middle" x="64.5" y="-590.3" font-family="Times,serif" font-size="14.00" fill="white">libradolan</text>
</a>
</g>
</g>
<!-- dionysus&#45;&gt;libradolan -->
<!-- msgpack&#45;c -->
<g id="node8" class="node">
<title>msgpack&#45;c</title>
<g id="a_node8"><a xlink:href="https://github.com/conda-forge/msgpack-c-feedstock/pull/17" xlink:title="msgpack c">
<ellipse fill="#31688e" stroke="black" cx="64.5" cy="-522" rx="54.69" ry="18"/>
<text text-anchor="middle" x="64.5" y="-518.3" font-family="Times,serif" font-size="14.00" fill="white">msgpack c</text>
</a>
</g>
</g>
<!-- libradolan&#45;&gt;msgpack&#45;c -->
<!-- fenics -->
<g id="node4" class="node">
<title>fenics</title>
<g id="a_node4"><a xlink:href="https://github.com/conda-forge/fenics-feedstock/pull/106" xlink:title="fenics">
<ellipse fill="#31688e" stroke="black" cx="163.5" cy="-738" rx="40.5" ry="18"/>
<text text-anchor="middle" x="163.5" y="-734.3" font-family="Times,serif" font-size="14.00" fill="white">fenics</text>
</a>
</g>
</g>
<!-- mshr -->
<g id="node5" class="node">
<title>mshr</title>
<ellipse fill="#fde725" stroke="black" cx="163.5" cy="-666" rx="30.59" ry="18"/>
<text text-anchor="middle" x="163.5" y="-662.3" font-family="Times,serif" font-size="14.00">mshr</text>
</g>
<!-- fenics&#45;&gt;mshr -->
<g id="edge3" class="edge">
<title>fenics&#45;&gt;mshr</title>
<path fill="none" stroke="black" d="M163.5,-719.7C163.5,-711.98 163.5,-702.71 163.5,-694.11"/>
<polygon fill="black" stroke="black" points="167,-694.1 163.5,-684.1 160,-694.1 167,-694.1"/>
</g>
<!-- gap -->
<g id="node6" class="node">
<title>gap</title>
<ellipse fill="#fde725" stroke="black" cx="272.5" cy="-666" rx="27" ry="18"/>
<text text-anchor="middle" x="272.5" y="-662.3" font-family="Times,serif" font-size="14.00">gap</text>
</g>
<!-- sagelib -->
<g id="node7" class="node">
<title>sagelib</title>
<ellipse fill="#fde725" stroke="black" cx="272.5" cy="-594" rx="45" ry="18"/>
<text text-anchor="middle" x="272.5" y="-590.3" font-family="Times,serif" font-size="14.00">sagelib</text>
</g>
<!-- gap&#45;&gt;sagelib -->
<g id="edge4" class="edge">
<title>gap&#45;&gt;sagelib</title>
<path fill="none" stroke="black" d="M272.5,-647.7C272.5,-639.98 272.5,-630.71 272.5,-622.11"/>
<polygon fill="black" stroke="black" points="276,-622.1 272.5,-612.1 269,-622.1 276,-622.1"/>
</g>
<!-- openturns -->
<g id="node9" class="node">
<title>openturns</title>
<g id="a_node9"><a xlink:href="https://github.com/conda-forge/openturns-feedstock/pull/99" xlink:title="openturns">
<ellipse fill="#31688e" stroke="black" cx="64.5" cy="-450" rx="54.69" ry="18"/>
<text text-anchor="middle" x="64.5" y="-446.3" font-family="Times,serif" font-size="14.00" fill="white">openturns</text>
</a>
</g>
</g>
<!-- msgpack&#45;c&#45;&gt;openturns -->
<!-- pykep -->
<g id="node10" class="node">
<title>pykep</title>
<ellipse fill="#35b779" stroke="black" cx="64.5" cy="-378" rx="35.19" ry="18"/>
<text text-anchor="middle" x="64.5" y="-374.3" font-family="Times,serif" font-size="14.00">pykep</text>
</g>
<!-- openturns&#45;&gt;pykep -->
<!-- pyne -->
<g id="node15" class="node">
<title>pyne</title>
<g id="a_node15"><a xlink:href="https://github.com/conda-forge/pyne-feedstock/pull/38" xlink:title="pyne">
<ellipse fill="#31688e" stroke="black" cx="64.5" cy="-306" rx="30.59" ry="18"/>
<text text-anchor="middle" x="64.5" y="-302.3" font-family="Times,serif" font-size="14.00" fill="white">pyne</text>
</a>
</g>
</g>
<!-- pykep&#45;&gt;pyne -->
<!-- pyarrow -->
<g id="node11" class="node">
<title>pyarrow</title>
<g id="a_node11"><a xlink:href="https://github.com/conda-forge/pyarrow-feedstock/pull/100" xlink:title="pyarrow">
<ellipse fill="#31688e" stroke="black" cx="385.5" cy="-738" rx="45" ry="18"/>
<text text-anchor="middle" x="385.5" y="-734.3" font-family="Times,serif" font-size="14.00" fill="white">pyarrow</text>
</a>
</g>
</g>
<!-- turbodbc -->
<g id="node12" class="node">
<title>turbodbc</title>
<ellipse fill="#fde725" stroke="black" cx="385.5" cy="-666" rx="50.09" ry="18"/>
<text text-anchor="middle" x="385.5" y="-662.3" font-family="Times,serif" font-size="14.00">turbodbc</text>
</g>
<!-- pyarrow&#45;&gt;turbodbc -->
<g id="edge8" class="edge">
<title>pyarrow&#45;&gt;turbodbc</title>
<path fill="none" stroke="black" d="M385.5,-719.7C385.5,-711.98 385.5,-702.71 385.5,-694.11"/>
<polygon fill="black" stroke="black" points="389,-694.1 385.5,-684.1 382,-694.1 389,-694.1"/>
</g>
<!-- pygmo -->
<g id="node13" class="node">
<title>pygmo</title>
<ellipse fill="#35b779" stroke="black" cx="488.5" cy="-666" rx="35.19" ry="18"/>
<text text-anchor="middle" x="488.5" y="-662.3" font-family="Times,serif" font-size="14.00">pygmo</text>
</g>
<!-- dcgp&#45;python -->
<g id="node14" class="node">
<title>dcgp&#45;python</title>
<ellipse fill="#fde725" stroke="black" cx="514.5" cy="-594" rx="64.5" ry="18"/>
<text text-anchor="middle" x="514.5" y="-590.3" font-family="Times,serif" font-size="14.00">dcgp python</text>
</g>
<!-- pygmo&#45;&gt;dcgp&#45;python -->
<g id="edge9" class="edge">
<title>pygmo&#45;&gt;dcgp&#45;python</title>
<path fill="none" stroke="black" d="M494.79,-648.05C497.72,-640.18 501.27,-630.62 504.55,-621.79"/>
<polygon fill="black" stroke="black" points="507.88,-622.87 508.08,-612.28 501.32,-620.43 507.88,-622.87"/>
</g>
<!-- rank_filter -->
<g id="node16" class="node">
<title>rank_filter</title>
<g id="a_node16"><a xlink:href="https://github.com/conda-forge/rank_filter-feedstock/pull/43" xlink:title="rank_filter">
<ellipse fill="#31688e" stroke="black" cx="64.5" cy="-234" rx="64.5" ry="18"/>
<text text-anchor="middle" x="64.5" y="-230.3" font-family="Times,serif" font-size="14.00" fill="white">rank_filter</text>
</a>
</g>
</g>
<!-- pyne&#45;&gt;rank_filter -->
<!-- rsgislib -->
<g id="node17" class="node">
<title>rsgislib</title>
<g id="a_node17"><a xlink:href="https://github.com/conda-forge/rsgislib-feedstock/pull/28" xlink:title="rsgislib">
<ellipse fill="#31688e" stroke="black" cx="64.5" cy="-162" rx="50.09" ry="18"/>
<text text-anchor="middle" x="64.5" y="-158.3" font-family="Times,serif" font-size="14.00" fill="white">rsgislib</text>
</a>
</g>
</g>
<!-- rank_filter&#45;&gt;rsgislib -->
<!-- clblas -->
<g id="node18" class="node">
<title>clblas</title>
<g id="a_node18"><a xlink:href="https://github.com/conda-forge/clblas-feedstock/pull/9" xlink:title="clblas">
<ellipse fill="#31688e" stroke="black" cx="64.5" cy="-90" rx="40.5" ry="18"/>
<text text-anchor="middle" x="64.5" y="-86.3" font-family="Times,serif" font-size="14.00" fill="white">clblas</text>
</a>
</g>
</g>
<!-- rsgislib&#45;&gt;clblas -->
<!-- clfft -->
<g id="node20" class="node">
<title>clfft</title>
<g id="a_node20"><a xlink:href="https://github.com/conda-forge/clfft-feedstock/pull/9" xlink:title="clfft">
<ellipse fill="#31688e" stroke="black" cx="64.5" cy="-18" rx="35.19" ry="18"/>
<text text-anchor="middle" x="64.5" y="-14.3" font-family="Times,serif" font-size="14.00" fill="white">clfft</text>
</a>
</g>
</g>
<!-- clblas&#45;&gt;clfft -->
<!-- audi -->
<g id="node19" class="node">
<title>audi</title>
<g id="a_node19"><a xlink:href="https://github.com/conda-forge/audi-feedstock/pull/16" xlink:title="audi">
<ellipse fill="#31688e" stroke="black" cx="551.5" cy="-738" rx="30.59" ry="18"/>
<text text-anchor="middle" x="551.5" y="-734.3" font-family="Times,serif" font-size="14.00" fill="white">audi</text>
</a>
</g>
</g>
<!-- audi&#45;&gt;dcgp&#45;python -->
<g id="edge14" class="edge">
<title>audi&#45;&gt;dcgp&#45;python</title>
<path fill="none" stroke="black" d="M548.45,-719.79C545.1,-701.76 539.3,-672.68 532.5,-648 530.11,-639.34 527.11,-630.03 524.23,-621.66"/>
<polygon fill="black" stroke="black" points="527.47,-620.3 520.85,-612.03 520.86,-622.62 527.47,-620.3"/>
</g>
<!-- clsparse -->
<g id="node21" class="node">
<title>clsparse</title>
<g id="a_node21"><a xlink:href="https://github.com/conda-forge/clsparse-feedstock/pull/7" xlink:title="clsparse">
<ellipse fill="#31688e" stroke="black" cx="650.5" cy="-738" rx="50.09" ry="18"/>
<text text-anchor="middle" x="650.5" y="-734.3" font-family="Times,serif" font-size="14.00" fill="white">clsparse</text>
</a>
</g>
</g>
<!-- spdlib -->
<g id="node22" class="node">
<title>spdlib</title>
<g id="a_node22"><a xlink:href="https://github.com/conda-forge/spdlib-feedstock/pull/11" xlink:title="spdlib">
<ellipse fill="#31688e" stroke="black" cx="650.5" cy="-666" rx="40.5" ry="18"/>
<text text-anchor="middle" x="650.5" y="-662.3" font-family="Times,serif" font-size="14.00" fill="white">spdlib</text>
</a>
</g>
</g>
<!-- clsparse&#45;&gt;spdlib -->
<!-- pcl -->
<g id="node23" class="node">
<title>pcl</title>
<g id="a_node23"><a xlink:href="https://github.com/conda-forge/pcl-feedstock/pull/20" xlink:title="pcl">
<ellipse fill="#31688e" stroke="black" cx="650.5" cy="-594" rx="27" ry="18"/>
<text text-anchor="middle" x="650.5" y="-590.3" font-family="Times,serif" font-size="14.00" fill="white">pcl</text>
</a>
</g>
</g>
<!-- spdlib&#45;&gt;pcl -->
<!-- trilinos -->
<g id="node26" class="node">
<title>trilinos</title>
<g id="a_node26"><a xlink:href="https://github.com/conda-forge/trilinos-feedstock/pull/29" xlink:title="trilinos">
<ellipse fill="#31688e" stroke="black" cx="650.5" cy="-522" rx="50.09" ry="18"/>
<text text-anchor="middle" x="650.5" y="-518.3" font-family="Times,serif" font-size="14.00" fill="white">trilinos</text>
</a>
</g>
</g>
<!-- pcl&#45;&gt;trilinos -->
<!-- smesh -->
<g id="node24" class="node">
<title>smesh</title>
<g id="a_node24"><a xlink:href="https://github.com/conda-forge/smesh-feedstock/pull/29" xlink:title="smesh">
<ellipse fill="#31688e" stroke="black" cx="754.5" cy="-738" rx="35.19" ry="18"/>
<text text-anchor="middle" x="754.5" y="-734.3" font-family="Times,serif" font-size="14.00" fill="white">smesh</text>
</a>
</g>
</g>
<!-- freecad -->
<g id="node25" class="node">
<title>freecad</title>
<ellipse fill="#fde725" stroke="black" cx="754.5" cy="-666" rx="45" ry="18"/>
<text text-anchor="middle" x="754.5" y="-662.3" font-family="Times,serif" font-size="14.00">freecad</text>
</g>
<!-- smesh&#45;&gt;freecad -->
<g id="edge18" class="edge">
<title>smesh&#45;&gt;freecad</title>
<path fill="none" stroke="black" d="M754.5,-719.7C754.5,-711.98 754.5,-702.71 754.5,-694.11"/>
<polygon fill="black" stroke="black" points="758,-694.1 754.5,-684.1 751,-694.1 758,-694.1"/>
</g>
<!-- libhdfs3 -->
<g id="node27" class="node">
<title>libhdfs3</title>
<g id="a_node27"><a xlink:href="https://github.com/conda-forge/libhdfs3-feedstock/pull/31" xlink:title="libhdfs3">
<ellipse fill="#31688e" stroke="black" cx="650.5" cy="-450" rx="50.09" ry="18"/>
<text text-anchor="middle" x="650.5" y="-446.3" font-family="Times,serif" font-size="14.00" fill="white">libhdfs3</text>
</a>
</g>
</g>
<!-- trilinos&#45;&gt;libhdfs3 -->
<!-- multineat -->
<g id="node28" class="node">
<title>multineat</title>
<ellipse fill="#35b779" stroke="black" cx="650.5" cy="-378" rx="54.69" ry="18"/>
<text text-anchor="middle" x="650.5" y="-374.3" font-family="Times,serif" font-size="14.00">multineat</text>
</g>
<!-- libhdfs3&#45;&gt;multineat -->
<!-- helics -->
<g id="node29" class="node">
<title>helics</title>
<g id="a_node29"><a xlink:href="https://github.com/conda-forge/helics-feedstock/pull/17" xlink:title="helics">
<ellipse fill="#31688e" stroke="black" cx="650.5" cy="-306" rx="40.5" ry="18"/>
<text text-anchor="middle" x="650.5" y="-302.3" font-family="Times,serif" font-size="14.00" fill="white">helics</text>
</a>
</g>
</g>
<!-- multineat&#45;&gt;helics -->
<!-- nds2&#45;client -->
<g id="node30" class="node">
<title>nds2&#45;client</title>
<g id="a_node30"><a xlink:href="https://github.com/conda-forge/nds2-client-feedstock/pull/9" xlink:title="nds2 client">
<ellipse fill="#31688e" stroke="black" cx="650.5" cy="-234" rx="64.5" ry="18"/>
<text text-anchor="middle" x="650.5" y="-230.3" font-family="Times,serif" font-size="14.00" fill="white">nds2 client</text>
</a>
</g>
</g>
<!-- helics&#45;&gt;nds2&#45;client -->
<!-- gudhi -->
<g id="node31" class="node">
<title>gudhi</title>
<g id="a_node31"><a xlink:href="https://github.com/conda-forge/gudhi-feedstock/pull/16" xlink:title="gudhi">
<ellipse fill="#31688e" stroke="black" cx="650.5" cy="-162" rx="35.19" ry="18"/>
<text text-anchor="middle" x="650.5" y="-158.3" font-family="Times,serif" font-size="14.00" fill="white">gudhi</text>
</a>
</g>
</g>
<!-- nds2&#45;client&#45;&gt;gudhi -->
<!-- ldas&#45;tools&#45;diskcacheapi -->
<g id="node32" class="node">
<title>ldas&#45;tools&#45;diskcacheapi</title>
<g id="a_node32"><a xlink:href="https://github.com/conda-forge/ldas-tools-diskcacheapi-feedstock/pull/4" xlink:title="ldas tools diskcacheapi">
<ellipse fill="#31688e" stroke="black" cx="650.5" cy="-90" rx="123" ry="18"/>
<text text-anchor="middle" x="650.5" y="-86.3" font-family="Times,serif" font-size="14.00" fill="white">ldas tools diskcacheapi</text>
</a>
</g>
</g>
<!-- gudhi&#45;&gt;ldas&#45;tools&#45;diskcacheapi -->
<!-- libint -->
<g id="node33" class="node">
<title>libint</title>
<g id="a_node33"><a xlink:href="https://github.com/conda-forge/libint-feedstock/pull/5" xlink:title="libint">
<ellipse fill="#31688e" stroke="black" cx="650.5" cy="-18" rx="40.5" ry="18"/>
<text text-anchor="middle" x="650.5" y="-14.3" font-family="Times,serif" font-size="14.00" fill="white">libint</text>
</a>
</g>
</g>
<!-- ldas&#45;tools&#45;diskcacheapi&#45;&gt;libint -->
<!-- stir -->
<g id="node34" class="node">
<title>stir</title>
<g id="a_node34"><a xlink:href="https://github.com/conda-forge/stir-feedstock/pull/11" xlink:title="stir">
<ellipse fill="#31688e" stroke="black" cx="858.5" cy="-738" rx="30.59" ry="18"/>
<text text-anchor="middle" x="858.5" y="-734.3" font-family="Times,serif" font-size="14.00" fill="white">stir</text>
</a>
</g>
</g>
<!-- dealii -->
<g id="node35" class="node">
<title>dealii</title>
<g id="a_node35"><a xlink:href="https://github.com/conda-forge/dealii-feedstock/pull/6" xlink:title="dealii">
<ellipse fill="#31688e" stroke="black" cx="858.5" cy="-666" rx="40.5" ry="18"/>
<text text-anchor="middle" x="858.5" y="-662.3" font-family="Times,serif" font-size="14.00" fill="white">dealii</text>
</a>
</g>
</g>
<!-- stir&#45;&gt;dealii -->
<!-- lhcb&#45;simpletools -->
<g id="node36" class="node">
<title>lhcb&#45;simpletools</title>
<g id="a_node36"><a xlink:href="https://github.com/conda-forge/lhcb-simpletools-feedstock/pull/4" xlink:title="lhcb simpletools">
<ellipse fill="#31688e" stroke="black" cx="858.5" cy="-594" rx="89.08" ry="18"/>
<text text-anchor="middle" x="858.5" y="-590.3" font-family="Times,serif" font-size="14.00" fill="white">lhcb simpletools</text>
</a>
</g>
</g>
<!-- dealii&#45;&gt;lhcb&#45;simpletools -->
<!-- omniscidb&#45;cpu -->
<g id="node37" class="node">
<title>omniscidb&#45;cpu</title>
<g id="a_node37"><a xlink:href="https://github.com/conda-forge/omniscidb-cpu-feedstock/pull/22" xlink:title="omniscidb cpu">
<ellipse fill="#31688e" stroke="black" cx="858.5" cy="-522" rx="74.19" ry="18"/>
<text text-anchor="middle" x="858.5" y="-518.3" font-family="Times,serif" font-size="14.00" fill="white">omniscidb cpu</text>
</a>
</g>
</g>
<!-- lhcb&#45;simpletools&#45;&gt;omniscidb&#45;cpu -->
<!-- ambertools -->
<g id="node38" class="node">
<title>ambertools</title>
<g id="a_node38"><a xlink:href="https://github.com/conda-forge/ambertools-feedstock/pull/25" xlink:title="ambertools">
<ellipse fill="#31688e" stroke="black" cx="858.5" cy="-450" rx="60" ry="18"/>
<text text-anchor="middle" x="858.5" y="-446.3" font-family="Times,serif" font-size="14.00" fill="white">ambertools</text>
</a>
</g>
</g>
<!-- omniscidb&#45;cpu&#45;&gt;ambertools -->
<!-- biorbd -->
<g id="node39" class="node">
<title>biorbd</title>
<g id="a_node39"><a xlink:href="https://github.com/conda-forge/biorbd-feedstock/pull/13" xlink:title="biorbd">
<ellipse fill="#31688e" stroke="black" cx="858.5" cy="-378" rx="40.5" ry="18"/>
<text text-anchor="middle" x="858.5" y="-374.3" font-family="Times,serif" font-size="14.00" fill="white">biorbd</text>
</a>
</g>
</g>
<!-- ambertools&#45;&gt;biorbd -->
<!-- esys&#45;escript -->
<g id="node40" class="node">
<title>esys&#45;escript</title>
<ellipse fill="#35b779" stroke="black" cx="858.5" cy="-306" rx="69.59" ry="18"/>
<text text-anchor="middle" x="858.5" y="-302.3" font-family="Times,serif" font-size="14.00">esys escript</text>
</g>
<!-- biorbd&#45;&gt;esys&#45;escript -->
<!-- graph&#45;tool -->
<g id="node42" class="node">
<title>graph&#45;tool</title>
<ellipse fill="#35b779" stroke="black" cx="858.5" cy="-234" rx="60" ry="18"/>
<text text-anchor="middle" x="858.5" y="-230.3" font-family="Times,serif" font-size="14.00">graph tool</text>
</g>
<!-- esys&#45;escript&#45;&gt;graph&#45;tool -->
<!-- normaliz -->
<g id="node41" class="node">
<title>normaliz</title>
<g id="a_node41"><a xlink:href="https://github.com/conda-forge/normaliz-feedstock/pull/18" xlink:title="normaliz">
<ellipse fill="#31688e" stroke="black" cx="272.5" cy="-738" rx="50.09" ry="18"/>
<text text-anchor="middle" x="272.5" y="-734.3" font-family="Times,serif" font-size="14.00" fill="white">normaliz</text>
</a>
</g>
</g>
<!-- normaliz&#45;&gt;gap -->
<g id="edge33" class="edge">
<title>normaliz&#45;&gt;gap</title>
<path fill="none" stroke="black" d="M272.5,-719.7C272.5,-711.98 272.5,-702.71 272.5,-694.11"/>
<polygon fill="black" stroke="black" points="276,-694.1 272.5,-684.1 269,-694.1 276,-694.1"/>
</g>
<!-- topologytoolkit -->
<g id="node48" class="node">
<title>topologytoolkit</title>
<g id="a_node48"><a xlink:href="https://github.com/conda-forge/topologytoolkit-feedstock/pull/4" xlink:title="topologytoolkit">
<ellipse fill="#31688e" stroke="black" cx="858.5" cy="-162" rx="84" ry="18"/>
<text text-anchor="middle" x="858.5" y="-158.3" font-family="Times,serif" font-size="14.00" fill="white">topologytoolkit</text>
</a>
</g>
</g>
<!-- graph&#45;tool&#45;&gt;topologytoolkit -->
<!-- xmscore -->
<g id="node43" class="node">
<title>xmscore</title>
<g id="a_node43"><a xlink:href="https://github.com/conda-forge/xmscore-feedstock/pull/4" xlink:title="xmscore">
<ellipse fill="#31688e" stroke="black" cx="1099.5" cy="-738" rx="45" ry="18"/>
<text text-anchor="middle" x="1099.5" y="-734.3" font-family="Times,serif" font-size="14.00" fill="white">xmscore</text>
</a>
</g>
</g>
<!-- xmsgrid -->
<g id="node44" class="node">
<title>xmsgrid</title>
<ellipse fill="#fde725" stroke="black" cx="1138.5" cy="-666" rx="45" ry="18"/>
<text text-anchor="middle" x="1138.5" y="-662.3" font-family="Times,serif" font-size="14.00">xmsgrid</text>
</g>
<!-- xmscore&#45;&gt;xmsgrid -->
<g id="edge35" class="edge">
<title>xmscore&#45;&gt;xmsgrid</title>
<path fill="none" stroke="black" d="M1108.94,-720.05C1113.54,-711.8 1119.17,-701.7 1124.27,-692.54"/>
<polygon fill="black" stroke="black" points="1127.34,-694.23 1129.15,-683.79 1121.22,-690.82 1127.34,-694.23"/>
</g>
<!-- xmsinterp -->
<g id="node45" class="node">
<title>xmsinterp</title>
<ellipse fill="#fde725" stroke="black" cx="1058.5" cy="-594" rx="54.69" ry="18"/>
<text text-anchor="middle" x="1058.5" y="-590.3" font-family="Times,serif" font-size="14.00">xmsinterp</text>
</g>
<!-- xmscore&#45;&gt;xmsinterp -->
<g id="edge36" class="edge">
<title>xmscore&#45;&gt;xmsinterp</title>
<path fill="none" stroke="black" d="M1094.55,-719.87C1087.54,-695.56 1074.62,-650.82 1066.3,-622.01"/>
<polygon fill="black" stroke="black" points="1069.6,-620.83 1063.46,-612.19 1062.87,-622.77 1069.6,-620.83"/>
</g>
<!-- xmsstamper -->
<g id="node46" class="node">
<title>xmsstamper</title>
<ellipse fill="#fde725" stroke="black" cx="1052.5" cy="-522" rx="60" ry="18"/>
<text text-anchor="middle" x="1052.5" y="-518.3" font-family="Times,serif" font-size="14.00">xmsstamper</text>
</g>
<!-- xmscore&#45;&gt;xmsstamper -->
<g id="edge37" class="edge">
<title>xmscore&#45;&gt;xmsstamper</title>
<path fill="none" stroke="black" d="M1080.15,-721.74C1054.8,-700.37 1011.57,-658.87 994.5,-612 989.02,-596.97 988.05,-590.64 994.5,-576 999.88,-563.79 1009.62,-553.17 1019.61,-544.71"/>
<polygon fill="black" stroke="black" points="1021.91,-547.35 1027.58,-538.4 1017.57,-541.86 1021.91,-547.35"/>
</g>
<!-- xmsmesher -->
<g id="node47" class="node">
<title>xmsmesher</title>
<ellipse fill="#fde725" stroke="black" cx="1185.5" cy="-522" rx="54.69" ry="18"/>
<text text-anchor="middle" x="1185.5" y="-518.3" font-family="Times,serif" font-size="14.00">xmsmesher</text>
</g>
<!-- xmscore&#45;&gt;xmsmesher -->
<g id="edge38" class="edge">
<title>xmscore&#45;&gt;xmsmesher</title>
<path fill="none" stroke="black" d="M1135.15,-726.67C1155.83,-718.64 1180.18,-705.21 1192.5,-684 1216.83,-642.13 1205.06,-583.27 1194.88,-549.55"/>
<polygon fill="black" stroke="black" points="1198.19,-548.4 1191.82,-539.93 1191.52,-550.52 1198.19,-548.4"/>
</g>
<!-- xmsgrid&#45;&gt;xmsinterp -->
<g id="edge39" class="edge">
<title>xmsgrid&#45;&gt;xmsinterp</title>
<path fill="none" stroke="black" d="M1120.35,-649.12C1109.78,-639.87 1096.29,-628.07 1084.6,-617.84"/>
<polygon fill="black" stroke="black" points="1086.69,-615.01 1076.86,-611.06 1082.08,-620.28 1086.69,-615.01"/>
</g>
<!-- xmsgrid&#45;&gt;xmsstamper -->
<g id="edge40" class="edge">
<title>xmsgrid&#45;&gt;xmsstamper</title>
<path fill="none" stroke="black" d="M1139.01,-647.97C1138.81,-629.04 1136.13,-598.21 1122.5,-576 1114.47,-562.91 1101.92,-551.91 1089.65,-543.39"/>
<polygon fill="black" stroke="black" points="1091.54,-540.45 1081.26,-537.89 1087.7,-546.3 1091.54,-540.45"/>
</g>
<!-- xmsgrid&#45;&gt;xmsmesher -->
<g id="edge41" class="edge">
<title>xmsgrid&#45;&gt;xmsmesher</title>
<path fill="none" stroke="black" d="M1144.17,-647.87C1152.21,-623.56 1167.02,-578.82 1176.56,-550.01"/>
<polygon fill="black" stroke="black" points="1179.99,-550.78 1179.81,-540.19 1173.35,-548.58 1179.99,-550.78"/>
</g>
<!-- xmsinterp&#45;&gt;xmsstamper -->
<g id="edge42" class="edge">
<title>xmsinterp&#45;&gt;xmsstamper</title>
<path fill="none" stroke="black" d="M1057.02,-575.7C1056.36,-567.98 1055.56,-558.71 1054.82,-550.11"/>
<polygon fill="black" stroke="black" points="1058.31,-549.77 1053.97,-540.1 1051.33,-550.37 1058.31,-549.77"/>
</g>
<!-- xmsinterp&#45;&gt;xmsmesher -->
<g id="edge43" class="edge">
<title>xmsinterp&#45;&gt;xmsmesher</title>
<path fill="none" stroke="black" d="M1085.43,-578.15C1104.12,-567.85 1129.22,-554.02 1149.61,-542.78"/>
<polygon fill="black" stroke="black" points="1151.54,-545.72 1158.61,-537.82 1148.16,-539.59 1151.54,-545.72"/>
</g>
<!-- pyinterp -->
<g id="node49" class="node">
<title>pyinterp</title>
<g id="a_node49"><a xlink:href="https://github.com/conda-forge/pyinterp-feedstock/pull/15" xlink:title="pyinterp">
<ellipse fill="#31688e" stroke="black" cx="858.5" cy="-90" rx="50.09" ry="18"/>
<text text-anchor="middle" x="858.5" y="-86.3" font-family="Times,serif" font-size="14.00" fill="white">pyinterp</text>
</a>
</g>
</g>
<!-- topologytoolkit&#45;&gt;pyinterp -->
<!-- triqs -->
<g id="node50" class="node">
<title>triqs</title>
<g id="a_node50"><a xlink:href="https://github.com/conda-forge/triqs-feedstock/pull/4" xlink:title="triqs">
<ellipse fill="#31688e" stroke="black" cx="858.5" cy="-18" rx="35.19" ry="18"/>
<text text-anchor="middle" x="858.5" y="-14.3" font-family="Times,serif" font-size="14.00" fill="white">triqs</text>
</a>
</g>
</g>
<!-- pyinterp&#45;&gt;triqs -->
<!-- ros&#45;cpp&#45;common -->
<g id="node51" class="node">
<title>ros&#45;cpp&#45;common</title>
<g id="a_node51"><a xlink:href="https://github.com/conda-forge/ros-cpp-common-feedstock/pull/6" xlink:title="ros cpp common">
<ellipse fill="#31688e" stroke="black" cx="2140.5" cy="-738" rx="79.5" ry="18"/>
<text text-anchor="middle" x="2140.5" y="-734.3" font-family="Times,serif" font-size="14.00" fill="white">ros cpp common</text>
</a>
</g>
</g>
<!-- ros&#45;rostime -->
<g id="node52" class="node">
<title>ros&#45;rostime</title>
<ellipse fill="#fde725" stroke="black" cx="2233.5" cy="-666" rx="64.5" ry="18"/>
<text text-anchor="middle" x="2233.5" y="-662.3" font-family="Times,serif" font-size="14.00">ros rostime</text>
</g>
<!-- ros&#45;cpp&#45;common&#45;&gt;ros&#45;rostime -->
<g id="edge47" class="edge">
<title>ros&#45;cpp&#45;common&#45;&gt;ros&#45;rostime</title>
<path fill="none" stroke="black" d="M2162.54,-720.41C2174.91,-711.1 2190.5,-699.37 2203.91,-689.27"/>
<polygon fill="black" stroke="black" points="2206.05,-692.04 2211.94,-683.23 2201.84,-686.45 2206.05,-692.04"/>
</g>
<!-- ros&#45;rosconsole -->
<g id="node53" class="node">
<title>ros&#45;rosconsole</title>
<ellipse fill="#fde725" stroke="black" cx="2186.5" cy="-594" rx="79.5" ry="18"/>
<text text-anchor="middle" x="2186.5" y="-590.3" font-family="Times,serif" font-size="14.00">ros rosconsole</text>
</g>
<!-- ros&#45;cpp&#45;common&#45;&gt;ros&#45;rosconsole -->
<g id="edge48" class="edge">
<title>ros&#45;cpp&#45;common&#45;&gt;ros&#45;rosconsole</title>
<path fill="none" stroke="black" d="M2142.79,-719.91C2145.54,-701.72 2150.89,-672.27 2159.5,-648 2162.71,-638.95 2167.15,-629.48 2171.5,-621.09"/>
<polygon fill="black" stroke="black" points="2174.65,-622.62 2176.31,-612.16 2168.49,-619.3 2174.65,-622.62"/>
</g>
<!-- ros&#45;rosbag&#45;storage -->
<g id="node54" class="node">
<title>ros&#45;rosbag&#45;storage</title>
<ellipse fill="#fde725" stroke="black" cx="1737.5" cy="-450" rx="99" ry="18"/>
<text text-anchor="middle" x="1737.5" y="-446.3" font-family="Times,serif" font-size="14.00">ros rosbag storage</text>
</g>
<!-- ros&#45;cpp&#45;common&#45;&gt;ros&#45;rosbag&#45;storage -->
<g id="edge49" class="edge">
<title>ros&#45;cpp&#45;common&#45;&gt;ros&#45;rosbag&#45;storage</title>
<path fill="none" stroke="black" d="M2212.71,-730.36C2245.68,-723.65 2282.61,-710.32 2306.5,-684 2361.05,-623.88 2392.32,-563.87 2337.5,-504 2305.03,-468.54 2009.59,-456.68 1845.75,-452.81"/>
<polygon fill="black" stroke="black" points="1845.71,-449.3 1835.63,-452.57 1845.55,-456.3 1845.71,-449.3"/>
</g>
<!-- ros&#45;rosbag -->
<g id="node55" class="node">
<title>ros&#45;rosbag</title>
<ellipse fill="#fde725" stroke="black" cx="1484.5" cy="-378" rx="60" ry="18"/>
<text text-anchor="middle" x="1484.5" y="-374.3" font-family="Times,serif" font-size="14.00">ros rosbag</text>
</g>
<!-- ros&#45;cpp&#45;common&#45;&gt;ros&#45;rosbag -->
<g id="edge50" class="edge">
<title>ros&#45;cpp&#45;common&#45;&gt;ros&#45;rosbag</title>
<path fill="none" stroke="black" d="M2064.64,-732.6C1852.49,-719.28 1268.5,-675.33 1268.5,-595 1268.5,-595 1268.5,-595 1268.5,-521 1268.5,-445.6 1361.54,-408.01 1425.49,-391.07"/>
<polygon fill="black" stroke="black" points="1426.66,-394.39 1435.49,-388.53 1424.93,-387.6 1426.66,-394.39"/>
</g>
<!-- ros&#45;dynamic&#45;reconfigure -->
<g id="node56" class="node">
<title>ros&#45;dynamic&#45;reconfigure</title>
<ellipse fill="#fde725" stroke="black" cx="1737.5" cy="-522" rx="123" ry="18"/>
<text text-anchor="middle" x="1737.5" y="-518.3" font-family="Times,serif" font-size="14.00">ros dynamic reconfigure</text>
</g>
<!-- ros&#45;cpp&#45;common&#45;&gt;ros&#45;dynamic&#45;reconfigure -->
<g id="edge51" class="edge">
<title>ros&#45;cpp&#45;common&#45;&gt;ros&#45;dynamic&#45;reconfigure</title>
<path fill="none" stroke="black" d="M2099.23,-722.52C2042.26,-701.74 1937.2,-660.58 1854.5,-612 1821.77,-592.77 1787.58,-565.84 1764.67,-546.65"/>
<polygon fill="black" stroke="black" points="1766.66,-543.75 1756.77,-539.96 1762.14,-549.1 1766.66,-543.75"/>
</g>
<!-- ros&#45;rostime&#45;&gt;ros&#45;rosconsole -->
<g id="edge52" class="edge">
<title>ros&#45;rostime&#45;&gt;ros&#45;rosconsole</title>
<path fill="none" stroke="black" d="M2222.12,-648.05C2216.61,-639.84 2209.86,-629.79 2203.73,-620.66"/>
<polygon fill="black" stroke="black" points="2206.58,-618.63 2198.1,-612.28 2200.77,-622.53 2206.58,-618.63"/>
</g>
<!-- ros&#45;rostime&#45;&gt;ros&#45;rosbag&#45;storage -->
<g id="edge53" class="edge">
<title>ros&#45;rostime&#45;&gt;ros&#45;rosbag&#45;storage</title>
<path fill="none" stroke="black" d="M2253.54,-648.69C2289.46,-617.57 2357.41,-548.83 2316.5,-504 2285.46,-469.98 2004.44,-457.53 1845.62,-453.19"/>
<polygon fill="black" stroke="black" points="1845.43,-449.68 1835.34,-452.91 1845.24,-456.68 1845.43,-449.68"/>
</g>
<!-- ros&#45;rostime&#45;&gt;ros&#45;rosbag -->
<g id="edge54" class="edge">
<title>ros&#45;rostime&#45;&gt;ros&#45;rosbag</title>
<path fill="none" stroke="black" d="M2269.42,-651.03C2287.1,-642.37 2307.21,-629.51 2319.5,-612 2338.28,-585.24 2331.15,-572.51 2334.5,-540 2336.14,-524.08 2341.89,-518.19 2334.5,-504 2308.69,-454.47 2284.15,-450.65 2231.5,-432 2107.98,-388.24 1715.84,-380.54 1554.69,-379.23"/>
<polygon fill="black" stroke="black" points="1554.44,-375.73 1544.41,-379.16 1554.38,-382.73 1554.44,-375.73"/>
</g>
<!-- ros&#45;actionlib -->
<g id="node57" class="node">
<title>ros&#45;actionlib</title>
<ellipse fill="#fde725" stroke="black" cx="1990.5" cy="-522" rx="74.19" ry="18"/>
<text text-anchor="middle" x="1990.5" y="-518.3" font-family="Times,serif" font-size="14.00">ros actionlib</text>
</g>
<!-- ros&#45;rostime&#45;&gt;ros&#45;actionlib -->
<g id="edge55" class="edge">
<title>ros&#45;rostime&#45;&gt;ros&#45;actionlib</title>
<path fill="none" stroke="black" d="M2191.13,-652.42C2163.45,-643.26 2127.08,-629.44 2097.5,-612 2066.31,-593.61 2034.97,-566.25 2014.34,-546.73"/>
<polygon fill="black" stroke="black" points="2016.62,-544.07 2006.99,-539.66 2011.78,-549.12 2016.62,-544.07"/>
</g>
<!-- ros&#45;rosconsole&#45;&gt;ros&#45;rosbag&#45;storage -->
<g id="edge56" class="edge">
<title>ros&#45;rosconsole&#45;&gt;ros&#45;rosbag&#45;storage</title>
<path fill="none" stroke="black" d="M2241,-580.77C2262.77,-572.93 2285.67,-560.27 2298.5,-540 2307.06,-526.48 2309.27,-515.83 2298.5,-504 2268.64,-471.19 1999.44,-458.27 1845.06,-453.52"/>
<polygon fill="black" stroke="black" points="1845.17,-450.02 1835.07,-453.22 1844.96,-457.02 1845.17,-450.02"/>
</g>
<!-- ros&#45;rosconsole&#45;&gt;ros&#45;rosbag -->
<g id="edge57" class="edge">
<title>ros&#45;rosconsole&#45;&gt;ros&#45;rosbag</title>
<path fill="none" stroke="black" d="M2249.51,-582.96C2274.72,-575.52 2301.34,-562.55 2316.5,-540 2325.43,-526.72 2326.92,-516.14 2316.5,-504 2218.2,-389.53 1736.71,-378.41 1554.52,-378.38"/>
<polygon fill="black" stroke="black" points="1554.51,-374.88 1544.51,-378.39 1554.52,-381.88 1554.51,-374.88"/>
</g>
<!-- ros&#45;rosconsole&#45;&gt;ros&#45;actionlib -->
<g id="edge58" class="edge">
<title>ros&#45;rosconsole&#45;&gt;ros&#45;actionlib</title>
<path fill="none" stroke="black" d="M2145.89,-578.5C2115.2,-567.54 2072.92,-552.44 2040.21,-540.75"/>
<polygon fill="black" stroke="black" points="2040.98,-537.31 2030.39,-537.25 2038.63,-543.91 2040.98,-537.31"/>
</g>
<!-- ros&#45;pluginlib -->
<g id="node58" class="node">
<title>ros&#45;pluginlib</title>
<ellipse fill="#fde725" stroke="black" cx="1484.5" cy="-522" rx="74.19" ry="18"/>
<text text-anchor="middle" x="1484.5" y="-518.3" font-family="Times,serif" font-size="14.00">ros pluginlib</text>
</g>
<!-- ros&#45;rosconsole&#45;&gt;ros&#45;pluginlib -->
<g id="edge59" class="edge">
<title>ros&#45;rosconsole&#45;&gt;ros&#45;pluginlib</title>
<path fill="none" stroke="black" d="M2114.46,-586.36C2080.24,-583.22 2038.76,-579.41 2001.5,-576 1825.51,-559.91 1781.06,-560.3 1605.5,-540 1589.36,-538.13 1572.04,-535.86 1555.7,-533.59"/>
<polygon fill="black" stroke="black" points="1556.06,-530.11 1545.67,-532.19 1555.09,-537.04 1556.06,-530.11"/>
</g>
<!-- ros&#45;message&#45;filters -->
<g id="node59" class="node">
<title>ros&#45;message&#45;filters</title>
<ellipse fill="#fde725" stroke="black" cx="2186.5" cy="-522" rx="103.5" ry="18"/>
<text text-anchor="middle" x="2186.5" y="-518.3" font-family="Times,serif" font-size="14.00">ros message filters</text>
</g>
<!-- ros&#45;rosconsole&#45;&gt;ros&#45;message&#45;filters -->
<g id="edge60" class="edge">
<title>ros&#45;rosconsole&#45;&gt;ros&#45;message&#45;filters</title>
<path fill="none" stroke="black" d="M2186.5,-575.7C2186.5,-567.98 2186.5,-558.71 2186.5,-550.11"/>
<polygon fill="black" stroke="black" points="2190,-550.1 2186.5,-540.1 2183,-550.1 2190,-550.1"/>
</g>
<!-- ros&#45;rosbag&#45;storage&#45;&gt;ros&#45;rosbag -->
<g id="edge61" class="edge">
<title>ros&#45;rosbag&#45;storage&#45;&gt;ros&#45;rosbag</title>
<path fill="none" stroke="black" d="M1685.39,-434.58C1642.04,-422.59 1580.62,-405.59 1537.13,-393.56"/>
<polygon fill="black" stroke="black" points="1537.88,-390.14 1527.31,-390.84 1536.02,-396.88 1537.88,-390.14"/>
</g>
<!-- ros&#45;pluginlib&#45;&gt;ros&#45;rosbag&#45;storage -->
<g id="edge65" class="edge">
<title>ros&#45;pluginlib&#45;&gt;ros&#45;rosbag&#45;storage</title>
<path fill="none" stroke="black" d="M1531.49,-508C1572.15,-496.75 1631.22,-480.4 1675.7,-468.1"/>
<polygon fill="black" stroke="black" points="1676.82,-471.42 1685.53,-465.38 1674.95,-464.67 1676.82,-471.42"/>
</g>
<!-- ros&#45;class&#45;loader -->
<g id="node60" class="node">
<title>ros&#45;class&#45;loader</title>
<g id="a_node60"><a xlink:href="https://github.com/conda-forge/ros-class-loader-feedstock/pull/2" xlink:title="ros class loader">
<ellipse fill="#31688e" stroke="black" cx="1385.5" cy="-594" rx="89.08" ry="18"/>
<text text-anchor="middle" x="1385.5" y="-590.3" font-family="Times,serif" font-size="14.00" fill="white">ros class loader</text>
</a>
</g>
</g>
<!-- ros&#45;class&#45;loader&#45;&gt;ros&#45;rosbag&#45;storage -->
<g id="edge62" class="edge">
<title>ros&#45;class&#45;loader&#45;&gt;ros&#45;rosbag&#45;storage</title>
<path fill="none" stroke="black" d="M1383.25,-575.94C1381.63,-555.79 1382.43,-522.67 1401.5,-504 1433.42,-472.76 1544.92,-459.93 1630.82,-454.67"/>
<polygon fill="black" stroke="black" points="1631.12,-458.16 1640.9,-454.08 1630.71,-451.17 1631.12,-458.16"/>
</g>
<!-- ros&#45;class&#45;loader&#45;&gt;ros&#45;rosbag -->
<g id="edge63" class="edge">
<title>ros&#45;class&#45;loader&#45;&gt;ros&#45;rosbag</title>
<path fill="none" stroke="black" d="M1377.16,-575.87C1363.23,-544.56 1339.48,-477.16 1368.5,-432 1381.38,-411.96 1403.92,-399.4 1425.72,-391.58"/>
<polygon fill="black" stroke="black" points="1426.92,-394.87 1435.32,-388.41 1424.73,-388.22 1426.92,-394.87"/>
</g>
<!-- ros&#45;class&#45;loader&#45;&gt;ros&#45;pluginlib -->
<g id="edge64" class="edge">
<title>ros&#45;class&#45;loader&#45;&gt;ros&#45;pluginlib</title>
<path fill="none" stroke="black" d="M1408.71,-576.59C1421.99,-567.2 1438.83,-555.29 1453.26,-545.09"/>
<polygon fill="black" stroke="black" points="1455.29,-547.94 1461.43,-539.31 1451.25,-542.22 1455.29,-547.94"/>
</g>
<!-- ros&#45;roslib -->
<g id="node61" class="node">
<title>ros&#45;roslib</title>
<g id="a_node61"><a xlink:href="https://github.com/conda-forge/ros-roslib-feedstock/pull/6" xlink:title="ros roslib">
<ellipse fill="#31688e" stroke="black" cx="1586.5" cy="-594" rx="60" ry="18"/>
<text text-anchor="middle" x="1586.5" y="-590.3" font-family="Times,serif" font-size="14.00" fill="white">ros roslib</text>
</a>
</g>
</g>
<!-- ros&#45;roslib&#45;&gt;ros&#45;rosbag&#45;storage -->
<g id="edge66" class="edge">
<title>ros&#45;roslib&#45;&gt;ros&#45;rosbag&#45;storage</title>
<path fill="none" stroke="black" d="M1585.63,-575.88C1585.57,-556.29 1588.41,-524.31 1605.5,-504 1620.12,-486.63 1641.26,-474.9 1662.35,-467"/>
<polygon fill="black" stroke="black" points="1663.72,-470.23 1672.01,-463.64 1661.42,-463.62 1663.72,-470.23"/>
</g>
<!-- ros&#45;roslib&#45;&gt;ros&#45;rosbag -->
<g id="edge67" class="edge">
<title>ros&#45;roslib&#45;&gt;ros&#45;rosbag</title>
<path fill="none" stroke="black" d="M1533.83,-585.07C1484.98,-576.52 1417.49,-561.21 1401.5,-540 1367.71,-495.17 1421.4,-434.58 1457,-402.01"/>
<polygon fill="black" stroke="black" points="1459.59,-404.39 1464.72,-395.12 1454.93,-399.16 1459.59,-404.39"/>
</g>
<!-- ros&#45;roslib&#45;&gt;ros&#45;dynamic&#45;reconfigure -->
<g id="edge68" class="edge">
<title>ros&#45;roslib&#45;&gt;ros&#45;dynamic&#45;reconfigure</title>
<path fill="none" stroke="black" d="M1617.79,-578.5C1639.52,-568.42 1668.8,-554.85 1692.97,-543.64"/>
<polygon fill="black" stroke="black" points="1694.69,-546.7 1702.29,-539.32 1691.74,-540.35 1694.69,-546.7"/>
</g>
<!-- ros&#45;roslib&#45;&gt;ros&#45;actionlib -->
<g id="edge69" class="edge">
<title>ros&#45;roslib&#45;&gt;ros&#45;actionlib</title>
<path fill="none" stroke="black" d="M1637.26,-584.21C1709.3,-571.72 1841.41,-548.83 1922.06,-534.86"/>
<polygon fill="black" stroke="black" points="1922.86,-538.27 1932.11,-533.12 1921.66,-531.38 1922.86,-538.27"/>
</g>
<!-- ros&#45;roslib&#45;&gt;ros&#45;pluginlib -->
<g id="edge70" class="edge">
<title>ros&#45;roslib&#45;&gt;ros&#45;pluginlib</title>
<path fill="none" stroke="black" d="M1563.61,-577.29C1549.76,-567.79 1531.9,-555.53 1516.65,-545.06"/>
<polygon fill="black" stroke="black" points="1518.25,-541.92 1508.02,-539.14 1514.29,-547.69 1518.25,-541.92"/>
</g>
<!-- ros&#45;rostest -->
<g id="node62" class="node">
<title>ros&#45;rostest</title>
<g id="a_node62"><a xlink:href="https://github.com/conda-forge/ros-rostest-feedstock/pull/2" xlink:title="ros rostest">
<ellipse fill="#31688e" stroke="black" cx="1928.5" cy="-594" rx="64.5" ry="18"/>
<text text-anchor="middle" x="1928.5" y="-590.3" font-family="Times,serif" font-size="14.00" fill="white">ros rostest</text>
</a>
</g>
</g>
<!-- ros&#45;rostest&#45;&gt;ros&#45;rosbag&#45;storage -->
<g id="edge71" class="edge">
<title>ros&#45;rostest&#45;&gt;ros&#45;rosbag&#45;storage</title>
<path fill="none" stroke="black" d="M1921.11,-576.01C1911.72,-556.24 1893.79,-523.79 1869.5,-504 1850.07,-488.17 1825.29,-476.56 1802.47,-468.31"/>
<polygon fill="black" stroke="black" points="1803.42,-464.94 1792.83,-464.98 1801.14,-471.56 1803.42,-464.94"/>
</g>
<!-- ros&#45;rostest&#45;&gt;ros&#45;dynamic&#45;reconfigure -->
<g id="edge72" class="edge">
<title>ros&#45;rostest&#45;&gt;ros&#45;dynamic&#45;reconfigure</title>
<path fill="none" stroke="black" d="M1890.76,-579.17C1862.09,-568.66 1822.3,-554.08 1790.44,-542.4"/>
<polygon fill="black" stroke="black" points="1791.43,-539.04 1780.83,-538.88 1789.02,-545.61 1791.43,-539.04"/>
</g>
<!-- ros&#45;rostest&#45;&gt;ros&#45;actionlib -->
<g id="edge73" class="edge">
<title>ros&#45;rostest&#45;&gt;ros&#45;actionlib</title>
<path fill="none" stroke="black" d="M1943.19,-576.41C1950.8,-567.82 1960.24,-557.16 1968.69,-547.63"/>
<polygon fill="black" stroke="black" points="1971.47,-549.76 1975.48,-539.96 1966.23,-545.12 1971.47,-549.76"/>
</g>
<!-- ros&#45;rostest&#45;&gt;ros&#45;message&#45;filters -->
<g id="edge74" class="edge">
<title>ros&#45;rostest&#45;&gt;ros&#45;message&#45;filters</title>
<path fill="none" stroke="black" d="M1973.15,-580.89C2014.62,-569.63 2076.8,-552.76 2123.35,-540.13"/>
<polygon fill="black" stroke="black" points="2124.3,-543.5 2133.03,-537.51 2122.47,-536.75 2124.3,-543.5"/>
</g>
<!-- gazebo -->
<g id="node63" class="node">
<title>gazebo</title>
<g id="a_node63"><a xlink:href="https://github.com/conda-forge/gazebo-feedstock/pull/6" xlink:title="gazebo">
<ellipse fill="#31688e" stroke="black" cx="2592.5" cy="-738" rx="40.5" ry="18"/>
<text text-anchor="middle" x="2592.5" y="-734.3" font-family="Times,serif" font-size="14.00" fill="white">gazebo</text>
</a>
</g>
</g>
<!-- gnuradio -->
<g id="node64" class="node">
<title>gnuradio</title>
<g id="a_node64"><a xlink:href="https://github.com/conda-forge/gnuradio-feedstock/pull/6" xlink:title="gnuradio">
<ellipse fill="#31688e" stroke="black" cx="2592.5" cy="-666" rx="50.09" ry="18"/>
<text text-anchor="middle" x="2592.5" y="-662.3" font-family="Times,serif" font-size="14.00" fill="white">gnuradio</text>
</a>
</g>
</g>
<!-- gazebo&#45;&gt;gnuradio -->
<!-- moldyn&#45;clustering -->
<g id="node65" class="node">
<title>moldyn&#45;clustering</title>
<g id="a_node65"><a xlink:href="https://github.com/conda-forge/moldyn-clustering-feedstock/pull/2" xlink:title="moldyn clustering">
<ellipse fill="#31688e" stroke="black" cx="2592.5" cy="-594" rx="93.68" ry="18"/>
<text text-anchor="middle" x="2592.5" y="-590.3" font-family="Times,serif" font-size="14.00" fill="white">moldyn clustering</text>
</a>
</g>
</g>
<!-- gnuradio&#45;&gt;moldyn&#45;clustering -->
</g>
</svg>
