<?xml version="1.0" encoding="UTF-8" standalone="no"?>
<!DOCTYPE svg PUBLIC "-//W3C//DTD SVG 1.1//EN"
 "http://www.w3.org/Graphics/SVG/1.1/DTD/svg11.dtd">
<!-- Generated by graphviz version 2.42.3 (20191010.1750)
 -->
<!-- Title: %3 Pages: 1 -->
<svg width="2977pt" height="764pt"
 viewBox="0.00 0.00 2976.59 764.00" xmlns="http://www.w3.org/2000/svg" xmlns:xlink="http://www.w3.org/1999/xlink">
<g id="graph0" class="graph" transform="scale(1 1) rotate(0) translate(4 760)">
<title>%3</title>
<polygon fill="white" stroke="transparent" points="-4,4 -4,-760 2972.59,-760 2972.59,4 -4,4"/>
<!-- boost -->
<g id="node1" class="node">
<title>boost</title>
<ellipse fill="#fde725" stroke="black" cx="216.05" cy="-738" rx="35.19" ry="18"/>
<text text-anchor="middle" x="216.05" y="-734.3" font-family="Times,serif" font-size="14.00">boost</text>
</g>
<!-- pygmo -->
<g id="node2" class="node">
<title>pygmo</title>
<ellipse fill="#fde725" stroke="black" cx="279.05" cy="-666" rx="35.19" ry="18"/>
<text text-anchor="middle" x="279.05" y="-662.3" font-family="Times,serif" font-size="14.00">pygmo</text>
</g>
<!-- boost&#45;&gt;pygmo -->
<g id="edge1" class="edge">
<title>boost&#45;&gt;pygmo</title>
<path fill="none" stroke="black" d="M230.03,-721.46C238.23,-712.35 248.76,-700.65 257.95,-690.43"/>
<polygon fill="black" stroke="black" points="260.58,-692.75 264.67,-682.98 255.37,-688.07 260.58,-692.75"/>
</g>
<!-- pykep -->
<g id="node3" class="node">
<title>pykep</title>
<ellipse fill="#fde725" stroke="black" cx="115.05" cy="-594" rx="35.19" ry="18"/>
<text text-anchor="middle" x="115.05" y="-590.3" font-family="Times,serif" font-size="14.00">pykep</text>
</g>
<!-- boost&#45;&gt;pykep -->
<g id="edge2" class="edge">
<title>boost&#45;&gt;pykep</title>
<path fill="none" stroke="black" d="M198.9,-721.8C188.12,-711.73 174.36,-697.86 164.05,-684 149.32,-664.21 136.06,-639.48 127.06,-621.11"/>
<polygon fill="black" stroke="black" points="130.12,-619.39 122.63,-611.89 123.8,-622.42 130.12,-619.39"/>
</g>
<!-- turbodbc -->
<g id="node4" class="node">
<title>turbodbc</title>
<ellipse fill="#fde725" stroke="black" cx="50.05" cy="-666" rx="50.09" ry="18"/>
<text text-anchor="middle" x="50.05" y="-662.3" font-family="Times,serif" font-size="14.00">turbodbc</text>
</g>
<!-- boost&#45;&gt;turbodbc -->
<g id="edge3" class="edge">
<title>boost&#45;&gt;turbodbc</title>
<path fill="none" stroke="black" d="M189.74,-725.91C163.18,-714.71 121.78,-697.25 90.93,-684.24"/>
<polygon fill="black" stroke="black" points="91.89,-680.85 81.32,-680.19 89.17,-687.3 91.89,-680.85"/>
</g>
<!-- multineat -->
<g id="node5" class="node">
<title>multineat</title>
<ellipse fill="#fde725" stroke="black" cx="133.05" cy="-522" rx="54.69" ry="18"/>
<text text-anchor="middle" x="133.05" y="-518.3" font-family="Times,serif" font-size="14.00">multineat</text>
</g>
<!-- boost&#45;&gt;multineat -->
<g id="edge4" class="edge">
<title>boost&#45;&gt;multineat</title>
<path fill="none" stroke="black" d="M210.69,-719.83C201.27,-690.13 180.66,-627.38 159.05,-576 155.29,-567.08 150.77,-557.52 146.56,-549.02"/>
<polygon fill="black" stroke="black" points="149.61,-547.31 141.99,-539.95 143.36,-550.46 149.61,-547.31"/>
</g>
<!-- esys&#45;escript -->
<g id="node6" class="node">
<title>esys&#45;escript</title>
<ellipse fill="#fde725" stroke="black" cx="216.05" cy="-450" rx="69.59" ry="18"/>
<text text-anchor="middle" x="216.05" y="-446.3" font-family="Times,serif" font-size="14.00">esys escript</text>
</g>
<!-- boost&#45;&gt;esys&#45;escript -->
<g id="edge5" class="edge">
<title>boost&#45;&gt;esys&#45;escript</title>
<path fill="none" stroke="black" d="M216.05,-719.97C216.05,-672.29 216.05,-537.18 216.05,-478.63"/>
<polygon fill="black" stroke="black" points="219.55,-478.31 216.05,-468.31 212.55,-478.31 219.55,-478.31"/>
</g>
<!-- graph&#45;tool -->
<g id="node7" class="node">
<title>graph&#45;tool</title>
<ellipse fill="#fde725" stroke="black" cx="460.05" cy="-378" rx="60" ry="18"/>
<text text-anchor="middle" x="460.05" y="-374.3" font-family="Times,serif" font-size="14.00">graph tool</text>
</g>
<!-- boost&#45;&gt;graph&#45;tool -->
<g id="edge6" class="edge">
<title>boost&#45;&gt;graph&#45;tool</title>
<path fill="none" stroke="black" d="M250.1,-733.42C306.26,-726.82 414.72,-710.88 441.05,-684 469.34,-655.1 460.05,-635.45 460.05,-595 460.05,-595 460.05,-595 460.05,-521 460.05,-481 460.05,-434.65 460.05,-406.08"/>
<polygon fill="black" stroke="black" points="463.55,-406.05 460.05,-396.05 456.55,-406.05 463.55,-406.05"/>
</g>
<!-- dcgp&#45;python -->
<g id="node8" class="node">
<title>dcgp&#45;python</title>
<ellipse fill="#fde725" stroke="black" cx="342.05" cy="-594" rx="64.5" ry="18"/>
<text text-anchor="middle" x="342.05" y="-590.3" font-family="Times,serif" font-size="14.00">dcgp python</text>
</g>
<!-- boost&#45;&gt;dcgp&#45;python -->
<g id="edge7" class="edge">
<title>boost&#45;&gt;dcgp&#45;python</title>
<path fill="none" stroke="black" d="M247.55,-729.44C271.84,-721.97 304.35,-708.06 323.05,-684 336.64,-666.5 341.04,-641.46 342.24,-622.4"/>
<polygon fill="black" stroke="black" points="345.75,-622.36 342.62,-612.24 338.75,-622.1 345.75,-622.36"/>
</g>
<!-- pygmo&#45;&gt;dcgp&#45;python -->
<g id="edge8" class="edge">
<title>pygmo&#45;&gt;dcgp&#45;python</title>
<path fill="none" stroke="black" d="M293.03,-649.46C300.92,-640.69 310.97,-629.53 319.91,-619.6"/>
<polygon fill="black" stroke="black" points="322.69,-621.74 326.78,-611.96 317.49,-617.05 322.69,-621.74"/>
</g>
<!-- cyclus -->
<g id="node9" class="node">
<title>cyclus</title>
<g id="a_node9"><a xlink:href="https://github.com/conda-forge/cyclus-feedstock/pull/54" xlink:title="cyclus">
<ellipse fill="#31688e" stroke="black" cx="569.05" cy="-738" rx="40.5" ry="18"/>
<text text-anchor="middle" x="569.05" y="-734.3" font-family="Times,serif" font-size="14.00" fill="white">cyclus</text>
</a>
</g>
</g>
<!-- dionysus -->
<g id="node10" class="node">
<title>dionysus</title>
<g id="a_node10"><a xlink:href="https://github.com/conda-forge/dionysus-feedstock/pull/7" xlink:title="dionysus">
<ellipse fill="#31688e" stroke="black" cx="569.05" cy="-666" rx="50.09" ry="18"/>
<text text-anchor="middle" x="569.05" y="-662.3" font-family="Times,serif" font-size="14.00" fill="white">dionysus</text>
</a>
</g>
</g>
<!-- cyclus&#45;&gt;dionysus -->
<!-- libradolan -->
<g id="node11" class="node">
<title>libradolan</title>
<g id="a_node11"><a xlink:href="https://github.com/conda-forge/libradolan-feedstock/pull/22" xlink:title="libradolan">
<ellipse fill="#31688e" stroke="black" cx="569.05" cy="-594" rx="60" ry="18"/>
<text text-anchor="middle" x="569.05" y="-590.3" font-family="Times,serif" font-size="14.00" fill="white">libradolan</text>
</a>
</g>
</g>
<!-- dionysus&#45;&gt;libradolan -->
<!-- msgpack&#45;c -->
<g id="node16" class="node">
<title>msgpack&#45;c</title>
<g id="a_node16"><a xlink:href="https://github.com/conda-forge/msgpack-c-feedstock/pull/17" xlink:title="msgpack c">
<ellipse fill="#31688e" stroke="black" cx="569.05" cy="-522" rx="54.69" ry="18"/>
<text text-anchor="middle" x="569.05" y="-518.3" font-family="Times,serif" font-size="14.00" fill="white">msgpack c</text>
</a>
</g>
</g>
<!-- libradolan&#45;&gt;msgpack&#45;c -->
<!-- fenics -->
<g id="node12" class="node">
<title>fenics</title>
<g id="a_node12"><a xlink:href="https://github.com/conda-forge/fenics-feedstock/pull/106" xlink:title="fenics">
<ellipse fill="#31688e" stroke="black" cx="668.05" cy="-738" rx="40.5" ry="18"/>
<text text-anchor="middle" x="668.05" y="-734.3" font-family="Times,serif" font-size="14.00" fill="white">fenics</text>
</a>
</g>
</g>
<!-- mshr -->
<g id="node13" class="node">
<title>mshr</title>
<ellipse fill="#fde725" stroke="black" cx="668.05" cy="-666" rx="30.59" ry="18"/>
<text text-anchor="middle" x="668.05" y="-662.3" font-family="Times,serif" font-size="14.00">mshr</text>
</g>
<!-- fenics&#45;&gt;mshr -->
<g id="edge11" class="edge">
<title>fenics&#45;&gt;mshr</title>
<path fill="none" stroke="black" d="M668.05,-719.7C668.05,-711.98 668.05,-702.71 668.05,-694.11"/>
<polygon fill="black" stroke="black" points="671.55,-694.1 668.05,-684.1 664.55,-694.1 671.55,-694.1"/>
</g>
<!-- gap -->
<g id="node14" class="node">
<title>gap</title>
<ellipse fill="#fde725" stroke="black" cx="777.05" cy="-666" rx="27" ry="18"/>
<text text-anchor="middle" x="777.05" y="-662.3" font-family="Times,serif" font-size="14.00">gap</text>
</g>
<!-- sagelib -->
<g id="node15" class="node">
<title>sagelib</title>
<ellipse fill="#fde725" stroke="black" cx="777.05" cy="-594" rx="45" ry="18"/>
<text text-anchor="middle" x="777.05" y="-590.3" font-family="Times,serif" font-size="14.00">sagelib</text>
</g>
<!-- gap&#45;&gt;sagelib -->
<g id="edge12" class="edge">
<title>gap&#45;&gt;sagelib</title>
<path fill="none" stroke="black" d="M777.05,-647.7C777.05,-639.98 777.05,-630.71 777.05,-622.11"/>
<polygon fill="black" stroke="black" points="780.55,-622.1 777.05,-612.1 773.55,-622.1 780.55,-622.1"/>
</g>
<!-- openturns -->
<g id="node17" class="node">
<title>openturns</title>
<g id="a_node17"><a xlink:href="https://github.com/conda-forge/openturns-feedstock/pull/99" xlink:title="openturns">
<ellipse fill="#31688e" stroke="black" cx="569.05" cy="-450" rx="54.69" ry="18"/>
<text text-anchor="middle" x="569.05" y="-446.3" font-family="Times,serif" font-size="14.00" fill="white">openturns</text>
</a>
</g>
</g>
<!-- msgpack&#45;c&#45;&gt;openturns -->
<!-- pyne -->
<g id="node18" class="node">
<title>pyne</title>
<g id="a_node18"><a xlink:href="https://github.com/conda-forge/pyne-feedstock/pull/38" xlink:title="pyne">
<ellipse fill="#31688e" stroke="black" cx="569.05" cy="-378" rx="30.59" ry="18"/>
<text text-anchor="middle" x="569.05" y="-374.3" font-family="Times,serif" font-size="14.00" fill="white">pyne</text>
</a>
</g>
</g>
<!-- openturns&#45;&gt;pyne -->
<!-- rank_filter -->
<g id="node20" class="node">
<title>rank_filter</title>
<g id="a_node20"><a xlink:href="https://github.com/conda-forge/rank_filter-feedstock/pull/43" xlink:title="rank_filter">
<ellipse fill="#31688e" stroke="black" cx="569.05" cy="-306" rx="64.5" ry="18"/>
<text text-anchor="middle" x="569.05" y="-302.3" font-family="Times,serif" font-size="14.00" fill="white">rank_filter</text>
</a>
</g>
</g>
<!-- pyne&#45;&gt;rank_filter -->
<!-- pyarrow -->
<g id="node19" class="node">
<title>pyarrow</title>
<g id="a_node19"><a xlink:href="https://github.com/conda-forge/pyarrow-feedstock/pull/100" xlink:title="pyarrow">
<ellipse fill="#31688e" stroke="black" cx="50.05" cy="-738" rx="45" ry="18"/>
<text text-anchor="middle" x="50.05" y="-734.3" font-family="Times,serif" font-size="14.00" fill="white">pyarrow</text>
</a>
</g>
</g>
<!-- pyarrow&#45;&gt;turbodbc -->
<g id="edge16" class="edge">
<title>pyarrow&#45;&gt;turbodbc</title>
<path fill="none" stroke="black" d="M50.05,-719.7C50.05,-711.98 50.05,-702.71 50.05,-694.11"/>
<polygon fill="black" stroke="black" points="53.55,-694.1 50.05,-684.1 46.55,-694.1 53.55,-694.1"/>
</g>
<!-- rsgislib -->
<g id="node21" class="node">
<title>rsgislib</title>
<g id="a_node21"><a xlink:href="https://github.com/conda-forge/rsgislib-feedstock/pull/28" xlink:title="rsgislib">
<ellipse fill="#31688e" stroke="black" cx="569.05" cy="-234" rx="50.09" ry="18"/>
<text text-anchor="middle" x="569.05" y="-230.3" font-family="Times,serif" font-size="14.00" fill="white">rsgislib</text>
</a>
</g>
</g>
<!-- rank_filter&#45;&gt;rsgislib -->
<!-- clblas -->
<g id="node22" class="node">
<title>clblas</title>
<g id="a_node22"><a xlink:href="https://github.com/conda-forge/clblas-feedstock/pull/9" xlink:title="clblas">
<ellipse fill="#31688e" stroke="black" cx="569.05" cy="-162" rx="40.5" ry="18"/>
<text text-anchor="middle" x="569.05" y="-158.3" font-family="Times,serif" font-size="14.00" fill="white">clblas</text>
</a>
</g>
</g>
<!-- rsgislib&#45;&gt;clblas -->
<!-- clfft -->
<g id="node24" class="node">
<title>clfft</title>
<g id="a_node24"><a xlink:href="https://github.com/conda-forge/clfft-feedstock/pull/9" xlink:title="clfft">
<ellipse fill="#31688e" stroke="black" cx="569.05" cy="-90" rx="35.19" ry="18"/>
<text text-anchor="middle" x="569.05" y="-86.3" font-family="Times,serif" font-size="14.00" fill="white">clfft</text>
</a>
</g>
</g>
<!-- clblas&#45;&gt;clfft -->
<!-- audi -->
<g id="node23" class="node">
<title>audi</title>
<g id="a_node23"><a xlink:href="https://github.com/conda-forge/audi-feedstock/pull/16" xlink:title="audi">
<ellipse fill="#31688e" stroke="black" cx="401.05" cy="-666" rx="30.59" ry="18"/>
<text text-anchor="middle" x="401.05" y="-662.3" font-family="Times,serif" font-size="14.00" fill="white">audi</text>
</a>
</g>
</g>
<!-- audi&#45;&gt;dcgp&#45;python -->
<g id="edge20" class="edge">
<title>audi&#45;&gt;dcgp&#45;python</title>
<path fill="none" stroke="black" d="M387.95,-649.46C380.63,-640.78 371.33,-629.75 363.03,-619.89"/>
<polygon fill="black" stroke="black" points="365.46,-617.35 356.34,-611.96 360.11,-621.86 365.46,-617.35"/>
</g>
<!-- clsparse -->
<g id="node25" class="node">
<title>clsparse</title>
<g id="a_node25"><a xlink:href="https://github.com/conda-forge/clsparse-feedstock/pull/7" xlink:title="clsparse">
<ellipse fill="#31688e" stroke="black" cx="569.05" cy="-18" rx="50.09" ry="18"/>
<text text-anchor="middle" x="569.05" y="-14.3" font-family="Times,serif" font-size="14.00" fill="white">clsparse</text>
</a>
</g>
</g>
<!-- clfft&#45;&gt;clsparse -->
<!-- spdlib -->
<g id="node26" class="node">
<title>spdlib</title>
<g id="a_node26"><a xlink:href="https://github.com/conda-forge/spdlib-feedstock/pull/11" xlink:title="spdlib">
<ellipse fill="#31688e" stroke="black" cx="890.05" cy="-738" rx="40.5" ry="18"/>
<text text-anchor="middle" x="890.05" y="-734.3" font-family="Times,serif" font-size="14.00" fill="white">spdlib</text>
</a>
</g>
</g>
<!-- pcl -->
<g id="node27" class="node">
<title>pcl</title>
<g id="a_node27"><a xlink:href="https://github.com/conda-forge/pcl-feedstock/pull/20" xlink:title="pcl">
<ellipse fill="#31688e" stroke="black" cx="890.05" cy="-666" rx="27" ry="18"/>
<text text-anchor="middle" x="890.05" y="-662.3" font-family="Times,serif" font-size="14.00" fill="white">pcl</text>
</a>
</g>
</g>
<!-- spdlib&#45;&gt;pcl -->
<!-- trilinos -->
<g id="node30" class="node">
<title>trilinos</title>
<g id="a_node30"><a xlink:href="https://github.com/conda-forge/trilinos-feedstock/pull/29" xlink:title="trilinos">
<ellipse fill="#31688e" stroke="black" cx="890.05" cy="-594" rx="50.09" ry="18"/>
<text text-anchor="middle" x="890.05" y="-590.3" font-family="Times,serif" font-size="14.00" fill="white">trilinos</text>
</a>
</g>
</g>
<!-- pcl&#45;&gt;trilinos -->
<!-- smesh -->
<g id="node28" class="node">
<title>smesh</title>
<g id="a_node28"><a xlink:href="https://github.com/conda-forge/smesh-feedstock/pull/29" xlink:title="smesh">
<ellipse fill="#31688e" stroke="black" cx="984.05" cy="-738" rx="35.19" ry="18"/>
<text text-anchor="middle" x="984.05" y="-734.3" font-family="Times,serif" font-size="14.00" fill="white">smesh</text>
</a>
</g>
</g>
<!-- freecad -->
<g id="node29" class="node">
<title>freecad</title>
<ellipse fill="#fde725" stroke="black" cx="984.05" cy="-666" rx="45" ry="18"/>
<text text-anchor="middle" x="984.05" y="-662.3" font-family="Times,serif" font-size="14.00">freecad</text>
</g>
<!-- smesh&#45;&gt;freecad -->
<g id="edge24" class="edge">
<title>smesh&#45;&gt;freecad</title>
<path fill="none" stroke="black" d="M984.05,-719.7C984.05,-711.98 984.05,-702.71 984.05,-694.11"/>
<polygon fill="black" stroke="black" points="987.55,-694.1 984.05,-684.1 980.55,-694.1 987.55,-694.1"/>
</g>
<!-- libhdfs3 -->
<g id="node31" class="node">
<title>libhdfs3</title>
<g id="a_node31"><a xlink:href="https://github.com/conda-forge/libhdfs3-feedstock/pull/31" xlink:title="libhdfs3">
<ellipse fill="#31688e" stroke="black" cx="890.05" cy="-522" rx="50.09" ry="18"/>
<text text-anchor="middle" x="890.05" y="-518.3" font-family="Times,serif" font-size="14.00" fill="white">libhdfs3</text>
</a>
</g>
</g>
<!-- trilinos&#45;&gt;libhdfs3 -->
<!-- helics -->
<g id="node32" class="node">
<title>helics</title>
<g id="a_node32"><a xlink:href="https://github.com/conda-forge/helics-feedstock/pull/17" xlink:title="helics">
<ellipse fill="#31688e" stroke="black" cx="890.05" cy="-450" rx="40.5" ry="18"/>
<text text-anchor="middle" x="890.05" y="-446.3" font-family="Times,serif" font-size="14.00" fill="white">helics</text>
</a>
</g>
</g>
<!-- libhdfs3&#45;&gt;helics -->
<!-- nds2&#45;client -->
<g id="node33" class="node">
<title>nds2&#45;client</title>
<g id="a_node33"><a xlink:href="https://github.com/conda-forge/nds2-client-feedstock/pull/9" xlink:title="nds2 client">
<ellipse fill="#31688e" stroke="black" cx="890.05" cy="-378" rx="64.5" ry="18"/>
<text text-anchor="middle" x="890.05" y="-374.3" font-family="Times,serif" font-size="14.00" fill="white">nds2 client</text>
</a>
</g>
</g>
<!-- helics&#45;&gt;nds2&#45;client -->
<!-- gudhi -->
<g id="node34" class="node">
<title>gudhi</title>
<g id="a_node34"><a xlink:href="https://github.com/conda-forge/gudhi-feedstock/pull/16" xlink:title="gudhi">
<ellipse fill="#31688e" stroke="black" cx="890.05" cy="-306" rx="35.19" ry="18"/>
<text text-anchor="middle" x="890.05" y="-302.3" font-family="Times,serif" font-size="14.00" fill="white">gudhi</text>
</a>
</g>
</g>
<!-- nds2&#45;client&#45;&gt;gudhi -->
<!-- ldas&#45;tools&#45;diskcacheapi -->
<g id="node35" class="node">
<title>ldas&#45;tools&#45;diskcacheapi</title>
<g id="a_node35"><a xlink:href="https://github.com/conda-forge/ldas-tools-diskcacheapi-feedstock/pull/4" xlink:title="ldas tools diskcacheapi">
<ellipse fill="#31688e" stroke="black" cx="890.05" cy="-234" rx="123" ry="18"/>
<text text-anchor="middle" x="890.05" y="-230.3" font-family="Times,serif" font-size="14.00" fill="white">ldas tools diskcacheapi</text>
</a>
</g>
</g>
<!-- gudhi&#45;&gt;ldas&#45;tools&#45;diskcacheapi -->
<!-- libint -->
<g id="node36" class="node">
<title>libint</title>
<g id="a_node36"><a xlink:href="https://github.com/conda-forge/libint-feedstock/pull/5" xlink:title="libint">
<ellipse fill="#31688e" stroke="black" cx="890.05" cy="-162" rx="40.5" ry="18"/>
<text text-anchor="middle" x="890.05" y="-158.3" font-family="Times,serif" font-size="14.00" fill="white">libint</text>
</a>
</g>
</g>
<!-- ldas&#45;tools&#45;diskcacheapi&#45;&gt;libint -->
<!-- stir -->
<g id="node37" class="node">
<title>stir</title>
<g id="a_node37"><a xlink:href="https://github.com/conda-forge/stir-feedstock/pull/11" xlink:title="stir">
<ellipse fill="#31688e" stroke="black" cx="890.05" cy="-90" rx="30.59" ry="18"/>
<text text-anchor="middle" x="890.05" y="-86.3" font-family="Times,serif" font-size="14.00" fill="white">stir</text>
</a>
</g>
</g>
<!-- libint&#45;&gt;stir -->
<!-- dealii -->
<g id="node38" class="node">
<title>dealii</title>
<g id="a_node38"><a xlink:href="https://github.com/conda-forge/dealii-feedstock/pull/6" xlink:title="dealii">
<ellipse fill="#31688e" stroke="black" cx="890.05" cy="-18" rx="40.5" ry="18"/>
<text text-anchor="middle" x="890.05" y="-14.3" font-family="Times,serif" font-size="14.00" fill="white">dealii</text>
</a>
</g>
</g>
<!-- stir&#45;&gt;dealii -->
<!-- lhcb&#45;simpletools -->
<g id="node39" class="node">
<title>lhcb&#45;simpletools</title>
<g id="a_node39"><a xlink:href="https://github.com/conda-forge/lhcb-simpletools-feedstock/pull/4" xlink:title="lhcb simpletools">
<ellipse fill="#31688e" stroke="black" cx="1126.05" cy="-738" rx="89.08" ry="18"/>
<text text-anchor="middle" x="1126.05" y="-734.3" font-family="Times,serif" font-size="14.00" fill="white">lhcb simpletools</text>
</a>
</g>
</g>
<!-- omniscidb&#45;cpu -->
<g id="node40" class="node">
<title>omniscidb&#45;cpu</title>
<g id="a_node40"><a xlink:href="https://github.com/conda-forge/omniscidb-cpu-feedstock/pull/22" xlink:title="omniscidb cpu">
<ellipse fill="#31688e" stroke="black" cx="1126.05" cy="-666" rx="74.19" ry="18"/>
<text text-anchor="middle" x="1126.05" y="-662.3" font-family="Times,serif" font-size="14.00" fill="white">omniscidb cpu</text>
</a>
</g>
</g>
<!-- lhcb&#45;simpletools&#45;&gt;omniscidb&#45;cpu -->
<!-- ambertools -->
<g id="node41" class="node">
<title>ambertools</title>
<g id="a_node41"><a xlink:href="https://github.com/conda-forge/ambertools-feedstock/pull/25" xlink:title="ambertools">
<ellipse fill="#31688e" stroke="black" cx="1126.05" cy="-594" rx="60" ry="18"/>
<text text-anchor="middle" x="1126.05" y="-590.3" font-family="Times,serif" font-size="14.00" fill="white">ambertools</text>
</a>
</g>
</g>
<!-- omniscidb&#45;cpu&#45;&gt;ambertools -->
<!-- biorbd -->
<g id="node42" class="node">
<title>biorbd</title>
<g id="a_node42"><a xlink:href="https://github.com/conda-forge/biorbd-feedstock/pull/13" xlink:title="biorbd">
<ellipse fill="#31688e" stroke="black" cx="1126.05" cy="-522" rx="40.5" ry="18"/>
<text text-anchor="middle" x="1126.05" y="-518.3" font-family="Times,serif" font-size="14.00" fill="white">biorbd</text>
</a>
</g>
</g>
<!-- ambertools&#45;&gt;biorbd -->
<!-- topologytoolkit -->
<g id="node43" class="node">
<title>topologytoolkit</title>
<g id="a_node43"><a xlink:href="https://github.com/conda-forge/topologytoolkit-feedstock/pull/4" xlink:title="topologytoolkit">
<ellipse fill="#31688e" stroke="black" cx="1126.05" cy="-450" rx="84" ry="18"/>
<text text-anchor="middle" x="1126.05" y="-446.3" font-family="Times,serif" font-size="14.00" fill="white">topologytoolkit</text>
</a>
</g>
</g>
<!-- biorbd&#45;&gt;topologytoolkit -->
<!-- pyinterp -->
<g id="node50" class="node">
<title>pyinterp</title>
<g id="a_node50"><a xlink:href="https://github.com/conda-forge/pyinterp-feedstock/pull/15" xlink:title="pyinterp">
<ellipse fill="#31688e" stroke="black" cx="1126.05" cy="-378" rx="50.09" ry="18"/>
<text text-anchor="middle" x="1126.05" y="-374.3" font-family="Times,serif" font-size="14.00" fill="white">pyinterp</text>
</a>
</g>
</g>
<!-- topologytoolkit&#45;&gt;pyinterp -->
<!-- normaliz -->
<g id="node44" class="node">
<title>normaliz</title>
<g id="a_node44"><a xlink:href="https://github.com/conda-forge/normaliz-feedstock/pull/18" xlink:title="normaliz">
<ellipse fill="#31688e" stroke="black" cx="777.05" cy="-738" rx="50.09" ry="18"/>
<text text-anchor="middle" x="777.05" y="-734.3" font-family="Times,serif" font-size="14.00" fill="white">normaliz</text>
</a>
</g>
</g>
<!-- normaliz&#45;&gt;gap -->
<g id="edge38" class="edge">
<title>normaliz&#45;&gt;gap</title>
<path fill="none" stroke="black" d="M777.05,-719.7C777.05,-711.98 777.05,-702.71 777.05,-694.11"/>
<polygon fill="black" stroke="black" points="780.55,-694.1 777.05,-684.1 773.55,-694.1 780.55,-694.1"/>
</g>
<!-- xmscore -->
<g id="node45" class="node">
<title>xmscore</title>
<g id="a_node45"><a xlink:href="https://github.com/conda-forge/xmscore-feedstock/pull/4" xlink:title="xmscore">
<ellipse fill="#31688e" stroke="black" cx="1356.05" cy="-738" rx="45" ry="18"/>
<text text-anchor="middle" x="1356.05" y="-734.3" font-family="Times,serif" font-size="14.00" fill="white">xmscore</text>
</a>
</g>
</g>
<!-- xmsgrid -->
<g id="node46" class="node">
<title>xmsgrid</title>
<ellipse fill="#fde725" stroke="black" cx="1392.05" cy="-666" rx="45" ry="18"/>
<text text-anchor="middle" x="1392.05" y="-662.3" font-family="Times,serif" font-size="14.00">xmsgrid</text>
</g>
<!-- xmscore&#45;&gt;xmsgrid -->
<g id="edge39" class="edge">
<title>xmscore&#45;&gt;xmsgrid</title>
<path fill="none" stroke="black" d="M1364.76,-720.05C1368.96,-711.89 1374.09,-701.91 1378.76,-692.82"/>
<polygon fill="black" stroke="black" points="1381.95,-694.28 1383.41,-683.79 1375.73,-691.08 1381.95,-694.28"/>
</g>
<!-- xmsinterp -->
<g id="node47" class="node">
<title>xmsinterp</title>
<ellipse fill="#fde725" stroke="black" cx="1311.05" cy="-594" rx="54.69" ry="18"/>
<text text-anchor="middle" x="1311.05" y="-590.3" font-family="Times,serif" font-size="14.00">xmsinterp</text>
</g>
<!-- xmscore&#45;&gt;xmsinterp -->
<g id="edge40" class="edge">
<title>xmscore&#45;&gt;xmsinterp</title>
<path fill="none" stroke="black" d="M1350.07,-719.86C1346.49,-709.51 1341.91,-696.03 1338.05,-684 1331.35,-663.18 1324.19,-639.48 1318.92,-621.78"/>
<polygon fill="black" stroke="black" points="1322.25,-620.71 1316.06,-612.11 1315.54,-622.7 1322.25,-620.71"/>
</g>
<!-- xmsstamper -->
<g id="node48" class="node">
<title>xmsstamper</title>
<ellipse fill="#fde725" stroke="black" cx="1305.05" cy="-522" rx="60" ry="18"/>
<text text-anchor="middle" x="1305.05" y="-518.3" font-family="Times,serif" font-size="14.00">xmsstamper</text>
</g>
<!-- xmscore&#45;&gt;xmsstamper -->
<g id="edge41" class="edge">
<title>xmscore&#45;&gt;xmsstamper</title>
<path fill="none" stroke="black" d="M1335.52,-721.55C1309.17,-700.27 1264.73,-659.18 1247.05,-612 1241.43,-597.02 1240.59,-590.64 1247.05,-576 1252.43,-563.79 1262.17,-553.17 1272.15,-544.71"/>
<polygon fill="black" stroke="black" points="1274.46,-547.35 1280.13,-538.4 1270.11,-541.86 1274.46,-547.35"/>
</g>
<!-- xmsmesher -->
<g id="node49" class="node">
<title>xmsmesher</title>
<ellipse fill="#fde725" stroke="black" cx="1438.05" cy="-522" rx="54.69" ry="18"/>
<text text-anchor="middle" x="1438.05" y="-518.3" font-family="Times,serif" font-size="14.00">xmsmesher</text>
</g>
<!-- xmscore&#45;&gt;xmsmesher -->
<g id="edge42" class="edge">
<title>xmscore&#45;&gt;xmsmesher</title>
<path fill="none" stroke="black" d="M1390.58,-726.37C1410.61,-718.22 1434.17,-704.78 1446.05,-684 1470.09,-641.94 1457.96,-583.16 1447.58,-549.49"/>
<polygon fill="black" stroke="black" points="1450.88,-548.32 1444.46,-539.89 1444.23,-550.48 1450.88,-548.32"/>
</g>
<!-- xmsgrid&#45;&gt;xmsinterp -->
<g id="edge43" class="edge">
<title>xmsgrid&#45;&gt;xmsinterp</title>
<path fill="none" stroke="black" d="M1374.07,-649.46C1363.21,-640.08 1349.19,-627.96 1337.12,-617.54"/>
<polygon fill="black" stroke="black" points="1339.39,-614.87 1329.53,-610.98 1334.81,-620.16 1339.39,-614.87"/>
</g>
<!-- xmsgrid&#45;&gt;xmsstamper -->
<g id="edge44" class="edge">
<title>xmsgrid&#45;&gt;xmsstamper</title>
<path fill="none" stroke="black" d="M1392.33,-647.96C1391.88,-629.02 1388.82,-598.18 1375.05,-576 1366.94,-562.95 1354.38,-551.97 1342.11,-543.44"/>
<polygon fill="black" stroke="black" points="1344.01,-540.5 1333.73,-537.93 1340.17,-546.35 1344.01,-540.5"/>
</g>
<!-- xmsgrid&#45;&gt;xmsmesher -->
<g id="edge45" class="edge">
<title>xmsgrid&#45;&gt;xmsmesher</title>
<path fill="none" stroke="black" d="M1397.59,-647.87C1405.47,-623.56 1419.96,-578.82 1429.29,-550.01"/>
<polygon fill="black" stroke="black" points="1432.73,-550.78 1432.48,-540.19 1426.07,-548.62 1432.73,-550.78"/>
</g>
<!-- xmsinterp&#45;&gt;xmsstamper -->
<g id="edge46" class="edge">
<title>xmsinterp&#45;&gt;xmsstamper</title>
<path fill="none" stroke="black" d="M1309.56,-575.7C1308.9,-567.98 1308.11,-558.71 1307.37,-550.11"/>
<polygon fill="black" stroke="black" points="1310.85,-549.77 1306.51,-540.1 1303.88,-550.37 1310.85,-549.77"/>
</g>
<!-- xmsinterp&#45;&gt;xmsmesher -->
<g id="edge47" class="edge">
<title>xmsinterp&#45;&gt;xmsmesher</title>
<path fill="none" stroke="black" d="M1337.98,-578.15C1356.67,-567.85 1381.77,-554.02 1402.16,-542.78"/>
<polygon fill="black" stroke="black" points="1404.08,-545.72 1411.15,-537.82 1400.7,-539.59 1404.08,-545.72"/>
</g>
<!-- atomicrex -->
<g id="node51" class="node">
<title>atomicrex</title>
<g id="a_node51"><a xlink:href="https://github.com/conda-forge/atomicrex-feedstock/pull/2" xlink:title="atomicrex">
<ellipse fill="#31688e" stroke="black" cx="1126.05" cy="-306" rx="54.69" ry="18"/>
<text text-anchor="middle" x="1126.05" y="-302.3" font-family="Times,serif" font-size="14.00" fill="white">atomicrex</text>
</a>
</g>
</g>
<!-- pyinterp&#45;&gt;atomicrex -->
<!-- triqs -->
<g id="node52" class="node">
<title>triqs</title>
<g id="a_node52"><a xlink:href="https://github.com/conda-forge/triqs-feedstock/pull/4" xlink:title="triqs">
<ellipse fill="#31688e" stroke="black" cx="1126.05" cy="-234" rx="35.19" ry="18"/>
<text text-anchor="middle" x="1126.05" y="-230.3" font-family="Times,serif" font-size="14.00" fill="white">triqs</text>
</a>
</g>
</g>
<!-- atomicrex&#45;&gt;triqs -->
<!-- gazebo -->
<g id="node53" class="node">
<title>gazebo</title>
<g id="a_node53"><a xlink:href="https://github.com/conda-forge/gazebo-feedstock/pull/6" xlink:title="gazebo">
<ellipse fill="#31688e" stroke="black" cx="1126.05" cy="-162" rx="40.5" ry="18"/>
<text text-anchor="middle" x="1126.05" y="-158.3" font-family="Times,serif" font-size="14.00" fill="white">gazebo</text>
</a>
</g>
</g>
<!-- triqs&#45;&gt;gazebo -->
<!-- gnuradio -->
<g id="node67" class="node">
<title>gnuradio</title>
<g id="a_node67"><a xlink:href="https://github.com/conda-forge/gnuradio-feedstock/pull/6" xlink:title="gnuradio">
<ellipse fill="#31688e" stroke="black" cx="1126.05" cy="-90" rx="50.09" ry="18"/>
<text text-anchor="middle" x="1126.05" y="-86.3" font-family="Times,serif" font-size="14.00" fill="white">gnuradio</text>
</a>
</g>
</g>
<!-- gazebo&#45;&gt;gnuradio -->
<!-- ros&#45;cpp&#45;common -->
<g id="node54" class="node">
<title>ros&#45;cpp&#45;common</title>
<g id="a_node54"><a xlink:href="https://github.com/conda-forge/ros-cpp-common-feedstock/pull/6" xlink:title="ros cpp common">
<ellipse fill="#31688e" stroke="black" cx="2540.05" cy="-738" rx="79.5" ry="18"/>
<text text-anchor="middle" x="2540.05" y="-734.3" font-family="Times,serif" font-size="14.00" fill="white">ros cpp common</text>
</a>
</g>
</g>
<!-- ros&#45;rostime -->
<g id="node55" class="node">
<title>ros&#45;rostime</title>
<ellipse fill="#fde725" stroke="black" cx="1955.05" cy="-666" rx="64.5" ry="18"/>
<text text-anchor="middle" x="1955.05" y="-662.3" font-family="Times,serif" font-size="14.00">ros rostime</text>
</g>
<!-- ros&#45;cpp&#45;common&#45;&gt;ros&#45;rostime -->
<g id="edge52" class="edge">
<title>ros&#45;cpp&#45;common&#45;&gt;ros&#45;rostime</title>
<path fill="none" stroke="black" d="M2471.51,-728.8C2358.86,-715.32 2135.89,-688.64 2023.38,-675.18"/>
<polygon fill="black" stroke="black" points="2023.51,-671.67 2013.17,-673.96 2022.68,-678.62 2023.51,-671.67"/>
</g>
<!-- ros&#45;rosconsole -->
<g id="node56" class="node">
<title>ros&#45;rosconsole</title>
<ellipse fill="#fde725" stroke="black" cx="1955.05" cy="-594" rx="79.5" ry="18"/>
<text text-anchor="middle" x="1955.05" y="-590.3" font-family="Times,serif" font-size="14.00">ros rosconsole</text>
</g>
<!-- ros&#45;cpp&#45;common&#45;&gt;ros&#45;rosconsole -->
<g id="edge53" class="edge">
<title>ros&#45;cpp&#45;common&#45;&gt;ros&#45;rosconsole</title>
<path fill="none" stroke="black" d="M2487.87,-724.34C2379.98,-698.15 2132.76,-638.14 2016.99,-610.04"/>
<polygon fill="black" stroke="black" points="2017.75,-606.62 2007.21,-607.66 2016.1,-613.42 2017.75,-606.62"/>
</g>
<!-- ros&#45;rosbag&#45;storage -->
<g id="node57" class="node">
<title>ros&#45;rosbag&#45;storage</title>
<ellipse fill="#fde725" stroke="black" cx="1839.05" cy="-450" rx="99" ry="18"/>
<text text-anchor="middle" x="1839.05" y="-446.3" font-family="Times,serif" font-size="14.00">ros rosbag storage</text>
</g>
<!-- ros&#45;cpp&#45;common&#45;&gt;ros&#45;rosbag&#45;storage -->
<g id="edge54" class="edge">
<title>ros&#45;cpp&#45;common&#45;&gt;ros&#45;rosbag&#45;storage</title>
<path fill="none" stroke="black" d="M2554.45,-720.16C2588.7,-678.06 2667.92,-567.06 2609.05,-504 2564.96,-456.77 2150.25,-450.62 1948.39,-450.46"/>
<polygon fill="black" stroke="black" points="1948.35,-446.96 1938.35,-450.46 1948.35,-453.96 1948.35,-446.96"/>
</g>
<!-- ros&#45;rosbag -->
<g id="node58" class="node">
<title>ros&#45;rosbag</title>
<ellipse fill="#fde725" stroke="black" cx="1756.05" cy="-378" rx="60" ry="18"/>
<text text-anchor="middle" x="1756.05" y="-374.3" font-family="Times,serif" font-size="14.00">ros rosbag</text>
</g>
<!-- ros&#45;cpp&#45;common&#45;&gt;ros&#45;rosbag -->
<g id="edge55" class="edge">
<title>ros&#45;cpp&#45;common&#45;&gt;ros&#45;rosbag</title>
<path fill="none" stroke="black" d="M2586.7,-723.34C2640.92,-704.26 2723.05,-663.97 2723.05,-595 2723.05,-595 2723.05,-595 2723.05,-521 2723.05,-425.73 2620.39,-455.42 2528.05,-432 2396.32,-398.6 1990.66,-384.89 1826.29,-380.61"/>
<polygon fill="black" stroke="black" points="1825.91,-377.1 1815.82,-380.34 1825.73,-384.09 1825.91,-377.1"/>
</g>
<!-- ros&#45;dynamic&#45;reconfigure -->
<g id="node59" class="node">
<title>ros&#45;dynamic&#45;reconfigure</title>
<ellipse fill="#fde725" stroke="black" cx="2458.05" cy="-522" rx="123" ry="18"/>
<text text-anchor="middle" x="2458.05" y="-518.3" font-family="Times,serif" font-size="14.00">ros dynamic reconfigure</text>
</g>
<!-- ros&#45;cpp&#45;common&#45;&gt;ros&#45;dynamic&#45;reconfigure -->
<g id="edge56" class="edge">
<title>ros&#45;cpp&#45;common&#45;&gt;ros&#45;dynamic&#45;reconfigure</title>
<path fill="none" stroke="black" d="M2541.63,-719.82C2543.67,-689.02 2544.37,-623.19 2519.05,-576 2512.82,-564.39 2502.95,-554.17 2492.95,-545.88"/>
<polygon fill="black" stroke="black" points="2495.01,-543.04 2484.97,-539.65 2490.7,-548.56 2495.01,-543.04"/>
</g>
<!-- ros&#45;rostime&#45;&gt;ros&#45;rosconsole -->
<g id="edge57" class="edge">
<title>ros&#45;rostime&#45;&gt;ros&#45;rosconsole</title>
<path fill="none" stroke="black" d="M1955.05,-647.7C1955.05,-639.98 1955.05,-630.71 1955.05,-622.11"/>
<polygon fill="black" stroke="black" points="1958.55,-622.1 1955.05,-612.1 1951.55,-622.1 1958.55,-622.1"/>
</g>
<!-- ros&#45;rostime&#45;&gt;ros&#45;rosbag&#45;storage -->
<g id="edge58" class="edge">
<title>ros&#45;rostime&#45;&gt;ros&#45;rosbag&#45;storage</title>
<path fill="none" stroke="black" d="M1890.53,-664.48C1802.21,-662.25 1650.66,-652.45 1616.05,-612 1560.35,-546.92 1692.22,-493.99 1776.13,-468.14"/>
<polygon fill="black" stroke="black" points="1777.3,-471.44 1785.86,-465.2 1775.27,-464.74 1777.3,-471.44"/>
</g>
<!-- ros&#45;rostime&#45;&gt;ros&#45;rosbag -->
<g id="edge59" class="edge">
<title>ros&#45;rostime&#45;&gt;ros&#45;rosbag</title>
<path fill="none" stroke="black" d="M1890.41,-665.04C1798.19,-663.57 1635.92,-654.77 1599.05,-612 1562.38,-569.47 1559.39,-531.07 1646.05,-432 1661.17,-414.71 1683.19,-402.57 1703.57,-394.3"/>
<polygon fill="black" stroke="black" points="1705,-397.5 1713.09,-390.67 1702.5,-390.96 1705,-397.5"/>
</g>
<!-- ros&#45;actionlib -->
<g id="node60" class="node">
<title>ros&#45;actionlib</title>
<ellipse fill="#fde725" stroke="black" cx="2205.05" cy="-522" rx="74.19" ry="18"/>
<text text-anchor="middle" x="2205.05" y="-518.3" font-family="Times,serif" font-size="14.00">ros actionlib</text>
</g>
<!-- ros&#45;rostime&#45;&gt;ros&#45;actionlib -->
<g id="edge60" class="edge">
<title>ros&#45;rostime&#45;&gt;ros&#45;actionlib</title>
<path fill="none" stroke="black" d="M1982.28,-649.53C2027.31,-623.95 2117.35,-572.81 2168.09,-543.99"/>
<polygon fill="black" stroke="black" points="2170.12,-546.86 2177.09,-538.88 2166.66,-540.78 2170.12,-546.86"/>
</g>
<!-- ros&#45;rosconsole&#45;&gt;ros&#45;rosbag&#45;storage -->
<g id="edge61" class="edge">
<title>ros&#45;rosconsole&#45;&gt;ros&#45;rosbag&#45;storage</title>
<path fill="none" stroke="black" d="M1934.1,-576.57C1922.21,-566.68 1907.46,-553.43 1896.05,-540 1879.28,-520.26 1863.67,-495.23 1853.04,-476.75"/>
<polygon fill="black" stroke="black" points="1856.07,-474.98 1848.1,-468 1849.97,-478.43 1856.07,-474.98"/>
</g>
<!-- ros&#45;rosconsole&#45;&gt;ros&#45;rosbag -->
<g id="edge62" class="edge">
<title>ros&#45;rosconsole&#45;&gt;ros&#45;rosbag</title>
<path fill="none" stroke="black" d="M1888.56,-584.03C1814.81,-573.39 1704.49,-555.21 1692.05,-540 1658.18,-498.63 1702.2,-437.09 1732.27,-403.34"/>
<polygon fill="black" stroke="black" points="1735.02,-405.52 1739.19,-395.78 1729.85,-400.79 1735.02,-405.52"/>
</g>
<!-- ros&#45;rosconsole&#45;&gt;ros&#45;actionlib -->
<g id="edge63" class="edge">
<title>ros&#45;rosconsole&#45;&gt;ros&#45;actionlib</title>
<path fill="none" stroke="black" d="M2002.95,-579.59C2044.47,-567.96 2104.61,-551.12 2148.49,-538.84"/>
<polygon fill="black" stroke="black" points="2149.46,-542.2 2158.15,-536.13 2147.57,-535.46 2149.46,-542.2"/>
</g>
<!-- ros&#45;pluginlib -->
<g id="node61" class="node">
<title>ros&#45;pluginlib</title>
<ellipse fill="#fde725" stroke="black" cx="1775.05" cy="-522" rx="74.19" ry="18"/>
<text text-anchor="middle" x="1775.05" y="-518.3" font-family="Times,serif" font-size="14.00">ros pluginlib</text>
</g>
<!-- ros&#45;rosconsole&#45;&gt;ros&#45;pluginlib -->
<g id="edge64" class="edge">
<title>ros&#45;rosconsole&#45;&gt;ros&#45;pluginlib</title>
<path fill="none" stroke="black" d="M1916.87,-578.15C1889.24,-567.41 1851.73,-552.82 1822.22,-541.35"/>
<polygon fill="black" stroke="black" points="1823.14,-537.95 1812.55,-537.58 1820.6,-544.47 1823.14,-537.95"/>
</g>
<!-- ros&#45;message&#45;filters -->
<g id="node62" class="node">
<title>ros&#45;message&#45;filters</title>
<ellipse fill="#fde725" stroke="black" cx="2009.05" cy="-522" rx="103.5" ry="18"/>
<text text-anchor="middle" x="2009.05" y="-518.3" font-family="Times,serif" font-size="14.00">ros message filters</text>
</g>
<!-- ros&#45;rosconsole&#45;&gt;ros&#45;message&#45;filters -->
<g id="edge65" class="edge">
<title>ros&#45;rosconsole&#45;&gt;ros&#45;message&#45;filters</title>
<path fill="none" stroke="black" d="M1968.12,-576.05C1974.52,-567.75 1982.37,-557.58 1989.47,-548.38"/>
<polygon fill="black" stroke="black" points="1992.38,-550.33 1995.72,-540.28 1986.84,-546.06 1992.38,-550.33"/>
</g>
<!-- ros&#45;rosbag&#45;storage&#45;&gt;ros&#45;rosbag -->
<g id="edge66" class="edge">
<title>ros&#45;rosbag&#45;storage&#45;&gt;ros&#45;rosbag</title>
<path fill="none" stroke="black" d="M1818.95,-432.05C1808.19,-422.98 1794.79,-411.68 1783.13,-401.84"/>
<polygon fill="black" stroke="black" points="1785.28,-399.08 1775.38,-395.31 1780.77,-404.43 1785.28,-399.08"/>
</g>
<!-- ros&#45;pluginlib&#45;&gt;ros&#45;rosbag&#45;storage -->
<g id="edge76" class="edge">
<title>ros&#45;pluginlib&#45;&gt;ros&#45;rosbag&#45;storage</title>
<path fill="none" stroke="black" d="M1790.54,-504.05C1798.4,-495.46 1808.09,-484.86 1816.74,-475.4"/>
<polygon fill="black" stroke="black" points="1819.53,-477.53 1823.7,-467.79 1814.36,-472.81 1819.53,-477.53"/>
</g>
<!-- ros&#45;rospack -->
<g id="node63" class="node">
<title>ros&#45;rospack</title>
<g id="a_node63"><a xlink:href="https://github.com/conda-forge/ros-rospack-feedstock/pull/4" xlink:title="ros rospack">
<ellipse fill="#31688e" stroke="black" cx="2447.05" cy="-666" rx="64.5" ry="18"/>
<text text-anchor="middle" x="2447.05" y="-662.3" font-family="Times,serif" font-size="14.00" fill="white">ros rospack</text>
</a>
</g>
</g>
<!-- ros&#45;roslib -->
<g id="node64" class="node">
<title>ros&#45;roslib</title>
<ellipse fill="#fde725" stroke="black" cx="2450.05" cy="-594" rx="60" ry="18"/>
<text text-anchor="middle" x="2450.05" y="-590.3" font-family="Times,serif" font-size="14.00">ros roslib</text>
</g>
<!-- ros&#45;rospack&#45;&gt;ros&#45;roslib -->
<g id="edge67" class="edge">
<title>ros&#45;rospack&#45;&gt;ros&#45;roslib</title>
<path fill="none" stroke="black" d="M2447.79,-647.7C2448.12,-639.98 2448.52,-630.71 2448.88,-622.11"/>
<polygon fill="black" stroke="black" points="2452.38,-622.25 2449.31,-612.1 2445.39,-621.95 2452.38,-622.25"/>
</g>
<!-- ros&#45;roslib&#45;&gt;ros&#45;rosbag&#45;storage -->
<g id="edge68" class="edge">
<title>ros&#45;roslib&#45;&gt;ros&#45;rosbag&#45;storage</title>
<path fill="none" stroke="black" d="M2496.28,-582.25C2549.01,-567.96 2623.82,-540.24 2590.05,-504 2547.26,-458.09 2146.07,-451.24 1948.26,-450.68"/>
<polygon fill="black" stroke="black" points="1948.14,-447.17 1938.13,-450.65 1948.12,-454.17 1948.14,-447.17"/>
</g>
<!-- ros&#45;roslib&#45;&gt;ros&#45;rosbag -->
<g id="edge69" class="edge">
<title>ros&#45;roslib&#45;&gt;ros&#45;rosbag</title>
<path fill="none" stroke="black" d="M2500.38,-584.11C2559.39,-571.57 2644.88,-545.47 2609.05,-504 2507.72,-386.74 2012.15,-377.39 1826.47,-378.1"/>
<polygon fill="black" stroke="black" points="1826.26,-374.6 1816.28,-378.15 1826.3,-381.6 1826.26,-374.6"/>
</g>
<!-- ros&#45;roslib&#45;&gt;ros&#45;dynamic&#45;reconfigure -->
<g id="edge70" class="edge">
<title>ros&#45;roslib&#45;&gt;ros&#45;dynamic&#45;reconfigure</title>
<path fill="none" stroke="black" d="M2452.02,-575.7C2452.9,-567.98 2453.96,-558.71 2454.95,-550.11"/>
<polygon fill="black" stroke="black" points="2458.43,-550.44 2456.09,-540.1 2451.48,-549.64 2458.43,-550.44"/>
</g>
<!-- ros&#45;roslib&#45;&gt;ros&#45;actionlib -->
<g id="edge71" class="edge">
<title>ros&#45;roslib&#45;&gt;ros&#45;actionlib</title>
<path fill="none" stroke="black" d="M2408.21,-581.05C2367.67,-569.47 2305.93,-551.83 2261.15,-539.03"/>
<polygon fill="black" stroke="black" points="2261.88,-535.6 2251.3,-536.22 2259.95,-542.33 2261.88,-535.6"/>
</g>
<!-- ros&#45;roslib&#45;&gt;ros&#45;pluginlib -->
<g id="edge72" class="edge">
<title>ros&#45;roslib&#45;&gt;ros&#45;pluginlib</title>
<path fill="none" stroke="black" d="M2406.04,-581.74C2396.22,-579.55 2385.82,-577.48 2376.05,-576 2164.53,-543.96 2108.75,-562.89 1896.05,-540 1879.8,-538.25 1862.38,-536.02 1845.96,-533.75"/>
<polygon fill="black" stroke="black" points="1846.27,-530.26 1835.89,-532.33 1845.3,-537.19 1846.27,-530.26"/>
</g>
<!-- ros&#45;class&#45;loader -->
<g id="node65" class="node">
<title>ros&#45;class&#45;loader</title>
<g id="a_node65"><a xlink:href="https://github.com/conda-forge/ros-class-loader-feedstock/pull/2" xlink:title="ros class loader">
<ellipse fill="#31688e" stroke="black" cx="1714.05" cy="-594" rx="89.08" ry="18"/>
<text text-anchor="middle" x="1714.05" y="-590.3" font-family="Times,serif" font-size="14.00" fill="white">ros class loader</text>
</a>
</g>
</g>
<!-- ros&#45;class&#45;loader&#45;&gt;ros&#45;rosbag&#45;storage -->
<g id="edge73" class="edge">
<title>ros&#45;class&#45;loader&#45;&gt;ros&#45;rosbag&#45;storage</title>
<path fill="none" stroke="black" d="M1702.38,-576.1C1690.78,-557 1676.77,-525.75 1692.05,-504 1705.9,-484.28 1727.83,-471.87 1750.57,-464.06"/>
<polygon fill="black" stroke="black" points="1751.85,-467.33 1760.34,-460.99 1749.75,-460.65 1751.85,-467.33"/>
</g>
<!-- ros&#45;class&#45;loader&#45;&gt;ros&#45;rosbag -->
<g id="edge74" class="edge">
<title>ros&#45;class&#45;loader&#45;&gt;ros&#45;rosbag</title>
<path fill="none" stroke="black" d="M1699.25,-576.04C1674.58,-545.57 1630.42,-480.27 1659.05,-432 1669.08,-415.08 1686.63,-403.21 1704.08,-395.06"/>
<polygon fill="black" stroke="black" points="1705.91,-398.08 1713.7,-390.91 1703.14,-391.66 1705.91,-398.08"/>
</g>
<!-- ros&#45;class&#45;loader&#45;&gt;ros&#45;pluginlib -->
<g id="edge75" class="edge">
<title>ros&#45;class&#45;loader&#45;&gt;ros&#45;pluginlib</title>
<path fill="none" stroke="black" d="M1728.81,-576.05C1736.3,-567.46 1745.54,-556.86 1753.78,-547.4"/>
<polygon fill="black" stroke="black" points="1756.48,-549.63 1760.42,-539.79 1751.21,-545.03 1756.48,-549.63"/>
</g>
<!-- ros&#45;rostest -->
<g id="node66" class="node">
<title>ros&#45;rostest</title>
<g id="a_node66"><a xlink:href="https://github.com/conda-forge/ros-rostest-feedstock/pull/2" xlink:title="ros rostest">
<ellipse fill="#31688e" stroke="black" cx="2303.05" cy="-594" rx="64.5" ry="18"/>
<text text-anchor="middle" x="2303.05" y="-590.3" font-family="Times,serif" font-size="14.00" fill="white">ros rostest</text>
</a>
</g>
</g>
<!-- ros&#45;rostest&#45;&gt;ros&#45;rosbag&#45;storage -->
<g id="edge77" class="edge">
<title>ros&#45;rostest&#45;&gt;ros&#45;rosbag&#45;storage</title>
<path fill="none" stroke="black" d="M2305.64,-575.83C2307.62,-555.59 2307.34,-522.36 2288.05,-504 2263.49,-480.63 2067.58,-464.66 1942.78,-456.75"/>
<polygon fill="black" stroke="black" points="1942.63,-453.24 1932.43,-456.1 1942.19,-460.22 1942.63,-453.24"/>
</g>
<!-- ros&#45;rostest&#45;&gt;ros&#45;dynamic&#45;reconfigure -->
<g id="edge78" class="edge">
<title>ros&#45;rostest&#45;&gt;ros&#45;dynamic&#45;reconfigure</title>
<path fill="none" stroke="black" d="M2335.54,-578.33C2357.97,-568.19 2388.11,-554.59 2412.87,-543.4"/>
<polygon fill="black" stroke="black" points="2414.4,-546.55 2422.08,-539.24 2411.52,-540.17 2414.4,-546.55"/>
</g>
<!-- ros&#45;rostest&#45;&gt;ros&#45;actionlib -->
<g id="edge79" class="edge">
<title>ros&#45;rostest&#45;&gt;ros&#45;actionlib</title>
<path fill="none" stroke="black" d="M2280.32,-576.76C2267.08,-567.31 2250.22,-555.26 2235.81,-544.97"/>
<polygon fill="black" stroke="black" points="2237.82,-542.11 2227.65,-539.15 2233.75,-547.81 2237.82,-542.11"/>
</g>
<!-- ros&#45;rostest&#45;&gt;ros&#45;message&#45;filters -->
<g id="edge80" class="edge">
<title>ros&#45;rostest&#45;&gt;ros&#45;message&#45;filters</title>
<path fill="none" stroke="black" d="M2255.48,-581.68C2207.21,-570.18 2132.01,-552.28 2077.37,-539.27"/>
<polygon fill="black" stroke="black" points="2077.96,-535.81 2067.42,-536.9 2076.34,-542.62 2077.96,-535.81"/>
</g>
<!-- moldyn&#45;clustering -->
<g id="node68" class="node">
<title>moldyn&#45;clustering</title>
<g id="a_node68"><a xlink:href="https://github.com/conda-forge/moldyn-clustering-feedstock/pull/2" xlink:title="moldyn clustering">
<ellipse fill="#31688e" stroke="black" cx="1126.05" cy="-18" rx="93.68" ry="18"/>
<text text-anchor="middle" x="1126.05" y="-14.3" font-family="Times,serif" font-size="14.00" fill="white">moldyn clustering</text>
</a>
</g>
</g>
<!-- gnuradio&#45;&gt;moldyn&#45;clustering -->
<!-- standardese -->
<g id="node69" class="node">
<title>standardese</title>
<g id="a_node69"><a xlink:href="https://github.com/conda-forge/standardese-feedstock/pull/1" xlink:title="standardese">
<ellipse fill="#31688e" stroke="black" cx="2860.05" cy="-738" rx="64.5" ry="18"/>
<text text-anchor="middle" x="2860.05" y="-734.3" font-family="Times,serif" font-size="14.00" fill="white">standardese</text>
</a>
</g>
</g>
<!-- magics&#45;metview&#45;batch -->
<g id="node70" class="node">
<title>magics&#45;metview&#45;batch</title>
<g id="a_node70"><a xlink:href="https://github.com/conda-forge/magics-metview-batch-feedstock/pull/1" xlink:title="magics metview batch">
<ellipse fill="#31688e" stroke="black" cx="2860.05" cy="-666" rx="108.58" ry="18"/>
<text text-anchor="middle" x="2860.05" y="-662.3" font-family="Times,serif" font-size="14.00" fill="white">magics metview batch</text>
</a>
</g>
</g>
<!-- standardese&#45;&gt;magics&#45;metview&#45;batch -->
</g>
</svg>
