<?xml version="1.0" encoding="UTF-8" standalone="no"?>
<!DOCTYPE svg PUBLIC "-//W3C//DTD SVG 1.1//EN"
 "http://www.w3.org/Graphics/SVG/1.1/DTD/svg11.dtd">
<!-- Generated by graphviz version 2.42.3 (20191010.1750)
 -->
<!-- Title: %3 Pages: 1 -->
<svg width="1586pt" height="404pt"
 viewBox="0.00 0.00 1586.00 404.00" xmlns="http://www.w3.org/2000/svg" xmlns:xlink="http://www.w3.org/1999/xlink">
<g id="graph0" class="graph" transform="scale(1 1) rotate(0) translate(4 400)">
<title>%3</title>
<polygon fill="white" stroke="transparent" points="-4,4 -4,-400 1582,-400 1582,4 -4,4"/>
<!-- avrocpp -->
<g id="node1" class="node">
<title>avrocpp</title>
<g id="a_node1"><a xlink:href="https://github.com/conda-forge/avrocpp-feedstock/pull/8" xlink:title="avrocpp">
<ellipse fill="#31688e" stroke="black" cx="45" cy="-90" rx="45" ry="18"/>
<text text-anchor="middle" x="45" y="-86.3" font-family="Times,serif" font-size="14.00" fill="white">avrocpp</text>
</a>
</g>
</g>
<!-- conda&#45;forge&#45;pinning -->
<g id="node2" class="node">
<title>conda&#45;forge&#45;pinning</title>
<ellipse fill="none" stroke="black" cx="688" cy="-18" rx="103.5" ry="18"/>
<text text-anchor="middle" x="688" y="-14.3" font-family="Times,serif" font-size="14.00">conda&#45;forge&#45;pinning</text>
</g>
<!-- avrocpp&#45;&gt;conda&#45;forge&#45;pinning -->
<g id="edge1" class="edge">
<title>avrocpp&#45;&gt;conda&#45;forge&#45;pinning</title>
<path fill="none" stroke="black" d="M78.74,-78.09C86.94,-75.77 95.72,-73.55 104,-72 267.09,-41.39 459.26,-28.27 577.35,-22.78"/>
<polygon fill="black" stroke="black" points="577.66,-26.27 587.49,-22.32 577.34,-19.28 577.66,-26.27"/>
</g>
<!-- caffe -->
<g id="node3" class="node">
<title>caffe</title>
<g id="a_node3"><a xlink:href="https://github.com/conda-forge/caffe-feedstock/pull/57" xlink:title="caffe">
<ellipse fill="#31688e" stroke="black" cx="105" cy="-162" rx="35.19" ry="18"/>
<text text-anchor="middle" x="105" y="-158.3" font-family="Times,serif" font-size="14.00" fill="white">caffe</text>
</a>
</g>
</g>
<!-- caffe&#45;&gt;conda&#45;forge&#45;pinning -->
<g id="edge2" class="edge">
<title>caffe&#45;&gt;conda&#45;forge&#45;pinning</title>
<path fill="none" stroke="black" d="M109.19,-143.94C115.26,-123.14 128.68,-88.71 154,-72 220.81,-27.92 438.5,-19.14 574.44,-18.13"/>
<polygon fill="black" stroke="black" points="574.51,-21.62 584.48,-18.06 574.46,-14.63 574.51,-21.62"/>
</g>
<!-- gap -->
<g id="node4" class="node">
<title>gap</title>
<ellipse fill="#fde725" stroke="black" cx="223" cy="-162" rx="27" ry="18"/>
<text text-anchor="middle" x="223" y="-158.3" font-family="Times,serif" font-size="14.00">gap</text>
</g>
<!-- gap&#45;&gt;conda&#45;forge&#45;pinning -->
<g id="edge3" class="edge">
<title>gap&#45;&gt;conda&#45;forge&#45;pinning</title>
<path fill="none" stroke="black" d="M217.53,-144.19C212.22,-124.29 207.29,-91.41 225,-72 248.46,-46.29 449.6,-31.19 578.94,-24.06"/>
<polygon fill="black" stroke="black" points="579.49,-27.54 589.29,-23.5 579.11,-20.55 579.49,-27.54"/>
</g>
<!-- sagelib -->
<g id="node5" class="node">
<title>sagelib</title>
<ellipse fill="#fde725" stroke="black" cx="279" cy="-90" rx="45" ry="18"/>
<text text-anchor="middle" x="279" y="-86.3" font-family="Times,serif" font-size="14.00">sagelib</text>
</g>
<!-- gap&#45;&gt;sagelib -->
<g id="edge4" class="edge">
<title>gap&#45;&gt;sagelib</title>
<path fill="none" stroke="black" d="M235.15,-145.81C242.19,-137.02 251.22,-125.73 259.25,-115.69"/>
<polygon fill="black" stroke="black" points="262.18,-117.62 265.7,-107.63 256.72,-113.25 262.18,-117.62"/>
</g>
<!-- sagelib&#45;&gt;conda&#45;forge&#45;pinning -->
<g id="edge5" class="edge">
<title>sagelib&#45;&gt;conda&#45;forge&#45;pinning</title>
<path fill="none" stroke="black" d="M313.44,-78.26C321.45,-75.99 329.98,-73.75 338,-72 423.83,-53.22 522.96,-38.89 593.76,-29.89"/>
<polygon fill="black" stroke="black" points="594.51,-33.32 603.99,-28.6 593.63,-26.38 594.51,-33.32"/>
</g>
<!-- libcmaes -->
<g id="node6" class="node">
<title>libcmaes</title>
<g id="a_node6"><a xlink:href="https://github.com/conda-forge/libcmaes-feedstock/pull/12" xlink:title="libcmaes">
<ellipse fill="#31688e" stroke="black" cx="312" cy="-234" rx="50.09" ry="18"/>
<text text-anchor="middle" x="312" y="-230.3" font-family="Times,serif" font-size="14.00" fill="white">libcmaes</text>
</a>
</g>
</g>
<!-- libcmaes&#45;&gt;conda&#45;forge&#45;pinning -->
<g id="edge6" class="edge">
<title>libcmaes&#45;&gt;conda&#45;forge&#45;pinning</title>
<path fill="none" stroke="black" d="M313.43,-215.96C317.21,-182.62 330.52,-108.8 376,-72 407.22,-46.74 504.52,-33.04 582.26,-25.94"/>
<polygon fill="black" stroke="black" points="582.95,-29.4 592.6,-25.03 582.33,-22.42 582.95,-29.4"/>
</g>
<!-- pyne -->
<g id="node7" class="node">
<title>pyne</title>
<g id="a_node7"><a xlink:href="https://github.com/conda-forge/pyne-feedstock/pull/39" xlink:title="pyne">
<ellipse fill="#31688e" stroke="black" cx="369" cy="-306" rx="30.59" ry="18"/>
<text text-anchor="middle" x="369" y="-302.3" font-family="Times,serif" font-size="14.00" fill="white">pyne</text>
</a>
</g>
</g>
<!-- pyne&#45;&gt;conda&#45;forge&#45;pinning -->
<g id="edge7" class="edge">
<title>pyne&#45;&gt;conda&#45;forge&#45;pinning</title>
<path fill="none" stroke="black" d="M369.89,-287.75C372.78,-239.13 383.49,-102.52 414,-72 437.95,-48.04 517.47,-34.45 584.72,-27.04"/>
<polygon fill="black" stroke="black" points="585.4,-30.49 594.97,-25.95 584.66,-23.53 585.4,-30.49"/>
</g>
<!-- pyopcode -->
<g id="node8" class="node">
<title>pyopcode</title>
<g id="a_node8"><a xlink:href="https://github.com/conda-forge/pyopcode-feedstock/pull/18" xlink:title="pyopcode">
<ellipse fill="#31688e" stroke="black" cx="428" cy="-378" rx="50.09" ry="18"/>
<text text-anchor="middle" x="428" y="-374.3" font-family="Times,serif" font-size="14.00" fill="white">pyopcode</text>
</a>
</g>
</g>
<!-- pyopcode&#45;&gt;conda&#45;forge&#45;pinning -->
<g id="edge8" class="edge">
<title>pyopcode&#45;&gt;conda&#45;forge&#45;pinning</title>
<path fill="none" stroke="black" d="M428,-359.95C428,-333.29 428,-280.11 428,-235 428,-235 428,-235 428,-161 428,-120.55 418.49,-100.69 447,-72 467.48,-51.39 533.93,-37.74 591.87,-29.46"/>
<polygon fill="black" stroke="black" points="592.41,-32.92 601.83,-28.08 591.45,-25.99 592.41,-32.92"/>
</g>
<!-- pyranha -->
<g id="node9" class="node">
<title>pyranha</title>
<g id="a_node9"><a xlink:href="https://github.com/conda-forge/pyranha-feedstock/pull/15" xlink:title="pyranha">
<ellipse fill="#31688e" stroke="black" cx="501" cy="-90" rx="45" ry="18"/>
<text text-anchor="middle" x="501" y="-86.3" font-family="Times,serif" font-size="14.00" fill="white">pyranha</text>
</a>
</g>
</g>
<!-- pyranha&#45;&gt;conda&#45;forge&#45;pinning -->
<g id="edge9" class="edge">
<title>pyranha&#45;&gt;conda&#45;forge&#45;pinning</title>
<path fill="none" stroke="black" d="M532.72,-77.13C561.17,-66.47 603.44,-50.65 636.7,-38.2"/>
<polygon fill="black" stroke="black" points="638.12,-41.41 646.26,-34.62 635.67,-34.85 638.12,-41.41"/>
</g>
<!-- zwatershed -->
<g id="node10" class="node">
<title>zwatershed</title>
<g id="a_node10"><a xlink:href="https://github.com/conda-forge/zwatershed-feedstock/pull/14" xlink:title="zwatershed">
<ellipse fill="#31688e" stroke="black" cx="524" cy="-162" rx="60" ry="18"/>
<text text-anchor="middle" x="524" y="-158.3" font-family="Times,serif" font-size="14.00" fill="white">zwatershed</text>
</a>
</g>
</g>
<!-- zwatershed&#45;&gt;conda&#45;forge&#45;pinning -->
<g id="edge10" class="edge">
<title>zwatershed&#45;&gt;conda&#45;forge&#45;pinning</title>
<path fill="none" stroke="black" d="M535.34,-144.09C548.73,-124.99 572.43,-93.74 598,-72 612.32,-59.82 629.8,-48.82 645.53,-40.03"/>
<polygon fill="black" stroke="black" points="647.44,-42.98 654.55,-35.12 644.1,-36.83 647.44,-42.98"/>
</g>
<!-- alps -->
<g id="node11" class="node">
<title>alps</title>
<g id="a_node11"><a xlink:href="https://github.com/conda-forge/alps-feedstock/pull/30" xlink:title="alps">
<ellipse fill="#31688e" stroke="black" cx="591" cy="-234" rx="30.59" ry="18"/>
<text text-anchor="middle" x="591" y="-230.3" font-family="Times,serif" font-size="14.00" fill="white">alps</text>
</a>
</g>
</g>
<!-- alps&#45;&gt;conda&#45;forge&#45;pinning -->
<g id="edge11" class="edge">
<title>alps&#45;&gt;conda&#45;forge&#45;pinning</title>
<path fill="none" stroke="black" d="M592.93,-215.93C596.98,-185.3 608.4,-119.74 636,-72 642.19,-61.3 651.04,-51.18 659.69,-42.7"/>
<polygon fill="black" stroke="black" points="662.25,-45.09 667.16,-35.7 657.47,-39.98 662.25,-45.09"/>
</g>
<!-- clfft -->
<g id="node12" class="node">
<title>clfft</title>
<g id="a_node12"><a xlink:href="https://github.com/conda-forge/clfft-feedstock/pull/10" xlink:title="clfft">
<ellipse fill="#31688e" stroke="black" cx="625" cy="-306" rx="35.19" ry="18"/>
<text text-anchor="middle" x="625" y="-302.3" font-family="Times,serif" font-size="14.00" fill="white">clfft</text>
</a>
</g>
</g>
<!-- clfft&#45;&gt;conda&#45;forge&#45;pinning -->
<g id="edge12" class="edge">
<title>clfft&#45;&gt;conda&#45;forge&#45;pinning</title>
<path fill="none" stroke="black" d="M628.27,-287.98C635.75,-249.41 654.93,-152.44 674,-72 676.01,-63.54 678.37,-54.36 680.57,-46.06"/>
<polygon fill="black" stroke="black" points="684.02,-46.7 683.24,-36.13 677.26,-44.88 684.02,-46.7"/>
</g>
<!-- spdlib -->
<g id="node13" class="node">
<title>spdlib</title>
<g id="a_node13"><a xlink:href="https://github.com/conda-forge/spdlib-feedstock/pull/12" xlink:title="spdlib">
<ellipse fill="#31688e" stroke="black" cx="688" cy="-378" rx="40.5" ry="18"/>
<text text-anchor="middle" x="688" y="-374.3" font-family="Times,serif" font-size="14.00" fill="white">spdlib</text>
</a>
</g>
</g>
<!-- spdlib&#45;&gt;conda&#45;forge&#45;pinning -->
<g id="edge13" class="edge">
<title>spdlib&#45;&gt;conda&#45;forge&#45;pinning</title>
<path fill="none" stroke="black" d="M688,-359.95C688,-333.29 688,-280.11 688,-235 688,-235 688,-235 688,-161 688,-121 688,-74.65 688,-46.08"/>
<polygon fill="black" stroke="black" points="691.5,-46.05 688,-36.05 684.5,-46.05 691.5,-46.05"/>
</g>
<!-- fmipp -->
<g id="node14" class="node">
<title>fmipp</title>
<g id="a_node14"><a xlink:href="https://github.com/conda-forge/fmipp-feedstock/pull/14" xlink:title="fmipp">
<ellipse fill="#31688e" stroke="black" cx="751" cy="-90" rx="35.19" ry="18"/>
<text text-anchor="middle" x="751" y="-86.3" font-family="Times,serif" font-size="14.00" fill="white">fmipp</text>
</a>
</g>
</g>
<!-- fmipp&#45;&gt;conda&#45;forge&#45;pinning -->
<g id="edge14" class="edge">
<title>fmipp&#45;&gt;conda&#45;forge&#45;pinning</title>
<path fill="none" stroke="black" d="M737.02,-73.46C729.12,-64.69 719.08,-53.53 710.14,-43.6"/>
<polygon fill="black" stroke="black" points="712.56,-41.05 703.27,-35.96 707.35,-45.74 712.56,-41.05"/>
</g>
<!-- freecad -->
<g id="node15" class="node">
<title>freecad</title>
<g id="a_node15"><a xlink:href="https://github.com/conda-forge/freecad-feedstock/pull/36" xlink:title="freecad">
<ellipse fill="#31688e" stroke="black" cx="779" cy="-162" rx="45" ry="18"/>
<text text-anchor="middle" x="779" y="-158.3" font-family="Times,serif" font-size="14.00" fill="white">freecad</text>
</a>
</g>
</g>
<!-- freecad&#45;&gt;conda&#45;forge&#45;pinning -->
<g id="edge15" class="edge">
<title>freecad&#45;&gt;conda&#45;forge&#45;pinning</title>
<path fill="none" stroke="black" d="M788.47,-144.29C797.8,-125.36 808.83,-94.28 795,-72 785.32,-56.4 769.52,-45.24 753,-37.33"/>
<polygon fill="black" stroke="black" points="754.35,-34.1 743.78,-33.26 751.52,-40.5 754.35,-34.1"/>
</g>
<!-- helics -->
<g id="node16" class="node">
<title>helics</title>
<g id="a_node16"><a xlink:href="https://github.com/conda-forge/helics-feedstock/pull/18" xlink:title="helics">
<ellipse fill="#31688e" stroke="black" cx="821" cy="-234" rx="40.5" ry="18"/>
<text text-anchor="middle" x="821" y="-230.3" font-family="Times,serif" font-size="14.00" fill="white">helics</text>
</a>
</g>
</g>
<!-- helics&#45;&gt;conda&#45;forge&#45;pinning -->
<g id="edge16" class="edge">
<title>helics&#45;&gt;conda&#45;forge&#45;pinning</title>
<path fill="none" stroke="black" d="M826.15,-215.89C834.76,-183.41 847.84,-112.43 812,-72 797.59,-55.74 777.33,-44.31 757.36,-36.33"/>
<polygon fill="black" stroke="black" points="758.51,-33.03 747.91,-32.8 756.05,-39.58 758.51,-33.03"/>
</g>
<!-- normaliz -->
<g id="node17" class="node">
<title>normaliz</title>
<g id="a_node17"><a xlink:href="https://github.com/conda-forge/normaliz-feedstock/pull/19" xlink:title="normaliz">
<ellipse fill="#31688e" stroke="black" cx="181" cy="-234" rx="50.09" ry="18"/>
<text text-anchor="middle" x="181" y="-230.3" font-family="Times,serif" font-size="14.00" fill="white">normaliz</text>
</a>
</g>
</g>
<!-- normaliz&#45;&gt;conda&#45;forge&#45;pinning -->
<g id="edge17" class="edge">
<title>normaliz&#45;&gt;conda&#45;forge&#45;pinning</title>
<path fill="none" stroke="black" d="M177.76,-215.95C172.46,-182.24 166.41,-107.31 209,-72 236.99,-48.79 447.86,-32.66 580.32,-24.7"/>
<polygon fill="black" stroke="black" points="580.73,-28.18 590.51,-24.1 580.32,-21.2 580.73,-28.18"/>
</g>
<!-- normaliz&#45;&gt;gap -->
<g id="edge18" class="edge">
<title>normaliz&#45;&gt;gap</title>
<path fill="none" stroke="black" d="M191.17,-216.05C196.19,-207.68 202.36,-197.4 207.92,-188.13"/>
<polygon fill="black" stroke="black" points="211.07,-189.68 213.22,-179.31 205.07,-186.08 211.07,-189.68"/>
</g>
<!-- esys&#45;escript -->
<g id="node18" class="node">
<title>esys&#45;escript</title>
<g id="a_node18"><a xlink:href="https://github.com/conda-forge/esys-escript-feedstock/pull/12" xlink:title="esys escript">
<ellipse fill="#31688e" stroke="black" cx="890" cy="-306" rx="69.59" ry="18"/>
<text text-anchor="middle" x="890" y="-302.3" font-family="Times,serif" font-size="14.00" fill="white">esys escript</text>
</a>
</g>
</g>
<!-- esys&#45;escript&#45;&gt;conda&#45;forge&#45;pinning -->
<g id="edge19" class="edge">
<title>esys&#45;escript&#45;&gt;conda&#45;forge&#45;pinning</title>
<path fill="none" stroke="black" d="M891.15,-287.85C893.02,-245.51 891.85,-134.91 835,-72 818.37,-53.6 794.88,-41.59 771.54,-33.74"/>
<polygon fill="black" stroke="black" points="772.51,-30.38 761.92,-30.73 770.42,-37.06 772.51,-30.38"/>
</g>
<!-- xmsinterp -->
<g id="node19" class="node">
<title>xmsinterp</title>
<g id="a_node19"><a xlink:href="https://github.com/conda-forge/xmsinterp-feedstock/pull/6" xlink:title="xmsinterp">
<ellipse fill="#31688e" stroke="black" cx="1016" cy="-234" rx="54.69" ry="18"/>
<text text-anchor="middle" x="1016" y="-230.3" font-family="Times,serif" font-size="14.00" fill="white">xmsinterp</text>
</a>
</g>
</g>
<!-- xmsinterp&#45;&gt;conda&#45;forge&#45;pinning -->
<g id="edge20" class="edge">
<title>xmsinterp&#45;&gt;conda&#45;forge&#45;pinning</title>
<path fill="none" stroke="black" d="M990.25,-218.07C975.91,-208.67 958.66,-195.42 947,-180 915.84,-138.79 942.97,-105.92 904,-72 874.32,-46.17 834.05,-32.5 796.32,-25.41"/>
<polygon fill="black" stroke="black" points="796.73,-21.93 786.28,-23.66 795.53,-28.83 796.73,-21.93"/>
</g>
<!-- xmsstamper -->
<g id="node20" class="node">
<title>xmsstamper</title>
<ellipse fill="#fde725" stroke="black" cx="1016" cy="-162" rx="60" ry="18"/>
<text text-anchor="middle" x="1016" y="-158.3" font-family="Times,serif" font-size="14.00">xmsstamper</text>
</g>
<!-- xmsinterp&#45;&gt;xmsstamper -->
<g id="edge21" class="edge">
<title>xmsinterp&#45;&gt;xmsstamper</title>
<path fill="none" stroke="black" d="M1016,-215.7C1016,-207.98 1016,-198.71 1016,-190.11"/>
<polygon fill="black" stroke="black" points="1019.5,-190.1 1016,-180.1 1012.5,-190.1 1019.5,-190.1"/>
</g>
<!-- xmsmesher -->
<g id="node21" class="node">
<title>xmsmesher</title>
<ellipse fill="#fde725" stroke="black" cx="1049" cy="-90" rx="54.69" ry="18"/>
<text text-anchor="middle" x="1049" y="-86.3" font-family="Times,serif" font-size="14.00">xmsmesher</text>
</g>
<!-- xmsinterp&#45;&gt;xmsmesher -->
<g id="edge22" class="edge">
<title>xmsinterp&#45;&gt;xmsmesher</title>
<path fill="none" stroke="black" d="M1045.51,-218.66C1060.27,-209.76 1076.72,-196.8 1085,-180 1095.45,-158.8 1083.28,-133.78 1070.34,-115.68"/>
<polygon fill="black" stroke="black" points="1072.87,-113.22 1064.02,-107.39 1067.3,-117.47 1072.87,-113.22"/>
</g>
<!-- xmsstamper&#45;&gt;conda&#45;forge&#45;pinning -->
<g id="edge23" class="edge">
<title>xmsstamper&#45;&gt;conda&#45;forge&#45;pinning</title>
<path fill="none" stroke="black" d="M1006.68,-143.94C994.57,-123.47 971.45,-89.71 942,-72 898.12,-45.61 843.13,-32.21 795.55,-25.46"/>
<polygon fill="black" stroke="black" points="795.89,-21.98 785.52,-24.12 794.97,-28.91 795.89,-21.98"/>
</g>
<!-- xmsmesher&#45;&gt;conda&#45;forge&#45;pinning -->
<g id="edge24" class="edge">
<title>xmsmesher&#45;&gt;conda&#45;forge&#45;pinning</title>
<path fill="none" stroke="black" d="M1007.13,-78.24C998.2,-76.07 988.81,-73.88 980,-72 909.63,-56.96 829.13,-42.55 770.49,-32.57"/>
<polygon fill="black" stroke="black" points="770.99,-29.1 760.54,-30.88 769.82,-36 770.99,-29.1"/>
</g>
<!-- odil -->
<g id="node22" class="node">
<title>odil</title>
<g id="a_node22"><a xlink:href="https://github.com/conda-forge/odil-feedstock/pull/3" xlink:title="odil">
<ellipse fill="#31688e" stroke="black" cx="1192" cy="-162" rx="30.59" ry="18"/>
<text text-anchor="middle" x="1192" y="-158.3" font-family="Times,serif" font-size="14.00" fill="white">odil</text>
</a>
</g>
</g>
<!-- odil&#45;&gt;conda&#45;forge&#45;pinning -->
<g id="edge25" class="edge">
<title>odil&#45;&gt;conda&#45;forge&#45;pinning</title>
<path fill="none" stroke="black" d="M1180.18,-145.18C1162.55,-122.05 1129.64,-80.76 1113,-72 1059.85,-44.03 904.55,-30.26 797.18,-23.9"/>
<polygon fill="black" stroke="black" points="797.13,-20.39 786.95,-23.31 796.73,-27.38 797.13,-20.39"/>
</g>
<!-- dicomifier -->
<g id="node23" class="node">
<title>dicomifier</title>
<ellipse fill="#fde725" stroke="black" cx="1220" cy="-90" rx="60" ry="18"/>
<text text-anchor="middle" x="1220" y="-86.3" font-family="Times,serif" font-size="14.00">dicomifier</text>
</g>
<!-- odil&#45;&gt;dicomifier -->
<g id="edge26" class="edge">
<title>odil&#45;&gt;dicomifier</title>
<path fill="none" stroke="black" d="M1198.64,-144.41C1201.87,-136.34 1205.83,-126.43 1209.46,-117.35"/>
<polygon fill="black" stroke="black" points="1212.75,-118.54 1213.22,-107.96 1206.25,-115.94 1212.75,-118.54"/>
</g>
<!-- dicomifier&#45;&gt;conda&#45;forge&#45;pinning -->
<g id="edge27" class="edge">
<title>dicomifier&#45;&gt;conda&#45;forge&#45;pinning</title>
<path fill="none" stroke="black" d="M1175.16,-77.86C1165.58,-75.72 1155.48,-73.63 1146,-72 1024.03,-51 882.33,-36.03 789.21,-27.47"/>
<polygon fill="black" stroke="black" points="789.51,-23.98 779.23,-26.56 788.87,-30.96 789.51,-23.98"/>
</g>
<!-- triqs_tprf -->
<g id="node24" class="node">
<title>triqs_tprf</title>
<g id="a_node24"><a xlink:href="https://github.com/conda-forge/triqs_tprf-feedstock/pull/4" xlink:title="triqs_tprf">
<ellipse fill="#31688e" stroke="black" cx="1308" cy="-378" rx="60" ry="18"/>
<text text-anchor="middle" x="1308" y="-374.3" font-family="Times,serif" font-size="14.00" fill="white">triqs_tprf</text>
</a>
</g>
</g>
<!-- triqs_tprf&#45;&gt;conda&#45;forge&#45;pinning -->
<g id="edge28" class="edge">
<title>triqs_tprf&#45;&gt;conda&#45;forge&#45;pinning</title>
<path fill="none" stroke="black" d="M1308,-359.95C1308,-333.29 1308,-280.11 1308,-235 1308,-235 1308,-235 1308,-161 1308,-120.55 1319.3,-98.8 1289,-72 1253.24,-40.37 963.62,-26.91 799.84,-21.78"/>
<polygon fill="black" stroke="black" points="799.83,-18.28 789.72,-21.47 799.61,-25.28 799.83,-18.28"/>
</g>
<!-- triqs_cthyb -->
<g id="node25" class="node">
<title>triqs_cthyb</title>
<g id="a_node25"><a xlink:href="https://github.com/conda-forge/triqs_cthyb-feedstock/pull/6" xlink:title="triqs_cthyb">
<ellipse fill="#31688e" stroke="black" cx="1401" cy="-90" rx="64.5" ry="18"/>
<text text-anchor="middle" x="1401" y="-86.3" font-family="Times,serif" font-size="14.00" fill="white">triqs_cthyb</text>
</a>
</g>
</g>
<!-- triqs_cthyb&#45;&gt;conda&#45;forge&#45;pinning -->
<g id="edge29" class="edge">
<title>triqs_cthyb&#45;&gt;conda&#45;forge&#45;pinning</title>
<path fill="none" stroke="black" d="M1353.56,-77.76C1343.2,-75.59 1332.27,-73.53 1322,-72 1138.91,-44.76 923.84,-30.47 797.12,-23.85"/>
<polygon fill="black" stroke="black" points="797.18,-20.35 787.02,-23.33 796.82,-27.34 797.18,-20.35"/>
</g>
<!-- triqs_dft_tools -->
<g id="node26" class="node">
<title>triqs_dft_tools</title>
<g id="a_node26"><a xlink:href="https://github.com/conda-forge/triqs_dft_tools-feedstock/pull/6" xlink:title="triqs_dft_tools">
<ellipse fill="#31688e" stroke="black" cx="1494" cy="-162" rx="84" ry="18"/>
<text text-anchor="middle" x="1494" y="-158.3" font-family="Times,serif" font-size="14.00" fill="white">triqs_dft_tools</text>
</a>
</g>
</g>
<!-- triqs_dft_tools&#45;&gt;conda&#45;forge&#45;pinning -->
<g id="edge30" class="edge">
<title>triqs_dft_tools&#45;&gt;conda&#45;forge&#45;pinning</title>
<path fill="none" stroke="black" d="M1495.86,-143.93C1497.04,-123.46 1495.42,-89.69 1475,-72 1425.31,-28.96 1007.43,-20.67 801.63,-19.21"/>
<polygon fill="black" stroke="black" points="801.41,-15.71 791.39,-19.14 801.36,-22.71 801.41,-15.71"/>
</g>
</g>
</svg>
