<?xml version="1.0" encoding="UTF-8" standalone="no"?>
<!DOCTYPE svg PUBLIC "-//W3C//DTD SVG 1.1//EN"
 "http://www.w3.org/Graphics/SVG/1.1/DTD/svg11.dtd">
<!-- Generated by graphviz version 2.42.3 (20191010.1750)
 -->
<!-- Title: %3 Pages: 1 -->
<svg width="1317pt" height="1284pt"
 viewBox="0.00 0.00 1316.69 1284.00" xmlns="http://www.w3.org/2000/svg" xmlns:xlink="http://www.w3.org/1999/xlink">
<g id="graph0" class="graph" transform="scale(1 1) rotate(0) translate(4 1280)">
<title>%3</title>
<polygon fill="white" stroke="transparent" points="-4,4 -4,-1280 1312.69,-1280 1312.69,4 -4,4"/>
<!-- cyclus -->
<g id="node1" class="node">
<title>cyclus</title>
<g id="a_node1"><a xlink:href="https://github.com/conda-forge/cyclus-feedstock/pull/54" xlink:title="cyclus">
<ellipse fill="#31688e" stroke="black" cx="1244.19" cy="-1258" rx="40.5" ry="18"/>
<text text-anchor="middle" x="1244.19" y="-1254.3" font-family="Times,serif" font-size="14.00" fill="white">cyclus</text>
</a>
</g>
</g>
<!-- dionysus -->
<g id="node2" class="node">
<title>dionysus</title>
<g id="a_node2"><a xlink:href="https://github.com/conda-forge/dionysus-feedstock/pull/7" xlink:title="dionysus">
<ellipse fill="#31688e" stroke="black" cx="1244.19" cy="-1186" rx="50.09" ry="18"/>
<text text-anchor="middle" x="1244.19" y="-1182.3" font-family="Times,serif" font-size="14.00" fill="white">dionysus</text>
</a>
</g>
</g>
<!-- cyclus&#45;&gt;dionysus -->
<!-- libradolan -->
<g id="node3" class="node">
<title>libradolan</title>
<g id="a_node3"><a xlink:href="https://github.com/conda-forge/libradolan-feedstock/pull/22" xlink:title="libradolan">
<ellipse fill="#31688e" stroke="black" cx="1244.19" cy="-1114" rx="60" ry="18"/>
<text text-anchor="middle" x="1244.19" y="-1110.3" font-family="Times,serif" font-size="14.00" fill="white">libradolan</text>
</a>
</g>
</g>
<!-- dionysus&#45;&gt;libradolan -->
<!-- msgpack&#45;c -->
<g id="node8" class="node">
<title>msgpack&#45;c</title>
<g id="a_node8"><a xlink:href="https://github.com/conda-forge/msgpack-c-feedstock/pull/17" xlink:title="msgpack c">
<ellipse fill="#31688e" stroke="black" cx="1244.19" cy="-1042" rx="54.69" ry="18"/>
<text text-anchor="middle" x="1244.19" y="-1038.3" font-family="Times,serif" font-size="14.00" fill="white">msgpack c</text>
</a>
</g>
</g>
<!-- libradolan&#45;&gt;msgpack&#45;c -->
<!-- fenics -->
<g id="node4" class="node">
<title>fenics</title>
<g id="a_node4"><a xlink:href="https://github.com/conda-forge/fenics-feedstock/pull/106" xlink:title="fenics">
<ellipse fill="#31688e" stroke="black" cx="1042.19" cy="-126" rx="40.5" ry="18"/>
<text text-anchor="middle" x="1042.19" y="-122.3" font-family="Times,serif" font-size="14.00" fill="white">fenics</text>
</a>
</g>
</g>
<!-- mshr -->
<g id="node5" class="node">
<title>mshr</title>
<ellipse fill="#fde725" stroke="black" cx="1042.19" cy="-54" rx="30.59" ry="18"/>
<text text-anchor="middle" x="1042.19" y="-50.3" font-family="Times,serif" font-size="14.00">mshr</text>
</g>
<!-- fenics&#45;&gt;mshr -->
<g id="edge3" class="edge">
<title>fenics&#45;&gt;mshr</title>
<path fill="none" stroke="black" d="M1042.19,-107.7C1042.19,-99.98 1042.19,-90.71 1042.19,-82.11"/>
<polygon fill="black" stroke="black" points="1045.69,-82.1 1042.19,-72.1 1038.69,-82.1 1045.69,-82.1"/>
</g>
<!-- gap -->
<g id="node6" class="node">
<title>gap</title>
<ellipse fill="#fde725" stroke="black" cx="453.19" cy="-90" rx="27" ry="18"/>
<text text-anchor="middle" x="453.19" y="-86.3" font-family="Times,serif" font-size="14.00">gap</text>
</g>
<!-- sagelib -->
<g id="node7" class="node">
<title>sagelib</title>
<ellipse fill="#fde725" stroke="black" cx="453.19" cy="-18" rx="45" ry="18"/>
<text text-anchor="middle" x="453.19" y="-14.3" font-family="Times,serif" font-size="14.00">sagelib</text>
</g>
<!-- gap&#45;&gt;sagelib -->
<g id="edge4" class="edge">
<title>gap&#45;&gt;sagelib</title>
<path fill="none" stroke="black" d="M453.19,-71.7C453.19,-63.98 453.19,-54.71 453.19,-46.11"/>
<polygon fill="black" stroke="black" points="456.69,-46.1 453.19,-36.1 449.69,-46.1 456.69,-46.1"/>
</g>
<!-- openturns -->
<g id="node9" class="node">
<title>openturns</title>
<g id="a_node9"><a xlink:href="https://github.com/conda-forge/openturns-feedstock/pull/99" xlink:title="openturns">
<ellipse fill="#31688e" stroke="black" cx="1244.19" cy="-970" rx="54.69" ry="18"/>
<text text-anchor="middle" x="1244.19" y="-966.3" font-family="Times,serif" font-size="14.00" fill="white">openturns</text>
</a>
</g>
</g>
<!-- msgpack&#45;c&#45;&gt;openturns -->
<!-- pykep -->
<g id="node10" class="node">
<title>pykep</title>
<g id="a_node10"><a xlink:href="https://github.com/conda-forge/pykep-feedstock/pull/10" xlink:title="pykep">
<ellipse fill="#31688e" stroke="black" cx="1244.19" cy="-898" rx="35.19" ry="18"/>
<text text-anchor="middle" x="1244.19" y="-894.3" font-family="Times,serif" font-size="14.00" fill="white">pykep</text>
</a>
</g>
</g>
<!-- openturns&#45;&gt;pykep -->
<!-- pyne -->
<g id="node13" class="node">
<title>pyne</title>
<g id="a_node13"><a xlink:href="https://github.com/conda-forge/pyne-feedstock/pull/38" xlink:title="pyne">
<ellipse fill="#31688e" stroke="black" cx="1244.19" cy="-826" rx="30.59" ry="18"/>
<text text-anchor="middle" x="1244.19" y="-822.3" font-family="Times,serif" font-size="14.00" fill="white">pyne</text>
</a>
</g>
</g>
<!-- pykep&#45;&gt;pyne -->
<!-- pygmo -->
<g id="node11" class="node">
<title>pygmo</title>
<g id="a_node11"><a xlink:href="https://github.com/conda-forge/pygmo-feedstock/pull/44" xlink:title="pygmo">
<ellipse fill="#31688e" stroke="black" cx="1213.19" cy="-350" rx="35.19" ry="18"/>
<text text-anchor="middle" x="1213.19" y="-346.3" font-family="Times,serif" font-size="14.00" fill="white">pygmo</text>
</a>
</g>
</g>
<!-- dcgp&#45;python -->
<g id="node12" class="node">
<title>dcgp&#45;python</title>
<ellipse fill="#fde725" stroke="black" cx="1244.19" cy="-278" rx="64.5" ry="18"/>
<text text-anchor="middle" x="1244.19" y="-274.3" font-family="Times,serif" font-size="14.00">dcgp python</text>
</g>
<!-- pygmo&#45;&gt;dcgp&#45;python -->
<g id="edge8" class="edge">
<title>pygmo&#45;&gt;dcgp&#45;python</title>
<path fill="none" stroke="black" d="M1220.69,-332.05C1224.22,-324.09 1228.5,-314.41 1232.45,-305.51"/>
<polygon fill="black" stroke="black" points="1235.69,-306.84 1236.54,-296.28 1229.29,-304 1235.69,-306.84"/>
</g>
<!-- rank_filter -->
<g id="node14" class="node">
<title>rank_filter</title>
<g id="a_node14"><a xlink:href="https://github.com/conda-forge/rank_filter-feedstock/pull/43" xlink:title="rank_filter">
<ellipse fill="#31688e" stroke="black" cx="1244.19" cy="-754" rx="64.5" ry="18"/>
<text text-anchor="middle" x="1244.19" y="-750.3" font-family="Times,serif" font-size="14.00" fill="white">rank_filter</text>
</a>
</g>
</g>
<!-- pyne&#45;&gt;rank_filter -->
<!-- rsgislib -->
<g id="node15" class="node">
<title>rsgislib</title>
<g id="a_node15"><a xlink:href="https://github.com/conda-forge/rsgislib-feedstock/pull/28" xlink:title="rsgislib">
<ellipse fill="#31688e" stroke="black" cx="1244.19" cy="-682" rx="50.09" ry="18"/>
<text text-anchor="middle" x="1244.19" y="-678.3" font-family="Times,serif" font-size="14.00" fill="white">rsgislib</text>
</a>
</g>
</g>
<!-- rank_filter&#45;&gt;rsgislib -->
<!-- turbodbc -->
<g id="node16" class="node">
<title>turbodbc</title>
<g id="a_node16"><a xlink:href="https://github.com/conda-forge/turbodbc-feedstock/pull/38" xlink:title="turbodbc">
<ellipse fill="#31688e" stroke="black" cx="1244.19" cy="-610" rx="50.09" ry="18"/>
<text text-anchor="middle" x="1244.19" y="-606.3" font-family="Times,serif" font-size="14.00" fill="white">turbodbc</text>
</a>
</g>
</g>
<!-- rsgislib&#45;&gt;turbodbc -->
<!-- clblas -->
<g id="node17" class="node">
<title>clblas</title>
<g id="a_node17"><a xlink:href="https://github.com/conda-forge/clblas-feedstock/pull/9" xlink:title="clblas">
<ellipse fill="#31688e" stroke="black" cx="1244.19" cy="-538" rx="40.5" ry="18"/>
<text text-anchor="middle" x="1244.19" y="-534.3" font-family="Times,serif" font-size="14.00" fill="white">clblas</text>
</a>
</g>
</g>
<!-- turbodbc&#45;&gt;clblas -->
<!-- audi -->
<g id="node18" class="node">
<title>audi</title>
<g id="a_node18"><a xlink:href="https://github.com/conda-forge/audi-feedstock/pull/16" xlink:title="audi">
<ellipse fill="#31688e" stroke="black" cx="1276.19" cy="-422" rx="30.59" ry="18"/>
<text text-anchor="middle" x="1276.19" y="-418.3" font-family="Times,serif" font-size="14.00" fill="white">audi</text>
</a>
</g>
</g>
<!-- audi&#45;&gt;dcgp&#45;python -->
<g id="edge14" class="edge">
<title>audi&#45;&gt;dcgp&#45;python</title>
<path fill="none" stroke="black" d="M1272.7,-403.9C1269,-385.96 1262.91,-356.95 1257.19,-332 1255.25,-323.56 1253.04,-314.39 1251,-306.09"/>
<polygon fill="black" stroke="black" points="1254.34,-305.02 1248.53,-296.15 1247.54,-306.7 1254.34,-305.02"/>
</g>
<!-- clfft -->
<g id="node19" class="node">
<title>clfft</title>
<g id="a_node19"><a xlink:href="https://github.com/conda-forge/clfft-feedstock/pull/9" xlink:title="clfft">
<ellipse fill="#31688e" stroke="black" cx="1042.19" cy="-1258" rx="35.19" ry="18"/>
<text text-anchor="middle" x="1042.19" y="-1254.3" font-family="Times,serif" font-size="14.00" fill="white">clfft</text>
</a>
</g>
</g>
<!-- clsparse -->
<g id="node20" class="node">
<title>clsparse</title>
<g id="a_node20"><a xlink:href="https://github.com/conda-forge/clsparse-feedstock/pull/7" xlink:title="clsparse">
<ellipse fill="#31688e" stroke="black" cx="1042.19" cy="-1186" rx="50.09" ry="18"/>
<text text-anchor="middle" x="1042.19" y="-1182.3" font-family="Times,serif" font-size="14.00" fill="white">clsparse</text>
</a>
</g>
</g>
<!-- clfft&#45;&gt;clsparse -->
<!-- spdlib -->
<g id="node21" class="node">
<title>spdlib</title>
<g id="a_node21"><a xlink:href="https://github.com/conda-forge/spdlib-feedstock/pull/11" xlink:title="spdlib">
<ellipse fill="#31688e" stroke="black" cx="1042.19" cy="-1114" rx="40.5" ry="18"/>
<text text-anchor="middle" x="1042.19" y="-1110.3" font-family="Times,serif" font-size="14.00" fill="white">spdlib</text>
</a>
</g>
</g>
<!-- clsparse&#45;&gt;spdlib -->
<!-- pcl -->
<g id="node22" class="node">
<title>pcl</title>
<g id="a_node22"><a xlink:href="https://github.com/conda-forge/pcl-feedstock/pull/20" xlink:title="pcl">
<ellipse fill="#31688e" stroke="black" cx="1042.19" cy="-1042" rx="27" ry="18"/>
<text text-anchor="middle" x="1042.19" y="-1038.3" font-family="Times,serif" font-size="14.00" fill="white">pcl</text>
</a>
</g>
</g>
<!-- spdlib&#45;&gt;pcl -->
<!-- freecad -->
<g id="node23" class="node">
<title>freecad</title>
<g id="a_node23"><a xlink:href="https://github.com/conda-forge/freecad-feedstock/pull/35" xlink:title="freecad">
<ellipse fill="#31688e" stroke="black" cx="1042.19" cy="-970" rx="45" ry="18"/>
<text text-anchor="middle" x="1042.19" y="-966.3" font-family="Times,serif" font-size="14.00" fill="white">freecad</text>
</a>
</g>
</g>
<!-- pcl&#45;&gt;freecad -->
<!-- helics -->
<g id="node24" class="node">
<title>helics</title>
<g id="a_node24"><a xlink:href="https://github.com/conda-forge/helics-feedstock/pull/17" xlink:title="helics">
<ellipse fill="#31688e" stroke="black" cx="1042.19" cy="-898" rx="40.5" ry="18"/>
<text text-anchor="middle" x="1042.19" y="-894.3" font-family="Times,serif" font-size="14.00" fill="white">helics</text>
</a>
</g>
</g>
<!-- freecad&#45;&gt;helics -->
<!-- nds2&#45;client -->
<g id="node25" class="node">
<title>nds2&#45;client</title>
<g id="a_node25"><a xlink:href="https://github.com/conda-forge/nds2-client-feedstock/pull/9" xlink:title="nds2 client">
<ellipse fill="#31688e" stroke="black" cx="1042.19" cy="-826" rx="64.5" ry="18"/>
<text text-anchor="middle" x="1042.19" y="-822.3" font-family="Times,serif" font-size="14.00" fill="white">nds2 client</text>
</a>
</g>
</g>
<!-- helics&#45;&gt;nds2&#45;client -->
<!-- gudhi -->
<g id="node26" class="node">
<title>gudhi</title>
<g id="a_node26"><a xlink:href="https://github.com/conda-forge/gudhi-feedstock/pull/16" xlink:title="gudhi">
<ellipse fill="#31688e" stroke="black" cx="1042.19" cy="-754" rx="35.19" ry="18"/>
<text text-anchor="middle" x="1042.19" y="-750.3" font-family="Times,serif" font-size="14.00" fill="white">gudhi</text>
</a>
</g>
</g>
<!-- nds2&#45;client&#45;&gt;gudhi -->
<!-- ldas&#45;tools&#45;diskcacheapi -->
<g id="node27" class="node">
<title>ldas&#45;tools&#45;diskcacheapi</title>
<g id="a_node27"><a xlink:href="https://github.com/conda-forge/ldas-tools-diskcacheapi-feedstock/pull/4" xlink:title="ldas tools diskcacheapi">
<ellipse fill="#31688e" stroke="black" cx="1042.19" cy="-682" rx="123" ry="18"/>
<text text-anchor="middle" x="1042.19" y="-678.3" font-family="Times,serif" font-size="14.00" fill="white">ldas tools diskcacheapi</text>
</a>
</g>
</g>
<!-- gudhi&#45;&gt;ldas&#45;tools&#45;diskcacheapi -->
<!-- libint -->
<g id="node28" class="node">
<title>libint</title>
<g id="a_node28"><a xlink:href="https://github.com/conda-forge/libint-feedstock/pull/5" xlink:title="libint">
<ellipse fill="#31688e" stroke="black" cx="1042.19" cy="-610" rx="40.5" ry="18"/>
<text text-anchor="middle" x="1042.19" y="-606.3" font-family="Times,serif" font-size="14.00" fill="white">libint</text>
</a>
</g>
</g>
<!-- ldas&#45;tools&#45;diskcacheapi&#45;&gt;libint -->
<!-- dealii -->
<g id="node29" class="node">
<title>dealii</title>
<g id="a_node29"><a xlink:href="https://github.com/conda-forge/dealii-feedstock/pull/6" xlink:title="dealii">
<ellipse fill="#31688e" stroke="black" cx="1042.19" cy="-538" rx="40.5" ry="18"/>
<text text-anchor="middle" x="1042.19" y="-534.3" font-family="Times,serif" font-size="14.00" fill="white">dealii</text>
</a>
</g>
</g>
<!-- libint&#45;&gt;dealii -->
<!-- ambertools -->
<g id="node30" class="node">
<title>ambertools</title>
<g id="a_node30"><a xlink:href="https://github.com/conda-forge/ambertools-feedstock/pull/25" xlink:title="ambertools">
<ellipse fill="#31688e" stroke="black" cx="453.19" cy="-494" rx="60" ry="18"/>
<text text-anchor="middle" x="453.19" y="-490.3" font-family="Times,serif" font-size="14.00" fill="white">ambertools</text>
</a>
</g>
</g>
<!-- biorbd -->
<g id="node31" class="node">
<title>biorbd</title>
<g id="a_node31"><a xlink:href="https://github.com/conda-forge/biorbd-feedstock/pull/13" xlink:title="biorbd">
<ellipse fill="#31688e" stroke="black" cx="453.19" cy="-422" rx="40.5" ry="18"/>
<text text-anchor="middle" x="453.19" y="-418.3" font-family="Times,serif" font-size="14.00" fill="white">biorbd</text>
</a>
</g>
</g>
<!-- ambertools&#45;&gt;biorbd -->
<!-- esys&#45;escript -->
<g id="node32" class="node">
<title>esys&#45;escript</title>
<g id="a_node32"><a xlink:href="https://github.com/conda-forge/esys-escript-feedstock/pull/11" xlink:title="esys escript">
<ellipse fill="#31688e" stroke="black" cx="453.19" cy="-350" rx="69.59" ry="18"/>
<text text-anchor="middle" x="453.19" y="-346.3" font-family="Times,serif" font-size="14.00" fill="white">esys escript</text>
</a>
</g>
</g>
<!-- biorbd&#45;&gt;esys&#45;escript -->
<!-- graph&#45;tool -->
<g id="node34" class="node">
<title>graph&#45;tool</title>
<g id="a_node34"><a xlink:href="https://github.com/conda-forge/graph-tool-feedstock/pull/8" xlink:title="graph tool">
<ellipse fill="#31688e" stroke="black" cx="453.19" cy="-278" rx="60" ry="18"/>
<text text-anchor="middle" x="453.19" y="-274.3" font-family="Times,serif" font-size="14.00" fill="white">graph tool</text>
</a>
</g>
</g>
<!-- esys&#45;escript&#45;&gt;graph&#45;tool -->
<!-- normaliz -->
<g id="node33" class="node">
<title>normaliz</title>
<g id="a_node33"><a xlink:href="https://github.com/conda-forge/normaliz-feedstock/pull/18" xlink:title="normaliz">
<ellipse fill="#31688e" stroke="black" cx="453.19" cy="-162" rx="50.09" ry="18"/>
<text text-anchor="middle" x="453.19" y="-158.3" font-family="Times,serif" font-size="14.00" fill="white">normaliz</text>
</a>
</g>
</g>
<!-- normaliz&#45;&gt;gap -->
<g id="edge27" class="edge">
<title>normaliz&#45;&gt;gap</title>
<path fill="none" stroke="black" d="M453.19,-143.7C453.19,-135.98 453.19,-126.71 453.19,-118.11"/>
<polygon fill="black" stroke="black" points="456.69,-118.1 453.19,-108.1 449.69,-118.1 456.69,-118.1"/>
</g>
<!-- pyinterp -->
<g id="node39" class="node">
<title>pyinterp</title>
<g id="a_node39"><a xlink:href="https://github.com/conda-forge/pyinterp-feedstock/pull/15" xlink:title="pyinterp">
<ellipse fill="#31688e" stroke="black" cx="453.19" cy="-206" rx="50.09" ry="18"/>
<text text-anchor="middle" x="453.19" y="-202.3" font-family="Times,serif" font-size="14.00" fill="white">pyinterp</text>
</a>
</g>
</g>
<!-- graph&#45;tool&#45;&gt;pyinterp -->
<!-- xmsgrid -->
<g id="node35" class="node">
<title>xmsgrid</title>
<g id="a_node35"><a xlink:href="https://github.com/conda-forge/xmsgrid-feedstock/pull/6" xlink:title="xmsgrid">
<ellipse fill="#31688e" stroke="black" cx="1042.19" cy="-422" rx="45" ry="18"/>
<text text-anchor="middle" x="1042.19" y="-418.3" font-family="Times,serif" font-size="14.00" fill="white">xmsgrid</text>
</a>
</g>
</g>
<!-- xmsinterp -->
<g id="node36" class="node">
<title>xmsinterp</title>
<ellipse fill="#fde725" stroke="black" cx="1042.19" cy="-350" rx="54.69" ry="18"/>
<text text-anchor="middle" x="1042.19" y="-346.3" font-family="Times,serif" font-size="14.00">xmsinterp</text>
</g>
<!-- xmsgrid&#45;&gt;xmsinterp -->
<g id="edge29" class="edge">
<title>xmsgrid&#45;&gt;xmsinterp</title>
<path fill="none" stroke="black" d="M1042.19,-403.7C1042.19,-395.98 1042.19,-386.71 1042.19,-378.11"/>
<polygon fill="black" stroke="black" points="1045.69,-378.1 1042.19,-368.1 1038.69,-378.1 1045.69,-378.1"/>
</g>
<!-- xmsstamper -->
<g id="node37" class="node">
<title>xmsstamper</title>
<ellipse fill="#fde725" stroke="black" cx="975.19" cy="-278" rx="60" ry="18"/>
<text text-anchor="middle" x="975.19" y="-274.3" font-family="Times,serif" font-size="14.00">xmsstamper</text>
</g>
<!-- xmsgrid&#45;&gt;xmsstamper -->
<g id="edge30" class="edge">
<title>xmsgrid&#45;&gt;xmsstamper</title>
<path fill="none" stroke="black" d="M1016.62,-407.14C1002.58,-398.03 986.39,-384.71 978.19,-368 968.79,-348.86 968.65,-324.51 970.52,-306.12"/>
<polygon fill="black" stroke="black" points="974,-306.42 971.79,-296.06 967.06,-305.54 974,-306.42"/>
</g>
<!-- xmsmesher -->
<g id="node38" class="node">
<title>xmsmesher</title>
<ellipse fill="#fde725" stroke="black" cx="1116.19" cy="-278" rx="54.69" ry="18"/>
<text text-anchor="middle" x="1116.19" y="-274.3" font-family="Times,serif" font-size="14.00">xmsmesher</text>
</g>
<!-- xmsgrid&#45;&gt;xmsmesher -->
<g id="edge31" class="edge">
<title>xmsgrid&#45;&gt;xmsmesher</title>
<path fill="none" stroke="black" d="M1067.28,-406.9C1081.16,-397.7 1097.34,-384.37 1106.19,-368 1116.38,-349.13 1118.5,-324.76 1118.27,-306.29"/>
<polygon fill="black" stroke="black" points="1121.77,-306.06 1117.92,-296.19 1114.77,-306.3 1121.77,-306.06"/>
</g>
<!-- xmsinterp&#45;&gt;xmsstamper -->
<g id="edge32" class="edge">
<title>xmsinterp&#45;&gt;xmsstamper</title>
<path fill="none" stroke="black" d="M1026.31,-332.41C1017.88,-323.61 1007.37,-312.63 998.08,-302.92"/>
<polygon fill="black" stroke="black" points="1000.39,-300.27 990.95,-295.47 995.34,-305.11 1000.39,-300.27"/>
</g>
<!-- xmsinterp&#45;&gt;xmsmesher -->
<g id="edge33" class="edge">
<title>xmsinterp&#45;&gt;xmsmesher</title>
<path fill="none" stroke="black" d="M1059.35,-332.76C1068.97,-323.66 1081.13,-312.16 1091.73,-302.13"/>
<polygon fill="black" stroke="black" points="1094.26,-304.56 1099.12,-295.15 1089.45,-299.48 1094.26,-304.56"/>
</g>
<!-- ros&#45;roslib -->
<g id="node40" class="node">
<title>ros&#45;roslib</title>
<g id="a_node40"><a xlink:href="https://github.com/conda-forge/ros-roslib-feedstock/pull/6" xlink:title="ros roslib">
<ellipse fill="#31688e" stroke="black" cx="152.19" cy="-1006" rx="60" ry="18"/>
<text text-anchor="middle" x="152.19" y="-1002.3" font-family="Times,serif" font-size="14.00" fill="white">ros roslib</text>
</a>
</g>
</g>
<!-- ros&#45;pluginlib -->
<g id="node41" class="node">
<title>ros&#45;pluginlib</title>
<ellipse fill="#fde725" stroke="black" cx="405.19" cy="-934" rx="74.19" ry="18"/>
<text text-anchor="middle" x="405.19" y="-930.3" font-family="Times,serif" font-size="14.00">ros pluginlib</text>
</g>
<!-- ros&#45;roslib&#45;&gt;ros&#45;pluginlib -->
<g id="edge35" class="edge">
<title>ros&#45;roslib&#45;&gt;ros&#45;pluginlib</title>
<path fill="none" stroke="black" d="M194.82,-993.2C237.02,-981.53 301.89,-963.58 348.44,-950.7"/>
<polygon fill="black" stroke="black" points="349.37,-954.07 358.08,-948.03 347.5,-947.33 349.37,-954.07"/>
</g>
<!-- ros&#45;rosbag&#45;storage -->
<g id="node42" class="node">
<title>ros&#45;rosbag&#45;storage</title>
<ellipse fill="#fde725" stroke="black" cx="354.19" cy="-862" rx="99" ry="18"/>
<text text-anchor="middle" x="354.19" y="-858.3" font-family="Times,serif" font-size="14.00">ros rosbag storage</text>
</g>
<!-- ros&#45;roslib&#45;&gt;ros&#45;rosbag&#45;storage -->
<g id="edge36" class="edge">
<title>ros&#45;roslib&#45;&gt;ros&#45;rosbag&#45;storage</title>
<path fill="none" stroke="black" d="M98.46,-997.9C70.12,-991.12 37.68,-977.88 20.19,-952 11.23,-938.75 9.8,-928.17 20.19,-916 48.97,-882.28 160.03,-869.9 246.28,-865.42"/>
<polygon fill="black" stroke="black" points="246.58,-868.91 256.4,-864.92 246.24,-861.92 246.58,-868.91"/>
</g>
<!-- ros&#45;rosbag -->
<g id="node43" class="node">
<title>ros&#45;rosbag</title>
<ellipse fill="#fde725" stroke="black" cx="354.19" cy="-790" rx="60" ry="18"/>
<text text-anchor="middle" x="354.19" y="-786.3" font-family="Times,serif" font-size="14.00">ros rosbag</text>
</g>
<!-- ros&#45;roslib&#45;&gt;ros&#45;rosbag -->
<g id="edge37" class="edge">
<title>ros&#45;roslib&#45;&gt;ros&#45;rosbag</title>
<path fill="none" stroke="black" d="M95.93,-999.51C64.85,-993.27 28.7,-980.04 9.19,-952 0.05,-938.87 0,-929.1 9.19,-916 71.36,-827.34 203.07,-801.31 284.57,-793.82"/>
<polygon fill="black" stroke="black" points="285.07,-797.29 294.74,-792.96 284.48,-790.32 285.07,-797.29"/>
</g>
<!-- ros&#45;actionlib -->
<g id="node44" class="node">
<title>ros&#45;actionlib</title>
<ellipse fill="#fde725" stroke="black" cx="571.19" cy="-934" rx="74.19" ry="18"/>
<text text-anchor="middle" x="571.19" y="-930.3" font-family="Times,serif" font-size="14.00">ros actionlib</text>
</g>
<!-- ros&#45;roslib&#45;&gt;ros&#45;actionlib -->
<g id="edge38" class="edge">
<title>ros&#45;roslib&#45;&gt;ros&#45;actionlib</title>
<path fill="none" stroke="black" d="M204.98,-997.43C271.26,-987.76 388.39,-970.08 488.19,-952 494.36,-950.88 500.78,-949.66 507.2,-948.41"/>
<polygon fill="black" stroke="black" points="508.1,-951.8 517.23,-946.42 506.74,-944.93 508.1,-951.8"/>
</g>
<!-- ros&#45;dynamic&#45;reconfigure -->
<g id="node45" class="node">
<title>ros&#45;dynamic&#45;reconfigure</title>
<ellipse fill="#fde725" stroke="black" cx="152.19" cy="-934" rx="123" ry="18"/>
<text text-anchor="middle" x="152.19" y="-930.3" font-family="Times,serif" font-size="14.00">ros dynamic reconfigure</text>
</g>
<!-- ros&#45;roslib&#45;&gt;ros&#45;dynamic&#45;reconfigure -->
<g id="edge39" class="edge">
<title>ros&#45;roslib&#45;&gt;ros&#45;dynamic&#45;reconfigure</title>
<path fill="none" stroke="black" d="M152.19,-987.7C152.19,-979.98 152.19,-970.71 152.19,-962.11"/>
<polygon fill="black" stroke="black" points="155.69,-962.1 152.19,-952.1 148.69,-962.1 155.69,-962.1"/>
</g>
<!-- ros&#45;pluginlib&#45;&gt;ros&#45;rosbag&#45;storage -->
<g id="edge40" class="edge">
<title>ros&#45;pluginlib&#45;&gt;ros&#45;rosbag&#45;storage</title>
<path fill="none" stroke="black" d="M392.84,-916.05C386.79,-907.75 379.38,-897.58 372.68,-888.38"/>
<polygon fill="black" stroke="black" points="375.49,-886.3 366.77,-880.28 369.83,-890.42 375.49,-886.3"/>
</g>
<!-- ros&#45;rosbag&#45;storage&#45;&gt;ros&#45;rosbag -->
<g id="edge41" class="edge">
<title>ros&#45;rosbag&#45;storage&#45;&gt;ros&#45;rosbag</title>
<path fill="none" stroke="black" d="M354.19,-843.7C354.19,-835.98 354.19,-826.71 354.19,-818.11"/>
<polygon fill="black" stroke="black" points="357.69,-818.1 354.19,-808.1 350.69,-818.1 357.69,-818.1"/>
</g>
<!-- ros&#45;rosconsole -->
<g id="node46" class="node">
<title>ros&#45;rosconsole</title>
<g id="a_node46"><a xlink:href="https://github.com/conda-forge/ros-rosconsole-feedstock/pull/2" xlink:title="ros rosconsole">
<ellipse fill="#31688e" stroke="black" cx="767.19" cy="-1006" rx="79.5" ry="18"/>
<text text-anchor="middle" x="767.19" y="-1002.3" font-family="Times,serif" font-size="14.00" fill="white">ros rosconsole</text>
</a>
</g>
</g>
<!-- ros&#45;rosconsole&#45;&gt;ros&#45;pluginlib -->
<g id="edge42" class="edge">
<title>ros&#45;rosconsole&#45;&gt;ros&#45;pluginlib</title>
<path fill="none" stroke="black" d="M707.81,-993.98C651.3,-983.42 563.89,-966.94 488.19,-952 482.13,-950.8 475.82,-949.54 469.51,-948.27"/>
<polygon fill="black" stroke="black" points="470.13,-944.82 459.63,-946.27 468.74,-951.68 470.13,-944.82"/>
</g>
<!-- ros&#45;rosconsole&#45;&gt;ros&#45;rosbag&#45;storage -->
<g id="edge43" class="edge">
<title>ros&#45;rosconsole&#45;&gt;ros&#45;rosbag&#45;storage</title>
<path fill="none" stroke="black" d="M822.16,-992.89C844.12,-985.07 867.23,-972.39 880.19,-952 888.77,-938.5 890.92,-927.87 880.19,-916 852.66,-885.56 606.91,-871.79 461.25,-866.25"/>
<polygon fill="black" stroke="black" points="461.07,-862.74 450.94,-865.86 460.8,-869.73 461.07,-862.74"/>
</g>
<!-- ros&#45;rosconsole&#45;&gt;ros&#45;rosbag -->
<g id="edge44" class="edge">
<title>ros&#45;rosconsole&#45;&gt;ros&#45;rosbag</title>
<path fill="none" stroke="black" d="M830.19,-994.96C855.41,-987.52 882.03,-974.55 897.19,-952 906.11,-938.72 907.15,-928.52 897.19,-916 838.4,-842.14 553.65,-808.25 421.64,-796.31"/>
<polygon fill="black" stroke="black" points="421.92,-792.82 411.64,-795.42 421.3,-799.79 421.92,-792.82"/>
</g>
<!-- ros&#45;rosconsole&#45;&gt;ros&#45;actionlib -->
<g id="edge45" class="edge">
<title>ros&#45;rosconsole&#45;&gt;ros&#45;actionlib</title>
<path fill="none" stroke="black" d="M726.58,-990.5C695.89,-979.54 653.61,-964.44 620.9,-952.75"/>
<polygon fill="black" stroke="black" points="621.67,-949.31 611.08,-949.25 619.32,-955.91 621.67,-949.31"/>
</g>
<!-- ros&#45;message&#45;filters -->
<g id="node47" class="node">
<title>ros&#45;message&#45;filters</title>
<ellipse fill="#fde725" stroke="black" cx="767.19" cy="-934" rx="103.5" ry="18"/>
<text text-anchor="middle" x="767.19" y="-930.3" font-family="Times,serif" font-size="14.00">ros message filters</text>
</g>
<!-- ros&#45;rosconsole&#45;&gt;ros&#45;message&#45;filters -->
<g id="edge46" class="edge">
<title>ros&#45;rosconsole&#45;&gt;ros&#45;message&#45;filters</title>
<path fill="none" stroke="black" d="M767.19,-987.7C767.19,-979.98 767.19,-970.71 767.19,-962.11"/>
<polygon fill="black" stroke="black" points="770.69,-962.1 767.19,-952.1 763.69,-962.1 770.69,-962.1"/>
</g>
<!-- ros&#45;rostest -->
<g id="node48" class="node">
<title>ros&#45;rostest</title>
<g id="a_node48"><a xlink:href="https://github.com/conda-forge/ros-rostest-feedstock/pull/2" xlink:title="ros rostest">
<ellipse fill="#31688e" stroke="black" cx="437.19" cy="-1006" rx="64.5" ry="18"/>
<text text-anchor="middle" x="437.19" y="-1002.3" font-family="Times,serif" font-size="14.00" fill="white">ros rostest</text>
</a>
</g>
</g>
<!-- ros&#45;rostest&#45;&gt;ros&#45;rosbag&#45;storage -->
<g id="edge47" class="edge">
<title>ros&#45;rostest&#45;&gt;ros&#45;rosbag&#45;storage</title>
<path fill="none" stroke="black" d="M386.35,-994.83C362.57,-987.25 336.41,-974.22 322.19,-952 309.58,-932.3 320.91,-906.97 333.44,-888.37"/>
<polygon fill="black" stroke="black" points="336.4,-890.26 339.39,-880.09 330.71,-886.17 336.4,-890.26"/>
</g>
<!-- ros&#45;rostest&#45;&gt;ros&#45;actionlib -->
<g id="edge48" class="edge">
<title>ros&#45;rostest&#45;&gt;ros&#45;actionlib</title>
<path fill="none" stroke="black" d="M466.26,-989.81C485.57,-979.72 511.15,-966.36 532.22,-955.36"/>
<polygon fill="black" stroke="black" points="534,-958.38 541.24,-950.64 530.76,-952.17 534,-958.38"/>
</g>
<!-- ros&#45;rostest&#45;&gt;ros&#45;dynamic&#45;reconfigure -->
<g id="edge49" class="edge">
<title>ros&#45;rostest&#45;&gt;ros&#45;dynamic&#45;reconfigure</title>
<path fill="none" stroke="black" d="M390.44,-993.52C344.75,-982.3 274.61,-965.07 222.24,-952.21"/>
<polygon fill="black" stroke="black" points="222.9,-948.76 212.35,-949.78 221.23,-955.56 222.9,-948.76"/>
</g>
<!-- ros&#45;rostest&#45;&gt;ros&#45;message&#45;filters -->
<g id="edge50" class="edge">
<title>ros&#45;rostest&#45;&gt;ros&#45;message&#45;filters</title>
<path fill="none" stroke="black" d="M486.95,-994.44C542.07,-982.75 631.46,-963.79 694.43,-950.43"/>
<polygon fill="black" stroke="black" points="695.24,-953.84 704.3,-948.34 693.79,-946.99 695.24,-953.84"/>
</g>
</g>
</svg>
