<?xml version="1.0" encoding="UTF-8" standalone="no"?>
<!DOCTYPE svg PUBLIC "-//W3C//DTD SVG 1.1//EN"
 "http://www.w3.org/Graphics/SVG/1.1/DTD/svg11.dtd">
<!-- Generated by graphviz version 2.42.3 (20191010.1750)
 -->
<!-- Title: %3 Pages: 1 -->
<svg width="1308pt" height="1140pt"
 viewBox="0.00 0.00 1307.69 1140.00" xmlns="http://www.w3.org/2000/svg" xmlns:xlink="http://www.w3.org/1999/xlink">
<g id="graph0" class="graph" transform="scale(1 1) rotate(0) translate(4 1136)">
<title>%3</title>
<polygon fill="white" stroke="transparent" points="-4,4 -4,-1136 1303.69,-1136 1303.69,4 -4,4"/>
<!-- cyclus -->
<g id="node1" class="node">
<title>cyclus</title>
<g id="a_node1"><a xlink:href="https://github.com/conda-forge/cyclus-feedstock/pull/54" xlink:title="cyclus">
<ellipse fill="#31688e" stroke="black" cx="1234.19" cy="-1114" rx="40.5" ry="18"/>
<text text-anchor="middle" x="1234.19" y="-1110.3" font-family="Times,serif" font-size="14.00" fill="white">cyclus</text>
</a>
</g>
</g>
<!-- libradolan -->
<g id="node2" class="node">
<title>libradolan</title>
<g id="a_node2"><a xlink:href="https://github.com/conda-forge/libradolan-feedstock/pull/22" xlink:title="libradolan">
<ellipse fill="#31688e" stroke="black" cx="1234.19" cy="-1042" rx="60" ry="18"/>
<text text-anchor="middle" x="1234.19" y="-1038.3" font-family="Times,serif" font-size="14.00" fill="white">libradolan</text>
</a>
</g>
</g>
<!-- cyclus&#45;&gt;libradolan -->
<!-- msgpack&#45;c -->
<g id="node7" class="node">
<title>msgpack&#45;c</title>
<g id="a_node7"><a xlink:href="https://github.com/conda-forge/msgpack-c-feedstock/pull/17" xlink:title="msgpack c">
<ellipse fill="#31688e" stroke="black" cx="1234.19" cy="-970" rx="54.69" ry="18"/>
<text text-anchor="middle" x="1234.19" y="-966.3" font-family="Times,serif" font-size="14.00" fill="white">msgpack c</text>
</a>
</g>
</g>
<!-- libradolan&#45;&gt;msgpack&#45;c -->
<!-- fenics -->
<g id="node3" class="node">
<title>fenics</title>
<g id="a_node3"><a xlink:href="https://github.com/conda-forge/fenics-feedstock/pull/106" xlink:title="fenics">
<ellipse fill="#31688e" stroke="black" cx="1038.19" cy="-126" rx="40.5" ry="18"/>
<text text-anchor="middle" x="1038.19" y="-122.3" font-family="Times,serif" font-size="14.00" fill="white">fenics</text>
</a>
</g>
</g>
<!-- mshr -->
<g id="node4" class="node">
<title>mshr</title>
<ellipse fill="#fde725" stroke="black" cx="1038.19" cy="-54" rx="30.59" ry="18"/>
<text text-anchor="middle" x="1038.19" y="-50.3" font-family="Times,serif" font-size="14.00">mshr</text>
</g>
<!-- fenics&#45;&gt;mshr -->
<g id="edge2" class="edge">
<title>fenics&#45;&gt;mshr</title>
<path fill="none" stroke="black" d="M1038.19,-107.7C1038.19,-99.98 1038.19,-90.71 1038.19,-82.11"/>
<polygon fill="black" stroke="black" points="1041.69,-82.1 1038.19,-72.1 1034.69,-82.1 1041.69,-82.1"/>
</g>
<!-- gap -->
<g id="node5" class="node">
<title>gap</title>
<ellipse fill="#fde725" stroke="black" cx="453.19" cy="-90" rx="27" ry="18"/>
<text text-anchor="middle" x="453.19" y="-86.3" font-family="Times,serif" font-size="14.00">gap</text>
</g>
<!-- sagelib -->
<g id="node6" class="node">
<title>sagelib</title>
<ellipse fill="#fde725" stroke="black" cx="453.19" cy="-18" rx="45" ry="18"/>
<text text-anchor="middle" x="453.19" y="-14.3" font-family="Times,serif" font-size="14.00">sagelib</text>
</g>
<!-- gap&#45;&gt;sagelib -->
<g id="edge3" class="edge">
<title>gap&#45;&gt;sagelib</title>
<path fill="none" stroke="black" d="M453.19,-71.7C453.19,-63.98 453.19,-54.71 453.19,-46.11"/>
<polygon fill="black" stroke="black" points="456.69,-46.1 453.19,-36.1 449.69,-46.1 456.69,-46.1"/>
</g>
<!-- openturns -->
<g id="node8" class="node">
<title>openturns</title>
<g id="a_node8"><a xlink:href="https://github.com/conda-forge/openturns-feedstock/pull/99" xlink:title="openturns">
<ellipse fill="#31688e" stroke="black" cx="1234.19" cy="-898" rx="54.69" ry="18"/>
<text text-anchor="middle" x="1234.19" y="-894.3" font-family="Times,serif" font-size="14.00" fill="white">openturns</text>
</a>
</g>
</g>
<!-- msgpack&#45;c&#45;&gt;openturns -->
<!-- pykep -->
<g id="node9" class="node">
<title>pykep</title>
<g id="a_node9"><a xlink:href="https://github.com/conda-forge/pykep-feedstock/pull/10" xlink:title="pykep">
<ellipse fill="#31688e" stroke="black" cx="1234.19" cy="-826" rx="35.19" ry="18"/>
<text text-anchor="middle" x="1234.19" y="-822.3" font-family="Times,serif" font-size="14.00" fill="white">pykep</text>
</a>
</g>
</g>
<!-- openturns&#45;&gt;pykep -->
<!-- pyne -->
<g id="node12" class="node">
<title>pyne</title>
<g id="a_node12"><a xlink:href="https://github.com/conda-forge/pyne-feedstock/pull/38" xlink:title="pyne">
<ellipse fill="#31688e" stroke="black" cx="1234.19" cy="-754" rx="30.59" ry="18"/>
<text text-anchor="middle" x="1234.19" y="-750.3" font-family="Times,serif" font-size="14.00" fill="white">pyne</text>
</a>
</g>
</g>
<!-- pykep&#45;&gt;pyne -->
<!-- pygmo -->
<g id="node10" class="node">
<title>pygmo</title>
<g id="a_node10"><a xlink:href="https://github.com/conda-forge/pygmo-feedstock/pull/44" xlink:title="pygmo">
<ellipse fill="#31688e" stroke="black" cx="1204.19" cy="-278" rx="35.19" ry="18"/>
<text text-anchor="middle" x="1204.19" y="-274.3" font-family="Times,serif" font-size="14.00" fill="white">pygmo</text>
</a>
</g>
</g>
<!-- dcgp&#45;python -->
<g id="node11" class="node">
<title>dcgp&#45;python</title>
<ellipse fill="#fde725" stroke="black" cx="1235.19" cy="-206" rx="64.5" ry="18"/>
<text text-anchor="middle" x="1235.19" y="-202.3" font-family="Times,serif" font-size="14.00">dcgp python</text>
</g>
<!-- pygmo&#45;&gt;dcgp&#45;python -->
<g id="edge7" class="edge">
<title>pygmo&#45;&gt;dcgp&#45;python</title>
<path fill="none" stroke="black" d="M1211.69,-260.05C1215.22,-252.09 1219.5,-242.41 1223.45,-233.51"/>
<polygon fill="black" stroke="black" points="1226.69,-234.84 1227.54,-224.28 1220.29,-232 1226.69,-234.84"/>
</g>
<!-- rank_filter -->
<g id="node13" class="node">
<title>rank_filter</title>
<g id="a_node13"><a xlink:href="https://github.com/conda-forge/rank_filter-feedstock/pull/43" xlink:title="rank_filter">
<ellipse fill="#31688e" stroke="black" cx="1234.19" cy="-682" rx="64.5" ry="18"/>
<text text-anchor="middle" x="1234.19" y="-678.3" font-family="Times,serif" font-size="14.00" fill="white">rank_filter</text>
</a>
</g>
</g>
<!-- pyne&#45;&gt;rank_filter -->
<!-- rsgislib -->
<g id="node14" class="node">
<title>rsgislib</title>
<g id="a_node14"><a xlink:href="https://github.com/conda-forge/rsgislib-feedstock/pull/28" xlink:title="rsgislib">
<ellipse fill="#31688e" stroke="black" cx="1234.19" cy="-610" rx="50.09" ry="18"/>
<text text-anchor="middle" x="1234.19" y="-606.3" font-family="Times,serif" font-size="14.00" fill="white">rsgislib</text>
</a>
</g>
</g>
<!-- rank_filter&#45;&gt;rsgislib -->
<!-- turbodbc -->
<g id="node15" class="node">
<title>turbodbc</title>
<g id="a_node15"><a xlink:href="https://github.com/conda-forge/turbodbc-feedstock/pull/38" xlink:title="turbodbc">
<ellipse fill="#31688e" stroke="black" cx="1234.19" cy="-538" rx="50.09" ry="18"/>
<text text-anchor="middle" x="1234.19" y="-534.3" font-family="Times,serif" font-size="14.00" fill="white">turbodbc</text>
</a>
</g>
</g>
<!-- rsgislib&#45;&gt;turbodbc -->
<!-- clblas -->
<g id="node16" class="node">
<title>clblas</title>
<g id="a_node16"><a xlink:href="https://github.com/conda-forge/clblas-feedstock/pull/9" xlink:title="clblas">
<ellipse fill="#31688e" stroke="black" cx="1234.19" cy="-466" rx="40.5" ry="18"/>
<text text-anchor="middle" x="1234.19" y="-462.3" font-family="Times,serif" font-size="14.00" fill="white">clblas</text>
</a>
</g>
</g>
<!-- turbodbc&#45;&gt;clblas -->
<!-- clfft -->
<g id="node18" class="node">
<title>clfft</title>
<g id="a_node18"><a xlink:href="https://github.com/conda-forge/clfft-feedstock/pull/9" xlink:title="clfft">
<ellipse fill="#31688e" stroke="black" cx="1234.19" cy="-394" rx="35.19" ry="18"/>
<text text-anchor="middle" x="1234.19" y="-390.3" font-family="Times,serif" font-size="14.00" fill="white">clfft</text>
</a>
</g>
</g>
<!-- clblas&#45;&gt;clfft -->
<!-- audi -->
<g id="node17" class="node">
<title>audi</title>
<g id="a_node17"><a xlink:href="https://github.com/conda-forge/audi-feedstock/pull/16" xlink:title="audi">
<ellipse fill="#31688e" stroke="black" cx="1267.19" cy="-350" rx="30.59" ry="18"/>
<text text-anchor="middle" x="1267.19" y="-346.3" font-family="Times,serif" font-size="14.00" fill="white">audi</text>
</a>
</g>
</g>
<!-- audi&#45;&gt;dcgp&#45;python -->
<g id="edge13" class="edge">
<title>audi&#45;&gt;dcgp&#45;python</title>
<path fill="none" stroke="black" d="M1263.7,-331.9C1260,-313.96 1253.91,-284.95 1248.19,-260 1246.25,-251.56 1244.04,-242.39 1242,-234.09"/>
<polygon fill="black" stroke="black" points="1245.34,-233.02 1239.53,-224.15 1238.54,-234.7 1245.34,-233.02"/>
</g>
<!-- spdlib -->
<g id="node19" class="node">
<title>spdlib</title>
<g id="a_node19"><a xlink:href="https://github.com/conda-forge/spdlib-feedstock/pull/11" xlink:title="spdlib">
<ellipse fill="#31688e" stroke="black" cx="1038.19" cy="-1114" rx="40.5" ry="18"/>
<text text-anchor="middle" x="1038.19" y="-1110.3" font-family="Times,serif" font-size="14.00" fill="white">spdlib</text>
</a>
</g>
</g>
<!-- pcl -->
<g id="node20" class="node">
<title>pcl</title>
<g id="a_node20"><a xlink:href="https://github.com/conda-forge/pcl-feedstock/pull/20" xlink:title="pcl">
<ellipse fill="#31688e" stroke="black" cx="1038.19" cy="-1042" rx="27" ry="18"/>
<text text-anchor="middle" x="1038.19" y="-1038.3" font-family="Times,serif" font-size="14.00" fill="white">pcl</text>
</a>
</g>
</g>
<!-- spdlib&#45;&gt;pcl -->
<!-- freecad -->
<g id="node21" class="node">
<title>freecad</title>
<g id="a_node21"><a xlink:href="https://github.com/conda-forge/freecad-feedstock/pull/35" xlink:title="freecad">
<ellipse fill="#31688e" stroke="black" cx="1038.19" cy="-970" rx="45" ry="18"/>
<text text-anchor="middle" x="1038.19" y="-966.3" font-family="Times,serif" font-size="14.00" fill="white">freecad</text>
</a>
</g>
</g>
<!-- pcl&#45;&gt;freecad -->
<!-- helics -->
<g id="node22" class="node">
<title>helics</title>
<g id="a_node22"><a xlink:href="https://github.com/conda-forge/helics-feedstock/pull/17" xlink:title="helics">
<ellipse fill="#31688e" stroke="black" cx="1038.19" cy="-898" rx="40.5" ry="18"/>
<text text-anchor="middle" x="1038.19" y="-894.3" font-family="Times,serif" font-size="14.00" fill="white">helics</text>
</a>
</g>
</g>
<!-- freecad&#45;&gt;helics -->
<!-- nds2&#45;client -->
<g id="node23" class="node">
<title>nds2&#45;client</title>
<g id="a_node23"><a xlink:href="https://github.com/conda-forge/nds2-client-feedstock/pull/9" xlink:title="nds2 client">
<ellipse fill="#31688e" stroke="black" cx="1038.19" cy="-826" rx="64.5" ry="18"/>
<text text-anchor="middle" x="1038.19" y="-822.3" font-family="Times,serif" font-size="14.00" fill="white">nds2 client</text>
</a>
</g>
</g>
<!-- helics&#45;&gt;nds2&#45;client -->
<!-- gudhi -->
<g id="node24" class="node">
<title>gudhi</title>
<g id="a_node24"><a xlink:href="https://github.com/conda-forge/gudhi-feedstock/pull/16" xlink:title="gudhi">
<ellipse fill="#31688e" stroke="black" cx="1038.19" cy="-754" rx="35.19" ry="18"/>
<text text-anchor="middle" x="1038.19" y="-750.3" font-family="Times,serif" font-size="14.00" fill="white">gudhi</text>
</a>
</g>
</g>
<!-- nds2&#45;client&#45;&gt;gudhi -->
<!-- ldas&#45;tools&#45;diskcacheapi -->
<g id="node25" class="node">
<title>ldas&#45;tools&#45;diskcacheapi</title>
<g id="a_node25"><a xlink:href="https://github.com/conda-forge/ldas-tools-diskcacheapi-feedstock/pull/4" xlink:title="ldas tools diskcacheapi">
<ellipse fill="#31688e" stroke="black" cx="1038.19" cy="-682" rx="123" ry="18"/>
<text text-anchor="middle" x="1038.19" y="-678.3" font-family="Times,serif" font-size="14.00" fill="white">ldas tools diskcacheapi</text>
</a>
</g>
</g>
<!-- gudhi&#45;&gt;ldas&#45;tools&#45;diskcacheapi -->
<!-- libint -->
<g id="node26" class="node">
<title>libint</title>
<g id="a_node26"><a xlink:href="https://github.com/conda-forge/libint-feedstock/pull/5" xlink:title="libint">
<ellipse fill="#31688e" stroke="black" cx="1038.19" cy="-610" rx="40.5" ry="18"/>
<text text-anchor="middle" x="1038.19" y="-606.3" font-family="Times,serif" font-size="14.00" fill="white">libint</text>
</a>
</g>
</g>
<!-- ldas&#45;tools&#45;diskcacheapi&#45;&gt;libint -->
<!-- dealii -->
<g id="node27" class="node">
<title>dealii</title>
<g id="a_node27"><a xlink:href="https://github.com/conda-forge/dealii-feedstock/pull/6" xlink:title="dealii">
<ellipse fill="#31688e" stroke="black" cx="1038.19" cy="-538" rx="40.5" ry="18"/>
<text text-anchor="middle" x="1038.19" y="-534.3" font-family="Times,serif" font-size="14.00" fill="white">dealii</text>
</a>
</g>
</g>
<!-- libint&#45;&gt;dealii -->
<!-- ambertools -->
<g id="node28" class="node">
<title>ambertools</title>
<g id="a_node28"><a xlink:href="https://github.com/conda-forge/ambertools-feedstock/pull/25" xlink:title="ambertools">
<ellipse fill="#31688e" stroke="black" cx="1038.19" cy="-466" rx="60" ry="18"/>
<text text-anchor="middle" x="1038.19" y="-462.3" font-family="Times,serif" font-size="14.00" fill="white">ambertools</text>
</a>
</g>
</g>
<!-- dealii&#45;&gt;ambertools -->
<!-- biorbd -->
<g id="node29" class="node">
<title>biorbd</title>
<g id="a_node29"><a xlink:href="https://github.com/conda-forge/biorbd-feedstock/pull/13" xlink:title="biorbd">
<ellipse fill="#31688e" stroke="black" cx="1038.19" cy="-394" rx="40.5" ry="18"/>
<text text-anchor="middle" x="1038.19" y="-390.3" font-family="Times,serif" font-size="14.00" fill="white">biorbd</text>
</a>
</g>
</g>
<!-- ambertools&#45;&gt;biorbd -->
<!-- normaliz -->
<g id="node30" class="node">
<title>normaliz</title>
<g id="a_node30"><a xlink:href="https://github.com/conda-forge/normaliz-feedstock/pull/18" xlink:title="normaliz">
<ellipse fill="#31688e" stroke="black" cx="453.19" cy="-162" rx="50.09" ry="18"/>
<text text-anchor="middle" x="453.19" y="-158.3" font-family="Times,serif" font-size="14.00" fill="white">normaliz</text>
</a>
</g>
</g>
<!-- normaliz&#45;&gt;gap -->
<g id="edge25" class="edge">
<title>normaliz&#45;&gt;gap</title>
<path fill="none" stroke="black" d="M453.19,-143.7C453.19,-135.98 453.19,-126.71 453.19,-118.11"/>
<polygon fill="black" stroke="black" points="456.69,-118.1 453.19,-108.1 449.69,-118.1 456.69,-118.1"/>
</g>
<!-- esys&#45;escript -->
<g id="node31" class="node">
<title>esys&#45;escript</title>
<g id="a_node31"><a xlink:href="https://github.com/conda-forge/esys-escript-feedstock/pull/11" xlink:title="esys escript">
<ellipse fill="#31688e" stroke="black" cx="1038.19" cy="-350" rx="69.59" ry="18"/>
<text text-anchor="middle" x="1038.19" y="-346.3" font-family="Times,serif" font-size="14.00" fill="white">esys escript</text>
</a>
</g>
</g>
<!-- graph&#45;tool -->
<g id="node32" class="node">
<title>graph&#45;tool</title>
<g id="a_node32"><a xlink:href="https://github.com/conda-forge/graph-tool-feedstock/pull/8" xlink:title="graph tool">
<ellipse fill="#31688e" stroke="black" cx="1038.19" cy="-278" rx="60" ry="18"/>
<text text-anchor="middle" x="1038.19" y="-274.3" font-family="Times,serif" font-size="14.00" fill="white">graph tool</text>
</a>
</g>
</g>
<!-- esys&#45;escript&#45;&gt;graph&#45;tool -->
<!-- pyinterp -->
<g id="node37" class="node">
<title>pyinterp</title>
<g id="a_node37"><a xlink:href="https://github.com/conda-forge/pyinterp-feedstock/pull/15" xlink:title="pyinterp">
<ellipse fill="#31688e" stroke="black" cx="1038.19" cy="-206" rx="50.09" ry="18"/>
<text text-anchor="middle" x="1038.19" y="-202.3" font-family="Times,serif" font-size="14.00" fill="white">pyinterp</text>
</a>
</g>
</g>
<!-- graph&#45;tool&#45;&gt;pyinterp -->
<!-- xmsgrid -->
<g id="node33" class="node">
<title>xmsgrid</title>
<g id="a_node33"><a xlink:href="https://github.com/conda-forge/xmsgrid-feedstock/pull/6" xlink:title="xmsgrid">
<ellipse fill="#31688e" stroke="black" cx="452.19" cy="-350" rx="45" ry="18"/>
<text text-anchor="middle" x="452.19" y="-346.3" font-family="Times,serif" font-size="14.00" fill="white">xmsgrid</text>
</a>
</g>
</g>
<!-- xmsinterp -->
<g id="node34" class="node">
<title>xmsinterp</title>
<ellipse fill="#fde725" stroke="black" cx="452.19" cy="-278" rx="54.69" ry="18"/>
<text text-anchor="middle" x="452.19" y="-274.3" font-family="Times,serif" font-size="14.00">xmsinterp</text>
</g>
<!-- xmsgrid&#45;&gt;xmsinterp -->
<g id="edge27" class="edge">
<title>xmsgrid&#45;&gt;xmsinterp</title>
<path fill="none" stroke="black" d="M452.19,-331.7C452.19,-323.98 452.19,-314.71 452.19,-306.11"/>
<polygon fill="black" stroke="black" points="455.69,-306.1 452.19,-296.1 448.69,-306.1 455.69,-306.1"/>
</g>
<!-- xmsstamper -->
<g id="node35" class="node">
<title>xmsstamper</title>
<ellipse fill="#fde725" stroke="black" cx="385.19" cy="-206" rx="60" ry="18"/>
<text text-anchor="middle" x="385.19" y="-202.3" font-family="Times,serif" font-size="14.00">xmsstamper</text>
</g>
<!-- xmsgrid&#45;&gt;xmsstamper -->
<g id="edge28" class="edge">
<title>xmsgrid&#45;&gt;xmsstamper</title>
<path fill="none" stroke="black" d="M426.62,-335.14C412.58,-326.03 396.39,-312.71 388.19,-296 378.79,-276.86 378.65,-252.51 380.52,-234.12"/>
<polygon fill="black" stroke="black" points="384,-234.42 381.79,-224.06 377.06,-233.54 384,-234.42"/>
</g>
<!-- xmsmesher -->
<g id="node36" class="node">
<title>xmsmesher</title>
<ellipse fill="#fde725" stroke="black" cx="526.19" cy="-206" rx="54.69" ry="18"/>
<text text-anchor="middle" x="526.19" y="-202.3" font-family="Times,serif" font-size="14.00">xmsmesher</text>
</g>
<!-- xmsgrid&#45;&gt;xmsmesher -->
<g id="edge29" class="edge">
<title>xmsgrid&#45;&gt;xmsmesher</title>
<path fill="none" stroke="black" d="M477.28,-334.9C491.16,-325.7 507.34,-312.37 516.19,-296 526.38,-277.13 528.5,-252.76 528.27,-234.29"/>
<polygon fill="black" stroke="black" points="531.77,-234.06 527.92,-224.19 524.77,-234.3 531.77,-234.06"/>
</g>
<!-- xmsinterp&#45;&gt;xmsstamper -->
<g id="edge30" class="edge">
<title>xmsinterp&#45;&gt;xmsstamper</title>
<path fill="none" stroke="black" d="M436.31,-260.41C427.88,-251.61 417.37,-240.63 408.08,-230.92"/>
<polygon fill="black" stroke="black" points="410.39,-228.27 400.95,-223.47 405.34,-233.11 410.39,-228.27"/>
</g>
<!-- xmsinterp&#45;&gt;xmsmesher -->
<g id="edge31" class="edge">
<title>xmsinterp&#45;&gt;xmsmesher</title>
<path fill="none" stroke="black" d="M469.35,-260.76C478.97,-251.66 491.13,-240.16 501.73,-230.13"/>
<polygon fill="black" stroke="black" points="504.26,-232.56 509.12,-223.15 499.45,-227.48 504.26,-232.56"/>
</g>
<!-- ros&#45;roslib -->
<g id="node38" class="node">
<title>ros&#45;roslib</title>
<g id="a_node38"><a xlink:href="https://github.com/conda-forge/ros-roslib-feedstock/pull/6" xlink:title="ros roslib">
<ellipse fill="#31688e" stroke="black" cx="152.19" cy="-862" rx="60" ry="18"/>
<text text-anchor="middle" x="152.19" y="-858.3" font-family="Times,serif" font-size="14.00" fill="white">ros roslib</text>
</a>
</g>
</g>
<!-- ros&#45;pluginlib -->
<g id="node39" class="node">
<title>ros&#45;pluginlib</title>
<ellipse fill="#fde725" stroke="black" cx="405.19" cy="-790" rx="74.19" ry="18"/>
<text text-anchor="middle" x="405.19" y="-786.3" font-family="Times,serif" font-size="14.00">ros pluginlib</text>
</g>
<!-- ros&#45;roslib&#45;&gt;ros&#45;pluginlib -->
<g id="edge33" class="edge">
<title>ros&#45;roslib&#45;&gt;ros&#45;pluginlib</title>
<path fill="none" stroke="black" d="M194.82,-849.2C237.02,-837.53 301.89,-819.58 348.44,-806.7"/>
<polygon fill="black" stroke="black" points="349.37,-810.07 358.08,-804.03 347.5,-803.33 349.37,-810.07"/>
</g>
<!-- ros&#45;rosbag&#45;storage -->
<g id="node40" class="node">
<title>ros&#45;rosbag&#45;storage</title>
<ellipse fill="#fde725" stroke="black" cx="354.19" cy="-718" rx="99" ry="18"/>
<text text-anchor="middle" x="354.19" y="-714.3" font-family="Times,serif" font-size="14.00">ros rosbag storage</text>
</g>
<!-- ros&#45;roslib&#45;&gt;ros&#45;rosbag&#45;storage -->
<g id="edge34" class="edge">
<title>ros&#45;roslib&#45;&gt;ros&#45;rosbag&#45;storage</title>
<path fill="none" stroke="black" d="M98.46,-853.9C70.12,-847.12 37.68,-833.88 20.19,-808 11.23,-794.75 9.8,-784.17 20.19,-772 48.97,-738.28 160.03,-725.9 246.28,-721.42"/>
<polygon fill="black" stroke="black" points="246.58,-724.91 256.4,-720.92 246.24,-717.92 246.58,-724.91"/>
</g>
<!-- ros&#45;rosbag -->
<g id="node41" class="node">
<title>ros&#45;rosbag</title>
<ellipse fill="#fde725" stroke="black" cx="354.19" cy="-646" rx="60" ry="18"/>
<text text-anchor="middle" x="354.19" y="-642.3" font-family="Times,serif" font-size="14.00">ros rosbag</text>
</g>
<!-- ros&#45;roslib&#45;&gt;ros&#45;rosbag -->
<g id="edge35" class="edge">
<title>ros&#45;roslib&#45;&gt;ros&#45;rosbag</title>
<path fill="none" stroke="black" d="M95.93,-855.51C64.85,-849.27 28.7,-836.04 9.19,-808 0.05,-794.87 0,-785.1 9.19,-772 71.36,-683.34 203.07,-657.31 284.57,-649.82"/>
<polygon fill="black" stroke="black" points="285.07,-653.29 294.74,-648.96 284.48,-646.32 285.07,-653.29"/>
</g>
<!-- ros&#45;actionlib -->
<g id="node42" class="node">
<title>ros&#45;actionlib</title>
<ellipse fill="#fde725" stroke="black" cx="571.19" cy="-790" rx="74.19" ry="18"/>
<text text-anchor="middle" x="571.19" y="-786.3" font-family="Times,serif" font-size="14.00">ros actionlib</text>
</g>
<!-- ros&#45;roslib&#45;&gt;ros&#45;actionlib -->
<g id="edge36" class="edge">
<title>ros&#45;roslib&#45;&gt;ros&#45;actionlib</title>
<path fill="none" stroke="black" d="M204.98,-853.43C271.26,-843.76 388.39,-826.08 488.19,-808 494.36,-806.88 500.78,-805.66 507.2,-804.41"/>
<polygon fill="black" stroke="black" points="508.1,-807.8 517.23,-802.42 506.74,-800.93 508.1,-807.8"/>
</g>
<!-- ros&#45;dynamic&#45;reconfigure -->
<g id="node43" class="node">
<title>ros&#45;dynamic&#45;reconfigure</title>
<ellipse fill="#fde725" stroke="black" cx="152.19" cy="-790" rx="123" ry="18"/>
<text text-anchor="middle" x="152.19" y="-786.3" font-family="Times,serif" font-size="14.00">ros dynamic reconfigure</text>
</g>
<!-- ros&#45;roslib&#45;&gt;ros&#45;dynamic&#45;reconfigure -->
<g id="edge37" class="edge">
<title>ros&#45;roslib&#45;&gt;ros&#45;dynamic&#45;reconfigure</title>
<path fill="none" stroke="black" d="M152.19,-843.7C152.19,-835.98 152.19,-826.71 152.19,-818.11"/>
<polygon fill="black" stroke="black" points="155.69,-818.1 152.19,-808.1 148.69,-818.1 155.69,-818.1"/>
</g>
<!-- ros&#45;pluginlib&#45;&gt;ros&#45;rosbag&#45;storage -->
<g id="edge38" class="edge">
<title>ros&#45;pluginlib&#45;&gt;ros&#45;rosbag&#45;storage</title>
<path fill="none" stroke="black" d="M392.84,-772.05C386.79,-763.75 379.38,-753.58 372.68,-744.38"/>
<polygon fill="black" stroke="black" points="375.49,-742.3 366.77,-736.28 369.83,-746.42 375.49,-742.3"/>
</g>
<!-- ros&#45;rosbag&#45;storage&#45;&gt;ros&#45;rosbag -->
<g id="edge39" class="edge">
<title>ros&#45;rosbag&#45;storage&#45;&gt;ros&#45;rosbag</title>
<path fill="none" stroke="black" d="M354.19,-699.7C354.19,-691.98 354.19,-682.71 354.19,-674.11"/>
<polygon fill="black" stroke="black" points="357.69,-674.1 354.19,-664.1 350.69,-674.1 357.69,-674.1"/>
</g>
<!-- ros&#45;rosconsole -->
<g id="node44" class="node">
<title>ros&#45;rosconsole</title>
<g id="a_node44"><a xlink:href="https://github.com/conda-forge/ros-rosconsole-feedstock/pull/2" xlink:title="ros rosconsole">
<ellipse fill="#31688e" stroke="black" cx="767.19" cy="-862" rx="79.5" ry="18"/>
<text text-anchor="middle" x="767.19" y="-858.3" font-family="Times,serif" font-size="14.00" fill="white">ros rosconsole</text>
</a>
</g>
</g>
<!-- ros&#45;rosconsole&#45;&gt;ros&#45;pluginlib -->
<g id="edge40" class="edge">
<title>ros&#45;rosconsole&#45;&gt;ros&#45;pluginlib</title>
<path fill="none" stroke="black" d="M707.81,-849.98C651.3,-839.42 563.89,-822.94 488.19,-808 482.13,-806.8 475.82,-805.54 469.51,-804.27"/>
<polygon fill="black" stroke="black" points="470.13,-800.82 459.63,-802.27 468.74,-807.68 470.13,-800.82"/>
</g>
<!-- ros&#45;rosconsole&#45;&gt;ros&#45;rosbag&#45;storage -->
<g id="edge41" class="edge">
<title>ros&#45;rosconsole&#45;&gt;ros&#45;rosbag&#45;storage</title>
<path fill="none" stroke="black" d="M822.16,-848.89C844.12,-841.07 867.23,-828.39 880.19,-808 888.77,-794.5 890.92,-783.87 880.19,-772 852.66,-741.56 606.91,-727.79 461.25,-722.25"/>
<polygon fill="black" stroke="black" points="461.07,-718.74 450.94,-721.86 460.8,-725.73 461.07,-718.74"/>
</g>
<!-- ros&#45;rosconsole&#45;&gt;ros&#45;rosbag -->
<g id="edge42" class="edge">
<title>ros&#45;rosconsole&#45;&gt;ros&#45;rosbag</title>
<path fill="none" stroke="black" d="M830.19,-850.96C855.41,-843.52 882.03,-830.55 897.19,-808 906.11,-794.72 907.15,-784.52 897.19,-772 838.4,-698.14 553.65,-664.25 421.64,-652.31"/>
<polygon fill="black" stroke="black" points="421.92,-648.82 411.64,-651.42 421.3,-655.79 421.92,-648.82"/>
</g>
<!-- ros&#45;rosconsole&#45;&gt;ros&#45;actionlib -->
<g id="edge43" class="edge">
<title>ros&#45;rosconsole&#45;&gt;ros&#45;actionlib</title>
<path fill="none" stroke="black" d="M726.58,-846.5C695.89,-835.54 653.61,-820.44 620.9,-808.75"/>
<polygon fill="black" stroke="black" points="621.67,-805.31 611.08,-805.25 619.32,-811.91 621.67,-805.31"/>
</g>
<!-- ros&#45;message&#45;filters -->
<g id="node45" class="node">
<title>ros&#45;message&#45;filters</title>
<ellipse fill="#fde725" stroke="black" cx="767.19" cy="-790" rx="103.5" ry="18"/>
<text text-anchor="middle" x="767.19" y="-786.3" font-family="Times,serif" font-size="14.00">ros message filters</text>
</g>
<!-- ros&#45;rosconsole&#45;&gt;ros&#45;message&#45;filters -->
<g id="edge44" class="edge">
<title>ros&#45;rosconsole&#45;&gt;ros&#45;message&#45;filters</title>
<path fill="none" stroke="black" d="M767.19,-843.7C767.19,-835.98 767.19,-826.71 767.19,-818.11"/>
<polygon fill="black" stroke="black" points="770.69,-818.1 767.19,-808.1 763.69,-818.1 770.69,-818.1"/>
</g>
<!-- ros&#45;rostest -->
<g id="node46" class="node">
<title>ros&#45;rostest</title>
<g id="a_node46"><a xlink:href="https://github.com/conda-forge/ros-rostest-feedstock/pull/2" xlink:title="ros rostest">
<ellipse fill="#31688e" stroke="black" cx="437.19" cy="-862" rx="64.5" ry="18"/>
<text text-anchor="middle" x="437.19" y="-858.3" font-family="Times,serif" font-size="14.00" fill="white">ros rostest</text>
</a>
</g>
</g>
<!-- ros&#45;rostest&#45;&gt;ros&#45;rosbag&#45;storage -->
<g id="edge45" class="edge">
<title>ros&#45;rostest&#45;&gt;ros&#45;rosbag&#45;storage</title>
<path fill="none" stroke="black" d="M386.35,-850.83C362.57,-843.25 336.41,-830.22 322.19,-808 309.58,-788.3 320.91,-762.97 333.44,-744.37"/>
<polygon fill="black" stroke="black" points="336.4,-746.26 339.39,-736.09 330.71,-742.17 336.4,-746.26"/>
</g>
<!-- ros&#45;rostest&#45;&gt;ros&#45;actionlib -->
<g id="edge46" class="edge">
<title>ros&#45;rostest&#45;&gt;ros&#45;actionlib</title>
<path fill="none" stroke="black" d="M466.26,-845.81C485.57,-835.72 511.15,-822.36 532.22,-811.36"/>
<polygon fill="black" stroke="black" points="534,-814.38 541.24,-806.64 530.76,-808.17 534,-814.38"/>
</g>
<!-- ros&#45;rostest&#45;&gt;ros&#45;dynamic&#45;reconfigure -->
<g id="edge47" class="edge">
<title>ros&#45;rostest&#45;&gt;ros&#45;dynamic&#45;reconfigure</title>
<path fill="none" stroke="black" d="M390.44,-849.52C344.75,-838.3 274.61,-821.07 222.24,-808.21"/>
<polygon fill="black" stroke="black" points="222.9,-804.76 212.35,-805.78 221.23,-811.56 222.9,-804.76"/>
</g>
<!-- ros&#45;rostest&#45;&gt;ros&#45;message&#45;filters -->
<g id="edge48" class="edge">
<title>ros&#45;rostest&#45;&gt;ros&#45;message&#45;filters</title>
<path fill="none" stroke="black" d="M486.95,-850.44C542.07,-838.75 631.46,-819.79 694.43,-806.43"/>
<polygon fill="black" stroke="black" points="695.24,-809.84 704.3,-804.34 693.79,-802.99 695.24,-809.84"/>
</g>
</g>
</svg>
