<?xml version="1.0" encoding="UTF-8" standalone="no"?>
<!DOCTYPE svg PUBLIC "-//W3C//DTD SVG 1.1//EN"
 "http://www.w3.org/Graphics/SVG/1.1/DTD/svg11.dtd">
<!-- Generated by graphviz version 2.42.3 (20191010.1750)
 -->
<!-- Title: %3 Pages: 1 -->
<svg width="1340pt" height="1356pt"
 viewBox="0.00 0.00 1339.82 1356.00" xmlns="http://www.w3.org/2000/svg" xmlns:xlink="http://www.w3.org/1999/xlink">
<g id="graph0" class="graph" transform="scale(1 1) rotate(0) translate(4 1352)">
<title>%3</title>
<polygon fill="white" stroke="transparent" points="-4,4 -4,-1352 1335.82,-1352 1335.82,4 -4,4"/>
<!-- cyclus -->
<g id="node1" class="node">
<title>cyclus</title>
<g id="a_node1"><a xlink:href="https://github.com/conda-forge/cyclus-feedstock/pull/54" xlink:title="cyclus">
<ellipse fill="#31688e" stroke="black" cx="1266.32" cy="-1330" rx="40.5" ry="18"/>
<text text-anchor="middle" x="1266.32" y="-1326.3" font-family="Times,serif" font-size="14.00" fill="white">cyclus</text>
</a>
</g>
</g>
<!-- dionysus -->
<g id="node2" class="node">
<title>dionysus</title>
<g id="a_node2"><a xlink:href="https://github.com/conda-forge/dionysus-feedstock/pull/7" xlink:title="dionysus">
<ellipse fill="#31688e" stroke="black" cx="1266.32" cy="-1258" rx="50.09" ry="18"/>
<text text-anchor="middle" x="1266.32" y="-1254.3" font-family="Times,serif" font-size="14.00" fill="white">dionysus</text>
</a>
</g>
</g>
<!-- cyclus&#45;&gt;dionysus -->
<!-- libradolan -->
<g id="node3" class="node">
<title>libradolan</title>
<g id="a_node3"><a xlink:href="https://github.com/conda-forge/libradolan-feedstock/pull/22" xlink:title="libradolan">
<ellipse fill="#31688e" stroke="black" cx="1266.32" cy="-1186" rx="60" ry="18"/>
<text text-anchor="middle" x="1266.32" y="-1182.3" font-family="Times,serif" font-size="14.00" fill="white">libradolan</text>
</a>
</g>
</g>
<!-- dionysus&#45;&gt;libradolan -->
<!-- msgpack&#45;c -->
<g id="node8" class="node">
<title>msgpack&#45;c</title>
<g id="a_node8"><a xlink:href="https://github.com/conda-forge/msgpack-c-feedstock/pull/17" xlink:title="msgpack c">
<ellipse fill="#31688e" stroke="black" cx="1266.32" cy="-1114" rx="54.69" ry="18"/>
<text text-anchor="middle" x="1266.32" y="-1110.3" font-family="Times,serif" font-size="14.00" fill="white">msgpack c</text>
</a>
</g>
</g>
<!-- libradolan&#45;&gt;msgpack&#45;c -->
<!-- fenics -->
<g id="node4" class="node">
<title>fenics</title>
<g id="a_node4"><a xlink:href="https://github.com/conda-forge/fenics-feedstock/pull/106" xlink:title="fenics">
<ellipse fill="#31688e" stroke="black" cx="1065.32" cy="-126" rx="40.5" ry="18"/>
<text text-anchor="middle" x="1065.32" y="-122.3" font-family="Times,serif" font-size="14.00" fill="white">fenics</text>
</a>
</g>
</g>
<!-- mshr -->
<g id="node5" class="node">
<title>mshr</title>
<ellipse fill="#fde725" stroke="black" cx="1065.32" cy="-54" rx="30.59" ry="18"/>
<text text-anchor="middle" x="1065.32" y="-50.3" font-family="Times,serif" font-size="14.00">mshr</text>
</g>
<!-- fenics&#45;&gt;mshr -->
<g id="edge3" class="edge">
<title>fenics&#45;&gt;mshr</title>
<path fill="none" stroke="black" d="M1065.32,-107.7C1065.32,-99.98 1065.32,-90.71 1065.32,-82.11"/>
<polygon fill="black" stroke="black" points="1068.82,-82.1 1065.32,-72.1 1061.82,-82.1 1068.82,-82.1"/>
</g>
<!-- gap -->
<g id="node6" class="node">
<title>gap</title>
<ellipse fill="#fde725" stroke="black" cx="464.32" cy="-90" rx="27" ry="18"/>
<text text-anchor="middle" x="464.32" y="-86.3" font-family="Times,serif" font-size="14.00">gap</text>
</g>
<!-- sagelib -->
<g id="node7" class="node">
<title>sagelib</title>
<ellipse fill="#fde725" stroke="black" cx="464.32" cy="-18" rx="45" ry="18"/>
<text text-anchor="middle" x="464.32" y="-14.3" font-family="Times,serif" font-size="14.00">sagelib</text>
</g>
<!-- gap&#45;&gt;sagelib -->
<g id="edge4" class="edge">
<title>gap&#45;&gt;sagelib</title>
<path fill="none" stroke="black" d="M464.32,-71.7C464.32,-63.98 464.32,-54.71 464.32,-46.11"/>
<polygon fill="black" stroke="black" points="467.82,-46.1 464.32,-36.1 460.82,-46.1 467.82,-46.1"/>
</g>
<!-- openturns -->
<g id="node9" class="node">
<title>openturns</title>
<g id="a_node9"><a xlink:href="https://github.com/conda-forge/openturns-feedstock/pull/99" xlink:title="openturns">
<ellipse fill="#31688e" stroke="black" cx="1266.32" cy="-1042" rx="54.69" ry="18"/>
<text text-anchor="middle" x="1266.32" y="-1038.3" font-family="Times,serif" font-size="14.00" fill="white">openturns</text>
</a>
</g>
</g>
<!-- msgpack&#45;c&#45;&gt;openturns -->
<!-- pykep -->
<g id="node10" class="node">
<title>pykep</title>
<g id="a_node10"><a xlink:href="https://github.com/conda-forge/pykep-feedstock/pull/10" xlink:title="pykep">
<ellipse fill="#31688e" stroke="black" cx="1266.32" cy="-970" rx="35.19" ry="18"/>
<text text-anchor="middle" x="1266.32" y="-966.3" font-family="Times,serif" font-size="14.00" fill="white">pykep</text>
</a>
</g>
</g>
<!-- openturns&#45;&gt;pykep -->
<!-- pyne -->
<g id="node13" class="node">
<title>pyne</title>
<g id="a_node13"><a xlink:href="https://github.com/conda-forge/pyne-feedstock/pull/38" xlink:title="pyne">
<ellipse fill="#31688e" stroke="black" cx="1266.32" cy="-898" rx="30.59" ry="18"/>
<text text-anchor="middle" x="1266.32" y="-894.3" font-family="Times,serif" font-size="14.00" fill="white">pyne</text>
</a>
</g>
</g>
<!-- pykep&#45;&gt;pyne -->
<!-- pygmo -->
<g id="node11" class="node">
<title>pygmo</title>
<g id="a_node11"><a xlink:href="https://github.com/conda-forge/pygmo-feedstock/pull/44" xlink:title="pygmo">
<ellipse fill="#31688e" stroke="black" cx="1236.32" cy="-386" rx="35.19" ry="18"/>
<text text-anchor="middle" x="1236.32" y="-382.3" font-family="Times,serif" font-size="14.00" fill="white">pygmo</text>
</a>
</g>
</g>
<!-- dcgp&#45;python -->
<g id="node12" class="node">
<title>dcgp&#45;python</title>
<ellipse fill="#fde725" stroke="black" cx="1267.32" cy="-314" rx="64.5" ry="18"/>
<text text-anchor="middle" x="1267.32" y="-310.3" font-family="Times,serif" font-size="14.00">dcgp python</text>
</g>
<!-- pygmo&#45;&gt;dcgp&#45;python -->
<g id="edge8" class="edge">
<title>pygmo&#45;&gt;dcgp&#45;python</title>
<path fill="none" stroke="black" d="M1243.83,-368.05C1247.36,-360.09 1251.64,-350.41 1255.58,-341.51"/>
<polygon fill="black" stroke="black" points="1258.83,-342.84 1259.67,-332.28 1252.42,-340 1258.83,-342.84"/>
</g>
<!-- rank_filter -->
<g id="node14" class="node">
<title>rank_filter</title>
<g id="a_node14"><a xlink:href="https://github.com/conda-forge/rank_filter-feedstock/pull/43" xlink:title="rank_filter">
<ellipse fill="#31688e" stroke="black" cx="1266.32" cy="-826" rx="64.5" ry="18"/>
<text text-anchor="middle" x="1266.32" y="-822.3" font-family="Times,serif" font-size="14.00" fill="white">rank_filter</text>
</a>
</g>
</g>
<!-- pyne&#45;&gt;rank_filter -->
<!-- rsgislib -->
<g id="node15" class="node">
<title>rsgislib</title>
<g id="a_node15"><a xlink:href="https://github.com/conda-forge/rsgislib-feedstock/pull/28" xlink:title="rsgislib">
<ellipse fill="#31688e" stroke="black" cx="1266.32" cy="-754" rx="50.09" ry="18"/>
<text text-anchor="middle" x="1266.32" y="-750.3" font-family="Times,serif" font-size="14.00" fill="white">rsgislib</text>
</a>
</g>
</g>
<!-- rank_filter&#45;&gt;rsgislib -->
<!-- turbodbc -->
<g id="node16" class="node">
<title>turbodbc</title>
<g id="a_node16"><a xlink:href="https://github.com/conda-forge/turbodbc-feedstock/pull/38" xlink:title="turbodbc">
<ellipse fill="#31688e" stroke="black" cx="1266.32" cy="-682" rx="50.09" ry="18"/>
<text text-anchor="middle" x="1266.32" y="-678.3" font-family="Times,serif" font-size="14.00" fill="white">turbodbc</text>
</a>
</g>
</g>
<!-- rsgislib&#45;&gt;turbodbc -->
<!-- clblas -->
<g id="node17" class="node">
<title>clblas</title>
<g id="a_node17"><a xlink:href="https://github.com/conda-forge/clblas-feedstock/pull/9" xlink:title="clblas">
<ellipse fill="#31688e" stroke="black" cx="1266.32" cy="-610" rx="40.5" ry="18"/>
<text text-anchor="middle" x="1266.32" y="-606.3" font-family="Times,serif" font-size="14.00" fill="white">clblas</text>
</a>
</g>
</g>
<!-- turbodbc&#45;&gt;clblas -->
<!-- audi -->
<g id="node18" class="node">
<title>audi</title>
<g id="a_node18"><a xlink:href="https://github.com/conda-forge/audi-feedstock/pull/16" xlink:title="audi">
<ellipse fill="#31688e" stroke="black" cx="1299.32" cy="-458" rx="30.59" ry="18"/>
<text text-anchor="middle" x="1299.32" y="-454.3" font-family="Times,serif" font-size="14.00" fill="white">audi</text>
</a>
</g>
</g>
<!-- audi&#45;&gt;dcgp&#45;python -->
<g id="edge14" class="edge">
<title>audi&#45;&gt;dcgp&#45;python</title>
<path fill="none" stroke="black" d="M1295.84,-439.9C1292.13,-421.96 1286.05,-392.95 1280.32,-368 1278.39,-359.56 1276.18,-350.39 1274.14,-342.09"/>
<polygon fill="black" stroke="black" points="1277.48,-341.02 1271.67,-332.15 1270.68,-342.7 1277.48,-341.02"/>
</g>
<!-- clfft -->
<g id="node19" class="node">
<title>clfft</title>
<g id="a_node19"><a xlink:href="https://github.com/conda-forge/clfft-feedstock/pull/9" xlink:title="clfft">
<ellipse fill="#31688e" stroke="black" cx="1065.32" cy="-1330" rx="35.19" ry="18"/>
<text text-anchor="middle" x="1065.32" y="-1326.3" font-family="Times,serif" font-size="14.00" fill="white">clfft</text>
</a>
</g>
</g>
<!-- clsparse -->
<g id="node20" class="node">
<title>clsparse</title>
<g id="a_node20"><a xlink:href="https://github.com/conda-forge/clsparse-feedstock/pull/7" xlink:title="clsparse">
<ellipse fill="#31688e" stroke="black" cx="1065.32" cy="-1258" rx="50.09" ry="18"/>
<text text-anchor="middle" x="1065.32" y="-1254.3" font-family="Times,serif" font-size="14.00" fill="white">clsparse</text>
</a>
</g>
</g>
<!-- clfft&#45;&gt;clsparse -->
<!-- spdlib -->
<g id="node21" class="node">
<title>spdlib</title>
<g id="a_node21"><a xlink:href="https://github.com/conda-forge/spdlib-feedstock/pull/11" xlink:title="spdlib">
<ellipse fill="#31688e" stroke="black" cx="1065.32" cy="-1186" rx="40.5" ry="18"/>
<text text-anchor="middle" x="1065.32" y="-1182.3" font-family="Times,serif" font-size="14.00" fill="white">spdlib</text>
</a>
</g>
</g>
<!-- clsparse&#45;&gt;spdlib -->
<!-- pcl -->
<g id="node22" class="node">
<title>pcl</title>
<g id="a_node22"><a xlink:href="https://github.com/conda-forge/pcl-feedstock/pull/20" xlink:title="pcl">
<ellipse fill="#31688e" stroke="black" cx="1065.32" cy="-1114" rx="27" ry="18"/>
<text text-anchor="middle" x="1065.32" y="-1110.3" font-family="Times,serif" font-size="14.00" fill="white">pcl</text>
</a>
</g>
</g>
<!-- spdlib&#45;&gt;pcl -->
<!-- freecad -->
<g id="node23" class="node">
<title>freecad</title>
<g id="a_node23"><a xlink:href="https://github.com/conda-forge/freecad-feedstock/pull/35" xlink:title="freecad">
<ellipse fill="#31688e" stroke="black" cx="1065.32" cy="-1042" rx="45" ry="18"/>
<text text-anchor="middle" x="1065.32" y="-1038.3" font-family="Times,serif" font-size="14.00" fill="white">freecad</text>
</a>
</g>
</g>
<!-- pcl&#45;&gt;freecad -->
<!-- helics -->
<g id="node24" class="node">
<title>helics</title>
<g id="a_node24"><a xlink:href="https://github.com/conda-forge/helics-feedstock/pull/17" xlink:title="helics">
<ellipse fill="#31688e" stroke="black" cx="1065.32" cy="-970" rx="40.5" ry="18"/>
<text text-anchor="middle" x="1065.32" y="-966.3" font-family="Times,serif" font-size="14.00" fill="white">helics</text>
</a>
</g>
</g>
<!-- freecad&#45;&gt;helics -->
<!-- nds2&#45;client -->
<g id="node25" class="node">
<title>nds2&#45;client</title>
<g id="a_node25"><a xlink:href="https://github.com/conda-forge/nds2-client-feedstock/pull/9" xlink:title="nds2 client">
<ellipse fill="#31688e" stroke="black" cx="1065.32" cy="-898" rx="64.5" ry="18"/>
<text text-anchor="middle" x="1065.32" y="-894.3" font-family="Times,serif" font-size="14.00" fill="white">nds2 client</text>
</a>
</g>
</g>
<!-- helics&#45;&gt;nds2&#45;client -->
<!-- gudhi -->
<g id="node26" class="node">
<title>gudhi</title>
<g id="a_node26"><a xlink:href="https://github.com/conda-forge/gudhi-feedstock/pull/16" xlink:title="gudhi">
<ellipse fill="#31688e" stroke="black" cx="1065.32" cy="-826" rx="35.19" ry="18"/>
<text text-anchor="middle" x="1065.32" y="-822.3" font-family="Times,serif" font-size="14.00" fill="white">gudhi</text>
</a>
</g>
</g>
<!-- nds2&#45;client&#45;&gt;gudhi -->
<!-- ldas&#45;tools&#45;diskcacheapi -->
<g id="node27" class="node">
<title>ldas&#45;tools&#45;diskcacheapi</title>
<g id="a_node27"><a xlink:href="https://github.com/conda-forge/ldas-tools-diskcacheapi-feedstock/pull/4" xlink:title="ldas tools diskcacheapi">
<ellipse fill="#31688e" stroke="black" cx="1065.32" cy="-754" rx="123" ry="18"/>
<text text-anchor="middle" x="1065.32" y="-750.3" font-family="Times,serif" font-size="14.00" fill="white">ldas tools diskcacheapi</text>
</a>
</g>
</g>
<!-- gudhi&#45;&gt;ldas&#45;tools&#45;diskcacheapi -->
<!-- libint -->
<g id="node28" class="node">
<title>libint</title>
<g id="a_node28"><a xlink:href="https://github.com/conda-forge/libint-feedstock/pull/5" xlink:title="libint">
<ellipse fill="#31688e" stroke="black" cx="1065.32" cy="-682" rx="40.5" ry="18"/>
<text text-anchor="middle" x="1065.32" y="-678.3" font-family="Times,serif" font-size="14.00" fill="white">libint</text>
</a>
</g>
</g>
<!-- ldas&#45;tools&#45;diskcacheapi&#45;&gt;libint -->
<!-- dealii -->
<g id="node29" class="node">
<title>dealii</title>
<g id="a_node29"><a xlink:href="https://github.com/conda-forge/dealii-feedstock/pull/6" xlink:title="dealii">
<ellipse fill="#31688e" stroke="black" cx="1065.32" cy="-610" rx="40.5" ry="18"/>
<text text-anchor="middle" x="1065.32" y="-606.3" font-family="Times,serif" font-size="14.00" fill="white">dealii</text>
</a>
</g>
</g>
<!-- libint&#45;&gt;dealii -->
<!-- omniscidb&#45;cpu -->
<g id="node30" class="node">
<title>omniscidb&#45;cpu</title>
<g id="a_node30"><a xlink:href="https://github.com/conda-forge/omniscidb-cpu-feedstock/pull/22" xlink:title="omniscidb cpu">
<ellipse fill="#31688e" stroke="black" cx="464.32" cy="-566" rx="74.19" ry="18"/>
<text text-anchor="middle" x="464.32" y="-562.3" font-family="Times,serif" font-size="14.00" fill="white">omniscidb cpu</text>
</a>
</g>
</g>
<!-- ambertools -->
<g id="node31" class="node">
<title>ambertools</title>
<g id="a_node31"><a xlink:href="https://github.com/conda-forge/ambertools-feedstock/pull/25" xlink:title="ambertools">
<ellipse fill="#31688e" stroke="black" cx="464.32" cy="-494" rx="60" ry="18"/>
<text text-anchor="middle" x="464.32" y="-490.3" font-family="Times,serif" font-size="14.00" fill="white">ambertools</text>
</a>
</g>
</g>
<!-- omniscidb&#45;cpu&#45;&gt;ambertools -->
<!-- biorbd -->
<g id="node32" class="node">
<title>biorbd</title>
<g id="a_node32"><a xlink:href="https://github.com/conda-forge/biorbd-feedstock/pull/13" xlink:title="biorbd">
<ellipse fill="#31688e" stroke="black" cx="464.32" cy="-422" rx="40.5" ry="18"/>
<text text-anchor="middle" x="464.32" y="-418.3" font-family="Times,serif" font-size="14.00" fill="white">biorbd</text>
</a>
</g>
</g>
<!-- ambertools&#45;&gt;biorbd -->
<!-- esys&#45;escript -->
<g id="node33" class="node">
<title>esys&#45;escript</title>
<g id="a_node33"><a xlink:href="https://github.com/conda-forge/esys-escript-feedstock/pull/11" xlink:title="esys escript">
<ellipse fill="#31688e" stroke="black" cx="464.32" cy="-350" rx="69.59" ry="18"/>
<text text-anchor="middle" x="464.32" y="-346.3" font-family="Times,serif" font-size="14.00" fill="white">esys escript</text>
</a>
</g>
</g>
<!-- biorbd&#45;&gt;esys&#45;escript -->
<!-- graph&#45;tool -->
<g id="node35" class="node">
<title>graph&#45;tool</title>
<g id="a_node35"><a xlink:href="https://github.com/conda-forge/graph-tool-feedstock/pull/8" xlink:title="graph tool">
<ellipse fill="#31688e" stroke="black" cx="464.32" cy="-278" rx="60" ry="18"/>
<text text-anchor="middle" x="464.32" y="-274.3" font-family="Times,serif" font-size="14.00" fill="white">graph tool</text>
</a>
</g>
</g>
<!-- esys&#45;escript&#45;&gt;graph&#45;tool -->
<!-- normaliz -->
<g id="node34" class="node">
<title>normaliz</title>
<g id="a_node34"><a xlink:href="https://github.com/conda-forge/normaliz-feedstock/pull/18" xlink:title="normaliz">
<ellipse fill="#31688e" stroke="black" cx="464.32" cy="-162" rx="50.09" ry="18"/>
<text text-anchor="middle" x="464.32" y="-158.3" font-family="Times,serif" font-size="14.00" fill="white">normaliz</text>
</a>
</g>
</g>
<!-- normaliz&#45;&gt;gap -->
<g id="edge28" class="edge">
<title>normaliz&#45;&gt;gap</title>
<path fill="none" stroke="black" d="M464.32,-143.7C464.32,-135.98 464.32,-126.71 464.32,-118.11"/>
<polygon fill="black" stroke="black" points="467.82,-118.1 464.32,-108.1 460.82,-118.1 467.82,-118.1"/>
</g>
<!-- pyinterp -->
<g id="node40" class="node">
<title>pyinterp</title>
<g id="a_node40"><a xlink:href="https://github.com/conda-forge/pyinterp-feedstock/pull/15" xlink:title="pyinterp">
<ellipse fill="#31688e" stroke="black" cx="464.32" cy="-206" rx="50.09" ry="18"/>
<text text-anchor="middle" x="464.32" y="-202.3" font-family="Times,serif" font-size="14.00" fill="white">pyinterp</text>
</a>
</g>
</g>
<!-- graph&#45;tool&#45;&gt;pyinterp -->
<!-- xmsgrid -->
<g id="node36" class="node">
<title>xmsgrid</title>
<g id="a_node36"><a xlink:href="https://github.com/conda-forge/xmsgrid-feedstock/pull/6" xlink:title="xmsgrid">
<ellipse fill="#31688e" stroke="black" cx="1064.32" cy="-458" rx="45" ry="18"/>
<text text-anchor="middle" x="1064.32" y="-454.3" font-family="Times,serif" font-size="14.00" fill="white">xmsgrid</text>
</a>
</g>
</g>
<!-- xmsinterp -->
<g id="node37" class="node">
<title>xmsinterp</title>
<ellipse fill="#fde725" stroke="black" cx="1064.32" cy="-386" rx="54.69" ry="18"/>
<text text-anchor="middle" x="1064.32" y="-382.3" font-family="Times,serif" font-size="14.00">xmsinterp</text>
</g>
<!-- xmsgrid&#45;&gt;xmsinterp -->
<g id="edge30" class="edge">
<title>xmsgrid&#45;&gt;xmsinterp</title>
<path fill="none" stroke="black" d="M1064.32,-439.7C1064.32,-431.98 1064.32,-422.71 1064.32,-414.11"/>
<polygon fill="black" stroke="black" points="1067.82,-414.1 1064.32,-404.1 1060.82,-414.1 1067.82,-414.1"/>
</g>
<!-- xmsstamper -->
<g id="node38" class="node">
<title>xmsstamper</title>
<ellipse fill="#fde725" stroke="black" cx="997.32" cy="-314" rx="60" ry="18"/>
<text text-anchor="middle" x="997.32" y="-310.3" font-family="Times,serif" font-size="14.00">xmsstamper</text>
</g>
<!-- xmsgrid&#45;&gt;xmsstamper -->
<g id="edge31" class="edge">
<title>xmsgrid&#45;&gt;xmsstamper</title>
<path fill="none" stroke="black" d="M1038.76,-443.14C1024.71,-434.03 1008.53,-420.71 1000.32,-404 990.93,-384.86 990.78,-360.51 992.65,-342.12"/>
<polygon fill="black" stroke="black" points="996.14,-342.42 993.93,-332.06 989.2,-341.54 996.14,-342.42"/>
</g>
<!-- xmsmesher -->
<g id="node39" class="node">
<title>xmsmesher</title>
<ellipse fill="#fde725" stroke="black" cx="1138.32" cy="-314" rx="54.69" ry="18"/>
<text text-anchor="middle" x="1138.32" y="-310.3" font-family="Times,serif" font-size="14.00">xmsmesher</text>
</g>
<!-- xmsgrid&#45;&gt;xmsmesher -->
<g id="edge32" class="edge">
<title>xmsgrid&#45;&gt;xmsmesher</title>
<path fill="none" stroke="black" d="M1089.42,-442.9C1103.29,-433.7 1119.48,-420.37 1128.32,-404 1138.52,-385.13 1140.63,-360.76 1140.41,-342.29"/>
<polygon fill="black" stroke="black" points="1143.91,-342.06 1140.06,-332.19 1136.91,-342.3 1143.91,-342.06"/>
</g>
<!-- xmsinterp&#45;&gt;xmsstamper -->
<g id="edge33" class="edge">
<title>xmsinterp&#45;&gt;xmsstamper</title>
<path fill="none" stroke="black" d="M1048.45,-368.41C1040.02,-359.61 1029.51,-348.63 1020.22,-338.92"/>
<polygon fill="black" stroke="black" points="1022.53,-336.27 1013.09,-331.47 1017.48,-341.11 1022.53,-336.27"/>
</g>
<!-- xmsinterp&#45;&gt;xmsmesher -->
<g id="edge34" class="edge">
<title>xmsinterp&#45;&gt;xmsmesher</title>
<path fill="none" stroke="black" d="M1081.49,-368.76C1091.11,-359.66 1103.27,-348.16 1113.87,-338.13"/>
<polygon fill="black" stroke="black" points="1116.4,-340.56 1121.25,-331.15 1111.58,-335.48 1116.4,-340.56"/>
</g>
<!-- ros&#45;rostime -->
<g id="node41" class="node">
<title>ros&#45;rostime</title>
<g id="a_node41"><a xlink:href="https://github.com/conda-forge/ros-rostime-feedstock/pull/4" xlink:title="ros rostime">
<ellipse fill="#31688e" stroke="black" cx="552.32" cy="-1114" rx="64.5" ry="18"/>
<text text-anchor="middle" x="552.32" y="-1110.3" font-family="Times,serif" font-size="14.00" fill="white">ros rostime</text>
</a>
</g>
</g>
<!-- ros&#45;rosconsole -->
<g id="node42" class="node">
<title>ros&#45;rosconsole</title>
<ellipse fill="#fde725" stroke="black" cx="770.32" cy="-1042" rx="79.5" ry="18"/>
<text text-anchor="middle" x="770.32" y="-1038.3" font-family="Times,serif" font-size="14.00">ros rosconsole</text>
</g>
<!-- ros&#45;rostime&#45;&gt;ros&#45;rosconsole -->
<g id="edge36" class="edge">
<title>ros&#45;rostime&#45;&gt;ros&#45;rosconsole</title>
<path fill="none" stroke="black" d="M593.07,-1099.92C627.92,-1088.73 678.33,-1072.54 716.49,-1060.29"/>
<polygon fill="black" stroke="black" points="717.96,-1063.49 726.41,-1057.1 715.82,-1056.83 717.96,-1063.49"/>
</g>
<!-- ros&#45;rosbag&#45;storage -->
<g id="node43" class="node">
<title>ros&#45;rosbag&#45;storage</title>
<ellipse fill="#fde725" stroke="black" cx="606.32" cy="-898" rx="99" ry="18"/>
<text text-anchor="middle" x="606.32" y="-894.3" font-family="Times,serif" font-size="14.00">ros rosbag storage</text>
</g>
<!-- ros&#45;rostime&#45;&gt;ros&#45;rosbag&#45;storage -->
<g id="edge37" class="edge">
<title>ros&#45;rostime&#45;&gt;ros&#45;rosbag&#45;storage</title>
<path fill="none" stroke="black" d="M612.77,-1107.55C689.93,-1099.74 818.34,-1083.66 859.32,-1060 895.4,-1039.18 905.14,-1027.17 919.32,-988 924.77,-972.96 929.65,-964.22 919.32,-952 893.06,-920.91 792.93,-908.06 712.9,-902.74"/>
<polygon fill="black" stroke="black" points="712.95,-899.24 702.75,-902.1 712.51,-906.22 712.95,-899.24"/>
</g>
<!-- ros&#45;rosbag -->
<g id="node44" class="node">
<title>ros&#45;rosbag</title>
<ellipse fill="#fde725" stroke="black" cx="270.32" cy="-826" rx="60" ry="18"/>
<text text-anchor="middle" x="270.32" y="-822.3" font-family="Times,serif" font-size="14.00">ros rosbag</text>
</g>
<!-- ros&#45;rostime&#45;&gt;ros&#45;rosbag -->
<g id="edge38" class="edge">
<title>ros&#45;rostime&#45;&gt;ros&#45;rosbag</title>
<path fill="none" stroke="black" d="M489.13,-1110.04C382.69,-1104.3 172.69,-1089.54 105.32,-1060 60.29,-1040.25 41.87,-1032.67 21.32,-988 0,-941.64 20.03,-911.32 60.32,-880 100.4,-848.85 156.6,-835.81 200.78,-830.45"/>
<polygon fill="black" stroke="black" points="201.31,-833.91 210.87,-829.33 200.54,-826.95 201.31,-833.91"/>
</g>
<!-- ros&#45;actionlib -->
<g id="node45" class="node">
<title>ros&#45;actionlib</title>
<ellipse fill="#fde725" stroke="black" cx="389.32" cy="-970" rx="74.19" ry="18"/>
<text text-anchor="middle" x="389.32" y="-966.3" font-family="Times,serif" font-size="14.00">ros actionlib</text>
</g>
<!-- ros&#45;rostime&#45;&gt;ros&#45;actionlib -->
<g id="edge39" class="edge">
<title>ros&#45;rostime&#45;&gt;ros&#45;actionlib</title>
<path fill="none" stroke="black" d="M533.63,-1096.71C504.8,-1071.59 449.36,-1023.3 416.22,-994.43"/>
<polygon fill="black" stroke="black" points="418.15,-991.47 408.31,-987.54 413.55,-996.74 418.15,-991.47"/>
</g>
<!-- ros&#45;rosconsole&#45;&gt;ros&#45;rosbag&#45;storage -->
<g id="edge40" class="edge">
<title>ros&#45;rosconsole&#45;&gt;ros&#45;rosbag&#45;storage</title>
<path fill="none" stroke="black" d="M834.28,-1031.21C859.87,-1023.81 886.9,-1010.81 902.32,-988 911.29,-974.75 912.59,-964.27 902.32,-952 878.04,-922.98 786.31,-909.83 711.33,-903.88"/>
<polygon fill="black" stroke="black" points="711.57,-900.39 701.34,-903.12 711.04,-907.37 711.57,-900.39"/>
</g>
<!-- ros&#45;rosconsole&#45;&gt;ros&#45;rosbag -->
<g id="edge41" class="edge">
<title>ros&#45;rosconsole&#45;&gt;ros&#45;rosbag</title>
<path fill="none" stroke="black" d="M841.12,-1033.59C870.31,-1026.65 901.44,-1013.35 919.32,-988 928.55,-974.93 928.58,-965.05 919.32,-952 852.93,-858.31 493.64,-834.71 340.03,-828.87"/>
<polygon fill="black" stroke="black" points="339.9,-825.37 329.78,-828.5 339.64,-832.36 339.9,-825.37"/>
</g>
<!-- ros&#45;rosconsole&#45;&gt;ros&#45;actionlib -->
<g id="edge42" class="edge">
<title>ros&#45;rosconsole&#45;&gt;ros&#45;actionlib</title>
<path fill="none" stroke="black" d="M708.89,-1030.55C648.57,-1020.18 554,-1003.62 472.32,-988 466.26,-986.84 459.95,-985.6 453.64,-984.34"/>
<polygon fill="black" stroke="black" points="454.25,-980.9 443.75,-982.36 452.87,-987.76 454.25,-980.9"/>
</g>
<!-- ros&#45;pluginlib -->
<g id="node46" class="node">
<title>ros&#45;pluginlib</title>
<ellipse fill="#fde725" stroke="black" cx="555.32" cy="-970" rx="74.19" ry="18"/>
<text text-anchor="middle" x="555.32" y="-966.3" font-family="Times,serif" font-size="14.00">ros pluginlib</text>
</g>
<!-- ros&#45;rosconsole&#45;&gt;ros&#45;pluginlib -->
<g id="edge43" class="edge">
<title>ros&#45;rosconsole&#45;&gt;ros&#45;pluginlib</title>
<path fill="none" stroke="black" d="M726.82,-1026.83C692.38,-1015.62 644.18,-999.93 607.64,-988.03"/>
<polygon fill="black" stroke="black" points="608.26,-984.55 597.67,-984.79 606.09,-991.21 608.26,-984.55"/>
</g>
<!-- ros&#45;message&#45;filters -->
<g id="node47" class="node">
<title>ros&#45;message&#45;filters</title>
<ellipse fill="#fde725" stroke="black" cx="789.32" cy="-970" rx="103.5" ry="18"/>
<text text-anchor="middle" x="789.32" y="-966.3" font-family="Times,serif" font-size="14.00">ros message filters</text>
</g>
<!-- ros&#45;rosconsole&#45;&gt;ros&#45;message&#45;filters -->
<g id="edge44" class="edge">
<title>ros&#45;rosconsole&#45;&gt;ros&#45;message&#45;filters</title>
<path fill="none" stroke="black" d="M775.02,-1023.7C777.14,-1015.9 779.69,-1006.51 782.04,-997.83"/>
<polygon fill="black" stroke="black" points="785.44,-998.67 784.68,-988.1 778.68,-996.84 785.44,-998.67"/>
</g>
<!-- ros&#45;rosbag&#45;storage&#45;&gt;ros&#45;rosbag -->
<g id="edge45" class="edge">
<title>ros&#45;rosbag&#45;storage&#45;&gt;ros&#45;rosbag</title>
<path fill="none" stroke="black" d="M543.91,-884C482.11,-871.12 388.24,-851.57 328.1,-839.04"/>
<polygon fill="black" stroke="black" points="328.52,-835.55 318.02,-836.94 327.09,-842.4 328.52,-835.55"/>
</g>
<!-- ros&#45;pluginlib&#45;&gt;ros&#45;rosbag&#45;storage -->
<g id="edge51" class="edge">
<title>ros&#45;pluginlib&#45;&gt;ros&#45;rosbag&#45;storage</title>
<path fill="none" stroke="black" d="M567.67,-952.05C573.72,-943.75 581.13,-933.58 587.84,-924.38"/>
<polygon fill="black" stroke="black" points="590.68,-926.42 593.74,-916.28 585.02,-922.3 590.68,-926.42"/>
</g>
<!-- ros&#45;roslib -->
<g id="node48" class="node">
<title>ros&#45;roslib</title>
<g id="a_node48"><a xlink:href="https://github.com/conda-forge/ros-roslib-feedstock/pull/6" xlink:title="ros roslib">
<ellipse fill="#31688e" stroke="black" cx="174.32" cy="-1042" rx="60" ry="18"/>
<text text-anchor="middle" x="174.32" y="-1038.3" font-family="Times,serif" font-size="14.00" fill="white">ros roslib</text>
</a>
</g>
</g>
<!-- ros&#45;roslib&#45;&gt;ros&#45;rosbag&#45;storage -->
<g id="edge46" class="edge">
<title>ros&#45;roslib&#45;&gt;ros&#45;rosbag&#45;storage</title>
<path fill="none" stroke="black" d="M120.6,-1033.9C92.26,-1027.12 59.82,-1013.88 42.32,-988 33.36,-974.75 31.55,-963.83 42.32,-952 72.39,-918.98 343.72,-906.13 498.81,-901.46"/>
<polygon fill="black" stroke="black" points="498.97,-904.96 508.86,-901.16 498.76,-897.96 498.97,-904.96"/>
</g>
<!-- ros&#45;roslib&#45;&gt;ros&#45;rosbag -->
<g id="edge47" class="edge">
<title>ros&#45;roslib&#45;&gt;ros&#45;rosbag</title>
<path fill="none" stroke="black" d="M118.07,-1035.51C86.99,-1029.27 50.83,-1016.04 31.32,-988 22.19,-974.87 23.04,-965.69 31.32,-952 70.28,-887.67 154.42,-854.86 211.73,-839.34"/>
<polygon fill="black" stroke="black" points="212.95,-842.64 221.74,-836.73 211.18,-835.86 212.95,-842.64"/>
</g>
<!-- ros&#45;roslib&#45;&gt;ros&#45;actionlib -->
<g id="edge48" class="edge">
<title>ros&#45;roslib&#45;&gt;ros&#45;actionlib</title>
<path fill="none" stroke="black" d="M213.76,-1028.16C248.37,-1016.89 298.97,-1000.42 336.96,-988.05"/>
<polygon fill="black" stroke="black" points="338.4,-991.26 346.83,-984.84 336.24,-984.6 338.4,-991.26"/>
</g>
<!-- ros&#45;roslib&#45;&gt;ros&#45;pluginlib -->
<g id="edge49" class="edge">
<title>ros&#45;roslib&#45;&gt;ros&#45;pluginlib</title>
<path fill="none" stroke="black" d="M225.28,-1032.35C284.68,-1022.18 385.75,-1004.56 472.32,-988 478.39,-986.84 484.7,-985.6 491.01,-984.34"/>
<polygon fill="black" stroke="black" points="491.78,-987.76 500.9,-982.36 490.4,-980.9 491.78,-987.76"/>
</g>
<!-- ros&#45;dynamic&#45;reconfigure -->
<g id="node49" class="node">
<title>ros&#45;dynamic&#45;reconfigure</title>
<ellipse fill="#fde725" stroke="black" cx="174.32" cy="-970" rx="123" ry="18"/>
<text text-anchor="middle" x="174.32" y="-966.3" font-family="Times,serif" font-size="14.00">ros dynamic reconfigure</text>
</g>
<!-- ros&#45;roslib&#45;&gt;ros&#45;dynamic&#45;reconfigure -->
<g id="edge50" class="edge">
<title>ros&#45;roslib&#45;&gt;ros&#45;dynamic&#45;reconfigure</title>
<path fill="none" stroke="black" d="M174.32,-1023.7C174.32,-1015.98 174.32,-1006.71 174.32,-998.11"/>
<polygon fill="black" stroke="black" points="177.82,-998.1 174.32,-988.1 170.82,-998.1 177.82,-998.1"/>
</g>
<!-- ros&#45;rostest -->
<g id="node50" class="node">
<title>ros&#45;rostest</title>
<g id="a_node50"><a xlink:href="https://github.com/conda-forge/ros-rostest-feedstock/pull/2" xlink:title="ros rostest">
<ellipse fill="#31688e" stroke="black" cx="590.32" cy="-1042" rx="64.5" ry="18"/>
<text text-anchor="middle" x="590.32" y="-1038.3" font-family="Times,serif" font-size="14.00" fill="white">ros rostest</text>
</a>
</g>
</g>
<!-- ros&#45;rostest&#45;&gt;ros&#45;rosbag&#45;storage -->
<g id="edge52" class="edge">
<title>ros&#45;rostest&#45;&gt;ros&#45;rosbag&#45;storage</title>
<path fill="none" stroke="black" d="M611.03,-1024.71C621.35,-1015.25 632.79,-1002.36 638.32,-988 644.08,-973.07 642.62,-967.41 638.32,-952 635.66,-942.42 630.74,-932.84 625.54,-924.51"/>
<polygon fill="black" stroke="black" points="628.35,-922.41 619.89,-916.03 622.52,-926.29 628.35,-922.41"/>
</g>
<!-- ros&#45;rostest&#45;&gt;ros&#45;actionlib -->
<g id="edge53" class="edge">
<title>ros&#45;rostest&#45;&gt;ros&#45;actionlib</title>
<path fill="none" stroke="black" d="M551.57,-1027.5C519.66,-1016.39 474.2,-1000.56 439.51,-988.48"/>
<polygon fill="black" stroke="black" points="440.63,-985.16 430.03,-985.18 438.32,-991.77 440.63,-985.16"/>
</g>
<!-- ros&#45;rostest&#45;&gt;ros&#45;message&#45;filters -->
<g id="edge55" class="edge">
<title>ros&#45;rostest&#45;&gt;ros&#45;message&#45;filters</title>
<path fill="none" stroke="black" d="M628.69,-1027.5C659.12,-1016.8 702,-1001.72 735.81,-989.83"/>
<polygon fill="black" stroke="black" points="737.26,-993.03 745.53,-986.41 734.94,-986.42 737.26,-993.03"/>
</g>
<!-- ros&#45;rostest&#45;&gt;ros&#45;dynamic&#45;reconfigure -->
<g id="edge54" class="edge">
<title>ros&#45;rostest&#45;&gt;ros&#45;dynamic&#45;reconfigure</title>
<path fill="none" stroke="black" d="M536.37,-1031.92C466.76,-1020.21 344.78,-999.68 261.83,-985.73"/>
<polygon fill="black" stroke="black" points="262.36,-982.26 251.92,-984.06 261.2,-989.17 262.36,-982.26"/>
</g>
</g>
</svg>
