<?xml version="1.0" encoding="UTF-8" standalone="no"?>
<!DOCTYPE svg PUBLIC "-//W3C//DTD SVG 1.1//EN"
 "http://www.w3.org/Graphics/SVG/1.1/DTD/svg11.dtd">
<!-- Generated by graphviz version 2.42.3 (20191010.1750)
 -->
<!-- Title: %3 Pages: 1 -->
<svg width="1432pt" height="2280pt"
 viewBox="0.00 0.00 1431.55 2280.00" xmlns="http://www.w3.org/2000/svg" xmlns:xlink="http://www.w3.org/1999/xlink">
<g id="graph0" class="graph" transform="scale(1 1) rotate(0) translate(4 2276)">
<title>%3</title>
<polygon fill="white" stroke="transparent" points="-4,4 -4,-2276 1427.55,-2276 1427.55,4 -4,4"/>
<!-- arrow&#45;cpp -->
<g id="node1" class="node">
<title>arrow&#45;cpp</title>
<ellipse fill="#fde725" stroke="black" cx="471.51" cy="-654" rx="54.69" ry="18"/>
<text text-anchor="middle" x="471.51" y="-650.3" font-family="Times,serif" font-size="14.00">arrow cpp</text>
</g>
<!-- pyarrow -->
<g id="node2" class="node">
<title>pyarrow</title>
<ellipse fill="#fde725" stroke="black" cx="389.51" cy="-582" rx="45" ry="18"/>
<text text-anchor="middle" x="389.51" y="-578.3" font-family="Times,serif" font-size="14.00">pyarrow</text>
</g>
<!-- arrow&#45;cpp&#45;&gt;pyarrow -->
<g id="edge1" class="edge">
<title>arrow&#45;cpp&#45;&gt;pyarrow</title>
<path fill="none" stroke="black" d="M452.49,-636.76C441.57,-627.45 427.7,-615.61 415.76,-605.41"/>
<polygon fill="black" stroke="black" points="417.74,-602.5 407.86,-598.67 413.19,-607.82 417.74,-602.5"/>
</g>
<!-- turbodbc -->
<g id="node3" class="node">
<title>turbodbc</title>
<ellipse fill="#fde725" stroke="black" cx="425.51" cy="-510" rx="50.09" ry="18"/>
<text text-anchor="middle" x="425.51" y="-506.3" font-family="Times,serif" font-size="14.00">turbodbc</text>
</g>
<!-- arrow&#45;cpp&#45;&gt;turbodbc -->
<g id="edge2" class="edge">
<title>arrow&#45;cpp&#45;&gt;turbodbc</title>
<path fill="none" stroke="black" d="M466.25,-635.9C460.71,-617.96 451.66,-588.94 443.51,-564 440.72,-555.46 437.59,-546.18 434.74,-537.81"/>
<polygon fill="black" stroke="black" points="437.99,-536.48 431.44,-528.15 431.37,-538.75 437.99,-536.48"/>
</g>
<!-- omniscidb&#45;cpu -->
<g id="node4" class="node">
<title>omniscidb&#45;cpu</title>
<ellipse fill="#fde725" stroke="black" cx="564.51" cy="-582" rx="74.19" ry="18"/>
<text text-anchor="middle" x="564.51" y="-578.3" font-family="Times,serif" font-size="14.00">omniscidb cpu</text>
</g>
<!-- arrow&#45;cpp&#45;&gt;omniscidb&#45;cpu -->
<g id="edge3" class="edge">
<title>arrow&#45;cpp&#45;&gt;omniscidb&#45;cpu</title>
<path fill="none" stroke="black" d="M492.61,-637.12C505.04,-627.76 520.95,-615.78 534.65,-605.47"/>
<polygon fill="black" stroke="black" points="536.96,-608.12 542.84,-599.31 532.75,-602.52 536.96,-608.12"/>
</g>
<!-- pyarrow&#45;&gt;turbodbc -->
<g id="edge4" class="edge">
<title>pyarrow&#45;&gt;turbodbc</title>
<path fill="none" stroke="black" d="M398.22,-564.05C402.42,-555.89 407.55,-545.91 412.23,-536.82"/>
<polygon fill="black" stroke="black" points="415.41,-538.28 416.87,-527.79 409.19,-535.08 415.41,-538.28"/>
</g>
<!-- avrocpp -->
<g id="node5" class="node">
<title>avrocpp</title>
<ellipse fill="#35b779" stroke="black" cx="1334.51" cy="-1490" rx="45" ry="18"/>
<text text-anchor="middle" x="1334.51" y="-1486.3" font-family="Times,serif" font-size="14.00">avrocpp</text>
</g>
<!-- caffe -->
<g id="node6" class="node">
<title>caffe</title>
<ellipse fill="#35b779" stroke="black" cx="1334.51" cy="-1418" rx="35.19" ry="18"/>
<text text-anchor="middle" x="1334.51" y="-1414.3" font-family="Times,serif" font-size="14.00">caffe</text>
</g>
<!-- avrocpp&#45;&gt;caffe -->
<!-- dionysus -->
<g id="node7" class="node">
<title>dionysus</title>
<ellipse fill="#35b779" stroke="black" cx="1334.51" cy="-1346" rx="50.09" ry="18"/>
<text text-anchor="middle" x="1334.51" y="-1342.3" font-family="Times,serif" font-size="14.00">dionysus</text>
</g>
<!-- caffe&#45;&gt;dionysus -->
<!-- exempi -->
<g id="node10" class="node">
<title>exempi</title>
<ellipse fill="#35b779" stroke="black" cx="1334.51" cy="-1274" rx="40.5" ry="18"/>
<text text-anchor="middle" x="1334.51" y="-1270.3" font-family="Times,serif" font-size="14.00">exempi</text>
</g>
<!-- dionysus&#45;&gt;exempi -->
<!-- casacore -->
<g id="node8" class="node">
<title>casacore</title>
<g id="a_node8"><a xlink:href="https://github.com/conda-forge/casacore-feedstock/pull/41" xlink:title="casacore">
<ellipse fill="#31688e" stroke="black" cx="1114.51" cy="-242" rx="50.09" ry="18"/>
<text text-anchor="middle" x="1114.51" y="-238.3" font-family="Times,serif" font-size="14.00" fill="white">casacore</text>
</a>
</g>
</g>
<!-- python&#45;casacore -->
<g id="node9" class="node">
<title>python&#45;casacore</title>
<ellipse fill="#fde725" stroke="black" cx="1114.51" cy="-170" rx="84" ry="18"/>
<text text-anchor="middle" x="1114.51" y="-166.3" font-family="Times,serif" font-size="14.00">python casacore</text>
</g>
<!-- casacore&#45;&gt;python&#45;casacore -->
<g id="edge7" class="edge">
<title>casacore&#45;&gt;python&#45;casacore</title>
<path fill="none" stroke="black" d="M1114.51,-223.7C1114.51,-215.98 1114.51,-206.71 1114.51,-198.11"/>
<polygon fill="black" stroke="black" points="1118.01,-198.1 1114.51,-188.1 1111.01,-198.1 1118.01,-198.1"/>
</g>
<!-- libcmaes -->
<g id="node11" class="node">
<title>libcmaes</title>
<g id="a_node11"><a xlink:href="https://github.com/conda-forge/libcmaes-feedstock/pull/12" xlink:title="libcmaes">
<ellipse fill="#31688e" stroke="black" cx="1334.51" cy="-1202" rx="50.09" ry="18"/>
<text text-anchor="middle" x="1334.51" y="-1198.3" font-family="Times,serif" font-size="14.00" fill="white">libcmaes</text>
</a>
</g>
</g>
<!-- exempi&#45;&gt;libcmaes -->
<!-- libradolan -->
<g id="node14" class="node">
<title>libradolan</title>
<g id="a_node14"><a xlink:href="https://github.com/conda-forge/libradolan-feedstock/pull/23" xlink:title="libradolan">
<ellipse fill="#31688e" stroke="black" cx="1334.51" cy="-1130" rx="60" ry="18"/>
<text text-anchor="middle" x="1334.51" y="-1126.3" font-family="Times,serif" font-size="14.00" fill="white">libradolan</text>
</a>
</g>
</g>
<!-- libcmaes&#45;&gt;libradolan -->
<!-- gap -->
<g id="node12" class="node">
<title>gap</title>
<ellipse fill="#fde725" stroke="black" cx="491.51" cy="-206" rx="27" ry="18"/>
<text text-anchor="middle" x="491.51" y="-202.3" font-family="Times,serif" font-size="14.00">gap</text>
</g>
<!-- sagelib -->
<g id="node13" class="node">
<title>sagelib</title>
<ellipse fill="#fde725" stroke="black" cx="491.51" cy="-134" rx="45" ry="18"/>
<text text-anchor="middle" x="491.51" y="-130.3" font-family="Times,serif" font-size="14.00">sagelib</text>
</g>
<!-- gap&#45;&gt;sagelib -->
<g id="edge10" class="edge">
<title>gap&#45;&gt;sagelib</title>
<path fill="none" stroke="black" d="M491.51,-187.7C491.51,-179.98 491.51,-170.71 491.51,-162.11"/>
<polygon fill="black" stroke="black" points="495.01,-162.1 491.51,-152.1 488.01,-162.1 495.01,-162.1"/>
</g>
<!-- mshr -->
<g id="node15" class="node">
<title>mshr</title>
<g id="a_node15"><a xlink:href="https://github.com/conda-forge/mshr-feedstock/pull/19" xlink:title="mshr">
<ellipse fill="#31688e" stroke="black" cx="1334.51" cy="-1058" rx="30.59" ry="18"/>
<text text-anchor="middle" x="1334.51" y="-1054.3" font-family="Times,serif" font-size="14.00" fill="white">mshr</text>
</a>
</g>
</g>
<!-- libradolan&#45;&gt;mshr -->
<!-- paraview -->
<g id="node18" class="node">
<title>paraview</title>
<g id="a_node18"><a xlink:href="https://github.com/conda-forge/paraview-feedstock/pull/69" xlink:title="paraview">
<ellipse fill="#31688e" stroke="black" cx="1334.51" cy="-986" rx="50.09" ry="18"/>
<text text-anchor="middle" x="1334.51" y="-982.3" font-family="Times,serif" font-size="14.00" fill="white">paraview</text>
</a>
</g>
</g>
<!-- mshr&#45;&gt;paraview -->
<!-- msgpack&#45;c -->
<g id="node16" class="node">
<title>msgpack&#45;c</title>
<g id="a_node16"><a xlink:href="https://github.com/conda-forge/msgpack-c-feedstock/pull/18" xlink:title="msgpack c">
<ellipse fill="#31688e" stroke="black" cx="491.51" cy="-90" rx="54.69" ry="18"/>
<text text-anchor="middle" x="491.51" y="-86.3" font-family="Times,serif" font-size="14.00" fill="white">msgpack c</text>
</a>
</g>
</g>
<!-- pyranha -->
<g id="node17" class="node">
<title>pyranha</title>
<ellipse fill="#fde725" stroke="black" cx="491.51" cy="-18" rx="45" ry="18"/>
<text text-anchor="middle" x="491.51" y="-14.3" font-family="Times,serif" font-size="14.00">pyranha</text>
</g>
<!-- msgpack&#45;c&#45;&gt;pyranha -->
<g id="edge13" class="edge">
<title>msgpack&#45;c&#45;&gt;pyranha</title>
<path fill="none" stroke="black" d="M491.51,-71.7C491.51,-63.98 491.51,-54.71 491.51,-46.11"/>
<polygon fill="black" stroke="black" points="495.01,-46.1 491.51,-36.1 488.01,-46.1 495.01,-46.1"/>
</g>
<!-- pykep -->
<g id="node19" class="node">
<title>pykep</title>
<g id="a_node19"><a xlink:href="https://github.com/conda-forge/pykep-feedstock/pull/11" xlink:title="pykep">
<ellipse fill="#31688e" stroke="black" cx="1334.51" cy="-914" rx="35.19" ry="18"/>
<text text-anchor="middle" x="1334.51" y="-910.3" font-family="Times,serif" font-size="14.00" fill="white">pykep</text>
</a>
</g>
</g>
<!-- paraview&#45;&gt;pykep -->
<!-- pyne -->
<g id="node20" class="node">
<title>pyne</title>
<g id="a_node20"><a xlink:href="https://github.com/conda-forge/pyne-feedstock/pull/39" xlink:title="pyne">
<ellipse fill="#31688e" stroke="black" cx="1334.51" cy="-842" rx="30.59" ry="18"/>
<text text-anchor="middle" x="1334.51" y="-838.3" font-family="Times,serif" font-size="14.00" fill="white">pyne</text>
</a>
</g>
</g>
<!-- pykep&#45;&gt;pyne -->
<!-- pyobjcryst -->
<g id="node21" class="node">
<title>pyobjcryst</title>
<g id="a_node21"><a xlink:href="https://github.com/conda-forge/pyobjcryst-feedstock/pull/9" xlink:title="pyobjcryst">
<ellipse fill="#31688e" stroke="black" cx="1334.51" cy="-770" rx="60" ry="18"/>
<text text-anchor="middle" x="1334.51" y="-766.3" font-family="Times,serif" font-size="14.00" fill="white">pyobjcryst</text>
</a>
</g>
</g>
<!-- pyne&#45;&gt;pyobjcryst -->
<!-- pyopcode -->
<g id="node22" class="node">
<title>pyopcode</title>
<g id="a_node22"><a xlink:href="https://github.com/conda-forge/pyopcode-feedstock/pull/18" xlink:title="pyopcode">
<ellipse fill="#31688e" stroke="black" cx="1114.51" cy="-1490" rx="50.09" ry="18"/>
<text text-anchor="middle" x="1114.51" y="-1486.3" font-family="Times,serif" font-size="14.00" fill="white">pyopcode</text>
</a>
</g>
</g>
<!-- rank_filter -->
<g id="node23" class="node">
<title>rank_filter</title>
<g id="a_node23"><a xlink:href="https://github.com/conda-forge/rank_filter-feedstock/pull/44" xlink:title="rank_filter">
<ellipse fill="#31688e" stroke="black" cx="1114.51" cy="-1418" rx="64.5" ry="18"/>
<text text-anchor="middle" x="1114.51" y="-1414.3" font-family="Times,serif" font-size="14.00" fill="white">rank_filter</text>
</a>
</g>
</g>
<!-- pyopcode&#45;&gt;rank_filter -->
<!-- vigra -->
<g id="node24" class="node">
<title>vigra</title>
<g id="a_node24"><a xlink:href="https://github.com/conda-forge/vigra-feedstock/pull/53" xlink:title="vigra">
<ellipse fill="#31688e" stroke="black" cx="1114.51" cy="-1346" rx="35.19" ry="18"/>
<text text-anchor="middle" x="1114.51" y="-1342.3" font-family="Times,serif" font-size="14.00" fill="white">vigra</text>
</a>
</g>
</g>
<!-- rank_filter&#45;&gt;vigra -->
<!-- zwatershed -->
<g id="node26" class="node">
<title>zwatershed</title>
<ellipse fill="#fde725" stroke="black" cx="1114.51" cy="-1274" rx="60" ry="18"/>
<text text-anchor="middle" x="1114.51" y="-1270.3" font-family="Times,serif" font-size="14.00">zwatershed</text>
</g>
<!-- vigra&#45;&gt;zwatershed -->
<!-- rsgislib -->
<g id="node25" class="node">
<title>rsgislib</title>
<ellipse fill="#fde725" stroke="black" cx="1048.51" cy="-654" rx="50.09" ry="18"/>
<text text-anchor="middle" x="1048.51" y="-650.3" font-family="Times,serif" font-size="14.00">rsgislib</text>
</g>
<!-- cryptominisat -->
<g id="node27" class="node">
<title>cryptominisat</title>
<ellipse fill="#35b779" stroke="black" cx="1114.51" cy="-1202" rx="74.19" ry="18"/>
<text text-anchor="middle" x="1114.51" y="-1198.3" font-family="Times,serif" font-size="14.00">cryptominisat</text>
</g>
<!-- zwatershed&#45;&gt;cryptominisat -->
<!-- alps -->
<g id="node28" class="node">
<title>alps</title>
<ellipse fill="#35b779" stroke="black" cx="1114.51" cy="-1130" rx="30.59" ry="18"/>
<text text-anchor="middle" x="1114.51" y="-1126.3" font-family="Times,serif" font-size="14.00">alps</text>
</g>
<!-- cryptominisat&#45;&gt;alps -->
<!-- clblas -->
<g id="node33" class="node">
<title>clblas</title>
<ellipse fill="#35b779" stroke="black" cx="1114.51" cy="-1058" rx="40.5" ry="18"/>
<text text-anchor="middle" x="1114.51" y="-1054.3" font-family="Times,serif" font-size="14.00">clblas</text>
</g>
<!-- alps&#45;&gt;clblas -->
<!-- audi -->
<g id="node29" class="node">
<title>audi</title>
<g id="a_node29"><a xlink:href="https://github.com/conda-forge/audi-feedstock/pull/17" xlink:title="audi">
<ellipse fill="#31688e" stroke="black" cx="1339.51" cy="-466" rx="30.59" ry="18"/>
<text text-anchor="middle" x="1339.51" y="-462.3" font-family="Times,serif" font-size="14.00" fill="white">audi</text>
</a>
</g>
</g>
<!-- pyaudi -->
<g id="node30" class="node">
<title>pyaudi</title>
<ellipse fill="#fde725" stroke="black" cx="1305.51" cy="-394" rx="40.5" ry="18"/>
<text text-anchor="middle" x="1305.51" y="-390.3" font-family="Times,serif" font-size="14.00">pyaudi</text>
</g>
<!-- audi&#45;&gt;pyaudi -->
<g id="edge23" class="edge">
<title>audi&#45;&gt;pyaudi</title>
<path fill="none" stroke="black" d="M1331.45,-448.41C1327.49,-440.25 1322.61,-430.22 1318.17,-421.07"/>
<polygon fill="black" stroke="black" points="1321.26,-419.42 1313.74,-411.96 1314.96,-422.48 1321.26,-419.42"/>
</g>
<!-- dcgp&#45;python -->
<g id="node31" class="node">
<title>dcgp&#45;python</title>
<ellipse fill="#fde725" stroke="black" cx="1339.51" cy="-322" rx="64.5" ry="18"/>
<text text-anchor="middle" x="1339.51" y="-318.3" font-family="Times,serif" font-size="14.00">dcgp python</text>
</g>
<!-- audi&#45;&gt;dcgp&#45;python -->
<g id="edge24" class="edge">
<title>audi&#45;&gt;dcgp&#45;python</title>
<path fill="none" stroke="black" d="M1345.99,-448.1C1349.58,-437.84 1353.68,-424.36 1355.51,-412 1357.84,-396.17 1357.84,-391.83 1355.51,-376 1354.23,-367.35 1351.84,-358.15 1349.29,-349.89"/>
<polygon fill="black" stroke="black" points="1352.61,-348.78 1346.16,-340.37 1345.96,-350.96 1352.61,-348.78"/>
</g>
<!-- pyaudi&#45;&gt;dcgp&#45;python -->
<g id="edge25" class="edge">
<title>pyaudi&#45;&gt;dcgp&#45;python</title>
<path fill="none" stroke="black" d="M1313.74,-376.05C1317.61,-368.09 1322.31,-358.41 1326.63,-349.51"/>
<polygon fill="black" stroke="black" points="1329.9,-350.8 1331.12,-340.28 1323.6,-347.74 1329.9,-350.8"/>
</g>
<!-- thrift&#45;cpp -->
<g id="node32" class="node">
<title>thrift&#45;cpp</title>
<g id="a_node32"><a xlink:href="https://github.com/conda-forge/thrift-cpp-feedstock/pull/45" xlink:title="thrift cpp">
<ellipse fill="#31688e" stroke="black" cx="512.51" cy="-726" rx="60" ry="18"/>
<text text-anchor="middle" x="512.51" y="-722.3" font-family="Times,serif" font-size="14.00" fill="white">thrift cpp</text>
</a>
</g>
</g>
<!-- thrift&#45;cpp&#45;&gt;arrow&#45;cpp -->
<g id="edge26" class="edge">
<title>thrift&#45;cpp&#45;&gt;arrow&#45;cpp</title>
<path fill="none" stroke="black" d="M502.58,-708.05C497.75,-699.8 491.83,-689.7 486.46,-680.54"/>
<polygon fill="black" stroke="black" points="489.41,-678.65 481.34,-671.79 483.37,-682.19 489.41,-678.65"/>
</g>
<!-- thrift&#45;cpp&#45;&gt;omniscidb&#45;cpu -->
<g id="edge27" class="edge">
<title>thrift&#45;cpp&#45;&gt;omniscidb&#45;cpu</title>
<path fill="none" stroke="black" d="M520.38,-707.98C525.03,-697.67 530.89,-684.19 535.51,-672 543.31,-651.42 550.97,-627.71 556.46,-609.94"/>
<polygon fill="black" stroke="black" points="559.85,-610.82 559.42,-600.23 553.15,-608.77 559.85,-610.82"/>
</g>
<!-- clfft -->
<g id="node34" class="node">
<title>clfft</title>
<ellipse fill="#35b779" stroke="black" cx="1114.51" cy="-986" rx="35.19" ry="18"/>
<text text-anchor="middle" x="1114.51" y="-982.3" font-family="Times,serif" font-size="14.00">clfft</text>
</g>
<!-- clblas&#45;&gt;clfft -->
<!-- clsparse -->
<g id="node35" class="node">
<title>clsparse</title>
<ellipse fill="#35b779" stroke="black" cx="1114.51" cy="-914" rx="50.09" ry="18"/>
<text text-anchor="middle" x="1114.51" y="-910.3" font-family="Times,serif" font-size="14.00">clsparse</text>
</g>
<!-- clfft&#45;&gt;clsparse -->
<!-- pcl -->
<g id="node36" class="node">
<title>pcl</title>
<ellipse fill="#fde725" stroke="black" cx="1114.51" cy="-842" rx="27" ry="18"/>
<text text-anchor="middle" x="1114.51" y="-838.3" font-family="Times,serif" font-size="14.00">pcl</text>
</g>
<!-- clsparse&#45;&gt;pcl -->
<!-- fmipp -->
<g id="node38" class="node">
<title>fmipp</title>
<ellipse fill="#35b779" stroke="black" cx="1114.51" cy="-770" rx="35.19" ry="18"/>
<text text-anchor="middle" x="1114.51" y="-766.3" font-family="Times,serif" font-size="14.00">fmipp</text>
</g>
<!-- pcl&#45;&gt;fmipp -->
<!-- spdlib -->
<g id="node37" class="node">
<title>spdlib</title>
<ellipse fill="#fde725" stroke="black" cx="1126.51" cy="-582" rx="40.5" ry="18"/>
<text text-anchor="middle" x="1126.51" y="-578.3" font-family="Times,serif" font-size="14.00">spdlib</text>
</g>
<!-- multineat -->
<g id="node39" class="node">
<title>multineat</title>
<ellipse fill="#35b779" stroke="black" cx="1114.51" cy="-2254" rx="54.69" ry="18"/>
<text text-anchor="middle" x="1114.51" y="-2250.3" font-family="Times,serif" font-size="14.00">multineat</text>
</g>
<!-- pyodeint -->
<g id="node40" class="node">
<title>pyodeint</title>
<g id="a_node40"><a xlink:href="https://github.com/conda-forge/pyodeint-feedstock/pull/10" xlink:title="pyodeint">
<ellipse fill="#31688e" stroke="black" cx="1114.51" cy="-2182" rx="50.09" ry="18"/>
<text text-anchor="middle" x="1114.51" y="-2178.3" font-family="Times,serif" font-size="14.00" fill="white">pyodeint</text>
</a>
</g>
</g>
<!-- multineat&#45;&gt;pyodeint -->
<!-- ovito -->
<g id="node41" class="node">
<title>ovito</title>
<g id="a_node41"><a xlink:href="https://github.com/conda-forge/ovito-feedstock/pull/24" xlink:title="ovito">
<ellipse fill="#31688e" stroke="black" cx="1114.51" cy="-2110" rx="35.19" ry="18"/>
<text text-anchor="middle" x="1114.51" y="-2106.3" font-family="Times,serif" font-size="14.00" fill="white">ovito</text>
</a>
</g>
</g>
<!-- pyodeint&#45;&gt;ovito -->
<!-- freecad -->
<g id="node42" class="node">
<title>freecad</title>
<g id="a_node42"><a xlink:href="https://github.com/conda-forge/freecad-feedstock/pull/36" xlink:title="freecad">
<ellipse fill="#31688e" stroke="black" cx="1114.51" cy="-2038" rx="45" ry="18"/>
<text text-anchor="middle" x="1114.51" y="-2034.3" font-family="Times,serif" font-size="14.00" fill="white">freecad</text>
</a>
</g>
</g>
<!-- ovito&#45;&gt;freecad -->
<!-- helics -->
<g id="node43" class="node">
<title>helics</title>
<g id="a_node43"><a xlink:href="https://github.com/conda-forge/helics-feedstock/pull/18" xlink:title="helics">
<ellipse fill="#31688e" stroke="black" cx="1114.51" cy="-1966" rx="40.5" ry="18"/>
<text text-anchor="middle" x="1114.51" y="-1962.3" font-family="Times,serif" font-size="14.00" fill="white">helics</text>
</a>
</g>
</g>
<!-- freecad&#45;&gt;helics -->
<!-- nds2&#45;client -->
<g id="node44" class="node">
<title>nds2&#45;client</title>
<g id="a_node44"><a xlink:href="https://github.com/conda-forge/nds2-client-feedstock/pull/10" xlink:title="nds2 client">
<ellipse fill="#31688e" stroke="black" cx="1114.51" cy="-1894" rx="64.5" ry="18"/>
<text text-anchor="middle" x="1114.51" y="-1890.3" font-family="Times,serif" font-size="14.00" fill="white">nds2 client</text>
</a>
</g>
</g>
<!-- helics&#45;&gt;nds2&#45;client -->
<!-- ldas&#45;tools&#45;framecpp -->
<g id="node45" class="node">
<title>ldas&#45;tools&#45;framecpp</title>
<g id="a_node45"><a xlink:href="https://github.com/conda-forge/ldas-tools-framecpp-feedstock/pull/14" xlink:title="ldas tools framecpp">
<ellipse fill="#31688e" stroke="black" cx="1114.51" cy="-1822" rx="103.5" ry="18"/>
<text text-anchor="middle" x="1114.51" y="-1818.3" font-family="Times,serif" font-size="14.00" fill="white">ldas tools framecpp</text>
</a>
</g>
</g>
<!-- nds2&#45;client&#45;&gt;ldas&#45;tools&#45;framecpp -->
<!-- pycoalescence -->
<g id="node46" class="node">
<title>pycoalescence</title>
<ellipse fill="#35b779" stroke="black" cx="1114.51" cy="-1750" rx="74.19" ry="18"/>
<text text-anchor="middle" x="1114.51" y="-1746.3" font-family="Times,serif" font-size="14.00">pycoalescence</text>
</g>
<!-- ldas&#45;tools&#45;framecpp&#45;&gt;pycoalescence -->
<!-- reaktoro -->
<g id="node48" class="node">
<title>reaktoro</title>
<g id="a_node48"><a xlink:href="https://github.com/conda-forge/reaktoro-feedstock/pull/16" xlink:title="reaktoro">
<ellipse fill="#31688e" stroke="black" cx="1114.51" cy="-1678" rx="50.09" ry="18"/>
<text text-anchor="middle" x="1114.51" y="-1674.3" font-family="Times,serif" font-size="14.00" fill="white">reaktoro</text>
</a>
</g>
</g>
<!-- pycoalescence&#45;&gt;reaktoro -->
<!-- gudhi -->
<g id="node47" class="node">
<title>gudhi</title>
<ellipse fill="#fde725" stroke="black" cx="1195.51" cy="-510" rx="35.19" ry="18"/>
<text text-anchor="middle" x="1195.51" y="-506.3" font-family="Times,serif" font-size="14.00">gudhi</text>
</g>
<!-- libint -->
<g id="node49" class="node">
<title>libint</title>
<g id="a_node49"><a xlink:href="https://github.com/conda-forge/libint-feedstock/pull/6" xlink:title="libint">
<ellipse fill="#31688e" stroke="black" cx="1114.51" cy="-1606" rx="40.5" ry="18"/>
<text text-anchor="middle" x="1114.51" y="-1602.3" font-family="Times,serif" font-size="14.00" fill="white">libint</text>
</a>
</g>
</g>
<!-- reaktoro&#45;&gt;libint -->
<!-- stir -->
<g id="node52" class="node">
<title>stir</title>
<ellipse fill="#35b779" stroke="black" cx="1114.51" cy="-1534" rx="30.59" ry="18"/>
<text text-anchor="middle" x="1114.51" y="-1530.3" font-family="Times,serif" font-size="14.00">stir</text>
</g>
<!-- libint&#45;&gt;stir -->
<!-- ldas&#45;tools&#45;ldasgen -->
<g id="node50" class="node">
<title>ldas&#45;tools&#45;ldasgen</title>
<g id="a_node50"><a xlink:href="https://github.com/conda-forge/ldas-tools-ldasgen-feedstock/pull/8" xlink:title="ldas tools ldasgen">
<ellipse fill="#31688e" stroke="black" cx="1114.51" cy="-430" rx="99" ry="18"/>
<text text-anchor="middle" x="1114.51" y="-426.3" font-family="Times,serif" font-size="14.00" fill="white">ldas tools ldasgen</text>
</a>
</g>
</g>
<!-- ldas&#45;tools&#45;diskcacheapi -->
<g id="node51" class="node">
<title>ldas&#45;tools&#45;diskcacheapi</title>
<ellipse fill="#fde725" stroke="black" cx="1114.51" cy="-358" rx="123" ry="18"/>
<text text-anchor="middle" x="1114.51" y="-354.3" font-family="Times,serif" font-size="14.00">ldas tools diskcacheapi</text>
</g>
<!-- ldas&#45;tools&#45;ldasgen&#45;&gt;ldas&#45;tools&#45;diskcacheapi -->
<g id="edge42" class="edge">
<title>ldas&#45;tools&#45;ldasgen&#45;&gt;ldas&#45;tools&#45;diskcacheapi</title>
<path fill="none" stroke="black" d="M1114.51,-411.7C1114.51,-403.98 1114.51,-394.71 1114.51,-386.11"/>
<polygon fill="black" stroke="black" points="1118.01,-386.1 1114.51,-376.1 1111.01,-386.1 1118.01,-386.1"/>
</g>
<!-- cgal&#45;cpp -->
<g id="node53" class="node">
<title>cgal&#45;cpp</title>
<ellipse fill="#fde725" stroke="black" cx="1126.51" cy="-726" rx="50.09" ry="18"/>
<text text-anchor="middle" x="1126.51" y="-722.3" font-family="Times,serif" font-size="14.00">cgal cpp</text>
</g>
<!-- cgal&#45;cpp&#45;&gt;rsgislib -->
<g id="edge44" class="edge">
<title>cgal&#45;cpp&#45;&gt;rsgislib</title>
<path fill="none" stroke="black" d="M1108.81,-709.12C1098.51,-699.87 1085.35,-688.07 1073.96,-677.84"/>
<polygon fill="black" stroke="black" points="1076.19,-675.14 1066.41,-671.06 1071.51,-680.35 1076.19,-675.14"/>
</g>
<!-- cgal&#45;cpp&#45;&gt;spdlib -->
<g id="edge45" class="edge">
<title>cgal&#45;cpp&#45;&gt;spdlib</title>
<path fill="none" stroke="black" d="M1126.51,-707.87C1126.51,-683.67 1126.51,-639.21 1126.51,-610.39"/>
<polygon fill="black" stroke="black" points="1130.01,-610.19 1126.51,-600.19 1123.01,-610.19 1130.01,-610.19"/>
</g>
<!-- cgal&#45;cpp&#45;&gt;gudhi -->
<g id="edge46" class="edge">
<title>cgal&#45;cpp&#45;&gt;gudhi</title>
<path fill="none" stroke="black" d="M1134.41,-707.94C1145.17,-684.18 1164.46,-639.58 1176.51,-600 1182.75,-579.5 1187.71,-555.74 1190.99,-537.93"/>
<polygon fill="black" stroke="black" points="1194.46,-538.41 1192.77,-527.95 1187.57,-537.18 1194.46,-538.41"/>
</g>
<!-- metview -->
<g id="node54" class="node">
<title>metview</title>
<ellipse fill="#fde725" stroke="black" cx="1334.51" cy="-170" rx="45" ry="18"/>
<text text-anchor="middle" x="1334.51" y="-166.3" font-family="Times,serif" font-size="14.00">metview</text>
</g>
<!-- desres&#45;msys -->
<g id="node55" class="node">
<title>desres&#45;msys</title>
<ellipse fill="#35b779" stroke="black" cx="1334.51" cy="-2254" rx="64.5" ry="18"/>
<text text-anchor="middle" x="1334.51" y="-2250.3" font-family="Times,serif" font-size="14.00">desres msys</text>
</g>
<!-- fwlite -->
<g id="node56" class="node">
<title>fwlite</title>
<ellipse fill="#35b779" stroke="black" cx="1334.51" cy="-2182" rx="40.5" ry="18"/>
<text text-anchor="middle" x="1334.51" y="-2178.3" font-family="Times,serif" font-size="14.00">fwlite</text>
</g>
<!-- desres&#45;msys&#45;&gt;fwlite -->
<!-- dealii -->
<g id="node57" class="node">
<title>dealii</title>
<ellipse fill="#35b779" stroke="black" cx="1334.51" cy="-2110" rx="40.5" ry="18"/>
<text text-anchor="middle" x="1334.51" y="-2106.3" font-family="Times,serif" font-size="14.00">dealii</text>
</g>
<!-- fwlite&#45;&gt;dealii -->
<!-- lhcb&#45;simpletools -->
<g id="node58" class="node">
<title>lhcb&#45;simpletools</title>
<ellipse fill="#35b779" stroke="black" cx="1334.51" cy="-2038" rx="89.08" ry="18"/>
<text text-anchor="middle" x="1334.51" y="-2034.3" font-family="Times,serif" font-size="14.00">lhcb simpletools</text>
</g>
<!-- dealii&#45;&gt;lhcb&#45;simpletools -->
<!-- ambertools -->
<g id="node59" class="node">
<title>ambertools</title>
<g id="a_node59"><a xlink:href="https://github.com/conda-forge/ambertools-feedstock/pull/26" xlink:title="ambertools">
<ellipse fill="#31688e" stroke="black" cx="1334.51" cy="-1966" rx="60" ry="18"/>
<text text-anchor="middle" x="1334.51" y="-1962.3" font-family="Times,serif" font-size="14.00" fill="white">ambertools</text>
</a>
</g>
</g>
<!-- lhcb&#45;simpletools&#45;&gt;ambertools -->
<!-- biorbd -->
<g id="node60" class="node">
<title>biorbd</title>
<g id="a_node60"><a xlink:href="https://github.com/conda-forge/biorbd-feedstock/pull/14" xlink:title="biorbd">
<ellipse fill="#31688e" stroke="black" cx="1334.51" cy="-1894" rx="40.5" ry="18"/>
<text text-anchor="middle" x="1334.51" y="-1890.3" font-family="Times,serif" font-size="14.00" fill="white">biorbd</text>
</a>
</g>
</g>
<!-- ambertools&#45;&gt;biorbd -->
<!-- ifcopenshell -->
<g id="node61" class="node">
<title>ifcopenshell</title>
<ellipse fill="#35b779" stroke="black" cx="1334.51" cy="-1822" rx="69.59" ry="18"/>
<text text-anchor="middle" x="1334.51" y="-1818.3" font-family="Times,serif" font-size="14.00">ifcopenshell</text>
</g>
<!-- biorbd&#45;&gt;ifcopenshell -->
<!-- esys&#45;escript -->
<g id="node63" class="node">
<title>esys&#45;escript</title>
<ellipse fill="#35b779" stroke="black" cx="1334.51" cy="-1750" rx="69.59" ry="18"/>
<text text-anchor="middle" x="1334.51" y="-1746.3" font-family="Times,serif" font-size="14.00">esys escript</text>
</g>
<!-- ifcopenshell&#45;&gt;esys&#45;escript -->
<!-- normaliz -->
<g id="node62" class="node">
<title>normaliz</title>
<g id="a_node62"><a xlink:href="https://github.com/conda-forge/normaliz-feedstock/pull/19" xlink:title="normaliz">
<ellipse fill="#31688e" stroke="black" cx="491.51" cy="-278" rx="50.09" ry="18"/>
<text text-anchor="middle" x="491.51" y="-274.3" font-family="Times,serif" font-size="14.00" fill="white">normaliz</text>
</a>
</g>
</g>
<!-- normaliz&#45;&gt;gap -->
<g id="edge53" class="edge">
<title>normaliz&#45;&gt;gap</title>
<path fill="none" stroke="black" d="M491.51,-259.7C491.51,-251.98 491.51,-242.71 491.51,-234.11"/>
<polygon fill="black" stroke="black" points="495.01,-234.1 491.51,-224.1 488.01,-234.1 495.01,-234.1"/>
</g>
<!-- ndarray -->
<g id="node64" class="node">
<title>ndarray</title>
<g id="a_node64"><a xlink:href="https://github.com/conda-forge/ndarray-feedstock/pull/4" xlink:title="ndarray">
<ellipse fill="#31688e" stroke="black" cx="1334.51" cy="-1678" rx="45" ry="18"/>
<text text-anchor="middle" x="1334.51" y="-1674.3" font-family="Times,serif" font-size="14.00" fill="white">ndarray</text>
</a>
</g>
</g>
<!-- esys&#45;escript&#45;&gt;ndarray -->
<!-- dakota -->
<g id="node65" class="node">
<title>dakota</title>
<ellipse fill="#35b779" stroke="black" cx="1334.51" cy="-1606" rx="40.5" ry="18"/>
<text text-anchor="middle" x="1334.51" y="-1602.3" font-family="Times,serif" font-size="14.00">dakota</text>
</g>
<!-- ndarray&#45;&gt;dakota -->
<!-- graph&#45;tool -->
<g id="node66" class="node">
<title>graph&#45;tool</title>
<ellipse fill="#35b779" stroke="black" cx="1334.51" cy="-1534" rx="60" ry="18"/>
<text text-anchor="middle" x="1334.51" y="-1530.3" font-family="Times,serif" font-size="14.00">graph tool</text>
</g>
<!-- dakota&#45;&gt;graph&#45;tool -->
<!-- hpp&#45;fcl -->
<g id="node67" class="node">
<title>hpp&#45;fcl</title>
<g id="a_node67"><a xlink:href="https://github.com/conda-forge/hpp-fcl-feedstock/pull/11" xlink:title="hpp fcl">
<ellipse fill="#31688e" stroke="black" cx="1114.51" cy="-90" rx="45" ry="18"/>
<text text-anchor="middle" x="1114.51" y="-86.3" font-family="Times,serif" font-size="14.00" fill="white">hpp fcl</text>
</a>
</g>
</g>
<!-- pinocchio -->
<g id="node68" class="node">
<title>pinocchio</title>
<ellipse fill="#fde725" stroke="black" cx="1114.51" cy="-18" rx="54.69" ry="18"/>
<text text-anchor="middle" x="1114.51" y="-14.3" font-family="Times,serif" font-size="14.00">pinocchio</text>
</g>
<!-- hpp&#45;fcl&#45;&gt;pinocchio -->
<g id="edge58" class="edge">
<title>hpp&#45;fcl&#45;&gt;pinocchio</title>
<path fill="none" stroke="black" d="M1114.51,-71.7C1114.51,-63.98 1114.51,-54.71 1114.51,-46.11"/>
<polygon fill="black" stroke="black" points="1118.01,-46.1 1114.51,-36.1 1111.01,-46.1 1118.01,-46.1"/>
</g>
<!-- xmsinterp -->
<g id="node69" class="node">
<title>xmsinterp</title>
<g id="a_node69"><a xlink:href="https://github.com/conda-forge/xmsinterp-feedstock/pull/6" xlink:title="xmsinterp">
<ellipse fill="#31688e" stroke="black" cx="494.51" cy="-466" rx="54.69" ry="18"/>
<text text-anchor="middle" x="494.51" y="-462.3" font-family="Times,serif" font-size="14.00" fill="white">xmsinterp</text>
</a>
</g>
</g>
<!-- xmsstamper -->
<g id="node70" class="node">
<title>xmsstamper</title>
<ellipse fill="#fde725" stroke="black" cx="450.51" cy="-394" rx="60" ry="18"/>
<text text-anchor="middle" x="450.51" y="-390.3" font-family="Times,serif" font-size="14.00">xmsstamper</text>
</g>
<!-- xmsinterp&#45;&gt;xmsstamper -->
<g id="edge59" class="edge">
<title>xmsinterp&#45;&gt;xmsstamper</title>
<path fill="none" stroke="black" d="M483.86,-448.05C478.67,-439.8 472.32,-429.7 466.56,-420.54"/>
<polygon fill="black" stroke="black" points="469.35,-418.39 461.06,-411.79 463.42,-422.12 469.35,-418.39"/>
</g>
<!-- xmsmesher -->
<g id="node71" class="node">
<title>xmsmesher</title>
<ellipse fill="#fde725" stroke="black" cx="538.51" cy="-322" rx="54.69" ry="18"/>
<text text-anchor="middle" x="538.51" y="-318.3" font-family="Times,serif" font-size="14.00">xmsmesher</text>
</g>
<!-- xmsinterp&#45;&gt;xmsmesher -->
<g id="edge60" class="edge">
<title>xmsinterp&#45;&gt;xmsmesher</title>
<path fill="none" stroke="black" d="M503.64,-448.23C508.9,-438 515.28,-424.53 519.51,-412 526.36,-391.7 531.28,-367.93 534.4,-350.06"/>
<polygon fill="black" stroke="black" points="537.88,-350.48 536.07,-340.04 530.97,-349.33 537.88,-350.48"/>
</g>
<!-- topologytoolkit -->
<g id="node72" class="node">
<title>topologytoolkit</title>
<g id="a_node72"><a xlink:href="https://github.com/conda-forge/topologytoolkit-feedstock/pull/5" xlink:title="topologytoolkit">
<ellipse fill="#31688e" stroke="black" cx="491.51" cy="-1490" rx="84" ry="18"/>
<text text-anchor="middle" x="491.51" y="-1486.3" font-family="Times,serif" font-size="14.00" fill="white">topologytoolkit</text>
</a>
</g>
</g>
<!-- ledger -->
<g id="node73" class="node">
<title>ledger</title>
<g id="a_node73"><a xlink:href="https://github.com/conda-forge/ledger-feedstock/pull/2" xlink:title="ledger">
<ellipse fill="#31688e" stroke="black" cx="491.51" cy="-1418" rx="40.5" ry="18"/>
<text text-anchor="middle" x="491.51" y="-1414.3" font-family="Times,serif" font-size="14.00" fill="white">ledger</text>
</a>
</g>
</g>
<!-- topologytoolkit&#45;&gt;ledger -->
<!-- pyinterp -->
<g id="node74" class="node">
<title>pyinterp</title>
<g id="a_node74"><a xlink:href="https://github.com/conda-forge/pyinterp-feedstock/pull/16" xlink:title="pyinterp">
<ellipse fill="#31688e" stroke="black" cx="491.51" cy="-1346" rx="50.09" ry="18"/>
<text text-anchor="middle" x="491.51" y="-1342.3" font-family="Times,serif" font-size="14.00" fill="white">pyinterp</text>
</a>
</g>
</g>
<!-- ledger&#45;&gt;pyinterp -->
<!-- zmesh -->
<g id="node75" class="node">
<title>zmesh</title>
<g id="a_node75"><a xlink:href="https://github.com/conda-forge/zmesh-feedstock/pull/2" xlink:title="zmesh">
<ellipse fill="#31688e" stroke="black" cx="491.51" cy="-1274" rx="35.19" ry="18"/>
<text text-anchor="middle" x="491.51" y="-1270.3" font-family="Times,serif" font-size="14.00" fill="white">zmesh</text>
</a>
</g>
</g>
<!-- pyinterp&#45;&gt;zmesh -->
<!-- atomicrex -->
<g id="node76" class="node">
<title>atomicrex</title>
<ellipse fill="#35b779" stroke="black" cx="491.51" cy="-1202" rx="54.69" ry="18"/>
<text text-anchor="middle" x="491.51" y="-1198.3" font-family="Times,serif" font-size="14.00">atomicrex</text>
</g>
<!-- zmesh&#45;&gt;atomicrex -->
<!-- gazebo -->
<g id="node77" class="node">
<title>gazebo</title>
<ellipse fill="#35b779" stroke="black" cx="491.51" cy="-1130" rx="40.5" ry="18"/>
<text text-anchor="middle" x="491.51" y="-1126.3" font-family="Times,serif" font-size="14.00">gazebo</text>
</g>
<!-- atomicrex&#45;&gt;gazebo -->
<!-- fastpca -->
<g id="node87" class="node">
<title>fastpca</title>
<ellipse fill="#35b779" stroke="black" cx="491.51" cy="-1058" rx="45" ry="18"/>
<text text-anchor="middle" x="491.51" y="-1054.3" font-family="Times,serif" font-size="14.00">fastpca</text>
</g>
<!-- gazebo&#45;&gt;fastpca -->
<!-- ros&#45;rostime -->
<g id="node78" class="node">
<title>ros&#45;rostime</title>
<ellipse fill="#fde725" stroke="black" cx="715.51" cy="-2038" rx="64.5" ry="18"/>
<text text-anchor="middle" x="715.51" y="-2034.3" font-family="Times,serif" font-size="14.00">ros rostime</text>
</g>
<!-- ros&#45;rosconsole -->
<g id="node79" class="node">
<title>ros&#45;rosconsole</title>
<ellipse fill="#fde725" stroke="black" cx="296.51" cy="-1966" rx="79.5" ry="18"/>
<text text-anchor="middle" x="296.51" y="-1962.3" font-family="Times,serif" font-size="14.00">ros rosconsole</text>
</g>
<!-- ros&#45;rostime&#45;&gt;ros&#45;rosconsole -->
<g id="edge66" class="edge">
<title>ros&#45;rostime&#45;&gt;ros&#45;rosconsole</title>
<path fill="none" stroke="black" d="M661.59,-2027.99C586.83,-2015.5 451.51,-1992.89 368.27,-1978.99"/>
<polygon fill="black" stroke="black" points="368.83,-1975.53 358.39,-1977.34 367.67,-1982.44 368.83,-1975.53"/>
</g>
<!-- ros&#45;rosbag&#45;storage -->
<g id="node80" class="node">
<title>ros&#45;rosbag&#45;storage</title>
<ellipse fill="#fde725" stroke="black" cx="554.51" cy="-1822" rx="99" ry="18"/>
<text text-anchor="middle" x="554.51" y="-1818.3" font-family="Times,serif" font-size="14.00">ros rosbag storage</text>
</g>
<!-- ros&#45;rostime&#45;&gt;ros&#45;rosbag&#45;storage -->
<g id="edge67" class="edge">
<title>ros&#45;rostime&#45;&gt;ros&#45;rosbag&#45;storage</title>
<path fill="none" stroke="black" d="M758.55,-2024.53C835.51,-2000.18 983.45,-1942.81 925.51,-1876 892.11,-1837.49 760.58,-1826.27 663.58,-1823.35"/>
<polygon fill="black" stroke="black" points="663.51,-1819.85 653.42,-1823.07 663.32,-1826.85 663.51,-1819.85"/>
</g>
<!-- ros&#45;rosbag -->
<g id="node81" class="node">
<title>ros&#45;rosbag</title>
<ellipse fill="#fde725" stroke="black" cx="554.51" cy="-1750" rx="60" ry="18"/>
<text text-anchor="middle" x="554.51" y="-1746.3" font-family="Times,serif" font-size="14.00">ros rosbag</text>
</g>
<!-- ros&#45;rostime&#45;&gt;ros&#45;rosbag -->
<g id="edge68" class="edge">
<title>ros&#45;rostime&#45;&gt;ros&#45;rosbag</title>
<path fill="none" stroke="black" d="M776.23,-2031.66C815.89,-2025.52 866.9,-2012.33 903.51,-1984 944.23,-1952.47 975.88,-1917.59 945.51,-1876 906.15,-1822.09 715.05,-1780.15 615.34,-1761.52"/>
<polygon fill="black" stroke="black" points="615.87,-1758.06 605.4,-1759.69 614.6,-1764.95 615.87,-1758.06"/>
</g>
<!-- ros&#45;actionlib -->
<g id="node82" class="node">
<title>ros&#45;actionlib</title>
<ellipse fill="#fde725" stroke="black" cx="335.51" cy="-1894" rx="74.19" ry="18"/>
<text text-anchor="middle" x="335.51" y="-1890.3" font-family="Times,serif" font-size="14.00">ros actionlib</text>
</g>
<!-- ros&#45;rostime&#45;&gt;ros&#45;actionlib -->
<g id="edge69" class="edge">
<title>ros&#45;rostime&#45;&gt;ros&#45;actionlib</title>
<path fill="none" stroke="black" d="M661.18,-2028.04C616.1,-2019.63 550.82,-2005.14 496.51,-1984 449.91,-1965.86 400.1,-1936.63 368.43,-1916.65"/>
<polygon fill="black" stroke="black" points="369.91,-1913.44 359.6,-1911.02 366.15,-1919.35 369.91,-1913.44"/>
</g>
<!-- ros&#45;rosconsole&#45;&gt;ros&#45;rosbag&#45;storage -->
<g id="edge70" class="edge">
<title>ros&#45;rosconsole&#45;&gt;ros&#45;rosbag&#45;storage</title>
<path fill="none" stroke="black" d="M277.54,-1948.2C258.36,-1929.2 234,-1898.04 252.51,-1876 277.45,-1846.3 371.83,-1833.24 448.53,-1827.5"/>
<polygon fill="black" stroke="black" points="449.02,-1830.97 458.75,-1826.77 448.52,-1823.99 449.02,-1830.97"/>
</g>
<!-- ros&#45;rosconsole&#45;&gt;ros&#45;rosbag -->
<g id="edge71" class="edge">
<title>ros&#45;rosconsole&#45;&gt;ros&#45;rosbag</title>
<path fill="none" stroke="black" d="M218.26,-1962.55C128.63,-1956.83 0,-1937.95 48.51,-1876 102.43,-1807.14 363.45,-1771 488.05,-1757.43"/>
<polygon fill="black" stroke="black" points="488.66,-1760.88 498.23,-1756.34 487.91,-1753.92 488.66,-1760.88"/>
</g>
<!-- ros&#45;rosconsole&#45;&gt;ros&#45;actionlib -->
<g id="edge72" class="edge">
<title>ros&#45;rosconsole&#45;&gt;ros&#45;actionlib</title>
<path fill="none" stroke="black" d="M305.95,-1948.05C310.43,-1940.01 315.89,-1930.2 320.9,-1921.23"/>
<polygon fill="black" stroke="black" points="324.07,-1922.71 325.88,-1912.28 317.96,-1919.31 324.07,-1922.71"/>
</g>
<!-- ros&#45;pluginlib -->
<g id="node83" class="node">
<title>ros&#45;pluginlib</title>
<ellipse fill="#fde725" stroke="black" cx="131.51" cy="-1894" rx="74.19" ry="18"/>
<text text-anchor="middle" x="131.51" y="-1890.3" font-family="Times,serif" font-size="14.00">ros pluginlib</text>
</g>
<!-- ros&#45;rosconsole&#45;&gt;ros&#45;pluginlib -->
<g id="edge73" class="edge">
<title>ros&#45;rosconsole&#45;&gt;ros&#45;pluginlib</title>
<path fill="none" stroke="black" d="M260.7,-1949.81C235.89,-1939.28 202.66,-1925.19 176.12,-1913.93"/>
<polygon fill="black" stroke="black" points="177.25,-1910.6 166.67,-1909.92 174.51,-1917.05 177.25,-1910.6"/>
</g>
<!-- ros&#45;message&#45;filters -->
<g id="node84" class="node">
<title>ros&#45;message&#45;filters</title>
<ellipse fill="#fde725" stroke="black" cx="531.51" cy="-1894" rx="103.5" ry="18"/>
<text text-anchor="middle" x="531.51" y="-1890.3" font-family="Times,serif" font-size="14.00">ros message filters</text>
</g>
<!-- ros&#45;rosconsole&#45;&gt;ros&#45;message&#45;filters -->
<g id="edge74" class="edge">
<title>ros&#45;rosconsole&#45;&gt;ros&#45;message&#45;filters</title>
<path fill="none" stroke="black" d="M342.66,-1951.25C379.7,-1940.22 431.98,-1924.65 472.14,-1912.68"/>
<polygon fill="black" stroke="black" points="473.23,-1916.01 481.81,-1909.8 471.23,-1909.3 473.23,-1916.01"/>
</g>
<!-- ros&#45;rosbag&#45;storage&#45;&gt;ros&#45;rosbag -->
<g id="edge75" class="edge">
<title>ros&#45;rosbag&#45;storage&#45;&gt;ros&#45;rosbag</title>
<path fill="none" stroke="black" d="M554.51,-1803.7C554.51,-1795.98 554.51,-1786.71 554.51,-1778.11"/>
<polygon fill="black" stroke="black" points="558.01,-1778.1 554.51,-1768.1 551.01,-1778.1 558.01,-1778.1"/>
</g>
<!-- ros&#45;pluginlib&#45;&gt;ros&#45;rosbag&#45;storage -->
<g id="edge76" class="edge">
<title>ros&#45;pluginlib&#45;&gt;ros&#45;rosbag&#45;storage</title>
<path fill="none" stroke="black" d="M186.85,-1882.01C197.67,-1879.95 208.93,-1877.86 219.51,-1876 304.73,-1861.03 402.51,-1845.78 470.33,-1835.51"/>
<polygon fill="black" stroke="black" points="471.17,-1838.92 480.54,-1833.97 470.13,-1832 471.17,-1838.92"/>
</g>
<!-- ros&#45;rostest -->
<g id="node85" class="node">
<title>ros&#45;rostest</title>
<g id="a_node85"><a xlink:href="https://github.com/conda-forge/ros-rostest-feedstock/pull/3" xlink:title="ros rostest">
<ellipse fill="#31688e" stroke="black" cx="569.51" cy="-1966" rx="64.5" ry="18"/>
<text text-anchor="middle" x="569.51" y="-1962.3" font-family="Times,serif" font-size="14.00" fill="white">ros rostest</text>
</a>
</g>
</g>
<!-- ros&#45;rostest&#45;&gt;ros&#45;rosbag&#45;storage -->
<g id="edge77" class="edge">
<title>ros&#45;rostest&#45;&gt;ros&#45;rosbag&#45;storage</title>
<path fill="none" stroke="black" d="M634.03,-1964.48C722.34,-1962.25 873.89,-1952.45 908.51,-1912 918.91,-1899.84 918.95,-1888.12 908.51,-1876 877.28,-1839.75 755.55,-1827.93 663.49,-1824.27"/>
<polygon fill="black" stroke="black" points="663.39,-1820.77 653.26,-1823.89 663.13,-1827.76 663.39,-1820.77"/>
</g>
<!-- ros&#45;rostest&#45;&gt;ros&#45;actionlib -->
<g id="edge78" class="edge">
<title>ros&#45;rostest&#45;&gt;ros&#45;actionlib</title>
<path fill="none" stroke="black" d="M527.13,-1952.32C488.72,-1940.83 431.9,-1923.84 390.1,-1911.33"/>
<polygon fill="black" stroke="black" points="390.94,-1907.93 380.36,-1908.42 388.93,-1914.64 390.94,-1907.93"/>
</g>
<!-- ros&#45;rostest&#45;&gt;ros&#45;message&#45;filters -->
<g id="edge79" class="edge">
<title>ros&#45;rostest&#45;&gt;ros&#45;message&#45;filters</title>
<path fill="none" stroke="black" d="M560.31,-1948.05C555.94,-1940.01 550.62,-1930.2 545.74,-1921.23"/>
<polygon fill="black" stroke="black" points="548.73,-1919.39 540.89,-1912.28 542.58,-1922.73 548.73,-1919.39"/>
</g>
<!-- ros&#45;dynamic&#45;reconfigure -->
<g id="node86" class="node">
<title>ros&#45;dynamic&#45;reconfigure</title>
<ellipse fill="#fde725" stroke="black" cx="776.51" cy="-1894" rx="123" ry="18"/>
<text text-anchor="middle" x="776.51" y="-1890.3" font-family="Times,serif" font-size="14.00">ros dynamic reconfigure</text>
</g>
<!-- ros&#45;rostest&#45;&gt;ros&#45;dynamic&#45;reconfigure -->
<g id="edge80" class="edge">
<title>ros&#45;rostest&#45;&gt;ros&#45;dynamic&#45;reconfigure</title>
<path fill="none" stroke="black" d="M608.93,-1951.67C640.45,-1941.01 685.05,-1925.93 720.31,-1914"/>
<polygon fill="black" stroke="black" points="721.64,-1917.25 729.99,-1910.73 719.4,-1910.62 721.64,-1917.25"/>
</g>
<!-- ecflow -->
<g id="node90" class="node">
<title>ecflow</title>
<ellipse fill="#35b779" stroke="black" cx="491.51" cy="-986" rx="40.5" ry="18"/>
<text text-anchor="middle" x="491.51" y="-982.3" font-family="Times,serif" font-size="14.00">ecflow</text>
</g>
<!-- fastpca&#45;&gt;ecflow -->
<!-- volk -->
<g id="node88" class="node">
<title>volk</title>
<ellipse fill="#fde725" stroke="black" cx="1334.51" cy="-90" rx="30.59" ry="18"/>
<text text-anchor="middle" x="1334.51" y="-86.3" font-family="Times,serif" font-size="14.00">volk</text>
</g>
<!-- gnuradio -->
<g id="node89" class="node">
<title>gnuradio</title>
<ellipse fill="#fde725" stroke="black" cx="1334.51" cy="-18" rx="50.09" ry="18"/>
<text text-anchor="middle" x="1334.51" y="-14.3" font-family="Times,serif" font-size="14.00">gnuradio</text>
</g>
<!-- volk&#45;&gt;gnuradio -->
<g id="edge82" class="edge">
<title>volk&#45;&gt;gnuradio</title>
<path fill="none" stroke="black" d="M1334.51,-71.7C1334.51,-63.98 1334.51,-54.71 1334.51,-46.11"/>
<polygon fill="black" stroke="black" points="1338.01,-46.1 1334.51,-36.1 1331.01,-46.1 1338.01,-46.1"/>
</g>
<!-- prismatic_split -->
<g id="node92" class="node">
<title>prismatic_split</title>
<g id="a_node92"><a xlink:href="https://github.com/conda-forge/prismatic_split-feedstock/pull/4" xlink:title="prismatic_split">
<ellipse fill="#31688e" stroke="black" cx="491.51" cy="-914" rx="84" ry="18"/>
<text text-anchor="middle" x="491.51" y="-910.3" font-family="Times,serif" font-size="14.00" fill="white">prismatic_split</text>
</a>
</g>
</g>
<!-- ecflow&#45;&gt;prismatic_split -->
<!-- magics&#45;metview -->
<g id="node91" class="node">
<title>magics&#45;metview</title>
<g id="a_node91"><a xlink:href="https://github.com/conda-forge/magics-metview-feedstock/pull/7" xlink:title="magics metview">
<ellipse fill="#31688e" stroke="black" cx="1334.51" cy="-242" rx="79.5" ry="18"/>
<text text-anchor="middle" x="1334.51" y="-238.3" font-family="Times,serif" font-size="14.00" fill="white">magics metview</text>
</a>
</g>
</g>
<!-- magics&#45;metview&#45;&gt;metview -->
<g id="edge84" class="edge">
<title>magics&#45;metview&#45;&gt;metview</title>
<path fill="none" stroke="black" d="M1334.51,-223.7C1334.51,-215.98 1334.51,-206.71 1334.51,-198.11"/>
<polygon fill="black" stroke="black" points="1338.01,-198.1 1334.51,-188.1 1331.01,-198.1 1338.01,-198.1"/>
</g>
<!-- ecell4_base -->
<g id="node93" class="node">
<title>ecell4_base</title>
<g id="a_node93"><a xlink:href="https://github.com/conda-forge/ecell4_base-feedstock/pull/4" xlink:title="ecell4_base">
<ellipse fill="#31688e" stroke="black" cx="491.51" cy="-842" rx="64.5" ry="18"/>
<text text-anchor="middle" x="491.51" y="-838.3" font-family="Times,serif" font-size="14.00" fill="white">ecell4_base</text>
</a>
</g>
</g>
<!-- prismatic_split&#45;&gt;ecell4_base -->
<!-- odil -->
<g id="node94" class="node">
<title>odil</title>
<g id="a_node94"><a xlink:href="https://github.com/conda-forge/odil-feedstock/pull/3" xlink:title="odil">
<ellipse fill="#31688e" stroke="black" cx="491.51" cy="-770" rx="30.59" ry="18"/>
<text text-anchor="middle" x="491.51" y="-766.3" font-family="Times,serif" font-size="14.00" fill="white">odil</text>
</a>
</g>
</g>
<!-- ecell4_base&#45;&gt;odil -->
<!-- standardese -->
<g id="node95" class="node">
<title>standardese</title>
<ellipse fill="#35b779" stroke="black" cx="1334.51" cy="-726" rx="64.5" ry="18"/>
<text text-anchor="middle" x="1334.51" y="-722.3" font-family="Times,serif" font-size="14.00">standardese</text>
</g>
<!-- parsplice -->
<g id="node96" class="node">
<title>parsplice</title>
<ellipse fill="#35b779" stroke="black" cx="1334.51" cy="-654" rx="54.69" ry="18"/>
<text text-anchor="middle" x="1334.51" y="-650.3" font-family="Times,serif" font-size="14.00">parsplice</text>
</g>
<!-- standardese&#45;&gt;parsplice -->
<!-- metview&#45;batch -->
<g id="node97" class="node">
<title>metview&#45;batch</title>
<ellipse fill="#35b779" stroke="black" cx="1334.51" cy="-582" rx="74.19" ry="18"/>
<text text-anchor="middle" x="1334.51" y="-578.3" font-family="Times,serif" font-size="14.00">metview batch</text>
</g>
<!-- parsplice&#45;&gt;metview&#45;batch -->
<!-- alm -->
<g id="node98" class="node">
<title>alm</title>
<ellipse fill="#35b779" stroke="black" cx="1334.51" cy="-510" rx="27" ry="18"/>
<text text-anchor="middle" x="1334.51" y="-506.3" font-family="Times,serif" font-size="14.00">alm</text>
</g>
<!-- metview&#45;batch&#45;&gt;alm -->
</g>
</svg>
