<?xml version="1.0" encoding="UTF-8" standalone="no"?>
<!DOCTYPE svg PUBLIC "-//W3C//DTD SVG 1.1//EN"
 "http://www.w3.org/Graphics/SVG/1.1/DTD/svg11.dtd">
<!-- Generated by graphviz version 2.42.3 (20191010.1750)
 -->
<!-- Title: %3 Pages: 1 -->
<svg width="904pt" height="404pt"
 viewBox="0.00 0.00 904.00 404.00" xmlns="http://www.w3.org/2000/svg" xmlns:xlink="http://www.w3.org/1999/xlink">
<g id="graph0" class="graph" transform="scale(1 1) rotate(0) translate(4 400)">
<title>%3</title>
<polygon fill="white" stroke="transparent" points="-4,4 -4,-400 900,-400 900,4 -4,4"/>
<!-- avrocpp -->
<g id="node1" class="node">
<title>avrocpp</title>
<g id="a_node1"><a xlink:href="https://github.com/conda-forge/avrocpp-feedstock/pull/8" xlink:title="avrocpp">
<ellipse fill="#31688e" stroke="black" cx="45" cy="-90" rx="45" ry="18"/>
<text text-anchor="middle" x="45" y="-86.3" font-family="Times,serif" font-size="14.00" fill="white">avrocpp</text>
</a>
</g>
</g>
<!-- conda&#45;forge&#45;pinning -->
<g id="node2" class="node">
<title>conda&#45;forge&#45;pinning</title>
<ellipse fill="none" stroke="black" cx="428" cy="-18" rx="103.5" ry="18"/>
<text text-anchor="middle" x="428" y="-14.3" font-family="Times,serif" font-size="14.00">conda&#45;forge&#45;pinning</text>
</g>
<!-- avrocpp&#45;&gt;conda&#45;forge&#45;pinning -->
<g id="edge1" class="edge">
<title>avrocpp&#45;&gt;conda&#45;forge&#45;pinning</title>
<path fill="none" stroke="black" d="M79.45,-78.33C87.46,-76.06 95.99,-73.8 104,-72 182.12,-54.42 272.07,-40.17 337.34,-30.9"/>
<polygon fill="black" stroke="black" points="338.19,-34.31 347.6,-29.45 337.21,-27.38 338.19,-34.31"/>
</g>
<!-- caffe -->
<g id="node3" class="node">
<title>caffe</title>
<g id="a_node3"><a xlink:href="https://github.com/conda-forge/caffe-feedstock/pull/57" xlink:title="caffe">
<ellipse fill="#31688e" stroke="black" cx="105" cy="-162" rx="35.19" ry="18"/>
<text text-anchor="middle" x="105" y="-158.3" font-family="Times,serif" font-size="14.00" fill="white">caffe</text>
</a>
</g>
</g>
<!-- caffe&#45;&gt;conda&#45;forge&#45;pinning -->
<g id="edge2" class="edge">
<title>caffe&#45;&gt;conda&#45;forge&#45;pinning</title>
<path fill="none" stroke="black" d="M109.55,-143.95C115.94,-123.5 129.62,-89.75 154,-72 181.9,-51.69 263.57,-37.57 330.55,-29.05"/>
<polygon fill="black" stroke="black" points="331.25,-32.49 340.74,-27.78 330.38,-25.54 331.25,-32.49"/>
</g>
<!-- gap -->
<g id="node4" class="node">
<title>gap</title>
<g id="a_node4"><a xlink:href="https://github.com/conda-forge/gap-feedstock" xlink:title="gap">
<ellipse fill="#fde725" stroke="black" cx="223" cy="-162" rx="27" ry="18"/>
<text text-anchor="middle" x="223" y="-158.3" font-family="Times,serif" font-size="14.00">gap</text>
</a>
</g>
</g>
<!-- gap&#45;&gt;conda&#45;forge&#45;pinning -->
<g id="edge3" class="edge">
<title>gap&#45;&gt;conda&#45;forge&#45;pinning</title>
<path fill="none" stroke="black" d="M217.92,-144.25C213.12,-124.71 208.8,-92.49 225,-72 239.63,-53.49 291.43,-40.15 339.04,-31.47"/>
<polygon fill="black" stroke="black" points="339.88,-34.88 349.12,-29.69 338.66,-27.99 339.88,-34.88"/>
</g>
<!-- sagelib -->
<g id="node5" class="node">
<title>sagelib</title>
<g id="a_node5"><a xlink:href="https://github.com/conda-forge/sagelib-feedstock" xlink:title="sagelib">
<ellipse fill="#fde725" stroke="black" cx="279" cy="-90" rx="45" ry="18"/>
<text text-anchor="middle" x="279" y="-86.3" font-family="Times,serif" font-size="14.00">sagelib</text>
</a>
</g>
</g>
<!-- gap&#45;&gt;sagelib -->
<g id="edge4" class="edge">
<title>gap&#45;&gt;sagelib</title>
<path fill="none" stroke="black" d="M235.15,-145.81C242.19,-137.02 251.22,-125.73 259.25,-115.69"/>
<polygon fill="black" stroke="black" points="262.18,-117.62 265.7,-107.63 256.72,-113.25 262.18,-117.62"/>
</g>
<!-- sagelib&#45;&gt;conda&#45;forge&#45;pinning -->
<g id="edge5" class="edge">
<title>sagelib&#45;&gt;conda&#45;forge&#45;pinning</title>
<path fill="none" stroke="black" d="M307.03,-75.83C328.85,-65.58 359.54,-51.16 384.55,-39.41"/>
<polygon fill="black" stroke="black" points="386.26,-42.48 393.82,-35.06 383.28,-36.14 386.26,-42.48"/>
</g>
<!-- libcmaes -->
<g id="node6" class="node">
<title>libcmaes</title>
<g id="a_node6"><a xlink:href="https://github.com/conda-forge/libcmaes-feedstock/pull/12" xlink:title="libcmaes">
<ellipse fill="#31688e" stroke="black" cx="312" cy="-234" rx="50.09" ry="18"/>
<text text-anchor="middle" x="312" y="-230.3" font-family="Times,serif" font-size="14.00" fill="white">libcmaes</text>
</a>
</g>
</g>
<!-- libcmaes&#45;&gt;conda&#45;forge&#45;pinning -->
<g id="edge6" class="edge">
<title>libcmaes&#45;&gt;conda&#45;forge&#45;pinning</title>
<path fill="none" stroke="black" d="M316.35,-215.96C324.67,-185.38 344.82,-119.89 376,-72 382.8,-61.56 391.88,-51.44 400.55,-42.9"/>
<polygon fill="black" stroke="black" points="403.15,-45.25 407.99,-35.82 398.33,-40.17 403.15,-45.25"/>
</g>
<!-- pyne -->
<g id="node7" class="node">
<title>pyne</title>
<g id="a_node7"><a xlink:href="https://github.com/conda-forge/pyne-feedstock/pull/39" xlink:title="pyne">
<ellipse fill="#31688e" stroke="black" cx="369" cy="-306" rx="30.59" ry="18"/>
<text text-anchor="middle" x="369" y="-302.3" font-family="Times,serif" font-size="14.00" fill="white">pyne</text>
</a>
</g>
</g>
<!-- pyne&#45;&gt;conda&#45;forge&#45;pinning -->
<g id="edge7" class="edge">
<title>pyne&#45;&gt;conda&#45;forge&#45;pinning</title>
<path fill="none" stroke="black" d="M371.88,-287.96C378.51,-249.36 395.66,-152.33 414,-72 415.94,-63.52 418.28,-54.34 420.48,-46.04"/>
<polygon fill="black" stroke="black" points="423.93,-46.68 423.17,-36.11 417.18,-44.85 423.93,-46.68"/>
</g>
<!-- zwatershed -->
<g id="node8" class="node">
<title>zwatershed</title>
<g id="a_node8"><a xlink:href="https://github.com/conda-forge/zwatershed-feedstock/pull/15" xlink:title="zwatershed">
<ellipse fill="#31688e" stroke="black" cx="428" cy="-378" rx="60" ry="18"/>
<text text-anchor="middle" x="428" y="-374.3" font-family="Times,serif" font-size="14.00" fill="white">zwatershed</text>
</a>
</g>
</g>
<!-- zwatershed&#45;&gt;conda&#45;forge&#45;pinning -->
<g id="edge8" class="edge">
<title>zwatershed&#45;&gt;conda&#45;forge&#45;pinning</title>
<path fill="none" stroke="black" d="M428,-359.95C428,-333.29 428,-280.11 428,-235 428,-235 428,-235 428,-161 428,-121 428,-74.65 428,-46.08"/>
<polygon fill="black" stroke="black" points="431.5,-46.05 428,-36.05 424.5,-46.05 431.5,-46.05"/>
</g>
<!-- alps -->
<g id="node9" class="node">
<title>alps</title>
<g id="a_node9"><a xlink:href="https://github.com/conda-forge/alps-feedstock/pull/30" xlink:title="alps">
<ellipse fill="#31688e" stroke="black" cx="487" cy="-90" rx="30.59" ry="18"/>
<text text-anchor="middle" x="487" y="-86.3" font-family="Times,serif" font-size="14.00" fill="white">alps</text>
</a>
</g>
</g>
<!-- alps&#45;&gt;conda&#45;forge&#45;pinning -->
<g id="edge9" class="edge">
<title>alps&#45;&gt;conda&#45;forge&#45;pinning</title>
<path fill="none" stroke="black" d="M473.91,-73.46C466.59,-64.78 457.29,-53.75 448.98,-43.89"/>
<polygon fill="black" stroke="black" points="451.42,-41.35 442.3,-35.96 446.06,-45.86 451.42,-41.35"/>
</g>
<!-- clfft -->
<g id="node10" class="node">
<title>clfft</title>
<g id="a_node10"><a xlink:href="https://github.com/conda-forge/clfft-feedstock/pull/10" xlink:title="clfft">
<ellipse fill="#31688e" stroke="black" cx="521" cy="-162" rx="35.19" ry="18"/>
<text text-anchor="middle" x="521" y="-158.3" font-family="Times,serif" font-size="14.00" fill="white">clfft</text>
</a>
</g>
</g>
<!-- clfft&#45;&gt;conda&#45;forge&#45;pinning -->
<g id="edge10" class="edge">
<title>clfft&#45;&gt;conda&#45;forge&#45;pinning</title>
<path fill="none" stroke="black" d="M527.49,-144.25C533.69,-125.3 540.29,-94.19 527,-72 518.04,-57.04 503.26,-46.06 487.81,-38.11"/>
<polygon fill="black" stroke="black" points="489.21,-34.91 478.68,-33.78 486.21,-41.23 489.21,-34.91"/>
</g>
<!-- helics -->
<g id="node11" class="node">
<title>helics</title>
<g id="a_node11"><a xlink:href="https://github.com/conda-forge/helics-feedstock/pull/18" xlink:title="helics">
<ellipse fill="#31688e" stroke="black" cx="584" cy="-234" rx="40.5" ry="18"/>
<text text-anchor="middle" x="584" y="-230.3" font-family="Times,serif" font-size="14.00" fill="white">helics</text>
</a>
</g>
</g>
<!-- helics&#45;&gt;conda&#45;forge&#45;pinning -->
<g id="edge11" class="edge">
<title>helics&#45;&gt;conda&#45;forge&#45;pinning</title>
<path fill="none" stroke="black" d="M584.64,-215.71C584.9,-183.53 580.92,-113.94 545,-72 531.54,-56.28 512.46,-44.99 493.6,-36.99"/>
<polygon fill="black" stroke="black" points="494.68,-33.65 484.09,-33.21 492.09,-40.15 494.68,-33.65"/>
</g>
<!-- normaliz -->
<g id="node12" class="node">
<title>normaliz</title>
<g id="a_node12"><a xlink:href="https://github.com/conda-forge/normaliz-feedstock/pull/19" xlink:title="normaliz">
<ellipse fill="#31688e" stroke="black" cx="181" cy="-234" rx="50.09" ry="18"/>
<text text-anchor="middle" x="181" y="-230.3" font-family="Times,serif" font-size="14.00" fill="white">normaliz</text>
</a>
</g>
</g>
<!-- normaliz&#45;&gt;conda&#45;forge&#45;pinning -->
<g id="edge12" class="edge">
<title>normaliz&#45;&gt;conda&#45;forge&#45;pinning</title>
<path fill="none" stroke="black" d="M178.19,-215.85C173.82,-182.65 169.69,-109.56 210,-72 229.11,-54.2 288.02,-40.5 339.79,-31.5"/>
<polygon fill="black" stroke="black" points="340.43,-34.94 349.7,-29.81 339.25,-28.04 340.43,-34.94"/>
</g>
<!-- normaliz&#45;&gt;gap -->
<g id="edge13" class="edge">
<title>normaliz&#45;&gt;gap</title>
<path fill="none" stroke="black" d="M191.17,-216.05C196.19,-207.68 202.36,-197.4 207.92,-188.13"/>
<polygon fill="black" stroke="black" points="211.07,-189.68 213.22,-179.31 205.07,-186.08 211.07,-189.68"/>
</g>
<!-- xmsinterp -->
<g id="node13" class="node">
<title>xmsinterp</title>
<g id="a_node13"><a xlink:href="https://github.com/conda-forge/xmsinterp-feedstock/pull/6" xlink:title="xmsinterp">
<ellipse fill="#31688e" stroke="black" cx="710" cy="-234" rx="54.69" ry="18"/>
<text text-anchor="middle" x="710" y="-230.3" font-family="Times,serif" font-size="14.00" fill="white">xmsinterp</text>
</a>
</g>
</g>
<!-- xmsinterp&#45;&gt;conda&#45;forge&#45;pinning -->
<g id="edge14" class="edge">
<title>xmsinterp&#45;&gt;conda&#45;forge&#45;pinning</title>
<path fill="none" stroke="black" d="M686.02,-217.58C671.95,-207.83 654.37,-194.39 641,-180 601.9,-137.92 614.91,-107.82 570,-72 549.3,-55.49 522.92,-43.77 498.54,-35.62"/>
<polygon fill="black" stroke="black" points="499.54,-32.27 488.95,-32.57 497.42,-38.94 499.54,-32.27"/>
</g>
<!-- xmsstamper -->
<g id="node14" class="node">
<title>xmsstamper</title>
<g id="a_node14"><a xlink:href="https://github.com/conda-forge/xmsstamper-feedstock" xlink:title="xmsstamper">
<ellipse fill="#fde725" stroke="black" cx="710" cy="-162" rx="60" ry="18"/>
<text text-anchor="middle" x="710" y="-158.3" font-family="Times,serif" font-size="14.00">xmsstamper</text>
</a>
</g>
</g>
<!-- xmsinterp&#45;&gt;xmsstamper -->
<g id="edge15" class="edge">
<title>xmsinterp&#45;&gt;xmsstamper</title>
<path fill="none" stroke="black" d="M710,-215.7C710,-207.98 710,-198.71 710,-190.11"/>
<polygon fill="black" stroke="black" points="713.5,-190.1 710,-180.1 706.5,-190.1 713.5,-190.1"/>
</g>
<!-- xmsmesher -->
<g id="node15" class="node">
<title>xmsmesher</title>
<g id="a_node15"><a xlink:href="https://github.com/conda-forge/xmsmesher-feedstock" xlink:title="xmsmesher">
<ellipse fill="#fde725" stroke="black" cx="751" cy="-90" rx="54.69" ry="18"/>
<text text-anchor="middle" x="751" y="-86.3" font-family="Times,serif" font-size="14.00">xmsmesher</text>
</a>
</g>
</g>
<!-- xmsinterp&#45;&gt;xmsmesher -->
<g id="edge16" class="edge">
<title>xmsinterp&#45;&gt;xmsmesher</title>
<path fill="none" stroke="black" d="M739.51,-218.66C754.27,-209.76 770.72,-196.8 779,-180 789.11,-159.49 779.56,-134.54 768.95,-116.28"/>
<polygon fill="black" stroke="black" points="771.84,-114.29 763.58,-107.65 765.89,-117.99 771.84,-114.29"/>
</g>
<!-- xmsstamper&#45;&gt;conda&#45;forge&#45;pinning -->
<g id="edge17" class="edge">
<title>xmsstamper&#45;&gt;conda&#45;forge&#45;pinning</title>
<path fill="none" stroke="black" d="M700.55,-144.15C688.31,-123.9 665.05,-90.35 636,-72 602.23,-50.67 560.28,-37.91 522.92,-30.29"/>
<polygon fill="black" stroke="black" points="523.51,-26.84 513.02,-28.36 522.17,-33.71 523.51,-26.84"/>
</g>
<!-- xmsmesher&#45;&gt;conda&#45;forge&#45;pinning -->
<g id="edge18" class="edge">
<title>xmsmesher&#45;&gt;conda&#45;forge&#45;pinning</title>
<path fill="none" stroke="black" d="M707.59,-78.91C697.55,-76.6 686.91,-74.19 677,-72 618.06,-58.96 551.13,-44.74 501.51,-34.32"/>
<polygon fill="black" stroke="black" points="502.02,-30.85 491.51,-32.22 500.58,-37.7 502.02,-30.85"/>
</g>
<!-- dicomifier -->
<g id="node16" class="node">
<title>dicomifier</title>
<g id="a_node16"><a xlink:href="https://github.com/conda-forge/dicomifier-feedstock" xlink:title="dicomifier">
<ellipse fill="#35b779" stroke="black" cx="836" cy="-306" rx="60" ry="18"/>
<text text-anchor="middle" x="836" y="-302.3" font-family="Times,serif" font-size="14.00">dicomifier</text>
</a>
</g>
</g>
<!-- dicomifier&#45;&gt;conda&#45;forge&#45;pinning -->
<g id="edge19" class="edge">
<title>dicomifier&#45;&gt;conda&#45;forge&#45;pinning</title>
<path fill="none" stroke="black" d="M840.76,-287.8C851.48,-244.85 872.36,-132.07 815,-72 778.38,-33.65 642.09,-22.38 541.57,-19.41"/>
<polygon fill="black" stroke="black" points="541.43,-15.9 531.34,-19.13 541.24,-22.9 541.43,-15.9"/>
</g>
</g>
</svg>
