<?xml version="1.0" encoding="UTF-8" standalone="no"?>
<!DOCTYPE svg PUBLIC "-//W3C//DTD SVG 1.1//EN"
 "http://www.w3.org/Graphics/SVG/1.1/DTD/svg11.dtd">
<!-- Generated by graphviz version 2.42.3 (20191010.1750)
 -->
<!-- Title: %3 Pages: 1 -->
<svg width="1781pt" height="404pt"
 viewBox="0.00 0.00 1781.00 404.00" xmlns="http://www.w3.org/2000/svg" xmlns:xlink="http://www.w3.org/1999/xlink">
<g id="graph0" class="graph" transform="scale(1 1) rotate(0) translate(4 400)">
<title>%3</title>
<polygon fill="white" stroke="transparent" points="-4,4 -4,-400 1777,-400 1777,4 -4,4"/>
<!-- avrocpp -->
<g id="node1" class="node">
<title>avrocpp</title>
<g id="a_node1"><a xlink:href="https://github.com/conda-forge/avrocpp-feedstock/pull/8" xlink:title="avrocpp">
<ellipse fill="#31688e" stroke="black" cx="45" cy="-90" rx="45" ry="18"/>
<text text-anchor="middle" x="45" y="-86.3" font-family="Times,serif" font-size="14.00" fill="white">avrocpp</text>
</a>
</g>
</g>
<!-- conda&#45;forge&#45;pinning -->
<g id="node2" class="node">
<title>conda&#45;forge&#45;pinning</title>
<ellipse fill="none" stroke="black" cx="758" cy="-18" rx="103.5" ry="18"/>
<text text-anchor="middle" x="758" y="-14.3" font-family="Times,serif" font-size="14.00">conda&#45;forge&#45;pinning</text>
</g>
<!-- avrocpp&#45;&gt;conda&#45;forge&#45;pinning -->
<g id="edge1" class="edge">
<title>avrocpp&#45;&gt;conda&#45;forge&#45;pinning</title>
<path fill="none" stroke="black" d="M78.73,-78.03C86.93,-75.71 95.72,-73.51 104,-72 292.12,-37.63 514.75,-25.55 645.74,-21.3"/>
<polygon fill="black" stroke="black" points="645.9,-24.8 655.79,-20.98 645.68,-17.8 645.9,-24.8"/>
</g>
<!-- caffe -->
<g id="node3" class="node">
<title>caffe</title>
<g id="a_node3"><a xlink:href="https://github.com/conda-forge/caffe-feedstock/pull/57" xlink:title="caffe">
<ellipse fill="#31688e" stroke="black" cx="106" cy="-162" rx="35.19" ry="18"/>
<text text-anchor="middle" x="106" y="-158.3" font-family="Times,serif" font-size="14.00" fill="white">caffe</text>
</a>
</g>
</g>
<!-- caffe&#45;&gt;conda&#45;forge&#45;pinning -->
<g id="edge2" class="edge">
<title>caffe&#45;&gt;conda&#45;forge&#45;pinning</title>
<path fill="none" stroke="black" d="M110.16,-143.89C116.2,-123.05 129.58,-88.56 155,-72 195.21,-45.79 485.07,-30 647.83,-23.1"/>
<polygon fill="black" stroke="black" points="648.03,-26.6 657.88,-22.68 647.74,-19.6 648.03,-26.6"/>
</g>
<!-- gap -->
<g id="node4" class="node">
<title>gap</title>
<g id="a_node4"><a xlink:href="https://github.com/conda-forge/gap-feedstock/pull/31" xlink:title="gap">
<ellipse fill="#31688e" stroke="black" cx="224" cy="-162" rx="27" ry="18"/>
<text text-anchor="middle" x="224" y="-158.3" font-family="Times,serif" font-size="14.00" fill="white">gap</text>
</a>
</g>
</g>
<!-- gap&#45;&gt;conda&#45;forge&#45;pinning -->
<g id="edge3" class="edge">
<title>gap&#45;&gt;conda&#45;forge&#45;pinning</title>
<path fill="none" stroke="black" d="M218.48,-144.14C213.12,-124.2 208.15,-91.28 226,-72 254.01,-41.75 499.38,-27.96 646.92,-22.35"/>
<polygon fill="black" stroke="black" points="647.07,-25.85 656.93,-21.98 646.81,-18.86 647.07,-25.85"/>
</g>
<!-- sagelib -->
<g id="node5" class="node">
<title>sagelib</title>
<ellipse fill="#fde725" stroke="black" cx="280" cy="-90" rx="45" ry="18"/>
<text text-anchor="middle" x="280" y="-86.3" font-family="Times,serif" font-size="14.00">sagelib</text>
</g>
<!-- gap&#45;&gt;sagelib -->
<g id="edge4" class="edge">
<title>gap&#45;&gt;sagelib</title>
<path fill="none" stroke="black" d="M236.15,-145.81C243.19,-137.02 252.22,-125.73 260.25,-115.69"/>
<polygon fill="black" stroke="black" points="263.18,-117.62 266.7,-107.63 257.72,-113.25 263.18,-117.62"/>
</g>
<!-- sagelib&#45;&gt;conda&#45;forge&#45;pinning -->
<g id="edge5" class="edge">
<title>sagelib&#45;&gt;conda&#45;forge&#45;pinning</title>
<path fill="none" stroke="black" d="M314.09,-78.21C322.2,-75.91 330.86,-73.68 339,-72 446.31,-49.89 571.1,-35.54 656.4,-27.41"/>
<polygon fill="black" stroke="black" points="656.98,-30.88 666.61,-26.45 656.32,-23.91 656.98,-30.88"/>
</g>
<!-- libcmaes -->
<g id="node6" class="node">
<title>libcmaes</title>
<g id="a_node6"><a xlink:href="https://github.com/conda-forge/libcmaes-feedstock/pull/12" xlink:title="libcmaes">
<ellipse fill="#31688e" stroke="black" cx="313" cy="-234" rx="50.09" ry="18"/>
<text text-anchor="middle" x="313" y="-230.3" font-family="Times,serif" font-size="14.00" fill="white">libcmaes</text>
</a>
</g>
</g>
<!-- libcmaes&#45;&gt;conda&#45;forge&#45;pinning -->
<g id="edge6" class="edge">
<title>libcmaes&#45;&gt;conda&#45;forge&#45;pinning</title>
<path fill="none" stroke="black" d="M314.34,-215.84C317.94,-182.29 330.97,-108.12 377,-72 417.78,-40 549.23,-27.32 646.38,-22.3"/>
<polygon fill="black" stroke="black" points="646.74,-25.78 656.55,-21.79 646.39,-18.79 646.74,-25.78"/>
</g>
<!-- pyne -->
<g id="node7" class="node">
<title>pyne</title>
<g id="a_node7"><a xlink:href="https://github.com/conda-forge/pyne-feedstock/pull/39" xlink:title="pyne">
<ellipse fill="#31688e" stroke="black" cx="370" cy="-306" rx="30.59" ry="18"/>
<text text-anchor="middle" x="370" y="-302.3" font-family="Times,serif" font-size="14.00" fill="white">pyne</text>
</a>
</g>
</g>
<!-- pyne&#45;&gt;conda&#45;forge&#45;pinning -->
<g id="edge7" class="edge">
<title>pyne&#45;&gt;conda&#45;forge&#45;pinning</title>
<path fill="none" stroke="black" d="M370.84,-287.69C373.57,-238.92 383.92,-101.94 415,-72 447.51,-40.69 559.44,-27.87 646.7,-22.63"/>
<polygon fill="black" stroke="black" points="647.16,-26.11 656.95,-22.04 646.76,-19.12 647.16,-26.11"/>
</g>
<!-- pyopcode -->
<g id="node8" class="node">
<title>pyopcode</title>
<g id="a_node8"><a xlink:href="https://github.com/conda-forge/pyopcode-feedstock/pull/18" xlink:title="pyopcode">
<ellipse fill="#31688e" stroke="black" cx="429" cy="-378" rx="50.09" ry="18"/>
<text text-anchor="middle" x="429" y="-374.3" font-family="Times,serif" font-size="14.00" fill="white">pyopcode</text>
</a>
</g>
</g>
<!-- pyopcode&#45;&gt;conda&#45;forge&#45;pinning -->
<g id="edge8" class="edge">
<title>pyopcode&#45;&gt;conda&#45;forge&#45;pinning</title>
<path fill="none" stroke="black" d="M429,-359.95C429,-333.29 429,-280.11 429,-235 429,-235 429,-235 429,-161 429,-120.55 418.82,-100.01 448,-72 476.56,-44.59 572.21,-31.23 649.79,-24.79"/>
<polygon fill="black" stroke="black" points="650.43,-28.25 660.12,-23.97 649.88,-21.27 650.43,-28.25"/>
</g>
<!-- pyranha -->
<g id="node9" class="node">
<title>pyranha</title>
<g id="a_node9"><a xlink:href="https://github.com/conda-forge/pyranha-feedstock/pull/15" xlink:title="pyranha">
<ellipse fill="#31688e" stroke="black" cx="502" cy="-90" rx="45" ry="18"/>
<text text-anchor="middle" x="502" y="-86.3" font-family="Times,serif" font-size="14.00" fill="white">pyranha</text>
</a>
</g>
</g>
<!-- pyranha&#45;&gt;conda&#45;forge&#45;pinning -->
<g id="edge9" class="edge">
<title>pyranha&#45;&gt;conda&#45;forge&#45;pinning</title>
<path fill="none" stroke="black" d="M537.23,-78.74C545.05,-76.49 553.3,-74.15 561,-72 605.16,-59.7 655.03,-46.29 693.54,-36.03"/>
<polygon fill="black" stroke="black" points="694.81,-39.32 703.58,-33.36 693.01,-32.55 694.81,-39.32"/>
</g>
<!-- rsgislib -->
<g id="node10" class="node">
<title>rsgislib</title>
<g id="a_node10"><a xlink:href="https://github.com/conda-forge/rsgislib-feedstock/pull/29" xlink:title="rsgislib">
<ellipse fill="#31688e" stroke="black" cx="535" cy="-162" rx="50.09" ry="18"/>
<text text-anchor="middle" x="535" y="-158.3" font-family="Times,serif" font-size="14.00" fill="white">rsgislib</text>
</a>
</g>
</g>
<!-- rsgislib&#45;&gt;conda&#45;forge&#45;pinning -->
<g id="edge10" class="edge">
<title>rsgislib&#45;&gt;conda&#45;forge&#45;pinning</title>
<path fill="none" stroke="black" d="M542.99,-144.11C553.27,-124.13 572.94,-91.18 599,-72 622.79,-54.49 652.72,-42.53 680.18,-34.47"/>
<polygon fill="black" stroke="black" points="681.48,-37.74 690.17,-31.68 679.59,-31 681.48,-37.74"/>
</g>
<!-- zwatershed -->
<g id="node11" class="node">
<title>zwatershed</title>
<g id="a_node11"><a xlink:href="https://github.com/conda-forge/zwatershed-feedstock/pull/14" xlink:title="zwatershed">
<ellipse fill="#31688e" stroke="black" cx="563" cy="-234" rx="60" ry="18"/>
<text text-anchor="middle" x="563" y="-230.3" font-family="Times,serif" font-size="14.00" fill="white">zwatershed</text>
</a>
</g>
</g>
<!-- zwatershed&#45;&gt;conda&#45;forge&#45;pinning -->
<g id="edge11" class="edge">
<title>zwatershed&#45;&gt;conda&#45;forge&#45;pinning</title>
<path fill="none" stroke="black" d="M573.72,-216.17C580.02,-205.93 587.92,-192.45 594,-180 616.66,-133.57 601.09,-109.15 637,-72 652.2,-56.27 672.88,-44.9 692.84,-36.83"/>
<polygon fill="black" stroke="black" points="694.15,-40.08 702.24,-33.24 691.65,-33.54 694.15,-40.08"/>
</g>
<!-- alps -->
<g id="node12" class="node">
<title>alps</title>
<g id="a_node12"><a xlink:href="https://github.com/conda-forge/alps-feedstock/pull/30" xlink:title="alps">
<ellipse fill="#31688e" stroke="black" cx="630" cy="-306" rx="30.59" ry="18"/>
<text text-anchor="middle" x="630" y="-302.3" font-family="Times,serif" font-size="14.00" fill="white">alps</text>
</a>
</g>
</g>
<!-- alps&#45;&gt;conda&#45;forge&#45;pinning -->
<g id="edge12" class="edge">
<title>alps&#45;&gt;conda&#45;forge&#45;pinning</title>
<path fill="none" stroke="black" d="M631.55,-287.92C636.12,-240.38 650.81,-107.61 675,-72 683.98,-58.77 697.48,-48.14 710.99,-39.97"/>
<polygon fill="black" stroke="black" points="712.86,-42.93 719.83,-34.95 709.4,-36.84 712.86,-42.93"/>
</g>
<!-- clfft -->
<g id="node13" class="node">
<title>clfft</title>
<g id="a_node13"><a xlink:href="https://github.com/conda-forge/clfft-feedstock/pull/10" xlink:title="clfft">
<ellipse fill="#31688e" stroke="black" cx="689" cy="-378" rx="35.19" ry="18"/>
<text text-anchor="middle" x="689" y="-374.3" font-family="Times,serif" font-size="14.00" fill="white">clfft</text>
</a>
</g>
</g>
<!-- clfft&#45;&gt;conda&#45;forge&#45;pinning -->
<g id="edge13" class="edge">
<title>clfft&#45;&gt;conda&#45;forge&#45;pinning</title>
<path fill="none" stroke="black" d="M689,-359.95C689,-333.29 689,-280.11 689,-235 689,-235 689,-235 689,-161 689,-120.55 689.2,-107.81 708,-72 713.64,-61.26 722.07,-51.13 730.41,-42.65"/>
<polygon fill="black" stroke="black" points="732.88,-45.13 737.64,-35.66 728.02,-40.1 732.88,-45.13"/>
</g>
<!-- spdlib -->
<g id="node14" class="node">
<title>spdlib</title>
<g id="a_node14"><a xlink:href="https://github.com/conda-forge/spdlib-feedstock/pull/12" xlink:title="spdlib">
<ellipse fill="#31688e" stroke="black" cx="758" cy="-90" rx="40.5" ry="18"/>
<text text-anchor="middle" x="758" y="-86.3" font-family="Times,serif" font-size="14.00" fill="white">spdlib</text>
</a>
</g>
</g>
<!-- spdlib&#45;&gt;conda&#45;forge&#45;pinning -->
<g id="edge14" class="edge">
<title>spdlib&#45;&gt;conda&#45;forge&#45;pinning</title>
<path fill="none" stroke="black" d="M758,-71.7C758,-63.98 758,-54.71 758,-46.11"/>
<polygon fill="black" stroke="black" points="761.5,-46.1 758,-36.1 754.5,-46.1 761.5,-46.1"/>
</g>
<!-- fmipp -->
<g id="node15" class="node">
<title>fmipp</title>
<g id="a_node15"><a xlink:href="https://github.com/conda-forge/fmipp-feedstock/pull/14" xlink:title="fmipp">
<ellipse fill="#31688e" stroke="black" cx="802" cy="-162" rx="35.19" ry="18"/>
<text text-anchor="middle" x="802" y="-158.3" font-family="Times,serif" font-size="14.00" fill="white">fmipp</text>
</a>
</g>
</g>
<!-- fmipp&#45;&gt;conda&#45;forge&#45;pinning -->
<g id="edge15" class="edge">
<title>fmipp&#45;&gt;conda&#45;forge&#45;pinning</title>
<path fill="none" stroke="black" d="M807.06,-143.94C811.6,-125.51 816.25,-95.63 807,-72 802.73,-61.1 795.06,-51.1 787.03,-42.79"/>
<polygon fill="black" stroke="black" points="789.27,-40.09 779.64,-35.66 784.4,-45.12 789.27,-40.09"/>
</g>
<!-- freecad -->
<g id="node16" class="node">
<title>freecad</title>
<g id="a_node16"><a xlink:href="https://github.com/conda-forge/freecad-feedstock/pull/36" xlink:title="freecad">
<ellipse fill="#31688e" stroke="black" cx="830" cy="-234" rx="45" ry="18"/>
<text text-anchor="middle" x="830" y="-230.3" font-family="Times,serif" font-size="14.00" fill="white">freecad</text>
</a>
</g>
</g>
<!-- freecad&#45;&gt;conda&#45;forge&#45;pinning -->
<g id="edge16" class="edge">
<title>freecad&#45;&gt;conda&#45;forge&#45;pinning</title>
<path fill="none" stroke="black" d="M836.49,-216.1C840.08,-205.84 844.17,-192.36 846,-180 853.16,-131.54 851.47,-112.56 824,-72 816.05,-60.27 804.73,-49.86 793.7,-41.43"/>
<polygon fill="black" stroke="black" points="795.53,-38.44 785.38,-35.39 791.42,-44.1 795.53,-38.44"/>
</g>
<!-- helics -->
<g id="node17" class="node">
<title>helics</title>
<g id="a_node17"><a xlink:href="https://github.com/conda-forge/helics-feedstock/pull/18" xlink:title="helics">
<ellipse fill="#31688e" stroke="black" cx="872" cy="-306" rx="40.5" ry="18"/>
<text text-anchor="middle" x="872" y="-302.3" font-family="Times,serif" font-size="14.00" fill="white">helics</text>
</a>
</g>
</g>
<!-- helics&#45;&gt;conda&#45;forge&#45;pinning -->
<g id="edge17" class="edge">
<title>helics&#45;&gt;conda&#45;forge&#45;pinning</title>
<path fill="none" stroke="black" d="M876.87,-287.98C879.56,-277.67 882.64,-264.19 884,-252 893.06,-170.92 896.84,-137.35 848,-72 837.75,-58.29 822.82,-47.48 808.06,-39.3"/>
<polygon fill="black" stroke="black" points="809.42,-36.06 798.93,-34.55 806.18,-42.27 809.42,-36.06"/>
</g>
<!-- normaliz -->
<g id="node18" class="node">
<title>normaliz</title>
<g id="a_node18"><a xlink:href="https://github.com/conda-forge/normaliz-feedstock/pull/19" xlink:title="normaliz">
<ellipse fill="#31688e" stroke="black" cx="182" cy="-234" rx="50.09" ry="18"/>
<text text-anchor="middle" x="182" y="-230.3" font-family="Times,serif" font-size="14.00" fill="white">normaliz</text>
</a>
</g>
</g>
<!-- normaliz&#45;&gt;conda&#45;forge&#45;pinning -->
<g id="edge18" class="edge">
<title>normaliz&#45;&gt;conda&#45;forge&#45;pinning</title>
<path fill="none" stroke="black" d="M178.72,-215.9C173.34,-182.1 167.17,-107.02 210,-72 243.1,-44.94 497.53,-29.82 647.8,-23.16"/>
<polygon fill="black" stroke="black" points="648.15,-26.65 657.99,-22.72 647.85,-19.66 648.15,-26.65"/>
</g>
<!-- normaliz&#45;&gt;gap -->
<g id="edge19" class="edge">
<title>normaliz&#45;&gt;gap</title>
<path fill="none" stroke="black" d="M192.17,-216.05C197.19,-207.68 203.36,-197.4 208.92,-188.13"/>
<polygon fill="black" stroke="black" points="212.07,-189.68 214.22,-179.31 206.07,-186.08 212.07,-189.68"/>
</g>
<!-- vowpalwabbit -->
<g id="node19" class="node">
<title>vowpalwabbit</title>
<g id="a_node19"><a xlink:href="https://github.com/conda-forge/vowpalwabbit-feedstock/pull/3" xlink:title="vowpalwabbit">
<ellipse fill="#31688e" stroke="black" cx="941" cy="-378" rx="69.59" ry="18"/>
<text text-anchor="middle" x="941" y="-374.3" font-family="Times,serif" font-size="14.00" fill="white">vowpalwabbit</text>
</a>
</g>
</g>
<!-- vowpalwabbit&#45;&gt;conda&#45;forge&#45;pinning -->
<g id="edge20" class="edge">
<title>vowpalwabbit&#45;&gt;conda&#45;forge&#45;pinning</title>
<path fill="none" stroke="black" d="M941,-359.95C941,-333.29 941,-280.11 941,-235 941,-235 941,-235 941,-161 941,-97.27 870.86,-58.02 817.43,-37.37"/>
<polygon fill="black" stroke="black" points="818.6,-34.07 808.01,-33.85 816.15,-40.63 818.6,-34.07"/>
</g>
<!-- esys&#45;escript -->
<g id="node20" class="node">
<title>esys&#45;escript</title>
<g id="a_node20"><a xlink:href="https://github.com/conda-forge/esys-escript-feedstock/pull/12" xlink:title="esys escript">
<ellipse fill="#31688e" stroke="black" cx="1039" cy="-90" rx="69.59" ry="18"/>
<text text-anchor="middle" x="1039" y="-86.3" font-family="Times,serif" font-size="14.00" fill="white">esys escript</text>
</a>
</g>
</g>
<!-- esys&#45;escript&#45;&gt;conda&#45;forge&#45;pinning -->
<g id="edge21" class="edge">
<title>esys&#45;escript&#45;&gt;conda&#45;forge&#45;pinning</title>
<path fill="none" stroke="black" d="M990.69,-76.97C944.94,-65.57 875.84,-48.36 824.82,-35.64"/>
<polygon fill="black" stroke="black" points="825.42,-32.19 814.87,-33.17 823.72,-38.98 825.42,-32.19"/>
</g>
<!-- xmsinterp -->
<g id="node21" class="node">
<title>xmsinterp</title>
<g id="a_node21"><a xlink:href="https://github.com/conda-forge/xmsinterp-feedstock/pull/6" xlink:title="xmsinterp">
<ellipse fill="#31688e" stroke="black" cx="1225" cy="-234" rx="54.69" ry="18"/>
<text text-anchor="middle" x="1225" y="-230.3" font-family="Times,serif" font-size="14.00" fill="white">xmsinterp</text>
</a>
</g>
</g>
<!-- xmsinterp&#45;&gt;conda&#45;forge&#45;pinning -->
<g id="edge22" class="edge">
<title>xmsinterp&#45;&gt;conda&#45;forge&#45;pinning</title>
<path fill="none" stroke="black" d="M1198.67,-218.02C1184.33,-208.7 1167.26,-195.53 1156,-180 1126.14,-138.8 1157.27,-104.36 1118,-72 1080.82,-41.36 960.14,-28.41 868.67,-22.96"/>
<polygon fill="black" stroke="black" points="868.69,-19.45 858.51,-22.38 868.29,-26.44 868.69,-19.45"/>
</g>
<!-- xmsstamper -->
<g id="node22" class="node">
<title>xmsstamper</title>
<g id="a_node22"><a xlink:href="https://github.com/conda-forge/xmsstamper-feedstock/pull/4" xlink:title="xmsstamper">
<ellipse fill="#31688e" stroke="black" cx="1225" cy="-162" rx="60" ry="18"/>
<text text-anchor="middle" x="1225" y="-158.3" font-family="Times,serif" font-size="14.00" fill="white">xmsstamper</text>
</a>
</g>
</g>
<!-- xmsinterp&#45;&gt;xmsstamper -->
<g id="edge23" class="edge">
<title>xmsinterp&#45;&gt;xmsstamper</title>
<path fill="none" stroke="black" d="M1225,-215.7C1225,-207.98 1225,-198.71 1225,-190.11"/>
<polygon fill="black" stroke="black" points="1228.5,-190.1 1225,-180.1 1221.5,-190.1 1228.5,-190.1"/>
</g>
<!-- xmsmesher -->
<g id="node23" class="node">
<title>xmsmesher</title>
<g id="a_node23"><a xlink:href="https://github.com/conda-forge/xmsmesher-feedstock/pull/4" xlink:title="xmsmesher">
<ellipse fill="#31688e" stroke="black" cx="1258" cy="-90" rx="54.69" ry="18"/>
<text text-anchor="middle" x="1258" y="-86.3" font-family="Times,serif" font-size="14.00" fill="white">xmsmesher</text>
</a>
</g>
</g>
<!-- xmsinterp&#45;&gt;xmsmesher -->
<g id="edge24" class="edge">
<title>xmsinterp&#45;&gt;xmsmesher</title>
<path fill="none" stroke="black" d="M1254.51,-218.66C1269.27,-209.76 1285.72,-196.8 1294,-180 1304.45,-158.8 1292.28,-133.78 1279.34,-115.68"/>
<polygon fill="black" stroke="black" points="1281.87,-113.22 1273.02,-107.39 1276.3,-117.47 1281.87,-113.22"/>
</g>
<!-- xmsstamper&#45;&gt;conda&#45;forge&#45;pinning -->
<g id="edge25" class="edge">
<title>xmsstamper&#45;&gt;conda&#45;forge&#45;pinning</title>
<path fill="none" stroke="black" d="M1216.09,-143.95C1204.25,-123.16 1181.24,-88.74 1151,-72 1103.39,-45.65 964.74,-31.63 865.63,-24.76"/>
<polygon fill="black" stroke="black" points="865.78,-21.27 855.56,-24.08 865.3,-28.25 865.78,-21.27"/>
</g>
<!-- xmsmesher&#45;&gt;conda&#45;forge&#45;pinning -->
<g id="edge26" class="edge">
<title>xmsmesher&#45;&gt;conda&#45;forge&#45;pinning</title>
<path fill="none" stroke="black" d="M1216.94,-78.03C1207.79,-75.83 1198.1,-73.67 1189,-72 1076.49,-51.3 945.93,-36.52 858.25,-27.91"/>
<polygon fill="black" stroke="black" points="858.33,-24.4 848.04,-26.92 857.65,-31.37 858.33,-24.4"/>
</g>
<!-- odil -->
<g id="node24" class="node">
<title>odil</title>
<g id="a_node24"><a xlink:href="https://github.com/conda-forge/odil-feedstock/pull/3" xlink:title="odil">
<ellipse fill="#31688e" stroke="black" cx="1390" cy="-162" rx="30.59" ry="18"/>
<text text-anchor="middle" x="1390" y="-158.3" font-family="Times,serif" font-size="14.00" fill="white">odil</text>
</a>
</g>
</g>
<!-- odil&#45;&gt;conda&#45;forge&#45;pinning -->
<g id="edge27" class="edge">
<title>odil&#45;&gt;conda&#45;forge&#45;pinning</title>
<path fill="none" stroke="black" d="M1379.87,-144.76C1365.01,-121.49 1337.39,-80.53 1322,-72 1247.18,-30.54 1013.64,-20.95 871.61,-19.07"/>
<polygon fill="black" stroke="black" points="871.59,-15.57 861.55,-18.94 871.51,-22.57 871.59,-15.57"/>
</g>
<!-- dicomifier -->
<g id="node25" class="node">
<title>dicomifier</title>
<ellipse fill="#fde725" stroke="black" cx="1429" cy="-90" rx="60" ry="18"/>
<text text-anchor="middle" x="1429" y="-86.3" font-family="Times,serif" font-size="14.00">dicomifier</text>
</g>
<!-- odil&#45;&gt;dicomifier -->
<g id="edge28" class="edge">
<title>odil&#45;&gt;dicomifier</title>
<path fill="none" stroke="black" d="M1399.05,-144.76C1403.64,-136.53 1409.32,-126.32 1414.51,-117.02"/>
<polygon fill="black" stroke="black" points="1417.65,-118.56 1419.46,-108.12 1411.53,-115.16 1417.65,-118.56"/>
</g>
<!-- dicomifier&#45;&gt;conda&#45;forge&#45;pinning -->
<g id="edge29" class="edge">
<title>dicomifier&#45;&gt;conda&#45;forge&#45;pinning</title>
<path fill="none" stroke="black" d="M1384.58,-77.76C1374.88,-75.59 1364.63,-73.53 1355,-72 1185.61,-45.15 986.87,-30.91 866.79,-24.16"/>
<polygon fill="black" stroke="black" points="866.67,-20.65 856.49,-23.59 866.28,-27.64 866.67,-20.65"/>
</g>
<!-- triqs_tprf -->
<g id="node26" class="node">
<title>triqs_tprf</title>
<g id="a_node26"><a xlink:href="https://github.com/conda-forge/triqs_tprf-feedstock/pull/4" xlink:title="triqs_tprf">
<ellipse fill="#31688e" stroke="black" cx="1508" cy="-162" rx="60" ry="18"/>
<text text-anchor="middle" x="1508" y="-158.3" font-family="Times,serif" font-size="14.00" fill="white">triqs_tprf</text>
</a>
</g>
</g>
<!-- triqs_tprf&#45;&gt;conda&#45;forge&#45;pinning -->
<g id="edge30" class="edge">
<title>triqs_tprf&#45;&gt;conda&#45;forge&#45;pinning</title>
<path fill="none" stroke="black" d="M1511.83,-143.82C1515.22,-123.55 1517.06,-90.31 1498,-72 1453.89,-29.63 1067.84,-20.96 871.56,-19.3"/>
<polygon fill="black" stroke="black" points="871.52,-15.8 861.5,-19.22 871.47,-22.8 871.52,-15.8"/>
</g>
<!-- triqs_cthyb -->
<g id="node27" class="node">
<title>triqs_cthyb</title>
<g id="a_node27"><a xlink:href="https://github.com/conda-forge/triqs_cthyb-feedstock/pull/6" xlink:title="triqs_cthyb">
<ellipse fill="#31688e" stroke="black" cx="1596" cy="-234" rx="64.5" ry="18"/>
<text text-anchor="middle" x="1596" y="-230.3" font-family="Times,serif" font-size="14.00" fill="white">triqs_cthyb</text>
</a>
</g>
</g>
<!-- triqs_cthyb&#45;&gt;conda&#45;forge&#45;pinning -->
<g id="edge31" class="edge">
<title>triqs_cthyb&#45;&gt;conda&#45;forge&#45;pinning</title>
<path fill="none" stroke="black" d="M1594.68,-215.86C1592.73,-197.38 1588.04,-167.44 1577,-144 1559.62,-107.07 1556.1,-91.04 1520,-72 1464.01,-42.47 1067.67,-27.51 869.81,-21.81"/>
<polygon fill="black" stroke="black" points="869.77,-18.31 859.67,-21.52 869.57,-25.3 869.77,-18.31"/>
</g>
<!-- triqs_dft_tools -->
<g id="node28" class="node">
<title>triqs_dft_tools</title>
<g id="a_node28"><a xlink:href="https://github.com/conda-forge/triqs_dft_tools-feedstock/pull/6" xlink:title="triqs_dft_tools">
<ellipse fill="#31688e" stroke="black" cx="1689" cy="-306" rx="84" ry="18"/>
<text text-anchor="middle" x="1689" y="-302.3" font-family="Times,serif" font-size="14.00" fill="white">triqs_dft_tools</text>
</a>
</g>
</g>
<!-- triqs_dft_tools&#45;&gt;conda&#45;forge&#45;pinning -->
<g id="edge32" class="edge">
<title>triqs_dft_tools&#45;&gt;conda&#45;forge&#45;pinning</title>
<path fill="none" stroke="black" d="M1687.46,-287.85C1685.29,-269.36 1680.24,-239.42 1669,-216 1633.56,-142.16 1626.58,-109.94 1554,-72 1494.97,-41.14 1075.15,-26.73 870.12,-21.48"/>
<polygon fill="black" stroke="black" points="870.01,-17.97 859.92,-21.22 869.83,-24.97 870.01,-17.97"/>
</g>
</g>
</svg>
