<?xml version="1.0" encoding="UTF-8" standalone="no"?>
<!DOCTYPE svg PUBLIC "-//W3C//DTD SVG 1.1//EN"
 "http://www.w3.org/Graphics/SVG/1.1/DTD/svg11.dtd">
<!-- Generated by graphviz version 2.42.3 (20191010.1750)
 -->
<!-- Title: %3 Pages: 1 -->
<svg width="2423pt" height="764pt"
 viewBox="0.00 0.00 2422.55 764.00" xmlns="http://www.w3.org/2000/svg" xmlns:xlink="http://www.w3.org/1999/xlink">
<g id="graph0" class="graph" transform="scale(1 1) rotate(0) translate(4 760)">
<title>%3</title>
<polygon fill="white" stroke="transparent" points="-4,4 -4,-760 2418.55,-760 2418.55,4 -4,4"/>
<!-- cyclus -->
<g id="node1" class="node">
<title>cyclus</title>
<g id="a_node1"><a xlink:href="https://github.com/conda-forge/cyclus-feedstock/pull/54" xlink:title="cyclus">
<ellipse fill="#31688e" stroke="black" cx="64.5" cy="-738" rx="40.5" ry="18"/>
<text text-anchor="middle" x="64.5" y="-734.3" font-family="Times,serif" font-size="14.00" fill="white">cyclus</text>
</a>
</g>
</g>
<!-- dionysus -->
<g id="node2" class="node">
<title>dionysus</title>
<g id="a_node2"><a xlink:href="https://github.com/conda-forge/dionysus-feedstock/pull/7" xlink:title="dionysus">
<ellipse fill="#31688e" stroke="black" cx="64.5" cy="-666" rx="50.09" ry="18"/>
<text text-anchor="middle" x="64.5" y="-662.3" font-family="Times,serif" font-size="14.00" fill="white">dionysus</text>
</a>
</g>
</g>
<!-- cyclus&#45;&gt;dionysus -->
<!-- libradolan -->
<g id="node3" class="node">
<title>libradolan</title>
<g id="a_node3"><a xlink:href="https://github.com/conda-forge/libradolan-feedstock/pull/22" xlink:title="libradolan">
<ellipse fill="#31688e" stroke="black" cx="64.5" cy="-594" rx="60" ry="18"/>
<text text-anchor="middle" x="64.5" y="-590.3" font-family="Times,serif" font-size="14.00" fill="white">libradolan</text>
</a>
</g>
</g>
<!-- dionysus&#45;&gt;libradolan -->
<!-- msgpack&#45;c -->
<g id="node8" class="node">
<title>msgpack&#45;c</title>
<g id="a_node8"><a xlink:href="https://github.com/conda-forge/msgpack-c-feedstock/pull/17" xlink:title="msgpack c">
<ellipse fill="#31688e" stroke="black" cx="64.5" cy="-522" rx="54.69" ry="18"/>
<text text-anchor="middle" x="64.5" y="-518.3" font-family="Times,serif" font-size="14.00" fill="white">msgpack c</text>
</a>
</g>
</g>
<!-- libradolan&#45;&gt;msgpack&#45;c -->
<!-- fenics -->
<g id="node4" class="node">
<title>fenics</title>
<g id="a_node4"><a xlink:href="https://github.com/conda-forge/fenics-feedstock/pull/106" xlink:title="fenics">
<ellipse fill="#31688e" stroke="black" cx="163.5" cy="-738" rx="40.5" ry="18"/>
<text text-anchor="middle" x="163.5" y="-734.3" font-family="Times,serif" font-size="14.00" fill="white">fenics</text>
</a>
</g>
</g>
<!-- mshr -->
<g id="node5" class="node">
<title>mshr</title>
<ellipse fill="#fde725" stroke="black" cx="163.5" cy="-666" rx="30.59" ry="18"/>
<text text-anchor="middle" x="163.5" y="-662.3" font-family="Times,serif" font-size="14.00">mshr</text>
</g>
<!-- fenics&#45;&gt;mshr -->
<g id="edge3" class="edge">
<title>fenics&#45;&gt;mshr</title>
<path fill="none" stroke="black" d="M163.5,-719.7C163.5,-711.98 163.5,-702.71 163.5,-694.11"/>
<polygon fill="black" stroke="black" points="167,-694.1 163.5,-684.1 160,-694.1 167,-694.1"/>
</g>
<!-- gap -->
<g id="node6" class="node">
<title>gap</title>
<ellipse fill="#fde725" stroke="black" cx="272.5" cy="-666" rx="27" ry="18"/>
<text text-anchor="middle" x="272.5" y="-662.3" font-family="Times,serif" font-size="14.00">gap</text>
</g>
<!-- sagelib -->
<g id="node7" class="node">
<title>sagelib</title>
<ellipse fill="#fde725" stroke="black" cx="272.5" cy="-594" rx="45" ry="18"/>
<text text-anchor="middle" x="272.5" y="-590.3" font-family="Times,serif" font-size="14.00">sagelib</text>
</g>
<!-- gap&#45;&gt;sagelib -->
<g id="edge4" class="edge">
<title>gap&#45;&gt;sagelib</title>
<path fill="none" stroke="black" d="M272.5,-647.7C272.5,-639.98 272.5,-630.71 272.5,-622.11"/>
<polygon fill="black" stroke="black" points="276,-622.1 272.5,-612.1 269,-622.1 276,-622.1"/>
</g>
<!-- openturns -->
<g id="node9" class="node">
<title>openturns</title>
<g id="a_node9"><a xlink:href="https://github.com/conda-forge/openturns-feedstock/pull/99" xlink:title="openturns">
<ellipse fill="#31688e" stroke="black" cx="64.5" cy="-450" rx="54.69" ry="18"/>
<text text-anchor="middle" x="64.5" y="-446.3" font-family="Times,serif" font-size="14.00" fill="white">openturns</text>
</a>
</g>
</g>
<!-- msgpack&#45;c&#45;&gt;openturns -->
<!-- pykep -->
<g id="node10" class="node">
<title>pykep</title>
<g id="a_node10"><a xlink:href="https://github.com/conda-forge/pykep-feedstock/pull/10" xlink:title="pykep">
<ellipse fill="#31688e" stroke="black" cx="64.5" cy="-378" rx="35.19" ry="18"/>
<text text-anchor="middle" x="64.5" y="-374.3" font-family="Times,serif" font-size="14.00" fill="white">pykep</text>
</a>
</g>
</g>
<!-- openturns&#45;&gt;pykep -->
<!-- pyne -->
<g id="node15" class="node">
<title>pyne</title>
<g id="a_node15"><a xlink:href="https://github.com/conda-forge/pyne-feedstock/pull/38" xlink:title="pyne">
<ellipse fill="#31688e" stroke="black" cx="64.5" cy="-306" rx="30.59" ry="18"/>
<text text-anchor="middle" x="64.5" y="-302.3" font-family="Times,serif" font-size="14.00" fill="white">pyne</text>
</a>
</g>
</g>
<!-- pykep&#45;&gt;pyne -->
<!-- pyarrow -->
<g id="node11" class="node">
<title>pyarrow</title>
<g id="a_node11"><a xlink:href="https://github.com/conda-forge/pyarrow-feedstock/pull/100" xlink:title="pyarrow">
<ellipse fill="#31688e" stroke="black" cx="385.5" cy="-738" rx="45" ry="18"/>
<text text-anchor="middle" x="385.5" y="-734.3" font-family="Times,serif" font-size="14.00" fill="white">pyarrow</text>
</a>
</g>
</g>
<!-- turbodbc -->
<g id="node12" class="node">
<title>turbodbc</title>
<ellipse fill="#fde725" stroke="black" cx="385.5" cy="-666" rx="50.09" ry="18"/>
<text text-anchor="middle" x="385.5" y="-662.3" font-family="Times,serif" font-size="14.00">turbodbc</text>
</g>
<!-- pyarrow&#45;&gt;turbodbc -->
<g id="edge8" class="edge">
<title>pyarrow&#45;&gt;turbodbc</title>
<path fill="none" stroke="black" d="M385.5,-719.7C385.5,-711.98 385.5,-702.71 385.5,-694.11"/>
<polygon fill="black" stroke="black" points="389,-694.1 385.5,-684.1 382,-694.1 389,-694.1"/>
</g>
<!-- pygmo -->
<g id="node13" class="node">
<title>pygmo</title>
<g id="a_node13"><a xlink:href="https://github.com/conda-forge/pygmo-feedstock/pull/44" xlink:title="pygmo">
<ellipse fill="#31688e" stroke="black" cx="488.5" cy="-666" rx="35.19" ry="18"/>
<text text-anchor="middle" x="488.5" y="-662.3" font-family="Times,serif" font-size="14.00" fill="white">pygmo</text>
</a>
</g>
</g>
<!-- dcgp&#45;python -->
<g id="node14" class="node">
<title>dcgp&#45;python</title>
<ellipse fill="#fde725" stroke="black" cx="514.5" cy="-594" rx="64.5" ry="18"/>
<text text-anchor="middle" x="514.5" y="-590.3" font-family="Times,serif" font-size="14.00">dcgp python</text>
</g>
<!-- pygmo&#45;&gt;dcgp&#45;python -->
<g id="edge9" class="edge">
<title>pygmo&#45;&gt;dcgp&#45;python</title>
<path fill="none" stroke="black" d="M494.79,-648.05C497.72,-640.18 501.27,-630.62 504.55,-621.79"/>
<polygon fill="black" stroke="black" points="507.88,-622.87 508.08,-612.28 501.32,-620.43 507.88,-622.87"/>
</g>
<!-- rank_filter -->
<g id="node16" class="node">
<title>rank_filter</title>
<g id="a_node16"><a xlink:href="https://github.com/conda-forge/rank_filter-feedstock/pull/43" xlink:title="rank_filter">
<ellipse fill="#31688e" stroke="black" cx="64.5" cy="-234" rx="64.5" ry="18"/>
<text text-anchor="middle" x="64.5" y="-230.3" font-family="Times,serif" font-size="14.00" fill="white">rank_filter</text>
</a>
</g>
</g>
<!-- pyne&#45;&gt;rank_filter -->
<!-- rsgislib -->
<g id="node17" class="node">
<title>rsgislib</title>
<g id="a_node17"><a xlink:href="https://github.com/conda-forge/rsgislib-feedstock/pull/28" xlink:title="rsgislib">
<ellipse fill="#31688e" stroke="black" cx="64.5" cy="-162" rx="50.09" ry="18"/>
<text text-anchor="middle" x="64.5" y="-158.3" font-family="Times,serif" font-size="14.00" fill="white">rsgislib</text>
</a>
</g>
</g>
<!-- rank_filter&#45;&gt;rsgislib -->
<!-- clblas -->
<g id="node18" class="node">
<title>clblas</title>
<g id="a_node18"><a xlink:href="https://github.com/conda-forge/clblas-feedstock/pull/9" xlink:title="clblas">
<ellipse fill="#31688e" stroke="black" cx="64.5" cy="-90" rx="40.5" ry="18"/>
<text text-anchor="middle" x="64.5" y="-86.3" font-family="Times,serif" font-size="14.00" fill="white">clblas</text>
</a>
</g>
</g>
<!-- rsgislib&#45;&gt;clblas -->
<!-- clfft -->
<g id="node20" class="node">
<title>clfft</title>
<g id="a_node20"><a xlink:href="https://github.com/conda-forge/clfft-feedstock/pull/9" xlink:title="clfft">
<ellipse fill="#31688e" stroke="black" cx="64.5" cy="-18" rx="35.19" ry="18"/>
<text text-anchor="middle" x="64.5" y="-14.3" font-family="Times,serif" font-size="14.00" fill="white">clfft</text>
</a>
</g>
</g>
<!-- clblas&#45;&gt;clfft -->
<!-- audi -->
<g id="node19" class="node">
<title>audi</title>
<g id="a_node19"><a xlink:href="https://github.com/conda-forge/audi-feedstock/pull/16" xlink:title="audi">
<ellipse fill="#31688e" stroke="black" cx="551.5" cy="-738" rx="30.59" ry="18"/>
<text text-anchor="middle" x="551.5" y="-734.3" font-family="Times,serif" font-size="14.00" fill="white">audi</text>
</a>
</g>
</g>
<!-- audi&#45;&gt;dcgp&#45;python -->
<g id="edge14" class="edge">
<title>audi&#45;&gt;dcgp&#45;python</title>
<path fill="none" stroke="black" d="M548.45,-719.79C545.1,-701.76 539.3,-672.68 532.5,-648 530.11,-639.34 527.11,-630.03 524.23,-621.66"/>
<polygon fill="black" stroke="black" points="527.47,-620.3 520.85,-612.03 520.86,-622.62 527.47,-620.3"/>
</g>
<!-- clsparse -->
<g id="node21" class="node">
<title>clsparse</title>
<g id="a_node21"><a xlink:href="https://github.com/conda-forge/clsparse-feedstock/pull/7" xlink:title="clsparse">
<ellipse fill="#31688e" stroke="black" cx="650.5" cy="-738" rx="50.09" ry="18"/>
<text text-anchor="middle" x="650.5" y="-734.3" font-family="Times,serif" font-size="14.00" fill="white">clsparse</text>
</a>
</g>
</g>
<!-- spdlib -->
<g id="node22" class="node">
<title>spdlib</title>
<g id="a_node22"><a xlink:href="https://github.com/conda-forge/spdlib-feedstock/pull/11" xlink:title="spdlib">
<ellipse fill="#31688e" stroke="black" cx="650.5" cy="-666" rx="40.5" ry="18"/>
<text text-anchor="middle" x="650.5" y="-662.3" font-family="Times,serif" font-size="14.00" fill="white">spdlib</text>
</a>
</g>
</g>
<!-- clsparse&#45;&gt;spdlib -->
<!-- pcl -->
<g id="node23" class="node">
<title>pcl</title>
<g id="a_node23"><a xlink:href="https://github.com/conda-forge/pcl-feedstock/pull/20" xlink:title="pcl">
<ellipse fill="#31688e" stroke="black" cx="650.5" cy="-594" rx="27" ry="18"/>
<text text-anchor="middle" x="650.5" y="-590.3" font-family="Times,serif" font-size="14.00" fill="white">pcl</text>
</a>
</g>
</g>
<!-- spdlib&#45;&gt;pcl -->
<!-- trilinos -->
<g id="node24" class="node">
<title>trilinos</title>
<g id="a_node24"><a xlink:href="https://github.com/conda-forge/trilinos-feedstock/pull/29" xlink:title="trilinos">
<ellipse fill="#31688e" stroke="black" cx="650.5" cy="-522" rx="50.09" ry="18"/>
<text text-anchor="middle" x="650.5" y="-518.3" font-family="Times,serif" font-size="14.00" fill="white">trilinos</text>
</a>
</g>
</g>
<!-- pcl&#45;&gt;trilinos -->
<!-- libhdfs3 -->
<g id="node25" class="node">
<title>libhdfs3</title>
<g id="a_node25"><a xlink:href="https://github.com/conda-forge/libhdfs3-feedstock/pull/31" xlink:title="libhdfs3">
<ellipse fill="#31688e" stroke="black" cx="650.5" cy="-450" rx="50.09" ry="18"/>
<text text-anchor="middle" x="650.5" y="-446.3" font-family="Times,serif" font-size="14.00" fill="white">libhdfs3</text>
</a>
</g>
</g>
<!-- trilinos&#45;&gt;libhdfs3 -->
<!-- multineat -->
<g id="node26" class="node">
<title>multineat</title>
<ellipse fill="#fde725" stroke="black" cx="650.5" cy="-378" rx="54.69" ry="18"/>
<text text-anchor="middle" x="650.5" y="-374.3" font-family="Times,serif" font-size="14.00">multineat</text>
</g>
<!-- libhdfs3&#45;&gt;multineat -->
<!-- freecad -->
<g id="node27" class="node">
<title>freecad</title>
<g id="a_node27"><a xlink:href="https://github.com/conda-forge/freecad-feedstock/pull/35" xlink:title="freecad">
<ellipse fill="#31688e" stroke="black" cx="650.5" cy="-306" rx="45" ry="18"/>
<text text-anchor="middle" x="650.5" y="-302.3" font-family="Times,serif" font-size="14.00" fill="white">freecad</text>
</a>
</g>
</g>
<!-- multineat&#45;&gt;freecad -->
<!-- helics -->
<g id="node28" class="node">
<title>helics</title>
<g id="a_node28"><a xlink:href="https://github.com/conda-forge/helics-feedstock/pull/17" xlink:title="helics">
<ellipse fill="#31688e" stroke="black" cx="650.5" cy="-234" rx="40.5" ry="18"/>
<text text-anchor="middle" x="650.5" y="-230.3" font-family="Times,serif" font-size="14.00" fill="white">helics</text>
</a>
</g>
</g>
<!-- freecad&#45;&gt;helics -->
<!-- nds2&#45;client -->
<g id="node29" class="node">
<title>nds2&#45;client</title>
<g id="a_node29"><a xlink:href="https://github.com/conda-forge/nds2-client-feedstock/pull/9" xlink:title="nds2 client">
<ellipse fill="#31688e" stroke="black" cx="650.5" cy="-162" rx="64.5" ry="18"/>
<text text-anchor="middle" x="650.5" y="-158.3" font-family="Times,serif" font-size="14.00" fill="white">nds2 client</text>
</a>
</g>
</g>
<!-- helics&#45;&gt;nds2&#45;client -->
<!-- gudhi -->
<g id="node30" class="node">
<title>gudhi</title>
<g id="a_node30"><a xlink:href="https://github.com/conda-forge/gudhi-feedstock/pull/16" xlink:title="gudhi">
<ellipse fill="#31688e" stroke="black" cx="650.5" cy="-90" rx="35.19" ry="18"/>
<text text-anchor="middle" x="650.5" y="-86.3" font-family="Times,serif" font-size="14.00" fill="white">gudhi</text>
</a>
</g>
</g>
<!-- nds2&#45;client&#45;&gt;gudhi -->
<!-- ldas&#45;tools&#45;diskcacheapi -->
<g id="node31" class="node">
<title>ldas&#45;tools&#45;diskcacheapi</title>
<g id="a_node31"><a xlink:href="https://github.com/conda-forge/ldas-tools-diskcacheapi-feedstock/pull/4" xlink:title="ldas tools diskcacheapi">
<ellipse fill="#31688e" stroke="black" cx="650.5" cy="-18" rx="123" ry="18"/>
<text text-anchor="middle" x="650.5" y="-14.3" font-family="Times,serif" font-size="14.00" fill="white">ldas tools diskcacheapi</text>
</a>
</g>
</g>
<!-- gudhi&#45;&gt;ldas&#45;tools&#45;diskcacheapi -->
<!-- libint -->
<g id="node32" class="node">
<title>libint</title>
<g id="a_node32"><a xlink:href="https://github.com/conda-forge/libint-feedstock/pull/5" xlink:title="libint">
<ellipse fill="#31688e" stroke="black" cx="826.5" cy="-738" rx="40.5" ry="18"/>
<text text-anchor="middle" x="826.5" y="-734.3" font-family="Times,serif" font-size="14.00" fill="white">libint</text>
</a>
</g>
</g>
<!-- dealii -->
<g id="node33" class="node">
<title>dealii</title>
<g id="a_node33"><a xlink:href="https://github.com/conda-forge/dealii-feedstock/pull/6" xlink:title="dealii">
<ellipse fill="#31688e" stroke="black" cx="826.5" cy="-666" rx="40.5" ry="18"/>
<text text-anchor="middle" x="826.5" y="-662.3" font-family="Times,serif" font-size="14.00" fill="white">dealii</text>
</a>
</g>
</g>
<!-- libint&#45;&gt;dealii -->
<!-- lhcb&#45;simpletools -->
<g id="node34" class="node">
<title>lhcb&#45;simpletools</title>
<g id="a_node34"><a xlink:href="https://github.com/conda-forge/lhcb-simpletools-feedstock/pull/4" xlink:title="lhcb simpletools">
<ellipse fill="#31688e" stroke="black" cx="826.5" cy="-594" rx="89.08" ry="18"/>
<text text-anchor="middle" x="826.5" y="-590.3" font-family="Times,serif" font-size="14.00" fill="white">lhcb simpletools</text>
</a>
</g>
</g>
<!-- dealii&#45;&gt;lhcb&#45;simpletools -->
<!-- omniscidb&#45;cpu -->
<g id="node35" class="node">
<title>omniscidb&#45;cpu</title>
<g id="a_node35"><a xlink:href="https://github.com/conda-forge/omniscidb-cpu-feedstock/pull/22" xlink:title="omniscidb cpu">
<ellipse fill="#31688e" stroke="black" cx="826.5" cy="-522" rx="74.19" ry="18"/>
<text text-anchor="middle" x="826.5" y="-518.3" font-family="Times,serif" font-size="14.00" fill="white">omniscidb cpu</text>
</a>
</g>
</g>
<!-- lhcb&#45;simpletools&#45;&gt;omniscidb&#45;cpu -->
<!-- ambertools -->
<g id="node36" class="node">
<title>ambertools</title>
<g id="a_node36"><a xlink:href="https://github.com/conda-forge/ambertools-feedstock/pull/25" xlink:title="ambertools">
<ellipse fill="#31688e" stroke="black" cx="826.5" cy="-450" rx="60" ry="18"/>
<text text-anchor="middle" x="826.5" y="-446.3" font-family="Times,serif" font-size="14.00" fill="white">ambertools</text>
</a>
</g>
</g>
<!-- omniscidb&#45;cpu&#45;&gt;ambertools -->
<!-- biorbd -->
<g id="node37" class="node">
<title>biorbd</title>
<g id="a_node37"><a xlink:href="https://github.com/conda-forge/biorbd-feedstock/pull/13" xlink:title="biorbd">
<ellipse fill="#31688e" stroke="black" cx="826.5" cy="-378" rx="40.5" ry="18"/>
<text text-anchor="middle" x="826.5" y="-374.3" font-family="Times,serif" font-size="14.00" fill="white">biorbd</text>
</a>
</g>
</g>
<!-- ambertools&#45;&gt;biorbd -->
<!-- esys&#45;escript -->
<g id="node38" class="node">
<title>esys&#45;escript</title>
<g id="a_node38"><a xlink:href="https://github.com/conda-forge/esys-escript-feedstock/pull/11" xlink:title="esys escript">
<ellipse fill="#31688e" stroke="black" cx="826.5" cy="-306" rx="69.59" ry="18"/>
<text text-anchor="middle" x="826.5" y="-302.3" font-family="Times,serif" font-size="14.00" fill="white">esys escript</text>
</a>
</g>
</g>
<!-- biorbd&#45;&gt;esys&#45;escript -->
<!-- graph&#45;tool -->
<g id="node40" class="node">
<title>graph&#45;tool</title>
<g id="a_node40"><a xlink:href="https://github.com/conda-forge/graph-tool-feedstock/pull/8" xlink:title="graph tool">
<ellipse fill="#31688e" stroke="black" cx="826.5" cy="-234" rx="60" ry="18"/>
<text text-anchor="middle" x="826.5" y="-230.3" font-family="Times,serif" font-size="14.00" fill="white">graph tool</text>
</a>
</g>
</g>
<!-- esys&#45;escript&#45;&gt;graph&#45;tool -->
<!-- normaliz -->
<g id="node39" class="node">
<title>normaliz</title>
<g id="a_node39"><a xlink:href="https://github.com/conda-forge/normaliz-feedstock/pull/18" xlink:title="normaliz">
<ellipse fill="#31688e" stroke="black" cx="272.5" cy="-738" rx="50.09" ry="18"/>
<text text-anchor="middle" x="272.5" y="-734.3" font-family="Times,serif" font-size="14.00" fill="white">normaliz</text>
</a>
</g>
</g>
<!-- normaliz&#45;&gt;gap -->
<g id="edge32" class="edge">
<title>normaliz&#45;&gt;gap</title>
<path fill="none" stroke="black" d="M272.5,-719.7C272.5,-711.98 272.5,-702.71 272.5,-694.11"/>
<polygon fill="black" stroke="black" points="276,-694.1 272.5,-684.1 269,-694.1 276,-694.1"/>
</g>
<!-- topologytoolkit -->
<g id="node46" class="node">
<title>topologytoolkit</title>
<g id="a_node46"><a xlink:href="https://github.com/conda-forge/topologytoolkit-feedstock/pull/4" xlink:title="topologytoolkit">
<ellipse fill="#31688e" stroke="black" cx="826.5" cy="-162" rx="84" ry="18"/>
<text text-anchor="middle" x="826.5" y="-158.3" font-family="Times,serif" font-size="14.00" fill="white">topologytoolkit</text>
</a>
</g>
</g>
<!-- graph&#45;tool&#45;&gt;topologytoolkit -->
<!-- xmscore -->
<g id="node41" class="node">
<title>xmscore</title>
<g id="a_node41"><a xlink:href="https://github.com/conda-forge/xmscore-feedstock/pull/4" xlink:title="xmscore">
<ellipse fill="#31688e" stroke="black" cx="1068.5" cy="-738" rx="45" ry="18"/>
<text text-anchor="middle" x="1068.5" y="-734.3" font-family="Times,serif" font-size="14.00" fill="white">xmscore</text>
</a>
</g>
</g>
<!-- xmsgrid -->
<g id="node42" class="node">
<title>xmsgrid</title>
<ellipse fill="#fde725" stroke="black" cx="1107.5" cy="-666" rx="45" ry="18"/>
<text text-anchor="middle" x="1107.5" y="-662.3" font-family="Times,serif" font-size="14.00">xmsgrid</text>
</g>
<!-- xmscore&#45;&gt;xmsgrid -->
<g id="edge34" class="edge">
<title>xmscore&#45;&gt;xmsgrid</title>
<path fill="none" stroke="black" d="M1077.94,-720.05C1082.54,-711.8 1088.17,-701.7 1093.27,-692.54"/>
<polygon fill="black" stroke="black" points="1096.34,-694.23 1098.15,-683.79 1090.22,-690.82 1096.34,-694.23"/>
</g>
<!-- xmsinterp -->
<g id="node43" class="node">
<title>xmsinterp</title>
<ellipse fill="#fde725" stroke="black" cx="1026.5" cy="-594" rx="54.69" ry="18"/>
<text text-anchor="middle" x="1026.5" y="-590.3" font-family="Times,serif" font-size="14.00">xmsinterp</text>
</g>
<!-- xmscore&#45;&gt;xmsinterp -->
<g id="edge35" class="edge">
<title>xmscore&#45;&gt;xmsinterp</title>
<path fill="none" stroke="black" d="M1063.43,-719.87C1056.24,-695.56 1043.01,-650.82 1034.49,-622.01"/>
<polygon fill="black" stroke="black" points="1037.78,-620.79 1031.58,-612.19 1031.06,-622.77 1037.78,-620.79"/>
</g>
<!-- xmsstamper -->
<g id="node44" class="node">
<title>xmsstamper</title>
<ellipse fill="#fde725" stroke="black" cx="1020.5" cy="-522" rx="60" ry="18"/>
<text text-anchor="middle" x="1020.5" y="-518.3" font-family="Times,serif" font-size="14.00">xmsstamper</text>
</g>
<!-- xmscore&#45;&gt;xmsstamper -->
<g id="edge36" class="edge">
<title>xmscore&#45;&gt;xmsstamper</title>
<path fill="none" stroke="black" d="M1048.97,-721.78C1023.38,-700.47 979.75,-659.01 962.5,-612 956.99,-596.98 956.05,-590.64 962.5,-576 967.88,-563.79 977.62,-553.17 987.61,-544.71"/>
<polygon fill="black" stroke="black" points="989.91,-547.35 995.58,-538.4 985.57,-541.86 989.91,-547.35"/>
</g>
<!-- xmsmesher -->
<g id="node45" class="node">
<title>xmsmesher</title>
<ellipse fill="#fde725" stroke="black" cx="1153.5" cy="-522" rx="54.69" ry="18"/>
<text text-anchor="middle" x="1153.5" y="-518.3" font-family="Times,serif" font-size="14.00">xmsmesher</text>
</g>
<!-- xmscore&#45;&gt;xmsmesher -->
<g id="edge37" class="edge">
<title>xmscore&#45;&gt;xmsmesher</title>
<path fill="none" stroke="black" d="M1104.15,-726.67C1124.83,-718.64 1149.18,-705.21 1161.5,-684 1185.84,-642.12 1173.61,-583.27 1163.13,-549.54"/>
<polygon fill="black" stroke="black" points="1166.42,-548.34 1159.98,-539.93 1159.77,-550.52 1166.42,-548.34"/>
</g>
<!-- xmsgrid&#45;&gt;xmsinterp -->
<g id="edge38" class="edge">
<title>xmsgrid&#45;&gt;xmsinterp</title>
<path fill="none" stroke="black" d="M1089.52,-649.46C1078.67,-640.08 1064.64,-627.96 1052.58,-617.54"/>
<polygon fill="black" stroke="black" points="1054.84,-614.87 1044.99,-610.98 1050.27,-620.16 1054.84,-614.87"/>
</g>
<!-- xmsgrid&#45;&gt;xmsstamper -->
<g id="edge39" class="edge">
<title>xmsgrid&#45;&gt;xmsstamper</title>
<path fill="none" stroke="black" d="M1107.78,-647.96C1107.33,-629.02 1104.28,-598.18 1090.5,-576 1082.4,-562.95 1069.83,-551.97 1057.57,-543.44"/>
<polygon fill="black" stroke="black" points="1059.47,-540.5 1049.19,-537.93 1055.62,-546.35 1059.47,-540.5"/>
</g>
<!-- xmsgrid&#45;&gt;xmsmesher -->
<g id="edge40" class="edge">
<title>xmsgrid&#45;&gt;xmsmesher</title>
<path fill="none" stroke="black" d="M1113.05,-647.87C1120.92,-623.56 1135.42,-578.82 1144.75,-550.01"/>
<polygon fill="black" stroke="black" points="1148.18,-550.78 1147.93,-540.19 1141.52,-548.62 1148.18,-550.78"/>
</g>
<!-- xmsinterp&#45;&gt;xmsstamper -->
<g id="edge41" class="edge">
<title>xmsinterp&#45;&gt;xmsstamper</title>
<path fill="none" stroke="black" d="M1025.02,-575.7C1024.36,-567.98 1023.56,-558.71 1022.82,-550.11"/>
<polygon fill="black" stroke="black" points="1026.31,-549.77 1021.97,-540.1 1019.33,-550.37 1026.31,-549.77"/>
</g>
<!-- xmsinterp&#45;&gt;xmsmesher -->
<g id="edge42" class="edge">
<title>xmsinterp&#45;&gt;xmsmesher</title>
<path fill="none" stroke="black" d="M1053.43,-578.15C1072.12,-567.85 1097.22,-554.02 1117.61,-542.78"/>
<polygon fill="black" stroke="black" points="1119.54,-545.72 1126.61,-537.82 1116.16,-539.59 1119.54,-545.72"/>
</g>
<!-- pyinterp -->
<g id="node47" class="node">
<title>pyinterp</title>
<g id="a_node47"><a xlink:href="https://github.com/conda-forge/pyinterp-feedstock/pull/15" xlink:title="pyinterp">
<ellipse fill="#31688e" stroke="black" cx="826.5" cy="-90" rx="50.09" ry="18"/>
<text text-anchor="middle" x="826.5" y="-86.3" font-family="Times,serif" font-size="14.00" fill="white">pyinterp</text>
</a>
</g>
</g>
<!-- topologytoolkit&#45;&gt;pyinterp -->
<!-- triqs -->
<g id="node48" class="node">
<title>triqs</title>
<g id="a_node48"><a xlink:href="https://github.com/conda-forge/triqs-feedstock/pull/4" xlink:title="triqs">
<ellipse fill="#31688e" stroke="black" cx="826.5" cy="-18" rx="35.19" ry="18"/>
<text text-anchor="middle" x="826.5" y="-14.3" font-family="Times,serif" font-size="14.00" fill="white">triqs</text>
</a>
</g>
</g>
<!-- pyinterp&#45;&gt;triqs -->
<!-- ros&#45;rostime -->
<g id="node49" class="node">
<title>ros&#45;rostime</title>
<g id="a_node49"><a xlink:href="https://github.com/conda-forge/ros-rostime-feedstock/pull/4" xlink:title="ros rostime">
<ellipse fill="#31688e" stroke="black" cx="1879.5" cy="-738" rx="64.5" ry="18"/>
<text text-anchor="middle" x="1879.5" y="-734.3" font-family="Times,serif" font-size="14.00" fill="white">ros rostime</text>
</a>
</g>
</g>
<!-- ros&#45;rosconsole -->
<g id="node50" class="node">
<title>ros&#45;rosconsole</title>
<ellipse fill="#fde725" stroke="black" cx="2060.5" cy="-666" rx="79.5" ry="18"/>
<text text-anchor="middle" x="2060.5" y="-662.3" font-family="Times,serif" font-size="14.00">ros rosconsole</text>
</g>
<!-- ros&#45;rostime&#45;&gt;ros&#45;rosconsole -->
<g id="edge46" class="edge">
<title>ros&#45;rostime&#45;&gt;ros&#45;rosconsole</title>
<path fill="none" stroke="black" d="M1915.69,-723C1943.53,-712.24 1982.24,-697.27 2012.63,-685.51"/>
<polygon fill="black" stroke="black" points="2014.12,-688.69 2022.18,-681.82 2011.59,-682.16 2014.12,-688.69"/>
</g>
<!-- ros&#45;rosbag&#45;storage -->
<g id="node51" class="node">
<title>ros&#45;rosbag&#45;storage</title>
<ellipse fill="#fde725" stroke="black" cx="1895.5" cy="-522" rx="99" ry="18"/>
<text text-anchor="middle" x="1895.5" y="-518.3" font-family="Times,serif" font-size="14.00">ros rosbag storage</text>
</g>
<!-- ros&#45;rostime&#45;&gt;ros&#45;rosbag&#45;storage -->
<g id="edge47" class="edge">
<title>ros&#45;rostime&#45;&gt;ros&#45;rosbag&#45;storage</title>
<path fill="none" stroke="black" d="M1943.84,-736.26C2001.19,-732.94 2085.55,-721.33 2148.5,-684 2195.73,-655.99 2243.94,-617.94 2208.5,-576 2182.23,-544.91 2082.11,-532.06 2002.08,-526.74"/>
<polygon fill="black" stroke="black" points="2002.13,-523.24 1991.93,-526.1 2001.69,-530.22 2002.13,-523.24"/>
</g>
<!-- ros&#45;rosbag -->
<g id="node52" class="node">
<title>ros&#45;rosbag</title>
<ellipse fill="#fde725" stroke="black" cx="1559.5" cy="-450" rx="60" ry="18"/>
<text text-anchor="middle" x="1559.5" y="-446.3" font-family="Times,serif" font-size="14.00">ros rosbag</text>
</g>
<!-- ros&#45;rostime&#45;&gt;ros&#45;rosbag -->
<g id="edge48" class="edge">
<title>ros&#45;rostime&#45;&gt;ros&#45;rosbag</title>
<path fill="none" stroke="black" d="M1815.93,-734.7C1702.17,-729.83 1468.73,-716.15 1394.5,-684 1349.38,-664.46 1331.05,-656.67 1310.5,-612 1289.18,-565.64 1309.21,-535.32 1349.5,-504 1389.57,-472.85 1445.77,-459.81 1489.95,-454.45"/>
<polygon fill="black" stroke="black" points="1490.49,-457.91 1500.04,-453.33 1489.72,-450.95 1490.49,-457.91"/>
</g>
<!-- ros&#45;actionlib -->
<g id="node53" class="node">
<title>ros&#45;actionlib</title>
<ellipse fill="#fde725" stroke="black" cx="1678.5" cy="-594" rx="74.19" ry="18"/>
<text text-anchor="middle" x="1678.5" y="-590.3" font-family="Times,serif" font-size="14.00">ros actionlib</text>
</g>
<!-- ros&#45;rostime&#45;&gt;ros&#45;actionlib -->
<g id="edge49" class="edge">
<title>ros&#45;rostime&#45;&gt;ros&#45;actionlib</title>
<path fill="none" stroke="black" d="M1850.94,-721.84C1832.65,-711.78 1808.67,-697.91 1788.5,-684 1758.74,-663.47 1726.83,-637.12 1705.09,-618.44"/>
<polygon fill="black" stroke="black" points="1707.13,-615.58 1697.28,-611.68 1702.55,-620.87 1707.13,-615.58"/>
</g>
<!-- ros&#45;rosconsole&#45;&gt;ros&#45;rosbag&#45;storage -->
<g id="edge50" class="edge">
<title>ros&#45;rosconsole&#45;&gt;ros&#45;rosbag&#45;storage</title>
<path fill="none" stroke="black" d="M2123.51,-654.96C2148.72,-647.52 2175.34,-634.55 2190.5,-612 2199.43,-598.72 2200.76,-588.27 2190.5,-576 2166.39,-547.17 2075.56,-534 2000.98,-528"/>
<polygon fill="black" stroke="black" points="2000.81,-524.47 1990.57,-527.2 2000.28,-531.45 2000.81,-524.47"/>
</g>
<!-- ros&#45;rosconsole&#45;&gt;ros&#45;rosbag -->
<g id="edge51" class="edge">
<title>ros&#45;rosconsole&#45;&gt;ros&#45;rosbag</title>
<path fill="none" stroke="black" d="M2130.83,-657.47C2159.83,-650.5 2190.75,-637.22 2208.5,-612 2217.71,-598.92 2217.75,-589.05 2208.5,-576 2142.1,-482.31 1782.81,-458.71 1629.21,-452.87"/>
<polygon fill="black" stroke="black" points="1629.07,-449.37 1618.95,-452.5 1628.82,-456.36 1629.07,-449.37"/>
</g>
<!-- ros&#45;rosconsole&#45;&gt;ros&#45;actionlib -->
<g id="edge52" class="edge">
<title>ros&#45;rosconsole&#45;&gt;ros&#45;actionlib</title>
<path fill="none" stroke="black" d="M1998.85,-654.57C1938.34,-644.21 1843.45,-627.65 1761.5,-612 1755.43,-610.84 1749.12,-609.6 1742.81,-608.35"/>
<polygon fill="black" stroke="black" points="1743.42,-604.9 1732.93,-606.36 1742.04,-611.76 1743.42,-604.9"/>
</g>
<!-- ros&#45;pluginlib -->
<g id="node54" class="node">
<title>ros&#45;pluginlib</title>
<ellipse fill="#fde725" stroke="black" cx="1844.5" cy="-594" rx="74.19" ry="18"/>
<text text-anchor="middle" x="1844.5" y="-590.3" font-family="Times,serif" font-size="14.00">ros pluginlib</text>
</g>
<!-- ros&#45;rosconsole&#45;&gt;ros&#45;pluginlib -->
<g id="edge53" class="edge">
<title>ros&#45;rosconsole&#45;&gt;ros&#45;pluginlib</title>
<path fill="none" stroke="black" d="M2017.05,-650.92C1982.33,-639.67 1933.56,-623.86 1896.72,-611.92"/>
<polygon fill="black" stroke="black" points="1897.74,-608.57 1887.14,-608.82 1895.58,-615.23 1897.74,-608.57"/>
</g>
<!-- ros&#45;message&#45;filters -->
<g id="node55" class="node">
<title>ros&#45;message&#45;filters</title>
<ellipse fill="#fde725" stroke="black" cx="2078.5" cy="-594" rx="103.5" ry="18"/>
<text text-anchor="middle" x="2078.5" y="-590.3" font-family="Times,serif" font-size="14.00">ros message filters</text>
</g>
<!-- ros&#45;rosconsole&#45;&gt;ros&#45;message&#45;filters -->
<g id="edge54" class="edge">
<title>ros&#45;rosconsole&#45;&gt;ros&#45;message&#45;filters</title>
<path fill="none" stroke="black" d="M2064.95,-647.7C2066.95,-639.9 2069.37,-630.51 2071.6,-621.83"/>
<polygon fill="black" stroke="black" points="2075,-622.66 2074.1,-612.1 2068.22,-620.92 2075,-622.66"/>
</g>
<!-- ros&#45;rosbag&#45;storage&#45;&gt;ros&#45;rosbag -->
<g id="edge55" class="edge">
<title>ros&#45;rosbag&#45;storage&#45;&gt;ros&#45;rosbag</title>
<path fill="none" stroke="black" d="M1833.09,-508C1771.28,-495.12 1677.42,-475.57 1617.28,-463.04"/>
<polygon fill="black" stroke="black" points="1617.7,-459.55 1607.19,-460.94 1616.27,-466.4 1617.7,-459.55"/>
</g>
<!-- ros&#45;pluginlib&#45;&gt;ros&#45;rosbag&#45;storage -->
<g id="edge61" class="edge">
<title>ros&#45;pluginlib&#45;&gt;ros&#45;rosbag&#45;storage</title>
<path fill="none" stroke="black" d="M1856.85,-576.05C1862.89,-567.75 1870.3,-557.58 1877.01,-548.38"/>
<polygon fill="black" stroke="black" points="1879.85,-550.42 1882.91,-540.28 1874.2,-546.3 1879.85,-550.42"/>
</g>
<!-- ros&#45;roslib -->
<g id="node56" class="node">
<title>ros&#45;roslib</title>
<g id="a_node56"><a xlink:href="https://github.com/conda-forge/ros-roslib-feedstock/pull/6" xlink:title="ros roslib">
<ellipse fill="#31688e" stroke="black" cx="1463.5" cy="-666" rx="60" ry="18"/>
<text text-anchor="middle" x="1463.5" y="-662.3" font-family="Times,serif" font-size="14.00" fill="white">ros roslib</text>
</a>
</g>
</g>
<!-- ros&#45;roslib&#45;&gt;ros&#45;rosbag&#45;storage -->
<g id="edge56" class="edge">
<title>ros&#45;roslib&#45;&gt;ros&#45;rosbag&#45;storage</title>
<path fill="none" stroke="black" d="M1409.77,-657.9C1381.43,-651.12 1349,-637.88 1331.5,-612 1322.54,-598.75 1320.73,-587.83 1331.5,-576 1361.57,-542.98 1632.89,-530.13 1787.99,-525.46"/>
<polygon fill="black" stroke="black" points="1788.14,-528.96 1798.03,-525.16 1787.93,-521.96 1788.14,-528.96"/>
</g>
<!-- ros&#45;roslib&#45;&gt;ros&#45;rosbag -->
<g id="edge57" class="edge">
<title>ros&#45;roslib&#45;&gt;ros&#45;rosbag</title>
<path fill="none" stroke="black" d="M1407.24,-659.51C1376.17,-653.27 1340.01,-640.04 1320.5,-612 1311.36,-598.87 1312.21,-589.69 1320.5,-576 1359.45,-511.67 1443.6,-478.86 1500.9,-463.34"/>
<polygon fill="black" stroke="black" points="1502.12,-466.64 1510.92,-460.73 1500.36,-459.86 1502.12,-466.64"/>
</g>
<!-- ros&#45;roslib&#45;&gt;ros&#45;actionlib -->
<g id="edge58" class="edge">
<title>ros&#45;roslib&#45;&gt;ros&#45;actionlib</title>
<path fill="none" stroke="black" d="M1502.93,-652.16C1537.54,-640.89 1588.14,-624.42 1626.14,-612.05"/>
<polygon fill="black" stroke="black" points="1627.58,-615.26 1636,-608.84 1625.41,-608.6 1627.58,-615.26"/>
</g>
<!-- ros&#45;roslib&#45;&gt;ros&#45;pluginlib -->
<g id="edge59" class="edge">
<title>ros&#45;roslib&#45;&gt;ros&#45;pluginlib</title>
<path fill="none" stroke="black" d="M1514.46,-656.35C1573.85,-646.18 1674.92,-628.56 1761.5,-612 1767.57,-610.84 1773.88,-609.6 1780.19,-608.34"/>
<polygon fill="black" stroke="black" points="1780.96,-611.76 1790.07,-606.36 1779.58,-604.9 1780.96,-611.76"/>
</g>
<!-- ros&#45;dynamic&#45;reconfigure -->
<g id="node57" class="node">
<title>ros&#45;dynamic&#45;reconfigure</title>
<ellipse fill="#fde725" stroke="black" cx="1463.5" cy="-594" rx="123" ry="18"/>
<text text-anchor="middle" x="1463.5" y="-590.3" font-family="Times,serif" font-size="14.00">ros dynamic reconfigure</text>
</g>
<!-- ros&#45;roslib&#45;&gt;ros&#45;dynamic&#45;reconfigure -->
<g id="edge60" class="edge">
<title>ros&#45;roslib&#45;&gt;ros&#45;dynamic&#45;reconfigure</title>
<path fill="none" stroke="black" d="M1463.5,-647.7C1463.5,-639.98 1463.5,-630.71 1463.5,-622.11"/>
<polygon fill="black" stroke="black" points="1467,-622.1 1463.5,-612.1 1460,-622.1 1467,-622.1"/>
</g>
<!-- ros&#45;rostest -->
<g id="node58" class="node">
<title>ros&#45;rostest</title>
<g id="a_node58"><a xlink:href="https://github.com/conda-forge/ros-rostest-feedstock/pull/2" xlink:title="ros rostest">
<ellipse fill="#31688e" stroke="black" cx="1862.5" cy="-666" rx="64.5" ry="18"/>
<text text-anchor="middle" x="1862.5" y="-662.3" font-family="Times,serif" font-size="14.00" fill="white">ros rostest</text>
</a>
</g>
</g>
<!-- ros&#45;rostest&#45;&gt;ros&#45;rosbag&#45;storage -->
<g id="edge62" class="edge">
<title>ros&#45;rostest&#45;&gt;ros&#45;rosbag&#45;storage</title>
<path fill="none" stroke="black" d="M1891.02,-649.83C1904.76,-640.84 1919.88,-628.05 1927.5,-612 1937.37,-591.22 1926.85,-566.54 1915.31,-548.44"/>
<polygon fill="black" stroke="black" points="1918.17,-546.42 1909.65,-540.13 1912.39,-550.37 1918.17,-546.42"/>
</g>
<!-- ros&#45;rostest&#45;&gt;ros&#45;actionlib -->
<g id="edge63" class="edge">
<title>ros&#45;rostest&#45;&gt;ros&#45;actionlib</title>
<path fill="none" stroke="black" d="M1825.71,-651C1797.13,-640.13 1757.27,-624.97 1726.23,-613.16"/>
<polygon fill="black" stroke="black" points="1727.09,-609.74 1716.49,-609.45 1724.6,-616.28 1727.09,-609.74"/>
</g>
<!-- ros&#45;rostest&#45;&gt;ros&#45;message&#45;filters -->
<g id="edge65" class="edge">
<title>ros&#45;rostest&#45;&gt;ros&#45;message&#45;filters</title>
<path fill="none" stroke="black" d="M1902.87,-651.92C1936.5,-641.02 1984.76,-625.38 2022.19,-613.25"/>
<polygon fill="black" stroke="black" points="2023.51,-616.5 2031.94,-610.09 2021.35,-609.84 2023.51,-616.5"/>
</g>
<!-- ros&#45;rostest&#45;&gt;ros&#45;dynamic&#45;reconfigure -->
<g id="edge64" class="edge">
<title>ros&#45;rostest&#45;&gt;ros&#45;dynamic&#45;reconfigure</title>
<path fill="none" stroke="black" d="M1809.52,-655.7C1743.04,-644.04 1628.19,-623.89 1549.17,-610.03"/>
<polygon fill="black" stroke="black" points="1549.68,-606.57 1539.23,-608.29 1548.47,-613.46 1549.68,-606.57"/>
</g>
<!-- gazebo -->
<g id="node59" class="node">
<title>gazebo</title>
<g id="a_node59"><a xlink:href="https://github.com/conda-forge/gazebo-feedstock/pull/6" xlink:title="gazebo">
<ellipse fill="#31688e" stroke="black" cx="2364.5" cy="-738" rx="40.5" ry="18"/>
<text text-anchor="middle" x="2364.5" y="-734.3" font-family="Times,serif" font-size="14.00" fill="white">gazebo</text>
</a>
</g>
</g>
<!-- gnuradio -->
<g id="node60" class="node">
<title>gnuradio</title>
<g id="a_node60"><a xlink:href="https://github.com/conda-forge/gnuradio-feedstock/pull/6" xlink:title="gnuradio">
<ellipse fill="#31688e" stroke="black" cx="2364.5" cy="-666" rx="50.09" ry="18"/>
<text text-anchor="middle" x="2364.5" y="-662.3" font-family="Times,serif" font-size="14.00" fill="white">gnuradio</text>
</a>
</g>
</g>
<!-- gazebo&#45;&gt;gnuradio -->
</g>
</svg>
