<?xml version="1.0" encoding="UTF-8" standalone="no"?>
<!DOCTYPE svg PUBLIC "-//W3C//DTD SVG 1.1//EN"
 "http://www.w3.org/Graphics/SVG/1.1/DTD/svg11.dtd">
<!-- Generated by graphviz version 2.42.3 (20191010.1750)
 -->
<!-- Title: %3 Pages: 1 -->
<svg width="1021pt" height="404pt"
 viewBox="0.00 0.00 1021.00 404.00" xmlns="http://www.w3.org/2000/svg" xmlns:xlink="http://www.w3.org/1999/xlink">
<g id="graph0" class="graph" transform="scale(1 1) rotate(0) translate(4 400)">
<title>%3</title>
<polygon fill="white" stroke="transparent" points="-4,4 -4,-400 1017,-400 1017,4 -4,4"/>
<!-- avrocpp -->
<g id="node1" class="node">
<title>avrocpp</title>
<g id="a_node1"><a xlink:href="https://github.com/conda-forge/avrocpp-feedstock/pull/8" xlink:title="avrocpp">
<ellipse fill="#31688e" stroke="black" cx="45" cy="-90" rx="45" ry="18"/>
<text text-anchor="middle" x="45" y="-86.3" font-family="Times,serif" font-size="14.00" fill="white">avrocpp</text>
</a>
</g>
</g>
<!-- conda&#45;forge&#45;pinning -->
<g id="node2" class="node">
<title>conda&#45;forge&#45;pinning</title>
<ellipse fill="none" stroke="black" cx="488" cy="-18" rx="103.5" ry="18"/>
<text text-anchor="middle" x="488" y="-14.3" font-family="Times,serif" font-size="14.00">conda&#45;forge&#45;pinning</text>
</g>
<!-- avrocpp&#45;&gt;conda&#45;forge&#45;pinning -->
<g id="edge1" class="edge">
<title>avrocpp&#45;&gt;conda&#45;forge&#45;pinning</title>
<path fill="none" stroke="black" d="M79.42,-78.18C87.43,-75.92 95.97,-73.7 104,-72 200.24,-51.6 311.79,-37.22 389.77,-28.63"/>
<polygon fill="black" stroke="black" points="390.51,-32.07 400.07,-27.51 389.75,-25.11 390.51,-32.07"/>
</g>
<!-- caffe -->
<g id="node3" class="node">
<title>caffe</title>
<g id="a_node3"><a xlink:href="https://github.com/conda-forge/caffe-feedstock/pull/57" xlink:title="caffe">
<ellipse fill="#31688e" stroke="black" cx="106" cy="-162" rx="35.19" ry="18"/>
<text text-anchor="middle" x="106" y="-158.3" font-family="Times,serif" font-size="14.00" fill="white">caffe</text>
</a>
</g>
</g>
<!-- caffe&#45;&gt;conda&#45;forge&#45;pinning -->
<g id="edge2" class="edge">
<title>caffe&#45;&gt;conda&#45;forge&#45;pinning</title>
<path fill="none" stroke="black" d="M110.46,-143.82C116.75,-123.23 130.32,-89.34 155,-72 190.9,-46.77 298.94,-32.91 382.32,-25.76"/>
<polygon fill="black" stroke="black" points="382.69,-29.24 392.36,-24.92 382.1,-22.27 382.69,-29.24"/>
</g>
<!-- gap -->
<g id="node4" class="node">
<title>gap</title>
<g id="a_node4"><a xlink:href="https://github.com/conda-forge/gap-feedstock" xlink:title="gap">
<ellipse fill="#fde725" stroke="black" cx="224" cy="-162" rx="27" ry="18"/>
<text text-anchor="middle" x="224" y="-158.3" font-family="Times,serif" font-size="14.00">gap</text>
</a>
</g>
</g>
<!-- gap&#45;&gt;conda&#45;forge&#45;pinning -->
<g id="edge3" class="edge">
<title>gap&#45;&gt;conda&#45;forge&#45;pinning</title>
<path fill="none" stroke="black" d="M218.73,-144.09C213.73,-124.4 209.24,-92.03 226,-72 246.43,-47.59 320.18,-34.13 384.25,-26.88"/>
<polygon fill="black" stroke="black" points="384.87,-30.33 394.44,-25.77 384.12,-23.37 384.87,-30.33"/>
</g>
<!-- sagelib -->
<g id="node5" class="node">
<title>sagelib</title>
<g id="a_node5"><a xlink:href="https://github.com/conda-forge/sagelib-feedstock" xlink:title="sagelib">
<ellipse fill="#fde725" stroke="black" cx="280" cy="-90" rx="45" ry="18"/>
<text text-anchor="middle" x="280" y="-86.3" font-family="Times,serif" font-size="14.00">sagelib</text>
</a>
</g>
</g>
<!-- gap&#45;&gt;sagelib -->
<g id="edge4" class="edge">
<title>gap&#45;&gt;sagelib</title>
<path fill="none" stroke="black" d="M236.15,-145.81C243.19,-137.02 252.22,-125.73 260.25,-115.69"/>
<polygon fill="black" stroke="black" points="263.18,-117.62 266.7,-107.63 257.72,-113.25 263.18,-117.62"/>
</g>
<!-- sagelib&#45;&gt;conda&#45;forge&#45;pinning -->
<g id="edge5" class="edge">
<title>sagelib&#45;&gt;conda&#45;forge&#45;pinning</title>
<path fill="none" stroke="black" d="M313.42,-77.75C345.57,-66.93 394.76,-50.38 432.75,-37.59"/>
<polygon fill="black" stroke="black" points="434.28,-40.77 442.64,-34.27 432.05,-34.14 434.28,-40.77"/>
</g>
<!-- libcmaes -->
<g id="node6" class="node">
<title>libcmaes</title>
<g id="a_node6"><a xlink:href="https://github.com/conda-forge/libcmaes-feedstock/pull/12" xlink:title="libcmaes">
<ellipse fill="#31688e" stroke="black" cx="313" cy="-234" rx="50.09" ry="18"/>
<text text-anchor="middle" x="313" y="-230.3" font-family="Times,serif" font-size="14.00" fill="white">libcmaes</text>
</a>
</g>
</g>
<!-- libcmaes&#45;&gt;conda&#45;forge&#45;pinning -->
<g id="edge6" class="edge">
<title>libcmaes&#45;&gt;conda&#45;forge&#45;pinning</title>
<path fill="none" stroke="black" d="M315.6,-215.75C321.28,-183.65 337.56,-114.18 377,-72 390.97,-57.05 410.04,-45.87 428.42,-37.73"/>
<polygon fill="black" stroke="black" points="429.78,-40.95 437.65,-33.86 427.08,-34.5 429.78,-40.95"/>
</g>
<!-- pyne -->
<g id="node7" class="node">
<title>pyne</title>
<g id="a_node7"><a xlink:href="https://github.com/conda-forge/pyne-feedstock/pull/39" xlink:title="pyne">
<ellipse fill="#31688e" stroke="black" cx="370" cy="-306" rx="30.59" ry="18"/>
<text text-anchor="middle" x="370" y="-302.3" font-family="Times,serif" font-size="14.00" fill="white">pyne</text>
</a>
</g>
</g>
<!-- pyne&#45;&gt;conda&#45;forge&#45;pinning -->
<g id="edge7" class="edge">
<title>pyne&#45;&gt;conda&#45;forge&#45;pinning</title>
<path fill="none" stroke="black" d="M371.66,-288C376.52,-240.64 391.88,-108.32 415,-72 422.92,-59.56 434.88,-49.1 446.85,-40.85"/>
<polygon fill="black" stroke="black" points="449.02,-43.61 455.51,-35.24 445.21,-37.74 449.02,-43.61"/>
</g>
<!-- zwatershed -->
<g id="node8" class="node">
<title>zwatershed</title>
<g id="a_node8"><a xlink:href="https://github.com/conda-forge/zwatershed-feedstock/pull/15" xlink:title="zwatershed">
<ellipse fill="#31688e" stroke="black" cx="429" cy="-378" rx="60" ry="18"/>
<text text-anchor="middle" x="429" y="-374.3" font-family="Times,serif" font-size="14.00" fill="white">zwatershed</text>
</a>
</g>
</g>
<!-- zwatershed&#45;&gt;conda&#45;forge&#45;pinning -->
<g id="edge8" class="edge">
<title>zwatershed&#45;&gt;conda&#45;forge&#45;pinning</title>
<path fill="none" stroke="black" d="M429,-359.95C429,-333.29 429,-280.11 429,-235 429,-235 429,-235 429,-161 429,-120.55 431.2,-108.79 448,-72 452.53,-62.09 459.16,-52.28 465.73,-43.83"/>
<polygon fill="black" stroke="black" points="468.59,-45.86 472.2,-35.9 463.17,-41.44 468.59,-45.86"/>
</g>
<!-- alps -->
<g id="node9" class="node">
<title>alps</title>
<g id="a_node9"><a xlink:href="https://github.com/conda-forge/alps-feedstock/pull/30" xlink:title="alps">
<ellipse fill="#31688e" stroke="black" cx="488" cy="-90" rx="30.59" ry="18"/>
<text text-anchor="middle" x="488" y="-86.3" font-family="Times,serif" font-size="14.00" fill="white">alps</text>
</a>
</g>
</g>
<!-- alps&#45;&gt;conda&#45;forge&#45;pinning -->
<g id="edge9" class="edge">
<title>alps&#45;&gt;conda&#45;forge&#45;pinning</title>
<path fill="none" stroke="black" d="M488,-71.7C488,-63.98 488,-54.71 488,-46.11"/>
<polygon fill="black" stroke="black" points="491.5,-46.1 488,-36.1 484.5,-46.1 491.5,-46.1"/>
</g>
<!-- clfft -->
<g id="node10" class="node">
<title>clfft</title>
<g id="a_node10"><a xlink:href="https://github.com/conda-forge/clfft-feedstock/pull/10" xlink:title="clfft">
<ellipse fill="#31688e" stroke="black" cx="522" cy="-162" rx="35.19" ry="18"/>
<text text-anchor="middle" x="522" y="-158.3" font-family="Times,serif" font-size="14.00" fill="white">clfft</text>
</a>
</g>
</g>
<!-- clfft&#45;&gt;conda&#45;forge&#45;pinning -->
<g id="edge10" class="edge">
<title>clfft&#45;&gt;conda&#45;forge&#45;pinning</title>
<path fill="none" stroke="black" d="M526.89,-144.11C531.34,-125.83 536.07,-96.08 528,-72 524.59,-61.83 518.38,-52.06 511.86,-43.73"/>
<polygon fill="black" stroke="black" points="514.42,-41.35 505.32,-35.93 509.06,-45.84 514.42,-41.35"/>
</g>
<!-- spdlib -->
<g id="node11" class="node">
<title>spdlib</title>
<g id="a_node11"><a xlink:href="https://github.com/conda-forge/spdlib-feedstock/pull/16" xlink:title="spdlib">
<ellipse fill="#31688e" stroke="black" cx="554" cy="-234" rx="40.5" ry="18"/>
<text text-anchor="middle" x="554" y="-230.3" font-family="Times,serif" font-size="14.00" fill="white">spdlib</text>
</a>
</g>
</g>
<!-- spdlib&#45;&gt;conda&#45;forge&#45;pinning -->
<g id="edge11" class="edge">
<title>spdlib&#45;&gt;conda&#45;forge&#45;pinning</title>
<path fill="none" stroke="black" d="M558.87,-215.98C561.56,-205.67 564.64,-192.19 566,-180 571.43,-131.4 570.67,-113.62 545,-72 538.18,-60.95 528.45,-50.73 518.96,-42.27"/>
<polygon fill="black" stroke="black" points="520.99,-39.4 511.1,-35.6 516.46,-44.74 520.99,-39.4"/>
</g>
<!-- helics -->
<g id="node12" class="node">
<title>helics</title>
<g id="a_node12"><a xlink:href="https://github.com/conda-forge/helics-feedstock/pull/18" xlink:title="helics">
<ellipse fill="#31688e" stroke="black" cx="592" cy="-306" rx="40.5" ry="18"/>
<text text-anchor="middle" x="592" y="-302.3" font-family="Times,serif" font-size="14.00" fill="white">helics</text>
</a>
</g>
</g>
<!-- helics&#45;&gt;conda&#45;forge&#45;pinning -->
<g id="edge12" class="edge">
<title>helics&#45;&gt;conda&#45;forge&#45;pinning</title>
<path fill="none" stroke="black" d="M596.46,-287.95C598.94,-277.63 601.75,-264.15 603,-252 611.32,-170.93 614.83,-138.7 568,-72 558.89,-59.02 545.5,-48.37 532.27,-40.11"/>
<polygon fill="black" stroke="black" points="534.04,-37.09 523.65,-35.02 530.48,-43.12 534.04,-37.09"/>
</g>
<!-- normaliz -->
<g id="node13" class="node">
<title>normaliz</title>
<g id="a_node13"><a xlink:href="https://github.com/conda-forge/normaliz-feedstock/pull/19" xlink:title="normaliz">
<ellipse fill="#31688e" stroke="black" cx="182" cy="-234" rx="50.09" ry="18"/>
<text text-anchor="middle" x="182" y="-230.3" font-family="Times,serif" font-size="14.00" fill="white">normaliz</text>
</a>
</g>
</g>
<!-- normaliz&#45;&gt;conda&#45;forge&#45;pinning -->
<g id="edge13" class="edge">
<title>normaliz&#45;&gt;conda&#45;forge&#45;pinning</title>
<path fill="none" stroke="black" d="M179.06,-215.93C174.4,-182.54 169.66,-108.65 211,-72 236.83,-49.1 318.25,-35.35 386.18,-27.61"/>
<polygon fill="black" stroke="black" points="386.97,-31.05 396.53,-26.47 386.2,-24.09 386.97,-31.05"/>
</g>
<!-- normaliz&#45;&gt;gap -->
<g id="edge14" class="edge">
<title>normaliz&#45;&gt;gap</title>
<path fill="none" stroke="black" d="M192.17,-216.05C197.19,-207.68 203.36,-197.4 208.92,-188.13"/>
<polygon fill="black" stroke="black" points="212.07,-189.68 214.22,-179.31 206.07,-186.08 212.07,-189.68"/>
</g>
<!-- esys&#45;escript -->
<g id="node14" class="node">
<title>esys&#45;escript</title>
<g id="a_node14"><a xlink:href="https://github.com/conda-forge/esys-escript-feedstock" xlink:title="esys escript">
<ellipse fill="#35b779" stroke="black" cx="661" cy="-378" rx="69.59" ry="18"/>
<text text-anchor="middle" x="661" y="-374.3" font-family="Times,serif" font-size="14.00">esys escript</text>
</a>
</g>
</g>
<!-- esys&#45;escript&#45;&gt;conda&#45;forge&#45;pinning -->
<g id="edge15" class="edge">
<title>esys&#45;escript&#45;&gt;conda&#45;forge&#45;pinning</title>
<path fill="none" stroke="black" d="M661,-359.95C661,-333.29 661,-280.11 661,-235 661,-235 661,-235 661,-161 661,-99.31 594.46,-59.52 543.91,-38.19"/>
<polygon fill="black" stroke="black" points="544.94,-34.83 534.36,-34.3 542.3,-41.32 544.94,-34.83"/>
</g>
<!-- xmsinterp -->
<g id="node15" class="node">
<title>xmsinterp</title>
<g id="a_node15"><a xlink:href="https://github.com/conda-forge/xmsinterp-feedstock/pull/6" xlink:title="xmsinterp">
<ellipse fill="#31688e" stroke="black" cx="787" cy="-234" rx="54.69" ry="18"/>
<text text-anchor="middle" x="787" y="-230.3" font-family="Times,serif" font-size="14.00" fill="white">xmsinterp</text>
</a>
</g>
</g>
<!-- xmsinterp&#45;&gt;conda&#45;forge&#45;pinning -->
<g id="edge16" class="edge">
<title>xmsinterp&#45;&gt;conda&#45;forge&#45;pinning</title>
<path fill="none" stroke="black" d="M761.25,-218.07C746.91,-208.67 729.66,-195.42 718,-180 686.84,-138.79 713.36,-106.61 675,-72 650.81,-50.18 618.27,-37.27 587.11,-29.67"/>
<polygon fill="black" stroke="black" points="587.59,-26.19 577.06,-27.38 586.03,-33.01 587.59,-26.19"/>
</g>
<!-- xmsstamper -->
<g id="node16" class="node">
<title>xmsstamper</title>
<g id="a_node16"><a xlink:href="https://github.com/conda-forge/xmsstamper-feedstock" xlink:title="xmsstamper">
<ellipse fill="#fde725" stroke="black" cx="787" cy="-162" rx="60" ry="18"/>
<text text-anchor="middle" x="787" y="-158.3" font-family="Times,serif" font-size="14.00">xmsstamper</text>
</a>
</g>
</g>
<!-- xmsinterp&#45;&gt;xmsstamper -->
<g id="edge17" class="edge">
<title>xmsinterp&#45;&gt;xmsstamper</title>
<path fill="none" stroke="black" d="M787,-215.7C787,-207.98 787,-198.71 787,-190.11"/>
<polygon fill="black" stroke="black" points="790.5,-190.1 787,-180.1 783.5,-190.1 790.5,-190.1"/>
</g>
<!-- xmsmesher -->
<g id="node17" class="node">
<title>xmsmesher</title>
<g id="a_node17"><a xlink:href="https://github.com/conda-forge/xmsmesher-feedstock" xlink:title="xmsmesher">
<ellipse fill="#fde725" stroke="black" cx="820" cy="-90" rx="54.69" ry="18"/>
<text text-anchor="middle" x="820" y="-86.3" font-family="Times,serif" font-size="14.00">xmsmesher</text>
</a>
</g>
</g>
<!-- xmsinterp&#45;&gt;xmsmesher -->
<g id="edge18" class="edge">
<title>xmsinterp&#45;&gt;xmsmesher</title>
<path fill="none" stroke="black" d="M816.51,-218.66C831.27,-209.76 847.72,-196.8 856,-180 866.45,-158.8 854.28,-133.78 841.34,-115.68"/>
<polygon fill="black" stroke="black" points="843.87,-113.22 835.02,-107.39 838.3,-117.47 843.87,-113.22"/>
</g>
<!-- xmsstamper&#45;&gt;conda&#45;forge&#45;pinning -->
<g id="edge19" class="edge">
<title>xmsstamper&#45;&gt;conda&#45;forge&#45;pinning</title>
<path fill="none" stroke="black" d="M777.61,-144.06C765.42,-123.72 742.22,-90.08 713,-72 675.72,-48.93 629.29,-35.89 588.3,-28.53"/>
<polygon fill="black" stroke="black" points="588.73,-25.06 578.28,-26.83 587.55,-31.96 588.73,-25.06"/>
</g>
<!-- xmsmesher&#45;&gt;conda&#45;forge&#45;pinning -->
<g id="edge20" class="edge">
<title>xmsmesher&#45;&gt;conda&#45;forge&#45;pinning</title>
<path fill="none" stroke="black" d="M778.11,-78.37C769.18,-76.19 759.79,-73.97 751,-72 688.66,-58.04 617.62,-43.83 565.1,-33.64"/>
<polygon fill="black" stroke="black" points="565.67,-30.18 555.19,-31.72 564.34,-37.06 565.67,-30.18"/>
</g>
<!-- dicomifier -->
<g id="node18" class="node">
<title>dicomifier</title>
<g id="a_node18"><a xlink:href="https://github.com/conda-forge/dicomifier-feedstock/pull/3" xlink:title="dicomifier">
<ellipse fill="#31688e" stroke="black" cx="953" cy="-90" rx="60" ry="18"/>
<text text-anchor="middle" x="953" y="-86.3" font-family="Times,serif" font-size="14.00" fill="white">dicomifier</text>
</a>
</g>
</g>
<!-- dicomifier&#45;&gt;conda&#45;forge&#45;pinning -->
<g id="edge21" class="edge">
<title>dicomifier&#45;&gt;conda&#45;forge&#45;pinning</title>
<path fill="none" stroke="black" d="M909.35,-77.49C900.97,-75.49 892.24,-73.56 884,-72 782.7,-52.8 665.53,-38.03 585.07,-29.02"/>
<polygon fill="black" stroke="black" points="585.28,-25.52 574.95,-27.89 584.51,-32.47 585.28,-25.52"/>
</g>
</g>
</svg>
