<?xml version="1.0" encoding="UTF-8" standalone="no"?>
<!DOCTYPE svg PUBLIC "-//W3C//DTD SVG 1.1//EN"
 "http://www.w3.org/Graphics/SVG/1.1/DTD/svg11.dtd">
<!-- Generated by graphviz version 2.42.3 (20191010.1750)
 -->
<!-- Title: %3 Pages: 1 -->
<svg width="923pt" height="404pt"
 viewBox="0.00 0.00 922.60 404.00" xmlns="http://www.w3.org/2000/svg" xmlns:xlink="http://www.w3.org/1999/xlink">
<g id="graph0" class="graph" transform="scale(1 1) rotate(0) translate(4 400)">
<title>%3</title>
<polygon fill="white" stroke="transparent" points="-4,4 -4,-400 918.6,-400 918.6,4 -4,4"/>
<!-- avrocpp -->
<g id="node1" class="node">
<title>avrocpp</title>
<g id="a_node1"><a xlink:href="https://github.com/conda-forge/avrocpp-feedstock/pull/8" xlink:title="avrocpp">
<ellipse fill="#31688e" stroke="black" cx="45" cy="-90" rx="45" ry="18"/>
<text text-anchor="middle" x="45" y="-86.3" font-family="Times,serif" font-size="14.00" fill="white">avrocpp</text>
</a>
</g>
</g>
<!-- conda&#45;forge&#45;pinning -->
<g id="node2" class="node">
<title>conda&#45;forge&#45;pinning</title>
<ellipse fill="none" stroke="black" cx="458" cy="-18" rx="103.5" ry="18"/>
<text text-anchor="middle" x="458" y="-14.3" font-family="Times,serif" font-size="14.00">conda&#45;forge&#45;pinning</text>
</g>
<!-- avrocpp&#45;&gt;conda&#45;forge&#45;pinning -->
<g id="edge1" class="edge">
<title>avrocpp&#45;&gt;conda&#45;forge&#45;pinning</title>
<path fill="none" stroke="black" d="M79.44,-78.25C87.45,-75.98 95.98,-73.75 104,-72 190.95,-53.05 291.4,-38.72 363.03,-29.76"/>
<polygon fill="black" stroke="black" points="363.89,-33.18 373.39,-28.48 363.03,-26.24 363.89,-33.18"/>
</g>
<!-- caffe -->
<g id="node3" class="node">
<title>caffe</title>
<g id="a_node3"><a xlink:href="https://github.com/conda-forge/caffe-feedstock/pull/57" xlink:title="caffe">
<ellipse fill="#31688e" stroke="black" cx="106" cy="-162" rx="35.19" ry="18"/>
<text text-anchor="middle" x="106" y="-158.3" font-family="Times,serif" font-size="14.00" fill="white">caffe</text>
</a>
</g>
</g>
<!-- caffe&#45;&gt;conda&#45;forge&#45;pinning -->
<g id="edge2" class="edge">
<title>caffe&#45;&gt;conda&#45;forge&#45;pinning</title>
<path fill="none" stroke="black" d="M110.5,-143.88C116.84,-123.35 130.46,-89.53 155,-72 186.76,-49.31 281.05,-35.25 356.1,-27.36"/>
<polygon fill="black" stroke="black" points="356.5,-30.84 366.09,-26.34 355.78,-23.88 356.5,-30.84"/>
</g>
<!-- gap -->
<g id="node4" class="node">
<title>gap</title>
<g id="a_node4"><a xlink:href="https://github.com/conda-forge/gap-feedstock" xlink:title="gap">
<ellipse fill="#fde725" stroke="black" cx="224" cy="-162" rx="27" ry="18"/>
<text text-anchor="middle" x="224" y="-158.3" font-family="Times,serif" font-size="14.00">gap</text>
</a>
</g>
</g>
<!-- gap&#45;&gt;conda&#45;forge&#45;pinning -->
<g id="edge3" class="edge">
<title>gap&#45;&gt;conda&#45;forge&#45;pinning</title>
<path fill="none" stroke="black" d="M218.81,-144.16C213.91,-124.54 209.49,-92.24 226,-72 243.4,-50.67 305.54,-37.19 361.13,-29.16"/>
<polygon fill="black" stroke="black" points="361.65,-32.62 371.07,-27.77 360.68,-25.69 361.65,-32.62"/>
</g>
<!-- sagelib -->
<g id="node5" class="node">
<title>sagelib</title>
<g id="a_node5"><a xlink:href="https://github.com/conda-forge/sagelib-feedstock" xlink:title="sagelib">
<ellipse fill="#fde725" stroke="black" cx="280" cy="-90" rx="45" ry="18"/>
<text text-anchor="middle" x="280" y="-86.3" font-family="Times,serif" font-size="14.00">sagelib</text>
</a>
</g>
</g>
<!-- gap&#45;&gt;sagelib -->
<g id="edge4" class="edge">
<title>gap&#45;&gt;sagelib</title>
<path fill="none" stroke="black" d="M236.15,-145.81C243.19,-137.02 252.22,-125.73 260.25,-115.69"/>
<polygon fill="black" stroke="black" points="263.18,-117.62 266.7,-107.63 257.72,-113.25 263.18,-117.62"/>
</g>
<!-- sagelib&#45;&gt;conda&#45;forge&#45;pinning -->
<g id="edge5" class="edge">
<title>sagelib&#45;&gt;conda&#45;forge&#45;pinning</title>
<path fill="none" stroke="black" d="M311.01,-76.81C337.91,-66.23 377.32,-50.73 408.57,-38.44"/>
<polygon fill="black" stroke="black" points="409.96,-41.65 417.98,-34.74 407.4,-35.14 409.96,-41.65"/>
</g>
<!-- libcmaes -->
<g id="node6" class="node">
<title>libcmaes</title>
<g id="a_node6"><a xlink:href="https://github.com/conda-forge/libcmaes-feedstock/pull/12" xlink:title="libcmaes">
<ellipse fill="#31688e" stroke="black" cx="313" cy="-234" rx="50.09" ry="18"/>
<text text-anchor="middle" x="313" y="-230.3" font-family="Times,serif" font-size="14.00" fill="white">libcmaes</text>
</a>
</g>
</g>
<!-- libcmaes&#45;&gt;conda&#45;forge&#45;pinning -->
<g id="edge6" class="edge">
<title>libcmaes&#45;&gt;conda&#45;forge&#45;pinning</title>
<path fill="none" stroke="black" d="M316.25,-215.74C322.92,-184.22 340.66,-116.5 377,-72 387.29,-59.4 401.38,-48.75 414.92,-40.38"/>
<polygon fill="black" stroke="black" points="416.86,-43.3 423.7,-35.21 413.31,-37.27 416.86,-43.3"/>
</g>
<!-- pyne -->
<g id="node7" class="node">
<title>pyne</title>
<g id="a_node7"><a xlink:href="https://github.com/conda-forge/pyne-feedstock/pull/39" xlink:title="pyne">
<ellipse fill="#31688e" stroke="black" cx="370" cy="-306" rx="30.59" ry="18"/>
<text text-anchor="middle" x="370" y="-302.3" font-family="Times,serif" font-size="14.00" fill="white">pyne</text>
</a>
</g>
</g>
<!-- pyne&#45;&gt;conda&#45;forge&#45;pinning -->
<g id="edge7" class="edge">
<title>pyne&#45;&gt;conda&#45;forge&#45;pinning</title>
<path fill="none" stroke="black" d="M370.49,-287.75C372.23,-247.89 380.01,-147.06 415,-72 419.7,-61.91 426.75,-52.08 433.78,-43.69"/>
<polygon fill="black" stroke="black" points="436.46,-45.94 440.44,-36.12 431.21,-41.31 436.46,-45.94"/>
</g>
<!-- zwatershed -->
<g id="node8" class="node">
<title>zwatershed</title>
<g id="a_node8"><a xlink:href="https://github.com/conda-forge/zwatershed-feedstock/pull/15" xlink:title="zwatershed">
<ellipse fill="#31688e" stroke="black" cx="429" cy="-378" rx="60" ry="18"/>
<text text-anchor="middle" x="429" y="-374.3" font-family="Times,serif" font-size="14.00" fill="white">zwatershed</text>
</a>
</g>
</g>
<!-- zwatershed&#45;&gt;conda&#45;forge&#45;pinning -->
<g id="edge8" class="edge">
<title>zwatershed&#45;&gt;conda&#45;forge&#45;pinning</title>
<path fill="none" stroke="black" d="M429,-359.95C429,-333.29 429,-280.11 429,-235 429,-235 429,-235 429,-161 429,-120.21 440.63,-74.15 449.16,-45.84"/>
<polygon fill="black" stroke="black" points="452.51,-46.84 452.13,-36.26 445.82,-44.77 452.51,-46.84"/>
</g>
<!-- alps -->
<g id="node9" class="node">
<title>alps</title>
<g id="a_node9"><a xlink:href="https://github.com/conda-forge/alps-feedstock/pull/30" xlink:title="alps">
<ellipse fill="#31688e" stroke="black" cx="488" cy="-90" rx="30.59" ry="18"/>
<text text-anchor="middle" x="488" y="-86.3" font-family="Times,serif" font-size="14.00" fill="white">alps</text>
</a>
</g>
</g>
<!-- alps&#45;&gt;conda&#45;forge&#45;pinning -->
<g id="edge9" class="edge">
<title>alps&#45;&gt;conda&#45;forge&#45;pinning</title>
<path fill="none" stroke="black" d="M480.89,-72.41C477.43,-64.34 473.18,-54.43 469.29,-45.35"/>
<polygon fill="black" stroke="black" points="472.42,-43.77 465.27,-35.96 465.99,-46.53 472.42,-43.77"/>
</g>
<!-- clfft -->
<g id="node10" class="node">
<title>clfft</title>
<g id="a_node10"><a xlink:href="https://github.com/conda-forge/clfft-feedstock/pull/10" xlink:title="clfft">
<ellipse fill="#31688e" stroke="black" cx="522" cy="-162" rx="35.19" ry="18"/>
<text text-anchor="middle" x="522" y="-158.3" font-family="Times,serif" font-size="14.00" fill="white">clfft</text>
</a>
</g>
</g>
<!-- clfft&#45;&gt;conda&#45;forge&#45;pinning -->
<g id="edge10" class="edge">
<title>clfft&#45;&gt;conda&#45;forge&#45;pinning</title>
<path fill="none" stroke="black" d="M528.05,-143.93C533.59,-125.24 539.38,-94.88 528,-72 521.78,-59.49 511.04,-49.15 499.82,-41.02"/>
<polygon fill="black" stroke="black" points="501.46,-37.91 491.21,-35.24 497.56,-43.72 501.46,-37.91"/>
</g>
<!-- spdlib -->
<g id="node11" class="node">
<title>spdlib</title>
<g id="a_node11"><a xlink:href="https://github.com/conda-forge/spdlib-feedstock/pull/16" xlink:title="spdlib">
<ellipse fill="#31688e" stroke="black" cx="554" cy="-234" rx="40.5" ry="18"/>
<text text-anchor="middle" x="554" y="-230.3" font-family="Times,serif" font-size="14.00" fill="white">spdlib</text>
</a>
</g>
</g>
<!-- spdlib&#45;&gt;conda&#45;forge&#45;pinning -->
<g id="edge11" class="edge">
<title>spdlib&#45;&gt;conda&#45;forge&#45;pinning</title>
<path fill="none" stroke="black" d="M558.87,-215.98C561.56,-205.67 564.64,-192.19 566,-180 571.42,-131.49 575.54,-110.87 546,-72 535.72,-58.48 520.91,-47.68 506.37,-39.45"/>
<polygon fill="black" stroke="black" points="507.86,-36.28 497.39,-34.66 504.56,-42.46 507.86,-36.28"/>
</g>
<!-- helics -->
<g id="node12" class="node">
<title>helics</title>
<g id="a_node12"><a xlink:href="https://github.com/conda-forge/helics-feedstock/pull/18" xlink:title="helics">
<ellipse fill="#31688e" stroke="black" cx="592" cy="-306" rx="40.5" ry="18"/>
<text text-anchor="middle" x="592" y="-302.3" font-family="Times,serif" font-size="14.00" fill="white">helics</text>
</a>
</g>
</g>
<!-- helics&#45;&gt;conda&#45;forge&#45;pinning -->
<g id="edge12" class="edge">
<title>helics&#45;&gt;conda&#45;forge&#45;pinning</title>
<path fill="none" stroke="black" d="M596.46,-287.95C598.94,-277.63 601.75,-264.15 603,-252 611.31,-171.09 620.95,-135.39 570,-72 557.55,-56.51 539.5,-45.3 521.51,-37.29"/>
<polygon fill="black" stroke="black" points="522.71,-34 512.14,-33.39 520.02,-40.46 522.71,-34"/>
</g>
<!-- normaliz -->
<g id="node13" class="node">
<title>normaliz</title>
<g id="a_node13"><a xlink:href="https://github.com/conda-forge/normaliz-feedstock/pull/19" xlink:title="normaliz">
<ellipse fill="#31688e" stroke="black" cx="182" cy="-234" rx="50.09" ry="18"/>
<text text-anchor="middle" x="182" y="-230.3" font-family="Times,serif" font-size="14.00" fill="white">normaliz</text>
</a>
</g>
</g>
<!-- normaliz&#45;&gt;conda&#45;forge&#45;pinning -->
<g id="edge13" class="edge">
<title>normaliz&#45;&gt;conda&#45;forge&#45;pinning</title>
<path fill="none" stroke="black" d="M179.13,-216.01C174.6,-182.76 170.08,-109.1 211,-72 233.31,-51.78 302.74,-38 362.33,-29.57"/>
<polygon fill="black" stroke="black" points="363.13,-32.99 372.56,-28.16 362.18,-26.06 363.13,-32.99"/>
</g>
<!-- normaliz&#45;&gt;gap -->
<g id="edge14" class="edge">
<title>normaliz&#45;&gt;gap</title>
<path fill="none" stroke="black" d="M192.17,-216.05C197.19,-207.68 203.36,-197.4 208.92,-188.13"/>
<polygon fill="black" stroke="black" points="212.07,-189.68 214.22,-179.31 206.07,-186.08 212.07,-189.68"/>
</g>
<!-- esys&#45;escript -->
<g id="node14" class="node">
<title>esys&#45;escript</title>
<g id="a_node14"><a xlink:href="https://github.com/conda-forge/esys-escript-feedstock" xlink:title="esys escript">
<ellipse fill="#35b779" stroke="black" cx="661" cy="-378" rx="69.59" ry="18"/>
<text text-anchor="middle" x="661" y="-374.3" font-family="Times,serif" font-size="14.00">esys escript</text>
</a>
</g>
</g>
<!-- esys&#45;escript&#45;&gt;conda&#45;forge&#45;pinning -->
<g id="edge15" class="edge">
<title>esys&#45;escript&#45;&gt;conda&#45;forge&#45;pinning</title>
<path fill="none" stroke="black" d="M661,-359.95C661,-333.29 661,-280.11 661,-235 661,-235 661,-235 661,-161 661,-93.47 584.64,-55.36 525.59,-35.99"/>
<polygon fill="black" stroke="black" points="526.49,-32.6 515.9,-32.92 524.38,-39.27 526.49,-32.6"/>
</g>
<!-- xmsinterp -->
<g id="node15" class="node">
<title>xmsinterp</title>
<g id="a_node15"><a xlink:href="https://github.com/conda-forge/xmsinterp-feedstock/pull/6" xlink:title="xmsinterp">
<ellipse fill="#31688e" stroke="black" cx="787" cy="-234" rx="54.69" ry="18"/>
<text text-anchor="middle" x="787" y="-230.3" font-family="Times,serif" font-size="14.00" fill="white">xmsinterp</text>
</a>
</g>
</g>
<!-- xmsinterp&#45;&gt;conda&#45;forge&#45;pinning -->
<g id="edge16" class="edge">
<title>xmsinterp&#45;&gt;conda&#45;forge&#45;pinning</title>
<path fill="none" stroke="black" d="M761.25,-218.07C746.91,-208.67 729.66,-195.42 718,-180 686.84,-138.79 713.99,-105.9 675,-72 645.18,-46.07 604.72,-32.39 566.82,-25.31"/>
<polygon fill="black" stroke="black" points="567.17,-21.82 556.72,-23.56 565.98,-28.71 567.17,-21.82"/>
</g>
<!-- xmsstamper -->
<g id="node16" class="node">
<title>xmsstamper</title>
<g id="a_node16"><a xlink:href="https://github.com/conda-forge/xmsstamper-feedstock" xlink:title="xmsstamper">
<ellipse fill="#fde725" stroke="black" cx="787" cy="-162" rx="60" ry="18"/>
<text text-anchor="middle" x="787" y="-158.3" font-family="Times,serif" font-size="14.00">xmsstamper</text>
</a>
</g>
</g>
<!-- xmsinterp&#45;&gt;xmsstamper -->
<g id="edge17" class="edge">
<title>xmsinterp&#45;&gt;xmsstamper</title>
<path fill="none" stroke="black" d="M787,-215.7C787,-207.98 787,-198.71 787,-190.11"/>
<polygon fill="black" stroke="black" points="790.5,-190.1 787,-180.1 783.5,-190.1 790.5,-190.1"/>
</g>
<!-- xmsmesher -->
<g id="node17" class="node">
<title>xmsmesher</title>
<g id="a_node17"><a xlink:href="https://github.com/conda-forge/xmsmesher-feedstock" xlink:title="xmsmesher">
<ellipse fill="#fde725" stroke="black" cx="860" cy="-90" rx="54.69" ry="18"/>
<text text-anchor="middle" x="860" y="-86.3" font-family="Times,serif" font-size="14.00">xmsmesher</text>
</a>
</g>
</g>
<!-- xmsinterp&#45;&gt;xmsmesher -->
<g id="edge18" class="edge">
<title>xmsinterp&#45;&gt;xmsmesher</title>
<path fill="none" stroke="black" d="M816.21,-218.51C830.89,-209.56 847.34,-196.61 856,-180 865.86,-161.08 866.25,-136.71 864.52,-118.26"/>
<polygon fill="black" stroke="black" points="867.98,-117.68 863.31,-108.16 861.03,-118.51 867.98,-117.68"/>
</g>
<!-- xmsstamper&#45;&gt;conda&#45;forge&#45;pinning -->
<g id="edge19" class="edge">
<title>xmsstamper&#45;&gt;conda&#45;forge&#45;pinning</title>
<path fill="none" stroke="black" d="M777.68,-143.93C765.58,-123.46 742.45,-89.7 713,-72 668.85,-45.48 613.51,-32.06 565.68,-25.34"/>
<polygon fill="black" stroke="black" points="565.96,-21.85 555.59,-24.01 565.05,-28.79 565.96,-21.85"/>
</g>
<!-- xmsmesher&#45;&gt;conda&#45;forge&#45;pinning -->
<g id="edge20" class="edge">
<title>xmsmesher&#45;&gt;conda&#45;forge&#45;pinning</title>
<path fill="none" stroke="black" d="M815.15,-79.63C802.51,-77.06 788.73,-74.35 776,-72 696.85,-57.4 606.27,-42.48 542.09,-32.2"/>
<polygon fill="black" stroke="black" points="542.45,-28.72 532.02,-30.59 541.34,-35.63 542.45,-28.72"/>
</g>
</g>
</svg>
