<?xml version="1.0" encoding="UTF-8" standalone="no"?>
<!DOCTYPE svg PUBLIC "-//W3C//DTD SVG 1.1//EN"
 "http://www.w3.org/Graphics/SVG/1.1/DTD/svg11.dtd">
<!-- Generated by graphviz version 2.42.3 (20191010.1750)
 -->
<!-- Title: %3 Pages: 1 -->
<svg width="1088pt" height="404pt"
 viewBox="0.00 0.00 1088.00 404.00" xmlns="http://www.w3.org/2000/svg" xmlns:xlink="http://www.w3.org/1999/xlink">
<g id="graph0" class="graph" transform="scale(1 1) rotate(0) translate(4 400)">
<title>%3</title>
<polygon fill="white" stroke="transparent" points="-4,4 -4,-400 1084,-400 1084,4 -4,4"/>
<!-- avrocpp -->
<g id="node1" class="node">
<title>avrocpp</title>
<g id="a_node1"><a xlink:href="https://github.com/conda-forge/avrocpp-feedstock/pull/8" xlink:title="avrocpp">
<ellipse fill="#31688e" stroke="black" cx="45" cy="-90" rx="45" ry="18"/>
<text text-anchor="middle" x="45" y="-86.3" font-family="Times,serif" font-size="14.00" fill="white">avrocpp</text>
</a>
</g>
</g>
<!-- conda&#45;forge&#45;pinning -->
<g id="node2" class="node">
<title>conda&#45;forge&#45;pinning</title>
<ellipse fill="none" stroke="black" cx="516" cy="-18" rx="103.5" ry="18"/>
<text text-anchor="middle" x="516" y="-14.3" font-family="Times,serif" font-size="14.00">conda&#45;forge&#45;pinning</text>
</g>
<!-- avrocpp&#45;&gt;conda&#45;forge&#45;pinning -->
<g id="edge1" class="edge">
<title>avrocpp&#45;&gt;conda&#45;forge&#45;pinning</title>
<path fill="none" stroke="black" d="M79.1,-78.22C87.2,-75.92 95.86,-73.69 104,-72 209.01,-50.25 331.04,-35.88 414.89,-27.66"/>
<polygon fill="black" stroke="black" points="415.3,-31.14 424.92,-26.69 414.63,-24.17 415.3,-31.14"/>
</g>
<!-- caffe -->
<g id="node3" class="node">
<title>caffe</title>
<g id="a_node3"><a xlink:href="https://github.com/conda-forge/caffe-feedstock/pull/57" xlink:title="caffe">
<ellipse fill="#31688e" stroke="black" cx="105" cy="-162" rx="35.19" ry="18"/>
<text text-anchor="middle" x="105" y="-158.3" font-family="Times,serif" font-size="14.00" fill="white">caffe</text>
</a>
</g>
</g>
<!-- caffe&#45;&gt;conda&#45;forge&#45;pinning -->
<g id="edge2" class="edge">
<title>caffe&#45;&gt;conda&#45;forge&#45;pinning</title>
<path fill="none" stroke="black" d="M109.31,-144.13C115.52,-123.52 129.07,-89.29 154,-72 193.99,-44.26 315.84,-30.74 407.2,-24.35"/>
<polygon fill="black" stroke="black" points="407.6,-27.83 417.34,-23.67 407.13,-20.85 407.6,-27.83"/>
</g>
<!-- gap -->
<g id="node4" class="node">
<title>gap</title>
<g id="a_node4"><a xlink:href="https://github.com/conda-forge/gap-feedstock" xlink:title="gap">
<ellipse fill="#fde725" stroke="black" cx="223" cy="-162" rx="27" ry="18"/>
<text text-anchor="middle" x="223" y="-158.3" font-family="Times,serif" font-size="14.00">gap</text>
</a>
</g>
</g>
<!-- gap&#45;&gt;conda&#45;forge&#45;pinning -->
<g id="edge3" class="edge">
<title>gap&#45;&gt;conda&#45;forge&#45;pinning</title>
<path fill="none" stroke="black" d="M217.66,-144.03C212.6,-124.29 208.04,-91.87 225,-72 248.6,-44.35 335.11,-31.07 407.73,-24.73"/>
<polygon fill="black" stroke="black" points="408.2,-28.2 417.87,-23.88 407.62,-21.22 408.2,-28.2"/>
</g>
<!-- sagelib -->
<g id="node5" class="node">
<title>sagelib</title>
<g id="a_node5"><a xlink:href="https://github.com/conda-forge/sagelib-feedstock" xlink:title="sagelib">
<ellipse fill="#fde725" stroke="black" cx="279" cy="-90" rx="45" ry="18"/>
<text text-anchor="middle" x="279" y="-86.3" font-family="Times,serif" font-size="14.00">sagelib</text>
</a>
</g>
</g>
<!-- gap&#45;&gt;sagelib -->
<g id="edge4" class="edge">
<title>gap&#45;&gt;sagelib</title>
<path fill="none" stroke="black" d="M235.15,-145.81C242.19,-137.02 251.22,-125.73 259.25,-115.69"/>
<polygon fill="black" stroke="black" points="262.18,-117.62 265.7,-107.63 256.72,-113.25 262.18,-117.62"/>
</g>
<!-- sagelib&#45;&gt;conda&#45;forge&#45;pinning -->
<g id="edge5" class="edge">
<title>sagelib&#45;&gt;conda&#45;forge&#45;pinning</title>
<path fill="none" stroke="black" d="M313.97,-78.67C351.4,-67.62 411.44,-49.88 456.36,-36.61"/>
<polygon fill="black" stroke="black" points="457.39,-39.96 465.99,-33.77 455.41,-33.25 457.39,-39.96"/>
</g>
<!-- libcmaes -->
<g id="node6" class="node">
<title>libcmaes</title>
<g id="a_node6"><a xlink:href="https://github.com/conda-forge/libcmaes-feedstock/pull/12" xlink:title="libcmaes">
<ellipse fill="#31688e" stroke="black" cx="312" cy="-234" rx="50.09" ry="18"/>
<text text-anchor="middle" x="312" y="-230.3" font-family="Times,serif" font-size="14.00" fill="white">libcmaes</text>
</a>
</g>
</g>
<!-- libcmaes&#45;&gt;conda&#45;forge&#45;pinning -->
<g id="edge6" class="edge">
<title>libcmaes&#45;&gt;conda&#45;forge&#45;pinning</title>
<path fill="none" stroke="black" d="M314.2,-215.94C319.25,-183.55 334.61,-112.71 376,-72 393.51,-54.78 417.17,-43.05 440.05,-35.1"/>
<polygon fill="black" stroke="black" points="441.37,-38.35 449.79,-31.92 439.2,-31.7 441.37,-38.35"/>
</g>
<!-- pyne -->
<g id="node7" class="node">
<title>pyne</title>
<g id="a_node7"><a xlink:href="https://github.com/conda-forge/pyne-feedstock/pull/39" xlink:title="pyne">
<ellipse fill="#31688e" stroke="black" cx="369" cy="-306" rx="30.59" ry="18"/>
<text text-anchor="middle" x="369" y="-302.3" font-family="Times,serif" font-size="14.00" fill="white">pyne</text>
</a>
</g>
</g>
<!-- pyne&#45;&gt;conda&#45;forge&#45;pinning -->
<g id="edge7" class="edge">
<title>pyne&#45;&gt;conda&#45;forge&#45;pinning</title>
<path fill="none" stroke="black" d="M370.39,-287.81C374.55,-239.97 388.25,-106.5 414,-72 425.08,-57.16 441.53,-46.11 458.01,-38.06"/>
<polygon fill="black" stroke="black" points="459.49,-41.23 467.13,-33.89 456.58,-34.86 459.49,-41.23"/>
</g>
<!-- zwatershed -->
<g id="node8" class="node">
<title>zwatershed</title>
<g id="a_node8"><a xlink:href="https://github.com/conda-forge/zwatershed-feedstock/pull/15" xlink:title="zwatershed">
<ellipse fill="#31688e" stroke="black" cx="428" cy="-378" rx="60" ry="18"/>
<text text-anchor="middle" x="428" y="-374.3" font-family="Times,serif" font-size="14.00" fill="white">zwatershed</text>
</a>
</g>
</g>
<!-- zwatershed&#45;&gt;conda&#45;forge&#45;pinning -->
<g id="edge8" class="edge">
<title>zwatershed&#45;&gt;conda&#45;forge&#45;pinning</title>
<path fill="none" stroke="black" d="M428,-359.95C428,-333.29 428,-280.11 428,-235 428,-235 428,-235 428,-161 428,-120.55 425.41,-106.2 447,-72 454.66,-59.87 466.13,-49.45 477.53,-41.13"/>
<polygon fill="black" stroke="black" points="479.51,-44.02 485.76,-35.46 475.54,-38.25 479.51,-44.02"/>
</g>
<!-- alps -->
<g id="node9" class="node">
<title>alps</title>
<g id="a_node9"><a xlink:href="https://github.com/conda-forge/alps-feedstock/pull/30" xlink:title="alps">
<ellipse fill="#31688e" stroke="black" cx="487" cy="-90" rx="30.59" ry="18"/>
<text text-anchor="middle" x="487" y="-86.3" font-family="Times,serif" font-size="14.00" fill="white">alps</text>
</a>
</g>
</g>
<!-- alps&#45;&gt;conda&#45;forge&#45;pinning -->
<g id="edge9" class="edge">
<title>alps&#45;&gt;conda&#45;forge&#45;pinning</title>
<path fill="none" stroke="black" d="M493.87,-72.41C497.17,-64.45 501.2,-54.72 504.92,-45.76"/>
<polygon fill="black" stroke="black" points="508.18,-47.02 508.77,-36.45 501.71,-44.35 508.18,-47.02"/>
</g>
<!-- clfft -->
<g id="node10" class="node">
<title>clfft</title>
<g id="a_node10"><a xlink:href="https://github.com/conda-forge/clfft-feedstock/pull/10" xlink:title="clfft">
<ellipse fill="#31688e" stroke="black" cx="521" cy="-162" rx="35.19" ry="18"/>
<text text-anchor="middle" x="521" y="-158.3" font-family="Times,serif" font-size="14.00" fill="white">clfft</text>
</a>
</g>
</g>
<!-- clfft&#45;&gt;conda&#45;forge&#45;pinning -->
<g id="edge10" class="edge">
<title>clfft&#45;&gt;conda&#45;forge&#45;pinning</title>
<path fill="none" stroke="black" d="M523.87,-143.91C526.48,-125.97 529.56,-96.96 527,-72 526.12,-63.46 524.47,-54.26 522.71,-45.96"/>
<polygon fill="black" stroke="black" points="526.08,-45.03 520.46,-36.05 519.26,-46.57 526.08,-45.03"/>
</g>
<!-- spdlib -->
<g id="node11" class="node">
<title>spdlib</title>
<g id="a_node11"><a xlink:href="https://github.com/conda-forge/spdlib-feedstock/pull/16" xlink:title="spdlib">
<ellipse fill="#31688e" stroke="black" cx="553" cy="-234" rx="40.5" ry="18"/>
<text text-anchor="middle" x="553" y="-230.3" font-family="Times,serif" font-size="14.00" fill="white">spdlib</text>
</a>
</g>
</g>
<!-- spdlib&#45;&gt;conda&#45;forge&#45;pinning -->
<g id="edge11" class="edge">
<title>spdlib&#45;&gt;conda&#45;forge&#45;pinning</title>
<path fill="none" stroke="black" d="M558.3,-215.9C563.17,-197.95 569.05,-168.93 565,-144 559.2,-108.25 542.39,-69.85 530.07,-45.19"/>
<polygon fill="black" stroke="black" points="533.11,-43.44 525.44,-36.13 526.88,-46.63 533.11,-43.44"/>
</g>
<!-- helics -->
<g id="node12" class="node">
<title>helics</title>
<g id="a_node12"><a xlink:href="https://github.com/conda-forge/helics-feedstock/pull/18" xlink:title="helics">
<ellipse fill="#31688e" stroke="black" cx="591" cy="-306" rx="40.5" ry="18"/>
<text text-anchor="middle" x="591" y="-302.3" font-family="Times,serif" font-size="14.00" fill="white">helics</text>
</a>
</g>
</g>
<!-- helics&#45;&gt;conda&#45;forge&#45;pinning -->
<g id="edge12" class="edge">
<title>helics&#45;&gt;conda&#45;forge&#45;pinning</title>
<path fill="none" stroke="black" d="M595.87,-287.98C598.56,-277.67 601.64,-264.19 603,-252 604.78,-236.1 605.16,-231.85 603,-216 594.03,-150.19 594.74,-130.35 563,-72 557.42,-61.74 549.52,-51.81 541.78,-43.36"/>
<polygon fill="black" stroke="black" points="544.23,-40.86 534.79,-36.06 539.17,-45.7 544.23,-40.86"/>
</g>
<!-- normaliz -->
<g id="node13" class="node">
<title>normaliz</title>
<g id="a_node13"><a xlink:href="https://github.com/conda-forge/normaliz-feedstock/pull/19" xlink:title="normaliz">
<ellipse fill="#31688e" stroke="black" cx="181" cy="-234" rx="50.09" ry="18"/>
<text text-anchor="middle" x="181" y="-230.3" font-family="Times,serif" font-size="14.00" fill="white">normaliz</text>
</a>
</g>
</g>
<!-- normaliz&#45;&gt;conda&#45;forge&#45;pinning -->
<g id="edge13" class="edge">
<title>normaliz&#45;&gt;conda&#45;forge&#45;pinning</title>
<path fill="none" stroke="black" d="M178,-215.87C173.25,-182.37 168.34,-108.28 210,-72 239.47,-46.33 333.72,-32.74 409.91,-25.77"/>
<polygon fill="black" stroke="black" points="410.4,-29.24 420.06,-24.88 409.79,-22.27 410.4,-29.24"/>
</g>
<!-- normaliz&#45;&gt;gap -->
<g id="edge14" class="edge">
<title>normaliz&#45;&gt;gap</title>
<path fill="none" stroke="black" d="M191.17,-216.05C196.19,-207.68 202.36,-197.4 207.92,-188.13"/>
<polygon fill="black" stroke="black" points="211.07,-189.68 213.22,-179.31 205.07,-186.08 211.07,-189.68"/>
</g>
<!-- esys&#45;escript -->
<g id="node14" class="node">
<title>esys&#45;escript</title>
<g id="a_node14"><a xlink:href="https://github.com/conda-forge/esys-escript-feedstock" xlink:title="esys escript">
<ellipse fill="#35b779" stroke="black" cx="660" cy="-378" rx="69.59" ry="18"/>
<text text-anchor="middle" x="660" y="-374.3" font-family="Times,serif" font-size="14.00">esys escript</text>
</a>
</g>
</g>
<!-- esys&#45;escript&#45;&gt;conda&#45;forge&#45;pinning -->
<g id="edge15" class="edge">
<title>esys&#45;escript&#45;&gt;conda&#45;forge&#45;pinning</title>
<path fill="none" stroke="black" d="M660,-359.95C660,-333.29 660,-280.11 660,-235 660,-235 660,-235 660,-161 660,-104.41 602.92,-62.79 560.64,-39.72"/>
<polygon fill="black" stroke="black" points="562.07,-36.52 551.6,-34.95 558.8,-42.71 562.07,-36.52"/>
</g>
<!-- xmsinterp -->
<g id="node15" class="node">
<title>xmsinterp</title>
<g id="a_node15"><a xlink:href="https://github.com/conda-forge/xmsinterp-feedstock/pull/6" xlink:title="xmsinterp">
<ellipse fill="#31688e" stroke="black" cx="786" cy="-234" rx="54.69" ry="18"/>
<text text-anchor="middle" x="786" y="-230.3" font-family="Times,serif" font-size="14.00" fill="white">xmsinterp</text>
</a>
</g>
</g>
<!-- xmsinterp&#45;&gt;conda&#45;forge&#45;pinning -->
<g id="edge16" class="edge">
<title>xmsinterp&#45;&gt;conda&#45;forge&#45;pinning</title>
<path fill="none" stroke="black" d="M760.25,-218.07C745.91,-208.67 728.66,-195.42 717,-180 685.84,-138.79 711.53,-107.51 674,-72 654.06,-53.13 627.2,-40.97 601.28,-33.14"/>
<polygon fill="black" stroke="black" points="601.99,-29.7 591.41,-30.34 600.08,-36.43 601.99,-29.7"/>
</g>
<!-- xmsstamper -->
<g id="node16" class="node">
<title>xmsstamper</title>
<g id="a_node16"><a xlink:href="https://github.com/conda-forge/xmsstamper-feedstock" xlink:title="xmsstamper">
<ellipse fill="#fde725" stroke="black" cx="786" cy="-162" rx="60" ry="18"/>
<text text-anchor="middle" x="786" y="-158.3" font-family="Times,serif" font-size="14.00">xmsstamper</text>
</a>
</g>
</g>
<!-- xmsinterp&#45;&gt;xmsstamper -->
<g id="edge17" class="edge">
<title>xmsinterp&#45;&gt;xmsstamper</title>
<path fill="none" stroke="black" d="M786,-215.7C786,-207.98 786,-198.71 786,-190.11"/>
<polygon fill="black" stroke="black" points="789.5,-190.1 786,-180.1 782.5,-190.1 789.5,-190.1"/>
</g>
<!-- xmsmesher -->
<g id="node17" class="node">
<title>xmsmesher</title>
<g id="a_node17"><a xlink:href="https://github.com/conda-forge/xmsmesher-feedstock" xlink:title="xmsmesher">
<ellipse fill="#fde725" stroke="black" cx="819" cy="-90" rx="54.69" ry="18"/>
<text text-anchor="middle" x="819" y="-86.3" font-family="Times,serif" font-size="14.00">xmsmesher</text>
</a>
</g>
</g>
<!-- xmsinterp&#45;&gt;xmsmesher -->
<g id="edge18" class="edge">
<title>xmsinterp&#45;&gt;xmsmesher</title>
<path fill="none" stroke="black" d="M815.51,-218.66C830.27,-209.76 846.72,-196.8 855,-180 865.45,-158.8 853.28,-133.78 840.34,-115.68"/>
<polygon fill="black" stroke="black" points="842.87,-113.22 834.02,-107.39 837.3,-117.47 842.87,-113.22"/>
</g>
<!-- xmsstamper&#45;&gt;conda&#45;forge&#45;pinning -->
<g id="edge19" class="edge">
<title>xmsstamper&#45;&gt;conda&#45;forge&#45;pinning</title>
<path fill="none" stroke="black" d="M776.51,-144.22C764.22,-124.04 740.92,-90.56 712,-72 680.68,-51.9 641.86,-39.36 607.05,-31.57"/>
<polygon fill="black" stroke="black" points="607.38,-28.06 596.87,-29.4 605.92,-34.91 607.38,-28.06"/>
</g>
<!-- xmsmesher&#45;&gt;conda&#45;forge&#45;pinning -->
<g id="edge20" class="edge">
<title>xmsmesher&#45;&gt;conda&#45;forge&#45;pinning</title>
<path fill="none" stroke="black" d="M776.7,-78.45C767.88,-76.28 758.64,-74.04 750,-72 695.43,-59.1 633.54,-45.11 587.13,-34.74"/>
<polygon fill="black" stroke="black" points="587.69,-31.28 577.17,-32.52 586.17,-38.12 587.69,-31.28"/>
</g>
<!-- pcraster -->
<g id="node18" class="node">
<title>pcraster</title>
<g id="a_node18"><a xlink:href="https://github.com/conda-forge/pcraster-feedstock/pull/4" xlink:title="pcraster">
<ellipse fill="#31688e" stroke="black" cx="942" cy="-90" rx="50.09" ry="18"/>
<text text-anchor="middle" x="942" y="-86.3" font-family="Times,serif" font-size="14.00" fill="white">pcraster</text>
</a>
</g>
</g>
<!-- pcraster&#45;&gt;conda&#45;forge&#45;pinning -->
<g id="edge21" class="edge">
<title>pcraster&#45;&gt;conda&#45;forge&#45;pinning</title>
<path fill="none" stroke="black" d="M905.37,-77.6C898.01,-75.55 890.29,-73.57 883,-72 792.09,-52.43 686.92,-38.07 612.53,-29.27"/>
<polygon fill="black" stroke="black" points="612.58,-25.76 602.24,-28.07 611.77,-32.71 612.58,-25.76"/>
</g>
<!-- dicomifier -->
<g id="node19" class="node">
<title>dicomifier</title>
<g id="a_node19"><a xlink:href="https://github.com/conda-forge/dicomifier-feedstock/pull/3" xlink:title="dicomifier">
<ellipse fill="#31688e" stroke="black" cx="1020" cy="-162" rx="60" ry="18"/>
<text text-anchor="middle" x="1020" y="-158.3" font-family="Times,serif" font-size="14.00" fill="white">dicomifier</text>
</a>
</g>
</g>
<!-- dicomifier&#45;&gt;conda&#45;forge&#45;pinning -->
<g id="edge22" class="edge">
<title>dicomifier&#45;&gt;conda&#45;forge&#45;pinning</title>
<path fill="none" stroke="black" d="M1021.76,-143.71C1022.77,-123.34 1020.93,-90 1001,-72 973.64,-47.29 759.21,-31.68 624.78,-24.22"/>
<polygon fill="black" stroke="black" points="624.62,-20.7 614.44,-23.65 624.24,-27.69 624.62,-20.7"/>
</g>
</g>
</svg>
