<?xml version="1.0" encoding="UTF-8" standalone="no"?>
<!DOCTYPE svg PUBLIC "-//W3C//DTD SVG 1.1//EN"
 "http://www.w3.org/Graphics/SVG/1.1/DTD/svg11.dtd">
<!-- Generated by graphviz version 2.42.3 (20191010.1750)
 -->
<!-- Title: %3 Pages: 1 -->
<svg width="1778pt" height="404pt"
 viewBox="0.00 0.00 1778.05 404.00" xmlns="http://www.w3.org/2000/svg" xmlns:xlink="http://www.w3.org/1999/xlink">
<g id="graph0" class="graph" transform="scale(1 1) rotate(0) translate(4 400)">
<title>%3</title>
<polygon fill="white" stroke="transparent" points="-4,4 -4,-400 1774.05,-400 1774.05,4 -4,4"/>
<!-- avrocpp -->
<g id="node1" class="node">
<title>avrocpp</title>
<g id="a_node1"><a xlink:href="https://github.com/conda-forge/avrocpp-feedstock/pull/8" xlink:title="avrocpp">
<ellipse fill="#31688e" stroke="black" cx="45" cy="-90" rx="45" ry="18"/>
<text text-anchor="middle" x="45" y="-86.3" font-family="Times,serif" font-size="14.00" fill="white">avrocpp</text>
</a>
</g>
</g>
<!-- conda&#45;forge&#45;pinning -->
<g id="node2" class="node">
<title>conda&#45;forge&#45;pinning</title>
<ellipse fill="none" stroke="black" cx="791" cy="-18" rx="103.5" ry="18"/>
<text text-anchor="middle" x="791" y="-14.3" font-family="Times,serif" font-size="14.00">conda&#45;forge&#45;pinning</text>
</g>
<!-- avrocpp&#45;&gt;conda&#45;forge&#45;pinning -->
<g id="edge1" class="edge">
<title>avrocpp&#45;&gt;conda&#45;forge&#45;pinning</title>
<path fill="none" stroke="black" d="M78.73,-78.01C86.92,-75.69 95.71,-73.5 104,-72 304.12,-35.84 541.4,-24.33 678.24,-20.68"/>
<polygon fill="black" stroke="black" points="678.42,-24.18 688.33,-20.42 678.24,-17.18 678.42,-24.18"/>
</g>
<!-- caffe -->
<g id="node3" class="node">
<title>caffe</title>
<g id="a_node3"><a xlink:href="https://github.com/conda-forge/caffe-feedstock/pull/57" xlink:title="caffe">
<ellipse fill="#31688e" stroke="black" cx="105" cy="-162" rx="35.19" ry="18"/>
<text text-anchor="middle" x="105" y="-158.3" font-family="Times,serif" font-size="14.00" fill="white">caffe</text>
</a>
</g>
</g>
<!-- caffe&#45;&gt;conda&#45;forge&#45;pinning -->
<g id="edge2" class="edge">
<title>caffe&#45;&gt;conda&#45;forge&#45;pinning</title>
<path fill="none" stroke="black" d="M109.14,-143.87C115.18,-123.01 128.54,-88.51 154,-72 196.99,-44.12 509.52,-28.88 680.28,-22.56"/>
<polygon fill="black" stroke="black" points="680.45,-26.05 690.31,-22.19 680.19,-19.06 680.45,-26.05"/>
</g>
<!-- gap -->
<g id="node4" class="node">
<title>gap</title>
<g id="a_node4"><a xlink:href="https://github.com/conda-forge/gap-feedstock/pull/31" xlink:title="gap">
<ellipse fill="#31688e" stroke="black" cx="223" cy="-162" rx="27" ry="18"/>
<text text-anchor="middle" x="223" y="-158.3" font-family="Times,serif" font-size="14.00" fill="white">gap</text>
</a>
</g>
</g>
<!-- gap&#45;&gt;conda&#45;forge&#45;pinning -->
<g id="edge3" class="edge">
<title>gap&#45;&gt;conda&#45;forge&#45;pinning</title>
<path fill="none" stroke="black" d="M217.46,-144.13C212.09,-124.16 207.09,-91.23 225,-72 255.28,-39.49 522.93,-26.5 679.09,-21.64"/>
<polygon fill="black" stroke="black" points="679.32,-25.14 689.21,-21.34 679.11,-18.14 679.32,-25.14"/>
</g>
<!-- sagelib -->
<g id="node5" class="node">
<title>sagelib</title>
<ellipse fill="#fde725" stroke="black" cx="279" cy="-90" rx="45" ry="18"/>
<text text-anchor="middle" x="279" y="-86.3" font-family="Times,serif" font-size="14.00">sagelib</text>
</g>
<!-- gap&#45;&gt;sagelib -->
<g id="edge4" class="edge">
<title>gap&#45;&gt;sagelib</title>
<path fill="none" stroke="black" d="M235.15,-145.81C242.19,-137.02 251.22,-125.73 259.25,-115.69"/>
<polygon fill="black" stroke="black" points="262.18,-117.62 265.7,-107.63 256.72,-113.25 262.18,-117.62"/>
</g>
<!-- sagelib&#45;&gt;conda&#45;forge&#45;pinning -->
<g id="edge5" class="edge">
<title>sagelib&#45;&gt;conda&#45;forge&#45;pinning</title>
<path fill="none" stroke="black" d="M313.08,-78.15C321.19,-75.86 329.85,-73.64 338,-72 456.22,-48.22 594.1,-33.98 686.41,-26.34"/>
<polygon fill="black" stroke="black" points="686.91,-29.81 696.59,-25.51 686.34,-22.83 686.91,-29.81"/>
</g>
<!-- libcmaes -->
<g id="node6" class="node">
<title>libcmaes</title>
<g id="a_node6"><a xlink:href="https://github.com/conda-forge/libcmaes-feedstock/pull/12" xlink:title="libcmaes">
<ellipse fill="#31688e" stroke="black" cx="312" cy="-234" rx="50.09" ry="18"/>
<text text-anchor="middle" x="312" y="-230.3" font-family="Times,serif" font-size="14.00" fill="white">libcmaes</text>
</a>
</g>
</g>
<!-- libcmaes&#45;&gt;conda&#45;forge&#45;pinning -->
<g id="edge6" class="edge">
<title>libcmaes&#45;&gt;conda&#45;forge&#45;pinning</title>
<path fill="none" stroke="black" d="M313.3,-215.8C316.85,-182.16 329.77,-107.86 376,-72 421.8,-36.47 571.8,-24.65 678.26,-20.77"/>
<polygon fill="black" stroke="black" points="678.55,-24.27 688.43,-20.42 678.31,-17.27 678.55,-24.27"/>
</g>
<!-- pyne -->
<g id="node7" class="node">
<title>pyne</title>
<g id="a_node7"><a xlink:href="https://github.com/conda-forge/pyne-feedstock/pull/39" xlink:title="pyne">
<ellipse fill="#31688e" stroke="black" cx="369" cy="-306" rx="30.59" ry="18"/>
<text text-anchor="middle" x="369" y="-302.3" font-family="Times,serif" font-size="14.00" fill="white">pyne</text>
</a>
</g>
</g>
<!-- pyne&#45;&gt;conda&#45;forge&#45;pinning -->
<g id="edge7" class="edge">
<title>pyne&#45;&gt;conda&#45;forge&#45;pinning</title>
<path fill="none" stroke="black" d="M369.82,-287.67C372.5,-238.84 382.71,-101.73 414,-72 451.08,-36.77 581.12,-24.77 678.17,-20.78"/>
<polygon fill="black" stroke="black" points="678.49,-24.27 688.34,-20.39 678.22,-17.28 678.49,-24.27"/>
</g>
<!-- pyopcode -->
<g id="node8" class="node">
<title>pyopcode</title>
<g id="a_node8"><a xlink:href="https://github.com/conda-forge/pyopcode-feedstock/pull/18" xlink:title="pyopcode">
<ellipse fill="#31688e" stroke="black" cx="428" cy="-378" rx="50.09" ry="18"/>
<text text-anchor="middle" x="428" y="-374.3" font-family="Times,serif" font-size="14.00" fill="white">pyopcode</text>
</a>
</g>
</g>
<!-- pyopcode&#45;&gt;conda&#45;forge&#45;pinning -->
<g id="edge8" class="edge">
<title>pyopcode&#45;&gt;conda&#45;forge&#45;pinning</title>
<path fill="none" stroke="black" d="M428,-359.95C428,-333.29 428,-280.11 428,-235 428,-235 428,-235 428,-161 428,-120.55 417.59,-99.77 447,-72 480,-40.84 592.71,-28 680.23,-22.71"/>
<polygon fill="black" stroke="black" points="680.44,-26.2 690.23,-22.13 680.04,-19.22 680.44,-26.2"/>
</g>
<!-- pyranha -->
<g id="node9" class="node">
<title>pyranha</title>
<g id="a_node9"><a xlink:href="https://github.com/conda-forge/pyranha-feedstock/pull/15" xlink:title="pyranha">
<ellipse fill="#31688e" stroke="black" cx="501" cy="-90" rx="45" ry="18"/>
<text text-anchor="middle" x="501" y="-86.3" font-family="Times,serif" font-size="14.00" fill="white">pyranha</text>
</a>
</g>
</g>
<!-- pyranha&#45;&gt;conda&#45;forge&#45;pinning -->
<g id="edge9" class="edge">
<title>pyranha&#45;&gt;conda&#45;forge&#45;pinning</title>
<path fill="none" stroke="black" d="M535.85,-78.61C543.77,-76.35 552.16,-74.03 560,-72 612.89,-58.32 673.04,-44.58 718.71,-34.51"/>
<polygon fill="black" stroke="black" points="719.5,-37.92 728.52,-32.36 718,-31.09 719.5,-37.92"/>
</g>
<!-- rsgislib -->
<g id="node10" class="node">
<title>rsgislib</title>
<g id="a_node10"><a xlink:href="https://github.com/conda-forge/rsgislib-feedstock/pull/29" xlink:title="rsgislib">
<ellipse fill="#31688e" stroke="black" cx="534" cy="-162" rx="50.09" ry="18"/>
<text text-anchor="middle" x="534" y="-158.3" font-family="Times,serif" font-size="14.00" fill="white">rsgislib</text>
</a>
</g>
</g>
<!-- rsgislib&#45;&gt;conda&#45;forge&#45;pinning -->
<g id="edge10" class="edge">
<title>rsgislib&#45;&gt;conda&#45;forge&#45;pinning</title>
<path fill="none" stroke="black" d="M541.82,-143.87C551.93,-123.66 571.44,-90.47 598,-72 627.6,-51.41 664.91,-38.81 698.82,-31.1"/>
<polygon fill="black" stroke="black" points="699.71,-34.49 708.75,-28.95 698.24,-27.64 699.71,-34.49"/>
</g>
<!-- zwatershed -->
<g id="node11" class="node">
<title>zwatershed</title>
<g id="a_node11"><a xlink:href="https://github.com/conda-forge/zwatershed-feedstock/pull/14" xlink:title="zwatershed">
<ellipse fill="#31688e" stroke="black" cx="562" cy="-234" rx="60" ry="18"/>
<text text-anchor="middle" x="562" y="-230.3" font-family="Times,serif" font-size="14.00" fill="white">zwatershed</text>
</a>
</g>
</g>
<!-- zwatershed&#45;&gt;conda&#45;forge&#45;pinning -->
<g id="edge11" class="edge">
<title>zwatershed&#45;&gt;conda&#45;forge&#45;pinning</title>
<path fill="none" stroke="black" d="M572.72,-216.17C579.02,-205.93 586.92,-192.45 593,-180 615.66,-133.57 598.58,-107.62 636,-72 655.55,-53.4 681.89,-41.3 707.32,-33.45"/>
<polygon fill="black" stroke="black" points="708.37,-36.79 717,-30.64 706.42,-30.07 708.37,-36.79"/>
</g>
<!-- alps -->
<g id="node12" class="node">
<title>alps</title>
<g id="a_node12"><a xlink:href="https://github.com/conda-forge/alps-feedstock/pull/30" xlink:title="alps">
<ellipse fill="#31688e" stroke="black" cx="629" cy="-306" rx="30.59" ry="18"/>
<text text-anchor="middle" x="629" y="-302.3" font-family="Times,serif" font-size="14.00" fill="white">alps</text>
</a>
</g>
</g>
<!-- alps&#45;&gt;conda&#45;forge&#45;pinning -->
<g id="edge12" class="edge">
<title>alps&#45;&gt;conda&#45;forge&#45;pinning</title>
<path fill="none" stroke="black" d="M630.3,-287.74C634.21,-239.71 647.33,-105.8 674,-72 686.59,-56.05 705.03,-44.74 723.57,-36.79"/>
<polygon fill="black" stroke="black" points="724.97,-40 732.95,-33.04 722.37,-33.5 724.97,-40"/>
</g>
<!-- clfft -->
<g id="node13" class="node">
<title>clfft</title>
<g id="a_node13"><a xlink:href="https://github.com/conda-forge/clfft-feedstock/pull/10" xlink:title="clfft">
<ellipse fill="#31688e" stroke="black" cx="688" cy="-378" rx="35.19" ry="18"/>
<text text-anchor="middle" x="688" y="-374.3" font-family="Times,serif" font-size="14.00" fill="white">clfft</text>
</a>
</g>
</g>
<!-- clfft&#45;&gt;conda&#45;forge&#45;pinning -->
<g id="edge13" class="edge">
<title>clfft&#45;&gt;conda&#45;forge&#45;pinning</title>
<path fill="none" stroke="black" d="M688,-359.95C688,-333.29 688,-280.11 688,-235 688,-235 688,-235 688,-161 688,-120.55 683.86,-105.17 707,-72 716.23,-58.77 729.92,-48.14 743.59,-39.97"/>
<polygon fill="black" stroke="black" points="745.51,-42.9 752.52,-34.95 742.09,-36.8 745.51,-42.9"/>
</g>
<!-- spdlib -->
<g id="node14" class="node">
<title>spdlib</title>
<g id="a_node14"><a xlink:href="https://github.com/conda-forge/spdlib-feedstock/pull/12" xlink:title="spdlib">
<ellipse fill="#31688e" stroke="black" cx="757" cy="-90" rx="40.5" ry="18"/>
<text text-anchor="middle" x="757" y="-86.3" font-family="Times,serif" font-size="14.00" fill="white">spdlib</text>
</a>
</g>
</g>
<!-- spdlib&#45;&gt;conda&#45;forge&#45;pinning -->
<g id="edge14" class="edge">
<title>spdlib&#45;&gt;conda&#45;forge&#45;pinning</title>
<path fill="none" stroke="black" d="M765.23,-72.05C769.1,-64.09 773.8,-54.41 778.12,-45.51"/>
<polygon fill="black" stroke="black" points="781.39,-46.8 782.61,-36.28 775.09,-43.74 781.39,-46.8"/>
</g>
<!-- fmipp -->
<g id="node15" class="node">
<title>fmipp</title>
<g id="a_node15"><a xlink:href="https://github.com/conda-forge/fmipp-feedstock/pull/14" xlink:title="fmipp">
<ellipse fill="#31688e" stroke="black" cx="801" cy="-162" rx="35.19" ry="18"/>
<text text-anchor="middle" x="801" y="-158.3" font-family="Times,serif" font-size="14.00" fill="white">fmipp</text>
</a>
</g>
</g>
<!-- fmipp&#45;&gt;conda&#45;forge&#45;pinning -->
<g id="edge15" class="edge">
<title>fmipp&#45;&gt;conda&#45;forge&#45;pinning</title>
<path fill="none" stroke="black" d="M803.92,-143.86C806.53,-125.88 809.45,-96.83 806,-72 804.82,-63.48 802.61,-54.39 800.25,-46.2"/>
<polygon fill="black" stroke="black" points="803.52,-44.94 797.24,-36.41 796.83,-46.99 803.52,-44.94"/>
</g>
<!-- freecad -->
<g id="node16" class="node">
<title>freecad</title>
<g id="a_node16"><a xlink:href="https://github.com/conda-forge/freecad-feedstock/pull/36" xlink:title="freecad">
<ellipse fill="#31688e" stroke="black" cx="829" cy="-234" rx="45" ry="18"/>
<text text-anchor="middle" x="829" y="-230.3" font-family="Times,serif" font-size="14.00" fill="white">freecad</text>
</a>
</g>
</g>
<!-- freecad&#45;&gt;conda&#45;forge&#45;pinning -->
<g id="edge16" class="edge">
<title>freecad&#45;&gt;conda&#45;forge&#45;pinning</title>
<path fill="none" stroke="black" d="M835.49,-216.1C839.08,-205.84 843.17,-192.36 845,-180 847.34,-164.17 847.56,-159.79 845,-144 839.6,-110.7 834.71,-102.82 821,-72 816.96,-62.92 811.84,-53.36 806.98,-44.9"/>
<polygon fill="black" stroke="black" points="809.97,-43.07 801.88,-36.23 803.93,-46.62 809.97,-43.07"/>
</g>
<!-- helics -->
<g id="node17" class="node">
<title>helics</title>
<g id="a_node17"><a xlink:href="https://github.com/conda-forge/helics-feedstock/pull/18" xlink:title="helics">
<ellipse fill="#31688e" stroke="black" cx="871" cy="-306" rx="40.5" ry="18"/>
<text text-anchor="middle" x="871" y="-302.3" font-family="Times,serif" font-size="14.00" fill="white">helics</text>
</a>
</g>
</g>
<!-- helics&#45;&gt;conda&#45;forge&#45;pinning -->
<g id="edge17" class="edge">
<title>helics&#45;&gt;conda&#45;forge&#45;pinning</title>
<path fill="none" stroke="black" d="M875.87,-287.98C878.56,-277.67 881.64,-264.19 883,-252 892.1,-170.56 883.96,-142.98 843,-72 836.82,-61.29 827.97,-51.17 819.32,-42.69"/>
<polygon fill="black" stroke="black" points="821.54,-39.98 811.85,-35.7 816.76,-45.09 821.54,-39.98"/>
</g>
<!-- normaliz -->
<g id="node18" class="node">
<title>normaliz</title>
<g id="a_node18"><a xlink:href="https://github.com/conda-forge/normaliz-feedstock/pull/19" xlink:title="normaliz">
<ellipse fill="#31688e" stroke="black" cx="181" cy="-234" rx="50.09" ry="18"/>
<text text-anchor="middle" x="181" y="-230.3" font-family="Times,serif" font-size="14.00" fill="white">normaliz</text>
</a>
</g>
</g>
<!-- normaliz&#45;&gt;conda&#45;forge&#45;pinning -->
<g id="edge18" class="edge">
<title>normaliz&#45;&gt;conda&#45;forge&#45;pinning</title>
<path fill="none" stroke="black" d="M177.7,-215.88C172.3,-182.04 166.07,-106.9 209,-72 244.65,-43.02 521.26,-28.51 679.97,-22.51"/>
<polygon fill="black" stroke="black" points="680.39,-26 690.25,-22.13 680.13,-19 680.39,-26"/>
</g>
<!-- normaliz&#45;&gt;gap -->
<g id="edge19" class="edge">
<title>normaliz&#45;&gt;gap</title>
<path fill="none" stroke="black" d="M191.17,-216.05C196.19,-207.68 202.36,-197.4 207.92,-188.13"/>
<polygon fill="black" stroke="black" points="211.07,-189.68 213.22,-179.31 205.07,-186.08 211.07,-189.68"/>
</g>
<!-- esys&#45;escript -->
<g id="node19" class="node">
<title>esys&#45;escript</title>
<g id="a_node19"><a xlink:href="https://github.com/conda-forge/esys-escript-feedstock/pull/12" xlink:title="esys escript">
<ellipse fill="#31688e" stroke="black" cx="940" cy="-378" rx="69.59" ry="18"/>
<text text-anchor="middle" x="940" y="-374.3" font-family="Times,serif" font-size="14.00" fill="white">esys escript</text>
</a>
</g>
</g>
<!-- esys&#45;escript&#45;&gt;conda&#45;forge&#45;pinning -->
<g id="edge20" class="edge">
<title>esys&#45;escript&#45;&gt;conda&#45;forge&#45;pinning</title>
<path fill="none" stroke="black" d="M940,-359.95C940,-333.29 940,-280.11 940,-235 940,-235 940,-235 940,-161 940,-103.62 881.38,-62.35 837.67,-39.56"/>
<polygon fill="black" stroke="black" points="839.1,-36.36 828.6,-34.98 835.95,-42.61 839.1,-36.36"/>
</g>
<!-- xmsinterp -->
<g id="node20" class="node">
<title>xmsinterp</title>
<g id="a_node20"><a xlink:href="https://github.com/conda-forge/xmsinterp-feedstock/pull/6" xlink:title="xmsinterp">
<ellipse fill="#31688e" stroke="black" cx="1066" cy="-234" rx="54.69" ry="18"/>
<text text-anchor="middle" x="1066" y="-230.3" font-family="Times,serif" font-size="14.00" fill="white">xmsinterp</text>
</a>
</g>
</g>
<!-- xmsinterp&#45;&gt;conda&#45;forge&#45;pinning -->
<g id="edge21" class="edge">
<title>xmsinterp&#45;&gt;conda&#45;forge&#45;pinning</title>
<path fill="none" stroke="black" d="M1040.25,-218.07C1025.91,-208.67 1008.66,-195.42 997,-180 965.84,-138.79 991.69,-107.33 954,-72 933.41,-52.7 905.7,-40.42 878.97,-32.62"/>
<polygon fill="black" stroke="black" points="879.76,-29.2 869.19,-29.94 877.91,-35.95 879.76,-29.2"/>
</g>
<!-- xmsstamper -->
<g id="node21" class="node">
<title>xmsstamper</title>
<g id="a_node21"><a xlink:href="https://github.com/conda-forge/xmsstamper-feedstock/pull/4" xlink:title="xmsstamper">
<ellipse fill="#31688e" stroke="black" cx="1066" cy="-162" rx="60" ry="18"/>
<text text-anchor="middle" x="1066" y="-158.3" font-family="Times,serif" font-size="14.00" fill="white">xmsstamper</text>
</a>
</g>
</g>
<!-- xmsinterp&#45;&gt;xmsstamper -->
<g id="edge22" class="edge">
<title>xmsinterp&#45;&gt;xmsstamper</title>
<path fill="none" stroke="black" d="M1066,-215.7C1066,-207.98 1066,-198.71 1066,-190.11"/>
<polygon fill="black" stroke="black" points="1069.5,-190.1 1066,-180.1 1062.5,-190.1 1069.5,-190.1"/>
</g>
<!-- xmsmesher -->
<g id="node22" class="node">
<title>xmsmesher</title>
<g id="a_node22"><a xlink:href="https://github.com/conda-forge/xmsmesher-feedstock/pull/4" xlink:title="xmsmesher">
<ellipse fill="#31688e" stroke="black" cx="1099" cy="-90" rx="54.69" ry="18"/>
<text text-anchor="middle" x="1099" y="-86.3" font-family="Times,serif" font-size="14.00" fill="white">xmsmesher</text>
</a>
</g>
</g>
<!-- xmsinterp&#45;&gt;xmsmesher -->
<g id="edge23" class="edge">
<title>xmsinterp&#45;&gt;xmsmesher</title>
<path fill="none" stroke="black" d="M1095.51,-218.66C1110.27,-209.76 1126.72,-196.8 1135,-180 1145.45,-158.8 1133.28,-133.78 1120.34,-115.68"/>
<polygon fill="black" stroke="black" points="1122.87,-113.22 1114.02,-107.39 1117.3,-117.47 1122.87,-113.22"/>
</g>
<!-- xmsstamper&#45;&gt;conda&#45;forge&#45;pinning -->
<g id="edge24" class="edge">
<title>xmsstamper&#45;&gt;conda&#45;forge&#45;pinning</title>
<path fill="none" stroke="black" d="M1056.53,-144.19C1044.26,-123.98 1020.98,-90.47 992,-72 959.59,-51.34 919.37,-38.7 883.44,-30.98"/>
<polygon fill="black" stroke="black" points="883.92,-27.51 873.43,-28.93 882.52,-34.37 883.92,-27.51"/>
</g>
<!-- xmsmesher&#45;&gt;conda&#45;forge&#45;pinning -->
<g id="edge25" class="edge">
<title>xmsmesher&#45;&gt;conda&#45;forge&#45;pinning</title>
<path fill="none" stroke="black" d="M1056.71,-78.41C1047.89,-76.25 1038.65,-74.02 1030,-72 974.08,-58.91 910.6,-44.87 863.12,-34.53"/>
<polygon fill="black" stroke="black" points="863.76,-31.09 853.24,-32.39 862.27,-37.93 863.76,-31.09"/>
</g>
<!-- dcgp&#45;python -->
<g id="node23" class="node">
<title>dcgp&#45;python</title>
<g id="a_node23"><a xlink:href="https://github.com/conda-forge/dcgp-python-feedstock/pull/7" xlink:title="dcgp python">
<ellipse fill="#31688e" stroke="black" cx="1236" cy="-90" rx="64.5" ry="18"/>
<text text-anchor="middle" x="1236" y="-86.3" font-family="Times,serif" font-size="14.00" fill="white">dcgp python</text>
</a>
</g>
</g>
<!-- dcgp&#45;python&#45;&gt;conda&#45;forge&#45;pinning -->
<g id="edge26" class="edge">
<title>dcgp&#45;python&#45;&gt;conda&#45;forge&#45;pinning</title>
<path fill="none" stroke="black" d="M1189.4,-77.51C1180.65,-75.53 1171.57,-73.61 1163,-72 1068.65,-54.33 959.86,-39.46 884.41,-30.01"/>
<polygon fill="black" stroke="black" points="884.8,-26.54 874.45,-28.77 883.94,-33.48 884.8,-26.54"/>
</g>
<!-- odil -->
<g id="node24" class="node">
<title>odil</title>
<g id="a_node24"><a xlink:href="https://github.com/conda-forge/odil-feedstock/pull/3" xlink:title="odil">
<ellipse fill="#31688e" stroke="black" cx="1337" cy="-162" rx="30.59" ry="18"/>
<text text-anchor="middle" x="1337" y="-158.3" font-family="Times,serif" font-size="14.00" fill="white">odil</text>
</a>
</g>
</g>
<!-- odil&#45;&gt;conda&#45;forge&#45;pinning -->
<g id="edge27" class="edge">
<title>odil&#45;&gt;conda&#45;forge&#45;pinning</title>
<path fill="none" stroke="black" d="M1336.89,-143.87C1335.75,-123.33 1330.47,-89.5 1309,-72 1278.04,-46.76 1042.88,-31.11 900.27,-23.84"/>
<polygon fill="black" stroke="black" points="900.33,-20.33 890.17,-23.33 899.98,-27.32 900.33,-20.33"/>
</g>
<!-- dicomifier -->
<g id="node25" class="node">
<title>dicomifier</title>
<ellipse fill="#fde725" stroke="black" cx="1417" cy="-90" rx="60" ry="18"/>
<text text-anchor="middle" x="1417" y="-86.3" font-family="Times,serif" font-size="14.00">dicomifier</text>
</g>
<!-- odil&#45;&gt;dicomifier -->
<g id="edge28" class="edge">
<title>odil&#45;&gt;dicomifier</title>
<path fill="none" stroke="black" d="M1353.58,-146.5C1364.31,-137.1 1378.53,-124.66 1390.78,-113.94"/>
<polygon fill="black" stroke="black" points="1393.27,-116.42 1398.49,-107.2 1388.66,-111.15 1393.27,-116.42"/>
</g>
<!-- dicomifier&#45;&gt;conda&#45;forge&#45;pinning -->
<g id="edge29" class="edge">
<title>dicomifier&#45;&gt;conda&#45;forge&#45;pinning</title>
<path fill="none" stroke="black" d="M1372.58,-77.81C1362.87,-75.64 1352.63,-73.56 1343,-72 1189.33,-47.08 1009.55,-32.5 897.96,-25.13"/>
<polygon fill="black" stroke="black" points="897.92,-21.62 887.71,-24.46 897.47,-28.61 897.92,-21.62"/>
</g>
<!-- triqs_tprf -->
<g id="node26" class="node">
<title>triqs_tprf</title>
<g id="a_node26"><a xlink:href="https://github.com/conda-forge/triqs_tprf-feedstock/pull/4" xlink:title="triqs_tprf">
<ellipse fill="#31688e" stroke="black" cx="1455" cy="-162" rx="60" ry="18"/>
<text text-anchor="middle" x="1455" y="-158.3" font-family="Times,serif" font-size="14.00" fill="white">triqs_tprf</text>
</a>
</g>
</g>
<!-- triqs_tprf&#45;&gt;conda&#45;forge&#45;pinning -->
<g id="edge30" class="edge">
<title>triqs_tprf&#45;&gt;conda&#45;forge&#45;pinning</title>
<path fill="none" stroke="black" d="M1469.55,-144.52C1485.03,-124.95 1504.91,-92.4 1486,-72 1447.38,-30.33 1091.42,-21.27 904.49,-19.41"/>
<polygon fill="black" stroke="black" points="904.38,-15.91 894.35,-19.31 904.31,-22.91 904.38,-15.91"/>
</g>
<!-- triqs_cthyb -->
<g id="node27" class="node">
<title>triqs_cthyb</title>
<g id="a_node27"><a xlink:href="https://github.com/conda-forge/triqs_cthyb-feedstock/pull/6" xlink:title="triqs_cthyb">
<ellipse fill="#31688e" stroke="black" cx="1515" cy="-234" rx="64.5" ry="18"/>
<text text-anchor="middle" x="1515" y="-230.3" font-family="Times,serif" font-size="14.00" fill="white">triqs_cthyb</text>
</a>
</g>
</g>
<!-- triqs_cthyb&#45;&gt;conda&#45;forge&#45;pinning -->
<g id="edge31" class="edge">
<title>triqs_cthyb&#45;&gt;conda&#45;forge&#45;pinning</title>
<path fill="none" stroke="black" d="M1520.62,-215.83C1530.51,-181.93 1546.24,-106.65 1504,-72 1458.77,-34.89 1093.46,-23.7 904.04,-20.37"/>
<polygon fill="black" stroke="black" points="903.83,-16.87 893.77,-20.2 903.71,-23.87 903.83,-16.87"/>
</g>
<!-- triqs_dft_tools -->
<g id="node28" class="node">
<title>triqs_dft_tools</title>
<g id="a_node28"><a xlink:href="https://github.com/conda-forge/triqs_dft_tools-feedstock/pull/6" xlink:title="triqs_dft_tools">
<ellipse fill="#31688e" stroke="black" cx="1608" cy="-306" rx="84" ry="18"/>
<text text-anchor="middle" x="1608" y="-302.3" font-family="Times,serif" font-size="14.00" fill="white">triqs_dft_tools</text>
</a>
</g>
</g>
<!-- triqs_dft_tools&#45;&gt;conda&#45;forge&#45;pinning -->
<g id="edge32" class="edge">
<title>triqs_dft_tools&#45;&gt;conda&#45;forge&#45;pinning</title>
<path fill="none" stroke="black" d="M1608.36,-287.73C1608.25,-243.09 1601.02,-123.75 1530,-72 1480.69,-36.07 1098.55,-24.28 904.01,-20.59"/>
<polygon fill="black" stroke="black" points="903.82,-17.09 893.75,-20.4 903.69,-24.09 903.82,-17.09"/>
</g>
<!-- cadabra2 -->
<g id="node29" class="node">
<title>cadabra2</title>
<g id="a_node29"><a xlink:href="https://github.com/conda-forge/cadabra2-feedstock/pull/6" xlink:title="cadabra2">
<ellipse fill="#31688e" stroke="black" cx="1720" cy="-378" rx="50.09" ry="18"/>
<text text-anchor="middle" x="1720" y="-374.3" font-family="Times,serif" font-size="14.00" fill="white">cadabra2</text>
</a>
</g>
</g>
<!-- cadabra2&#45;&gt;conda&#45;forge&#45;pinning -->
<g id="edge33" class="edge">
<title>cadabra2&#45;&gt;conda&#45;forge&#45;pinning</title>
<path fill="none" stroke="black" d="M1720,-359.95C1720,-333.29 1720,-280.11 1720,-235 1720,-235 1720,-235 1720,-161 1720,-80.02 1638.61,-95.12 1561,-72 1441.26,-36.33 1087.41,-24.51 904.04,-20.71"/>
<polygon fill="black" stroke="black" points="903.89,-17.21 893.82,-20.51 903.75,-24.21 903.89,-17.21"/>
</g>
</g>
</svg>
