<?xml version="1.0" encoding="UTF-8" standalone="no"?>
<!DOCTYPE svg PUBLIC "-//W3C//DTD SVG 1.1//EN"
 "http://www.w3.org/Graphics/SVG/1.1/DTD/svg11.dtd">
<!-- Generated by graphviz version 2.42.3 (20191010.1750)
 -->
<!-- Title: %3 Pages: 1 -->
<svg width="1383pt" height="1716pt"
 viewBox="0.00 0.00 1383.37 1716.00" xmlns="http://www.w3.org/2000/svg" xmlns:xlink="http://www.w3.org/1999/xlink">
<g id="graph0" class="graph" transform="scale(1 1) rotate(0) translate(4 1712)">
<title>%3</title>
<polygon fill="white" stroke="transparent" points="-4,4 -4,-1712 1379.37,-1712 1379.37,4 -4,4"/>
<!-- cyclus -->
<g id="node1" class="node">
<title>cyclus</title>
<g id="a_node1"><a xlink:href="https://github.com/conda-forge/cyclus-feedstock/pull/54" xlink:title="cyclus">
<ellipse fill="#31688e" stroke="black" cx="464.32" cy="-926" rx="40.5" ry="18"/>
<text text-anchor="middle" x="464.32" y="-922.3" font-family="Times,serif" font-size="14.00" fill="white">cyclus</text>
</a>
</g>
</g>
<!-- dionysus -->
<g id="node2" class="node">
<title>dionysus</title>
<g id="a_node2"><a xlink:href="https://github.com/conda-forge/dionysus-feedstock/pull/7" xlink:title="dionysus">
<ellipse fill="#31688e" stroke="black" cx="464.32" cy="-854" rx="50.09" ry="18"/>
<text text-anchor="middle" x="464.32" y="-850.3" font-family="Times,serif" font-size="14.00" fill="white">dionysus</text>
</a>
</g>
</g>
<!-- cyclus&#45;&gt;dionysus -->
<!-- libradolan -->
<g id="node3" class="node">
<title>libradolan</title>
<g id="a_node3"><a xlink:href="https://github.com/conda-forge/libradolan-feedstock/pull/22" xlink:title="libradolan">
<ellipse fill="#31688e" stroke="black" cx="464.32" cy="-782" rx="60" ry="18"/>
<text text-anchor="middle" x="464.32" y="-778.3" font-family="Times,serif" font-size="14.00" fill="white">libradolan</text>
</a>
</g>
</g>
<!-- dionysus&#45;&gt;libradolan -->
<!-- msgpack&#45;c -->
<g id="node8" class="node">
<title>msgpack&#45;c</title>
<g id="a_node8"><a xlink:href="https://github.com/conda-forge/msgpack-c-feedstock/pull/17" xlink:title="msgpack c">
<ellipse fill="#31688e" stroke="black" cx="464.32" cy="-710" rx="54.69" ry="18"/>
<text text-anchor="middle" x="464.32" y="-706.3" font-family="Times,serif" font-size="14.00" fill="white">msgpack c</text>
</a>
</g>
</g>
<!-- libradolan&#45;&gt;msgpack&#45;c -->
<!-- fenics -->
<g id="node4" class="node">
<title>fenics</title>
<g id="a_node4"><a xlink:href="https://github.com/conda-forge/fenics-feedstock/pull/106" xlink:title="fenics">
<ellipse fill="#31688e" stroke="black" cx="1063.32" cy="-126" rx="40.5" ry="18"/>
<text text-anchor="middle" x="1063.32" y="-122.3" font-family="Times,serif" font-size="14.00" fill="white">fenics</text>
</a>
</g>
</g>
<!-- mshr -->
<g id="node5" class="node">
<title>mshr</title>
<ellipse fill="#fde725" stroke="black" cx="1063.32" cy="-54" rx="30.59" ry="18"/>
<text text-anchor="middle" x="1063.32" y="-50.3" font-family="Times,serif" font-size="14.00">mshr</text>
</g>
<!-- fenics&#45;&gt;mshr -->
<g id="edge3" class="edge">
<title>fenics&#45;&gt;mshr</title>
<path fill="none" stroke="black" d="M1063.32,-107.7C1063.32,-99.98 1063.32,-90.71 1063.32,-82.11"/>
<polygon fill="black" stroke="black" points="1066.82,-82.1 1063.32,-72.1 1059.82,-82.1 1066.82,-82.1"/>
</g>
<!-- gap -->
<g id="node6" class="node">
<title>gap</title>
<ellipse fill="#fde725" stroke="black" cx="464.32" cy="-90" rx="27" ry="18"/>
<text text-anchor="middle" x="464.32" y="-86.3" font-family="Times,serif" font-size="14.00">gap</text>
</g>
<!-- sagelib -->
<g id="node7" class="node">
<title>sagelib</title>
<ellipse fill="#fde725" stroke="black" cx="464.32" cy="-18" rx="45" ry="18"/>
<text text-anchor="middle" x="464.32" y="-14.3" font-family="Times,serif" font-size="14.00">sagelib</text>
</g>
<!-- gap&#45;&gt;sagelib -->
<g id="edge4" class="edge">
<title>gap&#45;&gt;sagelib</title>
<path fill="none" stroke="black" d="M464.32,-71.7C464.32,-63.98 464.32,-54.71 464.32,-46.11"/>
<polygon fill="black" stroke="black" points="467.82,-46.1 464.32,-36.1 460.82,-46.1 467.82,-46.1"/>
</g>
<!-- openturns -->
<g id="node9" class="node">
<title>openturns</title>
<g id="a_node9"><a xlink:href="https://github.com/conda-forge/openturns-feedstock/pull/99" xlink:title="openturns">
<ellipse fill="#31688e" stroke="black" cx="464.32" cy="-638" rx="54.69" ry="18"/>
<text text-anchor="middle" x="464.32" y="-634.3" font-family="Times,serif" font-size="14.00" fill="white">openturns</text>
</a>
</g>
</g>
<!-- msgpack&#45;c&#45;&gt;openturns -->
<!-- pykep -->
<g id="node10" class="node">
<title>pykep</title>
<g id="a_node10"><a xlink:href="https://github.com/conda-forge/pykep-feedstock/pull/10" xlink:title="pykep">
<ellipse fill="#31688e" stroke="black" cx="464.32" cy="-566" rx="35.19" ry="18"/>
<text text-anchor="middle" x="464.32" y="-562.3" font-family="Times,serif" font-size="14.00" fill="white">pykep</text>
</a>
</g>
</g>
<!-- openturns&#45;&gt;pykep -->
<!-- pyne -->
<g id="node13" class="node">
<title>pyne</title>
<g id="a_node13"><a xlink:href="https://github.com/conda-forge/pyne-feedstock/pull/38" xlink:title="pyne">
<ellipse fill="#31688e" stroke="black" cx="464.32" cy="-494" rx="30.59" ry="18"/>
<text text-anchor="middle" x="464.32" y="-490.3" font-family="Times,serif" font-size="14.00" fill="white">pyne</text>
</a>
</g>
</g>
<!-- pykep&#45;&gt;pyne -->
<!-- pygmo -->
<g id="node11" class="node">
<title>pygmo</title>
<g id="a_node11"><a xlink:href="https://github.com/conda-forge/pygmo-feedstock/pull/44" xlink:title="pygmo">
<ellipse fill="#31688e" stroke="black" cx="1256.32" cy="-566" rx="35.19" ry="18"/>
<text text-anchor="middle" x="1256.32" y="-562.3" font-family="Times,serif" font-size="14.00" fill="white">pygmo</text>
</a>
</g>
</g>
<!-- dcgp&#45;python -->
<g id="node12" class="node">
<title>dcgp&#45;python</title>
<ellipse fill="#fde725" stroke="black" cx="1287.32" cy="-494" rx="64.5" ry="18"/>
<text text-anchor="middle" x="1287.32" y="-490.3" font-family="Times,serif" font-size="14.00">dcgp python</text>
</g>
<!-- pygmo&#45;&gt;dcgp&#45;python -->
<g id="edge8" class="edge">
<title>pygmo&#45;&gt;dcgp&#45;python</title>
<path fill="none" stroke="black" d="M1263.83,-548.05C1267.36,-540.09 1271.64,-530.41 1275.58,-521.51"/>
<polygon fill="black" stroke="black" points="1278.83,-522.84 1279.67,-512.28 1272.42,-520 1278.83,-522.84"/>
</g>
<!-- rank_filter -->
<g id="node14" class="node">
<title>rank_filter</title>
<g id="a_node14"><a xlink:href="https://github.com/conda-forge/rank_filter-feedstock/pull/43" xlink:title="rank_filter">
<ellipse fill="#31688e" stroke="black" cx="464.32" cy="-422" rx="64.5" ry="18"/>
<text text-anchor="middle" x="464.32" y="-418.3" font-family="Times,serif" font-size="14.00" fill="white">rank_filter</text>
</a>
</g>
</g>
<!-- pyne&#45;&gt;rank_filter -->
<!-- rsgislib -->
<g id="node15" class="node">
<title>rsgislib</title>
<g id="a_node15"><a xlink:href="https://github.com/conda-forge/rsgislib-feedstock/pull/28" xlink:title="rsgislib">
<ellipse fill="#31688e" stroke="black" cx="464.32" cy="-350" rx="50.09" ry="18"/>
<text text-anchor="middle" x="464.32" y="-346.3" font-family="Times,serif" font-size="14.00" fill="white">rsgislib</text>
</a>
</g>
</g>
<!-- rank_filter&#45;&gt;rsgislib -->
<!-- turbodbc -->
<g id="node16" class="node">
<title>turbodbc</title>
<g id="a_node16"><a xlink:href="https://github.com/conda-forge/turbodbc-feedstock/pull/38" xlink:title="turbodbc">
<ellipse fill="#31688e" stroke="black" cx="464.32" cy="-278" rx="50.09" ry="18"/>
<text text-anchor="middle" x="464.32" y="-274.3" font-family="Times,serif" font-size="14.00" fill="white">turbodbc</text>
</a>
</g>
</g>
<!-- rsgislib&#45;&gt;turbodbc -->
<!-- clblas -->
<g id="node17" class="node">
<title>clblas</title>
<g id="a_node17"><a xlink:href="https://github.com/conda-forge/clblas-feedstock/pull/9" xlink:title="clblas">
<ellipse fill="#31688e" stroke="black" cx="464.32" cy="-206" rx="40.5" ry="18"/>
<text text-anchor="middle" x="464.32" y="-202.3" font-family="Times,serif" font-size="14.00" fill="white">clblas</text>
</a>
</g>
</g>
<!-- turbodbc&#45;&gt;clblas -->
<!-- audi -->
<g id="node18" class="node">
<title>audi</title>
<g id="a_node18"><a xlink:href="https://github.com/conda-forge/audi-feedstock/pull/16" xlink:title="audi">
<ellipse fill="#31688e" stroke="black" cx="1319.32" cy="-638" rx="30.59" ry="18"/>
<text text-anchor="middle" x="1319.32" y="-634.3" font-family="Times,serif" font-size="14.00" fill="white">audi</text>
</a>
</g>
</g>
<!-- audi&#45;&gt;dcgp&#45;python -->
<g id="edge14" class="edge">
<title>audi&#45;&gt;dcgp&#45;python</title>
<path fill="none" stroke="black" d="M1315.84,-619.9C1312.13,-601.96 1306.05,-572.95 1300.32,-548 1298.39,-539.56 1296.18,-530.39 1294.14,-522.09"/>
<polygon fill="black" stroke="black" points="1297.48,-521.02 1291.67,-512.15 1290.68,-522.7 1297.48,-521.02"/>
</g>
<!-- clfft -->
<g id="node19" class="node">
<title>clfft</title>
<g id="a_node19"><a xlink:href="https://github.com/conda-forge/clfft-feedstock/pull/9" xlink:title="clfft">
<ellipse fill="#31688e" stroke="black" cx="1063.32" cy="-1690" rx="35.19" ry="18"/>
<text text-anchor="middle" x="1063.32" y="-1686.3" font-family="Times,serif" font-size="14.00" fill="white">clfft</text>
</a>
</g>
</g>
<!-- clsparse -->
<g id="node20" class="node">
<title>clsparse</title>
<g id="a_node20"><a xlink:href="https://github.com/conda-forge/clsparse-feedstock/pull/7" xlink:title="clsparse">
<ellipse fill="#31688e" stroke="black" cx="1063.32" cy="-1618" rx="50.09" ry="18"/>
<text text-anchor="middle" x="1063.32" y="-1614.3" font-family="Times,serif" font-size="14.00" fill="white">clsparse</text>
</a>
</g>
</g>
<!-- clfft&#45;&gt;clsparse -->
<!-- spdlib -->
<g id="node21" class="node">
<title>spdlib</title>
<g id="a_node21"><a xlink:href="https://github.com/conda-forge/spdlib-feedstock/pull/11" xlink:title="spdlib">
<ellipse fill="#31688e" stroke="black" cx="1063.32" cy="-1546" rx="40.5" ry="18"/>
<text text-anchor="middle" x="1063.32" y="-1542.3" font-family="Times,serif" font-size="14.00" fill="white">spdlib</text>
</a>
</g>
</g>
<!-- clsparse&#45;&gt;spdlib -->
<!-- pcl -->
<g id="node22" class="node">
<title>pcl</title>
<g id="a_node22"><a xlink:href="https://github.com/conda-forge/pcl-feedstock/pull/20" xlink:title="pcl">
<ellipse fill="#31688e" stroke="black" cx="1063.32" cy="-1474" rx="27" ry="18"/>
<text text-anchor="middle" x="1063.32" y="-1470.3" font-family="Times,serif" font-size="14.00" fill="white">pcl</text>
</a>
</g>
</g>
<!-- spdlib&#45;&gt;pcl -->
<!-- trilinos -->
<g id="node23" class="node">
<title>trilinos</title>
<g id="a_node23"><a xlink:href="https://github.com/conda-forge/trilinos-feedstock/pull/29" xlink:title="trilinos">
<ellipse fill="#31688e" stroke="black" cx="1063.32" cy="-1402" rx="50.09" ry="18"/>
<text text-anchor="middle" x="1063.32" y="-1398.3" font-family="Times,serif" font-size="14.00" fill="white">trilinos</text>
</a>
</g>
</g>
<!-- pcl&#45;&gt;trilinos -->
<!-- libhdfs3 -->
<g id="node24" class="node">
<title>libhdfs3</title>
<g id="a_node24"><a xlink:href="https://github.com/conda-forge/libhdfs3-feedstock/pull/31" xlink:title="libhdfs3">
<ellipse fill="#31688e" stroke="black" cx="1063.32" cy="-1330" rx="50.09" ry="18"/>
<text text-anchor="middle" x="1063.32" y="-1326.3" font-family="Times,serif" font-size="14.00" fill="white">libhdfs3</text>
</a>
</g>
</g>
<!-- trilinos&#45;&gt;libhdfs3 -->
<!-- freecad -->
<g id="node25" class="node">
<title>freecad</title>
<g id="a_node25"><a xlink:href="https://github.com/conda-forge/freecad-feedstock/pull/35" xlink:title="freecad">
<ellipse fill="#31688e" stroke="black" cx="1063.32" cy="-1258" rx="45" ry="18"/>
<text text-anchor="middle" x="1063.32" y="-1254.3" font-family="Times,serif" font-size="14.00" fill="white">freecad</text>
</a>
</g>
</g>
<!-- libhdfs3&#45;&gt;freecad -->
<!-- helics -->
<g id="node26" class="node">
<title>helics</title>
<g id="a_node26"><a xlink:href="https://github.com/conda-forge/helics-feedstock/pull/17" xlink:title="helics">
<ellipse fill="#31688e" stroke="black" cx="1063.32" cy="-1186" rx="40.5" ry="18"/>
<text text-anchor="middle" x="1063.32" y="-1182.3" font-family="Times,serif" font-size="14.00" fill="white">helics</text>
</a>
</g>
</g>
<!-- freecad&#45;&gt;helics -->
<!-- nds2&#45;client -->
<g id="node27" class="node">
<title>nds2&#45;client</title>
<g id="a_node27"><a xlink:href="https://github.com/conda-forge/nds2-client-feedstock/pull/9" xlink:title="nds2 client">
<ellipse fill="#31688e" stroke="black" cx="1063.32" cy="-1114" rx="64.5" ry="18"/>
<text text-anchor="middle" x="1063.32" y="-1110.3" font-family="Times,serif" font-size="14.00" fill="white">nds2 client</text>
</a>
</g>
</g>
<!-- helics&#45;&gt;nds2&#45;client -->
<!-- gudhi -->
<g id="node28" class="node">
<title>gudhi</title>
<g id="a_node28"><a xlink:href="https://github.com/conda-forge/gudhi-feedstock/pull/16" xlink:title="gudhi">
<ellipse fill="#31688e" stroke="black" cx="1063.32" cy="-1042" rx="35.19" ry="18"/>
<text text-anchor="middle" x="1063.32" y="-1038.3" font-family="Times,serif" font-size="14.00" fill="white">gudhi</text>
</a>
</g>
</g>
<!-- nds2&#45;client&#45;&gt;gudhi -->
<!-- ldas&#45;tools&#45;diskcacheapi -->
<g id="node29" class="node">
<title>ldas&#45;tools&#45;diskcacheapi</title>
<g id="a_node29"><a xlink:href="https://github.com/conda-forge/ldas-tools-diskcacheapi-feedstock/pull/4" xlink:title="ldas tools diskcacheapi">
<ellipse fill="#31688e" stroke="black" cx="1063.32" cy="-970" rx="123" ry="18"/>
<text text-anchor="middle" x="1063.32" y="-966.3" font-family="Times,serif" font-size="14.00" fill="white">ldas tools diskcacheapi</text>
</a>
</g>
</g>
<!-- gudhi&#45;&gt;ldas&#45;tools&#45;diskcacheapi -->
<!-- libint -->
<g id="node30" class="node">
<title>libint</title>
<g id="a_node30"><a xlink:href="https://github.com/conda-forge/libint-feedstock/pull/5" xlink:title="libint">
<ellipse fill="#31688e" stroke="black" cx="1286.32" cy="-1690" rx="40.5" ry="18"/>
<text text-anchor="middle" x="1286.32" y="-1686.3" font-family="Times,serif" font-size="14.00" fill="white">libint</text>
</a>
</g>
</g>
<!-- dealii -->
<g id="node31" class="node">
<title>dealii</title>
<g id="a_node31"><a xlink:href="https://github.com/conda-forge/dealii-feedstock/pull/6" xlink:title="dealii">
<ellipse fill="#31688e" stroke="black" cx="1286.32" cy="-1618" rx="40.5" ry="18"/>
<text text-anchor="middle" x="1286.32" y="-1614.3" font-family="Times,serif" font-size="14.00" fill="white">dealii</text>
</a>
</g>
</g>
<!-- libint&#45;&gt;dealii -->
<!-- lhcb&#45;simpletools -->
<g id="node32" class="node">
<title>lhcb&#45;simpletools</title>
<g id="a_node32"><a xlink:href="https://github.com/conda-forge/lhcb-simpletools-feedstock/pull/4" xlink:title="lhcb simpletools">
<ellipse fill="#31688e" stroke="black" cx="1286.32" cy="-1546" rx="89.08" ry="18"/>
<text text-anchor="middle" x="1286.32" y="-1542.3" font-family="Times,serif" font-size="14.00" fill="white">lhcb simpletools</text>
</a>
</g>
</g>
<!-- dealii&#45;&gt;lhcb&#45;simpletools -->
<!-- omniscidb&#45;cpu -->
<g id="node33" class="node">
<title>omniscidb&#45;cpu</title>
<g id="a_node33"><a xlink:href="https://github.com/conda-forge/omniscidb-cpu-feedstock/pull/22" xlink:title="omniscidb cpu">
<ellipse fill="#31688e" stroke="black" cx="1286.32" cy="-1474" rx="74.19" ry="18"/>
<text text-anchor="middle" x="1286.32" y="-1470.3" font-family="Times,serif" font-size="14.00" fill="white">omniscidb cpu</text>
</a>
</g>
</g>
<!-- lhcb&#45;simpletools&#45;&gt;omniscidb&#45;cpu -->
<!-- ambertools -->
<g id="node34" class="node">
<title>ambertools</title>
<g id="a_node34"><a xlink:href="https://github.com/conda-forge/ambertools-feedstock/pull/25" xlink:title="ambertools">
<ellipse fill="#31688e" stroke="black" cx="1286.32" cy="-1402" rx="60" ry="18"/>
<text text-anchor="middle" x="1286.32" y="-1398.3" font-family="Times,serif" font-size="14.00" fill="white">ambertools</text>
</a>
</g>
</g>
<!-- omniscidb&#45;cpu&#45;&gt;ambertools -->
<!-- biorbd -->
<g id="node35" class="node">
<title>biorbd</title>
<g id="a_node35"><a xlink:href="https://github.com/conda-forge/biorbd-feedstock/pull/13" xlink:title="biorbd">
<ellipse fill="#31688e" stroke="black" cx="1286.32" cy="-1330" rx="40.5" ry="18"/>
<text text-anchor="middle" x="1286.32" y="-1326.3" font-family="Times,serif" font-size="14.00" fill="white">biorbd</text>
</a>
</g>
</g>
<!-- ambertools&#45;&gt;biorbd -->
<!-- esys&#45;escript -->
<g id="node36" class="node">
<title>esys&#45;escript</title>
<g id="a_node36"><a xlink:href="https://github.com/conda-forge/esys-escript-feedstock/pull/11" xlink:title="esys escript">
<ellipse fill="#31688e" stroke="black" cx="1286.32" cy="-1258" rx="69.59" ry="18"/>
<text text-anchor="middle" x="1286.32" y="-1254.3" font-family="Times,serif" font-size="14.00" fill="white">esys escript</text>
</a>
</g>
</g>
<!-- biorbd&#45;&gt;esys&#45;escript -->
<!-- graph&#45;tool -->
<g id="node38" class="node">
<title>graph&#45;tool</title>
<g id="a_node38"><a xlink:href="https://github.com/conda-forge/graph-tool-feedstock/pull/8" xlink:title="graph tool">
<ellipse fill="#31688e" stroke="black" cx="1286.32" cy="-1186" rx="60" ry="18"/>
<text text-anchor="middle" x="1286.32" y="-1182.3" font-family="Times,serif" font-size="14.00" fill="white">graph tool</text>
</a>
</g>
</g>
<!-- esys&#45;escript&#45;&gt;graph&#45;tool -->
<!-- normaliz -->
<g id="node37" class="node">
<title>normaliz</title>
<g id="a_node37"><a xlink:href="https://github.com/conda-forge/normaliz-feedstock/pull/18" xlink:title="normaliz">
<ellipse fill="#31688e" stroke="black" cx="464.32" cy="-162" rx="50.09" ry="18"/>
<text text-anchor="middle" x="464.32" y="-158.3" font-family="Times,serif" font-size="14.00" fill="white">normaliz</text>
</a>
</g>
</g>
<!-- normaliz&#45;&gt;gap -->
<g id="edge31" class="edge">
<title>normaliz&#45;&gt;gap</title>
<path fill="none" stroke="black" d="M464.32,-143.7C464.32,-135.98 464.32,-126.71 464.32,-118.11"/>
<polygon fill="black" stroke="black" points="467.82,-118.1 464.32,-108.1 460.82,-118.1 467.82,-118.1"/>
</g>
<!-- topologytoolkit -->
<g id="node44" class="node">
<title>topologytoolkit</title>
<g id="a_node44"><a xlink:href="https://github.com/conda-forge/topologytoolkit-feedstock/pull/4" xlink:title="topologytoolkit">
<ellipse fill="#31688e" stroke="black" cx="1286.32" cy="-1114" rx="84" ry="18"/>
<text text-anchor="middle" x="1286.32" y="-1110.3" font-family="Times,serif" font-size="14.00" fill="white">topologytoolkit</text>
</a>
</g>
</g>
<!-- graph&#45;tool&#45;&gt;topologytoolkit -->
<!-- xmscore -->
<g id="node39" class="node">
<title>xmscore</title>
<g id="a_node39"><a xlink:href="https://github.com/conda-forge/xmscore-feedstock/pull/4" xlink:title="xmscore">
<ellipse fill="#31688e" stroke="black" cx="1051.32" cy="-674" rx="45" ry="18"/>
<text text-anchor="middle" x="1051.32" y="-670.3" font-family="Times,serif" font-size="14.00" fill="white">xmscore</text>
</a>
</g>
</g>
<!-- xmsgrid -->
<g id="node40" class="node">
<title>xmsgrid</title>
<ellipse fill="#fde725" stroke="black" cx="1086.32" cy="-602" rx="45" ry="18"/>
<text text-anchor="middle" x="1086.32" y="-598.3" font-family="Times,serif" font-size="14.00">xmsgrid</text>
</g>
<!-- xmscore&#45;&gt;xmsgrid -->
<g id="edge33" class="edge">
<title>xmscore&#45;&gt;xmsgrid</title>
<path fill="none" stroke="black" d="M1059.8,-656.05C1063.88,-647.89 1068.87,-637.91 1073.41,-628.82"/>
<polygon fill="black" stroke="black" points="1076.59,-630.3 1077.93,-619.79 1070.33,-627.17 1076.59,-630.3"/>
</g>
<!-- xmsinterp -->
<g id="node41" class="node">
<title>xmsinterp</title>
<ellipse fill="#fde725" stroke="black" cx="1008.32" cy="-530" rx="54.69" ry="18"/>
<text text-anchor="middle" x="1008.32" y="-526.3" font-family="Times,serif" font-size="14.00">xmsinterp</text>
</g>
<!-- xmscore&#45;&gt;xmsinterp -->
<g id="edge34" class="edge">
<title>xmscore&#45;&gt;xmsinterp</title>
<path fill="none" stroke="black" d="M1044.81,-655.93C1040.97,-645.6 1036.13,-632.13 1032.32,-620 1025.9,-599.51 1019.62,-576.06 1015.09,-558.37"/>
<polygon fill="black" stroke="black" points="1018.36,-557.02 1012.52,-548.18 1011.58,-558.73 1018.36,-557.02"/>
</g>
<!-- xmsstamper -->
<g id="node42" class="node">
<title>xmsstamper</title>
<ellipse fill="#fde725" stroke="black" cx="1002.32" cy="-458" rx="60" ry="18"/>
<text text-anchor="middle" x="1002.32" y="-454.3" font-family="Times,serif" font-size="14.00">xmsstamper</text>
</g>
<!-- xmscore&#45;&gt;xmsstamper -->
<g id="edge35" class="edge">
<title>xmscore&#45;&gt;xmsstamper</title>
<path fill="none" stroke="black" d="M1031.17,-657.46C1005.29,-636.09 961.65,-594.89 944.32,-548 938.78,-532.99 937.87,-526.64 944.32,-512 949.71,-499.79 959.45,-489.17 969.43,-480.71"/>
<polygon fill="black" stroke="black" points="971.74,-483.35 977.41,-474.4 967.39,-477.86 971.74,-483.35"/>
</g>
<!-- xmsmesher -->
<g id="node43" class="node">
<title>xmsmesher</title>
<ellipse fill="#fde725" stroke="black" cx="1135.32" cy="-458" rx="54.69" ry="18"/>
<text text-anchor="middle" x="1135.32" y="-454.3" font-family="Times,serif" font-size="14.00">xmsmesher</text>
</g>
<!-- xmscore&#45;&gt;xmsmesher -->
<g id="edge36" class="edge">
<title>xmscore&#45;&gt;xmsmesher</title>
<path fill="none" stroke="black" d="M1085.48,-662.27C1105.3,-654.08 1128.59,-640.64 1140.32,-620 1164.12,-578.14 1153.64,-519.75 1144.23,-486.01"/>
<polygon fill="black" stroke="black" points="1147.58,-484.97 1141.39,-476.37 1140.86,-486.96 1147.58,-484.97"/>
</g>
<!-- xmsgrid&#45;&gt;xmsinterp -->
<g id="edge37" class="edge">
<title>xmsgrid&#45;&gt;xmsinterp</title>
<path fill="none" stroke="black" d="M1068.63,-585.12C1058.33,-575.87 1045.17,-564.07 1033.77,-553.84"/>
<polygon fill="black" stroke="black" points="1036,-551.14 1026.22,-547.06 1031.33,-556.35 1036,-551.14"/>
</g>
<!-- xmsgrid&#45;&gt;xmsstamper -->
<g id="edge38" class="edge">
<title>xmsgrid&#45;&gt;xmsstamper</title>
<path fill="none" stroke="black" d="M1087.3,-583.99C1087.59,-565.09 1085.66,-534.28 1072.32,-512 1064.44,-498.82 1051.92,-487.81 1039.63,-479.3"/>
<polygon fill="black" stroke="black" points="1041.51,-476.34 1031.22,-473.81 1037.68,-482.2 1041.51,-476.34"/>
</g>
<!-- xmsgrid&#45;&gt;xmsmesher -->
<g id="edge39" class="edge">
<title>xmsgrid&#45;&gt;xmsmesher</title>
<path fill="none" stroke="black" d="M1092.57,-583.84C1096.32,-573.48 1101.15,-560 1105.32,-548 1112.58,-527.14 1120.55,-503.45 1126.46,-485.75"/>
<polygon fill="black" stroke="black" points="1129.83,-486.69 1129.67,-476.09 1123.19,-484.48 1129.83,-486.69"/>
</g>
<!-- xmsinterp&#45;&gt;xmsstamper -->
<g id="edge40" class="edge">
<title>xmsinterp&#45;&gt;xmsstamper</title>
<path fill="none" stroke="black" d="M1006.84,-511.7C1006.18,-503.98 1005.39,-494.71 1004.65,-486.11"/>
<polygon fill="black" stroke="black" points="1008.13,-485.77 1003.79,-476.1 1001.16,-486.37 1008.13,-485.77"/>
</g>
<!-- xmsinterp&#45;&gt;xmsmesher -->
<g id="edge41" class="edge">
<title>xmsinterp&#45;&gt;xmsmesher</title>
<path fill="none" stroke="black" d="M1035.26,-514.15C1053.95,-503.85 1079.05,-490.02 1099.44,-478.78"/>
<polygon fill="black" stroke="black" points="1101.36,-481.72 1108.43,-473.82 1097.98,-475.59 1101.36,-481.72"/>
</g>
<!-- pyinterp -->
<g id="node45" class="node">
<title>pyinterp</title>
<g id="a_node45"><a xlink:href="https://github.com/conda-forge/pyinterp-feedstock/pull/15" xlink:title="pyinterp">
<ellipse fill="#31688e" stroke="black" cx="1286.32" cy="-1042" rx="50.09" ry="18"/>
<text text-anchor="middle" x="1286.32" y="-1038.3" font-family="Times,serif" font-size="14.00" fill="white">pyinterp</text>
</a>
</g>
</g>
<!-- topologytoolkit&#45;&gt;pyinterp -->
<!-- gazebo -->
<g id="node46" class="node">
<title>gazebo</title>
<g id="a_node46"><a xlink:href="https://github.com/conda-forge/gazebo-feedstock/pull/6" xlink:title="gazebo">
<ellipse fill="#31688e" stroke="black" cx="1286.32" cy="-970" rx="40.5" ry="18"/>
<text text-anchor="middle" x="1286.32" y="-966.3" font-family="Times,serif" font-size="14.00" fill="white">gazebo</text>
</a>
</g>
</g>
<!-- pyinterp&#45;&gt;gazebo -->
<!-- ros&#45;rostime -->
<g id="node47" class="node">
<title>ros&#45;rostime</title>
<g id="a_node47"><a xlink:href="https://github.com/conda-forge/ros-rostime-feedstock/pull/4" xlink:title="ros rostime">
<ellipse fill="#31688e" stroke="black" cx="552.32" cy="-1474" rx="64.5" ry="18"/>
<text text-anchor="middle" x="552.32" y="-1470.3" font-family="Times,serif" font-size="14.00" fill="white">ros rostime</text>
</a>
</g>
</g>
<!-- ros&#45;rosconsole -->
<g id="node48" class="node">
<title>ros&#45;rosconsole</title>
<ellipse fill="#fde725" stroke="black" cx="770.32" cy="-1402" rx="79.5" ry="18"/>
<text text-anchor="middle" x="770.32" y="-1398.3" font-family="Times,serif" font-size="14.00">ros rosconsole</text>
</g>
<!-- ros&#45;rostime&#45;&gt;ros&#45;rosconsole -->
<g id="edge45" class="edge">
<title>ros&#45;rostime&#45;&gt;ros&#45;rosconsole</title>
<path fill="none" stroke="black" d="M593.07,-1459.92C627.92,-1448.73 678.33,-1432.54 716.49,-1420.29"/>
<polygon fill="black" stroke="black" points="717.96,-1423.49 726.41,-1417.1 715.82,-1416.83 717.96,-1423.49"/>
</g>
<!-- ros&#45;rosbag&#45;storage -->
<g id="node49" class="node">
<title>ros&#45;rosbag&#45;storage</title>
<ellipse fill="#fde725" stroke="black" cx="606.32" cy="-1258" rx="99" ry="18"/>
<text text-anchor="middle" x="606.32" y="-1254.3" font-family="Times,serif" font-size="14.00">ros rosbag storage</text>
</g>
<!-- ros&#45;rostime&#45;&gt;ros&#45;rosbag&#45;storage -->
<g id="edge46" class="edge">
<title>ros&#45;rostime&#45;&gt;ros&#45;rosbag&#45;storage</title>
<path fill="none" stroke="black" d="M612.77,-1467.55C689.93,-1459.74 818.34,-1443.66 859.32,-1420 895.4,-1399.18 905.14,-1387.17 919.32,-1348 924.77,-1332.96 929.65,-1324.22 919.32,-1312 893.06,-1280.91 792.93,-1268.06 712.9,-1262.74"/>
<polygon fill="black" stroke="black" points="712.95,-1259.24 702.75,-1262.1 712.51,-1266.22 712.95,-1259.24"/>
</g>
<!-- ros&#45;rosbag -->
<g id="node50" class="node">
<title>ros&#45;rosbag</title>
<ellipse fill="#fde725" stroke="black" cx="270.32" cy="-1186" rx="60" ry="18"/>
<text text-anchor="middle" x="270.32" y="-1182.3" font-family="Times,serif" font-size="14.00">ros rosbag</text>
</g>
<!-- ros&#45;rostime&#45;&gt;ros&#45;rosbag -->
<g id="edge47" class="edge">
<title>ros&#45;rostime&#45;&gt;ros&#45;rosbag</title>
<path fill="none" stroke="black" d="M489.13,-1470.04C382.69,-1464.3 172.69,-1449.54 105.32,-1420 60.29,-1400.25 41.87,-1392.67 21.32,-1348 0,-1301.64 20.03,-1271.32 60.32,-1240 100.4,-1208.85 156.6,-1195.81 200.78,-1190.45"/>
<polygon fill="black" stroke="black" points="201.31,-1193.91 210.87,-1189.33 200.54,-1186.95 201.31,-1193.91"/>
</g>
<!-- ros&#45;actionlib -->
<g id="node51" class="node">
<title>ros&#45;actionlib</title>
<ellipse fill="#fde725" stroke="black" cx="389.32" cy="-1330" rx="74.19" ry="18"/>
<text text-anchor="middle" x="389.32" y="-1326.3" font-family="Times,serif" font-size="14.00">ros actionlib</text>
</g>
<!-- ros&#45;rostime&#45;&gt;ros&#45;actionlib -->
<g id="edge48" class="edge">
<title>ros&#45;rostime&#45;&gt;ros&#45;actionlib</title>
<path fill="none" stroke="black" d="M533.63,-1456.71C504.8,-1431.59 449.36,-1383.3 416.22,-1354.43"/>
<polygon fill="black" stroke="black" points="418.15,-1351.47 408.31,-1347.54 413.55,-1356.74 418.15,-1351.47"/>
</g>
<!-- ros&#45;rosconsole&#45;&gt;ros&#45;rosbag&#45;storage -->
<g id="edge49" class="edge">
<title>ros&#45;rosconsole&#45;&gt;ros&#45;rosbag&#45;storage</title>
<path fill="none" stroke="black" d="M834.28,-1391.21C859.87,-1383.81 886.9,-1370.81 902.32,-1348 911.29,-1334.75 912.59,-1324.27 902.32,-1312 878.04,-1282.98 786.31,-1269.83 711.33,-1263.88"/>
<polygon fill="black" stroke="black" points="711.57,-1260.39 701.34,-1263.12 711.04,-1267.37 711.57,-1260.39"/>
</g>
<!-- ros&#45;rosconsole&#45;&gt;ros&#45;rosbag -->
<g id="edge50" class="edge">
<title>ros&#45;rosconsole&#45;&gt;ros&#45;rosbag</title>
<path fill="none" stroke="black" d="M841.12,-1393.59C870.31,-1386.65 901.44,-1373.35 919.32,-1348 928.55,-1334.93 928.58,-1325.05 919.32,-1312 852.93,-1218.31 493.64,-1194.71 340.03,-1188.87"/>
<polygon fill="black" stroke="black" points="339.9,-1185.37 329.78,-1188.5 339.64,-1192.36 339.9,-1185.37"/>
</g>
<!-- ros&#45;rosconsole&#45;&gt;ros&#45;actionlib -->
<g id="edge51" class="edge">
<title>ros&#45;rosconsole&#45;&gt;ros&#45;actionlib</title>
<path fill="none" stroke="black" d="M708.89,-1390.55C648.57,-1380.18 554,-1363.62 472.32,-1348 466.26,-1346.84 459.95,-1345.6 453.64,-1344.34"/>
<polygon fill="black" stroke="black" points="454.25,-1340.9 443.75,-1342.36 452.87,-1347.76 454.25,-1340.9"/>
</g>
<!-- ros&#45;pluginlib -->
<g id="node52" class="node">
<title>ros&#45;pluginlib</title>
<ellipse fill="#fde725" stroke="black" cx="555.32" cy="-1330" rx="74.19" ry="18"/>
<text text-anchor="middle" x="555.32" y="-1326.3" font-family="Times,serif" font-size="14.00">ros pluginlib</text>
</g>
<!-- ros&#45;rosconsole&#45;&gt;ros&#45;pluginlib -->
<g id="edge52" class="edge">
<title>ros&#45;rosconsole&#45;&gt;ros&#45;pluginlib</title>
<path fill="none" stroke="black" d="M726.82,-1386.83C692.38,-1375.62 644.18,-1359.93 607.64,-1348.03"/>
<polygon fill="black" stroke="black" points="608.26,-1344.55 597.67,-1344.79 606.09,-1351.21 608.26,-1344.55"/>
</g>
<!-- ros&#45;message&#45;filters -->
<g id="node53" class="node">
<title>ros&#45;message&#45;filters</title>
<ellipse fill="#fde725" stroke="black" cx="789.32" cy="-1330" rx="103.5" ry="18"/>
<text text-anchor="middle" x="789.32" y="-1326.3" font-family="Times,serif" font-size="14.00">ros message filters</text>
</g>
<!-- ros&#45;rosconsole&#45;&gt;ros&#45;message&#45;filters -->
<g id="edge53" class="edge">
<title>ros&#45;rosconsole&#45;&gt;ros&#45;message&#45;filters</title>
<path fill="none" stroke="black" d="M775.02,-1383.7C777.14,-1375.9 779.69,-1366.51 782.04,-1357.83"/>
<polygon fill="black" stroke="black" points="785.44,-1358.67 784.68,-1348.1 778.68,-1356.84 785.44,-1358.67"/>
</g>
<!-- ros&#45;rosbag&#45;storage&#45;&gt;ros&#45;rosbag -->
<g id="edge54" class="edge">
<title>ros&#45;rosbag&#45;storage&#45;&gt;ros&#45;rosbag</title>
<path fill="none" stroke="black" d="M543.91,-1244C482.11,-1231.12 388.24,-1211.57 328.1,-1199.04"/>
<polygon fill="black" stroke="black" points="328.52,-1195.55 318.02,-1196.94 327.09,-1202.4 328.52,-1195.55"/>
</g>
<!-- ros&#45;pluginlib&#45;&gt;ros&#45;rosbag&#45;storage -->
<g id="edge60" class="edge">
<title>ros&#45;pluginlib&#45;&gt;ros&#45;rosbag&#45;storage</title>
<path fill="none" stroke="black" d="M567.67,-1312.05C573.72,-1303.75 581.13,-1293.58 587.84,-1284.38"/>
<polygon fill="black" stroke="black" points="590.68,-1286.42 593.74,-1276.28 585.02,-1282.3 590.68,-1286.42"/>
</g>
<!-- ros&#45;roslib -->
<g id="node54" class="node">
<title>ros&#45;roslib</title>
<g id="a_node54"><a xlink:href="https://github.com/conda-forge/ros-roslib-feedstock/pull/6" xlink:title="ros roslib">
<ellipse fill="#31688e" stroke="black" cx="174.32" cy="-1402" rx="60" ry="18"/>
<text text-anchor="middle" x="174.32" y="-1398.3" font-family="Times,serif" font-size="14.00" fill="white">ros roslib</text>
</a>
</g>
</g>
<!-- ros&#45;roslib&#45;&gt;ros&#45;rosbag&#45;storage -->
<g id="edge55" class="edge">
<title>ros&#45;roslib&#45;&gt;ros&#45;rosbag&#45;storage</title>
<path fill="none" stroke="black" d="M120.6,-1393.9C92.26,-1387.12 59.82,-1373.88 42.32,-1348 33.36,-1334.75 31.55,-1323.83 42.32,-1312 72.39,-1278.98 343.72,-1266.13 498.81,-1261.46"/>
<polygon fill="black" stroke="black" points="498.97,-1264.96 508.86,-1261.16 498.76,-1257.96 498.97,-1264.96"/>
</g>
<!-- ros&#45;roslib&#45;&gt;ros&#45;rosbag -->
<g id="edge56" class="edge">
<title>ros&#45;roslib&#45;&gt;ros&#45;rosbag</title>
<path fill="none" stroke="black" d="M118.07,-1395.51C86.99,-1389.27 50.83,-1376.04 31.32,-1348 22.19,-1334.87 23.04,-1325.69 31.32,-1312 70.28,-1247.67 154.42,-1214.86 211.73,-1199.34"/>
<polygon fill="black" stroke="black" points="212.95,-1202.64 221.74,-1196.73 211.18,-1195.86 212.95,-1202.64"/>
</g>
<!-- ros&#45;roslib&#45;&gt;ros&#45;actionlib -->
<g id="edge57" class="edge">
<title>ros&#45;roslib&#45;&gt;ros&#45;actionlib</title>
<path fill="none" stroke="black" d="M213.76,-1388.16C248.37,-1376.89 298.97,-1360.42 336.96,-1348.05"/>
<polygon fill="black" stroke="black" points="338.4,-1351.26 346.83,-1344.84 336.24,-1344.6 338.4,-1351.26"/>
</g>
<!-- ros&#45;roslib&#45;&gt;ros&#45;pluginlib -->
<g id="edge58" class="edge">
<title>ros&#45;roslib&#45;&gt;ros&#45;pluginlib</title>
<path fill="none" stroke="black" d="M225.28,-1392.35C284.68,-1382.18 385.75,-1364.56 472.32,-1348 478.39,-1346.84 484.7,-1345.6 491.01,-1344.34"/>
<polygon fill="black" stroke="black" points="491.78,-1347.76 500.9,-1342.36 490.4,-1340.9 491.78,-1347.76"/>
</g>
<!-- ros&#45;dynamic&#45;reconfigure -->
<g id="node55" class="node">
<title>ros&#45;dynamic&#45;reconfigure</title>
<ellipse fill="#fde725" stroke="black" cx="174.32" cy="-1330" rx="123" ry="18"/>
<text text-anchor="middle" x="174.32" y="-1326.3" font-family="Times,serif" font-size="14.00">ros dynamic reconfigure</text>
</g>
<!-- ros&#45;roslib&#45;&gt;ros&#45;dynamic&#45;reconfigure -->
<g id="edge59" class="edge">
<title>ros&#45;roslib&#45;&gt;ros&#45;dynamic&#45;reconfigure</title>
<path fill="none" stroke="black" d="M174.32,-1383.7C174.32,-1375.98 174.32,-1366.71 174.32,-1358.11"/>
<polygon fill="black" stroke="black" points="177.82,-1358.1 174.32,-1348.1 170.82,-1358.1 177.82,-1358.1"/>
</g>
<!-- ros&#45;rostest -->
<g id="node56" class="node">
<title>ros&#45;rostest</title>
<g id="a_node56"><a xlink:href="https://github.com/conda-forge/ros-rostest-feedstock/pull/2" xlink:title="ros rostest">
<ellipse fill="#31688e" stroke="black" cx="590.32" cy="-1402" rx="64.5" ry="18"/>
<text text-anchor="middle" x="590.32" y="-1398.3" font-family="Times,serif" font-size="14.00" fill="white">ros rostest</text>
</a>
</g>
</g>
<!-- ros&#45;rostest&#45;&gt;ros&#45;rosbag&#45;storage -->
<g id="edge61" class="edge">
<title>ros&#45;rostest&#45;&gt;ros&#45;rosbag&#45;storage</title>
<path fill="none" stroke="black" d="M611.03,-1384.71C621.35,-1375.25 632.79,-1362.36 638.32,-1348 644.08,-1333.07 642.62,-1327.41 638.32,-1312 635.66,-1302.42 630.74,-1292.84 625.54,-1284.51"/>
<polygon fill="black" stroke="black" points="628.35,-1282.41 619.89,-1276.03 622.52,-1286.29 628.35,-1282.41"/>
</g>
<!-- ros&#45;rostest&#45;&gt;ros&#45;actionlib -->
<g id="edge62" class="edge">
<title>ros&#45;rostest&#45;&gt;ros&#45;actionlib</title>
<path fill="none" stroke="black" d="M551.57,-1387.5C519.66,-1376.39 474.2,-1360.56 439.51,-1348.48"/>
<polygon fill="black" stroke="black" points="440.63,-1345.16 430.03,-1345.18 438.32,-1351.77 440.63,-1345.16"/>
</g>
<!-- ros&#45;rostest&#45;&gt;ros&#45;message&#45;filters -->
<g id="edge64" class="edge">
<title>ros&#45;rostest&#45;&gt;ros&#45;message&#45;filters</title>
<path fill="none" stroke="black" d="M628.69,-1387.5C659.12,-1376.8 702,-1361.72 735.81,-1349.83"/>
<polygon fill="black" stroke="black" points="737.26,-1353.03 745.53,-1346.41 734.94,-1346.42 737.26,-1353.03"/>
</g>
<!-- ros&#45;rostest&#45;&gt;ros&#45;dynamic&#45;reconfigure -->
<g id="edge63" class="edge">
<title>ros&#45;rostest&#45;&gt;ros&#45;dynamic&#45;reconfigure</title>
<path fill="none" stroke="black" d="M536.37,-1391.92C466.76,-1380.21 344.78,-1359.68 261.83,-1345.73"/>
<polygon fill="black" stroke="black" points="262.36,-1342.26 251.92,-1344.06 261.2,-1349.17 262.36,-1342.26"/>
</g>
<!-- gnuradio -->
<g id="node57" class="node">
<title>gnuradio</title>
<g id="a_node57"><a xlink:href="https://github.com/conda-forge/gnuradio-feedstock/pull/6" xlink:title="gnuradio">
<ellipse fill="#31688e" stroke="black" cx="1286.32" cy="-90" rx="50.09" ry="18"/>
<text text-anchor="middle" x="1286.32" y="-86.3" font-family="Times,serif" font-size="14.00" fill="white">gnuradio</text>
</a>
</g>
</g>
</g>
</svg>
