<?xml version="1.0" encoding="UTF-8" standalone="no"?>
<!DOCTYPE svg PUBLIC "-//W3C//DTD SVG 1.1//EN"
 "http://www.w3.org/Graphics/SVG/1.1/DTD/svg11.dtd">
<!-- Generated by graphviz version 2.42.3 (20191010.1750)
 -->
<!-- Title: %3 Pages: 1 -->
<svg width="1456pt" height="2164pt"
 viewBox="0.00 0.00 1456.10 2164.00" xmlns="http://www.w3.org/2000/svg" xmlns:xlink="http://www.w3.org/1999/xlink">
<g id="graph0" class="graph" transform="scale(1 1) rotate(0) translate(4 2160)">
<title>%3</title>
<polygon fill="white" stroke="transparent" points="-4,4 -4,-2160 1452.1,-2160 1452.1,4 -4,4"/>
<!-- arrow&#45;cpp -->
<g id="node1" class="node">
<title>arrow&#45;cpp</title>
<ellipse fill="#fde725" stroke="black" cx="471.51" cy="-502" rx="54.69" ry="18"/>
<text text-anchor="middle" x="471.51" y="-498.3" font-family="Times,serif" font-size="14.00">arrow cpp</text>
</g>
<!-- pyarrow -->
<g id="node2" class="node">
<title>pyarrow</title>
<ellipse fill="#fde725" stroke="black" cx="389.51" cy="-430" rx="45" ry="18"/>
<text text-anchor="middle" x="389.51" y="-426.3" font-family="Times,serif" font-size="14.00">pyarrow</text>
</g>
<!-- arrow&#45;cpp&#45;&gt;pyarrow -->
<g id="edge1" class="edge">
<title>arrow&#45;cpp&#45;&gt;pyarrow</title>
<path fill="none" stroke="black" d="M452.49,-484.76C441.57,-475.45 427.7,-463.61 415.76,-453.41"/>
<polygon fill="black" stroke="black" points="417.74,-450.5 407.86,-446.67 413.19,-455.82 417.74,-450.5"/>
</g>
<!-- turbodbc -->
<g id="node3" class="node">
<title>turbodbc</title>
<ellipse fill="#fde725" stroke="black" cx="425.51" cy="-358" rx="50.09" ry="18"/>
<text text-anchor="middle" x="425.51" y="-354.3" font-family="Times,serif" font-size="14.00">turbodbc</text>
</g>
<!-- arrow&#45;cpp&#45;&gt;turbodbc -->
<g id="edge2" class="edge">
<title>arrow&#45;cpp&#45;&gt;turbodbc</title>
<path fill="none" stroke="black" d="M466.25,-483.9C460.71,-465.96 451.66,-436.94 443.51,-412 440.72,-403.46 437.59,-394.18 434.74,-385.81"/>
<polygon fill="black" stroke="black" points="437.99,-384.48 431.44,-376.15 431.37,-386.75 437.99,-384.48"/>
</g>
<!-- omniscidb&#45;cpu -->
<g id="node4" class="node">
<title>omniscidb&#45;cpu</title>
<ellipse fill="#fde725" stroke="black" cx="564.51" cy="-430" rx="74.19" ry="18"/>
<text text-anchor="middle" x="564.51" y="-426.3" font-family="Times,serif" font-size="14.00">omniscidb cpu</text>
</g>
<!-- arrow&#45;cpp&#45;&gt;omniscidb&#45;cpu -->
<g id="edge3" class="edge">
<title>arrow&#45;cpp&#45;&gt;omniscidb&#45;cpu</title>
<path fill="none" stroke="black" d="M492.61,-485.12C505.04,-475.76 520.95,-463.78 534.65,-453.47"/>
<polygon fill="black" stroke="black" points="536.96,-456.12 542.84,-447.31 532.75,-450.52 536.96,-456.12"/>
</g>
<!-- pyarrow&#45;&gt;turbodbc -->
<g id="edge4" class="edge">
<title>pyarrow&#45;&gt;turbodbc</title>
<path fill="none" stroke="black" d="M398.22,-412.05C402.42,-403.89 407.55,-393.91 412.23,-384.82"/>
<polygon fill="black" stroke="black" points="415.41,-386.28 416.87,-375.79 409.19,-383.08 415.41,-386.28"/>
</g>
<!-- avrocpp -->
<g id="node5" class="node">
<title>avrocpp</title>
<ellipse fill="#35b779" stroke="black" cx="1346.51" cy="-1374" rx="45" ry="18"/>
<text text-anchor="middle" x="1346.51" y="-1370.3" font-family="Times,serif" font-size="14.00">avrocpp</text>
</g>
<!-- caffe -->
<g id="node6" class="node">
<title>caffe</title>
<ellipse fill="#35b779" stroke="black" cx="1346.51" cy="-1302" rx="35.19" ry="18"/>
<text text-anchor="middle" x="1346.51" y="-1298.3" font-family="Times,serif" font-size="14.00">caffe</text>
</g>
<!-- avrocpp&#45;&gt;caffe -->
<!-- dionysus -->
<g id="node7" class="node">
<title>dionysus</title>
<ellipse fill="#35b779" stroke="black" cx="1346.51" cy="-1230" rx="50.09" ry="18"/>
<text text-anchor="middle" x="1346.51" y="-1226.3" font-family="Times,serif" font-size="14.00">dionysus</text>
</g>
<!-- caffe&#45;&gt;dionysus -->
<!-- exempi -->
<g id="node10" class="node">
<title>exempi</title>
<ellipse fill="#35b779" stroke="black" cx="1346.51" cy="-1158" rx="40.5" ry="18"/>
<text text-anchor="middle" x="1346.51" y="-1154.3" font-family="Times,serif" font-size="14.00">exempi</text>
</g>
<!-- dionysus&#45;&gt;exempi -->
<!-- casacore -->
<g id="node8" class="node">
<title>casacore</title>
<g id="a_node8"><a xlink:href="https://github.com/conda-forge/casacore-feedstock/pull/41" xlink:title="casacore">
<ellipse fill="#31688e" stroke="black" cx="1346.51" cy="-242" rx="50.09" ry="18"/>
<text text-anchor="middle" x="1346.51" y="-238.3" font-family="Times,serif" font-size="14.00" fill="white">casacore</text>
</a>
</g>
</g>
<!-- python&#45;casacore -->
<g id="node9" class="node">
<title>python&#45;casacore</title>
<ellipse fill="#fde725" stroke="black" cx="1346.51" cy="-170" rx="84" ry="18"/>
<text text-anchor="middle" x="1346.51" y="-166.3" font-family="Times,serif" font-size="14.00">python casacore</text>
</g>
<!-- casacore&#45;&gt;python&#45;casacore -->
<g id="edge7" class="edge">
<title>casacore&#45;&gt;python&#45;casacore</title>
<path fill="none" stroke="black" d="M1346.51,-223.7C1346.51,-215.98 1346.51,-206.71 1346.51,-198.11"/>
<polygon fill="black" stroke="black" points="1350.01,-198.1 1346.51,-188.1 1343.01,-198.1 1350.01,-198.1"/>
</g>
<!-- libcmaes -->
<g id="node11" class="node">
<title>libcmaes</title>
<g id="a_node11"><a xlink:href="https://github.com/conda-forge/libcmaes-feedstock/pull/12" xlink:title="libcmaes">
<ellipse fill="#31688e" stroke="black" cx="1346.51" cy="-1086" rx="50.09" ry="18"/>
<text text-anchor="middle" x="1346.51" y="-1082.3" font-family="Times,serif" font-size="14.00" fill="white">libcmaes</text>
</a>
</g>
</g>
<!-- exempi&#45;&gt;libcmaes -->
<!-- libradolan -->
<g id="node14" class="node">
<title>libradolan</title>
<g id="a_node14"><a xlink:href="https://github.com/conda-forge/libradolan-feedstock/pull/23" xlink:title="libradolan">
<ellipse fill="#31688e" stroke="black" cx="1346.51" cy="-1014" rx="60" ry="18"/>
<text text-anchor="middle" x="1346.51" y="-1010.3" font-family="Times,serif" font-size="14.00" fill="white">libradolan</text>
</a>
</g>
</g>
<!-- libcmaes&#45;&gt;libradolan -->
<!-- gap -->
<g id="node12" class="node">
<title>gap</title>
<ellipse fill="#fde725" stroke="black" cx="1114.51" cy="-206" rx="27" ry="18"/>
<text text-anchor="middle" x="1114.51" y="-202.3" font-family="Times,serif" font-size="14.00">gap</text>
</g>
<!-- sagelib -->
<g id="node13" class="node">
<title>sagelib</title>
<ellipse fill="#fde725" stroke="black" cx="1114.51" cy="-134" rx="45" ry="18"/>
<text text-anchor="middle" x="1114.51" y="-130.3" font-family="Times,serif" font-size="14.00">sagelib</text>
</g>
<!-- gap&#45;&gt;sagelib -->
<g id="edge10" class="edge">
<title>gap&#45;&gt;sagelib</title>
<path fill="none" stroke="black" d="M1114.51,-187.7C1114.51,-179.98 1114.51,-170.71 1114.51,-162.11"/>
<polygon fill="black" stroke="black" points="1118.01,-162.1 1114.51,-152.1 1111.01,-162.1 1118.01,-162.1"/>
</g>
<!-- mshr -->
<g id="node15" class="node">
<title>mshr</title>
<g id="a_node15"><a xlink:href="https://github.com/conda-forge/mshr-feedstock/pull/19" xlink:title="mshr">
<ellipse fill="#31688e" stroke="black" cx="1346.51" cy="-942" rx="30.59" ry="18"/>
<text text-anchor="middle" x="1346.51" y="-938.3" font-family="Times,serif" font-size="14.00" fill="white">mshr</text>
</a>
</g>
</g>
<!-- libradolan&#45;&gt;mshr -->
<!-- paraview -->
<g id="node18" class="node">
<title>paraview</title>
<g id="a_node18"><a xlink:href="https://github.com/conda-forge/paraview-feedstock/pull/69" xlink:title="paraview">
<ellipse fill="#31688e" stroke="black" cx="1346.51" cy="-870" rx="50.09" ry="18"/>
<text text-anchor="middle" x="1346.51" y="-866.3" font-family="Times,serif" font-size="14.00" fill="white">paraview</text>
</a>
</g>
</g>
<!-- mshr&#45;&gt;paraview -->
<!-- msgpack&#45;c -->
<g id="node16" class="node">
<title>msgpack&#45;c</title>
<g id="a_node16"><a xlink:href="https://github.com/conda-forge/msgpack-c-feedstock/pull/18" xlink:title="msgpack c">
<ellipse fill="#31688e" stroke="black" cx="1114.51" cy="-90" rx="54.69" ry="18"/>
<text text-anchor="middle" x="1114.51" y="-86.3" font-family="Times,serif" font-size="14.00" fill="white">msgpack c</text>
</a>
</g>
</g>
<!-- pyranha -->
<g id="node17" class="node">
<title>pyranha</title>
<ellipse fill="#fde725" stroke="black" cx="1114.51" cy="-18" rx="45" ry="18"/>
<text text-anchor="middle" x="1114.51" y="-14.3" font-family="Times,serif" font-size="14.00">pyranha</text>
</g>
<!-- msgpack&#45;c&#45;&gt;pyranha -->
<g id="edge13" class="edge">
<title>msgpack&#45;c&#45;&gt;pyranha</title>
<path fill="none" stroke="black" d="M1114.51,-71.7C1114.51,-63.98 1114.51,-54.71 1114.51,-46.11"/>
<polygon fill="black" stroke="black" points="1118.01,-46.1 1114.51,-36.1 1111.01,-46.1 1118.01,-46.1"/>
</g>
<!-- pykep -->
<g id="node19" class="node">
<title>pykep</title>
<g id="a_node19"><a xlink:href="https://github.com/conda-forge/pykep-feedstock/pull/11" xlink:title="pykep">
<ellipse fill="#31688e" stroke="black" cx="1346.51" cy="-798" rx="35.19" ry="18"/>
<text text-anchor="middle" x="1346.51" y="-794.3" font-family="Times,serif" font-size="14.00" fill="white">pykep</text>
</a>
</g>
</g>
<!-- paraview&#45;&gt;pykep -->
<!-- pyne -->
<g id="node20" class="node">
<title>pyne</title>
<g id="a_node20"><a xlink:href="https://github.com/conda-forge/pyne-feedstock/pull/39" xlink:title="pyne">
<ellipse fill="#31688e" stroke="black" cx="1346.51" cy="-726" rx="30.59" ry="18"/>
<text text-anchor="middle" x="1346.51" y="-722.3" font-family="Times,serif" font-size="14.00" fill="white">pyne</text>
</a>
</g>
</g>
<!-- pykep&#45;&gt;pyne -->
<!-- pyobjcryst -->
<g id="node21" class="node">
<title>pyobjcryst</title>
<g id="a_node21"><a xlink:href="https://github.com/conda-forge/pyobjcryst-feedstock/pull/9" xlink:title="pyobjcryst">
<ellipse fill="#31688e" stroke="black" cx="1346.51" cy="-654" rx="60" ry="18"/>
<text text-anchor="middle" x="1346.51" y="-650.3" font-family="Times,serif" font-size="14.00" fill="white">pyobjcryst</text>
</a>
</g>
</g>
<!-- pyne&#45;&gt;pyobjcryst -->
<!-- pyopcode -->
<g id="node22" class="node">
<title>pyopcode</title>
<g id="a_node22"><a xlink:href="https://github.com/conda-forge/pyopcode-feedstock/pull/18" xlink:title="pyopcode">
<ellipse fill="#31688e" stroke="black" cx="1114.51" cy="-1374" rx="50.09" ry="18"/>
<text text-anchor="middle" x="1114.51" y="-1370.3" font-family="Times,serif" font-size="14.00" fill="white">pyopcode</text>
</a>
</g>
</g>
<!-- rank_filter -->
<g id="node23" class="node">
<title>rank_filter</title>
<g id="a_node23"><a xlink:href="https://github.com/conda-forge/rank_filter-feedstock/pull/44" xlink:title="rank_filter">
<ellipse fill="#31688e" stroke="black" cx="1114.51" cy="-1302" rx="64.5" ry="18"/>
<text text-anchor="middle" x="1114.51" y="-1298.3" font-family="Times,serif" font-size="14.00" fill="white">rank_filter</text>
</a>
</g>
</g>
<!-- pyopcode&#45;&gt;rank_filter -->
<!-- rsgislib -->
<g id="node24" class="node">
<title>rsgislib</title>
<g id="a_node24"><a xlink:href="https://github.com/conda-forge/rsgislib-feedstock/pull/29" xlink:title="rsgislib">
<ellipse fill="#31688e" stroke="black" cx="1114.51" cy="-1230" rx="50.09" ry="18"/>
<text text-anchor="middle" x="1114.51" y="-1226.3" font-family="Times,serif" font-size="14.00" fill="white">rsgislib</text>
</a>
</g>
</g>
<!-- rank_filter&#45;&gt;rsgislib -->
<!-- vigra -->
<g id="node25" class="node">
<title>vigra</title>
<g id="a_node25"><a xlink:href="https://github.com/conda-forge/vigra-feedstock/pull/53" xlink:title="vigra">
<ellipse fill="#31688e" stroke="black" cx="1114.51" cy="-1158" rx="35.19" ry="18"/>
<text text-anchor="middle" x="1114.51" y="-1154.3" font-family="Times,serif" font-size="14.00" fill="white">vigra</text>
</a>
</g>
</g>
<!-- rsgislib&#45;&gt;vigra -->
<!-- zwatershed -->
<g id="node26" class="node">
<title>zwatershed</title>
<ellipse fill="#fde725" stroke="black" cx="1114.51" cy="-1086" rx="60" ry="18"/>
<text text-anchor="middle" x="1114.51" y="-1082.3" font-family="Times,serif" font-size="14.00">zwatershed</text>
</g>
<!-- vigra&#45;&gt;zwatershed -->
<!-- cryptominisat -->
<g id="node27" class="node">
<title>cryptominisat</title>
<ellipse fill="#35b779" stroke="black" cx="1114.51" cy="-1014" rx="74.19" ry="18"/>
<text text-anchor="middle" x="1114.51" y="-1010.3" font-family="Times,serif" font-size="14.00">cryptominisat</text>
</g>
<!-- zwatershed&#45;&gt;cryptominisat -->
<!-- alps -->
<g id="node28" class="node">
<title>alps</title>
<ellipse fill="#35b779" stroke="black" cx="1114.51" cy="-942" rx="30.59" ry="18"/>
<text text-anchor="middle" x="1114.51" y="-938.3" font-family="Times,serif" font-size="14.00">alps</text>
</g>
<!-- cryptominisat&#45;&gt;alps -->
<!-- clblas -->
<g id="node33" class="node">
<title>clblas</title>
<ellipse fill="#35b779" stroke="black" cx="1114.51" cy="-870" rx="40.5" ry="18"/>
<text text-anchor="middle" x="1114.51" y="-866.3" font-family="Times,serif" font-size="14.00">clblas</text>
</g>
<!-- alps&#45;&gt;clblas -->
<!-- audi -->
<g id="node29" class="node">
<title>audi</title>
<g id="a_node29"><a xlink:href="https://github.com/conda-forge/audi-feedstock/pull/17" xlink:title="audi">
<ellipse fill="#31688e" stroke="black" cx="496.51" cy="-278" rx="30.59" ry="18"/>
<text text-anchor="middle" x="496.51" y="-274.3" font-family="Times,serif" font-size="14.00" fill="white">audi</text>
</a>
</g>
</g>
<!-- pyaudi -->
<g id="node30" class="node">
<title>pyaudi</title>
<ellipse fill="#fde725" stroke="black" cx="462.51" cy="-206" rx="40.5" ry="18"/>
<text text-anchor="middle" x="462.51" y="-202.3" font-family="Times,serif" font-size="14.00">pyaudi</text>
</g>
<!-- audi&#45;&gt;pyaudi -->
<g id="edge24" class="edge">
<title>audi&#45;&gt;pyaudi</title>
<path fill="none" stroke="black" d="M488.45,-260.41C484.49,-252.25 479.61,-242.22 475.17,-233.07"/>
<polygon fill="black" stroke="black" points="478.26,-231.42 470.74,-223.96 471.96,-234.48 478.26,-231.42"/>
</g>
<!-- dcgp&#45;python -->
<g id="node31" class="node">
<title>dcgp&#45;python</title>
<ellipse fill="#fde725" stroke="black" cx="496.51" cy="-134" rx="64.5" ry="18"/>
<text text-anchor="middle" x="496.51" y="-130.3" font-family="Times,serif" font-size="14.00">dcgp python</text>
</g>
<!-- audi&#45;&gt;dcgp&#45;python -->
<g id="edge25" class="edge">
<title>audi&#45;&gt;dcgp&#45;python</title>
<path fill="none" stroke="black" d="M502.99,-260.1C506.58,-249.84 510.68,-236.36 512.51,-224 514.84,-208.17 514.84,-203.83 512.51,-188 511.23,-179.35 508.84,-170.15 506.29,-161.89"/>
<polygon fill="black" stroke="black" points="509.61,-160.78 503.16,-152.37 502.96,-162.96 509.61,-160.78"/>
</g>
<!-- pyaudi&#45;&gt;dcgp&#45;python -->
<g id="edge26" class="edge">
<title>pyaudi&#45;&gt;dcgp&#45;python</title>
<path fill="none" stroke="black" d="M470.74,-188.05C474.61,-180.09 479.31,-170.41 483.63,-161.51"/>
<polygon fill="black" stroke="black" points="486.9,-162.8 488.12,-152.28 480.6,-159.74 486.9,-162.8"/>
</g>
<!-- thrift&#45;cpp -->
<g id="node32" class="node">
<title>thrift&#45;cpp</title>
<g id="a_node32"><a xlink:href="https://github.com/conda-forge/thrift-cpp-feedstock/pull/45" xlink:title="thrift cpp">
<ellipse fill="#31688e" stroke="black" cx="512.51" cy="-574" rx="60" ry="18"/>
<text text-anchor="middle" x="512.51" y="-570.3" font-family="Times,serif" font-size="14.00" fill="white">thrift cpp</text>
</a>
</g>
</g>
<!-- thrift&#45;cpp&#45;&gt;arrow&#45;cpp -->
<g id="edge27" class="edge">
<title>thrift&#45;cpp&#45;&gt;arrow&#45;cpp</title>
<path fill="none" stroke="black" d="M502.58,-556.05C497.75,-547.8 491.83,-537.7 486.46,-528.54"/>
<polygon fill="black" stroke="black" points="489.41,-526.65 481.34,-519.79 483.37,-530.19 489.41,-526.65"/>
</g>
<!-- thrift&#45;cpp&#45;&gt;omniscidb&#45;cpu -->
<g id="edge28" class="edge">
<title>thrift&#45;cpp&#45;&gt;omniscidb&#45;cpu</title>
<path fill="none" stroke="black" d="M520.38,-555.98C525.03,-545.67 530.89,-532.19 535.51,-520 543.31,-499.42 550.97,-475.71 556.46,-457.94"/>
<polygon fill="black" stroke="black" points="559.85,-458.82 559.42,-448.23 553.15,-456.77 559.85,-458.82"/>
</g>
<!-- clfft -->
<g id="node34" class="node">
<title>clfft</title>
<ellipse fill="#35b779" stroke="black" cx="1114.51" cy="-798" rx="35.19" ry="18"/>
<text text-anchor="middle" x="1114.51" y="-794.3" font-family="Times,serif" font-size="14.00">clfft</text>
</g>
<!-- clblas&#45;&gt;clfft -->
<!-- clsparse -->
<g id="node35" class="node">
<title>clsparse</title>
<ellipse fill="#35b779" stroke="black" cx="1114.51" cy="-726" rx="50.09" ry="18"/>
<text text-anchor="middle" x="1114.51" y="-722.3" font-family="Times,serif" font-size="14.00">clsparse</text>
</g>
<!-- clfft&#45;&gt;clsparse -->
<!-- spdlib -->
<g id="node36" class="node">
<title>spdlib</title>
<g id="a_node36"><a xlink:href="https://github.com/conda-forge/spdlib-feedstock/pull/12" xlink:title="spdlib">
<ellipse fill="#31688e" stroke="black" cx="1114.51" cy="-654" rx="40.5" ry="18"/>
<text text-anchor="middle" x="1114.51" y="-650.3" font-family="Times,serif" font-size="14.00" fill="white">spdlib</text>
</a>
</g>
</g>
<!-- clsparse&#45;&gt;spdlib -->
<!-- fmipp -->
<g id="node37" class="node">
<title>fmipp</title>
<ellipse fill="#35b779" stroke="black" cx="1114.51" cy="-2138" rx="35.19" ry="18"/>
<text text-anchor="middle" x="1114.51" y="-2134.3" font-family="Times,serif" font-size="14.00">fmipp</text>
</g>
<!-- pyodeint -->
<g id="node38" class="node">
<title>pyodeint</title>
<g id="a_node38"><a xlink:href="https://github.com/conda-forge/pyodeint-feedstock/pull/10" xlink:title="pyodeint">
<ellipse fill="#31688e" stroke="black" cx="1114.51" cy="-2066" rx="50.09" ry="18"/>
<text text-anchor="middle" x="1114.51" y="-2062.3" font-family="Times,serif" font-size="14.00" fill="white">pyodeint</text>
</a>
</g>
</g>
<!-- fmipp&#45;&gt;pyodeint -->
<!-- ovito -->
<g id="node39" class="node">
<title>ovito</title>
<g id="a_node39"><a xlink:href="https://github.com/conda-forge/ovito-feedstock/pull/24" xlink:title="ovito">
<ellipse fill="#31688e" stroke="black" cx="1114.51" cy="-1994" rx="35.19" ry="18"/>
<text text-anchor="middle" x="1114.51" y="-1990.3" font-family="Times,serif" font-size="14.00" fill="white">ovito</text>
</a>
</g>
</g>
<!-- pyodeint&#45;&gt;ovito -->
<!-- freecad -->
<g id="node40" class="node">
<title>freecad</title>
<g id="a_node40"><a xlink:href="https://github.com/conda-forge/freecad-feedstock/pull/36" xlink:title="freecad">
<ellipse fill="#31688e" stroke="black" cx="1114.51" cy="-1922" rx="45" ry="18"/>
<text text-anchor="middle" x="1114.51" y="-1918.3" font-family="Times,serif" font-size="14.00" fill="white">freecad</text>
</a>
</g>
</g>
<!-- ovito&#45;&gt;freecad -->
<!-- helics -->
<g id="node41" class="node">
<title>helics</title>
<g id="a_node41"><a xlink:href="https://github.com/conda-forge/helics-feedstock/pull/18" xlink:title="helics">
<ellipse fill="#31688e" stroke="black" cx="1114.51" cy="-1850" rx="40.5" ry="18"/>
<text text-anchor="middle" x="1114.51" y="-1846.3" font-family="Times,serif" font-size="14.00" fill="white">helics</text>
</a>
</g>
</g>
<!-- freecad&#45;&gt;helics -->
<!-- nds2&#45;client -->
<g id="node42" class="node">
<title>nds2&#45;client</title>
<g id="a_node42"><a xlink:href="https://github.com/conda-forge/nds2-client-feedstock/pull/10" xlink:title="nds2 client">
<ellipse fill="#31688e" stroke="black" cx="1114.51" cy="-1778" rx="64.5" ry="18"/>
<text text-anchor="middle" x="1114.51" y="-1774.3" font-family="Times,serif" font-size="14.00" fill="white">nds2 client</text>
</a>
</g>
</g>
<!-- helics&#45;&gt;nds2&#45;client -->
<!-- ldas&#45;tools&#45;framecpp -->
<g id="node43" class="node">
<title>ldas&#45;tools&#45;framecpp</title>
<g id="a_node43"><a xlink:href="https://github.com/conda-forge/ldas-tools-framecpp-feedstock/pull/14" xlink:title="ldas tools framecpp">
<ellipse fill="#31688e" stroke="black" cx="1114.51" cy="-1706" rx="103.5" ry="18"/>
<text text-anchor="middle" x="1114.51" y="-1702.3" font-family="Times,serif" font-size="14.00" fill="white">ldas tools framecpp</text>
</a>
</g>
</g>
<!-- nds2&#45;client&#45;&gt;ldas&#45;tools&#45;framecpp -->
<!-- gudhi -->
<g id="node44" class="node">
<title>gudhi</title>
<g id="a_node44"><a xlink:href="https://github.com/conda-forge/gudhi-feedstock/pull/17" xlink:title="gudhi">
<ellipse fill="#31688e" stroke="black" cx="1114.51" cy="-1634" rx="35.19" ry="18"/>
<text text-anchor="middle" x="1114.51" y="-1630.3" font-family="Times,serif" font-size="14.00" fill="white">gudhi</text>
</a>
</g>
</g>
<!-- ldas&#45;tools&#45;framecpp&#45;&gt;gudhi -->
<!-- pycoalescence -->
<g id="node45" class="node">
<title>pycoalescence</title>
<ellipse fill="#fde725" stroke="black" cx="1114.51" cy="-1562" rx="74.19" ry="18"/>
<text text-anchor="middle" x="1114.51" y="-1558.3" font-family="Times,serif" font-size="14.00">pycoalescence</text>
</g>
<!-- gudhi&#45;&gt;pycoalescence -->
<!-- reaktoro -->
<g id="node46" class="node">
<title>reaktoro</title>
<g id="a_node46"><a xlink:href="https://github.com/conda-forge/reaktoro-feedstock/pull/16" xlink:title="reaktoro">
<ellipse fill="#31688e" stroke="black" cx="1114.51" cy="-1490" rx="50.09" ry="18"/>
<text text-anchor="middle" x="1114.51" y="-1486.3" font-family="Times,serif" font-size="14.00" fill="white">reaktoro</text>
</a>
</g>
</g>
<!-- pycoalescence&#45;&gt;reaktoro -->
<!-- ldas&#45;tools&#45;diskcacheapi -->
<g id="node47" class="node">
<title>ldas&#45;tools&#45;diskcacheapi</title>
<ellipse fill="#fde725" stroke="black" cx="1114.51" cy="-1418" rx="123" ry="18"/>
<text text-anchor="middle" x="1114.51" y="-1414.3" font-family="Times,serif" font-size="14.00">ldas tools diskcacheapi</text>
</g>
<!-- reaktoro&#45;&gt;ldas&#45;tools&#45;diskcacheapi -->
<!-- libint -->
<g id="node48" class="node">
<title>libint</title>
<g id="a_node48"><a xlink:href="https://github.com/conda-forge/libint-feedstock/pull/6" xlink:title="libint">
<ellipse fill="#31688e" stroke="black" cx="1346.51" cy="-2138" rx="40.5" ry="18"/>
<text text-anchor="middle" x="1346.51" y="-2134.3" font-family="Times,serif" font-size="14.00" fill="white">libint</text>
</a>
</g>
</g>
<!-- desres&#45;msys -->
<g id="node49" class="node">
<title>desres&#45;msys</title>
<ellipse fill="#35b779" stroke="black" cx="1346.51" cy="-2066" rx="64.5" ry="18"/>
<text text-anchor="middle" x="1346.51" y="-2062.3" font-family="Times,serif" font-size="14.00">desres msys</text>
</g>
<!-- libint&#45;&gt;desres&#45;msys -->
<!-- fwlite -->
<g id="node51" class="node">
<title>fwlite</title>
<ellipse fill="#35b779" stroke="black" cx="1346.51" cy="-1994" rx="40.5" ry="18"/>
<text text-anchor="middle" x="1346.51" y="-1990.3" font-family="Times,serif" font-size="14.00">fwlite</text>
</g>
<!-- desres&#45;msys&#45;&gt;fwlite -->
<!-- metview -->
<g id="node50" class="node">
<title>metview</title>
<ellipse fill="#fde725" stroke="black" cx="491.51" cy="-18" rx="45" ry="18"/>
<text text-anchor="middle" x="491.51" y="-14.3" font-family="Times,serif" font-size="14.00">metview</text>
</g>
<!-- dealii -->
<g id="node52" class="node">
<title>dealii</title>
<ellipse fill="#35b779" stroke="black" cx="1346.51" cy="-1922" rx="40.5" ry="18"/>
<text text-anchor="middle" x="1346.51" y="-1918.3" font-family="Times,serif" font-size="14.00">dealii</text>
</g>
<!-- fwlite&#45;&gt;dealii -->
<!-- lhcb&#45;simpletools -->
<g id="node53" class="node">
<title>lhcb&#45;simpletools</title>
<ellipse fill="#fde725" stroke="black" cx="1346.51" cy="-1850" rx="89.08" ry="18"/>
<text text-anchor="middle" x="1346.51" y="-1846.3" font-family="Times,serif" font-size="14.00">lhcb simpletools</text>
</g>
<!-- dealii&#45;&gt;lhcb&#45;simpletools -->
<!-- ambertools -->
<g id="node54" class="node">
<title>ambertools</title>
<g id="a_node54"><a xlink:href="https://github.com/conda-forge/ambertools-feedstock/pull/26" xlink:title="ambertools">
<ellipse fill="#31688e" stroke="black" cx="1346.51" cy="-1778" rx="60" ry="18"/>
<text text-anchor="middle" x="1346.51" y="-1774.3" font-family="Times,serif" font-size="14.00" fill="white">ambertools</text>
</a>
</g>
</g>
<!-- lhcb&#45;simpletools&#45;&gt;ambertools -->
<!-- biorbd -->
<g id="node55" class="node">
<title>biorbd</title>
<g id="a_node55"><a xlink:href="https://github.com/conda-forge/biorbd-feedstock/pull/14" xlink:title="biorbd">
<ellipse fill="#31688e" stroke="black" cx="1346.51" cy="-1706" rx="40.5" ry="18"/>
<text text-anchor="middle" x="1346.51" y="-1702.3" font-family="Times,serif" font-size="14.00" fill="white">biorbd</text>
</a>
</g>
</g>
<!-- ambertools&#45;&gt;biorbd -->
<!-- ifcopenshell -->
<g id="node56" class="node">
<title>ifcopenshell</title>
<ellipse fill="#fde725" stroke="black" cx="1346.51" cy="-1634" rx="69.59" ry="18"/>
<text text-anchor="middle" x="1346.51" y="-1630.3" font-family="Times,serif" font-size="14.00">ifcopenshell</text>
</g>
<!-- biorbd&#45;&gt;ifcopenshell -->
<!-- esys&#45;escript -->
<g id="node58" class="node">
<title>esys&#45;escript</title>
<ellipse fill="#35b779" stroke="black" cx="1346.51" cy="-1562" rx="69.59" ry="18"/>
<text text-anchor="middle" x="1346.51" y="-1558.3" font-family="Times,serif" font-size="14.00">esys escript</text>
</g>
<!-- ifcopenshell&#45;&gt;esys&#45;escript -->
<!-- normaliz -->
<g id="node57" class="node">
<title>normaliz</title>
<g id="a_node57"><a xlink:href="https://github.com/conda-forge/normaliz-feedstock/pull/19" xlink:title="normaliz">
<ellipse fill="#31688e" stroke="black" cx="1114.51" cy="-278" rx="50.09" ry="18"/>
<text text-anchor="middle" x="1114.51" y="-274.3" font-family="Times,serif" font-size="14.00" fill="white">normaliz</text>
</a>
</g>
</g>
<!-- normaliz&#45;&gt;gap -->
<g id="edge50" class="edge">
<title>normaliz&#45;&gt;gap</title>
<path fill="none" stroke="black" d="M1114.51,-259.7C1114.51,-251.98 1114.51,-242.71 1114.51,-234.11"/>
<polygon fill="black" stroke="black" points="1118.01,-234.1 1114.51,-224.1 1111.01,-234.1 1118.01,-234.1"/>
</g>
<!-- ndarray -->
<g id="node59" class="node">
<title>ndarray</title>
<g id="a_node59"><a xlink:href="https://github.com/conda-forge/ndarray-feedstock/pull/4" xlink:title="ndarray">
<ellipse fill="#31688e" stroke="black" cx="1346.51" cy="-1490" rx="45" ry="18"/>
<text text-anchor="middle" x="1346.51" y="-1486.3" font-family="Times,serif" font-size="14.00" fill="white">ndarray</text>
</a>
</g>
</g>
<!-- esys&#45;escript&#45;&gt;ndarray -->
<!-- dakota -->
<g id="node60" class="node">
<title>dakota</title>
<ellipse fill="#35b779" stroke="black" cx="1346.51" cy="-1418" rx="40.5" ry="18"/>
<text text-anchor="middle" x="1346.51" y="-1414.3" font-family="Times,serif" font-size="14.00">dakota</text>
</g>
<!-- ndarray&#45;&gt;dakota -->
<!-- hpp&#45;fcl -->
<g id="node61" class="node">
<title>hpp&#45;fcl</title>
<g id="a_node61"><a xlink:href="https://github.com/conda-forge/hpp-fcl-feedstock/pull/11" xlink:title="hpp fcl">
<ellipse fill="#31688e" stroke="black" cx="1346.51" cy="-90" rx="45" ry="18"/>
<text text-anchor="middle" x="1346.51" y="-86.3" font-family="Times,serif" font-size="14.00" fill="white">hpp fcl</text>
</a>
</g>
</g>
<!-- pinocchio -->
<g id="node62" class="node">
<title>pinocchio</title>
<ellipse fill="#fde725" stroke="black" cx="1346.51" cy="-18" rx="54.69" ry="18"/>
<text text-anchor="middle" x="1346.51" y="-14.3" font-family="Times,serif" font-size="14.00">pinocchio</text>
</g>
<!-- hpp&#45;fcl&#45;&gt;pinocchio -->
<g id="edge54" class="edge">
<title>hpp&#45;fcl&#45;&gt;pinocchio</title>
<path fill="none" stroke="black" d="M1346.51,-71.7C1346.51,-63.98 1346.51,-54.71 1346.51,-46.11"/>
<polygon fill="black" stroke="black" points="1350.01,-46.1 1346.51,-36.1 1343.01,-46.1 1350.01,-46.1"/>
</g>
<!-- xmsinterp -->
<g id="node63" class="node">
<title>xmsinterp</title>
<g id="a_node63"><a xlink:href="https://github.com/conda-forge/xmsinterp-feedstock/pull/6" xlink:title="xmsinterp">
<ellipse fill="#31688e" stroke="black" cx="1349.51" cy="-538" rx="54.69" ry="18"/>
<text text-anchor="middle" x="1349.51" y="-534.3" font-family="Times,serif" font-size="14.00" fill="white">xmsinterp</text>
</a>
</g>
</g>
<!-- xmsstamper -->
<g id="node64" class="node">
<title>xmsstamper</title>
<ellipse fill="#fde725" stroke="black" cx="1305.51" cy="-466" rx="60" ry="18"/>
<text text-anchor="middle" x="1305.51" y="-462.3" font-family="Times,serif" font-size="14.00">xmsstamper</text>
</g>
<!-- xmsinterp&#45;&gt;xmsstamper -->
<g id="edge55" class="edge">
<title>xmsinterp&#45;&gt;xmsstamper</title>
<path fill="none" stroke="black" d="M1338.86,-520.05C1333.67,-511.8 1327.32,-501.7 1321.56,-492.54"/>
<polygon fill="black" stroke="black" points="1324.35,-490.39 1316.06,-483.79 1318.42,-494.12 1324.35,-490.39"/>
</g>
<!-- xmsmesher -->
<g id="node65" class="node">
<title>xmsmesher</title>
<ellipse fill="#fde725" stroke="black" cx="1393.51" cy="-394" rx="54.69" ry="18"/>
<text text-anchor="middle" x="1393.51" y="-390.3" font-family="Times,serif" font-size="14.00">xmsmesher</text>
</g>
<!-- xmsinterp&#45;&gt;xmsmesher -->
<g id="edge56" class="edge">
<title>xmsinterp&#45;&gt;xmsmesher</title>
<path fill="none" stroke="black" d="M1358.64,-520.23C1363.9,-510 1370.28,-496.53 1374.51,-484 1381.36,-463.7 1386.28,-439.93 1389.4,-422.06"/>
<polygon fill="black" stroke="black" points="1392.88,-422.48 1391.07,-412.04 1385.97,-421.33 1392.88,-422.48"/>
</g>
<!-- graph&#45;tool -->
<g id="node66" class="node">
<title>graph&#45;tool</title>
<ellipse fill="#35b779" stroke="black" cx="491.51" cy="-1374" rx="60" ry="18"/>
<text text-anchor="middle" x="491.51" y="-1370.3" font-family="Times,serif" font-size="14.00">graph tool</text>
</g>
<!-- topologytoolkit -->
<g id="node67" class="node">
<title>topologytoolkit</title>
<g id="a_node67"><a xlink:href="https://github.com/conda-forge/topologytoolkit-feedstock/pull/5" xlink:title="topologytoolkit">
<ellipse fill="#31688e" stroke="black" cx="491.51" cy="-1302" rx="84" ry="18"/>
<text text-anchor="middle" x="491.51" y="-1298.3" font-family="Times,serif" font-size="14.00" fill="white">topologytoolkit</text>
</a>
</g>
</g>
<!-- graph&#45;tool&#45;&gt;topologytoolkit -->
<!-- ledger -->
<g id="node68" class="node">
<title>ledger</title>
<g id="a_node68"><a xlink:href="https://github.com/conda-forge/ledger-feedstock/pull/2" xlink:title="ledger">
<ellipse fill="#31688e" stroke="black" cx="491.51" cy="-1230" rx="40.5" ry="18"/>
<text text-anchor="middle" x="491.51" y="-1226.3" font-family="Times,serif" font-size="14.00" fill="white">ledger</text>
</a>
</g>
</g>
<!-- topologytoolkit&#45;&gt;ledger -->
<!-- pyinterp -->
<g id="node69" class="node">
<title>pyinterp</title>
<g id="a_node69"><a xlink:href="https://github.com/conda-forge/pyinterp-feedstock/pull/16" xlink:title="pyinterp">
<ellipse fill="#31688e" stroke="black" cx="491.51" cy="-1158" rx="50.09" ry="18"/>
<text text-anchor="middle" x="491.51" y="-1154.3" font-family="Times,serif" font-size="14.00" fill="white">pyinterp</text>
</a>
</g>
</g>
<!-- ledger&#45;&gt;pyinterp -->
<!-- zmesh -->
<g id="node70" class="node">
<title>zmesh</title>
<g id="a_node70"><a xlink:href="https://github.com/conda-forge/zmesh-feedstock/pull/2" xlink:title="zmesh">
<ellipse fill="#31688e" stroke="black" cx="491.51" cy="-1086" rx="35.19" ry="18"/>
<text text-anchor="middle" x="491.51" y="-1082.3" font-family="Times,serif" font-size="14.00" fill="white">zmesh</text>
</a>
</g>
</g>
<!-- pyinterp&#45;&gt;zmesh -->
<!-- atomicrex -->
<g id="node71" class="node">
<title>atomicrex</title>
<ellipse fill="#35b779" stroke="black" cx="491.51" cy="-1014" rx="54.69" ry="18"/>
<text text-anchor="middle" x="491.51" y="-1010.3" font-family="Times,serif" font-size="14.00">atomicrex</text>
</g>
<!-- zmesh&#45;&gt;atomicrex -->
<!-- gazebo -->
<g id="node72" class="node">
<title>gazebo</title>
<ellipse fill="#35b779" stroke="black" cx="491.51" cy="-942" rx="40.5" ry="18"/>
<text text-anchor="middle" x="491.51" y="-938.3" font-family="Times,serif" font-size="14.00">gazebo</text>
</g>
<!-- atomicrex&#45;&gt;gazebo -->
<!-- gnuradio -->
<g id="node82" class="node">
<title>gnuradio</title>
<ellipse fill="#fde725" stroke="black" cx="491.51" cy="-870" rx="50.09" ry="18"/>
<text text-anchor="middle" x="491.51" y="-866.3" font-family="Times,serif" font-size="14.00">gnuradio</text>
</g>
<!-- gazebo&#45;&gt;gnuradio -->
<!-- ros&#45;rostime -->
<g id="node73" class="node">
<title>ros&#45;rostime</title>
<ellipse fill="#fde725" stroke="black" cx="715.51" cy="-1922" rx="64.5" ry="18"/>
<text text-anchor="middle" x="715.51" y="-1918.3" font-family="Times,serif" font-size="14.00">ros rostime</text>
</g>
<!-- ros&#45;rosconsole -->
<g id="node74" class="node">
<title>ros&#45;rosconsole</title>
<ellipse fill="#fde725" stroke="black" cx="296.51" cy="-1850" rx="79.5" ry="18"/>
<text text-anchor="middle" x="296.51" y="-1846.3" font-family="Times,serif" font-size="14.00">ros rosconsole</text>
</g>
<!-- ros&#45;rostime&#45;&gt;ros&#45;rosconsole -->
<g id="edge63" class="edge">
<title>ros&#45;rostime&#45;&gt;ros&#45;rosconsole</title>
<path fill="none" stroke="black" d="M661.59,-1911.99C586.83,-1899.5 451.51,-1876.89 368.27,-1862.99"/>
<polygon fill="black" stroke="black" points="368.83,-1859.53 358.39,-1861.34 367.67,-1866.44 368.83,-1859.53"/>
</g>
<!-- ros&#45;rosbag&#45;storage -->
<g id="node75" class="node">
<title>ros&#45;rosbag&#45;storage</title>
<ellipse fill="#fde725" stroke="black" cx="554.51" cy="-1706" rx="99" ry="18"/>
<text text-anchor="middle" x="554.51" y="-1702.3" font-family="Times,serif" font-size="14.00">ros rosbag storage</text>
</g>
<!-- ros&#45;rostime&#45;&gt;ros&#45;rosbag&#45;storage -->
<g id="edge64" class="edge">
<title>ros&#45;rostime&#45;&gt;ros&#45;rosbag&#45;storage</title>
<path fill="none" stroke="black" d="M758.55,-1908.53C835.51,-1884.18 983.45,-1826.81 925.51,-1760 892.11,-1721.49 760.58,-1710.27 663.58,-1707.35"/>
<polygon fill="black" stroke="black" points="663.51,-1703.85 653.42,-1707.07 663.32,-1710.85 663.51,-1703.85"/>
</g>
<!-- ros&#45;rosbag -->
<g id="node76" class="node">
<title>ros&#45;rosbag</title>
<ellipse fill="#fde725" stroke="black" cx="554.51" cy="-1634" rx="60" ry="18"/>
<text text-anchor="middle" x="554.51" y="-1630.3" font-family="Times,serif" font-size="14.00">ros rosbag</text>
</g>
<!-- ros&#45;rostime&#45;&gt;ros&#45;rosbag -->
<g id="edge65" class="edge">
<title>ros&#45;rostime&#45;&gt;ros&#45;rosbag</title>
<path fill="none" stroke="black" d="M776.23,-1915.66C815.89,-1909.52 866.9,-1896.33 903.51,-1868 944.23,-1836.47 975.88,-1801.59 945.51,-1760 906.15,-1706.09 715.05,-1664.15 615.34,-1645.52"/>
<polygon fill="black" stroke="black" points="615.87,-1642.06 605.4,-1643.69 614.6,-1648.95 615.87,-1642.06"/>
</g>
<!-- ros&#45;actionlib -->
<g id="node77" class="node">
<title>ros&#45;actionlib</title>
<ellipse fill="#fde725" stroke="black" cx="335.51" cy="-1778" rx="74.19" ry="18"/>
<text text-anchor="middle" x="335.51" y="-1774.3" font-family="Times,serif" font-size="14.00">ros actionlib</text>
</g>
<!-- ros&#45;rostime&#45;&gt;ros&#45;actionlib -->
<g id="edge66" class="edge">
<title>ros&#45;rostime&#45;&gt;ros&#45;actionlib</title>
<path fill="none" stroke="black" d="M661.18,-1912.04C616.1,-1903.63 550.82,-1889.14 496.51,-1868 449.91,-1849.86 400.1,-1820.63 368.43,-1800.65"/>
<polygon fill="black" stroke="black" points="369.91,-1797.44 359.6,-1795.02 366.15,-1803.35 369.91,-1797.44"/>
</g>
<!-- ros&#45;rosconsole&#45;&gt;ros&#45;rosbag&#45;storage -->
<g id="edge67" class="edge">
<title>ros&#45;rosconsole&#45;&gt;ros&#45;rosbag&#45;storage</title>
<path fill="none" stroke="black" d="M277.54,-1832.2C258.36,-1813.2 234,-1782.04 252.51,-1760 277.45,-1730.3 371.83,-1717.24 448.53,-1711.5"/>
<polygon fill="black" stroke="black" points="449.02,-1714.97 458.75,-1710.77 448.52,-1707.99 449.02,-1714.97"/>
</g>
<!-- ros&#45;rosconsole&#45;&gt;ros&#45;rosbag -->
<g id="edge68" class="edge">
<title>ros&#45;rosconsole&#45;&gt;ros&#45;rosbag</title>
<path fill="none" stroke="black" d="M218.26,-1846.55C128.63,-1840.83 0,-1821.95 48.51,-1760 102.43,-1691.14 363.45,-1655 488.05,-1641.43"/>
<polygon fill="black" stroke="black" points="488.66,-1644.88 498.23,-1640.34 487.91,-1637.92 488.66,-1644.88"/>
</g>
<!-- ros&#45;rosconsole&#45;&gt;ros&#45;actionlib -->
<g id="edge69" class="edge">
<title>ros&#45;rosconsole&#45;&gt;ros&#45;actionlib</title>
<path fill="none" stroke="black" d="M305.95,-1832.05C310.43,-1824.01 315.89,-1814.2 320.9,-1805.23"/>
<polygon fill="black" stroke="black" points="324.07,-1806.71 325.88,-1796.28 317.96,-1803.31 324.07,-1806.71"/>
</g>
<!-- ros&#45;pluginlib -->
<g id="node78" class="node">
<title>ros&#45;pluginlib</title>
<ellipse fill="#fde725" stroke="black" cx="131.51" cy="-1778" rx="74.19" ry="18"/>
<text text-anchor="middle" x="131.51" y="-1774.3" font-family="Times,serif" font-size="14.00">ros pluginlib</text>
</g>
<!-- ros&#45;rosconsole&#45;&gt;ros&#45;pluginlib -->
<g id="edge70" class="edge">
<title>ros&#45;rosconsole&#45;&gt;ros&#45;pluginlib</title>
<path fill="none" stroke="black" d="M260.7,-1833.81C235.89,-1823.28 202.66,-1809.19 176.12,-1797.93"/>
<polygon fill="black" stroke="black" points="177.25,-1794.6 166.67,-1793.92 174.51,-1801.05 177.25,-1794.6"/>
</g>
<!-- ros&#45;message&#45;filters -->
<g id="node79" class="node">
<title>ros&#45;message&#45;filters</title>
<ellipse fill="#fde725" stroke="black" cx="531.51" cy="-1778" rx="103.5" ry="18"/>
<text text-anchor="middle" x="531.51" y="-1774.3" font-family="Times,serif" font-size="14.00">ros message filters</text>
</g>
<!-- ros&#45;rosconsole&#45;&gt;ros&#45;message&#45;filters -->
<g id="edge71" class="edge">
<title>ros&#45;rosconsole&#45;&gt;ros&#45;message&#45;filters</title>
<path fill="none" stroke="black" d="M342.66,-1835.25C379.7,-1824.22 431.98,-1808.65 472.14,-1796.68"/>
<polygon fill="black" stroke="black" points="473.23,-1800.01 481.81,-1793.8 471.23,-1793.3 473.23,-1800.01"/>
</g>
<!-- ros&#45;rosbag&#45;storage&#45;&gt;ros&#45;rosbag -->
<g id="edge72" class="edge">
<title>ros&#45;rosbag&#45;storage&#45;&gt;ros&#45;rosbag</title>
<path fill="none" stroke="black" d="M554.51,-1687.7C554.51,-1679.98 554.51,-1670.71 554.51,-1662.11"/>
<polygon fill="black" stroke="black" points="558.01,-1662.1 554.51,-1652.1 551.01,-1662.1 558.01,-1662.1"/>
</g>
<!-- ros&#45;pluginlib&#45;&gt;ros&#45;rosbag&#45;storage -->
<g id="edge73" class="edge">
<title>ros&#45;pluginlib&#45;&gt;ros&#45;rosbag&#45;storage</title>
<path fill="none" stroke="black" d="M186.85,-1766.01C197.67,-1763.95 208.93,-1761.86 219.51,-1760 304.73,-1745.03 402.51,-1729.78 470.33,-1719.51"/>
<polygon fill="black" stroke="black" points="471.17,-1722.92 480.54,-1717.97 470.13,-1716 471.17,-1722.92"/>
</g>
<!-- ros&#45;rostest -->
<g id="node80" class="node">
<title>ros&#45;rostest</title>
<g id="a_node80"><a xlink:href="https://github.com/conda-forge/ros-rostest-feedstock/pull/3" xlink:title="ros rostest">
<ellipse fill="#31688e" stroke="black" cx="569.51" cy="-1850" rx="64.5" ry="18"/>
<text text-anchor="middle" x="569.51" y="-1846.3" font-family="Times,serif" font-size="14.00" fill="white">ros rostest</text>
</a>
</g>
</g>
<!-- ros&#45;rostest&#45;&gt;ros&#45;rosbag&#45;storage -->
<g id="edge74" class="edge">
<title>ros&#45;rostest&#45;&gt;ros&#45;rosbag&#45;storage</title>
<path fill="none" stroke="black" d="M634.03,-1848.48C722.34,-1846.25 873.89,-1836.45 908.51,-1796 918.91,-1783.84 918.95,-1772.12 908.51,-1760 877.28,-1723.75 755.55,-1711.93 663.49,-1708.27"/>
<polygon fill="black" stroke="black" points="663.39,-1704.77 653.26,-1707.89 663.13,-1711.76 663.39,-1704.77"/>
</g>
<!-- ros&#45;rostest&#45;&gt;ros&#45;actionlib -->
<g id="edge75" class="edge">
<title>ros&#45;rostest&#45;&gt;ros&#45;actionlib</title>
<path fill="none" stroke="black" d="M527.13,-1836.32C488.72,-1824.83 431.9,-1807.84 390.1,-1795.33"/>
<polygon fill="black" stroke="black" points="390.94,-1791.93 380.36,-1792.42 388.93,-1798.64 390.94,-1791.93"/>
</g>
<!-- ros&#45;rostest&#45;&gt;ros&#45;message&#45;filters -->
<g id="edge76" class="edge">
<title>ros&#45;rostest&#45;&gt;ros&#45;message&#45;filters</title>
<path fill="none" stroke="black" d="M560.31,-1832.05C555.94,-1824.01 550.62,-1814.2 545.74,-1805.23"/>
<polygon fill="black" stroke="black" points="548.73,-1803.39 540.89,-1796.28 542.58,-1806.73 548.73,-1803.39"/>
</g>
<!-- ros&#45;dynamic&#45;reconfigure -->
<g id="node81" class="node">
<title>ros&#45;dynamic&#45;reconfigure</title>
<ellipse fill="#fde725" stroke="black" cx="776.51" cy="-1778" rx="123" ry="18"/>
<text text-anchor="middle" x="776.51" y="-1774.3" font-family="Times,serif" font-size="14.00">ros dynamic reconfigure</text>
</g>
<!-- ros&#45;rostest&#45;&gt;ros&#45;dynamic&#45;reconfigure -->
<g id="edge77" class="edge">
<title>ros&#45;rostest&#45;&gt;ros&#45;dynamic&#45;reconfigure</title>
<path fill="none" stroke="black" d="M608.93,-1835.67C640.45,-1825.01 685.05,-1809.93 720.31,-1798"/>
<polygon fill="black" stroke="black" points="721.64,-1801.25 729.99,-1794.73 719.4,-1794.62 721.64,-1801.25"/>
</g>
<!-- fastpca -->
<g id="node83" class="node">
<title>fastpca</title>
<ellipse fill="#35b779" stroke="black" cx="491.51" cy="-798" rx="45" ry="18"/>
<text text-anchor="middle" x="491.51" y="-794.3" font-family="Times,serif" font-size="14.00">fastpca</text>
</g>
<!-- gnuradio&#45;&gt;fastpca -->
<!-- ecflow -->
<g id="node84" class="node">
<title>ecflow</title>
<ellipse fill="#35b779" stroke="black" cx="491.51" cy="-726" rx="40.5" ry="18"/>
<text text-anchor="middle" x="491.51" y="-722.3" font-family="Times,serif" font-size="14.00">ecflow</text>
</g>
<!-- fastpca&#45;&gt;ecflow -->
<!-- prismatic_split -->
<g id="node86" class="node">
<title>prismatic_split</title>
<g id="a_node86"><a xlink:href="https://github.com/conda-forge/prismatic_split-feedstock/pull/4" xlink:title="prismatic_split">
<ellipse fill="#31688e" stroke="black" cx="491.51" cy="-654" rx="84" ry="18"/>
<text text-anchor="middle" x="491.51" y="-650.3" font-family="Times,serif" font-size="14.00" fill="white">prismatic_split</text>
</a>
</g>
</g>
<!-- ecflow&#45;&gt;prismatic_split -->
<!-- magics&#45;metview -->
<g id="node85" class="node">
<title>magics&#45;metview</title>
<g id="a_node85"><a xlink:href="https://github.com/conda-forge/magics-metview-feedstock/pull/7" xlink:title="magics metview">
<ellipse fill="#31688e" stroke="black" cx="491.51" cy="-90" rx="79.5" ry="18"/>
<text text-anchor="middle" x="491.51" y="-86.3" font-family="Times,serif" font-size="14.00" fill="white">magics metview</text>
</a>
</g>
</g>
<!-- magics&#45;metview&#45;&gt;metview -->
<g id="edge81" class="edge">
<title>magics&#45;metview&#45;&gt;metview</title>
<path fill="none" stroke="black" d="M491.51,-71.7C491.51,-63.98 491.51,-54.71 491.51,-46.11"/>
<polygon fill="black" stroke="black" points="495.01,-46.1 491.51,-36.1 488.01,-46.1 495.01,-46.1"/>
</g>
<!-- ecell4_base -->
<g id="node87" class="node">
<title>ecell4_base</title>
<g id="a_node87"><a xlink:href="https://github.com/conda-forge/ecell4_base-feedstock/pull/4" xlink:title="ecell4_base">
<ellipse fill="#31688e" stroke="black" cx="1114.51" cy="-610" rx="64.5" ry="18"/>
<text text-anchor="middle" x="1114.51" y="-606.3" font-family="Times,serif" font-size="14.00" fill="white">ecell4_base</text>
</a>
</g>
</g>
<!-- odil -->
<g id="node88" class="node">
<title>odil</title>
<g id="a_node88"><a xlink:href="https://github.com/conda-forge/odil-feedstock/pull/3" xlink:title="odil">
<ellipse fill="#31688e" stroke="black" cx="1114.51" cy="-538" rx="30.59" ry="18"/>
<text text-anchor="middle" x="1114.51" y="-534.3" font-family="Times,serif" font-size="14.00" fill="white">odil</text>
</a>
</g>
</g>
<!-- ecell4_base&#45;&gt;odil -->
<!-- parsplice -->
<g id="node89" class="node">
<title>parsplice</title>
<ellipse fill="#fde725" stroke="black" cx="1114.51" cy="-466" rx="54.69" ry="18"/>
<text text-anchor="middle" x="1114.51" y="-462.3" font-family="Times,serif" font-size="14.00">parsplice</text>
</g>
<!-- odil&#45;&gt;parsplice -->
<!-- metview&#45;batch -->
<g id="node90" class="node">
<title>metview&#45;batch</title>
<g id="a_node90"><a xlink:href="https://github.com/conda-forge/metview-batch-feedstock/pull/1" xlink:title="metview batch">
<ellipse fill="#31688e" stroke="black" cx="1114.51" cy="-394" rx="74.19" ry="18"/>
<text text-anchor="middle" x="1114.51" y="-390.3" font-family="Times,serif" font-size="14.00" fill="white">metview batch</text>
</a>
</g>
</g>
<!-- parsplice&#45;&gt;metview&#45;batch -->
<!-- alm -->
<g id="node91" class="node">
<title>alm</title>
<ellipse fill="#35b779" stroke="black" cx="1114.51" cy="-322" rx="27" ry="18"/>
<text text-anchor="middle" x="1114.51" y="-318.3" font-family="Times,serif" font-size="14.00">alm</text>
</g>
<!-- metview&#45;batch&#45;&gt;alm -->
</g>
</svg>
