<?xml version="1.0" encoding="UTF-8" standalone="no"?>
<!DOCTYPE svg PUBLIC "-//W3C//DTD SVG 1.1//EN"
 "http://www.w3.org/Graphics/SVG/1.1/DTD/svg11.dtd">
<!-- Generated by graphviz version 2.42.3 (20191010.1750)
 -->
<!-- Title: %3 Pages: 1 -->
<svg width="1681pt" height="404pt"
 viewBox="0.00 0.00 1681.00 404.00" xmlns="http://www.w3.org/2000/svg" xmlns:xlink="http://www.w3.org/1999/xlink">
<g id="graph0" class="graph" transform="scale(1 1) rotate(0) translate(4 400)">
<title>%3</title>
<polygon fill="white" stroke="transparent" points="-4,4 -4,-400 1677,-400 1677,4 -4,4"/>
<!-- avrocpp -->
<g id="node1" class="node">
<title>avrocpp</title>
<g id="a_node1"><a xlink:href="https://github.com/conda-forge/avrocpp-feedstock/pull/8" xlink:title="avrocpp">
<ellipse fill="#31688e" stroke="black" cx="45" cy="-90" rx="45" ry="18"/>
<text text-anchor="middle" x="45" y="-86.3" font-family="Times,serif" font-size="14.00" fill="white">avrocpp</text>
</a>
</g>
</g>
<!-- conda&#45;forge&#45;pinning -->
<g id="node2" class="node">
<title>conda&#45;forge&#45;pinning</title>
<ellipse fill="none" stroke="black" cx="722" cy="-18" rx="103.5" ry="18"/>
<text text-anchor="middle" x="722" y="-14.3" font-family="Times,serif" font-size="14.00">conda&#45;forge&#45;pinning</text>
</g>
<!-- avrocpp&#45;&gt;conda&#45;forge&#45;pinning -->
<g id="edge1" class="edge">
<title>avrocpp&#45;&gt;conda&#45;forge&#45;pinning</title>
<path fill="none" stroke="black" d="M78.74,-78.06C86.93,-75.74 95.72,-73.53 104,-72 279.09,-39.59 485.82,-26.94 610.27,-22.04"/>
<polygon fill="black" stroke="black" points="610.71,-25.52 620.57,-21.64 610.44,-18.53 610.71,-25.52"/>
</g>
<!-- caffe -->
<g id="node3" class="node">
<title>caffe</title>
<g id="a_node3"><a xlink:href="https://github.com/conda-forge/caffe-feedstock/pull/57" xlink:title="caffe">
<ellipse fill="#31688e" stroke="black" cx="105" cy="-162" rx="35.19" ry="18"/>
<text text-anchor="middle" x="105" y="-158.3" font-family="Times,serif" font-size="14.00" fill="white">caffe</text>
</a>
</g>
</g>
<!-- caffe&#45;&gt;conda&#45;forge&#45;pinning -->
<g id="edge2" class="edge">
<title>caffe&#45;&gt;conda&#45;forge&#45;pinning</title>
<path fill="none" stroke="black" d="M109.17,-143.91C115.23,-123.09 128.63,-88.63 154,-72 191.38,-47.49 458.53,-31.19 612.77,-23.71"/>
<polygon fill="black" stroke="black" points="612.95,-27.21 622.77,-23.23 612.61,-20.22 612.95,-27.21"/>
</g>
<!-- gap -->
<g id="node4" class="node">
<title>gap</title>
<g id="a_node4"><a xlink:href="https://github.com/conda-forge/gap-feedstock/pull/31" xlink:title="gap">
<ellipse fill="#31688e" stroke="black" cx="223" cy="-162" rx="27" ry="18"/>
<text text-anchor="middle" x="223" y="-158.3" font-family="Times,serif" font-size="14.00" fill="white">gap</text>
</a>
</g>
</g>
<!-- gap&#45;&gt;conda&#45;forge&#45;pinning -->
<g id="edge3" class="edge">
<title>gap&#45;&gt;conda&#45;forge&#45;pinning</title>
<path fill="none" stroke="black" d="M217.5,-144.16C212.17,-124.24 207.22,-91.34 225,-72 250.68,-44.08 473.19,-29.57 611.64,-23.18"/>
<polygon fill="black" stroke="black" points="612.04,-26.67 621.87,-22.72 611.72,-19.67 612.04,-26.67"/>
</g>
<!-- sagelib -->
<g id="node5" class="node">
<title>sagelib</title>
<ellipse fill="#fde725" stroke="black" cx="279" cy="-90" rx="45" ry="18"/>
<text text-anchor="middle" x="279" y="-86.3" font-family="Times,serif" font-size="14.00">sagelib</text>
</g>
<!-- gap&#45;&gt;sagelib -->
<g id="edge4" class="edge">
<title>gap&#45;&gt;sagelib</title>
<path fill="none" stroke="black" d="M235.15,-145.81C242.19,-137.02 251.22,-125.73 259.25,-115.69"/>
<polygon fill="black" stroke="black" points="262.18,-117.62 265.7,-107.63 256.72,-113.25 262.18,-117.62"/>
</g>
<!-- sagelib&#45;&gt;conda&#45;forge&#45;pinning -->
<g id="edge5" class="edge">
<title>sagelib&#45;&gt;conda&#45;forge&#45;pinning</title>
<path fill="none" stroke="black" d="M313.42,-78.18C321.43,-75.92 329.97,-73.7 338,-72 434.24,-51.6 545.79,-37.22 623.77,-28.63"/>
<polygon fill="black" stroke="black" points="624.51,-32.07 634.07,-27.51 623.75,-25.11 624.51,-32.07"/>
</g>
<!-- libcmaes -->
<g id="node6" class="node">
<title>libcmaes</title>
<g id="a_node6"><a xlink:href="https://github.com/conda-forge/libcmaes-feedstock/pull/12" xlink:title="libcmaes">
<ellipse fill="#31688e" stroke="black" cx="312" cy="-234" rx="50.09" ry="18"/>
<text text-anchor="middle" x="312" y="-230.3" font-family="Times,serif" font-size="14.00" fill="white">libcmaes</text>
</a>
</g>
</g>
<!-- libcmaes&#45;&gt;conda&#45;forge&#45;pinning -->
<g id="edge6" class="edge">
<title>libcmaes&#45;&gt;conda&#45;forge&#45;pinning</title>
<path fill="none" stroke="black" d="M313.38,-215.9C317.06,-182.44 330.22,-108.43 376,-72 411.88,-43.44 525.73,-30.13 613.13,-24.02"/>
<polygon fill="black" stroke="black" points="613.37,-27.51 623.11,-23.35 612.9,-20.53 613.37,-27.51"/>
</g>
<!-- pyne -->
<g id="node7" class="node">
<title>pyne</title>
<g id="a_node7"><a xlink:href="https://github.com/conda-forge/pyne-feedstock/pull/39" xlink:title="pyne">
<ellipse fill="#31688e" stroke="black" cx="369" cy="-306" rx="30.59" ry="18"/>
<text text-anchor="middle" x="369" y="-302.3" font-family="Times,serif" font-size="14.00" fill="white">pyne</text>
</a>
</g>
</g>
<!-- pyne&#45;&gt;conda&#45;forge&#45;pinning -->
<g id="edge7" class="edge">
<title>pyne&#45;&gt;conda&#45;forge&#45;pinning</title>
<path fill="none" stroke="black" d="M369.86,-287.72C372.66,-239.02 383.17,-102.2 414,-72 442.05,-44.52 536.85,-31.17 613.95,-24.76"/>
<polygon fill="black" stroke="black" points="614.53,-28.22 624.22,-23.93 613.97,-21.24 614.53,-28.22"/>
</g>
<!-- pyopcode -->
<g id="node8" class="node">
<title>pyopcode</title>
<g id="a_node8"><a xlink:href="https://github.com/conda-forge/pyopcode-feedstock/pull/18" xlink:title="pyopcode">
<ellipse fill="#31688e" stroke="black" cx="428" cy="-378" rx="50.09" ry="18"/>
<text text-anchor="middle" x="428" y="-374.3" font-family="Times,serif" font-size="14.00" fill="white">pyopcode</text>
</a>
</g>
</g>
<!-- pyopcode&#45;&gt;conda&#45;forge&#45;pinning -->
<g id="edge8" class="edge">
<title>pyopcode&#45;&gt;conda&#45;forge&#45;pinning</title>
<path fill="none" stroke="black" d="M428,-359.95C428,-333.29 428,-280.11 428,-235 428,-235 428,-235 428,-161 428,-120.55 418.12,-100.31 447,-72 471.32,-48.16 551.34,-34.55 618.84,-27.1"/>
<polygon fill="black" stroke="black" points="619.55,-30.54 629.12,-26 618.81,-23.58 619.55,-30.54"/>
</g>
<!-- pyranha -->
<g id="node9" class="node">
<title>pyranha</title>
<g id="a_node9"><a xlink:href="https://github.com/conda-forge/pyranha-feedstock/pull/15" xlink:title="pyranha">
<ellipse fill="#31688e" stroke="black" cx="501" cy="-90" rx="45" ry="18"/>
<text text-anchor="middle" x="501" y="-86.3" font-family="Times,serif" font-size="14.00" fill="white">pyranha</text>
</a>
</g>
</g>
<!-- pyranha&#45;&gt;conda&#45;forge&#45;pinning -->
<g id="edge9" class="edge">
<title>pyranha&#45;&gt;conda&#45;forge&#45;pinning</title>
<path fill="none" stroke="black" d="M535.05,-78.22C569.57,-67.28 623.63,-50.16 664.75,-37.13"/>
<polygon fill="black" stroke="black" points="665.9,-40.44 674.37,-34.09 663.78,-33.77 665.9,-40.44"/>
</g>
<!-- rsgislib -->
<g id="node10" class="node">
<title>rsgislib</title>
<g id="a_node10"><a xlink:href="https://github.com/conda-forge/rsgislib-feedstock/pull/29" xlink:title="rsgislib">
<ellipse fill="#31688e" stroke="black" cx="534" cy="-162" rx="50.09" ry="18"/>
<text text-anchor="middle" x="534" y="-158.3" font-family="Times,serif" font-size="14.00" fill="white">rsgislib</text>
</a>
</g>
</g>
<!-- rsgislib&#45;&gt;conda&#45;forge&#45;pinning -->
<g id="edge10" class="edge">
<title>rsgislib&#45;&gt;conda&#45;forge&#45;pinning</title>
<path fill="none" stroke="black" d="M542.46,-144.12C553.05,-124.46 572.9,-92.11 598,-72 616.62,-57.08 640.07,-45.64 661.55,-37.27"/>
<polygon fill="black" stroke="black" points="662.79,-40.54 670.93,-33.76 660.34,-33.98 662.79,-40.54"/>
</g>
<!-- zwatershed -->
<g id="node11" class="node">
<title>zwatershed</title>
<g id="a_node11"><a xlink:href="https://github.com/conda-forge/zwatershed-feedstock/pull/14" xlink:title="zwatershed">
<ellipse fill="#31688e" stroke="black" cx="562" cy="-234" rx="60" ry="18"/>
<text text-anchor="middle" x="562" y="-230.3" font-family="Times,serif" font-size="14.00" fill="white">zwatershed</text>
</a>
</g>
</g>
<!-- zwatershed&#45;&gt;conda&#45;forge&#45;pinning -->
<g id="edge11" class="edge">
<title>zwatershed&#45;&gt;conda&#45;forge&#45;pinning</title>
<path fill="none" stroke="black" d="M572.72,-216.17C579.02,-205.93 586.92,-192.45 593,-180 615.66,-133.57 602.77,-111.56 636,-72 646.93,-58.99 661.91,-48.23 676.3,-39.89"/>
<polygon fill="black" stroke="black" points="678.08,-42.91 685.14,-35.01 674.7,-36.78 678.08,-42.91"/>
</g>
<!-- alps -->
<g id="node12" class="node">
<title>alps</title>
<g id="a_node12"><a xlink:href="https://github.com/conda-forge/alps-feedstock/pull/30" xlink:title="alps">
<ellipse fill="#31688e" stroke="black" cx="629" cy="-306" rx="30.59" ry="18"/>
<text text-anchor="middle" x="629" y="-302.3" font-family="Times,serif" font-size="14.00" fill="white">alps</text>
</a>
</g>
</g>
<!-- alps&#45;&gt;conda&#45;forge&#45;pinning -->
<g id="edge12" class="edge">
<title>alps&#45;&gt;conda&#45;forge&#45;pinning</title>
<path fill="none" stroke="black" d="M629.21,-287.91C630.32,-247.97 636.9,-146.26 674,-72 679.27,-61.46 687.23,-51.44 695.16,-43.02"/>
<polygon fill="black" stroke="black" points="697.81,-45.32 702.36,-35.76 692.84,-40.4 697.81,-45.32"/>
</g>
<!-- clfft -->
<g id="node13" class="node">
<title>clfft</title>
<g id="a_node13"><a xlink:href="https://github.com/conda-forge/clfft-feedstock/pull/10" xlink:title="clfft">
<ellipse fill="#31688e" stroke="black" cx="688" cy="-378" rx="35.19" ry="18"/>
<text text-anchor="middle" x="688" y="-374.3" font-family="Times,serif" font-size="14.00" fill="white">clfft</text>
</a>
</g>
</g>
<!-- clfft&#45;&gt;conda&#45;forge&#45;pinning -->
<g id="edge13" class="edge">
<title>clfft&#45;&gt;conda&#45;forge&#45;pinning</title>
<path fill="none" stroke="black" d="M688,-359.95C688,-333.29 688,-280.11 688,-235 688,-235 688,-235 688,-161 688,-119.91 701.63,-73.92 711.63,-45.72"/>
<polygon fill="black" stroke="black" points="714.97,-46.76 715.12,-36.17 708.4,-44.36 714.97,-46.76"/>
</g>
<!-- spdlib -->
<g id="node14" class="node">
<title>spdlib</title>
<g id="a_node14"><a xlink:href="https://github.com/conda-forge/spdlib-feedstock/pull/12" xlink:title="spdlib">
<ellipse fill="#31688e" stroke="black" cx="757" cy="-90" rx="40.5" ry="18"/>
<text text-anchor="middle" x="757" y="-86.3" font-family="Times,serif" font-size="14.00" fill="white">spdlib</text>
</a>
</g>
</g>
<!-- spdlib&#45;&gt;conda&#45;forge&#45;pinning -->
<g id="edge14" class="edge">
<title>spdlib&#45;&gt;conda&#45;forge&#45;pinning</title>
<path fill="none" stroke="black" d="M748.53,-72.05C744.5,-64.01 739.6,-54.2 735.11,-45.23"/>
<polygon fill="black" stroke="black" points="738.24,-43.65 730.64,-36.28 731.98,-46.78 738.24,-43.65"/>
</g>
<!-- fmipp -->
<g id="node15" class="node">
<title>fmipp</title>
<g id="a_node15"><a xlink:href="https://github.com/conda-forge/fmipp-feedstock/pull/14" xlink:title="fmipp">
<ellipse fill="#31688e" stroke="black" cx="801" cy="-162" rx="35.19" ry="18"/>
<text text-anchor="middle" x="801" y="-158.3" font-family="Times,serif" font-size="14.00" fill="white">fmipp</text>
</a>
</g>
</g>
<!-- fmipp&#45;&gt;conda&#45;forge&#45;pinning -->
<g id="edge15" class="edge">
<title>fmipp&#45;&gt;conda&#45;forge&#45;pinning</title>
<path fill="none" stroke="black" d="M807.02,-144.08C812.62,-125.24 818.41,-94.5 806,-72 798.42,-58.25 785.6,-47.58 772.24,-39.53"/>
<polygon fill="black" stroke="black" points="773.86,-36.43 763.42,-34.62 770.45,-42.54 773.86,-36.43"/>
</g>
<!-- freecad -->
<g id="node16" class="node">
<title>freecad</title>
<g id="a_node16"><a xlink:href="https://github.com/conda-forge/freecad-feedstock/pull/36" xlink:title="freecad">
<ellipse fill="#31688e" stroke="black" cx="829" cy="-234" rx="45" ry="18"/>
<text text-anchor="middle" x="829" y="-230.3" font-family="Times,serif" font-size="14.00" fill="white">freecad</text>
</a>
</g>
</g>
<!-- freecad&#45;&gt;conda&#45;forge&#45;pinning -->
<g id="edge16" class="edge">
<title>freecad&#45;&gt;conda&#45;forge&#45;pinning</title>
<path fill="none" stroke="black" d="M835.49,-216.1C839.08,-205.84 843.17,-192.36 845,-180 852.14,-131.63 855.04,-109.78 824,-72 812.03,-57.43 795,-46.39 778.27,-38.27"/>
<polygon fill="black" stroke="black" points="779.6,-35.02 769.05,-34.05 776.69,-41.39 779.6,-35.02"/>
</g>
<!-- helics -->
<g id="node17" class="node">
<title>helics</title>
<g id="a_node17"><a xlink:href="https://github.com/conda-forge/helics-feedstock/pull/18" xlink:title="helics">
<ellipse fill="#31688e" stroke="black" cx="871" cy="-306" rx="40.5" ry="18"/>
<text text-anchor="middle" x="871" y="-302.3" font-family="Times,serif" font-size="14.00" fill="white">helics</text>
</a>
</g>
</g>
<!-- helics&#45;&gt;conda&#45;forge&#45;pinning -->
<g id="edge17" class="edge">
<title>helics&#45;&gt;conda&#45;forge&#45;pinning</title>
<path fill="none" stroke="black" d="M875.87,-287.98C878.56,-277.67 881.64,-264.19 883,-252 892.05,-171.09 901.68,-134.08 849,-72 834.85,-55.33 814.59,-43.81 794.4,-35.88"/>
<polygon fill="black" stroke="black" points="795.43,-32.53 784.83,-32.38 793.02,-39.1 795.43,-32.53"/>
</g>
<!-- normaliz -->
<g id="node18" class="node">
<title>normaliz</title>
<g id="a_node18"><a xlink:href="https://github.com/conda-forge/normaliz-feedstock/pull/19" xlink:title="normaliz">
<ellipse fill="#31688e" stroke="black" cx="181" cy="-234" rx="50.09" ry="18"/>
<text text-anchor="middle" x="181" y="-230.3" font-family="Times,serif" font-size="14.00" fill="white">normaliz</text>
</a>
</g>
</g>
<!-- normaliz&#45;&gt;conda&#45;forge&#45;pinning -->
<g id="edge18" class="edge">
<title>normaliz&#45;&gt;conda&#45;forge&#45;pinning</title>
<path fill="none" stroke="black" d="M177.74,-215.92C172.4,-182.17 166.28,-107.16 209,-72 239.51,-46.89 471.84,-31.21 613.17,-23.89"/>
<polygon fill="black" stroke="black" points="613.37,-27.39 623.18,-23.38 613.01,-20.4 613.37,-27.39"/>
</g>
<!-- normaliz&#45;&gt;gap -->
<g id="edge19" class="edge">
<title>normaliz&#45;&gt;gap</title>
<path fill="none" stroke="black" d="M191.17,-216.05C196.19,-207.68 202.36,-197.4 207.92,-188.13"/>
<polygon fill="black" stroke="black" points="211.07,-189.68 213.22,-179.31 205.07,-186.08 211.07,-189.68"/>
</g>
<!-- esys&#45;escript -->
<g id="node19" class="node">
<title>esys&#45;escript</title>
<g id="a_node19"><a xlink:href="https://github.com/conda-forge/esys-escript-feedstock/pull/12" xlink:title="esys escript">
<ellipse fill="#31688e" stroke="black" cx="940" cy="-378" rx="69.59" ry="18"/>
<text text-anchor="middle" x="940" y="-374.3" font-family="Times,serif" font-size="14.00" fill="white">esys escript</text>
</a>
</g>
</g>
<!-- esys&#45;escript&#45;&gt;conda&#45;forge&#45;pinning -->
<g id="edge20" class="edge">
<title>esys&#45;escript&#45;&gt;conda&#45;forge&#45;pinning</title>
<path fill="none" stroke="black" d="M940,-359.95C940,-333.29 940,-280.11 940,-235 940,-235 940,-235 940,-161 940,-90.69 859.39,-53.38 796.2,-34.94"/>
<polygon fill="black" stroke="black" points="796.8,-31.47 786.23,-32.14 794.91,-38.21 796.8,-31.47"/>
</g>
<!-- xmsinterp -->
<g id="node20" class="node">
<title>xmsinterp</title>
<g id="a_node20"><a xlink:href="https://github.com/conda-forge/xmsinterp-feedstock/pull/6" xlink:title="xmsinterp">
<ellipse fill="#31688e" stroke="black" cx="1066" cy="-234" rx="54.69" ry="18"/>
<text text-anchor="middle" x="1066" y="-230.3" font-family="Times,serif" font-size="14.00" fill="white">xmsinterp</text>
</a>
</g>
</g>
<!-- xmsinterp&#45;&gt;conda&#45;forge&#45;pinning -->
<g id="edge21" class="edge">
<title>xmsinterp&#45;&gt;conda&#45;forge&#45;pinning</title>
<path fill="none" stroke="black" d="M1040.25,-218.07C1025.91,-208.67 1008.66,-195.42 997,-180 965.84,-138.79 993.24,-105.61 954,-72 932.61,-53.68 868.22,-39.84 812.69,-30.91"/>
<polygon fill="black" stroke="black" points="813.21,-27.45 802.79,-29.35 812.13,-34.36 813.21,-27.45"/>
</g>
<!-- xmsstamper -->
<g id="node21" class="node">
<title>xmsstamper</title>
<g id="a_node21"><a xlink:href="https://github.com/conda-forge/xmsstamper-feedstock/pull/4" xlink:title="xmsstamper">
<ellipse fill="#31688e" stroke="black" cx="1066" cy="-162" rx="60" ry="18"/>
<text text-anchor="middle" x="1066" y="-158.3" font-family="Times,serif" font-size="14.00" fill="white">xmsstamper</text>
</a>
</g>
</g>
<!-- xmsinterp&#45;&gt;xmsstamper -->
<g id="edge22" class="edge">
<title>xmsinterp&#45;&gt;xmsstamper</title>
<path fill="none" stroke="black" d="M1066,-215.7C1066,-207.98 1066,-198.71 1066,-190.11"/>
<polygon fill="black" stroke="black" points="1069.5,-190.1 1066,-180.1 1062.5,-190.1 1069.5,-190.1"/>
</g>
<!-- xmsmesher -->
<g id="node22" class="node">
<title>xmsmesher</title>
<g id="a_node22"><a xlink:href="https://github.com/conda-forge/xmsmesher-feedstock/pull/4" xlink:title="xmsmesher">
<ellipse fill="#31688e" stroke="black" cx="1099" cy="-90" rx="54.69" ry="18"/>
<text text-anchor="middle" x="1099" y="-86.3" font-family="Times,serif" font-size="14.00" fill="white">xmsmesher</text>
</a>
</g>
</g>
<!-- xmsinterp&#45;&gt;xmsmesher -->
<g id="edge23" class="edge">
<title>xmsinterp&#45;&gt;xmsmesher</title>
<path fill="none" stroke="black" d="M1095.51,-218.66C1110.27,-209.76 1126.72,-196.8 1135,-180 1145.45,-158.8 1133.28,-133.78 1120.34,-115.68"/>
<polygon fill="black" stroke="black" points="1122.87,-113.22 1114.02,-107.39 1117.3,-117.47 1122.87,-113.22"/>
</g>
<!-- xmsstamper&#45;&gt;conda&#45;forge&#45;pinning -->
<g id="edge24" class="edge">
<title>xmsstamper&#45;&gt;conda&#45;forge&#45;pinning</title>
<path fill="none" stroke="black" d="M1056.72,-143.88C1044.64,-123.35 1021.55,-89.53 992,-72 944.15,-43.61 883.94,-30.08 832.53,-23.77"/>
<polygon fill="black" stroke="black" points="832.71,-20.26 822.37,-22.6 831.91,-27.22 832.71,-20.26"/>
</g>
<!-- xmsmesher&#45;&gt;conda&#45;forge&#45;pinning -->
<g id="edge25" class="edge">
<title>xmsmesher&#45;&gt;conda&#45;forge&#45;pinning</title>
<path fill="none" stroke="black" d="M1057.51,-78.27C1048.47,-76.08 1038.94,-73.87 1030,-72 955.16,-56.36 869.4,-41.88 807.41,-32.02"/>
<polygon fill="black" stroke="black" points="807.71,-28.53 797.28,-30.42 806.61,-35.44 807.71,-28.53"/>
</g>
<!-- odil -->
<g id="node23" class="node">
<title>odil</title>
<g id="a_node23"><a xlink:href="https://github.com/conda-forge/odil-feedstock/pull/3" xlink:title="odil">
<ellipse fill="#31688e" stroke="black" cx="1242" cy="-162" rx="30.59" ry="18"/>
<text text-anchor="middle" x="1242" y="-158.3" font-family="Times,serif" font-size="14.00" fill="white">odil</text>
</a>
</g>
</g>
<!-- odil&#45;&gt;conda&#45;forge&#45;pinning -->
<g id="edge26" class="edge">
<title>odil&#45;&gt;conda&#45;forge&#45;pinning</title>
<path fill="none" stroke="black" d="M1230.19,-145.18C1212.56,-122.02 1179.66,-80.72 1163,-72 1107.35,-42.87 943.93,-29.35 832.45,-23.37"/>
<polygon fill="black" stroke="black" points="832.33,-19.86 822.16,-22.83 831.96,-26.85 832.33,-19.86"/>
</g>
<!-- dicomifier -->
<g id="node24" class="node">
<title>dicomifier</title>
<ellipse fill="#fde725" stroke="black" cx="1270" cy="-90" rx="60" ry="18"/>
<text text-anchor="middle" x="1270" y="-86.3" font-family="Times,serif" font-size="14.00">dicomifier</text>
</g>
<!-- odil&#45;&gt;dicomifier -->
<g id="edge27" class="edge">
<title>odil&#45;&gt;dicomifier</title>
<path fill="none" stroke="black" d="M1248.64,-144.41C1251.87,-136.34 1255.83,-126.43 1259.46,-117.35"/>
<polygon fill="black" stroke="black" points="1262.75,-118.54 1263.22,-107.96 1256.25,-115.94 1262.75,-118.54"/>
</g>
<!-- dicomifier&#45;&gt;conda&#45;forge&#45;pinning -->
<g id="edge28" class="edge">
<title>dicomifier&#45;&gt;conda&#45;forge&#45;pinning</title>
<path fill="none" stroke="black" d="M1225.16,-77.83C1215.58,-75.69 1205.49,-73.61 1196,-72 1068.87,-50.36 921,-35.44 824.67,-27.06"/>
<polygon fill="black" stroke="black" points="824.9,-23.57 814.64,-26.2 824.3,-30.55 824.9,-23.57"/>
</g>
<!-- triqs_tprf -->
<g id="node25" class="node">
<title>triqs_tprf</title>
<g id="a_node25"><a xlink:href="https://github.com/conda-forge/triqs_tprf-feedstock/pull/4" xlink:title="triqs_tprf">
<ellipse fill="#31688e" stroke="black" cx="1408" cy="-90" rx="60" ry="18"/>
<text text-anchor="middle" x="1408" y="-86.3" font-family="Times,serif" font-size="14.00" fill="white">triqs_tprf</text>
</a>
</g>
</g>
<!-- triqs_tprf&#45;&gt;conda&#45;forge&#45;pinning -->
<g id="edge29" class="edge">
<title>triqs_tprf&#45;&gt;conda&#45;forge&#45;pinning</title>
<path fill="none" stroke="black" d="M1365.15,-77.35C1356.54,-75.32 1347.52,-73.41 1339,-72 1163.09,-42.96 956.16,-29.3 832.23,-23.28"/>
<polygon fill="black" stroke="black" points="832.13,-19.78 821.98,-22.79 831.8,-26.77 832.13,-19.78"/>
</g>
<!-- triqs_cthyb -->
<g id="node26" class="node">
<title>triqs_cthyb</title>
<g id="a_node26"><a xlink:href="https://github.com/conda-forge/triqs_cthyb-feedstock/pull/6" xlink:title="triqs_cthyb">
<ellipse fill="#31688e" stroke="black" cx="1496" cy="-162" rx="64.5" ry="18"/>
<text text-anchor="middle" x="1496" y="-158.3" font-family="Times,serif" font-size="14.00" fill="white">triqs_cthyb</text>
</a>
</g>
</g>
<!-- triqs_cthyb&#45;&gt;conda&#45;forge&#45;pinning -->
<g id="edge30" class="edge">
<title>triqs_cthyb&#45;&gt;conda&#45;forge&#45;pinning</title>
<path fill="none" stroke="black" d="M1497.85,-143.94C1499.02,-123.48 1497.4,-89.72 1477,-72 1429.74,-30.95 1034.49,-21.64 835.51,-19.57"/>
<polygon fill="black" stroke="black" points="835.35,-16.07 825.31,-19.47 835.28,-23.07 835.35,-16.07"/>
</g>
<!-- triqs_dft_tools -->
<g id="node27" class="node">
<title>triqs_dft_tools</title>
<g id="a_node27"><a xlink:href="https://github.com/conda-forge/triqs_dft_tools-feedstock/pull/6" xlink:title="triqs_dft_tools">
<ellipse fill="#31688e" stroke="black" cx="1589" cy="-234" rx="84" ry="18"/>
<text text-anchor="middle" x="1589" y="-230.3" font-family="Times,serif" font-size="14.00" fill="white">triqs_dft_tools</text>
</a>
</g>
</g>
<!-- triqs_dft_tools&#45;&gt;conda&#45;forge&#45;pinning -->
<g id="edge31" class="edge">
<title>triqs_dft_tools&#45;&gt;conda&#45;forge&#45;pinning</title>
<path fill="none" stroke="black" d="M1587.83,-215.66C1585.98,-197.01 1581.2,-166.93 1569,-144 1548.33,-105.14 1540.81,-90.79 1501,-72 1442.23,-44.26 1034.4,-28.34 833.43,-22.1"/>
<polygon fill="black" stroke="black" points="833.54,-18.6 823.43,-21.79 833.32,-25.6 833.54,-18.6"/>
</g>
</g>
</svg>
