<?xml version="1.0" encoding="UTF-8" standalone="no"?>
<!DOCTYPE svg PUBLIC "-//W3C//DTD SVG 1.1//EN"
 "http://www.w3.org/Graphics/SVG/1.1/DTD/svg11.dtd">
<!-- Generated by graphviz version 2.42.3 (20191010.1750)
 -->
<!-- Title: %3 Pages: 1 -->
<svg width="1679pt" height="404pt"
 viewBox="0.00 0.00 1678.50 404.00" xmlns="http://www.w3.org/2000/svg" xmlns:xlink="http://www.w3.org/1999/xlink">
<g id="graph0" class="graph" transform="scale(1 1) rotate(0) translate(4 400)">
<title>%3</title>
<polygon fill="white" stroke="transparent" points="-4,4 -4,-400 1674.5,-400 1674.5,4 -4,4"/>
<!-- avrocpp -->
<g id="node1" class="node">
<title>avrocpp</title>
<g id="a_node1"><a xlink:href="https://github.com/conda-forge/avrocpp-feedstock/pull/8" xlink:title="avrocpp">
<ellipse fill="#31688e" stroke="black" cx="45" cy="-90" rx="45" ry="18"/>
<text text-anchor="middle" x="45" y="-86.3" font-family="Times,serif" font-size="14.00" fill="white">avrocpp</text>
</a>
</g>
</g>
<!-- conda&#45;forge&#45;pinning -->
<g id="node2" class="node">
<title>conda&#45;forge&#45;pinning</title>
<ellipse fill="none" stroke="black" cx="719" cy="-18" rx="103.5" ry="18"/>
<text text-anchor="middle" x="719" y="-14.3" font-family="Times,serif" font-size="14.00">conda&#45;forge&#45;pinning</text>
</g>
<!-- avrocpp&#45;&gt;conda&#45;forge&#45;pinning -->
<g id="edge1" class="edge">
<title>avrocpp&#45;&gt;conda&#45;forge&#45;pinning</title>
<path fill="none" stroke="black" d="M78.74,-78.06C86.93,-75.74 95.72,-73.53 104,-72 277.98,-39.76 483.36,-27.06 607.27,-22.11"/>
<polygon fill="black" stroke="black" points="607.67,-25.59 617.52,-21.71 607.39,-18.6 607.67,-25.59"/>
</g>
<!-- caffe -->
<g id="node3" class="node">
<title>caffe</title>
<g id="a_node3"><a xlink:href="https://github.com/conda-forge/caffe-feedstock/pull/57" xlink:title="caffe">
<ellipse fill="#31688e" stroke="black" cx="105" cy="-162" rx="35.19" ry="18"/>
<text text-anchor="middle" x="105" y="-158.3" font-family="Times,serif" font-size="14.00" fill="white">caffe</text>
</a>
</g>
</g>
<!-- caffe&#45;&gt;conda&#45;forge&#45;pinning -->
<g id="edge2" class="edge">
<title>caffe&#45;&gt;conda&#45;forge&#45;pinning</title>
<path fill="none" stroke="black" d="M109.17,-143.92C115.23,-123.1 128.63,-88.64 154,-72 191.12,-47.65 456.03,-31.32 609.58,-23.78"/>
<polygon fill="black" stroke="black" points="610.16,-27.26 619.98,-23.28 609.82,-20.27 610.16,-27.26"/>
</g>
<!-- gap -->
<g id="node4" class="node">
<title>gap</title>
<g id="a_node4"><a xlink:href="https://github.com/conda-forge/gap-feedstock" xlink:title="gap">
<ellipse fill="#fde725" stroke="black" cx="223" cy="-162" rx="27" ry="18"/>
<text text-anchor="middle" x="223" y="-158.3" font-family="Times,serif" font-size="14.00">gap</text>
</a>
</g>
</g>
<!-- gap&#45;&gt;conda&#45;forge&#45;pinning -->
<g id="edge3" class="edge">
<title>gap&#45;&gt;conda&#45;forge&#45;pinning</title>
<path fill="none" stroke="black" d="M217.51,-144.17C212.17,-124.25 207.22,-91.35 225,-72 250.5,-44.25 471.38,-29.69 609.01,-23.24"/>
<polygon fill="black" stroke="black" points="609.36,-26.73 619.18,-22.77 609.03,-19.74 609.36,-26.73"/>
</g>
<!-- sagelib -->
<g id="node5" class="node">
<title>sagelib</title>
<g id="a_node5"><a xlink:href="https://github.com/conda-forge/sagelib-feedstock" xlink:title="sagelib">
<ellipse fill="#fde725" stroke="black" cx="279" cy="-90" rx="45" ry="18"/>
<text text-anchor="middle" x="279" y="-86.3" font-family="Times,serif" font-size="14.00">sagelib</text>
</a>
</g>
</g>
<!-- gap&#45;&gt;sagelib -->
<g id="edge4" class="edge">
<title>gap&#45;&gt;sagelib</title>
<path fill="none" stroke="black" d="M235.15,-145.81C242.19,-137.02 251.22,-125.73 259.25,-115.69"/>
<polygon fill="black" stroke="black" points="262.18,-117.62 265.7,-107.63 256.72,-113.25 262.18,-117.62"/>
</g>
<!-- sagelib&#45;&gt;conda&#45;forge&#45;pinning -->
<g id="edge5" class="edge">
<title>sagelib&#45;&gt;conda&#45;forge&#45;pinning</title>
<path fill="none" stroke="black" d="M313.42,-78.19C321.43,-75.92 329.97,-73.71 338,-72 433.34,-51.74 543.8,-37.36 621.16,-28.73"/>
<polygon fill="black" stroke="black" points="621.82,-32.18 631.38,-27.6 621.05,-25.22 621.82,-32.18"/>
</g>
<!-- libcmaes -->
<g id="node6" class="node">
<title>libcmaes</title>
<g id="a_node6"><a xlink:href="https://github.com/conda-forge/libcmaes-feedstock/pull/12" xlink:title="libcmaes">
<ellipse fill="#31688e" stroke="black" cx="312" cy="-234" rx="50.09" ry="18"/>
<text text-anchor="middle" x="312" y="-230.3" font-family="Times,serif" font-size="14.00" fill="white">libcmaes</text>
</a>
</g>
</g>
<!-- libcmaes&#45;&gt;conda&#45;forge&#45;pinning -->
<g id="edge6" class="edge">
<title>libcmaes&#45;&gt;conda&#45;forge&#45;pinning</title>
<path fill="none" stroke="black" d="M313.38,-215.9C317.07,-182.45 330.25,-108.46 376,-72 411.41,-43.78 523.47,-30.43 609.97,-24.21"/>
<polygon fill="black" stroke="black" points="610.39,-27.69 620.12,-23.51 609.9,-20.71 610.39,-27.69"/>
</g>
<!-- pyne -->
<g id="node7" class="node">
<title>pyne</title>
<g id="a_node7"><a xlink:href="https://github.com/conda-forge/pyne-feedstock/pull/39" xlink:title="pyne">
<ellipse fill="#31688e" stroke="black" cx="369" cy="-306" rx="30.59" ry="18"/>
<text text-anchor="middle" x="369" y="-302.3" font-family="Times,serif" font-size="14.00" fill="white">pyne</text>
</a>
</g>
</g>
<!-- pyne&#45;&gt;conda&#45;forge&#45;pinning -->
<g id="edge7" class="edge">
<title>pyne&#45;&gt;conda&#45;forge&#45;pinning</title>
<path fill="none" stroke="black" d="M369.87,-287.72C372.67,-239.02 383.2,-102.23 414,-72 441.67,-44.84 535.02,-31.46 611.24,-24.96"/>
<polygon fill="black" stroke="black" points="611.71,-28.43 621.39,-24.12 611.14,-21.45 611.71,-28.43"/>
</g>
<!-- pyopcode -->
<g id="node8" class="node">
<title>pyopcode</title>
<g id="a_node8"><a xlink:href="https://github.com/conda-forge/pyopcode-feedstock/pull/18" xlink:title="pyopcode">
<ellipse fill="#31688e" stroke="black" cx="428" cy="-378" rx="50.09" ry="18"/>
<text text-anchor="middle" x="428" y="-374.3" font-family="Times,serif" font-size="14.00" fill="white">pyopcode</text>
</a>
</g>
</g>
<!-- pyopcode&#45;&gt;conda&#45;forge&#45;pinning -->
<g id="edge8" class="edge">
<title>pyopcode&#45;&gt;conda&#45;forge&#45;pinning</title>
<path fill="none" stroke="black" d="M428,-359.95C428,-333.29 428,-280.11 428,-235 428,-235 428,-235 428,-161 428,-120.55 418.15,-100.34 447,-72 470.95,-48.47 549.65,-34.84 616.27,-27.31"/>
<polygon fill="black" stroke="black" points="616.87,-30.77 626.43,-26.2 616.11,-23.81 616.87,-30.77"/>
</g>
<!-- pyranha -->
<g id="node9" class="node">
<title>pyranha</title>
<g id="a_node9"><a xlink:href="https://github.com/conda-forge/pyranha-feedstock/pull/15" xlink:title="pyranha">
<ellipse fill="#31688e" stroke="black" cx="501" cy="-90" rx="45" ry="18"/>
<text text-anchor="middle" x="501" y="-86.3" font-family="Times,serif" font-size="14.00" fill="white">pyranha</text>
</a>
</g>
</g>
<!-- pyranha&#45;&gt;conda&#45;forge&#45;pinning -->
<g id="edge9" class="edge">
<title>pyranha&#45;&gt;conda&#45;forge&#45;pinning</title>
<path fill="none" stroke="black" d="M535.06,-78.06C569.03,-67.16 621.8,-50.21 662.13,-37.26"/>
<polygon fill="black" stroke="black" points="663.38,-40.54 671.83,-34.15 661.24,-33.87 663.38,-40.54"/>
</g>
<!-- zwatershed -->
<g id="node10" class="node">
<title>zwatershed</title>
<g id="a_node10"><a xlink:href="https://github.com/conda-forge/zwatershed-feedstock/pull/14" xlink:title="zwatershed">
<ellipse fill="#31688e" stroke="black" cx="524" cy="-162" rx="60" ry="18"/>
<text text-anchor="middle" x="524" y="-158.3" font-family="Times,serif" font-size="14.00" fill="white">zwatershed</text>
</a>
</g>
</g>
<!-- zwatershed&#45;&gt;conda&#45;forge&#45;pinning -->
<g id="edge10" class="edge">
<title>zwatershed&#45;&gt;conda&#45;forge&#45;pinning</title>
<path fill="none" stroke="black" d="M534.43,-144.22C547.31,-124.66 570.86,-92.42 598,-72 616.99,-57.71 640.43,-46.31 661.61,-37.79"/>
<polygon fill="black" stroke="black" points="663.11,-40.97 671.16,-34.08 660.57,-34.44 663.11,-40.97"/>
</g>
<!-- alps -->
<g id="node11" class="node">
<title>alps</title>
<g id="a_node11"><a xlink:href="https://github.com/conda-forge/alps-feedstock/pull/30" xlink:title="alps">
<ellipse fill="#31688e" stroke="black" cx="591" cy="-234" rx="30.59" ry="18"/>
<text text-anchor="middle" x="591" y="-230.3" font-family="Times,serif" font-size="14.00" fill="white">alps</text>
</a>
</g>
</g>
<!-- alps&#45;&gt;conda&#45;forge&#45;pinning -->
<g id="edge11" class="edge">
<title>alps&#45;&gt;conda&#45;forge&#45;pinning</title>
<path fill="none" stroke="black" d="M591.85,-215.75C594.2,-184.24 603.01,-116.54 636,-72 645.68,-58.93 659.64,-48.25 673.35,-39.99"/>
<polygon fill="black" stroke="black" points="675.31,-42.9 682.27,-34.92 671.85,-36.82 675.31,-42.9"/>
</g>
<!-- clfft -->
<g id="node12" class="node">
<title>clfft</title>
<g id="a_node12"><a xlink:href="https://github.com/conda-forge/clfft-feedstock/pull/10" xlink:title="clfft">
<ellipse fill="#31688e" stroke="black" cx="625" cy="-306" rx="35.19" ry="18"/>
<text text-anchor="middle" x="625" y="-302.3" font-family="Times,serif" font-size="14.00" fill="white">clfft</text>
</a>
</g>
</g>
<!-- clfft&#45;&gt;conda&#45;forge&#45;pinning -->
<g id="edge12" class="edge">
<title>clfft&#45;&gt;conda&#45;forge&#45;pinning</title>
<path fill="none" stroke="black" d="M627.48,-287.91C634.46,-240.92 655.04,-110.7 674,-72 678.99,-61.81 686.38,-51.97 693.74,-43.58"/>
<polygon fill="black" stroke="black" points="696.5,-45.75 700.7,-36.02 691.35,-41 696.5,-45.75"/>
</g>
<!-- spdlib -->
<g id="node13" class="node">
<title>spdlib</title>
<g id="a_node13"><a xlink:href="https://github.com/conda-forge/spdlib-feedstock/pull/12" xlink:title="spdlib">
<ellipse fill="#31688e" stroke="black" cx="688" cy="-378" rx="40.5" ry="18"/>
<text text-anchor="middle" x="688" y="-374.3" font-family="Times,serif" font-size="14.00" fill="white">spdlib</text>
</a>
</g>
</g>
<!-- spdlib&#45;&gt;conda&#45;forge&#45;pinning -->
<g id="edge13" class="edge">
<title>spdlib&#45;&gt;conda&#45;forge&#45;pinning</title>
<path fill="none" stroke="black" d="M688,-359.95C688,-333.29 688,-280.11 688,-235 688,-235 688,-235 688,-161 688,-120.1 700.43,-74.06 709.55,-45.79"/>
<polygon fill="black" stroke="black" points="712.89,-46.82 712.73,-36.22 706.25,-44.61 712.89,-46.82"/>
</g>
<!-- fmipp -->
<g id="node14" class="node">
<title>fmipp</title>
<g id="a_node14"><a xlink:href="https://github.com/conda-forge/fmipp-feedstock/pull/14" xlink:title="fmipp">
<ellipse fill="#31688e" stroke="black" cx="751" cy="-90" rx="35.19" ry="18"/>
<text text-anchor="middle" x="751" y="-86.3" font-family="Times,serif" font-size="14.00" fill="white">fmipp</text>
</a>
</g>
</g>
<!-- fmipp&#45;&gt;conda&#45;forge&#45;pinning -->
<g id="edge14" class="edge">
<title>fmipp&#45;&gt;conda&#45;forge&#45;pinning</title>
<path fill="none" stroke="black" d="M743.42,-72.41C739.69,-64.25 735.1,-54.22 730.92,-45.07"/>
<polygon fill="black" stroke="black" points="734.09,-43.6 726.75,-35.96 727.73,-46.51 734.09,-43.6"/>
</g>
<!-- freecad -->
<g id="node15" class="node">
<title>freecad</title>
<g id="a_node15"><a xlink:href="https://github.com/conda-forge/freecad-feedstock/pull/36" xlink:title="freecad">
<ellipse fill="#31688e" stroke="black" cx="779" cy="-162" rx="45" ry="18"/>
<text text-anchor="middle" x="779" y="-158.3" font-family="Times,serif" font-size="14.00" fill="white">freecad</text>
</a>
</g>
</g>
<!-- freecad&#45;&gt;conda&#45;forge&#45;pinning -->
<g id="edge15" class="edge">
<title>freecad&#45;&gt;conda&#45;forge&#45;pinning</title>
<path fill="none" stroke="black" d="M788.01,-144.3C796.75,-125.67 807.06,-95.1 795,-72 788.23,-59.03 776.69,-48.59 764.61,-40.52"/>
<polygon fill="black" stroke="black" points="766.12,-37.34 755.78,-35.05 762.44,-43.29 766.12,-37.34"/>
</g>
<!-- helics -->
<g id="node16" class="node">
<title>helics</title>
<g id="a_node16"><a xlink:href="https://github.com/conda-forge/helics-feedstock/pull/18" xlink:title="helics">
<ellipse fill="#31688e" stroke="black" cx="821" cy="-234" rx="40.5" ry="18"/>
<text text-anchor="middle" x="821" y="-230.3" font-family="Times,serif" font-size="14.00" fill="white">helics</text>
</a>
</g>
</g>
<!-- helics&#45;&gt;conda&#45;forge&#45;pinning -->
<g id="edge16" class="edge">
<title>helics&#45;&gt;conda&#45;forge&#45;pinning</title>
<path fill="none" stroke="black" d="M825.87,-215.98C828.56,-205.67 831.64,-192.19 833,-180 838.43,-131.4 842.3,-110.38 812,-72 801.03,-58.1 785.34,-47.2 769.96,-39"/>
<polygon fill="black" stroke="black" points="771.49,-35.85 760.98,-34.48 768.34,-42.11 771.49,-35.85"/>
</g>
<!-- normaliz -->
<g id="node17" class="node">
<title>normaliz</title>
<g id="a_node17"><a xlink:href="https://github.com/conda-forge/normaliz-feedstock/pull/19" xlink:title="normaliz">
<ellipse fill="#31688e" stroke="black" cx="181" cy="-234" rx="50.09" ry="18"/>
<text text-anchor="middle" x="181" y="-230.3" font-family="Times,serif" font-size="14.00" fill="white">normaliz</text>
</a>
</g>
</g>
<!-- normaliz&#45;&gt;conda&#45;forge&#45;pinning -->
<g id="edge17" class="edge">
<title>normaliz&#45;&gt;conda&#45;forge&#45;pinning</title>
<path fill="none" stroke="black" d="M177.74,-215.92C172.4,-182.17 166.29,-107.17 209,-72 239.25,-47.09 469.2,-31.37 609.8,-23.99"/>
<polygon fill="black" stroke="black" points="610.37,-27.46 620.18,-23.45 610.01,-20.47 610.37,-27.46"/>
</g>
<!-- normaliz&#45;&gt;gap -->
<g id="edge18" class="edge">
<title>normaliz&#45;&gt;gap</title>
<path fill="none" stroke="black" d="M191.17,-216.05C196.19,-207.68 202.36,-197.4 207.92,-188.13"/>
<polygon fill="black" stroke="black" points="211.07,-189.68 213.22,-179.31 205.07,-186.08 211.07,-189.68"/>
</g>
<!-- esys&#45;escript -->
<g id="node18" class="node">
<title>esys&#45;escript</title>
<g id="a_node18"><a xlink:href="https://github.com/conda-forge/esys-escript-feedstock/pull/12" xlink:title="esys escript">
<ellipse fill="#31688e" stroke="black" cx="890" cy="-306" rx="69.59" ry="18"/>
<text text-anchor="middle" x="890" y="-302.3" font-family="Times,serif" font-size="14.00" fill="white">esys escript</text>
</a>
</g>
</g>
<!-- esys&#45;escript&#45;&gt;conda&#45;forge&#45;pinning -->
<g id="edge19" class="edge">
<title>esys&#45;escript&#45;&gt;conda&#45;forge&#45;pinning</title>
<path fill="none" stroke="black" d="M890.98,-287.86C892.45,-246 890.54,-137.27 837,-72 823.9,-56.03 804.99,-44.7 786.12,-36.73"/>
<polygon fill="black" stroke="black" points="787.18,-33.38 776.6,-32.97 784.62,-39.89 787.18,-33.38"/>
</g>
<!-- xmsinterp -->
<g id="node19" class="node">
<title>xmsinterp</title>
<g id="a_node19"><a xlink:href="https://github.com/conda-forge/xmsinterp-feedstock/pull/6" xlink:title="xmsinterp">
<ellipse fill="#31688e" stroke="black" cx="1016" cy="-234" rx="54.69" ry="18"/>
<text text-anchor="middle" x="1016" y="-230.3" font-family="Times,serif" font-size="14.00" fill="white">xmsinterp</text>
</a>
</g>
</g>
<!-- xmsinterp&#45;&gt;conda&#45;forge&#45;pinning -->
<g id="edge20" class="edge">
<title>xmsinterp&#45;&gt;conda&#45;forge&#45;pinning</title>
<path fill="none" stroke="black" d="M990.25,-218.07C975.91,-208.67 958.66,-195.42 947,-180 915.84,-138.79 942.31,-106.66 904,-72 880.08,-50.36 847.89,-37.5 817.07,-29.88"/>
<polygon fill="black" stroke="black" points="817.65,-26.42 807.12,-27.59 816.08,-33.25 817.65,-26.42"/>
</g>
<!-- xmsstamper -->
<g id="node20" class="node">
<title>xmsstamper</title>
<g id="a_node20"><a xlink:href="https://github.com/conda-forge/xmsstamper-feedstock" xlink:title="xmsstamper">
<ellipse fill="#fde725" stroke="black" cx="1016" cy="-162" rx="60" ry="18"/>
<text text-anchor="middle" x="1016" y="-158.3" font-family="Times,serif" font-size="14.00">xmsstamper</text>
</a>
</g>
</g>
<!-- xmsinterp&#45;&gt;xmsstamper -->
<g id="edge21" class="edge">
<title>xmsinterp&#45;&gt;xmsstamper</title>
<path fill="none" stroke="black" d="M1016,-215.7C1016,-207.98 1016,-198.71 1016,-190.11"/>
<polygon fill="black" stroke="black" points="1019.5,-190.1 1016,-180.1 1012.5,-190.1 1019.5,-190.1"/>
</g>
<!-- xmsmesher -->
<g id="node21" class="node">
<title>xmsmesher</title>
<g id="a_node21"><a xlink:href="https://github.com/conda-forge/xmsmesher-feedstock" xlink:title="xmsmesher">
<ellipse fill="#fde725" stroke="black" cx="1049" cy="-90" rx="54.69" ry="18"/>
<text text-anchor="middle" x="1049" y="-86.3" font-family="Times,serif" font-size="14.00">xmsmesher</text>
</a>
</g>
</g>
<!-- xmsinterp&#45;&gt;xmsmesher -->
<g id="edge22" class="edge">
<title>xmsinterp&#45;&gt;xmsmesher</title>
<path fill="none" stroke="black" d="M1045.51,-218.66C1060.27,-209.76 1076.72,-196.8 1085,-180 1095.45,-158.8 1083.28,-133.78 1070.34,-115.68"/>
<polygon fill="black" stroke="black" points="1072.87,-113.22 1064.02,-107.39 1067.3,-117.47 1072.87,-113.22"/>
</g>
<!-- xmsstamper&#45;&gt;conda&#45;forge&#45;pinning -->
<g id="edge23" class="edge">
<title>xmsstamper&#45;&gt;conda&#45;forge&#45;pinning</title>
<path fill="none" stroke="black" d="M1006.6,-144.07C994.41,-123.74 971.2,-90.11 942,-72 905.14,-49.13 859.23,-36.13 818.67,-28.74"/>
<polygon fill="black" stroke="black" points="819.2,-25.28 808.75,-27.02 818.01,-32.17 819.2,-25.28"/>
</g>
<!-- xmsmesher&#45;&gt;conda&#45;forge&#45;pinning -->
<g id="edge24" class="edge">
<title>xmsmesher&#45;&gt;conda&#45;forge&#45;pinning</title>
<path fill="none" stroke="black" d="M1007.1,-78.38C998.17,-76.2 988.79,-73.97 980,-72 918.23,-58.12 847.87,-43.93 795.78,-33.73"/>
<polygon fill="black" stroke="black" points="796.43,-30.29 785.94,-31.81 795.09,-37.16 796.43,-30.29"/>
</g>
<!-- odil -->
<g id="node22" class="node">
<title>odil</title>
<g id="a_node22"><a xlink:href="https://github.com/conda-forge/odil-feedstock/pull/3" xlink:title="odil">
<ellipse fill="#31688e" stroke="black" cx="1192" cy="-162" rx="30.59" ry="18"/>
<text text-anchor="middle" x="1192" y="-158.3" font-family="Times,serif" font-size="14.00" fill="white">odil</text>
</a>
</g>
</g>
<!-- odil&#45;&gt;conda&#45;forge&#45;pinning -->
<g id="edge25" class="edge">
<title>odil&#45;&gt;conda&#45;forge&#45;pinning</title>
<path fill="none" stroke="black" d="M1180.17,-145.2C1162.52,-122.09 1129.6,-80.84 1113,-72 1064.78,-46.32 925.52,-32.13 826.26,-25.05"/>
<polygon fill="black" stroke="black" points="826.4,-21.55 816.18,-24.34 825.91,-28.53 826.4,-21.55"/>
</g>
<!-- dicomifier -->
<g id="node23" class="node">
<title>dicomifier</title>
<g id="a_node23"><a xlink:href="https://github.com/conda-forge/dicomifier-feedstock" xlink:title="dicomifier">
<ellipse fill="#fde725" stroke="black" cx="1220" cy="-90" rx="60" ry="18"/>
<text text-anchor="middle" x="1220" y="-86.3" font-family="Times,serif" font-size="14.00">dicomifier</text>
</a>
</g>
</g>
<!-- odil&#45;&gt;dicomifier -->
<g id="edge26" class="edge">
<title>odil&#45;&gt;dicomifier</title>
<path fill="none" stroke="black" d="M1198.64,-144.41C1201.87,-136.34 1205.83,-126.43 1209.46,-117.35"/>
<polygon fill="black" stroke="black" points="1212.75,-118.54 1213.22,-107.96 1206.25,-115.94 1212.75,-118.54"/>
</g>
<!-- dicomifier&#45;&gt;conda&#45;forge&#45;pinning -->
<g id="edge27" class="edge">
<title>dicomifier&#45;&gt;conda&#45;forge&#45;pinning</title>
<path fill="none" stroke="black" d="M1175.15,-77.92C1165.57,-75.77 1155.48,-73.67 1146,-72 1034.2,-52.27 904.64,-37.29 817.82,-28.37"/>
<polygon fill="black" stroke="black" points="818.02,-24.87 807.72,-27.34 817.31,-31.83 818.02,-24.87"/>
</g>
<!-- triqs_tprf -->
<g id="node24" class="node">
<title>triqs_tprf</title>
<g id="a_node24"><a xlink:href="https://github.com/conda-forge/triqs_tprf-feedstock/pull/4" xlink:title="triqs_tprf">
<ellipse fill="#31688e" stroke="black" cx="1308" cy="-378" rx="60" ry="18"/>
<text text-anchor="middle" x="1308" y="-374.3" font-family="Times,serif" font-size="14.00" fill="white">triqs_tprf</text>
</a>
</g>
</g>
<!-- triqs_tprf&#45;&gt;conda&#45;forge&#45;pinning -->
<g id="edge28" class="edge">
<title>triqs_tprf&#45;&gt;conda&#45;forge&#45;pinning</title>
<path fill="none" stroke="black" d="M1308,-359.95C1308,-333.29 1308,-280.11 1308,-235 1308,-235 1308,-235 1308,-161 1308,-120.55 1319.23,-98.87 1289,-72 1255.52,-42.24 986.48,-28.11 830.29,-22.36"/>
<polygon fill="black" stroke="black" points="830.28,-18.85 820.16,-21.99 830.03,-25.85 830.28,-18.85"/>
</g>
<!-- triqs_cthyb -->
<g id="node25" class="node">
<title>triqs_cthyb</title>
<g id="a_node25"><a xlink:href="https://github.com/conda-forge/triqs_cthyb-feedstock/pull/6" xlink:title="triqs_cthyb">
<ellipse fill="#31688e" stroke="black" cx="1401" cy="-90" rx="64.5" ry="18"/>
<text text-anchor="middle" x="1401" y="-86.3" font-family="Times,serif" font-size="14.00" fill="white">triqs_cthyb</text>
</a>
</g>
</g>
<!-- triqs_cthyb&#45;&gt;conda&#45;forge&#45;pinning -->
<g id="edge29" class="edge">
<title>triqs_cthyb&#45;&gt;conda&#45;forge&#45;pinning</title>
<path fill="none" stroke="black" d="M1353.55,-77.79C1343.2,-75.62 1332.27,-73.55 1322,-72 1149.92,-46.03 948.16,-31.48 827.11,-24.44"/>
<polygon fill="black" stroke="black" points="827.28,-20.95 817.1,-23.87 826.88,-27.94 827.28,-20.95"/>
</g>
<!-- triqs_dft_tools -->
<g id="node26" class="node">
<title>triqs_dft_tools</title>
<g id="a_node26"><a xlink:href="https://github.com/conda-forge/triqs_dft_tools-feedstock/pull/6" xlink:title="triqs_dft_tools">
<ellipse fill="#31688e" stroke="black" cx="1494" cy="-162" rx="84" ry="18"/>
<text text-anchor="middle" x="1494" y="-158.3" font-family="Times,serif" font-size="14.00" fill="white">triqs_dft_tools</text>
</a>
</g>
</g>
<!-- triqs_dft_tools&#45;&gt;conda&#45;forge&#45;pinning -->
<g id="edge30" class="edge">
<title>triqs_dft_tools&#45;&gt;conda&#45;forge&#45;pinning</title>
<path fill="none" stroke="black" d="M1495.64,-143.92C1496.56,-123.43 1494.54,-89.65 1474,-72 1426.52,-31.2 1031.38,-21.77 832.47,-19.62"/>
<polygon fill="black" stroke="black" points="832.31,-16.12 822.28,-19.52 832.24,-23.12 832.31,-16.12"/>
</g>
<!-- collada&#45;dom -->
<g id="node27" class="node">
<title>collada&#45;dom</title>
<g id="a_node27"><a xlink:href="https://github.com/conda-forge/collada-dom-feedstock/pull/1" xlink:title="collada dom">
<ellipse fill="#31688e" stroke="black" cx="1606" cy="-234" rx="64.5" ry="18"/>
<text text-anchor="middle" x="1606" y="-230.3" font-family="Times,serif" font-size="14.00" fill="white">collada dom</text>
</a>
</g>
</g>
<!-- collada&#45;dom&#45;&gt;conda&#45;forge&#45;pinning -->
<g id="edge31" class="edge">
<title>collada&#45;dom&#45;&gt;conda&#45;forge&#45;pinning</title>
<path fill="none" stroke="black" d="M1605.67,-215.68C1604.59,-196.77 1600.64,-166.22 1587,-144 1560.39,-100.64 1545.36,-90.59 1498,-72 1380.06,-25.7 1018.99,-18.76 832.75,-18.38"/>
<polygon fill="black" stroke="black" points="832.65,-14.88 822.65,-18.37 832.64,-21.88 832.65,-14.88"/>
</g>
</g>
</svg>
