<?xml version="1.0" encoding="UTF-8" standalone="no"?>
<!DOCTYPE svg PUBLIC "-//W3C//DTD SVG 1.1//EN"
 "http://www.w3.org/Graphics/SVG/1.1/DTD/svg11.dtd">
<!-- Generated by graphviz version 2.42.3 (20191010.1750)
 -->
<!-- Title: %3 Pages: 1 -->
<svg width="1422pt" height="2092pt"
 viewBox="0.00 0.00 1421.51 2092.00" xmlns="http://www.w3.org/2000/svg" xmlns:xlink="http://www.w3.org/1999/xlink">
<g id="graph0" class="graph" transform="scale(1 1) rotate(0) translate(4 2088)">
<title>%3</title>
<polygon fill="white" stroke="transparent" points="-4,4 -4,-2088 1417.51,-2088 1417.51,4 -4,4"/>
<!-- arrow&#45;cpp -->
<g id="node1" class="node">
<title>arrow&#45;cpp</title>
<ellipse fill="#fde725" stroke="black" cx="471.51" cy="-466" rx="54.69" ry="18"/>
<text text-anchor="middle" x="471.51" y="-462.3" font-family="Times,serif" font-size="14.00">arrow cpp</text>
</g>
<!-- pyarrow -->
<g id="node2" class="node">
<title>pyarrow</title>
<ellipse fill="#fde725" stroke="black" cx="389.51" cy="-394" rx="45" ry="18"/>
<text text-anchor="middle" x="389.51" y="-390.3" font-family="Times,serif" font-size="14.00">pyarrow</text>
</g>
<!-- arrow&#45;cpp&#45;&gt;pyarrow -->
<g id="edge1" class="edge">
<title>arrow&#45;cpp&#45;&gt;pyarrow</title>
<path fill="none" stroke="black" d="M452.49,-448.76C441.57,-439.45 427.7,-427.61 415.76,-417.41"/>
<polygon fill="black" stroke="black" points="417.74,-414.5 407.86,-410.67 413.19,-419.82 417.74,-414.5"/>
</g>
<!-- turbodbc -->
<g id="node3" class="node">
<title>turbodbc</title>
<ellipse fill="#fde725" stroke="black" cx="425.51" cy="-322" rx="50.09" ry="18"/>
<text text-anchor="middle" x="425.51" y="-318.3" font-family="Times,serif" font-size="14.00">turbodbc</text>
</g>
<!-- arrow&#45;cpp&#45;&gt;turbodbc -->
<g id="edge2" class="edge">
<title>arrow&#45;cpp&#45;&gt;turbodbc</title>
<path fill="none" stroke="black" d="M466.25,-447.9C460.71,-429.96 451.66,-400.94 443.51,-376 440.72,-367.46 437.59,-358.18 434.74,-349.81"/>
<polygon fill="black" stroke="black" points="437.99,-348.48 431.44,-340.15 431.37,-350.75 437.99,-348.48"/>
</g>
<!-- omniscidb&#45;cpu -->
<g id="node4" class="node">
<title>omniscidb&#45;cpu</title>
<ellipse fill="#fde725" stroke="black" cx="564.51" cy="-394" rx="74.19" ry="18"/>
<text text-anchor="middle" x="564.51" y="-390.3" font-family="Times,serif" font-size="14.00">omniscidb cpu</text>
</g>
<!-- arrow&#45;cpp&#45;&gt;omniscidb&#45;cpu -->
<g id="edge3" class="edge">
<title>arrow&#45;cpp&#45;&gt;omniscidb&#45;cpu</title>
<path fill="none" stroke="black" d="M492.61,-449.12C505.04,-439.76 520.95,-427.78 534.65,-417.47"/>
<polygon fill="black" stroke="black" points="536.96,-420.12 542.84,-411.31 532.75,-414.52 536.96,-420.12"/>
</g>
<!-- pyarrow&#45;&gt;turbodbc -->
<g id="edge4" class="edge">
<title>pyarrow&#45;&gt;turbodbc</title>
<path fill="none" stroke="black" d="M398.22,-376.05C402.42,-367.89 407.55,-357.91 412.23,-348.82"/>
<polygon fill="black" stroke="black" points="415.41,-350.28 416.87,-339.79 409.19,-347.08 415.41,-350.28"/>
</g>
<!-- avrocpp -->
<g id="node5" class="node">
<title>avrocpp</title>
<ellipse fill="#35b779" stroke="black" cx="1329.51" cy="-1302" rx="45" ry="18"/>
<text text-anchor="middle" x="1329.51" y="-1298.3" font-family="Times,serif" font-size="14.00">avrocpp</text>
</g>
<!-- caffe -->
<g id="node6" class="node">
<title>caffe</title>
<ellipse fill="#35b779" stroke="black" cx="1329.51" cy="-1230" rx="35.19" ry="18"/>
<text text-anchor="middle" x="1329.51" y="-1226.3" font-family="Times,serif" font-size="14.00">caffe</text>
</g>
<!-- avrocpp&#45;&gt;caffe -->
<!-- dionysus -->
<g id="node7" class="node">
<title>dionysus</title>
<ellipse fill="#35b779" stroke="black" cx="1329.51" cy="-1158" rx="50.09" ry="18"/>
<text text-anchor="middle" x="1329.51" y="-1154.3" font-family="Times,serif" font-size="14.00">dionysus</text>
</g>
<!-- caffe&#45;&gt;dionysus -->
<!-- exempi -->
<g id="node10" class="node">
<title>exempi</title>
<ellipse fill="#35b779" stroke="black" cx="1329.51" cy="-1086" rx="40.5" ry="18"/>
<text text-anchor="middle" x="1329.51" y="-1082.3" font-family="Times,serif" font-size="14.00">exempi</text>
</g>
<!-- dionysus&#45;&gt;exempi -->
<!-- casacore -->
<g id="node8" class="node">
<title>casacore</title>
<g id="a_node8"><a xlink:href="https://github.com/conda-forge/casacore-feedstock/pull/41" xlink:title="casacore">
<ellipse fill="#31688e" stroke="black" cx="1114.51" cy="-242" rx="50.09" ry="18"/>
<text text-anchor="middle" x="1114.51" y="-238.3" font-family="Times,serif" font-size="14.00" fill="white">casacore</text>
</a>
</g>
</g>
<!-- python&#45;casacore -->
<g id="node9" class="node">
<title>python&#45;casacore</title>
<ellipse fill="#fde725" stroke="black" cx="1114.51" cy="-170" rx="84" ry="18"/>
<text text-anchor="middle" x="1114.51" y="-166.3" font-family="Times,serif" font-size="14.00">python casacore</text>
</g>
<!-- casacore&#45;&gt;python&#45;casacore -->
<g id="edge7" class="edge">
<title>casacore&#45;&gt;python&#45;casacore</title>
<path fill="none" stroke="black" d="M1114.51,-223.7C1114.51,-215.98 1114.51,-206.71 1114.51,-198.11"/>
<polygon fill="black" stroke="black" points="1118.01,-198.1 1114.51,-188.1 1111.01,-198.1 1118.01,-198.1"/>
</g>
<!-- libcmaes -->
<g id="node11" class="node">
<title>libcmaes</title>
<g id="a_node11"><a xlink:href="https://github.com/conda-forge/libcmaes-feedstock/pull/12" xlink:title="libcmaes">
<ellipse fill="#31688e" stroke="black" cx="1329.51" cy="-1014" rx="50.09" ry="18"/>
<text text-anchor="middle" x="1329.51" y="-1010.3" font-family="Times,serif" font-size="14.00" fill="white">libcmaes</text>
</a>
</g>
</g>
<!-- exempi&#45;&gt;libcmaes -->
<!-- libradolan -->
<g id="node14" class="node">
<title>libradolan</title>
<g id="a_node14"><a xlink:href="https://github.com/conda-forge/libradolan-feedstock/pull/23" xlink:title="libradolan">
<ellipse fill="#31688e" stroke="black" cx="1329.51" cy="-942" rx="60" ry="18"/>
<text text-anchor="middle" x="1329.51" y="-938.3" font-family="Times,serif" font-size="14.00" fill="white">libradolan</text>
</a>
</g>
</g>
<!-- libcmaes&#45;&gt;libradolan -->
<!-- gap -->
<g id="node12" class="node">
<title>gap</title>
<ellipse fill="#fde725" stroke="black" cx="491.51" cy="-206" rx="27" ry="18"/>
<text text-anchor="middle" x="491.51" y="-202.3" font-family="Times,serif" font-size="14.00">gap</text>
</g>
<!-- sagelib -->
<g id="node13" class="node">
<title>sagelib</title>
<ellipse fill="#fde725" stroke="black" cx="491.51" cy="-134" rx="45" ry="18"/>
<text text-anchor="middle" x="491.51" y="-130.3" font-family="Times,serif" font-size="14.00">sagelib</text>
</g>
<!-- gap&#45;&gt;sagelib -->
<g id="edge10" class="edge">
<title>gap&#45;&gt;sagelib</title>
<path fill="none" stroke="black" d="M491.51,-187.7C491.51,-179.98 491.51,-170.71 491.51,-162.11"/>
<polygon fill="black" stroke="black" points="495.01,-162.1 491.51,-152.1 488.01,-162.1 495.01,-162.1"/>
</g>
<!-- mshr -->
<g id="node15" class="node">
<title>mshr</title>
<g id="a_node15"><a xlink:href="https://github.com/conda-forge/mshr-feedstock/pull/19" xlink:title="mshr">
<ellipse fill="#31688e" stroke="black" cx="1329.51" cy="-870" rx="30.59" ry="18"/>
<text text-anchor="middle" x="1329.51" y="-866.3" font-family="Times,serif" font-size="14.00" fill="white">mshr</text>
</a>
</g>
</g>
<!-- libradolan&#45;&gt;mshr -->
<!-- paraview -->
<g id="node18" class="node">
<title>paraview</title>
<g id="a_node18"><a xlink:href="https://github.com/conda-forge/paraview-feedstock/pull/69" xlink:title="paraview">
<ellipse fill="#31688e" stroke="black" cx="1329.51" cy="-798" rx="50.09" ry="18"/>
<text text-anchor="middle" x="1329.51" y="-794.3" font-family="Times,serif" font-size="14.00" fill="white">paraview</text>
</a>
</g>
</g>
<!-- mshr&#45;&gt;paraview -->
<!-- msgpack&#45;c -->
<g id="node16" class="node">
<title>msgpack&#45;c</title>
<g id="a_node16"><a xlink:href="https://github.com/conda-forge/msgpack-c-feedstock/pull/18" xlink:title="msgpack c">
<ellipse fill="#31688e" stroke="black" cx="491.51" cy="-90" rx="54.69" ry="18"/>
<text text-anchor="middle" x="491.51" y="-86.3" font-family="Times,serif" font-size="14.00" fill="white">msgpack c</text>
</a>
</g>
</g>
<!-- pyranha -->
<g id="node17" class="node">
<title>pyranha</title>
<ellipse fill="#fde725" stroke="black" cx="491.51" cy="-18" rx="45" ry="18"/>
<text text-anchor="middle" x="491.51" y="-14.3" font-family="Times,serif" font-size="14.00">pyranha</text>
</g>
<!-- msgpack&#45;c&#45;&gt;pyranha -->
<g id="edge13" class="edge">
<title>msgpack&#45;c&#45;&gt;pyranha</title>
<path fill="none" stroke="black" d="M491.51,-71.7C491.51,-63.98 491.51,-54.71 491.51,-46.11"/>
<polygon fill="black" stroke="black" points="495.01,-46.1 491.51,-36.1 488.01,-46.1 495.01,-46.1"/>
</g>
<!-- pykep -->
<g id="node19" class="node">
<title>pykep</title>
<g id="a_node19"><a xlink:href="https://github.com/conda-forge/pykep-feedstock/pull/11" xlink:title="pykep">
<ellipse fill="#31688e" stroke="black" cx="1329.51" cy="-726" rx="35.19" ry="18"/>
<text text-anchor="middle" x="1329.51" y="-722.3" font-family="Times,serif" font-size="14.00" fill="white">pykep</text>
</a>
</g>
</g>
<!-- paraview&#45;&gt;pykep -->
<!-- pyne -->
<g id="node20" class="node">
<title>pyne</title>
<g id="a_node20"><a xlink:href="https://github.com/conda-forge/pyne-feedstock/pull/39" xlink:title="pyne">
<ellipse fill="#31688e" stroke="black" cx="1329.51" cy="-654" rx="30.59" ry="18"/>
<text text-anchor="middle" x="1329.51" y="-650.3" font-family="Times,serif" font-size="14.00" fill="white">pyne</text>
</a>
</g>
</g>
<!-- pykep&#45;&gt;pyne -->
<!-- pyobjcryst -->
<g id="node21" class="node">
<title>pyobjcryst</title>
<g id="a_node21"><a xlink:href="https://github.com/conda-forge/pyobjcryst-feedstock/pull/9" xlink:title="pyobjcryst">
<ellipse fill="#31688e" stroke="black" cx="1329.51" cy="-582" rx="60" ry="18"/>
<text text-anchor="middle" x="1329.51" y="-578.3" font-family="Times,serif" font-size="14.00" fill="white">pyobjcryst</text>
</a>
</g>
</g>
<!-- pyne&#45;&gt;pyobjcryst -->
<!-- pyopcode -->
<g id="node22" class="node">
<title>pyopcode</title>
<g id="a_node22"><a xlink:href="https://github.com/conda-forge/pyopcode-feedstock/pull/18" xlink:title="pyopcode">
<ellipse fill="#31688e" stroke="black" cx="1114.51" cy="-1302" rx="50.09" ry="18"/>
<text text-anchor="middle" x="1114.51" y="-1298.3" font-family="Times,serif" font-size="14.00" fill="white">pyopcode</text>
</a>
</g>
</g>
<!-- rank_filter -->
<g id="node23" class="node">
<title>rank_filter</title>
<g id="a_node23"><a xlink:href="https://github.com/conda-forge/rank_filter-feedstock/pull/44" xlink:title="rank_filter">
<ellipse fill="#31688e" stroke="black" cx="1114.51" cy="-1230" rx="64.5" ry="18"/>
<text text-anchor="middle" x="1114.51" y="-1226.3" font-family="Times,serif" font-size="14.00" fill="white">rank_filter</text>
</a>
</g>
</g>
<!-- pyopcode&#45;&gt;rank_filter -->
<!-- rsgislib -->
<g id="node24" class="node">
<title>rsgislib</title>
<g id="a_node24"><a xlink:href="https://github.com/conda-forge/rsgislib-feedstock/pull/29" xlink:title="rsgislib">
<ellipse fill="#31688e" stroke="black" cx="1114.51" cy="-1158" rx="50.09" ry="18"/>
<text text-anchor="middle" x="1114.51" y="-1154.3" font-family="Times,serif" font-size="14.00" fill="white">rsgislib</text>
</a>
</g>
</g>
<!-- rank_filter&#45;&gt;rsgislib -->
<!-- vigra -->
<g id="node25" class="node">
<title>vigra</title>
<g id="a_node25"><a xlink:href="https://github.com/conda-forge/vigra-feedstock/pull/53" xlink:title="vigra">
<ellipse fill="#31688e" stroke="black" cx="1114.51" cy="-1086" rx="35.19" ry="18"/>
<text text-anchor="middle" x="1114.51" y="-1082.3" font-family="Times,serif" font-size="14.00" fill="white">vigra</text>
</a>
</g>
</g>
<!-- rsgislib&#45;&gt;vigra -->
<!-- zwatershed -->
<g id="node26" class="node">
<title>zwatershed</title>
<ellipse fill="#fde725" stroke="black" cx="1114.51" cy="-1014" rx="60" ry="18"/>
<text text-anchor="middle" x="1114.51" y="-1010.3" font-family="Times,serif" font-size="14.00">zwatershed</text>
</g>
<!-- vigra&#45;&gt;zwatershed -->
<!-- cryptominisat -->
<g id="node27" class="node">
<title>cryptominisat</title>
<ellipse fill="#35b779" stroke="black" cx="1114.51" cy="-942" rx="74.19" ry="18"/>
<text text-anchor="middle" x="1114.51" y="-938.3" font-family="Times,serif" font-size="14.00">cryptominisat</text>
</g>
<!-- zwatershed&#45;&gt;cryptominisat -->
<!-- alps -->
<g id="node28" class="node">
<title>alps</title>
<ellipse fill="#35b779" stroke="black" cx="1114.51" cy="-870" rx="30.59" ry="18"/>
<text text-anchor="middle" x="1114.51" y="-866.3" font-family="Times,serif" font-size="14.00">alps</text>
</g>
<!-- cryptominisat&#45;&gt;alps -->
<!-- clblas -->
<g id="node33" class="node">
<title>clblas</title>
<ellipse fill="#35b779" stroke="black" cx="1114.51" cy="-798" rx="40.5" ry="18"/>
<text text-anchor="middle" x="1114.51" y="-794.3" font-family="Times,serif" font-size="14.00">clblas</text>
</g>
<!-- alps&#45;&gt;clblas -->
<!-- audi -->
<g id="node29" class="node">
<title>audi</title>
<g id="a_node29"><a xlink:href="https://github.com/conda-forge/audi-feedstock/pull/17" xlink:title="audi">
<ellipse fill="#31688e" stroke="black" cx="1334.51" cy="-502" rx="30.59" ry="18"/>
<text text-anchor="middle" x="1334.51" y="-498.3" font-family="Times,serif" font-size="14.00" fill="white">audi</text>
</a>
</g>
</g>
<!-- pyaudi -->
<g id="node30" class="node">
<title>pyaudi</title>
<ellipse fill="#fde725" stroke="black" cx="1300.51" cy="-430" rx="40.5" ry="18"/>
<text text-anchor="middle" x="1300.51" y="-426.3" font-family="Times,serif" font-size="14.00">pyaudi</text>
</g>
<!-- audi&#45;&gt;pyaudi -->
<g id="edge24" class="edge">
<title>audi&#45;&gt;pyaudi</title>
<path fill="none" stroke="black" d="M1326.45,-484.41C1322.49,-476.25 1317.61,-466.22 1313.17,-457.07"/>
<polygon fill="black" stroke="black" points="1316.26,-455.42 1308.74,-447.96 1309.96,-458.48 1316.26,-455.42"/>
</g>
<!-- dcgp&#45;python -->
<g id="node31" class="node">
<title>dcgp&#45;python</title>
<ellipse fill="#fde725" stroke="black" cx="1334.51" cy="-358" rx="64.5" ry="18"/>
<text text-anchor="middle" x="1334.51" y="-354.3" font-family="Times,serif" font-size="14.00">dcgp python</text>
</g>
<!-- audi&#45;&gt;dcgp&#45;python -->
<g id="edge25" class="edge">
<title>audi&#45;&gt;dcgp&#45;python</title>
<path fill="none" stroke="black" d="M1340.99,-484.1C1344.58,-473.84 1348.68,-460.36 1350.51,-448 1352.84,-432.17 1352.84,-427.83 1350.51,-412 1349.23,-403.35 1346.84,-394.15 1344.29,-385.89"/>
<polygon fill="black" stroke="black" points="1347.61,-384.78 1341.16,-376.37 1340.96,-386.96 1347.61,-384.78"/>
</g>
<!-- pyaudi&#45;&gt;dcgp&#45;python -->
<g id="edge26" class="edge">
<title>pyaudi&#45;&gt;dcgp&#45;python</title>
<path fill="none" stroke="black" d="M1308.74,-412.05C1312.61,-404.09 1317.31,-394.41 1321.63,-385.51"/>
<polygon fill="black" stroke="black" points="1324.9,-386.8 1326.12,-376.28 1318.6,-383.74 1324.9,-386.8"/>
</g>
<!-- thrift&#45;cpp -->
<g id="node32" class="node">
<title>thrift&#45;cpp</title>
<g id="a_node32"><a xlink:href="https://github.com/conda-forge/thrift-cpp-feedstock/pull/45" xlink:title="thrift cpp">
<ellipse fill="#31688e" stroke="black" cx="512.51" cy="-538" rx="60" ry="18"/>
<text text-anchor="middle" x="512.51" y="-534.3" font-family="Times,serif" font-size="14.00" fill="white">thrift cpp</text>
</a>
</g>
</g>
<!-- thrift&#45;cpp&#45;&gt;arrow&#45;cpp -->
<g id="edge27" class="edge">
<title>thrift&#45;cpp&#45;&gt;arrow&#45;cpp</title>
<path fill="none" stroke="black" d="M502.58,-520.05C497.75,-511.8 491.83,-501.7 486.46,-492.54"/>
<polygon fill="black" stroke="black" points="489.41,-490.65 481.34,-483.79 483.37,-494.19 489.41,-490.65"/>
</g>
<!-- thrift&#45;cpp&#45;&gt;omniscidb&#45;cpu -->
<g id="edge28" class="edge">
<title>thrift&#45;cpp&#45;&gt;omniscidb&#45;cpu</title>
<path fill="none" stroke="black" d="M520.38,-519.98C525.03,-509.67 530.89,-496.19 535.51,-484 543.31,-463.42 550.97,-439.71 556.46,-421.94"/>
<polygon fill="black" stroke="black" points="559.85,-422.82 559.42,-412.23 553.15,-420.77 559.85,-422.82"/>
</g>
<!-- clfft -->
<g id="node34" class="node">
<title>clfft</title>
<ellipse fill="#35b779" stroke="black" cx="1114.51" cy="-726" rx="35.19" ry="18"/>
<text text-anchor="middle" x="1114.51" y="-722.3" font-family="Times,serif" font-size="14.00">clfft</text>
</g>
<!-- clblas&#45;&gt;clfft -->
<!-- clsparse -->
<g id="node35" class="node">
<title>clsparse</title>
<ellipse fill="#35b779" stroke="black" cx="1114.51" cy="-654" rx="50.09" ry="18"/>
<text text-anchor="middle" x="1114.51" y="-650.3" font-family="Times,serif" font-size="14.00">clsparse</text>
</g>
<!-- clfft&#45;&gt;clsparse -->
<!-- spdlib -->
<g id="node36" class="node">
<title>spdlib</title>
<g id="a_node36"><a xlink:href="https://github.com/conda-forge/spdlib-feedstock/pull/12" xlink:title="spdlib">
<ellipse fill="#31688e" stroke="black" cx="1114.51" cy="-582" rx="40.5" ry="18"/>
<text text-anchor="middle" x="1114.51" y="-578.3" font-family="Times,serif" font-size="14.00" fill="white">spdlib</text>
</a>
</g>
</g>
<!-- clsparse&#45;&gt;spdlib -->
<!-- fmipp -->
<g id="node37" class="node">
<title>fmipp</title>
<ellipse fill="#35b779" stroke="black" cx="1114.51" cy="-2066" rx="35.19" ry="18"/>
<text text-anchor="middle" x="1114.51" y="-2062.3" font-family="Times,serif" font-size="14.00">fmipp</text>
</g>
<!-- pyodeint -->
<g id="node38" class="node">
<title>pyodeint</title>
<g id="a_node38"><a xlink:href="https://github.com/conda-forge/pyodeint-feedstock/pull/10" xlink:title="pyodeint">
<ellipse fill="#31688e" stroke="black" cx="1114.51" cy="-1994" rx="50.09" ry="18"/>
<text text-anchor="middle" x="1114.51" y="-1990.3" font-family="Times,serif" font-size="14.00" fill="white">pyodeint</text>
</a>
</g>
</g>
<!-- fmipp&#45;&gt;pyodeint -->
<!-- ovito -->
<g id="node39" class="node">
<title>ovito</title>
<g id="a_node39"><a xlink:href="https://github.com/conda-forge/ovito-feedstock/pull/24" xlink:title="ovito">
<ellipse fill="#31688e" stroke="black" cx="1114.51" cy="-1922" rx="35.19" ry="18"/>
<text text-anchor="middle" x="1114.51" y="-1918.3" font-family="Times,serif" font-size="14.00" fill="white">ovito</text>
</a>
</g>
</g>
<!-- pyodeint&#45;&gt;ovito -->
<!-- freecad -->
<g id="node40" class="node">
<title>freecad</title>
<g id="a_node40"><a xlink:href="https://github.com/conda-forge/freecad-feedstock/pull/36" xlink:title="freecad">
<ellipse fill="#31688e" stroke="black" cx="1114.51" cy="-1850" rx="45" ry="18"/>
<text text-anchor="middle" x="1114.51" y="-1846.3" font-family="Times,serif" font-size="14.00" fill="white">freecad</text>
</a>
</g>
</g>
<!-- ovito&#45;&gt;freecad -->
<!-- helics -->
<g id="node41" class="node">
<title>helics</title>
<g id="a_node41"><a xlink:href="https://github.com/conda-forge/helics-feedstock/pull/18" xlink:title="helics">
<ellipse fill="#31688e" stroke="black" cx="1114.51" cy="-1778" rx="40.5" ry="18"/>
<text text-anchor="middle" x="1114.51" y="-1774.3" font-family="Times,serif" font-size="14.00" fill="white">helics</text>
</a>
</g>
</g>
<!-- freecad&#45;&gt;helics -->
<!-- nds2&#45;client -->
<g id="node42" class="node">
<title>nds2&#45;client</title>
<g id="a_node42"><a xlink:href="https://github.com/conda-forge/nds2-client-feedstock/pull/10" xlink:title="nds2 client">
<ellipse fill="#31688e" stroke="black" cx="1114.51" cy="-1706" rx="64.5" ry="18"/>
<text text-anchor="middle" x="1114.51" y="-1702.3" font-family="Times,serif" font-size="14.00" fill="white">nds2 client</text>
</a>
</g>
</g>
<!-- helics&#45;&gt;nds2&#45;client -->
<!-- ldas&#45;tools&#45;framecpp -->
<g id="node43" class="node">
<title>ldas&#45;tools&#45;framecpp</title>
<g id="a_node43"><a xlink:href="https://github.com/conda-forge/ldas-tools-framecpp-feedstock/pull/14" xlink:title="ldas tools framecpp">
<ellipse fill="#31688e" stroke="black" cx="1114.51" cy="-1634" rx="103.5" ry="18"/>
<text text-anchor="middle" x="1114.51" y="-1630.3" font-family="Times,serif" font-size="14.00" fill="white">ldas tools framecpp</text>
</a>
</g>
</g>
<!-- nds2&#45;client&#45;&gt;ldas&#45;tools&#45;framecpp -->
<!-- gudhi -->
<g id="node44" class="node">
<title>gudhi</title>
<g id="a_node44"><a xlink:href="https://github.com/conda-forge/gudhi-feedstock/pull/17" xlink:title="gudhi">
<ellipse fill="#31688e" stroke="black" cx="1114.51" cy="-1562" rx="35.19" ry="18"/>
<text text-anchor="middle" x="1114.51" y="-1558.3" font-family="Times,serif" font-size="14.00" fill="white">gudhi</text>
</a>
</g>
</g>
<!-- ldas&#45;tools&#45;framecpp&#45;&gt;gudhi -->
<!-- reaktoro -->
<g id="node45" class="node">
<title>reaktoro</title>
<g id="a_node45"><a xlink:href="https://github.com/conda-forge/reaktoro-feedstock/pull/16" xlink:title="reaktoro">
<ellipse fill="#31688e" stroke="black" cx="1114.51" cy="-1490" rx="50.09" ry="18"/>
<text text-anchor="middle" x="1114.51" y="-1486.3" font-family="Times,serif" font-size="14.00" fill="white">reaktoro</text>
</a>
</g>
</g>
<!-- gudhi&#45;&gt;reaktoro -->
<!-- ldas&#45;tools&#45;diskcacheapi -->
<g id="node46" class="node">
<title>ldas&#45;tools&#45;diskcacheapi</title>
<ellipse fill="#fde725" stroke="black" cx="1114.51" cy="-1418" rx="123" ry="18"/>
<text text-anchor="middle" x="1114.51" y="-1414.3" font-family="Times,serif" font-size="14.00">ldas tools diskcacheapi</text>
</g>
<!-- reaktoro&#45;&gt;ldas&#45;tools&#45;diskcacheapi -->
<!-- libint -->
<g id="node47" class="node">
<title>libint</title>
<g id="a_node47"><a xlink:href="https://github.com/conda-forge/libint-feedstock/pull/6" xlink:title="libint">
<ellipse fill="#31688e" stroke="black" cx="1114.51" cy="-1346" rx="40.5" ry="18"/>
<text text-anchor="middle" x="1114.51" y="-1342.3" font-family="Times,serif" font-size="14.00" fill="white">libint</text>
</a>
</g>
</g>
<!-- ldas&#45;tools&#45;diskcacheapi&#45;&gt;libint -->
<!-- metview -->
<g id="node48" class="node">
<title>metview</title>
<ellipse fill="#fde725" stroke="black" cx="1329.51" cy="-170" rx="45" ry="18"/>
<text text-anchor="middle" x="1329.51" y="-166.3" font-family="Times,serif" font-size="14.00">metview</text>
</g>
<!-- desres&#45;msys -->
<g id="node49" class="node">
<title>desres&#45;msys</title>
<ellipse fill="#35b779" stroke="black" cx="1329.51" cy="-2066" rx="64.5" ry="18"/>
<text text-anchor="middle" x="1329.51" y="-2062.3" font-family="Times,serif" font-size="14.00">desres msys</text>
</g>
<!-- dealii -->
<g id="node50" class="node">
<title>dealii</title>
<ellipse fill="#35b779" stroke="black" cx="1329.51" cy="-1994" rx="40.5" ry="18"/>
<text text-anchor="middle" x="1329.51" y="-1990.3" font-family="Times,serif" font-size="14.00">dealii</text>
</g>
<!-- desres&#45;msys&#45;&gt;dealii -->
<!-- ambertools -->
<g id="node51" class="node">
<title>ambertools</title>
<g id="a_node51"><a xlink:href="https://github.com/conda-forge/ambertools-feedstock/pull/26" xlink:title="ambertools">
<ellipse fill="#31688e" stroke="black" cx="1329.51" cy="-1922" rx="60" ry="18"/>
<text text-anchor="middle" x="1329.51" y="-1918.3" font-family="Times,serif" font-size="14.00" fill="white">ambertools</text>
</a>
</g>
</g>
<!-- dealii&#45;&gt;ambertools -->
<!-- biorbd -->
<g id="node52" class="node">
<title>biorbd</title>
<g id="a_node52"><a xlink:href="https://github.com/conda-forge/biorbd-feedstock/pull/14" xlink:title="biorbd">
<ellipse fill="#31688e" stroke="black" cx="1329.51" cy="-1850" rx="40.5" ry="18"/>
<text text-anchor="middle" x="1329.51" y="-1846.3" font-family="Times,serif" font-size="14.00" fill="white">biorbd</text>
</a>
</g>
</g>
<!-- ambertools&#45;&gt;biorbd -->
<!-- ifcopenshell -->
<g id="node53" class="node">
<title>ifcopenshell</title>
<ellipse fill="#fde725" stroke="black" cx="1329.51" cy="-1778" rx="69.59" ry="18"/>
<text text-anchor="middle" x="1329.51" y="-1774.3" font-family="Times,serif" font-size="14.00">ifcopenshell</text>
</g>
<!-- biorbd&#45;&gt;ifcopenshell -->
<!-- esys&#45;escript -->
<g id="node55" class="node">
<title>esys&#45;escript</title>
<ellipse fill="#35b779" stroke="black" cx="1329.51" cy="-1706" rx="69.59" ry="18"/>
<text text-anchor="middle" x="1329.51" y="-1702.3" font-family="Times,serif" font-size="14.00">esys escript</text>
</g>
<!-- ifcopenshell&#45;&gt;esys&#45;escript -->
<!-- normaliz -->
<g id="node54" class="node">
<title>normaliz</title>
<g id="a_node54"><a xlink:href="https://github.com/conda-forge/normaliz-feedstock/pull/19" xlink:title="normaliz">
<ellipse fill="#31688e" stroke="black" cx="491.51" cy="-278" rx="50.09" ry="18"/>
<text text-anchor="middle" x="491.51" y="-274.3" font-family="Times,serif" font-size="14.00" fill="white">normaliz</text>
</a>
</g>
</g>
<!-- normaliz&#45;&gt;gap -->
<g id="edge47" class="edge">
<title>normaliz&#45;&gt;gap</title>
<path fill="none" stroke="black" d="M491.51,-259.7C491.51,-251.98 491.51,-242.71 491.51,-234.11"/>
<polygon fill="black" stroke="black" points="495.01,-234.1 491.51,-224.1 488.01,-234.1 495.01,-234.1"/>
</g>
<!-- ndarray -->
<g id="node56" class="node">
<title>ndarray</title>
<g id="a_node56"><a xlink:href="https://github.com/conda-forge/ndarray-feedstock/pull/4" xlink:title="ndarray">
<ellipse fill="#31688e" stroke="black" cx="1329.51" cy="-1634" rx="45" ry="18"/>
<text text-anchor="middle" x="1329.51" y="-1630.3" font-family="Times,serif" font-size="14.00" fill="white">ndarray</text>
</a>
</g>
</g>
<!-- esys&#45;escript&#45;&gt;ndarray -->
<!-- dakota -->
<g id="node57" class="node">
<title>dakota</title>
<ellipse fill="#35b779" stroke="black" cx="1329.51" cy="-1562" rx="40.5" ry="18"/>
<text text-anchor="middle" x="1329.51" y="-1558.3" font-family="Times,serif" font-size="14.00">dakota</text>
</g>
<!-- ndarray&#45;&gt;dakota -->
<!-- graph&#45;tool -->
<g id="node58" class="node">
<title>graph&#45;tool</title>
<g id="a_node58"><a xlink:href="https://github.com/conda-forge/graph-tool-feedstock/pull/9" xlink:title="graph tool">
<ellipse fill="#31688e" stroke="black" cx="1329.51" cy="-1490" rx="60" ry="18"/>
<text text-anchor="middle" x="1329.51" y="-1486.3" font-family="Times,serif" font-size="14.00" fill="white">graph tool</text>
</a>
</g>
</g>
<!-- dakota&#45;&gt;graph&#45;tool -->
<!-- topologytoolkit -->
<g id="node64" class="node">
<title>topologytoolkit</title>
<g id="a_node64"><a xlink:href="https://github.com/conda-forge/topologytoolkit-feedstock/pull/5" xlink:title="topologytoolkit">
<ellipse fill="#31688e" stroke="black" cx="1329.51" cy="-1418" rx="84" ry="18"/>
<text text-anchor="middle" x="1329.51" y="-1414.3" font-family="Times,serif" font-size="14.00" fill="white">topologytoolkit</text>
</a>
</g>
</g>
<!-- graph&#45;tool&#45;&gt;topologytoolkit -->
<!-- hpp&#45;fcl -->
<g id="node59" class="node">
<title>hpp&#45;fcl</title>
<g id="a_node59"><a xlink:href="https://github.com/conda-forge/hpp-fcl-feedstock/pull/11" xlink:title="hpp fcl">
<ellipse fill="#31688e" stroke="black" cx="1114.51" cy="-90" rx="45" ry="18"/>
<text text-anchor="middle" x="1114.51" y="-86.3" font-family="Times,serif" font-size="14.00" fill="white">hpp fcl</text>
</a>
</g>
</g>
<!-- pinocchio -->
<g id="node60" class="node">
<title>pinocchio</title>
<ellipse fill="#fde725" stroke="black" cx="1114.51" cy="-18" rx="54.69" ry="18"/>
<text text-anchor="middle" x="1114.51" y="-14.3" font-family="Times,serif" font-size="14.00">pinocchio</text>
</g>
<!-- hpp&#45;fcl&#45;&gt;pinocchio -->
<g id="edge52" class="edge">
<title>hpp&#45;fcl&#45;&gt;pinocchio</title>
<path fill="none" stroke="black" d="M1114.51,-71.7C1114.51,-63.98 1114.51,-54.71 1114.51,-46.11"/>
<polygon fill="black" stroke="black" points="1118.01,-46.1 1114.51,-36.1 1111.01,-46.1 1118.01,-46.1"/>
</g>
<!-- xmsinterp -->
<g id="node61" class="node">
<title>xmsinterp</title>
<g id="a_node61"><a xlink:href="https://github.com/conda-forge/xmsinterp-feedstock/pull/6" xlink:title="xmsinterp">
<ellipse fill="#31688e" stroke="black" cx="1117.51" cy="-502" rx="54.69" ry="18"/>
<text text-anchor="middle" x="1117.51" y="-498.3" font-family="Times,serif" font-size="14.00" fill="white">xmsinterp</text>
</a>
</g>
</g>
<!-- xmsstamper -->
<g id="node62" class="node">
<title>xmsstamper</title>
<ellipse fill="#fde725" stroke="black" cx="1073.51" cy="-430" rx="60" ry="18"/>
<text text-anchor="middle" x="1073.51" y="-426.3" font-family="Times,serif" font-size="14.00">xmsstamper</text>
</g>
<!-- xmsinterp&#45;&gt;xmsstamper -->
<g id="edge53" class="edge">
<title>xmsinterp&#45;&gt;xmsstamper</title>
<path fill="none" stroke="black" d="M1106.86,-484.05C1101.67,-475.8 1095.32,-465.7 1089.56,-456.54"/>
<polygon fill="black" stroke="black" points="1092.35,-454.39 1084.06,-447.79 1086.42,-458.12 1092.35,-454.39"/>
</g>
<!-- xmsmesher -->
<g id="node63" class="node">
<title>xmsmesher</title>
<ellipse fill="#fde725" stroke="black" cx="1161.51" cy="-358" rx="54.69" ry="18"/>
<text text-anchor="middle" x="1161.51" y="-354.3" font-family="Times,serif" font-size="14.00">xmsmesher</text>
</g>
<!-- xmsinterp&#45;&gt;xmsmesher -->
<g id="edge54" class="edge">
<title>xmsinterp&#45;&gt;xmsmesher</title>
<path fill="none" stroke="black" d="M1126.64,-484.23C1131.9,-474 1138.28,-460.53 1142.51,-448 1149.36,-427.7 1154.28,-403.93 1157.4,-386.06"/>
<polygon fill="black" stroke="black" points="1160.88,-386.48 1159.07,-376.04 1153.97,-385.33 1160.88,-386.48"/>
</g>
<!-- ledger -->
<g id="node65" class="node">
<title>ledger</title>
<g id="a_node65"><a xlink:href="https://github.com/conda-forge/ledger-feedstock/pull/2" xlink:title="ledger">
<ellipse fill="#31688e" stroke="black" cx="1329.51" cy="-1346" rx="40.5" ry="18"/>
<text text-anchor="middle" x="1329.51" y="-1342.3" font-family="Times,serif" font-size="14.00" fill="white">ledger</text>
</a>
</g>
</g>
<!-- topologytoolkit&#45;&gt;ledger -->
<!-- pyinterp -->
<g id="node66" class="node">
<title>pyinterp</title>
<g id="a_node66"><a xlink:href="https://github.com/conda-forge/pyinterp-feedstock/pull/16" xlink:title="pyinterp">
<ellipse fill="#31688e" stroke="black" cx="491.51" cy="-1302" rx="50.09" ry="18"/>
<text text-anchor="middle" x="491.51" y="-1298.3" font-family="Times,serif" font-size="14.00" fill="white">pyinterp</text>
</a>
</g>
</g>
<!-- zmesh -->
<g id="node67" class="node">
<title>zmesh</title>
<g id="a_node67"><a xlink:href="https://github.com/conda-forge/zmesh-feedstock/pull/2" xlink:title="zmesh">
<ellipse fill="#31688e" stroke="black" cx="491.51" cy="-1230" rx="35.19" ry="18"/>
<text text-anchor="middle" x="491.51" y="-1226.3" font-family="Times,serif" font-size="14.00" fill="white">zmesh</text>
</a>
</g>
</g>
<!-- pyinterp&#45;&gt;zmesh -->
<!-- atomicrex -->
<g id="node68" class="node">
<title>atomicrex</title>
<ellipse fill="#35b779" stroke="black" cx="491.51" cy="-1158" rx="54.69" ry="18"/>
<text text-anchor="middle" x="491.51" y="-1154.3" font-family="Times,serif" font-size="14.00">atomicrex</text>
</g>
<!-- zmesh&#45;&gt;atomicrex -->
<!-- gazebo -->
<g id="node69" class="node">
<title>gazebo</title>
<ellipse fill="#fde725" stroke="black" cx="491.51" cy="-1086" rx="40.5" ry="18"/>
<text text-anchor="middle" x="491.51" y="-1082.3" font-family="Times,serif" font-size="14.00">gazebo</text>
</g>
<!-- atomicrex&#45;&gt;gazebo -->
<!-- gnuradio -->
<g id="node79" class="node">
<title>gnuradio</title>
<ellipse fill="#fde725" stroke="black" cx="491.51" cy="-1014" rx="50.09" ry="18"/>
<text text-anchor="middle" x="491.51" y="-1010.3" font-family="Times,serif" font-size="14.00">gnuradio</text>
</g>
<!-- gazebo&#45;&gt;gnuradio -->
<!-- ros&#45;rostime -->
<g id="node70" class="node">
<title>ros&#45;rostime</title>
<ellipse fill="#fde725" stroke="black" cx="715.51" cy="-1850" rx="64.5" ry="18"/>
<text text-anchor="middle" x="715.51" y="-1846.3" font-family="Times,serif" font-size="14.00">ros rostime</text>
</g>
<!-- ros&#45;rosconsole -->
<g id="node71" class="node">
<title>ros&#45;rosconsole</title>
<ellipse fill="#fde725" stroke="black" cx="296.51" cy="-1778" rx="79.5" ry="18"/>
<text text-anchor="middle" x="296.51" y="-1774.3" font-family="Times,serif" font-size="14.00">ros rosconsole</text>
</g>
<!-- ros&#45;rostime&#45;&gt;ros&#45;rosconsole -->
<g id="edge60" class="edge">
<title>ros&#45;rostime&#45;&gt;ros&#45;rosconsole</title>
<path fill="none" stroke="black" d="M661.59,-1839.99C586.83,-1827.5 451.51,-1804.89 368.27,-1790.99"/>
<polygon fill="black" stroke="black" points="368.83,-1787.53 358.39,-1789.34 367.67,-1794.44 368.83,-1787.53"/>
</g>
<!-- ros&#45;rosbag&#45;storage -->
<g id="node72" class="node">
<title>ros&#45;rosbag&#45;storage</title>
<ellipse fill="#fde725" stroke="black" cx="554.51" cy="-1634" rx="99" ry="18"/>
<text text-anchor="middle" x="554.51" y="-1630.3" font-family="Times,serif" font-size="14.00">ros rosbag storage</text>
</g>
<!-- ros&#45;rostime&#45;&gt;ros&#45;rosbag&#45;storage -->
<g id="edge61" class="edge">
<title>ros&#45;rostime&#45;&gt;ros&#45;rosbag&#45;storage</title>
<path fill="none" stroke="black" d="M758.55,-1836.53C835.51,-1812.18 983.45,-1754.81 925.51,-1688 892.11,-1649.49 760.58,-1638.27 663.58,-1635.35"/>
<polygon fill="black" stroke="black" points="663.51,-1631.85 653.42,-1635.07 663.32,-1638.85 663.51,-1631.85"/>
</g>
<!-- ros&#45;rosbag -->
<g id="node73" class="node">
<title>ros&#45;rosbag</title>
<ellipse fill="#fde725" stroke="black" cx="554.51" cy="-1562" rx="60" ry="18"/>
<text text-anchor="middle" x="554.51" y="-1558.3" font-family="Times,serif" font-size="14.00">ros rosbag</text>
</g>
<!-- ros&#45;rostime&#45;&gt;ros&#45;rosbag -->
<g id="edge62" class="edge">
<title>ros&#45;rostime&#45;&gt;ros&#45;rosbag</title>
<path fill="none" stroke="black" d="M776.23,-1843.66C815.89,-1837.52 866.9,-1824.33 903.51,-1796 944.23,-1764.47 975.88,-1729.59 945.51,-1688 906.15,-1634.09 715.05,-1592.15 615.34,-1573.52"/>
<polygon fill="black" stroke="black" points="615.87,-1570.06 605.4,-1571.69 614.6,-1576.95 615.87,-1570.06"/>
</g>
<!-- ros&#45;actionlib -->
<g id="node74" class="node">
<title>ros&#45;actionlib</title>
<ellipse fill="#fde725" stroke="black" cx="335.51" cy="-1706" rx="74.19" ry="18"/>
<text text-anchor="middle" x="335.51" y="-1702.3" font-family="Times,serif" font-size="14.00">ros actionlib</text>
</g>
<!-- ros&#45;rostime&#45;&gt;ros&#45;actionlib -->
<g id="edge63" class="edge">
<title>ros&#45;rostime&#45;&gt;ros&#45;actionlib</title>
<path fill="none" stroke="black" d="M661.18,-1840.04C616.1,-1831.63 550.82,-1817.14 496.51,-1796 449.91,-1777.86 400.1,-1748.63 368.43,-1728.65"/>
<polygon fill="black" stroke="black" points="369.91,-1725.44 359.6,-1723.02 366.15,-1731.35 369.91,-1725.44"/>
</g>
<!-- ros&#45;rosconsole&#45;&gt;ros&#45;rosbag&#45;storage -->
<g id="edge64" class="edge">
<title>ros&#45;rosconsole&#45;&gt;ros&#45;rosbag&#45;storage</title>
<path fill="none" stroke="black" d="M277.54,-1760.2C258.36,-1741.2 234,-1710.04 252.51,-1688 277.45,-1658.3 371.83,-1645.24 448.53,-1639.5"/>
<polygon fill="black" stroke="black" points="449.02,-1642.97 458.75,-1638.77 448.52,-1635.99 449.02,-1642.97"/>
</g>
<!-- ros&#45;rosconsole&#45;&gt;ros&#45;rosbag -->
<g id="edge65" class="edge">
<title>ros&#45;rosconsole&#45;&gt;ros&#45;rosbag</title>
<path fill="none" stroke="black" d="M218.26,-1774.55C128.63,-1768.83 0,-1749.95 48.51,-1688 102.43,-1619.14 363.45,-1583 488.05,-1569.43"/>
<polygon fill="black" stroke="black" points="488.66,-1572.88 498.23,-1568.34 487.91,-1565.92 488.66,-1572.88"/>
</g>
<!-- ros&#45;rosconsole&#45;&gt;ros&#45;actionlib -->
<g id="edge66" class="edge">
<title>ros&#45;rosconsole&#45;&gt;ros&#45;actionlib</title>
<path fill="none" stroke="black" d="M305.95,-1760.05C310.43,-1752.01 315.89,-1742.2 320.9,-1733.23"/>
<polygon fill="black" stroke="black" points="324.07,-1734.71 325.88,-1724.28 317.96,-1731.31 324.07,-1734.71"/>
</g>
<!-- ros&#45;pluginlib -->
<g id="node75" class="node">
<title>ros&#45;pluginlib</title>
<ellipse fill="#fde725" stroke="black" cx="131.51" cy="-1706" rx="74.19" ry="18"/>
<text text-anchor="middle" x="131.51" y="-1702.3" font-family="Times,serif" font-size="14.00">ros pluginlib</text>
</g>
<!-- ros&#45;rosconsole&#45;&gt;ros&#45;pluginlib -->
<g id="edge67" class="edge">
<title>ros&#45;rosconsole&#45;&gt;ros&#45;pluginlib</title>
<path fill="none" stroke="black" d="M260.7,-1761.81C235.89,-1751.28 202.66,-1737.19 176.12,-1725.93"/>
<polygon fill="black" stroke="black" points="177.25,-1722.6 166.67,-1721.92 174.51,-1729.05 177.25,-1722.6"/>
</g>
<!-- ros&#45;message&#45;filters -->
<g id="node76" class="node">
<title>ros&#45;message&#45;filters</title>
<ellipse fill="#fde725" stroke="black" cx="531.51" cy="-1706" rx="103.5" ry="18"/>
<text text-anchor="middle" x="531.51" y="-1702.3" font-family="Times,serif" font-size="14.00">ros message filters</text>
</g>
<!-- ros&#45;rosconsole&#45;&gt;ros&#45;message&#45;filters -->
<g id="edge68" class="edge">
<title>ros&#45;rosconsole&#45;&gt;ros&#45;message&#45;filters</title>
<path fill="none" stroke="black" d="M342.66,-1763.25C379.7,-1752.22 431.98,-1736.65 472.14,-1724.68"/>
<polygon fill="black" stroke="black" points="473.23,-1728.01 481.81,-1721.8 471.23,-1721.3 473.23,-1728.01"/>
</g>
<!-- ros&#45;rosbag&#45;storage&#45;&gt;ros&#45;rosbag -->
<g id="edge69" class="edge">
<title>ros&#45;rosbag&#45;storage&#45;&gt;ros&#45;rosbag</title>
<path fill="none" stroke="black" d="M554.51,-1615.7C554.51,-1607.98 554.51,-1598.71 554.51,-1590.11"/>
<polygon fill="black" stroke="black" points="558.01,-1590.1 554.51,-1580.1 551.01,-1590.1 558.01,-1590.1"/>
</g>
<!-- ros&#45;pluginlib&#45;&gt;ros&#45;rosbag&#45;storage -->
<g id="edge70" class="edge">
<title>ros&#45;pluginlib&#45;&gt;ros&#45;rosbag&#45;storage</title>
<path fill="none" stroke="black" d="M186.85,-1694.01C197.67,-1691.95 208.93,-1689.86 219.51,-1688 304.73,-1673.03 402.51,-1657.78 470.33,-1647.51"/>
<polygon fill="black" stroke="black" points="471.17,-1650.92 480.54,-1645.97 470.13,-1644 471.17,-1650.92"/>
</g>
<!-- ros&#45;rostest -->
<g id="node77" class="node">
<title>ros&#45;rostest</title>
<g id="a_node77"><a xlink:href="https://github.com/conda-forge/ros-rostest-feedstock/pull/3" xlink:title="ros rostest">
<ellipse fill="#31688e" stroke="black" cx="569.51" cy="-1778" rx="64.5" ry="18"/>
<text text-anchor="middle" x="569.51" y="-1774.3" font-family="Times,serif" font-size="14.00" fill="white">ros rostest</text>
</a>
</g>
</g>
<!-- ros&#45;rostest&#45;&gt;ros&#45;rosbag&#45;storage -->
<g id="edge71" class="edge">
<title>ros&#45;rostest&#45;&gt;ros&#45;rosbag&#45;storage</title>
<path fill="none" stroke="black" d="M634.03,-1776.48C722.34,-1774.25 873.89,-1764.45 908.51,-1724 918.91,-1711.84 918.95,-1700.12 908.51,-1688 877.28,-1651.75 755.55,-1639.93 663.49,-1636.27"/>
<polygon fill="black" stroke="black" points="663.39,-1632.77 653.26,-1635.89 663.13,-1639.76 663.39,-1632.77"/>
</g>
<!-- ros&#45;rostest&#45;&gt;ros&#45;actionlib -->
<g id="edge72" class="edge">
<title>ros&#45;rostest&#45;&gt;ros&#45;actionlib</title>
<path fill="none" stroke="black" d="M527.13,-1764.32C488.72,-1752.83 431.9,-1735.84 390.1,-1723.33"/>
<polygon fill="black" stroke="black" points="390.94,-1719.93 380.36,-1720.42 388.93,-1726.64 390.94,-1719.93"/>
</g>
<!-- ros&#45;rostest&#45;&gt;ros&#45;message&#45;filters -->
<g id="edge73" class="edge">
<title>ros&#45;rostest&#45;&gt;ros&#45;message&#45;filters</title>
<path fill="none" stroke="black" d="M560.31,-1760.05C555.94,-1752.01 550.62,-1742.2 545.74,-1733.23"/>
<polygon fill="black" stroke="black" points="548.73,-1731.39 540.89,-1724.28 542.58,-1734.73 548.73,-1731.39"/>
</g>
<!-- ros&#45;dynamic&#45;reconfigure -->
<g id="node78" class="node">
<title>ros&#45;dynamic&#45;reconfigure</title>
<ellipse fill="#fde725" stroke="black" cx="776.51" cy="-1706" rx="123" ry="18"/>
<text text-anchor="middle" x="776.51" y="-1702.3" font-family="Times,serif" font-size="14.00">ros dynamic reconfigure</text>
</g>
<!-- ros&#45;rostest&#45;&gt;ros&#45;dynamic&#45;reconfigure -->
<g id="edge74" class="edge">
<title>ros&#45;rostest&#45;&gt;ros&#45;dynamic&#45;reconfigure</title>
<path fill="none" stroke="black" d="M608.93,-1763.67C640.45,-1753.01 685.05,-1737.93 720.31,-1726"/>
<polygon fill="black" stroke="black" points="721.64,-1729.25 729.99,-1722.73 719.4,-1722.62 721.64,-1729.25"/>
</g>
<!-- fastpca -->
<g id="node80" class="node">
<title>fastpca</title>
<ellipse fill="#35b779" stroke="black" cx="491.51" cy="-942" rx="45" ry="18"/>
<text text-anchor="middle" x="491.51" y="-938.3" font-family="Times,serif" font-size="14.00">fastpca</text>
</g>
<!-- gnuradio&#45;&gt;fastpca -->
<!-- ecflow -->
<g id="node81" class="node">
<title>ecflow</title>
<ellipse fill="#35b779" stroke="black" cx="491.51" cy="-870" rx="40.5" ry="18"/>
<text text-anchor="middle" x="491.51" y="-866.3" font-family="Times,serif" font-size="14.00">ecflow</text>
</g>
<!-- fastpca&#45;&gt;ecflow -->
<!-- prismatic_split -->
<g id="node83" class="node">
<title>prismatic_split</title>
<g id="a_node83"><a xlink:href="https://github.com/conda-forge/prismatic_split-feedstock/pull/4" xlink:title="prismatic_split">
<ellipse fill="#31688e" stroke="black" cx="491.51" cy="-798" rx="84" ry="18"/>
<text text-anchor="middle" x="491.51" y="-794.3" font-family="Times,serif" font-size="14.00" fill="white">prismatic_split</text>
</a>
</g>
</g>
<!-- ecflow&#45;&gt;prismatic_split -->
<!-- magics&#45;metview -->
<g id="node82" class="node">
<title>magics&#45;metview</title>
<g id="a_node82"><a xlink:href="https://github.com/conda-forge/magics-metview-feedstock/pull/7" xlink:title="magics metview">
<ellipse fill="#31688e" stroke="black" cx="1329.51" cy="-242" rx="79.5" ry="18"/>
<text text-anchor="middle" x="1329.51" y="-238.3" font-family="Times,serif" font-size="14.00" fill="white">magics metview</text>
</a>
</g>
</g>
<!-- magics&#45;metview&#45;&gt;metview -->
<g id="edge78" class="edge">
<title>magics&#45;metview&#45;&gt;metview</title>
<path fill="none" stroke="black" d="M1329.51,-223.7C1329.51,-215.98 1329.51,-206.71 1329.51,-198.11"/>
<polygon fill="black" stroke="black" points="1333.01,-198.1 1329.51,-188.1 1326.01,-198.1 1333.01,-198.1"/>
</g>
<!-- ecell4_base -->
<g id="node84" class="node">
<title>ecell4_base</title>
<g id="a_node84"><a xlink:href="https://github.com/conda-forge/ecell4_base-feedstock/pull/4" xlink:title="ecell4_base">
<ellipse fill="#31688e" stroke="black" cx="491.51" cy="-726" rx="64.5" ry="18"/>
<text text-anchor="middle" x="491.51" y="-722.3" font-family="Times,serif" font-size="14.00" fill="white">ecell4_base</text>
</a>
</g>
</g>
<!-- prismatic_split&#45;&gt;ecell4_base -->
<!-- odil -->
<g id="node85" class="node">
<title>odil</title>
<g id="a_node85"><a xlink:href="https://github.com/conda-forge/odil-feedstock/pull/3" xlink:title="odil">
<ellipse fill="#31688e" stroke="black" cx="491.51" cy="-654" rx="30.59" ry="18"/>
<text text-anchor="middle" x="491.51" y="-650.3" font-family="Times,serif" font-size="14.00" fill="white">odil</text>
</a>
</g>
</g>
<!-- ecell4_base&#45;&gt;odil -->
<!-- metview&#45;batch -->
<g id="node86" class="node">
<title>metview&#45;batch</title>
<g id="a_node86"><a xlink:href="https://github.com/conda-forge/metview-batch-feedstock/pull/1" xlink:title="metview batch">
<ellipse fill="#31688e" stroke="black" cx="491.51" cy="-582" rx="74.19" ry="18"/>
<text text-anchor="middle" x="491.51" y="-578.3" font-family="Times,serif" font-size="14.00" fill="white">metview batch</text>
</a>
</g>
</g>
<!-- odil&#45;&gt;metview&#45;batch -->
<!-- alm -->
<g id="node87" class="node">
<title>alm</title>
<ellipse fill="#35b779" stroke="black" cx="1329.51" cy="-54" rx="27" ry="18"/>
<text text-anchor="middle" x="1329.51" y="-50.3" font-family="Times,serif" font-size="14.00">alm</text>
</g>
</g>
</svg>
