<?xml version="1.0" encoding="UTF-8" standalone="no"?>
<!DOCTYPE svg PUBLIC "-//W3C//DTD SVG 1.1//EN"
 "http://www.w3.org/Graphics/SVG/1.1/DTD/svg11.dtd">
<!-- Generated by graphviz version 2.42.3 (20191010.1750)
 -->
<!-- Title: %3 Pages: 1 -->
<svg width="2235pt" height="764pt"
 viewBox="0.00 0.00 2234.87 764.00" xmlns="http://www.w3.org/2000/svg" xmlns:xlink="http://www.w3.org/1999/xlink">
<g id="graph0" class="graph" transform="scale(1 1) rotate(0) translate(4 760)">
<title>%3</title>
<polygon fill="white" stroke="transparent" points="-4,4 -4,-760 2230.87,-760 2230.87,4 -4,4"/>
<!-- cyclus -->
<g id="node1" class="node">
<title>cyclus</title>
<g id="a_node1"><a xlink:href="https://github.com/conda-forge/cyclus-feedstock/pull/54" xlink:title="cyclus">
<ellipse fill="#31688e" stroke="black" cx="64.5" cy="-738" rx="40.5" ry="18"/>
<text text-anchor="middle" x="64.5" y="-734.3" font-family="Times,serif" font-size="14.00" fill="white">cyclus</text>
</a>
</g>
</g>
<!-- dionysus -->
<g id="node2" class="node">
<title>dionysus</title>
<g id="a_node2"><a xlink:href="https://github.com/conda-forge/dionysus-feedstock/pull/7" xlink:title="dionysus">
<ellipse fill="#31688e" stroke="black" cx="64.5" cy="-666" rx="50.09" ry="18"/>
<text text-anchor="middle" x="64.5" y="-662.3" font-family="Times,serif" font-size="14.00" fill="white">dionysus</text>
</a>
</g>
</g>
<!-- cyclus&#45;&gt;dionysus -->
<!-- libradolan -->
<g id="node3" class="node">
<title>libradolan</title>
<g id="a_node3"><a xlink:href="https://github.com/conda-forge/libradolan-feedstock/pull/22" xlink:title="libradolan">
<ellipse fill="#31688e" stroke="black" cx="64.5" cy="-594" rx="60" ry="18"/>
<text text-anchor="middle" x="64.5" y="-590.3" font-family="Times,serif" font-size="14.00" fill="white">libradolan</text>
</a>
</g>
</g>
<!-- dionysus&#45;&gt;libradolan -->
<!-- msgpack&#45;c -->
<g id="node8" class="node">
<title>msgpack&#45;c</title>
<g id="a_node8"><a xlink:href="https://github.com/conda-forge/msgpack-c-feedstock/pull/17" xlink:title="msgpack c">
<ellipse fill="#31688e" stroke="black" cx="64.5" cy="-522" rx="54.69" ry="18"/>
<text text-anchor="middle" x="64.5" y="-518.3" font-family="Times,serif" font-size="14.00" fill="white">msgpack c</text>
</a>
</g>
</g>
<!-- libradolan&#45;&gt;msgpack&#45;c -->
<!-- fenics -->
<g id="node4" class="node">
<title>fenics</title>
<g id="a_node4"><a xlink:href="https://github.com/conda-forge/fenics-feedstock/pull/106" xlink:title="fenics">
<ellipse fill="#31688e" stroke="black" cx="163.5" cy="-738" rx="40.5" ry="18"/>
<text text-anchor="middle" x="163.5" y="-734.3" font-family="Times,serif" font-size="14.00" fill="white">fenics</text>
</a>
</g>
</g>
<!-- mshr -->
<g id="node5" class="node">
<title>mshr</title>
<ellipse fill="#fde725" stroke="black" cx="163.5" cy="-666" rx="30.59" ry="18"/>
<text text-anchor="middle" x="163.5" y="-662.3" font-family="Times,serif" font-size="14.00">mshr</text>
</g>
<!-- fenics&#45;&gt;mshr -->
<g id="edge3" class="edge">
<title>fenics&#45;&gt;mshr</title>
<path fill="none" stroke="black" d="M163.5,-719.7C163.5,-711.98 163.5,-702.71 163.5,-694.11"/>
<polygon fill="black" stroke="black" points="167,-694.1 163.5,-684.1 160,-694.1 167,-694.1"/>
</g>
<!-- gap -->
<g id="node6" class="node">
<title>gap</title>
<ellipse fill="#fde725" stroke="black" cx="272.5" cy="-666" rx="27" ry="18"/>
<text text-anchor="middle" x="272.5" y="-662.3" font-family="Times,serif" font-size="14.00">gap</text>
</g>
<!-- sagelib -->
<g id="node7" class="node">
<title>sagelib</title>
<ellipse fill="#fde725" stroke="black" cx="272.5" cy="-594" rx="45" ry="18"/>
<text text-anchor="middle" x="272.5" y="-590.3" font-family="Times,serif" font-size="14.00">sagelib</text>
</g>
<!-- gap&#45;&gt;sagelib -->
<g id="edge4" class="edge">
<title>gap&#45;&gt;sagelib</title>
<path fill="none" stroke="black" d="M272.5,-647.7C272.5,-639.98 272.5,-630.71 272.5,-622.11"/>
<polygon fill="black" stroke="black" points="276,-622.1 272.5,-612.1 269,-622.1 276,-622.1"/>
</g>
<!-- openturns -->
<g id="node9" class="node">
<title>openturns</title>
<g id="a_node9"><a xlink:href="https://github.com/conda-forge/openturns-feedstock/pull/99" xlink:title="openturns">
<ellipse fill="#31688e" stroke="black" cx="64.5" cy="-450" rx="54.69" ry="18"/>
<text text-anchor="middle" x="64.5" y="-446.3" font-family="Times,serif" font-size="14.00" fill="white">openturns</text>
</a>
</g>
</g>
<!-- msgpack&#45;c&#45;&gt;openturns -->
<!-- pykep -->
<g id="node10" class="node">
<title>pykep</title>
<g id="a_node10"><a xlink:href="https://github.com/conda-forge/pykep-feedstock/pull/10" xlink:title="pykep">
<ellipse fill="#31688e" stroke="black" cx="64.5" cy="-378" rx="35.19" ry="18"/>
<text text-anchor="middle" x="64.5" y="-374.3" font-family="Times,serif" font-size="14.00" fill="white">pykep</text>
</a>
</g>
</g>
<!-- openturns&#45;&gt;pykep -->
<!-- pyne -->
<g id="node15" class="node">
<title>pyne</title>
<g id="a_node15"><a xlink:href="https://github.com/conda-forge/pyne-feedstock/pull/38" xlink:title="pyne">
<ellipse fill="#31688e" stroke="black" cx="64.5" cy="-306" rx="30.59" ry="18"/>
<text text-anchor="middle" x="64.5" y="-302.3" font-family="Times,serif" font-size="14.00" fill="white">pyne</text>
</a>
</g>
</g>
<!-- pykep&#45;&gt;pyne -->
<!-- pyarrow -->
<g id="node11" class="node">
<title>pyarrow</title>
<g id="a_node11"><a xlink:href="https://github.com/conda-forge/pyarrow-feedstock/pull/100" xlink:title="pyarrow">
<ellipse fill="#31688e" stroke="black" cx="385.5" cy="-738" rx="45" ry="18"/>
<text text-anchor="middle" x="385.5" y="-734.3" font-family="Times,serif" font-size="14.00" fill="white">pyarrow</text>
</a>
</g>
</g>
<!-- turbodbc -->
<g id="node12" class="node">
<title>turbodbc</title>
<ellipse fill="#fde725" stroke="black" cx="385.5" cy="-666" rx="50.09" ry="18"/>
<text text-anchor="middle" x="385.5" y="-662.3" font-family="Times,serif" font-size="14.00">turbodbc</text>
</g>
<!-- pyarrow&#45;&gt;turbodbc -->
<g id="edge8" class="edge">
<title>pyarrow&#45;&gt;turbodbc</title>
<path fill="none" stroke="black" d="M385.5,-719.7C385.5,-711.98 385.5,-702.71 385.5,-694.11"/>
<polygon fill="black" stroke="black" points="389,-694.1 385.5,-684.1 382,-694.1 389,-694.1"/>
</g>
<!-- pygmo -->
<g id="node13" class="node">
<title>pygmo</title>
<g id="a_node13"><a xlink:href="https://github.com/conda-forge/pygmo-feedstock/pull/44" xlink:title="pygmo">
<ellipse fill="#31688e" stroke="black" cx="488.5" cy="-666" rx="35.19" ry="18"/>
<text text-anchor="middle" x="488.5" y="-662.3" font-family="Times,serif" font-size="14.00" fill="white">pygmo</text>
</a>
</g>
</g>
<!-- dcgp&#45;python -->
<g id="node14" class="node">
<title>dcgp&#45;python</title>
<ellipse fill="#fde725" stroke="black" cx="514.5" cy="-594" rx="64.5" ry="18"/>
<text text-anchor="middle" x="514.5" y="-590.3" font-family="Times,serif" font-size="14.00">dcgp python</text>
</g>
<!-- pygmo&#45;&gt;dcgp&#45;python -->
<g id="edge9" class="edge">
<title>pygmo&#45;&gt;dcgp&#45;python</title>
<path fill="none" stroke="black" d="M494.79,-648.05C497.72,-640.18 501.27,-630.62 504.55,-621.79"/>
<polygon fill="black" stroke="black" points="507.88,-622.87 508.08,-612.28 501.32,-620.43 507.88,-622.87"/>
</g>
<!-- rank_filter -->
<g id="node16" class="node">
<title>rank_filter</title>
<g id="a_node16"><a xlink:href="https://github.com/conda-forge/rank_filter-feedstock/pull/43" xlink:title="rank_filter">
<ellipse fill="#31688e" stroke="black" cx="64.5" cy="-234" rx="64.5" ry="18"/>
<text text-anchor="middle" x="64.5" y="-230.3" font-family="Times,serif" font-size="14.00" fill="white">rank_filter</text>
</a>
</g>
</g>
<!-- pyne&#45;&gt;rank_filter -->
<!-- rsgislib -->
<g id="node17" class="node">
<title>rsgislib</title>
<g id="a_node17"><a xlink:href="https://github.com/conda-forge/rsgislib-feedstock/pull/28" xlink:title="rsgislib">
<ellipse fill="#31688e" stroke="black" cx="64.5" cy="-162" rx="50.09" ry="18"/>
<text text-anchor="middle" x="64.5" y="-158.3" font-family="Times,serif" font-size="14.00" fill="white">rsgislib</text>
</a>
</g>
</g>
<!-- rank_filter&#45;&gt;rsgislib -->
<!-- clblas -->
<g id="node18" class="node">
<title>clblas</title>
<g id="a_node18"><a xlink:href="https://github.com/conda-forge/clblas-feedstock/pull/9" xlink:title="clblas">
<ellipse fill="#31688e" stroke="black" cx="64.5" cy="-90" rx="40.5" ry="18"/>
<text text-anchor="middle" x="64.5" y="-86.3" font-family="Times,serif" font-size="14.00" fill="white">clblas</text>
</a>
</g>
</g>
<!-- rsgislib&#45;&gt;clblas -->
<!-- clfft -->
<g id="node20" class="node">
<title>clfft</title>
<g id="a_node20"><a xlink:href="https://github.com/conda-forge/clfft-feedstock/pull/9" xlink:title="clfft">
<ellipse fill="#31688e" stroke="black" cx="64.5" cy="-18" rx="35.19" ry="18"/>
<text text-anchor="middle" x="64.5" y="-14.3" font-family="Times,serif" font-size="14.00" fill="white">clfft</text>
</a>
</g>
</g>
<!-- clblas&#45;&gt;clfft -->
<!-- audi -->
<g id="node19" class="node">
<title>audi</title>
<g id="a_node19"><a xlink:href="https://github.com/conda-forge/audi-feedstock/pull/16" xlink:title="audi">
<ellipse fill="#31688e" stroke="black" cx="551.5" cy="-738" rx="30.59" ry="18"/>
<text text-anchor="middle" x="551.5" y="-734.3" font-family="Times,serif" font-size="14.00" fill="white">audi</text>
</a>
</g>
</g>
<!-- audi&#45;&gt;dcgp&#45;python -->
<g id="edge14" class="edge">
<title>audi&#45;&gt;dcgp&#45;python</title>
<path fill="none" stroke="black" d="M548.45,-719.79C545.1,-701.76 539.3,-672.68 532.5,-648 530.11,-639.34 527.11,-630.03 524.23,-621.66"/>
<polygon fill="black" stroke="black" points="527.47,-620.3 520.85,-612.03 520.86,-622.62 527.47,-620.3"/>
</g>
<!-- clsparse -->
<g id="node21" class="node">
<title>clsparse</title>
<g id="a_node21"><a xlink:href="https://github.com/conda-forge/clsparse-feedstock/pull/7" xlink:title="clsparse">
<ellipse fill="#31688e" stroke="black" cx="650.5" cy="-738" rx="50.09" ry="18"/>
<text text-anchor="middle" x="650.5" y="-734.3" font-family="Times,serif" font-size="14.00" fill="white">clsparse</text>
</a>
</g>
</g>
<!-- spdlib -->
<g id="node22" class="node">
<title>spdlib</title>
<g id="a_node22"><a xlink:href="https://github.com/conda-forge/spdlib-feedstock/pull/11" xlink:title="spdlib">
<ellipse fill="#31688e" stroke="black" cx="650.5" cy="-666" rx="40.5" ry="18"/>
<text text-anchor="middle" x="650.5" y="-662.3" font-family="Times,serif" font-size="14.00" fill="white">spdlib</text>
</a>
</g>
</g>
<!-- clsparse&#45;&gt;spdlib -->
<!-- pcl -->
<g id="node23" class="node">
<title>pcl</title>
<g id="a_node23"><a xlink:href="https://github.com/conda-forge/pcl-feedstock/pull/20" xlink:title="pcl">
<ellipse fill="#31688e" stroke="black" cx="650.5" cy="-594" rx="27" ry="18"/>
<text text-anchor="middle" x="650.5" y="-590.3" font-family="Times,serif" font-size="14.00" fill="white">pcl</text>
</a>
</g>
</g>
<!-- spdlib&#45;&gt;pcl -->
<!-- trilinos -->
<g id="node24" class="node">
<title>trilinos</title>
<g id="a_node24"><a xlink:href="https://github.com/conda-forge/trilinos-feedstock/pull/29" xlink:title="trilinos">
<ellipse fill="#31688e" stroke="black" cx="650.5" cy="-522" rx="50.09" ry="18"/>
<text text-anchor="middle" x="650.5" y="-518.3" font-family="Times,serif" font-size="14.00" fill="white">trilinos</text>
</a>
</g>
</g>
<!-- pcl&#45;&gt;trilinos -->
<!-- libhdfs3 -->
<g id="node25" class="node">
<title>libhdfs3</title>
<g id="a_node25"><a xlink:href="https://github.com/conda-forge/libhdfs3-feedstock/pull/31" xlink:title="libhdfs3">
<ellipse fill="#31688e" stroke="black" cx="650.5" cy="-450" rx="50.09" ry="18"/>
<text text-anchor="middle" x="650.5" y="-446.3" font-family="Times,serif" font-size="14.00" fill="white">libhdfs3</text>
</a>
</g>
</g>
<!-- trilinos&#45;&gt;libhdfs3 -->
<!-- multineat -->
<g id="node26" class="node">
<title>multineat</title>
<ellipse fill="#fde725" stroke="black" cx="650.5" cy="-378" rx="54.69" ry="18"/>
<text text-anchor="middle" x="650.5" y="-374.3" font-family="Times,serif" font-size="14.00">multineat</text>
</g>
<!-- libhdfs3&#45;&gt;multineat -->
<!-- freecad -->
<g id="node27" class="node">
<title>freecad</title>
<g id="a_node27"><a xlink:href="https://github.com/conda-forge/freecad-feedstock/pull/35" xlink:title="freecad">
<ellipse fill="#31688e" stroke="black" cx="650.5" cy="-306" rx="45" ry="18"/>
<text text-anchor="middle" x="650.5" y="-302.3" font-family="Times,serif" font-size="14.00" fill="white">freecad</text>
</a>
</g>
</g>
<!-- multineat&#45;&gt;freecad -->
<!-- helics -->
<g id="node28" class="node">
<title>helics</title>
<g id="a_node28"><a xlink:href="https://github.com/conda-forge/helics-feedstock/pull/17" xlink:title="helics">
<ellipse fill="#31688e" stroke="black" cx="650.5" cy="-234" rx="40.5" ry="18"/>
<text text-anchor="middle" x="650.5" y="-230.3" font-family="Times,serif" font-size="14.00" fill="white">helics</text>
</a>
</g>
</g>
<!-- freecad&#45;&gt;helics -->
<!-- nds2&#45;client -->
<g id="node29" class="node">
<title>nds2&#45;client</title>
<g id="a_node29"><a xlink:href="https://github.com/conda-forge/nds2-client-feedstock/pull/9" xlink:title="nds2 client">
<ellipse fill="#31688e" stroke="black" cx="650.5" cy="-162" rx="64.5" ry="18"/>
<text text-anchor="middle" x="650.5" y="-158.3" font-family="Times,serif" font-size="14.00" fill="white">nds2 client</text>
</a>
</g>
</g>
<!-- helics&#45;&gt;nds2&#45;client -->
<!-- gudhi -->
<g id="node30" class="node">
<title>gudhi</title>
<g id="a_node30"><a xlink:href="https://github.com/conda-forge/gudhi-feedstock/pull/16" xlink:title="gudhi">
<ellipse fill="#31688e" stroke="black" cx="650.5" cy="-90" rx="35.19" ry="18"/>
<text text-anchor="middle" x="650.5" y="-86.3" font-family="Times,serif" font-size="14.00" fill="white">gudhi</text>
</a>
</g>
</g>
<!-- nds2&#45;client&#45;&gt;gudhi -->
<!-- ldas&#45;tools&#45;diskcacheapi -->
<g id="node31" class="node">
<title>ldas&#45;tools&#45;diskcacheapi</title>
<g id="a_node31"><a xlink:href="https://github.com/conda-forge/ldas-tools-diskcacheapi-feedstock/pull/4" xlink:title="ldas tools diskcacheapi">
<ellipse fill="#31688e" stroke="black" cx="650.5" cy="-18" rx="123" ry="18"/>
<text text-anchor="middle" x="650.5" y="-14.3" font-family="Times,serif" font-size="14.00" fill="white">ldas tools diskcacheapi</text>
</a>
</g>
</g>
<!-- gudhi&#45;&gt;ldas&#45;tools&#45;diskcacheapi -->
<!-- libint -->
<g id="node32" class="node">
<title>libint</title>
<g id="a_node32"><a xlink:href="https://github.com/conda-forge/libint-feedstock/pull/5" xlink:title="libint">
<ellipse fill="#31688e" stroke="black" cx="832.5" cy="-738" rx="40.5" ry="18"/>
<text text-anchor="middle" x="832.5" y="-734.3" font-family="Times,serif" font-size="14.00" fill="white">libint</text>
</a>
</g>
</g>
<!-- dealii -->
<g id="node33" class="node">
<title>dealii</title>
<g id="a_node33"><a xlink:href="https://github.com/conda-forge/dealii-feedstock/pull/6" xlink:title="dealii">
<ellipse fill="#31688e" stroke="black" cx="832.5" cy="-666" rx="40.5" ry="18"/>
<text text-anchor="middle" x="832.5" y="-662.3" font-family="Times,serif" font-size="14.00" fill="white">dealii</text>
</a>
</g>
</g>
<!-- libint&#45;&gt;dealii -->
<!-- lhcb&#45;simpletools -->
<g id="node34" class="node">
<title>lhcb&#45;simpletools</title>
<g id="a_node34"><a xlink:href="https://github.com/conda-forge/lhcb-simpletools-feedstock/pull/4" xlink:title="lhcb simpletools">
<ellipse fill="#31688e" stroke="black" cx="832.5" cy="-594" rx="89.08" ry="18"/>
<text text-anchor="middle" x="832.5" y="-590.3" font-family="Times,serif" font-size="14.00" fill="white">lhcb simpletools</text>
</a>
</g>
</g>
<!-- dealii&#45;&gt;lhcb&#45;simpletools -->
<!-- omniscidb&#45;cpu -->
<g id="node35" class="node">
<title>omniscidb&#45;cpu</title>
<g id="a_node35"><a xlink:href="https://github.com/conda-forge/omniscidb-cpu-feedstock/pull/22" xlink:title="omniscidb cpu">
<ellipse fill="#31688e" stroke="black" cx="832.5" cy="-522" rx="74.19" ry="18"/>
<text text-anchor="middle" x="832.5" y="-518.3" font-family="Times,serif" font-size="14.00" fill="white">omniscidb cpu</text>
</a>
</g>
</g>
<!-- lhcb&#45;simpletools&#45;&gt;omniscidb&#45;cpu -->
<!-- ambertools -->
<g id="node36" class="node">
<title>ambertools</title>
<g id="a_node36"><a xlink:href="https://github.com/conda-forge/ambertools-feedstock/pull/25" xlink:title="ambertools">
<ellipse fill="#31688e" stroke="black" cx="832.5" cy="-450" rx="60" ry="18"/>
<text text-anchor="middle" x="832.5" y="-446.3" font-family="Times,serif" font-size="14.00" fill="white">ambertools</text>
</a>
</g>
</g>
<!-- omniscidb&#45;cpu&#45;&gt;ambertools -->
<!-- biorbd -->
<g id="node37" class="node">
<title>biorbd</title>
<g id="a_node37"><a xlink:href="https://github.com/conda-forge/biorbd-feedstock/pull/13" xlink:title="biorbd">
<ellipse fill="#31688e" stroke="black" cx="832.5" cy="-378" rx="40.5" ry="18"/>
<text text-anchor="middle" x="832.5" y="-374.3" font-family="Times,serif" font-size="14.00" fill="white">biorbd</text>
</a>
</g>
</g>
<!-- ambertools&#45;&gt;biorbd -->
<!-- esys&#45;escript -->
<g id="node38" class="node">
<title>esys&#45;escript</title>
<g id="a_node38"><a xlink:href="https://github.com/conda-forge/esys-escript-feedstock/pull/11" xlink:title="esys escript">
<ellipse fill="#31688e" stroke="black" cx="832.5" cy="-306" rx="69.59" ry="18"/>
<text text-anchor="middle" x="832.5" y="-302.3" font-family="Times,serif" font-size="14.00" fill="white">esys escript</text>
</a>
</g>
</g>
<!-- biorbd&#45;&gt;esys&#45;escript -->
<!-- graph&#45;tool -->
<g id="node40" class="node">
<title>graph&#45;tool</title>
<g id="a_node40"><a xlink:href="https://github.com/conda-forge/graph-tool-feedstock/pull/8" xlink:title="graph tool">
<ellipse fill="#31688e" stroke="black" cx="832.5" cy="-234" rx="60" ry="18"/>
<text text-anchor="middle" x="832.5" y="-230.3" font-family="Times,serif" font-size="14.00" fill="white">graph tool</text>
</a>
</g>
</g>
<!-- esys&#45;escript&#45;&gt;graph&#45;tool -->
<!-- normaliz -->
<g id="node39" class="node">
<title>normaliz</title>
<g id="a_node39"><a xlink:href="https://github.com/conda-forge/normaliz-feedstock/pull/18" xlink:title="normaliz">
<ellipse fill="#31688e" stroke="black" cx="272.5" cy="-738" rx="50.09" ry="18"/>
<text text-anchor="middle" x="272.5" y="-734.3" font-family="Times,serif" font-size="14.00" fill="white">normaliz</text>
</a>
</g>
</g>
<!-- normaliz&#45;&gt;gap -->
<g id="edge32" class="edge">
<title>normaliz&#45;&gt;gap</title>
<path fill="none" stroke="black" d="M272.5,-719.7C272.5,-711.98 272.5,-702.71 272.5,-694.11"/>
<polygon fill="black" stroke="black" points="276,-694.1 272.5,-684.1 269,-694.1 276,-694.1"/>
</g>
<!-- topologytoolkit -->
<g id="node46" class="node">
<title>topologytoolkit</title>
<g id="a_node46"><a xlink:href="https://github.com/conda-forge/topologytoolkit-feedstock/pull/4" xlink:title="topologytoolkit">
<ellipse fill="#31688e" stroke="black" cx="832.5" cy="-162" rx="84" ry="18"/>
<text text-anchor="middle" x="832.5" y="-158.3" font-family="Times,serif" font-size="14.00" fill="white">topologytoolkit</text>
</a>
</g>
</g>
<!-- graph&#45;tool&#45;&gt;topologytoolkit -->
<!-- xmscore -->
<g id="node41" class="node">
<title>xmscore</title>
<g id="a_node41"><a xlink:href="https://github.com/conda-forge/xmscore-feedstock/pull/4" xlink:title="xmscore">
<ellipse fill="#31688e" stroke="black" cx="1074.5" cy="-738" rx="45" ry="18"/>
<text text-anchor="middle" x="1074.5" y="-734.3" font-family="Times,serif" font-size="14.00" fill="white">xmscore</text>
</a>
</g>
</g>
<!-- xmsgrid -->
<g id="node42" class="node">
<title>xmsgrid</title>
<ellipse fill="#fde725" stroke="black" cx="1113.5" cy="-666" rx="45" ry="18"/>
<text text-anchor="middle" x="1113.5" y="-662.3" font-family="Times,serif" font-size="14.00">xmsgrid</text>
</g>
<!-- xmscore&#45;&gt;xmsgrid -->
<g id="edge34" class="edge">
<title>xmscore&#45;&gt;xmsgrid</title>
<path fill="none" stroke="black" d="M1083.94,-720.05C1088.54,-711.8 1094.17,-701.7 1099.27,-692.54"/>
<polygon fill="black" stroke="black" points="1102.34,-694.23 1104.15,-683.79 1096.22,-690.82 1102.34,-694.23"/>
</g>
<!-- xmsinterp -->
<g id="node43" class="node">
<title>xmsinterp</title>
<ellipse fill="#fde725" stroke="black" cx="1032.5" cy="-594" rx="54.69" ry="18"/>
<text text-anchor="middle" x="1032.5" y="-590.3" font-family="Times,serif" font-size="14.00">xmsinterp</text>
</g>
<!-- xmscore&#45;&gt;xmsinterp -->
<g id="edge35" class="edge">
<title>xmscore&#45;&gt;xmsinterp</title>
<path fill="none" stroke="black" d="M1069.43,-719.87C1062.24,-695.56 1049.01,-650.82 1040.49,-622.01"/>
<polygon fill="black" stroke="black" points="1043.78,-620.79 1037.58,-612.19 1037.06,-622.77 1043.78,-620.79"/>
</g>
<!-- xmsstamper -->
<g id="node44" class="node">
<title>xmsstamper</title>
<ellipse fill="#fde725" stroke="black" cx="1026.5" cy="-522" rx="60" ry="18"/>
<text text-anchor="middle" x="1026.5" y="-518.3" font-family="Times,serif" font-size="14.00">xmsstamper</text>
</g>
<!-- xmscore&#45;&gt;xmsstamper -->
<g id="edge36" class="edge">
<title>xmscore&#45;&gt;xmsstamper</title>
<path fill="none" stroke="black" d="M1054.97,-721.78C1029.38,-700.47 985.75,-659.01 968.5,-612 962.99,-596.98 962.05,-590.64 968.5,-576 973.88,-563.79 983.62,-553.17 993.61,-544.71"/>
<polygon fill="black" stroke="black" points="995.91,-547.35 1001.58,-538.4 991.57,-541.86 995.91,-547.35"/>
</g>
<!-- xmsmesher -->
<g id="node45" class="node">
<title>xmsmesher</title>
<ellipse fill="#fde725" stroke="black" cx="1159.5" cy="-522" rx="54.69" ry="18"/>
<text text-anchor="middle" x="1159.5" y="-518.3" font-family="Times,serif" font-size="14.00">xmsmesher</text>
</g>
<!-- xmscore&#45;&gt;xmsmesher -->
<g id="edge37" class="edge">
<title>xmscore&#45;&gt;xmsmesher</title>
<path fill="none" stroke="black" d="M1110.15,-726.67C1130.83,-718.64 1155.18,-705.21 1167.5,-684 1191.84,-642.12 1179.61,-583.27 1169.13,-549.54"/>
<polygon fill="black" stroke="black" points="1172.42,-548.34 1165.98,-539.93 1165.77,-550.52 1172.42,-548.34"/>
</g>
<!-- xmsgrid&#45;&gt;xmsinterp -->
<g id="edge38" class="edge">
<title>xmsgrid&#45;&gt;xmsinterp</title>
<path fill="none" stroke="black" d="M1095.52,-649.46C1084.67,-640.08 1070.64,-627.96 1058.58,-617.54"/>
<polygon fill="black" stroke="black" points="1060.84,-614.87 1050.99,-610.98 1056.27,-620.16 1060.84,-614.87"/>
</g>
<!-- xmsgrid&#45;&gt;xmsstamper -->
<g id="edge39" class="edge">
<title>xmsgrid&#45;&gt;xmsstamper</title>
<path fill="none" stroke="black" d="M1113.78,-647.96C1113.33,-629.02 1110.28,-598.18 1096.5,-576 1088.4,-562.95 1075.83,-551.97 1063.57,-543.44"/>
<polygon fill="black" stroke="black" points="1065.47,-540.5 1055.19,-537.93 1061.62,-546.35 1065.47,-540.5"/>
</g>
<!-- xmsgrid&#45;&gt;xmsmesher -->
<g id="edge40" class="edge">
<title>xmsgrid&#45;&gt;xmsmesher</title>
<path fill="none" stroke="black" d="M1119.05,-647.87C1126.92,-623.56 1141.42,-578.82 1150.75,-550.01"/>
<polygon fill="black" stroke="black" points="1154.18,-550.78 1153.93,-540.19 1147.52,-548.62 1154.18,-550.78"/>
</g>
<!-- xmsinterp&#45;&gt;xmsstamper -->
<g id="edge41" class="edge">
<title>xmsinterp&#45;&gt;xmsstamper</title>
<path fill="none" stroke="black" d="M1031.02,-575.7C1030.36,-567.98 1029.56,-558.71 1028.82,-550.11"/>
<polygon fill="black" stroke="black" points="1032.31,-549.77 1027.97,-540.1 1025.33,-550.37 1032.31,-549.77"/>
</g>
<!-- xmsinterp&#45;&gt;xmsmesher -->
<g id="edge42" class="edge">
<title>xmsinterp&#45;&gt;xmsmesher</title>
<path fill="none" stroke="black" d="M1059.43,-578.15C1078.12,-567.85 1103.22,-554.02 1123.61,-542.78"/>
<polygon fill="black" stroke="black" points="1125.54,-545.72 1132.61,-537.82 1122.16,-539.59 1125.54,-545.72"/>
</g>
<!-- pyinterp -->
<g id="node47" class="node">
<title>pyinterp</title>
<g id="a_node47"><a xlink:href="https://github.com/conda-forge/pyinterp-feedstock/pull/15" xlink:title="pyinterp">
<ellipse fill="#31688e" stroke="black" cx="832.5" cy="-90" rx="50.09" ry="18"/>
<text text-anchor="middle" x="832.5" y="-86.3" font-family="Times,serif" font-size="14.00" fill="white">pyinterp</text>
</a>
</g>
</g>
<!-- topologytoolkit&#45;&gt;pyinterp -->
<!-- gazebo -->
<g id="node48" class="node">
<title>gazebo</title>
<g id="a_node48"><a xlink:href="https://github.com/conda-forge/gazebo-feedstock/pull/6" xlink:title="gazebo">
<ellipse fill="#31688e" stroke="black" cx="832.5" cy="-18" rx="40.5" ry="18"/>
<text text-anchor="middle" x="832.5" y="-14.3" font-family="Times,serif" font-size="14.00" fill="white">gazebo</text>
</a>
</g>
</g>
<!-- pyinterp&#45;&gt;gazebo -->
<!-- ros&#45;rostime -->
<g id="node49" class="node">
<title>ros&#45;rostime</title>
<g id="a_node49"><a xlink:href="https://github.com/conda-forge/ros-rostime-feedstock/pull/4" xlink:title="ros rostime">
<ellipse fill="#31688e" stroke="black" cx="1883.5" cy="-738" rx="64.5" ry="18"/>
<text text-anchor="middle" x="1883.5" y="-734.3" font-family="Times,serif" font-size="14.00" fill="white">ros rostime</text>
</a>
</g>
</g>
<!-- ros&#45;rosconsole -->
<g id="node50" class="node">
<title>ros&#45;rosconsole</title>
<ellipse fill="#fde725" stroke="black" cx="2065.5" cy="-666" rx="79.5" ry="18"/>
<text text-anchor="middle" x="2065.5" y="-662.3" font-family="Times,serif" font-size="14.00">ros rosconsole</text>
</g>
<!-- ros&#45;rostime&#45;&gt;ros&#45;rosconsole -->
<g id="edge46" class="edge">
<title>ros&#45;rostime&#45;&gt;ros&#45;rosconsole</title>
<path fill="none" stroke="black" d="M1919.89,-723C1947.88,-712.24 1986.8,-697.27 2017.37,-685.51"/>
<polygon fill="black" stroke="black" points="2018.89,-688.68 2026.97,-681.82 2016.38,-682.14 2018.89,-688.68"/>
</g>
<!-- ros&#45;rosbag&#45;storage -->
<g id="node51" class="node">
<title>ros&#45;rosbag&#45;storage</title>
<ellipse fill="#fde725" stroke="black" cx="1901.5" cy="-522" rx="99" ry="18"/>
<text text-anchor="middle" x="1901.5" y="-518.3" font-family="Times,serif" font-size="14.00">ros rosbag storage</text>
</g>
<!-- ros&#45;rostime&#45;&gt;ros&#45;rosbag&#45;storage -->
<g id="edge47" class="edge">
<title>ros&#45;rostime&#45;&gt;ros&#45;rosbag&#45;storage</title>
<path fill="none" stroke="black" d="M1931.2,-725.71C1939.93,-723.74 1948.98,-721.76 1957.5,-720 2044.67,-702.03 2077.63,-728.87 2154.5,-684 2201.92,-656.32 2249.94,-617.94 2214.5,-576 2188.23,-544.91 2088.11,-532.06 2008.08,-526.74"/>
<polygon fill="black" stroke="black" points="2008.13,-523.24 1997.93,-526.1 2007.69,-530.22 2008.13,-523.24"/>
</g>
<!-- ros&#45;rosbag -->
<g id="node52" class="node">
<title>ros&#45;rosbag</title>
<ellipse fill="#fde725" stroke="black" cx="1565.5" cy="-450" rx="60" ry="18"/>
<text text-anchor="middle" x="1565.5" y="-446.3" font-family="Times,serif" font-size="14.00">ros rosbag</text>
</g>
<!-- ros&#45;rostime&#45;&gt;ros&#45;rosbag -->
<g id="edge48" class="edge">
<title>ros&#45;rostime&#45;&gt;ros&#45;rosbag</title>
<path fill="none" stroke="black" d="M1819.75,-734.66C1706.29,-729.73 1474.32,-715.99 1400.5,-684 1355.38,-664.45 1337.05,-656.67 1316.5,-612 1295.18,-565.64 1315.21,-535.32 1355.5,-504 1395.57,-472.85 1451.77,-459.81 1495.95,-454.45"/>
<polygon fill="black" stroke="black" points="1496.49,-457.91 1506.04,-453.33 1495.72,-450.95 1496.49,-457.91"/>
</g>
<!-- ros&#45;actionlib -->
<g id="node53" class="node">
<title>ros&#45;actionlib</title>
<ellipse fill="#fde725" stroke="black" cx="1684.5" cy="-594" rx="74.19" ry="18"/>
<text text-anchor="middle" x="1684.5" y="-590.3" font-family="Times,serif" font-size="14.00">ros actionlib</text>
</g>
<!-- ros&#45;rostime&#45;&gt;ros&#45;actionlib -->
<g id="edge49" class="edge">
<title>ros&#45;rostime&#45;&gt;ros&#45;actionlib</title>
<path fill="none" stroke="black" d="M1855.6,-721.75C1837.73,-711.65 1814.27,-697.78 1794.5,-684 1764.84,-663.32 1732.92,-637 1711.14,-618.36"/>
<polygon fill="black" stroke="black" points="1713.18,-615.5 1703.32,-611.62 1708.61,-620.8 1713.18,-615.5"/>
</g>
<!-- ros&#45;rosconsole&#45;&gt;ros&#45;rosbag&#45;storage -->
<g id="edge50" class="edge">
<title>ros&#45;rosconsole&#45;&gt;ros&#45;rosbag&#45;storage</title>
<path fill="none" stroke="black" d="M2129.45,-655.21C2155.05,-647.81 2182.08,-634.81 2197.5,-612 2206.46,-598.75 2207.77,-588.27 2197.5,-576 2173.21,-546.98 2081.49,-533.83 2006.5,-527.88"/>
<polygon fill="black" stroke="black" points="2006.75,-524.39 1996.51,-527.12 2006.22,-531.37 2006.75,-524.39"/>
</g>
<!-- ros&#45;rosconsole&#45;&gt;ros&#45;rosbag -->
<g id="edge51" class="edge">
<title>ros&#45;rosconsole&#45;&gt;ros&#45;rosbag</title>
<path fill="none" stroke="black" d="M2136.29,-657.59C2165.48,-650.65 2196.61,-637.35 2214.5,-612 2223.73,-598.93 2223.75,-589.05 2214.5,-576 2148.1,-482.31 1788.81,-458.71 1635.21,-452.87"/>
<polygon fill="black" stroke="black" points="1635.07,-449.37 1624.95,-452.5 1634.82,-456.36 1635.07,-449.37"/>
</g>
<!-- ros&#45;rosconsole&#45;&gt;ros&#45;actionlib -->
<g id="edge52" class="edge">
<title>ros&#45;rosconsole&#45;&gt;ros&#45;actionlib</title>
<path fill="none" stroke="black" d="M2004.06,-654.55C1943.75,-644.18 1849.18,-627.62 1767.5,-612 1761.43,-610.84 1755.12,-609.6 1748.81,-608.34"/>
<polygon fill="black" stroke="black" points="1749.42,-604.9 1738.93,-606.36 1748.04,-611.76 1749.42,-604.9"/>
</g>
<!-- ros&#45;pluginlib -->
<g id="node54" class="node">
<title>ros&#45;pluginlib</title>
<ellipse fill="#fde725" stroke="black" cx="1850.5" cy="-594" rx="74.19" ry="18"/>
<text text-anchor="middle" x="1850.5" y="-590.3" font-family="Times,serif" font-size="14.00">ros pluginlib</text>
</g>
<!-- ros&#45;rosconsole&#45;&gt;ros&#45;pluginlib -->
<g id="edge53" class="edge">
<title>ros&#45;rosconsole&#45;&gt;ros&#45;pluginlib</title>
<path fill="none" stroke="black" d="M2021.99,-650.83C1987.56,-639.62 1939.36,-623.93 1902.82,-612.03"/>
<polygon fill="black" stroke="black" points="1903.44,-608.55 1892.84,-608.79 1901.27,-615.21 1903.44,-608.55"/>
</g>
<!-- ros&#45;message&#45;filters -->
<g id="node55" class="node">
<title>ros&#45;message&#45;filters</title>
<ellipse fill="#fde725" stroke="black" cx="2084.5" cy="-594" rx="103.5" ry="18"/>
<text text-anchor="middle" x="2084.5" y="-590.3" font-family="Times,serif" font-size="14.00">ros message filters</text>
</g>
<!-- ros&#45;rosconsole&#45;&gt;ros&#45;message&#45;filters -->
<g id="edge54" class="edge">
<title>ros&#45;rosconsole&#45;&gt;ros&#45;message&#45;filters</title>
<path fill="none" stroke="black" d="M2070.2,-647.7C2072.31,-639.9 2074.86,-630.51 2077.22,-621.83"/>
<polygon fill="black" stroke="black" points="2080.62,-622.67 2079.86,-612.1 2073.86,-620.84 2080.62,-622.67"/>
</g>
<!-- ros&#45;rosbag&#45;storage&#45;&gt;ros&#45;rosbag -->
<g id="edge55" class="edge">
<title>ros&#45;rosbag&#45;storage&#45;&gt;ros&#45;rosbag</title>
<path fill="none" stroke="black" d="M1839.09,-508C1777.28,-495.12 1683.42,-475.57 1623.28,-463.04"/>
<polygon fill="black" stroke="black" points="1623.7,-459.55 1613.19,-460.94 1622.27,-466.4 1623.7,-459.55"/>
</g>
<!-- ros&#45;pluginlib&#45;&gt;ros&#45;rosbag&#45;storage -->
<g id="edge61" class="edge">
<title>ros&#45;pluginlib&#45;&gt;ros&#45;rosbag&#45;storage</title>
<path fill="none" stroke="black" d="M1862.85,-576.05C1868.89,-567.75 1876.3,-557.58 1883.01,-548.38"/>
<polygon fill="black" stroke="black" points="1885.85,-550.42 1888.91,-540.28 1880.2,-546.3 1885.85,-550.42"/>
</g>
<!-- ros&#45;roslib -->
<g id="node56" class="node">
<title>ros&#45;roslib</title>
<g id="a_node56"><a xlink:href="https://github.com/conda-forge/ros-roslib-feedstock/pull/6" xlink:title="ros roslib">
<ellipse fill="#31688e" stroke="black" cx="1469.5" cy="-666" rx="60" ry="18"/>
<text text-anchor="middle" x="1469.5" y="-662.3" font-family="Times,serif" font-size="14.00" fill="white">ros roslib</text>
</a>
</g>
</g>
<!-- ros&#45;roslib&#45;&gt;ros&#45;rosbag&#45;storage -->
<g id="edge56" class="edge">
<title>ros&#45;roslib&#45;&gt;ros&#45;rosbag&#45;storage</title>
<path fill="none" stroke="black" d="M1415.77,-657.9C1387.43,-651.12 1355,-637.88 1337.5,-612 1328.54,-598.75 1326.73,-587.83 1337.5,-576 1367.57,-542.98 1638.89,-530.13 1793.99,-525.46"/>
<polygon fill="black" stroke="black" points="1794.14,-528.96 1804.03,-525.16 1793.93,-521.96 1794.14,-528.96"/>
</g>
<!-- ros&#45;roslib&#45;&gt;ros&#45;rosbag -->
<g id="edge57" class="edge">
<title>ros&#45;roslib&#45;&gt;ros&#45;rosbag</title>
<path fill="none" stroke="black" d="M1413.24,-659.51C1382.17,-653.27 1346.01,-640.04 1326.5,-612 1317.36,-598.87 1318.21,-589.69 1326.5,-576 1365.45,-511.67 1449.6,-478.86 1506.9,-463.34"/>
<polygon fill="black" stroke="black" points="1508.12,-466.64 1516.92,-460.73 1506.36,-459.86 1508.12,-466.64"/>
</g>
<!-- ros&#45;roslib&#45;&gt;ros&#45;actionlib -->
<g id="edge58" class="edge">
<title>ros&#45;roslib&#45;&gt;ros&#45;actionlib</title>
<path fill="none" stroke="black" d="M1508.93,-652.16C1543.54,-640.89 1594.14,-624.42 1632.14,-612.05"/>
<polygon fill="black" stroke="black" points="1633.58,-615.26 1642,-608.84 1631.41,-608.6 1633.58,-615.26"/>
</g>
<!-- ros&#45;roslib&#45;&gt;ros&#45;pluginlib -->
<g id="edge59" class="edge">
<title>ros&#45;roslib&#45;&gt;ros&#45;pluginlib</title>
<path fill="none" stroke="black" d="M1520.46,-656.35C1579.85,-646.18 1680.92,-628.56 1767.5,-612 1773.57,-610.84 1779.88,-609.6 1786.19,-608.34"/>
<polygon fill="black" stroke="black" points="1786.96,-611.76 1796.07,-606.36 1785.58,-604.9 1786.96,-611.76"/>
</g>
<!-- ros&#45;dynamic&#45;reconfigure -->
<g id="node57" class="node">
<title>ros&#45;dynamic&#45;reconfigure</title>
<ellipse fill="#fde725" stroke="black" cx="1469.5" cy="-594" rx="123" ry="18"/>
<text text-anchor="middle" x="1469.5" y="-590.3" font-family="Times,serif" font-size="14.00">ros dynamic reconfigure</text>
</g>
<!-- ros&#45;roslib&#45;&gt;ros&#45;dynamic&#45;reconfigure -->
<g id="edge60" class="edge">
<title>ros&#45;roslib&#45;&gt;ros&#45;dynamic&#45;reconfigure</title>
<path fill="none" stroke="black" d="M1469.5,-647.7C1469.5,-639.98 1469.5,-630.71 1469.5,-622.11"/>
<polygon fill="black" stroke="black" points="1473,-622.1 1469.5,-612.1 1466,-622.1 1473,-622.1"/>
</g>
<!-- ros&#45;rostest -->
<g id="node58" class="node">
<title>ros&#45;rostest</title>
<g id="a_node58"><a xlink:href="https://github.com/conda-forge/ros-rostest-feedstock/pull/2" xlink:title="ros rostest">
<ellipse fill="#31688e" stroke="black" cx="1867.5" cy="-666" rx="64.5" ry="18"/>
<text text-anchor="middle" x="1867.5" y="-662.3" font-family="Times,serif" font-size="14.00" fill="white">ros rostest</text>
</a>
</g>
</g>
<!-- ros&#45;rostest&#45;&gt;ros&#45;rosbag&#45;storage -->
<g id="edge62" class="edge">
<title>ros&#45;rostest&#45;&gt;ros&#45;rosbag&#45;storage</title>
<path fill="none" stroke="black" d="M1896.79,-649.7C1910.65,-640.75 1925.81,-628.03 1933.5,-612 1943.44,-591.26 1932.93,-566.57 1921.36,-548.46"/>
<polygon fill="black" stroke="black" points="1924.21,-546.43 1915.68,-540.15 1918.43,-550.38 1924.21,-546.43"/>
</g>
<!-- ros&#45;rostest&#45;&gt;ros&#45;actionlib -->
<g id="edge63" class="edge">
<title>ros&#45;rostest&#45;&gt;ros&#45;actionlib</title>
<path fill="none" stroke="black" d="M1830.91,-651C1802.58,-640.17 1763.1,-625.07 1732.28,-613.28"/>
<polygon fill="black" stroke="black" points="1733.19,-609.88 1722.6,-609.58 1730.69,-616.42 1733.19,-609.88"/>
</g>
<!-- ros&#45;rostest&#45;&gt;ros&#45;message&#45;filters -->
<g id="edge65" class="edge">
<title>ros&#45;rostest&#45;&gt;ros&#45;message&#45;filters</title>
<path fill="none" stroke="black" d="M1908.06,-651.92C1941.84,-641.02 1990.33,-625.38 2027.93,-613.25"/>
<polygon fill="black" stroke="black" points="2029.29,-616.49 2037.73,-610.09 2027.14,-609.83 2029.29,-616.49"/>
</g>
<!-- ros&#45;rostest&#45;&gt;ros&#45;dynamic&#45;reconfigure -->
<g id="edge64" class="edge">
<title>ros&#45;rostest&#45;&gt;ros&#45;dynamic&#45;reconfigure</title>
<path fill="none" stroke="black" d="M1814.24,-655.63C1747.81,-643.95 1633.44,-623.83 1554.76,-610"/>
<polygon fill="black" stroke="black" points="1555.32,-606.54 1544.87,-608.26 1554.11,-613.44 1555.32,-606.54"/>
</g>
<!-- gnuradio -->
<g id="node59" class="node">
<title>gnuradio</title>
<g id="a_node59"><a xlink:href="https://github.com/conda-forge/gnuradio-feedstock/pull/6" xlink:title="gnuradio">
<ellipse fill="#31688e" stroke="black" cx="2016.5" cy="-738" rx="50.09" ry="18"/>
<text text-anchor="middle" x="2016.5" y="-734.3" font-family="Times,serif" font-size="14.00" fill="white">gnuradio</text>
</a>
</g>
</g>
</g>
</svg>
