<?xml version="1.0" encoding="UTF-8" standalone="no"?>
<!DOCTYPE svg PUBLIC "-//W3C//DTD SVG 1.1//EN"
 "http://www.w3.org/Graphics/SVG/1.1/DTD/svg11.dtd">
<!-- Generated by graphviz version 2.42.3 (20191010.1750)
 -->
<!-- Title: %3 Pages: 1 -->
<svg width="3278pt" height="764pt"
 viewBox="0.00 0.00 3277.64 764.00" xmlns="http://www.w3.org/2000/svg" xmlns:xlink="http://www.w3.org/1999/xlink">
<g id="graph0" class="graph" transform="scale(1 1) rotate(0) translate(4 760)">
<title>%3</title>
<polygon fill="white" stroke="transparent" points="-4,4 -4,-760 3273.64,-760 3273.64,4 -4,4"/>
<!-- boost -->
<g id="node1" class="node">
<title>boost</title>
<ellipse fill="#fde725" stroke="black" cx="196.1" cy="-738" rx="35.19" ry="18"/>
<text text-anchor="middle" x="196.1" y="-734.3" font-family="Times,serif" font-size="14.00">boost</text>
</g>
<!-- pygmo -->
<g id="node2" class="node">
<title>pygmo</title>
<ellipse fill="#fde725" stroke="black" cx="259.1" cy="-666" rx="35.19" ry="18"/>
<text text-anchor="middle" x="259.1" y="-662.3" font-family="Times,serif" font-size="14.00">pygmo</text>
</g>
<!-- boost&#45;&gt;pygmo -->
<g id="edge1" class="edge">
<title>boost&#45;&gt;pygmo</title>
<path fill="none" stroke="black" d="M210.08,-721.46C218.28,-712.35 228.81,-700.65 238.01,-690.43"/>
<polygon fill="black" stroke="black" points="240.63,-692.75 244.72,-682.98 235.43,-688.07 240.63,-692.75"/>
</g>
<!-- pykep -->
<g id="node3" class="node">
<title>pykep</title>
<ellipse fill="#fde725" stroke="black" cx="35.1" cy="-594" rx="35.19" ry="18"/>
<text text-anchor="middle" x="35.1" y="-590.3" font-family="Times,serif" font-size="14.00">pykep</text>
</g>
<!-- boost&#45;&gt;pykep -->
<g id="edge2" class="edge">
<title>boost&#45;&gt;pykep</title>
<path fill="none" stroke="black" d="M165.99,-728.47C141.56,-720.31 107.45,-705.96 84.1,-684 65.61,-666.61 52.42,-640.64 44.42,-621.24"/>
<polygon fill="black" stroke="black" points="47.61,-619.81 40.7,-611.77 41.1,-622.36 47.61,-619.81"/>
</g>
<!-- turbodbc -->
<g id="node4" class="node">
<title>turbodbc</title>
<ellipse fill="#fde725" stroke="black" cx="400.1" cy="-666" rx="50.09" ry="18"/>
<text text-anchor="middle" x="400.1" y="-662.3" font-family="Times,serif" font-size="14.00">turbodbc</text>
</g>
<!-- boost&#45;&gt;turbodbc -->
<g id="edge3" class="edge">
<title>boost&#45;&gt;turbodbc</title>
<path fill="none" stroke="black" d="M224.46,-727.27C258.45,-715.61 315.78,-695.93 355.66,-682.25"/>
<polygon fill="black" stroke="black" points="356.82,-685.55 365.14,-678.99 354.55,-678.93 356.82,-685.55"/>
</g>
<!-- multineat -->
<g id="node5" class="node">
<title>multineat</title>
<ellipse fill="#fde725" stroke="black" cx="75.1" cy="-522" rx="54.69" ry="18"/>
<text text-anchor="middle" x="75.1" y="-518.3" font-family="Times,serif" font-size="14.00">multineat</text>
</g>
<!-- boost&#45;&gt;multineat -->
<g id="edge4" class="edge">
<title>boost&#45;&gt;multineat</title>
<path fill="none" stroke="black" d="M178.48,-722.14C167.51,-712.2 153.71,-698.35 144.1,-684 115.07,-640.69 93.98,-583.18 83.21,-549.91"/>
<polygon fill="black" stroke="black" points="86.43,-548.49 80.08,-540.01 79.76,-550.6 86.43,-548.49"/>
</g>
<!-- esys&#45;escript -->
<g id="node6" class="node">
<title>esys&#45;escript</title>
<ellipse fill="#fde725" stroke="black" cx="98.1" cy="-450" rx="69.59" ry="18"/>
<text text-anchor="middle" x="98.1" y="-446.3" font-family="Times,serif" font-size="14.00">esys escript</text>
</g>
<!-- boost&#45;&gt;esys&#45;escript -->
<g id="edge5" class="edge">
<title>boost&#45;&gt;esys&#45;escript</title>
<path fill="none" stroke="black" d="M191.45,-719.84C188.68,-709.48 185.11,-696 182.1,-684 162.04,-604.23 174.61,-578.19 139.1,-504 134.35,-494.08 127.52,-484.27 120.79,-475.83"/>
<polygon fill="black" stroke="black" points="123.27,-473.33 114.18,-467.89 117.89,-477.82 123.27,-473.33"/>
</g>
<!-- graph&#45;tool -->
<g id="node7" class="node">
<title>graph&#45;tool</title>
<ellipse fill="#fde725" stroke="black" cx="196.1" cy="-378" rx="60" ry="18"/>
<text text-anchor="middle" x="196.1" y="-374.3" font-family="Times,serif" font-size="14.00">graph tool</text>
</g>
<!-- boost&#45;&gt;graph&#45;tool -->
<g id="edge6" class="edge">
<title>boost&#45;&gt;graph&#45;tool</title>
<path fill="none" stroke="black" d="M196.1,-719.95C196.1,-693.29 196.1,-640.11 196.1,-595 196.1,-595 196.1,-595 196.1,-521 196.1,-481 196.1,-434.65 196.1,-406.08"/>
<polygon fill="black" stroke="black" points="199.6,-406.05 196.1,-396.05 192.6,-406.05 199.6,-406.05"/>
</g>
<!-- dcgp&#45;python -->
<g id="node8" class="node">
<title>dcgp&#45;python</title>
<ellipse fill="#fde725" stroke="black" cx="400.1" cy="-594" rx="64.5" ry="18"/>
<text text-anchor="middle" x="400.1" y="-590.3" font-family="Times,serif" font-size="14.00">dcgp python</text>
</g>
<!-- boost&#45;&gt;dcgp&#45;python -->
<g id="edge7" class="edge">
<title>boost&#45;&gt;dcgp&#45;python</title>
<path fill="none" stroke="black" d="M223.27,-726.23C245.67,-716.73 277.76,-701.67 303.1,-684 322.18,-670.69 324,-663.77 341.1,-648 351.82,-638.1 363.78,-627.32 374.11,-618.08"/>
<polygon fill="black" stroke="black" points="376.52,-620.62 381.65,-611.35 371.86,-615.4 376.52,-620.62"/>
</g>
<!-- pygmo&#45;&gt;dcgp&#45;python -->
<g id="edge8" class="edge">
<title>pygmo&#45;&gt;dcgp&#45;python</title>
<path fill="none" stroke="black" d="M283.34,-652.97C304.56,-642.43 335.8,-626.92 360.63,-614.59"/>
<polygon fill="black" stroke="black" points="362.39,-617.63 369.79,-610.04 359.28,-611.36 362.39,-617.63"/>
</g>
<!-- cyclus -->
<g id="node9" class="node">
<title>cyclus</title>
<g id="a_node9"><a xlink:href="https://github.com/conda-forge/cyclus-feedstock/pull/54" xlink:title="cyclus">
<ellipse fill="#31688e" stroke="black" cx="636.1" cy="-738" rx="40.5" ry="18"/>
<text text-anchor="middle" x="636.1" y="-734.3" font-family="Times,serif" font-size="14.00" fill="white">cyclus</text>
</a>
</g>
</g>
<!-- dionysus -->
<g id="node10" class="node">
<title>dionysus</title>
<g id="a_node10"><a xlink:href="https://github.com/conda-forge/dionysus-feedstock/pull/7" xlink:title="dionysus">
<ellipse fill="#31688e" stroke="black" cx="636.1" cy="-666" rx="50.09" ry="18"/>
<text text-anchor="middle" x="636.1" y="-662.3" font-family="Times,serif" font-size="14.00" fill="white">dionysus</text>
</a>
</g>
</g>
<!-- cyclus&#45;&gt;dionysus -->
<!-- libradolan -->
<g id="node11" class="node">
<title>libradolan</title>
<g id="a_node11"><a xlink:href="https://github.com/conda-forge/libradolan-feedstock/pull/22" xlink:title="libradolan">
<ellipse fill="#31688e" stroke="black" cx="636.1" cy="-594" rx="60" ry="18"/>
<text text-anchor="middle" x="636.1" y="-590.3" font-family="Times,serif" font-size="14.00" fill="white">libradolan</text>
</a>
</g>
</g>
<!-- dionysus&#45;&gt;libradolan -->
<!-- msgpack&#45;c -->
<g id="node16" class="node">
<title>msgpack&#45;c</title>
<g id="a_node16"><a xlink:href="https://github.com/conda-forge/msgpack-c-feedstock/pull/17" xlink:title="msgpack c">
<ellipse fill="#31688e" stroke="black" cx="636.1" cy="-522" rx="54.69" ry="18"/>
<text text-anchor="middle" x="636.1" y="-518.3" font-family="Times,serif" font-size="14.00" fill="white">msgpack c</text>
</a>
</g>
</g>
<!-- libradolan&#45;&gt;msgpack&#45;c -->
<!-- fenics -->
<g id="node12" class="node">
<title>fenics</title>
<g id="a_node12"><a xlink:href="https://github.com/conda-forge/fenics-feedstock/pull/106" xlink:title="fenics">
<ellipse fill="#31688e" stroke="black" cx="735.1" cy="-738" rx="40.5" ry="18"/>
<text text-anchor="middle" x="735.1" y="-734.3" font-family="Times,serif" font-size="14.00" fill="white">fenics</text>
</a>
</g>
</g>
<!-- mshr -->
<g id="node13" class="node">
<title>mshr</title>
<ellipse fill="#fde725" stroke="black" cx="735.1" cy="-666" rx="30.59" ry="18"/>
<text text-anchor="middle" x="735.1" y="-662.3" font-family="Times,serif" font-size="14.00">mshr</text>
</g>
<!-- fenics&#45;&gt;mshr -->
<g id="edge11" class="edge">
<title>fenics&#45;&gt;mshr</title>
<path fill="none" stroke="black" d="M735.1,-719.7C735.1,-711.98 735.1,-702.71 735.1,-694.11"/>
<polygon fill="black" stroke="black" points="738.6,-694.1 735.1,-684.1 731.6,-694.1 738.6,-694.1"/>
</g>
<!-- gap -->
<g id="node14" class="node">
<title>gap</title>
<ellipse fill="#fde725" stroke="black" cx="844.1" cy="-666" rx="27" ry="18"/>
<text text-anchor="middle" x="844.1" y="-662.3" font-family="Times,serif" font-size="14.00">gap</text>
</g>
<!-- sagelib -->
<g id="node15" class="node">
<title>sagelib</title>
<ellipse fill="#fde725" stroke="black" cx="844.1" cy="-594" rx="45" ry="18"/>
<text text-anchor="middle" x="844.1" y="-590.3" font-family="Times,serif" font-size="14.00">sagelib</text>
</g>
<!-- gap&#45;&gt;sagelib -->
<g id="edge12" class="edge">
<title>gap&#45;&gt;sagelib</title>
<path fill="none" stroke="black" d="M844.1,-647.7C844.1,-639.98 844.1,-630.71 844.1,-622.11"/>
<polygon fill="black" stroke="black" points="847.6,-622.1 844.1,-612.1 840.6,-622.1 847.6,-622.1"/>
</g>
<!-- openturns -->
<g id="node17" class="node">
<title>openturns</title>
<g id="a_node17"><a xlink:href="https://github.com/conda-forge/openturns-feedstock/pull/99" xlink:title="openturns">
<ellipse fill="#31688e" stroke="black" cx="636.1" cy="-450" rx="54.69" ry="18"/>
<text text-anchor="middle" x="636.1" y="-446.3" font-family="Times,serif" font-size="14.00" fill="white">openturns</text>
</a>
</g>
</g>
<!-- msgpack&#45;c&#45;&gt;openturns -->
<!-- pyne -->
<g id="node18" class="node">
<title>pyne</title>
<g id="a_node18"><a xlink:href="https://github.com/conda-forge/pyne-feedstock/pull/38" xlink:title="pyne">
<ellipse fill="#31688e" stroke="black" cx="636.1" cy="-378" rx="30.59" ry="18"/>
<text text-anchor="middle" x="636.1" y="-374.3" font-family="Times,serif" font-size="14.00" fill="white">pyne</text>
</a>
</g>
</g>
<!-- openturns&#45;&gt;pyne -->
<!-- rank_filter -->
<g id="node20" class="node">
<title>rank_filter</title>
<g id="a_node20"><a xlink:href="https://github.com/conda-forge/rank_filter-feedstock/pull/43" xlink:title="rank_filter">
<ellipse fill="#31688e" stroke="black" cx="636.1" cy="-306" rx="64.5" ry="18"/>
<text text-anchor="middle" x="636.1" y="-302.3" font-family="Times,serif" font-size="14.00" fill="white">rank_filter</text>
</a>
</g>
</g>
<!-- pyne&#45;&gt;rank_filter -->
<!-- pyarrow -->
<g id="node19" class="node">
<title>pyarrow</title>
<g id="a_node19"><a xlink:href="https://github.com/conda-forge/pyarrow-feedstock/pull/100" xlink:title="pyarrow">
<ellipse fill="#31688e" stroke="black" cx="400.1" cy="-738" rx="45" ry="18"/>
<text text-anchor="middle" x="400.1" y="-734.3" font-family="Times,serif" font-size="14.00" fill="white">pyarrow</text>
</a>
</g>
</g>
<!-- pyarrow&#45;&gt;turbodbc -->
<g id="edge16" class="edge">
<title>pyarrow&#45;&gt;turbodbc</title>
<path fill="none" stroke="black" d="M400.1,-719.7C400.1,-711.98 400.1,-702.71 400.1,-694.11"/>
<polygon fill="black" stroke="black" points="403.6,-694.1 400.1,-684.1 396.6,-694.1 403.6,-694.1"/>
</g>
<!-- rsgislib -->
<g id="node21" class="node">
<title>rsgislib</title>
<g id="a_node21"><a xlink:href="https://github.com/conda-forge/rsgislib-feedstock/pull/28" xlink:title="rsgislib">
<ellipse fill="#31688e" stroke="black" cx="636.1" cy="-234" rx="50.09" ry="18"/>
<text text-anchor="middle" x="636.1" y="-230.3" font-family="Times,serif" font-size="14.00" fill="white">rsgislib</text>
</a>
</g>
</g>
<!-- rank_filter&#45;&gt;rsgislib -->
<!-- clblas -->
<g id="node22" class="node">
<title>clblas</title>
<g id="a_node22"><a xlink:href="https://github.com/conda-forge/clblas-feedstock/pull/9" xlink:title="clblas">
<ellipse fill="#31688e" stroke="black" cx="636.1" cy="-162" rx="40.5" ry="18"/>
<text text-anchor="middle" x="636.1" y="-158.3" font-family="Times,serif" font-size="14.00" fill="white">clblas</text>
</a>
</g>
</g>
<!-- rsgislib&#45;&gt;clblas -->
<!-- clfft -->
<g id="node28" class="node">
<title>clfft</title>
<g id="a_node28"><a xlink:href="https://github.com/conda-forge/clfft-feedstock/pull/9" xlink:title="clfft">
<ellipse fill="#31688e" stroke="black" cx="636.1" cy="-90" rx="35.19" ry="18"/>
<text text-anchor="middle" x="636.1" y="-86.3" font-family="Times,serif" font-size="14.00" fill="white">clfft</text>
</a>
</g>
</g>
<!-- clblas&#45;&gt;clfft -->
<!-- audi -->
<g id="node23" class="node">
<title>audi</title>
<ellipse fill="#fde725" stroke="black" cx="537.1" cy="-666" rx="30.59" ry="18"/>
<text text-anchor="middle" x="537.1" y="-662.3" font-family="Times,serif" font-size="14.00">audi</text>
</g>
<!-- audi&#45;&gt;dcgp&#45;python -->
<g id="edge20" class="edge">
<title>audi&#45;&gt;dcgp&#45;python</title>
<path fill="none" stroke="black" d="M514.78,-653.6C494.21,-643.09 463.23,-627.26 438.66,-614.7"/>
<polygon fill="black" stroke="black" points="440.08,-611.5 429.59,-610.07 436.9,-617.73 440.08,-611.5"/>
</g>
<!-- vtk -->
<g id="node24" class="node">
<title>vtk</title>
<g id="a_node24"><a xlink:href="https://github.com/conda-forge/vtk-feedstock/pull/102" xlink:title="vtk">
<ellipse fill="#31688e" stroke="black" cx="1015.1" cy="-738" rx="27" ry="18"/>
<text text-anchor="middle" x="1015.1" y="-734.3" font-family="Times,serif" font-size="14.00" fill="white">vtk</text>
</a>
</g>
</g>
<!-- smesh -->
<g id="node25" class="node">
<title>smesh</title>
<ellipse fill="#fde725" stroke="black" cx="952.1" cy="-666" rx="35.19" ry="18"/>
<text text-anchor="middle" x="952.1" y="-662.3" font-family="Times,serif" font-size="14.00">smesh</text>
</g>
<!-- vtk&#45;&gt;smesh -->
<g id="edge21" class="edge">
<title>vtk&#45;&gt;smesh</title>
<path fill="none" stroke="black" d="M1001.74,-722.15C993.45,-712.94 982.62,-700.91 973.19,-690.43"/>
<polygon fill="black" stroke="black" points="975.61,-687.89 966.31,-682.8 970.4,-692.57 975.61,-687.89"/>
</g>
<!-- freecad -->
<g id="node26" class="node">
<title>freecad</title>
<ellipse fill="#fde725" stroke="black" cx="952.1" cy="-594" rx="45" ry="18"/>
<text text-anchor="middle" x="952.1" y="-590.3" font-family="Times,serif" font-size="14.00">freecad</text>
</g>
<!-- vtk&#45;&gt;freecad -->
<g id="edge22" class="edge">
<title>vtk&#45;&gt;freecad</title>
<path fill="none" stroke="black" d="M1013.88,-719.81C1012.02,-701.28 1007.4,-671.31 996.1,-648 990.98,-637.46 983.34,-627.22 975.84,-618.6"/>
<polygon fill="black" stroke="black" points="978.41,-616.21 969.09,-611.17 973.23,-620.92 978.41,-616.21"/>
</g>
<!-- topologytoolkit -->
<g id="node27" class="node">
<title>topologytoolkit</title>
<ellipse fill="#fde725" stroke="black" cx="1099.1" cy="-594" rx="84" ry="18"/>
<text text-anchor="middle" x="1099.1" y="-590.3" font-family="Times,serif" font-size="14.00">topologytoolkit</text>
</g>
<!-- vtk&#45;&gt;topologytoolkit -->
<g id="edge23" class="edge">
<title>vtk&#45;&gt;topologytoolkit</title>
<path fill="none" stroke="black" d="M1024.57,-720.99C1038.97,-696.64 1066.52,-650.06 1083.79,-620.87"/>
<polygon fill="black" stroke="black" points="1086.93,-622.44 1089.01,-612.06 1080.9,-618.88 1086.93,-622.44"/>
</g>
<!-- smesh&#45;&gt;freecad -->
<g id="edge24" class="edge">
<title>smesh&#45;&gt;freecad</title>
<path fill="none" stroke="black" d="M952.1,-647.7C952.1,-639.98 952.1,-630.71 952.1,-622.11"/>
<polygon fill="black" stroke="black" points="955.6,-622.1 952.1,-612.1 948.6,-622.1 955.6,-622.1"/>
</g>
<!-- clsparse -->
<g id="node29" class="node">
<title>clsparse</title>
<g id="a_node29"><a xlink:href="https://github.com/conda-forge/clsparse-feedstock/pull/7" xlink:title="clsparse">
<ellipse fill="#31688e" stroke="black" cx="636.1" cy="-18" rx="50.09" ry="18"/>
<text text-anchor="middle" x="636.1" y="-14.3" font-family="Times,serif" font-size="14.00" fill="white">clsparse</text>
</a>
</g>
</g>
<!-- clfft&#45;&gt;clsparse -->
<!-- spdlib -->
<g id="node30" class="node">
<title>spdlib</title>
<g id="a_node30"><a xlink:href="https://github.com/conda-forge/spdlib-feedstock/pull/11" xlink:title="spdlib">
<ellipse fill="#31688e" stroke="black" cx="1251.1" cy="-738" rx="40.5" ry="18"/>
<text text-anchor="middle" x="1251.1" y="-734.3" font-family="Times,serif" font-size="14.00" fill="white">spdlib</text>
</a>
</g>
</g>
<!-- pcl -->
<g id="node31" class="node">
<title>pcl</title>
<g id="a_node31"><a xlink:href="https://github.com/conda-forge/pcl-feedstock/pull/20" xlink:title="pcl">
<ellipse fill="#31688e" stroke="black" cx="1251.1" cy="-666" rx="27" ry="18"/>
<text text-anchor="middle" x="1251.1" y="-662.3" font-family="Times,serif" font-size="14.00" fill="white">pcl</text>
</a>
</g>
</g>
<!-- spdlib&#45;&gt;pcl -->
<!-- trilinos -->
<g id="node32" class="node">
<title>trilinos</title>
<g id="a_node32"><a xlink:href="https://github.com/conda-forge/trilinos-feedstock/pull/29" xlink:title="trilinos">
<ellipse fill="#31688e" stroke="black" cx="1251.1" cy="-594" rx="50.09" ry="18"/>
<text text-anchor="middle" x="1251.1" y="-590.3" font-family="Times,serif" font-size="14.00" fill="white">trilinos</text>
</a>
</g>
</g>
<!-- pcl&#45;&gt;trilinos -->
<!-- libhdfs3 -->
<g id="node33" class="node">
<title>libhdfs3</title>
<g id="a_node33"><a xlink:href="https://github.com/conda-forge/libhdfs3-feedstock/pull/31" xlink:title="libhdfs3">
<ellipse fill="#31688e" stroke="black" cx="1251.1" cy="-522" rx="50.09" ry="18"/>
<text text-anchor="middle" x="1251.1" y="-518.3" font-family="Times,serif" font-size="14.00" fill="white">libhdfs3</text>
</a>
</g>
</g>
<!-- trilinos&#45;&gt;libhdfs3 -->
<!-- helics -->
<g id="node34" class="node">
<title>helics</title>
<g id="a_node34"><a xlink:href="https://github.com/conda-forge/helics-feedstock/pull/17" xlink:title="helics">
<ellipse fill="#31688e" stroke="black" cx="1251.1" cy="-450" rx="40.5" ry="18"/>
<text text-anchor="middle" x="1251.1" y="-446.3" font-family="Times,serif" font-size="14.00" fill="white">helics</text>
</a>
</g>
</g>
<!-- libhdfs3&#45;&gt;helics -->
<!-- nds2&#45;client -->
<g id="node35" class="node">
<title>nds2&#45;client</title>
<g id="a_node35"><a xlink:href="https://github.com/conda-forge/nds2-client-feedstock/pull/9" xlink:title="nds2 client">
<ellipse fill="#31688e" stroke="black" cx="1251.1" cy="-378" rx="64.5" ry="18"/>
<text text-anchor="middle" x="1251.1" y="-374.3" font-family="Times,serif" font-size="14.00" fill="white">nds2 client</text>
</a>
</g>
</g>
<!-- helics&#45;&gt;nds2&#45;client -->
<!-- gudhi -->
<g id="node36" class="node">
<title>gudhi</title>
<g id="a_node36"><a xlink:href="https://github.com/conda-forge/gudhi-feedstock/pull/16" xlink:title="gudhi">
<ellipse fill="#31688e" stroke="black" cx="1251.1" cy="-306" rx="35.19" ry="18"/>
<text text-anchor="middle" x="1251.1" y="-302.3" font-family="Times,serif" font-size="14.00" fill="white">gudhi</text>
</a>
</g>
</g>
<!-- nds2&#45;client&#45;&gt;gudhi -->
<!-- ldas&#45;tools&#45;diskcacheapi -->
<g id="node37" class="node">
<title>ldas&#45;tools&#45;diskcacheapi</title>
<g id="a_node37"><a xlink:href="https://github.com/conda-forge/ldas-tools-diskcacheapi-feedstock/pull/4" xlink:title="ldas tools diskcacheapi">
<ellipse fill="#31688e" stroke="black" cx="1251.1" cy="-234" rx="123" ry="18"/>
<text text-anchor="middle" x="1251.1" y="-230.3" font-family="Times,serif" font-size="14.00" fill="white">ldas tools diskcacheapi</text>
</a>
</g>
</g>
<!-- gudhi&#45;&gt;ldas&#45;tools&#45;diskcacheapi -->
<!-- libint -->
<g id="node38" class="node">
<title>libint</title>
<g id="a_node38"><a xlink:href="https://github.com/conda-forge/libint-feedstock/pull/5" xlink:title="libint">
<ellipse fill="#31688e" stroke="black" cx="1251.1" cy="-162" rx="40.5" ry="18"/>
<text text-anchor="middle" x="1251.1" y="-158.3" font-family="Times,serif" font-size="14.00" fill="white">libint</text>
</a>
</g>
</g>
<!-- ldas&#45;tools&#45;diskcacheapi&#45;&gt;libint -->
<!-- stir -->
<g id="node39" class="node">
<title>stir</title>
<g id="a_node39"><a xlink:href="https://github.com/conda-forge/stir-feedstock/pull/11" xlink:title="stir">
<ellipse fill="#31688e" stroke="black" cx="1251.1" cy="-90" rx="30.59" ry="18"/>
<text text-anchor="middle" x="1251.1" y="-86.3" font-family="Times,serif" font-size="14.00" fill="white">stir</text>
</a>
</g>
</g>
<!-- libint&#45;&gt;stir -->
<!-- dealii -->
<g id="node40" class="node">
<title>dealii</title>
<g id="a_node40"><a xlink:href="https://github.com/conda-forge/dealii-feedstock/pull/6" xlink:title="dealii">
<ellipse fill="#31688e" stroke="black" cx="1251.1" cy="-18" rx="40.5" ry="18"/>
<text text-anchor="middle" x="1251.1" y="-14.3" font-family="Times,serif" font-size="14.00" fill="white">dealii</text>
</a>
</g>
</g>
<!-- stir&#45;&gt;dealii -->
<!-- lhcb&#45;simpletools -->
<g id="node41" class="node">
<title>lhcb&#45;simpletools</title>
<g id="a_node41"><a xlink:href="https://github.com/conda-forge/lhcb-simpletools-feedstock/pull/4" xlink:title="lhcb simpletools">
<ellipse fill="#31688e" stroke="black" cx="1427.1" cy="-738" rx="89.08" ry="18"/>
<text text-anchor="middle" x="1427.1" y="-734.3" font-family="Times,serif" font-size="14.00" fill="white">lhcb simpletools</text>
</a>
</g>
</g>
<!-- omniscidb&#45;cpu -->
<g id="node42" class="node">
<title>omniscidb&#45;cpu</title>
<g id="a_node42"><a xlink:href="https://github.com/conda-forge/omniscidb-cpu-feedstock/pull/22" xlink:title="omniscidb cpu">
<ellipse fill="#31688e" stroke="black" cx="1427.1" cy="-666" rx="74.19" ry="18"/>
<text text-anchor="middle" x="1427.1" y="-662.3" font-family="Times,serif" font-size="14.00" fill="white">omniscidb cpu</text>
</a>
</g>
</g>
<!-- lhcb&#45;simpletools&#45;&gt;omniscidb&#45;cpu -->
<!-- ambertools -->
<g id="node43" class="node">
<title>ambertools</title>
<g id="a_node43"><a xlink:href="https://github.com/conda-forge/ambertools-feedstock/pull/25" xlink:title="ambertools">
<ellipse fill="#31688e" stroke="black" cx="1427.1" cy="-594" rx="60" ry="18"/>
<text text-anchor="middle" x="1427.1" y="-590.3" font-family="Times,serif" font-size="14.00" fill="white">ambertools</text>
</a>
</g>
</g>
<!-- omniscidb&#45;cpu&#45;&gt;ambertools -->
<!-- biorbd -->
<g id="node44" class="node">
<title>biorbd</title>
<g id="a_node44"><a xlink:href="https://github.com/conda-forge/biorbd-feedstock/pull/13" xlink:title="biorbd">
<ellipse fill="#31688e" stroke="black" cx="1427.1" cy="-522" rx="40.5" ry="18"/>
<text text-anchor="middle" x="1427.1" y="-518.3" font-family="Times,serif" font-size="14.00" fill="white">biorbd</text>
</a>
</g>
</g>
<!-- ambertools&#45;&gt;biorbd -->
<!-- dakota -->
<g id="node45" class="node">
<title>dakota</title>
<g id="a_node45"><a xlink:href="https://github.com/conda-forge/dakota-feedstock/pull/13" xlink:title="dakota">
<ellipse fill="#31688e" stroke="black" cx="1427.1" cy="-450" rx="40.5" ry="18"/>
<text text-anchor="middle" x="1427.1" y="-446.3" font-family="Times,serif" font-size="14.00" fill="white">dakota</text>
</a>
</g>
</g>
<!-- biorbd&#45;&gt;dakota -->
<!-- pyinterp -->
<g id="node52" class="node">
<title>pyinterp</title>
<g id="a_node52"><a xlink:href="https://github.com/conda-forge/pyinterp-feedstock/pull/15" xlink:title="pyinterp">
<ellipse fill="#31688e" stroke="black" cx="1427.1" cy="-378" rx="50.09" ry="18"/>
<text text-anchor="middle" x="1427.1" y="-374.3" font-family="Times,serif" font-size="14.00" fill="white">pyinterp</text>
</a>
</g>
</g>
<!-- dakota&#45;&gt;pyinterp -->
<!-- normaliz -->
<g id="node46" class="node">
<title>normaliz</title>
<g id="a_node46"><a xlink:href="https://github.com/conda-forge/normaliz-feedstock/pull/18" xlink:title="normaliz">
<ellipse fill="#31688e" stroke="black" cx="844.1" cy="-738" rx="50.09" ry="18"/>
<text text-anchor="middle" x="844.1" y="-734.3" font-family="Times,serif" font-size="14.00" fill="white">normaliz</text>
</a>
</g>
</g>
<!-- normaliz&#45;&gt;gap -->
<g id="edge41" class="edge">
<title>normaliz&#45;&gt;gap</title>
<path fill="none" stroke="black" d="M844.1,-719.7C844.1,-711.98 844.1,-702.71 844.1,-694.11"/>
<polygon fill="black" stroke="black" points="847.6,-694.1 844.1,-684.1 840.6,-694.1 847.6,-694.1"/>
</g>
<!-- xmscore -->
<g id="node47" class="node">
<title>xmscore</title>
<g id="a_node47"><a xlink:href="https://github.com/conda-forge/xmscore-feedstock/pull/4" xlink:title="xmscore">
<ellipse fill="#31688e" stroke="black" cx="1654.1" cy="-738" rx="45" ry="18"/>
<text text-anchor="middle" x="1654.1" y="-734.3" font-family="Times,serif" font-size="14.00" fill="white">xmscore</text>
</a>
</g>
</g>
<!-- xmsgrid -->
<g id="node48" class="node">
<title>xmsgrid</title>
<ellipse fill="#fde725" stroke="black" cx="1693.1" cy="-666" rx="45" ry="18"/>
<text text-anchor="middle" x="1693.1" y="-662.3" font-family="Times,serif" font-size="14.00">xmsgrid</text>
</g>
<!-- xmscore&#45;&gt;xmsgrid -->
<g id="edge42" class="edge">
<title>xmscore&#45;&gt;xmsgrid</title>
<path fill="none" stroke="black" d="M1663.54,-720.05C1668.14,-711.8 1673.76,-701.7 1678.87,-692.54"/>
<polygon fill="black" stroke="black" points="1681.93,-694.23 1683.74,-683.79 1675.82,-690.82 1681.93,-694.23"/>
</g>
<!-- xmsinterp -->
<g id="node49" class="node">
<title>xmsinterp</title>
<ellipse fill="#fde725" stroke="black" cx="1612.1" cy="-594" rx="54.69" ry="18"/>
<text text-anchor="middle" x="1612.1" y="-590.3" font-family="Times,serif" font-size="14.00">xmsinterp</text>
</g>
<!-- xmscore&#45;&gt;xmsinterp -->
<g id="edge43" class="edge">
<title>xmscore&#45;&gt;xmsinterp</title>
<path fill="none" stroke="black" d="M1649.03,-719.87C1641.84,-695.56 1628.61,-650.82 1620.09,-622.01"/>
<polygon fill="black" stroke="black" points="1623.37,-620.79 1617.18,-612.19 1616.66,-622.77 1623.37,-620.79"/>
</g>
<!-- xmsstamper -->
<g id="node50" class="node">
<title>xmsstamper</title>
<ellipse fill="#fde725" stroke="black" cx="1606.1" cy="-522" rx="60" ry="18"/>
<text text-anchor="middle" x="1606.1" y="-518.3" font-family="Times,serif" font-size="14.00">xmsstamper</text>
</g>
<!-- xmscore&#45;&gt;xmsstamper -->
<g id="edge44" class="edge">
<title>xmscore&#45;&gt;xmsstamper</title>
<path fill="none" stroke="black" d="M1634.57,-721.78C1608.98,-700.47 1565.35,-659.01 1548.1,-612 1542.59,-596.98 1541.64,-590.64 1548.1,-576 1553.48,-563.79 1563.22,-553.17 1573.2,-544.71"/>
<polygon fill="black" stroke="black" points="1575.51,-547.35 1581.18,-538.4 1571.17,-541.86 1575.51,-547.35"/>
</g>
<!-- xmsmesher -->
<g id="node51" class="node">
<title>xmsmesher</title>
<ellipse fill="#fde725" stroke="black" cx="1739.1" cy="-522" rx="54.69" ry="18"/>
<text text-anchor="middle" x="1739.1" y="-518.3" font-family="Times,serif" font-size="14.00">xmsmesher</text>
</g>
<!-- xmscore&#45;&gt;xmsmesher -->
<g id="edge45" class="edge">
<title>xmscore&#45;&gt;xmsmesher</title>
<path fill="none" stroke="black" d="M1689.74,-726.67C1710.43,-718.64 1734.77,-705.21 1747.1,-684 1771.44,-642.12 1759.2,-583.27 1748.73,-549.54"/>
<polygon fill="black" stroke="black" points="1752.02,-548.34 1745.58,-539.93 1745.37,-550.52 1752.02,-548.34"/>
</g>
<!-- xmsgrid&#45;&gt;xmsinterp -->
<g id="edge46" class="edge">
<title>xmsgrid&#45;&gt;xmsinterp</title>
<path fill="none" stroke="black" d="M1675.12,-649.46C1664.26,-640.08 1650.24,-627.96 1638.17,-617.54"/>
<polygon fill="black" stroke="black" points="1640.44,-614.87 1630.58,-610.98 1635.86,-620.16 1640.44,-614.87"/>
</g>
<!-- xmsgrid&#45;&gt;xmsstamper -->
<g id="edge47" class="edge">
<title>xmsgrid&#45;&gt;xmsstamper</title>
<path fill="none" stroke="black" d="M1693.38,-647.96C1692.93,-629.02 1689.87,-598.18 1676.1,-576 1667.99,-562.95 1655.43,-551.97 1643.17,-543.44"/>
<polygon fill="black" stroke="black" points="1645.06,-540.5 1634.78,-537.93 1641.22,-546.35 1645.06,-540.5"/>
</g>
<!-- xmsgrid&#45;&gt;xmsmesher -->
<g id="edge48" class="edge">
<title>xmsgrid&#45;&gt;xmsmesher</title>
<path fill="none" stroke="black" d="M1698.65,-647.87C1706.52,-623.56 1721.01,-578.82 1730.35,-550.01"/>
<polygon fill="black" stroke="black" points="1733.78,-550.78 1733.53,-540.19 1727.12,-548.62 1733.78,-550.78"/>
</g>
<!-- xmsinterp&#45;&gt;xmsstamper -->
<g id="edge49" class="edge">
<title>xmsinterp&#45;&gt;xmsstamper</title>
<path fill="none" stroke="black" d="M1610.61,-575.7C1609.95,-567.98 1609.16,-558.71 1608.42,-550.11"/>
<polygon fill="black" stroke="black" points="1611.9,-549.77 1607.56,-540.1 1604.93,-550.37 1611.9,-549.77"/>
</g>
<!-- xmsinterp&#45;&gt;xmsmesher -->
<g id="edge50" class="edge">
<title>xmsinterp&#45;&gt;xmsmesher</title>
<path fill="none" stroke="black" d="M1639.03,-578.15C1657.72,-567.85 1682.82,-554.02 1703.21,-542.78"/>
<polygon fill="black" stroke="black" points="1705.13,-545.72 1712.2,-537.82 1701.75,-539.59 1705.13,-545.72"/>
</g>
<!-- atomicrex -->
<g id="node53" class="node">
<title>atomicrex</title>
<g id="a_node53"><a xlink:href="https://github.com/conda-forge/atomicrex-feedstock/pull/2" xlink:title="atomicrex">
<ellipse fill="#31688e" stroke="black" cx="1427.1" cy="-306" rx="54.69" ry="18"/>
<text text-anchor="middle" x="1427.1" y="-302.3" font-family="Times,serif" font-size="14.00" fill="white">atomicrex</text>
</a>
</g>
</g>
<!-- pyinterp&#45;&gt;atomicrex -->
<!-- triqs -->
<g id="node54" class="node">
<title>triqs</title>
<g id="a_node54"><a xlink:href="https://github.com/conda-forge/triqs-feedstock/pull/4" xlink:title="triqs">
<ellipse fill="#31688e" stroke="black" cx="1427.1" cy="-234" rx="35.19" ry="18"/>
<text text-anchor="middle" x="1427.1" y="-230.3" font-family="Times,serif" font-size="14.00" fill="white">triqs</text>
</a>
</g>
</g>
<!-- atomicrex&#45;&gt;triqs -->
<!-- gazebo -->
<g id="node55" class="node">
<title>gazebo</title>
<g id="a_node55"><a xlink:href="https://github.com/conda-forge/gazebo-feedstock/pull/6" xlink:title="gazebo">
<ellipse fill="#31688e" stroke="black" cx="1427.1" cy="-162" rx="40.5" ry="18"/>
<text text-anchor="middle" x="1427.1" y="-158.3" font-family="Times,serif" font-size="14.00" fill="white">gazebo</text>
</a>
</g>
</g>
<!-- triqs&#45;&gt;gazebo -->
<!-- gnuradio -->
<g id="node70" class="node">
<title>gnuradio</title>
<g id="a_node70"><a xlink:href="https://github.com/conda-forge/gnuradio-feedstock/pull/6" xlink:title="gnuradio">
<ellipse fill="#31688e" stroke="black" cx="1427.1" cy="-90" rx="50.09" ry="18"/>
<text text-anchor="middle" x="1427.1" y="-86.3" font-family="Times,serif" font-size="14.00" fill="white">gnuradio</text>
</a>
</g>
</g>
<!-- gazebo&#45;&gt;gnuradio -->
<!-- ros&#45;cpp&#45;common -->
<g id="node56" class="node">
<title>ros&#45;cpp&#45;common</title>
<g id="a_node56"><a xlink:href="https://github.com/conda-forge/ros-cpp-common-feedstock/pull/6" xlink:title="ros cpp common">
<ellipse fill="#31688e" stroke="black" cx="2841.1" cy="-738" rx="79.5" ry="18"/>
<text text-anchor="middle" x="2841.1" y="-734.3" font-family="Times,serif" font-size="14.00" fill="white">ros cpp common</text>
</a>
</g>
</g>
<!-- ros&#45;rostime -->
<g id="node57" class="node">
<title>ros&#45;rostime</title>
<ellipse fill="#fde725" stroke="black" cx="2256.1" cy="-666" rx="64.5" ry="18"/>
<text text-anchor="middle" x="2256.1" y="-662.3" font-family="Times,serif" font-size="14.00">ros rostime</text>
</g>
<!-- ros&#45;cpp&#45;common&#45;&gt;ros&#45;rostime -->
<g id="edge55" class="edge">
<title>ros&#45;cpp&#45;common&#45;&gt;ros&#45;rostime</title>
<path fill="none" stroke="black" d="M2772.56,-728.8C2659.91,-715.32 2436.94,-688.64 2324.43,-675.18"/>
<polygon fill="black" stroke="black" points="2324.57,-671.67 2314.22,-673.96 2323.73,-678.62 2324.57,-671.67"/>
</g>
<!-- ros&#45;rosconsole -->
<g id="node58" class="node">
<title>ros&#45;rosconsole</title>
<ellipse fill="#fde725" stroke="black" cx="2256.1" cy="-594" rx="79.5" ry="18"/>
<text text-anchor="middle" x="2256.1" y="-590.3" font-family="Times,serif" font-size="14.00">ros rosconsole</text>
</g>
<!-- ros&#45;cpp&#45;common&#45;&gt;ros&#45;rosconsole -->
<g id="edge56" class="edge">
<title>ros&#45;cpp&#45;common&#45;&gt;ros&#45;rosconsole</title>
<path fill="none" stroke="black" d="M2788.92,-724.34C2681.03,-698.15 2433.81,-638.14 2318.04,-610.04"/>
<polygon fill="black" stroke="black" points="2318.8,-606.62 2308.26,-607.66 2317.15,-613.42 2318.8,-606.62"/>
</g>
<!-- ros&#45;rosbag&#45;storage -->
<g id="node59" class="node">
<title>ros&#45;rosbag&#45;storage</title>
<ellipse fill="#fde725" stroke="black" cx="2140.1" cy="-450" rx="99" ry="18"/>
<text text-anchor="middle" x="2140.1" y="-446.3" font-family="Times,serif" font-size="14.00">ros rosbag storage</text>
</g>
<!-- ros&#45;cpp&#45;common&#45;&gt;ros&#45;rosbag&#45;storage -->
<g id="edge57" class="edge">
<title>ros&#45;cpp&#45;common&#45;&gt;ros&#45;rosbag&#45;storage</title>
<path fill="none" stroke="black" d="M2855.5,-720.16C2889.75,-678.06 2968.97,-567.06 2910.1,-504 2866.01,-456.77 2451.3,-450.62 2249.44,-450.46"/>
<polygon fill="black" stroke="black" points="2249.4,-446.96 2239.4,-450.46 2249.4,-453.96 2249.4,-446.96"/>
</g>
<!-- ros&#45;rosbag -->
<g id="node60" class="node">
<title>ros&#45;rosbag</title>
<ellipse fill="#fde725" stroke="black" cx="2076.1" cy="-378" rx="60" ry="18"/>
<text text-anchor="middle" x="2076.1" y="-374.3" font-family="Times,serif" font-size="14.00">ros rosbag</text>
</g>
<!-- ros&#45;cpp&#45;common&#45;&gt;ros&#45;rosbag -->
<g id="edge58" class="edge">
<title>ros&#45;cpp&#45;common&#45;&gt;ros&#45;rosbag</title>
<path fill="none" stroke="black" d="M2887.75,-723.34C2941.97,-704.26 3024.1,-663.97 3024.1,-595 3024.1,-595 3024.1,-595 3024.1,-521 3024.1,-423.71 2918.49,-455.57 2824.1,-432 2696.79,-400.21 2306.21,-385.62 2145.89,-380.86"/>
<polygon fill="black" stroke="black" points="2145.76,-377.35 2135.66,-380.56 2145.56,-384.35 2145.76,-377.35"/>
</g>
<!-- ros&#45;dynamic&#45;reconfigure -->
<g id="node61" class="node">
<title>ros&#45;dynamic&#45;reconfigure</title>
<ellipse fill="#fde725" stroke="black" cx="2759.1" cy="-522" rx="123" ry="18"/>
<text text-anchor="middle" x="2759.1" y="-518.3" font-family="Times,serif" font-size="14.00">ros dynamic reconfigure</text>
</g>
<!-- ros&#45;cpp&#45;common&#45;&gt;ros&#45;dynamic&#45;reconfigure -->
<g id="edge59" class="edge">
<title>ros&#45;cpp&#45;common&#45;&gt;ros&#45;dynamic&#45;reconfigure</title>
<path fill="none" stroke="black" d="M2842.68,-719.82C2844.72,-689.02 2845.42,-623.19 2820.1,-576 2813.87,-564.39 2804,-554.17 2794,-545.88"/>
<polygon fill="black" stroke="black" points="2796.06,-543.04 2786.03,-539.65 2791.76,-548.56 2796.06,-543.04"/>
</g>
<!-- ros&#45;rostime&#45;&gt;ros&#45;rosconsole -->
<g id="edge60" class="edge">
<title>ros&#45;rostime&#45;&gt;ros&#45;rosconsole</title>
<path fill="none" stroke="black" d="M2256.1,-647.7C2256.1,-639.98 2256.1,-630.71 2256.1,-622.11"/>
<polygon fill="black" stroke="black" points="2259.6,-622.1 2256.1,-612.1 2252.6,-622.1 2259.6,-622.1"/>
</g>
<!-- ros&#45;rostime&#45;&gt;ros&#45;rosbag&#45;storage -->
<g id="edge61" class="edge">
<title>ros&#45;rostime&#45;&gt;ros&#45;rosbag&#45;storage</title>
<path fill="none" stroke="black" d="M2191.58,-664.48C2103.27,-662.25 1951.71,-652.45 1917.1,-612 1861.4,-546.92 1993.27,-493.99 2077.18,-468.14"/>
<polygon fill="black" stroke="black" points="2078.35,-471.44 2086.91,-465.2 2076.32,-464.74 2078.35,-471.44"/>
</g>
<!-- ros&#45;rostime&#45;&gt;ros&#45;rosbag -->
<g id="edge62" class="edge">
<title>ros&#45;rostime&#45;&gt;ros&#45;rosbag</title>
<path fill="none" stroke="black" d="M2191.46,-665.04C2099.25,-663.57 1936.97,-654.77 1900.1,-612 1863.11,-569.1 1857.01,-528.32 1946.1,-432 1964.73,-411.86 1992.1,-399.18 2016.94,-391.3"/>
<polygon fill="black" stroke="black" points="2018.08,-394.62 2026.67,-388.41 2016.08,-387.91 2018.08,-394.62"/>
</g>
<!-- ros&#45;actionlib -->
<g id="node62" class="node">
<title>ros&#45;actionlib</title>
<ellipse fill="#fde725" stroke="black" cx="2506.1" cy="-522" rx="74.19" ry="18"/>
<text text-anchor="middle" x="2506.1" y="-518.3" font-family="Times,serif" font-size="14.00">ros actionlib</text>
</g>
<!-- ros&#45;rostime&#45;&gt;ros&#45;actionlib -->
<g id="edge63" class="edge">
<title>ros&#45;rostime&#45;&gt;ros&#45;actionlib</title>
<path fill="none" stroke="black" d="M2283.33,-649.53C2328.36,-623.95 2418.41,-572.81 2469.14,-543.99"/>
<polygon fill="black" stroke="black" points="2471.17,-546.86 2478.14,-538.88 2467.71,-540.78 2471.17,-546.86"/>
</g>
<!-- ros&#45;rosconsole&#45;&gt;ros&#45;rosbag&#45;storage -->
<g id="edge64" class="edge">
<title>ros&#45;rosconsole&#45;&gt;ros&#45;rosbag&#45;storage</title>
<path fill="none" stroke="black" d="M2235.16,-576.57C2223.26,-566.68 2208.51,-553.43 2197.1,-540 2180.33,-520.26 2164.72,-495.23 2154.09,-476.75"/>
<polygon fill="black" stroke="black" points="2157.12,-474.98 2149.15,-468 2151.02,-478.43 2157.12,-474.98"/>
</g>
<!-- ros&#45;rosconsole&#45;&gt;ros&#45;rosbag -->
<g id="edge65" class="edge">
<title>ros&#45;rosconsole&#45;&gt;ros&#45;rosbag</title>
<path fill="none" stroke="black" d="M2189.61,-584.03C2115.86,-573.39 2005.54,-555.21 1993.1,-540 1957.45,-496.45 2012.21,-435.11 2048.39,-402.13"/>
<polygon fill="black" stroke="black" points="2051.09,-404.42 2056.23,-395.16 2046.43,-399.19 2051.09,-404.42"/>
</g>
<!-- ros&#45;rosconsole&#45;&gt;ros&#45;actionlib -->
<g id="edge66" class="edge">
<title>ros&#45;rosconsole&#45;&gt;ros&#45;actionlib</title>
<path fill="none" stroke="black" d="M2304,-579.59C2345.52,-567.96 2405.66,-551.12 2449.54,-538.84"/>
<polygon fill="black" stroke="black" points="2450.51,-542.2 2459.2,-536.13 2448.63,-535.46 2450.51,-542.2"/>
</g>
<!-- ros&#45;pluginlib -->
<g id="node63" class="node">
<title>ros&#45;pluginlib</title>
<ellipse fill="#fde725" stroke="black" cx="2076.1" cy="-522" rx="74.19" ry="18"/>
<text text-anchor="middle" x="2076.1" y="-518.3" font-family="Times,serif" font-size="14.00">ros pluginlib</text>
</g>
<!-- ros&#45;rosconsole&#45;&gt;ros&#45;pluginlib -->
<g id="edge67" class="edge">
<title>ros&#45;rosconsole&#45;&gt;ros&#45;pluginlib</title>
<path fill="none" stroke="black" d="M2217.92,-578.15C2190.29,-567.41 2152.78,-552.82 2123.27,-541.35"/>
<polygon fill="black" stroke="black" points="2124.19,-537.95 2113.6,-537.58 2121.65,-544.47 2124.19,-537.95"/>
</g>
<!-- ros&#45;message&#45;filters -->
<g id="node64" class="node">
<title>ros&#45;message&#45;filters</title>
<ellipse fill="#fde725" stroke="black" cx="2310.1" cy="-522" rx="103.5" ry="18"/>
<text text-anchor="middle" x="2310.1" y="-518.3" font-family="Times,serif" font-size="14.00">ros message filters</text>
</g>
<!-- ros&#45;rosconsole&#45;&gt;ros&#45;message&#45;filters -->
<g id="edge68" class="edge">
<title>ros&#45;rosconsole&#45;&gt;ros&#45;message&#45;filters</title>
<path fill="none" stroke="black" d="M2269.17,-576.05C2275.57,-567.75 2283.42,-557.58 2290.52,-548.38"/>
<polygon fill="black" stroke="black" points="2293.43,-550.33 2296.77,-540.28 2287.89,-546.06 2293.43,-550.33"/>
</g>
<!-- ros&#45;rosbag&#45;storage&#45;&gt;ros&#45;rosbag -->
<g id="edge69" class="edge">
<title>ros&#45;rosbag&#45;storage&#45;&gt;ros&#45;rosbag</title>
<path fill="none" stroke="black" d="M2124.6,-432.05C2116.74,-423.46 2107.05,-412.86 2098.4,-403.4"/>
<polygon fill="black" stroke="black" points="2100.78,-400.81 2091.45,-395.79 2095.61,-405.53 2100.78,-400.81"/>
</g>
<!-- ros&#45;pluginlib&#45;&gt;ros&#45;rosbag&#45;storage -->
<g id="edge79" class="edge">
<title>ros&#45;pluginlib&#45;&gt;ros&#45;rosbag&#45;storage</title>
<path fill="none" stroke="black" d="M2091.59,-504.05C2099.45,-495.46 2109.14,-484.86 2117.79,-475.4"/>
<polygon fill="black" stroke="black" points="2120.58,-477.53 2124.75,-467.79 2115.42,-472.81 2120.58,-477.53"/>
</g>
<!-- ros&#45;rospack -->
<g id="node65" class="node">
<title>ros&#45;rospack</title>
<g id="a_node65"><a xlink:href="https://github.com/conda-forge/ros-rospack-feedstock/pull/4" xlink:title="ros rospack">
<ellipse fill="#31688e" stroke="black" cx="2748.1" cy="-666" rx="64.5" ry="18"/>
<text text-anchor="middle" x="2748.1" y="-662.3" font-family="Times,serif" font-size="14.00" fill="white">ros rospack</text>
</a>
</g>
</g>
<!-- ros&#45;roslib -->
<g id="node66" class="node">
<title>ros&#45;roslib</title>
<ellipse fill="#fde725" stroke="black" cx="2751.1" cy="-594" rx="60" ry="18"/>
<text text-anchor="middle" x="2751.1" y="-590.3" font-family="Times,serif" font-size="14.00">ros roslib</text>
</g>
<!-- ros&#45;rospack&#45;&gt;ros&#45;roslib -->
<g id="edge70" class="edge">
<title>ros&#45;rospack&#45;&gt;ros&#45;roslib</title>
<path fill="none" stroke="black" d="M2748.84,-647.7C2749.17,-639.98 2749.57,-630.71 2749.93,-622.11"/>
<polygon fill="black" stroke="black" points="2753.43,-622.25 2750.36,-612.1 2746.44,-621.95 2753.43,-622.25"/>
</g>
<!-- ros&#45;roslib&#45;&gt;ros&#45;rosbag&#45;storage -->
<g id="edge71" class="edge">
<title>ros&#45;roslib&#45;&gt;ros&#45;rosbag&#45;storage</title>
<path fill="none" stroke="black" d="M2797.33,-582.25C2850.06,-567.96 2924.87,-540.24 2891.1,-504 2848.32,-458.09 2447.12,-451.24 2249.31,-450.68"/>
<polygon fill="black" stroke="black" points="2249.19,-447.17 2239.18,-450.65 2249.17,-454.17 2249.19,-447.17"/>
</g>
<!-- ros&#45;roslib&#45;&gt;ros&#45;rosbag -->
<g id="edge72" class="edge">
<title>ros&#45;roslib&#45;&gt;ros&#45;rosbag</title>
<path fill="none" stroke="black" d="M2801.41,-584.13C2860.4,-571.61 2945.86,-545.53 2910.1,-504 2811.4,-389.41 2328.85,-378.36 2146.27,-378.37"/>
<polygon fill="black" stroke="black" points="2146.23,-374.87 2136.24,-378.38 2146.24,-381.87 2146.23,-374.87"/>
</g>
<!-- ros&#45;roslib&#45;&gt;ros&#45;dynamic&#45;reconfigure -->
<g id="edge73" class="edge">
<title>ros&#45;roslib&#45;&gt;ros&#45;dynamic&#45;reconfigure</title>
<path fill="none" stroke="black" d="M2753.07,-575.7C2753.96,-567.98 2755.02,-558.71 2756,-550.11"/>
<polygon fill="black" stroke="black" points="2759.48,-550.44 2757.14,-540.1 2752.53,-549.64 2759.48,-550.44"/>
</g>
<!-- ros&#45;roslib&#45;&gt;ros&#45;actionlib -->
<g id="edge74" class="edge">
<title>ros&#45;roslib&#45;&gt;ros&#45;actionlib</title>
<path fill="none" stroke="black" d="M2709.26,-581.05C2668.73,-569.47 2606.99,-551.83 2562.2,-539.03"/>
<polygon fill="black" stroke="black" points="2562.93,-535.6 2552.35,-536.22 2561.01,-542.33 2562.93,-535.6"/>
</g>
<!-- ros&#45;roslib&#45;&gt;ros&#45;pluginlib -->
<g id="edge75" class="edge">
<title>ros&#45;roslib&#45;&gt;ros&#45;pluginlib</title>
<path fill="none" stroke="black" d="M2707.09,-581.74C2697.27,-579.55 2686.87,-577.48 2677.1,-576 2465.58,-543.96 2409.8,-562.89 2197.1,-540 2180.85,-538.25 2163.43,-536.02 2147.01,-533.75"/>
<polygon fill="black" stroke="black" points="2147.33,-530.26 2136.94,-532.33 2146.35,-537.19 2147.33,-530.26"/>
</g>
<!-- ros&#45;class&#45;loader -->
<g id="node67" class="node">
<title>ros&#45;class&#45;loader</title>
<g id="a_node67"><a xlink:href="https://github.com/conda-forge/ros-class-loader-feedstock/pull/2" xlink:title="ros class loader">
<ellipse fill="#31688e" stroke="black" cx="2015.1" cy="-594" rx="89.08" ry="18"/>
<text text-anchor="middle" x="2015.1" y="-590.3" font-family="Times,serif" font-size="14.00" fill="white">ros class loader</text>
</a>
</g>
</g>
<!-- ros&#45;class&#45;loader&#45;&gt;ros&#45;rosbag&#45;storage -->
<g id="edge76" class="edge">
<title>ros&#45;class&#45;loader&#45;&gt;ros&#45;rosbag&#45;storage</title>
<path fill="none" stroke="black" d="M2003.43,-576.1C1991.84,-557 1977.82,-525.75 1993.1,-504 2006.95,-484.28 2028.88,-471.87 2051.62,-464.06"/>
<polygon fill="black" stroke="black" points="2052.9,-467.33 2061.39,-460.99 2050.8,-460.65 2052.9,-467.33"/>
</g>
<!-- ros&#45;class&#45;loader&#45;&gt;ros&#45;rosbag -->
<g id="edge77" class="edge">
<title>ros&#45;class&#45;loader&#45;&gt;ros&#45;rosbag</title>
<path fill="none" stroke="black" d="M1999.97,-575.83C1974.75,-545.03 1929.76,-479.21 1960.1,-432 1972.97,-411.96 1995.51,-399.4 2017.32,-391.58"/>
<polygon fill="black" stroke="black" points="2018.52,-394.87 2026.92,-388.41 2016.33,-388.22 2018.52,-394.87"/>
</g>
<!-- ros&#45;class&#45;loader&#45;&gt;ros&#45;pluginlib -->
<g id="edge78" class="edge">
<title>ros&#45;class&#45;loader&#45;&gt;ros&#45;pluginlib</title>
<path fill="none" stroke="black" d="M2029.86,-576.05C2037.36,-567.46 2046.59,-556.86 2054.84,-547.4"/>
<polygon fill="black" stroke="black" points="2057.54,-549.63 2061.47,-539.79 2052.26,-545.03 2057.54,-549.63"/>
</g>
<!-- obake -->
<g id="node68" class="node">
<title>obake</title>
<g id="a_node68"><a xlink:href="https://github.com/conda-forge/obake-feedstock/pull/7" xlink:title="obake">
<ellipse fill="#31688e" stroke="black" cx="518.1" cy="-738" rx="35.19" ry="18"/>
<text text-anchor="middle" x="518.1" y="-734.3" font-family="Times,serif" font-size="14.00" fill="white">obake</text>
</a>
</g>
</g>
<!-- obake&#45;&gt;dcgp&#45;python -->
<g id="edge80" class="edge">
<title>obake&#45;&gt;dcgp&#45;python</title>
<path fill="none" stroke="black" d="M508.8,-720.37C498.04,-701.8 479.21,-671.29 459.1,-648 449.94,-637.39 438.74,-626.84 428.56,-617.98"/>
<polygon fill="black" stroke="black" points="430.56,-615.08 420.68,-611.26 426.02,-620.41 430.56,-615.08"/>
</g>
<!-- obake&#45;&gt;audi -->
<g id="edge81" class="edge">
<title>obake&#45;&gt;audi</title>
<path fill="none" stroke="black" d="M522.7,-720.05C524.81,-712.26 527.37,-702.82 529.75,-694.08"/>
<polygon fill="black" stroke="black" points="533.17,-694.84 532.41,-684.28 526.41,-693.01 533.17,-694.84"/>
</g>
<!-- ros&#45;rostest -->
<g id="node69" class="node">
<title>ros&#45;rostest</title>
<g id="a_node69"><a xlink:href="https://github.com/conda-forge/ros-rostest-feedstock/pull/2" xlink:title="ros rostest">
<ellipse fill="#31688e" stroke="black" cx="2604.1" cy="-594" rx="64.5" ry="18"/>
<text text-anchor="middle" x="2604.1" y="-590.3" font-family="Times,serif" font-size="14.00" fill="white">ros rostest</text>
</a>
</g>
</g>
<!-- ros&#45;rostest&#45;&gt;ros&#45;rosbag&#45;storage -->
<g id="edge82" class="edge">
<title>ros&#45;rostest&#45;&gt;ros&#45;rosbag&#45;storage</title>
<path fill="none" stroke="black" d="M2606.69,-575.83C2608.68,-555.59 2608.39,-522.36 2589.1,-504 2564.54,-480.63 2368.63,-464.66 2243.83,-456.75"/>
<polygon fill="black" stroke="black" points="2243.68,-453.24 2233.48,-456.1 2243.24,-460.22 2243.68,-453.24"/>
</g>
<!-- ros&#45;rostest&#45;&gt;ros&#45;dynamic&#45;reconfigure -->
<g id="edge83" class="edge">
<title>ros&#45;rostest&#45;&gt;ros&#45;dynamic&#45;reconfigure</title>
<path fill="none" stroke="black" d="M2636.59,-578.33C2659.02,-568.19 2689.16,-554.59 2713.92,-543.4"/>
<polygon fill="black" stroke="black" points="2715.45,-546.55 2723.13,-539.24 2712.57,-540.17 2715.45,-546.55"/>
</g>
<!-- ros&#45;rostest&#45;&gt;ros&#45;actionlib -->
<g id="edge84" class="edge">
<title>ros&#45;rostest&#45;&gt;ros&#45;actionlib</title>
<path fill="none" stroke="black" d="M2581.37,-576.76C2568.13,-567.31 2551.27,-555.26 2536.86,-544.97"/>
<polygon fill="black" stroke="black" points="2538.87,-542.11 2528.7,-539.15 2534.81,-547.81 2538.87,-542.11"/>
</g>
<!-- ros&#45;rostest&#45;&gt;ros&#45;message&#45;filters -->
<g id="edge85" class="edge">
<title>ros&#45;rostest&#45;&gt;ros&#45;message&#45;filters</title>
<path fill="none" stroke="black" d="M2556.53,-581.68C2508.26,-570.18 2433.07,-552.28 2378.43,-539.27"/>
<polygon fill="black" stroke="black" points="2379.01,-535.81 2368.47,-536.9 2377.39,-542.62 2379.01,-535.81"/>
</g>
<!-- moldyn&#45;clustering -->
<g id="node71" class="node">
<title>moldyn&#45;clustering</title>
<g id="a_node71"><a xlink:href="https://github.com/conda-forge/moldyn-clustering-feedstock/pull/2" xlink:title="moldyn clustering">
<ellipse fill="#31688e" stroke="black" cx="1427.1" cy="-18" rx="93.68" ry="18"/>
<text text-anchor="middle" x="1427.1" y="-14.3" font-family="Times,serif" font-size="14.00" fill="white">moldyn clustering</text>
</a>
</g>
</g>
<!-- gnuradio&#45;&gt;moldyn&#45;clustering -->
<!-- standardese -->
<g id="node72" class="node">
<title>standardese</title>
<g id="a_node72"><a xlink:href="https://github.com/conda-forge/standardese-feedstock/pull/1" xlink:title="standardese">
<ellipse fill="#31688e" stroke="black" cx="3161.1" cy="-738" rx="64.5" ry="18"/>
<text text-anchor="middle" x="3161.1" y="-734.3" font-family="Times,serif" font-size="14.00" fill="white">standardese</text>
</a>
</g>
</g>
<!-- magics&#45;metview&#45;batch -->
<g id="node73" class="node">
<title>magics&#45;metview&#45;batch</title>
<g id="a_node73"><a xlink:href="https://github.com/conda-forge/magics-metview-batch-feedstock/pull/1" xlink:title="magics metview batch">
<ellipse fill="#31688e" stroke="black" cx="3161.1" cy="-666" rx="108.58" ry="18"/>
<text text-anchor="middle" x="3161.1" y="-662.3" font-family="Times,serif" font-size="14.00" fill="white">magics metview batch</text>
</a>
</g>
</g>
<!-- standardese&#45;&gt;magics&#45;metview&#45;batch -->
</g>
</svg>
