<?xml version="1.0" encoding="UTF-8" standalone="no"?>
<!DOCTYPE svg PUBLIC "-//W3C//DTD SVG 1.1//EN"
 "http://www.w3.org/Graphics/SVG/1.1/DTD/svg11.dtd">
<!-- Generated by graphviz version 2.42.3 (20191010.1750)
 -->
<!-- Title: %3 Pages: 1 -->
<svg width="2121pt" height="764pt"
 viewBox="0.00 0.00 2120.87 764.00" xmlns="http://www.w3.org/2000/svg" xmlns:xlink="http://www.w3.org/1999/xlink">
<g id="graph0" class="graph" transform="scale(1 1) rotate(0) translate(4 760)">
<title>%3</title>
<polygon fill="white" stroke="transparent" points="-4,4 -4,-760 2116.87,-760 2116.87,4 -4,4"/>
<!-- cyclus -->
<g id="node1" class="node">
<title>cyclus</title>
<g id="a_node1"><a xlink:href="https://github.com/conda-forge/cyclus-feedstock/pull/54" xlink:title="cyclus">
<ellipse fill="#31688e" stroke="black" cx="64.5" cy="-738" rx="40.5" ry="18"/>
<text text-anchor="middle" x="64.5" y="-734.3" font-family="Times,serif" font-size="14.00" fill="white">cyclus</text>
</a>
</g>
</g>
<!-- dionysus -->
<g id="node2" class="node">
<title>dionysus</title>
<g id="a_node2"><a xlink:href="https://github.com/conda-forge/dionysus-feedstock/pull/7" xlink:title="dionysus">
<ellipse fill="#31688e" stroke="black" cx="64.5" cy="-666" rx="50.09" ry="18"/>
<text text-anchor="middle" x="64.5" y="-662.3" font-family="Times,serif" font-size="14.00" fill="white">dionysus</text>
</a>
</g>
</g>
<!-- cyclus&#45;&gt;dionysus -->
<!-- libradolan -->
<g id="node3" class="node">
<title>libradolan</title>
<g id="a_node3"><a xlink:href="https://github.com/conda-forge/libradolan-feedstock/pull/22" xlink:title="libradolan">
<ellipse fill="#31688e" stroke="black" cx="64.5" cy="-594" rx="60" ry="18"/>
<text text-anchor="middle" x="64.5" y="-590.3" font-family="Times,serif" font-size="14.00" fill="white">libradolan</text>
</a>
</g>
</g>
<!-- dionysus&#45;&gt;libradolan -->
<!-- msgpack&#45;c -->
<g id="node8" class="node">
<title>msgpack&#45;c</title>
<g id="a_node8"><a xlink:href="https://github.com/conda-forge/msgpack-c-feedstock/pull/17" xlink:title="msgpack c">
<ellipse fill="#31688e" stroke="black" cx="64.5" cy="-522" rx="54.69" ry="18"/>
<text text-anchor="middle" x="64.5" y="-518.3" font-family="Times,serif" font-size="14.00" fill="white">msgpack c</text>
</a>
</g>
</g>
<!-- libradolan&#45;&gt;msgpack&#45;c -->
<!-- fenics -->
<g id="node4" class="node">
<title>fenics</title>
<g id="a_node4"><a xlink:href="https://github.com/conda-forge/fenics-feedstock/pull/106" xlink:title="fenics">
<ellipse fill="#31688e" stroke="black" cx="163.5" cy="-738" rx="40.5" ry="18"/>
<text text-anchor="middle" x="163.5" y="-734.3" font-family="Times,serif" font-size="14.00" fill="white">fenics</text>
</a>
</g>
</g>
<!-- mshr -->
<g id="node5" class="node">
<title>mshr</title>
<ellipse fill="#fde725" stroke="black" cx="163.5" cy="-666" rx="30.59" ry="18"/>
<text text-anchor="middle" x="163.5" y="-662.3" font-family="Times,serif" font-size="14.00">mshr</text>
</g>
<!-- fenics&#45;&gt;mshr -->
<g id="edge3" class="edge">
<title>fenics&#45;&gt;mshr</title>
<path fill="none" stroke="black" d="M163.5,-719.7C163.5,-711.98 163.5,-702.71 163.5,-694.11"/>
<polygon fill="black" stroke="black" points="167,-694.1 163.5,-684.1 160,-694.1 167,-694.1"/>
</g>
<!-- gap -->
<g id="node6" class="node">
<title>gap</title>
<ellipse fill="#fde725" stroke="black" cx="272.5" cy="-666" rx="27" ry="18"/>
<text text-anchor="middle" x="272.5" y="-662.3" font-family="Times,serif" font-size="14.00">gap</text>
</g>
<!-- sagelib -->
<g id="node7" class="node">
<title>sagelib</title>
<ellipse fill="#fde725" stroke="black" cx="272.5" cy="-594" rx="45" ry="18"/>
<text text-anchor="middle" x="272.5" y="-590.3" font-family="Times,serif" font-size="14.00">sagelib</text>
</g>
<!-- gap&#45;&gt;sagelib -->
<g id="edge4" class="edge">
<title>gap&#45;&gt;sagelib</title>
<path fill="none" stroke="black" d="M272.5,-647.7C272.5,-639.98 272.5,-630.71 272.5,-622.11"/>
<polygon fill="black" stroke="black" points="276,-622.1 272.5,-612.1 269,-622.1 276,-622.1"/>
</g>
<!-- openturns -->
<g id="node9" class="node">
<title>openturns</title>
<g id="a_node9"><a xlink:href="https://github.com/conda-forge/openturns-feedstock/pull/99" xlink:title="openturns">
<ellipse fill="#31688e" stroke="black" cx="64.5" cy="-450" rx="54.69" ry="18"/>
<text text-anchor="middle" x="64.5" y="-446.3" font-family="Times,serif" font-size="14.00" fill="white">openturns</text>
</a>
</g>
</g>
<!-- msgpack&#45;c&#45;&gt;openturns -->
<!-- pykep -->
<g id="node10" class="node">
<title>pykep</title>
<g id="a_node10"><a xlink:href="https://github.com/conda-forge/pykep-feedstock/pull/10" xlink:title="pykep">
<ellipse fill="#31688e" stroke="black" cx="64.5" cy="-378" rx="35.19" ry="18"/>
<text text-anchor="middle" x="64.5" y="-374.3" font-family="Times,serif" font-size="14.00" fill="white">pykep</text>
</a>
</g>
</g>
<!-- openturns&#45;&gt;pykep -->
<!-- pyne -->
<g id="node13" class="node">
<title>pyne</title>
<g id="a_node13"><a xlink:href="https://github.com/conda-forge/pyne-feedstock/pull/38" xlink:title="pyne">
<ellipse fill="#31688e" stroke="black" cx="64.5" cy="-306" rx="30.59" ry="18"/>
<text text-anchor="middle" x="64.5" y="-302.3" font-family="Times,serif" font-size="14.00" fill="white">pyne</text>
</a>
</g>
</g>
<!-- pykep&#45;&gt;pyne -->
<!-- pygmo -->
<g id="node11" class="node">
<title>pygmo</title>
<g id="a_node11"><a xlink:href="https://github.com/conda-forge/pygmo-feedstock/pull/44" xlink:title="pygmo">
<ellipse fill="#31688e" stroke="black" cx="364.5" cy="-666" rx="35.19" ry="18"/>
<text text-anchor="middle" x="364.5" y="-662.3" font-family="Times,serif" font-size="14.00" fill="white">pygmo</text>
</a>
</g>
</g>
<!-- dcgp&#45;python -->
<g id="node12" class="node">
<title>dcgp&#45;python</title>
<ellipse fill="#fde725" stroke="black" cx="413.5" cy="-594" rx="64.5" ry="18"/>
<text text-anchor="middle" x="413.5" y="-590.3" font-family="Times,serif" font-size="14.00">dcgp python</text>
</g>
<!-- pygmo&#45;&gt;dcgp&#45;python -->
<g id="edge8" class="edge">
<title>pygmo&#45;&gt;dcgp&#45;python</title>
<path fill="none" stroke="black" d="M375.86,-648.76C381.75,-640.35 389.08,-629.89 395.7,-620.44"/>
<polygon fill="black" stroke="black" points="398.65,-622.32 401.51,-612.12 392.91,-618.31 398.65,-622.32"/>
</g>
<!-- rank_filter -->
<g id="node14" class="node">
<title>rank_filter</title>
<g id="a_node14"><a xlink:href="https://github.com/conda-forge/rank_filter-feedstock/pull/43" xlink:title="rank_filter">
<ellipse fill="#31688e" stroke="black" cx="64.5" cy="-234" rx="64.5" ry="18"/>
<text text-anchor="middle" x="64.5" y="-230.3" font-family="Times,serif" font-size="14.00" fill="white">rank_filter</text>
</a>
</g>
</g>
<!-- pyne&#45;&gt;rank_filter -->
<!-- rsgislib -->
<g id="node15" class="node">
<title>rsgislib</title>
<g id="a_node15"><a xlink:href="https://github.com/conda-forge/rsgislib-feedstock/pull/28" xlink:title="rsgislib">
<ellipse fill="#31688e" stroke="black" cx="64.5" cy="-162" rx="50.09" ry="18"/>
<text text-anchor="middle" x="64.5" y="-158.3" font-family="Times,serif" font-size="14.00" fill="white">rsgislib</text>
</a>
</g>
</g>
<!-- rank_filter&#45;&gt;rsgislib -->
<!-- turbodbc -->
<g id="node16" class="node">
<title>turbodbc</title>
<g id="a_node16"><a xlink:href="https://github.com/conda-forge/turbodbc-feedstock/pull/38" xlink:title="turbodbc">
<ellipse fill="#31688e" stroke="black" cx="64.5" cy="-90" rx="50.09" ry="18"/>
<text text-anchor="middle" x="64.5" y="-86.3" font-family="Times,serif" font-size="14.00" fill="white">turbodbc</text>
</a>
</g>
</g>
<!-- rsgislib&#45;&gt;turbodbc -->
<!-- clblas -->
<g id="node17" class="node">
<title>clblas</title>
<g id="a_node17"><a xlink:href="https://github.com/conda-forge/clblas-feedstock/pull/9" xlink:title="clblas">
<ellipse fill="#31688e" stroke="black" cx="64.5" cy="-18" rx="40.5" ry="18"/>
<text text-anchor="middle" x="64.5" y="-14.3" font-family="Times,serif" font-size="14.00" fill="white">clblas</text>
</a>
</g>
</g>
<!-- turbodbc&#45;&gt;clblas -->
<!-- audi -->
<g id="node18" class="node">
<title>audi</title>
<g id="a_node18"><a xlink:href="https://github.com/conda-forge/audi-feedstock/pull/16" xlink:title="audi">
<ellipse fill="#31688e" stroke="black" cx="427.5" cy="-738" rx="30.59" ry="18"/>
<text text-anchor="middle" x="427.5" y="-734.3" font-family="Times,serif" font-size="14.00" fill="white">audi</text>
</a>
</g>
</g>
<!-- audi&#45;&gt;dcgp&#45;python -->
<g id="edge14" class="edge">
<title>audi&#45;&gt;dcgp&#45;python</title>
<path fill="none" stroke="black" d="M425.81,-719.87C423.43,-695.67 419.04,-651.21 416.2,-622.39"/>
<polygon fill="black" stroke="black" points="419.66,-621.8 415.19,-612.19 412.69,-622.48 419.66,-621.8"/>
</g>
<!-- clfft -->
<g id="node19" class="node">
<title>clfft</title>
<g id="a_node19"><a xlink:href="https://github.com/conda-forge/clfft-feedstock/pull/9" xlink:title="clfft">
<ellipse fill="#31688e" stroke="black" cx="536.5" cy="-738" rx="35.19" ry="18"/>
<text text-anchor="middle" x="536.5" y="-734.3" font-family="Times,serif" font-size="14.00" fill="white">clfft</text>
</a>
</g>
</g>
<!-- clsparse -->
<g id="node20" class="node">
<title>clsparse</title>
<g id="a_node20"><a xlink:href="https://github.com/conda-forge/clsparse-feedstock/pull/7" xlink:title="clsparse">
<ellipse fill="#31688e" stroke="black" cx="536.5" cy="-666" rx="50.09" ry="18"/>
<text text-anchor="middle" x="536.5" y="-662.3" font-family="Times,serif" font-size="14.00" fill="white">clsparse</text>
</a>
</g>
</g>
<!-- clfft&#45;&gt;clsparse -->
<!-- spdlib -->
<g id="node21" class="node">
<title>spdlib</title>
<g id="a_node21"><a xlink:href="https://github.com/conda-forge/spdlib-feedstock/pull/11" xlink:title="spdlib">
<ellipse fill="#31688e" stroke="black" cx="536.5" cy="-594" rx="40.5" ry="18"/>
<text text-anchor="middle" x="536.5" y="-590.3" font-family="Times,serif" font-size="14.00" fill="white">spdlib</text>
</a>
</g>
</g>
<!-- clsparse&#45;&gt;spdlib -->
<!-- pcl -->
<g id="node22" class="node">
<title>pcl</title>
<g id="a_node22"><a xlink:href="https://github.com/conda-forge/pcl-feedstock/pull/20" xlink:title="pcl">
<ellipse fill="#31688e" stroke="black" cx="536.5" cy="-522" rx="27" ry="18"/>
<text text-anchor="middle" x="536.5" y="-518.3" font-family="Times,serif" font-size="14.00" fill="white">pcl</text>
</a>
</g>
</g>
<!-- spdlib&#45;&gt;pcl -->
<!-- trilinos -->
<g id="node23" class="node">
<title>trilinos</title>
<g id="a_node23"><a xlink:href="https://github.com/conda-forge/trilinos-feedstock/pull/29" xlink:title="trilinos">
<ellipse fill="#31688e" stroke="black" cx="536.5" cy="-450" rx="50.09" ry="18"/>
<text text-anchor="middle" x="536.5" y="-446.3" font-family="Times,serif" font-size="14.00" fill="white">trilinos</text>
</a>
</g>
</g>
<!-- pcl&#45;&gt;trilinos -->
<!-- libhdfs3 -->
<g id="node24" class="node">
<title>libhdfs3</title>
<g id="a_node24"><a xlink:href="https://github.com/conda-forge/libhdfs3-feedstock/pull/31" xlink:title="libhdfs3">
<ellipse fill="#31688e" stroke="black" cx="536.5" cy="-378" rx="50.09" ry="18"/>
<text text-anchor="middle" x="536.5" y="-374.3" font-family="Times,serif" font-size="14.00" fill="white">libhdfs3</text>
</a>
</g>
</g>
<!-- trilinos&#45;&gt;libhdfs3 -->
<!-- freecad -->
<g id="node25" class="node">
<title>freecad</title>
<g id="a_node25"><a xlink:href="https://github.com/conda-forge/freecad-feedstock/pull/35" xlink:title="freecad">
<ellipse fill="#31688e" stroke="black" cx="536.5" cy="-306" rx="45" ry="18"/>
<text text-anchor="middle" x="536.5" y="-302.3" font-family="Times,serif" font-size="14.00" fill="white">freecad</text>
</a>
</g>
</g>
<!-- libhdfs3&#45;&gt;freecad -->
<!-- helics -->
<g id="node26" class="node">
<title>helics</title>
<g id="a_node26"><a xlink:href="https://github.com/conda-forge/helics-feedstock/pull/17" xlink:title="helics">
<ellipse fill="#31688e" stroke="black" cx="536.5" cy="-234" rx="40.5" ry="18"/>
<text text-anchor="middle" x="536.5" y="-230.3" font-family="Times,serif" font-size="14.00" fill="white">helics</text>
</a>
</g>
</g>
<!-- freecad&#45;&gt;helics -->
<!-- nds2&#45;client -->
<g id="node27" class="node">
<title>nds2&#45;client</title>
<g id="a_node27"><a xlink:href="https://github.com/conda-forge/nds2-client-feedstock/pull/9" xlink:title="nds2 client">
<ellipse fill="#31688e" stroke="black" cx="536.5" cy="-162" rx="64.5" ry="18"/>
<text text-anchor="middle" x="536.5" y="-158.3" font-family="Times,serif" font-size="14.00" fill="white">nds2 client</text>
</a>
</g>
</g>
<!-- helics&#45;&gt;nds2&#45;client -->
<!-- gudhi -->
<g id="node28" class="node">
<title>gudhi</title>
<g id="a_node28"><a xlink:href="https://github.com/conda-forge/gudhi-feedstock/pull/16" xlink:title="gudhi">
<ellipse fill="#31688e" stroke="black" cx="536.5" cy="-90" rx="35.19" ry="18"/>
<text text-anchor="middle" x="536.5" y="-86.3" font-family="Times,serif" font-size="14.00" fill="white">gudhi</text>
</a>
</g>
</g>
<!-- nds2&#45;client&#45;&gt;gudhi -->
<!-- ldas&#45;tools&#45;diskcacheapi -->
<g id="node29" class="node">
<title>ldas&#45;tools&#45;diskcacheapi</title>
<g id="a_node29"><a xlink:href="https://github.com/conda-forge/ldas-tools-diskcacheapi-feedstock/pull/4" xlink:title="ldas tools diskcacheapi">
<ellipse fill="#31688e" stroke="black" cx="536.5" cy="-18" rx="123" ry="18"/>
<text text-anchor="middle" x="536.5" y="-14.3" font-family="Times,serif" font-size="14.00" fill="white">ldas tools diskcacheapi</text>
</a>
</g>
</g>
<!-- gudhi&#45;&gt;ldas&#45;tools&#45;diskcacheapi -->
<!-- libint -->
<g id="node30" class="node">
<title>libint</title>
<g id="a_node30"><a xlink:href="https://github.com/conda-forge/libint-feedstock/pull/5" xlink:title="libint">
<ellipse fill="#31688e" stroke="black" cx="718.5" cy="-738" rx="40.5" ry="18"/>
<text text-anchor="middle" x="718.5" y="-734.3" font-family="Times,serif" font-size="14.00" fill="white">libint</text>
</a>
</g>
</g>
<!-- dealii -->
<g id="node31" class="node">
<title>dealii</title>
<g id="a_node31"><a xlink:href="https://github.com/conda-forge/dealii-feedstock/pull/6" xlink:title="dealii">
<ellipse fill="#31688e" stroke="black" cx="718.5" cy="-666" rx="40.5" ry="18"/>
<text text-anchor="middle" x="718.5" y="-662.3" font-family="Times,serif" font-size="14.00" fill="white">dealii</text>
</a>
</g>
</g>
<!-- libint&#45;&gt;dealii -->
<!-- lhcb&#45;simpletools -->
<g id="node32" class="node">
<title>lhcb&#45;simpletools</title>
<g id="a_node32"><a xlink:href="https://github.com/conda-forge/lhcb-simpletools-feedstock/pull/4" xlink:title="lhcb simpletools">
<ellipse fill="#31688e" stroke="black" cx="718.5" cy="-594" rx="89.08" ry="18"/>
<text text-anchor="middle" x="718.5" y="-590.3" font-family="Times,serif" font-size="14.00" fill="white">lhcb simpletools</text>
</a>
</g>
</g>
<!-- dealii&#45;&gt;lhcb&#45;simpletools -->
<!-- omniscidb&#45;cpu -->
<g id="node33" class="node">
<title>omniscidb&#45;cpu</title>
<g id="a_node33"><a xlink:href="https://github.com/conda-forge/omniscidb-cpu-feedstock/pull/22" xlink:title="omniscidb cpu">
<ellipse fill="#31688e" stroke="black" cx="718.5" cy="-522" rx="74.19" ry="18"/>
<text text-anchor="middle" x="718.5" y="-518.3" font-family="Times,serif" font-size="14.00" fill="white">omniscidb cpu</text>
</a>
</g>
</g>
<!-- lhcb&#45;simpletools&#45;&gt;omniscidb&#45;cpu -->
<!-- ambertools -->
<g id="node34" class="node">
<title>ambertools</title>
<g id="a_node34"><a xlink:href="https://github.com/conda-forge/ambertools-feedstock/pull/25" xlink:title="ambertools">
<ellipse fill="#31688e" stroke="black" cx="718.5" cy="-450" rx="60" ry="18"/>
<text text-anchor="middle" x="718.5" y="-446.3" font-family="Times,serif" font-size="14.00" fill="white">ambertools</text>
</a>
</g>
</g>
<!-- omniscidb&#45;cpu&#45;&gt;ambertools -->
<!-- biorbd -->
<g id="node35" class="node">
<title>biorbd</title>
<g id="a_node35"><a xlink:href="https://github.com/conda-forge/biorbd-feedstock/pull/13" xlink:title="biorbd">
<ellipse fill="#31688e" stroke="black" cx="718.5" cy="-378" rx="40.5" ry="18"/>
<text text-anchor="middle" x="718.5" y="-374.3" font-family="Times,serif" font-size="14.00" fill="white">biorbd</text>
</a>
</g>
</g>
<!-- ambertools&#45;&gt;biorbd -->
<!-- esys&#45;escript -->
<g id="node36" class="node">
<title>esys&#45;escript</title>
<g id="a_node36"><a xlink:href="https://github.com/conda-forge/esys-escript-feedstock/pull/11" xlink:title="esys escript">
<ellipse fill="#31688e" stroke="black" cx="718.5" cy="-306" rx="69.59" ry="18"/>
<text text-anchor="middle" x="718.5" y="-302.3" font-family="Times,serif" font-size="14.00" fill="white">esys escript</text>
</a>
</g>
</g>
<!-- biorbd&#45;&gt;esys&#45;escript -->
<!-- graph&#45;tool -->
<g id="node38" class="node">
<title>graph&#45;tool</title>
<g id="a_node38"><a xlink:href="https://github.com/conda-forge/graph-tool-feedstock/pull/8" xlink:title="graph tool">
<ellipse fill="#31688e" stroke="black" cx="718.5" cy="-234" rx="60" ry="18"/>
<text text-anchor="middle" x="718.5" y="-230.3" font-family="Times,serif" font-size="14.00" fill="white">graph tool</text>
</a>
</g>
</g>
<!-- esys&#45;escript&#45;&gt;graph&#45;tool -->
<!-- normaliz -->
<g id="node37" class="node">
<title>normaliz</title>
<g id="a_node37"><a xlink:href="https://github.com/conda-forge/normaliz-feedstock/pull/18" xlink:title="normaliz">
<ellipse fill="#31688e" stroke="black" cx="272.5" cy="-738" rx="50.09" ry="18"/>
<text text-anchor="middle" x="272.5" y="-734.3" font-family="Times,serif" font-size="14.00" fill="white">normaliz</text>
</a>
</g>
</g>
<!-- normaliz&#45;&gt;gap -->
<g id="edge31" class="edge">
<title>normaliz&#45;&gt;gap</title>
<path fill="none" stroke="black" d="M272.5,-719.7C272.5,-711.98 272.5,-702.71 272.5,-694.11"/>
<polygon fill="black" stroke="black" points="276,-694.1 272.5,-684.1 269,-694.1 276,-694.1"/>
</g>
<!-- topologytoolkit -->
<g id="node44" class="node">
<title>topologytoolkit</title>
<g id="a_node44"><a xlink:href="https://github.com/conda-forge/topologytoolkit-feedstock/pull/4" xlink:title="topologytoolkit">
<ellipse fill="#31688e" stroke="black" cx="718.5" cy="-162" rx="84" ry="18"/>
<text text-anchor="middle" x="718.5" y="-158.3" font-family="Times,serif" font-size="14.00" fill="white">topologytoolkit</text>
</a>
</g>
</g>
<!-- graph&#45;tool&#45;&gt;topologytoolkit -->
<!-- xmscore -->
<g id="node39" class="node">
<title>xmscore</title>
<g id="a_node39"><a xlink:href="https://github.com/conda-forge/xmscore-feedstock/pull/4" xlink:title="xmscore">
<ellipse fill="#31688e" stroke="black" cx="964.5" cy="-738" rx="45" ry="18"/>
<text text-anchor="middle" x="964.5" y="-734.3" font-family="Times,serif" font-size="14.00" fill="white">xmscore</text>
</a>
</g>
</g>
<!-- xmsgrid -->
<g id="node40" class="node">
<title>xmsgrid</title>
<ellipse fill="#fde725" stroke="black" cx="999.5" cy="-666" rx="45" ry="18"/>
<text text-anchor="middle" x="999.5" y="-662.3" font-family="Times,serif" font-size="14.00">xmsgrid</text>
</g>
<!-- xmscore&#45;&gt;xmsgrid -->
<g id="edge33" class="edge">
<title>xmscore&#45;&gt;xmsgrid</title>
<path fill="none" stroke="black" d="M972.97,-720.05C977.06,-711.89 982.04,-701.91 986.59,-692.82"/>
<polygon fill="black" stroke="black" points="989.76,-694.3 991.11,-683.79 983.5,-691.17 989.76,-694.3"/>
</g>
<!-- xmsinterp -->
<g id="node41" class="node">
<title>xmsinterp</title>
<ellipse fill="#fde725" stroke="black" cx="918.5" cy="-594" rx="54.69" ry="18"/>
<text text-anchor="middle" x="918.5" y="-590.3" font-family="Times,serif" font-size="14.00">xmsinterp</text>
</g>
<!-- xmscore&#45;&gt;xmsinterp -->
<g id="edge34" class="edge">
<title>xmscore&#45;&gt;xmsinterp</title>
<path fill="none" stroke="black" d="M958.12,-719.89C954.33,-709.54 949.49,-696.06 945.5,-684 938.63,-663.24 931.48,-639.54 926.26,-621.82"/>
<polygon fill="black" stroke="black" points="929.59,-620.76 923.43,-612.14 922.88,-622.72 929.59,-620.76"/>
</g>
<!-- xmsstamper -->
<g id="node42" class="node">
<title>xmsstamper</title>
<ellipse fill="#fde725" stroke="black" cx="912.5" cy="-522" rx="60" ry="18"/>
<text text-anchor="middle" x="912.5" y="-518.3" font-family="Times,serif" font-size="14.00">xmsstamper</text>
</g>
<!-- xmscore&#45;&gt;xmsstamper -->
<g id="edge35" class="edge">
<title>xmscore&#45;&gt;xmsstamper</title>
<path fill="none" stroke="black" d="M943.8,-721.59C917.21,-700.36 872.36,-659.33 854.5,-612 848.85,-597.03 848.05,-590.64 854.5,-576 859.88,-563.79 869.62,-553.17 879.61,-544.71"/>
<polygon fill="black" stroke="black" points="881.91,-547.35 887.58,-538.4 877.57,-541.86 881.91,-547.35"/>
</g>
<!-- xmsmesher -->
<g id="node43" class="node">
<title>xmsmesher</title>
<ellipse fill="#fde725" stroke="black" cx="1045.5" cy="-522" rx="54.69" ry="18"/>
<text text-anchor="middle" x="1045.5" y="-518.3" font-family="Times,serif" font-size="14.00">xmsmesher</text>
</g>
<!-- xmscore&#45;&gt;xmsmesher -->
<g id="edge36" class="edge">
<title>xmscore&#45;&gt;xmsmesher</title>
<path fill="none" stroke="black" d="M998.66,-726.27C1018.47,-718.08 1041.77,-704.64 1053.5,-684 1077.44,-641.89 1065.35,-583.12 1055.01,-549.47"/>
<polygon fill="black" stroke="black" points="1058.31,-548.31 1051.89,-539.88 1051.65,-550.47 1058.31,-548.31"/>
</g>
<!-- xmsgrid&#45;&gt;xmsinterp -->
<g id="edge37" class="edge">
<title>xmsgrid&#45;&gt;xmsinterp</title>
<path fill="none" stroke="black" d="M981.52,-649.46C970.67,-640.08 956.64,-627.96 944.58,-617.54"/>
<polygon fill="black" stroke="black" points="946.84,-614.87 936.99,-610.98 942.27,-620.16 946.84,-614.87"/>
</g>
<!-- xmsgrid&#45;&gt;xmsstamper -->
<g id="edge38" class="edge">
<title>xmsgrid&#45;&gt;xmsstamper</title>
<path fill="none" stroke="black" d="M999.78,-647.96C999.33,-629.02 996.28,-598.18 982.5,-576 974.4,-562.95 961.83,-551.97 949.57,-543.44"/>
<polygon fill="black" stroke="black" points="951.47,-540.5 941.19,-537.93 947.62,-546.35 951.47,-540.5"/>
</g>
<!-- xmsgrid&#45;&gt;xmsmesher -->
<g id="edge39" class="edge">
<title>xmsgrid&#45;&gt;xmsmesher</title>
<path fill="none" stroke="black" d="M1005.05,-647.87C1012.92,-623.56 1027.42,-578.82 1036.75,-550.01"/>
<polygon fill="black" stroke="black" points="1040.18,-550.78 1039.93,-540.19 1033.52,-548.62 1040.18,-550.78"/>
</g>
<!-- xmsinterp&#45;&gt;xmsstamper -->
<g id="edge40" class="edge">
<title>xmsinterp&#45;&gt;xmsstamper</title>
<path fill="none" stroke="black" d="M917.02,-575.7C916.36,-567.98 915.56,-558.71 914.82,-550.11"/>
<polygon fill="black" stroke="black" points="918.31,-549.77 913.97,-540.1 911.33,-550.37 918.31,-549.77"/>
</g>
<!-- xmsinterp&#45;&gt;xmsmesher -->
<g id="edge41" class="edge">
<title>xmsinterp&#45;&gt;xmsmesher</title>
<path fill="none" stroke="black" d="M945.43,-578.15C964.12,-567.85 989.22,-554.02 1009.61,-542.78"/>
<polygon fill="black" stroke="black" points="1011.54,-545.72 1018.61,-537.82 1008.16,-539.59 1011.54,-545.72"/>
</g>
<!-- pyinterp -->
<g id="node45" class="node">
<title>pyinterp</title>
<g id="a_node45"><a xlink:href="https://github.com/conda-forge/pyinterp-feedstock/pull/15" xlink:title="pyinterp">
<ellipse fill="#31688e" stroke="black" cx="718.5" cy="-90" rx="50.09" ry="18"/>
<text text-anchor="middle" x="718.5" y="-86.3" font-family="Times,serif" font-size="14.00" fill="white">pyinterp</text>
</a>
</g>
</g>
<!-- topologytoolkit&#45;&gt;pyinterp -->
<!-- gazebo -->
<g id="node46" class="node">
<title>gazebo</title>
<g id="a_node46"><a xlink:href="https://github.com/conda-forge/gazebo-feedstock/pull/6" xlink:title="gazebo">
<ellipse fill="#31688e" stroke="black" cx="718.5" cy="-18" rx="40.5" ry="18"/>
<text text-anchor="middle" x="718.5" y="-14.3" font-family="Times,serif" font-size="14.00" fill="white">gazebo</text>
</a>
</g>
</g>
<!-- pyinterp&#45;&gt;gazebo -->
<!-- ros&#45;rostime -->
<g id="node47" class="node">
<title>ros&#45;rostime</title>
<g id="a_node47"><a xlink:href="https://github.com/conda-forge/ros-rostime-feedstock/pull/4" xlink:title="ros rostime">
<ellipse fill="#31688e" stroke="black" cx="1769.5" cy="-738" rx="64.5" ry="18"/>
<text text-anchor="middle" x="1769.5" y="-734.3" font-family="Times,serif" font-size="14.00" fill="white">ros rostime</text>
</a>
</g>
</g>
<!-- ros&#45;rosconsole -->
<g id="node48" class="node">
<title>ros&#45;rosconsole</title>
<ellipse fill="#fde725" stroke="black" cx="1951.5" cy="-666" rx="79.5" ry="18"/>
<text text-anchor="middle" x="1951.5" y="-662.3" font-family="Times,serif" font-size="14.00">ros rosconsole</text>
</g>
<!-- ros&#45;rostime&#45;&gt;ros&#45;rosconsole -->
<g id="edge45" class="edge">
<title>ros&#45;rostime&#45;&gt;ros&#45;rosconsole</title>
<path fill="none" stroke="black" d="M1805.89,-723C1833.88,-712.24 1872.8,-697.27 1903.37,-685.51"/>
<polygon fill="black" stroke="black" points="1904.89,-688.68 1912.97,-681.82 1902.38,-682.14 1904.89,-688.68"/>
</g>
<!-- ros&#45;rosbag&#45;storage -->
<g id="node49" class="node">
<title>ros&#45;rosbag&#45;storage</title>
<ellipse fill="#fde725" stroke="black" cx="1787.5" cy="-522" rx="99" ry="18"/>
<text text-anchor="middle" x="1787.5" y="-518.3" font-family="Times,serif" font-size="14.00">ros rosbag storage</text>
</g>
<!-- ros&#45;rostime&#45;&gt;ros&#45;rosbag&#45;storage -->
<g id="edge46" class="edge">
<title>ros&#45;rostime&#45;&gt;ros&#45;rosbag&#45;storage</title>
<path fill="none" stroke="black" d="M1817.2,-725.71C1825.93,-723.74 1834.98,-721.76 1843.5,-720 1930.67,-702.03 1963.63,-728.87 2040.5,-684 2087.92,-656.32 2135.94,-617.94 2100.5,-576 2074.23,-544.91 1974.11,-532.06 1894.08,-526.74"/>
<polygon fill="black" stroke="black" points="1894.13,-523.24 1883.93,-526.1 1893.69,-530.22 1894.13,-523.24"/>
</g>
<!-- ros&#45;rosbag -->
<g id="node50" class="node">
<title>ros&#45;rosbag</title>
<ellipse fill="#fde725" stroke="black" cx="1502.5" cy="-450" rx="60" ry="18"/>
<text text-anchor="middle" x="1502.5" y="-446.3" font-family="Times,serif" font-size="14.00">ros rosbag</text>
</g>
<!-- ros&#45;rostime&#45;&gt;ros&#45;rosbag -->
<g id="edge47" class="edge">
<title>ros&#45;rostime&#45;&gt;ros&#45;rosbag</title>
<path fill="none" stroke="black" d="M1705.75,-734.66C1592.29,-729.73 1360.32,-715.99 1286.5,-684 1241.38,-664.45 1223.05,-656.67 1202.5,-612 1181.24,-565.77 1199.76,-534.49 1240.5,-504 1270.89,-481.26 1369.44,-465.94 1436.62,-457.84"/>
<polygon fill="black" stroke="black" points="1437.19,-461.3 1446.71,-456.65 1436.37,-454.35 1437.19,-461.3"/>
</g>
<!-- ros&#45;actionlib -->
<g id="node51" class="node">
<title>ros&#45;actionlib</title>
<ellipse fill="#fde725" stroke="black" cx="1570.5" cy="-594" rx="74.19" ry="18"/>
<text text-anchor="middle" x="1570.5" y="-590.3" font-family="Times,serif" font-size="14.00">ros actionlib</text>
</g>
<!-- ros&#45;rostime&#45;&gt;ros&#45;actionlib -->
<g id="edge48" class="edge">
<title>ros&#45;rostime&#45;&gt;ros&#45;actionlib</title>
<path fill="none" stroke="black" d="M1741.6,-721.75C1723.73,-711.65 1700.27,-697.78 1680.5,-684 1650.84,-663.32 1618.92,-637 1597.14,-618.36"/>
<polygon fill="black" stroke="black" points="1599.18,-615.5 1589.32,-611.62 1594.61,-620.8 1599.18,-615.5"/>
</g>
<!-- ros&#45;rosconsole&#45;&gt;ros&#45;rosbag&#45;storage -->
<g id="edge49" class="edge">
<title>ros&#45;rosconsole&#45;&gt;ros&#45;rosbag&#45;storage</title>
<path fill="none" stroke="black" d="M2015.45,-655.21C2041.05,-647.81 2068.08,-634.81 2083.5,-612 2092.46,-598.75 2093.77,-588.27 2083.5,-576 2059.21,-546.98 1967.49,-533.83 1892.5,-527.88"/>
<polygon fill="black" stroke="black" points="1892.75,-524.39 1882.51,-527.12 1892.22,-531.37 1892.75,-524.39"/>
</g>
<!-- ros&#45;rosconsole&#45;&gt;ros&#45;rosbag -->
<g id="edge50" class="edge">
<title>ros&#45;rosconsole&#45;&gt;ros&#45;rosbag</title>
<path fill="none" stroke="black" d="M2022.29,-657.59C2051.48,-650.65 2082.61,-637.35 2100.5,-612 2109.73,-598.93 2109.75,-589.05 2100.5,-576 2039.83,-490.38 1715.67,-462.44 1571.6,-454.16"/>
<polygon fill="black" stroke="black" points="1571.72,-450.67 1561.54,-453.6 1571.33,-457.66 1571.72,-450.67"/>
</g>
<!-- ros&#45;rosconsole&#45;&gt;ros&#45;actionlib -->
<g id="edge51" class="edge">
<title>ros&#45;rosconsole&#45;&gt;ros&#45;actionlib</title>
<path fill="none" stroke="black" d="M1890.06,-654.55C1829.75,-644.18 1735.18,-627.62 1653.5,-612 1647.43,-610.84 1641.12,-609.6 1634.81,-608.34"/>
<polygon fill="black" stroke="black" points="1635.42,-604.9 1624.93,-606.36 1634.04,-611.76 1635.42,-604.9"/>
</g>
<!-- ros&#45;pluginlib -->
<g id="node52" class="node">
<title>ros&#45;pluginlib</title>
<ellipse fill="#fde725" stroke="black" cx="1736.5" cy="-594" rx="74.19" ry="18"/>
<text text-anchor="middle" x="1736.5" y="-590.3" font-family="Times,serif" font-size="14.00">ros pluginlib</text>
</g>
<!-- ros&#45;rosconsole&#45;&gt;ros&#45;pluginlib -->
<g id="edge52" class="edge">
<title>ros&#45;rosconsole&#45;&gt;ros&#45;pluginlib</title>
<path fill="none" stroke="black" d="M1907.99,-650.83C1873.56,-639.62 1825.36,-623.93 1788.82,-612.03"/>
<polygon fill="black" stroke="black" points="1789.44,-608.55 1778.84,-608.79 1787.27,-615.21 1789.44,-608.55"/>
</g>
<!-- ros&#45;message&#45;filters -->
<g id="node53" class="node">
<title>ros&#45;message&#45;filters</title>
<ellipse fill="#fde725" stroke="black" cx="1970.5" cy="-594" rx="103.5" ry="18"/>
<text text-anchor="middle" x="1970.5" y="-590.3" font-family="Times,serif" font-size="14.00">ros message filters</text>
</g>
<!-- ros&#45;rosconsole&#45;&gt;ros&#45;message&#45;filters -->
<g id="edge53" class="edge">
<title>ros&#45;rosconsole&#45;&gt;ros&#45;message&#45;filters</title>
<path fill="none" stroke="black" d="M1956.2,-647.7C1958.31,-639.9 1960.86,-630.51 1963.22,-621.83"/>
<polygon fill="black" stroke="black" points="1966.62,-622.67 1965.86,-612.1 1959.86,-620.84 1966.62,-622.67"/>
</g>
<!-- ros&#45;rosbag&#45;storage&#45;&gt;ros&#45;rosbag -->
<g id="edge54" class="edge">
<title>ros&#45;rosbag&#45;storage&#45;&gt;ros&#45;rosbag</title>
<path fill="none" stroke="black" d="M1731.19,-507.17C1680.81,-494.79 1607.39,-476.76 1557.43,-464.49"/>
<polygon fill="black" stroke="black" points="1558,-461.03 1547.45,-462.04 1556.33,-467.83 1558,-461.03"/>
</g>
<!-- ros&#45;pluginlib&#45;&gt;ros&#45;rosbag&#45;storage -->
<g id="edge60" class="edge">
<title>ros&#45;pluginlib&#45;&gt;ros&#45;rosbag&#45;storage</title>
<path fill="none" stroke="black" d="M1748.85,-576.05C1754.89,-567.75 1762.3,-557.58 1769.01,-548.38"/>
<polygon fill="black" stroke="black" points="1771.85,-550.42 1774.91,-540.28 1766.2,-546.3 1771.85,-550.42"/>
</g>
<!-- ros&#45;roslib -->
<g id="node54" class="node">
<title>ros&#45;roslib</title>
<g id="a_node54"><a xlink:href="https://github.com/conda-forge/ros-roslib-feedstock/pull/6" xlink:title="ros roslib">
<ellipse fill="#31688e" stroke="black" cx="1355.5" cy="-666" rx="60" ry="18"/>
<text text-anchor="middle" x="1355.5" y="-662.3" font-family="Times,serif" font-size="14.00" fill="white">ros roslib</text>
</a>
</g>
</g>
<!-- ros&#45;roslib&#45;&gt;ros&#45;rosbag&#45;storage -->
<g id="edge55" class="edge">
<title>ros&#45;roslib&#45;&gt;ros&#45;rosbag&#45;storage</title>
<path fill="none" stroke="black" d="M1301.77,-657.9C1273.43,-651.12 1241,-637.88 1223.5,-612 1214.54,-598.75 1212.73,-587.83 1223.5,-576 1253.57,-542.98 1524.89,-530.13 1679.99,-525.46"/>
<polygon fill="black" stroke="black" points="1680.14,-528.96 1690.03,-525.16 1679.93,-521.96 1680.14,-528.96"/>
</g>
<!-- ros&#45;roslib&#45;&gt;ros&#45;rosbag -->
<g id="edge56" class="edge">
<title>ros&#45;roslib&#45;&gt;ros&#45;rosbag</title>
<path fill="none" stroke="black" d="M1299.24,-659.51C1268.17,-653.27 1232.01,-640.04 1212.5,-612 1203.36,-598.87 1203.71,-589.37 1212.5,-576 1262.11,-500.59 1367.87,-470.47 1437.03,-458.58"/>
<polygon fill="black" stroke="black" points="1437.65,-462.03 1446.96,-456.96 1436.52,-455.12 1437.65,-462.03"/>
</g>
<!-- ros&#45;roslib&#45;&gt;ros&#45;actionlib -->
<g id="edge57" class="edge">
<title>ros&#45;roslib&#45;&gt;ros&#45;actionlib</title>
<path fill="none" stroke="black" d="M1394.93,-652.16C1429.54,-640.89 1480.14,-624.42 1518.14,-612.05"/>
<polygon fill="black" stroke="black" points="1519.58,-615.26 1528,-608.84 1517.41,-608.6 1519.58,-615.26"/>
</g>
<!-- ros&#45;roslib&#45;&gt;ros&#45;pluginlib -->
<g id="edge58" class="edge">
<title>ros&#45;roslib&#45;&gt;ros&#45;pluginlib</title>
<path fill="none" stroke="black" d="M1406.46,-656.35C1465.85,-646.18 1566.92,-628.56 1653.5,-612 1659.57,-610.84 1665.88,-609.6 1672.19,-608.34"/>
<polygon fill="black" stroke="black" points="1672.96,-611.76 1682.07,-606.36 1671.58,-604.9 1672.96,-611.76"/>
</g>
<!-- ros&#45;dynamic&#45;reconfigure -->
<g id="node55" class="node">
<title>ros&#45;dynamic&#45;reconfigure</title>
<ellipse fill="#fde725" stroke="black" cx="1355.5" cy="-594" rx="123" ry="18"/>
<text text-anchor="middle" x="1355.5" y="-590.3" font-family="Times,serif" font-size="14.00">ros dynamic reconfigure</text>
</g>
<!-- ros&#45;roslib&#45;&gt;ros&#45;dynamic&#45;reconfigure -->
<g id="edge59" class="edge">
<title>ros&#45;roslib&#45;&gt;ros&#45;dynamic&#45;reconfigure</title>
<path fill="none" stroke="black" d="M1355.5,-647.7C1355.5,-639.98 1355.5,-630.71 1355.5,-622.11"/>
<polygon fill="black" stroke="black" points="1359,-622.1 1355.5,-612.1 1352,-622.1 1359,-622.1"/>
</g>
<!-- ros&#45;rostest -->
<g id="node56" class="node">
<title>ros&#45;rostest</title>
<g id="a_node56"><a xlink:href="https://github.com/conda-forge/ros-rostest-feedstock/pull/2" xlink:title="ros rostest">
<ellipse fill="#31688e" stroke="black" cx="1753.5" cy="-666" rx="64.5" ry="18"/>
<text text-anchor="middle" x="1753.5" y="-662.3" font-family="Times,serif" font-size="14.00" fill="white">ros rostest</text>
</a>
</g>
</g>
<!-- ros&#45;rostest&#45;&gt;ros&#45;rosbag&#45;storage -->
<g id="edge61" class="edge">
<title>ros&#45;rostest&#45;&gt;ros&#45;rosbag&#45;storage</title>
<path fill="none" stroke="black" d="M1782.79,-649.7C1796.65,-640.75 1811.81,-628.03 1819.5,-612 1829.44,-591.26 1818.93,-566.57 1807.36,-548.46"/>
<polygon fill="black" stroke="black" points="1810.21,-546.43 1801.68,-540.15 1804.43,-550.38 1810.21,-546.43"/>
</g>
<!-- ros&#45;rostest&#45;&gt;ros&#45;actionlib -->
<g id="edge62" class="edge">
<title>ros&#45;rostest&#45;&gt;ros&#45;actionlib</title>
<path fill="none" stroke="black" d="M1716.91,-651C1688.58,-640.17 1649.1,-625.07 1618.28,-613.28"/>
<polygon fill="black" stroke="black" points="1619.19,-609.88 1608.6,-609.58 1616.69,-616.42 1619.19,-609.88"/>
</g>
<!-- ros&#45;rostest&#45;&gt;ros&#45;message&#45;filters -->
<g id="edge64" class="edge">
<title>ros&#45;rostest&#45;&gt;ros&#45;message&#45;filters</title>
<path fill="none" stroke="black" d="M1794.06,-651.92C1827.84,-641.02 1876.33,-625.38 1913.93,-613.25"/>
<polygon fill="black" stroke="black" points="1915.29,-616.49 1923.73,-610.09 1913.14,-609.83 1915.29,-616.49"/>
</g>
<!-- ros&#45;rostest&#45;&gt;ros&#45;dynamic&#45;reconfigure -->
<g id="edge63" class="edge">
<title>ros&#45;rostest&#45;&gt;ros&#45;dynamic&#45;reconfigure</title>
<path fill="none" stroke="black" d="M1700.24,-655.63C1633.81,-643.95 1519.44,-623.83 1440.76,-610"/>
<polygon fill="black" stroke="black" points="1441.32,-606.54 1430.87,-608.26 1440.11,-613.44 1441.32,-606.54"/>
</g>
<!-- gnuradio -->
<g id="node57" class="node">
<title>gnuradio</title>
<g id="a_node57"><a xlink:href="https://github.com/conda-forge/gnuradio-feedstock/pull/6" xlink:title="gnuradio">
<ellipse fill="#31688e" stroke="black" cx="1902.5" cy="-738" rx="50.09" ry="18"/>
<text text-anchor="middle" x="1902.5" y="-734.3" font-family="Times,serif" font-size="14.00" fill="white">gnuradio</text>
</a>
</g>
</g>
</g>
</svg>
