<?xml version="1.0" encoding="UTF-8" standalone="no"?>
<!DOCTYPE svg PUBLIC "-//W3C//DTD SVG 1.1//EN"
 "http://www.w3.org/Graphics/SVG/1.1/DTD/svg11.dtd">
<!-- Generated by graphviz version 2.40.1 (20161225.0304)
 -->
<!-- Title: %3 Pages: 1 -->
<svg width="786pt" height="116pt"
 viewBox="0.00 0.00 786.44 116.00" xmlns="http://www.w3.org/2000/svg" xmlns:xlink="http://www.w3.org/1999/xlink">
<g id="graph0" class="graph" transform="scale(1 1) rotate(0) translate(4 112)">
<title>%3</title>
<polygon fill="#ffffff" stroke="transparent" points="-4,4 -4,-112 782.4412,-112 782.4412,4 -4,4"/>
<!-- aubio -->
<g id="node1" class="node">
<title>aubio</title>
<ellipse fill="#31688e" stroke="#000000" cx="35.0969" cy="-90" rx="35.194" ry="18"/>
<text text-anchor="middle" x="35.0969" y="-86.3" font-family="Times,serif" font-size="14.00" fill="#ffffff">aubio</text>
</g>
<!-- audioread -->
<g id="node2" class="node">
<title>audioread</title>
<ellipse fill="#31688e" stroke="#000000" cx="143.0969" cy="-90" rx="54.6905" ry="18"/>
<text text-anchor="middle" x="143.0969" y="-86.3" font-family="Times,serif" font-size="14.00" fill="#ffffff">audioread</text>
</g>
<!-- batman -->
<g id="node3" class="node">
<title>batman</title>
<ellipse fill="#31688e" stroke="#000000" cx="256.0969" cy="-90" rx="40.0939" ry="18"/>
<text text-anchor="middle" x="256.0969" y="-86.3" font-family="Times,serif" font-size="14.00" fill="#ffffff">batman</text>
</g>
<!-- opencv -->
<g id="node4" class="node">
<title>opencv</title>
<ellipse fill="#31688e" stroke="#000000" cx="355.0969" cy="-90" rx="40.0939" ry="18"/>
<text text-anchor="middle" x="355.0969" y="-86.3" font-family="Times,serif" font-size="14.00" fill="#ffffff">opencv</text>
</g>
<!-- tierpsy -->
<g id="node7" class="node">
<title>tierpsy</title>
<ellipse fill="#fde725" stroke="#000000" cx="355.0969" cy="-18" rx="44.6926" ry="18"/>
<text text-anchor="middle" x="355.0969" y="-14.3" font-family="Times,serif" font-size="14.00" fill="#000000">tierpsy</text>
</g>
<!-- opencv&#45;&gt;tierpsy -->
<g id="edge1" class="edge">
<title>opencv&#45;&gt;tierpsy</title>
<path fill="none" stroke="#000000" d="M355.0969,-71.8314C355.0969,-64.131 355.0969,-54.9743 355.0969,-46.4166"/>
<polygon fill="#000000" stroke="#000000" points="358.597,-46.4132 355.0969,-36.4133 351.597,-46.4133 358.597,-46.4132"/>
</g>
<!-- ffpyplayer -->
<g id="node5" class="node">
<title>ffpyplayer</title>
<ellipse fill="#31688e" stroke="#000000" cx="473.0969" cy="-90" rx="59.5901" ry="18"/>
<text text-anchor="middle" x="473.0969" y="-86.3" font-family="Times,serif" font-size="14.00" fill="#ffffff">ffpyplayer</text>
</g>
<!-- pymeep -->
<g id="node6" class="node">
<title>pymeep</title>
<ellipse fill="#31688e" stroke="#000000" cx="591.0969" cy="-90" rx="40.0939" ry="18"/>
<text text-anchor="middle" x="591.0969" y="-86.3" font-family="Times,serif" font-size="14.00" fill="#ffffff">pymeep</text>
</g>
<!-- openimageio -->
<g id="node8" class="node">
<title>openimageio</title>
<ellipse fill="#31688e" stroke="#000000" cx="714.0969" cy="-90" rx="64.189" ry="18"/>
<text text-anchor="middle" x="714.0969" y="-86.3" font-family="Times,serif" font-size="14.00" fill="#ffffff">openimageio</text>
</g>
</g>
</svg>
