<?xml version="1.0" encoding="UTF-8" standalone="no"?>
<!DOCTYPE svg PUBLIC "-//W3C//DTD SVG 1.1//EN"
 "http://www.w3.org/Graphics/SVG/1.1/DTD/svg11.dtd">
<!-- Generated by graphviz version 2.42.3 (20191010.1750)
 -->
<!-- Title: %3 Pages: 1 -->
<svg width="590pt" height="116pt"
 viewBox="0.00 0.00 590.39 116.00" xmlns="http://www.w3.org/2000/svg" xmlns:xlink="http://www.w3.org/1999/xlink">
<g id="graph0" class="graph" transform="scale(1 1) rotate(0) translate(4 112)">
<title>%3</title>
<polygon fill="white" stroke="transparent" points="-4,4 -4,-112 586.39,-112 586.39,4 -4,4"/>
<!-- aubio -->
<g id="node1" class="node">
<title>aubio</title>
<g id="a_node1"><a xlink:href="https://github.com/conda-forge/aubio-feedstock/pull/22" xlink:title="aubio">
<ellipse fill="#31688e" stroke="black" cx="35.1" cy="-90" rx="35.19" ry="18"/>
<text text-anchor="middle" x="35.1" y="-86.3" font-family="Times,serif" font-size="14.00" fill="white">aubio</text>
</a>
</g>
</g>
<!-- conda&#45;forge&#45;pinning -->
<g id="node6" class="node">
<title>conda&#45;forge&#45;pinning</title>
<ellipse fill="none" stroke="black" cx="224.1" cy="-18" rx="103.18" ry="18"/>
<text text-anchor="middle" x="224.1" y="-14.3" font-family="Times,serif" font-size="14.00">conda&#45;forge&#45;pinning</text>
</g>
<!-- aubio&#45;&gt;conda&#45;forge&#45;pinning -->
<g id="edge1" class="edge">
<title>aubio&#45;&gt;conda&#45;forge&#45;pinning</title>
<path fill="none" stroke="black" d="M62.53,-78.31C68.01,-76.2 73.73,-74.02 79.1,-72 109.73,-60.48 144.13,-47.9 171.73,-37.88"/>
<polygon fill="black" stroke="black" points="172.99,-41.15 181.19,-34.45 170.6,-34.57 172.99,-41.15"/>
</g>
<!-- av -->
<g id="node2" class="node">
<title>av</title>
<g id="a_node2"><a xlink:href="https://github.com/conda-forge/av-feedstock/pull/26" xlink:title="av">
<ellipse fill="#31688e" stroke="black" cx="115.1" cy="-90" rx="27" ry="18"/>
<text text-anchor="middle" x="115.1" y="-86.3" font-family="Times,serif" font-size="14.00" fill="white">av</text>
</a>
</g>
</g>
<!-- av&#45;&gt;conda&#45;forge&#45;pinning -->
<g id="edge2" class="edge">
<title>av&#45;&gt;conda&#45;forge&#45;pinning</title>
<path fill="none" stroke="black" d="M134.08,-76.81C149.46,-66.93 171.51,-52.77 189.94,-40.93"/>
<polygon fill="black" stroke="black" points="191.86,-43.86 198.39,-35.51 188.08,-37.97 191.86,-43.86"/>
</g>
<!-- openimageio -->
<g id="node3" class="node">
<title>openimageio</title>
<g id="a_node3"><a xlink:href="https://github.com/conda-forge/openimageio-feedstock/pull/17" xlink:title="openimageio">
<ellipse fill="#31688e" stroke="black" cx="224.1" cy="-90" rx="64.19" ry="18"/>
<text text-anchor="middle" x="224.1" y="-86.3" font-family="Times,serif" font-size="14.00" fill="white">openimageio</text>
</a>
</g>
</g>
<!-- openimageio&#45;&gt;conda&#45;forge&#45;pinning -->
<g id="edge3" class="edge">
<title>openimageio&#45;&gt;conda&#45;forge&#45;pinning</title>
<path fill="none" stroke="black" d="M224.1,-71.7C224.1,-63.98 224.1,-54.71 224.1,-46.11"/>
<polygon fill="black" stroke="black" points="227.6,-46.1 224.1,-36.1 220.6,-46.1 227.6,-46.1"/>
</g>
<!-- kdenlive -->
<g id="node4" class="node">
<title>kdenlive</title>
<g id="a_node4"><a xlink:href="https://github.com/conda-forge/kdenlive-feedstock/pull/1" xlink:title="kdenlive">
<ellipse fill="#31688e" stroke="black" cx="356.1" cy="-90" rx="50.09" ry="18"/>
<text text-anchor="middle" x="356.1" y="-86.3" font-family="Times,serif" font-size="14.00" fill="white">kdenlive</text>
</a>
</g>
</g>
<!-- kdenlive&#45;&gt;conda&#45;forge&#45;pinning -->
<g id="edge4" class="edge">
<title>kdenlive&#45;&gt;conda&#45;forge&#45;pinning</title>
<path fill="none" stroke="black" d="M329.07,-74.67C310.27,-64.7 284.92,-51.25 263.83,-40.07"/>
<polygon fill="black" stroke="black" points="265.26,-36.87 254.79,-35.28 261.98,-43.05 265.26,-36.87"/>
</g>
<!-- openscenegraph -->
<g id="node5" class="node">
<title>openscenegraph</title>
<g id="a_node5"><a xlink:href="https://github.com/conda-forge/openscenegraph-feedstock/pull/7" xlink:title="openscenegraph">
<ellipse fill="#31688e" stroke="black" cx="503.1" cy="-90" rx="79.09" ry="18"/>
<text text-anchor="middle" x="503.1" y="-86.3" font-family="Times,serif" font-size="14.00" fill="white">openscenegraph</text>
</a>
</g>
</g>
<!-- openscenegraph&#45;&gt;conda&#45;forge&#45;pinning -->
<g id="edge5" class="edge">
<title>openscenegraph&#45;&gt;conda&#45;forge&#45;pinning</title>
<path fill="none" stroke="black" d="M451.92,-76.16C406.59,-64.79 340.13,-48.11 290.67,-35.7"/>
<polygon fill="black" stroke="black" points="291.25,-32.24 280.7,-33.2 289.55,-39.03 291.25,-32.24"/>
</g>
</g>
</svg>
