<?xml version="1.0" encoding="UTF-8" standalone="no"?>
<!DOCTYPE svg PUBLIC "-//W3C//DTD SVG 1.1//EN"
 "http://www.w3.org/Graphics/SVG/1.1/DTD/svg11.dtd">
<!-- Generated by graphviz version 2.42.3 (20191010.1750)
 -->
<!-- Title: %3 Pages: 1 -->
<svg width="1100pt" height="188pt"
 viewBox="0.00 0.00 1100.39 188.00" xmlns="http://www.w3.org/2000/svg" xmlns:xlink="http://www.w3.org/1999/xlink">
<g id="graph0" class="graph" transform="scale(1 1) rotate(0) translate(4 184)">
<title>%3</title>
<polygon fill="white" stroke="transparent" points="-4,4 -4,-184 1096.39,-184 1096.39,4 -4,4"/>
<!-- aubio -->
<g id="node1" class="node">
<title>aubio</title>
<g id="a_node1"><a xlink:href="https://github.com/conda-forge/aubio-feedstock" xlink:title="aubio">
<ellipse fill="#35b779" stroke="black" cx="35.1" cy="-90" rx="35.19" ry="18"/>
<text text-anchor="middle" x="35.1" y="-86.3" font-family="Times,serif" font-size="14.00">aubio</text>
</a>
</g>
</g>
<!-- conda&#45;forge&#45;pinning -->
<g id="node12" class="node">
<title>conda&#45;forge&#45;pinning</title>
<ellipse fill="none" stroke="black" cx="535.1" cy="-18" rx="103.18" ry="18"/>
<text text-anchor="middle" x="535.1" y="-14.3" font-family="Times,serif" font-size="14.00">conda&#45;forge&#45;pinning</text>
</g>
<!-- aubio&#45;&gt;conda&#45;forge&#45;pinning -->
<g id="edge1" class="edge">
<title>aubio&#45;&gt;conda&#45;forge&#45;pinning</title>
<path fill="none" stroke="black" d="M61.27,-77.64C67.06,-75.49 73.21,-73.45 79.1,-72 195.56,-43.23 332.7,-29.97 425.95,-23.93"/>
<polygon fill="black" stroke="black" points="426.21,-27.42 435.97,-23.29 425.77,-20.43 426.21,-27.42"/>
</g>
<!-- av -->
<g id="node2" class="node">
<title>av</title>
<g id="a_node2"><a xlink:href="https://github.com/conda-forge/av-feedstock/pull/26" xlink:title="av">
<ellipse fill="#31688e" stroke="black" cx="115.1" cy="-90" rx="27" ry="18"/>
<text text-anchor="middle" x="115.1" y="-86.3" font-family="Times,serif" font-size="14.00" fill="white">av</text>
</a>
</g>
</g>
<!-- av&#45;&gt;conda&#45;forge&#45;pinning -->
<g id="edge2" class="edge">
<title>av&#45;&gt;conda&#45;forge&#45;pinning</title>
<path fill="none" stroke="black" d="M135.61,-78C140.57,-75.72 145.93,-73.54 151.1,-72 242.15,-44.91 349.55,-31.58 427.58,-25.07"/>
<polygon fill="black" stroke="black" points="428.22,-28.53 437.9,-24.24 427.66,-21.56 428.22,-28.53"/>
</g>
<!-- batman -->
<g id="node3" class="node">
<title>batman</title>
<g id="a_node3"><a xlink:href="https://github.com/conda-forge/batman-feedstock" xlink:title="batman">
<ellipse fill="#35b779" stroke="black" cx="200.1" cy="-90" rx="40.09" ry="18"/>
<text text-anchor="middle" x="200.1" y="-86.3" font-family="Times,serif" font-size="14.00">batman</text>
</a>
</g>
</g>
<!-- batman&#45;&gt;conda&#45;forge&#45;pinning -->
<g id="edge3" class="edge">
<title>batman&#45;&gt;conda&#45;forge&#45;pinning</title>
<path fill="none" stroke="black" d="M230.29,-77.95C236.77,-75.8 243.62,-73.69 250.1,-72 315.89,-54.79 391.64,-40.98 448.5,-31.78"/>
<polygon fill="black" stroke="black" points="449.21,-35.21 458.53,-30.17 448.1,-28.3 449.21,-35.21"/>
</g>
<!-- opencv -->
<g id="node4" class="node">
<title>opencv</title>
<g id="a_node4"><a xlink:href="https://github.com/conda-forge/opencv-feedstock/pull/226" xlink:title="opencv">
<ellipse fill="#31688e" stroke="black" cx="299.1" cy="-90" rx="40.09" ry="18"/>
<text text-anchor="middle" x="299.1" y="-86.3" font-family="Times,serif" font-size="14.00" fill="white">opencv</text>
</a>
</g>
</g>
<!-- opencv&#45;&gt;conda&#45;forge&#45;pinning -->
<g id="edge4" class="edge">
<title>opencv&#45;&gt;conda&#45;forge&#45;pinning</title>
<path fill="none" stroke="black" d="M329.59,-78.12C335.7,-76.02 342.08,-73.89 348.1,-72 388.84,-59.17 435.02,-46.07 471.29,-36.1"/>
<polygon fill="black" stroke="black" points="472.53,-39.39 481.25,-33.38 470.68,-32.64 472.53,-39.39"/>
</g>
<!-- ffpyplayer -->
<g id="node5" class="node">
<title>ffpyplayer</title>
<g id="a_node5"><a xlink:href="https://github.com/conda-forge/ffpyplayer-feedstock" xlink:title="ffpyplayer">
<ellipse fill="#35b779" stroke="black" cx="417.1" cy="-90" rx="59.59" ry="18"/>
<text text-anchor="middle" x="417.1" y="-86.3" font-family="Times,serif" font-size="14.00">ffpyplayer</text>
</a>
</g>
</g>
<!-- ffpyplayer&#45;&gt;conda&#45;forge&#45;pinning -->
<g id="edge5" class="edge">
<title>ffpyplayer&#45;&gt;conda&#45;forge&#45;pinning</title>
<path fill="none" stroke="black" d="M442.99,-73.64C459.17,-64.04 480.25,-51.53 498.17,-40.91"/>
<polygon fill="black" stroke="black" points="500.39,-43.66 507.2,-35.55 496.82,-37.64 500.39,-43.66"/>
</g>
<!-- lintel -->
<g id="node6" class="node">
<title>lintel</title>
<g id="a_node6"><a xlink:href="https://github.com/conda-forge/lintel-feedstock/pull/6" xlink:title="lintel">
<ellipse fill="#31688e" stroke="black" cx="535.1" cy="-90" rx="40.09" ry="18"/>
<text text-anchor="middle" x="535.1" y="-86.3" font-family="Times,serif" font-size="14.00" fill="white">lintel</text>
</a>
</g>
</g>
<!-- lintel&#45;&gt;conda&#45;forge&#45;pinning -->
<g id="edge6" class="edge">
<title>lintel&#45;&gt;conda&#45;forge&#45;pinning</title>
<path fill="none" stroke="black" d="M535.1,-71.7C535.1,-63.98 535.1,-54.71 535.1,-46.11"/>
<polygon fill="black" stroke="black" points="538.6,-46.1 535.1,-36.1 531.6,-46.1 538.6,-46.1"/>
</g>
<!-- openimageio -->
<g id="node7" class="node">
<title>openimageio</title>
<g id="a_node7"><a xlink:href="https://github.com/conda-forge/openimageio-feedstock/pull/17" xlink:title="openimageio">
<ellipse fill="#31688e" stroke="black" cx="658.1" cy="-90" rx="64.19" ry="18"/>
<text text-anchor="middle" x="658.1" y="-86.3" font-family="Times,serif" font-size="14.00" fill="white">openimageio</text>
</a>
</g>
</g>
<!-- openimageio&#45;&gt;conda&#45;forge&#45;pinning -->
<g id="edge7" class="edge">
<title>openimageio&#45;&gt;conda&#45;forge&#45;pinning</title>
<path fill="none" stroke="black" d="M631.1,-73.64C613.97,-63.88 591.54,-51.12 572.68,-40.39"/>
<polygon fill="black" stroke="black" points="574.16,-37.21 563.74,-35.3 570.7,-43.29 574.16,-37.21"/>
</g>
<!-- mlt -->
<g id="node8" class="node">
<title>mlt</title>
<g id="a_node8"><a xlink:href="https://github.com/conda-forge/mlt-feedstock/pull/5" xlink:title="mlt">
<ellipse fill="#31688e" stroke="black" cx="768.1" cy="-162" rx="27" ry="18"/>
<text text-anchor="middle" x="768.1" y="-158.3" font-family="Times,serif" font-size="14.00" fill="white">mlt</text>
</a>
</g>
</g>
<!-- kdenlive -->
<g id="node10" class="node">
<title>kdenlive</title>
<g id="a_node10"><a xlink:href="https://github.com/conda-forge/kdenlive-feedstock" xlink:title="kdenlive">
<ellipse fill="#fde725" stroke="black" cx="828.1" cy="-90" rx="50.09" ry="18"/>
<text text-anchor="middle" x="828.1" y="-86.3" font-family="Times,serif" font-size="14.00">kdenlive</text>
</a>
</g>
</g>
<!-- mlt&#45;&gt;kdenlive -->
<g id="edge8" class="edge">
<title>mlt&#45;&gt;kdenlive</title>
<path fill="none" stroke="black" d="M781.12,-145.81C788.73,-136.93 798.52,-125.5 807.19,-115.39"/>
<polygon fill="black" stroke="black" points="809.99,-117.5 813.84,-107.63 804.68,-112.94 809.99,-117.5"/>
</g>
<!-- mlt&#45;&gt;conda&#45;forge&#45;pinning -->
<g id="edge9" class="edge">
<title>mlt&#45;&gt;conda&#45;forge&#45;pinning</title>
<path fill="none" stroke="black" d="M765.61,-143.97C761.78,-123.86 752.47,-90.77 731.1,-72 704.94,-49.04 669.79,-35.9 636.49,-28.43"/>
<polygon fill="black" stroke="black" points="637.2,-25 626.69,-26.38 635.76,-31.85 637.2,-25"/>
</g>
<!-- kfilemetadata -->
<g id="node9" class="node">
<title>kfilemetadata</title>
<g id="a_node9"><a xlink:href="https://github.com/conda-forge/kfilemetadata-feedstock/pull/6" xlink:title="kfilemetadata">
<ellipse fill="#31688e" stroke="black" cx="896.1" cy="-162" rx="74.19" ry="18"/>
<text text-anchor="middle" x="896.1" y="-158.3" font-family="Times,serif" font-size="14.00" fill="white">kfilemetadata</text>
</a>
</g>
</g>
<!-- kfilemetadata&#45;&gt;kdenlive -->
<g id="edge10" class="edge">
<title>kfilemetadata&#45;&gt;kdenlive</title>
<path fill="none" stroke="black" d="M879.98,-144.41C871.43,-135.61 860.76,-124.63 851.33,-114.92"/>
<polygon fill="black" stroke="black" points="853.57,-112.2 844.1,-107.47 848.55,-117.08 853.57,-112.2"/>
</g>
<!-- kfilemetadata&#45;&gt;conda&#45;forge&#45;pinning -->
<g id="edge11" class="edge">
<title>kfilemetadata&#45;&gt;conda&#45;forge&#45;pinning</title>
<path fill="none" stroke="black" d="M899.96,-143.73C903.32,-123.7 905.2,-91 887.1,-72 854.85,-38.14 737.73,-25.79 647.34,-21.35"/>
<polygon fill="black" stroke="black" points="647.45,-17.86 637.3,-20.89 647.12,-24.85 647.45,-17.86"/>
</g>
<!-- kdenlive&#45;&gt;conda&#45;forge&#45;pinning -->
<g id="edge12" class="edge">
<title>kdenlive&#45;&gt;conda&#45;forge&#45;pinning</title>
<path fill="none" stroke="black" d="M789.23,-78.46C780.95,-76.28 772.24,-74.02 764.1,-72 711.45,-58.92 651.72,-45.13 606.47,-34.9"/>
<polygon fill="black" stroke="black" points="606.98,-31.43 596.46,-32.64 605.44,-38.25 606.98,-31.43"/>
</g>
<!-- openscenegraph -->
<g id="node11" class="node">
<title>openscenegraph</title>
<g id="a_node11"><a xlink:href="https://github.com/conda-forge/openscenegraph-feedstock/pull/7" xlink:title="openscenegraph">
<ellipse fill="#31688e" stroke="black" cx="1013.1" cy="-90" rx="79.09" ry="18"/>
<text text-anchor="middle" x="1013.1" y="-86.3" font-family="Times,serif" font-size="14.00" fill="white">openscenegraph</text>
</a>
</g>
</g>
<!-- openscenegraph&#45;&gt;conda&#45;forge&#45;pinning -->
<g id="edge13" class="edge">
<title>openscenegraph&#45;&gt;conda&#45;forge&#45;pinning</title>
<path fill="none" stroke="black" d="M954.13,-77.82C942.85,-75.79 931.12,-73.76 920.1,-72 820,-55.97 704.77,-40.5 626.66,-30.45"/>
<polygon fill="black" stroke="black" points="626.73,-26.93 616.37,-29.13 625.84,-33.88 626.73,-26.93"/>
</g>
</g>
</svg>
