<?xml version="1.0" encoding="UTF-8" standalone="no"?>
<!DOCTYPE svg PUBLIC "-//W3C//DTD SVG 1.1//EN"
 "http://www.w3.org/Graphics/SVG/1.1/DTD/svg11.dtd">
<!-- Generated by graphviz version 2.42.3 (20191010.1750)
 -->
<!-- Title: %3 Pages: 1 -->
<svg width="963pt" height="188pt"
 viewBox="0.00 0.00 963.39 188.00" xmlns="http://www.w3.org/2000/svg" xmlns:xlink="http://www.w3.org/1999/xlink">
<g id="graph0" class="graph" transform="scale(1 1) rotate(0) translate(4 184)">
<title>%3</title>
<polygon fill="white" stroke="transparent" points="-4,4 -4,-184 959.39,-184 959.39,4 -4,4"/>
<!-- aubio -->
<g id="node1" class="node">
<title>aubio</title>
<g id="a_node1"><a xlink:href="https://github.com/conda-forge/aubio-feedstock/pull/22" xlink:title="aubio">
<ellipse fill="#31688e" stroke="black" cx="35.1" cy="-90" rx="35.19" ry="18"/>
<text text-anchor="middle" x="35.1" y="-86.3" font-family="Times,serif" font-size="14.00" fill="white">aubio</text>
</a>
</g>
</g>
<!-- conda&#45;forge&#45;pinning -->
<g id="node10" class="node">
<title>conda&#45;forge&#45;pinning</title>
<ellipse fill="none" stroke="black" cx="436.1" cy="-18" rx="103.18" ry="18"/>
<text text-anchor="middle" x="436.1" y="-14.3" font-family="Times,serif" font-size="14.00">conda&#45;forge&#45;pinning</text>
</g>
<!-- aubio&#45;&gt;conda&#45;forge&#45;pinning -->
<g id="edge1" class="edge">
<title>aubio&#45;&gt;conda&#45;forge&#45;pinning</title>
<path fill="none" stroke="black" d="M61.31,-77.79C67.09,-75.62 73.24,-73.55 79.1,-72 164.3,-49.51 263.63,-35.74 335.85,-27.89"/>
<polygon fill="black" stroke="black" points="336.28,-31.36 345.86,-26.82 335.54,-24.4 336.28,-31.36"/>
</g>
<!-- av -->
<g id="node2" class="node">
<title>av</title>
<g id="a_node2"><a xlink:href="https://github.com/conda-forge/av-feedstock/pull/26" xlink:title="av">
<ellipse fill="#31688e" stroke="black" cx="115.1" cy="-90" rx="27" ry="18"/>
<text text-anchor="middle" x="115.1" y="-86.3" font-family="Times,serif" font-size="14.00" fill="white">av</text>
</a>
</g>
</g>
<!-- av&#45;&gt;conda&#45;forge&#45;pinning -->
<g id="edge2" class="edge">
<title>av&#45;&gt;conda&#45;forge&#45;pinning</title>
<path fill="none" stroke="black" d="M135.67,-78.18C140.62,-75.88 145.97,-73.66 151.1,-72 213.55,-51.82 286.34,-38.45 342.73,-30.18"/>
<polygon fill="black" stroke="black" points="343.3,-33.63 352.7,-28.75 342.3,-26.71 343.3,-33.63"/>
</g>
<!-- batman -->
<g id="node3" class="node">
<title>batman</title>
<g id="a_node3"><a xlink:href="https://github.com/conda-forge/batman-feedstock/pull/17" xlink:title="batman">
<ellipse fill="#31688e" stroke="black" cx="200.1" cy="-90" rx="40.09" ry="18"/>
<text text-anchor="middle" x="200.1" y="-86.3" font-family="Times,serif" font-size="14.00" fill="white">batman</text>
</a>
</g>
</g>
<!-- batman&#45;&gt;conda&#45;forge&#45;pinning -->
<g id="edge3" class="edge">
<title>batman&#45;&gt;conda&#45;forge&#45;pinning</title>
<path fill="none" stroke="black" d="M230.59,-78.12C236.7,-76.02 243.08,-73.89 249.1,-72 289.84,-59.17 336.02,-46.07 372.29,-36.1"/>
<polygon fill="black" stroke="black" points="373.53,-39.39 382.25,-33.38 371.68,-32.64 373.53,-39.39"/>
</g>
<!-- ffpyplayer -->
<g id="node4" class="node">
<title>ffpyplayer</title>
<g id="a_node4"><a xlink:href="https://github.com/conda-forge/ffpyplayer-feedstock/pull/10" xlink:title="ffpyplayer">
<ellipse fill="#31688e" stroke="black" cx="318.1" cy="-90" rx="59.59" ry="18"/>
<text text-anchor="middle" x="318.1" y="-86.3" font-family="Times,serif" font-size="14.00" fill="white">ffpyplayer</text>
</a>
</g>
</g>
<!-- ffpyplayer&#45;&gt;conda&#45;forge&#45;pinning -->
<g id="edge4" class="edge">
<title>ffpyplayer&#45;&gt;conda&#45;forge&#45;pinning</title>
<path fill="none" stroke="black" d="M343.99,-73.64C360.17,-64.04 381.25,-51.53 399.17,-40.91"/>
<polygon fill="black" stroke="black" points="401.39,-43.66 408.2,-35.55 397.82,-37.64 401.39,-43.66"/>
</g>
<!-- lintel -->
<g id="node5" class="node">
<title>lintel</title>
<g id="a_node5"><a xlink:href="https://github.com/conda-forge/lintel-feedstock/pull/6" xlink:title="lintel">
<ellipse fill="#31688e" stroke="black" cx="436.1" cy="-90" rx="40.09" ry="18"/>
<text text-anchor="middle" x="436.1" y="-86.3" font-family="Times,serif" font-size="14.00" fill="white">lintel</text>
</a>
</g>
</g>
<!-- lintel&#45;&gt;conda&#45;forge&#45;pinning -->
<g id="edge5" class="edge">
<title>lintel&#45;&gt;conda&#45;forge&#45;pinning</title>
<path fill="none" stroke="black" d="M436.1,-71.7C436.1,-63.98 436.1,-54.71 436.1,-46.11"/>
<polygon fill="black" stroke="black" points="439.6,-46.1 436.1,-36.1 432.6,-46.1 439.6,-46.1"/>
</g>
<!-- openimageio -->
<g id="node6" class="node">
<title>openimageio</title>
<g id="a_node6"><a xlink:href="https://github.com/conda-forge/openimageio-feedstock/pull/17" xlink:title="openimageio">
<ellipse fill="#31688e" stroke="black" cx="559.1" cy="-90" rx="64.19" ry="18"/>
<text text-anchor="middle" x="559.1" y="-86.3" font-family="Times,serif" font-size="14.00" fill="white">openimageio</text>
</a>
</g>
</g>
<!-- openimageio&#45;&gt;conda&#45;forge&#45;pinning -->
<g id="edge6" class="edge">
<title>openimageio&#45;&gt;conda&#45;forge&#45;pinning</title>
<path fill="none" stroke="black" d="M532.1,-73.64C514.97,-63.88 492.54,-51.12 473.68,-40.39"/>
<polygon fill="black" stroke="black" points="475.16,-37.21 464.74,-35.3 471.7,-43.29 475.16,-37.21"/>
</g>
<!-- kfilemetadata -->
<g id="node7" class="node">
<title>kfilemetadata</title>
<g id="a_node7"><a xlink:href="https://github.com/conda-forge/kfilemetadata-feedstock/pull/6" xlink:title="kfilemetadata">
<ellipse fill="#31688e" stroke="black" cx="730.1" cy="-162" rx="74.19" ry="18"/>
<text text-anchor="middle" x="730.1" y="-158.3" font-family="Times,serif" font-size="14.00" fill="white">kfilemetadata</text>
</a>
</g>
</g>
<!-- kdenlive -->
<g id="node8" class="node">
<title>kdenlive</title>
<g id="a_node8"><a xlink:href="https://github.com/conda-forge/kdenlive-feedstock" xlink:title="kdenlive">
<ellipse fill="#fde725" stroke="black" cx="691.1" cy="-90" rx="50.09" ry="18"/>
<text text-anchor="middle" x="691.1" y="-86.3" font-family="Times,serif" font-size="14.00">kdenlive</text>
</a>
</g>
</g>
<!-- kfilemetadata&#45;&gt;kdenlive -->
<g id="edge7" class="edge">
<title>kfilemetadata&#45;&gt;kdenlive</title>
<path fill="none" stroke="black" d="M720.66,-144.05C716.06,-135.8 710.43,-125.7 705.33,-116.54"/>
<polygon fill="black" stroke="black" points="708.38,-114.82 700.45,-107.79 702.26,-118.23 708.38,-114.82"/>
</g>
<!-- kfilemetadata&#45;&gt;conda&#45;forge&#45;pinning -->
<g id="edge8" class="edge">
<title>kfilemetadata&#45;&gt;conda&#45;forge&#45;pinning</title>
<path fill="none" stroke="black" d="M741.65,-143.88C753.29,-124.3 767.27,-92.32 750.1,-72 724.17,-41.33 626.54,-28.4 546.94,-22.96"/>
<polygon fill="black" stroke="black" points="547.04,-19.45 536.83,-22.3 546.58,-26.44 547.04,-19.45"/>
</g>
<!-- kdenlive&#45;&gt;conda&#45;forge&#45;pinning -->
<g id="edge9" class="edge">
<title>kdenlive&#45;&gt;conda&#45;forge&#45;pinning</title>
<path fill="none" stroke="black" d="M653.35,-78.02C646.3,-76 638.98,-73.92 632.1,-72 588.15,-59.73 538.54,-46.32 500.23,-36.06"/>
<polygon fill="black" stroke="black" points="500.8,-32.59 490.24,-33.38 498.99,-39.35 500.8,-32.59"/>
</g>
<!-- openscenegraph -->
<g id="node9" class="node">
<title>openscenegraph</title>
<g id="a_node9"><a xlink:href="https://github.com/conda-forge/openscenegraph-feedstock/pull/7" xlink:title="openscenegraph">
<ellipse fill="#31688e" stroke="black" cx="876.1" cy="-90" rx="79.09" ry="18"/>
<text text-anchor="middle" x="876.1" y="-86.3" font-family="Times,serif" font-size="14.00" fill="white">openscenegraph</text>
</a>
</g>
</g>
<!-- openscenegraph&#45;&gt;conda&#45;forge&#45;pinning -->
<g id="edge10" class="edge">
<title>openscenegraph&#45;&gt;conda&#45;forge&#45;pinning</title>
<path fill="none" stroke="black" d="M817.11,-77.95C805.83,-75.91 794.1,-73.85 783.1,-72 694.74,-57.18 593.42,-41.9 523.17,-31.58"/>
<polygon fill="black" stroke="black" points="523.44,-28.08 513.04,-30.09 522.42,-35.01 523.44,-28.08"/>
</g>
</g>
</svg>
