<?xml version="1.0" encoding="UTF-8" standalone="no"?>
<!DOCTYPE svg PUBLIC "-//W3C//DTD SVG 1.1//EN"
 "http://www.w3.org/Graphics/SVG/1.1/DTD/svg11.dtd">
<!-- Generated by graphviz version 2.42.3 (20191010.1750)
 -->
<!-- Title: %3 Pages: 1 -->
<svg width="215pt" height="116pt"
 viewBox="0.00 0.00 214.68 116.00" xmlns="http://www.w3.org/2000/svg" xmlns:xlink="http://www.w3.org/1999/xlink">
<g id="graph0" class="graph" transform="scale(1 1) rotate(0) translate(4 112)">
<title>%3</title>
<polygon fill="white" stroke="transparent" points="-4,4 -4,-112 210.68,-112 210.68,4 -4,4"/>
<!-- av -->
<g id="node1" class="node">
<title>av</title>
<g id="a_node1"><a xlink:href="https://github.com/conda-forge/av-feedstock/pull/26" xlink:title="av">
<ellipse fill="#31688e" stroke="black" cx="56.34" cy="-90" rx="27" ry="18"/>
<text text-anchor="middle" x="56.34" y="-86.3" font-family="Times,serif" font-size="14.00" fill="white">av</text>
</a>
</g>
</g>
<!-- conda&#45;forge&#45;pinning -->
<g id="node3" class="node">
<title>conda&#45;forge&#45;pinning</title>
<ellipse fill="none" stroke="black" cx="103.34" cy="-18" rx="103.18" ry="18"/>
<text text-anchor="middle" x="103.34" y="-14.3" font-family="Times,serif" font-size="14.00">conda&#45;forge&#45;pinning</text>
</g>
<!-- av&#45;&gt;conda&#45;forge&#45;pinning -->
<g id="edge1" class="edge">
<title>av&#45;&gt;conda&#45;forge&#45;pinning</title>
<path fill="none" stroke="black" d="M67.01,-73.12C72.65,-64.72 79.71,-54.2 86.1,-44.67"/>
<polygon fill="black" stroke="black" points="89.06,-46.55 91.73,-36.29 83.25,-42.64 89.06,-46.55"/>
</g>
<!-- kdenlive -->
<g id="node2" class="node">
<title>kdenlive</title>
<g id="a_node2"><a xlink:href="https://github.com/conda-forge/kdenlive-feedstock/pull/1" xlink:title="kdenlive">
<ellipse fill="#31688e" stroke="black" cx="151.34" cy="-90" rx="50.09" ry="18"/>
<text text-anchor="middle" x="151.34" y="-86.3" font-family="Times,serif" font-size="14.00" fill="white">kdenlive</text>
</a>
</g>
</g>
<!-- kdenlive&#45;&gt;conda&#45;forge&#45;pinning -->
<g id="edge2" class="edge">
<title>kdenlive&#45;&gt;conda&#45;forge&#45;pinning</title>
<path fill="none" stroke="black" d="M139.97,-72.41C134.25,-64.08 127.2,-53.8 120.82,-44.49"/>
<polygon fill="black" stroke="black" points="123.51,-42.22 114.97,-35.96 117.74,-46.18 123.51,-42.22"/>
</g>
</g>
</svg>
