<?xml version="1.0" encoding="UTF-8" standalone="no"?>
<!DOCTYPE svg PUBLIC "-//W3C//DTD SVG 1.1//EN"
 "http://www.w3.org/Graphics/SVG/1.1/DTD/svg11.dtd">
<!-- Generated by graphviz version 2.42.3 (20191010.1750)
 -->
<!-- Title: %3 Pages: 1 -->
<svg width="623pt" height="116pt"
 viewBox="0.00 0.00 622.54 116.00" xmlns="http://www.w3.org/2000/svg" xmlns:xlink="http://www.w3.org/1999/xlink">
<g id="graph0" class="graph" transform="scale(1 1) rotate(0) translate(4 112)">
<title>%3</title>
<polygon fill="white" stroke="transparent" points="-4,4 -4,-112 618.54,-112 618.54,4 -4,4"/>
<!-- gmt -->
<g id="node1" class="node">
<title>gmt</title>
<g id="a_node1"><a xlink:href="https://github.com/conda-forge/gmt-feedstock" xlink:title="gmt">
<ellipse fill="#35b779" stroke="black" cx="27" cy="-90" rx="27" ry="18"/>
<text text-anchor="middle" x="27" y="-86.3" font-family="Times,serif" font-size="14.00">gmt</text>
</a>
</g>
</g>
<!-- conda&#45;forge&#45;pinning -->
<g id="node7" class="node">
<title>conda&#45;forge&#45;pinning</title>
<ellipse fill="none" stroke="black" cx="250" cy="-18" rx="103.18" ry="18"/>
<text text-anchor="middle" x="250" y="-14.3" font-family="Times,serif" font-size="14.00">conda&#45;forge&#45;pinning</text>
</g>
<!-- gmt&#45;&gt;conda&#45;forge&#45;pinning -->
<g id="edge1" class="edge">
<title>gmt&#45;&gt;conda&#45;forge&#45;pinning</title>
<path fill="none" stroke="black" d="M48.07,-78.34C52.91,-76.09 58.08,-73.84 63,-72 101.56,-57.55 145.84,-44.83 181.64,-35.48"/>
<polygon fill="black" stroke="black" points="182.69,-38.82 191.5,-32.93 180.94,-32.04 182.69,-38.82"/>
</g>
<!-- nansat -->
<g id="node2" class="node">
<title>nansat</title>
<g id="a_node2"><a xlink:href="https://github.com/conda-forge/nansat-feedstock" xlink:title="nansat">
<ellipse fill="#35b779" stroke="black" cx="112" cy="-90" rx="40.09" ry="18"/>
<text text-anchor="middle" x="112" y="-86.3" font-family="Times,serif" font-size="14.00">nansat</text>
</a>
</g>
</g>
<!-- nansat&#45;&gt;conda&#45;forge&#45;pinning -->
<g id="edge2" class="edge">
<title>nansat&#45;&gt;conda&#45;forge&#45;pinning</title>
<path fill="none" stroke="black" d="M137.63,-76C157.73,-65.81 186.07,-51.43 209.26,-39.66"/>
<polygon fill="black" stroke="black" points="210.86,-42.78 218.2,-35.13 207.69,-36.53 210.86,-42.78"/>
</g>
<!-- qgis -->
<g id="node3" class="node">
<title>qgis</title>
<g id="a_node3"><a xlink:href="https://github.com/conda-forge/qgis-feedstock/pull/124" xlink:title="qgis">
<ellipse fill="#31688e" stroke="black" cx="201" cy="-90" rx="30.59" ry="18"/>
<text text-anchor="middle" x="201" y="-86.3" font-family="Times,serif" font-size="14.00" fill="white">qgis</text>
</a>
</g>
</g>
<!-- qgis&#45;&gt;conda&#45;forge&#45;pinning -->
<g id="edge3" class="edge">
<title>qgis&#45;&gt;conda&#45;forge&#45;pinning</title>
<path fill="none" stroke="black" d="M212.12,-73.12C218,-64.72 225.36,-54.2 232.03,-44.67"/>
<polygon fill="black" stroke="black" points="235.03,-46.49 237.9,-36.29 229.29,-42.48 235.03,-46.49"/>
</g>
<!-- rsgislib -->
<g id="node4" class="node">
<title>rsgislib</title>
<g id="a_node4"><a xlink:href="https://github.com/conda-forge/rsgislib-feedstock/pull/33" xlink:title="rsgislib">
<ellipse fill="#31688e" stroke="black" cx="300" cy="-90" rx="50.09" ry="18"/>
<text text-anchor="middle" x="300" y="-86.3" font-family="Times,serif" font-size="14.00" fill="white">rsgislib</text>
</a>
</g>
</g>
<!-- rsgislib&#45;&gt;conda&#45;forge&#45;pinning -->
<g id="edge4" class="edge">
<title>rsgislib&#45;&gt;conda&#45;forge&#45;pinning</title>
<path fill="none" stroke="black" d="M288.15,-72.41C282.14,-63.99 274.7,-53.58 268,-44.2"/>
<polygon fill="black" stroke="black" points="270.77,-42.06 262.11,-35.96 265.08,-46.13 270.77,-42.06"/>
</g>
<!-- entwine -->
<g id="node5" class="node">
<title>entwine</title>
<g id="a_node5"><a xlink:href="https://github.com/conda-forge/entwine-feedstock" xlink:title="entwine">
<ellipse fill="#35b779" stroke="black" cx="413" cy="-90" rx="44.69" ry="18"/>
<text text-anchor="middle" x="413" y="-86.3" font-family="Times,serif" font-size="14.00">entwine</text>
</a>
</g>
</g>
<!-- entwine&#45;&gt;conda&#45;forge&#45;pinning -->
<g id="edge5" class="edge">
<title>entwine&#45;&gt;conda&#45;forge&#45;pinning</title>
<path fill="none" stroke="black" d="M383.48,-76.32C359.17,-65.88 324.26,-50.89 296.24,-38.86"/>
<polygon fill="black" stroke="black" points="297.59,-35.63 287.02,-34.9 294.83,-42.06 297.59,-35.63"/>
</g>
<!-- esys&#45;escript -->
<g id="node6" class="node">
<title>esys&#45;escript</title>
<g id="a_node6"><a xlink:href="https://github.com/conda-forge/esys-escript-feedstock" xlink:title="esys escript">
<ellipse fill="#35b779" stroke="black" cx="545" cy="-90" rx="69.59" ry="18"/>
<text text-anchor="middle" x="545" y="-86.3" font-family="Times,serif" font-size="14.00">esys escript</text>
</a>
</g>
</g>
<!-- esys&#45;escript&#45;&gt;conda&#45;forge&#45;pinning -->
<g id="edge6" class="edge">
<title>esys&#45;escript&#45;&gt;conda&#45;forge&#45;pinning</title>
<path fill="none" stroke="black" d="M495.62,-77.28C447.06,-65.76 372.53,-48.07 318.3,-35.21"/>
<polygon fill="black" stroke="black" points="318.96,-31.77 308.42,-32.86 317.34,-38.58 318.96,-31.77"/>
</g>
</g>
</svg>
