<?xml version="1.0" encoding="UTF-8" standalone="no"?>
<!DOCTYPE svg PUBLIC "-//W3C//DTD SVG 1.1//EN"
 "http://www.w3.org/Graphics/SVG/1.1/DTD/svg11.dtd">
<!-- Generated by graphviz version 2.42.3 (20191010.1750)
 -->
<!-- Title: %3 Pages: 1 -->
<svg width="1054pt" height="116pt"
 viewBox="0.00 0.00 1053.54 116.00" xmlns="http://www.w3.org/2000/svg" xmlns:xlink="http://www.w3.org/1999/xlink">
<g id="graph0" class="graph" transform="scale(1 1) rotate(0) translate(4 112)">
<title>%3</title>
<polygon fill="white" stroke="transparent" points="-4,4 -4,-112 1049.54,-112 1049.54,4 -4,4"/>
<!-- gmt -->
<g id="node1" class="node">
<title>gmt</title>
<g id="a_node1"><a xlink:href="https://github.com/conda-forge/gmt-feedstock" xlink:title="gmt">
<ellipse fill="#35b779" stroke="black" cx="27" cy="-90" rx="27" ry="18"/>
<text text-anchor="middle" x="27" y="-86.3" font-family="Times,serif" font-size="14.00">gmt</text>
</a>
</g>
</g>
<!-- conda&#45;forge&#45;pinning -->
<g id="node10" class="node">
<title>conda&#45;forge&#45;pinning</title>
<ellipse fill="none" stroke="black" cx="413" cy="-18" rx="103.18" ry="18"/>
<text text-anchor="middle" x="413" y="-14.3" font-family="Times,serif" font-size="14.00">conda&#45;forge&#45;pinning</text>
</g>
<!-- gmt&#45;&gt;conda&#45;forge&#45;pinning -->
<g id="edge1" class="edge">
<title>gmt&#45;&gt;conda&#45;forge&#45;pinning</title>
<path fill="none" stroke="black" d="M47.53,-78.05C52.49,-75.76 57.84,-73.57 63,-72 143.69,-47.42 238.46,-33.96 309.02,-26.76"/>
<polygon fill="black" stroke="black" points="309.65,-30.22 319.25,-25.75 308.96,-23.25 309.65,-30.22"/>
</g>
<!-- nansat -->
<g id="node2" class="node">
<title>nansat</title>
<g id="a_node2"><a xlink:href="https://github.com/conda-forge/nansat-feedstock" xlink:title="nansat">
<ellipse fill="#35b779" stroke="black" cx="112" cy="-90" rx="40.09" ry="18"/>
<text text-anchor="middle" x="112" y="-86.3" font-family="Times,serif" font-size="14.00">nansat</text>
</a>
</g>
</g>
<!-- nansat&#45;&gt;conda&#45;forge&#45;pinning -->
<g id="edge2" class="edge">
<title>nansat&#45;&gt;conda&#45;forge&#45;pinning</title>
<path fill="none" stroke="black" d="M142.13,-77.88C148.33,-75.78 154.84,-73.71 161,-72 217.83,-56.23 283,-42.64 332.83,-33.17"/>
<polygon fill="black" stroke="black" points="333.72,-36.57 342.9,-31.27 332.43,-29.69 333.72,-36.57"/>
</g>
<!-- qgis -->
<g id="node3" class="node">
<title>qgis</title>
<g id="a_node3"><a xlink:href="https://github.com/conda-forge/qgis-feedstock/pull/124" xlink:title="qgis">
<ellipse fill="#31688e" stroke="black" cx="201" cy="-90" rx="30.59" ry="18"/>
<text text-anchor="middle" x="201" y="-86.3" font-family="Times,serif" font-size="14.00" fill="white">qgis</text>
</a>
</g>
</g>
<!-- qgis&#45;&gt;conda&#45;forge&#45;pinning -->
<g id="edge3" class="edge">
<title>qgis&#45;&gt;conda&#45;forge&#45;pinning</title>
<path fill="none" stroke="black" d="M224.95,-78.35C230.2,-76.15 235.76,-73.92 241,-72 276.91,-58.88 317.78,-46.19 350.66,-36.52"/>
<polygon fill="black" stroke="black" points="351.98,-39.79 360.6,-33.62 350.02,-33.07 351.98,-39.79"/>
</g>
<!-- rsgislib -->
<g id="node4" class="node">
<title>rsgislib</title>
<g id="a_node4"><a xlink:href="https://github.com/conda-forge/rsgislib-feedstock/pull/33" xlink:title="rsgislib">
<ellipse fill="#31688e" stroke="black" cx="300" cy="-90" rx="50.09" ry="18"/>
<text text-anchor="middle" x="300" y="-86.3" font-family="Times,serif" font-size="14.00" fill="white">rsgislib</text>
</a>
</g>
</g>
<!-- rsgislib&#45;&gt;conda&#45;forge&#45;pinning -->
<g id="edge4" class="edge">
<title>rsgislib&#45;&gt;conda&#45;forge&#45;pinning</title>
<path fill="none" stroke="black" d="M323.96,-74.15C339.52,-64.52 360.07,-51.79 377.51,-40.99"/>
<polygon fill="black" stroke="black" points="379.64,-43.78 386.3,-35.54 375.96,-37.83 379.64,-43.78"/>
</g>
<!-- tuiview -->
<g id="node5" class="node">
<title>tuiview</title>
<g id="a_node5"><a xlink:href="https://github.com/conda-forge/tuiview-feedstock/pull/34" xlink:title="tuiview">
<ellipse fill="#31688e" stroke="black" cx="413" cy="-90" rx="44.69" ry="18"/>
<text text-anchor="middle" x="413" y="-86.3" font-family="Times,serif" font-size="14.00" fill="white">tuiview</text>
</a>
</g>
</g>
<!-- tuiview&#45;&gt;conda&#45;forge&#45;pinning -->
<g id="edge5" class="edge">
<title>tuiview&#45;&gt;conda&#45;forge&#45;pinning</title>
<path fill="none" stroke="black" d="M413,-71.7C413,-63.98 413,-54.71 413,-46.11"/>
<polygon fill="black" stroke="black" points="416.5,-46.1 413,-36.1 409.5,-46.1 416.5,-46.1"/>
</g>
<!-- pycoalescence -->
<g id="node6" class="node">
<title>pycoalescence</title>
<g id="a_node6"><a xlink:href="https://github.com/conda-forge/pycoalescence-feedstock/pull/34" xlink:title="pycoalescence">
<ellipse fill="#31688e" stroke="black" cx="550" cy="-90" rx="74.19" ry="18"/>
<text text-anchor="middle" x="550" y="-86.3" font-family="Times,serif" font-size="14.00" fill="white">pycoalescence</text>
</a>
</g>
</g>
<!-- pycoalescence&#45;&gt;conda&#45;forge&#45;pinning -->
<g id="edge6" class="edge">
<title>pycoalescence&#45;&gt;conda&#45;forge&#45;pinning</title>
<path fill="none" stroke="black" d="M519.6,-73.46C500.23,-63.57 474.91,-50.63 453.81,-39.85"/>
<polygon fill="black" stroke="black" points="455.25,-36.65 444.75,-35.22 452.06,-42.89 455.25,-36.65"/>
</g>
<!-- entwine -->
<g id="node7" class="node">
<title>entwine</title>
<g id="a_node7"><a xlink:href="https://github.com/conda-forge/entwine-feedstock" xlink:title="entwine">
<ellipse fill="#35b779" stroke="black" cx="687" cy="-90" rx="44.69" ry="18"/>
<text text-anchor="middle" x="687" y="-86.3" font-family="Times,serif" font-size="14.00">entwine</text>
</a>
</g>
</g>
<!-- entwine&#45;&gt;conda&#45;forge&#45;pinning -->
<g id="edge7" class="edge">
<title>entwine&#45;&gt;conda&#45;forge&#45;pinning</title>
<path fill="none" stroke="black" d="M653.4,-78.03C646.67,-75.94 639.63,-73.84 633,-72 583.66,-58.31 527.52,-44.82 484.31,-34.87"/>
<polygon fill="black" stroke="black" points="484.99,-31.44 474.46,-32.62 483.42,-38.26 484.99,-31.44"/>
</g>
<!-- esys&#45;escript -->
<g id="node8" class="node">
<title>esys&#45;escript</title>
<g id="a_node8"><a xlink:href="https://github.com/conda-forge/esys-escript-feedstock" xlink:title="esys escript">
<ellipse fill="#35b779" stroke="black" cx="819" cy="-90" rx="69.59" ry="18"/>
<text text-anchor="middle" x="819" y="-86.3" font-family="Times,serif" font-size="14.00">esys escript</text>
</a>
</g>
</g>
<!-- esys&#45;escript&#45;&gt;conda&#45;forge&#45;pinning -->
<g id="edge8" class="edge">
<title>esys&#45;escript&#45;&gt;conda&#45;forge&#45;pinning</title>
<path fill="none" stroke="black" d="M768.31,-77.53C759.24,-75.6 749.85,-73.68 741,-72 659.33,-56.51 565.68,-41.67 499.41,-31.65"/>
<polygon fill="black" stroke="black" points="499.83,-28.17 489.42,-30.15 498.79,-35.1 499.83,-28.17"/>
</g>
<!-- lsdtopotools -->
<g id="node9" class="node">
<title>lsdtopotools</title>
<g id="a_node9"><a xlink:href="https://github.com/conda-forge/lsdtopotools-feedstock/pull/1" xlink:title="lsdtopotools">
<ellipse fill="#31688e" stroke="black" cx="976" cy="-90" rx="69.59" ry="18"/>
<text text-anchor="middle" x="976" y="-86.3" font-family="Times,serif" font-size="14.00" fill="white">lsdtopotools</text>
</a>
</g>
</g>
<!-- lsdtopotools&#45;&gt;conda&#45;forge&#45;pinning -->
<g id="edge9" class="edge">
<title>lsdtopotools&#45;&gt;conda&#45;forge&#45;pinning</title>
<path fill="none" stroke="black" d="M926.22,-77.33C916.88,-75.37 907.16,-73.5 898,-72 766.8,-50.6 614.18,-35.52 515.72,-27.05"/>
<polygon fill="black" stroke="black" points="515.73,-23.54 505.47,-26.18 515.13,-30.51 515.73,-23.54"/>
</g>
</g>
</svg>
