<?xml version="1.0" encoding="UTF-8" standalone="no"?>
<!DOCTYPE svg PUBLIC "-//W3C//DTD SVG 1.1//EN"
 "http://www.w3.org/Graphics/SVG/1.1/DTD/svg11.dtd">
<!-- Generated by graphviz version 2.42.3 (20191010.1750)
 -->
<!-- Title: %3 Pages: 1 -->
<svg width="1161pt" height="116pt"
 viewBox="0.00 0.00 1161.39 116.00" xmlns="http://www.w3.org/2000/svg" xmlns:xlink="http://www.w3.org/1999/xlink">
<g id="graph0" class="graph" transform="scale(1 1) rotate(0) translate(4 112)">
<title>%3</title>
<polygon fill="white" stroke="transparent" points="-4,4 -4,-112 1157.39,-112 1157.39,4 -4,4"/>
<!-- cartopy -->
<g id="node1" class="node">
<title>cartopy</title>
<g id="a_node1"><a xlink:href="https://github.com/conda-forge/cartopy-feedstock" xlink:title="cartopy">
<ellipse fill="#35b779" stroke="black" cx="44.85" cy="-90" rx="44.69" ry="18"/>
<text text-anchor="middle" x="44.85" y="-86.3" font-family="Times,serif" font-size="14.00">cartopy</text>
</a>
</g>
</g>
<!-- conda&#45;forge&#45;pinning -->
<g id="node11" class="node">
<title>conda&#45;forge&#45;pinning</title>
<ellipse fill="none" stroke="black" cx="463.85" cy="-18" rx="103.18" ry="18"/>
<text text-anchor="middle" x="463.85" y="-14.3" font-family="Times,serif" font-size="14.00">conda&#45;forge&#45;pinning</text>
</g>
<!-- cartopy&#45;&gt;conda&#45;forge&#45;pinning -->
<g id="edge1" class="edge">
<title>cartopy&#45;&gt;conda&#45;forge&#45;pinning</title>
<path fill="none" stroke="black" d="M77.74,-77.72C84.66,-75.61 91.95,-73.58 98.85,-72 188.43,-51.54 292.27,-37.36 366.23,-28.85"/>
<polygon fill="black" stroke="black" points="366.93,-32.3 376.47,-27.69 366.14,-25.34 366.93,-32.3"/>
</g>
<!-- gmt -->
<g id="node2" class="node">
<title>gmt</title>
<g id="a_node2"><a xlink:href="https://github.com/conda-forge/gmt-feedstock" xlink:title="gmt">
<ellipse fill="#35b779" stroke="black" cx="134.85" cy="-90" rx="27" ry="18"/>
<text text-anchor="middle" x="134.85" y="-86.3" font-family="Times,serif" font-size="14.00">gmt</text>
</a>
</g>
</g>
<!-- gmt&#45;&gt;conda&#45;forge&#45;pinning -->
<g id="edge2" class="edge">
<title>gmt&#45;&gt;conda&#45;forge&#45;pinning</title>
<path fill="none" stroke="black" d="M155.41,-78.16C160.36,-75.87 165.71,-73.64 170.85,-72 235.53,-51.27 311.01,-37.86 369.15,-29.72"/>
<polygon fill="black" stroke="black" points="369.63,-33.18 379.06,-28.35 368.68,-26.25 369.63,-33.18"/>
</g>
<!-- nansat -->
<g id="node3" class="node">
<title>nansat</title>
<g id="a_node3"><a xlink:href="https://github.com/conda-forge/nansat-feedstock" xlink:title="nansat">
<ellipse fill="#35b779" stroke="black" cx="219.85" cy="-90" rx="40.09" ry="18"/>
<text text-anchor="middle" x="219.85" y="-86.3" font-family="Times,serif" font-size="14.00">nansat</text>
</a>
</g>
</g>
<!-- nansat&#45;&gt;conda&#45;forge&#45;pinning -->
<g id="edge3" class="edge">
<title>nansat&#45;&gt;conda&#45;forge&#45;pinning</title>
<path fill="none" stroke="black" d="M250.32,-78.06C256.43,-75.97 262.82,-73.86 268.85,-72 311.46,-58.83 359.84,-45.67 397.76,-35.76"/>
<polygon fill="black" stroke="black" points="398.86,-39.09 407.66,-33.18 397.1,-32.31 398.86,-39.09"/>
</g>
<!-- qgis -->
<g id="node4" class="node">
<title>qgis</title>
<g id="a_node4"><a xlink:href="https://github.com/conda-forge/qgis-feedstock" xlink:title="qgis">
<ellipse fill="#35b779" stroke="black" cx="308.85" cy="-90" rx="30.59" ry="18"/>
<text text-anchor="middle" x="308.85" y="-86.3" font-family="Times,serif" font-size="14.00">qgis</text>
</a>
</g>
</g>
<!-- qgis&#45;&gt;conda&#45;forge&#45;pinning -->
<g id="edge4" class="edge">
<title>qgis&#45;&gt;conda&#45;forge&#45;pinning</title>
<path fill="none" stroke="black" d="M332.39,-78.37C355.37,-67.99 390.91,-51.94 419.24,-39.14"/>
<polygon fill="black" stroke="black" points="420.88,-42.25 428.55,-34.94 418,-35.87 420.88,-42.25"/>
</g>
<!-- rsgislib -->
<g id="node5" class="node">
<title>rsgislib</title>
<g id="a_node5"><a xlink:href="https://github.com/conda-forge/rsgislib-feedstock" xlink:title="rsgislib">
<ellipse fill="#35b779" stroke="black" cx="407.85" cy="-90" rx="50.09" ry="18"/>
<text text-anchor="middle" x="407.85" y="-86.3" font-family="Times,serif" font-size="14.00">rsgislib</text>
</a>
</g>
</g>
<!-- rsgislib&#45;&gt;conda&#45;forge&#45;pinning -->
<g id="edge5" class="edge">
<title>rsgislib&#45;&gt;conda&#45;forge&#45;pinning</title>
<path fill="none" stroke="black" d="M421.12,-72.41C427.92,-63.91 436.35,-53.37 443.92,-43.91"/>
<polygon fill="black" stroke="black" points="446.77,-45.95 450.28,-35.96 441.3,-41.58 446.77,-45.95"/>
</g>
<!-- tuiview -->
<g id="node6" class="node">
<title>tuiview</title>
<g id="a_node6"><a xlink:href="https://github.com/conda-forge/tuiview-feedstock" xlink:title="tuiview">
<ellipse fill="#35b779" stroke="black" cx="520.85" cy="-90" rx="44.69" ry="18"/>
<text text-anchor="middle" x="520.85" y="-86.3" font-family="Times,serif" font-size="14.00">tuiview</text>
</a>
</g>
</g>
<!-- tuiview&#45;&gt;conda&#45;forge&#45;pinning -->
<g id="edge6" class="edge">
<title>tuiview&#45;&gt;conda&#45;forge&#45;pinning</title>
<path fill="none" stroke="black" d="M507.63,-72.76C500.71,-64.27 492.08,-53.68 484.32,-44.15"/>
<polygon fill="black" stroke="black" points="486.82,-41.67 477.79,-36.12 481.39,-46.09 486.82,-41.67"/>
</g>
<!-- pycoalescence -->
<g id="node7" class="node">
<title>pycoalescence</title>
<g id="a_node7"><a xlink:href="https://github.com/conda-forge/pycoalescence-feedstock" xlink:title="pycoalescence">
<ellipse fill="#35b779" stroke="black" cx="657.85" cy="-90" rx="74.19" ry="18"/>
<text text-anchor="middle" x="657.85" y="-86.3" font-family="Times,serif" font-size="14.00">pycoalescence</text>
</a>
</g>
</g>
<!-- pycoalescence&#45;&gt;conda&#45;forge&#45;pinning -->
<g id="edge7" class="edge">
<title>pycoalescence&#45;&gt;conda&#45;forge&#45;pinning</title>
<path fill="none" stroke="black" d="M618.12,-74.67C588.68,-64.04 548.29,-49.47 516.21,-37.9"/>
<polygon fill="black" stroke="black" points="517.14,-34.51 506.55,-34.41 514.77,-41.09 517.14,-34.51"/>
</g>
<!-- entwine -->
<g id="node8" class="node">
<title>entwine</title>
<g id="a_node8"><a xlink:href="https://github.com/conda-forge/entwine-feedstock" xlink:title="entwine">
<ellipse fill="#35b779" stroke="black" cx="794.85" cy="-90" rx="44.69" ry="18"/>
<text text-anchor="middle" x="794.85" y="-86.3" font-family="Times,serif" font-size="14.00">entwine</text>
</a>
</g>
</g>
<!-- entwine&#45;&gt;conda&#45;forge&#45;pinning -->
<g id="edge8" class="edge">
<title>entwine&#45;&gt;conda&#45;forge&#45;pinning</title>
<path fill="none" stroke="black" d="M761.6,-77.87C754.78,-75.77 747.61,-73.71 740.85,-72 676.6,-55.8 602.87,-41.92 547.64,-32.43"/>
<polygon fill="black" stroke="black" points="547.99,-28.94 537.55,-30.71 546.82,-35.84 547.99,-28.94"/>
</g>
<!-- esys&#45;escript -->
<g id="node9" class="node">
<title>esys&#45;escript</title>
<g id="a_node9"><a xlink:href="https://github.com/conda-forge/esys-escript-feedstock" xlink:title="esys escript">
<ellipse fill="#35b779" stroke="black" cx="926.85" cy="-90" rx="69.59" ry="18"/>
<text text-anchor="middle" x="926.85" y="-86.3" font-family="Times,serif" font-size="14.00">esys escript</text>
</a>
</g>
</g>
<!-- esys&#45;escript&#45;&gt;conda&#45;forge&#45;pinning -->
<g id="edge9" class="edge">
<title>esys&#45;escript&#45;&gt;conda&#45;forge&#45;pinning</title>
<path fill="none" stroke="black" d="M876.61,-77.45C867.4,-75.5 857.85,-73.6 848.85,-72 749.98,-54.45 635.96,-39.39 557.81,-29.86"/>
<polygon fill="black" stroke="black" points="557.85,-26.34 547.5,-28.61 557.01,-33.29 557.85,-26.34"/>
</g>
<!-- lsdtopotools -->
<g id="node10" class="node">
<title>lsdtopotools</title>
<g id="a_node10"><a xlink:href="https://github.com/conda-forge/lsdtopotools-feedstock" xlink:title="lsdtopotools">
<ellipse fill="#35b779" stroke="black" cx="1083.85" cy="-90" rx="69.59" ry="18"/>
<text text-anchor="middle" x="1083.85" y="-86.3" font-family="Times,serif" font-size="14.00">lsdtopotools</text>
</a>
</g>
</g>
<!-- lsdtopotools&#45;&gt;conda&#45;forge&#45;pinning -->
<g id="edge10" class="edge">
<title>lsdtopotools&#45;&gt;conda&#45;forge&#45;pinning</title>
<path fill="none" stroke="black" d="M1034.08,-77.24C1024.73,-75.3 1015.02,-73.44 1005.85,-72 855.05,-48.28 678.87,-33.4 569.31,-25.64"/>
<polygon fill="black" stroke="black" points="569.46,-22.14 559.24,-24.93 568.98,-29.13 569.46,-22.14"/>
</g>
</g>
</svg>
