<?xml version="1.0" encoding="UTF-8" standalone="no"?>
<!DOCTYPE svg PUBLIC "-//W3C//DTD SVG 1.1//EN"
 "http://www.w3.org/Graphics/SVG/1.1/DTD/svg11.dtd">
<!-- Generated by graphviz version 2.42.3 (20191010.1750)
 -->
<!-- Title: %3 Pages: 1 -->
<svg width="897pt" height="116pt"
 viewBox="0.00 0.00 896.54 116.00" xmlns="http://www.w3.org/2000/svg" xmlns:xlink="http://www.w3.org/1999/xlink">
<g id="graph0" class="graph" transform="scale(1 1) rotate(0) translate(4 112)">
<title>%3</title>
<polygon fill="white" stroke="transparent" points="-4,4 -4,-112 892.54,-112 892.54,4 -4,4"/>
<!-- gmt -->
<g id="node1" class="node">
<title>gmt</title>
<g id="a_node1"><a xlink:href="https://github.com/conda-forge/gmt-feedstock" xlink:title="gmt">
<ellipse fill="#35b779" stroke="black" cx="27" cy="-90" rx="27" ry="18"/>
<text text-anchor="middle" x="27" y="-86.3" font-family="Times,serif" font-size="14.00">gmt</text>
</a>
</g>
</g>
<!-- conda&#45;forge&#45;pinning -->
<g id="node9" class="node">
<title>conda&#45;forge&#45;pinning</title>
<ellipse fill="none" stroke="black" cx="356" cy="-18" rx="103.18" ry="18"/>
<text text-anchor="middle" x="356" y="-14.3" font-family="Times,serif" font-size="14.00">conda&#45;forge&#45;pinning</text>
</g>
<!-- gmt&#45;&gt;conda&#45;forge&#45;pinning -->
<g id="edge1" class="edge">
<title>gmt&#45;&gt;conda&#45;forge&#45;pinning</title>
<path fill="none" stroke="black" d="M47.56,-78.16C52.52,-75.87 57.87,-73.64 63,-72 127.69,-51.27 203.16,-37.86 261.31,-29.72"/>
<polygon fill="black" stroke="black" points="261.79,-33.18 271.22,-28.35 260.83,-26.25 261.79,-33.18"/>
</g>
<!-- nansat -->
<g id="node2" class="node">
<title>nansat</title>
<g id="a_node2"><a xlink:href="https://github.com/conda-forge/nansat-feedstock" xlink:title="nansat">
<ellipse fill="#35b779" stroke="black" cx="112" cy="-90" rx="40.09" ry="18"/>
<text text-anchor="middle" x="112" y="-86.3" font-family="Times,serif" font-size="14.00">nansat</text>
</a>
</g>
</g>
<!-- nansat&#45;&gt;conda&#45;forge&#45;pinning -->
<g id="edge2" class="edge">
<title>nansat&#45;&gt;conda&#45;forge&#45;pinning</title>
<path fill="none" stroke="black" d="M142.48,-78.06C148.59,-75.97 154.98,-73.86 161,-72 203.62,-58.83 252,-45.67 289.91,-35.76"/>
<polygon fill="black" stroke="black" points="291.01,-39.09 299.81,-33.18 289.25,-32.31 291.01,-39.09"/>
</g>
<!-- qgis -->
<g id="node3" class="node">
<title>qgis</title>
<g id="a_node3"><a xlink:href="https://github.com/conda-forge/qgis-feedstock/pull/124" xlink:title="qgis">
<ellipse fill="#31688e" stroke="black" cx="201" cy="-90" rx="30.59" ry="18"/>
<text text-anchor="middle" x="201" y="-86.3" font-family="Times,serif" font-size="14.00" fill="white">qgis</text>
</a>
</g>
</g>
<!-- qgis&#45;&gt;conda&#45;forge&#45;pinning -->
<g id="edge3" class="edge">
<title>qgis&#45;&gt;conda&#45;forge&#45;pinning</title>
<path fill="none" stroke="black" d="M224.54,-78.37C247.52,-67.99 283.06,-51.94 311.4,-39.14"/>
<polygon fill="black" stroke="black" points="313.03,-42.25 320.7,-34.94 310.15,-35.87 313.03,-42.25"/>
</g>
<!-- rsgislib -->
<g id="node4" class="node">
<title>rsgislib</title>
<g id="a_node4"><a xlink:href="https://github.com/conda-forge/rsgislib-feedstock/pull/33" xlink:title="rsgislib">
<ellipse fill="#31688e" stroke="black" cx="300" cy="-90" rx="50.09" ry="18"/>
<text text-anchor="middle" x="300" y="-86.3" font-family="Times,serif" font-size="14.00" fill="white">rsgislib</text>
</a>
</g>
</g>
<!-- rsgislib&#45;&gt;conda&#45;forge&#45;pinning -->
<g id="edge4" class="edge">
<title>rsgislib&#45;&gt;conda&#45;forge&#45;pinning</title>
<path fill="none" stroke="black" d="M313.27,-72.41C320.08,-63.91 328.5,-53.37 336.07,-43.91"/>
<polygon fill="black" stroke="black" points="338.92,-45.95 342.44,-35.96 333.45,-41.58 338.92,-45.95"/>
</g>
<!-- tuiview -->
<g id="node5" class="node">
<title>tuiview</title>
<g id="a_node5"><a xlink:href="https://github.com/conda-forge/tuiview-feedstock/pull/34" xlink:title="tuiview">
<ellipse fill="#31688e" stroke="black" cx="413" cy="-90" rx="44.69" ry="18"/>
<text text-anchor="middle" x="413" y="-86.3" font-family="Times,serif" font-size="14.00" fill="white">tuiview</text>
</a>
</g>
</g>
<!-- tuiview&#45;&gt;conda&#45;forge&#45;pinning -->
<g id="edge5" class="edge">
<title>tuiview&#45;&gt;conda&#45;forge&#45;pinning</title>
<path fill="none" stroke="black" d="M399.78,-72.76C392.86,-64.27 384.24,-53.68 376.48,-44.15"/>
<polygon fill="black" stroke="black" points="378.97,-41.67 369.94,-36.12 373.54,-46.09 378.97,-41.67"/>
</g>
<!-- pycoalescence -->
<g id="node6" class="node">
<title>pycoalescence</title>
<g id="a_node6"><a xlink:href="https://github.com/conda-forge/pycoalescence-feedstock/pull/34" xlink:title="pycoalescence">
<ellipse fill="#31688e" stroke="black" cx="550" cy="-90" rx="74.19" ry="18"/>
<text text-anchor="middle" x="550" y="-86.3" font-family="Times,serif" font-size="14.00" fill="white">pycoalescence</text>
</a>
</g>
</g>
<!-- pycoalescence&#45;&gt;conda&#45;forge&#45;pinning -->
<g id="edge6" class="edge">
<title>pycoalescence&#45;&gt;conda&#45;forge&#45;pinning</title>
<path fill="none" stroke="black" d="M510.27,-74.67C480.84,-64.04 440.44,-49.47 408.37,-37.9"/>
<polygon fill="black" stroke="black" points="409.3,-34.51 398.7,-34.41 406.92,-41.09 409.3,-34.51"/>
</g>
<!-- entwine -->
<g id="node7" class="node">
<title>entwine</title>
<g id="a_node7"><a xlink:href="https://github.com/conda-forge/entwine-feedstock" xlink:title="entwine">
<ellipse fill="#35b779" stroke="black" cx="687" cy="-90" rx="44.69" ry="18"/>
<text text-anchor="middle" x="687" y="-86.3" font-family="Times,serif" font-size="14.00">entwine</text>
</a>
</g>
</g>
<!-- entwine&#45;&gt;conda&#45;forge&#45;pinning -->
<g id="edge7" class="edge">
<title>entwine&#45;&gt;conda&#45;forge&#45;pinning</title>
<path fill="none" stroke="black" d="M653.76,-77.87C646.93,-75.77 639.77,-73.71 633,-72 568.75,-55.8 495.02,-41.92 439.79,-32.43"/>
<polygon fill="black" stroke="black" points="440.15,-28.94 429.7,-30.71 438.97,-35.84 440.15,-28.94"/>
</g>
<!-- esys&#45;escript -->
<g id="node8" class="node">
<title>esys&#45;escript</title>
<g id="a_node8"><a xlink:href="https://github.com/conda-forge/esys-escript-feedstock" xlink:title="esys escript">
<ellipse fill="#35b779" stroke="black" cx="819" cy="-90" rx="69.59" ry="18"/>
<text text-anchor="middle" x="819" y="-86.3" font-family="Times,serif" font-size="14.00">esys escript</text>
</a>
</g>
</g>
<!-- esys&#45;escript&#45;&gt;conda&#45;forge&#45;pinning -->
<g id="edge8" class="edge">
<title>esys&#45;escript&#45;&gt;conda&#45;forge&#45;pinning</title>
<path fill="none" stroke="black" d="M768.76,-77.45C759.55,-75.5 750.01,-73.6 741,-72 642.14,-54.45 528.11,-39.39 449.96,-29.86"/>
<polygon fill="black" stroke="black" points="450.01,-26.34 439.66,-28.61 449.16,-33.29 450.01,-26.34"/>
</g>
</g>
</svg>
