<?xml version="1.0" encoding="UTF-8" standalone="no"?>
<!DOCTYPE svg PUBLIC "-//W3C//DTD SVG 1.1//EN"
 "http://www.w3.org/Graphics/SVG/1.1/DTD/svg11.dtd">
<!-- Generated by graphviz version 2.42.3 (20191010.1750)
 -->
<!-- Title: %3 Pages: 1 -->
<svg width="756pt" height="188pt"
 viewBox="0.00 0.00 756.14 188.00" xmlns="http://www.w3.org/2000/svg" xmlns:xlink="http://www.w3.org/1999/xlink">
<g id="graph0" class="graph" transform="scale(1 1) rotate(0) translate(4 184)">
<title>%3</title>
<polygon fill="white" stroke="transparent" points="-4,4 -4,-184 752.14,-184 752.14,4 -4,4"/>
<!-- cartopy -->
<g id="node1" class="node">
<title>cartopy</title>
<ellipse fill="#fde725" stroke="black" cx="44.85" cy="-90" rx="44.69" ry="18"/>
<text text-anchor="middle" x="44.85" y="-86.3" font-family="Times,serif" font-size="14.00">cartopy</text>
</g>
<!-- gdal -->
<g id="node2" class="node">
<title>gdal</title>
<ellipse fill="#fde725" stroke="black" cx="210.85" cy="-90" rx="30.59" ry="18"/>
<text text-anchor="middle" x="210.85" y="-86.3" font-family="Times,serif" font-size="14.00">gdal</text>
</g>
<!-- qgis -->
<g id="node5" class="node">
<title>qgis</title>
<ellipse fill="#fde725" stroke="black" cx="151.85" cy="-18" rx="30.59" ry="18"/>
<text text-anchor="middle" x="151.85" y="-14.3" font-family="Times,serif" font-size="14.00">qgis</text>
</g>
<!-- gdal&#45;&gt;qgis -->
<g id="edge1" class="edge">
<title>gdal&#45;&gt;qgis</title>
<path fill="none" stroke="black" d="M197.75,-73.46C190.04,-64.31 180.13,-52.55 171.49,-42.31"/>
<polygon fill="black" stroke="black" points="174.02,-39.88 164.9,-34.49 168.67,-44.39 174.02,-39.88"/>
</g>
<!-- rsgislib -->
<g id="node6" class="node">
<title>rsgislib</title>
<ellipse fill="#fde725" stroke="black" cx="250.85" cy="-18" rx="50.09" ry="18"/>
<text text-anchor="middle" x="250.85" y="-14.3" font-family="Times,serif" font-size="14.00">rsgislib</text>
</g>
<!-- gdal&#45;&gt;rsgislib -->
<g id="edge2" class="edge">
<title>gdal&#45;&gt;rsgislib</title>
<path fill="none" stroke="black" d="M220.12,-72.76C224.83,-64.53 230.67,-54.32 235.98,-45.02"/>
<polygon fill="black" stroke="black" points="239.14,-46.54 241.06,-36.12 233.06,-43.07 239.14,-46.54"/>
</g>
<!-- libspatialite -->
<g id="node3" class="node">
<title>libspatialite</title>
<ellipse fill="#31688e" stroke="black" cx="181.85" cy="-162" rx="74.19" ry="18"/>
<text text-anchor="middle" x="181.85" y="-158.3" font-family="Times,serif" font-size="14.00" fill="white">libspatialite</text>
</g>
<!-- libspatialite&#45;&gt;gdal -->
<g id="edge3" class="edge">
<title>libspatialite&#45;&gt;gdal</title>
<path fill="none" stroke="black" d="M188.87,-144.05C192.21,-135.97 196.3,-126.12 200.03,-117.11"/>
<polygon fill="black" stroke="black" points="203.3,-118.37 203.89,-107.79 196.83,-115.69 203.3,-118.37"/>
</g>
<!-- libspatialite&#45;&gt;qgis -->
<g id="edge4" class="edge">
<title>libspatialite&#45;&gt;qgis</title>
<path fill="none" stroke="black" d="M178.23,-143.87C173.09,-119.56 163.64,-74.82 157.55,-46.01"/>
<polygon fill="black" stroke="black" points="160.97,-45.25 155.48,-36.19 154.12,-46.7 160.97,-45.25"/>
</g>
<!-- postgis -->
<g id="node4" class="node">
<title>postgis</title>
<ellipse fill="#31688e" stroke="black" cx="318.85" cy="-162" rx="44.69" ry="18"/>
<text text-anchor="middle" x="318.85" y="-158.3" font-family="Times,serif" font-size="14.00" fill="white">postgis</text>
</g>
<!-- shapely -->
<g id="node7" class="node">
<title>shapely</title>
<ellipse fill="#31688e" stroke="black" cx="44.85" cy="-162" rx="44.69" ry="18"/>
<text text-anchor="middle" x="44.85" y="-158.3" font-family="Times,serif" font-size="14.00" fill="white">shapely</text>
</g>
<!-- shapely&#45;&gt;cartopy -->
<g id="edge5" class="edge">
<title>shapely&#45;&gt;cartopy</title>
<path fill="none" stroke="black" d="M44.85,-143.7C44.85,-135.98 44.85,-126.71 44.85,-118.11"/>
<polygon fill="black" stroke="black" points="48.35,-118.1 44.85,-108.1 41.35,-118.1 48.35,-118.1"/>
</g>
<!-- r&#45;rgeos -->
<g id="node8" class="node">
<title>r&#45;rgeos</title>
<ellipse fill="#31688e" stroke="black" cx="426.85" cy="-162" rx="44.69" ry="18"/>
<text text-anchor="middle" x="426.85" y="-158.3" font-family="Times,serif" font-size="14.00" fill="white">r rgeos</text>
</g>
<!-- spdlib -->
<g id="node9" class="node">
<title>spdlib</title>
<ellipse fill="#31688e" stroke="black" cx="529.85" cy="-162" rx="40.09" ry="18"/>
<text text-anchor="middle" x="529.85" y="-158.3" font-family="Times,serif" font-size="14.00" fill="white">spdlib</text>
</g>
<!-- pdal -->
<g id="node10" class="node">
<title>pdal</title>
<ellipse fill="#31688e" stroke="black" cx="618.85" cy="-162" rx="30.59" ry="18"/>
<text text-anchor="middle" x="618.85" y="-158.3" font-family="Times,serif" font-size="14.00" fill="white">pdal</text>
</g>
<!-- pygeos -->
<g id="node11" class="node">
<title>pygeos</title>
<ellipse fill="#31688e" stroke="black" cx="707.85" cy="-162" rx="40.09" ry="18"/>
<text text-anchor="middle" x="707.85" y="-158.3" font-family="Times,serif" font-size="14.00" fill="white">pygeos</text>
</g>
</g>
</svg>
