<?xml version="1.0" encoding="UTF-8" standalone="no"?>
<!DOCTYPE svg PUBLIC "-//W3C//DTD SVG 1.1//EN"
 "http://www.w3.org/Graphics/SVG/1.1/DTD/svg11.dtd">
<!-- Generated by graphviz version 2.42.3 (20191010.1750)
 -->
<!-- Title: %3 Pages: 1 -->
<svg width="864pt" height="188pt"
 viewBox="0.00 0.00 864.14 188.00" xmlns="http://www.w3.org/2000/svg" xmlns:xlink="http://www.w3.org/1999/xlink">
<g id="graph0" class="graph" transform="scale(1 1) rotate(0) translate(4 184)">
<title>%3</title>
<polygon fill="white" stroke="transparent" points="-4,4 -4,-184 860.14,-184 860.14,4 -4,4"/>
<!-- basemap -->
<g id="node1" class="node">
<title>basemap</title>
<ellipse fill="#31688e" stroke="black" cx="44.85" cy="-162" rx="44.69" ry="18"/>
<text text-anchor="middle" x="44.85" y="-158.3" font-family="Times,serif" font-size="14.00" fill="white">basemap</text>
</g>
<!-- cartopy -->
<g id="node2" class="node">
<title>cartopy</title>
<ellipse fill="#fde725" stroke="black" cx="152.85" cy="-90" rx="44.69" ry="18"/>
<text text-anchor="middle" x="152.85" y="-86.3" font-family="Times,serif" font-size="14.00">cartopy</text>
</g>
<!-- gdal -->
<g id="node3" class="node">
<title>gdal</title>
<ellipse fill="#fde725" stroke="black" cx="318.85" cy="-90" rx="30.59" ry="18"/>
<text text-anchor="middle" x="318.85" y="-86.3" font-family="Times,serif" font-size="14.00">gdal</text>
</g>
<!-- qgis -->
<g id="node6" class="node">
<title>qgis</title>
<ellipse fill="#fde725" stroke="black" cx="259.85" cy="-18" rx="30.59" ry="18"/>
<text text-anchor="middle" x="259.85" y="-14.3" font-family="Times,serif" font-size="14.00">qgis</text>
</g>
<!-- gdal&#45;&gt;qgis -->
<g id="edge1" class="edge">
<title>gdal&#45;&gt;qgis</title>
<path fill="none" stroke="black" d="M305.75,-73.46C298.04,-64.31 288.13,-52.55 279.49,-42.31"/>
<polygon fill="black" stroke="black" points="282.02,-39.88 272.9,-34.49 276.67,-44.39 282.02,-39.88"/>
</g>
<!-- rsgislib -->
<g id="node7" class="node">
<title>rsgislib</title>
<ellipse fill="#fde725" stroke="black" cx="358.85" cy="-18" rx="50.09" ry="18"/>
<text text-anchor="middle" x="358.85" y="-14.3" font-family="Times,serif" font-size="14.00">rsgislib</text>
</g>
<!-- gdal&#45;&gt;rsgislib -->
<g id="edge2" class="edge">
<title>gdal&#45;&gt;rsgislib</title>
<path fill="none" stroke="black" d="M328.12,-72.76C332.83,-64.53 338.67,-54.32 343.98,-45.02"/>
<polygon fill="black" stroke="black" points="347.14,-46.54 349.06,-36.12 341.06,-43.07 347.14,-46.54"/>
</g>
<!-- libspatialite -->
<g id="node4" class="node">
<title>libspatialite</title>
<ellipse fill="#31688e" stroke="black" cx="289.85" cy="-162" rx="74.19" ry="18"/>
<text text-anchor="middle" x="289.85" y="-158.3" font-family="Times,serif" font-size="14.00" fill="white">libspatialite</text>
</g>
<!-- libspatialite&#45;&gt;gdal -->
<g id="edge3" class="edge">
<title>libspatialite&#45;&gt;gdal</title>
<path fill="none" stroke="black" d="M296.87,-144.05C300.21,-135.97 304.3,-126.12 308.03,-117.11"/>
<polygon fill="black" stroke="black" points="311.3,-118.37 311.89,-107.79 304.83,-115.69 311.3,-118.37"/>
</g>
<!-- libspatialite&#45;&gt;qgis -->
<g id="edge4" class="edge">
<title>libspatialite&#45;&gt;qgis</title>
<path fill="none" stroke="black" d="M286.23,-143.87C281.09,-119.56 271.64,-74.82 265.55,-46.01"/>
<polygon fill="black" stroke="black" points="268.97,-45.25 263.48,-36.19 262.12,-46.7 268.97,-45.25"/>
</g>
<!-- postgis -->
<g id="node5" class="node">
<title>postgis</title>
<ellipse fill="#31688e" stroke="black" cx="426.85" cy="-162" rx="44.69" ry="18"/>
<text text-anchor="middle" x="426.85" y="-158.3" font-family="Times,serif" font-size="14.00" fill="white">postgis</text>
</g>
<!-- shapely -->
<g id="node8" class="node">
<title>shapely</title>
<ellipse fill="#31688e" stroke="black" cx="152.85" cy="-162" rx="44.69" ry="18"/>
<text text-anchor="middle" x="152.85" y="-158.3" font-family="Times,serif" font-size="14.00" fill="white">shapely</text>
</g>
<!-- shapely&#45;&gt;cartopy -->
<g id="edge5" class="edge">
<title>shapely&#45;&gt;cartopy</title>
<path fill="none" stroke="black" d="M152.85,-143.7C152.85,-135.98 152.85,-126.71 152.85,-118.11"/>
<polygon fill="black" stroke="black" points="156.35,-118.1 152.85,-108.1 149.35,-118.1 156.35,-118.1"/>
</g>
<!-- r&#45;rgeos -->
<g id="node9" class="node">
<title>r&#45;rgeos</title>
<ellipse fill="#31688e" stroke="black" cx="534.85" cy="-162" rx="44.69" ry="18"/>
<text text-anchor="middle" x="534.85" y="-158.3" font-family="Times,serif" font-size="14.00" fill="white">r rgeos</text>
</g>
<!-- spdlib -->
<g id="node10" class="node">
<title>spdlib</title>
<ellipse fill="#31688e" stroke="black" cx="637.85" cy="-162" rx="40.09" ry="18"/>
<text text-anchor="middle" x="637.85" y="-158.3" font-family="Times,serif" font-size="14.00" fill="white">spdlib</text>
</g>
<!-- pdal -->
<g id="node11" class="node">
<title>pdal</title>
<ellipse fill="#31688e" stroke="black" cx="726.85" cy="-162" rx="30.59" ry="18"/>
<text text-anchor="middle" x="726.85" y="-158.3" font-family="Times,serif" font-size="14.00" fill="white">pdal</text>
</g>
<!-- pygeos -->
<g id="node12" class="node">
<title>pygeos</title>
<ellipse fill="#35b779" stroke="black" cx="815.85" cy="-162" rx="40.09" ry="18"/>
<text text-anchor="middle" x="815.85" y="-158.3" font-family="Times,serif" font-size="14.00">pygeos</text>
</g>
</g>
</svg>
