<?xml version="1.0" encoding="UTF-8" standalone="no"?>
<!DOCTYPE svg PUBLIC "-//W3C//DTD SVG 1.1//EN"
 "http://www.w3.org/Graphics/SVG/1.1/DTD/svg11.dtd">
<!-- Generated by graphviz version 2.42.3 (20191010.1750)
 -->
<!-- Title: %3 Pages: 1 -->
<svg width="501pt" height="116pt"
 viewBox="0.00 0.00 501.14 116.00" xmlns="http://www.w3.org/2000/svg" xmlns:xlink="http://www.w3.org/1999/xlink">
<g id="graph0" class="graph" transform="scale(1 1) rotate(0) translate(4 112)">
<title>%3</title>
<polygon fill="white" stroke="transparent" points="-4,4 -4,-112 497.14,-112 497.14,4 -4,4"/>
<!-- cartopy -->
<g id="node1" class="node">
<title>cartopy</title>
<ellipse fill="#fde725" stroke="black" cx="44.85" cy="-18" rx="44.69" ry="18"/>
<text text-anchor="middle" x="44.85" y="-14.3" font-family="Times,serif" font-size="14.00">cartopy</text>
</g>
<!-- postgis -->
<g id="node2" class="node">
<title>postgis</title>
<ellipse fill="#31688e" stroke="black" cx="152.85" cy="-90" rx="44.69" ry="18"/>
<text text-anchor="middle" x="152.85" y="-86.3" font-family="Times,serif" font-size="14.00" fill="white">postgis</text>
</g>
<!-- qgis -->
<g id="node3" class="node">
<title>qgis</title>
<ellipse fill="#31688e" stroke="black" cx="245.85" cy="-90" rx="30.59" ry="18"/>
<text text-anchor="middle" x="245.85" y="-86.3" font-family="Times,serif" font-size="14.00" fill="white">qgis</text>
</g>
<!-- rsgislib -->
<g id="node4" class="node">
<title>rsgislib</title>
<ellipse fill="#31688e" stroke="black" cx="344.85" cy="-90" rx="50.09" ry="18"/>
<text text-anchor="middle" x="344.85" y="-86.3" font-family="Times,serif" font-size="14.00" fill="white">rsgislib</text>
</g>
<!-- shapely -->
<g id="node5" class="node">
<title>shapely</title>
<ellipse fill="#31688e" stroke="black" cx="44.85" cy="-90" rx="44.69" ry="18"/>
<text text-anchor="middle" x="44.85" y="-86.3" font-family="Times,serif" font-size="14.00" fill="white">shapely</text>
</g>
<!-- shapely&#45;&gt;cartopy -->
<g id="edge1" class="edge">
<title>shapely&#45;&gt;cartopy</title>
<path fill="none" stroke="black" d="M44.85,-71.7C44.85,-63.98 44.85,-54.71 44.85,-46.11"/>
<polygon fill="black" stroke="black" points="48.35,-46.1 44.85,-36.1 41.35,-46.1 48.35,-46.1"/>
</g>
<!-- spdlib -->
<g id="node6" class="node">
<title>spdlib</title>
<ellipse fill="#31688e" stroke="black" cx="452.85" cy="-90" rx="40.09" ry="18"/>
<text text-anchor="middle" x="452.85" y="-86.3" font-family="Times,serif" font-size="14.00" fill="white">spdlib</text>
</g>
</g>
</svg>
