<?xml version="1.0" encoding="UTF-8" standalone="no"?>
<!DOCTYPE svg PUBLIC "-//W3C//DTD SVG 1.1//EN"
 "http://www.w3.org/Graphics/SVG/1.1/DTD/svg11.dtd">
<!-- Generated by graphviz version 2.42.3 (20191010.1750)
 -->
<!-- Title: %3 Pages: 1 -->
<svg width="609pt" height="116pt"
 viewBox="0.00 0.00 609.14 116.00" xmlns="http://www.w3.org/2000/svg" xmlns:xlink="http://www.w3.org/1999/xlink">
<g id="graph0" class="graph" transform="scale(1 1) rotate(0) translate(4 112)">
<title>%3</title>
<polygon fill="white" stroke="transparent" points="-4,4 -4,-112 605.14,-112 605.14,4 -4,4"/>
<!-- cartopy -->
<g id="node1" class="node">
<title>cartopy</title>
<ellipse fill="#fde725" stroke="black" cx="44.85" cy="-18" rx="44.69" ry="18"/>
<text text-anchor="middle" x="44.85" y="-14.3" font-family="Times,serif" font-size="14.00">cartopy</text>
</g>
<!-- gdal -->
<g id="node2" class="node">
<title>gdal</title>
<ellipse fill="#31688e" stroke="black" cx="186.85" cy="-90" rx="30.59" ry="18"/>
<text text-anchor="middle" x="186.85" y="-86.3" font-family="Times,serif" font-size="14.00" fill="white">gdal</text>
</g>
<!-- qgis -->
<g id="node4" class="node">
<title>qgis</title>
<ellipse fill="#fde725" stroke="black" cx="137.85" cy="-18" rx="30.59" ry="18"/>
<text text-anchor="middle" x="137.85" y="-14.3" font-family="Times,serif" font-size="14.00">qgis</text>
</g>
<!-- gdal&#45;&gt;qgis -->
<g id="edge1" class="edge">
<title>gdal&#45;&gt;qgis</title>
<path fill="none" stroke="black" d="M175.73,-73.12C169.52,-64.26 161.67,-53.04 154.73,-43.12"/>
<polygon fill="black" stroke="black" points="157.52,-41.01 148.92,-34.82 151.79,-45.02 157.52,-41.01"/>
</g>
<!-- rsgislib -->
<g id="node5" class="node">
<title>rsgislib</title>
<ellipse fill="#fde725" stroke="black" cx="236.85" cy="-18" rx="50.09" ry="18"/>
<text text-anchor="middle" x="236.85" y="-14.3" font-family="Times,serif" font-size="14.00">rsgislib</text>
</g>
<!-- gdal&#45;&gt;rsgislib -->
<g id="edge2" class="edge">
<title>gdal&#45;&gt;rsgislib</title>
<path fill="none" stroke="black" d="M198.19,-73.12C204.34,-64.51 212.08,-53.67 219.02,-43.96"/>
<polygon fill="black" stroke="black" points="221.88,-45.97 224.85,-35.8 216.19,-41.9 221.88,-45.97"/>
</g>
<!-- postgis -->
<g id="node3" class="node">
<title>postgis</title>
<ellipse fill="#31688e" stroke="black" cx="279.85" cy="-90" rx="44.69" ry="18"/>
<text text-anchor="middle" x="279.85" y="-86.3" font-family="Times,serif" font-size="14.00" fill="white">postgis</text>
</g>
<!-- shapely -->
<g id="node6" class="node">
<title>shapely</title>
<ellipse fill="#31688e" stroke="black" cx="44.85" cy="-90" rx="44.69" ry="18"/>
<text text-anchor="middle" x="44.85" y="-86.3" font-family="Times,serif" font-size="14.00" fill="white">shapely</text>
</g>
<!-- shapely&#45;&gt;cartopy -->
<g id="edge3" class="edge">
<title>shapely&#45;&gt;cartopy</title>
<path fill="none" stroke="black" d="M44.85,-71.7C44.85,-63.98 44.85,-54.71 44.85,-46.11"/>
<polygon fill="black" stroke="black" points="48.35,-46.1 44.85,-36.1 41.35,-46.1 48.35,-46.1"/>
</g>
<!-- spdlib -->
<g id="node7" class="node">
<title>spdlib</title>
<ellipse fill="#31688e" stroke="black" cx="382.85" cy="-90" rx="40.09" ry="18"/>
<text text-anchor="middle" x="382.85" y="-86.3" font-family="Times,serif" font-size="14.00" fill="white">spdlib</text>
</g>
<!-- pdal -->
<g id="node8" class="node">
<title>pdal</title>
<ellipse fill="#31688e" stroke="black" cx="471.85" cy="-90" rx="30.59" ry="18"/>
<text text-anchor="middle" x="471.85" y="-86.3" font-family="Times,serif" font-size="14.00" fill="white">pdal</text>
</g>
<!-- pygeos -->
<g id="node9" class="node">
<title>pygeos</title>
<ellipse fill="#31688e" stroke="black" cx="560.85" cy="-90" rx="40.09" ry="18"/>
<text text-anchor="middle" x="560.85" y="-86.3" font-family="Times,serif" font-size="14.00" fill="white">pygeos</text>
</g>
</g>
</svg>
