<?xml version="1.0" encoding="UTF-8" standalone="no"?>
<!DOCTYPE svg PUBLIC "-//W3C//DTD SVG 1.1//EN"
 "http://www.w3.org/Graphics/SVG/1.1/DTD/svg11.dtd">
<!-- Generated by graphviz version 2.42.3 (20191010.1750)
 -->
<!-- Title: %3 Pages: 1 -->
<svg width="215pt" height="188pt"
 viewBox="0.00 0.00 214.68 188.00" xmlns="http://www.w3.org/2000/svg" xmlns:xlink="http://www.w3.org/1999/xlink">
<g id="graph0" class="graph" transform="scale(1 1) rotate(0) translate(4 184)">
<title>%3</title>
<polygon fill="white" stroke="transparent" points="-4,4 -4,-184 210.68,-184 210.68,4 -4,4"/>
<!-- gdal -->
<g id="node1" class="node">
<title>gdal</title>
<g id="a_node1"><a xlink:href="https://github.com/conda-forge/gdal-feedstock" xlink:title="gdal">
<ellipse fill="#35b779" stroke="black" cx="103.34" cy="-162" rx="30.59" ry="18"/>
<text text-anchor="middle" x="103.34" y="-158.3" font-family="Times,serif" font-size="14.00">gdal</text>
</a>
</g>
</g>
<!-- pdal -->
<g id="node2" class="node">
<title>pdal</title>
<g id="a_node2"><a xlink:href="https://github.com/conda-forge/pdal-feedstock" xlink:title="pdal">
<ellipse fill="#fde725" stroke="black" cx="74.34" cy="-90" rx="30.59" ry="18"/>
<text text-anchor="middle" x="74.34" y="-86.3" font-family="Times,serif" font-size="14.00">pdal</text>
</a>
</g>
</g>
<!-- gdal&#45;&gt;pdal -->
<g id="edge1" class="edge">
<title>gdal&#45;&gt;pdal</title>
<path fill="none" stroke="black" d="M96.47,-144.41C93.12,-136.34 89.02,-126.43 85.26,-117.35"/>
<polygon fill="black" stroke="black" points="88.43,-115.86 81.37,-107.96 81.96,-118.53 88.43,-115.86"/>
</g>
<!-- conda&#45;forge&#45;pinning -->
<g id="node3" class="node">
<title>conda&#45;forge&#45;pinning</title>
<ellipse fill="none" stroke="black" cx="103.34" cy="-18" rx="103.18" ry="18"/>
<text text-anchor="middle" x="103.34" y="-14.3" font-family="Times,serif" font-size="14.00">conda&#45;forge&#45;pinning</text>
</g>
<!-- gdal&#45;&gt;conda&#45;forge&#45;pinning -->
<g id="edge2" class="edge">
<title>gdal&#45;&gt;conda&#45;forge&#45;pinning</title>
<path fill="none" stroke="black" d="M107.81,-143.95C110.28,-133.63 113.09,-120.15 114.34,-108 115.98,-92.08 115.98,-87.92 114.34,-72 113.46,-63.46 111.81,-54.26 110.05,-45.96"/>
<polygon fill="black" stroke="black" points="113.43,-45.03 107.81,-36.05 106.6,-46.57 113.43,-45.03"/>
</g>
<!-- pdal&#45;&gt;conda&#45;forge&#45;pinning -->
<g id="edge3" class="edge">
<title>pdal&#45;&gt;conda&#45;forge&#45;pinning</title>
<path fill="none" stroke="black" d="M81.21,-72.41C84.51,-64.45 88.54,-54.72 92.26,-45.76"/>
<polygon fill="black" stroke="black" points="95.52,-47.02 96.11,-36.45 89.05,-44.35 95.52,-47.02"/>
</g>
</g>
</svg>
