<?xml version="1.0" encoding="UTF-8" standalone="no"?>
<!DOCTYPE svg PUBLIC "-//W3C//DTD SVG 1.1//EN"
 "http://www.w3.org/Graphics/SVG/1.1/DTD/svg11.dtd">
<!-- Generated by graphviz version 2.42.3 (20191010.1750)
 -->
<!-- Title: %3 Pages: 1 -->
<svg width="390pt" height="260pt"
 viewBox="0.00 0.00 389.64 260.00" xmlns="http://www.w3.org/2000/svg" xmlns:xlink="http://www.w3.org/1999/xlink">
<g id="graph0" class="graph" transform="scale(1 1) rotate(0) translate(4 256)">
<title>%3</title>
<polygon fill="white" stroke="transparent" points="-4,4 -4,-256 385.64,-256 385.64,4 -4,4"/>
<!-- arrow&#45;cpp -->
<g id="node1" class="node">
<title>arrow&#45;cpp</title>
<g id="a_node1"><a xlink:href="https://github.com/conda-forge/arrow-cpp-feedstock" xlink:title="arrow cpp">
<ellipse fill="#fde725" stroke="black" cx="131.09" cy="-162" rx="54.69" ry="18"/>
<text text-anchor="middle" x="131.09" y="-158.3" font-family="Times,serif" font-size="14.00">arrow cpp</text>
</a>
</g>
</g>
<!-- omniscidb&#45;cpu -->
<g id="node4" class="node">
<title>omniscidb&#45;cpu</title>
<g id="a_node4"><a xlink:href="https://github.com/conda-forge/omniscidb-cpu-feedstock" xlink:title="omniscidb cpu">
<ellipse fill="#fde725" stroke="black" cx="74.09" cy="-90" rx="74.19" ry="18"/>
<text text-anchor="middle" x="74.09" y="-86.3" font-family="Times,serif" font-size="14.00">omniscidb cpu</text>
</a>
</g>
</g>
<!-- arrow&#45;cpp&#45;&gt;omniscidb&#45;cpu -->
<g id="edge1" class="edge">
<title>arrow&#45;cpp&#45;&gt;omniscidb&#45;cpu</title>
<path fill="none" stroke="black" d="M117.59,-144.41C110.66,-135.91 102.08,-125.37 94.38,-115.91"/>
<polygon fill="black" stroke="black" points="96.93,-113.5 87.9,-107.96 91.5,-117.92 96.93,-113.5"/>
</g>
<!-- conda&#45;forge&#45;pinning -->
<g id="node5" class="node">
<title>conda&#45;forge&#45;pinning</title>
<ellipse fill="none" stroke="black" cx="195.09" cy="-18" rx="103.18" ry="18"/>
<text text-anchor="middle" x="195.09" y="-14.3" font-family="Times,serif" font-size="14.00">conda&#45;forge&#45;pinning</text>
</g>
<!-- arrow&#45;cpp&#45;&gt;conda&#45;forge&#45;pinning -->
<g id="edge2" class="edge">
<title>arrow&#45;cpp&#45;&gt;conda&#45;forge&#45;pinning</title>
<path fill="none" stroke="black" d="M139.75,-143.92C144.92,-133.59 151.54,-120.11 157.09,-108 166.57,-87.32 176.66,-63.61 184.05,-45.87"/>
<polygon fill="black" stroke="black" points="187.47,-46.76 188.07,-36.18 181.01,-44.07 187.47,-46.76"/>
</g>
<!-- grpc&#45;cpp -->
<g id="node2" class="node">
<title>grpc&#45;cpp</title>
<g id="a_node2"><a xlink:href="https://github.com/conda-forge/grpc-cpp-feedstock/pull/56" xlink:title="grpc cpp">
<ellipse fill="#31688e" stroke="black" cx="172.09" cy="-234" rx="50.09" ry="18"/>
<text text-anchor="middle" x="172.09" y="-230.3" font-family="Times,serif" font-size="14.00" fill="white">grpc cpp</text>
</a>
</g>
</g>
<!-- grpc&#45;cpp&#45;&gt;arrow&#45;cpp -->
<g id="edge3" class="edge">
<title>grpc&#45;cpp&#45;&gt;arrow&#45;cpp</title>
<path fill="none" stroke="black" d="M162.17,-216.05C157.33,-207.8 151.42,-197.7 146.05,-188.54"/>
<polygon fill="black" stroke="black" points="149,-186.65 140.93,-179.79 142.96,-190.19 149,-186.65"/>
</g>
<!-- grpc&#45;cpp&#45;&gt;conda&#45;forge&#45;pinning -->
<g id="edge4" class="edge">
<title>grpc&#45;cpp&#45;&gt;conda&#45;forge&#45;pinning</title>
<path fill="none" stroke="black" d="M181.64,-215.93C186.73,-205.82 192.48,-192.57 195.09,-180 204.69,-133.77 201.62,-78.46 198.43,-46.17"/>
<polygon fill="black" stroke="black" points="201.9,-45.72 197.35,-36.15 194.94,-46.47 201.9,-45.72"/>
</g>
<!-- ceres&#45;solver -->
<g id="node3" class="node">
<title>ceres&#45;solver</title>
<g id="a_node3"><a xlink:href="https://github.com/conda-forge/ceres-solver-feedstock" xlink:title="ceres solver">
<ellipse fill="#fde725" stroke="black" cx="312.09" cy="-90" rx="69.59" ry="18"/>
<text text-anchor="middle" x="312.09" y="-86.3" font-family="Times,serif" font-size="14.00">ceres solver</text>
</a>
</g>
</g>
<!-- ceres&#45;solver&#45;&gt;conda&#45;forge&#45;pinning -->
<g id="edge5" class="edge">
<title>ceres&#45;solver&#45;&gt;conda&#45;forge&#45;pinning</title>
<path fill="none" stroke="black" d="M285.84,-73.29C269.77,-63.68 248.99,-51.25 231.37,-40.7"/>
<polygon fill="black" stroke="black" points="232.86,-37.52 222.48,-35.39 229.27,-43.52 232.86,-37.52"/>
</g>
<!-- omniscidb&#45;cpu&#45;&gt;conda&#45;forge&#45;pinning -->
<g id="edge6" class="edge">
<title>omniscidb&#45;cpu&#45;&gt;conda&#45;forge&#45;pinning</title>
<path fill="none" stroke="black" d="M101.55,-73.12C118.06,-63.57 139.3,-51.28 157.37,-40.83"/>
<polygon fill="black" stroke="black" points="159.58,-43.59 166.48,-35.55 156.07,-37.53 159.58,-43.59"/>
</g>
</g>
</svg>
