<?xml version="1.0" encoding="UTF-8" standalone="no"?>
<!DOCTYPE svg PUBLIC "-//W3C//DTD SVG 1.1//EN"
 "http://www.w3.org/Graphics/SVG/1.1/DTD/svg11.dtd">
<!-- Generated by graphviz version 2.42.3 (20191010.1750)
 -->
<!-- Title: %3 Pages: 1 -->
<svg width="314pt" height="116pt"
 viewBox="0.00 0.00 313.64 116.00" xmlns="http://www.w3.org/2000/svg" xmlns:xlink="http://www.w3.org/1999/xlink">
<g id="graph0" class="graph" transform="scale(1 1) rotate(0) translate(4 112)">
<title>%3</title>
<polygon fill="white" stroke="transparent" points="-4,4 -4,-112 309.64,-112 309.64,4 -4,4"/>
<!-- omniscidb&#45;cpu -->
<g id="node1" class="node">
<title>omniscidb&#45;cpu</title>
<g id="a_node1"><a xlink:href="https://github.com/conda-forge/omniscidb-cpu-feedstock/pull/26" xlink:title="omniscidb cpu">
<ellipse fill="#31688e" stroke="black" cx="74.09" cy="-90" rx="74.19" ry="18"/>
<text text-anchor="middle" x="74.09" y="-86.3" font-family="Times,serif" font-size="14.00" fill="white">omniscidb cpu</text>
</a>
</g>
</g>
<!-- conda&#45;forge&#45;pinning -->
<g id="node3" class="node">
<title>conda&#45;forge&#45;pinning</title>
<ellipse fill="none" stroke="black" cx="155.09" cy="-18" rx="103.18" ry="18"/>
<text text-anchor="middle" x="155.09" y="-14.3" font-family="Times,serif" font-size="14.00">conda&#45;forge&#45;pinning</text>
</g>
<!-- omniscidb&#45;cpu&#45;&gt;conda&#45;forge&#45;pinning -->
<g id="edge1" class="edge">
<title>omniscidb&#45;cpu&#45;&gt;conda&#45;forge&#45;pinning</title>
<path fill="none" stroke="black" d="M93.29,-72.41C103.7,-63.41 116.75,-52.14 128.16,-42.27"/>
<polygon fill="black" stroke="black" points="130.48,-44.9 135.75,-35.71 125.9,-39.6 130.48,-44.9"/>
</g>
<!-- cartographer -->
<g id="node2" class="node">
<title>cartographer</title>
<g id="a_node2"><a xlink:href="https://github.com/conda-forge/cartographer-feedstock" xlink:title="cartographer">
<ellipse fill="#fde725" stroke="black" cx="236.09" cy="-90" rx="69.59" ry="18"/>
<text text-anchor="middle" x="236.09" y="-86.3" font-family="Times,serif" font-size="14.00">cartographer</text>
</a>
</g>
</g>
<!-- cartographer&#45;&gt;conda&#45;forge&#45;pinning -->
<g id="edge2" class="edge">
<title>cartographer&#45;&gt;conda&#45;forge&#45;pinning</title>
<path fill="none" stroke="black" d="M216.9,-72.41C206.48,-63.41 193.44,-52.14 182.02,-42.27"/>
<polygon fill="black" stroke="black" points="184.29,-39.6 174.43,-35.71 179.71,-44.9 184.29,-39.6"/>
</g>
</g>
</svg>
