<?xml version="1.0" encoding="UTF-8" standalone="no"?>
<!DOCTYPE svg PUBLIC "-//W3C//DTD SVG 1.1//EN"
 "http://www.w3.org/Graphics/SVG/1.1/DTD/svg11.dtd">
<!-- Generated by graphviz version 2.42.3 (20191010.1750)
 -->
<!-- Title: %3 Pages: 1 -->
<svg width="459pt" height="260pt"
 viewBox="0.00 0.00 459.14 260.00" xmlns="http://www.w3.org/2000/svg" xmlns:xlink="http://www.w3.org/1999/xlink">
<g id="graph0" class="graph" transform="scale(1 1) rotate(0) translate(4 256)">
<title>%3</title>
<polygon fill="white" stroke="transparent" points="-4,4 -4,-256 455.14,-256 455.14,4 -4,4"/>
<!-- arrow&#45;cpp -->
<g id="node1" class="node">
<title>arrow&#45;cpp</title>
<g id="a_node1"><a xlink:href="https://github.com/conda-forge/arrow-cpp-feedstock" xlink:title="arrow cpp">
<ellipse fill="#fde725" stroke="black" cx="357.1" cy="-162" rx="54.69" ry="18"/>
<text text-anchor="middle" x="357.1" y="-158.3" font-family="Times,serif" font-size="14.00">arrow cpp</text>
</a>
</g>
</g>
<!-- omniscidb&#45;cpu -->
<g id="node6" class="node">
<title>omniscidb&#45;cpu</title>
<g id="a_node6"><a xlink:href="https://github.com/conda-forge/omniscidb-cpu-feedstock" xlink:title="omniscidb cpu">
<ellipse fill="#fde725" stroke="black" cx="305.1" cy="-90" rx="74.19" ry="18"/>
<text text-anchor="middle" x="305.1" y="-86.3" font-family="Times,serif" font-size="14.00">omniscidb cpu</text>
</a>
</g>
</g>
<!-- arrow&#45;cpp&#45;&gt;omniscidb&#45;cpu -->
<g id="edge1" class="edge">
<title>arrow&#45;cpp&#45;&gt;omniscidb&#45;cpu</title>
<path fill="none" stroke="black" d="M344.77,-144.41C338.52,-135.99 330.79,-125.58 323.82,-116.2"/>
<polygon fill="black" stroke="black" points="326.47,-113.9 317.69,-107.96 320.85,-118.07 326.47,-113.9"/>
</g>
<!-- conda&#45;forge&#45;pinning -->
<g id="node7" class="node">
<title>conda&#45;forge&#45;pinning</title>
<ellipse fill="none" stroke="black" cx="254.1" cy="-18" rx="103.18" ry="18"/>
<text text-anchor="middle" x="254.1" y="-14.3" font-family="Times,serif" font-size="14.00">conda&#45;forge&#45;pinning</text>
</g>
<!-- arrow&#45;cpp&#45;&gt;conda&#45;forge&#45;pinning -->
<g id="edge2" class="edge">
<title>arrow&#45;cpp&#45;&gt;conda&#45;forge&#45;pinning</title>
<path fill="none" stroke="black" d="M371.3,-144.4C385.59,-125.59 403.46,-94.6 388.1,-72 375.89,-54.05 356.57,-42.18 336.36,-34.33"/>
<polygon fill="black" stroke="black" points="337.3,-30.95 326.71,-30.89 334.96,-37.55 337.3,-30.95"/>
</g>
<!-- caffe -->
<g id="node2" class="node">
<title>caffe</title>
<g id="a_node2"><a xlink:href="https://github.com/conda-forge/caffe-feedstock" xlink:title="caffe">
<ellipse fill="#fde725" stroke="black" cx="35.1" cy="-90" rx="35.19" ry="18"/>
<text text-anchor="middle" x="35.1" y="-86.3" font-family="Times,serif" font-size="14.00">caffe</text>
</a>
</g>
</g>
<!-- caffe&#45;&gt;conda&#45;forge&#45;pinning -->
<g id="edge3" class="edge">
<title>caffe&#45;&gt;conda&#45;forge&#45;pinning</title>
<path fill="none" stroke="black" d="M64.18,-79.7C97.96,-68.91 154.52,-50.83 197.14,-37.2"/>
<polygon fill="black" stroke="black" points="198.37,-40.49 206.83,-34.11 196.24,-33.82 198.37,-40.49"/>
</g>
<!-- glog -->
<g id="node3" class="node">
<title>glog</title>
<g id="a_node3"><a xlink:href="https://github.com/conda-forge/glog-feedstock/pull/19" xlink:title="glog">
<ellipse fill="#31688e" stroke="black" cx="208.1" cy="-234" rx="30.59" ry="18"/>
<text text-anchor="middle" x="208.1" y="-230.3" font-family="Times,serif" font-size="14.00" fill="white">glog</text>
</a>
</g>
</g>
<!-- glog&#45;&gt;arrow&#45;cpp -->
<g id="edge4" class="edge">
<title>glog&#45;&gt;arrow&#45;cpp</title>
<path fill="none" stroke="black" d="M231.38,-222.06C254.44,-211.23 290.2,-194.43 317.69,-181.51"/>
<polygon fill="black" stroke="black" points="319.47,-184.54 327.03,-177.12 316.49,-178.21 319.47,-184.54"/>
</g>
<!-- glog&#45;&gt;caffe -->
<g id="edge5" class="edge">
<title>glog&#45;&gt;caffe</title>
<path fill="none" stroke="black" d="M178.89,-228.52C133.36,-220.88 48.81,-203.8 31.1,-180 17.94,-162.33 20.66,-136.78 25.66,-117.58"/>
<polygon fill="black" stroke="black" points="29.04,-118.51 28.5,-107.93 22.32,-116.54 29.04,-118.51"/>
</g>
<!-- ceres&#45;solver -->
<g id="node5" class="node">
<title>ceres&#45;solver</title>
<g id="a_node5"><a xlink:href="https://github.com/conda-forge/ceres-solver-feedstock" xlink:title="ceres solver">
<ellipse fill="#fde725" stroke="black" cx="110.1" cy="-162" rx="69.59" ry="18"/>
<text text-anchor="middle" x="110.1" y="-158.3" font-family="Times,serif" font-size="14.00">ceres solver</text>
</a>
</g>
</g>
<!-- glog&#45;&gt;ceres&#45;solver -->
<g id="edge6" class="edge">
<title>glog&#45;&gt;ceres&#45;solver</title>
<path fill="none" stroke="black" d="M189.2,-219.5C175.59,-209.78 156.92,-196.45 141.14,-185.17"/>
<polygon fill="black" stroke="black" points="142.89,-182.12 132.72,-179.16 138.82,-187.82 142.89,-182.12"/>
</g>
<!-- glog&#45;&gt;omniscidb&#45;cpu -->
<g id="edge7" class="edge">
<title>glog&#45;&gt;omniscidb&#45;cpu</title>
<path fill="none" stroke="black" d="M219.04,-216.99C235.74,-192.53 267.76,-145.66 287.68,-116.49"/>
<polygon fill="black" stroke="black" points="290.7,-118.29 293.45,-108.06 284.92,-114.34 290.7,-118.29"/>
</g>
<!-- glog&#45;&gt;conda&#45;forge&#45;pinning -->
<g id="edge8" class="edge">
<title>glog&#45;&gt;conda&#45;forge&#45;pinning</title>
<path fill="none" stroke="black" d="M207.08,-215.57C205.87,-185.47 205.76,-122.15 222.1,-72 225.18,-62.54 230.21,-53 235.39,-44.67"/>
<polygon fill="black" stroke="black" points="238.41,-46.44 240.97,-36.16 232.55,-42.6 238.41,-46.44"/>
</g>
<!-- grpc&#45;cpp -->
<g id="node4" class="node">
<title>grpc&#45;cpp</title>
<g id="a_node4"><a xlink:href="https://github.com/conda-forge/grpc-cpp-feedstock/pull/56" xlink:title="grpc cpp">
<ellipse fill="#31688e" stroke="black" cx="401.1" cy="-234" rx="50.09" ry="18"/>
<text text-anchor="middle" x="401.1" y="-230.3" font-family="Times,serif" font-size="14.00" fill="white">grpc cpp</text>
</a>
</g>
</g>
<!-- grpc&#45;cpp&#45;&gt;arrow&#45;cpp -->
<g id="edge9" class="edge">
<title>grpc&#45;cpp&#45;&gt;arrow&#45;cpp</title>
<path fill="none" stroke="black" d="M390.45,-216.05C385.26,-207.8 378.91,-197.7 373.15,-188.54"/>
<polygon fill="black" stroke="black" points="375.93,-186.39 367.65,-179.79 370.01,-190.12 375.93,-186.39"/>
</g>
<!-- grpc&#45;cpp&#45;&gt;conda&#45;forge&#45;pinning -->
<g id="edge10" class="edge">
<title>grpc&#45;cpp&#45;&gt;conda&#45;forge&#45;pinning</title>
<path fill="none" stroke="black" d="M409.4,-215.79C413.84,-205.63 418.84,-192.38 421.1,-180 429.8,-132.26 437.31,-108.29 405.1,-72 388.32,-53.1 364.4,-40.94 340.53,-33.11"/>
<polygon fill="black" stroke="black" points="341.27,-29.68 330.69,-30.12 339.24,-36.38 341.27,-29.68"/>
</g>
<!-- ceres&#45;solver&#45;&gt;conda&#45;forge&#45;pinning -->
<g id="edge11" class="edge">
<title>ceres&#45;solver&#45;&gt;conda&#45;forge&#45;pinning</title>
<path fill="none" stroke="black" d="M123.62,-144.2C138.79,-125.75 164.49,-95.59 189.1,-72 200.01,-61.54 212.76,-50.85 224.06,-41.83"/>
<polygon fill="black" stroke="black" points="226.29,-44.53 231.99,-35.59 221.96,-39.03 226.29,-44.53"/>
</g>
<!-- omniscidb&#45;cpu&#45;&gt;conda&#45;forge&#45;pinning -->
<g id="edge12" class="edge">
<title>omniscidb&#45;cpu&#45;&gt;conda&#45;forge&#45;pinning</title>
<path fill="none" stroke="black" d="M292.75,-72.05C286.7,-63.75 279.29,-53.58 272.59,-44.38"/>
<polygon fill="black" stroke="black" points="275.4,-42.3 266.68,-36.28 269.74,-46.42 275.4,-42.3"/>
</g>
</g>
</svg>
