<?xml version="1.0" encoding="UTF-8" standalone="no"?>
<!DOCTYPE svg PUBLIC "-//W3C//DTD SVG 1.1//EN"
 "http://www.w3.org/Graphics/SVG/1.1/DTD/svg11.dtd">
<!-- Generated by graphviz version 2.42.3 (20191010.1750)
 -->
<!-- Title: %3 Pages: 1 -->
<svg width="236pt" height="188pt"
 viewBox="0.00 0.00 236.43 188.00" xmlns="http://www.w3.org/2000/svg" xmlns:xlink="http://www.w3.org/1999/xlink">
<g id="graph0" class="graph" transform="scale(1 1) rotate(0) translate(4 184)">
<title>%3</title>
<polygon fill="white" stroke="transparent" points="-4,4 -4,-184 232.43,-184 232.43,4 -4,4"/>
<!-- arrow&#45;cpp -->
<g id="node1" class="node">
<title>arrow&#45;cpp</title>
<g id="a_node1"><a xlink:href="https://github.com/conda-forge/arrow-cpp-feedstock/pull/131" xlink:title="arrow cpp">
<ellipse fill="#31688e" stroke="black" cx="125.09" cy="-162" rx="54.69" ry="18"/>
<text text-anchor="middle" x="125.09" y="-158.3" font-family="Times,serif" font-size="14.00" fill="white">arrow cpp</text>
</a>
</g>
</g>
<!-- omniscidb&#45;cpu -->
<g id="node2" class="node">
<title>omniscidb&#45;cpu</title>
<g id="a_node2"><a xlink:href="https://github.com/conda-forge/omniscidb-cpu-feedstock" xlink:title="omniscidb cpu">
<ellipse fill="#fde725" stroke="black" cx="74.09" cy="-90" rx="74.19" ry="18"/>
<text text-anchor="middle" x="74.09" y="-86.3" font-family="Times,serif" font-size="14.00">omniscidb cpu</text>
</a>
</g>
</g>
<!-- arrow&#45;cpp&#45;&gt;omniscidb&#45;cpu -->
<g id="edge1" class="edge">
<title>arrow&#45;cpp&#45;&gt;omniscidb&#45;cpu</title>
<path fill="none" stroke="black" d="M113.01,-144.41C106.87,-135.99 99.29,-125.58 92.45,-116.2"/>
<polygon fill="black" stroke="black" points="95.16,-113.98 86.45,-107.96 89.51,-118.1 95.16,-113.98"/>
</g>
<!-- conda&#45;forge&#45;pinning -->
<g id="node3" class="node">
<title>conda&#45;forge&#45;pinning</title>
<ellipse fill="none" stroke="black" cx="125.09" cy="-18" rx="103.18" ry="18"/>
<text text-anchor="middle" x="125.09" y="-14.3" font-family="Times,serif" font-size="14.00">conda&#45;forge&#45;pinning</text>
</g>
<!-- arrow&#45;cpp&#45;&gt;conda&#45;forge&#45;pinning -->
<g id="edge2" class="edge">
<title>arrow&#45;cpp&#45;&gt;conda&#45;forge&#45;pinning</title>
<path fill="none" stroke="black" d="M138.33,-144.44C145.4,-134.5 153.4,-121.25 157.09,-108 161.39,-92.59 161.39,-87.41 157.09,-72 154.43,-62.42 149.51,-52.84 144.31,-44.51"/>
<polygon fill="black" stroke="black" points="147.11,-42.41 138.66,-36.03 141.29,-46.29 147.11,-42.41"/>
</g>
<!-- omniscidb&#45;cpu&#45;&gt;conda&#45;forge&#45;pinning -->
<g id="edge3" class="edge">
<title>omniscidb&#45;cpu&#45;&gt;conda&#45;forge&#45;pinning</title>
<path fill="none" stroke="black" d="M86.44,-72.05C92.49,-63.75 99.9,-53.58 106.6,-44.38"/>
<polygon fill="black" stroke="black" points="109.45,-46.42 112.51,-36.28 103.79,-42.3 109.45,-46.42"/>
</g>
</g>
</svg>
