<?xml version="1.0" encoding="UTF-8" standalone="no"?>
<!DOCTYPE svg PUBLIC "-//W3C//DTD SVG 1.1//EN"
 "http://www.w3.org/Graphics/SVG/1.1/DTD/svg11.dtd">
<!-- Generated by graphviz version 2.42.3 (20191010.1750)
 -->
<!-- Title: %3 Pages: 1 -->
<svg width="490pt" height="116pt"
 viewBox="0.00 0.00 489.69 116.00" xmlns="http://www.w3.org/2000/svg" xmlns:xlink="http://www.w3.org/1999/xlink">
<g id="graph0" class="graph" transform="scale(1 1) rotate(0) translate(4 112)">
<title>%3</title>
<polygon fill="white" stroke="transparent" points="-4,4 -4,-112 485.69,-112 485.69,4 -4,4"/>
<!-- imagemagick -->
<g id="node1" class="node">
<title>imagemagick</title>
<ellipse fill="#31688e" stroke="black" cx="64.34" cy="-90" rx="64.19" ry="18"/>
<text text-anchor="middle" x="64.34" y="-86.3" font-family="Times,serif" font-size="14.00" fill="white">imagemagick</text>
</g>
<!-- libvips -->
<g id="node6" class="node">
<title>libvips</title>
<ellipse fill="#fde725" stroke="black" cx="64.34" cy="-18" rx="44.69" ry="18"/>
<text text-anchor="middle" x="64.34" y="-14.3" font-family="Times,serif" font-size="14.00">libvips</text>
</g>
<!-- imagemagick&#45;&gt;libvips -->
<g id="edge1" class="edge">
<title>imagemagick&#45;&gt;libvips</title>
<path fill="none" stroke="black" d="M64.34,-71.7C64.34,-63.98 64.34,-54.71 64.34,-46.11"/>
<polygon fill="black" stroke="black" points="67.84,-46.1 64.34,-36.1 60.84,-46.1 67.84,-46.1"/>
</g>
<!-- leptonica -->
<g id="node2" class="node">
<title>leptonica</title>
<ellipse fill="#31688e" stroke="black" cx="201.34" cy="-90" rx="54.69" ry="18"/>
<text text-anchor="middle" x="201.34" y="-86.3" font-family="Times,serif" font-size="14.00" fill="white">leptonica</text>
</g>
<!-- tesseract -->
<g id="node3" class="node">
<title>tesseract</title>
<ellipse fill="#fde725" stroke="black" cx="201.34" cy="-18" rx="54.69" ry="18"/>
<text text-anchor="middle" x="201.34" y="-14.3" font-family="Times,serif" font-size="14.00">tesseract</text>
</g>
<!-- leptonica&#45;&gt;tesseract -->
<g id="edge2" class="edge">
<title>leptonica&#45;&gt;tesseract</title>
<path fill="none" stroke="black" d="M201.34,-71.7C201.34,-63.98 201.34,-54.71 201.34,-46.11"/>
<polygon fill="black" stroke="black" points="204.84,-46.1 201.34,-36.1 197.84,-46.1 204.84,-46.1"/>
</g>
<!-- root -->
<g id="node4" class="node">
<title>root</title>
<ellipse fill="#31688e" stroke="black" cx="304.34" cy="-90" rx="30.59" ry="18"/>
<text text-anchor="middle" x="304.34" y="-86.3" font-family="Times,serif" font-size="14.00" fill="white">root</text>
</g>
<!-- openimageio -->
<g id="node5" class="node">
<title>openimageio</title>
<ellipse fill="#31688e" stroke="black" cx="417.34" cy="-90" rx="64.19" ry="18"/>
<text text-anchor="middle" x="417.34" y="-86.3" font-family="Times,serif" font-size="14.00" fill="white">openimageio</text>
</g>
</g>
</svg>
