<?xml version="1.0" encoding="UTF-8" standalone="no"?>
<!DOCTYPE svg PUBLIC "-//W3C//DTD SVG 1.1//EN"
 "http://www.w3.org/Graphics/SVG/1.1/DTD/svg11.dtd">
<!-- Generated by graphviz version 2.42.3 (20191010.1750)
 -->
<!-- Title: %3 Pages: 1 -->
<svg width="547pt" height="188pt"
 viewBox="0.00 0.00 546.59 188.00" xmlns="http://www.w3.org/2000/svg" xmlns:xlink="http://www.w3.org/1999/xlink">
<g id="graph0" class="graph" transform="scale(1 1) rotate(0) translate(4 184)">
<title>%3</title>
<polygon fill="white" stroke="transparent" points="-4,4 -4,-184 542.59,-184 542.59,4 -4,4"/>
<!-- emacs -->
<g id="node1" class="node">
<title>emacs</title>
<ellipse fill="#35b779" stroke="black" cx="164.55" cy="-162" rx="35.19" ry="18"/>
<text text-anchor="middle" x="164.55" y="-158.3" font-family="Times,serif" font-size="14.00">emacs</text>
</g>
<!-- gdal -->
<g id="node2" class="node">
<title>gdal</title>
<ellipse fill="#fde725" stroke="black" cx="30.55" cy="-90" rx="30.59" ry="18"/>
<text text-anchor="middle" x="30.55" y="-86.3" font-family="Times,serif" font-size="14.00">gdal</text>
</g>
<!-- imagemagick -->
<g id="node3" class="node">
<title>imagemagick</title>
<ellipse fill="#fde725" stroke="black" cx="308.55" cy="-90" rx="64.19" ry="18"/>
<text text-anchor="middle" x="308.55" y="-86.3" font-family="Times,serif" font-size="14.00">imagemagick</text>
</g>
<!-- libvips -->
<g id="node10" class="node">
<title>libvips</title>
<ellipse fill="#fde725" stroke="black" cx="335.55" cy="-18" rx="44.69" ry="18"/>
<text text-anchor="middle" x="335.55" y="-14.3" font-family="Times,serif" font-size="14.00">libvips</text>
</g>
<!-- imagemagick&#45;&gt;libvips -->
<g id="edge1" class="edge">
<title>imagemagick&#45;&gt;libvips</title>
<path fill="none" stroke="black" d="M315.08,-72.05C318.12,-64.18 321.81,-54.62 325.21,-45.79"/>
<polygon fill="black" stroke="black" points="328.55,-46.86 328.88,-36.28 322.02,-44.35 328.55,-46.86"/>
</g>
<!-- openjdk -->
<g id="node4" class="node">
<title>openjdk</title>
<ellipse fill="#31688e" stroke="black" cx="370.55" cy="-162" rx="44.69" ry="18"/>
<text text-anchor="middle" x="370.55" y="-158.3" font-family="Times,serif" font-size="14.00" fill="white">openjdk</text>
</g>
<!-- libwebp -->
<g id="node5" class="node">
<title>libwebp</title>
<ellipse fill="#31688e" stroke="black" cx="262.55" cy="-162" rx="44.69" ry="18"/>
<text text-anchor="middle" x="262.55" y="-158.3" font-family="Times,serif" font-size="14.00" fill="white">libwebp</text>
</g>
<!-- libwebp&#45;&gt;gdal -->
<g id="edge2" class="edge">
<title>libwebp&#45;&gt;gdal</title>
<path fill="none" stroke="black" d="M228.64,-150.03C221.99,-147.97 215.07,-145.87 208.55,-144 147.2,-126.41 129.87,-128.81 69.55,-108 67.45,-107.28 65.3,-106.49 63.16,-105.66"/>
<polygon fill="black" stroke="black" points="64.4,-102.39 53.82,-101.86 61.76,-108.87 64.4,-102.39"/>
</g>
<!-- libwebp&#45;&gt;imagemagick -->
<g id="edge3" class="edge">
<title>libwebp&#45;&gt;imagemagick</title>
<path fill="none" stroke="black" d="M273.45,-144.41C278.92,-136.08 285.68,-125.8 291.8,-116.49"/>
<polygon fill="black" stroke="black" points="294.84,-118.24 297.4,-107.96 288.99,-114.39 294.84,-118.24"/>
</g>
<!-- leptonica -->
<g id="node6" class="node">
<title>leptonica</title>
<ellipse fill="#fde725" stroke="black" cx="133.55" cy="-90" rx="54.69" ry="18"/>
<text text-anchor="middle" x="133.55" y="-86.3" font-family="Times,serif" font-size="14.00">leptonica</text>
</g>
<!-- libwebp&#45;&gt;leptonica -->
<g id="edge4" class="edge">
<title>libwebp&#45;&gt;leptonica</title>
<path fill="none" stroke="black" d="M237.06,-147.17C217.79,-136.71 191.07,-122.21 169.6,-110.56"/>
<polygon fill="black" stroke="black" points="171.22,-107.46 160.76,-105.77 167.88,-113.61 171.22,-107.46"/>
</g>
<!-- tesseract -->
<g id="node7" class="node">
<title>tesseract</title>
<ellipse fill="#fde725" stroke="black" cx="189.55" cy="-18" rx="54.69" ry="18"/>
<text text-anchor="middle" x="189.55" y="-14.3" font-family="Times,serif" font-size="14.00">tesseract</text>
</g>
<!-- libwebp&#45;&gt;tesseract -->
<g id="edge7" class="edge">
<title>libwebp&#45;&gt;tesseract</title>
<path fill="none" stroke="black" d="M253.89,-144.15C241.26,-119.6 217.71,-73.77 202.87,-44.91"/>
<polygon fill="black" stroke="black" points="205.88,-43.12 198.2,-35.82 199.66,-46.32 205.88,-43.12"/>
</g>
<!-- openimageio -->
<g id="node9" class="node">
<title>openimageio</title>
<ellipse fill="#fde725" stroke="black" cx="455.55" cy="-90" rx="64.19" ry="18"/>
<text text-anchor="middle" x="455.55" y="-86.3" font-family="Times,serif" font-size="14.00">openimageio</text>
</g>
<!-- libwebp&#45;&gt;openimageio -->
<g id="edge6" class="edge">
<title>libwebp&#45;&gt;openimageio</title>
<path fill="none" stroke="black" d="M294.85,-149.28C325.85,-138.04 373.01,-120.93 408.24,-108.16"/>
<polygon fill="black" stroke="black" points="409.63,-111.38 417.84,-104.68 407.24,-104.8 409.63,-111.38"/>
</g>
<!-- libwebp&#45;&gt;libvips -->
<g id="edge5" class="edge">
<title>libwebp&#45;&gt;libvips</title>
<path fill="none" stroke="black" d="M295.76,-149.76C302.59,-147.67 309.76,-145.64 316.55,-144 363,-132.8 497.72,-144.51 528.55,-108 571.21,-57.49 459.59,-34.08 388.77,-24.59"/>
<polygon fill="black" stroke="black" points="389,-21.09 378.64,-23.28 388.11,-28.03 389,-21.09"/>
</g>
<!-- leptonica&#45;&gt;tesseract -->
<g id="edge8" class="edge">
<title>leptonica&#45;&gt;tesseract</title>
<path fill="none" stroke="black" d="M146.82,-72.41C153.72,-63.78 162.3,-53.06 169.95,-43.5"/>
<polygon fill="black" stroke="black" points="172.86,-45.47 176.37,-35.47 167.39,-41.09 172.86,-45.47"/>
</g>
<!-- root -->
<g id="node8" class="node">
<title>root</title>
<ellipse fill="#35b779" stroke="black" cx="463.55" cy="-162" rx="30.59" ry="18"/>
<text text-anchor="middle" x="463.55" y="-158.3" font-family="Times,serif" font-size="14.00">root</text>
</g>
</g>
</svg>
