<?xml version="1.0" encoding="UTF-8" standalone="no"?>
<!DOCTYPE svg PUBLIC "-//W3C//DTD SVG 1.1//EN"
 "http://www.w3.org/Graphics/SVG/1.1/DTD/svg11.dtd">
<!-- Generated by graphviz version 2.42.3 (20191010.1750)
 -->
<!-- Title: %3 Pages: 1 -->
<svg width="657pt" height="116pt"
 viewBox="0.00 0.00 657.44 116.00" xmlns="http://www.w3.org/2000/svg" xmlns:xlink="http://www.w3.org/1999/xlink">
<g id="graph0" class="graph" transform="scale(1 1) rotate(0) translate(4 112)">
<title>%3</title>
<polygon fill="white" stroke="transparent" points="-4,4 -4,-112 653.44,-112 653.44,4 -4,4"/>
<!-- emacs -->
<g id="node1" class="node">
<title>emacs</title>
<ellipse fill="#31688e" stroke="black" cx="35.1" cy="-90" rx="35.19" ry="18"/>
<text text-anchor="middle" x="35.1" y="-86.3" font-family="Times,serif" font-size="14.00" fill="white">emacs</text>
</g>
<!-- gdal -->
<g id="node2" class="node">
<title>gdal</title>
<ellipse fill="#31688e" stroke="black" cx="119.1" cy="-90" rx="30.59" ry="18"/>
<text text-anchor="middle" x="119.1" y="-86.3" font-family="Times,serif" font-size="14.00" fill="white">gdal</text>
</g>
<!-- imagemagick -->
<g id="node3" class="node">
<title>imagemagick</title>
<ellipse fill="#31688e" stroke="black" cx="232.1" cy="-90" rx="64.19" ry="18"/>
<text text-anchor="middle" x="232.1" y="-86.3" font-family="Times,serif" font-size="14.00" fill="white">imagemagick</text>
</g>
<!-- libvips -->
<g id="node8" class="node">
<title>libvips</title>
<ellipse fill="#fde725" stroke="black" cx="232.1" cy="-18" rx="44.69" ry="18"/>
<text text-anchor="middle" x="232.1" y="-14.3" font-family="Times,serif" font-size="14.00">libvips</text>
</g>
<!-- imagemagick&#45;&gt;libvips -->
<g id="edge1" class="edge">
<title>imagemagick&#45;&gt;libvips</title>
<path fill="none" stroke="black" d="M232.1,-71.7C232.1,-63.98 232.1,-54.71 232.1,-46.11"/>
<polygon fill="black" stroke="black" points="235.6,-46.1 232.1,-36.1 228.6,-46.1 235.6,-46.1"/>
</g>
<!-- leptonica -->
<g id="node4" class="node">
<title>leptonica</title>
<ellipse fill="#31688e" stroke="black" cx="369.1" cy="-90" rx="54.69" ry="18"/>
<text text-anchor="middle" x="369.1" y="-86.3" font-family="Times,serif" font-size="14.00" fill="white">leptonica</text>
</g>
<!-- tesseract -->
<g id="node5" class="node">
<title>tesseract</title>
<ellipse fill="#fde725" stroke="black" cx="369.1" cy="-18" rx="54.69" ry="18"/>
<text text-anchor="middle" x="369.1" y="-14.3" font-family="Times,serif" font-size="14.00">tesseract</text>
</g>
<!-- leptonica&#45;&gt;tesseract -->
<g id="edge2" class="edge">
<title>leptonica&#45;&gt;tesseract</title>
<path fill="none" stroke="black" d="M369.1,-71.7C369.1,-63.98 369.1,-54.71 369.1,-46.11"/>
<polygon fill="black" stroke="black" points="372.6,-46.1 369.1,-36.1 365.6,-46.1 372.6,-46.1"/>
</g>
<!-- root -->
<g id="node6" class="node">
<title>root</title>
<ellipse fill="#31688e" stroke="black" cx="472.1" cy="-90" rx="30.59" ry="18"/>
<text text-anchor="middle" x="472.1" y="-86.3" font-family="Times,serif" font-size="14.00" fill="white">root</text>
</g>
<!-- openimageio -->
<g id="node7" class="node">
<title>openimageio</title>
<ellipse fill="#31688e" stroke="black" cx="585.1" cy="-90" rx="64.19" ry="18"/>
<text text-anchor="middle" x="585.1" y="-86.3" font-family="Times,serif" font-size="14.00" fill="white">openimageio</text>
</g>
</g>
</svg>
