<?xml version="1.0" encoding="UTF-8" standalone="no"?>
<!DOCTYPE svg PUBLIC "-//W3C//DTD SVG 1.1//EN"
 "http://www.w3.org/Graphics/SVG/1.1/DTD/svg11.dtd">
<!-- Generated by graphviz version 2.42.3 (20191010.1750)
 -->
<!-- Title: %3 Pages: 1 -->
<svg width="569pt" height="116pt"
 viewBox="0.00 0.00 568.89 116.00" xmlns="http://www.w3.org/2000/svg" xmlns:xlink="http://www.w3.org/1999/xlink">
<g id="graph0" class="graph" transform="scale(1 1) rotate(0) translate(4 112)">
<title>%3</title>
<polygon fill="white" stroke="transparent" points="-4,4 -4,-112 564.89,-112 564.89,4 -4,4"/>
<!-- gdal -->
<g id="node1" class="node">
<title>gdal</title>
<ellipse fill="#31688e" stroke="black" cx="30.55" cy="-90" rx="30.59" ry="18"/>
<text text-anchor="middle" x="30.55" y="-86.3" font-family="Times,serif" font-size="14.00" fill="white">gdal</text>
</g>
<!-- imagemagick -->
<g id="node2" class="node">
<title>imagemagick</title>
<ellipse fill="#31688e" stroke="black" cx="143.55" cy="-90" rx="64.19" ry="18"/>
<text text-anchor="middle" x="143.55" y="-86.3" font-family="Times,serif" font-size="14.00" fill="white">imagemagick</text>
</g>
<!-- libvips -->
<g id="node7" class="node">
<title>libvips</title>
<ellipse fill="#fde725" stroke="black" cx="143.55" cy="-18" rx="44.69" ry="18"/>
<text text-anchor="middle" x="143.55" y="-14.3" font-family="Times,serif" font-size="14.00">libvips</text>
</g>
<!-- imagemagick&#45;&gt;libvips -->
<g id="edge1" class="edge">
<title>imagemagick&#45;&gt;libvips</title>
<path fill="none" stroke="black" d="M143.55,-71.7C143.55,-63.98 143.55,-54.71 143.55,-46.11"/>
<polygon fill="black" stroke="black" points="147.05,-46.1 143.55,-36.1 140.05,-46.1 147.05,-46.1"/>
</g>
<!-- leptonica -->
<g id="node3" class="node">
<title>leptonica</title>
<ellipse fill="#31688e" stroke="black" cx="280.55" cy="-90" rx="54.69" ry="18"/>
<text text-anchor="middle" x="280.55" y="-86.3" font-family="Times,serif" font-size="14.00" fill="white">leptonica</text>
</g>
<!-- tesseract -->
<g id="node4" class="node">
<title>tesseract</title>
<ellipse fill="#fde725" stroke="black" cx="280.55" cy="-18" rx="54.69" ry="18"/>
<text text-anchor="middle" x="280.55" y="-14.3" font-family="Times,serif" font-size="14.00">tesseract</text>
</g>
<!-- leptonica&#45;&gt;tesseract -->
<g id="edge2" class="edge">
<title>leptonica&#45;&gt;tesseract</title>
<path fill="none" stroke="black" d="M280.55,-71.7C280.55,-63.98 280.55,-54.71 280.55,-46.11"/>
<polygon fill="black" stroke="black" points="284.05,-46.1 280.55,-36.1 277.05,-46.1 284.05,-46.1"/>
</g>
<!-- root -->
<g id="node5" class="node">
<title>root</title>
<ellipse fill="#31688e" stroke="black" cx="383.55" cy="-90" rx="30.59" ry="18"/>
<text text-anchor="middle" x="383.55" y="-86.3" font-family="Times,serif" font-size="14.00" fill="white">root</text>
</g>
<!-- openimageio -->
<g id="node6" class="node">
<title>openimageio</title>
<ellipse fill="#31688e" stroke="black" cx="496.55" cy="-90" rx="64.19" ry="18"/>
<text text-anchor="middle" x="496.55" y="-86.3" font-family="Times,serif" font-size="14.00" fill="white">openimageio</text>
</g>
</g>
</svg>
