<?xml version="1.0" encoding="UTF-8" standalone="no"?>
<!DOCTYPE svg PUBLIC "-//W3C//DTD SVG 1.1//EN"
 "http://www.w3.org/Graphics/SVG/1.1/DTD/svg11.dtd">
<!-- Generated by graphviz version 2.42.3 (20191010.1750)
 -->
<!-- Title: %3 Pages: 1 -->
<svg width="278pt" height="188pt"
 viewBox="0.00 0.00 277.88 188.00" xmlns="http://www.w3.org/2000/svg" xmlns:xlink="http://www.w3.org/1999/xlink">
<g id="graph0" class="graph" transform="scale(1 1) rotate(0) translate(4 184)">
<title>%3</title>
<polygon fill="white" stroke="transparent" points="-4,4 -4,-184 273.88,-184 273.88,4 -4,4"/>
<!-- google&#45;cloud&#45;cpp -->
<g id="node1" class="node">
<title>google&#45;cloud&#45;cpp</title>
<g id="a_node1"><a xlink:href="https://github.com/conda-forge/google-cloud-cpp-feedstock" xlink:title="google cloud cpp">
<ellipse fill="#fde725" stroke="black" cx="89.04" cy="-90" rx="89.08" ry="18"/>
<text text-anchor="middle" x="89.04" y="-86.3" font-family="Times,serif" font-size="14.00">google cloud cpp</text>
</a>
</g>
</g>
<!-- conda&#45;forge&#45;pinning -->
<g id="node3" class="node">
<title>conda&#45;forge&#45;pinning</title>
<ellipse fill="none" stroke="black" cx="147.04" cy="-18" rx="103.18" ry="18"/>
<text text-anchor="middle" x="147.04" y="-14.3" font-family="Times,serif" font-size="14.00">conda&#45;forge&#45;pinning</text>
</g>
<!-- google&#45;cloud&#45;cpp&#45;&gt;conda&#45;forge&#45;pinning -->
<g id="edge1" class="edge">
<title>google&#45;cloud&#45;cpp&#45;&gt;conda&#45;forge&#45;pinning</title>
<path fill="none" stroke="black" d="M103.08,-72.05C110.03,-63.67 118.56,-53.38 126.25,-44.1"/>
<polygon fill="black" stroke="black" points="129.04,-46.21 132.73,-36.28 123.65,-41.74 129.04,-46.21"/>
</g>
<!-- google&#45;cloud&#45;cpp&#45;common -->
<g id="node2" class="node">
<title>google&#45;cloud&#45;cpp&#45;common</title>
<g id="a_node2"><a xlink:href="https://github.com/conda-forge/google-cloud-cpp-common-feedstock/pull/5" xlink:title="google cloud cpp common">
<ellipse fill="#31688e" stroke="black" cx="147.04" cy="-162" rx="122.68" ry="18"/>
<text text-anchor="middle" x="147.04" y="-158.3" font-family="Times,serif" font-size="14.00" fill="white">google cloud cpp common</text>
</a>
</g>
</g>
<!-- google&#45;cloud&#45;cpp&#45;common&#45;&gt;google&#45;cloud&#45;cpp -->
<g id="edge2" class="edge">
<title>google&#45;cloud&#45;cpp&#45;common&#45;&gt;google&#45;cloud&#45;cpp</title>
<path fill="none" stroke="black" d="M133,-144.05C125.95,-135.54 117.27,-125.07 109.49,-115.68"/>
<polygon fill="black" stroke="black" points="112.03,-113.26 102.95,-107.79 106.64,-117.72 112.03,-113.26"/>
</g>
<!-- google&#45;cloud&#45;cpp&#45;common&#45;&gt;conda&#45;forge&#45;pinning -->
<g id="edge3" class="edge">
<title>google&#45;cloud&#45;cpp&#45;common&#45;&gt;conda&#45;forge&#45;pinning</title>
<path fill="none" stroke="black" d="M164.36,-144.07C172.97,-134.41 182.5,-121.55 187.04,-108 192.12,-92.83 192.12,-87.17 187.04,-72 183.64,-61.83 177.43,-52.06 170.9,-43.73"/>
<polygon fill="black" stroke="black" points="173.46,-41.35 164.36,-35.93 168.1,-45.84 173.46,-41.35"/>
</g>
</g>
</svg>
