<?xml version="1.0" encoding="UTF-8" standalone="no"?>
<!DOCTYPE svg PUBLIC "-//W3C//DTD SVG 1.1//EN"
 "http://www.w3.org/Graphics/SVG/1.1/DTD/svg11.dtd">
<!-- Generated by graphviz version 2.42.3 (20191010.1750)
 -->
<!-- Title: %3 Pages: 1 -->
<svg width="413pt" height="188pt"
 viewBox="0.00 0.00 412.64 188.00" xmlns="http://www.w3.org/2000/svg" xmlns:xlink="http://www.w3.org/1999/xlink">
<g id="graph0" class="graph" transform="scale(1 1) rotate(0) translate(4 184)">
<title>%3</title>
<polygon fill="white" stroke="transparent" points="-4,4 -4,-184 408.64,-184 408.64,4 -4,4"/>
<!-- arrow&#45;cpp -->
<g id="node1" class="node">
<title>arrow&#45;cpp</title>
<g id="a_node1"><a xlink:href="https://github.com/conda-forge/arrow-cpp-feedstock/pull/128" xlink:title="arrow cpp">
<ellipse fill="#31688e" stroke="black" cx="350.04" cy="-90" rx="54.69" ry="18"/>
<text text-anchor="middle" x="350.04" y="-86.3" font-family="Times,serif" font-size="14.00" fill="white">arrow cpp</text>
</a>
</g>
</g>
<!-- google&#45;cloud&#45;cpp -->
<g id="node2" class="node">
<title>google&#45;cloud&#45;cpp</title>
<ellipse fill="#fde725" stroke="black" cx="89.04" cy="-18" rx="89.08" ry="18"/>
<text text-anchor="middle" x="89.04" y="-14.3" font-family="Times,serif" font-size="14.00">google cloud cpp</text>
</g>
<!-- google&#45;cloud&#45;cpp&#45;common -->
<g id="node3" class="node">
<title>google&#45;cloud&#45;cpp&#45;common</title>
<ellipse fill="#fde725" stroke="black" cx="165.04" cy="-90" rx="122.68" ry="18"/>
<text text-anchor="middle" x="165.04" y="-86.3" font-family="Times,serif" font-size="14.00">google cloud cpp common</text>
</g>
<!-- google&#45;cloud&#45;cpp&#45;common&#45;&gt;google&#45;cloud&#45;cpp -->
<g id="edge1" class="edge">
<title>google&#45;cloud&#45;cpp&#45;common&#45;&gt;google&#45;cloud&#45;cpp</title>
<path fill="none" stroke="black" d="M146.64,-72.05C137.12,-63.28 125.34,-52.43 114.92,-42.83"/>
<polygon fill="black" stroke="black" points="117,-39.99 107.27,-35.79 112.25,-45.14 117,-39.99"/>
</g>
<!-- googleapis&#45;cpp -->
<g id="node4" class="node">
<title>googleapis&#45;cpp</title>
<g id="a_node4"><a xlink:href="https://github.com/conda-forge/googleapis-cpp-feedstock/pull/2" xlink:title="googleapis cpp">
<ellipse fill="#31688e" stroke="black" cx="89.04" cy="-162" rx="79.09" ry="18"/>
<text text-anchor="middle" x="89.04" y="-158.3" font-family="Times,serif" font-size="14.00" fill="white">googleapis cpp</text>
</a>
</g>
</g>
<!-- googleapis&#45;cpp&#45;&gt;google&#45;cloud&#45;cpp -->
<g id="edge2" class="edge">
<title>googleapis&#45;cpp&#45;&gt;google&#45;cloud&#45;cpp</title>
<path fill="none" stroke="black" d="M64.09,-144.74C52.31,-135.53 39.45,-122.88 33.04,-108 26.72,-93.3 26.72,-86.7 33.04,-72 38,-60.47 46.84,-50.28 56.05,-41.99"/>
<polygon fill="black" stroke="black" points="58.39,-44.6 63.8,-35.49 53.89,-39.24 58.39,-44.6"/>
</g>
<!-- googleapis&#45;cpp&#45;&gt;google&#45;cloud&#45;cpp&#45;common -->
<g id="edge3" class="edge">
<title>googleapis&#45;cpp&#45;&gt;google&#45;cloud&#45;cpp&#45;common</title>
<path fill="none" stroke="black" d="M107.05,-144.41C116.66,-135.56 128.65,-124.52 139.23,-114.77"/>
<polygon fill="black" stroke="black" points="141.65,-117.31 146.63,-107.96 136.91,-112.16 141.65,-117.31"/>
</g>
</g>
</svg>
