<?xml version="1.0" encoding="UTF-8" standalone="no"?>
<!DOCTYPE svg PUBLIC "-//W3C//DTD SVG 1.1//EN"
 "http://www.w3.org/Graphics/SVG/1.1/DTD/svg11.dtd">
<!-- Generated by graphviz version 2.42.3 (20191010.1750)
 -->
<!-- Title: %3 Pages: 1 -->
<svg width="314pt" height="116pt"
 viewBox="0.00 0.00 313.64 116.00" xmlns="http://www.w3.org/2000/svg" xmlns:xlink="http://www.w3.org/1999/xlink">
<g id="graph0" class="graph" transform="scale(1 1) rotate(0) translate(4 112)">
<title>%3</title>
<polygon fill="white" stroke="transparent" points="-4,4 -4,-112 309.64,-112 309.64,4 -4,4"/>
<!-- arrow&#45;cpp -->
<g id="node1" class="node">
<title>arrow&#45;cpp</title>
<g id="a_node1"><a xlink:href="https://github.com/conda-forge/arrow-cpp-feedstock" xlink:title="arrow cpp">
<ellipse fill="#35b779" stroke="black" cx="54.6" cy="-90" rx="54.69" ry="18"/>
<text text-anchor="middle" x="54.6" y="-86.3" font-family="Times,serif" font-size="14.00">arrow cpp</text>
</a>
</g>
</g>
<!-- conda&#45;forge&#45;pinning -->
<g id="node3" class="node">
<title>conda&#45;forge&#45;pinning</title>
<ellipse fill="none" stroke="black" cx="135.6" cy="-18" rx="103.18" ry="18"/>
<text text-anchor="middle" x="135.6" y="-14.3" font-family="Times,serif" font-size="14.00">conda&#45;forge&#45;pinning</text>
</g>
<!-- arrow&#45;cpp&#45;&gt;conda&#45;forge&#45;pinning -->
<g id="edge1" class="edge">
<title>arrow&#45;cpp&#45;&gt;conda&#45;forge&#45;pinning</title>
<path fill="none" stroke="black" d="M73.38,-72.76C83.79,-63.77 96.9,-52.44 108.41,-42.49"/>
<polygon fill="black" stroke="black" points="110.79,-45.06 116.06,-35.88 106.21,-39.77 110.79,-45.06"/>
</g>
<!-- google&#45;cloud&#45;cpp -->
<g id="node2" class="node">
<title>google&#45;cloud&#45;cpp</title>
<g id="a_node2"><a xlink:href="https://github.com/conda-forge/google-cloud-cpp-feedstock/pull/10" xlink:title="google cloud cpp">
<ellipse fill="#31688e" stroke="black" cx="216.6" cy="-90" rx="89.08" ry="18"/>
<text text-anchor="middle" x="216.6" y="-86.3" font-family="Times,serif" font-size="14.00" fill="white">google cloud cpp</text>
</a>
</g>
</g>
<!-- google&#45;cloud&#45;cpp&#45;&gt;conda&#45;forge&#45;pinning -->
<g id="edge2" class="edge">
<title>google&#45;cloud&#45;cpp&#45;&gt;conda&#45;forge&#45;pinning</title>
<path fill="none" stroke="black" d="M197.4,-72.41C186.98,-63.41 173.94,-52.14 162.53,-42.27"/>
<polygon fill="black" stroke="black" points="164.79,-39.6 154.93,-35.71 160.21,-44.9 164.79,-39.6"/>
</g>
</g>
</svg>
