<?xml version="1.0" encoding="UTF-8" standalone="no"?>
<!DOCTYPE svg PUBLIC "-//W3C//DTD SVG 1.1//EN"
 "http://www.w3.org/Graphics/SVG/1.1/DTD/svg11.dtd">
<!-- Generated by graphviz version 2.42.3 (20191010.1750)
 -->
<!-- Title: %3 Pages: 1 -->
<svg width="427pt" height="260pt"
 viewBox="0.00 0.00 427.28 260.00" xmlns="http://www.w3.org/2000/svg" xmlns:xlink="http://www.w3.org/1999/xlink">
<g id="graph0" class="graph" transform="scale(1 1) rotate(0) translate(4 256)">
<title>%3</title>
<polygon fill="white" stroke="transparent" points="-4,4 -4,-256 423.28,-256 423.28,4 -4,4"/>
<!-- arrow&#45;cpp -->
<g id="node1" class="node">
<title>arrow&#45;cpp</title>
<g id="a_node1"><a xlink:href="https://github.com/conda-forge/arrow-cpp-feedstock/pull/128" xlink:title="arrow cpp">
<ellipse fill="#31688e" stroke="black" cx="54.6" cy="-90" rx="54.69" ry="18"/>
<text text-anchor="middle" x="54.6" y="-86.3" font-family="Times,serif" font-size="14.00" fill="white">arrow cpp</text>
</a>
</g>
</g>
<!-- conda&#45;forge&#45;pinning -->
<g id="node5" class="node">
<title>conda&#45;forge&#45;pinning</title>
<ellipse fill="none" stroke="black" cx="274.6" cy="-18" rx="103.18" ry="18"/>
<text text-anchor="middle" x="274.6" y="-14.3" font-family="Times,serif" font-size="14.00">conda&#45;forge&#45;pinning</text>
</g>
<!-- arrow&#45;cpp&#45;&gt;conda&#45;forge&#45;pinning -->
<g id="edge1" class="edge">
<title>arrow&#45;cpp&#45;&gt;conda&#45;forge&#45;pinning</title>
<path fill="none" stroke="black" d="M92.41,-76.97C126.84,-66.01 178.17,-49.68 217.57,-37.14"/>
<polygon fill="black" stroke="black" points="218.85,-40.41 227.32,-34.04 216.72,-33.74 218.85,-40.41"/>
</g>
<!-- google&#45;cloud&#45;cpp -->
<g id="node2" class="node">
<title>google&#45;cloud&#45;cpp</title>
<ellipse fill="#fde725" stroke="black" cx="216.6" cy="-90" rx="89.08" ry="18"/>
<text text-anchor="middle" x="216.6" y="-86.3" font-family="Times,serif" font-size="14.00">google cloud cpp</text>
</g>
<!-- google&#45;cloud&#45;cpp&#45;&gt;conda&#45;forge&#45;pinning -->
<g id="edge2" class="edge">
<title>google&#45;cloud&#45;cpp&#45;&gt;conda&#45;forge&#45;pinning</title>
<path fill="none" stroke="black" d="M230.64,-72.05C237.58,-63.67 246.11,-53.38 253.8,-44.1"/>
<polygon fill="black" stroke="black" points="256.6,-46.21 260.28,-36.28 251.21,-41.74 256.6,-46.21"/>
</g>
<!-- google&#45;cloud&#45;cpp&#45;common -->
<g id="node3" class="node">
<title>google&#45;cloud&#45;cpp&#45;common</title>
<ellipse fill="#fde725" stroke="black" cx="277.6" cy="-162" rx="122.68" ry="18"/>
<text text-anchor="middle" x="277.6" y="-158.3" font-family="Times,serif" font-size="14.00">google cloud cpp common</text>
</g>
<!-- google&#45;cloud&#45;cpp&#45;common&#45;&gt;google&#45;cloud&#45;cpp -->
<g id="edge3" class="edge">
<title>google&#45;cloud&#45;cpp&#45;common&#45;&gt;google&#45;cloud&#45;cpp</title>
<path fill="none" stroke="black" d="M262.83,-144.05C255.34,-135.46 246.1,-124.86 237.86,-115.4"/>
<polygon fill="black" stroke="black" points="240.43,-113.03 231.23,-107.79 235.16,-117.63 240.43,-113.03"/>
</g>
<!-- google&#45;cloud&#45;cpp&#45;common&#45;&gt;conda&#45;forge&#45;pinning -->
<g id="edge4" class="edge">
<title>google&#45;cloud&#45;cpp&#45;common&#45;&gt;conda&#45;forge&#45;pinning</title>
<path fill="none" stroke="black" d="M293.63,-143.85C301.61,-134.12 310.42,-121.27 314.6,-108 319.4,-92.74 319.68,-87.17 314.6,-72 311.19,-61.83 304.98,-52.06 298.45,-43.73"/>
<polygon fill="black" stroke="black" points="301.02,-41.35 291.91,-35.93 295.65,-45.84 301.02,-41.35"/>
</g>
<!-- googleapis&#45;cpp -->
<g id="node4" class="node">
<title>googleapis&#45;cpp</title>
<g id="a_node4"><a xlink:href="https://github.com/conda-forge/googleapis-cpp-feedstock/pull/2" xlink:title="googleapis cpp">
<ellipse fill="#31688e" stroke="black" cx="277.6" cy="-234" rx="79.09" ry="18"/>
<text text-anchor="middle" x="277.6" y="-230.3" font-family="Times,serif" font-size="14.00" fill="white">googleapis cpp</text>
</a>
</g>
</g>
<!-- googleapis&#45;cpp&#45;&gt;google&#45;cloud&#45;cpp -->
<g id="edge5" class="edge">
<title>googleapis&#45;cpp&#45;&gt;google&#45;cloud&#45;cpp</title>
<path fill="none" stroke="black" d="M213.64,-223.21C188.05,-215.81 161.02,-202.81 145.6,-180 136.63,-166.75 138.42,-158.3 145.6,-144 152.03,-131.16 163.21,-120.64 174.82,-112.45"/>
<polygon fill="black" stroke="black" points="176.85,-115.31 183.29,-106.9 173.01,-109.46 176.85,-115.31"/>
</g>
<!-- googleapis&#45;cpp&#45;&gt;google&#45;cloud&#45;cpp&#45;common -->
<g id="edge6" class="edge">
<title>googleapis&#45;cpp&#45;&gt;google&#45;cloud&#45;cpp&#45;common</title>
<path fill="none" stroke="black" d="M277.6,-215.7C277.6,-207.98 277.6,-198.71 277.6,-190.11"/>
<polygon fill="black" stroke="black" points="281.1,-190.1 277.6,-180.1 274.1,-190.1 281.1,-190.1"/>
</g>
<!-- googleapis&#45;cpp&#45;&gt;conda&#45;forge&#45;pinning -->
<g id="edge7" class="edge">
<title>googleapis&#45;cpp&#45;&gt;conda&#45;forge&#45;pinning</title>
<path fill="none" stroke="black" d="M341.55,-223.21C367.14,-215.81 394.17,-202.81 409.6,-180 445.73,-126.55 367.48,-70.1 315.67,-40.31"/>
<polygon fill="black" stroke="black" points="317.08,-37.09 306.65,-35.24 313.65,-43.19 317.08,-37.09"/>
</g>
</g>
</svg>
