<?xml version="1.0" encoding="UTF-8" standalone="no"?>
<!DOCTYPE svg PUBLIC "-//W3C//DTD SVG 1.1//EN"
 "http://www.w3.org/Graphics/SVG/1.1/DTD/svg11.dtd">
<!-- Generated by graphviz version 2.42.3 (20191010.1750)
 -->
<!-- Title: %3 Pages: 1 -->
<svg width="405pt" height="188pt"
 viewBox="0.00 0.00 405.43 188.00" xmlns="http://www.w3.org/2000/svg" xmlns:xlink="http://www.w3.org/1999/xlink">
<g id="graph0" class="graph" transform="scale(1 1) rotate(0) translate(4 184)">
<title>%3</title>
<polygon fill="white" stroke="transparent" points="-4,4 -4,-184 401.43,-184 401.43,4 -4,4"/>
<!-- arrow&#45;cpp -->
<g id="node1" class="node">
<title>arrow&#45;cpp</title>
<g id="a_node1"><a xlink:href="https://github.com/conda-forge/arrow-cpp-feedstock" xlink:title="arrow cpp">
<ellipse fill="#35b779" stroke="black" cx="54.6" cy="-90" rx="54.69" ry="18"/>
<text text-anchor="middle" x="54.6" y="-86.3" font-family="Times,serif" font-size="14.00">arrow cpp</text>
</a>
</g>
</g>
<!-- conda&#45;forge&#45;pinning -->
<g id="node4" class="node">
<title>conda&#45;forge&#45;pinning</title>
<ellipse fill="none" stroke="black" cx="216.6" cy="-18" rx="103.18" ry="18"/>
<text text-anchor="middle" x="216.6" y="-14.3" font-family="Times,serif" font-size="14.00">conda&#45;forge&#45;pinning</text>
</g>
<!-- arrow&#45;cpp&#45;&gt;conda&#45;forge&#45;pinning -->
<g id="edge1" class="edge">
<title>arrow&#45;cpp&#45;&gt;conda&#45;forge&#45;pinning</title>
<path fill="none" stroke="black" d="M86.6,-75.17C110.6,-64.8 143.8,-50.45 170.64,-38.86"/>
<polygon fill="black" stroke="black" points="172.05,-42.06 179.84,-34.88 169.27,-35.63 172.05,-42.06"/>
</g>
<!-- google&#45;cloud&#45;cpp -->
<g id="node2" class="node">
<title>google&#45;cloud&#45;cpp</title>
<g id="a_node2"><a xlink:href="https://github.com/conda-forge/google-cloud-cpp-feedstock" xlink:title="google cloud cpp">
<ellipse fill="#fde725" stroke="black" cx="216.6" cy="-90" rx="89.08" ry="18"/>
<text text-anchor="middle" x="216.6" y="-86.3" font-family="Times,serif" font-size="14.00">google cloud cpp</text>
</a>
</g>
</g>
<!-- google&#45;cloud&#45;cpp&#45;&gt;conda&#45;forge&#45;pinning -->
<g id="edge2" class="edge">
<title>google&#45;cloud&#45;cpp&#45;&gt;conda&#45;forge&#45;pinning</title>
<path fill="none" stroke="black" d="M216.6,-71.7C216.6,-63.98 216.6,-54.71 216.6,-46.11"/>
<polygon fill="black" stroke="black" points="220.1,-46.1 216.6,-36.1 213.1,-46.1 220.1,-46.1"/>
</g>
<!-- google&#45;cloud&#45;cpp&#45;common -->
<g id="node3" class="node">
<title>google&#45;cloud&#45;cpp&#45;common</title>
<g id="a_node3"><a xlink:href="https://github.com/conda-forge/google-cloud-cpp-common-feedstock" xlink:title="google cloud cpp common">
<ellipse fill="#35b779" stroke="black" cx="274.6" cy="-162" rx="122.68" ry="18"/>
<text text-anchor="middle" x="274.6" y="-158.3" font-family="Times,serif" font-size="14.00">google cloud cpp common</text>
</a>
</g>
</g>
<!-- google&#45;cloud&#45;cpp&#45;common&#45;&gt;google&#45;cloud&#45;cpp -->
<g id="edge3" class="edge">
<title>google&#45;cloud&#45;cpp&#45;common&#45;&gt;google&#45;cloud&#45;cpp</title>
<path fill="none" stroke="black" d="M260.55,-144.05C253.5,-135.54 244.82,-125.07 237.05,-115.68"/>
<polygon fill="black" stroke="black" points="239.58,-113.26 230.51,-107.79 234.19,-117.72 239.58,-113.26"/>
</g>
<!-- google&#45;cloud&#45;cpp&#45;common&#45;&gt;conda&#45;forge&#45;pinning -->
<g id="edge4" class="edge">
<title>google&#45;cloud&#45;cpp&#45;common&#45;&gt;conda&#45;forge&#45;pinning</title>
<path fill="none" stroke="black" d="M291.89,-144.02C308.4,-125.68 328.82,-95.86 314.6,-72 305.7,-57.07 290.97,-46.09 275.6,-38.13"/>
<polygon fill="black" stroke="black" points="277.05,-34.94 266.52,-33.78 274.03,-41.26 277.05,-34.94"/>
</g>
</g>
</svg>
