<?xml version="1.0" encoding="UTF-8" standalone="no"?>
<!DOCTYPE svg PUBLIC "-//W3C//DTD SVG 1.1//EN"
 "http://www.w3.org/Graphics/SVG/1.1/DTD/svg11.dtd">
<!-- Generated by graphviz version 2.42.3 (20191010.1750)
 -->
<!-- Title: %3 Pages: 1 -->
<svg width="1619pt" height="764pt"
 viewBox="0.00 0.00 1618.50 764.00" xmlns="http://www.w3.org/2000/svg" xmlns:xlink="http://www.w3.org/1999/xlink">
<g id="graph0" class="graph" transform="scale(1 1) rotate(0) translate(4 760)">
<title>%3</title>
<polygon fill="white" stroke="transparent" points="-4,4 -4,-760 1614.5,-760 1614.5,4 -4,4"/>
<!-- astro&#45;gala -->
<g id="node1" class="node">
<title>astro&#45;gala</title>
<g id="a_node1"><a xlink:href="https://github.com/conda-forge/astro-gala-feedstock/pull/9" xlink:title="astro gala">
<ellipse fill="#31688e" stroke="black" cx="60" cy="-738" rx="60" ry="18"/>
<text text-anchor="middle" x="60" y="-734.3" font-family="Times,serif" font-size="14.00" fill="white">astro gala</text>
</a>
</g>
</g>
<!-- cvxopt -->
<g id="node2" class="node">
<title>cvxopt</title>
<g id="a_node2"><a xlink:href="https://github.com/conda-forge/cvxopt-feedstock/pull/39" xlink:title="cvxopt">
<ellipse fill="#31688e" stroke="black" cx="60" cy="-666" rx="40.5" ry="18"/>
<text text-anchor="middle" x="60" y="-662.3" font-family="Times,serif" font-size="14.00" fill="white">cvxopt</text>
</a>
</g>
</g>
<!-- astro&#45;gala&#45;&gt;cvxopt -->
<!-- galpy -->
<g id="node3" class="node">
<title>galpy</title>
<g id="a_node3"><a xlink:href="https://github.com/conda-forge/galpy-feedstock/pull/12" xlink:title="galpy">
<ellipse fill="#31688e" stroke="black" cx="60" cy="-594" rx="35.19" ry="18"/>
<text text-anchor="middle" x="60" y="-590.3" font-family="Times,serif" font-size="14.00" fill="white">galpy</text>
</a>
</g>
</g>
<!-- cvxopt&#45;&gt;galpy -->
<!-- giac -->
<g id="node6" class="node">
<title>giac</title>
<g id="a_node6"><a xlink:href="https://github.com/conda-forge/giac-feedstock/pull/17" xlink:title="giac">
<ellipse fill="#31688e" stroke="black" cx="60" cy="-522" rx="30.59" ry="18"/>
<text text-anchor="middle" x="60" y="-518.3" font-family="Times,serif" font-size="14.00" fill="white">giac</text>
</a>
</g>
</g>
<!-- galpy&#45;&gt;giac -->
<!-- cythongsl -->
<g id="node4" class="node">
<title>cythongsl</title>
<g id="a_node4"><a xlink:href="https://github.com/conda-forge/cythongsl-feedstock/pull/11" xlink:title="cythongsl">
<ellipse fill="#31688e" stroke="black" cx="193" cy="-738" rx="54.69" ry="18"/>
<text text-anchor="middle" x="193" y="-734.3" font-family="Times,serif" font-size="14.00" fill="white">cythongsl</text>
</a>
</g>
</g>
<!-- slda -->
<g id="node5" class="node">
<title>slda</title>
<ellipse fill="#fde725" stroke="black" cx="193" cy="-666" rx="30.59" ry="18"/>
<text text-anchor="middle" x="193" y="-662.3" font-family="Times,serif" font-size="14.00">slda</text>
</g>
<!-- cythongsl&#45;&gt;slda -->
<g id="edge3" class="edge">
<title>cythongsl&#45;&gt;slda</title>
<path fill="none" stroke="black" d="M193,-719.7C193,-711.98 193,-702.71 193,-694.11"/>
<polygon fill="black" stroke="black" points="196.5,-694.1 193,-684.1 189.5,-694.1 196.5,-694.1"/>
</g>
<!-- libdiffpy -->
<g id="node7" class="node">
<title>libdiffpy</title>
<g id="a_node7"><a xlink:href="https://github.com/conda-forge/libdiffpy-feedstock/pull/6" xlink:title="libdiffpy">
<ellipse fill="#31688e" stroke="black" cx="60" cy="-450" rx="54.69" ry="18"/>
<text text-anchor="middle" x="60" y="-446.3" font-family="Times,serif" font-size="14.00" fill="white">libdiffpy</text>
</a>
</g>
</g>
<!-- giac&#45;&gt;libdiffpy -->
<!-- nco -->
<g id="node8" class="node">
<title>nco</title>
<g id="a_node8"><a xlink:href="https://github.com/conda-forge/nco-feedstock/pull/104" xlink:title="nco">
<ellipse fill="#31688e" stroke="black" cx="60" cy="-378" rx="27" ry="18"/>
<text text-anchor="middle" x="60" y="-374.3" font-family="Times,serif" font-size="14.00" fill="white">nco</text>
</a>
</g>
</g>
<!-- libdiffpy&#45;&gt;nco -->
<!-- qgis -->
<g id="node9" class="node">
<title>qgis</title>
<ellipse fill="#fde725" stroke="black" cx="60" cy="-306" rx="30.59" ry="18"/>
<text text-anchor="middle" x="60" y="-302.3" font-family="Times,serif" font-size="14.00">qgis</text>
</g>
<!-- nco&#45;&gt;qgis -->
<!-- root5 -->
<g id="node10" class="node">
<title>root5</title>
<g id="a_node10"><a xlink:href="https://github.com/conda-forge/root5-feedstock/pull/20" xlink:title="root5">
<ellipse fill="#31688e" stroke="black" cx="60" cy="-234" rx="35.19" ry="18"/>
<text text-anchor="middle" x="60" y="-230.3" font-family="Times,serif" font-size="14.00" fill="white">root5</text>
</a>
</g>
</g>
<!-- qgis&#45;&gt;root5 -->
<!-- rsgislib -->
<g id="node16" class="node">
<title>rsgislib</title>
<g id="a_node16"><a xlink:href="https://github.com/conda-forge/rsgislib-feedstock/pull/27" xlink:title="rsgislib">
<ellipse fill="#31688e" stroke="black" cx="60" cy="-162" rx="50.09" ry="18"/>
<text text-anchor="middle" x="60" y="-158.3" font-family="Times,serif" font-size="14.00" fill="white">rsgislib</text>
</a>
</g>
</g>
<!-- root5&#45;&gt;rsgislib -->
<!-- r&#45;base -->
<g id="node11" class="node">
<title>r&#45;base</title>
<g id="a_node11"><a xlink:href="https://github.com/conda-forge/r-base-feedstock/pull/115" xlink:title="r base">
<ellipse fill="#31688e" stroke="black" cx="363" cy="-738" rx="40.5" ry="18"/>
<text text-anchor="middle" x="363" y="-734.3" font-family="Times,serif" font-size="14.00" fill="white">r base</text>
</a>
</g>
</g>
<!-- r&#45;gsl -->
<g id="node12" class="node">
<title>r&#45;gsl</title>
<ellipse fill="#fde725" stroke="black" cx="277" cy="-666" rx="35.19" ry="18"/>
<text text-anchor="middle" x="277" y="-662.3" font-family="Times,serif" font-size="14.00">r gsl</text>
</g>
<!-- r&#45;base&#45;&gt;r&#45;gsl -->
<g id="edge9" class="edge">
<title>r&#45;base&#45;&gt;r&#45;gsl</title>
<path fill="none" stroke="black" d="M344.34,-721.81C332.23,-711.95 316.28,-698.97 302.94,-688.12"/>
<polygon fill="black" stroke="black" points="305,-685.28 295.03,-681.68 300.58,-690.71 305,-685.28"/>
</g>
<!-- r&#45;rcppgsl -->
<g id="node13" class="node">
<title>r&#45;rcppgsl</title>
<ellipse fill="#fde725" stroke="black" cx="383" cy="-594" rx="54.69" ry="18"/>
<text text-anchor="middle" x="383" y="-590.3" font-family="Times,serif" font-size="14.00">r rcppgsl</text>
</g>
<!-- r&#45;base&#45;&gt;r&#45;rcppgsl -->
<g id="edge10" class="edge">
<title>r&#45;base&#45;&gt;r&#45;rcppgsl</title>
<path fill="none" stroke="black" d="M365.41,-719.87C368.82,-695.67 375.08,-651.21 379.14,-622.39"/>
<polygon fill="black" stroke="black" points="382.65,-622.58 380.58,-612.19 375.72,-621.6 382.65,-622.58"/>
</g>
<!-- r&#45;topicmodels -->
<g id="node14" class="node">
<title>r&#45;topicmodels</title>
<ellipse fill="#fde725" stroke="black" cx="466" cy="-522" rx="74.19" ry="18"/>
<text text-anchor="middle" x="466" y="-518.3" font-family="Times,serif" font-size="14.00">r topicmodels</text>
</g>
<!-- r&#45;base&#45;&gt;r&#45;topicmodels -->
<g id="edge11" class="edge">
<title>r&#45;base&#45;&gt;r&#45;topicmodels</title>
<path fill="none" stroke="black" d="M376.9,-720.81C395.7,-698.05 428.94,-654.61 447,-612 455.36,-592.27 460.2,-568.47 462.9,-550.44"/>
<polygon fill="black" stroke="black" points="466.39,-550.7 464.28,-540.32 459.46,-549.75 466.39,-550.7"/>
</g>
<!-- r&#45;aws -->
<g id="node15" class="node">
<title>r&#45;aws</title>
<ellipse fill="#fde725" stroke="black" cx="275" cy="-594" rx="35.19" ry="18"/>
<text text-anchor="middle" x="275" y="-590.3" font-family="Times,serif" font-size="14.00">r aws</text>
</g>
<!-- r&#45;base&#45;&gt;r&#45;aws -->
<g id="edge12" class="edge">
<title>r&#45;base&#45;&gt;r&#45;aws</title>
<path fill="none" stroke="black" d="M356.69,-720.21C349.4,-701.76 336.4,-671.61 321,-648 314.1,-637.42 305.25,-626.72 297.16,-617.73"/>
<polygon fill="black" stroke="black" points="299.66,-615.29 290.31,-610.32 294.52,-620.04 299.66,-615.29"/>
</g>
<!-- r&#45;gsl&#45;&gt;r&#45;aws -->
<g id="edge13" class="edge">
<title>r&#45;gsl&#45;&gt;r&#45;aws</title>
<path fill="none" stroke="black" d="M276.51,-647.7C276.29,-639.98 276.02,-630.71 275.77,-622.11"/>
<polygon fill="black" stroke="black" points="279.27,-622 275.49,-612.1 272.28,-622.2 279.27,-622"/>
</g>
<!-- spdlib -->
<g id="node17" class="node">
<title>spdlib</title>
<g id="a_node17"><a xlink:href="https://github.com/conda-forge/spdlib-feedstock/pull/10" xlink:title="spdlib">
<ellipse fill="#31688e" stroke="black" cx="60" cy="-90" rx="40.5" ry="18"/>
<text text-anchor="middle" x="60" y="-86.3" font-family="Times,serif" font-size="14.00" fill="white">spdlib</text>
</a>
</g>
</g>
<!-- rsgislib&#45;&gt;spdlib -->
<!-- pymeep -->
<g id="node18" class="node">
<title>pymeep</title>
<g id="a_node18"><a xlink:href="https://github.com/conda-forge/pymeep-feedstock/pull/27" xlink:title="pymeep">
<ellipse fill="#31688e" stroke="black" cx="60" cy="-18" rx="40.5" ry="18"/>
<text text-anchor="middle" x="60" y="-14.3" font-family="Times,serif" font-size="14.00" fill="white">pymeep</text>
</a>
</g>
</g>
<!-- spdlib&#45;&gt;pymeep -->
<!-- lal -->
<g id="node19" class="node">
<title>lal</title>
<g id="a_node19"><a xlink:href="https://github.com/conda-forge/lal-feedstock/pull/35" xlink:title="lal">
<ellipse fill="#31688e" stroke="black" cx="967" cy="-738" rx="27" ry="18"/>
<text text-anchor="middle" x="967" y="-734.3" font-family="Times,serif" font-size="14.00" fill="white">lal</text>
</a>
</g>
</g>
<!-- lalsimulation -->
<g id="node20" class="node">
<title>lalsimulation</title>
<ellipse fill="#fde725" stroke="black" cx="772" cy="-666" rx="74.19" ry="18"/>
<text text-anchor="middle" x="772" y="-662.3" font-family="Times,serif" font-size="14.00">lalsimulation</text>
</g>
<!-- lal&#45;&gt;lalsimulation -->
<g id="edge17" class="edge">
<title>lal&#45;&gt;lalsimulation</title>
<path fill="none" stroke="black" d="M943.87,-728.7C913.82,-717.91 860.6,-698.8 821.31,-684.7"/>
<polygon fill="black" stroke="black" points="822.24,-681.32 811.65,-681.23 819.88,-687.91 822.24,-681.32"/>
</g>
<!-- lalburst -->
<g id="node21" class="node">
<title>lalburst</title>
<ellipse fill="#fde725" stroke="black" cx="967" cy="-594" rx="50.09" ry="18"/>
<text text-anchor="middle" x="967" y="-590.3" font-family="Times,serif" font-size="14.00">lalburst</text>
</g>
<!-- lal&#45;&gt;lalburst -->
<g id="edge18" class="edge">
<title>lal&#45;&gt;lalburst</title>
<path fill="none" stroke="black" d="M967,-719.87C967,-695.67 967,-651.21 967,-622.39"/>
<polygon fill="black" stroke="black" points="970.5,-622.19 967,-612.19 963.5,-622.19 970.5,-622.19"/>
</g>
<!-- lalpulsar -->
<g id="node22" class="node">
<title>lalpulsar</title>
<ellipse fill="#fde725" stroke="black" cx="1217" cy="-522" rx="54.69" ry="18"/>
<text text-anchor="middle" x="1217" y="-518.3" font-family="Times,serif" font-size="14.00">lalpulsar</text>
</g>
<!-- lal&#45;&gt;lalpulsar -->
<g id="edge19" class="edge">
<title>lal&#45;&gt;lalpulsar</title>
<path fill="none" stroke="black" d="M994.05,-736.08C1032.73,-733.36 1104.02,-722.99 1148,-684 1187.9,-648.62 1205.51,-586.17 1212.65,-550.33"/>
<polygon fill="black" stroke="black" points="1216.16,-550.59 1214.54,-540.12 1209.28,-549.32 1216.16,-550.59"/>
</g>
<!-- lalinspiral -->
<g id="node23" class="node">
<title>lalinspiral</title>
<ellipse fill="#fde725" stroke="black" cx="889" cy="-522" rx="64.5" ry="18"/>
<text text-anchor="middle" x="889" y="-518.3" font-family="Times,serif" font-size="14.00">lalinspiral</text>
</g>
<!-- lal&#45;&gt;lalinspiral -->
<g id="edge20" class="edge">
<title>lal&#45;&gt;lalinspiral</title>
<path fill="none" stroke="black" d="M957.93,-720.92C945.11,-697.6 921.74,-652.7 908,-612 901.14,-591.7 896.22,-567.93 893.11,-550.06"/>
<polygon fill="black" stroke="black" points="896.53,-549.33 891.44,-540.04 889.63,-550.48 896.53,-549.33"/>
</g>
<!-- lalinference -->
<g id="node24" class="node">
<title>lalinference</title>
<ellipse fill="#fde725" stroke="black" cx="1036" cy="-450" rx="69.59" ry="18"/>
<text text-anchor="middle" x="1036" y="-446.3" font-family="Times,serif" font-size="14.00">lalinference</text>
</g>
<!-- lal&#45;&gt;lalinference -->
<g id="edge21" class="edge">
<title>lal&#45;&gt;lalinference</title>
<path fill="none" stroke="black" d="M979.98,-721.99C998.58,-699.63 1032.5,-655.5 1050,-612 1068.04,-567.15 1074.28,-551.01 1063,-504 1060.76,-494.66 1056.58,-485.11 1052.17,-476.74"/>
<polygon fill="black" stroke="black" points="1055.13,-474.87 1047.19,-467.86 1049.03,-478.29 1055.13,-474.87"/>
</g>
<!-- lalapps -->
<g id="node25" class="node">
<title>lalapps</title>
<ellipse fill="#fde725" stroke="black" cx="941" cy="-378" rx="45" ry="18"/>
<text text-anchor="middle" x="941" y="-374.3" font-family="Times,serif" font-size="14.00">lalapps</text>
</g>
<!-- lal&#45;&gt;lalapps -->
<g id="edge22" class="edge">
<title>lal&#45;&gt;lalapps</title>
<path fill="none" stroke="black" d="M990.93,-729.3C1037.1,-712.76 1134,-669.21 1134,-595 1134,-595 1134,-595 1134,-521 1134,-480.55 1142.35,-461.79 1115,-432 1084.71,-399.01 1034.58,-386.31 995.88,-381.54"/>
<polygon fill="black" stroke="black" points="996.13,-378.04 985.81,-380.44 995.37,-385 996.13,-378.04"/>
</g>
<!-- ligo.skymap -->
<g id="node26" class="node">
<title>ligo.skymap</title>
<ellipse fill="#fde725" stroke="black" cx="852" cy="-306" rx="64.5" ry="18"/>
<text text-anchor="middle" x="852" y="-302.3" font-family="Times,serif" font-size="14.00">ligo skymap</text>
</g>
<!-- lal&#45;&gt;ligo.skymap -->
<g id="edge23" class="edge">
<title>lal&#45;&gt;ligo.skymap</title>
<path fill="none" stroke="black" d="M940.03,-736.99C885.89,-735.96 761.3,-728.49 669,-684 615.1,-658.02 568,-654.83 568,-595 568,-595 568,-595 568,-449 568,-354.31 695.86,-322.76 779.99,-312.25"/>
<polygon fill="black" stroke="black" points="780.5,-315.71 790.03,-311.07 779.69,-308.76 780.5,-315.71"/>
</g>
<!-- bayeswave -->
<g id="node27" class="node">
<title>bayeswave</title>
<ellipse fill="#fde725" stroke="black" cx="945" cy="-234" rx="54.69" ry="18"/>
<text text-anchor="middle" x="945" y="-230.3" font-family="Times,serif" font-size="14.00">bayeswave</text>
</g>
<!-- lal&#45;&gt;bayeswave -->
<g id="edge24" class="edge">
<title>lal&#45;&gt;bayeswave</title>
<path fill="none" stroke="black" d="M994.25,-737.67C1073.78,-738.09 1300,-727.61 1300,-595 1300,-595 1300,-595 1300,-377 1300,-313.55 1102.01,-265.67 1001.75,-245.5"/>
<polygon fill="black" stroke="black" points="1002.27,-242.03 991.78,-243.52 1000.9,-248.9 1002.27,-242.03"/>
</g>
<!-- gstlal -->
<g id="node28" class="node">
<title>gstlal</title>
<ellipse fill="#fde725" stroke="black" cx="751" cy="-450" rx="40.5" ry="18"/>
<text text-anchor="middle" x="751" y="-446.3" font-family="Times,serif" font-size="14.00">gstlal</text>
</g>
<!-- lal&#45;&gt;gstlal -->
<g id="edge25" class="edge">
<title>lal&#45;&gt;gstlal</title>
<path fill="none" stroke="black" d="M939.81,-736.05C876.2,-733.18 720.71,-722.33 689,-684 637.61,-621.89 698.63,-521.36 732.01,-475.37"/>
<polygon fill="black" stroke="black" points="734.94,-477.3 738.09,-467.19 729.32,-473.13 734.94,-477.3"/>
</g>
<!-- lalsimulation&#45;&gt;lalburst -->
<g id="edge26" class="edge">
<title>lalsimulation&#45;&gt;lalburst</title>
<path fill="none" stroke="black" d="M811.93,-650.67C844.38,-639.02 890.09,-622.61 923.48,-610.62"/>
<polygon fill="black" stroke="black" points="924.75,-613.89 932.98,-607.21 922.38,-607.3 924.75,-613.89"/>
</g>
<!-- lalsimulation&#45;&gt;lalinspiral -->
<g id="edge27" class="edge">
<title>lalsimulation&#45;&gt;lalinspiral</title>
<path fill="none" stroke="black" d="M785.88,-648.15C806.38,-623.28 844.86,-576.57 868.58,-547.79"/>
<polygon fill="black" stroke="black" points="871.48,-549.77 875.14,-539.82 866.08,-545.32 871.48,-549.77"/>
</g>
<!-- lalsimulation&#45;&gt;lalinference -->
<g id="edge28" class="edge">
<title>lalsimulation&#45;&gt;lalinference</title>
<path fill="none" stroke="black" d="M841.79,-659.79C908.51,-653.22 1002.34,-639.33 1026,-612 1058.06,-574.97 1050.98,-513.38 1043.28,-478.08"/>
<polygon fill="black" stroke="black" points="1046.61,-476.96 1040.91,-468.03 1039.79,-478.56 1046.61,-476.96"/>
</g>
<!-- lalsimulation&#45;&gt;lalapps -->
<g id="edge29" class="edge">
<title>lalsimulation&#45;&gt;lalapps</title>
<path fill="none" stroke="black" d="M773.61,-647.9C777.1,-617.21 787.44,-551.56 815,-504 839.75,-461.29 882.86,-423.09 911.66,-400.48"/>
<polygon fill="black" stroke="black" points="913.96,-403.12 919.74,-394.24 909.69,-397.58 913.96,-403.12"/>
</g>
<!-- lalsimulation&#45;&gt;ligo.skymap -->
<g id="edge30" class="edge">
<title>lalsimulation&#45;&gt;ligo.skymap</title>
<path fill="none" stroke="black" d="M752.47,-648.37C726,-623.85 682,-575.25 682,-523 682,-523 682,-523 682,-449 682,-385.6 752.51,-344.96 802.71,-324.07"/>
<polygon fill="black" stroke="black" points="804.17,-327.25 812.14,-320.27 801.56,-320.76 804.17,-327.25"/>
</g>
<!-- lalsimulation&#45;&gt;bayeswave -->
<g id="edge31" class="edge">
<title>lalsimulation&#45;&gt;bayeswave</title>
<path fill="none" stroke="black" d="M742.63,-649.37C704.84,-626.88 644,-581.58 644,-523 644,-523 644,-523 644,-377 644,-273.21 792.21,-245.16 880.63,-237.66"/>
<polygon fill="black" stroke="black" points="881.14,-241.13 890.84,-236.86 880.6,-234.15 881.14,-241.13"/>
</g>
<!-- lalsimulation&#45;&gt;gstlal -->
<g id="edge32" class="edge">
<title>lalsimulation&#45;&gt;gstlal</title>
<path fill="none" stroke="black" d="M760.4,-648.2C754.21,-638.18 747.21,-624.93 744,-612 732.63,-566.13 739.31,-510.7 745.17,-478.3"/>
<polygon fill="black" stroke="black" points="748.66,-478.72 747.1,-468.24 741.78,-477.4 748.66,-478.72"/>
</g>
<!-- lalburst&#45;&gt;lalinspiral -->
<g id="edge33" class="edge">
<title>lalburst&#45;&gt;lalinspiral</title>
<path fill="none" stroke="black" d="M949.3,-577.12C939.07,-567.94 926.03,-556.23 914.69,-546.06"/>
<polygon fill="black" stroke="black" points="916.95,-543.38 907.17,-539.31 912.28,-548.59 916.95,-543.38"/>
</g>
<!-- lalburst&#45;&gt;lalinference -->
<g id="edge34" class="edge">
<title>lalburst&#45;&gt;lalinference</title>
<path fill="none" stroke="black" d="M976.75,-575.99C982.54,-565.69 989.93,-552.21 996,-540 1006.38,-519.14 1017.15,-495.01 1024.9,-477.14"/>
<polygon fill="black" stroke="black" points="1028.13,-478.48 1028.87,-467.91 1021.7,-475.71 1028.13,-478.48"/>
</g>
<!-- lalburst&#45;&gt;lalapps -->
<g id="edge35" class="edge">
<title>lalburst&#45;&gt;lalapps</title>
<path fill="none" stroke="black" d="M966.6,-575.89C966.05,-557.94 964.78,-528.92 962,-504 959.93,-485.51 951.44,-436.93 945.91,-406.06"/>
<polygon fill="black" stroke="black" points="949.3,-405.18 944.09,-395.96 942.41,-406.42 949.3,-405.18"/>
</g>
<!-- lalburst&#45;&gt;gstlal -->
<g id="edge36" class="edge">
<title>lalburst&#45;&gt;gstlal</title>
<path fill="none" stroke="black" d="M923.35,-585.19C891,-577.74 847.13,-564 815,-540 792.62,-523.29 774.87,-496.49 763.79,-476.66"/>
<polygon fill="black" stroke="black" points="766.86,-474.98 759.04,-467.83 760.7,-478.29 766.86,-474.98"/>
</g>
<!-- lalpulsar&#45;&gt;lalinference -->
<g id="edge37" class="edge">
<title>lalpulsar&#45;&gt;lalinference</title>
<path fill="none" stroke="black" d="M1182.96,-507.83C1154.56,-496.85 1113.81,-481.09 1082.42,-468.95"/>
<polygon fill="black" stroke="black" points="1083.6,-465.65 1073.01,-465.31 1081.07,-472.18 1083.6,-465.65"/>
</g>
<!-- lalpulsar&#45;&gt;lalapps -->
<g id="edge38" class="edge">
<title>lalpulsar&#45;&gt;lalapps</title>
<path fill="none" stroke="black" d="M1208.47,-504.15C1197.35,-483.9 1175.95,-450.35 1148,-432 1101.83,-401.68 1039.33,-388.7 995.13,-383.15"/>
<polygon fill="black" stroke="black" points="995.49,-379.67 985.15,-381.98 994.67,-386.62 995.49,-379.67"/>
</g>
<!-- lalinspiral&#45;&gt;lalinference -->
<g id="edge39" class="edge">
<title>lalinspiral&#45;&gt;lalinference</title>
<path fill="none" stroke="black" d="M920.17,-506.15C942.05,-495.74 971.51,-481.71 995.25,-470.41"/>
<polygon fill="black" stroke="black" points="996.84,-473.52 1004.36,-466.07 993.83,-467.2 996.84,-473.52"/>
</g>
<!-- lalinspiral&#45;&gt;lalapps -->
<g id="edge40" class="edge">
<title>lalinspiral&#45;&gt;lalapps</title>
<path fill="none" stroke="black" d="M895.27,-503.87C904.21,-479.46 920.7,-434.43 931.25,-405.64"/>
<polygon fill="black" stroke="black" points="934.55,-406.78 934.71,-396.19 927.98,-404.38 934.55,-406.78"/>
</g>
<!-- lalinspiral&#45;&gt;ligo.skymap -->
<g id="edge41" class="edge">
<title>lalinspiral&#45;&gt;ligo.skymap</title>
<path fill="none" stroke="black" d="M886.03,-503.85C879.62,-466.75 864.42,-378.81 856.69,-334.1"/>
<polygon fill="black" stroke="black" points="860.13,-333.49 854.98,-324.23 853.23,-334.68 860.13,-333.49"/>
</g>
<!-- lalinspiral&#45;&gt;gstlal -->
<g id="edge42" class="edge">
<title>lalinspiral&#45;&gt;gstlal</title>
<path fill="none" stroke="black" d="M859.4,-505.98C837.82,-495.04 808.51,-480.17 785.81,-468.66"/>
<polygon fill="black" stroke="black" points="787.34,-465.51 776.84,-464.11 784.17,-471.75 787.34,-465.51"/>
</g>
<!-- lalinference&#45;&gt;lalapps -->
<g id="edge43" class="edge">
<title>lalinference&#45;&gt;lalapps</title>
<path fill="none" stroke="black" d="M1013.97,-432.76C1000.89,-423.13 984.17,-410.81 970.03,-400.39"/>
<polygon fill="black" stroke="black" points="971.74,-397.3 961.61,-394.19 967.59,-402.94 971.74,-397.3"/>
</g>
<!-- lalinference&#45;&gt;bayeswave -->
<g id="edge44" class="edge">
<title>lalinference&#45;&gt;bayeswave</title>
<path fill="none" stroke="black" d="M1028.71,-431.85C1012.83,-394.5 975.03,-305.63 956.15,-261.21"/>
<polygon fill="black" stroke="black" points="959.34,-259.77 952.2,-251.94 952.89,-262.51 959.34,-259.77"/>
</g>
<!-- lalapps&#45;&gt;ligo.skymap -->
<g id="edge45" class="edge">
<title>lalapps&#45;&gt;ligo.skymap</title>
<path fill="none" stroke="black" d="M921.25,-361.46C909.29,-352.06 893.83,-339.9 880.56,-329.46"/>
<polygon fill="black" stroke="black" points="882.65,-326.65 872.62,-323.22 878.32,-332.15 882.65,-326.65"/>
</g>
<!-- lalapps&#45;&gt;bayeswave -->
<g id="edge46" class="edge">
<title>lalapps&#45;&gt;bayeswave</title>
<path fill="none" stroke="black" d="M941.48,-359.87C942.16,-335.67 943.42,-291.21 944.23,-262.39"/>
<polygon fill="black" stroke="black" points="947.73,-262.28 944.52,-252.19 940.74,-262.09 947.73,-262.28"/>
</g>
<!-- ligo.skymap&#45;&gt;bayeswave -->
<g id="edge47" class="edge">
<title>ligo.skymap&#45;&gt;bayeswave</title>
<path fill="none" stroke="black" d="M873.57,-288.76C886.19,-279.27 902.29,-267.15 916.01,-256.82"/>
<polygon fill="black" stroke="black" points="918.3,-259.48 924.19,-250.67 914.09,-253.88 918.3,-259.48"/>
</g>
<!-- root -->
<g id="node29" class="node">
<title>root</title>
<g id="a_node29"><a xlink:href="https://github.com/conda-forge/root-feedstock/pull/78" xlink:title="root">
<ellipse fill="#31688e" stroke="black" cx="1417" cy="-738" rx="30.59" ry="18"/>
<text text-anchor="middle" x="1417" y="-734.3" font-family="Times,serif" font-size="14.00" fill="white">root</text>
</a>
</g>
</g>
<!-- ostaphep -->
<g id="node30" class="node">
<title>ostaphep</title>
<ellipse fill="#fde725" stroke="black" cx="1378" cy="-666" rx="50.09" ry="18"/>
<text text-anchor="middle" x="1378" y="-662.3" font-family="Times,serif" font-size="14.00">ostaphep</text>
</g>
<!-- root&#45;&gt;ostaphep -->
<g id="edge48" class="edge">
<title>root&#45;&gt;ostaphep</title>
<path fill="none" stroke="black" d="M1407.95,-720.76C1403.36,-712.53 1397.68,-702.32 1392.49,-693.02"/>
<polygon fill="black" stroke="black" points="1395.47,-691.16 1387.54,-684.12 1389.35,-694.56 1395.47,-691.16"/>
</g>
<!-- gwollum -->
<g id="node31" class="node">
<title>gwollum</title>
<ellipse fill="#fde725" stroke="black" cx="1456" cy="-594" rx="45" ry="18"/>
<text text-anchor="middle" x="1456" y="-590.3" font-family="Times,serif" font-size="14.00">gwollum</text>
</g>
<!-- root&#45;&gt;gwollum -->
<g id="edge49" class="edge">
<title>root&#45;&gt;gwollum</title>
<path fill="none" stroke="black" d="M1424.15,-720.04C1428.3,-709.74 1433.4,-696.27 1437,-684 1443,-663.57 1447.95,-639.98 1451.29,-622.22"/>
<polygon fill="black" stroke="black" points="1454.76,-622.72 1453.11,-612.25 1447.87,-621.46 1454.76,-622.72"/>
</g>
<!-- plumed -->
<g id="node32" class="node">
<title>plumed</title>
<g id="a_node32"><a xlink:href="https://github.com/conda-forge/plumed-feedstock/pull/12" xlink:title="plumed">
<ellipse fill="#31688e" stroke="black" cx="1546" cy="-738" rx="40.5" ry="18"/>
<text text-anchor="middle" x="1546" y="-734.3" font-family="Times,serif" font-size="14.00" fill="white">plumed</text>
</a>
</g>
</g>
<!-- dakota -->
<g id="node33" class="node">
<title>dakota</title>
<g id="a_node33"><a xlink:href="https://github.com/conda-forge/dakota-feedstock/pull/12" xlink:title="dakota">
<ellipse fill="#31688e" stroke="black" cx="1546" cy="-666" rx="40.5" ry="18"/>
<text text-anchor="middle" x="1546" y="-662.3" font-family="Times,serif" font-size="14.00" fill="white">dakota</text>
</a>
</g>
</g>
<!-- plumed&#45;&gt;dakota -->
<!-- ale -->
<g id="node34" class="node">
<title>ale</title>
<g id="a_node34"><a xlink:href="https://github.com/conda-forge/ale-feedstock/pull/17" xlink:title="ale">
<ellipse fill="#31688e" stroke="black" cx="1546" cy="-594" rx="27" ry="18"/>
<text text-anchor="middle" x="1546" y="-590.3" font-family="Times,serif" font-size="14.00" fill="white">ale</text>
</a>
</g>
</g>
<!-- dakota&#45;&gt;ale -->
<!-- astrometry -->
<g id="node35" class="node">
<title>astrometry</title>
<g id="a_node35"><a xlink:href="https://github.com/conda-forge/astrometry-feedstock/pull/3" xlink:title="astrometry">
<ellipse fill="#31688e" stroke="black" cx="1546" cy="-522" rx="60" ry="18"/>
<text text-anchor="middle" x="1546" y="-518.3" font-family="Times,serif" font-size="14.00" fill="white">astrometry</text>
</a>
</g>
</g>
<!-- ale&#45;&gt;astrometry -->
<!-- pyinterp -->
<g id="node36" class="node">
<title>pyinterp</title>
<g id="a_node36"><a xlink:href="https://github.com/conda-forge/pyinterp-feedstock/pull/13" xlink:title="pyinterp">
<ellipse fill="#31688e" stroke="black" cx="1546" cy="-450" rx="50.09" ry="18"/>
<text text-anchor="middle" x="1546" y="-446.3" font-family="Times,serif" font-size="14.00" fill="white">pyinterp</text>
</a>
</g>
</g>
<!-- astrometry&#45;&gt;pyinterp -->
<!-- pyccl -->
<g id="node37" class="node">
<title>pyccl</title>
<g id="a_node37"><a xlink:href="https://github.com/conda-forge/pyccl-feedstock/pull/13" xlink:title="pyccl">
<ellipse fill="#31688e" stroke="black" cx="1546" cy="-378" rx="35.19" ry="18"/>
<text text-anchor="middle" x="1546" y="-374.3" font-family="Times,serif" font-size="14.00" fill="white">pyccl</text>
</a>
</g>
</g>
<!-- pyinterp&#45;&gt;pyccl -->
<!-- gnuradio -->
<g id="node38" class="node">
<title>gnuradio</title>
<g id="a_node38"><a xlink:href="https://github.com/conda-forge/gnuradio-feedstock/pull/5" xlink:title="gnuradio">
<ellipse fill="#31688e" stroke="black" cx="1546" cy="-306" rx="50.09" ry="18"/>
<text text-anchor="middle" x="1546" y="-302.3" font-family="Times,serif" font-size="14.00" fill="white">gnuradio</text>
</a>
</g>
</g>
<!-- pyccl&#45;&gt;gnuradio -->
<!-- gwsurrogate -->
<g id="node39" class="node">
<title>gwsurrogate</title>
<g id="a_node39"><a xlink:href="https://github.com/conda-forge/gwsurrogate-feedstock/pull/6" xlink:title="gwsurrogate">
<ellipse fill="#31688e" stroke="black" cx="1546" cy="-234" rx="64.5" ry="18"/>
<text text-anchor="middle" x="1546" y="-230.3" font-family="Times,serif" font-size="14.00" fill="white">gwsurrogate</text>
</a>
</g>
</g>
<!-- gnuradio&#45;&gt;gwsurrogate -->
</g>
</svg>
