<?xml version="1.0" encoding="UTF-8" standalone="no"?>
<!DOCTYPE svg PUBLIC "-//W3C//DTD SVG 1.1//EN"
 "http://www.w3.org/Graphics/SVG/1.1/DTD/svg11.dtd">
<!-- Generated by graphviz version 2.42.3 (20191010.1750)
 -->
<!-- Title: %3 Pages: 1 -->
<svg width="1780pt" height="764pt"
 viewBox="0.00 0.00 1779.50 764.00" xmlns="http://www.w3.org/2000/svg" xmlns:xlink="http://www.w3.org/1999/xlink">
<g id="graph0" class="graph" transform="scale(1 1) rotate(0) translate(4 760)">
<title>%3</title>
<polygon fill="white" stroke="transparent" points="-4,4 -4,-760 1775.5,-760 1775.5,4 -4,4"/>
<!-- astro&#45;gala -->
<g id="node1" class="node">
<title>astro&#45;gala</title>
<g id="a_node1"><a xlink:href="https://github.com/conda-forge/astro-gala-feedstock/pull/9" xlink:title="astro gala">
<ellipse fill="#31688e" stroke="black" cx="60" cy="-738" rx="60" ry="18"/>
<text text-anchor="middle" x="60" y="-734.3" font-family="Times,serif" font-size="14.00" fill="white">astro gala</text>
</a>
</g>
</g>
<!-- cvxopt -->
<g id="node2" class="node">
<title>cvxopt</title>
<g id="a_node2"><a xlink:href="https://github.com/conda-forge/cvxopt-feedstock/pull/39" xlink:title="cvxopt">
<ellipse fill="#31688e" stroke="black" cx="60" cy="-666" rx="40.5" ry="18"/>
<text text-anchor="middle" x="60" y="-662.3" font-family="Times,serif" font-size="14.00" fill="white">cvxopt</text>
</a>
</g>
</g>
<!-- astro&#45;gala&#45;&gt;cvxopt -->
<!-- galpy -->
<g id="node3" class="node">
<title>galpy</title>
<g id="a_node3"><a xlink:href="https://github.com/conda-forge/galpy-feedstock/pull/12" xlink:title="galpy">
<ellipse fill="#31688e" stroke="black" cx="60" cy="-594" rx="35.19" ry="18"/>
<text text-anchor="middle" x="60" y="-590.3" font-family="Times,serif" font-size="14.00" fill="white">galpy</text>
</a>
</g>
</g>
<!-- cvxopt&#45;&gt;galpy -->
<!-- giac -->
<g id="node6" class="node">
<title>giac</title>
<g id="a_node6"><a xlink:href="https://github.com/conda-forge/giac-feedstock/pull/17" xlink:title="giac">
<ellipse fill="#31688e" stroke="black" cx="60" cy="-522" rx="30.59" ry="18"/>
<text text-anchor="middle" x="60" y="-518.3" font-family="Times,serif" font-size="14.00" fill="white">giac</text>
</a>
</g>
</g>
<!-- galpy&#45;&gt;giac -->
<!-- cythongsl -->
<g id="node4" class="node">
<title>cythongsl</title>
<g id="a_node4"><a xlink:href="https://github.com/conda-forge/cythongsl-feedstock/pull/11" xlink:title="cythongsl">
<ellipse fill="#31688e" stroke="black" cx="193" cy="-738" rx="54.69" ry="18"/>
<text text-anchor="middle" x="193" y="-734.3" font-family="Times,serif" font-size="14.00" fill="white">cythongsl</text>
</a>
</g>
</g>
<!-- slda -->
<g id="node5" class="node">
<title>slda</title>
<ellipse fill="#fde725" stroke="black" cx="193" cy="-666" rx="30.59" ry="18"/>
<text text-anchor="middle" x="193" y="-662.3" font-family="Times,serif" font-size="14.00">slda</text>
</g>
<!-- cythongsl&#45;&gt;slda -->
<g id="edge3" class="edge">
<title>cythongsl&#45;&gt;slda</title>
<path fill="none" stroke="black" d="M193,-719.7C193,-711.98 193,-702.71 193,-694.11"/>
<polygon fill="black" stroke="black" points="196.5,-694.1 193,-684.1 189.5,-694.1 196.5,-694.1"/>
</g>
<!-- libdiffpy -->
<g id="node7" class="node">
<title>libdiffpy</title>
<g id="a_node7"><a xlink:href="https://github.com/conda-forge/libdiffpy-feedstock/pull/6" xlink:title="libdiffpy">
<ellipse fill="#31688e" stroke="black" cx="60" cy="-450" rx="54.69" ry="18"/>
<text text-anchor="middle" x="60" y="-446.3" font-family="Times,serif" font-size="14.00" fill="white">libdiffpy</text>
</a>
</g>
</g>
<!-- giac&#45;&gt;libdiffpy -->
<!-- ncl -->
<g id="node8" class="node">
<title>ncl</title>
<g id="a_node8"><a xlink:href="https://github.com/conda-forge/ncl-feedstock/pull/73" xlink:title="ncl">
<ellipse fill="#31688e" stroke="black" cx="60" cy="-378" rx="27" ry="18"/>
<text text-anchor="middle" x="60" y="-374.3" font-family="Times,serif" font-size="14.00" fill="white">ncl</text>
</a>
</g>
</g>
<!-- libdiffpy&#45;&gt;ncl -->
<!-- nco -->
<g id="node9" class="node">
<title>nco</title>
<g id="a_node9"><a xlink:href="https://github.com/conda-forge/nco-feedstock/pull/104" xlink:title="nco">
<ellipse fill="#31688e" stroke="black" cx="60" cy="-306" rx="27" ry="18"/>
<text text-anchor="middle" x="60" y="-302.3" font-family="Times,serif" font-size="14.00" fill="white">nco</text>
</a>
</g>
</g>
<!-- ncl&#45;&gt;nco -->
<!-- qgis -->
<g id="node10" class="node">
<title>qgis</title>
<ellipse fill="#fde725" stroke="black" cx="60" cy="-234" rx="30.59" ry="18"/>
<text text-anchor="middle" x="60" y="-230.3" font-family="Times,serif" font-size="14.00">qgis</text>
</g>
<!-- nco&#45;&gt;qgis -->
<!-- root5 -->
<g id="node11" class="node">
<title>root5</title>
<g id="a_node11"><a xlink:href="https://github.com/conda-forge/root5-feedstock/pull/20" xlink:title="root5">
<ellipse fill="#31688e" stroke="black" cx="60" cy="-162" rx="35.19" ry="18"/>
<text text-anchor="middle" x="60" y="-158.3" font-family="Times,serif" font-size="14.00" fill="white">root5</text>
</a>
</g>
</g>
<!-- qgis&#45;&gt;root5 -->
<!-- rsgislib -->
<g id="node17" class="node">
<title>rsgislib</title>
<g id="a_node17"><a xlink:href="https://github.com/conda-forge/rsgislib-feedstock/pull/27" xlink:title="rsgislib">
<ellipse fill="#31688e" stroke="black" cx="60" cy="-90" rx="50.09" ry="18"/>
<text text-anchor="middle" x="60" y="-86.3" font-family="Times,serif" font-size="14.00" fill="white">rsgislib</text>
</a>
</g>
</g>
<!-- root5&#45;&gt;rsgislib -->
<!-- r&#45;base -->
<g id="node12" class="node">
<title>r&#45;base</title>
<g id="a_node12"><a xlink:href="https://github.com/conda-forge/r-base-feedstock/pull/115" xlink:title="r base">
<ellipse fill="#31688e" stroke="black" cx="364" cy="-738" rx="40.5" ry="18"/>
<text text-anchor="middle" x="364" y="-734.3" font-family="Times,serif" font-size="14.00" fill="white">r base</text>
</a>
</g>
</g>
<!-- r&#45;gsl -->
<g id="node13" class="node">
<title>r&#45;gsl</title>
<ellipse fill="#fde725" stroke="black" cx="277" cy="-666" rx="35.19" ry="18"/>
<text text-anchor="middle" x="277" y="-662.3" font-family="Times,serif" font-size="14.00">r gsl</text>
</g>
<!-- r&#45;base&#45;&gt;r&#45;gsl -->
<g id="edge10" class="edge">
<title>r&#45;base&#45;&gt;r&#45;gsl</title>
<path fill="none" stroke="black" d="M345.12,-721.81C332.87,-711.95 316.74,-698.97 303.25,-688.12"/>
<polygon fill="black" stroke="black" points="305.23,-685.22 295.24,-681.68 300.84,-690.68 305.23,-685.22"/>
</g>
<!-- r&#45;rcppgsl -->
<g id="node14" class="node">
<title>r&#45;rcppgsl</title>
<ellipse fill="#fde725" stroke="black" cx="383" cy="-594" rx="54.69" ry="18"/>
<text text-anchor="middle" x="383" y="-590.3" font-family="Times,serif" font-size="14.00">r rcppgsl</text>
</g>
<!-- r&#45;base&#45;&gt;r&#45;rcppgsl -->
<g id="edge11" class="edge">
<title>r&#45;base&#45;&gt;r&#45;rcppgsl</title>
<path fill="none" stroke="black" d="M366.29,-719.87C369.53,-695.67 375.48,-651.21 379.33,-622.39"/>
<polygon fill="black" stroke="black" points="382.84,-622.57 380.7,-612.19 375.9,-621.64 382.84,-622.57"/>
</g>
<!-- r&#45;topicmodels -->
<g id="node15" class="node">
<title>r&#45;topicmodels</title>
<ellipse fill="#fde725" stroke="black" cx="466" cy="-522" rx="74.19" ry="18"/>
<text text-anchor="middle" x="466" y="-518.3" font-family="Times,serif" font-size="14.00">r topicmodels</text>
</g>
<!-- r&#45;base&#45;&gt;r&#45;topicmodels -->
<g id="edge12" class="edge">
<title>r&#45;base&#45;&gt;r&#45;topicmodels</title>
<path fill="none" stroke="black" d="M377.73,-720.78C396.29,-697.99 429.12,-654.5 447,-612 455.31,-592.25 460.15,-568.45 462.86,-550.43"/>
<polygon fill="black" stroke="black" points="466.36,-550.69 464.25,-540.3 459.42,-549.73 466.36,-550.69"/>
</g>
<!-- r&#45;aws -->
<g id="node16" class="node">
<title>r&#45;aws</title>
<ellipse fill="#fde725" stroke="black" cx="275" cy="-594" rx="35.19" ry="18"/>
<text text-anchor="middle" x="275" y="-590.3" font-family="Times,serif" font-size="14.00">r aws</text>
</g>
<!-- r&#45;base&#45;&gt;r&#45;aws -->
<g id="edge13" class="edge">
<title>r&#45;base&#45;&gt;r&#45;aws</title>
<path fill="none" stroke="black" d="M357.47,-720.22C349.94,-701.78 336.57,-671.65 321,-648 314.05,-637.45 305.19,-626.76 297.11,-617.77"/>
<polygon fill="black" stroke="black" points="299.62,-615.33 290.27,-610.35 294.47,-620.07 299.62,-615.33"/>
</g>
<!-- r&#45;gsl&#45;&gt;r&#45;aws -->
<g id="edge14" class="edge">
<title>r&#45;gsl&#45;&gt;r&#45;aws</title>
<path fill="none" stroke="black" d="M276.51,-647.7C276.29,-639.98 276.02,-630.71 275.77,-622.11"/>
<polygon fill="black" stroke="black" points="279.27,-622 275.49,-612.1 272.28,-622.2 279.27,-622"/>
</g>
<!-- msprime -->
<g id="node18" class="node">
<title>msprime</title>
<g id="a_node18"><a xlink:href="https://github.com/conda-forge/msprime-feedstock/pull/40" xlink:title="msprime">
<ellipse fill="#31688e" stroke="black" cx="60" cy="-18" rx="45" ry="18"/>
<text text-anchor="middle" x="60" y="-14.3" font-family="Times,serif" font-size="14.00" fill="white">msprime</text>
</a>
</g>
</g>
<!-- rsgislib&#45;&gt;msprime -->
<!-- spdlib -->
<g id="node19" class="node">
<title>spdlib</title>
<g id="a_node19"><a xlink:href="https://github.com/conda-forge/spdlib-feedstock/pull/10" xlink:title="spdlib">
<ellipse fill="#31688e" stroke="black" cx="599" cy="-738" rx="40.5" ry="18"/>
<text text-anchor="middle" x="599" y="-734.3" font-family="Times,serif" font-size="14.00" fill="white">spdlib</text>
</a>
</g>
</g>
<!-- numcosmo -->
<g id="node20" class="node">
<title>numcosmo</title>
<g id="a_node20"><a xlink:href="https://github.com/conda-forge/numcosmo-feedstock/pull/12" xlink:title="numcosmo">
<ellipse fill="#31688e" stroke="black" cx="599" cy="-666" rx="50.09" ry="18"/>
<text text-anchor="middle" x="599" y="-662.3" font-family="Times,serif" font-size="14.00" fill="white">numcosmo</text>
</a>
</g>
</g>
<!-- spdlib&#45;&gt;numcosmo -->
<!-- pygslodeiv2 -->
<g id="node21" class="node">
<title>pygslodeiv2</title>
<g id="a_node21"><a xlink:href="https://github.com/conda-forge/pygslodeiv2-feedstock/pull/8" xlink:title="pygslodeiv2">
<ellipse fill="#31688e" stroke="black" cx="599" cy="-594" rx="64.5" ry="18"/>
<text text-anchor="middle" x="599" y="-590.3" font-family="Times,serif" font-size="14.00" fill="white">pygslodeiv2</text>
</a>
</g>
</g>
<!-- numcosmo&#45;&gt;pygslodeiv2 -->
<!-- pymeep -->
<g id="node22" class="node">
<title>pymeep</title>
<g id="a_node22"><a xlink:href="https://github.com/conda-forge/pymeep-feedstock/pull/27" xlink:title="pymeep">
<ellipse fill="#31688e" stroke="black" cx="599" cy="-522" rx="40.5" ry="18"/>
<text text-anchor="middle" x="599" y="-518.3" font-family="Times,serif" font-size="14.00" fill="white">pymeep</text>
</a>
</g>
</g>
<!-- pygslodeiv2&#45;&gt;pymeep -->
<!-- namaster -->
<g id="node33" class="node">
<title>namaster</title>
<g id="a_node33"><a xlink:href="https://github.com/conda-forge/namaster-feedstock/pull/13" xlink:title="namaster">
<ellipse fill="#31688e" stroke="black" cx="599" cy="-450" rx="50.09" ry="18"/>
<text text-anchor="middle" x="599" y="-446.3" font-family="Times,serif" font-size="14.00" fill="white">namaster</text>
</a>
</g>
</g>
<!-- pymeep&#45;&gt;namaster -->
<!-- lal -->
<g id="node23" class="node">
<title>lal</title>
<g id="a_node23"><a xlink:href="https://github.com/conda-forge/lal-feedstock/pull/35" xlink:title="lal">
<ellipse fill="#31688e" stroke="black" cx="1105" cy="-738" rx="27" ry="18"/>
<text text-anchor="middle" x="1105" y="-734.3" font-family="Times,serif" font-size="14.00" fill="white">lal</text>
</a>
</g>
</g>
<!-- lalsimulation -->
<g id="node24" class="node">
<title>lalsimulation</title>
<ellipse fill="#fde725" stroke="black" cx="910" cy="-666" rx="74.19" ry="18"/>
<text text-anchor="middle" x="910" y="-662.3" font-family="Times,serif" font-size="14.00">lalsimulation</text>
</g>
<!-- lal&#45;&gt;lalsimulation -->
<g id="edge20" class="edge">
<title>lal&#45;&gt;lalsimulation</title>
<path fill="none" stroke="black" d="M1081.87,-728.7C1051.82,-717.91 998.6,-698.8 959.31,-684.7"/>
<polygon fill="black" stroke="black" points="960.24,-681.32 949.65,-681.23 957.88,-687.91 960.24,-681.32"/>
</g>
<!-- lalburst -->
<g id="node25" class="node">
<title>lalburst</title>
<ellipse fill="#fde725" stroke="black" cx="1105" cy="-594" rx="50.09" ry="18"/>
<text text-anchor="middle" x="1105" y="-590.3" font-family="Times,serif" font-size="14.00">lalburst</text>
</g>
<!-- lal&#45;&gt;lalburst -->
<g id="edge21" class="edge">
<title>lal&#45;&gt;lalburst</title>
<path fill="none" stroke="black" d="M1105,-719.87C1105,-695.67 1105,-651.21 1105,-622.39"/>
<polygon fill="black" stroke="black" points="1108.5,-622.19 1105,-612.19 1101.5,-622.19 1108.5,-622.19"/>
</g>
<!-- lalpulsar -->
<g id="node26" class="node">
<title>lalpulsar</title>
<ellipse fill="#fde725" stroke="black" cx="1355" cy="-522" rx="54.69" ry="18"/>
<text text-anchor="middle" x="1355" y="-518.3" font-family="Times,serif" font-size="14.00">lalpulsar</text>
</g>
<!-- lal&#45;&gt;lalpulsar -->
<g id="edge22" class="edge">
<title>lal&#45;&gt;lalpulsar</title>
<path fill="none" stroke="black" d="M1132.05,-736.08C1170.73,-733.36 1242.02,-722.99 1286,-684 1325.9,-648.62 1343.51,-586.17 1350.65,-550.33"/>
<polygon fill="black" stroke="black" points="1354.16,-550.59 1352.54,-540.12 1347.28,-549.32 1354.16,-550.59"/>
</g>
<!-- lalinspiral -->
<g id="node27" class="node">
<title>lalinspiral</title>
<ellipse fill="#fde725" stroke="black" cx="1027" cy="-522" rx="64.5" ry="18"/>
<text text-anchor="middle" x="1027" y="-518.3" font-family="Times,serif" font-size="14.00">lalinspiral</text>
</g>
<!-- lal&#45;&gt;lalinspiral -->
<g id="edge23" class="edge">
<title>lal&#45;&gt;lalinspiral</title>
<path fill="none" stroke="black" d="M1095.93,-720.92C1083.11,-697.6 1059.74,-652.7 1046,-612 1039.14,-591.7 1034.22,-567.93 1031.11,-550.06"/>
<polygon fill="black" stroke="black" points="1034.53,-549.33 1029.44,-540.04 1027.63,-550.48 1034.53,-549.33"/>
</g>
<!-- lalinference -->
<g id="node28" class="node">
<title>lalinference</title>
<ellipse fill="#fde725" stroke="black" cx="1174" cy="-450" rx="69.59" ry="18"/>
<text text-anchor="middle" x="1174" y="-446.3" font-family="Times,serif" font-size="14.00">lalinference</text>
</g>
<!-- lal&#45;&gt;lalinference -->
<g id="edge24" class="edge">
<title>lal&#45;&gt;lalinference</title>
<path fill="none" stroke="black" d="M1117.98,-721.99C1136.58,-699.63 1170.5,-655.5 1188,-612 1206.04,-567.15 1212.28,-551.01 1201,-504 1198.76,-494.66 1194.58,-485.11 1190.17,-476.74"/>
<polygon fill="black" stroke="black" points="1193.13,-474.87 1185.19,-467.86 1187.03,-478.29 1193.13,-474.87"/>
</g>
<!-- lalapps -->
<g id="node29" class="node">
<title>lalapps</title>
<ellipse fill="#fde725" stroke="black" cx="1079" cy="-378" rx="45" ry="18"/>
<text text-anchor="middle" x="1079" y="-374.3" font-family="Times,serif" font-size="14.00">lalapps</text>
</g>
<!-- lal&#45;&gt;lalapps -->
<g id="edge25" class="edge">
<title>lal&#45;&gt;lalapps</title>
<path fill="none" stroke="black" d="M1128.93,-729.3C1175.1,-712.76 1272,-669.21 1272,-595 1272,-595 1272,-595 1272,-521 1272,-480.55 1280.35,-461.79 1253,-432 1222.71,-399.01 1172.58,-386.31 1133.88,-381.54"/>
<polygon fill="black" stroke="black" points="1134.13,-378.04 1123.81,-380.44 1133.37,-385 1134.13,-378.04"/>
</g>
<!-- ligo.skymap -->
<g id="node30" class="node">
<title>ligo.skymap</title>
<ellipse fill="#fde725" stroke="black" cx="993" cy="-306" rx="64.5" ry="18"/>
<text text-anchor="middle" x="993" y="-302.3" font-family="Times,serif" font-size="14.00">ligo skymap</text>
</g>
<!-- lal&#45;&gt;ligo.skymap -->
<g id="edge26" class="edge">
<title>lal&#45;&gt;ligo.skymap</title>
<path fill="none" stroke="black" d="M1078.03,-736.99C1023.89,-735.96 899.3,-728.49 807,-684 753.1,-658.02 706,-654.83 706,-595 706,-595 706,-595 706,-449 706,-353.38 835.57,-322.15 920.59,-311.95"/>
<polygon fill="black" stroke="black" points="921.18,-315.4 930.73,-310.8 920.4,-308.45 921.18,-315.4"/>
</g>
<!-- bayeswave -->
<g id="node31" class="node">
<title>bayeswave</title>
<ellipse fill="#fde725" stroke="black" cx="1086" cy="-234" rx="54.69" ry="18"/>
<text text-anchor="middle" x="1086" y="-230.3" font-family="Times,serif" font-size="14.00">bayeswave</text>
</g>
<!-- lal&#45;&gt;bayeswave -->
<g id="edge27" class="edge">
<title>lal&#45;&gt;bayeswave</title>
<path fill="none" stroke="black" d="M1132.25,-737.67C1211.78,-738.09 1438,-727.61 1438,-595 1438,-595 1438,-595 1438,-377 1438,-314.01 1241.68,-265.91 1142.27,-245.58"/>
<polygon fill="black" stroke="black" points="1142.87,-242.14 1132.38,-243.59 1141.49,-249 1142.87,-242.14"/>
</g>
<!-- gstlal -->
<g id="node32" class="node">
<title>gstlal</title>
<ellipse fill="#fde725" stroke="black" cx="889" cy="-450" rx="40.5" ry="18"/>
<text text-anchor="middle" x="889" y="-446.3" font-family="Times,serif" font-size="14.00">gstlal</text>
</g>
<!-- lal&#45;&gt;gstlal -->
<g id="edge28" class="edge">
<title>lal&#45;&gt;gstlal</title>
<path fill="none" stroke="black" d="M1077.81,-736.05C1014.2,-733.18 858.71,-722.33 827,-684 775.61,-621.89 836.63,-521.36 870.01,-475.37"/>
<polygon fill="black" stroke="black" points="872.94,-477.3 876.09,-467.19 867.32,-473.13 872.94,-477.3"/>
</g>
<!-- lalsimulation&#45;&gt;lalburst -->
<g id="edge29" class="edge">
<title>lalsimulation&#45;&gt;lalburst</title>
<path fill="none" stroke="black" d="M949.93,-650.67C982.38,-639.02 1028.09,-622.61 1061.48,-610.62"/>
<polygon fill="black" stroke="black" points="1062.75,-613.89 1070.98,-607.21 1060.38,-607.3 1062.75,-613.89"/>
</g>
<!-- lalsimulation&#45;&gt;lalinspiral -->
<g id="edge30" class="edge">
<title>lalsimulation&#45;&gt;lalinspiral</title>
<path fill="none" stroke="black" d="M923.88,-648.15C944.38,-623.28 982.86,-576.57 1006.58,-547.79"/>
<polygon fill="black" stroke="black" points="1009.48,-549.77 1013.14,-539.82 1004.08,-545.32 1009.48,-549.77"/>
</g>
<!-- lalsimulation&#45;&gt;lalinference -->
<g id="edge31" class="edge">
<title>lalsimulation&#45;&gt;lalinference</title>
<path fill="none" stroke="black" d="M979.79,-659.79C1046.51,-653.22 1140.34,-639.33 1164,-612 1196.06,-574.97 1188.98,-513.38 1181.28,-478.08"/>
<polygon fill="black" stroke="black" points="1184.61,-476.96 1178.91,-468.03 1177.79,-478.56 1184.61,-476.96"/>
</g>
<!-- lalsimulation&#45;&gt;lalapps -->
<g id="edge32" class="edge">
<title>lalsimulation&#45;&gt;lalapps</title>
<path fill="none" stroke="black" d="M911.61,-647.9C915.1,-617.21 925.44,-551.56 953,-504 977.75,-461.29 1020.86,-423.09 1049.66,-400.48"/>
<polygon fill="black" stroke="black" points="1051.96,-403.12 1057.74,-394.24 1047.69,-397.58 1051.96,-403.12"/>
</g>
<!-- lalsimulation&#45;&gt;ligo.skymap -->
<g id="edge33" class="edge">
<title>lalsimulation&#45;&gt;ligo.skymap</title>
<path fill="none" stroke="black" d="M890.47,-648.37C864,-623.85 820,-575.25 820,-523 820,-523 820,-523 820,-449 820,-384.94 891.76,-344.49 942.84,-323.82"/>
<polygon fill="black" stroke="black" points="944.4,-326.97 952.44,-320.06 941.85,-320.45 944.4,-326.97"/>
</g>
<!-- lalsimulation&#45;&gt;bayeswave -->
<g id="edge34" class="edge">
<title>lalsimulation&#45;&gt;bayeswave</title>
<path fill="none" stroke="black" d="M880.63,-649.37C842.84,-626.88 782,-581.58 782,-523 782,-523 782,-523 782,-377 782,-272.11 932.39,-244.52 1021.62,-237.38"/>
<polygon fill="black" stroke="black" points="1021.93,-240.87 1031.65,-236.65 1021.42,-233.89 1021.93,-240.87"/>
</g>
<!-- lalsimulation&#45;&gt;gstlal -->
<g id="edge35" class="edge">
<title>lalsimulation&#45;&gt;gstlal</title>
<path fill="none" stroke="black" d="M898.4,-648.2C892.21,-638.18 885.21,-624.93 882,-612 870.63,-566.13 877.31,-510.7 883.17,-478.3"/>
<polygon fill="black" stroke="black" points="886.66,-478.72 885.1,-468.24 879.78,-477.4 886.66,-478.72"/>
</g>
<!-- lalburst&#45;&gt;lalinspiral -->
<g id="edge36" class="edge">
<title>lalburst&#45;&gt;lalinspiral</title>
<path fill="none" stroke="black" d="M1087.3,-577.12C1077.07,-567.94 1064.03,-556.23 1052.69,-546.06"/>
<polygon fill="black" stroke="black" points="1054.95,-543.38 1045.17,-539.31 1050.28,-548.59 1054.95,-543.38"/>
</g>
<!-- lalburst&#45;&gt;lalinference -->
<g id="edge37" class="edge">
<title>lalburst&#45;&gt;lalinference</title>
<path fill="none" stroke="black" d="M1114.75,-575.99C1120.54,-565.69 1127.93,-552.21 1134,-540 1144.38,-519.14 1155.15,-495.01 1162.9,-477.14"/>
<polygon fill="black" stroke="black" points="1166.13,-478.48 1166.87,-467.91 1159.7,-475.71 1166.13,-478.48"/>
</g>
<!-- lalburst&#45;&gt;lalapps -->
<g id="edge38" class="edge">
<title>lalburst&#45;&gt;lalapps</title>
<path fill="none" stroke="black" d="M1104.6,-575.89C1104.05,-557.94 1102.78,-528.92 1100,-504 1097.93,-485.51 1089.44,-436.93 1083.91,-406.06"/>
<polygon fill="black" stroke="black" points="1087.3,-405.18 1082.09,-395.96 1080.41,-406.42 1087.3,-405.18"/>
</g>
<!-- lalburst&#45;&gt;gstlal -->
<g id="edge39" class="edge">
<title>lalburst&#45;&gt;gstlal</title>
<path fill="none" stroke="black" d="M1061.35,-585.19C1029,-577.74 985.13,-564 953,-540 930.62,-523.29 912.87,-496.49 901.79,-476.66"/>
<polygon fill="black" stroke="black" points="904.86,-474.98 897.04,-467.83 898.7,-478.29 904.86,-474.98"/>
</g>
<!-- lalpulsar&#45;&gt;lalinference -->
<g id="edge40" class="edge">
<title>lalpulsar&#45;&gt;lalinference</title>
<path fill="none" stroke="black" d="M1320.96,-507.83C1292.56,-496.85 1251.81,-481.09 1220.42,-468.95"/>
<polygon fill="black" stroke="black" points="1221.6,-465.65 1211.01,-465.31 1219.07,-472.18 1221.6,-465.65"/>
</g>
<!-- lalpulsar&#45;&gt;lalapps -->
<g id="edge41" class="edge">
<title>lalpulsar&#45;&gt;lalapps</title>
<path fill="none" stroke="black" d="M1346.47,-504.15C1335.35,-483.9 1313.95,-450.35 1286,-432 1239.83,-401.68 1177.33,-388.7 1133.13,-383.15"/>
<polygon fill="black" stroke="black" points="1133.49,-379.67 1123.15,-381.98 1132.67,-386.62 1133.49,-379.67"/>
</g>
<!-- lalinspiral&#45;&gt;lalinference -->
<g id="edge42" class="edge">
<title>lalinspiral&#45;&gt;lalinference</title>
<path fill="none" stroke="black" d="M1058.17,-506.15C1080.05,-495.74 1109.51,-481.71 1133.25,-470.41"/>
<polygon fill="black" stroke="black" points="1134.84,-473.52 1142.36,-466.07 1131.83,-467.2 1134.84,-473.52"/>
</g>
<!-- lalinspiral&#45;&gt;lalapps -->
<g id="edge43" class="edge">
<title>lalinspiral&#45;&gt;lalapps</title>
<path fill="none" stroke="black" d="M1033.27,-503.87C1042.21,-479.46 1058.7,-434.43 1069.25,-405.64"/>
<polygon fill="black" stroke="black" points="1072.55,-406.78 1072.71,-396.19 1065.98,-404.38 1072.55,-406.78"/>
</g>
<!-- lalinspiral&#45;&gt;ligo.skymap -->
<g id="edge44" class="edge">
<title>lalinspiral&#45;&gt;ligo.skymap</title>
<path fill="none" stroke="black" d="M1024.28,-503.85C1018.39,-466.83 1004.47,-379.18 997.35,-334.39"/>
<polygon fill="black" stroke="black" points="1000.76,-333.56 995.74,-324.23 993.85,-334.66 1000.76,-333.56"/>
</g>
<!-- lalinspiral&#45;&gt;gstlal -->
<g id="edge45" class="edge">
<title>lalinspiral&#45;&gt;gstlal</title>
<path fill="none" stroke="black" d="M997.4,-505.98C975.82,-495.04 946.51,-480.17 923.81,-468.66"/>
<polygon fill="black" stroke="black" points="925.34,-465.51 914.84,-464.11 922.17,-471.75 925.34,-465.51"/>
</g>
<!-- lalinference&#45;&gt;lalapps -->
<g id="edge46" class="edge">
<title>lalinference&#45;&gt;lalapps</title>
<path fill="none" stroke="black" d="M1151.97,-432.76C1138.89,-423.13 1122.17,-410.81 1108.03,-400.39"/>
<polygon fill="black" stroke="black" points="1109.74,-397.3 1099.61,-394.19 1105.59,-402.94 1109.74,-397.3"/>
</g>
<!-- lalinference&#45;&gt;bayeswave -->
<g id="edge47" class="edge">
<title>lalinference&#45;&gt;bayeswave</title>
<path fill="none" stroke="black" d="M1166.95,-431.85C1151.59,-394.5 1115.04,-305.63 1096.78,-261.21"/>
<polygon fill="black" stroke="black" points="1100,-259.85 1092.96,-251.94 1093.53,-262.52 1100,-259.85"/>
</g>
<!-- lalapps&#45;&gt;ligo.skymap -->
<g id="edge48" class="edge">
<title>lalapps&#45;&gt;ligo.skymap</title>
<path fill="none" stroke="black" d="M1059.91,-361.46C1048.47,-352.15 1033.7,-340.13 1020.96,-329.76"/>
<polygon fill="black" stroke="black" points="1022.89,-326.82 1012.93,-323.22 1018.48,-332.25 1022.89,-326.82"/>
</g>
<!-- lalapps&#45;&gt;bayeswave -->
<g id="edge49" class="edge">
<title>lalapps&#45;&gt;bayeswave</title>
<path fill="none" stroke="black" d="M1079.84,-359.87C1081.04,-335.67 1083.23,-291.21 1084.65,-262.39"/>
<polygon fill="black" stroke="black" points="1088.16,-262.35 1085.15,-252.19 1081.16,-262 1088.16,-262.35"/>
</g>
<!-- ligo.skymap&#45;&gt;bayeswave -->
<g id="edge50" class="edge">
<title>ligo.skymap&#45;&gt;bayeswave</title>
<path fill="none" stroke="black" d="M1014.57,-288.76C1027.19,-279.27 1043.29,-267.15 1057.01,-256.82"/>
<polygon fill="black" stroke="black" points="1059.3,-259.48 1065.19,-250.67 1055.09,-253.88 1059.3,-259.48"/>
</g>
<!-- nest&#45;simulator -->
<g id="node34" class="node">
<title>nest&#45;simulator</title>
<g id="a_node34"><a xlink:href="https://github.com/conda-forge/nest-simulator-feedstock/pull/43" xlink:title="nest simulator">
<ellipse fill="#31688e" stroke="black" cx="599" cy="-378" rx="79.5" ry="18"/>
<text text-anchor="middle" x="599" y="-374.3" font-family="Times,serif" font-size="14.00" fill="white">nest simulator</text>
</a>
</g>
</g>
<!-- namaster&#45;&gt;nest&#45;simulator -->
<!-- plumed -->
<g id="node38" class="node">
<title>plumed</title>
<g id="a_node38"><a xlink:href="https://github.com/conda-forge/plumed-feedstock/pull/12" xlink:title="plumed">
<ellipse fill="#31688e" stroke="black" cx="599" cy="-306" rx="40.5" ry="18"/>
<text text-anchor="middle" x="599" y="-302.3" font-family="Times,serif" font-size="14.00" fill="white">plumed</text>
</a>
</g>
</g>
<!-- nest&#45;simulator&#45;&gt;plumed -->
<!-- root -->
<g id="node35" class="node">
<title>root</title>
<g id="a_node35"><a xlink:href="https://github.com/conda-forge/root-feedstock/pull/78" xlink:title="root">
<ellipse fill="#31688e" stroke="black" cx="1555" cy="-738" rx="30.59" ry="18"/>
<text text-anchor="middle" x="1555" y="-734.3" font-family="Times,serif" font-size="14.00" fill="white">root</text>
</a>
</g>
</g>
<!-- ostaphep -->
<g id="node36" class="node">
<title>ostaphep</title>
<ellipse fill="#fde725" stroke="black" cx="1516" cy="-666" rx="50.09" ry="18"/>
<text text-anchor="middle" x="1516" y="-662.3" font-family="Times,serif" font-size="14.00">ostaphep</text>
</g>
<!-- root&#45;&gt;ostaphep -->
<g id="edge53" class="edge">
<title>root&#45;&gt;ostaphep</title>
<path fill="none" stroke="black" d="M1545.95,-720.76C1541.36,-712.53 1535.68,-702.32 1530.49,-693.02"/>
<polygon fill="black" stroke="black" points="1533.47,-691.16 1525.54,-684.12 1527.35,-694.56 1533.47,-691.16"/>
</g>
<!-- gwollum -->
<g id="node37" class="node">
<title>gwollum</title>
<ellipse fill="#fde725" stroke="black" cx="1594" cy="-594" rx="45" ry="18"/>
<text text-anchor="middle" x="1594" y="-590.3" font-family="Times,serif" font-size="14.00">gwollum</text>
</g>
<!-- root&#45;&gt;gwollum -->
<g id="edge54" class="edge">
<title>root&#45;&gt;gwollum</title>
<path fill="none" stroke="black" d="M1562.15,-720.04C1566.3,-709.74 1571.4,-696.27 1575,-684 1581,-663.57 1585.95,-639.98 1589.29,-622.22"/>
<polygon fill="black" stroke="black" points="1592.76,-622.72 1591.11,-612.25 1585.87,-621.46 1592.76,-622.72"/>
</g>
<!-- dakota -->
<g id="node39" class="node">
<title>dakota</title>
<g id="a_node39"><a xlink:href="https://github.com/conda-forge/dakota-feedstock/pull/12" xlink:title="dakota">
<ellipse fill="#31688e" stroke="black" cx="599" cy="-234" rx="40.5" ry="18"/>
<text text-anchor="middle" x="599" y="-230.3" font-family="Times,serif" font-size="14.00" fill="white">dakota</text>
</a>
</g>
</g>
<!-- plumed&#45;&gt;dakota -->
<!-- ale -->
<g id="node40" class="node">
<title>ale</title>
<g id="a_node40"><a xlink:href="https://github.com/conda-forge/ale-feedstock/pull/17" xlink:title="ale">
<ellipse fill="#31688e" stroke="black" cx="599" cy="-162" rx="27" ry="18"/>
<text text-anchor="middle" x="599" y="-158.3" font-family="Times,serif" font-size="14.00" fill="white">ale</text>
</a>
</g>
</g>
<!-- dakota&#45;&gt;ale -->
<!-- astrometry -->
<g id="node41" class="node">
<title>astrometry</title>
<g id="a_node41"><a xlink:href="https://github.com/conda-forge/astrometry-feedstock/pull/3" xlink:title="astrometry">
<ellipse fill="#31688e" stroke="black" cx="599" cy="-90" rx="60" ry="18"/>
<text text-anchor="middle" x="599" y="-86.3" font-family="Times,serif" font-size="14.00" fill="white">astrometry</text>
</a>
</g>
</g>
<!-- ale&#45;&gt;astrometry -->
<!-- pyinterp -->
<g id="node42" class="node">
<title>pyinterp</title>
<g id="a_node42"><a xlink:href="https://github.com/conda-forge/pyinterp-feedstock/pull/13" xlink:title="pyinterp">
<ellipse fill="#31688e" stroke="black" cx="599" cy="-18" rx="50.09" ry="18"/>
<text text-anchor="middle" x="599" y="-14.3" font-family="Times,serif" font-size="14.00" fill="white">pyinterp</text>
</a>
</g>
</g>
<!-- astrometry&#45;&gt;pyinterp -->
<!-- pyccl -->
<g id="node43" class="node">
<title>pyccl</title>
<g id="a_node43"><a xlink:href="https://github.com/conda-forge/pyccl-feedstock/pull/13" xlink:title="pyccl">
<ellipse fill="#31688e" stroke="black" cx="1707" cy="-738" rx="35.19" ry="18"/>
<text text-anchor="middle" x="1707" y="-734.3" font-family="Times,serif" font-size="14.00" fill="white">pyccl</text>
</a>
</g>
</g>
<!-- lintegrate -->
<g id="node44" class="node">
<title>lintegrate</title>
<g id="a_node44"><a xlink:href="https://github.com/conda-forge/lintegrate-feedstock/pull/5" xlink:title="lintegrate">
<ellipse fill="#31688e" stroke="black" cx="1707" cy="-666" rx="60" ry="18"/>
<text text-anchor="middle" x="1707" y="-662.3" font-family="Times,serif" font-size="14.00" fill="white">lintegrate</text>
</a>
</g>
</g>
<!-- pyccl&#45;&gt;lintegrate -->
<!-- corrfunc -->
<g id="node45" class="node">
<title>corrfunc</title>
<g id="a_node45"><a xlink:href="https://github.com/conda-forge/corrfunc-feedstock/pull/13" xlink:title="corrfunc">
<ellipse fill="#31688e" stroke="black" cx="1707" cy="-594" rx="50.09" ry="18"/>
<text text-anchor="middle" x="1707" y="-590.3" font-family="Times,serif" font-size="14.00" fill="white">corrfunc</text>
</a>
</g>
</g>
<!-- lintegrate&#45;&gt;corrfunc -->
<!-- gnuradio -->
<g id="node46" class="node">
<title>gnuradio</title>
<g id="a_node46"><a xlink:href="https://github.com/conda-forge/gnuradio-feedstock/pull/5" xlink:title="gnuradio">
<ellipse fill="#31688e" stroke="black" cx="1707" cy="-522" rx="50.09" ry="18"/>
<text text-anchor="middle" x="1707" y="-518.3" font-family="Times,serif" font-size="14.00" fill="white">gnuradio</text>
</a>
</g>
</g>
<!-- corrfunc&#45;&gt;gnuradio -->
<!-- ecell4_base -->
<g id="node47" class="node">
<title>ecell4_base</title>
<g id="a_node47"><a xlink:href="https://github.com/conda-forge/ecell4_base-feedstock/pull/3" xlink:title="ecell4_base">
<ellipse fill="#31688e" stroke="black" cx="1707" cy="-450" rx="64.5" ry="18"/>
<text text-anchor="middle" x="1707" y="-446.3" font-family="Times,serif" font-size="14.00" fill="white">ecell4_base</text>
</a>
</g>
</g>
<!-- gnuradio&#45;&gt;ecell4_base -->
<!-- gwsurrogate -->
<g id="node48" class="node">
<title>gwsurrogate</title>
<g id="a_node48"><a xlink:href="https://github.com/conda-forge/gwsurrogate-feedstock/pull/6" xlink:title="gwsurrogate">
<ellipse fill="#31688e" stroke="black" cx="1707" cy="-378" rx="64.5" ry="18"/>
<text text-anchor="middle" x="1707" y="-374.3" font-family="Times,serif" font-size="14.00" fill="white">gwsurrogate</text>
</a>
</g>
</g>
<!-- ecell4_base&#45;&gt;gwsurrogate -->
</g>
</svg>
