<?xml version="1.0" encoding="UTF-8" standalone="no"?>
<!DOCTYPE svg PUBLIC "-//W3C//DTD SVG 1.1//EN"
 "http://www.w3.org/Graphics/SVG/1.1/DTD/svg11.dtd">
<!-- Generated by graphviz version 2.42.3 (20191010.1750)
 -->
<!-- Title: %3 Pages: 1 -->
<svg width="1797pt" height="764pt"
 viewBox="0.00 0.00 1796.50 764.00" xmlns="http://www.w3.org/2000/svg" xmlns:xlink="http://www.w3.org/1999/xlink">
<g id="graph0" class="graph" transform="scale(1 1) rotate(0) translate(4 760)">
<title>%3</title>
<polygon fill="white" stroke="transparent" points="-4,4 -4,-760 1792.5,-760 1792.5,4 -4,4"/>
<!-- astro&#45;gala -->
<g id="node1" class="node">
<title>astro&#45;gala</title>
<ellipse fill="#35b779" stroke="black" cx="60" cy="-738" rx="60" ry="18"/>
<text text-anchor="middle" x="60" y="-734.3" font-family="Times,serif" font-size="14.00">astro gala</text>
</g>
<!-- cvxopt -->
<g id="node2" class="node">
<title>cvxopt</title>
<ellipse fill="#35b779" stroke="black" cx="60" cy="-666" rx="40.5" ry="18"/>
<text text-anchor="middle" x="60" y="-662.3" font-family="Times,serif" font-size="14.00">cvxopt</text>
</g>
<!-- astro&#45;gala&#45;&gt;cvxopt -->
<!-- galpy -->
<g id="node3" class="node">
<title>galpy</title>
<ellipse fill="#35b779" stroke="black" cx="60" cy="-594" rx="35.19" ry="18"/>
<text text-anchor="middle" x="60" y="-590.3" font-family="Times,serif" font-size="14.00">galpy</text>
</g>
<!-- cvxopt&#45;&gt;galpy -->
<!-- giac -->
<g id="node6" class="node">
<title>giac</title>
<ellipse fill="#35b779" stroke="black" cx="60" cy="-522" rx="30.59" ry="18"/>
<text text-anchor="middle" x="60" y="-518.3" font-family="Times,serif" font-size="14.00">giac</text>
</g>
<!-- galpy&#45;&gt;giac -->
<!-- cythongsl -->
<g id="node4" class="node">
<title>cythongsl</title>
<ellipse fill="#35b779" stroke="black" cx="193" cy="-738" rx="54.69" ry="18"/>
<text text-anchor="middle" x="193" y="-734.3" font-family="Times,serif" font-size="14.00">cythongsl</text>
</g>
<!-- slda -->
<g id="node5" class="node">
<title>slda</title>
<ellipse fill="#fde725" stroke="black" cx="193" cy="-666" rx="30.59" ry="18"/>
<text text-anchor="middle" x="193" y="-662.3" font-family="Times,serif" font-size="14.00">slda</text>
</g>
<!-- cythongsl&#45;&gt;slda -->
<g id="edge3" class="edge">
<title>cythongsl&#45;&gt;slda</title>
<path fill="none" stroke="black" d="M193,-719.7C193,-711.98 193,-702.71 193,-694.11"/>
<polygon fill="black" stroke="black" points="196.5,-694.1 193,-684.1 189.5,-694.1 196.5,-694.1"/>
</g>
<!-- libdiffpy -->
<g id="node7" class="node">
<title>libdiffpy</title>
<ellipse fill="#35b779" stroke="black" cx="60" cy="-450" rx="54.69" ry="18"/>
<text text-anchor="middle" x="60" y="-446.3" font-family="Times,serif" font-size="14.00">libdiffpy</text>
</g>
<!-- giac&#45;&gt;libdiffpy -->
<!-- ncl -->
<g id="node8" class="node">
<title>ncl</title>
<ellipse fill="#35b779" stroke="black" cx="60" cy="-378" rx="27" ry="18"/>
<text text-anchor="middle" x="60" y="-374.3" font-family="Times,serif" font-size="14.00">ncl</text>
</g>
<!-- libdiffpy&#45;&gt;ncl -->
<!-- nco -->
<g id="node9" class="node">
<title>nco</title>
<ellipse fill="#35b779" stroke="black" cx="60" cy="-306" rx="27" ry="18"/>
<text text-anchor="middle" x="60" y="-302.3" font-family="Times,serif" font-size="14.00">nco</text>
</g>
<!-- ncl&#45;&gt;nco -->
<!-- qgis -->
<g id="node10" class="node">
<title>qgis</title>
<ellipse fill="#fde725" stroke="black" cx="60" cy="-234" rx="30.59" ry="18"/>
<text text-anchor="middle" x="60" y="-230.3" font-family="Times,serif" font-size="14.00">qgis</text>
</g>
<!-- nco&#45;&gt;qgis -->
<!-- root5 -->
<g id="node11" class="node">
<title>root5</title>
<ellipse fill="#35b779" stroke="black" cx="60" cy="-162" rx="35.19" ry="18"/>
<text text-anchor="middle" x="60" y="-158.3" font-family="Times,serif" font-size="14.00">root5</text>
</g>
<!-- qgis&#45;&gt;root5 -->
<!-- rsgislib -->
<g id="node17" class="node">
<title>rsgislib</title>
<ellipse fill="#35b779" stroke="black" cx="60" cy="-90" rx="50.09" ry="18"/>
<text text-anchor="middle" x="60" y="-86.3" font-family="Times,serif" font-size="14.00">rsgislib</text>
</g>
<!-- root5&#45;&gt;rsgislib -->
<!-- r&#45;base -->
<g id="node12" class="node">
<title>r&#45;base</title>
<g id="a_node12"><a xlink:href="https://github.com/conda-forge/r-base-feedstock/pull/115" xlink:title="r base">
<ellipse fill="#31688e" stroke="black" cx="363" cy="-738" rx="40.5" ry="18"/>
<text text-anchor="middle" x="363" y="-734.3" font-family="Times,serif" font-size="14.00" fill="white">r base</text>
</a>
</g>
</g>
<!-- r&#45;gsl -->
<g id="node13" class="node">
<title>r&#45;gsl</title>
<ellipse fill="#fde725" stroke="black" cx="277" cy="-666" rx="35.19" ry="18"/>
<text text-anchor="middle" x="277" y="-662.3" font-family="Times,serif" font-size="14.00">r gsl</text>
</g>
<!-- r&#45;base&#45;&gt;r&#45;gsl -->
<g id="edge10" class="edge">
<title>r&#45;base&#45;&gt;r&#45;gsl</title>
<path fill="none" stroke="black" d="M344.34,-721.81C332.23,-711.95 316.28,-698.97 302.94,-688.12"/>
<polygon fill="black" stroke="black" points="305,-685.28 295.03,-681.68 300.58,-690.71 305,-685.28"/>
</g>
<!-- r&#45;rcppgsl -->
<g id="node14" class="node">
<title>r&#45;rcppgsl</title>
<ellipse fill="#fde725" stroke="black" cx="383" cy="-594" rx="54.69" ry="18"/>
<text text-anchor="middle" x="383" y="-590.3" font-family="Times,serif" font-size="14.00">r rcppgsl</text>
</g>
<!-- r&#45;base&#45;&gt;r&#45;rcppgsl -->
<g id="edge11" class="edge">
<title>r&#45;base&#45;&gt;r&#45;rcppgsl</title>
<path fill="none" stroke="black" d="M365.41,-719.87C368.82,-695.67 375.08,-651.21 379.14,-622.39"/>
<polygon fill="black" stroke="black" points="382.65,-622.58 380.58,-612.19 375.72,-621.6 382.65,-622.58"/>
</g>
<!-- r&#45;topicmodels -->
<g id="node15" class="node">
<title>r&#45;topicmodels</title>
<ellipse fill="#fde725" stroke="black" cx="466" cy="-522" rx="74.19" ry="18"/>
<text text-anchor="middle" x="466" y="-518.3" font-family="Times,serif" font-size="14.00">r topicmodels</text>
</g>
<!-- r&#45;base&#45;&gt;r&#45;topicmodels -->
<g id="edge12" class="edge">
<title>r&#45;base&#45;&gt;r&#45;topicmodels</title>
<path fill="none" stroke="black" d="M376.9,-720.81C395.7,-698.05 428.94,-654.61 447,-612 455.36,-592.27 460.2,-568.47 462.9,-550.44"/>
<polygon fill="black" stroke="black" points="466.39,-550.7 464.28,-540.32 459.46,-549.75 466.39,-550.7"/>
</g>
<!-- r&#45;aws -->
<g id="node16" class="node">
<title>r&#45;aws</title>
<ellipse fill="#fde725" stroke="black" cx="275" cy="-594" rx="35.19" ry="18"/>
<text text-anchor="middle" x="275" y="-590.3" font-family="Times,serif" font-size="14.00">r aws</text>
</g>
<!-- r&#45;base&#45;&gt;r&#45;aws -->
<g id="edge13" class="edge">
<title>r&#45;base&#45;&gt;r&#45;aws</title>
<path fill="none" stroke="black" d="M356.69,-720.21C349.4,-701.76 336.4,-671.61 321,-648 314.1,-637.42 305.25,-626.72 297.16,-617.73"/>
<polygon fill="black" stroke="black" points="299.66,-615.29 290.31,-610.32 294.52,-620.04 299.66,-615.29"/>
</g>
<!-- r&#45;gsl&#45;&gt;r&#45;aws -->
<g id="edge14" class="edge">
<title>r&#45;gsl&#45;&gt;r&#45;aws</title>
<path fill="none" stroke="black" d="M276.51,-647.7C276.29,-639.98 276.02,-630.71 275.77,-622.11"/>
<polygon fill="black" stroke="black" points="279.27,-622 275.49,-612.1 272.28,-622.2 279.27,-622"/>
</g>
<!-- sagelib -->
<g id="node18" class="node">
<title>sagelib</title>
<ellipse fill="#35b779" stroke="black" cx="60" cy="-18" rx="45" ry="18"/>
<text text-anchor="middle" x="60" y="-14.3" font-family="Times,serif" font-size="14.00">sagelib</text>
</g>
<!-- rsgislib&#45;&gt;sagelib -->
<!-- msprime -->
<g id="node19" class="node">
<title>msprime</title>
<ellipse fill="#35b779" stroke="black" cx="623" cy="-738" rx="45" ry="18"/>
<text text-anchor="middle" x="623" y="-734.3" font-family="Times,serif" font-size="14.00">msprime</text>
</g>
<!-- spdlib -->
<g id="node20" class="node">
<title>spdlib</title>
<ellipse fill="#35b779" stroke="black" cx="623" cy="-666" rx="40.5" ry="18"/>
<text text-anchor="middle" x="623" y="-662.3" font-family="Times,serif" font-size="14.00">spdlib</text>
</g>
<!-- msprime&#45;&gt;spdlib -->
<!-- numcosmo -->
<g id="node21" class="node">
<title>numcosmo</title>
<ellipse fill="#35b779" stroke="black" cx="623" cy="-594" rx="50.09" ry="18"/>
<text text-anchor="middle" x="623" y="-590.3" font-family="Times,serif" font-size="14.00">numcosmo</text>
</g>
<!-- spdlib&#45;&gt;numcosmo -->
<!-- pygslodeiv2 -->
<g id="node22" class="node">
<title>pygslodeiv2</title>
<ellipse fill="#35b779" stroke="black" cx="623" cy="-522" rx="64.5" ry="18"/>
<text text-anchor="middle" x="623" y="-518.3" font-family="Times,serif" font-size="14.00">pygslodeiv2</text>
</g>
<!-- numcosmo&#45;&gt;pygslodeiv2 -->
<!-- pymeep -->
<g id="node23" class="node">
<title>pymeep</title>
<ellipse fill="#35b779" stroke="black" cx="623" cy="-450" rx="40.5" ry="18"/>
<text text-anchor="middle" x="623" y="-446.3" font-family="Times,serif" font-size="14.00">pymeep</text>
</g>
<!-- pygslodeiv2&#45;&gt;pymeep -->
<!-- namaster -->
<g id="node34" class="node">
<title>namaster</title>
<ellipse fill="#35b779" stroke="black" cx="623" cy="-378" rx="50.09" ry="18"/>
<text text-anchor="middle" x="623" y="-374.3" font-family="Times,serif" font-size="14.00">namaster</text>
</g>
<!-- pymeep&#45;&gt;namaster -->
<!-- lal -->
<g id="node24" class="node">
<title>lal</title>
<g id="a_node24"><a xlink:href="https://github.com/conda-forge/lal-feedstock/pull/35" xlink:title="lal">
<ellipse fill="#31688e" stroke="black" cx="1115" cy="-738" rx="27" ry="18"/>
<text text-anchor="middle" x="1115" y="-734.3" font-family="Times,serif" font-size="14.00" fill="white">lal</text>
</a>
</g>
</g>
<!-- lalsimulation -->
<g id="node25" class="node">
<title>lalsimulation</title>
<ellipse fill="#fde725" stroke="black" cx="920" cy="-666" rx="74.19" ry="18"/>
<text text-anchor="middle" x="920" y="-662.3" font-family="Times,serif" font-size="14.00">lalsimulation</text>
</g>
<!-- lal&#45;&gt;lalsimulation -->
<g id="edge21" class="edge">
<title>lal&#45;&gt;lalsimulation</title>
<path fill="none" stroke="black" d="M1091.87,-728.7C1061.82,-717.91 1008.6,-698.8 969.31,-684.7"/>
<polygon fill="black" stroke="black" points="970.24,-681.32 959.65,-681.23 967.88,-687.91 970.24,-681.32"/>
</g>
<!-- lalburst -->
<g id="node26" class="node">
<title>lalburst</title>
<ellipse fill="#fde725" stroke="black" cx="1115" cy="-594" rx="50.09" ry="18"/>
<text text-anchor="middle" x="1115" y="-590.3" font-family="Times,serif" font-size="14.00">lalburst</text>
</g>
<!-- lal&#45;&gt;lalburst -->
<g id="edge22" class="edge">
<title>lal&#45;&gt;lalburst</title>
<path fill="none" stroke="black" d="M1115,-719.87C1115,-695.67 1115,-651.21 1115,-622.39"/>
<polygon fill="black" stroke="black" points="1118.5,-622.19 1115,-612.19 1111.5,-622.19 1118.5,-622.19"/>
</g>
<!-- lalpulsar -->
<g id="node27" class="node">
<title>lalpulsar</title>
<ellipse fill="#fde725" stroke="black" cx="1365" cy="-522" rx="54.69" ry="18"/>
<text text-anchor="middle" x="1365" y="-518.3" font-family="Times,serif" font-size="14.00">lalpulsar</text>
</g>
<!-- lal&#45;&gt;lalpulsar -->
<g id="edge23" class="edge">
<title>lal&#45;&gt;lalpulsar</title>
<path fill="none" stroke="black" d="M1142.05,-736.08C1180.73,-733.36 1252.02,-722.99 1296,-684 1335.9,-648.62 1353.51,-586.17 1360.65,-550.33"/>
<polygon fill="black" stroke="black" points="1364.16,-550.59 1362.54,-540.12 1357.28,-549.32 1364.16,-550.59"/>
</g>
<!-- lalinspiral -->
<g id="node28" class="node">
<title>lalinspiral</title>
<ellipse fill="#fde725" stroke="black" cx="1037" cy="-522" rx="64.5" ry="18"/>
<text text-anchor="middle" x="1037" y="-518.3" font-family="Times,serif" font-size="14.00">lalinspiral</text>
</g>
<!-- lal&#45;&gt;lalinspiral -->
<g id="edge24" class="edge">
<title>lal&#45;&gt;lalinspiral</title>
<path fill="none" stroke="black" d="M1105.93,-720.92C1093.11,-697.6 1069.74,-652.7 1056,-612 1049.14,-591.7 1044.22,-567.93 1041.11,-550.06"/>
<polygon fill="black" stroke="black" points="1044.53,-549.33 1039.44,-540.04 1037.63,-550.48 1044.53,-549.33"/>
</g>
<!-- lalinference -->
<g id="node29" class="node">
<title>lalinference</title>
<ellipse fill="#fde725" stroke="black" cx="1184" cy="-450" rx="69.59" ry="18"/>
<text text-anchor="middle" x="1184" y="-446.3" font-family="Times,serif" font-size="14.00">lalinference</text>
</g>
<!-- lal&#45;&gt;lalinference -->
<g id="edge25" class="edge">
<title>lal&#45;&gt;lalinference</title>
<path fill="none" stroke="black" d="M1127.98,-721.99C1146.58,-699.63 1180.5,-655.5 1198,-612 1216.04,-567.15 1222.28,-551.01 1211,-504 1208.76,-494.66 1204.58,-485.11 1200.17,-476.74"/>
<polygon fill="black" stroke="black" points="1203.13,-474.87 1195.19,-467.86 1197.03,-478.29 1203.13,-474.87"/>
</g>
<!-- lalapps -->
<g id="node30" class="node">
<title>lalapps</title>
<ellipse fill="#fde725" stroke="black" cx="1089" cy="-378" rx="45" ry="18"/>
<text text-anchor="middle" x="1089" y="-374.3" font-family="Times,serif" font-size="14.00">lalapps</text>
</g>
<!-- lal&#45;&gt;lalapps -->
<g id="edge26" class="edge">
<title>lal&#45;&gt;lalapps</title>
<path fill="none" stroke="black" d="M1138.93,-729.3C1185.1,-712.76 1282,-669.21 1282,-595 1282,-595 1282,-595 1282,-521 1282,-480.55 1290.35,-461.79 1263,-432 1232.71,-399.01 1182.58,-386.31 1143.88,-381.54"/>
<polygon fill="black" stroke="black" points="1144.13,-378.04 1133.81,-380.44 1143.37,-385 1144.13,-378.04"/>
</g>
<!-- ligo.skymap -->
<g id="node31" class="node">
<title>ligo.skymap</title>
<ellipse fill="#fde725" stroke="black" cx="1000" cy="-306" rx="64.5" ry="18"/>
<text text-anchor="middle" x="1000" y="-302.3" font-family="Times,serif" font-size="14.00">ligo skymap</text>
</g>
<!-- lal&#45;&gt;ligo.skymap -->
<g id="edge27" class="edge">
<title>lal&#45;&gt;ligo.skymap</title>
<path fill="none" stroke="black" d="M1088.03,-736.99C1033.89,-735.96 909.3,-728.49 817,-684 763.1,-658.02 716,-654.83 716,-595 716,-595 716,-595 716,-449 716,-354.31 843.86,-322.76 927.99,-312.25"/>
<polygon fill="black" stroke="black" points="928.5,-315.71 938.03,-311.07 927.69,-308.76 928.5,-315.71"/>
</g>
<!-- bayeswave -->
<g id="node32" class="node">
<title>bayeswave</title>
<ellipse fill="#fde725" stroke="black" cx="1093" cy="-234" rx="54.69" ry="18"/>
<text text-anchor="middle" x="1093" y="-230.3" font-family="Times,serif" font-size="14.00">bayeswave</text>
</g>
<!-- lal&#45;&gt;bayeswave -->
<g id="edge28" class="edge">
<title>lal&#45;&gt;bayeswave</title>
<path fill="none" stroke="black" d="M1142.25,-737.67C1221.78,-738.09 1448,-727.61 1448,-595 1448,-595 1448,-595 1448,-377 1448,-313.55 1250.01,-265.67 1149.75,-245.5"/>
<polygon fill="black" stroke="black" points="1150.27,-242.03 1139.78,-243.52 1148.9,-248.9 1150.27,-242.03"/>
</g>
<!-- gstlal -->
<g id="node33" class="node">
<title>gstlal</title>
<ellipse fill="#fde725" stroke="black" cx="899" cy="-450" rx="40.5" ry="18"/>
<text text-anchor="middle" x="899" y="-446.3" font-family="Times,serif" font-size="14.00">gstlal</text>
</g>
<!-- lal&#45;&gt;gstlal -->
<g id="edge29" class="edge">
<title>lal&#45;&gt;gstlal</title>
<path fill="none" stroke="black" d="M1087.81,-736.05C1024.2,-733.18 868.71,-722.33 837,-684 785.61,-621.89 846.63,-521.36 880.01,-475.37"/>
<polygon fill="black" stroke="black" points="882.94,-477.3 886.09,-467.19 877.32,-473.13 882.94,-477.3"/>
</g>
<!-- lalsimulation&#45;&gt;lalburst -->
<g id="edge30" class="edge">
<title>lalsimulation&#45;&gt;lalburst</title>
<path fill="none" stroke="black" d="M959.93,-650.67C992.38,-639.02 1038.09,-622.61 1071.48,-610.62"/>
<polygon fill="black" stroke="black" points="1072.75,-613.89 1080.98,-607.21 1070.38,-607.3 1072.75,-613.89"/>
</g>
<!-- lalsimulation&#45;&gt;lalinspiral -->
<g id="edge31" class="edge">
<title>lalsimulation&#45;&gt;lalinspiral</title>
<path fill="none" stroke="black" d="M933.88,-648.15C954.38,-623.28 992.86,-576.57 1016.58,-547.79"/>
<polygon fill="black" stroke="black" points="1019.48,-549.77 1023.14,-539.82 1014.08,-545.32 1019.48,-549.77"/>
</g>
<!-- lalsimulation&#45;&gt;lalinference -->
<g id="edge32" class="edge">
<title>lalsimulation&#45;&gt;lalinference</title>
<path fill="none" stroke="black" d="M989.79,-659.79C1056.51,-653.22 1150.34,-639.33 1174,-612 1206.06,-574.97 1198.98,-513.38 1191.28,-478.08"/>
<polygon fill="black" stroke="black" points="1194.61,-476.96 1188.91,-468.03 1187.79,-478.56 1194.61,-476.96"/>
</g>
<!-- lalsimulation&#45;&gt;lalapps -->
<g id="edge33" class="edge">
<title>lalsimulation&#45;&gt;lalapps</title>
<path fill="none" stroke="black" d="M921.61,-647.9C925.1,-617.21 935.44,-551.56 963,-504 987.75,-461.29 1030.86,-423.09 1059.66,-400.48"/>
<polygon fill="black" stroke="black" points="1061.96,-403.12 1067.74,-394.24 1057.69,-397.58 1061.96,-403.12"/>
</g>
<!-- lalsimulation&#45;&gt;ligo.skymap -->
<g id="edge34" class="edge">
<title>lalsimulation&#45;&gt;ligo.skymap</title>
<path fill="none" stroke="black" d="M900.47,-648.37C874,-623.85 830,-575.25 830,-523 830,-523 830,-523 830,-449 830,-385.6 900.51,-344.96 950.71,-324.07"/>
<polygon fill="black" stroke="black" points="952.17,-327.25 960.14,-320.27 949.56,-320.76 952.17,-327.25"/>
</g>
<!-- lalsimulation&#45;&gt;bayeswave -->
<g id="edge35" class="edge">
<title>lalsimulation&#45;&gt;bayeswave</title>
<path fill="none" stroke="black" d="M890.63,-649.37C852.84,-626.88 792,-581.58 792,-523 792,-523 792,-523 792,-377 792,-273.21 940.21,-245.16 1028.63,-237.66"/>
<polygon fill="black" stroke="black" points="1029.14,-241.13 1038.84,-236.86 1028.6,-234.15 1029.14,-241.13"/>
</g>
<!-- lalsimulation&#45;&gt;gstlal -->
<g id="edge36" class="edge">
<title>lalsimulation&#45;&gt;gstlal</title>
<path fill="none" stroke="black" d="M908.4,-648.2C902.21,-638.18 895.21,-624.93 892,-612 880.63,-566.13 887.31,-510.7 893.17,-478.3"/>
<polygon fill="black" stroke="black" points="896.66,-478.72 895.1,-468.24 889.78,-477.4 896.66,-478.72"/>
</g>
<!-- lalburst&#45;&gt;lalinspiral -->
<g id="edge37" class="edge">
<title>lalburst&#45;&gt;lalinspiral</title>
<path fill="none" stroke="black" d="M1097.3,-577.12C1087.07,-567.94 1074.03,-556.23 1062.69,-546.06"/>
<polygon fill="black" stroke="black" points="1064.95,-543.38 1055.17,-539.31 1060.28,-548.59 1064.95,-543.38"/>
</g>
<!-- lalburst&#45;&gt;lalinference -->
<g id="edge38" class="edge">
<title>lalburst&#45;&gt;lalinference</title>
<path fill="none" stroke="black" d="M1124.75,-575.99C1130.54,-565.69 1137.93,-552.21 1144,-540 1154.38,-519.14 1165.15,-495.01 1172.9,-477.14"/>
<polygon fill="black" stroke="black" points="1176.13,-478.48 1176.87,-467.91 1169.7,-475.71 1176.13,-478.48"/>
</g>
<!-- lalburst&#45;&gt;lalapps -->
<g id="edge39" class="edge">
<title>lalburst&#45;&gt;lalapps</title>
<path fill="none" stroke="black" d="M1114.6,-575.89C1114.05,-557.94 1112.78,-528.92 1110,-504 1107.93,-485.51 1099.44,-436.93 1093.91,-406.06"/>
<polygon fill="black" stroke="black" points="1097.3,-405.18 1092.09,-395.96 1090.41,-406.42 1097.3,-405.18"/>
</g>
<!-- lalburst&#45;&gt;gstlal -->
<g id="edge40" class="edge">
<title>lalburst&#45;&gt;gstlal</title>
<path fill="none" stroke="black" d="M1071.35,-585.19C1039,-577.74 995.13,-564 963,-540 940.62,-523.29 922.87,-496.49 911.79,-476.66"/>
<polygon fill="black" stroke="black" points="914.86,-474.98 907.04,-467.83 908.7,-478.29 914.86,-474.98"/>
</g>
<!-- lalpulsar&#45;&gt;lalinference -->
<g id="edge41" class="edge">
<title>lalpulsar&#45;&gt;lalinference</title>
<path fill="none" stroke="black" d="M1330.96,-507.83C1302.56,-496.85 1261.81,-481.09 1230.42,-468.95"/>
<polygon fill="black" stroke="black" points="1231.6,-465.65 1221.01,-465.31 1229.07,-472.18 1231.6,-465.65"/>
</g>
<!-- lalpulsar&#45;&gt;lalapps -->
<g id="edge42" class="edge">
<title>lalpulsar&#45;&gt;lalapps</title>
<path fill="none" stroke="black" d="M1356.47,-504.15C1345.35,-483.9 1323.95,-450.35 1296,-432 1249.83,-401.68 1187.33,-388.7 1143.13,-383.15"/>
<polygon fill="black" stroke="black" points="1143.49,-379.67 1133.15,-381.98 1142.67,-386.62 1143.49,-379.67"/>
</g>
<!-- lalinspiral&#45;&gt;lalinference -->
<g id="edge43" class="edge">
<title>lalinspiral&#45;&gt;lalinference</title>
<path fill="none" stroke="black" d="M1068.17,-506.15C1090.05,-495.74 1119.51,-481.71 1143.25,-470.41"/>
<polygon fill="black" stroke="black" points="1144.84,-473.52 1152.36,-466.07 1141.83,-467.2 1144.84,-473.52"/>
</g>
<!-- lalinspiral&#45;&gt;lalapps -->
<g id="edge44" class="edge">
<title>lalinspiral&#45;&gt;lalapps</title>
<path fill="none" stroke="black" d="M1043.27,-503.87C1052.21,-479.46 1068.7,-434.43 1079.25,-405.64"/>
<polygon fill="black" stroke="black" points="1082.55,-406.78 1082.71,-396.19 1075.98,-404.38 1082.55,-406.78"/>
</g>
<!-- lalinspiral&#45;&gt;ligo.skymap -->
<g id="edge45" class="edge">
<title>lalinspiral&#45;&gt;ligo.skymap</title>
<path fill="none" stroke="black" d="M1034.03,-503.85C1027.62,-466.75 1012.42,-378.81 1004.69,-334.1"/>
<polygon fill="black" stroke="black" points="1008.13,-333.49 1002.98,-324.23 1001.23,-334.68 1008.13,-333.49"/>
</g>
<!-- lalinspiral&#45;&gt;gstlal -->
<g id="edge46" class="edge">
<title>lalinspiral&#45;&gt;gstlal</title>
<path fill="none" stroke="black" d="M1007.4,-505.98C985.82,-495.04 956.51,-480.17 933.81,-468.66"/>
<polygon fill="black" stroke="black" points="935.34,-465.51 924.84,-464.11 932.17,-471.75 935.34,-465.51"/>
</g>
<!-- lalinference&#45;&gt;lalapps -->
<g id="edge47" class="edge">
<title>lalinference&#45;&gt;lalapps</title>
<path fill="none" stroke="black" d="M1161.97,-432.76C1148.89,-423.13 1132.17,-410.81 1118.03,-400.39"/>
<polygon fill="black" stroke="black" points="1119.74,-397.3 1109.61,-394.19 1115.59,-402.94 1119.74,-397.3"/>
</g>
<!-- lalinference&#45;&gt;bayeswave -->
<g id="edge48" class="edge">
<title>lalinference&#45;&gt;bayeswave</title>
<path fill="none" stroke="black" d="M1176.71,-431.85C1160.83,-394.5 1123.03,-305.63 1104.15,-261.21"/>
<polygon fill="black" stroke="black" points="1107.34,-259.77 1100.2,-251.94 1100.89,-262.51 1107.34,-259.77"/>
</g>
<!-- lalapps&#45;&gt;ligo.skymap -->
<g id="edge49" class="edge">
<title>lalapps&#45;&gt;ligo.skymap</title>
<path fill="none" stroke="black" d="M1069.25,-361.46C1057.29,-352.06 1041.83,-339.9 1028.56,-329.46"/>
<polygon fill="black" stroke="black" points="1030.65,-326.65 1020.62,-323.22 1026.32,-332.15 1030.65,-326.65"/>
</g>
<!-- lalapps&#45;&gt;bayeswave -->
<g id="edge50" class="edge">
<title>lalapps&#45;&gt;bayeswave</title>
<path fill="none" stroke="black" d="M1089.48,-359.87C1090.16,-335.67 1091.42,-291.21 1092.23,-262.39"/>
<polygon fill="black" stroke="black" points="1095.73,-262.28 1092.52,-252.19 1088.74,-262.09 1095.73,-262.28"/>
</g>
<!-- ligo.skymap&#45;&gt;bayeswave -->
<g id="edge51" class="edge">
<title>ligo.skymap&#45;&gt;bayeswave</title>
<path fill="none" stroke="black" d="M1021.57,-288.76C1034.19,-279.27 1050.29,-267.15 1064.01,-256.82"/>
<polygon fill="black" stroke="black" points="1066.3,-259.48 1072.19,-250.67 1062.09,-253.88 1066.3,-259.48"/>
</g>
<!-- machine&#45;learning&#45;py -->
<g id="node35" class="node">
<title>machine&#45;learning&#45;py</title>
<ellipse fill="#35b779" stroke="black" cx="623" cy="-306" rx="103.5" ry="18"/>
<text text-anchor="middle" x="623" y="-302.3" font-family="Times,serif" font-size="14.00">machine learning py</text>
</g>
<!-- namaster&#45;&gt;machine&#45;learning&#45;py -->
<!-- nest&#45;simulator -->
<g id="node39" class="node">
<title>nest&#45;simulator</title>
<ellipse fill="#35b779" stroke="black" cx="623" cy="-234" rx="79.5" ry="18"/>
<text text-anchor="middle" x="623" y="-230.3" font-family="Times,serif" font-size="14.00">nest simulator</text>
</g>
<!-- machine&#45;learning&#45;py&#45;&gt;nest&#45;simulator -->
<!-- root -->
<g id="node36" class="node">
<title>root</title>
<ellipse fill="#35b779" stroke="black" cx="1582" cy="-738" rx="30.59" ry="18"/>
<text text-anchor="middle" x="1582" y="-734.3" font-family="Times,serif" font-size="14.00">root</text>
</g>
<!-- ostaphep -->
<g id="node37" class="node">
<title>ostaphep</title>
<ellipse fill="#fde725" stroke="black" cx="1526" cy="-666" rx="50.09" ry="18"/>
<text text-anchor="middle" x="1526" y="-662.3" font-family="Times,serif" font-size="14.00">ostaphep</text>
</g>
<!-- root&#45;&gt;ostaphep -->
<g id="edge54" class="edge">
<title>root&#45;&gt;ostaphep</title>
<path fill="none" stroke="black" d="M1569.57,-721.46C1562.52,-712.65 1553.54,-701.43 1545.57,-691.46"/>
<polygon fill="black" stroke="black" points="1548.15,-689.09 1539.17,-683.47 1542.69,-693.46 1548.15,-689.09"/>
</g>
<!-- gwollum -->
<g id="node38" class="node">
<title>gwollum</title>
<ellipse fill="#fde725" stroke="black" cx="1604" cy="-594" rx="45" ry="18"/>
<text text-anchor="middle" x="1604" y="-590.3" font-family="Times,serif" font-size="14.00">gwollum</text>
</g>
<!-- root&#45;&gt;gwollum -->
<g id="edge55" class="edge">
<title>root&#45;&gt;gwollum</title>
<path fill="none" stroke="black" d="M1584.65,-719.87C1588.4,-695.67 1595.29,-651.21 1599.76,-622.39"/>
<polygon fill="black" stroke="black" points="1603.26,-622.61 1601.34,-612.19 1596.35,-621.54 1603.26,-622.61"/>
</g>
<!-- plumed -->
<g id="node40" class="node">
<title>plumed</title>
<ellipse fill="#35b779" stroke="black" cx="623" cy="-162" rx="40.5" ry="18"/>
<text text-anchor="middle" x="623" y="-158.3" font-family="Times,serif" font-size="14.00">plumed</text>
</g>
<!-- nest&#45;simulator&#45;&gt;plumed -->
<!-- dakota -->
<g id="node41" class="node">
<title>dakota</title>
<ellipse fill="#35b779" stroke="black" cx="623" cy="-90" rx="40.5" ry="18"/>
<text text-anchor="middle" x="623" y="-86.3" font-family="Times,serif" font-size="14.00">dakota</text>
</g>
<!-- plumed&#45;&gt;dakota -->
<!-- ale -->
<g id="node42" class="node">
<title>ale</title>
<ellipse fill="#35b779" stroke="black" cx="623" cy="-18" rx="27" ry="18"/>
<text text-anchor="middle" x="623" y="-14.3" font-family="Times,serif" font-size="14.00">ale</text>
</g>
<!-- dakota&#45;&gt;ale -->
<!-- astrometry -->
<g id="node43" class="node">
<title>astrometry</title>
<ellipse fill="#35b779" stroke="black" cx="1724" cy="-738" rx="60" ry="18"/>
<text text-anchor="middle" x="1724" y="-734.3" font-family="Times,serif" font-size="14.00">astrometry</text>
</g>
<!-- pyinterp -->
<g id="node44" class="node">
<title>pyinterp</title>
<ellipse fill="#35b779" stroke="black" cx="1724" cy="-666" rx="50.09" ry="18"/>
<text text-anchor="middle" x="1724" y="-662.3" font-family="Times,serif" font-size="14.00">pyinterp</text>
</g>
<!-- astrometry&#45;&gt;pyinterp -->
<!-- pyccl -->
<g id="node45" class="node">
<title>pyccl</title>
<ellipse fill="#35b779" stroke="black" cx="1724" cy="-594" rx="35.19" ry="18"/>
<text text-anchor="middle" x="1724" y="-590.3" font-family="Times,serif" font-size="14.00">pyccl</text>
</g>
<!-- pyinterp&#45;&gt;pyccl -->
<!-- lintegrate -->
<g id="node46" class="node">
<title>lintegrate</title>
<ellipse fill="#35b779" stroke="black" cx="1724" cy="-522" rx="60" ry="18"/>
<text text-anchor="middle" x="1724" y="-518.3" font-family="Times,serif" font-size="14.00">lintegrate</text>
</g>
<!-- pyccl&#45;&gt;lintegrate -->
<!-- corrfunc -->
<g id="node47" class="node">
<title>corrfunc</title>
<ellipse fill="#35b779" stroke="black" cx="1724" cy="-450" rx="50.09" ry="18"/>
<text text-anchor="middle" x="1724" y="-446.3" font-family="Times,serif" font-size="14.00">corrfunc</text>
</g>
<!-- lintegrate&#45;&gt;corrfunc -->
<!-- gnuastro -->
<g id="node48" class="node">
<title>gnuastro</title>
<ellipse fill="#35b779" stroke="black" cx="1724" cy="-378" rx="50.09" ry="18"/>
<text text-anchor="middle" x="1724" y="-374.3" font-family="Times,serif" font-size="14.00">gnuastro</text>
</g>
<!-- corrfunc&#45;&gt;gnuastro -->
<!-- gnuradio -->
<g id="node49" class="node">
<title>gnuradio</title>
<ellipse fill="#35b779" stroke="black" cx="1724" cy="-306" rx="50.09" ry="18"/>
<text text-anchor="middle" x="1724" y="-302.3" font-family="Times,serif" font-size="14.00">gnuradio</text>
</g>
<!-- gnuastro&#45;&gt;gnuradio -->
<!-- ecell4_base -->
<g id="node50" class="node">
<title>ecell4_base</title>
<ellipse fill="#35b779" stroke="black" cx="1724" cy="-234" rx="64.5" ry="18"/>
<text text-anchor="middle" x="1724" y="-230.3" font-family="Times,serif" font-size="14.00">ecell4_base</text>
</g>
<!-- gnuradio&#45;&gt;ecell4_base -->
<!-- gwsurrogate -->
<g id="node51" class="node">
<title>gwsurrogate</title>
<ellipse fill="#35b779" stroke="black" cx="1724" cy="-162" rx="64.5" ry="18"/>
<text text-anchor="middle" x="1724" y="-158.3" font-family="Times,serif" font-size="14.00">gwsurrogate</text>
</g>
<!-- ecell4_base&#45;&gt;gwsurrogate -->
</g>
</svg>
