<?xml version="1.0" encoding="UTF-8" standalone="no"?>
<!DOCTYPE svg PUBLIC "-//W3C//DTD SVG 1.1//EN"
 "http://www.w3.org/Graphics/SVG/1.1/DTD/svg11.dtd">
<!-- Generated by graphviz version 2.42.3 (20191010.1750)
 -->
<!-- Title: %3 Pages: 1 -->
<svg width="1148pt" height="764pt"
 viewBox="0.00 0.00 1147.59 764.00" xmlns="http://www.w3.org/2000/svg" xmlns:xlink="http://www.w3.org/1999/xlink">
<g id="graph0" class="graph" transform="scale(1 1) rotate(0) translate(4 760)">
<title>%3</title>
<polygon fill="white" stroke="transparent" points="-4,4 -4,-760 1143.59,-760 1143.59,4 -4,4"/>
<!-- astro&#45;gala -->
<g id="node1" class="node">
<title>astro&#45;gala</title>
<g id="a_node1"><a xlink:href="https://github.com/conda-forge/astro-gala-feedstock/pull/9" xlink:title="astro gala">
<ellipse fill="#31688e" stroke="black" cx="74.09" cy="-738" rx="60" ry="18"/>
<text text-anchor="middle" x="74.09" y="-734.3" font-family="Times,serif" font-size="14.00" fill="white">astro gala</text>
</a>
</g>
</g>
<!-- galpy -->
<g id="node2" class="node">
<title>galpy</title>
<g id="a_node2"><a xlink:href="https://github.com/conda-forge/galpy-feedstock/pull/12" xlink:title="galpy">
<ellipse fill="#31688e" stroke="black" cx="74.09" cy="-666" rx="35.19" ry="18"/>
<text text-anchor="middle" x="74.09" y="-662.3" font-family="Times,serif" font-size="14.00" fill="white">galpy</text>
</a>
</g>
</g>
<!-- astro&#45;gala&#45;&gt;galpy -->
<!-- qgis -->
<g id="node3" class="node">
<title>qgis</title>
<ellipse fill="#fde725" stroke="black" cx="74.09" cy="-594" rx="30.59" ry="18"/>
<text text-anchor="middle" x="74.09" y="-590.3" font-family="Times,serif" font-size="14.00">qgis</text>
</g>
<!-- galpy&#45;&gt;qgis -->
<!-- r&#45;rcppgsl -->
<g id="node4" class="node">
<title>r&#45;rcppgsl</title>
<g id="a_node4"><a xlink:href="https://github.com/conda-forge/r-rcppgsl-feedstock/pull/9" xlink:title="r rcppgsl">
<ellipse fill="#31688e" stroke="black" cx="74.09" cy="-522" rx="54.69" ry="18"/>
<text text-anchor="middle" x="74.09" y="-518.3" font-family="Times,serif" font-size="14.00" fill="white">r rcppgsl</text>
</a>
</g>
</g>
<!-- qgis&#45;&gt;r&#45;rcppgsl -->
<!-- root5 -->
<g id="node7" class="node">
<title>root5</title>
<g id="a_node7"><a xlink:href="https://github.com/conda-forge/root5-feedstock/pull/20" xlink:title="root5">
<ellipse fill="#31688e" stroke="black" cx="74.09" cy="-450" rx="35.19" ry="18"/>
<text text-anchor="middle" x="74.09" y="-446.3" font-family="Times,serif" font-size="14.00" fill="white">root5</text>
</a>
</g>
</g>
<!-- r&#45;rcppgsl&#45;&gt;root5 -->
<!-- r&#45;gsl -->
<g id="node5" class="node">
<title>r&#45;gsl</title>
<g id="a_node5"><a xlink:href="https://github.com/conda-forge/r-gsl-feedstock/pull/11" xlink:title="r gsl">
<ellipse fill="#31688e" stroke="black" cx="187.09" cy="-738" rx="35.19" ry="18"/>
<text text-anchor="middle" x="187.09" y="-734.3" font-family="Times,serif" font-size="14.00" fill="white">r gsl</text>
</a>
</g>
</g>
<!-- r&#45;aws -->
<g id="node6" class="node">
<title>r&#45;aws</title>
<ellipse fill="#fde725" stroke="black" cx="187.09" cy="-666" rx="35.19" ry="18"/>
<text text-anchor="middle" x="187.09" y="-662.3" font-family="Times,serif" font-size="14.00">r aws</text>
</g>
<!-- r&#45;gsl&#45;&gt;r&#45;aws -->
<g id="edge4" class="edge">
<title>r&#45;gsl&#45;&gt;r&#45;aws</title>
<path fill="none" stroke="black" d="M187.09,-719.7C187.09,-711.98 187.09,-702.71 187.09,-694.11"/>
<polygon fill="black" stroke="black" points="190.59,-694.1 187.09,-684.1 183.59,-694.1 190.59,-694.1"/>
</g>
<!-- rsgislib -->
<g id="node8" class="node">
<title>rsgislib</title>
<g id="a_node8"><a xlink:href="https://github.com/conda-forge/rsgislib-feedstock/pull/27" xlink:title="rsgislib">
<ellipse fill="#31688e" stroke="black" cx="74.09" cy="-378" rx="50.09" ry="18"/>
<text text-anchor="middle" x="74.09" y="-374.3" font-family="Times,serif" font-size="14.00" fill="white">rsgislib</text>
</a>
</g>
</g>
<!-- root5&#45;&gt;rsgislib -->
<!-- slda -->
<g id="node9" class="node">
<title>slda</title>
<g id="a_node9"><a xlink:href="https://github.com/conda-forge/slda-feedstock/pull/9" xlink:title="slda">
<ellipse fill="#31688e" stroke="black" cx="74.09" cy="-306" rx="30.59" ry="18"/>
<text text-anchor="middle" x="74.09" y="-302.3" font-family="Times,serif" font-size="14.00" fill="white">slda</text>
</a>
</g>
</g>
<!-- rsgislib&#45;&gt;slda -->
<!-- spdlib -->
<g id="node10" class="node">
<title>spdlib</title>
<g id="a_node10"><a xlink:href="https://github.com/conda-forge/spdlib-feedstock/pull/10" xlink:title="spdlib">
<ellipse fill="#31688e" stroke="black" cx="74.09" cy="-234" rx="40.5" ry="18"/>
<text text-anchor="middle" x="74.09" y="-230.3" font-family="Times,serif" font-size="14.00" fill="white">spdlib</text>
</a>
</g>
</g>
<!-- slda&#45;&gt;spdlib -->
<!-- r&#45;topicmodels -->
<g id="node11" class="node">
<title>r&#45;topicmodels</title>
<g id="a_node11"><a xlink:href="https://github.com/conda-forge/r-topicmodels-feedstock/pull/8" xlink:title="r topicmodels">
<ellipse fill="#31688e" stroke="black" cx="74.09" cy="-162" rx="74.19" ry="18"/>
<text text-anchor="middle" x="74.09" y="-158.3" font-family="Times,serif" font-size="14.00" fill="white">r topicmodels</text>
</a>
</g>
</g>
<!-- spdlib&#45;&gt;r&#45;topicmodels -->
<!-- pymeep -->
<g id="node22" class="node">
<title>pymeep</title>
<g id="a_node22"><a xlink:href="https://github.com/conda-forge/pymeep-feedstock/pull/27" xlink:title="pymeep">
<ellipse fill="#31688e" stroke="black" cx="74.09" cy="-90" rx="40.5" ry="18"/>
<text text-anchor="middle" x="74.09" y="-86.3" font-family="Times,serif" font-size="14.00" fill="white">pymeep</text>
</a>
</g>
</g>
<!-- r&#45;topicmodels&#45;&gt;pymeep -->
<!-- lal -->
<g id="node12" class="node">
<title>lal</title>
<g id="a_node12"><a xlink:href="https://github.com/conda-forge/lal-feedstock/pull/35" xlink:title="lal">
<ellipse fill="#31688e" stroke="black" cx="649.09" cy="-738" rx="27" ry="18"/>
<text text-anchor="middle" x="649.09" y="-734.3" font-family="Times,serif" font-size="14.00" fill="white">lal</text>
</a>
</g>
</g>
<!-- lalsimulation -->
<g id="node13" class="node">
<title>lalsimulation</title>
<ellipse fill="#fde725" stroke="black" cx="455.09" cy="-666" rx="74.19" ry="18"/>
<text text-anchor="middle" x="455.09" y="-662.3" font-family="Times,serif" font-size="14.00">lalsimulation</text>
</g>
<!-- lal&#45;&gt;lalsimulation -->
<g id="edge10" class="edge">
<title>lal&#45;&gt;lalsimulation</title>
<path fill="none" stroke="black" d="M625.69,-728.56C595.78,-717.76 543.21,-698.79 504.3,-684.76"/>
<polygon fill="black" stroke="black" points="505.32,-681.4 494.73,-681.3 502.95,-687.99 505.32,-681.4"/>
</g>
<!-- lalburst -->
<g id="node14" class="node">
<title>lalburst</title>
<ellipse fill="#fde725" stroke="black" cx="649.09" cy="-594" rx="50.09" ry="18"/>
<text text-anchor="middle" x="649.09" y="-590.3" font-family="Times,serif" font-size="14.00">lalburst</text>
</g>
<!-- lal&#45;&gt;lalburst -->
<g id="edge11" class="edge">
<title>lal&#45;&gt;lalburst</title>
<path fill="none" stroke="black" d="M649.09,-719.87C649.09,-695.67 649.09,-651.21 649.09,-622.39"/>
<polygon fill="black" stroke="black" points="652.59,-622.19 649.09,-612.19 645.59,-622.19 652.59,-622.19"/>
</g>
<!-- lalpulsar -->
<g id="node15" class="node">
<title>lalpulsar</title>
<ellipse fill="#fde725" stroke="black" cx="899.09" cy="-522" rx="54.69" ry="18"/>
<text text-anchor="middle" x="899.09" y="-518.3" font-family="Times,serif" font-size="14.00">lalpulsar</text>
</g>
<!-- lal&#45;&gt;lalpulsar -->
<g id="edge12" class="edge">
<title>lal&#45;&gt;lalpulsar</title>
<path fill="none" stroke="black" d="M676.14,-736.08C714.82,-733.36 786.12,-722.99 830.09,-684 870,-648.62 887.61,-586.17 894.74,-550.33"/>
<polygon fill="black" stroke="black" points="898.26,-550.59 896.64,-540.12 891.37,-549.32 898.26,-550.59"/>
</g>
<!-- lalinspiral -->
<g id="node16" class="node">
<title>lalinspiral</title>
<ellipse fill="#fde725" stroke="black" cx="571.09" cy="-522" rx="64.5" ry="18"/>
<text text-anchor="middle" x="571.09" y="-518.3" font-family="Times,serif" font-size="14.00">lalinspiral</text>
</g>
<!-- lal&#45;&gt;lalinspiral -->
<g id="edge13" class="edge">
<title>lal&#45;&gt;lalinspiral</title>
<path fill="none" stroke="black" d="M640.02,-720.92C627.21,-697.6 603.84,-652.7 590.09,-612 583.24,-591.7 578.31,-567.93 575.2,-550.06"/>
<polygon fill="black" stroke="black" points="578.63,-549.33 573.53,-540.04 571.72,-550.48 578.63,-549.33"/>
</g>
<!-- lalinference -->
<g id="node17" class="node">
<title>lalinference</title>
<ellipse fill="#fde725" stroke="black" cx="718.09" cy="-450" rx="69.59" ry="18"/>
<text text-anchor="middle" x="718.09" y="-446.3" font-family="Times,serif" font-size="14.00">lalinference</text>
</g>
<!-- lal&#45;&gt;lalinference -->
<g id="edge14" class="edge">
<title>lal&#45;&gt;lalinference</title>
<path fill="none" stroke="black" d="M661.91,-721.96C680.28,-699.56 713.78,-655.39 731.09,-612 749.01,-567.1 755.02,-551.09 744.09,-504 741.94,-494.72 737.92,-485.18 733.67,-476.81"/>
<polygon fill="black" stroke="black" points="736.7,-475.05 728.87,-467.92 730.54,-478.38 736.7,-475.05"/>
</g>
<!-- lalapps -->
<g id="node18" class="node">
<title>lalapps</title>
<ellipse fill="#fde725" stroke="black" cx="623.09" cy="-378" rx="45" ry="18"/>
<text text-anchor="middle" x="623.09" y="-374.3" font-family="Times,serif" font-size="14.00">lalapps</text>
</g>
<!-- lal&#45;&gt;lalapps -->
<g id="edge15" class="edge">
<title>lal&#45;&gt;lalapps</title>
<path fill="none" stroke="black" d="M673.02,-729.3C719.2,-712.76 816.09,-669.21 816.09,-595 816.09,-595 816.09,-595 816.09,-521 816.09,-480.55 824.45,-461.79 797.09,-432 766.8,-399.01 716.67,-386.31 677.98,-381.54"/>
<polygon fill="black" stroke="black" points="678.22,-378.04 667.9,-380.44 677.46,-385 678.22,-378.04"/>
</g>
<!-- ligo.skymap -->
<g id="node19" class="node">
<title>ligo.skymap</title>
<ellipse fill="#fde725" stroke="black" cx="537.09" cy="-306" rx="64.5" ry="18"/>
<text text-anchor="middle" x="537.09" y="-302.3" font-family="Times,serif" font-size="14.00">ligo skymap</text>
</g>
<!-- lal&#45;&gt;ligo.skymap -->
<g id="edge16" class="edge">
<title>lal&#45;&gt;ligo.skymap</title>
<path fill="none" stroke="black" d="M621.81,-736.92C567.67,-735.75 443.96,-728.04 352.09,-684 297.84,-657.99 250.09,-655.16 250.09,-595 250.09,-595 250.09,-595 250.09,-449 250.09,-353.38 379.66,-322.15 464.68,-311.95"/>
<polygon fill="black" stroke="black" points="465.27,-315.4 474.82,-310.8 464.49,-308.45 465.27,-315.4"/>
</g>
<!-- bayeswave -->
<g id="node20" class="node">
<title>bayeswave</title>
<ellipse fill="#fde725" stroke="black" cx="630.09" cy="-234" rx="54.69" ry="18"/>
<text text-anchor="middle" x="630.09" y="-230.3" font-family="Times,serif" font-size="14.00">bayeswave</text>
</g>
<!-- lal&#45;&gt;bayeswave -->
<g id="edge17" class="edge">
<title>lal&#45;&gt;bayeswave</title>
<path fill="none" stroke="black" d="M676.34,-737.67C755.87,-738.09 982.09,-727.61 982.09,-595 982.09,-595 982.09,-595 982.09,-377 982.09,-314.01 785.77,-265.91 686.36,-245.58"/>
<polygon fill="black" stroke="black" points="686.97,-242.14 676.47,-243.59 685.58,-249 686.97,-242.14"/>
</g>
<!-- gstlal -->
<g id="node21" class="node">
<title>gstlal</title>
<ellipse fill="#fde725" stroke="black" cx="433.09" cy="-450" rx="40.5" ry="18"/>
<text text-anchor="middle" x="433.09" y="-446.3" font-family="Times,serif" font-size="14.00">gstlal</text>
</g>
<!-- lal&#45;&gt;gstlal -->
<g id="edge18" class="edge">
<title>lal&#45;&gt;gstlal</title>
<path fill="none" stroke="black" d="M622,-736.03C558.62,-733.13 403.68,-722.21 372.09,-684 320.78,-621.94 381.19,-521.39 414.27,-475.38"/>
<polygon fill="black" stroke="black" points="417.19,-477.32 420.29,-467.19 411.55,-473.18 417.19,-477.32"/>
</g>
<!-- lalsimulation&#45;&gt;lalburst -->
<g id="edge19" class="edge">
<title>lalsimulation&#45;&gt;lalburst</title>
<path fill="none" stroke="black" d="M494.82,-650.67C527.01,-639.05 572.3,-622.71 605.48,-610.74"/>
<polygon fill="black" stroke="black" points="606.71,-614.01 614.93,-607.33 604.34,-607.43 606.71,-614.01"/>
</g>
<!-- lalsimulation&#45;&gt;lalinspiral -->
<g id="edge20" class="edge">
<title>lalsimulation&#45;&gt;lalinspiral</title>
<path fill="none" stroke="black" d="M468.86,-648.15C489.18,-623.28 527.33,-576.57 550.84,-547.79"/>
<polygon fill="black" stroke="black" points="553.73,-549.78 557.35,-539.82 548.31,-545.36 553.73,-549.78"/>
</g>
<!-- lalsimulation&#45;&gt;lalinference -->
<g id="edge21" class="edge">
<title>lalsimulation&#45;&gt;lalinference</title>
<path fill="none" stroke="black" d="M524.61,-659.75C591.07,-653.15 684.53,-639.24 708.09,-612 740.14,-574.95 733.06,-513.38 725.37,-478.08"/>
<polygon fill="black" stroke="black" points="728.7,-476.96 723,-468.03 721.88,-478.56 728.7,-476.96"/>
</g>
<!-- lalsimulation&#45;&gt;lalapps -->
<g id="edge22" class="edge">
<title>lalsimulation&#45;&gt;lalapps</title>
<path fill="none" stroke="black" d="M456.57,-647.9C459.84,-617.21 469.71,-551.57 497.09,-504 521.72,-461.22 564.86,-423.04 593.7,-400.45"/>
<polygon fill="black" stroke="black" points="596,-403.09 601.8,-394.22 591.74,-397.54 596,-403.09"/>
</g>
<!-- lalsimulation&#45;&gt;ligo.skymap -->
<g id="edge23" class="edge">
<title>lalsimulation&#45;&gt;ligo.skymap</title>
<path fill="none" stroke="black" d="M435.35,-648.41C408.58,-623.95 364.09,-575.41 364.09,-523 364.09,-523 364.09,-523 364.09,-449 364.09,-384.94 435.85,-344.49 486.94,-323.82"/>
<polygon fill="black" stroke="black" points="488.49,-326.97 496.53,-320.06 485.94,-320.45 488.49,-326.97"/>
</g>
<!-- lalsimulation&#45;&gt;bayeswave -->
<g id="edge24" class="edge">
<title>lalsimulation&#45;&gt;bayeswave</title>
<path fill="none" stroke="black" d="M425.5,-649.43C387.41,-627.01 326.09,-581.79 326.09,-523 326.09,-523 326.09,-523 326.09,-377 326.09,-272.11 476.49,-244.52 565.71,-237.38"/>
<polygon fill="black" stroke="black" points="566.03,-240.87 575.74,-236.65 565.51,-233.89 566.03,-240.87"/>
</g>
<!-- lalsimulation&#45;&gt;gstlal -->
<g id="edge25" class="edge">
<title>lalsimulation&#45;&gt;gstlal</title>
<path fill="none" stroke="black" d="M442.79,-647.78C436.44,-637.84 429.37,-624.8 426.09,-612 414.39,-566.22 421.18,-510.76 427.15,-478.33"/>
<polygon fill="black" stroke="black" points="430.63,-478.74 429.12,-468.26 423.76,-477.4 430.63,-478.74"/>
</g>
<!-- lalburst&#45;&gt;lalinspiral -->
<g id="edge26" class="edge">
<title>lalburst&#45;&gt;lalinspiral</title>
<path fill="none" stroke="black" d="M631.39,-577.12C621.17,-567.94 608.12,-556.23 596.79,-546.06"/>
<polygon fill="black" stroke="black" points="599.04,-543.38 589.26,-539.31 594.37,-548.59 599.04,-543.38"/>
</g>
<!-- lalburst&#45;&gt;lalinference -->
<g id="edge27" class="edge">
<title>lalburst&#45;&gt;lalinference</title>
<path fill="none" stroke="black" d="M658.84,-575.99C664.64,-565.69 672.02,-552.21 678.09,-540 688.47,-519.14 699.24,-495.01 706.99,-477.14"/>
<polygon fill="black" stroke="black" points="710.22,-478.48 710.96,-467.91 703.79,-475.71 710.22,-478.48"/>
</g>
<!-- lalburst&#45;&gt;lalapps -->
<g id="edge28" class="edge">
<title>lalburst&#45;&gt;lalapps</title>
<path fill="none" stroke="black" d="M648.69,-575.89C648.14,-557.94 646.88,-528.92 644.09,-504 642.03,-485.51 633.53,-436.93 628,-406.06"/>
<polygon fill="black" stroke="black" points="631.4,-405.18 626.18,-395.96 624.51,-406.42 631.4,-405.18"/>
</g>
<!-- lalburst&#45;&gt;gstlal -->
<g id="edge29" class="edge">
<title>lalburst&#45;&gt;gstlal</title>
<path fill="none" stroke="black" d="M605.45,-585.19C573.1,-577.74 529.23,-564 497.09,-540 474.71,-523.29 456.96,-496.49 445.88,-476.66"/>
<polygon fill="black" stroke="black" points="448.95,-474.98 441.13,-467.83 442.79,-478.29 448.95,-474.98"/>
</g>
<!-- lalpulsar&#45;&gt;lalinference -->
<g id="edge30" class="edge">
<title>lalpulsar&#45;&gt;lalinference</title>
<path fill="none" stroke="black" d="M865.05,-507.83C836.65,-496.85 795.9,-481.09 764.52,-468.95"/>
<polygon fill="black" stroke="black" points="765.69,-465.65 755.1,-465.31 763.16,-472.18 765.69,-465.65"/>
</g>
<!-- lalpulsar&#45;&gt;lalapps -->
<g id="edge31" class="edge">
<title>lalpulsar&#45;&gt;lalapps</title>
<path fill="none" stroke="black" d="M890.57,-504.15C879.44,-483.9 858.04,-450.35 830.09,-432 783.92,-401.68 721.43,-388.7 677.22,-383.15"/>
<polygon fill="black" stroke="black" points="677.58,-379.67 667.24,-381.98 676.77,-386.62 677.58,-379.67"/>
</g>
<!-- lalinspiral&#45;&gt;lalinference -->
<g id="edge32" class="edge">
<title>lalinspiral&#45;&gt;lalinference</title>
<path fill="none" stroke="black" d="M602.27,-506.15C624.14,-495.74 653.6,-481.71 677.34,-470.41"/>
<polygon fill="black" stroke="black" points="678.93,-473.52 686.46,-466.07 675.92,-467.2 678.93,-473.52"/>
</g>
<!-- lalinspiral&#45;&gt;lalapps -->
<g id="edge33" class="edge">
<title>lalinspiral&#45;&gt;lalapps</title>
<path fill="none" stroke="black" d="M577.37,-503.87C586.31,-479.46 602.8,-434.43 613.34,-405.64"/>
<polygon fill="black" stroke="black" points="616.65,-406.78 616.8,-396.19 610.07,-404.38 616.65,-406.78"/>
</g>
<!-- lalinspiral&#45;&gt;ligo.skymap -->
<g id="edge34" class="edge">
<title>lalinspiral&#45;&gt;ligo.skymap</title>
<path fill="none" stroke="black" d="M568.37,-503.85C562.49,-466.83 548.56,-379.18 541.44,-334.39"/>
<polygon fill="black" stroke="black" points="544.86,-333.56 539.83,-324.23 537.94,-334.66 544.86,-333.56"/>
</g>
<!-- lalinspiral&#45;&gt;gstlal -->
<g id="edge35" class="edge">
<title>lalinspiral&#45;&gt;gstlal</title>
<path fill="none" stroke="black" d="M541.49,-505.98C519.91,-495.04 490.6,-480.17 467.9,-468.66"/>
<polygon fill="black" stroke="black" points="469.43,-465.51 458.93,-464.11 466.27,-471.75 469.43,-465.51"/>
</g>
<!-- lalinference&#45;&gt;lalapps -->
<g id="edge36" class="edge">
<title>lalinference&#45;&gt;lalapps</title>
<path fill="none" stroke="black" d="M696.06,-432.76C682.99,-423.13 666.26,-410.81 652.12,-400.39"/>
<polygon fill="black" stroke="black" points="653.83,-397.3 643.71,-394.19 649.68,-402.94 653.83,-397.3"/>
</g>
<!-- lalinference&#45;&gt;bayeswave -->
<g id="edge37" class="edge">
<title>lalinference&#45;&gt;bayeswave</title>
<path fill="none" stroke="black" d="M711.04,-431.85C695.68,-394.5 659.14,-305.63 640.87,-261.21"/>
<polygon fill="black" stroke="black" points="644.1,-259.85 637.06,-251.94 637.62,-262.52 644.1,-259.85"/>
</g>
<!-- lalapps&#45;&gt;ligo.skymap -->
<g id="edge38" class="edge">
<title>lalapps&#45;&gt;ligo.skymap</title>
<path fill="none" stroke="black" d="M604.01,-361.46C592.56,-352.15 577.8,-340.13 565.05,-329.76"/>
<polygon fill="black" stroke="black" points="566.99,-326.82 557.02,-323.22 562.57,-332.25 566.99,-326.82"/>
</g>
<!-- lalapps&#45;&gt;bayeswave -->
<g id="edge39" class="edge">
<title>lalapps&#45;&gt;bayeswave</title>
<path fill="none" stroke="black" d="M623.94,-359.87C625.13,-335.67 627.32,-291.21 628.74,-262.39"/>
<polygon fill="black" stroke="black" points="632.25,-262.35 629.25,-252.19 625.26,-262 632.25,-262.35"/>
</g>
<!-- ligo.skymap&#45;&gt;bayeswave -->
<g id="edge40" class="edge">
<title>ligo.skymap&#45;&gt;bayeswave</title>
<path fill="none" stroke="black" d="M558.66,-288.76C571.28,-279.27 587.38,-267.15 601.1,-256.82"/>
<polygon fill="black" stroke="black" points="603.4,-259.48 609.28,-250.67 599.19,-253.88 603.4,-259.48"/>
</g>
<!-- ostaphep -->
<g id="node23" class="node">
<title>ostaphep</title>
<g id="a_node23"><a xlink:href="https://github.com/conda-forge/ostaphep-feedstock/pull/15" xlink:title="ostaphep">
<ellipse fill="#31688e" stroke="black" cx="74.09" cy="-18" rx="50.09" ry="18"/>
<text text-anchor="middle" x="74.09" y="-14.3" font-family="Times,serif" font-size="14.00" fill="white">ostaphep</text>
</a>
</g>
</g>
<!-- pymeep&#45;&gt;ostaphep -->
<!-- pyinterp -->
<g id="node24" class="node">
<title>pyinterp</title>
<g id="a_node24"><a xlink:href="https://github.com/conda-forge/pyinterp-feedstock/pull/13" xlink:title="pyinterp">
<ellipse fill="#31688e" stroke="black" cx="1075.09" cy="-738" rx="50.09" ry="18"/>
<text text-anchor="middle" x="1075.09" y="-734.3" font-family="Times,serif" font-size="14.00" fill="white">pyinterp</text>
</a>
</g>
</g>
<!-- gwsurrogate -->
<g id="node25" class="node">
<title>gwsurrogate</title>
<g id="a_node25"><a xlink:href="https://github.com/conda-forge/gwsurrogate-feedstock/pull/6" xlink:title="gwsurrogate">
<ellipse fill="#31688e" stroke="black" cx="1075.09" cy="-666" rx="64.5" ry="18"/>
<text text-anchor="middle" x="1075.09" y="-662.3" font-family="Times,serif" font-size="14.00" fill="white">gwsurrogate</text>
</a>
</g>
</g>
<!-- pyinterp&#45;&gt;gwsurrogate -->
<!-- gwollum -->
<g id="node26" class="node">
<title>gwollum</title>
<g id="a_node26"><a xlink:href="https://github.com/conda-forge/gwollum-feedstock/pull/1" xlink:title="gwollum">
<ellipse fill="#31688e" stroke="black" cx="1075.09" cy="-594" rx="45" ry="18"/>
<text text-anchor="middle" x="1075.09" y="-590.3" font-family="Times,serif" font-size="14.00" fill="white">gwollum</text>
</a>
</g>
</g>
<!-- gwsurrogate&#45;&gt;gwollum -->
</g>
</svg>
