<?xml version="1.0" encoding="UTF-8" standalone="no"?>
<!DOCTYPE svg PUBLIC "-//W3C//DTD SVG 1.1//EN"
 "http://www.w3.org/Graphics/SVG/1.1/DTD/svg11.dtd">
<!-- Generated by graphviz version 2.42.3 (20191010.1750)
 -->
<!-- Title: %3 Pages: 1 -->
<svg width="1652pt" height="764pt"
 viewBox="0.00 0.00 1651.50 764.00" xmlns="http://www.w3.org/2000/svg" xmlns:xlink="http://www.w3.org/1999/xlink">
<g id="graph0" class="graph" transform="scale(1 1) rotate(0) translate(4 760)">
<title>%3</title>
<polygon fill="white" stroke="transparent" points="-4,4 -4,-760 1647.5,-760 1647.5,4 -4,4"/>
<!-- astro&#45;gala -->
<g id="node1" class="node">
<title>astro&#45;gala</title>
<g id="a_node1"><a xlink:href="https://github.com/conda-forge/astro-gala-feedstock/pull/9" xlink:title="astro gala">
<ellipse fill="#31688e" stroke="black" cx="60" cy="-738" rx="60" ry="18"/>
<text text-anchor="middle" x="60" y="-734.3" font-family="Times,serif" font-size="14.00" fill="white">astro gala</text>
</a>
</g>
</g>
<!-- cvxopt -->
<g id="node2" class="node">
<title>cvxopt</title>
<g id="a_node2"><a xlink:href="https://github.com/conda-forge/cvxopt-feedstock/pull/39" xlink:title="cvxopt">
<ellipse fill="#31688e" stroke="black" cx="60" cy="-666" rx="40.5" ry="18"/>
<text text-anchor="middle" x="60" y="-662.3" font-family="Times,serif" font-size="14.00" fill="white">cvxopt</text>
</a>
</g>
</g>
<!-- astro&#45;gala&#45;&gt;cvxopt -->
<!-- galpy -->
<g id="node3" class="node">
<title>galpy</title>
<g id="a_node3"><a xlink:href="https://github.com/conda-forge/galpy-feedstock/pull/12" xlink:title="galpy">
<ellipse fill="#31688e" stroke="black" cx="60" cy="-594" rx="35.19" ry="18"/>
<text text-anchor="middle" x="60" y="-590.3" font-family="Times,serif" font-size="14.00" fill="white">galpy</text>
</a>
</g>
</g>
<!-- cvxopt&#45;&gt;galpy -->
<!-- giac -->
<g id="node6" class="node">
<title>giac</title>
<g id="a_node6"><a xlink:href="https://github.com/conda-forge/giac-feedstock/pull/17" xlink:title="giac">
<ellipse fill="#31688e" stroke="black" cx="60" cy="-522" rx="30.59" ry="18"/>
<text text-anchor="middle" x="60" y="-518.3" font-family="Times,serif" font-size="14.00" fill="white">giac</text>
</a>
</g>
</g>
<!-- galpy&#45;&gt;giac -->
<!-- cythongsl -->
<g id="node4" class="node">
<title>cythongsl</title>
<g id="a_node4"><a xlink:href="https://github.com/conda-forge/cythongsl-feedstock/pull/11" xlink:title="cythongsl">
<ellipse fill="#31688e" stroke="black" cx="193" cy="-738" rx="54.69" ry="18"/>
<text text-anchor="middle" x="193" y="-734.3" font-family="Times,serif" font-size="14.00" fill="white">cythongsl</text>
</a>
</g>
</g>
<!-- slda -->
<g id="node5" class="node">
<title>slda</title>
<ellipse fill="#fde725" stroke="black" cx="193" cy="-666" rx="30.59" ry="18"/>
<text text-anchor="middle" x="193" y="-662.3" font-family="Times,serif" font-size="14.00">slda</text>
</g>
<!-- cythongsl&#45;&gt;slda -->
<g id="edge3" class="edge">
<title>cythongsl&#45;&gt;slda</title>
<path fill="none" stroke="black" d="M193,-719.7C193,-711.98 193,-702.71 193,-694.11"/>
<polygon fill="black" stroke="black" points="196.5,-694.1 193,-684.1 189.5,-694.1 196.5,-694.1"/>
</g>
<!-- libdiffpy -->
<g id="node7" class="node">
<title>libdiffpy</title>
<g id="a_node7"><a xlink:href="https://github.com/conda-forge/libdiffpy-feedstock/pull/6" xlink:title="libdiffpy">
<ellipse fill="#31688e" stroke="black" cx="60" cy="-450" rx="54.69" ry="18"/>
<text text-anchor="middle" x="60" y="-446.3" font-family="Times,serif" font-size="14.00" fill="white">libdiffpy</text>
</a>
</g>
</g>
<!-- giac&#45;&gt;libdiffpy -->
<!-- nco -->
<g id="node8" class="node">
<title>nco</title>
<g id="a_node8"><a xlink:href="https://github.com/conda-forge/nco-feedstock/pull/104" xlink:title="nco">
<ellipse fill="#31688e" stroke="black" cx="60" cy="-378" rx="27" ry="18"/>
<text text-anchor="middle" x="60" y="-374.3" font-family="Times,serif" font-size="14.00" fill="white">nco</text>
</a>
</g>
</g>
<!-- libdiffpy&#45;&gt;nco -->
<!-- qgis -->
<g id="node9" class="node">
<title>qgis</title>
<ellipse fill="#fde725" stroke="black" cx="60" cy="-306" rx="30.59" ry="18"/>
<text text-anchor="middle" x="60" y="-302.3" font-family="Times,serif" font-size="14.00">qgis</text>
</g>
<!-- nco&#45;&gt;qgis -->
<!-- root5 -->
<g id="node10" class="node">
<title>root5</title>
<g id="a_node10"><a xlink:href="https://github.com/conda-forge/root5-feedstock/pull/20" xlink:title="root5">
<ellipse fill="#31688e" stroke="black" cx="60" cy="-234" rx="35.19" ry="18"/>
<text text-anchor="middle" x="60" y="-230.3" font-family="Times,serif" font-size="14.00" fill="white">root5</text>
</a>
</g>
</g>
<!-- qgis&#45;&gt;root5 -->
<!-- rsgislib -->
<g id="node16" class="node">
<title>rsgislib</title>
<g id="a_node16"><a xlink:href="https://github.com/conda-forge/rsgislib-feedstock/pull/27" xlink:title="rsgislib">
<ellipse fill="#31688e" stroke="black" cx="60" cy="-162" rx="50.09" ry="18"/>
<text text-anchor="middle" x="60" y="-158.3" font-family="Times,serif" font-size="14.00" fill="white">rsgislib</text>
</a>
</g>
</g>
<!-- root5&#45;&gt;rsgislib -->
<!-- r&#45;base -->
<g id="node11" class="node">
<title>r&#45;base</title>
<g id="a_node11"><a xlink:href="https://github.com/conda-forge/r-base-feedstock/pull/115" xlink:title="r base">
<ellipse fill="#31688e" stroke="black" cx="363" cy="-738" rx="40.5" ry="18"/>
<text text-anchor="middle" x="363" y="-734.3" font-family="Times,serif" font-size="14.00" fill="white">r base</text>
</a>
</g>
</g>
<!-- r&#45;gsl -->
<g id="node12" class="node">
<title>r&#45;gsl</title>
<ellipse fill="#fde725" stroke="black" cx="277" cy="-666" rx="35.19" ry="18"/>
<text text-anchor="middle" x="277" y="-662.3" font-family="Times,serif" font-size="14.00">r gsl</text>
</g>
<!-- r&#45;base&#45;&gt;r&#45;gsl -->
<g id="edge9" class="edge">
<title>r&#45;base&#45;&gt;r&#45;gsl</title>
<path fill="none" stroke="black" d="M344.34,-721.81C332.23,-711.95 316.28,-698.97 302.94,-688.12"/>
<polygon fill="black" stroke="black" points="305,-685.28 295.03,-681.68 300.58,-690.71 305,-685.28"/>
</g>
<!-- r&#45;rcppgsl -->
<g id="node13" class="node">
<title>r&#45;rcppgsl</title>
<ellipse fill="#fde725" stroke="black" cx="383" cy="-594" rx="54.69" ry="18"/>
<text text-anchor="middle" x="383" y="-590.3" font-family="Times,serif" font-size="14.00">r rcppgsl</text>
</g>
<!-- r&#45;base&#45;&gt;r&#45;rcppgsl -->
<g id="edge10" class="edge">
<title>r&#45;base&#45;&gt;r&#45;rcppgsl</title>
<path fill="none" stroke="black" d="M365.41,-719.87C368.82,-695.67 375.08,-651.21 379.14,-622.39"/>
<polygon fill="black" stroke="black" points="382.65,-622.58 380.58,-612.19 375.72,-621.6 382.65,-622.58"/>
</g>
<!-- r&#45;topicmodels -->
<g id="node14" class="node">
<title>r&#45;topicmodels</title>
<ellipse fill="#fde725" stroke="black" cx="466" cy="-522" rx="74.19" ry="18"/>
<text text-anchor="middle" x="466" y="-518.3" font-family="Times,serif" font-size="14.00">r topicmodels</text>
</g>
<!-- r&#45;base&#45;&gt;r&#45;topicmodels -->
<g id="edge11" class="edge">
<title>r&#45;base&#45;&gt;r&#45;topicmodels</title>
<path fill="none" stroke="black" d="M376.9,-720.81C395.7,-698.05 428.94,-654.61 447,-612 455.36,-592.27 460.2,-568.47 462.9,-550.44"/>
<polygon fill="black" stroke="black" points="466.39,-550.7 464.28,-540.32 459.46,-549.75 466.39,-550.7"/>
</g>
<!-- r&#45;aws -->
<g id="node15" class="node">
<title>r&#45;aws</title>
<ellipse fill="#fde725" stroke="black" cx="275" cy="-594" rx="35.19" ry="18"/>
<text text-anchor="middle" x="275" y="-590.3" font-family="Times,serif" font-size="14.00">r aws</text>
</g>
<!-- r&#45;base&#45;&gt;r&#45;aws -->
<g id="edge12" class="edge">
<title>r&#45;base&#45;&gt;r&#45;aws</title>
<path fill="none" stroke="black" d="M356.69,-720.21C349.4,-701.76 336.4,-671.61 321,-648 314.1,-637.42 305.25,-626.72 297.16,-617.73"/>
<polygon fill="black" stroke="black" points="299.66,-615.29 290.31,-610.32 294.52,-620.04 299.66,-615.29"/>
</g>
<!-- r&#45;gsl&#45;&gt;r&#45;aws -->
<g id="edge13" class="edge">
<title>r&#45;gsl&#45;&gt;r&#45;aws</title>
<path fill="none" stroke="black" d="M276.51,-647.7C276.29,-639.98 276.02,-630.71 275.77,-622.11"/>
<polygon fill="black" stroke="black" points="279.27,-622 275.49,-612.1 272.28,-622.2 279.27,-622"/>
</g>
<!-- spdlib -->
<g id="node17" class="node">
<title>spdlib</title>
<g id="a_node17"><a xlink:href="https://github.com/conda-forge/spdlib-feedstock/pull/10" xlink:title="spdlib">
<ellipse fill="#31688e" stroke="black" cx="60" cy="-90" rx="40.5" ry="18"/>
<text text-anchor="middle" x="60" y="-86.3" font-family="Times,serif" font-size="14.00" fill="white">spdlib</text>
</a>
</g>
</g>
<!-- rsgislib&#45;&gt;spdlib -->
<!-- pymeep -->
<g id="node18" class="node">
<title>pymeep</title>
<g id="a_node18"><a xlink:href="https://github.com/conda-forge/pymeep-feedstock/pull/27" xlink:title="pymeep">
<ellipse fill="#31688e" stroke="black" cx="60" cy="-18" rx="40.5" ry="18"/>
<text text-anchor="middle" x="60" y="-14.3" font-family="Times,serif" font-size="14.00" fill="white">pymeep</text>
</a>
</g>
</g>
<!-- spdlib&#45;&gt;pymeep -->
<!-- lal -->
<g id="node19" class="node">
<title>lal</title>
<g id="a_node19"><a xlink:href="https://github.com/conda-forge/lal-feedstock/pull/35" xlink:title="lal">
<ellipse fill="#31688e" stroke="black" cx="967" cy="-738" rx="27" ry="18"/>
<text text-anchor="middle" x="967" y="-734.3" font-family="Times,serif" font-size="14.00" fill="white">lal</text>
</a>
</g>
</g>
<!-- lalsimulation -->
<g id="node20" class="node">
<title>lalsimulation</title>
<ellipse fill="#fde725" stroke="black" cx="773" cy="-666" rx="74.19" ry="18"/>
<text text-anchor="middle" x="773" y="-662.3" font-family="Times,serif" font-size="14.00">lalsimulation</text>
</g>
<!-- lal&#45;&gt;lalsimulation -->
<g id="edge17" class="edge">
<title>lal&#45;&gt;lalsimulation</title>
<path fill="none" stroke="black" d="M943.6,-728.56C913.68,-717.76 861.11,-698.79 822.21,-684.76"/>
<polygon fill="black" stroke="black" points="823.23,-681.4 812.64,-681.3 820.86,-687.99 823.23,-681.4"/>
</g>
<!-- lalburst -->
<g id="node21" class="node">
<title>lalburst</title>
<ellipse fill="#fde725" stroke="black" cx="967" cy="-594" rx="50.09" ry="18"/>
<text text-anchor="middle" x="967" y="-590.3" font-family="Times,serif" font-size="14.00">lalburst</text>
</g>
<!-- lal&#45;&gt;lalburst -->
<g id="edge18" class="edge">
<title>lal&#45;&gt;lalburst</title>
<path fill="none" stroke="black" d="M967,-719.87C967,-695.67 967,-651.21 967,-622.39"/>
<polygon fill="black" stroke="black" points="970.5,-622.19 967,-612.19 963.5,-622.19 970.5,-622.19"/>
</g>
<!-- lalpulsar -->
<g id="node22" class="node">
<title>lalpulsar</title>
<ellipse fill="#fde725" stroke="black" cx="1217" cy="-522" rx="54.69" ry="18"/>
<text text-anchor="middle" x="1217" y="-518.3" font-family="Times,serif" font-size="14.00">lalpulsar</text>
</g>
<!-- lal&#45;&gt;lalpulsar -->
<g id="edge19" class="edge">
<title>lal&#45;&gt;lalpulsar</title>
<path fill="none" stroke="black" d="M994.05,-736.08C1032.73,-733.36 1104.02,-722.99 1148,-684 1187.9,-648.62 1205.51,-586.17 1212.65,-550.33"/>
<polygon fill="black" stroke="black" points="1216.16,-550.59 1214.54,-540.12 1209.28,-549.32 1216.16,-550.59"/>
</g>
<!-- lalinspiral -->
<g id="node23" class="node">
<title>lalinspiral</title>
<ellipse fill="#fde725" stroke="black" cx="889" cy="-522" rx="64.5" ry="18"/>
<text text-anchor="middle" x="889" y="-518.3" font-family="Times,serif" font-size="14.00">lalinspiral</text>
</g>
<!-- lal&#45;&gt;lalinspiral -->
<g id="edge20" class="edge">
<title>lal&#45;&gt;lalinspiral</title>
<path fill="none" stroke="black" d="M957.93,-720.92C945.11,-697.6 921.74,-652.7 908,-612 901.14,-591.7 896.22,-567.93 893.11,-550.06"/>
<polygon fill="black" stroke="black" points="896.53,-549.33 891.44,-540.04 889.63,-550.48 896.53,-549.33"/>
</g>
<!-- lalinference -->
<g id="node24" class="node">
<title>lalinference</title>
<ellipse fill="#fde725" stroke="black" cx="1036" cy="-450" rx="69.59" ry="18"/>
<text text-anchor="middle" x="1036" y="-446.3" font-family="Times,serif" font-size="14.00">lalinference</text>
</g>
<!-- lal&#45;&gt;lalinference -->
<g id="edge21" class="edge">
<title>lal&#45;&gt;lalinference</title>
<path fill="none" stroke="black" d="M979.98,-721.99C998.58,-699.63 1032.5,-655.5 1050,-612 1068.04,-567.15 1074.28,-551.01 1063,-504 1060.76,-494.66 1056.58,-485.11 1052.17,-476.74"/>
<polygon fill="black" stroke="black" points="1055.13,-474.87 1047.19,-467.86 1049.03,-478.29 1055.13,-474.87"/>
</g>
<!-- lalapps -->
<g id="node25" class="node">
<title>lalapps</title>
<ellipse fill="#fde725" stroke="black" cx="942" cy="-378" rx="45" ry="18"/>
<text text-anchor="middle" x="942" y="-374.3" font-family="Times,serif" font-size="14.00">lalapps</text>
</g>
<!-- lal&#45;&gt;lalapps -->
<g id="edge22" class="edge">
<title>lal&#45;&gt;lalapps</title>
<path fill="none" stroke="black" d="M990.93,-729.3C1037.1,-712.76 1134,-669.21 1134,-595 1134,-595 1134,-595 1134,-521 1134,-480.55 1142.33,-461.82 1115,-432 1084.99,-399.26 1035.37,-386.52 996.95,-381.67"/>
<polygon fill="black" stroke="black" points="997.27,-378.19 986.94,-380.55 996.49,-385.14 997.27,-378.19"/>
</g>
<!-- ligo.skymap -->
<g id="node26" class="node">
<title>ligo.skymap</title>
<ellipse fill="#fde725" stroke="black" cx="854" cy="-306" rx="64.5" ry="18"/>
<text text-anchor="middle" x="854" y="-302.3" font-family="Times,serif" font-size="14.00">ligo skymap</text>
</g>
<!-- lal&#45;&gt;ligo.skymap -->
<g id="edge23" class="edge">
<title>lal&#45;&gt;ligo.skymap</title>
<path fill="none" stroke="black" d="M939.72,-736.92C885.58,-735.75 761.86,-728.04 670,-684 615.75,-657.99 568,-655.16 568,-595 568,-595 568,-595 568,-449 568,-353.78 696.76,-322.41 781.49,-312.08"/>
<polygon fill="black" stroke="black" points="782.05,-315.53 791.59,-310.92 781.26,-308.58 782.05,-315.53"/>
</g>
<!-- bayeswave -->
<g id="node27" class="node">
<title>bayeswave</title>
<ellipse fill="#fde725" stroke="black" cx="947" cy="-234" rx="54.69" ry="18"/>
<text text-anchor="middle" x="947" y="-230.3" font-family="Times,serif" font-size="14.00">bayeswave</text>
</g>
<!-- lal&#45;&gt;bayeswave -->
<g id="edge24" class="edge">
<title>lal&#45;&gt;bayeswave</title>
<path fill="none" stroke="black" d="M994.25,-737.67C1073.78,-738.09 1300,-727.61 1300,-595 1300,-595 1300,-595 1300,-377 1300,-313.85 1103.12,-265.83 1003.43,-245.56"/>
<polygon fill="black" stroke="black" points="1004,-242.1 993.51,-243.57 1002.63,-248.96 1004,-242.1"/>
</g>
<!-- gstlal -->
<g id="node28" class="node">
<title>gstlal</title>
<ellipse fill="#fde725" stroke="black" cx="751" cy="-450" rx="40.5" ry="18"/>
<text text-anchor="middle" x="751" y="-446.3" font-family="Times,serif" font-size="14.00">gstlal</text>
</g>
<!-- lal&#45;&gt;gstlal -->
<g id="edge25" class="edge">
<title>lal&#45;&gt;gstlal</title>
<path fill="none" stroke="black" d="M939.9,-736.03C876.52,-733.13 721.59,-722.21 690,-684 638.69,-621.94 699.1,-521.39 732.18,-475.38"/>
<polygon fill="black" stroke="black" points="735.1,-477.32 738.2,-467.19 729.46,-473.18 735.1,-477.32"/>
</g>
<!-- lalsimulation&#45;&gt;lalburst -->
<g id="edge26" class="edge">
<title>lalsimulation&#45;&gt;lalburst</title>
<path fill="none" stroke="black" d="M812.73,-650.67C844.91,-639.05 890.2,-622.71 923.39,-610.74"/>
<polygon fill="black" stroke="black" points="924.62,-614.01 932.84,-607.33 922.24,-607.43 924.62,-614.01"/>
</g>
<!-- lalsimulation&#45;&gt;lalinspiral -->
<g id="edge27" class="edge">
<title>lalsimulation&#45;&gt;lalinspiral</title>
<path fill="none" stroke="black" d="M786.76,-648.15C807.08,-623.28 845.24,-576.57 868.75,-547.79"/>
<polygon fill="black" stroke="black" points="871.64,-549.78 875.26,-539.82 866.22,-545.36 871.64,-549.78"/>
</g>
<!-- lalsimulation&#45;&gt;lalinference -->
<g id="edge28" class="edge">
<title>lalsimulation&#45;&gt;lalinference</title>
<path fill="none" stroke="black" d="M842.52,-659.75C908.97,-653.15 1002.44,-639.24 1026,-612 1058.05,-574.95 1050.97,-513.38 1043.27,-478.08"/>
<polygon fill="black" stroke="black" points="1046.6,-476.96 1040.91,-468.03 1039.79,-478.56 1046.6,-476.96"/>
</g>
<!-- lalsimulation&#45;&gt;lalapps -->
<g id="edge29" class="edge">
<title>lalsimulation&#45;&gt;lalapps</title>
<path fill="none" stroke="black" d="M774.46,-647.89C777.7,-617.18 787.53,-551.51 815,-504 839.81,-461.1 883.29,-422.94 912.37,-400.39"/>
<polygon fill="black" stroke="black" points="914.69,-403.02 920.53,-394.18 910.45,-397.46 914.69,-403.02"/>
</g>
<!-- lalsimulation&#45;&gt;ligo.skymap -->
<g id="edge30" class="edge">
<title>lalsimulation&#45;&gt;ligo.skymap</title>
<path fill="none" stroke="black" d="M753.25,-648.41C726.49,-623.95 682,-575.41 682,-523 682,-523 682,-523 682,-449 682,-385.16 753.34,-344.65 804.13,-323.9"/>
<polygon fill="black" stroke="black" points="805.66,-327.06 813.67,-320.13 803.09,-320.55 805.66,-327.06"/>
</g>
<!-- lalsimulation&#45;&gt;bayeswave -->
<g id="edge31" class="edge">
<title>lalsimulation&#45;&gt;bayeswave</title>
<path fill="none" stroke="black" d="M743.4,-649.43C705.32,-627.01 644,-581.79 644,-523 644,-523 644,-523 644,-377 644,-272.39 793.9,-244.69 882.83,-237.46"/>
<polygon fill="black" stroke="black" points="883.12,-240.95 892.83,-236.71 882.6,-233.97 883.12,-240.95"/>
</g>
<!-- lalsimulation&#45;&gt;gstlal -->
<g id="edge32" class="edge">
<title>lalsimulation&#45;&gt;gstlal</title>
<path fill="none" stroke="black" d="M760.69,-647.78C754.35,-637.84 747.27,-624.8 744,-612 732.29,-566.22 739.08,-510.76 745.06,-478.33"/>
<polygon fill="black" stroke="black" points="748.54,-478.74 747.02,-468.26 741.67,-477.4 748.54,-478.74"/>
</g>
<!-- lalburst&#45;&gt;lalinspiral -->
<g id="edge33" class="edge">
<title>lalburst&#45;&gt;lalinspiral</title>
<path fill="none" stroke="black" d="M949.3,-577.12C939.07,-567.94 926.03,-556.23 914.69,-546.06"/>
<polygon fill="black" stroke="black" points="916.95,-543.38 907.17,-539.31 912.28,-548.59 916.95,-543.38"/>
</g>
<!-- lalburst&#45;&gt;lalinference -->
<g id="edge34" class="edge">
<title>lalburst&#45;&gt;lalinference</title>
<path fill="none" stroke="black" d="M976.75,-575.99C982.54,-565.69 989.93,-552.21 996,-540 1006.38,-519.14 1017.15,-495.01 1024.9,-477.14"/>
<polygon fill="black" stroke="black" points="1028.13,-478.48 1028.87,-467.91 1021.7,-475.71 1028.13,-478.48"/>
</g>
<!-- lalburst&#45;&gt;lalapps -->
<g id="edge35" class="edge">
<title>lalburst&#45;&gt;lalapps</title>
<path fill="none" stroke="black" d="M966.56,-575.9C965.98,-557.95 964.69,-528.93 962,-504 960.02,-485.63 952.01,-437.45 946.75,-406.56"/>
<polygon fill="black" stroke="black" points="950.15,-405.69 945.02,-396.43 943.25,-406.87 950.15,-405.69"/>
</g>
<!-- lalburst&#45;&gt;gstlal -->
<g id="edge36" class="edge">
<title>lalburst&#45;&gt;gstlal</title>
<path fill="none" stroke="black" d="M923.35,-585.19C891,-577.74 847.13,-564 815,-540 792.62,-523.29 774.87,-496.49 763.79,-476.66"/>
<polygon fill="black" stroke="black" points="766.86,-474.98 759.04,-467.83 760.7,-478.29 766.86,-474.98"/>
</g>
<!-- lalpulsar&#45;&gt;lalinference -->
<g id="edge37" class="edge">
<title>lalpulsar&#45;&gt;lalinference</title>
<path fill="none" stroke="black" d="M1182.96,-507.83C1154.56,-496.85 1113.81,-481.09 1082.42,-468.95"/>
<polygon fill="black" stroke="black" points="1083.6,-465.65 1073.01,-465.31 1081.07,-472.18 1083.6,-465.65"/>
</g>
<!-- lalpulsar&#45;&gt;lalapps -->
<g id="edge38" class="edge">
<title>lalpulsar&#45;&gt;lalapps</title>
<path fill="none" stroke="black" d="M1208.47,-504.15C1197.34,-483.91 1175.94,-450.37 1148,-432 1102.05,-401.79 1039.86,-388.8 995.87,-383.21"/>
<polygon fill="black" stroke="black" points="996.28,-379.73 985.94,-382.03 995.46,-386.68 996.28,-379.73"/>
</g>
<!-- lalinspiral&#45;&gt;lalinference -->
<g id="edge39" class="edge">
<title>lalinspiral&#45;&gt;lalinference</title>
<path fill="none" stroke="black" d="M920.17,-506.15C942.05,-495.74 971.51,-481.71 995.25,-470.41"/>
<polygon fill="black" stroke="black" points="996.84,-473.52 1004.36,-466.07 993.83,-467.2 996.84,-473.52"/>
</g>
<!-- lalinspiral&#45;&gt;lalapps -->
<g id="edge40" class="edge">
<title>lalinspiral&#45;&gt;lalapps</title>
<path fill="none" stroke="black" d="M895.39,-503.87C904.51,-479.46 921.31,-434.43 932.06,-405.64"/>
<polygon fill="black" stroke="black" points="935.37,-406.78 935.58,-396.19 928.81,-404.33 935.37,-406.78"/>
</g>
<!-- lalinspiral&#45;&gt;ligo.skymap -->
<g id="edge41" class="edge">
<title>lalinspiral&#45;&gt;ligo.skymap</title>
<path fill="none" stroke="black" d="M886.19,-503.85C880.13,-466.75 865.74,-378.81 858.43,-334.1"/>
<polygon fill="black" stroke="black" points="861.89,-333.54 856.82,-324.23 854.98,-334.67 861.89,-333.54"/>
</g>
<!-- lalinspiral&#45;&gt;gstlal -->
<g id="edge42" class="edge">
<title>lalinspiral&#45;&gt;gstlal</title>
<path fill="none" stroke="black" d="M859.4,-505.98C837.82,-495.04 808.51,-480.17 785.81,-468.66"/>
<polygon fill="black" stroke="black" points="787.34,-465.51 776.84,-464.11 784.17,-471.75 787.34,-465.51"/>
</g>
<!-- lalinference&#45;&gt;lalapps -->
<g id="edge43" class="edge">
<title>lalinference&#45;&gt;lalapps</title>
<path fill="none" stroke="black" d="M1014.2,-432.76C1001.26,-423.13 984.71,-410.81 970.72,-400.39"/>
<polygon fill="black" stroke="black" points="972.51,-397.35 962.4,-394.19 968.33,-402.97 972.51,-397.35"/>
</g>
<!-- lalinference&#45;&gt;bayeswave -->
<g id="edge44" class="edge">
<title>lalinference&#45;&gt;bayeswave</title>
<path fill="none" stroke="black" d="M1028.87,-431.85C1013.34,-394.5 976.37,-305.63 957.9,-261.21"/>
<polygon fill="black" stroke="black" points="961.11,-259.82 954.04,-251.94 954.65,-262.51 961.11,-259.82"/>
</g>
<!-- lalapps&#45;&gt;ligo.skymap -->
<g id="edge45" class="edge">
<title>lalapps&#45;&gt;ligo.skymap</title>
<path fill="none" stroke="black" d="M922.47,-361.46C910.64,-352.06 895.36,-339.9 882.24,-329.46"/>
<polygon fill="black" stroke="black" points="884.4,-326.71 874.39,-323.22 880.04,-332.19 884.4,-326.71"/>
</g>
<!-- lalapps&#45;&gt;bayeswave -->
<g id="edge46" class="edge">
<title>lalapps&#45;&gt;bayeswave</title>
<path fill="none" stroke="black" d="M942.6,-359.87C943.46,-335.67 945.02,-291.21 946.04,-262.39"/>
<polygon fill="black" stroke="black" points="949.54,-262.31 946.39,-252.19 942.54,-262.06 949.54,-262.31"/>
</g>
<!-- ligo.skymap&#45;&gt;bayeswave -->
<g id="edge47" class="edge">
<title>ligo.skymap&#45;&gt;bayeswave</title>
<path fill="none" stroke="black" d="M875.57,-288.76C888.19,-279.27 904.29,-267.15 918.01,-256.82"/>
<polygon fill="black" stroke="black" points="920.3,-259.48 926.19,-250.67 916.09,-253.88 920.3,-259.48"/>
</g>
<!-- root -->
<g id="node29" class="node">
<title>root</title>
<g id="a_node29"><a xlink:href="https://github.com/conda-forge/root-feedstock/pull/78" xlink:title="root">
<ellipse fill="#31688e" stroke="black" cx="1417" cy="-738" rx="30.59" ry="18"/>
<text text-anchor="middle" x="1417" y="-734.3" font-family="Times,serif" font-size="14.00" fill="white">root</text>
</a>
</g>
</g>
<!-- ostaphep -->
<g id="node30" class="node">
<title>ostaphep</title>
<ellipse fill="#fde725" stroke="black" cx="1378" cy="-666" rx="50.09" ry="18"/>
<text text-anchor="middle" x="1378" y="-662.3" font-family="Times,serif" font-size="14.00">ostaphep</text>
</g>
<!-- root&#45;&gt;ostaphep -->
<g id="edge48" class="edge">
<title>root&#45;&gt;ostaphep</title>
<path fill="none" stroke="black" d="M1407.95,-720.76C1403.36,-712.53 1397.68,-702.32 1392.49,-693.02"/>
<polygon fill="black" stroke="black" points="1395.47,-691.16 1387.54,-684.12 1389.35,-694.56 1395.47,-691.16"/>
</g>
<!-- gwollum -->
<g id="node31" class="node">
<title>gwollum</title>
<ellipse fill="#fde725" stroke="black" cx="1456" cy="-594" rx="45" ry="18"/>
<text text-anchor="middle" x="1456" y="-590.3" font-family="Times,serif" font-size="14.00">gwollum</text>
</g>
<!-- root&#45;&gt;gwollum -->
<g id="edge49" class="edge">
<title>root&#45;&gt;gwollum</title>
<path fill="none" stroke="black" d="M1424.15,-720.04C1428.3,-709.74 1433.4,-696.27 1437,-684 1443,-663.57 1447.95,-639.98 1451.29,-622.22"/>
<polygon fill="black" stroke="black" points="1454.76,-622.72 1453.11,-612.25 1447.87,-621.46 1454.76,-622.72"/>
</g>
<!-- plumed -->
<g id="node32" class="node">
<title>plumed</title>
<g id="a_node32"><a xlink:href="https://github.com/conda-forge/plumed-feedstock/pull/12" xlink:title="plumed">
<ellipse fill="#31688e" stroke="black" cx="1579" cy="-738" rx="40.5" ry="18"/>
<text text-anchor="middle" x="1579" y="-734.3" font-family="Times,serif" font-size="14.00" fill="white">plumed</text>
</a>
</g>
</g>
<!-- dakota -->
<g id="node33" class="node">
<title>dakota</title>
<g id="a_node33"><a xlink:href="https://github.com/conda-forge/dakota-feedstock/pull/12" xlink:title="dakota">
<ellipse fill="#31688e" stroke="black" cx="1579" cy="-666" rx="40.5" ry="18"/>
<text text-anchor="middle" x="1579" y="-662.3" font-family="Times,serif" font-size="14.00" fill="white">dakota</text>
</a>
</g>
</g>
<!-- plumed&#45;&gt;dakota -->
<!-- astrometry -->
<g id="node34" class="node">
<title>astrometry</title>
<g id="a_node34"><a xlink:href="https://github.com/conda-forge/astrometry-feedstock/pull/3" xlink:title="astrometry">
<ellipse fill="#31688e" stroke="black" cx="1579" cy="-594" rx="60" ry="18"/>
<text text-anchor="middle" x="1579" y="-590.3" font-family="Times,serif" font-size="14.00" fill="white">astrometry</text>
</a>
</g>
</g>
<!-- dakota&#45;&gt;astrometry -->
<!-- pyinterp -->
<g id="node35" class="node">
<title>pyinterp</title>
<g id="a_node35"><a xlink:href="https://github.com/conda-forge/pyinterp-feedstock/pull/13" xlink:title="pyinterp">
<ellipse fill="#31688e" stroke="black" cx="1579" cy="-522" rx="50.09" ry="18"/>
<text text-anchor="middle" x="1579" y="-518.3" font-family="Times,serif" font-size="14.00" fill="white">pyinterp</text>
</a>
</g>
</g>
<!-- astrometry&#45;&gt;pyinterp -->
<!-- pyccl -->
<g id="node36" class="node">
<title>pyccl</title>
<g id="a_node36"><a xlink:href="https://github.com/conda-forge/pyccl-feedstock/pull/13" xlink:title="pyccl">
<ellipse fill="#31688e" stroke="black" cx="1579" cy="-450" rx="35.19" ry="18"/>
<text text-anchor="middle" x="1579" y="-446.3" font-family="Times,serif" font-size="14.00" fill="white">pyccl</text>
</a>
</g>
</g>
<!-- pyinterp&#45;&gt;pyccl -->
<!-- gwsurrogate -->
<g id="node37" class="node">
<title>gwsurrogate</title>
<g id="a_node37"><a xlink:href="https://github.com/conda-forge/gwsurrogate-feedstock/pull/6" xlink:title="gwsurrogate">
<ellipse fill="#31688e" stroke="black" cx="1579" cy="-378" rx="64.5" ry="18"/>
<text text-anchor="middle" x="1579" y="-374.3" font-family="Times,serif" font-size="14.00" fill="white">gwsurrogate</text>
</a>
</g>
</g>
<!-- pyccl&#45;&gt;gwsurrogate -->
</g>
</svg>
