<?xml version="1.0" encoding="UTF-8" standalone="no"?>
<!DOCTYPE svg PUBLIC "-//W3C//DTD SVG 1.1//EN"
 "http://www.w3.org/Graphics/SVG/1.1/DTD/svg11.dtd">
<!-- Generated by graphviz version 2.42.3 (20191010.1750)
 -->
<!-- Title: %3 Pages: 1 -->
<svg width="1800pt" height="764pt"
 viewBox="0.00 0.00 1799.50 764.00" xmlns="http://www.w3.org/2000/svg" xmlns:xlink="http://www.w3.org/1999/xlink">
<g id="graph0" class="graph" transform="scale(1 1) rotate(0) translate(4 760)">
<title>%3</title>
<polygon fill="white" stroke="transparent" points="-4,4 -4,-760 1795.5,-760 1795.5,4 -4,4"/>
<!-- astro&#45;gala -->
<g id="node1" class="node">
<title>astro&#45;gala</title>
<g id="a_node1"><a xlink:href="https://github.com/conda-forge/astro-gala-feedstock/pull/9" xlink:title="astro gala">
<ellipse fill="#31688e" stroke="black" cx="60" cy="-738" rx="60" ry="18"/>
<text text-anchor="middle" x="60" y="-734.3" font-family="Times,serif" font-size="14.00" fill="white">astro gala</text>
</a>
</g>
</g>
<!-- cvxopt -->
<g id="node2" class="node">
<title>cvxopt</title>
<g id="a_node2"><a xlink:href="https://github.com/conda-forge/cvxopt-feedstock/pull/39" xlink:title="cvxopt">
<ellipse fill="#31688e" stroke="black" cx="60" cy="-666" rx="40.5" ry="18"/>
<text text-anchor="middle" x="60" y="-662.3" font-family="Times,serif" font-size="14.00" fill="white">cvxopt</text>
</a>
</g>
</g>
<!-- astro&#45;gala&#45;&gt;cvxopt -->
<!-- galpy -->
<g id="node3" class="node">
<title>galpy</title>
<g id="a_node3"><a xlink:href="https://github.com/conda-forge/galpy-feedstock/pull/12" xlink:title="galpy">
<ellipse fill="#31688e" stroke="black" cx="60" cy="-594" rx="35.19" ry="18"/>
<text text-anchor="middle" x="60" y="-590.3" font-family="Times,serif" font-size="14.00" fill="white">galpy</text>
</a>
</g>
</g>
<!-- cvxopt&#45;&gt;galpy -->
<!-- giac -->
<g id="node6" class="node">
<title>giac</title>
<g id="a_node6"><a xlink:href="https://github.com/conda-forge/giac-feedstock/pull/17" xlink:title="giac">
<ellipse fill="#31688e" stroke="black" cx="60" cy="-522" rx="30.59" ry="18"/>
<text text-anchor="middle" x="60" y="-518.3" font-family="Times,serif" font-size="14.00" fill="white">giac</text>
</a>
</g>
</g>
<!-- galpy&#45;&gt;giac -->
<!-- cythongsl -->
<g id="node4" class="node">
<title>cythongsl</title>
<g id="a_node4"><a xlink:href="https://github.com/conda-forge/cythongsl-feedstock/pull/11" xlink:title="cythongsl">
<ellipse fill="#31688e" stroke="black" cx="193" cy="-738" rx="54.69" ry="18"/>
<text text-anchor="middle" x="193" y="-734.3" font-family="Times,serif" font-size="14.00" fill="white">cythongsl</text>
</a>
</g>
</g>
<!-- slda -->
<g id="node5" class="node">
<title>slda</title>
<ellipse fill="#fde725" stroke="black" cx="193" cy="-666" rx="30.59" ry="18"/>
<text text-anchor="middle" x="193" y="-662.3" font-family="Times,serif" font-size="14.00">slda</text>
</g>
<!-- cythongsl&#45;&gt;slda -->
<g id="edge3" class="edge">
<title>cythongsl&#45;&gt;slda</title>
<path fill="none" stroke="black" d="M193,-719.7C193,-711.98 193,-702.71 193,-694.11"/>
<polygon fill="black" stroke="black" points="196.5,-694.1 193,-684.1 189.5,-694.1 196.5,-694.1"/>
</g>
<!-- libdiffpy -->
<g id="node7" class="node">
<title>libdiffpy</title>
<g id="a_node7"><a xlink:href="https://github.com/conda-forge/libdiffpy-feedstock/pull/6" xlink:title="libdiffpy">
<ellipse fill="#31688e" stroke="black" cx="60" cy="-450" rx="54.69" ry="18"/>
<text text-anchor="middle" x="60" y="-446.3" font-family="Times,serif" font-size="14.00" fill="white">libdiffpy</text>
</a>
</g>
</g>
<!-- giac&#45;&gt;libdiffpy -->
<!-- ncl -->
<g id="node8" class="node">
<title>ncl</title>
<g id="a_node8"><a xlink:href="https://github.com/conda-forge/ncl-feedstock/pull/73" xlink:title="ncl">
<ellipse fill="#31688e" stroke="black" cx="60" cy="-378" rx="27" ry="18"/>
<text text-anchor="middle" x="60" y="-374.3" font-family="Times,serif" font-size="14.00" fill="white">ncl</text>
</a>
</g>
</g>
<!-- libdiffpy&#45;&gt;ncl -->
<!-- nco -->
<g id="node9" class="node">
<title>nco</title>
<g id="a_node9"><a xlink:href="https://github.com/conda-forge/nco-feedstock/pull/104" xlink:title="nco">
<ellipse fill="#31688e" stroke="black" cx="60" cy="-306" rx="27" ry="18"/>
<text text-anchor="middle" x="60" y="-302.3" font-family="Times,serif" font-size="14.00" fill="white">nco</text>
</a>
</g>
</g>
<!-- ncl&#45;&gt;nco -->
<!-- qgis -->
<g id="node10" class="node">
<title>qgis</title>
<ellipse fill="#fde725" stroke="black" cx="60" cy="-234" rx="30.59" ry="18"/>
<text text-anchor="middle" x="60" y="-230.3" font-family="Times,serif" font-size="14.00">qgis</text>
</g>
<!-- nco&#45;&gt;qgis -->
<!-- root5 -->
<g id="node11" class="node">
<title>root5</title>
<g id="a_node11"><a xlink:href="https://github.com/conda-forge/root5-feedstock/pull/20" xlink:title="root5">
<ellipse fill="#31688e" stroke="black" cx="60" cy="-162" rx="35.19" ry="18"/>
<text text-anchor="middle" x="60" y="-158.3" font-family="Times,serif" font-size="14.00" fill="white">root5</text>
</a>
</g>
</g>
<!-- qgis&#45;&gt;root5 -->
<!-- rsgislib -->
<g id="node17" class="node">
<title>rsgislib</title>
<g id="a_node17"><a xlink:href="https://github.com/conda-forge/rsgislib-feedstock/pull/27" xlink:title="rsgislib">
<ellipse fill="#31688e" stroke="black" cx="60" cy="-90" rx="50.09" ry="18"/>
<text text-anchor="middle" x="60" y="-86.3" font-family="Times,serif" font-size="14.00" fill="white">rsgislib</text>
</a>
</g>
</g>
<!-- root5&#45;&gt;rsgislib -->
<!-- r&#45;base -->
<g id="node12" class="node">
<title>r&#45;base</title>
<g id="a_node12"><a xlink:href="https://github.com/conda-forge/r-base-feedstock/pull/115" xlink:title="r base">
<ellipse fill="#31688e" stroke="black" cx="363" cy="-738" rx="40.5" ry="18"/>
<text text-anchor="middle" x="363" y="-734.3" font-family="Times,serif" font-size="14.00" fill="white">r base</text>
</a>
</g>
</g>
<!-- r&#45;gsl -->
<g id="node13" class="node">
<title>r&#45;gsl</title>
<ellipse fill="#fde725" stroke="black" cx="277" cy="-666" rx="35.19" ry="18"/>
<text text-anchor="middle" x="277" y="-662.3" font-family="Times,serif" font-size="14.00">r gsl</text>
</g>
<!-- r&#45;base&#45;&gt;r&#45;gsl -->
<g id="edge10" class="edge">
<title>r&#45;base&#45;&gt;r&#45;gsl</title>
<path fill="none" stroke="black" d="M344.34,-721.81C332.23,-711.95 316.28,-698.97 302.94,-688.12"/>
<polygon fill="black" stroke="black" points="305,-685.28 295.03,-681.68 300.58,-690.71 305,-685.28"/>
</g>
<!-- r&#45;rcppgsl -->
<g id="node14" class="node">
<title>r&#45;rcppgsl</title>
<ellipse fill="#fde725" stroke="black" cx="383" cy="-594" rx="54.69" ry="18"/>
<text text-anchor="middle" x="383" y="-590.3" font-family="Times,serif" font-size="14.00">r rcppgsl</text>
</g>
<!-- r&#45;base&#45;&gt;r&#45;rcppgsl -->
<g id="edge11" class="edge">
<title>r&#45;base&#45;&gt;r&#45;rcppgsl</title>
<path fill="none" stroke="black" d="M365.41,-719.87C368.82,-695.67 375.08,-651.21 379.14,-622.39"/>
<polygon fill="black" stroke="black" points="382.65,-622.58 380.58,-612.19 375.72,-621.6 382.65,-622.58"/>
</g>
<!-- r&#45;topicmodels -->
<g id="node15" class="node">
<title>r&#45;topicmodels</title>
<ellipse fill="#fde725" stroke="black" cx="466" cy="-522" rx="74.19" ry="18"/>
<text text-anchor="middle" x="466" y="-518.3" font-family="Times,serif" font-size="14.00">r topicmodels</text>
</g>
<!-- r&#45;base&#45;&gt;r&#45;topicmodels -->
<g id="edge12" class="edge">
<title>r&#45;base&#45;&gt;r&#45;topicmodels</title>
<path fill="none" stroke="black" d="M376.9,-720.81C395.7,-698.05 428.94,-654.61 447,-612 455.36,-592.27 460.2,-568.47 462.9,-550.44"/>
<polygon fill="black" stroke="black" points="466.39,-550.7 464.28,-540.32 459.46,-549.75 466.39,-550.7"/>
</g>
<!-- r&#45;aws -->
<g id="node16" class="node">
<title>r&#45;aws</title>
<ellipse fill="#fde725" stroke="black" cx="275" cy="-594" rx="35.19" ry="18"/>
<text text-anchor="middle" x="275" y="-590.3" font-family="Times,serif" font-size="14.00">r aws</text>
</g>
<!-- r&#45;base&#45;&gt;r&#45;aws -->
<g id="edge13" class="edge">
<title>r&#45;base&#45;&gt;r&#45;aws</title>
<path fill="none" stroke="black" d="M356.69,-720.21C349.4,-701.76 336.4,-671.61 321,-648 314.1,-637.42 305.25,-626.72 297.16,-617.73"/>
<polygon fill="black" stroke="black" points="299.66,-615.29 290.31,-610.32 294.52,-620.04 299.66,-615.29"/>
</g>
<!-- r&#45;gsl&#45;&gt;r&#45;aws -->
<g id="edge14" class="edge">
<title>r&#45;gsl&#45;&gt;r&#45;aws</title>
<path fill="none" stroke="black" d="M276.51,-647.7C276.29,-639.98 276.02,-630.71 275.77,-622.11"/>
<polygon fill="black" stroke="black" points="279.27,-622 275.49,-612.1 272.28,-622.2 279.27,-622"/>
</g>
<!-- sagelib -->
<g id="node18" class="node">
<title>sagelib</title>
<g id="a_node18"><a xlink:href="https://github.com/conda-forge/sagelib-feedstock/pull/92" xlink:title="sagelib">
<ellipse fill="#31688e" stroke="black" cx="60" cy="-18" rx="45" ry="18"/>
<text text-anchor="middle" x="60" y="-14.3" font-family="Times,serif" font-size="14.00" fill="white">sagelib</text>
</a>
</g>
</g>
<!-- rsgislib&#45;&gt;sagelib -->
<!-- msprime -->
<g id="node19" class="node">
<title>msprime</title>
<g id="a_node19"><a xlink:href="https://github.com/conda-forge/msprime-feedstock/pull/40" xlink:title="msprime">
<ellipse fill="#31688e" stroke="black" cx="623" cy="-738" rx="45" ry="18"/>
<text text-anchor="middle" x="623" y="-734.3" font-family="Times,serif" font-size="14.00" fill="white">msprime</text>
</a>
</g>
</g>
<!-- spdlib -->
<g id="node20" class="node">
<title>spdlib</title>
<g id="a_node20"><a xlink:href="https://github.com/conda-forge/spdlib-feedstock/pull/10" xlink:title="spdlib">
<ellipse fill="#31688e" stroke="black" cx="623" cy="-666" rx="40.5" ry="18"/>
<text text-anchor="middle" x="623" y="-662.3" font-family="Times,serif" font-size="14.00" fill="white">spdlib</text>
</a>
</g>
</g>
<!-- msprime&#45;&gt;spdlib -->
<!-- numcosmo -->
<g id="node21" class="node">
<title>numcosmo</title>
<g id="a_node21"><a xlink:href="https://github.com/conda-forge/numcosmo-feedstock/pull/12" xlink:title="numcosmo">
<ellipse fill="#31688e" stroke="black" cx="623" cy="-594" rx="50.09" ry="18"/>
<text text-anchor="middle" x="623" y="-590.3" font-family="Times,serif" font-size="14.00" fill="white">numcosmo</text>
</a>
</g>
</g>
<!-- spdlib&#45;&gt;numcosmo -->
<!-- pygslodeiv2 -->
<g id="node22" class="node">
<title>pygslodeiv2</title>
<g id="a_node22"><a xlink:href="https://github.com/conda-forge/pygslodeiv2-feedstock/pull/8" xlink:title="pygslodeiv2">
<ellipse fill="#31688e" stroke="black" cx="623" cy="-522" rx="64.5" ry="18"/>
<text text-anchor="middle" x="623" y="-518.3" font-family="Times,serif" font-size="14.00" fill="white">pygslodeiv2</text>
</a>
</g>
</g>
<!-- numcosmo&#45;&gt;pygslodeiv2 -->
<!-- pymeep -->
<g id="node23" class="node">
<title>pymeep</title>
<g id="a_node23"><a xlink:href="https://github.com/conda-forge/pymeep-feedstock/pull/27" xlink:title="pymeep">
<ellipse fill="#31688e" stroke="black" cx="623" cy="-450" rx="40.5" ry="18"/>
<text text-anchor="middle" x="623" y="-446.3" font-family="Times,serif" font-size="14.00" fill="white">pymeep</text>
</a>
</g>
</g>
<!-- pygslodeiv2&#45;&gt;pymeep -->
<!-- namaster -->
<g id="node34" class="node">
<title>namaster</title>
<g id="a_node34"><a xlink:href="https://github.com/conda-forge/namaster-feedstock/pull/13" xlink:title="namaster">
<ellipse fill="#31688e" stroke="black" cx="623" cy="-378" rx="50.09" ry="18"/>
<text text-anchor="middle" x="623" y="-374.3" font-family="Times,serif" font-size="14.00" fill="white">namaster</text>
</a>
</g>
</g>
<!-- pymeep&#45;&gt;namaster -->
<!-- lal -->
<g id="node24" class="node">
<title>lal</title>
<g id="a_node24"><a xlink:href="https://github.com/conda-forge/lal-feedstock/pull/35" xlink:title="lal">
<ellipse fill="#31688e" stroke="black" cx="1115" cy="-738" rx="27" ry="18"/>
<text text-anchor="middle" x="1115" y="-734.3" font-family="Times,serif" font-size="14.00" fill="white">lal</text>
</a>
</g>
</g>
<!-- lalsimulation -->
<g id="node25" class="node">
<title>lalsimulation</title>
<ellipse fill="#fde725" stroke="black" cx="920" cy="-666" rx="74.19" ry="18"/>
<text text-anchor="middle" x="920" y="-662.3" font-family="Times,serif" font-size="14.00">lalsimulation</text>
</g>
<!-- lal&#45;&gt;lalsimulation -->
<g id="edge21" class="edge">
<title>lal&#45;&gt;lalsimulation</title>
<path fill="none" stroke="black" d="M1091.87,-728.7C1061.82,-717.91 1008.6,-698.8 969.31,-684.7"/>
<polygon fill="black" stroke="black" points="970.24,-681.32 959.65,-681.23 967.88,-687.91 970.24,-681.32"/>
</g>
<!-- lalburst -->
<g id="node26" class="node">
<title>lalburst</title>
<ellipse fill="#fde725" stroke="black" cx="1115" cy="-594" rx="50.09" ry="18"/>
<text text-anchor="middle" x="1115" y="-590.3" font-family="Times,serif" font-size="14.00">lalburst</text>
</g>
<!-- lal&#45;&gt;lalburst -->
<g id="edge22" class="edge">
<title>lal&#45;&gt;lalburst</title>
<path fill="none" stroke="black" d="M1115,-719.87C1115,-695.67 1115,-651.21 1115,-622.39"/>
<polygon fill="black" stroke="black" points="1118.5,-622.19 1115,-612.19 1111.5,-622.19 1118.5,-622.19"/>
</g>
<!-- lalpulsar -->
<g id="node27" class="node">
<title>lalpulsar</title>
<ellipse fill="#fde725" stroke="black" cx="1365" cy="-522" rx="54.69" ry="18"/>
<text text-anchor="middle" x="1365" y="-518.3" font-family="Times,serif" font-size="14.00">lalpulsar</text>
</g>
<!-- lal&#45;&gt;lalpulsar -->
<g id="edge23" class="edge">
<title>lal&#45;&gt;lalpulsar</title>
<path fill="none" stroke="black" d="M1142.05,-736.08C1180.73,-733.36 1252.02,-722.99 1296,-684 1335.9,-648.62 1353.51,-586.17 1360.65,-550.33"/>
<polygon fill="black" stroke="black" points="1364.16,-550.59 1362.54,-540.12 1357.28,-549.32 1364.16,-550.59"/>
</g>
<!-- lalinspiral -->
<g id="node28" class="node">
<title>lalinspiral</title>
<ellipse fill="#fde725" stroke="black" cx="1037" cy="-522" rx="64.5" ry="18"/>
<text text-anchor="middle" x="1037" y="-518.3" font-family="Times,serif" font-size="14.00">lalinspiral</text>
</g>
<!-- lal&#45;&gt;lalinspiral -->
<g id="edge24" class="edge">
<title>lal&#45;&gt;lalinspiral</title>
<path fill="none" stroke="black" d="M1105.93,-720.92C1093.11,-697.6 1069.74,-652.7 1056,-612 1049.14,-591.7 1044.22,-567.93 1041.11,-550.06"/>
<polygon fill="black" stroke="black" points="1044.53,-549.33 1039.44,-540.04 1037.63,-550.48 1044.53,-549.33"/>
</g>
<!-- lalinference -->
<g id="node29" class="node">
<title>lalinference</title>
<ellipse fill="#fde725" stroke="black" cx="1184" cy="-450" rx="69.59" ry="18"/>
<text text-anchor="middle" x="1184" y="-446.3" font-family="Times,serif" font-size="14.00">lalinference</text>
</g>
<!-- lal&#45;&gt;lalinference -->
<g id="edge25" class="edge">
<title>lal&#45;&gt;lalinference</title>
<path fill="none" stroke="black" d="M1127.98,-721.99C1146.58,-699.63 1180.5,-655.5 1198,-612 1216.04,-567.15 1222.28,-551.01 1211,-504 1208.76,-494.66 1204.58,-485.11 1200.17,-476.74"/>
<polygon fill="black" stroke="black" points="1203.13,-474.87 1195.19,-467.86 1197.03,-478.29 1203.13,-474.87"/>
</g>
<!-- lalapps -->
<g id="node30" class="node">
<title>lalapps</title>
<ellipse fill="#fde725" stroke="black" cx="1089" cy="-378" rx="45" ry="18"/>
<text text-anchor="middle" x="1089" y="-374.3" font-family="Times,serif" font-size="14.00">lalapps</text>
</g>
<!-- lal&#45;&gt;lalapps -->
<g id="edge26" class="edge">
<title>lal&#45;&gt;lalapps</title>
<path fill="none" stroke="black" d="M1138.93,-729.3C1185.1,-712.76 1282,-669.21 1282,-595 1282,-595 1282,-595 1282,-521 1282,-480.55 1290.35,-461.79 1263,-432 1232.71,-399.01 1182.58,-386.31 1143.88,-381.54"/>
<polygon fill="black" stroke="black" points="1144.13,-378.04 1133.81,-380.44 1143.37,-385 1144.13,-378.04"/>
</g>
<!-- ligo.skymap -->
<g id="node31" class="node">
<title>ligo.skymap</title>
<ellipse fill="#fde725" stroke="black" cx="1003" cy="-306" rx="64.5" ry="18"/>
<text text-anchor="middle" x="1003" y="-302.3" font-family="Times,serif" font-size="14.00">ligo skymap</text>
</g>
<!-- lal&#45;&gt;ligo.skymap -->
<g id="edge27" class="edge">
<title>lal&#45;&gt;ligo.skymap</title>
<path fill="none" stroke="black" d="M1088.03,-736.99C1033.89,-735.96 909.3,-728.49 817,-684 763.1,-658.02 716,-654.83 716,-595 716,-595 716,-595 716,-449 716,-353.38 845.57,-322.15 930.59,-311.95"/>
<polygon fill="black" stroke="black" points="931.18,-315.4 940.73,-310.8 930.4,-308.45 931.18,-315.4"/>
</g>
<!-- bayeswave -->
<g id="node32" class="node">
<title>bayeswave</title>
<ellipse fill="#fde725" stroke="black" cx="1096" cy="-234" rx="54.69" ry="18"/>
<text text-anchor="middle" x="1096" y="-230.3" font-family="Times,serif" font-size="14.00">bayeswave</text>
</g>
<!-- lal&#45;&gt;bayeswave -->
<g id="edge28" class="edge">
<title>lal&#45;&gt;bayeswave</title>
<path fill="none" stroke="black" d="M1142.25,-737.67C1221.78,-738.09 1448,-727.61 1448,-595 1448,-595 1448,-595 1448,-377 1448,-314.01 1251.68,-265.91 1152.27,-245.58"/>
<polygon fill="black" stroke="black" points="1152.87,-242.14 1142.38,-243.59 1151.49,-249 1152.87,-242.14"/>
</g>
<!-- gstlal -->
<g id="node33" class="node">
<title>gstlal</title>
<ellipse fill="#fde725" stroke="black" cx="899" cy="-450" rx="40.5" ry="18"/>
<text text-anchor="middle" x="899" y="-446.3" font-family="Times,serif" font-size="14.00">gstlal</text>
</g>
<!-- lal&#45;&gt;gstlal -->
<g id="edge29" class="edge">
<title>lal&#45;&gt;gstlal</title>
<path fill="none" stroke="black" d="M1087.81,-736.05C1024.2,-733.18 868.71,-722.33 837,-684 785.61,-621.89 846.63,-521.36 880.01,-475.37"/>
<polygon fill="black" stroke="black" points="882.94,-477.3 886.09,-467.19 877.32,-473.13 882.94,-477.3"/>
</g>
<!-- lalsimulation&#45;&gt;lalburst -->
<g id="edge30" class="edge">
<title>lalsimulation&#45;&gt;lalburst</title>
<path fill="none" stroke="black" d="M959.93,-650.67C992.38,-639.02 1038.09,-622.61 1071.48,-610.62"/>
<polygon fill="black" stroke="black" points="1072.75,-613.89 1080.98,-607.21 1070.38,-607.3 1072.75,-613.89"/>
</g>
<!-- lalsimulation&#45;&gt;lalinspiral -->
<g id="edge31" class="edge">
<title>lalsimulation&#45;&gt;lalinspiral</title>
<path fill="none" stroke="black" d="M933.88,-648.15C954.38,-623.28 992.86,-576.57 1016.58,-547.79"/>
<polygon fill="black" stroke="black" points="1019.48,-549.77 1023.14,-539.82 1014.08,-545.32 1019.48,-549.77"/>
</g>
<!-- lalsimulation&#45;&gt;lalinference -->
<g id="edge32" class="edge">
<title>lalsimulation&#45;&gt;lalinference</title>
<path fill="none" stroke="black" d="M989.79,-659.79C1056.51,-653.22 1150.34,-639.33 1174,-612 1206.06,-574.97 1198.98,-513.38 1191.28,-478.08"/>
<polygon fill="black" stroke="black" points="1194.61,-476.96 1188.91,-468.03 1187.79,-478.56 1194.61,-476.96"/>
</g>
<!-- lalsimulation&#45;&gt;lalapps -->
<g id="edge33" class="edge">
<title>lalsimulation&#45;&gt;lalapps</title>
<path fill="none" stroke="black" d="M921.61,-647.9C925.1,-617.21 935.44,-551.56 963,-504 987.75,-461.29 1030.86,-423.09 1059.66,-400.48"/>
<polygon fill="black" stroke="black" points="1061.96,-403.12 1067.74,-394.24 1057.69,-397.58 1061.96,-403.12"/>
</g>
<!-- lalsimulation&#45;&gt;ligo.skymap -->
<g id="edge34" class="edge">
<title>lalsimulation&#45;&gt;ligo.skymap</title>
<path fill="none" stroke="black" d="M900.47,-648.37C874,-623.85 830,-575.25 830,-523 830,-523 830,-523 830,-449 830,-384.94 901.76,-344.49 952.84,-323.82"/>
<polygon fill="black" stroke="black" points="954.4,-326.97 962.44,-320.06 951.85,-320.45 954.4,-326.97"/>
</g>
<!-- lalsimulation&#45;&gt;bayeswave -->
<g id="edge35" class="edge">
<title>lalsimulation&#45;&gt;bayeswave</title>
<path fill="none" stroke="black" d="M890.63,-649.37C852.84,-626.88 792,-581.58 792,-523 792,-523 792,-523 792,-377 792,-272.11 942.39,-244.52 1031.62,-237.38"/>
<polygon fill="black" stroke="black" points="1031.93,-240.87 1041.65,-236.65 1031.42,-233.89 1031.93,-240.87"/>
</g>
<!-- lalsimulation&#45;&gt;gstlal -->
<g id="edge36" class="edge">
<title>lalsimulation&#45;&gt;gstlal</title>
<path fill="none" stroke="black" d="M908.4,-648.2C902.21,-638.18 895.21,-624.93 892,-612 880.63,-566.13 887.31,-510.7 893.17,-478.3"/>
<polygon fill="black" stroke="black" points="896.66,-478.72 895.1,-468.24 889.78,-477.4 896.66,-478.72"/>
</g>
<!-- lalburst&#45;&gt;lalinspiral -->
<g id="edge37" class="edge">
<title>lalburst&#45;&gt;lalinspiral</title>
<path fill="none" stroke="black" d="M1097.3,-577.12C1087.07,-567.94 1074.03,-556.23 1062.69,-546.06"/>
<polygon fill="black" stroke="black" points="1064.95,-543.38 1055.17,-539.31 1060.28,-548.59 1064.95,-543.38"/>
</g>
<!-- lalburst&#45;&gt;lalinference -->
<g id="edge38" class="edge">
<title>lalburst&#45;&gt;lalinference</title>
<path fill="none" stroke="black" d="M1124.75,-575.99C1130.54,-565.69 1137.93,-552.21 1144,-540 1154.38,-519.14 1165.15,-495.01 1172.9,-477.14"/>
<polygon fill="black" stroke="black" points="1176.13,-478.48 1176.87,-467.91 1169.7,-475.71 1176.13,-478.48"/>
</g>
<!-- lalburst&#45;&gt;lalapps -->
<g id="edge39" class="edge">
<title>lalburst&#45;&gt;lalapps</title>
<path fill="none" stroke="black" d="M1114.6,-575.89C1114.05,-557.94 1112.78,-528.92 1110,-504 1107.93,-485.51 1099.44,-436.93 1093.91,-406.06"/>
<polygon fill="black" stroke="black" points="1097.3,-405.18 1092.09,-395.96 1090.41,-406.42 1097.3,-405.18"/>
</g>
<!-- lalburst&#45;&gt;gstlal -->
<g id="edge40" class="edge">
<title>lalburst&#45;&gt;gstlal</title>
<path fill="none" stroke="black" d="M1071.35,-585.19C1039,-577.74 995.13,-564 963,-540 940.62,-523.29 922.87,-496.49 911.79,-476.66"/>
<polygon fill="black" stroke="black" points="914.86,-474.98 907.04,-467.83 908.7,-478.29 914.86,-474.98"/>
</g>
<!-- lalpulsar&#45;&gt;lalinference -->
<g id="edge41" class="edge">
<title>lalpulsar&#45;&gt;lalinference</title>
<path fill="none" stroke="black" d="M1330.96,-507.83C1302.56,-496.85 1261.81,-481.09 1230.42,-468.95"/>
<polygon fill="black" stroke="black" points="1231.6,-465.65 1221.01,-465.31 1229.07,-472.18 1231.6,-465.65"/>
</g>
<!-- lalpulsar&#45;&gt;lalapps -->
<g id="edge42" class="edge">
<title>lalpulsar&#45;&gt;lalapps</title>
<path fill="none" stroke="black" d="M1356.47,-504.15C1345.35,-483.9 1323.95,-450.35 1296,-432 1249.83,-401.68 1187.33,-388.7 1143.13,-383.15"/>
<polygon fill="black" stroke="black" points="1143.49,-379.67 1133.15,-381.98 1142.67,-386.62 1143.49,-379.67"/>
</g>
<!-- lalinspiral&#45;&gt;lalinference -->
<g id="edge43" class="edge">
<title>lalinspiral&#45;&gt;lalinference</title>
<path fill="none" stroke="black" d="M1068.17,-506.15C1090.05,-495.74 1119.51,-481.71 1143.25,-470.41"/>
<polygon fill="black" stroke="black" points="1144.84,-473.52 1152.36,-466.07 1141.83,-467.2 1144.84,-473.52"/>
</g>
<!-- lalinspiral&#45;&gt;lalapps -->
<g id="edge44" class="edge">
<title>lalinspiral&#45;&gt;lalapps</title>
<path fill="none" stroke="black" d="M1043.27,-503.87C1052.21,-479.46 1068.7,-434.43 1079.25,-405.64"/>
<polygon fill="black" stroke="black" points="1082.55,-406.78 1082.71,-396.19 1075.98,-404.38 1082.55,-406.78"/>
</g>
<!-- lalinspiral&#45;&gt;ligo.skymap -->
<g id="edge45" class="edge">
<title>lalinspiral&#45;&gt;ligo.skymap</title>
<path fill="none" stroke="black" d="M1034.28,-503.85C1028.39,-466.83 1014.47,-379.18 1007.35,-334.39"/>
<polygon fill="black" stroke="black" points="1010.76,-333.56 1005.74,-324.23 1003.85,-334.66 1010.76,-333.56"/>
</g>
<!-- lalinspiral&#45;&gt;gstlal -->
<g id="edge46" class="edge">
<title>lalinspiral&#45;&gt;gstlal</title>
<path fill="none" stroke="black" d="M1007.4,-505.98C985.82,-495.04 956.51,-480.17 933.81,-468.66"/>
<polygon fill="black" stroke="black" points="935.34,-465.51 924.84,-464.11 932.17,-471.75 935.34,-465.51"/>
</g>
<!-- lalinference&#45;&gt;lalapps -->
<g id="edge47" class="edge">
<title>lalinference&#45;&gt;lalapps</title>
<path fill="none" stroke="black" d="M1161.97,-432.76C1148.89,-423.13 1132.17,-410.81 1118.03,-400.39"/>
<polygon fill="black" stroke="black" points="1119.74,-397.3 1109.61,-394.19 1115.59,-402.94 1119.74,-397.3"/>
</g>
<!-- lalinference&#45;&gt;bayeswave -->
<g id="edge48" class="edge">
<title>lalinference&#45;&gt;bayeswave</title>
<path fill="none" stroke="black" d="M1176.95,-431.85C1161.59,-394.5 1125.04,-305.63 1106.78,-261.21"/>
<polygon fill="black" stroke="black" points="1110,-259.85 1102.96,-251.94 1103.53,-262.52 1110,-259.85"/>
</g>
<!-- lalapps&#45;&gt;ligo.skymap -->
<g id="edge49" class="edge">
<title>lalapps&#45;&gt;ligo.skymap</title>
<path fill="none" stroke="black" d="M1069.91,-361.46C1058.47,-352.15 1043.7,-340.13 1030.96,-329.76"/>
<polygon fill="black" stroke="black" points="1032.89,-326.82 1022.93,-323.22 1028.48,-332.25 1032.89,-326.82"/>
</g>
<!-- lalapps&#45;&gt;bayeswave -->
<g id="edge50" class="edge">
<title>lalapps&#45;&gt;bayeswave</title>
<path fill="none" stroke="black" d="M1089.84,-359.87C1091.04,-335.67 1093.23,-291.21 1094.65,-262.39"/>
<polygon fill="black" stroke="black" points="1098.16,-262.35 1095.15,-252.19 1091.16,-262 1098.16,-262.35"/>
</g>
<!-- ligo.skymap&#45;&gt;bayeswave -->
<g id="edge51" class="edge">
<title>ligo.skymap&#45;&gt;bayeswave</title>
<path fill="none" stroke="black" d="M1024.57,-288.76C1037.19,-279.27 1053.29,-267.15 1067.01,-256.82"/>
<polygon fill="black" stroke="black" points="1069.3,-259.48 1075.19,-250.67 1065.09,-253.88 1069.3,-259.48"/>
</g>
<!-- nest&#45;simulator -->
<g id="node35" class="node">
<title>nest&#45;simulator</title>
<g id="a_node35"><a xlink:href="https://github.com/conda-forge/nest-simulator-feedstock/pull/43" xlink:title="nest simulator">
<ellipse fill="#31688e" stroke="black" cx="623" cy="-306" rx="79.5" ry="18"/>
<text text-anchor="middle" x="623" y="-302.3" font-family="Times,serif" font-size="14.00" fill="white">nest simulator</text>
</a>
</g>
</g>
<!-- namaster&#45;&gt;nest&#45;simulator -->
<!-- plumed -->
<g id="node39" class="node">
<title>plumed</title>
<g id="a_node39"><a xlink:href="https://github.com/conda-forge/plumed-feedstock/pull/12" xlink:title="plumed">
<ellipse fill="#31688e" stroke="black" cx="623" cy="-234" rx="40.5" ry="18"/>
<text text-anchor="middle" x="623" y="-230.3" font-family="Times,serif" font-size="14.00" fill="white">plumed</text>
</a>
</g>
</g>
<!-- nest&#45;simulator&#45;&gt;plumed -->
<!-- root -->
<g id="node36" class="node">
<title>root</title>
<g id="a_node36"><a xlink:href="https://github.com/conda-forge/root-feedstock/pull/78" xlink:title="root">
<ellipse fill="#31688e" stroke="black" cx="1565" cy="-738" rx="30.59" ry="18"/>
<text text-anchor="middle" x="1565" y="-734.3" font-family="Times,serif" font-size="14.00" fill="white">root</text>
</a>
</g>
</g>
<!-- ostaphep -->
<g id="node37" class="node">
<title>ostaphep</title>
<ellipse fill="#fde725" stroke="black" cx="1526" cy="-666" rx="50.09" ry="18"/>
<text text-anchor="middle" x="1526" y="-662.3" font-family="Times,serif" font-size="14.00">ostaphep</text>
</g>
<!-- root&#45;&gt;ostaphep -->
<g id="edge54" class="edge">
<title>root&#45;&gt;ostaphep</title>
<path fill="none" stroke="black" d="M1555.95,-720.76C1551.36,-712.53 1545.68,-702.32 1540.49,-693.02"/>
<polygon fill="black" stroke="black" points="1543.47,-691.16 1535.54,-684.12 1537.35,-694.56 1543.47,-691.16"/>
</g>
<!-- gwollum -->
<g id="node38" class="node">
<title>gwollum</title>
<ellipse fill="#fde725" stroke="black" cx="1604" cy="-594" rx="45" ry="18"/>
<text text-anchor="middle" x="1604" y="-590.3" font-family="Times,serif" font-size="14.00">gwollum</text>
</g>
<!-- root&#45;&gt;gwollum -->
<g id="edge55" class="edge">
<title>root&#45;&gt;gwollum</title>
<path fill="none" stroke="black" d="M1572.15,-720.04C1576.3,-709.74 1581.4,-696.27 1585,-684 1591,-663.57 1595.95,-639.98 1599.29,-622.22"/>
<polygon fill="black" stroke="black" points="1602.76,-622.72 1601.11,-612.25 1595.87,-621.46 1602.76,-622.72"/>
</g>
<!-- dakota -->
<g id="node40" class="node">
<title>dakota</title>
<g id="a_node40"><a xlink:href="https://github.com/conda-forge/dakota-feedstock/pull/12" xlink:title="dakota">
<ellipse fill="#31688e" stroke="black" cx="623" cy="-162" rx="40.5" ry="18"/>
<text text-anchor="middle" x="623" y="-158.3" font-family="Times,serif" font-size="14.00" fill="white">dakota</text>
</a>
</g>
</g>
<!-- plumed&#45;&gt;dakota -->
<!-- ale -->
<g id="node41" class="node">
<title>ale</title>
<g id="a_node41"><a xlink:href="https://github.com/conda-forge/ale-feedstock/pull/17" xlink:title="ale">
<ellipse fill="#31688e" stroke="black" cx="623" cy="-90" rx="27" ry="18"/>
<text text-anchor="middle" x="623" y="-86.3" font-family="Times,serif" font-size="14.00" fill="white">ale</text>
</a>
</g>
</g>
<!-- dakota&#45;&gt;ale -->
<!-- astrometry -->
<g id="node42" class="node">
<title>astrometry</title>
<g id="a_node42"><a xlink:href="https://github.com/conda-forge/astrometry-feedstock/pull/3" xlink:title="astrometry">
<ellipse fill="#31688e" stroke="black" cx="623" cy="-18" rx="60" ry="18"/>
<text text-anchor="middle" x="623" y="-14.3" font-family="Times,serif" font-size="14.00" fill="white">astrometry</text>
</a>
</g>
</g>
<!-- ale&#45;&gt;astrometry -->
<!-- pyinterp -->
<g id="node43" class="node">
<title>pyinterp</title>
<g id="a_node43"><a xlink:href="https://github.com/conda-forge/pyinterp-feedstock/pull/13" xlink:title="pyinterp">
<ellipse fill="#31688e" stroke="black" cx="1727" cy="-738" rx="50.09" ry="18"/>
<text text-anchor="middle" x="1727" y="-734.3" font-family="Times,serif" font-size="14.00" fill="white">pyinterp</text>
</a>
</g>
</g>
<!-- pyccl -->
<g id="node44" class="node">
<title>pyccl</title>
<g id="a_node44"><a xlink:href="https://github.com/conda-forge/pyccl-feedstock/pull/13" xlink:title="pyccl">
<ellipse fill="#31688e" stroke="black" cx="1727" cy="-666" rx="35.19" ry="18"/>
<text text-anchor="middle" x="1727" y="-662.3" font-family="Times,serif" font-size="14.00" fill="white">pyccl</text>
</a>
</g>
</g>
<!-- pyinterp&#45;&gt;pyccl -->
<!-- lintegrate -->
<g id="node45" class="node">
<title>lintegrate</title>
<g id="a_node45"><a xlink:href="https://github.com/conda-forge/lintegrate-feedstock/pull/5" xlink:title="lintegrate">
<ellipse fill="#31688e" stroke="black" cx="1727" cy="-594" rx="60" ry="18"/>
<text text-anchor="middle" x="1727" y="-590.3" font-family="Times,serif" font-size="14.00" fill="white">lintegrate</text>
</a>
</g>
</g>
<!-- pyccl&#45;&gt;lintegrate -->
<!-- corrfunc -->
<g id="node46" class="node">
<title>corrfunc</title>
<g id="a_node46"><a xlink:href="https://github.com/conda-forge/corrfunc-feedstock/pull/13" xlink:title="corrfunc">
<ellipse fill="#31688e" stroke="black" cx="1727" cy="-522" rx="50.09" ry="18"/>
<text text-anchor="middle" x="1727" y="-518.3" font-family="Times,serif" font-size="14.00" fill="white">corrfunc</text>
</a>
</g>
</g>
<!-- lintegrate&#45;&gt;corrfunc -->
<!-- gnuradio -->
<g id="node47" class="node">
<title>gnuradio</title>
<g id="a_node47"><a xlink:href="https://github.com/conda-forge/gnuradio-feedstock/pull/5" xlink:title="gnuradio">
<ellipse fill="#31688e" stroke="black" cx="1727" cy="-450" rx="50.09" ry="18"/>
<text text-anchor="middle" x="1727" y="-446.3" font-family="Times,serif" font-size="14.00" fill="white">gnuradio</text>
</a>
</g>
</g>
<!-- corrfunc&#45;&gt;gnuradio -->
<!-- ecell4_base -->
<g id="node48" class="node">
<title>ecell4_base</title>
<g id="a_node48"><a xlink:href="https://github.com/conda-forge/ecell4_base-feedstock/pull/3" xlink:title="ecell4_base">
<ellipse fill="#31688e" stroke="black" cx="1727" cy="-378" rx="64.5" ry="18"/>
<text text-anchor="middle" x="1727" y="-374.3" font-family="Times,serif" font-size="14.00" fill="white">ecell4_base</text>
</a>
</g>
</g>
<!-- gnuradio&#45;&gt;ecell4_base -->
<!-- gwsurrogate -->
<g id="node49" class="node">
<title>gwsurrogate</title>
<g id="a_node49"><a xlink:href="https://github.com/conda-forge/gwsurrogate-feedstock/pull/6" xlink:title="gwsurrogate">
<ellipse fill="#31688e" stroke="black" cx="1727" cy="-306" rx="64.5" ry="18"/>
<text text-anchor="middle" x="1727" y="-302.3" font-family="Times,serif" font-size="14.00" fill="white">gwsurrogate</text>
</a>
</g>
</g>
<!-- ecell4_base&#45;&gt;gwsurrogate -->
</g>
</svg>
