<?xml version="1.0" encoding="UTF-8" standalone="no"?>
<!DOCTYPE svg PUBLIC "-//W3C//DTD SVG 1.1//EN"
 "http://www.w3.org/Graphics/SVG/1.1/DTD/svg11.dtd">
<!-- Generated by graphviz version 2.42.3 (20191010.1750)
 -->
<!-- Title: %3 Pages: 1 -->
<svg width="1437pt" height="764pt"
 viewBox="0.00 0.00 1436.59 764.00" xmlns="http://www.w3.org/2000/svg" xmlns:xlink="http://www.w3.org/1999/xlink">
<g id="graph0" class="graph" transform="scale(1 1) rotate(0) translate(4 760)">
<title>%3</title>
<polygon fill="white" stroke="transparent" points="-4,4 -4,-760 1432.59,-760 1432.59,4 -4,4"/>
<!-- astro&#45;gala -->
<g id="node1" class="node">
<title>astro&#45;gala</title>
<g id="a_node1"><a xlink:href="https://github.com/conda-forge/astro-gala-feedstock/pull/9" xlink:title="astro gala">
<ellipse fill="#31688e" stroke="black" cx="74.09" cy="-738" rx="60" ry="18"/>
<text text-anchor="middle" x="74.09" y="-734.3" font-family="Times,serif" font-size="14.00" fill="white">astro gala</text>
</a>
</g>
</g>
<!-- galpy -->
<g id="node2" class="node">
<title>galpy</title>
<g id="a_node2"><a xlink:href="https://github.com/conda-forge/galpy-feedstock/pull/12" xlink:title="galpy">
<ellipse fill="#31688e" stroke="black" cx="74.09" cy="-666" rx="35.19" ry="18"/>
<text text-anchor="middle" x="74.09" y="-662.3" font-family="Times,serif" font-size="14.00" fill="white">galpy</text>
</a>
</g>
</g>
<!-- astro&#45;gala&#45;&gt;galpy -->
<!-- giac -->
<g id="node5" class="node">
<title>giac</title>
<g id="a_node5"><a xlink:href="https://github.com/conda-forge/giac-feedstock/pull/17" xlink:title="giac">
<ellipse fill="#31688e" stroke="black" cx="74.09" cy="-594" rx="30.59" ry="18"/>
<text text-anchor="middle" x="74.09" y="-590.3" font-family="Times,serif" font-size="14.00" fill="white">giac</text>
</a>
</g>
</g>
<!-- galpy&#45;&gt;giac -->
<!-- cythongsl -->
<g id="node3" class="node">
<title>cythongsl</title>
<g id="a_node3"><a xlink:href="https://github.com/conda-forge/cythongsl-feedstock/pull/11" xlink:title="cythongsl">
<ellipse fill="#31688e" stroke="black" cx="207.09" cy="-738" rx="54.69" ry="18"/>
<text text-anchor="middle" x="207.09" y="-734.3" font-family="Times,serif" font-size="14.00" fill="white">cythongsl</text>
</a>
</g>
</g>
<!-- slda -->
<g id="node4" class="node">
<title>slda</title>
<ellipse fill="#fde725" stroke="black" cx="207.09" cy="-666" rx="30.59" ry="18"/>
<text text-anchor="middle" x="207.09" y="-662.3" font-family="Times,serif" font-size="14.00">slda</text>
</g>
<!-- cythongsl&#45;&gt;slda -->
<g id="edge2" class="edge">
<title>cythongsl&#45;&gt;slda</title>
<path fill="none" stroke="black" d="M207.09,-719.7C207.09,-711.98 207.09,-702.71 207.09,-694.11"/>
<polygon fill="black" stroke="black" points="210.59,-694.1 207.09,-684.1 203.59,-694.1 210.59,-694.1"/>
</g>
<!-- nco -->
<g id="node6" class="node">
<title>nco</title>
<g id="a_node6"><a xlink:href="https://github.com/conda-forge/nco-feedstock/pull/104" xlink:title="nco">
<ellipse fill="#31688e" stroke="black" cx="74.09" cy="-522" rx="27" ry="18"/>
<text text-anchor="middle" x="74.09" y="-518.3" font-family="Times,serif" font-size="14.00" fill="white">nco</text>
</a>
</g>
</g>
<!-- giac&#45;&gt;nco -->
<!-- qgis -->
<g id="node7" class="node">
<title>qgis</title>
<ellipse fill="#fde725" stroke="black" cx="74.09" cy="-450" rx="30.59" ry="18"/>
<text text-anchor="middle" x="74.09" y="-446.3" font-family="Times,serif" font-size="14.00">qgis</text>
</g>
<!-- nco&#45;&gt;qgis -->
<!-- r&#45;rcppgsl -->
<g id="node8" class="node">
<title>r&#45;rcppgsl</title>
<g id="a_node8"><a xlink:href="https://github.com/conda-forge/r-rcppgsl-feedstock/pull/9" xlink:title="r rcppgsl">
<ellipse fill="#31688e" stroke="black" cx="74.09" cy="-378" rx="54.69" ry="18"/>
<text text-anchor="middle" x="74.09" y="-374.3" font-family="Times,serif" font-size="14.00" fill="white">r rcppgsl</text>
</a>
</g>
</g>
<!-- qgis&#45;&gt;r&#45;rcppgsl -->
<!-- root5 -->
<g id="node11" class="node">
<title>root5</title>
<g id="a_node11"><a xlink:href="https://github.com/conda-forge/root5-feedstock/pull/20" xlink:title="root5">
<ellipse fill="#31688e" stroke="black" cx="74.09" cy="-306" rx="35.19" ry="18"/>
<text text-anchor="middle" x="74.09" y="-302.3" font-family="Times,serif" font-size="14.00" fill="white">root5</text>
</a>
</g>
</g>
<!-- r&#45;rcppgsl&#45;&gt;root5 -->
<!-- r&#45;gsl -->
<g id="node9" class="node">
<title>r&#45;gsl</title>
<g id="a_node9"><a xlink:href="https://github.com/conda-forge/r-gsl-feedstock/pull/11" xlink:title="r gsl">
<ellipse fill="#31688e" stroke="black" cx="315.09" cy="-738" rx="35.19" ry="18"/>
<text text-anchor="middle" x="315.09" y="-734.3" font-family="Times,serif" font-size="14.00" fill="white">r gsl</text>
</a>
</g>
</g>
<!-- r&#45;aws -->
<g id="node10" class="node">
<title>r&#45;aws</title>
<ellipse fill="#fde725" stroke="black" cx="315.09" cy="-666" rx="35.19" ry="18"/>
<text text-anchor="middle" x="315.09" y="-662.3" font-family="Times,serif" font-size="14.00">r aws</text>
</g>
<!-- r&#45;gsl&#45;&gt;r&#45;aws -->
<g id="edge7" class="edge">
<title>r&#45;gsl&#45;&gt;r&#45;aws</title>
<path fill="none" stroke="black" d="M315.09,-719.7C315.09,-711.98 315.09,-702.71 315.09,-694.11"/>
<polygon fill="black" stroke="black" points="318.59,-694.1 315.09,-684.1 311.59,-694.1 318.59,-694.1"/>
</g>
<!-- rsgislib -->
<g id="node12" class="node">
<title>rsgislib</title>
<g id="a_node12"><a xlink:href="https://github.com/conda-forge/rsgislib-feedstock/pull/27" xlink:title="rsgislib">
<ellipse fill="#31688e" stroke="black" cx="74.09" cy="-234" rx="50.09" ry="18"/>
<text text-anchor="middle" x="74.09" y="-230.3" font-family="Times,serif" font-size="14.00" fill="white">rsgislib</text>
</a>
</g>
</g>
<!-- root5&#45;&gt;rsgislib -->
<!-- spdlib -->
<g id="node13" class="node">
<title>spdlib</title>
<g id="a_node13"><a xlink:href="https://github.com/conda-forge/spdlib-feedstock/pull/10" xlink:title="spdlib">
<ellipse fill="#31688e" stroke="black" cx="74.09" cy="-162" rx="40.5" ry="18"/>
<text text-anchor="middle" x="74.09" y="-158.3" font-family="Times,serif" font-size="14.00" fill="white">spdlib</text>
</a>
</g>
</g>
<!-- rsgislib&#45;&gt;spdlib -->
<!-- r&#45;topicmodels -->
<g id="node14" class="node">
<title>r&#45;topicmodels</title>
<g id="a_node14"><a xlink:href="https://github.com/conda-forge/r-topicmodels-feedstock/pull/8" xlink:title="r topicmodels">
<ellipse fill="#31688e" stroke="black" cx="74.09" cy="-90" rx="74.19" ry="18"/>
<text text-anchor="middle" x="74.09" y="-86.3" font-family="Times,serif" font-size="14.00" fill="white">r topicmodels</text>
</a>
</g>
</g>
<!-- spdlib&#45;&gt;r&#45;topicmodels -->
<!-- pymeep -->
<g id="node25" class="node">
<title>pymeep</title>
<g id="a_node25"><a xlink:href="https://github.com/conda-forge/pymeep-feedstock/pull/27" xlink:title="pymeep">
<ellipse fill="#31688e" stroke="black" cx="74.09" cy="-18" rx="40.5" ry="18"/>
<text text-anchor="middle" x="74.09" y="-14.3" font-family="Times,serif" font-size="14.00" fill="white">pymeep</text>
</a>
</g>
</g>
<!-- r&#45;topicmodels&#45;&gt;pymeep -->
<!-- lal -->
<g id="node15" class="node">
<title>lal</title>
<g id="a_node15"><a xlink:href="https://github.com/conda-forge/lal-feedstock/pull/35" xlink:title="lal">
<ellipse fill="#31688e" stroke="black" cx="777.09" cy="-738" rx="27" ry="18"/>
<text text-anchor="middle" x="777.09" y="-734.3" font-family="Times,serif" font-size="14.00" fill="white">lal</text>
</a>
</g>
</g>
<!-- lalsimulation -->
<g id="node16" class="node">
<title>lalsimulation</title>
<ellipse fill="#fde725" stroke="black" cx="583.09" cy="-666" rx="74.19" ry="18"/>
<text text-anchor="middle" x="583.09" y="-662.3" font-family="Times,serif" font-size="14.00">lalsimulation</text>
</g>
<!-- lal&#45;&gt;lalsimulation -->
<g id="edge12" class="edge">
<title>lal&#45;&gt;lalsimulation</title>
<path fill="none" stroke="black" d="M753.69,-728.56C723.78,-717.76 671.21,-698.79 632.3,-684.76"/>
<polygon fill="black" stroke="black" points="633.32,-681.4 622.73,-681.3 630.95,-687.99 633.32,-681.4"/>
</g>
<!-- lalburst -->
<g id="node17" class="node">
<title>lalburst</title>
<ellipse fill="#fde725" stroke="black" cx="777.09" cy="-594" rx="50.09" ry="18"/>
<text text-anchor="middle" x="777.09" y="-590.3" font-family="Times,serif" font-size="14.00">lalburst</text>
</g>
<!-- lal&#45;&gt;lalburst -->
<g id="edge13" class="edge">
<title>lal&#45;&gt;lalburst</title>
<path fill="none" stroke="black" d="M777.09,-719.87C777.09,-695.67 777.09,-651.21 777.09,-622.39"/>
<polygon fill="black" stroke="black" points="780.59,-622.19 777.09,-612.19 773.59,-622.19 780.59,-622.19"/>
</g>
<!-- lalpulsar -->
<g id="node18" class="node">
<title>lalpulsar</title>
<ellipse fill="#fde725" stroke="black" cx="1027.09" cy="-522" rx="54.69" ry="18"/>
<text text-anchor="middle" x="1027.09" y="-518.3" font-family="Times,serif" font-size="14.00">lalpulsar</text>
</g>
<!-- lal&#45;&gt;lalpulsar -->
<g id="edge14" class="edge">
<title>lal&#45;&gt;lalpulsar</title>
<path fill="none" stroke="black" d="M804.14,-736.08C842.82,-733.36 914.12,-722.99 958.09,-684 998,-648.62 1015.61,-586.17 1022.74,-550.33"/>
<polygon fill="black" stroke="black" points="1026.26,-550.59 1024.64,-540.12 1019.37,-549.32 1026.26,-550.59"/>
</g>
<!-- lalinspiral -->
<g id="node19" class="node">
<title>lalinspiral</title>
<ellipse fill="#fde725" stroke="black" cx="699.09" cy="-522" rx="64.5" ry="18"/>
<text text-anchor="middle" x="699.09" y="-518.3" font-family="Times,serif" font-size="14.00">lalinspiral</text>
</g>
<!-- lal&#45;&gt;lalinspiral -->
<g id="edge15" class="edge">
<title>lal&#45;&gt;lalinspiral</title>
<path fill="none" stroke="black" d="M768.02,-720.92C755.21,-697.6 731.84,-652.7 718.09,-612 711.24,-591.7 706.31,-567.93 703.2,-550.06"/>
<polygon fill="black" stroke="black" points="706.63,-549.33 701.53,-540.04 699.72,-550.48 706.63,-549.33"/>
</g>
<!-- lalinference -->
<g id="node20" class="node">
<title>lalinference</title>
<ellipse fill="#fde725" stroke="black" cx="846.09" cy="-450" rx="69.59" ry="18"/>
<text text-anchor="middle" x="846.09" y="-446.3" font-family="Times,serif" font-size="14.00">lalinference</text>
</g>
<!-- lal&#45;&gt;lalinference -->
<g id="edge16" class="edge">
<title>lal&#45;&gt;lalinference</title>
<path fill="none" stroke="black" d="M790.07,-721.99C808.67,-699.63 842.6,-655.5 860.09,-612 878.13,-567.15 884.38,-551.01 873.09,-504 870.85,-494.66 866.68,-485.11 862.27,-476.74"/>
<polygon fill="black" stroke="black" points="865.23,-474.87 857.28,-467.86 859.12,-478.29 865.23,-474.87"/>
</g>
<!-- lalapps -->
<g id="node21" class="node">
<title>lalapps</title>
<ellipse fill="#fde725" stroke="black" cx="751.09" cy="-378" rx="45" ry="18"/>
<text text-anchor="middle" x="751.09" y="-374.3" font-family="Times,serif" font-size="14.00">lalapps</text>
</g>
<!-- lal&#45;&gt;lalapps -->
<g id="edge17" class="edge">
<title>lal&#45;&gt;lalapps</title>
<path fill="none" stroke="black" d="M801.02,-729.3C847.2,-712.76 944.09,-669.21 944.09,-595 944.09,-595 944.09,-595 944.09,-521 944.09,-480.55 952.45,-461.79 925.09,-432 894.8,-399.01 844.67,-386.31 805.98,-381.54"/>
<polygon fill="black" stroke="black" points="806.22,-378.04 795.9,-380.44 805.46,-385 806.22,-378.04"/>
</g>
<!-- ligo.skymap -->
<g id="node22" class="node">
<title>ligo.skymap</title>
<ellipse fill="#fde725" stroke="black" cx="665.09" cy="-306" rx="64.5" ry="18"/>
<text text-anchor="middle" x="665.09" y="-302.3" font-family="Times,serif" font-size="14.00">ligo skymap</text>
</g>
<!-- lal&#45;&gt;ligo.skymap -->
<g id="edge18" class="edge">
<title>lal&#45;&gt;ligo.skymap</title>
<path fill="none" stroke="black" d="M749.81,-736.92C695.67,-735.75 571.96,-728.04 480.09,-684 425.84,-657.99 378.09,-655.16 378.09,-595 378.09,-595 378.09,-595 378.09,-449 378.09,-353.38 507.66,-322.15 592.68,-311.95"/>
<polygon fill="black" stroke="black" points="593.27,-315.4 602.82,-310.8 592.49,-308.45 593.27,-315.4"/>
</g>
<!-- bayeswave -->
<g id="node23" class="node">
<title>bayeswave</title>
<ellipse fill="#fde725" stroke="black" cx="758.09" cy="-234" rx="54.69" ry="18"/>
<text text-anchor="middle" x="758.09" y="-230.3" font-family="Times,serif" font-size="14.00">bayeswave</text>
</g>
<!-- lal&#45;&gt;bayeswave -->
<g id="edge19" class="edge">
<title>lal&#45;&gt;bayeswave</title>
<path fill="none" stroke="black" d="M804.34,-737.67C883.87,-738.09 1110.09,-727.61 1110.09,-595 1110.09,-595 1110.09,-595 1110.09,-377 1110.09,-314.01 913.77,-265.91 814.36,-245.58"/>
<polygon fill="black" stroke="black" points="814.97,-242.14 804.47,-243.59 813.58,-249 814.97,-242.14"/>
</g>
<!-- gstlal -->
<g id="node24" class="node">
<title>gstlal</title>
<ellipse fill="#fde725" stroke="black" cx="561.09" cy="-450" rx="40.5" ry="18"/>
<text text-anchor="middle" x="561.09" y="-446.3" font-family="Times,serif" font-size="14.00">gstlal</text>
</g>
<!-- lal&#45;&gt;gstlal -->
<g id="edge20" class="edge">
<title>lal&#45;&gt;gstlal</title>
<path fill="none" stroke="black" d="M750,-736.03C686.62,-733.13 531.68,-722.21 500.09,-684 448.78,-621.94 509.19,-521.39 542.27,-475.38"/>
<polygon fill="black" stroke="black" points="545.19,-477.32 548.29,-467.19 539.55,-473.18 545.19,-477.32"/>
</g>
<!-- lalsimulation&#45;&gt;lalburst -->
<g id="edge21" class="edge">
<title>lalsimulation&#45;&gt;lalburst</title>
<path fill="none" stroke="black" d="M622.82,-650.67C655.01,-639.05 700.3,-622.71 733.48,-610.74"/>
<polygon fill="black" stroke="black" points="734.71,-614.01 742.93,-607.33 732.34,-607.43 734.71,-614.01"/>
</g>
<!-- lalsimulation&#45;&gt;lalinspiral -->
<g id="edge22" class="edge">
<title>lalsimulation&#45;&gt;lalinspiral</title>
<path fill="none" stroke="black" d="M596.86,-648.15C617.18,-623.28 655.33,-576.57 678.84,-547.79"/>
<polygon fill="black" stroke="black" points="681.73,-549.78 685.35,-539.82 676.31,-545.36 681.73,-549.78"/>
</g>
<!-- lalsimulation&#45;&gt;lalinference -->
<g id="edge23" class="edge">
<title>lalsimulation&#45;&gt;lalinference</title>
<path fill="none" stroke="black" d="M652.61,-659.75C719.07,-653.15 812.53,-639.24 836.09,-612 868.14,-574.95 861.06,-513.38 853.37,-478.08"/>
<polygon fill="black" stroke="black" points="856.7,-476.96 851,-468.03 849.88,-478.56 856.7,-476.96"/>
</g>
<!-- lalsimulation&#45;&gt;lalapps -->
<g id="edge24" class="edge">
<title>lalsimulation&#45;&gt;lalapps</title>
<path fill="none" stroke="black" d="M584.57,-647.9C587.84,-617.21 597.71,-551.57 625.09,-504 649.72,-461.22 692.86,-423.04 721.7,-400.45"/>
<polygon fill="black" stroke="black" points="724,-403.09 729.8,-394.22 719.74,-397.54 724,-403.09"/>
</g>
<!-- lalsimulation&#45;&gt;ligo.skymap -->
<g id="edge25" class="edge">
<title>lalsimulation&#45;&gt;ligo.skymap</title>
<path fill="none" stroke="black" d="M563.35,-648.41C536.58,-623.95 492.09,-575.41 492.09,-523 492.09,-523 492.09,-523 492.09,-449 492.09,-384.94 563.85,-344.49 614.94,-323.82"/>
<polygon fill="black" stroke="black" points="616.49,-326.97 624.53,-320.06 613.94,-320.45 616.49,-326.97"/>
</g>
<!-- lalsimulation&#45;&gt;bayeswave -->
<g id="edge26" class="edge">
<title>lalsimulation&#45;&gt;bayeswave</title>
<path fill="none" stroke="black" d="M553.5,-649.43C515.41,-627.01 454.09,-581.79 454.09,-523 454.09,-523 454.09,-523 454.09,-377 454.09,-272.11 604.49,-244.52 693.71,-237.38"/>
<polygon fill="black" stroke="black" points="694.03,-240.87 703.74,-236.65 693.51,-233.89 694.03,-240.87"/>
</g>
<!-- lalsimulation&#45;&gt;gstlal -->
<g id="edge27" class="edge">
<title>lalsimulation&#45;&gt;gstlal</title>
<path fill="none" stroke="black" d="M570.79,-647.78C564.44,-637.84 557.37,-624.8 554.09,-612 542.39,-566.22 549.18,-510.76 555.15,-478.33"/>
<polygon fill="black" stroke="black" points="558.63,-478.74 557.12,-468.26 551.76,-477.4 558.63,-478.74"/>
</g>
<!-- lalburst&#45;&gt;lalinspiral -->
<g id="edge28" class="edge">
<title>lalburst&#45;&gt;lalinspiral</title>
<path fill="none" stroke="black" d="M759.39,-577.12C749.17,-567.94 736.12,-556.23 724.79,-546.06"/>
<polygon fill="black" stroke="black" points="727.04,-543.38 717.26,-539.31 722.37,-548.59 727.04,-543.38"/>
</g>
<!-- lalburst&#45;&gt;lalinference -->
<g id="edge29" class="edge">
<title>lalburst&#45;&gt;lalinference</title>
<path fill="none" stroke="black" d="M786.84,-575.99C792.64,-565.69 800.02,-552.21 806.09,-540 816.47,-519.14 827.24,-495.01 834.99,-477.14"/>
<polygon fill="black" stroke="black" points="838.22,-478.48 838.96,-467.91 831.79,-475.71 838.22,-478.48"/>
</g>
<!-- lalburst&#45;&gt;lalapps -->
<g id="edge30" class="edge">
<title>lalburst&#45;&gt;lalapps</title>
<path fill="none" stroke="black" d="M776.69,-575.89C776.14,-557.94 774.88,-528.92 772.09,-504 770.03,-485.51 761.53,-436.93 756,-406.06"/>
<polygon fill="black" stroke="black" points="759.4,-405.18 754.18,-395.96 752.51,-406.42 759.4,-405.18"/>
</g>
<!-- lalburst&#45;&gt;gstlal -->
<g id="edge31" class="edge">
<title>lalburst&#45;&gt;gstlal</title>
<path fill="none" stroke="black" d="M733.45,-585.19C701.1,-577.74 657.23,-564 625.09,-540 602.71,-523.29 584.96,-496.49 573.88,-476.66"/>
<polygon fill="black" stroke="black" points="576.95,-474.98 569.13,-467.83 570.79,-478.29 576.95,-474.98"/>
</g>
<!-- lalpulsar&#45;&gt;lalinference -->
<g id="edge32" class="edge">
<title>lalpulsar&#45;&gt;lalinference</title>
<path fill="none" stroke="black" d="M993.05,-507.83C964.65,-496.85 923.9,-481.09 892.52,-468.95"/>
<polygon fill="black" stroke="black" points="893.69,-465.65 883.1,-465.31 891.16,-472.18 893.69,-465.65"/>
</g>
<!-- lalpulsar&#45;&gt;lalapps -->
<g id="edge33" class="edge">
<title>lalpulsar&#45;&gt;lalapps</title>
<path fill="none" stroke="black" d="M1018.57,-504.15C1007.44,-483.9 986.04,-450.35 958.09,-432 911.92,-401.68 849.43,-388.7 805.22,-383.15"/>
<polygon fill="black" stroke="black" points="805.58,-379.67 795.24,-381.98 804.77,-386.62 805.58,-379.67"/>
</g>
<!-- lalinspiral&#45;&gt;lalinference -->
<g id="edge34" class="edge">
<title>lalinspiral&#45;&gt;lalinference</title>
<path fill="none" stroke="black" d="M730.27,-506.15C752.14,-495.74 781.6,-481.71 805.34,-470.41"/>
<polygon fill="black" stroke="black" points="806.93,-473.52 814.46,-466.07 803.92,-467.2 806.93,-473.52"/>
</g>
<!-- lalinspiral&#45;&gt;lalapps -->
<g id="edge35" class="edge">
<title>lalinspiral&#45;&gt;lalapps</title>
<path fill="none" stroke="black" d="M705.37,-503.87C714.31,-479.46 730.8,-434.43 741.34,-405.64"/>
<polygon fill="black" stroke="black" points="744.65,-406.78 744.8,-396.19 738.07,-404.38 744.65,-406.78"/>
</g>
<!-- lalinspiral&#45;&gt;ligo.skymap -->
<g id="edge36" class="edge">
<title>lalinspiral&#45;&gt;ligo.skymap</title>
<path fill="none" stroke="black" d="M696.37,-503.85C690.49,-466.83 676.56,-379.18 669.44,-334.39"/>
<polygon fill="black" stroke="black" points="672.86,-333.56 667.83,-324.23 665.94,-334.66 672.86,-333.56"/>
</g>
<!-- lalinspiral&#45;&gt;gstlal -->
<g id="edge37" class="edge">
<title>lalinspiral&#45;&gt;gstlal</title>
<path fill="none" stroke="black" d="M669.49,-505.98C647.91,-495.04 618.6,-480.17 595.9,-468.66"/>
<polygon fill="black" stroke="black" points="597.43,-465.51 586.93,-464.11 594.27,-471.75 597.43,-465.51"/>
</g>
<!-- lalinference&#45;&gt;lalapps -->
<g id="edge38" class="edge">
<title>lalinference&#45;&gt;lalapps</title>
<path fill="none" stroke="black" d="M824.06,-432.76C810.99,-423.13 794.26,-410.81 780.12,-400.39"/>
<polygon fill="black" stroke="black" points="781.83,-397.3 771.71,-394.19 777.68,-402.94 781.83,-397.3"/>
</g>
<!-- lalinference&#45;&gt;bayeswave -->
<g id="edge39" class="edge">
<title>lalinference&#45;&gt;bayeswave</title>
<path fill="none" stroke="black" d="M839.04,-431.85C823.68,-394.5 787.14,-305.63 768.87,-261.21"/>
<polygon fill="black" stroke="black" points="772.1,-259.85 765.06,-251.94 765.62,-262.52 772.1,-259.85"/>
</g>
<!-- lalapps&#45;&gt;ligo.skymap -->
<g id="edge40" class="edge">
<title>lalapps&#45;&gt;ligo.skymap</title>
<path fill="none" stroke="black" d="M732.01,-361.46C720.56,-352.15 705.8,-340.13 693.05,-329.76"/>
<polygon fill="black" stroke="black" points="694.99,-326.82 685.02,-323.22 690.57,-332.25 694.99,-326.82"/>
</g>
<!-- lalapps&#45;&gt;bayeswave -->
<g id="edge41" class="edge">
<title>lalapps&#45;&gt;bayeswave</title>
<path fill="none" stroke="black" d="M751.94,-359.87C753.13,-335.67 755.32,-291.21 756.74,-262.39"/>
<polygon fill="black" stroke="black" points="760.25,-262.35 757.25,-252.19 753.26,-262 760.25,-262.35"/>
</g>
<!-- ligo.skymap&#45;&gt;bayeswave -->
<g id="edge42" class="edge">
<title>ligo.skymap&#45;&gt;bayeswave</title>
<path fill="none" stroke="black" d="M686.66,-288.76C699.28,-279.27 715.38,-267.15 729.1,-256.82"/>
<polygon fill="black" stroke="black" points="731.4,-259.48 737.28,-250.67 727.19,-253.88 731.4,-259.48"/>
</g>
<!-- root -->
<g id="node26" class="node">
<title>root</title>
<g id="a_node26"><a xlink:href="https://github.com/conda-forge/root-feedstock/pull/78" xlink:title="root">
<ellipse fill="#31688e" stroke="black" cx="1227.09" cy="-738" rx="30.59" ry="18"/>
<text text-anchor="middle" x="1227.09" y="-734.3" font-family="Times,serif" font-size="14.00" fill="white">root</text>
</a>
</g>
</g>
<!-- ostaphep -->
<g id="node27" class="node">
<title>ostaphep</title>
<ellipse fill="#fde725" stroke="black" cx="1188.09" cy="-666" rx="50.09" ry="18"/>
<text text-anchor="middle" x="1188.09" y="-662.3" font-family="Times,serif" font-size="14.00">ostaphep</text>
</g>
<!-- root&#45;&gt;ostaphep -->
<g id="edge44" class="edge">
<title>root&#45;&gt;ostaphep</title>
<path fill="none" stroke="black" d="M1218.05,-720.76C1213.46,-712.53 1207.77,-702.32 1202.59,-693.02"/>
<polygon fill="black" stroke="black" points="1205.56,-691.16 1197.63,-684.12 1199.44,-694.56 1205.56,-691.16"/>
</g>
<!-- gwollum -->
<g id="node28" class="node">
<title>gwollum</title>
<ellipse fill="#fde725" stroke="black" cx="1266.09" cy="-594" rx="45" ry="18"/>
<text text-anchor="middle" x="1266.09" y="-590.3" font-family="Times,serif" font-size="14.00">gwollum</text>
</g>
<!-- root&#45;&gt;gwollum -->
<g id="edge45" class="edge">
<title>root&#45;&gt;gwollum</title>
<path fill="none" stroke="black" d="M1234.24,-720.04C1238.39,-709.74 1243.49,-696.27 1247.09,-684 1253.09,-663.57 1258.04,-639.98 1261.38,-622.22"/>
<polygon fill="black" stroke="black" points="1264.85,-622.72 1263.21,-612.25 1257.96,-621.46 1264.85,-622.72"/>
</g>
<!-- plumed -->
<g id="node29" class="node">
<title>plumed</title>
<g id="a_node29"><a xlink:href="https://github.com/conda-forge/plumed-feedstock/pull/12" xlink:title="plumed">
<ellipse fill="#31688e" stroke="black" cx="1364.09" cy="-738" rx="40.5" ry="18"/>
<text text-anchor="middle" x="1364.09" y="-734.3" font-family="Times,serif" font-size="14.00" fill="white">plumed</text>
</a>
</g>
</g>
<!-- pyinterp -->
<g id="node30" class="node">
<title>pyinterp</title>
<g id="a_node30"><a xlink:href="https://github.com/conda-forge/pyinterp-feedstock/pull/13" xlink:title="pyinterp">
<ellipse fill="#31688e" stroke="black" cx="1364.09" cy="-666" rx="50.09" ry="18"/>
<text text-anchor="middle" x="1364.09" y="-662.3" font-family="Times,serif" font-size="14.00" fill="white">pyinterp</text>
</a>
</g>
</g>
<!-- plumed&#45;&gt;pyinterp -->
<!-- pyccl -->
<g id="node31" class="node">
<title>pyccl</title>
<g id="a_node31"><a xlink:href="https://github.com/conda-forge/pyccl-feedstock/pull/13" xlink:title="pyccl">
<ellipse fill="#31688e" stroke="black" cx="1364.09" cy="-594" rx="35.19" ry="18"/>
<text text-anchor="middle" x="1364.09" y="-590.3" font-family="Times,serif" font-size="14.00" fill="white">pyccl</text>
</a>
</g>
</g>
<!-- pyinterp&#45;&gt;pyccl -->
<!-- gwsurrogate -->
<g id="node32" class="node">
<title>gwsurrogate</title>
<g id="a_node32"><a xlink:href="https://github.com/conda-forge/gwsurrogate-feedstock/pull/6" xlink:title="gwsurrogate">
<ellipse fill="#31688e" stroke="black" cx="1364.09" cy="-522" rx="64.5" ry="18"/>
<text text-anchor="middle" x="1364.09" y="-518.3" font-family="Times,serif" font-size="14.00" fill="white">gwsurrogate</text>
</a>
</g>
</g>
<!-- pyccl&#45;&gt;gwsurrogate -->
</g>
</svg>
