<?xml version="1.0" encoding="UTF-8" standalone="no"?>
<!DOCTYPE svg PUBLIC "-//W3C//DTD SVG 1.1//EN"
 "http://www.w3.org/Graphics/SVG/1.1/DTD/svg11.dtd">
<!-- Generated by graphviz version 2.42.3 (20191010.1750)
 -->
<!-- Title: %3 Pages: 1 -->
<svg width="3051pt" height="476pt"
 viewBox="0.00 0.00 3050.50 476.00" xmlns="http://www.w3.org/2000/svg" xmlns:xlink="http://www.w3.org/1999/xlink">
<g id="graph0" class="graph" transform="scale(1 1) rotate(0) translate(4 472)">
<title>%3</title>
<polygon fill="white" stroke="transparent" points="-4,4 -4,-472 3046.5,-472 3046.5,4 -4,4"/>
<!-- caffe -->
<g id="node1" class="node">
<title>caffe</title>
<g id="a_node1"><a xlink:href="https://github.com/conda-forge/caffe-feedstock" xlink:title="caffe">
<ellipse fill="#fde725" stroke="black" cx="1033.5" cy="-378" rx="35.19" ry="18"/>
<text text-anchor="middle" x="1033.5" y="-374.3" font-family="Times,serif" font-size="14.00">caffe</text>
</a>
</g>
</g>
<!-- conda&#45;forge&#45;pinning -->
<g id="node2" class="node">
<title>conda&#45;forge&#45;pinning</title>
<ellipse fill="none" stroke="black" cx="1629.5" cy="-18" rx="103.5" ry="18"/>
<text text-anchor="middle" x="1629.5" y="-14.3" font-family="Times,serif" font-size="14.00">conda&#45;forge&#45;pinning</text>
</g>
<!-- caffe&#45;&gt;conda&#45;forge&#45;pinning -->
<g id="edge1" class="edge">
<title>caffe&#45;&gt;conda&#45;forge&#45;pinning</title>
<path fill="none" stroke="black" d="M1032.51,-359.96C1031.06,-333.31 1028.5,-280.14 1028.5,-235 1028.5,-235 1028.5,-235 1028.5,-161 1028.5,-120.03 1021.15,-98.38 1052.5,-72 1087.29,-42.73 1360.68,-28.37 1518.34,-22.46"/>
<polygon fill="black" stroke="black" points="1518.69,-25.95 1528.55,-22.08 1518.43,-18.95 1518.69,-25.95"/>
</g>
<!-- cyclus -->
<g id="node3" class="node">
<title>cyclus</title>
<g id="a_node3"><a xlink:href="https://github.com/conda-forge/cyclus-feedstock/pull/56" xlink:title="cyclus">
<ellipse fill="#31688e" stroke="black" cx="40.5" cy="-90" rx="40.5" ry="18"/>
<text text-anchor="middle" x="40.5" y="-86.3" font-family="Times,serif" font-size="14.00" fill="white">cyclus</text>
</a>
</g>
</g>
<!-- cyclus&#45;&gt;conda&#45;forge&#45;pinning -->
<g id="edge2" class="edge">
<title>cyclus&#45;&gt;conda&#45;forge&#45;pinning</title>
<path fill="none" stroke="black" d="M70.99,-78C78.87,-75.6 87.42,-73.36 95.5,-72 368.47,-25.94 1208.76,-19.73 1515.72,-19.03"/>
<polygon fill="black" stroke="black" points="1515.98,-22.53 1525.97,-19.01 1515.96,-15.53 1515.98,-22.53"/>
</g>
<!-- fenics -->
<g id="node4" class="node">
<title>fenics</title>
<g id="a_node4"><a xlink:href="https://github.com/conda-forge/fenics-feedstock/pull/107" xlink:title="fenics">
<ellipse fill="#31688e" stroke="black" cx="93.5" cy="-162" rx="40.5" ry="18"/>
<text text-anchor="middle" x="93.5" y="-158.3" font-family="Times,serif" font-size="14.00" fill="white">fenics</text>
</a>
</g>
</g>
<!-- fenics&#45;&gt;conda&#45;forge&#45;pinning -->
<g id="edge3" class="edge">
<title>fenics&#45;&gt;conda&#45;forge&#45;pinning</title>
<path fill="none" stroke="black" d="M98.53,-143.98C105.77,-122.88 121.33,-87.79 148.5,-72 207.32,-37.81 1180.35,-23.93 1516.42,-20.15"/>
<polygon fill="black" stroke="black" points="1516.69,-23.64 1526.65,-20.03 1516.62,-16.64 1516.69,-23.64"/>
</g>
<!-- flann -->
<g id="node5" class="node">
<title>flann</title>
<g id="a_node5"><a xlink:href="https://github.com/conda-forge/flann-feedstock/pull/26" xlink:title="flann">
<ellipse fill="#31688e" stroke="black" cx="137.5" cy="-234" rx="35.19" ry="18"/>
<text text-anchor="middle" x="137.5" y="-230.3" font-family="Times,serif" font-size="14.00" fill="white">flann</text>
</a>
</g>
</g>
<!-- flann&#45;&gt;conda&#45;forge&#45;pinning -->
<g id="edge4" class="edge">
<title>flann&#45;&gt;conda&#45;forge&#45;pinning</title>
<path fill="none" stroke="black" d="M140.18,-215.82C146.46,-178.06 163.35,-89.82 186.5,-72 238.89,-31.67 1185.22,-21.82 1516.28,-19.6"/>
<polygon fill="black" stroke="black" points="1516.39,-23.1 1526.37,-19.53 1516.34,-16.1 1516.39,-23.1"/>
</g>
<!-- graph -->
<g id="node6" class="node">
<title>graph</title>
<g id="a_node6"><a xlink:href="https://github.com/conda-forge/graph-feedstock/pull/5" xlink:title="graph">
<ellipse fill="#31688e" stroke="black" cx="200.5" cy="-306" rx="35.19" ry="18"/>
<text text-anchor="middle" x="200.5" y="-302.3" font-family="Times,serif" font-size="14.00" fill="white">graph</text>
</a>
</g>
</g>
<!-- graph&#45;&gt;conda&#45;forge&#45;pinning -->
<g id="edge5" class="edge">
<title>graph&#45;&gt;conda&#45;forge&#45;pinning</title>
<path fill="none" stroke="black" d="M195.39,-288.11C183.49,-244.89 159.25,-129.67 219.5,-72 266.04,-27.45 1188.53,-20.33 1515.67,-19.21"/>
<polygon fill="black" stroke="black" points="1516.13,-22.7 1526.11,-19.17 1516.1,-15.7 1516.13,-22.7"/>
</g>
<!-- h5py -->
<g id="node7" class="node">
<title>h5py</title>
<g id="a_node7"><a xlink:href="https://github.com/conda-forge/h5py-feedstock/pull/72" xlink:title="h5py">
<ellipse fill="#31688e" stroke="black" cx="951.5" cy="-450" rx="30.59" ry="18"/>
<text text-anchor="middle" x="951.5" y="-446.3" font-family="Times,serif" font-size="14.00" fill="white">h5py</text>
</a>
</g>
</g>
<!-- h5py&#45;&gt;caffe -->
<g id="edge6" class="edge">
<title>h5py&#45;&gt;caffe</title>
<path fill="none" stroke="black" d="M968.09,-434.83C979.64,-424.98 995.25,-411.65 1008.33,-400.49"/>
<polygon fill="black" stroke="black" points="1010.75,-403.02 1016.08,-393.87 1006.2,-397.7 1010.75,-403.02"/>
</g>
<!-- h5py&#45;&gt;conda&#45;forge&#45;pinning -->
<g id="edge7" class="edge">
<title>h5py&#45;&gt;conda&#45;forge&#45;pinning</title>
<path fill="none" stroke="black" d="M981.38,-445.76C1011.42,-440.74 1056.23,-428.02 1077.5,-396 1086.35,-382.67 1078.2,-375.98 1077.5,-360 1075.05,-304.28 1066.5,-290.77 1066.5,-235 1066.5,-235 1066.5,-235 1066.5,-161 1066.5,-113.3 1085.62,-96.58 1126.5,-72 1189.97,-33.84 1388.18,-22.96 1516.02,-19.97"/>
<polygon fill="black" stroke="black" points="1516.32,-23.47 1526.24,-19.75 1516.17,-16.47 1516.32,-23.47"/>
</g>
<!-- openmc -->
<g id="node8" class="node">
<title>openmc</title>
<g id="a_node8"><a xlink:href="https://github.com/conda-forge/openmc-feedstock" xlink:title="openmc">
<ellipse fill="#fde725" stroke="black" cx="1135.5" cy="-306" rx="40.5" ry="18"/>
<text text-anchor="middle" x="1135.5" y="-302.3" font-family="Times,serif" font-size="14.00">openmc</text>
</a>
</g>
</g>
<!-- h5py&#45;&gt;openmc -->
<g id="edge8" class="edge">
<title>h5py&#45;&gt;openmc</title>
<path fill="none" stroke="black" d="M981.72,-447.2C1017.45,-443.43 1076.37,-431.81 1110.5,-396 1126.29,-379.43 1132.25,-353.71 1134.42,-334.17"/>
<polygon fill="black" stroke="black" points="1137.93,-334.31 1135.28,-324.05 1130.95,-333.72 1137.93,-334.31"/>
</g>
<!-- rsgislib -->
<g id="node9" class="node">
<title>rsgislib</title>
<g id="a_node9"><a xlink:href="https://github.com/conda-forge/rsgislib-feedstock" xlink:title="rsgislib">
<ellipse fill="#fde725" stroke="black" cx="1182.5" cy="-234" rx="50.09" ry="18"/>
<text text-anchor="middle" x="1182.5" y="-230.3" font-family="Times,serif" font-size="14.00">rsgislib</text>
</a>
</g>
</g>
<!-- h5py&#45;&gt;rsgislib -->
<g id="edge9" class="edge">
<title>h5py&#45;&gt;rsgislib</title>
<path fill="none" stroke="black" d="M981.74,-446.47C1020.4,-441.92 1087.89,-429.48 1134.5,-396 1166.14,-373.27 1172.86,-361.18 1184.5,-324 1190.76,-304 1189.83,-280.21 1187.57,-262.26"/>
<polygon fill="black" stroke="black" points="1191,-261.57 1186.08,-252.18 1184.08,-262.59 1191,-261.57"/>
</g>
<!-- h5utils -->
<g id="node10" class="node">
<title>h5utils</title>
<g id="a_node10"><a xlink:href="https://github.com/conda-forge/h5utils-feedstock" xlink:title="h5utils">
<ellipse fill="#fde725" stroke="black" cx="1215.5" cy="-162" rx="45" ry="18"/>
<text text-anchor="middle" x="1215.5" y="-158.3" font-family="Times,serif" font-size="14.00">h5utils</text>
</a>
</g>
</g>
<!-- h5py&#45;&gt;h5utils -->
<g id="edge10" class="edge">
<title>h5py&#45;&gt;h5utils</title>
<path fill="none" stroke="black" d="M982.34,-449.08C1027.44,-447.64 1111.94,-438.88 1166.5,-396 1223.23,-351.41 1224.34,-322.09 1241.5,-252 1245.3,-236.46 1245.12,-231.59 1241.5,-216 1239.35,-206.72 1235.32,-197.18 1231.08,-188.81"/>
<polygon fill="black" stroke="black" points="1234.11,-187.05 1226.28,-179.92 1227.95,-190.38 1234.11,-187.05"/>
</g>
<!-- pymeep -->
<g id="node11" class="node">
<title>pymeep</title>
<g id="a_node11"><a xlink:href="https://github.com/conda-forge/pymeep-feedstock" xlink:title="pymeep">
<ellipse fill="#fde725" stroke="black" cx="1249.5" cy="-90" rx="40.5" ry="18"/>
<text text-anchor="middle" x="1249.5" y="-86.3" font-family="Times,serif" font-size="14.00">pymeep</text>
</a>
</g>
</g>
<!-- h5py&#45;&gt;pymeep -->
<g id="edge11" class="edge">
<title>h5py&#45;&gt;pymeep</title>
<path fill="none" stroke="black" d="M982.28,-449.86C1032.26,-449.75 1132.14,-443.06 1198.5,-396 1280.93,-337.55 1261.17,-280.71 1269.5,-180 1270.82,-164.05 1272.37,-159.74 1269.5,-144 1267.85,-134.96 1264.74,-125.46 1261.46,-117.04"/>
<polygon fill="black" stroke="black" points="1264.66,-115.63 1257.6,-107.74 1258.2,-118.32 1264.66,-115.63"/>
</g>
<!-- blosc&#45;hdf5&#45;plugin -->
<g id="node12" class="node">
<title>blosc&#45;hdf5&#45;plugin</title>
<g id="a_node12"><a xlink:href="https://github.com/conda-forge/blosc-hdf5-plugin-feedstock" xlink:title="blosc hdf5 plugin">
<ellipse fill="#fde725" stroke="black" cx="322.5" cy="-90" rx="93.68" ry="18"/>
<text text-anchor="middle" x="322.5" y="-86.3" font-family="Times,serif" font-size="14.00">blosc hdf5 plugin</text>
</a>
</g>
</g>
<!-- h5py&#45;&gt;blosc&#45;hdf5&#45;plugin -->
<g id="edge12" class="edge">
<title>h5py&#45;&gt;blosc&#45;hdf5&#45;plugin</title>
<path fill="none" stroke="black" d="M921.02,-447.92C830.53,-444.34 564.85,-431.02 486.5,-396 432.18,-371.72 386.5,-366.5 386.5,-307 386.5,-307 386.5,-307 386.5,-233 386.5,-188.84 360.45,-143.23 341.59,-115.99"/>
<polygon fill="black" stroke="black" points="344.42,-113.93 335.76,-107.82 338.72,-117.99 344.42,-113.93"/>
</g>
<!-- isce2 -->
<g id="node13" class="node">
<title>isce2</title>
<g id="a_node13"><a xlink:href="https://github.com/conda-forge/isce2-feedstock" xlink:title="isce2">
<ellipse fill="#fde725" stroke="black" cx="469.5" cy="-90" rx="35.19" ry="18"/>
<text text-anchor="middle" x="469.5" y="-86.3" font-family="Times,serif" font-size="14.00">isce2</text>
</a>
</g>
</g>
<!-- h5py&#45;&gt;isce2 -->
<g id="edge13" class="edge">
<title>h5py&#45;&gt;isce2</title>
<path fill="none" stroke="black" d="M921.25,-447.38C826.65,-442.04 540.86,-423.72 510.5,-396 480.63,-368.73 491.5,-347.45 491.5,-307 491.5,-307 491.5,-307 491.5,-233 491.5,-192.52 482.66,-146.3 476.19,-117.89"/>
<polygon fill="black" stroke="black" points="479.54,-116.85 473.85,-107.92 472.73,-118.45 479.54,-116.85"/>
</g>
<!-- bitshuffle -->
<g id="node14" class="node">
<title>bitshuffle</title>
<g id="a_node14"><a xlink:href="https://github.com/conda-forge/bitshuffle-feedstock" xlink:title="bitshuffle">
<ellipse fill="#fde725" stroke="black" cx="579.5" cy="-378" rx="60" ry="18"/>
<text text-anchor="middle" x="579.5" y="-374.3" font-family="Times,serif" font-size="14.00">bitshuffle</text>
</a>
</g>
</g>
<!-- h5py&#45;&gt;bitshuffle -->
<g id="edge14" class="edge">
<title>h5py&#45;&gt;bitshuffle</title>
<path fill="none" stroke="black" d="M922.22,-444.29C868.71,-435.57 751.59,-415.98 653.5,-396 647.62,-394.8 641.5,-393.5 635.4,-392.15"/>
<polygon fill="black" stroke="black" points="635.74,-388.64 625.21,-389.88 634.21,-395.47 635.74,-388.64"/>
</g>
<!-- triqs -->
<g id="node15" class="node">
<title>triqs</title>
<g id="a_node15"><a xlink:href="https://github.com/conda-forge/triqs-feedstock" xlink:title="triqs">
<ellipse fill="#fde725" stroke="black" cx="663.5" cy="-162" rx="35.19" ry="18"/>
<text text-anchor="middle" x="663.5" y="-158.3" font-family="Times,serif" font-size="14.00">triqs</text>
</a>
</g>
</g>
<!-- h5py&#45;&gt;triqs -->
<g id="edge15" class="edge">
<title>h5py&#45;&gt;triqs</title>
<path fill="none" stroke="black" d="M922.58,-443.69C869.18,-432.24 755.61,-399.85 701.5,-324 672.76,-283.7 665.49,-224.69 663.81,-190.43"/>
<polygon fill="black" stroke="black" points="667.3,-190.1 663.44,-180.23 660.31,-190.35 667.3,-190.1"/>
</g>
<!-- hdf5plugin -->
<g id="node16" class="node">
<title>hdf5plugin</title>
<g id="a_node16"><a xlink:href="https://github.com/conda-forge/hdf5plugin-feedstock" xlink:title="hdf5plugin">
<ellipse fill="#fde725" stroke="black" cx="770.5" cy="-306" rx="60" ry="18"/>
<text text-anchor="middle" x="770.5" y="-302.3" font-family="Times,serif" font-size="14.00">hdf5plugin</text>
</a>
</g>
</g>
<!-- h5py&#45;&gt;hdf5plugin -->
<g id="edge16" class="edge">
<title>h5py&#45;&gt;hdf5plugin</title>
<path fill="none" stroke="black" d="M928.07,-438.34C908.09,-428.7 879.1,-413.39 856.5,-396 831.61,-376.86 807.12,-350.57 790.67,-331.53"/>
<polygon fill="black" stroke="black" points="793.29,-329.2 784.14,-323.86 787.96,-333.74 793.29,-329.2"/>
</g>
<!-- prismatic_split -->
<g id="node17" class="node">
<title>prismatic_split</title>
<g id="a_node17"><a xlink:href="https://github.com/conda-forge/prismatic_split-feedstock" xlink:title="prismatic_split">
<ellipse fill="#fde725" stroke="black" cx="820.5" cy="-234" rx="84" ry="18"/>
<text text-anchor="middle" x="820.5" y="-230.3" font-family="Times,serif" font-size="14.00">prismatic_split</text>
</a>
</g>
</g>
<!-- h5py&#45;&gt;prismatic_split -->
<g id="edge17" class="edge">
<title>h5py&#45;&gt;prismatic_split</title>
<path fill="none" stroke="black" d="M941.35,-432.79C934.8,-422.31 926.11,-408.37 918.5,-396 889.15,-348.32 855.25,-292.45 836,-260.64"/>
<polygon fill="black" stroke="black" points="838.91,-258.7 830.74,-251.96 832.93,-262.32 838.91,-258.7"/>
</g>
<!-- digital_rf -->
<g id="node18" class="node">
<title>digital_rf</title>
<g id="a_node18"><a xlink:href="https://github.com/conda-forge/digital_rf-feedstock" xlink:title="digital_rf">
<ellipse fill="#fde725" stroke="black" cx="882.5" cy="-162" rx="60" ry="18"/>
<text text-anchor="middle" x="882.5" y="-158.3" font-family="Times,serif" font-size="14.00">digital_rf</text>
</a>
</g>
</g>
<!-- h5py&#45;&gt;digital_rf -->
<g id="edge18" class="edge">
<title>h5py&#45;&gt;digital_rf</title>
<path fill="none" stroke="black" d="M950.84,-431.8C948.88,-392.45 941.33,-293.32 913.5,-216 910.11,-206.57 905.03,-196.92 899.95,-188.48"/>
<polygon fill="black" stroke="black" points="902.82,-186.47 894.53,-179.87 896.9,-190.2 902.82,-186.47"/>
</g>
<!-- pp&#45;sketchlib -->
<g id="node19" class="node">
<title>pp&#45;sketchlib</title>
<g id="a_node19"><a xlink:href="https://github.com/conda-forge/pp-sketchlib-feedstock" xlink:title="pp sketchlib">
<ellipse fill="#fde725" stroke="black" cx="930.5" cy="-90" rx="69.59" ry="18"/>
<text text-anchor="middle" x="930.5" y="-86.3" font-family="Times,serif" font-size="14.00">pp sketchlib</text>
</a>
</g>
</g>
<!-- h5py&#45;&gt;pp&#45;sketchlib -->
<g id="edge19" class="edge">
<title>h5py&#45;&gt;pp&#45;sketchlib</title>
<path fill="none" stroke="black" d="M955.25,-432.05C960.79,-405.52 970.5,-352.52 970.5,-307 970.5,-307 970.5,-307 970.5,-233 970.5,-191.48 954.46,-145.61 942.7,-117.54"/>
<polygon fill="black" stroke="black" points="945.77,-115.84 938.59,-108.05 939.35,-118.62 945.77,-115.84"/>
</g>
<!-- openmc&#45;&gt;conda&#45;forge&#45;pinning -->
<g id="edge20" class="edge">
<title>openmc&#45;&gt;conda&#45;forge&#45;pinning</title>
<path fill="none" stroke="black" d="M1130.28,-287.88C1118.12,-244.14 1093.42,-127.75 1155.5,-72 1182.2,-48.02 1390.1,-32.21 1521.55,-24.51"/>
<polygon fill="black" stroke="black" points="1521.88,-27.99 1531.66,-23.92 1521.48,-21.01 1521.88,-27.99"/>
</g>
<!-- rsgislib&#45;&gt;conda&#45;forge&#45;pinning -->
<g id="edge21" class="edge">
<title>rsgislib&#45;&gt;conda&#45;forge&#45;pinning</title>
<path fill="none" stroke="black" d="M1173.78,-215.83C1169.13,-205.69 1163.88,-192.44 1161.5,-180 1152.24,-131.5 1148.86,-102.73 1187.5,-72 1236.71,-32.87 1401.93,-22.07 1515.8,-19.39"/>
<polygon fill="black" stroke="black" points="1516.05,-22.89 1525.97,-19.17 1515.9,-15.89 1516.05,-22.89"/>
</g>
<!-- h5utils&#45;&gt;conda&#45;forge&#45;pinning -->
<g id="edge22" class="edge">
<title>h5utils&#45;&gt;conda&#45;forge&#45;pinning</title>
<path fill="none" stroke="black" d="M1205.31,-144.39C1194.68,-124.68 1181.82,-91.99 1199.5,-72 1220.6,-48.14 1401.98,-32.65 1522.34,-24.9"/>
<polygon fill="black" stroke="black" points="1522.58,-28.4 1532.34,-24.27 1522.14,-21.41 1522.58,-28.4"/>
</g>
<!-- h5utils&#45;&gt;pymeep -->
<g id="edge23" class="edge">
<title>h5utils&#45;&gt;pymeep</title>
<path fill="none" stroke="black" d="M1223.73,-144.05C1227.7,-135.89 1232.54,-125.91 1236.96,-116.82"/>
<polygon fill="black" stroke="black" points="1240.12,-118.31 1241.35,-107.79 1233.83,-115.25 1240.12,-118.31"/>
</g>
<!-- pymeep&#45;&gt;conda&#45;forge&#45;pinning -->
<g id="edge24" class="edge">
<title>pymeep&#45;&gt;conda&#45;forge&#45;pinning</title>
<path fill="none" stroke="black" d="M1281,-78.45C1288.63,-76.12 1296.81,-73.81 1304.5,-72 1382.29,-53.73 1472.02,-39.61 1537.46,-30.55"/>
<polygon fill="black" stroke="black" points="1538.32,-33.97 1547.75,-29.15 1537.37,-27.04 1538.32,-33.97"/>
</g>
<!-- blosc&#45;hdf5&#45;plugin&#45;&gt;conda&#45;forge&#45;pinning -->
<g id="edge25" class="edge">
<title>blosc&#45;hdf5&#45;plugin&#45;&gt;conda&#45;forge&#45;pinning</title>
<path fill="none" stroke="black" d="M387.73,-77.03C400.23,-75.07 413.24,-73.28 425.5,-72 824.76,-30.41 1301.82,-21.39 1515.82,-19.48"/>
<polygon fill="black" stroke="black" points="1516.15,-22.98 1526.12,-19.39 1516.09,-15.98 1516.15,-22.98"/>
</g>
<!-- isce2&#45;&gt;conda&#45;forge&#45;pinning -->
<g id="edge26" class="edge">
<title>isce2&#45;&gt;conda&#45;forge&#45;pinning</title>
<path fill="none" stroke="black" d="M496.08,-78.23C503.25,-75.76 511.07,-73.43 518.5,-72 707.05,-35.58 1273.24,-23.76 1516.46,-20.3"/>
<polygon fill="black" stroke="black" points="1516.79,-23.79 1526.74,-20.15 1516.69,-16.8 1516.79,-23.79"/>
</g>
<!-- bitshuffle&#45;&gt;conda&#45;forge&#45;pinning -->
<g id="edge27" class="edge">
<title>bitshuffle&#45;&gt;conda&#45;forge&#45;pinning</title>
<path fill="none" stroke="black" d="M569.99,-360.11C556.26,-334.09 532.5,-282.26 532.5,-235 532.5,-235 532.5,-235 532.5,-161 532.5,-116.27 541.78,-96.05 579.5,-72 656.86,-22.67 1260.41,-18.13 1515.88,-18.46"/>
<polygon fill="black" stroke="black" points="1515.93,-21.96 1525.93,-18.47 1515.94,-14.96 1515.93,-21.96"/>
</g>
<!-- triqs&#45;&gt;conda&#45;forge&#45;pinning -->
<g id="edge28" class="edge">
<title>triqs&#45;&gt;conda&#45;forge&#45;pinning</title>
<path fill="none" stroke="black" d="M637.18,-149.96C620.19,-141.28 599.47,-127.4 589.5,-108 582.19,-93.77 578.48,-83.6 589.5,-72 621.03,-38.82 1253.69,-24.97 1516.52,-20.63"/>
<polygon fill="black" stroke="black" points="1516.91,-24.12 1526.86,-20.46 1516.8,-17.12 1516.91,-24.12"/>
</g>
<!-- triqs_cthyb -->
<g id="node20" class="node">
<title>triqs_cthyb</title>
<g id="a_node20"><a xlink:href="https://github.com/conda-forge/triqs_cthyb-feedstock" xlink:title="triqs_cthyb">
<ellipse fill="#fde725" stroke="black" cx="663.5" cy="-90" rx="64.5" ry="18"/>
<text text-anchor="middle" x="663.5" y="-86.3" font-family="Times,serif" font-size="14.00">triqs_cthyb</text>
</a>
</g>
</g>
<!-- triqs&#45;&gt;triqs_cthyb -->
<g id="edge29" class="edge">
<title>triqs&#45;&gt;triqs_cthyb</title>
<path fill="none" stroke="black" d="M663.5,-143.7C663.5,-135.98 663.5,-126.71 663.5,-118.11"/>
<polygon fill="black" stroke="black" points="667,-118.1 663.5,-108.1 660,-118.1 667,-118.1"/>
</g>
<!-- hdf5plugin&#45;&gt;conda&#45;forge&#45;pinning -->
<g id="edge30" class="edge">
<title>hdf5plugin&#45;&gt;conda&#45;forge&#45;pinning</title>
<path fill="none" stroke="black" d="M752.36,-288.76C742.98,-279.13 732.49,-266.07 727.5,-252 722.15,-236.92 723.28,-231.43 727.5,-216 747.08,-144.31 749.19,-110.92 812.5,-72 870.99,-36.05 1306.57,-24.17 1516.72,-20.51"/>
<polygon fill="black" stroke="black" points="1516.92,-24.01 1526.86,-20.34 1516.8,-17.01 1516.92,-24.01"/>
</g>
<!-- prismatic_split&#45;&gt;conda&#45;forge&#45;pinning -->
<g id="edge31" class="edge">
<title>prismatic_split&#45;&gt;conda&#45;forge&#45;pinning</title>
<path fill="none" stroke="black" d="M815.92,-215.78C807.95,-181.43 796.32,-104.86 840.5,-72 893.38,-32.67 1310.79,-22.52 1516.16,-19.91"/>
<polygon fill="black" stroke="black" points="1516.42,-23.4 1526.38,-19.78 1516.33,-16.4 1516.42,-23.4"/>
</g>
<!-- digital_rf&#45;&gt;conda&#45;forge&#45;pinning -->
<g id="edge32" class="edge">
<title>digital_rf&#45;&gt;conda&#45;forge&#45;pinning</title>
<path fill="none" stroke="black" d="M867.93,-144.5C852.41,-124.9 832.51,-92.33 851.5,-72 895.81,-24.57 1310.28,-18.46 1515.49,-18.38"/>
<polygon fill="black" stroke="black" points="1515.71,-21.88 1525.71,-18.38 1515.71,-14.88 1515.71,-21.88"/>
</g>
<!-- pp&#45;sketchlib&#45;&gt;conda&#45;forge&#45;pinning -->
<g id="edge33" class="edge">
<title>pp&#45;sketchlib&#45;&gt;conda&#45;forge&#45;pinning</title>
<path fill="none" stroke="black" d="M981.42,-77.73C992.3,-75.59 1003.75,-73.55 1014.5,-72 1191.19,-46.59 1398.31,-31.81 1521.46,-24.58"/>
<polygon fill="black" stroke="black" points="1521.87,-28.07 1531.65,-23.99 1521.46,-21.08 1521.87,-28.07"/>
</g>
<!-- triqs_cthyb&#45;&gt;conda&#45;forge&#45;pinning -->
<g id="edge69" class="edge">
<title>triqs_cthyb&#45;&gt;conda&#45;forge&#45;pinning</title>
<path fill="none" stroke="black" d="M710.5,-77.66C720.98,-75.47 732.07,-73.42 742.5,-72 1018.86,-34.23 1347.3,-23.38 1516.41,-20.26"/>
<polygon fill="black" stroke="black" points="1516.63,-23.75 1526.57,-20.07 1516.51,-16.75 1516.63,-23.75"/>
</g>
<!-- hdfeos5 -->
<g id="node21" class="node">
<title>hdfeos5</title>
<g id="a_node21"><a xlink:href="https://github.com/conda-forge/hdfeos5-feedstock/pull/27" xlink:title="hdfeos5">
<ellipse fill="#31688e" stroke="black" cx="1470.5" cy="-234" rx="45" ry="18"/>
<text text-anchor="middle" x="1470.5" y="-230.3" font-family="Times,serif" font-size="14.00" fill="white">hdfeos5</text>
</a>
</g>
</g>
<!-- hdfeos5&#45;&gt;conda&#45;forge&#45;pinning -->
<g id="edge34" class="edge">
<title>hdfeos5&#45;&gt;conda&#45;forge&#45;pinning</title>
<path fill="none" stroke="black" d="M1472.36,-215.87C1476.65,-179.06 1488.32,-93.94 1506.5,-72 1520.08,-55.61 1539.67,-44.17 1559.24,-36.23"/>
<polygon fill="black" stroke="black" points="1560.7,-39.42 1568.82,-32.61 1558.22,-32.87 1560.7,-39.42"/>
</g>
<!-- ncl -->
<g id="node22" class="node">
<title>ncl</title>
<g id="a_node22"><a xlink:href="https://github.com/conda-forge/ncl-feedstock" xlink:title="ncl">
<ellipse fill="#fde725" stroke="black" cx="1415.5" cy="-162" rx="27" ry="18"/>
<text text-anchor="middle" x="1415.5" y="-158.3" font-family="Times,serif" font-size="14.00">ncl</text>
</a>
</g>
</g>
<!-- hdfeos5&#45;&gt;ncl -->
<g id="edge35" class="edge">
<title>hdfeos5&#45;&gt;ncl</title>
<path fill="none" stroke="black" d="M1457.47,-216.41C1450.49,-207.53 1441.77,-196.44 1434.1,-186.67"/>
<polygon fill="black" stroke="black" points="1436.62,-184.21 1427.69,-178.51 1431.11,-188.54 1436.62,-184.21"/>
</g>
<!-- pynio -->
<g id="node23" class="node">
<title>pynio</title>
<g id="a_node23"><a xlink:href="https://github.com/conda-forge/pynio-feedstock" xlink:title="pynio">
<ellipse fill="#fde725" stroke="black" cx="1419.5" cy="-90" rx="35.19" ry="18"/>
<text text-anchor="middle" x="1419.5" y="-86.3" font-family="Times,serif" font-size="14.00">pynio</text>
</a>
</g>
</g>
<!-- hdfeos5&#45;&gt;pynio -->
<g id="edge36" class="edge">
<title>hdfeos5&#45;&gt;pynio</title>
<path fill="none" stroke="black" d="M1468.55,-215.78C1466.09,-197.48 1460.97,-167.95 1451.5,-144 1447.68,-134.36 1442.2,-124.45 1436.85,-115.86"/>
<polygon fill="black" stroke="black" points="1439.76,-113.93 1431.39,-107.44 1433.89,-117.73 1439.76,-113.93"/>
</g>
<!-- ncl&#45;&gt;conda&#45;forge&#45;pinning -->
<g id="edge37" class="edge">
<title>ncl&#45;&gt;conda&#45;forge&#45;pinning</title>
<path fill="none" stroke="black" d="M1400.4,-146.82C1382.36,-128.15 1356.8,-95 1375.5,-72 1394.81,-48.24 1465.23,-34.77 1527.04,-27.36"/>
<polygon fill="black" stroke="black" points="1527.73,-30.8 1537.27,-26.18 1526.93,-23.85 1527.73,-30.8"/>
</g>
<!-- pynio&#45;&gt;conda&#45;forge&#45;pinning -->
<g id="edge38" class="edge">
<title>pynio&#45;&gt;conda&#45;forge&#45;pinning</title>
<path fill="none" stroke="black" d="M1447.72,-79.12C1454.52,-76.77 1461.76,-74.28 1468.5,-72 1503.21,-60.27 1542.25,-47.41 1573.19,-37.29"/>
<polygon fill="black" stroke="black" points="1574.52,-40.54 1582.94,-34.11 1572.34,-33.89 1574.52,-40.54"/>
</g>
<!-- hyperion&#45;fortran -->
<g id="node24" class="node">
<title>hyperion&#45;fortran</title>
<g id="a_node24"><a xlink:href="https://github.com/conda-forge/hyperion-fortran-feedstock/pull/18" xlink:title="hyperion fortran">
<ellipse fill="#31688e" stroke="black" cx="1546.5" cy="-378" rx="89.08" ry="18"/>
<text text-anchor="middle" x="1546.5" y="-374.3" font-family="Times,serif" font-size="14.00" fill="white">hyperion fortran</text>
</a>
</g>
</g>
<!-- hyperion&#45;fortran&#45;&gt;conda&#45;forge&#45;pinning -->
<g id="edge39" class="edge">
<title>hyperion&#45;fortran&#45;&gt;conda&#45;forge&#45;pinning</title>
<path fill="none" stroke="black" d="M1543.84,-359.84C1535.39,-302.96 1511.24,-121.43 1539.5,-72 1547.62,-57.79 1561.21,-47.01 1575.39,-39.01"/>
<polygon fill="black" stroke="black" points="1577.01,-42.11 1584.26,-34.38 1573.77,-35.91 1577.01,-42.11"/>
</g>
<!-- libcdms -->
<g id="node25" class="node">
<title>libcdms</title>
<g id="a_node25"><a xlink:href="https://github.com/conda-forge/libcdms-feedstock/pull/32" xlink:title="libcdms">
<ellipse fill="#31688e" stroke="black" cx="1593.5" cy="-90" rx="45" ry="18"/>
<text text-anchor="middle" x="1593.5" y="-86.3" font-family="Times,serif" font-size="14.00" fill="white">libcdms</text>
</a>
</g>
</g>
<!-- libcdms&#45;&gt;conda&#45;forge&#45;pinning -->
<g id="edge40" class="edge">
<title>libcdms&#45;&gt;conda&#45;forge&#45;pinning</title>
<path fill="none" stroke="black" d="M1602.21,-72.05C1606.35,-64.01 1611.39,-54.2 1616.01,-45.23"/>
<polygon fill="black" stroke="black" points="1619.15,-46.77 1620.62,-36.28 1612.93,-43.57 1619.15,-46.77"/>
</g>
<!-- libmatio -->
<g id="node26" class="node">
<title>libmatio</title>
<g id="a_node26"><a xlink:href="https://github.com/conda-forge/libmatio-feedstock/pull/28" xlink:title="libmatio">
<ellipse fill="#31688e" stroke="black" cx="1772.5" cy="-378" rx="50.09" ry="18"/>
<text text-anchor="middle" x="1772.5" y="-374.3" font-family="Times,serif" font-size="14.00" fill="white">libmatio</text>
</a>
</g>
</g>
<!-- libmatio&#45;&gt;conda&#45;forge&#45;pinning -->
<g id="edge41" class="edge">
<title>libmatio&#45;&gt;conda&#45;forge&#45;pinning</title>
<path fill="none" stroke="black" d="M1776.44,-359.99C1789.27,-302.76 1827.15,-118.24 1793.5,-72 1777.97,-50.65 1753.66,-37.73 1728.47,-29.95"/>
<polygon fill="black" stroke="black" points="1729.37,-26.57 1718.79,-27.21 1727.46,-33.3 1729.37,-26.57"/>
</g>
<!-- pytrilinos -->
<g id="node27" class="node">
<title>pytrilinos</title>
<g id="a_node27"><a xlink:href="https://github.com/conda-forge/pytrilinos-feedstock" xlink:title="pytrilinos">
<ellipse fill="#fde725" stroke="black" cx="1860.5" cy="-306" rx="60" ry="18"/>
<text text-anchor="middle" x="1860.5" y="-302.3" font-family="Times,serif" font-size="14.00">pytrilinos</text>
</a>
</g>
</g>
<!-- libmatio&#45;&gt;pytrilinos -->
<g id="edge42" class="edge">
<title>libmatio&#45;&gt;pytrilinos</title>
<path fill="none" stroke="black" d="M1792.47,-361.12C1804.2,-351.78 1819.22,-339.84 1832.16,-329.55"/>
<polygon fill="black" stroke="black" points="1834.66,-332.03 1840.31,-323.06 1830.3,-326.55 1834.66,-332.03"/>
</g>
<!-- trilinos -->
<g id="node28" class="node">
<title>trilinos</title>
<g id="a_node28"><a xlink:href="https://github.com/conda-forge/trilinos-feedstock" xlink:title="trilinos">
<ellipse fill="#fde725" stroke="black" cx="1888.5" cy="-234" rx="50.09" ry="18"/>
<text text-anchor="middle" x="1888.5" y="-230.3" font-family="Times,serif" font-size="14.00">trilinos</text>
</a>
</g>
</g>
<!-- libmatio&#45;&gt;trilinos -->
<g id="edge43" class="edge">
<title>libmatio&#45;&gt;trilinos</title>
<path fill="none" stroke="black" d="M1822.11,-374.81C1858.36,-370.3 1905.26,-357.77 1929.5,-324 1944.08,-303.68 1928.4,-277.35 1912.4,-258.62"/>
<polygon fill="black" stroke="black" points="1914.91,-256.17 1905.61,-251.09 1909.71,-260.86 1914.91,-256.17"/>
</g>
<!-- openmeeg -->
<g id="node29" class="node">
<title>openmeeg</title>
<g id="a_node29"><a xlink:href="https://github.com/conda-forge/openmeeg-feedstock" xlink:title="openmeeg">
<ellipse fill="#fde725" stroke="black" cx="1656.5" cy="-162" rx="50.09" ry="18"/>
<text text-anchor="middle" x="1656.5" y="-158.3" font-family="Times,serif" font-size="14.00">openmeeg</text>
</a>
</g>
</g>
<!-- libmatio&#45;&gt;openmeeg -->
<g id="edge44" class="edge">
<title>libmatio&#45;&gt;openmeeg</title>
<path fill="none" stroke="black" d="M1753.25,-360.87C1742.5,-351.08 1729.5,-337.83 1720.5,-324 1692.36,-280.78 1673.21,-223.24 1663.63,-189.95"/>
<polygon fill="black" stroke="black" points="1666.92,-188.72 1660.85,-180.04 1660.18,-190.61 1666.92,-188.72"/>
</g>
<!-- libvips -->
<g id="node30" class="node">
<title>libvips</title>
<g id="a_node30"><a xlink:href="https://github.com/conda-forge/libvips-feedstock" xlink:title="libvips">
<ellipse fill="#fde725" stroke="black" cx="1739.5" cy="-90" rx="45" ry="18"/>
<text text-anchor="middle" x="1739.5" y="-86.3" font-family="Times,serif" font-size="14.00">libvips</text>
</a>
</g>
</g>
<!-- libmatio&#45;&gt;libvips -->
<g id="edge45" class="edge">
<title>libmatio&#45;&gt;libvips</title>
<path fill="none" stroke="black" d="M1767.18,-359.98C1764.17,-349.67 1760.59,-336.19 1758.5,-324 1745.85,-250.25 1741.57,-161.87 1740.16,-118.19"/>
<polygon fill="black" stroke="black" points="1743.66,-117.98 1739.86,-108.09 1736.66,-118.18 1743.66,-117.98"/>
</g>
<!-- pytrilinos&#45;&gt;conda&#45;forge&#45;pinning -->
<g id="edge46" class="edge">
<title>pytrilinos&#45;&gt;conda&#45;forge&#45;pinning</title>
<path fill="none" stroke="black" d="M1847.76,-288.35C1840.93,-278.39 1833.18,-265.14 1829.5,-252 1807.93,-174.95 1875.7,-135.09 1826.5,-72 1812.47,-54.01 1762.69,-40.71 1716.69,-31.93"/>
<polygon fill="black" stroke="black" points="1717.11,-28.45 1706.64,-30.07 1715.83,-35.33 1717.11,-28.45"/>
</g>
<!-- trilinos&#45;&gt;conda&#45;forge&#45;pinning -->
<g id="edge47" class="edge">
<title>trilinos&#45;&gt;conda&#45;forge&#45;pinning</title>
<path fill="none" stroke="black" d="M1885.01,-215.86C1882.96,-205.5 1880.41,-192.02 1878.5,-180 1870.9,-132.2 1897.1,-107.78 1864.5,-72 1845.6,-51.26 1781.94,-37.7 1725.64,-29.49"/>
<polygon fill="black" stroke="black" points="1725.98,-26 1715.59,-28.07 1725,-32.93 1725.98,-26"/>
</g>
<!-- openmeeg&#45;&gt;conda&#45;forge&#45;pinning -->
<g id="edge48" class="edge">
<title>openmeeg&#45;&gt;conda&#45;forge&#45;pinning</title>
<path fill="none" stroke="black" d="M1655.91,-143.76C1655.03,-125.69 1652.85,-96.58 1647.5,-72 1645.62,-63.36 1642.8,-54.16 1639.95,-45.9"/>
<polygon fill="black" stroke="black" points="1643.2,-44.6 1636.52,-36.38 1636.62,-46.98 1643.2,-44.6"/>
</g>
<!-- libvips&#45;&gt;conda&#45;forge&#45;pinning -->
<g id="edge49" class="edge">
<title>libvips&#45;&gt;conda&#45;forge&#45;pinning</title>
<path fill="none" stroke="black" d="M1716.44,-74.33C1701.31,-64.7 1681.25,-51.93 1664.21,-41.09"/>
<polygon fill="black" stroke="black" points="1665.93,-38.03 1655.62,-35.62 1662.17,-43.94 1665.93,-38.03"/>
</g>
<!-- marray -->
<g id="node31" class="node">
<title>marray</title>
<g id="a_node31"><a xlink:href="https://github.com/conda-forge/marray-feedstock/pull/8" xlink:title="marray">
<ellipse fill="#31688e" stroke="black" cx="1928.5" cy="-162" rx="40.5" ry="18"/>
<text text-anchor="middle" x="1928.5" y="-158.3" font-family="Times,serif" font-size="14.00" fill="white">marray</text>
</a>
</g>
</g>
<!-- marray&#45;&gt;conda&#45;forge&#45;pinning -->
<g id="edge50" class="edge">
<title>marray&#45;&gt;conda&#45;forge&#45;pinning</title>
<path fill="none" stroke="black" d="M1928.52,-143.86C1927.55,-123.63 1922.72,-90.44 1902.5,-72 1877.47,-49.18 1797.88,-35.46 1731.05,-27.71"/>
<polygon fill="black" stroke="black" points="1731.2,-24.21 1720.87,-26.56 1730.41,-31.16 1731.2,-24.21"/>
</g>
<!-- octave -->
<g id="node32" class="node">
<title>octave</title>
<g id="a_node32"><a xlink:href="https://github.com/conda-forge/octave-feedstock/pull/39" xlink:title="octave">
<ellipse fill="#31688e" stroke="black" cx="1997.5" cy="-234" rx="40.5" ry="18"/>
<text text-anchor="middle" x="1997.5" y="-230.3" font-family="Times,serif" font-size="14.00" fill="white">octave</text>
</a>
</g>
</g>
<!-- octave&#45;&gt;conda&#45;forge&#45;pinning -->
<g id="edge51" class="edge">
<title>octave&#45;&gt;conda&#45;forge&#45;pinning</title>
<path fill="none" stroke="black" d="M1995.96,-215.9C1991.82,-181.42 1977.05,-104.09 1926.5,-72 1894.14,-51.46 1801.7,-37.08 1728.45,-28.53"/>
<polygon fill="black" stroke="black" points="1728.59,-25.03 1718.25,-27.37 1727.79,-31.98 1728.59,-25.03"/>
</g>
<!-- pyne -->
<g id="node33" class="node">
<title>pyne</title>
<g id="a_node33"><a xlink:href="https://github.com/conda-forge/pyne-feedstock/pull/40" xlink:title="pyne">
<ellipse fill="#31688e" stroke="black" cx="2045.5" cy="-306" rx="30.59" ry="18"/>
<text text-anchor="middle" x="2045.5" y="-302.3" font-family="Times,serif" font-size="14.00" fill="white">pyne</text>
</a>
</g>
</g>
<!-- pyne&#45;&gt;conda&#45;forge&#45;pinning -->
<g id="edge52" class="edge">
<title>pyne&#45;&gt;conda&#45;forge&#45;pinning</title>
<path fill="none" stroke="black" d="M2048.5,-287.9C2051.05,-269.7 2053.32,-240.25 2046.5,-216 2026.19,-143.8 2020.78,-113.79 1958.5,-72 1922.59,-47.9 1816.4,-33.87 1734.28,-26.37"/>
<polygon fill="black" stroke="black" points="1734.4,-22.87 1724.13,-25.47 1733.78,-29.84 1734.4,-22.87"/>
</g>
<!-- r&#45;hdf5r -->
<g id="node34" class="node">
<title>r&#45;hdf5r</title>
<g id="a_node34"><a xlink:href="https://github.com/conda-forge/r-hdf5r-feedstock/pull/12" xlink:title="r hdf5r">
<ellipse fill="#31688e" stroke="black" cx="2104.5" cy="-378" rx="45" ry="18"/>
<text text-anchor="middle" x="2104.5" y="-374.3" font-family="Times,serif" font-size="14.00" fill="white">r hdf5r</text>
</a>
</g>
</g>
<!-- r&#45;hdf5r&#45;&gt;conda&#45;forge&#45;pinning -->
<g id="edge53" class="edge">
<title>r&#45;hdf5r&#45;&gt;conda&#45;forge&#45;pinning</title>
<path fill="none" stroke="black" d="M2104.86,-359.8C2104.94,-305.13 2096.7,-135.23 1994.5,-72 1952.51,-46.02 1828.65,-32.11 1736.8,-25.15"/>
<polygon fill="black" stroke="black" points="1736.84,-21.65 1726.61,-24.4 1736.32,-28.63 1736.84,-21.65"/>
</g>
<!-- r&#45;ncdf4 -->
<g id="node35" class="node">
<title>r&#45;ncdf4</title>
<g id="a_node35"><a xlink:href="https://github.com/conda-forge/r-ncdf4-feedstock/pull/19" xlink:title="r ncdf4">
<ellipse fill="#31688e" stroke="black" cx="2113.5" cy="-90" rx="45" ry="18"/>
<text text-anchor="middle" x="2113.5" y="-86.3" font-family="Times,serif" font-size="14.00" fill="white">r ncdf4</text>
</a>
</g>
</g>
<!-- r&#45;ncdf4&#45;&gt;conda&#45;forge&#45;pinning -->
<g id="edge54" class="edge">
<title>r&#45;ncdf4&#45;&gt;conda&#45;forge&#45;pinning</title>
<path fill="none" stroke="black" d="M2079.41,-78.2C2071.3,-75.9 2062.65,-73.67 2054.5,-72 1945.37,-49.62 1818.42,-35.28 1731.87,-27.24"/>
<polygon fill="black" stroke="black" points="1732.06,-23.74 1721.79,-26.31 1731.42,-30.71 1732.06,-23.74"/>
</g>
<!-- shogun -->
<g id="node36" class="node">
<title>shogun</title>
<g id="a_node36"><a xlink:href="https://github.com/conda-forge/shogun-feedstock/pull/20" xlink:title="shogun">
<ellipse fill="#31688e" stroke="black" cx="2155.5" cy="-162" rx="40.5" ry="18"/>
<text text-anchor="middle" x="2155.5" y="-158.3" font-family="Times,serif" font-size="14.00" fill="white">shogun</text>
</a>
</g>
</g>
<!-- shogun&#45;&gt;conda&#45;forge&#45;pinning -->
<g id="edge55" class="edge">
<title>shogun&#45;&gt;conda&#45;forge&#45;pinning</title>
<path fill="none" stroke="black" d="M2164.68,-144.27C2174.17,-124.44 2185.3,-91.64 2167.5,-72 2139.45,-41.05 1890.21,-27.51 1741,-22.14"/>
<polygon fill="black" stroke="black" points="1741,-18.64 1730.88,-21.78 1740.75,-25.63 1741,-18.64"/>
</g>
<!-- vigra -->
<g id="node37" class="node">
<title>vigra</title>
<g id="a_node37"><a xlink:href="https://github.com/conda-forge/vigra-feedstock/pull/54" xlink:title="vigra">
<ellipse fill="#31688e" stroke="black" cx="2199.5" cy="-234" rx="35.19" ry="18"/>
<text text-anchor="middle" x="2199.5" y="-230.3" font-family="Times,serif" font-size="14.00" fill="white">vigra</text>
</a>
</g>
</g>
<!-- vigra&#45;&gt;conda&#45;forge&#45;pinning -->
<g id="edge56" class="edge">
<title>vigra&#45;&gt;conda&#45;forge&#45;pinning</title>
<path fill="none" stroke="black" d="M2204.7,-216.01C2213.8,-182.41 2227.96,-107.66 2186.5,-72 2153.47,-43.59 1893.26,-28.97 1740.45,-22.77"/>
<polygon fill="black" stroke="black" points="1740.22,-19.26 1730.09,-22.35 1739.94,-26.25 1740.22,-19.26"/>
</g>
<!-- yaafe -->
<g id="node38" class="node">
<title>yaafe</title>
<g id="a_node38"><a xlink:href="https://github.com/conda-forge/yaafe-feedstock/pull/9" xlink:title="yaafe">
<ellipse fill="#31688e" stroke="black" cx="2237.5" cy="-306" rx="35.19" ry="18"/>
<text text-anchor="middle" x="2237.5" y="-302.3" font-family="Times,serif" font-size="14.00" fill="white">yaafe</text>
</a>
</g>
</g>
<!-- yaafe&#45;&gt;conda&#45;forge&#45;pinning -->
<g id="edge57" class="edge">
<title>yaafe&#45;&gt;conda&#45;forge&#45;pinning</title>
<path fill="none" stroke="black" d="M2242.27,-287.85C2253.3,-244.01 2275.09,-127.42 2212.5,-72 2178.04,-41.49 1900.44,-27.62 1741.04,-22.12"/>
<polygon fill="black" stroke="black" points="1740.83,-18.61 1730.72,-21.77 1740.59,-25.6 1740.83,-18.61"/>
</g>
<!-- alps -->
<g id="node39" class="node">
<title>alps</title>
<g id="a_node39"><a xlink:href="https://github.com/conda-forge/alps-feedstock/pull/31" xlink:title="alps">
<ellipse fill="#31688e" stroke="black" cx="2300.5" cy="-378" rx="30.59" ry="18"/>
<text text-anchor="middle" x="2300.5" y="-374.3" font-family="Times,serif" font-size="14.00" fill="white">alps</text>
</a>
</g>
</g>
<!-- alps&#45;&gt;conda&#45;forge&#45;pinning -->
<g id="edge58" class="edge">
<title>alps&#45;&gt;conda&#45;forge&#45;pinning</title>
<path fill="none" stroke="black" d="M2300.5,-359.95C2300.5,-333.29 2300.5,-280.11 2300.5,-235 2300.5,-235 2300.5,-235 2300.5,-161 2300.5,-113.3 2281.61,-96.2 2240.5,-72 2198.46,-47.25 1903.41,-30.77 1739.2,-23.41"/>
<polygon fill="black" stroke="black" points="1739.21,-19.9 1729.06,-22.96 1738.9,-26.9 1739.21,-19.9"/>
</g>
<!-- spdlib -->
<g id="node40" class="node">
<title>spdlib</title>
<g id="a_node40"><a xlink:href="https://github.com/conda-forge/spdlib-feedstock/pull/15" xlink:title="spdlib">
<ellipse fill="#31688e" stroke="black" cx="2369.5" cy="-90" rx="40.5" ry="18"/>
<text text-anchor="middle" x="2369.5" y="-86.3" font-family="Times,serif" font-size="14.00" fill="white">spdlib</text>
</a>
</g>
</g>
<!-- spdlib&#45;&gt;conda&#45;forge&#45;pinning -->
<g id="edge59" class="edge">
<title>spdlib&#45;&gt;conda&#45;forge&#45;pinning</title>
<path fill="none" stroke="black" d="M2338.68,-78.16C2330.88,-75.78 2322.45,-73.52 2314.5,-72 2115.61,-34.06 1879.29,-23.13 1742.64,-20.07"/>
<polygon fill="black" stroke="black" points="1742.64,-16.57 1732.57,-19.86 1742.49,-23.57 1742.64,-16.57"/>
</g>
<!-- mpb -->
<g id="node41" class="node">
<title>mpb</title>
<g id="a_node41"><a xlink:href="https://github.com/conda-forge/mpb-feedstock/pull/22" xlink:title="mpb">
<ellipse fill="#31688e" stroke="black" cx="1343.5" cy="-162" rx="27" ry="18"/>
<text text-anchor="middle" x="1343.5" y="-158.3" font-family="Times,serif" font-size="14.00" fill="white">mpb</text>
</a>
</g>
</g>
<!-- mpb&#45;&gt;conda&#45;forge&#45;pinning -->
<g id="edge60" class="edge">
<title>mpb&#45;&gt;conda&#45;forge&#45;pinning</title>
<path fill="none" stroke="black" d="M1342.66,-143.95C1342.66,-123.81 1345.95,-90.71 1365.5,-72 1388.95,-49.57 1464.6,-35.88 1528.94,-28.05"/>
<polygon fill="black" stroke="black" points="1529.64,-31.49 1539.16,-26.84 1528.82,-24.54 1529.64,-31.49"/>
</g>
<!-- mpb&#45;&gt;pymeep -->
<g id="edge61" class="edge">
<title>mpb&#45;&gt;pymeep</title>
<path fill="none" stroke="black" d="M1325.82,-147.83C1312.27,-137.74 1293.3,-123.62 1277.67,-111.98"/>
<polygon fill="black" stroke="black" points="1279.49,-108.97 1269.38,-105.8 1275.31,-114.58 1279.49,-108.97"/>
</g>
<!-- openpmd&#45;api -->
<g id="node42" class="node">
<title>openpmd&#45;api</title>
<g id="a_node42"><a xlink:href="https://github.com/conda-forge/openpmd-api-feedstock" xlink:title="openpmd api">
<ellipse fill="#fde725" stroke="black" cx="2531.5" cy="-90" rx="64.5" ry="18"/>
<text text-anchor="middle" x="2531.5" y="-86.3" font-family="Times,serif" font-size="14.00">openpmd api</text>
</a>
</g>
</g>
<!-- openpmd&#45;api&#45;&gt;conda&#45;forge&#45;pinning -->
<g id="edge62" class="edge">
<title>openpmd&#45;api&#45;&gt;conda&#45;forge&#45;pinning</title>
<path fill="none" stroke="black" d="M2484.08,-77.61C2473.72,-75.45 2462.78,-73.43 2452.5,-72 2200.29,-36.94 1901.31,-25.01 1742.26,-21"/>
<polygon fill="black" stroke="black" points="1742.07,-17.49 1731.99,-20.75 1741.9,-24.49 1742.07,-17.49"/>
</g>
<!-- cmor -->
<g id="node43" class="node">
<title>cmor</title>
<g id="a_node43"><a xlink:href="https://github.com/conda-forge/cmor-feedstock/pull/22" xlink:title="cmor">
<ellipse fill="#31688e" stroke="black" cx="2603.5" cy="-162" rx="30.59" ry="18"/>
<text text-anchor="middle" x="2603.5" y="-158.3" font-family="Times,serif" font-size="14.00" fill="white">cmor</text>
</a>
</g>
</g>
<!-- cmor&#45;&gt;conda&#45;forge&#45;pinning -->
<g id="edge63" class="edge">
<title>cmor&#45;&gt;conda&#45;forge&#45;pinning</title>
<path fill="none" stroke="black" d="M2609.88,-144.07C2616.2,-124.06 2622.56,-91.07 2604.5,-72 2575.25,-41.12 1992.5,-26.08 1742.17,-21.03"/>
<polygon fill="black" stroke="black" points="1742.02,-17.52 1731.96,-20.82 1741.88,-24.52 1742.02,-17.52"/>
</g>
<!-- freecad -->
<g id="node44" class="node">
<title>freecad</title>
<g id="a_node44"><a xlink:href="https://github.com/conda-forge/freecad-feedstock/pull/38" xlink:title="freecad">
<ellipse fill="#31688e" stroke="black" cx="2627.5" cy="-234" rx="45" ry="18"/>
<text text-anchor="middle" x="2627.5" y="-230.3" font-family="Times,serif" font-size="14.00" fill="white">freecad</text>
</a>
</g>
</g>
<!-- freecad&#45;&gt;conda&#45;forge&#45;pinning -->
<g id="edge64" class="edge">
<title>freecad&#45;&gt;conda&#45;forge&#45;pinning</title>
<path fill="none" stroke="black" d="M2634.18,-216.05C2646.29,-182.2 2666.89,-106.49 2624.5,-72 2590.75,-44.54 1995.38,-27.5 1742.08,-21.47"/>
<polygon fill="black" stroke="black" points="1741.83,-17.96 1731.75,-21.23 1741.66,-24.96 1741.83,-17.96"/>
</g>
<!-- scilab -->
<g id="node45" class="node">
<title>scilab</title>
<g id="a_node45"><a xlink:href="https://github.com/conda-forge/scilab-feedstock/pull/12" xlink:title="scilab">
<ellipse fill="#31688e" stroke="black" cx="2669.5" cy="-306" rx="40.5" ry="18"/>
<text text-anchor="middle" x="2669.5" y="-302.3" font-family="Times,serif" font-size="14.00" fill="white">scilab</text>
</a>
</g>
</g>
<!-- scilab&#45;&gt;conda&#45;forge&#45;pinning -->
<g id="edge65" class="edge">
<title>scilab&#45;&gt;conda&#45;forge&#45;pinning</title>
<path fill="none" stroke="black" d="M2674.82,-287.99C2687.4,-243.97 2713.36,-126.01 2649.5,-72 2615.3,-43.08 1999.7,-26.8 1741.75,-21.22"/>
<polygon fill="black" stroke="black" points="1741.68,-17.71 1731.6,-21 1741.53,-24.71 1741.68,-17.71"/>
</g>
<!-- adios2 -->
<g id="node46" class="node">
<title>adios2</title>
<g id="a_node46"><a xlink:href="https://github.com/conda-forge/adios2-feedstock/pull/11" xlink:title="adios2">
<ellipse fill="#31688e" stroke="black" cx="2476.5" cy="-162" rx="40.5" ry="18"/>
<text text-anchor="middle" x="2476.5" y="-158.3" font-family="Times,serif" font-size="14.00" fill="white">adios2</text>
</a>
</g>
</g>
<!-- adios2&#45;&gt;conda&#45;forge&#45;pinning -->
<g id="edge66" class="edge">
<title>adios2&#45;&gt;conda&#45;forge&#45;pinning</title>
<path fill="none" stroke="black" d="M2470.84,-144.09C2462.84,-123.11 2446.03,-88.13 2418.5,-72 2361.65,-38.68 1946.22,-25.53 1742.09,-21.03"/>
<polygon fill="black" stroke="black" points="1742.01,-17.53 1731.94,-20.81 1741.86,-24.53 1742.01,-17.53"/>
</g>
<!-- adios2&#45;&gt;openpmd&#45;api -->
<g id="edge67" class="edge">
<title>adios2&#45;&gt;openpmd&#45;api</title>
<path fill="none" stroke="black" d="M2489.26,-144.76C2496.03,-136.14 2504.5,-125.36 2512.07,-115.73"/>
<polygon fill="black" stroke="black" points="2515,-117.66 2518.43,-107.63 2509.5,-113.33 2515,-117.66"/>
</g>
<!-- bonsu -->
<g id="node47" class="node">
<title>bonsu</title>
<g id="a_node47"><a xlink:href="https://github.com/conda-forge/bonsu-feedstock/pull/5" xlink:title="bonsu">
<ellipse fill="#31688e" stroke="black" cx="2738.5" cy="-378" rx="35.19" ry="18"/>
<text text-anchor="middle" x="2738.5" y="-374.3" font-family="Times,serif" font-size="14.00" fill="white">bonsu</text>
</a>
</g>
</g>
<!-- bonsu&#45;&gt;conda&#45;forge&#45;pinning -->
<g id="edge68" class="edge">
<title>bonsu&#45;&gt;conda&#45;forge&#45;pinning</title>
<path fill="none" stroke="black" d="M2738.5,-359.95C2738.5,-333.29 2738.5,-280.11 2738.5,-235 2738.5,-235 2738.5,-235 2738.5,-161 2738.5,-113.05 2719.35,-95.42 2677.5,-72 2597.64,-27.3 1997.47,-20.12 1743,-19.1"/>
<polygon fill="black" stroke="black" points="1743,-15.6 1732.99,-19.06 1742.97,-22.6 1743,-15.6"/>
</g>
<!-- conduit -->
<g id="node48" class="node">
<title>conduit</title>
<g id="a_node48"><a xlink:href="https://github.com/conda-forge/conduit-feedstock/pull/3" xlink:title="conduit">
<ellipse fill="#31688e" stroke="black" cx="2811.5" cy="-90" rx="45" ry="18"/>
<text text-anchor="middle" x="2811.5" y="-86.3" font-family="Times,serif" font-size="14.00" fill="white">conduit</text>
</a>
</g>
</g>
<!-- conduit&#45;&gt;conda&#45;forge&#45;pinning -->
<g id="edge70" class="edge">
<title>conduit&#45;&gt;conda&#45;forge&#45;pinning</title>
<path fill="none" stroke="black" d="M2778.11,-77.92C2769.83,-75.57 2760.91,-73.39 2752.5,-72 2560.64,-40.28 1987.08,-25.83 1742.26,-20.98"/>
<polygon fill="black" stroke="black" points="1741.98,-17.48 1731.92,-20.78 1741.85,-24.47 1741.98,-17.48"/>
</g>
<!-- dagmc -->
<g id="node49" class="node">
<title>dagmc</title>
<g id="a_node49"><a xlink:href="https://github.com/conda-forge/dagmc-feedstock/pull/1" xlink:title="dagmc">
<ellipse fill="#31688e" stroke="black" cx="2871.5" cy="-162" rx="35.19" ry="18"/>
<text text-anchor="middle" x="2871.5" y="-158.3" font-family="Times,serif" font-size="14.00" fill="white">dagmc</text>
</a>
</g>
</g>
<!-- dagmc&#45;&gt;conda&#45;forge&#45;pinning -->
<g id="edge71" class="edge">
<title>dagmc&#45;&gt;conda&#45;forge&#45;pinning</title>
<path fill="none" stroke="black" d="M2876.3,-143.84C2880.81,-123.6 2884.34,-90.39 2865.5,-72 2825.7,-33.17 2041.34,-22.48 1743.18,-19.81"/>
<polygon fill="black" stroke="black" points="1742.81,-16.31 1732.78,-19.72 1742.75,-23.31 1742.81,-16.31"/>
</g>
<!-- nccmp -->
<g id="node50" class="node">
<title>nccmp</title>
<g id="a_node50"><a xlink:href="https://github.com/conda-forge/nccmp-feedstock/pull/2" xlink:title="nccmp">
<ellipse fill="#31688e" stroke="black" cx="2934.5" cy="-234" rx="35.19" ry="18"/>
<text text-anchor="middle" x="2934.5" y="-230.3" font-family="Times,serif" font-size="14.00" fill="white">nccmp</text>
</a>
</g>
</g>
<!-- nccmp&#45;&gt;conda&#45;forge&#45;pinning -->
<g id="edge72" class="edge">
<title>nccmp&#45;&gt;conda&#45;forge&#45;pinning</title>
<path fill="none" stroke="black" d="M2935.62,-215.82C2936.79,-181.55 2933.8,-105.12 2887.5,-72 2841.36,-38.99 2042.45,-24.66 1742.27,-20.43"/>
<polygon fill="black" stroke="black" points="1742.28,-16.93 1732.24,-20.28 1742.19,-23.92 1742.28,-16.93"/>
</g>
<!-- mbsolve -->
<g id="node51" class="node">
<title>mbsolve</title>
<g id="a_node51"><a xlink:href="https://github.com/conda-forge/mbsolve-feedstock/pull/3" xlink:title="mbsolve">
<ellipse fill="#31688e" stroke="black" cx="2997.5" cy="-306" rx="45" ry="18"/>
<text text-anchor="middle" x="2997.5" y="-302.3" font-family="Times,serif" font-size="14.00" fill="white">mbsolve</text>
</a>
</g>
</g>
<!-- mbsolve&#45;&gt;conda&#45;forge&#45;pinning -->
<g id="edge73" class="edge">
<title>mbsolve&#45;&gt;conda&#45;forge&#45;pinning</title>
<path fill="none" stroke="black" d="M2997.76,-287.86C2997.38,-242.99 2989.35,-122.13 2916.5,-72 2868.57,-39.02 2047.84,-24.63 1742.62,-20.41"/>
<polygon fill="black" stroke="black" points="1742.47,-16.9 1732.42,-20.27 1742.37,-23.9 1742.47,-16.9"/>
</g>
</g>
</svg>
