<?xml version="1.0" encoding="UTF-8" standalone="no"?>
<!DOCTYPE svg PUBLIC "-//W3C//DTD SVG 1.1//EN"
 "http://www.w3.org/Graphics/SVG/1.1/DTD/svg11.dtd">
<!-- Generated by graphviz version 2.42.3 (20191010.1750)
 -->
<!-- Title: %3 Pages: 1 -->
<svg width="3022pt" height="476pt"
 viewBox="0.00 0.00 3021.50 476.00" xmlns="http://www.w3.org/2000/svg" xmlns:xlink="http://www.w3.org/1999/xlink">
<g id="graph0" class="graph" transform="scale(1 1) rotate(0) translate(4 472)">
<title>%3</title>
<polygon fill="white" stroke="transparent" points="-4,4 -4,-472 3017.5,-472 3017.5,4 -4,4"/>
<!-- caffe -->
<g id="node1" class="node">
<title>caffe</title>
<g id="a_node1"><a xlink:href="https://github.com/conda-forge/caffe-feedstock" xlink:title="caffe">
<ellipse fill="#fde725" stroke="black" cx="1033.5" cy="-378" rx="35.19" ry="18"/>
<text text-anchor="middle" x="1033.5" y="-374.3" font-family="Times,serif" font-size="14.00">caffe</text>
</a>
</g>
</g>
<!-- conda&#45;forge&#45;pinning -->
<g id="node2" class="node">
<title>conda&#45;forge&#45;pinning</title>
<ellipse fill="none" stroke="black" cx="1629.5" cy="-18" rx="103.5" ry="18"/>
<text text-anchor="middle" x="1629.5" y="-14.3" font-family="Times,serif" font-size="14.00">conda&#45;forge&#45;pinning</text>
</g>
<!-- caffe&#45;&gt;conda&#45;forge&#45;pinning -->
<g id="edge1" class="edge">
<title>caffe&#45;&gt;conda&#45;forge&#45;pinning</title>
<path fill="none" stroke="black" d="M1032.51,-359.96C1031.06,-333.31 1028.5,-280.14 1028.5,-235 1028.5,-235 1028.5,-235 1028.5,-161 1028.5,-120.03 1021.15,-98.38 1052.5,-72 1087.29,-42.73 1360.68,-28.37 1518.34,-22.46"/>
<polygon fill="black" stroke="black" points="1518.69,-25.95 1528.55,-22.08 1518.43,-18.95 1518.69,-25.95"/>
</g>
<!-- cyclus -->
<g id="node3" class="node">
<title>cyclus</title>
<g id="a_node3"><a xlink:href="https://github.com/conda-forge/cyclus-feedstock/pull/56" xlink:title="cyclus">
<ellipse fill="#31688e" stroke="black" cx="40.5" cy="-90" rx="40.5" ry="18"/>
<text text-anchor="middle" x="40.5" y="-86.3" font-family="Times,serif" font-size="14.00" fill="white">cyclus</text>
</a>
</g>
</g>
<!-- cyclus&#45;&gt;conda&#45;forge&#45;pinning -->
<g id="edge2" class="edge">
<title>cyclus&#45;&gt;conda&#45;forge&#45;pinning</title>
<path fill="none" stroke="black" d="M70.99,-78C78.87,-75.6 87.42,-73.36 95.5,-72 368.47,-25.94 1208.76,-19.73 1515.72,-19.03"/>
<polygon fill="black" stroke="black" points="1515.98,-22.53 1525.97,-19.01 1515.96,-15.53 1515.98,-22.53"/>
</g>
<!-- fenics -->
<g id="node4" class="node">
<title>fenics</title>
<g id="a_node4"><a xlink:href="https://github.com/conda-forge/fenics-feedstock/pull/107" xlink:title="fenics">
<ellipse fill="#31688e" stroke="black" cx="93.5" cy="-162" rx="40.5" ry="18"/>
<text text-anchor="middle" x="93.5" y="-158.3" font-family="Times,serif" font-size="14.00" fill="white">fenics</text>
</a>
</g>
</g>
<!-- fenics&#45;&gt;conda&#45;forge&#45;pinning -->
<g id="edge3" class="edge">
<title>fenics&#45;&gt;conda&#45;forge&#45;pinning</title>
<path fill="none" stroke="black" d="M98.53,-143.98C105.77,-122.88 121.33,-87.79 148.5,-72 207.32,-37.81 1180.35,-23.93 1516.42,-20.15"/>
<polygon fill="black" stroke="black" points="1516.69,-23.64 1526.65,-20.03 1516.62,-16.64 1516.69,-23.64"/>
</g>
<!-- flann -->
<g id="node5" class="node">
<title>flann</title>
<g id="a_node5"><a xlink:href="https://github.com/conda-forge/flann-feedstock/pull/26" xlink:title="flann">
<ellipse fill="#31688e" stroke="black" cx="137.5" cy="-234" rx="35.19" ry="18"/>
<text text-anchor="middle" x="137.5" y="-230.3" font-family="Times,serif" font-size="14.00" fill="white">flann</text>
</a>
</g>
</g>
<!-- flann&#45;&gt;conda&#45;forge&#45;pinning -->
<g id="edge4" class="edge">
<title>flann&#45;&gt;conda&#45;forge&#45;pinning</title>
<path fill="none" stroke="black" d="M140.18,-215.82C146.46,-178.06 163.35,-89.82 186.5,-72 238.89,-31.67 1185.22,-21.82 1516.28,-19.6"/>
<polygon fill="black" stroke="black" points="1516.39,-23.1 1526.37,-19.53 1516.34,-16.1 1516.39,-23.1"/>
</g>
<!-- graph -->
<g id="node6" class="node">
<title>graph</title>
<g id="a_node6"><a xlink:href="https://github.com/conda-forge/graph-feedstock/pull/5" xlink:title="graph">
<ellipse fill="#31688e" stroke="black" cx="200.5" cy="-306" rx="35.19" ry="18"/>
<text text-anchor="middle" x="200.5" y="-302.3" font-family="Times,serif" font-size="14.00" fill="white">graph</text>
</a>
</g>
</g>
<!-- graph&#45;&gt;conda&#45;forge&#45;pinning -->
<g id="edge5" class="edge">
<title>graph&#45;&gt;conda&#45;forge&#45;pinning</title>
<path fill="none" stroke="black" d="M195.39,-288.11C183.49,-244.89 159.25,-129.67 219.5,-72 266.04,-27.45 1188.53,-20.33 1515.67,-19.21"/>
<polygon fill="black" stroke="black" points="1516.13,-22.7 1526.11,-19.17 1516.1,-15.7 1516.13,-22.7"/>
</g>
<!-- h5py -->
<g id="node7" class="node">
<title>h5py</title>
<g id="a_node7"><a xlink:href="https://github.com/conda-forge/h5py-feedstock/pull/72" xlink:title="h5py">
<ellipse fill="#31688e" stroke="black" cx="951.5" cy="-450" rx="30.59" ry="18"/>
<text text-anchor="middle" x="951.5" y="-446.3" font-family="Times,serif" font-size="14.00" fill="white">h5py</text>
</a>
</g>
</g>
<!-- h5py&#45;&gt;caffe -->
<g id="edge6" class="edge">
<title>h5py&#45;&gt;caffe</title>
<path fill="none" stroke="black" d="M968.09,-434.83C979.64,-424.98 995.25,-411.65 1008.33,-400.49"/>
<polygon fill="black" stroke="black" points="1010.75,-403.02 1016.08,-393.87 1006.2,-397.7 1010.75,-403.02"/>
</g>
<!-- h5py&#45;&gt;conda&#45;forge&#45;pinning -->
<g id="edge7" class="edge">
<title>h5py&#45;&gt;conda&#45;forge&#45;pinning</title>
<path fill="none" stroke="black" d="M981.38,-445.76C1011.42,-440.74 1056.23,-428.02 1077.5,-396 1086.35,-382.67 1078.2,-375.98 1077.5,-360 1075.05,-304.28 1066.5,-290.77 1066.5,-235 1066.5,-235 1066.5,-235 1066.5,-161 1066.5,-113.3 1085.62,-96.58 1126.5,-72 1189.97,-33.84 1388.18,-22.96 1516.02,-19.97"/>
<polygon fill="black" stroke="black" points="1516.32,-23.47 1526.24,-19.75 1516.17,-16.47 1516.32,-23.47"/>
</g>
<!-- openmc -->
<g id="node8" class="node">
<title>openmc</title>
<g id="a_node8"><a xlink:href="https://github.com/conda-forge/openmc-feedstock" xlink:title="openmc">
<ellipse fill="#fde725" stroke="black" cx="1135.5" cy="-306" rx="40.5" ry="18"/>
<text text-anchor="middle" x="1135.5" y="-302.3" font-family="Times,serif" font-size="14.00">openmc</text>
</a>
</g>
</g>
<!-- h5py&#45;&gt;openmc -->
<g id="edge8" class="edge">
<title>h5py&#45;&gt;openmc</title>
<path fill="none" stroke="black" d="M981.72,-447.2C1017.45,-443.43 1076.37,-431.81 1110.5,-396 1126.29,-379.43 1132.25,-353.71 1134.42,-334.17"/>
<polygon fill="black" stroke="black" points="1137.93,-334.31 1135.28,-324.05 1130.95,-333.72 1137.93,-334.31"/>
</g>
<!-- rsgislib -->
<g id="node9" class="node">
<title>rsgislib</title>
<g id="a_node9"><a xlink:href="https://github.com/conda-forge/rsgislib-feedstock" xlink:title="rsgislib">
<ellipse fill="#fde725" stroke="black" cx="1182.5" cy="-234" rx="50.09" ry="18"/>
<text text-anchor="middle" x="1182.5" y="-230.3" font-family="Times,serif" font-size="14.00">rsgislib</text>
</a>
</g>
</g>
<!-- h5py&#45;&gt;rsgislib -->
<g id="edge9" class="edge">
<title>h5py&#45;&gt;rsgislib</title>
<path fill="none" stroke="black" d="M981.74,-446.47C1020.4,-441.92 1087.89,-429.48 1134.5,-396 1166.14,-373.27 1172.86,-361.18 1184.5,-324 1190.76,-304 1189.83,-280.21 1187.57,-262.26"/>
<polygon fill="black" stroke="black" points="1191,-261.57 1186.08,-252.18 1184.08,-262.59 1191,-261.57"/>
</g>
<!-- h5utils -->
<g id="node10" class="node">
<title>h5utils</title>
<g id="a_node10"><a xlink:href="https://github.com/conda-forge/h5utils-feedstock" xlink:title="h5utils">
<ellipse fill="#fde725" stroke="black" cx="1215.5" cy="-162" rx="45" ry="18"/>
<text text-anchor="middle" x="1215.5" y="-158.3" font-family="Times,serif" font-size="14.00">h5utils</text>
</a>
</g>
</g>
<!-- h5py&#45;&gt;h5utils -->
<g id="edge10" class="edge">
<title>h5py&#45;&gt;h5utils</title>
<path fill="none" stroke="black" d="M982.34,-449.08C1027.44,-447.64 1111.94,-438.88 1166.5,-396 1223.23,-351.41 1224.34,-322.09 1241.5,-252 1245.3,-236.46 1245.12,-231.59 1241.5,-216 1239.35,-206.72 1235.32,-197.18 1231.08,-188.81"/>
<polygon fill="black" stroke="black" points="1234.11,-187.05 1226.28,-179.92 1227.95,-190.38 1234.11,-187.05"/>
</g>
<!-- pymeep -->
<g id="node11" class="node">
<title>pymeep</title>
<g id="a_node11"><a xlink:href="https://github.com/conda-forge/pymeep-feedstock" xlink:title="pymeep">
<ellipse fill="#fde725" stroke="black" cx="1249.5" cy="-90" rx="40.5" ry="18"/>
<text text-anchor="middle" x="1249.5" y="-86.3" font-family="Times,serif" font-size="14.00">pymeep</text>
</a>
</g>
</g>
<!-- h5py&#45;&gt;pymeep -->
<g id="edge11" class="edge">
<title>h5py&#45;&gt;pymeep</title>
<path fill="none" stroke="black" d="M982.28,-449.86C1032.26,-449.75 1132.14,-443.06 1198.5,-396 1280.93,-337.55 1261.17,-280.71 1269.5,-180 1270.82,-164.05 1272.37,-159.74 1269.5,-144 1267.85,-134.96 1264.74,-125.46 1261.46,-117.04"/>
<polygon fill="black" stroke="black" points="1264.66,-115.63 1257.6,-107.74 1258.2,-118.32 1264.66,-115.63"/>
</g>
<!-- blosc&#45;hdf5&#45;plugin -->
<g id="node12" class="node">
<title>blosc&#45;hdf5&#45;plugin</title>
<g id="a_node12"><a xlink:href="https://github.com/conda-forge/blosc-hdf5-plugin-feedstock" xlink:title="blosc hdf5 plugin">
<ellipse fill="#fde725" stroke="black" cx="322.5" cy="-90" rx="93.68" ry="18"/>
<text text-anchor="middle" x="322.5" y="-86.3" font-family="Times,serif" font-size="14.00">blosc hdf5 plugin</text>
</a>
</g>
</g>
<!-- h5py&#45;&gt;blosc&#45;hdf5&#45;plugin -->
<g id="edge12" class="edge">
<title>h5py&#45;&gt;blosc&#45;hdf5&#45;plugin</title>
<path fill="none" stroke="black" d="M920.87,-447.83C829.93,-444 562.86,-430.08 483.5,-396 426.98,-371.73 377.5,-368.52 377.5,-307 377.5,-307 377.5,-307 377.5,-233 377.5,-190.01 355.31,-144.34 339.12,-116.74"/>
<polygon fill="black" stroke="black" points="342.06,-114.85 333.9,-108.1 336.07,-118.47 342.06,-114.85"/>
</g>
<!-- isce2 -->
<g id="node13" class="node">
<title>isce2</title>
<g id="a_node13"><a xlink:href="https://github.com/conda-forge/isce2-feedstock" xlink:title="isce2">
<ellipse fill="#fde725" stroke="black" cx="469.5" cy="-90" rx="35.19" ry="18"/>
<text text-anchor="middle" x="469.5" y="-86.3" font-family="Times,serif" font-size="14.00">isce2</text>
</a>
</g>
</g>
<!-- h5py&#45;&gt;isce2 -->
<g id="edge13" class="edge">
<title>h5py&#45;&gt;isce2</title>
<path fill="none" stroke="black" d="M920.86,-449.36C831.96,-449.81 576.29,-446.57 513.5,-396 480.88,-369.73 482.5,-348.89 482.5,-307 482.5,-307 482.5,-307 482.5,-233 482.5,-192.83 477.28,-146.53 473.45,-118.01"/>
<polygon fill="black" stroke="black" points="476.9,-117.43 472.07,-108 469.97,-118.39 476.9,-117.43"/>
</g>
<!-- bitshuffle -->
<g id="node14" class="node">
<title>bitshuffle</title>
<g id="a_node14"><a xlink:href="https://github.com/conda-forge/bitshuffle-feedstock" xlink:title="bitshuffle">
<ellipse fill="#fde725" stroke="black" cx="582.5" cy="-378" rx="60" ry="18"/>
<text text-anchor="middle" x="582.5" y="-374.3" font-family="Times,serif" font-size="14.00">bitshuffle</text>
</a>
</g>
</g>
<!-- h5py&#45;&gt;bitshuffle -->
<g id="edge14" class="edge">
<title>h5py&#45;&gt;bitshuffle</title>
<path fill="none" stroke="black" d="M922.52,-444.27C869.55,-435.51 753.62,-415.87 656.5,-396 650.63,-394.8 644.5,-393.49 638.41,-392.14"/>
<polygon fill="black" stroke="black" points="638.74,-388.63 628.22,-389.86 637.21,-395.46 638.74,-388.63"/>
</g>
<!-- triqs -->
<g id="node15" class="node">
<title>triqs</title>
<g id="a_node15"><a xlink:href="https://github.com/conda-forge/triqs-feedstock" xlink:title="triqs">
<ellipse fill="#fde725" stroke="black" cx="663.5" cy="-162" rx="35.19" ry="18"/>
<text text-anchor="middle" x="663.5" y="-158.3" font-family="Times,serif" font-size="14.00">triqs</text>
</a>
</g>
</g>
<!-- h5py&#45;&gt;triqs -->
<g id="edge15" class="edge">
<title>h5py&#45;&gt;triqs</title>
<path fill="none" stroke="black" d="M923.36,-442.49C872.98,-429.32 767.61,-394.55 713.5,-324 682.8,-283.97 670.77,-224.87 666.19,-190.52"/>
<polygon fill="black" stroke="black" points="669.63,-189.79 664.95,-180.29 662.68,-190.64 669.63,-189.79"/>
</g>
<!-- hdf5plugin -->
<g id="node16" class="node">
<title>hdf5plugin</title>
<g id="a_node16"><a xlink:href="https://github.com/conda-forge/hdf5plugin-feedstock" xlink:title="hdf5plugin">
<ellipse fill="#fde725" stroke="black" cx="782.5" cy="-306" rx="60" ry="18"/>
<text text-anchor="middle" x="782.5" y="-302.3" font-family="Times,serif" font-size="14.00">hdf5plugin</text>
</a>
</g>
</g>
<!-- h5py&#45;&gt;hdf5plugin -->
<g id="edge16" class="edge">
<title>h5py&#45;&gt;hdf5plugin</title>
<path fill="none" stroke="black" d="M929.75,-437.01C912.44,-427.02 887.96,-411.91 868.5,-396 844.19,-376.13 819.62,-349.94 803,-331.13"/>
<polygon fill="black" stroke="black" points="805.6,-328.79 796.38,-323.56 800.32,-333.39 805.6,-328.79"/>
</g>
<!-- prismatic_split -->
<g id="node17" class="node">
<title>prismatic_split</title>
<g id="a_node17"><a xlink:href="https://github.com/conda-forge/prismatic_split-feedstock" xlink:title="prismatic_split">
<ellipse fill="#fde725" stroke="black" cx="820.5" cy="-234" rx="84" ry="18"/>
<text text-anchor="middle" x="820.5" y="-230.3" font-family="Times,serif" font-size="14.00">prismatic_split</text>
</a>
</g>
</g>
<!-- h5py&#45;&gt;prismatic_split -->
<g id="edge17" class="edge">
<title>h5py&#45;&gt;prismatic_split</title>
<path fill="none" stroke="black" d="M941.35,-432.79C934.8,-422.31 926.11,-408.37 918.5,-396 889.15,-348.32 855.25,-292.45 836,-260.64"/>
<polygon fill="black" stroke="black" points="838.91,-258.7 830.74,-251.96 832.93,-262.32 838.91,-258.7"/>
</g>
<!-- digital_rf -->
<g id="node18" class="node">
<title>digital_rf</title>
<g id="a_node18"><a xlink:href="https://github.com/conda-forge/digital_rf-feedstock" xlink:title="digital_rf">
<ellipse fill="#fde725" stroke="black" cx="882.5" cy="-162" rx="60" ry="18"/>
<text text-anchor="middle" x="882.5" y="-158.3" font-family="Times,serif" font-size="14.00">digital_rf</text>
</a>
</g>
</g>
<!-- h5py&#45;&gt;digital_rf -->
<g id="edge18" class="edge">
<title>h5py&#45;&gt;digital_rf</title>
<path fill="none" stroke="black" d="M950.84,-431.8C948.88,-392.45 941.33,-293.32 913.5,-216 910.11,-206.57 905.03,-196.92 899.95,-188.48"/>
<polygon fill="black" stroke="black" points="902.82,-186.47 894.53,-179.87 896.9,-190.2 902.82,-186.47"/>
</g>
<!-- pp&#45;sketchlib -->
<g id="node19" class="node">
<title>pp&#45;sketchlib</title>
<g id="a_node19"><a xlink:href="https://github.com/conda-forge/pp-sketchlib-feedstock" xlink:title="pp sketchlib">
<ellipse fill="#fde725" stroke="black" cx="930.5" cy="-90" rx="69.59" ry="18"/>
<text text-anchor="middle" x="930.5" y="-86.3" font-family="Times,serif" font-size="14.00">pp sketchlib</text>
</a>
</g>
</g>
<!-- h5py&#45;&gt;pp&#45;sketchlib -->
<g id="edge19" class="edge">
<title>h5py&#45;&gt;pp&#45;sketchlib</title>
<path fill="none" stroke="black" d="M955.25,-432.05C960.79,-405.52 970.5,-352.52 970.5,-307 970.5,-307 970.5,-307 970.5,-233 970.5,-191.48 954.46,-145.61 942.7,-117.54"/>
<polygon fill="black" stroke="black" points="945.77,-115.84 938.59,-108.05 939.35,-118.62 945.77,-115.84"/>
</g>
<!-- openmc&#45;&gt;conda&#45;forge&#45;pinning -->
<g id="edge20" class="edge">
<title>openmc&#45;&gt;conda&#45;forge&#45;pinning</title>
<path fill="none" stroke="black" d="M1130.28,-287.88C1118.12,-244.14 1093.42,-127.75 1155.5,-72 1182.2,-48.02 1390.1,-32.21 1521.55,-24.51"/>
<polygon fill="black" stroke="black" points="1521.88,-27.99 1531.66,-23.92 1521.48,-21.01 1521.88,-27.99"/>
</g>
<!-- rsgislib&#45;&gt;conda&#45;forge&#45;pinning -->
<g id="edge21" class="edge">
<title>rsgislib&#45;&gt;conda&#45;forge&#45;pinning</title>
<path fill="none" stroke="black" d="M1173.78,-215.83C1169.13,-205.69 1163.88,-192.44 1161.5,-180 1152.24,-131.5 1148.86,-102.73 1187.5,-72 1236.71,-32.87 1401.93,-22.07 1515.8,-19.39"/>
<polygon fill="black" stroke="black" points="1516.05,-22.89 1525.97,-19.17 1515.9,-15.89 1516.05,-22.89"/>
</g>
<!-- h5utils&#45;&gt;conda&#45;forge&#45;pinning -->
<g id="edge22" class="edge">
<title>h5utils&#45;&gt;conda&#45;forge&#45;pinning</title>
<path fill="none" stroke="black" d="M1205.31,-144.39C1194.68,-124.68 1181.82,-91.99 1199.5,-72 1220.6,-48.14 1401.98,-32.65 1522.34,-24.9"/>
<polygon fill="black" stroke="black" points="1522.58,-28.4 1532.34,-24.27 1522.14,-21.41 1522.58,-28.4"/>
</g>
<!-- h5utils&#45;&gt;pymeep -->
<g id="edge23" class="edge">
<title>h5utils&#45;&gt;pymeep</title>
<path fill="none" stroke="black" d="M1223.73,-144.05C1227.7,-135.89 1232.54,-125.91 1236.96,-116.82"/>
<polygon fill="black" stroke="black" points="1240.12,-118.31 1241.35,-107.79 1233.83,-115.25 1240.12,-118.31"/>
</g>
<!-- pymeep&#45;&gt;conda&#45;forge&#45;pinning -->
<g id="edge24" class="edge">
<title>pymeep&#45;&gt;conda&#45;forge&#45;pinning</title>
<path fill="none" stroke="black" d="M1281,-78.45C1288.63,-76.12 1296.81,-73.81 1304.5,-72 1382.29,-53.73 1472.02,-39.61 1537.46,-30.55"/>
<polygon fill="black" stroke="black" points="1538.32,-33.97 1547.75,-29.15 1537.37,-27.04 1538.32,-33.97"/>
</g>
<!-- blosc&#45;hdf5&#45;plugin&#45;&gt;conda&#45;forge&#45;pinning -->
<g id="edge25" class="edge">
<title>blosc&#45;hdf5&#45;plugin&#45;&gt;conda&#45;forge&#45;pinning</title>
<path fill="none" stroke="black" d="M387.73,-77.03C400.23,-75.07 413.24,-73.28 425.5,-72 824.76,-30.41 1301.82,-21.39 1515.82,-19.48"/>
<polygon fill="black" stroke="black" points="1516.15,-22.98 1526.12,-19.39 1516.09,-15.98 1516.15,-22.98"/>
</g>
<!-- isce2&#45;&gt;conda&#45;forge&#45;pinning -->
<g id="edge26" class="edge">
<title>isce2&#45;&gt;conda&#45;forge&#45;pinning</title>
<path fill="none" stroke="black" d="M496.08,-78.23C503.25,-75.76 511.07,-73.43 518.5,-72 707.05,-35.58 1273.24,-23.76 1516.46,-20.3"/>
<polygon fill="black" stroke="black" points="1516.79,-23.79 1526.74,-20.15 1516.69,-16.8 1516.79,-23.79"/>
</g>
<!-- bitshuffle&#45;&gt;conda&#45;forge&#45;pinning -->
<g id="edge27" class="edge">
<title>bitshuffle&#45;&gt;conda&#45;forge&#45;pinning</title>
<path fill="none" stroke="black" d="M572.38,-360.19C557.77,-334.27 532.5,-282.57 532.5,-235 532.5,-235 532.5,-235 532.5,-161 532.5,-116.27 541.78,-96.05 579.5,-72 656.86,-22.67 1260.41,-18.13 1515.88,-18.46"/>
<polygon fill="black" stroke="black" points="1515.93,-21.96 1525.93,-18.47 1515.94,-14.96 1515.93,-21.96"/>
</g>
<!-- triqs&#45;&gt;conda&#45;forge&#45;pinning -->
<g id="edge28" class="edge">
<title>triqs&#45;&gt;conda&#45;forge&#45;pinning</title>
<path fill="none" stroke="black" d="M637.18,-149.96C620.19,-141.28 599.47,-127.4 589.5,-108 582.19,-93.77 578.48,-83.6 589.5,-72 621.03,-38.82 1253.69,-24.97 1516.52,-20.63"/>
<polygon fill="black" stroke="black" points="1516.91,-24.12 1526.86,-20.46 1516.8,-17.12 1516.91,-24.12"/>
</g>
<!-- triqs_cthyb -->
<g id="node20" class="node">
<title>triqs_cthyb</title>
<g id="a_node20"><a xlink:href="https://github.com/conda-forge/triqs_cthyb-feedstock" xlink:title="triqs_cthyb">
<ellipse fill="#fde725" stroke="black" cx="663.5" cy="-90" rx="64.5" ry="18"/>
<text text-anchor="middle" x="663.5" y="-86.3" font-family="Times,serif" font-size="14.00">triqs_cthyb</text>
</a>
</g>
</g>
<!-- triqs&#45;&gt;triqs_cthyb -->
<g id="edge29" class="edge">
<title>triqs&#45;&gt;triqs_cthyb</title>
<path fill="none" stroke="black" d="M663.5,-143.7C663.5,-135.98 663.5,-126.71 663.5,-118.11"/>
<polygon fill="black" stroke="black" points="667,-118.1 663.5,-108.1 660,-118.1 667,-118.1"/>
</g>
<!-- hdf5plugin&#45;&gt;conda&#45;forge&#45;pinning -->
<g id="edge30" class="edge">
<title>hdf5plugin&#45;&gt;conda&#45;forge&#45;pinning</title>
<path fill="none" stroke="black" d="M758.84,-289.33C747.04,-280.04 733.93,-267.13 727.5,-252 721.24,-237.28 723.28,-231.43 727.5,-216 747.08,-144.31 749.19,-110.92 812.5,-72 870.99,-36.05 1306.57,-24.17 1516.72,-20.51"/>
<polygon fill="black" stroke="black" points="1516.92,-24.01 1526.86,-20.34 1516.8,-17.01 1516.92,-24.01"/>
</g>
<!-- prismatic_split&#45;&gt;conda&#45;forge&#45;pinning -->
<g id="edge31" class="edge">
<title>prismatic_split&#45;&gt;conda&#45;forge&#45;pinning</title>
<path fill="none" stroke="black" d="M815.92,-215.78C807.95,-181.43 796.32,-104.86 840.5,-72 893.38,-32.67 1310.79,-22.52 1516.16,-19.91"/>
<polygon fill="black" stroke="black" points="1516.42,-23.4 1526.38,-19.78 1516.33,-16.4 1516.42,-23.4"/>
</g>
<!-- digital_rf&#45;&gt;conda&#45;forge&#45;pinning -->
<g id="edge32" class="edge">
<title>digital_rf&#45;&gt;conda&#45;forge&#45;pinning</title>
<path fill="none" stroke="black" d="M867.93,-144.5C852.41,-124.9 832.51,-92.33 851.5,-72 895.81,-24.57 1310.28,-18.46 1515.49,-18.38"/>
<polygon fill="black" stroke="black" points="1515.71,-21.88 1525.71,-18.38 1515.71,-14.88 1515.71,-21.88"/>
</g>
<!-- pp&#45;sketchlib&#45;&gt;conda&#45;forge&#45;pinning -->
<g id="edge33" class="edge">
<title>pp&#45;sketchlib&#45;&gt;conda&#45;forge&#45;pinning</title>
<path fill="none" stroke="black" d="M981.42,-77.73C992.3,-75.59 1003.75,-73.55 1014.5,-72 1191.19,-46.59 1398.31,-31.81 1521.46,-24.58"/>
<polygon fill="black" stroke="black" points="1521.87,-28.07 1531.65,-23.99 1521.46,-21.08 1521.87,-28.07"/>
</g>
<!-- triqs_cthyb&#45;&gt;conda&#45;forge&#45;pinning -->
<g id="edge69" class="edge">
<title>triqs_cthyb&#45;&gt;conda&#45;forge&#45;pinning</title>
<path fill="none" stroke="black" d="M710.5,-77.66C720.98,-75.47 732.07,-73.42 742.5,-72 1018.86,-34.23 1347.3,-23.38 1516.41,-20.26"/>
<polygon fill="black" stroke="black" points="1516.63,-23.75 1526.57,-20.07 1516.51,-16.75 1516.63,-23.75"/>
</g>
<!-- hdfeos5 -->
<g id="node21" class="node">
<title>hdfeos5</title>
<g id="a_node21"><a xlink:href="https://github.com/conda-forge/hdfeos5-feedstock/pull/27" xlink:title="hdfeos5">
<ellipse fill="#31688e" stroke="black" cx="1470.5" cy="-234" rx="45" ry="18"/>
<text text-anchor="middle" x="1470.5" y="-230.3" font-family="Times,serif" font-size="14.00" fill="white">hdfeos5</text>
</a>
</g>
</g>
<!-- hdfeos5&#45;&gt;conda&#45;forge&#45;pinning -->
<g id="edge34" class="edge">
<title>hdfeos5&#45;&gt;conda&#45;forge&#45;pinning</title>
<path fill="none" stroke="black" d="M1472.36,-215.87C1476.65,-179.06 1488.32,-93.94 1506.5,-72 1520.08,-55.61 1539.67,-44.17 1559.24,-36.23"/>
<polygon fill="black" stroke="black" points="1560.7,-39.42 1568.82,-32.61 1558.22,-32.87 1560.7,-39.42"/>
</g>
<!-- ncl -->
<g id="node22" class="node">
<title>ncl</title>
<g id="a_node22"><a xlink:href="https://github.com/conda-forge/ncl-feedstock" xlink:title="ncl">
<ellipse fill="#fde725" stroke="black" cx="1415.5" cy="-162" rx="27" ry="18"/>
<text text-anchor="middle" x="1415.5" y="-158.3" font-family="Times,serif" font-size="14.00">ncl</text>
</a>
</g>
</g>
<!-- hdfeos5&#45;&gt;ncl -->
<g id="edge35" class="edge">
<title>hdfeos5&#45;&gt;ncl</title>
<path fill="none" stroke="black" d="M1457.47,-216.41C1450.49,-207.53 1441.77,-196.44 1434.1,-186.67"/>
<polygon fill="black" stroke="black" points="1436.62,-184.21 1427.69,-178.51 1431.11,-188.54 1436.62,-184.21"/>
</g>
<!-- pynio -->
<g id="node23" class="node">
<title>pynio</title>
<g id="a_node23"><a xlink:href="https://github.com/conda-forge/pynio-feedstock" xlink:title="pynio">
<ellipse fill="#fde725" stroke="black" cx="1419.5" cy="-90" rx="35.19" ry="18"/>
<text text-anchor="middle" x="1419.5" y="-86.3" font-family="Times,serif" font-size="14.00">pynio</text>
</a>
</g>
</g>
<!-- hdfeos5&#45;&gt;pynio -->
<g id="edge36" class="edge">
<title>hdfeos5&#45;&gt;pynio</title>
<path fill="none" stroke="black" d="M1468.55,-215.78C1466.09,-197.48 1460.97,-167.95 1451.5,-144 1447.68,-134.36 1442.2,-124.45 1436.85,-115.86"/>
<polygon fill="black" stroke="black" points="1439.76,-113.93 1431.39,-107.44 1433.89,-117.73 1439.76,-113.93"/>
</g>
<!-- ncl&#45;&gt;conda&#45;forge&#45;pinning -->
<g id="edge37" class="edge">
<title>ncl&#45;&gt;conda&#45;forge&#45;pinning</title>
<path fill="none" stroke="black" d="M1400.4,-146.82C1382.36,-128.15 1356.8,-95 1375.5,-72 1394.81,-48.24 1465.23,-34.77 1527.04,-27.36"/>
<polygon fill="black" stroke="black" points="1527.73,-30.8 1537.27,-26.18 1526.93,-23.85 1527.73,-30.8"/>
</g>
<!-- pynio&#45;&gt;conda&#45;forge&#45;pinning -->
<g id="edge38" class="edge">
<title>pynio&#45;&gt;conda&#45;forge&#45;pinning</title>
<path fill="none" stroke="black" d="M1447.72,-79.12C1454.52,-76.77 1461.76,-74.28 1468.5,-72 1503.21,-60.27 1542.25,-47.41 1573.19,-37.29"/>
<polygon fill="black" stroke="black" points="1574.52,-40.54 1582.94,-34.11 1572.34,-33.89 1574.52,-40.54"/>
</g>
<!-- hyperion&#45;fortran -->
<g id="node24" class="node">
<title>hyperion&#45;fortran</title>
<g id="a_node24"><a xlink:href="https://github.com/conda-forge/hyperion-fortran-feedstock/pull/18" xlink:title="hyperion fortran">
<ellipse fill="#31688e" stroke="black" cx="1546.5" cy="-378" rx="89.08" ry="18"/>
<text text-anchor="middle" x="1546.5" y="-374.3" font-family="Times,serif" font-size="14.00" fill="white">hyperion fortran</text>
</a>
</g>
</g>
<!-- hyperion&#45;fortran&#45;&gt;conda&#45;forge&#45;pinning -->
<g id="edge39" class="edge">
<title>hyperion&#45;fortran&#45;&gt;conda&#45;forge&#45;pinning</title>
<path fill="none" stroke="black" d="M1543.84,-359.84C1535.39,-302.96 1511.24,-121.43 1539.5,-72 1547.62,-57.79 1561.21,-47.01 1575.39,-39.01"/>
<polygon fill="black" stroke="black" points="1577.01,-42.11 1584.26,-34.38 1573.77,-35.91 1577.01,-42.11"/>
</g>
<!-- libcdms -->
<g id="node25" class="node">
<title>libcdms</title>
<g id="a_node25"><a xlink:href="https://github.com/conda-forge/libcdms-feedstock/pull/32" xlink:title="libcdms">
<ellipse fill="#31688e" stroke="black" cx="1593.5" cy="-90" rx="45" ry="18"/>
<text text-anchor="middle" x="1593.5" y="-86.3" font-family="Times,serif" font-size="14.00" fill="white">libcdms</text>
</a>
</g>
</g>
<!-- libcdms&#45;&gt;conda&#45;forge&#45;pinning -->
<g id="edge40" class="edge">
<title>libcdms&#45;&gt;conda&#45;forge&#45;pinning</title>
<path fill="none" stroke="black" d="M1602.21,-72.05C1606.35,-64.01 1611.39,-54.2 1616.01,-45.23"/>
<polygon fill="black" stroke="black" points="1619.15,-46.77 1620.62,-36.28 1612.93,-43.57 1619.15,-46.77"/>
</g>
<!-- libmatio -->
<g id="node26" class="node">
<title>libmatio</title>
<g id="a_node26"><a xlink:href="https://github.com/conda-forge/libmatio-feedstock/pull/28" xlink:title="libmatio">
<ellipse fill="#31688e" stroke="black" cx="1778.5" cy="-378" rx="50.09" ry="18"/>
<text text-anchor="middle" x="1778.5" y="-374.3" font-family="Times,serif" font-size="14.00" fill="white">libmatio</text>
</a>
</g>
</g>
<!-- libmatio&#45;&gt;conda&#45;forge&#45;pinning -->
<g id="edge41" class="edge">
<title>libmatio&#45;&gt;conda&#45;forge&#45;pinning</title>
<path fill="none" stroke="black" d="M1782.03,-359.98C1793.51,-302.74 1827.11,-118.19 1793.5,-72 1777.97,-50.65 1753.66,-37.73 1728.47,-29.95"/>
<polygon fill="black" stroke="black" points="1729.37,-26.57 1718.79,-27.21 1727.46,-33.3 1729.37,-26.57"/>
</g>
<!-- pytrilinos -->
<g id="node27" class="node">
<title>pytrilinos</title>
<g id="a_node27"><a xlink:href="https://github.com/conda-forge/pytrilinos-feedstock" xlink:title="pytrilinos">
<ellipse fill="#fde725" stroke="black" cx="1866.5" cy="-306" rx="60" ry="18"/>
<text text-anchor="middle" x="1866.5" y="-302.3" font-family="Times,serif" font-size="14.00">pytrilinos</text>
</a>
</g>
</g>
<!-- libmatio&#45;&gt;pytrilinos -->
<g id="edge42" class="edge">
<title>libmatio&#45;&gt;pytrilinos</title>
<path fill="none" stroke="black" d="M1798.47,-361.12C1810.2,-351.78 1825.22,-339.84 1838.16,-329.55"/>
<polygon fill="black" stroke="black" points="1840.66,-332.03 1846.31,-323.06 1836.3,-326.55 1840.66,-332.03"/>
</g>
<!-- trilinos -->
<g id="node28" class="node">
<title>trilinos</title>
<g id="a_node28"><a xlink:href="https://github.com/conda-forge/trilinos-feedstock" xlink:title="trilinos">
<ellipse fill="#fde725" stroke="black" cx="1896.5" cy="-234" rx="50.09" ry="18"/>
<text text-anchor="middle" x="1896.5" y="-230.3" font-family="Times,serif" font-size="14.00">trilinos</text>
</a>
</g>
</g>
<!-- libmatio&#45;&gt;trilinos -->
<g id="edge43" class="edge">
<title>libmatio&#45;&gt;trilinos</title>
<path fill="none" stroke="black" d="M1828.11,-374.81C1864.36,-370.3 1911.26,-357.77 1935.5,-324 1949.9,-303.94 1935.09,-277.73 1919.76,-258.96"/>
<polygon fill="black" stroke="black" points="1922.2,-256.43 1913.02,-251.16 1916.91,-261.01 1922.2,-256.43"/>
</g>
<!-- openmeeg -->
<g id="node29" class="node">
<title>openmeeg</title>
<g id="a_node29"><a xlink:href="https://github.com/conda-forge/openmeeg-feedstock" xlink:title="openmeeg">
<ellipse fill="#fde725" stroke="black" cx="1662.5" cy="-162" rx="50.09" ry="18"/>
<text text-anchor="middle" x="1662.5" y="-158.3" font-family="Times,serif" font-size="14.00">openmeeg</text>
</a>
</g>
</g>
<!-- libmatio&#45;&gt;openmeeg -->
<g id="edge44" class="edge">
<title>libmatio&#45;&gt;openmeeg</title>
<path fill="none" stroke="black" d="M1759.25,-360.87C1748.5,-351.08 1735.5,-337.83 1726.5,-324 1698.36,-280.78 1679.21,-223.24 1669.63,-189.95"/>
<polygon fill="black" stroke="black" points="1672.92,-188.72 1666.85,-180.04 1666.18,-190.61 1672.92,-188.72"/>
</g>
<!-- libvips -->
<g id="node30" class="node">
<title>libvips</title>
<g id="a_node30"><a xlink:href="https://github.com/conda-forge/libvips-feedstock" xlink:title="libvips">
<ellipse fill="#fde725" stroke="black" cx="1739.5" cy="-90" rx="45" ry="18"/>
<text text-anchor="middle" x="1739.5" y="-86.3" font-family="Times,serif" font-size="14.00">libvips</text>
</a>
</g>
</g>
<!-- libmatio&#45;&gt;libvips -->
<g id="edge45" class="edge">
<title>libmatio&#45;&gt;libvips</title>
<path fill="none" stroke="black" d="M1773.3,-359.96C1770.32,-349.64 1766.75,-336.17 1764.5,-324 1750.88,-250.24 1743.91,-161.86 1741.08,-118.19"/>
<polygon fill="black" stroke="black" points="1744.56,-117.85 1740.44,-108.08 1737.58,-118.28 1744.56,-117.85"/>
</g>
<!-- pytrilinos&#45;&gt;conda&#45;forge&#45;pinning -->
<g id="edge46" class="edge">
<title>pytrilinos&#45;&gt;conda&#45;forge&#45;pinning</title>
<path fill="none" stroke="black" d="M1854.79,-288.17C1848.47,-278.15 1841.22,-264.9 1837.5,-252 1815.28,-174.99 1877.18,-134.09 1826.5,-72 1812.03,-54.27 1761.94,-40.93 1715.9,-32.07"/>
<polygon fill="black" stroke="black" points="1716.32,-28.59 1705.84,-30.19 1715.03,-35.47 1716.32,-28.59"/>
</g>
<!-- trilinos&#45;&gt;conda&#45;forge&#45;pinning -->
<g id="edge47" class="edge">
<title>trilinos&#45;&gt;conda&#45;forge&#45;pinning</title>
<path fill="none" stroke="black" d="M1888.9,-216.16C1884.6,-205.9 1879.49,-192.43 1876.5,-180 1865.22,-133.04 1896.7,-107.99 1864.5,-72 1845.79,-51.09 1782.12,-37.53 1725.77,-29.37"/>
<polygon fill="black" stroke="black" points="1726.1,-25.89 1715.71,-27.96 1725.13,-32.82 1726.1,-25.89"/>
</g>
<!-- openmeeg&#45;&gt;conda&#45;forge&#45;pinning -->
<g id="edge48" class="edge">
<title>openmeeg&#45;&gt;conda&#45;forge&#45;pinning</title>
<path fill="none" stroke="black" d="M1660.43,-143.77C1658.07,-125.72 1653.71,-96.61 1647.5,-72 1645.3,-63.29 1642.35,-53.96 1639.46,-45.6"/>
<polygon fill="black" stroke="black" points="1642.69,-44.23 1636.04,-35.98 1636.1,-46.57 1642.69,-44.23"/>
</g>
<!-- libvips&#45;&gt;conda&#45;forge&#45;pinning -->
<g id="edge49" class="edge">
<title>libvips&#45;&gt;conda&#45;forge&#45;pinning</title>
<path fill="none" stroke="black" d="M1716.44,-74.33C1701.31,-64.7 1681.25,-51.93 1664.21,-41.09"/>
<polygon fill="black" stroke="black" points="1665.93,-38.03 1655.62,-35.62 1662.17,-43.94 1665.93,-38.03"/>
</g>
<!-- octave -->
<g id="node31" class="node">
<title>octave</title>
<g id="a_node31"><a xlink:href="https://github.com/conda-forge/octave-feedstock/pull/39" xlink:title="octave">
<ellipse fill="#31688e" stroke="black" cx="1926.5" cy="-162" rx="40.5" ry="18"/>
<text text-anchor="middle" x="1926.5" y="-158.3" font-family="Times,serif" font-size="14.00" fill="white">octave</text>
</a>
</g>
</g>
<!-- octave&#45;&gt;conda&#45;forge&#45;pinning -->
<g id="edge50" class="edge">
<title>octave&#45;&gt;conda&#45;forge&#45;pinning</title>
<path fill="none" stroke="black" d="M1926.94,-143.89C1926.46,-123.7 1922.41,-90.54 1902.5,-72 1877.71,-48.92 1798.1,-35.22 1731.2,-27.55"/>
<polygon fill="black" stroke="black" points="1731.33,-24.05 1721,-26.42 1730.56,-31 1731.33,-24.05"/>
</g>
<!-- pyne -->
<g id="node32" class="node">
<title>pyne</title>
<g id="a_node32"><a xlink:href="https://github.com/conda-forge/pyne-feedstock/pull/40" xlink:title="pyne">
<ellipse fill="#31688e" stroke="black" cx="1995.5" cy="-234" rx="30.59" ry="18"/>
<text text-anchor="middle" x="1995.5" y="-230.3" font-family="Times,serif" font-size="14.00" fill="white">pyne</text>
</a>
</g>
</g>
<!-- pyne&#45;&gt;conda&#45;forge&#45;pinning -->
<g id="edge51" class="edge">
<title>pyne&#45;&gt;conda&#45;forge&#45;pinning</title>
<path fill="none" stroke="black" d="M1994.15,-215.95C1990.39,-181.57 1976.52,-104.41 1926.5,-72 1894.38,-51.19 1802.16,-36.87 1728.92,-28.41"/>
<polygon fill="black" stroke="black" points="1729.05,-24.9 1718.72,-27.25 1728.26,-31.86 1729.05,-24.9"/>
</g>
<!-- r&#45;hdf5r -->
<g id="node33" class="node">
<title>r&#45;hdf5r</title>
<g id="a_node33"><a xlink:href="https://github.com/conda-forge/r-hdf5r-feedstock/pull/12" xlink:title="r hdf5r">
<ellipse fill="#31688e" stroke="black" cx="2027.5" cy="-306" rx="45" ry="18"/>
<text text-anchor="middle" x="2027.5" y="-302.3" font-family="Times,serif" font-size="14.00" fill="white">r hdf5r</text>
</a>
</g>
</g>
<!-- r&#45;hdf5r&#45;&gt;conda&#45;forge&#45;pinning -->
<g id="edge52" class="edge">
<title>r&#45;hdf5r&#45;&gt;conda&#45;forge&#45;pinning</title>
<path fill="none" stroke="black" d="M2032.31,-288.02C2036.67,-269.92 2041.58,-240.55 2035.5,-216 2018.05,-145.55 2017.69,-113.99 1958.5,-72 1923.28,-47.01 1817.27,-33.15 1735,-25.93"/>
<polygon fill="black" stroke="black" points="1735.1,-22.42 1724.84,-25.06 1734.51,-29.4 1735.1,-22.42"/>
</g>
<!-- r&#45;ncdf4 -->
<g id="node34" class="node">
<title>r&#45;ncdf4</title>
<g id="a_node34"><a xlink:href="https://github.com/conda-forge/r-ncdf4-feedstock/pull/19" xlink:title="r ncdf4">
<ellipse fill="#31688e" stroke="black" cx="2100.5" cy="-378" rx="45" ry="18"/>
<text text-anchor="middle" x="2100.5" y="-374.3" font-family="Times,serif" font-size="14.00" fill="white">r ncdf4</text>
</a>
</g>
</g>
<!-- r&#45;ncdf4&#45;&gt;conda&#45;forge&#45;pinning -->
<g id="edge53" class="edge">
<title>r&#45;ncdf4&#45;&gt;conda&#45;forge&#45;pinning</title>
<path fill="none" stroke="black" d="M2100.83,-359.66C2100.81,-305.29 2092.34,-137.93 1992.5,-72 1951.65,-45.02 1828.95,-31.33 1737.44,-24.7"/>
<polygon fill="black" stroke="black" points="1737.51,-21.2 1727.29,-23.98 1737.01,-28.18 1737.51,-21.2"/>
</g>
<!-- shogun -->
<g id="node35" class="node">
<title>shogun</title>
<g id="a_node35"><a xlink:href="https://github.com/conda-forge/shogun-feedstock/pull/20" xlink:title="shogun">
<ellipse fill="#31688e" stroke="black" cx="2109.5" cy="-90" rx="40.5" ry="18"/>
<text text-anchor="middle" x="2109.5" y="-86.3" font-family="Times,serif" font-size="14.00" fill="white">shogun</text>
</a>
</g>
</g>
<!-- shogun&#45;&gt;conda&#45;forge&#45;pinning -->
<g id="edge54" class="edge">
<title>shogun&#45;&gt;conda&#45;forge&#45;pinning</title>
<path fill="none" stroke="black" d="M2078.34,-78.33C2070.62,-75.97 2062.32,-73.68 2054.5,-72 1945.94,-48.64 1819.41,-34.5 1732.82,-26.77"/>
<polygon fill="black" stroke="black" points="1733,-23.27 1722.73,-25.88 1732.38,-30.25 1733,-23.27"/>
</g>
<!-- vigra -->
<g id="node36" class="node">
<title>vigra</title>
<g id="a_node36"><a xlink:href="https://github.com/conda-forge/vigra-feedstock/pull/54" xlink:title="vigra">
<ellipse fill="#31688e" stroke="black" cx="2153.5" cy="-162" rx="35.19" ry="18"/>
<text text-anchor="middle" x="2153.5" y="-158.3" font-family="Times,serif" font-size="14.00" fill="white">vigra</text>
</a>
</g>
</g>
<!-- vigra&#45;&gt;conda&#45;forge&#45;pinning -->
<g id="edge55" class="edge">
<title>vigra&#45;&gt;conda&#45;forge&#45;pinning</title>
<path fill="none" stroke="black" d="M2160.79,-144.22C2168.15,-124.35 2176.15,-91.51 2158.5,-72 2131.06,-41.67 1888.03,-27.93 1741.1,-22.35"/>
<polygon fill="black" stroke="black" points="1740.81,-18.84 1730.69,-21.96 1740.55,-25.83 1740.81,-18.84"/>
</g>
<!-- yaafe -->
<g id="node37" class="node">
<title>yaafe</title>
<g id="a_node37"><a xlink:href="https://github.com/conda-forge/yaafe-feedstock/pull/9" xlink:title="yaafe">
<ellipse fill="#31688e" stroke="black" cx="2191.5" cy="-234" rx="35.19" ry="18"/>
<text text-anchor="middle" x="2191.5" y="-230.3" font-family="Times,serif" font-size="14.00" fill="white">yaafe</text>
</a>
</g>
</g>
<!-- yaafe&#45;&gt;conda&#45;forge&#45;pinning -->
<g id="edge56" class="edge">
<title>yaafe&#45;&gt;conda&#45;forge&#45;pinning</title>
<path fill="none" stroke="black" d="M2196.73,-215.97C2205.9,-182.29 2220.16,-107.42 2178.5,-72 2145.87,-44.26 1890.76,-29.41 1740.04,-22.98"/>
<polygon fill="black" stroke="black" points="1739.96,-19.47 1729.82,-22.55 1739.67,-26.47 1739.96,-19.47"/>
</g>
<!-- alps -->
<g id="node38" class="node">
<title>alps</title>
<g id="a_node38"><a xlink:href="https://github.com/conda-forge/alps-feedstock/pull/31" xlink:title="alps">
<ellipse fill="#31688e" stroke="black" cx="2233.5" cy="-306" rx="30.59" ry="18"/>
<text text-anchor="middle" x="2233.5" y="-302.3" font-family="Times,serif" font-size="14.00" fill="white">alps</text>
</a>
</g>
</g>
<!-- alps&#45;&gt;conda&#45;forge&#45;pinning -->
<g id="edge57" class="edge">
<title>alps&#45;&gt;conda&#45;forge&#45;pinning</title>
<path fill="none" stroke="black" d="M2237.83,-288.16C2247.9,-244.55 2267.52,-127.5 2204.5,-72 2170.52,-42.08 1898.14,-27.99 1740.77,-22.29"/>
<polygon fill="black" stroke="black" points="1740.69,-18.79 1730.57,-21.93 1740.44,-25.78 1740.69,-18.79"/>
</g>
<!-- spdlib -->
<g id="node39" class="node">
<title>spdlib</title>
<g id="a_node39"><a xlink:href="https://github.com/conda-forge/spdlib-feedstock/pull/15" xlink:title="spdlib">
<ellipse fill="#31688e" stroke="black" cx="2292.5" cy="-378" rx="40.5" ry="18"/>
<text text-anchor="middle" x="2292.5" y="-374.3" font-family="Times,serif" font-size="14.00" fill="white">spdlib</text>
</a>
</g>
</g>
<!-- spdlib&#45;&gt;conda&#45;forge&#45;pinning -->
<g id="edge58" class="edge">
<title>spdlib&#45;&gt;conda&#45;forge&#45;pinning</title>
<path fill="none" stroke="black" d="M2292.5,-359.95C2292.5,-333.29 2292.5,-280.11 2292.5,-235 2292.5,-235 2292.5,-235 2292.5,-161 2292.5,-113.3 2273.6,-96.23 2232.5,-72 2191.13,-47.61 1901.39,-31.03 1739.07,-23.54"/>
<polygon fill="black" stroke="black" points="1739.19,-20.04 1729.04,-23.08 1738.87,-27.03 1739.19,-20.04"/>
</g>
<!-- mpb -->
<g id="node40" class="node">
<title>mpb</title>
<g id="a_node40"><a xlink:href="https://github.com/conda-forge/mpb-feedstock/pull/22" xlink:title="mpb">
<ellipse fill="#31688e" stroke="black" cx="1343.5" cy="-162" rx="27" ry="18"/>
<text text-anchor="middle" x="1343.5" y="-158.3" font-family="Times,serif" font-size="14.00" fill="white">mpb</text>
</a>
</g>
</g>
<!-- mpb&#45;&gt;conda&#45;forge&#45;pinning -->
<g id="edge59" class="edge">
<title>mpb&#45;&gt;conda&#45;forge&#45;pinning</title>
<path fill="none" stroke="black" d="M1342.66,-143.95C1342.66,-123.81 1345.95,-90.71 1365.5,-72 1388.95,-49.57 1464.6,-35.88 1528.94,-28.05"/>
<polygon fill="black" stroke="black" points="1529.64,-31.49 1539.16,-26.84 1528.82,-24.54 1529.64,-31.49"/>
</g>
<!-- mpb&#45;&gt;pymeep -->
<g id="edge60" class="edge">
<title>mpb&#45;&gt;pymeep</title>
<path fill="none" stroke="black" d="M1325.82,-147.83C1312.27,-137.74 1293.3,-123.62 1277.67,-111.98"/>
<polygon fill="black" stroke="black" points="1279.49,-108.97 1269.38,-105.8 1275.31,-114.58 1279.49,-108.97"/>
</g>
<!-- openpmd&#45;api -->
<g id="node41" class="node">
<title>openpmd&#45;api</title>
<g id="a_node41"><a xlink:href="https://github.com/conda-forge/openpmd-api-feedstock" xlink:title="openpmd api">
<ellipse fill="#fde725" stroke="black" cx="2423.5" cy="-90" rx="64.5" ry="18"/>
<text text-anchor="middle" x="2423.5" y="-86.3" font-family="Times,serif" font-size="14.00">openpmd api</text>
</a>
</g>
</g>
<!-- openpmd&#45;api&#45;&gt;conda&#45;forge&#45;pinning -->
<g id="edge61" class="edge">
<title>openpmd&#45;api&#45;&gt;conda&#45;forge&#45;pinning</title>
<path fill="none" stroke="black" d="M2376.07,-77.68C2365.71,-75.52 2354.78,-73.48 2344.5,-72 2132.21,-41.44 1881.76,-28.01 1740.71,-22.49"/>
<polygon fill="black" stroke="black" points="1740.45,-18.98 1730.33,-22.09 1740.19,-25.97 1740.45,-18.98"/>
</g>
<!-- cmor -->
<g id="node42" class="node">
<title>cmor</title>
<g id="a_node42"><a xlink:href="https://github.com/conda-forge/cmor-feedstock/pull/22" xlink:title="cmor">
<ellipse fill="#31688e" stroke="black" cx="2536.5" cy="-90" rx="30.59" ry="18"/>
<text text-anchor="middle" x="2536.5" y="-86.3" font-family="Times,serif" font-size="14.00" fill="white">cmor</text>
</a>
</g>
</g>
<!-- cmor&#45;&gt;conda&#45;forge&#45;pinning -->
<g id="edge62" class="edge">
<title>cmor&#45;&gt;conda&#45;forge&#45;pinning</title>
<path fill="none" stroke="black" d="M2513.69,-77.73C2508.18,-75.46 2502.23,-73.35 2496.5,-72 2356.4,-38.98 1943.12,-25.73 1742,-21.13"/>
<polygon fill="black" stroke="black" points="1742.07,-17.63 1731.99,-20.91 1741.91,-24.63 1742.07,-17.63"/>
</g>
<!-- freecad -->
<g id="node43" class="node">
<title>freecad</title>
<g id="a_node43"><a xlink:href="https://github.com/conda-forge/freecad-feedstock/pull/38" xlink:title="freecad">
<ellipse fill="#31688e" stroke="black" cx="2560.5" cy="-162" rx="45" ry="18"/>
<text text-anchor="middle" x="2560.5" y="-158.3" font-family="Times,serif" font-size="14.00" fill="white">freecad</text>
</a>
</g>
</g>
<!-- freecad&#45;&gt;conda&#45;forge&#45;pinning -->
<g id="edge63" class="edge">
<title>freecad&#45;&gt;conda&#45;forge&#45;pinning</title>
<path fill="none" stroke="black" d="M2570.91,-144.18C2581.76,-124.28 2594.84,-91.39 2576.5,-72 2548.23,-42.11 1986.8,-26.58 1742,-21.21"/>
<polygon fill="black" stroke="black" points="1741.73,-17.71 1731.65,-20.99 1741.58,-24.71 1741.73,-17.71"/>
</g>
<!-- scilab -->
<g id="node44" class="node">
<title>scilab</title>
<g id="a_node44"><a xlink:href="https://github.com/conda-forge/scilab-feedstock/pull/12" xlink:title="scilab">
<ellipse fill="#31688e" stroke="black" cx="2602.5" cy="-234" rx="40.5" ry="18"/>
<text text-anchor="middle" x="2602.5" y="-230.3" font-family="Times,serif" font-size="14.00" fill="white">scilab</text>
</a>
</g>
</g>
<!-- scilab&#45;&gt;conda&#45;forge&#45;pinning -->
<g id="edge64" class="edge">
<title>scilab&#45;&gt;conda&#45;forge&#45;pinning</title>
<path fill="none" stroke="black" d="M2608.62,-216.06C2619.62,-182.23 2637.9,-106.55 2595.5,-72 2562.87,-45.41 1988.96,-27.96 1741.53,-21.65"/>
<polygon fill="black" stroke="black" points="1741.51,-18.14 1731.43,-21.39 1741.34,-25.14 1741.51,-18.14"/>
</g>
<!-- adios2 -->
<g id="node45" class="node">
<title>adios2</title>
<g id="a_node45"><a xlink:href="https://github.com/conda-forge/adios2-feedstock/pull/11" xlink:title="adios2">
<ellipse fill="#31688e" stroke="black" cx="2392.5" cy="-162" rx="40.5" ry="18"/>
<text text-anchor="middle" x="2392.5" y="-158.3" font-family="Times,serif" font-size="14.00" fill="white">adios2</text>
</a>
</g>
</g>
<!-- adios2&#45;&gt;conda&#45;forge&#45;pinning -->
<g id="edge65" class="edge">
<title>adios2&#45;&gt;conda&#45;forge&#45;pinning</title>
<path fill="none" stroke="black" d="M2379.21,-144.69C2359.8,-121.35 2324.09,-80.29 2306.5,-72 2209.68,-26.38 1909.63,-18.81 1743.34,-18.27"/>
<polygon fill="black" stroke="black" points="1743.09,-14.77 1733.08,-18.24 1743.07,-21.77 1743.09,-14.77"/>
</g>
<!-- adios2&#45;&gt;openpmd&#45;api -->
<g id="edge66" class="edge">
<title>adios2&#45;&gt;openpmd&#45;api</title>
<path fill="none" stroke="black" d="M2400,-144.05C2403.53,-136.09 2407.82,-126.41 2411.76,-117.51"/>
<polygon fill="black" stroke="black" points="2415,-118.84 2415.85,-108.28 2408.6,-116 2415,-118.84"/>
</g>
<!-- bonsu -->
<g id="node46" class="node">
<title>bonsu</title>
<g id="a_node46"><a xlink:href="https://github.com/conda-forge/bonsu-feedstock/pull/5" xlink:title="bonsu">
<ellipse fill="#31688e" stroke="black" cx="2646.5" cy="-306" rx="35.19" ry="18"/>
<text text-anchor="middle" x="2646.5" y="-302.3" font-family="Times,serif" font-size="14.00" fill="white">bonsu</text>
</a>
</g>
</g>
<!-- bonsu&#45;&gt;conda&#45;forge&#45;pinning -->
<g id="edge67" class="edge">
<title>bonsu&#45;&gt;conda&#45;forge&#45;pinning</title>
<path fill="none" stroke="black" d="M2651.29,-288.05C2662.53,-244.2 2685.09,-126.59 2621.5,-72 2588.59,-43.74 1994.59,-27.16 1741.84,-21.36"/>
<polygon fill="black" stroke="black" points="1741.61,-17.85 1731.53,-21.13 1741.45,-24.85 1741.61,-17.85"/>
</g>
<!-- ncview -->
<g id="node47" class="node">
<title>ncview</title>
<g id="a_node47"><a xlink:href="https://github.com/conda-forge/ncview-feedstock/pull/6" xlink:title="ncview">
<ellipse fill="#31688e" stroke="black" cx="2709.5" cy="-378" rx="40.5" ry="18"/>
<text text-anchor="middle" x="2709.5" y="-374.3" font-family="Times,serif" font-size="14.00" fill="white">ncview</text>
</a>
</g>
</g>
<!-- ncview&#45;&gt;conda&#45;forge&#45;pinning -->
<g id="edge68" class="edge">
<title>ncview&#45;&gt;conda&#45;forge&#45;pinning</title>
<path fill="none" stroke="black" d="M2709.5,-359.95C2709.5,-333.29 2709.5,-280.11 2709.5,-235 2709.5,-235 2709.5,-235 2709.5,-161 2709.5,-113.3 2691.02,-95.49 2649.5,-72 2572.29,-28.33 1992.59,-20.55 1743.11,-19.23"/>
<polygon fill="black" stroke="black" points="1742.95,-15.73 1732.93,-19.18 1742.92,-22.73 1742.95,-15.73"/>
</g>
<!-- conduit -->
<g id="node48" class="node">
<title>conduit</title>
<g id="a_node48"><a xlink:href="https://github.com/conda-forge/conduit-feedstock/pull/3" xlink:title="conduit">
<ellipse fill="#31688e" stroke="black" cx="2782.5" cy="-90" rx="45" ry="18"/>
<text text-anchor="middle" x="2782.5" y="-86.3" font-family="Times,serif" font-size="14.00" fill="white">conduit</text>
</a>
</g>
</g>
<!-- conduit&#45;&gt;conda&#45;forge&#45;pinning -->
<g id="edge70" class="edge">
<title>conduit&#45;&gt;conda&#45;forge&#45;pinning</title>
<path fill="none" stroke="black" d="M2749.11,-77.92C2740.83,-75.58 2731.91,-73.4 2723.5,-72 2537.3,-41.1 1981.99,-26.25 1742.02,-21.14"/>
<polygon fill="black" stroke="black" points="1741.95,-17.64 1731.88,-20.93 1741.8,-24.64 1741.95,-17.64"/>
</g>
<!-- dagmc -->
<g id="node49" class="node">
<title>dagmc</title>
<g id="a_node49"><a xlink:href="https://github.com/conda-forge/dagmc-feedstock/pull/1" xlink:title="dagmc">
<ellipse fill="#31688e" stroke="black" cx="2842.5" cy="-162" rx="35.19" ry="18"/>
<text text-anchor="middle" x="2842.5" y="-158.3" font-family="Times,serif" font-size="14.00" fill="white">dagmc</text>
</a>
</g>
</g>
<!-- dagmc&#45;&gt;conda&#45;forge&#45;pinning -->
<g id="edge71" class="edge">
<title>dagmc&#45;&gt;conda&#45;forge&#45;pinning</title>
<path fill="none" stroke="black" d="M2847.3,-143.84C2851.8,-123.61 2855.33,-90.4 2836.5,-72 2797.76,-34.16 2035.79,-22.88 1742.87,-19.93"/>
<polygon fill="black" stroke="black" points="1742.68,-16.43 1732.65,-19.83 1742.61,-23.43 1742.68,-16.43"/>
</g>
<!-- nccmp -->
<g id="node50" class="node">
<title>nccmp</title>
<g id="a_node50"><a xlink:href="https://github.com/conda-forge/nccmp-feedstock/pull/2" xlink:title="nccmp">
<ellipse fill="#31688e" stroke="black" cx="2905.5" cy="-234" rx="35.19" ry="18"/>
<text text-anchor="middle" x="2905.5" y="-230.3" font-family="Times,serif" font-size="14.00" fill="white">nccmp</text>
</a>
</g>
</g>
<!-- nccmp&#45;&gt;conda&#45;forge&#45;pinning -->
<g id="edge72" class="edge">
<title>nccmp&#45;&gt;conda&#45;forge&#45;pinning</title>
<path fill="none" stroke="black" d="M2906.62,-215.83C2907.79,-181.56 2904.78,-105.15 2858.5,-72 2813.58,-39.83 2037.88,-25.03 1742.48,-20.55"/>
<polygon fill="black" stroke="black" points="1742.22,-17.04 1732.17,-20.39 1742.12,-24.04 1742.22,-17.04"/>
</g>
<!-- mbsolve -->
<g id="node51" class="node">
<title>mbsolve</title>
<g id="a_node51"><a xlink:href="https://github.com/conda-forge/mbsolve-feedstock/pull/3" xlink:title="mbsolve">
<ellipse fill="#31688e" stroke="black" cx="2968.5" cy="-306" rx="45" ry="18"/>
<text text-anchor="middle" x="2968.5" y="-302.3" font-family="Times,serif" font-size="14.00" fill="white">mbsolve</text>
</a>
</g>
</g>
<!-- mbsolve&#45;&gt;conda&#45;forge&#45;pinning -->
<g id="edge73" class="edge">
<title>mbsolve&#45;&gt;conda&#45;forge&#45;pinning</title>
<path fill="none" stroke="black" d="M2968.75,-287.86C2968.37,-243.01 2960.33,-122.17 2887.5,-72 2840.77,-39.82 2042.23,-24.97 1742.21,-20.51"/>
<polygon fill="black" stroke="black" points="1742.23,-17.01 1732.18,-20.37 1742.13,-24.01 1742.23,-17.01"/>
</g>
</g>
</svg>
