<?xml version="1.0" encoding="UTF-8" standalone="no"?>
<!DOCTYPE svg PUBLIC "-//W3C//DTD SVG 1.1//EN"
 "http://www.w3.org/Graphics/SVG/1.1/DTD/svg11.dtd">
<!-- Generated by graphviz version 2.42.3 (20191010.1750)
 -->
<!-- Title: %3 Pages: 1 -->
<svg width="2473pt" height="476pt"
 viewBox="0.00 0.00 2472.60 476.00" xmlns="http://www.w3.org/2000/svg" xmlns:xlink="http://www.w3.org/1999/xlink">
<g id="graph0" class="graph" transform="scale(1 1) rotate(0) translate(4 472)">
<title>%3</title>
<polygon fill="white" stroke="transparent" points="-4,4 -4,-472 2468.6,-472 2468.6,4 -4,4"/>
<!-- caffe -->
<g id="node1" class="node">
<title>caffe</title>
<g id="a_node1"><a xlink:href="https://github.com/conda-forge/caffe-feedstock" xlink:title="caffe">
<ellipse fill="#fde725" stroke="black" cx="1195.5" cy="-378" rx="35.19" ry="18"/>
<text text-anchor="middle" x="1195.5" y="-374.3" font-family="Times,serif" font-size="14.00">caffe</text>
</a>
</g>
</g>
<!-- conda&#45;forge&#45;pinning -->
<g id="node2" class="node">
<title>conda&#45;forge&#45;pinning</title>
<ellipse fill="none" stroke="black" cx="1349.5" cy="-18" rx="103.5" ry="18"/>
<text text-anchor="middle" x="1349.5" y="-14.3" font-family="Times,serif" font-size="14.00">conda&#45;forge&#45;pinning</text>
</g>
<!-- caffe&#45;&gt;conda&#45;forge&#45;pinning -->
<g id="edge1" class="edge">
<title>caffe&#45;&gt;conda&#45;forge&#45;pinning</title>
<path fill="none" stroke="black" d="M1197.28,-359.97C1199.9,-333.34 1204.5,-280.21 1204.5,-235 1204.5,-235 1204.5,-235 1204.5,-161 1204.5,-120.03 1201.77,-103.05 1228.5,-72 1242.32,-55.94 1261.92,-44.57 1281.34,-36.6"/>
<polygon fill="black" stroke="black" points="1282.75,-39.8 1290.83,-32.95 1280.24,-33.27 1282.75,-39.8"/>
</g>
<!-- cyclus -->
<g id="node3" class="node">
<title>cyclus</title>
<g id="a_node3"><a xlink:href="https://github.com/conda-forge/cyclus-feedstock/pull/56" xlink:title="cyclus">
<ellipse fill="#31688e" stroke="black" cx="40.5" cy="-90" rx="40.5" ry="18"/>
<text text-anchor="middle" x="40.5" y="-86.3" font-family="Times,serif" font-size="14.00" fill="white">cyclus</text>
</a>
</g>
</g>
<!-- cyclus&#45;&gt;conda&#45;forge&#45;pinning -->
<g id="edge2" class="edge">
<title>cyclus&#45;&gt;conda&#45;forge&#45;pinning</title>
<path fill="none" stroke="black" d="M70.99,-78.05C78.88,-75.64 87.42,-73.39 95.5,-72 312.8,-34.47 970.34,-23.16 1236.17,-20.06"/>
<polygon fill="black" stroke="black" points="1236.27,-23.56 1246.23,-19.95 1236.19,-16.56 1236.27,-23.56"/>
</g>
<!-- fenics -->
<g id="node4" class="node">
<title>fenics</title>
<g id="a_node4"><a xlink:href="https://github.com/conda-forge/fenics-feedstock/pull/107" xlink:title="fenics">
<ellipse fill="#31688e" stroke="black" cx="93.5" cy="-162" rx="40.5" ry="18"/>
<text text-anchor="middle" x="93.5" y="-158.3" font-family="Times,serif" font-size="14.00" fill="white">fenics</text>
</a>
</g>
</g>
<!-- fenics&#45;&gt;conda&#45;forge&#45;pinning -->
<g id="edge3" class="edge">
<title>fenics&#45;&gt;conda&#45;forge&#45;pinning</title>
<path fill="none" stroke="black" d="M98.55,-144.02C105.81,-122.96 121.4,-87.9 148.5,-72 194.95,-44.74 947.39,-26.98 1237.06,-21.13"/>
<polygon fill="black" stroke="black" points="1237.24,-24.62 1247.17,-20.92 1237.1,-17.62 1237.24,-24.62"/>
</g>
<!-- graph -->
<g id="node5" class="node">
<title>graph</title>
<g id="a_node5"><a xlink:href="https://github.com/conda-forge/graph-feedstock/pull/5" xlink:title="graph">
<ellipse fill="#31688e" stroke="black" cx="161.5" cy="-234" rx="35.19" ry="18"/>
<text text-anchor="middle" x="161.5" y="-230.3" font-family="Times,serif" font-size="14.00" fill="white">graph</text>
</a>
</g>
</g>
<!-- graph&#45;&gt;conda&#45;forge&#45;pinning -->
<g id="edge4" class="edge">
<title>graph&#45;&gt;conda&#45;forge&#45;pinning</title>
<path fill="none" stroke="black" d="M162.62,-215.99C165.88,-182.01 178.44,-106.1 226.5,-72 267.21,-43.11 960.14,-26.55 1236.77,-21.06"/>
<polygon fill="black" stroke="black" points="1236.91,-24.56 1246.84,-20.86 1236.77,-17.56 1236.91,-24.56"/>
</g>
<!-- h5py -->
<g id="node6" class="node">
<title>h5py</title>
<g id="a_node6"><a xlink:href="https://github.com/conda-forge/h5py-feedstock/pull/72" xlink:title="h5py">
<ellipse fill="#31688e" stroke="black" cx="850.5" cy="-450" rx="30.59" ry="18"/>
<text text-anchor="middle" x="850.5" y="-446.3" font-family="Times,serif" font-size="14.00" fill="white">h5py</text>
</a>
</g>
</g>
<!-- h5py&#45;&gt;caffe -->
<g id="edge5" class="edge">
<title>h5py&#45;&gt;caffe</title>
<path fill="none" stroke="black" d="M880.24,-445.25C933.97,-438.12 1050.53,-421.07 1146.5,-396 1150.36,-394.99 1154.35,-393.82 1158.31,-392.58"/>
<polygon fill="black" stroke="black" points="1159.6,-395.84 1168.01,-389.39 1157.41,-389.19 1159.6,-395.84"/>
</g>
<!-- h5py&#45;&gt;conda&#45;forge&#45;pinning -->
<g id="edge6" class="edge">
<title>h5py&#45;&gt;conda&#45;forge&#45;pinning</title>
<path fill="none" stroke="black" d="M881.13,-449.69C964.49,-450.85 1192.33,-449.03 1239.5,-396 1287.07,-342.53 1242.5,-306.57 1242.5,-235 1242.5,-235 1242.5,-235 1242.5,-161 1242.5,-110.85 1285.6,-67.15 1317.09,-41.93"/>
<polygon fill="black" stroke="black" points="1319.47,-44.51 1325.22,-35.61 1315.18,-38.98 1319.47,-44.51"/>
</g>
<!-- openmc -->
<g id="node7" class="node">
<title>openmc</title>
<g id="a_node7"><a xlink:href="https://github.com/conda-forge/openmc-feedstock" xlink:title="openmc">
<ellipse fill="#fde725" stroke="black" cx="1311.5" cy="-306" rx="40.5" ry="18"/>
<text text-anchor="middle" x="1311.5" y="-302.3" font-family="Times,serif" font-size="14.00">openmc</text>
</a>
</g>
</g>
<!-- h5py&#45;&gt;openmc -->
<g id="edge7" class="edge">
<title>h5py&#45;&gt;openmc</title>
<path fill="none" stroke="black" d="M881.08,-448.97C967.37,-448.31 1210.52,-442.28 1272.5,-396 1292.18,-381.3 1302.09,-354.53 1306.98,-334.17"/>
<polygon fill="black" stroke="black" points="1310.44,-334.72 1309.1,-324.21 1303.59,-333.26 1310.44,-334.72"/>
</g>
<!-- rsgislib -->
<g id="node8" class="node">
<title>rsgislib</title>
<g id="a_node8"><a xlink:href="https://github.com/conda-forge/rsgislib-feedstock" xlink:title="rsgislib">
<ellipse fill="#fde725" stroke="black" cx="264.5" cy="-234" rx="50.09" ry="18"/>
<text text-anchor="middle" x="264.5" y="-230.3" font-family="Times,serif" font-size="14.00">rsgislib</text>
</a>
</g>
</g>
<!-- h5py&#45;&gt;rsgislib -->
<g id="edge8" class="edge">
<title>h5py&#45;&gt;rsgislib</title>
<path fill="none" stroke="black" d="M819.86,-447.73C713.98,-443.08 367.84,-425.71 328.5,-396 285.9,-363.83 271.61,-298.88 266.85,-262.07"/>
<polygon fill="black" stroke="black" points="270.31,-261.58 265.7,-252.05 263.36,-262.38 270.31,-261.58"/>
</g>
<!-- h5utils -->
<g id="node9" class="node">
<title>h5utils</title>
<g id="a_node9"><a xlink:href="https://github.com/conda-forge/h5utils-feedstock" xlink:title="h5utils">
<ellipse fill="#fde725" stroke="black" cx="307.5" cy="-162" rx="45" ry="18"/>
<text text-anchor="middle" x="307.5" y="-158.3" font-family="Times,serif" font-size="14.00">h5utils</text>
</a>
</g>
</g>
<!-- h5py&#45;&gt;h5utils -->
<g id="edge9" class="edge">
<title>h5py&#45;&gt;h5utils</title>
<path fill="none" stroke="black" d="M819.85,-447.67C718.8,-443.01 400.58,-426.05 366.5,-396 304.81,-341.6 344.95,-295.4 323.5,-216 321.18,-207.42 318.45,-198.13 315.91,-189.76"/>
<polygon fill="black" stroke="black" points="319.23,-188.64 312.94,-180.11 312.54,-190.7 319.23,-188.64"/>
</g>
<!-- pymeep -->
<g id="node10" class="node">
<title>pymeep</title>
<g id="a_node10"><a xlink:href="https://github.com/conda-forge/pymeep-feedstock" xlink:title="pymeep">
<ellipse fill="#fde725" stroke="black" cx="307.5" cy="-90" rx="40.5" ry="18"/>
<text text-anchor="middle" x="307.5" y="-86.3" font-family="Times,serif" font-size="14.00">pymeep</text>
</a>
</g>
</g>
<!-- h5py&#45;&gt;pymeep -->
<g id="edge10" class="edge">
<title>h5py&#45;&gt;pymeep</title>
<path fill="none" stroke="black" d="M820.38,-446.49C716.65,-437.04 380.5,-399.27 380.5,-307 380.5,-307 380.5,-307 380.5,-233 380.5,-192.55 380.98,-179.45 361.5,-144 354.96,-132.1 344.9,-121.17 335.22,-112.36"/>
<polygon fill="black" stroke="black" points="337.47,-109.68 327.62,-105.78 332.89,-114.97 337.47,-109.68"/>
</g>
<!-- blosc&#45;hdf5&#45;plugin -->
<g id="node11" class="node">
<title>blosc&#45;hdf5&#45;plugin</title>
<g id="a_node11"><a xlink:href="https://github.com/conda-forge/blosc-hdf5-plugin-feedstock" xlink:title="blosc hdf5 plugin">
<ellipse fill="#fde725" stroke="black" cx="498.5" cy="-90" rx="93.68" ry="18"/>
<text text-anchor="middle" x="498.5" y="-86.3" font-family="Times,serif" font-size="14.00">blosc hdf5 plugin</text>
</a>
</g>
</g>
<!-- h5py&#45;&gt;blosc&#45;hdf5&#45;plugin -->
<g id="edge11" class="edge">
<title>h5py&#45;&gt;blosc&#45;hdf5&#45;plugin</title>
<path fill="none" stroke="black" d="M819.84,-448.75C741.94,-446.33 542.5,-428.3 542.5,-307 542.5,-307 542.5,-307 542.5,-233 542.5,-190.98 524.7,-144.98 511.75,-117.05"/>
<polygon fill="black" stroke="black" points="514.87,-115.47 507.4,-107.96 508.56,-118.49 514.87,-115.47"/>
</g>
<!-- isce2 -->
<g id="node12" class="node">
<title>isce2</title>
<g id="a_node12"><a xlink:href="https://github.com/conda-forge/isce2-feedstock" xlink:title="isce2">
<ellipse fill="#fde725" stroke="black" cx="645.5" cy="-90" rx="35.19" ry="18"/>
<text text-anchor="middle" x="645.5" y="-86.3" font-family="Times,serif" font-size="14.00">isce2</text>
</a>
</g>
</g>
<!-- h5py&#45;&gt;isce2 -->
<g id="edge12" class="edge">
<title>h5py&#45;&gt;isce2</title>
<path fill="none" stroke="black" d="M820.84,-445.02C770.86,-437.72 672.97,-420.62 649.5,-396 621.59,-366.73 630.5,-347.45 630.5,-307 630.5,-307 630.5,-307 630.5,-233 630.5,-192.77 636.53,-146.49 640.94,-117.99"/>
<polygon fill="black" stroke="black" points="644.42,-118.41 642.54,-107.99 637.5,-117.31 644.42,-118.41"/>
</g>
<!-- bitshuffle -->
<g id="node13" class="node">
<title>bitshuffle</title>
<g id="a_node13"><a xlink:href="https://github.com/conda-forge/bitshuffle-feedstock" xlink:title="bitshuffle">
<ellipse fill="#fde725" stroke="black" cx="718.5" cy="-378" rx="60" ry="18"/>
<text text-anchor="middle" x="718.5" y="-374.3" font-family="Times,serif" font-size="14.00">bitshuffle</text>
</a>
</g>
</g>
<!-- h5py&#45;&gt;bitshuffle -->
<g id="edge13" class="edge">
<title>h5py&#45;&gt;bitshuffle</title>
<path fill="none" stroke="black" d="M828.41,-437.28C808.58,-426.77 779.08,-411.13 755.63,-398.69"/>
<polygon fill="black" stroke="black" points="757.13,-395.52 746.65,-393.93 753.85,-401.71 757.13,-395.52"/>
</g>
<!-- triqs -->
<g id="node14" class="node">
<title>triqs</title>
<g id="a_node14"><a xlink:href="https://github.com/conda-forge/triqs-feedstock" xlink:title="triqs">
<ellipse fill="#fde725" stroke="black" cx="806.5" cy="-162" rx="35.19" ry="18"/>
<text text-anchor="middle" x="806.5" y="-158.3" font-family="Times,serif" font-size="14.00">triqs</text>
</a>
</g>
</g>
<!-- h5py&#45;&gt;triqs -->
<g id="edge14" class="edge">
<title>h5py&#45;&gt;triqs</title>
<path fill="none" stroke="black" d="M846.67,-432.09C841.35,-408.14 831.68,-362.91 825.5,-324 818.08,-277.25 812.21,-222.45 809.05,-190.34"/>
<polygon fill="black" stroke="black" points="812.5,-189.6 808.05,-179.98 805.53,-190.27 812.5,-189.6"/>
</g>
<!-- hdf5plugin -->
<g id="node15" class="node">
<title>hdf5plugin</title>
<g id="a_node15"><a xlink:href="https://github.com/conda-forge/hdf5plugin-feedstock" xlink:title="hdf5plugin">
<ellipse fill="#fde725" stroke="black" cx="894.5" cy="-306" rx="60" ry="18"/>
<text text-anchor="middle" x="894.5" y="-302.3" font-family="Times,serif" font-size="14.00">hdf5plugin</text>
</a>
</g>
</g>
<!-- h5py&#45;&gt;hdf5plugin -->
<g id="edge15" class="edge">
<title>h5py&#45;&gt;hdf5plugin</title>
<path fill="none" stroke="black" d="M855.72,-432.15C863.22,-407.94 877.13,-363.05 886.09,-334.13"/>
<polygon fill="black" stroke="black" points="889.53,-334.86 889.15,-324.27 882.85,-332.78 889.53,-334.86"/>
</g>
<!-- prismatic_split -->
<g id="node16" class="node">
<title>prismatic_split</title>
<g id="a_node16"><a xlink:href="https://github.com/conda-forge/prismatic_split-feedstock" xlink:title="prismatic_split">
<ellipse fill="#fde725" stroke="black" cx="982.5" cy="-234" rx="84" ry="18"/>
<text text-anchor="middle" x="982.5" y="-230.3" font-family="Times,serif" font-size="14.00">prismatic_split</text>
</a>
</g>
</g>
<!-- h5py&#45;&gt;prismatic_split -->
<g id="edge16" class="edge">
<title>h5py&#45;&gt;prismatic_split</title>
<path fill="none" stroke="black" d="M868.13,-434.89C893.4,-413.64 939.53,-370.88 963.5,-324 973.36,-304.71 978.11,-280.56 980.39,-262.28"/>
<polygon fill="black" stroke="black" points="983.88,-262.6 981.47,-252.28 976.92,-261.85 983.88,-262.6"/>
</g>
<!-- digital_rf -->
<g id="node17" class="node">
<title>digital_rf</title>
<g id="a_node17"><a xlink:href="https://github.com/conda-forge/digital_rf-feedstock" xlink:title="digital_rf">
<ellipse fill="#fde725" stroke="black" cx="1054.5" cy="-162" rx="60" ry="18"/>
<text text-anchor="middle" x="1054.5" y="-158.3" font-family="Times,serif" font-size="14.00">digital_rf</text>
</a>
</g>
</g>
<!-- h5py&#45;&gt;digital_rf -->
<g id="edge17" class="edge">
<title>h5py&#45;&gt;digital_rf</title>
<path fill="none" stroke="black" d="M873.69,-438.14C923.12,-413.46 1037.42,-347.77 1075.5,-252 1083.62,-231.59 1076.82,-207.24 1068.87,-189.17"/>
<polygon fill="black" stroke="black" points="1071.88,-187.36 1064.41,-179.85 1065.56,-190.38 1071.88,-187.36"/>
</g>
<!-- pp&#45;sketchlib -->
<g id="node18" class="node">
<title>pp&#45;sketchlib</title>
<g id="a_node18"><a xlink:href="https://github.com/conda-forge/pp-sketchlib-feedstock" xlink:title="pp sketchlib">
<ellipse fill="#fde725" stroke="black" cx="1106.5" cy="-90" rx="69.59" ry="18"/>
<text text-anchor="middle" x="1106.5" y="-86.3" font-family="Times,serif" font-size="14.00">pp sketchlib</text>
</a>
</g>
</g>
<!-- h5py&#45;&gt;pp&#45;sketchlib -->
<g id="edge18" class="edge">
<title>h5py&#45;&gt;pp&#45;sketchlib</title>
<path fill="none" stroke="black" d="M877.7,-441.76C905.9,-433.47 950.55,-418.13 984.5,-396 1022.68,-371.12 1031.14,-361.17 1057.5,-324 1098.22,-266.57 1108.89,-248.87 1123.5,-180 1127.92,-159.16 1122.91,-135.46 1117.2,-117.76"/>
<polygon fill="black" stroke="black" points="1120.43,-116.39 1113.83,-108.1 1113.82,-118.7 1120.43,-116.39"/>
</g>
<!-- openmc&#45;&gt;conda&#45;forge&#45;pinning -->
<g id="edge19" class="edge">
<title>openmc&#45;&gt;conda&#45;forge&#45;pinning</title>
<path fill="none" stroke="black" d="M1307.3,-287.91C1300.68,-258.32 1289.54,-195.74 1299.5,-144 1306.37,-108.34 1323.32,-69.92 1335.58,-45.23"/>
<polygon fill="black" stroke="black" points="1338.78,-46.66 1340.18,-36.16 1332.54,-43.49 1338.78,-46.66"/>
</g>
<!-- rsgislib&#45;&gt;conda&#45;forge&#45;pinning -->
<g id="edge20" class="edge">
<title>rsgislib&#45;&gt;conda&#45;forge&#45;pinning</title>
<path fill="none" stroke="black" d="M255.22,-216.19C238.6,-183.59 208.86,-111.5 246.5,-72 280.25,-36.59 961.45,-23.95 1236.14,-20.28"/>
<polygon fill="black" stroke="black" points="1236.58,-23.78 1246.53,-20.15 1236.49,-16.78 1236.58,-23.78"/>
</g>
<!-- h5utils&#45;&gt;conda&#45;forge&#45;pinning -->
<g id="edge21" class="edge">
<title>h5utils&#45;&gt;conda&#45;forge&#45;pinning</title>
<path fill="none" stroke="black" d="M288.09,-145.67C266.27,-126.66 236.47,-94.07 257.5,-72 290.86,-36.98 963.69,-24.12 1236.28,-20.34"/>
<polygon fill="black" stroke="black" points="1236.65,-23.84 1246.6,-20.2 1236.55,-16.84 1236.65,-23.84"/>
</g>
<!-- h5utils&#45;&gt;pymeep -->
<g id="edge22" class="edge">
<title>h5utils&#45;&gt;pymeep</title>
<path fill="none" stroke="black" d="M307.5,-143.7C307.5,-135.98 307.5,-126.71 307.5,-118.11"/>
<polygon fill="black" stroke="black" points="311,-118.1 307.5,-108.1 304,-118.1 311,-118.1"/>
</g>
<!-- pymeep&#45;&gt;conda&#45;forge&#45;pinning -->
<g id="edge23" class="edge">
<title>pymeep&#45;&gt;conda&#45;forge&#45;pinning</title>
<path fill="none" stroke="black" d="M338,-78.11C345.89,-75.7 354.43,-73.44 362.5,-72 527.52,-42.53 1015.52,-27.17 1237.41,-21.55"/>
<polygon fill="black" stroke="black" points="1237.54,-25.05 1247.45,-21.3 1237.37,-18.05 1237.54,-25.05"/>
</g>
<!-- blosc&#45;hdf5&#45;plugin&#45;&gt;conda&#45;forge&#45;pinning -->
<g id="edge24" class="edge">
<title>blosc&#45;hdf5&#45;plugin&#45;&gt;conda&#45;forge&#45;pinning</title>
<path fill="none" stroke="black" d="M564.58,-77.16C576.83,-75.23 589.53,-73.41 601.5,-72 827.51,-45.4 1093.63,-30.41 1239.7,-23.59"/>
<polygon fill="black" stroke="black" points="1240.18,-27.07 1250.01,-23.11 1239.86,-20.07 1240.18,-27.07"/>
</g>
<!-- isce2&#45;&gt;conda&#45;forge&#45;pinning -->
<g id="edge25" class="edge">
<title>isce2&#45;&gt;conda&#45;forge&#45;pinning</title>
<path fill="none" stroke="black" d="M672.37,-78.31C679.46,-75.87 687.19,-73.54 694.5,-72 881.65,-32.63 1104.56,-22.09 1236.14,-19.51"/>
<polygon fill="black" stroke="black" points="1236.31,-23.01 1246.24,-19.33 1236.18,-16.01 1236.31,-23.01"/>
</g>
<!-- bitshuffle&#45;&gt;conda&#45;forge&#45;pinning -->
<g id="edge26" class="edge">
<title>bitshuffle&#45;&gt;conda&#45;forge&#45;pinning</title>
<path fill="none" stroke="black" d="M716.52,-359.98C713.61,-333.36 708.5,-280.23 708.5,-235 708.5,-235 708.5,-235 708.5,-161 708.5,-120.55 697.16,-98.75 727.5,-72 764.81,-39.09 1068.61,-26.12 1237.41,-21.42"/>
<polygon fill="black" stroke="black" points="1237.68,-24.92 1247.58,-21.14 1237.49,-17.92 1237.68,-24.92"/>
</g>
<!-- triqs&#45;&gt;conda&#45;forge&#45;pinning -->
<g id="edge27" class="edge">
<title>triqs&#45;&gt;conda&#45;forge&#45;pinning</title>
<path fill="none" stroke="black" d="M825.06,-146.72C838.79,-136.12 857.89,-121.26 874.5,-108 894.24,-92.23 895.27,-81.93 918.5,-72 975.05,-47.82 1134.59,-32.93 1242.87,-25.32"/>
<polygon fill="black" stroke="black" points="1243.12,-28.81 1252.85,-24.62 1242.63,-21.82 1243.12,-28.81"/>
</g>
<!-- triqs_cthyb -->
<g id="node19" class="node">
<title>triqs_cthyb</title>
<g id="a_node19"><a xlink:href="https://github.com/conda-forge/triqs_cthyb-feedstock" xlink:title="triqs_cthyb">
<ellipse fill="#fde725" stroke="black" cx="801.5" cy="-90" rx="64.5" ry="18"/>
<text text-anchor="middle" x="801.5" y="-86.3" font-family="Times,serif" font-size="14.00">triqs_cthyb</text>
</a>
</g>
</g>
<!-- triqs&#45;&gt;triqs_cthyb -->
<g id="edge28" class="edge">
<title>triqs&#45;&gt;triqs_cthyb</title>
<path fill="none" stroke="black" d="M805.26,-143.7C804.71,-135.98 804.05,-126.71 803.44,-118.11"/>
<polygon fill="black" stroke="black" points="806.93,-117.83 802.72,-108.1 799.94,-118.33 806.93,-117.83"/>
</g>
<!-- hdf5plugin&#45;&gt;conda&#45;forge&#45;pinning -->
<g id="edge29" class="edge">
<title>hdf5plugin&#45;&gt;conda&#45;forge&#45;pinning</title>
<path fill="none" stroke="black" d="M890.06,-287.84C886.13,-269.6 882.07,-240.11 889.5,-216 912.29,-142.01 921.88,-113.08 987.5,-72 1028.95,-46.05 1151.5,-32.15 1242.59,-25.18"/>
<polygon fill="black" stroke="black" points="1242.99,-28.66 1252.7,-24.43 1242.47,-21.68 1242.99,-28.66"/>
</g>
<!-- prismatic_split&#45;&gt;conda&#45;forge&#45;pinning -->
<g id="edge30" class="edge">
<title>prismatic_split&#45;&gt;conda&#45;forge&#45;pinning</title>
<path fill="none" stroke="black" d="M979.88,-215.76C975.82,-181.71 972.53,-106.2 1016.5,-72 1050.97,-45.19 1158.35,-31.63 1241.96,-24.98"/>
<polygon fill="black" stroke="black" points="1242.33,-28.46 1252.03,-24.2 1241.79,-21.48 1242.33,-28.46"/>
</g>
<!-- digital_rf&#45;&gt;conda&#45;forge&#45;pinning -->
<g id="edge31" class="edge">
<title>digital_rf&#45;&gt;conda&#45;forge&#45;pinning</title>
<path fill="none" stroke="black" d="M1041.15,-144.36C1027.26,-124.93 1009.84,-92.8 1027.5,-72 1054.38,-40.33 1156.11,-27.55 1238.13,-22.42"/>
<polygon fill="black" stroke="black" points="1238.5,-25.9 1248.28,-21.81 1238.09,-18.91 1238.5,-25.9"/>
</g>
<!-- pp&#45;sketchlib&#45;&gt;conda&#45;forge&#45;pinning -->
<g id="edge32" class="edge">
<title>pp&#45;sketchlib&#45;&gt;conda&#45;forge&#45;pinning</title>
<path fill="none" stroke="black" d="M1151.07,-76.16C1189.71,-65.03 1245.99,-48.82 1288.75,-36.5"/>
<polygon fill="black" stroke="black" points="1289.84,-39.83 1298.49,-33.7 1287.91,-33.1 1289.84,-39.83"/>
</g>
<!-- triqs_cthyb&#45;&gt;conda&#45;forge&#45;pinning -->
<g id="edge57" class="edge">
<title>triqs_cthyb&#45;&gt;conda&#45;forge&#45;pinning</title>
<path fill="none" stroke="black" d="M849.4,-77.89C859.63,-75.75 870.39,-73.65 880.5,-72 1006.51,-51.37 1152.88,-36.22 1248.14,-27.52"/>
<polygon fill="black" stroke="black" points="1248.7,-30.98 1258.35,-26.6 1248.07,-24.01 1248.7,-30.98"/>
</g>
<!-- hdfeos5 -->
<g id="node20" class="node">
<title>hdfeos5</title>
<g id="a_node20"><a xlink:href="https://github.com/conda-forge/hdfeos5-feedstock/pull/27" xlink:title="hdfeos5">
<ellipse fill="#31688e" stroke="black" cx="1390.5" cy="-234" rx="45" ry="18"/>
<text text-anchor="middle" x="1390.5" y="-230.3" font-family="Times,serif" font-size="14.00" fill="white">hdfeos5</text>
</a>
</g>
</g>
<!-- hdfeos5&#45;&gt;conda&#45;forge&#45;pinning -->
<g id="edge33" class="edge">
<title>hdfeos5&#45;&gt;conda&#45;forge&#45;pinning</title>
<path fill="none" stroke="black" d="M1401.29,-216.02C1419.18,-185.53 1450.64,-120.18 1425.5,-72 1418.73,-59.03 1407.19,-48.59 1395.11,-40.52"/>
<polygon fill="black" stroke="black" points="1396.62,-37.34 1386.28,-35.05 1392.94,-43.29 1396.62,-37.34"/>
</g>
<!-- ncl -->
<g id="node21" class="node">
<title>ncl</title>
<g id="a_node21"><a xlink:href="https://github.com/conda-forge/ncl-feedstock" xlink:title="ncl">
<ellipse fill="#fde725" stroke="black" cx="1335.5" cy="-162" rx="27" ry="18"/>
<text text-anchor="middle" x="1335.5" y="-158.3" font-family="Times,serif" font-size="14.00">ncl</text>
</a>
</g>
</g>
<!-- hdfeos5&#45;&gt;ncl -->
<g id="edge34" class="edge">
<title>hdfeos5&#45;&gt;ncl</title>
<path fill="none" stroke="black" d="M1377.47,-216.41C1370.49,-207.53 1361.77,-196.44 1354.1,-186.67"/>
<polygon fill="black" stroke="black" points="1356.62,-184.21 1347.69,-178.51 1351.11,-188.54 1356.62,-184.21"/>
</g>
<!-- pynio -->
<g id="node22" class="node">
<title>pynio</title>
<g id="a_node22"><a xlink:href="https://github.com/conda-forge/pynio-feedstock" xlink:title="pynio">
<ellipse fill="#fde725" stroke="black" cx="1381.5" cy="-90" rx="35.19" ry="18"/>
<text text-anchor="middle" x="1381.5" y="-86.3" font-family="Times,serif" font-size="14.00">pynio</text>
</a>
</g>
</g>
<!-- hdfeos5&#45;&gt;pynio -->
<g id="edge35" class="edge">
<title>hdfeos5&#45;&gt;pynio</title>
<path fill="none" stroke="black" d="M1389.41,-215.87C1387.88,-191.67 1385.06,-147.21 1383.24,-118.39"/>
<polygon fill="black" stroke="black" points="1386.72,-117.95 1382.59,-108.19 1379.73,-118.39 1386.72,-117.95"/>
</g>
<!-- ncl&#45;&gt;conda&#45;forge&#45;pinning -->
<g id="edge36" class="edge">
<title>ncl&#45;&gt;conda&#45;forge&#45;pinning</title>
<path fill="none" stroke="black" d="M1334.87,-143.86C1334.45,-125.89 1334.44,-96.85 1337.5,-72 1338.55,-63.44 1340.39,-54.24 1342.3,-45.94"/>
<polygon fill="black" stroke="black" points="1345.75,-46.58 1344.73,-36.03 1338.95,-44.91 1345.75,-46.58"/>
</g>
<!-- pynio&#45;&gt;conda&#45;forge&#45;pinning -->
<g id="edge37" class="edge">
<title>pynio&#45;&gt;conda&#45;forge&#45;pinning</title>
<path fill="none" stroke="black" d="M1373.92,-72.41C1370.19,-64.25 1365.6,-54.22 1361.42,-45.07"/>
<polygon fill="black" stroke="black" points="1364.59,-43.6 1357.25,-35.96 1358.23,-46.51 1364.59,-43.6"/>
</g>
<!-- hyperion&#45;fortran -->
<g id="node23" class="node">
<title>hyperion&#45;fortran</title>
<g id="a_node23"><a xlink:href="https://github.com/conda-forge/hyperion-fortran-feedstock/pull/18" xlink:title="hyperion fortran">
<ellipse fill="#31688e" stroke="black" cx="1459.5" cy="-306" rx="89.08" ry="18"/>
<text text-anchor="middle" x="1459.5" y="-302.3" font-family="Times,serif" font-size="14.00" fill="white">hyperion fortran</text>
</a>
</g>
</g>
<!-- hyperion&#45;fortran&#45;&gt;conda&#45;forge&#45;pinning -->
<g id="edge38" class="edge">
<title>hyperion&#45;fortran&#45;&gt;conda&#45;forge&#45;pinning</title>
<path fill="none" stroke="black" d="M1463.55,-287.82C1472.2,-246.8 1488.32,-141.41 1444.5,-72 1435.4,-57.58 1420.91,-46.75 1405.95,-38.75"/>
<polygon fill="black" stroke="black" points="1407.14,-35.44 1396.63,-34.14 1404.04,-41.71 1407.14,-35.44"/>
</g>
<!-- octave -->
<g id="node24" class="node">
<title>octave</title>
<g id="a_node24"><a xlink:href="https://github.com/conda-forge/octave-feedstock/pull/39" xlink:title="octave">
<ellipse fill="#31688e" stroke="black" cx="1576.5" cy="-378" rx="40.5" ry="18"/>
<text text-anchor="middle" x="1576.5" y="-374.3" font-family="Times,serif" font-size="14.00" fill="white">octave</text>
</a>
</g>
</g>
<!-- octave&#45;&gt;conda&#45;forge&#45;pinning -->
<g id="edge39" class="edge">
<title>octave&#45;&gt;conda&#45;forge&#45;pinning</title>
<path fill="none" stroke="black" d="M1575.25,-359.92C1570.64,-309.09 1550.24,-157.04 1467.5,-72 1452.49,-56.58 1432.19,-45.27 1412.66,-37.17"/>
<polygon fill="black" stroke="black" points="1413.74,-33.84 1403.15,-33.44 1411.19,-40.35 1413.74,-33.84"/>
</g>
<!-- pyne -->
<g id="node25" class="node">
<title>pyne</title>
<g id="a_node25"><a xlink:href="https://github.com/conda-forge/pyne-feedstock/pull/40" xlink:title="pyne">
<ellipse fill="#31688e" stroke="black" cx="1579.5" cy="-90" rx="30.59" ry="18"/>
<text text-anchor="middle" x="1579.5" y="-86.3" font-family="Times,serif" font-size="14.00" fill="white">pyne</text>
</a>
</g>
</g>
<!-- pyne&#45;&gt;conda&#45;forge&#45;pinning -->
<g id="edge40" class="edge">
<title>pyne&#45;&gt;conda&#45;forge&#45;pinning</title>
<path fill="none" stroke="black" d="M1554.87,-79.28C1548.29,-76.8 1541.16,-74.21 1534.5,-72 1494.79,-58.83 1449.66,-45.87 1413.92,-36.05"/>
<polygon fill="black" stroke="black" points="1414.67,-32.63 1404.1,-33.37 1412.82,-39.38 1414.67,-32.63"/>
</g>
<!-- r&#45;hdf5r -->
<g id="node26" class="node">
<title>r&#45;hdf5r</title>
<g id="a_node26"><a xlink:href="https://github.com/conda-forge/r-hdf5r-feedstock/pull/12" xlink:title="r hdf5r">
<ellipse fill="#31688e" stroke="black" cx="1603.5" cy="-162" rx="45" ry="18"/>
<text text-anchor="middle" x="1603.5" y="-158.3" font-family="Times,serif" font-size="14.00" fill="white">r hdf5r</text>
</a>
</g>
</g>
<!-- r&#45;hdf5r&#45;&gt;conda&#45;forge&#45;pinning -->
<g id="edge41" class="edge">
<title>r&#45;hdf5r&#45;&gt;conda&#45;forge&#45;pinning</title>
<path fill="none" stroke="black" d="M1613.63,-144.25C1623.98,-124.71 1636.36,-92.49 1619.5,-72 1598.5,-46.47 1521.29,-33.06 1454.79,-26.12"/>
<polygon fill="black" stroke="black" points="1454.94,-22.62 1444.65,-25.1 1454.25,-29.58 1454.94,-22.62"/>
</g>
<!-- r&#45;ncdf4 -->
<g id="node27" class="node">
<title>r&#45;ncdf4</title>
<g id="a_node27"><a xlink:href="https://github.com/conda-forge/r-ncdf4-feedstock/pull/20" xlink:title="r ncdf4">
<ellipse fill="#31688e" stroke="black" cx="1641.5" cy="-234" rx="45" ry="18"/>
<text text-anchor="middle" x="1641.5" y="-230.3" font-family="Times,serif" font-size="14.00" fill="white">r ncdf4</text>
</a>
</g>
</g>
<!-- r&#45;ncdf4&#45;&gt;conda&#45;forge&#45;pinning -->
<g id="edge42" class="edge">
<title>r&#45;ncdf4&#45;&gt;conda&#45;forge&#45;pinning</title>
<path fill="none" stroke="black" d="M1647.97,-215.99C1659.4,-182.69 1678.39,-108.95 1638.5,-72 1611.83,-47.3 1525.25,-33.67 1453.76,-26.45"/>
<polygon fill="black" stroke="black" points="1454.07,-22.96 1443.78,-25.47 1453.39,-29.93 1454.07,-22.96"/>
</g>
<!-- shogun -->
<g id="node28" class="node">
<title>shogun</title>
<g id="a_node28"><a xlink:href="https://github.com/conda-forge/shogun-feedstock/pull/20" xlink:title="shogun">
<ellipse fill="#31688e" stroke="black" cx="1683.5" cy="-306" rx="40.5" ry="18"/>
<text text-anchor="middle" x="1683.5" y="-302.3" font-family="Times,serif" font-size="14.00" fill="white">shogun</text>
</a>
</g>
</g>
<!-- shogun&#45;&gt;conda&#45;forge&#45;pinning -->
<g id="edge43" class="edge">
<title>shogun&#45;&gt;conda&#45;forge&#45;pinning</title>
<path fill="none" stroke="black" d="M1688.53,-288.08C1700.25,-244.81 1723.99,-129.46 1663.5,-72 1634.28,-44.25 1536.54,-30.92 1457.77,-24.58"/>
<polygon fill="black" stroke="black" points="1458.02,-21.09 1447.78,-23.81 1457.48,-28.07 1458.02,-21.09"/>
</g>
<!-- vigra -->
<g id="node29" class="node">
<title>vigra</title>
<g id="a_node29"><a xlink:href="https://github.com/conda-forge/vigra-feedstock/pull/54" xlink:title="vigra">
<ellipse fill="#31688e" stroke="black" cx="1752.5" cy="-378" rx="35.19" ry="18"/>
<text text-anchor="middle" x="1752.5" y="-374.3" font-family="Times,serif" font-size="14.00" fill="white">vigra</text>
</a>
</g>
</g>
<!-- vigra&#45;&gt;conda&#45;forge&#45;pinning -->
<g id="edge44" class="edge">
<title>vigra&#45;&gt;conda&#45;forge&#45;pinning</title>
<path fill="none" stroke="black" d="M1752.5,-359.95C1752.5,-333.29 1752.5,-280.11 1752.5,-235 1752.5,-235 1752.5,-235 1752.5,-161 1752.5,-112.79 1731.39,-97.54 1690.5,-72 1652.01,-47.96 1539.65,-33.81 1454.33,-26.27"/>
<polygon fill="black" stroke="black" points="1454.59,-22.78 1444.33,-25.4 1453.99,-29.75 1454.59,-22.78"/>
</g>
<!-- yaafe -->
<g id="node30" class="node">
<title>yaafe</title>
<g id="a_node30"><a xlink:href="https://github.com/conda-forge/yaafe-feedstock/pull/9" xlink:title="yaafe">
<ellipse fill="#31688e" stroke="black" cx="1815.5" cy="-90" rx="35.19" ry="18"/>
<text text-anchor="middle" x="1815.5" y="-86.3" font-family="Times,serif" font-size="14.00" fill="white">yaafe</text>
</a>
</g>
</g>
<!-- yaafe&#45;&gt;conda&#45;forge&#45;pinning -->
<g id="edge45" class="edge">
<title>yaafe&#45;&gt;conda&#45;forge&#45;pinning</title>
<path fill="none" stroke="black" d="M1788.32,-78.45C1781.3,-76.03 1773.69,-73.68 1766.5,-72 1661.69,-47.44 1539.22,-33.59 1454.24,-26.26"/>
<polygon fill="black" stroke="black" points="1454.32,-22.75 1444.06,-25.39 1453.73,-29.73 1454.32,-22.75"/>
</g>
<!-- alps -->
<g id="node31" class="node">
<title>alps</title>
<g id="a_node31"><a xlink:href="https://github.com/conda-forge/alps-feedstock/pull/31" xlink:title="alps">
<ellipse fill="#31688e" stroke="black" cx="1857.5" cy="-162" rx="30.59" ry="18"/>
<text text-anchor="middle" x="1857.5" y="-158.3" font-family="Times,serif" font-size="14.00" fill="white">alps</text>
</a>
</g>
</g>
<!-- alps&#45;&gt;conda&#45;forge&#45;pinning -->
<g id="edge46" class="edge">
<title>alps&#45;&gt;conda&#45;forge&#45;pinning</title>
<path fill="none" stroke="black" d="M1863.98,-144.22C1870.44,-124.36 1877.09,-91.52 1859.5,-72 1833.27,-42.9 1601.99,-28.76 1460.04,-22.77"/>
<polygon fill="black" stroke="black" points="1460.12,-19.27 1449.98,-22.35 1459.83,-26.26 1460.12,-19.27"/>
</g>
<!-- spdlib -->
<g id="node32" class="node">
<title>spdlib</title>
<g id="a_node32"><a xlink:href="https://github.com/conda-forge/spdlib-feedstock/pull/15" xlink:title="spdlib">
<ellipse fill="#31688e" stroke="black" cx="1916.5" cy="-234" rx="40.5" ry="18"/>
<text text-anchor="middle" x="1916.5" y="-230.3" font-family="Times,serif" font-size="14.00" fill="white">spdlib</text>
</a>
</g>
</g>
<!-- spdlib&#45;&gt;conda&#45;forge&#45;pinning -->
<g id="edge47" class="edge">
<title>spdlib&#45;&gt;conda&#45;forge&#45;pinning</title>
<path fill="none" stroke="black" d="M1918.43,-215.9C1921.14,-182.46 1921.7,-108.48 1879.5,-72 1848.46,-45.17 1605.69,-30.07 1459.71,-23.33"/>
<polygon fill="black" stroke="black" points="1459.52,-19.81 1449.37,-22.86 1459.2,-26.81 1459.52,-19.81"/>
</g>
<!-- mpb -->
<g id="node33" class="node">
<title>mpb</title>
<g id="a_node33"><a xlink:href="https://github.com/conda-forge/mpb-feedstock/pull/22" xlink:title="mpb">
<ellipse fill="#31688e" stroke="black" cx="435.5" cy="-162" rx="27" ry="18"/>
<text text-anchor="middle" x="435.5" y="-158.3" font-family="Times,serif" font-size="14.00" fill="white">mpb</text>
</a>
</g>
</g>
<!-- mpb&#45;&gt;conda&#45;forge&#45;pinning -->
<g id="edge48" class="edge">
<title>mpb&#45;&gt;conda&#45;forge&#45;pinning</title>
<path fill="none" stroke="black" d="M420.22,-146.7C401.6,-127.6 375.01,-93.66 395.5,-72 424.01,-41.86 990.82,-26.46 1236.99,-21.17"/>
<polygon fill="black" stroke="black" points="1237.11,-24.66 1247.04,-20.95 1236.96,-17.67 1237.11,-24.66"/>
</g>
<!-- mpb&#45;&gt;pymeep -->
<g id="edge49" class="edge">
<title>mpb&#45;&gt;pymeep</title>
<path fill="none" stroke="black" d="M415.22,-149.91C395.3,-139.02 364.57,-122.21 341.02,-109.33"/>
<polygon fill="black" stroke="black" points="342.52,-106.16 332.07,-104.43 339.16,-112.3 342.52,-106.16"/>
</g>
<!-- openpmd&#45;api -->
<g id="node34" class="node">
<title>openpmd&#45;api</title>
<g id="a_node34"><a xlink:href="https://github.com/conda-forge/openpmd-api-feedstock" xlink:title="openpmd api">
<ellipse fill="#fde725" stroke="black" cx="2047.5" cy="-90" rx="64.5" ry="18"/>
<text text-anchor="middle" x="2047.5" y="-86.3" font-family="Times,serif" font-size="14.00">openpmd api</text>
</a>
</g>
</g>
<!-- openpmd&#45;api&#45;&gt;conda&#45;forge&#45;pinning -->
<g id="edge50" class="edge">
<title>openpmd&#45;api&#45;&gt;conda&#45;forge&#45;pinning</title>
<path fill="none" stroke="black" d="M2000.05,-77.77C1989.7,-75.61 1978.77,-73.54 1968.5,-72 1790.83,-45.39 1582.31,-30.97 1458.3,-24.14"/>
<polygon fill="black" stroke="black" points="1458.22,-20.63 1448.04,-23.58 1457.84,-27.62 1458.22,-20.63"/>
</g>
<!-- cmor -->
<g id="node35" class="node">
<title>cmor</title>
<g id="a_node35"><a xlink:href="https://github.com/conda-forge/cmor-feedstock/pull/23" xlink:title="cmor">
<ellipse fill="#31688e" stroke="black" cx="2119.5" cy="-306" rx="30.59" ry="18"/>
<text text-anchor="middle" x="2119.5" y="-302.3" font-family="Times,serif" font-size="14.00" fill="white">cmor</text>
</a>
</g>
</g>
<!-- cmor&#45;&gt;conda&#45;forge&#45;pinning -->
<g id="edge51" class="edge">
<title>cmor&#45;&gt;conda&#45;forge&#45;pinning</title>
<path fill="none" stroke="black" d="M2126.34,-288.16C2142.41,-245.56 2177.09,-132.61 2120.5,-72 2076.66,-25.04 1666.91,-18.68 1463.27,-18.46"/>
<polygon fill="black" stroke="black" points="1463.13,-14.96 1453.13,-18.45 1463.13,-21.96 1463.13,-14.96"/>
</g>
<!-- freecad -->
<g id="node36" class="node">
<title>freecad</title>
<g id="a_node36"><a xlink:href="https://github.com/conda-forge/freecad-feedstock/pull/38" xlink:title="freecad">
<ellipse fill="#31688e" stroke="black" cx="2178.5" cy="-378" rx="45" ry="18"/>
<text text-anchor="middle" x="2178.5" y="-374.3" font-family="Times,serif" font-size="14.00" fill="white">freecad</text>
</a>
</g>
</g>
<!-- freecad&#45;&gt;conda&#45;forge&#45;pinning -->
<g id="edge52" class="edge">
<title>freecad&#45;&gt;conda&#45;forge&#45;pinning</title>
<path fill="none" stroke="black" d="M2178.5,-359.95C2178.5,-333.29 2178.5,-280.11 2178.5,-235 2178.5,-235 2178.5,-235 2178.5,-161 2178.5,-118.81 2179.31,-97.23 2145.5,-72 2092.15,-32.19 1669.99,-22.28 1463.06,-19.82"/>
<polygon fill="black" stroke="black" points="1462.81,-16.31 1452.77,-19.7 1462.73,-23.31 1462.81,-16.31"/>
</g>
<!-- scilab -->
<g id="node37" class="node">
<title>scilab</title>
<g id="a_node37"><a xlink:href="https://github.com/conda-forge/scilab-feedstock/pull/12" xlink:title="scilab">
<ellipse fill="#31688e" stroke="black" cx="2247.5" cy="-90" rx="40.5" ry="18"/>
<text text-anchor="middle" x="2247.5" y="-86.3" font-family="Times,serif" font-size="14.00" fill="white">scilab</text>
</a>
</g>
</g>
<!-- scilab&#45;&gt;conda&#45;forge&#45;pinning -->
<g id="edge53" class="edge">
<title>scilab&#45;&gt;conda&#45;forge&#45;pinning</title>
<path fill="none" stroke="black" d="M2216.99,-78.16C2209.1,-75.75 2200.56,-73.48 2192.5,-72 2055.16,-46.83 1655.64,-29.78 1460.03,-22.69"/>
<polygon fill="black" stroke="black" points="1460.13,-19.2 1450.01,-22.33 1459.88,-26.19 1460.13,-19.2"/>
</g>
<!-- adios2 -->
<g id="node38" class="node">
<title>adios2</title>
<g id="a_node38"><a xlink:href="https://github.com/conda-forge/adios2-feedstock/pull/11" xlink:title="adios2">
<ellipse fill="#31688e" stroke="black" cx="2016.5" cy="-162" rx="40.5" ry="18"/>
<text text-anchor="middle" x="2016.5" y="-158.3" font-family="Times,serif" font-size="14.00" fill="white">adios2</text>
</a>
</g>
</g>
<!-- adios2&#45;&gt;conda&#45;forge&#45;pinning -->
<g id="edge54" class="edge">
<title>adios2&#45;&gt;conda&#45;forge&#45;pinning</title>
<path fill="none" stroke="black" d="M2003.2,-144.72C1983.77,-121.41 1948.04,-80.4 1930.5,-72 1850.49,-33.67 1607.95,-22.98 1462.76,-20.05"/>
<polygon fill="black" stroke="black" points="1462.54,-16.55 1452.48,-19.85 1462.41,-23.55 1462.54,-16.55"/>
</g>
<!-- adios2&#45;&gt;openpmd&#45;api -->
<g id="edge55" class="edge">
<title>adios2&#45;&gt;openpmd&#45;api</title>
<path fill="none" stroke="black" d="M2024,-144.05C2027.53,-136.09 2031.82,-126.41 2035.76,-117.51"/>
<polygon fill="black" stroke="black" points="2039,-118.84 2039.85,-108.28 2032.6,-116 2039,-118.84"/>
</g>
<!-- bonsu -->
<g id="node39" class="node">
<title>bonsu</title>
<g id="a_node39"><a xlink:href="https://github.com/conda-forge/bonsu-feedstock/pull/5" xlink:title="bonsu">
<ellipse fill="#31688e" stroke="black" cx="2303.5" cy="-162" rx="35.19" ry="18"/>
<text text-anchor="middle" x="2303.5" y="-158.3" font-family="Times,serif" font-size="14.00" fill="white">bonsu</text>
</a>
</g>
</g>
<!-- bonsu&#45;&gt;conda&#45;forge&#45;pinning -->
<g id="edge56" class="edge">
<title>bonsu&#45;&gt;conda&#45;forge&#45;pinning</title>
<path fill="none" stroke="black" d="M2308.04,-143.85C2312.25,-123.62 2315.34,-90.42 2296.5,-72 2267.08,-43.24 1706.3,-27.08 1461.84,-21.38"/>
<polygon fill="black" stroke="black" points="1461.58,-17.87 1451.5,-21.14 1461.42,-24.87 1461.58,-17.87"/>
</g>
<!-- dagmc -->
<g id="node40" class="node">
<title>dagmc</title>
<g id="a_node40"><a xlink:href="https://github.com/conda-forge/dagmc-feedstock/pull/1" xlink:title="dagmc">
<ellipse fill="#31688e" stroke="black" cx="2366.5" cy="-234" rx="35.19" ry="18"/>
<text text-anchor="middle" x="2366.5" y="-230.3" font-family="Times,serif" font-size="14.00" fill="white">dagmc</text>
</a>
</g>
</g>
<!-- dagmc&#45;&gt;conda&#45;forge&#45;pinning -->
<g id="edge58" class="edge">
<title>dagmc&#45;&gt;conda&#45;forge&#45;pinning</title>
<path fill="none" stroke="black" d="M2367.49,-215.84C2368.41,-181.58 2364.87,-105.19 2318.5,-72 2250.46,-23.3 1704.56,-18.27 1463.37,-18.46"/>
<polygon fill="black" stroke="black" points="1463.17,-14.96 1453.17,-18.47 1463.17,-21.96 1463.17,-14.96"/>
</g>
<!-- nccmp -->
<g id="node41" class="node">
<title>nccmp</title>
<g id="a_node41"><a xlink:href="https://github.com/conda-forge/nccmp-feedstock/pull/2" xlink:title="nccmp">
<ellipse fill="#31688e" stroke="black" cx="2429.5" cy="-306" rx="35.19" ry="18"/>
<text text-anchor="middle" x="2429.5" y="-302.3" font-family="Times,serif" font-size="14.00" fill="white">nccmp</text>
</a>
</g>
</g>
<!-- nccmp&#45;&gt;conda&#45;forge&#45;pinning -->
<g id="edge59" class="edge">
<title>nccmp&#45;&gt;conda&#45;forge&#45;pinning</title>
<path fill="none" stroke="black" d="M2429.65,-287.89C2429.01,-243.1 2420.3,-122.42 2347.5,-72 2276.32,-22.7 1709.39,-18.06 1463.08,-18.41"/>
<polygon fill="black" stroke="black" points="1463.02,-14.91 1453.03,-18.42 1463.03,-21.91 1463.02,-14.91"/>
</g>
</g>
</svg>
