<?xml version="1.0" encoding="UTF-8" standalone="no"?>
<!DOCTYPE svg PUBLIC "-//W3C//DTD SVG 1.1//EN"
 "http://www.w3.org/Graphics/SVG/1.1/DTD/svg11.dtd">
<!-- Generated by graphviz version 2.42.3 (20191010.1750)
 -->
<!-- Title: %3 Pages: 1 -->
<svg width="2628pt" height="476pt"
 viewBox="0.00 0.00 2627.60 476.00" xmlns="http://www.w3.org/2000/svg" xmlns:xlink="http://www.w3.org/1999/xlink">
<g id="graph0" class="graph" transform="scale(1 1) rotate(0) translate(4 472)">
<title>%3</title>
<polygon fill="white" stroke="transparent" points="-4,4 -4,-472 2623.6,-472 2623.6,4 -4,4"/>
<!-- caffe -->
<g id="node1" class="node">
<title>caffe</title>
<g id="a_node1"><a xlink:href="https://github.com/conda-forge/caffe-feedstock" xlink:title="caffe">
<ellipse fill="#fde725" stroke="black" cx="1166.5" cy="-378" rx="35.19" ry="18"/>
<text text-anchor="middle" x="1166.5" y="-374.3" font-family="Times,serif" font-size="14.00">caffe</text>
</a>
</g>
</g>
<!-- conda&#45;forge&#45;pinning -->
<g id="node2" class="node">
<title>conda&#45;forge&#45;pinning</title>
<ellipse fill="none" stroke="black" cx="1419.5" cy="-18" rx="103.5" ry="18"/>
<text text-anchor="middle" x="1419.5" y="-14.3" font-family="Times,serif" font-size="14.00">conda&#45;forge&#45;pinning</text>
</g>
<!-- caffe&#45;&gt;conda&#45;forge&#45;pinning -->
<g id="edge1" class="edge">
<title>caffe&#45;&gt;conda&#45;forge&#45;pinning</title>
<path fill="none" stroke="black" d="M1166.5,-359.95C1166.5,-333.29 1166.5,-280.11 1166.5,-235 1166.5,-235 1166.5,-235 1166.5,-161 1166.5,-120.03 1161.01,-100.44 1190.5,-72 1210.27,-52.93 1272.57,-39.26 1327.21,-30.58"/>
<polygon fill="black" stroke="black" points="1327.96,-34.01 1337.31,-29.02 1326.89,-27.09 1327.96,-34.01"/>
</g>
<!-- cyclus -->
<g id="node3" class="node">
<title>cyclus</title>
<g id="a_node3"><a xlink:href="https://github.com/conda-forge/cyclus-feedstock/pull/56" xlink:title="cyclus">
<ellipse fill="#31688e" stroke="black" cx="40.5" cy="-90" rx="40.5" ry="18"/>
<text text-anchor="middle" x="40.5" y="-86.3" font-family="Times,serif" font-size="14.00" fill="white">cyclus</text>
</a>
</g>
</g>
<!-- cyclus&#45;&gt;conda&#45;forge&#45;pinning -->
<g id="edge2" class="edge">
<title>cyclus&#45;&gt;conda&#45;forge&#45;pinning</title>
<path fill="none" stroke="black" d="M70.99,-78.04C78.88,-75.63 87.42,-73.39 95.5,-72 326.74,-32.33 1030.06,-22.23 1306.35,-19.76"/>
<polygon fill="black" stroke="black" points="1306.43,-23.26 1316.4,-19.67 1306.37,-16.26 1306.43,-23.26"/>
</g>
<!-- fenics -->
<g id="node4" class="node">
<title>fenics</title>
<g id="a_node4"><a xlink:href="https://github.com/conda-forge/fenics-feedstock/pull/107" xlink:title="fenics">
<ellipse fill="#31688e" stroke="black" cx="93.5" cy="-162" rx="40.5" ry="18"/>
<text text-anchor="middle" x="93.5" y="-158.3" font-family="Times,serif" font-size="14.00" fill="white">fenics</text>
</a>
</g>
</g>
<!-- fenics&#45;&gt;conda&#45;forge&#45;pinning -->
<g id="edge3" class="edge">
<title>fenics&#45;&gt;conda&#45;forge&#45;pinning</title>
<path fill="none" stroke="black" d="M98.54,-144.01C105.8,-122.94 121.38,-87.87 148.5,-72 198.03,-43.01 1005.28,-26.15 1306.95,-20.84"/>
<polygon fill="black" stroke="black" points="1307.09,-24.34 1317.03,-20.66 1306.97,-17.34 1307.09,-24.34"/>
</g>
<!-- graph -->
<g id="node5" class="node">
<title>graph</title>
<g id="a_node5"><a xlink:href="https://github.com/conda-forge/graph-feedstock/pull/5" xlink:title="graph">
<ellipse fill="#31688e" stroke="black" cx="162.5" cy="-234" rx="35.19" ry="18"/>
<text text-anchor="middle" x="162.5" y="-230.3" font-family="Times,serif" font-size="14.00" fill="white">graph</text>
</a>
</g>
</g>
<!-- graph&#45;&gt;conda&#45;forge&#45;pinning -->
<g id="edge4" class="edge">
<title>graph&#45;&gt;conda&#45;forge&#45;pinning</title>
<path fill="none" stroke="black" d="M161.1,-215.94C159.37,-181.89 161.07,-105.84 206.5,-72 250.17,-39.47 1013.93,-24.92 1306.62,-20.52"/>
<polygon fill="black" stroke="black" points="1306.88,-24.02 1316.83,-20.37 1306.78,-17.02 1306.88,-24.02"/>
</g>
<!-- h5py -->
<g id="node6" class="node">
<title>h5py</title>
<g id="a_node6"><a xlink:href="https://github.com/conda-forge/h5py-feedstock/pull/72" xlink:title="h5py">
<ellipse fill="#31688e" stroke="black" cx="937.5" cy="-450" rx="30.59" ry="18"/>
<text text-anchor="middle" x="937.5" y="-446.3" font-family="Times,serif" font-size="14.00" fill="white">h5py</text>
</a>
</g>
</g>
<!-- h5py&#45;&gt;caffe -->
<g id="edge5" class="edge">
<title>h5py&#45;&gt;caffe</title>
<path fill="none" stroke="black" d="M964.46,-441.5C999.76,-431.57 1063.52,-413.3 1117.5,-396 1121.25,-394.8 1125.15,-393.51 1129.04,-392.2"/>
<polygon fill="black" stroke="black" points="1130.26,-395.48 1138.59,-388.94 1128,-388.86 1130.26,-395.48"/>
</g>
<!-- h5py&#45;&gt;conda&#45;forge&#45;pinning -->
<g id="edge6" class="edge">
<title>h5py&#45;&gt;conda&#45;forge&#45;pinning</title>
<path fill="none" stroke="black" d="M968.02,-447.78C1032.67,-444.47 1180.02,-432.97 1210.5,-396 1220.68,-383.66 1210.88,-376 1210.5,-360 1209.17,-304.4 1204.5,-290.62 1204.5,-235 1204.5,-235 1204.5,-235 1204.5,-161 1204.5,-91.26 1284.24,-53.8 1346.6,-35.16"/>
<polygon fill="black" stroke="black" points="1347.8,-38.46 1356.45,-32.33 1345.87,-31.73 1347.8,-38.46"/>
</g>
<!-- openmc -->
<g id="node7" class="node">
<title>openmc</title>
<g id="a_node7"><a xlink:href="https://github.com/conda-forge/openmc-feedstock" xlink:title="openmc">
<ellipse fill="#fde725" stroke="black" cx="1273.5" cy="-306" rx="40.5" ry="18"/>
<text text-anchor="middle" x="1273.5" y="-302.3" font-family="Times,serif" font-size="14.00">openmc</text>
</a>
</g>
</g>
<!-- h5py&#45;&gt;openmc -->
<g id="edge7" class="edge">
<title>h5py&#45;&gt;openmc</title>
<path fill="none" stroke="black" d="M967.85,-447.61C1036.77,-443.86 1202.31,-431.31 1243.5,-396 1261.34,-380.71 1268.6,-354.43 1271.54,-334.38"/>
<polygon fill="black" stroke="black" points="1275.04,-334.62 1272.74,-324.28 1268.09,-333.79 1275.04,-334.62"/>
</g>
<!-- rsgislib -->
<g id="node8" class="node">
<title>rsgislib</title>
<g id="a_node8"><a xlink:href="https://github.com/conda-forge/rsgislib-feedstock" xlink:title="rsgislib">
<ellipse fill="#fde725" stroke="black" cx="1320.5" cy="-234" rx="50.09" ry="18"/>
<text text-anchor="middle" x="1320.5" y="-230.3" font-family="Times,serif" font-size="14.00">rsgislib</text>
</a>
</g>
</g>
<!-- h5py&#45;&gt;rsgislib -->
<g id="edge8" class="edge">
<title>h5py&#45;&gt;rsgislib</title>
<path fill="none" stroke="black" d="M967.67,-447.02C1039.37,-441.87 1217.79,-426.3 1268.5,-396 1303.07,-375.34 1310.6,-362.15 1323.5,-324 1330.22,-304.14 1328.98,-280.34 1326.32,-262.36"/>
<polygon fill="black" stroke="black" points="1329.73,-261.52 1324.6,-252.25 1322.83,-262.7 1329.73,-261.52"/>
</g>
<!-- h5utils -->
<g id="node9" class="node">
<title>h5utils</title>
<g id="a_node9"><a xlink:href="https://github.com/conda-forge/h5utils-feedstock" xlink:title="h5utils">
<ellipse fill="#fde725" stroke="black" cx="235.5" cy="-162" rx="45" ry="18"/>
<text text-anchor="middle" x="235.5" y="-158.3" font-family="Times,serif" font-size="14.00">h5utils</text>
</a>
</g>
</g>
<!-- h5py&#45;&gt;h5utils -->
<g id="edge9" class="edge">
<title>h5py&#45;&gt;h5utils</title>
<path fill="none" stroke="black" d="M906.97,-448.53C785.61,-446.41 341.68,-435.94 294.5,-396 233.65,-344.49 230.77,-240.09 233.22,-190.44"/>
<polygon fill="black" stroke="black" points="236.73,-190.35 233.84,-180.16 229.74,-189.92 236.73,-190.35"/>
</g>
<!-- pymeep -->
<g id="node10" class="node">
<title>pymeep</title>
<g id="a_node10"><a xlink:href="https://github.com/conda-forge/pymeep-feedstock" xlink:title="pymeep">
<ellipse fill="#fde725" stroke="black" cx="269.5" cy="-90" rx="40.5" ry="18"/>
<text text-anchor="middle" x="269.5" y="-86.3" font-family="Times,serif" font-size="14.00">pymeep</text>
</a>
</g>
</g>
<!-- h5py&#45;&gt;pymeep -->
<g id="edge10" class="edge">
<title>h5py&#45;&gt;pymeep</title>
<path fill="none" stroke="black" d="M906.74,-448.72C780.45,-446.76 308.5,-431.12 308.5,-307 308.5,-307 308.5,-307 308.5,-233 308.5,-191.56 292.86,-145.67 281.39,-117.58"/>
<polygon fill="black" stroke="black" points="284.5,-115.93 277.39,-108.07 278.05,-118.65 284.5,-115.93"/>
</g>
<!-- blosc&#45;hdf5&#45;plugin -->
<g id="node11" class="node">
<title>blosc&#45;hdf5&#45;plugin</title>
<g id="a_node11"><a xlink:href="https://github.com/conda-forge/blosc-hdf5-plugin-feedstock" xlink:title="blosc hdf5 plugin">
<ellipse fill="#fde725" stroke="black" cx="460.5" cy="-90" rx="93.68" ry="18"/>
<text text-anchor="middle" x="460.5" y="-86.3" font-family="Times,serif" font-size="14.00">blosc hdf5 plugin</text>
</a>
</g>
</g>
<!-- h5py&#45;&gt;blosc&#45;hdf5&#45;plugin -->
<g id="edge11" class="edge">
<title>h5py&#45;&gt;blosc&#45;hdf5&#45;plugin</title>
<path fill="none" stroke="black" d="M907.31,-446.61C835.5,-440.53 656.59,-423.06 603.5,-396 553.66,-370.6 514.5,-362.94 514.5,-307 514.5,-307 514.5,-307 514.5,-233 514.5,-190.11 492.71,-144.41 476.81,-116.78"/>
<polygon fill="black" stroke="black" points="479.8,-114.95 471.69,-108.13 473.78,-118.52 479.8,-114.95"/>
</g>
<!-- isce2 -->
<g id="node12" class="node">
<title>isce2</title>
<g id="a_node12"><a xlink:href="https://github.com/conda-forge/isce2-feedstock" xlink:title="isce2">
<ellipse fill="#fde725" stroke="black" cx="607.5" cy="-90" rx="35.19" ry="18"/>
<text text-anchor="middle" x="607.5" y="-86.3" font-family="Times,serif" font-size="14.00">isce2</text>
</a>
</g>
</g>
<!-- h5py&#45;&gt;isce2 -->
<g id="edge12" class="edge">
<title>h5py&#45;&gt;isce2</title>
<path fill="none" stroke="black" d="M906.89,-448.02C836.55,-445.13 666.37,-434.25 626.5,-396 597.31,-368 607.5,-347.45 607.5,-307 607.5,-307 607.5,-307 607.5,-233 607.5,-193 607.5,-146.65 607.5,-118.08"/>
<polygon fill="black" stroke="black" points="611,-118.05 607.5,-108.05 604,-118.05 611,-118.05"/>
</g>
<!-- bitshuffle -->
<g id="node13" class="node">
<title>bitshuffle</title>
<g id="a_node13"><a xlink:href="https://github.com/conda-forge/bitshuffle-feedstock" xlink:title="bitshuffle">
<ellipse fill="#fde725" stroke="black" cx="695.5" cy="-378" rx="60" ry="18"/>
<text text-anchor="middle" x="695.5" y="-374.3" font-family="Times,serif" font-size="14.00">bitshuffle</text>
</a>
</g>
</g>
<!-- h5py&#45;&gt;bitshuffle -->
<g id="edge13" class="edge">
<title>h5py&#45;&gt;bitshuffle</title>
<path fill="none" stroke="black" d="M910.68,-441.24C871.22,-429.83 796.8,-408.3 746.68,-393.8"/>
<polygon fill="black" stroke="black" points="747.57,-390.42 736.99,-391 745.63,-397.14 747.57,-390.42"/>
</g>
<!-- triqs -->
<g id="node14" class="node">
<title>triqs</title>
<g id="a_node14"><a xlink:href="https://github.com/conda-forge/triqs-feedstock" xlink:title="triqs">
<ellipse fill="#fde725" stroke="black" cx="783.5" cy="-162" rx="35.19" ry="18"/>
<text text-anchor="middle" x="783.5" y="-158.3" font-family="Times,serif" font-size="14.00">triqs</text>
</a>
</g>
</g>
<!-- h5py&#45;&gt;triqs -->
<g id="edge14" class="edge">
<title>h5py&#45;&gt;triqs</title>
<path fill="none" stroke="black" d="M916.79,-436.69C885.97,-417.13 828.86,-375.81 802.5,-324 780.71,-281.18 779.53,-223.88 781.17,-190.45"/>
<polygon fill="black" stroke="black" points="784.68,-190.28 781.8,-180.08 777.7,-189.85 784.68,-190.28"/>
</g>
<!-- hdf5plugin -->
<g id="node15" class="node">
<title>hdf5plugin</title>
<g id="a_node15"><a xlink:href="https://github.com/conda-forge/hdf5plugin-feedstock" xlink:title="hdf5plugin">
<ellipse fill="#fde725" stroke="black" cx="871.5" cy="-306" rx="60" ry="18"/>
<text text-anchor="middle" x="871.5" y="-302.3" font-family="Times,serif" font-size="14.00">hdf5plugin</text>
</a>
</g>
</g>
<!-- h5py&#45;&gt;hdf5plugin -->
<g id="edge15" class="edge">
<title>h5py&#45;&gt;hdf5plugin</title>
<path fill="none" stroke="black" d="M929.8,-432.43C918.44,-407.98 897.07,-362 883.6,-333.02"/>
<polygon fill="black" stroke="black" points="886.74,-331.49 879.36,-323.9 880.4,-334.45 886.74,-331.49"/>
</g>
<!-- prismatic_split -->
<g id="node16" class="node">
<title>prismatic_split</title>
<g id="a_node16"><a xlink:href="https://github.com/conda-forge/prismatic_split-feedstock" xlink:title="prismatic_split">
<ellipse fill="#fde725" stroke="black" cx="955.5" cy="-234" rx="84" ry="18"/>
<text text-anchor="middle" x="955.5" y="-230.3" font-family="Times,serif" font-size="14.00">prismatic_split</text>
</a>
</g>
</g>
<!-- h5py&#45;&gt;prismatic_split -->
<g id="edge16" class="edge">
<title>h5py&#45;&gt;prismatic_split</title>
<path fill="none" stroke="black" d="M938.94,-431.85C942.06,-394.83 949.43,-307.18 953.2,-262.39"/>
<polygon fill="black" stroke="black" points="956.7,-262.49 954.05,-252.23 949.72,-261.9 956.7,-262.49"/>
</g>
<!-- digital_rf -->
<g id="node17" class="node">
<title>digital_rf</title>
<g id="a_node17"><a xlink:href="https://github.com/conda-forge/digital_rf-feedstock" xlink:title="digital_rf">
<ellipse fill="#fde725" stroke="black" cx="1019.5" cy="-162" rx="60" ry="18"/>
<text text-anchor="middle" x="1019.5" y="-158.3" font-family="Times,serif" font-size="14.00">digital_rf</text>
</a>
</g>
</g>
<!-- h5py&#45;&gt;digital_rf -->
<g id="edge17" class="edge">
<title>h5py&#45;&gt;digital_rf</title>
<path fill="none" stroke="black" d="M950.09,-433.39C974.84,-401.59 1029.08,-326.05 1048.5,-252 1052.56,-236.52 1052.46,-231.5 1048.5,-216 1046.06,-206.45 1041.5,-196.76 1036.71,-188.33"/>
<polygon fill="black" stroke="black" points="1039.68,-186.49 1031.51,-179.74 1033.69,-190.11 1039.68,-186.49"/>
</g>
<!-- pp&#45;sketchlib -->
<g id="node18" class="node">
<title>pp&#45;sketchlib</title>
<g id="a_node18"><a xlink:href="https://github.com/conda-forge/pp-sketchlib-feedstock" xlink:title="pp sketchlib">
<ellipse fill="#fde725" stroke="black" cx="1068.5" cy="-90" rx="69.59" ry="18"/>
<text text-anchor="middle" x="1068.5" y="-86.3" font-family="Times,serif" font-size="14.00">pp sketchlib</text>
</a>
</g>
</g>
<!-- h5py&#45;&gt;pp&#45;sketchlib -->
<g id="edge18" class="edge">
<title>h5py&#45;&gt;pp&#45;sketchlib</title>
<path fill="none" stroke="black" d="M957.14,-436.1C971.02,-426.29 989.41,-411.81 1002.5,-396 1025.71,-367.97 1027.13,-357.44 1041.5,-324 1074.15,-248.04 1103.34,-225.34 1088.5,-144 1086.89,-135.2 1083.9,-125.95 1080.71,-117.7"/>
<polygon fill="black" stroke="black" points="1083.85,-116.12 1076.81,-108.21 1077.38,-118.79 1083.85,-116.12"/>
</g>
<!-- openmc&#45;&gt;conda&#45;forge&#45;pinning -->
<g id="edge19" class="edge">
<title>openmc&#45;&gt;conda&#45;forge&#45;pinning</title>
<path fill="none" stroke="black" d="M1267.92,-287.85C1262.83,-269.86 1256.77,-240.81 1261.5,-216 1274.39,-148.39 1272.48,-123.19 1318.5,-72 1331.23,-57.83 1348.66,-46.83 1365.45,-38.61"/>
<polygon fill="black" stroke="black" points="1367.08,-41.72 1374.68,-34.33 1364.13,-35.37 1367.08,-41.72"/>
</g>
<!-- rsgislib&#45;&gt;conda&#45;forge&#45;pinning -->
<g id="edge20" class="edge">
<title>rsgislib&#45;&gt;conda&#45;forge&#45;pinning</title>
<path fill="none" stroke="black" d="M1317.6,-215.76C1313.26,-184.26 1308.54,-116.59 1338.5,-72 1347.34,-58.84 1360.67,-48.18 1373.97,-39.97"/>
<polygon fill="black" stroke="black" points="1375.77,-42.97 1382.66,-34.93 1372.26,-36.92 1375.77,-42.97"/>
</g>
<!-- h5utils&#45;&gt;conda&#45;forge&#45;pinning -->
<g id="edge21" class="edge">
<title>h5utils&#45;&gt;conda&#45;forge&#45;pinning</title>
<path fill="none" stroke="black" d="M225.05,-144.14C214.16,-124.2 201.05,-91.28 219.5,-72 256.7,-33.12 1014.16,-22.48 1306.12,-19.82"/>
<polygon fill="black" stroke="black" points="1306.34,-23.32 1316.31,-19.73 1306.28,-16.32 1306.34,-23.32"/>
</g>
<!-- h5utils&#45;&gt;pymeep -->
<g id="edge22" class="edge">
<title>h5utils&#45;&gt;pymeep</title>
<path fill="none" stroke="black" d="M243.73,-144.05C247.7,-135.89 252.54,-125.91 256.96,-116.82"/>
<polygon fill="black" stroke="black" points="260.12,-118.31 261.35,-107.79 253.83,-115.25 260.12,-118.31"/>
</g>
<!-- pymeep&#45;&gt;conda&#45;forge&#45;pinning -->
<g id="edge23" class="edge">
<title>pymeep&#45;&gt;conda&#45;forge&#45;pinning</title>
<path fill="none" stroke="black" d="M300,-78.08C307.88,-75.67 316.43,-73.42 324.5,-72 510.57,-39.28 1066.55,-25.43 1306.83,-20.87"/>
<polygon fill="black" stroke="black" points="1307.06,-24.36 1316.99,-20.68 1306.92,-17.36 1307.06,-24.36"/>
</g>
<!-- blosc&#45;hdf5&#45;plugin&#45;&gt;conda&#45;forge&#45;pinning -->
<g id="edge24" class="edge">
<title>blosc&#45;hdf5&#45;plugin&#45;&gt;conda&#45;forge&#45;pinning</title>
<path fill="none" stroke="black" d="M526.3,-77.12C538.63,-75.18 551.43,-73.37 563.5,-72 829.78,-41.86 1144.75,-27.9 1308.33,-22.27"/>
<polygon fill="black" stroke="black" points="1308.53,-25.77 1318.4,-21.93 1308.29,-18.77 1308.53,-25.77"/>
</g>
<!-- isce2&#45;&gt;conda&#45;forge&#45;pinning -->
<g id="edge25" class="edge">
<title>isce2&#45;&gt;conda&#45;forge&#45;pinning</title>
<path fill="none" stroke="black" d="M634.36,-78.25C641.45,-75.81 649.18,-73.5 656.5,-72 778.04,-47.15 1128.6,-30.34 1309.15,-23.07"/>
<polygon fill="black" stroke="black" points="1309.35,-26.57 1319.2,-22.67 1309.07,-19.57 1309.35,-26.57"/>
</g>
<!-- bitshuffle&#45;&gt;conda&#45;forge&#45;pinning -->
<g id="edge26" class="edge">
<title>bitshuffle&#45;&gt;conda&#45;forge&#45;pinning</title>
<path fill="none" stroke="black" d="M690.44,-359.68C683.14,-333.11 670.5,-280.56 670.5,-235 670.5,-235 670.5,-235 670.5,-161 670.5,-120.46 659.79,-98.46 690.5,-72 736.01,-32.79 1113.06,-22.59 1306.28,-19.93"/>
<polygon fill="black" stroke="black" points="1306.52,-23.43 1316.47,-19.8 1306.43,-16.43 1306.52,-23.43"/>
</g>
<!-- triqs&#45;&gt;conda&#45;forge&#45;pinning -->
<g id="edge27" class="edge">
<title>triqs&#45;&gt;conda&#45;forge&#45;pinning</title>
<path fill="none" stroke="black" d="M799.11,-145.65C823.99,-121.35 870.8,-76.34 880.5,-72 954.34,-39.01 1172.31,-26.42 1307.38,-21.72"/>
<polygon fill="black" stroke="black" points="1307.89,-25.2 1317.76,-21.37 1307.65,-18.21 1307.89,-25.2"/>
</g>
<!-- triqs_cthyb -->
<g id="node19" class="node">
<title>triqs_cthyb</title>
<g id="a_node19"><a xlink:href="https://github.com/conda-forge/triqs_cthyb-feedstock" xlink:title="triqs_cthyb">
<ellipse fill="#fde725" stroke="black" cx="763.5" cy="-90" rx="64.5" ry="18"/>
<text text-anchor="middle" x="763.5" y="-86.3" font-family="Times,serif" font-size="14.00">triqs_cthyb</text>
</a>
</g>
</g>
<!-- triqs&#45;&gt;triqs_cthyb -->
<g id="edge28" class="edge">
<title>triqs&#45;&gt;triqs_cthyb</title>
<path fill="none" stroke="black" d="M778.66,-144.05C776.43,-136.26 773.73,-126.82 771.24,-118.08"/>
<polygon fill="black" stroke="black" points="774.55,-116.93 768.44,-108.28 767.82,-118.85 774.55,-116.93"/>
</g>
<!-- hdf5plugin&#45;&gt;conda&#45;forge&#45;pinning -->
<g id="edge29" class="edge">
<title>hdf5plugin&#45;&gt;conda&#45;forge&#45;pinning</title>
<path fill="none" stroke="black" d="M866.13,-287.96C861.26,-269.81 855.77,-240.4 862.5,-216 882.33,-144.14 885.83,-112.37 948.5,-72 1005.76,-35.12 1185.93,-23.77 1306.1,-20.36"/>
<polygon fill="black" stroke="black" points="1306.55,-23.85 1316.45,-20.08 1306.36,-16.85 1306.55,-23.85"/>
</g>
<!-- prismatic_split&#45;&gt;conda&#45;forge&#45;pinning -->
<g id="edge30" class="edge">
<title>prismatic_split&#45;&gt;conda&#45;forge&#45;pinning</title>
<path fill="none" stroke="black" d="M951.34,-215.98C944.17,-181.99 934.12,-106.06 977.5,-72 1026.95,-33.17 1192.1,-22.29 1305.9,-19.51"/>
<polygon fill="black" stroke="black" points="1306.14,-23.01 1316.06,-19.29 1305.98,-16.01 1306.14,-23.01"/>
</g>
<!-- digital_rf&#45;&gt;conda&#45;forge&#45;pinning -->
<g id="edge31" class="edge">
<title>digital_rf&#45;&gt;conda&#45;forge&#45;pinning</title>
<path fill="none" stroke="black" d="M1005.14,-144.3C990.17,-124.82 971.25,-92.64 989.5,-72 1010.6,-48.14 1191.98,-32.65 1312.34,-24.9"/>
<polygon fill="black" stroke="black" points="1312.58,-28.4 1322.34,-24.27 1312.14,-21.41 1312.58,-28.4"/>
</g>
<!-- pp&#45;sketchlib&#45;&gt;conda&#45;forge&#45;pinning -->
<g id="edge32" class="edge">
<title>pp&#45;sketchlib&#45;&gt;conda&#45;forge&#45;pinning</title>
<path fill="none" stroke="black" d="M1121.37,-78.27C1131.69,-76.18 1142.43,-74.02 1152.5,-72 1217.04,-59.06 1290.38,-44.52 1343.84,-33.94"/>
<polygon fill="black" stroke="black" points="1344.79,-37.32 1353.92,-31.95 1343.44,-30.45 1344.79,-37.32"/>
</g>
<!-- triqs_cthyb&#45;&gt;conda&#45;forge&#45;pinning -->
<g id="edge60" class="edge">
<title>triqs_cthyb&#45;&gt;conda&#45;forge&#45;pinning</title>
<path fill="none" stroke="black" d="M811.37,-77.73C821.6,-75.6 832.38,-73.55 842.5,-72 1005.39,-47.09 1196.06,-32.36 1312.27,-24.98"/>
<polygon fill="black" stroke="black" points="1312.83,-28.45 1322.59,-24.33 1312.39,-21.46 1312.83,-28.45"/>
</g>
<!-- hdfeos5 -->
<g id="node20" class="node">
<title>hdfeos5</title>
<g id="a_node20"><a xlink:href="https://github.com/conda-forge/hdfeos5-feedstock/pull/27" xlink:title="hdfeos5">
<ellipse fill="#31688e" stroke="black" cx="1433.5" cy="-234" rx="45" ry="18"/>
<text text-anchor="middle" x="1433.5" y="-230.3" font-family="Times,serif" font-size="14.00" fill="white">hdfeos5</text>
</a>
</g>
</g>
<!-- hdfeos5&#45;&gt;conda&#45;forge&#45;pinning -->
<g id="edge33" class="edge">
<title>hdfeos5&#45;&gt;conda&#45;forge&#45;pinning</title>
<path fill="none" stroke="black" d="M1397.96,-222.95C1376.95,-214.98 1352.07,-201.52 1339.5,-180 1314.6,-137.37 1338.83,-113.55 1365.5,-72 1372.37,-61.29 1381.78,-51.1 1390.81,-42.56"/>
<polygon fill="black" stroke="black" points="1393.2,-45.12 1398.25,-35.81 1388.5,-39.94 1393.2,-45.12"/>
</g>
<!-- ncl -->
<g id="node21" class="node">
<title>ncl</title>
<g id="a_node21"><a xlink:href="https://github.com/conda-forge/ncl-feedstock" xlink:title="ncl">
<ellipse fill="#fde725" stroke="black" cx="1375.5" cy="-162" rx="27" ry="18"/>
<text text-anchor="middle" x="1375.5" y="-158.3" font-family="Times,serif" font-size="14.00">ncl</text>
</a>
</g>
</g>
<!-- hdfeos5&#45;&gt;ncl -->
<g id="edge34" class="edge">
<title>hdfeos5&#45;&gt;ncl</title>
<path fill="none" stroke="black" d="M1420.05,-216.76C1412.52,-207.68 1403,-196.19 1394.7,-186.18"/>
<polygon fill="black" stroke="black" points="1397.16,-183.66 1388.09,-178.19 1391.77,-188.12 1397.16,-183.66"/>
</g>
<!-- pynio -->
<g id="node22" class="node">
<title>pynio</title>
<g id="a_node22"><a xlink:href="https://github.com/conda-forge/pynio-feedstock" xlink:title="pynio">
<ellipse fill="#fde725" stroke="black" cx="1419.5" cy="-90" rx="35.19" ry="18"/>
<text text-anchor="middle" x="1419.5" y="-86.3" font-family="Times,serif" font-size="14.00">pynio</text>
</a>
</g>
</g>
<!-- hdfeos5&#45;&gt;pynio -->
<g id="edge35" class="edge">
<title>hdfeos5&#45;&gt;pynio</title>
<path fill="none" stroke="black" d="M1431.81,-215.87C1429.43,-191.67 1425.04,-147.21 1422.2,-118.39"/>
<polygon fill="black" stroke="black" points="1425.66,-117.8 1421.19,-108.19 1418.69,-118.48 1425.66,-117.8"/>
</g>
<!-- ncl&#45;&gt;conda&#45;forge&#45;pinning -->
<g id="edge36" class="edge">
<title>ncl&#45;&gt;conda&#45;forge&#45;pinning</title>
<path fill="none" stroke="black" d="M1372.17,-144.01C1369.32,-125.66 1366.9,-95.83 1375.5,-72 1379.25,-61.6 1386.04,-51.8 1393.17,-43.52"/>
<polygon fill="black" stroke="black" points="1395.82,-45.81 1400.03,-36.08 1390.67,-41.06 1395.82,-45.81"/>
</g>
<!-- pynio&#45;&gt;conda&#45;forge&#45;pinning -->
<g id="edge37" class="edge">
<title>pynio&#45;&gt;conda&#45;forge&#45;pinning</title>
<path fill="none" stroke="black" d="M1419.5,-71.7C1419.5,-63.98 1419.5,-54.71 1419.5,-46.11"/>
<polygon fill="black" stroke="black" points="1423,-46.1 1419.5,-36.1 1416,-46.1 1423,-46.1"/>
</g>
<!-- hyperion&#45;fortran -->
<g id="node23" class="node">
<title>hyperion&#45;fortran</title>
<g id="a_node23"><a xlink:href="https://github.com/conda-forge/hyperion-fortran-feedstock/pull/18" xlink:title="hyperion fortran">
<ellipse fill="#31688e" stroke="black" cx="1459.5" cy="-306" rx="89.08" ry="18"/>
<text text-anchor="middle" x="1459.5" y="-302.3" font-family="Times,serif" font-size="14.00" fill="white">hyperion fortran</text>
</a>
</g>
</g>
<!-- hyperion&#45;fortran&#45;&gt;conda&#45;forge&#45;pinning -->
<g id="edge38" class="edge">
<title>hyperion&#45;fortran&#45;&gt;conda&#45;forge&#45;pinning</title>
<path fill="none" stroke="black" d="M1471.39,-287.72C1477.51,-277.76 1484.34,-264.73 1487.5,-252 1491.35,-236.47 1488.82,-231.95 1487.5,-216 1482.15,-151.34 1490.49,-131 1463.5,-72 1458.83,-61.78 1451.65,-51.92 1444.45,-43.54"/>
<polygon fill="black" stroke="black" points="1446.92,-41.05 1437.61,-35.99 1441.73,-45.75 1446.92,-41.05"/>
</g>
<!-- marray -->
<g id="node24" class="node">
<title>marray</title>
<g id="a_node24"><a xlink:href="https://github.com/conda-forge/marray-feedstock/pull/8" xlink:title="marray">
<ellipse fill="#31688e" stroke="black" cx="1576.5" cy="-378" rx="40.5" ry="18"/>
<text text-anchor="middle" x="1576.5" y="-374.3" font-family="Times,serif" font-size="14.00" fill="white">marray</text>
</a>
</g>
</g>
<!-- marray&#45;&gt;conda&#45;forge&#45;pinning -->
<g id="edge39" class="edge">
<title>marray&#45;&gt;conda&#45;forge&#45;pinning</title>
<path fill="none" stroke="black" d="M1574.93,-359.91C1569.73,-310.93 1549.42,-167.42 1483.5,-72 1475.53,-60.46 1464.38,-50.04 1453.62,-41.56"/>
<polygon fill="black" stroke="black" points="1455.62,-38.68 1445.52,-35.46 1451.41,-44.27 1455.62,-38.68"/>
</g>
<!-- octave -->
<g id="node25" class="node">
<title>octave</title>
<g id="a_node25"><a xlink:href="https://github.com/conda-forge/octave-feedstock/pull/39" xlink:title="octave">
<ellipse fill="#31688e" stroke="black" cx="1589.5" cy="-90" rx="40.5" ry="18"/>
<text text-anchor="middle" x="1589.5" y="-86.3" font-family="Times,serif" font-size="14.00" fill="white">octave</text>
</a>
</g>
</g>
<!-- octave&#45;&gt;conda&#45;forge&#45;pinning -->
<g id="edge40" class="edge">
<title>octave&#45;&gt;conda&#45;forge&#45;pinning</title>
<path fill="none" stroke="black" d="M1560.66,-77.13C1535.1,-66.6 1497.28,-51.03 1467.22,-38.65"/>
<polygon fill="black" stroke="black" points="1468.34,-35.32 1457.76,-34.75 1465.67,-41.8 1468.34,-35.32"/>
</g>
<!-- pyne -->
<g id="node26" class="node">
<title>pyne</title>
<g id="a_node26"><a xlink:href="https://github.com/conda-forge/pyne-feedstock/pull/40" xlink:title="pyne">
<ellipse fill="#31688e" stroke="black" cx="1637.5" cy="-162" rx="30.59" ry="18"/>
<text text-anchor="middle" x="1637.5" y="-158.3" font-family="Times,serif" font-size="14.00" fill="white">pyne</text>
</a>
</g>
</g>
<!-- pyne&#45;&gt;conda&#45;forge&#45;pinning -->
<g id="edge41" class="edge">
<title>pyne&#45;&gt;conda&#45;forge&#45;pinning</title>
<path fill="none" stroke="black" d="M1643.64,-144.26C1649.61,-124.73 1655.66,-92.52 1639.5,-72 1623.54,-51.74 1566.09,-38.32 1513.9,-30.06"/>
<polygon fill="black" stroke="black" points="1514.3,-26.58 1503.89,-28.52 1513.24,-33.5 1514.3,-26.58"/>
</g>
<!-- r&#45;hdf5r -->
<g id="node27" class="node">
<title>r&#45;hdf5r</title>
<g id="a_node27"><a xlink:href="https://github.com/conda-forge/r-hdf5r-feedstock/pull/12" xlink:title="r hdf5r">
<ellipse fill="#31688e" stroke="black" cx="1661.5" cy="-234" rx="45" ry="18"/>
<text text-anchor="middle" x="1661.5" y="-230.3" font-family="Times,serif" font-size="14.00" fill="white">r hdf5r</text>
</a>
</g>
</g>
<!-- r&#45;hdf5r&#45;&gt;conda&#45;forge&#45;pinning -->
<g id="edge42" class="edge">
<title>r&#45;hdf5r&#45;&gt;conda&#45;forge&#45;pinning</title>
<path fill="none" stroke="black" d="M1667.85,-216.11C1679.07,-183.04 1697.71,-109.68 1658.5,-72 1637.72,-52.03 1571.89,-38.35 1514.57,-29.89"/>
<polygon fill="black" stroke="black" points="1514.75,-26.38 1504.35,-28.43 1513.75,-33.31 1514.75,-26.38"/>
</g>
<!-- r&#45;ncdf4 -->
<g id="node28" class="node">
<title>r&#45;ncdf4</title>
<g id="a_node28"><a xlink:href="https://github.com/conda-forge/r-ncdf4-feedstock/pull/20" xlink:title="r ncdf4">
<ellipse fill="#31688e" stroke="black" cx="1699.5" cy="-306" rx="45" ry="18"/>
<text text-anchor="middle" x="1699.5" y="-302.3" font-family="Times,serif" font-size="14.00" fill="white">r ncdf4</text>
</a>
</g>
</g>
<!-- r&#45;ncdf4&#45;&gt;conda&#45;forge&#45;pinning -->
<g id="edge43" class="edge">
<title>r&#45;ncdf4&#45;&gt;conda&#45;forge&#45;pinning</title>
<path fill="none" stroke="black" d="M1705.99,-288.1C1709.58,-277.84 1713.67,-264.36 1715.5,-252 1727.38,-171.54 1740.77,-128.75 1682.5,-72 1659.38,-49.48 1584.22,-35.81 1520.13,-28.01"/>
<polygon fill="black" stroke="black" points="1520.29,-24.5 1509.95,-26.81 1519.47,-31.46 1520.29,-24.5"/>
</g>
<!-- shogun -->
<g id="node29" class="node">
<title>shogun</title>
<g id="a_node29"><a xlink:href="https://github.com/conda-forge/shogun-feedstock/pull/20" xlink:title="shogun">
<ellipse fill="#31688e" stroke="black" cx="1772.5" cy="-378" rx="40.5" ry="18"/>
<text text-anchor="middle" x="1772.5" y="-374.3" font-family="Times,serif" font-size="14.00" fill="white">shogun</text>
</a>
</g>
</g>
<!-- shogun&#45;&gt;conda&#45;forge&#45;pinning -->
<g id="edge44" class="edge">
<title>shogun&#45;&gt;conda&#45;forge&#45;pinning</title>
<path fill="none" stroke="black" d="M1772.5,-359.95C1772.5,-333.29 1772.5,-280.11 1772.5,-235 1772.5,-235 1772.5,-235 1772.5,-161 1772.5,-112.79 1751.05,-98.06 1710.5,-72 1678.99,-51.75 1588.89,-37.37 1517.21,-28.74"/>
<polygon fill="black" stroke="black" points="1517.57,-25.26 1507.22,-27.56 1516.75,-32.21 1517.57,-25.26"/>
</g>
<!-- vigra -->
<g id="node30" class="node">
<title>vigra</title>
<g id="a_node30"><a xlink:href="https://github.com/conda-forge/vigra-feedstock/pull/54" xlink:title="vigra">
<ellipse fill="#31688e" stroke="black" cx="1835.5" cy="-90" rx="35.19" ry="18"/>
<text text-anchor="middle" x="1835.5" y="-86.3" font-family="Times,serif" font-size="14.00" fill="white">vigra</text>
</a>
</g>
</g>
<!-- vigra&#45;&gt;conda&#45;forge&#45;pinning -->
<g id="edge45" class="edge">
<title>vigra&#45;&gt;conda&#45;forge&#45;pinning</title>
<path fill="none" stroke="black" d="M1808.3,-78.53C1801.28,-76.12 1793.67,-73.75 1786.5,-72 1697.34,-50.3 1593.68,-36.34 1519.32,-28.22"/>
<polygon fill="black" stroke="black" points="1519.34,-24.7 1509.02,-27.11 1518.59,-31.66 1519.34,-24.7"/>
</g>
<!-- yaafe -->
<g id="node31" class="node">
<title>yaafe</title>
<g id="a_node31"><a xlink:href="https://github.com/conda-forge/yaafe-feedstock/pull/9" xlink:title="yaafe">
<ellipse fill="#31688e" stroke="black" cx="1873.5" cy="-162" rx="35.19" ry="18"/>
<text text-anchor="middle" x="1873.5" y="-158.3" font-family="Times,serif" font-size="14.00" fill="white">yaafe</text>
</a>
</g>
</g>
<!-- yaafe&#45;&gt;conda&#45;forge&#45;pinning -->
<g id="edge46" class="edge">
<title>yaafe&#45;&gt;conda&#45;forge&#45;pinning</title>
<path fill="none" stroke="black" d="M1881.01,-144.27C1888.62,-124.45 1897.02,-91.65 1879.5,-72 1856.52,-46.22 1657.11,-31.17 1528.49,-24.06"/>
<polygon fill="black" stroke="black" points="1528.38,-20.55 1518.2,-23.5 1528,-27.54 1528.38,-20.55"/>
</g>
<!-- alps -->
<g id="node32" class="node">
<title>alps</title>
<g id="a_node32"><a xlink:href="https://github.com/conda-forge/alps-feedstock/pull/31" xlink:title="alps">
<ellipse fill="#31688e" stroke="black" cx="1915.5" cy="-234" rx="30.59" ry="18"/>
<text text-anchor="middle" x="1915.5" y="-230.3" font-family="Times,serif" font-size="14.00" fill="white">alps</text>
</a>
</g>
</g>
<!-- alps&#45;&gt;conda&#45;forge&#45;pinning -->
<g id="edge47" class="edge">
<title>alps&#45;&gt;conda&#45;forge&#45;pinning</title>
<path fill="none" stroke="black" d="M1920.14,-216.03C1928.15,-182.47 1940.01,-107.79 1898.5,-72 1870.98,-48.27 1660.22,-32.34 1527.6,-24.55"/>
<polygon fill="black" stroke="black" points="1527.58,-21.05 1517.4,-23.96 1527.18,-28.03 1527.58,-21.05"/>
</g>
<!-- spdlib -->
<g id="node33" class="node">
<title>spdlib</title>
<g id="a_node33"><a xlink:href="https://github.com/conda-forge/spdlib-feedstock/pull/15" xlink:title="spdlib">
<ellipse fill="#31688e" stroke="black" cx="1974.5" cy="-306" rx="40.5" ry="18"/>
<text text-anchor="middle" x="1974.5" y="-302.3" font-family="Times,serif" font-size="14.00" fill="white">spdlib</text>
</a>
</g>
</g>
<!-- spdlib&#45;&gt;conda&#45;forge&#45;pinning -->
<g id="edge48" class="edge">
<title>spdlib&#45;&gt;conda&#45;forge&#45;pinning</title>
<path fill="none" stroke="black" d="M1976.79,-287.94C1981.56,-244.33 1987.37,-128.23 1923.5,-72 1894.51,-46.48 1668.14,-31.03 1528.82,-23.85"/>
<polygon fill="black" stroke="black" points="1528.69,-20.34 1518.53,-23.32 1528.34,-27.33 1528.69,-20.34"/>
</g>
<!-- mpb -->
<g id="node34" class="node">
<title>mpb</title>
<g id="a_node34"><a xlink:href="https://github.com/conda-forge/mpb-feedstock/pull/22" xlink:title="mpb">
<ellipse fill="#31688e" stroke="black" cx="363.5" cy="-162" rx="27" ry="18"/>
<text text-anchor="middle" x="363.5" y="-158.3" font-family="Times,serif" font-size="14.00" fill="white">mpb</text>
</a>
</g>
</g>
<!-- mpb&#45;&gt;conda&#45;forge&#45;pinning -->
<g id="edge49" class="edge">
<title>mpb&#45;&gt;conda&#45;forge&#45;pinning</title>
<path fill="none" stroke="black" d="M355.92,-144.43C348.06,-124.45 339.25,-91.19 357.5,-72 389.81,-38.04 1039.54,-24.6 1306.49,-20.5"/>
<polygon fill="black" stroke="black" points="1306.65,-24 1316.59,-20.35 1306.54,-17 1306.65,-24"/>
</g>
<!-- mpb&#45;&gt;pymeep -->
<g id="edge50" class="edge">
<title>mpb&#45;&gt;pymeep</title>
<path fill="none" stroke="black" d="M345.82,-147.83C332.27,-137.74 313.3,-123.62 297.67,-111.98"/>
<polygon fill="black" stroke="black" points="299.49,-108.97 289.38,-105.8 295.31,-114.58 299.49,-108.97"/>
</g>
<!-- openpmd&#45;api -->
<g id="node35" class="node">
<title>openpmd&#45;api</title>
<g id="a_node35"><a xlink:href="https://github.com/conda-forge/openpmd-api-feedstock" xlink:title="openpmd api">
<ellipse fill="#fde725" stroke="black" cx="2067.5" cy="-90" rx="64.5" ry="18"/>
<text text-anchor="middle" x="2067.5" y="-86.3" font-family="Times,serif" font-size="14.00">openpmd api</text>
</a>
</g>
</g>
<!-- openpmd&#45;api&#45;&gt;conda&#45;forge&#45;pinning -->
<g id="edge51" class="edge">
<title>openpmd&#45;api&#45;&gt;conda&#45;forge&#45;pinning</title>
<path fill="none" stroke="black" d="M2019.63,-77.74C2009.4,-75.61 1998.62,-73.55 1988.5,-72 1828.34,-47.4 1640.95,-32.62 1526.26,-25.14"/>
<polygon fill="black" stroke="black" points="1526.28,-21.63 1516.07,-24.48 1525.83,-28.62 1526.28,-21.63"/>
</g>
<!-- cmor -->
<g id="node36" class="node">
<title>cmor</title>
<g id="a_node36"><a xlink:href="https://github.com/conda-forge/cmor-feedstock/pull/22" xlink:title="cmor">
<ellipse fill="#31688e" stroke="black" cx="2198.5" cy="-378" rx="30.59" ry="18"/>
<text text-anchor="middle" x="2198.5" y="-374.3" font-family="Times,serif" font-size="14.00" fill="white">cmor</text>
</a>
</g>
</g>
<!-- cmor&#45;&gt;conda&#45;forge&#45;pinning -->
<g id="edge52" class="edge">
<title>cmor&#45;&gt;conda&#45;forge&#45;pinning</title>
<path fill="none" stroke="black" d="M2198.5,-359.95C2198.5,-333.29 2198.5,-280.11 2198.5,-235 2198.5,-235 2198.5,-235 2198.5,-161 2198.5,-117.63 2194.05,-96.84 2158.5,-72 2108.49,-37.05 1726.69,-24.79 1532.37,-20.79"/>
<polygon fill="black" stroke="black" points="1532.19,-17.29 1522.13,-20.58 1532.05,-24.28 1532.19,-17.29"/>
</g>
<!-- freecad -->
<g id="node37" class="node">
<title>freecad</title>
<g id="a_node37"><a xlink:href="https://github.com/conda-forge/freecad-feedstock/pull/38" xlink:title="freecad">
<ellipse fill="#31688e" stroke="black" cx="2271.5" cy="-90" rx="45" ry="18"/>
<text text-anchor="middle" x="2271.5" y="-86.3" font-family="Times,serif" font-size="14.00" fill="white">freecad</text>
</a>
</g>
</g>
<!-- freecad&#45;&gt;conda&#45;forge&#45;pinning -->
<g id="edge53" class="edge">
<title>freecad&#45;&gt;conda&#45;forge&#45;pinning</title>
<path fill="none" stroke="black" d="M2237.78,-77.94C2229.59,-75.63 2220.79,-73.45 2212.5,-72 1973.13,-30.01 1687.76,-20.71 1533,-19"/>
<polygon fill="black" stroke="black" points="1533.03,-15.5 1522.99,-18.89 1532.96,-22.5 1533.03,-15.5"/>
</g>
<!-- openmeeg -->
<g id="node38" class="node">
<title>openmeeg</title>
<g id="a_node38"><a xlink:href="https://github.com/conda-forge/openmeeg-feedstock" xlink:title="openmeeg">
<ellipse fill="#35b779" stroke="black" cx="2304.5" cy="-162" rx="50.09" ry="18"/>
<text text-anchor="middle" x="2304.5" y="-158.3" font-family="Times,serif" font-size="14.00">openmeeg</text>
</a>
</g>
</g>
<!-- openmeeg&#45;&gt;conda&#45;forge&#45;pinning -->
<g id="edge54" class="edge">
<title>openmeeg&#45;&gt;conda&#45;forge&#45;pinning</title>
<path fill="none" stroke="black" d="M2316.29,-144.26C2328.68,-124.44 2344.02,-91.63 2325.5,-72 2298.66,-43.54 1767.95,-27.34 1531.5,-21.5"/>
<polygon fill="black" stroke="black" points="1531.58,-18 1521.5,-21.26 1531.41,-25 1531.58,-18"/>
</g>
<!-- scilab -->
<g id="node39" class="node">
<title>scilab</title>
<g id="a_node39"><a xlink:href="https://github.com/conda-forge/scilab-feedstock/pull/12" xlink:title="scilab">
<ellipse fill="#31688e" stroke="black" cx="2351.5" cy="-234" rx="40.5" ry="18"/>
<text text-anchor="middle" x="2351.5" y="-230.3" font-family="Times,serif" font-size="14.00" fill="white">scilab</text>
</a>
</g>
</g>
<!-- scilab&#45;&gt;conda&#45;forge&#45;pinning -->
<g id="edge55" class="edge">
<title>scilab&#45;&gt;conda&#45;forge&#45;pinning</title>
<path fill="none" stroke="black" d="M2357.51,-216.03C2368.3,-182.13 2386.09,-106.34 2343.5,-72 2281.84,-22.28 1766.92,-17.71 1533.61,-18.23"/>
<polygon fill="black" stroke="black" points="1533.39,-14.73 1523.39,-18.26 1533.4,-21.73 1533.39,-14.73"/>
</g>
<!-- adios2 -->
<g id="node40" class="node">
<title>adios2</title>
<g id="a_node40"><a xlink:href="https://github.com/conda-forge/adios2-feedstock/pull/11" xlink:title="adios2">
<ellipse fill="#31688e" stroke="black" cx="2098.5" cy="-162" rx="40.5" ry="18"/>
<text text-anchor="middle" x="2098.5" y="-158.3" font-family="Times,serif" font-size="14.00" fill="white">adios2</text>
</a>
</g>
</g>
<!-- adios2&#45;&gt;conda&#45;forge&#45;pinning -->
<g id="edge56" class="edge">
<title>adios2&#45;&gt;conda&#45;forge&#45;pinning</title>
<path fill="none" stroke="black" d="M2115.84,-145.53C2135.27,-126.36 2161.59,-93.62 2141.5,-72 2101.05,-28.47 1726.35,-20.33 1533.31,-19.05"/>
<polygon fill="black" stroke="black" points="1533.15,-15.55 1523.13,-18.99 1533.11,-22.55 1533.15,-15.55"/>
</g>
<!-- adios2&#45;&gt;openpmd&#45;api -->
<g id="edge57" class="edge">
<title>adios2&#45;&gt;openpmd&#45;api</title>
<path fill="none" stroke="black" d="M2091,-144.05C2087.47,-136.09 2083.18,-126.41 2079.24,-117.51"/>
<polygon fill="black" stroke="black" points="2082.4,-116 2075.15,-108.28 2076,-118.84 2082.4,-116"/>
</g>
<!-- bonsu -->
<g id="node41" class="node">
<title>bonsu</title>
<g id="a_node41"><a xlink:href="https://github.com/conda-forge/bonsu-feedstock/pull/5" xlink:title="bonsu">
<ellipse fill="#31688e" stroke="black" cx="2395.5" cy="-306" rx="35.19" ry="18"/>
<text text-anchor="middle" x="2395.5" y="-302.3" font-family="Times,serif" font-size="14.00" fill="white">bonsu</text>
</a>
</g>
</g>
<!-- bonsu&#45;&gt;conda&#45;forge&#45;pinning -->
<g id="edge58" class="edge">
<title>bonsu&#45;&gt;conda&#45;forge&#45;pinning</title>
<path fill="none" stroke="black" d="M2400.15,-288C2411.03,-244 2432.63,-126.08 2368.5,-72 2336.98,-45.42 1776.16,-28.04 1531.78,-21.69"/>
<polygon fill="black" stroke="black" points="1531.54,-18.18 1521.45,-21.43 1531.36,-25.18 1531.54,-18.18"/>
</g>
<!-- libvips -->
<g id="node42" class="node">
<title>libvips</title>
<g id="a_node42"><a xlink:href="https://github.com/conda-forge/libvips-feedstock" xlink:title="libvips">
<ellipse fill="#35b779" stroke="black" cx="2458.5" cy="-378" rx="45" ry="18"/>
<text text-anchor="middle" x="2458.5" y="-374.3" font-family="Times,serif" font-size="14.00">libvips</text>
</a>
</g>
</g>
<!-- libvips&#45;&gt;conda&#45;forge&#45;pinning -->
<g id="edge59" class="edge">
<title>libvips&#45;&gt;conda&#45;forge&#45;pinning</title>
<path fill="none" stroke="black" d="M2458.5,-359.95C2458.5,-333.29 2458.5,-280.11 2458.5,-235 2458.5,-235 2458.5,-235 2458.5,-161 2458.5,-112.54 2437.92,-95.43 2395.5,-72 2321.68,-31.24 1774.1,-21.82 1532.96,-19.65"/>
<polygon fill="black" stroke="black" points="1532.79,-16.15 1522.76,-19.56 1532.73,-23.15 1532.79,-16.15"/>
</g>
<!-- dagmc -->
<g id="node43" class="node">
<title>dagmc</title>
<g id="a_node43"><a xlink:href="https://github.com/conda-forge/dagmc-feedstock/pull/1" xlink:title="dagmc">
<ellipse fill="#31688e" stroke="black" cx="2521.5" cy="-90" rx="35.19" ry="18"/>
<text text-anchor="middle" x="2521.5" y="-86.3" font-family="Times,serif" font-size="14.00" fill="white">dagmc</text>
</a>
</g>
</g>
<!-- dagmc&#45;&gt;conda&#45;forge&#45;pinning -->
<g id="edge61" class="edge">
<title>dagmc&#45;&gt;conda&#45;forge&#45;pinning</title>
<path fill="none" stroke="black" d="M2494.92,-78.25C2487.75,-75.77 2479.92,-73.44 2472.5,-72 2295.35,-37.54 1766.32,-24.72 1532.62,-20.65"/>
<polygon fill="black" stroke="black" points="1532.46,-17.15 1522.4,-20.47 1532.34,-24.15 1532.46,-17.15"/>
</g>
<!-- nccmp -->
<g id="node44" class="node">
<title>nccmp</title>
<g id="a_node44"><a xlink:href="https://github.com/conda-forge/nccmp-feedstock/pull/2" xlink:title="nccmp">
<ellipse fill="#31688e" stroke="black" cx="2584.5" cy="-162" rx="35.19" ry="18"/>
<text text-anchor="middle" x="2584.5" y="-158.3" font-family="Times,serif" font-size="14.00" fill="white">nccmp</text>
</a>
</g>
</g>
<!-- nccmp&#45;&gt;conda&#45;forge&#45;pinning -->
<g id="edge62" class="edge">
<title>nccmp&#45;&gt;conda&#45;forge&#45;pinning</title>
<path fill="none" stroke="black" d="M2586.42,-143.86C2587.66,-123.31 2586.11,-89.47 2565.5,-72 2526.56,-38.98 1814.49,-24.85 1532.82,-20.54"/>
<polygon fill="black" stroke="black" points="1532.63,-17.03 1522.57,-20.38 1532.52,-24.03 1532.63,-17.03"/>
</g>
</g>
</svg>
