<?xml version="1.0" encoding="UTF-8" standalone="no"?>
<!DOCTYPE svg PUBLIC "-//W3C//DTD SVG 1.1//EN"
 "http://www.w3.org/Graphics/SVG/1.1/DTD/svg11.dtd">
<!-- Generated by graphviz version 2.42.3 (20191010.1750)
 -->
<!-- Title: %3 Pages: 1 -->
<svg width="2431pt" height="476pt"
 viewBox="0.00 0.00 2430.60 476.00" xmlns="http://www.w3.org/2000/svg" xmlns:xlink="http://www.w3.org/1999/xlink">
<g id="graph0" class="graph" transform="scale(1 1) rotate(0) translate(4 472)">
<title>%3</title>
<polygon fill="white" stroke="transparent" points="-4,4 -4,-472 2426.6,-472 2426.6,4 -4,4"/>
<!-- caffe -->
<g id="node1" class="node">
<title>caffe</title>
<g id="a_node1"><a xlink:href="https://github.com/conda-forge/caffe-feedstock" xlink:title="caffe">
<ellipse fill="#fde725" stroke="black" cx="1194.5" cy="-378" rx="35.19" ry="18"/>
<text text-anchor="middle" x="1194.5" y="-374.3" font-family="Times,serif" font-size="14.00">caffe</text>
</a>
</g>
</g>
<!-- conda&#45;forge&#45;pinning -->
<g id="node2" class="node">
<title>conda&#45;forge&#45;pinning</title>
<ellipse fill="none" stroke="black" cx="1318.5" cy="-18" rx="103.5" ry="18"/>
<text text-anchor="middle" x="1318.5" y="-14.3" font-family="Times,serif" font-size="14.00">conda&#45;forge&#45;pinning</text>
</g>
<!-- caffe&#45;&gt;conda&#45;forge&#45;pinning -->
<g id="edge1" class="edge">
<title>caffe&#45;&gt;conda&#45;forge&#45;pinning</title>
<path fill="none" stroke="black" d="M1196.48,-359.98C1199.39,-333.36 1204.5,-280.23 1204.5,-235 1204.5,-235 1204.5,-235 1204.5,-161 1204.5,-120.03 1203.67,-104.59 1228.5,-72 1238.87,-58.38 1253.84,-47.6 1268.59,-39.42"/>
<polygon fill="black" stroke="black" points="1270.47,-42.38 1277.71,-34.65 1267.22,-36.18 1270.47,-42.38"/>
</g>
<!-- cyclus -->
<g id="node3" class="node">
<title>cyclus</title>
<g id="a_node3"><a xlink:href="https://github.com/conda-forge/cyclus-feedstock/pull/56" xlink:title="cyclus">
<ellipse fill="#31688e" stroke="black" cx="40.5" cy="-90" rx="40.5" ry="18"/>
<text text-anchor="middle" x="40.5" y="-86.3" font-family="Times,serif" font-size="14.00" fill="white">cyclus</text>
</a>
</g>
</g>
<!-- cyclus&#45;&gt;conda&#45;forge&#45;pinning -->
<g id="edge2" class="edge">
<title>cyclus&#45;&gt;conda&#45;forge&#45;pinning</title>
<path fill="none" stroke="black" d="M70.99,-78.05C78.88,-75.65 87.42,-73.4 95.5,-72 306.67,-35.42 944.17,-23.58 1205.2,-20.2"/>
<polygon fill="black" stroke="black" points="1205.5,-23.7 1215.46,-20.07 1205.42,-16.7 1205.5,-23.7"/>
</g>
<!-- fenics -->
<g id="node4" class="node">
<title>fenics</title>
<g id="a_node4"><a xlink:href="https://github.com/conda-forge/fenics-feedstock/pull/107" xlink:title="fenics">
<ellipse fill="#31688e" stroke="black" cx="93.5" cy="-162" rx="40.5" ry="18"/>
<text text-anchor="middle" x="93.5" y="-158.3" font-family="Times,serif" font-size="14.00" fill="white">fenics</text>
</a>
</g>
</g>
<!-- fenics&#45;&gt;conda&#45;forge&#45;pinning -->
<g id="edge3" class="edge">
<title>fenics&#45;&gt;conda&#45;forge&#45;pinning</title>
<path fill="none" stroke="black" d="M98.55,-144.02C105.82,-122.97 121.41,-87.92 148.5,-72 193.58,-45.51 921.66,-27.37 1206,-21.27"/>
<polygon fill="black" stroke="black" points="1206.41,-24.76 1216.33,-21.05 1206.26,-17.76 1206.41,-24.76"/>
</g>
<!-- graph -->
<g id="node5" class="node">
<title>graph</title>
<g id="a_node5"><a xlink:href="https://github.com/conda-forge/graph-feedstock/pull/5" xlink:title="graph">
<ellipse fill="#31688e" stroke="black" cx="161.5" cy="-234" rx="35.19" ry="18"/>
<text text-anchor="middle" x="161.5" y="-230.3" font-family="Times,serif" font-size="14.00" fill="white">graph</text>
</a>
</g>
</g>
<!-- graph&#45;&gt;conda&#45;forge&#45;pinning -->
<g id="edge4" class="edge">
<title>graph&#45;&gt;conda&#45;forge&#45;pinning</title>
<path fill="none" stroke="black" d="M162.63,-215.99C165.89,-182.03 178.46,-106.13 226.5,-72 265.93,-43.98 935.16,-26.98 1206.04,-21.21"/>
<polygon fill="black" stroke="black" points="1206.36,-24.71 1216.29,-21 1206.21,-17.71 1206.36,-24.71"/>
</g>
<!-- h5py -->
<g id="node6" class="node">
<title>h5py</title>
<g id="a_node6"><a xlink:href="https://github.com/conda-forge/h5py-feedstock/pull/72" xlink:title="h5py">
<ellipse fill="#31688e" stroke="black" cx="824.5" cy="-450" rx="30.59" ry="18"/>
<text text-anchor="middle" x="824.5" y="-446.3" font-family="Times,serif" font-size="14.00" fill="white">h5py</text>
</a>
</g>
</g>
<!-- h5py&#45;&gt;caffe -->
<g id="edge5" class="edge">
<title>h5py&#45;&gt;caffe</title>
<path fill="none" stroke="black" d="M854.5,-445.78C911.72,-439.25 1040.12,-422.77 1145.5,-396 1149.41,-395.01 1153.46,-393.84 1157.47,-392.59"/>
<polygon fill="black" stroke="black" points="1158.87,-395.81 1167.28,-389.37 1156.69,-389.16 1158.87,-395.81"/>
</g>
<!-- h5py&#45;&gt;conda&#45;forge&#45;pinning -->
<g id="edge6" class="edge">
<title>h5py&#45;&gt;conda&#45;forge&#45;pinning</title>
<path fill="none" stroke="black" d="M855.03,-447.35C946.37,-442.11 1212.8,-424.48 1238.5,-396 1286.45,-342.86 1242.5,-306.58 1242.5,-235 1242.5,-235 1242.5,-235 1242.5,-161 1242.5,-115.39 1273.36,-70.25 1295.75,-43.5"/>
<polygon fill="black" stroke="black" points="1298.5,-45.67 1302.38,-35.81 1293.2,-41.09 1298.5,-45.67"/>
</g>
<!-- openmc -->
<g id="node7" class="node">
<title>openmc</title>
<g id="a_node7"><a xlink:href="https://github.com/conda-forge/openmc-feedstock" xlink:title="openmc">
<ellipse fill="#fde725" stroke="black" cx="1311.5" cy="-306" rx="40.5" ry="18"/>
<text text-anchor="middle" x="1311.5" y="-302.3" font-family="Times,serif" font-size="14.00">openmc</text>
</a>
</g>
</g>
<!-- h5py&#45;&gt;openmc -->
<g id="edge7" class="edge">
<title>h5py&#45;&gt;openmc</title>
<path fill="none" stroke="black" d="M855.24,-449.19C945.09,-449.15 1205.12,-444.73 1271.5,-396 1291.39,-381.4 1301.59,-354.62 1306.69,-334.23"/>
<polygon fill="black" stroke="black" points="1310.16,-334.77 1308.92,-324.25 1303.33,-333.25 1310.16,-334.77"/>
</g>
<!-- rsgislib -->
<g id="node8" class="node">
<title>rsgislib</title>
<g id="a_node8"><a xlink:href="https://github.com/conda-forge/rsgislib-feedstock" xlink:title="rsgislib">
<ellipse fill="#fde725" stroke="black" cx="264.5" cy="-234" rx="50.09" ry="18"/>
<text text-anchor="middle" x="264.5" y="-230.3" font-family="Times,serif" font-size="14.00">rsgislib</text>
</a>
</g>
</g>
<!-- h5py&#45;&gt;rsgislib -->
<g id="edge8" class="edge">
<title>h5py&#45;&gt;rsgislib</title>
<path fill="none" stroke="black" d="M793.98,-447.56C691.73,-442.48 365.66,-424.22 328.5,-396 285.98,-363.72 271.66,-298.81 266.87,-262.04"/>
<polygon fill="black" stroke="black" points="270.34,-261.56 265.71,-252.03 263.38,-262.36 270.34,-261.56"/>
</g>
<!-- h5utils -->
<g id="node9" class="node">
<title>h5utils</title>
<g id="a_node9"><a xlink:href="https://github.com/conda-forge/h5utils-feedstock" xlink:title="h5utils">
<ellipse fill="#fde725" stroke="black" cx="307.5" cy="-162" rx="45" ry="18"/>
<text text-anchor="middle" x="307.5" y="-158.3" font-family="Times,serif" font-size="14.00">h5utils</text>
</a>
</g>
</g>
<!-- h5py&#45;&gt;h5utils -->
<g id="edge9" class="edge">
<title>h5py&#45;&gt;h5utils</title>
<path fill="none" stroke="black" d="M794.15,-447.48C697.06,-442.36 398.53,-424.42 366.5,-396 304.98,-341.41 344.95,-295.4 323.5,-216 321.18,-207.42 318.45,-198.13 315.91,-189.76"/>
<polygon fill="black" stroke="black" points="319.23,-188.64 312.94,-180.11 312.54,-190.7 319.23,-188.64"/>
</g>
<!-- pymeep -->
<g id="node10" class="node">
<title>pymeep</title>
<g id="a_node10"><a xlink:href="https://github.com/conda-forge/pymeep-feedstock" xlink:title="pymeep">
<ellipse fill="#fde725" stroke="black" cx="307.5" cy="-90" rx="40.5" ry="18"/>
<text text-anchor="middle" x="307.5" y="-86.3" font-family="Times,serif" font-size="14.00">pymeep</text>
</a>
</g>
</g>
<!-- h5py&#45;&gt;pymeep -->
<g id="edge10" class="edge">
<title>h5py&#45;&gt;pymeep</title>
<path fill="none" stroke="black" d="M794.68,-446.01C695.13,-435.22 380.5,-394.2 380.5,-307 380.5,-307 380.5,-307 380.5,-233 380.5,-192.55 380.98,-179.45 361.5,-144 354.96,-132.1 344.9,-121.17 335.22,-112.36"/>
<polygon fill="black" stroke="black" points="337.47,-109.68 327.62,-105.78 332.89,-114.97 337.47,-109.68"/>
</g>
<!-- blosc&#45;hdf5&#45;plugin -->
<g id="node11" class="node">
<title>blosc&#45;hdf5&#45;plugin</title>
<g id="a_node11"><a xlink:href="https://github.com/conda-forge/blosc-hdf5-plugin-feedstock" xlink:title="blosc hdf5 plugin">
<ellipse fill="#fde725" stroke="black" cx="498.5" cy="-90" rx="93.68" ry="18"/>
<text text-anchor="middle" x="498.5" y="-86.3" font-family="Times,serif" font-size="14.00">blosc hdf5 plugin</text>
</a>
</g>
</g>
<!-- h5py&#45;&gt;blosc&#45;hdf5&#45;plugin -->
<g id="edge11" class="edge">
<title>h5py&#45;&gt;blosc&#45;hdf5&#45;plugin</title>
<path fill="none" stroke="black" d="M794,-447.53C721.43,-442.22 544.5,-417.92 544.5,-307 544.5,-307 544.5,-307 544.5,-233 544.5,-190.81 525.9,-144.85 512.35,-116.98"/>
<polygon fill="black" stroke="black" points="515.42,-115.29 507.81,-107.91 509.16,-118.42 515.42,-115.29"/>
</g>
<!-- isce2 -->
<g id="node12" class="node">
<title>isce2</title>
<g id="a_node12"><a xlink:href="https://github.com/conda-forge/isce2-feedstock" xlink:title="isce2">
<ellipse fill="#fde725" stroke="black" cx="645.5" cy="-90" rx="35.19" ry="18"/>
<text text-anchor="middle" x="645.5" y="-86.3" font-family="Times,serif" font-size="14.00">isce2</text>
</a>
</g>
</g>
<!-- h5py&#45;&gt;isce2 -->
<g id="edge12" class="edge">
<title>h5py&#45;&gt;isce2</title>
<path fill="none" stroke="black" d="M793.81,-448.76C754.3,-446.7 686.22,-436.96 648.5,-396 621.1,-366.25 629.5,-347.45 629.5,-307 629.5,-307 629.5,-307 629.5,-233 629.5,-192.74 635.93,-146.47 640.64,-117.98"/>
<polygon fill="black" stroke="black" points="644.11,-118.43 642.34,-107.98 637.21,-117.25 644.11,-118.43"/>
</g>
<!-- bitshuffle -->
<g id="node13" class="node">
<title>bitshuffle</title>
<g id="a_node13"><a xlink:href="https://github.com/conda-forge/bitshuffle-feedstock" xlink:title="bitshuffle">
<ellipse fill="#fde725" stroke="black" cx="717.5" cy="-378" rx="60" ry="18"/>
<text text-anchor="middle" x="717.5" y="-374.3" font-family="Times,serif" font-size="14.00">bitshuffle</text>
</a>
</g>
</g>
<!-- h5py&#45;&gt;bitshuffle -->
<g id="edge13" class="edge">
<title>h5py&#45;&gt;bitshuffle</title>
<path fill="none" stroke="black" d="M804.87,-436.16C789.53,-426.12 767.86,-411.95 749.95,-400.23"/>
<polygon fill="black" stroke="black" points="751.78,-397.24 741.5,-394.7 747.95,-403.1 751.78,-397.24"/>
</g>
<!-- triqs -->
<g id="node14" class="node">
<title>triqs</title>
<g id="a_node14"><a xlink:href="https://github.com/conda-forge/triqs-feedstock" xlink:title="triqs">
<ellipse fill="#fde725" stroke="black" cx="805.5" cy="-162" rx="35.19" ry="18"/>
<text text-anchor="middle" x="805.5" y="-158.3" font-family="Times,serif" font-size="14.00">triqs</text>
</a>
</g>
</g>
<!-- h5py&#45;&gt;triqs -->
<g id="edge14" class="edge">
<title>h5py&#45;&gt;triqs</title>
<path fill="none" stroke="black" d="M823.37,-431.97C820.2,-384.29 811.23,-249.18 807.34,-190.63"/>
<polygon fill="black" stroke="black" points="810.8,-190.05 806.65,-180.31 803.82,-190.52 810.8,-190.05"/>
</g>
<!-- hdf5plugin -->
<g id="node15" class="node">
<title>hdf5plugin</title>
<g id="a_node15"><a xlink:href="https://github.com/conda-forge/hdf5plugin-feedstock" xlink:title="hdf5plugin">
<ellipse fill="#fde725" stroke="black" cx="893.5" cy="-306" rx="60" ry="18"/>
<text text-anchor="middle" x="893.5" y="-302.3" font-family="Times,serif" font-size="14.00">hdf5plugin</text>
</a>
</g>
</g>
<!-- h5py&#45;&gt;hdf5plugin -->
<g id="edge15" class="edge">
<title>h5py&#45;&gt;hdf5plugin</title>
<path fill="none" stroke="black" d="M832.55,-432.43C844.43,-407.98 866.77,-362 880.86,-333.02"/>
<polygon fill="black" stroke="black" points="884.06,-334.43 885.29,-323.9 877.77,-331.37 884.06,-334.43"/>
</g>
<!-- prismatic_split -->
<g id="node16" class="node">
<title>prismatic_split</title>
<g id="a_node16"><a xlink:href="https://github.com/conda-forge/prismatic_split-feedstock" xlink:title="prismatic_split">
<ellipse fill="#fde725" stroke="black" cx="981.5" cy="-234" rx="84" ry="18"/>
<text text-anchor="middle" x="981.5" y="-230.3" font-family="Times,serif" font-size="14.00">prismatic_split</text>
</a>
</g>
</g>
<!-- h5py&#45;&gt;prismatic_split -->
<g id="edge16" class="edge">
<title>h5py&#45;&gt;prismatic_split</title>
<path fill="none" stroke="black" d="M845.07,-436.48C875.77,-416.65 933.14,-374.98 962.5,-324 973.38,-305.12 978.05,-280.74 980.04,-262.28"/>
<polygon fill="black" stroke="black" points="983.54,-262.45 980.94,-252.18 976.57,-261.83 983.54,-262.45"/>
</g>
<!-- digital_rf -->
<g id="node17" class="node">
<title>digital_rf</title>
<g id="a_node17"><a xlink:href="https://github.com/conda-forge/digital_rf-feedstock" xlink:title="digital_rf">
<ellipse fill="#fde725" stroke="black" cx="1051.5" cy="-162" rx="60" ry="18"/>
<text text-anchor="middle" x="1051.5" y="-158.3" font-family="Times,serif" font-size="14.00">digital_rf</text>
</a>
</g>
</g>
<!-- h5py&#45;&gt;digital_rf -->
<g id="edge17" class="edge">
<title>h5py&#45;&gt;digital_rf</title>
<path fill="none" stroke="black" d="M849.54,-439.35C904.21,-416.66 1032.67,-354 1074.5,-252 1082.88,-231.57 1075.48,-207.22 1066.91,-189.16"/>
<polygon fill="black" stroke="black" points="1069.81,-187.14 1062.12,-179.84 1063.58,-190.33 1069.81,-187.14"/>
</g>
<!-- pp&#45;sketchlib -->
<g id="node18" class="node">
<title>pp&#45;sketchlib</title>
<g id="a_node18"><a xlink:href="https://github.com/conda-forge/pp-sketchlib-feedstock" xlink:title="pp sketchlib">
<ellipse fill="#fde725" stroke="black" cx="1106.5" cy="-90" rx="69.59" ry="18"/>
<text text-anchor="middle" x="1106.5" y="-86.3" font-family="Times,serif" font-size="14.00">pp sketchlib</text>
</a>
</g>
</g>
<!-- h5py&#45;&gt;pp&#45;sketchlib -->
<g id="edge18" class="edge">
<title>h5py&#45;&gt;pp&#45;sketchlib</title>
<path fill="none" stroke="black" d="M852.66,-442.68C884.11,-434.82 935.83,-419.52 975.5,-396 1016.65,-371.6 1026.73,-362.22 1055.5,-324 1097.73,-267.9 1106.73,-248.85 1120.5,-180 1124.65,-159.23 1120.5,-135.53 1115.66,-117.81"/>
<polygon fill="black" stroke="black" points="1118.99,-116.73 1112.79,-108.14 1112.28,-118.72 1118.99,-116.73"/>
</g>
<!-- openmc&#45;&gt;conda&#45;forge&#45;pinning -->
<g id="edge19" class="edge">
<title>openmc&#45;&gt;conda&#45;forge&#45;pinning</title>
<path fill="none" stroke="black" d="M1311.56,-287.75C1311.76,-249.1 1312.53,-152.66 1315.5,-72 1315.81,-63.68 1316.27,-54.62 1316.74,-46.39"/>
<polygon fill="black" stroke="black" points="1320.25,-46.37 1317.36,-36.18 1313.26,-45.95 1320.25,-46.37"/>
</g>
<!-- rsgislib&#45;&gt;conda&#45;forge&#45;pinning -->
<g id="edge20" class="edge">
<title>rsgislib&#45;&gt;conda&#45;forge&#45;pinning</title>
<path fill="none" stroke="black" d="M255.22,-216.2C238.62,-183.6 208.88,-111.52 246.5,-72 279.16,-37.69 936.56,-24.44 1205.4,-20.45"/>
<polygon fill="black" stroke="black" points="1205.63,-23.94 1215.58,-20.3 1205.53,-16.95 1205.63,-23.94"/>
</g>
<!-- h5utils&#45;&gt;conda&#45;forge&#45;pinning -->
<g id="edge21" class="edge">
<title>h5utils&#45;&gt;conda&#45;forge&#45;pinning</title>
<path fill="none" stroke="black" d="M288.1,-145.68C266.28,-126.67 236.49,-94.09 257.5,-72 289.78,-38.07 938.89,-24.62 1205.59,-20.51"/>
<polygon fill="black" stroke="black" points="1205.74,-24 1215.69,-20.35 1205.64,-17.01 1205.74,-24"/>
</g>
<!-- h5utils&#45;&gt;pymeep -->
<g id="edge22" class="edge">
<title>h5utils&#45;&gt;pymeep</title>
<path fill="none" stroke="black" d="M307.5,-143.7C307.5,-135.98 307.5,-126.71 307.5,-118.11"/>
<polygon fill="black" stroke="black" points="311,-118.1 307.5,-108.1 304,-118.1 311,-118.1"/>
</g>
<!-- pymeep&#45;&gt;conda&#45;forge&#45;pinning -->
<g id="edge23" class="edge">
<title>pymeep&#45;&gt;conda&#45;forge&#45;pinning</title>
<path fill="none" stroke="black" d="M338.01,-78.12C345.89,-75.71 354.43,-73.45 362.5,-72 521.54,-43.46 990.38,-27.7 1206.75,-21.77"/>
<polygon fill="black" stroke="black" points="1206.96,-25.27 1216.86,-21.5 1206.77,-18.27 1206.96,-25.27"/>
</g>
<!-- blosc&#45;hdf5&#45;plugin&#45;&gt;conda&#45;forge&#45;pinning -->
<g id="edge24" class="edge">
<title>blosc&#45;hdf5&#45;plugin&#45;&gt;conda&#45;forge&#45;pinning</title>
<path fill="none" stroke="black" d="M564.59,-77.19C576.83,-75.26 589.53,-73.43 601.5,-72 816.12,-46.41 1068.46,-31.19 1209.29,-24.02"/>
<polygon fill="black" stroke="black" points="1209.84,-27.49 1219.65,-23.49 1209.48,-20.5 1209.84,-27.49"/>
</g>
<!-- isce2&#45;&gt;conda&#45;forge&#45;pinning -->
<g id="edge25" class="edge">
<title>isce2&#45;&gt;conda&#45;forge&#45;pinning</title>
<path fill="none" stroke="black" d="M672.37,-78.33C679.47,-75.89 687.19,-73.55 694.5,-72 870.4,-34.63 1079.48,-23.42 1205.44,-20.17"/>
<polygon fill="black" stroke="black" points="1205.58,-23.67 1215.49,-19.93 1205.4,-16.67 1205.58,-23.67"/>
</g>
<!-- bitshuffle&#45;&gt;conda&#45;forge&#45;pinning -->
<g id="edge26" class="edge">
<title>bitshuffle&#45;&gt;conda&#45;forge&#45;pinning</title>
<path fill="none" stroke="black" d="M715.72,-359.97C713.1,-333.34 708.5,-280.21 708.5,-235 708.5,-235 708.5,-235 708.5,-161 708.5,-116.47 717.59,-96.91 754.5,-72 791.21,-47.23 1055.44,-31.08 1208.87,-23.68"/>
<polygon fill="black" stroke="black" points="1209.45,-27.16 1219.27,-23.18 1209.12,-20.16 1209.45,-27.16"/>
</g>
<!-- triqs&#45;&gt;conda&#45;forge&#45;pinning -->
<g id="edge27" class="edge">
<title>triqs&#45;&gt;conda&#45;forge&#45;pinning</title>
<path fill="none" stroke="black" d="M789.4,-145.84C770.99,-126.71 745.79,-93.69 765.5,-72 794.53,-40.06 1053.36,-26.87 1206.42,-21.83"/>
<polygon fill="black" stroke="black" points="1206.91,-25.32 1216.79,-21.5 1206.69,-18.32 1206.91,-25.32"/>
</g>
<!-- triqs_cthyb -->
<g id="node19" class="node">
<title>triqs_cthyb</title>
<g id="a_node19"><a xlink:href="https://github.com/conda-forge/triqs_cthyb-feedstock" xlink:title="triqs_cthyb">
<ellipse fill="#fde725" stroke="black" cx="839.5" cy="-90" rx="64.5" ry="18"/>
<text text-anchor="middle" x="839.5" y="-86.3" font-family="Times,serif" font-size="14.00">triqs_cthyb</text>
</a>
</g>
</g>
<!-- triqs&#45;&gt;triqs_cthyb -->
<g id="edge28" class="edge">
<title>triqs&#45;&gt;triqs_cthyb</title>
<path fill="none" stroke="black" d="M813.56,-144.41C817.52,-136.25 822.39,-126.22 826.84,-117.07"/>
<polygon fill="black" stroke="black" points="830.04,-118.48 831.26,-107.96 823.75,-115.42 830.04,-118.48"/>
</g>
<!-- hdf5plugin&#45;&gt;conda&#45;forge&#45;pinning -->
<g id="edge29" class="edge">
<title>hdf5plugin&#45;&gt;conda&#45;forge&#45;pinning</title>
<path fill="none" stroke="black" d="M889.04,-287.83C885.09,-269.58 881.02,-240.09 888.5,-216 911.54,-141.83 921.85,-113.49 987.5,-72 1024.45,-48.64 1132.03,-34.45 1214.61,-26.7"/>
<polygon fill="black" stroke="black" points="1215.17,-30.17 1224.81,-25.77 1214.53,-23.2 1215.17,-30.17"/>
</g>
<!-- prismatic_split&#45;&gt;conda&#45;forge&#45;pinning -->
<g id="edge30" class="edge">
<title>prismatic_split&#45;&gt;conda&#45;forge&#45;pinning</title>
<path fill="none" stroke="black" d="M978.99,-215.96C975.07,-181.93 972.04,-105.92 1016.5,-72 1047.28,-48.52 1140.6,-34.61 1215.44,-26.98"/>
<polygon fill="black" stroke="black" points="1215.79,-30.46 1225.4,-25.99 1215.1,-23.49 1215.79,-30.46"/>
</g>
<!-- digital_rf&#45;&gt;conda&#45;forge&#45;pinning -->
<g id="edge31" class="edge">
<title>digital_rf&#45;&gt;conda&#45;forge&#45;pinning</title>
<path fill="none" stroke="black" d="M1039.07,-144.34C1026.18,-124.9 1010.17,-92.77 1027.5,-72 1050.79,-44.09 1137.34,-30.84 1210.04,-24.57"/>
<polygon fill="black" stroke="black" points="1210.52,-28.04 1220.2,-23.73 1209.95,-21.07 1210.52,-28.04"/>
</g>
<!-- pp&#45;sketchlib&#45;&gt;conda&#45;forge&#45;pinning -->
<g id="edge32" class="edge">
<title>pp&#45;sketchlib&#45;&gt;conda&#45;forge&#45;pinning</title>
<path fill="none" stroke="black" d="M1147.63,-75.42C1180.32,-64.63 1226.38,-49.42 1262.44,-37.51"/>
<polygon fill="black" stroke="black" points="1263.93,-40.7 1272.33,-34.24 1261.74,-34.06 1263.93,-40.7"/>
</g>
<!-- triqs_cthyb&#45;&gt;conda&#45;forge&#45;pinning -->
<g id="edge56" class="edge">
<title>triqs_cthyb&#45;&gt;conda&#45;forge&#45;pinning</title>
<path fill="none" stroke="black" d="M887.84,-77.95C897.94,-75.83 908.55,-73.73 918.5,-72 1022.09,-54.02 1141.69,-38.91 1222.94,-29.48"/>
<polygon fill="black" stroke="black" points="1223.61,-32.92 1233.15,-28.3 1222.81,-25.97 1223.61,-32.92"/>
</g>
<!-- hdfeos5 -->
<g id="node20" class="node">
<title>hdfeos5</title>
<g id="a_node20"><a xlink:href="https://github.com/conda-forge/hdfeos5-feedstock/pull/27" xlink:title="hdfeos5">
<ellipse fill="#31688e" stroke="black" cx="1373.5" cy="-234" rx="45" ry="18"/>
<text text-anchor="middle" x="1373.5" y="-230.3" font-family="Times,serif" font-size="14.00" fill="white">hdfeos5</text>
</a>
</g>
</g>
<!-- hdfeos5&#45;&gt;conda&#45;forge&#45;pinning -->
<g id="edge33" class="edge">
<title>hdfeos5&#45;&gt;conda&#45;forge&#45;pinning</title>
<path fill="none" stroke="black" d="M1359.23,-216.5C1351.48,-206.59 1342.48,-193.34 1337.5,-180 1320.8,-135.22 1317.89,-79.01 1317.83,-46.24"/>
<polygon fill="black" stroke="black" points="1321.33,-46.09 1317.9,-36.07 1314.33,-46.04 1321.33,-46.09"/>
</g>
<!-- ncl -->
<g id="node21" class="node">
<title>ncl</title>
<g id="a_node21"><a xlink:href="https://github.com/conda-forge/ncl-feedstock" xlink:title="ncl">
<ellipse fill="#fde725" stroke="black" cx="1373.5" cy="-162" rx="27" ry="18"/>
<text text-anchor="middle" x="1373.5" y="-158.3" font-family="Times,serif" font-size="14.00">ncl</text>
</a>
</g>
</g>
<!-- hdfeos5&#45;&gt;ncl -->
<g id="edge34" class="edge">
<title>hdfeos5&#45;&gt;ncl</title>
<path fill="none" stroke="black" d="M1373.5,-215.7C1373.5,-207.98 1373.5,-198.71 1373.5,-190.11"/>
<polygon fill="black" stroke="black" points="1377,-190.1 1373.5,-180.1 1370,-190.1 1377,-190.1"/>
</g>
<!-- pynio -->
<g id="node22" class="node">
<title>pynio</title>
<g id="a_node22"><a xlink:href="https://github.com/conda-forge/pynio-feedstock" xlink:title="pynio">
<ellipse fill="#fde725" stroke="black" cx="1419.5" cy="-90" rx="35.19" ry="18"/>
<text text-anchor="middle" x="1419.5" y="-86.3" font-family="Times,serif" font-size="14.00">pynio</text>
</a>
</g>
</g>
<!-- hdfeos5&#45;&gt;pynio -->
<g id="edge35" class="edge">
<title>hdfeos5&#45;&gt;pynio</title>
<path fill="none" stroke="black" d="M1387.8,-216.52C1395.56,-206.6 1404.56,-193.35 1409.5,-180 1416.82,-160.22 1419.19,-136.42 1419.8,-118.41"/>
<polygon fill="black" stroke="black" points="1423.3,-118.35 1419.98,-108.29 1416.3,-118.23 1423.3,-118.35"/>
</g>
<!-- ncl&#45;&gt;conda&#45;forge&#45;pinning -->
<g id="edge36" class="edge">
<title>ncl&#45;&gt;conda&#45;forge&#45;pinning</title>
<path fill="none" stroke="black" d="M1367.08,-144.43C1357.7,-120.22 1340.15,-74.89 1328.91,-45.87"/>
<polygon fill="black" stroke="black" points="1332.09,-44.41 1325.22,-36.35 1325.57,-46.94 1332.09,-44.41"/>
</g>
<!-- pynio&#45;&gt;conda&#45;forge&#45;pinning -->
<g id="edge37" class="edge">
<title>pynio&#45;&gt;conda&#45;forge&#45;pinning</title>
<path fill="none" stroke="black" d="M1399.55,-75.17C1385.77,-65.62 1367.14,-52.71 1351.21,-41.67"/>
<polygon fill="black" stroke="black" points="1352.9,-38.58 1342.69,-35.76 1348.91,-44.34 1352.9,-38.58"/>
</g>
<!-- hyperion&#45;fortran -->
<g id="node23" class="node">
<title>hyperion&#45;fortran</title>
<g id="a_node23"><a xlink:href="https://github.com/conda-forge/hyperion-fortran-feedstock/pull/18" xlink:title="hyperion fortran">
<ellipse fill="#31688e" stroke="black" cx="1459.5" cy="-306" rx="89.08" ry="18"/>
<text text-anchor="middle" x="1459.5" y="-302.3" font-family="Times,serif" font-size="14.00" fill="white">hyperion fortran</text>
</a>
</g>
</g>
<!-- hyperion&#45;fortran&#45;&gt;conda&#45;forge&#45;pinning -->
<g id="edge38" class="edge">
<title>hyperion&#45;fortran&#45;&gt;conda&#45;forge&#45;pinning</title>
<path fill="none" stroke="black" d="M1465.99,-287.83C1480.47,-246.38 1510.56,-139.31 1463.5,-72 1450.19,-52.96 1429.27,-40.74 1407.42,-32.9"/>
<polygon fill="black" stroke="black" points="1408.27,-29.5 1397.68,-29.7 1406.09,-36.15 1408.27,-29.5"/>
</g>
<!-- pyne -->
<g id="node24" class="node">
<title>pyne</title>
<g id="a_node24"><a xlink:href="https://github.com/conda-forge/pyne-feedstock/pull/40" xlink:title="pyne">
<ellipse fill="#31688e" stroke="black" cx="1576.5" cy="-378" rx="30.59" ry="18"/>
<text text-anchor="middle" x="1576.5" y="-374.3" font-family="Times,serif" font-size="14.00" fill="white">pyne</text>
</a>
</g>
</g>
<!-- pyne&#45;&gt;conda&#45;forge&#45;pinning -->
<g id="edge39" class="edge">
<title>pyne&#45;&gt;conda&#45;forge&#45;pinning</title>
<path fill="none" stroke="black" d="M1576.82,-360C1576.81,-308.71 1569.56,-154.07 1486.5,-72 1466.16,-51.9 1438.26,-39.41 1411.04,-31.66"/>
<polygon fill="black" stroke="black" points="1411.62,-28.19 1401.05,-29.01 1409.82,-34.95 1411.62,-28.19"/>
</g>
<!-- r&#45;hdf5r -->
<g id="node25" class="node">
<title>r&#45;hdf5r</title>
<g id="a_node25"><a xlink:href="https://github.com/conda-forge/r-hdf5r-feedstock/pull/12" xlink:title="r hdf5r">
<ellipse fill="#31688e" stroke="black" cx="1593.5" cy="-90" rx="45" ry="18"/>
<text text-anchor="middle" x="1593.5" y="-86.3" font-family="Times,serif" font-size="14.00" fill="white">r hdf5r</text>
</a>
</g>
</g>
<!-- r&#45;hdf5r&#45;&gt;conda&#45;forge&#45;pinning -->
<g id="edge40" class="edge">
<title>r&#45;hdf5r&#45;&gt;conda&#45;forge&#45;pinning</title>
<path fill="none" stroke="black" d="M1558.31,-78.61C1550.49,-76.37 1542.22,-74.06 1534.5,-72 1485.63,-58.97 1430.21,-45.4 1387.75,-35.25"/>
<polygon fill="black" stroke="black" points="1388.33,-31.79 1377.79,-32.88 1386.71,-38.6 1388.33,-31.79"/>
</g>
<!-- r&#45;ncdf4 -->
<g id="node26" class="node">
<title>r&#45;ncdf4</title>
<g id="a_node26"><a xlink:href="https://github.com/conda-forge/r-ncdf4-feedstock/pull/20" xlink:title="r ncdf4">
<ellipse fill="#31688e" stroke="black" cx="1631.5" cy="-162" rx="45" ry="18"/>
<text text-anchor="middle" x="1631.5" y="-158.3" font-family="Times,serif" font-size="14.00" fill="white">r ncdf4</text>
</a>
</g>
</g>
<!-- r&#45;ncdf4&#45;&gt;conda&#45;forge&#45;pinning -->
<g id="edge41" class="edge">
<title>r&#45;ncdf4&#45;&gt;conda&#45;forge&#45;pinning</title>
<path fill="none" stroke="black" d="M1641.75,-144.15C1652.22,-124.51 1664.7,-92.2 1647.5,-72 1619.79,-39.46 1514.48,-26.83 1430.37,-21.96"/>
<polygon fill="black" stroke="black" points="1430.4,-18.46 1420.23,-21.41 1430.02,-25.45 1430.4,-18.46"/>
</g>
<!-- shogun -->
<g id="node27" class="node">
<title>shogun</title>
<g id="a_node27"><a xlink:href="https://github.com/conda-forge/shogun-feedstock/pull/20" xlink:title="shogun">
<ellipse fill="#31688e" stroke="black" cx="1673.5" cy="-234" rx="40.5" ry="18"/>
<text text-anchor="middle" x="1673.5" y="-230.3" font-family="Times,serif" font-size="14.00" fill="white">shogun</text>
</a>
</g>
</g>
<!-- shogun&#45;&gt;conda&#45;forge&#45;pinning -->
<g id="edge42" class="edge">
<title>shogun&#45;&gt;conda&#45;forge&#45;pinning</title>
<path fill="none" stroke="black" d="M1679.41,-216.14C1689.9,-182.79 1707.08,-108.46 1666.5,-72 1632.25,-41.23 1517.74,-28.32 1429.33,-22.9"/>
<polygon fill="black" stroke="black" points="1429.41,-19.4 1419.23,-22.31 1429,-26.39 1429.41,-19.4"/>
</g>
<!-- vigra -->
<g id="node28" class="node">
<title>vigra</title>
<g id="a_node28"><a xlink:href="https://github.com/conda-forge/vigra-feedstock/pull/54" xlink:title="vigra">
<ellipse fill="#31688e" stroke="black" cx="1717.5" cy="-306" rx="35.19" ry="18"/>
<text text-anchor="middle" x="1717.5" y="-302.3" font-family="Times,serif" font-size="14.00" fill="white">vigra</text>
</a>
</g>
</g>
<!-- vigra&#45;&gt;conda&#45;forge&#45;pinning -->
<g id="edge43" class="edge">
<title>vigra&#45;&gt;conda&#45;forge&#45;pinning</title>
<path fill="none" stroke="black" d="M1722.01,-288.03C1732.4,-244.63 1752.7,-129.01 1691.5,-72 1654.58,-37.61 1526.67,-25.42 1430.87,-21.16"/>
<polygon fill="black" stroke="black" points="1430.96,-17.66 1420.82,-20.74 1430.66,-24.66 1430.96,-17.66"/>
</g>
<!-- yaafe -->
<g id="node29" class="node">
<title>yaafe</title>
<g id="a_node29"><a xlink:href="https://github.com/conda-forge/yaafe-feedstock/pull/9" xlink:title="yaafe">
<ellipse fill="#31688e" stroke="black" cx="1780.5" cy="-378" rx="35.19" ry="18"/>
<text text-anchor="middle" x="1780.5" y="-374.3" font-family="Times,serif" font-size="14.00" fill="white">yaafe</text>
</a>
</g>
</g>
<!-- yaafe&#45;&gt;conda&#45;forge&#45;pinning -->
<g id="edge44" class="edge">
<title>yaafe&#45;&gt;conda&#45;forge&#45;pinning</title>
<path fill="none" stroke="black" d="M1780.5,-359.95C1780.5,-333.29 1780.5,-280.11 1780.5,-235 1780.5,-235 1780.5,-235 1780.5,-161 1780.5,-112.79 1759.67,-97.08 1718.5,-72 1671.21,-43.2 1529.82,-29.76 1428.56,-23.69"/>
<polygon fill="black" stroke="black" points="1428.46,-20.18 1418.27,-23.09 1428.05,-27.17 1428.46,-20.18"/>
</g>
<!-- alps -->
<g id="node30" class="node">
<title>alps</title>
<g id="a_node30"><a xlink:href="https://github.com/conda-forge/alps-feedstock/pull/31" xlink:title="alps">
<ellipse fill="#31688e" stroke="black" cx="1839.5" cy="-90" rx="30.59" ry="18"/>
<text text-anchor="middle" x="1839.5" y="-86.3" font-family="Times,serif" font-size="14.00" fill="white">alps</text>
</a>
</g>
</g>
<!-- alps&#45;&gt;conda&#45;forge&#45;pinning -->
<g id="edge45" class="edge">
<title>alps&#45;&gt;conda&#45;forge&#45;pinning</title>
<path fill="none" stroke="black" d="M1815.56,-78.69C1808.85,-76.15 1801.48,-73.68 1794.5,-72 1671.13,-42.33 1525.71,-29.2 1428.36,-23.43"/>
<polygon fill="black" stroke="black" points="1428.39,-19.93 1418.2,-22.85 1427.99,-26.92 1428.39,-19.93"/>
</g>
<!-- spdlib -->
<g id="node31" class="node">
<title>spdlib</title>
<g id="a_node31"><a xlink:href="https://github.com/conda-forge/spdlib-feedstock/pull/15" xlink:title="spdlib">
<ellipse fill="#31688e" stroke="black" cx="1898.5" cy="-162" rx="40.5" ry="18"/>
<text text-anchor="middle" x="1898.5" y="-158.3" font-family="Times,serif" font-size="14.00" fill="white">spdlib</text>
</a>
</g>
</g>
<!-- spdlib&#45;&gt;conda&#45;forge&#45;pinning -->
<g id="edge46" class="edge">
<title>spdlib&#45;&gt;conda&#45;forge&#45;pinning</title>
<path fill="none" stroke="black" d="M1900.3,-143.66C1901.36,-123.25 1899.56,-89.86 1879.5,-72 1846.69,-42.79 1583.73,-28.48 1429.75,-22.54"/>
<polygon fill="black" stroke="black" points="1429.44,-19.02 1419.31,-22.14 1429.17,-26.02 1429.44,-19.02"/>
</g>
<!-- mpb -->
<g id="node32" class="node">
<title>mpb</title>
<g id="a_node32"><a xlink:href="https://github.com/conda-forge/mpb-feedstock/pull/22" xlink:title="mpb">
<ellipse fill="#31688e" stroke="black" cx="435.5" cy="-162" rx="27" ry="18"/>
<text text-anchor="middle" x="435.5" y="-158.3" font-family="Times,serif" font-size="14.00" fill="white">mpb</text>
</a>
</g>
</g>
<!-- mpb&#45;&gt;conda&#45;forge&#45;pinning -->
<g id="edge47" class="edge">
<title>mpb&#45;&gt;conda&#45;forge&#45;pinning</title>
<path fill="none" stroke="black" d="M420.23,-146.71C401.61,-127.62 375.03,-93.68 395.5,-72 422.93,-42.95 966.2,-27.02 1206.18,-21.38"/>
<polygon fill="black" stroke="black" points="1206.42,-24.88 1216.33,-21.15 1206.26,-17.88 1206.42,-24.88"/>
</g>
<!-- mpb&#45;&gt;pymeep -->
<g id="edge48" class="edge">
<title>mpb&#45;&gt;pymeep</title>
<path fill="none" stroke="black" d="M415.22,-149.91C395.3,-139.02 364.57,-122.21 341.02,-109.33"/>
<polygon fill="black" stroke="black" points="342.52,-106.16 332.07,-104.43 339.16,-112.3 342.52,-106.16"/>
</g>
<!-- openpmd&#45;api -->
<g id="node33" class="node">
<title>openpmd&#45;api</title>
<g id="a_node33"><a xlink:href="https://github.com/conda-forge/openpmd-api-feedstock" xlink:title="openpmd api">
<ellipse fill="#fde725" stroke="black" cx="1991.5" cy="-90" rx="64.5" ry="18"/>
<text text-anchor="middle" x="1991.5" y="-86.3" font-family="Times,serif" font-size="14.00">openpmd api</text>
</a>
</g>
</g>
<!-- openpmd&#45;api&#45;&gt;conda&#45;forge&#45;pinning -->
<g id="edge49" class="edge">
<title>openpmd&#45;api&#45;&gt;conda&#45;forge&#45;pinning</title>
<path fill="none" stroke="black" d="M1944.05,-77.8C1933.7,-75.63 1922.76,-73.56 1912.5,-72 1743.66,-46.4 1545.8,-31.79 1426.41,-24.63"/>
<polygon fill="black" stroke="black" points="1426.36,-21.12 1416.17,-24.02 1425.95,-28.11 1426.36,-21.12"/>
</g>
<!-- cmor -->
<g id="node34" class="node">
<title>cmor</title>
<g id="a_node34"><a xlink:href="https://github.com/conda-forge/cmor-feedstock/pull/23" xlink:title="cmor">
<ellipse fill="#31688e" stroke="black" cx="2101.5" cy="-234" rx="30.59" ry="18"/>
<text text-anchor="middle" x="2101.5" y="-230.3" font-family="Times,serif" font-size="14.00" fill="white">cmor</text>
</a>
</g>
</g>
<!-- cmor&#45;&gt;conda&#45;forge&#45;pinning -->
<g id="edge50" class="edge">
<title>cmor&#45;&gt;conda&#45;forge&#45;pinning</title>
<path fill="none" stroke="black" d="M2105.6,-216.13C2112.51,-183.08 2122.13,-109.76 2082.5,-72 2036.5,-28.17 1633.25,-20.24 1431.89,-19.04"/>
<polygon fill="black" stroke="black" points="1431.89,-15.54 1421.87,-18.99 1431.85,-22.54 1431.89,-15.54"/>
</g>
<!-- freecad -->
<g id="node35" class="node">
<title>freecad</title>
<g id="a_node35"><a xlink:href="https://github.com/conda-forge/freecad-feedstock/pull/38" xlink:title="freecad">
<ellipse fill="#31688e" stroke="black" cx="2125.5" cy="-306" rx="45" ry="18"/>
<text text-anchor="middle" x="2125.5" y="-302.3" font-family="Times,serif" font-size="14.00" fill="white">freecad</text>
</a>
</g>
</g>
<!-- freecad&#45;&gt;conda&#45;forge&#45;pinning -->
<g id="edge51" class="edge">
<title>freecad&#45;&gt;conda&#45;forge&#45;pinning</title>
<path fill="none" stroke="black" d="M2131.99,-288.1C2135.58,-277.84 2139.67,-264.36 2141.5,-252 2153.38,-171.54 2170.55,-124.58 2108.5,-72 2058.13,-29.32 1638.38,-20.85 1432.08,-19.28"/>
<polygon fill="black" stroke="black" points="1431.84,-15.78 1421.81,-19.21 1431.79,-22.78 1431.84,-15.78"/>
</g>
<!-- scilab -->
<g id="node36" class="node">
<title>scilab</title>
<g id="a_node36"><a xlink:href="https://github.com/conda-forge/scilab-feedstock/pull/12" xlink:title="scilab">
<ellipse fill="#31688e" stroke="black" cx="2198.5" cy="-378" rx="40.5" ry="18"/>
<text text-anchor="middle" x="2198.5" y="-374.3" font-family="Times,serif" font-size="14.00" fill="white">scilab</text>
</a>
</g>
</g>
<!-- scilab&#45;&gt;conda&#45;forge&#45;pinning -->
<g id="edge52" class="edge">
<title>scilab&#45;&gt;conda&#45;forge&#45;pinning</title>
<path fill="none" stroke="black" d="M2198.5,-359.95C2198.5,-333.29 2198.5,-280.11 2198.5,-235 2198.5,-235 2198.5,-235 2198.5,-161 2198.5,-113.3 2179.87,-95.75 2138.5,-72 2078.7,-37.67 1641.54,-24.97 1431.1,-20.8"/>
<polygon fill="black" stroke="black" points="1431.01,-17.3 1420.95,-20.6 1430.88,-24.3 1431.01,-17.3"/>
</g>
<!-- adios2 -->
<g id="node37" class="node">
<title>adios2</title>
<g id="a_node37"><a xlink:href="https://github.com/conda-forge/adios2-feedstock/pull/11" xlink:title="adios2">
<ellipse fill="#31688e" stroke="black" cx="2025.5" cy="-162" rx="40.5" ry="18"/>
<text text-anchor="middle" x="2025.5" y="-158.3" font-family="Times,serif" font-size="14.00" fill="white">adios2</text>
</a>
</g>
</g>
<!-- adios2&#45;&gt;conda&#45;forge&#45;pinning -->
<g id="edge53" class="edge">
<title>adios2&#45;&gt;conda&#45;forge&#45;pinning</title>
<path fill="none" stroke="black" d="M2041.73,-145.4C2059.87,-126.11 2084.28,-93.23 2064.5,-72 2022.39,-26.8 1630.6,-19.51 1432.32,-18.75"/>
<polygon fill="black" stroke="black" points="1432.16,-15.25 1422.15,-18.72 1432.14,-22.25 1432.16,-15.25"/>
</g>
<!-- adios2&#45;&gt;openpmd&#45;api -->
<g id="edge54" class="edge">
<title>adios2&#45;&gt;openpmd&#45;api</title>
<path fill="none" stroke="black" d="M2017.27,-144.05C2013.4,-136.09 2008.7,-126.41 2004.38,-117.51"/>
<polygon fill="black" stroke="black" points="2007.41,-115.74 1999.89,-108.28 2001.11,-118.8 2007.41,-115.74"/>
</g>
<!-- bonsu -->
<g id="node38" class="node">
<title>bonsu</title>
<g id="a_node38"><a xlink:href="https://github.com/conda-forge/bonsu-feedstock/pull/5" xlink:title="bonsu">
<ellipse fill="#31688e" stroke="black" cx="2261.5" cy="-90" rx="35.19" ry="18"/>
<text text-anchor="middle" x="2261.5" y="-86.3" font-family="Times,serif" font-size="14.00" fill="white">bonsu</text>
</a>
</g>
</g>
<!-- bonsu&#45;&gt;conda&#45;forge&#45;pinning -->
<g id="edge55" class="edge">
<title>bonsu&#45;&gt;conda&#45;forge&#45;pinning</title>
<path fill="none" stroke="black" d="M2234.65,-78.2C2227.56,-75.76 2219.83,-73.46 2212.5,-72 2066.01,-42.83 1635.84,-27.59 1430.32,-21.8"/>
<polygon fill="black" stroke="black" points="1430.2,-18.3 1420.1,-21.52 1430,-25.3 1430.2,-18.3"/>
</g>
<!-- dagmc -->
<g id="node39" class="node">
<title>dagmc</title>
<g id="a_node39"><a xlink:href="https://github.com/conda-forge/dagmc-feedstock/pull/1" xlink:title="dagmc">
<ellipse fill="#31688e" stroke="black" cx="2324.5" cy="-162" rx="35.19" ry="18"/>
<text text-anchor="middle" x="2324.5" y="-158.3" font-family="Times,serif" font-size="14.00" fill="white">dagmc</text>
</a>
</g>
</g>
<!-- dagmc&#45;&gt;conda&#45;forge&#45;pinning -->
<g id="edge57" class="edge">
<title>dagmc&#45;&gt;conda&#45;forge&#45;pinning</title>
<path fill="none" stroke="black" d="M2326.4,-143.88C2327.62,-123.36 2326.04,-89.55 2305.5,-72 2272.71,-43.98 1682.44,-27.28 1430.73,-21.4"/>
<polygon fill="black" stroke="black" points="1430.54,-17.9 1420.46,-21.16 1430.38,-24.89 1430.54,-17.9"/>
</g>
<!-- nccmp -->
<g id="node40" class="node">
<title>nccmp</title>
<g id="a_node40"><a xlink:href="https://github.com/conda-forge/nccmp-feedstock/pull/2" xlink:title="nccmp">
<ellipse fill="#31688e" stroke="black" cx="2387.5" cy="-234" rx="35.19" ry="18"/>
<text text-anchor="middle" x="2387.5" y="-230.3" font-family="Times,serif" font-size="14.00" fill="white">nccmp</text>
</a>
</g>
</g>
<!-- nccmp&#45;&gt;conda&#45;forge&#45;pinning -->
<g id="edge58" class="edge">
<title>nccmp&#45;&gt;conda&#45;forge&#45;pinning</title>
<path fill="none" stroke="black" d="M2387.55,-215.74C2386.58,-180.95 2378.73,-103.1 2329.5,-72 2255.25,-25.1 1680.76,-19.13 1432.34,-18.76"/>
<polygon fill="black" stroke="black" points="1432.21,-15.26 1422.2,-18.75 1432.2,-22.26 1432.21,-15.26"/>
</g>
</g>
</svg>
