<?xml version="1.0" encoding="UTF-8" standalone="no"?>
<!DOCTYPE svg PUBLIC "-//W3C//DTD SVG 1.1//EN"
 "http://www.w3.org/Graphics/SVG/1.1/DTD/svg11.dtd">
<!-- Generated by graphviz version 2.42.3 (20191010.1750)
 -->
<!-- Title: %3 Pages: 1 -->
<svg width="2539pt" height="476pt"
 viewBox="0.00 0.00 2538.60 476.00" xmlns="http://www.w3.org/2000/svg" xmlns:xlink="http://www.w3.org/1999/xlink">
<g id="graph0" class="graph" transform="scale(1 1) rotate(0) translate(4 472)">
<title>%3</title>
<polygon fill="white" stroke="transparent" points="-4,4 -4,-472 2534.6,-472 2534.6,4 -4,4"/>
<!-- caffe -->
<g id="node1" class="node">
<title>caffe</title>
<g id="a_node1"><a xlink:href="https://github.com/conda-forge/caffe-feedstock" xlink:title="caffe">
<ellipse fill="#fde725" stroke="black" cx="1166.5" cy="-378" rx="35.19" ry="18"/>
<text text-anchor="middle" x="1166.5" y="-374.3" font-family="Times,serif" font-size="14.00">caffe</text>
</a>
</g>
</g>
<!-- conda&#45;forge&#45;pinning -->
<g id="node2" class="node">
<title>conda&#45;forge&#45;pinning</title>
<ellipse fill="none" stroke="black" cx="1406.5" cy="-18" rx="103.5" ry="18"/>
<text text-anchor="middle" x="1406.5" y="-14.3" font-family="Times,serif" font-size="14.00">conda&#45;forge&#45;pinning</text>
</g>
<!-- caffe&#45;&gt;conda&#45;forge&#45;pinning -->
<g id="edge1" class="edge">
<title>caffe&#45;&gt;conda&#45;forge&#45;pinning</title>
<path fill="none" stroke="black" d="M1166.5,-359.95C1166.5,-333.29 1166.5,-280.11 1166.5,-235 1166.5,-235 1166.5,-235 1166.5,-161 1166.5,-120.03 1161.2,-100.64 1190.5,-72 1208.88,-54.03 1266.55,-40.42 1317.69,-31.49"/>
<polygon fill="black" stroke="black" points="1318.54,-34.9 1327.81,-29.77 1317.37,-28 1318.54,-34.9"/>
</g>
<!-- cyclus -->
<g id="node3" class="node">
<title>cyclus</title>
<g id="a_node3"><a xlink:href="https://github.com/conda-forge/cyclus-feedstock/pull/56" xlink:title="cyclus">
<ellipse fill="#31688e" stroke="black" cx="40.5" cy="-90" rx="40.5" ry="18"/>
<text text-anchor="middle" x="40.5" y="-86.3" font-family="Times,serif" font-size="14.00" fill="white">cyclus</text>
</a>
</g>
</g>
<!-- cyclus&#45;&gt;conda&#45;forge&#45;pinning -->
<g id="edge2" class="edge">
<title>cyclus&#45;&gt;conda&#45;forge&#45;pinning</title>
<path fill="none" stroke="black" d="M70.99,-78.04C78.88,-75.63 87.42,-73.39 95.5,-72 324.08,-32.74 1018.51,-22.4 1293.06,-19.82"/>
<polygon fill="black" stroke="black" points="1293.47,-23.31 1303.44,-19.72 1293.41,-16.31 1293.47,-23.31"/>
</g>
<!-- fenics -->
<g id="node4" class="node">
<title>fenics</title>
<g id="a_node4"><a xlink:href="https://github.com/conda-forge/fenics-feedstock/pull/107" xlink:title="fenics">
<ellipse fill="#31688e" stroke="black" cx="93.5" cy="-162" rx="40.5" ry="18"/>
<text text-anchor="middle" x="93.5" y="-158.3" font-family="Times,serif" font-size="14.00" fill="white">fenics</text>
</a>
</g>
</g>
<!-- fenics&#45;&gt;conda&#45;forge&#45;pinning -->
<g id="edge3" class="edge">
<title>fenics&#45;&gt;conda&#45;forge&#45;pinning</title>
<path fill="none" stroke="black" d="M98.54,-144.01C105.8,-122.94 121.38,-87.88 148.5,-72 197.46,-43.33 994.62,-26.3 1294.03,-20.89"/>
<polygon fill="black" stroke="black" points="1294.1,-24.39 1304.04,-20.71 1293.98,-17.39 1294.1,-24.39"/>
</g>
<!-- graph -->
<g id="node5" class="node">
<title>graph</title>
<g id="a_node5"><a xlink:href="https://github.com/conda-forge/graph-feedstock/pull/5" xlink:title="graph">
<ellipse fill="#31688e" stroke="black" cx="162.5" cy="-234" rx="35.19" ry="18"/>
<text text-anchor="middle" x="162.5" y="-230.3" font-family="Times,serif" font-size="14.00" fill="white">graph</text>
</a>
</g>
</g>
<!-- graph&#45;&gt;conda&#45;forge&#45;pinning -->
<g id="edge4" class="edge">
<title>graph&#45;&gt;conda&#45;forge&#45;pinning</title>
<path fill="none" stroke="black" d="M161.1,-215.95C159.37,-181.89 161.07,-105.85 206.5,-72 249.65,-39.85 1003.46,-25.09 1293.79,-20.58"/>
<polygon fill="black" stroke="black" points="1293.97,-24.07 1303.92,-20.42 1293.87,-17.07 1293.97,-24.07"/>
</g>
<!-- h5py -->
<g id="node6" class="node">
<title>h5py</title>
<g id="a_node6"><a xlink:href="https://github.com/conda-forge/h5py-feedstock/pull/72" xlink:title="h5py">
<ellipse fill="#31688e" stroke="black" cx="937.5" cy="-450" rx="30.59" ry="18"/>
<text text-anchor="middle" x="937.5" y="-446.3" font-family="Times,serif" font-size="14.00" fill="white">h5py</text>
</a>
</g>
</g>
<!-- h5py&#45;&gt;caffe -->
<g id="edge5" class="edge">
<title>h5py&#45;&gt;caffe</title>
<path fill="none" stroke="black" d="M964.46,-441.5C999.76,-431.57 1063.52,-413.3 1117.5,-396 1121.25,-394.8 1125.15,-393.51 1129.04,-392.2"/>
<polygon fill="black" stroke="black" points="1130.26,-395.48 1138.59,-388.94 1128,-388.86 1130.26,-395.48"/>
</g>
<!-- h5py&#45;&gt;conda&#45;forge&#45;pinning -->
<g id="edge6" class="edge">
<title>h5py&#45;&gt;conda&#45;forge&#45;pinning</title>
<path fill="none" stroke="black" d="M968.02,-447.78C1032.67,-444.47 1180.02,-432.97 1210.5,-396 1220.68,-383.66 1210.88,-376 1210.5,-360 1209.17,-304.4 1204.5,-290.62 1204.5,-235 1204.5,-235 1204.5,-235 1204.5,-161 1204.5,-114.03 1224.85,-101.38 1261.5,-72 1282.36,-55.28 1308.98,-43.54 1333.71,-35.44"/>
<polygon fill="black" stroke="black" points="1334.93,-38.72 1343.43,-32.4 1332.85,-32.04 1334.93,-38.72"/>
</g>
<!-- openmc -->
<g id="node7" class="node">
<title>openmc</title>
<g id="a_node7"><a xlink:href="https://github.com/conda-forge/openmc-feedstock" xlink:title="openmc">
<ellipse fill="#fde725" stroke="black" cx="1273.5" cy="-306" rx="40.5" ry="18"/>
<text text-anchor="middle" x="1273.5" y="-302.3" font-family="Times,serif" font-size="14.00">openmc</text>
</a>
</g>
</g>
<!-- h5py&#45;&gt;openmc -->
<g id="edge7" class="edge">
<title>h5py&#45;&gt;openmc</title>
<path fill="none" stroke="black" d="M967.85,-447.61C1036.77,-443.86 1202.31,-431.31 1243.5,-396 1261.34,-380.71 1268.6,-354.43 1271.54,-334.38"/>
<polygon fill="black" stroke="black" points="1275.04,-334.62 1272.74,-324.28 1268.09,-333.79 1275.04,-334.62"/>
</g>
<!-- rsgislib -->
<g id="node8" class="node">
<title>rsgislib</title>
<g id="a_node8"><a xlink:href="https://github.com/conda-forge/rsgislib-feedstock" xlink:title="rsgislib">
<ellipse fill="#fde725" stroke="black" cx="1320.5" cy="-234" rx="50.09" ry="18"/>
<text text-anchor="middle" x="1320.5" y="-230.3" font-family="Times,serif" font-size="14.00">rsgislib</text>
</a>
</g>
</g>
<!-- h5py&#45;&gt;rsgislib -->
<g id="edge8" class="edge">
<title>h5py&#45;&gt;rsgislib</title>
<path fill="none" stroke="black" d="M967.79,-447.09C1039.79,-442.09 1218.91,-426.83 1269.5,-396 1303.43,-375.32 1310.1,-361.75 1322.5,-324 1329.04,-304.09 1328.09,-280.29 1325.75,-262.32"/>
<polygon fill="black" stroke="black" points="1329.18,-261.59 1324.21,-252.23 1322.26,-262.64 1329.18,-261.59"/>
</g>
<!-- h5utils -->
<g id="node9" class="node">
<title>h5utils</title>
<g id="a_node9"><a xlink:href="https://github.com/conda-forge/h5utils-feedstock" xlink:title="h5utils">
<ellipse fill="#fde725" stroke="black" cx="235.5" cy="-162" rx="45" ry="18"/>
<text text-anchor="middle" x="235.5" y="-158.3" font-family="Times,serif" font-size="14.00">h5utils</text>
</a>
</g>
</g>
<!-- h5py&#45;&gt;h5utils -->
<g id="edge9" class="edge">
<title>h5py&#45;&gt;h5utils</title>
<path fill="none" stroke="black" d="M906.97,-448.53C785.61,-446.41 341.68,-435.94 294.5,-396 233.65,-344.49 230.77,-240.09 233.22,-190.44"/>
<polygon fill="black" stroke="black" points="236.73,-190.35 233.84,-180.16 229.74,-189.92 236.73,-190.35"/>
</g>
<!-- pymeep -->
<g id="node10" class="node">
<title>pymeep</title>
<g id="a_node10"><a xlink:href="https://github.com/conda-forge/pymeep-feedstock" xlink:title="pymeep">
<ellipse fill="#fde725" stroke="black" cx="269.5" cy="-90" rx="40.5" ry="18"/>
<text text-anchor="middle" x="269.5" y="-86.3" font-family="Times,serif" font-size="14.00">pymeep</text>
</a>
</g>
</g>
<!-- h5py&#45;&gt;pymeep -->
<g id="edge10" class="edge">
<title>h5py&#45;&gt;pymeep</title>
<path fill="none" stroke="black" d="M906.74,-448.72C780.45,-446.76 308.5,-431.12 308.5,-307 308.5,-307 308.5,-307 308.5,-233 308.5,-191.56 292.86,-145.67 281.39,-117.58"/>
<polygon fill="black" stroke="black" points="284.5,-115.93 277.39,-108.07 278.05,-118.65 284.5,-115.93"/>
</g>
<!-- blosc&#45;hdf5&#45;plugin -->
<g id="node11" class="node">
<title>blosc&#45;hdf5&#45;plugin</title>
<g id="a_node11"><a xlink:href="https://github.com/conda-forge/blosc-hdf5-plugin-feedstock" xlink:title="blosc hdf5 plugin">
<ellipse fill="#fde725" stroke="black" cx="460.5" cy="-90" rx="93.68" ry="18"/>
<text text-anchor="middle" x="460.5" y="-86.3" font-family="Times,serif" font-size="14.00">blosc hdf5 plugin</text>
</a>
</g>
</g>
<!-- h5py&#45;&gt;blosc&#45;hdf5&#45;plugin -->
<g id="edge11" class="edge">
<title>h5py&#45;&gt;blosc&#45;hdf5&#45;plugin</title>
<path fill="none" stroke="black" d="M907.31,-446.61C835.5,-440.53 656.59,-423.06 603.5,-396 553.66,-370.6 514.5,-362.94 514.5,-307 514.5,-307 514.5,-307 514.5,-233 514.5,-190.11 492.71,-144.41 476.81,-116.78"/>
<polygon fill="black" stroke="black" points="479.8,-114.95 471.69,-108.13 473.78,-118.52 479.8,-114.95"/>
</g>
<!-- isce2 -->
<g id="node12" class="node">
<title>isce2</title>
<g id="a_node12"><a xlink:href="https://github.com/conda-forge/isce2-feedstock" xlink:title="isce2">
<ellipse fill="#fde725" stroke="black" cx="607.5" cy="-90" rx="35.19" ry="18"/>
<text text-anchor="middle" x="607.5" y="-86.3" font-family="Times,serif" font-size="14.00">isce2</text>
</a>
</g>
</g>
<!-- h5py&#45;&gt;isce2 -->
<g id="edge12" class="edge">
<title>h5py&#45;&gt;isce2</title>
<path fill="none" stroke="black" d="M906.89,-448.02C836.55,-445.13 666.37,-434.25 626.5,-396 597.31,-368 607.5,-347.45 607.5,-307 607.5,-307 607.5,-307 607.5,-233 607.5,-193 607.5,-146.65 607.5,-118.08"/>
<polygon fill="black" stroke="black" points="611,-118.05 607.5,-108.05 604,-118.05 611,-118.05"/>
</g>
<!-- bitshuffle -->
<g id="node13" class="node">
<title>bitshuffle</title>
<g id="a_node13"><a xlink:href="https://github.com/conda-forge/bitshuffle-feedstock" xlink:title="bitshuffle">
<ellipse fill="#fde725" stroke="black" cx="695.5" cy="-378" rx="60" ry="18"/>
<text text-anchor="middle" x="695.5" y="-374.3" font-family="Times,serif" font-size="14.00">bitshuffle</text>
</a>
</g>
</g>
<!-- h5py&#45;&gt;bitshuffle -->
<g id="edge13" class="edge">
<title>h5py&#45;&gt;bitshuffle</title>
<path fill="none" stroke="black" d="M910.68,-441.24C871.22,-429.83 796.8,-408.3 746.68,-393.8"/>
<polygon fill="black" stroke="black" points="747.57,-390.42 736.99,-391 745.63,-397.14 747.57,-390.42"/>
</g>
<!-- triqs -->
<g id="node14" class="node">
<title>triqs</title>
<g id="a_node14"><a xlink:href="https://github.com/conda-forge/triqs-feedstock" xlink:title="triqs">
<ellipse fill="#fde725" stroke="black" cx="783.5" cy="-162" rx="35.19" ry="18"/>
<text text-anchor="middle" x="783.5" y="-158.3" font-family="Times,serif" font-size="14.00">triqs</text>
</a>
</g>
</g>
<!-- h5py&#45;&gt;triqs -->
<g id="edge14" class="edge">
<title>h5py&#45;&gt;triqs</title>
<path fill="none" stroke="black" d="M916.79,-436.69C885.97,-417.13 828.86,-375.81 802.5,-324 780.71,-281.18 779.53,-223.88 781.17,-190.45"/>
<polygon fill="black" stroke="black" points="784.68,-190.28 781.8,-180.08 777.7,-189.85 784.68,-190.28"/>
</g>
<!-- hdf5plugin -->
<g id="node15" class="node">
<title>hdf5plugin</title>
<g id="a_node15"><a xlink:href="https://github.com/conda-forge/hdf5plugin-feedstock" xlink:title="hdf5plugin">
<ellipse fill="#fde725" stroke="black" cx="871.5" cy="-306" rx="60" ry="18"/>
<text text-anchor="middle" x="871.5" y="-302.3" font-family="Times,serif" font-size="14.00">hdf5plugin</text>
</a>
</g>
</g>
<!-- h5py&#45;&gt;hdf5plugin -->
<g id="edge15" class="edge">
<title>h5py&#45;&gt;hdf5plugin</title>
<path fill="none" stroke="black" d="M929.8,-432.43C918.44,-407.98 897.07,-362 883.6,-333.02"/>
<polygon fill="black" stroke="black" points="886.74,-331.49 879.36,-323.9 880.4,-334.45 886.74,-331.49"/>
</g>
<!-- prismatic_split -->
<g id="node16" class="node">
<title>prismatic_split</title>
<g id="a_node16"><a xlink:href="https://github.com/conda-forge/prismatic_split-feedstock" xlink:title="prismatic_split">
<ellipse fill="#fde725" stroke="black" cx="955.5" cy="-234" rx="84" ry="18"/>
<text text-anchor="middle" x="955.5" y="-230.3" font-family="Times,serif" font-size="14.00">prismatic_split</text>
</a>
</g>
</g>
<!-- h5py&#45;&gt;prismatic_split -->
<g id="edge16" class="edge">
<title>h5py&#45;&gt;prismatic_split</title>
<path fill="none" stroke="black" d="M938.94,-431.85C942.06,-394.83 949.43,-307.18 953.2,-262.39"/>
<polygon fill="black" stroke="black" points="956.7,-262.49 954.05,-252.23 949.72,-261.9 956.7,-262.49"/>
</g>
<!-- digital_rf -->
<g id="node17" class="node">
<title>digital_rf</title>
<g id="a_node17"><a xlink:href="https://github.com/conda-forge/digital_rf-feedstock" xlink:title="digital_rf">
<ellipse fill="#fde725" stroke="black" cx="1019.5" cy="-162" rx="60" ry="18"/>
<text text-anchor="middle" x="1019.5" y="-158.3" font-family="Times,serif" font-size="14.00">digital_rf</text>
</a>
</g>
</g>
<!-- h5py&#45;&gt;digital_rf -->
<g id="edge17" class="edge">
<title>h5py&#45;&gt;digital_rf</title>
<path fill="none" stroke="black" d="M950.09,-433.39C974.84,-401.59 1029.08,-326.05 1048.5,-252 1052.56,-236.52 1052.46,-231.5 1048.5,-216 1046.06,-206.45 1041.5,-196.76 1036.71,-188.33"/>
<polygon fill="black" stroke="black" points="1039.68,-186.49 1031.51,-179.74 1033.69,-190.11 1039.68,-186.49"/>
</g>
<!-- pp&#45;sketchlib -->
<g id="node18" class="node">
<title>pp&#45;sketchlib</title>
<g id="a_node18"><a xlink:href="https://github.com/conda-forge/pp-sketchlib-feedstock" xlink:title="pp sketchlib">
<ellipse fill="#fde725" stroke="black" cx="1068.5" cy="-90" rx="69.59" ry="18"/>
<text text-anchor="middle" x="1068.5" y="-86.3" font-family="Times,serif" font-size="14.00">pp sketchlib</text>
</a>
</g>
</g>
<!-- h5py&#45;&gt;pp&#45;sketchlib -->
<g id="edge18" class="edge">
<title>h5py&#45;&gt;pp&#45;sketchlib</title>
<path fill="none" stroke="black" d="M957.45,-436.16C971.55,-426.37 990.23,-411.91 1003.5,-396 1026.81,-368.06 1028.23,-357.48 1042.5,-324 1074.87,-248.04 1103.32,-225.23 1088.5,-144 1086.89,-135.2 1083.9,-125.95 1080.71,-117.7"/>
<polygon fill="black" stroke="black" points="1083.85,-116.12 1076.81,-108.21 1077.38,-118.79 1083.85,-116.12"/>
</g>
<!-- openmc&#45;&gt;conda&#45;forge&#45;pinning -->
<g id="edge19" class="edge">
<title>openmc&#45;&gt;conda&#45;forge&#45;pinning</title>
<path fill="none" stroke="black" d="M1268.33,-287.84C1256.83,-245.94 1233.99,-137.12 1284.5,-72 1297.27,-55.53 1316.2,-44.09 1335.35,-36.18"/>
<polygon fill="black" stroke="black" points="1336.67,-39.42 1344.75,-32.57 1334.16,-32.89 1336.67,-39.42"/>
</g>
<!-- rsgislib&#45;&gt;conda&#45;forge&#45;pinning -->
<g id="edge20" class="edge">
<title>rsgislib&#45;&gt;conda&#45;forge&#45;pinning</title>
<path fill="none" stroke="black" d="M1311.64,-215.98C1296.77,-184.85 1271.11,-117.75 1299.5,-72 1309.18,-56.4 1324.98,-45.24 1341.5,-37.33"/>
<polygon fill="black" stroke="black" points="1342.98,-40.5 1350.72,-33.26 1340.15,-34.1 1342.98,-40.5"/>
</g>
<!-- h5utils&#45;&gt;conda&#45;forge&#45;pinning -->
<g id="edge21" class="edge">
<title>h5utils&#45;&gt;conda&#45;forge&#45;pinning</title>
<path fill="none" stroke="black" d="M225.05,-144.15C214.16,-124.21 201.05,-91.29 219.5,-72 256.24,-33.58 1003.76,-22.67 1293.31,-19.88"/>
<polygon fill="black" stroke="black" points="1293.45,-23.37 1303.41,-19.78 1293.38,-16.37 1293.45,-23.37"/>
</g>
<!-- h5utils&#45;&gt;pymeep -->
<g id="edge22" class="edge">
<title>h5utils&#45;&gt;pymeep</title>
<path fill="none" stroke="black" d="M243.73,-144.05C247.7,-135.89 252.54,-125.91 256.96,-116.82"/>
<polygon fill="black" stroke="black" points="260.12,-118.31 261.35,-107.79 253.83,-115.25 260.12,-118.31"/>
</g>
<!-- pymeep&#45;&gt;conda&#45;forge&#45;pinning -->
<g id="edge23" class="edge">
<title>pymeep&#45;&gt;conda&#45;forge&#45;pinning</title>
<path fill="none" stroke="black" d="M300,-78.09C307.89,-75.68 316.43,-73.42 324.5,-72 508.01,-39.67 1055.7,-25.64 1293.84,-20.94"/>
<polygon fill="black" stroke="black" points="1293.98,-24.44 1303.91,-20.75 1293.84,-17.44 1293.98,-24.44"/>
</g>
<!-- blosc&#45;hdf5&#45;plugin&#45;&gt;conda&#45;forge&#45;pinning -->
<g id="edge24" class="edge">
<title>blosc&#45;hdf5&#45;plugin&#45;&gt;conda&#45;forge&#45;pinning</title>
<path fill="none" stroke="black" d="M526.3,-77.13C538.63,-75.19 551.43,-73.37 563.5,-72 824.77,-42.3 1133.62,-28.2 1295.22,-22.42"/>
<polygon fill="black" stroke="black" points="1295.77,-25.91 1305.64,-22.05 1295.53,-18.91 1295.77,-25.91"/>
</g>
<!-- isce2&#45;&gt;conda&#45;forge&#45;pinning -->
<g id="edge25" class="edge">
<title>isce2&#45;&gt;conda&#45;forge&#45;pinning</title>
<path fill="none" stroke="black" d="M634.36,-78.26C641.45,-75.82 649.18,-73.5 656.5,-72 775.59,-47.58 1118.41,-30.64 1296.36,-23.22"/>
<polygon fill="black" stroke="black" points="1296.68,-26.71 1306.53,-22.8 1296.39,-19.72 1296.68,-26.71"/>
</g>
<!-- bitshuffle&#45;&gt;conda&#45;forge&#45;pinning -->
<g id="edge26" class="edge">
<title>bitshuffle&#45;&gt;conda&#45;forge&#45;pinning</title>
<path fill="none" stroke="black" d="M690.44,-359.68C683.14,-333.11 670.5,-280.56 670.5,-235 670.5,-235 670.5,-235 670.5,-161 670.5,-120.55 659.02,-98.58 689.5,-72 733.89,-33.29 1102.59,-22.85 1293.24,-20.04"/>
<polygon fill="black" stroke="black" points="1293.35,-23.54 1303.3,-19.89 1293.25,-16.54 1293.35,-23.54"/>
</g>
<!-- triqs&#45;&gt;conda&#45;forge&#45;pinning -->
<g id="edge27" class="edge">
<title>triqs&#45;&gt;conda&#45;forge&#45;pinning</title>
<path fill="none" stroke="black" d="M799.12,-145.65C823.99,-121.36 870.8,-76.35 880.5,-72 952.13,-39.89 1162.85,-27.03 1294.83,-22.03"/>
<polygon fill="black" stroke="black" points="1295.11,-25.52 1304.98,-21.65 1294.85,-18.53 1295.11,-25.52"/>
</g>
<!-- triqs_cthyb -->
<g id="node19" class="node">
<title>triqs_cthyb</title>
<g id="a_node19"><a xlink:href="https://github.com/conda-forge/triqs_cthyb-feedstock" xlink:title="triqs_cthyb">
<ellipse fill="#fde725" stroke="black" cx="763.5" cy="-90" rx="64.5" ry="18"/>
<text text-anchor="middle" x="763.5" y="-86.3" font-family="Times,serif" font-size="14.00">triqs_cthyb</text>
</a>
</g>
</g>
<!-- triqs&#45;&gt;triqs_cthyb -->
<g id="edge28" class="edge">
<title>triqs&#45;&gt;triqs_cthyb</title>
<path fill="none" stroke="black" d="M778.66,-144.05C776.43,-136.26 773.73,-126.82 771.24,-118.08"/>
<polygon fill="black" stroke="black" points="774.55,-116.93 768.44,-108.28 767.82,-118.85 774.55,-116.93"/>
</g>
<!-- hdf5plugin&#45;&gt;conda&#45;forge&#45;pinning -->
<g id="edge29" class="edge">
<title>hdf5plugin&#45;&gt;conda&#45;forge&#45;pinning</title>
<path fill="none" stroke="black" d="M866.09,-287.94C861.17,-269.79 855.64,-240.37 862.5,-216 882.81,-143.8 887.31,-112.41 950.5,-72 1005.63,-36.74 1177.66,-24.91 1293.94,-20.96"/>
<polygon fill="black" stroke="black" points="1294.08,-24.45 1303.96,-20.63 1293.85,-17.46 1294.08,-24.45"/>
</g>
<!-- prismatic_split&#45;&gt;conda&#45;forge&#45;pinning -->
<g id="edge30" class="edge">
<title>prismatic_split&#45;&gt;conda&#45;forge&#45;pinning</title>
<path fill="none" stroke="black" d="M951.45,-215.96C944.5,-181.92 934.95,-105.91 978.5,-72 1026.05,-34.98 1183.03,-23.56 1293.02,-20.18"/>
<polygon fill="black" stroke="black" points="1293.28,-23.68 1303.18,-19.89 1293.08,-16.68 1293.28,-23.68"/>
</g>
<!-- digital_rf&#45;&gt;conda&#45;forge&#45;pinning -->
<g id="edge31" class="edge">
<title>digital_rf&#45;&gt;conda&#45;forge&#45;pinning</title>
<path fill="none" stroke="black" d="M1005.15,-144.31C990.19,-124.84 971.28,-92.68 989.5,-72 1009.77,-48.99 1183.22,-33.34 1299.94,-25.32"/>
<polygon fill="black" stroke="black" points="1300.26,-28.8 1310,-24.63 1299.79,-21.82 1300.26,-28.8"/>
</g>
<!-- pp&#45;sketchlib&#45;&gt;conda&#45;forge&#45;pinning -->
<g id="edge32" class="edge">
<title>pp&#45;sketchlib&#45;&gt;conda&#45;forge&#45;pinning</title>
<path fill="none" stroke="black" d="M1120.94,-78.14C1177.7,-66.38 1268.67,-47.54 1332.65,-34.29"/>
<polygon fill="black" stroke="black" points="1333.6,-37.67 1342.68,-32.22 1332.18,-30.82 1333.6,-37.67"/>
</g>
<!-- triqs_cthyb&#45;&gt;conda&#45;forge&#45;pinning -->
<g id="edge58" class="edge">
<title>triqs_cthyb&#45;&gt;conda&#45;forge&#45;pinning</title>
<path fill="none" stroke="black" d="M811.38,-77.75C821.6,-75.61 832.38,-73.56 842.5,-72 1000.9,-47.6 1186.17,-32.79 1299.92,-25.25"/>
<polygon fill="black" stroke="black" points="1300.27,-28.73 1310.02,-24.58 1299.81,-21.75 1300.27,-28.73"/>
</g>
<!-- hdfeos5 -->
<g id="node20" class="node">
<title>hdfeos5</title>
<g id="a_node20"><a xlink:href="https://github.com/conda-forge/hdfeos5-feedstock/pull/27" xlink:title="hdfeos5">
<ellipse fill="#31688e" stroke="black" cx="1433.5" cy="-234" rx="45" ry="18"/>
<text text-anchor="middle" x="1433.5" y="-230.3" font-family="Times,serif" font-size="14.00" fill="white">hdfeos5</text>
</a>
</g>
</g>
<!-- hdfeos5&#45;&gt;conda&#45;forge&#45;pinning -->
<g id="edge33" class="edge">
<title>hdfeos5&#45;&gt;conda&#45;forge&#45;pinning</title>
<path fill="none" stroke="black" d="M1426.46,-216.13C1422.51,-205.88 1417.91,-192.4 1415.5,-180 1406.53,-133.78 1405.46,-78.81 1405.79,-46.53"/>
<polygon fill="black" stroke="black" points="1409.29,-46.16 1405.95,-36.11 1402.29,-46.05 1409.29,-46.16"/>
</g>
<!-- ncl -->
<g id="node21" class="node">
<title>ncl</title>
<g id="a_node21"><a xlink:href="https://github.com/conda-forge/ncl-feedstock" xlink:title="ncl">
<ellipse fill="#fde725" stroke="black" cx="1451.5" cy="-162" rx="27" ry="18"/>
<text text-anchor="middle" x="1451.5" y="-158.3" font-family="Times,serif" font-size="14.00">ncl</text>
</a>
</g>
</g>
<!-- hdfeos5&#45;&gt;ncl -->
<g id="edge34" class="edge">
<title>hdfeos5&#45;&gt;ncl</title>
<path fill="none" stroke="black" d="M1437.86,-216.05C1439.89,-208.14 1442.36,-198.54 1444.64,-189.69"/>
<polygon fill="black" stroke="black" points="1448.08,-190.35 1447.18,-179.79 1441.3,-188.6 1448.08,-190.35"/>
</g>
<!-- pynio -->
<g id="node22" class="node">
<title>pynio</title>
<g id="a_node22"><a xlink:href="https://github.com/conda-forge/pynio-feedstock" xlink:title="pynio">
<ellipse fill="#fde725" stroke="black" cx="1343.5" cy="-90" rx="35.19" ry="18"/>
<text text-anchor="middle" x="1343.5" y="-86.3" font-family="Times,serif" font-size="14.00">pynio</text>
</a>
</g>
</g>
<!-- hdfeos5&#45;&gt;pynio -->
<g id="edge35" class="edge">
<title>hdfeos5&#45;&gt;pynio</title>
<path fill="none" stroke="black" d="M1415.31,-217.15C1404.74,-207.25 1391.73,-193.8 1382.5,-180 1369.44,-160.48 1359.05,-135.87 1352.29,-117.48"/>
<polygon fill="black" stroke="black" points="1355.56,-116.22 1348.91,-107.97 1348.96,-118.57 1355.56,-116.22"/>
</g>
<!-- ncl&#45;&gt;conda&#45;forge&#45;pinning -->
<g id="edge36" class="edge">
<title>ncl&#45;&gt;conda&#45;forge&#45;pinning</title>
<path fill="none" stroke="black" d="M1446.16,-144.15C1438.49,-119.94 1424.26,-75.05 1415.1,-46.13"/>
<polygon fill="black" stroke="black" points="1418.33,-44.74 1411.97,-36.27 1411.66,-46.86 1418.33,-44.74"/>
</g>
<!-- pynio&#45;&gt;conda&#45;forge&#45;pinning -->
<g id="edge37" class="edge">
<title>pynio&#45;&gt;conda&#45;forge&#45;pinning</title>
<path fill="none" stroke="black" d="M1357.48,-73.46C1365.38,-64.69 1375.42,-53.53 1384.36,-43.6"/>
<polygon fill="black" stroke="black" points="1387.15,-45.74 1391.23,-35.96 1381.94,-41.05 1387.15,-45.74"/>
</g>
<!-- hyperion&#45;fortran -->
<g id="node23" class="node">
<title>hyperion&#45;fortran</title>
<g id="a_node23"><a xlink:href="https://github.com/conda-forge/hyperion-fortran-feedstock/pull/18" xlink:title="hyperion fortran">
<ellipse fill="#31688e" stroke="black" cx="1459.5" cy="-306" rx="89.08" ry="18"/>
<text text-anchor="middle" x="1459.5" y="-302.3" font-family="Times,serif" font-size="14.00" fill="white">hyperion fortran</text>
</a>
</g>
</g>
<!-- hyperion&#45;fortran&#45;&gt;conda&#45;forge&#45;pinning -->
<g id="edge38" class="edge">
<title>hyperion&#45;fortran&#45;&gt;conda&#45;forge&#45;pinning</title>
<path fill="none" stroke="black" d="M1471.39,-287.72C1477.51,-277.76 1484.34,-264.73 1487.5,-252 1499.05,-205.41 1500.5,-190.21 1487.5,-144 1476.6,-105.25 1449.01,-67.42 1429.06,-43.7"/>
<polygon fill="black" stroke="black" points="1431.54,-41.22 1422.36,-35.93 1426.23,-45.79 1431.54,-41.22"/>
</g>
<!-- marray -->
<g id="node24" class="node">
<title>marray</title>
<g id="a_node24"><a xlink:href="https://github.com/conda-forge/marray-feedstock/pull/8" xlink:title="marray">
<ellipse fill="#31688e" stroke="black" cx="1576.5" cy="-378" rx="40.5" ry="18"/>
<text text-anchor="middle" x="1576.5" y="-374.3" font-family="Times,serif" font-size="14.00" fill="white">marray</text>
</a>
</g>
</g>
<!-- marray&#45;&gt;conda&#45;forge&#45;pinning -->
<g id="edge39" class="edge">
<title>marray&#45;&gt;conda&#45;forge&#45;pinning</title>
<path fill="none" stroke="black" d="M1574.86,-360C1569.34,-310.65 1547.58,-164.96 1476.5,-72 1467.48,-60.21 1455.2,-49.72 1443.44,-41.25"/>
<polygon fill="black" stroke="black" points="1445.24,-38.24 1435.02,-35.45 1441.27,-44 1445.24,-38.24"/>
</g>
<!-- octave -->
<g id="node25" class="node">
<title>octave</title>
<g id="a_node25"><a xlink:href="https://github.com/conda-forge/octave-feedstock/pull/39" xlink:title="octave">
<ellipse fill="#31688e" stroke="black" cx="1589.5" cy="-90" rx="40.5" ry="18"/>
<text text-anchor="middle" x="1589.5" y="-86.3" font-family="Times,serif" font-size="14.00" fill="white">octave</text>
</a>
</g>
</g>
<!-- octave&#45;&gt;conda&#45;forge&#45;pinning -->
<g id="edge40" class="edge">
<title>octave&#45;&gt;conda&#45;forge&#45;pinning</title>
<path fill="none" stroke="black" d="M1559.69,-77.6C1531.85,-66.95 1489.75,-50.85 1456.73,-38.21"/>
<polygon fill="black" stroke="black" points="1457.83,-34.89 1447.24,-34.58 1455.33,-41.42 1457.83,-34.89"/>
</g>
<!-- pyne -->
<g id="node26" class="node">
<title>pyne</title>
<g id="a_node26"><a xlink:href="https://github.com/conda-forge/pyne-feedstock/pull/40" xlink:title="pyne">
<ellipse fill="#31688e" stroke="black" cx="1637.5" cy="-162" rx="30.59" ry="18"/>
<text text-anchor="middle" x="1637.5" y="-158.3" font-family="Times,serif" font-size="14.00" fill="white">pyne</text>
</a>
</g>
</g>
<!-- pyne&#45;&gt;conda&#45;forge&#45;pinning -->
<g id="edge41" class="edge">
<title>pyne&#45;&gt;conda&#45;forge&#45;pinning</title>
<path fill="none" stroke="black" d="M1643.41,-144.22C1649.13,-124.67 1654.78,-92.42 1638.5,-72 1621.37,-50.52 1559.41,-37.05 1503.83,-29.07"/>
<polygon fill="black" stroke="black" points="1504.28,-25.6 1493.9,-27.69 1503.32,-32.53 1504.28,-25.6"/>
</g>
<!-- r&#45;hdf5r -->
<g id="node27" class="node">
<title>r&#45;hdf5r</title>
<g id="a_node27"><a xlink:href="https://github.com/conda-forge/r-hdf5r-feedstock/pull/12" xlink:title="r hdf5r">
<ellipse fill="#31688e" stroke="black" cx="1661.5" cy="-234" rx="45" ry="18"/>
<text text-anchor="middle" x="1661.5" y="-230.3" font-family="Times,serif" font-size="14.00" fill="white">r hdf5r</text>
</a>
</g>
</g>
<!-- r&#45;hdf5r&#45;&gt;conda&#45;forge&#45;pinning -->
<g id="edge42" class="edge">
<title>r&#45;hdf5r&#45;&gt;conda&#45;forge&#45;pinning</title>
<path fill="none" stroke="black" d="M1667.89,-216.08C1679.17,-182.94 1697.91,-109.46 1658.5,-72 1636.25,-50.85 1565.33,-37.14 1504.37,-28.97"/>
<polygon fill="black" stroke="black" points="1504.66,-25.48 1494.3,-27.66 1503.76,-32.42 1504.66,-25.48"/>
</g>
<!-- r&#45;ncdf4 -->
<g id="node28" class="node">
<title>r&#45;ncdf4</title>
<g id="a_node28"><a xlink:href="https://github.com/conda-forge/r-ncdf4-feedstock/pull/20" xlink:title="r ncdf4">
<ellipse fill="#31688e" stroke="black" cx="1699.5" cy="-306" rx="45" ry="18"/>
<text text-anchor="middle" x="1699.5" y="-302.3" font-family="Times,serif" font-size="14.00" fill="white">r ncdf4</text>
</a>
</g>
</g>
<!-- r&#45;ncdf4&#45;&gt;conda&#45;forge&#45;pinning -->
<g id="edge43" class="edge">
<title>r&#45;ncdf4&#45;&gt;conda&#45;forge&#45;pinning</title>
<path fill="none" stroke="black" d="M1705.99,-288.1C1709.58,-277.84 1713.67,-264.36 1715.5,-252 1727.37,-171.62 1741.8,-128.6 1683.5,-72 1658.81,-48.03 1577.7,-34.4 1509.58,-26.99"/>
<polygon fill="black" stroke="black" points="1509.95,-23.51 1499.63,-25.94 1509.21,-30.47 1509.95,-23.51"/>
</g>
<!-- shogun -->
<g id="node29" class="node">
<title>shogun</title>
<g id="a_node29"><a xlink:href="https://github.com/conda-forge/shogun-feedstock/pull/20" xlink:title="shogun">
<ellipse fill="#31688e" stroke="black" cx="1772.5" cy="-378" rx="40.5" ry="18"/>
<text text-anchor="middle" x="1772.5" y="-374.3" font-family="Times,serif" font-size="14.00" fill="white">shogun</text>
</a>
</g>
</g>
<!-- shogun&#45;&gt;conda&#45;forge&#45;pinning -->
<g id="edge44" class="edge">
<title>shogun&#45;&gt;conda&#45;forge&#45;pinning</title>
<path fill="none" stroke="black" d="M1772.5,-359.95C1772.5,-333.29 1772.5,-280.11 1772.5,-235 1772.5,-235 1772.5,-235 1772.5,-161 1772.5,-113.05 1751.85,-97.92 1711.5,-72 1678.18,-50.59 1582.13,-36.27 1506.63,-27.97"/>
<polygon fill="black" stroke="black" points="1506.91,-24.48 1496.59,-26.88 1506.16,-31.44 1506.91,-24.48"/>
</g>
<!-- vigra -->
<g id="node30" class="node">
<title>vigra</title>
<g id="a_node30"><a xlink:href="https://github.com/conda-forge/vigra-feedstock/pull/54" xlink:title="vigra">
<ellipse fill="#31688e" stroke="black" cx="1835.5" cy="-90" rx="35.19" ry="18"/>
<text text-anchor="middle" x="1835.5" y="-86.3" font-family="Times,serif" font-size="14.00" fill="white">vigra</text>
</a>
</g>
</g>
<!-- vigra&#45;&gt;conda&#45;forge&#45;pinning -->
<g id="edge45" class="edge">
<title>vigra&#45;&gt;conda&#45;forge&#45;pinning</title>
<path fill="none" stroke="black" d="M1808.31,-78.51C1801.29,-76.09 1793.68,-73.73 1786.5,-72 1693.38,-49.58 1584.98,-35.62 1507.84,-27.7"/>
<polygon fill="black" stroke="black" points="1507.95,-24.19 1497.65,-26.67 1507.24,-31.16 1507.95,-24.19"/>
</g>
<!-- yaafe -->
<g id="node31" class="node">
<title>yaafe</title>
<g id="a_node31"><a xlink:href="https://github.com/conda-forge/yaafe-feedstock/pull/9" xlink:title="yaafe">
<ellipse fill="#31688e" stroke="black" cx="1873.5" cy="-162" rx="35.19" ry="18"/>
<text text-anchor="middle" x="1873.5" y="-158.3" font-family="Times,serif" font-size="14.00" fill="white">yaafe</text>
</a>
</g>
</g>
<!-- yaafe&#45;&gt;conda&#45;forge&#45;pinning -->
<g id="edge46" class="edge">
<title>yaafe&#45;&gt;conda&#45;forge&#45;pinning</title>
<path fill="none" stroke="black" d="M1881.02,-144.26C1888.64,-124.43 1897.05,-91.63 1879.5,-72 1855.68,-45.36 1648.06,-30.52 1515.92,-23.7"/>
<polygon fill="black" stroke="black" points="1515.92,-20.2 1505.76,-23.18 1515.57,-27.19 1515.92,-20.2"/>
</g>
<!-- alps -->
<g id="node32" class="node">
<title>alps</title>
<g id="a_node32"><a xlink:href="https://github.com/conda-forge/alps-feedstock/pull/31" xlink:title="alps">
<ellipse fill="#31688e" stroke="black" cx="1915.5" cy="-234" rx="30.59" ry="18"/>
<text text-anchor="middle" x="1915.5" y="-230.3" font-family="Times,serif" font-size="14.00" fill="white">alps</text>
</a>
</g>
</g>
<!-- alps&#45;&gt;conda&#45;forge&#45;pinning -->
<g id="edge47" class="edge">
<title>alps&#45;&gt;conda&#45;forge&#45;pinning</title>
<path fill="none" stroke="black" d="M1920.24,-216.06C1928.47,-182.56 1940.81,-107.97 1899.5,-72 1871.12,-47.28 1651.46,-31.6 1515.1,-24.15"/>
<polygon fill="black" stroke="black" points="1515.2,-20.65 1505.02,-23.6 1514.82,-27.64 1515.2,-20.65"/>
</g>
<!-- spdlib -->
<g id="node33" class="node">
<title>spdlib</title>
<g id="a_node33"><a xlink:href="https://github.com/conda-forge/spdlib-feedstock/pull/15" xlink:title="spdlib">
<ellipse fill="#31688e" stroke="black" cx="1974.5" cy="-306" rx="40.5" ry="18"/>
<text text-anchor="middle" x="1974.5" y="-302.3" font-family="Times,serif" font-size="14.00" fill="white">spdlib</text>
</a>
</g>
</g>
<!-- spdlib&#45;&gt;conda&#45;forge&#45;pinning -->
<g id="edge48" class="edge">
<title>spdlib&#45;&gt;conda&#45;forge&#45;pinning</title>
<path fill="none" stroke="black" d="M1976.99,-287.92C1982.26,-244.25 1989.34,-128.03 1925.5,-72 1895.42,-45.6 1659.45,-30.39 1516.25,-23.5"/>
<polygon fill="black" stroke="black" points="1516.26,-20 1506.11,-23.02 1515.93,-26.99 1516.26,-20"/>
</g>
<!-- mpb -->
<g id="node34" class="node">
<title>mpb</title>
<g id="a_node34"><a xlink:href="https://github.com/conda-forge/mpb-feedstock/pull/22" xlink:title="mpb">
<ellipse fill="#31688e" stroke="black" cx="363.5" cy="-162" rx="27" ry="18"/>
<text text-anchor="middle" x="363.5" y="-158.3" font-family="Times,serif" font-size="14.00" fill="white">mpb</text>
</a>
</g>
</g>
<!-- mpb&#45;&gt;conda&#45;forge&#45;pinning -->
<g id="edge49" class="edge">
<title>mpb&#45;&gt;conda&#45;forge&#45;pinning</title>
<path fill="none" stroke="black" d="M355.92,-144.43C348.06,-124.45 339.25,-91.19 357.5,-72 389.37,-38.48 1029.62,-24.8 1293.91,-20.57"/>
<polygon fill="black" stroke="black" points="1293.97,-24.07 1303.91,-20.41 1293.86,-17.07 1293.97,-24.07"/>
</g>
<!-- mpb&#45;&gt;pymeep -->
<g id="edge50" class="edge">
<title>mpb&#45;&gt;pymeep</title>
<path fill="none" stroke="black" d="M345.82,-147.83C332.27,-137.74 313.3,-123.62 297.67,-111.98"/>
<polygon fill="black" stroke="black" points="299.49,-108.97 289.38,-105.8 295.31,-114.58 299.49,-108.97"/>
</g>
<!-- openpmd&#45;api -->
<g id="node35" class="node">
<title>openpmd&#45;api</title>
<g id="a_node35"><a xlink:href="https://github.com/conda-forge/openpmd-api-feedstock" xlink:title="openpmd api">
<ellipse fill="#fde725" stroke="black" cx="2067.5" cy="-90" rx="64.5" ry="18"/>
<text text-anchor="middle" x="2067.5" y="-86.3" font-family="Times,serif" font-size="14.00">openpmd api</text>
</a>
</g>
</g>
<!-- openpmd&#45;api&#45;&gt;conda&#45;forge&#45;pinning -->
<g id="edge51" class="edge">
<title>openpmd&#45;api&#45;&gt;conda&#45;forge&#45;pinning</title>
<path fill="none" stroke="black" d="M2019.63,-77.73C2009.4,-75.59 1998.62,-73.54 1988.5,-72 1823.79,-46.87 1630.92,-32.17 1513.78,-24.86"/>
<polygon fill="black" stroke="black" points="1513.93,-21.37 1503.73,-24.24 1513.5,-28.35 1513.93,-21.37"/>
</g>
<!-- cmor -->
<g id="node36" class="node">
<title>cmor</title>
<g id="a_node36"><a xlink:href="https://github.com/conda-forge/cmor-feedstock/pull/23" xlink:title="cmor">
<ellipse fill="#31688e" stroke="black" cx="2198.5" cy="-378" rx="30.59" ry="18"/>
<text text-anchor="middle" x="2198.5" y="-374.3" font-family="Times,serif" font-size="14.00" fill="white">cmor</text>
</a>
</g>
</g>
<!-- cmor&#45;&gt;conda&#45;forge&#45;pinning -->
<g id="edge52" class="edge">
<title>cmor&#45;&gt;conda&#45;forge&#45;pinning</title>
<path fill="none" stroke="black" d="M2198.5,-359.95C2198.5,-333.29 2198.5,-280.11 2198.5,-235 2198.5,-235 2198.5,-235 2198.5,-161 2198.5,-117.63 2194.06,-96.82 2158.5,-72 2107.4,-36.34 1716.18,-24.4 1519.15,-20.63"/>
<polygon fill="black" stroke="black" points="1519.11,-17.13 1509.05,-20.44 1518.98,-24.13 1519.11,-17.13"/>
</g>
<!-- freecad -->
<g id="node37" class="node">
<title>freecad</title>
<g id="a_node37"><a xlink:href="https://github.com/conda-forge/freecad-feedstock/pull/38" xlink:title="freecad">
<ellipse fill="#31688e" stroke="black" cx="2271.5" cy="-90" rx="45" ry="18"/>
<text text-anchor="middle" x="2271.5" y="-86.3" font-family="Times,serif" font-size="14.00" fill="white">freecad</text>
</a>
</g>
</g>
<!-- freecad&#45;&gt;conda&#45;forge&#45;pinning -->
<g id="edge53" class="edge">
<title>freecad&#45;&gt;conda&#45;forge&#45;pinning</title>
<path fill="none" stroke="black" d="M2237.78,-77.94C2229.59,-75.62 2220.8,-73.45 2212.5,-72 1968.35,-29.31 1677.14,-20.3 1520.22,-18.82"/>
<polygon fill="black" stroke="black" points="1520.11,-15.32 1510.08,-18.73 1520.05,-22.32 1520.11,-15.32"/>
</g>
<!-- scilab -->
<g id="node38" class="node">
<title>scilab</title>
<g id="a_node38"><a xlink:href="https://github.com/conda-forge/scilab-feedstock/pull/12" xlink:title="scilab">
<ellipse fill="#31688e" stroke="black" cx="2313.5" cy="-162" rx="40.5" ry="18"/>
<text text-anchor="middle" x="2313.5" y="-158.3" font-family="Times,serif" font-size="14.00" fill="white">scilab</text>
</a>
</g>
</g>
<!-- scilab&#45;&gt;conda&#45;forge&#45;pinning -->
<g id="edge54" class="edge">
<title>scilab&#45;&gt;conda&#45;forge&#45;pinning</title>
<path fill="none" stroke="black" d="M2322.81,-144.14C2332.43,-124.2 2343.69,-91.27 2325.5,-72 2298.21,-43.09 1757.94,-27.1 1518.77,-21.41"/>
<polygon fill="black" stroke="black" points="1518.74,-17.91 1508.66,-21.17 1518.57,-24.91 1518.74,-17.91"/>
</g>
<!-- adios2 -->
<g id="node39" class="node">
<title>adios2</title>
<g id="a_node39"><a xlink:href="https://github.com/conda-forge/adios2-feedstock/pull/11" xlink:title="adios2">
<ellipse fill="#31688e" stroke="black" cx="2098.5" cy="-162" rx="40.5" ry="18"/>
<text text-anchor="middle" x="2098.5" y="-158.3" font-family="Times,serif" font-size="14.00" fill="white">adios2</text>
</a>
</g>
</g>
<!-- adios2&#45;&gt;conda&#45;forge&#45;pinning -->
<g id="edge55" class="edge">
<title>adios2&#45;&gt;conda&#45;forge&#45;pinning</title>
<path fill="none" stroke="black" d="M2115.56,-145.49C2134.68,-126.3 2160.52,-93.52 2140.5,-72 2099.2,-27.61 1715.58,-19.91 1520,-18.9"/>
<polygon fill="black" stroke="black" points="1519.99,-15.4 1509.98,-18.85 1519.96,-22.4 1519.99,-15.4"/>
</g>
<!-- adios2&#45;&gt;openpmd&#45;api -->
<g id="edge56" class="edge">
<title>adios2&#45;&gt;openpmd&#45;api</title>
<path fill="none" stroke="black" d="M2091,-144.05C2087.47,-136.09 2083.18,-126.41 2079.24,-117.51"/>
<polygon fill="black" stroke="black" points="2082.4,-116 2075.15,-108.28 2076,-118.84 2082.4,-116"/>
</g>
<!-- bonsu -->
<g id="node40" class="node">
<title>bonsu</title>
<g id="a_node40"><a xlink:href="https://github.com/conda-forge/bonsu-feedstock/pull/5" xlink:title="bonsu">
<ellipse fill="#31688e" stroke="black" cx="2369.5" cy="-234" rx="35.19" ry="18"/>
<text text-anchor="middle" x="2369.5" y="-230.3" font-family="Times,serif" font-size="14.00" fill="white">bonsu</text>
</a>
</g>
</g>
<!-- bonsu&#45;&gt;conda&#45;forge&#45;pinning -->
<g id="edge57" class="edge">
<title>bonsu&#45;&gt;conda&#45;forge&#45;pinning</title>
<path fill="none" stroke="black" d="M2373.16,-215.92C2379.26,-182.17 2387,-107.16 2344.5,-72 2313.14,-46.06 1760.28,-28.35 1518.34,-21.8"/>
<polygon fill="black" stroke="black" points="1518.2,-18.3 1508.11,-21.53 1518.01,-25.3 1518.2,-18.3"/>
</g>
<!-- dagmc -->
<g id="node41" class="node">
<title>dagmc</title>
<g id="a_node41"><a xlink:href="https://github.com/conda-forge/dagmc-feedstock/pull/1" xlink:title="dagmc">
<ellipse fill="#31688e" stroke="black" cx="2432.5" cy="-306" rx="35.19" ry="18"/>
<text text-anchor="middle" x="2432.5" y="-302.3" font-family="Times,serif" font-size="14.00" fill="white">dagmc</text>
</a>
</g>
</g>
<!-- dagmc&#45;&gt;conda&#45;forge&#45;pinning -->
<g id="edge59" class="edge">
<title>dagmc&#45;&gt;conda&#45;forge&#45;pinning</title>
<path fill="none" stroke="black" d="M2434.15,-287.94C2437.35,-243.79 2438.97,-125.55 2371.5,-72 2338.57,-45.86 1765.45,-28.16 1518.36,-21.71"/>
<polygon fill="black" stroke="black" points="1518.37,-18.21 1508.28,-21.45 1518.19,-25.21 1518.37,-18.21"/>
</g>
<!-- nccmp -->
<g id="node42" class="node">
<title>nccmp</title>
<g id="a_node42"><a xlink:href="https://github.com/conda-forge/nccmp-feedstock/pull/2" xlink:title="nccmp">
<ellipse fill="#31688e" stroke="black" cx="2495.5" cy="-378" rx="35.19" ry="18"/>
<text text-anchor="middle" x="2495.5" y="-374.3" font-family="Times,serif" font-size="14.00" fill="white">nccmp</text>
</a>
</g>
</g>
<!-- nccmp&#45;&gt;conda&#45;forge&#45;pinning -->
<g id="edge60" class="edge">
<title>nccmp&#45;&gt;conda&#45;forge&#45;pinning</title>
<path fill="none" stroke="black" d="M2495.5,-359.95C2495.5,-333.29 2495.5,-280.11 2495.5,-235 2495.5,-235 2495.5,-235 2495.5,-161 2495.5,-103.47 2454.36,-94.7 2401.5,-72 2322.27,-37.97 1762.88,-24.8 1519.34,-20.64"/>
<polygon fill="black" stroke="black" points="1519.1,-17.13 1509.04,-20.46 1518.98,-24.13 1519.1,-17.13"/>
</g>
</g>
</svg>
