<?xml version="1.0" encoding="UTF-8" standalone="no"?>
<!DOCTYPE svg PUBLIC "-//W3C//DTD SVG 1.1//EN"
 "http://www.w3.org/Graphics/SVG/1.1/DTD/svg11.dtd">
<!-- Generated by graphviz version 2.42.3 (20191010.1750)
 -->
<!-- Title: %3 Pages: 1 -->
<svg width="2388pt" height="476pt"
 viewBox="0.00 0.00 2387.60 476.00" xmlns="http://www.w3.org/2000/svg" xmlns:xlink="http://www.w3.org/1999/xlink">
<g id="graph0" class="graph" transform="scale(1 1) rotate(0) translate(4 472)">
<title>%3</title>
<polygon fill="white" stroke="transparent" points="-4,4 -4,-472 2383.6,-472 2383.6,4 -4,4"/>
<!-- caffe -->
<g id="node1" class="node">
<title>caffe</title>
<g id="a_node1"><a xlink:href="https://github.com/conda-forge/caffe-feedstock" xlink:title="caffe">
<ellipse fill="#fde725" stroke="black" cx="1197.5" cy="-378" rx="35.19" ry="18"/>
<text text-anchor="middle" x="1197.5" y="-374.3" font-family="Times,serif" font-size="14.00">caffe</text>
</a>
</g>
</g>
<!-- conda&#45;forge&#45;pinning -->
<g id="node2" class="node">
<title>conda&#45;forge&#45;pinning</title>
<ellipse fill="none" stroke="black" cx="1311.5" cy="-18" rx="103.5" ry="18"/>
<text text-anchor="middle" x="1311.5" y="-14.3" font-family="Times,serif" font-size="14.00">conda&#45;forge&#45;pinning</text>
</g>
<!-- caffe&#45;&gt;conda&#45;forge&#45;pinning -->
<g id="edge1" class="edge">
<title>caffe&#45;&gt;conda&#45;forge&#45;pinning</title>
<path fill="none" stroke="black" d="M1198.88,-359.96C1200.92,-333.32 1204.5,-280.17 1204.5,-235 1204.5,-235 1204.5,-235 1204.5,-161 1204.5,-120.03 1204.27,-105.03 1228.5,-72 1238.12,-58.88 1252.06,-48.19 1265.77,-39.94"/>
<polygon fill="black" stroke="black" points="1267.74,-42.85 1274.71,-34.87 1264.28,-36.76 1267.74,-42.85"/>
</g>
<!-- cyclus -->
<g id="node3" class="node">
<title>cyclus</title>
<g id="a_node3"><a xlink:href="https://github.com/conda-forge/cyclus-feedstock/pull/56" xlink:title="cyclus">
<ellipse fill="#31688e" stroke="black" cx="40.5" cy="-90" rx="40.5" ry="18"/>
<text text-anchor="middle" x="40.5" y="-86.3" font-family="Times,serif" font-size="14.00" fill="white">cyclus</text>
</a>
</g>
</g>
<!-- cyclus&#45;&gt;conda&#45;forge&#45;pinning -->
<g id="edge2" class="edge">
<title>cyclus&#45;&gt;conda&#45;forge&#45;pinning</title>
<path fill="none" stroke="black" d="M70.99,-78.06C78.88,-75.65 87.43,-73.4 95.5,-72 305.33,-35.62 938.54,-23.67 1198.37,-20.24"/>
<polygon fill="black" stroke="black" points="1198.63,-23.73 1208.58,-20.1 1198.54,-16.73 1198.63,-23.73"/>
</g>
<!-- fenics -->
<g id="node4" class="node">
<title>fenics</title>
<g id="a_node4"><a xlink:href="https://github.com/conda-forge/fenics-feedstock/pull/107" xlink:title="fenics">
<ellipse fill="#31688e" stroke="black" cx="93.5" cy="-162" rx="40.5" ry="18"/>
<text text-anchor="middle" x="93.5" y="-158.3" font-family="Times,serif" font-size="14.00" fill="white">fenics</text>
</a>
</g>
</g>
<!-- fenics&#45;&gt;conda&#45;forge&#45;pinning -->
<g id="edge3" class="edge">
<title>fenics&#45;&gt;conda&#45;forge&#45;pinning</title>
<path fill="none" stroke="black" d="M98.55,-144.02C105.82,-122.97 121.41,-87.92 148.5,-72 237.36,-19.77 922.98,-17.12 1197.95,-18.21"/>
<polygon fill="black" stroke="black" points="1197.94,-21.71 1207.96,-18.25 1197.97,-14.71 1197.94,-21.71"/>
</g>
<!-- graph -->
<g id="node5" class="node">
<title>graph</title>
<g id="a_node5"><a xlink:href="https://github.com/conda-forge/graph-feedstock/pull/5" xlink:title="graph">
<ellipse fill="#31688e" stroke="black" cx="162.5" cy="-234" rx="35.19" ry="18"/>
<text text-anchor="middle" x="162.5" y="-230.3" font-family="Times,serif" font-size="14.00" fill="white">graph</text>
</a>
</g>
</g>
<!-- graph&#45;&gt;conda&#45;forge&#45;pinning -->
<g id="edge4" class="edge">
<title>graph&#45;&gt;conda&#45;forge&#45;pinning</title>
<path fill="none" stroke="black" d="M163.52,-216C166.56,-182.06 178.66,-106.2 226.5,-72 265.58,-44.07 929.78,-27.02 1199.26,-21.23"/>
<polygon fill="black" stroke="black" points="1199.53,-24.73 1209.46,-21.01 1199.38,-17.73 1199.53,-24.73"/>
</g>
<!-- h5py -->
<g id="node6" class="node">
<title>h5py</title>
<g id="a_node6"><a xlink:href="https://github.com/conda-forge/h5py-feedstock/pull/72" xlink:title="h5py">
<ellipse fill="#31688e" stroke="black" cx="827.5" cy="-450" rx="30.59" ry="18"/>
<text text-anchor="middle" x="827.5" y="-446.3" font-family="Times,serif" font-size="14.00" fill="white">h5py</text>
</a>
</g>
</g>
<!-- h5py&#45;&gt;caffe -->
<g id="edge5" class="edge">
<title>h5py&#45;&gt;caffe</title>
<path fill="none" stroke="black" d="M857.5,-445.78C914.72,-439.25 1043.12,-422.77 1148.5,-396 1152.41,-395.01 1156.46,-393.84 1160.47,-392.59"/>
<polygon fill="black" stroke="black" points="1161.87,-395.81 1170.28,-389.37 1159.69,-389.16 1161.87,-395.81"/>
</g>
<!-- h5py&#45;&gt;conda&#45;forge&#45;pinning -->
<g id="edge6" class="edge">
<title>h5py&#45;&gt;conda&#45;forge&#45;pinning</title>
<path fill="none" stroke="black" d="M857.73,-447.39C948.83,-442.23 1216.04,-424.75 1241.5,-396 1288.94,-342.43 1242.5,-306.56 1242.5,-235 1242.5,-235 1242.5,-235 1242.5,-161 1242.5,-116.48 1270.28,-71.29 1290.58,-44.2"/>
<polygon fill="black" stroke="black" points="1293.52,-46.12 1296.87,-36.07 1287.98,-41.84 1293.52,-46.12"/>
</g>
<!-- openmc -->
<g id="node7" class="node">
<title>openmc</title>
<g id="a_node7"><a xlink:href="https://github.com/conda-forge/openmc-feedstock" xlink:title="openmc">
<ellipse fill="#fde725" stroke="black" cx="1311.5" cy="-306" rx="40.5" ry="18"/>
<text text-anchor="middle" x="1311.5" y="-302.3" font-family="Times,serif" font-size="14.00">openmc</text>
</a>
</g>
</g>
<!-- h5py&#45;&gt;openmc -->
<g id="edge7" class="edge">
<title>h5py&#45;&gt;openmc</title>
<path fill="none" stroke="black" d="M858.3,-449.27C948.34,-449.48 1208.82,-445.67 1274.5,-396 1293.94,-381.3 1303.23,-354.53 1307.64,-334.17"/>
<polygon fill="black" stroke="black" points="1311.1,-334.69 1309.52,-324.21 1304.22,-333.39 1311.1,-334.69"/>
</g>
<!-- rsgislib -->
<g id="node8" class="node">
<title>rsgislib</title>
<g id="a_node8"><a xlink:href="https://github.com/conda-forge/rsgislib-feedstock" xlink:title="rsgislib">
<ellipse fill="#fde725" stroke="black" cx="265.5" cy="-234" rx="50.09" ry="18"/>
<text text-anchor="middle" x="265.5" y="-230.3" font-family="Times,serif" font-size="14.00">rsgislib</text>
</a>
</g>
</g>
<!-- h5py&#45;&gt;rsgislib -->
<g id="edge8" class="edge">
<title>h5py&#45;&gt;rsgislib</title>
<path fill="none" stroke="black" d="M797.21,-447.58C694.96,-442.56 366.86,-424.35 329.5,-396 286.98,-363.73 272.65,-298.82 267.87,-262.04"/>
<polygon fill="black" stroke="black" points="271.34,-261.56 266.71,-252.03 264.38,-262.36 271.34,-261.56"/>
</g>
<!-- h5utils -->
<g id="node9" class="node">
<title>h5utils</title>
<g id="a_node9"><a xlink:href="https://github.com/conda-forge/h5utils-feedstock" xlink:title="h5utils">
<ellipse fill="#fde725" stroke="black" cx="307.5" cy="-162" rx="45" ry="18"/>
<text text-anchor="middle" x="307.5" y="-158.3" font-family="Times,serif" font-size="14.00">h5utils</text>
</a>
</g>
</g>
<!-- h5py&#45;&gt;h5utils -->
<g id="edge9" class="edge">
<title>h5py&#45;&gt;h5utils</title>
<path fill="none" stroke="black" d="M797.02,-447.49C699.5,-442.4 399.68,-424.54 367.5,-396 305.96,-341.43 346.63,-295.22 324.5,-216 322.1,-207.4 319.21,-198.1 316.51,-189.73"/>
<polygon fill="black" stroke="black" points="319.79,-188.5 313.34,-180.09 313.14,-190.68 319.79,-188.5"/>
</g>
<!-- pymeep -->
<g id="node10" class="node">
<title>pymeep</title>
<g id="a_node10"><a xlink:href="https://github.com/conda-forge/pymeep-feedstock" xlink:title="pymeep">
<ellipse fill="#fde725" stroke="black" cx="307.5" cy="-90" rx="40.5" ry="18"/>
<text text-anchor="middle" x="307.5" y="-86.3" font-family="Times,serif" font-size="14.00">pymeep</text>
</a>
</g>
</g>
<!-- h5py&#45;&gt;pymeep -->
<g id="edge10" class="edge">
<title>h5py&#45;&gt;pymeep</title>
<path fill="none" stroke="black" d="M797.54,-446.04C697.55,-435.33 381.5,-394.56 381.5,-307 381.5,-307 381.5,-307 381.5,-233 381.5,-192.46 381.22,-179.42 361.5,-144 354.9,-132.14 344.82,-121.21 335.16,-112.4"/>
<polygon fill="black" stroke="black" points="337.41,-109.73 327.56,-105.81 332.82,-115.01 337.41,-109.73"/>
</g>
<!-- blosc&#45;hdf5&#45;plugin -->
<g id="node11" class="node">
<title>blosc&#45;hdf5&#45;plugin</title>
<g id="a_node11"><a xlink:href="https://github.com/conda-forge/blosc-hdf5-plugin-feedstock" xlink:title="blosc hdf5 plugin">
<ellipse fill="#fde725" stroke="black" cx="498.5" cy="-90" rx="93.68" ry="18"/>
<text text-anchor="middle" x="498.5" y="-86.3" font-family="Times,serif" font-size="14.00">blosc hdf5 plugin</text>
</a>
</g>
</g>
<!-- h5py&#45;&gt;blosc&#45;hdf5&#45;plugin -->
<g id="edge11" class="edge">
<title>h5py&#45;&gt;blosc&#45;hdf5&#45;plugin</title>
<path fill="none" stroke="black" d="M797.06,-447.39C725.11,-441.78 550.5,-416.84 550.5,-307 550.5,-307 550.5,-307 550.5,-233 550.5,-190.49 529.7,-144.95 514.41,-117.22"/>
<polygon fill="black" stroke="black" points="517.26,-115.15 509.27,-108.19 511.17,-118.61 517.26,-115.15"/>
</g>
<!-- isce2 -->
<g id="node12" class="node">
<title>isce2</title>
<g id="a_node12"><a xlink:href="https://github.com/conda-forge/isce2-feedstock" xlink:title="isce2">
<ellipse fill="#fde725" stroke="black" cx="645.5" cy="-90" rx="35.19" ry="18"/>
<text text-anchor="middle" x="645.5" y="-86.3" font-family="Times,serif" font-size="14.00">isce2</text>
</a>
</g>
</g>
<!-- h5py&#45;&gt;isce2 -->
<g id="edge12" class="edge">
<title>h5py&#45;&gt;isce2</title>
<path fill="none" stroke="black" d="M796.81,-448.76C757.3,-446.7 689.22,-436.96 651.5,-396 624.1,-366.25 632.5,-347.45 632.5,-307 632.5,-307 632.5,-307 632.5,-233 632.5,-192.83 637.72,-146.53 641.55,-118.01"/>
<polygon fill="black" stroke="black" points="645.03,-118.39 642.93,-108 638.1,-117.43 645.03,-118.39"/>
</g>
<!-- bitshuffle -->
<g id="node13" class="node">
<title>bitshuffle</title>
<g id="a_node13"><a xlink:href="https://github.com/conda-forge/bitshuffle-feedstock" xlink:title="bitshuffle">
<ellipse fill="#fde725" stroke="black" cx="720.5" cy="-378" rx="60" ry="18"/>
<text text-anchor="middle" x="720.5" y="-374.3" font-family="Times,serif" font-size="14.00">bitshuffle</text>
</a>
</g>
</g>
<!-- h5py&#45;&gt;bitshuffle -->
<g id="edge13" class="edge">
<title>h5py&#45;&gt;bitshuffle</title>
<path fill="none" stroke="black" d="M807.87,-436.16C792.53,-426.12 770.86,-411.95 752.95,-400.23"/>
<polygon fill="black" stroke="black" points="754.78,-397.24 744.5,-394.7 750.95,-403.1 754.78,-397.24"/>
</g>
<!-- triqs -->
<g id="node14" class="node">
<title>triqs</title>
<g id="a_node14"><a xlink:href="https://github.com/conda-forge/triqs-feedstock" xlink:title="triqs">
<ellipse fill="#fde725" stroke="black" cx="808.5" cy="-162" rx="35.19" ry="18"/>
<text text-anchor="middle" x="808.5" y="-158.3" font-family="Times,serif" font-size="14.00">triqs</text>
</a>
</g>
</g>
<!-- h5py&#45;&gt;triqs -->
<g id="edge14" class="edge">
<title>h5py&#45;&gt;triqs</title>
<path fill="none" stroke="black" d="M826.37,-431.97C823.2,-384.29 814.23,-249.18 810.34,-190.63"/>
<polygon fill="black" stroke="black" points="813.8,-190.05 809.65,-180.31 806.82,-190.52 813.8,-190.05"/>
</g>
<!-- hdf5plugin -->
<g id="node15" class="node">
<title>hdf5plugin</title>
<g id="a_node15"><a xlink:href="https://github.com/conda-forge/hdf5plugin-feedstock" xlink:title="hdf5plugin">
<ellipse fill="#fde725" stroke="black" cx="896.5" cy="-306" rx="60" ry="18"/>
<text text-anchor="middle" x="896.5" y="-302.3" font-family="Times,serif" font-size="14.00">hdf5plugin</text>
</a>
</g>
</g>
<!-- h5py&#45;&gt;hdf5plugin -->
<g id="edge15" class="edge">
<title>h5py&#45;&gt;hdf5plugin</title>
<path fill="none" stroke="black" d="M835.55,-432.43C847.43,-407.98 869.77,-362 883.86,-333.02"/>
<polygon fill="black" stroke="black" points="887.06,-334.43 888.29,-323.9 880.77,-331.37 887.06,-334.43"/>
</g>
<!-- prismatic_split -->
<g id="node16" class="node">
<title>prismatic_split</title>
<g id="a_node16"><a xlink:href="https://github.com/conda-forge/prismatic_split-feedstock" xlink:title="prismatic_split">
<ellipse fill="#fde725" stroke="black" cx="984.5" cy="-234" rx="84" ry="18"/>
<text text-anchor="middle" x="984.5" y="-230.3" font-family="Times,serif" font-size="14.00">prismatic_split</text>
</a>
</g>
</g>
<!-- h5py&#45;&gt;prismatic_split -->
<g id="edge16" class="edge">
<title>h5py&#45;&gt;prismatic_split</title>
<path fill="none" stroke="black" d="M848.07,-436.48C878.77,-416.65 936.14,-374.98 965.5,-324 976.38,-305.12 981.05,-280.74 983.04,-262.28"/>
<polygon fill="black" stroke="black" points="986.54,-262.45 983.94,-252.18 979.57,-261.83 986.54,-262.45"/>
</g>
<!-- digital_rf -->
<g id="node17" class="node">
<title>digital_rf</title>
<g id="a_node17"><a xlink:href="https://github.com/conda-forge/digital_rf-feedstock" xlink:title="digital_rf">
<ellipse fill="#fde725" stroke="black" cx="1052.5" cy="-162" rx="60" ry="18"/>
<text text-anchor="middle" x="1052.5" y="-158.3" font-family="Times,serif" font-size="14.00">digital_rf</text>
</a>
</g>
</g>
<!-- h5py&#45;&gt;digital_rf -->
<g id="edge17" class="edge">
<title>h5py&#45;&gt;digital_rf</title>
<path fill="none" stroke="black" d="M852.52,-439.34C907.13,-416.63 1035.49,-353.92 1077.5,-252 1086.04,-231.28 1077.82,-206.68 1068.59,-188.6"/>
<polygon fill="black" stroke="black" points="1071.63,-186.87 1063.75,-179.79 1065.5,-190.24 1071.63,-186.87"/>
</g>
<!-- pp&#45;sketchlib -->
<g id="node18" class="node">
<title>pp&#45;sketchlib</title>
<g id="a_node18"><a xlink:href="https://github.com/conda-forge/pp-sketchlib-feedstock" xlink:title="pp sketchlib">
<ellipse fill="#fde725" stroke="black" cx="1106.5" cy="-90" rx="69.59" ry="18"/>
<text text-anchor="middle" x="1106.5" y="-86.3" font-family="Times,serif" font-size="14.00">pp sketchlib</text>
</a>
</g>
</g>
<!-- h5py&#45;&gt;pp&#45;sketchlib -->
<g id="edge18" class="edge">
<title>h5py&#45;&gt;pp&#45;sketchlib</title>
<path fill="none" stroke="black" d="M855.47,-442.64C886.72,-434.75 938.09,-419.42 977.5,-396 1018.62,-371.56 1028.73,-362.22 1057.5,-324 1099.62,-268.04 1108.17,-248.76 1121.5,-180 1125.54,-159.17 1121.11,-135.47 1116.04,-117.77"/>
<polygon fill="black" stroke="black" points="1119.34,-116.62 1113.04,-108.11 1112.66,-118.69 1119.34,-116.62"/>
</g>
<!-- openmc&#45;&gt;conda&#45;forge&#45;pinning -->
<g id="edge19" class="edge">
<title>openmc&#45;&gt;conda&#45;forge&#45;pinning</title>
<path fill="none" stroke="black" d="M1308.74,-287.99C1302.89,-249.43 1290.5,-152.51 1299.5,-72 1300.46,-63.43 1302.26,-54.22 1304.19,-45.93"/>
<polygon fill="black" stroke="black" points="1307.63,-46.57 1306.63,-36.02 1300.84,-44.89 1307.63,-46.57"/>
</g>
<!-- rsgislib&#45;&gt;conda&#45;forge&#45;pinning -->
<g id="edge20" class="edge">
<title>rsgislib&#45;&gt;conda&#45;forge&#45;pinning</title>
<path fill="none" stroke="black" d="M256.07,-216.2C239.18,-183.62 208.86,-111.56 246.5,-72 278.92,-37.92 931.26,-24.55 1198.65,-20.48"/>
<polygon fill="black" stroke="black" points="1198.83,-23.98 1208.78,-20.33 1198.72,-16.98 1198.83,-23.98"/>
</g>
<!-- h5utils&#45;&gt;conda&#45;forge&#45;pinning -->
<g id="edge21" class="edge">
<title>h5utils&#45;&gt;conda&#45;forge&#45;pinning</title>
<path fill="none" stroke="black" d="M288.1,-145.68C266.29,-126.67 236.49,-94.09 257.5,-72 289.54,-38.31 933.61,-24.72 1198.85,-20.54"/>
<polygon fill="black" stroke="black" points="1198.95,-24.04 1208.89,-20.38 1198.84,-17.04 1198.95,-24.04"/>
</g>
<!-- h5utils&#45;&gt;pymeep -->
<g id="edge22" class="edge">
<title>h5utils&#45;&gt;pymeep</title>
<path fill="none" stroke="black" d="M307.5,-143.7C307.5,-135.98 307.5,-126.71 307.5,-118.11"/>
<polygon fill="black" stroke="black" points="311,-118.1 307.5,-108.1 304,-118.1 311,-118.1"/>
</g>
<!-- pymeep&#45;&gt;conda&#45;forge&#45;pinning -->
<g id="edge23" class="edge">
<title>pymeep&#45;&gt;conda&#45;forge&#45;pinning</title>
<path fill="none" stroke="black" d="M338.01,-78.12C345.89,-75.71 354.43,-73.45 362.5,-72 520.18,-43.67 984.6,-27.82 1199.75,-21.82"/>
<polygon fill="black" stroke="black" points="1199.91,-25.32 1209.81,-21.55 1199.71,-18.32 1199.91,-25.32"/>
</g>
<!-- blosc&#45;hdf5&#45;plugin&#45;&gt;conda&#45;forge&#45;pinning -->
<g id="edge24" class="edge">
<title>blosc&#45;hdf5&#45;plugin&#45;&gt;conda&#45;forge&#45;pinning</title>
<path fill="none" stroke="black" d="M564.59,-77.2C576.83,-75.27 589.53,-73.43 601.5,-72 813.73,-46.62 1063.2,-31.34 1202.76,-24.1"/>
<polygon fill="black" stroke="black" points="1203.23,-27.58 1213.03,-23.57 1202.87,-20.59 1203.23,-27.58"/>
</g>
<!-- isce2&#45;&gt;conda&#45;forge&#45;pinning -->
<g id="edge25" class="edge">
<title>isce2&#45;&gt;conda&#45;forge&#45;pinning</title>
<path fill="none" stroke="black" d="M672.37,-78.33C679.47,-75.89 687.19,-73.56 694.5,-72 867.74,-35.11 1073.53,-23.75 1198.23,-20.34"/>
<polygon fill="black" stroke="black" points="1198.64,-23.83 1208.55,-20.07 1198.46,-16.83 1198.64,-23.83"/>
</g>
<!-- bitshuffle&#45;&gt;conda&#45;forge&#45;pinning -->
<g id="edge26" class="edge">
<title>bitshuffle&#45;&gt;conda&#45;forge&#45;pinning</title>
<path fill="none" stroke="black" d="M718.13,-359.99C714.63,-333.38 708.5,-280.28 708.5,-235 708.5,-235 708.5,-235 708.5,-161 708.5,-120.46 698.03,-98.74 728.5,-72 763.1,-41.64 1040.65,-27.71 1199.99,-22.16"/>
<polygon fill="black" stroke="black" points="1200.44,-25.64 1210.31,-21.8 1200.2,-18.65 1200.44,-25.64"/>
</g>
<!-- triqs&#45;&gt;conda&#45;forge&#45;pinning -->
<g id="edge27" class="edge">
<title>triqs&#45;&gt;conda&#45;forge&#45;pinning</title>
<path fill="none" stroke="black" d="M827.09,-146.51C840.6,-135.94 859.28,-121.2 875.5,-108 894.83,-92.27 895.7,-82.06 918.5,-72 968.74,-49.83 1108.97,-34.71 1207.52,-26.46"/>
<polygon fill="black" stroke="black" points="1207.85,-29.95 1217.53,-25.64 1207.27,-22.97 1207.85,-29.95"/>
</g>
<!-- triqs_cthyb -->
<g id="node19" class="node">
<title>triqs_cthyb</title>
<g id="a_node19"><a xlink:href="https://github.com/conda-forge/triqs_cthyb-feedstock" xlink:title="triqs_cthyb">
<ellipse fill="#fde725" stroke="black" cx="801.5" cy="-90" rx="64.5" ry="18"/>
<text text-anchor="middle" x="801.5" y="-86.3" font-family="Times,serif" font-size="14.00">triqs_cthyb</text>
</a>
</g>
</g>
<!-- triqs&#45;&gt;triqs_cthyb -->
<g id="edge28" class="edge">
<title>triqs&#45;&gt;triqs_cthyb</title>
<path fill="none" stroke="black" d="M806.77,-143.7C806,-135.98 805.07,-126.71 804.21,-118.11"/>
<polygon fill="black" stroke="black" points="807.69,-117.71 803.21,-108.1 800.72,-118.4 807.69,-117.71"/>
</g>
<!-- hdf5plugin&#45;&gt;conda&#45;forge&#45;pinning -->
<g id="edge29" class="edge">
<title>hdf5plugin&#45;&gt;conda&#45;forge&#45;pinning</title>
<path fill="none" stroke="black" d="M892.15,-287.87C888.3,-269.65 884.31,-240.18 891.5,-216 913.29,-142.74 921.44,-113.68 985.5,-72 1021.39,-48.65 1126.38,-34.5 1207.61,-26.77"/>
<polygon fill="black" stroke="black" points="1208.26,-30.23 1217.9,-25.81 1207.61,-23.26 1208.26,-30.23"/>
</g>
<!-- prismatic_split&#45;&gt;conda&#45;forge&#45;pinning -->
<g id="edge30" class="edge">
<title>prismatic_split&#45;&gt;conda&#45;forge&#45;pinning</title>
<path fill="none" stroke="black" d="M981.5,-215.77C976.7,-181.73 971.82,-106.25 1015.5,-72 1045.18,-48.74 1135.61,-34.85 1208.78,-27.17"/>
<polygon fill="black" stroke="black" points="1209.4,-30.62 1218.99,-26.12 1208.68,-23.66 1209.4,-30.62"/>
</g>
<!-- digital_rf&#45;&gt;conda&#45;forge&#45;pinning -->
<g id="edge31" class="edge">
<title>digital_rf&#45;&gt;conda&#45;forge&#45;pinning</title>
<path fill="none" stroke="black" d="M1039.8,-144.38C1026.62,-124.97 1010.17,-92.86 1027.5,-72 1049.99,-44.93 1133.18,-31.61 1203.75,-25.1"/>
<polygon fill="black" stroke="black" points="1204.41,-28.56 1214.07,-24.19 1203.8,-21.58 1204.41,-28.56"/>
</g>
<!-- pp&#45;sketchlib&#45;&gt;conda&#45;forge&#45;pinning -->
<g id="edge32" class="edge">
<title>pp&#45;sketchlib&#45;&gt;conda&#45;forge&#45;pinning</title>
<path fill="none" stroke="black" d="M1147,-75.17C1178.57,-64.39 1222.71,-49.32 1257.32,-37.5"/>
<polygon fill="black" stroke="black" points="1258.48,-40.8 1266.81,-34.26 1256.22,-34.18 1258.48,-40.8"/>
</g>
<!-- triqs_cthyb&#45;&gt;conda&#45;forge&#45;pinning -->
<g id="edge55" class="edge">
<title>triqs_cthyb&#45;&gt;conda&#45;forge&#45;pinning</title>
<path fill="none" stroke="black" d="M849.83,-77.88C859.93,-75.76 870.54,-73.68 880.5,-72 994.02,-52.85 1125.46,-37.68 1213.06,-28.57"/>
<polygon fill="black" stroke="black" points="1213.67,-32.02 1223.25,-27.51 1212.95,-25.06 1213.67,-32.02"/>
</g>
<!-- hdfeos5 -->
<g id="node20" class="node">
<title>hdfeos5</title>
<g id="a_node20"><a xlink:href="https://github.com/conda-forge/hdfeos5-feedstock/pull/27" xlink:title="hdfeos5">
<ellipse fill="#31688e" stroke="black" cx="1376.5" cy="-234" rx="45" ry="18"/>
<text text-anchor="middle" x="1376.5" y="-230.3" font-family="Times,serif" font-size="14.00" fill="white">hdfeos5</text>
</a>
</g>
</g>
<!-- hdfeos5&#45;&gt;conda&#45;forge&#45;pinning -->
<g id="edge33" class="edge">
<title>hdfeos5&#45;&gt;conda&#45;forge&#45;pinning</title>
<path fill="none" stroke="black" d="M1379.86,-216.01C1386.66,-179.87 1400.36,-96.65 1387.5,-72 1380.73,-59.03 1369.19,-48.59 1357.11,-40.52"/>
<polygon fill="black" stroke="black" points="1358.62,-37.34 1348.28,-35.05 1354.94,-43.29 1358.62,-37.34"/>
</g>
<!-- ncl -->
<g id="node21" class="node">
<title>ncl</title>
<g id="a_node21"><a xlink:href="https://github.com/conda-forge/ncl-feedstock" xlink:title="ncl">
<ellipse fill="#fde725" stroke="black" cx="1431.5" cy="-162" rx="27" ry="18"/>
<text text-anchor="middle" x="1431.5" y="-158.3" font-family="Times,serif" font-size="14.00">ncl</text>
</a>
</g>
</g>
<!-- hdfeos5&#45;&gt;ncl -->
<g id="edge34" class="edge">
<title>hdfeos5&#45;&gt;ncl</title>
<path fill="none" stroke="black" d="M1389.53,-216.41C1396.51,-207.53 1405.23,-196.44 1412.9,-186.67"/>
<polygon fill="black" stroke="black" points="1415.89,-188.54 1419.31,-178.51 1410.38,-184.21 1415.89,-188.54"/>
</g>
<!-- pynio -->
<g id="node22" class="node">
<title>pynio</title>
<g id="a_node22"><a xlink:href="https://github.com/conda-forge/pynio-feedstock" xlink:title="pynio">
<ellipse fill="#fde725" stroke="black" cx="1343.5" cy="-90" rx="35.19" ry="18"/>
<text text-anchor="middle" x="1343.5" y="-86.3" font-family="Times,serif" font-size="14.00">pynio</text>
</a>
</g>
</g>
<!-- hdfeos5&#45;&gt;pynio -->
<g id="edge35" class="edge">
<title>hdfeos5&#45;&gt;pynio</title>
<path fill="none" stroke="black" d="M1371.75,-215.87C1368.94,-205.51 1365.37,-192.03 1362.5,-180 1357.58,-159.38 1352.6,-135.93 1348.97,-118.28"/>
<polygon fill="black" stroke="black" points="1352.33,-117.22 1346.9,-108.12 1345.47,-118.61 1352.33,-117.22"/>
</g>
<!-- ncl&#45;&gt;conda&#45;forge&#45;pinning -->
<g id="edge36" class="edge">
<title>ncl&#45;&gt;conda&#45;forge&#45;pinning</title>
<path fill="none" stroke="black" d="M1433.92,-143.88C1435.69,-124.58 1435.62,-93.15 1420.5,-72 1409.45,-56.55 1392.64,-45.4 1375.5,-37.45"/>
<polygon fill="black" stroke="black" points="1376.55,-34.09 1365.99,-33.35 1373.79,-40.52 1376.55,-34.09"/>
</g>
<!-- pynio&#45;&gt;conda&#45;forge&#45;pinning -->
<g id="edge37" class="edge">
<title>pynio&#45;&gt;conda&#45;forge&#45;pinning</title>
<path fill="none" stroke="black" d="M1335.92,-72.41C1332.19,-64.25 1327.6,-54.22 1323.42,-45.07"/>
<polygon fill="black" stroke="black" points="1326.59,-43.6 1319.25,-35.96 1320.23,-46.51 1326.59,-43.6"/>
</g>
<!-- hyperion&#45;fortran -->
<g id="node23" class="node">
<title>hyperion&#45;fortran</title>
<g id="a_node23"><a xlink:href="https://github.com/conda-forge/hyperion-fortran-feedstock/pull/18" xlink:title="hyperion fortran">
<ellipse fill="#31688e" stroke="black" cx="1459.5" cy="-306" rx="89.08" ry="18"/>
<text text-anchor="middle" x="1459.5" y="-302.3" font-family="Times,serif" font-size="14.00" fill="white">hyperion fortran</text>
</a>
</g>
</g>
<!-- hyperion&#45;fortran&#45;&gt;conda&#45;forge&#45;pinning -->
<g id="edge38" class="edge">
<title>hyperion&#45;fortran&#45;&gt;conda&#45;forge&#45;pinning</title>
<path fill="none" stroke="black" d="M1464.52,-287.74C1475.87,-244.66 1498.27,-131.59 1440.5,-72 1424.57,-55.57 1402.82,-44.04 1381.71,-36.05"/>
<polygon fill="black" stroke="black" points="1382.68,-32.67 1372.09,-32.61 1380.33,-39.27 1382.68,-32.67"/>
</g>
<!-- pyne -->
<g id="node24" class="node">
<title>pyne</title>
<g id="a_node24"><a xlink:href="https://github.com/conda-forge/pyne-feedstock/pull/40" xlink:title="pyne">
<ellipse fill="#31688e" stroke="black" cx="1576.5" cy="-378" rx="30.59" ry="18"/>
<text text-anchor="middle" x="1576.5" y="-374.3" font-family="Times,serif" font-size="14.00" fill="white">pyne</text>
</a>
</g>
</g>
<!-- pyne&#45;&gt;conda&#45;forge&#45;pinning -->
<g id="edge39" class="edge">
<title>pyne&#45;&gt;conda&#45;forge&#45;pinning</title>
<path fill="none" stroke="black" d="M1575.51,-359.92C1571.59,-308.42 1552.72,-153.22 1465.5,-72 1445.78,-53.63 1419.39,-41.59 1394.04,-33.72"/>
<polygon fill="black" stroke="black" points="1394.97,-30.35 1384.38,-30.9 1393,-37.06 1394.97,-30.35"/>
</g>
<!-- r&#45;hdf5r -->
<g id="node25" class="node">
<title>r&#45;hdf5r</title>
<g id="a_node25"><a xlink:href="https://github.com/conda-forge/r-hdf5r-feedstock/pull/12" xlink:title="r hdf5r">
<ellipse fill="#31688e" stroke="black" cx="1593.5" cy="-90" rx="45" ry="18"/>
<text text-anchor="middle" x="1593.5" y="-86.3" font-family="Times,serif" font-size="14.00" fill="white">r hdf5r</text>
</a>
</g>
</g>
<!-- r&#45;hdf5r&#45;&gt;conda&#45;forge&#45;pinning -->
<g id="edge40" class="edge">
<title>r&#45;hdf5r&#45;&gt;conda&#45;forge&#45;pinning</title>
<path fill="none" stroke="black" d="M1558.32,-78.57C1550.5,-76.33 1542.23,-74.03 1534.5,-72 1483.8,-58.68 1426.22,-45.03 1382.28,-34.92"/>
<polygon fill="black" stroke="black" points="1382.8,-31.45 1372.27,-32.63 1381.23,-38.27 1382.8,-31.45"/>
</g>
<!-- shogun -->
<g id="node26" class="node">
<title>shogun</title>
<g id="a_node26"><a xlink:href="https://github.com/conda-forge/shogun-feedstock/pull/20" xlink:title="shogun">
<ellipse fill="#31688e" stroke="black" cx="1635.5" cy="-162" rx="40.5" ry="18"/>
<text text-anchor="middle" x="1635.5" y="-158.3" font-family="Times,serif" font-size="14.00" fill="white">shogun</text>
</a>
</g>
</g>
<!-- shogun&#45;&gt;conda&#45;forge&#45;pinning -->
<g id="edge41" class="edge">
<title>shogun&#45;&gt;conda&#45;forge&#45;pinning</title>
<path fill="none" stroke="black" d="M1644.48,-144.44C1653.78,-124.78 1664.72,-92.15 1647.5,-72 1618.94,-38.59 1509.99,-26.11 1423.8,-21.52"/>
<polygon fill="black" stroke="black" points="1423.83,-18.02 1413.67,-21.01 1423.48,-25.01 1423.83,-18.02"/>
</g>
<!-- vigra -->
<g id="node27" class="node">
<title>vigra</title>
<g id="a_node27"><a xlink:href="https://github.com/conda-forge/vigra-feedstock/pull/54" xlink:title="vigra">
<ellipse fill="#31688e" stroke="black" cx="1679.5" cy="-234" rx="35.19" ry="18"/>
<text text-anchor="middle" x="1679.5" y="-230.3" font-family="Times,serif" font-size="14.00" fill="white">vigra</text>
</a>
</g>
</g>
<!-- vigra&#45;&gt;conda&#45;forge&#45;pinning -->
<g id="edge42" class="edge">
<title>vigra&#45;&gt;conda&#45;forge&#45;pinning</title>
<path fill="none" stroke="black" d="M1684.47,-216.11C1693.15,-182.69 1706.48,-108.25 1665.5,-72 1630.23,-40.8 1512.63,-27.96 1422.56,-22.69"/>
<polygon fill="black" stroke="black" points="1422.73,-19.19 1412.55,-22.12 1422.34,-26.18 1422.73,-19.19"/>
</g>
<!-- yaafe -->
<g id="node28" class="node">
<title>yaafe</title>
<g id="a_node28"><a xlink:href="https://github.com/conda-forge/yaafe-feedstock/pull/9" xlink:title="yaafe">
<ellipse fill="#31688e" stroke="black" cx="1717.5" cy="-306" rx="35.19" ry="18"/>
<text text-anchor="middle" x="1717.5" y="-302.3" font-family="Times,serif" font-size="14.00" fill="white">yaafe</text>
</a>
</g>
</g>
<!-- yaafe&#45;&gt;conda&#45;forge&#45;pinning -->
<g id="edge43" class="edge">
<title>yaafe&#45;&gt;conda&#45;forge&#45;pinning</title>
<path fill="none" stroke="black" d="M1721.96,-287.98C1732.23,-244.46 1752.17,-128.56 1690.5,-72 1652.55,-37.19 1521.6,-25.11 1424.18,-20.99"/>
<polygon fill="black" stroke="black" points="1424.11,-17.48 1413.97,-20.58 1423.83,-24.47 1424.11,-17.48"/>
</g>
<!-- alps -->
<g id="node29" class="node">
<title>alps</title>
<g id="a_node29"><a xlink:href="https://github.com/conda-forge/alps-feedstock/pull/31" xlink:title="alps">
<ellipse fill="#31688e" stroke="black" cx="1780.5" cy="-378" rx="30.59" ry="18"/>
<text text-anchor="middle" x="1780.5" y="-374.3" font-family="Times,serif" font-size="14.00" fill="white">alps</text>
</a>
</g>
</g>
<!-- alps&#45;&gt;conda&#45;forge&#45;pinning -->
<g id="edge44" class="edge">
<title>alps&#45;&gt;conda&#45;forge&#45;pinning</title>
<path fill="none" stroke="black" d="M1780.5,-359.95C1780.5,-333.29 1780.5,-280.11 1780.5,-235 1780.5,-235 1780.5,-235 1780.5,-161 1780.5,-112.28 1758.32,-97 1716.5,-72 1668.12,-43.08 1523.68,-29.64 1421.12,-23.61"/>
<polygon fill="black" stroke="black" points="1421.2,-20.11 1411.01,-23.03 1420.8,-27.1 1421.2,-20.11"/>
</g>
<!-- spdlib -->
<g id="node30" class="node">
<title>spdlib</title>
<g id="a_node30"><a xlink:href="https://github.com/conda-forge/spdlib-feedstock/pull/15" xlink:title="spdlib">
<ellipse fill="#31688e" stroke="black" cx="1849.5" cy="-90" rx="40.5" ry="18"/>
<text text-anchor="middle" x="1849.5" y="-86.3" font-family="Times,serif" font-size="14.00" fill="white">spdlib</text>
</a>
</g>
</g>
<!-- spdlib&#45;&gt;conda&#45;forge&#45;pinning -->
<g id="edge45" class="edge">
<title>spdlib&#45;&gt;conda&#45;forge&#45;pinning</title>
<path fill="none" stroke="black" d="M1818.65,-78.33C1810.84,-75.95 1802.43,-73.64 1794.5,-72 1667.06,-45.56 1517.79,-31.74 1419.29,-24.93"/>
<polygon fill="black" stroke="black" points="1419.24,-21.42 1409.03,-24.23 1418.77,-28.4 1419.24,-21.42"/>
</g>
<!-- mpb -->
<g id="node31" class="node">
<title>mpb</title>
<g id="a_node31"><a xlink:href="https://github.com/conda-forge/mpb-feedstock/pull/22" xlink:title="mpb">
<ellipse fill="#31688e" stroke="black" cx="436.5" cy="-162" rx="27" ry="18"/>
<text text-anchor="middle" x="436.5" y="-158.3" font-family="Times,serif" font-size="14.00" fill="white">mpb</text>
</a>
</g>
</g>
<!-- mpb&#45;&gt;conda&#45;forge&#45;pinning -->
<g id="edge46" class="edge">
<title>mpb&#45;&gt;conda&#45;forge&#45;pinning</title>
<path fill="none" stroke="black" d="M421.29,-147.06C402.34,-128.06 374.83,-93.9 395.5,-72 422.68,-43.2 960.54,-27.16 1199.15,-21.44"/>
<polygon fill="black" stroke="black" points="1199.33,-24.93 1209.24,-21.2 1199.16,-17.93 1199.33,-24.93"/>
</g>
<!-- mpb&#45;&gt;pymeep -->
<g id="edge47" class="edge">
<title>mpb&#45;&gt;pymeep</title>
<path fill="none" stroke="black" d="M416.06,-149.91C395.99,-139.02 365.02,-122.21 341.28,-109.33"/>
<polygon fill="black" stroke="black" points="342.72,-106.13 332.26,-104.43 339.38,-112.28 342.72,-106.13"/>
</g>
<!-- openpmd&#45;api -->
<g id="node32" class="node">
<title>openpmd&#45;api</title>
<g id="a_node32"><a xlink:href="https://github.com/conda-forge/openpmd-api-feedstock" xlink:title="openpmd api">
<ellipse fill="#fde725" stroke="black" cx="2011.5" cy="-90" rx="64.5" ry="18"/>
<text text-anchor="middle" x="2011.5" y="-86.3" font-family="Times,serif" font-size="14.00">openpmd api</text>
</a>
</g>
</g>
<!-- openpmd&#45;api&#45;&gt;conda&#45;forge&#45;pinning -->
<g id="edge48" class="edge">
<title>openpmd&#45;api&#45;&gt;conda&#45;forge&#45;pinning</title>
<path fill="none" stroke="black" d="M1964.06,-77.77C1953.7,-75.61 1942.77,-73.54 1932.5,-72 1754.12,-45.31 1544.75,-30.9 1420.38,-24.1"/>
<polygon fill="black" stroke="black" points="1420.27,-20.59 1410.09,-23.55 1419.89,-27.58 1420.27,-20.59"/>
</g>
<!-- cmor -->
<g id="node33" class="node">
<title>cmor</title>
<g id="a_node33"><a xlink:href="https://github.com/conda-forge/cmor-feedstock/pull/23" xlink:title="cmor">
<ellipse fill="#31688e" stroke="black" cx="2083.5" cy="-162" rx="30.59" ry="18"/>
<text text-anchor="middle" x="2083.5" y="-158.3" font-family="Times,serif" font-size="14.00" fill="white">cmor</text>
</a>
</g>
</g>
<!-- cmor&#45;&gt;conda&#45;forge&#45;pinning -->
<g id="edge49" class="edge">
<title>cmor&#45;&gt;conda&#45;forge&#45;pinning</title>
<path fill="none" stroke="black" d="M2090.1,-144.12C2096.67,-124.15 2103.43,-91.2 2085.5,-72 2041.46,-24.84 1629.61,-18.59 1425.31,-18.42"/>
<polygon fill="black" stroke="black" points="1425.15,-14.92 1415.15,-18.42 1425.15,-21.92 1425.15,-14.92"/>
</g>
<!-- freecad -->
<g id="node34" class="node">
<title>freecad</title>
<g id="a_node34"><a xlink:href="https://github.com/conda-forge/freecad-feedstock/pull/38" xlink:title="freecad">
<ellipse fill="#31688e" stroke="black" cx="2107.5" cy="-234" rx="45" ry="18"/>
<text text-anchor="middle" x="2107.5" y="-230.3" font-family="Times,serif" font-size="14.00" fill="white">freecad</text>
</a>
</g>
</g>
<!-- freecad&#45;&gt;conda&#45;forge&#45;pinning -->
<g id="edge50" class="edge">
<title>freecad&#45;&gt;conda&#45;forge&#45;pinning</title>
<path fill="none" stroke="black" d="M2114.14,-216.1C2126.18,-182.33 2146.66,-106.78 2104.5,-72 2053.37,-29.82 1632.32,-21.1 1425.4,-19.38"/>
<polygon fill="black" stroke="black" points="1425.14,-15.87 1415.11,-19.29 1425.08,-22.87 1425.14,-15.87"/>
</g>
<!-- scilab -->
<g id="node35" class="node">
<title>scilab</title>
<g id="a_node35"><a xlink:href="https://github.com/conda-forge/scilab-feedstock/pull/12" xlink:title="scilab">
<ellipse fill="#31688e" stroke="black" cx="2149.5" cy="-306" rx="40.5" ry="18"/>
<text text-anchor="middle" x="2149.5" y="-302.3" font-family="Times,serif" font-size="14.00" fill="white">scilab</text>
</a>
</g>
</g>
<!-- scilab&#45;&gt;conda&#45;forge&#45;pinning -->
<g id="edge51" class="edge">
<title>scilab&#45;&gt;conda&#45;forge&#45;pinning</title>
<path fill="none" stroke="black" d="M2154.7,-288.01C2166.99,-244.06 2192.21,-126.23 2128.5,-72 2076.22,-27.5 1637.48,-19.98 1425.4,-18.97"/>
<polygon fill="black" stroke="black" points="1425.18,-15.47 1415.17,-18.93 1425.15,-22.47 1425.18,-15.47"/>
</g>
<!-- adios2 -->
<g id="node36" class="node">
<title>adios2</title>
<g id="a_node36"><a xlink:href="https://github.com/conda-forge/adios2-feedstock/pull/11" xlink:title="adios2">
<ellipse fill="#31688e" stroke="black" cx="1956.5" cy="-162" rx="40.5" ry="18"/>
<text text-anchor="middle" x="1956.5" y="-158.3" font-family="Times,serif" font-size="14.00" fill="white">adios2</text>
</a>
</g>
</g>
<!-- adios2&#45;&gt;conda&#45;forge&#45;pinning -->
<g id="edge52" class="edge">
<title>adios2&#45;&gt;conda&#45;forge&#45;pinning</title>
<path fill="none" stroke="black" d="M1950.83,-143.83C1942.94,-122.92 1926.48,-88.38 1899.5,-72 1859.69,-47.83 1580,-31.27 1421.13,-23.69"/>
<polygon fill="black" stroke="black" points="1421,-20.18 1410.84,-23.2 1420.67,-27.17 1421,-20.18"/>
</g>
<!-- adios2&#45;&gt;openpmd&#45;api -->
<g id="edge53" class="edge">
<title>adios2&#45;&gt;openpmd&#45;api</title>
<path fill="none" stroke="black" d="M1969.26,-144.76C1976.03,-136.14 1984.5,-125.36 1992.07,-115.73"/>
<polygon fill="black" stroke="black" points="1995,-117.66 1998.43,-107.63 1989.5,-113.33 1995,-117.66"/>
</g>
<!-- bonsu -->
<g id="node37" class="node">
<title>bonsu</title>
<g id="a_node37"><a xlink:href="https://github.com/conda-forge/bonsu-feedstock/pull/5" xlink:title="bonsu">
<ellipse fill="#31688e" stroke="black" cx="2218.5" cy="-378" rx="35.19" ry="18"/>
<text text-anchor="middle" x="2218.5" y="-374.3" font-family="Times,serif" font-size="14.00" fill="white">bonsu</text>
</a>
</g>
</g>
<!-- bonsu&#45;&gt;conda&#45;forge&#45;pinning -->
<g id="edge54" class="edge">
<title>bonsu&#45;&gt;conda&#45;forge&#45;pinning</title>
<path fill="none" stroke="black" d="M2218.5,-359.95C2218.5,-333.29 2218.5,-280.11 2218.5,-235 2218.5,-235 2218.5,-235 2218.5,-161 2218.5,-112.54 2197.82,-95.61 2155.5,-72 2093.22,-37.26 1639.33,-24.73 1424.12,-20.7"/>
<polygon fill="black" stroke="black" points="1424.12,-17.2 1414.06,-20.51 1423.99,-24.2 1424.12,-17.2"/>
</g>
<!-- dagmc -->
<g id="node38" class="node">
<title>dagmc</title>
<g id="a_node38"><a xlink:href="https://github.com/conda-forge/dagmc-feedstock/pull/1" xlink:title="dagmc">
<ellipse fill="#31688e" stroke="black" cx="2281.5" cy="-90" rx="35.19" ry="18"/>
<text text-anchor="middle" x="2281.5" y="-86.3" font-family="Times,serif" font-size="14.00" fill="white">dagmc</text>
</a>
</g>
</g>
<!-- dagmc&#45;&gt;conda&#45;forge&#45;pinning -->
<g id="edge56" class="edge">
<title>dagmc&#45;&gt;conda&#45;forge&#45;pinning</title>
<path fill="none" stroke="black" d="M2254.66,-78.19C2247.56,-75.75 2239.83,-73.45 2232.5,-72 2080.83,-41.93 1634,-27.07 1423.55,-21.58"/>
<polygon fill="black" stroke="black" points="1423.49,-18.08 1413.4,-21.32 1423.31,-25.08 1423.49,-18.08"/>
</g>
<!-- nccmp -->
<g id="node39" class="node">
<title>nccmp</title>
<g id="a_node39"><a xlink:href="https://github.com/conda-forge/nccmp-feedstock/pull/2" xlink:title="nccmp">
<ellipse fill="#31688e" stroke="black" cx="2344.5" cy="-162" rx="35.19" ry="18"/>
<text text-anchor="middle" x="2344.5" y="-158.3" font-family="Times,serif" font-size="14.00" fill="white">nccmp</text>
</a>
</g>
</g>
<!-- nccmp&#45;&gt;conda&#45;forge&#45;pinning -->
<g id="edge57" class="edge">
<title>nccmp&#45;&gt;conda&#45;forge&#45;pinning</title>
<path fill="none" stroke="black" d="M2346.4,-143.88C2347.63,-123.36 2346.05,-89.54 2325.5,-72 2291.67,-43.14 1681.07,-26.84 1424.05,-21.24"/>
<polygon fill="black" stroke="black" points="1424.01,-17.74 1413.94,-21.02 1423.86,-24.74 1424.01,-17.74"/>
</g>
</g>
</svg>
