<?xml version="1.0" encoding="UTF-8" standalone="no"?>
<!DOCTYPE svg PUBLIC "-//W3C//DTD SVG 1.1//EN"
 "http://www.w3.org/Graphics/SVG/1.1/DTD/svg11.dtd">
<!-- Generated by graphviz version 2.42.3 (20191010.1750)
 -->
<!-- Title: %3 Pages: 1 -->
<svg width="2767pt" height="476pt"
 viewBox="0.00 0.00 2766.60 476.00" xmlns="http://www.w3.org/2000/svg" xmlns:xlink="http://www.w3.org/1999/xlink">
<g id="graph0" class="graph" transform="scale(1 1) rotate(0) translate(4 472)">
<title>%3</title>
<polygon fill="white" stroke="transparent" points="-4,4 -4,-472 2762.6,-472 2762.6,4 -4,4"/>
<!-- caffe -->
<g id="node1" class="node">
<title>caffe</title>
<g id="a_node1"><a xlink:href="https://github.com/conda-forge/caffe-feedstock" xlink:title="caffe">
<ellipse fill="#fde725" stroke="black" cx="971.5" cy="-378" rx="35.19" ry="18"/>
<text text-anchor="middle" x="971.5" y="-374.3" font-family="Times,serif" font-size="14.00">caffe</text>
</a>
</g>
</g>
<!-- conda&#45;forge&#45;pinning -->
<g id="node2" class="node">
<title>conda&#45;forge&#45;pinning</title>
<ellipse fill="none" stroke="black" cx="1458.5" cy="-18" rx="103.5" ry="18"/>
<text text-anchor="middle" x="1458.5" y="-14.3" font-family="Times,serif" font-size="14.00">conda&#45;forge&#45;pinning</text>
</g>
<!-- caffe&#45;&gt;conda&#45;forge&#45;pinning -->
<g id="edge1" class="edge">
<title>caffe&#45;&gt;conda&#45;forge&#45;pinning</title>
<path fill="none" stroke="black" d="M970.51,-359.96C969.06,-333.31 966.5,-280.14 966.5,-235 966.5,-235 966.5,-235 966.5,-161 966.5,-120.03 959.43,-98.71 990.5,-72 1017.29,-48.97 1221.19,-32.88 1350.87,-24.86"/>
<polygon fill="black" stroke="black" points="1351.47,-28.33 1361.23,-24.22 1351.04,-21.34 1351.47,-28.33"/>
</g>
<!-- cyclus -->
<g id="node3" class="node">
<title>cyclus</title>
<g id="a_node3"><a xlink:href="https://github.com/conda-forge/cyclus-feedstock/pull/56" xlink:title="cyclus">
<ellipse fill="#31688e" stroke="black" cx="40.5" cy="-90" rx="40.5" ry="18"/>
<text text-anchor="middle" x="40.5" y="-86.3" font-family="Times,serif" font-size="14.00" fill="white">cyclus</text>
</a>
</g>
</g>
<!-- cyclus&#45;&gt;conda&#45;forge&#45;pinning -->
<g id="edge2" class="edge">
<title>cyclus&#45;&gt;conda&#45;forge&#45;pinning</title>
<path fill="none" stroke="black" d="M70.99,-78.03C78.88,-75.62 87.42,-73.38 95.5,-72 334.43,-31.15 1062.86,-21.74 1345.1,-19.61"/>
<polygon fill="black" stroke="black" points="1345.38,-23.11 1355.36,-19.54 1345.33,-16.11 1345.38,-23.11"/>
</g>
<!-- fenics -->
<g id="node4" class="node">
<title>fenics</title>
<g id="a_node4"><a xlink:href="https://github.com/conda-forge/fenics-feedstock/pull/107" xlink:title="fenics">
<ellipse fill="#31688e" stroke="black" cx="93.5" cy="-162" rx="40.5" ry="18"/>
<text text-anchor="middle" x="93.5" y="-158.3" font-family="Times,serif" font-size="14.00" fill="white">fenics</text>
</a>
</g>
</g>
<!-- fenics&#45;&gt;conda&#45;forge&#45;pinning -->
<g id="edge3" class="edge">
<title>fenics&#45;&gt;conda&#45;forge&#45;pinning</title>
<path fill="none" stroke="black" d="M98.54,-144C105.79,-122.93 121.37,-87.85 148.5,-72 199.74,-42.06 1037.02,-25.73 1345.53,-20.7"/>
<polygon fill="black" stroke="black" points="1345.89,-24.2 1355.84,-20.53 1345.78,-17.2 1345.89,-24.2"/>
</g>
<!-- flann -->
<g id="node5" class="node">
<title>flann</title>
<g id="a_node5"><a xlink:href="https://github.com/conda-forge/flann-feedstock/pull/26" xlink:title="flann">
<ellipse fill="#31688e" stroke="black" cx="137.5" cy="-234" rx="35.19" ry="18"/>
<text text-anchor="middle" x="137.5" y="-230.3" font-family="Times,serif" font-size="14.00" fill="white">flann</text>
</a>
</g>
</g>
<!-- flann&#45;&gt;conda&#45;forge&#45;pinning -->
<g id="edge4" class="edge">
<title>flann&#45;&gt;conda&#45;forge&#45;pinning</title>
<path fill="none" stroke="black" d="M140.19,-215.82C146.48,-178.09 163.39,-89.88 186.5,-72 231.93,-36.85 1042.4,-23.84 1345.42,-20.19"/>
<polygon fill="black" stroke="black" points="1345.59,-23.69 1355.55,-20.07 1345.51,-16.69 1345.59,-23.69"/>
</g>
<!-- graph -->
<g id="node6" class="node">
<title>graph</title>
<g id="a_node6"><a xlink:href="https://github.com/conda-forge/graph-feedstock/pull/5" xlink:title="graph">
<ellipse fill="#31688e" stroke="black" cx="200.5" cy="-306" rx="35.19" ry="18"/>
<text text-anchor="middle" x="200.5" y="-302.3" font-family="Times,serif" font-size="14.00" fill="white">graph</text>
</a>
</g>
</g>
<!-- graph&#45;&gt;conda&#45;forge&#45;pinning -->
<g id="edge5" class="edge">
<title>graph&#45;&gt;conda&#45;forge&#45;pinning</title>
<path fill="none" stroke="black" d="M198.03,-287.94C194.41,-256.74 190.92,-189.53 219.5,-144 251.16,-93.56 275.74,-90.01 332.5,-72 427.18,-41.97 1079.82,-26.24 1345.93,-21.01"/>
<polygon fill="black" stroke="black" points="1346.07,-24.51 1356,-20.82 1345.93,-17.51 1346.07,-24.51"/>
</g>
<!-- h5py -->
<g id="node7" class="node">
<title>h5py</title>
<g id="a_node7"><a xlink:href="https://github.com/conda-forge/h5py-feedstock/pull/72" xlink:title="h5py">
<ellipse fill="#31688e" stroke="black" cx="889.5" cy="-450" rx="30.59" ry="18"/>
<text text-anchor="middle" x="889.5" y="-446.3" font-family="Times,serif" font-size="14.00" fill="white">h5py</text>
</a>
</g>
</g>
<!-- h5py&#45;&gt;caffe -->
<g id="edge6" class="edge">
<title>h5py&#45;&gt;caffe</title>
<path fill="none" stroke="black" d="M906.09,-434.83C917.64,-424.98 933.25,-411.65 946.33,-400.49"/>
<polygon fill="black" stroke="black" points="948.75,-403.02 954.08,-393.87 944.2,-397.7 948.75,-403.02"/>
</g>
<!-- h5py&#45;&gt;conda&#45;forge&#45;pinning -->
<g id="edge7" class="edge">
<title>h5py&#45;&gt;conda&#45;forge&#45;pinning</title>
<path fill="none" stroke="black" d="M919.38,-445.76C949.42,-440.74 994.23,-428.02 1015.5,-396 1024.35,-382.67 1016.2,-375.98 1015.5,-360 1013.05,-304.28 1004.5,-290.77 1004.5,-235 1004.5,-235 1004.5,-235 1004.5,-161 1004.5,-113.05 1024.67,-97.15 1065.5,-72 1111.69,-43.55 1249.93,-30.05 1349.4,-23.86"/>
<polygon fill="black" stroke="black" points="1349.73,-27.35 1359.5,-23.25 1349.31,-20.36 1349.73,-27.35"/>
</g>
<!-- openmc -->
<g id="node8" class="node">
<title>openmc</title>
<g id="a_node8"><a xlink:href="https://github.com/conda-forge/openmc-feedstock" xlink:title="openmc">
<ellipse fill="#fde725" stroke="black" cx="1073.5" cy="-306" rx="40.5" ry="18"/>
<text text-anchor="middle" x="1073.5" y="-302.3" font-family="Times,serif" font-size="14.00">openmc</text>
</a>
</g>
</g>
<!-- h5py&#45;&gt;openmc -->
<g id="edge8" class="edge">
<title>h5py&#45;&gt;openmc</title>
<path fill="none" stroke="black" d="M919.72,-447.2C955.45,-443.43 1014.37,-431.81 1048.5,-396 1064.29,-379.43 1070.25,-353.71 1072.42,-334.17"/>
<polygon fill="black" stroke="black" points="1075.93,-334.31 1073.28,-324.05 1068.95,-333.72 1075.93,-334.31"/>
</g>
<!-- rsgislib -->
<g id="node9" class="node">
<title>rsgislib</title>
<g id="a_node9"><a xlink:href="https://github.com/conda-forge/rsgislib-feedstock" xlink:title="rsgislib">
<ellipse fill="#fde725" stroke="black" cx="1120.5" cy="-234" rx="50.09" ry="18"/>
<text text-anchor="middle" x="1120.5" y="-230.3" font-family="Times,serif" font-size="14.00">rsgislib</text>
</a>
</g>
</g>
<!-- h5py&#45;&gt;rsgislib -->
<g id="edge9" class="edge">
<title>h5py&#45;&gt;rsgislib</title>
<path fill="none" stroke="black" d="M919.74,-446.47C958.4,-441.92 1025.89,-429.48 1072.5,-396 1104.14,-373.27 1110.86,-361.18 1122.5,-324 1128.76,-304 1127.83,-280.21 1125.57,-262.26"/>
<polygon fill="black" stroke="black" points="1129,-261.57 1124.08,-252.18 1122.08,-262.59 1129,-261.57"/>
</g>
<!-- h5utils -->
<g id="node10" class="node">
<title>h5utils</title>
<g id="a_node10"><a xlink:href="https://github.com/conda-forge/h5utils-feedstock" xlink:title="h5utils">
<ellipse fill="#fde725" stroke="black" cx="1153.5" cy="-162" rx="45" ry="18"/>
<text text-anchor="middle" x="1153.5" y="-158.3" font-family="Times,serif" font-size="14.00">h5utils</text>
</a>
</g>
</g>
<!-- h5py&#45;&gt;h5utils -->
<g id="edge10" class="edge">
<title>h5py&#45;&gt;h5utils</title>
<path fill="none" stroke="black" d="M920.34,-449.08C965.44,-447.64 1049.94,-438.88 1104.5,-396 1161.23,-351.41 1162.34,-322.09 1179.5,-252 1183.3,-236.46 1183.12,-231.59 1179.5,-216 1177.35,-206.72 1173.32,-197.18 1169.08,-188.81"/>
<polygon fill="black" stroke="black" points="1172.11,-187.05 1164.28,-179.92 1165.95,-190.38 1172.11,-187.05"/>
</g>
<!-- pymeep -->
<g id="node11" class="node">
<title>pymeep</title>
<g id="a_node11"><a xlink:href="https://github.com/conda-forge/pymeep-feedstock" xlink:title="pymeep">
<ellipse fill="#fde725" stroke="black" cx="1187.5" cy="-90" rx="40.5" ry="18"/>
<text text-anchor="middle" x="1187.5" y="-86.3" font-family="Times,serif" font-size="14.00">pymeep</text>
</a>
</g>
</g>
<!-- h5py&#45;&gt;pymeep -->
<g id="edge11" class="edge">
<title>h5py&#45;&gt;pymeep</title>
<path fill="none" stroke="black" d="M920.28,-449.86C970.26,-449.75 1070.14,-443.06 1136.5,-396 1218.93,-337.55 1199.17,-280.71 1207.5,-180 1208.82,-164.05 1210.37,-159.74 1207.5,-144 1205.85,-134.96 1202.74,-125.46 1199.46,-117.04"/>
<polygon fill="black" stroke="black" points="1202.66,-115.63 1195.6,-107.74 1196.2,-118.32 1202.66,-115.63"/>
</g>
<!-- blosc&#45;hdf5&#45;plugin -->
<g id="node12" class="node">
<title>blosc&#45;hdf5&#45;plugin</title>
<g id="a_node12"><a xlink:href="https://github.com/conda-forge/blosc-hdf5-plugin-feedstock" xlink:title="blosc hdf5 plugin">
<ellipse fill="#fde725" stroke="black" cx="322.5" cy="-162" rx="93.68" ry="18"/>
<text text-anchor="middle" x="322.5" y="-158.3" font-family="Times,serif" font-size="14.00">blosc hdf5 plugin</text>
</a>
</g>
</g>
<!-- h5py&#45;&gt;blosc&#45;hdf5&#45;plugin -->
<g id="edge12" class="edge">
<title>h5py&#45;&gt;blosc&#45;hdf5&#45;plugin</title>
<path fill="none" stroke="black" d="M858.95,-449.26C767.7,-449.45 499.25,-445.69 430.5,-396 361.15,-345.87 335.08,-239.95 326.38,-190.07"/>
<polygon fill="black" stroke="black" points="329.8,-189.34 324.73,-180.04 322.9,-190.47 329.8,-189.34"/>
</g>
<!-- isce2 -->
<g id="node13" class="node">
<title>isce2</title>
<g id="a_node13"><a xlink:href="https://github.com/conda-forge/isce2-feedstock" xlink:title="isce2">
<ellipse fill="#fde725" stroke="black" cx="407.5" cy="-90" rx="35.19" ry="18"/>
<text text-anchor="middle" x="407.5" y="-86.3" font-family="Times,serif" font-size="14.00">isce2</text>
</a>
</g>
</g>
<!-- h5py&#45;&gt;isce2 -->
<g id="edge13" class="edge">
<title>h5py&#45;&gt;isce2</title>
<path fill="none" stroke="black" d="M858.77,-449.6C770.89,-450.67 521.18,-448.89 463.5,-396 433.69,-368.66 444.5,-347.45 444.5,-307 444.5,-307 444.5,-307 444.5,-233 444.5,-191.48 429.5,-145.27 418.6,-117.17"/>
<polygon fill="black" stroke="black" points="421.77,-115.67 414.81,-107.68 415.27,-118.27 421.77,-115.67"/>
</g>
<!-- bitshuffle -->
<g id="node14" class="node">
<title>bitshuffle</title>
<g id="a_node14"><a xlink:href="https://github.com/conda-forge/bitshuffle-feedstock" xlink:title="bitshuffle">
<ellipse fill="#fde725" stroke="black" cx="532.5" cy="-378" rx="60" ry="18"/>
<text text-anchor="middle" x="532.5" y="-374.3" font-family="Times,serif" font-size="14.00">bitshuffle</text>
</a>
</g>
</g>
<!-- h5py&#45;&gt;bitshuffle -->
<g id="edge14" class="edge">
<title>h5py&#45;&gt;bitshuffle</title>
<path fill="none" stroke="black" d="M860.5,-443.97C809.16,-434.98 698.99,-415.28 606.5,-396 600.63,-394.78 594.51,-393.45 588.41,-392.1"/>
<polygon fill="black" stroke="black" points="588.75,-388.59 578.23,-389.81 587.22,-395.42 588.75,-388.59"/>
</g>
<!-- triqs -->
<g id="node15" class="node">
<title>triqs</title>
<g id="a_node15"><a xlink:href="https://github.com/conda-forge/triqs-feedstock" xlink:title="triqs">
<ellipse fill="#fde725" stroke="black" cx="608.5" cy="-162" rx="35.19" ry="18"/>
<text text-anchor="middle" x="608.5" y="-158.3" font-family="Times,serif" font-size="14.00">triqs</text>
</a>
</g>
</g>
<!-- h5py&#45;&gt;triqs -->
<g id="edge15" class="edge">
<title>h5py&#45;&gt;triqs</title>
<path fill="none" stroke="black" d="M860.7,-443.98C806.98,-432.96 692.16,-401.16 639.5,-324 611.85,-283.48 607.38,-224.55 607.41,-190.36"/>
<polygon fill="black" stroke="black" points="610.91,-190.23 607.55,-180.18 603.91,-190.13 610.91,-190.23"/>
</g>
<!-- hdf5plugin -->
<g id="node16" class="node">
<title>hdf5plugin</title>
<g id="a_node16"><a xlink:href="https://github.com/conda-forge/hdf5plugin-feedstock" xlink:title="hdf5plugin">
<ellipse fill="#fde725" stroke="black" cx="708.5" cy="-306" rx="60" ry="18"/>
<text text-anchor="middle" x="708.5" y="-302.3" font-family="Times,serif" font-size="14.00">hdf5plugin</text>
</a>
</g>
</g>
<!-- h5py&#45;&gt;hdf5plugin -->
<g id="edge16" class="edge">
<title>h5py&#45;&gt;hdf5plugin</title>
<path fill="none" stroke="black" d="M866.07,-438.34C846.09,-428.7 817.1,-413.39 794.5,-396 769.61,-376.86 745.12,-350.57 728.67,-331.53"/>
<polygon fill="black" stroke="black" points="731.29,-329.2 722.14,-323.86 725.96,-333.74 731.29,-329.2"/>
</g>
<!-- prismatic_split -->
<g id="node17" class="node">
<title>prismatic_split</title>
<g id="a_node17"><a xlink:href="https://github.com/conda-forge/prismatic_split-feedstock" xlink:title="prismatic_split">
<ellipse fill="#fde725" stroke="black" cx="758.5" cy="-234" rx="84" ry="18"/>
<text text-anchor="middle" x="758.5" y="-230.3" font-family="Times,serif" font-size="14.00">prismatic_split</text>
</a>
</g>
</g>
<!-- h5py&#45;&gt;prismatic_split -->
<g id="edge17" class="edge">
<title>h5py&#45;&gt;prismatic_split</title>
<path fill="none" stroke="black" d="M879.35,-432.79C872.8,-422.31 864.11,-408.37 856.5,-396 827.15,-348.32 793.25,-292.45 774,-260.64"/>
<polygon fill="black" stroke="black" points="776.91,-258.7 768.74,-251.96 770.93,-262.32 776.91,-258.7"/>
</g>
<!-- digital_rf -->
<g id="node18" class="node">
<title>digital_rf</title>
<g id="a_node18"><a xlink:href="https://github.com/conda-forge/digital_rf-feedstock" xlink:title="digital_rf">
<ellipse fill="#fde725" stroke="black" cx="820.5" cy="-162" rx="60" ry="18"/>
<text text-anchor="middle" x="820.5" y="-158.3" font-family="Times,serif" font-size="14.00">digital_rf</text>
</a>
</g>
</g>
<!-- h5py&#45;&gt;digital_rf -->
<g id="edge18" class="edge">
<title>h5py&#45;&gt;digital_rf</title>
<path fill="none" stroke="black" d="M888.84,-431.8C886.88,-392.45 879.33,-293.32 851.5,-216 848.11,-206.57 843.03,-196.92 837.95,-188.48"/>
<polygon fill="black" stroke="black" points="840.82,-186.47 832.53,-179.87 834.9,-190.2 840.82,-186.47"/>
</g>
<!-- pp&#45;sketchlib -->
<g id="node19" class="node">
<title>pp&#45;sketchlib</title>
<g id="a_node19"><a xlink:href="https://github.com/conda-forge/pp-sketchlib-feedstock" xlink:title="pp sketchlib">
<ellipse fill="#fde725" stroke="black" cx="868.5" cy="-90" rx="69.59" ry="18"/>
<text text-anchor="middle" x="868.5" y="-86.3" font-family="Times,serif" font-size="14.00">pp sketchlib</text>
</a>
</g>
</g>
<!-- h5py&#45;&gt;pp&#45;sketchlib -->
<g id="edge19" class="edge">
<title>h5py&#45;&gt;pp&#45;sketchlib</title>
<path fill="none" stroke="black" d="M893.25,-432.05C898.79,-405.52 908.5,-352.52 908.5,-307 908.5,-307 908.5,-307 908.5,-233 908.5,-191.48 892.46,-145.61 880.7,-117.54"/>
<polygon fill="black" stroke="black" points="883.77,-115.84 876.59,-108.05 877.35,-118.62 883.77,-115.84"/>
</g>
<!-- openmc&#45;&gt;conda&#45;forge&#45;pinning -->
<g id="edge20" class="edge">
<title>openmc&#45;&gt;conda&#45;forge&#45;pinning</title>
<path fill="none" stroke="black" d="M1068.47,-287.98C1056.76,-244.47 1033.15,-128.59 1094.5,-72 1130.39,-38.89 1253.3,-26.43 1346.45,-21.76"/>
<polygon fill="black" stroke="black" points="1346.69,-25.25 1356.51,-21.28 1346.35,-18.26 1346.69,-25.25"/>
</g>
<!-- rsgislib&#45;&gt;conda&#45;forge&#45;pinning -->
<g id="edge21" class="edge">
<title>rsgislib&#45;&gt;conda&#45;forge&#45;pinning</title>
<path fill="none" stroke="black" d="M1111.78,-215.83C1107.13,-205.69 1101.88,-192.44 1099.5,-180 1090.24,-131.5 1087.46,-103.47 1125.5,-72 1159.09,-44.21 1266.32,-30.82 1350.13,-24.48"/>
<polygon fill="black" stroke="black" points="1350.51,-27.96 1360.23,-23.74 1350,-20.98 1350.51,-27.96"/>
</g>
<!-- h5utils&#45;&gt;conda&#45;forge&#45;pinning -->
<g id="edge22" class="edge">
<title>h5utils&#45;&gt;conda&#45;forge&#45;pinning</title>
<path fill="none" stroke="black" d="M1143.27,-144.16C1132.81,-124.54 1120.34,-92.23 1137.5,-72 1164.22,-40.51 1265.17,-27.7 1346.82,-22.51"/>
<polygon fill="black" stroke="black" points="1347.41,-25.98 1357.18,-21.88 1346.99,-18.99 1347.41,-25.98"/>
</g>
<!-- h5utils&#45;&gt;pymeep -->
<g id="edge23" class="edge">
<title>h5utils&#45;&gt;pymeep</title>
<path fill="none" stroke="black" d="M1161.73,-144.05C1165.7,-135.89 1170.54,-125.91 1174.96,-116.82"/>
<polygon fill="black" stroke="black" points="1178.12,-118.31 1179.35,-107.79 1171.83,-115.25 1178.12,-118.31"/>
</g>
<!-- pymeep&#45;&gt;conda&#45;forge&#45;pinning -->
<g id="edge24" class="edge">
<title>pymeep&#45;&gt;conda&#45;forge&#45;pinning</title>
<path fill="none" stroke="black" d="M1219.4,-78.79C1226.95,-76.47 1234.99,-74.08 1242.5,-72 1290.9,-58.59 1345.88,-45.13 1388.26,-35.13"/>
<polygon fill="black" stroke="black" points="1389.26,-38.48 1398.2,-32.79 1387.66,-31.67 1389.26,-38.48"/>
</g>
<!-- blosc&#45;hdf5&#45;plugin&#45;&gt;conda&#45;forge&#45;pinning -->
<g id="edge25" class="edge">
<title>blosc&#45;hdf5&#45;plugin&#45;&gt;conda&#45;forge&#45;pinning</title>
<path fill="none" stroke="black" d="M325.01,-143.83C329.08,-122.92 339.25,-88.37 363.5,-72 403.7,-44.86 1074.38,-27.33 1345.81,-21.32"/>
<polygon fill="black" stroke="black" points="1346.16,-24.82 1356.08,-21.1 1346.01,-17.82 1346.16,-24.82"/>
</g>
<!-- isce2&#45;&gt;conda&#45;forge&#45;pinning -->
<g id="edge26" class="edge">
<title>isce2&#45;&gt;conda&#45;forge&#45;pinning</title>
<path fill="none" stroke="black" d="M434.34,-78.17C441.44,-75.73 449.17,-73.44 456.5,-72 623.81,-39.23 1121.07,-25.59 1345.9,-20.98"/>
<polygon fill="black" stroke="black" points="1346.14,-24.48 1356.07,-20.77 1346,-17.48 1346.14,-24.48"/>
</g>
<!-- bitshuffle&#45;&gt;conda&#45;forge&#45;pinning -->
<g id="edge27" class="edge">
<title>bitshuffle&#45;&gt;conda&#45;forge&#45;pinning</title>
<path fill="none" stroke="black" d="M522.01,-360C491.82,-308.73 411.74,-154.13 489.5,-72 518.54,-41.32 1097.02,-26.18 1346.06,-21.06"/>
<polygon fill="black" stroke="black" points="1346.3,-24.56 1356.23,-20.86 1346.16,-17.56 1346.3,-24.56"/>
</g>
<!-- triqs&#45;&gt;conda&#45;forge&#45;pinning -->
<g id="edge28" class="edge">
<title>triqs&#45;&gt;conda&#45;forge&#45;pinning</title>
<path fill="none" stroke="black" d="M616.48,-144.36C627.58,-123.33 649.82,-87.95 680.5,-72 738.05,-42.09 1145.42,-27.26 1346.62,-21.69"/>
<polygon fill="black" stroke="black" points="1346.73,-25.19 1356.63,-21.42 1346.54,-18.19 1346.73,-25.19"/>
</g>
<!-- triqs_cthyb -->
<g id="node20" class="node">
<title>triqs_cthyb</title>
<g id="a_node20"><a xlink:href="https://github.com/conda-forge/triqs_cthyb-feedstock" xlink:title="triqs_cthyb">
<ellipse fill="#fde725" stroke="black" cx="563.5" cy="-90" rx="64.5" ry="18"/>
<text text-anchor="middle" x="563.5" y="-86.3" font-family="Times,serif" font-size="14.00">triqs_cthyb</text>
</a>
</g>
</g>
<!-- triqs&#45;&gt;triqs_cthyb -->
<g id="edge29" class="edge">
<title>triqs&#45;&gt;triqs_cthyb</title>
<path fill="none" stroke="black" d="M598.06,-144.76C592.71,-136.44 586.07,-126.1 580.04,-116.73"/>
<polygon fill="black" stroke="black" points="582.86,-114.64 574.51,-108.12 576.97,-118.43 582.86,-114.64"/>
</g>
<!-- hdf5plugin&#45;&gt;conda&#45;forge&#45;pinning -->
<g id="edge30" class="edge">
<title>hdf5plugin&#45;&gt;conda&#45;forge&#45;pinning</title>
<path fill="none" stroke="black" d="M690.36,-288.76C680.98,-279.13 670.49,-266.07 665.5,-252 660.15,-236.92 661.28,-231.43 665.5,-216 685.08,-144.31 687.38,-111.23 750.5,-72 799.78,-41.37 1159.56,-27.13 1346.44,-21.73"/>
<polygon fill="black" stroke="black" points="1346.68,-25.23 1356.58,-21.45 1346.48,-18.23 1346.68,-25.23"/>
</g>
<!-- prismatic_split&#45;&gt;conda&#45;forge&#45;pinning -->
<g id="edge31" class="edge">
<title>prismatic_split&#45;&gt;conda&#45;forge&#45;pinning</title>
<path fill="none" stroke="black" d="M753.95,-215.82C746.04,-181.54 734.49,-105.1 778.5,-72 822.7,-38.75 1164.61,-25.8 1346.11,-21.23"/>
<polygon fill="black" stroke="black" points="1346.32,-24.73 1356.23,-20.98 1346.15,-17.73 1346.32,-24.73"/>
</g>
<!-- digital_rf&#45;&gt;conda&#45;forge&#45;pinning -->
<g id="edge32" class="edge">
<title>digital_rf&#45;&gt;conda&#45;forge&#45;pinning</title>
<path fill="none" stroke="black" d="M805.96,-144.53C790.49,-124.97 770.62,-92.43 789.5,-72 826.33,-32.13 1164.04,-22.22 1345.07,-19.78"/>
<polygon fill="black" stroke="black" points="1345.21,-23.28 1355.17,-19.65 1345.12,-16.28 1345.21,-23.28"/>
</g>
<!-- pp&#45;sketchlib&#45;&gt;conda&#45;forge&#45;pinning -->
<g id="edge33" class="edge">
<title>pp&#45;sketchlib&#45;&gt;conda&#45;forge&#45;pinning</title>
<path fill="none" stroke="black" d="M919.89,-77.79C930.63,-75.68 941.91,-73.62 952.5,-72 1091.49,-50.71 1253.3,-35.4 1355.79,-26.87"/>
<polygon fill="black" stroke="black" points="1356.15,-30.35 1365.83,-26.04 1355.57,-23.37 1356.15,-30.35"/>
</g>
<!-- triqs_cthyb&#45;&gt;conda&#45;forge&#45;pinning -->
<g id="edge68" class="edge">
<title>triqs_cthyb&#45;&gt;conda&#45;forge&#45;pinning</title>
<path fill="none" stroke="black" d="M610.92,-77.61C621.28,-75.46 632.22,-73.43 642.5,-72 892.22,-37.21 1188.19,-25.19 1346.04,-21.08"/>
<polygon fill="black" stroke="black" points="1346.33,-24.57 1356.24,-20.82 1346.15,-17.58 1346.33,-24.57"/>
</g>
<!-- hdfeos5 -->
<g id="node21" class="node">
<title>hdfeos5</title>
<g id="a_node21"><a xlink:href="https://github.com/conda-forge/hdfeos5-feedstock/pull/27" xlink:title="hdfeos5">
<ellipse fill="#31688e" stroke="black" cx="1408.5" cy="-234" rx="45" ry="18"/>
<text text-anchor="middle" x="1408.5" y="-230.3" font-family="Times,serif" font-size="14.00" fill="white">hdfeos5</text>
</a>
</g>
</g>
<!-- hdfeos5&#45;&gt;conda&#45;forge&#45;pinning -->
<g id="edge34" class="edge">
<title>hdfeos5&#45;&gt;conda&#45;forge&#45;pinning</title>
<path fill="none" stroke="black" d="M1412.07,-216.03C1418.31,-186.62 1431.75,-124.31 1444.5,-72 1446.56,-63.55 1448.93,-54.38 1451.14,-46.07"/>
<polygon fill="black" stroke="black" points="1454.59,-46.71 1453.79,-36.14 1447.83,-44.9 1454.59,-46.71"/>
</g>
<!-- ncl -->
<g id="node22" class="node">
<title>ncl</title>
<g id="a_node22"><a xlink:href="https://github.com/conda-forge/ncl-feedstock" xlink:title="ncl">
<ellipse fill="#fde725" stroke="black" cx="1353.5" cy="-162" rx="27" ry="18"/>
<text text-anchor="middle" x="1353.5" y="-158.3" font-family="Times,serif" font-size="14.00">ncl</text>
</a>
</g>
</g>
<!-- hdfeos5&#45;&gt;ncl -->
<g id="edge35" class="edge">
<title>hdfeos5&#45;&gt;ncl</title>
<path fill="none" stroke="black" d="M1395.47,-216.41C1388.49,-207.53 1379.77,-196.44 1372.1,-186.67"/>
<polygon fill="black" stroke="black" points="1374.62,-184.21 1365.69,-178.51 1369.11,-188.54 1374.62,-184.21"/>
</g>
<!-- pynio -->
<g id="node23" class="node">
<title>pynio</title>
<g id="a_node23"><a xlink:href="https://github.com/conda-forge/pynio-feedstock" xlink:title="pynio">
<ellipse fill="#fde725" stroke="black" cx="1357.5" cy="-90" rx="35.19" ry="18"/>
<text text-anchor="middle" x="1357.5" y="-86.3" font-family="Times,serif" font-size="14.00">pynio</text>
</a>
</g>
</g>
<!-- hdfeos5&#45;&gt;pynio -->
<g id="edge36" class="edge">
<title>hdfeos5&#45;&gt;pynio</title>
<path fill="none" stroke="black" d="M1406.55,-215.78C1404.09,-197.48 1398.97,-167.95 1389.5,-144 1385.68,-134.36 1380.2,-124.45 1374.85,-115.86"/>
<polygon fill="black" stroke="black" points="1377.76,-113.93 1369.39,-107.44 1371.89,-117.73 1377.76,-113.93"/>
</g>
<!-- ncl&#45;&gt;conda&#45;forge&#45;pinning -->
<g id="edge37" class="edge">
<title>ncl&#45;&gt;conda&#45;forge&#45;pinning</title>
<path fill="none" stroke="black" d="M1338.62,-146.89C1321.16,-128.59 1296.61,-96.16 1313.5,-72 1326.81,-52.96 1347.73,-40.74 1369.58,-32.9"/>
<polygon fill="black" stroke="black" points="1370.91,-36.15 1379.32,-29.7 1368.73,-29.5 1370.91,-36.15"/>
</g>
<!-- pynio&#45;&gt;conda&#45;forge&#45;pinning -->
<g id="edge38" class="edge">
<title>pynio&#45;&gt;conda&#45;forge&#45;pinning</title>
<path fill="none" stroke="black" d="M1377.45,-75.17C1391.23,-65.62 1409.86,-52.71 1425.79,-41.67"/>
<polygon fill="black" stroke="black" points="1428.09,-44.34 1434.31,-35.76 1424.1,-38.58 1428.09,-44.34"/>
</g>
<!-- hyperion&#45;fortran -->
<g id="node24" class="node">
<title>hyperion&#45;fortran</title>
<g id="a_node24"><a xlink:href="https://github.com/conda-forge/hyperion-fortran-feedstock/pull/18" xlink:title="hyperion fortran">
<ellipse fill="#31688e" stroke="black" cx="1484.5" cy="-378" rx="89.08" ry="18"/>
<text text-anchor="middle" x="1484.5" y="-374.3" font-family="Times,serif" font-size="14.00" fill="white">hyperion fortran</text>
</a>
</g>
</g>
<!-- hyperion&#45;fortran&#45;&gt;conda&#45;forge&#45;pinning -->
<g id="edge39" class="edge">
<title>hyperion&#45;fortran&#45;&gt;conda&#45;forge&#45;pinning</title>
<path fill="none" stroke="black" d="M1483.25,-359.73C1479.07,-302.19 1465.59,-116.66 1460.49,-46.35"/>
<polygon fill="black" stroke="black" points="1463.96,-45.81 1459.74,-36.09 1456.98,-46.32 1463.96,-45.81"/>
</g>
<!-- libcdms -->
<g id="node25" class="node">
<title>libcdms</title>
<g id="a_node25"><a xlink:href="https://github.com/conda-forge/libcdms-feedstock/pull/32" xlink:title="libcdms">
<ellipse fill="#31688e" stroke="black" cx="1531.5" cy="-90" rx="45" ry="18"/>
<text text-anchor="middle" x="1531.5" y="-86.3" font-family="Times,serif" font-size="14.00" fill="white">libcdms</text>
</a>
</g>
</g>
<!-- libcdms&#45;&gt;conda&#45;forge&#45;pinning -->
<g id="edge40" class="edge">
<title>libcdms&#45;&gt;conda&#45;forge&#45;pinning</title>
<path fill="none" stroke="black" d="M1514.94,-73.12C1505.59,-64.16 1493.74,-52.79 1483.3,-42.79"/>
<polygon fill="black" stroke="black" points="1485.66,-40.19 1476.02,-35.8 1480.81,-45.24 1485.66,-40.19"/>
</g>
<!-- libmatio -->
<g id="node26" class="node">
<title>libmatio</title>
<g id="a_node26"><a xlink:href="https://github.com/conda-forge/libmatio-feedstock/pull/28" xlink:title="libmatio">
<ellipse fill="#31688e" stroke="black" cx="1719.5" cy="-378" rx="50.09" ry="18"/>
<text text-anchor="middle" x="1719.5" y="-374.3" font-family="Times,serif" font-size="14.00" fill="white">libmatio</text>
</a>
</g>
</g>
<!-- libmatio&#45;&gt;conda&#45;forge&#45;pinning -->
<g id="edge41" class="edge">
<title>libmatio&#45;&gt;conda&#45;forge&#45;pinning</title>
<path fill="none" stroke="black" d="M1730.36,-360.06C1761.21,-309.62 1842.52,-158.52 1769.5,-72 1743.92,-41.69 1647.77,-28.72 1569.07,-23.16"/>
<polygon fill="black" stroke="black" points="1569.29,-19.67 1559.08,-22.49 1568.82,-26.65 1569.29,-19.67"/>
</g>
<!-- pytrilinos -->
<g id="node27" class="node">
<title>pytrilinos</title>
<g id="a_node27"><a xlink:href="https://github.com/conda-forge/pytrilinos-feedstock" xlink:title="pytrilinos">
<ellipse fill="#fde725" stroke="black" cx="1845.5" cy="-306" rx="60" ry="18"/>
<text text-anchor="middle" x="1845.5" y="-302.3" font-family="Times,serif" font-size="14.00">pytrilinos</text>
</a>
</g>
</g>
<!-- libmatio&#45;&gt;pytrilinos -->
<g id="edge42" class="edge">
<title>libmatio&#45;&gt;pytrilinos</title>
<path fill="none" stroke="black" d="M1745.61,-362.5C1763.98,-352.29 1788.83,-338.48 1809.14,-327.2"/>
<polygon fill="black" stroke="black" points="1811.08,-330.13 1818.12,-322.21 1807.68,-324.01 1811.08,-330.13"/>
</g>
<!-- trilinos -->
<g id="node28" class="node">
<title>trilinos</title>
<g id="a_node28"><a xlink:href="https://github.com/conda-forge/trilinos-feedstock" xlink:title="trilinos">
<ellipse fill="#fde725" stroke="black" cx="1573.5" cy="-234" rx="50.09" ry="18"/>
<text text-anchor="middle" x="1573.5" y="-230.3" font-family="Times,serif" font-size="14.00">trilinos</text>
</a>
</g>
</g>
<!-- libmatio&#45;&gt;trilinos -->
<g id="edge43" class="edge">
<title>libmatio&#45;&gt;trilinos</title>
<path fill="none" stroke="black" d="M1700.04,-361.28C1687.59,-350.99 1671.24,-337.08 1657.5,-324 1635.35,-302.91 1611.55,-277.4 1594.96,-259.1"/>
<polygon fill="black" stroke="black" points="1597.17,-256.33 1587.87,-251.25 1591.97,-261.02 1597.17,-256.33"/>
</g>
<!-- openmeeg -->
<g id="node29" class="node">
<title>openmeeg</title>
<g id="a_node29"><a xlink:href="https://github.com/conda-forge/openmeeg-feedstock" xlink:title="openmeeg">
<ellipse fill="#fde725" stroke="black" cx="1641.5" cy="-162" rx="50.09" ry="18"/>
<text text-anchor="middle" x="1641.5" y="-158.3" font-family="Times,serif" font-size="14.00">openmeeg</text>
</a>
</g>
</g>
<!-- libmatio&#45;&gt;openmeeg -->
<g id="edge44" class="edge">
<title>libmatio&#45;&gt;openmeeg</title>
<path fill="none" stroke="black" d="M1713.25,-359.85C1699.67,-322.58 1667.38,-234 1651.16,-189.49"/>
<polygon fill="black" stroke="black" points="1654.39,-188.13 1647.67,-179.94 1647.81,-190.53 1654.39,-188.13"/>
</g>
<!-- libvips -->
<g id="node30" class="node">
<title>libvips</title>
<g id="a_node30"><a xlink:href="https://github.com/conda-forge/libvips-feedstock" xlink:title="libvips">
<ellipse fill="#fde725" stroke="black" cx="1715.5" cy="-90" rx="45" ry="18"/>
<text text-anchor="middle" x="1715.5" y="-86.3" font-family="Times,serif" font-size="14.00">libvips</text>
</a>
</g>
</g>
<!-- libmatio&#45;&gt;libvips -->
<g id="edge45" class="edge">
<title>libmatio&#45;&gt;libvips</title>
<path fill="none" stroke="black" d="M1719.26,-359.97C1718.59,-312.29 1716.71,-177.18 1715.89,-118.63"/>
<polygon fill="black" stroke="black" points="1719.38,-118.26 1715.74,-108.31 1712.38,-118.35 1719.38,-118.26"/>
</g>
<!-- pytrilinos&#45;&gt;conda&#45;forge&#45;pinning -->
<g id="edge46" class="edge">
<title>pytrilinos&#45;&gt;conda&#45;forge&#45;pinning</title>
<path fill="none" stroke="black" d="M1840.46,-287.77C1833.62,-263.8 1821.46,-218.96 1814.5,-180 1806,-132.46 1835.92,-106.86 1802.5,-72 1771.14,-39.29 1658.47,-26.72 1570.51,-21.91"/>
<polygon fill="black" stroke="black" points="1570.63,-18.41 1560.46,-21.39 1570.27,-25.4 1570.63,-18.41"/>
</g>
<!-- trilinos&#45;&gt;conda&#45;forge&#45;pinning -->
<g id="edge47" class="edge">
<title>trilinos&#45;&gt;conda&#45;forge&#45;pinning</title>
<path fill="none" stroke="black" d="M1575.23,-215.92C1578.43,-184.22 1585,-118.51 1585.5,-108 1586.27,-92.02 1594.37,-85.32 1585.5,-72 1573.95,-54.66 1555.52,-42.98 1536.25,-35.12"/>
<polygon fill="black" stroke="black" points="1537.34,-31.79 1526.75,-31.56 1534.88,-38.35 1537.34,-31.79"/>
</g>
<!-- openmeeg&#45;&gt;conda&#45;forge&#45;pinning -->
<g id="edge48" class="edge">
<title>openmeeg&#45;&gt;conda&#45;forge&#45;pinning</title>
<path fill="none" stroke="black" d="M1641.72,-143.97C1641.04,-124.18 1636.92,-91.7 1618.5,-72 1600.16,-52.39 1574.4,-40.02 1548.91,-32.23"/>
<polygon fill="black" stroke="black" points="1549.74,-28.83 1539.17,-29.47 1547.83,-35.57 1549.74,-28.83"/>
</g>
<!-- libvips&#45;&gt;conda&#45;forge&#45;pinning -->
<g id="edge49" class="edge">
<title>libvips&#45;&gt;conda&#45;forge&#45;pinning</title>
<path fill="none" stroke="black" d="M1680.28,-78.73C1672.46,-76.49 1664.2,-74.14 1656.5,-72 1612.12,-59.67 1562,-46.26 1523.29,-36.01"/>
<polygon fill="black" stroke="black" points="1523.77,-32.52 1513.2,-33.34 1521.98,-39.28 1523.77,-32.52"/>
</g>
<!-- octave -->
<g id="node31" class="node">
<title>octave</title>
<g id="a_node31"><a xlink:href="https://github.com/conda-forge/octave-feedstock/pull/39" xlink:title="octave">
<ellipse fill="#31688e" stroke="black" cx="1864.5" cy="-162" rx="40.5" ry="18"/>
<text text-anchor="middle" x="1864.5" y="-158.3" font-family="Times,serif" font-size="14.00" fill="white">octave</text>
</a>
</g>
</g>
<!-- octave&#45;&gt;conda&#45;forge&#45;pinning -->
<g id="edge50" class="edge">
<title>octave&#45;&gt;conda&#45;forge&#45;pinning</title>
<path fill="none" stroke="black" d="M1865.1,-143.71C1864.79,-123.34 1860.91,-89.99 1840.5,-72 1801.51,-37.63 1669.32,-25.45 1571.3,-21.19"/>
<polygon fill="black" stroke="black" points="1571.17,-17.68 1561.03,-20.77 1570.88,-24.68 1571.17,-17.68"/>
</g>
<!-- pyne -->
<g id="node32" class="node">
<title>pyne</title>
<g id="a_node32"><a xlink:href="https://github.com/conda-forge/pyne-feedstock/pull/40" xlink:title="pyne">
<ellipse fill="#31688e" stroke="black" cx="1912.5" cy="-234" rx="30.59" ry="18"/>
<text text-anchor="middle" x="1912.5" y="-230.3" font-family="Times,serif" font-size="14.00" fill="white">pyne</text>
</a>
</g>
</g>
<!-- pyne&#45;&gt;conda&#45;forge&#45;pinning -->
<g id="edge51" class="edge">
<title>pyne&#45;&gt;conda&#45;forge&#45;pinning</title>
<path fill="none" stroke="black" d="M1915.69,-215.84C1918.4,-197.6 1920.8,-168.11 1913.5,-144 1902.36,-107.19 1898.16,-92.3 1865.5,-72 1817.4,-42.1 1672.12,-28.9 1568.88,-23.19"/>
<polygon fill="black" stroke="black" points="1568.88,-19.68 1558.71,-22.64 1568.51,-26.67 1568.88,-19.68"/>
</g>
<!-- r&#45;hdf5r -->
<g id="node33" class="node">
<title>r&#45;hdf5r</title>
<g id="a_node33"><a xlink:href="https://github.com/conda-forge/r-hdf5r-feedstock/pull/12" xlink:title="r hdf5r">
<ellipse fill="#31688e" stroke="black" cx="1968.5" cy="-306" rx="45" ry="18"/>
<text text-anchor="middle" x="1968.5" y="-302.3" font-family="Times,serif" font-size="14.00" fill="white">r hdf5r</text>
</a>
</g>
</g>
<!-- r&#45;hdf5r&#45;&gt;conda&#45;forge&#45;pinning -->
<g id="edge52" class="edge">
<title>r&#45;hdf5r&#45;&gt;conda&#45;forge&#45;pinning</title>
<path fill="none" stroke="black" d="M1969.48,-287.69C1970.96,-242.94 1967.86,-123.36 1897.5,-72 1847.17,-35.26 1684.12,-23.8 1571.56,-20.34"/>
<polygon fill="black" stroke="black" points="1571.61,-16.84 1561.51,-20.04 1571.4,-23.83 1571.61,-16.84"/>
</g>
<!-- r&#45;ncdf4 -->
<g id="node34" class="node">
<title>r&#45;ncdf4</title>
<g id="a_node34"><a xlink:href="https://github.com/conda-forge/r-ncdf4-feedstock/pull/20" xlink:title="r ncdf4">
<ellipse fill="#31688e" stroke="black" cx="2041.5" cy="-378" rx="45" ry="18"/>
<text text-anchor="middle" x="2041.5" y="-374.3" font-family="Times,serif" font-size="14.00" fill="white">r ncdf4</text>
</a>
</g>
</g>
<!-- r&#45;ncdf4&#45;&gt;conda&#45;forge&#45;pinning -->
<g id="edge53" class="edge">
<title>r&#45;ncdf4&#45;&gt;conda&#45;forge&#45;pinning</title>
<path fill="none" stroke="black" d="M2041.47,-359.64C2040.31,-305.23 2028.37,-137.75 1927.5,-72 1870.72,-34.99 1691.48,-23.68 1571.75,-20.31"/>
<polygon fill="black" stroke="black" points="1571.53,-16.8 1561.44,-20.04 1571.35,-23.8 1571.53,-16.8"/>
</g>
<!-- shogun -->
<g id="node35" class="node">
<title>shogun</title>
<g id="a_node35"><a xlink:href="https://github.com/conda-forge/shogun-feedstock/pull/20" xlink:title="shogun">
<ellipse fill="#31688e" stroke="black" cx="2047.5" cy="-90" rx="40.5" ry="18"/>
<text text-anchor="middle" x="2047.5" y="-86.3" font-family="Times,serif" font-size="14.00" fill="white">shogun</text>
</a>
</g>
</g>
<!-- shogun&#45;&gt;conda&#45;forge&#45;pinning -->
<g id="edge54" class="edge">
<title>shogun&#45;&gt;conda&#45;forge&#45;pinning</title>
<path fill="none" stroke="black" d="M2016.66,-78.28C2008.85,-75.89 2000.44,-73.6 1992.5,-72 1847.49,-42.7 1676.92,-29.36 1568.29,-23.45"/>
<polygon fill="black" stroke="black" points="1568.47,-19.95 1558.3,-22.92 1568.1,-26.94 1568.47,-19.95"/>
</g>
<!-- vigra -->
<g id="node36" class="node">
<title>vigra</title>
<g id="a_node36"><a xlink:href="https://github.com/conda-forge/vigra-feedstock/pull/54" xlink:title="vigra">
<ellipse fill="#31688e" stroke="black" cx="2091.5" cy="-162" rx="35.19" ry="18"/>
<text text-anchor="middle" x="2091.5" y="-158.3" font-family="Times,serif" font-size="14.00" fill="white">vigra</text>
</a>
</g>
</g>
<!-- vigra&#45;&gt;conda&#45;forge&#45;pinning -->
<g id="edge55" class="edge">
<title>vigra&#45;&gt;conda&#45;forge&#45;pinning</title>
<path fill="none" stroke="black" d="M2098.85,-144.17C2106.27,-124.25 2114.32,-91.36 2096.5,-72 2061.77,-34.26 1745.47,-23.39 1571.67,-20.26"/>
<polygon fill="black" stroke="black" points="1571.52,-16.76 1561.46,-20.08 1571.4,-23.76 1571.52,-16.76"/>
</g>
<!-- yaafe -->
<g id="node37" class="node">
<title>yaafe</title>
<g id="a_node37"><a xlink:href="https://github.com/conda-forge/yaafe-feedstock/pull/9" xlink:title="yaafe">
<ellipse fill="#31688e" stroke="black" cx="2129.5" cy="-234" rx="35.19" ry="18"/>
<text text-anchor="middle" x="2129.5" y="-230.3" font-family="Times,serif" font-size="14.00" fill="white">yaafe</text>
</a>
</g>
</g>
<!-- yaafe&#45;&gt;conda&#45;forge&#45;pinning -->
<g id="edge56" class="edge">
<title>yaafe&#45;&gt;conda&#45;forge&#45;pinning</title>
<path fill="none" stroke="black" d="M2134.71,-216.17C2143.96,-182.52 2158.55,-107.17 2116.5,-72 2075.7,-37.87 1748.04,-25.37 1571.03,-21.08"/>
<polygon fill="black" stroke="black" points="1570.97,-17.57 1560.89,-20.84 1570.81,-24.57 1570.97,-17.57"/>
</g>
<!-- alps -->
<g id="node38" class="node">
<title>alps</title>
<g id="a_node38"><a xlink:href="https://github.com/conda-forge/alps-feedstock/pull/31" xlink:title="alps">
<ellipse fill="#31688e" stroke="black" cx="2171.5" cy="-306" rx="30.59" ry="18"/>
<text text-anchor="middle" x="2171.5" y="-302.3" font-family="Times,serif" font-size="14.00" fill="white">alps</text>
</a>
</g>
</g>
<!-- alps&#45;&gt;conda&#45;forge&#45;pinning -->
<g id="edge57" class="edge">
<title>alps&#45;&gt;conda&#45;forge&#45;pinning</title>
<path fill="none" stroke="black" d="M2175.87,-288.11C2186.05,-244.37 2205.92,-127.04 2142.5,-72 2100.43,-35.49 1754.53,-24.04 1571.36,-20.52"/>
<polygon fill="black" stroke="black" points="1571.21,-17.01 1561.15,-20.33 1571.08,-24.01 1571.21,-17.01"/>
</g>
<!-- spdlib -->
<g id="node39" class="node">
<title>spdlib</title>
<g id="a_node39"><a xlink:href="https://github.com/conda-forge/spdlib-feedstock/pull/15" xlink:title="spdlib">
<ellipse fill="#31688e" stroke="black" cx="2230.5" cy="-378" rx="40.5" ry="18"/>
<text text-anchor="middle" x="2230.5" y="-374.3" font-family="Times,serif" font-size="14.00" fill="white">spdlib</text>
</a>
</g>
</g>
<!-- spdlib&#45;&gt;conda&#45;forge&#45;pinning -->
<g id="edge58" class="edge">
<title>spdlib&#45;&gt;conda&#45;forge&#45;pinning</title>
<path fill="none" stroke="black" d="M2230.5,-359.95C2230.5,-333.29 2230.5,-280.11 2230.5,-235 2230.5,-235 2230.5,-235 2230.5,-161 2230.5,-113.3 2211.76,-95.95 2170.5,-72 2119.97,-42.67 1757.71,-27.79 1570.27,-21.99"/>
<polygon fill="black" stroke="black" points="1570.2,-18.49 1560.1,-21.68 1569.99,-25.48 1570.2,-18.49"/>
</g>
<!-- mpb -->
<g id="node40" class="node">
<title>mpb</title>
<g id="a_node40"><a xlink:href="https://github.com/conda-forge/mpb-feedstock/pull/22" xlink:title="mpb">
<ellipse fill="#31688e" stroke="black" cx="1281.5" cy="-162" rx="27" ry="18"/>
<text text-anchor="middle" x="1281.5" y="-158.3" font-family="Times,serif" font-size="14.00" fill="white">mpb</text>
</a>
</g>
</g>
<!-- mpb&#45;&gt;conda&#45;forge&#45;pinning -->
<g id="edge59" class="edge">
<title>mpb&#45;&gt;conda&#45;forge&#45;pinning</title>
<path fill="none" stroke="black" d="M1281.33,-143.66C1282.08,-123.86 1286.3,-91.69 1304.5,-72 1322.12,-52.94 1346.91,-40.73 1371.46,-32.91"/>
<polygon fill="black" stroke="black" points="1372.61,-36.22 1381.21,-30.03 1370.63,-29.51 1372.61,-36.22"/>
</g>
<!-- mpb&#45;&gt;pymeep -->
<g id="edge60" class="edge">
<title>mpb&#45;&gt;pymeep</title>
<path fill="none" stroke="black" d="M1263.82,-147.83C1250.27,-137.74 1231.3,-123.62 1215.67,-111.98"/>
<polygon fill="black" stroke="black" points="1217.49,-108.97 1207.38,-105.8 1213.31,-114.58 1217.49,-108.97"/>
</g>
<!-- openpmd&#45;api -->
<g id="node41" class="node">
<title>openpmd&#45;api</title>
<g id="a_node41"><a xlink:href="https://github.com/conda-forge/openpmd-api-feedstock" xlink:title="openpmd api">
<ellipse fill="#fde725" stroke="black" cx="2323.5" cy="-90" rx="64.5" ry="18"/>
<text text-anchor="middle" x="2323.5" y="-86.3" font-family="Times,serif" font-size="14.00">openpmd api</text>
</a>
</g>
</g>
<!-- openpmd&#45;api&#45;&gt;conda&#45;forge&#45;pinning -->
<g id="edge61" class="edge">
<title>openpmd&#45;api&#45;&gt;conda&#45;forge&#45;pinning</title>
<path fill="none" stroke="black" d="M2276.08,-77.63C2265.72,-75.48 2254.78,-73.45 2244.5,-72 2006.02,-38.48 1723.76,-26 1570.76,-21.47"/>
<polygon fill="black" stroke="black" points="1570.52,-17.96 1560.42,-21.17 1570.31,-24.96 1570.52,-17.96"/>
</g>
<!-- cmor -->
<g id="node42" class="node">
<title>cmor</title>
<g id="a_node42"><a xlink:href="https://github.com/conda-forge/cmor-feedstock/pull/22" xlink:title="cmor">
<ellipse fill="#31688e" stroke="black" cx="2475.5" cy="-90" rx="30.59" ry="18"/>
<text text-anchor="middle" x="2475.5" y="-86.3" font-family="Times,serif" font-size="14.00" fill="white">cmor</text>
</a>
</g>
</g>
<!-- cmor&#45;&gt;conda&#45;forge&#45;pinning -->
<g id="edge62" class="edge">
<title>cmor&#45;&gt;conda&#45;forge&#45;pinning</title>
<path fill="none" stroke="black" d="M2451.62,-78.43C2444.91,-75.89 2437.53,-73.48 2430.5,-72 2269.55,-38.06 1791.37,-25.09 1571.45,-20.82"/>
<polygon fill="black" stroke="black" points="1571.24,-17.32 1561.18,-20.63 1571.11,-24.32 1571.24,-17.32"/>
</g>
<!-- freecad -->
<g id="node43" class="node">
<title>freecad</title>
<g id="a_node43"><a xlink:href="https://github.com/conda-forge/freecad-feedstock/pull/38" xlink:title="freecad">
<ellipse fill="#31688e" stroke="black" cx="2499.5" cy="-162" rx="45" ry="18"/>
<text text-anchor="middle" x="2499.5" y="-158.3" font-family="Times,serif" font-size="14.00" fill="white">freecad</text>
</a>
</g>
</g>
<!-- freecad&#45;&gt;conda&#45;forge&#45;pinning -->
<g id="edge63" class="edge">
<title>freecad&#45;&gt;conda&#45;forge&#45;pinning</title>
<path fill="none" stroke="black" d="M2509.93,-144.16C2520.8,-124.24 2533.89,-91.34 2515.5,-72 2483.37,-38.21 1837.46,-24.68 1571.47,-20.53"/>
<polygon fill="black" stroke="black" points="1571.45,-17.03 1561.4,-20.37 1571.34,-24.03 1571.45,-17.03"/>
</g>
<!-- scilab -->
<g id="node44" class="node">
<title>scilab</title>
<g id="a_node44"><a xlink:href="https://github.com/conda-forge/scilab-feedstock/pull/12" xlink:title="scilab">
<ellipse fill="#31688e" stroke="black" cx="2541.5" cy="-234" rx="40.5" ry="18"/>
<text text-anchor="middle" x="2541.5" y="-230.3" font-family="Times,serif" font-size="14.00" fill="white">scilab</text>
</a>
</g>
</g>
<!-- scilab&#45;&gt;conda&#45;forge&#45;pinning -->
<g id="edge64" class="edge">
<title>scilab&#45;&gt;conda&#45;forge&#45;pinning</title>
<path fill="none" stroke="black" d="M2547.63,-216.04C2558.67,-182.17 2577,-106.44 2534.5,-72 2497.53,-42.05 1839.36,-26.22 1571,-20.99"/>
<polygon fill="black" stroke="black" points="1570.91,-17.49 1560.85,-20.8 1570.78,-24.49 1570.91,-17.49"/>
</g>
<!-- adios2 -->
<g id="node45" class="node">
<title>adios2</title>
<g id="a_node45"><a xlink:href="https://github.com/conda-forge/adios2-feedstock/pull/11" xlink:title="adios2">
<ellipse fill="#31688e" stroke="black" cx="2359.5" cy="-162" rx="40.5" ry="18"/>
<text text-anchor="middle" x="2359.5" y="-158.3" font-family="Times,serif" font-size="14.00" fill="white">adios2</text>
</a>
</g>
</g>
<!-- adios2&#45;&gt;conda&#45;forge&#45;pinning -->
<g id="edge65" class="edge">
<title>adios2&#45;&gt;conda&#45;forge&#45;pinning</title>
<path fill="none" stroke="black" d="M2375.22,-145.3C2392.77,-125.9 2416.27,-92.92 2396.5,-72 2368.54,-42.42 1813.78,-26.74 1570.83,-21.27"/>
<polygon fill="black" stroke="black" points="1570.64,-17.77 1560.56,-21.05 1570.48,-24.77 1570.64,-17.77"/>
</g>
<!-- adios2&#45;&gt;openpmd&#45;api -->
<g id="edge66" class="edge">
<title>adios2&#45;&gt;openpmd&#45;api</title>
<path fill="none" stroke="black" d="M2350.79,-144.05C2346.65,-136.01 2341.61,-126.2 2336.99,-117.23"/>
<polygon fill="black" stroke="black" points="2340.07,-115.57 2332.38,-108.28 2333.85,-118.77 2340.07,-115.57"/>
</g>
<!-- bonsu -->
<g id="node46" class="node">
<title>bonsu</title>
<g id="a_node46"><a xlink:href="https://github.com/conda-forge/bonsu-feedstock/pull/5" xlink:title="bonsu">
<ellipse fill="#31688e" stroke="black" cx="2597.5" cy="-306" rx="35.19" ry="18"/>
<text text-anchor="middle" x="2597.5" y="-302.3" font-family="Times,serif" font-size="14.00" fill="white">bonsu</text>
</a>
</g>
</g>
<!-- bonsu&#45;&gt;conda&#45;forge&#45;pinning -->
<g id="edge67" class="edge">
<title>bonsu&#45;&gt;conda&#45;forge&#45;pinning</title>
<path fill="none" stroke="black" d="M2601.16,-288.08C2609.52,-244.27 2624.67,-126.79 2560.5,-72 2523.33,-40.26 1844.8,-25.44 1571.33,-20.74"/>
<polygon fill="black" stroke="black" points="1571.04,-17.23 1560.99,-20.56 1570.92,-24.23 1571.04,-17.23"/>
</g>
<!-- dagmc -->
<g id="node47" class="node">
<title>dagmc</title>
<g id="a_node47"><a xlink:href="https://github.com/conda-forge/dagmc-feedstock/pull/1" xlink:title="dagmc">
<ellipse fill="#31688e" stroke="black" cx="2660.5" cy="-378" rx="35.19" ry="18"/>
<text text-anchor="middle" x="2660.5" y="-374.3" font-family="Times,serif" font-size="14.00" fill="white">dagmc</text>
</a>
</g>
</g>
<!-- dagmc&#45;&gt;conda&#45;forge&#45;pinning -->
<g id="edge69" class="edge">
<title>dagmc&#45;&gt;conda&#45;forge&#45;pinning</title>
<path fill="none" stroke="black" d="M2660.5,-359.95C2660.5,-333.29 2660.5,-280.11 2660.5,-235 2660.5,-235 2660.5,-235 2660.5,-161 2660.5,-110.12 2633.89,-94.98 2588.5,-72 2499.57,-26.97 1841.04,-20.03 1572.26,-19.08"/>
<polygon fill="black" stroke="black" points="1572.09,-15.58 1562.08,-19.05 1572.07,-22.58 1572.09,-15.58"/>
</g>
<!-- nccmp -->
<g id="node48" class="node">
<title>nccmp</title>
<g id="a_node48"><a xlink:href="https://github.com/conda-forge/nccmp-feedstock/pull/2" xlink:title="nccmp">
<ellipse fill="#31688e" stroke="black" cx="2723.5" cy="-90" rx="35.19" ry="18"/>
<text text-anchor="middle" x="2723.5" y="-86.3" font-family="Times,serif" font-size="14.00" fill="white">nccmp</text>
</a>
</g>
</g>
<!-- nccmp&#45;&gt;conda&#45;forge&#45;pinning -->
<g id="edge70" class="edge">
<title>nccmp&#45;&gt;conda&#45;forge&#45;pinning</title>
<path fill="none" stroke="black" d="M2696.93,-78.21C2689.76,-75.74 2681.93,-73.42 2674.5,-72 2465.45,-32.07 1832.52,-22.16 1572.19,-19.75"/>
<polygon fill="black" stroke="black" points="1571.99,-16.25 1561.96,-19.66 1571.93,-23.25 1571.99,-16.25"/>
</g>
</g>
</svg>
