<?xml version="1.0" encoding="UTF-8" standalone="no"?>
<!DOCTYPE svg PUBLIC "-//W3C//DTD SVG 1.1//EN"
 "http://www.w3.org/Graphics/SVG/1.1/DTD/svg11.dtd">
<!-- Generated by graphviz version 2.42.3 (20191010.1750)
 -->
<!-- Title: %3 Pages: 1 -->
<svg width="2628pt" height="476pt"
 viewBox="0.00 0.00 2627.60 476.00" xmlns="http://www.w3.org/2000/svg" xmlns:xlink="http://www.w3.org/1999/xlink">
<g id="graph0" class="graph" transform="scale(1 1) rotate(0) translate(4 472)">
<title>%3</title>
<polygon fill="white" stroke="transparent" points="-4,4 -4,-472 2623.6,-472 2623.6,4 -4,4"/>
<!-- caffe -->
<g id="node1" class="node">
<title>caffe</title>
<g id="a_node1"><a xlink:href="https://github.com/conda-forge/caffe-feedstock" xlink:title="caffe">
<ellipse fill="#fde725" stroke="black" cx="1204.5" cy="-378" rx="35.19" ry="18"/>
<text text-anchor="middle" x="1204.5" y="-374.3" font-family="Times,serif" font-size="14.00">caffe</text>
</a>
</g>
</g>
<!-- conda&#45;forge&#45;pinning -->
<g id="node2" class="node">
<title>conda&#45;forge&#45;pinning</title>
<ellipse fill="none" stroke="black" cx="1394.5" cy="-18" rx="103.5" ry="18"/>
<text text-anchor="middle" x="1394.5" y="-14.3" font-family="Times,serif" font-size="14.00">conda&#45;forge&#45;pinning</text>
</g>
<!-- caffe&#45;&gt;conda&#45;forge&#45;pinning -->
<g id="edge1" class="edge">
<title>caffe&#45;&gt;conda&#45;forge&#45;pinning</title>
<path fill="none" stroke="black" d="M1204.5,-359.95C1204.5,-333.29 1204.5,-280.11 1204.5,-235 1204.5,-235 1204.5,-235 1204.5,-161 1204.5,-120.03 1200.2,-101.62 1228.5,-72 1247.86,-51.74 1274.94,-39.2 1301.62,-31.45"/>
<polygon fill="black" stroke="black" points="1302.67,-34.79 1311.42,-28.81 1300.85,-28.03 1302.67,-34.79"/>
</g>
<!-- cyclus -->
<g id="node3" class="node">
<title>cyclus</title>
<g id="a_node3"><a xlink:href="https://github.com/conda-forge/cyclus-feedstock/pull/56" xlink:title="cyclus">
<ellipse fill="#31688e" stroke="black" cx="40.5" cy="-90" rx="40.5" ry="18"/>
<text text-anchor="middle" x="40.5" y="-86.3" font-family="Times,serif" font-size="14.00" fill="white">cyclus</text>
</a>
</g>
</g>
<!-- cyclus&#45;&gt;conda&#45;forge&#45;pinning -->
<g id="edge2" class="edge">
<title>cyclus&#45;&gt;conda&#45;forge&#45;pinning</title>
<path fill="none" stroke="black" d="M70.99,-78.04C78.88,-75.63 87.42,-73.39 95.5,-72 321.71,-33.11 1008.39,-22.56 1281.11,-19.87"/>
<polygon fill="black" stroke="black" points="1281.45,-23.36 1291.42,-19.77 1281.38,-16.36 1281.45,-23.36"/>
</g>
<!-- fenics -->
<g id="node4" class="node">
<title>fenics</title>
<g id="a_node4"><a xlink:href="https://github.com/conda-forge/fenics-feedstock/pull/107" xlink:title="fenics">
<ellipse fill="#31688e" stroke="black" cx="93.5" cy="-162" rx="40.5" ry="18"/>
<text text-anchor="middle" x="93.5" y="-158.3" font-family="Times,serif" font-size="14.00" fill="white">fenics</text>
</a>
</g>
</g>
<!-- fenics&#45;&gt;conda&#45;forge&#45;pinning -->
<g id="edge3" class="edge">
<title>fenics&#45;&gt;conda&#45;forge&#45;pinning</title>
<path fill="none" stroke="black" d="M98.55,-144.01C105.8,-122.94 121.39,-87.88 148.5,-72 196.91,-43.64 983.89,-26.46 1281.6,-20.95"/>
<polygon fill="black" stroke="black" points="1282.05,-24.44 1291.98,-20.76 1281.92,-17.44 1282.05,-24.44"/>
</g>
<!-- flann -->
<g id="node5" class="node">
<title>flann</title>
<g id="a_node5"><a xlink:href="https://github.com/conda-forge/flann-feedstock/pull/26" xlink:title="flann">
<ellipse fill="#31688e" stroke="black" cx="137.5" cy="-234" rx="35.19" ry="18"/>
<text text-anchor="middle" x="137.5" y="-230.3" font-family="Times,serif" font-size="14.00" fill="white">flann</text>
</a>
</g>
</g>
<!-- flann&#45;&gt;conda&#45;forge&#45;pinning -->
<g id="edge4" class="edge">
<title>flann&#45;&gt;conda&#45;forge&#45;pinning</title>
<path fill="none" stroke="black" d="M140.19,-215.83C146.49,-178.1 163.41,-89.9 186.5,-72 229.33,-38.79 989.44,-24.67 1281.49,-20.45"/>
<polygon fill="black" stroke="black" points="1281.73,-23.95 1291.68,-20.3 1281.63,-16.95 1281.73,-23.95"/>
</g>
<!-- graph -->
<g id="node6" class="node">
<title>graph</title>
<g id="a_node6"><a xlink:href="https://github.com/conda-forge/graph-feedstock/pull/5" xlink:title="graph">
<ellipse fill="#31688e" stroke="black" cx="200.5" cy="-306" rx="35.19" ry="18"/>
<text text-anchor="middle" x="200.5" y="-302.3" font-family="Times,serif" font-size="14.00" fill="white">graph</text>
</a>
</g>
</g>
<!-- graph&#45;&gt;conda&#45;forge&#45;pinning -->
<g id="edge5" class="edge">
<title>graph&#45;&gt;conda&#45;forge&#45;pinning</title>
<path fill="none" stroke="black" d="M197.16,-287.94C189.53,-243.27 176.38,-122.86 244.5,-72 285.58,-41.33 999.78,-25.77 1281.53,-20.81"/>
<polygon fill="black" stroke="black" points="1281.84,-24.3 1291.78,-20.63 1281.72,-17.3 1281.84,-24.3"/>
</g>
<!-- h5py -->
<g id="node7" class="node">
<title>h5py</title>
<g id="a_node7"><a xlink:href="https://github.com/conda-forge/h5py-feedstock/pull/72" xlink:title="h5py">
<ellipse fill="#31688e" stroke="black" cx="975.5" cy="-450" rx="30.59" ry="18"/>
<text text-anchor="middle" x="975.5" y="-446.3" font-family="Times,serif" font-size="14.00" fill="white">h5py</text>
</a>
</g>
</g>
<!-- h5py&#45;&gt;caffe -->
<g id="edge6" class="edge">
<title>h5py&#45;&gt;caffe</title>
<path fill="none" stroke="black" d="M1002.46,-441.5C1037.76,-431.57 1101.52,-413.3 1155.5,-396 1159.25,-394.8 1163.15,-393.51 1167.04,-392.2"/>
<polygon fill="black" stroke="black" points="1168.26,-395.48 1176.59,-388.94 1166,-388.86 1168.26,-395.48"/>
</g>
<!-- h5py&#45;&gt;conda&#45;forge&#45;pinning -->
<g id="edge7" class="edge">
<title>h5py&#45;&gt;conda&#45;forge&#45;pinning</title>
<path fill="none" stroke="black" d="M1006.02,-447.78C1070.67,-444.47 1218.02,-432.97 1248.5,-396 1258.68,-383.66 1248.88,-376 1248.5,-360 1247.17,-304.4 1242.5,-290.62 1242.5,-235 1242.5,-235 1242.5,-235 1242.5,-161 1242.5,-103.01 1302.3,-61.9 1346.89,-39.31"/>
<polygon fill="black" stroke="black" points="1348.71,-42.32 1356.14,-34.77 1345.62,-36.03 1348.71,-42.32"/>
</g>
<!-- openmc -->
<g id="node8" class="node">
<title>openmc</title>
<g id="a_node8"><a xlink:href="https://github.com/conda-forge/openmc-feedstock" xlink:title="openmc">
<ellipse fill="#fde725" stroke="black" cx="1311.5" cy="-306" rx="40.5" ry="18"/>
<text text-anchor="middle" x="1311.5" y="-302.3" font-family="Times,serif" font-size="14.00">openmc</text>
</a>
</g>
</g>
<!-- h5py&#45;&gt;openmc -->
<g id="edge8" class="edge">
<title>h5py&#45;&gt;openmc</title>
<path fill="none" stroke="black" d="M1005.85,-447.61C1074.77,-443.86 1240.31,-431.31 1281.5,-396 1299.34,-380.71 1306.6,-354.43 1309.54,-334.38"/>
<polygon fill="black" stroke="black" points="1313.04,-334.62 1310.74,-324.28 1306.09,-333.79 1313.04,-334.62"/>
</g>
<!-- rsgislib -->
<g id="node9" class="node">
<title>rsgislib</title>
<g id="a_node9"><a xlink:href="https://github.com/conda-forge/rsgislib-feedstock" xlink:title="rsgislib">
<ellipse fill="#fde725" stroke="black" cx="1358.5" cy="-234" rx="50.09" ry="18"/>
<text text-anchor="middle" x="1358.5" y="-230.3" font-family="Times,serif" font-size="14.00">rsgislib</text>
</a>
</g>
</g>
<!-- h5py&#45;&gt;rsgislib -->
<g id="edge9" class="edge">
<title>h5py&#45;&gt;rsgislib</title>
<path fill="none" stroke="black" d="M1005.67,-447.02C1077.37,-441.87 1255.79,-426.3 1306.5,-396 1341.07,-375.34 1348.6,-362.15 1361.5,-324 1368.22,-304.14 1366.98,-280.34 1364.32,-262.36"/>
<polygon fill="black" stroke="black" points="1367.73,-261.52 1362.6,-252.25 1360.83,-262.7 1367.73,-261.52"/>
</g>
<!-- h5utils -->
<g id="node10" class="node">
<title>h5utils</title>
<g id="a_node10"><a xlink:href="https://github.com/conda-forge/h5utils-feedstock" xlink:title="h5utils">
<ellipse fill="#fde725" stroke="black" cx="273.5" cy="-162" rx="45" ry="18"/>
<text text-anchor="middle" x="273.5" y="-158.3" font-family="Times,serif" font-size="14.00">h5utils</text>
</a>
</g>
</g>
<!-- h5py&#45;&gt;h5utils -->
<g id="edge10" class="edge">
<title>h5py&#45;&gt;h5utils</title>
<path fill="none" stroke="black" d="M944.97,-448.53C823.61,-446.41 379.68,-435.94 332.5,-396 271.65,-344.49 268.77,-240.09 271.22,-190.44"/>
<polygon fill="black" stroke="black" points="274.73,-190.35 271.84,-180.16 267.74,-189.92 274.73,-190.35"/>
</g>
<!-- pymeep -->
<g id="node11" class="node">
<title>pymeep</title>
<g id="a_node11"><a xlink:href="https://github.com/conda-forge/pymeep-feedstock" xlink:title="pymeep">
<ellipse fill="#fde725" stroke="black" cx="307.5" cy="-90" rx="40.5" ry="18"/>
<text text-anchor="middle" x="307.5" y="-86.3" font-family="Times,serif" font-size="14.00">pymeep</text>
</a>
</g>
</g>
<!-- h5py&#45;&gt;pymeep -->
<g id="edge11" class="edge">
<title>h5py&#45;&gt;pymeep</title>
<path fill="none" stroke="black" d="M944.74,-448.72C818.45,-446.76 346.5,-431.12 346.5,-307 346.5,-307 346.5,-307 346.5,-233 346.5,-191.56 330.86,-145.67 319.39,-117.58"/>
<polygon fill="black" stroke="black" points="322.5,-115.93 315.39,-108.07 316.05,-118.65 322.5,-115.93"/>
</g>
<!-- blosc&#45;hdf5&#45;plugin -->
<g id="node12" class="node">
<title>blosc&#45;hdf5&#45;plugin</title>
<g id="a_node12"><a xlink:href="https://github.com/conda-forge/blosc-hdf5-plugin-feedstock" xlink:title="blosc hdf5 plugin">
<ellipse fill="#fde725" stroke="black" cx="498.5" cy="-90" rx="93.68" ry="18"/>
<text text-anchor="middle" x="498.5" y="-86.3" font-family="Times,serif" font-size="14.00">blosc hdf5 plugin</text>
</a>
</g>
</g>
<!-- h5py&#45;&gt;blosc&#45;hdf5&#45;plugin -->
<g id="edge12" class="edge">
<title>h5py&#45;&gt;blosc&#45;hdf5&#45;plugin</title>
<path fill="none" stroke="black" d="M945.47,-446.66C873.61,-440.66 693.74,-423.31 640.5,-396 591.01,-370.61 552.5,-362.63 552.5,-307 552.5,-307 552.5,-307 552.5,-233 552.5,-190.11 530.71,-144.41 514.81,-116.78"/>
<polygon fill="black" stroke="black" points="517.8,-114.95 509.69,-108.13 511.78,-118.52 517.8,-114.95"/>
</g>
<!-- isce2 -->
<g id="node13" class="node">
<title>isce2</title>
<g id="a_node13"><a xlink:href="https://github.com/conda-forge/isce2-feedstock" xlink:title="isce2">
<ellipse fill="#fde725" stroke="black" cx="645.5" cy="-90" rx="35.19" ry="18"/>
<text text-anchor="middle" x="645.5" y="-86.3" font-family="Times,serif" font-size="14.00">isce2</text>
</a>
</g>
</g>
<!-- h5py&#45;&gt;isce2 -->
<g id="edge13" class="edge">
<title>h5py&#45;&gt;isce2</title>
<path fill="none" stroke="black" d="M944.89,-448.02C874.55,-445.13 704.37,-434.25 664.5,-396 635.31,-368 645.5,-347.45 645.5,-307 645.5,-307 645.5,-307 645.5,-233 645.5,-193 645.5,-146.65 645.5,-118.08"/>
<polygon fill="black" stroke="black" points="649,-118.05 645.5,-108.05 642,-118.05 649,-118.05"/>
</g>
<!-- bitshuffle -->
<g id="node14" class="node">
<title>bitshuffle</title>
<g id="a_node14"><a xlink:href="https://github.com/conda-forge/bitshuffle-feedstock" xlink:title="bitshuffle">
<ellipse fill="#fde725" stroke="black" cx="733.5" cy="-378" rx="60" ry="18"/>
<text text-anchor="middle" x="733.5" y="-374.3" font-family="Times,serif" font-size="14.00">bitshuffle</text>
</a>
</g>
</g>
<!-- h5py&#45;&gt;bitshuffle -->
<g id="edge14" class="edge">
<title>h5py&#45;&gt;bitshuffle</title>
<path fill="none" stroke="black" d="M948.68,-441.24C909.22,-429.83 834.8,-408.3 784.68,-393.8"/>
<polygon fill="black" stroke="black" points="785.57,-390.42 774.99,-391 783.63,-397.14 785.57,-390.42"/>
</g>
<!-- triqs -->
<g id="node15" class="node">
<title>triqs</title>
<g id="a_node15"><a xlink:href="https://github.com/conda-forge/triqs-feedstock" xlink:title="triqs">
<ellipse fill="#fde725" stroke="black" cx="821.5" cy="-162" rx="35.19" ry="18"/>
<text text-anchor="middle" x="821.5" y="-158.3" font-family="Times,serif" font-size="14.00">triqs</text>
</a>
</g>
</g>
<!-- h5py&#45;&gt;triqs -->
<g id="edge15" class="edge">
<title>h5py&#45;&gt;triqs</title>
<path fill="none" stroke="black" d="M954.79,-436.69C923.97,-417.13 866.86,-375.81 840.5,-324 818.71,-281.18 817.53,-223.88 819.17,-190.45"/>
<polygon fill="black" stroke="black" points="822.68,-190.28 819.8,-180.08 815.7,-189.85 822.68,-190.28"/>
</g>
<!-- hdf5plugin -->
<g id="node16" class="node">
<title>hdf5plugin</title>
<g id="a_node16"><a xlink:href="https://github.com/conda-forge/hdf5plugin-feedstock" xlink:title="hdf5plugin">
<ellipse fill="#fde725" stroke="black" cx="909.5" cy="-306" rx="60" ry="18"/>
<text text-anchor="middle" x="909.5" y="-302.3" font-family="Times,serif" font-size="14.00">hdf5plugin</text>
</a>
</g>
</g>
<!-- h5py&#45;&gt;hdf5plugin -->
<g id="edge16" class="edge">
<title>h5py&#45;&gt;hdf5plugin</title>
<path fill="none" stroke="black" d="M967.8,-432.43C956.44,-407.98 935.07,-362 921.6,-333.02"/>
<polygon fill="black" stroke="black" points="924.74,-331.49 917.36,-323.9 918.4,-334.45 924.74,-331.49"/>
</g>
<!-- prismatic_split -->
<g id="node17" class="node">
<title>prismatic_split</title>
<g id="a_node17"><a xlink:href="https://github.com/conda-forge/prismatic_split-feedstock" xlink:title="prismatic_split">
<ellipse fill="#fde725" stroke="black" cx="992.5" cy="-234" rx="84" ry="18"/>
<text text-anchor="middle" x="992.5" y="-230.3" font-family="Times,serif" font-size="14.00">prismatic_split</text>
</a>
</g>
</g>
<!-- h5py&#45;&gt;prismatic_split -->
<g id="edge17" class="edge">
<title>h5py&#45;&gt;prismatic_split</title>
<path fill="none" stroke="black" d="M976.86,-431.85C979.8,-394.83 986.77,-307.18 990.32,-262.39"/>
<polygon fill="black" stroke="black" points="993.83,-262.48 991.13,-252.23 986.85,-261.92 993.83,-262.48"/>
</g>
<!-- digital_rf -->
<g id="node18" class="node">
<title>digital_rf</title>
<g id="a_node18"><a xlink:href="https://github.com/conda-forge/digital_rf-feedstock" xlink:title="digital_rf">
<ellipse fill="#fde725" stroke="black" cx="1058.5" cy="-162" rx="60" ry="18"/>
<text text-anchor="middle" x="1058.5" y="-158.3" font-family="Times,serif" font-size="14.00">digital_rf</text>
</a>
</g>
</g>
<!-- h5py&#45;&gt;digital_rf -->
<g id="edge18" class="edge">
<title>h5py&#45;&gt;digital_rf</title>
<path fill="none" stroke="black" d="M987.98,-433.37C1012.51,-401.53 1066.26,-325.92 1085.5,-252 1089.53,-236.52 1089.23,-231.56 1085.5,-216 1083.26,-206.66 1079.08,-197.11 1074.67,-188.74"/>
<polygon fill="black" stroke="black" points="1077.63,-186.87 1069.69,-179.86 1071.53,-190.29 1077.63,-186.87"/>
</g>
<!-- pp&#45;sketchlib -->
<g id="node19" class="node">
<title>pp&#45;sketchlib</title>
<g id="a_node19"><a xlink:href="https://github.com/conda-forge/pp-sketchlib-feedstock" xlink:title="pp sketchlib">
<ellipse fill="#fde725" stroke="black" cx="1106.5" cy="-90" rx="69.59" ry="18"/>
<text text-anchor="middle" x="1106.5" y="-86.3" font-family="Times,serif" font-size="14.00">pp sketchlib</text>
</a>
</g>
</g>
<!-- h5py&#45;&gt;pp&#45;sketchlib -->
<g id="edge19" class="edge">
<title>h5py&#45;&gt;pp&#45;sketchlib</title>
<path fill="none" stroke="black" d="M995.19,-436.14C1009.09,-426.35 1027.49,-411.88 1040.5,-396 1106.07,-315.93 1110.6,-282.11 1127.5,-180 1130.11,-164.21 1130.5,-159.72 1127.5,-144 1125.79,-135.06 1122.6,-125.7 1119.21,-117.37"/>
<polygon fill="black" stroke="black" points="1122.41,-115.95 1115.22,-108.17 1115.99,-118.73 1122.41,-115.95"/>
</g>
<!-- openmc&#45;&gt;conda&#45;forge&#45;pinning -->
<g id="edge20" class="edge">
<title>openmc&#45;&gt;conda&#45;forge&#45;pinning</title>
<path fill="none" stroke="black" d="M1306.63,-287.98C1303.94,-277.67 1300.86,-264.19 1299.5,-252 1290.49,-171.4 1287.38,-141.31 1329.5,-72 1336.73,-60.1 1347.63,-49.7 1358.45,-41.33"/>
<polygon fill="black" stroke="black" points="1360.63,-44.07 1366.64,-35.34 1356.5,-38.42 1360.63,-44.07"/>
</g>
<!-- rsgislib&#45;&gt;conda&#45;forge&#45;pinning -->
<g id="edge21" class="edge">
<title>rsgislib&#45;&gt;conda&#45;forge&#45;pinning</title>
<path fill="none" stroke="black" d="M1351.66,-215.79C1340.71,-185.48 1322.42,-121.14 1342.5,-72 1347.06,-60.83 1355.24,-50.75 1363.78,-42.45"/>
<polygon fill="black" stroke="black" points="1366.24,-44.94 1371.29,-35.63 1361.53,-39.75 1366.24,-44.94"/>
</g>
<!-- h5utils&#45;&gt;conda&#45;forge&#45;pinning -->
<g id="edge22" class="edge">
<title>h5utils&#45;&gt;conda&#45;forge&#45;pinning</title>
<path fill="none" stroke="black" d="M263.06,-144.15C252.18,-124.22 239.07,-91.31 257.5,-72 292.46,-35.38 1000.3,-23.42 1281.13,-20.11"/>
<polygon fill="black" stroke="black" points="1281.39,-23.61 1291.34,-19.99 1281.3,-16.61 1281.39,-23.61"/>
</g>
<!-- h5utils&#45;&gt;pymeep -->
<g id="edge23" class="edge">
<title>h5utils&#45;&gt;pymeep</title>
<path fill="none" stroke="black" d="M281.73,-144.05C285.7,-135.89 290.54,-125.91 294.96,-116.82"/>
<polygon fill="black" stroke="black" points="298.12,-118.31 299.35,-107.79 291.83,-115.25 298.12,-118.31"/>
</g>
<!-- pymeep&#45;&gt;conda&#45;forge&#45;pinning -->
<g id="edge24" class="edge">
<title>pymeep&#45;&gt;conda&#45;forge&#45;pinning</title>
<path fill="none" stroke="black" d="M338,-78.1C345.89,-75.69 354.43,-73.43 362.5,-72 536.23,-41.19 1052.26,-26.43 1282,-21.25"/>
<polygon fill="black" stroke="black" points="1282.13,-24.75 1292.05,-21.03 1281.98,-17.75 1282.13,-24.75"/>
</g>
<!-- blosc&#45;hdf5&#45;plugin&#45;&gt;conda&#45;forge&#45;pinning -->
<g id="edge25" class="edge">
<title>blosc&#45;hdf5&#45;plugin&#45;&gt;conda&#45;forge&#45;pinning</title>
<path fill="none" stroke="black" d="M564.3,-77.17C576.63,-75.22 589.44,-73.4 601.5,-72 844.19,-43.93 1130.51,-29.34 1284.01,-23"/>
<polygon fill="black" stroke="black" points="1284.53,-26.49 1294.38,-22.58 1284.25,-19.49 1284.53,-26.49"/>
</g>
<!-- isce2&#45;&gt;conda&#45;forge&#45;pinning -->
<g id="edge26" class="edge">
<title>isce2&#45;&gt;conda&#45;forge&#45;pinning</title>
<path fill="none" stroke="black" d="M672.36,-78.28C679.46,-75.84 687.18,-73.52 694.5,-72 898.08,-29.72 1141.21,-20.26 1280.75,-18.64"/>
<polygon fill="black" stroke="black" points="1281.07,-22.14 1291.03,-18.54 1281,-15.14 1281.07,-22.14"/>
</g>
<!-- bitshuffle&#45;&gt;conda&#45;forge&#45;pinning -->
<g id="edge27" class="edge">
<title>bitshuffle&#45;&gt;conda&#45;forge&#45;pinning</title>
<path fill="none" stroke="black" d="M728.44,-359.68C721.14,-333.11 708.5,-280.56 708.5,-235 708.5,-235 708.5,-235 708.5,-161 708.5,-120.46 697.88,-98.57 728.5,-72 769.24,-36.65 1102.41,-24.69 1281.52,-20.79"/>
<polygon fill="black" stroke="black" points="1281.85,-24.29 1291.78,-20.57 1281.71,-17.29 1281.85,-24.29"/>
</g>
<!-- triqs&#45;&gt;conda&#45;forge&#45;pinning -->
<g id="edge28" class="edge">
<title>triqs&#45;&gt;conda&#45;forge&#45;pinning</title>
<path fill="none" stroke="black" d="M837.12,-145.66C862,-121.39 908.83,-76.4 918.5,-72 981.62,-43.31 1164.49,-29.51 1284.32,-23.37"/>
<polygon fill="black" stroke="black" points="1284.82,-26.85 1294.63,-22.85 1284.47,-19.86 1284.82,-26.85"/>
</g>
<!-- triqs_cthyb -->
<g id="node20" class="node">
<title>triqs_cthyb</title>
<g id="a_node20"><a xlink:href="https://github.com/conda-forge/triqs_cthyb-feedstock" xlink:title="triqs_cthyb">
<ellipse fill="#fde725" stroke="black" cx="801.5" cy="-90" rx="64.5" ry="18"/>
<text text-anchor="middle" x="801.5" y="-86.3" font-family="Times,serif" font-size="14.00">triqs_cthyb</text>
</a>
</g>
</g>
<!-- triqs&#45;&gt;triqs_cthyb -->
<g id="edge29" class="edge">
<title>triqs&#45;&gt;triqs_cthyb</title>
<path fill="none" stroke="black" d="M816.66,-144.05C814.43,-136.26 811.73,-126.82 809.24,-118.08"/>
<polygon fill="black" stroke="black" points="812.55,-116.93 806.44,-108.28 805.82,-118.85 812.55,-116.93"/>
</g>
<!-- hdf5plugin&#45;&gt;conda&#45;forge&#45;pinning -->
<g id="edge30" class="edge">
<title>hdf5plugin&#45;&gt;conda&#45;forge&#45;pinning</title>
<path fill="none" stroke="black" d="M903.78,-287.96C898.57,-269.81 892.64,-240.4 899.5,-216 919.81,-143.8 924.59,-112.84 987.5,-72 1034.93,-41.21 1179.99,-28.22 1283.39,-22.8"/>
<polygon fill="black" stroke="black" points="1283.77,-26.29 1293.58,-22.29 1283.41,-19.3 1283.77,-26.29"/>
</g>
<!-- prismatic_split&#45;&gt;conda&#45;forge&#45;pinning -->
<g id="edge31" class="edge">
<title>prismatic_split&#45;&gt;conda&#45;forge&#45;pinning</title>
<path fill="none" stroke="black" d="M988.51,-215.84C981.78,-181.95 972.74,-106.69 1015.5,-72 1055.49,-39.56 1186.01,-26.97 1282.77,-22.09"/>
<polygon fill="black" stroke="black" points="1283.09,-25.58 1292.91,-21.6 1282.75,-18.59 1283.09,-25.58"/>
</g>
<!-- digital_rf&#45;&gt;conda&#45;forge&#45;pinning -->
<g id="edge32" class="edge">
<title>digital_rf&#45;&gt;conda&#45;forge&#45;pinning</title>
<path fill="none" stroke="black" d="M1043.92,-144.39C1028.71,-124.99 1009.4,-92.9 1027.5,-72 1059.91,-34.57 1185.85,-22.99 1281.24,-19.7"/>
<polygon fill="black" stroke="black" points="1281.36,-23.2 1291.24,-19.38 1281.14,-16.2 1281.36,-23.2"/>
</g>
<!-- pp&#45;sketchlib&#45;&gt;conda&#45;forge&#45;pinning -->
<g id="edge33" class="edge">
<title>pp&#45;sketchlib&#45;&gt;conda&#45;forge&#45;pinning</title>
<path fill="none" stroke="black" d="M1155.36,-77.13C1202.55,-65.66 1274.41,-48.19 1327.04,-35.4"/>
<polygon fill="black" stroke="black" points="1328.08,-38.75 1336.97,-32.98 1326.42,-31.94 1328.08,-38.75"/>
</g>
<!-- triqs_cthyb&#45;&gt;conda&#45;forge&#45;pinning -->
<g id="edge60" class="edge">
<title>triqs_cthyb&#45;&gt;conda&#45;forge&#45;pinning</title>
<path fill="none" stroke="black" d="M849.39,-77.82C859.62,-75.68 870.39,-73.6 880.5,-72 1021.55,-49.62 1185.95,-34.58 1290.1,-26.4"/>
<polygon fill="black" stroke="black" points="1290.61,-29.87 1300.31,-25.61 1290.07,-22.9 1290.61,-29.87"/>
</g>
<!-- hdfeos5 -->
<g id="node21" class="node">
<title>hdfeos5</title>
<g id="a_node21"><a xlink:href="https://github.com/conda-forge/hdfeos5-feedstock/pull/27" xlink:title="hdfeos5">
<ellipse fill="#31688e" stroke="black" cx="1471.5" cy="-234" rx="45" ry="18"/>
<text text-anchor="middle" x="1471.5" y="-230.3" font-family="Times,serif" font-size="14.00" fill="white">hdfeos5</text>
</a>
</g>
</g>
<!-- hdfeos5&#45;&gt;conda&#45;forge&#45;pinning -->
<g id="edge34" class="edge">
<title>hdfeos5&#45;&gt;conda&#45;forge&#45;pinning</title>
<path fill="none" stroke="black" d="M1435.96,-222.95C1414.95,-214.98 1390.07,-201.52 1377.5,-180 1353.09,-138.21 1369.21,-79.8 1382.38,-46.03"/>
<polygon fill="black" stroke="black" points="1385.77,-46.97 1386.32,-36.39 1379.3,-44.32 1385.77,-46.97"/>
</g>
<!-- ncl -->
<g id="node22" class="node">
<title>ncl</title>
<g id="a_node22"><a xlink:href="https://github.com/conda-forge/ncl-feedstock" xlink:title="ncl">
<ellipse fill="#fde725" stroke="black" cx="1413.5" cy="-162" rx="27" ry="18"/>
<text text-anchor="middle" x="1413.5" y="-158.3" font-family="Times,serif" font-size="14.00">ncl</text>
</a>
</g>
</g>
<!-- hdfeos5&#45;&gt;ncl -->
<g id="edge35" class="edge">
<title>hdfeos5&#45;&gt;ncl</title>
<path fill="none" stroke="black" d="M1458.05,-216.76C1450.52,-207.68 1441,-196.19 1432.7,-186.18"/>
<polygon fill="black" stroke="black" points="1435.16,-183.66 1426.09,-178.19 1429.77,-188.12 1435.16,-183.66"/>
</g>
<!-- pynio -->
<g id="node23" class="node">
<title>pynio</title>
<g id="a_node23"><a xlink:href="https://github.com/conda-forge/pynio-feedstock" xlink:title="pynio">
<ellipse fill="#fde725" stroke="black" cx="1457.5" cy="-90" rx="35.19" ry="18"/>
<text text-anchor="middle" x="1457.5" y="-86.3" font-family="Times,serif" font-size="14.00">pynio</text>
</a>
</g>
</g>
<!-- hdfeos5&#45;&gt;pynio -->
<g id="edge36" class="edge">
<title>hdfeos5&#45;&gt;pynio</title>
<path fill="none" stroke="black" d="M1469.81,-215.87C1467.43,-191.67 1463.04,-147.21 1460.2,-118.39"/>
<polygon fill="black" stroke="black" points="1463.66,-117.8 1459.19,-108.19 1456.69,-118.48 1463.66,-117.8"/>
</g>
<!-- ncl&#45;&gt;conda&#45;forge&#45;pinning -->
<g id="edge37" class="edge">
<title>ncl&#45;&gt;conda&#45;forge&#45;pinning</title>
<path fill="none" stroke="black" d="M1411.21,-143.87C1407.97,-119.67 1402.02,-75.21 1398.17,-46.39"/>
<polygon fill="black" stroke="black" points="1401.6,-45.64 1396.8,-36.19 1394.66,-46.57 1401.6,-45.64"/>
</g>
<!-- pynio&#45;&gt;conda&#45;forge&#45;pinning -->
<g id="edge38" class="edge">
<title>pynio&#45;&gt;conda&#45;forge&#45;pinning</title>
<path fill="none" stroke="black" d="M1443.52,-73.46C1435.62,-64.69 1425.58,-53.53 1416.64,-43.6"/>
<polygon fill="black" stroke="black" points="1419.06,-41.05 1409.77,-35.96 1413.85,-45.74 1419.06,-41.05"/>
</g>
<!-- hyperion&#45;fortran -->
<g id="node24" class="node">
<title>hyperion&#45;fortran</title>
<g id="a_node24"><a xlink:href="https://github.com/conda-forge/hyperion-fortran-feedstock/pull/18" xlink:title="hyperion fortran">
<ellipse fill="#31688e" stroke="black" cx="1544.5" cy="-378" rx="89.08" ry="18"/>
<text text-anchor="middle" x="1544.5" y="-374.3" font-family="Times,serif" font-size="14.00" fill="white">hyperion fortran</text>
</a>
</g>
</g>
<!-- hyperion&#45;fortran&#45;&gt;conda&#45;forge&#45;pinning -->
<g id="edge39" class="edge">
<title>hyperion&#45;fortran&#45;&gt;conda&#45;forge&#45;pinning</title>
<path fill="none" stroke="black" d="M1547.31,-359.73C1554.47,-309.66 1568.39,-162.21 1501.5,-72 1490.25,-56.83 1473.45,-45.74 1456.48,-37.75"/>
<polygon fill="black" stroke="black" points="1457.63,-34.44 1447.07,-33.63 1454.82,-40.85 1457.63,-34.44"/>
</g>
<!-- octave -->
<g id="node25" class="node">
<title>octave</title>
<g id="a_node25"><a xlink:href="https://github.com/conda-forge/octave-feedstock/pull/39" xlink:title="octave">
<ellipse fill="#31688e" stroke="black" cx="1589.5" cy="-90" rx="40.5" ry="18"/>
<text text-anchor="middle" x="1589.5" y="-86.3" font-family="Times,serif" font-size="14.00" fill="white">octave</text>
</a>
</g>
</g>
<!-- octave&#45;&gt;conda&#45;forge&#45;pinning -->
<g id="edge40" class="edge">
<title>octave&#45;&gt;conda&#45;forge&#45;pinning</title>
<path fill="none" stroke="black" d="M1559.03,-78.06C1529.17,-67.34 1483.04,-50.79 1447.22,-37.93"/>
<polygon fill="black" stroke="black" points="1448.01,-34.49 1437.41,-34.41 1445.64,-41.08 1448.01,-34.49"/>
</g>
<!-- pyne -->
<g id="node26" class="node">
<title>pyne</title>
<g id="a_node26"><a xlink:href="https://github.com/conda-forge/pyne-feedstock/pull/40" xlink:title="pyne">
<ellipse fill="#31688e" stroke="black" cx="1637.5" cy="-162" rx="30.59" ry="18"/>
<text text-anchor="middle" x="1637.5" y="-158.3" font-family="Times,serif" font-size="14.00" fill="white">pyne</text>
</a>
</g>
</g>
<!-- pyne&#45;&gt;conda&#45;forge&#45;pinning -->
<g id="edge41" class="edge">
<title>pyne&#45;&gt;conda&#45;forge&#45;pinning</title>
<path fill="none" stroke="black" d="M1643.72,-144.19C1649.78,-124.6 1655.9,-92.33 1639.5,-72 1621.13,-49.23 1554.46,-35.76 1495.3,-28.1"/>
<polygon fill="black" stroke="black" points="1495.47,-24.59 1485.12,-26.82 1494.61,-31.54 1495.47,-24.59"/>
</g>
<!-- r&#45;hdf5r -->
<g id="node27" class="node">
<title>r&#45;hdf5r</title>
<g id="a_node27"><a xlink:href="https://github.com/conda-forge/r-hdf5r-feedstock/pull/12" xlink:title="r hdf5r">
<ellipse fill="#31688e" stroke="black" cx="1661.5" cy="-234" rx="45" ry="18"/>
<text text-anchor="middle" x="1661.5" y="-230.3" font-family="Times,serif" font-size="14.00" fill="white">r hdf5r</text>
</a>
</g>
</g>
<!-- r&#45;hdf5r&#45;&gt;conda&#45;forge&#45;pinning -->
<g id="edge42" class="edge">
<title>r&#45;hdf5r&#45;&gt;conda&#45;forge&#45;pinning</title>
<path fill="none" stroke="black" d="M1667.92,-216.04C1679.25,-182.85 1698.08,-109.28 1658.5,-72 1634.88,-49.75 1559.24,-36.05 1494.95,-28.16"/>
<polygon fill="black" stroke="black" points="1495.08,-24.65 1484.74,-26.95 1494.26,-31.61 1495.08,-24.65"/>
</g>
<!-- r&#45;ncdf4 -->
<g id="node28" class="node">
<title>r&#45;ncdf4</title>
<g id="a_node28"><a xlink:href="https://github.com/conda-forge/r-ncdf4-feedstock/pull/20" xlink:title="r ncdf4">
<ellipse fill="#31688e" stroke="black" cx="1699.5" cy="-306" rx="45" ry="18"/>
<text text-anchor="middle" x="1699.5" y="-302.3" font-family="Times,serif" font-size="14.00" fill="white">r ncdf4</text>
</a>
</g>
</g>
<!-- r&#45;ncdf4&#45;&gt;conda&#45;forge&#45;pinning -->
<g id="edge43" class="edge">
<title>r&#45;ncdf4&#45;&gt;conda&#45;forge&#45;pinning</title>
<path fill="none" stroke="black" d="M1705.99,-288.1C1709.58,-277.84 1713.67,-264.36 1715.5,-252 1727.38,-171.54 1741.24,-128.25 1682.5,-72 1656.47,-47.07 1570.94,-33.5 1499.79,-26.35"/>
<polygon fill="black" stroke="black" points="1499.7,-22.83 1489.41,-25.34 1499.03,-29.79 1499.7,-22.83"/>
</g>
<!-- shogun -->
<g id="node29" class="node">
<title>shogun</title>
<g id="a_node29"><a xlink:href="https://github.com/conda-forge/shogun-feedstock/pull/20" xlink:title="shogun">
<ellipse fill="#31688e" stroke="black" cx="1772.5" cy="-378" rx="40.5" ry="18"/>
<text text-anchor="middle" x="1772.5" y="-374.3" font-family="Times,serif" font-size="14.00" fill="white">shogun</text>
</a>
</g>
</g>
<!-- shogun&#45;&gt;conda&#45;forge&#45;pinning -->
<g id="edge44" class="edge">
<title>shogun&#45;&gt;conda&#45;forge&#45;pinning</title>
<path fill="none" stroke="black" d="M1772.5,-359.95C1772.5,-333.29 1772.5,-280.11 1772.5,-235 1772.5,-235 1772.5,-235 1772.5,-161 1772.5,-112.79 1751.23,-97.78 1710.5,-72 1675.64,-49.94 1575.07,-35.65 1496.66,-27.53"/>
<polygon fill="black" stroke="black" points="1496.54,-24 1486.24,-26.47 1495.83,-30.96 1496.54,-24"/>
</g>
<!-- vigra -->
<g id="node30" class="node">
<title>vigra</title>
<g id="a_node30"><a xlink:href="https://github.com/conda-forge/vigra-feedstock/pull/54" xlink:title="vigra">
<ellipse fill="#31688e" stroke="black" cx="1835.5" cy="-90" rx="35.19" ry="18"/>
<text text-anchor="middle" x="1835.5" y="-86.3" font-family="Times,serif" font-size="14.00" fill="white">vigra</text>
</a>
</g>
</g>
<!-- vigra&#45;&gt;conda&#45;forge&#45;pinning -->
<g id="edge45" class="edge">
<title>vigra&#45;&gt;conda&#45;forge&#45;pinning</title>
<path fill="none" stroke="black" d="M1808.32,-78.49C1801.29,-76.07 1793.68,-73.71 1786.5,-72 1689.61,-48.89 1576.67,-34.95 1496.98,-27.21"/>
<polygon fill="black" stroke="black" points="1497.22,-23.72 1486.94,-26.25 1496.56,-30.69 1497.22,-23.72"/>
</g>
<!-- yaafe -->
<g id="node31" class="node">
<title>yaafe</title>
<g id="a_node31"><a xlink:href="https://github.com/conda-forge/yaafe-feedstock/pull/9" xlink:title="yaafe">
<ellipse fill="#31688e" stroke="black" cx="1873.5" cy="-162" rx="35.19" ry="18"/>
<text text-anchor="middle" x="1873.5" y="-158.3" font-family="Times,serif" font-size="14.00" fill="white">yaafe</text>
</a>
</g>
</g>
<!-- yaafe&#45;&gt;conda&#45;forge&#45;pinning -->
<g id="edge46" class="edge">
<title>yaafe&#45;&gt;conda&#45;forge&#45;pinning</title>
<path fill="none" stroke="black" d="M1881.03,-144.25C1888.66,-124.42 1897.08,-91.6 1879.5,-72 1854.9,-44.56 1639.63,-29.94 1504.29,-23.38"/>
<polygon fill="black" stroke="black" points="1504.44,-19.89 1494.28,-22.91 1504.1,-26.88 1504.44,-19.89"/>
</g>
<!-- alps -->
<g id="node32" class="node">
<title>alps</title>
<g id="a_node32"><a xlink:href="https://github.com/conda-forge/alps-feedstock/pull/31" xlink:title="alps">
<ellipse fill="#31688e" stroke="black" cx="1915.5" cy="-234" rx="30.59" ry="18"/>
<text text-anchor="middle" x="1915.5" y="-230.3" font-family="Times,serif" font-size="14.00" fill="white">alps</text>
</a>
</g>
</g>
<!-- alps&#45;&gt;conda&#45;forge&#45;pinning -->
<g id="edge47" class="edge">
<title>alps&#45;&gt;conda&#45;forge&#45;pinning</title>
<path fill="none" stroke="black" d="M1920.15,-216.01C1928.19,-182.42 1940.11,-107.68 1898.5,-72 1869.18,-46.86 1642.93,-31.27 1503.72,-23.96"/>
<polygon fill="black" stroke="black" points="1503.61,-20.45 1493.44,-23.43 1503.24,-27.44 1503.61,-20.45"/>
</g>
<!-- spdlib -->
<g id="node33" class="node">
<title>spdlib</title>
<g id="a_node33"><a xlink:href="https://github.com/conda-forge/spdlib-feedstock/pull/15" xlink:title="spdlib">
<ellipse fill="#31688e" stroke="black" cx="1974.5" cy="-306" rx="40.5" ry="18"/>
<text text-anchor="middle" x="1974.5" y="-302.3" font-family="Times,serif" font-size="14.00" fill="white">spdlib</text>
</a>
</g>
</g>
<!-- spdlib&#45;&gt;conda&#45;forge&#45;pinning -->
<g id="edge48" class="edge">
<title>spdlib&#45;&gt;conda&#45;forge&#45;pinning</title>
<path fill="none" stroke="black" d="M1976.8,-287.92C1981.62,-244.26 1987.51,-128.07 1923.5,-72 1892.71,-45.03 1650.65,-29.99 1504.85,-23.3"/>
<polygon fill="black" stroke="black" points="1504.67,-19.78 1494.53,-22.83 1504.36,-26.78 1504.67,-19.78"/>
</g>
<!-- mpb -->
<g id="node34" class="node">
<title>mpb</title>
<g id="a_node34"><a xlink:href="https://github.com/conda-forge/mpb-feedstock/pull/22" xlink:title="mpb">
<ellipse fill="#31688e" stroke="black" cx="401.5" cy="-162" rx="27" ry="18"/>
<text text-anchor="middle" x="401.5" y="-158.3" font-family="Times,serif" font-size="14.00" fill="white">mpb</text>
</a>
</g>
</g>
<!-- mpb&#45;&gt;conda&#45;forge&#45;pinning -->
<g id="edge49" class="edge">
<title>mpb&#45;&gt;conda&#45;forge&#45;pinning</title>
<path fill="none" stroke="black" d="M393.93,-144.44C386.08,-124.47 377.28,-91.22 395.5,-72 425.59,-40.27 1026.84,-25.66 1281.79,-20.87"/>
<polygon fill="black" stroke="black" points="1281.89,-24.37 1291.82,-20.69 1281.76,-17.37 1281.89,-24.37"/>
</g>
<!-- mpb&#45;&gt;pymeep -->
<g id="edge50" class="edge">
<title>mpb&#45;&gt;pymeep</title>
<path fill="none" stroke="black" d="M383.82,-147.83C370.27,-137.74 351.3,-123.62 335.67,-111.98"/>
<polygon fill="black" stroke="black" points="337.49,-108.97 327.38,-105.8 333.31,-114.58 337.49,-108.97"/>
</g>
<!-- openpmd&#45;api -->
<g id="node35" class="node">
<title>openpmd&#45;api</title>
<g id="a_node35"><a xlink:href="https://github.com/conda-forge/openpmd-api-feedstock" xlink:title="openpmd api">
<ellipse fill="#fde725" stroke="black" cx="2067.5" cy="-90" rx="64.5" ry="18"/>
<text text-anchor="middle" x="2067.5" y="-86.3" font-family="Times,serif" font-size="14.00">openpmd api</text>
</a>
</g>
</g>
<!-- openpmd&#45;api&#45;&gt;conda&#45;forge&#45;pinning -->
<g id="edge51" class="edge">
<title>openpmd&#45;api&#45;&gt;conda&#45;forge&#45;pinning</title>
<path fill="none" stroke="black" d="M2020.05,-77.8C2009.7,-75.63 1998.76,-73.56 1988.5,-72 1819.66,-46.4 1621.8,-31.79 1502.41,-24.63"/>
<polygon fill="black" stroke="black" points="1502.36,-21.12 1492.17,-24.02 1501.95,-28.11 1502.36,-21.12"/>
</g>
<!-- cmor -->
<g id="node36" class="node">
<title>cmor</title>
<g id="a_node36"><a xlink:href="https://github.com/conda-forge/cmor-feedstock/pull/22" xlink:title="cmor">
<ellipse fill="#31688e" stroke="black" cx="2198.5" cy="-378" rx="30.59" ry="18"/>
<text text-anchor="middle" x="2198.5" y="-374.3" font-family="Times,serif" font-size="14.00" fill="white">cmor</text>
</a>
</g>
</g>
<!-- cmor&#45;&gt;conda&#45;forge&#45;pinning -->
<g id="edge52" class="edge">
<title>cmor&#45;&gt;conda&#45;forge&#45;pinning</title>
<path fill="none" stroke="black" d="M2198.5,-359.95C2198.5,-333.29 2198.5,-280.11 2198.5,-235 2198.5,-235 2198.5,-235 2198.5,-161 2198.5,-117.63 2194.07,-96.8 2158.5,-72 2106.44,-35.7 1707.06,-24.07 1507.4,-20.5"/>
<polygon fill="black" stroke="black" points="1507.23,-16.99 1497.17,-20.32 1507.1,-23.99 1507.23,-16.99"/>
</g>
<!-- freecad -->
<g id="node37" class="node">
<title>freecad</title>
<g id="a_node37"><a xlink:href="https://github.com/conda-forge/freecad-feedstock/pull/38" xlink:title="freecad">
<ellipse fill="#31688e" stroke="black" cx="2271.5" cy="-90" rx="45" ry="18"/>
<text text-anchor="middle" x="2271.5" y="-86.3" font-family="Times,serif" font-size="14.00" fill="white">freecad</text>
</a>
</g>
</g>
<!-- freecad&#45;&gt;conda&#45;forge&#45;pinning -->
<g id="edge53" class="edge">
<title>freecad&#45;&gt;conda&#45;forge&#45;pinning</title>
<path fill="none" stroke="black" d="M2237.79,-77.93C2229.59,-75.62 2220.8,-73.45 2212.5,-72 1963.85,-28.65 1667.12,-19.93 1508.27,-18.66"/>
<polygon fill="black" stroke="black" points="1508.03,-15.16 1498,-18.59 1507.98,-22.16 1508.03,-15.16"/>
</g>
<!-- openmeeg -->
<g id="node38" class="node">
<title>openmeeg</title>
<g id="a_node38"><a xlink:href="https://github.com/conda-forge/openmeeg-feedstock" xlink:title="openmeeg">
<ellipse fill="#35b779" stroke="black" cx="2304.5" cy="-162" rx="50.09" ry="18"/>
<text text-anchor="middle" x="2304.5" y="-158.3" font-family="Times,serif" font-size="14.00">openmeeg</text>
</a>
</g>
</g>
<!-- openmeeg&#45;&gt;conda&#45;forge&#45;pinning -->
<g id="edge54" class="edge">
<title>openmeeg&#45;&gt;conda&#45;forge&#45;pinning</title>
<path fill="none" stroke="black" d="M2316.29,-144.26C2328.69,-124.43 2344.03,-91.62 2325.5,-72 2297.79,-42.67 1748.49,-26.88 1506.89,-21.33"/>
<polygon fill="black" stroke="black" points="1506.75,-17.82 1496.67,-21.09 1506.59,-24.82 1506.75,-17.82"/>
</g>
<!-- scilab -->
<g id="node39" class="node">
<title>scilab</title>
<g id="a_node39"><a xlink:href="https://github.com/conda-forge/scilab-feedstock/pull/12" xlink:title="scilab">
<ellipse fill="#31688e" stroke="black" cx="2351.5" cy="-234" rx="40.5" ry="18"/>
<text text-anchor="middle" x="2351.5" y="-230.3" font-family="Times,serif" font-size="14.00" fill="white">scilab</text>
</a>
</g>
</g>
<!-- scilab&#45;&gt;conda&#45;forge&#45;pinning -->
<g id="edge55" class="edge">
<title>scilab&#45;&gt;conda&#45;forge&#45;pinning</title>
<path fill="none" stroke="black" d="M2357.51,-216.02C2368.31,-182.11 2386.12,-106.31 2343.5,-72 2311.39,-46.15 1750.9,-28.35 1506.7,-21.8"/>
<polygon fill="black" stroke="black" points="1506.46,-18.29 1496.37,-21.52 1506.27,-25.29 1506.46,-18.29"/>
</g>
<!-- adios2 -->
<g id="node40" class="node">
<title>adios2</title>
<g id="a_node40"><a xlink:href="https://github.com/conda-forge/adios2-feedstock/pull/11" xlink:title="adios2">
<ellipse fill="#31688e" stroke="black" cx="2098.5" cy="-162" rx="40.5" ry="18"/>
<text text-anchor="middle" x="2098.5" y="-158.3" font-family="Times,serif" font-size="14.00" fill="white">adios2</text>
</a>
</g>
</g>
<!-- adios2&#45;&gt;conda&#45;forge&#45;pinning -->
<g id="edge56" class="edge">
<title>adios2&#45;&gt;conda&#45;forge&#45;pinning</title>
<path fill="none" stroke="black" d="M2115.85,-145.52C2135.29,-126.35 2161.62,-93.6 2141.5,-72 2099.34,-26.74 1707.01,-19.48 1508.47,-18.74"/>
<polygon fill="black" stroke="black" points="1508.3,-15.24 1498.29,-18.7 1508.28,-22.24 1508.3,-15.24"/>
</g>
<!-- adios2&#45;&gt;openpmd&#45;api -->
<g id="edge57" class="edge">
<title>adios2&#45;&gt;openpmd&#45;api</title>
<path fill="none" stroke="black" d="M2091,-144.05C2087.47,-136.09 2083.18,-126.41 2079.24,-117.51"/>
<polygon fill="black" stroke="black" points="2082.4,-116 2075.15,-108.28 2076,-118.84 2082.4,-116"/>
</g>
<!-- bonsu -->
<g id="node41" class="node">
<title>bonsu</title>
<g id="a_node41"><a xlink:href="https://github.com/conda-forge/bonsu-feedstock/pull/5" xlink:title="bonsu">
<ellipse fill="#31688e" stroke="black" cx="2395.5" cy="-306" rx="35.19" ry="18"/>
<text text-anchor="middle" x="2395.5" y="-302.3" font-family="Times,serif" font-size="14.00" fill="white">bonsu</text>
</a>
</g>
</g>
<!-- bonsu&#45;&gt;conda&#45;forge&#45;pinning -->
<g id="edge58" class="edge">
<title>bonsu&#45;&gt;conda&#45;forge&#45;pinning</title>
<path fill="none" stroke="black" d="M2400.16,-287.99C2411.05,-243.98 2432.66,-126.04 2368.5,-72 2336,-44.63 1755.71,-27.6 1506.6,-21.52"/>
<polygon fill="black" stroke="black" points="1506.51,-18.02 1496.43,-21.27 1506.34,-25.01 1506.51,-18.02"/>
</g>
<!-- libvips -->
<g id="node42" class="node">
<title>libvips</title>
<g id="a_node42"><a xlink:href="https://github.com/conda-forge/libvips-feedstock" xlink:title="libvips">
<ellipse fill="#35b779" stroke="black" cx="2458.5" cy="-378" rx="45" ry="18"/>
<text text-anchor="middle" x="2458.5" y="-374.3" font-family="Times,serif" font-size="14.00">libvips</text>
</a>
</g>
</g>
<!-- libvips&#45;&gt;conda&#45;forge&#45;pinning -->
<g id="edge59" class="edge">
<title>libvips&#45;&gt;conda&#45;forge&#45;pinning</title>
<path fill="none" stroke="black" d="M2458.5,-359.95C2458.5,-333.29 2458.5,-280.11 2458.5,-235 2458.5,-235 2458.5,-235 2458.5,-161 2458.5,-112.54 2437.94,-95.4 2395.5,-72 2319.45,-30.07 1753.42,-21.31 1507.75,-19.48"/>
<polygon fill="black" stroke="black" points="1507.74,-15.98 1497.72,-19.41 1507.69,-22.98 1507.74,-15.98"/>
</g>
<!-- dagmc -->
<g id="node43" class="node">
<title>dagmc</title>
<g id="a_node43"><a xlink:href="https://github.com/conda-forge/dagmc-feedstock/pull/1" xlink:title="dagmc">
<ellipse fill="#31688e" stroke="black" cx="2521.5" cy="-90" rx="35.19" ry="18"/>
<text text-anchor="middle" x="2521.5" y="-86.3" font-family="Times,serif" font-size="14.00" fill="white">dagmc</text>
</a>
</g>
</g>
<!-- dagmc&#45;&gt;conda&#45;forge&#45;pinning -->
<g id="edge61" class="edge">
<title>dagmc&#45;&gt;conda&#45;forge&#45;pinning</title>
<path fill="none" stroke="black" d="M2494.92,-78.24C2487.75,-75.77 2479.93,-73.44 2472.5,-72 2290.36,-36.68 1744.95,-24.29 1507.28,-20.49"/>
<polygon fill="black" stroke="black" points="1507.28,-16.99 1497.23,-20.33 1507.17,-23.99 1507.28,-16.99"/>
</g>
<!-- nccmp -->
<g id="node44" class="node">
<title>nccmp</title>
<g id="a_node44"><a xlink:href="https://github.com/conda-forge/nccmp-feedstock/pull/2" xlink:title="nccmp">
<ellipse fill="#31688e" stroke="black" cx="2584.5" cy="-162" rx="35.19" ry="18"/>
<text text-anchor="middle" x="2584.5" y="-158.3" font-family="Times,serif" font-size="14.00" fill="white">nccmp</text>
</a>
</g>
</g>
<!-- nccmp&#45;&gt;conda&#45;forge&#45;pinning -->
<g id="edge62" class="edge">
<title>nccmp&#45;&gt;conda&#45;forge&#45;pinning</title>
<path fill="none" stroke="black" d="M2586.42,-143.86C2587.67,-123.31 2586.11,-89.46 2565.5,-72 2525.57,-38.18 1793.71,-24.49 1507.7,-20.42"/>
<polygon fill="black" stroke="black" points="1507.35,-16.91 1497.3,-20.27 1507.25,-23.91 1507.35,-16.91"/>
</g>
</g>
</svg>
