<?xml version="1.0" encoding="UTF-8" standalone="no"?>
<!DOCTYPE svg PUBLIC "-//W3C//DTD SVG 1.1//EN"
 "http://www.w3.org/Graphics/SVG/1.1/DTD/svg11.dtd">
<!-- Generated by graphviz version 2.42.3 (20191010.1750)
 -->
<!-- Title: %3 Pages: 1 -->
<svg width="2784pt" height="476pt"
 viewBox="0.00 0.00 2783.60 476.00" xmlns="http://www.w3.org/2000/svg" xmlns:xlink="http://www.w3.org/1999/xlink">
<g id="graph0" class="graph" transform="scale(1 1) rotate(0) translate(4 472)">
<title>%3</title>
<polygon fill="white" stroke="transparent" points="-4,4 -4,-472 2779.6,-472 2779.6,4 -4,4"/>
<!-- caffe -->
<g id="node1" class="node">
<title>caffe</title>
<g id="a_node1"><a xlink:href="https://github.com/conda-forge/caffe-feedstock" xlink:title="caffe">
<ellipse fill="#fde725" stroke="black" cx="970.5" cy="-378" rx="35.19" ry="18"/>
<text text-anchor="middle" x="970.5" y="-374.3" font-family="Times,serif" font-size="14.00">caffe</text>
</a>
</g>
</g>
<!-- conda&#45;forge&#45;pinning -->
<g id="node2" class="node">
<title>conda&#45;forge&#45;pinning</title>
<ellipse fill="none" stroke="black" cx="1483.5" cy="-18" rx="103.5" ry="18"/>
<text text-anchor="middle" x="1483.5" y="-14.3" font-family="Times,serif" font-size="14.00">conda&#45;forge&#45;pinning</text>
</g>
<!-- caffe&#45;&gt;conda&#45;forge&#45;pinning -->
<g id="edge1" class="edge">
<title>caffe&#45;&gt;conda&#45;forge&#45;pinning</title>
<path fill="none" stroke="black" d="M969.51,-359.96C968.06,-333.31 965.5,-280.14 965.5,-235 965.5,-235 965.5,-235 965.5,-161 965.5,-120.03 958.35,-98.62 989.5,-72 1018.19,-47.48 1238.49,-31.72 1375.04,-24.2"/>
<polygon fill="black" stroke="black" points="1375.33,-27.69 1385.12,-23.65 1374.95,-20.7 1375.33,-27.69"/>
</g>
<!-- cyclus -->
<g id="node3" class="node">
<title>cyclus</title>
<g id="a_node3"><a xlink:href="https://github.com/conda-forge/cyclus-feedstock/pull/56" xlink:title="cyclus">
<ellipse fill="#31688e" stroke="black" cx="40.5" cy="-90" rx="40.5" ry="18"/>
<text text-anchor="middle" x="40.5" y="-86.3" font-family="Times,serif" font-size="14.00" fill="white">cyclus</text>
</a>
</g>
</g>
<!-- cyclus&#45;&gt;conda&#45;forge&#45;pinning -->
<g id="edge2" class="edge">
<title>cyclus&#45;&gt;conda&#45;forge&#45;pinning</title>
<path fill="none" stroke="black" d="M70.99,-78.03C78.88,-75.62 87.42,-73.38 95.5,-72 339.34,-30.4 1083.74,-21.44 1369.84,-19.52"/>
<polygon fill="black" stroke="black" points="1370.25,-23.02 1380.23,-19.45 1370.21,-16.02 1370.25,-23.02"/>
</g>
<!-- fenics -->
<g id="node4" class="node">
<title>fenics</title>
<g id="a_node4"><a xlink:href="https://github.com/conda-forge/fenics-feedstock/pull/107" xlink:title="fenics">
<ellipse fill="#31688e" stroke="black" cx="93.5" cy="-162" rx="40.5" ry="18"/>
<text text-anchor="middle" x="93.5" y="-158.3" font-family="Times,serif" font-size="14.00" fill="white">fenics</text>
</a>
</g>
</g>
<!-- fenics&#45;&gt;conda&#45;forge&#45;pinning -->
<g id="edge3" class="edge">
<title>fenics&#45;&gt;conda&#45;forge&#45;pinning</title>
<path fill="none" stroke="black" d="M98.54,-144C105.79,-122.92 121.36,-87.84 148.5,-72 200.83,-41.45 1057.53,-25.46 1370.32,-20.61"/>
<polygon fill="black" stroke="black" points="1370.83,-24.11 1380.77,-20.45 1370.72,-17.11 1370.83,-24.11"/>
</g>
<!-- flann -->
<g id="node5" class="node">
<title>flann</title>
<g id="a_node5"><a xlink:href="https://github.com/conda-forge/flann-feedstock/pull/26" xlink:title="flann">
<ellipse fill="#31688e" stroke="black" cx="137.5" cy="-234" rx="35.19" ry="18"/>
<text text-anchor="middle" x="137.5" y="-230.3" font-family="Times,serif" font-size="14.00" fill="white">flann</text>
</a>
</g>
</g>
<!-- flann&#45;&gt;conda&#45;forge&#45;pinning -->
<g id="edge4" class="edge">
<title>flann&#45;&gt;conda&#45;forge&#45;pinning</title>
<path fill="none" stroke="black" d="M140.19,-215.82C146.48,-178.08 163.38,-89.87 186.5,-72 232.93,-36.11 1062.66,-23.53 1370.12,-20.1"/>
<polygon fill="black" stroke="black" points="1370.43,-23.59 1380.39,-19.98 1370.36,-16.59 1370.43,-23.59"/>
</g>
<!-- graph -->
<g id="node6" class="node">
<title>graph</title>
<g id="a_node6"><a xlink:href="https://github.com/conda-forge/graph-feedstock/pull/5" xlink:title="graph">
<ellipse fill="#31688e" stroke="black" cx="200.5" cy="-306" rx="35.19" ry="18"/>
<text text-anchor="middle" x="200.5" y="-302.3" font-family="Times,serif" font-size="14.00" fill="white">graph</text>
</a>
</g>
</g>
<!-- graph&#45;&gt;conda&#45;forge&#45;pinning -->
<g id="edge5" class="edge">
<title>graph&#45;&gt;conda&#45;forge&#45;pinning</title>
<path fill="none" stroke="black" d="M198.03,-287.94C194.41,-256.74 190.92,-189.53 219.5,-144 251.16,-93.56 275.73,-89.98 332.5,-72 429.58,-41.26 1100.48,-25.89 1370.9,-20.89"/>
<polygon fill="black" stroke="black" points="1371.19,-24.38 1381.13,-20.7 1371.07,-17.38 1371.19,-24.38"/>
</g>
<!-- h5py -->
<g id="node7" class="node">
<title>h5py</title>
<g id="a_node7"><a xlink:href="https://github.com/conda-forge/h5py-feedstock/pull/72" xlink:title="h5py">
<ellipse fill="#31688e" stroke="black" cx="888.5" cy="-450" rx="30.59" ry="18"/>
<text text-anchor="middle" x="888.5" y="-446.3" font-family="Times,serif" font-size="14.00" fill="white">h5py</text>
</a>
</g>
</g>
<!-- h5py&#45;&gt;caffe -->
<g id="edge6" class="edge">
<title>h5py&#45;&gt;caffe</title>
<path fill="none" stroke="black" d="M905.09,-434.83C916.64,-424.98 932.25,-411.65 945.33,-400.49"/>
<polygon fill="black" stroke="black" points="947.75,-403.02 953.08,-393.87 943.2,-397.7 947.75,-403.02"/>
</g>
<!-- h5py&#45;&gt;conda&#45;forge&#45;pinning -->
<g id="edge7" class="edge">
<title>h5py&#45;&gt;conda&#45;forge&#45;pinning</title>
<path fill="none" stroke="black" d="M918.38,-445.76C948.42,-440.74 993.23,-428.02 1014.5,-396 1023.35,-382.67 1015.2,-375.98 1014.5,-360 1012.05,-304.28 1003.5,-290.77 1003.5,-235 1003.5,-235 1003.5,-235 1003.5,-161 1003.5,-111.22 1028.38,-96.87 1071.5,-72 1121.38,-43.23 1269.33,-29.73 1373.6,-23.65"/>
<polygon fill="black" stroke="black" points="1374.08,-27.12 1383.87,-23.06 1373.69,-20.14 1374.08,-27.12"/>
</g>
<!-- openmc -->
<g id="node8" class="node">
<title>openmc</title>
<g id="a_node8"><a xlink:href="https://github.com/conda-forge/openmc-feedstock" xlink:title="openmc">
<ellipse fill="#fde725" stroke="black" cx="1072.5" cy="-306" rx="40.5" ry="18"/>
<text text-anchor="middle" x="1072.5" y="-302.3" font-family="Times,serif" font-size="14.00">openmc</text>
</a>
</g>
</g>
<!-- h5py&#45;&gt;openmc -->
<g id="edge8" class="edge">
<title>h5py&#45;&gt;openmc</title>
<path fill="none" stroke="black" d="M918.72,-447.2C954.45,-443.43 1013.37,-431.81 1047.5,-396 1063.29,-379.43 1069.25,-353.71 1071.42,-334.17"/>
<polygon fill="black" stroke="black" points="1074.93,-334.31 1072.28,-324.05 1067.95,-333.72 1074.93,-334.31"/>
</g>
<!-- rsgislib -->
<g id="node9" class="node">
<title>rsgislib</title>
<g id="a_node9"><a xlink:href="https://github.com/conda-forge/rsgislib-feedstock" xlink:title="rsgislib">
<ellipse fill="#fde725" stroke="black" cx="1119.5" cy="-234" rx="50.09" ry="18"/>
<text text-anchor="middle" x="1119.5" y="-230.3" font-family="Times,serif" font-size="14.00">rsgislib</text>
</a>
</g>
</g>
<!-- h5py&#45;&gt;rsgislib -->
<g id="edge9" class="edge">
<title>h5py&#45;&gt;rsgislib</title>
<path fill="none" stroke="black" d="M918.74,-446.47C957.4,-441.92 1024.89,-429.48 1071.5,-396 1103.14,-373.27 1109.86,-361.18 1121.5,-324 1127.76,-304 1126.83,-280.21 1124.57,-262.26"/>
<polygon fill="black" stroke="black" points="1128,-261.57 1123.08,-252.18 1121.08,-262.59 1128,-261.57"/>
</g>
<!-- h5utils -->
<g id="node10" class="node">
<title>h5utils</title>
<g id="a_node10"><a xlink:href="https://github.com/conda-forge/h5utils-feedstock" xlink:title="h5utils">
<ellipse fill="#fde725" stroke="black" cx="1152.5" cy="-162" rx="45" ry="18"/>
<text text-anchor="middle" x="1152.5" y="-158.3" font-family="Times,serif" font-size="14.00">h5utils</text>
</a>
</g>
</g>
<!-- h5py&#45;&gt;h5utils -->
<g id="edge10" class="edge">
<title>h5py&#45;&gt;h5utils</title>
<path fill="none" stroke="black" d="M919.34,-449.08C964.44,-447.64 1048.94,-438.88 1103.5,-396 1160.23,-351.41 1161.34,-322.09 1178.5,-252 1182.3,-236.46 1182.12,-231.59 1178.5,-216 1176.35,-206.72 1172.32,-197.18 1168.08,-188.81"/>
<polygon fill="black" stroke="black" points="1171.11,-187.05 1163.28,-179.92 1164.95,-190.38 1171.11,-187.05"/>
</g>
<!-- pymeep -->
<g id="node11" class="node">
<title>pymeep</title>
<g id="a_node11"><a xlink:href="https://github.com/conda-forge/pymeep-feedstock" xlink:title="pymeep">
<ellipse fill="#fde725" stroke="black" cx="1212.5" cy="-90" rx="40.5" ry="18"/>
<text text-anchor="middle" x="1212.5" y="-86.3" font-family="Times,serif" font-size="14.00">pymeep</text>
</a>
</g>
</g>
<!-- h5py&#45;&gt;pymeep -->
<g id="edge11" class="edge">
<title>h5py&#45;&gt;pymeep</title>
<path fill="none" stroke="black" d="M919.28,-449.86C969.26,-449.75 1069.14,-443.06 1135.5,-396 1225.02,-332.52 1221.45,-180.79 1215.77,-118.45"/>
<polygon fill="black" stroke="black" points="1219.22,-117.83 1214.74,-108.23 1212.26,-118.53 1219.22,-117.83"/>
</g>
<!-- blosc&#45;hdf5&#45;plugin -->
<g id="node12" class="node">
<title>blosc&#45;hdf5&#45;plugin</title>
<g id="a_node12"><a xlink:href="https://github.com/conda-forge/blosc-hdf5-plugin-feedstock" xlink:title="blosc hdf5 plugin">
<ellipse fill="#fde725" stroke="black" cx="322.5" cy="-162" rx="93.68" ry="18"/>
<text text-anchor="middle" x="322.5" y="-158.3" font-family="Times,serif" font-size="14.00">blosc hdf5 plugin</text>
</a>
</g>
</g>
<!-- h5py&#45;&gt;blosc&#45;hdf5&#45;plugin -->
<g id="edge12" class="edge">
<title>h5py&#45;&gt;blosc&#45;hdf5&#45;plugin</title>
<path fill="none" stroke="black" d="M857.69,-449.25C766.33,-449.41 499.02,-445.54 430.5,-396 361.16,-345.87 335.09,-239.95 326.38,-190.07"/>
<polygon fill="black" stroke="black" points="329.81,-189.34 324.73,-180.03 322.9,-190.47 329.81,-189.34"/>
</g>
<!-- isce2 -->
<g id="node13" class="node">
<title>isce2</title>
<g id="a_node13"><a xlink:href="https://github.com/conda-forge/isce2-feedstock" xlink:title="isce2">
<ellipse fill="#fde725" stroke="black" cx="406.5" cy="-90" rx="35.19" ry="18"/>
<text text-anchor="middle" x="406.5" y="-86.3" font-family="Times,serif" font-size="14.00">isce2</text>
</a>
</g>
</g>
<!-- h5py&#45;&gt;isce2 -->
<g id="edge13" class="edge">
<title>h5py&#45;&gt;isce2</title>
<path fill="none" stroke="black" d="M857.84,-449.59C770.16,-450.63 521.04,-448.78 463.5,-396 433.69,-368.66 444.5,-347.45 444.5,-307 444.5,-307 444.5,-307 444.5,-233 444.5,-191.41 429.1,-145.22 417.9,-117.14"/>
<polygon fill="black" stroke="black" points="421.05,-115.58 414.01,-107.66 414.57,-118.24 421.05,-115.58"/>
</g>
<!-- bitshuffle -->
<g id="node14" class="node">
<title>bitshuffle</title>
<g id="a_node14"><a xlink:href="https://github.com/conda-forge/bitshuffle-feedstock" xlink:title="bitshuffle">
<ellipse fill="#fde725" stroke="black" cx="532.5" cy="-378" rx="60" ry="18"/>
<text text-anchor="middle" x="532.5" y="-374.3" font-family="Times,serif" font-size="14.00">bitshuffle</text>
</a>
</g>
</g>
<!-- h5py&#45;&gt;bitshuffle -->
<g id="edge14" class="edge">
<title>h5py&#45;&gt;bitshuffle</title>
<path fill="none" stroke="black" d="M859.6,-443.96C808.45,-434.96 698.66,-415.24 606.5,-396 600.63,-394.77 594.51,-393.45 588.42,-392.1"/>
<polygon fill="black" stroke="black" points="588.75,-388.58 578.23,-389.81 587.22,-395.41 588.75,-388.58"/>
</g>
<!-- triqs -->
<g id="node15" class="node">
<title>triqs</title>
<g id="a_node15"><a xlink:href="https://github.com/conda-forge/triqs-feedstock" xlink:title="triqs">
<ellipse fill="#fde725" stroke="black" cx="607.5" cy="-162" rx="35.19" ry="18"/>
<text text-anchor="middle" x="607.5" y="-158.3" font-family="Times,serif" font-size="14.00">triqs</text>
</a>
</g>
</g>
<!-- h5py&#45;&gt;triqs -->
<g id="edge15" class="edge">
<title>h5py&#45;&gt;triqs</title>
<path fill="none" stroke="black" d="M859.75,-443.35C807.24,-431.41 696.24,-398.35 642.5,-324 613.62,-284.05 607.76,-224.92 607.02,-190.54"/>
<polygon fill="black" stroke="black" points="610.52,-190.27 606.93,-180.3 603.52,-190.33 610.52,-190.27"/>
</g>
<!-- hdf5plugin -->
<g id="node16" class="node">
<title>hdf5plugin</title>
<g id="a_node16"><a xlink:href="https://github.com/conda-forge/hdf5plugin-feedstock" xlink:title="hdf5plugin">
<ellipse fill="#fde725" stroke="black" cx="711.5" cy="-306" rx="60" ry="18"/>
<text text-anchor="middle" x="711.5" y="-302.3" font-family="Times,serif" font-size="14.00">hdf5plugin</text>
</a>
</g>
</g>
<!-- h5py&#45;&gt;hdf5plugin -->
<g id="edge16" class="edge">
<title>h5py&#45;&gt;hdf5plugin</title>
<path fill="none" stroke="black" d="M868.13,-436.5C851.83,-426.22 828.62,-410.96 809.5,-396 782.98,-375.24 754.71,-349.08 735.38,-330.51"/>
<polygon fill="black" stroke="black" points="737.8,-327.98 728.18,-323.55 732.93,-333.02 737.8,-327.98"/>
</g>
<!-- prismatic_split -->
<g id="node17" class="node">
<title>prismatic_split</title>
<g id="a_node17"><a xlink:href="https://github.com/conda-forge/prismatic_split-feedstock" xlink:title="prismatic_split">
<ellipse fill="#fde725" stroke="black" cx="757.5" cy="-234" rx="84" ry="18"/>
<text text-anchor="middle" x="757.5" y="-230.3" font-family="Times,serif" font-size="14.00">prismatic_split</text>
</a>
</g>
</g>
<!-- h5py&#45;&gt;prismatic_split -->
<g id="edge17" class="edge">
<title>h5py&#45;&gt;prismatic_split</title>
<path fill="none" stroke="black" d="M878.35,-432.79C871.8,-422.31 863.11,-408.37 855.5,-396 826.15,-348.32 792.25,-292.45 773,-260.64"/>
<polygon fill="black" stroke="black" points="775.91,-258.7 767.74,-251.96 769.93,-262.32 775.91,-258.7"/>
</g>
<!-- digital_rf -->
<g id="node18" class="node">
<title>digital_rf</title>
<g id="a_node18"><a xlink:href="https://github.com/conda-forge/digital_rf-feedstock" xlink:title="digital_rf">
<ellipse fill="#fde725" stroke="black" cx="819.5" cy="-162" rx="60" ry="18"/>
<text text-anchor="middle" x="819.5" y="-158.3" font-family="Times,serif" font-size="14.00">digital_rf</text>
</a>
</g>
</g>
<!-- h5py&#45;&gt;digital_rf -->
<g id="edge18" class="edge">
<title>h5py&#45;&gt;digital_rf</title>
<path fill="none" stroke="black" d="M887.84,-431.8C885.88,-392.45 878.33,-293.32 850.5,-216 847.11,-206.57 842.03,-196.92 836.95,-188.48"/>
<polygon fill="black" stroke="black" points="839.82,-186.47 831.53,-179.87 833.9,-190.2 839.82,-186.47"/>
</g>
<!-- pp&#45;sketchlib -->
<g id="node19" class="node">
<title>pp&#45;sketchlib</title>
<g id="a_node19"><a xlink:href="https://github.com/conda-forge/pp-sketchlib-feedstock" xlink:title="pp sketchlib">
<ellipse fill="#fde725" stroke="black" cx="867.5" cy="-90" rx="69.59" ry="18"/>
<text text-anchor="middle" x="867.5" y="-86.3" font-family="Times,serif" font-size="14.00">pp sketchlib</text>
</a>
</g>
</g>
<!-- h5py&#45;&gt;pp&#45;sketchlib -->
<g id="edge19" class="edge">
<title>h5py&#45;&gt;pp&#45;sketchlib</title>
<path fill="none" stroke="black" d="M892.25,-432.05C897.79,-405.52 907.5,-352.52 907.5,-307 907.5,-307 907.5,-307 907.5,-233 907.5,-191.48 891.46,-145.61 879.7,-117.54"/>
<polygon fill="black" stroke="black" points="882.77,-115.84 875.59,-108.05 876.35,-118.62 882.77,-115.84"/>
</g>
<!-- openmc&#45;&gt;conda&#45;forge&#45;pinning -->
<g id="edge20" class="edge">
<title>openmc&#45;&gt;conda&#45;forge&#45;pinning</title>
<path fill="none" stroke="black" d="M1067.63,-287.98C1064.94,-277.67 1061.86,-264.19 1060.5,-252 1051.31,-169.83 1044.14,-125.12 1107.5,-72 1146.53,-39.28 1275.45,-26.75 1371.51,-21.96"/>
<polygon fill="black" stroke="black" points="1371.76,-25.45 1381.58,-21.48 1371.43,-18.46 1371.76,-25.45"/>
</g>
<!-- rsgislib&#45;&gt;conda&#45;forge&#45;pinning -->
<g id="edge21" class="edge">
<title>rsgislib&#45;&gt;conda&#45;forge&#45;pinning</title>
<path fill="none" stroke="black" d="M1110.33,-216.13C1101.74,-198.13 1091.24,-168.84 1098.5,-144 1109.15,-107.55 1112.71,-92.77 1144.5,-72 1182.12,-47.42 1293.13,-33.41 1377.97,-26.04"/>
<polygon fill="black" stroke="black" points="1378.51,-29.51 1388.18,-25.17 1377.92,-22.53 1378.51,-29.51"/>
</g>
<!-- h5utils&#45;&gt;conda&#45;forge&#45;pinning -->
<g id="edge22" class="edge">
<title>h5utils&#45;&gt;conda&#45;forge&#45;pinning</title>
<path fill="none" stroke="black" d="M1148.91,-143.75C1145.84,-123.74 1144.41,-91.06 1162.5,-72 1190.99,-42 1291.97,-28.98 1373.17,-23.33"/>
<polygon fill="black" stroke="black" points="1373.72,-26.8 1383.47,-22.64 1373.26,-19.82 1373.72,-26.8"/>
</g>
<!-- h5utils&#45;&gt;pymeep -->
<g id="edge23" class="edge">
<title>h5utils&#45;&gt;pymeep</title>
<path fill="none" stroke="black" d="M1166.42,-144.76C1173.99,-135.93 1183.5,-124.83 1191.92,-115.01"/>
<polygon fill="black" stroke="black" points="1194.81,-117.02 1198.66,-107.15 1189.49,-112.46 1194.81,-117.02"/>
</g>
<!-- pymeep&#45;&gt;conda&#45;forge&#45;pinning -->
<g id="edge24" class="edge">
<title>pymeep&#45;&gt;conda&#45;forge&#45;pinning</title>
<path fill="none" stroke="black" d="M1244.4,-78.79C1251.95,-76.47 1259.99,-74.08 1267.5,-72 1315.9,-58.59 1370.88,-45.13 1413.26,-35.13"/>
<polygon fill="black" stroke="black" points="1414.26,-38.48 1423.2,-32.79 1412.66,-31.67 1414.26,-38.48"/>
</g>
<!-- blosc&#45;hdf5&#45;plugin&#45;&gt;conda&#45;forge&#45;pinning -->
<g id="edge25" class="edge">
<title>blosc&#45;hdf5&#45;plugin&#45;&gt;conda&#45;forge&#45;pinning</title>
<path fill="none" stroke="black" d="M324.81,-143.84C328.64,-122.94 338.42,-88.4 362.5,-72 403.69,-43.95 1095.06,-26.88 1371.04,-21.16"/>
<polygon fill="black" stroke="black" points="1371.16,-24.66 1381.08,-20.95 1371.01,-17.66 1371.16,-24.66"/>
</g>
<!-- isce2&#45;&gt;conda&#45;forge&#45;pinning -->
<g id="edge26" class="edge">
<title>isce2&#45;&gt;conda&#45;forge&#45;pinning</title>
<path fill="none" stroke="black" d="M433.34,-78.16C440.44,-75.72 448.16,-73.43 455.5,-72 627.9,-38.36 1141.69,-25.13 1370.92,-20.8"/>
<polygon fill="black" stroke="black" points="1371.02,-24.3 1380.95,-20.62 1370.89,-17.3 1371.02,-24.3"/>
</g>
<!-- bitshuffle&#45;&gt;conda&#45;forge&#45;pinning -->
<g id="edge27" class="edge">
<title>bitshuffle&#45;&gt;conda&#45;forge&#45;pinning</title>
<path fill="none" stroke="black" d="M521.92,-360C491.47,-308.73 410.65,-154.11 488.5,-72 518.45,-40.41 1116.58,-25.73 1370.77,-20.9"/>
<polygon fill="black" stroke="black" points="1370.84,-24.4 1380.77,-20.71 1370.71,-17.4 1370.84,-24.4"/>
</g>
<!-- triqs&#45;&gt;conda&#45;forge&#45;pinning -->
<g id="edge28" class="edge">
<title>triqs&#45;&gt;conda&#45;forge&#45;pinning</title>
<path fill="none" stroke="black" d="M615.48,-144.35C626.57,-123.31 648.8,-87.91 679.5,-72 739.31,-41 1164.3,-26.64 1371.07,-21.44"/>
<polygon fill="black" stroke="black" points="1371.44,-24.93 1381.35,-21.18 1371.26,-17.93 1371.44,-24.93"/>
</g>
<!-- triqs_cthyb -->
<g id="node20" class="node">
<title>triqs_cthyb</title>
<g id="a_node20"><a xlink:href="https://github.com/conda-forge/triqs_cthyb-feedstock" xlink:title="triqs_cthyb">
<ellipse fill="#fde725" stroke="black" cx="562.5" cy="-90" rx="64.5" ry="18"/>
<text text-anchor="middle" x="562.5" y="-86.3" font-family="Times,serif" font-size="14.00">triqs_cthyb</text>
</a>
</g>
</g>
<!-- triqs&#45;&gt;triqs_cthyb -->
<g id="edge29" class="edge">
<title>triqs&#45;&gt;triqs_cthyb</title>
<path fill="none" stroke="black" d="M597.06,-144.76C591.71,-136.44 585.07,-126.1 579.04,-116.73"/>
<polygon fill="black" stroke="black" points="581.86,-114.64 573.51,-108.12 575.97,-118.43 581.86,-114.64"/>
</g>
<!-- hdf5plugin&#45;&gt;conda&#45;forge&#45;pinning -->
<g id="edge30" class="edge">
<title>hdf5plugin&#45;&gt;conda&#45;forge&#45;pinning</title>
<path fill="none" stroke="black" d="M691.21,-288.63C681.11,-279.14 669.91,-266.26 664.5,-252 658.82,-237.04 660.28,-231.43 664.5,-216 684.08,-144.31 686.33,-111.15 749.5,-72 800.98,-40.1 1178.85,-26.38 1371.39,-21.41"/>
<polygon fill="black" stroke="black" points="1371.63,-24.9 1381.54,-21.15 1371.46,-17.91 1371.63,-24.9"/>
</g>
<!-- prismatic_split&#45;&gt;conda&#45;forge&#45;pinning -->
<g id="edge31" class="edge">
<title>prismatic_split&#45;&gt;conda&#45;forge&#45;pinning</title>
<path fill="none" stroke="black" d="M752.94,-215.81C745.01,-181.51 733.45,-105.04 777.5,-72 823.76,-37.31 1183.43,-24.98 1370.79,-20.88"/>
<polygon fill="black" stroke="black" points="1371.04,-24.38 1380.96,-20.67 1370.89,-17.38 1371.04,-24.38"/>
</g>
<!-- digital_rf&#45;&gt;conda&#45;forge&#45;pinning -->
<g id="edge32" class="edge">
<title>digital_rf&#45;&gt;conda&#45;forge&#45;pinning</title>
<path fill="none" stroke="black" d="M804.95,-144.52C789.47,-124.95 769.59,-92.4 788.5,-72 827.12,-30.33 1183.08,-21.27 1370.01,-19.41"/>
<polygon fill="black" stroke="black" points="1370.19,-22.91 1380.15,-19.31 1370.12,-15.91 1370.19,-22.91"/>
</g>
<!-- pp&#45;sketchlib&#45;&gt;conda&#45;forge&#45;pinning -->
<g id="edge33" class="edge">
<title>pp&#45;sketchlib&#45;&gt;conda&#45;forge&#45;pinning</title>
<path fill="none" stroke="black" d="M918.89,-77.75C929.63,-75.64 940.91,-73.6 951.5,-72 1099.1,-49.77 1271.19,-34.55 1378.76,-26.31"/>
<polygon fill="black" stroke="black" points="1379.26,-29.79 1388.97,-25.54 1378.73,-22.81 1379.26,-29.79"/>
</g>
<!-- triqs_cthyb&#45;&gt;conda&#45;forge&#45;pinning -->
<g id="edge68" class="edge">
<title>triqs_cthyb&#45;&gt;conda&#45;forge&#45;pinning</title>
<path fill="none" stroke="black" d="M609.92,-77.6C620.28,-75.44 631.22,-73.42 641.5,-72 900.78,-36.15 1208.36,-24.52 1370.47,-20.77"/>
<polygon fill="black" stroke="black" points="1371.02,-24.26 1380.94,-20.54 1370.86,-17.26 1371.02,-24.26"/>
</g>
<!-- hdfeos5 -->
<g id="node21" class="node">
<title>hdfeos5</title>
<g id="a_node21"><a xlink:href="https://github.com/conda-forge/hdfeos5-feedstock/pull/27" xlink:title="hdfeos5">
<ellipse fill="#31688e" stroke="black" cx="1407.5" cy="-234" rx="45" ry="18"/>
<text text-anchor="middle" x="1407.5" y="-230.3" font-family="Times,serif" font-size="14.00" fill="white">hdfeos5</text>
</a>
</g>
</g>
<!-- hdfeos5&#45;&gt;conda&#45;forge&#45;pinning -->
<g id="edge34" class="edge">
<title>hdfeos5&#45;&gt;conda&#45;forge&#45;pinning</title>
<path fill="none" stroke="black" d="M1413.59,-215.85C1426.79,-178.68 1458.13,-90.44 1473.98,-45.82"/>
<polygon fill="black" stroke="black" points="1477.33,-46.83 1477.38,-36.23 1470.74,-44.48 1477.33,-46.83"/>
</g>
<!-- ncl -->
<g id="node22" class="node">
<title>ncl</title>
<g id="a_node22"><a xlink:href="https://github.com/conda-forge/ncl-feedstock" xlink:title="ncl">
<ellipse fill="#fde725" stroke="black" cx="1352.5" cy="-162" rx="27" ry="18"/>
<text text-anchor="middle" x="1352.5" y="-158.3" font-family="Times,serif" font-size="14.00">ncl</text>
</a>
</g>
</g>
<!-- hdfeos5&#45;&gt;ncl -->
<g id="edge35" class="edge">
<title>hdfeos5&#45;&gt;ncl</title>
<path fill="none" stroke="black" d="M1394.47,-216.41C1387.49,-207.53 1378.77,-196.44 1371.1,-186.67"/>
<polygon fill="black" stroke="black" points="1373.62,-184.21 1364.69,-178.51 1368.11,-188.54 1373.62,-184.21"/>
</g>
<!-- pynio -->
<g id="node23" class="node">
<title>pynio</title>
<g id="a_node23"><a xlink:href="https://github.com/conda-forge/pynio-feedstock" xlink:title="pynio">
<ellipse fill="#fde725" stroke="black" cx="1382.5" cy="-90" rx="35.19" ry="18"/>
<text text-anchor="middle" x="1382.5" y="-86.3" font-family="Times,serif" font-size="14.00">pynio</text>
</a>
</g>
</g>
<!-- hdfeos5&#45;&gt;pynio -->
<g id="edge36" class="edge">
<title>hdfeos5&#45;&gt;pynio</title>
<path fill="none" stroke="black" d="M1404.48,-215.87C1400.22,-191.67 1392.4,-147.21 1387.32,-118.39"/>
<polygon fill="black" stroke="black" points="1390.71,-117.43 1385.53,-108.19 1383.81,-118.64 1390.71,-117.43"/>
</g>
<!-- ncl&#45;&gt;conda&#45;forge&#45;pinning -->
<g id="edge37" class="edge">
<title>ncl&#45;&gt;conda&#45;forge&#45;pinning</title>
<path fill="none" stroke="black" d="M1343.5,-144.66C1334.31,-125.51 1323.35,-93.66 1338.5,-72 1351.81,-52.96 1372.73,-40.74 1394.58,-32.9"/>
<polygon fill="black" stroke="black" points="1395.91,-36.15 1404.32,-29.7 1393.73,-29.5 1395.91,-36.15"/>
</g>
<!-- pynio&#45;&gt;conda&#45;forge&#45;pinning -->
<g id="edge38" class="edge">
<title>pynio&#45;&gt;conda&#45;forge&#45;pinning</title>
<path fill="none" stroke="black" d="M1402.45,-75.17C1416.23,-65.62 1434.86,-52.71 1450.79,-41.67"/>
<polygon fill="black" stroke="black" points="1453.09,-44.34 1459.31,-35.76 1449.1,-38.58 1453.09,-44.34"/>
</g>
<!-- hyperion&#45;fortran -->
<g id="node24" class="node">
<title>hyperion&#45;fortran</title>
<g id="a_node24"><a xlink:href="https://github.com/conda-forge/hyperion-fortran-feedstock/pull/18" xlink:title="hyperion fortran">
<ellipse fill="#31688e" stroke="black" cx="1483.5" cy="-378" rx="89.08" ry="18"/>
<text text-anchor="middle" x="1483.5" y="-374.3" font-family="Times,serif" font-size="14.00" fill="white">hyperion fortran</text>
</a>
</g>
</g>
<!-- hyperion&#45;fortran&#45;&gt;conda&#45;forge&#45;pinning -->
<g id="edge39" class="edge">
<title>hyperion&#45;fortran&#45;&gt;conda&#45;forge&#45;pinning</title>
<path fill="none" stroke="black" d="M1483.5,-359.95C1483.5,-333.29 1483.5,-280.11 1483.5,-235 1483.5,-235 1483.5,-235 1483.5,-161 1483.5,-121 1483.5,-74.65 1483.5,-46.08"/>
<polygon fill="black" stroke="black" points="1487,-46.05 1483.5,-36.05 1480,-46.05 1487,-46.05"/>
</g>
<!-- libmatio -->
<g id="node25" class="node">
<title>libmatio</title>
<g id="a_node25"><a xlink:href="https://github.com/conda-forge/libmatio-feedstock/pull/28" xlink:title="libmatio">
<ellipse fill="#31688e" stroke="black" cx="1677.5" cy="-378" rx="50.09" ry="18"/>
<text text-anchor="middle" x="1677.5" y="-374.3" font-family="Times,serif" font-size="14.00" fill="white">libmatio</text>
</a>
</g>
</g>
<!-- libmatio&#45;&gt;conda&#45;forge&#45;pinning -->
<g id="edge40" class="edge">
<title>libmatio&#45;&gt;conda&#45;forge&#45;pinning</title>
<path fill="none" stroke="black" d="M1684.68,-360.15C1704.84,-309.96 1756.05,-159.5 1686.5,-72 1671.82,-53.53 1620.02,-40.18 1572.43,-31.5"/>
<polygon fill="black" stroke="black" points="1572.81,-28.02 1562.35,-29.72 1571.59,-34.91 1572.81,-28.02"/>
</g>
<!-- pytrilinos -->
<g id="node26" class="node">
<title>pytrilinos</title>
<g id="a_node26"><a xlink:href="https://github.com/conda-forge/pytrilinos-feedstock" xlink:title="pytrilinos">
<ellipse fill="#fde725" stroke="black" cx="1803.5" cy="-306" rx="60" ry="18"/>
<text text-anchor="middle" x="1803.5" y="-302.3" font-family="Times,serif" font-size="14.00">pytrilinos</text>
</a>
</g>
</g>
<!-- libmatio&#45;&gt;pytrilinos -->
<g id="edge41" class="edge">
<title>libmatio&#45;&gt;pytrilinos</title>
<path fill="none" stroke="black" d="M1703.61,-362.5C1721.98,-352.29 1746.83,-338.48 1767.14,-327.2"/>
<polygon fill="black" stroke="black" points="1769.08,-330.13 1776.12,-322.21 1765.68,-324.01 1769.08,-330.13"/>
</g>
<!-- trilinos -->
<g id="node27" class="node">
<title>trilinos</title>
<g id="a_node27"><a xlink:href="https://github.com/conda-forge/trilinos-feedstock" xlink:title="trilinos">
<ellipse fill="#fde725" stroke="black" cx="1561.5" cy="-234" rx="50.09" ry="18"/>
<text text-anchor="middle" x="1561.5" y="-230.3" font-family="Times,serif" font-size="14.00">trilinos</text>
</a>
</g>
</g>
<!-- libmatio&#45;&gt;trilinos -->
<g id="edge42" class="edge">
<title>libmatio&#45;&gt;trilinos</title>
<path fill="none" stroke="black" d="M1660.43,-360.9C1649.94,-350.7 1636.46,-337.02 1625.5,-324 1608.12,-303.35 1590.36,-278.27 1577.97,-260.01"/>
<polygon fill="black" stroke="black" points="1580.83,-257.98 1572.35,-251.64 1575.02,-261.89 1580.83,-257.98"/>
</g>
<!-- openmeeg -->
<g id="node28" class="node">
<title>openmeeg</title>
<g id="a_node28"><a xlink:href="https://github.com/conda-forge/openmeeg-feedstock" xlink:title="openmeeg">
<ellipse fill="#fde725" stroke="black" cx="1599.5" cy="-162" rx="50.09" ry="18"/>
<text text-anchor="middle" x="1599.5" y="-158.3" font-family="Times,serif" font-size="14.00">openmeeg</text>
</a>
</g>
</g>
<!-- libmatio&#45;&gt;openmeeg -->
<g id="edge43" class="edge">
<title>libmatio&#45;&gt;openmeeg</title>
<path fill="none" stroke="black" d="M1671.71,-360C1661.64,-330.56 1640.07,-268.2 1620.5,-216 1617.25,-207.34 1613.58,-197.94 1610.22,-189.5"/>
<polygon fill="black" stroke="black" points="1613.44,-188.11 1606.47,-180.12 1606.94,-190.71 1613.44,-188.11"/>
</g>
<!-- libvips -->
<g id="node29" class="node">
<title>libvips</title>
<g id="a_node29"><a xlink:href="https://github.com/conda-forge/libvips-feedstock" xlink:title="libvips">
<ellipse fill="#fde725" stroke="black" cx="1632.5" cy="-90" rx="45" ry="18"/>
<text text-anchor="middle" x="1632.5" y="-86.3" font-family="Times,serif" font-size="14.00">libvips</text>
</a>
</g>
</g>
<!-- libmatio&#45;&gt;libvips -->
<g id="edge44" class="edge">
<title>libmatio&#45;&gt;libvips</title>
<path fill="none" stroke="black" d="M1678.25,-359.96C1679.52,-320.94 1680.1,-222.45 1658.5,-144 1655.93,-134.67 1651.72,-125.01 1647.42,-116.53"/>
<polygon fill="black" stroke="black" points="1650.42,-114.72 1642.62,-107.54 1644.25,-118.01 1650.42,-114.72"/>
</g>
<!-- pytrilinos&#45;&gt;conda&#45;forge&#45;pinning -->
<g id="edge45" class="edge">
<title>pytrilinos&#45;&gt;conda&#45;forge&#45;pinning</title>
<path fill="none" stroke="black" d="M1802.7,-287.89C1799.7,-244.65 1785.61,-130.31 1719.5,-72 1698.04,-53.07 1632.52,-39.27 1575.94,-30.51"/>
<polygon fill="black" stroke="black" points="1576.27,-27.02 1565.86,-28.98 1575.23,-33.94 1576.27,-27.02"/>
</g>
<!-- trilinos&#45;&gt;conda&#45;forge&#45;pinning -->
<g id="edge46" class="edge">
<title>trilinos&#45;&gt;conda&#45;forge&#45;pinning</title>
<path fill="none" stroke="black" d="M1554.53,-215.88C1550.36,-205.53 1545.02,-192.05 1540.5,-180 1522.84,-132.9 1503.55,-77.53 1492.55,-45.52"/>
<polygon fill="black" stroke="black" points="1495.84,-44.32 1489.29,-36 1489.22,-46.59 1495.84,-44.32"/>
</g>
<!-- openmeeg&#45;&gt;conda&#45;forge&#45;pinning -->
<g id="edge47" class="edge">
<title>openmeeg&#45;&gt;conda&#45;forge&#45;pinning</title>
<path fill="none" stroke="black" d="M1588.65,-144.36C1576.46,-126.05 1555.72,-96.02 1535.5,-72 1527.2,-62.14 1517.45,-51.89 1508.65,-43.07"/>
<polygon fill="black" stroke="black" points="1511.1,-40.58 1501.53,-36.03 1506.18,-45.55 1511.1,-40.58"/>
</g>
<!-- libvips&#45;&gt;conda&#45;forge&#45;pinning -->
<g id="edge48" class="edge">
<title>libvips&#45;&gt;conda&#45;forge&#45;pinning</title>
<path fill="none" stroke="black" d="M1604.47,-75.83C1582.65,-65.58 1551.96,-51.16 1526.95,-39.41"/>
<polygon fill="black" stroke="black" points="1528.22,-36.14 1517.68,-35.06 1525.24,-42.48 1528.22,-36.14"/>
</g>
<!-- marray -->
<g id="node30" class="node">
<title>marray</title>
<g id="a_node30"><a xlink:href="https://github.com/conda-forge/marray-feedstock/pull/8" xlink:title="marray">
<ellipse fill="#31688e" stroke="black" cx="1812.5" cy="-90" rx="40.5" ry="18"/>
<text text-anchor="middle" x="1812.5" y="-86.3" font-family="Times,serif" font-size="14.00" fill="white">marray</text>
</a>
</g>
</g>
<!-- marray&#45;&gt;conda&#45;forge&#45;pinning -->
<g id="edge49" class="edge">
<title>marray&#45;&gt;conda&#45;forge&#45;pinning</title>
<path fill="none" stroke="black" d="M1780.96,-78.61C1773.33,-76.27 1765.16,-73.92 1757.5,-72 1693.9,-56.07 1620.97,-42.17 1566.35,-32.61"/>
<polygon fill="black" stroke="black" points="1566.82,-29.14 1556.37,-30.87 1565.63,-36.03 1566.82,-29.14"/>
</g>
<!-- octave -->
<g id="node31" class="node">
<title>octave</title>
<g id="a_node31"><a xlink:href="https://github.com/conda-forge/octave-feedstock/pull/39" xlink:title="octave">
<ellipse fill="#31688e" stroke="black" cx="1850.5" cy="-162" rx="40.5" ry="18"/>
<text text-anchor="middle" x="1850.5" y="-158.3" font-family="Times,serif" font-size="14.00" fill="white">octave</text>
</a>
</g>
</g>
<!-- octave&#45;&gt;conda&#45;forge&#45;pinning -->
<g id="edge50" class="edge">
<title>octave&#45;&gt;conda&#45;forge&#45;pinning</title>
<path fill="none" stroke="black" d="M1859.27,-144.38C1868.32,-124.67 1878.87,-91.97 1861.5,-72 1827.71,-33.14 1695.64,-21.93 1597.06,-19.12"/>
<polygon fill="black" stroke="black" points="1597.12,-15.62 1587.03,-18.86 1596.94,-22.62 1597.12,-15.62"/>
</g>
<!-- pyne -->
<g id="node32" class="node">
<title>pyne</title>
<g id="a_node32"><a xlink:href="https://github.com/conda-forge/pyne-feedstock/pull/40" xlink:title="pyne">
<ellipse fill="#31688e" stroke="black" cx="1898.5" cy="-234" rx="30.59" ry="18"/>
<text text-anchor="middle" x="1898.5" y="-230.3" font-family="Times,serif" font-size="14.00" fill="white">pyne</text>
</a>
</g>
</g>
<!-- pyne&#45;&gt;conda&#45;forge&#45;pinning -->
<g id="edge51" class="edge">
<title>pyne&#45;&gt;conda&#45;forge&#45;pinning</title>
<path fill="none" stroke="black" d="M1902.93,-216.11C1910.55,-182.7 1921.63,-108.28 1880.5,-72 1839.49,-35.83 1699.05,-24.1 1596.81,-20.43"/>
<polygon fill="black" stroke="black" points="1596.85,-16.93 1586.73,-20.09 1596.61,-23.93 1596.85,-16.93"/>
</g>
<!-- r&#45;hdf5r -->
<g id="node33" class="node">
<title>r&#45;hdf5r</title>
<g id="a_node33"><a xlink:href="https://github.com/conda-forge/r-hdf5r-feedstock/pull/12" xlink:title="r hdf5r">
<ellipse fill="#31688e" stroke="black" cx="1926.5" cy="-306" rx="45" ry="18"/>
<text text-anchor="middle" x="1926.5" y="-302.3" font-family="Times,serif" font-size="14.00" fill="white">r hdf5r</text>
</a>
</g>
</g>
<!-- r&#45;hdf5r&#45;&gt;conda&#45;forge&#45;pinning -->
<g id="edge52" class="edge">
<title>r&#45;hdf5r&#45;&gt;conda&#45;forge&#45;pinning</title>
<path fill="none" stroke="black" d="M1931.76,-287.84C1944.02,-243.98 1968.94,-127.34 1906.5,-72 1861.99,-32.55 1706.62,-21.74 1597.15,-19.17"/>
<polygon fill="black" stroke="black" points="1597.11,-15.66 1587.03,-18.95 1596.96,-22.66 1597.11,-15.66"/>
</g>
<!-- r&#45;ncdf4 -->
<g id="node34" class="node">
<title>r&#45;ncdf4</title>
<g id="a_node34"><a xlink:href="https://github.com/conda-forge/r-ncdf4-feedstock/pull/20" xlink:title="r ncdf4">
<ellipse fill="#31688e" stroke="black" cx="1999.5" cy="-378" rx="45" ry="18"/>
<text text-anchor="middle" x="1999.5" y="-374.3" font-family="Times,serif" font-size="14.00" fill="white">r ncdf4</text>
</a>
</g>
</g>
<!-- r&#45;ncdf4&#45;&gt;conda&#45;forge&#45;pinning -->
<g id="edge53" class="edge">
<title>r&#45;ncdf4&#45;&gt;conda&#45;forge&#45;pinning</title>
<path fill="none" stroke="black" d="M2002.28,-359.72C2009.77,-306.29 2024.12,-143.01 1933.5,-72 1882.86,-32.32 1713.23,-21.71 1597.33,-19.22"/>
<polygon fill="black" stroke="black" points="1597.06,-15.71 1586.99,-19.02 1596.92,-22.71 1597.06,-15.71"/>
</g>
<!-- shogun -->
<g id="node35" class="node">
<title>shogun</title>
<g id="a_node35"><a xlink:href="https://github.com/conda-forge/shogun-feedstock/pull/20" xlink:title="shogun">
<ellipse fill="#31688e" stroke="black" cx="2064.5" cy="-90" rx="40.5" ry="18"/>
<text text-anchor="middle" x="2064.5" y="-86.3" font-family="Times,serif" font-size="14.00" fill="white">shogun</text>
</a>
</g>
</g>
<!-- shogun&#45;&gt;conda&#45;forge&#45;pinning -->
<g id="edge54" class="edge">
<title>shogun&#45;&gt;conda&#45;forge&#45;pinning</title>
<path fill="none" stroke="black" d="M2033.66,-78.28C2025.85,-75.9 2017.43,-73.61 2009.5,-72 1867.24,-43.15 1700.01,-29.72 1592.95,-23.66"/>
<polygon fill="black" stroke="black" points="1592.96,-20.16 1582.78,-23.1 1592.57,-27.15 1592.96,-20.16"/>
</g>
<!-- vigra -->
<g id="node36" class="node">
<title>vigra</title>
<g id="a_node36"><a xlink:href="https://github.com/conda-forge/vigra-feedstock/pull/54" xlink:title="vigra">
<ellipse fill="#31688e" stroke="black" cx="2108.5" cy="-162" rx="35.19" ry="18"/>
<text text-anchor="middle" x="2108.5" y="-158.3" font-family="Times,serif" font-size="14.00" fill="white">vigra</text>
</a>
</g>
</g>
<!-- vigra&#45;&gt;conda&#45;forge&#45;pinning -->
<g id="edge55" class="edge">
<title>vigra&#45;&gt;conda&#45;forge&#45;pinning</title>
<path fill="none" stroke="black" d="M2115.84,-144.17C2123.26,-124.26 2131.31,-91.37 2113.5,-72 2079.31,-34.81 1768.54,-23.7 1596.63,-20.39"/>
<polygon fill="black" stroke="black" points="1596.59,-16.89 1586.52,-20.21 1596.46,-23.89 1596.59,-16.89"/>
</g>
<!-- yaafe -->
<g id="node37" class="node">
<title>yaafe</title>
<g id="a_node37"><a xlink:href="https://github.com/conda-forge/yaafe-feedstock/pull/9" xlink:title="yaafe">
<ellipse fill="#31688e" stroke="black" cx="2146.5" cy="-234" rx="35.19" ry="18"/>
<text text-anchor="middle" x="2146.5" y="-230.3" font-family="Times,serif" font-size="14.00" fill="white">yaafe</text>
</a>
</g>
</g>
<!-- yaafe&#45;&gt;conda&#45;forge&#45;pinning -->
<g id="edge56" class="edge">
<title>yaafe&#45;&gt;conda&#45;forge&#45;pinning</title>
<path fill="none" stroke="black" d="M2151.71,-216.17C2160.95,-182.53 2175.53,-107.19 2133.5,-72 2093.29,-38.33 1770.81,-25.64 1595.71,-21.19"/>
<polygon fill="black" stroke="black" points="1595.76,-17.69 1585.68,-20.94 1595.59,-24.69 1595.76,-17.69"/>
</g>
<!-- alps -->
<g id="node38" class="node">
<title>alps</title>
<g id="a_node38"><a xlink:href="https://github.com/conda-forge/alps-feedstock/pull/31" xlink:title="alps">
<ellipse fill="#31688e" stroke="black" cx="2188.5" cy="-306" rx="30.59" ry="18"/>
<text text-anchor="middle" x="2188.5" y="-302.3" font-family="Times,serif" font-size="14.00" fill="white">alps</text>
</a>
</g>
</g>
<!-- alps&#45;&gt;conda&#45;forge&#45;pinning -->
<g id="edge57" class="edge">
<title>alps&#45;&gt;conda&#45;forge&#45;pinning</title>
<path fill="none" stroke="black" d="M2192.87,-288.11C2203.04,-244.38 2222.9,-127.07 2159.5,-72 2118.04,-35.99 1777.87,-24.32 1596.47,-20.63"/>
<polygon fill="black" stroke="black" points="1596.42,-17.13 1586.36,-20.43 1596.29,-24.13 1596.42,-17.13"/>
</g>
<!-- spdlib -->
<g id="node39" class="node">
<title>spdlib</title>
<g id="a_node39"><a xlink:href="https://github.com/conda-forge/spdlib-feedstock/pull/15" xlink:title="spdlib">
<ellipse fill="#31688e" stroke="black" cx="2247.5" cy="-378" rx="40.5" ry="18"/>
<text text-anchor="middle" x="2247.5" y="-374.3" font-family="Times,serif" font-size="14.00" fill="white">spdlib</text>
</a>
</g>
</g>
<!-- spdlib&#45;&gt;conda&#45;forge&#45;pinning -->
<g id="edge58" class="edge">
<title>spdlib&#45;&gt;conda&#45;forge&#45;pinning</title>
<path fill="none" stroke="black" d="M2247.5,-359.95C2247.5,-333.29 2247.5,-280.11 2247.5,-235 2247.5,-235 2247.5,-235 2247.5,-161 2247.5,-113.3 2228.75,-95.97 2187.5,-72 2137.65,-43.03 1780.75,-28.02 1595.1,-22.09"/>
<polygon fill="black" stroke="black" points="1595.14,-18.59 1585.03,-21.77 1594.92,-25.59 1595.14,-18.59"/>
</g>
<!-- mpb -->
<g id="node40" class="node">
<title>mpb</title>
<g id="a_node40"><a xlink:href="https://github.com/conda-forge/mpb-feedstock/pull/22" xlink:title="mpb">
<ellipse fill="#31688e" stroke="black" cx="1280.5" cy="-162" rx="27" ry="18"/>
<text text-anchor="middle" x="1280.5" y="-158.3" font-family="Times,serif" font-size="14.00" fill="white">mpb</text>
</a>
</g>
</g>
<!-- mpb&#45;&gt;conda&#45;forge&#45;pinning -->
<g id="edge59" class="edge">
<title>mpb&#45;&gt;conda&#45;forge&#45;pinning</title>
<path fill="none" stroke="black" d="M1285.2,-144.14C1291.59,-124.2 1304.9,-91.28 1327.5,-72 1348.73,-53.89 1376.42,-41.89 1402.58,-33.97"/>
<polygon fill="black" stroke="black" points="1403.86,-37.24 1412.51,-31.13 1401.94,-30.51 1403.86,-37.24"/>
</g>
<!-- mpb&#45;&gt;pymeep -->
<g id="edge60" class="edge">
<title>mpb&#45;&gt;pymeep</title>
<path fill="none" stroke="black" d="M1266.41,-146.5C1257.39,-137.22 1245.5,-124.97 1235.17,-114.34"/>
<polygon fill="black" stroke="black" points="1237.47,-111.68 1227.99,-106.95 1232.45,-116.56 1237.47,-111.68"/>
</g>
<!-- openpmd&#45;api -->
<g id="node41" class="node">
<title>openpmd&#45;api</title>
<g id="a_node41"><a xlink:href="https://github.com/conda-forge/openpmd-api-feedstock" xlink:title="openpmd api">
<ellipse fill="#fde725" stroke="black" cx="2340.5" cy="-90" rx="64.5" ry="18"/>
<text text-anchor="middle" x="2340.5" y="-86.3" font-family="Times,serif" font-size="14.00">openpmd api</text>
</a>
</g>
</g>
<!-- openpmd&#45;api&#45;&gt;conda&#45;forge&#45;pinning -->
<g id="edge61" class="edge">
<title>openpmd&#45;api&#45;&gt;conda&#45;forge&#45;pinning</title>
<path fill="none" stroke="black" d="M2293.07,-77.64C2282.72,-75.48 2271.78,-73.45 2261.5,-72 2025.94,-38.81 1747.22,-26.21 1595.56,-21.57"/>
<polygon fill="black" stroke="black" points="1595.41,-18.07 1585.31,-21.27 1595.2,-25.07 1595.41,-18.07"/>
</g>
<!-- cmor -->
<g id="node42" class="node">
<title>cmor</title>
<g id="a_node42"><a xlink:href="https://github.com/conda-forge/cmor-feedstock/pull/22" xlink:title="cmor">
<ellipse fill="#31688e" stroke="black" cx="2492.5" cy="-90" rx="30.59" ry="18"/>
<text text-anchor="middle" x="2492.5" y="-86.3" font-family="Times,serif" font-size="14.00" fill="white">cmor</text>
</a>
</g>
</g>
<!-- cmor&#45;&gt;conda&#45;forge&#45;pinning -->
<g id="edge62" class="edge">
<title>cmor&#45;&gt;conda&#45;forge&#45;pinning</title>
<path fill="none" stroke="black" d="M2468.62,-78.43C2461.91,-75.89 2454.53,-73.48 2447.5,-72 2288.08,-38.34 1814.83,-25.24 1596.35,-20.88"/>
<polygon fill="black" stroke="black" points="1596.21,-17.38 1586.14,-20.68 1596.07,-24.38 1596.21,-17.38"/>
</g>
<!-- freecad -->
<g id="node43" class="node">
<title>freecad</title>
<g id="a_node43"><a xlink:href="https://github.com/conda-forge/freecad-feedstock/pull/38" xlink:title="freecad">
<ellipse fill="#31688e" stroke="black" cx="2516.5" cy="-162" rx="45" ry="18"/>
<text text-anchor="middle" x="2516.5" y="-158.3" font-family="Times,serif" font-size="14.00" fill="white">freecad</text>
</a>
</g>
</g>
<!-- freecad&#45;&gt;conda&#45;forge&#45;pinning -->
<g id="edge63" class="edge">
<title>freecad&#45;&gt;conda&#45;forge&#45;pinning</title>
<path fill="none" stroke="black" d="M2526.93,-144.16C2537.8,-124.24 2550.89,-91.34 2532.5,-72 2500.63,-38.48 1860.38,-24.8 1596.09,-20.57"/>
<polygon fill="black" stroke="black" points="1596.14,-17.07 1586.09,-20.41 1596.03,-24.07 1596.14,-17.07"/>
</g>
<!-- scilab -->
<g id="node44" class="node">
<title>scilab</title>
<g id="a_node44"><a xlink:href="https://github.com/conda-forge/scilab-feedstock/pull/12" xlink:title="scilab">
<ellipse fill="#31688e" stroke="black" cx="2558.5" cy="-234" rx="40.5" ry="18"/>
<text text-anchor="middle" x="2558.5" y="-230.3" font-family="Times,serif" font-size="14.00" fill="white">scilab</text>
</a>
</g>
</g>
<!-- scilab&#45;&gt;conda&#45;forge&#45;pinning -->
<g id="edge64" class="edge">
<title>scilab&#45;&gt;conda&#45;forge&#45;pinning</title>
<path fill="none" stroke="black" d="M2564.63,-216.05C2575.67,-182.17 2593.99,-106.44 2551.5,-72 2514.86,-42.3 1863.11,-26.35 1596.14,-21.04"/>
<polygon fill="black" stroke="black" points="1596.1,-17.54 1586.03,-20.84 1595.96,-24.54 1596.1,-17.54"/>
</g>
<!-- adios2 -->
<g id="node45" class="node">
<title>adios2</title>
<g id="a_node45"><a xlink:href="https://github.com/conda-forge/adios2-feedstock/pull/11" xlink:title="adios2">
<ellipse fill="#31688e" stroke="black" cx="2376.5" cy="-162" rx="40.5" ry="18"/>
<text text-anchor="middle" x="2376.5" y="-158.3" font-family="Times,serif" font-size="14.00" fill="white">adios2</text>
</a>
</g>
</g>
<!-- adios2&#45;&gt;conda&#45;forge&#45;pinning -->
<g id="edge65" class="edge">
<title>adios2&#45;&gt;conda&#45;forge&#45;pinning</title>
<path fill="none" stroke="black" d="M2392.22,-145.3C2409.77,-125.91 2433.26,-92.92 2413.5,-72 2385.82,-42.7 1837.11,-26.89 1595.77,-21.33"/>
<polygon fill="black" stroke="black" points="1595.64,-17.83 1585.56,-21.1 1595.48,-24.83 1595.64,-17.83"/>
</g>
<!-- adios2&#45;&gt;openpmd&#45;api -->
<g id="edge66" class="edge">
<title>adios2&#45;&gt;openpmd&#45;api</title>
<path fill="none" stroke="black" d="M2367.79,-144.05C2363.65,-136.01 2358.61,-126.2 2353.99,-117.23"/>
<polygon fill="black" stroke="black" points="2357.07,-115.57 2349.38,-108.28 2350.85,-118.77 2357.07,-115.57"/>
</g>
<!-- bonsu -->
<g id="node46" class="node">
<title>bonsu</title>
<g id="a_node46"><a xlink:href="https://github.com/conda-forge/bonsu-feedstock/pull/5" xlink:title="bonsu">
<ellipse fill="#31688e" stroke="black" cx="2614.5" cy="-306" rx="35.19" ry="18"/>
<text text-anchor="middle" x="2614.5" y="-302.3" font-family="Times,serif" font-size="14.00" fill="white">bonsu</text>
</a>
</g>
</g>
<!-- bonsu&#45;&gt;conda&#45;forge&#45;pinning -->
<g id="edge67" class="edge">
<title>bonsu&#45;&gt;conda&#45;forge&#45;pinning</title>
<path fill="none" stroke="black" d="M2618.16,-288.08C2626.52,-244.28 2641.66,-126.8 2577.5,-72 2540.65,-40.53 1868.62,-25.57 1596.5,-20.78"/>
<polygon fill="black" stroke="black" points="1596.26,-17.28 1586.2,-20.6 1596.14,-24.28 1596.26,-17.28"/>
</g>
<!-- dagmc -->
<g id="node47" class="node">
<title>dagmc</title>
<g id="a_node47"><a xlink:href="https://github.com/conda-forge/dagmc-feedstock/pull/1" xlink:title="dagmc">
<ellipse fill="#31688e" stroke="black" cx="2677.5" cy="-378" rx="35.19" ry="18"/>
<text text-anchor="middle" x="2677.5" y="-374.3" font-family="Times,serif" font-size="14.00" fill="white">dagmc</text>
</a>
</g>
</g>
<!-- dagmc&#45;&gt;conda&#45;forge&#45;pinning -->
<g id="edge69" class="edge">
<title>dagmc&#45;&gt;conda&#45;forge&#45;pinning</title>
<path fill="none" stroke="black" d="M2677.5,-359.95C2677.5,-333.29 2677.5,-280.11 2677.5,-235 2677.5,-235 2677.5,-235 2677.5,-161 2677.5,-110.12 2650.89,-94.99 2605.5,-72 2517.26,-27.3 1864.13,-20.16 1596.94,-19.13"/>
<polygon fill="black" stroke="black" points="1596.84,-15.62 1586.82,-19.09 1596.81,-22.62 1596.84,-15.62"/>
</g>
<!-- nccmp -->
<g id="node48" class="node">
<title>nccmp</title>
<g id="a_node48"><a xlink:href="https://github.com/conda-forge/nccmp-feedstock/pull/2" xlink:title="nccmp">
<ellipse fill="#31688e" stroke="black" cx="2740.5" cy="-90" rx="35.19" ry="18"/>
<text text-anchor="middle" x="2740.5" y="-86.3" font-family="Times,serif" font-size="14.00" fill="white">nccmp</text>
</a>
</g>
</g>
<!-- nccmp&#45;&gt;conda&#45;forge&#45;pinning -->
<g id="edge70" class="edge">
<title>nccmp&#45;&gt;conda&#45;forge&#45;pinning</title>
<path fill="none" stroke="black" d="M2713.93,-78.21C2706.76,-75.74 2698.93,-73.42 2691.5,-72 2483.96,-32.32 1855.83,-22.27 1596.92,-19.79"/>
<polygon fill="black" stroke="black" points="1596.78,-16.29 1586.74,-19.7 1596.71,-23.29 1596.78,-16.29"/>
</g>
</g>
</svg>
