<?xml version="1.0" encoding="UTF-8" standalone="no"?>
<!DOCTYPE svg PUBLIC "-//W3C//DTD SVG 1.1//EN"
 "http://www.w3.org/Graphics/SVG/1.1/DTD/svg11.dtd">
<!-- Generated by graphviz version 2.42.3 (20191010.1750)
 -->
<!-- Title: %3 Pages: 1 -->
<svg width="2980pt" height="476pt"
 viewBox="0.00 0.00 2979.50 476.00" xmlns="http://www.w3.org/2000/svg" xmlns:xlink="http://www.w3.org/1999/xlink">
<g id="graph0" class="graph" transform="scale(1 1) rotate(0) translate(4 472)">
<title>%3</title>
<polygon fill="white" stroke="transparent" points="-4,4 -4,-472 2975.5,-472 2975.5,4 -4,4"/>
<!-- caffe -->
<g id="node1" class="node">
<title>caffe</title>
<g id="a_node1"><a xlink:href="https://github.com/conda-forge/caffe-feedstock" xlink:title="caffe">
<ellipse fill="#fde725" stroke="black" cx="1033.5" cy="-378" rx="35.19" ry="18"/>
<text text-anchor="middle" x="1033.5" y="-374.3" font-family="Times,serif" font-size="14.00">caffe</text>
</a>
</g>
</g>
<!-- conda&#45;forge&#45;pinning -->
<g id="node2" class="node">
<title>conda&#45;forge&#45;pinning</title>
<ellipse fill="none" stroke="black" cx="1593.5" cy="-18" rx="103.5" ry="18"/>
<text text-anchor="middle" x="1593.5" y="-14.3" font-family="Times,serif" font-size="14.00">conda&#45;forge&#45;pinning</text>
</g>
<!-- caffe&#45;&gt;conda&#45;forge&#45;pinning -->
<g id="edge1" class="edge">
<title>caffe&#45;&gt;conda&#45;forge&#45;pinning</title>
<path fill="none" stroke="black" d="M1032.51,-359.96C1031.06,-333.31 1028.5,-280.14 1028.5,-235 1028.5,-235 1028.5,-235 1028.5,-161 1028.5,-120.03 1021.23,-98.47 1052.5,-72 1084.62,-44.8 1334.71,-29.77 1483.36,-23.16"/>
<polygon fill="black" stroke="black" points="1483.61,-26.65 1493.45,-22.72 1483.3,-19.66 1483.61,-26.65"/>
</g>
<!-- cyclus -->
<g id="node3" class="node">
<title>cyclus</title>
<g id="a_node3"><a xlink:href="https://github.com/conda-forge/cyclus-feedstock/pull/56" xlink:title="cyclus">
<ellipse fill="#31688e" stroke="black" cx="40.5" cy="-90" rx="40.5" ry="18"/>
<text text-anchor="middle" x="40.5" y="-86.3" font-family="Times,serif" font-size="14.00" fill="white">cyclus</text>
</a>
</g>
</g>
<!-- cyclus&#45;&gt;conda&#45;forge&#45;pinning -->
<g id="edge2" class="edge">
<title>cyclus&#45;&gt;conda&#45;forge&#45;pinning</title>
<path fill="none" stroke="black" d="M70.99,-78.01C78.87,-75.6 87.42,-73.37 95.5,-72 361.34,-27.03 1178.24,-20.14 1479.97,-19.14"/>
<polygon fill="black" stroke="black" points="1480.06,-22.64 1490.05,-19.11 1480.04,-15.64 1480.06,-22.64"/>
</g>
<!-- fenics -->
<g id="node4" class="node">
<title>fenics</title>
<g id="a_node4"><a xlink:href="https://github.com/conda-forge/fenics-feedstock/pull/107" xlink:title="fenics">
<ellipse fill="#31688e" stroke="black" cx="93.5" cy="-162" rx="40.5" ry="18"/>
<text text-anchor="middle" x="93.5" y="-158.3" font-family="Times,serif" font-size="14.00" fill="white">fenics</text>
</a>
</g>
</g>
<!-- fenics&#45;&gt;conda&#45;forge&#45;pinning -->
<g id="edge3" class="edge">
<title>fenics&#45;&gt;conda&#45;forge&#45;pinning</title>
<path fill="none" stroke="black" d="M98.53,-143.98C105.77,-122.89 121.34,-87.8 148.5,-72 205.73,-38.7 1150.27,-24.29 1480.56,-20.25"/>
<polygon fill="black" stroke="black" points="1480.67,-23.75 1490.63,-20.13 1480.59,-16.75 1480.67,-23.75"/>
</g>
<!-- flann -->
<g id="node5" class="node">
<title>flann</title>
<g id="a_node5"><a xlink:href="https://github.com/conda-forge/flann-feedstock/pull/26" xlink:title="flann">
<ellipse fill="#31688e" stroke="black" cx="137.5" cy="-234" rx="35.19" ry="18"/>
<text text-anchor="middle" x="137.5" y="-230.3" font-family="Times,serif" font-size="14.00" fill="white">flann</text>
</a>
</g>
</g>
<!-- flann&#45;&gt;conda&#45;forge&#45;pinning -->
<g id="edge4" class="edge">
<title>flann&#45;&gt;conda&#45;forge&#45;pinning</title>
<path fill="none" stroke="black" d="M140.19,-215.82C146.47,-178.07 163.36,-89.83 186.5,-72 237.4,-32.78 1153.99,-22.23 1479.76,-19.72"/>
<polygon fill="black" stroke="black" points="1480.19,-23.21 1490.17,-19.64 1480.14,-16.21 1480.19,-23.21"/>
</g>
<!-- graph -->
<g id="node6" class="node">
<title>graph</title>
<g id="a_node6"><a xlink:href="https://github.com/conda-forge/graph-feedstock/pull/5" xlink:title="graph">
<ellipse fill="#31688e" stroke="black" cx="200.5" cy="-306" rx="35.19" ry="18"/>
<text text-anchor="middle" x="200.5" y="-302.3" font-family="Times,serif" font-size="14.00" fill="white">graph</text>
</a>
</g>
</g>
<!-- graph&#45;&gt;conda&#45;forge&#45;pinning -->
<g id="edge5" class="edge">
<title>graph&#45;&gt;conda&#45;forge&#45;pinning</title>
<path fill="none" stroke="black" d="M195.4,-288.11C183.5,-244.91 159.28,-129.7 219.5,-72 264.7,-28.69 1158.51,-20.77 1479.75,-19.32"/>
<polygon fill="black" stroke="black" points="1480.02,-22.82 1490.01,-19.28 1479.99,-15.82 1480.02,-22.82"/>
</g>
<!-- h5py -->
<g id="node7" class="node">
<title>h5py</title>
<g id="a_node7"><a xlink:href="https://github.com/conda-forge/h5py-feedstock/pull/72" xlink:title="h5py">
<ellipse fill="#31688e" stroke="black" cx="951.5" cy="-450" rx="30.59" ry="18"/>
<text text-anchor="middle" x="951.5" y="-446.3" font-family="Times,serif" font-size="14.00" fill="white">h5py</text>
</a>
</g>
</g>
<!-- h5py&#45;&gt;caffe -->
<g id="edge6" class="edge">
<title>h5py&#45;&gt;caffe</title>
<path fill="none" stroke="black" d="M968.09,-434.83C979.64,-424.98 995.25,-411.65 1008.33,-400.49"/>
<polygon fill="black" stroke="black" points="1010.75,-403.02 1016.08,-393.87 1006.2,-397.7 1010.75,-403.02"/>
</g>
<!-- h5py&#45;&gt;conda&#45;forge&#45;pinning -->
<g id="edge7" class="edge">
<title>h5py&#45;&gt;conda&#45;forge&#45;pinning</title>
<path fill="none" stroke="black" d="M981.38,-445.76C1011.42,-440.74 1056.23,-428.02 1077.5,-396 1086.35,-382.67 1078.2,-375.98 1077.5,-360 1075.05,-304.28 1066.5,-290.77 1066.5,-235 1066.5,-235 1066.5,-235 1066.5,-161 1066.5,-113.05 1086.41,-96.72 1127.5,-72 1185.13,-37.33 1362.41,-25.34 1480.93,-21.19"/>
<polygon fill="black" stroke="black" points="1481.27,-24.68 1491.14,-20.85 1481.03,-17.68 1481.27,-24.68"/>
</g>
<!-- openmc -->
<g id="node8" class="node">
<title>openmc</title>
<g id="a_node8"><a xlink:href="https://github.com/conda-forge/openmc-feedstock" xlink:title="openmc">
<ellipse fill="#fde725" stroke="black" cx="1135.5" cy="-306" rx="40.5" ry="18"/>
<text text-anchor="middle" x="1135.5" y="-302.3" font-family="Times,serif" font-size="14.00">openmc</text>
</a>
</g>
</g>
<!-- h5py&#45;&gt;openmc -->
<g id="edge8" class="edge">
<title>h5py&#45;&gt;openmc</title>
<path fill="none" stroke="black" d="M981.72,-447.2C1017.45,-443.43 1076.37,-431.81 1110.5,-396 1126.29,-379.43 1132.25,-353.71 1134.42,-334.17"/>
<polygon fill="black" stroke="black" points="1137.93,-334.31 1135.28,-324.05 1130.95,-333.72 1137.93,-334.31"/>
</g>
<!-- rsgislib -->
<g id="node9" class="node">
<title>rsgislib</title>
<g id="a_node9"><a xlink:href="https://github.com/conda-forge/rsgislib-feedstock" xlink:title="rsgislib">
<ellipse fill="#fde725" stroke="black" cx="1182.5" cy="-234" rx="50.09" ry="18"/>
<text text-anchor="middle" x="1182.5" y="-230.3" font-family="Times,serif" font-size="14.00">rsgislib</text>
</a>
</g>
</g>
<!-- h5py&#45;&gt;rsgislib -->
<g id="edge9" class="edge">
<title>h5py&#45;&gt;rsgislib</title>
<path fill="none" stroke="black" d="M981.74,-446.47C1020.4,-441.92 1087.89,-429.48 1134.5,-396 1166.14,-373.27 1172.86,-361.18 1184.5,-324 1190.76,-304 1189.83,-280.21 1187.57,-262.26"/>
<polygon fill="black" stroke="black" points="1191,-261.57 1186.08,-252.18 1184.08,-262.59 1191,-261.57"/>
</g>
<!-- h5utils -->
<g id="node10" class="node">
<title>h5utils</title>
<g id="a_node10"><a xlink:href="https://github.com/conda-forge/h5utils-feedstock" xlink:title="h5utils">
<ellipse fill="#fde725" stroke="black" cx="1215.5" cy="-162" rx="45" ry="18"/>
<text text-anchor="middle" x="1215.5" y="-158.3" font-family="Times,serif" font-size="14.00">h5utils</text>
</a>
</g>
</g>
<!-- h5py&#45;&gt;h5utils -->
<g id="edge10" class="edge">
<title>h5py&#45;&gt;h5utils</title>
<path fill="none" stroke="black" d="M982.34,-449.08C1027.44,-447.64 1111.94,-438.88 1166.5,-396 1223.23,-351.41 1224.34,-322.09 1241.5,-252 1245.3,-236.46 1245.12,-231.59 1241.5,-216 1239.35,-206.72 1235.32,-197.18 1231.08,-188.81"/>
<polygon fill="black" stroke="black" points="1234.11,-187.05 1226.28,-179.92 1227.95,-190.38 1234.11,-187.05"/>
</g>
<!-- pymeep -->
<g id="node11" class="node">
<title>pymeep</title>
<g id="a_node11"><a xlink:href="https://github.com/conda-forge/pymeep-feedstock" xlink:title="pymeep">
<ellipse fill="#fde725" stroke="black" cx="1249.5" cy="-90" rx="40.5" ry="18"/>
<text text-anchor="middle" x="1249.5" y="-86.3" font-family="Times,serif" font-size="14.00">pymeep</text>
</a>
</g>
</g>
<!-- h5py&#45;&gt;pymeep -->
<g id="edge11" class="edge">
<title>h5py&#45;&gt;pymeep</title>
<path fill="none" stroke="black" d="M982.28,-449.86C1032.26,-449.75 1132.14,-443.06 1198.5,-396 1280.93,-337.55 1261.17,-280.71 1269.5,-180 1270.82,-164.05 1272.37,-159.74 1269.5,-144 1267.85,-134.96 1264.74,-125.46 1261.46,-117.04"/>
<polygon fill="black" stroke="black" points="1264.66,-115.63 1257.6,-107.74 1258.2,-118.32 1264.66,-115.63"/>
</g>
<!-- blosc&#45;hdf5&#45;plugin -->
<g id="node12" class="node">
<title>blosc&#45;hdf5&#45;plugin</title>
<g id="a_node12"><a xlink:href="https://github.com/conda-forge/blosc-hdf5-plugin-feedstock" xlink:title="blosc hdf5 plugin">
<ellipse fill="#fde725" stroke="black" cx="322.5" cy="-90" rx="93.68" ry="18"/>
<text text-anchor="middle" x="322.5" y="-86.3" font-family="Times,serif" font-size="14.00">blosc hdf5 plugin</text>
</a>
</g>
</g>
<!-- h5py&#45;&gt;blosc&#45;hdf5&#45;plugin -->
<g id="edge12" class="edge">
<title>h5py&#45;&gt;blosc&#45;hdf5&#45;plugin</title>
<path fill="none" stroke="black" d="M921.07,-448.22C828.77,-445.45 553.38,-434.11 473.5,-396 422.73,-371.78 383.5,-363.26 383.5,-307 383.5,-307 383.5,-307 383.5,-233 383.5,-189.37 358.89,-143.87 340.93,-116.48"/>
<polygon fill="black" stroke="black" points="343.64,-114.24 335.14,-107.92 337.84,-118.16 343.64,-114.24"/>
</g>
<!-- isce2 -->
<g id="node13" class="node">
<title>isce2</title>
<g id="a_node13"><a xlink:href="https://github.com/conda-forge/isce2-feedstock" xlink:title="isce2">
<ellipse fill="#fde725" stroke="black" cx="469.5" cy="-90" rx="35.19" ry="18"/>
<text text-anchor="middle" x="469.5" y="-86.3" font-family="Times,serif" font-size="14.00">isce2</text>
</a>
</g>
</g>
<!-- h5py&#45;&gt;isce2 -->
<g id="edge13" class="edge">
<title>h5py&#45;&gt;isce2</title>
<path fill="none" stroke="black" d="M920.87,-449.63C830.11,-450.85 564.95,-449.65 501.5,-396 470.03,-369.39 475.5,-348.21 475.5,-307 475.5,-307 475.5,-307 475.5,-233 475.5,-192.96 473.09,-146.63 471.32,-118.07"/>
<polygon fill="black" stroke="black" points="474.81,-117.8 470.69,-108.04 467.83,-118.24 474.81,-117.8"/>
</g>
<!-- bitshuffle -->
<g id="node14" class="node">
<title>bitshuffle</title>
<g id="a_node14"><a xlink:href="https://github.com/conda-forge/bitshuffle-feedstock" xlink:title="bitshuffle">
<ellipse fill="#fde725" stroke="black" cx="570.5" cy="-378" rx="60" ry="18"/>
<text text-anchor="middle" x="570.5" y="-374.3" font-family="Times,serif" font-size="14.00">bitshuffle</text>
</a>
</g>
</g>
<!-- h5py&#45;&gt;bitshuffle -->
<g id="edge14" class="edge">
<title>h5py&#45;&gt;bitshuffle</title>
<path fill="none" stroke="black" d="M922.58,-443.98C869.7,-434.75 753.91,-414.38 656.5,-396 647.6,-394.32 638.2,-392.51 629,-390.71"/>
<polygon fill="black" stroke="black" points="629.62,-387.26 619.14,-388.77 628.27,-394.13 629.62,-387.26"/>
</g>
<!-- triqs -->
<g id="node15" class="node">
<title>triqs</title>
<g id="a_node15"><a xlink:href="https://github.com/conda-forge/triqs-feedstock" xlink:title="triqs">
<ellipse fill="#fde725" stroke="black" cx="670.5" cy="-162" rx="35.19" ry="18"/>
<text text-anchor="middle" x="670.5" y="-158.3" font-family="Times,serif" font-size="14.00">triqs</text>
</a>
</g>
</g>
<!-- h5py&#45;&gt;triqs -->
<g id="edge15" class="edge">
<title>h5py&#45;&gt;triqs</title>
<path fill="none" stroke="black" d="M923.48,-442.8C872.81,-430.05 766.32,-395.81 713.5,-324 683.95,-283.83 674.7,-224.78 671.81,-190.47"/>
<polygon fill="black" stroke="black" points="675.28,-189.98 671.08,-180.26 668.3,-190.48 675.28,-189.98"/>
</g>
<!-- hdf5plugin -->
<g id="node16" class="node">
<title>hdf5plugin</title>
<g id="a_node16"><a xlink:href="https://github.com/conda-forge/hdf5plugin-feedstock" xlink:title="hdf5plugin">
<ellipse fill="#fde725" stroke="black" cx="782.5" cy="-306" rx="60" ry="18"/>
<text text-anchor="middle" x="782.5" y="-302.3" font-family="Times,serif" font-size="14.00">hdf5plugin</text>
</a>
</g>
</g>
<!-- h5py&#45;&gt;hdf5plugin -->
<g id="edge16" class="edge">
<title>h5py&#45;&gt;hdf5plugin</title>
<path fill="none" stroke="black" d="M929.75,-437.01C912.44,-427.02 887.96,-411.91 868.5,-396 844.19,-376.13 819.62,-349.94 803,-331.13"/>
<polygon fill="black" stroke="black" points="805.6,-328.79 796.38,-323.56 800.32,-333.39 805.6,-328.79"/>
</g>
<!-- prismatic_split -->
<g id="node17" class="node">
<title>prismatic_split</title>
<g id="a_node17"><a xlink:href="https://github.com/conda-forge/prismatic_split-feedstock" xlink:title="prismatic_split">
<ellipse fill="#fde725" stroke="black" cx="820.5" cy="-234" rx="84" ry="18"/>
<text text-anchor="middle" x="820.5" y="-230.3" font-family="Times,serif" font-size="14.00">prismatic_split</text>
</a>
</g>
</g>
<!-- h5py&#45;&gt;prismatic_split -->
<g id="edge17" class="edge">
<title>h5py&#45;&gt;prismatic_split</title>
<path fill="none" stroke="black" d="M941.35,-432.79C934.8,-422.31 926.11,-408.37 918.5,-396 889.15,-348.32 855.25,-292.45 836,-260.64"/>
<polygon fill="black" stroke="black" points="838.91,-258.7 830.74,-251.96 832.93,-262.32 838.91,-258.7"/>
</g>
<!-- digital_rf -->
<g id="node18" class="node">
<title>digital_rf</title>
<g id="a_node18"><a xlink:href="https://github.com/conda-forge/digital_rf-feedstock" xlink:title="digital_rf">
<ellipse fill="#fde725" stroke="black" cx="882.5" cy="-162" rx="60" ry="18"/>
<text text-anchor="middle" x="882.5" y="-158.3" font-family="Times,serif" font-size="14.00">digital_rf</text>
</a>
</g>
</g>
<!-- h5py&#45;&gt;digital_rf -->
<g id="edge18" class="edge">
<title>h5py&#45;&gt;digital_rf</title>
<path fill="none" stroke="black" d="M950.84,-431.8C948.88,-392.45 941.33,-293.32 913.5,-216 910.11,-206.57 905.03,-196.92 899.95,-188.48"/>
<polygon fill="black" stroke="black" points="902.82,-186.47 894.53,-179.87 896.9,-190.2 902.82,-186.47"/>
</g>
<!-- pp&#45;sketchlib -->
<g id="node19" class="node">
<title>pp&#45;sketchlib</title>
<g id="a_node19"><a xlink:href="https://github.com/conda-forge/pp-sketchlib-feedstock" xlink:title="pp sketchlib">
<ellipse fill="#fde725" stroke="black" cx="930.5" cy="-90" rx="69.59" ry="18"/>
<text text-anchor="middle" x="930.5" y="-86.3" font-family="Times,serif" font-size="14.00">pp sketchlib</text>
</a>
</g>
</g>
<!-- h5py&#45;&gt;pp&#45;sketchlib -->
<g id="edge19" class="edge">
<title>h5py&#45;&gt;pp&#45;sketchlib</title>
<path fill="none" stroke="black" d="M955.25,-432.05C960.79,-405.52 970.5,-352.52 970.5,-307 970.5,-307 970.5,-307 970.5,-233 970.5,-191.48 954.46,-145.61 942.7,-117.54"/>
<polygon fill="black" stroke="black" points="945.77,-115.84 938.59,-108.05 939.35,-118.62 945.77,-115.84"/>
</g>
<!-- openmc&#45;&gt;conda&#45;forge&#45;pinning -->
<g id="edge20" class="edge">
<title>openmc&#45;&gt;conda&#45;forge&#45;pinning</title>
<path fill="none" stroke="black" d="M1130.39,-287.9C1118.5,-244.18 1094.48,-127.85 1156.5,-72 1202.67,-30.42 1366.47,-20.28 1479.86,-18.41"/>
<polygon fill="black" stroke="black" points="1480.04,-21.91 1489.98,-18.27 1479.93,-14.91 1480.04,-21.91"/>
</g>
<!-- rsgislib&#45;&gt;conda&#45;forge&#45;pinning -->
<g id="edge21" class="edge">
<title>rsgislib&#45;&gt;conda&#45;forge&#45;pinning</title>
<path fill="none" stroke="black" d="M1173.78,-215.83C1169.13,-205.69 1163.88,-192.44 1161.5,-180 1152.24,-131.5 1149.02,-102.93 1187.5,-72 1231.33,-36.77 1376.09,-24.84 1480.26,-20.87"/>
<polygon fill="black" stroke="black" points="1480.66,-24.36 1490.53,-20.5 1480.41,-17.36 1480.66,-24.36"/>
</g>
<!-- h5utils&#45;&gt;conda&#45;forge&#45;pinning -->
<g id="edge22" class="edge">
<title>h5utils&#45;&gt;conda&#45;forge&#45;pinning</title>
<path fill="none" stroke="black" d="M1205.35,-144.42C1194.75,-124.75 1181.93,-92.09 1199.5,-72 1218.34,-50.46 1378.08,-34.59 1488.29,-26.08"/>
<polygon fill="black" stroke="black" points="1488.75,-29.55 1498.46,-25.3 1488.22,-22.57 1488.75,-29.55"/>
</g>
<!-- h5utils&#45;&gt;pymeep -->
<g id="edge23" class="edge">
<title>h5utils&#45;&gt;pymeep</title>
<path fill="none" stroke="black" d="M1223.73,-144.05C1227.7,-135.89 1232.54,-125.91 1236.96,-116.82"/>
<polygon fill="black" stroke="black" points="1240.12,-118.31 1241.35,-107.79 1233.83,-115.25 1240.12,-118.31"/>
</g>
<!-- pymeep&#45;&gt;conda&#45;forge&#45;pinning -->
<g id="edge24" class="edge">
<title>pymeep&#45;&gt;conda&#45;forge&#45;pinning</title>
<path fill="none" stroke="black" d="M1281.02,-78.56C1288.66,-76.22 1296.83,-73.88 1304.5,-72 1372.15,-55.4 1449.86,-41.43 1507.64,-32.01"/>
<polygon fill="black" stroke="black" points="1508.52,-35.41 1517.83,-30.36 1507.4,-28.5 1508.52,-35.41"/>
</g>
<!-- blosc&#45;hdf5&#45;plugin&#45;&gt;conda&#45;forge&#45;pinning -->
<g id="edge25" class="edge">
<title>blosc&#45;hdf5&#45;plugin&#45;&gt;conda&#45;forge&#45;pinning</title>
<path fill="none" stroke="black" d="M387.73,-77.04C400.23,-75.09 413.24,-73.29 425.5,-72 810.84,-31.6 1270.87,-21.98 1480,-19.7"/>
<polygon fill="black" stroke="black" points="1480.11,-23.2 1490.07,-19.6 1480.04,-16.2 1480.11,-23.2"/>
</g>
<!-- isce2&#45;&gt;conda&#45;forge&#45;pinning -->
<g id="edge26" class="edge">
<title>isce2&#45;&gt;conda&#45;forge&#45;pinning</title>
<path fill="none" stroke="black" d="M496.08,-78.24C503.25,-75.77 511.07,-73.44 518.5,-72 700.02,-36.79 1243.35,-24.34 1480.6,-20.51"/>
<polygon fill="black" stroke="black" points="1480.68,-24.01 1490.63,-20.35 1480.57,-17.01 1480.68,-24.01"/>
</g>
<!-- bitshuffle&#45;&gt;conda&#45;forge&#45;pinning -->
<g id="edge27" class="edge">
<title>bitshuffle&#45;&gt;conda&#45;forge&#45;pinning</title>
<path fill="none" stroke="black" d="M562.81,-359.91C551.71,-333.62 532.5,-281.45 532.5,-235 532.5,-235 532.5,-235 532.5,-161 532.5,-120.55 520.71,-98.23 551.5,-72 586.41,-42.26 1218.35,-26.4 1480.74,-21.08"/>
<polygon fill="black" stroke="black" points="1481.13,-24.57 1491.06,-20.87 1480.99,-17.57 1481.13,-24.57"/>
</g>
<!-- triqs&#45;&gt;conda&#45;forge&#45;pinning -->
<g id="edge28" class="edge">
<title>triqs&#45;&gt;conda&#45;forge&#45;pinning</title>
<path fill="none" stroke="black" d="M678.47,-144.34C689.55,-123.28 711.77,-87.86 742.5,-72 806.48,-38.99 1264.64,-25.54 1480.96,-20.99"/>
<polygon fill="black" stroke="black" points="1481.15,-24.49 1491.07,-20.78 1481,-17.49 1481.15,-24.49"/>
</g>
<!-- triqs_cthyb -->
<g id="node20" class="node">
<title>triqs_cthyb</title>
<g id="a_node20"><a xlink:href="https://github.com/conda-forge/triqs_cthyb-feedstock" xlink:title="triqs_cthyb">
<ellipse fill="#fde725" stroke="black" cx="625.5" cy="-90" rx="64.5" ry="18"/>
<text text-anchor="middle" x="625.5" y="-86.3" font-family="Times,serif" font-size="14.00">triqs_cthyb</text>
</a>
</g>
</g>
<!-- triqs&#45;&gt;triqs_cthyb -->
<g id="edge29" class="edge">
<title>triqs&#45;&gt;triqs_cthyb</title>
<path fill="none" stroke="black" d="M660.06,-144.76C654.71,-136.44 648.07,-126.1 642.04,-116.73"/>
<polygon fill="black" stroke="black" points="644.86,-114.64 636.51,-108.12 638.97,-118.43 644.86,-114.64"/>
</g>
<!-- hdf5plugin&#45;&gt;conda&#45;forge&#45;pinning -->
<g id="edge30" class="edge">
<title>hdf5plugin&#45;&gt;conda&#45;forge&#45;pinning</title>
<path fill="none" stroke="black" d="M758.84,-289.33C747.04,-280.04 733.93,-267.13 727.5,-252 721.24,-237.28 723.28,-231.43 727.5,-216 747.08,-144.31 749.25,-111.01 812.5,-72 867.92,-37.82 1278.03,-25.11 1480.74,-20.88"/>
<polygon fill="black" stroke="black" points="1480.9,-24.38 1490.82,-20.68 1480.75,-17.38 1480.9,-24.38"/>
</g>
<!-- prismatic_split&#45;&gt;conda&#45;forge&#45;pinning -->
<g id="edge31" class="edge">
<title>prismatic_split&#45;&gt;conda&#45;forge&#45;pinning</title>
<path fill="none" stroke="black" d="M815.93,-215.79C807.98,-181.46 796.37,-104.94 840.5,-72 890.5,-34.68 1282.81,-23.56 1480.47,-20.31"/>
<polygon fill="black" stroke="black" points="1480.66,-23.8 1490.61,-20.14 1480.55,-16.8 1480.66,-23.8"/>
</g>
<!-- digital_rf&#45;&gt;conda&#45;forge&#45;pinning -->
<g id="edge32" class="edge">
<title>digital_rf&#45;&gt;conda&#45;forge&#45;pinning</title>
<path fill="none" stroke="black" d="M867.94,-144.51C852.44,-124.92 832.55,-92.36 851.5,-72 893.35,-27.06 1282.57,-19.64 1479.91,-18.8"/>
<polygon fill="black" stroke="black" points="1480.04,-22.3 1490.03,-18.76 1480.01,-15.3 1480.04,-22.3"/>
</g>
<!-- pp&#45;sketchlib&#45;&gt;conda&#45;forge&#45;pinning -->
<g id="edge33" class="edge">
<title>pp&#45;sketchlib&#45;&gt;conda&#45;forge&#45;pinning</title>
<path fill="none" stroke="black" d="M981.88,-77.68C992.62,-75.58 1003.9,-73.55 1014.5,-72 1178.63,-47.95 1370.63,-32.94 1487.09,-25.27"/>
<polygon fill="black" stroke="black" points="1487.33,-28.76 1497.08,-24.62 1486.87,-21.78 1487.33,-28.76"/>
</g>
<!-- triqs_cthyb&#45;&gt;conda&#45;forge&#45;pinning -->
<g id="edge69" class="edge">
<title>triqs_cthyb&#45;&gt;conda&#45;forge&#45;pinning</title>
<path fill="none" stroke="black" d="M672.5,-77.66C682.98,-75.47 694.07,-73.42 704.5,-72 981.67,-34.14 1311.11,-23.32 1480.5,-20.23"/>
<polygon fill="black" stroke="black" points="1480.74,-23.73 1490.67,-20.05 1480.61,-16.73 1480.74,-23.73"/>
</g>
<!-- hdfeos5 -->
<g id="node21" class="node">
<title>hdfeos5</title>
<g id="a_node21"><a xlink:href="https://github.com/conda-forge/hdfeos5-feedstock/pull/27" xlink:title="hdfeos5">
<ellipse fill="#31688e" stroke="black" cx="1453.5" cy="-234" rx="45" ry="18"/>
<text text-anchor="middle" x="1453.5" y="-230.3" font-family="Times,serif" font-size="14.00" fill="white">hdfeos5</text>
</a>
</g>
</g>
<!-- hdfeos5&#45;&gt;conda&#45;forge&#45;pinning -->
<g id="edge34" class="edge">
<title>hdfeos5&#45;&gt;conda&#45;forge&#45;pinning</title>
<path fill="none" stroke="black" d="M1439.7,-216.72C1415.11,-185.65 1369.34,-116.99 1403.5,-72 1416.76,-54.54 1464.3,-41.28 1508.51,-32.39"/>
<polygon fill="black" stroke="black" points="1509.32,-35.8 1518.46,-30.45 1507.98,-28.93 1509.32,-35.8"/>
</g>
<!-- ncl -->
<g id="node22" class="node">
<title>ncl</title>
<g id="a_node22"><a xlink:href="https://github.com/conda-forge/ncl-feedstock" xlink:title="ncl">
<ellipse fill="#fde725" stroke="black" cx="1453.5" cy="-162" rx="27" ry="18"/>
<text text-anchor="middle" x="1453.5" y="-158.3" font-family="Times,serif" font-size="14.00">ncl</text>
</a>
</g>
</g>
<!-- hdfeos5&#45;&gt;ncl -->
<g id="edge35" class="edge">
<title>hdfeos5&#45;&gt;ncl</title>
<path fill="none" stroke="black" d="M1453.5,-215.7C1453.5,-207.98 1453.5,-198.71 1453.5,-190.11"/>
<polygon fill="black" stroke="black" points="1457,-190.1 1453.5,-180.1 1450,-190.1 1457,-190.1"/>
</g>
<!-- pynio -->
<g id="node23" class="node">
<title>pynio</title>
<g id="a_node23"><a xlink:href="https://github.com/conda-forge/pynio-feedstock" xlink:title="pynio">
<ellipse fill="#fde725" stroke="black" cx="1457.5" cy="-90" rx="35.19" ry="18"/>
<text text-anchor="middle" x="1457.5" y="-86.3" font-family="Times,serif" font-size="14.00">pynio</text>
</a>
</g>
</g>
<!-- hdfeos5&#45;&gt;pynio -->
<g id="edge36" class="edge">
<title>hdfeos5&#45;&gt;pynio</title>
<path fill="none" stroke="black" d="M1468.36,-216.71C1476.32,-206.86 1485.32,-193.61 1489.5,-180 1494.2,-164.71 1493.79,-159.41 1489.5,-144 1486.72,-134.01 1481.49,-124.02 1476.05,-115.45"/>
<polygon fill="black" stroke="black" points="1478.9,-113.42 1470.4,-107.1 1473.1,-117.34 1478.9,-113.42"/>
</g>
<!-- ncl&#45;&gt;conda&#45;forge&#45;pinning -->
<g id="edge37" class="edge">
<title>ncl&#45;&gt;conda&#45;forge&#45;pinning</title>
<path fill="none" stroke="black" d="M1438.38,-146.72C1420.67,-128.24 1395.84,-95.6 1413.5,-72 1425.87,-55.46 1470.17,-42.3 1511.72,-33.23"/>
<polygon fill="black" stroke="black" points="1512.58,-36.62 1521.64,-31.13 1511.13,-29.77 1512.58,-36.62"/>
</g>
<!-- pynio&#45;&gt;conda&#45;forge&#45;pinning -->
<g id="edge38" class="edge">
<title>pynio&#45;&gt;conda&#45;forge&#45;pinning</title>
<path fill="none" stroke="black" d="M1481.5,-76.65C1501.29,-66.46 1529.8,-51.79 1553.1,-39.79"/>
<polygon fill="black" stroke="black" points="1554.78,-42.87 1562.07,-35.18 1551.58,-36.64 1554.78,-42.87"/>
</g>
<!-- hyperion&#45;fortran -->
<g id="node24" class="node">
<title>hyperion&#45;fortran</title>
<g id="a_node24"><a xlink:href="https://github.com/conda-forge/hyperion-fortran-feedstock/pull/18" xlink:title="hyperion fortran">
<ellipse fill="#31688e" stroke="black" cx="1546.5" cy="-378" rx="89.08" ry="18"/>
<text text-anchor="middle" x="1546.5" y="-374.3" font-family="Times,serif" font-size="14.00" fill="white">hyperion fortran</text>
</a>
</g>
</g>
<!-- hyperion&#45;fortran&#45;&gt;conda&#45;forge&#45;pinning -->
<g id="edge39" class="edge">
<title>hyperion&#45;fortran&#45;&gt;conda&#45;forge&#45;pinning</title>
<path fill="none" stroke="black" d="M1541.45,-359.91C1528.28,-312.1 1496.76,-173.83 1539.5,-72 1544.22,-60.76 1552.61,-50.7 1561.4,-42.45"/>
<polygon fill="black" stroke="black" points="1563.92,-44.89 1569.14,-35.67 1559.31,-39.63 1563.92,-44.89"/>
</g>
<!-- libcdms -->
<g id="node25" class="node">
<title>libcdms</title>
<g id="a_node25"><a xlink:href="https://github.com/conda-forge/libcdms-feedstock/pull/32" xlink:title="libcdms">
<ellipse fill="#31688e" stroke="black" cx="1593.5" cy="-90" rx="45" ry="18"/>
<text text-anchor="middle" x="1593.5" y="-86.3" font-family="Times,serif" font-size="14.00" fill="white">libcdms</text>
</a>
</g>
</g>
<!-- libcdms&#45;&gt;conda&#45;forge&#45;pinning -->
<g id="edge40" class="edge">
<title>libcdms&#45;&gt;conda&#45;forge&#45;pinning</title>
<path fill="none" stroke="black" d="M1593.5,-71.7C1593.5,-63.98 1593.5,-54.71 1593.5,-46.11"/>
<polygon fill="black" stroke="black" points="1597,-46.1 1593.5,-36.1 1590,-46.1 1597,-46.1"/>
</g>
<!-- libmatio -->
<g id="node26" class="node">
<title>libmatio</title>
<g id="a_node26"><a xlink:href="https://github.com/conda-forge/libmatio-feedstock/pull/28" xlink:title="libmatio">
<ellipse fill="#31688e" stroke="black" cx="1781.5" cy="-378" rx="50.09" ry="18"/>
<text text-anchor="middle" x="1781.5" y="-374.3" font-family="Times,serif" font-size="14.00" fill="white">libmatio</text>
</a>
</g>
</g>
<!-- libmatio&#45;&gt;conda&#45;forge&#45;pinning -->
<g id="edge41" class="edge">
<title>libmatio&#45;&gt;conda&#45;forge&#45;pinning</title>
<path fill="none" stroke="black" d="M1792.16,-360.23C1822.43,-310.25 1902.32,-160.33 1831.5,-72 1813.83,-49.96 1749.87,-36.49 1692.71,-28.65"/>
<polygon fill="black" stroke="black" points="1692.87,-25.14 1682.5,-27.3 1691.95,-32.08 1692.87,-25.14"/>
</g>
<!-- pytrilinos -->
<g id="node27" class="node">
<title>pytrilinos</title>
<g id="a_node27"><a xlink:href="https://github.com/conda-forge/pytrilinos-feedstock" xlink:title="pytrilinos">
<ellipse fill="#fde725" stroke="black" cx="1907.5" cy="-306" rx="60" ry="18"/>
<text text-anchor="middle" x="1907.5" y="-302.3" font-family="Times,serif" font-size="14.00">pytrilinos</text>
</a>
</g>
</g>
<!-- libmatio&#45;&gt;pytrilinos -->
<g id="edge42" class="edge">
<title>libmatio&#45;&gt;pytrilinos</title>
<path fill="none" stroke="black" d="M1807.61,-362.5C1825.98,-352.29 1850.83,-338.48 1871.14,-327.2"/>
<polygon fill="black" stroke="black" points="1873.08,-330.13 1880.12,-322.21 1869.68,-324.01 1873.08,-330.13"/>
</g>
<!-- trilinos -->
<g id="node28" class="node">
<title>trilinos</title>
<g id="a_node28"><a xlink:href="https://github.com/conda-forge/trilinos-feedstock" xlink:title="trilinos">
<ellipse fill="#fde725" stroke="black" cx="1635.5" cy="-234" rx="50.09" ry="18"/>
<text text-anchor="middle" x="1635.5" y="-230.3" font-family="Times,serif" font-size="14.00">trilinos</text>
</a>
</g>
</g>
<!-- libmatio&#45;&gt;trilinos -->
<g id="edge43" class="edge">
<title>libmatio&#45;&gt;trilinos</title>
<path fill="none" stroke="black" d="M1762.04,-361.28C1749.59,-350.99 1733.24,-337.08 1719.5,-324 1697.35,-302.91 1673.55,-277.4 1656.96,-259.1"/>
<polygon fill="black" stroke="black" points="1659.17,-256.33 1649.87,-251.25 1653.97,-261.02 1659.17,-256.33"/>
</g>
<!-- openmeeg -->
<g id="node29" class="node">
<title>openmeeg</title>
<g id="a_node29"><a xlink:href="https://github.com/conda-forge/openmeeg-feedstock" xlink:title="openmeeg">
<ellipse fill="#fde725" stroke="black" cx="1703.5" cy="-162" rx="50.09" ry="18"/>
<text text-anchor="middle" x="1703.5" y="-158.3" font-family="Times,serif" font-size="14.00">openmeeg</text>
</a>
</g>
</g>
<!-- libmatio&#45;&gt;openmeeg -->
<g id="edge44" class="edge">
<title>libmatio&#45;&gt;openmeeg</title>
<path fill="none" stroke="black" d="M1775.25,-359.85C1761.67,-322.58 1729.38,-234 1713.16,-189.49"/>
<polygon fill="black" stroke="black" points="1716.39,-188.13 1709.67,-179.94 1709.81,-190.53 1716.39,-188.13"/>
</g>
<!-- libvips -->
<g id="node30" class="node">
<title>libvips</title>
<g id="a_node30"><a xlink:href="https://github.com/conda-forge/libvips-feedstock" xlink:title="libvips">
<ellipse fill="#fde725" stroke="black" cx="1777.5" cy="-90" rx="45" ry="18"/>
<text text-anchor="middle" x="1777.5" y="-86.3" font-family="Times,serif" font-size="14.00">libvips</text>
</a>
</g>
</g>
<!-- libmatio&#45;&gt;libvips -->
<g id="edge45" class="edge">
<title>libmatio&#45;&gt;libvips</title>
<path fill="none" stroke="black" d="M1781.26,-359.97C1780.59,-312.29 1778.71,-177.18 1777.89,-118.63"/>
<polygon fill="black" stroke="black" points="1781.38,-118.26 1777.74,-108.31 1774.38,-118.35 1781.38,-118.26"/>
</g>
<!-- pytrilinos&#45;&gt;conda&#45;forge&#45;pinning -->
<g id="edge46" class="edge">
<title>pytrilinos&#45;&gt;conda&#45;forge&#45;pinning</title>
<path fill="none" stroke="black" d="M1902.46,-287.77C1895.62,-263.8 1883.46,-218.96 1876.5,-180 1868,-132.46 1897.21,-107.53 1864.5,-72 1841.95,-47.51 1764.12,-34 1697.62,-26.75"/>
<polygon fill="black" stroke="black" points="1697.79,-23.25 1687.48,-25.69 1697.06,-30.21 1697.79,-23.25"/>
</g>
<!-- trilinos&#45;&gt;conda&#45;forge&#45;pinning -->
<g id="edge47" class="edge">
<title>trilinos&#45;&gt;conda&#45;forge&#45;pinning</title>
<path fill="none" stroke="black" d="M1637.23,-215.92C1640.43,-184.22 1647,-118.51 1647.5,-108 1648.27,-92.02 1653.69,-86.75 1647.5,-72 1642.78,-60.76 1634.39,-50.7 1625.6,-42.45"/>
<polygon fill="black" stroke="black" points="1627.69,-39.63 1617.86,-35.67 1623.08,-44.89 1627.69,-39.63"/>
</g>
<!-- openmeeg&#45;&gt;conda&#45;forge&#45;pinning -->
<g id="edge48" class="edge">
<title>openmeeg&#45;&gt;conda&#45;forge&#45;pinning</title>
<path fill="none" stroke="black" d="M1702.85,-143.97C1701.33,-124.76 1696.38,-93.4 1680.5,-72 1670.55,-58.59 1656.11,-47.86 1641.84,-39.66"/>
<polygon fill="black" stroke="black" points="1643.48,-36.57 1633.02,-34.88 1640.14,-42.73 1643.48,-36.57"/>
</g>
<!-- libvips&#45;&gt;conda&#45;forge&#45;pinning -->
<g id="edge49" class="edge">
<title>libvips&#45;&gt;conda&#45;forge&#45;pinning</title>
<path fill="none" stroke="black" d="M1745.87,-76.97C1717.81,-66.29 1676.35,-50.52 1643.75,-38.12"/>
<polygon fill="black" stroke="black" points="1644.97,-34.84 1634.38,-34.55 1642.48,-41.38 1644.97,-34.84"/>
</g>
<!-- marray -->
<g id="node31" class="node">
<title>marray</title>
<g id="a_node31"><a xlink:href="https://github.com/conda-forge/marray-feedstock/pull/8" xlink:title="marray">
<ellipse fill="#31688e" stroke="black" cx="1926.5" cy="-162" rx="40.5" ry="18"/>
<text text-anchor="middle" x="1926.5" y="-158.3" font-family="Times,serif" font-size="14.00" fill="white">marray</text>
</a>
</g>
</g>
<!-- marray&#45;&gt;conda&#45;forge&#45;pinning -->
<g id="edge50" class="edge">
<title>marray&#45;&gt;conda&#45;forge&#45;pinning</title>
<path fill="none" stroke="black" d="M1927,-143.82C1926.6,-123.55 1922.62,-90.32 1902.5,-72 1873.28,-45.39 1777.76,-31.91 1700.58,-25.24"/>
<polygon fill="black" stroke="black" points="1700.56,-21.72 1690.3,-24.38 1699.98,-28.7 1700.56,-21.72"/>
</g>
<!-- octave -->
<g id="node32" class="node">
<title>octave</title>
<g id="a_node32"><a xlink:href="https://github.com/conda-forge/octave-feedstock/pull/39" xlink:title="octave">
<ellipse fill="#31688e" stroke="black" cx="1964.5" cy="-234" rx="40.5" ry="18"/>
<text text-anchor="middle" x="1964.5" y="-230.3" font-family="Times,serif" font-size="14.00" fill="white">octave</text>
</a>
</g>
</g>
<!-- octave&#45;&gt;conda&#45;forge&#45;pinning -->
<g id="edge51" class="edge">
<title>octave&#45;&gt;conda&#45;forge&#45;pinning</title>
<path fill="none" stroke="black" d="M1970.76,-215.9C1976.47,-197.7 1982.97,-168.25 1975.5,-144 1964.11,-107.01 1959.18,-92.74 1926.5,-72 1889.28,-48.37 1780.57,-34.2 1697.39,-26.54"/>
<polygon fill="black" stroke="black" points="1697.65,-23.05 1687.38,-25.64 1697.02,-30.02 1697.65,-23.05"/>
</g>
<!-- pyne -->
<g id="node33" class="node">
<title>pyne</title>
<g id="a_node33"><a xlink:href="https://github.com/conda-forge/pyne-feedstock/pull/40" xlink:title="pyne">
<ellipse fill="#31688e" stroke="black" cx="2016.5" cy="-306" rx="30.59" ry="18"/>
<text text-anchor="middle" x="2016.5" y="-302.3" font-family="Times,serif" font-size="14.00" fill="white">pyne</text>
</a>
</g>
</g>
<!-- pyne&#45;&gt;conda&#45;forge&#45;pinning -->
<g id="edge52" class="edge">
<title>pyne&#45;&gt;conda&#45;forge&#45;pinning</title>
<path fill="none" stroke="black" d="M2018.56,-288.02C2022.89,-243.56 2027.41,-123.59 1958.5,-72 1919.18,-42.57 1795.91,-29.38 1703.43,-23.53"/>
<polygon fill="black" stroke="black" points="1703.64,-20.04 1693.45,-22.92 1703.21,-27.02 1703.64,-20.04"/>
</g>
<!-- r&#45;hdf5r -->
<g id="node34" class="node">
<title>r&#45;hdf5r</title>
<g id="a_node34"><a xlink:href="https://github.com/conda-forge/r-hdf5r-feedstock/pull/12" xlink:title="r hdf5r">
<ellipse fill="#31688e" stroke="black" cx="2075.5" cy="-378" rx="45" ry="18"/>
<text text-anchor="middle" x="2075.5" y="-374.3" font-family="Times,serif" font-size="14.00" fill="white">r hdf5r</text>
</a>
</g>
</g>
<!-- r&#45;hdf5r&#45;&gt;conda&#45;forge&#45;pinning -->
<g id="edge53" class="edge">
<title>r&#45;hdf5r&#45;&gt;conda&#45;forge&#45;pinning</title>
<path fill="none" stroke="black" d="M2077.07,-359.8C2080.92,-305.87 2084.31,-139.64 1988.5,-72 1944.1,-40.65 1805.43,-27.82 1704.92,-22.58"/>
<polygon fill="black" stroke="black" points="1704.87,-19.08 1694.71,-22.07 1704.52,-26.07 1704.87,-19.08"/>
</g>
<!-- r&#45;ncdf4 -->
<g id="node35" class="node">
<title>r&#45;ncdf4</title>
<g id="a_node35"><a xlink:href="https://github.com/conda-forge/r-ncdf4-feedstock/pull/20" xlink:title="r ncdf4">
<ellipse fill="#31688e" stroke="black" cx="2113.5" cy="-90" rx="45" ry="18"/>
<text text-anchor="middle" x="2113.5" y="-86.3" font-family="Times,serif" font-size="14.00" fill="white">r ncdf4</text>
</a>
</g>
</g>
<!-- r&#45;ncdf4&#45;&gt;conda&#45;forge&#45;pinning -->
<g id="edge54" class="edge">
<title>r&#45;ncdf4&#45;&gt;conda&#45;forge&#45;pinning</title>
<path fill="none" stroke="black" d="M2079.42,-78.14C2071.31,-75.85 2062.65,-73.63 2054.5,-72 1933.5,-47.79 1792.27,-33.58 1698.32,-26.06"/>
<polygon fill="black" stroke="black" points="1698.49,-22.57 1688.24,-25.27 1697.94,-29.55 1698.49,-22.57"/>
</g>
<!-- shogun -->
<g id="node36" class="node">
<title>shogun</title>
<g id="a_node36"><a xlink:href="https://github.com/conda-forge/shogun-feedstock/pull/20" xlink:title="shogun">
<ellipse fill="#31688e" stroke="black" cx="2155.5" cy="-162" rx="40.5" ry="18"/>
<text text-anchor="middle" x="2155.5" y="-158.3" font-family="Times,serif" font-size="14.00" fill="white">shogun</text>
</a>
</g>
</g>
<!-- shogun&#45;&gt;conda&#45;forge&#45;pinning -->
<g id="edge55" class="edge">
<title>shogun&#45;&gt;conda&#45;forge&#45;pinning</title>
<path fill="none" stroke="black" d="M2164.7,-144.25C2174.21,-124.41 2185.36,-91.58 2167.5,-72 2137.06,-38.62 1864.09,-25.96 1705.79,-21.4"/>
<polygon fill="black" stroke="black" points="1705.63,-17.89 1695.54,-21.11 1705.43,-24.89 1705.63,-17.89"/>
</g>
<!-- vigra -->
<g id="node37" class="node">
<title>vigra</title>
<g id="a_node37"><a xlink:href="https://github.com/conda-forge/vigra-feedstock/pull/54" xlink:title="vigra">
<ellipse fill="#31688e" stroke="black" cx="2199.5" cy="-234" rx="35.19" ry="18"/>
<text text-anchor="middle" x="2199.5" y="-230.3" font-family="Times,serif" font-size="14.00" fill="white">vigra</text>
</a>
</g>
</g>
<!-- vigra&#45;&gt;conda&#45;forge&#45;pinning -->
<g id="edge56" class="edge">
<title>vigra&#45;&gt;conda&#45;forge&#45;pinning</title>
<path fill="none" stroke="black" d="M2204.72,-215.99C2213.85,-182.35 2228.06,-107.54 2186.5,-72 2150.83,-41.5 1867.25,-27.6 1705.51,-22.1"/>
<polygon fill="black" stroke="black" points="1705.15,-18.58 1695.04,-21.75 1704.92,-25.58 1705.15,-18.58"/>
</g>
<!-- yaafe -->
<g id="node38" class="node">
<title>yaafe</title>
<g id="a_node38"><a xlink:href="https://github.com/conda-forge/yaafe-feedstock/pull/9" xlink:title="yaafe">
<ellipse fill="#31688e" stroke="black" cx="2237.5" cy="-306" rx="35.19" ry="18"/>
<text text-anchor="middle" x="2237.5" y="-302.3" font-family="Times,serif" font-size="14.00" fill="white">yaafe</text>
</a>
</g>
</g>
<!-- yaafe&#45;&gt;conda&#45;forge&#45;pinning -->
<g id="edge57" class="edge">
<title>yaafe&#45;&gt;conda&#45;forge&#45;pinning</title>
<path fill="none" stroke="black" d="M2242.23,-288.12C2253.33,-244.43 2275.58,-127.18 2212.5,-72 2175.29,-39.44 1873.77,-26.33 1705.69,-21.51"/>
<polygon fill="black" stroke="black" points="1705.66,-18.01 1695.56,-21.23 1705.46,-25.01 1705.66,-18.01"/>
</g>
<!-- alps -->
<g id="node39" class="node">
<title>alps</title>
<g id="a_node39"><a xlink:href="https://github.com/conda-forge/alps-feedstock/pull/31" xlink:title="alps">
<ellipse fill="#31688e" stroke="black" cx="2300.5" cy="-378" rx="30.59" ry="18"/>
<text text-anchor="middle" x="2300.5" y="-374.3" font-family="Times,serif" font-size="14.00" fill="white">alps</text>
</a>
</g>
</g>
<!-- alps&#45;&gt;conda&#45;forge&#45;pinning -->
<g id="edge58" class="edge">
<title>alps&#45;&gt;conda&#45;forge&#45;pinning</title>
<path fill="none" stroke="black" d="M2300.5,-359.95C2300.5,-333.29 2300.5,-280.11 2300.5,-235 2300.5,-235 2300.5,-235 2300.5,-161 2300.5,-113.3 2281.67,-96.1 2240.5,-72 2195.44,-45.62 1876.6,-29.66 1703.95,-22.86"/>
<polygon fill="black" stroke="black" points="1703.94,-19.35 1693.81,-22.46 1703.67,-26.35 1703.94,-19.35"/>
</g>
<!-- spdlib -->
<g id="node40" class="node">
<title>spdlib</title>
<g id="a_node40"><a xlink:href="https://github.com/conda-forge/spdlib-feedstock/pull/15" xlink:title="spdlib">
<ellipse fill="#31688e" stroke="black" cx="2369.5" cy="-90" rx="40.5" ry="18"/>
<text text-anchor="middle" x="2369.5" y="-86.3" font-family="Times,serif" font-size="14.00" fill="white">spdlib</text>
</a>
</g>
</g>
<!-- spdlib&#45;&gt;conda&#45;forge&#45;pinning -->
<g id="edge59" class="edge">
<title>spdlib&#45;&gt;conda&#45;forge&#45;pinning</title>
<path fill="none" stroke="black" d="M2338.69,-78.13C2330.88,-75.75 2322.45,-73.5 2314.5,-72 2102.37,-31.96 1849.83,-21.8 1706.93,-19.44"/>
<polygon fill="black" stroke="black" points="1706.88,-15.94 1696.83,-19.28 1706.77,-22.94 1706.88,-15.94"/>
</g>
<!-- mpb -->
<g id="node41" class="node">
<title>mpb</title>
<g id="a_node41"><a xlink:href="https://github.com/conda-forge/mpb-feedstock/pull/22" xlink:title="mpb">
<ellipse fill="#31688e" stroke="black" cx="1343.5" cy="-162" rx="27" ry="18"/>
<text text-anchor="middle" x="1343.5" y="-158.3" font-family="Times,serif" font-size="14.00" fill="white">mpb</text>
</a>
</g>
</g>
<!-- mpb&#45;&gt;conda&#45;forge&#45;pinning -->
<g id="edge60" class="edge">
<title>mpb&#45;&gt;conda&#45;forge&#45;pinning</title>
<path fill="none" stroke="black" d="M1337.53,-144.18C1331.76,-124.57 1326.05,-92.28 1342.5,-72 1361.5,-48.57 1430.67,-35.1 1491.59,-27.6"/>
<polygon fill="black" stroke="black" points="1492.17,-31.06 1501.68,-26.41 1491.34,-24.11 1492.17,-31.06"/>
</g>
<!-- mpb&#45;&gt;pymeep -->
<g id="edge61" class="edge">
<title>mpb&#45;&gt;pymeep</title>
<path fill="none" stroke="black" d="M1325.82,-147.83C1312.27,-137.74 1293.3,-123.62 1277.67,-111.98"/>
<polygon fill="black" stroke="black" points="1279.49,-108.97 1269.38,-105.8 1275.31,-114.58 1279.49,-108.97"/>
</g>
<!-- openpmd&#45;api -->
<g id="node42" class="node">
<title>openpmd&#45;api</title>
<g id="a_node42"><a xlink:href="https://github.com/conda-forge/openpmd-api-feedstock" xlink:title="openpmd api">
<ellipse fill="#fde725" stroke="black" cx="2492.5" cy="-90" rx="64.5" ry="18"/>
<text text-anchor="middle" x="2492.5" y="-86.3" font-family="Times,serif" font-size="14.00">openpmd api</text>
</a>
</g>
</g>
<!-- openpmd&#45;api&#45;&gt;conda&#45;forge&#45;pinning -->
<g id="edge62" class="edge">
<title>openpmd&#45;api&#45;&gt;conda&#45;forge&#45;pinning</title>
<path fill="none" stroke="black" d="M2446.53,-77.23C2437.3,-75.21 2427.63,-73.33 2418.5,-72 2165.93,-35.12 1866.12,-23.9 1706.61,-20.49"/>
<polygon fill="black" stroke="black" points="1706.37,-16.99 1696.3,-20.28 1706.23,-23.98 1706.37,-16.99"/>
</g>
<!-- cmor -->
<g id="node43" class="node">
<title>cmor</title>
<g id="a_node43"><a xlink:href="https://github.com/conda-forge/cmor-feedstock/pull/22" xlink:title="cmor">
<ellipse fill="#31688e" stroke="black" cx="2602.5" cy="-162" rx="30.59" ry="18"/>
<text text-anchor="middle" x="2602.5" y="-158.3" font-family="Times,serif" font-size="14.00" fill="white">cmor</text>
</a>
</g>
</g>
<!-- cmor&#45;&gt;conda&#45;forge&#45;pinning -->
<g id="edge63" class="edge">
<title>cmor&#45;&gt;conda&#45;forge&#45;pinning</title>
<path fill="none" stroke="black" d="M2604.4,-143.88C2605.62,-123.36 2604.04,-89.55 2583.5,-72 2550.6,-43.9 1958.55,-27.24 1706.07,-21.39"/>
<polygon fill="black" stroke="black" points="1705.85,-17.88 1695.77,-21.15 1705.69,-24.88 1705.85,-17.88"/>
</g>
<!-- freecad -->
<g id="node44" class="node">
<title>freecad</title>
<g id="a_node44"><a xlink:href="https://github.com/conda-forge/freecad-feedstock/pull/38" xlink:title="freecad">
<ellipse fill="#31688e" stroke="black" cx="2626.5" cy="-234" rx="45" ry="18"/>
<text text-anchor="middle" x="2626.5" y="-230.3" font-family="Times,serif" font-size="14.00" fill="white">freecad</text>
</a>
</g>
</g>
<!-- freecad&#45;&gt;conda&#45;forge&#45;pinning -->
<g id="edge64" class="edge">
<title>freecad&#45;&gt;conda&#45;forge&#45;pinning</title>
<path fill="none" stroke="black" d="M2632.99,-216.1C2636.58,-205.84 2640.67,-192.36 2642.5,-180 2649.87,-130.08 2649.56,-99.87 2607.5,-72 2534.04,-23.31 1956.59,-18.35 1707.37,-18.51"/>
<polygon fill="black" stroke="black" points="1707.2,-15.01 1697.2,-18.52 1707.2,-22.01 1707.2,-15.01"/>
</g>
<!-- scilab -->
<g id="node45" class="node">
<title>scilab</title>
<g id="a_node45"><a xlink:href="https://github.com/conda-forge/scilab-feedstock/pull/12" xlink:title="scilab">
<ellipse fill="#31688e" stroke="black" cx="2668.5" cy="-306" rx="40.5" ry="18"/>
<text text-anchor="middle" x="2668.5" y="-302.3" font-family="Times,serif" font-size="14.00" fill="white">scilab</text>
</a>
</g>
</g>
<!-- scilab&#45;&gt;conda&#45;forge&#45;pinning -->
<g id="edge65" class="edge">
<title>scilab&#45;&gt;conda&#45;forge&#45;pinning</title>
<path fill="none" stroke="black" d="M2673.37,-287.98C2676.06,-277.67 2679.14,-264.19 2680.5,-252 2689.63,-170.36 2702.95,-122.94 2638.5,-72 2602.4,-43.46 1968.51,-26.89 1705.97,-21.23"/>
<polygon fill="black" stroke="black" points="1705.72,-17.72 1695.64,-21.01 1705.57,-24.72 1705.72,-17.72"/>
</g>
<!-- adios2 -->
<g id="node46" class="node">
<title>adios2</title>
<g id="a_node46"><a xlink:href="https://github.com/conda-forge/adios2-feedstock/pull/11" xlink:title="adios2">
<ellipse fill="#31688e" stroke="black" cx="2502.5" cy="-162" rx="40.5" ry="18"/>
<text text-anchor="middle" x="2502.5" y="-158.3" font-family="Times,serif" font-size="14.00" fill="white">adios2</text>
</a>
</g>
</g>
<!-- adios2&#45;&gt;conda&#45;forge&#45;pinning -->
<g id="edge66" class="edge">
<title>adios2&#45;&gt;conda&#45;forge&#45;pinning</title>
<path fill="none" stroke="black" d="M2524.72,-146.82C2550.9,-128.44 2588.15,-95.92 2565.5,-72 2536.36,-41.23 1956.09,-26.14 1706.29,-21.05"/>
<polygon fill="black" stroke="black" points="1706.16,-17.55 1696.09,-20.84 1706.02,-24.54 1706.16,-17.55"/>
</g>
<!-- adios2&#45;&gt;openpmd&#45;api -->
<g id="edge67" class="edge">
<title>adios2&#45;&gt;openpmd&#45;api</title>
<path fill="none" stroke="black" d="M2500.03,-143.7C2498.93,-135.98 2497.6,-126.71 2496.37,-118.11"/>
<polygon fill="black" stroke="black" points="2499.82,-117.51 2494.94,-108.1 2492.89,-118.5 2499.82,-117.51"/>
</g>
<!-- bonsu -->
<g id="node47" class="node">
<title>bonsu</title>
<g id="a_node47"><a xlink:href="https://github.com/conda-forge/bonsu-feedstock/pull/5" xlink:title="bonsu">
<ellipse fill="#31688e" stroke="black" cx="2737.5" cy="-378" rx="35.19" ry="18"/>
<text text-anchor="middle" x="2737.5" y="-374.3" font-family="Times,serif" font-size="14.00" fill="white">bonsu</text>
</a>
</g>
</g>
<!-- bonsu&#45;&gt;conda&#45;forge&#45;pinning -->
<g id="edge68" class="edge">
<title>bonsu&#45;&gt;conda&#45;forge&#45;pinning</title>
<path fill="none" stroke="black" d="M2737.5,-359.95C2737.5,-333.29 2737.5,-280.11 2737.5,-235 2737.5,-235 2737.5,-235 2737.5,-161 2737.5,-111.22 2713.57,-95.15 2669.5,-72 2586.02,-28.14 1966.25,-20.49 1707,-19.22"/>
<polygon fill="black" stroke="black" points="1706.82,-15.72 1696.8,-19.17 1706.79,-22.72 1706.82,-15.72"/>
</g>
<!-- dagmc -->
<g id="node48" class="node">
<title>dagmc</title>
<g id="a_node48"><a xlink:href="https://github.com/conda-forge/dagmc-feedstock/pull/1" xlink:title="dagmc">
<ellipse fill="#31688e" stroke="black" cx="2800.5" cy="-90" rx="35.19" ry="18"/>
<text text-anchor="middle" x="2800.5" y="-86.3" font-family="Times,serif" font-size="14.00" fill="white">dagmc</text>
</a>
</g>
</g>
<!-- dagmc&#45;&gt;conda&#45;forge&#45;pinning -->
<g id="edge70" class="edge">
<title>dagmc&#45;&gt;conda&#45;forge&#45;pinning</title>
<path fill="none" stroke="black" d="M2773.92,-78.22C2766.76,-75.75 2758.93,-73.43 2751.5,-72 2553.76,-34 1957.64,-23.03 1706.74,-20.04"/>
<polygon fill="black" stroke="black" points="1706.55,-16.54 1696.51,-19.92 1706.47,-23.54 1706.55,-16.54"/>
</g>
<!-- nccmp -->
<g id="node49" class="node">
<title>nccmp</title>
<g id="a_node49"><a xlink:href="https://github.com/conda-forge/nccmp-feedstock/pull/2" xlink:title="nccmp">
<ellipse fill="#31688e" stroke="black" cx="2863.5" cy="-162" rx="35.19" ry="18"/>
<text text-anchor="middle" x="2863.5" y="-158.3" font-family="Times,serif" font-size="14.00" fill="white">nccmp</text>
</a>
</g>
</g>
<!-- nccmp&#45;&gt;conda&#45;forge&#45;pinning -->
<g id="edge71" class="edge">
<title>nccmp&#45;&gt;conda&#45;forge&#45;pinning</title>
<path fill="none" stroke="black" d="M2865.43,-143.85C2866.68,-123.29 2865.14,-89.43 2844.5,-72 2801.42,-35.61 2006.15,-23.39 1706.47,-20.07"/>
<polygon fill="black" stroke="black" points="1706.5,-16.57 1696.46,-19.96 1706.42,-23.57 1706.5,-16.57"/>
</g>
<!-- mbsolve -->
<g id="node50" class="node">
<title>mbsolve</title>
<g id="a_node50"><a xlink:href="https://github.com/conda-forge/mbsolve-feedstock/pull/3" xlink:title="mbsolve">
<ellipse fill="#31688e" stroke="black" cx="2926.5" cy="-234" rx="45" ry="18"/>
<text text-anchor="middle" x="2926.5" y="-230.3" font-family="Times,serif" font-size="14.00" fill="white">mbsolve</text>
</a>
</g>
</g>
<!-- mbsolve&#45;&gt;conda&#45;forge&#45;pinning -->
<g id="edge72" class="edge">
<title>mbsolve&#45;&gt;conda&#45;forge&#45;pinning</title>
<path fill="none" stroke="black" d="M2926.58,-215.96C2925.69,-181.23 2918.03,-102.91 2868.5,-72 2819.65,-41.51 2008.86,-25.58 1706.23,-20.68"/>
<polygon fill="black" stroke="black" points="1706.17,-17.18 1696.11,-20.52 1706.05,-24.18 1706.17,-17.18"/>
</g>
</g>
</svg>
