<?xml version="1.0" encoding="UTF-8" standalone="no"?>
<!DOCTYPE svg PUBLIC "-//W3C//DTD SVG 1.1//EN"
 "http://www.w3.org/Graphics/SVG/1.1/DTD/svg11.dtd">
<!-- Generated by graphviz version 2.42.3 (20191010.1750)
 -->
<!-- Title: %3 Pages: 1 -->
<svg width="2908pt" height="476pt"
 viewBox="0.00 0.00 2907.60 476.00" xmlns="http://www.w3.org/2000/svg" xmlns:xlink="http://www.w3.org/1999/xlink">
<g id="graph0" class="graph" transform="scale(1 1) rotate(0) translate(4 472)">
<title>%3</title>
<polygon fill="white" stroke="transparent" points="-4,4 -4,-472 2903.6,-472 2903.6,4 -4,4"/>
<!-- caffe -->
<g id="node1" class="node">
<title>caffe</title>
<g id="a_node1"><a xlink:href="https://github.com/conda-forge/caffe-feedstock" xlink:title="caffe">
<ellipse fill="#fde725" stroke="black" cx="1033.5" cy="-378" rx="35.19" ry="18"/>
<text text-anchor="middle" x="1033.5" y="-374.3" font-family="Times,serif" font-size="14.00">caffe</text>
</a>
</g>
</g>
<!-- conda&#45;forge&#45;pinning -->
<g id="node2" class="node">
<title>conda&#45;forge&#45;pinning</title>
<ellipse fill="none" stroke="black" cx="1556.5" cy="-18" rx="103.5" ry="18"/>
<text text-anchor="middle" x="1556.5" y="-14.3" font-family="Times,serif" font-size="14.00">conda&#45;forge&#45;pinning</text>
</g>
<!-- caffe&#45;&gt;conda&#45;forge&#45;pinning -->
<g id="edge1" class="edge">
<title>caffe&#45;&gt;conda&#45;forge&#45;pinning</title>
<path fill="none" stroke="black" d="M1032.51,-359.96C1031.06,-333.31 1028.5,-280.14 1028.5,-235 1028.5,-235 1028.5,-235 1028.5,-161 1028.5,-120.03 1021.33,-98.58 1052.5,-72 1081.89,-46.94 1308.11,-31.32 1447.3,-23.98"/>
<polygon fill="black" stroke="black" points="1447.78,-27.46 1457.58,-23.45 1447.41,-20.47 1447.78,-27.46"/>
</g>
<!-- cyclus -->
<g id="node3" class="node">
<title>cyclus</title>
<g id="a_node3"><a xlink:href="https://github.com/conda-forge/cyclus-feedstock/pull/56" xlink:title="cyclus">
<ellipse fill="#31688e" stroke="black" cx="40.5" cy="-90" rx="40.5" ry="18"/>
<text text-anchor="middle" x="40.5" y="-86.3" font-family="Times,serif" font-size="14.00" fill="white">cyclus</text>
</a>
</g>
</g>
<!-- cyclus&#45;&gt;conda&#45;forge&#45;pinning -->
<g id="edge2" class="edge">
<title>cyclus&#45;&gt;conda&#45;forge&#45;pinning</title>
<path fill="none" stroke="black" d="M70.99,-78.01C78.87,-75.61 87.42,-73.37 95.5,-72 353.86,-28.18 1145.96,-20.57 1442.69,-19.26"/>
<polygon fill="black" stroke="black" points="1443.05,-22.76 1453.03,-19.22 1443.02,-15.76 1443.05,-22.76"/>
</g>
<!-- fenics -->
<g id="node4" class="node">
<title>fenics</title>
<g id="a_node4"><a xlink:href="https://github.com/conda-forge/fenics-feedstock/pull/107" xlink:title="fenics">
<ellipse fill="#31688e" stroke="black" cx="93.5" cy="-162" rx="40.5" ry="18"/>
<text text-anchor="middle" x="93.5" y="-158.3" font-family="Times,serif" font-size="14.00" fill="white">fenics</text>
</a>
</g>
</g>
<!-- fenics&#45;&gt;conda&#45;forge&#45;pinning -->
<g id="edge3" class="edge">
<title>fenics&#45;&gt;conda&#45;forge&#45;pinning</title>
<path fill="none" stroke="black" d="M98.53,-143.99C105.78,-122.9 121.35,-87.82 148.5,-72 204.08,-39.63 1118.86,-24.67 1443.41,-20.37"/>
<polygon fill="black" stroke="black" points="1443.82,-23.86 1453.77,-20.23 1443.73,-16.86 1443.82,-23.86"/>
</g>
<!-- flann -->
<g id="node5" class="node">
<title>flann</title>
<g id="a_node5"><a xlink:href="https://github.com/conda-forge/flann-feedstock/pull/26" xlink:title="flann">
<ellipse fill="#31688e" stroke="black" cx="137.5" cy="-234" rx="35.19" ry="18"/>
<text text-anchor="middle" x="137.5" y="-230.3" font-family="Times,serif" font-size="14.00" fill="white">flann</text>
</a>
</g>
</g>
<!-- flann&#45;&gt;conda&#45;forge&#45;pinning -->
<g id="edge4" class="edge">
<title>flann&#45;&gt;conda&#45;forge&#45;pinning</title>
<path fill="none" stroke="black" d="M140.19,-215.82C146.47,-178.07 163.37,-89.84 186.5,-72 235.91,-33.89 1123.82,-22.65 1443.22,-19.83"/>
<polygon fill="black" stroke="black" points="1443.46,-23.33 1453.42,-19.74 1443.39,-16.33 1443.46,-23.33"/>
</g>
<!-- graph -->
<g id="node6" class="node">
<title>graph</title>
<g id="a_node6"><a xlink:href="https://github.com/conda-forge/graph-feedstock/pull/5" xlink:title="graph">
<ellipse fill="#31688e" stroke="black" cx="200.5" cy="-306" rx="35.19" ry="18"/>
<text text-anchor="middle" x="200.5" y="-302.3" font-family="Times,serif" font-size="14.00" fill="white">graph</text>
</a>
</g>
</g>
<!-- graph&#45;&gt;conda&#45;forge&#45;pinning -->
<g id="edge5" class="edge">
<title>graph&#45;&gt;conda&#45;forge&#45;pinning</title>
<path fill="none" stroke="black" d="M195.4,-288.12C183.51,-244.92 159.31,-129.73 219.5,-72 263.33,-29.96 1128.09,-21.24 1443.03,-19.45"/>
<polygon fill="black" stroke="black" points="1443.11,-22.95 1453.09,-19.4 1443.08,-15.95 1443.11,-22.95"/>
</g>
<!-- h5py -->
<g id="node7" class="node">
<title>h5py</title>
<g id="a_node7"><a xlink:href="https://github.com/conda-forge/h5py-feedstock/pull/72" xlink:title="h5py">
<ellipse fill="#31688e" stroke="black" cx="951.5" cy="-450" rx="30.59" ry="18"/>
<text text-anchor="middle" x="951.5" y="-446.3" font-family="Times,serif" font-size="14.00" fill="white">h5py</text>
</a>
</g>
</g>
<!-- h5py&#45;&gt;caffe -->
<g id="edge6" class="edge">
<title>h5py&#45;&gt;caffe</title>
<path fill="none" stroke="black" d="M968.09,-434.83C979.64,-424.98 995.25,-411.65 1008.33,-400.49"/>
<polygon fill="black" stroke="black" points="1010.75,-403.02 1016.08,-393.87 1006.2,-397.7 1010.75,-403.02"/>
</g>
<!-- h5py&#45;&gt;conda&#45;forge&#45;pinning -->
<g id="edge7" class="edge">
<title>h5py&#45;&gt;conda&#45;forge&#45;pinning</title>
<path fill="none" stroke="black" d="M981.38,-445.76C1011.42,-440.74 1056.23,-428.02 1077.5,-396 1086.35,-382.67 1078.2,-375.98 1077.5,-360 1075.05,-304.28 1066.5,-290.77 1066.5,-235 1066.5,-235 1066.5,-235 1066.5,-161 1066.5,-113.54 1085.14,-96.96 1125.5,-72 1177.26,-39.99 1335.18,-27.27 1444.75,-22.25"/>
<polygon fill="black" stroke="black" points="1445.03,-25.74 1454.87,-21.8 1444.72,-18.75 1445.03,-25.74"/>
</g>
<!-- openmc -->
<g id="node8" class="node">
<title>openmc</title>
<g id="a_node8"><a xlink:href="https://github.com/conda-forge/openmc-feedstock" xlink:title="openmc">
<ellipse fill="#fde725" stroke="black" cx="1135.5" cy="-306" rx="40.5" ry="18"/>
<text text-anchor="middle" x="1135.5" y="-302.3" font-family="Times,serif" font-size="14.00">openmc</text>
</a>
</g>
</g>
<!-- h5py&#45;&gt;openmc -->
<g id="edge8" class="edge">
<title>h5py&#45;&gt;openmc</title>
<path fill="none" stroke="black" d="M981.72,-447.2C1017.45,-443.43 1076.37,-431.81 1110.5,-396 1126.29,-379.43 1132.25,-353.71 1134.42,-334.17"/>
<polygon fill="black" stroke="black" points="1137.93,-334.31 1135.28,-324.05 1130.95,-333.72 1137.93,-334.31"/>
</g>
<!-- rsgislib -->
<g id="node9" class="node">
<title>rsgislib</title>
<g id="a_node9"><a xlink:href="https://github.com/conda-forge/rsgislib-feedstock" xlink:title="rsgislib">
<ellipse fill="#fde725" stroke="black" cx="1182.5" cy="-234" rx="50.09" ry="18"/>
<text text-anchor="middle" x="1182.5" y="-230.3" font-family="Times,serif" font-size="14.00">rsgislib</text>
</a>
</g>
</g>
<!-- h5py&#45;&gt;rsgislib -->
<g id="edge9" class="edge">
<title>h5py&#45;&gt;rsgislib</title>
<path fill="none" stroke="black" d="M981.49,-446.29C1019.83,-441.56 1086.84,-428.91 1133.5,-396 1165.76,-373.25 1173.36,-361.56 1185.5,-324 1191.95,-304.05 1190.72,-280.26 1188.15,-262.3"/>
<polygon fill="black" stroke="black" points="1191.56,-261.5 1186.47,-252.21 1184.66,-262.65 1191.56,-261.5"/>
</g>
<!-- h5utils -->
<g id="node10" class="node">
<title>h5utils</title>
<g id="a_node10"><a xlink:href="https://github.com/conda-forge/h5utils-feedstock" xlink:title="h5utils">
<ellipse fill="#fde725" stroke="black" cx="1215.5" cy="-162" rx="45" ry="18"/>
<text text-anchor="middle" x="1215.5" y="-158.3" font-family="Times,serif" font-size="14.00">h5utils</text>
</a>
</g>
</g>
<!-- h5py&#45;&gt;h5utils -->
<g id="edge10" class="edge">
<title>h5py&#45;&gt;h5utils</title>
<path fill="none" stroke="black" d="M982.16,-449C1027.02,-447.46 1111.09,-438.57 1165.5,-396 1222.49,-351.4 1224.1,-322.24 1241.5,-252 1245.35,-236.47 1245.12,-231.59 1241.5,-216 1239.35,-206.72 1235.32,-197.18 1231.08,-188.81"/>
<polygon fill="black" stroke="black" points="1234.11,-187.05 1226.28,-179.92 1227.95,-190.38 1234.11,-187.05"/>
</g>
<!-- pymeep -->
<g id="node11" class="node">
<title>pymeep</title>
<g id="a_node11"><a xlink:href="https://github.com/conda-forge/pymeep-feedstock" xlink:title="pymeep">
<ellipse fill="#fde725" stroke="black" cx="1249.5" cy="-90" rx="40.5" ry="18"/>
<text text-anchor="middle" x="1249.5" y="-86.3" font-family="Times,serif" font-size="14.00">pymeep</text>
</a>
</g>
</g>
<!-- h5py&#45;&gt;pymeep -->
<g id="edge11" class="edge">
<title>h5py&#45;&gt;pymeep</title>
<path fill="none" stroke="black" d="M982.21,-449.9C1032.07,-449.85 1131.65,-443.24 1197.5,-396 1279.72,-337.01 1260.47,-280.79 1269.5,-180 1270.93,-164.06 1272.37,-159.74 1269.5,-144 1267.85,-134.96 1264.74,-125.46 1261.46,-117.04"/>
<polygon fill="black" stroke="black" points="1264.66,-115.63 1257.6,-107.74 1258.2,-118.32 1264.66,-115.63"/>
</g>
<!-- blosc&#45;hdf5&#45;plugin -->
<g id="node12" class="node">
<title>blosc&#45;hdf5&#45;plugin</title>
<g id="a_node12"><a xlink:href="https://github.com/conda-forge/blosc-hdf5-plugin-feedstock" xlink:title="blosc hdf5 plugin">
<ellipse fill="#fde725" stroke="black" cx="322.5" cy="-90" rx="93.68" ry="18"/>
<text text-anchor="middle" x="322.5" y="-86.3" font-family="Times,serif" font-size="14.00">blosc hdf5 plugin</text>
</a>
</g>
</g>
<!-- h5py&#45;&gt;blosc&#45;hdf5&#45;plugin -->
<g id="edge12" class="edge">
<title>h5py&#45;&gt;blosc&#45;hdf5&#45;plugin</title>
<path fill="none" stroke="black" d="M921.05,-447.89C829.99,-444.21 561.14,-430.62 481.5,-396 425.71,-371.75 377.5,-367.84 377.5,-307 377.5,-307 377.5,-307 377.5,-233 377.5,-190.01 355.31,-144.34 339.12,-116.74"/>
<polygon fill="black" stroke="black" points="342.06,-114.85 333.9,-108.1 336.07,-118.47 342.06,-114.85"/>
</g>
<!-- isce2 -->
<g id="node13" class="node">
<title>isce2</title>
<g id="a_node13"><a xlink:href="https://github.com/conda-forge/isce2-feedstock" xlink:title="isce2">
<ellipse fill="#fde725" stroke="black" cx="469.5" cy="-90" rx="35.19" ry="18"/>
<text text-anchor="middle" x="469.5" y="-86.3" font-family="Times,serif" font-size="14.00">isce2</text>
</a>
</g>
</g>
<!-- h5py&#45;&gt;isce2 -->
<g id="edge13" class="edge">
<title>h5py&#45;&gt;isce2</title>
<path fill="none" stroke="black" d="M920.9,-449.48C831.48,-450.27 573.03,-447.9 510.5,-396 478.59,-369.52 482.5,-348.47 482.5,-307 482.5,-307 482.5,-307 482.5,-233 482.5,-192.83 477.28,-146.53 473.45,-118.01"/>
<polygon fill="black" stroke="black" points="476.9,-117.43 472.07,-108 469.97,-118.39 476.9,-117.43"/>
</g>
<!-- bitshuffle -->
<g id="node14" class="node">
<title>bitshuffle</title>
<g id="a_node14"><a xlink:href="https://github.com/conda-forge/bitshuffle-feedstock" xlink:title="bitshuffle">
<ellipse fill="#fde725" stroke="black" cx="579.5" cy="-378" rx="60" ry="18"/>
<text text-anchor="middle" x="579.5" y="-374.3" font-family="Times,serif" font-size="14.00">bitshuffle</text>
</a>
</g>
</g>
<!-- h5py&#45;&gt;bitshuffle -->
<g id="edge14" class="edge">
<title>h5py&#45;&gt;bitshuffle</title>
<path fill="none" stroke="black" d="M922.22,-444.29C868.71,-435.57 751.59,-415.98 653.5,-396 647.62,-394.8 641.5,-393.5 635.4,-392.15"/>
<polygon fill="black" stroke="black" points="635.74,-388.64 625.21,-389.88 634.21,-395.47 635.74,-388.64"/>
</g>
<!-- triqs -->
<g id="node15" class="node">
<title>triqs</title>
<g id="a_node15"><a xlink:href="https://github.com/conda-forge/triqs-feedstock" xlink:title="triqs">
<ellipse fill="#fde725" stroke="black" cx="663.5" cy="-162" rx="35.19" ry="18"/>
<text text-anchor="middle" x="663.5" y="-158.3" font-family="Times,serif" font-size="14.00">triqs</text>
</a>
</g>
</g>
<!-- h5py&#45;&gt;triqs -->
<g id="edge15" class="edge">
<title>h5py&#45;&gt;triqs</title>
<path fill="none" stroke="black" d="M923.23,-442.84C872.09,-430.15 764.53,-396.01 710.5,-324 680.38,-283.86 669.51,-224.8 665.63,-190.48"/>
<polygon fill="black" stroke="black" points="669.08,-189.86 664.6,-180.26 662.12,-190.57 669.08,-189.86"/>
</g>
<!-- hdf5plugin -->
<g id="node16" class="node">
<title>hdf5plugin</title>
<g id="a_node16"><a xlink:href="https://github.com/conda-forge/hdf5plugin-feedstock" xlink:title="hdf5plugin">
<ellipse fill="#fde725" stroke="black" cx="779.5" cy="-306" rx="60" ry="18"/>
<text text-anchor="middle" x="779.5" y="-302.3" font-family="Times,serif" font-size="14.00">hdf5plugin</text>
</a>
</g>
</g>
<!-- h5py&#45;&gt;hdf5plugin -->
<g id="edge16" class="edge">
<title>h5py&#45;&gt;hdf5plugin</title>
<path fill="none" stroke="black" d="M929.29,-437.35C911.31,-427.44 885.73,-412.27 865.5,-396 841.04,-376.32 816.48,-350.11 799.91,-331.24"/>
<polygon fill="black" stroke="black" points="802.51,-328.9 793.32,-323.64 797.23,-333.48 802.51,-328.9"/>
</g>
<!-- prismatic_split -->
<g id="node17" class="node">
<title>prismatic_split</title>
<g id="a_node17"><a xlink:href="https://github.com/conda-forge/prismatic_split-feedstock" xlink:title="prismatic_split">
<ellipse fill="#fde725" stroke="black" cx="820.5" cy="-234" rx="84" ry="18"/>
<text text-anchor="middle" x="820.5" y="-230.3" font-family="Times,serif" font-size="14.00">prismatic_split</text>
</a>
</g>
</g>
<!-- h5py&#45;&gt;prismatic_split -->
<g id="edge17" class="edge">
<title>h5py&#45;&gt;prismatic_split</title>
<path fill="none" stroke="black" d="M941.35,-432.79C934.8,-422.31 926.11,-408.37 918.5,-396 889.15,-348.32 855.25,-292.45 836,-260.64"/>
<polygon fill="black" stroke="black" points="838.91,-258.7 830.74,-251.96 832.93,-262.32 838.91,-258.7"/>
</g>
<!-- digital_rf -->
<g id="node18" class="node">
<title>digital_rf</title>
<g id="a_node18"><a xlink:href="https://github.com/conda-forge/digital_rf-feedstock" xlink:title="digital_rf">
<ellipse fill="#fde725" stroke="black" cx="882.5" cy="-162" rx="60" ry="18"/>
<text text-anchor="middle" x="882.5" y="-158.3" font-family="Times,serif" font-size="14.00">digital_rf</text>
</a>
</g>
</g>
<!-- h5py&#45;&gt;digital_rf -->
<g id="edge18" class="edge">
<title>h5py&#45;&gt;digital_rf</title>
<path fill="none" stroke="black" d="M950.84,-431.8C948.88,-392.45 941.33,-293.32 913.5,-216 910.11,-206.57 905.03,-196.92 899.95,-188.48"/>
<polygon fill="black" stroke="black" points="902.82,-186.47 894.53,-179.87 896.9,-190.2 902.82,-186.47"/>
</g>
<!-- pp&#45;sketchlib -->
<g id="node19" class="node">
<title>pp&#45;sketchlib</title>
<g id="a_node19"><a xlink:href="https://github.com/conda-forge/pp-sketchlib-feedstock" xlink:title="pp sketchlib">
<ellipse fill="#fde725" stroke="black" cx="930.5" cy="-90" rx="69.59" ry="18"/>
<text text-anchor="middle" x="930.5" y="-86.3" font-family="Times,serif" font-size="14.00">pp sketchlib</text>
</a>
</g>
</g>
<!-- h5py&#45;&gt;pp&#45;sketchlib -->
<g id="edge19" class="edge">
<title>h5py&#45;&gt;pp&#45;sketchlib</title>
<path fill="none" stroke="black" d="M955.25,-432.05C960.79,-405.52 970.5,-352.52 970.5,-307 970.5,-307 970.5,-307 970.5,-233 970.5,-191.48 954.46,-145.61 942.7,-117.54"/>
<polygon fill="black" stroke="black" points="945.77,-115.84 938.59,-108.05 939.35,-118.62 945.77,-115.84"/>
</g>
<!-- openmc&#45;&gt;conda&#45;forge&#45;pinning -->
<g id="edge20" class="edge">
<title>openmc&#45;&gt;conda&#45;forge&#45;pinning</title>
<path fill="none" stroke="black" d="M1130.35,-287.96C1118.34,-244.38 1093.99,-128.37 1155.5,-72 1196.4,-34.52 1339.54,-23.12 1443.16,-19.88"/>
<polygon fill="black" stroke="black" points="1443.48,-23.37 1453.37,-19.58 1443.27,-16.37 1443.48,-23.37"/>
</g>
<!-- rsgislib&#45;&gt;conda&#45;forge&#45;pinning -->
<g id="edge21" class="edge">
<title>rsgislib&#45;&gt;conda&#45;forge&#45;pinning</title>
<path fill="none" stroke="black" d="M1173.78,-215.83C1169.13,-205.69 1163.88,-192.44 1161.5,-180 1152.24,-131.5 1149.22,-103.18 1187.5,-72 1226.05,-40.6 1351.26,-27.8 1445.21,-22.58"/>
<polygon fill="black" stroke="black" points="1445.55,-26.07 1455.35,-22.04 1445.17,-19.08 1445.55,-26.07"/>
</g>
<!-- h5utils&#45;&gt;conda&#45;forge&#45;pinning -->
<g id="edge22" class="edge">
<title>h5utils&#45;&gt;conda&#45;forge&#45;pinning</title>
<path fill="none" stroke="black" d="M1205.49,-144.1C1195.28,-124.42 1183.21,-92.06 1200.5,-72 1231.47,-36.08 1350.9,-24.12 1442.98,-20.34"/>
<polygon fill="black" stroke="black" points="1443.36,-23.83 1453.22,-19.95 1443.09,-16.83 1443.36,-23.83"/>
</g>
<!-- h5utils&#45;&gt;pymeep -->
<g id="edge23" class="edge">
<title>h5utils&#45;&gt;pymeep</title>
<path fill="none" stroke="black" d="M1223.73,-144.05C1227.7,-135.89 1232.54,-125.91 1236.96,-116.82"/>
<polygon fill="black" stroke="black" points="1240.12,-118.31 1241.35,-107.79 1233.83,-115.25 1240.12,-118.31"/>
</g>
<!-- pymeep&#45;&gt;conda&#45;forge&#45;pinning -->
<g id="edge24" class="edge">
<title>pymeep&#45;&gt;conda&#45;forge&#45;pinning</title>
<path fill="none" stroke="black" d="M1281.06,-78.7C1288.69,-76.36 1296.86,-73.98 1304.5,-72 1362.2,-57.05 1428.14,-43.3 1478.1,-33.55"/>
<polygon fill="black" stroke="black" points="1479.04,-36.93 1488.19,-31.59 1477.7,-30.06 1479.04,-36.93"/>
</g>
<!-- blosc&#45;hdf5&#45;plugin&#45;&gt;conda&#45;forge&#45;pinning -->
<g id="edge25" class="edge">
<title>blosc&#45;hdf5&#45;plugin&#45;&gt;conda&#45;forge&#45;pinning</title>
<path fill="none" stroke="black" d="M387.73,-77.05C400.23,-75.1 413.24,-73.29 425.5,-72 796.52,-32.82 1239.06,-22.61 1443.14,-19.94"/>
<polygon fill="black" stroke="black" points="1443.32,-23.44 1453.27,-19.81 1443.23,-16.44 1443.32,-23.44"/>
</g>
<!-- isce2&#45;&gt;conda&#45;forge&#45;pinning -->
<g id="edge26" class="edge">
<title>isce2&#45;&gt;conda&#45;forge&#45;pinning</title>
<path fill="none" stroke="black" d="M496.34,-78.16C503.43,-75.72 511.16,-73.43 518.5,-72 692.8,-38.03 1212.66,-24.97 1443.69,-20.74"/>
<polygon fill="black" stroke="black" points="1443.87,-24.24 1453.8,-20.56 1443.74,-17.24 1443.87,-24.24"/>
</g>
<!-- bitshuffle&#45;&gt;conda&#45;forge&#45;pinning -->
<g id="edge27" class="edge">
<title>bitshuffle&#45;&gt;conda&#45;forge&#45;pinning</title>
<path fill="none" stroke="black" d="M569.99,-360.11C556.26,-334.09 532.5,-282.26 532.5,-235 532.5,-235 532.5,-235 532.5,-161 532.5,-116.27 541.83,-96.12 579.5,-72 650.59,-26.48 1200.28,-19.7 1442.51,-18.94"/>
<polygon fill="black" stroke="black" points="1442.76,-22.44 1452.75,-18.91 1442.74,-15.44 1442.76,-22.44"/>
</g>
<!-- triqs&#45;&gt;conda&#45;forge&#45;pinning -->
<g id="edge28" class="edge">
<title>triqs&#45;&gt;conda&#45;forge&#45;pinning</title>
<path fill="none" stroke="black" d="M637.18,-149.96C620.19,-141.28 599.47,-127.4 589.5,-108 582.19,-93.77 578.5,-83.62 589.5,-72 618.47,-41.4 1195.06,-26.23 1443.83,-21.08"/>
<polygon fill="black" stroke="black" points="1444.06,-24.58 1453.99,-20.87 1443.92,-17.58 1444.06,-24.58"/>
</g>
<!-- triqs_cthyb -->
<g id="node20" class="node">
<title>triqs_cthyb</title>
<g id="a_node20"><a xlink:href="https://github.com/conda-forge/triqs_cthyb-feedstock" xlink:title="triqs_cthyb">
<ellipse fill="#fde725" stroke="black" cx="663.5" cy="-90" rx="64.5" ry="18"/>
<text text-anchor="middle" x="663.5" y="-86.3" font-family="Times,serif" font-size="14.00">triqs_cthyb</text>
</a>
</g>
</g>
<!-- triqs&#45;&gt;triqs_cthyb -->
<g id="edge29" class="edge">
<title>triqs&#45;&gt;triqs_cthyb</title>
<path fill="none" stroke="black" d="M663.5,-143.7C663.5,-135.98 663.5,-126.71 663.5,-118.11"/>
<polygon fill="black" stroke="black" points="667,-118.1 663.5,-108.1 660,-118.1 667,-118.1"/>
</g>
<!-- hdf5plugin&#45;&gt;conda&#45;forge&#45;pinning -->
<g id="edge30" class="edge">
<title>hdf5plugin&#45;&gt;conda&#45;forge&#45;pinning</title>
<path fill="none" stroke="black" d="M757.1,-289.06C745.94,-279.69 733.55,-266.8 727.5,-252 721.45,-237.19 723.36,-231.46 727.5,-216 746.59,-144.64 747.89,-111.2 810.5,-72 862.83,-39.24 1249.17,-25.9 1444.33,-21.21"/>
<polygon fill="black" stroke="black" points="1444.42,-24.71 1454.34,-20.97 1444.26,-17.71 1444.42,-24.71"/>
</g>
<!-- prismatic_split&#45;&gt;conda&#45;forge&#45;pinning -->
<g id="edge31" class="edge">
<title>prismatic_split&#45;&gt;conda&#45;forge&#45;pinning</title>
<path fill="none" stroke="black" d="M815.84,-215.85C807.7,-181.61 795.66,-105.26 839.5,-72 886.42,-36.4 1253.92,-24.49 1443.77,-20.68"/>
<polygon fill="black" stroke="black" points="1443.85,-24.18 1453.78,-20.48 1443.72,-17.18 1443.85,-24.18"/>
</g>
<!-- digital_rf&#45;&gt;conda&#45;forge&#45;pinning -->
<g id="edge32" class="edge">
<title>digital_rf&#45;&gt;conda&#45;forge&#45;pinning</title>
<path fill="none" stroke="black" d="M867.95,-144.52C852.46,-124.95 832.58,-92.39 851.5,-72 890.79,-29.64 1253.65,-20.92 1442.87,-19.27"/>
<polygon fill="black" stroke="black" points="1443.16,-22.77 1453.13,-19.19 1443.1,-15.77 1443.16,-22.77"/>
</g>
<!-- pp&#45;sketchlib&#45;&gt;conda&#45;forge&#45;pinning -->
<g id="edge33" class="edge">
<title>pp&#45;sketchlib&#45;&gt;conda&#45;forge&#45;pinning</title>
<path fill="none" stroke="black" d="M981.88,-77.74C992.63,-75.62 1003.91,-73.59 1014.5,-72 1165.7,-49.37 1342.14,-34.18 1451.6,-26.06"/>
<polygon fill="black" stroke="black" points="1451.94,-29.55 1461.66,-25.32 1451.43,-22.57 1451.94,-29.55"/>
</g>
<!-- triqs_cthyb&#45;&gt;conda&#45;forge&#45;pinning -->
<g id="edge69" class="edge">
<title>triqs_cthyb&#45;&gt;conda&#45;forge&#45;pinning</title>
<path fill="none" stroke="black" d="M710.92,-77.61C721.28,-75.46 732.22,-73.43 742.5,-72 991.44,-37.3 1286.44,-25.24 1443.99,-21.11"/>
<polygon fill="black" stroke="black" points="1444.26,-24.6 1454.17,-20.85 1444.08,-17.6 1444.26,-24.6"/>
</g>
<!-- hdfeos5 -->
<g id="node21" class="node">
<title>hdfeos5</title>
<g id="a_node21"><a xlink:href="https://github.com/conda-forge/hdfeos5-feedstock/pull/27" xlink:title="hdfeos5">
<ellipse fill="#31688e" stroke="black" cx="1436.5" cy="-234" rx="45" ry="18"/>
<text text-anchor="middle" x="1436.5" y="-230.3" font-family="Times,serif" font-size="14.00" fill="white">hdfeos5</text>
</a>
</g>
</g>
<!-- hdfeos5&#45;&gt;conda&#45;forge&#45;pinning -->
<g id="edge34" class="edge">
<title>hdfeos5&#45;&gt;conda&#45;forge&#45;pinning</title>
<path fill="none" stroke="black" d="M1438.35,-215.89C1442.54,-184.33 1455.29,-116.14 1490.5,-72 1499.48,-60.74 1511.26,-50.33 1522.38,-41.78"/>
<polygon fill="black" stroke="black" points="1524.75,-44.38 1530.69,-35.61 1520.58,-38.75 1524.75,-44.38"/>
</g>
<!-- ncl -->
<g id="node22" class="node">
<title>ncl</title>
<g id="a_node22"><a xlink:href="https://github.com/conda-forge/ncl-feedstock" xlink:title="ncl">
<ellipse fill="#fde725" stroke="black" cx="1491.5" cy="-162" rx="27" ry="18"/>
<text text-anchor="middle" x="1491.5" y="-158.3" font-family="Times,serif" font-size="14.00">ncl</text>
</a>
</g>
</g>
<!-- hdfeos5&#45;&gt;ncl -->
<g id="edge35" class="edge">
<title>hdfeos5&#45;&gt;ncl</title>
<path fill="none" stroke="black" d="M1449.53,-216.41C1456.51,-207.53 1465.23,-196.44 1472.9,-186.67"/>
<polygon fill="black" stroke="black" points="1475.89,-188.54 1479.31,-178.51 1470.38,-184.21 1475.89,-188.54"/>
</g>
<!-- pynio -->
<g id="node23" class="node">
<title>pynio</title>
<g id="a_node23"><a xlink:href="https://github.com/conda-forge/pynio-feedstock" xlink:title="pynio">
<ellipse fill="#fde725" stroke="black" cx="1381.5" cy="-90" rx="35.19" ry="18"/>
<text text-anchor="middle" x="1381.5" y="-86.3" font-family="Times,serif" font-size="14.00">pynio</text>
</a>
</g>
</g>
<!-- hdfeos5&#45;&gt;pynio -->
<g id="edge36" class="edge">
<title>hdfeos5&#45;&gt;pynio</title>
<path fill="none" stroke="black" d="M1429.97,-216.15C1420.51,-191.71 1402.87,-146.17 1391.68,-117.29"/>
<polygon fill="black" stroke="black" points="1394.89,-115.89 1388.02,-107.82 1388.36,-118.41 1394.89,-115.89"/>
</g>
<!-- ncl&#45;&gt;conda&#45;forge&#45;pinning -->
<g id="edge37" class="edge">
<title>ncl&#45;&gt;conda&#45;forge&#45;pinning</title>
<path fill="none" stroke="black" d="M1491.48,-143.69C1492.12,-125.06 1495.05,-95.01 1506.5,-72 1511.86,-61.23 1520.14,-51.14 1528.43,-42.72"/>
<polygon fill="black" stroke="black" points="1530.87,-45.23 1535.65,-35.77 1526.02,-40.19 1530.87,-45.23"/>
</g>
<!-- pynio&#45;&gt;conda&#45;forge&#45;pinning -->
<g id="edge38" class="edge">
<title>pynio&#45;&gt;conda&#45;forge&#45;pinning</title>
<path fill="none" stroke="black" d="M1408.46,-78.22C1434.79,-67.69 1475.46,-51.42 1507.51,-38.6"/>
<polygon fill="black" stroke="black" points="1509.17,-41.7 1517.16,-34.74 1506.57,-35.2 1509.17,-41.7"/>
</g>
<!-- hyperion&#45;fortran -->
<g id="node24" class="node">
<title>hyperion&#45;fortran</title>
<g id="a_node24"><a xlink:href="https://github.com/conda-forge/hyperion-fortran-feedstock/pull/18" xlink:title="hyperion fortran">
<ellipse fill="#31688e" stroke="black" cx="1546.5" cy="-378" rx="89.08" ry="18"/>
<text text-anchor="middle" x="1546.5" y="-374.3" font-family="Times,serif" font-size="14.00" fill="white">hyperion fortran</text>
</a>
</g>
</g>
<!-- hyperion&#45;fortran&#45;&gt;conda&#45;forge&#45;pinning -->
<g id="edge39" class="edge">
<title>hyperion&#45;fortran&#45;&gt;conda&#45;forge&#45;pinning</title>
<path fill="none" stroke="black" d="M1545.89,-359.69C1544.43,-316.97 1540.74,-203.06 1539.5,-108 1539.29,-92 1537.03,-87.81 1539.5,-72 1540.86,-63.31 1543.4,-54.1 1546.11,-45.84"/>
<polygon fill="black" stroke="black" points="1549.44,-46.93 1549.43,-36.33 1542.83,-44.62 1549.44,-46.93"/>
</g>
<!-- libcdms -->
<g id="node25" class="node">
<title>libcdms</title>
<g id="a_node25"><a xlink:href="https://github.com/conda-forge/libcdms-feedstock/pull/32" xlink:title="libcdms">
<ellipse fill="#31688e" stroke="black" cx="1593.5" cy="-90" rx="45" ry="18"/>
<text text-anchor="middle" x="1593.5" y="-86.3" font-family="Times,serif" font-size="14.00" fill="white">libcdms</text>
</a>
</g>
</g>
<!-- libcdms&#45;&gt;conda&#45;forge&#45;pinning -->
<g id="edge40" class="edge">
<title>libcdms&#45;&gt;conda&#45;forge&#45;pinning</title>
<path fill="none" stroke="black" d="M1584.54,-72.05C1580.29,-64.01 1575.11,-54.2 1570.36,-45.23"/>
<polygon fill="black" stroke="black" points="1573.4,-43.48 1565.63,-36.28 1567.21,-46.75 1573.4,-43.48"/>
</g>
<!-- libmatio -->
<g id="node26" class="node">
<title>libmatio</title>
<g id="a_node26"><a xlink:href="https://github.com/conda-forge/libmatio-feedstock/pull/28" xlink:title="libmatio">
<ellipse fill="#31688e" stroke="black" cx="1781.5" cy="-378" rx="50.09" ry="18"/>
<text text-anchor="middle" x="1781.5" y="-374.3" font-family="Times,serif" font-size="14.00" fill="white">libmatio</text>
</a>
</g>
</g>
<!-- libmatio&#45;&gt;conda&#45;forge&#45;pinning -->
<g id="edge41" class="edge">
<title>libmatio&#45;&gt;conda&#45;forge&#45;pinning</title>
<path fill="none" stroke="black" d="M1792.27,-360.13C1822.88,-309.89 1903.59,-159.3 1831.5,-72 1810,-45.97 1730.91,-32.58 1663.03,-25.78"/>
<polygon fill="black" stroke="black" points="1662.96,-22.26 1652.67,-24.79 1662.29,-29.23 1662.96,-22.26"/>
</g>
<!-- pytrilinos -->
<g id="node27" class="node">
<title>pytrilinos</title>
<g id="a_node27"><a xlink:href="https://github.com/conda-forge/pytrilinos-feedstock" xlink:title="pytrilinos">
<ellipse fill="#fde725" stroke="black" cx="1907.5" cy="-306" rx="60" ry="18"/>
<text text-anchor="middle" x="1907.5" y="-302.3" font-family="Times,serif" font-size="14.00">pytrilinos</text>
</a>
</g>
</g>
<!-- libmatio&#45;&gt;pytrilinos -->
<g id="edge42" class="edge">
<title>libmatio&#45;&gt;pytrilinos</title>
<path fill="none" stroke="black" d="M1807.61,-362.5C1825.98,-352.29 1850.83,-338.48 1871.14,-327.2"/>
<polygon fill="black" stroke="black" points="1873.08,-330.13 1880.12,-322.21 1869.68,-324.01 1873.08,-330.13"/>
</g>
<!-- trilinos -->
<g id="node28" class="node">
<title>trilinos</title>
<g id="a_node28"><a xlink:href="https://github.com/conda-forge/trilinos-feedstock" xlink:title="trilinos">
<ellipse fill="#fde725" stroke="black" cx="1635.5" cy="-234" rx="50.09" ry="18"/>
<text text-anchor="middle" x="1635.5" y="-230.3" font-family="Times,serif" font-size="14.00">trilinos</text>
</a>
</g>
</g>
<!-- libmatio&#45;&gt;trilinos -->
<g id="edge43" class="edge">
<title>libmatio&#45;&gt;trilinos</title>
<path fill="none" stroke="black" d="M1762.04,-361.28C1749.59,-350.99 1733.24,-337.08 1719.5,-324 1697.35,-302.91 1673.55,-277.4 1656.96,-259.1"/>
<polygon fill="black" stroke="black" points="1659.17,-256.33 1649.87,-251.25 1653.97,-261.02 1659.17,-256.33"/>
</g>
<!-- openmeeg -->
<g id="node29" class="node">
<title>openmeeg</title>
<g id="a_node29"><a xlink:href="https://github.com/conda-forge/openmeeg-feedstock" xlink:title="openmeeg">
<ellipse fill="#fde725" stroke="black" cx="1703.5" cy="-162" rx="50.09" ry="18"/>
<text text-anchor="middle" x="1703.5" y="-158.3" font-family="Times,serif" font-size="14.00">openmeeg</text>
</a>
</g>
</g>
<!-- libmatio&#45;&gt;openmeeg -->
<g id="edge44" class="edge">
<title>libmatio&#45;&gt;openmeeg</title>
<path fill="none" stroke="black" d="M1775.25,-359.85C1761.67,-322.58 1729.38,-234 1713.16,-189.49"/>
<polygon fill="black" stroke="black" points="1716.39,-188.13 1709.67,-179.94 1709.81,-190.53 1716.39,-188.13"/>
</g>
<!-- libvips -->
<g id="node30" class="node">
<title>libvips</title>
<g id="a_node30"><a xlink:href="https://github.com/conda-forge/libvips-feedstock" xlink:title="libvips">
<ellipse fill="#fde725" stroke="black" cx="1777.5" cy="-90" rx="45" ry="18"/>
<text text-anchor="middle" x="1777.5" y="-86.3" font-family="Times,serif" font-size="14.00">libvips</text>
</a>
</g>
</g>
<!-- libmatio&#45;&gt;libvips -->
<g id="edge45" class="edge">
<title>libmatio&#45;&gt;libvips</title>
<path fill="none" stroke="black" d="M1781.26,-359.97C1780.59,-312.29 1778.71,-177.18 1777.89,-118.63"/>
<polygon fill="black" stroke="black" points="1781.38,-118.26 1777.74,-108.31 1774.38,-118.35 1781.38,-118.26"/>
</g>
<!-- pytrilinos&#45;&gt;conda&#45;forge&#45;pinning -->
<g id="edge46" class="edge">
<title>pytrilinos&#45;&gt;conda&#45;forge&#45;pinning</title>
<path fill="none" stroke="black" d="M1902.69,-287.74C1896.15,-263.75 1884.48,-218.88 1877.5,-180 1868.96,-132.41 1897.81,-107.04 1864.5,-72 1837.49,-43.59 1742.83,-30.36 1665.5,-24.23"/>
<polygon fill="black" stroke="black" points="1665.43,-20.72 1655.19,-23.45 1664.9,-27.7 1665.43,-20.72"/>
</g>
<!-- trilinos&#45;&gt;conda&#45;forge&#45;pinning -->
<g id="edge47" class="edge">
<title>trilinos&#45;&gt;conda&#45;forge&#45;pinning</title>
<path fill="none" stroke="black" d="M1637.23,-215.92C1640.43,-184.22 1647,-118.51 1647.5,-108 1648.27,-92.02 1655.47,-85.87 1647.5,-72 1639.28,-57.69 1625.54,-46.89 1611.2,-38.89"/>
<polygon fill="black" stroke="black" points="1612.72,-35.74 1602.23,-34.27 1609.52,-41.96 1612.72,-35.74"/>
</g>
<!-- openmeeg&#45;&gt;conda&#45;forge&#45;pinning -->
<g id="edge48" class="edge">
<title>openmeeg&#45;&gt;conda&#45;forge&#45;pinning</title>
<path fill="none" stroke="black" d="M1703.41,-143.89C1702.42,-124.31 1697.97,-92.33 1680.5,-72 1666.41,-55.6 1646.34,-44.13 1626.44,-36.18"/>
<polygon fill="black" stroke="black" points="1627.62,-32.88 1617.03,-32.65 1625.17,-39.44 1627.62,-32.88"/>
</g>
<!-- libvips&#45;&gt;conda&#45;forge&#45;pinning -->
<g id="edge49" class="edge">
<title>libvips&#45;&gt;conda&#45;forge&#45;pinning</title>
<path fill="none" stroke="black" d="M1743.45,-78.22C1708.93,-67.28 1654.87,-50.16 1613.75,-37.13"/>
<polygon fill="black" stroke="black" points="1614.72,-33.77 1604.13,-34.09 1612.6,-40.44 1614.72,-33.77"/>
</g>
<!-- marray -->
<g id="node31" class="node">
<title>marray</title>
<g id="a_node31"><a xlink:href="https://github.com/conda-forge/marray-feedstock/pull/8" xlink:title="marray">
<ellipse fill="#31688e" stroke="black" cx="1926.5" cy="-162" rx="40.5" ry="18"/>
<text text-anchor="middle" x="1926.5" y="-158.3" font-family="Times,serif" font-size="14.00" fill="white">marray</text>
</a>
</g>
</g>
<!-- marray&#45;&gt;conda&#45;forge&#45;pinning -->
<g id="edge50" class="edge">
<title>marray&#45;&gt;conda&#45;forge&#45;pinning</title>
<path fill="none" stroke="black" d="M1927.06,-143.76C1926.71,-123.43 1922.78,-90.14 1902.5,-72 1868.43,-41.52 1754.9,-28.56 1667.07,-23.06"/>
<polygon fill="black" stroke="black" points="1667.23,-19.56 1657.04,-22.45 1666.81,-26.55 1667.23,-19.56"/>
</g>
<!-- octave -->
<g id="node32" class="node">
<title>octave</title>
<g id="a_node32"><a xlink:href="https://github.com/conda-forge/octave-feedstock/pull/39" xlink:title="octave">
<ellipse fill="#31688e" stroke="black" cx="1964.5" cy="-234" rx="40.5" ry="18"/>
<text text-anchor="middle" x="1964.5" y="-230.3" font-family="Times,serif" font-size="14.00" fill="white">octave</text>
</a>
</g>
</g>
<!-- octave&#45;&gt;conda&#45;forge&#45;pinning -->
<g id="edge51" class="edge">
<title>octave&#45;&gt;conda&#45;forge&#45;pinning</title>
<path fill="none" stroke="black" d="M1971.04,-216.22C1977.15,-198.04 1984.26,-168.37 1976.5,-144 1964.61,-106.63 1958.96,-92.45 1925.5,-72 1882.74,-45.87 1756.69,-31.96 1663.76,-25.04"/>
<polygon fill="black" stroke="black" points="1663.97,-21.55 1653.74,-24.32 1663.46,-28.53 1663.97,-21.55"/>
</g>
<!-- pyne -->
<g id="node33" class="node">
<title>pyne</title>
<g id="a_node33"><a xlink:href="https://github.com/conda-forge/pyne-feedstock/pull/40" xlink:title="pyne">
<ellipse fill="#31688e" stroke="black" cx="2016.5" cy="-306" rx="30.59" ry="18"/>
<text text-anchor="middle" x="2016.5" y="-302.3" font-family="Times,serif" font-size="14.00" fill="white">pyne</text>
</a>
</g>
</g>
<!-- pyne&#45;&gt;conda&#45;forge&#45;pinning -->
<g id="edge52" class="edge">
<title>pyne&#45;&gt;conda&#45;forge&#45;pinning</title>
<path fill="none" stroke="black" d="M2018.54,-287.93C2022.81,-243.25 2027.1,-122.8 1957.5,-72 1912.69,-39.3 1770.46,-26.77 1668.12,-21.98"/>
<polygon fill="black" stroke="black" points="1668.19,-18.48 1658.04,-21.52 1667.87,-25.47 1668.19,-18.48"/>
</g>
<!-- r&#45;hdf5r -->
<g id="node34" class="node">
<title>r&#45;hdf5r</title>
<g id="a_node34"><a xlink:href="https://github.com/conda-forge/r-hdf5r-feedstock/pull/12" xlink:title="r hdf5r">
<ellipse fill="#31688e" stroke="black" cx="2075.5" cy="-378" rx="45" ry="18"/>
<text text-anchor="middle" x="2075.5" y="-374.3" font-family="Times,serif" font-size="14.00" fill="white">r hdf5r</text>
</a>
</g>
</g>
<!-- r&#45;hdf5r&#45;&gt;conda&#45;forge&#45;pinning -->
<g id="edge53" class="edge">
<title>r&#45;hdf5r&#45;&gt;conda&#45;forge&#45;pinning</title>
<path fill="none" stroke="black" d="M2077,-359.72C2080.6,-305.56 2083.21,-138.72 1986.5,-72 1936.59,-37.57 1779.01,-25.49 1669.16,-21.26"/>
<polygon fill="black" stroke="black" points="1669.14,-17.75 1659.02,-20.88 1668.88,-24.75 1669.14,-17.75"/>
</g>
<!-- r&#45;ncdf4 -->
<g id="node35" class="node">
<title>r&#45;ncdf4</title>
<g id="a_node35"><a xlink:href="https://github.com/conda-forge/r-ncdf4-feedstock/pull/20" xlink:title="r ncdf4">
<ellipse fill="#31688e" stroke="black" cx="2113.5" cy="-90" rx="45" ry="18"/>
<text text-anchor="middle" x="2113.5" y="-86.3" font-family="Times,serif" font-size="14.00" fill="white">r ncdf4</text>
</a>
</g>
</g>
<!-- r&#45;ncdf4&#45;&gt;conda&#45;forge&#45;pinning -->
<g id="edge54" class="edge">
<title>r&#45;ncdf4&#45;&gt;conda&#45;forge&#45;pinning</title>
<path fill="none" stroke="black" d="M2079.43,-78.09C2071.32,-75.8 2062.66,-73.6 2054.5,-72 1921.27,-45.92 1765.31,-31.94 1663.9,-25"/>
<polygon fill="black" stroke="black" points="1663.86,-21.49 1653.65,-24.31 1663.39,-28.47 1663.86,-21.49"/>
</g>
<!-- shogun -->
<g id="node36" class="node">
<title>shogun</title>
<g id="a_node36"><a xlink:href="https://github.com/conda-forge/shogun-feedstock/pull/20" xlink:title="shogun">
<ellipse fill="#31688e" stroke="black" cx="2155.5" cy="-162" rx="40.5" ry="18"/>
<text text-anchor="middle" x="2155.5" y="-158.3" font-family="Times,serif" font-size="14.00" fill="white">shogun</text>
</a>
</g>
</g>
<!-- shogun&#45;&gt;conda&#45;forge&#45;pinning -->
<g id="edge55" class="edge">
<title>shogun&#45;&gt;conda&#45;forge&#45;pinning</title>
<path fill="none" stroke="black" d="M2164.72,-144.23C2174.24,-124.37 2185.41,-91.53 2167.5,-72 2134.58,-36.1 1836.46,-24.44 1669.15,-20.71"/>
<polygon fill="black" stroke="black" points="1669.14,-17.21 1659.06,-20.49 1668.99,-24.21 1669.14,-17.21"/>
</g>
<!-- vigra -->
<g id="node37" class="node">
<title>vigra</title>
<g id="a_node37"><a xlink:href="https://github.com/conda-forge/vigra-feedstock/pull/54" xlink:title="vigra">
<ellipse fill="#31688e" stroke="black" cx="2199.5" cy="-234" rx="35.19" ry="18"/>
<text text-anchor="middle" x="2199.5" y="-230.3" font-family="Times,serif" font-size="14.00" fill="white">vigra</text>
</a>
</g>
</g>
<!-- vigra&#45;&gt;conda&#45;forge&#45;pinning -->
<g id="edge56" class="edge">
<title>vigra&#45;&gt;conda&#45;forge&#45;pinning</title>
<path fill="none" stroke="black" d="M2204.6,-216.14C2213.63,-182.44 2227.74,-107 2185.5,-72 2146.67,-39.82 1838.45,-26.52 1668.34,-21.58"/>
<polygon fill="black" stroke="black" points="1668.43,-18.08 1658.34,-21.29 1668.23,-25.08 1668.43,-18.08"/>
</g>
<!-- yaafe -->
<g id="node38" class="node">
<title>yaafe</title>
<g id="a_node38"><a xlink:href="https://github.com/conda-forge/yaafe-feedstock/pull/9" xlink:title="yaafe">
<ellipse fill="#31688e" stroke="black" cx="2237.5" cy="-306" rx="35.19" ry="18"/>
<text text-anchor="middle" x="2237.5" y="-302.3" font-family="Times,serif" font-size="14.00" fill="white">yaafe</text>
</a>
</g>
</g>
<!-- yaafe&#45;&gt;conda&#45;forge&#45;pinning -->
<g id="edge57" class="edge">
<title>yaafe&#45;&gt;conda&#45;forge&#45;pinning</title>
<path fill="none" stroke="black" d="M2242.07,-288.09C2252.77,-244.31 2273.94,-126.88 2210.5,-72 2170.57,-37.46 1845.45,-25.15 1669.17,-20.99"/>
<polygon fill="black" stroke="black" points="1669.16,-17.49 1659.08,-20.75 1668.99,-24.48 1669.16,-17.49"/>
</g>
<!-- alps -->
<g id="node39" class="node">
<title>alps</title>
<g id="a_node39"><a xlink:href="https://github.com/conda-forge/alps-feedstock/pull/31" xlink:title="alps">
<ellipse fill="#31688e" stroke="black" cx="2300.5" cy="-378" rx="30.59" ry="18"/>
<text text-anchor="middle" x="2300.5" y="-374.3" font-family="Times,serif" font-size="14.00" fill="white">alps</text>
</a>
</g>
</g>
<!-- alps&#45;&gt;conda&#45;forge&#45;pinning -->
<g id="edge58" class="edge">
<title>alps&#45;&gt;conda&#45;forge&#45;pinning</title>
<path fill="none" stroke="black" d="M2300.5,-359.95C2300.5,-333.29 2300.5,-280.11 2300.5,-235 2300.5,-235 2300.5,-235 2300.5,-161 2300.5,-112.54 2279.65,-95.92 2237.5,-72 2189.26,-44.62 1847.82,-28.95 1667.49,-22.5"/>
<polygon fill="black" stroke="black" points="1667.55,-19 1657.43,-22.15 1667.3,-26 1667.55,-19"/>
</g>
<!-- spdlib -->
<g id="node40" class="node">
<title>spdlib</title>
<g id="a_node40"><a xlink:href="https://github.com/conda-forge/spdlib-feedstock/pull/15" xlink:title="spdlib">
<ellipse fill="#31688e" stroke="black" cx="2369.5" cy="-90" rx="40.5" ry="18"/>
<text text-anchor="middle" x="2369.5" y="-86.3" font-family="Times,serif" font-size="14.00" fill="white">spdlib</text>
</a>
</g>
</g>
<!-- spdlib&#45;&gt;conda&#45;forge&#45;pinning -->
<g id="edge59" class="edge">
<title>spdlib&#45;&gt;conda&#45;forge&#45;pinning</title>
<path fill="none" stroke="black" d="M2338.69,-78.11C2330.89,-75.74 2322.46,-73.49 2314.5,-72 2088.71,-29.79 1819.39,-20.48 1670.22,-18.84"/>
<polygon fill="black" stroke="black" points="1670.17,-15.34 1660.13,-18.74 1670.1,-22.34 1670.17,-15.34"/>
</g>
<!-- mpb -->
<g id="node41" class="node">
<title>mpb</title>
<g id="a_node41"><a xlink:href="https://github.com/conda-forge/mpb-feedstock/pull/22" xlink:title="mpb">
<ellipse fill="#31688e" stroke="black" cx="1343.5" cy="-162" rx="27" ry="18"/>
<text text-anchor="middle" x="1343.5" y="-158.3" font-family="Times,serif" font-size="14.00" fill="white">mpb</text>
</a>
</g>
</g>
<!-- mpb&#45;&gt;conda&#45;forge&#45;pinning -->
<g id="edge60" class="edge">
<title>mpb&#45;&gt;conda&#45;forge&#45;pinning</title>
<path fill="none" stroke="black" d="M1336.41,-144.62C1329.21,-125.15 1321.22,-92.69 1337.5,-72 1353.38,-51.82 1410.57,-38.4 1462.52,-30.11"/>
<polygon fill="black" stroke="black" points="1463.14,-33.56 1472.49,-28.57 1462.07,-26.64 1463.14,-33.56"/>
</g>
<!-- mpb&#45;&gt;pymeep -->
<g id="edge61" class="edge">
<title>mpb&#45;&gt;pymeep</title>
<path fill="none" stroke="black" d="M1325.82,-147.83C1312.27,-137.74 1293.3,-123.62 1277.67,-111.98"/>
<polygon fill="black" stroke="black" points="1279.49,-108.97 1269.38,-105.8 1275.31,-114.58 1279.49,-108.97"/>
</g>
<!-- openpmd&#45;api -->
<g id="node42" class="node">
<title>openpmd&#45;api</title>
<g id="a_node42"><a xlink:href="https://github.com/conda-forge/openpmd-api-feedstock" xlink:title="openpmd api">
<ellipse fill="#fde725" stroke="black" cx="2531.5" cy="-90" rx="64.5" ry="18"/>
<text text-anchor="middle" x="2531.5" y="-86.3" font-family="Times,serif" font-size="14.00">openpmd api</text>
</a>
</g>
</g>
<!-- openpmd&#45;api&#45;&gt;conda&#45;forge&#45;pinning -->
<g id="edge62" class="edge">
<title>openpmd&#45;api&#45;&gt;conda&#45;forge&#45;pinning</title>
<path fill="none" stroke="black" d="M2484.5,-77.65C2474.02,-75.47 2462.93,-73.42 2452.5,-72 2172.77,-33.86 1840.21,-23.16 1669.7,-20.16"/>
<polygon fill="black" stroke="black" points="1669.51,-16.66 1659.46,-19.99 1669.4,-23.66 1669.51,-16.66"/>
</g>
<!-- cmor -->
<g id="node43" class="node">
<title>cmor</title>
<g id="a_node43"><a xlink:href="https://github.com/conda-forge/cmor-feedstock/pull/22" xlink:title="cmor">
<ellipse fill="#31688e" stroke="black" cx="2603.5" cy="-162" rx="30.59" ry="18"/>
<text text-anchor="middle" x="2603.5" y="-158.3" font-family="Times,serif" font-size="14.00" fill="white">cmor</text>
</a>
</g>
</g>
<!-- cmor&#45;&gt;conda&#45;forge&#45;pinning -->
<g id="edge63" class="edge">
<title>cmor&#45;&gt;conda&#45;forge&#45;pinning</title>
<path fill="none" stroke="black" d="M2610.04,-144.42C2616.7,-124.43 2623.71,-91.15 2605.5,-72 2573.63,-38.48 1933.38,-24.8 1669.09,-20.57"/>
<polygon fill="black" stroke="black" points="1669.14,-17.07 1659.09,-20.41 1669.03,-24.07 1669.14,-17.07"/>
</g>
<!-- freecad -->
<g id="node44" class="node">
<title>freecad</title>
<g id="a_node44"><a xlink:href="https://github.com/conda-forge/freecad-feedstock/pull/38" xlink:title="freecad">
<ellipse fill="#31688e" stroke="black" cx="2627.5" cy="-234" rx="45" ry="18"/>
<text text-anchor="middle" x="2627.5" y="-230.3" font-family="Times,serif" font-size="14.00" fill="white">freecad</text>
</a>
</g>
</g>
<!-- freecad&#45;&gt;conda&#45;forge&#45;pinning -->
<g id="edge64" class="edge">
<title>freecad&#45;&gt;conda&#45;forge&#45;pinning</title>
<path fill="none" stroke="black" d="M2634.19,-216.04C2646.32,-182.16 2666.96,-106.42 2624.5,-72 2587.86,-42.3 1936.11,-26.35 1669.14,-21.04"/>
<polygon fill="black" stroke="black" points="1669.1,-17.54 1659.03,-20.84 1668.96,-24.54 1669.1,-17.54"/>
</g>
<!-- scilab -->
<g id="node45" class="node">
<title>scilab</title>
<g id="a_node45"><a xlink:href="https://github.com/conda-forge/scilab-feedstock/pull/12" xlink:title="scilab">
<ellipse fill="#31688e" stroke="black" cx="2669.5" cy="-306" rx="40.5" ry="18"/>
<text text-anchor="middle" x="2669.5" y="-302.3" font-family="Times,serif" font-size="14.00" fill="white">scilab</text>
</a>
</g>
</g>
<!-- scilab&#45;&gt;conda&#45;forge&#45;pinning -->
<g id="edge65" class="edge">
<title>scilab&#45;&gt;conda&#45;forge&#45;pinning</title>
<path fill="none" stroke="black" d="M2674.75,-287.95C2687.16,-243.85 2712.65,-125.71 2648.5,-72 2611.41,-40.95 1940.79,-25.74 1669.25,-20.83"/>
<polygon fill="black" stroke="black" points="1669.04,-17.33 1658.98,-20.65 1668.92,-24.33 1669.04,-17.33"/>
</g>
<!-- adios2 -->
<g id="node46" class="node">
<title>adios2</title>
<g id="a_node46"><a xlink:href="https://github.com/conda-forge/adios2-feedstock/pull/11" xlink:title="adios2">
<ellipse fill="#31688e" stroke="black" cx="2476.5" cy="-162" rx="40.5" ry="18"/>
<text text-anchor="middle" x="2476.5" y="-158.3" font-family="Times,serif" font-size="14.00" fill="white">adios2</text>
</a>
</g>
</g>
<!-- adios2&#45;&gt;conda&#45;forge&#45;pinning -->
<g id="edge66" class="edge">
<title>adios2&#45;&gt;conda&#45;forge&#45;pinning</title>
<path fill="none" stroke="black" d="M2471.04,-144.07C2463.28,-123.07 2446.87,-88.08 2419.5,-72 2356.44,-34.94 1889.16,-23.59 1669.72,-20.28"/>
<polygon fill="black" stroke="black" points="1669.51,-16.78 1659.46,-20.13 1669.4,-23.78 1669.51,-16.78"/>
</g>
<!-- adios2&#45;&gt;openpmd&#45;api -->
<g id="edge67" class="edge">
<title>adios2&#45;&gt;openpmd&#45;api</title>
<path fill="none" stroke="black" d="M2489.26,-144.76C2496.03,-136.14 2504.5,-125.36 2512.07,-115.73"/>
<polygon fill="black" stroke="black" points="2515,-117.66 2518.43,-107.63 2509.5,-113.33 2515,-117.66"/>
</g>
<!-- bonsu -->
<g id="node47" class="node">
<title>bonsu</title>
<g id="a_node47"><a xlink:href="https://github.com/conda-forge/bonsu-feedstock/pull/5" xlink:title="bonsu">
<ellipse fill="#31688e" stroke="black" cx="2738.5" cy="-378" rx="35.19" ry="18"/>
<text text-anchor="middle" x="2738.5" y="-374.3" font-family="Times,serif" font-size="14.00" fill="white">bonsu</text>
</a>
</g>
</g>
<!-- bonsu&#45;&gt;conda&#45;forge&#45;pinning -->
<g id="edge68" class="edge">
<title>bonsu&#45;&gt;conda&#45;forge&#45;pinning</title>
<path fill="none" stroke="black" d="M2738.5,-359.95C2738.5,-333.29 2738.5,-280.11 2738.5,-235 2738.5,-235 2738.5,-235 2738.5,-161 2738.5,-112.54 2718.01,-95.28 2675.5,-72 2589.03,-24.64 1937.52,-19.05 1670.31,-18.78"/>
<polygon fill="black" stroke="black" points="1670.2,-15.28 1660.2,-18.77 1670.2,-22.28 1670.2,-15.28"/>
</g>
<!-- dagmc -->
<g id="node48" class="node">
<title>dagmc</title>
<g id="a_node48"><a xlink:href="https://github.com/conda-forge/dagmc-feedstock/pull/1" xlink:title="dagmc">
<ellipse fill="#31688e" stroke="black" cx="2801.5" cy="-90" rx="35.19" ry="18"/>
<text text-anchor="middle" x="2801.5" y="-86.3" font-family="Times,serif" font-size="14.00" fill="white">dagmc</text>
</a>
</g>
</g>
<!-- dagmc&#45;&gt;conda&#45;forge&#45;pinning -->
<g id="edge70" class="edge">
<title>dagmc&#45;&gt;conda&#45;forge&#45;pinning</title>
<path fill="none" stroke="black" d="M2774.93,-78.22C2767.76,-75.74 2759.93,-73.42 2752.5,-72 2547.28,-32.72 1926.65,-22.45 1669.74,-19.85"/>
<polygon fill="black" stroke="black" points="1669.67,-16.35 1659.64,-19.75 1669.6,-23.35 1669.67,-16.35"/>
</g>
<!-- nccmp -->
<g id="node49" class="node">
<title>nccmp</title>
<g id="a_node49"><a xlink:href="https://github.com/conda-forge/nccmp-feedstock/pull/2" xlink:title="nccmp">
<ellipse fill="#31688e" stroke="black" cx="2864.5" cy="-162" rx="35.19" ry="18"/>
<text text-anchor="middle" x="2864.5" y="-158.3" font-family="Times,serif" font-size="14.00" fill="white">nccmp</text>
</a>
</g>
</g>
<!-- nccmp&#45;&gt;conda&#45;forge&#45;pinning -->
<g id="edge71" class="edge">
<title>nccmp&#45;&gt;conda&#45;forge&#45;pinning</title>
<path fill="none" stroke="black" d="M2866.44,-143.84C2867.69,-123.28 2866.15,-89.42 2845.5,-72 2800.95,-34.41 1976.3,-22.91 1669.89,-19.92"/>
<polygon fill="black" stroke="black" points="1669.68,-16.42 1659.65,-19.82 1669.61,-23.42 1669.68,-16.42"/>
</g>
</g>
</svg>
