<?xml version="1.0" encoding="UTF-8" standalone="no"?>
<!DOCTYPE svg PUBLIC "-//W3C//DTD SVG 1.1//EN"
 "http://www.w3.org/Graphics/SVG/1.1/DTD/svg11.dtd">
<!-- Generated by graphviz version 2.42.3 (20191010.1750)
 -->
<!-- Title: %3 Pages: 1 -->
<svg width="2253pt" height="476pt"
 viewBox="0.00 0.00 2252.60 476.00" xmlns="http://www.w3.org/2000/svg" xmlns:xlink="http://www.w3.org/1999/xlink">
<g id="graph0" class="graph" transform="scale(1 1) rotate(0) translate(4 472)">
<title>%3</title>
<polygon fill="white" stroke="transparent" points="-4,4 -4,-472 2248.6,-472 2248.6,4 -4,4"/>
<!-- caffe -->
<g id="node1" class="node">
<title>caffe</title>
<g id="a_node1"><a xlink:href="https://github.com/conda-forge/caffe-feedstock" xlink:title="caffe">
<ellipse fill="#fde725" stroke="black" cx="1121.5" cy="-378" rx="35.19" ry="18"/>
<text text-anchor="middle" x="1121.5" y="-374.3" font-family="Times,serif" font-size="14.00">caffe</text>
</a>
</g>
</g>
<!-- conda&#45;forge&#45;pinning -->
<g id="node2" class="node">
<title>conda&#45;forge&#45;pinning</title>
<ellipse fill="none" stroke="black" cx="1197.5" cy="-18" rx="103.5" ry="18"/>
<text text-anchor="middle" x="1197.5" y="-14.3" font-family="Times,serif" font-size="14.00">conda&#45;forge&#45;pinning</text>
</g>
<!-- caffe&#45;&gt;conda&#45;forge&#45;pinning -->
<g id="edge1" class="edge">
<title>caffe&#45;&gt;conda&#45;forge&#45;pinning</title>
<path fill="none" stroke="black" d="M1121.5,-359.95C1121.5,-333.29 1121.5,-280.11 1121.5,-235 1121.5,-235 1121.5,-235 1121.5,-161 1121.5,-120.03 1125.16,-107.56 1145.5,-72 1151.64,-61.27 1160.48,-51.14 1169.13,-42.67"/>
<polygon fill="black" stroke="black" points="1171.7,-45.06 1176.61,-35.68 1166.92,-39.95 1171.7,-45.06"/>
</g>
<!-- cyclus -->
<g id="node3" class="node">
<title>cyclus</title>
<g id="a_node3"><a xlink:href="https://github.com/conda-forge/cyclus-feedstock/pull/56" xlink:title="cyclus">
<ellipse fill="#31688e" stroke="black" cx="40.5" cy="-90" rx="40.5" ry="18"/>
<text text-anchor="middle" x="40.5" y="-86.3" font-family="Times,serif" font-size="14.00" fill="white">cyclus</text>
</a>
</g>
</g>
<!-- cyclus&#45;&gt;conda&#45;forge&#45;pinning -->
<g id="edge2" class="edge">
<title>cyclus&#45;&gt;conda&#45;forge&#45;pinning</title>
<path fill="none" stroke="black" d="M71,-78.08C78.88,-75.67 87.43,-73.42 95.5,-72 282.87,-39.08 842.99,-25.34 1084.56,-20.83"/>
<polygon fill="black" stroke="black" points="1084.84,-24.33 1094.77,-20.64 1084.71,-17.33 1084.84,-24.33"/>
</g>
<!-- fenics -->
<g id="node4" class="node">
<title>fenics</title>
<g id="a_node4"><a xlink:href="https://github.com/conda-forge/fenics-feedstock/pull/107" xlink:title="fenics">
<ellipse fill="#31688e" stroke="black" cx="93.5" cy="-162" rx="40.5" ry="18"/>
<text text-anchor="middle" x="93.5" y="-158.3" font-family="Times,serif" font-size="14.00" fill="white">fenics</text>
</a>
</g>
</g>
<!-- fenics&#45;&gt;conda&#45;forge&#45;pinning -->
<g id="edge3" class="edge">
<title>fenics&#45;&gt;conda&#45;forge&#45;pinning</title>
<path fill="none" stroke="black" d="M98.57,-144.04C105.84,-123.01 121.45,-87.99 148.5,-72 227.36,-25.39 828.71,-19.3 1083.74,-18.83"/>
<polygon fill="black" stroke="black" points="1083.78,-22.33 1093.78,-18.82 1083.77,-15.33 1083.78,-22.33"/>
</g>
<!-- graph -->
<g id="node5" class="node">
<title>graph</title>
<g id="a_node5"><a xlink:href="https://github.com/conda-forge/graph-feedstock/pull/5" xlink:title="graph">
<ellipse fill="#31688e" stroke="black" cx="127.5" cy="-234" rx="35.19" ry="18"/>
<text text-anchor="middle" x="127.5" y="-230.3" font-family="Times,serif" font-size="14.00" fill="white">graph</text>
</a>
</g>
</g>
<!-- graph&#45;&gt;conda&#45;forge&#45;pinning -->
<g id="edge4" class="edge">
<title>graph&#45;&gt;conda&#45;forge&#45;pinning</title>
<path fill="none" stroke="black" d="M133.07,-215.99C145.32,-181.67 178.17,-104.63 235.5,-72 307.6,-30.96 845.75,-21.7 1084.26,-19.61"/>
<polygon fill="black" stroke="black" points="1084.38,-23.11 1094.35,-19.52 1084.32,-16.11 1084.38,-23.11"/>
</g>
<!-- h5py -->
<g id="node6" class="node">
<title>h5py</title>
<g id="a_node6"><a xlink:href="https://github.com/conda-forge/h5py-feedstock/pull/72" xlink:title="h5py">
<ellipse fill="#31688e" stroke="black" cx="845.5" cy="-450" rx="30.59" ry="18"/>
<text text-anchor="middle" x="845.5" y="-446.3" font-family="Times,serif" font-size="14.00" fill="white">h5py</text>
</a>
</g>
</g>
<!-- h5py&#45;&gt;caffe -->
<g id="edge5" class="edge">
<title>h5py&#45;&gt;caffe</title>
<path fill="none" stroke="black" d="M874.06,-443.33C917.33,-434.52 1001.94,-416.42 1072.5,-396 1076.28,-394.91 1080.21,-393.69 1084.11,-392.42"/>
<polygon fill="black" stroke="black" points="1085.31,-395.71 1093.68,-389.22 1083.08,-389.07 1085.31,-395.71"/>
</g>
<!-- h5py&#45;&gt;conda&#45;forge&#45;pinning -->
<g id="edge6" class="edge">
<title>h5py&#45;&gt;conda&#45;forge&#45;pinning</title>
<path fill="none" stroke="black" d="M876.21,-448.73C948.98,-447.38 1128.53,-439.59 1165.5,-396 1175.85,-383.8 1165.88,-376 1165.5,-360 1164.17,-304.4 1159.5,-290.62 1159.5,-235 1159.5,-235 1159.5,-235 1159.5,-161 1159.5,-119.63 1174.73,-73.72 1185.91,-45.61"/>
<polygon fill="black" stroke="black" points="1189.26,-46.67 1189.81,-36.09 1182.78,-44.02 1189.26,-46.67"/>
</g>
<!-- openmc -->
<g id="node7" class="node">
<title>openmc</title>
<g id="a_node7"><a xlink:href="https://github.com/conda-forge/openmc-feedstock" xlink:title="openmc">
<ellipse fill="#fde725" stroke="black" cx="1228.5" cy="-306" rx="40.5" ry="18"/>
<text text-anchor="middle" x="1228.5" y="-302.3" font-family="Times,serif" font-size="14.00">openmc</text>
</a>
</g>
</g>
<!-- h5py&#45;&gt;openmc -->
<g id="edge7" class="edge">
<title>h5py&#45;&gt;openmc</title>
<path fill="none" stroke="black" d="M876.15,-448.38C952.74,-446.24 1149.81,-436.79 1198.5,-396 1216.51,-380.91 1223.75,-354.61 1226.64,-334.5"/>
<polygon fill="black" stroke="black" points="1230.14,-334.69 1227.81,-324.36 1223.19,-333.89 1230.14,-334.69"/>
</g>
<!-- rsgislib -->
<g id="node8" class="node">
<title>rsgislib</title>
<g id="a_node8"><a xlink:href="https://github.com/conda-forge/rsgislib-feedstock" xlink:title="rsgislib">
<ellipse fill="#fde725" stroke="black" cx="230.5" cy="-234" rx="50.09" ry="18"/>
<text text-anchor="middle" x="230.5" y="-230.3" font-family="Times,serif" font-size="14.00">rsgislib</text>
</a>
</g>
</g>
<!-- h5py&#45;&gt;rsgislib -->
<g id="edge8" class="edge">
<title>h5py&#45;&gt;rsgislib</title>
<path fill="none" stroke="black" d="M815.07,-447.91C705.65,-443.73 336.33,-427.42 294.5,-396 251.81,-363.94 237.55,-298.95 232.82,-262.1"/>
<polygon fill="black" stroke="black" points="236.29,-261.61 231.68,-252.07 229.33,-262.4 236.29,-261.61"/>
</g>
<!-- h5utils -->
<g id="node9" class="node">
<title>h5utils</title>
<g id="a_node9"><a xlink:href="https://github.com/conda-forge/h5utils-feedstock" xlink:title="h5utils">
<ellipse fill="#fde725" stroke="black" cx="273.5" cy="-162" rx="45" ry="18"/>
<text text-anchor="middle" x="273.5" y="-158.3" font-family="Times,serif" font-size="14.00">h5utils</text>
</a>
</g>
</g>
<!-- h5py&#45;&gt;h5utils -->
<g id="edge9" class="edge">
<title>h5py&#45;&gt;h5utils</title>
<path fill="none" stroke="black" d="M814.87,-447.87C709.86,-443.73 368.9,-427.9 332.5,-396 270.64,-341.79 310.95,-295.4 289.5,-216 287.18,-207.42 284.45,-198.13 281.91,-189.76"/>
<polygon fill="black" stroke="black" points="285.23,-188.64 278.94,-180.11 278.54,-190.7 285.23,-188.64"/>
</g>
<!-- pymeep -->
<g id="node10" class="node">
<title>pymeep</title>
<g id="a_node10"><a xlink:href="https://github.com/conda-forge/pymeep-feedstock" xlink:title="pymeep">
<ellipse fill="#fde725" stroke="black" cx="374.5" cy="-90" rx="40.5" ry="18"/>
<text text-anchor="middle" x="374.5" y="-86.3" font-family="Times,serif" font-size="14.00">pymeep</text>
</a>
</g>
</g>
<!-- h5py&#45;&gt;pymeep -->
<g id="edge10" class="edge">
<title>h5py&#45;&gt;pymeep</title>
<path fill="none" stroke="black" d="M815.04,-446.98C706.7,-438.96 346.5,-404.95 346.5,-307 346.5,-307 346.5,-307 346.5,-233 346.5,-192.23 357.75,-146.09 365.99,-117.77"/>
<polygon fill="black" stroke="black" points="369.45,-118.42 368.97,-107.84 362.74,-116.41 369.45,-118.42"/>
</g>
<!-- blosc&#45;hdf5&#45;plugin -->
<g id="node11" class="node">
<title>blosc&#45;hdf5&#45;plugin</title>
<g id="a_node11"><a xlink:href="https://github.com/conda-forge/blosc-hdf5-plugin-feedstock" xlink:title="blosc hdf5 plugin">
<ellipse fill="#fde725" stroke="black" cx="540.5" cy="-162" rx="93.68" ry="18"/>
<text text-anchor="middle" x="540.5" y="-158.3" font-family="Times,serif" font-size="14.00">blosc hdf5 plugin</text>
</a>
</g>
</g>
<!-- h5py&#45;&gt;blosc&#45;hdf5&#45;plugin -->
<g id="edge11" class="edge">
<title>h5py&#45;&gt;blosc&#45;hdf5&#45;plugin</title>
<path fill="none" stroke="black" d="M814.64,-449.43C770.06,-448.41 687.41,-440.13 636.5,-396 573.49,-341.39 551.09,-238.95 543.76,-190.17"/>
<polygon fill="black" stroke="black" points="547.2,-189.48 542.34,-180.06 540.27,-190.45 547.2,-189.48"/>
</g>
<!-- isce2 -->
<g id="node12" class="node">
<title>isce2</title>
<g id="a_node12"><a xlink:href="https://github.com/conda-forge/isce2-feedstock" xlink:title="isce2">
<ellipse fill="#fde725" stroke="black" cx="562.5" cy="-90" rx="35.19" ry="18"/>
<text text-anchor="middle" x="562.5" y="-86.3" font-family="Times,serif" font-size="14.00">isce2</text>
</a>
</g>
</g>
<!-- h5py&#45;&gt;isce2 -->
<g id="edge12" class="edge">
<title>h5py&#45;&gt;isce2</title>
<path fill="none" stroke="black" d="M814.82,-449.38C774.65,-448.06 705.17,-439.17 669.5,-396 597.78,-309.2 702.07,-240.16 643.5,-144 633.27,-127.2 615.46,-114.69 599.15,-106.05"/>
<polygon fill="black" stroke="black" points="600.3,-102.71 589.78,-101.41 597.19,-108.98 600.3,-102.71"/>
</g>
<!-- bitshuffle -->
<g id="node13" class="node">
<title>bitshuffle</title>
<g id="a_node13"><a xlink:href="https://github.com/conda-forge/bitshuffle-feedstock" xlink:title="bitshuffle">
<ellipse fill="#fde725" stroke="black" cx="738.5" cy="-378" rx="60" ry="18"/>
<text text-anchor="middle" x="738.5" y="-374.3" font-family="Times,serif" font-size="14.00">bitshuffle</text>
</a>
</g>
</g>
<!-- h5py&#45;&gt;bitshuffle -->
<g id="edge13" class="edge">
<title>h5py&#45;&gt;bitshuffle</title>
<path fill="none" stroke="black" d="M825.87,-436.16C810.53,-426.12 788.86,-411.95 770.95,-400.23"/>
<polygon fill="black" stroke="black" points="772.78,-397.24 762.5,-394.7 768.95,-403.1 772.78,-397.24"/>
</g>
<!-- triqs -->
<g id="node14" class="node">
<title>triqs</title>
<g id="a_node14"><a xlink:href="https://github.com/conda-forge/triqs-feedstock" xlink:title="triqs">
<ellipse fill="#fde725" stroke="black" cx="763.5" cy="-162" rx="35.19" ry="18"/>
<text text-anchor="middle" x="763.5" y="-158.3" font-family="Times,serif" font-size="14.00">triqs</text>
</a>
</g>
</g>
<!-- h5py&#45;&gt;triqs -->
<g id="edge14" class="edge">
<title>h5py&#45;&gt;triqs</title>
<path fill="none" stroke="black" d="M839.47,-432.12C832.68,-413.86 820.84,-384.11 807.5,-360 798.07,-342.95 789.4,-342.22 782.5,-324 765.56,-279.31 762.74,-223.07 762.75,-190.27"/>
<polygon fill="black" stroke="black" points="766.25,-190.12 762.85,-180.09 759.25,-190.06 766.25,-190.12"/>
</g>
<!-- hdf5plugin -->
<g id="node15" class="node">
<title>hdf5plugin</title>
<g id="a_node15"><a xlink:href="https://github.com/conda-forge/hdf5plugin-feedstock" xlink:title="hdf5plugin">
<ellipse fill="#fde725" stroke="black" cx="851.5" cy="-306" rx="60" ry="18"/>
<text text-anchor="middle" x="851.5" y="-302.3" font-family="Times,serif" font-size="14.00">hdf5plugin</text>
</a>
</g>
</g>
<!-- h5py&#45;&gt;hdf5plugin -->
<g id="edge15" class="edge">
<title>h5py&#45;&gt;hdf5plugin</title>
<path fill="none" stroke="black" d="M846.22,-431.87C847.25,-407.67 849.12,-363.21 850.34,-334.39"/>
<polygon fill="black" stroke="black" points="853.85,-334.33 850.77,-324.19 846.85,-334.03 853.85,-334.33"/>
</g>
<!-- prismatic_split -->
<g id="node16" class="node">
<title>prismatic_split</title>
<g id="a_node16"><a xlink:href="https://github.com/conda-forge/prismatic_split-feedstock" xlink:title="prismatic_split">
<ellipse fill="#fde725" stroke="black" cx="913.5" cy="-234" rx="84" ry="18"/>
<text text-anchor="middle" x="913.5" y="-230.3" font-family="Times,serif" font-size="14.00">prismatic_split</text>
</a>
</g>
</g>
<!-- h5py&#45;&gt;prismatic_split -->
<g id="edge16" class="edge">
<title>h5py&#45;&gt;prismatic_split</title>
<path fill="none" stroke="black" d="M858.8,-433.35C876.91,-410.89 908.48,-367.41 920.5,-324 926.11,-303.74 923.81,-279.97 920.41,-262.09"/>
<polygon fill="black" stroke="black" points="923.78,-261.11 918.27,-252.06 916.93,-262.57 923.78,-261.11"/>
</g>
<!-- digital_rf -->
<g id="node17" class="node">
<title>digital_rf</title>
<g id="a_node17"><a xlink:href="https://github.com/conda-forge/digital_rf-feedstock" xlink:title="digital_rf">
<ellipse fill="#fde725" stroke="black" cx="975.5" cy="-162" rx="60" ry="18"/>
<text text-anchor="middle" x="975.5" y="-158.3" font-family="Times,serif" font-size="14.00">digital_rf</text>
</a>
</g>
</g>
<!-- h5py&#45;&gt;digital_rf -->
<g id="edge17" class="edge">
<title>h5py&#45;&gt;digital_rf</title>
<path fill="none" stroke="black" d="M864.71,-435.72C878.38,-425.73 896.7,-411.2 910.5,-396 962.22,-339.06 984.21,-325.62 1006.5,-252 1011.14,-236.69 1010.68,-231.44 1006.5,-216 1003.88,-206.33 999,-196.61 993.88,-188.19"/>
<polygon fill="black" stroke="black" points="996.7,-186.11 988.32,-179.62 990.83,-189.92 996.7,-186.11"/>
</g>
<!-- pp&#45;sketchlib -->
<g id="node18" class="node">
<title>pp&#45;sketchlib</title>
<g id="a_node18"><a xlink:href="https://github.com/conda-forge/pp-sketchlib-feedstock" xlink:title="pp sketchlib">
<ellipse fill="#fde725" stroke="black" cx="1023.5" cy="-90" rx="69.59" ry="18"/>
<text text-anchor="middle" x="1023.5" y="-86.3" font-family="Times,serif" font-size="14.00">pp sketchlib</text>
</a>
</g>
</g>
<!-- h5py&#45;&gt;pp&#45;sketchlib -->
<g id="edge18" class="edge">
<title>h5py&#45;&gt;pp&#45;sketchlib</title>
<path fill="none" stroke="black" d="M869.63,-438.94C890.11,-429.68 919.56,-414.58 941.5,-396 972.64,-369.62 979.09,-359.9 998.5,-324 1037.77,-251.37 1059.98,-225.11 1044.5,-144 1042.79,-135.06 1039.6,-125.7 1036.21,-117.37"/>
<polygon fill="black" stroke="black" points="1039.41,-115.95 1032.22,-108.17 1032.99,-118.73 1039.41,-115.95"/>
</g>
<!-- openmc&#45;&gt;conda&#45;forge&#45;pinning -->
<g id="edge19" class="edge">
<title>openmc&#45;&gt;conda&#45;forge&#45;pinning</title>
<path fill="none" stroke="black" d="M1226.65,-287.97C1221.48,-240.19 1206.78,-104.62 1200.46,-46.27"/>
<polygon fill="black" stroke="black" points="1203.93,-45.87 1199.38,-36.31 1196.97,-46.63 1203.93,-45.87"/>
</g>
<!-- rsgislib&#45;&gt;conda&#45;forge&#45;pinning -->
<g id="edge20" class="edge">
<title>rsgislib&#45;&gt;conda&#45;forge&#45;pinning</title>
<path fill="none" stroke="black" d="M223.51,-215.93C217.05,-197.51 209.81,-167.62 219.5,-144 236.55,-102.42 249.56,-90.55 290.5,-72 361.07,-40.03 857.59,-25.91 1084.66,-21.08"/>
<polygon fill="black" stroke="black" points="1085.01,-24.57 1094.93,-20.86 1084.86,-17.57 1085.01,-24.57"/>
</g>
<!-- h5utils&#45;&gt;conda&#45;forge&#45;pinning -->
<g id="edge21" class="edge">
<title>h5utils&#45;&gt;conda&#45;forge&#45;pinning</title>
<path fill="none" stroke="black" d="M277.96,-143.76C284.4,-122.78 298.48,-88.15 324.5,-72 387.51,-32.89 862.81,-22.6 1084.4,-19.93"/>
<polygon fill="black" stroke="black" points="1084.48,-23.43 1094.44,-19.81 1084.4,-16.43 1084.48,-23.43"/>
</g>
<!-- h5utils&#45;&gt;pymeep -->
<g id="edge22" class="edge">
<title>h5utils&#45;&gt;pymeep</title>
<path fill="none" stroke="black" d="M294.92,-146.15C309.48,-136.06 328.93,-122.58 344.96,-111.47"/>
<polygon fill="black" stroke="black" points="347.23,-114.16 353.46,-105.58 343.24,-108.4 347.23,-114.16"/>
</g>
<!-- pymeep&#45;&gt;conda&#45;forge&#45;pinning -->
<g id="edge23" class="edge">
<title>pymeep&#45;&gt;conda&#45;forge&#45;pinning</title>
<path fill="none" stroke="black" d="M407.31,-79.43C418.12,-76.61 430.24,-73.81 441.5,-72 667.86,-35.65 936.32,-24.23 1084.7,-20.64"/>
<polygon fill="black" stroke="black" points="1084.82,-24.14 1094.73,-20.41 1084.66,-17.14 1084.82,-24.14"/>
</g>
<!-- blosc&#45;hdf5&#45;plugin&#45;&gt;conda&#45;forge&#45;pinning -->
<g id="edge24" class="edge">
<title>blosc&#45;hdf5&#45;plugin&#45;&gt;conda&#45;forge&#45;pinning</title>
<path fill="none" stroke="black" d="M528.28,-143.99C515.67,-124.21 500.23,-91.75 518.5,-72 556,-31.45 900.46,-21.86 1083.83,-19.64"/>
<polygon fill="black" stroke="black" points="1084.09,-23.13 1094.05,-19.52 1084.01,-16.13 1084.09,-23.13"/>
</g>
<!-- isce2&#45;&gt;conda&#45;forge&#45;pinning -->
<g id="edge25" class="edge">
<title>isce2&#45;&gt;conda&#45;forge&#45;pinning</title>
<path fill="none" stroke="black" d="M589.38,-78.36C596.47,-75.91 604.19,-73.57 611.5,-72 773.67,-37.08 965.9,-25.14 1084.79,-21.07"/>
<polygon fill="black" stroke="black" points="1085.12,-24.56 1095,-20.74 1084.89,-17.57 1085.12,-24.56"/>
</g>
<!-- bitshuffle&#45;&gt;conda&#45;forge&#45;pinning -->
<g id="edge26" class="edge">
<title>bitshuffle&#45;&gt;conda&#45;forge&#45;pinning</title>
<path fill="none" stroke="black" d="M733.13,-359.86C714.2,-298.73 652.74,-93.85 672.5,-72 699.69,-41.93 940.26,-28.11 1086.14,-22.44"/>
<polygon fill="black" stroke="black" points="1086.62,-25.92 1096.48,-22.04 1086.35,-18.93 1086.62,-25.92"/>
</g>
<!-- triqs&#45;&gt;conda&#45;forge&#45;pinning -->
<g id="edge27" class="edge">
<title>triqs&#45;&gt;conda&#45;forge&#45;pinning</title>
<path fill="none" stroke="black" d="M735.57,-150.96C716.87,-142.61 693.69,-128.7 682.5,-108 674.89,-93.93 671.78,-83.88 682.5,-72 709.04,-42.59 943.19,-28.56 1086.47,-22.66"/>
<polygon fill="black" stroke="black" points="1086.78,-26.15 1096.63,-22.25 1086.5,-19.16 1086.78,-26.15"/>
</g>
<!-- triqs_cthyb -->
<g id="node19" class="node">
<title>triqs_cthyb</title>
<g id="a_node19"><a xlink:href="https://github.com/conda-forge/triqs_cthyb-feedstock" xlink:title="triqs_cthyb">
<ellipse fill="#fde725" stroke="black" cx="756.5" cy="-90" rx="64.5" ry="18"/>
<text text-anchor="middle" x="756.5" y="-86.3" font-family="Times,serif" font-size="14.00">triqs_cthyb</text>
</a>
</g>
</g>
<!-- triqs&#45;&gt;triqs_cthyb -->
<g id="edge28" class="edge">
<title>triqs&#45;&gt;triqs_cthyb</title>
<path fill="none" stroke="black" d="M761.77,-143.7C761,-135.98 760.07,-126.71 759.21,-118.11"/>
<polygon fill="black" stroke="black" points="762.69,-117.71 758.21,-108.1 755.72,-118.4 762.69,-117.71"/>
</g>
<!-- hdf5plugin&#45;&gt;conda&#45;forge&#45;pinning -->
<g id="edge29" class="edge">
<title>hdf5plugin&#45;&gt;conda&#45;forge&#45;pinning</title>
<path fill="none" stroke="black" d="M838.68,-288.38C831.82,-278.42 824.07,-265.17 820.5,-252 816.32,-236.56 816.21,-231.41 820.5,-216 840.57,-143.97 845.96,-114.47 907.5,-72 938.03,-50.93 1026.94,-36.73 1098.34,-28.38"/>
<polygon fill="black" stroke="black" points="1098.76,-31.85 1108.29,-27.24 1097.96,-24.9 1098.76,-31.85"/>
</g>
<!-- prismatic_split&#45;&gt;conda&#45;forge&#45;pinning -->
<g id="edge30" class="edge">
<title>prismatic_split&#45;&gt;conda&#45;forge&#45;pinning</title>
<path fill="none" stroke="black" d="M909.34,-215.96C902.27,-182.28 892.44,-107.38 934.5,-72 959.41,-51.05 1035.52,-37.17 1099.49,-28.9"/>
<polygon fill="black" stroke="black" points="1100.16,-32.34 1109.65,-27.62 1099.29,-25.39 1100.16,-32.34"/>
</g>
<!-- digital_rf&#45;&gt;conda&#45;forge&#45;pinning -->
<g id="edge31" class="edge">
<title>digital_rf&#45;&gt;conda&#45;forge&#45;pinning</title>
<path fill="none" stroke="black" d="M960.89,-144.24C945.94,-125 927.17,-93.34 944.5,-72 963.7,-48.37 1033.63,-34.9 1095.11,-27.45"/>
<polygon fill="black" stroke="black" points="1095.77,-30.9 1105.29,-26.27 1094.95,-23.95 1095.77,-30.9"/>
</g>
<!-- pp&#45;sketchlib&#45;&gt;conda&#45;forge&#45;pinning -->
<g id="edge32" class="edge">
<title>pp&#45;sketchlib&#45;&gt;conda&#45;forge&#45;pinning</title>
<path fill="none" stroke="black" d="M1059.55,-74.5C1085.49,-64.06 1120.75,-49.88 1149.13,-38.46"/>
<polygon fill="black" stroke="black" points="1150.5,-41.68 1158.47,-34.7 1147.88,-35.19 1150.5,-41.68"/>
</g>
<!-- triqs_cthyb&#45;&gt;conda&#45;forge&#45;pinning -->
<g id="edge54" class="edge">
<title>triqs_cthyb&#45;&gt;conda&#45;forge&#45;pinning</title>
<path fill="none" stroke="black" d="M804.86,-78.06C814.96,-75.93 825.56,-73.8 835.5,-72 927.44,-55.4 1033.22,-40.38 1106.6,-30.6"/>
<polygon fill="black" stroke="black" points="1107.28,-34.04 1116.73,-29.26 1106.36,-27.1 1107.28,-34.04"/>
</g>
<!-- hdfeos5 -->
<g id="node20" class="node">
<title>hdfeos5</title>
<g id="a_node20"><a xlink:href="https://github.com/conda-forge/hdfeos5-feedstock/pull/27" xlink:title="hdfeos5">
<ellipse fill="#31688e" stroke="black" cx="1307.5" cy="-234" rx="45" ry="18"/>
<text text-anchor="middle" x="1307.5" y="-230.3" font-family="Times,serif" font-size="14.00" fill="white">hdfeos5</text>
</a>
</g>
</g>
<!-- hdfeos5&#45;&gt;conda&#45;forge&#45;pinning -->
<g id="edge33" class="edge">
<title>hdfeos5&#45;&gt;conda&#45;forge&#45;pinning</title>
<path fill="none" stroke="black" d="M1318.87,-216.28C1338.55,-185.07 1373.97,-117.01 1342.5,-72 1329.19,-52.96 1308.27,-40.74 1286.42,-32.9"/>
<polygon fill="black" stroke="black" points="1287.27,-29.5 1276.68,-29.7 1285.09,-36.15 1287.27,-29.5"/>
</g>
<!-- ncl -->
<g id="node21" class="node">
<title>ncl</title>
<g id="a_node21"><a xlink:href="https://github.com/conda-forge/ncl-feedstock" xlink:title="ncl">
<ellipse fill="#fde725" stroke="black" cx="1252.5" cy="-162" rx="27" ry="18"/>
<text text-anchor="middle" x="1252.5" y="-158.3" font-family="Times,serif" font-size="14.00">ncl</text>
</a>
</g>
</g>
<!-- hdfeos5&#45;&gt;ncl -->
<g id="edge34" class="edge">
<title>hdfeos5&#45;&gt;ncl</title>
<path fill="none" stroke="black" d="M1294.47,-216.41C1287.49,-207.53 1278.77,-196.44 1271.1,-186.67"/>
<polygon fill="black" stroke="black" points="1273.62,-184.21 1264.69,-178.51 1268.11,-188.54 1273.62,-184.21"/>
</g>
<!-- pynio -->
<g id="node22" class="node">
<title>pynio</title>
<g id="a_node22"><a xlink:href="https://github.com/conda-forge/pynio-feedstock" xlink:title="pynio">
<ellipse fill="#fde725" stroke="black" cx="1298.5" cy="-90" rx="35.19" ry="18"/>
<text text-anchor="middle" x="1298.5" y="-86.3" font-family="Times,serif" font-size="14.00">pynio</text>
</a>
</g>
</g>
<!-- hdfeos5&#45;&gt;pynio -->
<g id="edge35" class="edge">
<title>hdfeos5&#45;&gt;pynio</title>
<path fill="none" stroke="black" d="M1306.41,-215.87C1304.88,-191.67 1302.06,-147.21 1300.24,-118.39"/>
<polygon fill="black" stroke="black" points="1303.72,-117.95 1299.59,-108.19 1296.73,-118.39 1303.72,-117.95"/>
</g>
<!-- ncl&#45;&gt;conda&#45;forge&#45;pinning -->
<g id="edge36" class="edge">
<title>ncl&#45;&gt;conda&#45;forge&#45;pinning</title>
<path fill="none" stroke="black" d="M1246.08,-144.43C1236.7,-120.22 1219.15,-74.89 1207.91,-45.87"/>
<polygon fill="black" stroke="black" points="1211.09,-44.41 1204.22,-36.35 1204.57,-46.94 1211.09,-44.41"/>
</g>
<!-- pynio&#45;&gt;conda&#45;forge&#45;pinning -->
<g id="edge37" class="edge">
<title>pynio&#45;&gt;conda&#45;forge&#45;pinning</title>
<path fill="none" stroke="black" d="M1278.55,-75.17C1264.77,-65.62 1246.14,-52.71 1230.21,-41.67"/>
<polygon fill="black" stroke="black" points="1231.9,-38.58 1221.69,-35.76 1227.91,-44.34 1231.9,-38.58"/>
</g>
<!-- hyperion&#45;fortran -->
<g id="node23" class="node">
<title>hyperion&#45;fortran</title>
<g id="a_node23"><a xlink:href="https://github.com/conda-forge/hyperion-fortran-feedstock/pull/18" xlink:title="hyperion fortran">
<ellipse fill="#31688e" stroke="black" cx="1376.5" cy="-306" rx="89.08" ry="18"/>
<text text-anchor="middle" x="1376.5" y="-302.3" font-family="Times,serif" font-size="14.00" fill="white">hyperion fortran</text>
</a>
</g>
</g>
<!-- hyperion&#45;fortran&#45;&gt;conda&#45;forge&#45;pinning -->
<g id="edge38" class="edge">
<title>hyperion&#45;fortran&#45;&gt;conda&#45;forge&#45;pinning</title>
<path fill="none" stroke="black" d="M1381.45,-287.85C1392.41,-245.97 1413.97,-137.2 1363.5,-72 1347,-50.68 1321.87,-37.78 1296.12,-30.02"/>
<polygon fill="black" stroke="black" points="1296.81,-26.58 1286.24,-27.3 1294.94,-33.33 1296.81,-26.58"/>
</g>
<!-- pyne -->
<g id="node24" class="node">
<title>pyne</title>
<g id="a_node24"><a xlink:href="https://github.com/conda-forge/pyne-feedstock/pull/40" xlink:title="pyne">
<ellipse fill="#31688e" stroke="black" cx="1493.5" cy="-378" rx="30.59" ry="18"/>
<text text-anchor="middle" x="1493.5" y="-374.3" font-family="Times,serif" font-size="14.00" fill="white">pyne</text>
</a>
</g>
</g>
<!-- pyne&#45;&gt;conda&#45;forge&#45;pinning -->
<g id="edge39" class="edge">
<title>pyne&#45;&gt;conda&#45;forge&#45;pinning</title>
<path fill="none" stroke="black" d="M1493.01,-359.72C1490.57,-307.67 1475.85,-151.06 1387.5,-72 1362.64,-49.75 1329.18,-36.76 1297.28,-29.21"/>
<polygon fill="black" stroke="black" points="1297.95,-25.77 1287.43,-27.03 1296.44,-32.61 1297.95,-25.77"/>
</g>
<!-- r&#45;hdf5r -->
<g id="node25" class="node">
<title>r&#45;hdf5r</title>
<g id="a_node25"><a xlink:href="https://github.com/conda-forge/r-hdf5r-feedstock/pull/12" xlink:title="r hdf5r">
<ellipse fill="#31688e" stroke="black" cx="1510.5" cy="-90" rx="45" ry="18"/>
<text text-anchor="middle" x="1510.5" y="-86.3" font-family="Times,serif" font-size="14.00" fill="white">r hdf5r</text>
</a>
</g>
</g>
<!-- r&#45;hdf5r&#45;&gt;conda&#45;forge&#45;pinning -->
<g id="edge40" class="edge">
<title>r&#45;hdf5r&#45;&gt;conda&#45;forge&#45;pinning</title>
<path fill="none" stroke="black" d="M1475.67,-78.5C1467.76,-76.24 1459.36,-73.95 1451.5,-72 1392.68,-57.41 1325.54,-43.52 1275.06,-33.62"/>
<polygon fill="black" stroke="black" points="1275.68,-30.17 1265.19,-31.69 1274.34,-37.05 1275.68,-30.17"/>
</g>
<!-- shogun -->
<g id="node26" class="node">
<title>shogun</title>
<g id="a_node26"><a xlink:href="https://github.com/conda-forge/shogun-feedstock/pull/20" xlink:title="shogun">
<ellipse fill="#31688e" stroke="black" cx="1552.5" cy="-162" rx="40.5" ry="18"/>
<text text-anchor="middle" x="1552.5" y="-158.3" font-family="Times,serif" font-size="14.00" fill="white">shogun</text>
</a>
</g>
</g>
<!-- shogun&#45;&gt;conda&#45;forge&#45;pinning -->
<g id="edge41" class="edge">
<title>shogun&#45;&gt;conda&#45;forge&#45;pinning</title>
<path fill="none" stroke="black" d="M1561.53,-144.4C1570.87,-124.71 1581.85,-92.04 1564.5,-72 1532.09,-34.57 1406.15,-22.99 1310.76,-19.7"/>
<polygon fill="black" stroke="black" points="1310.86,-16.2 1300.76,-19.38 1310.64,-23.2 1310.86,-16.2"/>
</g>
<!-- vigra -->
<g id="node27" class="node">
<title>vigra</title>
<g id="a_node27"><a xlink:href="https://github.com/conda-forge/vigra-feedstock/pull/54" xlink:title="vigra">
<ellipse fill="#31688e" stroke="black" cx="1596.5" cy="-234" rx="35.19" ry="18"/>
<text text-anchor="middle" x="1596.5" y="-230.3" font-family="Times,serif" font-size="14.00" fill="white">vigra</text>
</a>
</g>
</g>
<!-- vigra&#45;&gt;conda&#45;forge&#45;pinning -->
<g id="edge42" class="edge">
<title>vigra&#45;&gt;conda&#45;forge&#45;pinning</title>
<path fill="none" stroke="black" d="M1601.57,-216.15C1610.44,-182.82 1624.21,-108.51 1583.5,-72 1544.25,-36.79 1409.66,-24.81 1310.4,-20.82"/>
<polygon fill="black" stroke="black" points="1310.43,-17.32 1300.31,-20.44 1310.17,-24.32 1310.43,-17.32"/>
</g>
<!-- yaafe -->
<g id="node28" class="node">
<title>yaafe</title>
<g id="a_node28"><a xlink:href="https://github.com/conda-forge/yaafe-feedstock/pull/9" xlink:title="yaafe">
<ellipse fill="#31688e" stroke="black" cx="1634.5" cy="-306" rx="35.19" ry="18"/>
<text text-anchor="middle" x="1634.5" y="-302.3" font-family="Times,serif" font-size="14.00" fill="white">yaafe</text>
</a>
</g>
</g>
<!-- yaafe&#45;&gt;conda&#45;forge&#45;pinning -->
<g id="edge43" class="edge">
<title>yaafe&#45;&gt;conda&#45;forge&#45;pinning</title>
<path fill="none" stroke="black" d="M1639.07,-287.96C1649.62,-244.4 1670.26,-128.41 1608.5,-72 1566.24,-33.4 1417.73,-22.31 1311.38,-19.44"/>
<polygon fill="black" stroke="black" points="1311.31,-15.94 1301.23,-19.19 1311.14,-22.94 1311.31,-15.94"/>
</g>
<!-- alps -->
<g id="node29" class="node">
<title>alps</title>
<g id="a_node29"><a xlink:href="https://github.com/conda-forge/alps-feedstock/pull/31" xlink:title="alps">
<ellipse fill="#31688e" stroke="black" cx="1697.5" cy="-378" rx="30.59" ry="18"/>
<text text-anchor="middle" x="1697.5" y="-374.3" font-family="Times,serif" font-size="14.00" fill="white">alps</text>
</a>
</g>
</g>
<!-- alps&#45;&gt;conda&#45;forge&#45;pinning -->
<g id="edge44" class="edge">
<title>alps&#45;&gt;conda&#45;forge&#45;pinning</title>
<path fill="none" stroke="black" d="M1697.5,-359.95C1697.5,-333.29 1697.5,-280.11 1697.5,-235 1697.5,-235 1697.5,-235 1697.5,-161 1697.5,-112.79 1676.81,-96.84 1635.5,-72 1582.27,-39.99 1420.68,-27.27 1309.4,-22.24"/>
<polygon fill="black" stroke="black" points="1309.28,-18.73 1299.13,-21.79 1308.97,-25.72 1309.28,-18.73"/>
</g>
<!-- spdlib -->
<g id="node30" class="node">
<title>spdlib</title>
<g id="a_node30"><a xlink:href="https://github.com/conda-forge/spdlib-feedstock/pull/15" xlink:title="spdlib">
<ellipse fill="#31688e" stroke="black" cx="1766.5" cy="-90" rx="40.5" ry="18"/>
<text text-anchor="middle" x="1766.5" y="-86.3" font-family="Times,serif" font-size="14.00" fill="white">spdlib</text>
</a>
</g>
</g>
<!-- spdlib&#45;&gt;conda&#45;forge&#45;pinning -->
<g id="edge45" class="edge">
<title>spdlib&#45;&gt;conda&#45;forge&#45;pinning</title>
<path fill="none" stroke="black" d="M1735.65,-78.3C1727.85,-75.91 1719.43,-73.62 1711.5,-72 1573.48,-43.84 1411.4,-30.29 1306.7,-24.01"/>
<polygon fill="black" stroke="black" points="1306.62,-20.5 1296.43,-23.41 1306.21,-27.49 1306.62,-20.5"/>
</g>
<!-- mpb -->
<g id="node31" class="node">
<title>mpb</title>
<g id="a_node31"><a xlink:href="https://github.com/conda-forge/mpb-feedstock/pull/22" xlink:title="mpb">
<ellipse fill="#31688e" stroke="black" cx="401.5" cy="-162" rx="27" ry="18"/>
<text text-anchor="middle" x="401.5" y="-158.3" font-family="Times,serif" font-size="14.00" fill="white">mpb</text>
</a>
</g>
</g>
<!-- mpb&#45;&gt;conda&#45;forge&#45;pinning -->
<g id="edge46" class="edge">
<title>mpb&#45;&gt;conda&#45;forge&#45;pinning</title>
<path fill="none" stroke="black" d="M413.85,-145.75C431.76,-124.88 467.16,-88.17 506.5,-72 607.93,-30.33 915.23,-21.13 1083.82,-19.29"/>
<polygon fill="black" stroke="black" points="1084.01,-22.78 1093.98,-19.18 1083.94,-15.79 1084.01,-22.78"/>
</g>
<!-- mpb&#45;&gt;pymeep -->
<g id="edge47" class="edge">
<title>mpb&#45;&gt;pymeep</title>
<path fill="none" stroke="black" d="M395.1,-144.41C391.99,-136.34 388.17,-126.43 384.67,-117.35"/>
<polygon fill="black" stroke="black" points="387.9,-116.03 381.04,-107.96 381.37,-118.55 387.9,-116.03"/>
</g>
<!-- openpmd&#45;api -->
<g id="node32" class="node">
<title>openpmd&#45;api</title>
<g id="a_node32"><a xlink:href="https://github.com/conda-forge/openpmd-api-feedstock" xlink:title="openpmd api">
<ellipse fill="#fde725" stroke="black" cx="1889.5" cy="-90" rx="64.5" ry="18"/>
<text text-anchor="middle" x="1889.5" y="-86.3" font-family="Times,serif" font-size="14.00">openpmd api</text>
</a>
</g>
</g>
<!-- openpmd&#45;api&#45;&gt;conda&#45;forge&#45;pinning -->
<g id="edge48" class="edge">
<title>openpmd&#45;api&#45;&gt;conda&#45;forge&#45;pinning</title>
<path fill="none" stroke="black" d="M1843.11,-77.3C1834,-75.3 1824.49,-73.41 1815.5,-72 1638.69,-44.25 1430.97,-30.19 1307.01,-23.75"/>
<polygon fill="black" stroke="black" points="1306.92,-20.24 1296.75,-23.22 1306.56,-27.23 1306.92,-20.24"/>
</g>
<!-- cmor -->
<g id="node33" class="node">
<title>cmor</title>
<g id="a_node33"><a xlink:href="https://github.com/conda-forge/cmor-feedstock/pull/23" xlink:title="cmor">
<ellipse fill="#31688e" stroke="black" cx="1999.5" cy="-162" rx="30.59" ry="18"/>
<text text-anchor="middle" x="1999.5" y="-158.3" font-family="Times,serif" font-size="14.00" fill="white">cmor</text>
</a>
</g>
</g>
<!-- cmor&#45;&gt;conda&#45;forge&#45;pinning -->
<g id="edge49" class="edge">
<title>cmor&#45;&gt;conda&#45;forge&#45;pinning</title>
<path fill="none" stroke="black" d="M2001.36,-143.93C2002.54,-123.46 2000.92,-89.69 1980.5,-72 1931.14,-29.22 1516.38,-20.79 1311.34,-19.26"/>
<polygon fill="black" stroke="black" points="1311.16,-15.76 1301.13,-19.18 1311.11,-22.76 1311.16,-15.76"/>
</g>
<!-- scilab -->
<g id="node34" class="node">
<title>scilab</title>
<g id="a_node34"><a xlink:href="https://github.com/conda-forge/scilab-feedstock/pull/12" xlink:title="scilab">
<ellipse fill="#31688e" stroke="black" cx="2027.5" cy="-234" rx="40.5" ry="18"/>
<text text-anchor="middle" x="2027.5" y="-230.3" font-family="Times,serif" font-size="14.00" fill="white">scilab</text>
</a>
</g>
</g>
<!-- scilab&#45;&gt;conda&#45;forge&#45;pinning -->
<g id="edge50" class="edge">
<title>scilab&#45;&gt;conda&#45;forge&#45;pinning</title>
<path fill="none" stroke="black" d="M2032.37,-215.98C2035.06,-205.67 2038.14,-192.19 2039.5,-180 2045.11,-129.85 2046.37,-100.15 2004.5,-72 1948.36,-34.25 1519.4,-23.3 1310.76,-20.2"/>
<polygon fill="black" stroke="black" points="1310.74,-16.69 1300.69,-20.05 1310.64,-23.69 1310.74,-16.69"/>
</g>
<!-- adios2 -->
<g id="node35" class="node">
<title>adios2</title>
<g id="a_node35"><a xlink:href="https://github.com/conda-forge/adios2-feedstock/pull/11" xlink:title="adios2">
<ellipse fill="#31688e" stroke="black" cx="1900.5" cy="-162" rx="40.5" ry="18"/>
<text text-anchor="middle" x="1900.5" y="-158.3" font-family="Times,serif" font-size="14.00" fill="white">adios2</text>
</a>
</g>
</g>
<!-- adios2&#45;&gt;conda&#45;forge&#45;pinning -->
<g id="edge51" class="edge">
<title>adios2&#45;&gt;conda&#45;forge&#45;pinning</title>
<path fill="none" stroke="black" d="M1922.39,-146.83C1948.18,-128.46 1984.85,-95.96 1962.5,-72 1919.07,-25.46 1513.49,-18.88 1311.16,-18.52"/>
<polygon fill="black" stroke="black" points="1311.1,-15.02 1301.09,-18.51 1311.09,-22.02 1311.1,-15.02"/>
</g>
<!-- adios2&#45;&gt;openpmd&#45;api -->
<g id="edge52" class="edge">
<title>adios2&#45;&gt;openpmd&#45;api</title>
<path fill="none" stroke="black" d="M1897.78,-143.7C1896.57,-135.98 1895.11,-126.71 1893.76,-118.11"/>
<polygon fill="black" stroke="black" points="1897.2,-117.44 1892.19,-108.1 1890.28,-118.53 1897.2,-117.44"/>
</g>
<!-- bonsu -->
<g id="node36" class="node">
<title>bonsu</title>
<g id="a_node36"><a xlink:href="https://github.com/conda-forge/bonsu-feedstock/pull/5" xlink:title="bonsu">
<ellipse fill="#31688e" stroke="black" cx="2083.5" cy="-306" rx="35.19" ry="18"/>
<text text-anchor="middle" x="2083.5" y="-302.3" font-family="Times,serif" font-size="14.00" fill="white">bonsu</text>
</a>
</g>
</g>
<!-- bonsu&#45;&gt;conda&#45;forge&#45;pinning -->
<g id="edge53" class="edge">
<title>bonsu&#45;&gt;conda&#45;forge&#45;pinning</title>
<path fill="none" stroke="black" d="M2086.3,-287.92C2092.46,-243.73 2101.75,-125.38 2035.5,-72 1980.44,-27.63 1527.38,-20.07 1311.31,-19.01"/>
<polygon fill="black" stroke="black" points="1311.22,-15.51 1301.21,-18.97 1311.19,-22.51 1311.22,-15.51"/>
</g>
<!-- dagmc -->
<g id="node37" class="node">
<title>dagmc</title>
<g id="a_node37"><a xlink:href="https://github.com/conda-forge/dagmc-feedstock/pull/1" xlink:title="dagmc">
<ellipse fill="#31688e" stroke="black" cx="2146.5" cy="-378" rx="35.19" ry="18"/>
<text text-anchor="middle" x="2146.5" y="-374.3" font-family="Times,serif" font-size="14.00" fill="white">dagmc</text>
</a>
</g>
</g>
<!-- dagmc&#45;&gt;conda&#45;forge&#45;pinning -->
<g id="edge55" class="edge">
<title>dagmc&#45;&gt;conda&#45;forge&#45;pinning</title>
<path fill="none" stroke="black" d="M2146.5,-359.95C2146.5,-333.29 2146.5,-280.11 2146.5,-235 2146.5,-235 2146.5,-235 2146.5,-161 2146.5,-107.21 2113.08,-95.09 2064.5,-72 1998.05,-40.42 1529.08,-26.19 1309.9,-21.21"/>
<polygon fill="black" stroke="black" points="1309.73,-17.7 1299.65,-20.98 1309.57,-24.7 1309.73,-17.7"/>
</g>
<!-- nccmp -->
<g id="node38" class="node">
<title>nccmp</title>
<g id="a_node38"><a xlink:href="https://github.com/conda-forge/nccmp-feedstock/pull/2" xlink:title="nccmp">
<ellipse fill="#31688e" stroke="black" cx="2209.5" cy="-90" rx="35.19" ry="18"/>
<text text-anchor="middle" x="2209.5" y="-86.3" font-family="Times,serif" font-size="14.00" fill="white">nccmp</text>
</a>
</g>
</g>
<!-- nccmp&#45;&gt;conda&#45;forge&#45;pinning -->
<g id="edge56" class="edge">
<title>nccmp&#45;&gt;conda&#45;forge&#45;pinning</title>
<path fill="none" stroke="black" d="M2182.66,-78.18C2175.56,-75.74 2167.83,-73.44 2160.5,-72 2000.7,-40.53 1527.67,-26.28 1309.74,-21.26"/>
<polygon fill="black" stroke="black" points="1309.64,-17.75 1299.56,-21.02 1309.48,-24.75 1309.64,-17.75"/>
</g>
</g>
</svg>
