<?xml version="1.0" encoding="UTF-8" standalone="no"?>
<!DOCTYPE svg PUBLIC "-//W3C//DTD SVG 1.1//EN"
 "http://www.w3.org/Graphics/SVG/1.1/DTD/svg11.dtd">
<!-- Generated by graphviz version 2.42.3 (20191010.1750)
 -->
<!-- Title: %3 Pages: 1 -->
<svg width="2757pt" height="476pt"
 viewBox="0.00 0.00 2756.60 476.00" xmlns="http://www.w3.org/2000/svg" xmlns:xlink="http://www.w3.org/1999/xlink">
<g id="graph0" class="graph" transform="scale(1 1) rotate(0) translate(4 472)">
<title>%3</title>
<polygon fill="white" stroke="transparent" points="-4,4 -4,-472 2752.6,-472 2752.6,4 -4,4"/>
<!-- caffe -->
<g id="node1" class="node">
<title>caffe</title>
<g id="a_node1"><a xlink:href="https://github.com/conda-forge/caffe-feedstock" xlink:title="caffe">
<ellipse fill="#fde725" stroke="black" cx="1204.5" cy="-378" rx="35.19" ry="18"/>
<text text-anchor="middle" x="1204.5" y="-374.3" font-family="Times,serif" font-size="14.00">caffe</text>
</a>
</g>
</g>
<!-- conda&#45;forge&#45;pinning -->
<g id="node2" class="node">
<title>conda&#45;forge&#45;pinning</title>
<ellipse fill="none" stroke="black" cx="1482.5" cy="-18" rx="103.5" ry="18"/>
<text text-anchor="middle" x="1482.5" y="-14.3" font-family="Times,serif" font-size="14.00">conda&#45;forge&#45;pinning</text>
</g>
<!-- caffe&#45;&gt;conda&#45;forge&#45;pinning -->
<g id="edge1" class="edge">
<title>caffe&#45;&gt;conda&#45;forge&#45;pinning</title>
<path fill="none" stroke="black" d="M1204.5,-359.95C1204.5,-333.29 1204.5,-280.11 1204.5,-235 1204.5,-235 1204.5,-235 1204.5,-161 1204.5,-120.03 1198.71,-100.12 1228.5,-72 1251.04,-50.73 1322.72,-37.01 1384.21,-28.87"/>
<polygon fill="black" stroke="black" points="1384.9,-32.31 1394.38,-27.57 1384.01,-25.37 1384.9,-32.31"/>
</g>
<!-- cyclus -->
<g id="node3" class="node">
<title>cyclus</title>
<g id="a_node3"><a xlink:href="https://github.com/conda-forge/cyclus-feedstock/pull/56" xlink:title="cyclus">
<ellipse fill="#31688e" stroke="black" cx="40.5" cy="-90" rx="40.5" ry="18"/>
<text text-anchor="middle" x="40.5" y="-86.3" font-family="Times,serif" font-size="14.00" fill="white">cyclus</text>
</a>
</g>
</g>
<!-- cyclus&#45;&gt;conda&#45;forge&#45;pinning -->
<g id="edge2" class="edge">
<title>cyclus&#45;&gt;conda&#45;forge&#45;pinning</title>
<path fill="none" stroke="black" d="M70.99,-78.03C78.88,-75.62 87.42,-73.38 95.5,-72 339.16,-30.43 1083.03,-21.45 1368.92,-19.52"/>
<polygon fill="black" stroke="black" points="1369.33,-23.02 1379.31,-19.45 1369.28,-16.02 1369.33,-23.02"/>
</g>
<!-- fenics -->
<g id="node4" class="node">
<title>fenics</title>
<g id="a_node4"><a xlink:href="https://github.com/conda-forge/fenics-feedstock/pull/107" xlink:title="fenics">
<ellipse fill="#31688e" stroke="black" cx="93.5" cy="-162" rx="40.5" ry="18"/>
<text text-anchor="middle" x="93.5" y="-158.3" font-family="Times,serif" font-size="14.00" fill="white">fenics</text>
</a>
</g>
</g>
<!-- fenics&#45;&gt;conda&#45;forge&#45;pinning -->
<g id="edge3" class="edge">
<title>fenics&#45;&gt;conda&#45;forge&#45;pinning</title>
<path fill="none" stroke="black" d="M98.54,-144C105.79,-122.92 121.36,-87.84 148.5,-72 200.79,-41.47 1056.85,-25.46 1369.41,-20.62"/>
<polygon fill="black" stroke="black" points="1369.9,-24.11 1379.85,-20.46 1369.79,-17.11 1369.9,-24.11"/>
</g>
<!-- flann -->
<g id="node5" class="node">
<title>flann</title>
<g id="a_node5"><a xlink:href="https://github.com/conda-forge/flann-feedstock/pull/26" xlink:title="flann">
<ellipse fill="#31688e" stroke="black" cx="137.5" cy="-234" rx="35.19" ry="18"/>
<text text-anchor="middle" x="137.5" y="-230.3" font-family="Times,serif" font-size="14.00" fill="white">flann</text>
</a>
</g>
</g>
<!-- flann&#45;&gt;conda&#45;forge&#45;pinning -->
<g id="edge4" class="edge">
<title>flann&#45;&gt;conda&#45;forge&#45;pinning</title>
<path fill="none" stroke="black" d="M140.19,-215.82C146.48,-178.08 163.38,-89.87 186.5,-72 232.89,-36.13 1061.99,-23.54 1369.21,-20.1"/>
<polygon fill="black" stroke="black" points="1369.51,-23.6 1379.47,-19.98 1369.44,-16.6 1369.51,-23.6"/>
</g>
<!-- graph -->
<g id="node6" class="node">
<title>graph</title>
<g id="a_node6"><a xlink:href="https://github.com/conda-forge/graph-feedstock/pull/5" xlink:title="graph">
<ellipse fill="#31688e" stroke="black" cx="200.5" cy="-306" rx="35.19" ry="18"/>
<text text-anchor="middle" x="200.5" y="-302.3" font-family="Times,serif" font-size="14.00" fill="white">graph</text>
</a>
</g>
</g>
<!-- graph&#45;&gt;conda&#45;forge&#45;pinning -->
<g id="edge5" class="edge">
<title>graph&#45;&gt;conda&#45;forge&#45;pinning</title>
<path fill="none" stroke="black" d="M197.15,-287.93C189.5,-243.23 176.3,-122.75 244.5,-72 289.19,-38.74 1072.3,-24.6 1369.43,-20.42"/>
<polygon fill="black" stroke="black" points="1369.84,-23.91 1379.79,-20.27 1369.74,-16.91 1369.84,-23.91"/>
</g>
<!-- h5py -->
<g id="node7" class="node">
<title>h5py</title>
<g id="a_node7"><a xlink:href="https://github.com/conda-forge/h5py-feedstock/pull/72" xlink:title="h5py">
<ellipse fill="#31688e" stroke="black" cx="975.5" cy="-450" rx="30.59" ry="18"/>
<text text-anchor="middle" x="975.5" y="-446.3" font-family="Times,serif" font-size="14.00" fill="white">h5py</text>
</a>
</g>
</g>
<!-- h5py&#45;&gt;caffe -->
<g id="edge6" class="edge">
<title>h5py&#45;&gt;caffe</title>
<path fill="none" stroke="black" d="M1002.46,-441.5C1037.76,-431.57 1101.52,-413.3 1155.5,-396 1159.25,-394.8 1163.15,-393.51 1167.04,-392.2"/>
<polygon fill="black" stroke="black" points="1168.26,-395.48 1176.59,-388.94 1166,-388.86 1168.26,-395.48"/>
</g>
<!-- h5py&#45;&gt;conda&#45;forge&#45;pinning -->
<g id="edge7" class="edge">
<title>h5py&#45;&gt;conda&#45;forge&#45;pinning</title>
<path fill="none" stroke="black" d="M1006.02,-447.78C1070.67,-444.47 1218.02,-432.97 1248.5,-396 1258.68,-383.66 1248.88,-376 1248.5,-360 1247.17,-304.4 1242.5,-290.62 1242.5,-235 1242.5,-235 1242.5,-235 1242.5,-161 1242.5,-114.5 1260.43,-100.07 1297.5,-72 1324.41,-51.62 1358.9,-39.07 1390.8,-31.35"/>
<polygon fill="black" stroke="black" points="1391.63,-34.74 1400.6,-29.1 1390.07,-27.92 1391.63,-34.74"/>
</g>
<!-- openmc -->
<g id="node8" class="node">
<title>openmc</title>
<g id="a_node8"><a xlink:href="https://github.com/conda-forge/openmc-feedstock" xlink:title="openmc">
<ellipse fill="#fde725" stroke="black" cx="1311.5" cy="-306" rx="40.5" ry="18"/>
<text text-anchor="middle" x="1311.5" y="-302.3" font-family="Times,serif" font-size="14.00">openmc</text>
</a>
</g>
</g>
<!-- h5py&#45;&gt;openmc -->
<g id="edge8" class="edge">
<title>h5py&#45;&gt;openmc</title>
<path fill="none" stroke="black" d="M1005.85,-447.61C1074.77,-443.86 1240.31,-431.31 1281.5,-396 1299.34,-380.71 1306.6,-354.43 1309.54,-334.38"/>
<polygon fill="black" stroke="black" points="1313.04,-334.62 1310.74,-324.28 1306.09,-333.79 1313.04,-334.62"/>
</g>
<!-- rsgislib -->
<g id="node9" class="node">
<title>rsgislib</title>
<g id="a_node9"><a xlink:href="https://github.com/conda-forge/rsgislib-feedstock" xlink:title="rsgislib">
<ellipse fill="#fde725" stroke="black" cx="1358.5" cy="-234" rx="50.09" ry="18"/>
<text text-anchor="middle" x="1358.5" y="-230.3" font-family="Times,serif" font-size="14.00">rsgislib</text>
</a>
</g>
</g>
<!-- h5py&#45;&gt;rsgislib -->
<g id="edge9" class="edge">
<title>h5py&#45;&gt;rsgislib</title>
<path fill="none" stroke="black" d="M1005.79,-447.09C1077.79,-442.09 1256.91,-426.83 1307.5,-396 1341.43,-375.32 1348.1,-361.75 1360.5,-324 1367.04,-304.09 1366.09,-280.29 1363.75,-262.32"/>
<polygon fill="black" stroke="black" points="1367.18,-261.59 1362.21,-252.23 1360.26,-262.64 1367.18,-261.59"/>
</g>
<!-- h5utils -->
<g id="node10" class="node">
<title>h5utils</title>
<g id="a_node10"><a xlink:href="https://github.com/conda-forge/h5utils-feedstock" xlink:title="h5utils">
<ellipse fill="#fde725" stroke="black" cx="273.5" cy="-162" rx="45" ry="18"/>
<text text-anchor="middle" x="273.5" y="-158.3" font-family="Times,serif" font-size="14.00">h5utils</text>
</a>
</g>
</g>
<!-- h5py&#45;&gt;h5utils -->
<g id="edge10" class="edge">
<title>h5py&#45;&gt;h5utils</title>
<path fill="none" stroke="black" d="M944.97,-448.53C823.61,-446.41 379.68,-435.94 332.5,-396 271.65,-344.49 268.77,-240.09 271.22,-190.44"/>
<polygon fill="black" stroke="black" points="274.73,-190.35 271.84,-180.16 267.74,-189.92 274.73,-190.35"/>
</g>
<!-- pymeep -->
<g id="node11" class="node">
<title>pymeep</title>
<g id="a_node11"><a xlink:href="https://github.com/conda-forge/pymeep-feedstock" xlink:title="pymeep">
<ellipse fill="#fde725" stroke="black" cx="307.5" cy="-90" rx="40.5" ry="18"/>
<text text-anchor="middle" x="307.5" y="-86.3" font-family="Times,serif" font-size="14.00">pymeep</text>
</a>
</g>
</g>
<!-- h5py&#45;&gt;pymeep -->
<g id="edge11" class="edge">
<title>h5py&#45;&gt;pymeep</title>
<path fill="none" stroke="black" d="M944.74,-448.72C818.45,-446.76 346.5,-431.12 346.5,-307 346.5,-307 346.5,-307 346.5,-233 346.5,-191.56 330.86,-145.67 319.39,-117.58"/>
<polygon fill="black" stroke="black" points="322.5,-115.93 315.39,-108.07 316.05,-118.65 322.5,-115.93"/>
</g>
<!-- blosc&#45;hdf5&#45;plugin -->
<g id="node12" class="node">
<title>blosc&#45;hdf5&#45;plugin</title>
<g id="a_node12"><a xlink:href="https://github.com/conda-forge/blosc-hdf5-plugin-feedstock" xlink:title="blosc hdf5 plugin">
<ellipse fill="#fde725" stroke="black" cx="498.5" cy="-90" rx="93.68" ry="18"/>
<text text-anchor="middle" x="498.5" y="-86.3" font-family="Times,serif" font-size="14.00">blosc hdf5 plugin</text>
</a>
</g>
</g>
<!-- h5py&#45;&gt;blosc&#45;hdf5&#45;plugin -->
<g id="edge12" class="edge">
<title>h5py&#45;&gt;blosc&#45;hdf5&#45;plugin</title>
<path fill="none" stroke="black" d="M945.31,-446.61C873.5,-440.53 694.59,-423.06 641.5,-396 591.66,-370.6 552.5,-362.94 552.5,-307 552.5,-307 552.5,-307 552.5,-233 552.5,-190.11 530.71,-144.41 514.81,-116.78"/>
<polygon fill="black" stroke="black" points="517.8,-114.95 509.69,-108.13 511.78,-118.52 517.8,-114.95"/>
</g>
<!-- isce2 -->
<g id="node13" class="node">
<title>isce2</title>
<g id="a_node13"><a xlink:href="https://github.com/conda-forge/isce2-feedstock" xlink:title="isce2">
<ellipse fill="#fde725" stroke="black" cx="645.5" cy="-90" rx="35.19" ry="18"/>
<text text-anchor="middle" x="645.5" y="-86.3" font-family="Times,serif" font-size="14.00">isce2</text>
</a>
</g>
</g>
<!-- h5py&#45;&gt;isce2 -->
<g id="edge13" class="edge">
<title>h5py&#45;&gt;isce2</title>
<path fill="none" stroke="black" d="M944.89,-448.02C874.55,-445.13 704.37,-434.25 664.5,-396 635.31,-368 645.5,-347.45 645.5,-307 645.5,-307 645.5,-307 645.5,-233 645.5,-193 645.5,-146.65 645.5,-118.08"/>
<polygon fill="black" stroke="black" points="649,-118.05 645.5,-108.05 642,-118.05 649,-118.05"/>
</g>
<!-- bitshuffle -->
<g id="node14" class="node">
<title>bitshuffle</title>
<g id="a_node14"><a xlink:href="https://github.com/conda-forge/bitshuffle-feedstock" xlink:title="bitshuffle">
<ellipse fill="#fde725" stroke="black" cx="733.5" cy="-378" rx="60" ry="18"/>
<text text-anchor="middle" x="733.5" y="-374.3" font-family="Times,serif" font-size="14.00">bitshuffle</text>
</a>
</g>
</g>
<!-- h5py&#45;&gt;bitshuffle -->
<g id="edge14" class="edge">
<title>h5py&#45;&gt;bitshuffle</title>
<path fill="none" stroke="black" d="M948.68,-441.24C909.22,-429.83 834.8,-408.3 784.68,-393.8"/>
<polygon fill="black" stroke="black" points="785.57,-390.42 774.99,-391 783.63,-397.14 785.57,-390.42"/>
</g>
<!-- triqs -->
<g id="node15" class="node">
<title>triqs</title>
<g id="a_node15"><a xlink:href="https://github.com/conda-forge/triqs-feedstock" xlink:title="triqs">
<ellipse fill="#fde725" stroke="black" cx="821.5" cy="-162" rx="35.19" ry="18"/>
<text text-anchor="middle" x="821.5" y="-158.3" font-family="Times,serif" font-size="14.00">triqs</text>
</a>
</g>
</g>
<!-- h5py&#45;&gt;triqs -->
<g id="edge15" class="edge">
<title>h5py&#45;&gt;triqs</title>
<path fill="none" stroke="black" d="M954.79,-436.69C923.97,-417.13 866.86,-375.81 840.5,-324 818.71,-281.18 817.53,-223.88 819.17,-190.45"/>
<polygon fill="black" stroke="black" points="822.68,-190.28 819.8,-180.08 815.7,-189.85 822.68,-190.28"/>
</g>
<!-- hdf5plugin -->
<g id="node16" class="node">
<title>hdf5plugin</title>
<g id="a_node16"><a xlink:href="https://github.com/conda-forge/hdf5plugin-feedstock" xlink:title="hdf5plugin">
<ellipse fill="#fde725" stroke="black" cx="909.5" cy="-306" rx="60" ry="18"/>
<text text-anchor="middle" x="909.5" y="-302.3" font-family="Times,serif" font-size="14.00">hdf5plugin</text>
</a>
</g>
</g>
<!-- h5py&#45;&gt;hdf5plugin -->
<g id="edge16" class="edge">
<title>h5py&#45;&gt;hdf5plugin</title>
<path fill="none" stroke="black" d="M967.8,-432.43C956.44,-407.98 935.07,-362 921.6,-333.02"/>
<polygon fill="black" stroke="black" points="924.74,-331.49 917.36,-323.9 918.4,-334.45 924.74,-331.49"/>
</g>
<!-- prismatic_split -->
<g id="node17" class="node">
<title>prismatic_split</title>
<g id="a_node17"><a xlink:href="https://github.com/conda-forge/prismatic_split-feedstock" xlink:title="prismatic_split">
<ellipse fill="#fde725" stroke="black" cx="993.5" cy="-234" rx="84" ry="18"/>
<text text-anchor="middle" x="993.5" y="-230.3" font-family="Times,serif" font-size="14.00">prismatic_split</text>
</a>
</g>
</g>
<!-- h5py&#45;&gt;prismatic_split -->
<g id="edge17" class="edge">
<title>h5py&#45;&gt;prismatic_split</title>
<path fill="none" stroke="black" d="M976.94,-431.85C980.06,-394.83 987.43,-307.18 991.2,-262.39"/>
<polygon fill="black" stroke="black" points="994.7,-262.49 992.05,-252.23 987.72,-261.9 994.7,-262.49"/>
</g>
<!-- digital_rf -->
<g id="node18" class="node">
<title>digital_rf</title>
<g id="a_node18"><a xlink:href="https://github.com/conda-forge/digital_rf-feedstock" xlink:title="digital_rf">
<ellipse fill="#fde725" stroke="black" cx="1057.5" cy="-162" rx="60" ry="18"/>
<text text-anchor="middle" x="1057.5" y="-158.3" font-family="Times,serif" font-size="14.00">digital_rf</text>
</a>
</g>
</g>
<!-- h5py&#45;&gt;digital_rf -->
<g id="edge18" class="edge">
<title>h5py&#45;&gt;digital_rf</title>
<path fill="none" stroke="black" d="M988.09,-433.39C1012.84,-401.59 1067.08,-326.05 1086.5,-252 1090.56,-236.52 1090.46,-231.5 1086.5,-216 1084.06,-206.45 1079.5,-196.76 1074.71,-188.33"/>
<polygon fill="black" stroke="black" points="1077.68,-186.49 1069.51,-179.74 1071.69,-190.11 1077.68,-186.49"/>
</g>
<!-- pp&#45;sketchlib -->
<g id="node19" class="node">
<title>pp&#45;sketchlib</title>
<g id="a_node19"><a xlink:href="https://github.com/conda-forge/pp-sketchlib-feedstock" xlink:title="pp sketchlib">
<ellipse fill="#fde725" stroke="black" cx="1106.5" cy="-90" rx="69.59" ry="18"/>
<text text-anchor="middle" x="1106.5" y="-86.3" font-family="Times,serif" font-size="14.00">pp sketchlib</text>
</a>
</g>
</g>
<!-- h5py&#45;&gt;pp&#45;sketchlib -->
<g id="edge19" class="edge">
<title>h5py&#45;&gt;pp&#45;sketchlib</title>
<path fill="none" stroke="black" d="M995.45,-436.16C1009.55,-426.37 1028.23,-411.91 1041.5,-396 1064.81,-368.06 1066.23,-357.48 1080.5,-324 1112.87,-248.04 1141.32,-225.23 1126.5,-144 1124.89,-135.2 1121.9,-125.95 1118.71,-117.7"/>
<polygon fill="black" stroke="black" points="1121.85,-116.12 1114.81,-108.21 1115.38,-118.79 1121.85,-116.12"/>
</g>
<!-- openmc&#45;&gt;conda&#45;forge&#45;pinning -->
<g id="edge20" class="edge">
<title>openmc&#45;&gt;conda&#45;forge&#45;pinning</title>
<path fill="none" stroke="black" d="M1305.97,-287.87C1293.48,-245.57 1268.15,-135.06 1321.5,-72 1338.61,-51.78 1363.58,-39.23 1388.78,-31.45"/>
<polygon fill="black" stroke="black" points="1389.78,-34.8 1398.44,-28.7 1387.86,-28.07 1389.78,-34.8"/>
</g>
<!-- rsgislib&#45;&gt;conda&#45;forge&#45;pinning -->
<g id="edge21" class="edge">
<title>rsgislib&#45;&gt;conda&#45;forge&#45;pinning</title>
<path fill="none" stroke="black" d="M1349.4,-216.16C1333.81,-184.74 1306.49,-116.35 1337.5,-72 1350.81,-52.96 1371.73,-40.74 1393.58,-32.9"/>
<polygon fill="black" stroke="black" points="1394.91,-36.15 1403.32,-29.7 1392.73,-29.5 1394.91,-36.15"/>
</g>
<!-- h5utils&#45;&gt;conda&#45;forge&#45;pinning -->
<g id="edge22" class="edge">
<title>h5utils&#45;&gt;conda&#45;forge&#45;pinning</title>
<path fill="none" stroke="black" d="M263.05,-144.14C252.15,-124.2 239.04,-91.28 257.5,-72 295.58,-32.23 1072.43,-22.13 1368.89,-19.71"/>
<polygon fill="black" stroke="black" points="1369.26,-23.21 1379.23,-19.63 1369.21,-16.21 1369.26,-23.21"/>
</g>
<!-- h5utils&#45;&gt;pymeep -->
<g id="edge23" class="edge">
<title>h5utils&#45;&gt;pymeep</title>
<path fill="none" stroke="black" d="M281.73,-144.05C285.7,-135.89 290.54,-125.91 294.96,-116.82"/>
<polygon fill="black" stroke="black" points="298.12,-118.31 299.35,-107.79 291.83,-115.25 298.12,-118.31"/>
</g>
<!-- pymeep&#45;&gt;conda&#45;forge&#45;pinning -->
<g id="edge24" class="edge">
<title>pymeep&#45;&gt;conda&#45;forge&#45;pinning</title>
<path fill="none" stroke="black" d="M338,-78.08C345.88,-75.67 354.43,-73.42 362.5,-72 553.41,-38.53 1125.03,-25.06 1369.54,-20.73"/>
<polygon fill="black" stroke="black" points="1369.93,-24.22 1379.87,-20.55 1369.81,-17.22 1369.93,-24.22"/>
</g>
<!-- blosc&#45;hdf5&#45;plugin&#45;&gt;conda&#45;forge&#45;pinning -->
<g id="edge25" class="edge">
<title>blosc&#45;hdf5&#45;plugin&#45;&gt;conda&#45;forge&#45;pinning</title>
<path fill="none" stroke="black" d="M564.02,-77.14C576.44,-75.19 589.34,-73.37 601.5,-72 877.19,-41.04 1203.58,-27.36 1371.07,-22.01"/>
<polygon fill="black" stroke="black" points="1371.25,-25.5 1381.13,-21.69 1371.02,-18.51 1371.25,-25.5"/>
</g>
<!-- isce2&#45;&gt;conda&#45;forge&#45;pinning -->
<g id="edge26" class="edge">
<title>isce2&#45;&gt;conda&#45;forge&#45;pinning</title>
<path fill="none" stroke="black" d="M672.35,-78.24C679.45,-75.8 687.18,-73.49 694.5,-72 820.83,-46.32 1186.73,-29.77 1372.09,-22.79"/>
<polygon fill="black" stroke="black" points="1372.28,-26.29 1382.14,-22.42 1372.02,-19.29 1372.28,-26.29"/>
</g>
<!-- bitshuffle&#45;&gt;conda&#45;forge&#45;pinning -->
<g id="edge27" class="edge">
<title>bitshuffle&#45;&gt;conda&#45;forge&#45;pinning</title>
<path fill="none" stroke="black" d="M728.44,-359.68C721.14,-333.11 708.5,-280.56 708.5,-235 708.5,-235 708.5,-235 708.5,-161 708.5,-120.55 696.97,-98.53 727.5,-72 774.76,-30.95 1170.01,-21.64 1368.99,-19.57"/>
<polygon fill="black" stroke="black" points="1369.22,-23.07 1379.19,-19.47 1369.15,-16.07 1369.22,-23.07"/>
</g>
<!-- triqs&#45;&gt;conda&#45;forge&#45;pinning -->
<g id="edge28" class="edge">
<title>triqs&#45;&gt;conda&#45;forge&#45;pinning</title>
<path fill="none" stroke="black" d="M837.11,-145.64C861.98,-121.34 908.79,-76.31 918.5,-72 996.65,-37.28 1228.88,-25.28 1369.79,-21.14"/>
<polygon fill="black" stroke="black" points="1370.3,-24.63 1380.2,-20.85 1370.1,-17.63 1370.3,-24.63"/>
</g>
<!-- triqs_cthyb -->
<g id="node20" class="node">
<title>triqs_cthyb</title>
<g id="a_node20"><a xlink:href="https://github.com/conda-forge/triqs_cthyb-feedstock" xlink:title="triqs_cthyb">
<ellipse fill="#fde725" stroke="black" cx="801.5" cy="-90" rx="64.5" ry="18"/>
<text text-anchor="middle" x="801.5" y="-86.3" font-family="Times,serif" font-size="14.00">triqs_cthyb</text>
</a>
</g>
</g>
<!-- triqs&#45;&gt;triqs_cthyb -->
<g id="edge29" class="edge">
<title>triqs&#45;&gt;triqs_cthyb</title>
<path fill="none" stroke="black" d="M816.66,-144.05C814.43,-136.26 811.73,-126.82 809.24,-118.08"/>
<polygon fill="black" stroke="black" points="812.55,-116.93 806.44,-108.28 805.82,-118.85 812.55,-116.93"/>
</g>
<!-- hdf5plugin&#45;&gt;conda&#45;forge&#45;pinning -->
<g id="edge30" class="edge">
<title>hdf5plugin&#45;&gt;conda&#45;forge&#45;pinning</title>
<path fill="none" stroke="black" d="M904.09,-287.94C899.17,-269.79 893.64,-240.37 900.5,-216 920.81,-143.8 925.13,-112.13 988.5,-72 1049.69,-33.24 1243.22,-22.53 1369.1,-19.74"/>
<polygon fill="black" stroke="black" points="1369.25,-23.24 1379.18,-19.53 1369.11,-16.24 1369.25,-23.24"/>
</g>
<!-- prismatic_split&#45;&gt;conda&#45;forge&#45;pinning -->
<g id="edge31" class="edge">
<title>prismatic_split&#45;&gt;conda&#45;forge&#45;pinning</title>
<path fill="none" stroke="black" d="M989.42,-215.92C982.42,-181.82 972.78,-105.69 1016.5,-72 1069.81,-30.92 1248.58,-20.79 1368.55,-18.77"/>
<polygon fill="black" stroke="black" points="1368.94,-22.27 1378.89,-18.62 1368.84,-15.27 1368.94,-22.27"/>
</g>
<!-- digital_rf&#45;&gt;conda&#45;forge&#45;pinning -->
<g id="edge32" class="edge">
<title>digital_rf&#45;&gt;conda&#45;forge&#45;pinning</title>
<path fill="none" stroke="black" d="M1043.11,-144.28C1028.12,-124.78 1009.18,-92.58 1027.5,-72 1050.17,-46.54 1246.63,-31.4 1373.88,-24.19"/>
<polygon fill="black" stroke="black" points="1374.27,-27.67 1384.06,-23.62 1373.88,-20.68 1374.27,-27.67"/>
</g>
<!-- pp&#45;sketchlib&#45;&gt;conda&#45;forge&#45;pinning -->
<g id="edge33" class="edge">
<title>pp&#45;sketchlib&#45;&gt;conda&#45;forge&#45;pinning</title>
<path fill="none" stroke="black" d="M1159.34,-78.14C1169.67,-76.06 1180.42,-73.94 1190.5,-72 1262.13,-58.25 1343.83,-43.5 1402.56,-33.06"/>
<polygon fill="black" stroke="black" points="1403.28,-36.49 1412.51,-31.3 1402.05,-29.6 1403.28,-36.49"/>
</g>
<!-- triqs_cthyb&#45;&gt;conda&#45;forge&#45;pinning -->
<g id="edge62" class="edge">
<title>triqs_cthyb&#45;&gt;conda&#45;forge&#45;pinning</title>
<path fill="none" stroke="black" d="M848.95,-77.79C859.3,-75.62 870.23,-73.55 880.5,-72 1052.29,-46.06 1253.72,-31.5 1374.57,-24.45"/>
<polygon fill="black" stroke="black" points="1374.79,-27.95 1384.57,-23.88 1374.38,-20.96 1374.79,-27.95"/>
</g>
<!-- hdfeos5 -->
<g id="node21" class="node">
<title>hdfeos5</title>
<g id="a_node21"><a xlink:href="https://github.com/conda-forge/hdfeos5-feedstock/pull/27" xlink:title="hdfeos5">
<ellipse fill="#31688e" stroke="black" cx="1471.5" cy="-234" rx="45" ry="18"/>
<text text-anchor="middle" x="1471.5" y="-230.3" font-family="Times,serif" font-size="14.00" fill="white">hdfeos5</text>
</a>
</g>
</g>
<!-- hdfeos5&#45;&gt;conda&#45;forge&#45;pinning -->
<g id="edge34" class="edge">
<title>hdfeos5&#45;&gt;conda&#45;forge&#45;pinning</title>
<path fill="none" stroke="black" d="M1464.21,-216.18C1460.17,-205.94 1455.56,-192.46 1453.5,-180 1445.69,-132.72 1460.77,-77.82 1471.97,-45.89"/>
<polygon fill="black" stroke="black" points="1475.3,-46.96 1475.43,-36.36 1468.72,-44.57 1475.3,-46.96"/>
</g>
<!-- ncl -->
<g id="node22" class="node">
<title>ncl</title>
<g id="a_node22"><a xlink:href="https://github.com/conda-forge/ncl-feedstock" xlink:title="ncl">
<ellipse fill="#fde725" stroke="black" cx="1489.5" cy="-162" rx="27" ry="18"/>
<text text-anchor="middle" x="1489.5" y="-158.3" font-family="Times,serif" font-size="14.00">ncl</text>
</a>
</g>
</g>
<!-- hdfeos5&#45;&gt;ncl -->
<g id="edge35" class="edge">
<title>hdfeos5&#45;&gt;ncl</title>
<path fill="none" stroke="black" d="M1475.86,-216.05C1477.89,-208.14 1480.36,-198.54 1482.64,-189.69"/>
<polygon fill="black" stroke="black" points="1486.08,-190.35 1485.18,-179.79 1479.3,-188.6 1486.08,-190.35"/>
</g>
<!-- pynio -->
<g id="node23" class="node">
<title>pynio</title>
<g id="a_node23"><a xlink:href="https://github.com/conda-forge/pynio-feedstock" xlink:title="pynio">
<ellipse fill="#fde725" stroke="black" cx="1381.5" cy="-90" rx="35.19" ry="18"/>
<text text-anchor="middle" x="1381.5" y="-86.3" font-family="Times,serif" font-size="14.00">pynio</text>
</a>
</g>
</g>
<!-- hdfeos5&#45;&gt;pynio -->
<g id="edge36" class="edge">
<title>hdfeos5&#45;&gt;pynio</title>
<path fill="none" stroke="black" d="M1453.31,-217.15C1442.74,-207.25 1429.73,-193.8 1420.5,-180 1407.44,-160.48 1397.05,-135.87 1390.29,-117.48"/>
<polygon fill="black" stroke="black" points="1393.56,-116.22 1386.91,-107.97 1386.96,-118.57 1393.56,-116.22"/>
</g>
<!-- ncl&#45;&gt;conda&#45;forge&#45;pinning -->
<g id="edge37" class="edge">
<title>ncl&#45;&gt;conda&#45;forge&#45;pinning</title>
<path fill="none" stroke="black" d="M1488.66,-143.87C1487.46,-119.67 1485.27,-75.21 1483.85,-46.39"/>
<polygon fill="black" stroke="black" points="1487.34,-46 1483.35,-36.19 1480.34,-46.35 1487.34,-46"/>
</g>
<!-- pynio&#45;&gt;conda&#45;forge&#45;pinning -->
<g id="edge38" class="edge">
<title>pynio&#45;&gt;conda&#45;forge&#45;pinning</title>
<path fill="none" stroke="black" d="M1401.45,-75.17C1415.23,-65.62 1433.86,-52.71 1449.79,-41.67"/>
<polygon fill="black" stroke="black" points="1452.09,-44.34 1458.31,-35.76 1448.1,-38.58 1452.09,-44.34"/>
</g>
<!-- hyperion&#45;fortran -->
<g id="node24" class="node">
<title>hyperion&#45;fortran</title>
<g id="a_node24"><a xlink:href="https://github.com/conda-forge/hyperion-fortran-feedstock/pull/18" xlink:title="hyperion fortran">
<ellipse fill="#31688e" stroke="black" cx="1544.5" cy="-378" rx="89.08" ry="18"/>
<text text-anchor="middle" x="1544.5" y="-374.3" font-family="Times,serif" font-size="14.00" fill="white">hyperion fortran</text>
</a>
</g>
</g>
<!-- hyperion&#45;fortran&#45;&gt;conda&#45;forge&#45;pinning -->
<g id="edge39" class="edge">
<title>hyperion&#45;fortran&#45;&gt;conda&#45;forge&#45;pinning</title>
<path fill="none" stroke="black" d="M1544.56,-359.83C1544.37,-320.97 1542.13,-223.45 1525.5,-144 1518.19,-109.06 1503.88,-70.42 1493.78,-45.49"/>
<polygon fill="black" stroke="black" points="1496.92,-43.92 1489.88,-36.01 1490.45,-46.59 1496.92,-43.92"/>
</g>
<!-- marray -->
<g id="node25" class="node">
<title>marray</title>
<g id="a_node25"><a xlink:href="https://github.com/conda-forge/marray-feedstock/pull/8" xlink:title="marray">
<ellipse fill="#31688e" stroke="black" cx="1589.5" cy="-90" rx="40.5" ry="18"/>
<text text-anchor="middle" x="1589.5" y="-86.3" font-family="Times,serif" font-size="14.00" fill="white">marray</text>
</a>
</g>
</g>
<!-- marray&#45;&gt;conda&#45;forge&#45;pinning -->
<g id="edge40" class="edge">
<title>marray&#45;&gt;conda&#45;forge&#45;pinning</title>
<path fill="none" stroke="black" d="M1567.59,-74.67C1552.8,-64.99 1533,-52.04 1516.22,-41.06"/>
<polygon fill="black" stroke="black" points="1518.05,-38.07 1507.76,-35.53 1514.21,-43.93 1518.05,-38.07"/>
</g>
<!-- octave -->
<g id="node26" class="node">
<title>octave</title>
<g id="a_node26"><a xlink:href="https://github.com/conda-forge/octave-feedstock/pull/39" xlink:title="octave">
<ellipse fill="#31688e" stroke="black" cx="1627.5" cy="-162" rx="40.5" ry="18"/>
<text text-anchor="middle" x="1627.5" y="-158.3" font-family="Times,serif" font-size="14.00" fill="white">octave</text>
</a>
</g>
</g>
<!-- octave&#45;&gt;conda&#45;forge&#45;pinning -->
<g id="edge41" class="edge">
<title>octave&#45;&gt;conda&#45;forge&#45;pinning</title>
<path fill="none" stroke="black" d="M1635.91,-144.22C1644.23,-124.95 1653.73,-93.26 1638.5,-72 1623.93,-51.67 1601.11,-39.04 1577.38,-31.23"/>
<polygon fill="black" stroke="black" points="1578.12,-27.8 1567.54,-28.26 1576.1,-34.5 1578.12,-27.8"/>
</g>
<!-- pyne -->
<g id="node27" class="node">
<title>pyne</title>
<g id="a_node27"><a xlink:href="https://github.com/conda-forge/pyne-feedstock/pull/40" xlink:title="pyne">
<ellipse fill="#31688e" stroke="black" cx="1675.5" cy="-234" rx="30.59" ry="18"/>
<text text-anchor="middle" x="1675.5" y="-230.3" font-family="Times,serif" font-size="14.00" fill="white">pyne</text>
</a>
</g>
</g>
<!-- pyne&#45;&gt;conda&#45;forge&#45;pinning -->
<g id="edge42" class="edge">
<title>pyne&#45;&gt;conda&#45;forge&#45;pinning</title>
<path fill="none" stroke="black" d="M1679.51,-216.15C1686.19,-183.48 1695.38,-111.27 1657.5,-72 1637,-50.74 1608.29,-37.94 1580.04,-30.25"/>
<polygon fill="black" stroke="black" points="1580.63,-26.79 1570.08,-27.73 1578.92,-33.57 1580.63,-26.79"/>
</g>
<!-- pytrilinos -->
<g id="node28" class="node">
<title>pytrilinos</title>
<g id="a_node28"><a xlink:href="https://github.com/conda-forge/pytrilinos-feedstock" xlink:title="pytrilinos">
<ellipse fill="#fde725" stroke="black" cx="1684.5" cy="-306" rx="60" ry="18"/>
<text text-anchor="middle" x="1684.5" y="-302.3" font-family="Times,serif" font-size="14.00">pytrilinos</text>
</a>
</g>
</g>
<!-- pytrilinos&#45;&gt;conda&#45;forge&#45;pinning -->
<g id="edge43" class="edge">
<title>pytrilinos&#45;&gt;conda&#45;forge&#45;pinning</title>
<path fill="none" stroke="black" d="M1697.32,-288.38C1704.18,-278.42 1711.93,-265.17 1715.5,-252 1736.77,-173.5 1739.22,-130.29 1682.5,-72 1666.04,-55.09 1613.78,-41.57 1566.82,-32.42"/>
<polygon fill="black" stroke="black" points="1567.37,-28.97 1556.89,-30.54 1566.06,-35.84 1567.37,-28.97"/>
</g>
<!-- r&#45;hdf5r -->
<g id="node29" class="node">
<title>r&#45;hdf5r</title>
<g id="a_node29"><a xlink:href="https://github.com/conda-forge/r-hdf5r-feedstock/pull/12" xlink:title="r hdf5r">
<ellipse fill="#31688e" stroke="black" cx="1772.5" cy="-378" rx="45" ry="18"/>
<text text-anchor="middle" x="1772.5" y="-374.3" font-family="Times,serif" font-size="14.00" fill="white">r hdf5r</text>
</a>
</g>
</g>
<!-- r&#45;hdf5r&#45;&gt;conda&#45;forge&#45;pinning -->
<g id="edge44" class="edge">
<title>r&#45;hdf5r&#45;&gt;conda&#45;forge&#45;pinning</title>
<path fill="none" stroke="black" d="M1772.5,-359.95C1772.5,-333.29 1772.5,-280.11 1772.5,-235 1772.5,-235 1772.5,-235 1772.5,-161 1772.5,-75.08 1668.55,-41.14 1585.12,-27.74"/>
<polygon fill="black" stroke="black" points="1585.47,-24.25 1575.06,-26.2 1584.41,-31.17 1585.47,-24.25"/>
</g>
<!-- r&#45;ncdf4 -->
<g id="node30" class="node">
<title>r&#45;ncdf4</title>
<g id="a_node30"><a xlink:href="https://github.com/conda-forge/r-ncdf4-feedstock/pull/20" xlink:title="r ncdf4">
<ellipse fill="#31688e" stroke="black" cx="1845.5" cy="-90" rx="45" ry="18"/>
<text text-anchor="middle" x="1845.5" y="-86.3" font-family="Times,serif" font-size="14.00" fill="white">r ncdf4</text>
</a>
</g>
</g>
<!-- r&#45;ncdf4&#45;&gt;conda&#45;forge&#45;pinning -->
<g id="edge45" class="edge">
<title>r&#45;ncdf4&#45;&gt;conda&#45;forge&#45;pinning</title>
<path fill="none" stroke="black" d="M1811.03,-78.39C1803.02,-76.12 1794.5,-73.84 1786.5,-72 1713.93,-55.27 1630.53,-41.08 1569.47,-31.61"/>
<polygon fill="black" stroke="black" points="1569.9,-28.13 1559.48,-30.07 1568.83,-35.05 1569.9,-28.13"/>
</g>
<!-- shogun -->
<g id="node31" class="node">
<title>shogun</title>
<g id="a_node31"><a xlink:href="https://github.com/conda-forge/shogun-feedstock/pull/20" xlink:title="shogun">
<ellipse fill="#31688e" stroke="black" cx="1887.5" cy="-162" rx="40.5" ry="18"/>
<text text-anchor="middle" x="1887.5" y="-158.3" font-family="Times,serif" font-size="14.00" fill="white">shogun</text>
</a>
</g>
</g>
<!-- shogun&#45;&gt;conda&#45;forge&#45;pinning -->
<g id="edge46" class="edge">
<title>shogun&#45;&gt;conda&#45;forge&#45;pinning</title>
<path fill="none" stroke="black" d="M1896.58,-144.35C1905.98,-124.61 1917.02,-91.89 1899.5,-72 1879.23,-48.99 1705.78,-33.34 1589.06,-25.32"/>
<polygon fill="black" stroke="black" points="1589.21,-21.82 1579,-24.63 1588.74,-28.8 1589.21,-21.82"/>
</g>
<!-- vigra -->
<g id="node32" class="node">
<title>vigra</title>
<g id="a_node32"><a xlink:href="https://github.com/conda-forge/vigra-feedstock/pull/54" xlink:title="vigra">
<ellipse fill="#31688e" stroke="black" cx="1931.5" cy="-234" rx="35.19" ry="18"/>
<text text-anchor="middle" x="1931.5" y="-230.3" font-family="Times,serif" font-size="14.00" fill="white">vigra</text>
</a>
</g>
</g>
<!-- vigra&#45;&gt;conda&#45;forge&#45;pinning -->
<g id="edge47" class="edge">
<title>vigra&#45;&gt;conda&#45;forge&#45;pinning</title>
<path fill="none" stroke="black" d="M1936.62,-216.1C1945.58,-182.66 1959.49,-108.2 1918.5,-72 1872.1,-31.03 1709.2,-20.71 1596.23,-18.64"/>
<polygon fill="black" stroke="black" points="1596.19,-15.14 1586.14,-18.47 1596.08,-22.14 1596.19,-15.14"/>
</g>
<!-- yaafe -->
<g id="node33" class="node">
<title>yaafe</title>
<g id="a_node33"><a xlink:href="https://github.com/conda-forge/yaafe-feedstock/pull/9" xlink:title="yaafe">
<ellipse fill="#31688e" stroke="black" cx="1969.5" cy="-306" rx="35.19" ry="18"/>
<text text-anchor="middle" x="1969.5" y="-302.3" font-family="Times,serif" font-size="14.00" fill="white">yaafe</text>
</a>
</g>
</g>
<!-- yaafe&#45;&gt;conda&#45;forge&#45;pinning -->
<g id="edge48" class="edge">
<title>yaafe&#45;&gt;conda&#45;forge&#45;pinning</title>
<path fill="none" stroke="black" d="M1974.2,-287.93C1985.05,-244.3 2006.44,-128.16 1944.5,-72 1918.73,-48.64 1718.29,-32.71 1590.03,-24.8"/>
<polygon fill="black" stroke="black" points="1589.97,-21.29 1579.77,-24.17 1589.54,-28.27 1589.97,-21.29"/>
</g>
<!-- alps -->
<g id="node34" class="node">
<title>alps</title>
<g id="a_node34"><a xlink:href="https://github.com/conda-forge/alps-feedstock/pull/31" xlink:title="alps">
<ellipse fill="#31688e" stroke="black" cx="2032.5" cy="-378" rx="30.59" ry="18"/>
<text text-anchor="middle" x="2032.5" y="-374.3" font-family="Times,serif" font-size="14.00" fill="white">alps</text>
</a>
</g>
</g>
<!-- alps&#45;&gt;conda&#45;forge&#45;pinning -->
<g id="edge49" class="edge">
<title>alps&#45;&gt;conda&#45;forge&#45;pinning</title>
<path fill="none" stroke="black" d="M2032.5,-359.95C2032.5,-333.29 2032.5,-280.11 2032.5,-235 2032.5,-235 2032.5,-235 2032.5,-161 2032.5,-113.05 2012.66,-96.61 1971.5,-72 1910.15,-35.31 1719.9,-23.94 1595.59,-20.47"/>
<polygon fill="black" stroke="black" points="1595.36,-16.96 1585.27,-20.19 1595.17,-23.96 1595.36,-16.96"/>
</g>
<!-- spdlib -->
<g id="node35" class="node">
<title>spdlib</title>
<g id="a_node35"><a xlink:href="https://github.com/conda-forge/spdlib-feedstock/pull/15" xlink:title="spdlib">
<ellipse fill="#31688e" stroke="black" cx="2101.5" cy="-90" rx="40.5" ry="18"/>
<text text-anchor="middle" x="2101.5" y="-86.3" font-family="Times,serif" font-size="14.00" fill="white">spdlib</text>
</a>
</g>
</g>
<!-- spdlib&#45;&gt;conda&#45;forge&#45;pinning -->
<g id="edge50" class="edge">
<title>spdlib&#45;&gt;conda&#45;forge&#45;pinning</title>
<path fill="none" stroke="black" d="M2070.66,-78.25C2062.86,-75.87 2054.44,-73.58 2046.5,-72 1891.08,-41.02 1707.86,-28.04 1593.42,-22.68"/>
<polygon fill="black" stroke="black" points="1593.39,-19.17 1583.24,-22.21 1593.07,-26.17 1593.39,-19.17"/>
</g>
<!-- mpb -->
<g id="node36" class="node">
<title>mpb</title>
<g id="a_node36"><a xlink:href="https://github.com/conda-forge/mpb-feedstock/pull/22" xlink:title="mpb">
<ellipse fill="#31688e" stroke="black" cx="401.5" cy="-162" rx="27" ry="18"/>
<text text-anchor="middle" x="401.5" y="-158.3" font-family="Times,serif" font-size="14.00" fill="white">mpb</text>
</a>
</g>
</g>
<!-- mpb&#45;&gt;conda&#45;forge&#45;pinning -->
<g id="edge51" class="edge">
<title>mpb&#45;&gt;conda&#45;forge&#45;pinning</title>
<path fill="none" stroke="black" d="M393.91,-144.42C386.05,-124.44 377.24,-91.18 395.5,-72 428.69,-37.15 1097.64,-24.2 1369.31,-20.37"/>
<polygon fill="black" stroke="black" points="1369.64,-23.86 1379.59,-20.22 1369.54,-16.86 1369.64,-23.86"/>
</g>
<!-- mpb&#45;&gt;pymeep -->
<g id="edge52" class="edge">
<title>mpb&#45;&gt;pymeep</title>
<path fill="none" stroke="black" d="M383.82,-147.83C370.27,-137.74 351.3,-123.62 335.67,-111.98"/>
<polygon fill="black" stroke="black" points="337.49,-108.97 327.38,-105.8 333.31,-114.58 337.49,-108.97"/>
</g>
<!-- openpmd&#45;api -->
<g id="node37" class="node">
<title>openpmd&#45;api</title>
<g id="a_node37"><a xlink:href="https://github.com/conda-forge/openpmd-api-feedstock" xlink:title="openpmd api">
<ellipse fill="#fde725" stroke="black" cx="2224.5" cy="-90" rx="64.5" ry="18"/>
<text text-anchor="middle" x="2224.5" y="-86.3" font-family="Times,serif" font-size="14.00">openpmd api</text>
</a>
</g>
</g>
<!-- openpmd&#45;api&#45;&gt;conda&#45;forge&#45;pinning -->
<g id="edge53" class="edge">
<title>openpmd&#45;api&#45;&gt;conda&#45;forge&#45;pinning</title>
<path fill="none" stroke="black" d="M2178.52,-77.34C2169.29,-75.31 2159.62,-73.4 2150.5,-72 1955.64,-42.05 1726.05,-28.53 1593.1,-22.81"/>
<polygon fill="black" stroke="black" points="1593.04,-19.3 1582.9,-22.38 1592.75,-26.3 1593.04,-19.3"/>
</g>
<!-- cmor -->
<g id="node38" class="node">
<title>cmor</title>
<g id="a_node38"><a xlink:href="https://github.com/conda-forge/cmor-feedstock/pull/22" xlink:title="cmor">
<ellipse fill="#31688e" stroke="black" cx="2334.5" cy="-162" rx="30.59" ry="18"/>
<text text-anchor="middle" x="2334.5" y="-158.3" font-family="Times,serif" font-size="14.00" fill="white">cmor</text>
</a>
</g>
</g>
<!-- cmor&#45;&gt;conda&#45;forge&#45;pinning -->
<g id="edge54" class="edge">
<title>cmor&#45;&gt;conda&#45;forge&#45;pinning</title>
<path fill="none" stroke="black" d="M2336.37,-143.92C2337.56,-123.43 2335.95,-89.65 2315.5,-72 2262.31,-26.1 1811.72,-19.33 1596.31,-18.74"/>
<polygon fill="black" stroke="black" points="1596.24,-15.24 1586.23,-18.72 1596.22,-22.24 1596.24,-15.24"/>
</g>
<!-- freecad -->
<g id="node39" class="node">
<title>freecad</title>
<g id="a_node39"><a xlink:href="https://github.com/conda-forge/freecad-feedstock/pull/38" xlink:title="freecad">
<ellipse fill="#31688e" stroke="black" cx="2358.5" cy="-234" rx="45" ry="18"/>
<text text-anchor="middle" x="2358.5" y="-230.3" font-family="Times,serif" font-size="14.00" fill="white">freecad</text>
</a>
</g>
</g>
<!-- freecad&#45;&gt;conda&#45;forge&#45;pinning -->
<g id="edge55" class="edge">
<title>freecad&#45;&gt;conda&#45;forge&#45;pinning</title>
<path fill="none" stroke="black" d="M2364.99,-216.1C2368.58,-205.84 2372.67,-192.36 2374.5,-180 2381.87,-130.08 2381.43,-100.07 2339.5,-72 2279.22,-31.64 1815.1,-22.01 1596.15,-19.72"/>
<polygon fill="black" stroke="black" points="1595.94,-16.22 1585.91,-19.61 1595.87,-23.22 1595.94,-16.22"/>
</g>
<!-- openmeeg -->
<g id="node40" class="node">
<title>openmeeg</title>
<g id="a_node40"><a xlink:href="https://github.com/conda-forge/openmeeg-feedstock" xlink:title="openmeeg">
<ellipse fill="#fde725" stroke="black" cx="2391.5" cy="-306" rx="50.09" ry="18"/>
<text text-anchor="middle" x="2391.5" y="-302.3" font-family="Times,serif" font-size="14.00">openmeeg</text>
</a>
</g>
</g>
<!-- openmeeg&#45;&gt;conda&#45;forge&#45;pinning -->
<g id="edge56" class="edge">
<title>openmeeg&#45;&gt;conda&#45;forge&#45;pinning</title>
<path fill="none" stroke="black" d="M2400.22,-287.83C2404.87,-277.69 2410.12,-264.44 2412.5,-252 2427.9,-171.31 2434.72,-123.23 2370.5,-72 2311.34,-24.81 1822.3,-18.81 1596.27,-18.59"/>
<polygon fill="black" stroke="black" points="1596.03,-15.09 1586.03,-18.59 1596.03,-22.09 1596.03,-15.09"/>
</g>
<!-- scilab -->
<g id="node41" class="node">
<title>scilab</title>
<g id="a_node41"><a xlink:href="https://github.com/conda-forge/scilab-feedstock/pull/12" xlink:title="scilab">
<ellipse fill="#31688e" stroke="black" cx="2469.5" cy="-378" rx="40.5" ry="18"/>
<text text-anchor="middle" x="2469.5" y="-374.3" font-family="Times,serif" font-size="14.00" fill="white">scilab</text>
</a>
</g>
</g>
<!-- scilab&#45;&gt;conda&#45;forge&#45;pinning -->
<g id="edge57" class="edge">
<title>scilab&#45;&gt;conda&#45;forge&#45;pinning</title>
<path fill="none" stroke="black" d="M2469.5,-359.95C2469.5,-333.29 2469.5,-280.11 2469.5,-235 2469.5,-235 2469.5,-235 2469.5,-161 2469.5,-111.49 2446.15,-95.37 2402.5,-72 2333.05,-34.82 1825.95,-23.48 1595.69,-20.22"/>
<polygon fill="black" stroke="black" points="1595.66,-16.72 1585.61,-20.08 1595.56,-23.72 1595.66,-16.72"/>
</g>
<!-- adios2 -->
<g id="node42" class="node">
<title>adios2</title>
<g id="a_node42"><a xlink:href="https://github.com/conda-forge/adios2-feedstock/pull/11" xlink:title="adios2">
<ellipse fill="#31688e" stroke="black" cx="2234.5" cy="-162" rx="40.5" ry="18"/>
<text text-anchor="middle" x="2234.5" y="-158.3" font-family="Times,serif" font-size="14.00" fill="white">adios2</text>
</a>
</g>
</g>
<!-- adios2&#45;&gt;conda&#45;forge&#45;pinning -->
<g id="edge58" class="edge">
<title>adios2&#45;&gt;conda&#45;forge&#45;pinning</title>
<path fill="none" stroke="black" d="M2256.68,-146.85C2282.82,-128.51 2320.02,-96.04 2297.5,-72 2273.82,-46.73 1811.48,-29.16 1593.91,-22.26"/>
<polygon fill="black" stroke="black" points="1593.84,-18.75 1583.74,-21.93 1593.62,-25.75 1593.84,-18.75"/>
</g>
<!-- adios2&#45;&gt;openpmd&#45;api -->
<g id="edge59" class="edge">
<title>adios2&#45;&gt;openpmd&#45;api</title>
<path fill="none" stroke="black" d="M2232.03,-143.7C2230.93,-135.98 2229.6,-126.71 2228.37,-118.11"/>
<polygon fill="black" stroke="black" points="2231.82,-117.51 2226.94,-108.1 2224.89,-118.5 2231.82,-117.51"/>
</g>
<!-- bonsu -->
<g id="node43" class="node">
<title>bonsu</title>
<g id="a_node43"><a xlink:href="https://github.com/conda-forge/bonsu-feedstock/pull/5" xlink:title="bonsu">
<ellipse fill="#31688e" stroke="black" cx="2532.5" cy="-90" rx="35.19" ry="18"/>
<text text-anchor="middle" x="2532.5" y="-86.3" font-family="Times,serif" font-size="14.00" fill="white">bonsu</text>
</a>
</g>
</g>
<!-- bonsu&#45;&gt;conda&#45;forge&#45;pinning -->
<g id="edge60" class="edge">
<title>bonsu&#45;&gt;conda&#45;forge&#45;pinning</title>
<path fill="none" stroke="black" d="M2505.66,-78.17C2498.56,-75.73 2490.83,-73.44 2483.5,-72 2316.35,-39.26 1819.59,-25.6 1594.99,-20.99"/>
<polygon fill="black" stroke="black" points="1594.9,-17.48 1584.83,-20.78 1594.76,-24.48 1594.9,-17.48"/>
</g>
<!-- libvips -->
<g id="node44" class="node">
<title>libvips</title>
<g id="a_node44"><a xlink:href="https://github.com/conda-forge/libvips-feedstock" xlink:title="libvips">
<ellipse fill="#fde725" stroke="black" cx="2577.5" cy="-162" rx="45" ry="18"/>
<text text-anchor="middle" x="2577.5" y="-158.3" font-family="Times,serif" font-size="14.00">libvips</text>
</a>
</g>
</g>
<!-- libvips&#45;&gt;conda&#45;forge&#45;pinning -->
<g id="edge61" class="edge">
<title>libvips&#45;&gt;conda&#45;forge&#45;pinning</title>
<path fill="none" stroke="black" d="M2583.41,-144.02C2589.19,-123.96 2594.73,-90.92 2576.5,-72 2542.88,-37.1 1868.94,-24.17 1595.9,-20.36"/>
<polygon fill="black" stroke="black" points="1595.62,-16.85 1585.57,-20.21 1595.52,-23.85 1595.62,-16.85"/>
</g>
<!-- dagmc -->
<g id="node45" class="node">
<title>dagmc</title>
<g id="a_node45"><a xlink:href="https://github.com/conda-forge/dagmc-feedstock/pull/1" xlink:title="dagmc">
<ellipse fill="#31688e" stroke="black" cx="2650.5" cy="-234" rx="35.19" ry="18"/>
<text text-anchor="middle" x="2650.5" y="-230.3" font-family="Times,serif" font-size="14.00" fill="white">dagmc</text>
</a>
</g>
</g>
<!-- dagmc&#45;&gt;conda&#45;forge&#45;pinning -->
<g id="edge63" class="edge">
<title>dagmc&#45;&gt;conda&#45;forge&#45;pinning</title>
<path fill="none" stroke="black" d="M2651.04,-215.89C2651.05,-181.38 2645.47,-104.02 2597.5,-72 2556.32,-44.52 1870.27,-27.14 1595.23,-21.24"/>
<polygon fill="black" stroke="black" points="1594.9,-17.74 1584.83,-21.02 1594.75,-24.73 1594.9,-17.74"/>
</g>
<!-- nccmp -->
<g id="node46" class="node">
<title>nccmp</title>
<g id="a_node46"><a xlink:href="https://github.com/conda-forge/nccmp-feedstock/pull/2" xlink:title="nccmp">
<ellipse fill="#31688e" stroke="black" cx="2713.5" cy="-306" rx="35.19" ry="18"/>
<text text-anchor="middle" x="2713.5" y="-302.3" font-family="Times,serif" font-size="14.00" fill="white">nccmp</text>
</a>
</g>
</g>
<!-- nccmp&#45;&gt;conda&#45;forge&#45;pinning -->
<g id="edge64" class="edge">
<title>nccmp&#45;&gt;conda&#45;forge&#45;pinning</title>
<path fill="none" stroke="black" d="M2713.39,-287.8C2712.05,-242.79 2701.45,-121.6 2627.5,-72 2585.13,-43.58 1875.77,-26.68 1595.31,-21.08"/>
<polygon fill="black" stroke="black" points="1595.18,-17.58 1585.11,-20.88 1595.04,-24.58 1595.18,-17.58"/>
</g>
</g>
</svg>
