<?xml version="1.0" encoding="UTF-8" standalone="no"?>
<!DOCTYPE svg PUBLIC "-//W3C//DTD SVG 1.1//EN"
 "http://www.w3.org/Graphics/SVG/1.1/DTD/svg11.dtd">
<!-- Generated by graphviz version 2.42.3 (20191010.1750)
 -->
<!-- Title: %3 Pages: 1 -->
<svg width="2694pt" height="476pt"
 viewBox="0.00 0.00 2693.60 476.00" xmlns="http://www.w3.org/2000/svg" xmlns:xlink="http://www.w3.org/1999/xlink">
<g id="graph0" class="graph" transform="scale(1 1) rotate(0) translate(4 472)">
<title>%3</title>
<polygon fill="white" stroke="transparent" points="-4,4 -4,-472 2689.6,-472 2689.6,4 -4,4"/>
<!-- caffe -->
<g id="node1" class="node">
<title>caffe</title>
<g id="a_node1"><a xlink:href="https://github.com/conda-forge/caffe-feedstock" xlink:title="caffe">
<ellipse fill="#fde725" stroke="black" cx="1204.5" cy="-378" rx="35.19" ry="18"/>
<text text-anchor="middle" x="1204.5" y="-374.3" font-family="Times,serif" font-size="14.00">caffe</text>
</a>
</g>
</g>
<!-- conda&#45;forge&#45;pinning -->
<g id="node2" class="node">
<title>conda&#45;forge&#45;pinning</title>
<ellipse fill="none" stroke="black" cx="1450.5" cy="-18" rx="103.5" ry="18"/>
<text text-anchor="middle" x="1450.5" y="-14.3" font-family="Times,serif" font-size="14.00">conda&#45;forge&#45;pinning</text>
</g>
<!-- caffe&#45;&gt;conda&#45;forge&#45;pinning -->
<g id="edge1" class="edge">
<title>caffe&#45;&gt;conda&#45;forge&#45;pinning</title>
<path fill="none" stroke="black" d="M1204.5,-359.95C1204.5,-333.29 1204.5,-280.11 1204.5,-235 1204.5,-235 1204.5,-235 1204.5,-161 1204.5,-120.03 1199.11,-100.55 1228.5,-72 1247.53,-53.52 1307.36,-39.87 1360.12,-31.06"/>
<polygon fill="black" stroke="black" points="1360.92,-34.48 1370.22,-29.42 1359.79,-27.57 1360.92,-34.48"/>
</g>
<!-- cyclus -->
<g id="node3" class="node">
<title>cyclus</title>
<g id="a_node3"><a xlink:href="https://github.com/conda-forge/cyclus-feedstock/pull/56" xlink:title="cyclus">
<ellipse fill="#31688e" stroke="black" cx="40.5" cy="-90" rx="40.5" ry="18"/>
<text text-anchor="middle" x="40.5" y="-86.3" font-family="Times,serif" font-size="14.00" fill="white">cyclus</text>
</a>
</g>
</g>
<!-- cyclus&#45;&gt;conda&#45;forge&#45;pinning -->
<g id="edge2" class="edge">
<title>cyclus&#45;&gt;conda&#45;forge&#45;pinning</title>
<path fill="none" stroke="black" d="M70.99,-78.03C78.88,-75.62 87.42,-73.38 95.5,-72 332.74,-31.41 1055.44,-21.85 1336.75,-19.64"/>
<polygon fill="black" stroke="black" points="1337,-23.14 1346.97,-19.57 1336.95,-16.14 1337,-23.14"/>
</g>
<!-- fenics -->
<g id="node4" class="node">
<title>fenics</title>
<g id="a_node4"><a xlink:href="https://github.com/conda-forge/fenics-feedstock/pull/107" xlink:title="fenics">
<ellipse fill="#31688e" stroke="black" cx="93.5" cy="-162" rx="40.5" ry="18"/>
<text text-anchor="middle" x="93.5" y="-158.3" font-family="Times,serif" font-size="14.00" fill="white">fenics</text>
</a>
</g>
</g>
<!-- fenics&#45;&gt;conda&#45;forge&#45;pinning -->
<g id="edge3" class="edge">
<title>fenics&#45;&gt;conda&#45;forge&#45;pinning</title>
<path fill="none" stroke="black" d="M98.54,-144C105.79,-122.93 121.37,-87.86 148.5,-72 199.39,-42.25 1030.61,-25.81 1337.67,-20.73"/>
<polygon fill="black" stroke="black" points="1337.99,-24.22 1347.93,-20.56 1337.88,-17.22 1337.99,-24.22"/>
</g>
<!-- flann -->
<g id="node5" class="node">
<title>flann</title>
<g id="a_node5"><a xlink:href="https://github.com/conda-forge/flann-feedstock/pull/26" xlink:title="flann">
<ellipse fill="#31688e" stroke="black" cx="137.5" cy="-234" rx="35.19" ry="18"/>
<text text-anchor="middle" x="137.5" y="-230.3" font-family="Times,serif" font-size="14.00" fill="white">flann</text>
</a>
</g>
</g>
<!-- flann&#45;&gt;conda&#45;forge&#45;pinning -->
<g id="edge4" class="edge">
<title>flann&#45;&gt;conda&#45;forge&#45;pinning</title>
<path fill="none" stroke="black" d="M140.19,-215.83C146.48,-178.09 163.39,-89.88 186.5,-72 231.61,-37.09 1036.05,-23.93 1337.59,-20.22"/>
<polygon fill="black" stroke="black" points="1337.72,-23.72 1347.67,-20.09 1337.63,-16.72 1337.72,-23.72"/>
</g>
<!-- graph -->
<g id="node6" class="node">
<title>graph</title>
<g id="a_node6"><a xlink:href="https://github.com/conda-forge/graph-feedstock/pull/5" xlink:title="graph">
<ellipse fill="#31688e" stroke="black" cx="200.5" cy="-306" rx="35.19" ry="18"/>
<text text-anchor="middle" x="200.5" y="-302.3" font-family="Times,serif" font-size="14.00" fill="white">graph</text>
</a>
</g>
</g>
<!-- graph&#45;&gt;conda&#45;forge&#45;pinning -->
<g id="edge5" class="edge">
<title>graph&#45;&gt;conda&#45;forge&#45;pinning</title>
<path fill="none" stroke="black" d="M197.15,-287.93C189.51,-243.25 176.33,-122.78 244.5,-72 287.89,-39.67 1046.36,-25.01 1337.75,-20.55"/>
<polygon fill="black" stroke="black" points="1337.97,-24.05 1347.92,-20.4 1337.86,-17.05 1337.97,-24.05"/>
</g>
<!-- h5py -->
<g id="node7" class="node">
<title>h5py</title>
<g id="a_node7"><a xlink:href="https://github.com/conda-forge/h5py-feedstock/pull/72" xlink:title="h5py">
<ellipse fill="#31688e" stroke="black" cx="975.5" cy="-450" rx="30.59" ry="18"/>
<text text-anchor="middle" x="975.5" y="-446.3" font-family="Times,serif" font-size="14.00" fill="white">h5py</text>
</a>
</g>
</g>
<!-- h5py&#45;&gt;caffe -->
<g id="edge6" class="edge">
<title>h5py&#45;&gt;caffe</title>
<path fill="none" stroke="black" d="M1002.46,-441.5C1037.76,-431.57 1101.52,-413.3 1155.5,-396 1159.25,-394.8 1163.15,-393.51 1167.04,-392.2"/>
<polygon fill="black" stroke="black" points="1168.26,-395.48 1176.59,-388.94 1166,-388.86 1168.26,-395.48"/>
</g>
<!-- h5py&#45;&gt;conda&#45;forge&#45;pinning -->
<g id="edge7" class="edge">
<title>h5py&#45;&gt;conda&#45;forge&#45;pinning</title>
<path fill="none" stroke="black" d="M1006.02,-447.78C1070.67,-444.47 1218.02,-432.97 1248.5,-396 1258.68,-383.66 1248.88,-376 1248.5,-360 1247.17,-304.4 1242.5,-290.62 1242.5,-235 1242.5,-235 1242.5,-235 1242.5,-161 1242.5,-92.66 1320.03,-54.84 1380.43,-35.74"/>
<polygon fill="black" stroke="black" points="1381.79,-38.98 1390.34,-32.72 1379.75,-32.29 1381.79,-38.98"/>
</g>
<!-- openmc -->
<g id="node8" class="node">
<title>openmc</title>
<g id="a_node8"><a xlink:href="https://github.com/conda-forge/openmc-feedstock" xlink:title="openmc">
<ellipse fill="#fde725" stroke="black" cx="1311.5" cy="-306" rx="40.5" ry="18"/>
<text text-anchor="middle" x="1311.5" y="-302.3" font-family="Times,serif" font-size="14.00">openmc</text>
</a>
</g>
</g>
<!-- h5py&#45;&gt;openmc -->
<g id="edge8" class="edge">
<title>h5py&#45;&gt;openmc</title>
<path fill="none" stroke="black" d="M1005.85,-447.61C1074.77,-443.86 1240.31,-431.31 1281.5,-396 1299.34,-380.71 1306.6,-354.43 1309.54,-334.38"/>
<polygon fill="black" stroke="black" points="1313.04,-334.62 1310.74,-324.28 1306.09,-333.79 1313.04,-334.62"/>
</g>
<!-- rsgislib -->
<g id="node9" class="node">
<title>rsgislib</title>
<g id="a_node9"><a xlink:href="https://github.com/conda-forge/rsgislib-feedstock" xlink:title="rsgislib">
<ellipse fill="#fde725" stroke="black" cx="1358.5" cy="-234" rx="50.09" ry="18"/>
<text text-anchor="middle" x="1358.5" y="-230.3" font-family="Times,serif" font-size="14.00">rsgislib</text>
</a>
</g>
</g>
<!-- h5py&#45;&gt;rsgislib -->
<g id="edge9" class="edge">
<title>h5py&#45;&gt;rsgislib</title>
<path fill="none" stroke="black" d="M1005.79,-447.09C1077.79,-442.09 1256.91,-426.83 1307.5,-396 1341.43,-375.32 1348.1,-361.75 1360.5,-324 1367.04,-304.09 1366.09,-280.29 1363.75,-262.32"/>
<polygon fill="black" stroke="black" points="1367.18,-261.59 1362.21,-252.23 1360.26,-262.64 1367.18,-261.59"/>
</g>
<!-- h5utils -->
<g id="node10" class="node">
<title>h5utils</title>
<g id="a_node10"><a xlink:href="https://github.com/conda-forge/h5utils-feedstock" xlink:title="h5utils">
<ellipse fill="#fde725" stroke="black" cx="273.5" cy="-162" rx="45" ry="18"/>
<text text-anchor="middle" x="273.5" y="-158.3" font-family="Times,serif" font-size="14.00">h5utils</text>
</a>
</g>
</g>
<!-- h5py&#45;&gt;h5utils -->
<g id="edge10" class="edge">
<title>h5py&#45;&gt;h5utils</title>
<path fill="none" stroke="black" d="M944.97,-448.53C823.61,-446.41 379.68,-435.94 332.5,-396 271.65,-344.49 268.77,-240.09 271.22,-190.44"/>
<polygon fill="black" stroke="black" points="274.73,-190.35 271.84,-180.16 267.74,-189.92 274.73,-190.35"/>
</g>
<!-- pymeep -->
<g id="node11" class="node">
<title>pymeep</title>
<g id="a_node11"><a xlink:href="https://github.com/conda-forge/pymeep-feedstock" xlink:title="pymeep">
<ellipse fill="#fde725" stroke="black" cx="307.5" cy="-90" rx="40.5" ry="18"/>
<text text-anchor="middle" x="307.5" y="-86.3" font-family="Times,serif" font-size="14.00">pymeep</text>
</a>
</g>
</g>
<!-- h5py&#45;&gt;pymeep -->
<g id="edge11" class="edge">
<title>h5py&#45;&gt;pymeep</title>
<path fill="none" stroke="black" d="M944.74,-448.72C818.45,-446.76 346.5,-431.12 346.5,-307 346.5,-307 346.5,-307 346.5,-233 346.5,-191.56 330.86,-145.67 319.39,-117.58"/>
<polygon fill="black" stroke="black" points="322.5,-115.93 315.39,-108.07 316.05,-118.65 322.5,-115.93"/>
</g>
<!-- blosc&#45;hdf5&#45;plugin -->
<g id="node12" class="node">
<title>blosc&#45;hdf5&#45;plugin</title>
<g id="a_node12"><a xlink:href="https://github.com/conda-forge/blosc-hdf5-plugin-feedstock" xlink:title="blosc hdf5 plugin">
<ellipse fill="#fde725" stroke="black" cx="498.5" cy="-90" rx="93.68" ry="18"/>
<text text-anchor="middle" x="498.5" y="-86.3" font-family="Times,serif" font-size="14.00">blosc hdf5 plugin</text>
</a>
</g>
</g>
<!-- h5py&#45;&gt;blosc&#45;hdf5&#45;plugin -->
<g id="edge12" class="edge">
<title>h5py&#45;&gt;blosc&#45;hdf5&#45;plugin</title>
<path fill="none" stroke="black" d="M945.31,-446.61C873.5,-440.53 694.59,-423.06 641.5,-396 591.66,-370.6 552.5,-362.94 552.5,-307 552.5,-307 552.5,-307 552.5,-233 552.5,-190.11 530.71,-144.41 514.81,-116.78"/>
<polygon fill="black" stroke="black" points="517.8,-114.95 509.69,-108.13 511.78,-118.52 517.8,-114.95"/>
</g>
<!-- isce2 -->
<g id="node13" class="node">
<title>isce2</title>
<g id="a_node13"><a xlink:href="https://github.com/conda-forge/isce2-feedstock" xlink:title="isce2">
<ellipse fill="#fde725" stroke="black" cx="645.5" cy="-90" rx="35.19" ry="18"/>
<text text-anchor="middle" x="645.5" y="-86.3" font-family="Times,serif" font-size="14.00">isce2</text>
</a>
</g>
</g>
<!-- h5py&#45;&gt;isce2 -->
<g id="edge13" class="edge">
<title>h5py&#45;&gt;isce2</title>
<path fill="none" stroke="black" d="M944.89,-448.02C874.55,-445.13 704.37,-434.25 664.5,-396 635.31,-368 645.5,-347.45 645.5,-307 645.5,-307 645.5,-307 645.5,-233 645.5,-193 645.5,-146.65 645.5,-118.08"/>
<polygon fill="black" stroke="black" points="649,-118.05 645.5,-108.05 642,-118.05 649,-118.05"/>
</g>
<!-- bitshuffle -->
<g id="node14" class="node">
<title>bitshuffle</title>
<g id="a_node14"><a xlink:href="https://github.com/conda-forge/bitshuffle-feedstock" xlink:title="bitshuffle">
<ellipse fill="#fde725" stroke="black" cx="733.5" cy="-378" rx="60" ry="18"/>
<text text-anchor="middle" x="733.5" y="-374.3" font-family="Times,serif" font-size="14.00">bitshuffle</text>
</a>
</g>
</g>
<!-- h5py&#45;&gt;bitshuffle -->
<g id="edge14" class="edge">
<title>h5py&#45;&gt;bitshuffle</title>
<path fill="none" stroke="black" d="M948.68,-441.24C909.22,-429.83 834.8,-408.3 784.68,-393.8"/>
<polygon fill="black" stroke="black" points="785.57,-390.42 774.99,-391 783.63,-397.14 785.57,-390.42"/>
</g>
<!-- triqs -->
<g id="node15" class="node">
<title>triqs</title>
<g id="a_node15"><a xlink:href="https://github.com/conda-forge/triqs-feedstock" xlink:title="triqs">
<ellipse fill="#fde725" stroke="black" cx="821.5" cy="-162" rx="35.19" ry="18"/>
<text text-anchor="middle" x="821.5" y="-158.3" font-family="Times,serif" font-size="14.00">triqs</text>
</a>
</g>
</g>
<!-- h5py&#45;&gt;triqs -->
<g id="edge15" class="edge">
<title>h5py&#45;&gt;triqs</title>
<path fill="none" stroke="black" d="M954.79,-436.69C923.97,-417.13 866.86,-375.81 840.5,-324 818.71,-281.18 817.53,-223.88 819.17,-190.45"/>
<polygon fill="black" stroke="black" points="822.68,-190.28 819.8,-180.08 815.7,-189.85 822.68,-190.28"/>
</g>
<!-- hdf5plugin -->
<g id="node16" class="node">
<title>hdf5plugin</title>
<g id="a_node16"><a xlink:href="https://github.com/conda-forge/hdf5plugin-feedstock" xlink:title="hdf5plugin">
<ellipse fill="#fde725" stroke="black" cx="909.5" cy="-306" rx="60" ry="18"/>
<text text-anchor="middle" x="909.5" y="-302.3" font-family="Times,serif" font-size="14.00">hdf5plugin</text>
</a>
</g>
</g>
<!-- h5py&#45;&gt;hdf5plugin -->
<g id="edge16" class="edge">
<title>h5py&#45;&gt;hdf5plugin</title>
<path fill="none" stroke="black" d="M967.8,-432.43C956.44,-407.98 935.07,-362 921.6,-333.02"/>
<polygon fill="black" stroke="black" points="924.74,-331.49 917.36,-323.9 918.4,-334.45 924.74,-331.49"/>
</g>
<!-- prismatic_split -->
<g id="node17" class="node">
<title>prismatic_split</title>
<g id="a_node17"><a xlink:href="https://github.com/conda-forge/prismatic_split-feedstock" xlink:title="prismatic_split">
<ellipse fill="#fde725" stroke="black" cx="993.5" cy="-234" rx="84" ry="18"/>
<text text-anchor="middle" x="993.5" y="-230.3" font-family="Times,serif" font-size="14.00">prismatic_split</text>
</a>
</g>
</g>
<!-- h5py&#45;&gt;prismatic_split -->
<g id="edge17" class="edge">
<title>h5py&#45;&gt;prismatic_split</title>
<path fill="none" stroke="black" d="M976.94,-431.85C980.06,-394.83 987.43,-307.18 991.2,-262.39"/>
<polygon fill="black" stroke="black" points="994.7,-262.49 992.05,-252.23 987.72,-261.9 994.7,-262.49"/>
</g>
<!-- digital_rf -->
<g id="node18" class="node">
<title>digital_rf</title>
<g id="a_node18"><a xlink:href="https://github.com/conda-forge/digital_rf-feedstock" xlink:title="digital_rf">
<ellipse fill="#fde725" stroke="black" cx="1057.5" cy="-162" rx="60" ry="18"/>
<text text-anchor="middle" x="1057.5" y="-158.3" font-family="Times,serif" font-size="14.00">digital_rf</text>
</a>
</g>
</g>
<!-- h5py&#45;&gt;digital_rf -->
<g id="edge18" class="edge">
<title>h5py&#45;&gt;digital_rf</title>
<path fill="none" stroke="black" d="M988.09,-433.39C1012.84,-401.59 1067.08,-326.05 1086.5,-252 1090.56,-236.52 1090.46,-231.5 1086.5,-216 1084.06,-206.45 1079.5,-196.76 1074.71,-188.33"/>
<polygon fill="black" stroke="black" points="1077.68,-186.49 1069.51,-179.74 1071.69,-190.11 1077.68,-186.49"/>
</g>
<!-- pp&#45;sketchlib -->
<g id="node19" class="node">
<title>pp&#45;sketchlib</title>
<g id="a_node19"><a xlink:href="https://github.com/conda-forge/pp-sketchlib-feedstock" xlink:title="pp sketchlib">
<ellipse fill="#fde725" stroke="black" cx="1106.5" cy="-90" rx="69.59" ry="18"/>
<text text-anchor="middle" x="1106.5" y="-86.3" font-family="Times,serif" font-size="14.00">pp sketchlib</text>
</a>
</g>
</g>
<!-- h5py&#45;&gt;pp&#45;sketchlib -->
<g id="edge19" class="edge">
<title>h5py&#45;&gt;pp&#45;sketchlib</title>
<path fill="none" stroke="black" d="M995.45,-436.16C1009.55,-426.37 1028.23,-411.91 1041.5,-396 1064.81,-368.06 1066.23,-357.48 1080.5,-324 1112.87,-248.04 1141.32,-225.23 1126.5,-144 1124.89,-135.2 1121.9,-125.95 1118.71,-117.7"/>
<polygon fill="black" stroke="black" points="1121.85,-116.12 1114.81,-108.21 1115.38,-118.79 1121.85,-116.12"/>
</g>
<!-- openmc&#45;&gt;conda&#45;forge&#45;pinning -->
<g id="edge20" class="edge">
<title>openmc&#45;&gt;conda&#45;forge&#45;pinning</title>
<path fill="none" stroke="black" d="M1306.63,-287.98C1303.94,-277.67 1300.86,-264.19 1299.5,-252 1290.36,-170.26 1289.36,-134.78 1342.5,-72 1355.08,-57.14 1372.82,-46.07 1390.3,-38"/>
<polygon fill="black" stroke="black" points="1392.16,-41.01 1399.94,-33.83 1389.38,-34.59 1392.16,-41.01"/>
</g>
<!-- rsgislib&#45;&gt;conda&#45;forge&#45;pinning -->
<g id="edge21" class="edge">
<title>rsgislib&#45;&gt;conda&#45;forge&#45;pinning</title>
<path fill="none" stroke="black" d="M1353.23,-216.01C1350.31,-205.7 1346.98,-192.23 1345.5,-180 1339.64,-131.54 1336.27,-111.09 1365.5,-72 1375.32,-58.86 1389.45,-48.21 1403.37,-39.99"/>
<polygon fill="black" stroke="black" points="1405.41,-42.87 1412.45,-34.95 1402.01,-36.75 1405.41,-42.87"/>
</g>
<!-- h5utils&#45;&gt;conda&#45;forge&#45;pinning -->
<g id="edge22" class="edge">
<title>h5utils&#45;&gt;conda&#45;forge&#45;pinning</title>
<path fill="none" stroke="black" d="M263.05,-144.15C252.16,-124.2 239.05,-91.29 257.5,-72 294.46,-33.37 1046.62,-22.58 1337.26,-19.85"/>
<polygon fill="black" stroke="black" points="1337.43,-23.35 1347.4,-19.75 1337.37,-16.35 1337.43,-23.35"/>
</g>
<!-- h5utils&#45;&gt;pymeep -->
<g id="edge23" class="edge">
<title>h5utils&#45;&gt;pymeep</title>
<path fill="none" stroke="black" d="M281.73,-144.05C285.7,-135.89 290.54,-125.91 294.96,-116.82"/>
<polygon fill="black" stroke="black" points="298.12,-118.31 299.35,-107.79 291.83,-115.25 298.12,-118.31"/>
</g>
<!-- pymeep&#45;&gt;conda&#45;forge&#45;pinning -->
<g id="edge24" class="edge">
<title>pymeep&#45;&gt;conda&#45;forge&#45;pinning</title>
<path fill="none" stroke="black" d="M338,-78.08C345.89,-75.68 354.43,-73.42 362.5,-72 547.15,-39.5 1098.44,-25.55 1337.66,-20.91"/>
<polygon fill="black" stroke="black" points="1337.84,-24.41 1347.77,-20.72 1337.71,-17.41 1337.84,-24.41"/>
</g>
<!-- blosc&#45;hdf5&#45;plugin&#45;&gt;conda&#45;forge&#45;pinning -->
<g id="edge25" class="edge">
<title>blosc&#45;hdf5&#45;plugin&#45;&gt;conda&#45;forge&#45;pinning</title>
<path fill="none" stroke="black" d="M564.3,-77.12C576.63,-75.19 589.43,-73.37 601.5,-72 865.25,-42.08 1177.15,-28.05 1339.57,-22.34"/>
<polygon fill="black" stroke="black" points="1339.71,-25.84 1349.58,-21.99 1339.46,-18.84 1339.71,-25.84"/>
</g>
<!-- isce2&#45;&gt;conda&#45;forge&#45;pinning -->
<g id="edge26" class="edge">
<title>isce2&#45;&gt;conda&#45;forge&#45;pinning</title>
<path fill="none" stroke="black" d="M672.36,-78.26C679.45,-75.81 687.18,-73.5 694.5,-72 814.7,-47.39 1161.02,-30.51 1340.18,-23.16"/>
<polygon fill="black" stroke="black" points="1340.58,-26.64 1350.43,-22.74 1340.29,-19.65 1340.58,-26.64"/>
</g>
<!-- bitshuffle&#45;&gt;conda&#45;forge&#45;pinning -->
<g id="edge27" class="edge">
<title>bitshuffle&#45;&gt;conda&#45;forge&#45;pinning</title>
<path fill="none" stroke="black" d="M728.44,-359.68C721.14,-333.11 708.5,-280.56 708.5,-235 708.5,-235 708.5,-235 708.5,-161 708.5,-116.27 718.1,-96.53 755.5,-72 802.95,-40.88 1154,-26.91 1338.27,-21.66"/>
<polygon fill="black" stroke="black" points="1338.64,-25.16 1348.54,-21.38 1338.44,-18.16 1338.64,-25.16"/>
</g>
<!-- triqs&#45;&gt;conda&#45;forge&#45;pinning -->
<g id="edge28" class="edge">
<title>triqs&#45;&gt;conda&#45;forge&#45;pinning</title>
<path fill="none" stroke="black" d="M801.71,-146.95C777.94,-128.43 743.8,-95.45 765.5,-72 803.44,-31.01 1152.56,-21.63 1337.19,-19.55"/>
<polygon fill="black" stroke="black" points="1337.25,-23.05 1347.21,-19.44 1337.18,-16.05 1337.25,-23.05"/>
</g>
<!-- triqs_cthyb -->
<g id="node20" class="node">
<title>triqs_cthyb</title>
<g id="a_node20"><a xlink:href="https://github.com/conda-forge/triqs_cthyb-feedstock" xlink:title="triqs_cthyb">
<ellipse fill="#fde725" stroke="black" cx="839.5" cy="-90" rx="64.5" ry="18"/>
<text text-anchor="middle" x="839.5" y="-86.3" font-family="Times,serif" font-size="14.00">triqs_cthyb</text>
</a>
</g>
</g>
<!-- triqs&#45;&gt;triqs_cthyb -->
<g id="edge29" class="edge">
<title>triqs&#45;&gt;triqs_cthyb</title>
<path fill="none" stroke="black" d="M825.86,-144.05C827.86,-136.26 830.29,-126.82 832.54,-118.08"/>
<polygon fill="black" stroke="black" points="835.96,-118.83 835.06,-108.28 829.18,-117.09 835.96,-118.83"/>
</g>
<!-- hdf5plugin&#45;&gt;conda&#45;forge&#45;pinning -->
<g id="edge30" class="edge">
<title>hdf5plugin&#45;&gt;conda&#45;forge&#45;pinning</title>
<path fill="none" stroke="black" d="M904.09,-287.94C899.17,-269.79 893.64,-240.37 900.5,-216 920.81,-143.8 925.28,-112.36 988.5,-72 1044.58,-36.2 1219.95,-24.53 1337.77,-20.75"/>
<polygon fill="black" stroke="black" points="1338.03,-24.25 1347.92,-20.44 1337.82,-17.25 1338.03,-24.25"/>
</g>
<!-- prismatic_split&#45;&gt;conda&#45;forge&#45;pinning -->
<g id="edge31" class="edge">
<title>prismatic_split&#45;&gt;conda&#45;forge&#45;pinning</title>
<path fill="none" stroke="black" d="M989.44,-215.95C982.49,-181.91 972.92,-105.87 1016.5,-72 1064.96,-34.34 1225.35,-23.11 1336.95,-19.95"/>
<polygon fill="black" stroke="black" points="1337.35,-23.44 1347.25,-19.67 1337.16,-16.44 1337.35,-23.44"/>
</g>
<!-- digital_rf&#45;&gt;conda&#45;forge&#45;pinning -->
<g id="edge32" class="edge">
<title>digital_rf&#45;&gt;conda&#45;forge&#45;pinning</title>
<path fill="none" stroke="black" d="M1043.14,-144.31C1028.18,-124.83 1009.27,-92.66 1027.5,-72 1048.14,-48.61 1225.04,-33.04 1343.44,-25.14"/>
<polygon fill="black" stroke="black" points="1343.89,-28.62 1353.64,-24.47 1343.43,-21.63 1343.89,-28.62"/>
</g>
<!-- pp&#45;sketchlib&#45;&gt;conda&#45;forge&#45;pinning -->
<g id="edge33" class="edge">
<title>pp&#45;sketchlib&#45;&gt;conda&#45;forge&#45;pinning</title>
<path fill="none" stroke="black" d="M1159.5,-78.22C1217.49,-66.42 1310.88,-47.41 1376.18,-34.12"/>
<polygon fill="black" stroke="black" points="1376.9,-37.55 1386,-32.12 1375.51,-30.69 1376.9,-37.55"/>
</g>
<!-- triqs_cthyb&#45;&gt;conda&#45;forge&#45;pinning -->
<g id="edge61" class="edge">
<title>triqs_cthyb&#45;&gt;conda&#45;forge&#45;pinning</title>
<path fill="none" stroke="black" d="M887.38,-77.79C897.61,-75.65 908.38,-73.59 918.5,-72 1065.74,-48.9 1237.57,-33.93 1345.22,-25.97"/>
<polygon fill="black" stroke="black" points="1345.71,-29.45 1355.43,-25.23 1345.2,-22.47 1345.71,-29.45"/>
</g>
<!-- hdfeos5 -->
<g id="node21" class="node">
<title>hdfeos5</title>
<g id="a_node21"><a xlink:href="https://github.com/conda-forge/hdfeos5-feedstock/pull/27" xlink:title="hdfeos5">
<ellipse fill="#31688e" stroke="black" cx="1471.5" cy="-234" rx="45" ry="18"/>
<text text-anchor="middle" x="1471.5" y="-230.3" font-family="Times,serif" font-size="14.00" fill="white">hdfeos5</text>
</a>
</g>
</g>
<!-- hdfeos5&#45;&gt;conda&#45;forge&#45;pinning -->
<g id="edge34" class="edge">
<title>hdfeos5&#45;&gt;conda&#45;forge&#45;pinning</title>
<path fill="none" stroke="black" d="M1471.72,-215.98C1471.86,-186.49 1471.11,-124.06 1463.5,-72 1462.25,-63.43 1460.23,-54.22 1458.16,-45.93"/>
<polygon fill="black" stroke="black" points="1461.48,-44.8 1455.55,-36.02 1454.71,-46.58 1461.48,-44.8"/>
</g>
<!-- ncl -->
<g id="node22" class="node">
<title>ncl</title>
<g id="a_node22"><a xlink:href="https://github.com/conda-forge/ncl-feedstock" xlink:title="ncl">
<ellipse fill="#fde725" stroke="black" cx="1381.5" cy="-162" rx="27" ry="18"/>
<text text-anchor="middle" x="1381.5" y="-158.3" font-family="Times,serif" font-size="14.00">ncl</text>
</a>
</g>
</g>
<!-- hdfeos5&#45;&gt;ncl -->
<g id="edge35" class="edge">
<title>hdfeos5&#45;&gt;ncl</title>
<path fill="none" stroke="black" d="M1451.53,-217.46C1438.19,-207.09 1420.56,-193.38 1406.33,-182.31"/>
<polygon fill="black" stroke="black" points="1408.44,-179.52 1398.4,-176.14 1404.14,-185.04 1408.44,-179.52"/>
</g>
<!-- pynio -->
<g id="node23" class="node">
<title>pynio</title>
<g id="a_node23"><a xlink:href="https://github.com/conda-forge/pynio-feedstock" xlink:title="pynio">
<ellipse fill="#fde725" stroke="black" cx="1419.5" cy="-90" rx="35.19" ry="18"/>
<text text-anchor="middle" x="1419.5" y="-86.3" font-family="Times,serif" font-size="14.00">pynio</text>
</a>
</g>
</g>
<!-- hdfeos5&#45;&gt;pynio -->
<g id="edge36" class="edge">
<title>hdfeos5&#45;&gt;pynio</title>
<path fill="none" stroke="black" d="M1465.33,-216.15C1456.38,-191.71 1439.7,-146.17 1429.13,-117.29"/>
<polygon fill="black" stroke="black" points="1432.39,-116.01 1425.66,-107.82 1425.81,-118.42 1432.39,-116.01"/>
</g>
<!-- ncl&#45;&gt;conda&#45;forge&#45;pinning -->
<g id="edge37" class="edge">
<title>ncl&#45;&gt;conda&#45;forge&#45;pinning</title>
<path fill="none" stroke="black" d="M1375.41,-144.2C1369.71,-125.47 1363.68,-94.83 1375.5,-72 1382.23,-59.01 1393.76,-48.53 1405.8,-40.42"/>
<polygon fill="black" stroke="black" points="1407.96,-43.2 1414.59,-34.93 1404.25,-37.26 1407.96,-43.2"/>
</g>
<!-- pynio&#45;&gt;conda&#45;forge&#45;pinning -->
<g id="edge38" class="edge">
<title>pynio&#45;&gt;conda&#45;forge&#45;pinning</title>
<path fill="none" stroke="black" d="M1427,-72.05C1430.53,-64.09 1434.82,-54.41 1438.76,-45.51"/>
<polygon fill="black" stroke="black" points="1442,-46.84 1442.85,-36.28 1435.6,-44 1442,-46.84"/>
</g>
<!-- hyperion&#45;fortran -->
<g id="node24" class="node">
<title>hyperion&#45;fortran</title>
<g id="a_node24"><a xlink:href="https://github.com/conda-forge/hyperion-fortran-feedstock/pull/18" xlink:title="hyperion fortran">
<ellipse fill="#31688e" stroke="black" cx="1544.5" cy="-378" rx="89.08" ry="18"/>
<text text-anchor="middle" x="1544.5" y="-374.3" font-family="Times,serif" font-size="14.00" fill="white">hyperion fortran</text>
</a>
</g>
</g>
<!-- hyperion&#45;fortran&#45;&gt;conda&#45;forge&#45;pinning -->
<g id="edge39" class="edge">
<title>hyperion&#45;fortran&#45;&gt;conda&#45;forge&#45;pinning</title>
<path fill="none" stroke="black" d="M1543.56,-359.9C1541.7,-330.3 1536.7,-267.71 1525.5,-216 1511.28,-150.34 1505.97,-133.75 1479.5,-72 1475.66,-63.03 1470.78,-53.59 1466.13,-45.19"/>
<polygon fill="black" stroke="black" points="1469.02,-43.21 1461.03,-36.25 1462.94,-46.67 1469.02,-43.21"/>
</g>
<!-- marray -->
<g id="node25" class="node">
<title>marray</title>
<g id="a_node25"><a xlink:href="https://github.com/conda-forge/marray-feedstock/pull/8" xlink:title="marray">
<ellipse fill="#31688e" stroke="black" cx="1589.5" cy="-90" rx="40.5" ry="18"/>
<text text-anchor="middle" x="1589.5" y="-86.3" font-family="Times,serif" font-size="14.00" fill="white">marray</text>
</a>
</g>
</g>
<!-- marray&#45;&gt;conda&#45;forge&#45;pinning -->
<g id="edge40" class="edge">
<title>marray&#45;&gt;conda&#45;forge&#45;pinning</title>
<path fill="none" stroke="black" d="M1563.68,-76C1543.44,-65.81 1514.89,-51.43 1491.53,-39.66"/>
<polygon fill="black" stroke="black" points="1493.04,-36.5 1482.53,-35.13 1489.89,-42.76 1493.04,-36.5"/>
</g>
<!-- octave -->
<g id="node26" class="node">
<title>octave</title>
<g id="a_node26"><a xlink:href="https://github.com/conda-forge/octave-feedstock/pull/39" xlink:title="octave">
<ellipse fill="#31688e" stroke="black" cx="1627.5" cy="-162" rx="40.5" ry="18"/>
<text text-anchor="middle" x="1627.5" y="-158.3" font-family="Times,serif" font-size="14.00" fill="white">octave</text>
</a>
</g>
</g>
<!-- octave&#45;&gt;conda&#45;forge&#45;pinning -->
<g id="edge41" class="edge">
<title>octave&#45;&gt;conda&#45;forge&#45;pinning</title>
<path fill="none" stroke="black" d="M1636.1,-144.07C1644.62,-124.67 1654.29,-92.85 1638.5,-72 1625.39,-54.69 1578.35,-41.43 1534.61,-32.51"/>
<polygon fill="black" stroke="black" points="1535.25,-29.07 1524.76,-30.56 1533.89,-35.93 1535.25,-29.07"/>
</g>
<!-- pyne -->
<g id="node27" class="node">
<title>pyne</title>
<g id="a_node27"><a xlink:href="https://github.com/conda-forge/pyne-feedstock/pull/40" xlink:title="pyne">
<ellipse fill="#31688e" stroke="black" cx="1675.5" cy="-234" rx="30.59" ry="18"/>
<text text-anchor="middle" x="1675.5" y="-230.3" font-family="Times,serif" font-size="14.00" fill="white">pyne</text>
</a>
</g>
</g>
<!-- pyne&#45;&gt;conda&#45;forge&#45;pinning -->
<g id="edge42" class="edge">
<title>pyne&#45;&gt;conda&#45;forge&#45;pinning</title>
<path fill="none" stroke="black" d="M1679.66,-216.01C1686.59,-183.08 1696.22,-110.44 1657.5,-72 1640.07,-54.7 1585.32,-41.12 1536.5,-32.04"/>
<polygon fill="black" stroke="black" points="1536.97,-28.57 1526.51,-30.23 1535.72,-35.46 1536.97,-28.57"/>
</g>
<!-- r&#45;hdf5r -->
<g id="node28" class="node">
<title>r&#45;hdf5r</title>
<g id="a_node28"><a xlink:href="https://github.com/conda-forge/r-hdf5r-feedstock/pull/12" xlink:title="r hdf5r">
<ellipse fill="#31688e" stroke="black" cx="1699.5" cy="-306" rx="45" ry="18"/>
<text text-anchor="middle" x="1699.5" y="-302.3" font-family="Times,serif" font-size="14.00" fill="white">r hdf5r</text>
</a>
</g>
</g>
<!-- r&#45;hdf5r&#45;&gt;conda&#45;forge&#45;pinning -->
<g id="edge43" class="edge">
<title>r&#45;hdf5r&#45;&gt;conda&#45;forge&#45;pinning</title>
<path fill="none" stroke="black" d="M1705.99,-288.1C1709.58,-277.84 1713.67,-264.36 1715.5,-252 1727.38,-171.54 1740.59,-128.92 1682.5,-72 1662.6,-52.5 1599.25,-38.83 1543.77,-30.27"/>
<polygon fill="black" stroke="black" points="1544.28,-26.8 1533.87,-28.78 1543.24,-33.73 1544.28,-26.8"/>
</g>
<!-- r&#45;ncdf4 -->
<g id="node29" class="node">
<title>r&#45;ncdf4</title>
<g id="a_node29"><a xlink:href="https://github.com/conda-forge/r-ncdf4-feedstock/pull/20" xlink:title="r ncdf4">
<ellipse fill="#31688e" stroke="black" cx="1772.5" cy="-378" rx="45" ry="18"/>
<text text-anchor="middle" x="1772.5" y="-374.3" font-family="Times,serif" font-size="14.00" fill="white">r ncdf4</text>
</a>
</g>
</g>
<!-- r&#45;ncdf4&#45;&gt;conda&#45;forge&#45;pinning -->
<g id="edge44" class="edge">
<title>r&#45;ncdf4&#45;&gt;conda&#45;forge&#45;pinning</title>
<path fill="none" stroke="black" d="M1772.5,-359.95C1772.5,-333.29 1772.5,-280.11 1772.5,-235 1772.5,-235 1772.5,-235 1772.5,-161 1772.5,-66.24 1654.31,-34.18 1561.14,-23.63"/>
<polygon fill="black" stroke="black" points="1561.37,-20.13 1551.06,-22.56 1560.63,-27.09 1561.37,-20.13"/>
</g>
<!-- shogun -->
<g id="node30" class="node">
<title>shogun</title>
<g id="a_node30"><a xlink:href="https://github.com/conda-forge/shogun-feedstock/pull/20" xlink:title="shogun">
<ellipse fill="#31688e" stroke="black" cx="1841.5" cy="-90" rx="40.5" ry="18"/>
<text text-anchor="middle" x="1841.5" y="-86.3" font-family="Times,serif" font-size="14.00" fill="white">shogun</text>
</a>
</g>
</g>
<!-- shogun&#45;&gt;conda&#45;forge&#45;pinning -->
<g id="edge45" class="edge">
<title>shogun&#45;&gt;conda&#45;forge&#45;pinning</title>
<path fill="none" stroke="black" d="M1810.3,-78.51C1802.58,-76.15 1794.29,-73.81 1786.5,-72 1705.38,-53.17 1611.68,-39 1543.87,-30.08"/>
<polygon fill="black" stroke="black" points="1544.01,-26.56 1533.64,-28.74 1543.11,-33.5 1544.01,-26.56"/>
</g>
<!-- vigra -->
<g id="node31" class="node">
<title>vigra</title>
<g id="a_node31"><a xlink:href="https://github.com/conda-forge/vigra-feedstock/pull/54" xlink:title="vigra">
<ellipse fill="#31688e" stroke="black" cx="1885.5" cy="-162" rx="35.19" ry="18"/>
<text text-anchor="middle" x="1885.5" y="-158.3" font-family="Times,serif" font-size="14.00" fill="white">vigra</text>
</a>
</g>
</g>
<!-- vigra&#45;&gt;conda&#45;forge&#45;pinning -->
<g id="edge46" class="edge">
<title>vigra&#45;&gt;conda&#45;forge&#45;pinning</title>
<path fill="none" stroke="black" d="M1892.72,-144.28C1900.02,-124.47 1907.96,-91.68 1890.5,-72 1868.79,-47.52 1681.69,-32.17 1558.56,-24.63"/>
<polygon fill="black" stroke="black" points="1558.52,-21.12 1548.33,-24.01 1558.1,-28.11 1558.52,-21.12"/>
</g>
<!-- yaafe -->
<g id="node32" class="node">
<title>yaafe</title>
<g id="a_node32"><a xlink:href="https://github.com/conda-forge/yaafe-feedstock/pull/9" xlink:title="yaafe">
<ellipse fill="#31688e" stroke="black" cx="1923.5" cy="-234" rx="35.19" ry="18"/>
<text text-anchor="middle" x="1923.5" y="-230.3" font-family="Times,serif" font-size="14.00" fill="white">yaafe</text>
</a>
</g>
</g>
<!-- yaafe&#45;&gt;conda&#45;forge&#45;pinning -->
<g id="edge47" class="edge">
<title>yaafe&#45;&gt;conda&#45;forge&#45;pinning</title>
<path fill="none" stroke="black" d="M1928.68,-216.03C1937.74,-182.48 1951.84,-107.8 1910.5,-72 1884.34,-49.34 1685.21,-33.18 1557.67,-25.03"/>
<polygon fill="black" stroke="black" points="1557.67,-21.53 1547.47,-24.39 1557.23,-28.51 1557.67,-21.53"/>
</g>
<!-- alps -->
<g id="node33" class="node">
<title>alps</title>
<g id="a_node33"><a xlink:href="https://github.com/conda-forge/alps-feedstock/pull/31" xlink:title="alps">
<ellipse fill="#31688e" stroke="black" cx="1965.5" cy="-306" rx="30.59" ry="18"/>
<text text-anchor="middle" x="1965.5" y="-302.3" font-family="Times,serif" font-size="14.00" fill="white">alps</text>
</a>
</g>
</g>
<!-- alps&#45;&gt;conda&#45;forge&#45;pinning -->
<g id="edge48" class="edge">
<title>alps&#45;&gt;conda&#45;forge&#45;pinning</title>
<path fill="none" stroke="black" d="M1969.82,-287.92C1979.73,-244.27 1998.72,-128.09 1936.5,-72 1909.05,-47.25 1693.89,-31.64 1559.22,-24.19"/>
<polygon fill="black" stroke="black" points="1559.03,-20.68 1548.86,-23.63 1558.65,-27.67 1559.03,-20.68"/>
</g>
<!-- spdlib -->
<g id="node34" class="node">
<title>spdlib</title>
<g id="a_node34"><a xlink:href="https://github.com/conda-forge/spdlib-feedstock/pull/15" xlink:title="spdlib">
<ellipse fill="#31688e" stroke="black" cx="2024.5" cy="-378" rx="40.5" ry="18"/>
<text text-anchor="middle" x="2024.5" y="-374.3" font-family="Times,serif" font-size="14.00" fill="white">spdlib</text>
</a>
</g>
</g>
<!-- spdlib&#45;&gt;conda&#45;forge&#45;pinning -->
<g id="edge49" class="edge">
<title>spdlib&#45;&gt;conda&#45;forge&#45;pinning</title>
<path fill="none" stroke="black" d="M2024.5,-359.95C2024.5,-333.29 2024.5,-280.11 2024.5,-235 2024.5,-235 2024.5,-235 2024.5,-161 2024.5,-113.3 2005.41,-96.53 1964.5,-72 1899.17,-32.82 1694.32,-22.3 1563.81,-19.66"/>
<polygon fill="black" stroke="black" points="1563.83,-16.16 1553.76,-19.46 1563.7,-23.15 1563.83,-16.16"/>
</g>
<!-- mpb -->
<g id="node35" class="node">
<title>mpb</title>
<g id="a_node35"><a xlink:href="https://github.com/conda-forge/mpb-feedstock/pull/22" xlink:title="mpb">
<ellipse fill="#31688e" stroke="black" cx="401.5" cy="-162" rx="27" ry="18"/>
<text text-anchor="middle" x="401.5" y="-158.3" font-family="Times,serif" font-size="14.00" fill="white">mpb</text>
</a>
</g>
</g>
<!-- mpb&#45;&gt;conda&#45;forge&#45;pinning -->
<g id="edge50" class="edge">
<title>mpb&#45;&gt;conda&#45;forge&#45;pinning</title>
<path fill="none" stroke="black" d="M393.92,-144.43C386.06,-124.45 377.25,-91.19 395.5,-72 427.57,-38.28 1072.25,-24.71 1337.75,-20.54"/>
<polygon fill="black" stroke="black" points="1337.85,-24.04 1347.8,-20.38 1337.74,-17.04 1337.85,-24.04"/>
</g>
<!-- mpb&#45;&gt;pymeep -->
<g id="edge51" class="edge">
<title>mpb&#45;&gt;pymeep</title>
<path fill="none" stroke="black" d="M383.82,-147.83C370.27,-137.74 351.3,-123.62 335.67,-111.98"/>
<polygon fill="black" stroke="black" points="337.49,-108.97 327.38,-105.8 333.31,-114.58 337.49,-108.97"/>
</g>
<!-- openpmd&#45;api -->
<g id="node36" class="node">
<title>openpmd&#45;api</title>
<g id="a_node36"><a xlink:href="https://github.com/conda-forge/openpmd-api-feedstock" xlink:title="openpmd api">
<ellipse fill="#fde725" stroke="black" cx="2155.5" cy="-90" rx="64.5" ry="18"/>
<text text-anchor="middle" x="2155.5" y="-86.3" font-family="Times,serif" font-size="14.00">openpmd api</text>
</a>
</g>
</g>
<!-- openpmd&#45;api&#45;&gt;conda&#45;forge&#45;pinning -->
<g id="edge52" class="edge">
<title>openpmd&#45;api&#45;&gt;conda&#45;forge&#45;pinning</title>
<path fill="none" stroke="black" d="M2108.06,-77.76C2097.7,-75.6 2086.77,-73.53 2076.5,-72 1896.42,-45.11 1685.02,-30.76 1559.71,-24.02"/>
<polygon fill="black" stroke="black" points="1559.52,-20.5 1549.35,-23.47 1559.15,-27.49 1559.52,-20.5"/>
</g>
<!-- cmor -->
<g id="node37" class="node">
<title>cmor</title>
<g id="a_node37"><a xlink:href="https://github.com/conda-forge/cmor-feedstock/pull/22" xlink:title="cmor">
<ellipse fill="#31688e" stroke="black" cx="2268.5" cy="-90" rx="30.59" ry="18"/>
<text text-anchor="middle" x="2268.5" y="-86.3" font-family="Times,serif" font-size="14.00" fill="white">cmor</text>
</a>
</g>
</g>
<!-- cmor&#45;&gt;conda&#45;forge&#45;pinning -->
<g id="edge53" class="edge">
<title>cmor&#45;&gt;conda&#45;forge&#45;pinning</title>
<path fill="none" stroke="black" d="M2245.68,-77.76C2240.17,-75.48 2234.22,-73.37 2228.5,-72 2105.26,-42.5 1746.2,-27.8 1562.14,-22.03"/>
<polygon fill="black" stroke="black" points="1561.99,-18.53 1551.89,-21.72 1561.78,-25.52 1561.99,-18.53"/>
</g>
<!-- freecad -->
<g id="node38" class="node">
<title>freecad</title>
<g id="a_node38"><a xlink:href="https://github.com/conda-forge/freecad-feedstock/pull/38" xlink:title="freecad">
<ellipse fill="#31688e" stroke="black" cx="2292.5" cy="-162" rx="45" ry="18"/>
<text text-anchor="middle" x="2292.5" y="-158.3" font-family="Times,serif" font-size="14.00" fill="white">freecad</text>
</a>
</g>
</g>
<!-- freecad&#45;&gt;conda&#45;forge&#45;pinning -->
<g id="edge54" class="edge">
<title>freecad&#45;&gt;conda&#45;forge&#45;pinning</title>
<path fill="none" stroke="black" d="M2302.89,-144.2C2313.73,-124.31 2326.78,-91.44 2308.5,-72 2283.33,-45.23 1788.95,-28.28 1562.3,-21.88"/>
<polygon fill="black" stroke="black" points="1562.13,-18.38 1552.04,-21.6 1561.94,-25.38 1562.13,-18.38"/>
</g>
<!-- openmeeg -->
<g id="node39" class="node">
<title>openmeeg</title>
<g id="a_node39"><a xlink:href="https://github.com/conda-forge/openmeeg-feedstock" xlink:title="openmeeg">
<ellipse fill="#35b779" stroke="black" cx="2325.5" cy="-234" rx="50.09" ry="18"/>
<text text-anchor="middle" x="2325.5" y="-230.3" font-family="Times,serif" font-size="14.00">openmeeg</text>
</a>
</g>
</g>
<!-- openmeeg&#45;&gt;conda&#45;forge&#45;pinning -->
<g id="edge55" class="edge">
<title>openmeeg&#45;&gt;conda&#45;forge&#45;pinning</title>
<path fill="none" stroke="black" d="M2334.22,-215.83C2338.87,-205.69 2344.12,-192.44 2346.5,-180 2355.64,-132.13 2365.19,-102.89 2327.5,-72 2269.81,-24.71 1788.2,-18.75 1564.22,-18.56"/>
<polygon fill="black" stroke="black" points="1564.08,-15.06 1554.08,-18.56 1564.08,-22.06 1564.08,-15.06"/>
</g>
<!-- scilab -->
<g id="node40" class="node">
<title>scilab</title>
<g id="a_node40"><a xlink:href="https://github.com/conda-forge/scilab-feedstock/pull/12" xlink:title="scilab">
<ellipse fill="#31688e" stroke="black" cx="2372.5" cy="-306" rx="40.5" ry="18"/>
<text text-anchor="middle" x="2372.5" y="-302.3" font-family="Times,serif" font-size="14.00" fill="white">scilab</text>
</a>
</g>
</g>
<!-- scilab&#45;&gt;conda&#45;forge&#45;pinning -->
<g id="edge56" class="edge">
<title>scilab&#45;&gt;conda&#45;forge&#45;pinning</title>
<path fill="none" stroke="black" d="M2377.95,-288.06C2390.87,-244.2 2417.77,-126.6 2354.5,-72 2295.97,-21.49 1793.68,-17.31 1564.12,-18.08"/>
<polygon fill="black" stroke="black" points="1564.05,-14.58 1554.07,-18.12 1564.08,-21.58 1564.05,-14.58"/>
</g>
<!-- adios2 -->
<g id="node41" class="node">
<title>adios2</title>
<g id="a_node41"><a xlink:href="https://github.com/conda-forge/adios2-feedstock/pull/11" xlink:title="adios2">
<ellipse fill="#31688e" stroke="black" cx="2124.5" cy="-162" rx="40.5" ry="18"/>
<text text-anchor="middle" x="2124.5" y="-158.3" font-family="Times,serif" font-size="14.00" fill="white">adios2</text>
</a>
</g>
</g>
<!-- adios2&#45;&gt;conda&#45;forge&#45;pinning -->
<g id="edge57" class="edge">
<title>adios2&#45;&gt;conda&#45;forge&#45;pinning</title>
<path fill="none" stroke="black" d="M2111.2,-144.72C2091.77,-121.41 2056.04,-80.39 2038.5,-72 1957.35,-33.18 1711.02,-22.68 1564.2,-19.91"/>
<polygon fill="black" stroke="black" points="1563.86,-16.4 1553.8,-19.72 1563.74,-23.4 1563.86,-16.4"/>
</g>
<!-- adios2&#45;&gt;openpmd&#45;api -->
<g id="edge58" class="edge">
<title>adios2&#45;&gt;openpmd&#45;api</title>
<path fill="none" stroke="black" d="M2132,-144.05C2135.53,-136.09 2139.82,-126.41 2143.76,-117.51"/>
<polygon fill="black" stroke="black" points="2147,-118.84 2147.85,-108.28 2140.6,-116 2147,-118.84"/>
</g>
<!-- bonsu -->
<g id="node42" class="node">
<title>bonsu</title>
<g id="a_node42"><a xlink:href="https://github.com/conda-forge/bonsu-feedstock/pull/5" xlink:title="bonsu">
<ellipse fill="#31688e" stroke="black" cx="2441.5" cy="-378" rx="35.19" ry="18"/>
<text text-anchor="middle" x="2441.5" y="-374.3" font-family="Times,serif" font-size="14.00" fill="white">bonsu</text>
</a>
</g>
</g>
<!-- bonsu&#45;&gt;conda&#45;forge&#45;pinning -->
<g id="edge59" class="edge">
<title>bonsu&#45;&gt;conda&#45;forge&#45;pinning</title>
<path fill="none" stroke="black" d="M2441.5,-359.95C2441.5,-333.29 2441.5,-280.11 2441.5,-235 2441.5,-235 2441.5,-235 2441.5,-161 2441.5,-113.3 2422.96,-95.59 2381.5,-72 2312.09,-32.51 1796.58,-22.41 1563.89,-19.85"/>
<polygon fill="black" stroke="black" points="1563.74,-16.35 1553.71,-19.74 1563.67,-23.35 1563.74,-16.35"/>
</g>
<!-- libvips -->
<g id="node43" class="node">
<title>libvips</title>
<g id="a_node43"><a xlink:href="https://github.com/conda-forge/libvips-feedstock" xlink:title="libvips">
<ellipse fill="#35b779" stroke="black" cx="2514.5" cy="-90" rx="45" ry="18"/>
<text text-anchor="middle" x="2514.5" y="-86.3" font-family="Times,serif" font-size="14.00">libvips</text>
</a>
</g>
</g>
<!-- libvips&#45;&gt;conda&#45;forge&#45;pinning -->
<g id="edge60" class="edge">
<title>libvips&#45;&gt;conda&#45;forge&#45;pinning</title>
<path fill="none" stroke="black" d="M2480.8,-77.86C2472.6,-75.55 2463.8,-73.4 2455.5,-72 2286.65,-43.61 1787.3,-27.62 1562.46,-21.69"/>
<polygon fill="black" stroke="black" points="1562.37,-18.19 1552.29,-21.42 1562.19,-25.19 1562.37,-18.19"/>
</g>
<!-- dagmc -->
<g id="node44" class="node">
<title>dagmc</title>
<g id="a_node44"><a xlink:href="https://github.com/conda-forge/dagmc-feedstock/pull/1" xlink:title="dagmc">
<ellipse fill="#31688e" stroke="black" cx="2587.5" cy="-162" rx="35.19" ry="18"/>
<text text-anchor="middle" x="2587.5" y="-158.3" font-family="Times,serif" font-size="14.00" fill="white">dagmc</text>
</a>
</g>
</g>
<!-- dagmc&#45;&gt;conda&#45;forge&#45;pinning -->
<g id="edge62" class="edge">
<title>dagmc&#45;&gt;conda&#45;forge&#45;pinning</title>
<path fill="none" stroke="black" d="M2589.42,-143.86C2590.65,-123.32 2589.1,-89.49 2568.5,-72 2530.64,-39.86 1840.02,-25.25 1563.54,-20.67"/>
<polygon fill="black" stroke="black" points="1563.54,-17.17 1553.49,-20.51 1563.43,-24.17 1563.54,-17.17"/>
</g>
<!-- nccmp -->
<g id="node45" class="node">
<title>nccmp</title>
<g id="a_node45"><a xlink:href="https://github.com/conda-forge/nccmp-feedstock/pull/2" xlink:title="nccmp">
<ellipse fill="#31688e" stroke="black" cx="2650.5" cy="-234" rx="35.19" ry="18"/>
<text text-anchor="middle" x="2650.5" y="-230.3" font-family="Times,serif" font-size="14.00" fill="white">nccmp</text>
</a>
</g>
</g>
<!-- nccmp&#45;&gt;conda&#45;forge&#45;pinning -->
<g id="edge63" class="edge">
<title>nccmp&#45;&gt;conda&#45;forge&#45;pinning</title>
<path fill="none" stroke="black" d="M2650.57,-215.98C2649.66,-181.28 2641.95,-103.03 2592.5,-72 2549.4,-44.96 1842.4,-27.23 1562.91,-21.25"/>
<polygon fill="black" stroke="black" points="1562.82,-17.74 1552.75,-21.03 1562.67,-24.74 1562.82,-17.74"/>
</g>
</g>
</svg>
