<?xml version="1.0" encoding="UTF-8" standalone="no"?>
<!DOCTYPE svg PUBLIC "-//W3C//DTD SVG 1.1//EN"
 "http://www.w3.org/Graphics/SVG/1.1/DTD/svg11.dtd">
<!-- Generated by graphviz version 2.42.3 (20191010.1750)
 -->
<!-- Title: %3 Pages: 1 -->
<svg width="2340pt" height="476pt"
 viewBox="0.00 0.00 2339.60 476.00" xmlns="http://www.w3.org/2000/svg" xmlns:xlink="http://www.w3.org/1999/xlink">
<g id="graph0" class="graph" transform="scale(1 1) rotate(0) translate(4 472)">
<title>%3</title>
<polygon fill="white" stroke="transparent" points="-4,4 -4,-472 2335.6,-472 2335.6,4 -4,4"/>
<!-- caffe -->
<g id="node1" class="node">
<title>caffe</title>
<g id="a_node1"><a xlink:href="https://github.com/conda-forge/caffe-feedstock" xlink:title="caffe">
<ellipse fill="#fde725" stroke="black" cx="1195.5" cy="-378" rx="35.19" ry="18"/>
<text text-anchor="middle" x="1195.5" y="-374.3" font-family="Times,serif" font-size="14.00">caffe</text>
</a>
</g>
</g>
<!-- conda&#45;forge&#45;pinning -->
<g id="node2" class="node">
<title>conda&#45;forge&#45;pinning</title>
<ellipse fill="none" stroke="black" cx="1311.5" cy="-18" rx="103.5" ry="18"/>
<text text-anchor="middle" x="1311.5" y="-14.3" font-family="Times,serif" font-size="14.00">conda&#45;forge&#45;pinning</text>
</g>
<!-- caffe&#45;&gt;conda&#45;forge&#45;pinning -->
<g id="edge1" class="edge">
<title>caffe&#45;&gt;conda&#45;forge&#45;pinning</title>
<path fill="none" stroke="black" d="M1197.28,-359.97C1199.9,-333.34 1204.5,-280.21 1204.5,-235 1204.5,-235 1204.5,-235 1204.5,-161 1204.5,-120.03 1204.27,-105.03 1228.5,-72 1238.12,-58.88 1252.06,-48.19 1265.77,-39.94"/>
<polygon fill="black" stroke="black" points="1267.74,-42.85 1274.71,-34.87 1264.28,-36.76 1267.74,-42.85"/>
</g>
<!-- cyclus -->
<g id="node3" class="node">
<title>cyclus</title>
<g id="a_node3"><a xlink:href="https://github.com/conda-forge/cyclus-feedstock/pull/56" xlink:title="cyclus">
<ellipse fill="#31688e" stroke="black" cx="40.5" cy="-90" rx="40.5" ry="18"/>
<text text-anchor="middle" x="40.5" y="-86.3" font-family="Times,serif" font-size="14.00" fill="white">cyclus</text>
</a>
</g>
</g>
<!-- cyclus&#45;&gt;conda&#45;forge&#45;pinning -->
<g id="edge2" class="edge">
<title>cyclus&#45;&gt;conda&#45;forge&#45;pinning</title>
<path fill="none" stroke="black" d="M70.99,-78.06C78.88,-75.65 87.43,-73.4 95.5,-72 305.33,-35.62 938.54,-23.67 1198.37,-20.24"/>
<polygon fill="black" stroke="black" points="1198.63,-23.73 1208.58,-20.1 1198.54,-16.73 1198.63,-23.73"/>
</g>
<!-- fenics -->
<g id="node4" class="node">
<title>fenics</title>
<g id="a_node4"><a xlink:href="https://github.com/conda-forge/fenics-feedstock/pull/107" xlink:title="fenics">
<ellipse fill="#31688e" stroke="black" cx="93.5" cy="-162" rx="40.5" ry="18"/>
<text text-anchor="middle" x="93.5" y="-158.3" font-family="Times,serif" font-size="14.00" fill="white">fenics</text>
</a>
</g>
</g>
<!-- fenics&#45;&gt;conda&#45;forge&#45;pinning -->
<g id="edge3" class="edge">
<title>fenics&#45;&gt;conda&#45;forge&#45;pinning</title>
<path fill="none" stroke="black" d="M98.55,-144.02C105.82,-122.97 121.41,-87.92 148.5,-72 237.36,-19.77 922.98,-17.12 1197.95,-18.21"/>
<polygon fill="black" stroke="black" points="1197.94,-21.71 1207.96,-18.25 1197.97,-14.71 1197.94,-21.71"/>
</g>
<!-- graph -->
<g id="node5" class="node">
<title>graph</title>
<g id="a_node5"><a xlink:href="https://github.com/conda-forge/graph-feedstock/pull/5" xlink:title="graph">
<ellipse fill="#31688e" stroke="black" cx="162.5" cy="-234" rx="35.19" ry="18"/>
<text text-anchor="middle" x="162.5" y="-230.3" font-family="Times,serif" font-size="14.00" fill="white">graph</text>
</a>
</g>
</g>
<!-- graph&#45;&gt;conda&#45;forge&#45;pinning -->
<g id="edge4" class="edge">
<title>graph&#45;&gt;conda&#45;forge&#45;pinning</title>
<path fill="none" stroke="black" d="M163.52,-216C166.56,-182.06 178.66,-106.2 226.5,-72 265.58,-44.07 929.78,-27.02 1199.26,-21.23"/>
<polygon fill="black" stroke="black" points="1199.53,-24.73 1209.46,-21.01 1199.38,-17.73 1199.53,-24.73"/>
</g>
<!-- h5py -->
<g id="node6" class="node">
<title>h5py</title>
<g id="a_node6"><a xlink:href="https://github.com/conda-forge/h5py-feedstock/pull/72" xlink:title="h5py">
<ellipse fill="#31688e" stroke="black" cx="825.5" cy="-450" rx="30.59" ry="18"/>
<text text-anchor="middle" x="825.5" y="-446.3" font-family="Times,serif" font-size="14.00" fill="white">h5py</text>
</a>
</g>
</g>
<!-- h5py&#45;&gt;caffe -->
<g id="edge5" class="edge">
<title>h5py&#45;&gt;caffe</title>
<path fill="none" stroke="black" d="M855.5,-445.78C912.72,-439.25 1041.12,-422.77 1146.5,-396 1150.41,-395.01 1154.46,-393.84 1158.47,-392.59"/>
<polygon fill="black" stroke="black" points="1159.87,-395.81 1168.28,-389.37 1157.69,-389.16 1159.87,-395.81"/>
</g>
<!-- h5py&#45;&gt;conda&#45;forge&#45;pinning -->
<g id="edge6" class="edge">
<title>h5py&#45;&gt;conda&#45;forge&#45;pinning</title>
<path fill="none" stroke="black" d="M856.04,-447.36C947.4,-442.13 1213.89,-424.56 1239.5,-396 1287.28,-342.72 1242.5,-306.57 1242.5,-235 1242.5,-235 1242.5,-235 1242.5,-161 1242.5,-116.48 1270.28,-71.29 1290.58,-44.2"/>
<polygon fill="black" stroke="black" points="1293.52,-46.12 1296.87,-36.07 1287.98,-41.84 1293.52,-46.12"/>
</g>
<!-- openmc -->
<g id="node7" class="node">
<title>openmc</title>
<g id="a_node7"><a xlink:href="https://github.com/conda-forge/openmc-feedstock" xlink:title="openmc">
<ellipse fill="#fde725" stroke="black" cx="1311.5" cy="-306" rx="40.5" ry="18"/>
<text text-anchor="middle" x="1311.5" y="-302.3" font-family="Times,serif" font-size="14.00">openmc</text>
</a>
</g>
</g>
<!-- h5py&#45;&gt;openmc -->
<g id="edge7" class="edge">
<title>h5py&#45;&gt;openmc</title>
<path fill="none" stroke="black" d="M856.26,-449.21C946.17,-449.26 1206.35,-445.04 1272.5,-396 1292.23,-381.37 1302.14,-354.59 1307.01,-334.21"/>
<polygon fill="black" stroke="black" points="1310.47,-334.75 1309.12,-324.24 1303.62,-333.3 1310.47,-334.75"/>
</g>
<!-- rsgislib -->
<g id="node8" class="node">
<title>rsgislib</title>
<g id="a_node8"><a xlink:href="https://github.com/conda-forge/rsgislib-feedstock" xlink:title="rsgislib">
<ellipse fill="#fde725" stroke="black" cx="265.5" cy="-234" rx="50.09" ry="18"/>
<text text-anchor="middle" x="265.5" y="-230.3" font-family="Times,serif" font-size="14.00">rsgislib</text>
</a>
</g>
</g>
<!-- h5py&#45;&gt;rsgislib -->
<g id="edge8" class="edge">
<title>h5py&#45;&gt;rsgislib</title>
<path fill="none" stroke="black" d="M794.98,-447.56C692.73,-442.48 366.66,-424.22 329.5,-396 286.98,-363.72 272.66,-298.81 267.87,-262.04"/>
<polygon fill="black" stroke="black" points="271.34,-261.56 266.71,-252.03 264.38,-262.36 271.34,-261.56"/>
</g>
<!-- h5utils -->
<g id="node9" class="node">
<title>h5utils</title>
<g id="a_node9"><a xlink:href="https://github.com/conda-forge/h5utils-feedstock" xlink:title="h5utils">
<ellipse fill="#fde725" stroke="black" cx="307.5" cy="-162" rx="45" ry="18"/>
<text text-anchor="middle" x="307.5" y="-158.3" font-family="Times,serif" font-size="14.00">h5utils</text>
</a>
</g>
</g>
<!-- h5py&#45;&gt;h5utils -->
<g id="edge9" class="edge">
<title>h5py&#45;&gt;h5utils</title>
<path fill="none" stroke="black" d="M795.15,-447.48C698.06,-442.36 399.53,-424.42 367.5,-396 305.98,-341.41 346.63,-295.22 324.5,-216 322.1,-207.4 319.21,-198.1 316.51,-189.73"/>
<polygon fill="black" stroke="black" points="319.79,-188.5 313.34,-180.09 313.14,-190.68 319.79,-188.5"/>
</g>
<!-- pymeep -->
<g id="node10" class="node">
<title>pymeep</title>
<g id="a_node10"><a xlink:href="https://github.com/conda-forge/pymeep-feedstock" xlink:title="pymeep">
<ellipse fill="#fde725" stroke="black" cx="307.5" cy="-90" rx="40.5" ry="18"/>
<text text-anchor="middle" x="307.5" y="-86.3" font-family="Times,serif" font-size="14.00">pymeep</text>
</a>
</g>
</g>
<!-- h5py&#45;&gt;pymeep -->
<g id="edge10" class="edge">
<title>h5py&#45;&gt;pymeep</title>
<path fill="none" stroke="black" d="M795.68,-446.01C696.13,-435.22 381.5,-394.2 381.5,-307 381.5,-307 381.5,-307 381.5,-233 381.5,-192.46 381.22,-179.42 361.5,-144 354.9,-132.14 344.82,-121.21 335.16,-112.4"/>
<polygon fill="black" stroke="black" points="337.41,-109.73 327.56,-105.81 332.82,-115.01 337.41,-109.73"/>
</g>
<!-- blosc&#45;hdf5&#45;plugin -->
<g id="node11" class="node">
<title>blosc&#45;hdf5&#45;plugin</title>
<g id="a_node11"><a xlink:href="https://github.com/conda-forge/blosc-hdf5-plugin-feedstock" xlink:title="blosc hdf5 plugin">
<ellipse fill="#fde725" stroke="black" cx="498.5" cy="-90" rx="93.68" ry="18"/>
<text text-anchor="middle" x="498.5" y="-86.3" font-family="Times,serif" font-size="14.00">blosc hdf5 plugin</text>
</a>
</g>
</g>
<!-- h5py&#45;&gt;blosc&#45;hdf5&#45;plugin -->
<g id="edge11" class="edge">
<title>h5py&#45;&gt;blosc&#45;hdf5&#45;plugin</title>
<path fill="none" stroke="black" d="M794.95,-447.67C721.77,-442.67 542.5,-419 542.5,-307 542.5,-307 542.5,-307 542.5,-233 542.5,-190.98 524.7,-144.98 511.75,-117.05"/>
<polygon fill="black" stroke="black" points="514.87,-115.47 507.4,-107.96 508.56,-118.49 514.87,-115.47"/>
</g>
<!-- isce2 -->
<g id="node12" class="node">
<title>isce2</title>
<g id="a_node12"><a xlink:href="https://github.com/conda-forge/isce2-feedstock" xlink:title="isce2">
<ellipse fill="#fde725" stroke="black" cx="645.5" cy="-90" rx="35.19" ry="18"/>
<text text-anchor="middle" x="645.5" y="-86.3" font-family="Times,serif" font-size="14.00">isce2</text>
</a>
</g>
</g>
<!-- h5py&#45;&gt;isce2 -->
<g id="edge12" class="edge">
<title>h5py&#45;&gt;isce2</title>
<path fill="none" stroke="black" d="M794.81,-448.76C755.3,-446.7 687.22,-436.96 649.5,-396 622.1,-366.25 630.5,-347.45 630.5,-307 630.5,-307 630.5,-307 630.5,-233 630.5,-192.77 636.53,-146.49 640.94,-117.99"/>
<polygon fill="black" stroke="black" points="644.42,-118.41 642.54,-107.99 637.5,-117.31 644.42,-118.41"/>
</g>
<!-- bitshuffle -->
<g id="node13" class="node">
<title>bitshuffle</title>
<g id="a_node13"><a xlink:href="https://github.com/conda-forge/bitshuffle-feedstock" xlink:title="bitshuffle">
<ellipse fill="#fde725" stroke="black" cx="718.5" cy="-378" rx="60" ry="18"/>
<text text-anchor="middle" x="718.5" y="-374.3" font-family="Times,serif" font-size="14.00">bitshuffle</text>
</a>
</g>
</g>
<!-- h5py&#45;&gt;bitshuffle -->
<g id="edge13" class="edge">
<title>h5py&#45;&gt;bitshuffle</title>
<path fill="none" stroke="black" d="M805.87,-436.16C790.53,-426.12 768.86,-411.95 750.95,-400.23"/>
<polygon fill="black" stroke="black" points="752.78,-397.24 742.5,-394.7 748.95,-403.1 752.78,-397.24"/>
</g>
<!-- triqs -->
<g id="node14" class="node">
<title>triqs</title>
<g id="a_node14"><a xlink:href="https://github.com/conda-forge/triqs-feedstock" xlink:title="triqs">
<ellipse fill="#fde725" stroke="black" cx="806.5" cy="-162" rx="35.19" ry="18"/>
<text text-anchor="middle" x="806.5" y="-158.3" font-family="Times,serif" font-size="14.00">triqs</text>
</a>
</g>
</g>
<!-- h5py&#45;&gt;triqs -->
<g id="edge14" class="edge">
<title>h5py&#45;&gt;triqs</title>
<path fill="none" stroke="black" d="M824.37,-431.97C821.2,-384.29 812.23,-249.18 808.34,-190.63"/>
<polygon fill="black" stroke="black" points="811.8,-190.05 807.65,-180.31 804.82,-190.52 811.8,-190.05"/>
</g>
<!-- hdf5plugin -->
<g id="node15" class="node">
<title>hdf5plugin</title>
<g id="a_node15"><a xlink:href="https://github.com/conda-forge/hdf5plugin-feedstock" xlink:title="hdf5plugin">
<ellipse fill="#fde725" stroke="black" cx="894.5" cy="-306" rx="60" ry="18"/>
<text text-anchor="middle" x="894.5" y="-302.3" font-family="Times,serif" font-size="14.00">hdf5plugin</text>
</a>
</g>
</g>
<!-- h5py&#45;&gt;hdf5plugin -->
<g id="edge15" class="edge">
<title>h5py&#45;&gt;hdf5plugin</title>
<path fill="none" stroke="black" d="M833.55,-432.43C845.43,-407.98 867.77,-362 881.86,-333.02"/>
<polygon fill="black" stroke="black" points="885.06,-334.43 886.29,-323.9 878.77,-331.37 885.06,-334.43"/>
</g>
<!-- prismatic_split -->
<g id="node16" class="node">
<title>prismatic_split</title>
<g id="a_node16"><a xlink:href="https://github.com/conda-forge/prismatic_split-feedstock" xlink:title="prismatic_split">
<ellipse fill="#fde725" stroke="black" cx="982.5" cy="-234" rx="84" ry="18"/>
<text text-anchor="middle" x="982.5" y="-230.3" font-family="Times,serif" font-size="14.00">prismatic_split</text>
</a>
</g>
</g>
<!-- h5py&#45;&gt;prismatic_split -->
<g id="edge16" class="edge">
<title>h5py&#45;&gt;prismatic_split</title>
<path fill="none" stroke="black" d="M846.07,-436.48C876.77,-416.65 934.14,-374.98 963.5,-324 974.38,-305.12 979.05,-280.74 981.04,-262.28"/>
<polygon fill="black" stroke="black" points="984.54,-262.45 981.94,-252.18 977.57,-261.83 984.54,-262.45"/>
</g>
<!-- digital_rf -->
<g id="node17" class="node">
<title>digital_rf</title>
<g id="a_node17"><a xlink:href="https://github.com/conda-forge/digital_rf-feedstock" xlink:title="digital_rf">
<ellipse fill="#fde725" stroke="black" cx="1055.5" cy="-162" rx="60" ry="18"/>
<text text-anchor="middle" x="1055.5" y="-158.3" font-family="Times,serif" font-size="14.00">digital_rf</text>
</a>
</g>
</g>
<!-- h5py&#45;&gt;digital_rf -->
<g id="edge17" class="edge">
<title>h5py&#45;&gt;digital_rf</title>
<path fill="none" stroke="black" d="M850.52,-439.34C905.13,-416.63 1033.49,-353.92 1075.5,-252 1083.85,-231.74 1077.33,-207.38 1069.58,-189.27"/>
<polygon fill="black" stroke="black" points="1072.62,-187.51 1065.23,-179.92 1066.27,-190.46 1072.62,-187.51"/>
</g>
<!-- pp&#45;sketchlib -->
<g id="node18" class="node">
<title>pp&#45;sketchlib</title>
<g id="a_node18"><a xlink:href="https://github.com/conda-forge/pp-sketchlib-feedstock" xlink:title="pp sketchlib">
<ellipse fill="#fde725" stroke="black" cx="1106.5" cy="-90" rx="69.59" ry="18"/>
<text text-anchor="middle" x="1106.5" y="-86.3" font-family="Times,serif" font-size="14.00">pp sketchlib</text>
</a>
</g>
</g>
<!-- h5py&#45;&gt;pp&#45;sketchlib -->
<g id="edge18" class="edge">
<title>h5py&#45;&gt;pp&#45;sketchlib</title>
<path fill="none" stroke="black" d="M853.47,-442.64C884.72,-434.75 936.09,-419.42 975.5,-396 1016.62,-371.56 1026.73,-362.22 1055.5,-324 1098.18,-267.3 1108.97,-249.25 1124.5,-180 1129.17,-159.17 1123.86,-135.47 1117.83,-117.77"/>
<polygon fill="black" stroke="black" points="1121.01,-116.28 1114.26,-108.11 1114.44,-118.7 1121.01,-116.28"/>
</g>
<!-- openmc&#45;&gt;conda&#45;forge&#45;pinning -->
<g id="edge19" class="edge">
<title>openmc&#45;&gt;conda&#45;forge&#45;pinning</title>
<path fill="none" stroke="black" d="M1308.74,-287.99C1302.89,-249.43 1290.5,-152.51 1299.5,-72 1300.46,-63.43 1302.26,-54.22 1304.19,-45.93"/>
<polygon fill="black" stroke="black" points="1307.63,-46.57 1306.63,-36.02 1300.84,-44.89 1307.63,-46.57"/>
</g>
<!-- rsgislib&#45;&gt;conda&#45;forge&#45;pinning -->
<g id="edge20" class="edge">
<title>rsgislib&#45;&gt;conda&#45;forge&#45;pinning</title>
<path fill="none" stroke="black" d="M256.07,-216.2C239.18,-183.62 208.86,-111.56 246.5,-72 278.92,-37.92 931.26,-24.55 1198.65,-20.48"/>
<polygon fill="black" stroke="black" points="1198.83,-23.98 1208.78,-20.33 1198.72,-16.98 1198.83,-23.98"/>
</g>
<!-- h5utils&#45;&gt;conda&#45;forge&#45;pinning -->
<g id="edge21" class="edge">
<title>h5utils&#45;&gt;conda&#45;forge&#45;pinning</title>
<path fill="none" stroke="black" d="M288.1,-145.68C266.29,-126.67 236.49,-94.09 257.5,-72 289.54,-38.31 933.61,-24.72 1198.85,-20.54"/>
<polygon fill="black" stroke="black" points="1198.95,-24.04 1208.89,-20.38 1198.84,-17.04 1198.95,-24.04"/>
</g>
<!-- h5utils&#45;&gt;pymeep -->
<g id="edge22" class="edge">
<title>h5utils&#45;&gt;pymeep</title>
<path fill="none" stroke="black" d="M307.5,-143.7C307.5,-135.98 307.5,-126.71 307.5,-118.11"/>
<polygon fill="black" stroke="black" points="311,-118.1 307.5,-108.1 304,-118.1 311,-118.1"/>
</g>
<!-- pymeep&#45;&gt;conda&#45;forge&#45;pinning -->
<g id="edge23" class="edge">
<title>pymeep&#45;&gt;conda&#45;forge&#45;pinning</title>
<path fill="none" stroke="black" d="M338.01,-78.12C345.89,-75.71 354.43,-73.45 362.5,-72 520.18,-43.67 984.6,-27.82 1199.75,-21.82"/>
<polygon fill="black" stroke="black" points="1199.91,-25.32 1209.81,-21.55 1199.71,-18.32 1199.91,-25.32"/>
</g>
<!-- blosc&#45;hdf5&#45;plugin&#45;&gt;conda&#45;forge&#45;pinning -->
<g id="edge24" class="edge">
<title>blosc&#45;hdf5&#45;plugin&#45;&gt;conda&#45;forge&#45;pinning</title>
<path fill="none" stroke="black" d="M564.59,-77.2C576.83,-75.27 589.53,-73.43 601.5,-72 813.73,-46.62 1063.2,-31.34 1202.76,-24.1"/>
<polygon fill="black" stroke="black" points="1203.23,-27.58 1213.03,-23.57 1202.87,-20.59 1203.23,-27.58"/>
</g>
<!-- isce2&#45;&gt;conda&#45;forge&#45;pinning -->
<g id="edge25" class="edge">
<title>isce2&#45;&gt;conda&#45;forge&#45;pinning</title>
<path fill="none" stroke="black" d="M672.37,-78.33C679.47,-75.89 687.19,-73.56 694.5,-72 867.74,-35.11 1073.53,-23.75 1198.23,-20.34"/>
<polygon fill="black" stroke="black" points="1198.64,-23.83 1208.55,-20.07 1198.46,-16.83 1198.64,-23.83"/>
</g>
<!-- bitshuffle&#45;&gt;conda&#45;forge&#45;pinning -->
<g id="edge26" class="edge">
<title>bitshuffle&#45;&gt;conda&#45;forge&#45;pinning</title>
<path fill="none" stroke="black" d="M716.52,-359.98C713.61,-333.36 708.5,-280.23 708.5,-235 708.5,-235 708.5,-235 708.5,-161 708.5,-120.46 698.03,-98.74 728.5,-72 763.1,-41.64 1040.65,-27.71 1199.99,-22.16"/>
<polygon fill="black" stroke="black" points="1200.44,-25.64 1210.31,-21.8 1200.2,-18.65 1200.44,-25.64"/>
</g>
<!-- triqs&#45;&gt;conda&#45;forge&#45;pinning -->
<g id="edge27" class="edge">
<title>triqs&#45;&gt;conda&#45;forge&#45;pinning</title>
<path fill="none" stroke="black" d="M825.41,-146.81C839.37,-136.26 858.77,-121.42 875.5,-108 894.94,-92.41 895.7,-82.06 918.5,-72 968.74,-49.83 1108.97,-34.71 1207.52,-26.46"/>
<polygon fill="black" stroke="black" points="1207.85,-29.95 1217.53,-25.64 1207.27,-22.97 1207.85,-29.95"/>
</g>
<!-- triqs_cthyb -->
<g id="node19" class="node">
<title>triqs_cthyb</title>
<g id="a_node19"><a xlink:href="https://github.com/conda-forge/triqs_cthyb-feedstock" xlink:title="triqs_cthyb">
<ellipse fill="#fde725" stroke="black" cx="801.5" cy="-90" rx="64.5" ry="18"/>
<text text-anchor="middle" x="801.5" y="-86.3" font-family="Times,serif" font-size="14.00">triqs_cthyb</text>
</a>
</g>
</g>
<!-- triqs&#45;&gt;triqs_cthyb -->
<g id="edge28" class="edge">
<title>triqs&#45;&gt;triqs_cthyb</title>
<path fill="none" stroke="black" d="M805.26,-143.7C804.71,-135.98 804.05,-126.71 803.44,-118.11"/>
<polygon fill="black" stroke="black" points="806.93,-117.83 802.72,-108.1 799.94,-118.33 806.93,-117.83"/>
</g>
<!-- hdf5plugin&#45;&gt;conda&#45;forge&#45;pinning -->
<g id="edge29" class="edge">
<title>hdf5plugin&#45;&gt;conda&#45;forge&#45;pinning</title>
<path fill="none" stroke="black" d="M890.11,-287.86C886.22,-269.62 882.19,-240.14 889.5,-216 911.79,-142.38 920.82,-113.64 985.5,-72 1021.56,-48.78 1126.81,-34.6 1208.06,-26.82"/>
<polygon fill="black" stroke="black" points="1208.72,-30.28 1218.35,-25.86 1208.06,-23.31 1208.72,-30.28"/>
</g>
<!-- prismatic_split&#45;&gt;conda&#45;forge&#45;pinning -->
<g id="edge30" class="edge">
<title>prismatic_split&#45;&gt;conda&#45;forge&#45;pinning</title>
<path fill="none" stroke="black" d="M979.87,-215.91C975.78,-182.14 972.33,-107.09 1015.5,-72 1044.71,-48.25 1134.95,-34.44 1208.18,-26.91"/>
<polygon fill="black" stroke="black" points="1208.8,-30.37 1218.4,-25.89 1208.1,-23.4 1208.8,-30.37"/>
</g>
<!-- digital_rf&#45;&gt;conda&#45;forge&#45;pinning -->
<g id="edge31" class="edge">
<title>digital_rf&#45;&gt;conda&#45;forge&#45;pinning</title>
<path fill="none" stroke="black" d="M1041.94,-144.45C1027.81,-125.1 1010.01,-93.06 1027.5,-72 1049.99,-44.93 1133.18,-31.61 1203.75,-25.1"/>
<polygon fill="black" stroke="black" points="1204.41,-28.56 1214.07,-24.19 1203.8,-21.58 1204.41,-28.56"/>
</g>
<!-- pp&#45;sketchlib&#45;&gt;conda&#45;forge&#45;pinning -->
<g id="edge32" class="edge">
<title>pp&#45;sketchlib&#45;&gt;conda&#45;forge&#45;pinning</title>
<path fill="none" stroke="black" d="M1147,-75.17C1178.57,-64.39 1222.71,-49.32 1257.32,-37.5"/>
<polygon fill="black" stroke="black" points="1258.48,-40.8 1266.81,-34.26 1256.22,-34.18 1258.48,-40.8"/>
</g>
<!-- triqs_cthyb&#45;&gt;conda&#45;forge&#45;pinning -->
<g id="edge55" class="edge">
<title>triqs_cthyb&#45;&gt;conda&#45;forge&#45;pinning</title>
<path fill="none" stroke="black" d="M849.83,-77.88C859.93,-75.76 870.54,-73.68 880.5,-72 994.02,-52.85 1125.46,-37.68 1213.06,-28.57"/>
<polygon fill="black" stroke="black" points="1213.67,-32.02 1223.25,-27.51 1212.95,-25.06 1213.67,-32.02"/>
</g>
<!-- hdfeos5 -->
<g id="node20" class="node">
<title>hdfeos5</title>
<g id="a_node20"><a xlink:href="https://github.com/conda-forge/hdfeos5-feedstock/pull/27" xlink:title="hdfeos5">
<ellipse fill="#31688e" stroke="black" cx="1374.5" cy="-234" rx="45" ry="18"/>
<text text-anchor="middle" x="1374.5" y="-230.3" font-family="Times,serif" font-size="14.00" fill="white">hdfeos5</text>
</a>
</g>
</g>
<!-- hdfeos5&#45;&gt;conda&#45;forge&#45;pinning -->
<g id="edge33" class="edge">
<title>hdfeos5&#45;&gt;conda&#45;forge&#45;pinning</title>
<path fill="none" stroke="black" d="M1378.12,-216.02C1385.47,-179.88 1400.37,-96.68 1387.5,-72 1380.73,-59.03 1369.19,-48.59 1357.11,-40.52"/>
<polygon fill="black" stroke="black" points="1358.62,-37.34 1348.28,-35.05 1354.94,-43.29 1358.62,-37.34"/>
</g>
<!-- ncl -->
<g id="node21" class="node">
<title>ncl</title>
<g id="a_node21"><a xlink:href="https://github.com/conda-forge/ncl-feedstock" xlink:title="ncl">
<ellipse fill="#fde725" stroke="black" cx="1429.5" cy="-162" rx="27" ry="18"/>
<text text-anchor="middle" x="1429.5" y="-158.3" font-family="Times,serif" font-size="14.00">ncl</text>
</a>
</g>
</g>
<!-- hdfeos5&#45;&gt;ncl -->
<g id="edge34" class="edge">
<title>hdfeos5&#45;&gt;ncl</title>
<path fill="none" stroke="black" d="M1387.53,-216.41C1394.51,-207.53 1403.23,-196.44 1410.9,-186.67"/>
<polygon fill="black" stroke="black" points="1413.89,-188.54 1417.31,-178.51 1408.38,-184.21 1413.89,-188.54"/>
</g>
<!-- pynio -->
<g id="node22" class="node">
<title>pynio</title>
<g id="a_node22"><a xlink:href="https://github.com/conda-forge/pynio-feedstock" xlink:title="pynio">
<ellipse fill="#fde725" stroke="black" cx="1343.5" cy="-90" rx="35.19" ry="18"/>
<text text-anchor="middle" x="1343.5" y="-86.3" font-family="Times,serif" font-size="14.00">pynio</text>
</a>
</g>
</g>
<!-- hdfeos5&#45;&gt;pynio -->
<g id="edge35" class="edge">
<title>hdfeos5&#45;&gt;pynio</title>
<path fill="none" stroke="black" d="M1369.66,-215.89C1366.81,-205.54 1363.24,-192.06 1360.5,-180 1355.82,-159.42 1351.38,-135.97 1348.21,-118.31"/>
<polygon fill="black" stroke="black" points="1351.6,-117.37 1346.41,-108.14 1344.7,-118.59 1351.6,-117.37"/>
</g>
<!-- ncl&#45;&gt;conda&#45;forge&#45;pinning -->
<g id="edge36" class="edge">
<title>ncl&#45;&gt;conda&#45;forge&#45;pinning</title>
<path fill="none" stroke="black" d="M1432.38,-143.92C1434.65,-124.66 1435.35,-93.27 1420.5,-72 1409.68,-56.5 1393.02,-45.35 1375.96,-37.4"/>
<polygon fill="black" stroke="black" points="1377.05,-34.06 1366.48,-33.31 1374.27,-40.49 1377.05,-34.06"/>
</g>
<!-- pynio&#45;&gt;conda&#45;forge&#45;pinning -->
<g id="edge37" class="edge">
<title>pynio&#45;&gt;conda&#45;forge&#45;pinning</title>
<path fill="none" stroke="black" d="M1335.92,-72.41C1332.19,-64.25 1327.6,-54.22 1323.42,-45.07"/>
<polygon fill="black" stroke="black" points="1326.59,-43.6 1319.25,-35.96 1320.23,-46.51 1326.59,-43.6"/>
</g>
<!-- hyperion&#45;fortran -->
<g id="node23" class="node">
<title>hyperion&#45;fortran</title>
<g id="a_node23"><a xlink:href="https://github.com/conda-forge/hyperion-fortran-feedstock/pull/18" xlink:title="hyperion fortran">
<ellipse fill="#31688e" stroke="black" cx="1459.5" cy="-306" rx="89.08" ry="18"/>
<text text-anchor="middle" x="1459.5" y="-302.3" font-family="Times,serif" font-size="14.00" fill="white">hyperion fortran</text>
</a>
</g>
</g>
<!-- hyperion&#45;fortran&#45;&gt;conda&#45;forge&#45;pinning -->
<g id="edge38" class="edge">
<title>hyperion&#45;fortran&#45;&gt;conda&#45;forge&#45;pinning</title>
<path fill="none" stroke="black" d="M1464.43,-287.83C1475.57,-244.94 1497.53,-132.3 1440.5,-72 1424.92,-55.53 1403.47,-44.01 1382.54,-36.03"/>
<polygon fill="black" stroke="black" points="1383.57,-32.69 1372.98,-32.61 1381.21,-39.28 1383.57,-32.69"/>
</g>
<!-- marray -->
<g id="node24" class="node">
<title>marray</title>
<g id="a_node24"><a xlink:href="https://github.com/conda-forge/marray-feedstock/pull/8" xlink:title="marray">
<ellipse fill="#31688e" stroke="black" cx="1576.5" cy="-378" rx="40.5" ry="18"/>
<text text-anchor="middle" x="1576.5" y="-374.3" font-family="Times,serif" font-size="14.00" fill="white">marray</text>
</a>
</g>
</g>
<!-- marray&#45;&gt;conda&#45;forge&#45;pinning -->
<g id="edge39" class="edge">
<title>marray&#45;&gt;conda&#45;forge&#45;pinning</title>
<path fill="none" stroke="black" d="M1575.51,-359.92C1571.59,-308.42 1552.72,-153.22 1465.5,-72 1445.78,-53.63 1419.39,-41.59 1394.04,-33.72"/>
<polygon fill="black" stroke="black" points="1394.97,-30.35 1384.38,-30.9 1393,-37.06 1394.97,-30.35"/>
</g>
<!-- pyne -->
<g id="node25" class="node">
<title>pyne</title>
<g id="a_node25"><a xlink:href="https://github.com/conda-forge/pyne-feedstock/pull/40" xlink:title="pyne">
<ellipse fill="#31688e" stroke="black" cx="1579.5" cy="-90" rx="30.59" ry="18"/>
<text text-anchor="middle" x="1579.5" y="-86.3" font-family="Times,serif" font-size="14.00" fill="white">pyne</text>
</a>
</g>
</g>
<!-- pyne&#45;&gt;conda&#45;forge&#45;pinning -->
<g id="edge40" class="edge">
<title>pyne&#45;&gt;conda&#45;forge&#45;pinning</title>
<path fill="none" stroke="black" d="M1554.94,-79.07C1548.36,-76.59 1541.21,-74.05 1534.5,-72 1485.79,-57.08 1430.02,-43.82 1386.45,-34.3"/>
<polygon fill="black" stroke="black" points="1387.01,-30.84 1376.49,-32.15 1385.53,-37.69 1387.01,-30.84"/>
</g>
<!-- r&#45;hdf5r -->
<g id="node26" class="node">
<title>r&#45;hdf5r</title>
<g id="a_node26"><a xlink:href="https://github.com/conda-forge/r-hdf5r-feedstock/pull/12" xlink:title="r hdf5r">
<ellipse fill="#31688e" stroke="black" cx="1603.5" cy="-162" rx="45" ry="18"/>
<text text-anchor="middle" x="1603.5" y="-158.3" font-family="Times,serif" font-size="14.00" fill="white">r hdf5r</text>
</a>
</g>
</g>
<!-- r&#45;hdf5r&#45;&gt;conda&#45;forge&#45;pinning -->
<g id="edge41" class="edge">
<title>r&#45;hdf5r&#45;&gt;conda&#45;forge&#45;pinning</title>
<path fill="none" stroke="black" d="M1613.71,-144.18C1624.15,-124.58 1636.6,-92.29 1619.5,-72 1594.28,-42.07 1499.66,-29.04 1421.88,-23.37"/>
<polygon fill="black" stroke="black" points="1421.73,-19.85 1411.51,-22.65 1421.25,-26.84 1421.73,-19.85"/>
</g>
<!-- shogun -->
<g id="node27" class="node">
<title>shogun</title>
<g id="a_node27"><a xlink:href="https://github.com/conda-forge/shogun-feedstock/pull/20" xlink:title="shogun">
<ellipse fill="#31688e" stroke="black" cx="1645.5" cy="-234" rx="40.5" ry="18"/>
<text text-anchor="middle" x="1645.5" y="-230.3" font-family="Times,serif" font-size="14.00" fill="white">shogun</text>
</a>
</g>
</g>
<!-- shogun&#45;&gt;conda&#45;forge&#45;pinning -->
<g id="edge42" class="edge">
<title>shogun&#45;&gt;conda&#45;forge&#45;pinning</title>
<path fill="none" stroke="black" d="M1651.28,-216.14C1661.51,-182.77 1678.15,-108.41 1637.5,-72 1605.98,-43.77 1502.45,-30.47 1420.41,-24.27"/>
<polygon fill="black" stroke="black" points="1420.49,-20.77 1410.26,-23.53 1419.98,-27.75 1420.49,-20.77"/>
</g>
<!-- vigra -->
<g id="node28" class="node">
<title>vigra</title>
<g id="a_node28"><a xlink:href="https://github.com/conda-forge/vigra-feedstock/pull/54" xlink:title="vigra">
<ellipse fill="#31688e" stroke="black" cx="1689.5" cy="-306" rx="35.19" ry="18"/>
<text text-anchor="middle" x="1689.5" y="-302.3" font-family="Times,serif" font-size="14.00" fill="white">vigra</text>
</a>
</g>
</g>
<!-- vigra&#45;&gt;conda&#45;forge&#45;pinning -->
<g id="edge43" class="edge">
<title>vigra&#45;&gt;conda&#45;forge&#45;pinning</title>
<path fill="none" stroke="black" d="M1693.85,-288C1703.83,-244.53 1723.07,-128.74 1661.5,-72 1627.39,-40.57 1511.84,-27.78 1422.74,-22.57"/>
<polygon fill="black" stroke="black" points="1422.74,-19.07 1412.56,-22 1422.35,-26.06 1422.74,-19.07"/>
</g>
<!-- yaafe -->
<g id="node29" class="node">
<title>yaafe</title>
<g id="a_node29"><a xlink:href="https://github.com/conda-forge/yaafe-feedstock/pull/9" xlink:title="yaafe">
<ellipse fill="#31688e" stroke="black" cx="1752.5" cy="-378" rx="35.19" ry="18"/>
<text text-anchor="middle" x="1752.5" y="-374.3" font-family="Times,serif" font-size="14.00" fill="white">yaafe</text>
</a>
</g>
</g>
<!-- yaafe&#45;&gt;conda&#45;forge&#45;pinning -->
<g id="edge44" class="edge">
<title>yaafe&#45;&gt;conda&#45;forge&#45;pinning</title>
<path fill="none" stroke="black" d="M1752.5,-359.95C1752.5,-333.29 1752.5,-280.11 1752.5,-235 1752.5,-235 1752.5,-235 1752.5,-161 1752.5,-112.02 1729.51,-97.18 1687.5,-72 1643.52,-45.63 1514.12,-31.74 1419.37,-24.9"/>
<polygon fill="black" stroke="black" points="1419.38,-21.39 1409.16,-24.18 1418.89,-28.37 1419.38,-21.39"/>
</g>
<!-- alps -->
<g id="node30" class="node">
<title>alps</title>
<g id="a_node30"><a xlink:href="https://github.com/conda-forge/alps-feedstock/pull/31" xlink:title="alps">
<ellipse fill="#31688e" stroke="black" cx="1811.5" cy="-90" rx="30.59" ry="18"/>
<text text-anchor="middle" x="1811.5" y="-86.3" font-family="Times,serif" font-size="14.00" fill="white">alps</text>
</a>
</g>
</g>
<!-- alps&#45;&gt;conda&#45;forge&#45;pinning -->
<g id="edge45" class="edge">
<title>alps&#45;&gt;conda&#45;forge&#45;pinning</title>
<path fill="none" stroke="black" d="M1787.56,-78.71C1780.85,-76.17 1773.48,-73.7 1766.5,-72 1650.19,-43.71 1513.36,-30.37 1420.35,-24.17"/>
<polygon fill="black" stroke="black" points="1420.57,-20.68 1410.36,-23.52 1420.11,-27.66 1420.57,-20.68"/>
</g>
<!-- spdlib -->
<g id="node31" class="node">
<title>spdlib</title>
<g id="a_node31"><a xlink:href="https://github.com/conda-forge/spdlib-feedstock/pull/15" xlink:title="spdlib">
<ellipse fill="#31688e" stroke="black" cx="1870.5" cy="-162" rx="40.5" ry="18"/>
<text text-anchor="middle" x="1870.5" y="-158.3" font-family="Times,serif" font-size="14.00" fill="white">spdlib</text>
</a>
</g>
</g>
<!-- spdlib&#45;&gt;conda&#45;forge&#45;pinning -->
<g id="edge46" class="edge">
<title>spdlib&#45;&gt;conda&#45;forge&#45;pinning</title>
<path fill="none" stroke="black" d="M1872.29,-143.67C1873.34,-123.27 1871.53,-89.89 1851.5,-72 1820.19,-44.03 1570.6,-29.31 1421.94,-22.95"/>
<polygon fill="black" stroke="black" points="1421.99,-19.45 1411.86,-22.53 1421.7,-26.45 1421.99,-19.45"/>
</g>
<!-- mpb -->
<g id="node32" class="node">
<title>mpb</title>
<g id="a_node32"><a xlink:href="https://github.com/conda-forge/mpb-feedstock/pull/22" xlink:title="mpb">
<ellipse fill="#31688e" stroke="black" cx="436.5" cy="-162" rx="27" ry="18"/>
<text text-anchor="middle" x="436.5" y="-158.3" font-family="Times,serif" font-size="14.00" fill="white">mpb</text>
</a>
</g>
</g>
<!-- mpb&#45;&gt;conda&#45;forge&#45;pinning -->
<g id="edge47" class="edge">
<title>mpb&#45;&gt;conda&#45;forge&#45;pinning</title>
<path fill="none" stroke="black" d="M421.29,-147.06C402.34,-128.06 374.83,-93.9 395.5,-72 422.68,-43.2 960.54,-27.16 1199.15,-21.44"/>
<polygon fill="black" stroke="black" points="1199.33,-24.93 1209.24,-21.2 1199.16,-17.93 1199.33,-24.93"/>
</g>
<!-- mpb&#45;&gt;pymeep -->
<g id="edge48" class="edge">
<title>mpb&#45;&gt;pymeep</title>
<path fill="none" stroke="black" d="M416.06,-149.91C395.99,-139.02 365.02,-122.21 341.28,-109.33"/>
<polygon fill="black" stroke="black" points="342.72,-106.13 332.26,-104.43 339.38,-112.28 342.72,-106.13"/>
</g>
<!-- openpmd&#45;api -->
<g id="node33" class="node">
<title>openpmd&#45;api</title>
<g id="a_node33"><a xlink:href="https://github.com/conda-forge/openpmd-api-feedstock" xlink:title="openpmd api">
<ellipse fill="#fde725" stroke="black" cx="2001.5" cy="-90" rx="64.5" ry="18"/>
<text text-anchor="middle" x="2001.5" y="-86.3" font-family="Times,serif" font-size="14.00">openpmd api</text>
</a>
</g>
</g>
<!-- openpmd&#45;api&#45;&gt;conda&#45;forge&#45;pinning -->
<g id="edge49" class="edge">
<title>openpmd&#45;api&#45;&gt;conda&#45;forge&#45;pinning</title>
<path fill="none" stroke="black" d="M1954.05,-77.78C1943.7,-75.62 1932.77,-73.54 1922.5,-72 1747.63,-45.71 1542.5,-31.22 1419.97,-24.29"/>
<polygon fill="black" stroke="black" points="1420.01,-20.79 1409.83,-23.72 1419.62,-27.78 1420.01,-20.79"/>
</g>
<!-- cmor -->
<g id="node34" class="node">
<title>cmor</title>
<g id="a_node34"><a xlink:href="https://github.com/conda-forge/cmor-feedstock/pull/23" xlink:title="cmor">
<ellipse fill="#31688e" stroke="black" cx="2073.5" cy="-234" rx="30.59" ry="18"/>
<text text-anchor="middle" x="2073.5" y="-230.3" font-family="Times,serif" font-size="14.00" fill="white">cmor</text>
</a>
</g>
</g>
<!-- cmor&#45;&gt;conda&#45;forge&#45;pinning -->
<g id="edge50" class="edge">
<title>cmor&#45;&gt;conda&#45;forge&#45;pinning</title>
<path fill="none" stroke="black" d="M2080.31,-216.22C2092.27,-183.67 2112.5,-111.65 2075.5,-72 2032.16,-25.54 1627.59,-18.91 1425.4,-18.54"/>
<polygon fill="black" stroke="black" points="1425.34,-15.04 1415.34,-18.52 1425.33,-22.04 1425.34,-15.04"/>
</g>
<!-- scilab -->
<g id="node35" class="node">
<title>scilab</title>
<g id="a_node35"><a xlink:href="https://github.com/conda-forge/scilab-feedstock/pull/12" xlink:title="scilab">
<ellipse fill="#31688e" stroke="black" cx="2101.5" cy="-306" rx="40.5" ry="18"/>
<text text-anchor="middle" x="2101.5" y="-302.3" font-family="Times,serif" font-size="14.00" fill="white">scilab</text>
</a>
</g>
</g>
<!-- scilab&#45;&gt;conda&#45;forge&#45;pinning -->
<g id="edge51" class="edge">
<title>scilab&#45;&gt;conda&#45;forge&#45;pinning</title>
<path fill="none" stroke="black" d="M2108.2,-287.99C2124.08,-244.5 2158.33,-128.67 2097.5,-72 2049.47,-27.25 1631.32,-19.81 1425.28,-18.89"/>
<polygon fill="black" stroke="black" points="1425.04,-15.39 1415.03,-18.85 1425.01,-22.39 1425.04,-15.39"/>
</g>
<!-- adios2 -->
<g id="node36" class="node">
<title>adios2</title>
<g id="a_node36"><a xlink:href="https://github.com/conda-forge/adios2-feedstock/pull/11" xlink:title="adios2">
<ellipse fill="#31688e" stroke="black" cx="1985.5" cy="-162" rx="40.5" ry="18"/>
<text text-anchor="middle" x="1985.5" y="-158.3" font-family="Times,serif" font-size="14.00" fill="white">adios2</text>
</a>
</g>
</g>
<!-- adios2&#45;&gt;conda&#45;forge&#45;pinning -->
<g id="edge52" class="edge">
<title>adios2&#45;&gt;conda&#45;forge&#45;pinning</title>
<path fill="none" stroke="black" d="M1968.68,-145.49C1943.17,-122.32 1895.45,-80.48 1874.5,-72 1795.33,-39.93 1563.64,-26.97 1423.37,-21.96"/>
<polygon fill="black" stroke="black" points="1423.13,-18.45 1413.02,-21.6 1422.89,-25.44 1423.13,-18.45"/>
</g>
<!-- adios2&#45;&gt;openpmd&#45;api -->
<g id="edge53" class="edge">
<title>adios2&#45;&gt;openpmd&#45;api</title>
<path fill="none" stroke="black" d="M1989.37,-144.05C1991.15,-136.26 1993.31,-126.82 1995.31,-118.08"/>
<polygon fill="black" stroke="black" points="1998.74,-118.8 1997.55,-108.28 1991.91,-117.24 1998.74,-118.8"/>
</g>
<!-- bonsu -->
<g id="node37" class="node">
<title>bonsu</title>
<g id="a_node37"><a xlink:href="https://github.com/conda-forge/bonsu-feedstock/pull/5" xlink:title="bonsu">
<ellipse fill="#31688e" stroke="black" cx="2170.5" cy="-378" rx="35.19" ry="18"/>
<text text-anchor="middle" x="2170.5" y="-374.3" font-family="Times,serif" font-size="14.00" fill="white">bonsu</text>
</a>
</g>
</g>
<!-- bonsu&#45;&gt;conda&#45;forge&#45;pinning -->
<g id="edge54" class="edge">
<title>bonsu&#45;&gt;conda&#45;forge&#45;pinning</title>
<path fill="none" stroke="black" d="M2170.5,-359.95C2170.5,-333.29 2170.5,-280.11 2170.5,-235 2170.5,-235 2170.5,-235 2170.5,-161 2170.5,-116.27 2161.04,-96.33 2123.5,-72 2066.31,-34.93 1633.98,-23.63 1424.55,-20.32"/>
<polygon fill="black" stroke="black" points="1424.49,-16.81 1414.44,-20.16 1424.38,-23.81 1424.49,-16.81"/>
</g>
<!-- dagmc -->
<g id="node38" class="node">
<title>dagmc</title>
<g id="a_node38"><a xlink:href="https://github.com/conda-forge/dagmc-feedstock/pull/1" xlink:title="dagmc">
<ellipse fill="#31688e" stroke="black" cx="2233.5" cy="-90" rx="35.19" ry="18"/>
<text text-anchor="middle" x="2233.5" y="-86.3" font-family="Times,serif" font-size="14.00" fill="white">dagmc</text>
</a>
</g>
</g>
<!-- dagmc&#45;&gt;conda&#45;forge&#45;pinning -->
<g id="edge56" class="edge">
<title>dagmc&#45;&gt;conda&#45;forge&#45;pinning</title>
<path fill="none" stroke="black" d="M2206.65,-78.21C2199.56,-75.77 2191.83,-73.46 2184.5,-72 2042.01,-43.52 1624.61,-28 1423.01,-21.98"/>
<polygon fill="black" stroke="black" points="1423.09,-18.48 1412.99,-21.68 1422.88,-25.48 1423.09,-18.48"/>
</g>
<!-- nccmp -->
<g id="node39" class="node">
<title>nccmp</title>
<g id="a_node39"><a xlink:href="https://github.com/conda-forge/nccmp-feedstock/pull/2" xlink:title="nccmp">
<ellipse fill="#31688e" stroke="black" cx="2296.5" cy="-162" rx="35.19" ry="18"/>
<text text-anchor="middle" x="2296.5" y="-158.3" font-family="Times,serif" font-size="14.00" fill="white">nccmp</text>
</a>
</g>
</g>
<!-- nccmp&#45;&gt;conda&#45;forge&#45;pinning -->
<g id="edge57" class="edge">
<title>nccmp&#45;&gt;conda&#45;forge&#45;pinning</title>
<path fill="none" stroke="black" d="M2298.4,-143.89C2299.61,-123.37 2298.03,-89.56 2277.5,-72 2245.52,-44.64 1671.24,-27.63 1423.62,-21.54"/>
<polygon fill="black" stroke="black" points="1423.59,-18.04 1413.51,-21.29 1423.42,-25.03 1423.59,-18.04"/>
</g>
</g>
</svg>
