<?xml version="1.0" encoding="UTF-8" standalone="no"?>
<!DOCTYPE svg PUBLIC "-//W3C//DTD SVG 1.1//EN"
 "http://www.w3.org/Graphics/SVG/1.1/DTD/svg11.dtd">
<!-- Generated by graphviz version 2.42.3 (20191010.1750)
 -->
<!-- Title: %3 Pages: 1 -->
<svg width="2489pt" height="476pt"
 viewBox="0.00 0.00 2488.60 476.00" xmlns="http://www.w3.org/2000/svg" xmlns:xlink="http://www.w3.org/1999/xlink">
<g id="graph0" class="graph" transform="scale(1 1) rotate(0) translate(4 472)">
<title>%3</title>
<polygon fill="white" stroke="transparent" points="-4,4 -4,-472 2484.6,-472 2484.6,4 -4,4"/>
<!-- caffe -->
<g id="node1" class="node">
<title>caffe</title>
<g id="a_node1"><a xlink:href="https://github.com/conda-forge/caffe-feedstock" xlink:title="caffe">
<ellipse fill="#fde725" stroke="black" cx="1083.5" cy="-378" rx="35.19" ry="18"/>
<text text-anchor="middle" x="1083.5" y="-374.3" font-family="Times,serif" font-size="14.00">caffe</text>
</a>
</g>
</g>
<!-- conda&#45;forge&#45;pinning -->
<g id="node2" class="node">
<title>conda&#45;forge&#45;pinning</title>
<ellipse fill="none" stroke="black" cx="1342.5" cy="-18" rx="103.5" ry="18"/>
<text text-anchor="middle" x="1342.5" y="-14.3" font-family="Times,serif" font-size="14.00">conda&#45;forge&#45;pinning</text>
</g>
<!-- caffe&#45;&gt;conda&#45;forge&#45;pinning -->
<g id="edge1" class="edge">
<title>caffe&#45;&gt;conda&#45;forge&#45;pinning</title>
<path fill="none" stroke="black" d="M1083.5,-359.95C1083.5,-333.29 1083.5,-280.11 1083.5,-235 1083.5,-235 1083.5,-235 1083.5,-161 1083.5,-120.03 1077.93,-100.36 1107.5,-72 1127.93,-52.4 1192.46,-38.71 1248.75,-30.16"/>
<polygon fill="black" stroke="black" points="1249.4,-33.6 1258.78,-28.67 1248.38,-26.68 1249.4,-33.6"/>
</g>
<!-- cyclus -->
<g id="node3" class="node">
<title>cyclus</title>
<g id="a_node3"><a xlink:href="https://github.com/conda-forge/cyclus-feedstock/pull/56" xlink:title="cyclus">
<ellipse fill="#31688e" stroke="black" cx="40.5" cy="-90" rx="40.5" ry="18"/>
<text text-anchor="middle" x="40.5" y="-86.3" font-family="Times,serif" font-size="14.00" fill="white">cyclus</text>
</a>
</g>
</g>
<!-- cyclus&#45;&gt;conda&#45;forge&#45;pinning -->
<g id="edge2" class="edge">
<title>cyclus&#45;&gt;conda&#45;forge&#45;pinning</title>
<path fill="none" stroke="black" d="M70.99,-78.05C78.88,-75.64 87.42,-73.4 95.5,-72 311.45,-34.68 964.66,-23.25 1229.32,-20.09"/>
<polygon fill="black" stroke="black" points="1229.37,-23.59 1239.33,-19.97 1229.29,-16.59 1229.37,-23.59"/>
</g>
<!-- fenics -->
<g id="node4" class="node">
<title>fenics</title>
<g id="a_node4"><a xlink:href="https://github.com/conda-forge/fenics-feedstock/pull/107" xlink:title="fenics">
<ellipse fill="#31688e" stroke="black" cx="93.5" cy="-162" rx="40.5" ry="18"/>
<text text-anchor="middle" x="93.5" y="-158.3" font-family="Times,serif" font-size="14.00" fill="white">fenics</text>
</a>
</g>
</g>
<!-- fenics&#45;&gt;conda&#45;forge&#45;pinning -->
<g id="edge3" class="edge">
<title>fenics&#45;&gt;conda&#45;forge&#45;pinning</title>
<path fill="none" stroke="black" d="M98.55,-144.02C105.81,-122.96 121.4,-87.91 148.5,-72 194.65,-44.91 941.84,-27.06 1230.2,-21.15"/>
<polygon fill="black" stroke="black" points="1230.34,-24.65 1240.26,-20.95 1230.19,-17.65 1230.34,-24.65"/>
</g>
<!-- graph -->
<g id="node5" class="node">
<title>graph</title>
<g id="a_node5"><a xlink:href="https://github.com/conda-forge/graph-feedstock/pull/5" xlink:title="graph">
<ellipse fill="#31688e" stroke="black" cx="162.5" cy="-234" rx="35.19" ry="18"/>
<text text-anchor="middle" x="162.5" y="-230.3" font-family="Times,serif" font-size="14.00" fill="white">graph</text>
</a>
</g>
</g>
<!-- graph&#45;&gt;conda&#45;forge&#45;pinning -->
<g id="edge4" class="edge">
<title>graph&#45;&gt;conda&#45;forge&#45;pinning</title>
<path fill="none" stroke="black" d="M163.31,-215.96C164.81,-197.29 169.13,-166.95 181.5,-144 202.82,-104.44 211.47,-90.35 252.5,-72 339.81,-32.96 967.55,-22.53 1228.84,-19.87"/>
<polygon fill="black" stroke="black" points="1229.15,-23.37 1239.11,-19.77 1229.08,-16.37 1229.15,-23.37"/>
</g>
<!-- h5py -->
<g id="node6" class="node">
<title>h5py</title>
<g id="a_node6"><a xlink:href="https://github.com/conda-forge/h5py-feedstock/pull/72" xlink:title="h5py">
<ellipse fill="#31688e" stroke="black" cx="881.5" cy="-450" rx="30.59" ry="18"/>
<text text-anchor="middle" x="881.5" y="-446.3" font-family="Times,serif" font-size="14.00" fill="white">h5py</text>
</a>
</g>
</g>
<!-- h5py&#45;&gt;caffe -->
<g id="edge5" class="edge">
<title>h5py&#45;&gt;caffe</title>
<path fill="none" stroke="black" d="M907.22,-440.1C937.62,-429.57 989.75,-411.51 1034.5,-396 1038.07,-394.76 1041.79,-393.47 1045.51,-392.18"/>
<polygon fill="black" stroke="black" points="1046.96,-395.38 1055.26,-388.8 1044.66,-388.77 1046.96,-395.38"/>
</g>
<!-- h5py&#45;&gt;conda&#45;forge&#45;pinning -->
<g id="edge6" class="edge">
<title>h5py&#45;&gt;conda&#45;forge&#45;pinning</title>
<path fill="none" stroke="black" d="M911.73,-447.09C971.35,-442.61 1100.67,-429.23 1127.5,-396 1137.55,-383.55 1127.88,-376 1127.5,-360 1126.17,-304.4 1121.5,-290.62 1121.5,-235 1121.5,-235 1121.5,-235 1121.5,-161 1121.5,-114.5 1139.86,-100.63 1176.5,-72 1200.28,-53.42 1230.73,-41.28 1259.04,-33.37"/>
<polygon fill="black" stroke="black" points="1260.18,-36.69 1268.95,-30.75 1258.39,-29.92 1260.18,-36.69"/>
</g>
<!-- openmc -->
<g id="node7" class="node">
<title>openmc</title>
<g id="a_node7"><a xlink:href="https://github.com/conda-forge/openmc-feedstock" xlink:title="openmc">
<ellipse fill="#fde725" stroke="black" cx="1190.5" cy="-306" rx="40.5" ry="18"/>
<text text-anchor="middle" x="1190.5" y="-302.3" font-family="Times,serif" font-size="14.00">openmc</text>
</a>
</g>
</g>
<!-- h5py&#45;&gt;openmc -->
<g id="edge7" class="edge">
<title>h5py&#45;&gt;openmc</title>
<path fill="none" stroke="black" d="M911.82,-447.04C976.18,-442.31 1123.61,-428.14 1160.5,-396 1178.22,-380.57 1185.49,-354.31 1188.47,-334.3"/>
<polygon fill="black" stroke="black" points="1191.96,-334.57 1189.69,-324.22 1185.01,-333.72 1191.96,-334.57"/>
</g>
<!-- rsgislib -->
<g id="node8" class="node">
<title>rsgislib</title>
<g id="a_node8"><a xlink:href="https://github.com/conda-forge/rsgislib-feedstock" xlink:title="rsgislib">
<ellipse fill="#fde725" stroke="black" cx="1237.5" cy="-234" rx="50.09" ry="18"/>
<text text-anchor="middle" x="1237.5" y="-230.3" font-family="Times,serif" font-size="14.00">rsgislib</text>
</a>
</g>
</g>
<!-- h5py&#45;&gt;rsgislib -->
<g id="edge8" class="edge">
<title>h5py&#45;&gt;rsgislib</title>
<path fill="none" stroke="black" d="M911.71,-446.56C979.17,-440.68 1139.71,-424.07 1185.5,-396 1219.6,-375.09 1226.85,-361.95 1239.5,-324 1246.13,-304.11 1245.17,-280.32 1242.81,-262.34"/>
<polygon fill="black" stroke="black" points="1246.23,-261.59 1241.25,-252.24 1239.32,-262.66 1246.23,-261.59"/>
</g>
<!-- h5utils -->
<g id="node9" class="node">
<title>h5utils</title>
<g id="a_node9"><a xlink:href="https://github.com/conda-forge/h5utils-feedstock" xlink:title="h5utils">
<ellipse fill="#fde725" stroke="black" cx="235.5" cy="-162" rx="45" ry="18"/>
<text text-anchor="middle" x="235.5" y="-158.3" font-family="Times,serif" font-size="14.00">h5utils</text>
</a>
</g>
</g>
<!-- h5py&#45;&gt;h5utils -->
<g id="edge9" class="edge">
<title>h5py&#45;&gt;h5utils</title>
<path fill="none" stroke="black" d="M850.93,-448.28C736.4,-445.3 337.12,-432.36 294.5,-396 233.86,-344.25 230.87,-239.97 233.26,-190.39"/>
<polygon fill="black" stroke="black" points="236.77,-190.32 233.87,-180.13 229.78,-189.9 236.77,-190.32"/>
</g>
<!-- pymeep -->
<g id="node10" class="node">
<title>pymeep</title>
<g id="a_node10"><a xlink:href="https://github.com/conda-forge/pymeep-feedstock" xlink:title="pymeep">
<ellipse fill="#fde725" stroke="black" cx="336.5" cy="-90" rx="40.5" ry="18"/>
<text text-anchor="middle" x="336.5" y="-86.3" font-family="Times,serif" font-size="14.00">pymeep</text>
</a>
</g>
</g>
<!-- h5py&#45;&gt;pymeep -->
<g id="edge10" class="edge">
<title>h5py&#45;&gt;pymeep</title>
<path fill="none" stroke="black" d="M851.1,-448.07C732.64,-443.63 308.5,-419.87 308.5,-307 308.5,-307 308.5,-307 308.5,-233 308.5,-192.23 319.75,-146.09 327.99,-117.77"/>
<polygon fill="black" stroke="black" points="331.45,-118.42 330.97,-107.84 324.74,-116.41 331.45,-118.42"/>
</g>
<!-- blosc&#45;hdf5&#45;plugin -->
<g id="node11" class="node">
<title>blosc&#45;hdf5&#45;plugin</title>
<g id="a_node11"><a xlink:href="https://github.com/conda-forge/blosc-hdf5-plugin-feedstock" xlink:title="blosc hdf5 plugin">
<ellipse fill="#fde725" stroke="black" cx="502.5" cy="-162" rx="93.68" ry="18"/>
<text text-anchor="middle" x="502.5" y="-158.3" font-family="Times,serif" font-size="14.00">blosc hdf5 plugin</text>
</a>
</g>
</g>
<!-- h5py&#45;&gt;blosc&#45;hdf5&#45;plugin -->
<g id="edge11" class="edge">
<title>h5py&#45;&gt;blosc&#45;hdf5&#45;plugin</title>
<path fill="none" stroke="black" d="M851.35,-446.54C788.82,-440.89 647.75,-425.21 610.5,-396 543.33,-343.33 516.22,-239.12 506.82,-189.92"/>
<polygon fill="black" stroke="black" points="510.26,-189.24 505.03,-180.02 503.37,-190.49 510.26,-189.24"/>
</g>
<!-- isce2 -->
<g id="node12" class="node">
<title>isce2</title>
<g id="a_node12"><a xlink:href="https://github.com/conda-forge/isce2-feedstock" xlink:title="isce2">
<ellipse fill="#fde725" stroke="black" cx="524.5" cy="-90" rx="35.19" ry="18"/>
<text text-anchor="middle" x="524.5" y="-86.3" font-family="Times,serif" font-size="14.00">isce2</text>
</a>
</g>
</g>
<!-- h5py&#45;&gt;isce2 -->
<g id="edge12" class="edge">
<title>h5py&#45;&gt;isce2</title>
<path fill="none" stroke="black" d="M851.47,-446.31C794.18,-440.56 672.41,-425.16 643.5,-396 615.03,-367.27 624.5,-347.45 624.5,-307 624.5,-307 624.5,-307 624.5,-233 624.5,-192.55 628.37,-177.36 605.5,-144 594.38,-127.78 576.5,-115.31 560.36,-106.56"/>
<polygon fill="black" stroke="black" points="561.62,-103.27 551.13,-101.83 558.44,-109.5 561.62,-103.27"/>
</g>
<!-- bitshuffle -->
<g id="node13" class="node">
<title>bitshuffle</title>
<g id="a_node13"><a xlink:href="https://github.com/conda-forge/bitshuffle-feedstock" xlink:title="bitshuffle">
<ellipse fill="#fde725" stroke="black" cx="712.5" cy="-378" rx="60" ry="18"/>
<text text-anchor="middle" x="712.5" y="-374.3" font-family="Times,serif" font-size="14.00">bitshuffle</text>
</a>
</g>
</g>
<!-- h5py&#45;&gt;bitshuffle -->
<g id="edge13" class="edge">
<title>h5py&#45;&gt;bitshuffle</title>
<path fill="none" stroke="black" d="M857.29,-438.97C830.9,-428.04 788.15,-410.34 755.93,-396.99"/>
<polygon fill="black" stroke="black" points="756.88,-393.59 746.3,-393 754.2,-400.06 756.88,-393.59"/>
</g>
<!-- triqs -->
<g id="node14" class="node">
<title>triqs</title>
<g id="a_node14"><a xlink:href="https://github.com/conda-forge/triqs-feedstock" xlink:title="triqs">
<ellipse fill="#fde725" stroke="black" cx="725.5" cy="-162" rx="35.19" ry="18"/>
<text text-anchor="middle" x="725.5" y="-158.3" font-family="Times,serif" font-size="14.00">triqs</text>
</a>
</g>
</g>
<!-- h5py&#45;&gt;triqs -->
<g id="edge14" class="edge">
<title>h5py&#45;&gt;triqs</title>
<path fill="none" stroke="black" d="M865.23,-434.7C829.73,-403.43 748.18,-331.16 744.5,-324 722.56,-281.26 721.43,-223.93 723.11,-190.48"/>
<polygon fill="black" stroke="black" points="726.63,-190.3 723.77,-180.1 719.65,-189.86 726.63,-190.3"/>
</g>
<!-- hdf5plugin -->
<g id="node15" class="node">
<title>hdf5plugin</title>
<g id="a_node15"><a xlink:href="https://github.com/conda-forge/hdf5plugin-feedstock" xlink:title="hdf5plugin">
<ellipse fill="#fde725" stroke="black" cx="813.5" cy="-306" rx="60" ry="18"/>
<text text-anchor="middle" x="813.5" y="-302.3" font-family="Times,serif" font-size="14.00">hdf5plugin</text>
</a>
</g>
</g>
<!-- h5py&#45;&gt;hdf5plugin -->
<g id="edge15" class="edge">
<title>h5py&#45;&gt;hdf5plugin</title>
<path fill="none" stroke="black" d="M873.57,-432.43C861.86,-407.98 839.84,-362 825.96,-333.02"/>
<polygon fill="black" stroke="black" points="829.07,-331.41 821.59,-323.9 822.76,-334.43 829.07,-331.41"/>
</g>
<!-- prismatic_split -->
<g id="node16" class="node">
<title>prismatic_split</title>
<g id="a_node16"><a xlink:href="https://github.com/conda-forge/prismatic_split-feedstock" xlink:title="prismatic_split">
<ellipse fill="#fde725" stroke="black" cx="875.5" cy="-234" rx="84" ry="18"/>
<text text-anchor="middle" x="875.5" y="-230.3" font-family="Times,serif" font-size="14.00">prismatic_split</text>
</a>
</g>
</g>
<!-- h5py&#45;&gt;prismatic_split -->
<g id="edge16" class="edge">
<title>h5py&#45;&gt;prismatic_split</title>
<path fill="none" stroke="black" d="M882.43,-431.58C883.82,-402.02 885.93,-340.16 882.5,-288 881.94,-279.53 880.89,-270.36 879.77,-262.06"/>
<polygon fill="black" stroke="black" points="883.23,-261.53 878.34,-252.13 876.3,-262.53 883.23,-261.53"/>
</g>
<!-- digital_rf -->
<g id="node17" class="node">
<title>digital_rf</title>
<g id="a_node17"><a xlink:href="https://github.com/conda-forge/digital_rf-feedstock" xlink:title="digital_rf">
<ellipse fill="#fde725" stroke="black" cx="937.5" cy="-162" rx="60" ry="18"/>
<text text-anchor="middle" x="937.5" y="-158.3" font-family="Times,serif" font-size="14.00">digital_rf</text>
</a>
</g>
</g>
<!-- h5py&#45;&gt;digital_rf -->
<g id="edge17" class="edge">
<title>h5py&#45;&gt;digital_rf</title>
<path fill="none" stroke="black" d="M891.4,-432.93C910.85,-400.3 953.45,-323.34 968.5,-252 971.8,-236.34 972.68,-231.44 968.5,-216 965.88,-206.33 961,-196.61 955.88,-188.19"/>
<polygon fill="black" stroke="black" points="958.7,-186.11 950.32,-179.62 952.83,-189.92 958.7,-186.11"/>
</g>
<!-- pp&#45;sketchlib -->
<g id="node18" class="node">
<title>pp&#45;sketchlib</title>
<g id="a_node18"><a xlink:href="https://github.com/conda-forge/pp-sketchlib-feedstock" xlink:title="pp sketchlib">
<ellipse fill="#fde725" stroke="black" cx="985.5" cy="-90" rx="69.59" ry="18"/>
<text text-anchor="middle" x="985.5" y="-86.3" font-family="Times,serif" font-size="14.00">pp sketchlib</text>
</a>
</g>
</g>
<!-- h5py&#45;&gt;pp&#45;sketchlib -->
<g id="edge18" class="edge">
<title>h5py&#45;&gt;pp&#45;sketchlib</title>
<path fill="none" stroke="black" d="M898.81,-435.13C910.36,-425.19 925.25,-410.95 935.5,-396 992.61,-312.63 992.85,-280.13 1006.5,-180 1008.66,-164.15 1009.5,-159.72 1006.5,-144 1004.79,-135.06 1001.6,-125.7 998.21,-117.37"/>
<polygon fill="black" stroke="black" points="1001.41,-115.95 994.22,-108.17 994.99,-118.73 1001.41,-115.95"/>
</g>
<!-- openmc&#45;&gt;conda&#45;forge&#45;pinning -->
<g id="edge19" class="edge">
<title>openmc&#45;&gt;conda&#45;forge&#45;pinning</title>
<path fill="none" stroke="black" d="M1185.12,-288C1172.98,-245.99 1148.4,-136.09 1200.5,-72 1215.32,-53.77 1237.08,-41.81 1259.13,-33.96"/>
<polygon fill="black" stroke="black" points="1260.51,-37.19 1268.91,-30.74 1258.32,-30.54 1260.51,-37.19"/>
</g>
<!-- rsgislib&#45;&gt;conda&#45;forge&#45;pinning -->
<g id="edge20" class="edge">
<title>rsgislib&#45;&gt;conda&#45;forge&#45;pinning</title>
<path fill="none" stroke="black" d="M1228.36,-215.81C1213.06,-184.4 1186.71,-116.85 1216.5,-72 1227.95,-54.76 1246.23,-43.11 1265.35,-35.25"/>
<polygon fill="black" stroke="black" points="1266.66,-38.5 1274.78,-31.69 1264.19,-31.95 1266.66,-38.5"/>
</g>
<!-- h5utils&#45;&gt;conda&#45;forge&#45;pinning -->
<g id="edge21" class="edge">
<title>h5utils&#45;&gt;conda&#45;forge&#45;pinning</title>
<path fill="none" stroke="black" d="M239.83,-144.08C246.18,-123.09 260.24,-88.11 286.5,-72 365.2,-23.72 972.41,-18.59 1228.82,-18.61"/>
<polygon fill="black" stroke="black" points="1228.91,-22.11 1238.91,-18.61 1228.91,-15.11 1228.91,-22.11"/>
</g>
<!-- h5utils&#45;&gt;pymeep -->
<g id="edge22" class="edge">
<title>h5utils&#45;&gt;pymeep</title>
<path fill="none" stroke="black" d="M256.92,-146.15C271.48,-136.06 290.93,-122.58 306.96,-111.47"/>
<polygon fill="black" stroke="black" points="309.23,-114.16 315.46,-105.58 305.24,-108.4 309.23,-114.16"/>
</g>
<!-- pymeep&#45;&gt;conda&#45;forge&#45;pinning -->
<g id="edge23" class="edge">
<title>pymeep&#45;&gt;conda&#45;forge&#45;pinning</title>
<path fill="none" stroke="black" d="M369.3,-79.34C380.1,-76.52 392.23,-73.73 403.5,-72 698.75,-26.64 1051.57,-19.05 1228.88,-18.4"/>
<polygon fill="black" stroke="black" points="1229.02,-21.9 1239.01,-18.37 1229,-14.9 1229.02,-21.9"/>
</g>
<!-- blosc&#45;hdf5&#45;plugin&#45;&gt;conda&#45;forge&#45;pinning -->
<g id="edge24" class="edge">
<title>blosc&#45;hdf5&#45;plugin&#45;&gt;conda&#45;forge&#45;pinning</title>
<path fill="none" stroke="black" d="M490.22,-143.94C477.56,-124.11 462.07,-91.6 480.5,-72 505.81,-45.09 1003.1,-28.2 1230.61,-21.85"/>
<polygon fill="black" stroke="black" points="1231.01,-25.34 1240.91,-21.57 1230.81,-18.35 1231.01,-25.34"/>
</g>
<!-- isce2&#45;&gt;conda&#45;forge&#45;pinning -->
<g id="edge25" class="edge">
<title>isce2&#45;&gt;conda&#45;forge&#45;pinning</title>
<path fill="none" stroke="black" d="M551.36,-78.25C558.45,-75.81 566.18,-73.49 573.5,-72 696.15,-46.96 1050.25,-30.21 1231.99,-23.01"/>
<polygon fill="black" stroke="black" points="1232.26,-26.5 1242.11,-22.61 1231.98,-19.51 1232.26,-26.5"/>
</g>
<!-- bitshuffle&#45;&gt;conda&#45;forge&#45;pinning -->
<g id="edge26" class="edge">
<title>bitshuffle&#45;&gt;conda&#45;forge&#45;pinning</title>
<path fill="none" stroke="black" d="M706.37,-359.86C684.72,-298.71 614.29,-93.78 634.5,-72 674.01,-29.42 1039.21,-20.81 1229.04,-19.23"/>
<polygon fill="black" stroke="black" points="1229.08,-22.73 1239.06,-19.15 1229.03,-15.73 1229.08,-22.73"/>
</g>
<!-- triqs&#45;&gt;conda&#45;forge&#45;pinning -->
<g id="edge27" class="edge">
<title>triqs&#45;&gt;conda&#45;forge&#45;pinning</title>
<path fill="none" stroke="black" d="M697.57,-150.96C678.87,-142.61 655.69,-128.7 644.5,-108 636.89,-93.93 633.62,-83.73 644.5,-72 683.31,-30.13 1041.25,-21.17 1228.89,-19.37"/>
<polygon fill="black" stroke="black" points="1229.1,-22.87 1239.07,-19.27 1229.04,-15.87 1229.1,-22.87"/>
</g>
<!-- triqs_cthyb -->
<g id="node19" class="node">
<title>triqs_cthyb</title>
<g id="a_node19"><a xlink:href="https://github.com/conda-forge/triqs_cthyb-feedstock" xlink:title="triqs_cthyb">
<ellipse fill="#fde725" stroke="black" cx="718.5" cy="-90" rx="64.5" ry="18"/>
<text text-anchor="middle" x="718.5" y="-86.3" font-family="Times,serif" font-size="14.00">triqs_cthyb</text>
</a>
</g>
</g>
<!-- triqs&#45;&gt;triqs_cthyb -->
<g id="edge28" class="edge">
<title>triqs&#45;&gt;triqs_cthyb</title>
<path fill="none" stroke="black" d="M723.77,-143.7C723,-135.98 722.07,-126.71 721.21,-118.11"/>
<polygon fill="black" stroke="black" points="724.69,-117.71 720.21,-108.1 717.72,-118.4 724.69,-117.71"/>
</g>
<!-- hdf5plugin&#45;&gt;conda&#45;forge&#45;pinning -->
<g id="edge29" class="edge">
<title>hdf5plugin&#45;&gt;conda&#45;forge&#45;pinning</title>
<path fill="none" stroke="black" d="M800.68,-288.38C793.82,-278.42 786.07,-265.17 782.5,-252 778.32,-236.56 778.24,-231.42 782.5,-216 802.33,-144.14 805.82,-112.35 868.5,-72 926.32,-34.79 1108.62,-23.55 1229.54,-20.25"/>
<polygon fill="black" stroke="black" points="1229.69,-23.75 1239.59,-19.99 1229.51,-16.75 1229.69,-23.75"/>
</g>
<!-- prismatic_split&#45;&gt;conda&#45;forge&#45;pinning -->
<g id="edge30" class="edge">
<title>prismatic_split&#45;&gt;conda&#45;forge&#45;pinning</title>
<path fill="none" stroke="black" d="M871.06,-215.97C863.36,-181.95 852.17,-105.98 895.5,-72 945.72,-32.62 1113.79,-21.92 1228.91,-19.33"/>
<polygon fill="black" stroke="black" points="1229.26,-22.82 1239.18,-19.11 1229.11,-15.82 1229.26,-22.82"/>
</g>
<!-- digital_rf&#45;&gt;conda&#45;forge&#45;pinning -->
<g id="edge31" class="edge">
<title>digital_rf&#45;&gt;conda&#45;forge&#45;pinning</title>
<path fill="none" stroke="black" d="M922.84,-144.32C907.55,-124.86 888.17,-92.7 906.5,-72 927.97,-47.76 1112.88,-32.36 1234.9,-24.73"/>
<polygon fill="black" stroke="black" points="1235.27,-28.22 1245.04,-24.11 1234.84,-21.23 1235.27,-28.22"/>
</g>
<!-- pp&#45;sketchlib&#45;&gt;conda&#45;forge&#45;pinning -->
<g id="edge32" class="edge">
<title>pp&#45;sketchlib&#45;&gt;conda&#45;forge&#45;pinning</title>
<path fill="none" stroke="black" d="M1038.36,-78.24C1048.69,-76.15 1059.43,-74 1069.5,-72 1135.71,-58.87 1211.02,-44.28 1265.74,-33.73"/>
<polygon fill="black" stroke="black" points="1266.56,-37.14 1275.72,-31.81 1265.23,-30.27 1266.56,-37.14"/>
</g>
<!-- triqs_cthyb&#45;&gt;conda&#45;forge&#45;pinning -->
<g id="edge59" class="edge">
<title>triqs_cthyb&#45;&gt;conda&#45;forge&#45;pinning</title>
<path fill="none" stroke="black" d="M766.38,-77.77C776.61,-75.63 787.38,-73.58 797.5,-72 949.16,-48.39 1126.31,-33.48 1236.47,-25.68"/>
<polygon fill="black" stroke="black" points="1236.85,-29.17 1246.58,-24.98 1236.36,-22.18 1236.85,-29.17"/>
</g>
<!-- hdfeos5 -->
<g id="node20" class="node">
<title>hdfeos5</title>
<g id="a_node20"><a xlink:href="https://github.com/conda-forge/hdfeos5-feedstock/pull/27" xlink:title="hdfeos5">
<ellipse fill="#31688e" stroke="black" cx="1350.5" cy="-234" rx="45" ry="18"/>
<text text-anchor="middle" x="1350.5" y="-230.3" font-family="Times,serif" font-size="14.00" fill="white">hdfeos5</text>
</a>
</g>
</g>
<!-- hdfeos5&#45;&gt;conda&#45;forge&#45;pinning -->
<g id="edge33" class="edge">
<title>hdfeos5&#45;&gt;conda&#45;forge&#45;pinning</title>
<path fill="none" stroke="black" d="M1337.27,-216.44C1330.19,-206.5 1322.19,-193.25 1318.5,-180 1305.64,-133.82 1320.36,-78.14 1331.76,-45.84"/>
<polygon fill="black" stroke="black" points="1335.13,-46.8 1335.3,-36.21 1328.56,-44.39 1335.13,-46.8"/>
</g>
<!-- ncl -->
<g id="node21" class="node">
<title>ncl</title>
<g id="a_node21"><a xlink:href="https://github.com/conda-forge/ncl-feedstock" xlink:title="ncl">
<ellipse fill="#fde725" stroke="black" cx="1354.5" cy="-162" rx="27" ry="18"/>
<text text-anchor="middle" x="1354.5" y="-158.3" font-family="Times,serif" font-size="14.00">ncl</text>
</a>
</g>
</g>
<!-- hdfeos5&#45;&gt;ncl -->
<g id="edge34" class="edge">
<title>hdfeos5&#45;&gt;ncl</title>
<path fill="none" stroke="black" d="M1351.49,-215.7C1351.93,-207.98 1352.46,-198.71 1352.95,-190.11"/>
<polygon fill="black" stroke="black" points="1356.45,-190.29 1353.52,-180.1 1349.46,-189.89 1356.45,-190.29"/>
</g>
<!-- pynio -->
<g id="node22" class="node">
<title>pynio</title>
<g id="a_node22"><a xlink:href="https://github.com/conda-forge/pynio-feedstock" xlink:title="pynio">
<ellipse fill="#fde725" stroke="black" cx="1260.5" cy="-90" rx="35.19" ry="18"/>
<text text-anchor="middle" x="1260.5" y="-86.3" font-family="Times,serif" font-size="14.00">pynio</text>
</a>
</g>
</g>
<!-- hdfeos5&#45;&gt;pynio -->
<g id="edge35" class="edge">
<title>hdfeos5&#45;&gt;pynio</title>
<path fill="none" stroke="black" d="M1326.3,-218.63C1312.48,-209.25 1295.88,-195.83 1285.5,-180 1273.23,-161.29 1266.91,-136.56 1263.7,-117.92"/>
<polygon fill="black" stroke="black" points="1267.15,-117.36 1262.18,-108 1260.24,-118.42 1267.15,-117.36"/>
</g>
<!-- ncl&#45;&gt;conda&#45;forge&#45;pinning -->
<g id="edge36" class="edge">
<title>ncl&#45;&gt;conda&#45;forge&#45;pinning</title>
<path fill="none" stroke="black" d="M1353.05,-143.87C1351.01,-119.67 1347.25,-75.21 1344.81,-46.39"/>
<polygon fill="black" stroke="black" points="1348.28,-45.86 1343.95,-36.19 1341.31,-46.45 1348.28,-45.86"/>
</g>
<!-- pynio&#45;&gt;conda&#45;forge&#45;pinning -->
<g id="edge37" class="edge">
<title>pynio&#45;&gt;conda&#45;forge&#45;pinning</title>
<path fill="none" stroke="black" d="M1277.89,-74.15C1288.69,-64.94 1302.8,-52.89 1315.08,-42.41"/>
<polygon fill="black" stroke="black" points="1317.5,-44.94 1322.83,-35.79 1312.95,-39.62 1317.5,-44.94"/>
</g>
<!-- hyperion&#45;fortran -->
<g id="node23" class="node">
<title>hyperion&#45;fortran</title>
<g id="a_node23"><a xlink:href="https://github.com/conda-forge/hyperion-fortran-feedstock/pull/18" xlink:title="hyperion fortran">
<ellipse fill="#31688e" stroke="black" cx="1376.5" cy="-306" rx="89.08" ry="18"/>
<text text-anchor="middle" x="1376.5" y="-302.3" font-family="Times,serif" font-size="14.00" fill="white">hyperion fortran</text>
</a>
</g>
</g>
<!-- hyperion&#45;fortran&#45;&gt;conda&#45;forge&#45;pinning -->
<g id="edge38" class="edge">
<title>hyperion&#45;fortran&#45;&gt;conda&#45;forge&#45;pinning</title>
<path fill="none" stroke="black" d="M1388.39,-287.72C1394.51,-277.76 1401.34,-264.73 1404.5,-252 1408.35,-236.47 1406.03,-231.93 1404.5,-216 1401.37,-183.55 1399.49,-175.34 1390.5,-144 1380.53,-109.24 1364.95,-70.57 1354.26,-45.57"/>
<polygon fill="black" stroke="black" points="1357.33,-43.85 1350.15,-36.07 1350.91,-46.63 1357.33,-43.85"/>
</g>
<!-- octave -->
<g id="node24" class="node">
<title>octave</title>
<g id="a_node24"><a xlink:href="https://github.com/conda-forge/octave-feedstock/pull/39" xlink:title="octave">
<ellipse fill="#31688e" stroke="black" cx="1493.5" cy="-378" rx="40.5" ry="18"/>
<text text-anchor="middle" x="1493.5" y="-374.3" font-family="Times,serif" font-size="14.00" fill="white">octave</text>
</a>
</g>
</g>
<!-- octave&#45;&gt;conda&#45;forge&#45;pinning -->
<g id="edge39" class="edge">
<title>octave&#45;&gt;conda&#45;forge&#45;pinning</title>
<path fill="none" stroke="black" d="M1490.74,-359.71C1487.64,-341.6 1482.03,-312.46 1474.5,-288 1444,-188.93 1439.79,-160.92 1386.5,-72 1380.63,-62.21 1373.02,-52.34 1365.78,-43.83"/>
<polygon fill="black" stroke="black" points="1368.25,-41.33 1359.02,-36.12 1362.98,-45.95 1368.25,-41.33"/>
</g>
<!-- pyne -->
<g id="node25" class="node">
<title>pyne</title>
<g id="a_node25"><a xlink:href="https://github.com/conda-forge/pyne-feedstock/pull/40" xlink:title="pyne">
<ellipse fill="#31688e" stroke="black" cx="1496.5" cy="-90" rx="30.59" ry="18"/>
<text text-anchor="middle" x="1496.5" y="-86.3" font-family="Times,serif" font-size="14.00" fill="white">pyne</text>
</a>
</g>
</g>
<!-- pyne&#45;&gt;conda&#45;forge&#45;pinning -->
<g id="edge40" class="edge">
<title>pyne&#45;&gt;conda&#45;forge&#45;pinning</title>
<path fill="none" stroke="black" d="M1473.11,-78.37C1450.28,-67.99 1414.97,-51.94 1386.81,-39.14"/>
<polygon fill="black" stroke="black" points="1388.12,-35.89 1377.57,-34.94 1385.22,-42.26 1388.12,-35.89"/>
</g>
<!-- r&#45;hdf5r -->
<g id="node26" class="node">
<title>r&#45;hdf5r</title>
<g id="a_node26"><a xlink:href="https://github.com/conda-forge/r-hdf5r-feedstock/pull/12" xlink:title="r hdf5r">
<ellipse fill="#31688e" stroke="black" cx="1520.5" cy="-162" rx="45" ry="18"/>
<text text-anchor="middle" x="1520.5" y="-158.3" font-family="Times,serif" font-size="14.00" fill="white">r hdf5r</text>
</a>
</g>
</g>
<!-- r&#45;hdf5r&#45;&gt;conda&#45;forge&#45;pinning -->
<g id="edge41" class="edge">
<title>r&#45;hdf5r&#45;&gt;conda&#45;forge&#45;pinning</title>
<path fill="none" stroke="black" d="M1530.55,-144.11C1540.61,-124.74 1552.5,-92.96 1536.5,-72 1522.88,-54.16 1474.01,-40.87 1428.73,-32.06"/>
<polygon fill="black" stroke="black" points="1429.31,-28.61 1418.84,-30.2 1428.02,-35.49 1429.31,-28.61"/>
</g>
<!-- r&#45;ncdf4 -->
<g id="node27" class="node">
<title>r&#45;ncdf4</title>
<g id="a_node27"><a xlink:href="https://github.com/conda-forge/r-ncdf4-feedstock/pull/20" xlink:title="r ncdf4">
<ellipse fill="#31688e" stroke="black" cx="1558.5" cy="-234" rx="45" ry="18"/>
<text text-anchor="middle" x="1558.5" y="-230.3" font-family="Times,serif" font-size="14.00" fill="white">r ncdf4</text>
</a>
</g>
</g>
<!-- r&#45;ncdf4&#45;&gt;conda&#45;forge&#45;pinning -->
<g id="edge42" class="edge">
<title>r&#45;ncdf4&#45;&gt;conda&#45;forge&#45;pinning</title>
<path fill="none" stroke="black" d="M1564.99,-216.1C1568.58,-205.84 1572.67,-192.36 1574.5,-180 1581.63,-131.71 1589.46,-106.07 1554.5,-72 1536.45,-54.41 1480.01,-40.8 1429.9,-31.78"/>
<polygon fill="black" stroke="black" points="1430.43,-28.32 1419.98,-30.03 1429.22,-35.21 1430.43,-28.32"/>
</g>
<!-- shogun -->
<g id="node28" class="node">
<title>shogun</title>
<g id="a_node28"><a xlink:href="https://github.com/conda-forge/shogun-feedstock/pull/20" xlink:title="shogun">
<ellipse fill="#31688e" stroke="black" cx="1600.5" cy="-306" rx="40.5" ry="18"/>
<text text-anchor="middle" x="1600.5" y="-302.3" font-family="Times,serif" font-size="14.00" fill="white">shogun</text>
</a>
</g>
</g>
<!-- shogun&#45;&gt;conda&#45;forge&#45;pinning -->
<g id="edge43" class="edge">
<title>shogun&#45;&gt;conda&#45;forge&#45;pinning</title>
<path fill="none" stroke="black" d="M1605.44,-287.95C1616.77,-244.87 1639.34,-130.87 1580.5,-72 1560.24,-51.74 1494.86,-38.08 1437.74,-29.71"/>
<polygon fill="black" stroke="black" points="1437.94,-26.21 1427.55,-28.26 1436.96,-33.14 1437.94,-26.21"/>
</g>
<!-- vigra -->
<g id="node29" class="node">
<title>vigra</title>
<g id="a_node29"><a xlink:href="https://github.com/conda-forge/vigra-feedstock/pull/54" xlink:title="vigra">
<ellipse fill="#31688e" stroke="black" cx="1669.5" cy="-378" rx="35.19" ry="18"/>
<text text-anchor="middle" x="1669.5" y="-374.3" font-family="Times,serif" font-size="14.00" fill="white">vigra</text>
</a>
</g>
</g>
<!-- vigra&#45;&gt;conda&#45;forge&#45;pinning -->
<g id="edge44" class="edge">
<title>vigra&#45;&gt;conda&#45;forge&#45;pinning</title>
<path fill="none" stroke="black" d="M1669.5,-359.95C1669.5,-333.29 1669.5,-280.11 1669.5,-235 1669.5,-235 1669.5,-235 1669.5,-161 1669.5,-64.61 1548.48,-32.94 1453.68,-22.93"/>
<polygon fill="black" stroke="black" points="1454.02,-19.44 1443.73,-21.94 1453.33,-26.41 1454.02,-19.44"/>
</g>
<!-- yaafe -->
<g id="node30" class="node">
<title>yaafe</title>
<g id="a_node30"><a xlink:href="https://github.com/conda-forge/yaafe-feedstock/pull/9" xlink:title="yaafe">
<ellipse fill="#31688e" stroke="black" cx="1732.5" cy="-90" rx="35.19" ry="18"/>
<text text-anchor="middle" x="1732.5" y="-86.3" font-family="Times,serif" font-size="14.00" fill="white">yaafe</text>
</a>
</g>
</g>
<!-- yaafe&#45;&gt;conda&#45;forge&#45;pinning -->
<g id="edge45" class="edge">
<title>yaafe&#45;&gt;conda&#45;forge&#45;pinning</title>
<path fill="none" stroke="black" d="M1705.29,-78.59C1698.27,-76.17 1690.66,-73.78 1683.5,-72 1601.91,-51.68 1507.29,-37.71 1438.45,-29.24"/>
<polygon fill="black" stroke="black" points="1438.83,-25.76 1428.48,-28.03 1437.99,-32.71 1438.83,-25.76"/>
</g>
<!-- alps -->
<g id="node31" class="node">
<title>alps</title>
<g id="a_node31"><a xlink:href="https://github.com/conda-forge/alps-feedstock/pull/31" xlink:title="alps">
<ellipse fill="#31688e" stroke="black" cx="1774.5" cy="-162" rx="30.59" ry="18"/>
<text text-anchor="middle" x="1774.5" y="-158.3" font-family="Times,serif" font-size="14.00" fill="white">alps</text>
</a>
</g>
</g>
<!-- alps&#45;&gt;conda&#45;forge&#45;pinning -->
<g id="edge46" class="edge">
<title>alps&#45;&gt;conda&#45;forge&#45;pinning</title>
<path fill="none" stroke="black" d="M1780.92,-144.28C1787.32,-124.46 1793.92,-91.67 1776.5,-72 1755.15,-47.88 1571.34,-32.45 1449.87,-24.78"/>
<polygon fill="black" stroke="black" points="1449.98,-21.28 1439.78,-24.16 1449.54,-28.27 1449.98,-21.28"/>
</g>
<!-- spdlib -->
<g id="node32" class="node">
<title>spdlib</title>
<g id="a_node32"><a xlink:href="https://github.com/conda-forge/spdlib-feedstock/pull/15" xlink:title="spdlib">
<ellipse fill="#31688e" stroke="black" cx="1833.5" cy="-234" rx="40.5" ry="18"/>
<text text-anchor="middle" x="1833.5" y="-230.3" font-family="Times,serif" font-size="14.00" fill="white">spdlib</text>
</a>
</g>
</g>
<!-- spdlib&#45;&gt;conda&#45;forge&#45;pinning -->
<g id="edge47" class="edge">
<title>spdlib&#45;&gt;conda&#45;forge&#45;pinning</title>
<path fill="none" stroke="black" d="M1835.37,-215.96C1837.99,-182.63 1838.4,-108.82 1796.5,-72 1770.91,-49.51 1575.36,-33.34 1449.39,-25.14"/>
<polygon fill="black" stroke="black" points="1449.52,-21.64 1439.31,-24.49 1449.07,-28.62 1449.52,-21.64"/>
</g>
<!-- mpb -->
<g id="node33" class="node">
<title>mpb</title>
<g id="a_node33"><a xlink:href="https://github.com/conda-forge/mpb-feedstock/pull/22" xlink:title="mpb">
<ellipse fill="#31688e" stroke="black" cx="363.5" cy="-162" rx="27" ry="18"/>
<text text-anchor="middle" x="363.5" y="-158.3" font-family="Times,serif" font-size="14.00" fill="white">mpb</text>
</a>
</g>
</g>
<!-- mpb&#45;&gt;conda&#45;forge&#45;pinning -->
<g id="edge48" class="edge">
<title>mpb&#45;&gt;conda&#45;forge&#45;pinning</title>
<path fill="none" stroke="black" d="M375.81,-145.66C393.68,-124.69 429.03,-87.85 468.5,-72 537.45,-44.31 1010.9,-28 1230.76,-21.84"/>
<polygon fill="black" stroke="black" points="1231.13,-25.33 1241.03,-21.55 1230.94,-18.33 1231.13,-25.33"/>
</g>
<!-- mpb&#45;&gt;pymeep -->
<g id="edge49" class="edge">
<title>mpb&#45;&gt;pymeep</title>
<path fill="none" stroke="black" d="M357.1,-144.41C353.99,-136.34 350.17,-126.43 346.67,-117.35"/>
<polygon fill="black" stroke="black" points="349.9,-116.03 343.04,-107.96 343.37,-118.55 349.9,-116.03"/>
</g>
<!-- openpmd&#45;api -->
<g id="node34" class="node">
<title>openpmd&#45;api</title>
<g id="a_node34"><a xlink:href="https://github.com/conda-forge/openpmd-api-feedstock" xlink:title="openpmd api">
<ellipse fill="#fde725" stroke="black" cx="1964.5" cy="-90" rx="64.5" ry="18"/>
<text text-anchor="middle" x="1964.5" y="-86.3" font-family="Times,serif" font-size="14.00">openpmd api</text>
</a>
</g>
</g>
<!-- openpmd&#45;api&#45;&gt;conda&#45;forge&#45;pinning -->
<g id="edge50" class="edge">
<title>openpmd&#45;api&#45;&gt;conda&#45;forge&#45;pinning</title>
<path fill="none" stroke="black" d="M1916.62,-77.78C1906.39,-75.64 1895.62,-73.58 1885.5,-72 1734.39,-48.45 1557.9,-33.52 1448.14,-25.71"/>
<polygon fill="black" stroke="black" points="1448.28,-22.21 1438.06,-25 1447.79,-29.19 1448.28,-22.21"/>
</g>
<!-- cmor -->
<g id="node35" class="node">
<title>cmor</title>
<g id="a_node35"><a xlink:href="https://github.com/conda-forge/cmor-feedstock/pull/23" xlink:title="cmor">
<ellipse fill="#31688e" stroke="black" cx="2036.5" cy="-306" rx="30.59" ry="18"/>
<text text-anchor="middle" x="2036.5" y="-302.3" font-family="Times,serif" font-size="14.00" fill="white">cmor</text>
</a>
</g>
</g>
<!-- cmor&#45;&gt;conda&#45;forge&#45;pinning -->
<g id="edge51" class="edge">
<title>cmor&#45;&gt;conda&#45;forge&#45;pinning</title>
<path fill="none" stroke="black" d="M2043.31,-288.18C2059.32,-245.65 2093.86,-132.83 2037.5,-72 1998.88,-30.33 1642.92,-21.27 1455.99,-19.41"/>
<polygon fill="black" stroke="black" points="1455.88,-15.91 1445.85,-19.31 1455.81,-22.91 1455.88,-15.91"/>
</g>
<!-- freecad -->
<g id="node36" class="node">
<title>freecad</title>
<g id="a_node36"><a xlink:href="https://github.com/conda-forge/freecad-feedstock/pull/38" xlink:title="freecad">
<ellipse fill="#31688e" stroke="black" cx="2095.5" cy="-378" rx="45" ry="18"/>
<text text-anchor="middle" x="2095.5" y="-374.3" font-family="Times,serif" font-size="14.00" fill="white">freecad</text>
</a>
</g>
</g>
<!-- freecad&#45;&gt;conda&#45;forge&#45;pinning -->
<g id="edge52" class="edge">
<title>freecad&#45;&gt;conda&#45;forge&#45;pinning</title>
<path fill="none" stroke="black" d="M2095.5,-359.95C2095.5,-333.29 2095.5,-280.11 2095.5,-235 2095.5,-235 2095.5,-235 2095.5,-161 2095.5,-118.81 2096.22,-97.35 2062.5,-72 2015.19,-36.44 1645.78,-24.5 1455.3,-20.69"/>
<polygon fill="black" stroke="black" points="1455.32,-17.19 1445.25,-20.49 1455.18,-24.18 1455.32,-17.19"/>
</g>
<!-- openmeeg -->
<g id="node37" class="node">
<title>openmeeg</title>
<g id="a_node37"><a xlink:href="https://github.com/conda-forge/openmeeg-feedstock" xlink:title="openmeeg">
<ellipse fill="#35b779" stroke="black" cx="2173.5" cy="-90" rx="50.09" ry="18"/>
<text text-anchor="middle" x="2173.5" y="-86.3" font-family="Times,serif" font-size="14.00">openmeeg</text>
</a>
</g>
</g>
<!-- openmeeg&#45;&gt;conda&#45;forge&#45;pinning -->
<g id="edge53" class="edge">
<title>openmeeg&#45;&gt;conda&#45;forge&#45;pinning</title>
<path fill="none" stroke="black" d="M2136.2,-77.81C2127.5,-75.56 2118.23,-73.45 2109.5,-72 1879.41,-33.85 1606.08,-23.09 1455.74,-20.1"/>
<polygon fill="black" stroke="black" points="1455.64,-16.6 1445.57,-19.9 1455.51,-23.59 1455.64,-16.6"/>
</g>
<!-- scilab -->
<g id="node38" class="node">
<title>scilab</title>
<g id="a_node38"><a xlink:href="https://github.com/conda-forge/scilab-feedstock/pull/12" xlink:title="scilab">
<ellipse fill="#31688e" stroke="black" cx="2220.5" cy="-162" rx="40.5" ry="18"/>
<text text-anchor="middle" x="2220.5" y="-158.3" font-family="Times,serif" font-size="14.00" fill="white">scilab</text>
</a>
</g>
</g>
<!-- scilab&#45;&gt;conda&#45;forge&#45;pinning -->
<g id="edge54" class="edge">
<title>scilab&#45;&gt;conda&#45;forge&#45;pinning</title>
<path fill="none" stroke="black" d="M2229.81,-144.15C2239.42,-124.21 2250.68,-91.29 2232.5,-72 2206.22,-44.11 1687.9,-27.65 1454.61,-21.63"/>
<polygon fill="black" stroke="black" points="1454.48,-18.13 1444.4,-21.37 1454.3,-25.12 1454.48,-18.13"/>
</g>
<!-- adios2 -->
<g id="node39" class="node">
<title>adios2</title>
<g id="a_node39"><a xlink:href="https://github.com/conda-forge/adios2-feedstock/pull/11" xlink:title="adios2">
<ellipse fill="#31688e" stroke="black" cx="1933.5" cy="-162" rx="40.5" ry="18"/>
<text text-anchor="middle" x="1933.5" y="-158.3" font-family="Times,serif" font-size="14.00" fill="white">adios2</text>
</a>
</g>
</g>
<!-- adios2&#45;&gt;conda&#45;forge&#45;pinning -->
<g id="edge55" class="edge">
<title>adios2&#45;&gt;conda&#45;forge&#45;pinning</title>
<path fill="none" stroke="black" d="M1920.18,-144.75C1900.73,-121.48 1864.98,-80.52 1847.5,-72 1780.47,-39.33 1581.51,-26.69 1454.25,-21.88"/>
<polygon fill="black" stroke="black" points="1454.19,-18.38 1444.07,-21.51 1453.94,-25.37 1454.19,-18.38"/>
</g>
<!-- adios2&#45;&gt;openpmd&#45;api -->
<g id="edge56" class="edge">
<title>adios2&#45;&gt;openpmd&#45;api</title>
<path fill="none" stroke="black" d="M1941,-144.05C1944.53,-136.09 1948.82,-126.41 1952.76,-117.51"/>
<polygon fill="black" stroke="black" points="1956,-118.84 1956.85,-108.28 1949.6,-116 1956,-118.84"/>
</g>
<!-- bonsu -->
<g id="node40" class="node">
<title>bonsu</title>
<g id="a_node40"><a xlink:href="https://github.com/conda-forge/bonsu-feedstock/pull/5" xlink:title="bonsu">
<ellipse fill="#31688e" stroke="black" cx="2264.5" cy="-234" rx="35.19" ry="18"/>
<text text-anchor="middle" x="2264.5" y="-230.3" font-family="Times,serif" font-size="14.00" fill="white">bonsu</text>
</a>
</g>
</g>
<!-- bonsu&#45;&gt;conda&#45;forge&#45;pinning -->
<g id="edge57" class="edge">
<title>bonsu&#45;&gt;conda&#45;forge&#45;pinning</title>
<path fill="none" stroke="black" d="M2269.74,-216.14C2279.03,-182.43 2293.71,-106.98 2251.5,-72 2191.61,-22.37 1686.48,-17.72 1456.16,-18.23"/>
<polygon fill="black" stroke="black" points="1456.06,-14.73 1446.07,-18.26 1456.08,-21.73 1456.06,-14.73"/>
</g>
<!-- libvips -->
<g id="node41" class="node">
<title>libvips</title>
<g id="a_node41"><a xlink:href="https://github.com/conda-forge/libvips-feedstock" xlink:title="libvips">
<ellipse fill="#35b779" stroke="black" cx="2309.5" cy="-306" rx="45" ry="18"/>
<text text-anchor="middle" x="2309.5" y="-302.3" font-family="Times,serif" font-size="14.00">libvips</text>
</a>
</g>
</g>
<!-- libvips&#45;&gt;conda&#45;forge&#45;pinning -->
<g id="edge58" class="edge">
<title>libvips&#45;&gt;conda&#45;forge&#45;pinning</title>
<path fill="none" stroke="black" d="M2313.65,-288.04C2323.26,-244.15 2341.59,-126.47 2277.5,-72 2246.6,-45.74 1695.98,-28.22 1454.48,-21.77"/>
<polygon fill="black" stroke="black" points="1454.36,-18.26 1444.27,-21.5 1454.17,-25.26 1454.36,-18.26"/>
</g>
<!-- dagmc -->
<g id="node42" class="node">
<title>dagmc</title>
<g id="a_node42"><a xlink:href="https://github.com/conda-forge/dagmc-feedstock/pull/1" xlink:title="dagmc">
<ellipse fill="#31688e" stroke="black" cx="2382.5" cy="-378" rx="35.19" ry="18"/>
<text text-anchor="middle" x="2382.5" y="-374.3" font-family="Times,serif" font-size="14.00" fill="white">dagmc</text>
</a>
</g>
</g>
<!-- dagmc&#45;&gt;conda&#45;forge&#45;pinning -->
<g id="edge60" class="edge">
<title>dagmc&#45;&gt;conda&#45;forge&#45;pinning</title>
<path fill="none" stroke="black" d="M2382.5,-359.95C2382.5,-333.29 2382.5,-280.11 2382.5,-235 2382.5,-235 2382.5,-235 2382.5,-161 2382.5,-108.7 2352.45,-95.05 2305.5,-72 2230.95,-35.41 1693.55,-23.7 1455.49,-20.28"/>
<polygon fill="black" stroke="black" points="1455.47,-16.78 1445.42,-20.14 1455.37,-23.78 1455.47,-16.78"/>
</g>
<!-- nccmp -->
<g id="node43" class="node">
<title>nccmp</title>
<g id="a_node43"><a xlink:href="https://github.com/conda-forge/nccmp-feedstock/pull/2" xlink:title="nccmp">
<ellipse fill="#31688e" stroke="black" cx="2445.5" cy="-90" rx="35.19" ry="18"/>
<text text-anchor="middle" x="2445.5" y="-86.3" font-family="Times,serif" font-size="14.00" fill="white">nccmp</text>
</a>
</g>
</g>
<!-- nccmp&#45;&gt;conda&#45;forge&#45;pinning -->
<g id="edge61" class="edge">
<title>nccmp&#45;&gt;conda&#45;forge&#45;pinning</title>
<path fill="none" stroke="black" d="M2418.92,-78.25C2411.75,-75.77 2403.92,-73.44 2396.5,-72 2219.07,-37.49 1688.99,-24.69 1455.29,-20.64"/>
<polygon fill="black" stroke="black" points="1455.13,-17.13 1445.07,-20.46 1455.01,-24.13 1455.13,-17.13"/>
</g>
</g>
</svg>
