<?xml version="1.0" encoding="UTF-8" standalone="no"?>
<!DOCTYPE svg PUBLIC "-//W3C//DTD SVG 1.1//EN"
 "http://www.w3.org/Graphics/SVG/1.1/DTD/svg11.dtd">
<!-- Generated by graphviz version 2.42.3 (20191010.1750)
 -->
<!-- Title: %3 Pages: 1 -->
<svg width="2824pt" height="476pt"
 viewBox="0.00 0.00 2823.60 476.00" xmlns="http://www.w3.org/2000/svg" xmlns:xlink="http://www.w3.org/1999/xlink">
<g id="graph0" class="graph" transform="scale(1 1) rotate(0) translate(4 472)">
<title>%3</title>
<polygon fill="white" stroke="transparent" points="-4,4 -4,-472 2819.6,-472 2819.6,4 -4,4"/>
<!-- caffe -->
<g id="node1" class="node">
<title>caffe</title>
<g id="a_node1"><a xlink:href="https://github.com/conda-forge/caffe-feedstock" xlink:title="caffe">
<ellipse fill="#fde725" stroke="black" cx="1033.5" cy="-378" rx="35.19" ry="18"/>
<text text-anchor="middle" x="1033.5" y="-374.3" font-family="Times,serif" font-size="14.00">caffe</text>
</a>
</g>
</g>
<!-- conda&#45;forge&#45;pinning -->
<g id="node2" class="node">
<title>conda&#45;forge&#45;pinning</title>
<ellipse fill="none" stroke="black" cx="1526.5" cy="-18" rx="103.5" ry="18"/>
<text text-anchor="middle" x="1526.5" y="-14.3" font-family="Times,serif" font-size="14.00">conda&#45;forge&#45;pinning</text>
</g>
<!-- caffe&#45;&gt;conda&#45;forge&#45;pinning -->
<g id="edge1" class="edge">
<title>caffe&#45;&gt;conda&#45;forge&#45;pinning</title>
<path fill="none" stroke="black" d="M1028.01,-359.92C1012.63,-308.43 975.13,-153.27 1052.5,-72 1077.21,-46.04 1285.26,-30.96 1417.38,-23.91"/>
<polygon fill="black" stroke="black" points="1417.75,-27.39 1427.55,-23.37 1417.38,-20.4 1417.75,-27.39"/>
</g>
<!-- cyclus -->
<g id="node3" class="node">
<title>cyclus</title>
<g id="a_node3"><a xlink:href="https://github.com/conda-forge/cyclus-feedstock/pull/56" xlink:title="cyclus">
<ellipse fill="#31688e" stroke="black" cx="40.5" cy="-90" rx="40.5" ry="18"/>
<text text-anchor="middle" x="40.5" y="-86.3" font-family="Times,serif" font-size="14.00" fill="white">cyclus</text>
</a>
</g>
</g>
<!-- cyclus&#45;&gt;conda&#45;forge&#45;pinning -->
<g id="edge2" class="edge">
<title>cyclus&#45;&gt;conda&#45;forge&#45;pinning</title>
<path fill="none" stroke="black" d="M70.99,-78.02C78.87,-75.61 87.42,-73.37 95.5,-72 347.94,-29.08 1120.68,-20.92 1412.93,-19.36"/>
<polygon fill="black" stroke="black" points="1413.14,-22.86 1423.12,-19.31 1413.1,-15.86 1413.14,-22.86"/>
</g>
<!-- fenics -->
<g id="node4" class="node">
<title>fenics</title>
<g id="a_node4"><a xlink:href="https://github.com/conda-forge/fenics-feedstock/pull/107" xlink:title="fenics">
<ellipse fill="#31688e" stroke="black" cx="93.5" cy="-162" rx="40.5" ry="18"/>
<text text-anchor="middle" x="93.5" y="-158.3" font-family="Times,serif" font-size="14.00" fill="white">fenics</text>
</a>
</g>
</g>
<!-- fenics&#45;&gt;conda&#45;forge&#45;pinning -->
<g id="edge3" class="edge">
<title>fenics&#45;&gt;conda&#45;forge&#45;pinning</title>
<path fill="none" stroke="black" d="M98.53,-143.99C105.78,-122.91 121.35,-87.83 148.5,-72 202.75,-40.37 1093.98,-24.98 1413.57,-20.46"/>
<polygon fill="black" stroke="black" points="1413.83,-23.96 1423.78,-20.32 1413.73,-16.96 1413.83,-23.96"/>
</g>
<!-- flann -->
<g id="node5" class="node">
<title>flann</title>
<g id="a_node5"><a xlink:href="https://github.com/conda-forge/flann-feedstock/pull/26" xlink:title="flann">
<ellipse fill="#31688e" stroke="black" cx="137.5" cy="-234" rx="35.19" ry="18"/>
<text text-anchor="middle" x="137.5" y="-230.3" font-family="Times,serif" font-size="14.00" fill="white">flann</text>
</a>
</g>
</g>
<!-- flann&#45;&gt;conda&#45;forge&#45;pinning -->
<g id="edge4" class="edge">
<title>flann&#45;&gt;conda&#45;forge&#45;pinning</title>
<path fill="none" stroke="black" d="M140.19,-215.82C146.47,-178.08 163.37,-89.85 186.5,-72 234.7,-34.79 1099.2,-23 1413.48,-19.93"/>
<polygon fill="black" stroke="black" points="1413.56,-23.43 1423.52,-19.84 1413.49,-16.43 1413.56,-23.43"/>
</g>
<!-- graph -->
<g id="node6" class="node">
<title>graph</title>
<g id="a_node6"><a xlink:href="https://github.com/conda-forge/graph-feedstock/pull/5" xlink:title="graph">
<ellipse fill="#31688e" stroke="black" cx="200.5" cy="-306" rx="35.19" ry="18"/>
<text text-anchor="middle" x="200.5" y="-302.3" font-family="Times,serif" font-size="14.00" fill="white">graph</text>
</a>
</g>
</g>
<!-- graph&#45;&gt;conda&#45;forge&#45;pinning -->
<g id="edge5" class="edge">
<title>graph&#45;&gt;conda&#45;forge&#45;pinning</title>
<path fill="none" stroke="black" d="M195.4,-288.12C183.52,-244.93 159.33,-129.76 219.5,-72 262.21,-31 1102.87,-21.63 1412.92,-19.56"/>
<polygon fill="black" stroke="black" points="1413.3,-23.06 1423.28,-19.49 1413.26,-16.06 1413.3,-23.06"/>
</g>
<!-- h5py -->
<g id="node7" class="node">
<title>h5py</title>
<g id="a_node7"><a xlink:href="https://github.com/conda-forge/h5py-feedstock/pull/72" xlink:title="h5py">
<ellipse fill="#31688e" stroke="black" cx="951.5" cy="-450" rx="30.59" ry="18"/>
<text text-anchor="middle" x="951.5" y="-446.3" font-family="Times,serif" font-size="14.00" fill="white">h5py</text>
</a>
</g>
</g>
<!-- h5py&#45;&gt;caffe -->
<g id="edge6" class="edge">
<title>h5py&#45;&gt;caffe</title>
<path fill="none" stroke="black" d="M968.09,-434.83C979.64,-424.98 995.25,-411.65 1008.33,-400.49"/>
<polygon fill="black" stroke="black" points="1010.75,-403.02 1016.08,-393.87 1006.2,-397.7 1010.75,-403.02"/>
</g>
<!-- h5py&#45;&gt;conda&#45;forge&#45;pinning -->
<g id="edge7" class="edge">
<title>h5py&#45;&gt;conda&#45;forge&#45;pinning</title>
<path fill="none" stroke="black" d="M981.25,-445.43C1010.94,-440.14 1055.27,-427.22 1077.5,-396 1091.45,-376.41 1081.34,-311.84 1084.5,-288 1093.07,-223.28 1098.31,-207.49 1113.5,-144 1121.23,-111.7 1108.46,-93.82 1133.5,-72 1174.14,-36.57 1312.15,-24.66 1413.18,-20.74"/>
<polygon fill="black" stroke="black" points="1413.59,-24.23 1423.45,-20.37 1413.33,-17.24 1413.59,-24.23"/>
</g>
<!-- openmc -->
<g id="node8" class="node">
<title>openmc</title>
<g id="a_node8"><a xlink:href="https://github.com/conda-forge/openmc-feedstock" xlink:title="openmc">
<ellipse fill="#fde725" stroke="black" cx="1134.5" cy="-306" rx="40.5" ry="18"/>
<text text-anchor="middle" x="1134.5" y="-302.3" font-family="Times,serif" font-size="14.00">openmc</text>
</a>
</g>
</g>
<!-- h5py&#45;&gt;openmc -->
<g id="edge8" class="edge">
<title>h5py&#45;&gt;openmc</title>
<path fill="none" stroke="black" d="M981.78,-447.26C1017.58,-443.55 1076.56,-431.98 1110.5,-396 1126.16,-379.4 1131.82,-353.68 1133.76,-334.15"/>
<polygon fill="black" stroke="black" points="1137.26,-334.26 1134.5,-324.03 1130.28,-333.75 1137.26,-334.26"/>
</g>
<!-- rsgislib -->
<g id="node9" class="node">
<title>rsgislib</title>
<g id="a_node9"><a xlink:href="https://github.com/conda-forge/rsgislib-feedstock" xlink:title="rsgislib">
<ellipse fill="#fde725" stroke="black" cx="1181.5" cy="-234" rx="50.09" ry="18"/>
<text text-anchor="middle" x="1181.5" y="-230.3" font-family="Times,serif" font-size="14.00">rsgislib</text>
</a>
</g>
</g>
<!-- h5py&#45;&gt;rsgislib -->
<g id="edge9" class="edge">
<title>h5py&#45;&gt;rsgislib</title>
<path fill="none" stroke="black" d="M981.79,-446.53C1020.5,-442.06 1088.05,-429.7 1134.5,-396 1165.83,-373.27 1172.11,-360.99 1183.5,-324 1189.67,-303.97 1188.74,-280.18 1186.5,-262.24"/>
<polygon fill="black" stroke="black" points="1189.94,-261.56 1185.04,-252.17 1183.01,-262.57 1189.94,-261.56"/>
</g>
<!-- h5utils -->
<g id="node10" class="node">
<title>h5utils</title>
<g id="a_node10"><a xlink:href="https://github.com/conda-forge/h5utils-feedstock" xlink:title="h5utils">
<ellipse fill="#fde725" stroke="black" cx="1214.5" cy="-162" rx="45" ry="18"/>
<text text-anchor="middle" x="1214.5" y="-158.3" font-family="Times,serif" font-size="14.00">h5utils</text>
</a>
</g>
</g>
<!-- h5py&#45;&gt;h5utils -->
<g id="edge10" class="edge">
<title>h5py&#45;&gt;h5utils</title>
<path fill="none" stroke="black" d="M982.37,-449.12C1027.51,-447.73 1112.06,-439.03 1166.5,-396 1222.95,-351.38 1223.58,-321.94 1240.5,-252 1244.26,-236.45 1244.12,-231.59 1240.5,-216 1238.35,-206.72 1234.32,-197.18 1230.08,-188.81"/>
<polygon fill="black" stroke="black" points="1233.11,-187.05 1225.28,-179.92 1226.95,-190.38 1233.11,-187.05"/>
</g>
<!-- pymeep -->
<g id="node11" class="node">
<title>pymeep</title>
<g id="a_node11"><a xlink:href="https://github.com/conda-forge/pymeep-feedstock" xlink:title="pymeep">
<ellipse fill="#fde725" stroke="black" cx="1274.5" cy="-90" rx="40.5" ry="18"/>
<text text-anchor="middle" x="1274.5" y="-86.3" font-family="Times,serif" font-size="14.00">pymeep</text>
</a>
</g>
</g>
<!-- h5py&#45;&gt;pymeep -->
<g id="edge11" class="edge">
<title>h5py&#45;&gt;pymeep</title>
<path fill="none" stroke="black" d="M982.34,-449.94C1032.39,-449.93 1132.38,-443.4 1198.5,-396 1287.62,-332.12 1283.66,-180.62 1277.83,-118.4"/>
<polygon fill="black" stroke="black" points="1281.29,-117.78 1276.78,-108.19 1274.33,-118.5 1281.29,-117.78"/>
</g>
<!-- blosc&#45;hdf5&#45;plugin -->
<g id="node12" class="node">
<title>blosc&#45;hdf5&#45;plugin</title>
<g id="a_node12"><a xlink:href="https://github.com/conda-forge/blosc-hdf5-plugin-feedstock" xlink:title="blosc hdf5 plugin">
<ellipse fill="#fde725" stroke="black" cx="322.5" cy="-90" rx="93.68" ry="18"/>
<text text-anchor="middle" x="322.5" y="-86.3" font-family="Times,serif" font-size="14.00">blosc hdf5 plugin</text>
</a>
</g>
</g>
<!-- h5py&#45;&gt;blosc&#45;hdf5&#45;plugin -->
<g id="edge12" class="edge">
<title>h5py&#45;&gt;blosc&#45;hdf5&#45;plugin</title>
<path fill="none" stroke="black" d="M921.02,-447.92C830.53,-444.34 564.85,-431.02 486.5,-396 432.18,-371.72 386.5,-366.5 386.5,-307 386.5,-307 386.5,-307 386.5,-233 386.5,-188.84 360.45,-143.23 341.59,-115.99"/>
<polygon fill="black" stroke="black" points="344.42,-113.93 335.76,-107.82 338.72,-117.99 344.42,-113.93"/>
</g>
<!-- isce2 -->
<g id="node13" class="node">
<title>isce2</title>
<g id="a_node13"><a xlink:href="https://github.com/conda-forge/isce2-feedstock" xlink:title="isce2">
<ellipse fill="#fde725" stroke="black" cx="469.5" cy="-90" rx="35.19" ry="18"/>
<text text-anchor="middle" x="469.5" y="-86.3" font-family="Times,serif" font-size="14.00">isce2</text>
</a>
</g>
</g>
<!-- h5py&#45;&gt;isce2 -->
<g id="edge13" class="edge">
<title>h5py&#45;&gt;isce2</title>
<path fill="none" stroke="black" d="M921.25,-447.38C826.65,-442.04 540.86,-423.72 510.5,-396 480.63,-368.73 491.5,-347.45 491.5,-307 491.5,-307 491.5,-307 491.5,-233 491.5,-192.52 482.66,-146.3 476.19,-117.89"/>
<polygon fill="black" stroke="black" points="479.54,-116.85 473.85,-107.92 472.73,-118.45 479.54,-116.85"/>
</g>
<!-- bitshuffle -->
<g id="node14" class="node">
<title>bitshuffle</title>
<g id="a_node14"><a xlink:href="https://github.com/conda-forge/bitshuffle-feedstock" xlink:title="bitshuffle">
<ellipse fill="#fde725" stroke="black" cx="579.5" cy="-378" rx="60" ry="18"/>
<text text-anchor="middle" x="579.5" y="-374.3" font-family="Times,serif" font-size="14.00">bitshuffle</text>
</a>
</g>
</g>
<!-- h5py&#45;&gt;bitshuffle -->
<g id="edge14" class="edge">
<title>h5py&#45;&gt;bitshuffle</title>
<path fill="none" stroke="black" d="M922.22,-444.29C868.71,-435.57 751.59,-415.98 653.5,-396 647.62,-394.8 641.5,-393.5 635.4,-392.15"/>
<polygon fill="black" stroke="black" points="635.74,-388.64 625.21,-389.88 634.21,-395.47 635.74,-388.64"/>
</g>
<!-- triqs -->
<g id="node15" class="node">
<title>triqs</title>
<g id="a_node15"><a xlink:href="https://github.com/conda-forge/triqs-feedstock" xlink:title="triqs">
<ellipse fill="#fde725" stroke="black" cx="663.5" cy="-162" rx="35.19" ry="18"/>
<text text-anchor="middle" x="663.5" y="-158.3" font-family="Times,serif" font-size="14.00">triqs</text>
</a>
</g>
</g>
<!-- h5py&#45;&gt;triqs -->
<g id="edge15" class="edge">
<title>h5py&#45;&gt;triqs</title>
<path fill="none" stroke="black" d="M923.26,-442.82C872.17,-430.09 764.68,-395.9 710.5,-324 680.3,-283.92 669.46,-224.83 665.6,-190.5"/>
<polygon fill="black" stroke="black" points="669.06,-189.88 664.58,-180.28 662.09,-190.58 669.06,-189.88"/>
</g>
<!-- hdf5plugin -->
<g id="node16" class="node">
<title>hdf5plugin</title>
<g id="a_node16"><a xlink:href="https://github.com/conda-forge/hdf5plugin-feedstock" xlink:title="hdf5plugin">
<ellipse fill="#fde725" stroke="black" cx="779.5" cy="-306" rx="60" ry="18"/>
<text text-anchor="middle" x="779.5" y="-302.3" font-family="Times,serif" font-size="14.00">hdf5plugin</text>
</a>
</g>
</g>
<!-- h5py&#45;&gt;hdf5plugin -->
<g id="edge16" class="edge">
<title>h5py&#45;&gt;hdf5plugin</title>
<path fill="none" stroke="black" d="M929.29,-437.35C911.31,-427.44 885.73,-412.27 865.5,-396 841.04,-376.32 816.48,-350.11 799.91,-331.24"/>
<polygon fill="black" stroke="black" points="802.51,-328.9 793.32,-323.64 797.23,-333.48 802.51,-328.9"/>
</g>
<!-- prismatic_split -->
<g id="node17" class="node">
<title>prismatic_split</title>
<g id="a_node17"><a xlink:href="https://github.com/conda-forge/prismatic_split-feedstock" xlink:title="prismatic_split">
<ellipse fill="#fde725" stroke="black" cx="820.5" cy="-234" rx="84" ry="18"/>
<text text-anchor="middle" x="820.5" y="-230.3" font-family="Times,serif" font-size="14.00">prismatic_split</text>
</a>
</g>
</g>
<!-- h5py&#45;&gt;prismatic_split -->
<g id="edge17" class="edge">
<title>h5py&#45;&gt;prismatic_split</title>
<path fill="none" stroke="black" d="M941.35,-432.79C934.8,-422.31 926.11,-408.37 918.5,-396 889.15,-348.32 855.25,-292.45 836,-260.64"/>
<polygon fill="black" stroke="black" points="838.91,-258.7 830.74,-251.96 832.93,-262.32 838.91,-258.7"/>
</g>
<!-- digital_rf -->
<g id="node18" class="node">
<title>digital_rf</title>
<g id="a_node18"><a xlink:href="https://github.com/conda-forge/digital_rf-feedstock" xlink:title="digital_rf">
<ellipse fill="#fde725" stroke="black" cx="882.5" cy="-162" rx="60" ry="18"/>
<text text-anchor="middle" x="882.5" y="-158.3" font-family="Times,serif" font-size="14.00">digital_rf</text>
</a>
</g>
</g>
<!-- h5py&#45;&gt;digital_rf -->
<g id="edge18" class="edge">
<title>h5py&#45;&gt;digital_rf</title>
<path fill="none" stroke="black" d="M950.84,-431.8C948.88,-392.45 941.33,-293.32 913.5,-216 910.11,-206.57 905.03,-196.92 899.95,-188.48"/>
<polygon fill="black" stroke="black" points="902.82,-186.47 894.53,-179.87 896.9,-190.2 902.82,-186.47"/>
</g>
<!-- pp&#45;sketchlib -->
<g id="node19" class="node">
<title>pp&#45;sketchlib</title>
<g id="a_node19"><a xlink:href="https://github.com/conda-forge/pp-sketchlib-feedstock" xlink:title="pp sketchlib">
<ellipse fill="#fde725" stroke="black" cx="930.5" cy="-90" rx="69.59" ry="18"/>
<text text-anchor="middle" x="930.5" y="-86.3" font-family="Times,serif" font-size="14.00">pp sketchlib</text>
</a>
</g>
</g>
<!-- h5py&#45;&gt;pp&#45;sketchlib -->
<g id="edge19" class="edge">
<title>h5py&#45;&gt;pp&#45;sketchlib</title>
<path fill="none" stroke="black" d="M955.25,-432.05C960.79,-405.52 970.5,-352.52 970.5,-307 970.5,-307 970.5,-307 970.5,-233 970.5,-191.48 954.46,-145.61 942.7,-117.54"/>
<polygon fill="black" stroke="black" points="945.77,-115.84 938.59,-108.05 939.35,-118.62 945.77,-115.84"/>
</g>
<!-- openmc&#45;&gt;conda&#45;forge&#45;pinning -->
<g id="edge20" class="edge">
<title>openmc&#45;&gt;conda&#45;forge&#45;pinning</title>
<path fill="none" stroke="black" d="M1129.63,-287.98C1126.94,-277.67 1123.86,-264.19 1122.5,-252 1113.31,-169.83 1106.33,-125.35 1169.5,-72 1205.89,-41.26 1324.99,-28.34 1415.72,-22.92"/>
<polygon fill="black" stroke="black" points="1416.01,-26.4 1425.79,-22.34 1415.61,-19.42 1416.01,-26.4"/>
</g>
<!-- rsgislib&#45;&gt;conda&#45;forge&#45;pinning -->
<g id="edge21" class="edge">
<title>rsgislib&#45;&gt;conda&#45;forge&#45;pinning</title>
<path fill="none" stroke="black" d="M1172.33,-216.13C1163.74,-198.13 1153.24,-168.84 1160.5,-144 1171.15,-107.55 1174.8,-92.91 1206.5,-72 1241.43,-48.95 1343.68,-34.8 1423.3,-26.98"/>
<polygon fill="black" stroke="black" points="1423.77,-30.46 1433.38,-26.02 1423.1,-23.49 1423.77,-30.46"/>
</g>
<!-- h5utils&#45;&gt;conda&#45;forge&#45;pinning -->
<g id="edge22" class="edge">
<title>h5utils&#45;&gt;conda&#45;forge&#45;pinning</title>
<path fill="none" stroke="black" d="M1210.94,-143.78C1207.91,-123.8 1206.5,-91.15 1224.5,-72 1250.67,-44.16 1342.45,-30.88 1418.04,-24.58"/>
<polygon fill="black" stroke="black" points="1418.42,-28.06 1428.11,-23.77 1417.86,-21.08 1418.42,-28.06"/>
</g>
<!-- h5utils&#45;&gt;pymeep -->
<g id="edge23" class="edge">
<title>h5utils&#45;&gt;pymeep</title>
<path fill="none" stroke="black" d="M1228.42,-144.76C1235.99,-135.93 1245.5,-124.83 1253.92,-115.01"/>
<polygon fill="black" stroke="black" points="1256.81,-117.02 1260.66,-107.15 1251.49,-112.46 1256.81,-117.02"/>
</g>
<!-- pymeep&#45;&gt;conda&#45;forge&#45;pinning -->
<g id="edge24" class="edge">
<title>pymeep&#45;&gt;conda&#45;forge&#45;pinning</title>
<path fill="none" stroke="black" d="M1306.43,-78.91C1313.98,-76.59 1322.01,-74.16 1329.5,-72 1373.23,-59.36 1422.7,-46.06 1461.13,-35.94"/>
<polygon fill="black" stroke="black" points="1462.37,-39.23 1471.15,-33.31 1460.59,-32.46 1462.37,-39.23"/>
</g>
<!-- blosc&#45;hdf5&#45;plugin&#45;&gt;conda&#45;forge&#45;pinning -->
<g id="edge25" class="edge">
<title>blosc&#45;hdf5&#45;plugin&#45;&gt;conda&#45;forge&#45;pinning</title>
<path fill="none" stroke="black" d="M387.73,-77.07C400.23,-75.11 413.24,-73.3 425.5,-72 784.86,-33.82 1213.15,-23.13 1413.13,-20.15"/>
<polygon fill="black" stroke="black" points="1413.41,-23.64 1423.36,-20 1413.31,-16.64 1413.41,-23.64"/>
</g>
<!-- isce2&#45;&gt;conda&#45;forge&#45;pinning -->
<g id="edge26" class="edge">
<title>isce2&#45;&gt;conda&#45;forge&#45;pinning</title>
<path fill="none" stroke="black" d="M496.34,-78.17C503.44,-75.73 511.17,-73.44 518.5,-72 686.92,-39.04 1187.68,-25.49 1413.65,-20.94"/>
<polygon fill="black" stroke="black" points="1413.94,-24.44 1423.87,-20.74 1413.8,-17.44 1413.94,-24.44"/>
</g>
<!-- bitshuffle&#45;&gt;conda&#45;forge&#45;pinning -->
<g id="edge27" class="edge">
<title>bitshuffle&#45;&gt;conda&#45;forge&#45;pinning</title>
<path fill="none" stroke="black" d="M569.99,-360.11C556.26,-334.09 532.5,-282.26 532.5,-235 532.5,-235 532.5,-235 532.5,-161 532.5,-116.27 541.85,-96.15 579.5,-72 648.07,-28.01 1176.59,-20.36 1412.93,-19.15"/>
<polygon fill="black" stroke="black" points="1412.95,-22.65 1422.93,-19.1 1412.91,-15.65 1412.95,-22.65"/>
</g>
<!-- triqs&#45;&gt;conda&#45;forge&#45;pinning -->
<g id="edge28" class="edge">
<title>triqs&#45;&gt;conda&#45;forge&#45;pinning</title>
<path fill="none" stroke="black" d="M637.18,-149.96C620.19,-141.28 599.47,-127.4 589.5,-108 582.19,-93.77 578.51,-83.63 589.5,-72 617.41,-42.47 1170.91,-26.78 1413.84,-21.29"/>
<polygon fill="black" stroke="black" points="1414.19,-24.78 1424.11,-21.06 1414.03,-17.78 1414.19,-24.78"/>
</g>
<!-- triqs_cthyb -->
<g id="node20" class="node">
<title>triqs_cthyb</title>
<g id="a_node20"><a xlink:href="https://github.com/conda-forge/triqs_cthyb-feedstock" xlink:title="triqs_cthyb">
<ellipse fill="#fde725" stroke="black" cx="663.5" cy="-90" rx="64.5" ry="18"/>
<text text-anchor="middle" x="663.5" y="-86.3" font-family="Times,serif" font-size="14.00">triqs_cthyb</text>
</a>
</g>
</g>
<!-- triqs&#45;&gt;triqs_cthyb -->
<g id="edge29" class="edge">
<title>triqs&#45;&gt;triqs_cthyb</title>
<path fill="none" stroke="black" d="M663.5,-143.7C663.5,-135.98 663.5,-126.71 663.5,-118.11"/>
<polygon fill="black" stroke="black" points="667,-118.1 663.5,-108.1 660,-118.1 667,-118.1"/>
</g>
<!-- hdf5plugin&#45;&gt;conda&#45;forge&#45;pinning -->
<g id="edge30" class="edge">
<title>hdf5plugin&#45;&gt;conda&#45;forge&#45;pinning</title>
<path fill="none" stroke="black" d="M757.1,-289.06C745.94,-279.69 733.55,-266.8 727.5,-252 721.45,-237.19 723.28,-231.43 727.5,-216 747.08,-144.31 749.37,-111.21 812.5,-72 862.3,-41.07 1226.45,-26.94 1414.6,-21.65"/>
<polygon fill="black" stroke="black" points="1414.9,-25.14 1424.8,-21.37 1414.71,-18.15 1414.9,-25.14"/>
</g>
<!-- prismatic_split&#45;&gt;conda&#45;forge&#45;pinning -->
<g id="edge31" class="edge">
<title>prismatic_split&#45;&gt;conda&#45;forge&#45;pinning</title>
<path fill="none" stroke="black" d="M815.95,-215.82C808.03,-181.53 796.48,-105.09 840.5,-72 885.16,-38.43 1230.93,-25.62 1413.84,-21.16"/>
<polygon fill="black" stroke="black" points="1414.13,-24.65 1424.04,-20.91 1413.96,-17.65 1414.13,-24.65"/>
</g>
<!-- digital_rf&#45;&gt;conda&#45;forge&#45;pinning -->
<g id="edge32" class="edge">
<title>digital_rf&#45;&gt;conda&#45;forge&#45;pinning</title>
<path fill="none" stroke="black" d="M867.96,-144.53C852.48,-124.97 832.62,-92.42 851.5,-72 888.75,-31.71 1230.75,-22 1413.13,-19.69"/>
<polygon fill="black" stroke="black" points="1413.35,-23.19 1423.3,-19.57 1413.26,-16.19 1413.35,-23.19"/>
</g>
<!-- pp&#45;sketchlib&#45;&gt;conda&#45;forge&#45;pinning -->
<g id="edge33" class="edge">
<title>pp&#45;sketchlib&#45;&gt;conda&#45;forge&#45;pinning</title>
<path fill="none" stroke="black" d="M981.89,-77.78C992.63,-75.67 1003.91,-73.62 1014.5,-72 1155.35,-50.51 1319.36,-35.23 1423.04,-26.76"/>
<polygon fill="black" stroke="black" points="1423.51,-30.23 1433.2,-25.94 1422.95,-23.26 1423.51,-30.23"/>
</g>
<!-- triqs_cthyb&#45;&gt;conda&#45;forge&#45;pinning -->
<g id="edge67" class="edge">
<title>triqs_cthyb&#45;&gt;conda&#45;forge&#45;pinning</title>
<path fill="none" stroke="black" d="M710.92,-77.63C721.28,-75.48 732.22,-73.45 742.5,-72 980.2,-38.57 1261.53,-26.06 1414.21,-21.5"/>
<polygon fill="black" stroke="black" points="1414.63,-24.99 1424.53,-21.2 1414.43,-17.99 1414.63,-24.99"/>
</g>
<!-- hdfeos5 -->
<g id="node21" class="node">
<title>hdfeos5</title>
<g id="a_node21"><a xlink:href="https://github.com/conda-forge/hdfeos5-feedstock/pull/27" xlink:title="hdfeos5">
<ellipse fill="#31688e" stroke="black" cx="1469.5" cy="-234" rx="45" ry="18"/>
<text text-anchor="middle" x="1469.5" y="-230.3" font-family="Times,serif" font-size="14.00" fill="white">hdfeos5</text>
</a>
</g>
</g>
<!-- hdfeos5&#45;&gt;conda&#45;forge&#45;pinning -->
<g id="edge34" class="edge">
<title>hdfeos5&#45;&gt;conda&#45;forge&#45;pinning</title>
<path fill="none" stroke="black" d="M1474.07,-215.85C1483.95,-178.75 1507.37,-90.81 1519.28,-46.1"/>
<polygon fill="black" stroke="black" points="1522.72,-46.8 1521.91,-36.23 1515.95,-44.99 1522.72,-46.8"/>
</g>
<!-- ncl -->
<g id="node22" class="node">
<title>ncl</title>
<g id="a_node22"><a xlink:href="https://github.com/conda-forge/ncl-feedstock" xlink:title="ncl">
<ellipse fill="#fde725" stroke="black" cx="1414.5" cy="-162" rx="27" ry="18"/>
<text text-anchor="middle" x="1414.5" y="-158.3" font-family="Times,serif" font-size="14.00">ncl</text>
</a>
</g>
</g>
<!-- hdfeos5&#45;&gt;ncl -->
<g id="edge35" class="edge">
<title>hdfeos5&#45;&gt;ncl</title>
<path fill="none" stroke="black" d="M1456.47,-216.41C1449.49,-207.53 1440.77,-196.44 1433.1,-186.67"/>
<polygon fill="black" stroke="black" points="1435.62,-184.21 1426.69,-178.51 1430.11,-188.54 1435.62,-184.21"/>
</g>
<!-- pynio -->
<g id="node23" class="node">
<title>pynio</title>
<g id="a_node23"><a xlink:href="https://github.com/conda-forge/pynio-feedstock" xlink:title="pynio">
<ellipse fill="#fde725" stroke="black" cx="1444.5" cy="-90" rx="35.19" ry="18"/>
<text text-anchor="middle" x="1444.5" y="-86.3" font-family="Times,serif" font-size="14.00">pynio</text>
</a>
</g>
</g>
<!-- hdfeos5&#45;&gt;pynio -->
<g id="edge36" class="edge">
<title>hdfeos5&#45;&gt;pynio</title>
<path fill="none" stroke="black" d="M1466.48,-215.87C1462.22,-191.67 1454.4,-147.21 1449.32,-118.39"/>
<polygon fill="black" stroke="black" points="1452.71,-117.43 1447.53,-108.19 1445.81,-118.64 1452.71,-117.43"/>
</g>
<!-- ncl&#45;&gt;conda&#45;forge&#45;pinning -->
<g id="edge37" class="edge">
<title>ncl&#45;&gt;conda&#45;forge&#45;pinning</title>
<path fill="none" stroke="black" d="M1405.68,-144.78C1396.66,-125.75 1385.87,-94.02 1400.5,-72 1411.95,-54.76 1430.23,-43.11 1449.35,-35.25"/>
<polygon fill="black" stroke="black" points="1450.66,-38.5 1458.78,-31.69 1448.19,-31.95 1450.66,-38.5"/>
</g>
<!-- pynio&#45;&gt;conda&#45;forge&#45;pinning -->
<g id="edge38" class="edge">
<title>pynio&#45;&gt;conda&#45;forge&#45;pinning</title>
<path fill="none" stroke="black" d="M1461.89,-74.15C1472.69,-64.94 1486.8,-52.89 1499.08,-42.41"/>
<polygon fill="black" stroke="black" points="1501.5,-44.94 1506.83,-35.79 1496.95,-39.62 1501.5,-44.94"/>
</g>
<!-- hyperion&#45;fortran -->
<g id="node24" class="node">
<title>hyperion&#45;fortran</title>
<g id="a_node24"><a xlink:href="https://github.com/conda-forge/hyperion-fortran-feedstock/pull/18" xlink:title="hyperion fortran">
<ellipse fill="#31688e" stroke="black" cx="1545.5" cy="-378" rx="89.08" ry="18"/>
<text text-anchor="middle" x="1545.5" y="-374.3" font-family="Times,serif" font-size="14.00" fill="white">hyperion fortran</text>
</a>
</g>
</g>
<!-- hyperion&#45;fortran&#45;&gt;conda&#45;forge&#45;pinning -->
<g id="edge39" class="edge">
<title>hyperion&#45;fortran&#45;&gt;conda&#45;forge&#45;pinning</title>
<path fill="none" stroke="black" d="M1545.5,-359.95C1545.5,-333.29 1545.5,-280.11 1545.5,-235 1545.5,-235 1545.5,-235 1545.5,-161 1545.5,-120.86 1537.95,-74.9 1532.37,-46.4"/>
<polygon fill="black" stroke="black" points="1535.76,-45.5 1530.34,-36.39 1528.89,-46.88 1535.76,-45.5"/>
</g>
<!-- libmatio -->
<g id="node25" class="node">
<title>libmatio</title>
<g id="a_node25"><a xlink:href="https://github.com/conda-forge/libmatio-feedstock/pull/28" xlink:title="libmatio">
<ellipse fill="#31688e" stroke="black" cx="1739.5" cy="-378" rx="50.09" ry="18"/>
<text text-anchor="middle" x="1739.5" y="-374.3" font-family="Times,serif" font-size="14.00" fill="white">libmatio</text>
</a>
</g>
</g>
<!-- libmatio&#45;&gt;conda&#45;forge&#45;pinning -->
<g id="edge40" class="edge">
<title>libmatio&#45;&gt;conda&#45;forge&#45;pinning</title>
<path fill="none" stroke="black" d="M1746.77,-360.08C1767.16,-309.7 1818.97,-158.77 1748.5,-72 1732.04,-51.74 1673.72,-38.29 1620.98,-30.01"/>
<polygon fill="black" stroke="black" points="1621.28,-26.52 1610.87,-28.48 1620.23,-33.44 1621.28,-26.52"/>
</g>
<!-- pytrilinos -->
<g id="node26" class="node">
<title>pytrilinos</title>
<g id="a_node26"><a xlink:href="https://github.com/conda-forge/pytrilinos-feedstock" xlink:title="pytrilinos">
<ellipse fill="#fde725" stroke="black" cx="1865.5" cy="-306" rx="60" ry="18"/>
<text text-anchor="middle" x="1865.5" y="-302.3" font-family="Times,serif" font-size="14.00">pytrilinos</text>
</a>
</g>
</g>
<!-- libmatio&#45;&gt;pytrilinos -->
<g id="edge41" class="edge">
<title>libmatio&#45;&gt;pytrilinos</title>
<path fill="none" stroke="black" d="M1765.61,-362.5C1783.98,-352.29 1808.83,-338.48 1829.14,-327.2"/>
<polygon fill="black" stroke="black" points="1831.08,-330.13 1838.12,-322.21 1827.68,-324.01 1831.08,-330.13"/>
</g>
<!-- trilinos -->
<g id="node27" class="node">
<title>trilinos</title>
<g id="a_node27"><a xlink:href="https://github.com/conda-forge/trilinos-feedstock" xlink:title="trilinos">
<ellipse fill="#fde725" stroke="black" cx="1623.5" cy="-234" rx="50.09" ry="18"/>
<text text-anchor="middle" x="1623.5" y="-230.3" font-family="Times,serif" font-size="14.00">trilinos</text>
</a>
</g>
</g>
<!-- libmatio&#45;&gt;trilinos -->
<g id="edge42" class="edge">
<title>libmatio&#45;&gt;trilinos</title>
<path fill="none" stroke="black" d="M1722.43,-360.9C1711.94,-350.7 1698.46,-337.02 1687.5,-324 1670.12,-303.35 1652.36,-278.27 1639.97,-260.01"/>
<polygon fill="black" stroke="black" points="1642.83,-257.98 1634.35,-251.64 1637.02,-261.89 1642.83,-257.98"/>
</g>
<!-- openmeeg -->
<g id="node28" class="node">
<title>openmeeg</title>
<g id="a_node28"><a xlink:href="https://github.com/conda-forge/openmeeg-feedstock" xlink:title="openmeeg">
<ellipse fill="#fde725" stroke="black" cx="1661.5" cy="-162" rx="50.09" ry="18"/>
<text text-anchor="middle" x="1661.5" y="-158.3" font-family="Times,serif" font-size="14.00">openmeeg</text>
</a>
</g>
</g>
<!-- libmatio&#45;&gt;openmeeg -->
<g id="edge43" class="edge">
<title>libmatio&#45;&gt;openmeeg</title>
<path fill="none" stroke="black" d="M1733.71,-360C1723.64,-330.56 1702.07,-268.2 1682.5,-216 1679.25,-207.34 1675.58,-197.94 1672.22,-189.5"/>
<polygon fill="black" stroke="black" points="1675.44,-188.11 1668.47,-180.12 1668.94,-190.71 1675.44,-188.11"/>
</g>
<!-- libvips -->
<g id="node29" class="node">
<title>libvips</title>
<g id="a_node29"><a xlink:href="https://github.com/conda-forge/libvips-feedstock" xlink:title="libvips">
<ellipse fill="#fde725" stroke="black" cx="1694.5" cy="-90" rx="45" ry="18"/>
<text text-anchor="middle" x="1694.5" y="-86.3" font-family="Times,serif" font-size="14.00">libvips</text>
</a>
</g>
</g>
<!-- libmatio&#45;&gt;libvips -->
<g id="edge44" class="edge">
<title>libmatio&#45;&gt;libvips</title>
<path fill="none" stroke="black" d="M1740.25,-359.96C1741.52,-320.94 1742.1,-222.45 1720.5,-144 1717.93,-134.67 1713.72,-125.01 1709.42,-116.53"/>
<polygon fill="black" stroke="black" points="1712.42,-114.72 1704.62,-107.54 1706.25,-118.01 1712.42,-114.72"/>
</g>
<!-- pytrilinos&#45;&gt;conda&#45;forge&#45;pinning -->
<g id="edge45" class="edge">
<title>pytrilinos&#45;&gt;conda&#45;forge&#45;pinning</title>
<path fill="none" stroke="black" d="M1864.75,-287.82C1861.89,-244.43 1848.07,-129.78 1781.5,-72 1757.85,-51.47 1685.12,-37.64 1623.35,-29.27"/>
<polygon fill="black" stroke="black" points="1623.52,-25.76 1613.15,-27.92 1622.6,-32.7 1623.52,-25.76"/>
</g>
<!-- trilinos&#45;&gt;conda&#45;forge&#45;pinning -->
<g id="edge46" class="edge">
<title>trilinos&#45;&gt;conda&#45;forge&#45;pinning</title>
<path fill="none" stroke="black" d="M1616.76,-215.98C1600.49,-174.93 1560.36,-73.71 1559.5,-72 1554.86,-62.81 1549.12,-53.14 1543.73,-44.61"/>
<polygon fill="black" stroke="black" points="1546.67,-42.72 1538.31,-36.21 1540.79,-46.51 1546.67,-42.72"/>
</g>
<!-- openmeeg&#45;&gt;conda&#45;forge&#45;pinning -->
<g id="edge47" class="edge">
<title>openmeeg&#45;&gt;conda&#45;forge&#45;pinning</title>
<path fill="none" stroke="black" d="M1651.54,-144.09C1639.98,-125.27 1619.64,-94.54 1597.5,-72 1586.55,-60.86 1573.12,-50.21 1560.89,-41.43"/>
<polygon fill="black" stroke="black" points="1562.86,-38.53 1552.66,-35.66 1558.84,-44.26 1562.86,-38.53"/>
</g>
<!-- libvips&#45;&gt;conda&#45;forge&#45;pinning -->
<g id="edge48" class="edge">
<title>libvips&#45;&gt;conda&#45;forge&#45;pinning</title>
<path fill="none" stroke="black" d="M1664.46,-76.49C1639.37,-66.03 1603.12,-50.92 1574.08,-38.82"/>
<polygon fill="black" stroke="black" points="1575.11,-35.46 1564.53,-34.85 1572.41,-41.92 1575.11,-35.46"/>
</g>
<!-- octave -->
<g id="node30" class="node">
<title>octave</title>
<g id="a_node30"><a xlink:href="https://github.com/conda-forge/octave-feedstock/pull/39" xlink:title="octave">
<ellipse fill="#31688e" stroke="black" cx="1874.5" cy="-90" rx="40.5" ry="18"/>
<text text-anchor="middle" x="1874.5" y="-86.3" font-family="Times,serif" font-size="14.00" fill="white">octave</text>
</a>
</g>
</g>
<!-- octave&#45;&gt;conda&#45;forge&#45;pinning -->
<g id="edge49" class="edge">
<title>octave&#45;&gt;conda&#45;forge&#45;pinning</title>
<path fill="none" stroke="black" d="M1842.98,-78.54C1835.34,-76.21 1827.17,-73.87 1819.5,-72 1750.66,-55.2 1671.54,-41.2 1612.88,-31.81"/>
<polygon fill="black" stroke="black" points="1613.34,-28.34 1602.92,-30.23 1612.24,-35.25 1613.34,-28.34"/>
</g>
<!-- pyne -->
<g id="node31" class="node">
<title>pyne</title>
<g id="a_node31"><a xlink:href="https://github.com/conda-forge/pyne-feedstock/pull/40" xlink:title="pyne">
<ellipse fill="#31688e" stroke="black" cx="1922.5" cy="-162" rx="30.59" ry="18"/>
<text text-anchor="middle" x="1922.5" y="-158.3" font-family="Times,serif" font-size="14.00" fill="white">pyne</text>
</a>
</g>
</g>
<!-- pyne&#45;&gt;conda&#45;forge&#45;pinning -->
<g id="edge50" class="edge">
<title>pyne&#45;&gt;conda&#45;forge&#45;pinning</title>
<path fill="none" stroke="black" d="M1928.62,-144.31C1934.68,-124.53 1940.8,-91.77 1923.5,-72 1904.49,-50.28 1743.08,-34.44 1632.02,-25.98"/>
<polygon fill="black" stroke="black" points="1632.01,-22.47 1621.77,-25.22 1631.48,-29.45 1632.01,-22.47"/>
</g>
<!-- r&#45;hdf5r -->
<g id="node32" class="node">
<title>r&#45;hdf5r</title>
<g id="a_node32"><a xlink:href="https://github.com/conda-forge/r-hdf5r-feedstock/pull/12" xlink:title="r hdf5r">
<ellipse fill="#31688e" stroke="black" cx="1946.5" cy="-234" rx="45" ry="18"/>
<text text-anchor="middle" x="1946.5" y="-230.3" font-family="Times,serif" font-size="14.00" fill="white">r hdf5r</text>
</a>
</g>
</g>
<!-- r&#45;hdf5r&#45;&gt;conda&#45;forge&#45;pinning -->
<g id="edge51" class="edge">
<title>r&#45;hdf5r&#45;&gt;conda&#45;forge&#45;pinning</title>
<path fill="none" stroke="black" d="M1953.05,-216.05C1964.78,-182.54 1984.5,-107.93 1943.5,-72 1899.64,-33.56 1747.98,-22.46 1640.23,-19.54"/>
<polygon fill="black" stroke="black" points="1640.03,-16.04 1629.95,-19.29 1639.86,-23.04 1640.03,-16.04"/>
</g>
<!-- r&#45;ncdf4 -->
<g id="node33" class="node">
<title>r&#45;ncdf4</title>
<g id="a_node33"><a xlink:href="https://github.com/conda-forge/r-ncdf4-feedstock/pull/20" xlink:title="r ncdf4">
<ellipse fill="#31688e" stroke="black" cx="1988.5" cy="-306" rx="45" ry="18"/>
<text text-anchor="middle" x="1988.5" y="-302.3" font-family="Times,serif" font-size="14.00" fill="white">r ncdf4</text>
</a>
</g>
</g>
<!-- r&#45;ncdf4&#45;&gt;conda&#45;forge&#45;pinning -->
<g id="edge52" class="edge">
<title>r&#45;ncdf4&#45;&gt;conda&#45;forge&#45;pinning</title>
<path fill="none" stroke="black" d="M1993.69,-287.91C2005.79,-244.23 2030.35,-127.99 1968.5,-72 1944.05,-49.86 1755.68,-33.68 1632.87,-25.36"/>
<polygon fill="black" stroke="black" points="1632.88,-21.85 1622.67,-24.68 1632.42,-28.84 1632.88,-21.85"/>
</g>
<!-- shogun -->
<g id="node34" class="node">
<title>shogun</title>
<g id="a_node34"><a xlink:href="https://github.com/conda-forge/shogun-feedstock/pull/20" xlink:title="shogun">
<ellipse fill="#31688e" stroke="black" cx="2061.5" cy="-378" rx="40.5" ry="18"/>
<text text-anchor="middle" x="2061.5" y="-374.3" font-family="Times,serif" font-size="14.00" fill="white">shogun</text>
</a>
</g>
</g>
<!-- shogun&#45;&gt;conda&#45;forge&#45;pinning -->
<g id="edge53" class="edge">
<title>shogun&#45;&gt;conda&#45;forge&#45;pinning</title>
<path fill="none" stroke="black" d="M2064.26,-359.75C2071.68,-306.4 2085.85,-143.35 1995.5,-72 1942.18,-29.89 1761.12,-20.1 1640.2,-18.42"/>
<polygon fill="black" stroke="black" points="1640.2,-14.92 1630.15,-18.3 1640.11,-21.92 1640.2,-14.92"/>
</g>
<!-- vigra -->
<g id="node35" class="node">
<title>vigra</title>
<g id="a_node35"><a xlink:href="https://github.com/conda-forge/vigra-feedstock/pull/54" xlink:title="vigra">
<ellipse fill="#31688e" stroke="black" cx="2120.5" cy="-90" rx="35.19" ry="18"/>
<text text-anchor="middle" x="2120.5" y="-86.3" font-family="Times,serif" font-size="14.00" fill="white">vigra</text>
</a>
</g>
</g>
<!-- vigra&#45;&gt;conda&#45;forge&#45;pinning -->
<g id="edge54" class="edge">
<title>vigra&#45;&gt;conda&#45;forge&#45;pinning</title>
<path fill="none" stroke="black" d="M2093.61,-78.39C2086.52,-75.95 2078.8,-73.6 2071.5,-72 1923.7,-39.65 1749.02,-27.04 1638.02,-22.13"/>
<polygon fill="black" stroke="black" points="1637.95,-18.62 1627.81,-21.69 1637.65,-25.62 1637.95,-18.62"/>
</g>
<!-- yaafe -->
<g id="node36" class="node">
<title>yaafe</title>
<g id="a_node36"><a xlink:href="https://github.com/conda-forge/yaafe-feedstock/pull/9" xlink:title="yaafe">
<ellipse fill="#31688e" stroke="black" cx="2158.5" cy="-162" rx="35.19" ry="18"/>
<text text-anchor="middle" x="2158.5" y="-158.3" font-family="Times,serif" font-size="14.00" fill="white">yaafe</text>
</a>
</g>
</g>
<!-- yaafe&#45;&gt;conda&#45;forge&#45;pinning -->
<g id="edge55" class="edge">
<title>yaafe&#45;&gt;conda&#45;forge&#45;pinning</title>
<path fill="none" stroke="black" d="M2166.11,-144.17C2173.83,-124.26 2182.33,-91.37 2164.5,-72 2129.77,-34.26 1813.47,-23.39 1639.67,-20.26"/>
<polygon fill="black" stroke="black" points="1639.52,-16.76 1629.46,-20.08 1639.4,-23.76 1639.52,-16.76"/>
</g>
<!-- alps -->
<g id="node37" class="node">
<title>alps</title>
<g id="a_node37"><a xlink:href="https://github.com/conda-forge/alps-feedstock/pull/31" xlink:title="alps">
<ellipse fill="#31688e" stroke="black" cx="2200.5" cy="-234" rx="30.59" ry="18"/>
<text text-anchor="middle" x="2200.5" y="-230.3" font-family="Times,serif" font-size="14.00" fill="white">alps</text>
</a>
</g>
</g>
<!-- alps&#45;&gt;conda&#45;forge&#45;pinning -->
<g id="edge56" class="edge">
<title>alps&#45;&gt;conda&#45;forge&#45;pinning</title>
<path fill="none" stroke="black" d="M2205.32,-215.97C2213.7,-182.29 2226.28,-107.42 2184.5,-72 2143.92,-37.61 1816.16,-25.22 1639.08,-21.02"/>
<polygon fill="black" stroke="black" points="1639.02,-17.51 1628.94,-20.78 1638.86,-24.51 1639.02,-17.51"/>
</g>
<!-- spdlib -->
<g id="node38" class="node">
<title>spdlib</title>
<g id="a_node38"><a xlink:href="https://github.com/conda-forge/spdlib-feedstock/pull/15" xlink:title="spdlib">
<ellipse fill="#31688e" stroke="black" cx="2259.5" cy="-306" rx="40.5" ry="18"/>
<text text-anchor="middle" x="2259.5" y="-302.3" font-family="Times,serif" font-size="14.00" fill="white">spdlib</text>
</a>
</g>
</g>
<!-- spdlib&#45;&gt;conda&#45;forge&#45;pinning -->
<g id="edge57" class="edge">
<title>spdlib&#45;&gt;conda&#45;forge&#45;pinning</title>
<path fill="none" stroke="black" d="M2262.06,-287.83C2267.53,-243.94 2275.02,-127.25 2210.5,-72 2168.19,-35.77 1822.4,-24.19 1639.31,-20.58"/>
<polygon fill="black" stroke="black" points="1639.17,-17.07 1629.1,-20.38 1639.03,-24.07 1639.17,-17.07"/>
</g>
<!-- mpb -->
<g id="node39" class="node">
<title>mpb</title>
<g id="a_node39"><a xlink:href="https://github.com/conda-forge/mpb-feedstock/pull/22" xlink:title="mpb">
<ellipse fill="#31688e" stroke="black" cx="1342.5" cy="-162" rx="27" ry="18"/>
<text text-anchor="middle" x="1342.5" y="-158.3" font-family="Times,serif" font-size="14.00" fill="white">mpb</text>
</a>
</g>
</g>
<!-- mpb&#45;&gt;conda&#45;forge&#45;pinning -->
<g id="edge58" class="edge">
<title>mpb&#45;&gt;conda&#45;forge&#45;pinning</title>
<path fill="none" stroke="black" d="M1347.45,-143.95C1354.02,-124.13 1367.44,-91.63 1389.5,-72 1408.09,-55.46 1432.41,-43.83 1455.39,-35.77"/>
<polygon fill="black" stroke="black" points="1456.75,-39.01 1465.14,-32.53 1454.54,-32.36 1456.75,-39.01"/>
</g>
<!-- mpb&#45;&gt;pymeep -->
<g id="edge59" class="edge">
<title>mpb&#45;&gt;pymeep</title>
<path fill="none" stroke="black" d="M1328.41,-146.5C1319.39,-137.22 1307.5,-124.97 1297.17,-114.34"/>
<polygon fill="black" stroke="black" points="1299.47,-111.68 1289.99,-106.95 1294.45,-116.56 1299.47,-111.68"/>
</g>
<!-- openpmd&#45;api -->
<g id="node40" class="node">
<title>openpmd&#45;api</title>
<g id="a_node40"><a xlink:href="https://github.com/conda-forge/openpmd-api-feedstock" xlink:title="openpmd api">
<ellipse fill="#fde725" stroke="black" cx="2390.5" cy="-90" rx="64.5" ry="18"/>
<text text-anchor="middle" x="2390.5" y="-86.3" font-family="Times,serif" font-size="14.00">openpmd api</text>
</a>
</g>
</g>
<!-- openpmd&#45;api&#45;&gt;conda&#45;forge&#45;pinning -->
<g id="edge60" class="edge">
<title>openpmd&#45;api&#45;&gt;conda&#45;forge&#45;pinning</title>
<path fill="none" stroke="black" d="M2343.08,-77.63C2332.72,-75.48 2321.78,-73.45 2311.5,-72 2073.49,-38.54 1791.81,-26.04 1638.93,-21.49"/>
<polygon fill="black" stroke="black" points="1638.7,-17.98 1628.6,-21.19 1638.5,-24.98 1638.7,-17.98"/>
</g>
<!-- cmor -->
<g id="node41" class="node">
<title>cmor</title>
<g id="a_node41"><a xlink:href="https://github.com/conda-forge/cmor-feedstock/pull/22" xlink:title="cmor">
<ellipse fill="#31688e" stroke="black" cx="2483.5" cy="-378" rx="30.59" ry="18"/>
<text text-anchor="middle" x="2483.5" y="-374.3" font-family="Times,serif" font-size="14.00" fill="white">cmor</text>
</a>
</g>
</g>
<!-- cmor&#45;&gt;conda&#45;forge&#45;pinning -->
<g id="edge61" class="edge">
<title>cmor&#45;&gt;conda&#45;forge&#45;pinning</title>
<path fill="none" stroke="black" d="M2483.5,-359.95C2483.5,-333.29 2483.5,-280.11 2483.5,-235 2483.5,-235 2483.5,-235 2483.5,-161 2483.5,-120.46 2494.43,-98.21 2463.5,-72 2432.5,-45.73 1880.72,-28.21 1638.71,-21.77"/>
<polygon fill="black" stroke="black" points="1638.57,-18.26 1628.48,-21.49 1638.38,-25.26 1638.57,-18.26"/>
</g>
<!-- freecad -->
<g id="node42" class="node">
<title>freecad</title>
<g id="a_node42"><a xlink:href="https://github.com/conda-forge/freecad-feedstock/pull/38" xlink:title="freecad">
<ellipse fill="#31688e" stroke="black" cx="2556.5" cy="-90" rx="45" ry="18"/>
<text text-anchor="middle" x="2556.5" y="-86.3" font-family="Times,serif" font-size="14.00" fill="white">freecad</text>
</a>
</g>
</g>
<!-- freecad&#45;&gt;conda&#45;forge&#45;pinning -->
<g id="edge62" class="edge">
<title>freecad&#45;&gt;conda&#45;forge&#45;pinning</title>
<path fill="none" stroke="black" d="M2522.8,-77.87C2514.6,-75.56 2505.8,-73.4 2497.5,-72 2335.28,-44.57 1857.22,-28.18 1638.29,-21.93"/>
<polygon fill="black" stroke="black" points="1638.16,-18.42 1628.06,-21.64 1637.96,-25.42 1638.16,-18.42"/>
</g>
<!-- scilab -->
<g id="node43" class="node">
<title>scilab</title>
<g id="a_node43"><a xlink:href="https://github.com/conda-forge/scilab-feedstock/pull/12" xlink:title="scilab">
<ellipse fill="#31688e" stroke="black" cx="2598.5" cy="-162" rx="40.5" ry="18"/>
<text text-anchor="middle" x="2598.5" y="-158.3" font-family="Times,serif" font-size="14.00" fill="white">scilab</text>
</a>
</g>
</g>
<!-- scilab&#45;&gt;conda&#45;forge&#45;pinning -->
<g id="edge63" class="edge">
<title>scilab&#45;&gt;conda&#45;forge&#45;pinning</title>
<path fill="none" stroke="black" d="M2607.67,-144.47C2617.36,-124.53 2628.89,-91.31 2610.5,-72 2577.43,-37.27 1911.1,-24.26 1639.87,-20.39"/>
<polygon fill="black" stroke="black" points="1639.66,-16.88 1629.61,-20.24 1639.56,-23.88 1639.66,-16.88"/>
</g>
<!-- adios2 -->
<g id="node44" class="node">
<title>adios2</title>
<g id="a_node44"><a xlink:href="https://github.com/conda-forge/adios2-feedstock/pull/11" xlink:title="adios2">
<ellipse fill="#31688e" stroke="black" cx="2359.5" cy="-162" rx="40.5" ry="18"/>
<text text-anchor="middle" x="2359.5" y="-158.3" font-family="Times,serif" font-size="14.00" fill="white">adios2</text>
</a>
</g>
</g>
<!-- adios2&#45;&gt;conda&#45;forge&#45;pinning -->
<g id="edge64" class="edge">
<title>adios2&#45;&gt;conda&#45;forge&#45;pinning</title>
<path fill="none" stroke="black" d="M2346.22,-144.68C2326.82,-121.31 2291.12,-80.22 2273.5,-72 2217.44,-45.83 1831.77,-29.28 1637.64,-22.51"/>
<polygon fill="black" stroke="black" points="1637.52,-19 1627.4,-22.15 1637.28,-26 1637.52,-19"/>
</g>
<!-- adios2&#45;&gt;openpmd&#45;api -->
<g id="edge65" class="edge">
<title>adios2&#45;&gt;openpmd&#45;api</title>
<path fill="none" stroke="black" d="M2367,-144.05C2370.53,-136.09 2374.82,-126.41 2378.76,-117.51"/>
<polygon fill="black" stroke="black" points="2382,-118.84 2382.85,-108.28 2375.6,-116 2382,-118.84"/>
</g>
<!-- bonsu -->
<g id="node45" class="node">
<title>bonsu</title>
<g id="a_node45"><a xlink:href="https://github.com/conda-forge/bonsu-feedstock/pull/5" xlink:title="bonsu">
<ellipse fill="#31688e" stroke="black" cx="2654.5" cy="-234" rx="35.19" ry="18"/>
<text text-anchor="middle" x="2654.5" y="-230.3" font-family="Times,serif" font-size="14.00" fill="white">bonsu</text>
</a>
</g>
</g>
<!-- bonsu&#45;&gt;conda&#45;forge&#45;pinning -->
<g id="edge66" class="edge">
<title>bonsu&#45;&gt;conda&#45;forge&#45;pinning</title>
<path fill="none" stroke="black" d="M2658.18,-215.89C2664.33,-182.08 2672.15,-106.98 2629.5,-72 2591.68,-40.98 1912.9,-25.73 1639.36,-20.83"/>
<polygon fill="black" stroke="black" points="1639.07,-17.32 1629.01,-20.64 1638.94,-24.32 1639.07,-17.32"/>
</g>
<!-- dagmc -->
<g id="node46" class="node">
<title>dagmc</title>
<g id="a_node46"><a xlink:href="https://github.com/conda-forge/dagmc-feedstock/pull/1" xlink:title="dagmc">
<ellipse fill="#31688e" stroke="black" cx="2717.5" cy="-306" rx="35.19" ry="18"/>
<text text-anchor="middle" x="2717.5" y="-302.3" font-family="Times,serif" font-size="14.00" fill="white">dagmc</text>
</a>
</g>
</g>
<!-- dagmc&#45;&gt;conda&#45;forge&#45;pinning -->
<g id="edge68" class="edge">
<title>dagmc&#45;&gt;conda&#45;forge&#45;pinning</title>
<path fill="none" stroke="black" d="M2719.17,-287.91C2722.44,-243.69 2724.18,-125.28 2656.5,-72 2616.99,-40.89 1917.2,-25.63 1639.1,-20.78"/>
<polygon fill="black" stroke="black" points="1639.05,-17.28 1628.99,-20.6 1638.92,-24.27 1639.05,-17.28"/>
</g>
<!-- nccmp -->
<g id="node47" class="node">
<title>nccmp</title>
<g id="a_node47"><a xlink:href="https://github.com/conda-forge/nccmp-feedstock/pull/2" xlink:title="nccmp">
<ellipse fill="#31688e" stroke="black" cx="2780.5" cy="-378" rx="35.19" ry="18"/>
<text text-anchor="middle" x="2780.5" y="-374.3" font-family="Times,serif" font-size="14.00" fill="white">nccmp</text>
</a>
</g>
</g>
<!-- nccmp&#45;&gt;conda&#45;forge&#45;pinning -->
<g id="edge69" class="edge">
<title>nccmp&#45;&gt;conda&#45;forge&#45;pinning</title>
<path fill="none" stroke="black" d="M2780.5,-359.95C2780.5,-333.29 2780.5,-280.11 2780.5,-235 2780.5,-235 2780.5,-235 2780.5,-161 2780.5,-103.47 2739.45,-94.5 2686.5,-72 2592.05,-31.86 1913.9,-22.04 1640.41,-19.71"/>
<polygon fill="black" stroke="black" points="1640.09,-16.2 1630.06,-19.62 1640.03,-23.2 1640.09,-16.2"/>
</g>
</g>
</svg>
