<?xml version="1.0" encoding="UTF-8" standalone="no"?>
<!DOCTYPE svg PUBLIC "-//W3C//DTD SVG 1.1//EN"
 "http://www.w3.org/Graphics/SVG/1.1/DTD/svg11.dtd">
<!-- Generated by graphviz version 2.42.3 (20191010.1750)
 -->
<!-- Title: %3 Pages: 1 -->
<svg width="2225pt" height="476pt"
 viewBox="0.00 0.00 2224.60 476.00" xmlns="http://www.w3.org/2000/svg" xmlns:xlink="http://www.w3.org/1999/xlink">
<g id="graph0" class="graph" transform="scale(1 1) rotate(0) translate(4 472)">
<title>%3</title>
<polygon fill="white" stroke="transparent" points="-4,4 -4,-472 2220.6,-472 2220.6,4 -4,4"/>
<!-- caffe -->
<g id="node1" class="node">
<title>caffe</title>
<g id="a_node1"><a xlink:href="https://github.com/conda-forge/caffe-feedstock" xlink:title="caffe">
<ellipse fill="#fde725" stroke="black" cx="1121.5" cy="-378" rx="35.19" ry="18"/>
<text text-anchor="middle" x="1121.5" y="-374.3" font-family="Times,serif" font-size="14.00">caffe</text>
</a>
</g>
</g>
<!-- conda&#45;forge&#45;pinning -->
<g id="node2" class="node">
<title>conda&#45;forge&#45;pinning</title>
<ellipse fill="none" stroke="black" cx="1197.5" cy="-18" rx="103.5" ry="18"/>
<text text-anchor="middle" x="1197.5" y="-14.3" font-family="Times,serif" font-size="14.00">conda&#45;forge&#45;pinning</text>
</g>
<!-- caffe&#45;&gt;conda&#45;forge&#45;pinning -->
<g id="edge1" class="edge">
<title>caffe&#45;&gt;conda&#45;forge&#45;pinning</title>
<path fill="none" stroke="black" d="M1121.5,-359.95C1121.5,-333.29 1121.5,-280.11 1121.5,-235 1121.5,-235 1121.5,-235 1121.5,-161 1121.5,-120.03 1125.16,-107.56 1145.5,-72 1151.64,-61.27 1160.48,-51.14 1169.13,-42.67"/>
<polygon fill="black" stroke="black" points="1171.7,-45.06 1176.61,-35.68 1166.92,-39.95 1171.7,-45.06"/>
</g>
<!-- cyclus -->
<g id="node3" class="node">
<title>cyclus</title>
<g id="a_node3"><a xlink:href="https://github.com/conda-forge/cyclus-feedstock/pull/56" xlink:title="cyclus">
<ellipse fill="#31688e" stroke="black" cx="40.5" cy="-90" rx="40.5" ry="18"/>
<text text-anchor="middle" x="40.5" y="-86.3" font-family="Times,serif" font-size="14.00" fill="white">cyclus</text>
</a>
</g>
</g>
<!-- cyclus&#45;&gt;conda&#45;forge&#45;pinning -->
<g id="edge2" class="edge">
<title>cyclus&#45;&gt;conda&#45;forge&#45;pinning</title>
<path fill="none" stroke="black" d="M71,-78.08C78.88,-75.67 87.43,-73.42 95.5,-72 282.87,-39.08 842.99,-25.34 1084.56,-20.83"/>
<polygon fill="black" stroke="black" points="1084.84,-24.33 1094.77,-20.64 1084.71,-17.33 1084.84,-24.33"/>
</g>
<!-- fenics -->
<g id="node4" class="node">
<title>fenics</title>
<g id="a_node4"><a xlink:href="https://github.com/conda-forge/fenics-feedstock/pull/107" xlink:title="fenics">
<ellipse fill="#31688e" stroke="black" cx="93.5" cy="-162" rx="40.5" ry="18"/>
<text text-anchor="middle" x="93.5" y="-158.3" font-family="Times,serif" font-size="14.00" fill="white">fenics</text>
</a>
</g>
</g>
<!-- fenics&#45;&gt;conda&#45;forge&#45;pinning -->
<g id="edge3" class="edge">
<title>fenics&#45;&gt;conda&#45;forge&#45;pinning</title>
<path fill="none" stroke="black" d="M98.57,-144.04C105.84,-123.01 121.45,-87.99 148.5,-72 227.36,-25.39 828.71,-19.3 1083.74,-18.83"/>
<polygon fill="black" stroke="black" points="1083.78,-22.33 1093.78,-18.82 1083.77,-15.33 1083.78,-22.33"/>
</g>
<!-- graph -->
<g id="node5" class="node">
<title>graph</title>
<g id="a_node5"><a xlink:href="https://github.com/conda-forge/graph-feedstock/pull/5" xlink:title="graph">
<ellipse fill="#31688e" stroke="black" cx="127.5" cy="-234" rx="35.19" ry="18"/>
<text text-anchor="middle" x="127.5" y="-230.3" font-family="Times,serif" font-size="14.00" fill="white">graph</text>
</a>
</g>
</g>
<!-- graph&#45;&gt;conda&#45;forge&#45;pinning -->
<g id="edge4" class="edge">
<title>graph&#45;&gt;conda&#45;forge&#45;pinning</title>
<path fill="none" stroke="black" d="M132.77,-216.01C144.4,-181.71 175.87,-104.72 232.5,-72 304.56,-30.37 844.53,-21.43 1083.87,-19.52"/>
<polygon fill="black" stroke="black" points="1084.02,-23.02 1093.99,-19.44 1083.97,-16.02 1084.02,-23.02"/>
</g>
<!-- h5py -->
<g id="node6" class="node">
<title>h5py</title>
<g id="a_node6"><a xlink:href="https://github.com/conda-forge/h5py-feedstock/pull/72" xlink:title="h5py">
<ellipse fill="#31688e" stroke="black" cx="838.5" cy="-450" rx="30.59" ry="18"/>
<text text-anchor="middle" x="838.5" y="-446.3" font-family="Times,serif" font-size="14.00" fill="white">h5py</text>
</a>
</g>
</g>
<!-- h5py&#45;&gt;caffe -->
<g id="edge5" class="edge">
<title>h5py&#45;&gt;caffe</title>
<path fill="none" stroke="black" d="M867.22,-443.57C911.61,-434.93 999.41,-416.89 1072.5,-396 1076.34,-394.9 1080.31,-393.68 1084.26,-392.4"/>
<polygon fill="black" stroke="black" points="1085.57,-395.65 1093.94,-389.16 1083.35,-389.02 1085.57,-395.65"/>
</g>
<!-- h5py&#45;&gt;conda&#45;forge&#45;pinning -->
<g id="edge6" class="edge">
<title>h5py&#45;&gt;conda&#45;forge&#45;pinning</title>
<path fill="none" stroke="black" d="M869.06,-448.85C942.86,-447.79 1127.53,-440.62 1165.5,-396 1175.87,-383.81 1165.88,-376 1165.5,-360 1164.17,-304.4 1159.5,-290.62 1159.5,-235 1159.5,-235 1159.5,-235 1159.5,-161 1159.5,-119.63 1174.73,-73.72 1185.91,-45.61"/>
<polygon fill="black" stroke="black" points="1189.26,-46.67 1189.81,-36.09 1182.78,-44.02 1189.26,-46.67"/>
</g>
<!-- openmc -->
<g id="node7" class="node">
<title>openmc</title>
<g id="a_node7"><a xlink:href="https://github.com/conda-forge/openmc-feedstock" xlink:title="openmc">
<ellipse fill="#fde725" stroke="black" cx="1228.5" cy="-306" rx="40.5" ry="18"/>
<text text-anchor="middle" x="1228.5" y="-302.3" font-family="Times,serif" font-size="14.00">openmc</text>
</a>
</g>
</g>
<!-- h5py&#45;&gt;openmc -->
<g id="edge7" class="edge">
<title>h5py&#45;&gt;openmc</title>
<path fill="none" stroke="black" d="M869.18,-448.48C946.87,-446.57 1148.68,-437.61 1198.5,-396 1216.64,-380.85 1223.85,-354.32 1226.7,-334.16"/>
<polygon fill="black" stroke="black" points="1230.2,-334.34 1227.85,-324.01 1223.25,-333.55 1230.2,-334.34"/>
</g>
<!-- rsgislib -->
<g id="node8" class="node">
<title>rsgislib</title>
<g id="a_node8"><a xlink:href="https://github.com/conda-forge/rsgislib-feedstock" xlink:title="rsgislib">
<ellipse fill="#fde725" stroke="black" cx="230.5" cy="-234" rx="50.09" ry="18"/>
<text text-anchor="middle" x="230.5" y="-230.3" font-family="Times,serif" font-size="14.00">rsgislib</text>
</a>
</g>
</g>
<!-- h5py&#45;&gt;rsgislib -->
<g id="edge8" class="edge">
<title>h5py&#45;&gt;rsgislib</title>
<path fill="none" stroke="black" d="M808.09,-447.87C699.58,-443.58 335.74,-427.01 294.5,-396 251.83,-363.92 237.57,-298.93 232.83,-262.09"/>
<polygon fill="black" stroke="black" points="236.29,-261.6 231.68,-252.06 229.34,-262.39 236.29,-261.6"/>
</g>
<!-- h5utils -->
<g id="node9" class="node">
<title>h5utils</title>
<g id="a_node9"><a xlink:href="https://github.com/conda-forge/h5utils-feedstock" xlink:title="h5utils">
<ellipse fill="#fde725" stroke="black" cx="273.5" cy="-162" rx="45" ry="18"/>
<text text-anchor="middle" x="273.5" y="-158.3" font-family="Times,serif" font-size="14.00">h5utils</text>
</a>
</g>
</g>
<!-- h5py&#45;&gt;h5utils -->
<g id="edge9" class="edge">
<title>h5py&#45;&gt;h5utils</title>
<path fill="none" stroke="black" d="M807.93,-447.83C703.93,-443.56 368.35,-427.46 332.5,-396 270.68,-341.74 310.95,-295.4 289.5,-216 287.18,-207.42 284.45,-198.13 281.91,-189.76"/>
<polygon fill="black" stroke="black" points="285.23,-188.64 278.94,-180.11 278.54,-190.7 285.23,-188.64"/>
</g>
<!-- pymeep -->
<g id="node10" class="node">
<title>pymeep</title>
<g id="a_node10"><a xlink:href="https://github.com/conda-forge/pymeep-feedstock" xlink:title="pymeep">
<ellipse fill="#fde725" stroke="black" cx="357.5" cy="-90" rx="40.5" ry="18"/>
<text text-anchor="middle" x="357.5" y="-86.3" font-family="Times,serif" font-size="14.00">pymeep</text>
</a>
</g>
</g>
<!-- h5py&#45;&gt;pymeep -->
<g id="edge10" class="edge">
<title>h5py&#45;&gt;pymeep</title>
<path fill="none" stroke="black" d="M808.09,-446.86C700.83,-438.5 346.5,-403.57 346.5,-307 346.5,-307 346.5,-307 346.5,-233 346.5,-192.88 350.92,-146.57 354.16,-118.03"/>
<polygon fill="black" stroke="black" points="357.64,-118.36 355.33,-108.02 350.69,-117.54 357.64,-118.36"/>
</g>
<!-- blosc&#45;hdf5&#45;plugin -->
<g id="node11" class="node">
<title>blosc&#45;hdf5&#45;plugin</title>
<g id="a_node11"><a xlink:href="https://github.com/conda-forge/blosc-hdf5-plugin-feedstock" xlink:title="blosc hdf5 plugin">
<ellipse fill="#fde725" stroke="black" cx="540.5" cy="-162" rx="93.68" ry="18"/>
<text text-anchor="middle" x="540.5" y="-158.3" font-family="Times,serif" font-size="14.00">blosc hdf5 plugin</text>
</a>
</g>
</g>
<!-- h5py&#45;&gt;blosc&#45;hdf5&#45;plugin -->
<g id="edge11" class="edge">
<title>h5py&#45;&gt;blosc&#45;hdf5&#45;plugin</title>
<path fill="none" stroke="black" d="M807.86,-449.61C763.18,-448.84 679.98,-440.91 629.5,-396 567.85,-341.14 548.66,-238.83 542.89,-190.12"/>
<polygon fill="black" stroke="black" points="546.35,-189.6 541.79,-180.03 539.39,-190.35 546.35,-189.6"/>
</g>
<!-- isce2 -->
<g id="node12" class="node">
<title>isce2</title>
<g id="a_node12"><a xlink:href="https://github.com/conda-forge/isce2-feedstock" xlink:title="isce2">
<ellipse fill="#fde725" stroke="black" cx="562.5" cy="-90" rx="35.19" ry="18"/>
<text text-anchor="middle" x="562.5" y="-86.3" font-family="Times,serif" font-size="14.00">isce2</text>
</a>
</g>
</g>
<!-- h5py&#45;&gt;isce2 -->
<g id="edge12" class="edge">
<title>h5py&#45;&gt;isce2</title>
<path fill="none" stroke="black" d="M807.64,-449.53C767.27,-448.37 697.57,-439.66 662.5,-396 592.16,-308.44 700.6,-240.72 643.5,-144 633.5,-127.06 615.72,-114.54 599.35,-105.93"/>
<polygon fill="black" stroke="black" points="600.47,-102.58 589.95,-101.3 597.38,-108.86 600.47,-102.58"/>
</g>
<!-- bitshuffle -->
<g id="node13" class="node">
<title>bitshuffle</title>
<g id="a_node13"><a xlink:href="https://github.com/conda-forge/bitshuffle-feedstock" xlink:title="bitshuffle">
<ellipse fill="#fde725" stroke="black" cx="731.5" cy="-378" rx="60" ry="18"/>
<text text-anchor="middle" x="731.5" y="-374.3" font-family="Times,serif" font-size="14.00">bitshuffle</text>
</a>
</g>
</g>
<!-- h5py&#45;&gt;bitshuffle -->
<g id="edge13" class="edge">
<title>h5py&#45;&gt;bitshuffle</title>
<path fill="none" stroke="black" d="M818.87,-436.16C803.53,-426.12 781.86,-411.95 763.95,-400.23"/>
<polygon fill="black" stroke="black" points="765.78,-397.24 755.5,-394.7 761.95,-403.1 765.78,-397.24"/>
</g>
<!-- triqs -->
<g id="node14" class="node">
<title>triqs</title>
<g id="a_node14"><a xlink:href="https://github.com/conda-forge/triqs-feedstock" xlink:title="triqs">
<ellipse fill="#fde725" stroke="black" cx="763.5" cy="-162" rx="35.19" ry="18"/>
<text text-anchor="middle" x="763.5" y="-158.3" font-family="Times,serif" font-size="14.00">triqs</text>
</a>
</g>
</g>
<!-- h5py&#45;&gt;triqs -->
<g id="edge14" class="edge">
<title>h5py&#45;&gt;triqs</title>
<path fill="none" stroke="black" d="M831.65,-432.14C824.27,-414.14 812.01,-384.85 800.5,-360 792.98,-343.77 787.62,-341.14 782.5,-324 768.88,-278.45 764.96,-222.92 763.87,-190.41"/>
<polygon fill="black" stroke="black" points="767.37,-190.22 763.6,-180.31 760.37,-190.4 767.37,-190.22"/>
</g>
<!-- hdf5plugin -->
<g id="node15" class="node">
<title>hdf5plugin</title>
<g id="a_node15"><a xlink:href="https://github.com/conda-forge/hdf5plugin-feedstock" xlink:title="hdf5plugin">
<ellipse fill="#fde725" stroke="black" cx="851.5" cy="-306" rx="60" ry="18"/>
<text text-anchor="middle" x="851.5" y="-302.3" font-family="Times,serif" font-size="14.00">hdf5plugin</text>
</a>
</g>
</g>
<!-- h5py&#45;&gt;hdf5plugin -->
<g id="edge15" class="edge">
<title>h5py&#45;&gt;hdf5plugin</title>
<path fill="none" stroke="black" d="M840.07,-431.87C842.28,-407.67 846.35,-363.21 848.99,-334.39"/>
<polygon fill="black" stroke="black" points="852.5,-334.47 849.93,-324.19 845.53,-333.83 852.5,-334.47"/>
</g>
<!-- prismatic_split -->
<g id="node16" class="node">
<title>prismatic_split</title>
<g id="a_node16"><a xlink:href="https://github.com/conda-forge/prismatic_split-feedstock" xlink:title="prismatic_split">
<ellipse fill="#fde725" stroke="black" cx="913.5" cy="-234" rx="84" ry="18"/>
<text text-anchor="middle" x="913.5" y="-230.3" font-family="Times,serif" font-size="14.00">prismatic_split</text>
</a>
</g>
</g>
<!-- h5py&#45;&gt;prismatic_split -->
<g id="edge16" class="edge">
<title>h5py&#45;&gt;prismatic_split</title>
<path fill="none" stroke="black" d="M852.68,-433.96C872.41,-411.89 907.2,-368.51 920.5,-324 926.54,-303.76 924.17,-279.86 920.63,-261.92"/>
<polygon fill="black" stroke="black" points="924.04,-261.13 918.46,-252.12 917.2,-262.64 924.04,-261.13"/>
</g>
<!-- digital_rf -->
<g id="node17" class="node">
<title>digital_rf</title>
<g id="a_node17"><a xlink:href="https://github.com/conda-forge/digital_rf-feedstock" xlink:title="digital_rf">
<ellipse fill="#fde725" stroke="black" cx="975.5" cy="-162" rx="60" ry="18"/>
<text text-anchor="middle" x="975.5" y="-158.3" font-family="Times,serif" font-size="14.00">digital_rf</text>
</a>
</g>
</g>
<!-- h5py&#45;&gt;digital_rf -->
<g id="edge17" class="edge">
<title>h5py&#45;&gt;digital_rf</title>
<path fill="none" stroke="black" d="M858.6,-436.37C873.4,-426.48 893.48,-411.8 908.5,-396 961.84,-339.89 983.71,-325.99 1006.5,-252 1011.21,-236.71 1010.68,-231.44 1006.5,-216 1003.88,-206.33 999,-196.61 993.88,-188.19"/>
<polygon fill="black" stroke="black" points="996.7,-186.11 988.32,-179.62 990.83,-189.92 996.7,-186.11"/>
</g>
<!-- pp&#45;sketchlib -->
<g id="node18" class="node">
<title>pp&#45;sketchlib</title>
<g id="a_node18"><a xlink:href="https://github.com/conda-forge/pp-sketchlib-feedstock" xlink:title="pp sketchlib">
<ellipse fill="#fde725" stroke="black" cx="1023.5" cy="-90" rx="69.59" ry="18"/>
<text text-anchor="middle" x="1023.5" y="-86.3" font-family="Times,serif" font-size="14.00">pp sketchlib</text>
</a>
</g>
</g>
<!-- h5py&#45;&gt;pp&#45;sketchlib -->
<g id="edge18" class="edge">
<title>h5py&#45;&gt;pp&#45;sketchlib</title>
<path fill="none" stroke="black" d="M863.41,-439.28C884.94,-430.13 916.17,-415.01 939.5,-396 971.57,-369.86 978.52,-360.22 998.5,-324 1038.38,-251.7 1059.98,-225.11 1044.5,-144 1042.79,-135.06 1039.6,-125.7 1036.21,-117.37"/>
<polygon fill="black" stroke="black" points="1039.41,-115.95 1032.22,-108.17 1032.99,-118.73 1039.41,-115.95"/>
</g>
<!-- openmc&#45;&gt;conda&#45;forge&#45;pinning -->
<g id="edge19" class="edge">
<title>openmc&#45;&gt;conda&#45;forge&#45;pinning</title>
<path fill="none" stroke="black" d="M1226.65,-287.97C1221.48,-240.19 1206.78,-104.62 1200.46,-46.27"/>
<polygon fill="black" stroke="black" points="1203.93,-45.87 1199.38,-36.31 1196.97,-46.63 1203.93,-45.87"/>
</g>
<!-- rsgislib&#45;&gt;conda&#45;forge&#45;pinning -->
<g id="edge20" class="edge">
<title>rsgislib&#45;&gt;conda&#45;forge&#45;pinning</title>
<path fill="none" stroke="black" d="M223.89,-216.08C217.77,-197.78 210.81,-168.01 219.5,-144 233.68,-104.83 242.3,-90.75 279.5,-72 349.69,-36.62 855.21,-24.31 1084.7,-20.51"/>
<polygon fill="black" stroke="black" points="1084.81,-24.01 1094.75,-20.35 1084.69,-17.01 1084.81,-24.01"/>
</g>
<!-- h5utils&#45;&gt;conda&#45;forge&#45;pinning -->
<g id="edge21" class="edge">
<title>h5utils&#45;&gt;conda&#45;forge&#45;pinning</title>
<path fill="none" stroke="black" d="M274.67,-143.98C277.1,-123.22 284.56,-88.82 307.5,-72 368.66,-27.15 857.81,-19.91 1083.79,-18.98"/>
<polygon fill="black" stroke="black" points="1084.03,-22.48 1094.02,-18.94 1084,-15.48 1084.03,-22.48"/>
</g>
<!-- h5utils&#45;&gt;pymeep -->
<g id="edge22" class="edge">
<title>h5utils&#45;&gt;pymeep</title>
<path fill="none" stroke="black" d="M292.14,-145.46C303.64,-135.88 318.56,-123.45 331.25,-112.88"/>
<polygon fill="black" stroke="black" points="333.76,-115.34 339.2,-106.25 329.28,-109.96 333.76,-115.34"/>
</g>
<!-- pymeep&#45;&gt;conda&#45;forge&#45;pinning -->
<g id="edge23" class="edge">
<title>pymeep&#45;&gt;conda&#45;forge&#45;pinning</title>
<path fill="none" stroke="black" d="M390.31,-79.42C401.11,-76.6 413.24,-73.8 424.5,-72 657.09,-34.83 933.14,-23.71 1084.39,-20.4"/>
<polygon fill="black" stroke="black" points="1084.69,-23.89 1094.61,-20.18 1084.54,-16.89 1084.69,-23.89"/>
</g>
<!-- blosc&#45;hdf5&#45;plugin&#45;&gt;conda&#45;forge&#45;pinning -->
<g id="edge24" class="edge">
<title>blosc&#45;hdf5&#45;plugin&#45;&gt;conda&#45;forge&#45;pinning</title>
<path fill="none" stroke="black" d="M528.28,-143.99C515.67,-124.21 500.23,-91.75 518.5,-72 556,-31.45 900.46,-21.86 1083.83,-19.64"/>
<polygon fill="black" stroke="black" points="1084.09,-23.13 1094.05,-19.52 1084.01,-16.13 1084.09,-23.13"/>
</g>
<!-- isce2&#45;&gt;conda&#45;forge&#45;pinning -->
<g id="edge25" class="edge">
<title>isce2&#45;&gt;conda&#45;forge&#45;pinning</title>
<path fill="none" stroke="black" d="M589.38,-78.36C596.47,-75.91 604.19,-73.57 611.5,-72 773.67,-37.08 965.9,-25.14 1084.79,-21.07"/>
<polygon fill="black" stroke="black" points="1085.12,-24.56 1095,-20.74 1084.89,-17.57 1085.12,-24.56"/>
</g>
<!-- bitshuffle&#45;&gt;conda&#45;forge&#45;pinning -->
<g id="edge26" class="edge">
<title>bitshuffle&#45;&gt;conda&#45;forge&#45;pinning</title>
<path fill="none" stroke="black" d="M726.56,-359.86C709.17,-298.7 652.83,-93.75 672.5,-72 699.69,-41.93 940.26,-28.11 1086.14,-22.44"/>
<polygon fill="black" stroke="black" points="1086.62,-25.92 1096.48,-22.04 1086.35,-18.93 1086.62,-25.92"/>
</g>
<!-- triqs&#45;&gt;conda&#45;forge&#45;pinning -->
<g id="edge27" class="edge">
<title>triqs&#45;&gt;conda&#45;forge&#45;pinning</title>
<path fill="none" stroke="black" d="M735.57,-150.96C716.87,-142.61 693.69,-128.7 682.5,-108 674.89,-93.93 671.78,-83.88 682.5,-72 709.04,-42.59 943.19,-28.56 1086.47,-22.66"/>
<polygon fill="black" stroke="black" points="1086.78,-26.15 1096.63,-22.25 1086.5,-19.16 1086.78,-26.15"/>
</g>
<!-- triqs_cthyb -->
<g id="node19" class="node">
<title>triqs_cthyb</title>
<g id="a_node19"><a xlink:href="https://github.com/conda-forge/triqs_cthyb-feedstock" xlink:title="triqs_cthyb">
<ellipse fill="#fde725" stroke="black" cx="756.5" cy="-90" rx="64.5" ry="18"/>
<text text-anchor="middle" x="756.5" y="-86.3" font-family="Times,serif" font-size="14.00">triqs_cthyb</text>
</a>
</g>
</g>
<!-- triqs&#45;&gt;triqs_cthyb -->
<g id="edge28" class="edge">
<title>triqs&#45;&gt;triqs_cthyb</title>
<path fill="none" stroke="black" d="M761.77,-143.7C761,-135.98 760.07,-126.71 759.21,-118.11"/>
<polygon fill="black" stroke="black" points="762.69,-117.71 758.21,-108.1 755.72,-118.4 762.69,-117.71"/>
</g>
<!-- hdf5plugin&#45;&gt;conda&#45;forge&#45;pinning -->
<g id="edge29" class="edge">
<title>hdf5plugin&#45;&gt;conda&#45;forge&#45;pinning</title>
<path fill="none" stroke="black" d="M838.68,-288.38C831.82,-278.42 824.07,-265.17 820.5,-252 816.32,-236.56 816.21,-231.41 820.5,-216 840.57,-143.97 845.96,-114.47 907.5,-72 938.03,-50.93 1026.94,-36.73 1098.34,-28.38"/>
<polygon fill="black" stroke="black" points="1098.76,-31.85 1108.29,-27.24 1097.96,-24.9 1098.76,-31.85"/>
</g>
<!-- prismatic_split&#45;&gt;conda&#45;forge&#45;pinning -->
<g id="edge30" class="edge">
<title>prismatic_split&#45;&gt;conda&#45;forge&#45;pinning</title>
<path fill="none" stroke="black" d="M909.34,-215.96C902.27,-182.28 892.44,-107.38 934.5,-72 959.41,-51.05 1035.52,-37.17 1099.49,-28.9"/>
<polygon fill="black" stroke="black" points="1100.16,-32.34 1109.65,-27.62 1099.29,-25.39 1100.16,-32.34"/>
</g>
<!-- digital_rf&#45;&gt;conda&#45;forge&#45;pinning -->
<g id="edge31" class="edge">
<title>digital_rf&#45;&gt;conda&#45;forge&#45;pinning</title>
<path fill="none" stroke="black" d="M960.89,-144.24C945.94,-125 927.17,-93.34 944.5,-72 963.7,-48.37 1033.63,-34.9 1095.11,-27.45"/>
<polygon fill="black" stroke="black" points="1095.77,-30.9 1105.29,-26.27 1094.95,-23.95 1095.77,-30.9"/>
</g>
<!-- pp&#45;sketchlib&#45;&gt;conda&#45;forge&#45;pinning -->
<g id="edge32" class="edge">
<title>pp&#45;sketchlib&#45;&gt;conda&#45;forge&#45;pinning</title>
<path fill="none" stroke="black" d="M1059.55,-74.5C1085.49,-64.06 1120.75,-49.88 1149.13,-38.46"/>
<polygon fill="black" stroke="black" points="1150.5,-41.68 1158.47,-34.7 1147.88,-35.19 1150.5,-41.68"/>
</g>
<!-- triqs_cthyb&#45;&gt;conda&#45;forge&#45;pinning -->
<g id="edge54" class="edge">
<title>triqs_cthyb&#45;&gt;conda&#45;forge&#45;pinning</title>
<path fill="none" stroke="black" d="M804.86,-78.06C814.96,-75.93 825.56,-73.8 835.5,-72 927.44,-55.4 1033.22,-40.38 1106.6,-30.6"/>
<polygon fill="black" stroke="black" points="1107.28,-34.04 1116.73,-29.26 1106.36,-27.1 1107.28,-34.04"/>
</g>
<!-- hdfeos5 -->
<g id="node20" class="node">
<title>hdfeos5</title>
<g id="a_node20"><a xlink:href="https://github.com/conda-forge/hdfeos5-feedstock/pull/27" xlink:title="hdfeos5">
<ellipse fill="#31688e" stroke="black" cx="1307.5" cy="-234" rx="45" ry="18"/>
<text text-anchor="middle" x="1307.5" y="-230.3" font-family="Times,serif" font-size="14.00" fill="white">hdfeos5</text>
</a>
</g>
</g>
<!-- hdfeos5&#45;&gt;conda&#45;forge&#45;pinning -->
<g id="edge33" class="edge">
<title>hdfeos5&#45;&gt;conda&#45;forge&#45;pinning</title>
<path fill="none" stroke="black" d="M1318.87,-216.28C1338.55,-185.07 1373.97,-117.01 1342.5,-72 1329.19,-52.96 1308.27,-40.74 1286.42,-32.9"/>
<polygon fill="black" stroke="black" points="1287.27,-29.5 1276.68,-29.7 1285.09,-36.15 1287.27,-29.5"/>
</g>
<!-- ncl -->
<g id="node21" class="node">
<title>ncl</title>
<g id="a_node21"><a xlink:href="https://github.com/conda-forge/ncl-feedstock" xlink:title="ncl">
<ellipse fill="#fde725" stroke="black" cx="1252.5" cy="-162" rx="27" ry="18"/>
<text text-anchor="middle" x="1252.5" y="-158.3" font-family="Times,serif" font-size="14.00">ncl</text>
</a>
</g>
</g>
<!-- hdfeos5&#45;&gt;ncl -->
<g id="edge34" class="edge">
<title>hdfeos5&#45;&gt;ncl</title>
<path fill="none" stroke="black" d="M1294.47,-216.41C1287.49,-207.53 1278.77,-196.44 1271.1,-186.67"/>
<polygon fill="black" stroke="black" points="1273.62,-184.21 1264.69,-178.51 1268.11,-188.54 1273.62,-184.21"/>
</g>
<!-- pynio -->
<g id="node22" class="node">
<title>pynio</title>
<g id="a_node22"><a xlink:href="https://github.com/conda-forge/pynio-feedstock" xlink:title="pynio">
<ellipse fill="#fde725" stroke="black" cx="1298.5" cy="-90" rx="35.19" ry="18"/>
<text text-anchor="middle" x="1298.5" y="-86.3" font-family="Times,serif" font-size="14.00">pynio</text>
</a>
</g>
</g>
<!-- hdfeos5&#45;&gt;pynio -->
<g id="edge35" class="edge">
<title>hdfeos5&#45;&gt;pynio</title>
<path fill="none" stroke="black" d="M1306.41,-215.87C1304.88,-191.67 1302.06,-147.21 1300.24,-118.39"/>
<polygon fill="black" stroke="black" points="1303.72,-117.95 1299.59,-108.19 1296.73,-118.39 1303.72,-117.95"/>
</g>
<!-- ncl&#45;&gt;conda&#45;forge&#45;pinning -->
<g id="edge36" class="edge">
<title>ncl&#45;&gt;conda&#45;forge&#45;pinning</title>
<path fill="none" stroke="black" d="M1246.08,-144.43C1236.7,-120.22 1219.15,-74.89 1207.91,-45.87"/>
<polygon fill="black" stroke="black" points="1211.09,-44.41 1204.22,-36.35 1204.57,-46.94 1211.09,-44.41"/>
</g>
<!-- pynio&#45;&gt;conda&#45;forge&#45;pinning -->
<g id="edge37" class="edge">
<title>pynio&#45;&gt;conda&#45;forge&#45;pinning</title>
<path fill="none" stroke="black" d="M1278.55,-75.17C1264.77,-65.62 1246.14,-52.71 1230.21,-41.67"/>
<polygon fill="black" stroke="black" points="1231.9,-38.58 1221.69,-35.76 1227.91,-44.34 1231.9,-38.58"/>
</g>
<!-- hyperion&#45;fortran -->
<g id="node23" class="node">
<title>hyperion&#45;fortran</title>
<g id="a_node23"><a xlink:href="https://github.com/conda-forge/hyperion-fortran-feedstock/pull/18" xlink:title="hyperion fortran">
<ellipse fill="#31688e" stroke="black" cx="1376.5" cy="-306" rx="89.08" ry="18"/>
<text text-anchor="middle" x="1376.5" y="-302.3" font-family="Times,serif" font-size="14.00" fill="white">hyperion fortran</text>
</a>
</g>
</g>
<!-- hyperion&#45;fortran&#45;&gt;conda&#45;forge&#45;pinning -->
<g id="edge38" class="edge">
<title>hyperion&#45;fortran&#45;&gt;conda&#45;forge&#45;pinning</title>
<path fill="none" stroke="black" d="M1381.45,-287.85C1392.41,-245.97 1413.97,-137.2 1363.5,-72 1347,-50.68 1321.87,-37.78 1296.12,-30.02"/>
<polygon fill="black" stroke="black" points="1296.81,-26.58 1286.24,-27.3 1294.94,-33.33 1296.81,-26.58"/>
</g>
<!-- marray -->
<g id="node24" class="node">
<title>marray</title>
<g id="a_node24"><a xlink:href="https://github.com/conda-forge/marray-feedstock/pull/8" xlink:title="marray">
<ellipse fill="#31688e" stroke="black" cx="1493.5" cy="-378" rx="40.5" ry="18"/>
<text text-anchor="middle" x="1493.5" y="-374.3" font-family="Times,serif" font-size="14.00" fill="white">marray</text>
</a>
</g>
</g>
<!-- marray&#45;&gt;conda&#45;forge&#45;pinning -->
<g id="edge39" class="edge">
<title>marray&#45;&gt;conda&#45;forge&#45;pinning</title>
<path fill="none" stroke="black" d="M1493.01,-359.72C1490.57,-307.67 1475.85,-151.06 1387.5,-72 1362.64,-49.75 1329.18,-36.76 1297.28,-29.21"/>
<polygon fill="black" stroke="black" points="1297.95,-25.77 1287.43,-27.03 1296.44,-32.61 1297.95,-25.77"/>
</g>
<!-- pyne -->
<g id="node25" class="node">
<title>pyne</title>
<g id="a_node25"><a xlink:href="https://github.com/conda-forge/pyne-feedstock/pull/40" xlink:title="pyne">
<ellipse fill="#31688e" stroke="black" cx="1496.5" cy="-90" rx="30.59" ry="18"/>
<text text-anchor="middle" x="1496.5" y="-86.3" font-family="Times,serif" font-size="14.00" fill="white">pyne</text>
</a>
</g>
</g>
<!-- pyne&#45;&gt;conda&#45;forge&#45;pinning -->
<g id="edge40" class="edge">
<title>pyne&#45;&gt;conda&#45;forge&#45;pinning</title>
<path fill="none" stroke="black" d="M1471.98,-78.95C1465.4,-76.47 1458.24,-73.96 1451.5,-72 1394.95,-55.53 1329.92,-42.06 1279.81,-32.82"/>
<polygon fill="black" stroke="black" points="1280.14,-29.32 1269.67,-30.97 1278.88,-36.21 1280.14,-29.32"/>
</g>
<!-- r&#45;hdf5r -->
<g id="node26" class="node">
<title>r&#45;hdf5r</title>
<g id="a_node26"><a xlink:href="https://github.com/conda-forge/r-hdf5r-feedstock/pull/12" xlink:title="r hdf5r">
<ellipse fill="#31688e" stroke="black" cx="1520.5" cy="-162" rx="45" ry="18"/>
<text text-anchor="middle" x="1520.5" y="-158.3" font-family="Times,serif" font-size="14.00" fill="white">r hdf5r</text>
</a>
</g>
</g>
<!-- r&#45;hdf5r&#45;&gt;conda&#45;forge&#45;pinning -->
<g id="edge41" class="edge">
<title>r&#45;hdf5r&#45;&gt;conda&#45;forge&#45;pinning</title>
<path fill="none" stroke="black" d="M1530.76,-144.13C1541.25,-124.49 1553.75,-92.16 1536.5,-72 1507.58,-38.21 1397.04,-25.8 1309.95,-21.34"/>
<polygon fill="black" stroke="black" points="1309.88,-17.83 1299.72,-20.84 1309.54,-24.82 1309.88,-17.83"/>
</g>
<!-- shogun -->
<g id="node27" class="node">
<title>shogun</title>
<g id="a_node27"><a xlink:href="https://github.com/conda-forge/shogun-feedstock/pull/20" xlink:title="shogun">
<ellipse fill="#31688e" stroke="black" cx="1562.5" cy="-234" rx="40.5" ry="18"/>
<text text-anchor="middle" x="1562.5" y="-230.3" font-family="Times,serif" font-size="14.00" fill="white">shogun</text>
</a>
</g>
</g>
<!-- shogun&#45;&gt;conda&#45;forge&#45;pinning -->
<g id="edge42" class="edge">
<title>shogun&#45;&gt;conda&#45;forge&#45;pinning</title>
<path fill="none" stroke="black" d="M1568.42,-216.13C1578.94,-182.75 1596.16,-108.38 1555.5,-72 1519.9,-40.15 1400.3,-27.44 1309.04,-22.36"/>
<polygon fill="black" stroke="black" points="1309.07,-18.86 1298.9,-21.83 1308.7,-25.85 1309.07,-18.86"/>
</g>
<!-- yaafe -->
<g id="node28" class="node">
<title>yaafe</title>
<g id="a_node28"><a xlink:href="https://github.com/conda-forge/yaafe-feedstock/pull/9" xlink:title="yaafe">
<ellipse fill="#31688e" stroke="black" cx="1606.5" cy="-306" rx="35.19" ry="18"/>
<text text-anchor="middle" x="1606.5" y="-302.3" font-family="Times,serif" font-size="14.00" fill="white">yaafe</text>
</a>
</g>
</g>
<!-- yaafe&#45;&gt;conda&#45;forge&#45;pinning -->
<g id="edge43" class="edge">
<title>yaafe&#45;&gt;conda&#45;forge&#45;pinning</title>
<path fill="none" stroke="black" d="M1611.02,-288.02C1621.44,-244.59 1641.81,-128.9 1580.5,-72 1542.21,-36.46 1408.89,-24.55 1310.26,-20.66"/>
<polygon fill="black" stroke="black" points="1310.34,-17.17 1300.22,-20.29 1310.08,-24.16 1310.34,-17.17"/>
</g>
<!-- alps -->
<g id="node29" class="node">
<title>alps</title>
<g id="a_node29"><a xlink:href="https://github.com/conda-forge/alps-feedstock/pull/31" xlink:title="alps">
<ellipse fill="#31688e" stroke="black" cx="1669.5" cy="-378" rx="30.59" ry="18"/>
<text text-anchor="middle" x="1669.5" y="-374.3" font-family="Times,serif" font-size="14.00" fill="white">alps</text>
</a>
</g>
</g>
<!-- alps&#45;&gt;conda&#45;forge&#45;pinning -->
<g id="edge44" class="edge">
<title>alps&#45;&gt;conda&#45;forge&#45;pinning</title>
<path fill="none" stroke="black" d="M1669.5,-359.95C1669.5,-333.29 1669.5,-280.11 1669.5,-235 1669.5,-235 1669.5,-235 1669.5,-161 1669.5,-112.79 1648.71,-97.01 1607.5,-72 1558.66,-42.36 1412.01,-29.09 1308.08,-23.29"/>
<polygon fill="black" stroke="black" points="1308.02,-19.78 1297.85,-22.73 1307.65,-26.77 1308.02,-19.78"/>
</g>
<!-- spdlib -->
<g id="node30" class="node">
<title>spdlib</title>
<g id="a_node30"><a xlink:href="https://github.com/conda-forge/spdlib-feedstock/pull/15" xlink:title="spdlib">
<ellipse fill="#31688e" stroke="black" cx="1738.5" cy="-90" rx="40.5" ry="18"/>
<text text-anchor="middle" x="1738.5" y="-86.3" font-family="Times,serif" font-size="14.00" fill="white">spdlib</text>
</a>
</g>
</g>
<!-- spdlib&#45;&gt;conda&#45;forge&#45;pinning -->
<g id="edge45" class="edge">
<title>spdlib&#45;&gt;conda&#45;forge&#45;pinning</title>
<path fill="none" stroke="black" d="M1707.65,-78.33C1699.84,-75.95 1691.43,-73.64 1683.5,-72 1554.94,-45.38 1404.3,-31.58 1305.2,-24.82"/>
<polygon fill="black" stroke="black" points="1305.38,-21.33 1295.17,-24.15 1304.92,-28.31 1305.38,-21.33"/>
</g>
<!-- mpb -->
<g id="node31" class="node">
<title>mpb</title>
<g id="a_node31"><a xlink:href="https://github.com/conda-forge/mpb-feedstock/pull/22" xlink:title="mpb">
<ellipse fill="#31688e" stroke="black" cx="401.5" cy="-162" rx="27" ry="18"/>
<text text-anchor="middle" x="401.5" y="-158.3" font-family="Times,serif" font-size="14.00" fill="white">mpb</text>
</a>
</g>
</g>
<!-- mpb&#45;&gt;conda&#45;forge&#45;pinning -->
<g id="edge46" class="edge">
<title>mpb&#45;&gt;conda&#45;forge&#45;pinning</title>
<path fill="none" stroke="black" d="M413.85,-145.75C431.76,-124.88 467.16,-88.17 506.5,-72 607.93,-30.33 915.23,-21.13 1083.82,-19.29"/>
<polygon fill="black" stroke="black" points="1084.01,-22.78 1093.98,-19.18 1083.94,-15.79 1084.01,-22.78"/>
</g>
<!-- mpb&#45;&gt;pymeep -->
<g id="edge47" class="edge">
<title>mpb&#45;&gt;pymeep</title>
<path fill="none" stroke="black" d="M391.52,-145.12C386.21,-136.68 379.57,-126.1 373.56,-116.55"/>
<polygon fill="black" stroke="black" points="376.34,-114.4 368.06,-107.8 370.42,-118.13 376.34,-114.4"/>
</g>
<!-- openpmd&#45;api -->
<g id="node32" class="node">
<title>openpmd&#45;api</title>
<g id="a_node32"><a xlink:href="https://github.com/conda-forge/openpmd-api-feedstock" xlink:title="openpmd api">
<ellipse fill="#fde725" stroke="black" cx="1861.5" cy="-90" rx="64.5" ry="18"/>
<text text-anchor="middle" x="1861.5" y="-86.3" font-family="Times,serif" font-size="14.00">openpmd api</text>
</a>
</g>
</g>
<!-- openpmd&#45;api&#45;&gt;conda&#45;forge&#45;pinning -->
<g id="edge48" class="edge">
<title>openpmd&#45;api&#45;&gt;conda&#45;forge&#45;pinning</title>
<path fill="none" stroke="black" d="M1815.11,-77.33C1806,-75.32 1796.48,-73.43 1787.5,-72 1620.59,-45.46 1424.84,-31.15 1306.06,-24.31"/>
<polygon fill="black" stroke="black" points="1306.06,-20.8 1295.88,-23.73 1305.66,-27.79 1306.06,-20.8"/>
</g>
<!-- cmor -->
<g id="node33" class="node">
<title>cmor</title>
<g id="a_node33"><a xlink:href="https://github.com/conda-forge/cmor-feedstock/pull/23" xlink:title="cmor">
<ellipse fill="#31688e" stroke="black" cx="1971.5" cy="-162" rx="30.59" ry="18"/>
<text text-anchor="middle" x="1971.5" y="-158.3" font-family="Times,serif" font-size="14.00" fill="white">cmor</text>
</a>
</g>
</g>
<!-- cmor&#45;&gt;conda&#45;forge&#45;pinning -->
<g id="edge49" class="edge">
<title>cmor&#45;&gt;conda&#45;forge&#45;pinning</title>
<path fill="none" stroke="black" d="M1973.35,-143.94C1974.52,-123.48 1972.9,-89.72 1952.5,-72 1905.24,-30.95 1509.99,-21.64 1311.01,-19.57"/>
<polygon fill="black" stroke="black" points="1310.85,-16.07 1300.81,-19.47 1310.78,-23.07 1310.85,-16.07"/>
</g>
<!-- scilab -->
<g id="node34" class="node">
<title>scilab</title>
<g id="a_node34"><a xlink:href="https://github.com/conda-forge/scilab-feedstock/pull/12" xlink:title="scilab">
<ellipse fill="#31688e" stroke="black" cx="1999.5" cy="-234" rx="40.5" ry="18"/>
<text text-anchor="middle" x="1999.5" y="-230.3" font-family="Times,serif" font-size="14.00" fill="white">scilab</text>
</a>
</g>
</g>
<!-- scilab&#45;&gt;conda&#45;forge&#45;pinning -->
<g id="edge50" class="edge">
<title>scilab&#45;&gt;conda&#45;forge&#45;pinning</title>
<path fill="none" stroke="black" d="M2004.37,-215.98C2007.06,-205.67 2010.14,-192.19 2011.5,-180 2017.11,-129.85 2018.34,-100.2 1976.5,-72 1922.65,-35.7 1512.88,-24.05 1310.24,-20.48"/>
<polygon fill="black" stroke="black" points="1310.22,-16.98 1300.16,-20.31 1310.1,-23.98 1310.22,-16.98"/>
</g>
<!-- adios2 -->
<g id="node35" class="node">
<title>adios2</title>
<g id="a_node35"><a xlink:href="https://github.com/conda-forge/adios2-feedstock/pull/11" xlink:title="adios2">
<ellipse fill="#31688e" stroke="black" cx="1872.5" cy="-162" rx="40.5" ry="18"/>
<text text-anchor="middle" x="1872.5" y="-158.3" font-family="Times,serif" font-size="14.00" fill="white">adios2</text>
</a>
</g>
</g>
<!-- adios2&#45;&gt;conda&#45;forge&#45;pinning -->
<g id="edge51" class="edge">
<title>adios2&#45;&gt;conda&#45;forge&#45;pinning</title>
<path fill="none" stroke="black" d="M1894.38,-146.84C1920.16,-128.48 1956.82,-95.99 1934.5,-72 1893,-27.41 1507.34,-19.81 1311.09,-18.86"/>
<polygon fill="black" stroke="black" points="1311.04,-15.36 1301.02,-18.81 1311.01,-22.36 1311.04,-15.36"/>
</g>
<!-- adios2&#45;&gt;openpmd&#45;api -->
<g id="edge52" class="edge">
<title>adios2&#45;&gt;openpmd&#45;api</title>
<path fill="none" stroke="black" d="M1869.78,-143.7C1868.57,-135.98 1867.11,-126.71 1865.76,-118.11"/>
<polygon fill="black" stroke="black" points="1869.2,-117.44 1864.19,-108.1 1862.28,-118.53 1869.2,-117.44"/>
</g>
<!-- bonsu -->
<g id="node36" class="node">
<title>bonsu</title>
<g id="a_node36"><a xlink:href="https://github.com/conda-forge/bonsu-feedstock/pull/5" xlink:title="bonsu">
<ellipse fill="#31688e" stroke="black" cx="2055.5" cy="-306" rx="35.19" ry="18"/>
<text text-anchor="middle" x="2055.5" y="-302.3" font-family="Times,serif" font-size="14.00" fill="white">bonsu</text>
</a>
</g>
</g>
<!-- bonsu&#45;&gt;conda&#45;forge&#45;pinning -->
<g id="edge53" class="edge">
<title>bonsu&#45;&gt;conda&#45;forge&#45;pinning</title>
<path fill="none" stroke="black" d="M2058.3,-287.92C2064.44,-243.75 2073.69,-125.46 2007.5,-72 1954.61,-29.28 1521.24,-20.85 1311.03,-19.29"/>
<polygon fill="black" stroke="black" points="1310.9,-15.79 1300.88,-19.22 1310.85,-22.79 1310.9,-15.79"/>
</g>
<!-- dagmc -->
<g id="node37" class="node">
<title>dagmc</title>
<g id="a_node37"><a xlink:href="https://github.com/conda-forge/dagmc-feedstock/pull/1" xlink:title="dagmc">
<ellipse fill="#31688e" stroke="black" cx="2118.5" cy="-378" rx="35.19" ry="18"/>
<text text-anchor="middle" x="2118.5" y="-374.3" font-family="Times,serif" font-size="14.00" fill="white">dagmc</text>
</a>
</g>
</g>
<!-- dagmc&#45;&gt;conda&#45;forge&#45;pinning -->
<g id="edge55" class="edge">
<title>dagmc&#45;&gt;conda&#45;forge&#45;pinning</title>
<path fill="none" stroke="black" d="M2118.5,-359.95C2118.5,-333.29 2118.5,-280.11 2118.5,-235 2118.5,-235 2118.5,-235 2118.5,-161 2118.5,-107.21 2085.05,-95.14 2036.5,-72 1972.58,-41.54 1523.4,-26.8 1309.82,-21.46"/>
<polygon fill="black" stroke="black" points="1309.6,-17.95 1299.52,-21.2 1309.43,-24.95 1309.6,-17.95"/>
</g>
<!-- nccmp -->
<g id="node38" class="node">
<title>nccmp</title>
<g id="a_node38"><a xlink:href="https://github.com/conda-forge/nccmp-feedstock/pull/2" xlink:title="nccmp">
<ellipse fill="#31688e" stroke="black" cx="2181.5" cy="-90" rx="35.19" ry="18"/>
<text text-anchor="middle" x="2181.5" y="-86.3" font-family="Times,serif" font-size="14.00" fill="white">nccmp</text>
</a>
</g>
</g>
<!-- nccmp&#45;&gt;conda&#45;forge&#45;pinning -->
<g id="edge56" class="edge">
<title>nccmp&#45;&gt;conda&#45;forge&#45;pinning</title>
<path fill="none" stroke="black" d="M2154.66,-78.19C2147.56,-75.75 2139.83,-73.45 2132.5,-72 1978.12,-41.46 1522.59,-26.8 1309.62,-21.47"/>
<polygon fill="black" stroke="black" points="1309.44,-17.96 1299.36,-21.22 1309.27,-24.96 1309.44,-17.96"/>
</g>
</g>
</svg>
