<?xml version="1.0" encoding="UTF-8" standalone="no"?>
<!DOCTYPE svg PUBLIC "-//W3C//DTD SVG 1.1//EN"
 "http://www.w3.org/Graphics/SVG/1.1/DTD/svg11.dtd">
<!-- Generated by graphviz version 2.42.3 (20191010.1750)
 -->
<!-- Title: %3 Pages: 1 -->
<svg width="1518pt" height="404pt"
 viewBox="0.00 0.00 1518.05 404.00" xmlns="http://www.w3.org/2000/svg" xmlns:xlink="http://www.w3.org/1999/xlink">
<g id="graph0" class="graph" transform="scale(1 1) rotate(0) translate(4 400)">
<title>%3</title>
<polygon fill="white" stroke="transparent" points="-4,4 -4,-400 1514.05,-400 1514.05,4 -4,4"/>
<!-- gdal -->
<g id="node1" class="node">
<title>gdal</title>
<g id="a_node1"><a xlink:href="https://github.com/conda-forge/gdal-feedstock" xlink:title="gdal">
<ellipse fill="#fde725" stroke="black" cx="399.5" cy="-162" rx="30.59" ry="18"/>
<text text-anchor="middle" x="399.5" y="-158.3" font-family="Times,serif" font-size="14.00">gdal</text>
</a>
</g>
</g>
<!-- qgis -->
<g id="node2" class="node">
<title>qgis</title>
<g id="a_node2"><a xlink:href="https://github.com/conda-forge/qgis-feedstock" xlink:title="qgis">
<ellipse fill="#fde725" stroke="black" cx="511.5" cy="-90" rx="30.59" ry="18"/>
<text text-anchor="middle" x="511.5" y="-86.3" font-family="Times,serif" font-size="14.00">qgis</text>
</a>
</g>
</g>
<!-- gdal&#45;&gt;qgis -->
<g id="edge1" class="edge">
<title>gdal&#45;&gt;qgis</title>
<path fill="none" stroke="black" d="M419.78,-148.32C437.38,-137.32 463.07,-121.27 482.78,-108.95"/>
<polygon fill="black" stroke="black" points="484.74,-111.85 491.37,-103.58 481.03,-105.91 484.74,-111.85"/>
</g>
<!-- conda&#45;forge&#45;pinning -->
<g id="node3" class="node">
<title>conda&#45;forge&#45;pinning</title>
<ellipse fill="none" stroke="black" cx="833.5" cy="-18" rx="103.5" ry="18"/>
<text text-anchor="middle" x="833.5" y="-14.3" font-family="Times,serif" font-size="14.00">conda&#45;forge&#45;pinning</text>
</g>
<!-- gdal&#45;&gt;conda&#45;forge&#45;pinning -->
<g id="edge2" class="edge">
<title>gdal&#45;&gt;conda&#45;forge&#45;pinning</title>
<path fill="none" stroke="black" d="M410.39,-144.85C426.35,-121.71 455.87,-80.91 471.5,-72 514.12,-47.71 637.09,-33.44 727.94,-25.94"/>
<polygon fill="black" stroke="black" points="728.33,-29.42 738.01,-25.12 727.77,-22.44 728.33,-29.42"/>
</g>
<!-- qgis&#45;&gt;conda&#45;forge&#45;pinning -->
<g id="edge3" class="edge">
<title>qgis&#45;&gt;conda&#45;forge&#45;pinning</title>
<path fill="none" stroke="black" d="M536,-78.87C542.58,-76.39 549.75,-73.91 556.5,-72 619.16,-54.31 691.46,-40.7 746.48,-31.7"/>
<polygon fill="black" stroke="black" points="747.23,-35.13 756.55,-30.07 746.12,-28.21 747.23,-35.13"/>
</g>
<!-- igraph -->
<g id="node4" class="node">
<title>igraph</title>
<g id="a_node4"><a xlink:href="https://github.com/conda-forge/igraph-feedstock/pull/18" xlink:title="igraph">
<ellipse fill="#31688e" stroke="black" cx="40.5" cy="-90" rx="40.5" ry="18"/>
<text text-anchor="middle" x="40.5" y="-86.3" font-family="Times,serif" font-size="14.00" fill="white">igraph</text>
</a>
</g>
</g>
<!-- igraph&#45;&gt;conda&#45;forge&#45;pinning -->
<g id="edge4" class="edge">
<title>igraph&#45;&gt;conda&#45;forge&#45;pinning</title>
<path fill="none" stroke="black" d="M71.31,-78.12C79.12,-75.75 87.54,-73.49 95.5,-72 313.72,-31 573.71,-21.2 719.57,-19.16"/>
<polygon fill="black" stroke="black" points="719.92,-22.66 729.88,-19.03 719.83,-15.66 719.92,-22.66"/>
</g>
<!-- libgd -->
<g id="node5" class="node">
<title>libgd</title>
<g id="a_node5"><a xlink:href="https://github.com/conda-forge/libgd-feedstock" xlink:title="libgd">
<ellipse fill="#fde725" stroke="black" cx="172.5" cy="-90" rx="35.19" ry="18"/>
<text text-anchor="middle" x="172.5" y="-86.3" font-family="Times,serif" font-size="14.00">libgd</text>
</a>
</g>
</g>
<!-- libgd&#45;&gt;conda&#45;forge&#45;pinning -->
<g id="edge5" class="edge">
<title>libgd&#45;&gt;conda&#45;forge&#45;pinning</title>
<path fill="none" stroke="black" d="M199.37,-78.34C206.47,-75.89 214.19,-73.56 221.5,-72 392.95,-35.43 596.55,-23.97 720.32,-20.45"/>
<polygon fill="black" stroke="black" points="720.67,-23.95 730.57,-20.18 720.48,-16.95 720.67,-23.95"/>
</g>
<!-- matplotlib -->
<g id="node6" class="node">
<title>matplotlib</title>
<g id="a_node6"><a xlink:href="https://github.com/conda-forge/matplotlib-feedstock" xlink:title="matplotlib">
<ellipse fill="#fde725" stroke="black" cx="252.5" cy="-162" rx="60" ry="18"/>
<text text-anchor="middle" x="252.5" y="-158.3" font-family="Times,serif" font-size="14.00">matplotlib</text>
</a>
</g>
</g>
<!-- matplotlib&#45;&gt;conda&#45;forge&#45;pinning -->
<g id="edge6" class="edge">
<title>matplotlib&#45;&gt;conda&#45;forge&#45;pinning</title>
<path fill="none" stroke="black" d="M246.86,-143.77C241.51,-123.76 236.68,-91.09 254.5,-72 285.63,-38.65 561.53,-25.97 720.98,-21.4"/>
<polygon fill="black" stroke="black" points="721.41,-24.89 731.31,-21.11 721.21,-17.89 721.41,-24.89"/>
</g>
<!-- alps -->
<g id="node7" class="node">
<title>alps</title>
<g id="a_node7"><a xlink:href="https://github.com/conda-forge/alps-feedstock" xlink:title="alps">
<ellipse fill="#fde725" stroke="black" cx="294.5" cy="-90" rx="30.59" ry="18"/>
<text text-anchor="middle" x="294.5" y="-86.3" font-family="Times,serif" font-size="14.00">alps</text>
</a>
</g>
</g>
<!-- matplotlib&#45;&gt;alps -->
<g id="edge7" class="edge">
<title>matplotlib&#45;&gt;alps</title>
<path fill="none" stroke="black" d="M262.67,-144.05C267.69,-135.68 273.86,-125.4 279.42,-116.13"/>
<polygon fill="black" stroke="black" points="282.57,-117.68 284.72,-107.31 276.57,-114.08 282.57,-117.68"/>
</g>
<!-- alps&#45;&gt;conda&#45;forge&#45;pinning -->
<g id="edge8" class="edge">
<title>alps&#45;&gt;conda&#45;forge&#45;pinning</title>
<path fill="none" stroke="black" d="M317.18,-77.73C322.43,-75.51 328.07,-73.43 333.5,-72 463.57,-37.63 618.24,-25.43 720.76,-21.17"/>
<polygon fill="black" stroke="black" points="720.97,-24.67 730.82,-20.77 720.69,-17.67 720.97,-24.67"/>
</g>
<!-- octave -->
<g id="node8" class="node">
<title>octave</title>
<g id="a_node8"><a xlink:href="https://github.com/conda-forge/octave-feedstock" xlink:title="octave">
<ellipse fill="#fde725" stroke="black" cx="383.5" cy="-90" rx="40.5" ry="18"/>
<text text-anchor="middle" x="383.5" y="-86.3" font-family="Times,serif" font-size="14.00">octave</text>
</a>
</g>
</g>
<!-- octave&#45;&gt;conda&#45;forge&#45;pinning -->
<g id="edge9" class="edge">
<title>octave&#45;&gt;conda&#45;forge&#45;pinning</title>
<path fill="none" stroke="black" d="M414.67,-78.38C422.39,-76.02 430.69,-73.72 438.5,-72 537.49,-50.22 652.52,-36.01 732.83,-27.84"/>
<polygon fill="black" stroke="black" points="733.34,-31.31 742.94,-26.83 732.64,-24.34 733.34,-31.31"/>
</g>
<!-- python&#45;igraph -->
<g id="node9" class="node">
<title>python&#45;igraph</title>
<g id="a_node9"><a xlink:href="https://github.com/conda-forge/python-igraph-feedstock/pull/31" xlink:title="python igraph">
<ellipse fill="#31688e" stroke="black" cx="640.5" cy="-162" rx="74.19" ry="18"/>
<text text-anchor="middle" x="640.5" y="-158.3" font-family="Times,serif" font-size="14.00" fill="white">python igraph</text>
</a>
</g>
</g>
<!-- python&#45;igraph&#45;&gt;conda&#45;forge&#45;pinning -->
<g id="edge10" class="edge">
<title>python&#45;igraph&#45;&gt;conda&#45;forge&#45;pinning</title>
<path fill="none" stroke="black" d="M631.25,-144.03C622.05,-124.58 611.43,-92.73 627.5,-72 642.19,-53.06 694.94,-39.7 743.39,-31.13"/>
<polygon fill="black" stroke="black" points="744.06,-34.57 753.32,-29.43 742.88,-27.67 744.06,-34.57"/>
</g>
<!-- qt -->
<g id="node10" class="node">
<title>qt</title>
<g id="a_node10"><a xlink:href="https://github.com/conda-forge/qt-feedstock/pull/155" xlink:title="qt">
<ellipse fill="#31688e" stroke="black" cx="296.5" cy="-234" rx="27" ry="18"/>
<text text-anchor="middle" x="296.5" y="-230.3" font-family="Times,serif" font-size="14.00" fill="white">qt</text>
</a>
</g>
</g>
<!-- qt&#45;&gt;gdal -->
<g id="edge11" class="edge">
<title>qt&#45;&gt;gdal</title>
<path fill="none" stroke="black" d="M314.91,-220.49C330.73,-209.74 353.76,-194.09 371.8,-181.83"/>
<polygon fill="black" stroke="black" points="373.89,-184.63 380.2,-176.12 369.96,-178.85 373.89,-184.63"/>
</g>
<!-- qt&#45;&gt;qgis -->
<g id="edge12" class="edge">
<title>qt&#45;&gt;qgis</title>
<path fill="none" stroke="black" d="M321.96,-227.9C352.18,-220.92 403.05,-206.18 439.5,-180 463.44,-162.81 483.8,-135.67 496.7,-115.88"/>
<polygon fill="black" stroke="black" points="499.7,-117.69 502.09,-107.36 493.78,-113.94 499.7,-117.69"/>
</g>
<!-- qt&#45;&gt;conda&#45;forge&#45;pinning -->
<g id="edge13" class="edge">
<title>qt&#45;&gt;conda&#45;forge&#45;pinning</title>
<path fill="none" stroke="black" d="M270.97,-228.09C242.52,-221.47 196.57,-207.25 166.5,-180 128.79,-145.83 93.89,-109.31 128.5,-72 167.79,-29.64 530.65,-20.92 719.87,-19.27"/>
<polygon fill="black" stroke="black" points="720.16,-22.77 730.13,-19.19 720.1,-15.77 720.16,-22.77"/>
</g>
<!-- qt&#45;&gt;libgd -->
<g id="edge14" class="edge">
<title>qt&#45;&gt;libgd</title>
<path fill="none" stroke="black" d="M270.81,-228.42C244.38,-222.26 204.24,-208.59 183.5,-180 170.68,-162.33 168.6,-137.3 169.35,-118.29"/>
<polygon fill="black" stroke="black" points="172.85,-118.37 170.03,-108.16 165.87,-117.9 172.85,-118.37"/>
</g>
<!-- qt&#45;&gt;matplotlib -->
<g id="edge15" class="edge">
<title>qt&#45;&gt;matplotlib</title>
<path fill="none" stroke="black" d="M286.52,-217.12C281.21,-208.68 274.57,-198.1 268.56,-188.55"/>
<polygon fill="black" stroke="black" points="271.34,-186.4 263.06,-179.8 265.42,-190.13 271.34,-186.4"/>
</g>
<!-- qt&#45;&gt;octave -->
<g id="edge16" class="edge">
<title>qt&#45;&gt;octave</title>
<path fill="none" stroke="black" d="M306.31,-216.99C321.31,-192.51 350.07,-145.56 367.94,-116.4"/>
<polygon fill="black" stroke="black" points="371.08,-117.97 373.32,-107.61 365.11,-114.31 371.08,-117.97"/>
</g>
<!-- r&#45;base -->
<g id="node11" class="node">
<title>r&#45;base</title>
<g id="a_node11"><a xlink:href="https://github.com/conda-forge/r-base-feedstock/pull/130" xlink:title="r base">
<ellipse fill="#31688e" stroke="black" cx="773.5" cy="-162" rx="40.5" ry="18"/>
<text text-anchor="middle" x="773.5" y="-158.3" font-family="Times,serif" font-size="14.00" fill="white">r base</text>
</a>
</g>
</g>
<!-- r&#45;base&#45;&gt;conda&#45;forge&#45;pinning -->
<g id="edge17" class="edge">
<title>r&#45;base&#45;&gt;conda&#45;forge&#45;pinning</title>
<path fill="none" stroke="black" d="M775.16,-143.91C777.45,-125.46 782.58,-95.57 793.5,-72 798.08,-62.12 804.73,-52.31 811.29,-43.86"/>
<polygon fill="black" stroke="black" points="814.16,-45.89 817.75,-35.92 808.73,-41.47 814.16,-45.89"/>
</g>
<!-- r&#45;stringi -->
<g id="node12" class="node">
<title>r&#45;stringi</title>
<g id="a_node12"><a xlink:href="https://github.com/conda-forge/r-stringi-feedstock" xlink:title="r stringi">
<ellipse fill="#fde725" stroke="black" cx="691.5" cy="-90" rx="54.69" ry="18"/>
<text text-anchor="middle" x="691.5" y="-86.3" font-family="Times,serif" font-size="14.00">r stringi</text>
</a>
</g>
</g>
<!-- r&#45;base&#45;&gt;r&#45;stringi -->
<g id="edge18" class="edge">
<title>r&#45;base&#45;&gt;r&#45;stringi</title>
<path fill="none" stroke="black" d="M755.71,-145.81C744.73,-136.44 730.45,-124.25 718.15,-113.75"/>
<polygon fill="black" stroke="black" points="720.28,-110.96 710.4,-107.13 715.73,-116.29 720.28,-110.96"/>
</g>
<!-- r&#45;v8 -->
<g id="node13" class="node">
<title>r&#45;v8</title>
<g id="a_node13"><a xlink:href="https://github.com/conda-forge/r-v8-feedstock" xlink:title="r v8">
<ellipse fill="#fde725" stroke="black" cx="833.5" cy="-90" rx="30.59" ry="18"/>
<text text-anchor="middle" x="833.5" y="-86.3" font-family="Times,serif" font-size="14.00">r v8</text>
</a>
</g>
</g>
<!-- r&#45;base&#45;&gt;r&#45;v8 -->
<g id="edge19" class="edge">
<title>r&#45;base&#45;&gt;r&#45;v8</title>
<path fill="none" stroke="black" d="M787.42,-144.76C795.17,-135.71 804.97,-124.29 813.53,-114.3"/>
<polygon fill="black" stroke="black" points="816.22,-116.54 820.07,-106.67 810.91,-111.98 816.22,-116.54"/>
</g>
<!-- r&#45;stringi&#45;&gt;conda&#45;forge&#45;pinning -->
<g id="edge20" class="edge">
<title>r&#45;stringi&#45;&gt;conda&#45;forge&#45;pinning</title>
<path fill="none" stroke="black" d="M720.58,-74.67C741.05,-64.58 768.75,-50.92 791.6,-39.65"/>
<polygon fill="black" stroke="black" points="793.31,-42.71 800.74,-35.15 790.22,-36.43 793.31,-42.71"/>
</g>
<!-- r&#45;v8&#45;&gt;conda&#45;forge&#45;pinning -->
<g id="edge21" class="edge">
<title>r&#45;v8&#45;&gt;conda&#45;forge&#45;pinning</title>
<path fill="none" stroke="black" d="M833.5,-71.7C833.5,-63.98 833.5,-54.71 833.5,-46.11"/>
<polygon fill="black" stroke="black" points="837,-46.1 833.5,-36.1 830,-46.1 837,-46.1"/>
</g>
<!-- root5 -->
<g id="node14" class="node">
<title>root5</title>
<g id="a_node14"><a xlink:href="https://github.com/conda-forge/root5-feedstock" xlink:title="root5">
<ellipse fill="#35b779" stroke="black" cx="905.5" cy="-234" rx="35.19" ry="18"/>
<text text-anchor="middle" x="905.5" y="-230.3" font-family="Times,serif" font-size="14.00">root5</text>
</a>
</g>
</g>
<!-- root5&#45;&gt;conda&#45;forge&#45;pinning -->
<g id="edge22" class="edge">
<title>root5&#45;&gt;conda&#45;forge&#45;pinning</title>
<path fill="none" stroke="black" d="M907.94,-215.86C909.29,-205.5 910.82,-192.02 911.5,-180 914.25,-131.18 916.17,-113.62 890.5,-72 883.68,-60.95 873.95,-50.73 864.46,-42.27"/>
<polygon fill="black" stroke="black" points="866.49,-39.4 856.6,-35.6 861.96,-44.74 866.49,-39.4"/>
</g>
<!-- tectonic -->
<g id="node15" class="node">
<title>tectonic</title>
<g id="a_node15"><a xlink:href="https://github.com/conda-forge/tectonic-feedstock/pull/20" xlink:title="tectonic">
<ellipse fill="#31688e" stroke="black" cx="968.5" cy="-306" rx="50.09" ry="18"/>
<text text-anchor="middle" x="968.5" y="-302.3" font-family="Times,serif" font-size="14.00" fill="white">tectonic</text>
</a>
</g>
</g>
<!-- tectonic&#45;&gt;conda&#45;forge&#45;pinning -->
<g id="edge23" class="edge">
<title>tectonic&#45;&gt;conda&#45;forge&#45;pinning</title>
<path fill="none" stroke="black" d="M968.66,-287.73C968.22,-246.52 962.08,-140.73 913.5,-72 904.35,-59.05 890.95,-48.41 877.72,-40.14"/>
<polygon fill="black" stroke="black" points="879.49,-37.13 869.1,-35.06 875.93,-43.15 879.49,-37.13"/>
</g>
<!-- texlive&#45;core -->
<g id="node16" class="node">
<title>texlive&#45;core</title>
<g id="a_node16"><a xlink:href="https://github.com/conda-forge/texlive-core-feedstock/pull/38" xlink:title="texlive core">
<ellipse fill="#31688e" stroke="black" cx="1052.5" cy="-378" rx="69.59" ry="18"/>
<text text-anchor="middle" x="1052.5" y="-374.3" font-family="Times,serif" font-size="14.00" fill="white">texlive core</text>
</a>
</g>
</g>
<!-- texlive&#45;core&#45;&gt;conda&#45;forge&#45;pinning -->
<g id="edge24" class="edge">
<title>texlive&#45;core&#45;&gt;conda&#45;forge&#45;pinning</title>
<path fill="none" stroke="black" d="M1053.73,-359.74C1056.54,-321.08 1063.74,-224.6 1071.5,-144 1074.57,-112.1 1095.59,-96.97 1075.5,-72 1057.4,-49.51 991.75,-36.03 933.38,-28.3"/>
<polygon fill="black" stroke="black" points="933.7,-24.81 923.34,-27.02 932.81,-31.76 933.7,-24.81"/>
</g>
<!-- pyicu -->
<g id="node17" class="node">
<title>pyicu</title>
<g id="a_node17"><a xlink:href="https://github.com/conda-forge/pyicu-feedstock/pull/16" xlink:title="pyicu">
<ellipse fill="#31688e" stroke="black" cx="1031.5" cy="-90" rx="35.19" ry="18"/>
<text text-anchor="middle" x="1031.5" y="-86.3" font-family="Times,serif" font-size="14.00" fill="white">pyicu</text>
</a>
</g>
</g>
<!-- pyicu&#45;&gt;conda&#45;forge&#45;pinning -->
<g id="edge25" class="edge">
<title>pyicu&#45;&gt;conda&#45;forge&#45;pinning</title>
<path fill="none" stroke="black" d="M1003.13,-78.97C972.9,-68.28 924.33,-51.11 886.89,-37.88"/>
<polygon fill="black" stroke="black" points="887.74,-34.46 877.14,-34.43 885.4,-41.06 887.74,-34.46"/>
</g>
<!-- gtk2 -->
<g id="node18" class="node">
<title>gtk2</title>
<g id="a_node18"><a xlink:href="https://github.com/conda-forge/gtk2-feedstock/pull/16" xlink:title="gtk2">
<ellipse fill="#31688e" stroke="black" cx="517.5" cy="-162" rx="30.59" ry="18"/>
<text text-anchor="middle" x="517.5" y="-158.3" font-family="Times,serif" font-size="14.00" fill="white">gtk2</text>
</a>
</g>
</g>
<!-- gtk2&#45;&gt;qgis -->
<g id="edge26" class="edge">
<title>gtk2&#45;&gt;qgis</title>
<path fill="none" stroke="black" d="M516.02,-143.7C515.36,-135.98 514.56,-126.71 513.82,-118.11"/>
<polygon fill="black" stroke="black" points="517.31,-117.77 512.97,-108.1 510.33,-118.37 517.31,-117.77"/>
</g>
<!-- gtk2&#45;&gt;conda&#45;forge&#45;pinning -->
<g id="edge27" class="edge">
<title>gtk2&#45;&gt;conda&#45;forge&#45;pinning</title>
<path fill="none" stroke="black" d="M530.05,-145.57C547.22,-125.52 579.97,-90.85 615.5,-72 654.28,-51.42 701.16,-38.69 741.51,-30.88"/>
<polygon fill="black" stroke="black" points="742.15,-34.32 751.34,-29.05 740.87,-27.44 742.15,-34.32"/>
</g>
<!-- mdsplus -->
<g id="node19" class="node">
<title>mdsplus</title>
<g id="a_node19"><a xlink:href="https://github.com/conda-forge/mdsplus-feedstock" xlink:title="mdsplus">
<ellipse fill="#35b779" stroke="black" cx="1125.5" cy="-162" rx="45" ry="18"/>
<text text-anchor="middle" x="1125.5" y="-158.3" font-family="Times,serif" font-size="14.00">mdsplus</text>
</a>
</g>
</g>
<!-- mdsplus&#45;&gt;conda&#45;forge&#45;pinning -->
<g id="edge28" class="edge">
<title>mdsplus&#45;&gt;conda&#45;forge&#45;pinning</title>
<path fill="none" stroke="black" d="M1127.45,-143.67C1128.68,-123.57 1127.28,-90.81 1108.5,-72 1084.48,-47.94 1004.67,-34.36 937.17,-26.98"/>
<polygon fill="black" stroke="black" points="937.19,-23.46 926.88,-25.89 936.45,-30.42 937.19,-23.46"/>
</g>
<!-- ticcutils -->
<g id="node20" class="node">
<title>ticcutils</title>
<g id="a_node20"><a xlink:href="https://github.com/conda-forge/ticcutils-feedstock/pull/10" xlink:title="ticcutils">
<ellipse fill="#31688e" stroke="black" cx="1153.5" cy="-234" rx="54.69" ry="18"/>
<text text-anchor="middle" x="1153.5" y="-230.3" font-family="Times,serif" font-size="14.00" fill="white">ticcutils</text>
</a>
</g>
</g>
<!-- ticcutils&#45;&gt;conda&#45;forge&#45;pinning -->
<g id="edge29" class="edge">
<title>ticcutils&#45;&gt;conda&#45;forge&#45;pinning</title>
<path fill="none" stroke="black" d="M1164.28,-216.08C1170.03,-206.03 1176.53,-192.78 1179.5,-180 1183.12,-164.41 1184.14,-159.31 1179.5,-144 1168.36,-107.19 1163.68,-93.06 1131.5,-72 1099.37,-50.98 1006.83,-36.69 933.31,-28.29"/>
<polygon fill="black" stroke="black" points="933.39,-24.78 923.07,-27.15 932.62,-31.74 933.39,-24.78"/>
</g>
<!-- scilab -->
<g id="node21" class="node">
<title>scilab</title>
<g id="a_node21"><a xlink:href="https://github.com/conda-forge/scilab-feedstock/pull/14" xlink:title="scilab">
<ellipse fill="#31688e" stroke="black" cx="1205.5" cy="-306" rx="40.5" ry="18"/>
<text text-anchor="middle" x="1205.5" y="-302.3" font-family="Times,serif" font-size="14.00" fill="white">scilab</text>
</a>
</g>
</g>
<!-- scilab&#45;&gt;conda&#45;forge&#45;pinning -->
<g id="edge30" class="edge">
<title>scilab&#45;&gt;conda&#45;forge&#45;pinning</title>
<path fill="none" stroke="black" d="M1210.37,-287.98C1213.06,-277.67 1216.14,-264.19 1217.5,-252 1226.78,-168.99 1229.69,-122.94 1163.5,-72 1129.25,-45.65 1023.15,-32.02 940.4,-25.23"/>
<polygon fill="black" stroke="black" points="940.67,-21.74 930.43,-24.43 940.12,-28.72 940.67,-21.74"/>
</g>
<!-- ifcopenshell -->
<g id="node22" class="node">
<title>ifcopenshell</title>
<g id="a_node22"><a xlink:href="https://github.com/conda-forge/ifcopenshell-feedstock" xlink:title="ifcopenshell">
<ellipse fill="#35b779" stroke="black" cx="1274.5" cy="-378" rx="69.59" ry="18"/>
<text text-anchor="middle" x="1274.5" y="-374.3" font-family="Times,serif" font-size="14.00">ifcopenshell</text>
</a>
</g>
</g>
<!-- ifcopenshell&#45;&gt;conda&#45;forge&#45;pinning -->
<g id="edge31" class="edge">
<title>ifcopenshell&#45;&gt;conda&#45;forge&#45;pinning</title>
<path fill="none" stroke="black" d="M1274.5,-359.95C1274.5,-333.29 1274.5,-280.11 1274.5,-235 1274.5,-235 1274.5,-235 1274.5,-161 1274.5,-108.11 1242.04,-97.13 1195.5,-72 1152.2,-48.62 1028.71,-34.13 937.96,-26.33"/>
<polygon fill="black" stroke="black" points="938.15,-22.83 927.89,-25.48 937.56,-29.81 938.15,-22.83"/>
</g>
<!-- libical -->
<g id="node23" class="node">
<title>libical</title>
<g id="a_node23"><a xlink:href="https://github.com/conda-forge/libical-feedstock/pull/7" xlink:title="libical">
<ellipse fill="#31688e" stroke="black" cx="1347.5" cy="-90" rx="45" ry="18"/>
<text text-anchor="middle" x="1347.5" y="-86.3" font-family="Times,serif" font-size="14.00" fill="white">libical</text>
</a>
</g>
</g>
<!-- libical&#45;&gt;conda&#45;forge&#45;pinning -->
<g id="edge32" class="edge">
<title>libical&#45;&gt;conda&#45;forge&#45;pinning</title>
<path fill="none" stroke="black" d="M1313.42,-78.15C1305.31,-75.86 1296.65,-73.64 1288.5,-72 1169.57,-48.11 1030.83,-33.87 938.12,-26.27"/>
<polygon fill="black" stroke="black" points="938.14,-22.76 927.89,-25.44 937.57,-29.73 938.14,-22.76"/>
</g>
<!-- libv8 -->
<g id="node24" class="node">
<title>libv8</title>
<g id="a_node24"><a xlink:href="https://github.com/conda-forge/libv8-feedstock/pull/12" xlink:title="libv8">
<ellipse fill="#31688e" stroke="black" cx="867.5" cy="-162" rx="35.19" ry="18"/>
<text text-anchor="middle" x="867.5" y="-158.3" font-family="Times,serif" font-size="14.00" fill="white">libv8</text>
</a>
</g>
</g>
<!-- libv8&#45;&gt;conda&#45;forge&#45;pinning -->
<g id="edge33" class="edge">
<title>libv8&#45;&gt;conda&#45;forge&#45;pinning</title>
<path fill="none" stroke="black" d="M872.39,-144.11C876.84,-125.83 881.57,-96.08 873.5,-72 870.09,-61.83 863.88,-52.06 857.36,-43.73"/>
<polygon fill="black" stroke="black" points="859.92,-41.35 850.82,-35.93 854.56,-45.84 859.92,-41.35"/>
</g>
<!-- libv8&#45;&gt;r&#45;v8 -->
<g id="edge34" class="edge">
<title>libv8&#45;&gt;r&#45;v8</title>
<path fill="none" stroke="black" d="M859.44,-144.41C855.42,-136.13 850.46,-125.92 845.96,-116.66"/>
<polygon fill="black" stroke="black" points="849.02,-114.94 841.5,-107.47 842.72,-117.99 849.02,-114.94"/>
</g>
<!-- odil -->
<g id="node25" class="node">
<title>odil</title>
<g id="a_node25"><a xlink:href="https://github.com/conda-forge/odil-feedstock" xlink:title="odil">
<ellipse fill="#35b779" stroke="black" cx="1420.5" cy="-162" rx="30.59" ry="18"/>
<text text-anchor="middle" x="1420.5" y="-158.3" font-family="Times,serif" font-size="14.00">odil</text>
</a>
</g>
</g>
<!-- odil&#45;&gt;conda&#45;forge&#45;pinning -->
<g id="edge35" class="edge">
<title>odil&#45;&gt;conda&#45;forge&#45;pinning</title>
<path fill="none" stroke="black" d="M1422.28,-144.02C1423.39,-123.63 1421.69,-89.95 1401.5,-72 1368.16,-42.36 1100.41,-28.19 944.71,-22.39"/>
<polygon fill="black" stroke="black" points="944.74,-18.89 934.62,-22.02 944.49,-25.89 944.74,-18.89"/>
</g>
<!-- nbin -->
<g id="node26" class="node">
<title>nbin</title>
<g id="a_node26"><a xlink:href="https://github.com/conda-forge/nbin-feedstock/pull/1" xlink:title="nbin">
<ellipse fill="#31688e" stroke="black" cx="1479.5" cy="-234" rx="30.59" ry="18"/>
<text text-anchor="middle" x="1479.5" y="-230.3" font-family="Times,serif" font-size="14.00" fill="white">nbin</text>
</a>
</g>
</g>
<!-- nbin&#45;&gt;conda&#45;forge&#45;pinning -->
<g id="edge36" class="edge">
<title>nbin&#45;&gt;conda&#45;forge&#45;pinning</title>
<path fill="none" stroke="black" d="M1479.83,-215.76C1479.42,-181.36 1472.95,-104.72 1425.5,-72 1386.88,-45.36 1104.31,-29.82 943.92,-23.06"/>
<polygon fill="black" stroke="black" points="943.68,-19.54 933.54,-22.62 943.39,-26.54 943.68,-19.54"/>
</g>
</g>
</svg>
