<?xml version="1.0" encoding="UTF-8" standalone="no"?>
<!DOCTYPE svg PUBLIC "-//W3C//DTD SVG 1.1//EN"
 "http://www.w3.org/Graphics/SVG/1.1/DTD/svg11.dtd">
<!-- Generated by graphviz version 2.42.3 (20191010.1750)
 -->
<!-- Title: %3 Pages: 1 -->
<svg width="1422pt" height="404pt"
 viewBox="0.00 0.00 1422.05 404.00" xmlns="http://www.w3.org/2000/svg" xmlns:xlink="http://www.w3.org/1999/xlink">
<g id="graph0" class="graph" transform="scale(1 1) rotate(0) translate(4 400)">
<title>%3</title>
<polygon fill="white" stroke="transparent" points="-4,4 -4,-400 1418.05,-400 1418.05,4 -4,4"/>
<!-- gdal -->
<g id="node1" class="node">
<title>gdal</title>
<g id="a_node1"><a xlink:href="https://github.com/conda-forge/gdal-feedstock" xlink:title="gdal">
<ellipse fill="#fde725" stroke="black" cx="109.5" cy="-162" rx="30.59" ry="18"/>
<text text-anchor="middle" x="109.5" y="-158.3" font-family="Times,serif" font-size="14.00">gdal</text>
</a>
</g>
</g>
<!-- qgis -->
<g id="node2" class="node">
<title>qgis</title>
<g id="a_node2"><a xlink:href="https://github.com/conda-forge/qgis-feedstock" xlink:title="qgis">
<ellipse fill="#fde725" stroke="black" cx="168.5" cy="-90" rx="30.59" ry="18"/>
<text text-anchor="middle" x="168.5" y="-86.3" font-family="Times,serif" font-size="14.00">qgis</text>
</a>
</g>
</g>
<!-- gdal&#45;&gt;qgis -->
<g id="edge1" class="edge">
<title>gdal&#45;&gt;qgis</title>
<path fill="none" stroke="black" d="M122.59,-145.46C130.31,-136.31 140.22,-124.55 148.86,-114.31"/>
<polygon fill="black" stroke="black" points="151.67,-116.39 155.44,-106.49 146.32,-111.88 151.67,-116.39"/>
</g>
<!-- conda&#45;forge&#45;pinning -->
<g id="node3" class="node">
<title>conda&#45;forge&#45;pinning</title>
<ellipse fill="none" stroke="black" cx="780.5" cy="-18" rx="103.5" ry="18"/>
<text text-anchor="middle" x="780.5" y="-14.3" font-family="Times,serif" font-size="14.00">conda&#45;forge&#45;pinning</text>
</g>
<!-- gdal&#45;&gt;conda&#45;forge&#45;pinning -->
<g id="edge2" class="edge">
<title>gdal&#45;&gt;conda&#45;forge&#45;pinning</title>
<path fill="none" stroke="black" d="M107.68,-143.98C106.54,-123.55 108.2,-89.83 128.5,-72 168.05,-37.26 492.28,-25.04 668.11,-20.94"/>
<polygon fill="black" stroke="black" points="668.26,-24.44 678.18,-20.71 668.1,-17.44 668.26,-24.44"/>
</g>
<!-- qgis&#45;&gt;conda&#45;forge&#45;pinning -->
<g id="edge3" class="edge">
<title>qgis&#45;&gt;conda&#45;forge&#45;pinning</title>
<path fill="none" stroke="black" d="M192.42,-78.61C199.13,-76.07 206.5,-73.62 213.5,-72 368.25,-36.22 552.07,-24.48 667.53,-20.69"/>
<polygon fill="black" stroke="black" points="667.9,-24.18 677.79,-20.37 667.69,-17.18 667.9,-24.18"/>
</g>
<!-- igraph -->
<g id="node4" class="node">
<title>igraph</title>
<g id="a_node4"><a xlink:href="https://github.com/conda-forge/igraph-feedstock/pull/18" xlink:title="igraph">
<ellipse fill="#31688e" stroke="black" cx="40.5" cy="-90" rx="40.5" ry="18"/>
<text text-anchor="middle" x="40.5" y="-86.3" font-family="Times,serif" font-size="14.00" fill="white">igraph</text>
</a>
</g>
</g>
<!-- igraph&#45;&gt;conda&#45;forge&#45;pinning -->
<g id="edge4" class="edge">
<title>igraph&#45;&gt;conda&#45;forge&#45;pinning</title>
<path fill="none" stroke="black" d="M71.32,-78.16C79.12,-75.78 87.55,-73.52 95.5,-72 294.39,-34.06 530.71,-23.13 667.36,-20.07"/>
<polygon fill="black" stroke="black" points="667.51,-23.57 677.43,-19.86 667.36,-16.57 667.51,-23.57"/>
</g>
<!-- libgd -->
<g id="node5" class="node">
<title>libgd</title>
<g id="a_node5"><a xlink:href="https://github.com/conda-forge/libgd-feedstock" xlink:title="libgd">
<ellipse fill="#fde725" stroke="black" cx="328.5" cy="-90" rx="35.19" ry="18"/>
<text text-anchor="middle" x="328.5" y="-86.3" font-family="Times,serif" font-size="14.00">libgd</text>
</a>
</g>
</g>
<!-- libgd&#45;&gt;conda&#45;forge&#45;pinning -->
<g id="edge5" class="edge">
<title>libgd&#45;&gt;conda&#45;forge&#45;pinning</title>
<path fill="none" stroke="black" d="M355.68,-78.47C362.71,-76.06 370.31,-73.7 377.5,-72 477.87,-48.25 594.99,-34.34 677.02,-26.78"/>
<polygon fill="black" stroke="black" points="677.45,-30.26 687.09,-25.87 676.82,-23.29 677.45,-30.26"/>
</g>
<!-- matplotlib -->
<g id="node6" class="node">
<title>matplotlib</title>
<g id="a_node6"><a xlink:href="https://github.com/conda-forge/matplotlib-feedstock" xlink:title="matplotlib">
<ellipse fill="#fde725" stroke="black" cx="412.5" cy="-162" rx="60" ry="18"/>
<text text-anchor="middle" x="412.5" y="-158.3" font-family="Times,serif" font-size="14.00">matplotlib</text>
</a>
</g>
</g>
<!-- matplotlib&#45;&gt;conda&#45;forge&#45;pinning -->
<g id="edge6" class="edge">
<title>matplotlib&#45;&gt;conda&#45;forge&#45;pinning</title>
<path fill="none" stroke="black" d="M406.04,-143.99C399.74,-124.2 393.39,-91.74 410.5,-72 443.24,-34.23 570.56,-22.73 666.77,-19.55"/>
<polygon fill="black" stroke="black" points="666.97,-23.05 676.86,-19.25 666.76,-16.05 666.97,-23.05"/>
</g>
<!-- alps -->
<g id="node7" class="node">
<title>alps</title>
<g id="a_node7"><a xlink:href="https://github.com/conda-forge/alps-feedstock" xlink:title="alps">
<ellipse fill="#fde725" stroke="black" cx="450.5" cy="-90" rx="30.59" ry="18"/>
<text text-anchor="middle" x="450.5" y="-86.3" font-family="Times,serif" font-size="14.00">alps</text>
</a>
</g>
</g>
<!-- matplotlib&#45;&gt;alps -->
<g id="edge7" class="edge">
<title>matplotlib&#45;&gt;alps</title>
<path fill="none" stroke="black" d="M421.7,-144.05C426.25,-135.68 431.82,-125.4 436.86,-116.13"/>
<polygon fill="black" stroke="black" points="439.95,-117.77 441.65,-107.31 433.8,-114.43 439.95,-117.77"/>
</g>
<!-- alps&#45;&gt;conda&#45;forge&#45;pinning -->
<g id="edge8" class="edge">
<title>alps&#45;&gt;conda&#45;forge&#45;pinning</title>
<path fill="none" stroke="black" d="M473.87,-78.05C479.25,-75.81 485.01,-73.65 490.5,-72 555.36,-52.55 630.64,-39.05 688.24,-30.54"/>
<polygon fill="black" stroke="black" points="689.03,-33.96 698.42,-29.06 688.02,-27.04 689.03,-33.96"/>
</g>
<!-- octave -->
<g id="node8" class="node">
<title>octave</title>
<g id="a_node8"><a xlink:href="https://github.com/conda-forge/octave-feedstock" xlink:title="octave">
<ellipse fill="#fde725" stroke="black" cx="539.5" cy="-90" rx="40.5" ry="18"/>
<text text-anchor="middle" x="539.5" y="-86.3" font-family="Times,serif" font-size="14.00">octave</text>
</a>
</g>
</g>
<!-- octave&#45;&gt;conda&#45;forge&#45;pinning -->
<g id="edge9" class="edge">
<title>octave&#45;&gt;conda&#45;forge&#45;pinning</title>
<path fill="none" stroke="black" d="M571.75,-78.9C579.21,-76.6 587.12,-74.19 594.5,-72 635.54,-59.81 681.85,-46.62 717.99,-36.44"/>
<polygon fill="black" stroke="black" points="719.22,-39.73 727.9,-33.65 717.32,-32.99 719.22,-39.73"/>
</g>
<!-- python&#45;igraph -->
<g id="node9" class="node">
<title>python&#45;igraph</title>
<g id="a_node9"><a xlink:href="https://github.com/conda-forge/python-igraph-feedstock/pull/31" xlink:title="python igraph">
<ellipse fill="#31688e" stroke="black" cx="608.5" cy="-162" rx="74.19" ry="18"/>
<text text-anchor="middle" x="608.5" y="-158.3" font-family="Times,serif" font-size="14.00" fill="white">python igraph</text>
</a>
</g>
</g>
<!-- python&#45;igraph&#45;&gt;conda&#45;forge&#45;pinning -->
<g id="edge10" class="edge">
<title>python&#45;igraph&#45;&gt;conda&#45;forge&#45;pinning</title>
<path fill="none" stroke="black" d="M613.46,-143.71C619.94,-123.96 633.04,-91.83 654.5,-72 671.5,-56.29 693.85,-44.85 714.99,-36.72"/>
<polygon fill="black" stroke="black" points="716.4,-39.93 724.6,-33.21 714,-33.35 716.4,-39.93"/>
</g>
<!-- qt -->
<g id="node10" class="node">
<title>qt</title>
<g id="a_node10"><a xlink:href="https://github.com/conda-forge/qt-feedstock/pull/155" xlink:title="qt">
<ellipse fill="#31688e" stroke="black" cx="305.5" cy="-234" rx="27" ry="18"/>
<text text-anchor="middle" x="305.5" y="-230.3" font-family="Times,serif" font-size="14.00" fill="white">qt</text>
</a>
</g>
</g>
<!-- qt&#45;&gt;gdal -->
<g id="edge11" class="edge">
<title>qt&#45;&gt;gdal</title>
<path fill="none" stroke="black" d="M281.9,-224.91C252.13,-214.66 199.4,-196.36 154.5,-180 151.18,-178.79 147.73,-177.52 144.29,-176.23"/>
<polygon fill="black" stroke="black" points="145.28,-172.87 134.69,-172.64 142.82,-179.42 145.28,-172.87"/>
</g>
<!-- qt&#45;&gt;qgis -->
<g id="edge12" class="edge">
<title>qt&#45;&gt;qgis</title>
<path fill="none" stroke="black" d="M279.7,-228.49C252.56,-222.34 210.64,-208.65 187.5,-180 173.49,-162.66 169.15,-137.4 168.08,-118.21"/>
<polygon fill="black" stroke="black" points="171.57,-117.89 167.78,-108 164.58,-118.1 171.57,-117.89"/>
</g>
<!-- qt&#45;&gt;conda&#45;forge&#45;pinning -->
<g id="edge13" class="edge">
<title>qt&#45;&gt;conda&#45;forge&#45;pinning</title>
<path fill="none" stroke="black" d="M296.23,-216.9C279.17,-184.9 247.76,-112.88 284.5,-72 309.81,-43.84 531.99,-29.42 670.26,-23.11"/>
<polygon fill="black" stroke="black" points="670.65,-26.6 680.48,-22.65 670.33,-19.6 670.65,-26.6"/>
</g>
<!-- qt&#45;&gt;libgd -->
<g id="edge14" class="edge">
<title>qt&#45;&gt;libgd</title>
<path fill="none" stroke="black" d="M308.27,-215.87C312.19,-191.67 319.4,-147.21 324.06,-118.39"/>
<polygon fill="black" stroke="black" points="327.57,-118.62 325.72,-108.19 320.66,-117.5 327.57,-118.62"/>
</g>
<!-- qt&#45;&gt;matplotlib -->
<g id="edge15" class="edge">
<title>qt&#45;&gt;matplotlib</title>
<path fill="none" stroke="black" d="M324.14,-220.81C339.47,-210.78 361.57,-196.32 379.84,-184.37"/>
<polygon fill="black" stroke="black" points="381.99,-187.14 388.45,-178.74 378.16,-181.28 381.99,-187.14"/>
</g>
<!-- qt&#45;&gt;octave -->
<g id="edge16" class="edge">
<title>qt&#45;&gt;octave</title>
<path fill="none" stroke="black" d="M332.21,-230.68C369.09,-226.3 436.16,-213.96 481.5,-180 503.07,-163.85 518.91,-137.15 528.53,-117.2"/>
<polygon fill="black" stroke="black" points="531.75,-118.57 532.76,-108.02 525.4,-115.64 531.75,-118.57"/>
</g>
<!-- r&#45;base -->
<g id="node11" class="node">
<title>r&#45;base</title>
<g id="a_node11"><a xlink:href="https://github.com/conda-forge/r-base-feedstock/pull/130" xlink:title="r base">
<ellipse fill="#31688e" stroke="black" cx="741.5" cy="-162" rx="40.5" ry="18"/>
<text text-anchor="middle" x="741.5" y="-158.3" font-family="Times,serif" font-size="14.00" fill="white">r base</text>
</a>
</g>
</g>
<!-- r&#45;base&#45;&gt;conda&#45;forge&#45;pinning -->
<g id="edge17" class="edge">
<title>r&#45;base&#45;&gt;conda&#45;forge&#45;pinning</title>
<path fill="none" stroke="black" d="M712.58,-149.19C695.52,-140.53 675.4,-126.97 665.5,-108 658.1,-93.81 656.87,-85.47 665.5,-72 675.95,-55.68 692.83,-44.32 710.48,-36.43"/>
<polygon fill="black" stroke="black" points="711.84,-39.66 719.75,-32.62 709.17,-33.18 711.84,-39.66"/>
</g>
<!-- r&#45;stringi -->
<g id="node12" class="node">
<title>r&#45;stringi</title>
<g id="a_node12"><a xlink:href="https://github.com/conda-forge/r-stringi-feedstock" xlink:title="r stringi">
<ellipse fill="#fde725" stroke="black" cx="729.5" cy="-90" rx="54.69" ry="18"/>
<text text-anchor="middle" x="729.5" y="-86.3" font-family="Times,serif" font-size="14.00">r stringi</text>
</a>
</g>
</g>
<!-- r&#45;base&#45;&gt;r&#45;stringi -->
<g id="edge18" class="edge">
<title>r&#45;base&#45;&gt;r&#45;stringi</title>
<path fill="none" stroke="black" d="M738.53,-143.7C737.21,-135.98 735.62,-126.71 734.15,-118.11"/>
<polygon fill="black" stroke="black" points="737.57,-117.37 732.43,-108.1 730.67,-118.55 737.57,-117.37"/>
</g>
<!-- r&#45;v8 -->
<g id="node13" class="node">
<title>r&#45;v8</title>
<g id="a_node13"><a xlink:href="https://github.com/conda-forge/r-v8-feedstock" xlink:title="r v8">
<ellipse fill="#fde725" stroke="black" cx="832.5" cy="-90" rx="30.59" ry="18"/>
<text text-anchor="middle" x="832.5" y="-86.3" font-family="Times,serif" font-size="14.00">r v8</text>
</a>
</g>
</g>
<!-- r&#45;base&#45;&gt;r&#45;v8 -->
<g id="edge19" class="edge">
<title>r&#45;base&#45;&gt;r&#45;v8</title>
<path fill="none" stroke="black" d="M760.8,-146.15C774.06,-135.96 791.82,-122.29 806.35,-111.12"/>
<polygon fill="black" stroke="black" points="808.67,-113.74 814.47,-104.87 804.41,-108.19 808.67,-113.74"/>
</g>
<!-- r&#45;stringi&#45;&gt;conda&#45;forge&#45;pinning -->
<g id="edge20" class="edge">
<title>r&#45;stringi&#45;&gt;conda&#45;forge&#45;pinning</title>
<path fill="none" stroke="black" d="M741.59,-72.41C747.72,-63.99 755.3,-53.58 762.14,-44.2"/>
<polygon fill="black" stroke="black" points="765.09,-46.1 768.15,-35.96 759.43,-41.98 765.09,-46.1"/>
</g>
<!-- r&#45;v8&#45;&gt;conda&#45;forge&#45;pinning -->
<g id="edge21" class="edge">
<title>r&#45;v8&#45;&gt;conda&#45;forge&#45;pinning</title>
<path fill="none" stroke="black" d="M820.7,-73.12C814.4,-64.63 806.49,-53.98 799.35,-44.38"/>
<polygon fill="black" stroke="black" points="802.12,-42.23 793.35,-36.29 796.5,-46.41 802.12,-42.23"/>
</g>
<!-- root5 -->
<g id="node14" class="node">
<title>root5</title>
<g id="a_node14"><a xlink:href="https://github.com/conda-forge/root5-feedstock" xlink:title="root5">
<ellipse fill="#35b779" stroke="black" cx="904.5" cy="-234" rx="35.19" ry="18"/>
<text text-anchor="middle" x="904.5" y="-230.3" font-family="Times,serif" font-size="14.00">root5</text>
</a>
</g>
</g>
<!-- root5&#45;&gt;conda&#45;forge&#45;pinning -->
<g id="edge22" class="edge">
<title>root5&#45;&gt;conda&#45;forge&#45;pinning</title>
<path fill="none" stroke="black" d="M907.81,-215.9C912.91,-184.36 919.17,-116.19 888.5,-72 877.8,-56.58 861.3,-45.46 844.4,-37.51"/>
<polygon fill="black" stroke="black" points="845.57,-34.2 835,-33.42 842.77,-40.62 845.57,-34.2"/>
</g>
<!-- texlive&#45;core -->
<g id="node15" class="node">
<title>texlive&#45;core</title>
<g id="a_node15"><a xlink:href="https://github.com/conda-forge/texlive-core-feedstock/pull/38" xlink:title="texlive core">
<ellipse fill="#31688e" stroke="black" cx="907.5" cy="-306" rx="69.59" ry="18"/>
<text text-anchor="middle" x="907.5" y="-302.3" font-family="Times,serif" font-size="14.00" fill="white">texlive core</text>
</a>
</g>
</g>
<!-- texlive&#45;core&#45;&gt;conda&#45;forge&#45;pinning -->
<g id="edge23" class="edge">
<title>texlive&#45;core&#45;&gt;conda&#45;forge&#45;pinning</title>
<path fill="none" stroke="black" d="M925.24,-288.15C934.07,-278.51 943.84,-265.65 948.5,-252 968.11,-194.61 934.57,-100.43 909.5,-72 894.71,-55.23 873.8,-43.66 853.11,-35.72"/>
<polygon fill="black" stroke="black" points="854.24,-32.41 843.65,-32.33 851.88,-39 854.24,-32.41"/>
</g>
<!-- pyicu -->
<g id="node16" class="node">
<title>pyicu</title>
<g id="a_node16"><a xlink:href="https://github.com/conda-forge/pyicu-feedstock/pull/16" xlink:title="pyicu">
<ellipse fill="#31688e" stroke="black" cx="1005.5" cy="-378" rx="35.19" ry="18"/>
<text text-anchor="middle" x="1005.5" y="-374.3" font-family="Times,serif" font-size="14.00" fill="white">pyicu</text>
</a>
</g>
</g>
<!-- pyicu&#45;&gt;conda&#45;forge&#45;pinning -->
<g id="edge24" class="edge">
<title>pyicu&#45;&gt;conda&#45;forge&#45;pinning</title>
<path fill="none" stroke="black" d="M1005.5,-359.95C1005.5,-333.29 1005.5,-280.11 1005.5,-235 1005.5,-235 1005.5,-235 1005.5,-161 1005.5,-89.27 922.72,-52.32 857.58,-34.34"/>
<polygon fill="black" stroke="black" points="858.27,-30.9 847.7,-31.72 856.47,-37.66 858.27,-30.9"/>
</g>
<!-- gtk2 -->
<g id="node17" class="node">
<title>gtk2</title>
<g id="a_node17"><a xlink:href="https://github.com/conda-forge/gtk2-feedstock/pull/16" xlink:title="gtk2">
<ellipse fill="#31688e" stroke="black" cx="227.5" cy="-162" rx="30.59" ry="18"/>
<text text-anchor="middle" x="227.5" y="-158.3" font-family="Times,serif" font-size="14.00" fill="white">gtk2</text>
</a>
</g>
</g>
<!-- gtk2&#45;&gt;qgis -->
<g id="edge25" class="edge">
<title>gtk2&#45;&gt;qgis</title>
<path fill="none" stroke="black" d="M214.41,-145.46C206.69,-136.31 196.78,-124.55 188.14,-114.31"/>
<polygon fill="black" stroke="black" points="190.68,-111.88 181.56,-106.49 185.33,-116.39 190.68,-111.88"/>
</g>
<!-- gtk2&#45;&gt;conda&#45;forge&#45;pinning -->
<g id="edge26" class="edge">
<title>gtk2&#45;&gt;conda&#45;forge&#45;pinning</title>
<path fill="none" stroke="black" d="M226.78,-143.94C226.94,-123.47 230.63,-89.71 251.5,-72 282.73,-45.5 524.94,-30.27 670.57,-23.42"/>
<polygon fill="black" stroke="black" points="671.05,-26.9 680.88,-22.94 670.73,-19.91 671.05,-26.9"/>
</g>
<!-- mdsplus -->
<g id="node18" class="node">
<title>mdsplus</title>
<g id="a_node18"><a xlink:href="https://github.com/conda-forge/mdsplus-feedstock" xlink:title="mdsplus">
<ellipse fill="#35b779" stroke="black" cx="1078.5" cy="-90" rx="45" ry="18"/>
<text text-anchor="middle" x="1078.5" y="-86.3" font-family="Times,serif" font-size="14.00">mdsplus</text>
</a>
</g>
</g>
<!-- mdsplus&#45;&gt;conda&#45;forge&#45;pinning -->
<g id="edge27" class="edge">
<title>mdsplus&#45;&gt;conda&#45;forge&#45;pinning</title>
<path fill="none" stroke="black" d="M1043.66,-78.57C1035.74,-76.31 1027.35,-74 1019.5,-72 964.61,-58.02 902.1,-44.23 854.78,-34.23"/>
<polygon fill="black" stroke="black" points="855.42,-30.78 844.92,-32.15 853.98,-37.63 855.42,-30.78"/>
</g>
<!-- ticcutils -->
<g id="node19" class="node">
<title>ticcutils</title>
<g id="a_node19"><a xlink:href="https://github.com/conda-forge/ticcutils-feedstock/pull/10" xlink:title="ticcutils">
<ellipse fill="#31688e" stroke="black" cx="1106.5" cy="-162" rx="54.69" ry="18"/>
<text text-anchor="middle" x="1106.5" y="-158.3" font-family="Times,serif" font-size="14.00" fill="white">ticcutils</text>
</a>
</g>
</g>
<!-- ticcutils&#45;&gt;conda&#45;forge&#45;pinning -->
<g id="edge28" class="edge">
<title>ticcutils&#45;&gt;conda&#45;forge&#45;pinning</title>
<path fill="none" stroke="black" d="M1119.62,-144.29C1133.23,-124.8 1150.25,-92.62 1132.5,-72 1102,-36.56 984.56,-24.5 893.62,-20.56"/>
<polygon fill="black" stroke="black" points="893.65,-17.06 883.51,-20.15 893.36,-24.05 893.65,-17.06"/>
</g>
<!-- scilab -->
<g id="node20" class="node">
<title>scilab</title>
<g id="a_node20"><a xlink:href="https://github.com/conda-forge/scilab-feedstock/pull/14" xlink:title="scilab">
<ellipse fill="#31688e" stroke="black" cx="1158.5" cy="-234" rx="40.5" ry="18"/>
<text text-anchor="middle" x="1158.5" y="-230.3" font-family="Times,serif" font-size="14.00" fill="white">scilab</text>
</a>
</g>
</g>
<!-- scilab&#45;&gt;conda&#45;forge&#45;pinning -->
<g id="edge29" class="edge">
<title>scilab&#45;&gt;conda&#45;forge&#45;pinning</title>
<path fill="none" stroke="black" d="M1164.23,-216.03C1174.37,-182.47 1190.73,-107.78 1149.5,-72 1111.95,-39.41 986.55,-26.85 892.28,-22.01"/>
<polygon fill="black" stroke="black" points="892.26,-18.51 882.1,-21.51 891.92,-25.5 892.26,-18.51"/>
</g>
<!-- ifcopenshell -->
<g id="node21" class="node">
<title>ifcopenshell</title>
<g id="a_node21"><a xlink:href="https://github.com/conda-forge/ifcopenshell-feedstock" xlink:title="ifcopenshell">
<ellipse fill="#35b779" stroke="black" cx="1167.5" cy="-306" rx="69.59" ry="18"/>
<text text-anchor="middle" x="1167.5" y="-302.3" font-family="Times,serif" font-size="14.00">ifcopenshell</text>
</a>
</g>
</g>
<!-- ifcopenshell&#45;&gt;conda&#45;forge&#45;pinning -->
<g id="edge30" class="edge">
<title>ifcopenshell&#45;&gt;conda&#45;forge&#45;pinning</title>
<path fill="none" stroke="black" d="M1185.24,-288.15C1194.07,-278.51 1203.84,-265.65 1208.5,-252 1227.96,-195.04 1203.16,-98.71 1173.5,-72 1133.38,-35.86 994.87,-24.11 893.61,-20.43"/>
<polygon fill="black" stroke="black" points="893.43,-16.92 883.32,-20.08 893.19,-23.92 893.43,-16.92"/>
</g>
<!-- libical -->
<g id="node22" class="node">
<title>libical</title>
<g id="a_node22"><a xlink:href="https://github.com/conda-forge/libical-feedstock/pull/7" xlink:title="libical">
<ellipse fill="#31688e" stroke="black" cx="1265.5" cy="-378" rx="45" ry="18"/>
<text text-anchor="middle" x="1265.5" y="-374.3" font-family="Times,serif" font-size="14.00" fill="white">libical</text>
</a>
</g>
</g>
<!-- libical&#45;&gt;conda&#45;forge&#45;pinning -->
<g id="edge31" class="edge">
<title>libical&#45;&gt;conda&#45;forge&#45;pinning</title>
<path fill="none" stroke="black" d="M1265.5,-359.95C1265.5,-333.29 1265.5,-280.11 1265.5,-235 1265.5,-235 1265.5,-235 1265.5,-161 1265.5,-111.22 1240.64,-96.84 1197.5,-72 1146.8,-42.81 996.05,-29.39 890.45,-23.44"/>
<polygon fill="black" stroke="black" points="890.55,-19.94 880.37,-22.89 890.17,-26.93 890.55,-19.94"/>
</g>
<!-- libv8 -->
<g id="node23" class="node">
<title>libv8</title>
<g id="a_node23"><a xlink:href="https://github.com/conda-forge/libv8-feedstock/pull/12" xlink:title="libv8">
<ellipse fill="#31688e" stroke="black" cx="851.5" cy="-162" rx="35.19" ry="18"/>
<text text-anchor="middle" x="851.5" y="-158.3" font-family="Times,serif" font-size="14.00" fill="white">libv8</text>
</a>
</g>
</g>
<!-- libv8&#45;&gt;conda&#45;forge&#45;pinning -->
<g id="edge32" class="edge">
<title>libv8&#45;&gt;conda&#45;forge&#45;pinning</title>
<path fill="none" stroke="black" d="M862.16,-144.53C872.79,-125.83 885.77,-94.95 872.5,-72 864.17,-57.59 850.28,-46.76 835.78,-38.77"/>
<polygon fill="black" stroke="black" points="837.22,-35.57 826.72,-34.15 834.04,-41.81 837.22,-35.57"/>
</g>
<!-- libv8&#45;&gt;r&#45;v8 -->
<g id="edge33" class="edge">
<title>libv8&#45;&gt;r&#45;v8</title>
<path fill="none" stroke="black" d="M846.9,-144.05C844.79,-136.26 842.22,-126.82 839.85,-118.08"/>
<polygon fill="black" stroke="black" points="843.19,-117.01 837.19,-108.28 836.43,-118.84 843.19,-117.01"/>
</g>
<!-- odil -->
<g id="node24" class="node">
<title>odil</title>
<g id="a_node24"><a xlink:href="https://github.com/conda-forge/odil-feedstock" xlink:title="odil">
<ellipse fill="#35b779" stroke="black" cx="1324.5" cy="-90" rx="30.59" ry="18"/>
<text text-anchor="middle" x="1324.5" y="-86.3" font-family="Times,serif" font-size="14.00">odil</text>
</a>
</g>
</g>
<!-- odil&#45;&gt;conda&#45;forge&#45;pinning -->
<g id="edge34" class="edge">
<title>odil&#45;&gt;conda&#45;forge&#45;pinning</title>
<path fill="none" stroke="black" d="M1300.57,-78.67C1293.86,-76.13 1286.49,-73.66 1279.5,-72 1148.47,-40.83 993.71,-27.98 891.67,-22.69"/>
<polygon fill="black" stroke="black" points="891.82,-19.19 881.65,-22.19 891.47,-26.18 891.82,-19.19"/>
</g>
<!-- nbin -->
<g id="node25" class="node">
<title>nbin</title>
<g id="a_node25"><a xlink:href="https://github.com/conda-forge/nbin-feedstock/pull/1" xlink:title="nbin">
<ellipse fill="#31688e" stroke="black" cx="1383.5" cy="-162" rx="30.59" ry="18"/>
<text text-anchor="middle" x="1383.5" y="-158.3" font-family="Times,serif" font-size="14.00" fill="white">nbin</text>
</a>
</g>
</g>
<!-- nbin&#45;&gt;conda&#45;forge&#45;pinning -->
<g id="edge35" class="edge">
<title>nbin&#45;&gt;conda&#45;forge&#45;pinning</title>
<path fill="none" stroke="black" d="M1385.29,-144.01C1386.4,-123.61 1384.71,-89.93 1364.5,-72 1330.01,-41.41 1051.91,-27.57 892.24,-22.1"/>
<polygon fill="black" stroke="black" points="892.01,-18.59 881.9,-21.75 891.77,-25.58 892.01,-18.59"/>
</g>
</g>
</svg>
