<?xml version="1.0" encoding="UTF-8" standalone="no"?>
<!DOCTYPE svg PUBLIC "-//W3C//DTD SVG 1.1//EN"
 "http://www.w3.org/Graphics/SVG/1.1/DTD/svg11.dtd">
<!-- Generated by graphviz version 2.42.3 (20191010.1750)
 -->
<!-- Title: %3 Pages: 1 -->
<svg width="1664pt" height="404pt"
 viewBox="0.00 0.00 1663.59 404.00" xmlns="http://www.w3.org/2000/svg" xmlns:xlink="http://www.w3.org/1999/xlink">
<g id="graph0" class="graph" transform="scale(1 1) rotate(0) translate(4 400)">
<title>%3</title>
<polygon fill="white" stroke="transparent" points="-4,4 -4,-400 1659.59,-400 1659.59,4 -4,4"/>
<!-- gdal -->
<g id="node1" class="node">
<title>gdal</title>
<g id="a_node1"><a xlink:href="https://github.com/conda-forge/gdal-feedstock" xlink:title="gdal">
<ellipse fill="#fde725" stroke="black" cx="419.05" cy="-162" rx="30.59" ry="18"/>
<text text-anchor="middle" x="419.05" y="-158.3" font-family="Times,serif" font-size="14.00">gdal</text>
</a>
</g>
</g>
<!-- qgis -->
<g id="node2" class="node">
<title>qgis</title>
<g id="a_node2"><a xlink:href="https://github.com/conda-forge/qgis-feedstock" xlink:title="qgis">
<ellipse fill="#fde725" stroke="black" cx="408.05" cy="-90" rx="30.59" ry="18"/>
<text text-anchor="middle" x="408.05" y="-86.3" font-family="Times,serif" font-size="14.00">qgis</text>
</a>
</g>
</g>
<!-- gdal&#45;&gt;qgis -->
<g id="edge1" class="edge">
<title>gdal&#45;&gt;qgis</title>
<path fill="none" stroke="black" d="M416.38,-144.05C415.17,-136.35 413.71,-127.03 412.35,-118.36"/>
<polygon fill="black" stroke="black" points="415.77,-117.61 410.76,-108.28 408.86,-118.7 415.77,-117.61"/>
</g>
<!-- conda&#45;forge&#45;pinning -->
<g id="node3" class="node">
<title>conda&#45;forge&#45;pinning</title>
<ellipse fill="none" stroke="black" cx="840.05" cy="-18" rx="103.5" ry="18"/>
<text text-anchor="middle" x="840.05" y="-14.3" font-family="Times,serif" font-size="14.00">conda&#45;forge&#45;pinning</text>
</g>
<!-- gdal&#45;&gt;conda&#45;forge&#45;pinning -->
<g id="edge2" class="edge">
<title>gdal&#45;&gt;conda&#45;forge&#45;pinning</title>
<path fill="none" stroke="black" d="M401.1,-147.2C379.09,-128.67 347.16,-95.37 368.05,-72 391.8,-45.43 598.7,-30.58 730.57,-23.73"/>
<polygon fill="black" stroke="black" points="730.91,-27.22 740.72,-23.21 730.56,-20.23 730.91,-27.22"/>
</g>
<!-- qgis&#45;&gt;conda&#45;forge&#45;pinning -->
<g id="edge3" class="edge">
<title>qgis&#45;&gt;conda&#45;forge&#45;pinning</title>
<path fill="none" stroke="black" d="M430.76,-77.85C436.01,-75.62 441.64,-73.51 447.05,-72 541.79,-45.52 653.2,-32.09 733.16,-25.39"/>
<polygon fill="black" stroke="black" points="733.56,-28.87 743.25,-24.56 733,-21.89 733.56,-28.87"/>
</g>
<!-- harfbuzz -->
<g id="node4" class="node">
<title>harfbuzz</title>
<g id="a_node4"><a xlink:href="https://github.com/conda-forge/harfbuzz-feedstock/pull/51" xlink:title="harfbuzz">
<ellipse fill="#31688e" stroke="black" cx="222.05" cy="-234" rx="50.09" ry="18"/>
<text text-anchor="middle" x="222.05" y="-230.3" font-family="Times,serif" font-size="14.00" fill="white">harfbuzz</text>
</a>
</g>
</g>
<!-- harfbuzz&#45;&gt;gdal -->
<g id="edge4" class="edge">
<title>harfbuzz&#45;&gt;gdal</title>
<path fill="none" stroke="black" d="M258.49,-221.57C290.49,-211.32 338.18,-195.56 379.05,-180 381.25,-179.16 383.51,-178.28 385.78,-177.36"/>
<polygon fill="black" stroke="black" points="387.14,-180.59 395.05,-173.55 384.47,-174.12 387.14,-180.59"/>
</g>
<!-- harfbuzz&#45;&gt;conda&#45;forge&#45;pinning -->
<g id="edge5" class="edge">
<title>harfbuzz&#45;&gt;conda&#45;forge&#45;pinning</title>
<path fill="none" stroke="black" d="M214.9,-215.87C208.31,-197.38 200.96,-167.46 211.05,-144 229.43,-101.26 244.69,-91.27 287.05,-72 363,-37.44 588.95,-25.39 727.4,-21.2"/>
<polygon fill="black" stroke="black" points="727.74,-24.7 737.63,-20.9 727.53,-17.7 727.74,-24.7"/>
</g>
<!-- libgd -->
<g id="node5" class="node">
<title>libgd</title>
<g id="a_node5"><a xlink:href="https://github.com/conda-forge/libgd-feedstock" xlink:title="libgd">
<ellipse fill="#fde725" stroke="black" cx="335.05" cy="-162" rx="35.19" ry="18"/>
<text text-anchor="middle" x="335.05" y="-158.3" font-family="Times,serif" font-size="14.00">libgd</text>
</a>
</g>
</g>
<!-- harfbuzz&#45;&gt;libgd -->
<g id="edge6" class="edge">
<title>harfbuzz&#45;&gt;libgd</title>
<path fill="none" stroke="black" d="M246.01,-218.15C263.16,-207.53 286.37,-193.15 304.8,-181.74"/>
<polygon fill="black" stroke="black" points="306.75,-184.65 313.41,-176.4 303.06,-178.69 306.75,-184.65"/>
</g>
<!-- tectonic -->
<g id="node6" class="node">
<title>tectonic</title>
<g id="a_node6"><a xlink:href="https://github.com/conda-forge/tectonic-feedstock" xlink:title="tectonic">
<ellipse fill="#fde725" stroke="black" cx="50.05" cy="-162" rx="50.09" ry="18"/>
<text text-anchor="middle" x="50.05" y="-158.3" font-family="Times,serif" font-size="14.00">tectonic</text>
</a>
</g>
</g>
<!-- harfbuzz&#45;&gt;tectonic -->
<g id="edge7" class="edge">
<title>harfbuzz&#45;&gt;tectonic</title>
<path fill="none" stroke="black" d="M190.1,-220C162.22,-208.65 121.6,-192.12 91.28,-179.78"/>
<polygon fill="black" stroke="black" points="92.4,-176.46 81.82,-175.93 89.77,-182.94 92.4,-176.46"/>
</g>
<!-- texlive&#45;core -->
<g id="node7" class="node">
<title>texlive&#45;core</title>
<g id="a_node7"><a xlink:href="https://github.com/conda-forge/texlive-core-feedstock" xlink:title="texlive core">
<ellipse fill="#fde725" stroke="black" cx="137.05" cy="-90" rx="69.59" ry="18"/>
<text text-anchor="middle" x="137.05" y="-86.3" font-family="Times,serif" font-size="14.00">texlive core</text>
</a>
</g>
</g>
<!-- harfbuzz&#45;&gt;texlive&#45;core -->
<g id="edge8" class="edge">
<title>harfbuzz&#45;&gt;texlive&#45;core</title>
<path fill="none" stroke="black" d="M206.58,-216.68C197.55,-206.61 186.33,-193.15 178.05,-180 165.5,-160.08 154.53,-135.7 147.11,-117.49"/>
<polygon fill="black" stroke="black" points="150.31,-116.07 143.36,-108.08 143.81,-118.66 150.31,-116.07"/>
</g>
<!-- gtk2 -->
<g id="node8" class="node">
<title>gtk2</title>
<g id="a_node8"><a xlink:href="https://github.com/conda-forge/gtk2-feedstock" xlink:title="gtk2">
<ellipse fill="#fde725" stroke="black" cx="251.05" cy="-162" rx="30.59" ry="18"/>
<text text-anchor="middle" x="251.05" y="-158.3" font-family="Times,serif" font-size="14.00">gtk2</text>
</a>
</g>
</g>
<!-- harfbuzz&#45;&gt;gtk2 -->
<g id="edge9" class="edge">
<title>harfbuzz&#45;&gt;gtk2</title>
<path fill="none" stroke="black" d="M229.07,-216.05C232.41,-207.97 236.5,-198.12 240.23,-189.11"/>
<polygon fill="black" stroke="black" points="243.5,-190.37 244.09,-179.79 237.03,-187.69 243.5,-190.37"/>
</g>
<!-- libgd&#45;&gt;conda&#45;forge&#45;pinning -->
<g id="edge10" class="edge">
<title>libgd&#45;&gt;conda&#45;forge&#45;pinning</title>
<path fill="none" stroke="black" d="M334.15,-143.99C334.08,-123.57 337.42,-89.87 358.05,-72 385.72,-48.03 598.37,-32.16 731.81,-24.46"/>
<polygon fill="black" stroke="black" points="732.29,-27.93 742.08,-23.87 731.89,-20.94 732.29,-27.93"/>
</g>
<!-- tectonic&#45;&gt;conda&#45;forge&#45;pinning -->
<g id="edge11" class="edge">
<title>tectonic&#45;&gt;conda&#45;forge&#45;pinning</title>
<path fill="none" stroke="black" d="M45.76,-143.86C41.85,-123.64 39.19,-90.44 58.05,-72 104.71,-26.35 520.77,-19.36 726.25,-18.72"/>
<polygon fill="black" stroke="black" points="726.48,-22.22 736.47,-18.69 726.46,-15.22 726.48,-22.22"/>
</g>
<!-- texlive&#45;core&#45;&gt;conda&#45;forge&#45;pinning -->
<g id="edge12" class="edge">
<title>texlive&#45;core&#45;&gt;conda&#45;forge&#45;pinning</title>
<path fill="none" stroke="black" d="M187.97,-77.72C198.84,-75.59 210.29,-73.54 221.05,-72 399.14,-46.44 607.96,-31.69 731.85,-24.51"/>
<polygon fill="black" stroke="black" points="732.31,-27.99 742.09,-23.92 731.91,-21 732.31,-27.99"/>
</g>
<!-- gtk2&#45;&gt;qgis -->
<g id="edge13" class="edge">
<title>gtk2&#45;&gt;qgis</title>
<path fill="none" stroke="black" d="M274.89,-150.37C301.67,-138.43 345.3,-118.97 375.28,-105.61"/>
<polygon fill="black" stroke="black" points="376.78,-108.77 384.49,-101.5 373.93,-102.38 376.78,-108.77"/>
</g>
<!-- gtk2&#45;&gt;conda&#45;forge&#45;pinning -->
<g id="edge14" class="edge">
<title>gtk2&#45;&gt;conda&#45;forge&#45;pinning</title>
<path fill="none" stroke="black" d="M260.94,-144.86C274.7,-124.02 301.72,-88.49 335.05,-72 401.83,-38.96 600.62,-26.44 727.95,-21.75"/>
<polygon fill="black" stroke="black" points="728.27,-25.25 738.14,-21.39 728.02,-18.25 728.27,-25.25"/>
</g>
<!-- igraph -->
<g id="node9" class="node">
<title>igraph</title>
<g id="a_node9"><a xlink:href="https://github.com/conda-forge/igraph-feedstock/pull/18" xlink:title="igraph">
<ellipse fill="#31688e" stroke="black" cx="497.05" cy="-90" rx="40.5" ry="18"/>
<text text-anchor="middle" x="497.05" y="-86.3" font-family="Times,serif" font-size="14.00" fill="white">igraph</text>
</a>
</g>
</g>
<!-- igraph&#45;&gt;conda&#45;forge&#45;pinning -->
<g id="edge15" class="edge">
<title>igraph&#45;&gt;conda&#45;forge&#45;pinning</title>
<path fill="none" stroke="black" d="M528.57,-78.56C536.21,-76.22 544.38,-73.88 552.05,-72 619.46,-55.44 696.9,-41.47 754.49,-32.03"/>
<polygon fill="black" stroke="black" points="755.33,-35.44 764.64,-30.38 754.21,-28.53 755.33,-35.44"/>
</g>
<!-- matplotlib -->
<g id="node10" class="node">
<title>matplotlib</title>
<g id="a_node10"><a xlink:href="https://github.com/conda-forge/matplotlib-feedstock" xlink:title="matplotlib">
<ellipse fill="#fde725" stroke="black" cx="566.05" cy="-162" rx="60" ry="18"/>
<text text-anchor="middle" x="566.05" y="-158.3" font-family="Times,serif" font-size="14.00">matplotlib</text>
</a>
</g>
</g>
<!-- matplotlib&#45;&gt;conda&#45;forge&#45;pinning -->
<g id="edge16" class="edge">
<title>matplotlib&#45;&gt;conda&#45;forge&#45;pinning</title>
<path fill="none" stroke="black" d="M564.58,-143.67C563.9,-123.58 566.11,-90.83 585.05,-72 607.06,-50.1 678.86,-36.44 740.68,-28.49"/>
<polygon fill="black" stroke="black" points="741.42,-31.92 750.91,-27.21 740.55,-24.98 741.42,-31.92"/>
</g>
<!-- alps -->
<g id="node11" class="node">
<title>alps</title>
<g id="a_node11"><a xlink:href="https://github.com/conda-forge/alps-feedstock" xlink:title="alps">
<ellipse fill="#fde725" stroke="black" cx="625.05" cy="-90" rx="30.59" ry="18"/>
<text text-anchor="middle" x="625.05" y="-86.3" font-family="Times,serif" font-size="14.00">alps</text>
</a>
</g>
</g>
<!-- matplotlib&#45;&gt;alps -->
<g id="edge17" class="edge">
<title>matplotlib&#45;&gt;alps</title>
<path fill="none" stroke="black" d="M580.03,-144.41C587.59,-135.44 597.05,-124.21 605.35,-114.37"/>
<polygon fill="black" stroke="black" points="608.2,-116.41 611.97,-106.51 602.85,-111.9 608.2,-116.41"/>
</g>
<!-- alps&#45;&gt;conda&#45;forge&#45;pinning -->
<g id="edge18" class="edge">
<title>alps&#45;&gt;conda&#45;forge&#45;pinning</title>
<path fill="none" stroke="black" d="M648.37,-78.3C653.49,-76.1 658.91,-73.88 664.05,-72 700.72,-58.54 742.56,-45.83 776.25,-36.24"/>
<polygon fill="black" stroke="black" points="777.3,-39.58 785.97,-33.49 775.4,-32.84 777.3,-39.58"/>
</g>
<!-- octave -->
<g id="node12" class="node">
<title>octave</title>
<g id="a_node12"><a xlink:href="https://github.com/conda-forge/octave-feedstock" xlink:title="octave">
<ellipse fill="#fde725" stroke="black" cx="714.05" cy="-90" rx="40.5" ry="18"/>
<text text-anchor="middle" x="714.05" y="-86.3" font-family="Times,serif" font-size="14.00">octave</text>
</a>
</g>
</g>
<!-- octave&#45;&gt;conda&#45;forge&#45;pinning -->
<g id="edge19" class="edge">
<title>octave&#45;&gt;conda&#45;forge&#45;pinning</title>
<path fill="none" stroke="black" d="M738.34,-75.5C756.28,-65.54 781.06,-51.77 801.67,-40.32"/>
<polygon fill="black" stroke="black" points="803.46,-43.33 810.5,-35.41 800.06,-37.21 803.46,-43.33"/>
</g>
<!-- python&#45;igraph -->
<g id="node13" class="node">
<title>python&#45;igraph</title>
<g id="a_node13"><a xlink:href="https://github.com/conda-forge/python-igraph-feedstock/pull/31" xlink:title="python igraph">
<ellipse fill="#31688e" stroke="black" cx="756.05" cy="-162" rx="74.19" ry="18"/>
<text text-anchor="middle" x="756.05" y="-158.3" font-family="Times,serif" font-size="14.00" fill="white">python igraph</text>
</a>
</g>
</g>
<!-- python&#45;igraph&#45;&gt;conda&#45;forge&#45;pinning -->
<g id="edge20" class="edge">
<title>python&#45;igraph&#45;&gt;conda&#45;forge&#45;pinning</title>
<path fill="none" stroke="black" d="M765.64,-143.83C775.75,-125.83 792.25,-96.76 807.05,-72 812.41,-63.02 818.42,-53.28 823.82,-44.63"/>
<polygon fill="black" stroke="black" points="826.83,-46.42 829.19,-36.09 820.91,-42.7 826.83,-46.42"/>
</g>
<!-- qt -->
<g id="node14" class="node">
<title>qt</title>
<g id="a_node14"><a xlink:href="https://github.com/conda-forge/qt-feedstock/pull/155" xlink:title="qt">
<ellipse fill="#31688e" stroke="black" cx="522.05" cy="-234" rx="27" ry="18"/>
<text text-anchor="middle" x="522.05" y="-230.3" font-family="Times,serif" font-size="14.00" fill="white">qt</text>
</a>
</g>
</g>
<!-- qt&#45;&gt;gdal -->
<g id="edge21" class="edge">
<title>qt&#45;&gt;gdal</title>
<path fill="none" stroke="black" d="M503.63,-220.49C487.82,-209.74 464.79,-194.09 446.75,-181.83"/>
<polygon fill="black" stroke="black" points="448.59,-178.85 438.35,-176.12 444.65,-184.63 448.59,-178.85"/>
</g>
<!-- qt&#45;&gt;qgis -->
<g id="edge22" class="edge">
<title>qt&#45;&gt;qgis</title>
<path fill="none" stroke="black" d="M511.8,-217.04C499.87,-198.81 479.2,-168.36 459.05,-144 450.27,-133.39 439.84,-122.32 430.71,-113.05"/>
<polygon fill="black" stroke="black" points="432.95,-110.34 423.4,-105.75 428,-115.29 432.95,-110.34"/>
</g>
<!-- qt&#45;&gt;conda&#45;forge&#45;pinning -->
<g id="edge23" class="edge">
<title>qt&#45;&gt;conda&#45;forge&#45;pinning</title>
<path fill="none" stroke="black" d="M549.08,-232.74C618.78,-231.43 801.73,-223.8 839.05,-180 855.6,-160.57 849.04,-86.89 843.92,-46.28"/>
<polygon fill="black" stroke="black" points="847.38,-45.7 842.6,-36.24 840.44,-46.61 847.38,-45.7"/>
</g>
<!-- qt&#45;&gt;libgd -->
<g id="edge24" class="edge">
<title>qt&#45;&gt;libgd</title>
<path fill="none" stroke="black" d="M498.73,-224.47C470.39,-214.08 421.14,-195.93 379.05,-180 376.7,-179.11 374.29,-178.19 371.85,-177.26"/>
<polygon fill="black" stroke="black" points="373.07,-173.98 362.48,-173.67 370.57,-180.52 373.07,-173.98"/>
</g>
<!-- qt&#45;&gt;matplotlib -->
<g id="edge25" class="edge">
<title>qt&#45;&gt;matplotlib</title>
<path fill="none" stroke="black" d="M532.03,-217.12C537.33,-208.68 543.98,-198.1 549.99,-188.55"/>
<polygon fill="black" stroke="black" points="553.13,-190.13 555.49,-179.8 547.2,-186.4 553.13,-190.13"/>
</g>
<!-- qt&#45;&gt;octave -->
<g id="edge26" class="edge">
<title>qt&#45;&gt;octave</title>
<path fill="none" stroke="black" d="M545.63,-225.15C569.61,-216.46 607.1,-200.88 635.05,-180 648.24,-170.14 675.64,-138.05 694.43,-115.23"/>
<polygon fill="black" stroke="black" points="697.29,-117.26 700.92,-107.31 691.88,-112.83 697.29,-117.26"/>
</g>
<!-- r&#45;base -->
<g id="node15" class="node">
<title>r&#45;base</title>
<g id="a_node15"><a xlink:href="https://github.com/conda-forge/r-base-feedstock" xlink:title="r base">
<ellipse fill="#35b779" stroke="black" cx="942.05" cy="-162" rx="40.5" ry="18"/>
<text text-anchor="middle" x="942.05" y="-158.3" font-family="Times,serif" font-size="14.00">r base</text>
</a>
</g>
</g>
<!-- r&#45;base&#45;&gt;conda&#45;forge&#45;pinning -->
<g id="edge27" class="edge">
<title>r&#45;base&#45;&gt;conda&#45;forge&#45;pinning</title>
<path fill="none" stroke="black" d="M919.87,-146.7C906.35,-137.08 889.52,-123.37 878.05,-108 864.05,-89.26 854.04,-64.58 847.82,-45.96"/>
<polygon fill="black" stroke="black" points="851.12,-44.79 844.75,-36.32 844.45,-46.91 851.12,-44.79"/>
</g>
<!-- r&#45;stringi -->
<g id="node16" class="node">
<title>r&#45;stringi</title>
<g id="a_node16"><a xlink:href="https://github.com/conda-forge/r-stringi-feedstock" xlink:title="r stringi">
<ellipse fill="#fde725" stroke="black" cx="942.05" cy="-90" rx="54.69" ry="18"/>
<text text-anchor="middle" x="942.05" y="-86.3" font-family="Times,serif" font-size="14.00">r stringi</text>
</a>
</g>
</g>
<!-- r&#45;base&#45;&gt;r&#45;stringi -->
<g id="edge28" class="edge">
<title>r&#45;base&#45;&gt;r&#45;stringi</title>
<path fill="none" stroke="black" d="M942.05,-143.7C942.05,-135.98 942.05,-126.71 942.05,-118.11"/>
<polygon fill="black" stroke="black" points="945.55,-118.1 942.05,-108.1 938.55,-118.1 945.55,-118.1"/>
</g>
<!-- r&#45;v8 -->
<g id="node17" class="node">
<title>r&#45;v8</title>
<g id="a_node17"><a xlink:href="https://github.com/conda-forge/r-v8-feedstock" xlink:title="r v8">
<ellipse fill="#fde725" stroke="black" cx="1045.05" cy="-90" rx="30.59" ry="18"/>
<text text-anchor="middle" x="1045.05" y="-86.3" font-family="Times,serif" font-size="14.00">r v8</text>
</a>
</g>
</g>
<!-- r&#45;base&#45;&gt;r&#45;v8 -->
<g id="edge29" class="edge">
<title>r&#45;base&#45;&gt;r&#45;v8</title>
<path fill="none" stroke="black" d="M963.39,-146.5C979.04,-135.86 1000.44,-121.32 1017.4,-109.79"/>
<polygon fill="black" stroke="black" points="1019.51,-112.58 1025.82,-104.07 1015.58,-106.8 1019.51,-112.58"/>
</g>
<!-- r&#45;stringi&#45;&gt;conda&#45;forge&#45;pinning -->
<g id="edge30" class="edge">
<title>r&#45;stringi&#45;&gt;conda&#45;forge&#45;pinning</title>
<path fill="none" stroke="black" d="M919.41,-73.46C905.77,-64.1 888.16,-52.02 873,-41.61"/>
<polygon fill="black" stroke="black" points="874.63,-38.49 864.4,-35.71 870.66,-44.26 874.63,-38.49"/>
</g>
<!-- r&#45;v8&#45;&gt;conda&#45;forge&#45;pinning -->
<g id="edge31" class="edge">
<title>r&#45;v8&#45;&gt;conda&#45;forge&#45;pinning</title>
<path fill="none" stroke="black" d="M1021.69,-78.36C1016.58,-76.16 1011.16,-73.93 1006.05,-72 971.53,-59.01 932.25,-46.37 900.57,-36.7"/>
<polygon fill="black" stroke="black" points="901.58,-33.35 891,-33.8 899.55,-40.05 901.58,-33.35"/>
</g>
<!-- root5 -->
<g id="node18" class="node">
<title>root5</title>
<g id="a_node18"><a xlink:href="https://github.com/conda-forge/root5-feedstock" xlink:title="root5">
<ellipse fill="#35b779" stroke="black" cx="1117.05" cy="-234" rx="35.19" ry="18"/>
<text text-anchor="middle" x="1117.05" y="-230.3" font-family="Times,serif" font-size="14.00">root5</text>
</a>
</g>
</g>
<!-- root5&#45;&gt;conda&#45;forge&#45;pinning -->
<g id="edge32" class="edge">
<title>root5&#45;&gt;conda&#45;forge&#45;pinning</title>
<path fill="none" stroke="black" d="M1121.42,-216.13C1128.71,-183.75 1139.22,-112.48 1103.05,-72 1081.69,-48.1 1007.27,-34.58 943.02,-27.19"/>
<polygon fill="black" stroke="black" points="943.14,-23.68 932.81,-26.05 942.36,-30.63 943.14,-23.68"/>
</g>
<!-- pyicu -->
<g id="node19" class="node">
<title>pyicu</title>
<g id="a_node19"><a xlink:href="https://github.com/conda-forge/pyicu-feedstock/pull/16" xlink:title="pyicu">
<ellipse fill="#31688e" stroke="black" cx="1180.05" cy="-306" rx="35.19" ry="18"/>
<text text-anchor="middle" x="1180.05" y="-302.3" font-family="Times,serif" font-size="14.00" fill="white">pyicu</text>
</a>
</g>
</g>
<!-- pyicu&#45;&gt;conda&#45;forge&#45;pinning -->
<g id="edge33" class="edge">
<title>pyicu&#45;&gt;conda&#45;forge&#45;pinning</title>
<path fill="none" stroke="black" d="M1181.91,-287.92C1185.57,-244.77 1188.64,-130.64 1127.05,-72 1101.03,-47.23 1015.8,-33.64 944.93,-26.45"/>
<polygon fill="black" stroke="black" points="944.88,-22.93 934.58,-25.43 944.19,-29.89 944.88,-22.93"/>
</g>
<!-- mdsplus -->
<g id="node20" class="node">
<title>mdsplus</title>
<g id="a_node20"><a xlink:href="https://github.com/conda-forge/mdsplus-feedstock" xlink:title="mdsplus">
<ellipse fill="#35b779" stroke="black" cx="1315.05" cy="-378" rx="45" ry="18"/>
<text text-anchor="middle" x="1315.05" y="-374.3" font-family="Times,serif" font-size="14.00">mdsplus</text>
</a>
</g>
</g>
<!-- mdsplus&#45;&gt;conda&#45;forge&#45;pinning -->
<g id="edge34" class="edge">
<title>mdsplus&#45;&gt;conda&#45;forge&#45;pinning</title>
<path fill="none" stroke="black" d="M1317.08,-359.84C1324.17,-298.61 1346.29,-93.45 1327.05,-72 1302.32,-44.44 1085.88,-29.85 950,-23.34"/>
<polygon fill="black" stroke="black" points="950.11,-19.84 939.95,-22.86 949.78,-26.83 950.11,-19.84"/>
</g>
<!-- ticcutils -->
<g id="node21" class="node">
<title>ticcutils</title>
<g id="a_node21"><a xlink:href="https://github.com/conda-forge/ticcutils-feedstock/pull/10" xlink:title="ticcutils">
<ellipse fill="#31688e" stroke="black" cx="1263.05" cy="-90" rx="54.69" ry="18"/>
<text text-anchor="middle" x="1263.05" y="-86.3" font-family="Times,serif" font-size="14.00" fill="white">ticcutils</text>
</a>
</g>
</g>
<!-- ticcutils&#45;&gt;conda&#45;forge&#45;pinning -->
<g id="edge35" class="edge">
<title>ticcutils&#45;&gt;conda&#45;forge&#45;pinning</title>
<path fill="none" stroke="black" d="M1221.59,-78.12C1212.55,-75.94 1203,-73.77 1194.05,-72 1105.72,-54.55 1003.99,-39.87 932.32,-30.42"/>
<polygon fill="black" stroke="black" points="932.34,-26.9 921.97,-29.07 931.43,-33.84 932.34,-26.9"/>
</g>
<!-- scilab -->
<g id="node22" class="node">
<title>scilab</title>
<g id="a_node22"><a xlink:href="https://github.com/conda-forge/scilab-feedstock/pull/14" xlink:title="scilab">
<ellipse fill="#31688e" stroke="black" cx="1384.05" cy="-162" rx="40.5" ry="18"/>
<text text-anchor="middle" x="1384.05" y="-158.3" font-family="Times,serif" font-size="14.00" fill="white">scilab</text>
</a>
</g>
</g>
<!-- scilab&#45;&gt;conda&#45;forge&#45;pinning -->
<g id="edge36" class="edge">
<title>scilab&#45;&gt;conda&#45;forge&#45;pinning</title>
<path fill="none" stroke="black" d="M1384.76,-143.94C1384.6,-123.48 1380.9,-89.72 1360.05,-72 1329.47,-46.01 1092.9,-30.63 949.59,-23.61"/>
<polygon fill="black" stroke="black" points="949.6,-20.11 939.44,-23.12 949.26,-27.1 949.6,-20.11"/>
</g>
<!-- ifcopenshell -->
<g id="node23" class="node">
<title>ifcopenshell</title>
<g id="a_node23"><a xlink:href="https://github.com/conda-forge/ifcopenshell-feedstock" xlink:title="ifcopenshell">
<ellipse fill="#35b779" stroke="black" cx="1413.05" cy="-234" rx="69.59" ry="18"/>
<text text-anchor="middle" x="1413.05" y="-230.3" font-family="Times,serif" font-size="14.00">ifcopenshell</text>
</a>
</g>
</g>
<!-- ifcopenshell&#45;&gt;conda&#45;forge&#45;pinning -->
<g id="edge37" class="edge">
<title>ifcopenshell&#45;&gt;conda&#45;forge&#45;pinning</title>
<path fill="none" stroke="black" d="M1422.41,-216.07C1431.15,-198.02 1441.78,-168.69 1434.05,-144 1422.4,-106.82 1417.65,-91.71 1384.05,-72 1313.53,-30.64 1091.47,-20.94 953.83,-19.03"/>
<polygon fill="black" stroke="black" points="953.71,-15.53 943.66,-18.9 953.62,-22.53 953.71,-15.53"/>
</g>
<!-- libical -->
<g id="node24" class="node">
<title>libical</title>
<g id="a_node24"><a xlink:href="https://github.com/conda-forge/libical-feedstock/pull/7" xlink:title="libical">
<ellipse fill="#31688e" stroke="black" cx="1493.05" cy="-306" rx="45" ry="18"/>
<text text-anchor="middle" x="1493.05" y="-302.3" font-family="Times,serif" font-size="14.00" fill="white">libical</text>
</a>
</g>
</g>
<!-- libical&#45;&gt;conda&#45;forge&#45;pinning -->
<g id="edge38" class="edge">
<title>libical&#45;&gt;conda&#45;forge&#45;pinning</title>
<path fill="none" stroke="black" d="M1495.2,-287.96C1496.95,-269.82 1498.24,-240.41 1492.05,-216 1474.25,-145.85 1476.24,-112.17 1416.05,-72 1378.24,-46.77 1105.88,-30.72 949.59,-23.48"/>
<polygon fill="black" stroke="black" points="949.62,-19.98 939.47,-23.02 949.3,-26.97 949.62,-19.98"/>
</g>
<!-- libv8 -->
<g id="node25" class="node">
<title>libv8</title>
<g id="a_node25"><a xlink:href="https://github.com/conda-forge/libv8-feedstock/pull/12" xlink:title="libv8">
<ellipse fill="#31688e" stroke="black" cx="1062.05" cy="-162" rx="35.19" ry="18"/>
<text text-anchor="middle" x="1062.05" y="-158.3" font-family="Times,serif" font-size="14.00" fill="white">libv8</text>
</a>
</g>
</g>
<!-- libv8&#45;&gt;conda&#45;forge&#45;pinning -->
<g id="edge39" class="edge">
<title>libv8&#45;&gt;conda&#45;forge&#45;pinning</title>
<path fill="none" stroke="black" d="M1073.86,-144.77C1086.35,-125.43 1102.08,-93.11 1085.05,-72 1066.67,-49.23 1000,-35.76 940.84,-28.1"/>
<polygon fill="black" stroke="black" points="941.02,-24.59 930.66,-26.82 940.15,-31.54 941.02,-24.59"/>
</g>
<!-- libv8&#45;&gt;r&#45;v8 -->
<g id="edge40" class="edge">
<title>libv8&#45;&gt;r&#45;v8</title>
<path fill="none" stroke="black" d="M1057.93,-144.05C1056.04,-136.26 1053.75,-126.82 1051.62,-118.08"/>
<polygon fill="black" stroke="black" points="1055,-117.17 1049.24,-108.28 1048.2,-118.82 1055,-117.17"/>
</g>
<!-- odil -->
<g id="node26" class="node">
<title>odil</title>
<g id="a_node26"><a xlink:href="https://github.com/conda-forge/odil-feedstock" xlink:title="odil">
<ellipse fill="#35b779" stroke="black" cx="1566.05" cy="-378" rx="30.59" ry="18"/>
<text text-anchor="middle" x="1566.05" y="-374.3" font-family="Times,serif" font-size="14.00">odil</text>
</a>
</g>
</g>
<!-- odil&#45;&gt;conda&#45;forge&#45;pinning -->
<g id="edge41" class="edge">
<title>odil&#45;&gt;conda&#45;forge&#45;pinning</title>
<path fill="none" stroke="black" d="M1566.05,-359.95C1566.05,-333.29 1566.05,-280.11 1566.05,-235 1566.05,-235 1566.05,-235 1566.05,-161 1566.05,-95.67 1509.99,-95.54 1449.05,-72 1361.28,-38.1 1102.96,-25.74 952.44,-21.34"/>
<polygon fill="black" stroke="black" points="952.33,-17.83 942.24,-21.05 952.13,-24.83 952.33,-17.83"/>
</g>
<!-- nbin -->
<g id="node27" class="node">
<title>nbin</title>
<g id="a_node27"><a xlink:href="https://github.com/conda-forge/nbin-feedstock/pull/1" xlink:title="nbin">
<ellipse fill="#31688e" stroke="black" cx="1625.05" cy="-90" rx="30.59" ry="18"/>
<text text-anchor="middle" x="1625.05" y="-86.3" font-family="Times,serif" font-size="14.00" fill="white">nbin</text>
</a>
</g>
</g>
<!-- nbin&#45;&gt;conda&#45;forge&#45;pinning -->
<g id="edge42" class="edge">
<title>nbin&#45;&gt;conda&#45;forge&#45;pinning</title>
<path fill="none" stroke="black" d="M1601.15,-78.51C1594.44,-75.97 1587.06,-73.54 1580.05,-72 1463.28,-46.33 1126.71,-30.02 950.54,-22.99"/>
<polygon fill="black" stroke="black" points="950.59,-19.49 940.46,-22.59 950.31,-26.49 950.59,-19.49"/>
</g>
</g>
</svg>
