<?xml version="1.0" encoding="UTF-8" standalone="no"?>
<!DOCTYPE svg PUBLIC "-//W3C//DTD SVG 1.1//EN"
 "http://www.w3.org/Graphics/SVG/1.1/DTD/svg11.dtd">
<!-- Generated by graphviz version 2.42.3 (20191010.1750)
 -->
<!-- Title: %3 Pages: 1 -->
<svg width="1852pt" height="404pt"
 viewBox="0.00 0.00 1852.09 404.00" xmlns="http://www.w3.org/2000/svg" xmlns:xlink="http://www.w3.org/1999/xlink">
<g id="graph0" class="graph" transform="scale(1 1) rotate(0) translate(4 400)">
<title>%3</title>
<polygon fill="white" stroke="transparent" points="-4,4 -4,-400 1848.09,-400 1848.09,4 -4,4"/>
<!-- cairo -->
<g id="node1" class="node">
<title>cairo</title>
<g id="a_node1"><a xlink:href="https://github.com/conda-forge/cairo-feedstock" xlink:title="cairo">
<ellipse fill="#fde725" stroke="black" cx="475.54" cy="-306" rx="35.19" ry="18"/>
<text text-anchor="middle" x="475.54" y="-302.3" font-family="Times,serif" font-size="14.00">cairo</text>
</a>
</g>
</g>
<!-- gdal -->
<g id="node2" class="node">
<title>gdal</title>
<g id="a_node2"><a xlink:href="https://github.com/conda-forge/gdal-feedstock" xlink:title="gdal">
<ellipse fill="#fde725" stroke="black" cx="678.54" cy="-162" rx="30.59" ry="18"/>
<text text-anchor="middle" x="678.54" y="-158.3" font-family="Times,serif" font-size="14.00">gdal</text>
</a>
</g>
</g>
<!-- cairo&#45;&gt;gdal -->
<g id="edge1" class="edge">
<title>cairo&#45;&gt;gdal</title>
<path fill="none" stroke="black" d="M498.42,-292.2C516.46,-281.88 542.06,-266.71 563.54,-252 595.64,-230.02 630.76,-202.26 653.64,-183.64"/>
<polygon fill="black" stroke="black" points="655.96,-186.26 661.48,-177.22 651.53,-180.84 655.96,-186.26"/>
</g>
<!-- harfbuzz -->
<g id="node3" class="node">
<title>harfbuzz</title>
<g id="a_node3"><a xlink:href="https://github.com/conda-forge/harfbuzz-feedstock" xlink:title="harfbuzz">
<ellipse fill="#fde725" stroke="black" cx="475.54" cy="-234" rx="50.09" ry="18"/>
<text text-anchor="middle" x="475.54" y="-230.3" font-family="Times,serif" font-size="14.00">harfbuzz</text>
</a>
</g>
</g>
<!-- cairo&#45;&gt;harfbuzz -->
<g id="edge2" class="edge">
<title>cairo&#45;&gt;harfbuzz</title>
<path fill="none" stroke="black" d="M475.54,-287.7C475.54,-279.98 475.54,-270.71 475.54,-262.11"/>
<polygon fill="black" stroke="black" points="479.04,-262.1 475.54,-252.1 472.04,-262.1 479.04,-262.1"/>
</g>
<!-- r&#45;base -->
<g id="node4" class="node">
<title>r&#45;base</title>
<g id="a_node4"><a xlink:href="https://github.com/conda-forge/r-base-feedstock" xlink:title="r base">
<ellipse fill="#fde725" stroke="black" cx="69.54" cy="-162" rx="40.5" ry="18"/>
<text text-anchor="middle" x="69.54" y="-158.3" font-family="Times,serif" font-size="14.00">r base</text>
</a>
</g>
</g>
<!-- cairo&#45;&gt;r&#45;base -->
<g id="edge3" class="edge">
<title>cairo&#45;&gt;r&#45;base</title>
<path fill="none" stroke="black" d="M447.32,-295.13C376.64,-270.41 191.87,-205.78 109.81,-177.08"/>
<polygon fill="black" stroke="black" points="110.92,-173.76 100.33,-173.77 108.61,-180.37 110.92,-173.76"/>
</g>
<!-- texlive&#45;core -->
<g id="node5" class="node">
<title>texlive&#45;core</title>
<g id="a_node5"><a xlink:href="https://github.com/conda-forge/texlive-core-feedstock" xlink:title="texlive core">
<ellipse fill="#fde725" stroke="black" cx="442.54" cy="-162" rx="69.59" ry="18"/>
<text text-anchor="middle" x="442.54" y="-158.3" font-family="Times,serif" font-size="14.00">texlive core</text>
</a>
</g>
</g>
<!-- cairo&#45;&gt;texlive&#45;core -->
<g id="edge4" class="edge">
<title>cairo&#45;&gt;texlive&#45;core</title>
<path fill="none" stroke="black" d="M453.24,-291.84C439.87,-282.58 424.06,-268.85 416.54,-252 407.39,-231.47 415.96,-206.85 425.64,-188.72"/>
<polygon fill="black" stroke="black" points="428.77,-190.29 430.72,-179.88 422.7,-186.81 428.77,-190.29"/>
</g>
<!-- gtk2 -->
<g id="node6" class="node">
<title>gtk2</title>
<g id="a_node6"><a xlink:href="https://github.com/conda-forge/gtk2-feedstock" xlink:title="gtk2">
<ellipse fill="#fde725" stroke="black" cx="599.54" cy="-162" rx="30.59" ry="18"/>
<text text-anchor="middle" x="599.54" y="-158.3" font-family="Times,serif" font-size="14.00">gtk2</text>
</a>
</g>
</g>
<!-- cairo&#45;&gt;gtk2 -->
<g id="edge5" class="edge">
<title>cairo&#45;&gt;gtk2</title>
<path fill="none" stroke="black" d="M493.74,-290.36C505.89,-280.19 521.9,-266 534.54,-252 552.96,-231.63 571.15,-206.13 583.59,-187.65"/>
<polygon fill="black" stroke="black" points="586.59,-189.46 589.21,-179.2 580.76,-185.59 586.59,-189.46"/>
</g>
<!-- conda&#45;forge&#45;pinning -->
<g id="node7" class="node">
<title>conda&#45;forge&#45;pinning</title>
<ellipse fill="none" stroke="black" cx="895.54" cy="-18" rx="103.5" ry="18"/>
<text text-anchor="middle" x="895.54" y="-14.3" font-family="Times,serif" font-size="14.00">conda&#45;forge&#45;pinning</text>
</g>
<!-- cairo&#45;&gt;conda&#45;forge&#45;pinning -->
<g id="edge6" class="edge">
<title>cairo&#45;&gt;conda&#45;forge&#45;pinning</title>
<path fill="none" stroke="black" d="M448.6,-294.44C392.92,-272.03 268.48,-218.57 245.54,-180 237.37,-166.25 237.08,-157.58 245.54,-144 301.52,-54.26 613.09,-28.94 783.73,-21.8"/>
<polygon fill="black" stroke="black" points="783.9,-25.3 793.75,-21.4 783.62,-18.31 783.9,-25.3"/>
</g>
<!-- gdal&#45;&gt;conda&#45;forge&#45;pinning -->
<g id="edge7" class="edge">
<title>gdal&#45;&gt;conda&#45;forge&#45;pinning</title>
<path fill="none" stroke="black" d="M682.75,-144.04C688.58,-124 701.05,-90.98 723.54,-72 746.93,-52.27 777.6,-39.88 806.55,-32.1"/>
<polygon fill="black" stroke="black" points="807.45,-35.48 816.29,-29.63 805.73,-28.69 807.45,-35.48"/>
</g>
<!-- qgis -->
<g id="node8" class="node">
<title>qgis</title>
<g id="a_node8"><a xlink:href="https://github.com/conda-forge/qgis-feedstock" xlink:title="qgis">
<ellipse fill="#fde725" stroke="black" cx="640.54" cy="-90" rx="30.59" ry="18"/>
<text text-anchor="middle" x="640.54" y="-86.3" font-family="Times,serif" font-size="14.00">qgis</text>
</a>
</g>
</g>
<!-- gdal&#45;&gt;qgis -->
<g id="edge8" class="edge">
<title>gdal&#45;&gt;qgis</title>
<path fill="none" stroke="black" d="M669.73,-144.76C665.19,-136.4 659.55,-126.02 654.44,-116.61"/>
<polygon fill="black" stroke="black" points="657.42,-114.75 649.57,-107.63 651.27,-118.09 657.42,-114.75"/>
</g>
<!-- harfbuzz&#45;&gt;gdal -->
<g id="edge9" class="edge">
<title>harfbuzz&#45;&gt;gdal</title>
<path fill="none" stroke="black" d="M513.03,-222.03C546.51,-211.97 596.73,-196.21 639.54,-180 641.62,-179.21 643.75,-178.38 645.88,-177.52"/>
<polygon fill="black" stroke="black" points="647.31,-180.71 655.19,-173.63 644.61,-174.25 647.31,-180.71"/>
</g>
<!-- harfbuzz&#45;&gt;texlive&#45;core -->
<g id="edge10" class="edge">
<title>harfbuzz&#45;&gt;texlive&#45;core</title>
<path fill="none" stroke="black" d="M467.56,-216.05C463.8,-208.09 459.24,-198.41 455.04,-189.51"/>
<polygon fill="black" stroke="black" points="458.12,-187.83 450.69,-180.28 451.79,-190.81 458.12,-187.83"/>
</g>
<!-- harfbuzz&#45;&gt;gtk2 -->
<g id="edge11" class="edge">
<title>harfbuzz&#45;&gt;gtk2</title>
<path fill="none" stroke="black" d="M501.24,-218.5C521.01,-207.33 548.39,-191.88 569.24,-180.11"/>
<polygon fill="black" stroke="black" points="571.03,-183.12 578.02,-175.15 567.59,-177.02 571.03,-183.12"/>
</g>
<!-- harfbuzz&#45;&gt;conda&#45;forge&#45;pinning -->
<g id="edge12" class="edge">
<title>harfbuzz&#45;&gt;conda&#45;forge&#45;pinning</title>
<path fill="none" stroke="black" d="M491.27,-216.46C500.56,-206.31 512.28,-192.85 521.54,-180 554.18,-134.75 539.58,-103.62 585.54,-72 618.64,-49.23 716.11,-35.13 793.01,-27.25"/>
<polygon fill="black" stroke="black" points="793.63,-30.7 803.24,-26.23 792.94,-23.74 793.63,-30.7"/>
</g>
<!-- libgd -->
<g id="node9" class="node">
<title>libgd</title>
<g id="a_node9"><a xlink:href="https://github.com/conda-forge/libgd-feedstock" xlink:title="libgd">
<ellipse fill="#fde725" stroke="black" cx="1152.54" cy="-162" rx="35.19" ry="18"/>
<text text-anchor="middle" x="1152.54" y="-158.3" font-family="Times,serif" font-size="14.00">libgd</text>
</a>
</g>
</g>
<!-- harfbuzz&#45;&gt;libgd -->
<g id="edge13" class="edge">
<title>harfbuzz&#45;&gt;libgd</title>
<path fill="none" stroke="black" d="M522.88,-228.09C557.64,-224.55 606.01,-219.75 648.54,-216 852.82,-197.97 908.57,-225.43 1108.54,-180 1111.39,-179.35 1114.29,-178.56 1117.19,-177.67"/>
<polygon fill="black" stroke="black" points="1118.55,-180.9 1126.88,-174.35 1116.28,-174.28 1118.55,-180.9"/>
</g>
<!-- tectonic -->
<g id="node10" class="node">
<title>tectonic</title>
<g id="a_node10"><a xlink:href="https://github.com/conda-forge/tectonic-feedstock" xlink:title="tectonic">
<ellipse fill="#fde725" stroke="black" cx="304.54" cy="-162" rx="50.09" ry="18"/>
<text text-anchor="middle" x="304.54" y="-158.3" font-family="Times,serif" font-size="14.00">tectonic</text>
</a>
</g>
</g>
<!-- harfbuzz&#45;&gt;tectonic -->
<g id="edge14" class="edge">
<title>harfbuzz&#45;&gt;tectonic</title>
<path fill="none" stroke="black" d="M443.78,-220C416.15,-208.69 375.94,-192.23 345.82,-179.9"/>
<polygon fill="black" stroke="black" points="347.01,-176.6 336.43,-176.05 344.36,-183.08 347.01,-176.6"/>
</g>
<!-- r&#45;base&#45;&gt;conda&#45;forge&#45;pinning -->
<g id="edge15" class="edge">
<title>r&#45;base&#45;&gt;conda&#45;forge&#45;pinning</title>
<path fill="none" stroke="black" d="M53.56,-145.34C35.71,-125.99 11.75,-93.05 31.54,-72 56.91,-45.03 555.36,-28.17 783.39,-21.84"/>
<polygon fill="black" stroke="black" points="783.81,-25.33 793.71,-21.56 783.62,-18.34 783.81,-25.33"/>
</g>
<!-- r&#45;stringi -->
<g id="node11" class="node">
<title>r&#45;stringi</title>
<g id="a_node11"><a xlink:href="https://github.com/conda-forge/r-stringi-feedstock" xlink:title="r stringi">
<ellipse fill="#fde725" stroke="black" cx="95.54" cy="-90" rx="54.69" ry="18"/>
<text text-anchor="middle" x="95.54" y="-86.3" font-family="Times,serif" font-size="14.00">r stringi</text>
</a>
</g>
</g>
<!-- r&#45;base&#45;&gt;r&#45;stringi -->
<g id="edge16" class="edge">
<title>r&#45;base&#45;&gt;r&#45;stringi</title>
<path fill="none" stroke="black" d="M75.84,-144.05C78.76,-136.18 82.32,-126.62 85.59,-117.79"/>
<polygon fill="black" stroke="black" points="88.93,-118.87 89.13,-108.28 82.37,-116.43 88.93,-118.87"/>
</g>
<!-- r&#45;v8 -->
<g id="node12" class="node">
<title>r&#45;v8</title>
<g id="a_node12"><a xlink:href="https://github.com/conda-forge/r-v8-feedstock" xlink:title="r v8">
<ellipse fill="#fde725" stroke="black" cx="198.54" cy="-90" rx="30.59" ry="18"/>
<text text-anchor="middle" x="198.54" y="-86.3" font-family="Times,serif" font-size="14.00">r v8</text>
</a>
</g>
</g>
<!-- r&#45;base&#45;&gt;r&#45;v8 -->
<g id="edge17" class="edge">
<title>r&#45;base&#45;&gt;r&#45;v8</title>
<path fill="none" stroke="black" d="M94.11,-147.67C115.06,-136.3 145.27,-119.91 167.81,-107.68"/>
<polygon fill="black" stroke="black" points="169.53,-110.73 176.65,-102.88 166.19,-104.58 169.53,-110.73"/>
</g>
<!-- texlive&#45;core&#45;&gt;conda&#45;forge&#45;pinning -->
<g id="edge18" class="edge">
<title>texlive&#45;core&#45;&gt;conda&#45;forge&#45;pinning</title>
<path fill="none" stroke="black" d="M453.26,-143.98C467.34,-123.22 494.1,-88.83 526.54,-72 571.38,-48.75 698.68,-34.15 791.24,-26.29"/>
<polygon fill="black" stroke="black" points="791.54,-29.78 801.22,-25.46 790.96,-22.81 791.54,-29.78"/>
</g>
<!-- gtk2&#45;&gt;conda&#45;forge&#45;pinning -->
<g id="edge19" class="edge">
<title>gtk2&#45;&gt;conda&#45;forge&#45;pinning</title>
<path fill="none" stroke="black" d="M593.97,-144.06C588.65,-124.34 583.68,-91.94 600.54,-72 624.42,-43.78 712.64,-30.56 786.45,-24.38"/>
<polygon fill="black" stroke="black" points="787.07,-27.84 796.76,-23.55 786.51,-20.86 787.07,-27.84"/>
</g>
<!-- gtk2&#45;&gt;qgis -->
<g id="edge20" class="edge">
<title>gtk2&#45;&gt;qgis</title>
<path fill="none" stroke="black" d="M609.05,-144.76C614.07,-136.19 620.34,-125.49 625.96,-115.9"/>
<polygon fill="black" stroke="black" points="629.05,-117.55 631.09,-107.15 623.01,-114.01 629.05,-117.55"/>
</g>
<!-- qgis&#45;&gt;conda&#45;forge&#45;pinning -->
<g id="edge40" class="edge">
<title>qgis&#45;&gt;conda&#45;forge&#45;pinning</title>
<path fill="none" stroke="black" d="M665.12,-79.14C671.71,-76.65 678.85,-74.1 685.54,-72 731.12,-57.69 783.17,-44.53 824.05,-34.91"/>
<polygon fill="black" stroke="black" points="824.98,-38.28 833.92,-32.6 823.39,-31.47 824.98,-38.28"/>
</g>
<!-- libgd&#45;&gt;conda&#45;forge&#45;pinning -->
<g id="edge30" class="edge">
<title>libgd&#45;&gt;conda&#45;forge&#45;pinning</title>
<path fill="none" stroke="black" d="M1156.88,-144C1160.82,-124.22 1163.7,-91.76 1146.54,-72 1126.7,-49.14 1057.16,-35.62 996.3,-27.96"/>
<polygon fill="black" stroke="black" points="996.57,-24.46 986.22,-26.73 995.73,-31.41 996.57,-24.46"/>
</g>
<!-- tectonic&#45;&gt;conda&#45;forge&#45;pinning -->
<g id="edge39" class="edge">
<title>tectonic&#45;&gt;conda&#45;forge&#45;pinning</title>
<path fill="none" stroke="black" d="M327.78,-145.88C360.3,-125.5 421.88,-89.75 479.54,-72 580.01,-41.08 699.48,-28.18 784.55,-22.8"/>
<polygon fill="black" stroke="black" points="784.98,-26.28 794.75,-22.19 784.56,-19.3 784.98,-26.28"/>
</g>
<!-- r&#45;stringi&#45;&gt;conda&#45;forge&#45;pinning -->
<g id="edge48" class="edge">
<title>r&#45;stringi&#45;&gt;conda&#45;forge&#45;pinning</title>
<path fill="none" stroke="black" d="M134.27,-77.3C142.24,-75.25 150.61,-73.34 158.54,-72 377.33,-34.97 636.93,-23.78 782.3,-20.42"/>
<polygon fill="black" stroke="black" points="782.65,-23.92 792.57,-20.19 782.49,-16.92 782.65,-23.92"/>
</g>
<!-- r&#45;v8&#45;&gt;conda&#45;forge&#45;pinning -->
<g id="edge49" class="edge">
<title>r&#45;v8&#45;&gt;conda&#45;forge&#45;pinning</title>
<path fill="none" stroke="black" d="M222.45,-78.55C229.16,-76.01 236.54,-73.58 243.54,-72 429.01,-30.3 650.7,-20.47 781.94,-18.67"/>
<polygon fill="black" stroke="black" points="782.05,-22.16 792.01,-18.54 781.97,-15.17 782.05,-22.16"/>
</g>
<!-- fontconfig -->
<g id="node13" class="node">
<title>fontconfig</title>
<g id="a_node13"><a xlink:href="https://github.com/conda-forge/fontconfig-feedstock" xlink:title="fontconfig">
<ellipse fill="#35b779" stroke="black" cx="629.54" cy="-378" rx="60" ry="18"/>
<text text-anchor="middle" x="629.54" y="-374.3" font-family="Times,serif" font-size="14.00">fontconfig</text>
</a>
</g>
</g>
<!-- fontconfig&#45;&gt;cairo -->
<g id="edge21" class="edge">
<title>fontconfig&#45;&gt;cairo</title>
<path fill="none" stroke="black" d="M598.01,-362.67C572.46,-351.05 536.51,-334.71 510.16,-322.74"/>
<polygon fill="black" stroke="black" points="511.48,-319.49 500.93,-318.54 508.59,-325.86 511.48,-319.49"/>
</g>
<!-- fontconfig&#45;&gt;texlive&#45;core -->
<g id="edge22" class="edge">
<title>fontconfig&#45;&gt;texlive&#45;core</title>
<path fill="none" stroke="black" d="M569.72,-375.84C526.04,-371.83 468.28,-359.47 431.54,-324 396.31,-289.97 396.08,-263.1 409.54,-216 412.3,-206.36 417.38,-196.76 422.73,-188.44"/>
<polygon fill="black" stroke="black" points="425.78,-190.19 428.56,-179.96 420.01,-186.22 425.78,-190.19"/>
</g>
<!-- fontconfig&#45;&gt;gtk2 -->
<g id="edge23" class="edge">
<title>fontconfig&#45;&gt;gtk2</title>
<path fill="none" stroke="black" d="M627.14,-359.85C621.95,-322.83 609.66,-235.18 603.38,-190.39"/>
<polygon fill="black" stroke="black" points="606.81,-189.65 601.96,-180.23 599.88,-190.62 606.81,-189.65"/>
</g>
<!-- fontconfig&#45;&gt;conda&#45;forge&#45;pinning -->
<g id="edge24" class="edge">
<title>fontconfig&#45;&gt;conda&#45;forge&#45;pinning</title>
<path fill="none" stroke="black" d="M662.31,-362.84C705.36,-341.76 775.54,-297.76 775.54,-235 775.54,-235 775.54,-235 775.54,-161 775.54,-108.78 823.47,-65.85 858.75,-41.32"/>
<polygon fill="black" stroke="black" points="861.07,-43.98 867.41,-35.49 857.16,-38.17 861.07,-43.98"/>
</g>
<!-- fontconfig&#45;&gt;libgd -->
<g id="edge25" class="edge">
<title>fontconfig&#45;&gt;libgd</title>
<path fill="none" stroke="black" d="M684.22,-370.25C735.04,-362.81 812.19,-348.53 875.54,-324 972.97,-286.29 1076.53,-217.26 1124.79,-183.16"/>
<polygon fill="black" stroke="black" points="1127.03,-185.86 1133.14,-177.21 1122.97,-180.16 1127.03,-185.86"/>
</g>
<!-- fontconfig&#45;&gt;tectonic -->
<g id="edge29" class="edge">
<title>fontconfig&#45;&gt;tectonic</title>
<path fill="none" stroke="black" d="M569.82,-375.54C520.73,-371.6 451.55,-359.48 402.54,-324 355.63,-290.03 326.73,-226.05 313.37,-189.81"/>
<polygon fill="black" stroke="black" points="316.51,-188.2 309.87,-179.95 309.92,-190.54 316.51,-188.2"/>
</g>
<!-- octave -->
<g id="node14" class="node">
<title>octave</title>
<g id="a_node14"><a xlink:href="https://github.com/conda-forge/octave-feedstock" xlink:title="octave">
<ellipse fill="#fde725" stroke="black" cx="844.54" cy="-162" rx="40.5" ry="18"/>
<text text-anchor="middle" x="844.54" y="-158.3" font-family="Times,serif" font-size="14.00">octave</text>
</a>
</g>
</g>
<!-- fontconfig&#45;&gt;octave -->
<g id="edge26" class="edge">
<title>fontconfig&#45;&gt;octave</title>
<path fill="none" stroke="black" d="M685.33,-371.09C719.47,-364.73 761.79,-351.49 789.54,-324 826.25,-287.64 838.47,-225.81 842.53,-190.29"/>
<polygon fill="black" stroke="black" points="846.03,-190.46 843.55,-180.16 839.07,-189.76 846.03,-190.46"/>
</g>
<!-- qt -->
<g id="node15" class="node">
<title>qt</title>
<g id="a_node15"><a xlink:href="https://github.com/conda-forge/qt-feedstock" xlink:title="qt">
<ellipse fill="#fde725" stroke="black" cx="913.54" cy="-234" rx="27" ry="18"/>
<text text-anchor="middle" x="913.54" y="-230.3" font-family="Times,serif" font-size="14.00">qt</text>
</a>
</g>
</g>
<!-- fontconfig&#45;&gt;qt -->
<g id="edge27" class="edge">
<title>fontconfig&#45;&gt;qt</title>
<path fill="none" stroke="black" d="M687.19,-372.96C732.74,-367.47 796.28,-354.53 843.54,-324 868.32,-308 888.09,-280.19 900.22,-259.9"/>
<polygon fill="black" stroke="black" points="903.29,-261.59 905.25,-251.18 897.22,-258.1 903.29,-261.59"/>
</g>
<!-- root5 -->
<g id="node16" class="node">
<title>root5</title>
<g id="a_node16"><a xlink:href="https://github.com/conda-forge/root5-feedstock" xlink:title="root5">
<ellipse fill="#fde725" stroke="black" cx="110.54" cy="-306" rx="35.19" ry="18"/>
<text text-anchor="middle" x="110.54" y="-302.3" font-family="Times,serif" font-size="14.00">root5</text>
</a>
</g>
</g>
<!-- fontconfig&#45;&gt;root5 -->
<g id="edge28" class="edge">
<title>fontconfig&#45;&gt;root5</title>
<path fill="none" stroke="black" d="M575.96,-369.77C472.86,-355.87 248.74,-325.64 154.1,-312.88"/>
<polygon fill="black" stroke="black" points="154.4,-309.38 144.02,-311.52 153.46,-316.32 154.4,-309.38"/>
</g>
<!-- octave&#45;&gt;conda&#45;forge&#45;pinning -->
<g id="edge31" class="edge">
<title>octave&#45;&gt;conda&#45;forge&#45;pinning</title>
<path fill="none" stroke="black" d="M850.6,-144.15C859.33,-119.84 875.55,-74.66 885.94,-45.75"/>
<polygon fill="black" stroke="black" points="889.26,-46.86 889.34,-36.27 882.67,-44.5 889.26,-46.86"/>
</g>
<!-- qt&#45;&gt;gdal -->
<g id="edge32" class="edge">
<title>qt&#45;&gt;gdal</title>
<path fill="none" stroke="black" d="M889.28,-225.77C847.9,-213.45 763.45,-188.29 714.96,-173.85"/>
<polygon fill="black" stroke="black" points="715.77,-170.44 705.18,-170.94 713.77,-177.14 715.77,-170.44"/>
</g>
<!-- qt&#45;&gt;conda&#45;forge&#45;pinning -->
<g id="edge33" class="edge">
<title>qt&#45;&gt;conda&#45;forge&#45;pinning</title>
<path fill="none" stroke="black" d="M914.76,-215.82C915.44,-205.46 916.21,-191.98 916.54,-180 917,-164.01 917.87,-159.94 916.54,-144 913.71,-110.04 906.62,-71.42 901.46,-46.21"/>
<polygon fill="black" stroke="black" points="904.86,-45.35 899.38,-36.28 898,-46.78 904.86,-45.35"/>
</g>
<!-- qt&#45;&gt;qgis -->
<g id="edge36" class="edge">
<title>qt&#45;&gt;qgis</title>
<path fill="none" stroke="black" d="M914.78,-216.01C915.25,-195.94 912.72,-162.9 893.54,-144 863.95,-114.83 744.78,-100.13 681.11,-94.23"/>
<polygon fill="black" stroke="black" points="681.29,-90.73 671.02,-93.32 680.67,-97.7 681.29,-90.73"/>
</g>
<!-- qt&#45;&gt;libgd -->
<g id="edge34" class="edge">
<title>qt&#45;&gt;libgd</title>
<path fill="none" stroke="black" d="M938.72,-227.04C976.11,-217.99 1048.38,-199.74 1108.54,-180 1111.08,-179.17 1113.69,-178.27 1116.3,-177.34"/>
<polygon fill="black" stroke="black" points="1117.54,-180.62 1125.71,-173.87 1115.12,-174.05 1117.54,-180.62"/>
</g>
<!-- qt&#45;&gt;octave -->
<g id="edge35" class="edge">
<title>qt&#45;&gt;octave</title>
<path fill="none" stroke="black" d="M899.25,-218.5C890.1,-209.22 878.03,-196.97 867.55,-186.34"/>
<polygon fill="black" stroke="black" points="869.78,-183.61 860.27,-178.95 864.79,-188.53 869.78,-183.61"/>
</g>
<!-- matplotlib -->
<g id="node17" class="node">
<title>matplotlib</title>
<g id="a_node17"><a xlink:href="https://github.com/conda-forge/matplotlib-feedstock" xlink:title="matplotlib">
<ellipse fill="#fde725" stroke="black" cx="1039.54" cy="-162" rx="60" ry="18"/>
<text text-anchor="middle" x="1039.54" y="-158.3" font-family="Times,serif" font-size="14.00">matplotlib</text>
</a>
</g>
</g>
<!-- qt&#45;&gt;matplotlib -->
<g id="edge37" class="edge">
<title>qt&#45;&gt;matplotlib</title>
<path fill="none" stroke="black" d="M933.79,-221.75C952.5,-211.36 980.73,-195.67 1003.32,-183.12"/>
<polygon fill="black" stroke="black" points="1005.26,-186.05 1012.3,-178.14 1001.86,-179.93 1005.26,-186.05"/>
</g>
<!-- root5&#45;&gt;conda&#45;forge&#45;pinning -->
<g id="edge38" class="edge">
<title>root5&#45;&gt;conda&#45;forge&#45;pinning</title>
<path fill="none" stroke="black" d="M95.1,-289.8C55.66,-249.2 -41.43,-136.93 20.54,-72 46.49,-44.81 553.51,-28.02 783.64,-21.77"/>
<polygon fill="black" stroke="black" points="783.81,-25.27 793.71,-21.5 783.62,-18.27 783.81,-25.27"/>
</g>
<!-- matplotlib&#45;&gt;conda&#45;forge&#45;pinning -->
<g id="edge44" class="edge">
<title>matplotlib&#45;&gt;conda&#45;forge&#45;pinning</title>
<path fill="none" stroke="black" d="M1037.6,-143.92C1034.55,-124.36 1026.95,-92.42 1008.54,-72 994.77,-56.72 975.66,-45.48 957.08,-37.39"/>
<polygon fill="black" stroke="black" points="958.31,-34.11 947.73,-33.56 955.66,-40.59 958.31,-34.11"/>
</g>
<!-- alps -->
<g id="node20" class="node">
<title>alps</title>
<g id="a_node20"><a xlink:href="https://github.com/conda-forge/alps-feedstock" xlink:title="alps">
<ellipse fill="#fde725" stroke="black" cx="968.54" cy="-90" rx="30.59" ry="18"/>
<text text-anchor="middle" x="968.54" y="-86.3" font-family="Times,serif" font-size="14.00">alps</text>
</a>
</g>
</g>
<!-- matplotlib&#45;&gt;alps -->
<g id="edge45" class="edge">
<title>matplotlib&#45;&gt;alps</title>
<path fill="none" stroke="black" d="M1022.72,-144.41C1013.22,-135.04 1001.22,-123.21 990.93,-113.07"/>
<polygon fill="black" stroke="black" points="993.38,-110.57 983.8,-106.04 988.46,-115.55 993.38,-110.57"/>
</g>
<!-- igraph -->
<g id="node18" class="node">
<title>igraph</title>
<g id="a_node18"><a xlink:href="https://github.com/conda-forge/igraph-feedstock" xlink:title="igraph">
<ellipse fill="#35b779" stroke="black" cx="1096.54" cy="-90" rx="40.5" ry="18"/>
<text text-anchor="middle" x="1096.54" y="-86.3" font-family="Times,serif" font-size="14.00">igraph</text>
</a>
</g>
</g>
<!-- igraph&#45;&gt;conda&#45;forge&#45;pinning -->
<g id="edge41" class="edge">
<title>igraph&#45;&gt;conda&#45;forge&#45;pinning</title>
<path fill="none" stroke="black" d="M1065.58,-78.22C1034.65,-67.44 986.47,-50.67 949.29,-37.72"/>
<polygon fill="black" stroke="black" points="950.2,-34.33 939.61,-34.34 947.9,-40.94 950.2,-34.33"/>
</g>
<!-- libxslt -->
<g id="node19" class="node">
<title>libxslt</title>
<g id="a_node19"><a xlink:href="https://github.com/conda-forge/libxslt-feedstock" xlink:title="libxslt">
<ellipse fill="#35b779" stroke="black" cx="702.54" cy="-234" rx="45" ry="18"/>
<text text-anchor="middle" x="702.54" y="-230.3" font-family="Times,serif" font-size="14.00">libxslt</text>
</a>
</g>
</g>
<!-- libxslt&#45;&gt;gdal -->
<g id="edge42" class="edge">
<title>libxslt&#45;&gt;gdal</title>
<path fill="none" stroke="black" d="M696.73,-216.05C693.99,-208.06 690.66,-198.33 687.6,-189.4"/>
<polygon fill="black" stroke="black" points="690.85,-188.11 684.3,-179.79 684.23,-190.38 690.85,-188.11"/>
</g>
<!-- libxslt&#45;&gt;conda&#45;forge&#45;pinning -->
<g id="edge43" class="edge">
<title>libxslt&#45;&gt;conda&#45;forge&#45;pinning</title>
<path fill="none" stroke="black" d="M707.91,-215.97C720.38,-176.78 751.05,-82.76 761.54,-72 777.97,-55.15 800.43,-43.52 822.25,-35.56"/>
<polygon fill="black" stroke="black" points="823.56,-38.82 831.88,-32.26 821.29,-32.19 823.56,-38.82"/>
</g>
<!-- alps&#45;&gt;conda&#45;forge&#45;pinning -->
<g id="edge46" class="edge">
<title>alps&#45;&gt;conda&#45;forge&#45;pinning</title>
<path fill="none" stroke="black" d="M953.06,-74.15C943.63,-65.11 931.36,-53.35 920.58,-43.01"/>
<polygon fill="black" stroke="black" points="922.69,-40.18 913.05,-35.79 917.85,-45.24 922.69,-40.18"/>
</g>
<!-- python&#45;igraph -->
<g id="node21" class="node">
<title>python&#45;igraph</title>
<g id="a_node21"><a xlink:href="https://github.com/conda-forge/python-igraph-feedstock" xlink:title="python igraph">
<ellipse fill="#35b779" stroke="black" cx="1279.54" cy="-162" rx="74.19" ry="18"/>
<text text-anchor="middle" x="1279.54" y="-158.3" font-family="Times,serif" font-size="14.00">python igraph</text>
</a>
</g>
</g>
<!-- python&#45;igraph&#45;&gt;conda&#45;forge&#45;pinning -->
<g id="edge47" class="edge">
<title>python&#45;igraph&#45;&gt;conda&#45;forge&#45;pinning</title>
<path fill="none" stroke="black" d="M1263.64,-144.33C1243.17,-123.93 1205.58,-89.91 1166.54,-72 1113.74,-47.77 1050.2,-34.61 997.92,-27.46"/>
<polygon fill="black" stroke="black" points="998.33,-23.98 987.96,-26.15 997.41,-30.92 998.33,-23.98"/>
</g>
<!-- uwsgi -->
<g id="node22" class="node">
<title>uwsgi</title>
<g id="a_node22"><a xlink:href="https://github.com/conda-forge/uwsgi-feedstock" xlink:title="uwsgi">
<ellipse fill="#35b779" stroke="black" cx="1356.54" cy="-234" rx="35.19" ry="18"/>
<text text-anchor="middle" x="1356.54" y="-230.3" font-family="Times,serif" font-size="14.00">uwsgi</text>
</a>
</g>
</g>
<!-- uwsgi&#45;&gt;conda&#45;forge&#45;pinning -->
<g id="edge50" class="edge">
<title>uwsgi&#45;&gt;conda&#45;forge&#45;pinning</title>
<path fill="none" stroke="black" d="M1363.25,-216.12C1369.65,-197.05 1376.43,-165.82 1362.54,-144 1321.98,-80.26 1280.67,-94.51 1208.54,-72 1138.4,-50.11 1056.42,-36.64 993.96,-28.76"/>
<polygon fill="black" stroke="black" points="994.07,-25.25 983.71,-27.5 993.21,-32.2 994.07,-25.25"/>
</g>
<!-- pyicu -->
<g id="node23" class="node">
<title>pyicu</title>
<g id="a_node23"><a xlink:href="https://github.com/conda-forge/pyicu-feedstock/pull/16" xlink:title="pyicu">
<ellipse fill="#31688e" stroke="black" cx="1394.54" cy="-306" rx="35.19" ry="18"/>
<text text-anchor="middle" x="1394.54" y="-302.3" font-family="Times,serif" font-size="14.00" fill="white">pyicu</text>
</a>
</g>
</g>
<!-- pyicu&#45;&gt;conda&#45;forge&#45;pinning -->
<g id="edge51" class="edge">
<title>pyicu&#45;&gt;conda&#45;forge&#45;pinning</title>
<path fill="none" stroke="black" d="M1398.18,-287.66C1403.79,-256.02 1410.98,-188.11 1380.54,-144 1349.85,-99.52 1332.64,-92.29 1282.54,-72 1194.99,-36.54 1088.14,-23.97 1008.92,-19.89"/>
<polygon fill="black" stroke="black" points="1009.06,-16.39 998.91,-19.41 1008.73,-23.39 1009.06,-16.39"/>
</g>
<!-- mdsplus -->
<g id="node24" class="node">
<title>mdsplus</title>
<g id="a_node24"><a xlink:href="https://github.com/conda-forge/mdsplus-feedstock" xlink:title="mdsplus">
<ellipse fill="#35b779" stroke="black" cx="1457.54" cy="-378" rx="45" ry="18"/>
<text text-anchor="middle" x="1457.54" y="-374.3" font-family="Times,serif" font-size="14.00">mdsplus</text>
</a>
</g>
</g>
<!-- mdsplus&#45;&gt;conda&#45;forge&#45;pinning -->
<g id="edge52" class="edge">
<title>mdsplus&#45;&gt;conda&#45;forge&#45;pinning</title>
<path fill="none" stroke="black" d="M1457.54,-359.95C1457.54,-333.29 1457.54,-280.11 1457.54,-235 1457.54,-235 1457.54,-235 1457.54,-161 1457.54,-68.4 1167.14,-35.56 1003.84,-24.4"/>
<polygon fill="black" stroke="black" points="1003.97,-20.9 993.76,-23.73 1003.5,-27.89 1003.97,-20.9"/>
</g>
<!-- ticcutils -->
<g id="node25" class="node">
<title>ticcutils</title>
<g id="a_node25"><a xlink:href="https://github.com/conda-forge/ticcutils-feedstock" xlink:title="ticcutils">
<ellipse fill="#35b779" stroke="black" cx="1540.54" cy="-90" rx="54.69" ry="18"/>
<text text-anchor="middle" x="1540.54" y="-86.3" font-family="Times,serif" font-size="14.00">ticcutils</text>
</a>
</g>
</g>
<!-- ticcutils&#45;&gt;conda&#45;forge&#45;pinning -->
<g id="edge53" class="edge">
<title>ticcutils&#45;&gt;conda&#45;forge&#45;pinning</title>
<path fill="none" stroke="black" d="M1499.89,-77.91C1490.63,-75.69 1480.79,-73.56 1471.54,-72 1310.17,-44.85 1120.85,-30.79 1004.55,-24.16"/>
<polygon fill="black" stroke="black" points="1004.4,-20.64 994.22,-23.58 1004.01,-27.63 1004.4,-20.64"/>
</g>
<!-- scilab -->
<g id="node26" class="node">
<title>scilab</title>
<g id="a_node26"><a xlink:href="https://github.com/conda-forge/scilab-feedstock" xlink:title="scilab">
<ellipse fill="#35b779" stroke="black" cx="1592.54" cy="-162" rx="40.5" ry="18"/>
<text text-anchor="middle" x="1592.54" y="-158.3" font-family="Times,serif" font-size="14.00">scilab</text>
</a>
</g>
</g>
<!-- scilab&#45;&gt;conda&#45;forge&#45;pinning -->
<g id="edge54" class="edge">
<title>scilab&#45;&gt;conda&#45;forge&#45;pinning</title>
<path fill="none" stroke="black" d="M1601.8,-144.19C1611.37,-124.3 1622.57,-91.43 1604.54,-72 1564.98,-29.36 1199.26,-20.78 1009.17,-19.22"/>
<polygon fill="black" stroke="black" points="1009.16,-15.72 999.13,-19.14 1009.11,-22.72 1009.16,-15.72"/>
</g>
<!-- ifcopenshell -->
<g id="node27" class="node">
<title>ifcopenshell</title>
<g id="a_node27"><a xlink:href="https://github.com/conda-forge/ifcopenshell-feedstock" xlink:title="ifcopenshell">
<ellipse fill="#35b779" stroke="black" cx="1601.54" cy="-234" rx="69.59" ry="18"/>
<text text-anchor="middle" x="1601.54" y="-230.3" font-family="Times,serif" font-size="14.00">ifcopenshell</text>
</a>
</g>
</g>
<!-- ifcopenshell&#45;&gt;conda&#45;forge&#45;pinning -->
<g id="edge55" class="edge">
<title>ifcopenshell&#45;&gt;conda&#45;forge&#45;pinning</title>
<path fill="none" stroke="black" d="M1619.29,-216.15C1628.12,-206.51 1637.88,-193.65 1642.54,-180 1658.33,-133.81 1660.31,-102.93 1622.54,-72 1576.23,-34.06 1201.13,-23.25 1008.63,-20.19"/>
<polygon fill="black" stroke="black" points="1008.53,-16.69 998.48,-20.04 1008.43,-23.69 1008.53,-16.69"/>
</g>
<!-- libical -->
<g id="node28" class="node">
<title>libical</title>
<g id="a_node28"><a xlink:href="https://github.com/conda-forge/libical-feedstock" xlink:title="libical">
<ellipse fill="#35b779" stroke="black" cx="1681.54" cy="-306" rx="45" ry="18"/>
<text text-anchor="middle" x="1681.54" y="-302.3" font-family="Times,serif" font-size="14.00">libical</text>
</a>
</g>
</g>
<!-- libical&#45;&gt;conda&#45;forge&#45;pinning -->
<g id="edge56" class="edge">
<title>libical&#45;&gt;conda&#45;forge&#45;pinning</title>
<path fill="none" stroke="black" d="M1685.7,-287.79C1695.17,-243.83 1712.93,-126.98 1649.54,-72 1602.32,-31.04 1207.61,-21.69 1008.9,-19.59"/>
<polygon fill="black" stroke="black" points="1008.75,-16.09 998.72,-19.49 1008.68,-23.09 1008.75,-16.09"/>
</g>
<!-- libv8 -->
<g id="node29" class="node">
<title>libv8</title>
<g id="a_node29"><a xlink:href="https://github.com/conda-forge/libv8-feedstock/pull/12" xlink:title="libv8">
<ellipse fill="#31688e" stroke="black" cx="163.54" cy="-162" rx="35.19" ry="18"/>
<text text-anchor="middle" x="163.54" y="-158.3" font-family="Times,serif" font-size="14.00" fill="white">libv8</text>
</a>
</g>
</g>
<!-- libv8&#45;&gt;conda&#45;forge&#45;pinning -->
<g id="edge57" class="edge">
<title>libv8&#45;&gt;conda&#45;forge&#45;pinning</title>
<path fill="none" stroke="black" d="M183.92,-147.27C199.19,-136.82 220.48,-121.91 238.54,-108 258.29,-92.8 258.51,-81.51 281.54,-72 369.34,-35.75 630.68,-24.29 782.63,-20.67"/>
<polygon fill="black" stroke="black" points="783.01,-24.16 792.92,-20.43 782.85,-17.16 783.01,-24.16"/>
</g>
<!-- libv8&#45;&gt;r&#45;v8 -->
<g id="edge58" class="edge">
<title>libv8&#45;&gt;r&#45;v8</title>
<path fill="none" stroke="black" d="M171.84,-144.41C175.98,-136.13 181.08,-125.92 185.71,-116.66"/>
<polygon fill="black" stroke="black" points="188.97,-117.98 190.31,-107.47 182.71,-114.85 188.97,-117.98"/>
</g>
<!-- odil -->
<g id="node30" class="node">
<title>odil</title>
<g id="a_node30"><a xlink:href="https://github.com/conda-forge/odil-feedstock" xlink:title="odil">
<ellipse fill="#35b779" stroke="black" cx="1754.54" cy="-378" rx="30.59" ry="18"/>
<text text-anchor="middle" x="1754.54" y="-374.3" font-family="Times,serif" font-size="14.00">odil</text>
</a>
</g>
</g>
<!-- odil&#45;&gt;conda&#45;forge&#45;pinning -->
<g id="edge59" class="edge">
<title>odil&#45;&gt;conda&#45;forge&#45;pinning</title>
<path fill="none" stroke="black" d="M1754.54,-359.95C1754.54,-333.29 1754.54,-280.11 1754.54,-235 1754.54,-235 1754.54,-235 1754.54,-161 1754.54,-108.4 1723.69,-95.32 1676.54,-72 1618.15,-43.11 1209.01,-27.76 1007.36,-21.88"/>
<polygon fill="black" stroke="black" points="1007.43,-18.38 997.33,-21.59 1007.22,-25.38 1007.43,-18.38"/>
</g>
<!-- nbin -->
<g id="node31" class="node">
<title>nbin</title>
<g id="a_node31"><a xlink:href="https://github.com/conda-forge/nbin-feedstock/pull/1" xlink:title="nbin">
<ellipse fill="#31688e" stroke="black" cx="1813.54" cy="-90" rx="30.59" ry="18"/>
<text text-anchor="middle" x="1813.54" y="-86.3" font-family="Times,serif" font-size="14.00" fill="white">nbin</text>
</a>
</g>
</g>
<!-- nbin&#45;&gt;conda&#45;forge&#45;pinning -->
<g id="edge60" class="edge">
<title>nbin&#45;&gt;conda&#45;forge&#45;pinning</title>
<path fill="none" stroke="black" d="M1789.66,-78.46C1782.95,-75.92 1775.57,-73.5 1768.54,-72 1626.55,-41.6 1209.4,-27.04 1007.52,-21.62"/>
<polygon fill="black" stroke="black" points="1007.58,-18.12 997.49,-21.35 1007.39,-25.12 1007.58,-18.12"/>
</g>
</g>
</svg>
