<?xml version="1.0" encoding="UTF-8" standalone="no"?>
<!DOCTYPE svg PUBLIC "-//W3C//DTD SVG 1.1//EN"
 "http://www.w3.org/Graphics/SVG/1.1/DTD/svg11.dtd">
<!-- Generated by graphviz version 2.42.3 (20191010.1750)
 -->
<!-- Title: %3 Pages: 1 -->
<svg width="2116pt" height="476pt"
 viewBox="0.00 0.00 2116.04 476.00" xmlns="http://www.w3.org/2000/svg" xmlns:xlink="http://www.w3.org/1999/xlink">
<g id="graph0" class="graph" transform="scale(1 1) rotate(0) translate(4 472)">
<title>%3</title>
<polygon fill="white" stroke="transparent" points="-4,4 -4,-472 2112.04,-472 2112.04,4 -4,4"/>
<!-- boost&#45;cpp -->
<g id="node1" class="node">
<title>boost&#45;cpp</title>
<g id="a_node1"><a xlink:href="https://github.com/conda-forge/boost-cpp-feedstock/pull/71" xlink:title="boost cpp">
<ellipse fill="#31688e" stroke="black" cx="186.49" cy="-234" rx="54.69" ry="18"/>
<text text-anchor="middle" x="186.49" y="-230.3" font-family="Times,serif" font-size="14.00" fill="white">boost cpp</text>
</a>
</g>
</g>
<!-- gdal -->
<g id="node2" class="node">
<title>gdal</title>
<g id="a_node2"><a xlink:href="https://github.com/conda-forge/gdal-feedstock" xlink:title="gdal">
<ellipse fill="#fde725" stroke="black" cx="347.49" cy="-162" rx="30.59" ry="18"/>
<text text-anchor="middle" x="347.49" y="-158.3" font-family="Times,serif" font-size="14.00">gdal</text>
</a>
</g>
</g>
<!-- boost&#45;cpp&#45;&gt;gdal -->
<g id="edge1" class="edge">
<title>boost&#45;cpp&#45;&gt;gdal</title>
<path fill="none" stroke="black" d="M218.3,-219.17C246.01,-207.12 286.04,-189.72 314.18,-177.48"/>
<polygon fill="black" stroke="black" points="315.83,-180.58 323.6,-173.39 313.03,-174.16 315.83,-180.58"/>
</g>
<!-- ifcopenshell -->
<g id="node3" class="node">
<title>ifcopenshell</title>
<g id="a_node3"><a xlink:href="https://github.com/conda-forge/ifcopenshell-feedstock" xlink:title="ifcopenshell">
<ellipse fill="#fde725" stroke="black" cx="190.49" cy="-162" rx="69.59" ry="18"/>
<text text-anchor="middle" x="190.49" y="-158.3" font-family="Times,serif" font-size="14.00">ifcopenshell</text>
</a>
</g>
</g>
<!-- boost&#45;cpp&#45;&gt;ifcopenshell -->
<g id="edge2" class="edge">
<title>boost&#45;cpp&#45;&gt;ifcopenshell</title>
<path fill="none" stroke="black" d="M187.48,-215.7C187.92,-207.98 188.45,-198.71 188.94,-190.11"/>
<polygon fill="black" stroke="black" points="192.44,-190.29 189.51,-180.1 185.45,-189.89 192.44,-190.29"/>
</g>
<!-- odil -->
<g id="node4" class="node">
<title>odil</title>
<g id="a_node4"><a xlink:href="https://github.com/conda-forge/odil-feedstock" xlink:title="odil">
<ellipse fill="#fde725" stroke="black" cx="54.49" cy="-90" rx="30.59" ry="18"/>
<text text-anchor="middle" x="54.49" y="-86.3" font-family="Times,serif" font-size="14.00">odil</text>
</a>
</g>
</g>
<!-- boost&#45;cpp&#45;&gt;odil -->
<g id="edge3" class="edge">
<title>boost&#45;cpp&#45;&gt;odil</title>
<path fill="none" stroke="black" d="M145.5,-222.07C122.7,-213.99 95.55,-200.72 78.49,-180 64.22,-162.67 58.38,-137.62 56.02,-118.5"/>
<polygon fill="black" stroke="black" points="59.48,-117.92 55.01,-108.31 52.51,-118.61 59.48,-117.92"/>
</g>
<!-- conda&#45;forge&#45;pinning -->
<g id="node5" class="node">
<title>conda&#45;forge&#45;pinning</title>
<ellipse fill="none" stroke="black" cx="1060.49" cy="-18" rx="103.5" ry="18"/>
<text text-anchor="middle" x="1060.49" y="-14.3" font-family="Times,serif" font-size="14.00">conda&#45;forge&#45;pinning</text>
</g>
<!-- boost&#45;cpp&#45;&gt;conda&#45;forge&#45;pinning -->
<g id="edge4" class="edge">
<title>boost&#45;cpp&#45;&gt;conda&#45;forge&#45;pinning</title>
<path fill="none" stroke="black" d="M154.48,-219.26C138.46,-210.54 120.58,-197.56 111.49,-180 104.13,-165.79 103.74,-158 111.49,-144 140.7,-91.25 169.09,-90.48 226.49,-72 357.23,-29.92 750.77,-21.09 946.87,-19.35"/>
<polygon fill="black" stroke="black" points="946.94,-22.85 956.91,-19.26 946.89,-15.85 946.94,-22.85"/>
</g>
<!-- gdal&#45;&gt;conda&#45;forge&#45;pinning -->
<g id="edge5" class="edge">
<title>gdal&#45;&gt;conda&#45;forge&#45;pinning</title>
<path fill="none" stroke="black" d="M353.55,-144.13C362.04,-123.2 379.66,-88.28 407.49,-72 453.03,-45.36 775.62,-29.49 949.71,-22.78"/>
<polygon fill="black" stroke="black" points="950.07,-26.27 959.93,-22.39 949.8,-19.27 950.07,-26.27"/>
</g>
<!-- qgis -->
<g id="node6" class="node">
<title>qgis</title>
<g id="a_node6"><a xlink:href="https://github.com/conda-forge/qgis-feedstock" xlink:title="qgis">
<ellipse fill="#fde725" stroke="black" cx="628.49" cy="-90" rx="30.59" ry="18"/>
<text text-anchor="middle" x="628.49" y="-86.3" font-family="Times,serif" font-size="14.00">qgis</text>
</a>
</g>
</g>
<!-- gdal&#45;&gt;qgis -->
<g id="edge6" class="edge">
<title>gdal&#45;&gt;qgis</title>
<path fill="none" stroke="black" d="M370.9,-150.19C376.28,-147.95 382.03,-145.74 387.49,-144 457.06,-121.78 540.86,-105.65 589.07,-97.35"/>
<polygon fill="black" stroke="black" points="589.82,-100.77 599.09,-95.65 588.65,-93.87 589.82,-100.77"/>
</g>
<!-- ifcopenshell&#45;&gt;conda&#45;forge&#45;pinning -->
<g id="edge7" class="edge">
<title>ifcopenshell&#45;&gt;conda&#45;forge&#45;pinning</title>
<path fill="none" stroke="black" d="M200.77,-143.95C214.57,-122.81 241.25,-87.68 274.49,-72 333.86,-43.99 746.34,-28.18 948.84,-22.03"/>
<polygon fill="black" stroke="black" points="949.02,-25.52 958.91,-21.73 948.81,-18.53 949.02,-25.52"/>
</g>
<!-- odil&#45;&gt;conda&#45;forge&#45;pinning -->
<g id="edge8" class="edge">
<title>odil&#45;&gt;conda&#45;forge&#45;pinning</title>
<path fill="none" stroke="black" d="M78.37,-78.43C85.08,-75.89 92.46,-73.48 99.49,-72 258.31,-38.46 729.6,-25.3 947.58,-20.91"/>
<polygon fill="black" stroke="black" points="947.83,-24.4 957.76,-20.7 947.69,-17.4 947.83,-24.4"/>
</g>
<!-- qgis&#45;&gt;conda&#45;forge&#45;pinning -->
<g id="edge46" class="edge">
<title>qgis&#45;&gt;conda&#45;forge&#45;pinning</title>
<path fill="none" stroke="black" d="M653.89,-79.7C662.27,-76.9 671.7,-74.03 680.49,-72 774.27,-50.31 883.27,-36.22 960.41,-28.06"/>
<polygon fill="black" stroke="black" points="961.02,-31.52 970.61,-27 960.3,-24.55 961.02,-31.52"/>
</g>
<!-- cairo -->
<g id="node7" class="node">
<title>cairo</title>
<g id="a_node7"><a xlink:href="https://github.com/conda-forge/cairo-feedstock" xlink:title="cairo">
<ellipse fill="#fde725" stroke="black" cx="887.49" cy="-306" rx="35.19" ry="18"/>
<text text-anchor="middle" x="887.49" y="-302.3" font-family="Times,serif" font-size="14.00">cairo</text>
</a>
</g>
</g>
<!-- cairo&#45;&gt;gdal -->
<g id="edge9" class="edge">
<title>cairo&#45;&gt;gdal</title>
<path fill="none" stroke="black" d="M852.86,-302.97C790.39,-298.59 655.21,-285.73 546.49,-252 511.18,-241.04 505.16,-231.27 471.49,-216 462.78,-212.05 414.69,-191.56 381.02,-177.24"/>
<polygon fill="black" stroke="black" points="382.1,-173.9 371.53,-173.21 379.36,-180.34 382.1,-173.9"/>
</g>
<!-- cairo&#45;&gt;conda&#45;forge&#45;pinning -->
<g id="edge10" class="edge">
<title>cairo&#45;&gt;conda&#45;forge&#45;pinning</title>
<path fill="none" stroke="black" d="M897.97,-288.5C913.06,-264.66 941.73,-219.14 965.49,-180 994.3,-132.53 1027.04,-76.59 1045.58,-44.71"/>
<polygon fill="black" stroke="black" points="1048.64,-46.41 1050.64,-36 1042.59,-42.89 1048.64,-46.41"/>
</g>
<!-- harfbuzz -->
<g id="node8" class="node">
<title>harfbuzz</title>
<g id="a_node8"><a xlink:href="https://github.com/conda-forge/harfbuzz-feedstock" xlink:title="harfbuzz">
<ellipse fill="#fde725" stroke="black" cx="834.49" cy="-234" rx="50.09" ry="18"/>
<text text-anchor="middle" x="834.49" y="-230.3" font-family="Times,serif" font-size="14.00">harfbuzz</text>
</a>
</g>
</g>
<!-- cairo&#45;&gt;harfbuzz -->
<g id="edge11" class="edge">
<title>cairo&#45;&gt;harfbuzz</title>
<path fill="none" stroke="black" d="M875.2,-288.76C868.67,-280.14 860.51,-269.36 853.21,-259.73"/>
<polygon fill="black" stroke="black" points="855.91,-257.49 847.08,-251.63 850.33,-261.72 855.91,-257.49"/>
</g>
<!-- r&#45;base -->
<g id="node9" class="node">
<title>r&#45;base</title>
<g id="a_node9"><a xlink:href="https://github.com/conda-forge/r-base-feedstock" xlink:title="r base">
<ellipse fill="#fde725" stroke="black" cx="1259.49" cy="-162" rx="40.5" ry="18"/>
<text text-anchor="middle" x="1259.49" y="-158.3" font-family="Times,serif" font-size="14.00">r base</text>
</a>
</g>
</g>
<!-- cairo&#45;&gt;r&#45;base -->
<g id="edge12" class="edge">
<title>cairo&#45;&gt;r&#45;base</title>
<path fill="none" stroke="black" d="M914.84,-294.56C979.96,-269.7 1144.37,-206.95 1220.14,-178.02"/>
<polygon fill="black" stroke="black" points="1221.69,-181.17 1229.79,-174.34 1219.2,-174.63 1221.69,-181.17"/>
</g>
<!-- texlive&#45;core -->
<g id="node10" class="node">
<title>texlive&#45;core</title>
<g id="a_node10"><a xlink:href="https://github.com/conda-forge/texlive-core-feedstock" xlink:title="texlive core">
<ellipse fill="#fde725" stroke="black" cx="886.49" cy="-162" rx="69.59" ry="18"/>
<text text-anchor="middle" x="886.49" y="-158.3" font-family="Times,serif" font-size="14.00">texlive core</text>
</a>
</g>
</g>
<!-- cairo&#45;&gt;texlive&#45;core -->
<g id="edge13" class="edge">
<title>cairo&#45;&gt;texlive&#45;core</title>
<path fill="none" stroke="black" d="M889.93,-287.86C891.27,-277.5 892.81,-264.02 893.49,-252 894.39,-236.03 894.54,-231.97 893.49,-216 892.93,-207.53 891.88,-198.36 890.76,-190.06"/>
<polygon fill="black" stroke="black" points="894.22,-189.53 889.33,-180.13 887.29,-190.53 894.22,-189.53"/>
</g>
<!-- gtk2 -->
<g id="node11" class="node">
<title>gtk2</title>
<g id="a_node11"><a xlink:href="https://github.com/conda-forge/gtk2-feedstock" xlink:title="gtk2">
<ellipse fill="#fde725" stroke="black" cx="729.49" cy="-162" rx="30.59" ry="18"/>
<text text-anchor="middle" x="729.49" y="-158.3" font-family="Times,serif" font-size="14.00">gtk2</text>
</a>
</g>
</g>
<!-- cairo&#45;&gt;gtk2 -->
<g id="edge14" class="edge">
<title>cairo&#45;&gt;gtk2</title>
<path fill="none" stroke="black" d="M857.23,-296.63C832.71,-288.57 798.55,-274.26 775.49,-252 757.48,-234.61 745.18,-208.65 737.87,-189.24"/>
<polygon fill="black" stroke="black" points="741.14,-188.02 734.49,-179.78 734.55,-190.37 741.14,-188.02"/>
</g>
<!-- harfbuzz&#45;&gt;gdal -->
<g id="edge15" class="edge">
<title>harfbuzz&#45;&gt;gdal</title>
<path fill="none" stroke="black" d="M786.06,-229C686.48,-220.5 461.88,-199.78 387.49,-180 385,-179.34 382.46,-178.55 379.94,-177.68"/>
<polygon fill="black" stroke="black" points="380.95,-174.32 370.36,-174.03 378.46,-180.87 380.95,-174.32"/>
</g>
<!-- harfbuzz&#45;&gt;conda&#45;forge&#45;pinning -->
<g id="edge16" class="edge">
<title>harfbuzz&#45;&gt;conda&#45;forge&#45;pinning</title>
<path fill="none" stroke="black" d="M821.9,-216.36C809.5,-197.79 794.2,-167.28 807.49,-144 843.1,-81.63 920.88,-49.7 980.87,-33.81"/>
<polygon fill="black" stroke="black" points="981.88,-37.16 990.71,-31.3 980.15,-30.38 981.88,-37.16"/>
</g>
<!-- harfbuzz&#45;&gt;texlive&#45;core -->
<g id="edge17" class="edge">
<title>harfbuzz&#45;&gt;texlive&#45;core</title>
<path fill="none" stroke="black" d="M846.81,-216.41C853.07,-207.99 860.8,-197.58 867.77,-188.2"/>
<polygon fill="black" stroke="black" points="870.74,-190.07 873.89,-179.96 865.12,-185.9 870.74,-190.07"/>
</g>
<!-- harfbuzz&#45;&gt;gtk2 -->
<g id="edge18" class="edge">
<title>harfbuzz&#45;&gt;gtk2</title>
<path fill="none" stroke="black" d="M811.71,-217.81C795.78,-207.2 774.42,-192.96 757.47,-181.65"/>
<polygon fill="black" stroke="black" points="759.31,-178.68 749.05,-176.04 755.43,-184.5 759.31,-178.68"/>
</g>
<!-- libgd -->
<g id="node12" class="node">
<title>libgd</title>
<g id="a_node12"><a xlink:href="https://github.com/conda-forge/libgd-feedstock" xlink:title="libgd">
<ellipse fill="#fde725" stroke="black" cx="645.49" cy="-162" rx="35.19" ry="18"/>
<text text-anchor="middle" x="645.49" y="-158.3" font-family="Times,serif" font-size="14.00">libgd</text>
</a>
</g>
</g>
<!-- harfbuzz&#45;&gt;libgd -->
<g id="edge19" class="edge">
<title>harfbuzz&#45;&gt;libgd</title>
<path fill="none" stroke="black" d="M800.44,-220.75C771.01,-210.12 727.37,-194.24 689.49,-180 687.14,-179.12 684.73,-178.2 682.29,-177.28"/>
<polygon fill="black" stroke="black" points="683.51,-174 672.92,-173.69 681.01,-180.53 683.51,-174"/>
</g>
<!-- tectonic -->
<g id="node13" class="node">
<title>tectonic</title>
<g id="a_node13"><a xlink:href="https://github.com/conda-forge/tectonic-feedstock" xlink:title="tectonic">
<ellipse fill="#fde725" stroke="black" cx="1062.49" cy="-162" rx="50.09" ry="18"/>
<text text-anchor="middle" x="1062.49" y="-158.3" font-family="Times,serif" font-size="14.00">tectonic</text>
</a>
</g>
</g>
<!-- harfbuzz&#45;&gt;tectonic -->
<g id="edge20" class="edge">
<title>harfbuzz&#45;&gt;tectonic</title>
<path fill="none" stroke="black" d="M871.37,-221.68C910.78,-209.58 973.32,-190.38 1016.05,-177.26"/>
<polygon fill="black" stroke="black" points="1017.12,-180.59 1025.66,-174.31 1015.07,-173.9 1017.12,-180.59"/>
</g>
<!-- r&#45;base&#45;&gt;conda&#45;forge&#45;pinning -->
<g id="edge21" class="edge">
<title>r&#45;base&#45;&gt;conda&#45;forge&#45;pinning</title>
<path fill="none" stroke="black" d="M1241.1,-145.7C1228.65,-135.24 1211.91,-120.98 1197.49,-108 1180.2,-92.44 1178.36,-85.61 1159.49,-72 1142.52,-59.76 1122.39,-48.47 1104.72,-39.49"/>
<polygon fill="black" stroke="black" points="1106.25,-36.34 1095.74,-35 1103.12,-42.6 1106.25,-36.34"/>
</g>
<!-- r&#45;stringi -->
<g id="node14" class="node">
<title>r&#45;stringi</title>
<g id="a_node14"><a xlink:href="https://github.com/conda-forge/r-stringi-feedstock" xlink:title="r stringi">
<ellipse fill="#fde725" stroke="black" cx="1261.49" cy="-90" rx="54.69" ry="18"/>
<text text-anchor="middle" x="1261.49" y="-86.3" font-family="Times,serif" font-size="14.00">r stringi</text>
</a>
</g>
</g>
<!-- r&#45;base&#45;&gt;r&#45;stringi -->
<g id="edge22" class="edge">
<title>r&#45;base&#45;&gt;r&#45;stringi</title>
<path fill="none" stroke="black" d="M1259.98,-143.7C1260.2,-135.98 1260.47,-126.71 1260.71,-118.11"/>
<polygon fill="black" stroke="black" points="1264.21,-118.2 1261,-108.1 1257.22,-118 1264.21,-118.2"/>
</g>
<!-- r&#45;v8 -->
<g id="node15" class="node">
<title>r&#45;v8</title>
<g id="a_node15"><a xlink:href="https://github.com/conda-forge/r-v8-feedstock" xlink:title="r v8">
<ellipse fill="#fde725" stroke="black" cx="1119.49" cy="-90" rx="30.59" ry="18"/>
<text text-anchor="middle" x="1119.49" y="-86.3" font-family="Times,serif" font-size="14.00">r v8</text>
</a>
</g>
</g>
<!-- r&#45;base&#45;&gt;r&#45;v8 -->
<g id="edge23" class="edge">
<title>r&#45;base&#45;&gt;r&#45;v8</title>
<path fill="none" stroke="black" d="M1233.48,-148C1210.21,-136.36 1176.01,-119.26 1151.15,-106.83"/>
<polygon fill="black" stroke="black" points="1152.63,-103.66 1142.12,-102.31 1149.5,-109.92 1152.63,-103.66"/>
</g>
<!-- texlive&#45;core&#45;&gt;conda&#45;forge&#45;pinning -->
<g id="edge24" class="edge">
<title>texlive&#45;core&#45;&gt;conda&#45;forge&#45;pinning</title>
<path fill="none" stroke="black" d="M899.83,-144.23C915.45,-125.26 942.75,-94.12 970.49,-72 985.3,-60.19 1003.02,-49.19 1018.8,-40.3"/>
<polygon fill="black" stroke="black" points="1020.76,-43.22 1027.83,-35.33 1017.38,-37.09 1020.76,-43.22"/>
</g>
<!-- gtk2&#45;&gt;conda&#45;forge&#45;pinning -->
<g id="edge25" class="edge">
<title>gtk2&#45;&gt;conda&#45;forge&#45;pinning</title>
<path fill="none" stroke="black" d="M733.24,-143.95C738.68,-123.5 750.79,-89.75 774.49,-72 803.48,-50.28 889.77,-36.26 960.06,-28.13"/>
<polygon fill="black" stroke="black" points="960.76,-31.58 970.3,-26.98 959.97,-24.62 960.76,-31.58"/>
</g>
<!-- gtk2&#45;&gt;qgis -->
<g id="edge26" class="edge">
<title>gtk2&#45;&gt;qgis</title>
<path fill="none" stroke="black" d="M710.49,-147.83C695.21,-137.24 673.53,-122.21 656.29,-110.27"/>
<polygon fill="black" stroke="black" points="657.96,-107.17 647.74,-104.35 653.97,-112.92 657.96,-107.17"/>
</g>
<!-- libgd&#45;&gt;conda&#45;forge&#45;pinning -->
<g id="edge36" class="edge">
<title>libgd&#45;&gt;conda&#45;forge&#45;pinning</title>
<path fill="none" stroke="black" d="M657.97,-144.82C674.78,-124.28 706.75,-89.43 742.49,-72 806.48,-40.79 885.38,-27.51 948.58,-22.05"/>
<polygon fill="black" stroke="black" points="948.9,-25.53 958.59,-21.24 948.34,-18.56 948.9,-25.53"/>
</g>
<!-- tectonic&#45;&gt;conda&#45;forge&#45;pinning -->
<g id="edge45" class="edge">
<title>tectonic&#45;&gt;conda&#45;forge&#45;pinning</title>
<path fill="none" stroke="black" d="M1056,-144.1C1052.41,-133.84 1048.31,-120.36 1046.49,-108 1044.15,-92.17 1044.43,-87.87 1046.49,-72 1047.59,-63.51 1049.65,-54.43 1051.85,-46.24"/>
<polygon fill="black" stroke="black" points="1055.27,-47.02 1054.67,-36.44 1048.54,-45.09 1055.27,-47.02"/>
</g>
<!-- r&#45;stringi&#45;&gt;conda&#45;forge&#45;pinning -->
<g id="edge76" class="edge">
<title>r&#45;stringi&#45;&gt;conda&#45;forge&#45;pinning</title>
<path fill="none" stroke="black" d="M1225.09,-76.32C1194.17,-65.56 1149.36,-49.95 1114.3,-37.74"/>
<polygon fill="black" stroke="black" points="1115.28,-34.38 1104.69,-34.39 1112.98,-40.99 1115.28,-34.38"/>
</g>
<!-- r&#45;v8&#45;&gt;conda&#45;forge&#45;pinning -->
<g id="edge77" class="edge">
<title>r&#45;v8&#45;&gt;conda&#45;forge&#45;pinning</title>
<path fill="none" stroke="black" d="M1106.4,-73.46C1099.07,-64.78 1089.78,-53.75 1081.47,-43.89"/>
<polygon fill="black" stroke="black" points="1083.91,-41.35 1074.79,-35.96 1078.55,-45.86 1083.91,-41.35"/>
</g>
<!-- fontconfig -->
<g id="node16" class="node">
<title>fontconfig</title>
<g id="a_node16"><a xlink:href="https://github.com/conda-forge/fontconfig-feedstock" xlink:title="fontconfig">
<ellipse fill="#fde725" stroke="black" cx="988.49" cy="-378" rx="60" ry="18"/>
<text text-anchor="middle" x="988.49" y="-374.3" font-family="Times,serif" font-size="14.00">fontconfig</text>
</a>
</g>
</g>
<!-- fontconfig&#45;&gt;conda&#45;forge&#45;pinning -->
<g id="edge27" class="edge">
<title>fontconfig&#45;&gt;conda&#45;forge&#45;pinning</title>
<path fill="none" stroke="black" d="M1027.92,-364.35C1096.59,-340.2 1237.64,-280.75 1309.49,-180 1328.52,-153.31 1321.91,-140.58 1325.49,-108 1327.23,-92.1 1335.63,-84.37 1325.49,-72 1305.05,-47.07 1230.22,-33.64 1165.26,-26.54"/>
<polygon fill="black" stroke="black" points="1165.24,-23.01 1154.93,-25.45 1164.51,-29.98 1165.24,-23.01"/>
</g>
<!-- fontconfig&#45;&gt;cairo -->
<g id="edge28" class="edge">
<title>fontconfig&#45;&gt;cairo</title>
<path fill="none" stroke="black" d="M965.82,-361.29C951.1,-351.09 931.79,-337.7 916.02,-326.78"/>
<polygon fill="black" stroke="black" points="917.9,-323.82 907.68,-321 913.91,-329.57 917.9,-323.82"/>
</g>
<!-- fontconfig&#45;&gt;texlive&#45;core -->
<g id="edge29" class="edge">
<title>fontconfig&#45;&gt;texlive&#45;core</title>
<path fill="none" stroke="black" d="M980.31,-359.85C962.51,-322.5 920.15,-233.63 898.98,-189.21"/>
<polygon fill="black" stroke="black" points="902.02,-187.46 894.56,-179.94 895.7,-190.47 902.02,-187.46"/>
</g>
<!-- fontconfig&#45;&gt;gtk2 -->
<g id="edge30" class="edge">
<title>fontconfig&#45;&gt;gtk2</title>
<path fill="none" stroke="black" d="M939.6,-367.45C881.87,-353.3 788.29,-320.64 745.49,-252 733.96,-233.51 730.23,-208.92 729.23,-190.27"/>
<polygon fill="black" stroke="black" points="732.72,-189.95 728.92,-180.07 725.73,-190.17 732.72,-189.95"/>
</g>
<!-- fontconfig&#45;&gt;libgd -->
<g id="edge31" class="edge">
<title>fontconfig&#45;&gt;libgd</title>
<path fill="none" stroke="black" d="M930.92,-372.85C885.41,-367.29 821.89,-354.32 774.49,-324 720.48,-289.45 678.93,-224.5 658.82,-188.56"/>
<polygon fill="black" stroke="black" points="661.82,-186.75 653.95,-179.66 655.68,-190.11 661.82,-186.75"/>
</g>
<!-- fontconfig&#45;&gt;tectonic -->
<g id="edge35" class="edge">
<title>fontconfig&#45;&gt;tectonic</title>
<path fill="none" stroke="black" d="M994.42,-359.85C1007.31,-322.58 1037.94,-234 1053.33,-189.49"/>
<polygon fill="black" stroke="black" points="1056.67,-190.53 1056.63,-179.94 1050.06,-188.24 1056.67,-190.53"/>
</g>
<!-- octave -->
<g id="node17" class="node">
<title>octave</title>
<g id="a_node17"><a xlink:href="https://github.com/conda-forge/octave-feedstock" xlink:title="octave">
<ellipse fill="#fde725" stroke="black" cx="1397.49" cy="-162" rx="40.5" ry="18"/>
<text text-anchor="middle" x="1397.49" y="-158.3" font-family="Times,serif" font-size="14.00">octave</text>
</a>
</g>
</g>
<!-- fontconfig&#45;&gt;octave -->
<g id="edge32" class="edge">
<title>fontconfig&#45;&gt;octave</title>
<path fill="none" stroke="black" d="M1044.23,-371.34C1115.72,-363.27 1234.96,-346.88 1272.49,-324 1279.73,-319.59 1346.23,-231.49 1379.17,-187.52"/>
<polygon fill="black" stroke="black" points="1382.1,-189.46 1385.29,-179.35 1376.49,-185.26 1382.1,-189.46"/>
</g>
<!-- qt -->
<g id="node18" class="node">
<title>qt</title>
<g id="a_node18"><a xlink:href="https://github.com/conda-forge/qt-feedstock" xlink:title="qt">
<ellipse fill="#fde725" stroke="black" cx="582.49" cy="-234" rx="27" ry="18"/>
<text text-anchor="middle" x="582.49" y="-230.3" font-family="Times,serif" font-size="14.00">qt</text>
</a>
</g>
</g>
<!-- fontconfig&#45;&gt;qt -->
<g id="edge33" class="edge">
<title>fontconfig&#45;&gt;qt</title>
<path fill="none" stroke="black" d="M928.61,-376.24C864.69,-373.29 761.89,-362.29 682.49,-324 649.78,-308.22 619.74,-278.55 601.3,-257.82"/>
<polygon fill="black" stroke="black" points="603.79,-255.35 594.6,-250.09 598.51,-259.94 603.79,-255.35"/>
</g>
<!-- root5 -->
<g id="node19" class="node">
<title>root5</title>
<g id="a_node19"><a xlink:href="https://github.com/conda-forge/root5-feedstock" xlink:title="root5">
<ellipse fill="#fde725" stroke="black" cx="1435.49" cy="-306" rx="35.19" ry="18"/>
<text text-anchor="middle" x="1435.49" y="-302.3" font-family="Times,serif" font-size="14.00">root5</text>
</a>
</g>
</g>
<!-- fontconfig&#45;&gt;root5 -->
<g id="edge34" class="edge">
<title>fontconfig&#45;&gt;root5</title>
<path fill="none" stroke="black" d="M1040.64,-368.83C1129.76,-354.88 1309.7,-326.7 1392.28,-313.77"/>
<polygon fill="black" stroke="black" points="1392.99,-317.2 1402.33,-312.19 1391.91,-310.28 1392.99,-317.2"/>
</g>
<!-- octave&#45;&gt;conda&#45;forge&#45;pinning -->
<g id="edge37" class="edge">
<title>octave&#45;&gt;conda&#45;forge&#45;pinning</title>
<path fill="none" stroke="black" d="M1394.94,-143.98C1390.94,-123.56 1381.16,-89.84 1358.49,-72 1328.62,-48.48 1237.31,-34.62 1163.56,-27.01"/>
<polygon fill="black" stroke="black" points="1163.58,-23.49 1153.28,-25.98 1162.88,-30.46 1163.58,-23.49"/>
</g>
<!-- qt&#45;&gt;gdal -->
<g id="edge38" class="edge">
<title>qt&#45;&gt;gdal</title>
<path fill="none" stroke="black" d="M558.41,-225.62C548.27,-222.56 536.33,-219.03 525.49,-216 464.44,-198.94 447.49,-200.45 387.49,-180 385.11,-179.19 382.68,-178.3 380.25,-177.38"/>
<polygon fill="black" stroke="black" points="381.54,-174.12 370.96,-173.65 378.93,-180.62 381.54,-174.12"/>
</g>
<!-- qt&#45;&gt;conda&#45;forge&#45;pinning -->
<g id="edge39" class="edge">
<title>qt&#45;&gt;conda&#45;forge&#45;pinning</title>
<path fill="none" stroke="black" d="M576.88,-216.24C567.16,-183.72 551.58,-111.77 588.49,-72 612.75,-45.86 819.76,-30.85 951.45,-23.86"/>
<polygon fill="black" stroke="black" points="951.78,-27.35 961.58,-23.33 951.42,-20.36 951.78,-27.35"/>
</g>
<!-- qt&#45;&gt;qgis -->
<g id="edge42" class="edge">
<title>qt&#45;&gt;qgis</title>
<path fill="none" stroke="black" d="M584.78,-215.91C587.53,-197.72 592.88,-168.27 601.49,-144 604.83,-134.57 609.52,-124.68 614.05,-116.03"/>
<polygon fill="black" stroke="black" points="617.14,-117.67 618.83,-107.22 610.98,-114.34 617.14,-117.67"/>
</g>
<!-- qt&#45;&gt;libgd -->
<g id="edge40" class="edge">
<title>qt&#45;&gt;libgd</title>
<path fill="none" stroke="black" d="M595.85,-218.15C604.14,-208.94 614.97,-196.91 624.4,-186.43"/>
<polygon fill="black" stroke="black" points="627.18,-188.57 631.27,-178.8 621.98,-183.89 627.18,-188.57"/>
</g>
<!-- qt&#45;&gt;octave -->
<g id="edge41" class="edge">
<title>qt&#45;&gt;octave</title>
<path fill="none" stroke="black" d="M609.01,-230.49C646.2,-227.01 715.96,-220.63 775.49,-216 1012.65,-197.56 1073.6,-210.62 1309.49,-180 1323.38,-178.2 1338.39,-175.56 1352.01,-172.9"/>
<polygon fill="black" stroke="black" points="1353,-176.27 1362.11,-170.87 1351.62,-169.4 1353,-176.27"/>
</g>
<!-- matplotlib -->
<g id="node20" class="node">
<title>matplotlib</title>
<g id="a_node20"><a xlink:href="https://github.com/conda-forge/matplotlib-feedstock" xlink:title="matplotlib">
<ellipse fill="#fde725" stroke="black" cx="456.49" cy="-162" rx="60" ry="18"/>
<text text-anchor="middle" x="456.49" y="-158.3" font-family="Times,serif" font-size="14.00">matplotlib</text>
</a>
</g>
</g>
<!-- qt&#45;&gt;matplotlib -->
<g id="edge43" class="edge">
<title>qt&#45;&gt;matplotlib</title>
<path fill="none" stroke="black" d="M562.25,-221.75C543.54,-211.36 515.3,-195.67 492.71,-183.12"/>
<polygon fill="black" stroke="black" points="494.18,-179.93 483.73,-178.14 490.78,-186.05 494.18,-179.93"/>
</g>
<!-- root5&#45;&gt;conda&#45;forge&#45;pinning -->
<g id="edge44" class="edge">
<title>root5&#45;&gt;conda&#45;forge&#45;pinning</title>
<path fill="none" stroke="black" d="M1441.35,-287.88C1450.7,-257.71 1466.12,-193.59 1447.49,-144 1432.53,-104.2 1421.66,-92.65 1384.49,-72 1346.98,-51.16 1241.52,-36.5 1161.01,-27.96"/>
<polygon fill="black" stroke="black" points="1161.14,-24.46 1150.83,-26.9 1160.41,-31.42 1161.14,-24.46"/>
</g>
<!-- matplotlib&#45;&gt;conda&#45;forge&#45;pinning -->
<g id="edge73" class="edge">
<title>matplotlib&#45;&gt;conda&#45;forge&#45;pinning</title>
<path fill="none" stroke="black" d="M465.1,-144.14C476.79,-123.22 499.79,-88.31 530.49,-72 600.33,-34.89 813.44,-23.71 947.2,-20.38"/>
<polygon fill="black" stroke="black" points="947.57,-23.87 957.48,-20.13 947.4,-16.87 947.57,-23.87"/>
</g>
<!-- alps -->
<g id="node30" class="node">
<title>alps</title>
<g id="a_node30"><a xlink:href="https://github.com/conda-forge/alps-feedstock" xlink:title="alps">
<ellipse fill="#fde725" stroke="black" cx="447.49" cy="-90" rx="30.59" ry="18"/>
<text text-anchor="middle" x="447.49" y="-86.3" font-family="Times,serif" font-size="14.00">alps</text>
</a>
</g>
</g>
<!-- matplotlib&#45;&gt;alps -->
<g id="edge74" class="edge">
<title>matplotlib&#45;&gt;alps</title>
<path fill="none" stroke="black" d="M454.26,-143.7C453.27,-135.98 452.08,-126.71 450.97,-118.11"/>
<polygon fill="black" stroke="black" points="454.43,-117.58 449.69,-108.1 447.49,-118.47 454.43,-117.58"/>
</g>
<!-- igraph -->
<g id="node21" class="node">
<title>igraph</title>
<g id="a_node21"><a xlink:href="https://github.com/conda-forge/igraph-feedstock" xlink:title="igraph">
<ellipse fill="#fde725" stroke="black" cx="1479.49" cy="-378" rx="40.5" ry="18"/>
<text text-anchor="middle" x="1479.49" y="-374.3" font-family="Times,serif" font-size="14.00">igraph</text>
</a>
</g>
</g>
<!-- igraph&#45;&gt;conda&#45;forge&#45;pinning -->
<g id="edge47" class="edge">
<title>igraph&#45;&gt;conda&#45;forge&#45;pinning</title>
<path fill="none" stroke="black" d="M1484.43,-360.12C1491.71,-333.69 1504.49,-280.81 1504.49,-235 1504.49,-235 1504.49,-235 1504.49,-161 1504.49,-106.61 1468.73,-97.13 1420.49,-72 1377.08,-49.39 1254.35,-34.73 1164.21,-26.69"/>
<polygon fill="black" stroke="black" points="1164.48,-23.2 1154.21,-25.81 1163.87,-30.17 1164.48,-23.2"/>
</g>
<!-- libxml2 -->
<g id="node22" class="node">
<title>libxml2</title>
<g id="a_node22"><a xlink:href="https://github.com/conda-forge/libxml2-feedstock/pull/53" xlink:title="libxml2">
<ellipse fill="#31688e" stroke="black" cx="1410.49" cy="-450" rx="45" ry="18"/>
<text text-anchor="middle" x="1410.49" y="-446.3" font-family="Times,serif" font-size="14.00" fill="white">libxml2</text>
</a>
</g>
</g>
<!-- libxml2&#45;&gt;gdal -->
<g id="edge48" class="edge">
<title>libxml2&#45;&gt;gdal</title>
<path fill="none" stroke="black" d="M1365.72,-448.04C1203.31,-444.28 650.96,-429.16 579.49,-396 478.84,-349.3 486.26,-293.13 406.49,-216 395.37,-205.25 382.64,-193.72 371.86,-184.18"/>
<polygon fill="black" stroke="black" points="373.88,-181.29 364.06,-177.31 369.25,-186.54 373.88,-181.29"/>
</g>
<!-- libxml2&#45;&gt;ifcopenshell -->
<g id="edge49" class="edge">
<title>libxml2&#45;&gt;ifcopenshell</title>
<path fill="none" stroke="black" d="M1365.36,-449.24C1207.28,-449.63 679.5,-446.98 519.49,-396 404.22,-359.28 384.22,-325.98 288.49,-252 270.08,-237.77 267.65,-231.7 250.49,-216 239.7,-206.13 227.65,-195.43 217.19,-186.24"/>
<polygon fill="black" stroke="black" points="219.38,-183.5 209.56,-179.54 214.77,-188.76 219.38,-183.5"/>
</g>
<!-- libxml2&#45;&gt;conda&#45;forge&#45;pinning -->
<g id="edge50" class="edge">
<title>libxml2&#45;&gt;conda&#45;forge&#45;pinning</title>
<path fill="none" stroke="black" d="M1450.95,-441.98C1477.8,-435.08 1511.32,-421.65 1529.49,-396 1570.98,-337.41 1542.49,-306.79 1542.49,-235 1542.49,-235 1542.49,-235 1542.49,-161 1542.49,-108.4 1510.88,-96.79 1464.49,-72 1414.75,-45.42 1270.26,-31.39 1168.33,-24.59"/>
<polygon fill="black" stroke="black" points="1168.5,-21.09 1158.3,-23.93 1168.05,-28.08 1168.5,-21.09"/>
</g>
<!-- libxml2&#45;&gt;r&#45;base -->
<g id="edge51" class="edge">
<title>libxml2&#45;&gt;r&#45;base</title>
<path fill="none" stroke="black" d="M1401.5,-431.97C1376.05,-383.77 1303.42,-246.2 1273.07,-188.72"/>
<polygon fill="black" stroke="black" points="1276.01,-186.8 1268.25,-179.59 1269.82,-190.06 1276.01,-186.8"/>
</g>
<!-- libxml2&#45;&gt;gtk2 -->
<g id="edge52" class="edge">
<title>libxml2&#45;&gt;gtk2</title>
<path fill="none" stroke="black" d="M1365.46,-449.38C1277.77,-448.99 1078.74,-442.52 919.49,-396 850.42,-375.83 828.26,-371.8 774.49,-324 745.93,-298.61 738.39,-288.63 727.49,-252 721.51,-231.91 722.43,-208.13 724.61,-190.2"/>
<polygon fill="black" stroke="black" points="728.1,-190.54 726.04,-180.14 721.17,-189.55 728.1,-190.54"/>
</g>
<!-- libxml2&#45;&gt;fontconfig -->
<g id="edge53" class="edge">
<title>libxml2&#45;&gt;fontconfig</title>
<path fill="none" stroke="black" d="M1369.64,-442.22C1295.23,-429.88 1137.21,-403.67 1049.81,-389.17"/>
<polygon fill="black" stroke="black" points="1050.21,-385.69 1039.77,-387.51 1049.06,-392.6 1050.21,-385.69"/>
</g>
<!-- libxml2&#45;&gt;octave -->
<g id="edge54" class="edge">
<title>libxml2&#45;&gt;octave</title>
<path fill="none" stroke="black" d="M1407.01,-431.7C1402.38,-407.67 1394.42,-362.74 1391.49,-324 1387.95,-277.14 1391.64,-222.44 1394.59,-190.38"/>
<polygon fill="black" stroke="black" points="1398.08,-190.71 1395.56,-180.42 1391.11,-190.03 1398.08,-190.71"/>
</g>
<!-- libxml2&#45;&gt;qt -->
<g id="edge55" class="edge">
<title>libxml2&#45;&gt;qt</title>
<path fill="none" stroke="black" d="M1365.48,-449.26C1204.3,-449.76 662.47,-447.56 606.49,-396 569.85,-362.25 572.29,-298.65 577.36,-262.3"/>
<polygon fill="black" stroke="black" points="580.89,-262.38 578.98,-251.96 573.97,-261.3 580.89,-262.38"/>
</g>
<!-- libxml2&#45;&gt;root5 -->
<g id="edge56" class="edge">
<title>libxml2&#45;&gt;root5</title>
<path fill="none" stroke="black" d="M1413.5,-431.87C1417.77,-407.67 1425.59,-363.21 1430.67,-334.39"/>
<polygon fill="black" stroke="black" points="1434.18,-334.64 1432.46,-324.19 1427.28,-333.43 1434.18,-334.64"/>
</g>
<!-- libxml2&#45;&gt;igraph -->
<g id="edge57" class="edge">
<title>libxml2&#45;&gt;igraph</title>
<path fill="none" stroke="black" d="M1426.15,-433.12C1435.14,-423.99 1446.61,-412.36 1456.6,-402.22"/>
<polygon fill="black" stroke="black" points="1459.37,-404.4 1463.89,-394.82 1454.38,-399.49 1459.37,-404.4"/>
</g>
<!-- libxslt -->
<g id="node23" class="node">
<title>libxslt</title>
<g id="a_node23"><a xlink:href="https://github.com/conda-forge/libxslt-feedstock" xlink:title="libxslt">
<ellipse fill="#fde725" stroke="black" cx="68.49" cy="-234" rx="45" ry="18"/>
<text text-anchor="middle" x="68.49" y="-230.3" font-family="Times,serif" font-size="14.00">libxslt</text>
</a>
</g>
</g>
<!-- libxml2&#45;&gt;libxslt -->
<g id="edge58" class="edge">
<title>libxml2&#45;&gt;libxslt</title>
<path fill="none" stroke="black" d="M1365.42,-448.67C1165,-446.95 359.89,-437.5 255.49,-396 182.39,-366.94 117.95,-296.74 87.35,-259.37"/>
<polygon fill="black" stroke="black" points="90,-257.08 81,-251.48 84.55,-261.47 90,-257.08"/>
</g>
<!-- python&#45;igraph -->
<g id="node24" class="node">
<title>python&#45;igraph</title>
<g id="a_node24"><a xlink:href="https://github.com/conda-forge/python-igraph-feedstock" xlink:title="python igraph">
<ellipse fill="#fde725" stroke="black" cx="1644.49" cy="-306" rx="74.19" ry="18"/>
<text text-anchor="middle" x="1644.49" y="-302.3" font-family="Times,serif" font-size="14.00">python igraph</text>
</a>
</g>
</g>
<!-- libxml2&#45;&gt;python&#45;igraph -->
<g id="edge59" class="edge">
<title>libxml2&#45;&gt;python&#45;igraph</title>
<path fill="none" stroke="black" d="M1449.71,-440.94C1481.9,-433.06 1527.68,-418.85 1562.49,-396 1588.35,-379.03 1611.58,-352.14 1626.66,-332.36"/>
<polygon fill="black" stroke="black" points="1629.64,-334.21 1632.8,-324.1 1624.02,-330.04 1629.64,-334.21"/>
</g>
<!-- uwsgi -->
<g id="node25" class="node">
<title>uwsgi</title>
<g id="a_node25"><a xlink:href="https://github.com/conda-forge/uwsgi-feedstock" xlink:title="uwsgi">
<ellipse fill="#fde725" stroke="black" cx="1682.49" cy="-234" rx="35.19" ry="18"/>
<text text-anchor="middle" x="1682.49" y="-230.3" font-family="Times,serif" font-size="14.00">uwsgi</text>
</a>
</g>
</g>
<!-- libxml2&#45;&gt;uwsgi -->
<g id="edge60" class="edge">
<title>libxml2&#45;&gt;uwsgi</title>
<path fill="none" stroke="black" d="M1455.15,-447.36C1528.28,-441.92 1671.09,-419 1727.49,-324 1740.64,-301.85 1723.31,-275.4 1706.49,-257.11"/>
<polygon fill="black" stroke="black" points="1708.88,-254.55 1699.4,-249.81 1703.86,-259.43 1708.88,-254.55"/>
</g>
<!-- mdsplus -->
<g id="node26" class="node">
<title>mdsplus</title>
<g id="a_node26"><a xlink:href="https://github.com/conda-forge/mdsplus-feedstock" xlink:title="mdsplus">
<ellipse fill="#fde725" stroke="black" cx="1691.49" cy="-90" rx="45" ry="18"/>
<text text-anchor="middle" x="1691.49" y="-86.3" font-family="Times,serif" font-size="14.00">mdsplus</text>
</a>
</g>
</g>
<!-- libxml2&#45;&gt;mdsplus -->
<g id="edge61" class="edge">
<title>libxml2&#45;&gt;mdsplus</title>
<path fill="none" stroke="black" d="M1455.29,-447.99C1512.34,-445.07 1612.63,-434.34 1688.49,-396 1740.41,-369.76 1784.49,-365.18 1784.49,-307 1784.49,-307 1784.49,-307 1784.49,-233 1784.49,-184.24 1745.65,-139.2 1718.17,-113.43"/>
<polygon fill="black" stroke="black" points="1720.51,-110.83 1710.76,-106.69 1715.8,-116.01 1720.51,-110.83"/>
</g>
<!-- ticcutils -->
<g id="node27" class="node">
<title>ticcutils</title>
<g id="a_node27"><a xlink:href="https://github.com/conda-forge/ticcutils-feedstock" xlink:title="ticcutils">
<ellipse fill="#fde725" stroke="black" cx="1809.49" cy="-90" rx="54.69" ry="18"/>
<text text-anchor="middle" x="1809.49" y="-86.3" font-family="Times,serif" font-size="14.00">ticcutils</text>
</a>
</g>
</g>
<!-- libxml2&#45;&gt;ticcutils -->
<g id="edge62" class="edge">
<title>libxml2&#45;&gt;ticcutils</title>
<path fill="none" stroke="black" d="M1454.24,-445.38C1531.61,-438.41 1689.01,-421.52 1737.49,-396 1785.89,-370.52 1822.49,-361.7 1822.49,-307 1822.49,-307 1822.49,-307 1822.49,-233 1822.49,-192.83 1817.27,-146.53 1813.44,-118.01"/>
<polygon fill="black" stroke="black" points="1816.89,-117.43 1812.06,-108 1809.96,-118.39 1816.89,-117.43"/>
</g>
<!-- scilab -->
<g id="node28" class="node">
<title>scilab</title>
<g id="a_node28"><a xlink:href="https://github.com/conda-forge/scilab-feedstock" xlink:title="scilab">
<ellipse fill="#fde725" stroke="black" cx="1891.49" cy="-378" rx="40.5" ry="18"/>
<text text-anchor="middle" x="1891.49" y="-374.3" font-family="Times,serif" font-size="14.00">scilab</text>
</a>
</g>
</g>
<!-- libxml2&#45;&gt;scilab -->
<g id="edge63" class="edge">
<title>libxml2&#45;&gt;scilab</title>
<path fill="none" stroke="black" d="M1454.46,-446.09C1532.21,-440.39 1698.78,-425.61 1836.49,-396 1841.13,-395 1845.94,-393.79 1850.7,-392.48"/>
<polygon fill="black" stroke="black" points="1851.71,-395.83 1860.33,-389.67 1849.75,-389.11 1851.71,-395.83"/>
</g>
<!-- libical -->
<g id="node29" class="node">
<title>libical</title>
<g id="a_node29"><a xlink:href="https://github.com/conda-forge/libical-feedstock" xlink:title="libical">
<ellipse fill="#fde725" stroke="black" cx="1991.49" cy="-306" rx="45" ry="18"/>
<text text-anchor="middle" x="1991.49" y="-302.3" font-family="Times,serif" font-size="14.00">libical</text>
</a>
</g>
</g>
<!-- libxml2&#45;&gt;libical -->
<g id="edge64" class="edge">
<title>libxml2&#45;&gt;libical</title>
<path fill="none" stroke="black" d="M1455.85,-449.72C1569.32,-450.7 1862.02,-447.98 1941.49,-396 1963.31,-381.73 1976.57,-354.46 1983.89,-333.85"/>
<polygon fill="black" stroke="black" points="1987.31,-334.66 1987.11,-324.07 1980.66,-332.47 1987.31,-334.66"/>
</g>
<!-- libxslt&#45;&gt;gdal -->
<g id="edge65" class="edge">
<title>libxslt&#45;&gt;gdal</title>
<path fill="none" stroke="black" d="M102.08,-222.01C108.81,-219.92 115.85,-217.82 122.49,-216 157.39,-206.41 254.81,-184.02 309.32,-171.63"/>
<polygon fill="black" stroke="black" points="310.32,-174.99 319.3,-169.37 308.77,-168.17 310.32,-174.99"/>
</g>
<!-- libxslt&#45;&gt;conda&#45;forge&#45;pinning -->
<g id="edge66" class="edge">
<title>libxslt&#45;&gt;conda&#45;forge&#45;pinning</title>
<path fill="none" stroke="black" d="M53.59,-216.54C26.41,-184.54 -24.92,-113.45 14.49,-72 46.23,-38.61 683.28,-24.87 947.34,-20.6"/>
<polygon fill="black" stroke="black" points="947.78,-24.09 957.72,-20.43 947.67,-17.09 947.78,-24.09"/>
</g>
<!-- python&#45;igraph&#45;&gt;conda&#45;forge&#45;pinning -->
<g id="edge67" class="edge">
<title>python&#45;igraph&#45;&gt;conda&#45;forge&#45;pinning</title>
<path fill="none" stroke="black" d="M1640.47,-287.82C1628.61,-238.77 1592.41,-99.77 1556.49,-72 1526.47,-48.8 1305.13,-32.53 1168.47,-24.57"/>
<polygon fill="black" stroke="black" points="1168.56,-21.07 1158.37,-23.99 1168.16,-28.06 1168.56,-21.07"/>
</g>
<!-- uwsgi&#45;&gt;conda&#45;forge&#45;pinning -->
<g id="edge68" class="edge">
<title>uwsgi&#45;&gt;conda&#45;forge&#45;pinning</title>
<path fill="none" stroke="black" d="M1678.77,-216.03C1670.35,-182.14 1646.42,-106.38 1594.49,-72 1559.88,-49.09 1314.64,-32.39 1168.83,-24.36"/>
<polygon fill="black" stroke="black" points="1168.68,-20.85 1158.5,-23.8 1168.3,-27.84 1168.68,-20.85"/>
</g>
<!-- mdsplus&#45;&gt;conda&#45;forge&#45;pinning -->
<g id="edge69" class="edge">
<title>mdsplus&#45;&gt;conda&#45;forge&#45;pinning</title>
<path fill="none" stroke="black" d="M1657.43,-78.01C1649.33,-75.72 1640.66,-73.54 1632.49,-72 1473.74,-42.05 1286.87,-28.78 1171.03,-23.08"/>
<polygon fill="black" stroke="black" points="1170.89,-19.57 1160.74,-22.58 1170.56,-26.56 1170.89,-19.57"/>
</g>
<!-- ticcutils&#45;&gt;conda&#45;forge&#45;pinning -->
<g id="edge70" class="edge">
<title>ticcutils&#45;&gt;conda&#45;forge&#45;pinning</title>
<path fill="none" stroke="black" d="M1770.13,-77.34C1762.04,-75.29 1753.54,-73.37 1745.49,-72 1545.45,-37.99 1308.78,-25.77 1172.5,-21.41"/>
<polygon fill="black" stroke="black" points="1172.57,-17.91 1162.46,-21.09 1172.35,-24.91 1172.57,-17.91"/>
</g>
<!-- scilab&#45;&gt;conda&#45;forge&#45;pinning -->
<g id="edge71" class="edge">
<title>scilab&#45;&gt;conda&#45;forge&#45;pinning</title>
<path fill="none" stroke="black" d="M1891.69,-359.95C1891.98,-333.29 1892.49,-280.12 1892.49,-235 1892.49,-235 1892.49,-235 1892.49,-161 1892.49,-120.55 1904.09,-98.45 1873.49,-72 1821.83,-27.35 1385.59,-19.9 1174.3,-18.94"/>
<polygon fill="black" stroke="black" points="1174.11,-15.44 1164.1,-18.9 1174.09,-22.44 1174.11,-15.44"/>
</g>
<!-- libical&#45;&gt;conda&#45;forge&#45;pinning -->
<g id="edge72" class="edge">
<title>libical&#45;&gt;conda&#45;forge&#45;pinning</title>
<path fill="none" stroke="black" d="M1999.1,-288.12C2017.07,-245.44 2056.48,-132.3 1999.49,-72 1971.5,-42.39 1416.15,-26.73 1172.94,-21.27"/>
<polygon fill="black" stroke="black" points="1172.73,-17.76 1162.66,-21.04 1172.58,-24.76 1172.73,-17.76"/>
</g>
<!-- alps&#45;&gt;conda&#45;forge&#45;pinning -->
<g id="edge75" class="edge">
<title>alps&#45;&gt;conda&#45;forge&#45;pinning</title>
<path fill="none" stroke="black" d="M471.41,-78.61C478.12,-76.07 485.49,-73.62 492.49,-72 647.63,-36.15 831.93,-24.42 947.58,-20.66"/>
<polygon fill="black" stroke="black" points="947.97,-24.15 957.86,-20.34 947.75,-17.15 947.97,-24.15"/>
</g>
<!-- xerces&#45;c -->
<g id="node31" class="node">
<title>xerces&#45;c</title>
<g id="a_node31"><a xlink:href="https://github.com/conda-forge/xerces-c-feedstock/pull/25" xlink:title="xerces c">
<ellipse fill="#31688e" stroke="black" cx="347.49" cy="-234" rx="50.09" ry="18"/>
<text text-anchor="middle" x="347.49" y="-230.3" font-family="Times,serif" font-size="14.00" fill="white">xerces c</text>
</a>
</g>
</g>
<!-- xerces&#45;c&#45;&gt;gdal -->
<g id="edge78" class="edge">
<title>xerces&#45;c&#45;&gt;gdal</title>
<path fill="none" stroke="black" d="M347.49,-215.7C347.49,-207.98 347.49,-198.71 347.49,-190.11"/>
<polygon fill="black" stroke="black" points="350.99,-190.1 347.49,-180.1 343.99,-190.1 350.99,-190.1"/>
</g>
<!-- xerces&#45;c&#45;&gt;conda&#45;forge&#45;pinning -->
<g id="edge79" class="edge">
<title>xerces&#45;c&#45;&gt;conda&#45;forge&#45;pinning</title>
<path fill="none" stroke="black" d="M331,-216.99C322.18,-207.24 312.18,-193.99 307.49,-180 302.41,-164.83 301.92,-159 307.49,-144 322.19,-104.41 331.8,-91.06 369.49,-72 419.87,-46.52 767.85,-29.91 949.94,-22.86"/>
<polygon fill="black" stroke="black" points="950.23,-26.36 960.09,-22.47 949.96,-19.36 950.23,-26.36"/>
</g>
<!-- pyicu -->
<g id="node32" class="node">
<title>pyicu</title>
<g id="a_node32"><a xlink:href="https://github.com/conda-forge/pyicu-feedstock/pull/16" xlink:title="pyicu">
<ellipse fill="#31688e" stroke="black" cx="1955.49" cy="-90" rx="35.19" ry="18"/>
<text text-anchor="middle" x="1955.49" y="-86.3" font-family="Times,serif" font-size="14.00" fill="white">pyicu</text>
</a>
</g>
</g>
<!-- pyicu&#45;&gt;conda&#45;forge&#45;pinning -->
<g id="edge80" class="edge">
<title>pyicu&#45;&gt;conda&#45;forge&#45;pinning</title>
<path fill="none" stroke="black" d="M1928.64,-78.22C1921.54,-75.78 1913.82,-73.47 1906.49,-72 1769.19,-44.42 1368.47,-28.55 1171.88,-22.23"/>
<polygon fill="black" stroke="black" points="1171.92,-18.73 1161.81,-21.91 1171.69,-25.73 1171.92,-18.73"/>
</g>
<!-- libv8 -->
<g id="node33" class="node">
<title>libv8</title>
<g id="a_node33"><a xlink:href="https://github.com/conda-forge/libv8-feedstock/pull/12" xlink:title="libv8">
<ellipse fill="#31688e" stroke="black" cx="1165.49" cy="-162" rx="35.19" ry="18"/>
<text text-anchor="middle" x="1165.49" y="-158.3" font-family="Times,serif" font-size="14.00" fill="white">libv8</text>
</a>
</g>
</g>
<!-- libv8&#45;&gt;conda&#45;forge&#45;pinning -->
<g id="edge81" class="edge">
<title>libv8&#45;&gt;conda&#45;forge&#45;pinning</title>
<path fill="none" stroke="black" d="M1137.65,-150.76C1118.39,-142.23 1093.74,-128.21 1079.49,-108 1066.79,-90 1062.29,-65.21 1060.82,-46.36"/>
<polygon fill="black" stroke="black" points="1064.31,-46.12 1060.28,-36.32 1057.32,-46.49 1064.31,-46.12"/>
</g>
<!-- libv8&#45;&gt;r&#45;v8 -->
<g id="edge82" class="edge">
<title>libv8&#45;&gt;r&#45;v8</title>
<path fill="none" stroke="black" d="M1154.82,-144.76C1149.13,-136.11 1142.01,-125.27 1135.66,-115.6"/>
<polygon fill="black" stroke="black" points="1138.52,-113.58 1130.1,-107.15 1132.67,-117.43 1138.52,-113.58"/>
</g>
<!-- nbin -->
<g id="node34" class="node">
<title>nbin</title>
<g id="a_node34"><a xlink:href="https://github.com/conda-forge/nbin-feedstock/pull/1" xlink:title="nbin">
<ellipse fill="#31688e" stroke="black" cx="2077.49" cy="-162" rx="30.59" ry="18"/>
<text text-anchor="middle" x="2077.49" y="-158.3" font-family="Times,serif" font-size="14.00" fill="white">nbin</text>
</a>
</g>
</g>
<!-- nbin&#45;&gt;conda&#45;forge&#45;pinning -->
<g id="edge83" class="edge">
<title>nbin&#45;&gt;conda&#45;forge&#45;pinning</title>
<path fill="none" stroke="black" d="M2074.19,-143.8C2069.17,-122.86 2057.42,-88.28 2032.49,-72 1962.22,-26.11 1415.74,-19.52 1174.41,-18.88"/>
<polygon fill="black" stroke="black" points="1174.21,-15.38 1164.2,-18.85 1174.19,-22.38 1174.21,-15.38"/>
</g>
</g>
</svg>
