<?xml version="1.0" encoding="UTF-8" standalone="no"?>
<!DOCTYPE svg PUBLIC "-//W3C//DTD SVG 1.1//EN"
 "http://www.w3.org/Graphics/SVG/1.1/DTD/svg11.dtd">
<!-- Generated by graphviz version 2.42.3 (20191010.1750)
 -->
<!-- Title: %3 Pages: 1 -->
<svg width="1891pt" height="404pt"
 viewBox="0.00 0.00 1890.55 404.00" xmlns="http://www.w3.org/2000/svg" xmlns:xlink="http://www.w3.org/1999/xlink">
<g id="graph0" class="graph" transform="scale(1 1) rotate(0) translate(4 400)">
<title>%3</title>
<polygon fill="white" stroke="transparent" points="-4,4 -4,-400 1886.55,-400 1886.55,4 -4,4"/>
<!-- cairo -->
<g id="node1" class="node">
<title>cairo</title>
<g id="a_node1"><a xlink:href="https://github.com/conda-forge/cairo-feedstock" xlink:title="cairo">
<ellipse fill="#fde725" stroke="black" cx="926" cy="-306" rx="35.19" ry="18"/>
<text text-anchor="middle" x="926" y="-302.3" font-family="Times,serif" font-size="14.00">cairo</text>
</a>
</g>
</g>
<!-- gdal -->
<g id="node2" class="node">
<title>gdal</title>
<g id="a_node2"><a xlink:href="https://github.com/conda-forge/gdal-feedstock" xlink:title="gdal">
<ellipse fill="#fde725" stroke="black" cx="537" cy="-162" rx="30.59" ry="18"/>
<text text-anchor="middle" x="537" y="-158.3" font-family="Times,serif" font-size="14.00">gdal</text>
</a>
</g>
</g>
<!-- cairo&#45;&gt;gdal -->
<g id="edge1" class="edge">
<title>cairo&#45;&gt;gdal</title>
<path fill="none" stroke="black" d="M890.81,-304.2C810.89,-301.7 618.82,-291.62 570,-252 551.45,-236.95 543.33,-210.41 539.77,-190.22"/>
<polygon fill="black" stroke="black" points="543.19,-189.42 538.26,-180.05 536.27,-190.45 543.19,-189.42"/>
</g>
<!-- harfbuzz -->
<g id="node3" class="node">
<title>harfbuzz</title>
<g id="a_node3"><a xlink:href="https://github.com/conda-forge/harfbuzz-feedstock" xlink:title="harfbuzz">
<ellipse fill="#fde725" stroke="black" cx="785" cy="-234" rx="50.09" ry="18"/>
<text text-anchor="middle" x="785" y="-230.3" font-family="Times,serif" font-size="14.00">harfbuzz</text>
</a>
</g>
</g>
<!-- cairo&#45;&gt;harfbuzz -->
<g id="edge2" class="edge">
<title>cairo&#45;&gt;harfbuzz</title>
<path fill="none" stroke="black" d="M901.76,-292.97C879.98,-282.15 847.64,-266.1 822.52,-253.63"/>
<polygon fill="black" stroke="black" points="823.8,-250.35 813.28,-249.04 820.69,-256.62 823.8,-250.35"/>
</g>
<!-- r&#45;base -->
<g id="node4" class="node">
<title>r&#45;base</title>
<g id="a_node4"><a xlink:href="https://github.com/conda-forge/r-base-feedstock" xlink:title="r base">
<ellipse fill="#fde725" stroke="black" cx="989" cy="-162" rx="40.5" ry="18"/>
<text text-anchor="middle" x="989" y="-158.3" font-family="Times,serif" font-size="14.00">r base</text>
</a>
</g>
</g>
<!-- cairo&#45;&gt;r&#45;base -->
<g id="edge3" class="edge">
<title>cairo&#45;&gt;r&#45;base</title>
<path fill="none" stroke="black" d="M933.47,-288.15C944.32,-263.71 964.52,-218.17 977.34,-189.29"/>
<polygon fill="black" stroke="black" points="980.68,-190.39 981.54,-179.82 974.28,-187.55 980.68,-190.39"/>
</g>
<!-- texlive&#45;core -->
<g id="node5" class="node">
<title>texlive&#45;core</title>
<g id="a_node5"><a xlink:href="https://github.com/conda-forge/texlive-core-feedstock" xlink:title="texlive core">
<ellipse fill="#fde725" stroke="black" cx="1322" cy="-162" rx="69.59" ry="18"/>
<text text-anchor="middle" x="1322" y="-158.3" font-family="Times,serif" font-size="14.00">texlive core</text>
</a>
</g>
</g>
<!-- cairo&#45;&gt;texlive&#45;core -->
<g id="edge4" class="edge">
<title>cairo&#45;&gt;texlive&#45;core</title>
<path fill="none" stroke="black" d="M953.85,-295.01C1020.48,-271.12 1189.8,-210.4 1273.56,-180.37"/>
<polygon fill="black" stroke="black" points="1274.87,-183.62 1283.1,-176.95 1272.5,-177.03 1274.87,-183.62"/>
</g>
<!-- gtk2 -->
<g id="node6" class="node">
<title>gtk2</title>
<g id="a_node6"><a xlink:href="https://github.com/conda-forge/gtk2-feedstock" xlink:title="gtk2">
<ellipse fill="#fde725" stroke="black" cx="811" cy="-162" rx="30.59" ry="18"/>
<text text-anchor="middle" x="811" y="-158.3" font-family="Times,serif" font-size="14.00">gtk2</text>
</a>
</g>
</g>
<!-- cairo&#45;&gt;gtk2 -->
<g id="edge5" class="edge">
<title>cairo&#45;&gt;gtk2</title>
<path fill="none" stroke="black" d="M919.07,-288.05C910.85,-269.18 895.83,-238.42 877,-216 866.17,-203.11 851.82,-191.14 839.26,-181.85"/>
<polygon fill="black" stroke="black" points="841.09,-178.86 830.92,-175.87 837.01,-184.54 841.09,-178.86"/>
</g>
<!-- conda&#45;forge&#45;pinning -->
<g id="node7" class="node">
<title>conda&#45;forge&#45;pinning</title>
<ellipse fill="none" stroke="black" cx="875" cy="-18" rx="103.5" ry="18"/>
<text text-anchor="middle" x="875" y="-14.3" font-family="Times,serif" font-size="14.00">conda&#45;forge&#45;pinning</text>
</g>
<!-- cairo&#45;&gt;conda&#45;forge&#45;pinning -->
<g id="edge6" class="edge">
<title>cairo&#45;&gt;conda&#45;forge&#45;pinning</title>
<path fill="none" stroke="black" d="M939.88,-289.37C974.04,-251.04 1060.58,-154.68 1077,-144 1117.65,-117.55 1151.93,-147.54 1180,-108 1189.26,-94.95 1190.3,-84.24 1180,-72 1155.13,-42.43 1061.97,-29.36 985.08,-23.58"/>
<polygon fill="black" stroke="black" points="985.06,-20.07 974.83,-22.84 984.56,-27.05 985.06,-20.07"/>
</g>
<!-- gdal&#45;&gt;conda&#45;forge&#45;pinning -->
<g id="edge7" class="edge">
<title>gdal&#45;&gt;conda&#45;forge&#45;pinning</title>
<path fill="none" stroke="black" d="M549.6,-145.35C568.36,-122.43 603.24,-81.43 620,-72 665.25,-46.53 721.21,-33.25 769.17,-26.34"/>
<polygon fill="black" stroke="black" points="769.85,-29.78 779.28,-24.96 768.9,-22.85 769.85,-29.78"/>
</g>
<!-- qgis -->
<g id="node8" class="node">
<title>qgis</title>
<g id="a_node8"><a xlink:href="https://github.com/conda-forge/qgis-feedstock" xlink:title="qgis">
<ellipse fill="#fde725" stroke="black" cx="537" cy="-90" rx="30.59" ry="18"/>
<text text-anchor="middle" x="537" y="-86.3" font-family="Times,serif" font-size="14.00">qgis</text>
</a>
</g>
</g>
<!-- gdal&#45;&gt;qgis -->
<g id="edge8" class="edge">
<title>gdal&#45;&gt;qgis</title>
<path fill="none" stroke="black" d="M537,-143.7C537,-135.98 537,-126.71 537,-118.11"/>
<polygon fill="black" stroke="black" points="540.5,-118.1 537,-108.1 533.5,-118.1 540.5,-118.1"/>
</g>
<!-- harfbuzz&#45;&gt;gdal -->
<g id="edge9" class="edge">
<title>harfbuzz&#45;&gt;gdal</title>
<path fill="none" stroke="black" d="M746.79,-222.22C699.7,-208.92 620.24,-186.5 573.8,-173.39"/>
<polygon fill="black" stroke="black" points="574.72,-170.01 564.14,-170.66 572.82,-176.75 574.72,-170.01"/>
</g>
<!-- harfbuzz&#45;&gt;texlive&#45;core -->
<g id="edge10" class="edge">
<title>harfbuzz&#45;&gt;texlive&#45;core</title>
<path fill="none" stroke="black" d="M833.35,-228.96C917.12,-221.6 1094.53,-204.51 1243,-180 1249.18,-178.98 1255.6,-177.8 1262,-176.55"/>
<polygon fill="black" stroke="black" points="1262.88,-179.94 1271.99,-174.53 1261.49,-173.08 1262.88,-179.94"/>
</g>
<!-- harfbuzz&#45;&gt;gtk2 -->
<g id="edge11" class="edge">
<title>harfbuzz&#45;&gt;gtk2</title>
<path fill="none" stroke="black" d="M791.29,-216.05C794.26,-208.06 797.88,-198.33 801.19,-189.4"/>
<polygon fill="black" stroke="black" points="804.56,-190.38 804.76,-179.79 798,-187.94 804.56,-190.38"/>
</g>
<!-- harfbuzz&#45;&gt;conda&#45;forge&#45;pinning -->
<g id="edge12" class="edge">
<title>harfbuzz&#45;&gt;conda&#45;forge&#45;pinning</title>
<path fill="none" stroke="black" d="M778.22,-216.06C771.93,-197.99 764.47,-168.65 771,-144 780.43,-108.4 788.43,-100.29 812,-72 821.11,-61.06 832.67,-50.61 843.39,-41.92"/>
<polygon fill="black" stroke="black" points="845.68,-44.58 851.38,-35.65 841.35,-39.08 845.68,-44.58"/>
</g>
<!-- libgd -->
<g id="node9" class="node">
<title>libgd</title>
<g id="a_node9"><a xlink:href="https://github.com/conda-forge/libgd-feedstock" xlink:title="libgd">
<ellipse fill="#fde725" stroke="black" cx="377" cy="-162" rx="35.19" ry="18"/>
<text text-anchor="middle" x="377" y="-158.3" font-family="Times,serif" font-size="14.00">libgd</text>
</a>
</g>
</g>
<!-- harfbuzz&#45;&gt;libgd -->
<g id="edge13" class="edge">
<title>harfbuzz&#45;&gt;libgd</title>
<path fill="none" stroke="black" d="M741.07,-225.26C724.44,-222.34 705.35,-219 688,-216 592.34,-199.47 480.06,-180.42 420.03,-170.27"/>
<polygon fill="black" stroke="black" points="420.59,-166.81 410.15,-168.6 419.42,-173.71 420.59,-166.81"/>
</g>
<!-- tectonic -->
<g id="node10" class="node">
<title>tectonic</title>
<g id="a_node10"><a xlink:href="https://github.com/conda-forge/tectonic-feedstock" xlink:title="tectonic">
<ellipse fill="#fde725" stroke="black" cx="674" cy="-162" rx="50.09" ry="18"/>
<text text-anchor="middle" x="674" y="-158.3" font-family="Times,serif" font-size="14.00">tectonic</text>
</a>
</g>
</g>
<!-- harfbuzz&#45;&gt;tectonic -->
<g id="edge14" class="edge">
<title>harfbuzz&#45;&gt;tectonic</title>
<path fill="none" stroke="black" d="M761.19,-217.98C745.24,-207.93 724.04,-194.56 706.54,-183.52"/>
<polygon fill="black" stroke="black" points="708.1,-180.37 697.77,-177.99 704.36,-186.29 708.1,-180.37"/>
</g>
<!-- r&#45;base&#45;&gt;conda&#45;forge&#45;pinning -->
<g id="edge15" class="edge">
<title>r&#45;base&#45;&gt;conda&#45;forge&#45;pinning</title>
<path fill="none" stroke="black" d="M1009.04,-145.97C1030.76,-127.82 1060.05,-96.67 1042,-72 1026.15,-50.34 1001.39,-37.32 975.74,-29.55"/>
<polygon fill="black" stroke="black" points="976.46,-26.11 965.89,-26.82 974.59,-32.86 976.46,-26.11"/>
</g>
<!-- r&#45;stringi -->
<g id="node11" class="node">
<title>r&#45;stringi</title>
<g id="a_node11"><a xlink:href="https://github.com/conda-forge/r-stringi-feedstock" xlink:title="r stringi">
<ellipse fill="#fde725" stroke="black" cx="978" cy="-90" rx="54.69" ry="18"/>
<text text-anchor="middle" x="978" y="-86.3" font-family="Times,serif" font-size="14.00">r stringi</text>
</a>
</g>
</g>
<!-- r&#45;base&#45;&gt;r&#45;stringi -->
<g id="edge16" class="edge">
<title>r&#45;base&#45;&gt;r&#45;stringi</title>
<path fill="none" stroke="black" d="M986.28,-143.7C985.07,-135.98 983.61,-126.71 982.26,-118.11"/>
<polygon fill="black" stroke="black" points="985.7,-117.44 980.69,-108.1 978.78,-118.53 985.7,-117.44"/>
</g>
<!-- r&#45;v8 -->
<g id="node12" class="node">
<title>r&#45;v8</title>
<g id="a_node12"><a xlink:href="https://github.com/conda-forge/r-v8-feedstock" xlink:title="r v8">
<ellipse fill="#fde725" stroke="black" cx="875" cy="-90" rx="30.59" ry="18"/>
<text text-anchor="middle" x="875" y="-86.3" font-family="Times,serif" font-size="14.00">r v8</text>
</a>
</g>
</g>
<!-- r&#45;base&#45;&gt;r&#45;v8 -->
<g id="edge17" class="edge">
<title>r&#45;base&#45;&gt;r&#45;v8</title>
<path fill="none" stroke="black" d="M966.2,-147C948.37,-136.05 923.44,-120.74 904.15,-108.9"/>
<polygon fill="black" stroke="black" points="905.81,-105.81 895.46,-103.56 902.15,-111.78 905.81,-105.81"/>
</g>
<!-- texlive&#45;core&#45;&gt;conda&#45;forge&#45;pinning -->
<g id="edge18" class="edge">
<title>texlive&#45;core&#45;&gt;conda&#45;forge&#45;pinning</title>
<path fill="none" stroke="black" d="M1309.86,-144.01C1294.02,-123.28 1264.28,-88.92 1230,-72 1186.75,-50.65 1066.02,-35.75 977.32,-27.29"/>
<polygon fill="black" stroke="black" points="977.49,-23.79 967.21,-26.34 976.84,-30.76 977.49,-23.79"/>
</g>
<!-- gtk2&#45;&gt;conda&#45;forge&#45;pinning -->
<g id="edge19" class="edge">
<title>gtk2&#45;&gt;conda&#45;forge&#45;pinning</title>
<path fill="none" stroke="black" d="M811.31,-143.73C812.27,-125.13 815.64,-95.11 827,-72 832.2,-61.42 840.14,-51.4 848.08,-42.98"/>
<polygon fill="black" stroke="black" points="850.73,-45.28 855.29,-35.72 845.76,-40.35 850.73,-45.28"/>
</g>
<!-- gtk2&#45;&gt;qgis -->
<g id="edge20" class="edge">
<title>gtk2&#45;&gt;qgis</title>
<path fill="none" stroke="black" d="M783.47,-153.97C734.03,-141.34 630.15,-114.8 574.35,-100.54"/>
<polygon fill="black" stroke="black" points="575.06,-97.11 564.51,-98.03 573.33,-103.89 575.06,-97.11"/>
</g>
<!-- qgis&#45;&gt;conda&#45;forge&#45;pinning -->
<g id="edge40" class="edge">
<title>qgis&#45;&gt;conda&#45;forge&#45;pinning</title>
<path fill="none" stroke="black" d="M561.49,-78.82C568.07,-76.35 575.24,-73.87 582,-72 648.99,-53.45 726.45,-39.77 784.89,-30.95"/>
<polygon fill="black" stroke="black" points="785.46,-34.41 794.84,-29.47 784.43,-27.48 785.46,-34.41"/>
</g>
<!-- libgd&#45;&gt;conda&#45;forge&#45;pinning -->
<g id="edge30" class="edge">
<title>libgd&#45;&gt;conda&#45;forge&#45;pinning</title>
<path fill="none" stroke="black" d="M381.24,-144.01C387.36,-123.29 400.83,-88.94 426,-72 479.17,-36.21 647.25,-24.51 761.97,-20.74"/>
<polygon fill="black" stroke="black" points="762.32,-24.23 772.21,-20.41 762.1,-17.23 762.32,-24.23"/>
</g>
<!-- tectonic&#45;&gt;conda&#45;forge&#45;pinning -->
<g id="edge39" class="edge">
<title>tectonic&#45;&gt;conda&#45;forge&#45;pinning</title>
<path fill="none" stroke="black" d="M679.87,-143.83C687.51,-123.9 702.71,-91.29 726,-72 746.9,-54.68 773.88,-42.83 799.13,-34.82"/>
<polygon fill="black" stroke="black" points="800.14,-38.17 808.71,-31.93 798.12,-31.47 800.14,-38.17"/>
</g>
<!-- r&#45;stringi&#45;&gt;conda&#45;forge&#45;pinning -->
<g id="edge48" class="edge">
<title>r&#45;stringi&#45;&gt;conda&#45;forge&#45;pinning</title>
<path fill="none" stroke="black" d="M955.14,-73.46C941.37,-64.1 923.59,-52.02 908.27,-41.61"/>
<polygon fill="black" stroke="black" points="909.83,-38.44 899.59,-35.71 905.9,-44.23 909.83,-38.44"/>
</g>
<!-- r&#45;v8&#45;&gt;conda&#45;forge&#45;pinning -->
<g id="edge49" class="edge">
<title>r&#45;v8&#45;&gt;conda&#45;forge&#45;pinning</title>
<path fill="none" stroke="black" d="M875,-71.7C875,-63.98 875,-54.71 875,-46.11"/>
<polygon fill="black" stroke="black" points="878.5,-46.1 875,-36.1 871.5,-46.1 878.5,-46.1"/>
</g>
<!-- fontconfig -->
<g id="node13" class="node">
<title>fontconfig</title>
<g id="a_node13"><a xlink:href="https://github.com/conda-forge/fontconfig-feedstock" xlink:title="fontconfig">
<ellipse fill="#35b779" stroke="black" cx="430" cy="-378" rx="60" ry="18"/>
<text text-anchor="middle" x="430" y="-374.3" font-family="Times,serif" font-size="14.00">fontconfig</text>
</a>
</g>
</g>
<!-- fontconfig&#45;&gt;cairo -->
<g id="edge21" class="edge">
<title>fontconfig&#45;&gt;cairo</title>
<path fill="none" stroke="black" d="M488.91,-374.07C575.07,-368.88 740.1,-355.47 877,-324 880.94,-323.1 885,-321.99 889.02,-320.77"/>
<polygon fill="black" stroke="black" points="890.4,-324 898.83,-317.59 888.24,-317.34 890.4,-324"/>
</g>
<!-- fontconfig&#45;&gt;texlive&#45;core -->
<g id="edge22" class="edge">
<title>fontconfig&#45;&gt;texlive&#45;core</title>
<path fill="none" stroke="black" d="M490.18,-377.1C591.04,-375.96 799.88,-367.88 970,-324 1048.26,-303.81 1063.46,-285.53 1137,-252 1187.53,-228.97 1245.07,-201.01 1282.38,-182.65"/>
<polygon fill="black" stroke="black" points="1283.99,-185.75 1291.41,-178.19 1280.9,-179.48 1283.99,-185.75"/>
</g>
<!-- fontconfig&#45;&gt;gtk2 -->
<g id="edge23" class="edge">
<title>fontconfig&#45;&gt;gtk2</title>
<path fill="none" stroke="black" d="M482.55,-369.24C584.34,-353 802.06,-311.88 844,-252 858.02,-231.98 844.72,-205.29 831.06,-186.38"/>
<polygon fill="black" stroke="black" points="833.71,-184.09 824.85,-178.29 828.16,-188.35 833.71,-184.09"/>
</g>
<!-- fontconfig&#45;&gt;conda&#45;forge&#45;pinning -->
<g id="edge24" class="edge">
<title>fontconfig&#45;&gt;conda&#45;forge&#45;pinning</title>
<path fill="none" stroke="black" d="M375.1,-370.59C259.18,-355.53 0,-313.13 0,-235 0,-235 0,-235 0,-161 0,-105.37 37.42,-95.15 88,-72 147.81,-44.63 561.14,-28.49 763.65,-22.14"/>
<polygon fill="black" stroke="black" points="763.84,-25.64 773.73,-21.83 763.62,-18.64 763.84,-25.64"/>
</g>
<!-- fontconfig&#45;&gt;libgd -->
<g id="edge25" class="edge">
<title>fontconfig&#45;&gt;libgd</title>
<path fill="none" stroke="black" d="M411.75,-360.73C402.26,-351.08 391.51,-338.02 386,-324 368.62,-279.76 370.33,-223.37 373.46,-190.42"/>
<polygon fill="black" stroke="black" points="376.97,-190.51 374.55,-180.19 370.01,-189.76 376.97,-190.51"/>
</g>
<!-- fontconfig&#45;&gt;tectonic -->
<g id="edge29" class="edge">
<title>fontconfig&#45;&gt;tectonic</title>
<path fill="none" stroke="black" d="M481.49,-368.66C542.87,-355.66 642.8,-324.12 688,-252 699.76,-233.24 694.23,-208.01 686.94,-189.21"/>
<polygon fill="black" stroke="black" points="690.06,-187.6 682.93,-179.77 683.62,-190.34 690.06,-187.6"/>
</g>
<!-- octave -->
<g id="node14" class="node">
<title>octave</title>
<g id="a_node14"><a xlink:href="https://github.com/conda-forge/octave-feedstock" xlink:title="octave">
<ellipse fill="#fde725" stroke="black" cx="69" cy="-162" rx="40.5" ry="18"/>
<text text-anchor="middle" x="69" y="-158.3" font-family="Times,serif" font-size="14.00">octave</text>
</a>
</g>
</g>
<!-- fontconfig&#45;&gt;octave -->
<g id="edge26" class="edge">
<title>fontconfig&#45;&gt;octave</title>
<path fill="none" stroke="black" d="M400.22,-362.29C379.7,-351.97 351.93,-337.63 328,-324 243.72,-276 147.43,-214.25 99.48,-183.01"/>
<polygon fill="black" stroke="black" points="101.11,-179.9 90.83,-177.36 97.29,-185.76 101.11,-179.9"/>
</g>
<!-- qt -->
<g id="node15" class="node">
<title>qt</title>
<g id="a_node15"><a xlink:href="https://github.com/conda-forge/qt-feedstock" xlink:title="qt">
<ellipse fill="#fde725" stroke="black" cx="312" cy="-234" rx="27" ry="18"/>
<text text-anchor="middle" x="312" y="-230.3" font-family="Times,serif" font-size="14.00">qt</text>
</a>
</g>
</g>
<!-- fontconfig&#45;&gt;qt -->
<g id="edge27" class="edge">
<title>fontconfig&#45;&gt;qt</title>
<path fill="none" stroke="black" d="M401.16,-362.2C385.33,-352.93 366.27,-339.77 353,-324 337.49,-305.58 326.6,-280.32 319.96,-261.41"/>
<polygon fill="black" stroke="black" points="323.27,-260.29 316.79,-251.91 316.63,-262.51 323.27,-260.29"/>
</g>
<!-- root5 -->
<g id="node16" class="node">
<title>root5</title>
<g id="a_node16"><a xlink:href="https://github.com/conda-forge/root5-feedstock" xlink:title="root5">
<ellipse fill="#fde725" stroke="black" cx="430" cy="-306" rx="35.19" ry="18"/>
<text text-anchor="middle" x="430" y="-302.3" font-family="Times,serif" font-size="14.00">root5</text>
</a>
</g>
</g>
<!-- fontconfig&#45;&gt;root5 -->
<g id="edge28" class="edge">
<title>fontconfig&#45;&gt;root5</title>
<path fill="none" stroke="black" d="M430,-359.7C430,-351.98 430,-342.71 430,-334.11"/>
<polygon fill="black" stroke="black" points="433.5,-334.1 430,-324.1 426.5,-334.1 433.5,-334.1"/>
</g>
<!-- octave&#45;&gt;conda&#45;forge&#45;pinning -->
<g id="edge31" class="edge">
<title>octave&#45;&gt;conda&#45;forge&#45;pinning</title>
<path fill="none" stroke="black" d="M74.12,-144.13C81.45,-123.19 97.11,-88.26 124,-72 177.25,-39.8 566.87,-26.18 762.94,-21.31"/>
<polygon fill="black" stroke="black" points="763.08,-24.81 772.99,-21.07 762.91,-17.81 763.08,-24.81"/>
</g>
<!-- qt&#45;&gt;gdal -->
<g id="edge32" class="edge">
<title>qt&#45;&gt;gdal</title>
<path fill="none" stroke="black" d="M336.08,-225.51C375.69,-213.19 454.79,-188.58 501.05,-174.18"/>
<polygon fill="black" stroke="black" points="502.16,-177.5 510.67,-171.19 500.08,-170.82 502.16,-177.5"/>
</g>
<!-- qt&#45;&gt;conda&#45;forge&#45;pinning -->
<g id="edge33" class="edge">
<title>qt&#45;&gt;conda&#45;forge&#45;pinning</title>
<path fill="none" stroke="black" d="M284.89,-232.65C248.81,-230.55 186.19,-220.83 157,-180 126.76,-137.7 157.54,-98.98 202,-72 248.72,-43.65 584.57,-28.48 763.47,-22.33"/>
<polygon fill="black" stroke="black" points="763.83,-25.82 773.71,-21.98 763.59,-18.82 763.83,-25.82"/>
</g>
<!-- qt&#45;&gt;qgis -->
<g id="edge36" class="edge">
<title>qt&#45;&gt;qgis</title>
<path fill="none" stroke="black" d="M311.13,-215.8C311.1,-195.83 314.24,-163.18 333,-144 355.66,-120.82 444.68,-104.34 497.34,-96.39"/>
<polygon fill="black" stroke="black" points="497.98,-99.83 507.36,-94.91 496.96,-92.91 497.98,-99.83"/>
</g>
<!-- qt&#45;&gt;libgd -->
<g id="edge34" class="edge">
<title>qt&#45;&gt;libgd</title>
<path fill="none" stroke="black" d="M325.78,-218.15C334.34,-208.94 345.51,-196.91 355.24,-186.43"/>
<polygon fill="black" stroke="black" points="358.09,-188.51 362.33,-178.8 352.96,-183.74 358.09,-188.51"/>
</g>
<!-- qt&#45;&gt;octave -->
<g id="edge35" class="edge">
<title>qt&#45;&gt;octave</title>
<path fill="none" stroke="black" d="M287.31,-226.25C251.32,-216.36 182.38,-197.25 124,-180 119.73,-178.74 115.29,-177.4 110.85,-176.06"/>
<polygon fill="black" stroke="black" points="111.83,-172.69 101.24,-173.11 109.78,-179.39 111.83,-172.69"/>
</g>
<!-- matplotlib -->
<g id="node17" class="node">
<title>matplotlib</title>
<g id="a_node17"><a xlink:href="https://github.com/conda-forge/matplotlib-feedstock" xlink:title="matplotlib">
<ellipse fill="#fde725" stroke="black" cx="226" cy="-162" rx="60" ry="18"/>
<text text-anchor="middle" x="226" y="-158.3" font-family="Times,serif" font-size="14.00">matplotlib</text>
</a>
</g>
</g>
<!-- qt&#45;&gt;matplotlib -->
<g id="edge37" class="edge">
<title>qt&#45;&gt;matplotlib</title>
<path fill="none" stroke="black" d="M295.42,-219.5C283.59,-209.87 267.4,-196.69 253.63,-185.49"/>
<polygon fill="black" stroke="black" points="255.82,-182.76 245.85,-179.16 251.4,-188.19 255.82,-182.76"/>
</g>
<!-- root5&#45;&gt;conda&#45;forge&#45;pinning -->
<g id="edge38" class="edge">
<title>root5&#45;&gt;conda&#45;forge&#45;pinning</title>
<path fill="none" stroke="black" d="M426.78,-287.96C419.56,-243.86 407.48,-125.74 473,-72 516,-36.73 659.03,-24.81 762.25,-20.85"/>
<polygon fill="black" stroke="black" points="762.56,-24.34 772.43,-20.48 762.31,-17.35 762.56,-24.34"/>
</g>
<!-- matplotlib&#45;&gt;conda&#45;forge&#45;pinning -->
<g id="edge44" class="edge">
<title>matplotlib&#45;&gt;conda&#45;forge&#45;pinning</title>
<path fill="none" stroke="black" d="M248.81,-145.18C279.87,-124.53 337.91,-89.02 393,-72 515.28,-34.23 662.32,-22.63 761.58,-19.43"/>
<polygon fill="black" stroke="black" points="761.74,-22.93 771.63,-19.13 761.53,-15.93 761.74,-22.93"/>
</g>
<!-- alps -->
<g id="node20" class="node">
<title>alps</title>
<g id="a_node20"><a xlink:href="https://github.com/conda-forge/alps-feedstock" xlink:title="alps">
<ellipse fill="#fde725" stroke="black" cx="242" cy="-90" rx="30.59" ry="18"/>
<text text-anchor="middle" x="242" y="-86.3" font-family="Times,serif" font-size="14.00">alps</text>
</a>
</g>
</g>
<!-- matplotlib&#45;&gt;alps -->
<g id="edge45" class="edge">
<title>matplotlib&#45;&gt;alps</title>
<path fill="none" stroke="black" d="M229.96,-143.7C231.72,-135.98 233.84,-126.71 235.8,-118.11"/>
<polygon fill="black" stroke="black" points="239.27,-118.63 238.09,-108.1 232.45,-117.07 239.27,-118.63"/>
</g>
<!-- igraph -->
<g id="node18" class="node">
<title>igraph</title>
<g id="a_node18"><a xlink:href="https://github.com/conda-forge/igraph-feedstock" xlink:title="igraph">
<ellipse fill="#35b779" stroke="black" cx="1130" cy="-90" rx="40.5" ry="18"/>
<text text-anchor="middle" x="1130" y="-86.3" font-family="Times,serif" font-size="14.00">igraph</text>
</a>
</g>
</g>
<!-- igraph&#45;&gt;conda&#45;forge&#45;pinning -->
<g id="edge41" class="edge">
<title>igraph&#45;&gt;conda&#45;forge&#45;pinning</title>
<path fill="none" stroke="black" d="M1098.07,-78.89C1090.53,-76.57 1082.49,-74.15 1075,-72 1030.63,-59.27 980.4,-45.96 941.38,-35.87"/>
<polygon fill="black" stroke="black" points="941.76,-32.35 931.2,-33.24 940.01,-39.13 941.76,-32.35"/>
</g>
<!-- libxslt -->
<g id="node19" class="node">
<title>libxslt</title>
<g id="a_node19"><a xlink:href="https://github.com/conda-forge/libxslt-feedstock" xlink:title="libxslt">
<ellipse fill="#35b779" stroke="black" cx="478" cy="-234" rx="45" ry="18"/>
<text text-anchor="middle" x="478" y="-230.3" font-family="Times,serif" font-size="14.00">libxslt</text>
</a>
</g>
</g>
<!-- libxslt&#45;&gt;gdal -->
<g id="edge42" class="edge">
<title>libxslt&#45;&gt;gdal</title>
<path fill="none" stroke="black" d="M491.68,-216.76C499.24,-207.8 508.75,-196.51 517.11,-186.59"/>
<polygon fill="black" stroke="black" points="520.03,-188.57 523.8,-178.67 514.68,-184.06 520.03,-188.57"/>
</g>
<!-- libxslt&#45;&gt;conda&#45;forge&#45;pinning -->
<g id="edge43" class="edge">
<title>libxslt&#45;&gt;conda&#45;forge&#45;pinning</title>
<path fill="none" stroke="black" d="M474.03,-215.86C467.55,-182.99 458.91,-110.93 497,-72 532.92,-35.29 663.94,-23.6 761.71,-20.1"/>
<polygon fill="black" stroke="black" points="762.08,-23.59 771.96,-19.75 761.85,-16.59 762.08,-23.59"/>
</g>
<!-- alps&#45;&gt;conda&#45;forge&#45;pinning -->
<g id="edge46" class="edge">
<title>alps&#45;&gt;conda&#45;forge&#45;pinning</title>
<path fill="none" stroke="black" d="M268.32,-80.69C279.25,-77.52 292.14,-74.16 304,-72 462.78,-43.09 649.43,-29.54 764.99,-23.49"/>
<polygon fill="black" stroke="black" points="765.45,-26.97 775.26,-22.97 765.09,-19.98 765.45,-26.97"/>
</g>
<!-- python&#45;igraph -->
<g id="node21" class="node">
<title>python&#45;igraph</title>
<g id="a_node21"><a xlink:href="https://github.com/conda-forge/python-igraph-feedstock" xlink:title="python igraph">
<ellipse fill="#35b779" stroke="black" cx="1160" cy="-162" rx="74.19" ry="18"/>
<text text-anchor="middle" x="1160" y="-158.3" font-family="Times,serif" font-size="14.00">python igraph</text>
</a>
</g>
</g>
<!-- python&#45;igraph&#45;&gt;conda&#45;forge&#45;pinning -->
<g id="edge47" class="edge">
<title>python&#45;igraph&#45;&gt;conda&#45;forge&#45;pinning</title>
<path fill="none" stroke="black" d="M1181.84,-144.48C1204.02,-125.74 1232.52,-94.82 1213,-72 1184.22,-38.35 1074.31,-25.92 987.54,-21.4"/>
<polygon fill="black" stroke="black" points="987.51,-17.9 977.35,-20.9 987.16,-24.89 987.51,-17.9"/>
</g>
<!-- uwsgi -->
<g id="node22" class="node">
<title>uwsgi</title>
<g id="a_node22"><a xlink:href="https://github.com/conda-forge/uwsgi-feedstock" xlink:title="uwsgi">
<ellipse fill="#35b779" stroke="black" cx="1395" cy="-234" rx="35.19" ry="18"/>
<text text-anchor="middle" x="1395" y="-230.3" font-family="Times,serif" font-size="14.00">uwsgi</text>
</a>
</g>
</g>
<!-- uwsgi&#45;&gt;conda&#45;forge&#45;pinning -->
<g id="edge50" class="edge">
<title>uwsgi&#45;&gt;conda&#45;forge&#45;pinning</title>
<path fill="none" stroke="black" d="M1401.48,-216.26C1407.67,-197.31 1414.27,-166.2 1401,-144 1366.31,-85.97 1331.31,-92.86 1267,-72 1174.76,-42.07 1065,-29.04 985.13,-23.36"/>
<polygon fill="black" stroke="black" points="985.26,-19.86 975.04,-22.67 984.78,-26.85 985.26,-19.86"/>
</g>
<!-- xerces&#45;c -->
<g id="node23" class="node">
<title>xerces&#45;c</title>
<g id="a_node23"><a xlink:href="https://github.com/conda-forge/xerces-c-feedstock/pull/25" xlink:title="xerces c">
<ellipse fill="#31688e" stroke="black" cx="629" cy="-234" rx="50.09" ry="18"/>
<text text-anchor="middle" x="629" y="-230.3" font-family="Times,serif" font-size="14.00" fill="white">xerces c</text>
</a>
</g>
</g>
<!-- xerces&#45;c&#45;&gt;gdal -->
<g id="edge51" class="edge">
<title>xerces&#45;c&#45;&gt;gdal</title>
<path fill="none" stroke="black" d="M608.58,-217.46C595.13,-207.23 577.4,-193.74 562.95,-182.74"/>
<polygon fill="black" stroke="black" points="564.95,-179.87 554.87,-176.6 560.71,-185.44 564.95,-179.87"/>
</g>
<!-- xerces&#45;c&#45;&gt;conda&#45;forge&#45;pinning -->
<g id="edge52" class="edge">
<title>xerces&#45;c&#45;&gt;conda&#45;forge&#45;pinning</title>
<path fill="none" stroke="black" d="M621,-216.21C613.4,-197.76 604.57,-167.61 615,-144 634.19,-100.54 652.59,-95.27 694,-72 725.3,-54.41 763,-42.17 795.87,-33.91"/>
<polygon fill="black" stroke="black" points="797.01,-37.24 805.9,-31.48 795.36,-30.44 797.01,-37.24"/>
</g>
<!-- pyicu -->
<g id="node24" class="node">
<title>pyicu</title>
<g id="a_node24"><a xlink:href="https://github.com/conda-forge/pyicu-feedstock/pull/16" xlink:title="pyicu">
<ellipse fill="#31688e" stroke="black" cx="1433" cy="-306" rx="35.19" ry="18"/>
<text text-anchor="middle" x="1433" y="-302.3" font-family="Times,serif" font-size="14.00" fill="white">pyicu</text>
</a>
</g>
</g>
<!-- pyicu&#45;&gt;conda&#45;forge&#45;pinning -->
<g id="edge53" class="edge">
<title>pyicu&#45;&gt;conda&#45;forge&#45;pinning</title>
<path fill="none" stroke="black" d="M1436.27,-287.86C1439.2,-269.88 1442.55,-240.84 1439,-216 1427.72,-137.07 1405.24,-103.51 1332,-72 1271.33,-45.9 1098.32,-31.4 983.44,-24.41"/>
<polygon fill="black" stroke="black" points="983.39,-20.9 973.2,-23.8 982.97,-27.89 983.39,-20.9"/>
</g>
<!-- mdsplus -->
<g id="node25" class="node">
<title>mdsplus</title>
<g id="a_node25"><a xlink:href="https://github.com/conda-forge/mdsplus-feedstock" xlink:title="mdsplus">
<ellipse fill="#35b779" stroke="black" cx="1496" cy="-378" rx="45" ry="18"/>
<text text-anchor="middle" x="1496" y="-374.3" font-family="Times,serif" font-size="14.00">mdsplus</text>
</a>
</g>
</g>
<!-- mdsplus&#45;&gt;conda&#45;forge&#45;pinning -->
<g id="edge54" class="edge">
<title>mdsplus&#45;&gt;conda&#45;forge&#45;pinning</title>
<path fill="none" stroke="black" d="M1496,-359.95C1496,-333.29 1496,-280.11 1496,-235 1496,-235 1496,-235 1496,-161 1496,-57.8 1165.96,-29.6 987.09,-21.9"/>
<polygon fill="black" stroke="black" points="986.99,-18.39 976.85,-21.47 986.7,-25.38 986.99,-18.39"/>
</g>
<!-- ticcutils -->
<g id="node26" class="node">
<title>ticcutils</title>
<g id="a_node26"><a xlink:href="https://github.com/conda-forge/ticcutils-feedstock" xlink:title="ticcutils">
<ellipse fill="#35b779" stroke="black" cx="1579" cy="-90" rx="54.69" ry="18"/>
<text text-anchor="middle" x="1579" y="-86.3" font-family="Times,serif" font-size="14.00">ticcutils</text>
</a>
</g>
</g>
<!-- ticcutils&#45;&gt;conda&#45;forge&#45;pinning -->
<g id="edge55" class="edge">
<title>ticcutils&#45;&gt;conda&#45;forge&#45;pinning</title>
<path fill="none" stroke="black" d="M1538.36,-77.85C1529.09,-75.63 1519.25,-73.52 1510,-72 1327.58,-42.11 1112.75,-28.66 985.55,-22.92"/>
<polygon fill="black" stroke="black" points="985.55,-19.42 975.41,-22.47 985.24,-26.41 985.55,-19.42"/>
</g>
<!-- scilab -->
<g id="node27" class="node">
<title>scilab</title>
<g id="a_node27"><a xlink:href="https://github.com/conda-forge/scilab-feedstock" xlink:title="scilab">
<ellipse fill="#35b779" stroke="black" cx="1631" cy="-162" rx="40.5" ry="18"/>
<text text-anchor="middle" x="1631" y="-158.3" font-family="Times,serif" font-size="14.00">scilab</text>
</a>
</g>
</g>
<!-- scilab&#45;&gt;conda&#45;forge&#45;pinning -->
<g id="edge56" class="edge">
<title>scilab&#45;&gt;conda&#45;forge&#45;pinning</title>
<path fill="none" stroke="black" d="M1640.28,-144.18C1649.86,-124.27 1661.09,-91.38 1643,-72 1599.37,-25.25 1191.7,-18.78 988.71,-18.49"/>
<polygon fill="black" stroke="black" points="988.62,-14.99 978.61,-18.48 988.61,-21.99 988.62,-14.99"/>
</g>
<!-- ifcopenshell -->
<g id="node28" class="node">
<title>ifcopenshell</title>
<g id="a_node28"><a xlink:href="https://github.com/conda-forge/ifcopenshell-feedstock" xlink:title="ifcopenshell">
<ellipse fill="#35b779" stroke="black" cx="1640" cy="-234" rx="69.59" ry="18"/>
<text text-anchor="middle" x="1640" y="-230.3" font-family="Times,serif" font-size="14.00">ifcopenshell</text>
</a>
</g>
</g>
<!-- ifcopenshell&#45;&gt;conda&#45;forge&#45;pinning -->
<g id="edge57" class="edge">
<title>ifcopenshell&#45;&gt;conda&#45;forge&#45;pinning</title>
<path fill="none" stroke="black" d="M1657.74,-216.15C1666.57,-206.51 1676.34,-193.65 1681,-180 1696.78,-133.81 1698.85,-102.83 1661,-72 1610.13,-30.56 1193.92,-21.47 988.64,-19.51"/>
<polygon fill="black" stroke="black" points="988.45,-16.01 978.42,-19.42 988.39,-23.01 988.45,-16.01"/>
</g>
<!-- libical -->
<g id="node29" class="node">
<title>libical</title>
<g id="a_node29"><a xlink:href="https://github.com/conda-forge/libical-feedstock" xlink:title="libical">
<ellipse fill="#35b779" stroke="black" cx="1720" cy="-306" rx="45" ry="18"/>
<text text-anchor="middle" x="1720" y="-302.3" font-family="Times,serif" font-size="14.00">libical</text>
</a>
</g>
</g>
<!-- libical&#45;&gt;conda&#45;forge&#45;pinning -->
<g id="edge58" class="edge">
<title>libical&#45;&gt;conda&#45;forge&#45;pinning</title>
<path fill="none" stroke="black" d="M1724.17,-287.78C1733.68,-243.77 1751.53,-126.82 1688,-72 1636.31,-27.39 1200.08,-19.92 988.8,-18.95"/>
<polygon fill="black" stroke="black" points="988.62,-15.45 978.6,-18.9 988.59,-22.45 988.62,-15.45"/>
</g>
<!-- libv8 -->
<g id="node30" class="node">
<title>libv8</title>
<g id="a_node30"><a xlink:href="https://github.com/conda-forge/libv8-feedstock/pull/12" xlink:title="libv8">
<ellipse fill="#31688e" stroke="black" cx="895" cy="-162" rx="35.19" ry="18"/>
<text text-anchor="middle" x="895" y="-158.3" font-family="Times,serif" font-size="14.00" fill="white">libv8</text>
</a>
</g>
</g>
<!-- libv8&#45;&gt;conda&#45;forge&#45;pinning -->
<g id="edge59" class="edge">
<title>libv8&#45;&gt;conda&#45;forge&#45;pinning</title>
<path fill="none" stroke="black" d="M872.32,-147.93C858.74,-138.7 842.66,-124.98 835,-108 828.42,-93.41 829.92,-87.17 835,-72 838.41,-61.83 844.62,-52.06 851.14,-43.73"/>
<polygon fill="black" stroke="black" points="853.94,-45.84 857.68,-35.93 848.58,-41.35 853.94,-45.84"/>
</g>
<!-- libv8&#45;&gt;r&#45;v8 -->
<g id="edge60" class="edge">
<title>libv8&#45;&gt;r&#45;v8</title>
<path fill="none" stroke="black" d="M890.16,-144.05C887.9,-136.14 885.15,-126.54 882.63,-117.69"/>
<polygon fill="black" stroke="black" points="885.91,-116.44 879.8,-107.79 879.18,-118.37 885.91,-116.44"/>
</g>
<!-- odil -->
<g id="node31" class="node">
<title>odil</title>
<g id="a_node31"><a xlink:href="https://github.com/conda-forge/odil-feedstock" xlink:title="odil">
<ellipse fill="#35b779" stroke="black" cx="1793" cy="-378" rx="30.59" ry="18"/>
<text text-anchor="middle" x="1793" y="-374.3" font-family="Times,serif" font-size="14.00">odil</text>
</a>
</g>
</g>
<!-- odil&#45;&gt;conda&#45;forge&#45;pinning -->
<g id="edge61" class="edge">
<title>odil&#45;&gt;conda&#45;forge&#45;pinning</title>
<path fill="none" stroke="black" d="M1793,-359.95C1793,-333.29 1793,-280.11 1793,-235 1793,-235 1793,-235 1793,-161 1793,-108.4 1762.2,-95.21 1715,-72 1651.35,-40.7 1201.02,-26.39 987.2,-21.3"/>
<polygon fill="black" stroke="black" points="987.28,-17.8 977.2,-21.07 987.11,-24.8 987.28,-17.8"/>
</g>
<!-- nbin -->
<g id="node32" class="node">
<title>nbin</title>
<g id="a_node32"><a xlink:href="https://github.com/conda-forge/nbin-feedstock/pull/1" xlink:title="nbin">
<ellipse fill="#31688e" stroke="black" cx="1852" cy="-90" rx="30.59" ry="18"/>
<text text-anchor="middle" x="1852" y="-86.3" font-family="Times,serif" font-size="14.00" fill="white">nbin</text>
</a>
</g>
</g>
<!-- nbin&#45;&gt;conda&#45;forge&#45;pinning -->
<g id="edge62" class="edge">
<title>nbin&#45;&gt;conda&#45;forge&#45;pinning</title>
<path fill="none" stroke="black" d="M1828.12,-78.44C1821.41,-75.9 1814.03,-73.49 1807,-72 1653.74,-39.49 1200.41,-25.86 987.65,-21.13"/>
<polygon fill="black" stroke="black" points="987.47,-17.62 977.39,-20.9 987.31,-24.62 987.47,-17.62"/>
</g>
</g>
</svg>
