<?xml version="1.0" encoding="UTF-8" standalone="no"?>
<!DOCTYPE svg PUBLIC "-//W3C//DTD SVG 1.1//EN"
 "http://www.w3.org/Graphics/SVG/1.1/DTD/svg11.dtd">
<!-- Generated by graphviz version 2.42.3 (20191010.1750)
 -->
<!-- Title: %3 Pages: 1 -->
<svg width="1817pt" height="404pt"
 viewBox="0.00 0.00 1817.05 404.00" xmlns="http://www.w3.org/2000/svg" xmlns:xlink="http://www.w3.org/1999/xlink">
<g id="graph0" class="graph" transform="scale(1 1) rotate(0) translate(4 400)">
<title>%3</title>
<polygon fill="white" stroke="transparent" points="-4,4 -4,-400 1813.05,-400 1813.05,4 -4,4"/>
<!-- cairo -->
<g id="node1" class="node">
<title>cairo</title>
<g id="a_node1"><a xlink:href="https://github.com/conda-forge/cairo-feedstock" xlink:title="cairo">
<ellipse fill="#fde725" stroke="black" cx="753.5" cy="-306" rx="35.19" ry="18"/>
<text text-anchor="middle" x="753.5" y="-302.3" font-family="Times,serif" font-size="14.00">cairo</text>
</a>
</g>
</g>
<!-- gdal -->
<g id="node2" class="node">
<title>gdal</title>
<g id="a_node2"><a xlink:href="https://github.com/conda-forge/gdal-feedstock" xlink:title="gdal">
<ellipse fill="#fde725" stroke="black" cx="664.5" cy="-162" rx="30.59" ry="18"/>
<text text-anchor="middle" x="664.5" y="-158.3" font-family="Times,serif" font-size="14.00">gdal</text>
</a>
</g>
</g>
<!-- cairo&#45;&gt;gdal -->
<g id="edge1" class="edge">
<title>cairo&#45;&gt;gdal</title>
<path fill="none" stroke="black" d="M743.29,-288.71C727.8,-263.99 698.24,-216.83 680.06,-187.83"/>
<polygon fill="black" stroke="black" points="682.87,-185.71 674.59,-179.1 676.94,-189.43 682.87,-185.71"/>
</g>
<!-- harfbuzz -->
<g id="node3" class="node">
<title>harfbuzz</title>
<g id="a_node3"><a xlink:href="https://github.com/conda-forge/harfbuzz-feedstock" xlink:title="harfbuzz">
<ellipse fill="#fde725" stroke="black" cx="599.5" cy="-234" rx="50.09" ry="18"/>
<text text-anchor="middle" x="599.5" y="-230.3" font-family="Times,serif" font-size="14.00">harfbuzz</text>
</a>
</g>
</g>
<!-- cairo&#45;&gt;harfbuzz -->
<g id="edge2" class="edge">
<title>cairo&#45;&gt;harfbuzz</title>
<path fill="none" stroke="black" d="M728.07,-293.44C703.66,-282.35 666.46,-265.44 638.34,-252.66"/>
<polygon fill="black" stroke="black" points="639.74,-249.45 629.19,-248.49 636.84,-255.82 639.74,-249.45"/>
</g>
<!-- r&#45;base -->
<g id="node4" class="node">
<title>r&#45;base</title>
<g id="a_node4"><a xlink:href="https://github.com/conda-forge/r-base-feedstock" xlink:title="r base">
<ellipse fill="#fde725" stroke="black" cx="1078.5" cy="-162" rx="40.5" ry="18"/>
<text text-anchor="middle" x="1078.5" y="-158.3" font-family="Times,serif" font-size="14.00">r base</text>
</a>
</g>
</g>
<!-- cairo&#45;&gt;r&#45;base -->
<g id="edge3" class="edge">
<title>cairo&#45;&gt;r&#45;base</title>
<path fill="none" stroke="black" d="M779.27,-293.74C836.51,-268.73 974.42,-208.47 1041.12,-179.33"/>
<polygon fill="black" stroke="black" points="1042.67,-182.48 1050.43,-175.26 1039.87,-176.06 1042.67,-182.48"/>
</g>
<!-- texlive&#45;core -->
<g id="node5" class="node">
<title>texlive&#45;core</title>
<g id="a_node5"><a xlink:href="https://github.com/conda-forge/texlive-core-feedstock" xlink:title="texlive core">
<ellipse fill="#fde725" stroke="black" cx="861.5" cy="-162" rx="69.59" ry="18"/>
<text text-anchor="middle" x="861.5" y="-158.3" font-family="Times,serif" font-size="14.00">texlive core</text>
</a>
</g>
</g>
<!-- cairo&#45;&gt;texlive&#45;core -->
<g id="edge4" class="edge">
<title>cairo&#45;&gt;texlive&#45;core</title>
<path fill="none" stroke="black" d="M764.2,-288.55C776.17,-270.4 796.41,-240.51 815.5,-216 822.95,-206.43 831.56,-196.29 839.3,-187.47"/>
<polygon fill="black" stroke="black" points="842.09,-189.6 846.11,-179.8 836.86,-184.96 842.09,-189.6"/>
</g>
<!-- gtk2 -->
<g id="node6" class="node">
<title>gtk2</title>
<g id="a_node6"><a xlink:href="https://github.com/conda-forge/gtk2-feedstock" xlink:title="gtk2">
<ellipse fill="#fde725" stroke="black" cx="743.5" cy="-162" rx="30.59" ry="18"/>
<text text-anchor="middle" x="743.5" y="-158.3" font-family="Times,serif" font-size="14.00">gtk2</text>
</a>
</g>
</g>
<!-- cairo&#45;&gt;gtk2 -->
<g id="edge5" class="edge">
<title>cairo&#45;&gt;gtk2</title>
<path fill="none" stroke="black" d="M752.29,-287.87C750.59,-263.67 747.46,-219.21 745.43,-190.39"/>
<polygon fill="black" stroke="black" points="748.9,-189.92 744.71,-180.19 741.92,-190.41 748.9,-189.92"/>
</g>
<!-- conda&#45;forge&#45;pinning -->
<g id="node7" class="node">
<title>conda&#45;forge&#45;pinning</title>
<ellipse fill="none" stroke="black" cx="896.5" cy="-18" rx="103.5" ry="18"/>
<text text-anchor="middle" x="896.5" y="-14.3" font-family="Times,serif" font-size="14.00">conda&#45;forge&#45;pinning</text>
</g>
<!-- cairo&#45;&gt;conda&#45;forge&#45;pinning -->
<g id="edge6" class="edge">
<title>cairo&#45;&gt;conda&#45;forge&#45;pinning</title>
<path fill="none" stroke="black" d="M788.39,-303.8C880.79,-298.4 1128.28,-268.92 1179.5,-108 1184.35,-92.75 1189.72,-84.31 1179.5,-72 1157.1,-45.01 1074.2,-31.68 1003.87,-25.15"/>
<polygon fill="black" stroke="black" points="1003.87,-21.64 993.59,-24.24 1003.24,-28.61 1003.87,-21.64"/>
</g>
<!-- gdal&#45;&gt;conda&#45;forge&#45;pinning -->
<g id="edge7" class="edge">
<title>gdal&#45;&gt;conda&#45;forge&#45;pinning</title>
<path fill="none" stroke="black" d="M680.76,-146.43C702.26,-127.63 741.87,-94.66 779.5,-72 800.54,-59.33 825.13,-47.75 846.32,-38.67"/>
<polygon fill="black" stroke="black" points="847.94,-41.79 855.8,-34.68 845.22,-35.34 847.94,-41.79"/>
</g>
<!-- qgis -->
<g id="node8" class="node">
<title>qgis</title>
<g id="a_node8"><a xlink:href="https://github.com/conda-forge/qgis-feedstock" xlink:title="qgis">
<ellipse fill="#fde725" stroke="black" cx="664.5" cy="-90" rx="30.59" ry="18"/>
<text text-anchor="middle" x="664.5" y="-86.3" font-family="Times,serif" font-size="14.00">qgis</text>
</a>
</g>
</g>
<!-- gdal&#45;&gt;qgis -->
<g id="edge8" class="edge">
<title>gdal&#45;&gt;qgis</title>
<path fill="none" stroke="black" d="M664.5,-143.7C664.5,-135.98 664.5,-126.71 664.5,-118.11"/>
<polygon fill="black" stroke="black" points="668,-118.1 664.5,-108.1 661,-118.1 668,-118.1"/>
</g>
<!-- harfbuzz&#45;&gt;gdal -->
<g id="edge9" class="edge">
<title>harfbuzz&#45;&gt;gdal</title>
<path fill="none" stroke="black" d="M614.58,-216.76C623.18,-207.5 634.1,-195.73 643.54,-185.58"/>
<polygon fill="black" stroke="black" points="646.16,-187.9 650.4,-178.19 641.03,-183.14 646.16,-187.9"/>
</g>
<!-- harfbuzz&#45;&gt;texlive&#45;core -->
<g id="edge10" class="edge">
<title>harfbuzz&#45;&gt;texlive&#45;core</title>
<path fill="none" stroke="black" d="M638.44,-222.6C682.54,-210.81 754.79,-191.51 805.07,-178.08"/>
<polygon fill="black" stroke="black" points="806.06,-181.44 814.81,-175.47 804.25,-174.67 806.06,-181.44"/>
</g>
<!-- harfbuzz&#45;&gt;gtk2 -->
<g id="edge11" class="edge">
<title>harfbuzz&#45;&gt;gtk2</title>
<path fill="none" stroke="black" d="M627.95,-219.17C652.08,-207.44 686.66,-190.63 711.7,-178.46"/>
<polygon fill="black" stroke="black" points="713.32,-181.56 720.79,-174.04 710.26,-175.27 713.32,-181.56"/>
</g>
<!-- harfbuzz&#45;&gt;conda&#45;forge&#45;pinning -->
<g id="edge12" class="edge">
<title>harfbuzz&#45;&gt;conda&#45;forge&#45;pinning</title>
<path fill="none" stroke="black" d="M596.46,-215.95C591.69,-183.24 586.55,-111.44 624.5,-72 647.74,-47.85 726.27,-34.28 793.02,-26.94"/>
<polygon fill="black" stroke="black" points="793.62,-30.4 803.19,-25.86 792.88,-23.44 793.62,-30.4"/>
</g>
<!-- libgd -->
<g id="node9" class="node">
<title>libgd</title>
<g id="a_node9"><a xlink:href="https://github.com/conda-forge/libgd-feedstock" xlink:title="libgd">
<ellipse fill="#fde725" stroke="black" cx="424.5" cy="-162" rx="35.19" ry="18"/>
<text text-anchor="middle" x="424.5" y="-158.3" font-family="Times,serif" font-size="14.00">libgd</text>
</a>
</g>
</g>
<!-- harfbuzz&#45;&gt;libgd -->
<g id="edge13" class="edge">
<title>harfbuzz&#45;&gt;libgd</title>
<path fill="none" stroke="black" d="M567.4,-220.16C537.18,-208.07 491.97,-189.99 460.52,-177.41"/>
<polygon fill="black" stroke="black" points="461.82,-174.16 451.24,-173.7 459.22,-180.66 461.82,-174.16"/>
</g>
<!-- tectonic -->
<g id="node10" class="node">
<title>tectonic</title>
<g id="a_node10"><a xlink:href="https://github.com/conda-forge/tectonic-feedstock" xlink:title="tectonic">
<ellipse fill="#fde725" stroke="black" cx="527.5" cy="-162" rx="50.09" ry="18"/>
<text text-anchor="middle" x="527.5" y="-158.3" font-family="Times,serif" font-size="14.00">tectonic</text>
</a>
</g>
</g>
<!-- harfbuzz&#45;&gt;tectonic -->
<g id="edge14" class="edge">
<title>harfbuzz&#45;&gt;tectonic</title>
<path fill="none" stroke="black" d="M582.8,-216.76C573.44,-207.66 561.61,-196.16 551.29,-186.13"/>
<polygon fill="black" stroke="black" points="553.72,-183.61 544.11,-179.15 548.84,-188.63 553.72,-183.61"/>
</g>
<!-- r&#45;base&#45;&gt;conda&#45;forge&#45;pinning -->
<g id="edge15" class="edge">
<title>r&#45;base&#45;&gt;conda&#45;forge&#45;pinning</title>
<path fill="none" stroke="black" d="M1109.52,-150.33C1128.51,-142.01 1151.26,-128.38 1162.5,-108 1170.23,-93.99 1172.65,-84.37 1162.5,-72 1141.9,-46.9 1066.29,-33.46 1000.92,-26.4"/>
<polygon fill="black" stroke="black" points="1001.26,-22.92 990.95,-25.37 1000.53,-29.88 1001.26,-22.92"/>
</g>
<!-- r&#45;stringi -->
<g id="node11" class="node">
<title>r&#45;stringi</title>
<g id="a_node11"><a xlink:href="https://github.com/conda-forge/r-stringi-feedstock" xlink:title="r stringi">
<ellipse fill="#fde725" stroke="black" cx="999.5" cy="-90" rx="54.69" ry="18"/>
<text text-anchor="middle" x="999.5" y="-86.3" font-family="Times,serif" font-size="14.00">r stringi</text>
</a>
</g>
</g>
<!-- r&#45;base&#45;&gt;r&#45;stringi -->
<g id="edge16" class="edge">
<title>r&#45;base&#45;&gt;r&#45;stringi</title>
<path fill="none" stroke="black" d="M1060.97,-145.46C1050.55,-136.24 1037.15,-124.36 1025.52,-114.05"/>
<polygon fill="black" stroke="black" points="1027.61,-111.23 1017.81,-107.22 1022.97,-116.47 1027.61,-111.23"/>
</g>
<!-- r&#45;v8 -->
<g id="node12" class="node">
<title>r&#45;v8</title>
<g id="a_node12"><a xlink:href="https://github.com/conda-forge/r-v8-feedstock" xlink:title="r v8">
<ellipse fill="#fde725" stroke="black" cx="896.5" cy="-90" rx="30.59" ry="18"/>
<text text-anchor="middle" x="896.5" y="-86.3" font-family="Times,serif" font-size="14.00">r v8</text>
</a>
</g>
</g>
<!-- r&#45;base&#45;&gt;r&#45;v8 -->
<g id="edge17" class="edge">
<title>r&#45;base&#45;&gt;r&#45;v8</title>
<path fill="none" stroke="black" d="M1047.62,-150.12C1018.53,-139.74 973.81,-123.44 935.5,-108 933.65,-107.25 931.76,-106.48 929.85,-105.68"/>
<polygon fill="black" stroke="black" points="930.91,-102.33 920.34,-101.64 928.17,-108.77 930.91,-102.33"/>
</g>
<!-- texlive&#45;core&#45;&gt;conda&#45;forge&#45;pinning -->
<g id="edge18" class="edge">
<title>texlive&#45;core&#45;&gt;conda&#45;forge&#45;pinning</title>
<path fill="none" stroke="black" d="M845.46,-144.29C830.1,-126.17 810.99,-96.55 823.5,-72 830.02,-59.2 841.25,-48.77 852.96,-40.65"/>
<polygon fill="black" stroke="black" points="855,-43.5 861.52,-35.15 851.22,-37.61 855,-43.5"/>
</g>
<!-- gtk2&#45;&gt;conda&#45;forge&#45;pinning -->
<g id="edge19" class="edge">
<title>gtk2&#45;&gt;conda&#45;forge&#45;pinning</title>
<path fill="none" stroke="black" d="M754.16,-144.95C767.19,-126.1 790.58,-94.52 815.5,-72 828.4,-60.33 844.12,-49.44 858.26,-40.59"/>
<polygon fill="black" stroke="black" points="860.11,-43.56 866.82,-35.37 856.46,-37.59 860.11,-43.56"/>
</g>
<!-- gtk2&#45;&gt;qgis -->
<g id="edge20" class="edge">
<title>gtk2&#45;&gt;qgis</title>
<path fill="none" stroke="black" d="M727.13,-146.5C716.01,-136.64 701.11,-123.44 688.63,-112.38"/>
<polygon fill="black" stroke="black" points="690.65,-109.5 680.85,-105.49 686.01,-114.74 690.65,-109.5"/>
</g>
<!-- qgis&#45;&gt;conda&#45;forge&#45;pinning -->
<g id="edge40" class="edge">
<title>qgis&#45;&gt;conda&#45;forge&#45;pinning</title>
<path fill="none" stroke="black" d="M689.12,-79.27C695.7,-76.78 702.84,-74.2 709.5,-72 749.63,-58.76 795.24,-45.79 831.38,-36"/>
<polygon fill="black" stroke="black" points="832.56,-39.3 841.3,-33.32 830.74,-32.54 832.56,-39.3"/>
</g>
<!-- libgd&#45;&gt;conda&#45;forge&#45;pinning -->
<g id="edge30" class="edge">
<title>libgd&#45;&gt;conda&#45;forge&#45;pinning</title>
<path fill="none" stroke="black" d="M440.84,-145.88C463.85,-125.52 508.01,-89.78 552.5,-72 627.11,-42.18 717.01,-29.04 786.2,-23.3"/>
<polygon fill="black" stroke="black" points="786.56,-26.78 796.25,-22.5 786,-19.8 786.56,-26.78"/>
</g>
<!-- tectonic&#45;&gt;conda&#45;forge&#45;pinning -->
<g id="edge39" class="edge">
<title>tectonic&#45;&gt;conda&#45;forge&#45;pinning</title>
<path fill="none" stroke="black" d="M534.69,-144.16C544.41,-123.58 563.76,-89.38 591.5,-72 625.12,-50.94 721.38,-36.54 796.87,-28.13"/>
<polygon fill="black" stroke="black" points="797.34,-31.6 806.9,-27.03 796.58,-24.64 797.34,-31.6"/>
</g>
<!-- r&#45;stringi&#45;&gt;conda&#45;forge&#45;pinning -->
<g id="edge46" class="edge">
<title>r&#45;stringi&#45;&gt;conda&#45;forge&#45;pinning</title>
<path fill="none" stroke="black" d="M976.64,-73.46C962.87,-64.1 945.09,-52.02 929.77,-41.61"/>
<polygon fill="black" stroke="black" points="931.33,-38.44 921.09,-35.71 927.4,-44.23 931.33,-38.44"/>
</g>
<!-- r&#45;v8&#45;&gt;conda&#45;forge&#45;pinning -->
<g id="edge47" class="edge">
<title>r&#45;v8&#45;&gt;conda&#45;forge&#45;pinning</title>
<path fill="none" stroke="black" d="M896.5,-71.7C896.5,-63.98 896.5,-54.71 896.5,-46.11"/>
<polygon fill="black" stroke="black" points="900,-46.1 896.5,-36.1 893,-46.1 900,-46.1"/>
</g>
<!-- fontconfig -->
<g id="node13" class="node">
<title>fontconfig</title>
<g id="a_node13"><a xlink:href="https://github.com/conda-forge/fontconfig-feedstock/pull/43" xlink:title="fontconfig">
<ellipse fill="#31688e" stroke="black" cx="428.5" cy="-378" rx="60" ry="18"/>
<text text-anchor="middle" x="428.5" y="-374.3" font-family="Times,serif" font-size="14.00" fill="white">fontconfig</text>
</a>
</g>
</g>
<!-- fontconfig&#45;&gt;cairo -->
<g id="edge21" class="edge">
<title>fontconfig&#45;&gt;cairo</title>
<path fill="none" stroke="black" d="M478.65,-367.96C531.74,-358.13 617.86,-341.49 691.5,-324 698.74,-322.28 706.42,-320.3 713.81,-318.32"/>
<polygon fill="black" stroke="black" points="714.92,-321.64 723.65,-315.63 713.08,-314.89 714.92,-321.64"/>
</g>
<!-- fontconfig&#45;&gt;texlive&#45;core -->
<g id="edge22" class="edge">
<title>fontconfig&#45;&gt;texlive&#45;core</title>
<path fill="none" stroke="black" d="M488.18,-375.54C580.11,-372.14 750.68,-360.91 797.5,-324 839.32,-291.04 853.9,-226.68 858.92,-190.1"/>
<polygon fill="black" stroke="black" points="862.4,-190.49 860.15,-180.14 855.46,-189.64 862.4,-190.49"/>
</g>
<!-- fontconfig&#45;&gt;gtk2 -->
<g id="edge23" class="edge">
<title>fontconfig&#45;&gt;gtk2</title>
<path fill="none" stroke="black" d="M461.65,-362.95C508.15,-342.39 594.25,-301.16 658.5,-252 683.78,-232.66 708.42,-205.69 724.6,-186.53"/>
<polygon fill="black" stroke="black" points="727.51,-188.5 731.21,-178.58 722.12,-184.03 727.51,-188.5"/>
</g>
<!-- fontconfig&#45;&gt;conda&#45;forge&#45;pinning -->
<g id="edge24" class="edge">
<title>fontconfig&#45;&gt;conda&#45;forge&#45;pinning</title>
<path fill="none" stroke="black" d="M368.5,-376.17C276.09,-371.36 109.5,-347.15 109.5,-235 109.5,-235 109.5,-235 109.5,-161 109.5,-117.81 113.21,-96.89 148.5,-72 199.09,-36.32 587.37,-24.4 783.66,-20.63"/>
<polygon fill="black" stroke="black" points="783.79,-24.13 793.72,-20.44 783.66,-17.13 783.79,-24.13"/>
</g>
<!-- fontconfig&#45;&gt;libgd -->
<g id="edge25" class="edge">
<title>fontconfig&#45;&gt;libgd</title>
<path fill="none" stroke="black" d="M428.18,-359.85C427.49,-322.83 425.85,-235.18 425.01,-190.39"/>
<polygon fill="black" stroke="black" points="428.51,-190.17 424.82,-180.23 421.51,-190.3 428.51,-190.17"/>
</g>
<!-- fontconfig&#45;&gt;tectonic -->
<g id="edge29" class="edge">
<title>fontconfig&#45;&gt;tectonic</title>
<path fill="none" stroke="black" d="M436.43,-359.85C453.71,-322.5 494.83,-233.63 515.38,-189.21"/>
<polygon fill="black" stroke="black" points="518.64,-190.48 519.67,-179.94 512.29,-187.54 518.64,-190.48"/>
</g>
<!-- octave -->
<g id="node14" class="node">
<title>octave</title>
<g id="a_node14"><a xlink:href="https://github.com/conda-forge/octave-feedstock" xlink:title="octave">
<ellipse fill="#fde725" stroke="black" cx="40.5" cy="-162" rx="40.5" ry="18"/>
<text text-anchor="middle" x="40.5" y="-158.3" font-family="Times,serif" font-size="14.00">octave</text>
</a>
</g>
</g>
<!-- fontconfig&#45;&gt;octave -->
<g id="edge26" class="edge">
<title>fontconfig&#45;&gt;octave</title>
<path fill="none" stroke="black" d="M369.24,-374.77C284.89,-370.42 135.92,-358.02 95.5,-324 55.67,-290.47 44.61,-226.79 41.59,-190.37"/>
<polygon fill="black" stroke="black" points="45.06,-189.75 40.89,-180 38.07,-190.22 45.06,-189.75"/>
</g>
<!-- qt -->
<g id="node15" class="node">
<title>qt</title>
<g id="a_node15"><a xlink:href="https://github.com/conda-forge/qt-feedstock" xlink:title="qt">
<ellipse fill="#fde725" stroke="black" cx="302.5" cy="-234" rx="27" ry="18"/>
<text text-anchor="middle" x="302.5" y="-230.3" font-family="Times,serif" font-size="14.00">qt</text>
</a>
</g>
</g>
<!-- fontconfig&#45;&gt;qt -->
<g id="edge27" class="edge">
<title>fontconfig&#45;&gt;qt</title>
<path fill="none" stroke="black" d="M385.07,-365.45C362.87,-357.37 337.27,-344.3 321.5,-324 307.9,-306.5 303.5,-281.46 302.3,-262.4"/>
<polygon fill="black" stroke="black" points="305.79,-262.1 301.92,-252.24 298.8,-262.36 305.79,-262.1"/>
</g>
<!-- root5 -->
<g id="node16" class="node">
<title>root5</title>
<g id="a_node16"><a xlink:href="https://github.com/conda-forge/root5-feedstock" xlink:title="root5">
<ellipse fill="#fde725" stroke="black" cx="365.5" cy="-306" rx="35.19" ry="18"/>
<text text-anchor="middle" x="365.5" y="-302.3" font-family="Times,serif" font-size="14.00">root5</text>
</a>
</g>
</g>
<!-- fontconfig&#45;&gt;root5 -->
<g id="edge28" class="edge">
<title>fontconfig&#45;&gt;root5</title>
<path fill="none" stroke="black" d="M413.57,-360.41C405.53,-351.48 395.48,-340.31 386.65,-330.5"/>
<polygon fill="black" stroke="black" points="389.18,-328.08 379.89,-322.99 383.98,-332.76 389.18,-328.08"/>
</g>
<!-- octave&#45;&gt;conda&#45;forge&#45;pinning -->
<g id="edge31" class="edge">
<title>octave&#45;&gt;conda&#45;forge&#45;pinning</title>
<path fill="none" stroke="black" d="M45.6,-144.11C52.92,-123.15 68.57,-88.2 95.5,-72 152.97,-37.42 576.92,-24.88 783.71,-20.78"/>
<polygon fill="black" stroke="black" points="784.06,-24.28 793.99,-20.58 783.93,-17.28 784.06,-24.28"/>
</g>
<!-- qt&#45;&gt;gdal -->
<g id="edge32" class="edge">
<title>qt&#45;&gt;gdal</title>
<path fill="none" stroke="black" d="M328.39,-228.44C378.38,-219.57 491.62,-199.19 586.5,-180 599.58,-177.36 613.85,-174.3 626.57,-171.51"/>
<polygon fill="black" stroke="black" points="627.37,-174.91 636.38,-169.34 625.86,-168.08 627.37,-174.91"/>
</g>
<!-- qt&#45;&gt;conda&#45;forge&#45;pinning -->
<g id="edge33" class="edge">
<title>qt&#45;&gt;conda&#45;forge&#45;pinning</title>
<path fill="none" stroke="black" d="M301.55,-215.86C300.73,-182.35 304.23,-108.25 347.5,-72 380.33,-44.5 635.36,-29.55 786.01,-23.04"/>
<polygon fill="black" stroke="black" points="786.39,-26.53 796.23,-22.61 786.09,-19.54 786.39,-26.53"/>
</g>
<!-- qt&#45;&gt;qgis -->
<g id="edge36" class="edge">
<title>qt&#45;&gt;qgis</title>
<path fill="none" stroke="black" d="M311.82,-216.9C324.57,-196.45 349.44,-161.7 380.5,-144 458.25,-99.71 565.55,-91.41 623.46,-90.45"/>
<polygon fill="black" stroke="black" points="623.72,-93.95 633.68,-90.35 623.65,-86.95 623.72,-93.95"/>
</g>
<!-- qt&#45;&gt;libgd -->
<g id="edge34" class="edge">
<title>qt&#45;&gt;libgd</title>
<path fill="none" stroke="black" d="M322.37,-221.6C341.48,-210.63 370.67,-193.89 392.95,-181.1"/>
<polygon fill="black" stroke="black" points="394.8,-184.08 401.73,-176.07 391.31,-178.01 394.8,-184.08"/>
</g>
<!-- qt&#45;&gt;octave -->
<g id="edge35" class="edge">
<title>qt&#45;&gt;octave</title>
<path fill="none" stroke="black" d="M277.85,-226.41C233.48,-214.56 139.63,-189.49 84.16,-174.66"/>
<polygon fill="black" stroke="black" points="84.83,-171.22 74.27,-172.02 83.03,-177.98 84.83,-171.22"/>
</g>
<!-- matplotlib -->
<g id="node17" class="node">
<title>matplotlib</title>
<g id="a_node17"><a xlink:href="https://github.com/conda-forge/matplotlib-feedstock" xlink:title="matplotlib">
<ellipse fill="#fde725" stroke="black" cx="197.5" cy="-162" rx="60" ry="18"/>
<text text-anchor="middle" x="197.5" y="-158.3" font-family="Times,serif" font-size="14.00">matplotlib</text>
</a>
</g>
</g>
<!-- qt&#45;&gt;matplotlib -->
<g id="edge37" class="edge">
<title>qt&#45;&gt;matplotlib</title>
<path fill="none" stroke="black" d="M283.73,-220.49C268.62,-210.41 247.05,-196.04 229.27,-184.18"/>
<polygon fill="black" stroke="black" points="231.15,-181.23 220.89,-178.59 227.27,-187.05 231.15,-181.23"/>
</g>
<!-- root5&#45;&gt;conda&#45;forge&#45;pinning -->
<g id="edge38" class="edge">
<title>root5&#45;&gt;conda&#45;forge&#45;pinning</title>
<path fill="none" stroke="black" d="M362.57,-287.57C358.25,-256.37 353.37,-189.92 380.5,-144 409.46,-94.96 433.25,-92.2 486.5,-72 582.26,-35.67 698.66,-23.37 782.93,-19.61"/>
<polygon fill="black" stroke="black" points="783.2,-23.1 793.04,-19.19 782.91,-16.1 783.2,-23.1"/>
</g>
<!-- matplotlib&#45;&gt;conda&#45;forge&#45;pinning -->
<g id="edge42" class="edge">
<title>matplotlib&#45;&gt;conda&#45;forge&#45;pinning</title>
<path fill="none" stroke="black" d="M206.07,-144.07C217.72,-123.07 240.68,-88.08 271.5,-72 357.65,-27.05 627.4,-19.02 782.92,-18.27"/>
<polygon fill="black" stroke="black" points="783.01,-21.77 792.99,-18.23 782.98,-14.77 783.01,-21.77"/>
</g>
<!-- alps -->
<g id="node19" class="node">
<title>alps</title>
<g id="a_node19"><a xlink:href="https://github.com/conda-forge/alps-feedstock" xlink:title="alps">
<ellipse fill="#fde725" stroke="black" cx="188.5" cy="-90" rx="30.59" ry="18"/>
<text text-anchor="middle" x="188.5" y="-86.3" font-family="Times,serif" font-size="14.00">alps</text>
</a>
</g>
</g>
<!-- matplotlib&#45;&gt;alps -->
<g id="edge43" class="edge">
<title>matplotlib&#45;&gt;alps</title>
<path fill="none" stroke="black" d="M195.28,-143.7C194.28,-135.98 193.09,-126.71 191.99,-118.11"/>
<polygon fill="black" stroke="black" points="195.45,-117.58 190.7,-108.1 188.5,-118.47 195.45,-117.58"/>
</g>
<!-- igraph -->
<g id="node18" class="node">
<title>igraph</title>
<g id="a_node18"><a xlink:href="https://github.com/conda-forge/igraph-feedstock/pull/18" xlink:title="igraph">
<ellipse fill="#31688e" stroke="black" cx="1112.5" cy="-90" rx="40.5" ry="18"/>
<text text-anchor="middle" x="1112.5" y="-86.3" font-family="Times,serif" font-size="14.00" fill="white">igraph</text>
</a>
</g>
</g>
<!-- igraph&#45;&gt;conda&#45;forge&#45;pinning -->
<g id="edge41" class="edge">
<title>igraph&#45;&gt;conda&#45;forge&#45;pinning</title>
<path fill="none" stroke="black" d="M1081.7,-78.17C1075.67,-76.1 1069.4,-73.96 1063.5,-72 1027.4,-60.01 986.71,-47.09 954.54,-37"/>
<polygon fill="black" stroke="black" points="955.43,-33.61 944.84,-33.97 953.34,-40.3 955.43,-33.61"/>
</g>
<!-- alps&#45;&gt;conda&#45;forge&#45;pinning -->
<g id="edge44" class="edge">
<title>alps&#45;&gt;conda&#45;forge&#45;pinning</title>
<path fill="none" stroke="black" d="M212.41,-78.54C219.11,-76 226.49,-73.57 233.5,-72 422.93,-29.54 649.49,-19.99 782.72,-18.44"/>
<polygon fill="black" stroke="black" points="782.98,-21.94 792.94,-18.33 782.91,-14.94 782.98,-21.94"/>
</g>
<!-- python&#45;igraph -->
<g id="node20" class="node">
<title>python&#45;igraph</title>
<g id="a_node20"><a xlink:href="https://github.com/conda-forge/python-igraph-feedstock/pull/31" xlink:title="python igraph">
<ellipse fill="#31688e" stroke="black" cx="1249.5" cy="-162" rx="74.19" ry="18"/>
<text text-anchor="middle" x="1249.5" y="-158.3" font-family="Times,serif" font-size="14.00" fill="white">python igraph</text>
</a>
</g>
</g>
<!-- python&#45;igraph&#45;&gt;conda&#45;forge&#45;pinning -->
<g id="edge45" class="edge">
<title>python&#45;igraph&#45;&gt;conda&#45;forge&#45;pinning</title>
<path fill="none" stroke="black" d="M1251.75,-143.94C1253.37,-123.79 1252.58,-90.66 1233.5,-72 1201.94,-41.12 1092.83,-28.23 1007.21,-22.85"/>
<polygon fill="black" stroke="black" points="1007.35,-19.36 997.16,-22.25 1006.93,-26.34 1007.35,-19.36"/>
</g>
<!-- uwsgi -->
<g id="node21" class="node">
<title>uwsgi</title>
<g id="a_node21"><a xlink:href="https://github.com/conda-forge/uwsgi-feedstock/pull/34" xlink:title="uwsgi">
<ellipse fill="#31688e" stroke="black" cx="1326.5" cy="-234" rx="35.19" ry="18"/>
<text text-anchor="middle" x="1326.5" y="-230.3" font-family="Times,serif" font-size="14.00" fill="white">uwsgi</text>
</a>
</g>
</g>
<!-- uwsgi&#45;&gt;conda&#45;forge&#45;pinning -->
<g id="edge48" class="edge">
<title>uwsgi&#45;&gt;conda&#45;forge&#45;pinning</title>
<path fill="none" stroke="black" d="M1332.09,-216.14C1337.24,-197.64 1342.67,-167.44 1332.5,-144 1313.85,-101.02 1297.7,-92.35 1255.5,-72 1211.37,-50.73 1088.39,-35.74 998.63,-27.26"/>
<polygon fill="black" stroke="black" points="998.69,-23.75 988.41,-26.3 998.04,-30.72 998.69,-23.75"/>
</g>
<!-- pyicu -->
<g id="node22" class="node">
<title>pyicu</title>
<g id="a_node22"><a xlink:href="https://github.com/conda-forge/pyicu-feedstock/pull/16" xlink:title="pyicu">
<ellipse fill="#31688e" stroke="black" cx="1389.5" cy="-306" rx="35.19" ry="18"/>
<text text-anchor="middle" x="1389.5" y="-302.3" font-family="Times,serif" font-size="14.00" fill="white">pyicu</text>
</a>
</g>
</g>
<!-- pyicu&#45;&gt;conda&#45;forge&#45;pinning -->
<g id="edge49" class="edge">
<title>pyicu&#45;&gt;conda&#45;forge&#45;pinning</title>
<path fill="none" stroke="black" d="M1389.09,-287.74C1386.93,-242.04 1373.9,-118.24 1296.5,-72 1248.9,-43.56 1107.2,-30.03 1005.99,-23.84"/>
<polygon fill="black" stroke="black" points="1005.9,-20.33 995.71,-23.23 1005.48,-27.32 1005.9,-20.33"/>
</g>
<!-- mdsplus -->
<g id="node23" class="node">
<title>mdsplus</title>
<g id="a_node23"><a xlink:href="https://github.com/conda-forge/mdsplus-feedstock" xlink:title="mdsplus">
<ellipse fill="#35b779" stroke="black" cx="1468.5" cy="-378" rx="45" ry="18"/>
<text text-anchor="middle" x="1468.5" y="-374.3" font-family="Times,serif" font-size="14.00">mdsplus</text>
</a>
</g>
</g>
<!-- mdsplus&#45;&gt;conda&#45;forge&#45;pinning -->
<g id="edge50" class="edge">
<title>mdsplus&#45;&gt;conda&#45;forge&#45;pinning</title>
<path fill="none" stroke="black" d="M1470.55,-359.82C1477.68,-298.56 1499.93,-93.28 1480.5,-72 1449.41,-37.96 1169.9,-25.56 1009.11,-21.21"/>
<polygon fill="black" stroke="black" points="1008.79,-17.7 998.7,-20.94 1008.6,-24.7 1008.79,-17.7"/>
</g>
<!-- ticcutils -->
<g id="node24" class="node">
<title>ticcutils</title>
<g id="a_node24"><a xlink:href="https://github.com/conda-forge/ticcutils-feedstock/pull/10" xlink:title="ticcutils">
<ellipse fill="#31688e" stroke="black" cx="1416.5" cy="-90" rx="54.69" ry="18"/>
<text text-anchor="middle" x="1416.5" y="-86.3" font-family="Times,serif" font-size="14.00" fill="white">ticcutils</text>
</a>
</g>
</g>
<!-- ticcutils&#45;&gt;conda&#45;forge&#45;pinning -->
<g id="edge51" class="edge">
<title>ticcutils&#45;&gt;conda&#45;forge&#45;pinning</title>
<path fill="none" stroke="black" d="M1375.45,-78C1366.3,-75.79 1356.6,-73.65 1347.5,-72 1228.43,-50.42 1090.01,-35.67 998.25,-27.31"/>
<polygon fill="black" stroke="black" points="998.4,-23.81 988.13,-26.4 997.77,-30.78 998.4,-23.81"/>
</g>
<!-- scilab -->
<g id="node25" class="node">
<title>scilab</title>
<g id="a_node25"><a xlink:href="https://github.com/conda-forge/scilab-feedstock/pull/14" xlink:title="scilab">
<ellipse fill="#31688e" stroke="black" cx="1537.5" cy="-162" rx="40.5" ry="18"/>
<text text-anchor="middle" x="1537.5" y="-158.3" font-family="Times,serif" font-size="14.00" fill="white">scilab</text>
</a>
</g>
</g>
<!-- scilab&#45;&gt;conda&#45;forge&#45;pinning -->
<g id="edge52" class="edge">
<title>scilab&#45;&gt;conda&#45;forge&#45;pinning</title>
<path fill="none" stroke="black" d="M1538.26,-143.89C1538.15,-123.37 1534.49,-89.56 1513.5,-72 1475.72,-40.4 1175.86,-26.88 1008.49,-21.75"/>
<polygon fill="black" stroke="black" points="1008.51,-18.25 998.4,-21.45 1008.29,-25.25 1008.51,-18.25"/>
</g>
<!-- ifcopenshell -->
<g id="node26" class="node">
<title>ifcopenshell</title>
<g id="a_node26"><a xlink:href="https://github.com/conda-forge/ifcopenshell-feedstock" xlink:title="ifcopenshell">
<ellipse fill="#35b779" stroke="black" cx="1566.5" cy="-234" rx="69.59" ry="18"/>
<text text-anchor="middle" x="1566.5" y="-230.3" font-family="Times,serif" font-size="14.00">ifcopenshell</text>
</a>
</g>
</g>
<!-- ifcopenshell&#45;&gt;conda&#45;forge&#45;pinning -->
<g id="edge53" class="edge">
<title>ifcopenshell&#45;&gt;conda&#45;forge&#45;pinning</title>
<path fill="none" stroke="black" d="M1575.86,-216.07C1584.61,-198.02 1595.23,-168.69 1587.5,-144 1575.86,-106.82 1571.25,-91.46 1537.5,-72 1492.78,-46.21 1178.14,-30.02 1006.91,-23.02"/>
<polygon fill="black" stroke="black" points="1006.98,-19.52 996.85,-22.61 1006.7,-26.52 1006.98,-19.52"/>
</g>
<!-- libical -->
<g id="node27" class="node">
<title>libical</title>
<g id="a_node27"><a xlink:href="https://github.com/conda-forge/libical-feedstock/pull/7" xlink:title="libical">
<ellipse fill="#31688e" stroke="black" cx="1646.5" cy="-306" rx="45" ry="18"/>
<text text-anchor="middle" x="1646.5" y="-302.3" font-family="Times,serif" font-size="14.00" fill="white">libical</text>
</a>
</g>
</g>
<!-- libical&#45;&gt;conda&#45;forge&#45;pinning -->
<g id="edge54" class="edge">
<title>libical&#45;&gt;conda&#45;forge&#45;pinning</title>
<path fill="none" stroke="black" d="M1648.65,-287.96C1650.41,-269.82 1651.69,-240.41 1645.5,-216 1627.71,-145.85 1629.96,-111.77 1569.5,-72 1523.85,-41.97 1187.51,-27.56 1008.27,-21.96"/>
<polygon fill="black" stroke="black" points="1008.11,-18.45 998.01,-21.64 1007.9,-25.45 1008.11,-18.45"/>
</g>
<!-- libv8 -->
<g id="node28" class="node">
<title>libv8</title>
<g id="a_node28"><a xlink:href="https://github.com/conda-forge/libv8-feedstock/pull/12" xlink:title="libv8">
<ellipse fill="#31688e" stroke="black" cx="984.5" cy="-162" rx="35.19" ry="18"/>
<text text-anchor="middle" x="984.5" y="-158.3" font-family="Times,serif" font-size="14.00" fill="white">libv8</text>
</a>
</g>
</g>
<!-- libv8&#45;&gt;conda&#45;forge&#45;pinning -->
<g id="edge55" class="edge">
<title>libv8&#45;&gt;conda&#45;forge&#45;pinning</title>
<path fill="none" stroke="black" d="M957.44,-150.23C920.33,-135.4 858,-110.24 856.5,-108 842.97,-87.76 857.24,-62.19 872.36,-43.66"/>
<polygon fill="black" stroke="black" points="875.15,-45.79 879.04,-35.93 869.85,-41.21 875.15,-45.79"/>
</g>
<!-- libv8&#45;&gt;r&#45;v8 -->
<g id="edge56" class="edge">
<title>libv8&#45;&gt;r&#45;v8</title>
<path fill="none" stroke="black" d="M966.27,-146.5C953.47,-136.32 936.19,-122.57 922.03,-111.31"/>
<polygon fill="black" stroke="black" points="924.11,-108.49 914.11,-105.01 919.76,-113.97 924.11,-108.49"/>
</g>
<!-- odil -->
<g id="node29" class="node">
<title>odil</title>
<g id="a_node29"><a xlink:href="https://github.com/conda-forge/odil-feedstock" xlink:title="odil">
<ellipse fill="#35b779" stroke="black" cx="1719.5" cy="-378" rx="30.59" ry="18"/>
<text text-anchor="middle" x="1719.5" y="-374.3" font-family="Times,serif" font-size="14.00">odil</text>
</a>
</g>
</g>
<!-- odil&#45;&gt;conda&#45;forge&#45;pinning -->
<g id="edge57" class="edge">
<title>odil&#45;&gt;conda&#45;forge&#45;pinning</title>
<path fill="none" stroke="black" d="M1719.5,-359.95C1719.5,-333.29 1719.5,-280.11 1719.5,-235 1719.5,-235 1719.5,-235 1719.5,-161 1719.5,-95.67 1663.59,-95.18 1602.5,-72 1497.22,-32.06 1180.99,-22.14 1009.7,-19.73"/>
<polygon fill="black" stroke="black" points="1009.68,-16.23 999.64,-19.59 1009.59,-23.23 1009.68,-16.23"/>
</g>
<!-- nbin -->
<g id="node30" class="node">
<title>nbin</title>
<g id="a_node30"><a xlink:href="https://github.com/conda-forge/nbin-feedstock/pull/1" xlink:title="nbin">
<ellipse fill="#31688e" stroke="black" cx="1778.5" cy="-90" rx="30.59" ry="18"/>
<text text-anchor="middle" x="1778.5" y="-86.3" font-family="Times,serif" font-size="14.00" fill="white">nbin</text>
</a>
</g>
</g>
<!-- nbin&#45;&gt;conda&#45;forge&#45;pinning -->
<g id="edge58" class="edge">
<title>nbin&#45;&gt;conda&#45;forge&#45;pinning</title>
<path fill="none" stroke="black" d="M1754.61,-78.47C1747.9,-75.93 1740.52,-73.51 1733.5,-72 1598.38,-42.89 1203.33,-27.81 1008.2,-21.96"/>
<polygon fill="black" stroke="black" points="1008.02,-18.45 997.92,-21.65 1007.82,-25.45 1008.02,-18.45"/>
</g>
</g>
</svg>
