<?xml version="1.0" encoding="UTF-8" standalone="no"?>
<!DOCTYPE svg PUBLIC "-//W3C//DTD SVG 1.1//EN"
 "http://www.w3.org/Graphics/SVG/1.1/DTD/svg11.dtd">
<!-- Generated by graphviz version 2.42.3 (20191010.1750)
 -->
<!-- Title: %3 Pages: 1 -->
<svg width="1739pt" height="404pt"
 viewBox="0.00 0.00 1739.09 404.00" xmlns="http://www.w3.org/2000/svg" xmlns:xlink="http://www.w3.org/1999/xlink">
<g id="graph0" class="graph" transform="scale(1 1) rotate(0) translate(4 400)">
<title>%3</title>
<polygon fill="white" stroke="transparent" points="-4,4 -4,-400 1735.09,-400 1735.09,4 -4,4"/>
<!-- cairo -->
<g id="node1" class="node">
<title>cairo</title>
<g id="a_node1"><a xlink:href="https://github.com/conda-forge/cairo-feedstock/pull/53" xlink:title="cairo">
<ellipse fill="#31688e" stroke="black" cx="338.54" cy="-306" rx="35.19" ry="18"/>
<text text-anchor="middle" x="338.54" y="-302.3" font-family="Times,serif" font-size="14.00" fill="white">cairo</text>
</a>
</g>
</g>
<!-- gdal -->
<g id="node2" class="node">
<title>gdal</title>
<g id="a_node2"><a xlink:href="https://github.com/conda-forge/gdal-feedstock" xlink:title="gdal">
<ellipse fill="#fde725" stroke="black" cx="357.54" cy="-162" rx="30.59" ry="18"/>
<text text-anchor="middle" x="357.54" y="-158.3" font-family="Times,serif" font-size="14.00">gdal</text>
</a>
</g>
</g>
<!-- cairo&#45;&gt;gdal -->
<g id="edge1" class="edge">
<title>cairo&#45;&gt;gdal</title>
<path fill="none" stroke="black" d="M340.84,-287.87C344.07,-263.67 350.02,-219.21 353.88,-190.39"/>
<polygon fill="black" stroke="black" points="357.39,-190.57 355.24,-180.19 350.45,-189.64 357.39,-190.57"/>
</g>
<!-- harfbuzz -->
<g id="node3" class="node">
<title>harfbuzz</title>
<g id="a_node3"><a xlink:href="https://github.com/conda-forge/harfbuzz-feedstock" xlink:title="harfbuzz">
<ellipse fill="#fde725" stroke="black" cx="241.54" cy="-234" rx="50.09" ry="18"/>
<text text-anchor="middle" x="241.54" y="-230.3" font-family="Times,serif" font-size="14.00">harfbuzz</text>
</a>
</g>
</g>
<!-- cairo&#45;&gt;harfbuzz -->
<g id="edge2" class="edge">
<title>cairo&#45;&gt;harfbuzz</title>
<path fill="none" stroke="black" d="M318.91,-290.83C305.18,-280.92 286.59,-267.51 271.08,-256.31"/>
<polygon fill="black" stroke="black" points="272.98,-253.37 262.83,-250.36 268.89,-259.05 272.98,-253.37"/>
</g>
<!-- r&#45;base -->
<g id="node4" class="node">
<title>r&#45;base</title>
<g id="a_node4"><a xlink:href="https://github.com/conda-forge/r-base-feedstock" xlink:title="r base">
<ellipse fill="#fde725" stroke="black" cx="975.54" cy="-162" rx="40.5" ry="18"/>
<text text-anchor="middle" x="975.54" y="-158.3" font-family="Times,serif" font-size="14.00">r base</text>
</a>
</g>
</g>
<!-- cairo&#45;&gt;r&#45;base -->
<g id="edge3" class="edge">
<title>cairo&#45;&gt;r&#45;base</title>
<path fill="none" stroke="black" d="M370.96,-299.08C459.57,-282.67 713.07,-234.23 920.54,-180 924.96,-178.85 929.55,-177.56 934.11,-176.23"/>
<polygon fill="black" stroke="black" points="935.4,-179.5 943.98,-173.28 933.4,-172.79 935.4,-179.5"/>
</g>
<!-- texlive&#45;core -->
<g id="node5" class="node">
<title>texlive&#45;core</title>
<g id="a_node5"><a xlink:href="https://github.com/conda-forge/texlive-core-feedstock" xlink:title="texlive core">
<ellipse fill="#fde725" stroke="black" cx="69.54" cy="-162" rx="69.59" ry="18"/>
<text text-anchor="middle" x="69.54" y="-158.3" font-family="Times,serif" font-size="14.00">texlive core</text>
</a>
</g>
</g>
<!-- cairo&#45;&gt;texlive&#45;core -->
<g id="edge4" class="edge">
<title>cairo&#45;&gt;texlive&#45;core</title>
<path fill="none" stroke="black" d="M307.06,-297.68C274.6,-289.36 223.14,-274.04 182.54,-252 149.31,-233.96 115.86,-206.13 94.08,-186.4"/>
<polygon fill="black" stroke="black" points="96.33,-183.72 86.6,-179.53 91.6,-188.87 96.33,-183.72"/>
</g>
<!-- gtk2 -->
<g id="node6" class="node">
<title>gtk2</title>
<g id="a_node6"><a xlink:href="https://github.com/conda-forge/gtk2-feedstock" xlink:title="gtk2">
<ellipse fill="#fde725" stroke="black" cx="278.54" cy="-162" rx="30.59" ry="18"/>
<text text-anchor="middle" x="278.54" y="-158.3" font-family="Times,serif" font-size="14.00">gtk2</text>
</a>
</g>
</g>
<!-- cairo&#45;&gt;gtk2 -->
<g id="edge5" class="edge">
<title>cairo&#45;&gt;gtk2</title>
<path fill="none" stroke="black" d="M331.43,-288.15C321.1,-263.71 301.86,-218.17 289.65,-189.29"/>
<polygon fill="black" stroke="black" points="292.77,-187.67 285.65,-179.82 286.32,-190.4 292.77,-187.67"/>
</g>
<!-- conda&#45;forge&#45;pinning -->
<g id="node7" class="node">
<title>conda&#45;forge&#45;pinning</title>
<ellipse fill="none" stroke="black" cx="937.54" cy="-18" rx="103.5" ry="18"/>
<text text-anchor="middle" x="937.54" y="-14.3" font-family="Times,serif" font-size="14.00">conda&#45;forge&#45;pinning</text>
</g>
<!-- cairo&#45;&gt;conda&#45;forge&#45;pinning -->
<g id="edge6" class="edge">
<title>cairo&#45;&gt;conda&#45;forge&#45;pinning</title>
<path fill="none" stroke="black" d="M373.72,-305.78C479.02,-306.68 798.41,-298.79 1024.54,-180 1024.54,-180 1102.54,-108 1102.54,-108 1108.96,-93.34 1111.97,-84.93 1102.54,-72 1086.9,-50.55 1062.45,-37.59 1037.11,-29.82"/>
<polygon fill="black" stroke="black" points="1037.94,-26.42 1027.37,-27.08 1036.05,-33.15 1037.94,-26.42"/>
</g>
<!-- gdal&#45;&gt;conda&#45;forge&#45;pinning -->
<g id="edge7" class="edge">
<title>gdal&#45;&gt;conda&#45;forge&#45;pinning</title>
<path fill="none" stroke="black" d="M371.05,-145.6C390.2,-124.9 427.43,-88.78 467.54,-72 530.66,-45.59 710.76,-31.11 828.8,-24.21"/>
<polygon fill="black" stroke="black" points="829.18,-27.7 838.96,-23.63 828.77,-20.71 829.18,-27.7"/>
</g>
<!-- qgis -->
<g id="node8" class="node">
<title>qgis</title>
<g id="a_node8"><a xlink:href="https://github.com/conda-forge/qgis-feedstock" xlink:title="qgis">
<ellipse fill="#fde725" stroke="black" cx="367.54" cy="-90" rx="30.59" ry="18"/>
<text text-anchor="middle" x="367.54" y="-86.3" font-family="Times,serif" font-size="14.00">qgis</text>
</a>
</g>
</g>
<!-- gdal&#45;&gt;qgis -->
<g id="edge8" class="edge">
<title>gdal&#45;&gt;qgis</title>
<path fill="none" stroke="black" d="M359.96,-144.05C361.07,-136.35 362.4,-127.03 363.63,-118.36"/>
<polygon fill="black" stroke="black" points="367.13,-118.67 365.08,-108.28 360.2,-117.68 367.13,-118.67"/>
</g>
<!-- harfbuzz&#45;&gt;gdal -->
<g id="edge9" class="edge">
<title>harfbuzz&#45;&gt;gdal</title>
<path fill="none" stroke="black" d="M266.14,-218.15C284.29,-207.21 309.04,-192.27 328.22,-180.7"/>
<polygon fill="black" stroke="black" points="330.1,-183.65 336.86,-175.48 326.49,-177.65 330.1,-183.65"/>
</g>
<!-- harfbuzz&#45;&gt;texlive&#45;core -->
<g id="edge10" class="edge">
<title>harfbuzz&#45;&gt;texlive&#45;core</title>
<path fill="none" stroke="black" d="M209.6,-220C182.86,-209.12 144.4,-193.46 114.54,-181.31"/>
<polygon fill="black" stroke="black" points="115.76,-178.03 105.18,-177.5 113.12,-184.51 115.76,-178.03"/>
</g>
<!-- harfbuzz&#45;&gt;gtk2 -->
<g id="edge11" class="edge">
<title>harfbuzz&#45;&gt;gtk2</title>
<path fill="none" stroke="black" d="M250.5,-216.05C254.88,-207.77 260.25,-197.62 265.11,-188.42"/>
<polygon fill="black" stroke="black" points="268.35,-189.78 269.92,-179.31 262.16,-186.51 268.35,-189.78"/>
</g>
<!-- harfbuzz&#45;&gt;conda&#45;forge&#45;pinning -->
<g id="edge12" class="edge">
<title>harfbuzz&#45;&gt;conda&#45;forge&#45;pinning</title>
<path fill="none" stroke="black" d="M224.12,-216.85C192.2,-185.4 131.2,-115.23 171.54,-72 215.03,-25.4 621.15,-18.85 823.73,-18.51"/>
<polygon fill="black" stroke="black" points="823.82,-22.01 833.82,-18.5 823.81,-15.01 823.82,-22.01"/>
</g>
<!-- libgd -->
<g id="node9" class="node">
<title>libgd</title>
<g id="a_node9"><a xlink:href="https://github.com/conda-forge/libgd-feedstock" xlink:title="libgd">
<ellipse fill="#fde725" stroke="black" cx="479.54" cy="-162" rx="35.19" ry="18"/>
<text text-anchor="middle" x="479.54" y="-158.3" font-family="Times,serif" font-size="14.00">libgd</text>
</a>
</g>
</g>
<!-- harfbuzz&#45;&gt;libgd -->
<g id="edge13" class="edge">
<title>harfbuzz&#45;&gt;libgd</title>
<path fill="none" stroke="black" d="M278.99,-221.99C322.93,-209.06 395.44,-187.74 440.18,-174.58"/>
<polygon fill="black" stroke="black" points="441.23,-177.92 449.83,-171.74 439.25,-171.2 441.23,-177.92"/>
</g>
<!-- tectonic -->
<g id="node10" class="node">
<title>tectonic</title>
<g id="a_node10"><a xlink:href="https://github.com/conda-forge/tectonic-feedstock" xlink:title="tectonic">
<ellipse fill="#fde725" stroke="black" cx="230.54" cy="-90" rx="50.09" ry="18"/>
<text text-anchor="middle" x="230.54" y="-86.3" font-family="Times,serif" font-size="14.00">tectonic</text>
</a>
</g>
</g>
<!-- harfbuzz&#45;&gt;tectonic -->
<g id="edge14" class="edge">
<title>harfbuzz&#45;&gt;tectonic</title>
<path fill="none" stroke="black" d="M240.22,-215.87C238.34,-191.67 234.9,-147.21 232.67,-118.39"/>
<polygon fill="black" stroke="black" points="236.14,-117.89 231.88,-108.19 229.16,-118.43 236.14,-117.89"/>
</g>
<!-- r&#45;base&#45;&gt;conda&#45;forge&#45;pinning -->
<g id="edge15" class="edge">
<title>r&#45;base&#45;&gt;conda&#45;forge&#45;pinning</title>
<path fill="none" stroke="black" d="M1006.27,-150.25C1035.27,-139.41 1075.61,-122.27 1084.54,-108 1093.03,-94.44 1093.74,-85.09 1084.54,-72 1070.97,-52.67 1049.62,-40.36 1027.36,-32.53"/>
<polygon fill="black" stroke="black" points="1028.38,-29.18 1017.79,-29.44 1026.23,-35.84 1028.38,-29.18"/>
</g>
<!-- r&#45;stringi -->
<g id="node11" class="node">
<title>r&#45;stringi</title>
<g id="a_node11"><a xlink:href="https://github.com/conda-forge/r-stringi-feedstock" xlink:title="r stringi">
<ellipse fill="#fde725" stroke="black" cx="1020.54" cy="-90" rx="54.69" ry="18"/>
<text text-anchor="middle" x="1020.54" y="-86.3" font-family="Times,serif" font-size="14.00">r stringi</text>
</a>
</g>
</g>
<!-- r&#45;base&#45;&gt;r&#45;stringi -->
<g id="edge16" class="edge">
<title>r&#45;base&#45;&gt;r&#45;stringi</title>
<path fill="none" stroke="black" d="M986.21,-144.41C991.57,-136.08 998.17,-125.8 1004.16,-116.49"/>
<polygon fill="black" stroke="black" points="1007.18,-118.26 1009.64,-107.96 1001.29,-114.48 1007.18,-118.26"/>
</g>
<!-- r&#45;v8 -->
<g id="node12" class="node">
<title>r&#45;v8</title>
<g id="a_node12"><a xlink:href="https://github.com/conda-forge/r-v8-feedstock" xlink:title="r v8">
<ellipse fill="#fde725" stroke="black" cx="878.54" cy="-90" rx="30.59" ry="18"/>
<text text-anchor="middle" x="878.54" y="-86.3" font-family="Times,serif" font-size="14.00">r v8</text>
</a>
</g>
</g>
<!-- r&#45;base&#45;&gt;r&#45;v8 -->
<g id="edge17" class="edge">
<title>r&#45;base&#45;&gt;r&#45;v8</title>
<path fill="none" stroke="black" d="M954.97,-146.15C940.52,-135.73 921.05,-121.67 905.38,-110.36"/>
<polygon fill="black" stroke="black" points="907.27,-107.42 897.12,-104.4 903.18,-113.09 907.27,-107.42"/>
</g>
<!-- texlive&#45;core&#45;&gt;conda&#45;forge&#45;pinning -->
<g id="edge18" class="edge">
<title>texlive&#45;core&#45;&gt;conda&#45;forge&#45;pinning</title>
<path fill="none" stroke="black" d="M77.18,-144.01C87.67,-122.94 108.68,-87.88 138.54,-72 197.61,-40.59 619.63,-26.45 825.36,-21.37"/>
<polygon fill="black" stroke="black" points="825.67,-24.86 835.59,-21.12 825.5,-17.86 825.67,-24.86"/>
</g>
<!-- gtk2&#45;&gt;conda&#45;forge&#45;pinning -->
<g id="edge19" class="edge">
<title>gtk2&#45;&gt;conda&#45;forge&#45;pinning</title>
<path fill="none" stroke="black" d="M282.7,-143.89C288.74,-123.04 302.12,-88.55 327.54,-72 368.31,-45.46 662.64,-29.78 827.08,-22.99"/>
<polygon fill="black" stroke="black" points="827.39,-26.48 837.24,-22.58 827.11,-19.49 827.39,-26.48"/>
</g>
<!-- gtk2&#45;&gt;qgis -->
<g id="edge20" class="edge">
<title>gtk2&#45;&gt;qgis</title>
<path fill="none" stroke="black" d="M296.13,-147.17C309.17,-136.91 327.16,-122.77 341.81,-111.24"/>
<polygon fill="black" stroke="black" points="344.3,-113.73 350,-104.8 339.97,-108.23 344.3,-113.73"/>
</g>
<!-- qgis&#45;&gt;conda&#45;forge&#45;pinning -->
<g id="edge21" class="edge">
<title>qgis&#45;&gt;conda&#45;forge&#45;pinning</title>
<path fill="none" stroke="black" d="M391.47,-78.64C398.18,-76.1 405.55,-73.64 412.54,-72 552.5,-39.1 718.16,-26.62 825.41,-21.89"/>
<polygon fill="black" stroke="black" points="825.77,-25.37 835.61,-21.45 825.47,-18.38 825.77,-25.37"/>
</g>
<!-- libgd&#45;&gt;conda&#45;forge&#45;pinning -->
<g id="edge22" class="edge">
<title>libgd&#45;&gt;conda&#45;forge&#45;pinning</title>
<path fill="none" stroke="black" d="M474.53,-144.13C469.74,-124.18 465.63,-91.24 483.54,-72 506.73,-47.1 702.56,-31.78 829.34,-24.37"/>
<polygon fill="black" stroke="black" points="829.7,-27.86 839.49,-23.79 829.3,-20.87 829.7,-27.86"/>
</g>
<!-- tectonic&#45;&gt;conda&#45;forge&#45;pinning -->
<g id="edge23" class="edge">
<title>tectonic&#45;&gt;conda&#45;forge&#45;pinning</title>
<path fill="none" stroke="black" d="M267.86,-77.9C276.55,-75.64 285.82,-73.51 294.54,-72 479.25,-40.12 697.24,-27.27 826.06,-22.19"/>
<polygon fill="black" stroke="black" points="826.47,-25.68 836.33,-21.8 826.2,-18.69 826.47,-25.68"/>
</g>
<!-- r&#45;stringi&#45;&gt;conda&#45;forge&#45;pinning -->
<g id="edge36" class="edge">
<title>r&#45;stringi&#45;&gt;conda&#45;forge&#45;pinning</title>
<path fill="none" stroke="black" d="M1001.29,-72.76C990.63,-63.77 977.19,-52.44 965.4,-42.49"/>
<polygon fill="black" stroke="black" points="967.46,-39.65 957.56,-35.88 962.94,-45 967.46,-39.65"/>
</g>
<!-- r&#45;v8&#45;&gt;conda&#45;forge&#45;pinning -->
<g id="edge37" class="edge">
<title>r&#45;v8&#45;&gt;conda&#45;forge&#45;pinning</title>
<path fill="none" stroke="black" d="M891.64,-73.46C898.96,-64.78 908.25,-53.75 916.56,-43.89"/>
<polygon fill="black" stroke="black" points="919.48,-45.86 923.25,-35.96 914.13,-41.35 919.48,-45.86"/>
</g>
<!-- igraph -->
<g id="node13" class="node">
<title>igraph</title>
<g id="a_node13"><a xlink:href="https://github.com/conda-forge/igraph-feedstock/pull/18" xlink:title="igraph">
<ellipse fill="#31688e" stroke="black" cx="789.54" cy="-90" rx="40.5" ry="18"/>
<text text-anchor="middle" x="789.54" y="-86.3" font-family="Times,serif" font-size="14.00" fill="white">igraph</text>
</a>
</g>
</g>
<!-- igraph&#45;&gt;conda&#45;forge&#45;pinning -->
<g id="edge24" class="edge">
<title>igraph&#45;&gt;conda&#45;forge&#45;pinning</title>
<path fill="none" stroke="black" d="M816.35,-76.32C838.06,-66.05 869.08,-51.38 894.31,-39.45"/>
<polygon fill="black" stroke="black" points="896.11,-42.47 903.66,-35.03 893.12,-36.14 896.11,-42.47"/>
</g>
<!-- matplotlib -->
<g id="node14" class="node">
<title>matplotlib</title>
<g id="a_node14"><a xlink:href="https://github.com/conda-forge/matplotlib-feedstock" xlink:title="matplotlib">
<ellipse fill="#fde725" stroke="black" cx="592.54" cy="-162" rx="60" ry="18"/>
<text text-anchor="middle" x="592.54" y="-158.3" font-family="Times,serif" font-size="14.00">matplotlib</text>
</a>
</g>
</g>
<!-- matplotlib&#45;&gt;conda&#45;forge&#45;pinning -->
<g id="edge25" class="edge">
<title>matplotlib&#45;&gt;conda&#45;forge&#45;pinning</title>
<path fill="none" stroke="black" d="M588.71,-143.76C585.36,-123.75 583.51,-91.07 601.54,-72 631.75,-40.07 740.43,-27.35 826.11,-22.3"/>
<polygon fill="black" stroke="black" points="826.39,-25.79 836.18,-21.74 826,-18.8 826.39,-25.79"/>
</g>
<!-- alps -->
<g id="node15" class="node">
<title>alps</title>
<g id="a_node15"><a xlink:href="https://github.com/conda-forge/alps-feedstock" xlink:title="alps">
<ellipse fill="#fde725" stroke="black" cx="523.54" cy="-90" rx="30.59" ry="18"/>
<text text-anchor="middle" x="523.54" y="-86.3" font-family="Times,serif" font-size="14.00">alps</text>
</a>
</g>
</g>
<!-- matplotlib&#45;&gt;alps -->
<g id="edge26" class="edge">
<title>matplotlib&#45;&gt;alps</title>
<path fill="none" stroke="black" d="M576.19,-144.41C567.05,-135.13 555.52,-123.44 545.59,-113.36"/>
<polygon fill="black" stroke="black" points="547.88,-110.7 538.37,-106.04 542.89,-115.62 547.88,-110.7"/>
</g>
<!-- alps&#45;&gt;conda&#45;forge&#45;pinning -->
<g id="edge27" class="edge">
<title>alps&#45;&gt;conda&#45;forge&#45;pinning</title>
<path fill="none" stroke="black" d="M547.52,-78.84C554.23,-76.3 561.59,-73.79 568.54,-72 657.44,-49.12 761.09,-35.32 835.87,-27.57"/>
<polygon fill="black" stroke="black" points="836.63,-31.01 846.23,-26.51 835.92,-24.05 836.63,-31.01"/>
</g>
<!-- octave -->
<g id="node16" class="node">
<title>octave</title>
<g id="a_node16"><a xlink:href="https://github.com/conda-forge/octave-feedstock" xlink:title="octave">
<ellipse fill="#fde725" stroke="black" cx="651.54" cy="-90" rx="40.5" ry="18"/>
<text text-anchor="middle" x="651.54" y="-86.3" font-family="Times,serif" font-size="14.00">octave</text>
</a>
</g>
</g>
<!-- octave&#45;&gt;conda&#45;forge&#45;pinning -->
<g id="edge28" class="edge">
<title>octave&#45;&gt;conda&#45;forge&#45;pinning</title>
<path fill="none" stroke="black" d="M683.42,-78.71C690.97,-76.39 699.02,-74.02 706.54,-72 758.93,-57.92 818.61,-44.28 864.19,-34.37"/>
<polygon fill="black" stroke="black" points="864.96,-37.79 873.99,-32.25 863.48,-30.95 864.96,-37.79"/>
</g>
<!-- python&#45;igraph -->
<g id="node17" class="node">
<title>python&#45;igraph</title>
<g id="a_node17"><a xlink:href="https://github.com/conda-forge/python-igraph-feedstock/pull/31" xlink:title="python igraph">
<ellipse fill="#31688e" stroke="black" cx="1146.54" cy="-162" rx="74.19" ry="18"/>
<text text-anchor="middle" x="1146.54" y="-158.3" font-family="Times,serif" font-size="14.00" fill="white">python igraph</text>
</a>
</g>
</g>
<!-- python&#45;igraph&#45;&gt;conda&#45;forge&#45;pinning -->
<g id="edge29" class="edge">
<title>python&#45;igraph&#45;&gt;conda&#45;forge&#45;pinning</title>
<path fill="none" stroke="black" d="M1154.72,-143.95C1162.75,-124.43 1171.67,-92.51 1155.54,-72 1139.74,-51.9 1082.81,-38.47 1031.09,-30.17"/>
<polygon fill="black" stroke="black" points="1031.59,-26.7 1021.17,-28.62 1030.52,-33.62 1031.59,-26.7"/>
</g>
<!-- qt -->
<g id="node18" class="node">
<title>qt</title>
<g id="a_node18"><a xlink:href="https://github.com/conda-forge/qt-feedstock/pull/155" xlink:title="qt">
<ellipse fill="#31688e" stroke="black" cx="536.54" cy="-234" rx="27" ry="18"/>
<text text-anchor="middle" x="536.54" y="-230.3" font-family="Times,serif" font-size="14.00" fill="white">qt</text>
</a>
</g>
</g>
<!-- qt&#45;&gt;gdal -->
<g id="edge30" class="edge">
<title>qt&#45;&gt;gdal</title>
<path fill="none" stroke="black" d="M513.87,-224.13C483.09,-212.1 427.8,-190.47 391.9,-176.43"/>
<polygon fill="black" stroke="black" points="392.91,-173.07 382.32,-172.69 390.36,-179.59 392.91,-173.07"/>
</g>
<!-- qt&#45;&gt;conda&#45;forge&#45;pinning -->
<g id="edge31" class="edge">
<title>qt&#45;&gt;conda&#45;forge&#45;pinning</title>
<path fill="none" stroke="black" d="M561.69,-227.24C577.41,-223.74 598.1,-219.33 616.54,-216 723.55,-196.69 763.74,-233.26 858.54,-180 894.86,-159.6 900.33,-145.46 918.54,-108 928.01,-88.52 932.79,-64.38 935.18,-46.16"/>
<polygon fill="black" stroke="black" points="938.66,-46.53 936.34,-36.19 931.71,-45.72 938.66,-46.53"/>
</g>
<!-- qt&#45;&gt;qgis -->
<g id="edge32" class="edge">
<title>qt&#45;&gt;qgis</title>
<path fill="none" stroke="black" d="M513.57,-224.35C491.91,-215.44 459.31,-200.05 435.54,-180 413.73,-161.6 394.58,-135.05 382.21,-115.74"/>
<polygon fill="black" stroke="black" points="385.12,-113.79 376.86,-107.17 379.19,-117.5 385.12,-113.79"/>
</g>
<!-- qt&#45;&gt;libgd -->
<g id="edge33" class="edge">
<title>qt&#45;&gt;libgd</title>
<path fill="none" stroke="black" d="M524.18,-217.81C516.84,-208.8 507.37,-197.18 499.05,-186.95"/>
<polygon fill="black" stroke="black" points="501.71,-184.68 492.68,-179.13 496.28,-189.1 501.71,-184.68"/>
</g>
<!-- qt&#45;&gt;matplotlib -->
<g id="edge34" class="edge">
<title>qt&#45;&gt;matplotlib</title>
<path fill="none" stroke="black" d="M548.69,-217.81C555.73,-209.02 564.76,-197.73 572.79,-187.69"/>
<polygon fill="black" stroke="black" points="575.73,-189.62 579.24,-179.63 570.26,-185.25 575.73,-189.62"/>
</g>
<!-- qt&#45;&gt;octave -->
<g id="edge35" class="edge">
<title>qt&#45;&gt;octave</title>
<path fill="none" stroke="black" d="M562.95,-230.22C592.68,-225.52 639.68,-213.02 661.54,-180 673.7,-161.65 669.35,-136.38 663.04,-117.45"/>
<polygon fill="black" stroke="black" points="666.27,-116.11 659.53,-107.94 659.71,-118.53 666.27,-116.11"/>
</g>
<!-- root5 -->
<g id="node19" class="node">
<title>root5</title>
<g id="a_node19"><a xlink:href="https://github.com/conda-forge/root5-feedstock" xlink:title="root5">
<ellipse fill="#35b779" stroke="black" cx="1223.54" cy="-234" rx="35.19" ry="18"/>
<text text-anchor="middle" x="1223.54" y="-230.3" font-family="Times,serif" font-size="14.00">root5</text>
</a>
</g>
</g>
<!-- root5&#45;&gt;conda&#45;forge&#45;pinning -->
<g id="edge38" class="edge">
<title>root5&#45;&gt;conda&#45;forge&#45;pinning</title>
<path fill="none" stroke="black" d="M1228.46,-216.1C1232.93,-197.82 1237.68,-168.06 1229.54,-144 1216.64,-105.85 1208.46,-93.7 1174.54,-72 1135.5,-47.02 1086.28,-33.72 1042.83,-26.67"/>
<polygon fill="black" stroke="black" points="1043.2,-23.19 1032.79,-25.14 1042.15,-30.11 1043.2,-23.19"/>
</g>
<!-- pyicu -->
<g id="node20" class="node">
<title>pyicu</title>
<g id="a_node20"><a xlink:href="https://github.com/conda-forge/pyicu-feedstock/pull/16" xlink:title="pyicu">
<ellipse fill="#31688e" stroke="black" cx="1286.54" cy="-306" rx="35.19" ry="18"/>
<text text-anchor="middle" x="1286.54" y="-302.3" font-family="Times,serif" font-size="14.00" fill="white">pyicu</text>
</a>
</g>
</g>
<!-- pyicu&#45;&gt;conda&#45;forge&#45;pinning -->
<g id="edge39" class="edge">
<title>pyicu&#45;&gt;conda&#45;forge&#45;pinning</title>
<path fill="none" stroke="black" d="M1286.76,-287.82C1286.28,-243.39 1278.15,-124.51 1207.54,-72 1180.34,-51.76 1100.28,-37.67 1034.35,-29.13"/>
<polygon fill="black" stroke="black" points="1034.67,-25.65 1024.31,-27.86 1033.79,-32.59 1034.67,-25.65"/>
</g>
<!-- mdsplus -->
<g id="node21" class="node">
<title>mdsplus</title>
<g id="a_node21"><a xlink:href="https://github.com/conda-forge/mdsplus-feedstock" xlink:title="mdsplus">
<ellipse fill="#35b779" stroke="black" cx="1390.54" cy="-378" rx="45" ry="18"/>
<text text-anchor="middle" x="1390.54" y="-374.3" font-family="Times,serif" font-size="14.00">mdsplus</text>
</a>
</g>
</g>
<!-- mdsplus&#45;&gt;conda&#45;forge&#45;pinning -->
<g id="edge40" class="edge">
<title>mdsplus&#45;&gt;conda&#45;forge&#45;pinning</title>
<path fill="none" stroke="black" d="M1392.58,-359.84C1399.65,-298.63 1421.73,-93.5 1402.54,-72 1379.23,-45.88 1176.47,-30.9 1046.5,-23.91"/>
<polygon fill="black" stroke="black" points="1046.67,-20.41 1036.49,-23.38 1046.29,-27.4 1046.67,-20.41"/>
</g>
<!-- ticcutils -->
<g id="node22" class="node">
<title>ticcutils</title>
<g id="a_node22"><a xlink:href="https://github.com/conda-forge/ticcutils-feedstock/pull/10" xlink:title="ticcutils">
<ellipse fill="#31688e" stroke="black" cx="1338.54" cy="-90" rx="54.69" ry="18"/>
<text text-anchor="middle" x="1338.54" y="-86.3" font-family="Times,serif" font-size="14.00" fill="white">ticcutils</text>
</a>
</g>
</g>
<!-- ticcutils&#45;&gt;conda&#45;forge&#45;pinning -->
<g id="edge41" class="edge">
<title>ticcutils&#45;&gt;conda&#45;forge&#45;pinning</title>
<path fill="none" stroke="black" d="M1297.07,-78.19C1288.03,-76 1278.49,-73.81 1269.54,-72 1187.65,-55.41 1093.53,-40.8 1026.47,-31.14"/>
<polygon fill="black" stroke="black" points="1026.75,-27.65 1016.36,-29.7 1025.76,-34.58 1026.75,-27.65"/>
</g>
<!-- scilab -->
<g id="node23" class="node">
<title>scilab</title>
<g id="a_node23"><a xlink:href="https://github.com/conda-forge/scilab-feedstock/pull/14" xlink:title="scilab">
<ellipse fill="#31688e" stroke="black" cx="1459.54" cy="-162" rx="40.5" ry="18"/>
<text text-anchor="middle" x="1459.54" y="-158.3" font-family="Times,serif" font-size="14.00" fill="white">scilab</text>
</a>
</g>
</g>
<!-- scilab&#45;&gt;conda&#45;forge&#45;pinning -->
<g id="edge42" class="edge">
<title>scilab&#45;&gt;conda&#45;forge&#45;pinning</title>
<path fill="none" stroke="black" d="M1460.25,-143.96C1460.07,-123.51 1456.36,-89.77 1435.54,-72 1406.58,-47.27 1183.91,-31.56 1046.31,-24.11"/>
<polygon fill="black" stroke="black" points="1046.32,-20.61 1036.14,-23.57 1045.94,-27.6 1046.32,-20.61"/>
</g>
<!-- ifcopenshell -->
<g id="node24" class="node">
<title>ifcopenshell</title>
<g id="a_node24"><a xlink:href="https://github.com/conda-forge/ifcopenshell-feedstock" xlink:title="ifcopenshell">
<ellipse fill="#35b779" stroke="black" cx="1488.54" cy="-234" rx="69.59" ry="18"/>
<text text-anchor="middle" x="1488.54" y="-230.3" font-family="Times,serif" font-size="14.00">ifcopenshell</text>
</a>
</g>
</g>
<!-- ifcopenshell&#45;&gt;conda&#45;forge&#45;pinning -->
<g id="edge43" class="edge">
<title>ifcopenshell&#45;&gt;conda&#45;forge&#45;pinning</title>
<path fill="none" stroke="black" d="M1497.91,-216.07C1506.65,-198.02 1517.28,-168.69 1509.54,-144 1497.9,-106.82 1493.11,-91.78 1459.54,-72 1392.67,-32.59 1183.47,-22.16 1051.09,-19.6"/>
<polygon fill="black" stroke="black" points="1050.97,-16.09 1040.91,-19.41 1050.84,-23.09 1050.97,-16.09"/>
</g>
<!-- libical -->
<g id="node25" class="node">
<title>libical</title>
<g id="a_node25"><a xlink:href="https://github.com/conda-forge/libical-feedstock/pull/7" xlink:title="libical">
<ellipse fill="#31688e" stroke="black" cx="1568.54" cy="-306" rx="45" ry="18"/>
<text text-anchor="middle" x="1568.54" y="-302.3" font-family="Times,serif" font-size="14.00" fill="white">libical</text>
</a>
</g>
</g>
<!-- libical&#45;&gt;conda&#45;forge&#45;pinning -->
<g id="edge44" class="edge">
<title>libical&#45;&gt;conda&#45;forge&#45;pinning</title>
<path fill="none" stroke="black" d="M1570.7,-287.96C1572.45,-269.82 1573.74,-240.41 1567.54,-216 1549.75,-145.85 1551.67,-112.28 1491.54,-72 1455.52,-47.87 1197.64,-31.52 1046.74,-23.9"/>
<polygon fill="black" stroke="black" points="1046.67,-20.4 1036.51,-23.39 1046.32,-27.39 1046.67,-20.4"/>
</g>
<!-- libv8 -->
<g id="node26" class="node">
<title>libv8</title>
<g id="a_node26"><a xlink:href="https://github.com/conda-forge/libv8-feedstock/pull/12" xlink:title="libv8">
<ellipse fill="#31688e" stroke="black" cx="814.54" cy="-162" rx="35.19" ry="18"/>
<text text-anchor="middle" x="814.54" y="-158.3" font-family="Times,serif" font-size="14.00" fill="white">libv8</text>
</a>
</g>
</g>
<!-- libv8&#45;&gt;conda&#45;forge&#45;pinning -->
<g id="edge45" class="edge">
<title>libv8&#45;&gt;conda&#45;forge&#45;pinning</title>
<path fill="none" stroke="black" d="M787.88,-150.05C770.66,-141.41 749.66,-127.54 739.54,-108 732.19,-93.79 729.8,-84.69 739.54,-72 753.5,-53.82 803.53,-40.52 849.81,-31.79"/>
<polygon fill="black" stroke="black" points="850.71,-35.18 859.92,-29.94 849.45,-28.29 850.71,-35.18"/>
</g>
<!-- libv8&#45;&gt;r&#45;v8 -->
<g id="edge46" class="edge">
<title>libv8&#45;&gt;r&#45;v8</title>
<path fill="none" stroke="black" d="M828.75,-145.46C837.2,-136.22 848.08,-124.32 857.51,-114"/>
<polygon fill="black" stroke="black" points="860.22,-116.23 864.38,-106.49 855.05,-111.51 860.22,-116.23"/>
</g>
<!-- odil -->
<g id="node27" class="node">
<title>odil</title>
<g id="a_node27"><a xlink:href="https://github.com/conda-forge/odil-feedstock" xlink:title="odil">
<ellipse fill="#35b779" stroke="black" cx="1641.54" cy="-378" rx="30.59" ry="18"/>
<text text-anchor="middle" x="1641.54" y="-374.3" font-family="Times,serif" font-size="14.00">odil</text>
</a>
</g>
</g>
<!-- odil&#45;&gt;conda&#45;forge&#45;pinning -->
<g id="edge47" class="edge">
<title>odil&#45;&gt;conda&#45;forge&#45;pinning</title>
<path fill="none" stroke="black" d="M1641.54,-359.95C1641.54,-333.29 1641.54,-280.11 1641.54,-235 1641.54,-235 1641.54,-235 1641.54,-161 1641.54,-42.05 1250.45,-21.53 1051.26,-18.79"/>
<polygon fill="black" stroke="black" points="1051.09,-15.29 1041.04,-18.67 1051,-22.29 1051.09,-15.29"/>
</g>
<!-- nbin -->
<g id="node28" class="node">
<title>nbin</title>
<g id="a_node28"><a xlink:href="https://github.com/conda-forge/nbin-feedstock/pull/1" xlink:title="nbin">
<ellipse fill="#31688e" stroke="black" cx="1700.54" cy="-90" rx="30.59" ry="18"/>
<text text-anchor="middle" x="1700.54" y="-86.3" font-family="Times,serif" font-size="14.00" fill="white">nbin</text>
</a>
</g>
</g>
<!-- nbin&#45;&gt;conda&#45;forge&#45;pinning -->
<g id="edge48" class="edge">
<title>nbin&#45;&gt;conda&#45;forge&#45;pinning</title>
<path fill="none" stroke="black" d="M1676.64,-78.52C1669.94,-75.98 1662.56,-73.55 1655.54,-72 1542.83,-47.1 1219.03,-30.54 1047.39,-23.25"/>
<polygon fill="black" stroke="black" points="1047.45,-19.75 1037.32,-22.82 1047.16,-26.74 1047.45,-19.75"/>
</g>
</g>
</svg>
