<?xml version="1.0" encoding="UTF-8" standalone="no"?>
<!DOCTYPE svg PUBLIC "-//W3C//DTD SVG 1.1//EN"
 "http://www.w3.org/Graphics/SVG/1.1/DTD/svg11.dtd">
<!-- Generated by graphviz version 2.42.3 (20191010.1750)
 -->
<!-- Title: %3 Pages: 1 -->
<svg width="1375pt" height="404pt"
 viewBox="0.00 0.00 1375.05 404.00" xmlns="http://www.w3.org/2000/svg" xmlns:xlink="http://www.w3.org/1999/xlink">
<g id="graph0" class="graph" transform="scale(1 1) rotate(0) translate(4 400)">
<title>%3</title>
<polygon fill="white" stroke="transparent" points="-4,4 -4,-400 1371.05,-400 1371.05,4 -4,4"/>
<!-- gdal -->
<g id="node1" class="node">
<title>gdal</title>
<g id="a_node1"><a xlink:href="https://github.com/conda-forge/gdal-feedstock" xlink:title="gdal">
<ellipse fill="#fde725" stroke="black" cx="167.5" cy="-162" rx="30.59" ry="18"/>
<text text-anchor="middle" x="167.5" y="-158.3" font-family="Times,serif" font-size="14.00">gdal</text>
</a>
</g>
</g>
<!-- qgis -->
<g id="node2" class="node">
<title>qgis</title>
<g id="a_node2"><a xlink:href="https://github.com/conda-forge/qgis-feedstock" xlink:title="qgis">
<ellipse fill="#fde725" stroke="black" cx="129.5" cy="-90" rx="30.59" ry="18"/>
<text text-anchor="middle" x="129.5" y="-86.3" font-family="Times,serif" font-size="14.00">qgis</text>
</a>
</g>
</g>
<!-- gdal&#45;&gt;qgis -->
<g id="edge1" class="edge">
<title>gdal&#45;&gt;qgis</title>
<path fill="none" stroke="black" d="M158.69,-144.76C154.15,-136.4 148.51,-126.02 143.4,-116.61"/>
<polygon fill="black" stroke="black" points="146.38,-114.75 138.53,-107.63 140.22,-118.09 146.38,-114.75"/>
</g>
<!-- conda&#45;forge&#45;pinning -->
<g id="node3" class="node">
<title>conda&#45;forge&#45;pinning</title>
<ellipse fill="none" stroke="black" cx="785.5" cy="-18" rx="103.5" ry="18"/>
<text text-anchor="middle" x="785.5" y="-14.3" font-family="Times,serif" font-size="14.00">conda&#45;forge&#45;pinning</text>
</g>
<!-- gdal&#45;&gt;conda&#45;forge&#45;pinning -->
<g id="edge2" class="edge">
<title>gdal&#45;&gt;conda&#45;forge&#45;pinning</title>
<path fill="none" stroke="black" d="M170.9,-143.95C176.03,-123.17 187.88,-88.75 212.5,-72 249.83,-46.6 520.18,-30.64 675.83,-23.46"/>
<polygon fill="black" stroke="black" points="676.09,-26.95 685.91,-23 675.77,-19.96 676.09,-26.95"/>
</g>
<!-- qgis&#45;&gt;conda&#45;forge&#45;pinning -->
<g id="edge3" class="edge">
<title>qgis&#45;&gt;conda&#45;forge&#45;pinning</title>
<path fill="none" stroke="black" d="M153.41,-78.58C160.12,-76.04 167.5,-73.59 174.5,-72 345.03,-33.17 548.27,-22.35 672.03,-19.58"/>
<polygon fill="black" stroke="black" points="672.36,-23.08 682.28,-19.37 672.21,-16.08 672.36,-23.08"/>
</g>
<!-- igraph -->
<g id="node4" class="node">
<title>igraph</title>
<g id="a_node4"><a xlink:href="https://github.com/conda-forge/igraph-feedstock/pull/18" xlink:title="igraph">
<ellipse fill="#31688e" stroke="black" cx="40.5" cy="-90" rx="40.5" ry="18"/>
<text text-anchor="middle" x="40.5" y="-86.3" font-family="Times,serif" font-size="14.00" fill="white">igraph</text>
</a>
</g>
</g>
<!-- igraph&#45;&gt;conda&#45;forge&#45;pinning -->
<g id="edge4" class="edge">
<title>igraph&#45;&gt;conda&#45;forge&#45;pinning</title>
<path fill="none" stroke="black" d="M69.69,-77.5C76.13,-75.35 82.98,-73.36 89.5,-72 291.63,-29.98 532.96,-20.41 671.81,-18.72"/>
<polygon fill="black" stroke="black" points="672.08,-22.22 682.04,-18.6 672,-15.22 672.08,-22.22"/>
</g>
<!-- libgd -->
<g id="node5" class="node">
<title>libgd</title>
<g id="a_node5"><a xlink:href="https://github.com/conda-forge/libgd-feedstock" xlink:title="libgd">
<ellipse fill="#fde725" stroke="black" cx="289.5" cy="-162" rx="35.19" ry="18"/>
<text text-anchor="middle" x="289.5" y="-158.3" font-family="Times,serif" font-size="14.00">libgd</text>
</a>
</g>
</g>
<!-- libgd&#45;&gt;conda&#45;forge&#45;pinning -->
<g id="edge5" class="edge">
<title>libgd&#45;&gt;conda&#45;forge&#45;pinning</title>
<path fill="none" stroke="black" d="M296.02,-144.3C305.09,-123.54 323.59,-88.8 351.5,-72 404.16,-40.3 563.87,-27.5 674.12,-22.37"/>
<polygon fill="black" stroke="black" points="674.46,-25.86 684.3,-21.91 674.15,-18.86 674.46,-25.86"/>
</g>
<!-- matplotlib -->
<g id="node6" class="node">
<title>matplotlib</title>
<g id="a_node6"><a xlink:href="https://github.com/conda-forge/matplotlib-feedstock" xlink:title="matplotlib">
<ellipse fill="#fde725" stroke="black" cx="402.5" cy="-162" rx="60" ry="18"/>
<text text-anchor="middle" x="402.5" y="-158.3" font-family="Times,serif" font-size="14.00">matplotlib</text>
</a>
</g>
</g>
<!-- matplotlib&#45;&gt;conda&#45;forge&#45;pinning -->
<g id="edge6" class="edge">
<title>matplotlib&#45;&gt;conda&#45;forge&#45;pinning</title>
<path fill="none" stroke="black" d="M385.51,-144.56C367.68,-125.32 344.64,-93.38 363.5,-72 384.09,-48.66 560.57,-33.08 678.69,-25.16"/>
<polygon fill="black" stroke="black" points="679.12,-28.64 688.87,-24.48 678.66,-21.65 679.12,-28.64"/>
</g>
<!-- alps -->
<g id="node7" class="node">
<title>alps</title>
<g id="a_node7"><a xlink:href="https://github.com/conda-forge/alps-feedstock" xlink:title="alps">
<ellipse fill="#fde725" stroke="black" cx="403.5" cy="-90" rx="30.59" ry="18"/>
<text text-anchor="middle" x="403.5" y="-86.3" font-family="Times,serif" font-size="14.00">alps</text>
</a>
</g>
</g>
<!-- matplotlib&#45;&gt;alps -->
<g id="edge7" class="edge">
<title>matplotlib&#45;&gt;alps</title>
<path fill="none" stroke="black" d="M402.75,-143.7C402.86,-135.98 402.99,-126.71 403.11,-118.11"/>
<polygon fill="black" stroke="black" points="406.61,-118.15 403.26,-108.1 399.61,-118.05 406.61,-118.15"/>
</g>
<!-- alps&#45;&gt;conda&#45;forge&#45;pinning -->
<g id="edge8" class="edge">
<title>alps&#45;&gt;conda&#45;forge&#45;pinning</title>
<path fill="none" stroke="black" d="M426.84,-77.94C432.22,-75.71 437.99,-73.57 443.5,-72 523.22,-49.27 616.34,-35.64 685.27,-27.91"/>
<polygon fill="black" stroke="black" points="685.7,-31.39 695.26,-26.81 684.94,-24.43 685.7,-31.39"/>
</g>
<!-- octave -->
<g id="node8" class="node">
<title>octave</title>
<g id="a_node8"><a xlink:href="https://github.com/conda-forge/octave-feedstock" xlink:title="octave">
<ellipse fill="#fde725" stroke="black" cx="492.5" cy="-90" rx="40.5" ry="18"/>
<text text-anchor="middle" x="492.5" y="-86.3" font-family="Times,serif" font-size="14.00">octave</text>
</a>
</g>
</g>
<!-- octave&#45;&gt;conda&#45;forge&#45;pinning -->
<g id="edge9" class="edge">
<title>octave&#45;&gt;conda&#45;forge&#45;pinning</title>
<path fill="none" stroke="black" d="M524.37,-78.67C531.92,-76.36 539.97,-74 547.5,-72 601.65,-57.63 663.41,-43.95 710.45,-34.09"/>
<polygon fill="black" stroke="black" points="711.18,-37.52 720.26,-32.05 709.75,-30.66 711.18,-37.52"/>
</g>
<!-- python&#45;igraph -->
<g id="node9" class="node">
<title>python&#45;igraph</title>
<g id="a_node9"><a xlink:href="https://github.com/conda-forge/python-igraph-feedstock/pull/31" xlink:title="python igraph">
<ellipse fill="#31688e" stroke="black" cx="592.5" cy="-162" rx="74.19" ry="18"/>
<text text-anchor="middle" x="592.5" y="-158.3" font-family="Times,serif" font-size="14.00" fill="white">python igraph</text>
</a>
</g>
</g>
<!-- python&#45;igraph&#45;&gt;conda&#45;forge&#45;pinning -->
<g id="edge10" class="edge">
<title>python&#45;igraph&#45;&gt;conda&#45;forge&#45;pinning</title>
<path fill="none" stroke="black" d="M590.42,-143.67C589.05,-123.89 590.06,-91.72 607.5,-72 627.09,-49.86 655.48,-36.77 683.85,-29.11"/>
<polygon fill="black" stroke="black" points="685.01,-32.42 693.87,-26.61 683.32,-25.63 685.01,-32.42"/>
</g>
<!-- qt -->
<g id="node10" class="node">
<title>qt</title>
<g id="a_node10"><a xlink:href="https://github.com/conda-forge/qt-feedstock/pull/155" xlink:title="qt">
<ellipse fill="#31688e" stroke="black" cx="258.5" cy="-234" rx="27" ry="18"/>
<text text-anchor="middle" x="258.5" y="-230.3" font-family="Times,serif" font-size="14.00" fill="white">qt</text>
</a>
</g>
</g>
<!-- qt&#45;&gt;gdal -->
<g id="edge11" class="edge">
<title>qt&#45;&gt;gdal</title>
<path fill="none" stroke="black" d="M241.38,-219.83C227.92,-209.47 208.93,-194.87 193.57,-183.06"/>
<polygon fill="black" stroke="black" points="195.53,-180.15 185.47,-176.83 191.27,-185.7 195.53,-180.15"/>
</g>
<!-- qt&#45;&gt;qgis -->
<g id="edge12" class="edge">
<title>qt&#45;&gt;qgis</title>
<path fill="none" stroke="black" d="M231.7,-230.75C200.64,-226.54 150.75,-214.48 127.5,-180 115.25,-161.83 117.18,-136.5 121.34,-117.5"/>
<polygon fill="black" stroke="black" points="124.77,-118.24 123.81,-107.69 117.98,-116.53 124.77,-118.24"/>
</g>
<!-- qt&#45;&gt;conda&#45;forge&#45;pinning -->
<g id="edge13" class="edge">
<title>qt&#45;&gt;conda&#45;forge&#45;pinning</title>
<path fill="none" stroke="black" d="M251.17,-216.35C244.2,-198.02 236.07,-167.98 245.5,-144 261.5,-103.32 273.46,-91.66 312.5,-72 373.82,-41.13 554.8,-28 674.28,-22.59"/>
<polygon fill="black" stroke="black" points="674.72,-26.08 684.56,-22.14 674.42,-19.08 674.72,-26.08"/>
</g>
<!-- qt&#45;&gt;libgd -->
<g id="edge14" class="edge">
<title>qt&#45;&gt;libgd</title>
<path fill="none" stroke="black" d="M265.85,-216.41C269.42,-208.34 273.81,-198.43 277.83,-189.35"/>
<polygon fill="black" stroke="black" points="281.14,-190.52 281.99,-179.96 274.74,-187.68 281.14,-190.52"/>
</g>
<!-- qt&#45;&gt;matplotlib -->
<g id="edge15" class="edge">
<title>qt&#45;&gt;matplotlib</title>
<path fill="none" stroke="black" d="M279.75,-222.67C301.65,-212.02 336.31,-195.18 363.22,-182.09"/>
<polygon fill="black" stroke="black" points="364.92,-185.16 372.38,-177.64 361.86,-178.87 364.92,-185.16"/>
</g>
<!-- qt&#45;&gt;octave -->
<g id="edge16" class="edge">
<title>qt&#45;&gt;octave</title>
<path fill="none" stroke="black" d="M284.96,-229.86C336.03,-223.26 445.46,-206.36 471.5,-180 487.41,-163.9 492.11,-138.12 493.15,-118.44"/>
<polygon fill="black" stroke="black" points="496.66,-118.32 493.41,-108.24 489.66,-118.15 496.66,-118.32"/>
</g>
<!-- r&#45;base -->
<g id="node11" class="node">
<title>r&#45;base</title>
<g id="a_node11"><a xlink:href="https://github.com/conda-forge/r-base-feedstock/pull/130" xlink:title="r base">
<ellipse fill="#31688e" stroke="black" cx="725.5" cy="-162" rx="40.5" ry="18"/>
<text text-anchor="middle" x="725.5" y="-158.3" font-family="Times,serif" font-size="14.00" fill="white">r base</text>
</a>
</g>
</g>
<!-- r&#45;base&#45;&gt;conda&#45;forge&#45;pinning -->
<g id="edge17" class="edge">
<title>r&#45;base&#45;&gt;conda&#45;forge&#45;pinning</title>
<path fill="none" stroke="black" d="M695.07,-150.07C666.61,-139.16 627.22,-122.05 618.5,-108 610.06,-94.41 609.05,-84.91 618.5,-72 634.35,-50.34 659.11,-37.32 684.76,-29.55"/>
<polygon fill="black" stroke="black" points="685.91,-32.86 694.61,-26.82 684.04,-26.11 685.91,-32.86"/>
</g>
<!-- r&#45;stringi -->
<g id="node12" class="node">
<title>r&#45;stringi</title>
<g id="a_node12"><a xlink:href="https://github.com/conda-forge/r-stringi-feedstock" xlink:title="r stringi">
<ellipse fill="#fde725" stroke="black" cx="682.5" cy="-90" rx="54.69" ry="18"/>
<text text-anchor="middle" x="682.5" y="-86.3" font-family="Times,serif" font-size="14.00">r stringi</text>
</a>
</g>
</g>
<!-- r&#45;base&#45;&gt;r&#45;stringi -->
<g id="edge18" class="edge">
<title>r&#45;base&#45;&gt;r&#45;stringi</title>
<path fill="none" stroke="black" d="M715.31,-144.41C710.19,-136.08 703.88,-125.8 698.16,-116.49"/>
<polygon fill="black" stroke="black" points="701.13,-114.65 692.92,-107.96 695.17,-118.31 701.13,-114.65"/>
</g>
<!-- r&#45;v8 -->
<g id="node13" class="node">
<title>r&#45;v8</title>
<g id="a_node13"><a xlink:href="https://github.com/conda-forge/r-v8-feedstock" xlink:title="r v8">
<ellipse fill="#fde725" stroke="black" cx="785.5" cy="-90" rx="30.59" ry="18"/>
<text text-anchor="middle" x="785.5" y="-86.3" font-family="Times,serif" font-size="14.00">r v8</text>
</a>
</g>
</g>
<!-- r&#45;base&#45;&gt;r&#45;v8 -->
<g id="edge19" class="edge">
<title>r&#45;base&#45;&gt;r&#45;v8</title>
<path fill="none" stroke="black" d="M739.42,-144.76C747.17,-135.71 756.97,-124.29 765.53,-114.3"/>
<polygon fill="black" stroke="black" points="768.22,-116.54 772.07,-106.67 762.91,-111.98 768.22,-116.54"/>
</g>
<!-- r&#45;stringi&#45;&gt;conda&#45;forge&#45;pinning -->
<g id="edge20" class="edge">
<title>r&#45;stringi&#45;&gt;conda&#45;forge&#45;pinning</title>
<path fill="none" stroke="black" d="M705.36,-73.46C719.13,-64.1 736.91,-52.02 752.23,-41.61"/>
<polygon fill="black" stroke="black" points="754.6,-44.23 760.91,-35.71 750.67,-38.44 754.6,-44.23"/>
</g>
<!-- r&#45;v8&#45;&gt;conda&#45;forge&#45;pinning -->
<g id="edge21" class="edge">
<title>r&#45;v8&#45;&gt;conda&#45;forge&#45;pinning</title>
<path fill="none" stroke="black" d="M785.5,-71.7C785.5,-63.98 785.5,-54.71 785.5,-46.11"/>
<polygon fill="black" stroke="black" points="789,-46.1 785.5,-36.1 782,-46.1 789,-46.1"/>
</g>
<!-- root5 -->
<g id="node14" class="node">
<title>root5</title>
<g id="a_node14"><a xlink:href="https://github.com/conda-forge/root5-feedstock" xlink:title="root5">
<ellipse fill="#35b779" stroke="black" cx="857.5" cy="-234" rx="35.19" ry="18"/>
<text text-anchor="middle" x="857.5" y="-230.3" font-family="Times,serif" font-size="14.00">root5</text>
</a>
</g>
</g>
<!-- root5&#45;&gt;conda&#45;forge&#45;pinning -->
<g id="edge22" class="edge">
<title>root5&#45;&gt;conda&#45;forge&#45;pinning</title>
<path fill="none" stroke="black" d="M859.94,-215.86C861.29,-205.5 862.82,-192.02 863.5,-180 866.26,-131.09 867.3,-113.64 841.5,-72 834.72,-61.07 825.15,-50.87 815.82,-42.4"/>
<polygon fill="black" stroke="black" points="817.96,-39.63 808.12,-35.72 813.38,-44.92 817.96,-39.63"/>
</g>
<!-- texlive&#45;core -->
<g id="node15" class="node">
<title>texlive&#45;core</title>
<g id="a_node15"><a xlink:href="https://github.com/conda-forge/texlive-core-feedstock/pull/38" xlink:title="texlive core">
<ellipse fill="#31688e" stroke="black" cx="860.5" cy="-306" rx="69.59" ry="18"/>
<text text-anchor="middle" x="860.5" y="-302.3" font-family="Times,serif" font-size="14.00" fill="white">texlive core</text>
</a>
</g>
</g>
<!-- texlive&#45;core&#45;&gt;conda&#45;forge&#45;pinning -->
<g id="edge23" class="edge">
<title>texlive&#45;core&#45;&gt;conda&#45;forge&#45;pinning</title>
<path fill="none" stroke="black" d="M878.24,-288.15C887.07,-278.51 896.84,-265.65 901.5,-252 920.56,-196.2 887.62,-106.08 863.5,-72 854.51,-59.3 841.44,-48.72 828.56,-40.44"/>
<polygon fill="black" stroke="black" points="830.09,-37.28 819.73,-35.08 826.46,-43.26 830.09,-37.28"/>
</g>
<!-- pyicu -->
<g id="node16" class="node">
<title>pyicu</title>
<g id="a_node16"><a xlink:href="https://github.com/conda-forge/pyicu-feedstock/pull/16" xlink:title="pyicu">
<ellipse fill="#31688e" stroke="black" cx="958.5" cy="-378" rx="35.19" ry="18"/>
<text text-anchor="middle" x="958.5" y="-374.3" font-family="Times,serif" font-size="14.00" fill="white">pyicu</text>
</a>
</g>
</g>
<!-- pyicu&#45;&gt;conda&#45;forge&#45;pinning -->
<g id="edge24" class="edge">
<title>pyicu&#45;&gt;conda&#45;forge&#45;pinning</title>
<path fill="none" stroke="black" d="M958.5,-359.95C958.5,-333.29 958.5,-280.11 958.5,-235 958.5,-235 958.5,-235 958.5,-161 958.5,-99.31 891.96,-59.52 841.41,-38.19"/>
<polygon fill="black" stroke="black" points="842.44,-34.83 831.86,-34.3 839.8,-41.32 842.44,-34.83"/>
</g>
<!-- mdsplus -->
<g id="node17" class="node">
<title>mdsplus</title>
<g id="a_node17"><a xlink:href="https://github.com/conda-forge/mdsplus-feedstock" xlink:title="mdsplus">
<ellipse fill="#35b779" stroke="black" cx="1031.5" cy="-90" rx="45" ry="18"/>
<text text-anchor="middle" x="1031.5" y="-86.3" font-family="Times,serif" font-size="14.00">mdsplus</text>
</a>
</g>
</g>
<!-- mdsplus&#45;&gt;conda&#45;forge&#45;pinning -->
<g id="edge25" class="edge">
<title>mdsplus&#45;&gt;conda&#45;forge&#45;pinning</title>
<path fill="none" stroke="black" d="M995.94,-78.73C988.21,-76.5 980.08,-74.17 972.5,-72 930.83,-60.09 883.91,-46.79 847.49,-36.5"/>
<polygon fill="black" stroke="black" points="848.08,-33.03 837.51,-33.68 846.18,-39.76 848.08,-33.03"/>
</g>
<!-- ticcutils -->
<g id="node18" class="node">
<title>ticcutils</title>
<g id="a_node18"><a xlink:href="https://github.com/conda-forge/ticcutils-feedstock/pull/10" xlink:title="ticcutils">
<ellipse fill="#31688e" stroke="black" cx="1059.5" cy="-162" rx="54.69" ry="18"/>
<text text-anchor="middle" x="1059.5" y="-158.3" font-family="Times,serif" font-size="14.00" fill="white">ticcutils</text>
</a>
</g>
</g>
<!-- ticcutils&#45;&gt;conda&#45;forge&#45;pinning -->
<g id="edge26" class="edge">
<title>ticcutils&#45;&gt;conda&#45;forge&#45;pinning</title>
<path fill="none" stroke="black" d="M1072.53,-144.37C1086.05,-124.95 1102.98,-92.84 1085.5,-72 1061.18,-43.01 970.34,-29.87 894.93,-23.92"/>
<polygon fill="black" stroke="black" points="895.11,-20.42 884.87,-23.16 894.58,-27.4 895.11,-20.42"/>
</g>
<!-- scilab -->
<g id="node19" class="node">
<title>scilab</title>
<g id="a_node19"><a xlink:href="https://github.com/conda-forge/scilab-feedstock/pull/14" xlink:title="scilab">
<ellipse fill="#31688e" stroke="black" cx="1111.5" cy="-234" rx="40.5" ry="18"/>
<text text-anchor="middle" x="1111.5" y="-230.3" font-family="Times,serif" font-size="14.00" fill="white">scilab</text>
</a>
</g>
</g>
<!-- scilab&#45;&gt;conda&#45;forge&#45;pinning -->
<g id="edge27" class="edge">
<title>scilab&#45;&gt;conda&#45;forge&#45;pinning</title>
<path fill="none" stroke="black" d="M1117.16,-216.11C1127.17,-182.69 1143.31,-108.26 1102.5,-72 1071.95,-44.86 972.57,-31.42 893.13,-24.9"/>
<polygon fill="black" stroke="black" points="893.3,-21.4 883.05,-24.1 892.75,-28.38 893.3,-21.4"/>
</g>
<!-- ifcopenshell -->
<g id="node20" class="node">
<title>ifcopenshell</title>
<g id="a_node20"><a xlink:href="https://github.com/conda-forge/ifcopenshell-feedstock" xlink:title="ifcopenshell">
<ellipse fill="#35b779" stroke="black" cx="1120.5" cy="-306" rx="69.59" ry="18"/>
<text text-anchor="middle" x="1120.5" y="-302.3" font-family="Times,serif" font-size="14.00">ifcopenshell</text>
</a>
</g>
</g>
<!-- ifcopenshell&#45;&gt;conda&#45;forge&#45;pinning -->
<g id="edge28" class="edge">
<title>ifcopenshell&#45;&gt;conda&#45;forge&#45;pinning</title>
<path fill="none" stroke="black" d="M1138.24,-288.15C1147.07,-278.51 1156.84,-265.65 1161.5,-252 1180.92,-195.15 1156.01,-99.13 1126.5,-72 1093.51,-41.68 982.66,-28.7 896.19,-23.14"/>
<polygon fill="black" stroke="black" points="896.24,-19.64 886.04,-22.52 895.81,-26.63 896.24,-19.64"/>
</g>
<!-- libical -->
<g id="node21" class="node">
<title>libical</title>
<g id="a_node21"><a xlink:href="https://github.com/conda-forge/libical-feedstock/pull/7" xlink:title="libical">
<ellipse fill="#31688e" stroke="black" cx="1218.5" cy="-378" rx="45" ry="18"/>
<text text-anchor="middle" x="1218.5" y="-374.3" font-family="Times,serif" font-size="14.00" fill="white">libical</text>
</a>
</g>
</g>
<!-- libical&#45;&gt;conda&#45;forge&#45;pinning -->
<g id="edge29" class="edge">
<title>libical&#45;&gt;conda&#45;forge&#45;pinning</title>
<path fill="none" stroke="black" d="M1218.5,-359.95C1218.5,-333.29 1218.5,-280.11 1218.5,-235 1218.5,-235 1218.5,-235 1218.5,-161 1218.5,-111.22 1193.42,-97.22 1150.5,-72 1107.8,-46.91 983.42,-32.79 891.67,-25.54"/>
<polygon fill="black" stroke="black" points="891.73,-22.04 881.49,-24.76 891.19,-29.01 891.73,-22.04"/>
</g>
<!-- libv8 -->
<g id="node22" class="node">
<title>libv8</title>
<g id="a_node22"><a xlink:href="https://github.com/conda-forge/libv8-feedstock/pull/12" xlink:title="libv8">
<ellipse fill="#31688e" stroke="black" cx="819.5" cy="-162" rx="35.19" ry="18"/>
<text text-anchor="middle" x="819.5" y="-158.3" font-family="Times,serif" font-size="14.00" fill="white">libv8</text>
</a>
</g>
</g>
<!-- libv8&#45;&gt;conda&#45;forge&#45;pinning -->
<g id="edge30" class="edge">
<title>libv8&#45;&gt;conda&#45;forge&#45;pinning</title>
<path fill="none" stroke="black" d="M824.39,-144.11C828.84,-125.83 833.57,-96.08 825.5,-72 822.09,-61.83 815.88,-52.06 809.36,-43.73"/>
<polygon fill="black" stroke="black" points="811.92,-41.35 802.82,-35.93 806.56,-45.84 811.92,-41.35"/>
</g>
<!-- libv8&#45;&gt;r&#45;v8 -->
<g id="edge31" class="edge">
<title>libv8&#45;&gt;r&#45;v8</title>
<path fill="none" stroke="black" d="M811.44,-144.41C807.42,-136.13 802.46,-125.92 797.96,-116.66"/>
<polygon fill="black" stroke="black" points="801.02,-114.94 793.5,-107.47 794.72,-117.99 801.02,-114.94"/>
</g>
<!-- odil -->
<g id="node23" class="node">
<title>odil</title>
<g id="a_node23"><a xlink:href="https://github.com/conda-forge/odil-feedstock" xlink:title="odil">
<ellipse fill="#35b779" stroke="black" cx="1277.5" cy="-90" rx="30.59" ry="18"/>
<text text-anchor="middle" x="1277.5" y="-86.3" font-family="Times,serif" font-size="14.00">odil</text>
</a>
</g>
</g>
<!-- odil&#45;&gt;conda&#45;forge&#45;pinning -->
<g id="edge32" class="edge">
<title>odil&#45;&gt;conda&#45;forge&#45;pinning</title>
<path fill="none" stroke="black" d="M1253.55,-78.72C1246.84,-76.18 1239.48,-73.7 1232.5,-72 1118.9,-44.25 985.38,-30.83 894.03,-24.47"/>
<polygon fill="black" stroke="black" points="894.16,-20.97 883.94,-23.79 893.68,-27.96 894.16,-20.97"/>
</g>
<!-- nbin -->
<g id="node24" class="node">
<title>nbin</title>
<g id="a_node24"><a xlink:href="https://github.com/conda-forge/nbin-feedstock/pull/1" xlink:title="nbin">
<ellipse fill="#31688e" stroke="black" cx="1336.5" cy="-162" rx="30.59" ry="18"/>
<text text-anchor="middle" x="1336.5" y="-158.3" font-family="Times,serif" font-size="14.00" fill="white">nbin</text>
</a>
</g>
</g>
<!-- nbin&#45;&gt;conda&#45;forge&#45;pinning -->
<g id="edge33" class="edge">
<title>nbin&#45;&gt;conda&#45;forge&#45;pinning</title>
<path fill="none" stroke="black" d="M1338.28,-143.68C1339.33,-123.28 1337.52,-89.91 1317.5,-72 1286.79,-44.52 1042.61,-29.66 895.95,-23.13"/>
<polygon fill="black" stroke="black" points="895.71,-19.62 885.57,-22.68 895.4,-26.61 895.71,-19.62"/>
</g>
</g>
</svg>
