<?xml version="1.0" encoding="UTF-8" standalone="no"?>
<!DOCTYPE svg PUBLIC "-//W3C//DTD SVG 1.1//EN"
 "http://www.w3.org/Graphics/SVG/1.1/DTD/svg11.dtd">
<!-- Generated by graphviz version 2.42.3 (20191010.1750)
 -->
<!-- Title: %3 Pages: 1 -->
<svg width="2220pt" height="476pt"
 viewBox="0.00 0.00 2219.55 476.00" xmlns="http://www.w3.org/2000/svg" xmlns:xlink="http://www.w3.org/1999/xlink">
<g id="graph0" class="graph" transform="scale(1 1) rotate(0) translate(4 472)">
<title>%3</title>
<polygon fill="white" stroke="transparent" points="-4,4 -4,-472 2215.55,-472 2215.55,4 -4,4"/>
<!-- boost&#45;cpp -->
<g id="node1" class="node">
<title>boost&#45;cpp</title>
<g id="a_node1"><a xlink:href="https://github.com/conda-forge/boost-cpp-feedstock" xlink:title="boost cpp">
<ellipse fill="#35b779" stroke="black" cx="163" cy="-234" rx="54.69" ry="18"/>
<text text-anchor="middle" x="163" y="-230.3" font-family="Times,serif" font-size="14.00">boost cpp</text>
</a>
</g>
</g>
<!-- gdal -->
<g id="node2" class="node">
<title>gdal</title>
<g id="a_node2"><a xlink:href="https://github.com/conda-forge/gdal-feedstock" xlink:title="gdal">
<ellipse fill="#fde725" stroke="black" cx="324" cy="-162" rx="30.59" ry="18"/>
<text text-anchor="middle" x="324" y="-158.3" font-family="Times,serif" font-size="14.00">gdal</text>
</a>
</g>
</g>
<!-- boost&#45;cpp&#45;&gt;gdal -->
<g id="edge1" class="edge">
<title>boost&#45;cpp&#45;&gt;gdal</title>
<path fill="none" stroke="black" d="M194.81,-219.17C222.52,-207.12 262.55,-189.72 290.69,-177.48"/>
<polygon fill="black" stroke="black" points="292.34,-180.58 300.11,-173.39 289.54,-174.16 292.34,-180.58"/>
</g>
<!-- ifcopenshell -->
<g id="node3" class="node">
<title>ifcopenshell</title>
<g id="a_node3"><a xlink:href="https://github.com/conda-forge/ifcopenshell-feedstock" xlink:title="ifcopenshell">
<ellipse fill="#fde725" stroke="black" cx="167" cy="-162" rx="69.59" ry="18"/>
<text text-anchor="middle" x="167" y="-158.3" font-family="Times,serif" font-size="14.00">ifcopenshell</text>
</a>
</g>
</g>
<!-- boost&#45;cpp&#45;&gt;ifcopenshell -->
<g id="edge2" class="edge">
<title>boost&#45;cpp&#45;&gt;ifcopenshell</title>
<path fill="none" stroke="black" d="M163.99,-215.7C164.43,-207.98 164.96,-198.71 165.45,-190.11"/>
<polygon fill="black" stroke="black" points="168.95,-190.29 166.02,-180.1 161.96,-189.89 168.95,-190.29"/>
</g>
<!-- odil -->
<g id="node4" class="node">
<title>odil</title>
<g id="a_node4"><a xlink:href="https://github.com/conda-forge/odil-feedstock" xlink:title="odil">
<ellipse fill="#fde725" stroke="black" cx="110" cy="-90" rx="30.59" ry="18"/>
<text text-anchor="middle" x="110" y="-86.3" font-family="Times,serif" font-size="14.00">odil</text>
</a>
</g>
</g>
<!-- boost&#45;cpp&#45;&gt;odil -->
<g id="edge3" class="edge">
<title>boost&#45;cpp&#45;&gt;odil</title>
<path fill="none" stroke="black" d="M130.99,-219.26C114.97,-210.54 97.09,-197.56 88,-180 77.59,-159.9 85.54,-134.67 94.66,-116.21"/>
<polygon fill="black" stroke="black" points="97.82,-117.7 99.44,-107.23 91.65,-114.41 97.82,-117.7"/>
</g>
<!-- conda&#45;forge&#45;pinning -->
<g id="node5" class="node">
<title>conda&#45;forge&#45;pinning</title>
<ellipse fill="none" stroke="black" cx="1001" cy="-18" rx="103.5" ry="18"/>
<text text-anchor="middle" x="1001" y="-14.3" font-family="Times,serif" font-size="14.00">conda&#45;forge&#45;pinning</text>
</g>
<!-- boost&#45;cpp&#45;&gt;conda&#45;forge&#45;pinning -->
<g id="edge4" class="edge">
<title>boost&#45;cpp&#45;&gt;conda&#45;forge&#45;pinning</title>
<path fill="none" stroke="black" d="M129.1,-219.7C111.6,-211.05 91.54,-197.99 80,-180 53.98,-139.42 36.9,-107.04 70,-72 97.71,-42.67 647.01,-26.88 888.61,-21.33"/>
<polygon fill="black" stroke="black" points="888.91,-24.82 898.83,-21.09 888.75,-17.82 888.91,-24.82"/>
</g>
<!-- gdal&#45;&gt;conda&#45;forge&#45;pinning -->
<g id="edge5" class="edge">
<title>gdal&#45;&gt;conda&#45;forge&#45;pinning</title>
<path fill="none" stroke="black" d="M327.38,-143.92C332.48,-123.1 344.31,-88.65 369,-72 411.05,-43.65 719.91,-28.66 889.76,-22.48"/>
<polygon fill="black" stroke="black" points="890.13,-25.97 900,-22.11 889.88,-18.97 890.13,-25.97"/>
</g>
<!-- qgis -->
<g id="node6" class="node">
<title>qgis</title>
<g id="a_node6"><a xlink:href="https://github.com/conda-forge/qgis-feedstock" xlink:title="qgis">
<ellipse fill="#fde725" stroke="black" cx="443" cy="-90" rx="30.59" ry="18"/>
<text text-anchor="middle" x="443" y="-86.3" font-family="Times,serif" font-size="14.00">qgis</text>
</a>
</g>
</g>
<!-- gdal&#45;&gt;qgis -->
<g id="edge6" class="edge">
<title>gdal&#45;&gt;qgis</title>
<path fill="none" stroke="black" d="M345,-148.65C364.03,-137.45 392.28,-120.84 413.56,-108.32"/>
<polygon fill="black" stroke="black" points="415.36,-111.32 422.21,-103.23 411.82,-105.28 415.36,-111.32"/>
</g>
<!-- ifcopenshell&#45;&gt;conda&#45;forge&#45;pinning -->
<g id="edge7" class="edge">
<title>ifcopenshell&#45;&gt;conda&#45;forge&#45;pinning</title>
<path fill="none" stroke="black" d="M177.29,-143.96C191.1,-122.85 217.78,-87.74 251,-72 307.17,-45.39 694.92,-29.04 889.76,-22.41"/>
<polygon fill="black" stroke="black" points="890.16,-25.9 900.03,-22.06 889.92,-18.9 890.16,-25.9"/>
</g>
<!-- odil&#45;&gt;conda&#45;forge&#45;pinning -->
<g id="edge8" class="edge">
<title>odil&#45;&gt;conda&#45;forge&#45;pinning</title>
<path fill="none" stroke="black" d="M137.84,-82.39C154.12,-78.77 175.12,-74.52 194,-72 440.66,-39.09 732.59,-26.35 888.87,-21.62"/>
<polygon fill="black" stroke="black" points="889.08,-25.11 898.97,-21.32 888.87,-18.12 889.08,-25.11"/>
</g>
<!-- qgis&#45;&gt;conda&#45;forge&#45;pinning -->
<g id="edge46" class="edge">
<title>qgis&#45;&gt;conda&#45;forge&#45;pinning</title>
<path fill="none" stroke="black" d="M467.54,-78.85C474.68,-76.25 482.56,-73.71 490,-72 625.46,-40.97 785.32,-28.08 889.7,-22.74"/>
<polygon fill="black" stroke="black" points="890.13,-26.22 899.94,-22.23 889.78,-19.23 890.13,-26.22"/>
</g>
<!-- cairo -->
<g id="node7" class="node">
<title>cairo</title>
<g id="a_node7"><a xlink:href="https://github.com/conda-forge/cairo-feedstock" xlink:title="cairo">
<ellipse fill="#fde725" stroke="black" cx="952" cy="-306" rx="35.19" ry="18"/>
<text text-anchor="middle" x="952" y="-302.3" font-family="Times,serif" font-size="14.00">cairo</text>
</a>
</g>
</g>
<!-- cairo&#45;&gt;gdal -->
<g id="edge9" class="edge">
<title>cairo&#45;&gt;gdal</title>
<path fill="none" stroke="black" d="M916.72,-305.22C838.82,-304.79 646.96,-298.62 495,-252 480.41,-247.52 399.77,-204.23 354.63,-179.72"/>
<polygon fill="black" stroke="black" points="356.3,-176.64 345.84,-174.94 352.96,-182.79 356.3,-176.64"/>
</g>
<!-- cairo&#45;&gt;conda&#45;forge&#45;pinning -->
<g id="edge10" class="edge">
<title>cairo&#45;&gt;conda&#45;forge&#45;pinning</title>
<path fill="none" stroke="black" d="M956.23,-287.99C964.54,-254.01 983.02,-175.21 993,-108 996.06,-87.41 998.11,-63.96 999.37,-46.3"/>
<polygon fill="black" stroke="black" points="1002.87,-46.34 1000.05,-36.13 995.89,-45.87 1002.87,-46.34"/>
</g>
<!-- harfbuzz -->
<g id="node8" class="node">
<title>harfbuzz</title>
<g id="a_node8"><a xlink:href="https://github.com/conda-forge/harfbuzz-feedstock" xlink:title="harfbuzz">
<ellipse fill="#fde725" stroke="black" cx="874" cy="-234" rx="50.09" ry="18"/>
<text text-anchor="middle" x="874" y="-230.3" font-family="Times,serif" font-size="14.00">harfbuzz</text>
</a>
</g>
</g>
<!-- cairo&#45;&gt;harfbuzz -->
<g id="edge11" class="edge">
<title>cairo&#45;&gt;harfbuzz</title>
<path fill="none" stroke="black" d="M935.08,-289.81C924.66,-280.47 911.12,-268.31 899.44,-257.83"/>
<polygon fill="black" stroke="black" points="901.48,-254.96 891.7,-250.89 896.81,-260.17 901.48,-254.96"/>
</g>
<!-- r&#45;base -->
<g id="node9" class="node">
<title>r&#45;base</title>
<g id="a_node9"><a xlink:href="https://github.com/conda-forge/r-base-feedstock" xlink:title="r base">
<ellipse fill="#fde725" stroke="black" cx="795" cy="-162" rx="40.5" ry="18"/>
<text text-anchor="middle" x="795" y="-158.3" font-family="Times,serif" font-size="14.00">r base</text>
</a>
</g>
</g>
<!-- cairo&#45;&gt;r&#45;base -->
<g id="edge12" class="edge">
<title>cairo&#45;&gt;r&#45;base</title>
<path fill="none" stroke="black" d="M952.92,-287.83C953.04,-268.2 950.25,-236.18 933,-216 929.61,-212.03 874.78,-191.7 835.27,-177.4"/>
<polygon fill="black" stroke="black" points="836.19,-174.02 825.6,-173.91 833.81,-180.6 836.19,-174.02"/>
</g>
<!-- texlive&#45;core -->
<g id="node10" class="node">
<title>texlive&#45;core</title>
<g id="a_node10"><a xlink:href="https://github.com/conda-forge/texlive-core-feedstock" xlink:title="texlive core">
<ellipse fill="#fde725" stroke="black" cx="1206" cy="-162" rx="69.59" ry="18"/>
<text text-anchor="middle" x="1206" y="-158.3" font-family="Times,serif" font-size="14.00">texlive core</text>
</a>
</g>
</g>
<!-- cairo&#45;&gt;texlive&#45;core -->
<g id="edge13" class="edge">
<title>cairo&#45;&gt;texlive&#45;core</title>
<path fill="none" stroke="black" d="M974.99,-292.15C1019.09,-267.49 1115.89,-213.37 1169.12,-183.62"/>
<polygon fill="black" stroke="black" points="1170.89,-186.64 1177.91,-178.71 1167.47,-180.53 1170.89,-186.64"/>
</g>
<!-- gtk2 -->
<g id="node11" class="node">
<title>gtk2</title>
<g id="a_node11"><a xlink:href="https://github.com/conda-forge/gtk2-feedstock" xlink:title="gtk2">
<ellipse fill="#fde725" stroke="black" cx="706" cy="-162" rx="30.59" ry="18"/>
<text text-anchor="middle" x="706" y="-158.3" font-family="Times,serif" font-size="14.00">gtk2</text>
</a>
</g>
</g>
<!-- cairo&#45;&gt;gtk2 -->
<g id="edge14" class="edge">
<title>cairo&#45;&gt;gtk2</title>
<path fill="none" stroke="black" d="M922.18,-296.47C893.57,-287.6 849.72,-272.2 815,-252 782.42,-233.04 749.52,-204.61 728.52,-185.01"/>
<polygon fill="black" stroke="black" points="730.75,-182.3 721.08,-177.96 725.93,-187.38 730.75,-182.3"/>
</g>
<!-- harfbuzz&#45;&gt;gdal -->
<g id="edge15" class="edge">
<title>harfbuzz&#45;&gt;gdal</title>
<path fill="none" stroke="black" d="M827.07,-227.64C747.41,-218.47 580.68,-198.9 440,-180 414.57,-176.58 386.07,-172.41 363.67,-169.05"/>
<polygon fill="black" stroke="black" points="363.94,-165.56 353.53,-167.53 362.9,-172.48 363.94,-165.56"/>
</g>
<!-- harfbuzz&#45;&gt;conda&#45;forge&#45;pinning -->
<g id="edge16" class="edge">
<title>harfbuzz&#45;&gt;conda&#45;forge&#45;pinning</title>
<path fill="none" stroke="black" d="M895.54,-217.49C907.79,-207.81 922.69,-194.46 933,-180 963.19,-137.64 983.44,-79.81 993.53,-46.23"/>
<polygon fill="black" stroke="black" points="997,-46.81 996.44,-36.23 990.28,-44.85 997,-46.81"/>
</g>
<!-- harfbuzz&#45;&gt;texlive&#45;core -->
<g id="edge17" class="edge">
<title>harfbuzz&#45;&gt;texlive&#45;core</title>
<path fill="none" stroke="black" d="M916.09,-224.26C966.32,-213.8 1052.81,-195.75 1127,-180 1132.63,-178.81 1138.48,-177.56 1144.34,-176.3"/>
<polygon fill="black" stroke="black" points="1145.12,-179.71 1154.16,-174.2 1143.65,-172.87 1145.12,-179.71"/>
</g>
<!-- harfbuzz&#45;&gt;gtk2 -->
<g id="edge18" class="edge">
<title>harfbuzz&#45;&gt;gtk2</title>
<path fill="none" stroke="black" d="M842.11,-220.12C815.96,-209.5 778,-193.97 745,-180 743.16,-179.22 741.28,-178.42 739.38,-177.61"/>
<polygon fill="black" stroke="black" points="740.46,-174.26 729.89,-173.51 737.68,-180.69 740.46,-174.26"/>
</g>
<!-- libgd -->
<g id="node12" class="node">
<title>libgd</title>
<g id="a_node12"><a xlink:href="https://github.com/conda-forge/libgd-feedstock" xlink:title="libgd">
<ellipse fill="#fde725" stroke="black" cx="622" cy="-162" rx="35.19" ry="18"/>
<text text-anchor="middle" x="622" y="-158.3" font-family="Times,serif" font-size="14.00">libgd</text>
</a>
</g>
</g>
<!-- harfbuzz&#45;&gt;libgd -->
<g id="edge19" class="edge">
<title>harfbuzz&#45;&gt;libgd</title>
<path fill="none" stroke="black" d="M832.15,-223.88C789.85,-214.31 722.8,-198.14 666,-180 663.45,-179.19 660.84,-178.31 658.23,-177.39"/>
<polygon fill="black" stroke="black" points="659.41,-174.09 648.81,-173.94 657,-180.66 659.41,-174.09"/>
</g>
<!-- tectonic -->
<g id="node13" class="node">
<title>tectonic</title>
<g id="a_node13"><a xlink:href="https://github.com/conda-forge/tectonic-feedstock" xlink:title="tectonic">
<ellipse fill="#fde725" stroke="black" cx="1068" cy="-162" rx="50.09" ry="18"/>
<text text-anchor="middle" x="1068" y="-158.3" font-family="Times,serif" font-size="14.00">tectonic</text>
</a>
</g>
</g>
<!-- harfbuzz&#45;&gt;tectonic -->
<g id="edge20" class="edge">
<title>harfbuzz&#45;&gt;tectonic</title>
<path fill="none" stroke="black" d="M908.24,-220.65C940.55,-208.99 989.15,-191.45 1024.26,-178.78"/>
<polygon fill="black" stroke="black" points="1025.56,-182.03 1033.78,-175.35 1023.19,-175.45 1025.56,-182.03"/>
</g>
<!-- r&#45;base&#45;&gt;conda&#45;forge&#45;pinning -->
<g id="edge21" class="edge">
<title>r&#45;base&#45;&gt;conda&#45;forge&#45;pinning</title>
<path fill="none" stroke="black" d="M800.29,-144.13C807.38,-124.18 821.83,-91.25 845,-72 866.56,-54.09 894.47,-42.13 920.71,-34.18"/>
<polygon fill="black" stroke="black" points="922.01,-37.45 930.66,-31.33 920.09,-30.72 922.01,-37.45"/>
</g>
<!-- r&#45;stringi -->
<g id="node14" class="node">
<title>r&#45;stringi</title>
<g id="a_node14"><a xlink:href="https://github.com/conda-forge/r-stringi-feedstock" xlink:title="r stringi">
<ellipse fill="#fde725" stroke="black" cx="743" cy="-90" rx="54.69" ry="18"/>
<text text-anchor="middle" x="743" y="-86.3" font-family="Times,serif" font-size="14.00">r stringi</text>
</a>
</g>
</g>
<!-- r&#45;base&#45;&gt;r&#45;stringi -->
<g id="edge22" class="edge">
<title>r&#45;base&#45;&gt;r&#45;stringi</title>
<path fill="none" stroke="black" d="M782.94,-144.76C776.53,-136.14 768.53,-125.36 761.37,-115.73"/>
<polygon fill="black" stroke="black" points="764.13,-113.57 755.36,-107.63 758.51,-117.75 764.13,-113.57"/>
</g>
<!-- r&#45;v8 -->
<g id="node15" class="node">
<title>r&#45;v8</title>
<g id="a_node15"><a xlink:href="https://github.com/conda-forge/r-v8-feedstock" xlink:title="r v8">
<ellipse fill="#fde725" stroke="black" cx="885" cy="-90" rx="30.59" ry="18"/>
<text text-anchor="middle" x="885" y="-86.3" font-family="Times,serif" font-size="14.00">r v8</text>
</a>
</g>
</g>
<!-- r&#45;base&#45;&gt;r&#45;v8 -->
<g id="edge23" class="edge">
<title>r&#45;base&#45;&gt;r&#45;v8</title>
<path fill="none" stroke="black" d="M814.53,-145.81C827.67,-135.59 845.12,-122.02 859.38,-110.93"/>
<polygon fill="black" stroke="black" points="861.59,-113.64 867.34,-104.74 857.3,-108.11 861.59,-113.64"/>
</g>
<!-- texlive&#45;core&#45;&gt;conda&#45;forge&#45;pinning -->
<g id="edge24" class="edge">
<title>texlive&#45;core&#45;&gt;conda&#45;forge&#45;pinning</title>
<path fill="none" stroke="black" d="M1182.88,-144.99C1146.32,-119.66 1075.04,-70.28 1033.39,-41.44"/>
<polygon fill="black" stroke="black" points="1035.2,-38.43 1024.98,-35.61 1031.21,-44.18 1035.2,-38.43"/>
</g>
<!-- gtk2&#45;&gt;conda&#45;forge&#45;pinning -->
<g id="edge25" class="edge">
<title>gtk2&#45;&gt;conda&#45;forge&#45;pinning</title>
<path fill="none" stroke="black" d="M693.38,-145.38C679.39,-126.07 661.03,-93.17 679,-72 705.88,-40.33 807.61,-27.55 889.63,-22.42"/>
<polygon fill="black" stroke="black" points="890,-25.9 899.78,-21.81 889.59,-18.91 890,-25.9"/>
</g>
<!-- gtk2&#45;&gt;qgis -->
<g id="edge26" class="edge">
<title>gtk2&#45;&gt;qgis</title>
<path fill="none" stroke="black" d="M682.56,-150.26C677.19,-148.02 671.45,-145.79 666,-144 631.99,-132.82 535.65,-111.18 481.38,-99.3"/>
<polygon fill="black" stroke="black" points="481.96,-95.84 471.44,-97.13 480.47,-102.68 481.96,-95.84"/>
</g>
<!-- libgd&#45;&gt;conda&#45;forge&#45;pinning -->
<g id="edge36" class="edge">
<title>libgd&#45;&gt;conda&#45;forge&#45;pinning</title>
<path fill="none" stroke="black" d="M625.87,-143.84C631.47,-123.28 643.89,-89.42 668,-72 703.51,-46.34 811.31,-32.57 894.75,-25.55"/>
<polygon fill="black" stroke="black" points="895.11,-29.04 904.8,-24.73 894.54,-22.06 895.11,-29.04"/>
</g>
<!-- tectonic&#45;&gt;conda&#45;forge&#45;pinning -->
<g id="edge45" class="edge">
<title>tectonic&#45;&gt;conda&#45;forge&#45;pinning</title>
<path fill="none" stroke="black" d="M1062.55,-143.86C1056.5,-125.63 1045.99,-96.15 1034,-72 1029.42,-62.78 1023.69,-53.1 1018.31,-44.58"/>
<polygon fill="black" stroke="black" points="1021.24,-42.67 1012.87,-36.18 1015.37,-46.48 1021.24,-42.67"/>
</g>
<!-- r&#45;stringi&#45;&gt;conda&#45;forge&#45;pinning -->
<g id="edge77" class="edge">
<title>r&#45;stringi&#45;&gt;conda&#45;forge&#45;pinning</title>
<path fill="none" stroke="black" d="M783.88,-77.91C825.22,-66.69 889.69,-49.2 937.65,-36.19"/>
<polygon fill="black" stroke="black" points="938.58,-39.56 947.32,-33.56 936.75,-32.81 938.58,-39.56"/>
</g>
<!-- r&#45;v8&#45;&gt;conda&#45;forge&#45;pinning -->
<g id="edge78" class="edge">
<title>r&#45;v8&#45;&gt;conda&#45;forge&#45;pinning</title>
<path fill="none" stroke="black" d="M905.74,-76.49C922.13,-66.6 945.4,-52.55 964.84,-40.82"/>
<polygon fill="black" stroke="black" points="966.71,-43.78 973.46,-35.62 963.09,-37.79 966.71,-43.78"/>
</g>
<!-- fontconfig -->
<g id="node16" class="node">
<title>fontconfig</title>
<g id="a_node16"><a xlink:href="https://github.com/conda-forge/fontconfig-feedstock" xlink:title="fontconfig">
<ellipse fill="#fde725" stroke="black" cx="1149" cy="-378" rx="60" ry="18"/>
<text text-anchor="middle" x="1149" y="-374.3" font-family="Times,serif" font-size="14.00">fontconfig</text>
</a>
</g>
</g>
<!-- fontconfig&#45;&gt;conda&#45;forge&#45;pinning -->
<g id="edge27" class="edge">
<title>fontconfig&#45;&gt;conda&#45;forge&#45;pinning</title>
<path fill="none" stroke="black" d="M1171.13,-361.13C1221.57,-322.99 1336.83,-223.44 1285,-144 1242.02,-78.13 1155.69,-46.73 1089.43,-31.92"/>
<polygon fill="black" stroke="black" points="1089.91,-28.44 1079.4,-29.76 1088.44,-35.28 1089.91,-28.44"/>
</g>
<!-- fontconfig&#45;&gt;cairo -->
<g id="edge28" class="edge">
<title>fontconfig&#45;&gt;cairo</title>
<path fill="none" stroke="black" d="M1111.95,-363.83C1076.9,-351.38 1024.57,-332.79 989.41,-320.29"/>
<polygon fill="black" stroke="black" points="990.57,-316.99 979.98,-316.94 988.23,-323.59 990.57,-316.99"/>
</g>
<!-- fontconfig&#45;&gt;texlive&#45;core -->
<g id="edge29" class="edge">
<title>fontconfig&#45;&gt;texlive&#45;core</title>
<path fill="none" stroke="black" d="M1153.57,-359.85C1163.45,-322.75 1186.87,-234.81 1198.78,-190.1"/>
<polygon fill="black" stroke="black" points="1202.22,-190.8 1201.41,-180.23 1195.45,-188.99 1202.22,-190.8"/>
</g>
<!-- fontconfig&#45;&gt;gtk2 -->
<g id="edge30" class="edge">
<title>fontconfig&#45;&gt;gtk2</title>
<path fill="none" stroke="black" d="M1090.98,-373.04C1008.01,-364.44 855.12,-337.31 761,-252 741.54,-234.36 726.52,-208.26 717.13,-188.88"/>
<polygon fill="black" stroke="black" points="720.25,-187.3 712.86,-179.71 713.91,-190.25 720.25,-187.3"/>
</g>
<!-- fontconfig&#45;&gt;libgd -->
<g id="edge31" class="edge">
<title>fontconfig&#45;&gt;libgd</title>
<path fill="none" stroke="black" d="M1088.82,-377.53C1018.35,-375.97 899.6,-366.44 808,-324 737.14,-291.17 672.62,-223.11 641.53,-186.89"/>
<polygon fill="black" stroke="black" points="643.84,-184.2 634.71,-178.82 638.49,-188.72 643.84,-184.2"/>
</g>
<!-- fontconfig&#45;&gt;tectonic -->
<g id="edge35" class="edge">
<title>fontconfig&#45;&gt;tectonic</title>
<path fill="none" stroke="black" d="M1142.51,-359.85C1128.4,-322.58 1094.87,-234 1078.03,-189.49"/>
<polygon fill="black" stroke="black" points="1081.22,-188.05 1074.41,-179.94 1074.68,-190.53 1081.22,-188.05"/>
</g>
<!-- octave -->
<g id="node17" class="node">
<title>octave</title>
<g id="a_node17"><a xlink:href="https://github.com/conda-forge/octave-feedstock" xlink:title="octave">
<ellipse fill="#fde725" stroke="black" cx="1373" cy="-162" rx="40.5" ry="18"/>
<text text-anchor="middle" x="1373" y="-158.3" font-family="Times,serif" font-size="14.00">octave</text>
</a>
</g>
</g>
<!-- fontconfig&#45;&gt;octave -->
<g id="edge32" class="edge">
<title>fontconfig&#45;&gt;octave</title>
<path fill="none" stroke="black" d="M1198.44,-367.73C1227.04,-360.17 1261.99,-346.86 1286,-324 1324.04,-287.78 1307.61,-261.42 1334,-216 1339.74,-206.12 1346.95,-195.87 1353.6,-187.04"/>
<polygon fill="black" stroke="black" points="1356.41,-189.14 1359.75,-179.08 1350.87,-184.86 1356.41,-189.14"/>
</g>
<!-- qt -->
<g id="node18" class="node">
<title>qt</title>
<g id="a_node18"><a xlink:href="https://github.com/conda-forge/qt-feedstock" xlink:title="qt">
<ellipse fill="#fde725" stroke="black" cx="531" cy="-234" rx="27" ry="18"/>
<text text-anchor="middle" x="531" y="-230.3" font-family="Times,serif" font-size="14.00">qt</text>
</a>
</g>
</g>
<!-- fontconfig&#45;&gt;qt -->
<g id="edge33" class="edge">
<title>fontconfig&#45;&gt;qt</title>
<path fill="none" stroke="black" d="M1090.25,-373.93C979.58,-367.58 744.45,-351.3 668,-324 624.37,-308.42 580.65,-276.5 554.71,-255.42"/>
<polygon fill="black" stroke="black" points="556.87,-252.67 546.94,-249 552.41,-258.07 556.87,-252.67"/>
</g>
<!-- root5 -->
<g id="node19" class="node">
<title>root5</title>
<g id="a_node19"><a xlink:href="https://github.com/conda-forge/root5-feedstock" xlink:title="root5">
<ellipse fill="#fde725" stroke="black" cx="1411" cy="-306" rx="35.19" ry="18"/>
<text text-anchor="middle" x="1411" y="-302.3" font-family="Times,serif" font-size="14.00">root5</text>
</a>
</g>
</g>
<!-- fontconfig&#45;&gt;root5 -->
<g id="edge34" class="edge">
<title>fontconfig&#45;&gt;root5</title>
<path fill="none" stroke="black" d="M1192.26,-365.44C1241.79,-352.21 1322.28,-330.7 1370.58,-317.8"/>
<polygon fill="black" stroke="black" points="1371.62,-321.14 1380.38,-315.18 1369.82,-314.38 1371.62,-321.14"/>
</g>
<!-- octave&#45;&gt;conda&#45;forge&#45;pinning -->
<g id="edge37" class="edge">
<title>octave&#45;&gt;conda&#45;forge&#45;pinning</title>
<path fill="none" stroke="black" d="M1367.36,-143.81C1359.66,-123.21 1343.78,-89.32 1318,-72 1283.63,-48.91 1182.58,-34.78 1103.71,-26.98"/>
<polygon fill="black" stroke="black" points="1104.01,-23.5 1093.72,-26.02 1103.33,-30.46 1104.01,-23.5"/>
</g>
<!-- qt&#45;&gt;gdal -->
<g id="edge38" class="edge">
<title>qt&#45;&gt;gdal</title>
<path fill="none" stroke="black" d="M507.01,-225.52C475.28,-215.55 417.7,-197.16 369,-180 365.67,-178.83 362.21,-177.58 358.76,-176.31"/>
<polygon fill="black" stroke="black" points="359.75,-172.94 349.15,-172.73 357.3,-179.5 359.75,-172.94"/>
</g>
<!-- qt&#45;&gt;conda&#45;forge&#45;pinning -->
<g id="edge39" class="edge">
<title>qt&#45;&gt;conda&#45;forge&#45;pinning</title>
<path fill="none" stroke="black" d="M506.43,-226.19C483.18,-218.56 448.83,-204 428,-180 395.7,-142.79 369.73,-108.34 403,-72 435.05,-36.98 724.35,-24.96 888.51,-20.94"/>
<polygon fill="black" stroke="black" points="888.74,-24.44 898.66,-20.7 888.58,-17.44 888.74,-24.44"/>
</g>
<!-- qt&#45;&gt;qgis -->
<g id="edge42" class="edge">
<title>qt&#45;&gt;qgis</title>
<path fill="none" stroke="black" d="M506.28,-226.23C484.5,-218.82 454.12,-204.57 440,-180 429.26,-161.31 431.11,-136.58 435.02,-117.94"/>
<polygon fill="black" stroke="black" points="438.47,-118.56 437.41,-108.02 431.66,-116.92 438.47,-118.56"/>
</g>
<!-- qt&#45;&gt;libgd -->
<g id="edge40" class="edge">
<title>qt&#45;&gt;libgd</title>
<path fill="none" stroke="black" d="M548.12,-219.83C561.41,-209.61 580.08,-195.24 595.33,-183.51"/>
<polygon fill="black" stroke="black" points="597.6,-186.18 603.39,-177.31 593.33,-180.63 597.6,-186.18"/>
</g>
<!-- qt&#45;&gt;octave -->
<g id="edge41" class="edge">
<title>qt&#45;&gt;octave</title>
<path fill="none" stroke="black" d="M557.85,-231.31C683.66,-223.34 1211.73,-189.62 1285,-180 1298.89,-178.18 1313.9,-175.53 1327.52,-172.87"/>
<polygon fill="black" stroke="black" points="1328.5,-176.24 1337.62,-170.85 1327.13,-169.38 1328.5,-176.24"/>
</g>
<!-- matplotlib -->
<g id="node20" class="node">
<title>matplotlib</title>
<g id="a_node20"><a xlink:href="https://github.com/conda-forge/matplotlib-feedstock" xlink:title="matplotlib">
<ellipse fill="#fde725" stroke="black" cx="509" cy="-162" rx="60" ry="18"/>
<text text-anchor="middle" x="509" y="-158.3" font-family="Times,serif" font-size="14.00">matplotlib</text>
</a>
</g>
</g>
<!-- qt&#45;&gt;matplotlib -->
<g id="edge43" class="edge">
<title>qt&#45;&gt;matplotlib</title>
<path fill="none" stroke="black" d="M525.67,-216.05C523.22,-208.26 520.26,-198.82 517.51,-190.08"/>
<polygon fill="black" stroke="black" points="520.77,-188.77 514.43,-180.28 514.09,-190.86 520.77,-188.77"/>
</g>
<!-- root5&#45;&gt;conda&#45;forge&#45;pinning -->
<g id="edge44" class="edge">
<title>root5&#45;&gt;conda&#45;forge&#45;pinning</title>
<path fill="none" stroke="black" d="M1416.95,-288.19C1426.62,-257.97 1442.71,-193.04 1422,-144 1404.15,-101.73 1389.08,-92.44 1348,-72 1306.01,-51.11 1189.09,-36.18 1102.51,-27.6"/>
<polygon fill="black" stroke="black" points="1102.67,-24.1 1092.38,-26.61 1101.99,-31.06 1102.67,-24.1"/>
</g>
<!-- matplotlib&#45;&gt;conda&#45;forge&#45;pinning -->
<g id="edge73" class="edge">
<title>matplotlib&#45;&gt;conda&#45;forge&#45;pinning</title>
<path fill="none" stroke="black" d="M506.17,-143.84C503.91,-123.59 503.77,-90.37 523,-72 549.18,-46.98 759.39,-31.53 892.18,-24.17"/>
<polygon fill="black" stroke="black" points="892.6,-27.66 902.4,-23.61 892.22,-20.67 892.6,-27.66"/>
</g>
<!-- alps -->
<g id="node30" class="node">
<title>alps</title>
<g id="a_node30"><a xlink:href="https://github.com/conda-forge/alps-feedstock" xlink:title="alps">
<ellipse fill="#fde725" stroke="black" cx="563" cy="-90" rx="30.59" ry="18"/>
<text text-anchor="middle" x="563" y="-86.3" font-family="Times,serif" font-size="14.00">alps</text>
</a>
</g>
</g>
<!-- matplotlib&#45;&gt;alps -->
<g id="edge74" class="edge">
<title>matplotlib&#45;&gt;alps</title>
<path fill="none" stroke="black" d="M521.8,-144.41C528.55,-135.66 536.96,-124.75 544.42,-115.08"/>
<polygon fill="black" stroke="black" points="547.33,-117.04 550.67,-106.99 541.79,-112.77 547.33,-117.04"/>
</g>
<!-- igraph -->
<g id="node21" class="node">
<title>igraph</title>
<g id="a_node21"><a xlink:href="https://github.com/conda-forge/igraph-feedstock" xlink:title="igraph">
<ellipse fill="#fde725" stroke="black" cx="1455" cy="-378" rx="40.5" ry="18"/>
<text text-anchor="middle" x="1455" y="-374.3" font-family="Times,serif" font-size="14.00">igraph</text>
</a>
</g>
</g>
<!-- igraph&#45;&gt;conda&#45;forge&#45;pinning -->
<g id="edge47" class="edge">
<title>igraph&#45;&gt;conda&#45;forge&#45;pinning</title>
<path fill="none" stroke="black" d="M1459.94,-360.12C1467.22,-333.69 1480,-280.81 1480,-235 1480,-235 1480,-235 1480,-161 1480,-104.43 1439.82,-96.86 1389,-72 1340.71,-48.37 1204,-33.71 1106.55,-25.95"/>
<polygon fill="black" stroke="black" points="1106.6,-22.45 1096.36,-25.16 1106.06,-29.43 1106.6,-22.45"/>
</g>
<!-- libxml2 -->
<g id="node22" class="node">
<title>libxml2</title>
<g id="a_node22"><a xlink:href="https://github.com/conda-forge/libxml2-feedstock" xlink:title="libxml2">
<ellipse fill="#35b779" stroke="black" cx="1386" cy="-450" rx="45" ry="18"/>
<text text-anchor="middle" x="1386" y="-446.3" font-family="Times,serif" font-size="14.00">libxml2</text>
</a>
</g>
</g>
<!-- libxml2&#45;&gt;gdal -->
<g id="edge48" class="edge">
<title>libxml2&#45;&gt;gdal</title>
<path fill="none" stroke="black" d="M1341.26,-447.68C1183.47,-442.8 658.65,-424.55 589,-396 476.5,-349.89 472.9,-297.86 383,-216 371.37,-205.41 358.36,-193.71 347.53,-184.01"/>
<polygon fill="black" stroke="black" points="349.87,-181.4 340.08,-177.34 345.2,-186.61 349.87,-181.4"/>
</g>
<!-- libxml2&#45;&gt;ifcopenshell -->
<g id="edge49" class="edge">
<title>libxml2&#45;&gt;ifcopenshell</title>
<path fill="none" stroke="black" d="M1340.87,-448.9C1185.86,-448.16 676.09,-442.17 520,-396 395.19,-359.08 369.69,-329.33 265,-252 246.29,-238.18 244.17,-231.7 227,-216 216.21,-206.13 204.16,-195.43 193.7,-186.24"/>
<polygon fill="black" stroke="black" points="195.89,-183.5 186.07,-179.54 191.28,-188.76 195.89,-183.5"/>
</g>
<!-- libxml2&#45;&gt;conda&#45;forge&#45;pinning -->
<g id="edge50" class="edge">
<title>libxml2&#45;&gt;conda&#45;forge&#45;pinning</title>
<path fill="none" stroke="black" d="M1426.37,-441.78C1452.93,-434.79 1485.99,-421.36 1504,-396 1545.6,-337.45 1518,-306.83 1518,-235 1518,-235 1518,-235 1518,-161 1518,-107.81 1485.19,-96.54 1438,-72 1382.85,-43.32 1221.34,-29.68 1110.91,-23.56"/>
<polygon fill="black" stroke="black" points="1110.89,-20.05 1100.72,-23.01 1110.51,-27.04 1110.89,-20.05"/>
</g>
<!-- libxml2&#45;&gt;r&#45;base -->
<g id="edge51" class="edge">
<title>libxml2&#45;&gt;r&#45;base</title>
<path fill="none" stroke="black" d="M1342.99,-444.64C1283.14,-437.88 1171.74,-422.77 1080,-396 1000.45,-372.78 979.6,-365.72 908,-324 862.84,-297.68 843.05,-296.11 815,-252 803.21,-233.46 798.32,-208.87 796.32,-190.23"/>
<polygon fill="black" stroke="black" points="799.79,-189.7 795.45,-180.04 792.81,-190.3 799.79,-189.7"/>
</g>
<!-- libxml2&#45;&gt;gtk2 -->
<g id="edge52" class="edge">
<title>libxml2&#45;&gt;gtk2</title>
<path fill="none" stroke="black" d="M1341.1,-448.68C1263.95,-446.93 1102.04,-438.06 973,-396 853.28,-356.98 803,-353.88 729,-252 715.92,-234 710.27,-209.21 707.83,-190.36"/>
<polygon fill="black" stroke="black" points="711.3,-189.89 706.76,-180.32 704.34,-190.63 711.3,-189.89"/>
</g>
<!-- libxml2&#45;&gt;fontconfig -->
<g id="edge53" class="edge">
<title>libxml2&#45;&gt;fontconfig</title>
<path fill="none" stroke="black" d="M1351.03,-438.67C1311.08,-426.87 1245.37,-407.46 1199.78,-394"/>
<polygon fill="black" stroke="black" points="1200.67,-390.61 1190.09,-391.14 1198.69,-397.33 1200.67,-390.61"/>
</g>
<!-- libxml2&#45;&gt;octave -->
<g id="edge54" class="edge">
<title>libxml2&#45;&gt;octave</title>
<path fill="none" stroke="black" d="M1382.52,-431.7C1377.89,-407.67 1369.93,-362.74 1367,-324 1363.46,-277.14 1367.15,-222.44 1370.11,-190.38"/>
<polygon fill="black" stroke="black" points="1373.59,-190.71 1371.07,-180.42 1366.62,-190.03 1373.59,-190.71"/>
</g>
<!-- libxml2&#45;&gt;qt -->
<g id="edge55" class="edge">
<title>libxml2&#45;&gt;qt</title>
<path fill="none" stroke="black" d="M1341.11,-448.22C1187.77,-445.25 690.8,-432.84 630,-396 579.72,-365.54 551.33,-298.86 538.81,-261.58"/>
<polygon fill="black" stroke="black" points="542.09,-260.34 535.7,-251.89 535.43,-262.49 542.09,-260.34"/>
</g>
<!-- libxml2&#45;&gt;root5 -->
<g id="edge56" class="edge">
<title>libxml2&#45;&gt;root5</title>
<path fill="none" stroke="black" d="M1389.02,-431.87C1393.28,-407.67 1401.1,-363.21 1406.18,-334.39"/>
<polygon fill="black" stroke="black" points="1409.69,-334.64 1407.97,-324.19 1402.79,-333.43 1409.69,-334.64"/>
</g>
<!-- libxml2&#45;&gt;igraph -->
<g id="edge57" class="edge">
<title>libxml2&#45;&gt;igraph</title>
<path fill="none" stroke="black" d="M1401.66,-433.12C1410.66,-423.99 1422.12,-412.36 1432.11,-402.22"/>
<polygon fill="black" stroke="black" points="1434.88,-404.4 1439.4,-394.82 1429.89,-399.49 1434.88,-404.4"/>
</g>
<!-- libxslt -->
<g id="node23" class="node">
<title>libxslt</title>
<g id="a_node23"><a xlink:href="https://github.com/conda-forge/libxslt-feedstock" xlink:title="libxslt">
<ellipse fill="#fde725" stroke="black" cx="45" cy="-234" rx="45" ry="18"/>
<text text-anchor="middle" x="45" y="-230.3" font-family="Times,serif" font-size="14.00">libxslt</text>
</a>
</g>
</g>
<!-- libxml2&#45;&gt;libxslt -->
<g id="edge58" class="edge">
<title>libxml2&#45;&gt;libxslt</title>
<path fill="none" stroke="black" d="M1340.97,-448.66C1140.73,-446.94 336.31,-437.46 232,-396 158.9,-366.94 94.46,-296.74 63.87,-259.37"/>
<polygon fill="black" stroke="black" points="66.51,-257.08 57.51,-251.48 61.06,-261.47 66.51,-257.08"/>
</g>
<!-- python&#45;igraph -->
<g id="node24" class="node">
<title>python&#45;igraph</title>
<g id="a_node24"><a xlink:href="https://github.com/conda-forge/python-igraph-feedstock" xlink:title="python igraph">
<ellipse fill="#fde725" stroke="black" cx="1620" cy="-306" rx="74.19" ry="18"/>
<text text-anchor="middle" x="1620" y="-302.3" font-family="Times,serif" font-size="14.00">python igraph</text>
</a>
</g>
</g>
<!-- libxml2&#45;&gt;python&#45;igraph -->
<g id="edge59" class="edge">
<title>libxml2&#45;&gt;python&#45;igraph</title>
<path fill="none" stroke="black" d="M1425.22,-440.94C1457.41,-433.06 1503.19,-418.85 1538,-396 1563.86,-379.03 1587.09,-352.14 1602.17,-332.36"/>
<polygon fill="black" stroke="black" points="1605.15,-334.21 1608.31,-324.1 1599.54,-330.04 1605.15,-334.21"/>
</g>
<!-- uwsgi -->
<g id="node25" class="node">
<title>uwsgi</title>
<g id="a_node25"><a xlink:href="https://github.com/conda-forge/uwsgi-feedstock" xlink:title="uwsgi">
<ellipse fill="#fde725" stroke="black" cx="1619" cy="-90" rx="35.19" ry="18"/>
<text text-anchor="middle" x="1619" y="-86.3" font-family="Times,serif" font-size="14.00">uwsgi</text>
</a>
</g>
</g>
<!-- libxml2&#45;&gt;uwsgi -->
<g id="edge60" class="edge">
<title>libxml2&#45;&gt;uwsgi</title>
<path fill="none" stroke="black" d="M1431.31,-449.73C1523.03,-448.59 1722,-431.76 1722,-307 1722,-307 1722,-307 1722,-233 1722,-181.78 1677.54,-136.57 1647.04,-111.58"/>
<polygon fill="black" stroke="black" points="1648.87,-108.56 1638.86,-105.08 1644.51,-114.04 1648.87,-108.56"/>
</g>
<!-- mdsplus -->
<g id="node26" class="node">
<title>mdsplus</title>
<g id="a_node26"><a xlink:href="https://github.com/conda-forge/mdsplus-feedstock" xlink:title="mdsplus">
<ellipse fill="#fde725" stroke="black" cx="1717" cy="-90" rx="45" ry="18"/>
<text text-anchor="middle" x="1717" y="-86.3" font-family="Times,serif" font-size="14.00">mdsplus</text>
</a>
</g>
</g>
<!-- libxml2&#45;&gt;mdsplus -->
<g id="edge61" class="edge">
<title>libxml2&#45;&gt;mdsplus</title>
<path fill="none" stroke="black" d="M1430.13,-446.02C1506.38,-440.17 1658.88,-425.12 1703,-396 1742.2,-370.12 1760,-353.97 1760,-307 1760,-307 1760,-307 1760,-233 1760,-191.06 1742.61,-145.04 1729.95,-117.08"/>
<polygon fill="black" stroke="black" points="1733.1,-115.57 1725.7,-107.98 1726.76,-118.53 1733.1,-115.57"/>
</g>
<!-- ticcutils -->
<g id="node27" class="node">
<title>ticcutils</title>
<g id="a_node27"><a xlink:href="https://github.com/conda-forge/ticcutils-feedstock" xlink:title="ticcutils">
<ellipse fill="#fde725" stroke="black" cx="1835" cy="-90" rx="54.69" ry="18"/>
<text text-anchor="middle" x="1835" y="-86.3" font-family="Times,serif" font-size="14.00">ticcutils</text>
</a>
</g>
</g>
<!-- libxml2&#45;&gt;ticcutils -->
<g id="edge62" class="edge">
<title>libxml2&#45;&gt;ticcutils</title>
<path fill="none" stroke="black" d="M1430.08,-446.16C1512.53,-440.24 1686.52,-424.68 1739,-396 1785.16,-370.78 1817,-359.6 1817,-307 1817,-307 1817,-307 1817,-233 1817,-192.9 1824.15,-146.92 1829.44,-118.42"/>
<polygon fill="black" stroke="black" points="1832.92,-118.88 1831.36,-108.4 1826.04,-117.56 1832.92,-118.88"/>
</g>
<!-- scilab -->
<g id="node28" class="node">
<title>scilab</title>
<g id="a_node28"><a xlink:href="https://github.com/conda-forge/scilab-feedstock" xlink:title="scilab">
<ellipse fill="#fde725" stroke="black" cx="1942" cy="-378" rx="40.5" ry="18"/>
<text text-anchor="middle" x="1942" y="-374.3" font-family="Times,serif" font-size="14.00">scilab</text>
</a>
</g>
</g>
<!-- libxml2&#45;&gt;scilab -->
<g id="edge63" class="edge">
<title>libxml2&#45;&gt;scilab</title>
<path fill="none" stroke="black" d="M1429.02,-444.36C1508.51,-435.68 1683.75,-416.04 1831,-396 1851.89,-393.16 1874.94,-389.68 1894.6,-386.62"/>
<polygon fill="black" stroke="black" points="1895.2,-390.06 1904.54,-385.06 1894.12,-383.15 1895.2,-390.06"/>
</g>
<!-- libical -->
<g id="node29" class="node">
<title>libical</title>
<g id="a_node29"><a xlink:href="https://github.com/conda-forge/libical-feedstock" xlink:title="libical">
<ellipse fill="#fde725" stroke="black" cx="2090" cy="-306" rx="45" ry="18"/>
<text text-anchor="middle" x="2090" y="-302.3" font-family="Times,serif" font-size="14.00">libical</text>
</a>
</g>
</g>
<!-- libxml2&#45;&gt;libical -->
<g id="edge64" class="edge">
<title>libxml2&#45;&gt;libical</title>
<path fill="none" stroke="black" d="M1431.23,-448.72C1553.89,-447.37 1890.43,-439.69 1991,-396 2023.56,-381.85 2052.69,-352.64 2070.78,-331.53"/>
<polygon fill="black" stroke="black" points="2073.67,-333.53 2077.39,-323.61 2068.3,-329.05 2073.67,-333.53"/>
</g>
<!-- libxslt&#45;&gt;gdal -->
<g id="edge65" class="edge">
<title>libxslt&#45;&gt;gdal</title>
<path fill="none" stroke="black" d="M78.59,-222.01C85.32,-219.92 92.37,-217.82 99,-216 133.9,-206.41 231.32,-184.02 285.83,-171.63"/>
<polygon fill="black" stroke="black" points="286.83,-174.99 295.81,-169.37 285.28,-168.17 286.83,-174.99"/>
</g>
<!-- libxslt&#45;&gt;conda&#45;forge&#45;pinning -->
<g id="edge66" class="edge">
<title>libxslt&#45;&gt;conda&#45;forge&#45;pinning</title>
<path fill="none" stroke="black" d="M38.82,-216.12C28.05,-183.37 10.36,-111.05 48,-72 76.76,-42.16 642.82,-26.59 888.64,-21.21"/>
<polygon fill="black" stroke="black" points="888.76,-24.71 898.68,-20.99 888.61,-17.71 888.76,-24.71"/>
</g>
<!-- python&#45;igraph&#45;&gt;conda&#45;forge&#45;pinning -->
<g id="edge67" class="edge">
<title>python&#45;igraph&#45;&gt;conda&#45;forge&#45;pinning</title>
<path fill="none" stroke="black" d="M1619.31,-287.69C1616.52,-243.49 1602.49,-126.1 1532,-72 1499.34,-46.94 1256.08,-31.13 1110.39,-23.8"/>
<polygon fill="black" stroke="black" points="1110.23,-20.29 1100.07,-23.29 1109.89,-27.28 1110.23,-20.29"/>
</g>
<!-- uwsgi&#45;&gt;conda&#45;forge&#45;pinning -->
<g id="edge68" class="edge">
<title>uwsgi&#45;&gt;conda&#45;forge&#45;pinning</title>
<path fill="none" stroke="black" d="M1592.12,-78.37C1585.02,-75.93 1577.3,-73.58 1570,-72 1413.88,-38.17 1229.05,-25.93 1113.39,-21.5"/>
<polygon fill="black" stroke="black" points="1113.23,-17.99 1103.11,-21.12 1112.97,-24.99 1113.23,-17.99"/>
</g>
<!-- mdsplus&#45;&gt;conda&#45;forge&#45;pinning -->
<g id="edge69" class="edge">
<title>mdsplus&#45;&gt;conda&#45;forge&#45;pinning</title>
<path fill="none" stroke="black" d="M1684.46,-77.46C1677.46,-75.34 1670.04,-73.37 1663,-72 1472.74,-34.93 1246.87,-23.69 1114.21,-20.34"/>
<polygon fill="black" stroke="black" points="1114.12,-16.84 1104.04,-20.1 1113.95,-23.84 1114.12,-16.84"/>
</g>
<!-- ticcutils&#45;&gt;conda&#45;forge&#45;pinning -->
<g id="edge70" class="edge">
<title>ticcutils&#45;&gt;conda&#45;forge&#45;pinning</title>
<path fill="none" stroke="black" d="M1796,-77.37C1787.8,-75.29 1779.17,-73.35 1771,-72 1539.85,-33.71 1265.23,-23 1114.37,-20.06"/>
<polygon fill="black" stroke="black" points="1114.23,-16.55 1104.17,-19.87 1114.1,-23.55 1114.23,-16.55"/>
</g>
<!-- scilab&#45;&gt;conda&#45;forge&#45;pinning -->
<g id="edge71" class="edge">
<title>scilab&#45;&gt;conda&#45;forge&#45;pinning</title>
<path fill="none" stroke="black" d="M1957.18,-360.98C1979.09,-336.11 2017,-285.74 2017,-235 2017,-235 2017,-235 2017,-161 2017,-120.46 2027.97,-98.16 1997,-72 1963.71,-43.88 1366.73,-27.21 1113.3,-21.37"/>
<polygon fill="black" stroke="black" points="1113.04,-17.86 1102.96,-21.13 1112.88,-24.86 1113.04,-17.86"/>
</g>
<!-- libical&#45;&gt;conda&#45;forge&#45;pinning -->
<g id="edge72" class="edge">
<title>libical&#45;&gt;conda&#45;forge&#45;pinning</title>
<path fill="none" stroke="black" d="M2088.25,-287.83C2082.87,-238.78 2064.87,-99.79 2031,-72 1996,-43.28 1373.13,-26.85 1113.34,-21.23"/>
<polygon fill="black" stroke="black" points="1113.2,-17.72 1103.13,-21.01 1113.05,-24.72 1113.2,-17.72"/>
</g>
<!-- alps&#45;&gt;conda&#45;forge&#45;pinning -->
<g id="edge75" class="edge">
<title>alps&#45;&gt;conda&#45;forge&#45;pinning</title>
<path fill="none" stroke="black" d="M586.97,-78.8C593.67,-76.26 601.04,-73.76 608,-72 704.33,-47.65 816.96,-33.91 896.89,-26.55"/>
<polygon fill="black" stroke="black" points="897.31,-30.03 906.96,-25.65 896.69,-23.06 897.31,-30.03"/>
</g>
<!-- nodejs -->
<g id="node31" class="node">
<title>nodejs</title>
<g id="a_node31"><a xlink:href="https://github.com/conda-forge/nodejs-feedstock" xlink:title="nodejs">
<ellipse fill="#35b779" stroke="black" cx="1948" cy="-90" rx="40.5" ry="18"/>
<text text-anchor="middle" x="1948" y="-86.3" font-family="Times,serif" font-size="14.00">nodejs</text>
</a>
</g>
</g>
<!-- nodejs&#45;&gt;conda&#45;forge&#45;pinning -->
<g id="edge76" class="edge">
<title>nodejs&#45;&gt;conda&#45;forge&#45;pinning</title>
<path fill="none" stroke="black" d="M1918.82,-77.41C1912.39,-75.27 1905.54,-73.3 1899,-72 1751.76,-42.7 1319.21,-27.52 1112.92,-21.77"/>
<polygon fill="black" stroke="black" points="1112.76,-18.27 1102.67,-21.49 1112.57,-25.26 1112.76,-18.27"/>
</g>
<!-- xerces&#45;c -->
<g id="node32" class="node">
<title>xerces&#45;c</title>
<g id="a_node32"><a xlink:href="https://github.com/conda-forge/xerces-c-feedstock" xlink:title="xerces c">
<ellipse fill="#35b779" stroke="black" cx="324" cy="-234" rx="50.09" ry="18"/>
<text text-anchor="middle" x="324" y="-230.3" font-family="Times,serif" font-size="14.00">xerces c</text>
</a>
</g>
</g>
<!-- xerces&#45;c&#45;&gt;gdal -->
<g id="edge79" class="edge">
<title>xerces&#45;c&#45;&gt;gdal</title>
<path fill="none" stroke="black" d="M324,-215.7C324,-207.98 324,-198.71 324,-190.11"/>
<polygon fill="black" stroke="black" points="327.5,-190.1 324,-180.1 320.5,-190.1 327.5,-190.1"/>
</g>
<!-- xerces&#45;c&#45;&gt;conda&#45;forge&#45;pinning -->
<g id="edge80" class="edge">
<title>xerces&#45;c&#45;&gt;conda&#45;forge&#45;pinning</title>
<path fill="none" stroke="black" d="M307.52,-216.99C298.69,-207.24 288.69,-193.99 284,-180 267.02,-129.3 290.28,-98.01 337,-72 384.05,-45.81 714.13,-29.67 890.49,-22.83"/>
<polygon fill="black" stroke="black" points="890.72,-26.32 900.58,-22.44 890.45,-19.32 890.72,-26.32"/>
</g>
<!-- pyicu -->
<g id="node33" class="node">
<title>pyicu</title>
<g id="a_node33"><a xlink:href="https://github.com/conda-forge/pyicu-feedstock" xlink:title="pyicu">
<ellipse fill="#35b779" stroke="black" cx="2118" cy="-162" rx="35.19" ry="18"/>
<text text-anchor="middle" x="2118" y="-158.3" font-family="Times,serif" font-size="14.00">pyicu</text>
</a>
</g>
</g>
<!-- pyicu&#45;&gt;conda&#45;forge&#45;pinning -->
<g id="edge81" class="edge">
<title>pyicu&#45;&gt;conda&#45;forge&#45;pinning</title>
<path fill="none" stroke="black" d="M2114.05,-144.1C2108.16,-123.13 2094.88,-88.17 2069,-72 1989.72,-22.46 1373.97,-18.07 1115.08,-18.44"/>
<polygon fill="black" stroke="black" points="1114.89,-14.94 1104.89,-18.46 1114.9,-21.94 1114.89,-14.94"/>
</g>
<!-- libv8 -->
<g id="node34" class="node">
<title>libv8</title>
<g id="a_node34"><a xlink:href="https://github.com/conda-forge/libv8-feedstock" xlink:title="libv8">
<ellipse fill="#35b779" stroke="black" cx="889" cy="-162" rx="35.19" ry="18"/>
<text text-anchor="middle" x="889" y="-158.3" font-family="Times,serif" font-size="14.00">libv8</text>
</a>
</g>
</g>
<!-- libv8&#45;&gt;conda&#45;forge&#45;pinning -->
<g id="edge82" class="edge">
<title>libv8&#45;&gt;conda&#45;forge&#45;pinning</title>
<path fill="none" stroke="black" d="M901.63,-144.99C921,-120.43 958.21,-73.26 981.19,-44.12"/>
<polygon fill="black" stroke="black" points="984.1,-46.07 987.55,-36.06 978.61,-41.74 984.1,-46.07"/>
</g>
<!-- libv8&#45;&gt;r&#45;v8 -->
<g id="edge83" class="edge">
<title>libv8&#45;&gt;r&#45;v8</title>
<path fill="none" stroke="black" d="M888.01,-143.7C887.57,-135.98 887.04,-126.71 886.55,-118.11"/>
<polygon fill="black" stroke="black" points="890.04,-117.89 885.98,-108.1 883.05,-118.29 890.04,-117.89"/>
</g>
<!-- nbin -->
<g id="node35" class="node">
<title>nbin</title>
<g id="a_node35"><a xlink:href="https://github.com/conda-forge/nbin-feedstock" xlink:title="nbin">
<ellipse fill="#35b779" stroke="black" cx="2181" cy="-234" rx="30.59" ry="18"/>
<text text-anchor="middle" x="2181" y="-230.3" font-family="Times,serif" font-size="14.00">nbin</text>
</a>
</g>
</g>
<!-- nbin&#45;&gt;conda&#45;forge&#45;pinning -->
<g id="edge84" class="edge">
<title>nbin&#45;&gt;conda&#45;forge&#45;pinning</title>
<path fill="none" stroke="black" d="M2179.9,-215.75C2178.14,-197.18 2173.61,-167.16 2162,-144 2142.95,-105.99 2137.29,-90.5 2099,-72 2012.15,-30.03 1377.66,-21.3 1114.69,-19.48"/>
<polygon fill="black" stroke="black" points="1114.38,-15.98 1104.35,-19.41 1114.33,-22.98 1114.38,-15.98"/>
</g>
</g>
</svg>
