<?xml version="1.0" encoding="UTF-8" standalone="no"?>
<!DOCTYPE svg PUBLIC "-//W3C//DTD SVG 1.1//EN"
 "http://www.w3.org/Graphics/SVG/1.1/DTD/svg11.dtd">
<!-- Generated by graphviz version 2.42.3 (20191010.1750)
 -->
<!-- Title: %3 Pages: 1 -->
<svg width="964pt" height="188pt"
 viewBox="0.00 0.00 964.14 188.00" xmlns="http://www.w3.org/2000/svg" xmlns:xlink="http://www.w3.org/1999/xlink">
<g id="graph0" class="graph" transform="scale(1 1) rotate(0) translate(4 184)">
<title>%3</title>
<polygon fill="white" stroke="transparent" points="-4,4 -4,-184 960.14,-184 960.14,4 -4,4"/>
<!-- libgsasl -->
<g id="node1" class="node">
<title>libgsasl</title>
<g id="a_node1"><a xlink:href="https://github.com/conda-forge/libgsasl-feedstock/pull/16" xlink:title="libgsasl">
<ellipse fill="#31688e" stroke="black" cx="89.05" cy="-162" rx="50.09" ry="18"/>
<text text-anchor="middle" x="89.05" y="-158.3" font-family="Times,serif" font-size="14.00" fill="white">libgsasl</text>
</a>
</g>
</g>
<!-- libhdfs3 -->
<g id="node5" class="node">
<title>libhdfs3</title>
<ellipse fill="#fde725" stroke="black" cx="50.05" cy="-90" rx="50.09" ry="18"/>
<text text-anchor="middle" x="50.05" y="-86.3" font-family="Times,serif" font-size="14.00">libhdfs3</text>
</g>
<!-- libgsasl&#45;&gt;libhdfs3 -->
<g id="edge1" class="edge">
<title>libgsasl&#45;&gt;libhdfs3</title>
<path fill="none" stroke="black" d="M79.6,-144.05C75.01,-135.8 69.38,-125.7 64.27,-116.54"/>
<polygon fill="black" stroke="black" points="67.32,-114.82 59.4,-107.79 61.21,-118.23 67.32,-114.82"/>
</g>
<!-- conda&#45;forge&#45;pinning -->
<g id="node11" class="node">
<title>conda&#45;forge&#45;pinning</title>
<ellipse fill="none" stroke="black" cx="450.05" cy="-18" rx="103.18" ry="18"/>
<text text-anchor="middle" x="450.05" y="-14.3" font-family="Times,serif" font-size="14.00">conda&#45;forge&#45;pinning</text>
</g>
<!-- libgsasl&#45;&gt;conda&#45;forge&#45;pinning -->
<g id="edge2" class="edge">
<title>libgsasl&#45;&gt;conda&#45;forge&#45;pinning</title>
<path fill="none" stroke="black" d="M95.28,-143.82C103.69,-123.24 120.72,-89.37 147.05,-72 179.79,-50.4 274.73,-36.14 349.7,-27.9"/>
<polygon fill="black" stroke="black" points="350.1,-31.38 359.67,-26.83 349.36,-24.42 350.1,-31.38"/>
</g>
<!-- nco -->
<g id="node2" class="node">
<title>nco</title>
<g id="a_node2"><a xlink:href="https://github.com/conda-forge/nco-feedstock/pull/107" xlink:title="nco">
<ellipse fill="#31688e" stroke="black" cx="183.05" cy="-90" rx="27" ry="18"/>
<text text-anchor="middle" x="183.05" y="-86.3" font-family="Times,serif" font-size="14.00" fill="white">nco</text>
</a>
</g>
</g>
<!-- nco&#45;&gt;conda&#45;forge&#45;pinning -->
<g id="edge3" class="edge">
<title>nco&#45;&gt;conda&#45;forge&#45;pinning</title>
<path fill="none" stroke="black" d="M203.67,-78.33C208.62,-76.03 213.95,-73.76 219.05,-72 267.84,-55.1 324.32,-42.03 369.21,-33.1"/>
<polygon fill="black" stroke="black" points="370.05,-36.5 379.19,-31.15 368.7,-29.63 370.05,-36.5"/>
</g>
<!-- postgresql -->
<g id="node3" class="node">
<title>postgresql</title>
<g id="a_node3"><a xlink:href="https://github.com/conda-forge/postgresql-feedstock/pull/64" xlink:title="postgresql">
<ellipse fill="#31688e" stroke="black" cx="288.05" cy="-90" rx="59.59" ry="18"/>
<text text-anchor="middle" x="288.05" y="-86.3" font-family="Times,serif" font-size="14.00" fill="white">postgresql</text>
</a>
</g>
</g>
<!-- postgresql&#45;&gt;conda&#45;forge&#45;pinning -->
<g id="edge4" class="edge">
<title>postgresql&#45;&gt;conda&#45;forge&#45;pinning</title>
<path fill="none" stroke="black" d="M320.83,-74.83C344.71,-64.52 377.38,-50.4 403.89,-38.94"/>
<polygon fill="black" stroke="black" points="405.56,-42.03 413.35,-34.85 402.79,-35.61 405.56,-42.03"/>
</g>
<!-- r&#45;base -->
<g id="node4" class="node">
<title>r&#45;base</title>
<g id="a_node4"><a xlink:href="https://github.com/conda-forge/r-base-feedstock/pull/121" xlink:title="r base">
<ellipse fill="#31688e" stroke="black" cx="406.05" cy="-90" rx="40.09" ry="18"/>
<text text-anchor="middle" x="406.05" y="-86.3" font-family="Times,serif" font-size="14.00" fill="white">r base</text>
</a>
</g>
</g>
<!-- r&#45;base&#45;&gt;conda&#45;forge&#45;pinning -->
<g id="edge5" class="edge">
<title>r&#45;base&#45;&gt;conda&#45;forge&#45;pinning</title>
<path fill="none" stroke="black" d="M416.47,-72.41C421.71,-64.08 428.17,-53.8 434.02,-44.49"/>
<polygon fill="black" stroke="black" points="437.03,-46.29 439.39,-35.96 431.1,-42.56 437.03,-46.29"/>
</g>
<!-- libhdfs3&#45;&gt;conda&#45;forge&#45;pinning -->
<g id="edge6" class="edge">
<title>libhdfs3&#45;&gt;conda&#45;forge&#45;pinning</title>
<path fill="none" stroke="black" d="M88.13,-78.19C96.62,-75.98 105.61,-73.78 114.05,-72 196.49,-54.6 291.4,-40.13 359.28,-30.73"/>
<polygon fill="black" stroke="black" points="360.08,-34.15 369.51,-29.32 359.13,-27.22 360.08,-34.15"/>
</g>
<!-- xrootd -->
<g id="node6" class="node">
<title>xrootd</title>
<g id="a_node6"><a xlink:href="https://github.com/conda-forge/xrootd-feedstock/pull/21" xlink:title="xrootd">
<ellipse fill="#31688e" stroke="black" cx="524.05" cy="-162" rx="40.09" ry="18"/>
<text text-anchor="middle" x="524.05" y="-158.3" font-family="Times,serif" font-size="14.00" fill="white">xrootd</text>
</a>
</g>
</g>
<!-- root -->
<g id="node7" class="node">
<title>root</title>
<ellipse fill="#fde725" stroke="black" cx="495.05" cy="-90" rx="30.59" ry="18"/>
<text text-anchor="middle" x="495.05" y="-86.3" font-family="Times,serif" font-size="14.00">root</text>
</g>
<!-- xrootd&#45;&gt;root -->
<g id="edge7" class="edge">
<title>xrootd&#45;&gt;root</title>
<path fill="none" stroke="black" d="M517.03,-144.05C513.68,-135.97 509.6,-126.12 505.86,-117.11"/>
<polygon fill="black" stroke="black" points="509.06,-115.69 502,-107.79 502.59,-118.37 509.06,-115.69"/>
</g>
<!-- xrootd&#45;&gt;conda&#45;forge&#45;pinning -->
<g id="edge8" class="edge">
<title>xrootd&#45;&gt;conda&#45;forge&#45;pinning</title>
<path fill="none" stroke="black" d="M531.82,-144.11C539.24,-125.31 547.59,-94.6 535.05,-72 527.36,-58.15 514.39,-47.45 500.87,-39.41"/>
<polygon fill="black" stroke="black" points="502.4,-36.26 491.95,-34.5 499.02,-42.39 502.4,-36.26"/>
</g>
<!-- root&#45;&gt;conda&#45;forge&#45;pinning -->
<g id="edge9" class="edge">
<title>root&#45;&gt;conda&#45;forge&#45;pinning</title>
<path fill="none" stroke="black" d="M484.61,-72.76C479.26,-64.44 472.61,-54.1 466.58,-44.73"/>
<polygon fill="black" stroke="black" points="469.41,-42.64 461.05,-36.12 463.52,-46.43 469.41,-42.64"/>
</g>
<!-- libcups -->
<g id="node8" class="node">
<title>libcups</title>
<g id="a_node8"><a xlink:href="https://github.com/conda-forge/libcups-feedstock/pull/5" xlink:title="libcups">
<ellipse fill="#31688e" stroke="black" cx="627.05" cy="-90" rx="44.69" ry="18"/>
<text text-anchor="middle" x="627.05" y="-86.3" font-family="Times,serif" font-size="14.00" fill="white">libcups</text>
</a>
</g>
</g>
<!-- libcups&#45;&gt;conda&#45;forge&#45;pinning -->
<g id="edge10" class="edge">
<title>libcups&#45;&gt;conda&#45;forge&#45;pinning</title>
<path fill="none" stroke="black" d="M596.21,-76.81C569.47,-66.23 530.27,-50.73 499.2,-38.44"/>
<polygon fill="black" stroke="black" points="500.42,-35.16 489.84,-34.74 497.85,-41.67 500.42,-35.16"/>
</g>
<!-- htcondor -->
<g id="node9" class="node">
<title>htcondor</title>
<g id="a_node9"><a xlink:href="https://github.com/conda-forge/htcondor-feedstock/pull/10" xlink:title="htcondor">
<ellipse fill="#31688e" stroke="black" cx="740.05" cy="-90" rx="50.09" ry="18"/>
<text text-anchor="middle" x="740.05" y="-86.3" font-family="Times,serif" font-size="14.00" fill="white">htcondor</text>
</a>
</g>
</g>
<!-- htcondor&#45;&gt;conda&#45;forge&#45;pinning -->
<g id="edge11" class="edge">
<title>htcondor&#45;&gt;conda&#45;forge&#45;pinning</title>
<path fill="none" stroke="black" d="M702.68,-77.9C695.52,-75.86 688.06,-73.81 681.05,-72 628.16,-58.32 568,-44.58 522.34,-34.51"/>
<polygon fill="black" stroke="black" points="523.05,-31.09 512.53,-32.36 521.54,-37.92 523.05,-31.09"/>
</g>
<!-- libtiledb&#45;sql -->
<g id="node10" class="node">
<title>libtiledb&#45;sql</title>
<g id="a_node10"><a xlink:href="https://github.com/conda-forge/libtiledb-sql-feedstock/pull/13" xlink:title="libtiledb sql">
<ellipse fill="#31688e" stroke="black" cx="882.05" cy="-90" rx="74.19" ry="18"/>
<text text-anchor="middle" x="882.05" y="-86.3" font-family="Times,serif" font-size="14.00" fill="white">libtiledb sql</text>
</a>
</g>
</g>
<!-- libtiledb&#45;sql&#45;&gt;conda&#45;forge&#45;pinning -->
<g id="edge12" class="edge">
<title>libtiledb&#45;sql&#45;&gt;conda&#45;forge&#45;pinning</title>
<path fill="none" stroke="black" d="M828.1,-77.53C818.44,-75.6 808.46,-73.68 799.05,-72 710.77,-56.27 609.41,-41.21 538.75,-31.19"/>
<polygon fill="black" stroke="black" points="538.94,-27.68 528.55,-29.75 537.96,-34.61 538.94,-27.68"/>
</g>
</g>
</svg>
