<?xml version="1.0" encoding="UTF-8" standalone="no"?>
<!DOCTYPE svg PUBLIC "-//W3C//DTD SVG 1.1//EN"
 "http://www.w3.org/Graphics/SVG/1.1/DTD/svg11.dtd">
<!-- Generated by graphviz version 2.42.3 (20191010.1750)
 -->
<!-- Title: %3 Pages: 1 -->
<svg width="754pt" height="188pt"
 viewBox="0.00 0.00 754.14 188.00" xmlns="http://www.w3.org/2000/svg" xmlns:xlink="http://www.w3.org/1999/xlink">
<g id="graph0" class="graph" transform="scale(1 1) rotate(0) translate(4 184)">
<title>%3</title>
<polygon fill="white" stroke="transparent" points="-4,4 -4,-184 750.14,-184 750.14,4 -4,4"/>
<!-- libgsasl -->
<g id="node1" class="node">
<title>libgsasl</title>
<g id="a_node1"><a xlink:href="https://github.com/conda-forge/libgsasl-feedstock/pull/16" xlink:title="libgsasl">
<ellipse fill="#31688e" stroke="black" cx="89.05" cy="-162" rx="50.09" ry="18"/>
<text text-anchor="middle" x="89.05" y="-158.3" font-family="Times,serif" font-size="14.00" fill="white">libgsasl</text>
</a>
</g>
</g>
<!-- libhdfs3 -->
<g id="node3" class="node">
<title>libhdfs3</title>
<g id="a_node3"><a xlink:href="https://github.com/conda-forge/libhdfs3-feedstock" xlink:title="libhdfs3">
<ellipse fill="#fde725" stroke="black" cx="50.05" cy="-90" rx="50.09" ry="18"/>
<text text-anchor="middle" x="50.05" y="-86.3" font-family="Times,serif" font-size="14.00">libhdfs3</text>
</a>
</g>
</g>
<!-- libgsasl&#45;&gt;libhdfs3 -->
<g id="edge1" class="edge">
<title>libgsasl&#45;&gt;libhdfs3</title>
<path fill="none" stroke="black" d="M79.6,-144.05C75.01,-135.8 69.38,-125.7 64.27,-116.54"/>
<polygon fill="black" stroke="black" points="67.32,-114.82 59.4,-107.79 61.21,-118.23 67.32,-114.82"/>
</g>
<!-- conda&#45;forge&#45;pinning -->
<g id="node9" class="node">
<title>conda&#45;forge&#45;pinning</title>
<ellipse fill="none" stroke="black" cx="314.05" cy="-18" rx="103.18" ry="18"/>
<text text-anchor="middle" x="314.05" y="-14.3" font-family="Times,serif" font-size="14.00">conda&#45;forge&#45;pinning</text>
</g>
<!-- libgsasl&#45;&gt;conda&#45;forge&#45;pinning -->
<g id="edge2" class="edge">
<title>libgsasl&#45;&gt;conda&#45;forge&#45;pinning</title>
<path fill="none" stroke="black" d="M95.84,-144.04C104.7,-124 122.09,-90.98 147.05,-72 171.41,-53.47 202.43,-41.32 231.1,-33.39"/>
<polygon fill="black" stroke="black" points="232.34,-36.68 241.13,-30.76 230.57,-29.91 232.34,-36.68"/>
</g>
<!-- r&#45;base -->
<g id="node2" class="node">
<title>r&#45;base</title>
<g id="a_node2"><a xlink:href="https://github.com/conda-forge/r-base-feedstock/pull/122" xlink:title="r base">
<ellipse fill="#31688e" stroke="black" cx="196.05" cy="-90" rx="40.09" ry="18"/>
<text text-anchor="middle" x="196.05" y="-86.3" font-family="Times,serif" font-size="14.00" fill="white">r base</text>
</a>
</g>
</g>
<!-- r&#45;base&#45;&gt;conda&#45;forge&#45;pinning -->
<g id="edge3" class="edge">
<title>r&#45;base&#45;&gt;conda&#45;forge&#45;pinning</title>
<path fill="none" stroke="black" d="M219.36,-75.17C235.94,-65.33 258.55,-51.92 277.52,-40.67"/>
<polygon fill="black" stroke="black" points="279.4,-43.62 286.21,-35.51 275.83,-37.6 279.4,-43.62"/>
</g>
<!-- libhdfs3&#45;&gt;conda&#45;forge&#45;pinning -->
<g id="edge4" class="edge">
<title>libhdfs3&#45;&gt;conda&#45;forge&#45;pinning</title>
<path fill="none" stroke="black" d="M88.97,-78.66C97.24,-76.46 105.93,-74.15 114.05,-72 159.5,-59.94 210.76,-46.36 250.01,-35.96"/>
<polygon fill="black" stroke="black" points="250.95,-39.33 259.72,-33.39 249.15,-32.57 250.95,-39.33"/>
</g>
<!-- xrootd -->
<g id="node4" class="node">
<title>xrootd</title>
<g id="a_node4"><a xlink:href="https://github.com/conda-forge/xrootd-feedstock/pull/21" xlink:title="xrootd">
<ellipse fill="#31688e" stroke="black" cx="314.05" cy="-162" rx="40.09" ry="18"/>
<text text-anchor="middle" x="314.05" y="-158.3" font-family="Times,serif" font-size="14.00" fill="white">xrootd</text>
</a>
</g>
</g>
<!-- root -->
<g id="node5" class="node">
<title>root</title>
<g id="a_node5"><a xlink:href="https://github.com/conda-forge/root-feedstock" xlink:title="root">
<ellipse fill="#fde725" stroke="black" cx="285.05" cy="-90" rx="30.59" ry="18"/>
<text text-anchor="middle" x="285.05" y="-86.3" font-family="Times,serif" font-size="14.00">root</text>
</a>
</g>
</g>
<!-- xrootd&#45;&gt;root -->
<g id="edge5" class="edge">
<title>xrootd&#45;&gt;root</title>
<path fill="none" stroke="black" d="M307.03,-144.05C303.68,-135.97 299.6,-126.12 295.86,-117.11"/>
<polygon fill="black" stroke="black" points="299.06,-115.69 292,-107.79 292.59,-118.37 299.06,-115.69"/>
</g>
<!-- xrootd&#45;&gt;conda&#45;forge&#45;pinning -->
<g id="edge6" class="edge">
<title>xrootd&#45;&gt;conda&#45;forge&#45;pinning</title>
<path fill="none" stroke="black" d="M318.51,-143.95C320.98,-133.63 323.8,-120.15 325.05,-108 326.68,-92.08 326.68,-87.92 325.05,-72 324.17,-63.46 322.51,-54.26 320.75,-45.96"/>
<polygon fill="black" stroke="black" points="324.13,-45.03 318.51,-36.05 317.3,-46.57 324.13,-45.03"/>
</g>
<!-- root&#45;&gt;conda&#45;forge&#45;pinning -->
<g id="edge7" class="edge">
<title>root&#45;&gt;conda&#45;forge&#45;pinning</title>
<path fill="none" stroke="black" d="M291.92,-72.41C295.21,-64.45 299.25,-54.72 302.96,-45.76"/>
<polygon fill="black" stroke="black" points="306.22,-47.02 306.82,-36.45 299.76,-44.35 306.22,-47.02"/>
</g>
<!-- libcups -->
<g id="node6" class="node">
<title>libcups</title>
<g id="a_node6"><a xlink:href="https://github.com/conda-forge/libcups-feedstock/pull/5" xlink:title="libcups">
<ellipse fill="#31688e" stroke="black" cx="417.05" cy="-90" rx="44.69" ry="18"/>
<text text-anchor="middle" x="417.05" y="-86.3" font-family="Times,serif" font-size="14.00" fill="white">libcups</text>
</a>
</g>
</g>
<!-- libcups&#45;&gt;conda&#45;forge&#45;pinning -->
<g id="edge8" class="edge">
<title>libcups&#45;&gt;conda&#45;forge&#45;pinning</title>
<path fill="none" stroke="black" d="M395.2,-74.15C381.15,-64.61 362.63,-52.02 346.83,-41.28"/>
<polygon fill="black" stroke="black" points="348.62,-38.27 338.38,-35.54 344.69,-44.05 348.62,-38.27"/>
</g>
<!-- htcondor -->
<g id="node7" class="node">
<title>htcondor</title>
<g id="a_node7"><a xlink:href="https://github.com/conda-forge/htcondor-feedstock/pull/10" xlink:title="htcondor">
<ellipse fill="#31688e" stroke="black" cx="530.05" cy="-90" rx="50.09" ry="18"/>
<text text-anchor="middle" x="530.05" y="-86.3" font-family="Times,serif" font-size="14.00" fill="white">htcondor</text>
</a>
</g>
</g>
<!-- htcondor&#45;&gt;conda&#45;forge&#45;pinning -->
<g id="edge9" class="edge">
<title>htcondor&#45;&gt;conda&#45;forge&#45;pinning</title>
<path fill="none" stroke="black" d="M493.89,-77.28C460.23,-66.38 409.54,-49.95 370.54,-37.31"/>
<polygon fill="black" stroke="black" points="371.49,-33.94 360.9,-34.18 369.33,-40.6 371.49,-33.94"/>
</g>
<!-- libtiledb&#45;sql -->
<g id="node8" class="node">
<title>libtiledb&#45;sql</title>
<g id="a_node8"><a xlink:href="https://github.com/conda-forge/libtiledb-sql-feedstock/pull/13" xlink:title="libtiledb sql">
<ellipse fill="#31688e" stroke="black" cx="672.05" cy="-90" rx="74.19" ry="18"/>
<text text-anchor="middle" x="672.05" y="-86.3" font-family="Times,serif" font-size="14.00" fill="white">libtiledb sql</text>
</a>
</g>
</g>
<!-- libtiledb&#45;sql&#45;&gt;conda&#45;forge&#45;pinning -->
<g id="edge10" class="edge">
<title>libtiledb&#45;sql&#45;&gt;conda&#45;forge&#45;pinning</title>
<path fill="none" stroke="black" d="M617.6,-77.75C608.08,-75.82 598.28,-73.84 589.05,-72 522.38,-58.75 446.51,-44.16 391.38,-33.66"/>
<polygon fill="black" stroke="black" points="391.81,-30.17 381.33,-31.74 390.5,-37.05 391.81,-30.17"/>
</g>
</g>
</svg>
