<?xml version="1.0" encoding="UTF-8" standalone="no"?>
<!DOCTYPE svg PUBLIC "-//W3C//DTD SVG 1.1//EN"
 "http://www.w3.org/Graphics/SVG/1.1/DTD/svg11.dtd">
<!-- Generated by graphviz version 2.42.3 (20191010.1750)
 -->
<!-- Title: %3 Pages: 1 -->
<svg width="916pt" height="232pt"
 viewBox="0.00 0.00 915.84 232.00" xmlns="http://www.w3.org/2000/svg" xmlns:xlink="http://www.w3.org/1999/xlink">
<g id="graph0" class="graph" transform="scale(1 1) rotate(0) translate(4 228)">
<title>%3</title>
<polygon fill="white" stroke="transparent" points="-4,4 -4,-228 911.84,-228 911.84,4 -4,4"/>
<!-- curl -->
<g id="node1" class="node">
<title>curl</title>
<ellipse fill="#fde725" stroke="black" cx="279.05" cy="-206" rx="30.59" ry="18"/>
<text text-anchor="middle" x="279.05" y="-202.3" font-family="Times,serif" font-size="14.00">curl</text>
</g>
<!-- nco -->
<g id="node3" class="node">
<title>nco</title>
<ellipse fill="#fde725" stroke="black" cx="145.05" cy="-134" rx="27" ry="18"/>
<text text-anchor="middle" x="145.05" y="-130.3" font-family="Times,serif" font-size="14.00">nco</text>
</g>
<!-- curl&#45;&gt;nco -->
<g id="edge4" class="edge">
<title>curl&#45;&gt;nco</title>
<path fill="none" stroke="black" d="M256.92,-193.44C234.51,-181.73 199.7,-163.55 174.87,-150.58"/>
<polygon fill="black" stroke="black" points="176.37,-147.41 165.88,-145.88 173.12,-153.62 176.37,-147.41"/>
</g>
<!-- r&#45;base -->
<g id="node5" class="node">
<title>r&#45;base</title>
<ellipse fill="#fde725" stroke="black" cx="230.05" cy="-134" rx="40.09" ry="18"/>
<text text-anchor="middle" x="230.05" y="-130.3" font-family="Times,serif" font-size="14.00">r base</text>
</g>
<!-- curl&#45;&gt;r&#45;base -->
<g id="edge5" class="edge">
<title>curl&#45;&gt;r&#45;base</title>
<path fill="none" stroke="black" d="M267.93,-189.12C261.81,-180.38 254.09,-169.35 247.22,-159.54"/>
<polygon fill="black" stroke="black" points="250.06,-157.49 241.46,-151.31 244.33,-161.51 250.06,-157.49"/>
</g>
<!-- libhdfs3 -->
<g id="node6" class="node">
<title>libhdfs3</title>
<ellipse fill="#fde725" stroke="black" cx="50.05" cy="-134" rx="50.09" ry="18"/>
<text text-anchor="middle" x="50.05" y="-130.3" font-family="Times,serif" font-size="14.00">libhdfs3</text>
</g>
<!-- curl&#45;&gt;libhdfs3 -->
<g id="edge2" class="edge">
<title>curl&#45;&gt;libhdfs3</title>
<path fill="none" stroke="black" d="M252.33,-196.83C214.11,-185.15 143.27,-163.5 96.39,-149.17"/>
<polygon fill="black" stroke="black" points="97.36,-145.8 86.77,-146.23 95.31,-152.5 97.36,-145.8"/>
</g>
<!-- xrootd -->
<g id="node7" class="node">
<title>xrootd</title>
<ellipse fill="#fde725" stroke="black" cx="329.05" cy="-134" rx="40.09" ry="18"/>
<text text-anchor="middle" x="329.05" y="-130.3" font-family="Times,serif" font-size="14.00">xrootd</text>
</g>
<!-- curl&#45;&gt;xrootd -->
<g id="edge6" class="edge">
<title>curl&#45;&gt;xrootd</title>
<path fill="none" stroke="black" d="M290.39,-189.12C296.63,-180.38 304.51,-169.35 311.52,-159.54"/>
<polygon fill="black" stroke="black" points="314.43,-161.48 317.4,-151.31 308.74,-157.41 314.43,-161.48"/>
</g>
<!-- htcondor -->
<g id="node11" class="node">
<title>htcondor</title>
<ellipse fill="#fde725" stroke="black" cx="437.05" cy="-134" rx="50.09" ry="18"/>
<text text-anchor="middle" x="437.05" y="-130.3" font-family="Times,serif" font-size="14.00">htcondor</text>
</g>
<!-- curl&#45;&gt;htcondor -->
<g id="edge1" class="edge">
<title>curl&#45;&gt;htcondor</title>
<path fill="none" stroke="black" d="M302.7,-194.52C327.71,-183.44 367.6,-165.77 397.43,-152.55"/>
<polygon fill="black" stroke="black" points="399,-155.68 406.73,-148.43 396.17,-149.28 399,-155.68"/>
</g>
<!-- libtiledb&#45;sql -->
<g id="node12" class="node">
<title>libtiledb&#45;sql</title>
<ellipse fill="#fde725" stroke="black" cx="579.05" cy="-134" rx="74.19" ry="18"/>
<text text-anchor="middle" x="579.05" y="-130.3" font-family="Times,serif" font-size="14.00">libtiledb sql</text>
</g>
<!-- curl&#45;&gt;libtiledb&#45;sql -->
<g id="edge3" class="edge">
<title>curl&#45;&gt;libtiledb&#45;sql</title>
<path fill="none" stroke="black" d="M307,-198.48C354.77,-187.33 453.2,-164.36 517.63,-149.33"/>
<polygon fill="black" stroke="black" points="518.73,-152.67 527.67,-146.99 517.14,-145.85 518.73,-152.67"/>
</g>
<!-- libgsasl -->
<g id="node2" class="node">
<title>libgsasl</title>
<g id="a_node2"><a xlink:href="https://github.com/conda-forge/libgsasl-feedstock/pull/16" xlink:title="libgsasl">
<ellipse fill="#31688e" stroke="black" cx="50.05" cy="-206" rx="50.09" ry="18"/>
<text text-anchor="middle" x="50.05" y="-202.3" font-family="Times,serif" font-size="14.00" fill="white">libgsasl</text>
</a>
</g>
</g>
<!-- libgsasl&#45;&gt;libhdfs3 -->
<g id="edge7" class="edge">
<title>libgsasl&#45;&gt;libhdfs3</title>
<path fill="none" stroke="black" d="M50.05,-187.7C50.05,-179.98 50.05,-170.71 50.05,-162.11"/>
<polygon fill="black" stroke="black" points="53.55,-162.1 50.05,-152.1 46.55,-162.1 53.55,-162.1"/>
</g>
<!-- postgresql -->
<g id="node4" class="node">
<title>postgresql</title>
<ellipse fill="#fde725" stroke="black" cx="720.05" cy="-134" rx="59.59" ry="18"/>
<text text-anchor="middle" x="720.05" y="-130.3" font-family="Times,serif" font-size="14.00">postgresql</text>
</g>
<!-- root -->
<g id="node8" class="node">
<title>root</title>
<ellipse fill="#fde725" stroke="black" cx="329.05" cy="-62" rx="30.59" ry="18"/>
<text text-anchor="middle" x="329.05" y="-58.3" font-family="Times,serif" font-size="14.00">root</text>
</g>
<!-- xrootd&#45;&gt;root -->
<g id="edge8" class="edge">
<title>xrootd&#45;&gt;root</title>
<path fill="none" stroke="black" d="M329.05,-115.7C329.05,-107.98 329.05,-98.71 329.05,-90.11"/>
<polygon fill="black" stroke="black" points="332.55,-90.1 329.05,-80.1 325.55,-90.1 332.55,-90.1"/>
</g>
<!-- pykerberos -->
<g id="node9" class="node">
<title>pykerberos</title>
<g id="a_node9"><a xlink:href="https://github.com/conda-forge/pykerberos-feedstock/pull/4" xlink:title="pykerberos">
<ellipse fill="#31688e" stroke="black" cx="848.05" cy="-134" rx="59.59" ry="18"/>
<text text-anchor="middle" x="848.05" y="-130.3" font-family="Times,serif" font-size="14.00" fill="white">pykerberos</text>
</a>
</g>
</g>
<!-- libcups -->
<g id="node10" class="node">
<title>libcups</title>
<g id="a_node10"><a xlink:href="https://github.com/conda-forge/libcups-feedstock/pull/5" xlink:title="libcups">
<ellipse fill="#31688e" stroke="black" cx="326.05" cy="-18" rx="44.69" ry="18"/>
<text text-anchor="middle" x="326.05" y="-14.3" font-family="Times,serif" font-size="14.00" fill="white">libcups</text>
</a>
</g>
</g>
</g>
</svg>
