<?xml version="1.0" encoding="UTF-8" standalone="no"?>
<!DOCTYPE svg PUBLIC "-//W3C//DTD SVG 1.1//EN"
 "http://www.w3.org/Graphics/SVG/1.1/DTD/svg11.dtd">
<!-- Generated by graphviz version 2.42.3 (20191010.1750)
 -->
<!-- Title: %3 Pages: 1 -->
<svg width="886pt" height="188pt"
 viewBox="0.00 0.00 885.89 188.00" xmlns="http://www.w3.org/2000/svg" xmlns:xlink="http://www.w3.org/1999/xlink">
<g id="graph0" class="graph" transform="scale(1 1) rotate(0) translate(4 184)">
<title>%3</title>
<polygon fill="white" stroke="transparent" points="-4,4 -4,-184 881.89,-184 881.89,4 -4,4"/>
<!-- curl -->
<g id="node1" class="node">
<title>curl</title>
<ellipse fill="#fde725" stroke="black" cx="279.05" cy="-162" rx="30.59" ry="18"/>
<text text-anchor="middle" x="279.05" y="-158.3" font-family="Times,serif" font-size="14.00">curl</text>
</g>
<!-- nco -->
<g id="node3" class="node">
<title>nco</title>
<ellipse fill="#fde725" stroke="black" cx="145.05" cy="-90" rx="27" ry="18"/>
<text text-anchor="middle" x="145.05" y="-86.3" font-family="Times,serif" font-size="14.00">nco</text>
</g>
<!-- curl&#45;&gt;nco -->
<g id="edge4" class="edge">
<title>curl&#45;&gt;nco</title>
<path fill="none" stroke="black" d="M256.92,-149.44C234.51,-137.73 199.7,-119.55 174.87,-106.58"/>
<polygon fill="black" stroke="black" points="176.37,-103.41 165.88,-101.88 173.12,-109.62 176.37,-103.41"/>
</g>
<!-- r&#45;base -->
<g id="node5" class="node">
<title>r&#45;base</title>
<ellipse fill="#fde725" stroke="black" cx="230.05" cy="-90" rx="40.09" ry="18"/>
<text text-anchor="middle" x="230.05" y="-86.3" font-family="Times,serif" font-size="14.00">r base</text>
</g>
<!-- curl&#45;&gt;r&#45;base -->
<g id="edge5" class="edge">
<title>curl&#45;&gt;r&#45;base</title>
<path fill="none" stroke="black" d="M267.93,-145.12C261.81,-136.38 254.09,-125.35 247.22,-115.54"/>
<polygon fill="black" stroke="black" points="250.06,-113.49 241.46,-107.31 244.33,-117.51 250.06,-113.49"/>
</g>
<!-- libhdfs3 -->
<g id="node6" class="node">
<title>libhdfs3</title>
<ellipse fill="#fde725" stroke="black" cx="50.05" cy="-90" rx="50.09" ry="18"/>
<text text-anchor="middle" x="50.05" y="-86.3" font-family="Times,serif" font-size="14.00">libhdfs3</text>
</g>
<!-- curl&#45;&gt;libhdfs3 -->
<g id="edge2" class="edge">
<title>curl&#45;&gt;libhdfs3</title>
<path fill="none" stroke="black" d="M252.33,-152.83C214.11,-141.15 143.27,-119.5 96.39,-105.17"/>
<polygon fill="black" stroke="black" points="97.36,-101.8 86.77,-102.23 95.31,-108.5 97.36,-101.8"/>
</g>
<!-- xrootd -->
<g id="node7" class="node">
<title>xrootd</title>
<ellipse fill="#fde725" stroke="black" cx="329.05" cy="-90" rx="40.09" ry="18"/>
<text text-anchor="middle" x="329.05" y="-86.3" font-family="Times,serif" font-size="14.00">xrootd</text>
</g>
<!-- curl&#45;&gt;xrootd -->
<g id="edge6" class="edge">
<title>curl&#45;&gt;xrootd</title>
<path fill="none" stroke="black" d="M290.39,-145.12C296.63,-136.38 304.51,-125.35 311.52,-115.54"/>
<polygon fill="black" stroke="black" points="314.43,-117.48 317.4,-107.31 308.74,-113.41 314.43,-117.48"/>
</g>
<!-- htcondor -->
<g id="node10" class="node">
<title>htcondor</title>
<ellipse fill="#fde725" stroke="black" cx="437.05" cy="-90" rx="50.09" ry="18"/>
<text text-anchor="middle" x="437.05" y="-86.3" font-family="Times,serif" font-size="14.00">htcondor</text>
</g>
<!-- curl&#45;&gt;htcondor -->
<g id="edge1" class="edge">
<title>curl&#45;&gt;htcondor</title>
<path fill="none" stroke="black" d="M302.7,-150.52C327.71,-139.44 367.6,-121.77 397.43,-108.55"/>
<polygon fill="black" stroke="black" points="399,-111.68 406.73,-104.43 396.17,-105.28 399,-111.68"/>
</g>
<!-- libtiledb&#45;sql -->
<g id="node11" class="node">
<title>libtiledb&#45;sql</title>
<ellipse fill="#fde725" stroke="black" cx="579.05" cy="-90" rx="74.19" ry="18"/>
<text text-anchor="middle" x="579.05" y="-86.3" font-family="Times,serif" font-size="14.00">libtiledb sql</text>
</g>
<!-- curl&#45;&gt;libtiledb&#45;sql -->
<g id="edge3" class="edge">
<title>curl&#45;&gt;libtiledb&#45;sql</title>
<path fill="none" stroke="black" d="M307,-154.48C354.77,-143.33 453.2,-120.36 517.63,-105.33"/>
<polygon fill="black" stroke="black" points="518.73,-108.67 527.67,-102.99 517.14,-101.85 518.73,-108.67"/>
</g>
<!-- libgsasl -->
<g id="node2" class="node">
<title>libgsasl</title>
<g id="a_node2"><a xlink:href="https://github.com/conda-forge/libgsasl-feedstock/pull/16" xlink:title="libgsasl">
<ellipse fill="#31688e" stroke="black" cx="50.05" cy="-162" rx="50.09" ry="18"/>
<text text-anchor="middle" x="50.05" y="-158.3" font-family="Times,serif" font-size="14.00" fill="white">libgsasl</text>
</a>
</g>
</g>
<!-- libgsasl&#45;&gt;libhdfs3 -->
<g id="edge7" class="edge">
<title>libgsasl&#45;&gt;libhdfs3</title>
<path fill="none" stroke="black" d="M50.05,-143.7C50.05,-135.98 50.05,-126.71 50.05,-118.11"/>
<polygon fill="black" stroke="black" points="53.55,-118.1 50.05,-108.1 46.55,-118.1 53.55,-118.1"/>
</g>
<!-- postgresql -->
<g id="node4" class="node">
<title>postgresql</title>
<ellipse fill="#fde725" stroke="black" cx="720.05" cy="-90" rx="59.59" ry="18"/>
<text text-anchor="middle" x="720.05" y="-86.3" font-family="Times,serif" font-size="14.00">postgresql</text>
</g>
<!-- root -->
<g id="node8" class="node">
<title>root</title>
<ellipse fill="#fde725" stroke="black" cx="329.05" cy="-18" rx="30.59" ry="18"/>
<text text-anchor="middle" x="329.05" y="-14.3" font-family="Times,serif" font-size="14.00">root</text>
</g>
<!-- xrootd&#45;&gt;root -->
<g id="edge8" class="edge">
<title>xrootd&#45;&gt;root</title>
<path fill="none" stroke="black" d="M329.05,-71.7C329.05,-63.98 329.05,-54.71 329.05,-46.11"/>
<polygon fill="black" stroke="black" points="332.55,-46.1 329.05,-36.1 325.55,-46.1 332.55,-46.1"/>
</g>
<!-- libcups -->
<g id="node9" class="node">
<title>libcups</title>
<g id="a_node9"><a xlink:href="https://github.com/conda-forge/libcups-feedstock/pull/5" xlink:title="libcups">
<ellipse fill="#31688e" stroke="black" cx="833.05" cy="-90" rx="44.69" ry="18"/>
<text text-anchor="middle" x="833.05" y="-86.3" font-family="Times,serif" font-size="14.00" fill="white">libcups</text>
</a>
</g>
</g>
</g>
</svg>
