<?xml version="1.0" encoding="UTF-8" standalone="no"?>
<!DOCTYPE svg PUBLIC "-//W3C//DTD SVG 1.1//EN"
 "http://www.w3.org/Graphics/SVG/1.1/DTD/svg11.dtd">
<!-- Generated by graphviz version 2.42.3 (20191010.1750)
 -->
<!-- Title: %3 Pages: 1 -->
<svg width="636pt" height="188pt"
 viewBox="0.00 0.00 636.14 188.00" xmlns="http://www.w3.org/2000/svg" xmlns:xlink="http://www.w3.org/1999/xlink">
<g id="graph0" class="graph" transform="scale(1 1) rotate(0) translate(4 184)">
<title>%3</title>
<polygon fill="white" stroke="transparent" points="-4,4 -4,-184 632.14,-184 632.14,4 -4,4"/>
<!-- libgsasl -->
<g id="node1" class="node">
<title>libgsasl</title>
<g id="a_node1"><a xlink:href="https://github.com/conda-forge/libgsasl-feedstock/pull/16" xlink:title="libgsasl">
<ellipse fill="#31688e" stroke="black" cx="89.05" cy="-162" rx="50.09" ry="18"/>
<text text-anchor="middle" x="89.05" y="-158.3" font-family="Times,serif" font-size="14.00" fill="white">libgsasl</text>
</a>
</g>
</g>
<!-- libhdfs3 -->
<g id="node3" class="node">
<title>libhdfs3</title>
<g id="a_node3"><a xlink:href="https://github.com/conda-forge/libhdfs3-feedstock" xlink:title="libhdfs3">
<ellipse fill="#fde725" stroke="black" cx="50.05" cy="-90" rx="50.09" ry="18"/>
<text text-anchor="middle" x="50.05" y="-86.3" font-family="Times,serif" font-size="14.00">libhdfs3</text>
</a>
</g>
</g>
<!-- libgsasl&#45;&gt;libhdfs3 -->
<g id="edge1" class="edge">
<title>libgsasl&#45;&gt;libhdfs3</title>
<path fill="none" stroke="black" d="M79.6,-144.05C75.01,-135.8 69.38,-125.7 64.27,-116.54"/>
<polygon fill="black" stroke="black" points="67.32,-114.82 59.4,-107.79 61.21,-118.23 67.32,-114.82"/>
</g>
<!-- conda&#45;forge&#45;pinning -->
<g id="node7" class="node">
<title>conda&#45;forge&#45;pinning</title>
<ellipse fill="none" stroke="black" cx="247.05" cy="-18" rx="103.18" ry="18"/>
<text text-anchor="middle" x="247.05" y="-14.3" font-family="Times,serif" font-size="14.00">conda&#45;forge&#45;pinning</text>
</g>
<!-- libgsasl&#45;&gt;conda&#45;forge&#45;pinning -->
<g id="edge2" class="edge">
<title>libgsasl&#45;&gt;conda&#45;forge&#45;pinning</title>
<path fill="none" stroke="black" d="M96.79,-144.09C106.34,-124.7 124.17,-92.9 147.05,-72 161.61,-58.69 180.13,-47.67 197.27,-39.19"/>
<polygon fill="black" stroke="black" points="199.09,-42.2 206.61,-34.74 196.08,-35.88 199.09,-42.2"/>
</g>
<!-- r&#45;base -->
<g id="node2" class="node">
<title>r&#45;base</title>
<g id="a_node2"><a xlink:href="https://github.com/conda-forge/r-base-feedstock/pull/122" xlink:title="r base">
<ellipse fill="#31688e" stroke="black" cx="196.05" cy="-90" rx="40.09" ry="18"/>
<text text-anchor="middle" x="196.05" y="-86.3" font-family="Times,serif" font-size="14.00" fill="white">r base</text>
</a>
</g>
</g>
<!-- r&#45;base&#45;&gt;conda&#45;forge&#45;pinning -->
<g id="edge3" class="edge">
<title>r&#45;base&#45;&gt;conda&#45;forge&#45;pinning</title>
<path fill="none" stroke="black" d="M207.87,-72.76C214,-64.35 221.63,-53.89 228.51,-44.44"/>
<polygon fill="black" stroke="black" points="231.51,-46.27 234.57,-36.12 225.85,-42.15 231.51,-46.27"/>
</g>
<!-- libhdfs3&#45;&gt;conda&#45;forge&#45;pinning -->
<g id="edge4" class="edge">
<title>libhdfs3&#45;&gt;conda&#45;forge&#45;pinning</title>
<path fill="none" stroke="black" d="M84.36,-76.81C114.69,-66.03 159.4,-50.14 194.28,-37.75"/>
<polygon fill="black" stroke="black" points="195.58,-41 203.84,-34.35 193.24,-34.4 195.58,-41"/>
</g>
<!-- libcups -->
<g id="node4" class="node">
<title>libcups</title>
<g id="a_node4"><a xlink:href="https://github.com/conda-forge/libcups-feedstock/pull/5" xlink:title="libcups">
<ellipse fill="#31688e" stroke="black" cx="299.05" cy="-90" rx="44.69" ry="18"/>
<text text-anchor="middle" x="299.05" y="-86.3" font-family="Times,serif" font-size="14.00" fill="white">libcups</text>
</a>
</g>
</g>
<!-- libcups&#45;&gt;conda&#45;forge&#45;pinning -->
<g id="edge5" class="edge">
<title>libcups&#45;&gt;conda&#45;forge&#45;pinning</title>
<path fill="none" stroke="black" d="M286.72,-72.41C280.47,-63.99 272.74,-53.58 265.77,-44.2"/>
<polygon fill="black" stroke="black" points="268.41,-41.9 259.64,-35.96 262.8,-46.07 268.41,-41.9"/>
</g>
<!-- htcondor -->
<g id="node5" class="node">
<title>htcondor</title>
<g id="a_node5"><a xlink:href="https://github.com/conda-forge/htcondor-feedstock/pull/10" xlink:title="htcondor">
<ellipse fill="#31688e" stroke="black" cx="412.05" cy="-90" rx="50.09" ry="18"/>
<text text-anchor="middle" x="412.05" y="-86.3" font-family="Times,serif" font-size="14.00" fill="white">htcondor</text>
</a>
</g>
</g>
<!-- htcondor&#45;&gt;conda&#45;forge&#45;pinning -->
<g id="edge6" class="edge">
<title>htcondor&#45;&gt;conda&#45;forge&#45;pinning</title>
<path fill="none" stroke="black" d="M381.01,-75.83C356.46,-65.42 321.78,-50.71 293.86,-38.86"/>
<polygon fill="black" stroke="black" points="294.87,-35.49 284.3,-34.8 292.14,-41.93 294.87,-35.49"/>
</g>
<!-- libtiledb&#45;sql -->
<g id="node6" class="node">
<title>libtiledb&#45;sql</title>
<g id="a_node6"><a xlink:href="https://github.com/conda-forge/libtiledb-sql-feedstock/pull/13" xlink:title="libtiledb sql">
<ellipse fill="#31688e" stroke="black" cx="554.05" cy="-90" rx="74.19" ry="18"/>
<text text-anchor="middle" x="554.05" y="-86.3" font-family="Times,serif" font-size="14.00" fill="white">libtiledb sql</text>
</a>
</g>
</g>
<!-- libtiledb&#45;sql&#45;&gt;conda&#45;forge&#45;pinning -->
<g id="edge7" class="edge">
<title>libtiledb&#45;sql&#45;&gt;conda&#45;forge&#45;pinning</title>
<path fill="none" stroke="black" d="M501.97,-77.13C451.05,-65.52 373.19,-47.76 316.91,-34.93"/>
<polygon fill="black" stroke="black" points="317.55,-31.49 307.02,-32.67 315.99,-38.31 317.55,-31.49"/>
</g>
</g>
</svg>
