<?xml version="1.0" encoding="UTF-8" standalone="no"?>
<!DOCTYPE svg PUBLIC "-//W3C//DTD SVG 1.1//EN"
 "http://www.w3.org/Graphics/SVG/1.1/DTD/svg11.dtd">
<!-- Generated by graphviz version 2.42.3 (20191010.1750)
 -->
<!-- Title: %3 Pages: 1 -->
<svg width="803pt" height="404pt"
 viewBox="0.00 0.00 803.00 404.00" xmlns="http://www.w3.org/2000/svg" xmlns:xlink="http://www.w3.org/1999/xlink">
<g id="graph0" class="graph" transform="scale(1 1) rotate(0) translate(4 400)">
<title>%3</title>
<polygon fill="white" stroke="transparent" points="-4,4 -4,-400 799,-400 799,4 -4,4"/>
<!-- curl -->
<g id="node1" class="node">
<title>curl</title>
<g id="a_node1"><a xlink:href="https://github.com/conda-forge/curl-feedstock/pull/65" xlink:title="curl">
<ellipse fill="#31688e" stroke="black" cx="225" cy="-378" rx="30.59" ry="18"/>
<text text-anchor="middle" x="225" y="-374.3" font-family="Times,serif" font-size="14.00" fill="white">curl</text>
</a>
</g>
</g>
<!-- nco -->
<g id="node2" class="node">
<title>nco</title>
<ellipse fill="#fde725" stroke="black" cx="27" cy="-306" rx="27" ry="18"/>
<text text-anchor="middle" x="27" y="-302.3" font-family="Times,serif" font-size="14.00">nco</text>
</g>
<!-- curl&#45;&gt;nco -->
<g id="edge1" class="edge">
<title>curl&#45;&gt;nco</title>
<path fill="none" stroke="black" d="M199.52,-367.99C163.87,-355.39 99.09,-332.49 59.86,-318.62"/>
<polygon fill="black" stroke="black" points="60.82,-315.25 50.23,-315.21 58.49,-321.85 60.82,-315.25"/>
</g>
<!-- r&#45;base -->
<g id="node3" class="node">
<title>r&#45;base</title>
<ellipse fill="#fde725" stroke="black" cx="88" cy="-234" rx="40.5" ry="18"/>
<text text-anchor="middle" x="88" y="-230.3" font-family="Times,serif" font-size="14.00">r base</text>
</g>
<!-- curl&#45;&gt;r&#45;base -->
<g id="edge2" class="edge">
<title>curl&#45;&gt;r&#45;base</title>
<path fill="none" stroke="black" d="M207.22,-363.1C194.45,-352.81 177.07,-338.17 163,-324 142.5,-303.36 121.34,-277.79 106.75,-259.36"/>
<polygon fill="black" stroke="black" points="109.46,-257.14 100.53,-251.44 103.95,-261.47 109.46,-257.14"/>
</g>
<!-- libhdfs3 -->
<g id="node4" class="node">
<title>libhdfs3</title>
<ellipse fill="#fde725" stroke="black" cx="292" cy="-90" rx="50.09" ry="18"/>
<text text-anchor="middle" x="292" y="-86.3" font-family="Times,serif" font-size="14.00">libhdfs3</text>
</g>
<!-- curl&#45;&gt;libhdfs3 -->
<g id="edge3" class="edge">
<title>curl&#45;&gt;libhdfs3</title>
<path fill="none" stroke="black" d="M231.3,-360.16C243.63,-326.48 270.86,-248.19 284,-180 287.94,-159.56 289.94,-136.1 290.96,-118.4"/>
<polygon fill="black" stroke="black" points="294.47,-118.37 291.48,-108.2 287.48,-118.02 294.47,-118.37"/>
</g>
<!-- xrootd -->
<g id="node5" class="node">
<title>xrootd</title>
<ellipse fill="#fde725" stroke="black" cx="116" cy="-162" rx="40.5" ry="18"/>
<text text-anchor="middle" x="116" y="-158.3" font-family="Times,serif" font-size="14.00">xrootd</text>
</g>
<!-- curl&#45;&gt;xrootd -->
<g id="edge4" class="edge">
<title>curl&#45;&gt;xrootd</title>
<path fill="none" stroke="black" d="M216.63,-360.56C197.77,-323.54 151.86,-233.4 129.15,-188.82"/>
<polygon fill="black" stroke="black" points="132.21,-187.11 124.55,-179.79 125.97,-190.29 132.21,-187.11"/>
</g>
<!-- htcondor -->
<g id="node6" class="node">
<title>htcondor</title>
<ellipse fill="#fde725" stroke="black" cx="225" cy="-162" rx="50.09" ry="18"/>
<text text-anchor="middle" x="225" y="-158.3" font-family="Times,serif" font-size="14.00">htcondor</text>
</g>
<!-- curl&#45;&gt;htcondor -->
<g id="edge5" class="edge">
<title>curl&#45;&gt;htcondor</title>
<path fill="none" stroke="black" d="M225,-359.85C225,-322.83 225,-235.18 225,-190.39"/>
<polygon fill="black" stroke="black" points="228.5,-190.23 225,-180.23 221.5,-190.23 228.5,-190.23"/>
</g>
<!-- libtiledb&#45;sql -->
<g id="node7" class="node">
<title>libtiledb&#45;sql</title>
<ellipse fill="#fde725" stroke="black" cx="472" cy="-90" rx="74.19" ry="18"/>
<text text-anchor="middle" x="472" y="-86.3" font-family="Times,serif" font-size="14.00">libtiledb sql</text>
</g>
<!-- curl&#45;&gt;libtiledb&#45;sql -->
<g id="edge6" class="edge">
<title>curl&#45;&gt;libtiledb&#45;sql</title>
<path fill="none" stroke="black" d="M244.56,-364.1C286.22,-335.66 384.47,-263.45 440,-180 452.6,-161.06 460.94,-136.54 465.93,-118.04"/>
<polygon fill="black" stroke="black" points="469.37,-118.75 468.43,-108.19 462.58,-117.02 469.37,-118.75"/>
</g>
<!-- conda&#45;forge&#45;pinning -->
<g id="node8" class="node">
<title>conda&#45;forge&#45;pinning</title>
<ellipse fill="none" stroke="black" cx="292" cy="-18" rx="103.5" ry="18"/>
<text text-anchor="middle" x="292" y="-14.3" font-family="Times,serif" font-size="14.00">conda&#45;forge&#45;pinning</text>
</g>
<!-- curl&#45;&gt;conda&#45;forge&#45;pinning -->
<g id="edge7" class="edge">
<title>curl&#45;&gt;conda&#45;forge&#45;pinning</title>
<path fill="none" stroke="black" d="M253.86,-371.72C337.47,-355.61 574,-303.93 574,-235 574,-235 574,-235 574,-161 574,-120.55 583.76,-100.44 555,-72 532.09,-49.35 457.13,-35.7 393.07,-27.94"/>
<polygon fill="black" stroke="black" points="393.23,-24.44 382.89,-26.75 392.41,-31.39 393.23,-24.44"/>
</g>
<!-- nco&#45;&gt;conda&#45;forge&#45;pinning -->
<g id="edge8" class="edge">
<title>nco&#45;&gt;conda&#45;forge&#45;pinning</title>
<path fill="none" stroke="black" d="M24.12,-287.83C17.99,-244.95 8.63,-132.31 67,-72 85.66,-52.73 146.18,-39.13 199.76,-30.54"/>
<polygon fill="black" stroke="black" points="200.33,-33.99 209.67,-28.99 199.25,-27.07 200.33,-33.99"/>
</g>
<!-- r&#45;base&#45;&gt;conda&#45;forge&#45;pinning -->
<g id="edge9" class="edge">
<title>r&#45;base&#45;&gt;conda&#45;forge&#45;pinning</title>
<path fill="none" stroke="black" d="M79.1,-216.35C74.17,-206.17 68.53,-192.7 66,-180 56.14,-130.52 62.23,-104.29 101,-72 127.12,-50.24 161.52,-37.39 193.92,-29.8"/>
<polygon fill="black" stroke="black" points="194.88,-33.17 203.9,-27.61 193.38,-26.33 194.88,-33.17"/>
</g>
<!-- libhdfs3&#45;&gt;conda&#45;forge&#45;pinning -->
<g id="edge10" class="edge">
<title>libhdfs3&#45;&gt;conda&#45;forge&#45;pinning</title>
<path fill="none" stroke="black" d="M292,-71.7C292,-63.98 292,-54.71 292,-46.11"/>
<polygon fill="black" stroke="black" points="295.5,-46.1 292,-36.1 288.5,-46.1 295.5,-46.1"/>
</g>
<!-- xrootd&#45;&gt;conda&#45;forge&#45;pinning -->
<g id="edge11" class="edge">
<title>xrootd&#45;&gt;conda&#45;forge&#45;pinning</title>
<path fill="none" stroke="black" d="M110.23,-144.06C104.77,-124.65 99.5,-92.82 115,-72 127.12,-55.72 170.52,-42.58 211.31,-33.46"/>
<polygon fill="black" stroke="black" points="212.29,-36.83 221.32,-31.28 210.81,-29.98 212.29,-36.83"/>
</g>
<!-- root -->
<g id="node9" class="node">
<title>root</title>
<ellipse fill="#fde725" stroke="black" cx="155" cy="-90" rx="30.59" ry="18"/>
<text text-anchor="middle" x="155" y="-86.3" font-family="Times,serif" font-size="14.00">root</text>
</g>
<!-- xrootd&#45;&gt;root -->
<g id="edge12" class="edge">
<title>xrootd&#45;&gt;root</title>
<path fill="none" stroke="black" d="M125.24,-144.41C129.91,-136.04 135.66,-125.71 140.87,-116.37"/>
<polygon fill="black" stroke="black" points="144.01,-117.91 145.82,-107.47 137.9,-114.5 144.01,-117.91"/>
</g>
<!-- htcondor&#45;&gt;conda&#45;forge&#45;pinning -->
<g id="edge13" class="edge">
<title>htcondor&#45;&gt;conda&#45;forge&#45;pinning</title>
<path fill="none" stroke="black" d="M222.97,-143.93C221.53,-125.24 221.54,-94.89 233,-72 238.84,-60.34 248.43,-50.06 258.2,-41.73"/>
<polygon fill="black" stroke="black" points="260.39,-44.46 266,-35.47 256.01,-38.99 260.39,-44.46"/>
</g>
<!-- libtiledb&#45;sql&#45;&gt;conda&#45;forge&#45;pinning -->
<g id="edge14" class="edge">
<title>libtiledb&#45;sql&#45;&gt;conda&#45;forge&#45;pinning</title>
<path fill="none" stroke="black" d="M434.27,-74.33C407.41,-63.88 371.04,-49.74 341.8,-38.37"/>
<polygon fill="black" stroke="black" points="342.77,-34.99 332.18,-34.63 340.24,-41.51 342.77,-34.99"/>
</g>
<!-- root&#45;&gt;conda&#45;forge&#45;pinning -->
<g id="edge18" class="edge">
<title>root&#45;&gt;conda&#45;forge&#45;pinning</title>
<path fill="none" stroke="black" d="M177.32,-77.6C197.28,-67.39 227.05,-52.18 251.26,-39.82"/>
<polygon fill="black" stroke="black" points="252.92,-42.9 260.23,-35.23 249.73,-36.67 252.92,-42.9"/>
</g>
<!-- libgsasl -->
<g id="node10" class="node">
<title>libgsasl</title>
<g id="a_node10"><a xlink:href="https://github.com/conda-forge/libgsasl-feedstock/pull/16" xlink:title="libgsasl">
<ellipse fill="#31688e" stroke="black" cx="381" cy="-162" rx="50.09" ry="18"/>
<text text-anchor="middle" x="381" y="-158.3" font-family="Times,serif" font-size="14.00" fill="white">libgsasl</text>
</a>
</g>
</g>
<!-- libgsasl&#45;&gt;libhdfs3 -->
<g id="edge15" class="edge">
<title>libgsasl&#45;&gt;libhdfs3</title>
<path fill="none" stroke="black" d="M360.8,-145.12C348.66,-135.56 333.03,-123.27 319.73,-112.81"/>
<polygon fill="black" stroke="black" points="321.83,-110.01 311.81,-106.58 317.51,-115.51 321.83,-110.01"/>
</g>
<!-- libgsasl&#45;&gt;conda&#45;forge&#45;pinning -->
<g id="edge16" class="edge">
<title>libgsasl&#45;&gt;conda&#45;forge&#45;pinning</title>
<path fill="none" stroke="black" d="M377.93,-143.78C373.98,-124.95 365.79,-94.47 351,-72 343.65,-60.84 333.4,-50.52 323.49,-42.01"/>
<polygon fill="black" stroke="black" points="325.64,-39.24 315.69,-35.6 321.19,-44.65 325.64,-39.24"/>
</g>
<!-- postgresql -->
<g id="node11" class="node">
<title>postgresql</title>
<g id="a_node11"><a xlink:href="https://github.com/conda-forge/postgresql-feedstock/pull/64" xlink:title="postgresql">
<ellipse fill="#31688e" stroke="black" cx="662" cy="-90" rx="60" ry="18"/>
<text text-anchor="middle" x="662" y="-86.3" font-family="Times,serif" font-size="14.00" fill="white">postgresql</text>
</a>
</g>
</g>
<!-- postgresql&#45;&gt;conda&#45;forge&#45;pinning -->
<g id="edge17" class="edge">
<title>postgresql&#45;&gt;conda&#45;forge&#45;pinning</title>
<path fill="none" stroke="black" d="M616.29,-78.13C606.95,-76.01 597.17,-73.87 588,-72 516.08,-57.31 433.86,-42.77 374.36,-32.64"/>
<polygon fill="black" stroke="black" points="374.71,-29.15 364.26,-30.93 373.54,-36.05 374.71,-29.15"/>
</g>
<!-- libcups -->
<g id="node12" class="node">
<title>libcups</title>
<g id="a_node12"><a xlink:href="https://github.com/conda-forge/libcups-feedstock/pull/5" xlink:title="libcups">
<ellipse fill="#31688e" stroke="black" cx="750" cy="-162" rx="45" ry="18"/>
<text text-anchor="middle" x="750" y="-158.3" font-family="Times,serif" font-size="14.00" fill="white">libcups</text>
</a>
</g>
</g>
<!-- libcups&#45;&gt;conda&#45;forge&#45;pinning -->
<g id="edge19" class="edge">
<title>libcups&#45;&gt;conda&#45;forge&#45;pinning</title>
<path fill="none" stroke="black" d="M751.72,-143.75C752.7,-123.42 750.83,-90.12 731,-72 706.85,-49.93 520.23,-33.76 398.2,-25.41"/>
<polygon fill="black" stroke="black" points="398.28,-21.9 388.07,-24.72 397.81,-28.89 398.28,-21.9"/>
</g>
</g>
</svg>
