<?xml version="1.0" encoding="UTF-8" standalone="no"?>
<!DOCTYPE svg PUBLIC "-//W3C//DTD SVG 1.1//EN"
 "http://www.w3.org/Graphics/SVG/1.1/DTD/svg11.dtd">
<!-- Generated by graphviz version 2.42.3 (20191010.1750)
 -->
<!-- Title: %3 Pages: 1 -->
<svg width="538pt" height="188pt"
 viewBox="0.00 0.00 538.14 188.00" xmlns="http://www.w3.org/2000/svg" xmlns:xlink="http://www.w3.org/1999/xlink">
<g id="graph0" class="graph" transform="scale(1 1) rotate(0) translate(4 184)">
<title>%3</title>
<polygon fill="white" stroke="transparent" points="-4,4 -4,-184 534.14,-184 534.14,4 -4,4"/>
<!-- libgsasl -->
<g id="node1" class="node">
<title>libgsasl</title>
<g id="a_node1"><a xlink:href="https://github.com/conda-forge/libgsasl-feedstock/pull/16" xlink:title="libgsasl">
<ellipse fill="#31688e" stroke="black" cx="89.05" cy="-162" rx="50.09" ry="18"/>
<text text-anchor="middle" x="89.05" y="-158.3" font-family="Times,serif" font-size="14.00" fill="white">libgsasl</text>
</a>
</g>
</g>
<!-- libhdfs3 -->
<g id="node2" class="node">
<title>libhdfs3</title>
<g id="a_node2"><a xlink:href="https://github.com/conda-forge/libhdfs3-feedstock" xlink:title="libhdfs3">
<ellipse fill="#fde725" stroke="black" cx="50.05" cy="-90" rx="50.09" ry="18"/>
<text text-anchor="middle" x="50.05" y="-86.3" font-family="Times,serif" font-size="14.00">libhdfs3</text>
</a>
</g>
</g>
<!-- libgsasl&#45;&gt;libhdfs3 -->
<g id="edge1" class="edge">
<title>libgsasl&#45;&gt;libhdfs3</title>
<path fill="none" stroke="black" d="M79.6,-144.05C75.01,-135.8 69.38,-125.7 64.27,-116.54"/>
<polygon fill="black" stroke="black" points="67.32,-114.82 59.4,-107.79 61.21,-118.23 67.32,-114.82"/>
</g>
<!-- conda&#45;forge&#45;pinning -->
<g id="node6" class="node">
<title>conda&#45;forge&#45;pinning</title>
<ellipse fill="none" stroke="black" cx="201.05" cy="-18" rx="103.18" ry="18"/>
<text text-anchor="middle" x="201.05" y="-14.3" font-family="Times,serif" font-size="14.00">conda&#45;forge&#45;pinning</text>
</g>
<!-- libgsasl&#45;&gt;conda&#45;forge&#45;pinning -->
<g id="edge2" class="edge">
<title>libgsasl&#45;&gt;conda&#45;forge&#45;pinning</title>
<path fill="none" stroke="black" d="M98.51,-144.18C109.24,-125.71 127.77,-95.54 147.05,-72 155.37,-61.84 165.43,-51.53 174.6,-42.73"/>
<polygon fill="black" stroke="black" points="177.15,-45.14 182.04,-35.74 172.35,-40.04 177.15,-45.14"/>
</g>
<!-- libhdfs3&#45;&gt;conda&#45;forge&#45;pinning -->
<g id="edge3" class="edge">
<title>libhdfs3&#45;&gt;conda&#45;forge&#45;pinning</title>
<path fill="none" stroke="black" d="M79.52,-75.34C101.59,-65.11 132.14,-50.94 157.1,-39.37"/>
<polygon fill="black" stroke="black" points="158.75,-42.46 166.35,-35.08 155.81,-36.11 158.75,-42.46"/>
</g>
<!-- libcups -->
<g id="node3" class="node">
<title>libcups</title>
<g id="a_node3"><a xlink:href="https://github.com/conda-forge/libcups-feedstock/pull/5" xlink:title="libcups">
<ellipse fill="#31688e" stroke="black" cx="201.05" cy="-90" rx="44.69" ry="18"/>
<text text-anchor="middle" x="201.05" y="-86.3" font-family="Times,serif" font-size="14.00" fill="white">libcups</text>
</a>
</g>
</g>
<!-- libcups&#45;&gt;conda&#45;forge&#45;pinning -->
<g id="edge4" class="edge">
<title>libcups&#45;&gt;conda&#45;forge&#45;pinning</title>
<path fill="none" stroke="black" d="M201.05,-71.7C201.05,-63.98 201.05,-54.71 201.05,-46.11"/>
<polygon fill="black" stroke="black" points="204.55,-46.1 201.05,-36.1 197.55,-46.1 204.55,-46.1"/>
</g>
<!-- htcondor -->
<g id="node4" class="node">
<title>htcondor</title>
<g id="a_node4"><a xlink:href="https://github.com/conda-forge/htcondor-feedstock/pull/10" xlink:title="htcondor">
<ellipse fill="#31688e" stroke="black" cx="314.05" cy="-90" rx="50.09" ry="18"/>
<text text-anchor="middle" x="314.05" y="-86.3" font-family="Times,serif" font-size="14.00" fill="white">htcondor</text>
</a>
</g>
</g>
<!-- htcondor&#45;&gt;conda&#45;forge&#45;pinning -->
<g id="edge5" class="edge">
<title>htcondor&#45;&gt;conda&#45;forge&#45;pinning</title>
<path fill="none" stroke="black" d="M290.08,-74.15C274.52,-64.52 253.97,-51.79 236.54,-40.99"/>
<polygon fill="black" stroke="black" points="238.09,-37.83 227.74,-35.54 234.4,-43.78 238.09,-37.83"/>
</g>
<!-- libtiledb&#45;sql -->
<g id="node5" class="node">
<title>libtiledb&#45;sql</title>
<g id="a_node5"><a xlink:href="https://github.com/conda-forge/libtiledb-sql-feedstock/pull/13" xlink:title="libtiledb sql">
<ellipse fill="#31688e" stroke="black" cx="456.05" cy="-90" rx="74.19" ry="18"/>
<text text-anchor="middle" x="456.05" y="-86.3" font-family="Times,serif" font-size="14.00" fill="white">libtiledb sql</text>
</a>
</g>
</g>
<!-- libtiledb&#45;sql&#45;&gt;conda&#45;forge&#45;pinning -->
<g id="edge6" class="edge">
<title>libtiledb&#45;sql&#45;&gt;conda&#45;forge&#45;pinning</title>
<path fill="none" stroke="black" d="M408.98,-76.08C368.17,-64.88 308.79,-48.58 263.92,-36.26"/>
<polygon fill="black" stroke="black" points="264.57,-32.81 254,-33.54 262.72,-39.56 264.57,-32.81"/>
</g>
</g>
</svg>
