<?xml version="1.0" encoding="UTF-8" standalone="no"?>
<!DOCTYPE svg PUBLIC "-//W3C//DTD SVG 1.1//EN"
 "http://www.w3.org/Graphics/SVG/1.1/DTD/svg11.dtd">
<!-- Generated by graphviz version 2.42.3 (20191010.1750)
 -->
<!-- Title: %3 Pages: 1 -->
<svg width="715pt" height="188pt"
 viewBox="0.00 0.00 715.14 188.00" xmlns="http://www.w3.org/2000/svg" xmlns:xlink="http://www.w3.org/1999/xlink">
<g id="graph0" class="graph" transform="scale(1 1) rotate(0) translate(4 184)">
<title>%3</title>
<polygon fill="white" stroke="transparent" points="-4,4 -4,-184 711.14,-184 711.14,4 -4,4"/>
<!-- libgsasl -->
<g id="node1" class="node">
<title>libgsasl</title>
<g id="a_node1"><a xlink:href="https://github.com/conda-forge/libgsasl-feedstock/pull/16" xlink:title="libgsasl">
<ellipse fill="#31688e" stroke="black" cx="89.05" cy="-162" rx="50.09" ry="18"/>
<text text-anchor="middle" x="89.05" y="-158.3" font-family="Times,serif" font-size="14.00" fill="white">libgsasl</text>
</a>
</g>
</g>
<!-- libhdfs3 -->
<g id="node3" class="node">
<title>libhdfs3</title>
<g id="a_node3"><a xlink:href="https://github.com/conda-forge/libhdfs3-feedstock" xlink:title="libhdfs3">
<ellipse fill="#fde725" stroke="black" cx="50.05" cy="-90" rx="50.09" ry="18"/>
<text text-anchor="middle" x="50.05" y="-86.3" font-family="Times,serif" font-size="14.00">libhdfs3</text>
</a>
</g>
</g>
<!-- libgsasl&#45;&gt;libhdfs3 -->
<g id="edge1" class="edge">
<title>libgsasl&#45;&gt;libhdfs3</title>
<path fill="none" stroke="black" d="M79.6,-144.05C75.01,-135.8 69.38,-125.7 64.27,-116.54"/>
<polygon fill="black" stroke="black" points="67.32,-114.82 59.4,-107.79 61.21,-118.23 67.32,-114.82"/>
</g>
<!-- conda&#45;forge&#45;pinning -->
<g id="node8" class="node">
<title>conda&#45;forge&#45;pinning</title>
<ellipse fill="none" stroke="black" cx="285.05" cy="-18" rx="103.18" ry="18"/>
<text text-anchor="middle" x="285.05" y="-14.3" font-family="Times,serif" font-size="14.00">conda&#45;forge&#45;pinning</text>
</g>
<!-- libgsasl&#45;&gt;conda&#45;forge&#45;pinning -->
<g id="edge2" class="edge">
<title>libgsasl&#45;&gt;conda&#45;forge&#45;pinning</title>
<path fill="none" stroke="black" d="M96.19,-143.94C105.3,-124.11 122.81,-91.6 147.05,-72 167.04,-55.83 192.52,-44.2 216.14,-36.03"/>
<polygon fill="black" stroke="black" points="217.37,-39.31 225.77,-32.85 215.18,-32.66 217.37,-39.31"/>
</g>
<!-- r&#45;base -->
<g id="node2" class="node">
<title>r&#45;base</title>
<g id="a_node2"><a xlink:href="https://github.com/conda-forge/r-base-feedstock/pull/122" xlink:title="r base">
<ellipse fill="#31688e" stroke="black" cx="196.05" cy="-90" rx="40.09" ry="18"/>
<text text-anchor="middle" x="196.05" y="-86.3" font-family="Times,serif" font-size="14.00" fill="white">r base</text>
</a>
</g>
</g>
<!-- r&#45;base&#45;&gt;conda&#45;forge&#45;pinning -->
<g id="edge3" class="edge">
<title>r&#45;base&#45;&gt;conda&#45;forge&#45;pinning</title>
<path fill="none" stroke="black" d="M215.36,-73.81C227.21,-64.49 242.62,-52.37 255.94,-41.9"/>
<polygon fill="black" stroke="black" points="258.21,-44.56 263.9,-35.63 253.88,-39.06 258.21,-44.56"/>
</g>
<!-- libhdfs3&#45;&gt;conda&#45;forge&#45;pinning -->
<g id="edge4" class="edge">
<title>libhdfs3&#45;&gt;conda&#45;forge&#45;pinning</title>
<path fill="none" stroke="black" d="M87.28,-77.91C124.46,-66.83 182.18,-49.64 225.68,-36.68"/>
<polygon fill="black" stroke="black" points="226.71,-40.03 235.29,-33.82 224.71,-33.32 226.71,-40.03"/>
</g>
<!-- root -->
<g id="node4" class="node">
<title>root</title>
<g id="a_node4"><a xlink:href="https://github.com/conda-forge/root-feedstock/pull/86" xlink:title="root">
<ellipse fill="#31688e" stroke="black" cx="285.05" cy="-90" rx="30.59" ry="18"/>
<text text-anchor="middle" x="285.05" y="-86.3" font-family="Times,serif" font-size="14.00" fill="white">root</text>
</a>
</g>
</g>
<!-- root&#45;&gt;conda&#45;forge&#45;pinning -->
<g id="edge5" class="edge">
<title>root&#45;&gt;conda&#45;forge&#45;pinning</title>
<path fill="none" stroke="black" d="M285.05,-71.7C285.05,-63.98 285.05,-54.71 285.05,-46.11"/>
<polygon fill="black" stroke="black" points="288.55,-46.1 285.05,-36.1 281.55,-46.1 288.55,-46.1"/>
</g>
<!-- libcups -->
<g id="node5" class="node">
<title>libcups</title>
<g id="a_node5"><a xlink:href="https://github.com/conda-forge/libcups-feedstock/pull/5" xlink:title="libcups">
<ellipse fill="#31688e" stroke="black" cx="378.05" cy="-90" rx="44.69" ry="18"/>
<text text-anchor="middle" x="378.05" y="-86.3" font-family="Times,serif" font-size="14.00" fill="white">libcups</text>
</a>
</g>
</g>
<!-- libcups&#45;&gt;conda&#45;forge&#45;pinning -->
<g id="edge6" class="edge">
<title>libcups&#45;&gt;conda&#45;forge&#45;pinning</title>
<path fill="none" stroke="black" d="M357.87,-73.81C345.48,-64.49 329.38,-52.37 315.46,-41.9"/>
<polygon fill="black" stroke="black" points="317.23,-38.85 307.14,-35.63 313.02,-44.44 317.23,-38.85"/>
</g>
<!-- htcondor -->
<g id="node6" class="node">
<title>htcondor</title>
<g id="a_node6"><a xlink:href="https://github.com/conda-forge/htcondor-feedstock/pull/10" xlink:title="htcondor">
<ellipse fill="#31688e" stroke="black" cx="491.05" cy="-90" rx="50.09" ry="18"/>
<text text-anchor="middle" x="491.05" y="-86.3" font-family="Times,serif" font-size="14.00" fill="white">htcondor</text>
</a>
</g>
</g>
<!-- htcondor&#45;&gt;conda&#45;forge&#45;pinning -->
<g id="edge7" class="edge">
<title>htcondor&#45;&gt;conda&#45;forge&#45;pinning</title>
<path fill="none" stroke="black" d="M455.63,-76.97C423.74,-66.13 376.37,-50.03 339.64,-37.55"/>
<polygon fill="black" stroke="black" points="340.66,-34.2 330.06,-34.3 338.41,-40.83 340.66,-34.2"/>
</g>
<!-- libtiledb&#45;sql -->
<g id="node7" class="node">
<title>libtiledb&#45;sql</title>
<g id="a_node7"><a xlink:href="https://github.com/conda-forge/libtiledb-sql-feedstock/pull/13" xlink:title="libtiledb sql">
<ellipse fill="#31688e" stroke="black" cx="633.05" cy="-90" rx="74.19" ry="18"/>
<text text-anchor="middle" x="633.05" y="-86.3" font-family="Times,serif" font-size="14.00" fill="white">libtiledb sql</text>
</a>
</g>
</g>
<!-- libtiledb&#45;sql&#45;&gt;conda&#45;forge&#45;pinning -->
<g id="edge8" class="edge">
<title>libtiledb&#45;sql&#45;&gt;conda&#45;forge&#45;pinning</title>
<path fill="none" stroke="black" d="M578.14,-77.72C568.77,-75.8 559.13,-73.84 550.05,-72 486.11,-59.06 413.45,-44.54 360.41,-33.98"/>
<polygon fill="black" stroke="black" points="360.9,-30.5 350.4,-31.98 359.53,-37.37 360.9,-30.5"/>
</g>
</g>
</svg>
