<?xml version="1.0" encoding="UTF-8" standalone="no"?>
<!DOCTYPE svg PUBLIC "-//W3C//DTD SVG 1.1//EN"
 "http://www.w3.org/Graphics/SVG/1.1/DTD/svg11.dtd">
<!-- Generated by graphviz version 2.40.1 (20161225.0304)
 -->
<!-- Title: %3 Pages: 1 -->
<svg width="2594pt" height="188pt"
 viewBox="0.00 0.00 2594.39 188.00" xmlns="http://www.w3.org/2000/svg" xmlns:xlink="http://www.w3.org/1999/xlink">
<g id="graph0" class="graph" transform="scale(1 1) rotate(0) translate(4 184)">
<title>%3</title>
<polygon fill="#ffffff" stroke="transparent" points="-4,4 -4,-184 2590.3899,-184 2590.3899,4 -4,4"/>
<!-- cdat&#45;lite -->
<g id="node1" class="node">
<title>cdat&#45;lite</title>
<ellipse fill="#35b779" stroke="#000000" cx="64.0934" cy="-162" rx="54.6905" ry="18"/>
<text text-anchor="middle" x="64.0934" y="-158.3" font-family="Times,serif" font-size="14.00" fill="#000000">cdat lite</text>
</g>
<!-- cdms2 -->
<g id="node2" class="node">
<title>cdms2</title>
<ellipse fill="#fde725" stroke="#000000" cx="410.0934" cy="-18" rx="35.194" ry="18"/>
<text text-anchor="middle" x="410.0934" y="-14.3" font-family="Times,serif" font-size="14.00" fill="#000000">cdms2</text>
</g>
<!-- cdo -->
<g id="node3" class="node">
<title>cdo</title>
<ellipse fill="#fde725" stroke="#000000" cx="625.0934" cy="-90" rx="27" ry="18"/>
<text text-anchor="middle" x="625.0934" y="-86.3" font-family="Times,serif" font-size="14.00" fill="#000000">cdo</text>
</g>
<!-- eccodes -->
<g id="node4" class="node">
<title>eccodes</title>
<ellipse fill="#35b779" stroke="#000000" cx="710.0934" cy="-162" rx="44.6926" ry="18"/>
<text text-anchor="middle" x="710.0934" y="-158.3" font-family="Times,serif" font-size="14.00" fill="#000000">eccodes</text>
</g>
<!-- eccodes&#45;&gt;cdo -->
<g id="edge1" class="edge">
<title>eccodes&#45;&gt;cdo</title>
<path fill="none" stroke="#000000" d="M690.8056,-145.6621C678.6368,-135.3543 662.8055,-121.9443 649.7312,-110.8696"/>
<polygon fill="#000000" stroke="#000000" points="651.8969,-108.1172 642.0042,-104.3244 647.3725,-113.4586 651.8969,-108.1172"/>
</g>
<!-- magics -->
<g id="node12" class="node">
<title>magics</title>
<ellipse fill="#fde725" stroke="#000000" cx="710.0934" cy="-90" rx="40.0939" ry="18"/>
<text text-anchor="middle" x="710.0934" y="-86.3" font-family="Times,serif" font-size="14.00" fill="#000000">magics</text>
</g>
<!-- eccodes&#45;&gt;magics -->
<g id="edge2" class="edge">
<title>eccodes&#45;&gt;magics</title>
<path fill="none" stroke="#000000" d="M710.0934,-143.8314C710.0934,-136.131 710.0934,-126.9743 710.0934,-118.4166"/>
<polygon fill="#000000" stroke="#000000" points="713.5935,-118.4132 710.0934,-108.4133 706.5935,-118.4133 713.5935,-118.4132"/>
</g>
<!-- metview -->
<g id="node29" class="node">
<title>metview</title>
<ellipse fill="#fde725" stroke="#000000" cx="744.0934" cy="-18" rx="44.6926" ry="18"/>
<text text-anchor="middle" x="744.0934" y="-14.3" font-family="Times,serif" font-size="14.00" fill="#000000">metview</text>
</g>
<!-- eccodes&#45;&gt;metview -->
<g id="edge3" class="edge">
<title>eccodes&#45;&gt;metview</title>
<path fill="none" stroke="#000000" d="M730.7232,-145.8789C741.3886,-136.1942 753.3485,-122.8803 759.0934,-108 766.8918,-87.8011 762.0862,-63.5142 755.9128,-45.2632"/>
<polygon fill="#000000" stroke="#000000" points="759.1672,-43.9724 752.4138,-35.809 752.6024,-46.4021 759.1672,-43.9724"/>
</g>
<!-- ecmwf_grib -->
<g id="node5" class="node">
<title>ecmwf_grib</title>
<ellipse fill="#35b779" stroke="#000000" cx="900.0934" cy="-162" rx="59.5901" ry="18"/>
<text text-anchor="middle" x="900.0934" y="-158.3" font-family="Times,serif" font-size="14.00" fill="#000000">ecmwf_grib</text>
</g>
<!-- python&#45;ecmwf_grib -->
<g id="node20" class="node">
<title>python&#45;ecmwf_grib</title>
<ellipse fill="#fde725" stroke="#000000" cx="900.0934" cy="-90" rx="93.6835" ry="18"/>
<text text-anchor="middle" x="900.0934" y="-86.3" font-family="Times,serif" font-size="14.00" fill="#000000">python ecmwf_grib</text>
</g>
<!-- ecmwf_grib&#45;&gt;python&#45;ecmwf_grib -->
<g id="edge4" class="edge">
<title>ecmwf_grib&#45;&gt;python&#45;ecmwf_grib</title>
<path fill="none" stroke="#000000" d="M900.0934,-143.8314C900.0934,-136.131 900.0934,-126.9743 900.0934,-118.4166"/>
<polygon fill="#000000" stroke="#000000" points="903.5935,-118.4132 900.0934,-108.4133 896.5935,-118.4133 903.5935,-118.4132"/>
</g>
<!-- esmf -->
<g id="node6" class="node">
<title>esmf</title>
<ellipse fill="#fde725" stroke="#000000" cx="197.0934" cy="-90" rx="30.5947" ry="18"/>
<text text-anchor="middle" x="197.0934" y="-86.3" font-family="Times,serif" font-size="14.00" fill="#000000">esmf</text>
</g>
<!-- esmf&#45;&gt;cdms2 -->
<g id="edge5" class="edge">
<title>esmf&#45;&gt;cdms2</title>
<path fill="none" stroke="#000000" d="M221.0101,-78.6743C226.2598,-76.3469 231.8248,-73.9994 237.0934,-72 281.5381,-55.1335 333.7801,-39.3667 369.1351,-29.2763"/>
<polygon fill="#000000" stroke="#000000" points="370.4193,-32.5504 379.0877,-26.4585 368.5124,-25.8151 370.4193,-32.5504"/>
</g>
<!-- ncl -->
<g id="node13" class="node">
<title>ncl</title>
<ellipse fill="#fde725" stroke="#000000" cx="197.0934" cy="-18" rx="27" ry="18"/>
<text text-anchor="middle" x="197.0934" y="-14.3" font-family="Times,serif" font-size="14.00" fill="#000000">ncl</text>
</g>
<!-- esmf&#45;&gt;ncl -->
<g id="edge6" class="edge">
<title>esmf&#45;&gt;ncl</title>
<path fill="none" stroke="#000000" d="M197.0934,-71.8314C197.0934,-64.131 197.0934,-54.9743 197.0934,-46.4166"/>
<polygon fill="#000000" stroke="#000000" points="200.5935,-46.4132 197.0934,-36.4133 193.5935,-46.4133 200.5935,-46.4132"/>
</g>
<!-- nco -->
<g id="node14" class="node">
<title>nco</title>
<ellipse fill="#fde725" stroke="#000000" cx="100.0934" cy="-18" rx="27" ry="18"/>
<text text-anchor="middle" x="100.0934" y="-14.3" font-family="Times,serif" font-size="14.00" fill="#000000">nco</text>
</g>
<!-- esmf&#45;&gt;nco -->
<g id="edge7" class="edge">
<title>esmf&#45;&gt;nco</title>
<path fill="none" stroke="#000000" d="M177.9293,-75.7751C163.1661,-64.8168 142.5938,-49.5467 126.3066,-37.4572"/>
<polygon fill="#000000" stroke="#000000" points="128.3493,-34.6146 118.2335,-31.4648 124.1771,-40.2354 128.3493,-34.6146"/>
</g>
<!-- gdal -->
<g id="node7" class="node">
<title>gdal</title>
<ellipse fill="#31688e" stroke="#000000" cx="1039.0934" cy="-162" rx="30.5947" ry="18"/>
<text text-anchor="middle" x="1039.0934" y="-158.3" font-family="Times,serif" font-size="14.00" fill="#ffffff">gdal</text>
</g>
<!-- gmt -->
<g id="node8" class="node">
<title>gmt</title>
<ellipse fill="#fde725" stroke="#000000" cx="1039.0934" cy="-90" rx="27" ry="18"/>
<text text-anchor="middle" x="1039.0934" y="-86.3" font-family="Times,serif" font-size="14.00" fill="#000000">gmt</text>
</g>
<!-- gdal&#45;&gt;gmt -->
<g id="edge8" class="edge">
<title>gdal&#45;&gt;gmt</title>
<path fill="none" stroke="#000000" d="M1039.0934,-143.8314C1039.0934,-136.131 1039.0934,-126.9743 1039.0934,-118.4166"/>
<polygon fill="#000000" stroke="#000000" points="1042.5935,-118.4132 1039.0934,-108.4133 1035.5935,-118.4133 1042.5935,-118.4132"/>
</g>
<!-- libcdms -->
<g id="node9" class="node">
<title>libcdms</title>
<ellipse fill="#fde725" stroke="#000000" cx="447.0934" cy="-90" rx="44.6926" ry="18"/>
<text text-anchor="middle" x="447.0934" y="-86.3" font-family="Times,serif" font-size="14.00" fill="#000000">libcdms</text>
</g>
<!-- libcdms&#45;&gt;cdms2 -->
<g id="edge9" class="edge">
<title>libcdms&#45;&gt;cdms2</title>
<path fill="none" stroke="#000000" d="M437.9474,-72.2022C433.6908,-63.9192 428.5377,-53.8915 423.827,-44.7248"/>
<polygon fill="#000000" stroke="#000000" points="426.818,-42.8876 419.1343,-35.593 420.592,-46.0871 426.818,-42.8876"/>
</g>
<!-- libcf -->
<g id="node10" class="node">
<title>libcf</title>
<ellipse fill="#35b779" stroke="#000000" cx="545.0934" cy="-90" rx="35.194" ry="18"/>
<text text-anchor="middle" x="545.0934" y="-86.3" font-family="Times,serif" font-size="14.00" fill="#000000">libcf</text>
</g>
<!-- libcf&#45;&gt;cdms2 -->
<g id="edge10" class="edge">
<title>libcf&#45;&gt;cdms2</title>
<path fill="none" stroke="#000000" d="M520.6459,-76.9613C499.1807,-65.5132 467.7465,-48.7483 443.879,-36.019"/>
<polygon fill="#000000" stroke="#000000" points="445.2858,-32.8027 434.8152,-31.185 441.9917,-38.9791 445.2858,-32.8027"/>
</g>
<!-- libdrs -->
<g id="node11" class="node">
<title>libdrs</title>
<ellipse fill="#35b779" stroke="#000000" cx="410.0934" cy="-162" rx="40.0939" ry="18"/>
<text text-anchor="middle" x="410.0934" y="-158.3" font-family="Times,serif" font-size="14.00" fill="#000000">libdrs</text>
</g>
<!-- libdrs&#45;&gt;cdms2 -->
<g id="edge11" class="edge">
<title>libdrs&#45;&gt;cdms2</title>
<path fill="none" stroke="#000000" d="M402.8496,-143.8366C399.1223,-133.513 394.9746,-120.2403 393.0934,-108 390.6629,-92.1857 390.6629,-87.8143 393.0934,-72 394.4521,-63.1598 396.9929,-53.7811 399.7038,-45.3637"/>
<polygon fill="#000000" stroke="#000000" points="403.0935,-46.2687 403.0267,-35.674 396.472,-43.9979 403.0935,-46.2687"/>
</g>
<!-- libdrs&#45;&gt;libcdms -->
<g id="edge12" class="edge">
<title>libdrs&#45;&gt;libcdms</title>
<path fill="none" stroke="#000000" d="M419.2395,-144.2022C423.4643,-135.981 428.5723,-126.041 433.2543,-116.9301"/>
<polygon fill="#000000" stroke="#000000" points="436.4666,-118.3366 437.9243,-107.8425 430.2406,-115.1371 436.4666,-118.3366"/>
</g>
<!-- magics&#45;&gt;metview -->
<g id="edge13" class="edge">
<title>magics&#45;&gt;metview</title>
<path fill="none" stroke="#000000" d="M718.4979,-72.2022C722.3802,-63.981 727.074,-54.041 731.3764,-44.9301"/>
<polygon fill="#000000" stroke="#000000" points="734.5625,-46.3796 735.6678,-35.8425 728.2328,-43.3905 734.5625,-46.3796"/>
</g>
<!-- netcdf&#45;cxx4 -->
<g id="node15" class="node">
<title>netcdf&#45;cxx4</title>
<ellipse fill="#35b779" stroke="#000000" cx="1152.0934" cy="-162" rx="64.189" ry="18"/>
<text text-anchor="middle" x="1152.0934" y="-158.3" font-family="Times,serif" font-size="14.00" fill="#000000">netcdf cxx4</text>
</g>
<!-- netcdf&#45;fortran -->
<g id="node16" class="node">
<title>netcdf&#45;fortran</title>
<ellipse fill="#31688e" stroke="#000000" cx="216.0934" cy="-162" rx="79.0865" ry="18"/>
<text text-anchor="middle" x="216.0934" y="-158.3" font-family="Times,serif" font-size="14.00" fill="#ffffff">netcdf fortran</text>
</g>
<!-- netcdf&#45;fortran&#45;&gt;esmf -->
<g id="edge14" class="edge">
<title>netcdf&#45;fortran&#45;&gt;esmf</title>
<path fill="none" stroke="#000000" d="M211.2989,-143.8314C209.2129,-135.9266 206.722,-126.4872 204.4128,-117.7365"/>
<polygon fill="#000000" stroke="#000000" points="207.7563,-116.6894 201.8206,-107.9134 200.988,-118.4755 207.7563,-116.6894"/>
</g>
<!-- pyferret -->
<g id="node18" class="node">
<title>pyferret</title>
<ellipse fill="#fde725" stroke="#000000" cx="296.0934" cy="-90" rx="50.0912" ry="18"/>
<text text-anchor="middle" x="296.0934" y="-86.3" font-family="Times,serif" font-size="14.00" fill="#000000">pyferret</text>
</g>
<!-- netcdf&#45;fortran&#45;&gt;pyferret -->
<g id="edge15" class="edge">
<title>netcdf&#45;fortran&#45;&gt;pyferret</title>
<path fill="none" stroke="#000000" d="M235.8687,-144.2022C246.0705,-135.0206 258.6543,-123.6952 269.6765,-113.7752"/>
<polygon fill="#000000" stroke="#000000" points="272.2785,-116.1422 277.3701,-106.851 267.5958,-110.9391 272.2785,-116.1422"/>
</g>
<!-- paraview -->
<g id="node17" class="node">
<title>paraview</title>
<ellipse fill="#35b779" stroke="#000000" cx="1284.0934" cy="-162" rx="50.0912" ry="18"/>
<text text-anchor="middle" x="1284.0934" y="-158.3" font-family="Times,serif" font-size="14.00" fill="#000000">paraview</text>
</g>
<!-- pynio -->
<g id="node19" class="node">
<title>pynio</title>
<ellipse fill="#fde725" stroke="#000000" cx="1387.0934" cy="-162" rx="35.194" ry="18"/>
<text text-anchor="middle" x="1387.0934" y="-158.3" font-family="Times,serif" font-size="14.00" fill="#000000">pynio</text>
</g>
<!-- r&#45;ncdf4 -->
<g id="node21" class="node">
<title>r&#45;ncdf4</title>
<ellipse fill="#35b779" stroke="#000000" cx="1485.0934" cy="-162" rx="44.6926" ry="18"/>
<text text-anchor="middle" x="1485.0934" y="-158.3" font-family="Times,serif" font-size="14.00" fill="#000000">r ncdf4</text>
</g>
<!-- r&#45;rnetcdf -->
<g id="node22" class="node">
<title>r&#45;rnetcdf</title>
<ellipse fill="#35b779" stroke="#000000" cx="1602.0934" cy="-162" rx="54.6905" ry="18"/>
<text text-anchor="middle" x="1602.0934" y="-158.3" font-family="Times,serif" font-size="14.00" fill="#000000">r rnetcdf</text>
</g>
<!-- wgrib2 -->
<g id="node23" class="node">
<title>wgrib2</title>
<ellipse fill="#35b779" stroke="#000000" cx="1715.0934" cy="-162" rx="40.0939" ry="18"/>
<text text-anchor="middle" x="1715.0934" y="-158.3" font-family="Times,serif" font-size="14.00" fill="#000000">wgrib2</text>
</g>
<!-- vic -->
<g id="node24" class="node">
<title>vic</title>
<ellipse fill="#35b779" stroke="#000000" cx="1800.0934" cy="-162" rx="27" ry="18"/>
<text text-anchor="middle" x="1800.0934" y="-158.3" font-family="Times,serif" font-size="14.00" fill="#000000">vic</text>
</g>
<!-- vtk -->
<g id="node25" class="node">
<title>vtk</title>
<ellipse fill="#31688e" stroke="#000000" cx="1872.0934" cy="-162" rx="27" ry="18"/>
<text text-anchor="middle" x="1872.0934" y="-158.3" font-family="Times,serif" font-size="14.00" fill="#ffffff">vtk</text>
</g>
<!-- vmd&#45;python -->
<g id="node26" class="node">
<title>vmd&#45;python</title>
<ellipse fill="#35b779" stroke="#000000" cx="1977.0934" cy="-162" rx="59.5901" ry="18"/>
<text text-anchor="middle" x="1977.0934" y="-158.3" font-family="Times,serif" font-size="14.00" fill="#000000">vmd python</text>
</g>
<!-- cmor -->
<g id="node27" class="node">
<title>cmor</title>
<ellipse fill="#fde725" stroke="#000000" cx="2085.0934" cy="-162" rx="30.5947" ry="18"/>
<text text-anchor="middle" x="2085.0934" y="-158.3" font-family="Times,serif" font-size="14.00" fill="#000000">cmor</text>
</g>
<!-- tempest&#45;remap -->
<g id="node28" class="node">
<title>tempest&#45;remap</title>
<ellipse fill="#35b779" stroke="#000000" cx="74.0934" cy="-90" rx="74.187" ry="18"/>
<text text-anchor="middle" x="74.0934" y="-86.3" font-family="Times,serif" font-size="14.00" fill="#000000">tempest remap</text>
</g>
<!-- tempest&#45;remap&#45;&gt;nco -->
<g id="edge16" class="edge">
<title>tempest&#45;remap&#45;&gt;nco</title>
<path fill="none" stroke="#000000" d="M80.6543,-71.8314C83.5399,-63.8406 86.9916,-54.2819 90.1804,-45.4514"/>
<polygon fill="#000000" stroke="#000000" points="93.5201,-46.5077 93.6247,-35.9134 86.9362,-44.1302 93.5201,-46.5077"/>
</g>
<!-- mpas_tools -->
<g id="node30" class="node">
<title>mpas_tools</title>
<ellipse fill="#fde725" stroke="#000000" cx="2193.0934" cy="-162" rx="59.5901" ry="18"/>
<text text-anchor="middle" x="2193.0934" y="-158.3" font-family="Times,serif" font-size="14.00" fill="#000000">mpas_tools</text>
</g>
<!-- fpocket -->
<g id="node31" class="node">
<title>fpocket</title>
<ellipse fill="#35b779" stroke="#000000" cx="2316.0934" cy="-162" rx="44.6926" ry="18"/>
<text text-anchor="middle" x="2316.0934" y="-158.3" font-family="Times,serif" font-size="14.00" fill="#000000">fpocket</text>
</g>
<!-- sphinxdft -->
<g id="node32" class="node">
<title>sphinxdft</title>
<ellipse fill="#35b779" stroke="#000000" cx="2433.0934" cy="-162" rx="54.6905" ry="18"/>
<text text-anchor="middle" x="2433.0934" y="-158.3" font-family="Times,serif" font-size="14.00" fill="#000000">sphinxdft</text>
</g>
<!-- ncview -->
<g id="node33" class="node">
<title>ncview</title>
<ellipse fill="#35b779" stroke="#000000" cx="2546.0934" cy="-162" rx="40.0939" ry="18"/>
<text text-anchor="middle" x="2546.0934" y="-158.3" font-family="Times,serif" font-size="14.00" fill="#000000">ncview</text>
</g>
</g>
</svg>
