<?xml version="1.0" encoding="UTF-8" standalone="no"?>
<!DOCTYPE svg PUBLIC "-//W3C//DTD SVG 1.1//EN"
 "http://www.w3.org/Graphics/SVG/1.1/DTD/svg11.dtd">
<!-- Generated by graphviz version 2.40.1 (20161225.0304)
 -->
<!-- Title: %3 Pages: 1 -->
<svg width="1617pt" height="188pt"
 viewBox="0.00 0.00 1617.39 188.00" xmlns="http://www.w3.org/2000/svg" xmlns:xlink="http://www.w3.org/1999/xlink">
<g id="graph0" class="graph" transform="scale(1 1) rotate(0) translate(4 184)">
<title>%3</title>
<polygon fill="#ffffff" stroke="transparent" points="-4,4 -4,-184 1613.3899,-184 1613.3899,4 -4,4"/>
<!-- cdat&#45;lite -->
<g id="node1" class="node">
<title>cdat&#45;lite</title>
<ellipse fill="#31688e" stroke="#000000" cx="54.5952" cy="-162" rx="54.6905" ry="18"/>
<text text-anchor="middle" x="54.5952" y="-158.3" font-family="Times,serif" font-size="14.00" fill="#ffffff">cdat lite</text>
</g>
<!-- cdms2 -->
<g id="node2" class="node">
<title>cdms2</title>
<ellipse fill="#fde725" stroke="#000000" cx="254.5952" cy="-18" rx="35.194" ry="18"/>
<text text-anchor="middle" x="254.5952" y="-14.3" font-family="Times,serif" font-size="14.00" fill="#000000">cdms2</text>
</g>
<!-- cdo -->
<g id="node3" class="node">
<title>cdo</title>
<ellipse fill="#fde725" stroke="#000000" cx="337.5952" cy="-162" rx="27" ry="18"/>
<text text-anchor="middle" x="337.5952" y="-158.3" font-family="Times,serif" font-size="14.00" fill="#000000">cdo</text>
</g>
<!-- esmf -->
<g id="node4" class="node">
<title>esmf</title>
<ellipse fill="#fde725" stroke="#000000" cx="385.5952" cy="-90" rx="30.5947" ry="18"/>
<text text-anchor="middle" x="385.5952" y="-86.3" font-family="Times,serif" font-size="14.00" fill="#000000">esmf</text>
</g>
<!-- esmf&#45;&gt;cdms2 -->
<g id="edge1" class="edge">
<title>esmf&#45;&gt;cdms2</title>
<path fill="none" stroke="#000000" d="M363.0755,-77.6228C342.2803,-66.1934 311.1369,-49.0764 287.5462,-36.1105"/>
<polygon fill="#000000" stroke="#000000" points="289.0422,-32.939 278.5928,-31.1895 285.6705,-39.0735 289.0422,-32.939"/>
</g>
<!-- ncl -->
<g id="node11" class="node">
<title>ncl</title>
<ellipse fill="#fde725" stroke="#000000" cx="349.5952" cy="-18" rx="27" ry="18"/>
<text text-anchor="middle" x="349.5952" y="-14.3" font-family="Times,serif" font-size="14.00" fill="#000000">ncl</text>
</g>
<!-- esmf&#45;&gt;ncl -->
<g id="edge2" class="edge">
<title>esmf&#45;&gt;ncl</title>
<path fill="none" stroke="#000000" d="M376.8806,-72.5708C372.6355,-64.0807 367.4416,-53.6929 362.7289,-44.2674"/>
<polygon fill="#000000" stroke="#000000" points="365.8322,-42.6477 358.2295,-35.2687 359.5712,-45.7782 365.8322,-42.6477"/>
</g>
<!-- nco -->
<g id="node12" class="node">
<title>nco</title>
<ellipse fill="#fde725" stroke="#000000" cx="421.5952" cy="-18" rx="27" ry="18"/>
<text text-anchor="middle" x="421.5952" y="-14.3" font-family="Times,serif" font-size="14.00" fill="#000000">nco</text>
</g>
<!-- esmf&#45;&gt;nco -->
<g id="edge3" class="edge">
<title>esmf&#45;&gt;nco</title>
<path fill="none" stroke="#000000" d="M394.3098,-72.5708C398.5548,-64.0807 403.7487,-53.6929 408.4615,-44.2674"/>
<polygon fill="#000000" stroke="#000000" points="411.6191,-45.7782 412.9608,-35.2687 405.3581,-42.6477 411.6191,-45.7782"/>
</g>
<!-- gdal -->
<g id="node5" class="node">
<title>gdal</title>
<ellipse fill="#31688e" stroke="#000000" cx="461.5952" cy="-162" rx="30.5947" ry="18"/>
<text text-anchor="middle" x="461.5952" y="-158.3" font-family="Times,serif" font-size="14.00" fill="#ffffff">gdal</text>
</g>
<!-- gmt -->
<g id="node6" class="node">
<title>gmt</title>
<ellipse fill="#fde725" stroke="#000000" cx="461.5952" cy="-90" rx="27" ry="18"/>
<text text-anchor="middle" x="461.5952" y="-86.3" font-family="Times,serif" font-size="14.00" fill="#000000">gmt</text>
</g>
<!-- gdal&#45;&gt;gmt -->
<g id="edge4" class="edge">
<title>gdal&#45;&gt;gmt</title>
<path fill="none" stroke="#000000" d="M461.5952,-143.8314C461.5952,-136.131 461.5952,-126.9743 461.5952,-118.4166"/>
<polygon fill="#000000" stroke="#000000" points="465.0953,-118.4132 461.5952,-108.4133 458.0953,-118.4133 465.0953,-118.4132"/>
</g>
<!-- libcdms -->
<g id="node7" class="node">
<title>libcdms</title>
<ellipse fill="#fde725" stroke="#000000" cx="203.5952" cy="-90" rx="44.6926" ry="18"/>
<text text-anchor="middle" x="203.5952" y="-86.3" font-family="Times,serif" font-size="14.00" fill="#000000">libcdms</text>
</g>
<!-- libcdms&#45;&gt;cdms2 -->
<g id="edge5" class="edge">
<title>libcdms&#45;&gt;cdms2</title>
<path fill="none" stroke="#000000" d="M215.9408,-72.5708C222.08,-63.9038 229.6199,-53.2592 236.4054,-43.6796"/>
<polygon fill="#000000" stroke="#000000" points="239.439,-45.452 242.3632,-35.2687 233.7269,-41.4059 239.439,-45.452"/>
</g>
<!-- libcf -->
<g id="node8" class="node">
<title>libcf</title>
<ellipse fill="#31688e" stroke="#000000" cx="301.5952" cy="-90" rx="35.194" ry="18"/>
<text text-anchor="middle" x="301.5952" y="-86.3" font-family="Times,serif" font-size="14.00" fill="#ffffff">libcf</text>
</g>
<!-- libcf&#45;&gt;cdms2 -->
<g id="edge6" class="edge">
<title>libcf&#45;&gt;cdms2</title>
<path fill="none" stroke="#000000" d="M290.2178,-72.5708C284.5601,-63.9038 277.6116,-53.2592 271.3582,-43.6796"/>
<polygon fill="#000000" stroke="#000000" points="274.2649,-41.7293 265.8678,-35.2687 268.4032,-45.5557 274.2649,-41.7293"/>
</g>
<!-- libdrs -->
<g id="node9" class="node">
<title>libdrs</title>
<ellipse fill="#31688e" stroke="#000000" cx="167.5952" cy="-162" rx="40.0939" ry="18"/>
<text text-anchor="middle" x="167.5952" y="-158.3" font-family="Times,serif" font-size="14.00" fill="#ffffff">libdrs</text>
</g>
<!-- libdrs&#45;&gt;cdms2 -->
<g id="edge7" class="edge">
<title>libdrs&#45;&gt;cdms2</title>
<path fill="none" stroke="#000000" d="M157.1973,-144.476C147.3363,-125.3437 135.9,-94.4433 149.5952,-72 163.3291,-49.4931 189.769,-35.9708 212.6798,-28.0865"/>
<polygon fill="#000000" stroke="#000000" points="213.7692,-31.4128 222.2353,-25.0429 211.6447,-24.743 213.7692,-31.4128"/>
</g>
<!-- libdrs&#45;&gt;libcdms -->
<g id="edge8" class="edge">
<title>libdrs&#45;&gt;libcdms</title>
<path fill="none" stroke="#000000" d="M176.494,-144.2022C180.6047,-135.981 185.5746,-126.041 190.1301,-116.9301"/>
<polygon fill="#000000" stroke="#000000" points="193.3322,-118.3521 194.6739,-107.8425 187.0712,-115.2216 193.3322,-118.3521"/>
</g>
<!-- magics -->
<g id="node10" class="node">
<title>magics</title>
<ellipse fill="#fde725" stroke="#000000" cx="551.5952" cy="-162" rx="40.0939" ry="18"/>
<text text-anchor="middle" x="551.5952" y="-158.3" font-family="Times,serif" font-size="14.00" fill="#000000">magics</text>
</g>
<!-- metview -->
<g id="node21" class="node">
<title>metview</title>
<ellipse fill="#fde725" stroke="#000000" cx="551.5952" cy="-90" rx="44.6926" ry="18"/>
<text text-anchor="middle" x="551.5952" y="-86.3" font-family="Times,serif" font-size="14.00" fill="#000000">metview</text>
</g>
<!-- magics&#45;&gt;metview -->
<g id="edge9" class="edge">
<title>magics&#45;&gt;metview</title>
<path fill="none" stroke="#000000" d="M551.5952,-143.8314C551.5952,-136.131 551.5952,-126.9743 551.5952,-118.4166"/>
<polygon fill="#000000" stroke="#000000" points="555.0953,-118.4132 551.5952,-108.4133 548.0953,-118.4133 555.0953,-118.4132"/>
</g>
<!-- paraview -->
<g id="node13" class="node">
<title>paraview</title>
<ellipse fill="#31688e" stroke="#000000" cx="659.5952" cy="-162" rx="50.0912" ry="18"/>
<text text-anchor="middle" x="659.5952" y="-158.3" font-family="Times,serif" font-size="14.00" fill="#ffffff">paraview</text>
</g>
<!-- pyferret -->
<g id="node14" class="node">
<title>pyferret</title>
<ellipse fill="#fde725" stroke="#000000" cx="777.5952" cy="-162" rx="50.0912" ry="18"/>
<text text-anchor="middle" x="777.5952" y="-158.3" font-family="Times,serif" font-size="14.00" fill="#000000">pyferret</text>
</g>
<!-- pynio -->
<g id="node15" class="node">
<title>pynio</title>
<ellipse fill="#fde725" stroke="#000000" cx="880.5952" cy="-162" rx="35.194" ry="18"/>
<text text-anchor="middle" x="880.5952" y="-158.3" font-family="Times,serif" font-size="14.00" fill="#000000">pynio</text>
</g>
<!-- python&#45;ecmwf_grib -->
<g id="node16" class="node">
<title>python&#45;ecmwf_grib</title>
<ellipse fill="#fde725" stroke="#000000" cx="1027.5952" cy="-162" rx="93.6835" ry="18"/>
<text text-anchor="middle" x="1027.5952" y="-158.3" font-family="Times,serif" font-size="14.00" fill="#000000">python ecmwf_grib</text>
</g>
<!-- r&#45;rnetcdf -->
<g id="node17" class="node">
<title>r&#45;rnetcdf</title>
<ellipse fill="#31688e" stroke="#000000" cx="1193.5952" cy="-162" rx="54.6905" ry="18"/>
<text text-anchor="middle" x="1193.5952" y="-158.3" font-family="Times,serif" font-size="14.00" fill="#ffffff">r rnetcdf</text>
</g>
<!-- vic -->
<g id="node18" class="node">
<title>vic</title>
<ellipse fill="#31688e" stroke="#000000" cx="1293.5952" cy="-162" rx="27" ry="18"/>
<text text-anchor="middle" x="1293.5952" y="-158.3" font-family="Times,serif" font-size="14.00" fill="#ffffff">vic</text>
</g>
<!-- vtk -->
<g id="node19" class="node">
<title>vtk</title>
<ellipse fill="#31688e" stroke="#000000" cx="1365.5952" cy="-162" rx="27" ry="18"/>
<text text-anchor="middle" x="1365.5952" y="-158.3" font-family="Times,serif" font-size="14.00" fill="#ffffff">vtk</text>
</g>
<!-- cmor -->
<g id="node20" class="node">
<title>cmor</title>
<ellipse fill="#fde725" stroke="#000000" cx="1441.5952" cy="-162" rx="30.5947" ry="18"/>
<text text-anchor="middle" x="1441.5952" y="-158.3" font-family="Times,serif" font-size="14.00" fill="#000000">cmor</text>
</g>
<!-- mpas_tools -->
<g id="node22" class="node">
<title>mpas_tools</title>
<ellipse fill="#fde725" stroke="#000000" cx="1549.5952" cy="-162" rx="59.5901" ry="18"/>
<text text-anchor="middle" x="1549.5952" y="-158.3" font-family="Times,serif" font-size="14.00" fill="#000000">mpas_tools</text>
</g>
</g>
</svg>
