<?xml version="1.0" encoding="UTF-8" standalone="no"?>
<!DOCTYPE svg PUBLIC "-//W3C//DTD SVG 1.1//EN"
 "http://www.w3.org/Graphics/SVG/1.1/DTD/svg11.dtd">
<!-- Generated by graphviz version 2.42.3 (20191010.1750)
 -->
<!-- Title: %3 Pages: 1 -->
<svg width="1444pt" height="952pt"
 viewBox="0.00 0.00 1444.29 952.00" xmlns="http://www.w3.org/2000/svg" xmlns:xlink="http://www.w3.org/1999/xlink">
<g id="graph0" class="graph" transform="scale(1 1) rotate(0) translate(4 948)">
<title>%3</title>
<polygon fill="white" stroke="transparent" points="-4,4 -4,-948 1440.29,-948 1440.29,4 -4,4"/>
<!-- cdms2 -->
<g id="node1" class="node">
<title>cdms2</title>
<ellipse fill="#fde725" stroke="black" cx="143.19" cy="-458" rx="35.19" ry="18"/>
<text text-anchor="middle" x="143.19" y="-454.3" font-family="Times,serif" font-size="14.00">cdms2</text>
</g>
<!-- cdo -->
<g id="node2" class="node">
<title>cdo</title>
<ellipse fill="#fde725" stroke="black" cx="983.19" cy="-674" rx="27" ry="18"/>
<text text-anchor="middle" x="983.19" y="-670.3" font-family="Times,serif" font-size="14.00">cdo</text>
</g>
<!-- cdtime -->
<g id="node3" class="node">
<title>cdtime</title>
<ellipse fill="#fde725" stroke="black" cx="96.19" cy="-530" rx="40.5" ry="18"/>
<text text-anchor="middle" x="96.19" y="-526.3" font-family="Times,serif" font-size="14.00">cdtime</text>
</g>
<!-- cdtime&#45;&gt;cdms2 -->
<g id="edge1" class="edge">
<title>cdtime&#45;&gt;cdms2</title>
<path fill="none" stroke="black" d="M107.33,-512.41C113.07,-503.87 120.18,-493.28 126.55,-483.79"/>
<polygon fill="black" stroke="black" points="129.47,-485.72 132.13,-475.47 123.65,-481.82 129.47,-485.72"/>
</g>
<!-- eccodes -->
<g id="node4" class="node">
<title>eccodes</title>
<ellipse fill="#35b779" stroke="black" cx="1127.19" cy="-746" rx="45" ry="18"/>
<text text-anchor="middle" x="1127.19" y="-742.3" font-family="Times,serif" font-size="14.00">eccodes</text>
</g>
<!-- eccodes&#45;&gt;cdo -->
<g id="edge2" class="edge">
<title>eccodes&#45;&gt;cdo</title>
<path fill="none" stroke="black" d="M1099.77,-731.67C1075.17,-719.71 1039.12,-702.19 1013.63,-689.8"/>
<polygon fill="black" stroke="black" points="1014.95,-686.55 1004.43,-685.32 1011.89,-692.84 1014.95,-686.55"/>
</g>
<!-- magics -->
<g id="node5" class="node">
<title>magics</title>
<ellipse fill="#fde725" stroke="black" cx="1022.19" cy="-602" rx="40.5" ry="18"/>
<text text-anchor="middle" x="1022.19" y="-598.3" font-family="Times,serif" font-size="14.00">magics</text>
</g>
<!-- eccodes&#45;&gt;magics -->
<g id="edge3" class="edge">
<title>eccodes&#45;&gt;magics</title>
<path fill="none" stroke="black" d="M1110.52,-729.06C1100.34,-718.92 1087.36,-705.24 1077.19,-692 1061.65,-671.76 1046.6,-646.93 1036.18,-628.64"/>
<polygon fill="black" stroke="black" points="1039.13,-626.74 1031.18,-619.73 1033.03,-630.17 1039.13,-626.74"/>
</g>
<!-- metview -->
<g id="node6" class="node">
<title>metview</title>
<ellipse fill="#fde725" stroke="black" cx="1112.19" cy="-458" rx="45" ry="18"/>
<text text-anchor="middle" x="1112.19" y="-454.3" font-family="Times,serif" font-size="14.00">metview</text>
</g>
<!-- eccodes&#45;&gt;metview -->
<g id="edge4" class="edge">
<title>eccodes&#45;&gt;metview</title>
<path fill="none" stroke="black" d="M1124.61,-727.78C1119.11,-689.22 1106.9,-592.91 1109.19,-512 1109.43,-503.67 1109.87,-494.62 1110.35,-486.39"/>
<polygon fill="black" stroke="black" points="1113.85,-486.37 1110.97,-476.18 1106.87,-485.94 1113.85,-486.37"/>
</g>
<!-- magics&#45;metview -->
<g id="node7" class="node">
<title>magics&#45;metview</title>
<ellipse fill="#fde725" stroke="black" cx="1198.19" cy="-530" rx="79.5" ry="18"/>
<text text-anchor="middle" x="1198.19" y="-526.3" font-family="Times,serif" font-size="14.00">magics metview</text>
</g>
<!-- eccodes&#45;&gt;magics&#45;metview -->
<g id="edge5" class="edge">
<title>eccodes&#45;&gt;magics&#45;metview</title>
<path fill="none" stroke="black" d="M1132.88,-727.85C1145.22,-690.68 1174.49,-602.44 1189.29,-557.82"/>
<polygon fill="black" stroke="black" points="1192.65,-558.83 1192.47,-548.23 1186,-556.62 1192.65,-558.83"/>
</g>
<!-- magics&#45;metview&#45;batch -->
<g id="node8" class="node">
<title>magics&#45;metview&#45;batch</title>
<ellipse fill="#fde725" stroke="black" cx="1294.19" cy="-458" rx="108.58" ry="18"/>
<text text-anchor="middle" x="1294.19" y="-454.3" font-family="Times,serif" font-size="14.00">magics metview batch</text>
</g>
<!-- eccodes&#45;&gt;magics&#45;metview&#45;batch -->
<g id="edge6" class="edge">
<title>eccodes&#45;&gt;magics&#45;metview&#45;batch</title>
<path fill="none" stroke="black" d="M1145.56,-729.37C1180.17,-698.67 1254.39,-626.64 1286.19,-548 1294.13,-528.38 1295.88,-504.39 1295.78,-486.26"/>
<polygon fill="black" stroke="black" points="1299.28,-485.99 1295.53,-476.08 1292.28,-486.17 1299.28,-485.99"/>
</g>
<!-- metview&#45;batch -->
<g id="node9" class="node">
<title>metview&#45;batch</title>
<ellipse fill="#fde725" stroke="black" cx="1362.19" cy="-386" rx="74.19" ry="18"/>
<text text-anchor="middle" x="1362.19" y="-382.3" font-family="Times,serif" font-size="14.00">metview batch</text>
</g>
<!-- eccodes&#45;&gt;metview&#45;batch -->
<g id="edge7" class="edge">
<title>eccodes&#45;&gt;metview&#45;batch</title>
<path fill="none" stroke="black" d="M1172.05,-743.93C1256.61,-739.29 1431.19,-716.01 1431.19,-603 1431.19,-603 1431.19,-603 1431.19,-529 1431.19,-488.55 1430.99,-475.81 1412.19,-440 1406.51,-429.17 1397.99,-418.96 1389.58,-410.45"/>
<polygon fill="black" stroke="black" points="1391.93,-407.85 1382.3,-403.43 1387.07,-412.89 1391.93,-407.85"/>
</g>
<!-- magics&#45;metview&#45;&gt;metview -->
<g id="edge8" class="edge">
<title>magics&#45;metview&#45;&gt;metview</title>
<path fill="none" stroke="black" d="M1177.81,-512.41C1166.24,-502.99 1151.61,-491.09 1139.11,-480.91"/>
<polygon fill="black" stroke="black" points="1141.21,-478.11 1131.25,-474.51 1136.79,-483.54 1141.21,-478.11"/>
</g>
<!-- magics&#45;metview&#45;batch&#45;&gt;metview&#45;batch -->
<g id="edge9" class="edge">
<title>magics&#45;metview&#45;batch&#45;&gt;metview&#45;batch</title>
<path fill="none" stroke="black" d="M1310.65,-440.05C1319.09,-431.37 1329.51,-420.64 1338.77,-411.11"/>
<polygon fill="black" stroke="black" points="1341.43,-413.4 1345.88,-403.79 1336.4,-408.52 1341.43,-413.4"/>
</g>
<!-- ecmwf_grib -->
<g id="node10" class="node">
<title>ecmwf_grib</title>
<ellipse fill="#35b779" stroke="black" cx="874.19" cy="-926" rx="60" ry="18"/>
<text text-anchor="middle" x="874.19" y="-922.3" font-family="Times,serif" font-size="14.00">ecmwf_grib</text>
</g>
<!-- netcdf&#45;cxx4 -->
<g id="node11" class="node">
<title>netcdf&#45;cxx4</title>
<ellipse fill="#35b779" stroke="black" cx="874.19" cy="-854" rx="64.5" ry="18"/>
<text text-anchor="middle" x="874.19" y="-850.3" font-family="Times,serif" font-size="14.00">netcdf cxx4</text>
</g>
<!-- ecmwf_grib&#45;&gt;netcdf&#45;cxx4 -->
<!-- paraview -->
<g id="node22" class="node">
<title>paraview</title>
<ellipse fill="#35b779" stroke="black" cx="874.19" cy="-782" rx="50.09" ry="18"/>
<text text-anchor="middle" x="874.19" y="-778.3" font-family="Times,serif" font-size="14.00">paraview</text>
</g>
<!-- netcdf&#45;cxx4&#45;&gt;paraview -->
<!-- esmf -->
<g id="node12" class="node">
<title>esmf</title>
<ellipse fill="#fde725" stroke="black" cx="312.19" cy="-530" rx="30.59" ry="18"/>
<text text-anchor="middle" x="312.19" y="-526.3" font-family="Times,serif" font-size="14.00">esmf</text>
</g>
<!-- esmf&#45;&gt;cdms2 -->
<g id="edge11" class="edge">
<title>esmf&#45;&gt;cdms2</title>
<path fill="none" stroke="black" d="M287.98,-518.97C259.4,-507.13 211.63,-487.35 178.83,-473.76"/>
<polygon fill="black" stroke="black" points="180.16,-470.53 169.59,-469.93 177.49,-476.99 180.16,-470.53"/>
</g>
<!-- ncl -->
<g id="node13" class="node">
<title>ncl</title>
<ellipse fill="#fde725" stroke="black" cx="416.19" cy="-458" rx="27" ry="18"/>
<text text-anchor="middle" x="416.19" y="-454.3" font-family="Times,serif" font-size="14.00">ncl</text>
</g>
<!-- esmf&#45;&gt;ncl -->
<g id="edge12" class="edge">
<title>esmf&#45;&gt;ncl</title>
<path fill="none" stroke="black" d="M331.75,-515.83C348.04,-504.87 371.38,-489.16 389.4,-477.03"/>
<polygon fill="black" stroke="black" points="391.42,-479.89 397.77,-471.4 387.52,-474.08 391.42,-479.89"/>
</g>
<!-- nco -->
<g id="node14" class="node">
<title>nco</title>
<ellipse fill="#fde725" stroke="black" cx="328.19" cy="-458" rx="27" ry="18"/>
<text text-anchor="middle" x="328.19" y="-454.3" font-family="Times,serif" font-size="14.00">nco</text>
</g>
<!-- esmf&#45;&gt;nco -->
<g id="edge13" class="edge">
<title>esmf&#45;&gt;nco</title>
<path fill="none" stroke="black" d="M316.07,-512.05C317.85,-504.26 320,-494.82 322,-486.08"/>
<polygon fill="black" stroke="black" points="325.43,-486.8 324.24,-476.28 318.6,-485.24 325.43,-486.8"/>
</g>
<!-- gdal -->
<g id="node15" class="node">
<title>gdal</title>
<g id="a_node15"><a xlink:href="https://github.com/conda-forge/gdal-feedstock/pull/373" xlink:title="gdal">
<ellipse fill="#31688e" stroke="black" cx="558.19" cy="-530" rx="30.59" ry="18"/>
<text text-anchor="middle" x="558.19" y="-526.3" font-family="Times,serif" font-size="14.00" fill="white">gdal</text>
</a>
</g>
</g>
<!-- gdal&#45;&gt;ncl -->
<g id="edge14" class="edge">
<title>gdal&#45;&gt;ncl</title>
<path fill="none" stroke="black" d="M535.38,-517.75C511.36,-505.91 473.41,-487.2 446.8,-474.09"/>
<polygon fill="black" stroke="black" points="448.07,-470.81 437.56,-469.53 444.98,-477.09 448.07,-470.81"/>
</g>
<!-- gmt -->
<g id="node16" class="node">
<title>gmt</title>
<ellipse fill="#fde725" stroke="black" cx="558.19" cy="-458" rx="27" ry="18"/>
<text text-anchor="middle" x="558.19" y="-454.3" font-family="Times,serif" font-size="14.00">gmt</text>
</g>
<!-- gdal&#45;&gt;gmt -->
<g id="edge15" class="edge">
<title>gdal&#45;&gt;gmt</title>
<path fill="none" stroke="black" d="M558.19,-511.7C558.19,-503.98 558.19,-494.71 558.19,-486.11"/>
<polygon fill="black" stroke="black" points="561.69,-486.1 558.19,-476.1 554.69,-486.1 561.69,-486.1"/>
</g>
<!-- pynio -->
<g id="node17" class="node">
<title>pynio</title>
<ellipse fill="#35b779" stroke="black" cx="503.19" cy="-386" rx="35.19" ry="18"/>
<text text-anchor="middle" x="503.19" y="-382.3" font-family="Times,serif" font-size="14.00">pynio</text>
</g>
<!-- gdal&#45;&gt;pynio -->
<g id="edge16" class="edge">
<title>gdal&#45;&gt;pynio</title>
<path fill="none" stroke="black" d="M545.09,-513.25C537.35,-503.17 527.96,-489.5 522.19,-476 513.73,-456.17 508.89,-432.2 506.21,-414.13"/>
<polygon fill="black" stroke="black" points="509.65,-413.43 504.85,-403.99 502.72,-414.37 509.65,-413.43"/>
</g>
<!-- libcdms -->
<g id="node18" class="node">
<title>libcdms</title>
<ellipse fill="#fde725" stroke="black" cx="106.19" cy="-674" rx="45" ry="18"/>
<text text-anchor="middle" x="106.19" y="-670.3" font-family="Times,serif" font-size="14.00">libcdms</text>
</g>
<!-- libcdms&#45;&gt;cdms2 -->
<g id="edge17" class="edge">
<title>libcdms&#45;&gt;cdms2</title>
<path fill="none" stroke="black" d="M69.18,-663.36C47.3,-655.54 21.36,-642.1 8.19,-620 0,-606.26 5.15,-599.71 8.19,-584 14.76,-550.13 13.8,-537.36 37.19,-512 55.05,-492.63 81.57,-479.38 103.61,-470.97"/>
<polygon fill="black" stroke="black" points="104.85,-474.25 113.06,-467.55 102.46,-467.66 104.85,-474.25"/>
</g>
<!-- libcdms&#45;&gt;cdtime -->
<g id="edge18" class="edge">
<title>libcdms&#45;&gt;cdtime</title>
<path fill="none" stroke="black" d="M114.8,-656.18C122.86,-638.22 132.77,-608.96 126.19,-584 123.62,-574.24 118.8,-564.39 113.75,-555.87"/>
<polygon fill="black" stroke="black" points="116.59,-553.81 108.3,-547.22 110.67,-557.54 116.59,-553.81"/>
</g>
<!-- libdrs_f -->
<g id="node19" class="node">
<title>libdrs_f</title>
<ellipse fill="#fde725" stroke="black" cx="67.19" cy="-602" rx="50.09" ry="18"/>
<text text-anchor="middle" x="67.19" y="-598.3" font-family="Times,serif" font-size="14.00">libdrs_f</text>
</g>
<!-- libcdms&#45;&gt;libdrs_f -->
<g id="edge19" class="edge">
<title>libcdms&#45;&gt;libdrs_f</title>
<path fill="none" stroke="black" d="M96.75,-656.05C92.15,-647.8 86.53,-637.7 81.42,-628.54"/>
<polygon fill="black" stroke="black" points="84.47,-626.82 76.55,-619.79 78.36,-630.23 84.47,-626.82"/>
</g>
<!-- libdrs_f&#45;&gt;cdms2 -->
<g id="edge20" class="edge">
<title>libdrs_f&#45;&gt;cdms2</title>
<path fill="none" stroke="black" d="M56.25,-584.14C45.57,-565.36 32.75,-534.67 46.19,-512 58.45,-491.34 81.91,-478.21 102.69,-470.19"/>
<polygon fill="black" stroke="black" points="104.07,-473.42 112.3,-466.75 101.71,-466.82 104.07,-473.42"/>
</g>
<!-- libdrs_f&#45;&gt;cdtime -->
<g id="edge21" class="edge">
<title>libdrs_f&#45;&gt;cdtime</title>
<path fill="none" stroke="black" d="M74.21,-584.05C77.56,-575.97 81.64,-566.12 85.37,-557.11"/>
<polygon fill="black" stroke="black" points="88.64,-558.37 89.24,-547.79 82.18,-555.69 88.64,-558.37"/>
</g>
<!-- libcf -->
<g id="node20" class="node">
<title>libcf</title>
<ellipse fill="#35b779" stroke="black" cx="190.19" cy="-530" rx="35.19" ry="18"/>
<text text-anchor="middle" x="190.19" y="-526.3" font-family="Times,serif" font-size="14.00">libcf</text>
</g>
<!-- libcf&#45;&gt;cdms2 -->
<g id="edge22" class="edge">
<title>libcf&#45;&gt;cdms2</title>
<path fill="none" stroke="black" d="M179.29,-512.76C173.48,-504.11 166.2,-493.27 159.71,-483.6"/>
<polygon fill="black" stroke="black" points="162.51,-481.5 154.03,-475.15 156.7,-485.4 162.51,-481.5"/>
</g>
<!-- libdrs -->
<g id="node21" class="node">
<title>libdrs</title>
<ellipse fill="#35b779" stroke="black" cx="160.19" cy="-746" rx="40.5" ry="18"/>
<text text-anchor="middle" x="160.19" y="-742.3" font-family="Times,serif" font-size="14.00">libdrs</text>
</g>
<!-- libdrs&#45;&gt;cdms2 -->
<g id="edge23" class="edge">
<title>libdrs&#45;&gt;cdms2</title>
<path fill="none" stroke="black" d="M173.92,-728.78C205.44,-689.44 277.13,-586.7 234.19,-512 223.05,-492.61 201.77,-479.65 182.6,-471.4"/>
<polygon fill="black" stroke="black" points="183.7,-468.07 173.11,-467.61 181.1,-474.57 183.7,-468.07"/>
</g>
<!-- libdrs&#45;&gt;libcdms -->
<g id="edge24" class="edge">
<title>libdrs&#45;&gt;libcdms</title>
<path fill="none" stroke="black" d="M147.67,-728.76C141.02,-720.14 132.7,-709.36 125.27,-699.73"/>
<polygon fill="black" stroke="black" points="127.9,-697.41 119.02,-691.63 122.36,-701.69 127.9,-697.41"/>
</g>
<!-- r&#45;ncdf4 -->
<g id="node29" class="node">
<title>r&#45;ncdf4</title>
<ellipse fill="#35b779" stroke="black" cx="874.19" cy="-710" rx="45" ry="18"/>
<text text-anchor="middle" x="874.19" y="-706.3" font-family="Times,serif" font-size="14.00">r ncdf4</text>
</g>
<!-- paraview&#45;&gt;r&#45;ncdf4 -->
<!-- netcdf&#45;fortran -->
<g id="node23" class="node">
<title>netcdf&#45;fortran</title>
<ellipse fill="#35b779" stroke="black" cx="663.19" cy="-602" rx="79.5" ry="18"/>
<text text-anchor="middle" x="663.19" y="-598.3" font-family="Times,serif" font-size="14.00">netcdf fortran</text>
</g>
<!-- netcdf&#45;fortran&#45;&gt;esmf -->
<g id="edge26" class="edge">
<title>netcdf&#45;fortran&#45;&gt;esmf</title>
<path fill="none" stroke="black" d="M592.34,-593.7C528.61,-586.01 432.87,-571.67 352.19,-548 349.78,-547.29 347.33,-546.48 344.87,-545.61"/>
<polygon fill="black" stroke="black" points="346.14,-542.35 335.55,-542 343.61,-548.87 346.14,-542.35"/>
</g>
<!-- pyferret -->
<g id="node24" class="node">
<title>pyferret</title>
<ellipse fill="#fde725" stroke="black" cx="741.19" cy="-530" rx="50.09" ry="18"/>
<text text-anchor="middle" x="741.19" y="-526.3" font-family="Times,serif" font-size="14.00">pyferret</text>
</g>
<!-- netcdf&#45;fortran&#45;&gt;pyferret -->
<g id="edge27" class="edge">
<title>netcdf&#45;fortran&#45;&gt;pyferret</title>
<path fill="none" stroke="black" d="M681.68,-584.41C691.83,-575.3 704.57,-563.87 715.66,-553.92"/>
<polygon fill="black" stroke="black" points="718.27,-556.27 723.38,-546.99 713.6,-551.06 718.27,-556.27"/>
</g>
<!-- ambertools -->
<g id="node25" class="node">
<title>ambertools</title>
<ellipse fill="#fde725" stroke="black" cx="663.19" cy="-458" rx="60" ry="18"/>
<text text-anchor="middle" x="663.19" y="-454.3" font-family="Times,serif" font-size="14.00">ambertools</text>
</g>
<!-- netcdf&#45;fortran&#45;&gt;ambertools -->
<g id="edge28" class="edge">
<title>netcdf&#45;fortran&#45;&gt;ambertools</title>
<path fill="none" stroke="black" d="M663.19,-583.87C663.19,-559.67 663.19,-515.21 663.19,-486.39"/>
<polygon fill="black" stroke="black" points="666.69,-486.19 663.19,-476.19 659.69,-486.19 666.69,-486.19"/>
</g>
<!-- netcdf4 -->
<g id="node26" class="node">
<title>netcdf4</title>
<g id="a_node26"><a xlink:href="https://github.com/conda-forge/netcdf4-feedstock/pull/97" xlink:title="netcdf4">
<ellipse fill="#31688e" stroke="black" cx="858.19" cy="-162" rx="45" ry="18"/>
<text text-anchor="middle" x="858.19" y="-158.3" font-family="Times,serif" font-size="14.00" fill="white">netcdf4</text>
</a>
</g>
</g>
<!-- cmor -->
<g id="node27" class="node">
<title>cmor</title>
<ellipse fill="#fde725" stroke="black" cx="829.19" cy="-90" rx="30.59" ry="18"/>
<text text-anchor="middle" x="829.19" y="-86.3" font-family="Times,serif" font-size="14.00">cmor</text>
</g>
<!-- netcdf4&#45;&gt;cmor -->
<g id="edge29" class="edge">
<title>netcdf4&#45;&gt;cmor</title>
<path fill="none" stroke="black" d="M851.17,-144.05C847.82,-135.97 843.74,-126.12 840.01,-117.11"/>
<polygon fill="black" stroke="black" points="843.21,-115.69 836.15,-107.79 836.74,-118.37 843.21,-115.69"/>
</g>
<!-- mpas_tools -->
<g id="node28" class="node">
<title>mpas_tools</title>
<ellipse fill="#fde725" stroke="black" cx="888.19" cy="-18" rx="60" ry="18"/>
<text text-anchor="middle" x="888.19" y="-14.3" font-family="Times,serif" font-size="14.00">mpas_tools</text>
</g>
<!-- netcdf4&#45;&gt;mpas_tools -->
<g id="edge30" class="edge">
<title>netcdf4&#45;&gt;mpas_tools</title>
<path fill="none" stroke="black" d="M861.81,-143.87C866.95,-119.56 876.4,-74.82 882.49,-46.01"/>
<polygon fill="black" stroke="black" points="885.92,-46.7 884.56,-36.19 879.07,-45.25 885.92,-46.7"/>
</g>
<!-- r&#45;rnetcdf -->
<g id="node30" class="node">
<title>r&#45;rnetcdf</title>
<ellipse fill="#35b779" stroke="black" cx="874.19" cy="-638" rx="54.69" ry="18"/>
<text text-anchor="middle" x="874.19" y="-634.3" font-family="Times,serif" font-size="14.00">r rnetcdf</text>
</g>
<!-- r&#45;ncdf4&#45;&gt;r&#45;rnetcdf -->
<!-- wgrib2 -->
<g id="node31" class="node">
<title>wgrib2</title>
<ellipse fill="#35b779" stroke="black" cx="874.19" cy="-566" rx="40.5" ry="18"/>
<text text-anchor="middle" x="874.19" y="-562.3" font-family="Times,serif" font-size="14.00">wgrib2</text>
</g>
<!-- r&#45;rnetcdf&#45;&gt;wgrib2 -->
<!-- vic -->
<g id="node32" class="node">
<title>vic</title>
<ellipse fill="#35b779" stroke="black" cx="874.19" cy="-494" rx="27" ry="18"/>
<text text-anchor="middle" x="874.19" y="-490.3" font-family="Times,serif" font-size="14.00">vic</text>
</g>
<!-- wgrib2&#45;&gt;vic -->
<!-- vtk -->
<g id="node33" class="node">
<title>vtk</title>
<ellipse fill="#35b779" stroke="black" cx="874.19" cy="-422" rx="27" ry="18"/>
<text text-anchor="middle" x="874.19" y="-418.3" font-family="Times,serif" font-size="14.00">vtk</text>
</g>
<!-- vic&#45;&gt;vtk -->
<!-- vmd&#45;python -->
<g id="node34" class="node">
<title>vmd&#45;python</title>
<ellipse fill="#35b779" stroke="black" cx="874.19" cy="-350" rx="60" ry="18"/>
<text text-anchor="middle" x="874.19" y="-346.3" font-family="Times,serif" font-size="14.00">vmd python</text>
</g>
<!-- vtk&#45;&gt;vmd&#45;python -->
<!-- fpocket -->
<g id="node35" class="node">
<title>fpocket</title>
<ellipse fill="#35b779" stroke="black" cx="874.19" cy="-278" rx="45" ry="18"/>
<text text-anchor="middle" x="874.19" y="-274.3" font-family="Times,serif" font-size="14.00">fpocket</text>
</g>
<!-- vmd&#45;python&#45;&gt;fpocket -->
<!-- sphinxdft -->
<g id="node37" class="node">
<title>sphinxdft</title>
<ellipse fill="#35b779" stroke="black" cx="874.19" cy="-206" rx="54.69" ry="18"/>
<text text-anchor="middle" x="874.19" y="-202.3" font-family="Times,serif" font-size="14.00">sphinxdft</text>
</g>
<!-- fpocket&#45;&gt;sphinxdft -->
<!-- tempest&#45;remap -->
<g id="node36" class="node">
<title>tempest&#45;remap</title>
<ellipse fill="#35b779" stroke="black" cx="435.19" cy="-530" rx="74.19" ry="18"/>
<text text-anchor="middle" x="435.19" y="-526.3" font-family="Times,serif" font-size="14.00">tempest remap</text>
</g>
<!-- tempest&#45;remap&#45;&gt;nco -->
<g id="edge38" class="edge">
<title>tempest&#45;remap&#45;&gt;nco</title>
<path fill="none" stroke="black" d="M410.64,-512.94C394.15,-502.15 372.39,-487.92 355.37,-476.78"/>
<polygon fill="black" stroke="black" points="357.24,-473.82 346.96,-471.28 353.41,-479.68 357.24,-473.82"/>
</g>
<!-- ncview -->
<g id="node38" class="node">
<title>ncview</title>
<ellipse fill="#35b779" stroke="black" cx="395.19" cy="-162" rx="40.5" ry="18"/>
<text text-anchor="middle" x="395.19" y="-158.3" font-family="Times,serif" font-size="14.00">ncview</text>
</g>
<!-- netcdf&#45;cxx&#45;legacy -->
<g id="node39" class="node">
<title>netcdf&#45;cxx&#45;legacy</title>
<ellipse fill="#35b779" stroke="black" cx="395.19" cy="-90" rx="93.68" ry="18"/>
<text text-anchor="middle" x="395.19" y="-86.3" font-family="Times,serif" font-size="14.00">netcdf cxx legacy</text>
</g>
<!-- ncview&#45;&gt;netcdf&#45;cxx&#45;legacy -->
<!-- nccmp -->
<g id="node40" class="node">
<title>nccmp</title>
<ellipse fill="#35b779" stroke="black" cx="395.19" cy="-18" rx="35.19" ry="18"/>
<text text-anchor="middle" x="395.19" y="-14.3" font-family="Times,serif" font-size="14.00">nccmp</text>
</g>
<!-- netcdf&#45;cxx&#45;legacy&#45;&gt;nccmp -->
</g>
</svg>
