<?xml version="1.0" encoding="UTF-8" standalone="no"?>
<!DOCTYPE svg PUBLIC "-//W3C//DTD SVG 1.1//EN"
 "http://www.w3.org/Graphics/SVG/1.1/DTD/svg11.dtd">
<!-- Generated by graphviz version 2.42.3 (20191010.1750)
 -->
<!-- Title: %3 Pages: 1 -->
<svg width="468pt" height="348pt"
 viewBox="0.00 0.00 468.36 348.00" xmlns="http://www.w3.org/2000/svg" xmlns:xlink="http://www.w3.org/1999/xlink">
<g id="graph0" class="graph" transform="scale(1 1) rotate(0) translate(4 344)">
<title>%3</title>
<polygon fill="white" stroke="transparent" points="-4,4 -4,-344 464.36,-344 464.36,4 -4,4"/>
<!-- cdms2 -->
<g id="node1" class="node">
<title>cdms2</title>
<ellipse fill="#fde725" stroke="black" cx="68.57" cy="-106" rx="35.19" ry="18"/>
<text text-anchor="middle" x="68.57" y="-102.3" font-family="Times,serif" font-size="14.00">cdms2</text>
</g>
<!-- cdtime -->
<g id="node2" class="node">
<title>cdtime</title>
<ellipse fill="#fde725" stroke="black" cx="68.57" cy="-178" rx="40.09" ry="18"/>
<text text-anchor="middle" x="68.57" y="-174.3" font-family="Times,serif" font-size="14.00">cdtime</text>
</g>
<!-- cdtime&#45;&gt;cdms2 -->
<g id="edge1" class="edge">
<title>cdtime&#45;&gt;cdms2</title>
<path fill="none" stroke="black" d="M68.57,-159.7C68.57,-151.98 68.57,-142.71 68.57,-134.11"/>
<polygon fill="black" stroke="black" points="72.07,-134.1 68.57,-124.1 65.07,-134.1 72.07,-134.1"/>
</g>
<!-- libcdms -->
<g id="node3" class="node">
<title>libcdms</title>
<g id="a_node3"><a xlink:href="https://github.com/conda-forge/libcdms-feedstock/pull/31" xlink:title="libcdms">
<ellipse fill="#31688e" stroke="black" cx="48.57" cy="-322" rx="44.69" ry="18"/>
<text text-anchor="middle" x="48.57" y="-318.3" font-family="Times,serif" font-size="14.00" fill="white">libcdms</text>
</a>
</g>
</g>
<!-- libcdms&#45;&gt;cdms2 -->
<g id="edge2" class="edge">
<title>libcdms&#45;&gt;cdms2</title>
<path fill="none" stroke="black" d="M39.63,-303.96C25.13,-273.92 0,-209.99 19.57,-160 24.28,-147.97 33.14,-137.03 42.05,-128.25"/>
<polygon fill="black" stroke="black" points="44.49,-130.77 49.46,-121.42 39.74,-125.63 44.49,-130.77"/>
</g>
<!-- libcdms&#45;&gt;cdtime -->
<g id="edge3" class="edge">
<title>libcdms&#45;&gt;cdtime</title>
<path fill="none" stroke="black" d="M50.98,-303.87C54.39,-279.67 60.65,-235.21 64.71,-206.39"/>
<polygon fill="black" stroke="black" points="68.22,-206.58 66.14,-196.19 61.28,-205.6 68.22,-206.58"/>
</g>
<!-- libdrs_f -->
<g id="node4" class="node">
<title>libdrs_f</title>
<ellipse fill="#fde725" stroke="black" cx="126.57" cy="-250" rx="50.09" ry="18"/>
<text text-anchor="middle" x="126.57" y="-246.3" font-family="Times,serif" font-size="14.00">libdrs_f</text>
</g>
<!-- libcdms&#45;&gt;libdrs_f -->
<g id="edge4" class="edge">
<title>libcdms&#45;&gt;libdrs_f</title>
<path fill="none" stroke="black" d="M66.27,-305.12C76.56,-295.87 89.72,-284.07 101.12,-273.84"/>
<polygon fill="black" stroke="black" points="103.56,-276.35 108.67,-267.06 98.89,-271.14 103.56,-276.35"/>
</g>
<!-- libdrs_f&#45;&gt;cdms2 -->
<g id="edge5" class="edge">
<title>libdrs_f&#45;&gt;cdms2</title>
<path fill="none" stroke="black" d="M127.97,-231.77C128.78,-213.21 128.03,-183.22 117.57,-160 112.26,-148.22 103.27,-137.33 94.44,-128.52"/>
<polygon fill="black" stroke="black" points="96.81,-125.95 87.13,-121.64 92.01,-131.05 96.81,-125.95"/>
</g>
<!-- libdrs_f&#45;&gt;cdtime -->
<g id="edge6" class="edge">
<title>libdrs_f&#45;&gt;cdtime</title>
<path fill="none" stroke="black" d="M112.82,-232.41C105.6,-223.69 96.61,-212.85 88.62,-203.21"/>
<polygon fill="black" stroke="black" points="91.29,-200.94 82.21,-195.47 85.9,-205.4 91.29,-200.94"/>
</g>
<!-- magics -->
<g id="node5" class="node">
<title>magics</title>
<g id="a_node5"><a xlink:href="https://github.com/conda-forge/magics-feedstock/pull/66" xlink:title="magics">
<ellipse fill="#31688e" stroke="black" cx="400.57" cy="-62" rx="40.09" ry="18"/>
<text text-anchor="middle" x="400.57" y="-58.3" font-family="Times,serif" font-size="14.00" fill="white">magics</text>
</a>
</g>
</g>
<!-- paraview -->
<g id="node6" class="node">
<title>paraview</title>
<g id="a_node6"><a xlink:href="https://github.com/conda-forge/paraview-feedstock/pull/72" xlink:title="paraview">
<ellipse fill="#31688e" stroke="black" cx="258.57" cy="-62" rx="50.09" ry="18"/>
<text text-anchor="middle" x="258.57" y="-58.3" font-family="Times,serif" font-size="14.00" fill="white">paraview</text>
</a>
</g>
</g>
<!-- vic -->
<g id="node7" class="node">
<title>vic</title>
<g id="a_node7"><a xlink:href="https://github.com/conda-forge/vic-feedstock/pull/10" xlink:title="vic">
<ellipse fill="#31688e" stroke="black" cx="258.57" cy="-18" rx="27" ry="18"/>
<text text-anchor="middle" x="258.57" y="-14.3" font-family="Times,serif" font-size="14.00" fill="white">vic</text>
</a>
</g>
</g>
<!-- vmd&#45;python -->
<g id="node8" class="node">
<title>vmd&#45;python</title>
<g id="a_node8"><a xlink:href="https://github.com/conda-forge/vmd-python-feedstock/pull/14" xlink:title="vmd python">
<ellipse fill="#31688e" stroke="black" cx="400.57" cy="-214" rx="59.59" ry="18"/>
<text text-anchor="middle" x="400.57" y="-210.3" font-family="Times,serif" font-size="14.00" fill="white">vmd python</text>
</a>
</g>
</g>
<!-- cmor -->
<g id="node9" class="node">
<title>cmor</title>
<g id="a_node9"><a xlink:href="https://github.com/conda-forge/cmor-feedstock/pull/21" xlink:title="cmor">
<ellipse fill="#31688e" stroke="black" cx="88.57" cy="-18" rx="30.59" ry="18"/>
<text text-anchor="middle" x="88.57" y="-14.3" font-family="Times,serif" font-size="14.00" fill="white">cmor</text>
</a>
</g>
</g>
<!-- ambertools -->
<g id="node10" class="node">
<title>ambertools</title>
<g id="a_node10"><a xlink:href="https://github.com/conda-forge/ambertools-feedstock/pull/28" xlink:title="ambertools">
<ellipse fill="#31688e" stroke="black" cx="88.57" cy="-62" rx="59.59" ry="18"/>
<text text-anchor="middle" x="88.57" y="-58.3" font-family="Times,serif" font-size="14.00" fill="white">ambertools</text>
</a>
</g>
</g>
<!-- metview&#45;batch -->
<g id="node11" class="node">
<title>metview&#45;batch</title>
<g id="a_node11"><a xlink:href="https://github.com/conda-forge/metview-batch-feedstock/pull/6" xlink:title="metview batch">
<ellipse fill="#31688e" stroke="black" cx="258.57" cy="-214" rx="74.19" ry="18"/>
<text text-anchor="middle" x="258.57" y="-210.3" font-family="Times,serif" font-size="14.00" fill="white">metview batch</text>
</a>
</g>
</g>
</g>
</svg>
