<?xml version="1.0" encoding="UTF-8" standalone="no"?>
<!DOCTYPE svg PUBLIC "-//W3C//DTD SVG 1.1//EN"
 "http://www.w3.org/Graphics/SVG/1.1/DTD/svg11.dtd">
<!-- Generated by graphviz version 2.42.3 (20191010.1750)
 -->
<!-- Title: %3 Pages: 1 -->
<svg width="2491pt" height="332pt"
 viewBox="0.00 0.00 2491.09 332.00" xmlns="http://www.w3.org/2000/svg" xmlns:xlink="http://www.w3.org/1999/xlink">
<g id="graph0" class="graph" transform="scale(1 1) rotate(0) translate(4 328)">
<title>%3</title>
<polygon fill="white" stroke="transparent" points="-4,4 -4,-328 2487.09,-328 2487.09,4 -4,4"/>
<!-- cdat&#45;lite -->
<g id="node1" class="node">
<title>cdat&#45;lite</title>
<ellipse fill="#31688e" stroke="black" cx="62.8" cy="-306" rx="54.69" ry="18"/>
<text text-anchor="middle" x="62.8" y="-302.3" font-family="Times,serif" font-size="14.00" fill="white">cdat lite</text>
</g>
<!-- cdms2 -->
<g id="node2" class="node">
<title>cdms2</title>
<ellipse fill="#fde725" stroke="black" cx="184.8" cy="-18" rx="35.19" ry="18"/>
<text text-anchor="middle" x="184.8" y="-14.3" font-family="Times,serif" font-size="14.00">cdms2</text>
</g>
<!-- cdo -->
<g id="node3" class="node">
<title>cdo</title>
<ellipse fill="#fde725" stroke="black" cx="491.8" cy="-234" rx="27" ry="18"/>
<text text-anchor="middle" x="491.8" y="-230.3" font-family="Times,serif" font-size="14.00">cdo</text>
</g>
<!-- cdtime -->
<g id="node4" class="node">
<title>cdtime</title>
<ellipse fill="#fde725" stroke="black" cx="59.8" cy="-90" rx="40.09" ry="18"/>
<text text-anchor="middle" x="59.8" y="-86.3" font-family="Times,serif" font-size="14.00">cdtime</text>
</g>
<!-- cdtime&#45;&gt;cdms2 -->
<g id="edge1" class="edge">
<title>cdtime&#45;&gt;cdms2</title>
<path fill="none" stroke="black" d="M83.9,-75.5C103.64,-64.45 131.72,-48.72 153.25,-36.67"/>
<polygon fill="black" stroke="black" points="155.02,-39.69 162.03,-31.75 151.6,-33.58 155.02,-39.69"/>
</g>
<!-- eccodes -->
<g id="node5" class="node">
<title>eccodes</title>
<ellipse fill="#31688e" stroke="black" cx="610.8" cy="-306" rx="44.69" ry="18"/>
<text text-anchor="middle" x="610.8" y="-302.3" font-family="Times,serif" font-size="14.00" fill="white">eccodes</text>
</g>
<!-- eccodes&#45;&gt;cdo -->
<g id="edge2" class="edge">
<title>eccodes&#45;&gt;cdo</title>
<path fill="none" stroke="black" d="M586.43,-290.67C567.21,-279.36 540.36,-263.57 520.17,-251.69"/>
<polygon fill="black" stroke="black" points="521.81,-248.59 511.41,-246.54 518.26,-254.63 521.81,-248.59"/>
</g>
<!-- magics -->
<g id="node13" class="node">
<title>magics</title>
<ellipse fill="#fde725" stroke="black" cx="576.8" cy="-234" rx="40.09" ry="18"/>
<text text-anchor="middle" x="576.8" y="-230.3" font-family="Times,serif" font-size="14.00">magics</text>
</g>
<!-- eccodes&#45;&gt;magics -->
<g id="edge3" class="edge">
<title>eccodes&#45;&gt;magics</title>
<path fill="none" stroke="black" d="M602.57,-288.05C598.6,-279.89 593.76,-269.91 589.34,-260.82"/>
<polygon fill="black" stroke="black" points="592.47,-259.25 584.95,-251.79 586.17,-262.31 592.47,-259.25"/>
</g>
<!-- metview -->
<g id="node31" class="node">
<title>metview</title>
<ellipse fill="#fde725" stroke="black" cx="610.8" cy="-162" rx="44.69" ry="18"/>
<text text-anchor="middle" x="610.8" y="-158.3" font-family="Times,serif" font-size="14.00">metview</text>
</g>
<!-- eccodes&#45;&gt;metview -->
<g id="edge5" class="edge">
<title>eccodes&#45;&gt;metview</title>
<path fill="none" stroke="black" d="M616.88,-288.07C620.25,-277.79 624.09,-264.31 625.8,-252 628,-236.15 628,-231.85 625.8,-216 624.58,-207.25 622.29,-197.9 619.86,-189.54"/>
<polygon fill="black" stroke="black" points="623.18,-188.45 616.88,-179.93 616.5,-190.52 623.18,-188.45"/>
</g>
<!-- magics&#45;metview -->
<g id="node36" class="node">
<title>magics&#45;metview</title>
<ellipse fill="#fde725" stroke="black" cx="751.8" cy="-234" rx="79.09" ry="18"/>
<text text-anchor="middle" x="751.8" y="-230.3" font-family="Times,serif" font-size="14.00">magics metview</text>
</g>
<!-- eccodes&#45;&gt;magics&#45;metview -->
<g id="edge4" class="edge">
<title>eccodes&#45;&gt;magics&#45;metview</title>
<path fill="none" stroke="black" d="M637.98,-291.5C658.75,-281.19 687.71,-266.81 711.22,-255.14"/>
<polygon fill="black" stroke="black" points="712.86,-258.24 720.26,-250.65 709.75,-251.97 712.86,-258.24"/>
</g>
<!-- ecmwf_grib -->
<g id="node6" class="node">
<title>ecmwf_grib</title>
<ellipse fill="#31688e" stroke="black" cx="942.8" cy="-306" rx="59.59" ry="18"/>
<text text-anchor="middle" x="942.8" y="-302.3" font-family="Times,serif" font-size="14.00" fill="white">ecmwf_grib</text>
</g>
<!-- python&#45;ecmwf_grib -->
<g id="node22" class="node">
<title>python&#45;ecmwf_grib</title>
<ellipse fill="#fde725" stroke="black" cx="942.8" cy="-234" rx="93.68" ry="18"/>
<text text-anchor="middle" x="942.8" y="-230.3" font-family="Times,serif" font-size="14.00">python ecmwf_grib</text>
</g>
<!-- ecmwf_grib&#45;&gt;python&#45;ecmwf_grib -->
<g id="edge6" class="edge">
<title>ecmwf_grib&#45;&gt;python&#45;ecmwf_grib</title>
<path fill="none" stroke="black" d="M942.8,-287.7C942.8,-279.98 942.8,-270.71 942.8,-262.11"/>
<polygon fill="black" stroke="black" points="946.3,-262.1 942.8,-252.1 939.3,-262.1 946.3,-262.1"/>
</g>
<!-- esmf -->
<g id="node7" class="node">
<title>esmf</title>
<ellipse fill="#fde725" stroke="black" cx="312.8" cy="-90" rx="30.59" ry="18"/>
<text text-anchor="middle" x="312.8" y="-86.3" font-family="Times,serif" font-size="14.00">esmf</text>
</g>
<!-- esmf&#45;&gt;cdms2 -->
<g id="edge7" class="edge">
<title>esmf&#45;&gt;cdms2</title>
<path fill="none" stroke="black" d="M291.08,-77.13C270.68,-65.97 239.91,-49.14 216.71,-36.45"/>
<polygon fill="black" stroke="black" points="218.37,-33.37 207.92,-31.64 215.01,-39.51 218.37,-33.37"/>
</g>
<!-- ncl -->
<g id="node14" class="node">
<title>ncl</title>
<ellipse fill="#fde725" stroke="black" cx="312.8" cy="-18" rx="27" ry="18"/>
<text text-anchor="middle" x="312.8" y="-14.3" font-family="Times,serif" font-size="14.00">ncl</text>
</g>
<!-- esmf&#45;&gt;ncl -->
<g id="edge8" class="edge">
<title>esmf&#45;&gt;ncl</title>
<path fill="none" stroke="black" d="M312.8,-71.7C312.8,-63.98 312.8,-54.71 312.8,-46.11"/>
<polygon fill="black" stroke="black" points="316.3,-46.1 312.8,-36.1 309.3,-46.1 316.3,-46.1"/>
</g>
<!-- nco -->
<g id="node15" class="node">
<title>nco</title>
<ellipse fill="#fde725" stroke="black" cx="409.8" cy="-18" rx="27" ry="18"/>
<text text-anchor="middle" x="409.8" y="-14.3" font-family="Times,serif" font-size="14.00">nco</text>
</g>
<!-- esmf&#45;&gt;nco -->
<g id="edge9" class="edge">
<title>esmf&#45;&gt;nco</title>
<path fill="none" stroke="black" d="M331.5,-75.5C346.41,-64.74 367.45,-49.56 383.97,-37.64"/>
<polygon fill="black" stroke="black" points="386.07,-40.44 392.13,-31.75 381.98,-34.76 386.07,-40.44"/>
</g>
<!-- gmt -->
<g id="node8" class="node">
<title>gmt</title>
<ellipse fill="#31688e" stroke="black" cx="1047.8" cy="-306" rx="27" ry="18"/>
<text text-anchor="middle" x="1047.8" y="-302.3" font-family="Times,serif" font-size="14.00" fill="white">gmt</text>
</g>
<!-- libcdms -->
<g id="node9" class="node">
<title>libcdms</title>
<ellipse fill="#fde725" stroke="black" cx="98.8" cy="-234" rx="44.69" ry="18"/>
<text text-anchor="middle" x="98.8" y="-230.3" font-family="Times,serif" font-size="14.00">libcdms</text>
</g>
<!-- libcdms&#45;&gt;cdms2 -->
<g id="edge10" class="edge">
<title>libcdms&#45;&gt;cdms2</title>
<path fill="none" stroke="black" d="M79.06,-217.75C43.16,-188.17 -25.89,-121.53 10.8,-72 40.17,-32.35 98.51,-21.36 139.52,-18.81"/>
<polygon fill="black" stroke="black" points="139.72,-22.3 149.54,-18.33 139.38,-15.31 139.72,-22.3"/>
</g>
<!-- libcdms&#45;&gt;cdtime -->
<g id="edge11" class="edge">
<title>libcdms&#45;&gt;cdtime</title>
<path fill="none" stroke="black" d="M91.65,-216.04C87.5,-205.74 82.4,-192.27 78.8,-180 72.8,-159.57 67.85,-135.98 64.51,-118.22"/>
<polygon fill="black" stroke="black" points="67.93,-117.46 62.69,-108.25 61.04,-118.72 67.93,-117.46"/>
</g>
<!-- libdrs_f -->
<g id="node12" class="node">
<title>libdrs_f</title>
<ellipse fill="#fde725" stroke="black" cx="137.8" cy="-162" rx="50.09" ry="18"/>
<text text-anchor="middle" x="137.8" y="-158.3" font-family="Times,serif" font-size="14.00">libdrs_f</text>
</g>
<!-- libcdms&#45;&gt;libdrs_f -->
<g id="edge12" class="edge">
<title>libcdms&#45;&gt;libdrs_f</title>
<path fill="none" stroke="black" d="M108.24,-216.05C112.84,-207.8 118.46,-197.7 123.57,-188.54"/>
<polygon fill="black" stroke="black" points="126.63,-190.23 128.44,-179.79 120.52,-186.82 126.63,-190.23"/>
</g>
<!-- libcf -->
<g id="node10" class="node">
<title>libcf</title>
<ellipse fill="#31688e" stroke="black" cx="152.8" cy="-90" rx="35.19" ry="18"/>
<text text-anchor="middle" x="152.8" y="-86.3" font-family="Times,serif" font-size="14.00" fill="white">libcf</text>
</g>
<!-- libcf&#45;&gt;cdms2 -->
<g id="edge13" class="edge">
<title>libcf&#45;&gt;cdms2</title>
<path fill="none" stroke="black" d="M160.38,-72.41C164.11,-64.25 168.7,-54.22 172.88,-45.07"/>
<polygon fill="black" stroke="black" points="176.07,-46.51 177.05,-35.96 169.71,-43.6 176.07,-46.51"/>
</g>
<!-- libdrs -->
<g id="node11" class="node">
<title>libdrs</title>
<ellipse fill="#31688e" stroke="black" cx="175.8" cy="-306" rx="40.09" ry="18"/>
<text text-anchor="middle" x="175.8" y="-302.3" font-family="Times,serif" font-size="14.00" fill="white">libdrs</text>
</g>
<!-- libdrs&#45;&gt;cdms2 -->
<g id="edge14" class="edge">
<title>libdrs&#45;&gt;cdms2</title>
<path fill="none" stroke="black" d="M183.25,-288.12C199.32,-249.44 234.16,-151.62 213.8,-72 211.32,-62.3 206.65,-52.46 201.78,-43.94"/>
<polygon fill="black" stroke="black" points="204.7,-42 196.5,-35.28 198.72,-45.64 204.7,-42"/>
</g>
<!-- libdrs&#45;&gt;libcdms -->
<g id="edge15" class="edge">
<title>libdrs&#45;&gt;libcdms</title>
<path fill="none" stroke="black" d="M158.71,-289.46C148.41,-280.11 135.12,-268.02 123.68,-257.62"/>
<polygon fill="black" stroke="black" points="125.86,-254.87 116.11,-250.73 121.15,-260.05 125.86,-254.87"/>
</g>
<!-- libdrs_f&#45;&gt;cdms2 -->
<g id="edge16" class="edge">
<title>libdrs_f&#45;&gt;cdms2</title>
<path fill="none" stroke="black" d="M162.52,-146.14C175.33,-136.93 189.73,-123.84 196.8,-108 205.64,-88.18 201.31,-63.59 195.53,-45.29"/>
<polygon fill="black" stroke="black" points="198.83,-44.13 192.24,-35.84 192.22,-46.43 198.83,-44.13"/>
</g>
<!-- libdrs_f&#45;&gt;cdtime -->
<g id="edge17" class="edge">
<title>libdrs_f&#45;&gt;cdtime</title>
<path fill="none" stroke="black" d="M120.1,-145.12C109.58,-135.68 96.08,-123.56 84.52,-113.19"/>
<polygon fill="black" stroke="black" points="86.67,-110.41 76.89,-106.34 82,-115.62 86.67,-110.41"/>
</g>
<!-- magics&#45;&gt;metview -->
<g id="edge18" class="edge">
<title>magics&#45;&gt;metview</title>
<path fill="none" stroke="black" d="M585.03,-216.05C589,-207.89 593.84,-197.91 598.26,-188.82"/>
<polygon fill="black" stroke="black" points="601.42,-190.31 602.64,-179.79 595.13,-187.25 601.42,-190.31"/>
</g>
<!-- netcdf&#45;cxx4 -->
<g id="node16" class="node">
<title>netcdf&#45;cxx4</title>
<ellipse fill="#31688e" stroke="black" cx="1156.8" cy="-306" rx="64.19" ry="18"/>
<text text-anchor="middle" x="1156.8" y="-302.3" font-family="Times,serif" font-size="14.00" fill="white">netcdf cxx4</text>
</g>
<!-- netcdf&#45;fortran -->
<g id="node17" class="node">
<title>netcdf&#45;fortran</title>
<ellipse fill="#31688e" stroke="black" cx="468.8" cy="-162" rx="79.09" ry="18"/>
<text text-anchor="middle" x="468.8" y="-158.3" font-family="Times,serif" font-size="14.00" fill="white">netcdf fortran</text>
</g>
<!-- netcdf&#45;fortran&#45;&gt;esmf -->
<g id="edge19" class="edge">
<title>netcdf&#45;fortran&#45;&gt;esmf</title>
<path fill="none" stroke="black" d="M434.56,-145.64C408.16,-133.79 371.86,-117.5 345.78,-105.8"/>
<polygon fill="black" stroke="black" points="346.88,-102.46 336.32,-101.56 344.02,-108.84 346.88,-102.46"/>
</g>
<!-- pyferret -->
<g id="node20" class="node">
<title>pyferret</title>
<ellipse fill="#fde725" stroke="black" cx="577.8" cy="-90" rx="50.09" ry="18"/>
<text text-anchor="middle" x="577.8" y="-86.3" font-family="Times,serif" font-size="14.00">pyferret</text>
</g>
<!-- netcdf&#45;fortran&#45;&gt;pyferret -->
<g id="edge20" class="edge">
<title>netcdf&#45;fortran&#45;&gt;pyferret</title>
<path fill="none" stroke="black" d="M494.08,-144.76C509.47,-134.88 529.27,-122.17 545.75,-111.58"/>
<polygon fill="black" stroke="black" points="547.99,-114.3 554.52,-105.95 544.21,-108.41 547.99,-114.3"/>
</g>
<!-- netcdf4 -->
<g id="node18" class="node">
<title>netcdf4</title>
<ellipse fill="#31688e" stroke="black" cx="1283.8" cy="-306" rx="44.69" ry="18"/>
<text text-anchor="middle" x="1283.8" y="-302.3" font-family="Times,serif" font-size="14.00" fill="white">netcdf4</text>
</g>
<!-- cmor -->
<g id="node29" class="node">
<title>cmor</title>
<ellipse fill="#fde725" stroke="black" cx="1229.8" cy="-234" rx="30.59" ry="18"/>
<text text-anchor="middle" x="1229.8" y="-230.3" font-family="Times,serif" font-size="14.00">cmor</text>
</g>
<!-- netcdf4&#45;&gt;cmor -->
<g id="edge21" class="edge">
<title>netcdf4&#45;&gt;cmor</title>
<path fill="none" stroke="black" d="M1271,-288.41C1264.25,-279.66 1255.83,-268.75 1248.38,-259.08"/>
<polygon fill="black" stroke="black" points="1251.01,-256.77 1242.13,-250.99 1245.47,-261.04 1251.01,-256.77"/>
</g>
<!-- mpas_tools -->
<g id="node32" class="node">
<title>mpas_tools</title>
<ellipse fill="#fde725" stroke="black" cx="1337.8" cy="-234" rx="59.59" ry="18"/>
<text text-anchor="middle" x="1337.8" y="-230.3" font-family="Times,serif" font-size="14.00">mpas_tools</text>
</g>
<!-- netcdf4&#45;&gt;mpas_tools -->
<g id="edge22" class="edge">
<title>netcdf4&#45;&gt;mpas_tools</title>
<path fill="none" stroke="black" d="M1296.6,-288.41C1303.16,-279.91 1311.28,-269.37 1318.58,-259.91"/>
<polygon fill="black" stroke="black" points="1321.38,-262.01 1324.72,-251.96 1315.84,-257.74 1321.38,-262.01"/>
</g>
<!-- paraview -->
<g id="node19" class="node">
<title>paraview</title>
<ellipse fill="#31688e" stroke="black" cx="1396.8" cy="-306" rx="50.09" ry="18"/>
<text text-anchor="middle" x="1396.8" y="-302.3" font-family="Times,serif" font-size="14.00" fill="white">paraview</text>
</g>
<!-- pynio -->
<g id="node21" class="node">
<title>pynio</title>
<ellipse fill="#31688e" stroke="black" cx="1499.8" cy="-306" rx="35.19" ry="18"/>
<text text-anchor="middle" x="1499.8" y="-302.3" font-family="Times,serif" font-size="14.00" fill="white">pynio</text>
</g>
<!-- r&#45;ncdf4 -->
<g id="node23" class="node">
<title>r&#45;ncdf4</title>
<ellipse fill="#31688e" stroke="black" cx="1597.8" cy="-306" rx="44.69" ry="18"/>
<text text-anchor="middle" x="1597.8" y="-302.3" font-family="Times,serif" font-size="14.00" fill="white">r ncdf4</text>
</g>
<!-- r&#45;rnetcdf -->
<g id="node24" class="node">
<title>r&#45;rnetcdf</title>
<ellipse fill="#31688e" stroke="black" cx="1714.8" cy="-306" rx="54.69" ry="18"/>
<text text-anchor="middle" x="1714.8" y="-302.3" font-family="Times,serif" font-size="14.00" fill="white">r rnetcdf</text>
</g>
<!-- wgrib2 -->
<g id="node25" class="node">
<title>wgrib2</title>
<ellipse fill="#31688e" stroke="black" cx="1827.8" cy="-306" rx="40.09" ry="18"/>
<text text-anchor="middle" x="1827.8" y="-302.3" font-family="Times,serif" font-size="14.00" fill="white">wgrib2</text>
</g>
<!-- vic -->
<g id="node26" class="node">
<title>vic</title>
<ellipse fill="#31688e" stroke="black" cx="1912.8" cy="-306" rx="27" ry="18"/>
<text text-anchor="middle" x="1912.8" y="-302.3" font-family="Times,serif" font-size="14.00" fill="white">vic</text>
</g>
<!-- vtk -->
<g id="node27" class="node">
<title>vtk</title>
<ellipse fill="#31688e" stroke="black" cx="1984.8" cy="-306" rx="27" ry="18"/>
<text text-anchor="middle" x="1984.8" y="-302.3" font-family="Times,serif" font-size="14.00" fill="white">vtk</text>
</g>
<!-- vmd&#45;python -->
<g id="node28" class="node">
<title>vmd&#45;python</title>
<ellipse fill="#31688e" stroke="black" cx="2089.8" cy="-306" rx="59.59" ry="18"/>
<text text-anchor="middle" x="2089.8" y="-302.3" font-family="Times,serif" font-size="14.00" fill="white">vmd python</text>
</g>
<!-- tempest&#45;remap -->
<g id="node30" class="node">
<title>tempest&#45;remap</title>
<ellipse fill="#31688e" stroke="black" cx="435.8" cy="-90" rx="74.19" ry="18"/>
<text text-anchor="middle" x="435.8" y="-86.3" font-family="Times,serif" font-size="14.00" fill="white">tempest remap</text>
</g>
<!-- tempest&#45;remap&#45;&gt;nco -->
<g id="edge23" class="edge">
<title>tempest&#45;remap&#45;&gt;nco</title>
<path fill="none" stroke="black" d="M429.5,-72.05C426.53,-64.06 422.92,-54.33 419.6,-45.4"/>
<polygon fill="black" stroke="black" points="422.8,-43.94 416.03,-35.79 416.24,-46.38 422.8,-43.94"/>
</g>
<!-- fpocket -->
<g id="node33" class="node">
<title>fpocket</title>
<ellipse fill="#31688e" stroke="black" cx="2212.8" cy="-306" rx="44.69" ry="18"/>
<text text-anchor="middle" x="2212.8" y="-302.3" font-family="Times,serif" font-size="14.00" fill="white">fpocket</text>
</g>
<!-- sphinxdft -->
<g id="node34" class="node">
<title>sphinxdft</title>
<ellipse fill="#31688e" stroke="black" cx="2329.8" cy="-306" rx="54.69" ry="18"/>
<text text-anchor="middle" x="2329.8" y="-302.3" font-family="Times,serif" font-size="14.00" fill="white">sphinxdft</text>
</g>
<!-- ncview -->
<g id="node35" class="node">
<title>ncview</title>
<ellipse fill="#31688e" stroke="black" cx="2442.8" cy="-306" rx="40.09" ry="18"/>
<text text-anchor="middle" x="2442.8" y="-302.3" font-family="Times,serif" font-size="14.00" fill="white">ncview</text>
</g>
</g>
</svg>
