<?xml version="1.0" encoding="UTF-8" standalone="no"?>
<!DOCTYPE svg PUBLIC "-//W3C//DTD SVG 1.1//EN"
 "http://www.w3.org/Graphics/SVG/1.1/DTD/svg11.dtd">
<!-- Generated by graphviz version 2.42.3 (20191010.1750)
 -->
<!-- Title: %3 Pages: 1 -->
<svg width="1694pt" height="260pt"
 viewBox="0.00 0.00 1694.39 260.00" xmlns="http://www.w3.org/2000/svg" xmlns:xlink="http://www.w3.org/1999/xlink">
<g id="graph0" class="graph" transform="scale(1 1) rotate(0) translate(4 256)">
<title>%3</title>
<polygon fill="white" stroke="transparent" points="-4,4 -4,-256 1690.39,-256 1690.39,4 -4,4"/>
<!-- cdat&#45;lite -->
<g id="node1" class="node">
<title>cdat&#45;lite</title>
<ellipse fill="#31688e" stroke="black" cx="54.6" cy="-234" rx="54.69" ry="18"/>
<text text-anchor="middle" x="54.6" y="-230.3" font-family="Times,serif" font-size="14.00" fill="white">cdat lite</text>
</g>
<!-- cdms2 -->
<g id="node2" class="node">
<title>cdms2</title>
<ellipse fill="#fde725" stroke="black" cx="214.6" cy="-18" rx="35.19" ry="18"/>
<text text-anchor="middle" x="214.6" y="-14.3" font-family="Times,serif" font-size="14.00">cdms2</text>
</g>
<!-- cdo -->
<g id="node3" class="node">
<title>cdo</title>
<ellipse fill="#fde725" stroke="black" cx="344.6" cy="-162" rx="27" ry="18"/>
<text text-anchor="middle" x="344.6" y="-158.3" font-family="Times,serif" font-size="14.00">cdo</text>
</g>
<!-- cdtime -->
<g id="node4" class="node">
<title>cdtime</title>
<ellipse fill="#fde725" stroke="black" cx="191.6" cy="-90" rx="40.09" ry="18"/>
<text text-anchor="middle" x="191.6" y="-86.3" font-family="Times,serif" font-size="14.00">cdtime</text>
</g>
<!-- cdtime&#45;&gt;cdms2 -->
<g id="edge1" class="edge">
<title>cdtime&#45;&gt;cdms2</title>
<path fill="none" stroke="black" d="M197.16,-72.05C199.79,-64.06 202.99,-54.33 205.92,-45.4"/>
<polygon fill="black" stroke="black" points="209.28,-46.38 209.08,-35.79 202.63,-44.2 209.28,-46.38"/>
</g>
<!-- eccodes -->
<g id="node5" class="node">
<title>eccodes</title>
<ellipse fill="#31688e" stroke="black" cx="463.6" cy="-234" rx="44.69" ry="18"/>
<text text-anchor="middle" x="463.6" y="-230.3" font-family="Times,serif" font-size="14.00" fill="white">eccodes</text>
</g>
<!-- eccodes&#45;&gt;cdo -->
<g id="edge2" class="edge">
<title>eccodes&#45;&gt;cdo</title>
<path fill="none" stroke="black" d="M439.23,-218.67C420,-207.36 393.16,-191.57 372.97,-179.69"/>
<polygon fill="black" stroke="black" points="374.61,-176.59 364.21,-174.54 371.06,-182.63 374.61,-176.59"/>
</g>
<!-- magics -->
<g id="node11" class="node">
<title>magics</title>
<ellipse fill="#fde725" stroke="black" cx="429.6" cy="-162" rx="40.09" ry="18"/>
<text text-anchor="middle" x="429.6" y="-158.3" font-family="Times,serif" font-size="14.00">magics</text>
</g>
<!-- eccodes&#45;&gt;magics -->
<g id="edge3" class="edge">
<title>eccodes&#45;&gt;magics</title>
<path fill="none" stroke="black" d="M455.36,-216.05C451.4,-207.89 446.55,-197.91 442.14,-188.82"/>
<polygon fill="black" stroke="black" points="445.27,-187.25 437.75,-179.79 438.97,-190.31 445.27,-187.25"/>
</g>
<!-- metview -->
<g id="node21" class="node">
<title>metview</title>
<ellipse fill="#fde725" stroke="black" cx="463.6" cy="-90" rx="44.69" ry="18"/>
<text text-anchor="middle" x="463.6" y="-86.3" font-family="Times,serif" font-size="14.00">metview</text>
</g>
<!-- eccodes&#45;&gt;metview -->
<g id="edge5" class="edge">
<title>eccodes&#45;&gt;metview</title>
<path fill="none" stroke="black" d="M469.68,-216.07C473.04,-205.79 476.89,-192.31 478.6,-180 480.79,-164.15 480.79,-159.85 478.6,-144 477.38,-135.25 475.09,-125.9 472.65,-117.54"/>
<polygon fill="black" stroke="black" points="475.98,-116.45 469.68,-107.93 469.29,-118.52 475.98,-116.45"/>
</g>
<!-- magics&#45;metview -->
<g id="node23" class="node">
<title>magics&#45;metview</title>
<ellipse fill="#fde725" stroke="black" cx="604.6" cy="-162" rx="79.09" ry="18"/>
<text text-anchor="middle" x="604.6" y="-158.3" font-family="Times,serif" font-size="14.00">magics metview</text>
</g>
<!-- eccodes&#45;&gt;magics&#45;metview -->
<g id="edge4" class="edge">
<title>eccodes&#45;&gt;magics&#45;metview</title>
<path fill="none" stroke="black" d="M490.78,-219.5C511.55,-209.19 540.51,-194.81 564.02,-183.14"/>
<polygon fill="black" stroke="black" points="565.66,-186.24 573.06,-178.65 562.55,-179.97 565.66,-186.24"/>
</g>
<!-- ecmwf_grib -->
<g id="node6" class="node">
<title>ecmwf_grib</title>
<ellipse fill="#31688e" stroke="black" cx="795.6" cy="-234" rx="59.59" ry="18"/>
<text text-anchor="middle" x="795.6" y="-230.3" font-family="Times,serif" font-size="14.00" fill="white">ecmwf_grib</text>
</g>
<!-- python&#45;ecmwf_grib -->
<g id="node18" class="node">
<title>python&#45;ecmwf_grib</title>
<ellipse fill="#fde725" stroke="black" cx="795.6" cy="-162" rx="93.68" ry="18"/>
<text text-anchor="middle" x="795.6" y="-158.3" font-family="Times,serif" font-size="14.00">python ecmwf_grib</text>
</g>
<!-- ecmwf_grib&#45;&gt;python&#45;ecmwf_grib -->
<g id="edge6" class="edge">
<title>ecmwf_grib&#45;&gt;python&#45;ecmwf_grib</title>
<path fill="none" stroke="black" d="M795.6,-215.7C795.6,-207.98 795.6,-198.71 795.6,-190.11"/>
<polygon fill="black" stroke="black" points="799.1,-190.1 795.6,-180.1 792.1,-190.1 799.1,-190.1"/>
</g>
<!-- esmf -->
<g id="node7" class="node">
<title>esmf</title>
<ellipse fill="#31688e" stroke="black" cx="318.6" cy="-90" rx="30.59" ry="18"/>
<text text-anchor="middle" x="318.6" y="-86.3" font-family="Times,serif" font-size="14.00" fill="white">esmf</text>
</g>
<!-- esmf&#45;&gt;cdms2 -->
<g id="edge7" class="edge">
<title>esmf&#45;&gt;cdms2</title>
<path fill="none" stroke="black" d="M299.03,-75.83C283.5,-65.38 261.54,-50.6 243.91,-38.73"/>
<polygon fill="black" stroke="black" points="245.39,-35.51 235.14,-32.83 241.48,-41.31 245.39,-35.51"/>
</g>
<!-- ncl -->
<g id="node12" class="node">
<title>ncl</title>
<ellipse fill="#fde725" stroke="black" cx="306.6" cy="-18" rx="27" ry="18"/>
<text text-anchor="middle" x="306.6" y="-14.3" font-family="Times,serif" font-size="14.00">ncl</text>
</g>
<!-- esmf&#45;&gt;ncl -->
<g id="edge8" class="edge">
<title>esmf&#45;&gt;ncl</title>
<path fill="none" stroke="black" d="M315.69,-72.05C314.37,-64.35 312.77,-55.03 311.29,-46.36"/>
<polygon fill="black" stroke="black" points="314.7,-45.54 309.56,-36.28 307.8,-46.72 314.7,-45.54"/>
</g>
<!-- nco -->
<g id="node13" class="node">
<title>nco</title>
<ellipse fill="#fde725" stroke="black" cx="378.6" cy="-18" rx="27" ry="18"/>
<text text-anchor="middle" x="378.6" y="-14.3" font-family="Times,serif" font-size="14.00">nco</text>
</g>
<!-- esmf&#45;&gt;nco -->
<g id="edge9" class="edge">
<title>esmf&#45;&gt;nco</title>
<path fill="none" stroke="black" d="M331.91,-73.46C339.87,-64.18 350.12,-52.23 358.98,-41.88"/>
<polygon fill="black" stroke="black" points="361.88,-43.88 365.73,-34.01 356.56,-39.33 361.88,-43.88"/>
</g>
<!-- gmt -->
<g id="node8" class="node">
<title>gmt</title>
<ellipse fill="#31688e" stroke="black" cx="900.6" cy="-234" rx="27" ry="18"/>
<text text-anchor="middle" x="900.6" y="-230.3" font-family="Times,serif" font-size="14.00" fill="white">gmt</text>
</g>
<!-- libcdms -->
<g id="node9" class="node">
<title>libcdms</title>
<ellipse fill="#31688e" stroke="black" cx="171.6" cy="-234" rx="44.69" ry="18"/>
<text text-anchor="middle" x="171.6" y="-230.3" font-family="Times,serif" font-size="14.00" fill="white">libcdms</text>
</g>
<!-- libcdms&#45;&gt;cdms2 -->
<g id="edge10" class="edge">
<title>libcdms&#45;&gt;cdms2</title>
<path fill="none" stroke="black" d="M161.95,-216.02C146.01,-185.52 118.25,-120.16 142.6,-72 150.54,-56.28 165.58,-44.09 179.88,-35.38"/>
<polygon fill="black" stroke="black" points="181.65,-38.4 188.61,-30.41 178.18,-32.32 181.65,-38.4"/>
</g>
<!-- libcdms&#45;&gt;cdtime -->
<g id="edge11" class="edge">
<title>libcdms&#45;&gt;cdtime</title>
<path fill="none" stroke="black" d="M174.01,-215.87C177.42,-191.67 183.68,-147.21 187.74,-118.39"/>
<polygon fill="black" stroke="black" points="191.25,-118.58 189.17,-108.19 184.31,-117.6 191.25,-118.58"/>
</g>
<!-- libdrs_f -->
<g id="node10" class="node">
<title>libdrs_f</title>
<ellipse fill="#fde725" stroke="black" cx="249.6" cy="-162" rx="50.09" ry="18"/>
<text text-anchor="middle" x="249.6" y="-158.3" font-family="Times,serif" font-size="14.00">libdrs_f</text>
</g>
<!-- libcdms&#45;&gt;libdrs_f -->
<g id="edge12" class="edge">
<title>libcdms&#45;&gt;libdrs_f</title>
<path fill="none" stroke="black" d="M189.29,-217.12C199.59,-207.87 212.75,-196.07 224.15,-185.84"/>
<polygon fill="black" stroke="black" points="226.59,-188.35 231.7,-179.06 221.92,-183.14 226.59,-188.35"/>
</g>
<!-- libdrs_f&#45;&gt;cdms2 -->
<g id="edge13" class="edge">
<title>libdrs_f&#45;&gt;cdms2</title>
<path fill="none" stroke="black" d="M249.65,-143.93C249.3,-125.77 247.55,-96.34 240.6,-72 237.93,-62.69 233.7,-53.04 229.41,-44.56"/>
<polygon fill="black" stroke="black" points="232.41,-42.75 224.63,-35.57 226.23,-46.04 232.41,-42.75"/>
</g>
<!-- libdrs_f&#45;&gt;cdtime -->
<g id="edge14" class="edge">
<title>libdrs_f&#45;&gt;cdtime</title>
<path fill="none" stroke="black" d="M235.85,-144.41C228.63,-135.69 219.64,-124.85 211.65,-115.21"/>
<polygon fill="black" stroke="black" points="214.32,-112.94 205.24,-107.47 208.93,-117.4 214.32,-112.94"/>
</g>
<!-- magics&#45;&gt;metview -->
<g id="edge15" class="edge">
<title>magics&#45;&gt;metview</title>
<path fill="none" stroke="black" d="M437.83,-144.05C441.79,-135.89 446.64,-125.91 451.05,-116.82"/>
<polygon fill="black" stroke="black" points="454.22,-118.31 455.44,-107.79 447.92,-115.25 454.22,-118.31"/>
</g>
<!-- netcdf&#45;cxx4 -->
<g id="node14" class="node">
<title>netcdf&#45;cxx4</title>
<ellipse fill="#31688e" stroke="black" cx="1009.6" cy="-234" rx="64.19" ry="18"/>
<text text-anchor="middle" x="1009.6" y="-230.3" font-family="Times,serif" font-size="14.00" fill="white">netcdf cxx4</text>
</g>
<!-- paraview -->
<g id="node15" class="node">
<title>paraview</title>
<ellipse fill="#31688e" stroke="black" cx="1141.6" cy="-234" rx="50.09" ry="18"/>
<text text-anchor="middle" x="1141.6" y="-230.3" font-family="Times,serif" font-size="14.00" fill="white">paraview</text>
</g>
<!-- pyferret -->
<g id="node16" class="node">
<title>pyferret</title>
<ellipse fill="#31688e" stroke="black" cx="1259.6" cy="-234" rx="50.09" ry="18"/>
<text text-anchor="middle" x="1259.6" y="-230.3" font-family="Times,serif" font-size="14.00" fill="white">pyferret</text>
</g>
<!-- pynio -->
<g id="node17" class="node">
<title>pynio</title>
<ellipse fill="#31688e" stroke="black" cx="1362.6" cy="-234" rx="35.19" ry="18"/>
<text text-anchor="middle" x="1362.6" y="-230.3" font-family="Times,serif" font-size="14.00" fill="white">pynio</text>
</g>
<!-- vic -->
<g id="node19" class="node">
<title>vic</title>
<ellipse fill="#31688e" stroke="black" cx="1442.6" cy="-234" rx="27" ry="18"/>
<text text-anchor="middle" x="1442.6" y="-230.3" font-family="Times,serif" font-size="14.00" fill="white">vic</text>
</g>
<!-- cmor -->
<g id="node20" class="node">
<title>cmor</title>
<ellipse fill="#31688e" stroke="black" cx="1518.6" cy="-234" rx="30.59" ry="18"/>
<text text-anchor="middle" x="1518.6" y="-230.3" font-family="Times,serif" font-size="14.00" fill="white">cmor</text>
</g>
<!-- mpas_tools -->
<g id="node22" class="node">
<title>mpas_tools</title>
<ellipse fill="#31688e" stroke="black" cx="1626.6" cy="-234" rx="59.59" ry="18"/>
<text text-anchor="middle" x="1626.6" y="-230.3" font-family="Times,serif" font-size="14.00" fill="white">mpas_tools</text>
</g>
</g>
</svg>
