<?xml version="1.0" encoding="UTF-8" standalone="no"?>
<!DOCTYPE svg PUBLIC "-//W3C//DTD SVG 1.1//EN"
 "http://www.w3.org/Graphics/SVG/1.1/DTD/svg11.dtd">
<!-- Generated by graphviz version 2.42.3 (20191010.1750)
 -->
<!-- Title: %3 Pages: 1 -->
<svg width="468pt" height="392pt"
 viewBox="0.00 0.00 468.36 392.00" xmlns="http://www.w3.org/2000/svg" xmlns:xlink="http://www.w3.org/1999/xlink">
<g id="graph0" class="graph" transform="scale(1 1) rotate(0) translate(4 388)">
<title>%3</title>
<polygon fill="white" stroke="transparent" points="-4,4 -4,-388 464.36,-388 464.36,4 -4,4"/>
<!-- cdms2 -->
<g id="node1" class="node">
<title>cdms2</title>
<ellipse fill="#fde725" stroke="black" cx="68.57" cy="-150" rx="35.19" ry="18"/>
<text text-anchor="middle" x="68.57" y="-146.3" font-family="Times,serif" font-size="14.00">cdms2</text>
</g>
<!-- cdo -->
<g id="node2" class="node">
<title>cdo</title>
<g id="a_node2"><a xlink:href="https://github.com/conda-forge/cdo-feedstock/pull/76" xlink:title="cdo">
<ellipse fill="#31688e" stroke="black" cx="88.57" cy="-18" rx="27" ry="18"/>
<text text-anchor="middle" x="88.57" y="-14.3" font-family="Times,serif" font-size="14.00" fill="white">cdo</text>
</a>
</g>
</g>
<!-- cdtime -->
<g id="node3" class="node">
<title>cdtime</title>
<ellipse fill="#fde725" stroke="black" cx="68.57" cy="-222" rx="40.09" ry="18"/>
<text text-anchor="middle" x="68.57" y="-218.3" font-family="Times,serif" font-size="14.00">cdtime</text>
</g>
<!-- cdtime&#45;&gt;cdms2 -->
<g id="edge1" class="edge">
<title>cdtime&#45;&gt;cdms2</title>
<path fill="none" stroke="black" d="M68.57,-203.7C68.57,-195.98 68.57,-186.71 68.57,-178.11"/>
<polygon fill="black" stroke="black" points="72.07,-178.1 68.57,-168.1 65.07,-178.1 72.07,-178.1"/>
</g>
<!-- libcdms -->
<g id="node4" class="node">
<title>libcdms</title>
<g id="a_node4"><a xlink:href="https://github.com/conda-forge/libcdms-feedstock/pull/31" xlink:title="libcdms">
<ellipse fill="#31688e" stroke="black" cx="48.57" cy="-366" rx="44.69" ry="18"/>
<text text-anchor="middle" x="48.57" y="-362.3" font-family="Times,serif" font-size="14.00" fill="white">libcdms</text>
</a>
</g>
</g>
<!-- libcdms&#45;&gt;cdms2 -->
<g id="edge2" class="edge">
<title>libcdms&#45;&gt;cdms2</title>
<path fill="none" stroke="black" d="M39.63,-347.96C25.13,-317.92 0,-253.99 19.57,-204 24.28,-191.97 33.14,-181.03 42.05,-172.25"/>
<polygon fill="black" stroke="black" points="44.49,-174.77 49.46,-165.42 39.74,-169.63 44.49,-174.77"/>
</g>
<!-- libcdms&#45;&gt;cdtime -->
<g id="edge3" class="edge">
<title>libcdms&#45;&gt;cdtime</title>
<path fill="none" stroke="black" d="M50.98,-347.87C54.39,-323.67 60.65,-279.21 64.71,-250.39"/>
<polygon fill="black" stroke="black" points="68.22,-250.58 66.14,-240.19 61.28,-249.6 68.22,-250.58"/>
</g>
<!-- libdrs_f -->
<g id="node5" class="node">
<title>libdrs_f</title>
<ellipse fill="#fde725" stroke="black" cx="126.57" cy="-294" rx="50.09" ry="18"/>
<text text-anchor="middle" x="126.57" y="-290.3" font-family="Times,serif" font-size="14.00">libdrs_f</text>
</g>
<!-- libcdms&#45;&gt;libdrs_f -->
<g id="edge4" class="edge">
<title>libcdms&#45;&gt;libdrs_f</title>
<path fill="none" stroke="black" d="M66.27,-349.12C76.56,-339.87 89.72,-328.07 101.12,-317.84"/>
<polygon fill="black" stroke="black" points="103.56,-320.35 108.67,-311.06 98.89,-315.14 103.56,-320.35"/>
</g>
<!-- libdrs_f&#45;&gt;cdms2 -->
<g id="edge5" class="edge">
<title>libdrs_f&#45;&gt;cdms2</title>
<path fill="none" stroke="black" d="M127.97,-275.77C128.78,-257.21 128.03,-227.22 117.57,-204 112.26,-192.22 103.27,-181.33 94.44,-172.52"/>
<polygon fill="black" stroke="black" points="96.81,-169.95 87.13,-165.64 92.01,-175.05 96.81,-169.95"/>
</g>
<!-- libdrs_f&#45;&gt;cdtime -->
<g id="edge6" class="edge">
<title>libdrs_f&#45;&gt;cdtime</title>
<path fill="none" stroke="black" d="M112.82,-276.41C105.6,-267.69 96.61,-256.85 88.62,-247.21"/>
<polygon fill="black" stroke="black" points="91.29,-244.94 82.21,-239.47 85.9,-249.4 91.29,-244.94"/>
</g>
<!-- magics -->
<g id="node6" class="node">
<title>magics</title>
<g id="a_node6"><a xlink:href="https://github.com/conda-forge/magics-feedstock/pull/66" xlink:title="magics">
<ellipse fill="#31688e" stroke="black" cx="88.57" cy="-62" rx="40.09" ry="18"/>
<text text-anchor="middle" x="88.57" y="-58.3" font-family="Times,serif" font-size="14.00" fill="white">magics</text>
</a>
</g>
</g>
<!-- ncl -->
<g id="node7" class="node">
<title>ncl</title>
<g id="a_node7"><a xlink:href="https://github.com/conda-forge/ncl-feedstock/pull/76" xlink:title="ncl">
<ellipse fill="#31688e" stroke="black" cx="258.57" cy="-18" rx="27" ry="18"/>
<text text-anchor="middle" x="258.57" y="-14.3" font-family="Times,serif" font-size="14.00" fill="white">ncl</text>
</a>
</g>
</g>
<!-- paraview -->
<g id="node8" class="node">
<title>paraview</title>
<g id="a_node8"><a xlink:href="https://github.com/conda-forge/paraview-feedstock/pull/72" xlink:title="paraview">
<ellipse fill="#31688e" stroke="black" cx="258.57" cy="-106" rx="50.09" ry="18"/>
<text text-anchor="middle" x="258.57" y="-102.3" font-family="Times,serif" font-size="14.00" fill="white">paraview</text>
</a>
</g>
</g>
<!-- pyferret -->
<g id="node9" class="node">
<title>pyferret</title>
<g id="a_node9"><a xlink:href="https://github.com/conda-forge/pyferret-feedstock/pull/61" xlink:title="pyferret">
<ellipse fill="#31688e" stroke="black" cx="400.57" cy="-106" rx="50.09" ry="18"/>
<text text-anchor="middle" x="400.57" y="-102.3" font-family="Times,serif" font-size="14.00" fill="white">pyferret</text>
</a>
</g>
</g>
<!-- vic -->
<g id="node10" class="node">
<title>vic</title>
<g id="a_node10"><a xlink:href="https://github.com/conda-forge/vic-feedstock/pull/10" xlink:title="vic">
<ellipse fill="#31688e" stroke="black" cx="400.57" cy="-18" rx="27" ry="18"/>
<text text-anchor="middle" x="400.57" y="-14.3" font-family="Times,serif" font-size="14.00" fill="white">vic</text>
</a>
</g>
</g>
<!-- vmd&#45;python -->
<g id="node11" class="node">
<title>vmd&#45;python</title>
<g id="a_node11"><a xlink:href="https://github.com/conda-forge/vmd-python-feedstock/pull/14" xlink:title="vmd python">
<ellipse fill="#31688e" stroke="black" cx="400.57" cy="-258" rx="59.59" ry="18"/>
<text text-anchor="middle" x="400.57" y="-254.3" font-family="Times,serif" font-size="14.00" fill="white">vmd python</text>
</a>
</g>
</g>
<!-- cmor -->
<g id="node12" class="node">
<title>cmor</title>
<g id="a_node12"><a xlink:href="https://github.com/conda-forge/cmor-feedstock/pull/21" xlink:title="cmor">
<ellipse fill="#31688e" stroke="black" cx="400.57" cy="-62" rx="30.59" ry="18"/>
<text text-anchor="middle" x="400.57" y="-58.3" font-family="Times,serif" font-size="14.00" fill="white">cmor</text>
</a>
</g>
</g>
<!-- ambertools -->
<g id="node13" class="node">
<title>ambertools</title>
<g id="a_node13"><a xlink:href="https://github.com/conda-forge/ambertools-feedstock/pull/28" xlink:title="ambertools">
<ellipse fill="#31688e" stroke="black" cx="88.57" cy="-106" rx="59.59" ry="18"/>
<text text-anchor="middle" x="88.57" y="-102.3" font-family="Times,serif" font-size="14.00" fill="white">ambertools</text>
</a>
</g>
</g>
<!-- ncview -->
<g id="node14" class="node">
<title>ncview</title>
<g id="a_node14"><a xlink:href="https://github.com/conda-forge/ncview-feedstock/pull/5" xlink:title="ncview">
<ellipse fill="#31688e" stroke="black" cx="258.57" cy="-62" rx="40.09" ry="18"/>
<text text-anchor="middle" x="258.57" y="-58.3" font-family="Times,serif" font-size="14.00" fill="white">ncview</text>
</a>
</g>
</g>
<!-- metview&#45;batch -->
<g id="node15" class="node">
<title>metview&#45;batch</title>
<g id="a_node15"><a xlink:href="https://github.com/conda-forge/metview-batch-feedstock/pull/6" xlink:title="metview batch">
<ellipse fill="#31688e" stroke="black" cx="258.57" cy="-258" rx="74.19" ry="18"/>
<text text-anchor="middle" x="258.57" y="-254.3" font-family="Times,serif" font-size="14.00" fill="white">metview batch</text>
</a>
</g>
</g>
</g>
</svg>
