<?xml version="1.0" encoding="UTF-8" standalone="no"?>
<!DOCTYPE svg PUBLIC "-//W3C//DTD SVG 1.1//EN"
 "http://www.w3.org/Graphics/SVG/1.1/DTD/svg11.dtd">
<!-- Generated by graphviz version 2.42.3 (20191010.1750)
 -->
<!-- Title: %3 Pages: 1 -->
<svg width="1074pt" height="188pt"
 viewBox="0.00 0.00 1074.14 188.00" xmlns="http://www.w3.org/2000/svg" xmlns:xlink="http://www.w3.org/1999/xlink">
<g id="graph0" class="graph" transform="scale(1 1) rotate(0) translate(4 184)">
<title>%3</title>
<polygon fill="white" stroke="transparent" points="-4,4 -4,-184 1070.14,-184 1070.14,4 -4,4"/>
<!-- cdat&#45;lite -->
<g id="node1" class="node">
<title>cdat&#45;lite</title>
<ellipse fill="#31688e" stroke="black" cx="54.6" cy="-162" rx="54.69" ry="18"/>
<text text-anchor="middle" x="54.6" y="-158.3" font-family="Times,serif" font-size="14.00" fill="white">cdat lite</text>
</g>
<!-- cdms2 -->
<g id="node2" class="node">
<title>cdms2</title>
<ellipse fill="#31688e" stroke="black" cx="162.6" cy="-162" rx="35.19" ry="18"/>
<text text-anchor="middle" x="162.6" y="-158.3" font-family="Times,serif" font-size="14.00" fill="white">cdms2</text>
</g>
<!-- cdo -->
<g id="node3" class="node">
<title>cdo</title>
<ellipse fill="#fde725" stroke="black" cx="141.6" cy="-90" rx="27" ry="18"/>
<text text-anchor="middle" x="141.6" y="-86.3" font-family="Times,serif" font-size="14.00">cdo</text>
</g>
<!-- eccodes -->
<g id="node4" class="node">
<title>eccodes</title>
<ellipse fill="#31688e" stroke="black" cx="260.6" cy="-162" rx="44.69" ry="18"/>
<text text-anchor="middle" x="260.6" y="-158.3" font-family="Times,serif" font-size="14.00" fill="white">eccodes</text>
</g>
<!-- eccodes&#45;&gt;cdo -->
<g id="edge1" class="edge">
<title>eccodes&#45;&gt;cdo</title>
<path fill="none" stroke="black" d="M236.23,-146.67C217,-135.36 190.16,-119.57 169.97,-107.69"/>
<polygon fill="black" stroke="black" points="171.61,-104.59 161.21,-102.54 168.06,-110.63 171.61,-104.59"/>
</g>
<!-- magics -->
<g id="node6" class="node">
<title>magics</title>
<ellipse fill="#fde725" stroke="black" cx="226.6" cy="-90" rx="40.09" ry="18"/>
<text text-anchor="middle" x="226.6" y="-86.3" font-family="Times,serif" font-size="14.00">magics</text>
</g>
<!-- eccodes&#45;&gt;magics -->
<g id="edge2" class="edge">
<title>eccodes&#45;&gt;magics</title>
<path fill="none" stroke="black" d="M252.36,-144.05C248.4,-135.89 243.55,-125.91 239.14,-116.82"/>
<polygon fill="black" stroke="black" points="242.27,-115.25 234.75,-107.79 235.97,-118.31 242.27,-115.25"/>
</g>
<!-- metview -->
<g id="node13" class="node">
<title>metview</title>
<ellipse fill="#fde725" stroke="black" cx="260.6" cy="-18" rx="44.69" ry="18"/>
<text text-anchor="middle" x="260.6" y="-14.3" font-family="Times,serif" font-size="14.00">metview</text>
</g>
<!-- eccodes&#45;&gt;metview -->
<g id="edge4" class="edge">
<title>eccodes&#45;&gt;metview</title>
<path fill="none" stroke="black" d="M266.68,-144.07C270.04,-133.79 273.89,-120.31 275.6,-108 277.79,-92.15 277.79,-87.85 275.6,-72 274.38,-63.25 272.09,-53.9 269.65,-45.54"/>
<polygon fill="black" stroke="black" points="272.98,-44.45 266.68,-35.93 266.29,-46.52 272.98,-44.45"/>
</g>
<!-- magics&#45;metview -->
<g id="node14" class="node">
<title>magics&#45;metview</title>
<ellipse fill="#fde725" stroke="black" cx="401.6" cy="-90" rx="79.09" ry="18"/>
<text text-anchor="middle" x="401.6" y="-86.3" font-family="Times,serif" font-size="14.00">magics metview</text>
</g>
<!-- eccodes&#45;&gt;magics&#45;metview -->
<g id="edge3" class="edge">
<title>eccodes&#45;&gt;magics&#45;metview</title>
<path fill="none" stroke="black" d="M287.78,-147.5C308.55,-137.19 337.51,-122.81 361.02,-111.14"/>
<polygon fill="black" stroke="black" points="362.66,-114.24 370.06,-106.65 359.55,-107.97 362.66,-114.24"/>
</g>
<!-- ecmwf_grib -->
<g id="node5" class="node">
<title>ecmwf_grib</title>
<ellipse fill="#31688e" stroke="black" cx="592.6" cy="-162" rx="59.59" ry="18"/>
<text text-anchor="middle" x="592.6" y="-158.3" font-family="Times,serif" font-size="14.00" fill="white">ecmwf_grib</text>
</g>
<!-- python&#45;ecmwf_grib -->
<g id="node10" class="node">
<title>python&#45;ecmwf_grib</title>
<ellipse fill="#fde725" stroke="black" cx="592.6" cy="-90" rx="93.68" ry="18"/>
<text text-anchor="middle" x="592.6" y="-86.3" font-family="Times,serif" font-size="14.00">python ecmwf_grib</text>
</g>
<!-- ecmwf_grib&#45;&gt;python&#45;ecmwf_grib -->
<g id="edge5" class="edge">
<title>ecmwf_grib&#45;&gt;python&#45;ecmwf_grib</title>
<path fill="none" stroke="black" d="M592.6,-143.7C592.6,-135.98 592.6,-126.71 592.6,-118.11"/>
<polygon fill="black" stroke="black" points="596.1,-118.1 592.6,-108.1 589.1,-118.1 596.1,-118.1"/>
</g>
<!-- magics&#45;&gt;metview -->
<g id="edge6" class="edge">
<title>magics&#45;&gt;metview</title>
<path fill="none" stroke="black" d="M234.83,-72.05C238.79,-63.89 243.64,-53.91 248.05,-44.82"/>
<polygon fill="black" stroke="black" points="251.22,-46.31 252.44,-35.79 244.92,-43.25 251.22,-46.31"/>
</g>
<!-- ncl -->
<g id="node7" class="node">
<title>ncl</title>
<ellipse fill="#31688e" stroke="black" cx="697.6" cy="-162" rx="27" ry="18"/>
<text text-anchor="middle" x="697.6" y="-158.3" font-family="Times,serif" font-size="14.00" fill="white">ncl</text>
</g>
<!-- nco -->
<g id="node8" class="node">
<title>nco</title>
<ellipse fill="#31688e" stroke="black" cx="769.6" cy="-162" rx="27" ry="18"/>
<text text-anchor="middle" x="769.6" y="-158.3" font-family="Times,serif" font-size="14.00" fill="white">nco</text>
</g>
<!-- paraview -->
<g id="node9" class="node">
<title>paraview</title>
<ellipse fill="#31688e" stroke="black" cx="864.6" cy="-162" rx="50.09" ry="18"/>
<text text-anchor="middle" x="864.6" y="-158.3" font-family="Times,serif" font-size="14.00" fill="white">paraview</text>
</g>
<!-- vic -->
<g id="node11" class="node">
<title>vic</title>
<ellipse fill="#31688e" stroke="black" cx="959.6" cy="-162" rx="27" ry="18"/>
<text text-anchor="middle" x="959.6" y="-158.3" font-family="Times,serif" font-size="14.00" fill="white">vic</text>
</g>
<!-- cmor -->
<g id="node12" class="node">
<title>cmor</title>
<ellipse fill="#31688e" stroke="black" cx="1035.6" cy="-162" rx="30.59" ry="18"/>
<text text-anchor="middle" x="1035.6" y="-158.3" font-family="Times,serif" font-size="14.00" fill="white">cmor</text>
</g>
</g>
</svg>
