<?xml version="1.0" encoding="UTF-8" standalone="no"?>
<!DOCTYPE svg PUBLIC "-//W3C//DTD SVG 1.1//EN"
 "http://www.w3.org/Graphics/SVG/1.1/DTD/svg11.dtd">
<!-- Generated by graphviz version 2.42.3 (20191010.1750)
 -->
<!-- Title: %3 Pages: 1 -->
<svg width="1180pt" height="188pt"
 viewBox="0.00 0.00 1180.14 188.00" xmlns="http://www.w3.org/2000/svg" xmlns:xlink="http://www.w3.org/1999/xlink">
<g id="graph0" class="graph" transform="scale(1 1) rotate(0) translate(4 184)">
<title>%3</title>
<polygon fill="white" stroke="transparent" points="-4,4 -4,-184 1176.14,-184 1176.14,4 -4,4"/>
<!-- cdat&#45;lite -->
<g id="node1" class="node">
<title>cdat&#45;lite</title>
<ellipse fill="#31688e" stroke="black" cx="54.6" cy="-162" rx="54.69" ry="18"/>
<text text-anchor="middle" x="54.6" y="-158.3" font-family="Times,serif" font-size="14.00" fill="white">cdat lite</text>
</g>
<!-- cdms2 -->
<g id="node2" class="node">
<title>cdms2</title>
<ellipse fill="#fde725" stroke="black" cx="167.6" cy="-90" rx="35.19" ry="18"/>
<text text-anchor="middle" x="167.6" y="-86.3" font-family="Times,serif" font-size="14.00">cdms2</text>
</g>
<!-- cdo -->
<g id="node3" class="node">
<title>cdo</title>
<ellipse fill="#fde725" stroke="black" cx="247.6" cy="-90" rx="27" ry="18"/>
<text text-anchor="middle" x="247.6" y="-86.3" font-family="Times,serif" font-size="14.00">cdo</text>
</g>
<!-- cdtime -->
<g id="node4" class="node">
<title>cdtime</title>
<ellipse fill="#31688e" stroke="black" cx="167.6" cy="-162" rx="40.09" ry="18"/>
<text text-anchor="middle" x="167.6" y="-158.3" font-family="Times,serif" font-size="14.00" fill="white">cdtime</text>
</g>
<!-- cdtime&#45;&gt;cdms2 -->
<g id="edge1" class="edge">
<title>cdtime&#45;&gt;cdms2</title>
<path fill="none" stroke="black" d="M167.6,-143.7C167.6,-135.98 167.6,-126.71 167.6,-118.11"/>
<polygon fill="black" stroke="black" points="171.1,-118.1 167.6,-108.1 164.1,-118.1 171.1,-118.1"/>
</g>
<!-- eccodes -->
<g id="node5" class="node">
<title>eccodes</title>
<ellipse fill="#31688e" stroke="black" cx="366.6" cy="-162" rx="44.69" ry="18"/>
<text text-anchor="middle" x="366.6" y="-158.3" font-family="Times,serif" font-size="14.00" fill="white">eccodes</text>
</g>
<!-- eccodes&#45;&gt;cdo -->
<g id="edge2" class="edge">
<title>eccodes&#45;&gt;cdo</title>
<path fill="none" stroke="black" d="M342.23,-146.67C323,-135.36 296.16,-119.57 275.97,-107.69"/>
<polygon fill="black" stroke="black" points="277.61,-104.59 267.21,-102.54 274.06,-110.63 277.61,-104.59"/>
</g>
<!-- magics -->
<g id="node7" class="node">
<title>magics</title>
<ellipse fill="#fde725" stroke="black" cx="332.6" cy="-90" rx="40.09" ry="18"/>
<text text-anchor="middle" x="332.6" y="-86.3" font-family="Times,serif" font-size="14.00">magics</text>
</g>
<!-- eccodes&#45;&gt;magics -->
<g id="edge3" class="edge">
<title>eccodes&#45;&gt;magics</title>
<path fill="none" stroke="black" d="M358.36,-144.05C354.4,-135.89 349.55,-125.91 345.14,-116.82"/>
<polygon fill="black" stroke="black" points="348.27,-115.25 340.75,-107.79 341.97,-118.31 348.27,-115.25"/>
</g>
<!-- metview -->
<g id="node14" class="node">
<title>metview</title>
<ellipse fill="#fde725" stroke="black" cx="366.6" cy="-18" rx="44.69" ry="18"/>
<text text-anchor="middle" x="366.6" y="-14.3" font-family="Times,serif" font-size="14.00">metview</text>
</g>
<!-- eccodes&#45;&gt;metview -->
<g id="edge5" class="edge">
<title>eccodes&#45;&gt;metview</title>
<path fill="none" stroke="black" d="M372.68,-144.07C376.04,-133.79 379.89,-120.31 381.6,-108 383.79,-92.15 383.79,-87.85 381.6,-72 380.38,-63.25 378.09,-53.9 375.65,-45.54"/>
<polygon fill="black" stroke="black" points="378.98,-44.45 372.68,-35.93 372.29,-46.52 378.98,-44.45"/>
</g>
<!-- magics&#45;metview -->
<g id="node15" class="node">
<title>magics&#45;metview</title>
<ellipse fill="#fde725" stroke="black" cx="507.6" cy="-90" rx="79.09" ry="18"/>
<text text-anchor="middle" x="507.6" y="-86.3" font-family="Times,serif" font-size="14.00">magics metview</text>
</g>
<!-- eccodes&#45;&gt;magics&#45;metview -->
<g id="edge4" class="edge">
<title>eccodes&#45;&gt;magics&#45;metview</title>
<path fill="none" stroke="black" d="M393.78,-147.5C414.55,-137.19 443.51,-122.81 467.02,-111.14"/>
<polygon fill="black" stroke="black" points="468.66,-114.24 476.06,-106.65 465.55,-107.97 468.66,-114.24"/>
</g>
<!-- ecmwf_grib -->
<g id="node6" class="node">
<title>ecmwf_grib</title>
<ellipse fill="#31688e" stroke="black" cx="698.6" cy="-162" rx="59.59" ry="18"/>
<text text-anchor="middle" x="698.6" y="-158.3" font-family="Times,serif" font-size="14.00" fill="white">ecmwf_grib</text>
</g>
<!-- python&#45;ecmwf_grib -->
<g id="node11" class="node">
<title>python&#45;ecmwf_grib</title>
<ellipse fill="#fde725" stroke="black" cx="698.6" cy="-90" rx="93.68" ry="18"/>
<text text-anchor="middle" x="698.6" y="-86.3" font-family="Times,serif" font-size="14.00">python ecmwf_grib</text>
</g>
<!-- ecmwf_grib&#45;&gt;python&#45;ecmwf_grib -->
<g id="edge6" class="edge">
<title>ecmwf_grib&#45;&gt;python&#45;ecmwf_grib</title>
<path fill="none" stroke="black" d="M698.6,-143.7C698.6,-135.98 698.6,-126.71 698.6,-118.11"/>
<polygon fill="black" stroke="black" points="702.1,-118.1 698.6,-108.1 695.1,-118.1 702.1,-118.1"/>
</g>
<!-- magics&#45;&gt;metview -->
<g id="edge7" class="edge">
<title>magics&#45;&gt;metview</title>
<path fill="none" stroke="black" d="M340.83,-72.05C344.79,-63.89 349.64,-53.91 354.05,-44.82"/>
<polygon fill="black" stroke="black" points="357.22,-46.31 358.44,-35.79 350.92,-43.25 357.22,-46.31"/>
</g>
<!-- ncl -->
<g id="node8" class="node">
<title>ncl</title>
<ellipse fill="#31688e" stroke="black" cx="803.6" cy="-162" rx="27" ry="18"/>
<text text-anchor="middle" x="803.6" y="-158.3" font-family="Times,serif" font-size="14.00" fill="white">ncl</text>
</g>
<!-- nco -->
<g id="node9" class="node">
<title>nco</title>
<ellipse fill="#31688e" stroke="black" cx="875.6" cy="-162" rx="27" ry="18"/>
<text text-anchor="middle" x="875.6" y="-158.3" font-family="Times,serif" font-size="14.00" fill="white">nco</text>
</g>
<!-- paraview -->
<g id="node10" class="node">
<title>paraview</title>
<ellipse fill="#31688e" stroke="black" cx="970.6" cy="-162" rx="50.09" ry="18"/>
<text text-anchor="middle" x="970.6" y="-158.3" font-family="Times,serif" font-size="14.00" fill="white">paraview</text>
</g>
<!-- vic -->
<g id="node12" class="node">
<title>vic</title>
<ellipse fill="#31688e" stroke="black" cx="1065.6" cy="-162" rx="27" ry="18"/>
<text text-anchor="middle" x="1065.6" y="-158.3" font-family="Times,serif" font-size="14.00" fill="white">vic</text>
</g>
<!-- cmor -->
<g id="node13" class="node">
<title>cmor</title>
<ellipse fill="#31688e" stroke="black" cx="1141.6" cy="-162" rx="30.59" ry="18"/>
<text text-anchor="middle" x="1141.6" y="-158.3" font-family="Times,serif" font-size="14.00" fill="white">cmor</text>
</g>
</g>
</svg>
