<?xml version="1.0" encoding="UTF-8" standalone="no"?>
<!DOCTYPE svg PUBLIC "-//W3C//DTD SVG 1.1//EN"
 "http://www.w3.org/Graphics/SVG/1.1/DTD/svg11.dtd">
<!-- Generated by graphviz version 2.42.3 (20191010.1750)
 -->
<!-- Title: %3 Pages: 1 -->
<svg width="2126pt" height="260pt"
 viewBox="0.00 0.00 2126.39 260.00" xmlns="http://www.w3.org/2000/svg" xmlns:xlink="http://www.w3.org/1999/xlink">
<g id="graph0" class="graph" transform="scale(1 1) rotate(0) translate(4 256)">
<title>%3</title>
<polygon fill="white" stroke="transparent" points="-4,4 -4,-256 2122.39,-256 2122.39,4 -4,4"/>
<!-- cdat&#45;lite -->
<g id="node1" class="node">
<title>cdat&#45;lite</title>
<ellipse fill="#31688e" stroke="black" cx="54.6" cy="-234" rx="54.69" ry="18"/>
<text text-anchor="middle" x="54.6" y="-230.3" font-family="Times,serif" font-size="14.00" fill="white">cdat lite</text>
</g>
<!-- cdms2 -->
<g id="node2" class="node">
<title>cdms2</title>
<ellipse fill="#fde725" stroke="black" cx="215.6" cy="-18" rx="35.19" ry="18"/>
<text text-anchor="middle" x="215.6" y="-14.3" font-family="Times,serif" font-size="14.00">cdms2</text>
</g>
<!-- cdo -->
<g id="node3" class="node">
<title>cdo</title>
<ellipse fill="#fde725" stroke="black" cx="459.6" cy="-162" rx="27" ry="18"/>
<text text-anchor="middle" x="459.6" y="-158.3" font-family="Times,serif" font-size="14.00">cdo</text>
</g>
<!-- cdtime -->
<g id="node4" class="node">
<title>cdtime</title>
<ellipse fill="#fde725" stroke="black" cx="191.6" cy="-90" rx="40.09" ry="18"/>
<text text-anchor="middle" x="191.6" y="-86.3" font-family="Times,serif" font-size="14.00">cdtime</text>
</g>
<!-- cdtime&#45;&gt;cdms2 -->
<g id="edge1" class="edge">
<title>cdtime&#45;&gt;cdms2</title>
<path fill="none" stroke="black" d="M197.4,-72.05C200.15,-64.06 203.48,-54.33 206.54,-45.4"/>
<polygon fill="black" stroke="black" points="209.91,-46.38 209.84,-35.79 203.28,-44.11 209.91,-46.38"/>
</g>
<!-- eccodes -->
<g id="node5" class="node">
<title>eccodes</title>
<ellipse fill="#31688e" stroke="black" cx="578.6" cy="-234" rx="44.69" ry="18"/>
<text text-anchor="middle" x="578.6" y="-230.3" font-family="Times,serif" font-size="14.00" fill="white">eccodes</text>
</g>
<!-- eccodes&#45;&gt;cdo -->
<g id="edge2" class="edge">
<title>eccodes&#45;&gt;cdo</title>
<path fill="none" stroke="black" d="M554.23,-218.67C535,-207.36 508.16,-191.57 487.97,-179.69"/>
<polygon fill="black" stroke="black" points="489.61,-176.59 479.21,-174.54 486.06,-182.63 489.61,-176.59"/>
</g>
<!-- magics -->
<g id="node11" class="node">
<title>magics</title>
<ellipse fill="#fde725" stroke="black" cx="544.6" cy="-162" rx="40.09" ry="18"/>
<text text-anchor="middle" x="544.6" y="-158.3" font-family="Times,serif" font-size="14.00">magics</text>
</g>
<!-- eccodes&#45;&gt;magics -->
<g id="edge3" class="edge">
<title>eccodes&#45;&gt;magics</title>
<path fill="none" stroke="black" d="M570.36,-216.05C566.4,-207.89 561.55,-197.91 557.14,-188.82"/>
<polygon fill="black" stroke="black" points="560.27,-187.25 552.75,-179.79 553.97,-190.31 560.27,-187.25"/>
</g>
<!-- metview -->
<g id="node25" class="node">
<title>metview</title>
<ellipse fill="#fde725" stroke="black" cx="578.6" cy="-90" rx="44.69" ry="18"/>
<text text-anchor="middle" x="578.6" y="-86.3" font-family="Times,serif" font-size="14.00">metview</text>
</g>
<!-- eccodes&#45;&gt;metview -->
<g id="edge5" class="edge">
<title>eccodes&#45;&gt;metview</title>
<path fill="none" stroke="black" d="M584.68,-216.07C588.04,-205.79 591.89,-192.31 593.6,-180 595.79,-164.15 595.79,-159.85 593.6,-144 592.38,-135.25 590.09,-125.9 587.65,-117.54"/>
<polygon fill="black" stroke="black" points="590.98,-116.45 584.68,-107.93 584.29,-118.52 590.98,-116.45"/>
</g>
<!-- magics&#45;metview -->
<g id="node27" class="node">
<title>magics&#45;metview</title>
<ellipse fill="#fde725" stroke="black" cx="719.6" cy="-162" rx="79.09" ry="18"/>
<text text-anchor="middle" x="719.6" y="-158.3" font-family="Times,serif" font-size="14.00">magics metview</text>
</g>
<!-- eccodes&#45;&gt;magics&#45;metview -->
<g id="edge4" class="edge">
<title>eccodes&#45;&gt;magics&#45;metview</title>
<path fill="none" stroke="black" d="M605.78,-219.5C626.55,-209.19 655.51,-194.81 679.02,-183.14"/>
<polygon fill="black" stroke="black" points="680.66,-186.24 688.06,-178.65 677.55,-179.97 680.66,-186.24"/>
</g>
<!-- ecmwf_grib -->
<g id="node6" class="node">
<title>ecmwf_grib</title>
<ellipse fill="#31688e" stroke="black" cx="910.6" cy="-234" rx="59.59" ry="18"/>
<text text-anchor="middle" x="910.6" y="-230.3" font-family="Times,serif" font-size="14.00" fill="white">ecmwf_grib</text>
</g>
<!-- python&#45;ecmwf_grib -->
<g id="node18" class="node">
<title>python&#45;ecmwf_grib</title>
<ellipse fill="#fde725" stroke="black" cx="910.6" cy="-162" rx="93.68" ry="18"/>
<text text-anchor="middle" x="910.6" y="-158.3" font-family="Times,serif" font-size="14.00">python ecmwf_grib</text>
</g>
<!-- ecmwf_grib&#45;&gt;python&#45;ecmwf_grib -->
<g id="edge6" class="edge">
<title>ecmwf_grib&#45;&gt;python&#45;ecmwf_grib</title>
<path fill="none" stroke="black" d="M910.6,-215.7C910.6,-207.98 910.6,-198.71 910.6,-190.11"/>
<polygon fill="black" stroke="black" points="914.1,-190.1 910.6,-180.1 907.1,-190.1 914.1,-190.1"/>
</g>
<!-- esmf -->
<g id="node7" class="node">
<title>esmf</title>
<ellipse fill="#31688e" stroke="black" cx="318.6" cy="-90" rx="30.59" ry="18"/>
<text text-anchor="middle" x="318.6" y="-86.3" font-family="Times,serif" font-size="14.00" fill="white">esmf</text>
</g>
<!-- esmf&#45;&gt;cdms2 -->
<g id="edge7" class="edge">
<title>esmf&#45;&gt;cdms2</title>
<path fill="none" stroke="black" d="M299.22,-75.83C283.84,-65.38 262.09,-50.6 244.62,-38.73"/>
<polygon fill="black" stroke="black" points="246.18,-35.55 235.94,-32.83 242.24,-41.34 246.18,-35.55"/>
</g>
<!-- ncl -->
<g id="node12" class="node">
<title>ncl</title>
<ellipse fill="#fde725" stroke="black" cx="318.6" cy="-18" rx="27" ry="18"/>
<text text-anchor="middle" x="318.6" y="-14.3" font-family="Times,serif" font-size="14.00">ncl</text>
</g>
<!-- esmf&#45;&gt;ncl -->
<g id="edge8" class="edge">
<title>esmf&#45;&gt;ncl</title>
<path fill="none" stroke="black" d="M318.6,-71.7C318.6,-63.98 318.6,-54.71 318.6,-46.11"/>
<polygon fill="black" stroke="black" points="322.1,-46.1 318.6,-36.1 315.1,-46.1 322.1,-46.1"/>
</g>
<!-- nco -->
<g id="node13" class="node">
<title>nco</title>
<ellipse fill="#fde725" stroke="black" cx="415.6" cy="-18" rx="27" ry="18"/>
<text text-anchor="middle" x="415.6" y="-14.3" font-family="Times,serif" font-size="14.00">nco</text>
</g>
<!-- esmf&#45;&gt;nco -->
<g id="edge9" class="edge">
<title>esmf&#45;&gt;nco</title>
<path fill="none" stroke="black" d="M337.3,-75.5C352.21,-64.74 373.25,-49.56 389.76,-37.64"/>
<polygon fill="black" stroke="black" points="391.87,-40.44 397.93,-31.75 387.77,-34.76 391.87,-40.44"/>
</g>
<!-- gmt -->
<g id="node8" class="node">
<title>gmt</title>
<ellipse fill="#31688e" stroke="black" cx="1015.6" cy="-234" rx="27" ry="18"/>
<text text-anchor="middle" x="1015.6" y="-230.3" font-family="Times,serif" font-size="14.00" fill="white">gmt</text>
</g>
<!-- libcdms -->
<g id="node9" class="node">
<title>libcdms</title>
<ellipse fill="#31688e" stroke="black" cx="171.6" cy="-234" rx="44.69" ry="18"/>
<text text-anchor="middle" x="171.6" y="-230.3" font-family="Times,serif" font-size="14.00" fill="white">libcdms</text>
</g>
<!-- libcdms&#45;&gt;cdms2 -->
<g id="edge10" class="edge">
<title>libcdms&#45;&gt;cdms2</title>
<path fill="none" stroke="black" d="M161.92,-216C145.93,-185.48 118.09,-120.08 142.6,-72 150.72,-56.05 166.14,-43.78 180.72,-35.08"/>
<polygon fill="black" stroke="black" points="182.59,-38.05 189.62,-30.13 179.18,-31.94 182.59,-38.05"/>
</g>
<!-- libcdms&#45;&gt;cdtime -->
<g id="edge11" class="edge">
<title>libcdms&#45;&gt;cdtime</title>
<path fill="none" stroke="black" d="M174.01,-215.87C177.42,-191.67 183.68,-147.21 187.74,-118.39"/>
<polygon fill="black" stroke="black" points="191.25,-118.58 189.17,-108.19 184.31,-117.6 191.25,-118.58"/>
</g>
<!-- libdrs_f -->
<g id="node10" class="node">
<title>libdrs_f</title>
<ellipse fill="#fde725" stroke="black" cx="249.6" cy="-162" rx="50.09" ry="18"/>
<text text-anchor="middle" x="249.6" y="-158.3" font-family="Times,serif" font-size="14.00">libdrs_f</text>
</g>
<!-- libcdms&#45;&gt;libdrs_f -->
<g id="edge12" class="edge">
<title>libcdms&#45;&gt;libdrs_f</title>
<path fill="none" stroke="black" d="M189.29,-217.12C199.59,-207.87 212.75,-196.07 224.15,-185.84"/>
<polygon fill="black" stroke="black" points="226.59,-188.35 231.7,-179.06 221.92,-183.14 226.59,-188.35"/>
</g>
<!-- libdrs_f&#45;&gt;cdms2 -->
<g id="edge13" class="edge">
<title>libdrs_f&#45;&gt;cdms2</title>
<path fill="none" stroke="black" d="M249.58,-143.95C249.16,-125.8 247.37,-96.39 240.6,-72 238.02,-62.74 233.95,-53.1 229.83,-44.62"/>
<polygon fill="black" stroke="black" points="232.9,-42.93 225.23,-35.62 226.66,-46.12 232.9,-42.93"/>
</g>
<!-- libdrs_f&#45;&gt;cdtime -->
<g id="edge14" class="edge">
<title>libdrs_f&#45;&gt;cdtime</title>
<path fill="none" stroke="black" d="M235.85,-144.41C228.63,-135.69 219.64,-124.85 211.65,-115.21"/>
<polygon fill="black" stroke="black" points="214.32,-112.94 205.24,-107.47 208.93,-117.4 214.32,-112.94"/>
</g>
<!-- magics&#45;&gt;metview -->
<g id="edge15" class="edge">
<title>magics&#45;&gt;metview</title>
<path fill="none" stroke="black" d="M552.83,-144.05C556.79,-135.89 561.64,-125.91 566.05,-116.82"/>
<polygon fill="black" stroke="black" points="569.22,-118.31 570.44,-107.79 562.92,-115.25 569.22,-118.31"/>
</g>
<!-- netcdf&#45;cxx4 -->
<g id="node14" class="node">
<title>netcdf&#45;cxx4</title>
<ellipse fill="#31688e" stroke="black" cx="1124.6" cy="-234" rx="64.19" ry="18"/>
<text text-anchor="middle" x="1124.6" y="-230.3" font-family="Times,serif" font-size="14.00" fill="white">netcdf cxx4</text>
</g>
<!-- paraview -->
<g id="node15" class="node">
<title>paraview</title>
<ellipse fill="#31688e" stroke="black" cx="1256.6" cy="-234" rx="50.09" ry="18"/>
<text text-anchor="middle" x="1256.6" y="-230.3" font-family="Times,serif" font-size="14.00" fill="white">paraview</text>
</g>
<!-- pyferret -->
<g id="node16" class="node">
<title>pyferret</title>
<ellipse fill="#31688e" stroke="black" cx="1374.6" cy="-234" rx="50.09" ry="18"/>
<text text-anchor="middle" x="1374.6" y="-230.3" font-family="Times,serif" font-size="14.00" fill="white">pyferret</text>
</g>
<!-- pynio -->
<g id="node17" class="node">
<title>pynio</title>
<ellipse fill="#31688e" stroke="black" cx="1477.6" cy="-234" rx="35.19" ry="18"/>
<text text-anchor="middle" x="1477.6" y="-230.3" font-family="Times,serif" font-size="14.00" fill="white">pynio</text>
</g>
<!-- r&#45;ncdf4 -->
<g id="node19" class="node">
<title>r&#45;ncdf4</title>
<ellipse fill="#31688e" stroke="black" cx="1575.6" cy="-234" rx="44.69" ry="18"/>
<text text-anchor="middle" x="1575.6" y="-230.3" font-family="Times,serif" font-size="14.00" fill="white">r ncdf4</text>
</g>
<!-- vic -->
<g id="node20" class="node">
<title>vic</title>
<ellipse fill="#31688e" stroke="black" cx="1665.6" cy="-234" rx="27" ry="18"/>
<text text-anchor="middle" x="1665.6" y="-230.3" font-family="Times,serif" font-size="14.00" fill="white">vic</text>
</g>
<!-- vtk -->
<g id="node21" class="node">
<title>vtk</title>
<ellipse fill="#31688e" stroke="black" cx="1737.6" cy="-234" rx="27" ry="18"/>
<text text-anchor="middle" x="1737.6" y="-230.3" font-family="Times,serif" font-size="14.00" fill="white">vtk</text>
</g>
<!-- vmd&#45;python -->
<g id="node22" class="node">
<title>vmd&#45;python</title>
<ellipse fill="#31688e" stroke="black" cx="1842.6" cy="-234" rx="59.59" ry="18"/>
<text text-anchor="middle" x="1842.6" y="-230.3" font-family="Times,serif" font-size="14.00" fill="white">vmd python</text>
</g>
<!-- cmor -->
<g id="node23" class="node">
<title>cmor</title>
<ellipse fill="#31688e" stroke="black" cx="1950.6" cy="-234" rx="30.59" ry="18"/>
<text text-anchor="middle" x="1950.6" y="-230.3" font-family="Times,serif" font-size="14.00" fill="white">cmor</text>
</g>
<!-- tempest&#45;remap -->
<g id="node24" class="node">
<title>tempest&#45;remap</title>
<ellipse fill="#31688e" stroke="black" cx="441.6" cy="-90" rx="74.19" ry="18"/>
<text text-anchor="middle" x="441.6" y="-86.3" font-family="Times,serif" font-size="14.00" fill="white">tempest remap</text>
</g>
<!-- tempest&#45;remap&#45;&gt;nco -->
<g id="edge16" class="edge">
<title>tempest&#45;remap&#45;&gt;nco</title>
<path fill="none" stroke="black" d="M435.3,-72.05C432.33,-64.06 428.72,-54.33 425.4,-45.4"/>
<polygon fill="black" stroke="black" points="428.59,-43.94 421.83,-35.79 422.03,-46.38 428.59,-43.94"/>
</g>
<!-- mpas_tools -->
<g id="node26" class="node">
<title>mpas_tools</title>
<ellipse fill="#31688e" stroke="black" cx="2058.6" cy="-234" rx="59.59" ry="18"/>
<text text-anchor="middle" x="2058.6" y="-230.3" font-family="Times,serif" font-size="14.00" fill="white">mpas_tools</text>
</g>
</g>
</svg>
