<?xml version="1.0" encoding="UTF-8" standalone="no"?>
<!DOCTYPE svg PUBLIC "-//W3C//DTD SVG 1.1//EN"
 "http://www.w3.org/Graphics/SVG/1.1/DTD/svg11.dtd">
<!-- Generated by graphviz version 2.42.3 (20191010.1750)
 -->
<!-- Title: %3 Pages: 1 -->
<svg width="2609pt" height="332pt"
 viewBox="0.00 0.00 2608.59 332.00" xmlns="http://www.w3.org/2000/svg" xmlns:xlink="http://www.w3.org/1999/xlink">
<g id="graph0" class="graph" transform="scale(1 1) rotate(0) translate(4 328)">
<title>%3</title>
<polygon fill="white" stroke="transparent" points="-4,4 -4,-328 2604.59,-328 2604.59,4 -4,4"/>
<!-- cdat&#45;lite -->
<g id="node1" class="node">
<title>cdat&#45;lite</title>
<ellipse fill="#31688e" stroke="black" cx="102.3" cy="-306" rx="54.69" ry="18"/>
<text text-anchor="middle" x="102.3" y="-302.3" font-family="Times,serif" font-size="14.00" fill="white">cdat lite</text>
</g>
<!-- cdms2 -->
<g id="node2" class="node">
<title>cdms2</title>
<ellipse fill="#fde725" stroke="black" cx="203.3" cy="-18" rx="35.19" ry="18"/>
<text text-anchor="middle" x="203.3" y="-14.3" font-family="Times,serif" font-size="14.00">cdms2</text>
</g>
<!-- cdo -->
<g id="node3" class="node">
<title>cdo</title>
<ellipse fill="#fde725" stroke="black" cx="609.3" cy="-234" rx="27" ry="18"/>
<text text-anchor="middle" x="609.3" y="-230.3" font-family="Times,serif" font-size="14.00">cdo</text>
</g>
<!-- cdtime -->
<g id="node4" class="node">
<title>cdtime</title>
<ellipse fill="#fde725" stroke="black" cx="40.3" cy="-90" rx="40.09" ry="18"/>
<text text-anchor="middle" x="40.3" y="-86.3" font-family="Times,serif" font-size="14.00">cdtime</text>
</g>
<!-- cdtime&#45;&gt;cdms2 -->
<g id="edge1" class="edge">
<title>cdtime&#45;&gt;cdms2</title>
<path fill="none" stroke="black" d="M68.32,-76.97C95.91,-65.11 138.16,-46.97 168.03,-34.15"/>
<polygon fill="black" stroke="black" points="169.45,-37.35 177.25,-30.18 166.68,-30.91 169.45,-37.35"/>
</g>
<!-- eccodes -->
<g id="node5" class="node">
<title>eccodes</title>
<ellipse fill="#31688e" stroke="black" cx="728.3" cy="-306" rx="44.69" ry="18"/>
<text text-anchor="middle" x="728.3" y="-302.3" font-family="Times,serif" font-size="14.00" fill="white">eccodes</text>
</g>
<!-- eccodes&#45;&gt;cdo -->
<g id="edge2" class="edge">
<title>eccodes&#45;&gt;cdo</title>
<path fill="none" stroke="black" d="M703.93,-290.67C684.7,-279.36 657.86,-263.57 637.67,-251.69"/>
<polygon fill="black" stroke="black" points="639.31,-248.59 628.91,-246.54 635.76,-254.63 639.31,-248.59"/>
</g>
<!-- magics -->
<g id="node13" class="node">
<title>magics</title>
<ellipse fill="#fde725" stroke="black" cx="694.3" cy="-234" rx="40.09" ry="18"/>
<text text-anchor="middle" x="694.3" y="-230.3" font-family="Times,serif" font-size="14.00">magics</text>
</g>
<!-- eccodes&#45;&gt;magics -->
<g id="edge3" class="edge">
<title>eccodes&#45;&gt;magics</title>
<path fill="none" stroke="black" d="M720.07,-288.05C716.1,-279.89 711.25,-269.91 706.84,-260.82"/>
<polygon fill="black" stroke="black" points="709.97,-259.25 702.45,-251.79 703.67,-262.31 709.97,-259.25"/>
</g>
<!-- metview -->
<g id="node31" class="node">
<title>metview</title>
<ellipse fill="#fde725" stroke="black" cx="728.3" cy="-162" rx="44.69" ry="18"/>
<text text-anchor="middle" x="728.3" y="-158.3" font-family="Times,serif" font-size="14.00">metview</text>
</g>
<!-- eccodes&#45;&gt;metview -->
<g id="edge5" class="edge">
<title>eccodes&#45;&gt;metview</title>
<path fill="none" stroke="black" d="M734.38,-288.07C737.75,-277.79 741.59,-264.31 743.3,-252 745.5,-236.15 745.5,-231.85 743.3,-216 742.08,-207.25 739.79,-197.9 737.35,-189.54"/>
<polygon fill="black" stroke="black" points="740.68,-188.45 734.38,-179.93 733.99,-190.52 740.68,-188.45"/>
</g>
<!-- magics&#45;metview -->
<g id="node37" class="node">
<title>magics&#45;metview</title>
<ellipse fill="#fde725" stroke="black" cx="869.3" cy="-234" rx="79.09" ry="18"/>
<text text-anchor="middle" x="869.3" y="-230.3" font-family="Times,serif" font-size="14.00">magics metview</text>
</g>
<!-- eccodes&#45;&gt;magics&#45;metview -->
<g id="edge4" class="edge">
<title>eccodes&#45;&gt;magics&#45;metview</title>
<path fill="none" stroke="black" d="M755.48,-291.5C776.25,-281.19 805.21,-266.81 828.72,-255.14"/>
<polygon fill="black" stroke="black" points="830.36,-258.24 837.76,-250.65 827.25,-251.97 830.36,-258.24"/>
</g>
<!-- ecmwf_grib -->
<g id="node6" class="node">
<title>ecmwf_grib</title>
<ellipse fill="#31688e" stroke="black" cx="1060.3" cy="-306" rx="59.59" ry="18"/>
<text text-anchor="middle" x="1060.3" y="-302.3" font-family="Times,serif" font-size="14.00" fill="white">ecmwf_grib</text>
</g>
<!-- python&#45;ecmwf_grib -->
<g id="node22" class="node">
<title>python&#45;ecmwf_grib</title>
<ellipse fill="#fde725" stroke="black" cx="1060.3" cy="-234" rx="93.68" ry="18"/>
<text text-anchor="middle" x="1060.3" y="-230.3" font-family="Times,serif" font-size="14.00">python ecmwf_grib</text>
</g>
<!-- ecmwf_grib&#45;&gt;python&#45;ecmwf_grib -->
<g id="edge6" class="edge">
<title>ecmwf_grib&#45;&gt;python&#45;ecmwf_grib</title>
<path fill="none" stroke="black" d="M1060.3,-287.7C1060.3,-279.98 1060.3,-270.71 1060.3,-262.11"/>
<polygon fill="black" stroke="black" points="1063.8,-262.1 1060.3,-252.1 1056.8,-262.1 1063.8,-262.1"/>
</g>
<!-- esmf -->
<g id="node7" class="node">
<title>esmf</title>
<ellipse fill="#fde725" stroke="black" cx="331.3" cy="-90" rx="30.59" ry="18"/>
<text text-anchor="middle" x="331.3" y="-86.3" font-family="Times,serif" font-size="14.00">esmf</text>
</g>
<!-- esmf&#45;&gt;cdms2 -->
<g id="edge7" class="edge">
<title>esmf&#45;&gt;cdms2</title>
<path fill="none" stroke="black" d="M309.58,-77.13C289.18,-65.97 258.4,-49.14 235.21,-36.45"/>
<polygon fill="black" stroke="black" points="236.87,-33.37 226.42,-31.64 233.51,-39.51 236.87,-33.37"/>
</g>
<!-- ncl -->
<g id="node14" class="node">
<title>ncl</title>
<ellipse fill="#fde725" stroke="black" cx="331.3" cy="-18" rx="27" ry="18"/>
<text text-anchor="middle" x="331.3" y="-14.3" font-family="Times,serif" font-size="14.00">ncl</text>
</g>
<!-- esmf&#45;&gt;ncl -->
<g id="edge8" class="edge">
<title>esmf&#45;&gt;ncl</title>
<path fill="none" stroke="black" d="M331.3,-71.7C331.3,-63.98 331.3,-54.71 331.3,-46.11"/>
<polygon fill="black" stroke="black" points="334.8,-46.1 331.3,-36.1 327.8,-46.1 334.8,-46.1"/>
</g>
<!-- nco -->
<g id="node15" class="node">
<title>nco</title>
<ellipse fill="#fde725" stroke="black" cx="487.3" cy="-18" rx="27" ry="18"/>
<text text-anchor="middle" x="487.3" y="-14.3" font-family="Times,serif" font-size="14.00">nco</text>
</g>
<!-- esmf&#45;&gt;nco -->
<g id="edge9" class="edge">
<title>esmf&#45;&gt;nco</title>
<path fill="none" stroke="black" d="M354.99,-78.37C382.06,-66.22 426.46,-46.3 456.27,-32.92"/>
<polygon fill="black" stroke="black" points="457.71,-36.11 465.4,-28.83 454.84,-29.73 457.71,-36.11"/>
</g>
<!-- gmt -->
<g id="node8" class="node">
<title>gmt</title>
<ellipse fill="#31688e" stroke="black" cx="1165.3" cy="-306" rx="27" ry="18"/>
<text text-anchor="middle" x="1165.3" y="-302.3" font-family="Times,serif" font-size="14.00" fill="white">gmt</text>
</g>
<!-- libcdms -->
<g id="node9" class="node">
<title>libcdms</title>
<ellipse fill="#fde725" stroke="black" cx="159.3" cy="-234" rx="44.69" ry="18"/>
<text text-anchor="middle" x="159.3" y="-230.3" font-family="Times,serif" font-size="14.00">libcdms</text>
</g>
<!-- libcdms&#45;&gt;cdms2 -->
<g id="edge10" class="edge">
<title>libcdms&#45;&gt;cdms2</title>
<path fill="none" stroke="black" d="M169.49,-216.39C183.1,-193.16 206.5,-149.16 215.3,-108 219.74,-87.23 216.05,-63.35 211.63,-45.56"/>
<polygon fill="black" stroke="black" points="215,-44.6 209,-35.86 208.24,-46.43 215,-44.6"/>
</g>
<!-- libcdms&#45;&gt;cdtime -->
<g id="edge11" class="edge">
<title>libcdms&#45;&gt;cdtime</title>
<path fill="none" stroke="black" d="M123.62,-222.68C101.82,-214.55 75.17,-201.01 59.3,-180 45.94,-162.32 41.52,-137.3 40.25,-118.29"/>
<polygon fill="black" stroke="black" points="43.74,-118 39.82,-108.16 36.74,-118.29 43.74,-118"/>
</g>
<!-- libdrs_f -->
<g id="node12" class="node">
<title>libdrs_f</title>
<ellipse fill="#fde725" stroke="black" cx="118.3" cy="-162" rx="50.09" ry="18"/>
<text text-anchor="middle" x="118.3" y="-158.3" font-family="Times,serif" font-size="14.00">libdrs_f</text>
</g>
<!-- libcdms&#45;&gt;libdrs_f -->
<g id="edge12" class="edge">
<title>libcdms&#45;&gt;libdrs_f</title>
<path fill="none" stroke="black" d="M149.58,-216.41C144.75,-208.16 138.8,-198.01 133.39,-188.78"/>
<polygon fill="black" stroke="black" points="136.3,-186.82 128.23,-179.96 130.26,-190.35 136.3,-186.82"/>
</g>
<!-- libcf -->
<g id="node10" class="node">
<title>libcf</title>
<ellipse fill="#31688e" stroke="black" cx="171.3" cy="-90" rx="35.19" ry="18"/>
<text text-anchor="middle" x="171.3" y="-86.3" font-family="Times,serif" font-size="14.00" fill="white">libcf</text>
</g>
<!-- libcf&#45;&gt;cdms2 -->
<g id="edge13" class="edge">
<title>libcf&#45;&gt;cdms2</title>
<path fill="none" stroke="black" d="M178.88,-72.41C182.61,-64.25 187.2,-54.22 191.38,-45.07"/>
<polygon fill="black" stroke="black" points="194.57,-46.51 195.55,-35.96 188.2,-43.6 194.57,-46.51"/>
</g>
<!-- libdrs -->
<g id="node11" class="node">
<title>libdrs</title>
<ellipse fill="#31688e" stroke="black" cx="215.3" cy="-306" rx="40.09" ry="18"/>
<text text-anchor="middle" x="215.3" y="-302.3" font-family="Times,serif" font-size="14.00" fill="white">libdrs</text>
</g>
<!-- libdrs&#45;&gt;cdms2 -->
<g id="edge14" class="edge">
<title>libdrs&#45;&gt;cdms2</title>
<path fill="none" stroke="black" d="M219.98,-288.02C229.96,-249.14 250.86,-150.91 231.3,-72 228.91,-62.36 224.4,-52.54 219.7,-44.01"/>
<polygon fill="black" stroke="black" points="222.69,-42.18 214.6,-35.34 216.65,-45.73 222.69,-42.18"/>
</g>
<!-- libdrs&#45;&gt;libcdms -->
<g id="edge15" class="edge">
<title>libdrs&#45;&gt;libcdms</title>
<path fill="none" stroke="black" d="M202.31,-288.76C195.41,-280.14 186.79,-269.36 179.08,-259.73"/>
<polygon fill="black" stroke="black" points="181.58,-257.26 172.6,-251.63 176.12,-261.63 181.58,-257.26"/>
</g>
<!-- libdrs_f&#45;&gt;cdms2 -->
<g id="edge16" class="edge">
<title>libdrs_f&#45;&gt;cdms2</title>
<path fill="none" stroke="black" d="M116.01,-143.98C114.33,-125.05 114.23,-94.23 127.3,-72 136.61,-56.15 152.75,-43.89 167.77,-35.17"/>
<polygon fill="black" stroke="black" points="169.8,-38.06 176.91,-30.2 166.45,-31.91 169.8,-38.06"/>
</g>
<!-- libdrs_f&#45;&gt;cdtime -->
<g id="edge17" class="edge">
<title>libdrs_f&#45;&gt;cdtime</title>
<path fill="none" stroke="black" d="M100.6,-145.12C90.08,-135.68 76.58,-123.56 65.02,-113.19"/>
<polygon fill="black" stroke="black" points="67.17,-110.41 57.39,-106.34 62.49,-115.62 67.17,-110.41"/>
</g>
<!-- magics&#45;&gt;metview -->
<g id="edge18" class="edge">
<title>magics&#45;&gt;metview</title>
<path fill="none" stroke="black" d="M702.53,-216.05C706.49,-207.89 711.34,-197.91 715.75,-188.82"/>
<polygon fill="black" stroke="black" points="718.92,-190.31 720.14,-179.79 712.62,-187.25 718.92,-190.31"/>
</g>
<!-- netcdf&#45;cxx4 -->
<g id="node16" class="node">
<title>netcdf&#45;cxx4</title>
<ellipse fill="#31688e" stroke="black" cx="1274.3" cy="-306" rx="64.19" ry="18"/>
<text text-anchor="middle" x="1274.3" y="-302.3" font-family="Times,serif" font-size="14.00" fill="white">netcdf cxx4</text>
</g>
<!-- netcdf&#45;fortran -->
<g id="node17" class="node">
<title>netcdf&#45;fortran</title>
<ellipse fill="#31688e" stroke="black" cx="380.3" cy="-162" rx="79.09" ry="18"/>
<text text-anchor="middle" x="380.3" y="-158.3" font-family="Times,serif" font-size="14.00" fill="white">netcdf fortran</text>
</g>
<!-- netcdf&#45;fortran&#45;&gt;esmf -->
<g id="edge19" class="edge">
<title>netcdf&#45;fortran&#45;&gt;esmf</title>
<path fill="none" stroke="black" d="M368.43,-144.05C362.36,-135.38 354.86,-124.67 348.2,-115.15"/>
<polygon fill="black" stroke="black" points="350.98,-113.01 342.38,-106.83 345.24,-117.03 350.98,-113.01"/>
</g>
<!-- pyferret -->
<g id="node20" class="node">
<title>pyferret</title>
<ellipse fill="#fde725" stroke="black" cx="430.3" cy="-90" rx="50.09" ry="18"/>
<text text-anchor="middle" x="430.3" y="-86.3" font-family="Times,serif" font-size="14.00">pyferret</text>
</g>
<!-- netcdf&#45;fortran&#45;&gt;pyferret -->
<g id="edge20" class="edge">
<title>netcdf&#45;fortran&#45;&gt;pyferret</title>
<path fill="none" stroke="black" d="M392.4,-144.05C398.42,-135.63 405.81,-125.28 412.46,-115.97"/>
<polygon fill="black" stroke="black" points="415.34,-117.96 418.3,-107.79 409.64,-113.89 415.34,-117.96"/>
</g>
<!-- netcdf4 -->
<g id="node18" class="node">
<title>netcdf4</title>
<ellipse fill="#31688e" stroke="black" cx="1401.3" cy="-306" rx="44.69" ry="18"/>
<text text-anchor="middle" x="1401.3" y="-302.3" font-family="Times,serif" font-size="14.00" fill="white">netcdf4</text>
</g>
<!-- cmor -->
<g id="node29" class="node">
<title>cmor</title>
<ellipse fill="#fde725" stroke="black" cx="1347.3" cy="-234" rx="30.59" ry="18"/>
<text text-anchor="middle" x="1347.3" y="-230.3" font-family="Times,serif" font-size="14.00">cmor</text>
</g>
<!-- netcdf4&#45;&gt;cmor -->
<g id="edge21" class="edge">
<title>netcdf4&#45;&gt;cmor</title>
<path fill="none" stroke="black" d="M1388.5,-288.41C1381.74,-279.66 1373.33,-268.75 1365.87,-259.08"/>
<polygon fill="black" stroke="black" points="1368.51,-256.77 1359.63,-250.99 1362.97,-261.04 1368.51,-256.77"/>
</g>
<!-- mpas_tools -->
<g id="node32" class="node">
<title>mpas_tools</title>
<ellipse fill="#fde725" stroke="black" cx="1455.3" cy="-234" rx="59.59" ry="18"/>
<text text-anchor="middle" x="1455.3" y="-230.3" font-family="Times,serif" font-size="14.00">mpas_tools</text>
</g>
<!-- netcdf4&#45;&gt;mpas_tools -->
<g id="edge22" class="edge">
<title>netcdf4&#45;&gt;mpas_tools</title>
<path fill="none" stroke="black" d="M1414.09,-288.41C1420.65,-279.91 1428.78,-269.37 1436.08,-259.91"/>
<polygon fill="black" stroke="black" points="1438.88,-262.01 1442.22,-251.96 1433.34,-257.74 1438.88,-262.01"/>
</g>
<!-- paraview -->
<g id="node19" class="node">
<title>paraview</title>
<ellipse fill="#31688e" stroke="black" cx="1514.3" cy="-306" rx="50.09" ry="18"/>
<text text-anchor="middle" x="1514.3" y="-302.3" font-family="Times,serif" font-size="14.00" fill="white">paraview</text>
</g>
<!-- pynio -->
<g id="node21" class="node">
<title>pynio</title>
<ellipse fill="#31688e" stroke="black" cx="1617.3" cy="-306" rx="35.19" ry="18"/>
<text text-anchor="middle" x="1617.3" y="-302.3" font-family="Times,serif" font-size="14.00" fill="white">pynio</text>
</g>
<!-- r&#45;ncdf4 -->
<g id="node23" class="node">
<title>r&#45;ncdf4</title>
<ellipse fill="#31688e" stroke="black" cx="1715.3" cy="-306" rx="44.69" ry="18"/>
<text text-anchor="middle" x="1715.3" y="-302.3" font-family="Times,serif" font-size="14.00" fill="white">r ncdf4</text>
</g>
<!-- r&#45;rnetcdf -->
<g id="node24" class="node">
<title>r&#45;rnetcdf</title>
<ellipse fill="#31688e" stroke="black" cx="1832.3" cy="-306" rx="54.69" ry="18"/>
<text text-anchor="middle" x="1832.3" y="-302.3" font-family="Times,serif" font-size="14.00" fill="white">r rnetcdf</text>
</g>
<!-- wgrib2 -->
<g id="node25" class="node">
<title>wgrib2</title>
<ellipse fill="#31688e" stroke="black" cx="1945.3" cy="-306" rx="40.09" ry="18"/>
<text text-anchor="middle" x="1945.3" y="-302.3" font-family="Times,serif" font-size="14.00" fill="white">wgrib2</text>
</g>
<!-- vic -->
<g id="node26" class="node">
<title>vic</title>
<ellipse fill="#31688e" stroke="black" cx="2030.3" cy="-306" rx="27" ry="18"/>
<text text-anchor="middle" x="2030.3" y="-302.3" font-family="Times,serif" font-size="14.00" fill="white">vic</text>
</g>
<!-- vtk -->
<g id="node27" class="node">
<title>vtk</title>
<ellipse fill="#31688e" stroke="black" cx="2102.3" cy="-306" rx="27" ry="18"/>
<text text-anchor="middle" x="2102.3" y="-302.3" font-family="Times,serif" font-size="14.00" fill="white">vtk</text>
</g>
<!-- vmd&#45;python -->
<g id="node28" class="node">
<title>vmd&#45;python</title>
<ellipse fill="#31688e" stroke="black" cx="2207.3" cy="-306" rx="59.59" ry="18"/>
<text text-anchor="middle" x="2207.3" y="-302.3" font-family="Times,serif" font-size="14.00" fill="white">vmd python</text>
</g>
<!-- tempest&#45;remap -->
<g id="node30" class="node">
<title>tempest&#45;remap</title>
<ellipse fill="#fde725" stroke="black" cx="572.3" cy="-90" rx="74.19" ry="18"/>
<text text-anchor="middle" x="572.3" y="-86.3" font-family="Times,serif" font-size="14.00">tempest remap</text>
</g>
<!-- tempest&#45;remap&#45;&gt;nco -->
<g id="edge23" class="edge">
<title>tempest&#45;remap&#45;&gt;nco</title>
<path fill="none" stroke="black" d="M552.15,-72.41C539.99,-62.4 524.41,-49.57 511.57,-38.99"/>
<polygon fill="black" stroke="black" points="513.54,-36.08 503.6,-32.42 509.09,-41.48 513.54,-36.08"/>
</g>
<!-- fpocket -->
<g id="node33" class="node">
<title>fpocket</title>
<ellipse fill="#31688e" stroke="black" cx="2330.3" cy="-306" rx="44.69" ry="18"/>
<text text-anchor="middle" x="2330.3" y="-302.3" font-family="Times,serif" font-size="14.00" fill="white">fpocket</text>
</g>
<!-- sphinxdft -->
<g id="node34" class="node">
<title>sphinxdft</title>
<ellipse fill="#31688e" stroke="black" cx="2447.3" cy="-306" rx="54.69" ry="18"/>
<text text-anchor="middle" x="2447.3" y="-302.3" font-family="Times,serif" font-size="14.00" fill="white">sphinxdft</text>
</g>
<!-- ncview -->
<g id="node35" class="node">
<title>ncview</title>
<ellipse fill="#31688e" stroke="black" cx="2560.3" cy="-306" rx="40.09" ry="18"/>
<text text-anchor="middle" x="2560.3" y="-302.3" font-family="Times,serif" font-size="14.00" fill="white">ncview</text>
</g>
<!-- netcdf&#45;cxx&#45;legacy -->
<g id="node36" class="node">
<title>netcdf&#45;cxx&#45;legacy</title>
<ellipse fill="#31688e" stroke="black" cx="572.3" cy="-162" rx="93.68" ry="18"/>
<text text-anchor="middle" x="572.3" y="-158.3" font-family="Times,serif" font-size="14.00" fill="white">netcdf cxx legacy</text>
</g>
<!-- netcdf&#45;cxx&#45;legacy&#45;&gt;tempest&#45;remap -->
<g id="edge24" class="edge">
<title>netcdf&#45;cxx&#45;legacy&#45;&gt;tempest&#45;remap</title>
<path fill="none" stroke="black" d="M572.3,-143.7C572.3,-135.98 572.3,-126.71 572.3,-118.11"/>
<polygon fill="black" stroke="black" points="575.8,-118.1 572.3,-108.1 568.8,-118.1 575.8,-118.1"/>
</g>
</g>
</svg>
