<?xml version="1.0" encoding="UTF-8" standalone="no"?>
<!DOCTYPE svg PUBLIC "-//W3C//DTD SVG 1.1//EN"
 "http://www.w3.org/Graphics/SVG/1.1/DTD/svg11.dtd">
<!-- Generated by graphviz version 2.40.1 (20161225.0304)
 -->
<!-- Title: %3 Pages: 1 -->
<svg width="1401pt" height="188pt"
 viewBox="0.00 0.00 1401.39 188.00" xmlns="http://www.w3.org/2000/svg" xmlns:xlink="http://www.w3.org/1999/xlink">
<g id="graph0" class="graph" transform="scale(1 1) rotate(0) translate(4 184)">
<title>%3</title>
<polygon fill="#ffffff" stroke="transparent" points="-4,4 -4,-184 1397.3899,-184 1397.3899,4 -4,4"/>
<!-- cdat&#45;lite -->
<g id="node1" class="node">
<title>cdat&#45;lite</title>
<ellipse fill="#31688e" stroke="#000000" cx="54.5952" cy="-162" rx="54.6905" ry="18"/>
<text text-anchor="middle" x="54.5952" y="-158.3" font-family="Times,serif" font-size="14.00" fill="#ffffff">cdat lite</text>
</g>
<!-- cdms2 -->
<g id="node2" class="node">
<title>cdms2</title>
<ellipse fill="#fde725" stroke="#000000" cx="203.5952" cy="-18" rx="35.194" ry="18"/>
<text text-anchor="middle" x="203.5952" y="-14.3" font-family="Times,serif" font-size="14.00" fill="#000000">cdms2</text>
</g>
<!-- esmf -->
<g id="node3" class="node">
<title>esmf</title>
<ellipse fill="#31688e" stroke="#000000" cx="296.5952" cy="-90" rx="30.5947" ry="18"/>
<text text-anchor="middle" x="296.5952" y="-86.3" font-family="Times,serif" font-size="14.00" fill="#ffffff">esmf</text>
</g>
<!-- esmf&#45;&gt;cdms2 -->
<g id="edge1" class="edge">
<title>esmf&#45;&gt;cdms2</title>
<path fill="none" stroke="#000000" d="M277.7752,-75.4297C264.3404,-65.0286 246.0587,-50.875 231.0062,-39.2215"/>
<polygon fill="#000000" stroke="#000000" points="233.0772,-36.3985 223.0273,-33.0442 228.7919,-41.9336 233.0772,-36.3985"/>
</g>
<!-- ncl -->
<g id="node9" class="node">
<title>ncl</title>
<ellipse fill="#fde725" stroke="#000000" cx="289.5952" cy="-18" rx="27" ry="18"/>
<text text-anchor="middle" x="289.5952" y="-14.3" font-family="Times,serif" font-size="14.00" fill="#000000">ncl</text>
</g>
<!-- esmf&#45;&gt;ncl -->
<g id="edge2" class="edge">
<title>esmf&#45;&gt;ncl</title>
<path fill="none" stroke="#000000" d="M294.8288,-71.8314C294.0801,-64.131 293.1899,-54.9743 292.3579,-46.4166"/>
<polygon fill="#000000" stroke="#000000" points="295.8367,-46.0276 291.3853,-36.4133 288.8695,-46.7051 295.8367,-46.0276"/>
</g>
<!-- nco -->
<g id="node10" class="node">
<title>nco</title>
<ellipse fill="#fde725" stroke="#000000" cx="361.5952" cy="-18" rx="27" ry="18"/>
<text text-anchor="middle" x="361.5952" y="-14.3" font-family="Times,serif" font-size="14.00" fill="#000000">nco</text>
</g>
<!-- esmf&#45;&gt;nco -->
<g id="edge3" class="edge">
<title>esmf&#45;&gt;nco</title>
<path fill="none" stroke="#000000" d="M311.0208,-74.0209C319.8089,-64.2863 331.1824,-51.688 340.9174,-40.9046"/>
<polygon fill="#000000" stroke="#000000" points="343.5529,-43.2084 347.656,-33.4403 338.357,-38.5176 343.5529,-43.2084"/>
</g>
<!-- gdal -->
<g id="node4" class="node">
<title>gdal</title>
<ellipse fill="#31688e" stroke="#000000" cx="372.5952" cy="-162" rx="30.5947" ry="18"/>
<text text-anchor="middle" x="372.5952" y="-158.3" font-family="Times,serif" font-size="14.00" fill="#ffffff">gdal</text>
</g>
<!-- gmt -->
<g id="node5" class="node">
<title>gmt</title>
<ellipse fill="#fde725" stroke="#000000" cx="372.5952" cy="-90" rx="27" ry="18"/>
<text text-anchor="middle" x="372.5952" y="-86.3" font-family="Times,serif" font-size="14.00" fill="#000000">gmt</text>
</g>
<!-- gdal&#45;&gt;gmt -->
<g id="edge4" class="edge">
<title>gdal&#45;&gt;gmt</title>
<path fill="none" stroke="#000000" d="M372.5952,-143.8314C372.5952,-136.131 372.5952,-126.9743 372.5952,-118.4166"/>
<polygon fill="#000000" stroke="#000000" points="376.0953,-118.4132 372.5952,-108.4133 369.0953,-118.4133 376.0953,-118.4132"/>
</g>
<!-- libcdms -->
<g id="node6" class="node">
<title>libcdms</title>
<ellipse fill="#fde725" stroke="#000000" cx="203.5952" cy="-90" rx="44.6926" ry="18"/>
<text text-anchor="middle" x="203.5952" y="-86.3" font-family="Times,serif" font-size="14.00" fill="#000000">libcdms</text>
</g>
<!-- libcdms&#45;&gt;cdms2 -->
<g id="edge5" class="edge">
<title>libcdms&#45;&gt;cdms2</title>
<path fill="none" stroke="#000000" d="M203.5952,-71.8314C203.5952,-64.131 203.5952,-54.9743 203.5952,-46.4166"/>
<polygon fill="#000000" stroke="#000000" points="207.0953,-46.4132 203.5952,-36.4133 200.0953,-46.4133 207.0953,-46.4132"/>
</g>
<!-- libdrs -->
<g id="node7" class="node">
<title>libdrs</title>
<ellipse fill="#31688e" stroke="#000000" cx="167.5952" cy="-162" rx="40.0939" ry="18"/>
<text text-anchor="middle" x="167.5952" y="-158.3" font-family="Times,serif" font-size="14.00" fill="#ffffff">libdrs</text>
</g>
<!-- libdrs&#45;&gt;cdms2 -->
<g id="edge6" class="edge">
<title>libdrs&#45;&gt;cdms2</title>
<path fill="none" stroke="#000000" d="M158.1011,-144.1544C149.5488,-125.5546 139.7166,-95.8488 149.5952,-72 154.8397,-59.3385 164.653,-48.0979 174.4904,-39.195"/>
<polygon fill="#000000" stroke="#000000" points="176.9351,-41.711 182.2982,-32.5738 172.4076,-36.3722 176.9351,-41.711"/>
</g>
<!-- libdrs&#45;&gt;libcdms -->
<g id="edge7" class="edge">
<title>libdrs&#45;&gt;libcdms</title>
<path fill="none" stroke="#000000" d="M176.494,-144.2022C180.6047,-135.981 185.5746,-126.041 190.1301,-116.9301"/>
<polygon fill="#000000" stroke="#000000" points="193.3322,-118.3521 194.6739,-107.8425 187.0712,-115.2216 193.3322,-118.3521"/>
</g>
<!-- magics -->
<g id="node8" class="node">
<title>magics</title>
<ellipse fill="#31688e" stroke="#000000" cx="462.5952" cy="-162" rx="40.0939" ry="18"/>
<text text-anchor="middle" x="462.5952" y="-158.3" font-family="Times,serif" font-size="14.00" fill="#ffffff">magics</text>
</g>
<!-- metview -->
<g id="node18" class="node">
<title>metview</title>
<ellipse fill="#fde725" stroke="#000000" cx="462.5952" cy="-90" rx="44.6926" ry="18"/>
<text text-anchor="middle" x="462.5952" y="-86.3" font-family="Times,serif" font-size="14.00" fill="#000000">metview</text>
</g>
<!-- magics&#45;&gt;metview -->
<g id="edge8" class="edge">
<title>magics&#45;&gt;metview</title>
<path fill="none" stroke="#000000" d="M462.5952,-143.8314C462.5952,-136.131 462.5952,-126.9743 462.5952,-118.4166"/>
<polygon fill="#000000" stroke="#000000" points="466.0953,-118.4132 462.5952,-108.4133 459.0953,-118.4133 466.0953,-118.4132"/>
</g>
<!-- paraview -->
<g id="node11" class="node">
<title>paraview</title>
<ellipse fill="#31688e" stroke="#000000" cx="570.5952" cy="-162" rx="50.0912" ry="18"/>
<text text-anchor="middle" x="570.5952" y="-158.3" font-family="Times,serif" font-size="14.00" fill="#ffffff">paraview</text>
</g>
<!-- pyferret -->
<g id="node12" class="node">
<title>pyferret</title>
<ellipse fill="#31688e" stroke="#000000" cx="688.5952" cy="-162" rx="50.0912" ry="18"/>
<text text-anchor="middle" x="688.5952" y="-158.3" font-family="Times,serif" font-size="14.00" fill="#ffffff">pyferret</text>
</g>
<!-- pynio -->
<g id="node13" class="node">
<title>pynio</title>
<ellipse fill="#31688e" stroke="#000000" cx="791.5952" cy="-162" rx="35.194" ry="18"/>
<text text-anchor="middle" x="791.5952" y="-158.3" font-family="Times,serif" font-size="14.00" fill="#ffffff">pynio</text>
</g>
<!-- python&#45;ecmwf_grib -->
<g id="node14" class="node">
<title>python&#45;ecmwf_grib</title>
<ellipse fill="#31688e" stroke="#000000" cx="938.5952" cy="-162" rx="93.6835" ry="18"/>
<text text-anchor="middle" x="938.5952" y="-158.3" font-family="Times,serif" font-size="14.00" fill="#ffffff">python ecmwf_grib</text>
</g>
<!-- vic -->
<g id="node15" class="node">
<title>vic</title>
<ellipse fill="#31688e" stroke="#000000" cx="1077.5952" cy="-162" rx="27" ry="18"/>
<text text-anchor="middle" x="1077.5952" y="-158.3" font-family="Times,serif" font-size="14.00" fill="#ffffff">vic</text>
</g>
<!-- vtk -->
<g id="node16" class="node">
<title>vtk</title>
<ellipse fill="#31688e" stroke="#000000" cx="1149.5952" cy="-162" rx="27" ry="18"/>
<text text-anchor="middle" x="1149.5952" y="-158.3" font-family="Times,serif" font-size="14.00" fill="#ffffff">vtk</text>
</g>
<!-- cmor -->
<g id="node17" class="node">
<title>cmor</title>
<ellipse fill="#31688e" stroke="#000000" cx="1225.5952" cy="-162" rx="30.5947" ry="18"/>
<text text-anchor="middle" x="1225.5952" y="-158.3" font-family="Times,serif" font-size="14.00" fill="#ffffff">cmor</text>
</g>
<!-- mpas_tools -->
<g id="node19" class="node">
<title>mpas_tools</title>
<ellipse fill="#31688e" stroke="#000000" cx="1333.5952" cy="-162" rx="59.5901" ry="18"/>
<text text-anchor="middle" x="1333.5952" y="-158.3" font-family="Times,serif" font-size="14.00" fill="#ffffff">mpas_tools</text>
</g>
</g>
</svg>
