<?xml version="1.0" encoding="UTF-8" standalone="no"?>
<!DOCTYPE svg PUBLIC "-//W3C//DTD SVG 1.1//EN"
 "http://www.w3.org/Graphics/SVG/1.1/DTD/svg11.dtd">
<!-- Generated by graphviz version 2.42.3 (20191010.1750)
 -->
<!-- Title: %3 Pages: 1 -->
<svg width="782pt" height="116pt"
 viewBox="0.00 0.00 782.29 116.00" xmlns="http://www.w3.org/2000/svg" xmlns:xlink="http://www.w3.org/1999/xlink">
<g id="graph0" class="graph" transform="scale(1 1) rotate(0) translate(4 112)">
<title>%3</title>
<polygon fill="white" stroke="transparent" points="-4,4 -4,-112 778.29,-112 778.29,4 -4,4"/>
<!-- cdo -->
<g id="node1" class="node">
<title>cdo</title>
<ellipse fill="#31688e" stroke="black" cx="27" cy="-90" rx="27" ry="18"/>
<text text-anchor="middle" x="27" y="-86.3" font-family="Times,serif" font-size="14.00" fill="white">cdo</text>
</g>
<!-- ecmwf_grib -->
<g id="node2" class="node">
<title>ecmwf_grib</title>
<ellipse fill="#31688e" stroke="black" cx="132" cy="-90" rx="59.59" ry="18"/>
<text text-anchor="middle" x="132" y="-86.3" font-family="Times,serif" font-size="14.00" fill="white">ecmwf_grib</text>
</g>
<!-- python&#45;ecmwf_grib -->
<g id="node5" class="node">
<title>python&#45;ecmwf_grib</title>
<ellipse fill="#fde725" stroke="black" cx="132" cy="-18" rx="93.68" ry="18"/>
<text text-anchor="middle" x="132" y="-14.3" font-family="Times,serif" font-size="14.00">python ecmwf_grib</text>
</g>
<!-- ecmwf_grib&#45;&gt;python&#45;ecmwf_grib -->
<g id="edge1" class="edge">
<title>ecmwf_grib&#45;&gt;python&#45;ecmwf_grib</title>
<path fill="none" stroke="black" d="M132,-71.7C132,-63.98 132,-54.71 132,-46.11"/>
<polygon fill="black" stroke="black" points="135.5,-46.1 132,-36.1 128.5,-46.1 135.5,-46.1"/>
</g>
<!-- magics -->
<g id="node3" class="node">
<title>magics</title>
<ellipse fill="#31688e" stroke="black" cx="288" cy="-90" rx="40.09" ry="18"/>
<text text-anchor="middle" x="288" y="-86.3" font-family="Times,serif" font-size="14.00" fill="white">magics</text>
</g>
<!-- metview -->
<g id="node8" class="node">
<title>metview</title>
<ellipse fill="#fde725" stroke="black" cx="288" cy="-18" rx="44.69" ry="18"/>
<text text-anchor="middle" x="288" y="-14.3" font-family="Times,serif" font-size="14.00">metview</text>
</g>
<!-- magics&#45;&gt;metview -->
<g id="edge2" class="edge">
<title>magics&#45;&gt;metview</title>
<path fill="none" stroke="black" d="M288,-71.7C288,-63.98 288,-54.71 288,-46.11"/>
<polygon fill="black" stroke="black" points="291.5,-46.1 288,-36.1 284.5,-46.1 291.5,-46.1"/>
</g>
<!-- paraview -->
<g id="node4" class="node">
<title>paraview</title>
<ellipse fill="#31688e" stroke="black" cx="396" cy="-90" rx="50.09" ry="18"/>
<text text-anchor="middle" x="396" y="-86.3" font-family="Times,serif" font-size="14.00" fill="white">paraview</text>
</g>
<!-- vic -->
<g id="node6" class="node">
<title>vic</title>
<ellipse fill="#31688e" stroke="black" cx="491" cy="-90" rx="27" ry="18"/>
<text text-anchor="middle" x="491" y="-86.3" font-family="Times,serif" font-size="14.00" fill="white">vic</text>
</g>
<!-- cmor -->
<g id="node7" class="node">
<title>cmor</title>
<ellipse fill="#31688e" stroke="black" cx="567" cy="-90" rx="30.59" ry="18"/>
<text text-anchor="middle" x="567" y="-86.3" font-family="Times,serif" font-size="14.00" fill="white">cmor</text>
</g>
<!-- magics&#45;metview -->
<g id="node9" class="node">
<title>magics&#45;metview</title>
<ellipse fill="#31688e" stroke="black" cx="695" cy="-90" rx="79.09" ry="18"/>
<text text-anchor="middle" x="695" y="-86.3" font-family="Times,serif" font-size="14.00" fill="white">magics metview</text>
</g>
</g>
</svg>
