<?xml version="1.0" encoding="UTF-8" standalone="no"?>
<!DOCTYPE svg PUBLIC "-//W3C//DTD SVG 1.1//EN"
 "http://www.w3.org/Graphics/SVG/1.1/DTD/svg11.dtd">
<!-- Generated by graphviz version 2.40.1 (20161225.0304)
 -->
<!-- Title: %3 Pages: 1 -->
<svg width="754pt" height="116pt"
 viewBox="0.00 0.00 754.44 116.00" xmlns="http://www.w3.org/2000/svg" xmlns:xlink="http://www.w3.org/1999/xlink">
<g id="graph0" class="graph" transform="scale(1 1) rotate(0) translate(4 112)">
<title>%3</title>
<polygon fill="#ffffff" stroke="transparent" points="-4,4 -4,-112 750.4412,-112 750.4412,4 -4,4"/>
<!-- cdat&#45;lite -->
<g id="node1" class="node">
<title>cdat&#45;lite</title>
<ellipse fill="#31688e" stroke="#000000" cx="54.5952" cy="-90" rx="54.6905" ry="18"/>
<text text-anchor="middle" x="54.5952" y="-86.3" font-family="Times,serif" font-size="14.00" fill="#ffffff">cdat lite</text>
</g>
<!-- cdms2 -->
<g id="node2" class="node">
<title>cdms2</title>
<ellipse fill="#fde725" stroke="#000000" cx="171.5952" cy="-18" rx="35.194" ry="18"/>
<text text-anchor="middle" x="171.5952" y="-14.3" font-family="Times,serif" font-size="14.00" fill="#000000">cdms2</text>
</g>
<!-- gmt -->
<g id="node3" class="node">
<title>gmt</title>
<ellipse fill="#31688e" stroke="#000000" cx="261.5952" cy="-90" rx="27" ry="18"/>
<text text-anchor="middle" x="261.5952" y="-86.3" font-family="Times,serif" font-size="14.00" fill="#ffffff">gmt</text>
</g>
<!-- libcdms -->
<g id="node4" class="node">
<title>libcdms</title>
<ellipse fill="#31688e" stroke="#000000" cx="171.5952" cy="-90" rx="44.6926" ry="18"/>
<text text-anchor="middle" x="171.5952" y="-86.3" font-family="Times,serif" font-size="14.00" fill="#ffffff">libcdms</text>
</g>
<!-- libcdms&#45;&gt;cdms2 -->
<g id="edge1" class="edge">
<title>libcdms&#45;&gt;cdms2</title>
<path fill="none" stroke="#000000" d="M171.5952,-71.8314C171.5952,-64.131 171.5952,-54.9743 171.5952,-46.4166"/>
<polygon fill="#000000" stroke="#000000" points="175.0953,-46.4132 171.5952,-36.4133 168.0953,-46.4133 175.0953,-46.4132"/>
</g>
<!-- paraview -->
<g id="node5" class="node">
<title>paraview</title>
<ellipse fill="#31688e" stroke="#000000" cx="356.5952" cy="-90" rx="50.0912" ry="18"/>
<text text-anchor="middle" x="356.5952" y="-86.3" font-family="Times,serif" font-size="14.00" fill="#ffffff">paraview</text>
</g>
<!-- pynio -->
<g id="node6" class="node">
<title>pynio</title>
<ellipse fill="#31688e" stroke="#000000" cx="459.5952" cy="-90" rx="35.194" ry="18"/>
<text text-anchor="middle" x="459.5952" y="-86.3" font-family="Times,serif" font-size="14.00" fill="#ffffff">pynio</text>
</g>
<!-- vic -->
<g id="node7" class="node">
<title>vic</title>
<ellipse fill="#31688e" stroke="#000000" cx="539.5952" cy="-90" rx="27" ry="18"/>
<text text-anchor="middle" x="539.5952" y="-86.3" font-family="Times,serif" font-size="14.00" fill="#ffffff">vic</text>
</g>
<!-- vtk -->
<g id="node8" class="node">
<title>vtk</title>
<ellipse fill="#31688e" stroke="#000000" cx="611.5952" cy="-90" rx="27" ry="18"/>
<text text-anchor="middle" x="611.5952" y="-86.3" font-family="Times,serif" font-size="14.00" fill="#ffffff">vtk</text>
</g>
<!-- metview -->
<g id="node9" class="node">
<title>metview</title>
<ellipse fill="#31688e" stroke="#000000" cx="701.5952" cy="-90" rx="44.6926" ry="18"/>
<text text-anchor="middle" x="701.5952" y="-86.3" font-family="Times,serif" font-size="14.00" fill="#ffffff">metview</text>
</g>
</g>
</svg>
