<?xml version="1.0" encoding="UTF-8" standalone="no"?>
<!DOCTYPE svg PUBLIC "-//W3C//DTD SVG 1.1//EN"
 "http://www.w3.org/Graphics/SVG/1.1/DTD/svg11.dtd">
<!-- Generated by graphviz version 2.42.3 (20191010.1750)
 -->
<!-- Title: %3 Pages: 1 -->
<svg width="998pt" height="116pt"
 viewBox="0.00 0.00 997.89 116.00" xmlns="http://www.w3.org/2000/svg" xmlns:xlink="http://www.w3.org/1999/xlink">
<g id="graph0" class="graph" transform="scale(1 1) rotate(0) translate(4 112)">
<title>%3</title>
<polygon fill="white" stroke="transparent" points="-4,4 -4,-112 993.89,-112 993.89,4 -4,4"/>
<!-- cdat&#45;lite -->
<g id="node1" class="node">
<title>cdat&#45;lite</title>
<ellipse fill="#31688e" stroke="black" cx="54.6" cy="-90" rx="54.69" ry="18"/>
<text text-anchor="middle" x="54.6" y="-86.3" font-family="Times,serif" font-size="14.00" fill="white">cdat lite</text>
</g>
<!-- cdms2 -->
<g id="node2" class="node">
<title>cdms2</title>
<ellipse fill="#31688e" stroke="black" cx="162.6" cy="-90" rx="35.19" ry="18"/>
<text text-anchor="middle" x="162.6" y="-86.3" font-family="Times,serif" font-size="14.00" fill="white">cdms2</text>
</g>
<!-- cdo -->
<g id="node3" class="node">
<title>cdo</title>
<ellipse fill="#31688e" stroke="black" cx="242.6" cy="-90" rx="27" ry="18"/>
<text text-anchor="middle" x="242.6" y="-86.3" font-family="Times,serif" font-size="14.00" fill="white">cdo</text>
</g>
<!-- ecmwf_grib -->
<g id="node4" class="node">
<title>ecmwf_grib</title>
<ellipse fill="#31688e" stroke="black" cx="347.6" cy="-90" rx="59.59" ry="18"/>
<text text-anchor="middle" x="347.6" y="-86.3" font-family="Times,serif" font-size="14.00" fill="white">ecmwf_grib</text>
</g>
<!-- python&#45;ecmwf_grib -->
<g id="node7" class="node">
<title>python&#45;ecmwf_grib</title>
<ellipse fill="#fde725" stroke="black" cx="347.6" cy="-18" rx="93.68" ry="18"/>
<text text-anchor="middle" x="347.6" y="-14.3" font-family="Times,serif" font-size="14.00">python ecmwf_grib</text>
</g>
<!-- ecmwf_grib&#45;&gt;python&#45;ecmwf_grib -->
<g id="edge1" class="edge">
<title>ecmwf_grib&#45;&gt;python&#45;ecmwf_grib</title>
<path fill="none" stroke="black" d="M347.6,-71.7C347.6,-63.98 347.6,-54.71 347.6,-46.11"/>
<polygon fill="black" stroke="black" points="351.1,-46.1 347.6,-36.1 344.1,-46.1 351.1,-46.1"/>
</g>
<!-- magics -->
<g id="node5" class="node">
<title>magics</title>
<ellipse fill="#31688e" stroke="black" cx="503.6" cy="-90" rx="40.09" ry="18"/>
<text text-anchor="middle" x="503.6" y="-86.3" font-family="Times,serif" font-size="14.00" fill="white">magics</text>
</g>
<!-- metview -->
<g id="node10" class="node">
<title>metview</title>
<ellipse fill="#fde725" stroke="black" cx="503.6" cy="-18" rx="44.69" ry="18"/>
<text text-anchor="middle" x="503.6" y="-14.3" font-family="Times,serif" font-size="14.00">metview</text>
</g>
<!-- magics&#45;&gt;metview -->
<g id="edge2" class="edge">
<title>magics&#45;&gt;metview</title>
<path fill="none" stroke="black" d="M503.6,-71.7C503.6,-63.98 503.6,-54.71 503.6,-46.11"/>
<polygon fill="black" stroke="black" points="507.1,-46.1 503.6,-36.1 500.1,-46.1 507.1,-46.1"/>
</g>
<!-- paraview -->
<g id="node6" class="node">
<title>paraview</title>
<ellipse fill="#31688e" stroke="black" cx="611.6" cy="-90" rx="50.09" ry="18"/>
<text text-anchor="middle" x="611.6" y="-86.3" font-family="Times,serif" font-size="14.00" fill="white">paraview</text>
</g>
<!-- vic -->
<g id="node8" class="node">
<title>vic</title>
<ellipse fill="#31688e" stroke="black" cx="706.6" cy="-90" rx="27" ry="18"/>
<text text-anchor="middle" x="706.6" y="-86.3" font-family="Times,serif" font-size="14.00" fill="white">vic</text>
</g>
<!-- cmor -->
<g id="node9" class="node">
<title>cmor</title>
<ellipse fill="#31688e" stroke="black" cx="782.6" cy="-90" rx="30.59" ry="18"/>
<text text-anchor="middle" x="782.6" y="-86.3" font-family="Times,serif" font-size="14.00" fill="white">cmor</text>
</g>
<!-- magics&#45;metview -->
<g id="node11" class="node">
<title>magics&#45;metview</title>
<ellipse fill="#31688e" stroke="black" cx="910.6" cy="-90" rx="79.09" ry="18"/>
<text text-anchor="middle" x="910.6" y="-86.3" font-family="Times,serif" font-size="14.00" fill="white">magics metview</text>
</g>
</g>
</svg>
