<?xml version="1.0" encoding="UTF-8" standalone="no"?>
<!DOCTYPE svg PUBLIC "-//W3C//DTD SVG 1.1//EN"
 "http://www.w3.org/Graphics/SVG/1.1/DTD/svg11.dtd">
<!-- Generated by graphviz version 2.40.1 (20161225.0304)
 -->
<!-- Title: %3 Pages: 1 -->
<svg width="901pt" height="116pt"
 viewBox="0.00 0.00 901.44 116.00" xmlns="http://www.w3.org/2000/svg" xmlns:xlink="http://www.w3.org/1999/xlink">
<g id="graph0" class="graph" transform="scale(1 1) rotate(0) translate(4 112)">
<title>%3</title>
<polygon fill="#ffffff" stroke="transparent" points="-4,4 -4,-112 897.4412,-112 897.4412,4 -4,4"/>
<!-- cdat&#45;lite -->
<g id="node1" class="node">
<title>cdat&#45;lite</title>
<ellipse fill="#31688e" stroke="#000000" cx="54.5952" cy="-90" rx="54.6905" ry="18"/>
<text text-anchor="middle" x="54.5952" y="-86.3" font-family="Times,serif" font-size="14.00" fill="#ffffff">cdat lite</text>
</g>
<!-- cdms2 -->
<g id="node2" class="node">
<title>cdms2</title>
<ellipse fill="#fde725" stroke="#000000" cx="177.5952" cy="-18" rx="35.194" ry="18"/>
<text text-anchor="middle" x="177.5952" y="-14.3" font-family="Times,serif" font-size="14.00" fill="#000000">cdms2</text>
</g>
<!-- esmf -->
<g id="node3" class="node">
<title>esmf</title>
<ellipse fill="#31688e" stroke="#000000" cx="264.5952" cy="-90" rx="30.5947" ry="18"/>
<text text-anchor="middle" x="264.5952" y="-86.3" font-family="Times,serif" font-size="14.00" fill="#ffffff">esmf</text>
</g>
<!-- esmf&#45;&gt;cdms2 -->
<g id="edge1" class="edge">
<title>esmf&#45;&gt;cdms2</title>
<path fill="none" stroke="#000000" d="M246.5687,-75.0816C234.2534,-64.8896 217.7323,-51.217 203.9469,-39.8083"/>
<polygon fill="#000000" stroke="#000000" points="206.1343,-37.0754 196.1988,-33.3961 201.6713,-42.4682 206.1343,-37.0754"/>
</g>
<!-- ncl -->
<g id="node7" class="node">
<title>ncl</title>
<ellipse fill="#fde725" stroke="#000000" cx="260.5952" cy="-18" rx="27" ry="18"/>
<text text-anchor="middle" x="260.5952" y="-14.3" font-family="Times,serif" font-size="14.00" fill="#000000">ncl</text>
</g>
<!-- esmf&#45;&gt;ncl -->
<g id="edge2" class="edge">
<title>esmf&#45;&gt;ncl</title>
<path fill="none" stroke="#000000" d="M263.5858,-71.8314C263.158,-64.131 262.6493,-54.9743 262.1739,-46.4166"/>
<polygon fill="#000000" stroke="#000000" points="265.6675,-46.2037 261.6181,-36.4133 258.6783,-46.592 265.6675,-46.2037"/>
</g>
<!-- nco -->
<g id="node8" class="node">
<title>nco</title>
<ellipse fill="#fde725" stroke="#000000" cx="332.5952" cy="-18" rx="27" ry="18"/>
<text text-anchor="middle" x="332.5952" y="-14.3" font-family="Times,serif" font-size="14.00" fill="#000000">nco</text>
</g>
<!-- esmf&#45;&gt;nco -->
<g id="edge3" class="edge">
<title>esmf&#45;&gt;nco</title>
<path fill="none" stroke="#000000" d="M279.6866,-74.0209C288.8803,-64.2863 300.7787,-51.688 310.963,-40.9046"/>
<polygon fill="#000000" stroke="#000000" points="313.691,-43.1136 318.0127,-33.4403 308.6018,-38.3072 313.691,-43.1136"/>
</g>
<!-- gdal -->
<g id="node4" class="node">
<title>gdal</title>
<ellipse fill="#31688e" stroke="#000000" cx="404.5952" cy="-90" rx="30.5947" ry="18"/>
<text text-anchor="middle" x="404.5952" y="-86.3" font-family="Times,serif" font-size="14.00" fill="#ffffff">gdal</text>
</g>
<!-- gmt -->
<g id="node5" class="node">
<title>gmt</title>
<ellipse fill="#fde725" stroke="#000000" cx="404.5952" cy="-18" rx="27" ry="18"/>
<text text-anchor="middle" x="404.5952" y="-14.3" font-family="Times,serif" font-size="14.00" fill="#000000">gmt</text>
</g>
<!-- gdal&#45;&gt;gmt -->
<g id="edge4" class="edge">
<title>gdal&#45;&gt;gmt</title>
<path fill="none" stroke="#000000" d="M404.5952,-71.8314C404.5952,-64.131 404.5952,-54.9743 404.5952,-46.4166"/>
<polygon fill="#000000" stroke="#000000" points="408.0953,-46.4132 404.5952,-36.4133 401.0953,-46.4133 408.0953,-46.4132"/>
</g>
<!-- libcdms -->
<g id="node6" class="node">
<title>libcdms</title>
<ellipse fill="#35b779" stroke="#000000" cx="171.5952" cy="-90" rx="44.6926" ry="18"/>
<text text-anchor="middle" x="171.5952" y="-86.3" font-family="Times,serif" font-size="14.00" fill="#000000">libcdms</text>
</g>
<!-- libcdms&#45;&gt;cdms2 -->
<g id="edge5" class="edge">
<title>libcdms&#45;&gt;cdms2</title>
<path fill="none" stroke="#000000" d="M173.1092,-71.8314C173.7509,-64.131 174.514,-54.9743 175.2271,-46.4166"/>
<polygon fill="#000000" stroke="#000000" points="178.7181,-46.6694 176.0607,-36.4133 171.7423,-46.088 178.7181,-46.6694"/>
</g>
<!-- paraview -->
<g id="node9" class="node">
<title>paraview</title>
<ellipse fill="#31688e" stroke="#000000" cx="503.5952" cy="-90" rx="50.0912" ry="18"/>
<text text-anchor="middle" x="503.5952" y="-86.3" font-family="Times,serif" font-size="14.00" fill="#ffffff">paraview</text>
</g>
<!-- pynio -->
<g id="node10" class="node">
<title>pynio</title>
<ellipse fill="#31688e" stroke="#000000" cx="606.5952" cy="-90" rx="35.194" ry="18"/>
<text text-anchor="middle" x="606.5952" y="-86.3" font-family="Times,serif" font-size="14.00" fill="#ffffff">pynio</text>
</g>
<!-- vic -->
<g id="node11" class="node">
<title>vic</title>
<ellipse fill="#31688e" stroke="#000000" cx="686.5952" cy="-90" rx="27" ry="18"/>
<text text-anchor="middle" x="686.5952" y="-86.3" font-family="Times,serif" font-size="14.00" fill="#ffffff">vic</text>
</g>
<!-- vtk -->
<g id="node12" class="node">
<title>vtk</title>
<ellipse fill="#31688e" stroke="#000000" cx="758.5952" cy="-90" rx="27" ry="18"/>
<text text-anchor="middle" x="758.5952" y="-86.3" font-family="Times,serif" font-size="14.00" fill="#ffffff">vtk</text>
</g>
<!-- metview -->
<g id="node13" class="node">
<title>metview</title>
<ellipse fill="#31688e" stroke="#000000" cx="848.5952" cy="-90" rx="44.6926" ry="18"/>
<text text-anchor="middle" x="848.5952" y="-86.3" font-family="Times,serif" font-size="14.00" fill="#ffffff">metview</text>
</g>
</g>
</svg>
