<?xml version="1.0" encoding="UTF-8" standalone="no"?>
<!DOCTYPE svg PUBLIC "-//W3C//DTD SVG 1.1//EN"
 "http://www.w3.org/Graphics/SVG/1.1/DTD/svg11.dtd">
<!-- Generated by graphviz version 2.40.1 (20161225.0304)
 -->
<!-- Title: %3 Pages: 1 -->
<svg width="2681pt" height="188pt"
 viewBox="0.00 0.00 2680.89 188.00" xmlns="http://www.w3.org/2000/svg" xmlns:xlink="http://www.w3.org/1999/xlink">
<g id="graph0" class="graph" transform="scale(1 1) rotate(0) translate(4 184)">
<title>%3</title>
<polygon fill="#ffffff" stroke="transparent" points="-4,4 -4,-184 2676.8916,-184 2676.8916,4 -4,4"/>
<!-- cdat&#45;lite -->
<g id="node1" class="node">
<title>cdat&#45;lite</title>
<ellipse fill="#35b779" stroke="#000000" cx="54.5952" cy="-162" rx="54.6905" ry="18"/>
<text text-anchor="middle" x="54.5952" y="-158.3" font-family="Times,serif" font-size="14.00" fill="#000000">cdat lite</text>
</g>
<!-- cdms2 -->
<g id="node2" class="node">
<title>cdms2</title>
<ellipse fill="#fde725" stroke="#000000" cx="236.5952" cy="-18" rx="35.194" ry="18"/>
<text text-anchor="middle" x="236.5952" y="-14.3" font-family="Times,serif" font-size="14.00" fill="#000000">cdms2</text>
</g>
<!-- cdo -->
<g id="node3" class="node">
<title>cdo</title>
<ellipse fill="#fde725" stroke="#000000" cx="593.5952" cy="-90" rx="27" ry="18"/>
<text text-anchor="middle" x="593.5952" y="-86.3" font-family="Times,serif" font-size="14.00" fill="#000000">cdo</text>
</g>
<!-- eccodes -->
<g id="node4" class="node">
<title>eccodes</title>
<ellipse fill="#31688e" stroke="#000000" cx="678.5952" cy="-162" rx="44.6926" ry="18"/>
<text text-anchor="middle" x="678.5952" y="-158.3" font-family="Times,serif" font-size="14.00" fill="#ffffff">eccodes</text>
</g>
<!-- eccodes&#45;&gt;cdo -->
<g id="edge1" class="edge">
<title>eccodes&#45;&gt;cdo</title>
<path fill="none" stroke="#000000" d="M659.3073,-145.6621C647.1385,-135.3543 631.3072,-121.9443 618.2329,-110.8696"/>
<polygon fill="#000000" stroke="#000000" points="620.3986,-108.1172 610.5059,-104.3244 615.8742,-113.4586 620.3986,-108.1172"/>
</g>
<!-- magics -->
<g id="node12" class="node">
<title>magics</title>
<ellipse fill="#fde725" stroke="#000000" cx="678.5952" cy="-90" rx="40.0939" ry="18"/>
<text text-anchor="middle" x="678.5952" y="-86.3" font-family="Times,serif" font-size="14.00" fill="#000000">magics</text>
</g>
<!-- eccodes&#45;&gt;magics -->
<g id="edge2" class="edge">
<title>eccodes&#45;&gt;magics</title>
<path fill="none" stroke="#000000" d="M678.5952,-143.8314C678.5952,-136.131 678.5952,-126.9743 678.5952,-118.4166"/>
<polygon fill="#000000" stroke="#000000" points="682.0953,-118.4132 678.5952,-108.4133 675.0953,-118.4133 682.0953,-118.4132"/>
</g>
<!-- metview -->
<g id="node28" class="node">
<title>metview</title>
<ellipse fill="#fde725" stroke="#000000" cx="712.5952" cy="-18" rx="44.6926" ry="18"/>
<text text-anchor="middle" x="712.5952" y="-14.3" font-family="Times,serif" font-size="14.00" fill="#000000">metview</text>
</g>
<!-- eccodes&#45;&gt;metview -->
<g id="edge3" class="edge">
<title>eccodes&#45;&gt;metview</title>
<path fill="none" stroke="#000000" d="M699.2249,-145.8789C709.8903,-136.1942 721.8502,-122.8803 727.5952,-108 735.3935,-87.8011 730.5879,-63.5142 724.4145,-45.2632"/>
<polygon fill="#000000" stroke="#000000" points="727.6689,-43.9724 720.9155,-35.809 721.1041,-46.4021 727.6689,-43.9724"/>
</g>
<!-- ecmwf_grib -->
<g id="node5" class="node">
<title>ecmwf_grib</title>
<ellipse fill="#31688e" stroke="#000000" cx="868.5952" cy="-162" rx="59.5901" ry="18"/>
<text text-anchor="middle" x="868.5952" y="-158.3" font-family="Times,serif" font-size="14.00" fill="#ffffff">ecmwf_grib</text>
</g>
<!-- python&#45;ecmwf_grib -->
<g id="node19" class="node">
<title>python&#45;ecmwf_grib</title>
<ellipse fill="#fde725" stroke="#000000" cx="868.5952" cy="-90" rx="93.6835" ry="18"/>
<text text-anchor="middle" x="868.5952" y="-86.3" font-family="Times,serif" font-size="14.00" fill="#000000">python ecmwf_grib</text>
</g>
<!-- ecmwf_grib&#45;&gt;python&#45;ecmwf_grib -->
<g id="edge4" class="edge">
<title>ecmwf_grib&#45;&gt;python&#45;ecmwf_grib</title>
<path fill="none" stroke="#000000" d="M868.5952,-143.8314C868.5952,-136.131 868.5952,-126.9743 868.5952,-118.4166"/>
<polygon fill="#000000" stroke="#000000" points="872.0953,-118.4132 868.5952,-108.4133 865.0953,-118.4133 872.0953,-118.4132"/>
</g>
<!-- esmf -->
<g id="node6" class="node">
<title>esmf</title>
<ellipse fill="#fde725" stroke="#000000" cx="351.5952" cy="-90" rx="30.5947" ry="18"/>
<text text-anchor="middle" x="351.5952" y="-86.3" font-family="Times,serif" font-size="14.00" fill="#000000">esmf</text>
</g>
<!-- esmf&#45;&gt;cdms2 -->
<g id="edge5" class="edge">
<title>esmf&#45;&gt;cdms2</title>
<path fill="none" stroke="#000000" d="M330.5024,-76.7941C312.9583,-65.81 287.7326,-50.0165 267.8431,-37.5639"/>
<polygon fill="#000000" stroke="#000000" points="269.46,-34.4469 259.1269,-32.1068 265.7454,-40.38 269.46,-34.4469"/>
</g>
<!-- ncl -->
<g id="node13" class="node">
<title>ncl</title>
<ellipse fill="#fde725" stroke="#000000" cx="351.5952" cy="-18" rx="27" ry="18"/>
<text text-anchor="middle" x="351.5952" y="-14.3" font-family="Times,serif" font-size="14.00" fill="#000000">ncl</text>
</g>
<!-- esmf&#45;&gt;ncl -->
<g id="edge6" class="edge">
<title>esmf&#45;&gt;ncl</title>
<path fill="none" stroke="#000000" d="M351.5952,-71.8314C351.5952,-64.131 351.5952,-54.9743 351.5952,-46.4166"/>
<polygon fill="#000000" stroke="#000000" points="355.0953,-46.4132 351.5952,-36.4133 348.0953,-46.4133 355.0953,-46.4132"/>
</g>
<!-- nco -->
<g id="node14" class="node">
<title>nco</title>
<ellipse fill="#fde725" stroke="#000000" cx="449.5952" cy="-18" rx="27" ry="18"/>
<text text-anchor="middle" x="449.5952" y="-14.3" font-family="Times,serif" font-size="14.00" fill="#000000">nco</text>
</g>
<!-- esmf&#45;&gt;nco -->
<g id="edge7" class="edge">
<title>esmf&#45;&gt;nco</title>
<path fill="none" stroke="#000000" d="M370.9568,-75.7751C385.8723,-64.8168 406.6566,-49.5467 423.1118,-37.4572"/>
<polygon fill="#000000" stroke="#000000" points="425.2815,-40.2062 431.2681,-31.4648 421.137,-34.565 425.2815,-40.2062"/>
</g>
<!-- gdal -->
<g id="node7" class="node">
<title>gdal</title>
<ellipse fill="#31688e" stroke="#000000" cx="1007.5952" cy="-162" rx="30.5947" ry="18"/>
<text text-anchor="middle" x="1007.5952" y="-158.3" font-family="Times,serif" font-size="14.00" fill="#ffffff">gdal</text>
</g>
<!-- gmt -->
<g id="node8" class="node">
<title>gmt</title>
<ellipse fill="#fde725" stroke="#000000" cx="1007.5952" cy="-90" rx="27" ry="18"/>
<text text-anchor="middle" x="1007.5952" y="-86.3" font-family="Times,serif" font-size="14.00" fill="#000000">gmt</text>
</g>
<!-- gdal&#45;&gt;gmt -->
<g id="edge8" class="edge">
<title>gdal&#45;&gt;gmt</title>
<path fill="none" stroke="#000000" d="M1007.5952,-143.8314C1007.5952,-136.131 1007.5952,-126.9743 1007.5952,-118.4166"/>
<polygon fill="#000000" stroke="#000000" points="1011.0953,-118.4132 1007.5952,-108.4133 1004.0953,-118.4133 1011.0953,-118.4132"/>
</g>
<!-- libcdms -->
<g id="node9" class="node">
<title>libcdms</title>
<ellipse fill="#fde725" stroke="#000000" cx="131.5952" cy="-90" rx="44.6926" ry="18"/>
<text text-anchor="middle" x="131.5952" y="-86.3" font-family="Times,serif" font-size="14.00" fill="#000000">libcdms</text>
</g>
<!-- libcdms&#45;&gt;cdms2 -->
<g id="edge9" class="edge">
<title>libcdms&#45;&gt;cdms2</title>
<path fill="none" stroke="#000000" d="M154.3786,-74.3771C169.7872,-63.8112 190.2881,-49.7534 206.9634,-38.3189"/>
<polygon fill="#000000" stroke="#000000" points="209.0196,-41.1528 215.2875,-32.6109 205.0609,-35.3797 209.0196,-41.1528"/>
</g>
<!-- libcf -->
<g id="node10" class="node">
<title>libcf</title>
<ellipse fill="#31688e" stroke="#000000" cx="267.5952" cy="-90" rx="35.194" ry="18"/>
<text text-anchor="middle" x="267.5952" y="-86.3" font-family="Times,serif" font-size="14.00" fill="#ffffff">libcf</text>
</g>
<!-- libcf&#45;&gt;cdms2 -->
<g id="edge10" class="edge">
<title>libcf&#45;&gt;cdms2</title>
<path fill="none" stroke="#000000" d="M259.9322,-72.2022C256.4035,-64.0064 252.1392,-54.1024 248.2264,-45.0145"/>
<polygon fill="#000000" stroke="#000000" points="251.3393,-43.3938 244.1699,-35.593 244.9099,-46.162 251.3393,-43.3938"/>
</g>
<!-- libdrs -->
<g id="node11" class="node">
<title>libdrs</title>
<ellipse fill="#31688e" stroke="#000000" cx="167.5952" cy="-162" rx="40.0939" ry="18"/>
<text text-anchor="middle" x="167.5952" y="-158.3" font-family="Times,serif" font-size="14.00" fill="#ffffff">libdrs</text>
</g>
<!-- libdrs&#45;&gt;cdms2 -->
<g id="edge11" class="edge">
<title>libdrs&#45;&gt;cdms2</title>
<path fill="none" stroke="#000000" d="M176.0559,-144.3428C187.9539,-119.5122 209.7302,-74.066 223.6655,-44.9836"/>
<polygon fill="#000000" stroke="#000000" points="226.9003,-46.3323 228.0652,-35.8017 220.5876,-43.3074 226.9003,-46.3323"/>
</g>
<!-- libdrs&#45;&gt;libcdms -->
<g id="edge12" class="edge">
<title>libdrs&#45;&gt;libcdms</title>
<path fill="none" stroke="#000000" d="M158.6963,-144.2022C154.5856,-135.981 149.6157,-126.041 145.0602,-116.9301"/>
<polygon fill="#000000" stroke="#000000" points="148.1191,-115.2216 140.5164,-107.8425 141.8581,-118.3521 148.1191,-115.2216"/>
</g>
<!-- magics&#45;&gt;metview -->
<g id="edge13" class="edge">
<title>magics&#45;&gt;metview</title>
<path fill="none" stroke="#000000" d="M686.9997,-72.2022C690.8819,-63.981 695.5758,-54.041 699.8781,-44.9301"/>
<polygon fill="#000000" stroke="#000000" points="703.0643,-46.3796 704.1695,-35.8425 696.7345,-43.3905 703.0643,-46.3796"/>
</g>
<!-- netcdf&#45;cxx4 -->
<g id="node15" class="node">
<title>netcdf&#45;cxx4</title>
<ellipse fill="#35b779" stroke="#000000" cx="1120.5952" cy="-162" rx="64.189" ry="18"/>
<text text-anchor="middle" x="1120.5952" y="-158.3" font-family="Times,serif" font-size="14.00" fill="#000000">netcdf cxx4</text>
</g>
<!-- paraview -->
<g id="node16" class="node">
<title>paraview</title>
<ellipse fill="#35b779" stroke="#000000" cx="1252.5952" cy="-162" rx="50.0912" ry="18"/>
<text text-anchor="middle" x="1252.5952" y="-158.3" font-family="Times,serif" font-size="14.00" fill="#000000">paraview</text>
</g>
<!-- pyferret -->
<g id="node17" class="node">
<title>pyferret</title>
<ellipse fill="#fde725" stroke="#000000" cx="1370.5952" cy="-162" rx="50.0912" ry="18"/>
<text text-anchor="middle" x="1370.5952" y="-158.3" font-family="Times,serif" font-size="14.00" fill="#000000">pyferret</text>
</g>
<!-- pynio -->
<g id="node18" class="node">
<title>pynio</title>
<ellipse fill="#fde725" stroke="#000000" cx="1473.5952" cy="-162" rx="35.194" ry="18"/>
<text text-anchor="middle" x="1473.5952" y="-158.3" font-family="Times,serif" font-size="14.00" fill="#000000">pynio</text>
</g>
<!-- r&#45;ncdf4 -->
<g id="node20" class="node">
<title>r&#45;ncdf4</title>
<ellipse fill="#35b779" stroke="#000000" cx="1571.5952" cy="-162" rx="44.6926" ry="18"/>
<text text-anchor="middle" x="1571.5952" y="-158.3" font-family="Times,serif" font-size="14.00" fill="#000000">r ncdf4</text>
</g>
<!-- r&#45;rnetcdf -->
<g id="node21" class="node">
<title>r&#45;rnetcdf</title>
<ellipse fill="#35b779" stroke="#000000" cx="1688.5952" cy="-162" rx="54.6905" ry="18"/>
<text text-anchor="middle" x="1688.5952" y="-158.3" font-family="Times,serif" font-size="14.00" fill="#000000">r rnetcdf</text>
</g>
<!-- wgrib2 -->
<g id="node22" class="node">
<title>wgrib2</title>
<ellipse fill="#35b779" stroke="#000000" cx="1801.5952" cy="-162" rx="40.0939" ry="18"/>
<text text-anchor="middle" x="1801.5952" y="-158.3" font-family="Times,serif" font-size="14.00" fill="#000000">wgrib2</text>
</g>
<!-- vic -->
<g id="node23" class="node">
<title>vic</title>
<ellipse fill="#35b779" stroke="#000000" cx="1886.5952" cy="-162" rx="27" ry="18"/>
<text text-anchor="middle" x="1886.5952" y="-158.3" font-family="Times,serif" font-size="14.00" fill="#000000">vic</text>
</g>
<!-- vtk -->
<g id="node24" class="node">
<title>vtk</title>
<ellipse fill="#31688e" stroke="#000000" cx="1958.5952" cy="-162" rx="27" ry="18"/>
<text text-anchor="middle" x="1958.5952" y="-158.3" font-family="Times,serif" font-size="14.00" fill="#ffffff">vtk</text>
</g>
<!-- vmd&#45;python -->
<g id="node25" class="node">
<title>vmd&#45;python</title>
<ellipse fill="#35b779" stroke="#000000" cx="2063.5952" cy="-162" rx="59.5901" ry="18"/>
<text text-anchor="middle" x="2063.5952" y="-158.3" font-family="Times,serif" font-size="14.00" fill="#000000">vmd python</text>
</g>
<!-- cmor -->
<g id="node26" class="node">
<title>cmor</title>
<ellipse fill="#fde725" stroke="#000000" cx="2171.5952" cy="-162" rx="30.5947" ry="18"/>
<text text-anchor="middle" x="2171.5952" y="-158.3" font-family="Times,serif" font-size="14.00" fill="#000000">cmor</text>
</g>
<!-- tempest&#45;remap -->
<g id="node27" class="node">
<title>tempest&#45;remap</title>
<ellipse fill="#31688e" stroke="#000000" cx="474.5952" cy="-90" rx="74.187" ry="18"/>
<text text-anchor="middle" x="474.5952" y="-86.3" font-family="Times,serif" font-size="14.00" fill="#ffffff">tempest remap</text>
</g>
<!-- tempest&#45;remap&#45;&gt;nco -->
<g id="edge14" class="edge">
<title>tempest&#45;remap&#45;&gt;nco</title>
<path fill="none" stroke="#000000" d="M468.2866,-71.8314C465.512,-63.8406 462.193,-54.2819 459.1269,-45.4514"/>
<polygon fill="#000000" stroke="#000000" points="462.4016,-44.2121 455.8151,-35.9134 455.7889,-46.5082 462.4016,-44.2121"/>
</g>
<!-- mpas_tools -->
<g id="node29" class="node">
<title>mpas_tools</title>
<ellipse fill="#fde725" stroke="#000000" cx="2279.5952" cy="-162" rx="59.5901" ry="18"/>
<text text-anchor="middle" x="2279.5952" y="-158.3" font-family="Times,serif" font-size="14.00" fill="#000000">mpas_tools</text>
</g>
<!-- fpocket -->
<g id="node30" class="node">
<title>fpocket</title>
<ellipse fill="#35b779" stroke="#000000" cx="2402.5952" cy="-162" rx="44.6926" ry="18"/>
<text text-anchor="middle" x="2402.5952" y="-158.3" font-family="Times,serif" font-size="14.00" fill="#000000">fpocket</text>
</g>
<!-- sphinxdft -->
<g id="node31" class="node">
<title>sphinxdft</title>
<ellipse fill="#35b779" stroke="#000000" cx="2519.5952" cy="-162" rx="54.6905" ry="18"/>
<text text-anchor="middle" x="2519.5952" y="-158.3" font-family="Times,serif" font-size="14.00" fill="#000000">sphinxdft</text>
</g>
<!-- ncview -->
<g id="node32" class="node">
<title>ncview</title>
<ellipse fill="#35b779" stroke="#000000" cx="2632.5952" cy="-162" rx="40.0939" ry="18"/>
<text text-anchor="middle" x="2632.5952" y="-158.3" font-family="Times,serif" font-size="14.00" fill="#000000">ncview</text>
</g>
</g>
</svg>
