<?xml version="1.0" encoding="UTF-8" standalone="no"?>
<!DOCTYPE svg PUBLIC "-//W3C//DTD SVG 1.1//EN"
 "http://www.w3.org/Graphics/SVG/1.1/DTD/svg11.dtd">
<!-- Generated by graphviz version 2.42.3 (20191010.1750)
 -->
<!-- Title: %3 Pages: 1 -->
<svg width="274pt" height="116pt"
 viewBox="0.00 0.00 274.14 116.00" xmlns="http://www.w3.org/2000/svg" xmlns:xlink="http://www.w3.org/1999/xlink">
<g id="graph0" class="graph" transform="scale(1 1) rotate(0) translate(4 112)">
<title>%3</title>
<polygon fill="white" stroke="transparent" points="-4,4 -4,-112 270.14,-112 270.14,4 -4,4"/>
<!-- mongo&#45;tools -->
<g id="node1" class="node">
<title>mongo&#45;tools</title>
<g id="a_node1"><a xlink:href="https://github.com/conda-forge/mongo-tools-feedstock/pull/11" xlink:title="mongo tools">
<ellipse fill="#31688e" stroke="black" cx="64.34" cy="-90" rx="64.19" ry="18"/>
<text text-anchor="middle" x="64.34" y="-86.3" font-family="Times,serif" font-size="14.00" fill="white">mongo tools</text>
</a>
</g>
</g>
<!-- conda&#45;forge&#45;pinning -->
<g id="node3" class="node">
<title>conda&#45;forge&#45;pinning</title>
<ellipse fill="none" stroke="black" cx="135.34" cy="-18" rx="103.18" ry="18"/>
<text text-anchor="middle" x="135.34" y="-14.3" font-family="Times,serif" font-size="14.00">conda&#45;forge&#45;pinning</text>
</g>
<!-- mongo&#45;tools&#45;&gt;conda&#45;forge&#45;pinning -->
<g id="edge1" class="edge">
<title>mongo&#45;tools&#45;&gt;conda&#45;forge&#45;pinning</title>
<path fill="none" stroke="black" d="M81.17,-72.41C90.06,-63.65 101.13,-52.73 110.94,-43.06"/>
<polygon fill="black" stroke="black" points="113.48,-45.47 118.15,-35.96 108.57,-40.48 113.48,-45.47"/>
</g>
<!-- opus&#45;tools -->
<g id="node2" class="node">
<title>opus&#45;tools</title>
<g id="a_node2"><a xlink:href="https://github.com/conda-forge/opus-tools-feedstock/pull/1" xlink:title="opus tools">
<ellipse fill="#31688e" stroke="black" cx="206.34" cy="-90" rx="59.59" ry="18"/>
<text text-anchor="middle" x="206.34" y="-86.3" font-family="Times,serif" font-size="14.00" fill="white">opus tools</text>
</a>
</g>
</g>
<!-- opus&#45;tools&#45;&gt;conda&#45;forge&#45;pinning -->
<g id="edge2" class="edge">
<title>opus&#45;tools&#45;&gt;conda&#45;forge&#45;pinning</title>
<path fill="none" stroke="black" d="M189.52,-72.41C180.63,-63.65 169.56,-52.73 159.74,-43.06"/>
<polygon fill="black" stroke="black" points="162.12,-40.48 152.54,-35.96 157.21,-45.47 162.12,-40.48"/>
</g>
</g>
</svg>
