<?xml version="1.0" encoding="UTF-8" standalone="no"?>
<!DOCTYPE svg PUBLIC "-//W3C//DTD SVG 1.1//EN"
 "http://www.w3.org/Graphics/SVG/1.1/DTD/svg11.dtd">
<!-- Generated by graphviz version 2.42.3 (20191010.1750)
 -->
<!-- Title: %3 Pages: 1 -->
<svg width="636pt" height="116pt"
 viewBox="0.00 0.00 636.14 116.00" xmlns="http://www.w3.org/2000/svg" xmlns:xlink="http://www.w3.org/1999/xlink">
<g id="graph0" class="graph" transform="scale(1 1) rotate(0) translate(4 112)">
<title>%3</title>
<polygon fill="white" stroke="transparent" points="-4,4 -4,-112 632.14,-112 632.14,4 -4,4"/>
<!-- kafkacat -->
<g id="node1" class="node">
<title>kafkacat</title>
<g id="a_node1"><a xlink:href="https://github.com/conda-forge/kafkacat-feedstock/pull/6" xlink:title="kafkacat">
<ellipse fill="#31688e" stroke="black" cx="50.05" cy="-90" rx="50.09" ry="18"/>
<text text-anchor="middle" x="50.05" y="-86.3" font-family="Times,serif" font-size="14.00" fill="white">kafkacat</text>
</a>
</g>
</g>
<!-- conda&#45;forge&#45;pinning -->
<g id="node5" class="node">
<title>conda&#45;forge&#45;pinning</title>
<ellipse fill="none" stroke="black" cx="253.05" cy="-18" rx="103.18" ry="18"/>
<text text-anchor="middle" x="253.05" y="-14.3" font-family="Times,serif" font-size="14.00">conda&#45;forge&#45;pinning</text>
</g>
<!-- kafkacat&#45;&gt;conda&#45;forge&#45;pinning -->
<g id="edge1" class="edge">
<title>kafkacat&#45;&gt;conda&#45;forge&#45;pinning</title>
<path fill="none" stroke="black" d="M84.94,-76.97C116.24,-66.18 162.65,-50.17 198.78,-37.71"/>
<polygon fill="black" stroke="black" points="200.37,-40.87 208.68,-34.3 198.09,-34.25 200.37,-40.87"/>
</g>
<!-- pykafka -->
<g id="node2" class="node">
<title>pykafka</title>
<g id="a_node2"><a xlink:href="https://github.com/conda-forge/pykafka-feedstock/pull/9" xlink:title="pykafka">
<ellipse fill="#31688e" stroke="black" cx="163.05" cy="-90" rx="44.69" ry="18"/>
<text text-anchor="middle" x="163.05" y="-86.3" font-family="Times,serif" font-size="14.00" fill="white">pykafka</text>
</a>
</g>
</g>
<!-- pykafka&#45;&gt;conda&#45;forge&#45;pinning -->
<g id="edge2" class="edge">
<title>pykafka&#45;&gt;conda&#45;forge&#45;pinning</title>
<path fill="none" stroke="black" d="M183.02,-73.46C194.94,-64.19 210.3,-52.25 223.59,-41.91"/>
<polygon fill="black" stroke="black" points="225.81,-44.62 231.56,-35.71 221.51,-39.09 225.81,-44.62"/>
</g>
<!-- python&#45;confluent&#45;kafka -->
<g id="node3" class="node">
<title>python&#45;confluent&#45;kafka</title>
<g id="a_node3"><a xlink:href="https://github.com/conda-forge/python-confluent-kafka-feedstock/pull/24" xlink:title="python confluent kafka">
<ellipse fill="#31688e" stroke="black" cx="344.05" cy="-90" rx="118.08" ry="18"/>
<text text-anchor="middle" x="344.05" y="-86.3" font-family="Times,serif" font-size="14.00" fill="white">python confluent kafka</text>
</a>
</g>
</g>
<!-- python&#45;confluent&#45;kafka&#45;&gt;conda&#45;forge&#45;pinning -->
<g id="edge3" class="edge">
<title>python&#45;confluent&#45;kafka&#45;&gt;conda&#45;forge&#45;pinning</title>
<path fill="none" stroke="black" d="M322.02,-72.05C310.28,-63.03 295.67,-51.79 282.93,-41.99"/>
<polygon fill="black" stroke="black" points="284.93,-39.11 274.87,-35.79 280.66,-44.66 284.93,-39.11"/>
</g>
<!-- omniscidb&#45;cpu -->
<g id="node4" class="node">
<title>omniscidb&#45;cpu</title>
<g id="a_node4"><a xlink:href="https://github.com/conda-forge/omniscidb-cpu-feedstock/pull/25" xlink:title="omniscidb cpu">
<ellipse fill="#31688e" stroke="black" cx="554.05" cy="-90" rx="74.19" ry="18"/>
<text text-anchor="middle" x="554.05" y="-86.3" font-family="Times,serif" font-size="14.00" fill="white">omniscidb cpu</text>
</a>
</g>
</g>
<!-- omniscidb&#45;cpu&#45;&gt;conda&#45;forge&#45;pinning -->
<g id="edge4" class="edge">
<title>omniscidb&#45;cpu&#45;&gt;conda&#45;forge&#45;pinning</title>
<path fill="none" stroke="black" d="M502.3,-76.97C452.62,-65.41 377.22,-47.88 322.36,-35.12"/>
<polygon fill="black" stroke="black" points="322.9,-31.65 312.36,-32.8 321.31,-38.47 322.9,-31.65"/>
</g>
</g>
</svg>
