<?xml version="1.0" encoding="UTF-8" standalone="no"?>
<!DOCTYPE svg PUBLIC "-//W3C//DTD SVG 1.1//EN"
 "http://www.w3.org/Graphics/SVG/1.1/DTD/svg11.dtd">
<!-- Generated by graphviz version 2.42.3 (20191010.1750)
 -->
<!-- Title: %3 Pages: 1 -->
<svg width="991pt" height="116pt"
 viewBox="0.00 0.00 990.69 116.00" xmlns="http://www.w3.org/2000/svg" xmlns:xlink="http://www.w3.org/1999/xlink">
<g id="graph0" class="graph" transform="scale(1 1) rotate(0) translate(4 112)">
<title>%3</title>
<polygon fill="white" stroke="transparent" points="-4,4 -4,-112 986.69,-112 986.69,4 -4,4"/>
<!-- emacs -->
<g id="node1" class="node">
<title>emacs</title>
<ellipse fill="#31688e" stroke="black" cx="35.1" cy="-90" rx="35.19" ry="18"/>
<text text-anchor="middle" x="35.1" y="-86.3" font-family="Times,serif" font-size="14.00" fill="white">emacs</text>
</g>
<!-- imread -->
<g id="node2" class="node">
<title>imread</title>
<ellipse fill="#31688e" stroke="black" cx="128.1" cy="-90" rx="40.09" ry="18"/>
<text text-anchor="middle" x="128.1" y="-86.3" font-family="Times,serif" font-size="14.00" fill="white">imread</text>
</g>
<!-- libitk -->
<g id="node3" class="node">
<title>libitk</title>
<ellipse fill="#31688e" stroke="black" cx="227.1" cy="-90" rx="40.09" ry="18"/>
<text text-anchor="middle" x="227.1" y="-86.3" font-family="Times,serif" font-size="14.00" fill="white">libitk</text>
</g>
<!-- sdl2_image -->
<g id="node4" class="node">
<title>sdl2_image</title>
<ellipse fill="#31688e" stroke="black" cx="345.1" cy="-90" rx="59.59" ry="18"/>
<text text-anchor="middle" x="345.1" y="-86.3" font-family="Times,serif" font-size="14.00" fill="white">sdl2_image</text>
</g>
<!-- leptonica -->
<g id="node5" class="node">
<title>leptonica</title>
<ellipse fill="#31688e" stroke="black" cx="477.1" cy="-90" rx="54.69" ry="18"/>
<text text-anchor="middle" x="477.1" y="-86.3" font-family="Times,serif" font-size="14.00" fill="white">leptonica</text>
</g>
<!-- tesseract -->
<g id="node6" class="node">
<title>tesseract</title>
<ellipse fill="#fde725" stroke="black" cx="477.1" cy="-18" rx="54.69" ry="18"/>
<text text-anchor="middle" x="477.1" y="-14.3" font-family="Times,serif" font-size="14.00">tesseract</text>
</g>
<!-- leptonica&#45;&gt;tesseract -->
<g id="edge1" class="edge">
<title>leptonica&#45;&gt;tesseract</title>
<path fill="none" stroke="black" d="M477.1,-71.7C477.1,-63.98 477.1,-54.71 477.1,-46.11"/>
<polygon fill="black" stroke="black" points="480.6,-46.1 477.1,-36.1 473.6,-46.1 480.6,-46.1"/>
</g>
<!-- graphicsmagick -->
<g id="node7" class="node">
<title>graphicsmagick</title>
<ellipse fill="#31688e" stroke="black" cx="629.1" cy="-90" rx="79.09" ry="18"/>
<text text-anchor="middle" x="629.1" y="-86.3" font-family="Times,serif" font-size="14.00" fill="white">graphicsmagick</text>
</g>
<!-- openimageio -->
<g id="node8" class="node">
<title>openimageio</title>
<ellipse fill="#31688e" stroke="black" cx="791.1" cy="-90" rx="64.19" ry="18"/>
<text text-anchor="middle" x="791.1" y="-86.3" font-family="Times,serif" font-size="14.00" fill="white">openimageio</text>
</g>
<!-- openslide -->
<g id="node9" class="node">
<title>openslide</title>
<ellipse fill="#31688e" stroke="black" cx="928.1" cy="-90" rx="54.69" ry="18"/>
<text text-anchor="middle" x="928.1" y="-86.3" font-family="Times,serif" font-size="14.00" fill="white">openslide</text>
</g>
<!-- libvips -->
<g id="node10" class="node">
<title>libvips</title>
<ellipse fill="#fde725" stroke="black" cx="928.1" cy="-18" rx="44.69" ry="18"/>
<text text-anchor="middle" x="928.1" y="-14.3" font-family="Times,serif" font-size="14.00">libvips</text>
</g>
<!-- openslide&#45;&gt;libvips -->
<g id="edge2" class="edge">
<title>openslide&#45;&gt;libvips</title>
<path fill="none" stroke="black" d="M928.1,-71.7C928.1,-63.98 928.1,-54.71 928.1,-46.11"/>
<polygon fill="black" stroke="black" points="931.6,-46.1 928.1,-36.1 924.6,-46.1 931.6,-46.1"/>
</g>
</g>
</svg>
