<?xml version="1.0" encoding="UTF-8" standalone="no"?>
<!DOCTYPE svg PUBLIC "-//W3C//DTD SVG 1.1//EN"
 "http://www.w3.org/Graphics/SVG/1.1/DTD/svg11.dtd">
<!-- Generated by graphviz version 2.40.1 (20161225.0304)
 -->
<!-- Title: %3 Pages: 1 -->
<svg width="1085pt" height="188pt"
 viewBox="0.00 0.00 1084.89 188.00" xmlns="http://www.w3.org/2000/svg" xmlns:xlink="http://www.w3.org/1999/xlink">
<g id="graph0" class="graph" transform="scale(1 1) rotate(0) translate(4 184)">
<title>%3</title>
<polygon fill="#ffffff" stroke="transparent" points="-4,4 -4,-184 1080.8916,-184 1080.8916,4 -4,4"/>
<!-- emacs -->
<g id="node1" class="node">
<title>emacs</title>
<ellipse fill="#31688e" stroke="#000000" cx="158.5473" cy="-162" rx="35.194" ry="18"/>
<text text-anchor="middle" x="158.5473" y="-158.3" font-family="Times,serif" font-size="14.00" fill="#ffffff">emacs</text>
</g>
<!-- gdal -->
<g id="node2" class="node">
<title>gdal</title>
<ellipse fill="#fde725" stroke="#000000" cx="30.5473" cy="-18" rx="30.5947" ry="18"/>
<text text-anchor="middle" x="30.5473" y="-14.3" font-family="Times,serif" font-size="14.00" fill="#000000">gdal</text>
</g>
<!-- imagemagick -->
<g id="node3" class="node">
<title>imagemagick</title>
<ellipse fill="#fde725" stroke="#000000" cx="193.5473" cy="-90" rx="64.189" ry="18"/>
<text text-anchor="middle" x="193.5473" y="-86.3" font-family="Times,serif" font-size="14.00" fill="#000000">imagemagick</text>
</g>
<!-- libvips -->
<g id="node15" class="node">
<title>libvips</title>
<ellipse fill="#fde725" stroke="#000000" cx="193.5473" cy="-18" rx="44.6926" ry="18"/>
<text text-anchor="middle" x="193.5473" y="-14.3" font-family="Times,serif" font-size="14.00" fill="#000000">libvips</text>
</g>
<!-- imagemagick&#45;&gt;libvips -->
<g id="edge1" class="edge">
<title>imagemagick&#45;&gt;libvips</title>
<path fill="none" stroke="#000000" d="M193.5473,-71.8314C193.5473,-64.131 193.5473,-54.9743 193.5473,-46.4166"/>
<polygon fill="#000000" stroke="#000000" points="197.0474,-46.4132 193.5473,-36.4133 190.0474,-46.4133 197.0474,-46.4132"/>
</g>
<!-- imread -->
<g id="node4" class="node">
<title>imread</title>
<ellipse fill="#31688e" stroke="#000000" cx="369.5473" cy="-162" rx="40.0939" ry="18"/>
<text text-anchor="middle" x="369.5473" y="-158.3" font-family="Times,serif" font-size="14.00" fill="#ffffff">imread</text>
</g>
<!-- libcdms -->
<g id="node5" class="node">
<title>libcdms</title>
<ellipse fill="#31688e" stroke="#000000" cx="472.5473" cy="-162" rx="44.6926" ry="18"/>
<text text-anchor="middle" x="472.5473" y="-158.3" font-family="Times,serif" font-size="14.00" fill="#ffffff">libcdms</text>
</g>
<!-- libitk -->
<g id="node6" class="node">
<title>libitk</title>
<ellipse fill="#31688e" stroke="#000000" cx="575.5473" cy="-162" rx="40.0939" ry="18"/>
<text text-anchor="middle" x="575.5473" y="-158.3" font-family="Times,serif" font-size="14.00" fill="#ffffff">libitk</text>
</g>
<!-- openjpeg -->
<g id="node7" class="node">
<title>openjpeg</title>
<ellipse fill="#31688e" stroke="#000000" cx="261.5473" cy="-162" rx="50.0912" ry="18"/>
<text text-anchor="middle" x="261.5473" y="-158.3" font-family="Times,serif" font-size="14.00" fill="#ffffff">openjpeg</text>
</g>
<!-- openjpeg&#45;&gt;gdal -->
<g id="edge2" class="edge">
<title>openjpeg&#45;&gt;gdal</title>
<path fill="none" stroke="#000000" d="M224.2639,-149.9553C217.095,-147.8299 209.6179,-145.7429 202.5473,-144 119.0984,-123.4296 67.373,-174.1892 12.5473,-108 -2.2152,-90.1777 5.5658,-63.6105 15.0629,-43.9569"/>
<polygon fill="#000000" stroke="#000000" points="18.2485,-45.4176 19.7717,-34.9328 12.0426,-42.1793 18.2485,-45.4176"/>
</g>
<!-- openjpeg&#45;&gt;imagemagick -->
<g id="edge3" class="edge">
<title>openjpeg&#45;&gt;imagemagick</title>
<path fill="none" stroke="#000000" d="M245.4322,-144.937C236.9195,-135.9235 226.3157,-124.6959 216.9169,-114.7443"/>
<polygon fill="#000000" stroke="#000000" points="219.4299,-112.3076 210.019,-107.4407 214.3407,-117.114 219.4299,-112.3076"/>
</g>
<!-- poppler -->
<g id="node8" class="node">
<title>poppler</title>
<ellipse fill="#fde725" stroke="#000000" cx="66.5473" cy="-90" rx="44.6926" ry="18"/>
<text text-anchor="middle" x="66.5473" y="-86.3" font-family="Times,serif" font-size="14.00" fill="#000000">poppler</text>
</g>
<!-- openjpeg&#45;&gt;poppler -->
<g id="edge6" class="edge">
<title>openjpeg&#45;&gt;poppler</title>
<path fill="none" stroke="#000000" d="M226.2343,-148.9613C193.3289,-136.8117 144.2047,-118.6735 109.1393,-105.7263"/>
<polygon fill="#000000" stroke="#000000" points="110.2404,-102.4019 99.6471,-102.2215 107.8157,-108.9686 110.2404,-102.4019"/>
</g>
<!-- leptonica -->
<g id="node10" class="node">
<title>leptonica</title>
<ellipse fill="#fde725" stroke="#000000" cx="457.5473" cy="-90" rx="54.6905" ry="18"/>
<text text-anchor="middle" x="457.5473" y="-86.3" font-family="Times,serif" font-size="14.00" fill="#000000">leptonica</text>
</g>
<!-- openjpeg&#45;&gt;leptonica -->
<g id="edge4" class="edge">
<title>openjpeg&#45;&gt;leptonica</title>
<path fill="none" stroke="#000000" d="M296.5882,-149.1278C328.5942,-137.3705 376.1372,-119.9058 411.2603,-107.0034"/>
<polygon fill="#000000" stroke="#000000" points="412.6344,-110.2274 420.8142,-103.4938 410.2206,-103.6567 412.6344,-110.2274"/>
</g>
<!-- tesseract -->
<g id="node11" class="node">
<title>tesseract</title>
<ellipse fill="#fde725" stroke="#000000" cx="498.5473" cy="-18" rx="54.6905" ry="18"/>
<text text-anchor="middle" x="498.5473" y="-14.3" font-family="Times,serif" font-size="14.00" fill="#000000">tesseract</text>
</g>
<!-- openjpeg&#45;&gt;tesseract -->
<g id="edge7" class="edge">
<title>openjpeg&#45;&gt;tesseract</title>
<path fill="none" stroke="#000000" d="M298.8167,-149.8979C305.9868,-147.7778 313.4681,-145.7074 320.5473,-144 364.6598,-133.3605 492.4261,-142.8004 521.5473,-108 536.4682,-90.1692 527.2892,-63.8784 516.4222,-44.3112"/>
<polygon fill="#000000" stroke="#000000" points="519.3461,-42.3805 511.2212,-35.5807 513.3323,-45.9631 519.3461,-42.3805"/>
</g>
<!-- openslide -->
<g id="node14" class="node">
<title>openslide</title>
<ellipse fill="#fde725" stroke="#000000" cx="330.5473" cy="-90" rx="54.6905" ry="18"/>
<text text-anchor="middle" x="330.5473" y="-86.3" font-family="Times,serif" font-size="14.00" fill="#000000">openslide</text>
</g>
<!-- openjpeg&#45;&gt;openslide -->
<g id="edge5" class="edge">
<title>openjpeg&#45;&gt;openslide</title>
<path fill="none" stroke="#000000" d="M277.8993,-144.937C286.5373,-135.9235 297.297,-124.6959 306.834,-114.7443"/>
<polygon fill="#000000" stroke="#000000" points="309.4412,-117.0823 313.8333,-107.4407 304.3873,-112.2389 309.4412,-117.0823"/>
</g>
<!-- poppler&#45;&gt;gdal -->
<g id="edge8" class="edge">
<title>poppler&#45;&gt;gdal</title>
<path fill="none" stroke="#000000" d="M57.6484,-72.2022C53.476,-63.8574 48.4181,-53.7417 43.8071,-44.5197"/>
<polygon fill="#000000" stroke="#000000" points="46.8223,-42.7236 39.2196,-35.3446 40.5613,-45.8541 46.8223,-42.7236"/>
</g>
<!-- poppler&#45;&gt;libvips -->
<g id="edge9" class="edge">
<title>poppler&#45;&gt;libvips</title>
<path fill="none" stroke="#000000" d="M92.5541,-75.256C111.6449,-64.4328 137.7799,-49.6162 158.6803,-37.7671"/>
<polygon fill="#000000" stroke="#000000" points="160.6022,-40.7009 167.5753,-32.7243 157.1498,-34.6115 160.6022,-40.7009"/>
</g>
<!-- sdl2_image -->
<g id="node9" class="node">
<title>sdl2_image</title>
<ellipse fill="#31688e" stroke="#000000" cx="693.5473" cy="-162" rx="59.5901" ry="18"/>
<text text-anchor="middle" x="693.5473" y="-158.3" font-family="Times,serif" font-size="14.00" fill="#ffffff">sdl2_image</text>
</g>
<!-- leptonica&#45;&gt;tesseract -->
<g id="edge10" class="edge">
<title>leptonica&#45;&gt;tesseract</title>
<path fill="none" stroke="#000000" d="M467.6821,-72.2022C472.413,-63.8944 478.1432,-53.8316 483.3757,-44.6427"/>
<polygon fill="#000000" stroke="#000000" points="486.48,-46.2644 488.387,-35.8425 480.3971,-42.8005 486.48,-46.2644"/>
</g>
<!-- graphicsmagick -->
<g id="node12" class="node">
<title>graphicsmagick</title>
<ellipse fill="#31688e" stroke="#000000" cx="850.5473" cy="-162" rx="79.0865" ry="18"/>
<text text-anchor="middle" x="850.5473" y="-158.3" font-family="Times,serif" font-size="14.00" fill="#ffffff">graphicsmagick</text>
</g>
<!-- openimageio -->
<g id="node13" class="node">
<title>openimageio</title>
<ellipse fill="#31688e" stroke="#000000" cx="1012.5473" cy="-162" rx="64.189" ry="18"/>
<text text-anchor="middle" x="1012.5473" y="-158.3" font-family="Times,serif" font-size="14.00" fill="#ffffff">openimageio</text>
</g>
<!-- openslide&#45;&gt;libvips -->
<g id="edge11" class="edge">
<title>openslide&#45;&gt;libvips</title>
<path fill="none" stroke="#000000" d="M301.4931,-74.7307C280.6449,-63.7739 252.4017,-48.9308 230.034,-37.1755"/>
<polygon fill="#000000" stroke="#000000" points="231.6382,-34.0647 221.1579,-32.5107 228.3817,-40.2611 231.6382,-34.0647"/>
</g>
</g>
</svg>
