<?xml version="1.0" encoding="UTF-8" standalone="no"?>
<!DOCTYPE svg PUBLIC "-//W3C//DTD SVG 1.1//EN"
 "http://www.w3.org/Graphics/SVG/1.1/DTD/svg11.dtd">
<!-- Generated by graphviz version 2.42.3 (20191010.1750)
 -->
<!-- Title: %3 Pages: 1 -->
<svg width="903pt" height="116pt"
 viewBox="0.00 0.00 902.89 116.00" xmlns="http://www.w3.org/2000/svg" xmlns:xlink="http://www.w3.org/1999/xlink">
<g id="graph0" class="graph" transform="scale(1 1) rotate(0) translate(4 112)">
<title>%3</title>
<polygon fill="white" stroke="transparent" points="-4,4 -4,-112 898.89,-112 898.89,4 -4,4"/>
<!-- imread -->
<g id="node1" class="node">
<title>imread</title>
<ellipse fill="#31688e" stroke="black" cx="40.3" cy="-90" rx="40.09" ry="18"/>
<text text-anchor="middle" x="40.3" y="-86.3" font-family="Times,serif" font-size="14.00" fill="white">imread</text>
</g>
<!-- libitk -->
<g id="node2" class="node">
<title>libitk</title>
<ellipse fill="#31688e" stroke="black" cx="139.3" cy="-90" rx="40.09" ry="18"/>
<text text-anchor="middle" x="139.3" y="-86.3" font-family="Times,serif" font-size="14.00" fill="white">libitk</text>
</g>
<!-- sdl2_image -->
<g id="node3" class="node">
<title>sdl2_image</title>
<ellipse fill="#31688e" stroke="black" cx="257.3" cy="-90" rx="59.59" ry="18"/>
<text text-anchor="middle" x="257.3" y="-86.3" font-family="Times,serif" font-size="14.00" fill="white">sdl2_image</text>
</g>
<!-- tesseract -->
<g id="node4" class="node">
<title>tesseract</title>
<ellipse fill="#31688e" stroke="black" cx="389.3" cy="-90" rx="54.69" ry="18"/>
<text text-anchor="middle" x="389.3" y="-86.3" font-family="Times,serif" font-size="14.00" fill="white">tesseract</text>
</g>
<!-- graphicsmagick -->
<g id="node5" class="node">
<title>graphicsmagick</title>
<ellipse fill="#31688e" stroke="black" cx="541.3" cy="-90" rx="79.09" ry="18"/>
<text text-anchor="middle" x="541.3" y="-86.3" font-family="Times,serif" font-size="14.00" fill="white">graphicsmagick</text>
</g>
<!-- openimageio -->
<g id="node6" class="node">
<title>openimageio</title>
<ellipse fill="#31688e" stroke="black" cx="703.3" cy="-90" rx="64.19" ry="18"/>
<text text-anchor="middle" x="703.3" y="-86.3" font-family="Times,serif" font-size="14.00" fill="white">openimageio</text>
</g>
<!-- openslide -->
<g id="node7" class="node">
<title>openslide</title>
<ellipse fill="#31688e" stroke="black" cx="840.3" cy="-90" rx="54.69" ry="18"/>
<text text-anchor="middle" x="840.3" y="-86.3" font-family="Times,serif" font-size="14.00" fill="white">openslide</text>
</g>
<!-- libvips -->
<g id="node8" class="node">
<title>libvips</title>
<ellipse fill="#fde725" stroke="black" cx="840.3" cy="-18" rx="44.69" ry="18"/>
<text text-anchor="middle" x="840.3" y="-14.3" font-family="Times,serif" font-size="14.00">libvips</text>
</g>
<!-- openslide&#45;&gt;libvips -->
<g id="edge1" class="edge">
<title>openslide&#45;&gt;libvips</title>
<path fill="none" stroke="black" d="M840.3,-71.7C840.3,-63.98 840.3,-54.71 840.3,-46.11"/>
<polygon fill="black" stroke="black" points="843.8,-46.1 840.3,-36.1 836.8,-46.1 843.8,-46.1"/>
</g>
</g>
</svg>
