<?xml version="1.0" encoding="UTF-8" standalone="no"?>
<!DOCTYPE svg PUBLIC "-//W3C//DTD SVG 1.1//EN"
 "http://www.w3.org/Graphics/SVG/1.1/DTD/svg11.dtd">
<!-- Generated by graphviz version 2.42.3 (20191010.1750)
 -->
<!-- Title: %3 Pages: 1 -->
<svg width="1071pt" height="116pt"
 viewBox="0.00 0.00 1070.69 116.00" xmlns="http://www.w3.org/2000/svg" xmlns:xlink="http://www.w3.org/1999/xlink">
<g id="graph0" class="graph" transform="scale(1 1) rotate(0) translate(4 112)">
<title>%3</title>
<polygon fill="white" stroke="transparent" points="-4,4 -4,-112 1066.69,-112 1066.69,4 -4,4"/>
<!-- emacs -->
<g id="node1" class="node">
<title>emacs</title>
<ellipse fill="#31688e" stroke="black" cx="35.1" cy="-90" rx="35.19" ry="18"/>
<text text-anchor="middle" x="35.1" y="-86.3" font-family="Times,serif" font-size="14.00" fill="white">emacs</text>
</g>
<!-- gdal -->
<g id="node2" class="node">
<title>gdal</title>
<ellipse fill="#31688e" stroke="black" cx="119.1" cy="-90" rx="30.59" ry="18"/>
<text text-anchor="middle" x="119.1" y="-86.3" font-family="Times,serif" font-size="14.00" fill="white">gdal</text>
</g>
<!-- imread -->
<g id="node3" class="node">
<title>imread</title>
<ellipse fill="#31688e" stroke="black" cx="208.1" cy="-90" rx="40.09" ry="18"/>
<text text-anchor="middle" x="208.1" y="-86.3" font-family="Times,serif" font-size="14.00" fill="white">imread</text>
</g>
<!-- libitk -->
<g id="node4" class="node">
<title>libitk</title>
<ellipse fill="#31688e" stroke="black" cx="307.1" cy="-90" rx="40.09" ry="18"/>
<text text-anchor="middle" x="307.1" y="-86.3" font-family="Times,serif" font-size="14.00" fill="white">libitk</text>
</g>
<!-- sdl2_image -->
<g id="node5" class="node">
<title>sdl2_image</title>
<ellipse fill="#31688e" stroke="black" cx="425.1" cy="-90" rx="59.59" ry="18"/>
<text text-anchor="middle" x="425.1" y="-86.3" font-family="Times,serif" font-size="14.00" fill="white">sdl2_image</text>
</g>
<!-- leptonica -->
<g id="node6" class="node">
<title>leptonica</title>
<ellipse fill="#31688e" stroke="black" cx="557.1" cy="-90" rx="54.69" ry="18"/>
<text text-anchor="middle" x="557.1" y="-86.3" font-family="Times,serif" font-size="14.00" fill="white">leptonica</text>
</g>
<!-- tesseract -->
<g id="node7" class="node">
<title>tesseract</title>
<ellipse fill="#fde725" stroke="black" cx="557.1" cy="-18" rx="54.69" ry="18"/>
<text text-anchor="middle" x="557.1" y="-14.3" font-family="Times,serif" font-size="14.00">tesseract</text>
</g>
<!-- leptonica&#45;&gt;tesseract -->
<g id="edge1" class="edge">
<title>leptonica&#45;&gt;tesseract</title>
<path fill="none" stroke="black" d="M557.1,-71.7C557.1,-63.98 557.1,-54.71 557.1,-46.11"/>
<polygon fill="black" stroke="black" points="560.6,-46.1 557.1,-36.1 553.6,-46.1 560.6,-46.1"/>
</g>
<!-- graphicsmagick -->
<g id="node8" class="node">
<title>graphicsmagick</title>
<ellipse fill="#31688e" stroke="black" cx="709.1" cy="-90" rx="79.09" ry="18"/>
<text text-anchor="middle" x="709.1" y="-86.3" font-family="Times,serif" font-size="14.00" fill="white">graphicsmagick</text>
</g>
<!-- openimageio -->
<g id="node9" class="node">
<title>openimageio</title>
<ellipse fill="#31688e" stroke="black" cx="871.1" cy="-90" rx="64.19" ry="18"/>
<text text-anchor="middle" x="871.1" y="-86.3" font-family="Times,serif" font-size="14.00" fill="white">openimageio</text>
</g>
<!-- openslide -->
<g id="node10" class="node">
<title>openslide</title>
<ellipse fill="#31688e" stroke="black" cx="1008.1" cy="-90" rx="54.69" ry="18"/>
<text text-anchor="middle" x="1008.1" y="-86.3" font-family="Times,serif" font-size="14.00" fill="white">openslide</text>
</g>
<!-- libvips -->
<g id="node11" class="node">
<title>libvips</title>
<ellipse fill="#fde725" stroke="black" cx="1008.1" cy="-18" rx="44.69" ry="18"/>
<text text-anchor="middle" x="1008.1" y="-14.3" font-family="Times,serif" font-size="14.00">libvips</text>
</g>
<!-- openslide&#45;&gt;libvips -->
<g id="edge2" class="edge">
<title>openslide&#45;&gt;libvips</title>
<path fill="none" stroke="black" d="M1008.1,-71.7C1008.1,-63.98 1008.1,-54.71 1008.1,-46.11"/>
<polygon fill="black" stroke="black" points="1011.6,-46.1 1008.1,-36.1 1004.6,-46.1 1011.6,-46.1"/>
</g>
</g>
</svg>
