<?xml version="1.0" encoding="UTF-8" standalone="no"?>
<!DOCTYPE svg PUBLIC "-//W3C//DTD SVG 1.1//EN"
 "http://www.w3.org/Graphics/SVG/1.1/DTD/svg11.dtd">
<!-- Generated by graphviz version 2.40.1 (20161225.0304)
 -->
<!-- Title: %3 Pages: 1 -->
<svg width="2531pt" height="188pt"
 viewBox="0.00 0.00 2531.14 188.00" xmlns="http://www.w3.org/2000/svg" xmlns:xlink="http://www.w3.org/1999/xlink">
<g id="graph0" class="graph" transform="scale(1 1) rotate(0) translate(4 184)">
<title>%3</title>
<polygon fill="#ffffff" stroke="transparent" points="-4,4 -4,-184 2527.1424,-184 2527.1424,4 -4,4"/>
<!-- emacs -->
<g id="node1" class="node">
<title>emacs</title>
<ellipse fill="#35b779" stroke="#000000" cx="35.0969" cy="-162" rx="35.194" ry="18"/>
<text text-anchor="middle" x="35.0969" y="-158.3" font-family="Times,serif" font-size="14.00" fill="#000000">emacs</text>
</g>
<!-- gdal -->
<g id="node2" class="node">
<title>gdal</title>
<ellipse fill="#fde725" stroke="#000000" cx="760.0969" cy="-18" rx="30.5947" ry="18"/>
<text text-anchor="middle" x="760.0969" y="-14.3" font-family="Times,serif" font-size="14.00" fill="#000000">gdal</text>
</g>
<!-- gdk&#45;pixbuf -->
<g id="node3" class="node">
<title>gdk&#45;pixbuf</title>
<ellipse fill="#31688e" stroke="#000000" cx="148.0969" cy="-162" rx="59.5901" ry="18"/>
<text text-anchor="middle" x="148.0969" y="-158.3" font-family="Times,serif" font-size="14.00" fill="#ffffff">gdk pixbuf</text>
</g>
<!-- imagemagick -->
<g id="node6" class="node">
<title>imagemagick</title>
<ellipse fill="#fde725" stroke="#000000" cx="505.0969" cy="-90" rx="64.189" ry="18"/>
<text text-anchor="middle" x="505.0969" y="-86.3" font-family="Times,serif" font-size="14.00" fill="#000000">imagemagick</text>
</g>
<!-- gdk&#45;pixbuf&#45;&gt;imagemagick -->
<g id="edge5" class="edge">
<title>gdk&#45;pixbuf&#45;&gt;imagemagick</title>
<path fill="none" stroke="#000000" d="M192.4986,-149.7942C200.6499,-147.7312 209.1065,-145.7076 217.0969,-144 311.8433,-123.7518 337.2167,-127.6116 432.0969,-108 437.1601,-106.9534 442.4042,-105.7998 447.6518,-104.5973"/>
<polygon fill="#000000" stroke="#000000" points="448.7649,-107.9313 457.7013,-102.2399 447.1662,-101.1163 448.7649,-107.9313"/>
</g>
<!-- gtk2 -->
<g id="node23" class="node">
<title>gtk2</title>
<ellipse fill="#fde725" stroke="#000000" cx="59.0969" cy="-90" rx="30.5947" ry="18"/>
<text text-anchor="middle" x="59.0969" y="-86.3" font-family="Times,serif" font-size="14.00" fill="#000000">gtk2</text>
</g>
<!-- gdk&#45;pixbuf&#45;&gt;gtk2 -->
<g id="edge1" class="edge">
<title>gdk&#45;pixbuf&#45;&gt;gtk2</title>
<path fill="none" stroke="#000000" d="M127.0051,-144.937C114.49,-134.8124 98.5217,-121.8943 85.2144,-111.1287"/>
<polygon fill="#000000" stroke="#000000" points="87.303,-108.3165 77.3272,-104.7481 82.9003,-113.7587 87.303,-108.3165"/>
</g>
<!-- root -->
<g id="node26" class="node">
<title>root</title>
<ellipse fill="#fde725" stroke="#000000" cx="177.0969" cy="-90" rx="30.5947" ry="18"/>
<text text-anchor="middle" x="177.0969" y="-86.3" font-family="Times,serif" font-size="14.00" fill="#000000">root</text>
</g>
<!-- gdk&#45;pixbuf&#45;&gt;root -->
<g id="edge4" class="edge">
<title>gdk&#45;pixbuf&#45;&gt;root</title>
<path fill="none" stroke="#000000" d="M155.4148,-143.8314C158.6333,-135.8406 162.4834,-126.2819 166.0401,-117.4514"/>
<polygon fill="#000000" stroke="#000000" points="169.3921,-118.4969 169.8818,-107.9134 162.899,-115.8816 169.3921,-118.4969"/>
</g>
<!-- openslide -->
<g id="node31" class="node">
<title>openslide</title>
<ellipse fill="#fde725" stroke="#000000" cx="280.0969" cy="-90" rx="54.6905" ry="18"/>
<text text-anchor="middle" x="280.0969" y="-86.3" font-family="Times,serif" font-size="14.00" fill="#000000">openslide</text>
</g>
<!-- gdk&#45;pixbuf&#45;&gt;openslide -->
<g id="edge3" class="edge">
<title>gdk&#45;pixbuf&#45;&gt;openslide</title>
<path fill="none" stroke="#000000" d="M177.0648,-146.1993C196.3685,-135.67 221.9211,-121.7322 242.7496,-110.3713"/>
<polygon fill="#000000" stroke="#000000" points="244.5474,-113.3775 251.6503,-105.5163 241.1954,-107.2322 244.5474,-113.3775"/>
</g>
<!-- libvips -->
<g id="node32" class="node">
<title>libvips</title>
<ellipse fill="#fde725" stroke="#000000" cx="447.0969" cy="-18" rx="44.6926" ry="18"/>
<text text-anchor="middle" x="447.0969" y="-14.3" font-family="Times,serif" font-size="14.00" fill="#000000">libvips</text>
</g>
<!-- gdk&#45;pixbuf&#45;&gt;libvips -->
<g id="edge2" class="edge">
<title>gdk&#45;pixbuf&#45;&gt;libvips</title>
<path fill="none" stroke="#000000" d="M138.7386,-143.866C129.8976,-123.9047 120.2798,-91.9997 137.0969,-72 169.0204,-34.0349 311.6435,-22.7593 391.8504,-19.412"/>
<polygon fill="#000000" stroke="#000000" points="392.4041,-22.8932 402.2606,-19.0074 392.1322,-15.8985 392.4041,-22.8932"/>
</g>
<!-- geotiff -->
<g id="node4" class="node">
<title>geotiff</title>
<ellipse fill="#31688e" stroke="#000000" cx="816.0969" cy="-90" rx="44.6926" ry="18"/>
<text text-anchor="middle" x="816.0969" y="-86.3" font-family="Times,serif" font-size="14.00" fill="#ffffff">geotiff</text>
</g>
<!-- geotiff&#45;&gt;gdal -->
<g id="edge6" class="edge">
<title>geotiff&#45;&gt;gdal</title>
<path fill="none" stroke="#000000" d="M802.5408,-72.5708C795.6309,-63.6866 787.1048,-52.7245 779.5114,-42.9615"/>
<polygon fill="#000000" stroke="#000000" points="782.0447,-40.5176 773.1425,-34.7729 776.5192,-44.8153 782.0447,-40.5176"/>
</g>
<!-- graphviz -->
<g id="node5" class="node">
<title>graphviz</title>
<ellipse fill="#35b779" stroke="#000000" cx="474.0969" cy="-162" rx="50.0912" ry="18"/>
<text text-anchor="middle" x="474.0969" y="-158.3" font-family="Times,serif" font-size="14.00" fill="#000000">graphviz</text>
</g>
<!-- graphviz&#45;&gt;imagemagick -->
<g id="edge7" class="edge">
<title>graphviz&#45;&gt;imagemagick</title>
<path fill="none" stroke="#000000" d="M481.7598,-144.2022C485.2359,-136.1287 489.4257,-126.3976 493.2902,-117.422"/>
<polygon fill="#000000" stroke="#000000" points="496.5668,-118.6621 497.3068,-108.0931 490.1375,-115.8938 496.5668,-118.6621"/>
</g>
<!-- graphviz&#45;&gt;root -->
<g id="edge8" class="edge">
<title>graphviz&#45;&gt;root</title>
<path fill="none" stroke="#000000" d="M427.1238,-155.4408C374.7664,-147.3811 288.0038,-131.7786 216.0969,-108 214.1853,-107.3679 212.243,-106.6688 210.2979,-105.924"/>
<polygon fill="#000000" stroke="#000000" points="211.2539,-102.5308 200.6769,-101.9169 208.5625,-108.9927 211.2539,-102.5308"/>
</g>
<!-- imagemagick&#45;&gt;libvips -->
<g id="edge9" class="edge">
<title>imagemagick&#45;&gt;libvips</title>
<path fill="none" stroke="#000000" d="M490.7598,-72.2022C483.7545,-63.506 475.2001,-52.8867 467.5256,-43.3598"/>
<polygon fill="#000000" stroke="#000000" points="470.0679,-40.9365 461.0689,-35.3446 464.6166,-45.3278 470.0679,-40.9365"/>
</g>
<!-- imread -->
<g id="node7" class="node">
<title>imread</title>
<ellipse fill="#fde725" stroke="#000000" cx="1123.0969" cy="-90" rx="40.0939" ry="18"/>
<text text-anchor="middle" x="1123.0969" y="-86.3" font-family="Times,serif" font-size="14.00" fill="#000000">imread</text>
</g>
<!-- libcdms -->
<g id="node8" class="node">
<title>libcdms</title>
<ellipse fill="#35b779" stroke="#000000" cx="1335.0969" cy="-162" rx="44.6926" ry="18"/>
<text text-anchor="middle" x="1335.0969" y="-158.3" font-family="Times,serif" font-size="14.00" fill="#000000">libcdms</text>
</g>
<!-- libgd -->
<g id="node9" class="node">
<title>libgd</title>
<ellipse fill="#fde725" stroke="#000000" cx="1216.0969" cy="-90" rx="35.194" ry="18"/>
<text text-anchor="middle" x="1216.0969" y="-86.3" font-family="Times,serif" font-size="14.00" fill="#000000">libgd</text>
</g>
<!-- libitk -->
<g id="node10" class="node">
<title>libitk</title>
<ellipse fill="#35b779" stroke="#000000" cx="1522.0969" cy="-162" rx="40.0939" ry="18"/>
<text text-anchor="middle" x="1522.0969" y="-158.3" font-family="Times,serif" font-size="14.00" fill="#000000">libitk</text>
</g>
<!-- opencv -->
<g id="node11" class="node">
<title>opencv</title>
<ellipse fill="#fde725" stroke="#000000" cx="1309.0969" cy="-90" rx="40.0939" ry="18"/>
<text text-anchor="middle" x="1309.0969" y="-86.3" font-family="Times,serif" font-size="14.00" fill="#000000">opencv</text>
</g>
<!-- openjpeg -->
<g id="node12" class="node">
<title>openjpeg</title>
<ellipse fill="#31688e" stroke="#000000" cx="668.0969" cy="-162" rx="50.0912" ry="18"/>
<text text-anchor="middle" x="668.0969" y="-158.3" font-family="Times,serif" font-size="14.00" fill="#ffffff">openjpeg</text>
</g>
<!-- openjpeg&#45;&gt;gdal -->
<g id="edge10" class="edge">
<title>openjpeg&#45;&gt;gdal</title>
<path fill="none" stroke="#000000" d="M679.3779,-144.3428C695.484,-119.1332 725.1664,-72.6738 743.7008,-43.6634"/>
<polygon fill="#000000" stroke="#000000" points="746.8609,-45.218 749.2954,-34.9066 740.9621,-41.4492 746.8609,-45.218"/>
</g>
<!-- openjpeg&#45;&gt;imagemagick -->
<g id="edge11" class="edge">
<title>openjpeg&#45;&gt;imagemagick</title>
<path fill="none" stroke="#000000" d="M636.2819,-147.9468C611.4188,-136.9643 576.5798,-121.5753 549.0528,-109.4161"/>
<polygon fill="#000000" stroke="#000000" points="550.211,-106.1015 539.6494,-105.2625 547.3826,-112.5046 550.211,-106.1015"/>
</g>
<!-- poppler -->
<g id="node15" class="node">
<title>poppler</title>
<ellipse fill="#fde725" stroke="#000000" cx="632.0969" cy="-90" rx="44.6926" ry="18"/>
<text text-anchor="middle" x="632.0969" y="-86.3" font-family="Times,serif" font-size="14.00" fill="#000000">poppler</text>
</g>
<!-- openjpeg&#45;&gt;poppler -->
<g id="edge14" class="edge">
<title>openjpeg&#45;&gt;poppler</title>
<path fill="none" stroke="#000000" d="M659.198,-144.2022C655.0874,-135.981 650.1174,-126.041 645.562,-116.9301"/>
<polygon fill="#000000" stroke="#000000" points="648.6208,-115.2216 641.0182,-107.8425 642.3599,-118.3521 648.6208,-115.2216"/>
</g>
<!-- leptonica -->
<g id="node21" class="node">
<title>leptonica</title>
<ellipse fill="#fde725" stroke="#000000" cx="972.0969" cy="-90" rx="54.6905" ry="18"/>
<text text-anchor="middle" x="972.0969" y="-86.3" font-family="Times,serif" font-size="14.00" fill="#000000">leptonica</text>
</g>
<!-- openjpeg&#45;&gt;leptonica -->
<g id="edge12" class="edge">
<title>openjpeg&#45;&gt;leptonica</title>
<path fill="none" stroke="#000000" d="M711.0683,-152.5226C758.2547,-142.0232 836.2164,-124.4039 903.0969,-108 908.4324,-106.6913 913.9914,-105.2955 919.5361,-103.8821"/>
<polygon fill="#000000" stroke="#000000" points="920.636,-107.2132 929.4499,-101.3339 918.8933,-100.4336 920.636,-107.2132"/>
</g>
<!-- tesseract -->
<g id="node22" class="node">
<title>tesseract</title>
<ellipse fill="#fde725" stroke="#000000" cx="972.0969" cy="-18" rx="54.6905" ry="18"/>
<text text-anchor="middle" x="972.0969" y="-14.3" font-family="Times,serif" font-size="14.00" fill="#000000">tesseract</text>
</g>
<!-- openjpeg&#45;&gt;tesseract -->
<g id="edge15" class="edge">
<title>openjpeg&#45;&gt;tesseract</title>
<path fill="none" stroke="#000000" d="M715.5078,-156.1062C758.1142,-149.2809 821.302,-135.2809 870.0969,-108 890.4031,-96.6469 890.7549,-87.5077 908.0969,-72 919.6077,-61.7067 932.5845,-50.6587 943.829,-41.2543"/>
<polygon fill="#000000" stroke="#000000" points="946.2186,-43.8191 951.6649,-34.7313 941.7401,-38.4393 946.2186,-43.8191"/>
</g>
<!-- openjpeg&#45;&gt;openslide -->
<g id="edge13" class="edge">
<title>openjpeg&#45;&gt;openslide</title>
<path fill="none" stroke="#000000" d="M620.8372,-155.771C557.467,-147.044 441.6335,-129.7761 344.0969,-108 339.6684,-107.0113 335.0908,-105.9018 330.5142,-104.7318"/>
<polygon fill="#000000" stroke="#000000" points="331.118,-101.2713 320.5555,-102.0977 329.328,-108.0385 331.118,-101.2713"/>
</g>
<!-- paraview -->
<g id="node13" class="node">
<title>paraview</title>
<ellipse fill="#35b779" stroke="#000000" cx="1672.0969" cy="-162" rx="50.0912" ry="18"/>
<text text-anchor="middle" x="1672.0969" y="-158.3" font-family="Times,serif" font-size="14.00" fill="#000000">paraview</text>
</g>
<!-- pillow -->
<g id="node14" class="node">
<title>pillow</title>
<ellipse fill="#31688e" stroke="#000000" cx="1801.0969" cy="-162" rx="40.0939" ry="18"/>
<text text-anchor="middle" x="1801.0969" y="-158.3" font-family="Times,serif" font-size="14.00" fill="#ffffff">pillow</text>
</g>
<!-- poppler&#45;&gt;gdal -->
<g id="edge16" class="edge">
<title>poppler&#45;&gt;gdal</title>
<path fill="none" stroke="#000000" d="M658.3085,-75.256C678.7879,-63.7363 707.31,-47.6926 728.9534,-35.5182"/>
<polygon fill="#000000" stroke="#000000" points="730.7646,-38.5152 737.7644,-30.562 727.3327,-32.4142 730.7646,-38.5152"/>
</g>
<!-- poppler&#45;&gt;libvips -->
<g id="edge17" class="edge">
<title>poppler&#45;&gt;libvips</title>
<path fill="none" stroke="#000000" d="M599.8723,-77.4586C569.156,-65.5041 522.7332,-47.4368 489.1239,-34.3564"/>
<polygon fill="#000000" stroke="#000000" points="490.1614,-31.0046 479.5729,-30.6393 487.6225,-37.5279 490.1614,-31.0046"/>
</g>
<!-- r&#45;base -->
<g id="node16" class="node">
<title>r&#45;base</title>
<ellipse fill="#31688e" stroke="#000000" cx="1911.0969" cy="-162" rx="40.0939" ry="18"/>
<text text-anchor="middle" x="1911.0969" y="-158.3" font-family="Times,serif" font-size="14.00" fill="#ffffff">r base</text>
</g>
<!-- r&#45;rtiff -->
<g id="node34" class="node">
<title>r&#45;rtiff</title>
<ellipse fill="#fde725" stroke="#000000" cx="1911.0969" cy="-90" rx="44.6926" ry="18"/>
<text text-anchor="middle" x="1911.0969" y="-86.3" font-family="Times,serif" font-size="14.00" fill="#000000">r rtiff</text>
</g>
<!-- r&#45;base&#45;&gt;r&#45;rtiff -->
<g id="edge18" class="edge">
<title>r&#45;base&#45;&gt;r&#45;rtiff</title>
<path fill="none" stroke="#000000" d="M1911.0969,-143.8314C1911.0969,-136.131 1911.0969,-126.9743 1911.0969,-118.4166"/>
<polygon fill="#000000" stroke="#000000" points="1914.597,-118.4132 1911.0969,-108.4133 1907.597,-118.4133 1914.597,-118.4132"/>
</g>
<!-- vigra -->
<g id="node17" class="node">
<title>vigra</title>
<ellipse fill="#35b779" stroke="#000000" cx="2004.0969" cy="-162" rx="35.194" ry="18"/>
<text text-anchor="middle" x="2004.0969" y="-158.3" font-family="Times,serif" font-size="14.00" fill="#000000">vigra</text>
</g>
<!-- vtk -->
<g id="node18" class="node">
<title>vtk</title>
<ellipse fill="#35b779" stroke="#000000" cx="2084.0969" cy="-162" rx="27" ry="18"/>
<text text-anchor="middle" x="2084.0969" y="-158.3" font-family="Times,serif" font-size="14.00" fill="#000000">vtk</text>
</g>
<!-- libwebp -->
<g id="node19" class="node">
<title>libwebp</title>
<ellipse fill="#31688e" stroke="#000000" cx="1216.0969" cy="-162" rx="44.6926" ry="18"/>
<text text-anchor="middle" x="1216.0969" y="-158.3" font-family="Times,serif" font-size="14.00" fill="#ffffff">libwebp</text>
</g>
<!-- libwebp&#45;&gt;gdal -->
<g id="edge19" class="edge">
<title>libwebp&#45;&gt;gdal</title>
<path fill="none" stroke="#000000" d="M1178.341,-152.0941C1148.5906,-143.2675 1106.8163,-128.5538 1074.0969,-108 1054.3969,-95.6248 1056.7773,-82.6562 1036.0969,-72 995.4138,-51.0369 866.3041,-31.8179 800.096,-23.0305"/>
<polygon fill="#000000" stroke="#000000" points="800.4034,-19.5409 790.0333,-21.7111 799.4933,-26.4815 800.4034,-19.5409"/>
</g>
<!-- libwebp&#45;&gt;imagemagick -->
<g id="edge21" class="edge">
<title>libwebp&#45;&gt;imagemagick</title>
<path fill="none" stroke="#000000" d="M1171.3236,-160.6311C1066.8023,-156.9095 798.8375,-144.3245 578.0969,-108 572.7034,-107.1125 567.1212,-106.0337 561.5562,-104.8499"/>
<polygon fill="#000000" stroke="#000000" points="562.1253,-101.3908 551.6025,-102.6245 560.5979,-108.2222 562.1253,-101.3908"/>
</g>
<!-- libwebp&#45;&gt;imread -->
<g id="edge22" class="edge">
<title>libwebp&#45;&gt;imread</title>
<path fill="none" stroke="#000000" d="M1194.9937,-145.6621C1182.0916,-135.6733 1165.4264,-122.7713 1151.3899,-111.9042"/>
<polygon fill="#000000" stroke="#000000" points="1153.5273,-109.1327 1143.4774,-105.7784 1149.242,-114.6678 1153.5273,-109.1327"/>
</g>
<!-- libwebp&#45;&gt;libgd -->
<g id="edge24" class="edge">
<title>libwebp&#45;&gt;libgd</title>
<path fill="none" stroke="#000000" d="M1216.0969,-143.8314C1216.0969,-136.131 1216.0969,-126.9743 1216.0969,-118.4166"/>
<polygon fill="#000000" stroke="#000000" points="1219.597,-118.4132 1216.0969,-108.4133 1212.597,-118.4133 1219.597,-118.4132"/>
</g>
<!-- libwebp&#45;&gt;opencv -->
<g id="edge26" class="edge">
<title>libwebp&#45;&gt;opencv</title>
<path fill="none" stroke="#000000" d="M1237.2,-145.6621C1250.1022,-135.6733 1266.7673,-122.7713 1280.8039,-111.9042"/>
<polygon fill="#000000" stroke="#000000" points="1282.9518,-114.6678 1288.7164,-105.7784 1278.6665,-109.1327 1282.9518,-114.6678"/>
</g>
<!-- sdl2_image -->
<g id="node20" class="node">
<title>sdl2_image</title>
<ellipse fill="#fde725" stroke="#000000" cx="1427.0969" cy="-90" rx="59.5901" ry="18"/>
<text text-anchor="middle" x="1427.0969" y="-86.3" font-family="Times,serif" font-size="14.00" fill="#000000">sdl2_image</text>
</g>
<!-- libwebp&#45;&gt;sdl2_image -->
<g id="edge28" class="edge">
<title>libwebp&#45;&gt;sdl2_image</title>
<path fill="none" stroke="#000000" d="M1250.4673,-150.2717C1285.0239,-138.4799 1338.6384,-120.1849 1377.7373,-106.8431"/>
<polygon fill="#000000" stroke="#000000" points="1379.0107,-110.1068 1387.3445,-103.5648 1376.75,-103.4819 1379.0107,-110.1068"/>
</g>
<!-- libwebp&#45;&gt;leptonica -->
<g id="edge23" class="edge">
<title>libwebp&#45;&gt;leptonica</title>
<path fill="none" stroke="#000000" d="M1179.8311,-151.2986C1138.1873,-139.0103 1069.5951,-118.77 1022.7072,-104.9342"/>
<polygon fill="#000000" stroke="#000000" points="1023.6305,-101.5575 1013.0487,-102.0842 1021.6493,-108.2713 1023.6305,-101.5575"/>
</g>
<!-- libwebp&#45;&gt;tesseract -->
<g id="edge29" class="edge">
<title>libwebp&#45;&gt;tesseract</title>
<path fill="none" stroke="#000000" d="M1252.37,-151.2357C1261.6845,-148.6701 1271.7225,-146.0769 1281.0969,-144 1379.4826,-122.2027 1563.602,-146.8193 1496.0969,-72 1465.8324,-38.4563 1170.0882,-24.5229 1036.7346,-19.9115"/>
<polygon fill="#000000" stroke="#000000" points="1036.7631,-16.4105 1026.6503,-19.5698 1036.5261,-23.4065 1036.7631,-16.4105"/>
</g>
<!-- graphicsmagick -->
<g id="node24" class="node">
<title>graphicsmagick</title>
<ellipse fill="#fde725" stroke="#000000" cx="1622.0969" cy="-90" rx="79.0865" ry="18"/>
<text text-anchor="middle" x="1622.0969" y="-86.3" font-family="Times,serif" font-size="14.00" fill="#000000">graphicsmagick</text>
</g>
<!-- libwebp&#45;&gt;graphicsmagick -->
<g id="edge20" class="edge">
<title>libwebp&#45;&gt;graphicsmagick</title>
<path fill="none" stroke="#000000" d="M1251.999,-151.188C1261.4095,-148.5938 1271.5859,-145.9989 1281.0969,-144 1390.0931,-121.0924 1419.2813,-126.5872 1529.0969,-108 1536.7356,-106.7071 1544.7123,-105.2805 1552.6438,-103.8131"/>
<polygon fill="#000000" stroke="#000000" points="1553.4536,-107.2224 1562.6376,-101.9398 1552.1639,-100.3422 1553.4536,-107.2224"/>
</g>
<!-- openimageio -->
<g id="node27" class="node">
<title>openimageio</title>
<ellipse fill="#fde725" stroke="#000000" cx="1784.0969" cy="-90" rx="64.189" ry="18"/>
<text text-anchor="middle" x="1784.0969" y="-86.3" font-family="Times,serif" font-size="14.00" fill="#000000">openimageio</text>
</g>
<!-- libwebp&#45;&gt;openimageio -->
<g id="edge27" class="edge">
<title>libwebp&#45;&gt;openimageio</title>
<path fill="none" stroke="#000000" d="M1251.5823,-150.8867C1261.0879,-148.2644 1271.4145,-145.7313 1281.0969,-144 1469.4465,-110.3219 1521.2396,-138.7034 1710.0969,-108 1715.782,-107.0757 1721.6751,-105.9448 1727.5407,-104.7043"/>
<polygon fill="#000000" stroke="#000000" points="1728.3395,-108.1123 1737.3447,-102.5304 1726.8241,-101.2783 1728.3395,-108.1123"/>
</g>
<!-- libwebp&#45;&gt;libvips -->
<g id="edge25" class="edge">
<title>libwebp&#45;&gt;libvips</title>
<path fill="none" stroke="#000000" d="M1171.7472,-158.5615C1073.1527,-150.6201 838.4677,-129.9922 762.0969,-108 726.1808,-97.6574 721.428,-84.1923 686.0969,-72 623.2146,-50.3001 547.9761,-34.9616 498.9405,-26.3098"/>
<polygon fill="#000000" stroke="#000000" points="499.3397,-22.8268 488.8884,-24.5652 498.1426,-29.7237 499.3397,-22.8268"/>
</g>
<!-- leptonica&#45;&gt;tesseract -->
<g id="edge30" class="edge">
<title>leptonica&#45;&gt;tesseract</title>
<path fill="none" stroke="#000000" d="M972.0969,-71.8314C972.0969,-64.131 972.0969,-54.9743 972.0969,-46.4166"/>
<polygon fill="#000000" stroke="#000000" points="975.597,-46.4132 972.0969,-36.4133 968.597,-46.4133 975.597,-46.4132"/>
</g>
<!-- afterimage -->
<g id="node25" class="node">
<title>afterimage</title>
<ellipse fill="#35b779" stroke="#000000" cx="286.0969" cy="-162" rx="59.5901" ry="18"/>
<text text-anchor="middle" x="286.0969" y="-158.3" font-family="Times,serif" font-size="14.00" fill="#000000">afterimage</text>
</g>
<!-- afterimage&#45;&gt;root -->
<g id="edge31" class="edge">
<title>afterimage&#45;&gt;root</title>
<path fill="none" stroke="#000000" d="M261.0901,-145.4817C244.7121,-134.6632 223.2489,-120.4857 206.119,-109.1705"/>
<polygon fill="#000000" stroke="#000000" points="207.879,-106.1385 197.606,-103.5473 204.0209,-111.9793 207.879,-106.1385"/>
</g>
<!-- astromatic&#45;stiff -->
<g id="node28" class="node">
<title>astromatic&#45;stiff</title>
<ellipse fill="#35b779" stroke="#000000" cx="2218.0969" cy="-162" rx="89.0842" ry="18"/>
<text text-anchor="middle" x="2218.0969" y="-158.3" font-family="Times,serif" font-size="14.00" fill="#000000">astromatic stiff</text>
</g>
<!-- netpbm -->
<g id="node29" class="node">
<title>netpbm</title>
<ellipse fill="#35b779" stroke="#000000" cx="2365.0969" cy="-162" rx="40.0939" ry="18"/>
<text text-anchor="middle" x="2365.0969" y="-158.3" font-family="Times,serif" font-size="14.00" fill="#000000">netpbm</text>
</g>
<!-- lcms2 -->
<g id="node30" class="node">
<title>lcms2</title>
<ellipse fill="#31688e" stroke="#000000" cx="388.0969" cy="-90" rx="35.194" ry="18"/>
<text text-anchor="middle" x="388.0969" y="-86.3" font-family="Times,serif" font-size="14.00" fill="#ffffff">lcms2</text>
</g>
<!-- lcms2&#45;&gt;libvips -->
<g id="edge32" class="edge">
<title>lcms2&#45;&gt;libvips</title>
<path fill="none" stroke="#000000" d="M401.781,-73.3008C409.1211,-64.3433 418.3161,-53.1223 426.5017,-43.1331"/>
<polygon fill="#000000" stroke="#000000" points="429.4462,-45.0618 433.0773,-35.1086 424.0319,-40.6251 429.4462,-45.0618"/>
</g>
<!-- openslide&#45;&gt;libvips -->
<g id="edge33" class="edge">
<title>openslide&#45;&gt;libvips</title>
<path fill="none" stroke="#000000" d="M313.4905,-75.6028C340.4286,-63.9887 378.4077,-47.6145 406.9915,-35.2909"/>
<polygon fill="#000000" stroke="#000000" points="408.4983,-38.4528 416.2955,-31.2796 405.7269,-32.0248 408.4983,-38.4528"/>
</g>
<!-- gnuastro -->
<g id="node33" class="node">
<title>gnuastro</title>
<ellipse fill="#35b779" stroke="#000000" cx="2473.0969" cy="-162" rx="50.0912" ry="18"/>
<text text-anchor="middle" x="2473.0969" y="-158.3" font-family="Times,serif" font-size="14.00" fill="#000000">gnuastro</text>
</g>
</g>
</svg>
