<?xml version="1.0" encoding="UTF-8" standalone="no"?>
<!DOCTYPE svg PUBLIC "-//W3C//DTD SVG 1.1//EN"
 "http://www.w3.org/Graphics/SVG/1.1/DTD/svg11.dtd">
<!-- Generated by graphviz version 2.40.1 (20161225.0304)
 -->
<!-- Title: %3 Pages: 1 -->
<svg width="2442pt" height="188pt"
 viewBox="0.00 0.00 2441.97 188.00" xmlns="http://www.w3.org/2000/svg" xmlns:xlink="http://www.w3.org/1999/xlink">
<g id="graph0" class="graph" transform="scale(1 1) rotate(0) translate(4 184)">
<title>%3</title>
<polygon fill="#ffffff" stroke="transparent" points="-4,4 -4,-184 2437.9688,-184 2437.9688,4 -4,4"/>
<!-- emacs -->
<g id="node1" class="node">
<title>emacs</title>
<ellipse fill="#35b779" stroke="#000000" cx="297.9232" cy="-162" rx="35.194" ry="18"/>
<text text-anchor="middle" x="297.9232" y="-158.3" font-family="Times,serif" font-size="14.00" fill="#000000">emacs</text>
</g>
<!-- gdal -->
<g id="node2" class="node">
<title>gdal</title>
<ellipse fill="#fde725" stroke="#000000" cx="60.9232" cy="-18" rx="30.5947" ry="18"/>
<text text-anchor="middle" x="60.9232" y="-14.3" font-family="Times,serif" font-size="14.00" fill="#000000">gdal</text>
</g>
<!-- gdk&#45;pixbuf -->
<g id="node3" class="node">
<title>gdk&#45;pixbuf</title>
<ellipse fill="#35b779" stroke="#000000" cx="554.9232" cy="-162" rx="59.5901" ry="18"/>
<text text-anchor="middle" x="554.9232" y="-158.3" font-family="Times,serif" font-size="14.00" fill="#000000">gdk pixbuf</text>
</g>
<!-- imagemagick -->
<g id="node6" class="node">
<title>imagemagick</title>
<ellipse fill="#fde725" stroke="#000000" cx="667.9232" cy="-90" rx="64.189" ry="18"/>
<text text-anchor="middle" x="667.9232" y="-86.3" font-family="Times,serif" font-size="14.00" fill="#000000">imagemagick</text>
</g>
<!-- gdk&#45;pixbuf&#45;&gt;imagemagick -->
<g id="edge5" class="edge">
<title>gdk&#45;pixbuf&#45;&gt;imagemagick</title>
<path fill="none" stroke="#000000" d="M580.5647,-145.6621C596.2018,-135.6986 616.3881,-122.8366 633.4162,-111.9868"/>
<polygon fill="#000000" stroke="#000000" points="635.4393,-114.8479 641.9921,-106.5225 631.6778,-108.9444 635.4393,-114.8479"/>
</g>
<!-- gtk2 -->
<g id="node23" class="node">
<title>gtk2</title>
<ellipse fill="#fde725" stroke="#000000" cx="554.9232" cy="-90" rx="30.5947" ry="18"/>
<text text-anchor="middle" x="554.9232" y="-86.3" font-family="Times,serif" font-size="14.00" fill="#000000">gtk2</text>
</g>
<!-- gdk&#45;pixbuf&#45;&gt;gtk2 -->
<g id="edge1" class="edge">
<title>gdk&#45;pixbuf&#45;&gt;gtk2</title>
<path fill="none" stroke="#000000" d="M554.9232,-143.8314C554.9232,-136.131 554.9232,-126.9743 554.9232,-118.4166"/>
<polygon fill="#000000" stroke="#000000" points="558.4233,-118.4132 554.9232,-108.4133 551.4233,-118.4133 558.4233,-118.4132"/>
</g>
<!-- root -->
<g id="node26" class="node">
<title>root</title>
<ellipse fill="#fde725" stroke="#000000" cx="907.9232" cy="-90" rx="30.5947" ry="18"/>
<text text-anchor="middle" x="907.9232" y="-86.3" font-family="Times,serif" font-size="14.00" fill="#000000">root</text>
</g>
<!-- gdk&#45;pixbuf&#45;&gt;root -->
<g id="edge4" class="edge">
<title>gdk&#45;pixbuf&#45;&gt;root</title>
<path fill="none" stroke="#000000" d="M608.0105,-153.6486C690.9774,-140.4796 844.4603,-115.6037 868.9232,-108 871.064,-107.3346 873.2398,-106.5772 875.4129,-105.7587"/>
<polygon fill="#000000" stroke="#000000" points="876.9027,-108.9302 884.8058,-101.8738 874.2273,-102.4616 876.9027,-108.9302"/>
</g>
<!-- openslide -->
<g id="node31" class="node">
<title>openslide</title>
<ellipse fill="#fde725" stroke="#000000" cx="374.9232" cy="-90" rx="54.6905" ry="18"/>
<text text-anchor="middle" x="374.9232" y="-86.3" font-family="Times,serif" font-size="14.00" fill="#000000">openslide</text>
</g>
<!-- gdk&#45;pixbuf&#45;&gt;openslide -->
<g id="edge3" class="edge">
<title>gdk&#45;pixbuf&#45;&gt;openslide</title>
<path fill="none" stroke="#000000" d="M518.9302,-147.6028C490.3242,-136.1604 450.1671,-120.0976 419.5234,-107.8401"/>
<polygon fill="#000000" stroke="#000000" points="420.5198,-104.4691 409.9352,-104.0048 417.92,-110.9684 420.5198,-104.4691"/>
</g>
<!-- libvips -->
<g id="node32" class="node">
<title>libvips</title>
<ellipse fill="#fde725" stroke="#000000" cx="434.9232" cy="-18" rx="44.6926" ry="18"/>
<text text-anchor="middle" x="434.9232" y="-14.3" font-family="Times,serif" font-size="14.00" fill="#000000">libvips</text>
</g>
<!-- gdk&#45;pixbuf&#45;&gt;libvips -->
<g id="edge2" class="edge">
<title>gdk&#45;pixbuf&#45;&gt;libvips</title>
<path fill="none" stroke="#000000" d="M540.2089,-144.3428C519.1329,-119.0516 480.234,-72.373 456.0752,-43.3824"/>
<polygon fill="#000000" stroke="#000000" points="458.4738,-40.7934 449.3831,-35.3519 453.0962,-45.2748 458.4738,-40.7934"/>
</g>
<!-- geotiff -->
<g id="node4" class="node">
<title>geotiff</title>
<ellipse fill="#35b779" stroke="#000000" cx="60.9232" cy="-90" rx="44.6926" ry="18"/>
<text text-anchor="middle" x="60.9232" y="-86.3" font-family="Times,serif" font-size="14.00" fill="#000000">geotiff</text>
</g>
<!-- geotiff&#45;&gt;gdal -->
<g id="edge6" class="edge">
<title>geotiff&#45;&gt;gdal</title>
<path fill="none" stroke="#000000" d="M60.9232,-71.8314C60.9232,-64.131 60.9232,-54.9743 60.9232,-46.4166"/>
<polygon fill="#000000" stroke="#000000" points="64.4233,-46.4132 60.9232,-36.4133 57.4233,-46.4133 64.4233,-46.4132"/>
</g>
<!-- graphviz -->
<g id="node5" class="node">
<title>graphviz</title>
<ellipse fill="#35b779" stroke="#000000" cx="731.9232" cy="-162" rx="50.0912" ry="18"/>
<text text-anchor="middle" x="731.9232" y="-158.3" font-family="Times,serif" font-size="14.00" fill="#000000">graphviz</text>
</g>
<!-- graphviz&#45;&gt;imagemagick -->
<g id="edge7" class="edge">
<title>graphviz&#45;&gt;imagemagick</title>
<path fill="none" stroke="#000000" d="M716.4306,-144.5708C708.5491,-135.7041 698.8279,-124.7678 690.1627,-115.0194"/>
<polygon fill="#000000" stroke="#000000" points="692.7546,-112.6671 683.495,-107.5182 687.5227,-117.3176 692.7546,-112.6671"/>
</g>
<!-- graphviz&#45;&gt;root -->
<g id="edge8" class="edge">
<title>graphviz&#45;&gt;root</title>
<path fill="none" stroke="#000000" d="M766.7732,-148.8926C794.5955,-138.2775 834.4837,-122.7208 868.9232,-108 870.7232,-107.2306 872.5641,-106.4298 874.4186,-105.612"/>
<polygon fill="#000000" stroke="#000000" points="875.9924,-108.7419 883.678,-101.4493 873.1221,-102.3574 875.9924,-108.7419"/>
</g>
<!-- imagemagick&#45;&gt;libvips -->
<g id="edge9" class="edge">
<title>imagemagick&#45;&gt;libvips</title>
<path fill="none" stroke="#000000" d="M624.6438,-76.6261C583.5845,-63.9382 522.1192,-44.9447 480.3625,-32.0413"/>
<polygon fill="#000000" stroke="#000000" points="481.308,-28.6703 470.7204,-29.0618 479.2413,-35.3582 481.308,-28.6703"/>
</g>
<!-- imread -->
<g id="node7" class="node">
<title>imread</title>
<ellipse fill="#fde725" stroke="#000000" cx="1034.9232" cy="-90" rx="40.0939" ry="18"/>
<text text-anchor="middle" x="1034.9232" y="-86.3" font-family="Times,serif" font-size="14.00" fill="#000000">imread</text>
</g>
<!-- libcdms -->
<g id="node8" class="node">
<title>libcdms</title>
<ellipse fill="#35b779" stroke="#000000" cx="1246.9232" cy="-162" rx="44.6926" ry="18"/>
<text text-anchor="middle" x="1246.9232" y="-158.3" font-family="Times,serif" font-size="14.00" fill="#000000">libcdms</text>
</g>
<!-- libgd -->
<g id="node9" class="node">
<title>libgd</title>
<ellipse fill="#fde725" stroke="#000000" cx="1127.9232" cy="-90" rx="35.194" ry="18"/>
<text text-anchor="middle" x="1127.9232" y="-86.3" font-family="Times,serif" font-size="14.00" fill="#000000">libgd</text>
</g>
<!-- libitk -->
<g id="node10" class="node">
<title>libitk</title>
<ellipse fill="#35b779" stroke="#000000" cx="1433.9232" cy="-162" rx="40.0939" ry="18"/>
<text text-anchor="middle" x="1433.9232" y="-158.3" font-family="Times,serif" font-size="14.00" fill="#000000">libitk</text>
</g>
<!-- opencv -->
<g id="node11" class="node">
<title>opencv</title>
<ellipse fill="#fde725" stroke="#000000" cx="1220.9232" cy="-90" rx="40.0939" ry="18"/>
<text text-anchor="middle" x="1220.9232" y="-86.3" font-family="Times,serif" font-size="14.00" fill="#000000">opencv</text>
</g>
<!-- openjpeg -->
<g id="node12" class="node">
<title>openjpeg</title>
<ellipse fill="#31688e" stroke="#000000" cx="400.9232" cy="-162" rx="50.0912" ry="18"/>
<text text-anchor="middle" x="400.9232" y="-158.3" font-family="Times,serif" font-size="14.00" fill="#ffffff">openjpeg</text>
</g>
<!-- openjpeg&#45;&gt;gdal -->
<g id="edge10" class="edge">
<title>openjpeg&#45;&gt;gdal</title>
<path fill="none" stroke="#000000" d="M364.3762,-149.6785C357.0072,-147.5269 349.2678,-145.5009 341.9232,-144 268.5663,-129.0088 56.9582,-163.6999 6.9232,-108 -12.0556,-86.8723 12.0913,-58.1106 33.8866,-38.8418"/>
<polygon fill="#000000" stroke="#000000" points="36.3559,-41.3372 41.7259,-32.204 31.8325,-35.995 36.3559,-41.3372"/>
</g>
<!-- openjpeg&#45;&gt;imagemagick -->
<g id="edge11" class="edge">
<title>openjpeg&#45;&gt;imagemagick</title>
<path fill="none" stroke="#000000" d="M441.1849,-151.1429C486.5283,-138.9155 560.5345,-118.9588 611.5978,-105.1889"/>
<polygon fill="#000000" stroke="#000000" points="612.7455,-108.5045 621.4893,-102.5215 610.9229,-101.7459 612.7455,-108.5045"/>
</g>
<!-- poppler -->
<g id="node15" class="node">
<title>poppler</title>
<ellipse fill="#fde725" stroke="#000000" cx="168.9232" cy="-90" rx="44.6926" ry="18"/>
<text text-anchor="middle" x="168.9232" y="-86.3" font-family="Times,serif" font-size="14.00" fill="#000000">poppler</text>
</g>
<!-- openjpeg&#45;&gt;poppler -->
<g id="edge14" class="edge">
<title>openjpeg&#45;&gt;poppler</title>
<path fill="none" stroke="#000000" d="M362.5252,-150.2711C355.6654,-148.1798 348.5836,-146.0234 341.9232,-144 289.0532,-127.9379 275.5831,-124.7384 222.9232,-108 219.7683,-106.9972 216.5143,-105.9486 213.2413,-104.8833"/>
<polygon fill="#000000" stroke="#000000" points="214.0379,-101.4611 203.445,-101.6669 211.8542,-108.1118 214.0379,-101.4611"/>
</g>
<!-- leptonica -->
<g id="node21" class="node">
<title>leptonica</title>
<ellipse fill="#fde725" stroke="#000000" cx="804.9232" cy="-90" rx="54.6905" ry="18"/>
<text text-anchor="middle" x="804.9232" y="-86.3" font-family="Times,serif" font-size="14.00" fill="#000000">leptonica</text>
</g>
<!-- openjpeg&#45;&gt;leptonica -->
<g id="edge12" class="edge">
<title>openjpeg&#45;&gt;leptonica</title>
<path fill="none" stroke="#000000" d="M443.6178,-152.3622C457.1125,-149.4764 472.1079,-146.4351 485.9232,-144 598.6429,-124.1323 628.9144,-131.5472 740.9232,-108 745.3637,-107.0665 749.9496,-105.9952 754.5316,-104.8505"/>
<polygon fill="#000000" stroke="#000000" points="755.7045,-108.1618 764.4981,-102.2522 753.9386,-101.3882 755.7045,-108.1618"/>
</g>
<!-- tesseract -->
<g id="node22" class="node">
<title>tesseract</title>
<ellipse fill="#fde725" stroke="#000000" cx="804.9232" cy="-18" rx="54.6905" ry="18"/>
<text text-anchor="middle" x="804.9232" y="-14.3" font-family="Times,serif" font-size="14.00" fill="#000000">tesseract</text>
</g>
<!-- openjpeg&#45;&gt;tesseract -->
<g id="edge15" class="edge">
<title>openjpeg&#45;&gt;tesseract</title>
<path fill="none" stroke="#000000" d="M417.2957,-144.7184C437.9858,-123.994 475.661,-89.826 514.9232,-72 554.8949,-53.852 671.3849,-35.7935 743.9828,-25.8433"/>
<polygon fill="#000000" stroke="#000000" points="744.4845,-29.3074 753.9228,-24.4939 743.5429,-22.371 744.4845,-29.3074"/>
</g>
<!-- openjpeg&#45;&gt;openslide -->
<g id="edge13" class="edge">
<title>openjpeg&#45;&gt;openslide</title>
<path fill="none" stroke="#000000" d="M394.3623,-143.8314C391.4768,-135.8406 388.025,-126.2819 384.8362,-117.4514"/>
<polygon fill="#000000" stroke="#000000" points="388.0804,-116.1302 381.392,-107.9134 381.4965,-118.5077 388.0804,-116.1302"/>
</g>
<!-- paraview -->
<g id="node13" class="node">
<title>paraview</title>
<ellipse fill="#35b779" stroke="#000000" cx="1583.9232" cy="-162" rx="50.0912" ry="18"/>
<text text-anchor="middle" x="1583.9232" y="-158.3" font-family="Times,serif" font-size="14.00" fill="#000000">paraview</text>
</g>
<!-- pillow -->
<g id="node14" class="node">
<title>pillow</title>
<ellipse fill="#35b779" stroke="#000000" cx="1712.9232" cy="-162" rx="40.0939" ry="18"/>
<text text-anchor="middle" x="1712.9232" y="-158.3" font-family="Times,serif" font-size="14.00" fill="#000000">pillow</text>
</g>
<!-- poppler&#45;&gt;gdal -->
<g id="edge16" class="edge">
<title>poppler&#45;&gt;gdal</title>
<path fill="none" stroke="#000000" d="M145.7545,-74.5542C129.4982,-63.7167 107.6358,-49.1417 90.1769,-37.5024"/>
<polygon fill="#000000" stroke="#000000" points="91.7634,-34.3536 81.5014,-31.7188 87.8804,-40.178 91.7634,-34.3536"/>
</g>
<!-- poppler&#45;&gt;libvips -->
<g id="edge17" class="edge">
<title>poppler&#45;&gt;libvips</title>
<path fill="none" stroke="#000000" d="M203.0853,-78.1982C209.6432,-76.0505 216.4756,-73.8931 222.9232,-72 278.4218,-55.7052 342.9144,-39.6874 386.0598,-29.3837"/>
<polygon fill="#000000" stroke="#000000" points="387.0898,-32.7364 396.0092,-27.0185 385.4709,-25.9262 387.0898,-32.7364"/>
</g>
<!-- r&#45;base -->
<g id="node16" class="node">
<title>r&#45;base</title>
<ellipse fill="#31688e" stroke="#000000" cx="1821.9232" cy="-162" rx="40.0939" ry="18"/>
<text text-anchor="middle" x="1821.9232" y="-158.3" font-family="Times,serif" font-size="14.00" fill="#ffffff">r base</text>
</g>
<!-- r&#45;rtiff -->
<g id="node34" class="node">
<title>r&#45;rtiff</title>
<ellipse fill="#fde725" stroke="#000000" cx="1821.9232" cy="-90" rx="44.6926" ry="18"/>
<text text-anchor="middle" x="1821.9232" y="-86.3" font-family="Times,serif" font-size="14.00" fill="#000000">r rtiff</text>
</g>
<!-- r&#45;base&#45;&gt;r&#45;rtiff -->
<g id="edge18" class="edge">
<title>r&#45;base&#45;&gt;r&#45;rtiff</title>
<path fill="none" stroke="#000000" d="M1821.9232,-143.8314C1821.9232,-136.131 1821.9232,-126.9743 1821.9232,-118.4166"/>
<polygon fill="#000000" stroke="#000000" points="1825.4233,-118.4132 1821.9232,-108.4133 1818.4233,-118.4133 1825.4233,-118.4132"/>
</g>
<!-- vigra -->
<g id="node17" class="node">
<title>vigra</title>
<ellipse fill="#35b779" stroke="#000000" cx="1914.9232" cy="-162" rx="35.194" ry="18"/>
<text text-anchor="middle" x="1914.9232" y="-158.3" font-family="Times,serif" font-size="14.00" fill="#000000">vigra</text>
</g>
<!-- vtk -->
<g id="node18" class="node">
<title>vtk</title>
<ellipse fill="#35b779" stroke="#000000" cx="1994.9232" cy="-162" rx="27" ry="18"/>
<text text-anchor="middle" x="1994.9232" y="-158.3" font-family="Times,serif" font-size="14.00" fill="#000000">vtk</text>
</g>
<!-- libwebp -->
<g id="node19" class="node">
<title>libwebp</title>
<ellipse fill="#35b779" stroke="#000000" cx="1132.9232" cy="-162" rx="44.6926" ry="18"/>
<text text-anchor="middle" x="1132.9232" y="-158.3" font-family="Times,serif" font-size="14.00" fill="#000000">libwebp</text>
</g>
<!-- libwebp&#45;&gt;imagemagick -->
<g id="edge20" class="edge">
<title>libwebp&#45;&gt;imagemagick</title>
<path fill="none" stroke="#000000" d="M1089.9822,-156.6633C1002.6948,-145.7201 807.2132,-120.7024 740.9232,-108 735.635,-106.9867 730.1556,-105.8326 724.684,-104.6093"/>
<polygon fill="#000000" stroke="#000000" points="725.4174,-101.1867 714.8864,-102.3484 723.8433,-108.0074 725.4174,-101.1867"/>
</g>
<!-- libwebp&#45;&gt;imread -->
<g id="edge21" class="edge">
<title>libwebp&#45;&gt;imread</title>
<path fill="none" stroke="#000000" d="M1111.1739,-146.0209C1097.4094,-135.9082 1079.4386,-122.7051 1064.4005,-111.6568"/>
<polygon fill="#000000" stroke="#000000" points="1066.0703,-108.5405 1055.9392,-105.4403 1061.9257,-114.1817 1066.0703,-108.5405"/>
</g>
<!-- libwebp&#45;&gt;libgd -->
<g id="edge23" class="edge">
<title>libwebp&#45;&gt;libgd</title>
<path fill="none" stroke="#000000" d="M1131.6615,-143.8314C1131.1268,-136.131 1130.4909,-126.9743 1129.8966,-118.4166"/>
<polygon fill="#000000" stroke="#000000" points="1133.3864,-118.1467 1129.2019,-108.4133 1126.4032,-118.6317 1133.3864,-118.1467"/>
</g>
<!-- libwebp&#45;&gt;opencv -->
<g id="edge25" class="edge">
<title>libwebp&#45;&gt;opencv</title>
<path fill="none" stroke="#000000" d="M1152.8918,-145.6621C1164.9022,-135.8354 1180.3587,-123.1892 1193.5029,-112.4348"/>
<polygon fill="#000000" stroke="#000000" points="1195.8136,-115.0665 1201.3368,-106.0252 1191.3809,-109.6488 1195.8136,-115.0665"/>
</g>
<!-- sdl2_image -->
<g id="node20" class="node">
<title>sdl2_image</title>
<ellipse fill="#fde725" stroke="#000000" cx="1338.9232" cy="-90" rx="59.5901" ry="18"/>
<text text-anchor="middle" x="1338.9232" y="-86.3" font-family="Times,serif" font-size="14.00" fill="#000000">sdl2_image</text>
</g>
<!-- libwebp&#45;&gt;sdl2_image -->
<g id="edge27" class="edge">
<title>libwebp&#45;&gt;sdl2_image</title>
<path fill="none" stroke="#000000" d="M1166.9399,-150.1107C1200.4039,-138.4145 1251.8472,-120.4344 1289.7572,-107.1843"/>
<polygon fill="#000000" stroke="#000000" points="1291.2884,-110.3568 1299.5736,-103.7533 1288.9787,-103.7488 1291.2884,-110.3568"/>
</g>
<!-- libwebp&#45;&gt;leptonica -->
<g id="edge22" class="edge">
<title>libwebp&#45;&gt;leptonica</title>
<path fill="none" stroke="#000000" d="M1091.8473,-154.6489C1039.5701,-145.06 946.6013,-127.2255 867.9232,-108 863.8209,-106.9976 859.5835,-105.9073 855.3364,-104.7758"/>
<polygon fill="#000000" stroke="#000000" points="856.0368,-101.339 845.4681,-102.0827 854.1938,-108.0921 856.0368,-101.339"/>
</g>
<!-- libwebp&#45;&gt;tesseract -->
<g id="edge28" class="edge">
<title>libwebp&#45;&gt;tesseract</title>
<path fill="none" stroke="#000000" d="M1167.5293,-150.3381C1175.7728,-147.9178 1184.5958,-145.6157 1192.9232,-144 1235.7528,-135.6904 1554.5216,-140.233 1583.9232,-108 1594.7058,-96.179 1594.8387,-83.6984 1583.9232,-72 1559.6704,-46.0078 1052.0456,-26.3526 869.5516,-20.103"/>
<polygon fill="#000000" stroke="#000000" points="869.6685,-16.6051 859.5552,-19.763 869.4304,-23.601 869.6685,-16.6051"/>
</g>
<!-- graphicsmagick -->
<g id="node24" class="node">
<title>graphicsmagick</title>
<ellipse fill="#fde725" stroke="#000000" cx="1495.9232" cy="-90" rx="79.0865" ry="18"/>
<text text-anchor="middle" x="1495.9232" y="-86.3" font-family="Times,serif" font-size="14.00" fill="#000000">graphicsmagick</text>
</g>
<!-- libwebp&#45;&gt;graphicsmagick -->
<g id="edge19" class="edge">
<title>libwebp&#45;&gt;graphicsmagick</title>
<path fill="none" stroke="#000000" d="M1167.9416,-150.69C1176.0894,-148.2831 1184.7672,-145.8983 1192.9232,-144 1287.2868,-122.0368 1312.6699,-125.7106 1407.9232,-108 1414.1612,-106.8402 1420.6392,-105.5943 1427.1234,-104.3191"/>
<polygon fill="#000000" stroke="#000000" points="1428.1587,-107.6819 1437.2843,-102.2992 1426.7937,-100.8162 1428.1587,-107.6819"/>
</g>
<!-- openimageio -->
<g id="node27" class="node">
<title>openimageio</title>
<ellipse fill="#fde725" stroke="#000000" cx="1694.9232" cy="-90" rx="64.189" ry="18"/>
<text text-anchor="middle" x="1694.9232" y="-86.3" font-family="Times,serif" font-size="14.00" fill="#000000">openimageio</text>
</g>
<!-- libwebp&#45;&gt;openimageio -->
<g id="edge26" class="edge">
<title>libwebp&#45;&gt;openimageio</title>
<path fill="none" stroke="#000000" d="M1167.2043,-150.3882C1175.5385,-147.9355 1184.4832,-145.6064 1192.9232,-144 1378.7105,-108.6393 1430.09,-137.337 1616.9232,-108 1623.5648,-106.9571 1630.4815,-105.6656 1637.3323,-104.2568"/>
<polygon fill="#000000" stroke="#000000" points="1638.2382,-107.6422 1647.2824,-102.1238 1636.7709,-100.7976 1638.2382,-107.6422"/>
</g>
<!-- libwebp&#45;&gt;libvips -->
<g id="edge24" class="edge">
<title>libwebp&#45;&gt;libvips</title>
<path fill="none" stroke="#000000" d="M1094.454,-152.5138C1063.6106,-143.8453 1020.0021,-129.1391 985.9232,-108 966.1534,-95.7368 969.054,-81.7327 947.9232,-72 906.9802,-53.142 613.1196,-30.5449 489.4982,-21.755"/>
<polygon fill="#000000" stroke="#000000" points="489.7074,-18.2611 479.4853,-21.0468 489.2134,-25.2437 489.7074,-18.2611"/>
</g>
<!-- leptonica&#45;&gt;tesseract -->
<g id="edge29" class="edge">
<title>leptonica&#45;&gt;tesseract</title>
<path fill="none" stroke="#000000" d="M804.9232,-71.8314C804.9232,-64.131 804.9232,-54.9743 804.9232,-46.4166"/>
<polygon fill="#000000" stroke="#000000" points="808.4233,-46.4132 804.9232,-36.4133 801.4233,-46.4133 808.4233,-46.4132"/>
</g>
<!-- afterimage -->
<g id="node25" class="node">
<title>afterimage</title>
<ellipse fill="#35b779" stroke="#000000" cx="907.9232" cy="-162" rx="59.5901" ry="18"/>
<text text-anchor="middle" x="907.9232" y="-158.3" font-family="Times,serif" font-size="14.00" fill="#000000">afterimage</text>
</g>
<!-- afterimage&#45;&gt;root -->
<g id="edge30" class="edge">
<title>afterimage&#45;&gt;root</title>
<path fill="none" stroke="#000000" d="M907.9232,-143.8314C907.9232,-136.131 907.9232,-126.9743 907.9232,-118.4166"/>
<polygon fill="#000000" stroke="#000000" points="911.4233,-118.4132 907.9232,-108.4133 904.4233,-118.4133 911.4233,-118.4132"/>
</g>
<!-- astromatic&#45;stiff -->
<g id="node28" class="node">
<title>astromatic&#45;stiff</title>
<ellipse fill="#35b779" stroke="#000000" cx="2128.9232" cy="-162" rx="89.0842" ry="18"/>
<text text-anchor="middle" x="2128.9232" y="-158.3" font-family="Times,serif" font-size="14.00" fill="#000000">astromatic stiff</text>
</g>
<!-- netpbm -->
<g id="node29" class="node">
<title>netpbm</title>
<ellipse fill="#35b779" stroke="#000000" cx="2275.9232" cy="-162" rx="40.0939" ry="18"/>
<text text-anchor="middle" x="2275.9232" y="-158.3" font-family="Times,serif" font-size="14.00" fill="#000000">netpbm</text>
</g>
<!-- lcms2 -->
<g id="node30" class="node">
<title>lcms2</title>
<ellipse fill="#35b779" stroke="#000000" cx="266.9232" cy="-90" rx="35.194" ry="18"/>
<text text-anchor="middle" x="266.9232" y="-86.3" font-family="Times,serif" font-size="14.00" fill="#000000">lcms2</text>
</g>
<!-- lcms2&#45;&gt;libvips -->
<g id="edge31" class="edge">
<title>lcms2&#45;&gt;libvips</title>
<path fill="none" stroke="#000000" d="M293.9153,-78.432C321.15,-66.7599 363.5229,-48.6002 394.7137,-35.2327"/>
<polygon fill="#000000" stroke="#000000" points="396.1928,-38.4067 404.0055,-31.2505 393.4353,-31.9727 396.1928,-38.4067"/>
</g>
<!-- openslide&#45;&gt;libvips -->
<g id="edge32" class="edge">
<title>openslide&#45;&gt;libvips</title>
<path fill="none" stroke="#000000" d="M389.4476,-72.5708C396.8175,-63.7269 405.9033,-52.8239 414.0112,-43.0945"/>
<polygon fill="#000000" stroke="#000000" points="416.8196,-45.1916 420.5327,-35.2687 411.442,-40.7103 416.8196,-45.1916"/>
</g>
<!-- gnuastro -->
<g id="node33" class="node">
<title>gnuastro</title>
<ellipse fill="#35b779" stroke="#000000" cx="2383.9232" cy="-162" rx="50.0912" ry="18"/>
<text text-anchor="middle" x="2383.9232" y="-158.3" font-family="Times,serif" font-size="14.00" fill="#000000">gnuastro</text>
</g>
</g>
</svg>
