<?xml version="1.0" encoding="UTF-8" standalone="no"?>
<!DOCTYPE svg PUBLIC "-//W3C//DTD SVG 1.1//EN"
 "http://www.w3.org/Graphics/SVG/1.1/DTD/svg11.dtd">
<!-- Generated by graphviz version 2.42.3 (20191010.1750)
 -->
<!-- Title: %3 Pages: 1 -->
<svg width="1217pt" height="116pt"
 viewBox="0.00 0.00 1217.44 116.00" xmlns="http://www.w3.org/2000/svg" xmlns:xlink="http://www.w3.org/1999/xlink">
<g id="graph0" class="graph" transform="scale(1 1) rotate(0) translate(4 112)">
<title>%3</title>
<polygon fill="white" stroke="transparent" points="-4,4 -4,-112 1213.44,-112 1213.44,4 -4,4"/>
<!-- emacs -->
<g id="node1" class="node">
<title>emacs</title>
<ellipse fill="#31688e" stroke="black" cx="35.1" cy="-90" rx="35.19" ry="18"/>
<text text-anchor="middle" x="35.1" y="-86.3" font-family="Times,serif" font-size="14.00" fill="white">emacs</text>
</g>
<!-- gdal -->
<g id="node2" class="node">
<title>gdal</title>
<ellipse fill="#31688e" stroke="black" cx="119.1" cy="-90" rx="30.59" ry="18"/>
<text text-anchor="middle" x="119.1" y="-86.3" font-family="Times,serif" font-size="14.00" fill="white">gdal</text>
</g>
<!-- imagemagick -->
<g id="node3" class="node">
<title>imagemagick</title>
<ellipse fill="#31688e" stroke="black" cx="232.1" cy="-90" rx="64.19" ry="18"/>
<text text-anchor="middle" x="232.1" y="-86.3" font-family="Times,serif" font-size="14.00" fill="white">imagemagick</text>
</g>
<!-- libvips -->
<g id="node12" class="node">
<title>libvips</title>
<ellipse fill="#fde725" stroke="black" cx="301.1" cy="-18" rx="44.69" ry="18"/>
<text text-anchor="middle" x="301.1" y="-14.3" font-family="Times,serif" font-size="14.00">libvips</text>
</g>
<!-- imagemagick&#45;&gt;libvips -->
<g id="edge1" class="edge">
<title>imagemagick&#45;&gt;libvips</title>
<path fill="none" stroke="black" d="M248.45,-72.41C257.34,-63.39 268.48,-52.09 278.22,-42.21"/>
<polygon fill="black" stroke="black" points="280.81,-44.57 285.34,-34.99 275.82,-39.65 280.81,-44.57"/>
</g>
<!-- imread -->
<g id="node4" class="node">
<title>imread</title>
<ellipse fill="#31688e" stroke="black" cx="482.1" cy="-90" rx="40.09" ry="18"/>
<text text-anchor="middle" x="482.1" y="-86.3" font-family="Times,serif" font-size="14.00" fill="white">imread</text>
</g>
<!-- libitk -->
<g id="node5" class="node">
<title>libitk</title>
<ellipse fill="#31688e" stroke="black" cx="581.1" cy="-90" rx="40.09" ry="18"/>
<text text-anchor="middle" x="581.1" y="-86.3" font-family="Times,serif" font-size="14.00" fill="white">libitk</text>
</g>
<!-- sdl2_image -->
<g id="node6" class="node">
<title>sdl2_image</title>
<ellipse fill="#31688e" stroke="black" cx="699.1" cy="-90" rx="59.59" ry="18"/>
<text text-anchor="middle" x="699.1" y="-86.3" font-family="Times,serif" font-size="14.00" fill="white">sdl2_image</text>
</g>
<!-- leptonica -->
<g id="node7" class="node">
<title>leptonica</title>
<ellipse fill="#31688e" stroke="black" cx="831.1" cy="-90" rx="54.69" ry="18"/>
<text text-anchor="middle" x="831.1" y="-86.3" font-family="Times,serif" font-size="14.00" fill="white">leptonica</text>
</g>
<!-- tesseract -->
<g id="node8" class="node">
<title>tesseract</title>
<ellipse fill="#fde725" stroke="black" cx="831.1" cy="-18" rx="54.69" ry="18"/>
<text text-anchor="middle" x="831.1" y="-14.3" font-family="Times,serif" font-size="14.00">tesseract</text>
</g>
<!-- leptonica&#45;&gt;tesseract -->
<g id="edge2" class="edge">
<title>leptonica&#45;&gt;tesseract</title>
<path fill="none" stroke="black" d="M831.1,-71.7C831.1,-63.98 831.1,-54.71 831.1,-46.11"/>
<polygon fill="black" stroke="black" points="834.6,-46.1 831.1,-36.1 827.6,-46.1 834.6,-46.1"/>
</g>
<!-- graphicsmagick -->
<g id="node9" class="node">
<title>graphicsmagick</title>
<ellipse fill="#31688e" stroke="black" cx="983.1" cy="-90" rx="79.09" ry="18"/>
<text text-anchor="middle" x="983.1" y="-86.3" font-family="Times,serif" font-size="14.00" fill="white">graphicsmagick</text>
</g>
<!-- openimageio -->
<g id="node10" class="node">
<title>openimageio</title>
<ellipse fill="#31688e" stroke="black" cx="1145.1" cy="-90" rx="64.19" ry="18"/>
<text text-anchor="middle" x="1145.1" y="-86.3" font-family="Times,serif" font-size="14.00" fill="white">openimageio</text>
</g>
<!-- openslide -->
<g id="node11" class="node">
<title>openslide</title>
<ellipse fill="#31688e" stroke="black" cx="369.1" cy="-90" rx="54.69" ry="18"/>
<text text-anchor="middle" x="369.1" y="-86.3" font-family="Times,serif" font-size="14.00" fill="white">openslide</text>
</g>
<!-- openslide&#45;&gt;libvips -->
<g id="edge3" class="edge">
<title>openslide&#45;&gt;libvips</title>
<path fill="none" stroke="black" d="M353.33,-72.76C344.57,-63.75 333.53,-52.39 323.85,-42.43"/>
<polygon fill="black" stroke="black" points="326.26,-39.88 316.78,-35.15 321.24,-44.76 326.26,-39.88"/>
</g>
</g>
</svg>
