<?xml version="1.0" encoding="UTF-8" standalone="no"?>
<!DOCTYPE svg PUBLIC "-//W3C//DTD SVG 1.1//EN"
 "http://www.w3.org/Graphics/SVG/1.1/DTD/svg11.dtd">
<!-- Generated by graphviz version 2.40.1 (20161225.0304)
 -->
<!-- Title: %3 Pages: 1 -->
<svg width="2392pt" height="188pt"
 viewBox="0.00 0.00 2392.27 188.00" xmlns="http://www.w3.org/2000/svg" xmlns:xlink="http://www.w3.org/1999/xlink">
<g id="graph0" class="graph" transform="scale(1 1) rotate(0) translate(4 184)">
<title>%3</title>
<polygon fill="#ffffff" stroke="transparent" points="-4,4 -4,-184 2388.2664,-184 2388.2664,4 -4,4"/>
<!-- emacs -->
<g id="node1" class="node">
<title>emacs</title>
<ellipse fill="#31688e" stroke="#000000" cx="219.2209" cy="-162" rx="35.194" ry="18"/>
<text text-anchor="middle" x="219.2209" y="-158.3" font-family="Times,serif" font-size="14.00" fill="#ffffff">emacs</text>
</g>
<!-- gdal -->
<g id="node2" class="node">
<title>gdal</title>
<ellipse fill="#fde725" stroke="#000000" cx="115.2209" cy="-18" rx="30.5947" ry="18"/>
<text text-anchor="middle" x="115.2209" y="-14.3" font-family="Times,serif" font-size="14.00" fill="#000000">gdal</text>
</g>
<!-- gdk&#45;pixbuf -->
<g id="node3" class="node">
<title>gdk&#45;pixbuf</title>
<ellipse fill="#31688e" stroke="#000000" cx="487.2209" cy="-162" rx="59.5901" ry="18"/>
<text text-anchor="middle" x="487.2209" y="-158.3" font-family="Times,serif" font-size="14.00" fill="#ffffff">gdk pixbuf</text>
</g>
<!-- imagemagick -->
<g id="node6" class="node">
<title>imagemagick</title>
<ellipse fill="#fde725" stroke="#000000" cx="579.2209" cy="-90" rx="64.189" ry="18"/>
<text text-anchor="middle" x="579.2209" y="-86.3" font-family="Times,serif" font-size="14.00" fill="#000000">imagemagick</text>
</g>
<!-- gdk&#45;pixbuf&#45;&gt;imagemagick -->
<g id="edge5" class="edge">
<title>gdk&#45;pixbuf&#45;&gt;imagemagick</title>
<path fill="none" stroke="#000000" d="M509.0236,-144.937C521.0805,-135.5012 536.2378,-123.6389 549.3795,-113.3541"/>
<polygon fill="#000000" stroke="#000000" points="551.5378,-116.1094 557.2558,-107.19 547.2236,-110.5969 551.5378,-116.1094"/>
</g>
<!-- gtk2 -->
<g id="node23" class="node">
<title>gtk2</title>
<ellipse fill="#fde725" stroke="#000000" cx="428.2209" cy="-90" rx="30.5947" ry="18"/>
<text text-anchor="middle" x="428.2209" y="-86.3" font-family="Times,serif" font-size="14.00" fill="#000000">gtk2</text>
</g>
<!-- gdk&#45;pixbuf&#45;&gt;gtk2 -->
<g id="edge1" class="edge">
<title>gdk&#45;pixbuf&#45;&gt;gtk2</title>
<path fill="none" stroke="#000000" d="M472.6366,-144.2022C465.2785,-135.223 456.2405,-124.1934 448.2424,-114.4331"/>
<polygon fill="#000000" stroke="#000000" points="450.8739,-112.1222 441.8284,-106.6058 445.4595,-116.559 450.8739,-112.1222"/>
</g>
<!-- root -->
<g id="node26" class="node">
<title>root</title>
<ellipse fill="#fde725" stroke="#000000" cx="819.2209" cy="-90" rx="30.5947" ry="18"/>
<text text-anchor="middle" x="819.2209" y="-86.3" font-family="Times,serif" font-size="14.00" fill="#000000">root</text>
</g>
<!-- gdk&#45;pixbuf&#45;&gt;root -->
<g id="edge4" class="edge">
<title>gdk&#45;pixbuf&#45;&gt;root</title>
<path fill="none" stroke="#000000" d="M539.2866,-153.1325C617.251,-139.7438 757.6348,-115.1685 780.2209,-108 782.3576,-107.3218 784.5304,-106.5547 786.7012,-105.7289"/>
<polygon fill="#000000" stroke="#000000" points="788.1983,-108.8969 796.0884,-101.8262 785.511,-102.4333 788.1983,-108.8969"/>
</g>
<!-- openslide -->
<g id="node30" class="node">
<title>openslide</title>
<ellipse fill="#fde725" stroke="#000000" cx="286.2209" cy="-90" rx="54.6905" ry="18"/>
<text text-anchor="middle" x="286.2209" y="-86.3" font-family="Times,serif" font-size="14.00" fill="#000000">openslide</text>
</g>
<!-- gdk&#45;pixbuf&#45;&gt;openslide -->
<g id="edge3" class="edge">
<title>gdk&#45;pixbuf&#45;&gt;openslide</title>
<path fill="none" stroke="#000000" d="M448.466,-148.1177C415.5151,-136.3144 368.106,-119.332 333.0388,-106.7706"/>
<polygon fill="#000000" stroke="#000000" points="334.0922,-103.4302 323.4976,-103.3529 331.7315,-110.0202 334.0922,-103.4302"/>
</g>
<!-- libvips -->
<g id="node31" class="node">
<title>libvips</title>
<ellipse fill="#fde725" stroke="#000000" cx="487.2209" cy="-18" rx="44.6926" ry="18"/>
<text text-anchor="middle" x="487.2209" y="-14.3" font-family="Times,serif" font-size="14.00" fill="#000000">libvips</text>
</g>
<!-- gdk&#45;pixbuf&#45;&gt;libvips -->
<g id="edge2" class="edge">
<title>gdk&#45;pixbuf&#45;&gt;libvips</title>
<path fill="none" stroke="#000000" d="M487.2209,-143.7623C487.2209,-119.201 487.2209,-75.2474 487.2209,-46.3541"/>
<polygon fill="#000000" stroke="#000000" points="490.7209,-46.0896 487.2209,-36.0896 483.7209,-46.0897 490.7209,-46.0896"/>
</g>
<!-- geotiff -->
<g id="node4" class="node">
<title>geotiff</title>
<ellipse fill="#31688e" stroke="#000000" cx="61.2209" cy="-90" rx="44.6926" ry="18"/>
<text text-anchor="middle" x="61.2209" y="-86.3" font-family="Times,serif" font-size="14.00" fill="#ffffff">geotiff</text>
</g>
<!-- geotiff&#45;&gt;gdal -->
<g id="edge6" class="edge">
<title>geotiff&#45;&gt;gdal</title>
<path fill="none" stroke="#000000" d="M74.2927,-72.5708C80.9559,-63.6866 89.1775,-52.7245 96.4998,-42.9615"/>
<polygon fill="#000000" stroke="#000000" points="99.4411,-44.8729 102.6412,-34.7729 93.8411,-40.6729 99.4411,-44.8729"/>
</g>
<!-- graphviz -->
<g id="node5" class="node">
<title>graphviz</title>
<ellipse fill="#31688e" stroke="#000000" cx="653.2209" cy="-162" rx="50.0912" ry="18"/>
<text text-anchor="middle" x="653.2209" y="-158.3" font-family="Times,serif" font-size="14.00" fill="#ffffff">graphviz</text>
</g>
<!-- graphviz&#45;&gt;imagemagick -->
<g id="edge7" class="edge">
<title>graphviz&#45;&gt;imagemagick</title>
<path fill="none" stroke="#000000" d="M635.6839,-144.937C626.3292,-135.8352 614.6541,-124.4756 604.352,-114.4519"/>
<polygon fill="#000000" stroke="#000000" points="606.754,-111.9057 597.146,-107.4407 601.8725,-116.9228 606.754,-111.9057"/>
</g>
<!-- graphviz&#45;&gt;root -->
<g id="edge8" class="edge">
<title>graphviz&#45;&gt;root</title>
<path fill="none" stroke="#000000" d="M686.2316,-148.2872C711.935,-137.532 748.4605,-122.0776 780.2209,-108 782.0104,-107.2068 783.8431,-106.387 785.6911,-105.5544"/>
<polygon fill="#000000" stroke="#000000" points="787.28,-108.6767 794.9318,-101.3486 784.3802,-102.3056 787.28,-108.6767"/>
</g>
<!-- imagemagick&#45;&gt;libvips -->
<g id="edge9" class="edge">
<title>imagemagick&#45;&gt;libvips</title>
<path fill="none" stroke="#000000" d="M557.4181,-72.937C545.0092,-63.2257 529.3161,-50.9441 515.9164,-40.4574"/>
<polygon fill="#000000" stroke="#000000" points="517.9516,-37.6057 507.9194,-34.1989 513.6374,-43.1183 517.9516,-37.6057"/>
</g>
<!-- imread -->
<g id="node7" class="node">
<title>imread</title>
<ellipse fill="#fde725" stroke="#000000" cx="984.2209" cy="-90" rx="40.0939" ry="18"/>
<text text-anchor="middle" x="984.2209" y="-86.3" font-family="Times,serif" font-size="14.00" fill="#000000">imread</text>
</g>
<!-- libcdms -->
<g id="node8" class="node">
<title>libcdms</title>
<ellipse fill="#31688e" stroke="#000000" cx="1196.2209" cy="-162" rx="44.6926" ry="18"/>
<text text-anchor="middle" x="1196.2209" y="-158.3" font-family="Times,serif" font-size="14.00" fill="#ffffff">libcdms</text>
</g>
<!-- libgd -->
<g id="node9" class="node">
<title>libgd</title>
<ellipse fill="#fde725" stroke="#000000" cx="1077.2209" cy="-90" rx="35.194" ry="18"/>
<text text-anchor="middle" x="1077.2209" y="-86.3" font-family="Times,serif" font-size="14.00" fill="#000000">libgd</text>
</g>
<!-- libitk -->
<g id="node10" class="node">
<title>libitk</title>
<ellipse fill="#31688e" stroke="#000000" cx="1383.2209" cy="-162" rx="40.0939" ry="18"/>
<text text-anchor="middle" x="1383.2209" y="-158.3" font-family="Times,serif" font-size="14.00" fill="#ffffff">libitk</text>
</g>
<!-- opencv -->
<g id="node11" class="node">
<title>opencv</title>
<ellipse fill="#fde725" stroke="#000000" cx="1170.2209" cy="-90" rx="40.0939" ry="18"/>
<text text-anchor="middle" x="1170.2209" y="-86.3" font-family="Times,serif" font-size="14.00" fill="#000000">opencv</text>
</g>
<!-- openjpeg -->
<g id="node12" class="node">
<title>openjpeg</title>
<ellipse fill="#31688e" stroke="#000000" cx="322.2209" cy="-162" rx="50.0912" ry="18"/>
<text text-anchor="middle" x="322.2209" y="-158.3" font-family="Times,serif" font-size="14.00" fill="#ffffff">openjpeg</text>
</g>
<!-- openjpeg&#45;&gt;gdal -->
<g id="edge10" class="edge">
<title>openjpeg&#45;&gt;gdal</title>
<path fill="none" stroke="#000000" d="M285.3176,-149.7753C278.0471,-147.6415 270.4354,-145.5975 263.2209,-144 207.1308,-131.5801 44.9088,-151.3586 7.2209,-108 -3.2756,-95.9242 -1.1908,-85.6104 7.2209,-72 22.2348,-47.707 51.8532,-33.9771 76.2809,-26.4474"/>
<polygon fill="#000000" stroke="#000000" points="77.368,-29.7771 86.0303,-23.6768 75.4544,-23.0437 77.368,-29.7771"/>
</g>
<!-- openjpeg&#45;&gt;imagemagick -->
<g id="edge11" class="edge">
<title>openjpeg&#45;&gt;imagemagick</title>
<path fill="none" stroke="#000000" d="M361.8139,-150.9078C405.152,-138.7664 474.9536,-119.2111 523.7388,-105.5436"/>
<polygon fill="#000000" stroke="#000000" points="524.8219,-108.875 533.507,-102.807 522.9335,-102.1345 524.8219,-108.875"/>
</g>
<!-- poppler -->
<g id="node15" class="node">
<title>poppler</title>
<ellipse fill="#fde725" stroke="#000000" cx="169.2209" cy="-90" rx="44.6926" ry="18"/>
<text text-anchor="middle" x="169.2209" y="-86.3" font-family="Times,serif" font-size="14.00" fill="#000000">poppler</text>
</g>
<!-- openjpeg&#45;&gt;poppler -->
<g id="edge14" class="edge">
<title>openjpeg&#45;&gt;poppler</title>
<path fill="none" stroke="#000000" d="M291.6267,-147.6028C267.4721,-136.2359 233.6282,-120.3093 207.6477,-108.0832"/>
<polygon fill="#000000" stroke="#000000" points="209.0027,-104.8527 198.4642,-103.7616 206.0221,-111.1865 209.0027,-104.8527"/>
</g>
<!-- leptonica -->
<g id="node21" class="node">
<title>leptonica</title>
<ellipse fill="#fde725" stroke="#000000" cx="716.2209" cy="-90" rx="54.6905" ry="18"/>
<text text-anchor="middle" x="716.2209" y="-86.3" font-family="Times,serif" font-size="14.00" fill="#000000">leptonica</text>
</g>
<!-- openjpeg&#45;&gt;leptonica -->
<g id="edge12" class="edge">
<title>openjpeg&#45;&gt;leptonica</title>
<path fill="none" stroke="#000000" d="M366.6159,-153.3626C382.8341,-150.29 401.3382,-146.8806 418.2209,-144 521.9454,-126.3019 549.3843,-130.2855 652.2209,-108 656.6554,-107.039 661.2373,-105.9487 665.8166,-104.7914"/>
<polygon fill="#000000" stroke="#000000" points="666.9962,-108.1004 675.7793,-102.1752 665.2182,-101.3299 666.9962,-108.1004"/>
</g>
<!-- tesseract -->
<g id="node22" class="node">
<title>tesseract</title>
<ellipse fill="#fde725" stroke="#000000" cx="716.2209" cy="-18" rx="54.6905" ry="18"/>
<text text-anchor="middle" x="716.2209" y="-14.3" font-family="Times,serif" font-size="14.00" fill="#000000">tesseract</text>
</g>
<!-- openjpeg&#45;&gt;tesseract -->
<g id="edge15" class="edge">
<title>openjpeg&#45;&gt;tesseract</title>
<path fill="none" stroke="#000000" d="M330.0577,-144.1884C340.2559,-123.2673 360.1497,-89.2341 388.2209,-72 410.5672,-58.2806 566.5029,-36.8241 655.083,-25.5312"/>
<polygon fill="#000000" stroke="#000000" points="655.5328,-29.0023 665.0129,-24.2718 654.652,-22.0579 655.5328,-29.0023"/>
</g>
<!-- openjpeg&#45;&gt;openslide -->
<g id="edge13" class="edge">
<title>openjpeg&#45;&gt;openslide</title>
<path fill="none" stroke="#000000" d="M313.322,-144.2022C309.2113,-135.981 304.2414,-126.041 299.6859,-116.9301"/>
<polygon fill="#000000" stroke="#000000" points="302.7448,-115.2216 295.1421,-107.8425 296.4838,-118.3521 302.7448,-115.2216"/>
</g>
<!-- paraview -->
<g id="node13" class="node">
<title>paraview</title>
<ellipse fill="#31688e" stroke="#000000" cx="1533.2209" cy="-162" rx="50.0912" ry="18"/>
<text text-anchor="middle" x="1533.2209" y="-158.3" font-family="Times,serif" font-size="14.00" fill="#ffffff">paraview</text>
</g>
<!-- pillow -->
<g id="node14" class="node">
<title>pillow</title>
<ellipse fill="#31688e" stroke="#000000" cx="1662.2209" cy="-162" rx="40.0939" ry="18"/>
<text text-anchor="middle" x="1662.2209" y="-158.3" font-family="Times,serif" font-size="14.00" fill="#ffffff">pillow</text>
</g>
<!-- poppler&#45;&gt;gdal -->
<g id="edge16" class="edge">
<title>poppler&#45;&gt;gdal</title>
<path fill="none" stroke="#000000" d="M156.149,-72.5708C149.4858,-63.6866 141.2642,-52.7245 133.9419,-42.9615"/>
<polygon fill="#000000" stroke="#000000" points="136.6006,-40.6729 127.8005,-34.7729 131.0006,-44.8729 136.6006,-40.6729"/>
</g>
<!-- poppler&#45;&gt;libvips -->
<g id="edge17" class="edge">
<title>poppler&#45;&gt;libvips</title>
<path fill="none" stroke="#000000" d="M202.6688,-77.9273C209.1127,-75.8046 215.8422,-73.7256 222.2209,-72 295.4566,-52.1871 381.8182,-35.8718 435.558,-26.5324"/>
<polygon fill="#000000" stroke="#000000" points="436.2691,-29.9616 445.5297,-24.8145 435.0806,-23.0632 436.2691,-29.9616"/>
</g>
<!-- r&#45;base -->
<g id="node16" class="node">
<title>r&#45;base</title>
<ellipse fill="#31688e" stroke="#000000" cx="1772.2209" cy="-162" rx="40.0939" ry="18"/>
<text text-anchor="middle" x="1772.2209" y="-158.3" font-family="Times,serif" font-size="14.00" fill="#ffffff">r base</text>
</g>
<!-- r&#45;rtiff -->
<g id="node33" class="node">
<title>r&#45;rtiff</title>
<ellipse fill="#fde725" stroke="#000000" cx="1772.2209" cy="-90" rx="44.6926" ry="18"/>
<text text-anchor="middle" x="1772.2209" y="-86.3" font-family="Times,serif" font-size="14.00" fill="#000000">r rtiff</text>
</g>
<!-- r&#45;base&#45;&gt;r&#45;rtiff -->
<g id="edge18" class="edge">
<title>r&#45;base&#45;&gt;r&#45;rtiff</title>
<path fill="none" stroke="#000000" d="M1772.2209,-143.8314C1772.2209,-136.131 1772.2209,-126.9743 1772.2209,-118.4166"/>
<polygon fill="#000000" stroke="#000000" points="1775.721,-118.4132 1772.2209,-108.4133 1768.721,-118.4133 1775.721,-118.4132"/>
</g>
<!-- vigra -->
<g id="node17" class="node">
<title>vigra</title>
<ellipse fill="#31688e" stroke="#000000" cx="1865.2209" cy="-162" rx="35.194" ry="18"/>
<text text-anchor="middle" x="1865.2209" y="-158.3" font-family="Times,serif" font-size="14.00" fill="#ffffff">vigra</text>
</g>
<!-- vtk -->
<g id="node18" class="node">
<title>vtk</title>
<ellipse fill="#31688e" stroke="#000000" cx="1945.2209" cy="-162" rx="27" ry="18"/>
<text text-anchor="middle" x="1945.2209" y="-158.3" font-family="Times,serif" font-size="14.00" fill="#ffffff">vtk</text>
</g>
<!-- libwebp -->
<g id="node19" class="node">
<title>libwebp</title>
<ellipse fill="#31688e" stroke="#000000" cx="1077.2209" cy="-162" rx="44.6926" ry="18"/>
<text text-anchor="middle" x="1077.2209" y="-158.3" font-family="Times,serif" font-size="14.00" fill="#ffffff">libwebp</text>
</g>
<!-- libwebp&#45;&gt;gdal -->
<g id="edge19" class="edge">
<title>libwebp&#45;&gt;gdal</title>
<path fill="none" stroke="#000000" d="M1034.4982,-156.2721C995.1663,-149.4989 936.4001,-135.4787 892.2209,-108 873.79,-96.5364 878.759,-81.4537 859.2209,-72 843.2648,-64.2795 310.1578,-30.2514 156.3656,-20.5749"/>
<polygon fill="#000000" stroke="#000000" points="156.1603,-17.0552 145.9604,-19.921 155.7212,-24.0414 156.1603,-17.0552"/>
</g>
<!-- libwebp&#45;&gt;imagemagick -->
<g id="edge21" class="edge">
<title>libwebp&#45;&gt;imagemagick</title>
<path fill="none" stroke="#000000" d="M1033.2168,-158.098C955.7713,-150.8554 790.2377,-133.6952 652.2209,-108 646.9274,-107.0145 641.4444,-105.8792 635.9705,-104.6681"/>
<polygon fill="#000000" stroke="#000000" points="636.6994,-101.2444 626.1702,-102.4219 635.1355,-108.0675 636.6994,-101.2444"/>
</g>
<!-- libwebp&#45;&gt;imread -->
<g id="edge22" class="edge">
<title>libwebp&#45;&gt;imread</title>
<path fill="none" stroke="#000000" d="M1056.1177,-145.6621C1043.2155,-135.6733 1026.5504,-122.7713 1012.5138,-111.9042"/>
<polygon fill="#000000" stroke="#000000" points="1014.6512,-109.1327 1004.6013,-105.7784 1010.366,-114.6678 1014.6512,-109.1327"/>
</g>
<!-- libwebp&#45;&gt;libgd -->
<g id="edge24" class="edge">
<title>libwebp&#45;&gt;libgd</title>
<path fill="none" stroke="#000000" d="M1077.2209,-143.8314C1077.2209,-136.131 1077.2209,-126.9743 1077.2209,-118.4166"/>
<polygon fill="#000000" stroke="#000000" points="1080.721,-118.4132 1077.2209,-108.4133 1073.721,-118.4133 1080.721,-118.4132"/>
</g>
<!-- libwebp&#45;&gt;opencv -->
<g id="edge26" class="edge">
<title>libwebp&#45;&gt;opencv</title>
<path fill="none" stroke="#000000" d="M1098.324,-145.6621C1111.2262,-135.6733 1127.8913,-122.7713 1141.9279,-111.9042"/>
<polygon fill="#000000" stroke="#000000" points="1144.0757,-114.6678 1149.8404,-105.7784 1139.7905,-109.1327 1144.0757,-114.6678"/>
</g>
<!-- sdl2_image -->
<g id="node20" class="node">
<title>sdl2_image</title>
<ellipse fill="#fde725" stroke="#000000" cx="1288.2209" cy="-90" rx="59.5901" ry="18"/>
<text text-anchor="middle" x="1288.2209" y="-86.3" font-family="Times,serif" font-size="14.00" fill="#000000">sdl2_image</text>
</g>
<!-- libwebp&#45;&gt;sdl2_image -->
<g id="edge28" class="edge">
<title>libwebp&#45;&gt;sdl2_image</title>
<path fill="none" stroke="#000000" d="M1111.5913,-150.2717C1146.1478,-138.4799 1199.7624,-120.1849 1238.8613,-106.8431"/>
<polygon fill="#000000" stroke="#000000" points="1240.1347,-110.1068 1248.4685,-103.5648 1237.874,-103.4819 1240.1347,-110.1068"/>
</g>
<!-- libwebp&#45;&gt;leptonica -->
<g id="edge23" class="edge">
<title>libwebp&#45;&gt;leptonica</title>
<path fill="none" stroke="#000000" d="M1035.0031,-155.7004C977.0103,-146.7405 869.6041,-129.0465 779.2209,-108 775.1079,-107.0423 770.8629,-105.9837 766.6106,-104.8738"/>
<polygon fill="#000000" stroke="#000000" points="767.3006,-101.435 756.7344,-102.214 765.4802,-108.1942 767.3006,-101.435"/>
</g>
<!-- libwebp&#45;&gt;tesseract -->
<g id="edge29" class="edge">
<title>libwebp&#45;&gt;tesseract</title>
<path fill="none" stroke="#000000" d="M1113.4939,-151.2357C1122.8085,-148.6701 1132.8464,-146.0769 1142.2209,-144 1240.6065,-122.2027 1425.4206,-146.1867 1357.2209,-72 1318.778,-30.1825 936.5877,-20.7261 781.3015,-18.6058"/>
<polygon fill="#000000" stroke="#000000" points="781.0086,-15.1018 770.9637,-18.471 780.9172,-22.1012 781.0086,-15.1018"/>
</g>
<!-- graphicsmagick -->
<g id="node24" class="node">
<title>graphicsmagick</title>
<ellipse fill="#fde725" stroke="#000000" cx="1483.2209" cy="-90" rx="79.0865" ry="18"/>
<text text-anchor="middle" x="1483.2209" y="-86.3" font-family="Times,serif" font-size="14.00" fill="#000000">graphicsmagick</text>
</g>
<!-- libwebp&#45;&gt;graphicsmagick -->
<g id="edge20" class="edge">
<title>libwebp&#45;&gt;graphicsmagick</title>
<path fill="none" stroke="#000000" d="M1113.1229,-151.188C1122.5334,-148.5938 1132.7098,-145.9989 1142.2209,-144 1251.2171,-121.0924 1280.4053,-126.5872 1390.2209,-108 1397.8596,-106.7071 1405.8362,-105.2805 1413.7678,-103.8131"/>
<polygon fill="#000000" stroke="#000000" points="1414.5776,-107.2224 1423.7615,-101.9398 1413.2878,-100.3422 1414.5776,-107.2224"/>
</g>
<!-- openimageio -->
<g id="node27" class="node">
<title>openimageio</title>
<ellipse fill="#fde725" stroke="#000000" cx="1645.2209" cy="-90" rx="64.189" ry="18"/>
<text text-anchor="middle" x="1645.2209" y="-86.3" font-family="Times,serif" font-size="14.00" fill="#000000">openimageio</text>
</g>
<!-- libwebp&#45;&gt;openimageio -->
<g id="edge27" class="edge">
<title>libwebp&#45;&gt;openimageio</title>
<path fill="none" stroke="#000000" d="M1112.7063,-150.8867C1122.2119,-148.2644 1132.5385,-145.7313 1142.2209,-144 1330.5704,-110.3219 1382.3636,-138.7034 1571.2209,-108 1576.906,-107.0757 1582.799,-105.9448 1588.6647,-104.7043"/>
<polygon fill="#000000" stroke="#000000" points="1589.4635,-108.1123 1598.4686,-102.5304 1587.948,-101.2783 1589.4635,-108.1123"/>
</g>
<!-- libwebp&#45;&gt;libvips -->
<g id="edge25" class="edge">
<title>libwebp&#45;&gt;libvips</title>
<path fill="none" stroke="#000000" d="M1040.1048,-151.6313C1010.5254,-142.502 968.6691,-127.6072 935.2209,-108 913.7184,-95.3953 915.0319,-82.0445 892.2209,-72 876.298,-64.9886 646.8566,-37.0016 540.5617,-24.3123"/>
<polygon fill="#000000" stroke="#000000" points="540.709,-20.8052 530.365,-23.0969 539.8804,-27.756 540.709,-20.8052"/>
</g>
<!-- leptonica&#45;&gt;tesseract -->
<g id="edge30" class="edge">
<title>leptonica&#45;&gt;tesseract</title>
<path fill="none" stroke="#000000" d="M716.2209,-71.8314C716.2209,-64.131 716.2209,-54.9743 716.2209,-46.4166"/>
<polygon fill="#000000" stroke="#000000" points="719.721,-46.4132 716.2209,-36.4133 712.721,-46.4133 719.721,-46.4132"/>
</g>
<!-- afterimage -->
<g id="node25" class="node">
<title>afterimage</title>
<ellipse fill="#31688e" stroke="#000000" cx="819.2209" cy="-162" rx="59.5901" ry="18"/>
<text text-anchor="middle" x="819.2209" y="-158.3" font-family="Times,serif" font-size="14.00" fill="#ffffff">afterimage</text>
</g>
<!-- afterimage&#45;&gt;root -->
<g id="edge31" class="edge">
<title>afterimage&#45;&gt;root</title>
<path fill="none" stroke="#000000" d="M819.2209,-143.8314C819.2209,-136.131 819.2209,-126.9743 819.2209,-118.4166"/>
<polygon fill="#000000" stroke="#000000" points="822.721,-118.4132 819.2209,-108.4133 815.721,-118.4133 822.721,-118.4132"/>
</g>
<!-- astromatic&#45;stiff -->
<g id="node28" class="node">
<title>astromatic&#45;stiff</title>
<ellipse fill="#31688e" stroke="#000000" cx="2079.2209" cy="-162" rx="89.0842" ry="18"/>
<text text-anchor="middle" x="2079.2209" y="-158.3" font-family="Times,serif" font-size="14.00" fill="#ffffff">astromatic stiff</text>
</g>
<!-- netpbm -->
<g id="node29" class="node">
<title>netpbm</title>
<ellipse fill="#31688e" stroke="#000000" cx="2226.2209" cy="-162" rx="40.0939" ry="18"/>
<text text-anchor="middle" x="2226.2209" y="-158.3" font-family="Times,serif" font-size="14.00" fill="#ffffff">netpbm</text>
</g>
<!-- openslide&#45;&gt;libvips -->
<g id="edge32" class="edge">
<title>openslide&#45;&gt;libvips</title>
<path fill="none" stroke="#000000" d="M323.5563,-76.6261C357.698,-64.3962 408.1953,-46.3077 444.0565,-33.4618"/>
<polygon fill="#000000" stroke="#000000" points="445.5234,-36.6542 453.7574,-29.9869 443.1628,-30.0643 445.5234,-36.6542"/>
</g>
<!-- gnuastro -->
<g id="node32" class="node">
<title>gnuastro</title>
<ellipse fill="#31688e" stroke="#000000" cx="2334.2209" cy="-162" rx="50.0912" ry="18"/>
<text text-anchor="middle" x="2334.2209" y="-158.3" font-family="Times,serif" font-size="14.00" fill="#ffffff">gnuastro</text>
</g>
</g>
</svg>
