<?xml version="1.0" encoding="UTF-8" standalone="no"?>
<!DOCTYPE svg PUBLIC "-//W3C//DTD SVG 1.1//EN"
 "http://www.w3.org/Graphics/SVG/1.1/DTD/svg11.dtd">
<!-- Generated by graphviz version 2.40.1 (20161225.0304)
 -->
<!-- Title: %3 Pages: 1 -->
<svg width="2253pt" height="188pt"
 viewBox="0.00 0.00 2253.44 188.00" xmlns="http://www.w3.org/2000/svg" xmlns:xlink="http://www.w3.org/1999/xlink">
<g id="graph0" class="graph" transform="scale(1 1) rotate(0) translate(4 184)">
<title>%3</title>
<polygon fill="#ffffff" stroke="transparent" points="-4,4 -4,-184 2249.4412,-184 2249.4412,4 -4,4"/>
<!-- emacs -->
<g id="node1" class="node">
<title>emacs</title>
<ellipse fill="#31688e" stroke="#000000" cx="108.5952" cy="-162" rx="35.194" ry="18"/>
<text text-anchor="middle" x="108.5952" y="-158.3" font-family="Times,serif" font-size="14.00" fill="#ffffff">emacs</text>
</g>
<!-- gdal -->
<g id="node2" class="node">
<title>gdal</title>
<ellipse fill="#fde725" stroke="#000000" cx="211.5952" cy="-18" rx="30.5947" ry="18"/>
<text text-anchor="middle" x="211.5952" y="-14.3" font-family="Times,serif" font-size="14.00" fill="#000000">gdal</text>
</g>
<!-- gdk&#45;pixbuf -->
<g id="node3" class="node">
<title>gdk&#45;pixbuf</title>
<ellipse fill="#31688e" stroke="#000000" cx="610.5952" cy="-162" rx="59.5901" ry="18"/>
<text text-anchor="middle" x="610.5952" y="-158.3" font-family="Times,serif" font-size="14.00" fill="#ffffff">gdk pixbuf</text>
</g>
<!-- imagemagick -->
<g id="node4" class="node">
<title>imagemagick</title>
<ellipse fill="#fde725" stroke="#000000" cx="502.5952" cy="-90" rx="64.189" ry="18"/>
<text text-anchor="middle" x="502.5952" y="-86.3" font-family="Times,serif" font-size="14.00" fill="#000000">imagemagick</text>
</g>
<!-- gdk&#45;pixbuf&#45;&gt;imagemagick -->
<g id="edge5" class="edge">
<title>gdk&#45;pixbuf&#45;&gt;imagemagick</title>
<path fill="none" stroke="#000000" d="M585.8178,-145.4817C571.1051,-135.6733 552.2508,-123.1037 536.2095,-112.4096"/>
<polygon fill="#000000" stroke="#000000" points="537.8932,-109.3256 527.6312,-106.6907 534.0103,-115.1499 537.8932,-109.3256"/>
</g>
<!-- gtk2 -->
<g id="node18" class="node">
<title>gtk2</title>
<ellipse fill="#fde725" stroke="#000000" cx="615.5952" cy="-90" rx="30.5947" ry="18"/>
<text text-anchor="middle" x="615.5952" y="-86.3" font-family="Times,serif" font-size="14.00" fill="#000000">gtk2</text>
</g>
<!-- gdk&#45;pixbuf&#45;&gt;gtk2 -->
<g id="edge1" class="edge">
<title>gdk&#45;pixbuf&#45;&gt;gtk2</title>
<path fill="none" stroke="#000000" d="M611.8569,-143.8314C612.3916,-136.131 613.0275,-126.9743 613.6218,-118.4166"/>
<polygon fill="#000000" stroke="#000000" points="617.1152,-118.6317 614.3165,-108.4133 610.132,-118.1467 617.1152,-118.6317"/>
</g>
<!-- root -->
<g id="node21" class="node">
<title>root</title>
<ellipse fill="#fde725" stroke="#000000" cx="743.5952" cy="-90" rx="30.5947" ry="18"/>
<text text-anchor="middle" x="743.5952" y="-86.3" font-family="Times,serif" font-size="14.00" fill="#000000">root</text>
</g>
<!-- gdk&#45;pixbuf&#45;&gt;root -->
<g id="edge4" class="edge">
<title>gdk&#45;pixbuf&#45;&gt;root</title>
<path fill="none" stroke="#000000" d="M639.7826,-146.1993C661.1931,-134.6086 690.2334,-118.8876 712.155,-107.0202"/>
<polygon fill="#000000" stroke="#000000" points="713.9433,-110.0321 721.0712,-102.1934 710.6108,-103.8763 713.9433,-110.0321"/>
</g>
<!-- openslide -->
<g id="node24" class="node">
<title>openslide</title>
<ellipse fill="#fde725" stroke="#000000" cx="365.5952" cy="-90" rx="54.6905" ry="18"/>
<text text-anchor="middle" x="365.5952" y="-86.3" font-family="Times,serif" font-size="14.00" fill="#000000">openslide</text>
</g>
<!-- gdk&#45;pixbuf&#45;&gt;openslide -->
<g id="edge3" class="edge">
<title>gdk&#45;pixbuf&#45;&gt;openslide</title>
<path fill="none" stroke="#000000" d="M567.6391,-149.3762C525.4078,-136.9654 460.9556,-118.0243 416.2486,-104.8859"/>
<polygon fill="#000000" stroke="#000000" points="417.0432,-101.4715 406.462,-102.0099 415.0694,-108.1875 417.0432,-101.4715"/>
</g>
<!-- libvips -->
<g id="node25" class="node">
<title>libvips</title>
<ellipse fill="#fde725" stroke="#000000" cx="433.5952" cy="-18" rx="44.6926" ry="18"/>
<text text-anchor="middle" x="433.5952" y="-14.3" font-family="Times,serif" font-size="14.00" fill="#000000">libvips</text>
</g>
<!-- gdk&#45;pixbuf&#45;&gt;libvips -->
<g id="edge2" class="edge">
<title>gdk&#45;pixbuf&#45;&gt;libvips</title>
<path fill="none" stroke="#000000" d="M630.0142,-144.9044C649.2733,-125.8738 673.5142,-94.8002 655.5952,-72 635.0746,-45.8896 546.4202,-30.8333 487.5423,-23.5413"/>
<polygon fill="#000000" stroke="#000000" points="487.6257,-20.0263 477.2802,-22.3111 486.7925,-26.9765 487.6257,-20.0263"/>
</g>
<!-- imagemagick&#45;&gt;libvips -->
<g id="edge6" class="edge">
<title>imagemagick&#45;&gt;libvips</title>
<path fill="none" stroke="#000000" d="M485.8922,-72.5708C477.2473,-63.55 466.5493,-52.387 457.0859,-42.5121"/>
<polygon fill="#000000" stroke="#000000" points="459.5904,-40.0669 450.1443,-35.2687 454.5364,-44.9103 459.5904,-40.0669"/>
</g>
<!-- imread -->
<g id="node5" class="node">
<title>imread</title>
<ellipse fill="#31688e" stroke="#000000" cx="866.5952" cy="-162" rx="40.0939" ry="18"/>
<text text-anchor="middle" x="866.5952" y="-158.3" font-family="Times,serif" font-size="14.00" fill="#ffffff">imread</text>
</g>
<!-- libcdms -->
<g id="node6" class="node">
<title>libcdms</title>
<ellipse fill="#31688e" stroke="#000000" cx="969.5952" cy="-162" rx="44.6926" ry="18"/>
<text text-anchor="middle" x="969.5952" y="-158.3" font-family="Times,serif" font-size="14.00" fill="#ffffff">libcdms</text>
</g>
<!-- libgd -->
<g id="node7" class="node">
<title>libgd</title>
<ellipse fill="#31688e" stroke="#000000" cx="1067.5952" cy="-162" rx="35.194" ry="18"/>
<text text-anchor="middle" x="1067.5952" y="-158.3" font-family="Times,serif" font-size="14.00" fill="#ffffff">libgd</text>
</g>
<!-- libitk -->
<g id="node8" class="node">
<title>libitk</title>
<ellipse fill="#31688e" stroke="#000000" cx="1160.5952" cy="-162" rx="40.0939" ry="18"/>
<text text-anchor="middle" x="1160.5952" y="-158.3" font-family="Times,serif" font-size="14.00" fill="#ffffff">libitk</text>
</g>
<!-- opencv -->
<g id="node9" class="node">
<title>opencv</title>
<ellipse fill="#31688e" stroke="#000000" cx="1259.5952" cy="-162" rx="40.0939" ry="18"/>
<text text-anchor="middle" x="1259.5952" y="-158.3" font-family="Times,serif" font-size="14.00" fill="#ffffff">opencv</text>
</g>
<!-- openjpeg -->
<g id="node10" class="node">
<title>openjpeg</title>
<ellipse fill="#31688e" stroke="#000000" cx="211.5952" cy="-162" rx="50.0912" ry="18"/>
<text text-anchor="middle" x="211.5952" y="-158.3" font-family="Times,serif" font-size="14.00" fill="#ffffff">openjpeg</text>
</g>
<!-- openjpeg&#45;&gt;gdal -->
<g id="edge7" class="edge">
<title>openjpeg&#45;&gt;gdal</title>
<path fill="none" stroke="#000000" d="M204.3513,-143.8366C200.624,-133.513 196.4764,-120.2403 194.5952,-108 192.1647,-92.1857 192.1647,-87.8143 194.5952,-72 195.9538,-63.1598 198.4946,-53.7811 201.2055,-45.3637"/>
<polygon fill="#000000" stroke="#000000" points="204.5952,-46.2687 204.5285,-35.674 197.9737,-43.9979 204.5952,-46.2687"/>
</g>
<!-- openjpeg&#45;&gt;imagemagick -->
<g id="edge8" class="edge">
<title>openjpeg&#45;&gt;imagemagick</title>
<path fill="none" stroke="#000000" d="M252.9793,-151.7606C303.0122,-139.3814 387.5376,-118.4678 444.1895,-104.4509"/>
<polygon fill="#000000" stroke="#000000" points="445.2124,-107.8034 454.079,-102.004 443.531,-101.0083 445.2124,-107.8034"/>
</g>
<!-- poppler -->
<g id="node12" class="node">
<title>poppler</title>
<ellipse fill="#fde725" stroke="#000000" cx="248.5952" cy="-90" rx="44.6926" ry="18"/>
<text text-anchor="middle" x="248.5952" y="-86.3" font-family="Times,serif" font-size="14.00" fill="#000000">poppler</text>
</g>
<!-- openjpeg&#45;&gt;poppler -->
<g id="edge11" class="edge">
<title>openjpeg&#45;&gt;poppler</title>
<path fill="none" stroke="#000000" d="M220.7412,-144.2022C224.966,-135.981 230.0741,-126.041 234.7561,-116.9301"/>
<polygon fill="#000000" stroke="#000000" points="237.9683,-118.3366 239.4261,-107.8425 231.7423,-115.1371 237.9683,-118.3366"/>
</g>
<!-- leptonica -->
<g id="node16" class="node">
<title>leptonica</title>
<ellipse fill="#fde725" stroke="#000000" cx="54.5952" cy="-90" rx="54.6905" ry="18"/>
<text text-anchor="middle" x="54.5952" y="-86.3" font-family="Times,serif" font-size="14.00" fill="#000000">leptonica</text>
</g>
<!-- openjpeg&#45;&gt;leptonica -->
<g id="edge9" class="edge">
<title>openjpeg&#45;&gt;leptonica</title>
<path fill="none" stroke="#000000" d="M180.577,-147.7751C156.3816,-136.6791 122.5463,-121.1623 96.0324,-109.0031"/>
<polygon fill="#000000" stroke="#000000" points="97.1755,-105.6768 86.6267,-104.6896 94.2575,-112.0397 97.1755,-105.6768"/>
</g>
<!-- tesseract -->
<g id="node17" class="node">
<title>tesseract</title>
<ellipse fill="#fde725" stroke="#000000" cx="99.5952" cy="-18" rx="54.6905" ry="18"/>
<text text-anchor="middle" x="99.5952" y="-14.3" font-family="Times,serif" font-size="14.00" fill="#000000">tesseract</text>
</g>
<!-- openjpeg&#45;&gt;tesseract -->
<g id="edge12" class="edge">
<title>openjpeg&#45;&gt;tesseract</title>
<path fill="none" stroke="#000000" d="M198.0853,-144.6302C178.5984,-119.5756 142.4588,-73.1104 119.7934,-43.9692"/>
<polygon fill="#000000" stroke="#000000" points="122.4064,-41.6278 113.5042,-35.8831 116.8809,-45.9254 122.4064,-41.6278"/>
</g>
<!-- openjpeg&#45;&gt;openslide -->
<g id="edge10" class="edge">
<title>openjpeg&#45;&gt;openslide</title>
<path fill="none" stroke="#000000" d="M242.3892,-147.6028C266.0763,-136.5283 299.0208,-121.1257 324.8837,-109.0339"/>
<polygon fill="#000000" stroke="#000000" points="326.4851,-112.1489 334.0615,-104.743 323.5203,-105.8078 326.4851,-112.1489"/>
</g>
<!-- paraview -->
<g id="node11" class="node">
<title>paraview</title>
<ellipse fill="#31688e" stroke="#000000" cx="1367.5952" cy="-162" rx="50.0912" ry="18"/>
<text text-anchor="middle" x="1367.5952" y="-158.3" font-family="Times,serif" font-size="14.00" fill="#ffffff">paraview</text>
</g>
<!-- poppler&#45;&gt;gdal -->
<g id="edge13" class="edge">
<title>poppler&#45;&gt;gdal</title>
<path fill="none" stroke="#000000" d="M239.4491,-72.2022C235.1607,-63.8574 229.9624,-53.7417 225.2233,-44.5197"/>
<polygon fill="#000000" stroke="#000000" points="228.1921,-42.6391 220.5083,-35.3446 221.9661,-45.8387 228.1921,-42.6391"/>
</g>
<!-- poppler&#45;&gt;libvips -->
<g id="edge14" class="edge">
<title>poppler&#45;&gt;libvips</title>
<path fill="none" stroke="#000000" d="M280.8197,-77.4586C311.5361,-65.5041 357.9588,-47.4368 391.5682,-34.3564"/>
<polygon fill="#000000" stroke="#000000" points="393.0695,-37.5279 401.1192,-30.6393 390.5306,-31.0046 393.0695,-37.5279"/>
</g>
<!-- vigra -->
<g id="node13" class="node">
<title>vigra</title>
<ellipse fill="#31688e" stroke="#000000" cx="1470.5952" cy="-162" rx="35.194" ry="18"/>
<text text-anchor="middle" x="1470.5952" y="-158.3" font-family="Times,serif" font-size="14.00" fill="#ffffff">vigra</text>
</g>
<!-- vtk -->
<g id="node14" class="node">
<title>vtk</title>
<ellipse fill="#31688e" stroke="#000000" cx="1550.5952" cy="-162" rx="27" ry="18"/>
<text text-anchor="middle" x="1550.5952" y="-158.3" font-family="Times,serif" font-size="14.00" fill="#ffffff">vtk</text>
</g>
<!-- sdl2_image -->
<g id="node15" class="node">
<title>sdl2_image</title>
<ellipse fill="#31688e" stroke="#000000" cx="1655.5952" cy="-162" rx="59.5901" ry="18"/>
<text text-anchor="middle" x="1655.5952" y="-158.3" font-family="Times,serif" font-size="14.00" fill="#ffffff">sdl2_image</text>
</g>
<!-- leptonica&#45;&gt;tesseract -->
<g id="edge15" class="edge">
<title>leptonica&#45;&gt;tesseract</title>
<path fill="none" stroke="#000000" d="M65.7188,-72.2022C70.9652,-63.8079 77.3316,-53.6218 83.1227,-44.3558"/>
<polygon fill="#000000" stroke="#000000" points="86.1115,-46.1776 88.4436,-35.8425 80.1755,-42.4675 86.1115,-46.1776"/>
</g>
<!-- graphicsmagick -->
<g id="node19" class="node">
<title>graphicsmagick</title>
<ellipse fill="#31688e" stroke="#000000" cx="1812.5952" cy="-162" rx="79.0865" ry="18"/>
<text text-anchor="middle" x="1812.5952" y="-158.3" font-family="Times,serif" font-size="14.00" fill="#ffffff">graphicsmagick</text>
</g>
<!-- afterimage -->
<g id="node20" class="node">
<title>afterimage</title>
<ellipse fill="#31688e" stroke="#000000" cx="748.5952" cy="-162" rx="59.5901" ry="18"/>
<text text-anchor="middle" x="748.5952" y="-158.3" font-family="Times,serif" font-size="14.00" fill="#ffffff">afterimage</text>
</g>
<!-- afterimage&#45;&gt;root -->
<g id="edge16" class="edge">
<title>afterimage&#45;&gt;root</title>
<path fill="none" stroke="#000000" d="M747.3334,-143.8314C746.7987,-136.131 746.1628,-126.9743 745.5685,-118.4166"/>
<polygon fill="#000000" stroke="#000000" points="749.0583,-118.1467 744.8739,-108.4133 742.0751,-118.6317 749.0583,-118.1467"/>
</g>
<!-- openimageio -->
<g id="node22" class="node">
<title>openimageio</title>
<ellipse fill="#31688e" stroke="#000000" cx="1974.5952" cy="-162" rx="64.189" ry="18"/>
<text text-anchor="middle" x="1974.5952" y="-158.3" font-family="Times,serif" font-size="14.00" fill="#ffffff">openimageio</text>
</g>
<!-- netpbm -->
<g id="node23" class="node">
<title>netpbm</title>
<ellipse fill="#31688e" stroke="#000000" cx="2097.5952" cy="-162" rx="40.0939" ry="18"/>
<text text-anchor="middle" x="2097.5952" y="-158.3" font-family="Times,serif" font-size="14.00" fill="#ffffff">netpbm</text>
</g>
<!-- openslide&#45;&gt;libvips -->
<g id="edge17" class="edge">
<title>openslide&#45;&gt;libvips</title>
<path fill="none" stroke="#000000" d="M382.0561,-72.5708C390.4922,-63.6385 400.9121,-52.6056 410.1702,-42.8029"/>
<polygon fill="#000000" stroke="#000000" points="412.9641,-44.942 417.2858,-35.2687 407.875,-40.1357 412.9641,-44.942"/>
</g>
<!-- r&#45;rtiff -->
<g id="node26" class="node">
<title>r&#45;rtiff</title>
<ellipse fill="#31688e" stroke="#000000" cx="2200.5952" cy="-162" rx="44.6926" ry="18"/>
<text text-anchor="middle" x="2200.5952" y="-158.3" font-family="Times,serif" font-size="14.00" fill="#ffffff">r rtiff</text>
</g>
</g>
</svg>
