<?xml version="1.0" encoding="UTF-8" standalone="no"?>
<!DOCTYPE svg PUBLIC "-//W3C//DTD SVG 1.1//EN"
 "http://www.w3.org/Graphics/SVG/1.1/DTD/svg11.dtd">
<!-- Generated by graphviz version 2.40.1 (20161225.0304)
 -->
<!-- Title: %3 Pages: 1 -->
<svg width="2455pt" height="188pt"
 viewBox="0.00 0.00 2454.64 188.00" xmlns="http://www.w3.org/2000/svg" xmlns:xlink="http://www.w3.org/1999/xlink">
<g id="graph0" class="graph" transform="scale(1 1) rotate(0) translate(4 184)">
<title>%3</title>
<polygon fill="#ffffff" stroke="transparent" points="-4,4 -4,-184 2450.6407,-184 2450.6407,4 -4,4"/>
<!-- emacs -->
<g id="node1" class="node">
<title>emacs</title>
<ellipse fill="#31688e" stroke="#000000" cx="216.5952" cy="-162" rx="35.194" ry="18"/>
<text text-anchor="middle" x="216.5952" y="-158.3" font-family="Times,serif" font-size="14.00" fill="#ffffff">emacs</text>
</g>
<!-- gdal -->
<g id="node2" class="node">
<title>gdal</title>
<ellipse fill="#fde725" stroke="#000000" cx="283.5952" cy="-18" rx="30.5947" ry="18"/>
<text text-anchor="middle" x="283.5952" y="-14.3" font-family="Times,serif" font-size="14.00" fill="#000000">gdal</text>
</g>
<!-- gdk&#45;pixbuf -->
<g id="node3" class="node">
<title>gdk&#45;pixbuf</title>
<ellipse fill="#31688e" stroke="#000000" cx="703.5952" cy="-162" rx="59.5901" ry="18"/>
<text text-anchor="middle" x="703.5952" y="-158.3" font-family="Times,serif" font-size="14.00" fill="#ffffff">gdk pixbuf</text>
</g>
<!-- imagemagick -->
<g id="node5" class="node">
<title>imagemagick</title>
<ellipse fill="#fde725" stroke="#000000" cx="483.5952" cy="-90" rx="64.189" ry="18"/>
<text text-anchor="middle" x="483.5952" y="-86.3" font-family="Times,serif" font-size="14.00" fill="#000000">imagemagick</text>
</g>
<!-- gdk&#45;pixbuf&#45;&gt;imagemagick -->
<g id="edge5" class="edge">
<title>gdk&#45;pixbuf&#45;&gt;imagemagick</title>
<path fill="none" stroke="#000000" d="M662.9874,-148.7102C626.9337,-136.9108 574.0701,-119.61 535.0624,-106.8438"/>
<polygon fill="#000000" stroke="#000000" points="536.055,-103.4861 525.4624,-103.702 533.8777,-110.1389 536.055,-103.4861"/>
</g>
<!-- gtk2 -->
<g id="node20" class="node">
<title>gtk2</title>
<ellipse fill="#fde725" stroke="#000000" cx="762.5952" cy="-90" rx="30.5947" ry="18"/>
<text text-anchor="middle" x="762.5952" y="-86.3" font-family="Times,serif" font-size="14.00" fill="#000000">gtk2</text>
</g>
<!-- gdk&#45;pixbuf&#45;&gt;gtk2 -->
<g id="edge1" class="edge">
<title>gdk&#45;pixbuf&#45;&gt;gtk2</title>
<path fill="none" stroke="#000000" d="M718.1794,-144.2022C725.5375,-135.223 734.5756,-124.1934 742.5736,-114.4331"/>
<polygon fill="#000000" stroke="#000000" points="745.3565,-116.559 748.9876,-106.6058 739.9422,-112.1222 745.3565,-116.559"/>
</g>
<!-- root -->
<g id="node23" class="node">
<title>root</title>
<ellipse fill="#fde725" stroke="#000000" cx="841.5952" cy="-90" rx="30.5947" ry="18"/>
<text text-anchor="middle" x="841.5952" y="-86.3" font-family="Times,serif" font-size="14.00" fill="#000000">root</text>
</g>
<!-- gdk&#45;pixbuf&#45;&gt;root -->
<g id="edge4" class="edge">
<title>gdk&#45;pixbuf&#45;&gt;root</title>
<path fill="none" stroke="#000000" d="M733.5391,-146.3771C755.9735,-134.6722 786.6213,-118.682 809.5481,-106.7202"/>
<polygon fill="#000000" stroke="#000000" points="811.2963,-109.7559 818.5432,-102.0271 808.0583,-103.5498 811.2963,-109.7559"/>
</g>
<!-- openslide -->
<g id="node26" class="node">
<title>openslide</title>
<ellipse fill="#fde725" stroke="#000000" cx="620.5952" cy="-90" rx="54.6905" ry="18"/>
<text text-anchor="middle" x="620.5952" y="-86.3" font-family="Times,serif" font-size="14.00" fill="#000000">openslide</text>
</g>
<!-- gdk&#45;pixbuf&#45;&gt;openslide -->
<g id="edge3" class="edge">
<title>gdk&#45;pixbuf&#45;&gt;openslide</title>
<path fill="none" stroke="#000000" d="M683.9253,-144.937C673.1752,-135.6116 659.6931,-123.9163 647.9344,-113.716"/>
<polygon fill="#000000" stroke="#000000" points="649.9712,-110.8495 640.1238,-106.9405 645.3842,-116.1372 649.9712,-110.8495"/>
</g>
<!-- libvips -->
<g id="node27" class="node">
<title>libvips</title>
<ellipse fill="#fde725" stroke="#000000" cx="551.5952" cy="-18" rx="44.6926" ry="18"/>
<text text-anchor="middle" x="551.5952" y="-14.3" font-family="Times,serif" font-size="14.00" fill="#000000">libvips</text>
</g>
<!-- gdk&#45;pixbuf&#45;&gt;libvips -->
<g id="edge2" class="edge">
<title>gdk&#45;pixbuf&#45;&gt;libvips</title>
<path fill="none" stroke="#000000" d="M704.5078,-143.9898C704.5431,-124.1394 701.6035,-92.3335 684.5952,-72 664.3737,-47.8252 631.6725,-34.357 603.7572,-26.917"/>
<polygon fill="#000000" stroke="#000000" points="604.2685,-23.4382 593.7212,-24.4399 602.5912,-30.2343 604.2685,-23.4382"/>
</g>
<!-- geotiff -->
<g id="node4" class="node">
<title>geotiff</title>
<ellipse fill="#31688e" stroke="#000000" cx="210.5952" cy="-90" rx="44.6926" ry="18"/>
<text text-anchor="middle" x="210.5952" y="-86.3" font-family="Times,serif" font-size="14.00" fill="#ffffff">geotiff</text>
</g>
<!-- geotiff&#45;&gt;gdal -->
<g id="edge6" class="edge">
<title>geotiff&#45;&gt;gdal</title>
<path fill="none" stroke="#000000" d="M227.5263,-73.3008C237.2874,-63.6734 249.6994,-51.4314 260.3627,-40.9142"/>
<polygon fill="#000000" stroke="#000000" points="263.0933,-43.137 267.7552,-33.6229 258.1778,-38.1532 263.0933,-43.137"/>
</g>
<!-- imagemagick&#45;&gt;libvips -->
<g id="edge7" class="edge">
<title>imagemagick&#45;&gt;libvips</title>
<path fill="none" stroke="#000000" d="M500.0561,-72.5708C508.4922,-63.6385 518.9121,-52.6056 528.1702,-42.8029"/>
<polygon fill="#000000" stroke="#000000" points="530.9641,-44.942 535.2858,-35.2687 525.875,-40.1357 530.9641,-44.942"/>
</g>
<!-- imread -->
<g id="node6" class="node">
<title>imread</title>
<ellipse fill="#31688e" stroke="#000000" cx="959.5952" cy="-162" rx="40.0939" ry="18"/>
<text text-anchor="middle" x="959.5952" y="-158.3" font-family="Times,serif" font-size="14.00" fill="#ffffff">imread</text>
</g>
<!-- libcdms -->
<g id="node7" class="node">
<title>libcdms</title>
<ellipse fill="#31688e" stroke="#000000" cx="1062.5952" cy="-162" rx="44.6926" ry="18"/>
<text text-anchor="middle" x="1062.5952" y="-158.3" font-family="Times,serif" font-size="14.00" fill="#ffffff">libcdms</text>
</g>
<!-- libgd -->
<g id="node8" class="node">
<title>libgd</title>
<ellipse fill="#31688e" stroke="#000000" cx="1160.5952" cy="-162" rx="35.194" ry="18"/>
<text text-anchor="middle" x="1160.5952" y="-158.3" font-family="Times,serif" font-size="14.00" fill="#ffffff">libgd</text>
</g>
<!-- libitk -->
<g id="node9" class="node">
<title>libitk</title>
<ellipse fill="#31688e" stroke="#000000" cx="1253.5952" cy="-162" rx="40.0939" ry="18"/>
<text text-anchor="middle" x="1253.5952" y="-158.3" font-family="Times,serif" font-size="14.00" fill="#ffffff">libitk</text>
</g>
<!-- opencv -->
<g id="node10" class="node">
<title>opencv</title>
<ellipse fill="#31688e" stroke="#000000" cx="1352.5952" cy="-162" rx="40.0939" ry="18"/>
<text text-anchor="middle" x="1352.5952" y="-158.3" font-family="Times,serif" font-size="14.00" fill="#ffffff">opencv</text>
</g>
<!-- openjpeg -->
<g id="node11" class="node">
<title>openjpeg</title>
<ellipse fill="#31688e" stroke="#000000" cx="319.5952" cy="-162" rx="50.0912" ry="18"/>
<text text-anchor="middle" x="319.5952" y="-158.3" font-family="Times,serif" font-size="14.00" fill="#ffffff">openjpeg</text>
</g>
<!-- openjpeg&#45;&gt;gdal -->
<g id="edge8" class="edge">
<title>openjpeg&#45;&gt;gdal</title>
<path fill="none" stroke="#000000" d="M313.4891,-144.1267C310.0371,-133.6689 305.7871,-120.1689 302.5952,-108 297.2013,-87.4364 292.2792,-63.9219 288.7969,-46.0864"/>
<polygon fill="#000000" stroke="#000000" points="292.193,-45.2116 286.8719,-36.0499 285.3184,-46.5303 292.193,-45.2116"/>
</g>
<!-- openjpeg&#45;&gt;imagemagick -->
<g id="edge9" class="edge">
<title>openjpeg&#45;&gt;imagemagick</title>
<path fill="none" stroke="#000000" d="M351.6053,-147.9468C376.6209,-136.9643 411.6737,-121.5753 439.3696,-109.4161"/>
<polygon fill="#000000" stroke="#000000" points="441.0812,-112.4872 448.8306,-105.2625 438.2672,-106.0777 441.0812,-112.4872"/>
</g>
<!-- poppler -->
<g id="node13" class="node">
<title>poppler</title>
<ellipse fill="#fde725" stroke="#000000" cx="356.5952" cy="-90" rx="44.6926" ry="18"/>
<text text-anchor="middle" x="356.5952" y="-86.3" font-family="Times,serif" font-size="14.00" fill="#000000">poppler</text>
</g>
<!-- openjpeg&#45;&gt;poppler -->
<g id="edge12" class="edge">
<title>openjpeg&#45;&gt;poppler</title>
<path fill="none" stroke="#000000" d="M328.7412,-144.2022C332.966,-135.981 338.0741,-126.041 342.7561,-116.9301"/>
<polygon fill="#000000" stroke="#000000" points="345.9683,-118.3366 347.4261,-107.8425 339.7423,-115.1371 345.9683,-118.3366"/>
</g>
<!-- leptonica -->
<g id="node18" class="node">
<title>leptonica</title>
<ellipse fill="#fde725" stroke="#000000" cx="54.5952" cy="-90" rx="54.6905" ry="18"/>
<text text-anchor="middle" x="54.5952" y="-86.3" font-family="Times,serif" font-size="14.00" fill="#000000">leptonica</text>
</g>
<!-- openjpeg&#45;&gt;leptonica -->
<g id="edge10" class="edge">
<title>openjpeg&#45;&gt;leptonica</title>
<path fill="none" stroke="#000000" d="M281.5751,-150.158C274.6106,-148.0579 267.3952,-145.9277 260.5952,-144 253.0925,-141.8731 165.9821,-119.0893 107.4679,-103.804"/>
<polygon fill="#000000" stroke="#000000" points="108.1805,-100.3728 97.6206,-101.2319 106.4114,-107.1456 108.1805,-100.3728"/>
</g>
<!-- tesseract -->
<g id="node19" class="node">
<title>tesseract</title>
<ellipse fill="#fde725" stroke="#000000" cx="96.5952" cy="-18" rx="54.6905" ry="18"/>
<text text-anchor="middle" x="96.5952" y="-14.3" font-family="Times,serif" font-size="14.00" fill="#000000">tesseract</text>
</g>
<!-- openjpeg&#45;&gt;tesseract -->
<g id="edge13" class="edge">
<title>openjpeg&#45;&gt;tesseract</title>
<path fill="none" stroke="#000000" d="M281.7246,-150.1381C235.2004,-135.4649 161.7516,-111.9309 156.5952,-108 135.1622,-91.6608 118.9034,-65.3561 108.7533,-45.3944"/>
<polygon fill="#000000" stroke="#000000" points="111.7896,-43.6351 104.2653,-36.1761 105.4958,-46.6992 111.7896,-43.6351"/>
</g>
<!-- openjpeg&#45;&gt;openslide -->
<g id="edge11" class="edge">
<title>openjpeg&#45;&gt;openslide</title>
<path fill="none" stroke="#000000" d="M362.9985,-152.7947C410.6437,-142.5307 489.3181,-125.1138 556.5952,-108 560.8633,-106.9143 565.2809,-105.7523 569.7086,-104.561"/>
<polygon fill="#000000" stroke="#000000" points="570.639,-107.9352 579.3636,-101.9242 568.7948,-101.1824 570.639,-107.9352"/>
</g>
<!-- paraview -->
<g id="node12" class="node">
<title>paraview</title>
<ellipse fill="#31688e" stroke="#000000" cx="1460.5952" cy="-162" rx="50.0912" ry="18"/>
<text text-anchor="middle" x="1460.5952" y="-158.3" font-family="Times,serif" font-size="14.00" fill="#ffffff">paraview</text>
</g>
<!-- poppler&#45;&gt;gdal -->
<g id="edge14" class="edge">
<title>poppler&#45;&gt;gdal</title>
<path fill="none" stroke="#000000" d="M339.664,-73.3008C329.9029,-63.6734 317.4909,-51.4314 306.8276,-40.9142"/>
<polygon fill="#000000" stroke="#000000" points="309.0125,-38.1532 299.4351,-33.6229 304.097,-43.137 309.0125,-38.1532"/>
</g>
<!-- poppler&#45;&gt;libvips -->
<g id="edge15" class="edge">
<title>poppler&#45;&gt;libvips</title>
<path fill="none" stroke="#000000" d="M389.6742,-77.7862C422.4508,-65.6841 472.8081,-47.0906 508.6547,-33.8549"/>
<polygon fill="#000000" stroke="#000000" points="510.1852,-37.0209 518.3538,-30.2737 507.7605,-30.4542 510.1852,-37.0209"/>
</g>
<!-- r&#45;base -->
<g id="node14" class="node">
<title>r&#45;base</title>
<ellipse fill="#31688e" stroke="#000000" cx="1568.5952" cy="-162" rx="40.0939" ry="18"/>
<text text-anchor="middle" x="1568.5952" y="-158.3" font-family="Times,serif" font-size="14.00" fill="#ffffff">r base</text>
</g>
<!-- r&#45;rtiff -->
<g id="node29" class="node">
<title>r&#45;rtiff</title>
<ellipse fill="#fde725" stroke="#000000" cx="1568.5952" cy="-90" rx="44.6926" ry="18"/>
<text text-anchor="middle" x="1568.5952" y="-86.3" font-family="Times,serif" font-size="14.00" fill="#000000">r rtiff</text>
</g>
<!-- r&#45;base&#45;&gt;r&#45;rtiff -->
<g id="edge16" class="edge">
<title>r&#45;base&#45;&gt;r&#45;rtiff</title>
<path fill="none" stroke="#000000" d="M1568.5952,-143.8314C1568.5952,-136.131 1568.5952,-126.9743 1568.5952,-118.4166"/>
<polygon fill="#000000" stroke="#000000" points="1572.0953,-118.4132 1568.5952,-108.4133 1565.0953,-118.4133 1572.0953,-118.4132"/>
</g>
<!-- vigra -->
<g id="node15" class="node">
<title>vigra</title>
<ellipse fill="#31688e" stroke="#000000" cx="1661.5952" cy="-162" rx="35.194" ry="18"/>
<text text-anchor="middle" x="1661.5952" y="-158.3" font-family="Times,serif" font-size="14.00" fill="#ffffff">vigra</text>
</g>
<!-- vtk -->
<g id="node16" class="node">
<title>vtk</title>
<ellipse fill="#31688e" stroke="#000000" cx="1741.5952" cy="-162" rx="27" ry="18"/>
<text text-anchor="middle" x="1741.5952" y="-158.3" font-family="Times,serif" font-size="14.00" fill="#ffffff">vtk</text>
</g>
<!-- sdl2_image -->
<g id="node17" class="node">
<title>sdl2_image</title>
<ellipse fill="#31688e" stroke="#000000" cx="1846.5952" cy="-162" rx="59.5901" ry="18"/>
<text text-anchor="middle" x="1846.5952" y="-158.3" font-family="Times,serif" font-size="14.00" fill="#ffffff">sdl2_image</text>
</g>
<!-- leptonica&#45;&gt;tesseract -->
<g id="edge17" class="edge">
<title>leptonica&#45;&gt;tesseract</title>
<path fill="none" stroke="#000000" d="M64.9772,-72.2022C69.8234,-63.8944 75.6934,-53.8316 81.0536,-44.6427"/>
<polygon fill="#000000" stroke="#000000" points="84.1715,-46.2439 86.187,-35.8425 78.125,-42.7168 84.1715,-46.2439"/>
</g>
<!-- graphicsmagick -->
<g id="node21" class="node">
<title>graphicsmagick</title>
<ellipse fill="#31688e" stroke="#000000" cx="2003.5952" cy="-162" rx="79.0865" ry="18"/>
<text text-anchor="middle" x="2003.5952" y="-158.3" font-family="Times,serif" font-size="14.00" fill="#ffffff">graphicsmagick</text>
</g>
<!-- afterimage -->
<g id="node22" class="node">
<title>afterimage</title>
<ellipse fill="#31688e" stroke="#000000" cx="841.5952" cy="-162" rx="59.5901" ry="18"/>
<text text-anchor="middle" x="841.5952" y="-158.3" font-family="Times,serif" font-size="14.00" fill="#ffffff">afterimage</text>
</g>
<!-- afterimage&#45;&gt;root -->
<g id="edge18" class="edge">
<title>afterimage&#45;&gt;root</title>
<path fill="none" stroke="#000000" d="M841.5952,-143.8314C841.5952,-136.131 841.5952,-126.9743 841.5952,-118.4166"/>
<polygon fill="#000000" stroke="#000000" points="845.0953,-118.4132 841.5952,-108.4133 838.0953,-118.4133 845.0953,-118.4132"/>
</g>
<!-- openimageio -->
<g id="node24" class="node">
<title>openimageio</title>
<ellipse fill="#31688e" stroke="#000000" cx="2165.5952" cy="-162" rx="64.189" ry="18"/>
<text text-anchor="middle" x="2165.5952" y="-158.3" font-family="Times,serif" font-size="14.00" fill="#ffffff">openimageio</text>
</g>
<!-- netpbm -->
<g id="node25" class="node">
<title>netpbm</title>
<ellipse fill="#31688e" stroke="#000000" cx="2288.5952" cy="-162" rx="40.0939" ry="18"/>
<text text-anchor="middle" x="2288.5952" y="-158.3" font-family="Times,serif" font-size="14.00" fill="#ffffff">netpbm</text>
</g>
<!-- openslide&#45;&gt;libvips -->
<g id="edge19" class="edge">
<title>openslide&#45;&gt;libvips</title>
<path fill="none" stroke="#000000" d="M603.8922,-72.5708C595.2473,-63.55 584.5493,-52.387 575.0859,-42.5121"/>
<polygon fill="#000000" stroke="#000000" points="577.5904,-40.0669 568.1443,-35.2687 572.5364,-44.9103 577.5904,-40.0669"/>
</g>
<!-- gnuastro -->
<g id="node28" class="node">
<title>gnuastro</title>
<ellipse fill="#31688e" stroke="#000000" cx="2396.5952" cy="-162" rx="50.0912" ry="18"/>
<text text-anchor="middle" x="2396.5952" y="-158.3" font-family="Times,serif" font-size="14.00" fill="#ffffff">gnuastro</text>
</g>
</g>
</svg>
