<?xml version="1.0" encoding="UTF-8" standalone="no"?>
<!DOCTYPE svg PUBLIC "-//W3C//DTD SVG 1.1//EN"
 "http://www.w3.org/Graphics/SVG/1.1/DTD/svg11.dtd">
<!-- Generated by graphviz version 2.42.3 (20191010.1750)
 -->
<!-- Title: %3 Pages: 1 -->
<svg width="1245pt" height="116pt"
 viewBox="0.00 0.00 1245.44 116.00" xmlns="http://www.w3.org/2000/svg" xmlns:xlink="http://www.w3.org/1999/xlink">
<g id="graph0" class="graph" transform="scale(1 1) rotate(0) translate(4 112)">
<title>%3</title>
<polygon fill="white" stroke="transparent" points="-4,4 -4,-112 1241.44,-112 1241.44,4 -4,4"/>
<!-- emacs -->
<g id="node1" class="node">
<title>emacs</title>
<ellipse fill="#31688e" stroke="black" cx="35.1" cy="-90" rx="35.19" ry="18"/>
<text text-anchor="middle" x="35.1" y="-86.3" font-family="Times,serif" font-size="14.00" fill="white">emacs</text>
</g>
<!-- gdal -->
<g id="node2" class="node">
<title>gdal</title>
<ellipse fill="#fde725" stroke="black" cx="133.1" cy="-18" rx="30.59" ry="18"/>
<text text-anchor="middle" x="133.1" y="-14.3" font-family="Times,serif" font-size="14.00">gdal</text>
</g>
<!-- imagemagick -->
<g id="node3" class="node">
<title>imagemagick</title>
<ellipse fill="#31688e" stroke="black" cx="260.1" cy="-90" rx="64.19" ry="18"/>
<text text-anchor="middle" x="260.1" y="-86.3" font-family="Times,serif" font-size="14.00" fill="white">imagemagick</text>
</g>
<!-- libvips -->
<g id="node13" class="node">
<title>libvips</title>
<ellipse fill="#fde725" stroke="black" cx="260.1" cy="-18" rx="44.69" ry="18"/>
<text text-anchor="middle" x="260.1" y="-14.3" font-family="Times,serif" font-size="14.00">libvips</text>
</g>
<!-- imagemagick&#45;&gt;libvips -->
<g id="edge1" class="edge">
<title>imagemagick&#45;&gt;libvips</title>
<path fill="none" stroke="black" d="M260.1,-71.7C260.1,-63.98 260.1,-54.71 260.1,-46.11"/>
<polygon fill="black" stroke="black" points="263.6,-46.1 260.1,-36.1 256.6,-46.1 263.6,-46.1"/>
</g>
<!-- imread -->
<g id="node4" class="node">
<title>imread</title>
<ellipse fill="#31688e" stroke="black" cx="510.1" cy="-90" rx="40.09" ry="18"/>
<text text-anchor="middle" x="510.1" y="-86.3" font-family="Times,serif" font-size="14.00" fill="white">imread</text>
</g>
<!-- libitk -->
<g id="node5" class="node">
<title>libitk</title>
<ellipse fill="#31688e" stroke="black" cx="609.1" cy="-90" rx="40.09" ry="18"/>
<text text-anchor="middle" x="609.1" y="-86.3" font-family="Times,serif" font-size="14.00" fill="white">libitk</text>
</g>
<!-- poppler -->
<g id="node6" class="node">
<title>poppler</title>
<ellipse fill="#31688e" stroke="black" cx="133.1" cy="-90" rx="44.69" ry="18"/>
<text text-anchor="middle" x="133.1" y="-86.3" font-family="Times,serif" font-size="14.00" fill="white">poppler</text>
</g>
<!-- poppler&#45;&gt;gdal -->
<g id="edge2" class="edge">
<title>poppler&#45;&gt;gdal</title>
<path fill="none" stroke="black" d="M133.1,-71.7C133.1,-63.98 133.1,-54.71 133.1,-46.11"/>
<polygon fill="black" stroke="black" points="136.6,-46.1 133.1,-36.1 129.6,-46.1 136.6,-46.1"/>
</g>
<!-- poppler&#45;&gt;libvips -->
<g id="edge3" class="edge">
<title>poppler&#45;&gt;libvips</title>
<path fill="none" stroke="black" d="M158.49,-75C177.79,-64.37 204.53,-49.63 225.74,-37.94"/>
<polygon fill="black" stroke="black" points="227.68,-40.87 234.75,-32.97 224.3,-34.73 227.68,-40.87"/>
</g>
<!-- sdl2_image -->
<g id="node7" class="node">
<title>sdl2_image</title>
<ellipse fill="#31688e" stroke="black" cx="727.1" cy="-90" rx="59.59" ry="18"/>
<text text-anchor="middle" x="727.1" y="-86.3" font-family="Times,serif" font-size="14.00" fill="white">sdl2_image</text>
</g>
<!-- leptonica -->
<g id="node8" class="node">
<title>leptonica</title>
<ellipse fill="#31688e" stroke="black" cx="859.1" cy="-90" rx="54.69" ry="18"/>
<text text-anchor="middle" x="859.1" y="-86.3" font-family="Times,serif" font-size="14.00" fill="white">leptonica</text>
</g>
<!-- tesseract -->
<g id="node9" class="node">
<title>tesseract</title>
<ellipse fill="#fde725" stroke="black" cx="859.1" cy="-18" rx="54.69" ry="18"/>
<text text-anchor="middle" x="859.1" y="-14.3" font-family="Times,serif" font-size="14.00">tesseract</text>
</g>
<!-- leptonica&#45;&gt;tesseract -->
<g id="edge4" class="edge">
<title>leptonica&#45;&gt;tesseract</title>
<path fill="none" stroke="black" d="M859.1,-71.7C859.1,-63.98 859.1,-54.71 859.1,-46.11"/>
<polygon fill="black" stroke="black" points="862.6,-46.1 859.1,-36.1 855.6,-46.1 862.6,-46.1"/>
</g>
<!-- graphicsmagick -->
<g id="node10" class="node">
<title>graphicsmagick</title>
<ellipse fill="#31688e" stroke="black" cx="1011.1" cy="-90" rx="79.09" ry="18"/>
<text text-anchor="middle" x="1011.1" y="-86.3" font-family="Times,serif" font-size="14.00" fill="white">graphicsmagick</text>
</g>
<!-- openimageio -->
<g id="node11" class="node">
<title>openimageio</title>
<ellipse fill="#31688e" stroke="black" cx="1173.1" cy="-90" rx="64.19" ry="18"/>
<text text-anchor="middle" x="1173.1" y="-86.3" font-family="Times,serif" font-size="14.00" fill="white">openimageio</text>
</g>
<!-- openslide -->
<g id="node12" class="node">
<title>openslide</title>
<ellipse fill="#31688e" stroke="black" cx="397.1" cy="-90" rx="54.69" ry="18"/>
<text text-anchor="middle" x="397.1" y="-86.3" font-family="Times,serif" font-size="14.00" fill="white">openslide</text>
</g>
<!-- openslide&#45;&gt;libvips -->
<g id="edge5" class="edge">
<title>openslide&#45;&gt;libvips</title>
<path fill="none" stroke="black" d="M368.71,-74.5C347.49,-63.66 318.35,-48.76 295.59,-37.14"/>
<polygon fill="black" stroke="black" points="297.09,-33.97 286.59,-32.54 293.9,-40.2 297.09,-33.97"/>
</g>
</g>
</svg>
