<?xml version="1.0" encoding="UTF-8" standalone="no"?>
<!DOCTYPE svg PUBLIC "-//W3C//DTD SVG 1.1//EN"
 "http://www.w3.org/Graphics/SVG/1.1/DTD/svg11.dtd">
<!-- Generated by graphviz version 2.42.3 (20191010.1750)
 -->
<!-- Title: %3 Pages: 1 -->
<svg width="978pt" height="188pt"
 viewBox="0.00 0.00 977.89 188.00" xmlns="http://www.w3.org/2000/svg" xmlns:xlink="http://www.w3.org/1999/xlink">
<g id="graph0" class="graph" transform="scale(1 1) rotate(0) translate(4 184)">
<title>%3</title>
<polygon fill="white" stroke="transparent" points="-4,4 -4,-184 973.89,-184 973.89,4 -4,4"/>
<!-- emacs -->
<g id="node1" class="node">
<title>emacs</title>
<ellipse fill="#31688e" stroke="black" cx="158.55" cy="-162" rx="35.19" ry="18"/>
<text text-anchor="middle" x="158.55" y="-158.3" font-family="Times,serif" font-size="14.00" fill="white">emacs</text>
</g>
<!-- gdal -->
<g id="node2" class="node">
<title>gdal</title>
<ellipse fill="#fde725" stroke="black" cx="30.55" cy="-18" rx="30.59" ry="18"/>
<text text-anchor="middle" x="30.55" y="-14.3" font-family="Times,serif" font-size="14.00">gdal</text>
</g>
<!-- imagemagick -->
<g id="node3" class="node">
<title>imagemagick</title>
<ellipse fill="#fde725" stroke="black" cx="193.55" cy="-90" rx="64.19" ry="18"/>
<text text-anchor="middle" x="193.55" y="-86.3" font-family="Times,serif" font-size="14.00">imagemagick</text>
</g>
<!-- libvips -->
<g id="node14" class="node">
<title>libvips</title>
<ellipse fill="#fde725" stroke="black" cx="193.55" cy="-18" rx="44.69" ry="18"/>
<text text-anchor="middle" x="193.55" y="-14.3" font-family="Times,serif" font-size="14.00">libvips</text>
</g>
<!-- imagemagick&#45;&gt;libvips -->
<g id="edge1" class="edge">
<title>imagemagick&#45;&gt;libvips</title>
<path fill="none" stroke="black" d="M193.55,-71.7C193.55,-63.98 193.55,-54.71 193.55,-46.11"/>
<polygon fill="black" stroke="black" points="197.05,-46.1 193.55,-36.1 190.05,-46.1 197.05,-46.1"/>
</g>
<!-- imread -->
<g id="node4" class="node">
<title>imread</title>
<ellipse fill="#31688e" stroke="black" cx="369.55" cy="-162" rx="40.09" ry="18"/>
<text text-anchor="middle" x="369.55" y="-158.3" font-family="Times,serif" font-size="14.00" fill="white">imread</text>
</g>
<!-- libitk -->
<g id="node5" class="node">
<title>libitk</title>
<ellipse fill="#31688e" stroke="black" cx="468.55" cy="-162" rx="40.09" ry="18"/>
<text text-anchor="middle" x="468.55" y="-158.3" font-family="Times,serif" font-size="14.00" fill="white">libitk</text>
</g>
<!-- openjpeg -->
<g id="node6" class="node">
<title>openjpeg</title>
<ellipse fill="#31688e" stroke="black" cx="261.55" cy="-162" rx="50.09" ry="18"/>
<text text-anchor="middle" x="261.55" y="-158.3" font-family="Times,serif" font-size="14.00" fill="white">openjpeg</text>
</g>
<!-- openjpeg&#45;&gt;gdal -->
<g id="edge2" class="edge">
<title>openjpeg&#45;&gt;gdal</title>
<path fill="none" stroke="black" d="M224.55,-149.77C217.29,-147.73 209.7,-145.7 202.55,-144 118.94,-124.08 67.37,-174.19 12.55,-108 -2.23,-90.16 5.89,-63.47 15.49,-43.98"/>
<polygon fill="black" stroke="black" points="18.63,-45.53 20.22,-35.05 12.44,-42.25 18.63,-45.53"/>
</g>
<!-- openjpeg&#45;&gt;imagemagick -->
<g id="edge3" class="edge">
<title>openjpeg&#45;&gt;imagemagick</title>
<path fill="none" stroke="black" d="M245.78,-144.76C237.15,-135.88 226.29,-124.71 216.72,-114.85"/>
<polygon fill="black" stroke="black" points="219.18,-112.37 209.71,-107.63 214.16,-117.24 219.18,-112.37"/>
</g>
<!-- poppler -->
<g id="node7" class="node">
<title>poppler</title>
<ellipse fill="#fde725" stroke="black" cx="66.55" cy="-90" rx="44.69" ry="18"/>
<text text-anchor="middle" x="66.55" y="-86.3" font-family="Times,serif" font-size="14.00">poppler</text>
</g>
<!-- openjpeg&#45;&gt;poppler -->
<g id="edge6" class="edge">
<title>openjpeg&#45;&gt;poppler</title>
<path fill="none" stroke="black" d="M227.13,-148.65C194.05,-136.77 143.99,-118.8 108.57,-106.09"/>
<polygon fill="black" stroke="black" points="109.59,-102.73 99,-102.65 107.23,-109.32 109.59,-102.73"/>
</g>
<!-- leptonica -->
<g id="node9" class="node">
<title>leptonica</title>
<ellipse fill="#fde725" stroke="black" cx="457.55" cy="-90" rx="54.69" ry="18"/>
<text text-anchor="middle" x="457.55" y="-86.3" font-family="Times,serif" font-size="14.00">leptonica</text>
</g>
<!-- openjpeg&#45;&gt;leptonica -->
<g id="edge4" class="edge">
<title>openjpeg&#45;&gt;leptonica</title>
<path fill="none" stroke="black" d="M295.69,-148.81C327.97,-137.28 376.62,-119.9 412.16,-107.21"/>
<polygon fill="black" stroke="black" points="413.57,-110.42 421.81,-103.76 411.22,-103.83 413.57,-110.42"/>
</g>
<!-- tesseract -->
<g id="node10" class="node">
<title>tesseract</title>
<ellipse fill="#fde725" stroke="black" cx="498.55" cy="-18" rx="54.69" ry="18"/>
<text text-anchor="middle" x="498.55" y="-14.3" font-family="Times,serif" font-size="14.00">tesseract</text>
</g>
<!-- openjpeg&#45;&gt;tesseract -->
<g id="edge7" class="edge">
<title>openjpeg&#45;&gt;tesseract</title>
<path fill="none" stroke="black" d="M298.53,-149.71C305.8,-147.67 313.38,-145.67 320.55,-144 364.74,-133.7 492.43,-142.8 521.55,-108 536.49,-90.14 526.93,-63.73 515.94,-44.32"/>
<polygon fill="black" stroke="black" points="518.89,-42.42 510.71,-35.68 512.9,-46.05 518.89,-42.42"/>
</g>
<!-- openslide -->
<g id="node13" class="node">
<title>openslide</title>
<ellipse fill="#fde725" stroke="black" cx="330.55" cy="-90" rx="54.69" ry="18"/>
<text text-anchor="middle" x="330.55" y="-86.3" font-family="Times,serif" font-size="14.00">openslide</text>
</g>
<!-- openjpeg&#45;&gt;openslide -->
<g id="edge5" class="edge">
<title>openjpeg&#45;&gt;openslide</title>
<path fill="none" stroke="black" d="M277.55,-144.76C286.31,-135.88 297.32,-124.71 307.03,-114.85"/>
<polygon fill="black" stroke="black" points="309.62,-117.21 314.15,-107.63 304.64,-112.3 309.62,-117.21"/>
</g>
<!-- poppler&#45;&gt;gdal -->
<g id="edge8" class="edge">
<title>poppler&#45;&gt;gdal</title>
<path fill="none" stroke="black" d="M57.83,-72.05C53.63,-63.89 48.5,-53.91 43.83,-44.82"/>
<polygon fill="black" stroke="black" points="46.87,-43.08 39.18,-35.79 40.64,-46.28 46.87,-43.08"/>
</g>
<!-- poppler&#45;&gt;libvips -->
<g id="edge9" class="edge">
<title>poppler&#45;&gt;libvips</title>
<path fill="none" stroke="black" d="M91.94,-75C111.24,-64.37 137.98,-49.63 159.19,-37.94"/>
<polygon fill="black" stroke="black" points="161.13,-40.87 168.2,-32.97 157.75,-34.73 161.13,-40.87"/>
</g>
<!-- sdl2_image -->
<g id="node8" class="node">
<title>sdl2_image</title>
<ellipse fill="#31688e" stroke="black" cx="586.55" cy="-162" rx="59.59" ry="18"/>
<text text-anchor="middle" x="586.55" y="-158.3" font-family="Times,serif" font-size="14.00" fill="white">sdl2_image</text>
</g>
<!-- leptonica&#45;&gt;tesseract -->
<g id="edge10" class="edge">
<title>leptonica&#45;&gt;tesseract</title>
<path fill="none" stroke="black" d="M467.47,-72.05C472.31,-63.8 478.22,-53.7 483.59,-44.54"/>
<polygon fill="black" stroke="black" points="486.68,-46.19 488.71,-35.79 480.64,-42.65 486.68,-46.19"/>
</g>
<!-- graphicsmagick -->
<g id="node11" class="node">
<title>graphicsmagick</title>
<ellipse fill="#31688e" stroke="black" cx="743.55" cy="-162" rx="79.09" ry="18"/>
<text text-anchor="middle" x="743.55" y="-158.3" font-family="Times,serif" font-size="14.00" fill="white">graphicsmagick</text>
</g>
<!-- openimageio -->
<g id="node12" class="node">
<title>openimageio</title>
<ellipse fill="#31688e" stroke="black" cx="905.55" cy="-162" rx="64.19" ry="18"/>
<text text-anchor="middle" x="905.55" y="-158.3" font-family="Times,serif" font-size="14.00" fill="white">openimageio</text>
</g>
<!-- openslide&#45;&gt;libvips -->
<g id="edge11" class="edge">
<title>openslide&#45;&gt;libvips</title>
<path fill="none" stroke="black" d="M302.16,-74.5C280.94,-63.66 251.8,-48.76 229.04,-37.14"/>
<polygon fill="black" stroke="black" points="230.54,-33.97 220.04,-32.54 227.35,-40.2 230.54,-33.97"/>
</g>
</g>
</svg>
