<?xml version="1.0" encoding="UTF-8" standalone="no"?>
<!DOCTYPE svg PUBLIC "-//W3C//DTD SVG 1.1//EN"
 "http://www.w3.org/Graphics/SVG/1.1/DTD/svg11.dtd">
<!-- Generated by graphviz version 2.42.3 (20191010.1750)
 -->
<!-- Title: %3 Pages: 1 -->
<svg width="963pt" height="188pt"
 viewBox="0.00 0.00 962.89 188.00" xmlns="http://www.w3.org/2000/svg" xmlns:xlink="http://www.w3.org/1999/xlink">
<g id="graph0" class="graph" transform="scale(1 1) rotate(0) translate(4 184)">
<title>%3</title>
<polygon fill="white" stroke="transparent" points="-4,4 -4,-184 958.89,-184 958.89,4 -4,4"/>
<!-- arrow&#45;cpp -->
<g id="node1" class="node">
<title>arrow&#45;cpp</title>
<g id="a_node1"><a xlink:href="https://github.com/conda-forge/arrow-cpp-feedstock/pull/130" xlink:title="arrow cpp">
<ellipse fill="#31688e" stroke="black" cx="54.6" cy="-90" rx="54.69" ry="18"/>
<text text-anchor="middle" x="54.6" y="-86.3" font-family="Times,serif" font-size="14.00" fill="white">arrow cpp</text>
</a>
</g>
</g>
<!-- conda&#45;forge&#45;pinning -->
<g id="node9" class="node">
<title>conda&#45;forge&#45;pinning</title>
<ellipse fill="none" stroke="black" cx="523.6" cy="-18" rx="103.18" ry="18"/>
<text text-anchor="middle" x="523.6" y="-14.3" font-family="Times,serif" font-size="14.00">conda&#45;forge&#45;pinning</text>
</g>
<!-- arrow&#45;cpp&#45;&gt;conda&#45;forge&#45;pinning -->
<g id="edge1" class="edge">
<title>arrow&#45;cpp&#45;&gt;conda&#45;forge&#45;pinning</title>
<path fill="none" stroke="black" d="M94.06,-77.48C101.82,-75.47 109.93,-73.53 117.6,-72 221.32,-51.33 341.63,-36.78 424.2,-28.22"/>
<polygon fill="black" stroke="black" points="424.74,-31.69 434.33,-27.19 424.03,-24.72 424.74,-31.69"/>
</g>
<!-- libarchive -->
<g id="node2" class="node">
<title>libarchive</title>
<g id="a_node2"><a xlink:href="https://github.com/conda-forge/libarchive-feedstock/pull/50" xlink:title="libarchive">
<ellipse fill="#31688e" stroke="black" cx="186.6" cy="-90" rx="59.59" ry="18"/>
<text text-anchor="middle" x="186.6" y="-86.3" font-family="Times,serif" font-size="14.00" fill="white">libarchive</text>
</a>
</g>
</g>
<!-- libarchive&#45;&gt;conda&#45;forge&#45;pinning -->
<g id="edge2" class="edge">
<title>libarchive&#45;&gt;conda&#45;forge&#45;pinning</title>
<path fill="none" stroke="black" d="M230.69,-77.81C238.95,-75.81 247.53,-73.79 255.6,-72 319.21,-57.88 391.74,-43.65 445.29,-33.5"/>
<polygon fill="black" stroke="black" points="446.22,-36.88 455.4,-31.58 444.92,-30 446.22,-36.88"/>
</g>
<!-- librdkafka -->
<g id="node3" class="node">
<title>librdkafka</title>
<g id="a_node3"><a xlink:href="https://github.com/conda-forge/librdkafka-feedstock/pull/48" xlink:title="librdkafka">
<ellipse fill="#31688e" stroke="black" cx="324.6" cy="-90" rx="59.59" ry="18"/>
<text text-anchor="middle" x="324.6" y="-86.3" font-family="Times,serif" font-size="14.00" fill="white">librdkafka</text>
</a>
</g>
</g>
<!-- librdkafka&#45;&gt;conda&#45;forge&#45;pinning -->
<g id="edge3" class="edge">
<title>librdkafka&#45;&gt;conda&#45;forge&#45;pinning</title>
<path fill="none" stroke="black" d="M362.03,-75.83C392.46,-65.13 435.79,-49.88 469.92,-37.88"/>
<polygon fill="black" stroke="black" points="471.47,-41.05 479.74,-34.43 469.15,-34.44 471.47,-41.05"/>
</g>
<!-- paraview -->
<g id="node4" class="node">
<title>paraview</title>
<g id="a_node4"><a xlink:href="https://github.com/conda-forge/paraview-feedstock/pull/73" xlink:title="paraview">
<ellipse fill="#31688e" stroke="black" cx="452.6" cy="-90" rx="50.09" ry="18"/>
<text text-anchor="middle" x="452.6" y="-86.3" font-family="Times,serif" font-size="14.00" fill="white">paraview</text>
</a>
</g>
</g>
<!-- paraview&#45;&gt;conda&#45;forge&#45;pinning -->
<g id="edge4" class="edge">
<title>paraview&#45;&gt;conda&#45;forge&#45;pinning</title>
<path fill="none" stroke="black" d="M469.06,-72.76C477.94,-64.01 489.08,-53.03 498.97,-43.28"/>
<polygon fill="black" stroke="black" points="501.56,-45.64 506.23,-36.12 496.65,-40.65 501.56,-45.64"/>
</g>
<!-- tiledb -->
<g id="node5" class="node">
<title>tiledb</title>
<g id="a_node5"><a xlink:href="https://github.com/conda-forge/tiledb-feedstock/pull/61" xlink:title="tiledb">
<ellipse fill="#31688e" stroke="black" cx="645.6" cy="-162" rx="40.09" ry="18"/>
<text text-anchor="middle" x="645.6" y="-158.3" font-family="Times,serif" font-size="14.00" fill="white">tiledb</text>
</a>
</g>
</g>
<!-- libtiledb&#45;sql -->
<g id="node8" class="node">
<title>libtiledb&#45;sql</title>
<ellipse fill="#fde725" stroke="black" cx="594.6" cy="-90" rx="74.19" ry="18"/>
<text text-anchor="middle" x="594.6" y="-86.3" font-family="Times,serif" font-size="14.00">libtiledb sql</text>
</g>
<!-- tiledb&#45;&gt;libtiledb&#45;sql -->
<g id="edge5" class="edge">
<title>tiledb&#45;&gt;libtiledb&#45;sql</title>
<path fill="none" stroke="black" d="M633.77,-144.76C627.64,-136.35 620.02,-125.89 613.13,-116.44"/>
<polygon fill="black" stroke="black" points="615.79,-114.15 607.07,-108.12 610.13,-118.27 615.79,-114.15"/>
</g>
<!-- tiledb&#45;&gt;conda&#45;forge&#45;pinning -->
<g id="edge6" class="edge">
<title>tiledb&#45;&gt;conda&#45;forge&#45;pinning</title>
<path fill="none" stroke="black" d="M659.75,-144.98C674.6,-126.14 693.71,-94.59 677.6,-72 663.23,-51.87 640.71,-39.31 617.29,-31.49"/>
<polygon fill="black" stroke="black" points="618.15,-28.1 607.57,-28.53 616.11,-34.79 618.15,-28.1"/>
</g>
<!-- lz4 -->
<g id="node6" class="node">
<title>lz4</title>
<g id="a_node6"><a xlink:href="https://github.com/conda-forge/lz4-feedstock/pull/26" xlink:title="lz4">
<ellipse fill="#31688e" stroke="black" cx="751.6" cy="-90" rx="27" ry="18"/>
<text text-anchor="middle" x="751.6" y="-86.3" font-family="Times,serif" font-size="14.00" fill="white">lz4</text>
</a>
</g>
</g>
<!-- lz4&#45;&gt;conda&#45;forge&#45;pinning -->
<g id="edge7" class="edge">
<title>lz4&#45;&gt;conda&#45;forge&#45;pinning</title>
<path fill="none" stroke="black" d="M729.65,-79.35C723.54,-76.81 716.85,-74.18 710.6,-72 671.12,-58.27 626.07,-45.42 590.08,-35.82"/>
<polygon fill="black" stroke="black" points="590.74,-32.37 580.18,-33.19 588.95,-39.14 590.74,-32.37"/>
</g>
<!-- squashfs&#45;tools -->
<g id="node7" class="node">
<title>squashfs&#45;tools</title>
<g id="a_node7"><a xlink:href="https://github.com/conda-forge/squashfs-tools-feedstock/pull/6" xlink:title="squashfs tools">
<ellipse fill="#31688e" stroke="black" cx="875.6" cy="-90" rx="79.09" ry="18"/>
<text text-anchor="middle" x="875.6" y="-86.3" font-family="Times,serif" font-size="14.00" fill="white">squashfs tools</text>
</a>
</g>
</g>
<!-- squashfs&#45;tools&#45;&gt;conda&#45;forge&#45;pinning -->
<g id="edge8" class="edge">
<title>squashfs&#45;tools&#45;&gt;conda&#45;forge&#45;pinning</title>
<path fill="none" stroke="black" d="M817.86,-77.52C758.03,-65.62 664.27,-46.97 598.7,-33.94"/>
<polygon fill="black" stroke="black" points="599.33,-30.49 588.84,-31.97 597.96,-37.36 599.33,-30.49"/>
</g>
<!-- libtiledb&#45;sql&#45;&gt;conda&#45;forge&#45;pinning -->
<g id="edge9" class="edge">
<title>libtiledb&#45;sql&#45;&gt;conda&#45;forge&#45;pinning</title>
<path fill="none" stroke="black" d="M577.77,-72.41C568.88,-63.65 557.81,-52.73 548,-43.06"/>
<polygon fill="black" stroke="black" points="550.37,-40.48 540.79,-35.96 545.46,-45.47 550.37,-40.48"/>
</g>
</g>
</svg>
