<?xml version="1.0" encoding="UTF-8" standalone="no"?>
<!DOCTYPE svg PUBLIC "-//W3C//DTD SVG 1.1//EN"
 "http://www.w3.org/Graphics/SVG/1.1/DTD/svg11.dtd">
<!-- Generated by graphviz version 2.42.3 (20191010.1750)
 -->
<!-- Title: %3 Pages: 1 -->
<svg width="964pt" height="260pt"
 viewBox="0.00 0.00 964.45 260.00" xmlns="http://www.w3.org/2000/svg" xmlns:xlink="http://www.w3.org/1999/xlink">
<g id="graph0" class="graph" transform="scale(1 1) rotate(0) translate(4 256)">
<title>%3</title>
<polygon fill="white" stroke="transparent" points="-4,4 -4,-256 960.45,-256 960.45,4 -4,4"/>
<!-- arrow&#45;cpp -->
<g id="node1" class="node">
<title>arrow&#45;cpp</title>
<ellipse fill="#fde725" stroke="black" cx="376.79" cy="-90" rx="54.69" ry="18"/>
<text text-anchor="middle" x="376.79" y="-86.3" font-family="Times,serif" font-size="14.00">arrow cpp</text>
</g>
<!-- conda&#45;forge&#45;pinning -->
<g id="node11" class="node">
<title>conda&#45;forge&#45;pinning</title>
<ellipse fill="none" stroke="black" cx="442.79" cy="-18" rx="103.18" ry="18"/>
<text text-anchor="middle" x="442.79" y="-14.3" font-family="Times,serif" font-size="14.00">conda&#45;forge&#45;pinning</text>
</g>
<!-- arrow&#45;cpp&#45;&gt;conda&#45;forge&#45;pinning -->
<g id="edge1" class="edge">
<title>arrow&#45;cpp&#45;&gt;conda&#45;forge&#45;pinning</title>
<path fill="none" stroke="black" d="M392.44,-72.41C400.62,-63.73 410.79,-52.95 419.84,-43.34"/>
<polygon fill="black" stroke="black" points="422.49,-45.63 426.81,-35.96 417.4,-40.83 422.49,-45.63"/>
</g>
<!-- libarchive -->
<g id="node2" class="node">
<title>libarchive</title>
<ellipse fill="#fde725" stroke="black" cx="59.79" cy="-162" rx="59.59" ry="18"/>
<text text-anchor="middle" x="59.79" y="-158.3" font-family="Times,serif" font-size="14.00">libarchive</text>
</g>
<!-- libarchive&#45;&gt;conda&#45;forge&#45;pinning -->
<g id="edge2" class="edge">
<title>libarchive&#45;&gt;conda&#45;forge&#45;pinning</title>
<path fill="none" stroke="black" d="M56.41,-144.01C53.49,-123.94 52.25,-90.89 70.79,-72 106.05,-36.09 233.93,-24.21 329.99,-20.44"/>
<polygon fill="black" stroke="black" points="330.2,-23.94 340.06,-20.07 329.94,-16.94 330.2,-23.94"/>
</g>
<!-- librdkafka -->
<g id="node3" class="node">
<title>librdkafka</title>
<g id="a_node3"><a xlink:href="https://github.com/conda-forge/librdkafka-feedstock/pull/48" xlink:title="librdkafka">
<ellipse fill="#31688e" stroke="black" cx="508.79" cy="-90" rx="59.59" ry="18"/>
<text text-anchor="middle" x="508.79" y="-86.3" font-family="Times,serif" font-size="14.00" fill="white">librdkafka</text>
</a>
</g>
</g>
<!-- librdkafka&#45;&gt;conda&#45;forge&#45;pinning -->
<g id="edge3" class="edge">
<title>librdkafka&#45;&gt;conda&#45;forge&#45;pinning</title>
<path fill="none" stroke="black" d="M493.15,-72.41C484.97,-63.73 474.8,-52.95 465.75,-43.34"/>
<polygon fill="black" stroke="black" points="468.19,-40.83 458.78,-35.96 463.1,-45.63 468.19,-40.83"/>
</g>
<!-- paraview -->
<g id="node4" class="node">
<title>paraview</title>
<g id="a_node4"><a xlink:href="https://github.com/conda-forge/paraview-feedstock/pull/73" xlink:title="paraview">
<ellipse fill="#31688e" stroke="black" cx="636.79" cy="-90" rx="50.09" ry="18"/>
<text text-anchor="middle" x="636.79" y="-86.3" font-family="Times,serif" font-size="14.00" fill="white">paraview</text>
</a>
</g>
</g>
<!-- paraview&#45;&gt;conda&#45;forge&#45;pinning -->
<g id="edge4" class="edge">
<title>paraview&#45;&gt;conda&#45;forge&#45;pinning</title>
<path fill="none" stroke="black" d="M602.56,-76.65C572.86,-65.93 529.4,-50.25 495.3,-37.95"/>
<polygon fill="black" stroke="black" points="496.09,-34.51 485.5,-34.41 493.72,-41.1 496.09,-34.51"/>
</g>
<!-- zstd -->
<g id="node5" class="node">
<title>zstd</title>
<g id="a_node5"><a xlink:href="https://github.com/conda-forge/zstd-feedstock/pull/39" xlink:title="zstd">
<ellipse fill="#31688e" stroke="black" cx="224.79" cy="-234" rx="30.59" ry="18"/>
<text text-anchor="middle" x="224.79" y="-230.3" font-family="Times,serif" font-size="14.00" fill="white">zstd</text>
</a>
</g>
</g>
<!-- zstd&#45;&gt;arrow&#45;cpp -->
<g id="edge5" class="edge">
<title>zstd&#45;&gt;arrow&#45;cpp</title>
<path fill="none" stroke="black" d="M247.03,-221.57C264.62,-211.9 289.23,-196.94 307.79,-180 328.61,-161 347.87,-135.17 360.72,-116.24"/>
<polygon fill="black" stroke="black" points="363.69,-118.08 366.32,-107.81 357.87,-114.2 363.69,-118.08"/>
</g>
<!-- zstd&#45;&gt;libarchive -->
<g id="edge6" class="edge">
<title>zstd&#45;&gt;libarchive</title>
<path fill="none" stroke="black" d="M200.8,-222.82C175.04,-211.89 133.61,-194.32 102.31,-181.03"/>
<polygon fill="black" stroke="black" points="103.52,-177.75 92.94,-177.06 100.78,-184.19 103.52,-177.75"/>
</g>
<!-- tiledb -->
<g id="node6" class="node">
<title>tiledb</title>
<ellipse fill="#fde725" stroke="black" cx="224.79" cy="-162" rx="40.09" ry="18"/>
<text text-anchor="middle" x="224.79" y="-158.3" font-family="Times,serif" font-size="14.00">tiledb</text>
</g>
<!-- zstd&#45;&gt;tiledb -->
<g id="edge8" class="edge">
<title>zstd&#45;&gt;tiledb</title>
<path fill="none" stroke="black" d="M224.79,-215.7C224.79,-207.98 224.79,-198.71 224.79,-190.11"/>
<polygon fill="black" stroke="black" points="228.29,-190.1 224.79,-180.1 221.29,-190.1 228.29,-190.1"/>
</g>
<!-- libtiledb&#45;sql -->
<g id="node10" class="node">
<title>libtiledb&#45;sql</title>
<ellipse fill="#fde725" stroke="black" cx="153.79" cy="-90" rx="74.19" ry="18"/>
<text text-anchor="middle" x="153.79" y="-86.3" font-family="Times,serif" font-size="14.00">libtiledb sql</text>
</g>
<!-- zstd&#45;&gt;libtiledb&#45;sql -->
<g id="edge7" class="edge">
<title>zstd&#45;&gt;libtiledb&#45;sql</title>
<path fill="none" stroke="black" d="M207.92,-218.87C197.2,-209.02 183.88,-195 175.79,-180 165.44,-160.79 159.87,-136.63 156.92,-118.33"/>
<polygon fill="black" stroke="black" points="160.37,-117.72 155.48,-108.32 153.44,-118.72 160.37,-117.72"/>
</g>
<!-- zstd&#45;&gt;conda&#45;forge&#45;pinning -->
<g id="edge9" class="edge">
<title>zstd&#45;&gt;conda&#45;forge&#45;pinning</title>
<path fill="none" stroke="black" d="M241.16,-218.58C251.66,-208.61 264.94,-194.56 273.79,-180 300.31,-136.4 277.45,-108.81 312.79,-72 328.68,-55.46 350.45,-43.92 371.63,-35.93"/>
<polygon fill="black" stroke="black" points="373.04,-39.15 381.3,-32.51 370.7,-32.55 373.04,-39.15"/>
</g>
<!-- tiledb&#45;&gt;libtiledb&#45;sql -->
<g id="edge10" class="edge">
<title>tiledb&#45;&gt;libtiledb&#45;sql</title>
<path fill="none" stroke="black" d="M208.68,-145.12C199.69,-136.24 188.29,-125.01 178.22,-115.08"/>
<polygon fill="black" stroke="black" points="180.41,-112.33 170.83,-107.8 175.5,-117.31 180.41,-112.33"/>
</g>
<!-- tiledb&#45;&gt;conda&#45;forge&#45;pinning -->
<g id="edge11" class="edge">
<title>tiledb&#45;&gt;conda&#45;forge&#45;pinning</title>
<path fill="none" stroke="black" d="M231.02,-144.07C239.23,-124.06 255.51,-91.07 279.79,-72 303.14,-53.67 333.03,-41.57 360.83,-33.64"/>
<polygon fill="black" stroke="black" points="361.83,-37 370.56,-31.01 360,-30.24 361.83,-37"/>
</g>
<!-- lz4 -->
<g id="node7" class="node">
<title>lz4</title>
<g id="a_node7"><a xlink:href="https://github.com/conda-forge/lz4-feedstock/pull/26" xlink:title="lz4">
<ellipse fill="#31688e" stroke="black" cx="731.79" cy="-90" rx="27" ry="18"/>
<text text-anchor="middle" x="731.79" y="-86.3" font-family="Times,serif" font-size="14.00" fill="white">lz4</text>
</a>
</g>
</g>
<!-- lz4&#45;&gt;conda&#45;forge&#45;pinning -->
<g id="edge12" class="edge">
<title>lz4&#45;&gt;conda&#45;forge&#45;pinning</title>
<path fill="none" stroke="black" d="M711.2,-78.26C706.24,-75.96 700.91,-73.72 695.79,-72 641.56,-53.8 578.61,-40.58 529.07,-31.9"/>
<polygon fill="black" stroke="black" points="529.48,-28.42 519.03,-30.17 528.29,-35.32 529.48,-28.42"/>
</g>
<!-- squashfs&#45;tools -->
<g id="node8" class="node">
<title>squashfs&#45;tools</title>
<g id="a_node8"><a xlink:href="https://github.com/conda-forge/squashfs-tools-feedstock/pull/6" xlink:title="squashfs tools">
<ellipse fill="#31688e" stroke="black" cx="855.79" cy="-90" rx="79.09" ry="18"/>
<text text-anchor="middle" x="855.79" y="-86.3" font-family="Times,serif" font-size="14.00" fill="white">squashfs tools</text>
</a>
</g>
</g>
<!-- squashfs&#45;tools&#45;&gt;conda&#45;forge&#45;pinning -->
<g id="edge13" class="edge">
<title>squashfs&#45;tools&#45;&gt;conda&#45;forge&#45;pinning</title>
<path fill="none" stroke="black" d="M798.09,-77.6C788,-75.68 777.6,-73.75 767.79,-72 686.29,-57.48 592.99,-42.43 527.33,-32.09"/>
<polygon fill="black" stroke="black" points="527.87,-28.63 517.44,-30.54 526.78,-35.55 527.87,-28.63"/>
</g>
<!-- orc -->
<g id="node9" class="node">
<title>orc</title>
<g id="a_node9"><a xlink:href="https://github.com/conda-forge/orc-feedstock/pull/15" xlink:title="orc">
<ellipse fill="#31688e" stroke="black" cx="685.79" cy="-162" rx="27" ry="18"/>
<text text-anchor="middle" x="685.79" y="-158.3" font-family="Times,serif" font-size="14.00" fill="white">orc</text>
</a>
</g>
</g>
<!-- orc&#45;&gt;arrow&#45;cpp -->
<g id="edge14" class="edge">
<title>orc&#45;&gt;arrow&#45;cpp</title>
<path fill="none" stroke="black" d="M660.2,-155.94C615.38,-146.97 519.83,-127.41 439.79,-108 435.65,-106.99 431.35,-105.92 427.05,-104.81"/>
<polygon fill="black" stroke="black" points="427.61,-101.34 417.05,-102.19 425.83,-108.11 427.61,-101.34"/>
</g>
<!-- orc&#45;&gt;conda&#45;forge&#45;pinning -->
<g id="edge15" class="edge">
<title>orc&#45;&gt;conda&#45;forge&#45;pinning</title>
<path fill="none" stroke="black" d="M712.83,-160.61C791.52,-158.62 1010.75,-146.41 943.79,-72 918.16,-43.52 692.86,-29.19 553.26,-22.99"/>
<polygon fill="black" stroke="black" points="553.09,-19.48 542.95,-22.54 552.79,-26.47 553.09,-19.48"/>
</g>
<!-- libtiledb&#45;sql&#45;&gt;conda&#45;forge&#45;pinning -->
<g id="edge16" class="edge">
<title>libtiledb&#45;sql&#45;&gt;conda&#45;forge&#45;pinning</title>
<path fill="none" stroke="black" d="M204.47,-76.73C251.84,-65.25 322.92,-48.04 375.13,-35.39"/>
<polygon fill="black" stroke="black" points="376.08,-38.76 384.97,-33.01 374.43,-31.96 376.08,-38.76"/>
</g>
</g>
</svg>
