<?xml version="1.0" encoding="UTF-8" standalone="no"?>
<!DOCTYPE svg PUBLIC "-//W3C//DTD SVG 1.1//EN"
 "http://www.w3.org/Graphics/SVG/1.1/DTD/svg11.dtd">
<!-- Generated by graphviz version 2.42.3 (20191010.1750)
 -->
<!-- Title: %3 Pages: 1 -->
<svg width="1220pt" height="404pt"
 viewBox="0.00 0.00 1219.54 404.00" xmlns="http://www.w3.org/2000/svg" xmlns:xlink="http://www.w3.org/1999/xlink">
<g id="graph0" class="graph" transform="scale(1 1) rotate(0) translate(4 400)">
<title>%3</title>
<polygon fill="white" stroke="transparent" points="-4,4 -4,-400 1215.54,-400 1215.54,4 -4,4"/>
<!-- arrow&#45;cpp -->
<g id="node1" class="node">
<title>arrow&#45;cpp</title>
<ellipse fill="#fde725" stroke="black" cx="611" cy="-90" rx="54.69" ry="18"/>
<text text-anchor="middle" x="611" y="-86.3" font-family="Times,serif" font-size="14.00">arrow cpp</text>
</g>
<!-- conda&#45;forge&#45;pinning -->
<g id="node2" class="node">
<title>conda&#45;forge&#45;pinning</title>
<ellipse fill="none" stroke="black" cx="652" cy="-18" rx="103.5" ry="18"/>
<text text-anchor="middle" x="652" y="-14.3" font-family="Times,serif" font-size="14.00">conda&#45;forge&#45;pinning</text>
</g>
<!-- arrow&#45;cpp&#45;&gt;conda&#45;forge&#45;pinning -->
<g id="edge1" class="edge">
<title>arrow&#45;cpp&#45;&gt;conda&#45;forge&#45;pinning</title>
<path fill="none" stroke="black" d="M620.92,-72.05C625.69,-63.92 631.5,-54 636.81,-44.94"/>
<polygon fill="black" stroke="black" points="639.85,-46.67 641.88,-36.28 633.81,-43.14 639.85,-46.67"/>
</g>
<!-- libarchive -->
<g id="node3" class="node">
<title>libarchive</title>
<ellipse fill="#fde725" stroke="black" cx="60" cy="-90" rx="60" ry="18"/>
<text text-anchor="middle" x="60" y="-86.3" font-family="Times,serif" font-size="14.00">libarchive</text>
</g>
<!-- libarchive&#45;&gt;conda&#45;forge&#45;pinning -->
<g id="edge2" class="edge">
<title>libarchive&#45;&gt;conda&#45;forge&#45;pinning</title>
<path fill="none" stroke="black" d="M104.43,-77.85C114.13,-75.68 124.38,-73.59 134,-72 275.99,-48.52 441.7,-33.75 546.72,-25.93"/>
<polygon fill="black" stroke="black" points="547.29,-29.4 557.01,-25.17 546.78,-22.42 547.29,-29.4"/>
</g>
<!-- librdkafka -->
<g id="node4" class="node">
<title>librdkafka</title>
<g id="a_node4"><a xlink:href="https://github.com/conda-forge/librdkafka-feedstock/pull/48" xlink:title="librdkafka">
<ellipse fill="#31688e" stroke="black" cx="478" cy="-90" rx="60" ry="18"/>
<text text-anchor="middle" x="478" y="-86.3" font-family="Times,serif" font-size="14.00" fill="white">librdkafka</text>
</a>
</g>
</g>
<!-- librdkafka&#45;&gt;conda&#45;forge&#45;pinning -->
<g id="edge3" class="edge">
<title>librdkafka&#45;&gt;conda&#45;forge&#45;pinning</title>
<path fill="none" stroke="black" d="M512.38,-75.17C538.36,-64.72 574.37,-50.23 603.32,-38.59"/>
<polygon fill="black" stroke="black" points="604.86,-41.74 612.84,-34.76 602.25,-35.24 604.86,-41.74"/>
</g>
<!-- paraview -->
<g id="node5" class="node">
<title>paraview</title>
<g id="a_node5"><a xlink:href="https://github.com/conda-forge/paraview-feedstock/pull/73" xlink:title="paraview">
<ellipse fill="#31688e" stroke="black" cx="430" cy="-162" rx="50.09" ry="18"/>
<text text-anchor="middle" x="430" y="-158.3" font-family="Times,serif" font-size="14.00" fill="white">paraview</text>
</a>
</g>
</g>
<!-- paraview&#45;&gt;conda&#45;forge&#45;pinning -->
<g id="edge4" class="edge">
<title>paraview&#45;&gt;conda&#45;forge&#45;pinning</title>
<path fill="none" stroke="black" d="M418.54,-144.39C406.71,-124.99 392.17,-92.9 409,-72 427.21,-49.39 493.34,-35.91 552.02,-28.21"/>
<polygon fill="black" stroke="black" points="552.64,-31.66 562.12,-26.93 551.76,-24.71 552.64,-31.66"/>
</g>
<!-- zstd -->
<g id="node6" class="node">
<title>zstd</title>
<g id="a_node6"><a xlink:href="https://github.com/conda-forge/zstd-feedstock/pull/39" xlink:title="zstd">
<ellipse fill="#31688e" stroke="black" cx="285" cy="-234" rx="30.59" ry="18"/>
<text text-anchor="middle" x="285" y="-230.3" font-family="Times,serif" font-size="14.00" fill="white">zstd</text>
</a>
</g>
</g>
<!-- zstd&#45;&gt;arrow&#45;cpp -->
<g id="edge5" class="edge">
<title>zstd&#45;&gt;arrow&#45;cpp</title>
<path fill="none" stroke="black" d="M314.57,-228.89C355.35,-222.44 430.46,-207.72 489,-180 525.46,-162.74 562.16,-134.08 585.65,-113.95"/>
<polygon fill="black" stroke="black" points="588.13,-116.43 593.38,-107.23 583.54,-111.15 588.13,-116.43"/>
</g>
<!-- zstd&#45;&gt;conda&#45;forge&#45;pinning -->
<g id="edge6" class="edge">
<title>zstd&#45;&gt;conda&#45;forge&#45;pinning</title>
<path fill="none" stroke="black" d="M291.61,-216.43C305.74,-183.25 342.24,-108.71 398,-72 440.33,-44.13 494.5,-30.52 541.94,-24.02"/>
<polygon fill="black" stroke="black" points="542.48,-27.48 551.95,-22.74 541.59,-20.54 542.48,-27.48"/>
</g>
<!-- zstd&#45;&gt;libarchive -->
<g id="edge7" class="edge">
<title>zstd&#45;&gt;libarchive</title>
<path fill="none" stroke="black" d="M259.36,-223.97C234.53,-214.69 196.3,-198.94 166,-180 135.47,-160.91 104.36,-133.67 83.81,-114.37"/>
<polygon fill="black" stroke="black" points="86.13,-111.75 76.48,-107.39 81.31,-116.82 86.13,-111.75"/>
</g>
<!-- tiledb -->
<g id="node7" class="node">
<title>tiledb</title>
<ellipse fill="#fde725" stroke="black" cx="216" cy="-162" rx="40.5" ry="18"/>
<text text-anchor="middle" x="216" y="-158.3" font-family="Times,serif" font-size="14.00">tiledb</text>
</g>
<!-- zstd&#45;&gt;tiledb -->
<g id="edge8" class="edge">
<title>zstd&#45;&gt;tiledb</title>
<path fill="none" stroke="black" d="M270.37,-218.15C261.2,-208.85 249.19,-196.67 238.79,-186.12"/>
<polygon fill="black" stroke="black" points="241.08,-183.46 231.57,-178.8 236.1,-188.38 241.08,-183.46"/>
</g>
<!-- libtiledb&#45;sql -->
<g id="node8" class="node">
<title>libtiledb&#45;sql</title>
<ellipse fill="#fde725" stroke="black" cx="250" cy="-90" rx="74.19" ry="18"/>
<text text-anchor="middle" x="250" y="-86.3" font-family="Times,serif" font-size="14.00">libtiledb sql</text>
</g>
<!-- zstd&#45;&gt;libtiledb&#45;sql -->
<g id="edge9" class="edge">
<title>zstd&#45;&gt;libtiledb&#45;sql</title>
<path fill="none" stroke="black" d="M281.44,-215.87C277.64,-197.9 271.31,-168.87 265,-144 262.83,-135.43 260.27,-126.14 257.88,-117.77"/>
<polygon fill="black" stroke="black" points="261.24,-116.76 255.1,-108.12 254.51,-118.7 261.24,-116.76"/>
</g>
<!-- tiledb&#45;&gt;conda&#45;forge&#45;pinning -->
<g id="edge10" class="edge">
<title>tiledb&#45;&gt;conda&#45;forge&#45;pinning</title>
<path fill="none" stroke="black" d="M197.09,-145.84C175.83,-127 146.75,-94.59 167,-72 191.6,-44.56 406.87,-29.94 542.21,-23.38"/>
<polygon fill="black" stroke="black" points="542.4,-26.88 552.22,-22.91 542.06,-19.89 542.4,-26.88"/>
</g>
<!-- tiledb&#45;&gt;libtiledb&#45;sql -->
<g id="edge11" class="edge">
<title>tiledb&#45;&gt;libtiledb&#45;sql</title>
<path fill="none" stroke="black" d="M224.23,-144.05C228.1,-136.09 232.8,-126.41 237.12,-117.51"/>
<polygon fill="black" stroke="black" points="240.39,-118.8 241.61,-108.28 234.09,-115.74 240.39,-118.8"/>
</g>
<!-- libtiledb&#45;sql&#45;&gt;conda&#45;forge&#45;pinning -->
<g id="edge12" class="edge">
<title>libtiledb&#45;sql&#45;&gt;conda&#45;forge&#45;pinning</title>
<path fill="none" stroke="black" d="M305.83,-78.01C316.5,-75.97 327.59,-73.88 338,-72 416.23,-57.84 505.66,-42.87 569.01,-32.46"/>
<polygon fill="black" stroke="black" points="569.65,-35.9 578.95,-30.83 568.52,-28.99 569.65,-35.9"/>
</g>
<!-- vtk -->
<g id="node9" class="node">
<title>vtk</title>
<g id="a_node9"><a xlink:href="https://github.com/conda-forge/vtk-feedstock/pull/118" xlink:title="vtk">
<ellipse fill="#31688e" stroke="black" cx="715" cy="-234" rx="27" ry="18"/>
<text text-anchor="middle" x="715" y="-230.3" font-family="Times,serif" font-size="14.00" fill="white">vtk</text>
</a>
</g>
</g>
<!-- vtk&#45;&gt;conda&#45;forge&#45;pinning -->
<g id="edge13" class="edge">
<title>vtk&#45;&gt;conda&#45;forge&#45;pinning</title>
<path fill="none" stroke="black" d="M715.11,-215.84C714.74,-185.6 711.36,-121.38 691,-72 686.88,-62.02 680.49,-52.19 674.07,-43.75"/>
<polygon fill="black" stroke="black" points="676.7,-41.44 667.71,-35.83 671.24,-45.82 676.7,-41.44"/>
</g>
<!-- lz4 -->
<g id="node10" class="node">
<title>lz4</title>
<g id="a_node10"><a xlink:href="https://github.com/conda-forge/lz4-feedstock/pull/26" xlink:title="lz4">
<ellipse fill="#31688e" stroke="black" cx="770" cy="-306" rx="27" ry="18"/>
<text text-anchor="middle" x="770" y="-302.3" font-family="Times,serif" font-size="14.00" fill="white">lz4</text>
</a>
</g>
</g>
<!-- lz4&#45;&gt;conda&#45;forge&#45;pinning -->
<g id="edge14" class="edge">
<title>lz4&#45;&gt;conda&#45;forge&#45;pinning</title>
<path fill="none" stroke="black" d="M769.16,-287.83C766.47,-247.29 755.41,-143.64 711,-72 704.02,-60.73 693.94,-50.45 684.09,-41.99"/>
<polygon fill="black" stroke="black" points="686.26,-39.25 676.3,-35.63 681.83,-44.67 686.26,-39.25"/>
</g>
<!-- squashfs&#45;tools -->
<g id="node11" class="node">
<title>squashfs&#45;tools</title>
<g id="a_node11"><a xlink:href="https://github.com/conda-forge/squashfs-tools-feedstock/pull/6" xlink:title="squashfs tools">
<ellipse fill="#31688e" stroke="black" cx="888" cy="-378" rx="79.5" ry="18"/>
<text text-anchor="middle" x="888" y="-374.3" font-family="Times,serif" font-size="14.00" fill="white">squashfs tools</text>
</a>
</g>
</g>
<!-- squashfs&#45;tools&#45;&gt;conda&#45;forge&#45;pinning -->
<g id="edge15" class="edge">
<title>squashfs&#45;tools&#45;&gt;conda&#45;forge&#45;pinning</title>
<path fill="none" stroke="black" d="M888,-359.95C888,-333.29 888,-280.11 888,-235 888,-235 888,-235 888,-161 888,-120.55 897.18,-101.02 869,-72 851.08,-53.55 793.46,-39.99 742.1,-31.2"/>
<polygon fill="black" stroke="black" points="742.37,-27.7 731.93,-29.51 741.22,-34.6 742.37,-27.7"/>
</g>
<!-- root -->
<g id="node12" class="node">
<title>root</title>
<g id="a_node12"><a xlink:href="https://github.com/conda-forge/root-feedstock/pull/85" xlink:title="root">
<ellipse fill="#31688e" stroke="black" cx="829" cy="-90" rx="30.59" ry="18"/>
<text text-anchor="middle" x="829" y="-86.3" font-family="Times,serif" font-size="14.00" fill="white">root</text>
</a>
</g>
</g>
<!-- root&#45;&gt;conda&#45;forge&#45;pinning -->
<g id="edge16" class="edge">
<title>root&#45;&gt;conda&#45;forge&#45;pinning</title>
<path fill="none" stroke="black" d="M804.39,-79.27C777.85,-68.77 734.89,-51.78 701.34,-38.51"/>
<polygon fill="black" stroke="black" points="702.29,-35.12 691.7,-34.7 699.71,-41.63 702.29,-35.12"/>
</g>
<!-- orc -->
<g id="node13" class="node">
<title>orc</title>
<g id="a_node13"><a xlink:href="https://github.com/conda-forge/orc-feedstock/pull/15" xlink:title="orc">
<ellipse fill="#31688e" stroke="black" cx="644" cy="-162" rx="27" ry="18"/>
<text text-anchor="middle" x="644" y="-158.3" font-family="Times,serif" font-size="14.00" fill="white">orc</text>
</a>
</g>
</g>
<!-- orc&#45;&gt;arrow&#45;cpp -->
<g id="edge17" class="edge">
<title>orc&#45;&gt;arrow&#45;cpp</title>
<path fill="none" stroke="black" d="M636.18,-144.41C632.33,-136.25 627.6,-126.22 623.29,-117.07"/>
<polygon fill="black" stroke="black" points="626.42,-115.51 618.99,-107.96 620.09,-118.49 626.42,-115.51"/>
</g>
<!-- orc&#45;&gt;conda&#45;forge&#45;pinning -->
<g id="edge18" class="edge">
<title>orc&#45;&gt;conda&#45;forge&#45;pinning</title>
<path fill="none" stroke="black" d="M655.87,-145.76C662.95,-135.66 671.26,-121.79 675,-108 679.18,-92.56 678.25,-87.67 675,-72 673.12,-62.96 669.63,-53.58 665.91,-45.26"/>
<polygon fill="black" stroke="black" points="669,-43.6 661.54,-36.07 662.68,-46.61 669,-43.6"/>
</g>
<!-- ros&#45;roslz4 -->
<g id="node14" class="node">
<title>ros&#45;roslz4</title>
<g id="a_node14"><a xlink:href="https://github.com/conda-forge/ros-roslz4-feedstock/pull/4" xlink:title="ros roslz4">
<ellipse fill="#31688e" stroke="black" cx="976" cy="-162" rx="60" ry="18"/>
<text text-anchor="middle" x="976" y="-158.3" font-family="Times,serif" font-size="14.00" fill="white">ros roslz4</text>
</a>
</g>
</g>
<!-- ros&#45;roslz4&#45;&gt;conda&#45;forge&#45;pinning -->
<g id="edge19" class="edge">
<title>ros&#45;roslz4&#45;&gt;conda&#45;forge&#45;pinning</title>
<path fill="none" stroke="black" d="M966.67,-143.95C954.55,-123.5 931.42,-89.76 902,-72 859.09,-46.1 805.37,-32.74 758.74,-25.89"/>
<polygon fill="black" stroke="black" points="758.98,-22.39 748.6,-24.49 758.02,-29.33 758.98,-22.39"/>
</g>
<!-- hdf5&#45;external&#45;filter&#45;plugins -->
<g id="node15" class="node">
<title>hdf5&#45;external&#45;filter&#45;plugins</title>
<g id="a_node15"><a xlink:href="https://github.com/conda-forge/hdf5-external-filter-plugins-feedstock/pull/2" xlink:title="hdf5 external filter plugins">
<ellipse fill="#31688e" stroke="black" cx="1064" cy="-234" rx="147.57" ry="18"/>
<text text-anchor="middle" x="1064" y="-230.3" font-family="Times,serif" font-size="14.00" fill="white">hdf5 external filter plugins</text>
</a>
</g>
</g>
<!-- hdf5&#45;external&#45;filter&#45;plugins&#45;&gt;conda&#45;forge&#45;pinning -->
<g id="edge20" class="edge">
<title>hdf5&#45;external&#45;filter&#45;plugins&#45;&gt;conda&#45;forge&#45;pinning</title>
<path fill="none" stroke="black" d="M1064.09,-215.77C1063.38,-196.66 1059.78,-165.67 1045,-144 1012.28,-96.04 989.83,-93.76 936,-72 877.78,-48.47 808.57,-35.27 753.05,-27.94"/>
<polygon fill="black" stroke="black" points="753.21,-24.43 742.85,-26.63 752.33,-31.37 753.21,-24.43"/>
</g>
</g>
</svg>
