<?xml version="1.0" encoding="UTF-8" standalone="no"?>
<!DOCTYPE svg PUBLIC "-//W3C//DTD SVG 1.1//EN"
 "http://www.w3.org/Graphics/SVG/1.1/DTD/svg11.dtd">
<!-- Generated by graphviz version 2.42.3 (20191010.1750)
 -->
<!-- Title: %3 Pages: 1 -->
<svg width="1028pt" height="404pt"
 viewBox="0.00 0.00 1028.03 404.00" xmlns="http://www.w3.org/2000/svg" xmlns:xlink="http://www.w3.org/1999/xlink">
<g id="graph0" class="graph" transform="scale(1 1) rotate(0) translate(4 400)">
<title>%3</title>
<polygon fill="white" stroke="transparent" points="-4,4 -4,-400 1024.03,-400 1024.03,4 -4,4"/>
<!-- arrow&#45;cpp -->
<g id="node1" class="node">
<title>arrow&#45;cpp</title>
<ellipse fill="#fde725" stroke="black" cx="595.03" cy="-90" rx="54.69" ry="18"/>
<text text-anchor="middle" x="595.03" y="-86.3" font-family="Times,serif" font-size="14.00">arrow cpp</text>
</g>
<!-- conda&#45;forge&#45;pinning -->
<g id="node2" class="node">
<title>conda&#45;forge&#45;pinning</title>
<ellipse fill="none" stroke="black" cx="595.03" cy="-18" rx="103.5" ry="18"/>
<text text-anchor="middle" x="595.03" y="-14.3" font-family="Times,serif" font-size="14.00">conda&#45;forge&#45;pinning</text>
</g>
<!-- arrow&#45;cpp&#45;&gt;conda&#45;forge&#45;pinning -->
<g id="edge1" class="edge">
<title>arrow&#45;cpp&#45;&gt;conda&#45;forge&#45;pinning</title>
<path fill="none" stroke="black" d="M595.03,-71.7C595.03,-63.98 595.03,-54.71 595.03,-46.11"/>
<polygon fill="black" stroke="black" points="598.53,-46.1 595.03,-36.1 591.53,-46.1 598.53,-46.1"/>
</g>
<!-- libarchive -->
<g id="node3" class="node">
<title>libarchive</title>
<ellipse fill="#fde725" stroke="black" cx="82.03" cy="-90" rx="60" ry="18"/>
<text text-anchor="middle" x="82.03" y="-86.3" font-family="Times,serif" font-size="14.00">libarchive</text>
</g>
<!-- libarchive&#45;&gt;conda&#45;forge&#45;pinning -->
<g id="edge2" class="edge">
<title>libarchive&#45;&gt;conda&#45;forge&#45;pinning</title>
<path fill="none" stroke="black" d="M126.88,-77.9C136.46,-75.75 146.55,-73.66 156.03,-72 271.63,-51.8 405.7,-36.83 494.97,-28.04"/>
<polygon fill="black" stroke="black" points="495.47,-31.51 505.08,-27.05 494.79,-24.54 495.47,-31.51"/>
</g>
<!-- librdkafka -->
<g id="node4" class="node">
<title>librdkafka</title>
<g id="a_node4"><a xlink:href="https://github.com/conda-forge/librdkafka-feedstock/pull/48" xlink:title="librdkafka">
<ellipse fill="#31688e" stroke="black" cx="462.03" cy="-90" rx="60" ry="18"/>
<text text-anchor="middle" x="462.03" y="-86.3" font-family="Times,serif" font-size="14.00" fill="white">librdkafka</text>
</a>
</g>
</g>
<!-- librdkafka&#45;&gt;conda&#45;forge&#45;pinning -->
<g id="edge3" class="edge">
<title>librdkafka&#45;&gt;conda&#45;forge&#45;pinning</title>
<path fill="none" stroke="black" d="M490.57,-73.98C509.45,-64.04 534.47,-50.87 555.3,-39.91"/>
<polygon fill="black" stroke="black" points="557.01,-42.97 564.23,-35.21 553.75,-36.77 557.01,-42.97"/>
</g>
<!-- paraview -->
<g id="node5" class="node">
<title>paraview</title>
<g id="a_node5"><a xlink:href="https://github.com/conda-forge/paraview-feedstock/pull/73" xlink:title="paraview">
<ellipse fill="#31688e" stroke="black" cx="374.03" cy="-162" rx="50.09" ry="18"/>
<text text-anchor="middle" x="374.03" y="-158.3" font-family="Times,serif" font-size="14.00" fill="white">paraview</text>
</a>
</g>
</g>
<!-- paraview&#45;&gt;conda&#45;forge&#45;pinning -->
<g id="edge4" class="edge">
<title>paraview&#45;&gt;conda&#45;forge&#45;pinning</title>
<path fill="none" stroke="black" d="M372.74,-143.84C372.22,-123.91 374.59,-91.31 393.03,-72 409.45,-54.8 462.08,-41.31 509.5,-32.25"/>
<polygon fill="black" stroke="black" points="510.33,-35.65 519.52,-30.38 509.05,-28.77 510.33,-35.65"/>
</g>
<!-- zstd -->
<g id="node6" class="node">
<title>zstd</title>
<g id="a_node6"><a xlink:href="https://github.com/conda-forge/zstd-feedstock/pull/39" xlink:title="zstd">
<ellipse fill="#31688e" stroke="black" cx="184.03" cy="-234" rx="30.59" ry="18"/>
<text text-anchor="middle" x="184.03" y="-230.3" font-family="Times,serif" font-size="14.00" fill="white">zstd</text>
</a>
</g>
</g>
<!-- zstd&#45;&gt;arrow&#45;cpp -->
<g id="edge5" class="edge">
<title>zstd&#45;&gt;arrow&#45;cpp</title>
<path fill="none" stroke="black" d="M213.96,-229.51C261.52,-223.33 356.81,-208.35 433.03,-180 480.8,-162.23 531.65,-132.26 563.38,-112.06"/>
<polygon fill="black" stroke="black" points="565.68,-114.74 572.19,-106.38 561.89,-108.85 565.68,-114.74"/>
</g>
<!-- zstd&#45;&gt;conda&#45;forge&#45;pinning -->
<g id="edge6" class="edge">
<title>zstd&#45;&gt;conda&#45;forge&#45;pinning</title>
<path fill="none" stroke="black" d="M158.79,-223.37C98.83,-199.19 -43.05,-133.43 13.03,-72 43.99,-38.09 322.19,-25.64 482.48,-21.25"/>
<polygon fill="black" stroke="black" points="482.96,-24.74 492.87,-20.97 482.78,-17.74 482.96,-24.74"/>
</g>
<!-- zstd&#45;&gt;libarchive -->
<g id="edge7" class="edge">
<title>zstd&#45;&gt;libarchive</title>
<path fill="none" stroke="black" d="M168.17,-218.06C157.81,-207.87 144.34,-193.77 134.03,-180 119.06,-159.99 104.95,-135.33 95.21,-117.04"/>
<polygon fill="black" stroke="black" points="98.28,-115.35 90.54,-108.12 92.08,-118.6 98.28,-115.35"/>
</g>
<!-- tiledb -->
<g id="node7" class="node">
<title>tiledb</title>
<ellipse fill="#fde725" stroke="black" cx="184.03" cy="-162" rx="40.5" ry="18"/>
<text text-anchor="middle" x="184.03" y="-158.3" font-family="Times,serif" font-size="14.00">tiledb</text>
</g>
<!-- zstd&#45;&gt;tiledb -->
<g id="edge8" class="edge">
<title>zstd&#45;&gt;tiledb</title>
<path fill="none" stroke="black" d="M184.03,-215.7C184.03,-207.98 184.03,-198.71 184.03,-190.11"/>
<polygon fill="black" stroke="black" points="187.53,-190.1 184.03,-180.1 180.53,-190.1 187.53,-190.1"/>
</g>
<!-- libtiledb&#45;sql -->
<g id="node8" class="node">
<title>libtiledb&#45;sql</title>
<ellipse fill="#fde725" stroke="black" cx="272.03" cy="-90" rx="74.19" ry="18"/>
<text text-anchor="middle" x="272.03" y="-86.3" font-family="Times,serif" font-size="14.00">libtiledb sql</text>
</g>
<!-- zstd&#45;&gt;libtiledb&#45;sql -->
<g id="edge9" class="edge">
<title>zstd&#45;&gt;libtiledb&#45;sql</title>
<path fill="none" stroke="black" d="M200.09,-218.38C210.45,-208.33 223.7,-194.26 233.03,-180 245.82,-160.47 256.18,-136.05 263,-117.73"/>
<polygon fill="black" stroke="black" points="266.31,-118.85 266.41,-108.25 259.73,-116.47 266.31,-118.85"/>
</g>
<!-- tiledb&#45;&gt;conda&#45;forge&#45;pinning -->
<g id="edge10" class="edge">
<title>tiledb&#45;&gt;conda&#45;forge&#45;pinning</title>
<path fill="none" stroke="black" d="M179.21,-143.79C174.76,-123.81 171.23,-91.16 189.03,-72 209.26,-50.23 376.26,-34.29 489.68,-25.85"/>
<polygon fill="black" stroke="black" points="490.08,-29.33 499.8,-25.1 489.57,-22.35 490.08,-29.33"/>
</g>
<!-- tiledb&#45;&gt;libtiledb&#45;sql -->
<g id="edge11" class="edge">
<title>tiledb&#45;&gt;libtiledb&#45;sql</title>
<path fill="none" stroke="black" d="M203.13,-145.81C214.93,-136.42 230.3,-124.19 243.53,-113.67"/>
<polygon fill="black" stroke="black" points="245.79,-116.34 251.44,-107.38 241.44,-110.87 245.79,-116.34"/>
</g>
<!-- libtiledb&#45;sql&#45;&gt;conda&#45;forge&#45;pinning -->
<g id="edge12" class="edge">
<title>libtiledb&#45;sql&#45;&gt;conda&#45;forge&#45;pinning</title>
<path fill="none" stroke="black" d="M325.37,-77.44C379.32,-65.75 463.07,-47.6 522.92,-34.63"/>
<polygon fill="black" stroke="black" points="524.02,-37.97 533.05,-32.43 522.54,-31.13 524.02,-37.97"/>
</g>
<!-- vtk -->
<g id="node9" class="node">
<title>vtk</title>
<g id="a_node9"><a xlink:href="https://github.com/conda-forge/vtk-feedstock/pull/118" xlink:title="vtk">
<ellipse fill="#31688e" stroke="black" cx="699.03" cy="-234" rx="27" ry="18"/>
<text text-anchor="middle" x="699.03" y="-230.3" font-family="Times,serif" font-size="14.00" fill="white">vtk</text>
</a>
</g>
</g>
<!-- vtk&#45;&gt;conda&#45;forge&#45;pinning -->
<g id="edge13" class="edge">
<title>vtk&#45;&gt;conda&#45;forge&#45;pinning</title>
<path fill="none" stroke="black" d="M700.63,-215.95C702.69,-184.76 703.05,-117.57 674.03,-72 665.75,-58.98 652.98,-48.41 640.12,-40.23"/>
<polygon fill="black" stroke="black" points="641.63,-37.05 631.25,-34.94 638.05,-43.07 641.63,-37.05"/>
</g>
<!-- lz4 -->
<g id="node10" class="node">
<title>lz4</title>
<g id="a_node10"><a xlink:href="https://github.com/conda-forge/lz4-feedstock/pull/26" xlink:title="lz4">
<ellipse fill="#31688e" stroke="black" cx="754.03" cy="-306" rx="27" ry="18"/>
<text text-anchor="middle" x="754.03" y="-302.3" font-family="Times,serif" font-size="14.00" fill="white">lz4</text>
</a>
</g>
</g>
<!-- lz4&#45;&gt;conda&#45;forge&#45;pinning -->
<g id="edge14" class="edge">
<title>lz4&#45;&gt;conda&#45;forge&#45;pinning</title>
<path fill="none" stroke="black" d="M754.32,-287.97C754.14,-246.38 748.24,-138.18 695.03,-72 683.51,-57.66 667.04,-46.72 650.78,-38.62"/>
<polygon fill="black" stroke="black" points="651.81,-35.23 641.27,-34.16 648.84,-41.57 651.81,-35.23"/>
</g>
<!-- squashfs&#45;tools -->
<g id="node11" class="node">
<title>squashfs&#45;tools</title>
<g id="a_node11"><a xlink:href="https://github.com/conda-forge/squashfs-tools-feedstock/pull/6" xlink:title="squashfs tools">
<ellipse fill="#31688e" stroke="black" cx="872.03" cy="-378" rx="79.5" ry="18"/>
<text text-anchor="middle" x="872.03" y="-374.3" font-family="Times,serif" font-size="14.00" fill="white">squashfs tools</text>
</a>
</g>
</g>
<!-- squashfs&#45;tools&#45;&gt;conda&#45;forge&#45;pinning -->
<g id="edge15" class="edge">
<title>squashfs&#45;tools&#45;&gt;conda&#45;forge&#45;pinning</title>
<path fill="none" stroke="black" d="M872.03,-359.95C872.03,-333.29 872.03,-280.11 872.03,-235 872.03,-235 872.03,-235 872.03,-161 872.03,-120.55 881.74,-100.49 853.03,-72 830.66,-49.8 757.55,-36.14 694.84,-28.26"/>
<polygon fill="black" stroke="black" points="695.23,-24.78 684.88,-27.04 694.38,-31.73 695.23,-24.78"/>
</g>
<!-- root -->
<g id="node12" class="node">
<title>root</title>
<g id="a_node12"><a xlink:href="https://github.com/conda-forge/root-feedstock/pull/85" xlink:title="root">
<ellipse fill="#31688e" stroke="black" cx="813.03" cy="-90" rx="30.59" ry="18"/>
<text text-anchor="middle" x="813.03" y="-86.3" font-family="Times,serif" font-size="14.00" fill="white">root</text>
</a>
</g>
</g>
<!-- root&#45;&gt;conda&#45;forge&#45;pinning -->
<g id="edge16" class="edge">
<title>root&#45;&gt;conda&#45;forge&#45;pinning</title>
<path fill="none" stroke="black" d="M788.38,-79.36C781.8,-76.88 774.67,-74.27 768.03,-72 730.97,-59.34 688.97,-46.43 655.63,-36.53"/>
<polygon fill="black" stroke="black" points="656.61,-33.17 646.03,-33.69 654.62,-39.88 656.61,-33.17"/>
</g>
<!-- orc -->
<g id="node13" class="node">
<title>orc</title>
<g id="a_node13"><a xlink:href="https://github.com/conda-forge/orc-feedstock/pull/15" xlink:title="orc">
<ellipse fill="#31688e" stroke="black" cx="628.03" cy="-162" rx="27" ry="18"/>
<text text-anchor="middle" x="628.03" y="-158.3" font-family="Times,serif" font-size="14.00" fill="white">orc</text>
</a>
</g>
</g>
<!-- orc&#45;&gt;arrow&#45;cpp -->
<g id="edge17" class="edge">
<title>orc&#45;&gt;arrow&#45;cpp</title>
<path fill="none" stroke="black" d="M620.21,-144.41C616.37,-136.25 611.64,-126.22 607.32,-117.07"/>
<polygon fill="black" stroke="black" points="610.46,-115.51 603.03,-107.96 604.13,-118.49 610.46,-115.51"/>
</g>
<!-- orc&#45;&gt;conda&#45;forge&#45;pinning -->
<g id="edge18" class="edge">
<title>orc&#45;&gt;conda&#45;forge&#45;pinning</title>
<path fill="none" stroke="black" d="M640.42,-145.82C653.52,-127.79 670.8,-97.02 659.03,-72 653.37,-59.95 643.46,-49.7 633.12,-41.51"/>
<polygon fill="black" stroke="black" points="634.93,-38.5 624.8,-35.4 630.78,-44.14 634.93,-38.5"/>
</g>
<!-- ros&#45;roslz4 -->
<g id="node14" class="node">
<title>ros&#45;roslz4</title>
<g id="a_node14"><a xlink:href="https://github.com/conda-forge/ros-roslz4-feedstock/pull/4" xlink:title="ros roslz4">
<ellipse fill="#31688e" stroke="black" cx="960.03" cy="-162" rx="60" ry="18"/>
<text text-anchor="middle" x="960.03" y="-158.3" font-family="Times,serif" font-size="14.00" fill="white">ros roslz4</text>
</a>
</g>
</g>
<!-- ros&#45;roslz4&#45;&gt;conda&#45;forge&#45;pinning -->
<g id="edge19" class="edge">
<title>ros&#45;roslz4&#45;&gt;conda&#45;forge&#45;pinning</title>
<path fill="none" stroke="black" d="M951,-144.17C939.02,-123.62 915.88,-89.43 886.03,-72 853.48,-52.98 762.52,-38.34 690.88,-29.32"/>
<polygon fill="black" stroke="black" points="691.26,-25.84 680.91,-28.08 690.4,-32.79 691.26,-25.84"/>
</g>
</g>
</svg>
