<?xml version="1.0" encoding="UTF-8" standalone="no"?>
<!DOCTYPE svg PUBLIC "-//W3C//DTD SVG 1.1//EN"
 "http://www.w3.org/Graphics/SVG/1.1/DTD/svg11.dtd">
<!-- Generated by graphviz version 2.42.3 (20191010.1750)
 -->
<!-- Title: %3 Pages: 1 -->
<svg width="891pt" height="188pt"
 viewBox="0.00 0.00 890.89 188.00" xmlns="http://www.w3.org/2000/svg" xmlns:xlink="http://www.w3.org/1999/xlink">
<g id="graph0" class="graph" transform="scale(1 1) rotate(0) translate(4 184)">
<title>%3</title>
<polygon fill="white" stroke="transparent" points="-4,4 -4,-184 886.89,-184 886.89,4 -4,4"/>
<!-- arrow&#45;cpp -->
<g id="node1" class="node">
<title>arrow&#45;cpp</title>
<g id="a_node1"><a xlink:href="https://github.com/conda-forge/arrow-cpp-feedstock/pull/130" xlink:title="arrow cpp">
<ellipse fill="#31688e" stroke="black" cx="54.6" cy="-90" rx="54.69" ry="18"/>
<text text-anchor="middle" x="54.6" y="-86.3" font-family="Times,serif" font-size="14.00" fill="white">arrow cpp</text>
</a>
</g>
</g>
<!-- conda&#45;forge&#45;pinning -->
<g id="node8" class="node">
<title>conda&#45;forge&#45;pinning</title>
<ellipse fill="none" stroke="black" cx="452.6" cy="-18" rx="103.18" ry="18"/>
<text text-anchor="middle" x="452.6" y="-14.3" font-family="Times,serif" font-size="14.00">conda&#45;forge&#45;pinning</text>
</g>
<!-- arrow&#45;cpp&#45;&gt;conda&#45;forge&#45;pinning -->
<g id="edge1" class="edge">
<title>arrow&#45;cpp&#45;&gt;conda&#45;forge&#45;pinning</title>
<path fill="none" stroke="black" d="M94.43,-77.56C102.08,-75.56 110.06,-73.61 117.6,-72 199.62,-54.5 294.08,-40.06 361.74,-30.7"/>
<polygon fill="black" stroke="black" points="362.51,-34.13 371.94,-29.3 361.56,-27.19 362.51,-34.13"/>
</g>
<!-- libarchive -->
<g id="node2" class="node">
<title>libarchive</title>
<g id="a_node2"><a xlink:href="https://github.com/conda-forge/libarchive-feedstock/pull/50" xlink:title="libarchive">
<ellipse fill="#31688e" stroke="black" cx="186.6" cy="-90" rx="59.59" ry="18"/>
<text text-anchor="middle" x="186.6" y="-86.3" font-family="Times,serif" font-size="14.00" fill="white">libarchive</text>
</a>
</g>
</g>
<!-- libarchive&#45;&gt;conda&#45;forge&#45;pinning -->
<g id="edge2" class="edge">
<title>libarchive&#45;&gt;conda&#45;forge&#45;pinning</title>
<path fill="none" stroke="black" d="M230.22,-77.52C273.11,-66.23 339.06,-48.88 388.02,-35.99"/>
<polygon fill="black" stroke="black" points="389.1,-39.33 397.88,-33.4 387.32,-32.56 389.1,-39.33"/>
</g>
<!-- librdkafka -->
<g id="node3" class="node">
<title>librdkafka</title>
<g id="a_node3"><a xlink:href="https://github.com/conda-forge/librdkafka-feedstock/pull/48" xlink:title="librdkafka">
<ellipse fill="#31688e" stroke="black" cx="324.6" cy="-90" rx="59.59" ry="18"/>
<text text-anchor="middle" x="324.6" y="-86.3" font-family="Times,serif" font-size="14.00" fill="white">librdkafka</text>
</a>
</g>
</g>
<!-- librdkafka&#45;&gt;conda&#45;forge&#45;pinning -->
<g id="edge3" class="edge">
<title>librdkafka&#45;&gt;conda&#45;forge&#45;pinning</title>
<path fill="none" stroke="black" d="M352.05,-73.98C370.02,-64.16 393.76,-51.18 413.66,-40.29"/>
<polygon fill="black" stroke="black" points="415.4,-43.33 422.5,-35.46 412.04,-37.19 415.4,-43.33"/>
</g>
<!-- paraview -->
<g id="node4" class="node">
<title>paraview</title>
<g id="a_node4"><a xlink:href="https://github.com/conda-forge/paraview-feedstock/pull/73" xlink:title="paraview">
<ellipse fill="#31688e" stroke="black" cx="452.6" cy="-90" rx="50.09" ry="18"/>
<text text-anchor="middle" x="452.6" y="-86.3" font-family="Times,serif" font-size="14.00" fill="white">paraview</text>
</a>
</g>
</g>
<!-- paraview&#45;&gt;conda&#45;forge&#45;pinning -->
<g id="edge4" class="edge">
<title>paraview&#45;&gt;conda&#45;forge&#45;pinning</title>
<path fill="none" stroke="black" d="M452.6,-71.7C452.6,-63.98 452.6,-54.71 452.6,-46.11"/>
<polygon fill="black" stroke="black" points="456.1,-46.1 452.6,-36.1 449.1,-46.1 456.1,-46.1"/>
</g>
<!-- tiledb -->
<g id="node5" class="node">
<title>tiledb</title>
<g id="a_node5"><a xlink:href="https://github.com/conda-forge/tiledb-feedstock/pull/61" xlink:title="tiledb">
<ellipse fill="#31688e" stroke="black" cx="645.6" cy="-162" rx="40.09" ry="18"/>
<text text-anchor="middle" x="645.6" y="-158.3" font-family="Times,serif" font-size="14.00" fill="white">tiledb</text>
</a>
</g>
</g>
<!-- libtiledb&#45;sql -->
<g id="node7" class="node">
<title>libtiledb&#45;sql</title>
<ellipse fill="#fde725" stroke="black" cx="594.6" cy="-90" rx="74.19" ry="18"/>
<text text-anchor="middle" x="594.6" y="-86.3" font-family="Times,serif" font-size="14.00">libtiledb sql</text>
</g>
<!-- tiledb&#45;&gt;libtiledb&#45;sql -->
<g id="edge5" class="edge">
<title>tiledb&#45;&gt;libtiledb&#45;sql</title>
<path fill="none" stroke="black" d="M633.77,-144.76C627.64,-136.35 620.02,-125.89 613.13,-116.44"/>
<polygon fill="black" stroke="black" points="615.79,-114.15 607.07,-108.12 610.13,-118.27 615.79,-114.15"/>
</g>
<!-- tiledb&#45;&gt;conda&#45;forge&#45;pinning -->
<g id="edge6" class="edge">
<title>tiledb&#45;&gt;conda&#45;forge&#45;pinning</title>
<path fill="none" stroke="black" d="M659.87,-145.03C675.13,-125.95 694.92,-93.88 677.6,-72 661.15,-51.23 601.82,-37.79 548.21,-29.64"/>
<polygon fill="black" stroke="black" points="548.68,-26.17 538.28,-28.18 547.66,-33.09 548.68,-26.17"/>
</g>
<!-- squashfs&#45;tools -->
<g id="node6" class="node">
<title>squashfs&#45;tools</title>
<g id="a_node6"><a xlink:href="https://github.com/conda-forge/squashfs-tools-feedstock/pull/6" xlink:title="squashfs tools">
<ellipse fill="#31688e" stroke="black" cx="803.6" cy="-90" rx="79.09" ry="18"/>
<text text-anchor="middle" x="803.6" y="-86.3" font-family="Times,serif" font-size="14.00" fill="white">squashfs tools</text>
</a>
</g>
</g>
<!-- squashfs&#45;tools&#45;&gt;conda&#45;forge&#45;pinning -->
<g id="edge7" class="edge">
<title>squashfs&#45;tools&#45;&gt;conda&#45;forge&#45;pinning</title>
<path fill="none" stroke="black" d="M746.03,-77.52C686.46,-65.64 593.16,-47.03 527.79,-34"/>
<polygon fill="black" stroke="black" points="528.45,-30.56 517.96,-32.04 527.08,-37.42 528.45,-30.56"/>
</g>
<!-- libtiledb&#45;sql&#45;&gt;conda&#45;forge&#45;pinning -->
<g id="edge8" class="edge">
<title>libtiledb&#45;sql&#45;&gt;conda&#45;forge&#45;pinning</title>
<path fill="none" stroke="black" d="M563.43,-73.64C543.29,-63.71 516.82,-50.66 494.8,-39.8"/>
<polygon fill="black" stroke="black" points="496.18,-36.58 485.66,-35.3 493.08,-42.86 496.18,-36.58"/>
</g>
</g>
</svg>
