<?xml version="1.0" encoding="UTF-8" standalone="no"?>
<!DOCTYPE svg PUBLIC "-//W3C//DTD SVG 1.1//EN"
 "http://www.w3.org/Graphics/SVG/1.1/DTD/svg11.dtd">
<!-- Generated by graphviz version 2.42.3 (20191010.1750)
 -->
<!-- Title: %3 Pages: 1 -->
<svg width="274pt" height="116pt"
 viewBox="0.00 0.00 274.14 116.00" xmlns="http://www.w3.org/2000/svg" xmlns:xlink="http://www.w3.org/1999/xlink">
<g id="graph0" class="graph" transform="scale(1 1) rotate(0) translate(4 112)">
<title>%3</title>
<polygon fill="white" stroke="transparent" points="-4,4 -4,-112 270.14,-112 270.14,4 -4,4"/>
<!-- paraview -->
<g id="node1" class="node">
<title>paraview</title>
<g id="a_node1"><a xlink:href="https://github.com/conda-forge/paraview-feedstock/pull/73" xlink:title="paraview">
<ellipse fill="#31688e" stroke="black" cx="50.05" cy="-90" rx="50.09" ry="18"/>
<text text-anchor="middle" x="50.05" y="-86.3" font-family="Times,serif" font-size="14.00" fill="white">paraview</text>
</a>
</g>
</g>
<!-- conda&#45;forge&#45;pinning -->
<g id="node3" class="node">
<title>conda&#45;forge&#45;pinning</title>
<ellipse fill="none" stroke="black" cx="121.05" cy="-18" rx="103.18" ry="18"/>
<text text-anchor="middle" x="121.05" y="-14.3" font-family="Times,serif" font-size="14.00">conda&#45;forge&#45;pinning</text>
</g>
<!-- paraview&#45;&gt;conda&#45;forge&#45;pinning -->
<g id="edge1" class="edge">
<title>paraview&#45;&gt;conda&#45;forge&#45;pinning</title>
<path fill="none" stroke="black" d="M66.51,-72.76C75.39,-64.01 86.53,-53.03 96.42,-43.28"/>
<polygon fill="black" stroke="black" points="99.01,-45.64 103.68,-36.12 94.1,-40.65 99.01,-45.64"/>
</g>
<!-- libtiledb&#45;sql -->
<g id="node2" class="node">
<title>libtiledb&#45;sql</title>
<g id="a_node2"><a xlink:href="https://github.com/conda-forge/libtiledb-sql-feedstock/pull/14" xlink:title="libtiledb sql">
<ellipse fill="#31688e" stroke="black" cx="192.05" cy="-90" rx="74.19" ry="18"/>
<text text-anchor="middle" x="192.05" y="-86.3" font-family="Times,serif" font-size="14.00" fill="white">libtiledb sql</text>
</a>
</g>
</g>
<!-- libtiledb&#45;sql&#45;&gt;conda&#45;forge&#45;pinning -->
<g id="edge2" class="edge">
<title>libtiledb&#45;sql&#45;&gt;conda&#45;forge&#45;pinning</title>
<path fill="none" stroke="black" d="M175.22,-72.41C166.33,-63.65 155.26,-52.73 145.45,-43.06"/>
<polygon fill="black" stroke="black" points="147.82,-40.48 138.24,-35.96 142.91,-45.47 147.82,-40.48"/>
</g>
</g>
</svg>
