<?xml version="1.0" encoding="UTF-8" standalone="no"?>
<!DOCTYPE svg PUBLIC "-//W3C//DTD SVG 1.1//EN"
 "http://www.w3.org/Graphics/SVG/1.1/DTD/svg11.dtd">
<!-- Generated by graphviz version 2.40.1 (20161225.0304)
 -->
<!-- Title: %3 Pages: 1 -->
<svg width="544pt" height="116pt"
 viewBox="0.00 0.00 543.59 116.00" xmlns="http://www.w3.org/2000/svg" xmlns:xlink="http://www.w3.org/1999/xlink">
<g id="graph0" class="graph" transform="scale(1 1) rotate(0) translate(4 112)">
<title>%3</title>
<polygon fill="#ffffff" stroke="transparent" points="-4,4 -4,-112 539.5928,-112 539.5928,4 -4,4"/>
<!-- esmf -->
<g id="node1" class="node">
<title>esmf</title>
<ellipse fill="#31688e" stroke="#000000" cx="30.5473" cy="-90" rx="30.5947" ry="18"/>
<text text-anchor="middle" x="30.5473" y="-86.3" font-family="Times,serif" font-size="14.00" fill="#ffffff">esmf</text>
</g>
<!-- hyperion&#45;fortran -->
<g id="node2" class="node">
<title>hyperion&#45;fortran</title>
<ellipse fill="#31688e" stroke="#000000" cx="168.5473" cy="-90" rx="89.0842" ry="18"/>
<text text-anchor="middle" x="168.5473" y="-86.3" font-family="Times,serif" font-size="14.00" fill="#ffffff">hyperion fortran</text>
</g>
<!-- hypre -->
<g id="node3" class="node">
<title>hypre</title>
<ellipse fill="#31688e" stroke="#000000" cx="310.5473" cy="-90" rx="35.194" ry="18"/>
<text text-anchor="middle" x="310.5473" y="-86.3" font-family="Times,serif" font-size="14.00" fill="#ffffff">hypre</text>
</g>
<!-- daetk -->
<g id="node6" class="node">
<title>daetk</title>
<ellipse fill="#fde725" stroke="#000000" cx="310.5473" cy="-18" rx="35.194" ry="18"/>
<text text-anchor="middle" x="310.5473" y="-14.3" font-family="Times,serif" font-size="14.00" fill="#000000">daetk</text>
</g>
<!-- hypre&#45;&gt;daetk -->
<g id="edge1" class="edge">
<title>hypre&#45;&gt;daetk</title>
<path fill="none" stroke="#000000" d="M310.5473,-71.8314C310.5473,-64.131 310.5473,-54.9743 310.5473,-46.4166"/>
<polygon fill="#000000" stroke="#000000" points="314.0474,-46.4132 310.5473,-36.4133 307.0474,-46.4133 314.0474,-46.4132"/>
</g>
<!-- vic -->
<g id="node4" class="node">
<title>vic</title>
<ellipse fill="#31688e" stroke="#000000" cx="390.5473" cy="-90" rx="27" ry="18"/>
<text text-anchor="middle" x="390.5473" y="-86.3" font-family="Times,serif" font-size="14.00" fill="#ffffff">vic</text>
</g>
<!-- triangle -->
<g id="node5" class="node">
<title>triangle</title>
<ellipse fill="#31688e" stroke="#000000" cx="485.5473" cy="-90" rx="50.0912" ry="18"/>
<text text-anchor="middle" x="485.5473" y="-86.3" font-family="Times,serif" font-size="14.00" fill="#ffffff">triangle</text>
</g>
</g>
</svg>
