<?xml version="1.0" encoding="UTF-8" standalone="no"?>
<!DOCTYPE svg PUBLIC "-//W3C//DTD SVG 1.1//EN"
 "http://www.w3.org/Graphics/SVG/1.1/DTD/svg11.dtd">
<!-- Generated by graphviz version 2.40.1 (20161225.0304)
 -->
<!-- Title: %3 Pages: 1 -->
<svg width="1203pt" height="116pt"
 viewBox="0.00 0.00 1202.84 116.00" xmlns="http://www.w3.org/2000/svg" xmlns:xlink="http://www.w3.org/1999/xlink">
<g id="graph0" class="graph" transform="scale(1 1) rotate(0) translate(4 112)">
<title>%3</title>
<polygon fill="#ffffff" stroke="transparent" points="-4,4 -4,-112 1198.8437,-112 1198.8437,4 -4,4"/>
<!-- esmf -->
<g id="node1" class="node">
<title>esmf</title>
<ellipse fill="#31688e" stroke="#000000" cx="30.5473" cy="-90" rx="30.5947" ry="18"/>
<text text-anchor="middle" x="30.5473" y="-86.3" font-family="Times,serif" font-size="14.00" fill="#ffffff">esmf</text>
</g>
<!-- hyperion&#45;fortran -->
<g id="node2" class="node">
<title>hyperion&#45;fortran</title>
<ellipse fill="#35b779" stroke="#000000" cx="168.5473" cy="-90" rx="89.0842" ry="18"/>
<text text-anchor="middle" x="168.5473" y="-86.3" font-family="Times,serif" font-size="14.00" fill="#000000">hyperion fortran</text>
</g>
<!-- libadjoint -->
<g id="node3" class="node">
<title>libadjoint</title>
<ellipse fill="#fde725" stroke="#000000" cx="310.5473" cy="-18" rx="59.5901" ry="18"/>
<text text-anchor="middle" x="310.5473" y="-14.3" font-family="Times,serif" font-size="14.00" fill="#000000">libadjoint</text>
</g>
<!-- pytrilinos -->
<g id="node4" class="node">
<title>pytrilinos</title>
<ellipse fill="#35b779" stroke="#000000" cx="423.5473" cy="-90" rx="59.5901" ry="18"/>
<text text-anchor="middle" x="423.5473" y="-86.3" font-family="Times,serif" font-size="14.00" fill="#000000">pytrilinos</text>
</g>
<!-- vic -->
<g id="node5" class="node">
<title>vic</title>
<ellipse fill="#35b779" stroke="#000000" cx="528.5473" cy="-90" rx="27" ry="18"/>
<text text-anchor="middle" x="528.5473" y="-86.3" font-family="Times,serif" font-size="14.00" fill="#000000">vic</text>
</g>
<!-- petsc -->
<g id="node6" class="node">
<title>petsc</title>
<ellipse fill="#35b779" stroke="#000000" cx="310.5473" cy="-90" rx="35.194" ry="18"/>
<text text-anchor="middle" x="310.5473" y="-86.3" font-family="Times,serif" font-size="14.00" fill="#000000">petsc</text>
</g>
<!-- petsc&#45;&gt;libadjoint -->
<g id="edge1" class="edge">
<title>petsc&#45;&gt;libadjoint</title>
<path fill="none" stroke="#000000" d="M310.5473,-71.8314C310.5473,-64.131 310.5473,-54.9743 310.5473,-46.4166"/>
<polygon fill="#000000" stroke="#000000" points="314.0474,-46.4132 310.5473,-36.4133 307.0474,-46.4133 314.0474,-46.4132"/>
</g>
<!-- multinest -->
<g id="node7" class="node">
<title>multinest</title>
<ellipse fill="#35b779" stroke="#000000" cx="628.5473" cy="-90" rx="54.6905" ry="18"/>
<text text-anchor="middle" x="628.5473" y="-86.3" font-family="Times,serif" font-size="14.00" fill="#000000">multinest</text>
</g>
<!-- triangle -->
<g id="node8" class="node">
<title>triangle</title>
<ellipse fill="#35b779" stroke="#000000" cx="751.5473" cy="-90" rx="50.0912" ry="18"/>
<text text-anchor="middle" x="751.5473" y="-86.3" font-family="Times,serif" font-size="14.00" fill="#000000">triangle</text>
</g>
<!-- adaptive&#45;scheduler -->
<g id="node9" class="node">
<title>adaptive&#45;scheduler</title>
<ellipse fill="#35b779" stroke="#000000" cx="918.5473" cy="-90" rx="98.5829" ry="18"/>
<text text-anchor="middle" x="918.5473" y="-86.3" font-family="Times,serif" font-size="14.00" fill="#000000">adaptive scheduler</text>
</g>
<!-- lfpy -->
<g id="node10" class="node">
<title>lfpy</title>
<ellipse fill="#35b779" stroke="#000000" cx="1065.5473" cy="-90" rx="30.5947" ry="18"/>
<text text-anchor="middle" x="1065.5473" y="-86.3" font-family="Times,serif" font-size="14.00" fill="#000000">lfpy</text>
</g>
<!-- zoltan -->
<g id="node11" class="node">
<title>zoltan</title>
<ellipse fill="#35b779" stroke="#000000" cx="1154.5473" cy="-90" rx="40.0939" ry="18"/>
<text text-anchor="middle" x="1154.5473" y="-86.3" font-family="Times,serif" font-size="14.00" fill="#000000">zoltan</text>
</g>
<!-- scorec -->
<g id="node12" class="node">
<title>scorec</title>
<ellipse fill="#fde725" stroke="#000000" cx="1154.5473" cy="-18" rx="40.0939" ry="18"/>
<text text-anchor="middle" x="1154.5473" y="-14.3" font-family="Times,serif" font-size="14.00" fill="#000000">scorec</text>
</g>
<!-- zoltan&#45;&gt;scorec -->
<g id="edge2" class="edge">
<title>zoltan&#45;&gt;scorec</title>
<path fill="none" stroke="#000000" d="M1154.5473,-71.8314C1154.5473,-64.131 1154.5473,-54.9743 1154.5473,-46.4166"/>
<polygon fill="#000000" stroke="#000000" points="1158.0474,-46.4132 1154.5473,-36.4133 1151.0474,-46.4133 1158.0474,-46.4132"/>
</g>
</g>
</svg>
