<?xml version="1.0" encoding="UTF-8" standalone="no"?>
<!DOCTYPE svg PUBLIC "-//W3C//DTD SVG 1.1//EN"
 "http://www.w3.org/Graphics/SVG/1.1/DTD/svg11.dtd">
<!-- Generated by graphviz version 2.40.1 (20161225.0304)
 -->
<!-- Title: %3 Pages: 1 -->
<svg width="464pt" height="116pt"
 viewBox="0.00 0.00 464.09 116.00" xmlns="http://www.w3.org/2000/svg" xmlns:xlink="http://www.w3.org/1999/xlink">
<g id="graph0" class="graph" transform="scale(1 1) rotate(0) translate(4 112)">
<title>%3</title>
<polygon fill="#ffffff" stroke="transparent" points="-4,4 -4,-112 460.0877,-112 460.0877,4 -4,4"/>
<!-- hyperion&#45;fortran -->
<g id="node1" class="node">
<title>hyperion&#45;fortran</title>
<ellipse fill="#31688e" stroke="#000000" cx="89.0421" cy="-90" rx="89.0842" ry="18"/>
<text text-anchor="middle" x="89.0421" y="-86.3" font-family="Times,serif" font-size="14.00" fill="#ffffff">hyperion fortran</text>
</g>
<!-- hypre -->
<g id="node2" class="node">
<title>hypre</title>
<ellipse fill="#31688e" stroke="#000000" cx="231.0421" cy="-90" rx="35.194" ry="18"/>
<text text-anchor="middle" x="231.0421" y="-86.3" font-family="Times,serif" font-size="14.00" fill="#ffffff">hypre</text>
</g>
<!-- daetk -->
<g id="node5" class="node">
<title>daetk</title>
<ellipse fill="#fde725" stroke="#000000" cx="231.0421" cy="-18" rx="35.194" ry="18"/>
<text text-anchor="middle" x="231.0421" y="-14.3" font-family="Times,serif" font-size="14.00" fill="#000000">daetk</text>
</g>
<!-- hypre&#45;&gt;daetk -->
<g id="edge1" class="edge">
<title>hypre&#45;&gt;daetk</title>
<path fill="none" stroke="#000000" d="M231.0421,-71.8314C231.0421,-64.131 231.0421,-54.9743 231.0421,-46.4166"/>
<polygon fill="#000000" stroke="#000000" points="234.5422,-46.4132 231.0421,-36.4133 227.5422,-46.4133 234.5422,-46.4132"/>
</g>
<!-- vic -->
<g id="node3" class="node">
<title>vic</title>
<ellipse fill="#31688e" stroke="#000000" cx="311.0421" cy="-90" rx="27" ry="18"/>
<text text-anchor="middle" x="311.0421" y="-86.3" font-family="Times,serif" font-size="14.00" fill="#ffffff">vic</text>
</g>
<!-- triangle -->
<g id="node4" class="node">
<title>triangle</title>
<ellipse fill="#31688e" stroke="#000000" cx="406.0421" cy="-90" rx="50.0912" ry="18"/>
<text text-anchor="middle" x="406.0421" y="-86.3" font-family="Times,serif" font-size="14.00" fill="#ffffff">triangle</text>
</g>
</g>
</svg>
