<?xml version="1.0" encoding="UTF-8" standalone="no"?>
<!DOCTYPE svg PUBLIC "-//W3C//DTD SVG 1.1//EN"
 "http://www.w3.org/Graphics/SVG/1.1/DTD/svg11.dtd">
<!-- Generated by graphviz version 2.42.3 (20191010.1750)
 -->
<!-- Title: %3 Pages: 1 -->
<svg width="317pt" height="260pt"
 viewBox="0.00 0.00 317.14 260.00" xmlns="http://www.w3.org/2000/svg" xmlns:xlink="http://www.w3.org/1999/xlink">
<g id="graph0" class="graph" transform="scale(1 1) rotate(0) translate(4 256)">
<title>%3</title>
<polygon fill="white" stroke="transparent" points="-4,4 -4,-256 313.14,-256 313.14,4 -4,4"/>
<!-- eclib -->
<g id="node1" class="node">
<title>eclib</title>
<g id="a_node1"><a xlink:href="https://github.com/conda-forge/eclib-feedstock/pull/17" xlink:title="eclib">
<ellipse fill="#31688e" stroke="black" cx="35.1" cy="-162" rx="35.19" ry="18"/>
<text text-anchor="middle" x="35.1" y="-158.3" font-family="Times,serif" font-size="14.00" fill="white">eclib</text>
</a>
</g>
</g>
<!-- sagelib -->
<g id="node4" class="node">
<title>sagelib</title>
<g id="a_node4"><a xlink:href="https://github.com/conda-forge/sagelib-feedstock" xlink:title="sagelib">
<ellipse fill="#fde725" stroke="black" cx="191.1" cy="-90" rx="44.69" ry="18"/>
<text text-anchor="middle" x="191.1" y="-86.3" font-family="Times,serif" font-size="14.00">sagelib</text>
</a>
</g>
</g>
<!-- eclib&#45;&gt;sagelib -->
<g id="edge1" class="edge">
<title>eclib&#45;&gt;sagelib</title>
<path fill="none" stroke="black" d="M60.86,-149.44C85.97,-138.17 124.46,-120.9 153.09,-108.06"/>
<polygon fill="black" stroke="black" points="154.69,-111.17 162.38,-103.88 151.83,-104.78 154.69,-111.17"/>
</g>
<!-- conda&#45;forge&#45;pinning -->
<g id="node6" class="node">
<title>conda&#45;forge&#45;pinning</title>
<ellipse fill="none" stroke="black" cx="191.1" cy="-18" rx="103.18" ry="18"/>
<text text-anchor="middle" x="191.1" y="-14.3" font-family="Times,serif" font-size="14.00">conda&#45;forge&#45;pinning</text>
</g>
<!-- eclib&#45;&gt;conda&#45;forge&#45;pinning -->
<g id="edge2" class="edge">
<title>eclib&#45;&gt;conda&#45;forge&#45;pinning</title>
<path fill="none" stroke="black" d="M49.7,-145.33C66.92,-127.11 96.68,-96.41 124.1,-72 135.6,-61.76 148.79,-51.11 160.41,-42.07"/>
<polygon fill="black" stroke="black" points="162.76,-44.68 168.54,-35.8 158.48,-39.13 162.76,-44.68"/>
</g>
<!-- linbox -->
<g id="node2" class="node">
<title>linbox</title>
<g id="a_node2"><a xlink:href="https://github.com/conda-forge/linbox-feedstock/pull/20" xlink:title="linbox">
<ellipse fill="#31688e" stroke="black" cx="128.1" cy="-162" rx="40.09" ry="18"/>
<text text-anchor="middle" x="128.1" y="-158.3" font-family="Times,serif" font-size="14.00" fill="white">linbox</text>
</a>
</g>
</g>
<!-- linbox&#45;&gt;sagelib -->
<g id="edge3" class="edge">
<title>linbox&#45;&gt;sagelib</title>
<path fill="none" stroke="black" d="M142.39,-145.12C150.41,-136.2 160.58,-124.91 169.55,-114.94"/>
<polygon fill="black" stroke="black" points="172.33,-117.08 176.42,-107.31 167.13,-112.4 172.33,-117.08"/>
</g>
<!-- linbox&#45;&gt;conda&#45;forge&#45;pinning -->
<g id="edge4" class="edge">
<title>linbox&#45;&gt;conda&#45;forge&#45;pinning</title>
<path fill="none" stroke="black" d="M126.49,-144.01C125.47,-125.39 126,-95.1 137.1,-72 142.42,-60.92 151.07,-50.86 159.9,-42.55"/>
<polygon fill="black" stroke="black" points="162.45,-44.96 167.63,-35.72 157.81,-39.72 162.45,-44.96"/>
</g>
<!-- pynac -->
<g id="node3" class="node">
<title>pynac</title>
<g id="a_node3"><a xlink:href="https://github.com/conda-forge/pynac-feedstock" xlink:title="pynac">
<ellipse fill="#fde725" stroke="black" cx="259.1" cy="-162" rx="35.19" ry="18"/>
<text text-anchor="middle" x="259.1" y="-158.3" font-family="Times,serif" font-size="14.00">pynac</text>
</a>
</g>
</g>
<!-- pynac&#45;&gt;sagelib -->
<g id="edge5" class="edge">
<title>pynac&#45;&gt;sagelib</title>
<path fill="none" stroke="black" d="M244.01,-145.46C235.15,-136.35 223.79,-124.65 213.86,-114.43"/>
<polygon fill="black" stroke="black" points="216.1,-111.71 206.62,-106.98 211.07,-116.59 216.1,-111.71"/>
</g>
<!-- pynac&#45;&gt;conda&#45;forge&#45;pinning -->
<g id="edge6" class="edge">
<title>pynac&#45;&gt;conda&#45;forge&#45;pinning</title>
<path fill="none" stroke="black" d="M259.53,-143.96C259.31,-125.29 256.91,-94.95 245.1,-72 239.42,-60.98 230.6,-50.88 221.71,-42.53"/>
<polygon fill="black" stroke="black" points="223.77,-39.67 213.97,-35.65 219.12,-44.91 223.77,-39.67"/>
</g>
<!-- sagelib&#45;&gt;conda&#45;forge&#45;pinning -->
<g id="edge7" class="edge">
<title>sagelib&#45;&gt;conda&#45;forge&#45;pinning</title>
<path fill="none" stroke="black" d="M191.1,-71.7C191.1,-63.98 191.1,-54.71 191.1,-46.11"/>
<polygon fill="black" stroke="black" points="194.6,-46.1 191.1,-36.1 187.6,-46.1 194.6,-46.1"/>
</g>
<!-- singular -->
<g id="node5" class="node">
<title>singular</title>
<g id="a_node5"><a xlink:href="https://github.com/conda-forge/singular-feedstock/pull/12" xlink:title="singular">
<ellipse fill="#31688e" stroke="black" cx="259.1" cy="-234" rx="50.09" ry="18"/>
<text text-anchor="middle" x="259.1" y="-230.3" font-family="Times,serif" font-size="14.00" fill="white">singular</text>
</a>
</g>
</g>
<!-- singular&#45;&gt;pynac -->
<g id="edge8" class="edge">
<title>singular&#45;&gt;pynac</title>
<path fill="none" stroke="black" d="M259.1,-215.7C259.1,-207.98 259.1,-198.71 259.1,-190.11"/>
<polygon fill="black" stroke="black" points="262.6,-190.1 259.1,-180.1 255.6,-190.1 262.6,-190.1"/>
</g>
<!-- singular&#45;&gt;sagelib -->
<g id="edge9" class="edge">
<title>singular&#45;&gt;sagelib</title>
<path fill="none" stroke="black" d="M242.38,-216.69C233.14,-206.84 222.14,-193.59 215.1,-180 205,-160.52 198.84,-136.38 195.29,-118.16"/>
<polygon fill="black" stroke="black" points="198.71,-117.41 193.49,-108.19 191.82,-118.66 198.71,-117.41"/>
</g>
<!-- singular&#45;&gt;conda&#45;forge&#45;pinning -->
<g id="edge10" class="edge">
<title>singular&#45;&gt;conda&#45;forge&#45;pinning</title>
<path fill="none" stroke="black" d="M277.65,-216.84C287.24,-207.23 297.98,-194.17 303.1,-180 308.53,-164.95 306.94,-159.53 303.1,-144 294.4,-108.88 288.89,-99.26 265.1,-72 254.8,-60.2 241.38,-49.59 228.8,-41.02"/>
<polygon fill="black" stroke="black" points="230.56,-37.98 220.28,-35.42 226.72,-43.84 230.56,-37.98"/>
</g>
</g>
</svg>
