<?xml version="1.0" encoding="UTF-8" standalone="no"?>
<!DOCTYPE svg PUBLIC "-//W3C//DTD SVG 1.1//EN"
 "http://www.w3.org/Graphics/SVG/1.1/DTD/svg11.dtd">
<!-- Generated by graphviz version 2.42.3 (20191010.1750)
 -->
<!-- Title: %3 Pages: 1 -->
<svg width="549pt" height="332pt"
 viewBox="0.00 0.00 548.90 332.00" xmlns="http://www.w3.org/2000/svg" xmlns:xlink="http://www.w3.org/1999/xlink">
<g id="graph0" class="graph" transform="scale(1 1) rotate(0) translate(4 328)">
<title>%3</title>
<polygon fill="white" stroke="transparent" points="-4,4 -4,-328 544.9,-328 544.9,4 -4,4"/>
<!-- eclib -->
<g id="node1" class="node">
<title>eclib</title>
<g id="a_node1"><a xlink:href="https://github.com/conda-forge/eclib-feedstock" xlink:title="eclib">
<ellipse fill="#fde725" stroke="black" cx="167.05" cy="-234" rx="35.19" ry="18"/>
<text text-anchor="middle" x="167.05" y="-230.3" font-family="Times,serif" font-size="14.00">eclib</text>
</a>
</g>
</g>
<!-- sagelib -->
<g id="node6" class="node">
<title>sagelib</title>
<g id="a_node6"><a xlink:href="https://github.com/conda-forge/sagelib-feedstock" xlink:title="sagelib">
<ellipse fill="#fde725" stroke="black" cx="230.05" cy="-90" rx="44.69" ry="18"/>
<text text-anchor="middle" x="230.05" y="-86.3" font-family="Times,serif" font-size="14.00">sagelib</text>
</a>
</g>
</g>
<!-- eclib&#45;&gt;sagelib -->
<g id="edge1" class="edge">
<title>eclib&#45;&gt;sagelib</title>
<path fill="none" stroke="black" d="M174.53,-216.15C185.37,-191.71 205.58,-146.17 218.39,-117.29"/>
<polygon fill="black" stroke="black" points="221.73,-118.39 222.59,-107.82 215.33,-115.55 221.73,-118.39"/>
</g>
<!-- conda&#45;forge&#45;pinning -->
<g id="node9" class="node">
<title>conda&#45;forge&#45;pinning</title>
<ellipse fill="none" stroke="black" cx="192.05" cy="-18" rx="103.18" ry="18"/>
<text text-anchor="middle" x="192.05" y="-14.3" font-family="Times,serif" font-size="14.00">conda&#45;forge&#45;pinning</text>
</g>
<!-- eclib&#45;&gt;conda&#45;forge&#45;pinning -->
<g id="edge2" class="edge">
<title>eclib&#45;&gt;conda&#45;forge&#45;pinning</title>
<path fill="none" stroke="black" d="M166.69,-215.93C166.35,-186.36 166.92,-123.83 176.05,-72 177.57,-63.39 180.03,-54.2 182.57,-45.94"/>
<polygon fill="black" stroke="black" points="185.91,-47 185.66,-36.41 179.25,-44.85 185.91,-47"/>
</g>
<!-- giac -->
<g id="node2" class="node">
<title>giac</title>
<g id="a_node2"><a xlink:href="https://github.com/conda-forge/giac-feedstock/pull/18" xlink:title="giac">
<ellipse fill="#31688e" stroke="black" cx="59.05" cy="-90" rx="30.59" ry="18"/>
<text text-anchor="middle" x="59.05" y="-86.3" font-family="Times,serif" font-size="14.00" fill="white">giac</text>
</a>
</g>
</g>
<!-- giac&#45;&gt;conda&#45;forge&#45;pinning -->
<g id="edge3" class="edge">
<title>giac&#45;&gt;conda&#45;forge&#45;pinning</title>
<path fill="none" stroke="black" d="M81.02,-77.44C100.3,-67.29 128.82,-52.28 152.13,-40.01"/>
<polygon fill="black" stroke="black" points="153.88,-43.05 161.1,-35.29 150.62,-36.85 153.88,-43.05"/>
</g>
<!-- libflint -->
<g id="node3" class="node">
<title>libflint</title>
<g id="a_node3"><a xlink:href="https://github.com/conda-forge/libflint-feedstock/pull/11" xlink:title="libflint">
<ellipse fill="#31688e" stroke="black" cx="198.05" cy="-306" rx="50.09" ry="18"/>
<text text-anchor="middle" x="198.05" y="-302.3" font-family="Times,serif" font-size="14.00" fill="white">libflint</text>
</a>
</g>
</g>
<!-- libflint&#45;&gt;eclib -->
<g id="edge4" class="edge">
<title>libflint&#45;&gt;eclib</title>
<path fill="none" stroke="black" d="M190.55,-288.05C186.97,-279.97 182.61,-270.12 178.62,-261.11"/>
<polygon fill="black" stroke="black" points="181.74,-259.52 174.49,-251.79 175.34,-262.35 181.74,-259.52"/>
</g>
<!-- linbox -->
<g id="node4" class="node">
<title>linbox</title>
<g id="a_node4"><a xlink:href="https://github.com/conda-forge/linbox-feedstock" xlink:title="linbox">
<ellipse fill="#fde725" stroke="black" cx="87.05" cy="-162" rx="40.09" ry="18"/>
<text text-anchor="middle" x="87.05" y="-158.3" font-family="Times,serif" font-size="14.00">linbox</text>
</a>
</g>
</g>
<!-- libflint&#45;&gt;linbox -->
<g id="edge5" class="edge">
<title>libflint&#45;&gt;linbox</title>
<path fill="none" stroke="black" d="M170.42,-290.71C154.77,-281.45 135.83,-268.12 123.05,-252 108.56,-233.7 99.15,-208.78 93.6,-189.97"/>
<polygon fill="black" stroke="black" points="96.94,-188.93 90.9,-180.22 90.19,-190.8 96.94,-188.93"/>
</g>
<!-- pynac -->
<g id="node5" class="node">
<title>pynac</title>
<g id="a_node5"><a xlink:href="https://github.com/conda-forge/pynac-feedstock" xlink:title="pynac">
<ellipse fill="#fde725" stroke="black" cx="370.05" cy="-162" rx="35.19" ry="18"/>
<text text-anchor="middle" x="370.05" y="-158.3" font-family="Times,serif" font-size="14.00">pynac</text>
</a>
</g>
</g>
<!-- libflint&#45;&gt;pynac -->
<g id="edge6" class="edge">
<title>libflint&#45;&gt;pynac</title>
<path fill="none" stroke="black" d="M247.8,-304.04C286.97,-300.36 339.41,-288.34 367.05,-252 380.32,-234.56 379.82,-209.14 376.72,-189.94"/>
<polygon fill="black" stroke="black" points="380.14,-189.15 374.81,-179.99 373.26,-190.47 380.14,-189.15"/>
</g>
<!-- libflint&#45;&gt;sagelib -->
<g id="edge7" class="edge">
<title>libflint&#45;&gt;sagelib</title>
<path fill="none" stroke="black" d="M202.81,-287.93C205.54,-277.6 208.86,-264.12 211.05,-252 219.48,-205.42 225.04,-150.56 227.86,-118.4"/>
<polygon fill="black" stroke="black" points="231.38,-118.28 228.74,-108.02 224.4,-117.69 231.38,-118.28"/>
</g>
<!-- singular -->
<g id="node7" class="node">
<title>singular</title>
<g id="a_node7"><a xlink:href="https://github.com/conda-forge/singular-feedstock" xlink:title="singular">
<ellipse fill="#fde725" stroke="black" cx="308.05" cy="-234" rx="50.09" ry="18"/>
<text text-anchor="middle" x="308.05" y="-230.3" font-family="Times,serif" font-size="14.00">singular</text>
</a>
</g>
</g>
<!-- libflint&#45;&gt;singular -->
<g id="edge8" class="edge">
<title>libflint&#45;&gt;singular</title>
<path fill="none" stroke="black" d="M221.65,-289.98C237.46,-279.93 258.46,-266.56 275.81,-255.52"/>
<polygon fill="black" stroke="black" points="277.94,-258.31 284.5,-249.99 274.18,-252.41 277.94,-258.31"/>
</g>
<!-- libflint&#45;&gt;conda&#45;forge&#45;pinning -->
<g id="edge9" class="edge">
<title>libflint&#45;&gt;conda&#45;forge&#45;pinning</title>
<path fill="none" stroke="black" d="M166.7,-291.65C146.53,-282.22 120.39,-268.38 100.05,-252 31.72,-196.99 -33.11,-142.53 19.05,-72 35.77,-49.39 61.95,-36.12 88.93,-28.41"/>
<polygon fill="black" stroke="black" points="90.09,-31.72 98.88,-25.81 88.32,-24.95 90.09,-31.72"/>
</g>
<!-- linbox&#45;&gt;sagelib -->
<g id="edge10" class="edge">
<title>linbox&#45;&gt;sagelib</title>
<path fill="none" stroke="black" d="M113.28,-148.16C135.73,-137.17 168.3,-121.23 193.34,-108.97"/>
<polygon fill="black" stroke="black" points="195.09,-112.01 202.53,-104.47 192.01,-105.73 195.09,-112.01"/>
</g>
<!-- linbox&#45;&gt;conda&#45;forge&#45;pinning -->
<g id="edge11" class="edge">
<title>linbox&#45;&gt;conda&#45;forge&#45;pinning</title>
<path fill="none" stroke="black" d="M96.04,-144.27C106.23,-125.87 123.8,-95.77 142.05,-72 149.68,-62.07 158.89,-51.89 167.31,-43.14"/>
<polygon fill="black" stroke="black" points="169.94,-45.46 174.45,-35.87 164.95,-40.55 169.94,-45.46"/>
</g>
<!-- pynac&#45;&gt;sagelib -->
<g id="edge12" class="edge">
<title>pynac&#45;&gt;sagelib</title>
<path fill="none" stroke="black" d="M345.67,-148.81C323.72,-137.83 291.16,-121.56 266.19,-109.07"/>
<polygon fill="black" stroke="black" points="267.54,-105.83 257.03,-104.49 264.41,-112.09 267.54,-105.83"/>
</g>
<!-- pynac&#45;&gt;conda&#45;forge&#45;pinning -->
<g id="edge13" class="edge">
<title>pynac&#45;&gt;conda&#45;forge&#45;pinning</title>
<path fill="none" stroke="black" d="M364.63,-144.03C357.52,-124.28 343.29,-91.85 321.05,-72 303.27,-56.13 280.09,-44.63 258.3,-36.48"/>
<polygon fill="black" stroke="black" points="259.33,-33.13 248.73,-33.08 256.98,-39.73 259.33,-33.13"/>
</g>
<!-- sagelib&#45;&gt;conda&#45;forge&#45;pinning -->
<g id="edge14" class="edge">
<title>sagelib&#45;&gt;conda&#45;forge&#45;pinning</title>
<path fill="none" stroke="black" d="M220.86,-72.05C216.49,-64.01 211.16,-54.2 206.29,-45.23"/>
<polygon fill="black" stroke="black" points="209.28,-43.39 201.43,-36.28 203.13,-46.73 209.28,-43.39"/>
</g>
<!-- singular&#45;&gt;pynac -->
<g id="edge15" class="edge">
<title>singular&#45;&gt;pynac</title>
<path fill="none" stroke="black" d="M322.75,-216.41C330.66,-207.48 340.55,-196.31 349.24,-186.5"/>
<polygon fill="black" stroke="black" points="351.88,-188.79 355.89,-178.99 346.64,-184.15 351.88,-188.79"/>
</g>
<!-- singular&#45;&gt;sagelib -->
<g id="edge16" class="edge">
<title>singular&#45;&gt;sagelib</title>
<path fill="none" stroke="black" d="M298.8,-216.15C285.31,-191.6 260.14,-145.77 244.29,-116.91"/>
<polygon fill="black" stroke="black" points="247.18,-114.9 239.3,-107.82 241.04,-118.27 247.18,-114.9"/>
</g>
<!-- singular&#45;&gt;conda&#45;forge&#45;pinning -->
<g id="edge17" class="edge">
<title>singular&#45;&gt;conda&#45;forge&#45;pinning</title>
<path fill="none" stroke="black" d="M310.08,-215.76C312.85,-184.27 314.45,-116.61 284.05,-72 274.51,-58 259.96,-47.22 245.23,-39.15"/>
<polygon fill="black" stroke="black" points="246.57,-35.91 236.08,-34.47 243.39,-42.14 246.57,-35.91"/>
</g>
<!-- latte&#45;integrale -->
<g id="node8" class="node">
<title>latte&#45;integrale</title>
<g id="a_node8"><a xlink:href="https://github.com/conda-forge/latte-integrale-feedstock/pull/2" xlink:title="latte integrale">
<ellipse fill="#31688e" stroke="black" cx="457.05" cy="-90" rx="83.69" ry="18"/>
<text text-anchor="middle" x="457.05" y="-86.3" font-family="Times,serif" font-size="14.00" fill="white">latte integrale</text>
</a>
</g>
</g>
<!-- latte&#45;integrale&#45;&gt;conda&#45;forge&#45;pinning -->
<g id="edge18" class="edge">
<title>latte&#45;integrale&#45;&gt;conda&#45;forge&#45;pinning</title>
<path fill="none" stroke="black" d="M406.27,-75.59C363.57,-64.31 302.28,-48.12 256.2,-35.94"/>
<polygon fill="black" stroke="black" points="256.87,-32.5 246.31,-33.33 255.08,-39.27 256.87,-32.5"/>
</g>
</g>
</svg>
