<?xml version="1.0" encoding="UTF-8" standalone="no"?>
<!DOCTYPE svg PUBLIC "-//W3C//DTD SVG 1.1//EN"
 "http://www.w3.org/Graphics/SVG/1.1/DTD/svg11.dtd">
<!-- Generated by graphviz version 2.42.3 (20191010.1750)
 -->
<!-- Title: %3 Pages: 1 -->
<svg width="215pt" height="188pt"
 viewBox="0.00 0.00 214.68 188.00" xmlns="http://www.w3.org/2000/svg" xmlns:xlink="http://www.w3.org/1999/xlink">
<g id="graph0" class="graph" transform="scale(1 1) rotate(0) translate(4 184)">
<title>%3</title>
<polygon fill="white" stroke="transparent" points="-4,4 -4,-184 210.68,-184 210.68,4 -4,4"/>
<!-- linbox -->
<g id="node1" class="node">
<title>linbox</title>
<g id="a_node1"><a xlink:href="https://github.com/conda-forge/linbox-feedstock/pull/20" xlink:title="linbox">
<ellipse fill="#31688e" stroke="black" cx="103.34" cy="-162" rx="40.09" ry="18"/>
<text text-anchor="middle" x="103.34" y="-158.3" font-family="Times,serif" font-size="14.00" fill="white">linbox</text>
</a>
</g>
</g>
<!-- sagelib -->
<g id="node2" class="node">
<title>sagelib</title>
<g id="a_node2"><a xlink:href="https://github.com/conda-forge/sagelib-feedstock" xlink:title="sagelib">
<ellipse fill="#fde725" stroke="black" cx="67.34" cy="-90" rx="44.69" ry="18"/>
<text text-anchor="middle" x="67.34" y="-86.3" font-family="Times,serif" font-size="14.00">sagelib</text>
</a>
</g>
</g>
<!-- linbox&#45;&gt;sagelib -->
<g id="edge1" class="edge">
<title>linbox&#45;&gt;sagelib</title>
<path fill="none" stroke="black" d="M94.63,-144.05C90.43,-135.89 85.3,-125.91 80.62,-116.82"/>
<polygon fill="black" stroke="black" points="83.66,-115.08 75.98,-107.79 77.44,-118.28 83.66,-115.08"/>
</g>
<!-- conda&#45;forge&#45;pinning -->
<g id="node3" class="node">
<title>conda&#45;forge&#45;pinning</title>
<ellipse fill="none" stroke="black" cx="103.34" cy="-18" rx="103.18" ry="18"/>
<text text-anchor="middle" x="103.34" y="-14.3" font-family="Times,serif" font-size="14.00">conda&#45;forge&#45;pinning</text>
</g>
<!-- linbox&#45;&gt;conda&#45;forge&#45;pinning -->
<g id="edge2" class="edge">
<title>linbox&#45;&gt;conda&#45;forge&#45;pinning</title>
<path fill="none" stroke="black" d="M110.63,-144.18C114.67,-133.94 119.28,-120.46 121.34,-108 123.95,-92.21 123.95,-87.79 121.34,-72 119.9,-63.28 117.21,-54.06 114.34,-45.8"/>
<polygon fill="black" stroke="black" points="117.58,-44.46 110.82,-36.3 111.01,-46.89 117.58,-44.46"/>
</g>
<!-- sagelib&#45;&gt;conda&#45;forge&#45;pinning -->
<g id="edge3" class="edge">
<title>sagelib&#45;&gt;conda&#45;forge&#45;pinning</title>
<path fill="none" stroke="black" d="M76.06,-72.05C80.19,-64.01 85.24,-54.2 89.85,-45.23"/>
<polygon fill="black" stroke="black" points="93,-46.77 94.46,-36.28 86.77,-43.57 93,-46.77"/>
</g>
</g>
</svg>
