<?xml version="1.0" encoding="UTF-8" standalone="no"?>
<!DOCTYPE svg PUBLIC "-//W3C//DTD SVG 1.1//EN"
 "http://www.w3.org/Graphics/SVG/1.1/DTD/svg11.dtd">
<!-- Generated by graphviz version 2.42.3 (20191010.1750)
 -->
<!-- Title: %3 Pages: 1 -->
<svg width="259pt" height="260pt"
 viewBox="0.00 0.00 258.64 260.00" xmlns="http://www.w3.org/2000/svg" xmlns:xlink="http://www.w3.org/1999/xlink">
<g id="graph0" class="graph" transform="scale(1 1) rotate(0) translate(4 256)">
<title>%3</title>
<polygon fill="white" stroke="transparent" points="-4,4 -4,-256 254.64,-256 254.64,4 -4,4"/>
<!-- linbox -->
<g id="node1" class="node">
<title>linbox</title>
<g id="a_node1"><a xlink:href="https://github.com/conda-forge/linbox-feedstock/pull/20" xlink:title="linbox">
<ellipse fill="#31688e" stroke="black" cx="40.3" cy="-162" rx="40.09" ry="18"/>
<text text-anchor="middle" x="40.3" y="-158.3" font-family="Times,serif" font-size="14.00" fill="white">linbox</text>
</a>
</g>
</g>
<!-- sagelib -->
<g id="node3" class="node">
<title>sagelib</title>
<g id="a_node3"><a xlink:href="https://github.com/conda-forge/sagelib-feedstock" xlink:title="sagelib">
<ellipse fill="#fde725" stroke="black" cx="111.3" cy="-90" rx="44.69" ry="18"/>
<text text-anchor="middle" x="111.3" y="-86.3" font-family="Times,serif" font-size="14.00">sagelib</text>
</a>
</g>
</g>
<!-- linbox&#45;&gt;sagelib -->
<g id="edge1" class="edge">
<title>linbox&#45;&gt;sagelib</title>
<path fill="none" stroke="black" d="M56.41,-145.12C65.76,-135.9 77.7,-124.13 88.05,-113.92"/>
<polygon fill="black" stroke="black" points="90.59,-116.33 95.25,-106.82 85.67,-111.35 90.59,-116.33"/>
</g>
<!-- conda&#45;forge&#45;pinning -->
<g id="node5" class="node">
<title>conda&#45;forge&#45;pinning</title>
<ellipse fill="none" stroke="black" cx="147.3" cy="-18" rx="103.18" ry="18"/>
<text text-anchor="middle" x="147.3" y="-14.3" font-family="Times,serif" font-size="14.00">conda&#45;forge&#45;pinning</text>
</g>
<!-- linbox&#45;&gt;conda&#45;forge&#45;pinning -->
<g id="edge2" class="edge">
<title>linbox&#45;&gt;conda&#45;forge&#45;pinning</title>
<path fill="none" stroke="black" d="M39.55,-144C39.54,-124.81 42.17,-93.48 57.3,-72 66.98,-58.25 81.46,-47.51 95.99,-39.4"/>
<polygon fill="black" stroke="black" points="97.77,-42.42 105,-34.68 94.52,-36.22 97.77,-42.42"/>
</g>
<!-- pynac -->
<g id="node2" class="node">
<title>pynac</title>
<g id="a_node2"><a xlink:href="https://github.com/conda-forge/pynac-feedstock" xlink:title="pynac">
<ellipse fill="#fde725" stroke="black" cx="172.3" cy="-162" rx="35.19" ry="18"/>
<text text-anchor="middle" x="172.3" y="-158.3" font-family="Times,serif" font-size="14.00">pynac</text>
</a>
</g>
</g>
<!-- pynac&#45;&gt;sagelib -->
<g id="edge3" class="edge">
<title>pynac&#45;&gt;sagelib</title>
<path fill="none" stroke="black" d="M158.45,-145.12C150.69,-136.2 140.84,-124.91 132.16,-114.94"/>
<polygon fill="black" stroke="black" points="134.72,-112.55 125.51,-107.31 129.44,-117.15 134.72,-112.55"/>
</g>
<!-- pynac&#45;&gt;conda&#45;forge&#45;pinning -->
<g id="edge4" class="edge">
<title>pynac&#45;&gt;conda&#45;forge&#45;pinning</title>
<path fill="none" stroke="black" d="M172.21,-143.76C171.82,-125.7 170.36,-96.59 165.3,-72 163.51,-63.34 160.72,-54.14 157.87,-45.88"/>
<polygon fill="black" stroke="black" points="161.12,-44.57 154.42,-36.36 154.54,-46.96 161.12,-44.57"/>
</g>
<!-- sagelib&#45;&gt;conda&#45;forge&#45;pinning -->
<g id="edge5" class="edge">
<title>sagelib&#45;&gt;conda&#45;forge&#45;pinning</title>
<path fill="none" stroke="black" d="M120.01,-72.05C124.15,-64.01 129.19,-54.2 133.81,-45.23"/>
<polygon fill="black" stroke="black" points="136.95,-46.77 138.41,-36.28 130.73,-43.57 136.95,-46.77"/>
</g>
<!-- singular -->
<g id="node4" class="node">
<title>singular</title>
<g id="a_node4"><a xlink:href="https://github.com/conda-forge/singular-feedstock/pull/12" xlink:title="singular">
<ellipse fill="#31688e" stroke="black" cx="172.3" cy="-234" rx="50.09" ry="18"/>
<text text-anchor="middle" x="172.3" y="-230.3" font-family="Times,serif" font-size="14.00" fill="white">singular</text>
</a>
</g>
</g>
<!-- singular&#45;&gt;pynac -->
<g id="edge6" class="edge">
<title>singular&#45;&gt;pynac</title>
<path fill="none" stroke="black" d="M172.3,-215.7C172.3,-207.98 172.3,-198.71 172.3,-190.11"/>
<polygon fill="black" stroke="black" points="175.8,-190.1 172.3,-180.1 168.8,-190.1 175.8,-190.1"/>
</g>
<!-- singular&#45;&gt;sagelib -->
<g id="edge7" class="edge">
<title>singular&#45;&gt;sagelib</title>
<path fill="none" stroke="black" d="M155.19,-216.88C145.83,-207.09 134.83,-193.84 128.3,-180 119.09,-160.5 114.87,-136.36 112.94,-118.14"/>
<polygon fill="black" stroke="black" points="116.42,-117.83 112.04,-108.18 109.45,-118.45 116.42,-117.83"/>
</g>
<!-- singular&#45;&gt;conda&#45;forge&#45;pinning -->
<g id="edge8" class="edge">
<title>singular&#45;&gt;conda&#45;forge&#45;pinning</title>
<path fill="none" stroke="black" d="M190.85,-216.84C200.44,-207.23 211.18,-194.17 216.3,-180 221.73,-164.95 219.8,-159.61 216.3,-144 207.84,-106.3 184.11,-68.17 166.83,-44.11"/>
<polygon fill="black" stroke="black" points="169.54,-41.89 160.8,-35.91 163.9,-46.04 169.54,-41.89"/>
</g>
</g>
</svg>
