<?xml version="1.0" encoding="UTF-8" standalone="no"?>
<!DOCTYPE svg PUBLIC "-//W3C//DTD SVG 1.1//EN"
 "http://www.w3.org/Graphics/SVG/1.1/DTD/svg11.dtd">
<!-- Generated by graphviz version 2.42.3 (20191010.1750)
 -->
<!-- Title: %3 Pages: 1 -->
<svg width="215pt" height="188pt"
 viewBox="0.00 0.00 214.68 188.00" xmlns="http://www.w3.org/2000/svg" xmlns:xlink="http://www.w3.org/1999/xlink">
<g id="graph0" class="graph" transform="scale(1 1) rotate(0) translate(4 184)">
<title>%3</title>
<polygon fill="white" stroke="transparent" points="-4,4 -4,-184 210.68,-184 210.68,4 -4,4"/>
<!-- linbox -->
<g id="node1" class="node">
<title>linbox</title>
<g id="a_node1"><a xlink:href="https://github.com/conda-forge/linbox-feedstock/pull/20" xlink:title="linbox">
<ellipse fill="#31688e" stroke="black" cx="56.34" cy="-162" rx="40.09" ry="18"/>
<text text-anchor="middle" x="56.34" y="-158.3" font-family="Times,serif" font-size="14.00" fill="white">linbox</text>
</a>
</g>
</g>
<!-- sagelib -->
<g id="node3" class="node">
<title>sagelib</title>
<g id="a_node3"><a xlink:href="https://github.com/conda-forge/sagelib-feedstock" xlink:title="sagelib">
<ellipse fill="#fde725" stroke="black" cx="103.34" cy="-90" rx="44.69" ry="18"/>
<text text-anchor="middle" x="103.34" y="-86.3" font-family="Times,serif" font-size="14.00">sagelib</text>
</a>
</g>
</g>
<!-- linbox&#45;&gt;sagelib -->
<g id="edge1" class="edge">
<title>linbox&#45;&gt;sagelib</title>
<path fill="none" stroke="black" d="M67.48,-144.41C73.22,-135.87 80.33,-125.28 86.7,-115.79"/>
<polygon fill="black" stroke="black" points="89.61,-117.72 92.28,-107.47 83.8,-113.82 89.61,-117.72"/>
</g>
<!-- conda&#45;forge&#45;pinning -->
<g id="node4" class="node">
<title>conda&#45;forge&#45;pinning</title>
<ellipse fill="none" stroke="black" cx="103.34" cy="-18" rx="103.18" ry="18"/>
<text text-anchor="middle" x="103.34" y="-14.3" font-family="Times,serif" font-size="14.00">conda&#45;forge&#45;pinning</text>
</g>
<!-- linbox&#45;&gt;conda&#45;forge&#45;pinning -->
<g id="edge2" class="edge">
<title>linbox&#45;&gt;conda&#45;forge&#45;pinning</title>
<path fill="none" stroke="black" d="M50.47,-143.86C45.14,-125.37 39.5,-95.44 49.34,-72 54.06,-60.76 62.45,-50.7 71.24,-42.45"/>
<polygon fill="black" stroke="black" points="73.76,-44.89 78.98,-35.67 69.15,-39.63 73.76,-44.89"/>
</g>
<!-- pynac -->
<g id="node2" class="node">
<title>pynac</title>
<g id="a_node2"><a xlink:href="https://github.com/conda-forge/pynac-feedstock/pull/27" xlink:title="pynac">
<ellipse fill="#31688e" stroke="black" cx="162.34" cy="-162" rx="35.19" ry="18"/>
<text text-anchor="middle" x="162.34" y="-158.3" font-family="Times,serif" font-size="14.00" fill="white">pynac</text>
</a>
</g>
</g>
<!-- pynac&#45;&gt;sagelib -->
<g id="edge3" class="edge">
<title>pynac&#45;&gt;sagelib</title>
<path fill="none" stroke="black" d="M148.95,-145.12C141.52,-136.29 132.11,-125.13 123.77,-115.24"/>
<polygon fill="black" stroke="black" points="126.21,-112.7 117.09,-107.31 120.85,-117.21 126.21,-112.7"/>
</g>
<!-- pynac&#45;&gt;conda&#45;forge&#45;pinning -->
<g id="edge4" class="edge">
<title>pynac&#45;&gt;conda&#45;forge&#45;pinning</title>
<path fill="none" stroke="black" d="M164.93,-143.74C166.92,-125.14 167.82,-95.12 157.34,-72 152.27,-60.8 143.69,-50.71 134.84,-42.41"/>
<polygon fill="black" stroke="black" points="136.9,-39.56 127.08,-35.59 132.28,-44.82 136.9,-39.56"/>
</g>
<!-- sagelib&#45;&gt;conda&#45;forge&#45;pinning -->
<g id="edge5" class="edge">
<title>sagelib&#45;&gt;conda&#45;forge&#45;pinning</title>
<path fill="none" stroke="black" d="M103.34,-71.7C103.34,-63.98 103.34,-54.71 103.34,-46.11"/>
<polygon fill="black" stroke="black" points="106.84,-46.1 103.34,-36.1 99.84,-46.1 106.84,-46.1"/>
</g>
</g>
</svg>
