<?xml version="1.0" encoding="UTF-8" standalone="no"?>
<!DOCTYPE svg PUBLIC "-//W3C//DTD SVG 1.1//EN"
 "http://www.w3.org/Graphics/SVG/1.1/DTD/svg11.dtd">
<!-- Generated by graphviz version 2.40.1 (20161225.0304)
 -->
<!-- Title: %3 Pages: 1 -->
<svg width="351pt" height="188pt"
 viewBox="0.00 0.00 350.64 188.00" xmlns="http://www.w3.org/2000/svg" xmlns:xlink="http://www.w3.org/1999/xlink">
<g id="graph0" class="graph" transform="scale(1 1) rotate(0) translate(4 184)">
<title>%3</title>
<polygon fill="#ffffff" stroke="transparent" points="-4,4 -4,-184 346.6407,-184 346.6407,4 -4,4"/>
<!-- netgen -->
<g id="node1" class="node">
<title>netgen</title>
<ellipse fill="#31688e" stroke="#000000" cx="66.0969" cy="-162" rx="40.0939" ry="18"/>
<text text-anchor="middle" x="66.0969" y="-158.3" font-family="Times,serif" font-size="14.00" fill="#ffffff">netgen</text>
</g>
<!-- smesh -->
<g id="node2" class="node">
<title>smesh</title>
<ellipse fill="#fde725" stroke="#000000" cx="35.0969" cy="-90" rx="35.194" ry="18"/>
<text text-anchor="middle" x="35.0969" y="-86.3" font-family="Times,serif" font-size="14.00" fill="#000000">smesh</text>
</g>
<!-- netgen&#45;&gt;smesh -->
<g id="edge2" class="edge">
<title>netgen&#45;&gt;smesh</title>
<path fill="none" stroke="#000000" d="M58.434,-144.2022C54.9052,-136.0064 50.641,-126.1024 46.7281,-117.0145"/>
<polygon fill="#000000" stroke="#000000" points="49.841,-115.3938 42.6717,-107.593 43.4116,-118.162 49.841,-115.3938"/>
</g>
<!-- freecad -->
<g id="node3" class="node">
<title>freecad</title>
<ellipse fill="#fde725" stroke="#000000" cx="66.0969" cy="-18" rx="44.6926" ry="18"/>
<text text-anchor="middle" x="66.0969" y="-14.3" font-family="Times,serif" font-size="14.00" fill="#000000">freecad</text>
</g>
<!-- netgen&#45;&gt;freecad -->
<g id="edge1" class="edge">
<title>netgen&#45;&gt;freecad</title>
<path fill="none" stroke="#000000" d="M71.6415,-143.7012C74.4934,-133.3353 77.665,-120.0653 79.0969,-108 80.9825,-92.1115 80.9825,-87.8885 79.0969,-72 78.0901,-63.5166 76.2232,-54.4376 74.2121,-46.1913"/>
<polygon fill="#000000" stroke="#000000" points="77.5441,-45.0971 71.6415,-36.2988 70.7691,-46.8576 77.5441,-45.0971"/>
</g>
<!-- smesh&#45;&gt;freecad -->
<g id="edge3" class="edge">
<title>smesh&#45;&gt;freecad</title>
<path fill="none" stroke="#000000" d="M42.7598,-72.2022C46.2623,-64.0675 50.4892,-54.2501 54.378,-45.2181"/>
<polygon fill="#000000" stroke="#000000" points="57.6747,-46.4115 58.4147,-35.8425 51.2453,-43.6433 57.6747,-46.4115"/>
</g>
<!-- gmsh -->
<g id="node4" class="node">
<title>gmsh</title>
<ellipse fill="#31688e" stroke="#000000" cx="155.0969" cy="-162" rx="30.5947" ry="18"/>
<text text-anchor="middle" x="155.0969" y="-158.3" font-family="Times,serif" font-size="14.00" fill="#ffffff">gmsh</text>
</g>
<!-- ifcopenshell -->
<g id="node5" class="node">
<title>ifcopenshell</title>
<ellipse fill="#31688e" stroke="#000000" cx="273.0969" cy="-162" rx="69.5877" ry="18"/>
<text text-anchor="middle" x="273.0969" y="-158.3" font-family="Times,serif" font-size="14.00" fill="#ffffff">ifcopenshell</text>
</g>
</g>
</svg>
