<?xml version="1.0" encoding="UTF-8" standalone="no"?>
<!DOCTYPE svg PUBLIC "-//W3C//DTD SVG 1.1//EN"
 "http://www.w3.org/Graphics/SVG/1.1/DTD/svg11.dtd">
<!-- Generated by graphviz version 2.42.3 (20191010.1750)
 -->
<!-- Title: %3 Pages: 1 -->
<svg width="220pt" height="116pt"
 viewBox="0.00 0.00 219.94 116.00" xmlns="http://www.w3.org/2000/svg" xmlns:xlink="http://www.w3.org/1999/xlink">
<g id="graph0" class="graph" transform="scale(1 1) rotate(0) translate(4 112)">
<title>%3</title>
<polygon fill="white" stroke="transparent" points="-4,4 -4,-112 215.94,-112 215.94,4 -4,4"/>
<!-- julia -->
<g id="node1" class="node">
<title>julia</title>
<g id="a_node1"><a xlink:href="https://github.com/conda-forge/julia-feedstock/pull/85" xlink:title="julia">
<ellipse fill="#31688e" stroke="black" cx="49.34" cy="-90" rx="35.19" ry="18"/>
<text text-anchor="middle" x="49.34" y="-86.3" font-family="Times,serif" font-size="14.00" fill="white">julia</text>
</a>
</g>
</g>
<!-- conda&#45;forge&#45;pinning -->
<g id="node3" class="node">
<title>conda&#45;forge&#45;pinning</title>
<ellipse fill="none" stroke="black" cx="103.34" cy="-18" rx="103.18" ry="18"/>
<text text-anchor="middle" x="103.34" y="-14.3" font-family="Times,serif" font-size="14.00">conda&#45;forge&#45;pinning</text>
</g>
<!-- julia&#45;&gt;conda&#45;forge&#45;pinning -->
<g id="edge1" class="edge">
<title>julia&#45;&gt;conda&#45;forge&#45;pinning</title>
<path fill="none" stroke="black" d="M61.59,-73.12C68.14,-64.63 76.36,-53.98 83.76,-44.38"/>
<polygon fill="black" stroke="black" points="86.66,-46.35 90,-36.29 81.12,-42.07 86.66,-46.35"/>
</g>
<!-- sphinxdft -->
<g id="node2" class="node">
<title>sphinxdft</title>
<g id="a_node2"><a xlink:href="https://github.com/conda-forge/sphinxdft-feedstock/pull/8" xlink:title="sphinxdft">
<ellipse fill="#31688e" stroke="black" cx="157.34" cy="-90" rx="54.69" ry="18"/>
<text text-anchor="middle" x="157.34" y="-86.3" font-family="Times,serif" font-size="14.00" fill="white">sphinxdft</text>
</a>
</g>
</g>
<!-- sphinxdft&#45;&gt;conda&#45;forge&#45;pinning -->
<g id="edge2" class="edge">
<title>sphinxdft&#45;&gt;conda&#45;forge&#45;pinning</title>
<path fill="none" stroke="black" d="M144.54,-72.41C137.98,-63.91 129.86,-53.37 122.56,-43.91"/>
<polygon fill="black" stroke="black" points="125.3,-41.74 116.42,-35.96 119.76,-46.01 125.3,-41.74"/>
</g>
</g>
</svg>
