<?xml version="1.0" encoding="UTF-8" standalone="no"?>
<!DOCTYPE svg PUBLIC "-//W3C//DTD SVG 1.1//EN"
 "http://www.w3.org/Graphics/SVG/1.1/DTD/svg11.dtd">
<!-- Generated by graphviz version 2.42.3 (20191010.1750)
 -->
<!-- Title: %3 Pages: 1 -->
<svg width="488pt" height="260pt"
 viewBox="0.00 0.00 488.14 260.00" xmlns="http://www.w3.org/2000/svg" xmlns:xlink="http://www.w3.org/1999/xlink">
<g id="graph0" class="graph" transform="scale(1 1) rotate(0) translate(4 256)">
<title>%3</title>
<polygon fill="white" stroke="transparent" points="-4,4 -4,-256 484.14,-256 484.14,4 -4,4"/>
<!-- fenics -->
<g id="node1" class="node">
<title>fenics</title>
<g id="a_node1"><a xlink:href="https://github.com/conda-forge/fenics-feedstock" xlink:title="fenics">
<ellipse fill="#fde725" stroke="black" cx="201.05" cy="-90" rx="40.09" ry="18"/>
<text text-anchor="middle" x="201.05" y="-86.3" font-family="Times,serif" font-size="14.00">fenics</text>
</a>
</g>
</g>
<!-- conda&#45;forge&#45;pinning -->
<g id="node7" class="node">
<title>conda&#45;forge&#45;pinning</title>
<ellipse fill="none" stroke="black" cx="245.05" cy="-18" rx="103.18" ry="18"/>
<text text-anchor="middle" x="245.05" y="-14.3" font-family="Times,serif" font-size="14.00">conda&#45;forge&#45;pinning</text>
</g>
<!-- fenics&#45;&gt;conda&#45;forge&#45;pinning -->
<g id="edge1" class="edge">
<title>fenics&#45;&gt;conda&#45;forge&#45;pinning</title>
<path fill="none" stroke="black" d="M211.47,-72.41C216.71,-64.08 223.17,-53.8 229.02,-44.49"/>
<polygon fill="black" stroke="black" points="232.03,-46.29 234.39,-35.96 226.1,-42.56 232.03,-46.29"/>
</g>
<!-- libadjoint -->
<g id="node2" class="node">
<title>libadjoint</title>
<g id="a_node2"><a xlink:href="https://github.com/conda-forge/libadjoint-feedstock" xlink:title="libadjoint">
<ellipse fill="#fde725" stroke="black" cx="294.05" cy="-162" rx="59.59" ry="18"/>
<text text-anchor="middle" x="294.05" y="-158.3" font-family="Times,serif" font-size="14.00">libadjoint</text>
</a>
</g>
</g>
<!-- libadjoint&#45;&gt;conda&#45;forge&#45;pinning -->
<g id="edge2" class="edge">
<title>libadjoint&#45;&gt;conda&#45;forge&#45;pinning</title>
<path fill="none" stroke="black" d="M288.14,-143.87C279.75,-119.56 264.31,-74.82 254.37,-46.01"/>
<polygon fill="black" stroke="black" points="257.55,-44.5 250.98,-36.19 250.93,-46.78 257.55,-44.5"/>
</g>
<!-- petsc4py -->
<g id="node3" class="node">
<title>petsc4py</title>
<g id="a_node3"><a xlink:href="https://github.com/conda-forge/petsc4py-feedstock/pull/23" xlink:title="petsc4py">
<ellipse fill="#31688e" stroke="black" cx="50.05" cy="-234" rx="50.09" ry="18"/>
<text text-anchor="middle" x="50.05" y="-230.3" font-family="Times,serif" font-size="14.00" fill="white">petsc4py</text>
</a>
</g>
</g>
<!-- petsc4py&#45;&gt;fenics -->
<g id="edge3" class="edge">
<title>petsc4py&#45;&gt;fenics</title>
<path fill="none" stroke="black" d="M49.18,-215.88C49.11,-196.29 51.95,-164.31 69.05,-144 90.17,-118.9 124.91,-105.58 153.45,-98.57"/>
<polygon fill="black" stroke="black" points="154.28,-101.97 163.26,-96.35 152.73,-95.15 154.28,-101.97"/>
</g>
<!-- slepc4py -->
<g id="node5" class="node">
<title>slepc4py</title>
<g id="a_node5"><a xlink:href="https://github.com/conda-forge/slepc4py-feedstock" xlink:title="slepc4py">
<ellipse fill="#fde725" stroke="black" cx="128.05" cy="-162" rx="50.09" ry="18"/>
<text text-anchor="middle" x="128.05" y="-158.3" font-family="Times,serif" font-size="14.00">slepc4py</text>
</a>
</g>
</g>
<!-- petsc4py&#45;&gt;slepc4py -->
<g id="edge4" class="edge">
<title>petsc4py&#45;&gt;slepc4py</title>
<path fill="none" stroke="black" d="M67.74,-217.12C78.04,-207.87 91.2,-196.07 102.6,-185.84"/>
<polygon fill="black" stroke="black" points="105.04,-188.35 110.15,-179.06 100.37,-183.14 105.04,-188.35"/>
</g>
<!-- petsc4py&#45;&gt;conda&#45;forge&#45;pinning -->
<g id="edge5" class="edge">
<title>petsc4py&#45;&gt;conda&#45;forge&#45;pinning</title>
<path fill="none" stroke="black" d="M45.74,-216.05C41.94,-197.46 38.46,-167.2 49.05,-144 74.13,-89.04 136.89,-55.62 184.69,-37.33"/>
<polygon fill="black" stroke="black" points="186.17,-40.52 194.34,-33.77 183.75,-33.95 186.17,-40.52"/>
</g>
<!-- slepc -->
<g id="node4" class="node">
<title>slepc</title>
<g id="a_node4"><a xlink:href="https://github.com/conda-forge/slepc-feedstock/pull/36" xlink:title="slepc">
<ellipse fill="#31688e" stroke="black" cx="250.05" cy="-234" rx="35.19" ry="18"/>
<text text-anchor="middle" x="250.05" y="-230.3" font-family="Times,serif" font-size="14.00" fill="white">slepc</text>
</a>
</g>
</g>
<!-- slepc&#45;&gt;fenics -->
<g id="edge6" class="edge">
<title>slepc&#45;&gt;fenics</title>
<path fill="none" stroke="black" d="M241.15,-216.14C235.98,-205.89 229.61,-192.41 225.05,-180 217.53,-159.53 211.21,-135.64 206.95,-117.77"/>
<polygon fill="black" stroke="black" points="210.36,-116.96 204.68,-108.01 203.54,-118.54 210.36,-116.96"/>
</g>
<!-- slepc&#45;&gt;libadjoint -->
<g id="edge7" class="edge">
<title>slepc&#45;&gt;libadjoint</title>
<path fill="none" stroke="black" d="M260.25,-216.76C265.48,-208.44 271.98,-198.1 277.88,-188.73"/>
<polygon fill="black" stroke="black" points="280.92,-190.45 283.28,-180.12 275,-186.73 280.92,-190.45"/>
</g>
<!-- slepc&#45;&gt;slepc4py -->
<g id="edge8" class="edge">
<title>slepc&#45;&gt;slepc4py</title>
<path fill="none" stroke="black" d="M227.38,-220C209.14,-209.53 183.19,-194.64 162.39,-182.71"/>
<polygon fill="black" stroke="black" points="163.95,-179.57 153.54,-177.63 160.47,-185.64 163.95,-179.57"/>
</g>
<!-- slepc&#45;&gt;conda&#45;forge&#45;pinning -->
<g id="edge9" class="edge">
<title>slepc&#45;&gt;conda&#45;forge&#45;pinning</title>
<path fill="none" stroke="black" d="M282.89,-227.44C309.57,-221 345.55,-207.52 363.05,-180 371.63,-166.5 368.96,-158.87 363.05,-144 345.89,-100.84 305.98,-63.95 277.32,-41.67"/>
<polygon fill="black" stroke="black" points="279.28,-38.76 269.2,-35.51 275.05,-44.34 279.28,-38.76"/>
</g>
<!-- slepc4py&#45;&gt;fenics -->
<g id="edge10" class="edge">
<title>slepc4py&#45;&gt;fenics</title>
<path fill="none" stroke="black" d="M144.98,-144.76C154.6,-135.53 166.81,-123.83 177.37,-113.7"/>
<polygon fill="black" stroke="black" points="179.91,-116.11 184.71,-106.67 175.07,-111.06 179.91,-116.11"/>
</g>
<!-- slepc4py&#45;&gt;conda&#45;forge&#45;pinning -->
<g id="edge11" class="edge">
<title>slepc4py&#45;&gt;conda&#45;forge&#45;pinning</title>
<path fill="none" stroke="black" d="M128.8,-143.88C130.47,-124.58 135.7,-93.14 152.05,-72 162.68,-58.24 177.97,-47.46 193.08,-39.32"/>
<polygon fill="black" stroke="black" points="195.09,-42.22 202.43,-34.58 191.93,-35.98 195.09,-42.22"/>
</g>
<!-- daetk -->
<g id="node6" class="node">
<title>daetk</title>
<g id="a_node6"><a xlink:href="https://github.com/conda-forge/daetk-feedstock/pull/2" xlink:title="daetk">
<ellipse fill="#31688e" stroke="black" cx="445.05" cy="-90" rx="35.19" ry="18"/>
<text text-anchor="middle" x="445.05" y="-86.3" font-family="Times,serif" font-size="14.00" fill="white">daetk</text>
</a>
</g>
</g>
<!-- daetk&#45;&gt;conda&#45;forge&#45;pinning -->
<g id="edge12" class="edge">
<title>daetk&#45;&gt;conda&#45;forge&#45;pinning</title>
<path fill="none" stroke="black" d="M416.81,-79.12C386.27,-68.43 336.85,-51.13 298.84,-37.83"/>
<polygon fill="black" stroke="black" points="299.54,-34.37 288.95,-34.37 297.23,-40.97 299.54,-34.37"/>
</g>
</g>
</svg>
