<?xml version="1.0" encoding="UTF-8" standalone="no"?>
<!DOCTYPE svg PUBLIC "-//W3C//DTD SVG 1.1//EN"
 "http://www.w3.org/Graphics/SVG/1.1/DTD/svg11.dtd">
<!-- Generated by graphviz version 2.40.1 (20161225.0304)
 -->
<!-- Title: %3 Pages: 1 -->
<svg width="407pt" height="188pt"
 viewBox="0.00 0.00 406.60 188.00" xmlns="http://www.w3.org/2000/svg" xmlns:xlink="http://www.w3.org/1999/xlink">
<g id="graph0" class="graph" transform="scale(1 1) rotate(0) translate(4 184)">
<title>%3</title>
<polygon fill="#ffffff" stroke="transparent" points="-4,4 -4,-184 402.5999,-184 402.5999,4 -4,4"/>
<!-- fenics -->
<g id="node1" class="node">
<title>fenics</title>
<ellipse fill="#fde725" stroke="#000000" cx="172.8052" cy="-18" rx="40.0939" ry="18"/>
<text text-anchor="middle" x="172.8052" y="-14.3" font-family="Times,serif" font-size="14.00" fill="#000000">fenics</text>
</g>
<!-- libadjoint -->
<g id="node2" class="node">
<title>libadjoint</title>
<ellipse fill="#fde725" stroke="#000000" cx="338.8052" cy="-90" rx="59.5901" ry="18"/>
<text text-anchor="middle" x="338.8052" y="-86.3" font-family="Times,serif" font-size="14.00" fill="#000000">libadjoint</text>
</g>
<!-- petsc4py -->
<g id="node3" class="node">
<title>petsc4py</title>
<ellipse fill="#31688e" stroke="#000000" cx="59.8052" cy="-162" rx="50.0912" ry="18"/>
<text text-anchor="middle" x="59.8052" y="-158.3" font-family="Times,serif" font-size="14.00" fill="#ffffff">petsc4py</text>
</g>
<!-- petsc4py&#45;&gt;fenics -->
<g id="edge1" class="edge">
<title>petsc4py&#45;&gt;fenics</title>
<path fill="none" stroke="#000000" d="M37.8766,-145.5193C15.9973,-127.0399 -11.9915,-96.4586 5.8052,-72 20.0674,-52.3989 81.1092,-36.3036 125.2735,-26.9276"/>
<polygon fill="#000000" stroke="#000000" points="126.1742,-30.3155 135.2567,-24.8605 124.7547,-23.4609 126.1742,-30.3155"/>
</g>
<!-- slepc4py -->
<g id="node5" class="node">
<title>slepc4py</title>
<ellipse fill="#fde725" stroke="#000000" cx="172.8052" cy="-90" rx="50.0912" ry="18"/>
<text text-anchor="middle" x="172.8052" y="-86.3" font-family="Times,serif" font-size="14.00" fill="#000000">slepc4py</text>
</g>
<!-- petsc4py&#45;&gt;slepc4py -->
<g id="edge3" class="edge">
<title>petsc4py&#45;&gt;slepc4py</title>
<path fill="none" stroke="#000000" d="M84.6035,-146.1993C100.6475,-135.9766 121.7339,-122.541 139.266,-111.3701"/>
<polygon fill="#000000" stroke="#000000" points="141.5119,-114.0892 148.0647,-105.7638 137.7504,-108.1857 141.5119,-114.0892"/>
</g>
<!-- proteus -->
<g id="node6" class="node">
<title>proteus</title>
<ellipse fill="#fde725" stroke="#000000" cx="59.8052" cy="-90" rx="44.6926" ry="18"/>
<text text-anchor="middle" x="59.8052" y="-86.3" font-family="Times,serif" font-size="14.00" fill="#000000">proteus</text>
</g>
<!-- petsc4py&#45;&gt;proteus -->
<g id="edge2" class="edge">
<title>petsc4py&#45;&gt;proteus</title>
<path fill="none" stroke="#000000" d="M59.8052,-143.8314C59.8052,-136.131 59.8052,-126.9743 59.8052,-118.4166"/>
<polygon fill="#000000" stroke="#000000" points="63.3053,-118.4132 59.8052,-108.4133 56.3053,-118.4133 63.3053,-118.4132"/>
</g>
<!-- slepc -->
<g id="node4" class="node">
<title>slepc</title>
<ellipse fill="#31688e" stroke="#000000" cx="250.8052" cy="-162" rx="35.194" ry="18"/>
<text text-anchor="middle" x="250.8052" y="-158.3" font-family="Times,serif" font-size="14.00" fill="#ffffff">slepc</text>
</g>
<!-- slepc&#45;&gt;fenics -->
<g id="edge4" class="edge">
<title>slepc&#45;&gt;fenics</title>
<path fill="none" stroke="#000000" d="M250.2149,-143.9466C248.8861,-124.9105 244.7127,-94.6045 231.8052,-72 224.7271,-59.6045 213.8201,-48.4567 203.3005,-39.5533"/>
<polygon fill="#000000" stroke="#000000" points="205.387,-36.7399 195.4015,-33.1988 200.9993,-42.1941 205.387,-36.7399"/>
</g>
<!-- slepc&#45;&gt;libadjoint -->
<g id="edge5" class="edge">
<title>slepc&#45;&gt;libadjoint</title>
<path fill="none" stroke="#000000" d="M269.4677,-146.7307C281.2499,-137.0907 296.7091,-124.4422 310.0398,-113.5353"/>
<polygon fill="#000000" stroke="#000000" points="312.4899,-116.053 318.0131,-107.0117 308.0572,-110.6352 312.4899,-116.053"/>
</g>
<!-- slepc&#45;&gt;slepc4py -->
<g id="edge6" class="edge">
<title>slepc&#45;&gt;slepc4py</title>
<path fill="none" stroke="#000000" d="M233.4944,-146.0209C223.2839,-136.5957 210.165,-124.486 198.7383,-113.9382"/>
<polygon fill="#000000" stroke="#000000" points="200.8764,-111.1487 191.1543,-106.9377 196.1284,-116.2923 200.8764,-111.1487"/>
</g>
<!-- slepc4py&#45;&gt;fenics -->
<g id="edge7" class="edge">
<title>slepc4py&#45;&gt;fenics</title>
<path fill="none" stroke="#000000" d="M172.8052,-71.8314C172.8052,-64.131 172.8052,-54.9743 172.8052,-46.4166"/>
<polygon fill="#000000" stroke="#000000" points="176.3053,-46.4132 172.8052,-36.4133 169.3053,-46.4133 176.3053,-46.4132"/>
</g>
</g>
</svg>
