<?xml version="1.0" encoding="UTF-8" standalone="no"?>
<!DOCTYPE svg PUBLIC "-//W3C//DTD SVG 1.1//EN"
 "http://www.w3.org/Graphics/SVG/1.1/DTD/svg11.dtd">
<!-- Generated by graphviz version 2.42.3 (20191010.1750)
 -->
<!-- Title: %3 Pages: 1 -->
<svg width="390pt" height="260pt"
 viewBox="0.00 0.00 389.89 260.00" xmlns="http://www.w3.org/2000/svg" xmlns:xlink="http://www.w3.org/1999/xlink">
<g id="graph0" class="graph" transform="scale(1 1) rotate(0) translate(4 256)">
<title>%3</title>
<polygon fill="white" stroke="transparent" points="-4,4 -4,-256 385.89,-256 385.89,4 -4,4"/>
<!-- fenics -->
<g id="node1" class="node">
<title>fenics</title>
<g id="a_node1"><a xlink:href="https://github.com/conda-forge/fenics-feedstock" xlink:title="fenics">
<ellipse fill="#fde725" stroke="black" cx="177.79" cy="-90" rx="40.09" ry="18"/>
<text text-anchor="middle" x="177.79" y="-86.3" font-family="Times,serif" font-size="14.00">fenics</text>
</a>
</g>
</g>
<!-- conda&#45;forge&#45;pinning -->
<g id="node6" class="node">
<title>conda&#45;forge&#45;pinning</title>
<ellipse fill="none" stroke="black" cx="245.79" cy="-18" rx="103.18" ry="18"/>
<text text-anchor="middle" x="245.79" y="-14.3" font-family="Times,serif" font-size="14.00">conda&#45;forge&#45;pinning</text>
</g>
<!-- fenics&#45;&gt;conda&#45;forge&#45;pinning -->
<g id="edge1" class="edge">
<title>fenics&#45;&gt;conda&#45;forge&#45;pinning</title>
<path fill="none" stroke="black" d="M193.22,-73.12C201.84,-64.24 212.76,-53.01 222.41,-43.08"/>
<polygon fill="black" stroke="black" points="225.02,-45.41 229.48,-35.8 220,-40.53 225.02,-45.41"/>
</g>
<!-- libadjoint -->
<g id="node2" class="node">
<title>libadjoint</title>
<g id="a_node2"><a xlink:href="https://github.com/conda-forge/libadjoint-feedstock/pull/18" xlink:title="libadjoint">
<ellipse fill="#31688e" stroke="black" cx="59.79" cy="-90" rx="59.59" ry="18"/>
<text text-anchor="middle" x="59.79" y="-86.3" font-family="Times,serif" font-size="14.00" fill="white">libadjoint</text>
</a>
</g>
</g>
<!-- libadjoint&#45;&gt;conda&#45;forge&#45;pinning -->
<g id="edge2" class="edge">
<title>libadjoint&#45;&gt;conda&#45;forge&#45;pinning</title>
<path fill="none" stroke="black" d="M95.66,-75.5C123.88,-64.88 163.56,-49.95 195.04,-38.1"/>
<polygon fill="black" stroke="black" points="196.4,-41.33 204.53,-34.53 193.94,-34.78 196.4,-41.33"/>
</g>
<!-- petsc4py -->
<g id="node3" class="node">
<title>petsc4py</title>
<g id="a_node3"><a xlink:href="https://github.com/conda-forge/petsc4py-feedstock/pull/25" xlink:title="petsc4py">
<ellipse fill="#31688e" stroke="black" cx="205.79" cy="-234" rx="50.09" ry="18"/>
<text text-anchor="middle" x="205.79" y="-230.3" font-family="Times,serif" font-size="14.00" fill="white">petsc4py</text>
</a>
</g>
</g>
<!-- petsc4py&#45;&gt;fenics -->
<g id="edge3" class="edge">
<title>petsc4py&#45;&gt;fenics</title>
<path fill="none" stroke="black" d="M181.07,-218.14C168.26,-208.93 153.86,-195.84 146.79,-180 137.38,-158.88 147.81,-133.94 159.05,-115.85"/>
<polygon fill="black" stroke="black" points="162.26,-117.33 164.89,-107.07 156.44,-113.45 162.26,-117.33"/>
</g>
<!-- slepc4py -->
<g id="node4" class="node">
<title>slepc4py</title>
<g id="a_node4"><a xlink:href="https://github.com/conda-forge/slepc4py-feedstock" xlink:title="slepc4py">
<ellipse fill="#fde725" stroke="black" cx="205.79" cy="-162" rx="50.09" ry="18"/>
<text text-anchor="middle" x="205.79" y="-158.3" font-family="Times,serif" font-size="14.00">slepc4py</text>
</a>
</g>
</g>
<!-- petsc4py&#45;&gt;slepc4py -->
<g id="edge4" class="edge">
<title>petsc4py&#45;&gt;slepc4py</title>
<path fill="none" stroke="black" d="M205.79,-215.7C205.79,-207.98 205.79,-198.71 205.79,-190.11"/>
<polygon fill="black" stroke="black" points="209.29,-190.1 205.79,-180.1 202.29,-190.1 209.29,-190.1"/>
</g>
<!-- petsc4py&#45;&gt;conda&#45;forge&#45;pinning -->
<g id="edge5" class="edge">
<title>petsc4py&#45;&gt;conda&#45;forge&#45;pinning</title>
<path fill="none" stroke="black" d="M230.52,-218.14C243.33,-208.93 257.73,-195.84 264.79,-180 284.43,-135.97 269.28,-78.79 257.11,-45.76"/>
<polygon fill="black" stroke="black" points="260.34,-44.4 253.47,-36.33 253.81,-46.92 260.34,-44.4"/>
</g>
<!-- slepc4py&#45;&gt;fenics -->
<g id="edge6" class="edge">
<title>slepc4py&#45;&gt;fenics</title>
<path fill="none" stroke="black" d="M199.02,-144.05C195.78,-135.97 191.84,-126.12 188.24,-117.11"/>
<polygon fill="black" stroke="black" points="191.47,-115.77 184.51,-107.79 184.97,-118.37 191.47,-115.77"/>
</g>
<!-- slepc4py&#45;&gt;conda&#45;forge&#45;pinning -->
<g id="edge7" class="edge">
<title>slepc4py&#45;&gt;conda&#45;forge&#45;pinning</title>
<path fill="none" stroke="black" d="M213.34,-144.07C217.71,-133.79 223.07,-120.32 226.79,-108 232.96,-87.62 237.9,-64.02 241.2,-46.25"/>
<polygon fill="black" stroke="black" points="244.67,-46.74 242.99,-36.28 237.78,-45.5 244.67,-46.74"/>
</g>
<!-- daetk -->
<g id="node5" class="node">
<title>daetk</title>
<g id="a_node5"><a xlink:href="https://github.com/conda-forge/daetk-feedstock/pull/2" xlink:title="daetk">
<ellipse fill="#31688e" stroke="black" cx="346.79" cy="-90" rx="35.19" ry="18"/>
<text text-anchor="middle" x="346.79" y="-86.3" font-family="Times,serif" font-size="14.00" fill="white">daetk</text>
</a>
</g>
</g>
<!-- daetk&#45;&gt;conda&#45;forge&#45;pinning -->
<g id="edge8" class="edge">
<title>daetk&#45;&gt;conda&#45;forge&#45;pinning</title>
<path fill="none" stroke="black" d="M326.84,-75.17C313.06,-65.62 294.43,-52.71 278.5,-41.67"/>
<polygon fill="black" stroke="black" points="280.2,-38.58 269.98,-35.76 276.21,-44.34 280.2,-38.58"/>
</g>
</g>
</svg>
