<?xml version="1.0" encoding="UTF-8" standalone="no"?>
<!DOCTYPE svg PUBLIC "-//W3C//DTD SVG 1.1//EN"
 "http://www.w3.org/Graphics/SVG/1.1/DTD/svg11.dtd">
<!-- Generated by graphviz version 2.40.1 (20161225.0304)
 -->
<!-- Title: %3 Pages: 1 -->
<svg width="261pt" height="188pt"
 viewBox="0.00 0.00 260.72 188.00" xmlns="http://www.w3.org/2000/svg" xmlns:xlink="http://www.w3.org/1999/xlink">
<g id="graph0" class="graph" transform="scale(1 1) rotate(0) translate(4 184)">
<title>%3</title>
<polygon fill="#ffffff" stroke="transparent" points="-4,4 -4,-184 256.7219,-184 256.7219,4 -4,4"/>
<!-- fenics -->
<g id="node1" class="node">
<title>fenics</title>
<ellipse fill="#fde725" stroke="#000000" cx="94.6764" cy="-18" rx="40.0939" ry="18"/>
<text text-anchor="middle" x="94.6764" y="-14.3" font-family="Times,serif" font-size="14.00" fill="#000000">fenics</text>
</g>
<!-- libadjoint -->
<g id="node2" class="node">
<title>libadjoint</title>
<ellipse fill="#fde725" stroke="#000000" cx="74.6764" cy="-90" rx="59.5901" ry="18"/>
<text text-anchor="middle" x="74.6764" y="-86.3" font-family="Times,serif" font-size="14.00" fill="#000000">libadjoint</text>
</g>
<!-- slepc -->
<g id="node3" class="node">
<title>slepc</title>
<ellipse fill="#31688e" stroke="#000000" cx="74.6764" cy="-162" rx="35.194" ry="18"/>
<text text-anchor="middle" x="74.6764" y="-158.3" font-family="Times,serif" font-size="14.00" fill="#ffffff">slepc</text>
</g>
<!-- slepc&#45;&gt;fenics -->
<g id="edge1" class="edge">
<title>slepc&#45;&gt;fenics</title>
<path fill="none" stroke="#000000" d="M49.0319,-149.5854C33.3674,-140.4683 14.671,-126.461 5.6764,-108 -1.3317,-93.6164 -2.1724,-85.9426 5.6764,-72 15.8685,-53.8946 34.8545,-41.1606 52.681,-32.6249"/>
<polygon fill="#000000" stroke="#000000" points="54.1376,-35.8077 61.8447,-28.5378 51.2862,-29.4147 54.1376,-35.8077"/>
</g>
<!-- slepc&#45;&gt;libadjoint -->
<g id="edge2" class="edge">
<title>slepc&#45;&gt;libadjoint</title>
<path fill="none" stroke="#000000" d="M74.6764,-143.8314C74.6764,-136.131 74.6764,-126.9743 74.6764,-118.4166"/>
<polygon fill="#000000" stroke="#000000" points="78.1765,-118.4132 74.6764,-108.4133 71.1765,-118.4133 78.1765,-118.4132"/>
</g>
<!-- slepc4py -->
<g id="node4" class="node">
<title>slepc4py</title>
<ellipse fill="#fde725" stroke="#000000" cx="202.6764" cy="-90" rx="50.0912" ry="18"/>
<text text-anchor="middle" x="202.6764" y="-86.3" font-family="Times,serif" font-size="14.00" fill="#000000">slepc4py</text>
</g>
<!-- slepc&#45;&gt;slepc4py -->
<g id="edge3" class="edge">
<title>slepc&#45;&gt;slepc4py</title>
<path fill="none" stroke="#000000" d="M98.4522,-148.6261C117.557,-137.8797 144.7038,-122.6096 166.5025,-110.3478"/>
<polygon fill="#000000" stroke="#000000" points="168.4784,-113.2521 175.4783,-105.2989 165.0466,-107.1511 168.4784,-113.2521"/>
</g>
<!-- slepc4py&#45;&gt;fenics -->
<g id="edge4" class="edge">
<title>slepc4py&#45;&gt;fenics</title>
<path fill="none" stroke="#000000" d="M178.7077,-74.0209C163.1494,-63.6487 142.7143,-50.0253 125.8918,-38.8103"/>
<polygon fill="#000000" stroke="#000000" points="127.731,-35.83 117.469,-33.1951 123.8481,-41.6543 127.731,-35.83"/>
</g>
</g>
</svg>
