<?xml version="1.0" encoding="UTF-8" standalone="no"?>
<!DOCTYPE svg PUBLIC "-//W3C//DTD SVG 1.1//EN"
 "http://www.w3.org/Graphics/SVG/1.1/DTD/svg11.dtd">
<!-- Generated by graphviz version 2.42.3 (20191010.1750)
 -->
<!-- Title: %3 Pages: 1 -->
<svg width="352pt" height="188pt"
 viewBox="0.00 0.00 351.89 188.00" xmlns="http://www.w3.org/2000/svg" xmlns:xlink="http://www.w3.org/1999/xlink">
<g id="graph0" class="graph" transform="scale(1 1) rotate(0) translate(4 184)">
<title>%3</title>
<polygon fill="white" stroke="transparent" points="-4,4 -4,-184 347.89,-184 347.89,4 -4,4"/>
<!-- fenics -->
<g id="node1" class="node">
<title>fenics</title>
<g id="a_node1"><a xlink:href="https://github.com/conda-forge/fenics-feedstock" xlink:title="fenics">
<ellipse fill="#fde725" stroke="black" cx="177.79" cy="-90" rx="40.09" ry="18"/>
<text text-anchor="middle" x="177.79" y="-86.3" font-family="Times,serif" font-size="14.00">fenics</text>
</a>
</g>
</g>
<!-- conda&#45;forge&#45;pinning -->
<g id="node5" class="node">
<title>conda&#45;forge&#45;pinning</title>
<ellipse fill="none" stroke="black" cx="211.79" cy="-18" rx="103.18" ry="18"/>
<text text-anchor="middle" x="211.79" y="-14.3" font-family="Times,serif" font-size="14.00">conda&#45;forge&#45;pinning</text>
</g>
<!-- fenics&#45;&gt;conda&#45;forge&#45;pinning -->
<g id="edge1" class="edge">
<title>fenics&#45;&gt;conda&#45;forge&#45;pinning</title>
<path fill="none" stroke="black" d="M186.03,-72.05C189.89,-64.09 194.6,-54.41 198.92,-45.51"/>
<polygon fill="black" stroke="black" points="202.18,-46.8 203.4,-36.28 195.89,-43.74 202.18,-46.8"/>
</g>
<!-- libadjoint -->
<g id="node2" class="node">
<title>libadjoint</title>
<g id="a_node2"><a xlink:href="https://github.com/conda-forge/libadjoint-feedstock/pull/18" xlink:title="libadjoint">
<ellipse fill="#31688e" stroke="black" cx="59.79" cy="-90" rx="59.59" ry="18"/>
<text text-anchor="middle" x="59.79" y="-86.3" font-family="Times,serif" font-size="14.00" fill="white">libadjoint</text>
</a>
</g>
</g>
<!-- libadjoint&#45;&gt;conda&#45;forge&#45;pinning -->
<g id="edge2" class="edge">
<title>libadjoint&#45;&gt;conda&#45;forge&#45;pinning</title>
<path fill="none" stroke="black" d="M91.29,-74.5C113.42,-64.3 143.32,-50.53 167.8,-39.26"/>
<polygon fill="black" stroke="black" points="169.27,-42.44 176.89,-35.07 166.34,-36.08 169.27,-42.44"/>
</g>
<!-- slepc4py -->
<g id="node3" class="node">
<title>slepc4py</title>
<g id="a_node3"><a xlink:href="https://github.com/conda-forge/slepc4py-feedstock/pull/16" xlink:title="slepc4py">
<ellipse fill="#31688e" stroke="black" cx="211.79" cy="-162" rx="50.09" ry="18"/>
<text text-anchor="middle" x="211.79" y="-158.3" font-family="Times,serif" font-size="14.00" fill="white">slepc4py</text>
</a>
</g>
</g>
<!-- slepc4py&#45;&gt;fenics -->
<g id="edge3" class="edge">
<title>slepc4py&#45;&gt;fenics</title>
<path fill="none" stroke="black" d="M203.56,-144.05C199.6,-135.89 194.75,-125.91 190.34,-116.82"/>
<polygon fill="black" stroke="black" points="193.47,-115.25 185.95,-107.79 187.17,-118.31 193.47,-115.25"/>
</g>
<!-- slepc4py&#45;&gt;conda&#45;forge&#45;pinning -->
<g id="edge4" class="edge">
<title>slepc4py&#45;&gt;conda&#45;forge&#45;pinning</title>
<path fill="none" stroke="black" d="M217.88,-144.07C221.24,-133.79 225.09,-120.31 226.79,-108 228.99,-92.15 228.99,-87.85 226.79,-72 225.61,-63.48 223.41,-54.39 221.04,-46.2"/>
<polygon fill="black" stroke="black" points="224.32,-44.94 218.03,-36.41 217.63,-46.99 224.32,-44.94"/>
</g>
<!-- daetk -->
<g id="node4" class="node">
<title>daetk</title>
<g id="a_node4"><a xlink:href="https://github.com/conda-forge/daetk-feedstock/pull/2" xlink:title="daetk">
<ellipse fill="#31688e" stroke="black" cx="308.79" cy="-90" rx="35.19" ry="18"/>
<text text-anchor="middle" x="308.79" y="-86.3" font-family="Times,serif" font-size="14.00" fill="white">daetk</text>
</a>
</g>
</g>
<!-- daetk&#45;&gt;conda&#45;forge&#45;pinning -->
<g id="edge5" class="edge">
<title>daetk&#45;&gt;conda&#45;forge&#45;pinning</title>
<path fill="none" stroke="black" d="M289.17,-74.83C275.9,-65.26 258.1,-52.42 242.92,-41.46"/>
<polygon fill="black" stroke="black" points="244.96,-38.62 234.81,-35.61 240.87,-44.3 244.96,-38.62"/>
</g>
</g>
</svg>
