<?xml version="1.0" encoding="UTF-8" standalone="no"?>
<!DOCTYPE svg PUBLIC "-//W3C//DTD SVG 1.1//EN"
 "http://www.w3.org/Graphics/SVG/1.1/DTD/svg11.dtd">
<!-- Generated by graphviz version 2.42.3 (20191010.1750)
 -->
<!-- Title: %3 Pages: 1 -->
<svg width="314pt" height="116pt"
 viewBox="0.00 0.00 314.39 116.00" xmlns="http://www.w3.org/2000/svg" xmlns:xlink="http://www.w3.org/1999/xlink">
<g id="graph0" class="graph" transform="scale(1 1) rotate(0) translate(4 112)">
<title>%3</title>
<polygon fill="white" stroke="transparent" points="-4,4 -4,-112 310.39,-112 310.39,4 -4,4"/>
<!-- fenics -->
<g id="node1" class="node">
<title>fenics</title>
<g id="a_node1"><a xlink:href="https://github.com/conda-forge/fenics-feedstock/pull/108" xlink:title="fenics">
<ellipse fill="#31688e" stroke="black" cx="40.3" cy="-90" rx="40.09" ry="18"/>
<text text-anchor="middle" x="40.3" y="-86.3" font-family="Times,serif" font-size="14.00" fill="white">fenics</text>
</a>
</g>
</g>
<!-- conda&#45;forge&#45;pinning -->
<g id="node4" class="node">
<title>conda&#45;forge&#45;pinning</title>
<ellipse fill="none" stroke="black" cx="158.3" cy="-18" rx="103.18" ry="18"/>
<text text-anchor="middle" x="158.3" y="-14.3" font-family="Times,serif" font-size="14.00">conda&#45;forge&#45;pinning</text>
</g>
<!-- fenics&#45;&gt;conda&#45;forge&#45;pinning -->
<g id="edge1" class="edge">
<title>fenics&#45;&gt;conda&#45;forge&#45;pinning</title>
<path fill="none" stroke="black" d="M63.61,-75.17C80.19,-65.33 102.8,-51.92 121.77,-40.67"/>
<polygon fill="black" stroke="black" points="123.65,-43.62 130.47,-35.51 120.08,-37.6 123.65,-43.62"/>
</g>
<!-- libadjoint -->
<g id="node2" class="node">
<title>libadjoint</title>
<g id="a_node2"><a xlink:href="https://github.com/conda-forge/libadjoint-feedstock/pull/18" xlink:title="libadjoint">
<ellipse fill="#31688e" stroke="black" cx="158.3" cy="-90" rx="59.59" ry="18"/>
<text text-anchor="middle" x="158.3" y="-86.3" font-family="Times,serif" font-size="14.00" fill="white">libadjoint</text>
</a>
</g>
</g>
<!-- libadjoint&#45;&gt;conda&#45;forge&#45;pinning -->
<g id="edge2" class="edge">
<title>libadjoint&#45;&gt;conda&#45;forge&#45;pinning</title>
<path fill="none" stroke="black" d="M158.3,-71.7C158.3,-63.98 158.3,-54.71 158.3,-46.11"/>
<polygon fill="black" stroke="black" points="161.8,-46.1 158.3,-36.1 154.8,-46.1 161.8,-46.1"/>
</g>
<!-- daetk -->
<g id="node3" class="node">
<title>daetk</title>
<g id="a_node3"><a xlink:href="https://github.com/conda-forge/daetk-feedstock/pull/2" xlink:title="daetk">
<ellipse fill="#31688e" stroke="black" cx="271.3" cy="-90" rx="35.19" ry="18"/>
<text text-anchor="middle" x="271.3" y="-86.3" font-family="Times,serif" font-size="14.00" fill="white">daetk</text>
</a>
</g>
</g>
<!-- daetk&#45;&gt;conda&#45;forge&#45;pinning -->
<g id="edge3" class="edge">
<title>daetk&#45;&gt;conda&#45;forge&#45;pinning</title>
<path fill="none" stroke="black" d="M249.78,-75.67C233.93,-65.85 212.02,-52.28 193.62,-40.88"/>
<polygon fill="black" stroke="black" points="195.26,-37.78 184.91,-35.49 191.57,-43.73 195.26,-37.78"/>
</g>
</g>
</svg>
