<?xml version="1.0" encoding="UTF-8" standalone="no"?>
<!DOCTYPE svg PUBLIC "-//W3C//DTD SVG 1.1//EN"
 "http://www.w3.org/Graphics/SVG/1.1/DTD/svg11.dtd">
<!-- Generated by graphviz version 2.40.1 (20161225.0304)
 -->
<!-- Title: %3 Pages: 1 -->
<svg width="442pt" height="188pt"
 viewBox="0.00 0.00 441.89 188.00" xmlns="http://www.w3.org/2000/svg" xmlns:xlink="http://www.w3.org/1999/xlink">
<g id="graph0" class="graph" transform="scale(1 1) rotate(0) translate(4 184)">
<title>%3</title>
<polygon fill="#ffffff" stroke="transparent" points="-4,4 -4,-184 437.8916,-184 437.8916,4 -4,4"/>
<!-- fenics -->
<g id="node1" class="node">
<title>fenics</title>
<ellipse fill="#fde725" stroke="#000000" cx="208.0969" cy="-18" rx="40.0939" ry="18"/>
<text text-anchor="middle" x="208.0969" y="-14.3" font-family="Times,serif" font-size="14.00" fill="#000000">fenics</text>
</g>
<!-- libadjoint -->
<g id="node2" class="node">
<title>libadjoint</title>
<ellipse fill="#fde725" stroke="#000000" cx="374.0969" cy="-90" rx="59.5901" ry="18"/>
<text text-anchor="middle" x="374.0969" y="-86.3" font-family="Times,serif" font-size="14.00" fill="#000000">libadjoint</text>
</g>
<!-- petsc4py -->
<g id="node3" class="node">
<title>petsc4py</title>
<ellipse fill="#31688e" stroke="#000000" cx="138.0969" cy="-162" rx="50.0912" ry="18"/>
<text text-anchor="middle" x="138.0969" y="-158.3" font-family="Times,serif" font-size="14.00" fill="#ffffff">petsc4py</text>
</g>
<!-- petsc4py&#45;&gt;fenics -->
<g id="edge1" class="edge">
<title>petsc4py&#45;&gt;fenics</title>
<path fill="none" stroke="#000000" d="M136.7341,-143.6778C136.117,-124.6893 137.4203,-94.6705 149.0969,-72 155.6328,-59.3103 166.433,-48.1046 177.019,-39.2372"/>
<polygon fill="#000000" stroke="#000000" points="179.3262,-41.8749 184.9983,-32.9262 174.9837,-36.3845 179.3262,-41.8749"/>
</g>
<!-- slepc4py -->
<g id="node5" class="node">
<title>slepc4py</title>
<ellipse fill="#fde725" stroke="#000000" cx="208.0969" cy="-90" rx="50.0912" ry="18"/>
<text text-anchor="middle" x="208.0969" y="-86.3" font-family="Times,serif" font-size="14.00" fill="#000000">slepc4py</text>
</g>
<!-- petsc4py&#45;&gt;slepc4py -->
<g id="edge3" class="edge">
<title>petsc4py&#45;&gt;slepc4py</title>
<path fill="none" stroke="#000000" d="M154.6859,-144.937C163.449,-135.9235 174.3647,-124.6959 184.04,-114.7443"/>
<polygon fill="#000000" stroke="#000000" points="186.6794,-117.0504 191.1407,-107.4407 181.6604,-112.1709 186.6794,-117.0504"/>
</g>
<!-- proteus -->
<g id="node7" class="node">
<title>proteus</title>
<ellipse fill="#fde725" stroke="#000000" cx="50.0969" cy="-90" rx="44.6926" ry="18"/>
<text text-anchor="middle" x="50.0969" y="-86.3" font-family="Times,serif" font-size="14.00" fill="#000000">proteus</text>
</g>
<!-- petsc4py&#45;&gt;proteus -->
<g id="edge2" class="edge">
<title>petsc4py&#45;&gt;proteus</title>
<path fill="none" stroke="#000000" d="M117.6867,-145.3008C105.9414,-135.6909 91.012,-123.476 78.1734,-112.9717"/>
<polygon fill="#000000" stroke="#000000" points="80.0489,-109.984 70.093,-106.3604 75.6162,-115.4017 80.0489,-109.984"/>
</g>
<!-- slepc -->
<g id="node4" class="node">
<title>slepc</title>
<ellipse fill="#31688e" stroke="#000000" cx="286.0969" cy="-162" rx="35.194" ry="18"/>
<text text-anchor="middle" x="286.0969" y="-158.3" font-family="Times,serif" font-size="14.00" fill="#ffffff">slepc</text>
</g>
<!-- slepc&#45;&gt;fenics -->
<g id="edge4" class="edge">
<title>slepc&#45;&gt;fenics</title>
<path fill="none" stroke="#000000" d="M285.5066,-143.9466C284.1778,-124.9105 280.0044,-94.6045 267.0969,-72 260.0188,-59.6045 249.1119,-48.4567 238.5922,-39.5533"/>
<polygon fill="#000000" stroke="#000000" points="240.6788,-36.7399 230.6932,-33.1988 236.291,-42.1941 240.6788,-36.7399"/>
</g>
<!-- slepc&#45;&gt;libadjoint -->
<g id="edge5" class="edge">
<title>slepc&#45;&gt;libadjoint</title>
<path fill="none" stroke="#000000" d="M304.7594,-146.7307C316.5416,-137.0907 332.0008,-124.4422 345.3315,-113.5353"/>
<polygon fill="#000000" stroke="#000000" points="347.7816,-116.053 353.3048,-107.0117 343.3489,-110.6352 347.7816,-116.053"/>
</g>
<!-- slepc&#45;&gt;slepc4py -->
<g id="edge6" class="edge">
<title>slepc&#45;&gt;slepc4py</title>
<path fill="none" stroke="#000000" d="M268.7862,-146.0209C258.5756,-136.5957 245.4567,-124.486 234.03,-113.9382"/>
<polygon fill="#000000" stroke="#000000" points="236.1681,-111.1487 226.446,-106.9377 231.4201,-116.2923 236.1681,-111.1487"/>
</g>
<!-- slepc4py&#45;&gt;fenics -->
<g id="edge7" class="edge">
<title>slepc4py&#45;&gt;fenics</title>
<path fill="none" stroke="#000000" d="M208.0969,-71.8314C208.0969,-64.131 208.0969,-54.9743 208.0969,-46.4166"/>
<polygon fill="#000000" stroke="#000000" points="211.597,-46.4132 208.0969,-36.4133 204.597,-46.4133 211.597,-46.4132"/>
</g>
<!-- daetk -->
<g id="node6" class="node">
<title>daetk</title>
<ellipse fill="#35b779" stroke="#000000" cx="35.0969" cy="-162" rx="35.194" ry="18"/>
<text text-anchor="middle" x="35.0969" y="-158.3" font-family="Times,serif" font-size="14.00" fill="#000000">daetk</text>
</g>
<!-- daetk&#45;&gt;proteus -->
<g id="edge8" class="edge">
<title>daetk&#45;&gt;proteus</title>
<path fill="none" stroke="#000000" d="M38.882,-143.8314C40.4863,-136.131 42.3939,-126.9743 44.1768,-118.4166"/>
<polygon fill="#000000" stroke="#000000" points="47.6476,-118.9169 46.2608,-108.4133 40.7947,-117.4892 47.6476,-118.9169"/>
</g>
</g>
</svg>
