<?xml version="1.0" encoding="UTF-8" standalone="no"?>
<!DOCTYPE svg PUBLIC "-//W3C//DTD SVG 1.1//EN"
 "http://www.w3.org/Graphics/SVG/1.1/DTD/svg11.dtd">
<!-- Generated by graphviz version 2.42.3 (20191010.1750)
 -->
<!-- Title: %3 Pages: 1 -->
<svg width="586pt" height="260pt"
 viewBox="0.00 0.00 586.34 260.00" xmlns="http://www.w3.org/2000/svg" xmlns:xlink="http://www.w3.org/1999/xlink">
<g id="graph0" class="graph" transform="scale(1 1) rotate(0) translate(4 256)">
<title>%3</title>
<polygon fill="white" stroke="transparent" points="-4,4 -4,-256 582.34,-256 582.34,4 -4,4"/>
<!-- fenics -->
<g id="node1" class="node">
<title>fenics</title>
<ellipse fill="#fde725" stroke="black" cx="143.05" cy="-90" rx="40.09" ry="18"/>
<text text-anchor="middle" x="143.05" y="-86.3" font-family="Times,serif" font-size="14.00">fenics</text>
</g>
<!-- conda&#45;forge&#45;pinning -->
<g id="node8" class="node">
<title>conda&#45;forge&#45;pinning</title>
<ellipse fill="none" stroke="black" cx="294.05" cy="-18" rx="103.18" ry="18"/>
<text text-anchor="middle" x="294.05" y="-14.3" font-family="Times,serif" font-size="14.00">conda&#45;forge&#45;pinning</text>
</g>
<!-- fenics&#45;&gt;conda&#45;forge&#45;pinning -->
<g id="edge1" class="edge">
<title>fenics&#45;&gt;conda&#45;forge&#45;pinning</title>
<path fill="none" stroke="black" d="M170.04,-76.49C192.33,-66.15 224.4,-51.29 250.34,-39.26"/>
<polygon fill="black" stroke="black" points="251.99,-42.35 259.59,-34.97 249.04,-36 251.99,-42.35"/>
</g>
<!-- libadjoint -->
<g id="node2" class="node">
<title>libadjoint</title>
<ellipse fill="#fde725" stroke="black" cx="294.05" cy="-162" rx="59.59" ry="18"/>
<text text-anchor="middle" x="294.05" y="-158.3" font-family="Times,serif" font-size="14.00">libadjoint</text>
</g>
<!-- libadjoint&#45;&gt;conda&#45;forge&#45;pinning -->
<g id="edge2" class="edge">
<title>libadjoint&#45;&gt;conda&#45;forge&#45;pinning</title>
<path fill="none" stroke="black" d="M294.05,-143.87C294.05,-119.67 294.05,-75.21 294.05,-46.39"/>
<polygon fill="black" stroke="black" points="297.55,-46.19 294.05,-36.19 290.55,-46.19 297.55,-46.19"/>
</g>
<!-- petsc4py -->
<g id="node3" class="node">
<title>petsc4py</title>
<g id="a_node3"><a xlink:href="https://github.com/conda-forge/petsc4py-feedstock/pull/23" xlink:title="petsc4py">
<ellipse fill="#31688e" stroke="black" cx="50.05" cy="-234" rx="50.09" ry="18"/>
<text text-anchor="middle" x="50.05" y="-230.3" font-family="Times,serif" font-size="14.00" fill="white">petsc4py</text>
</a>
</g>
</g>
<!-- petsc4py&#45;&gt;fenics -->
<g id="edge3" class="edge">
<title>petsc4py&#45;&gt;fenics</title>
<path fill="none" stroke="black" d="M50.11,-215.87C50.95,-196.85 54.68,-165.94 69.05,-144 78.56,-129.47 93.55,-117.64 107.55,-108.88"/>
<polygon fill="black" stroke="black" points="109.72,-111.67 116.55,-103.57 106.16,-105.64 109.72,-111.67"/>
</g>
<!-- slepc4py -->
<g id="node5" class="node">
<title>slepc4py</title>
<ellipse fill="#fde725" stroke="black" cx="128.05" cy="-162" rx="50.09" ry="18"/>
<text text-anchor="middle" x="128.05" y="-158.3" font-family="Times,serif" font-size="14.00">slepc4py</text>
</g>
<!-- petsc4py&#45;&gt;slepc4py -->
<g id="edge4" class="edge">
<title>petsc4py&#45;&gt;slepc4py</title>
<path fill="none" stroke="black" d="M67.74,-217.12C78.04,-207.87 91.2,-196.07 102.6,-185.84"/>
<polygon fill="black" stroke="black" points="105.04,-188.35 110.15,-179.06 100.37,-183.14 105.04,-188.35"/>
</g>
<!-- petsc4py&#45;&gt;conda&#45;forge&#45;pinning -->
<g id="edge5" class="edge">
<title>petsc4py&#45;&gt;conda&#45;forge&#45;pinning</title>
<path fill="none" stroke="black" d="M47.93,-215.9C46.26,-197.7 45.2,-168.24 52.05,-144 62.12,-108.35 64.57,-94.45 94.05,-72 123.11,-49.86 160.65,-36.95 195.34,-29.43"/>
<polygon fill="black" stroke="black" points="196.42,-32.78 205.52,-27.35 195.03,-25.92 196.42,-32.78"/>
</g>
<!-- slepc -->
<g id="node4" class="node">
<title>slepc</title>
<g id="a_node4"><a xlink:href="https://github.com/conda-forge/slepc-feedstock/pull/36" xlink:title="slepc">
<ellipse fill="#31688e" stroke="black" cx="250.05" cy="-234" rx="35.19" ry="18"/>
<text text-anchor="middle" x="250.05" y="-230.3" font-family="Times,serif" font-size="14.00" fill="white">slepc</text>
</a>
</g>
</g>
<!-- slepc&#45;&gt;fenics -->
<g id="edge6" class="edge">
<title>slepc&#45;&gt;fenics</title>
<path fill="none" stroke="black" d="M239.03,-216.65C226.73,-198.59 206.06,-168.78 187.05,-144 179.58,-134.27 171.03,-123.82 163.46,-114.8"/>
<polygon fill="black" stroke="black" points="165.98,-112.36 156.85,-106.98 160.63,-116.87 165.98,-112.36"/>
</g>
<!-- slepc&#45;&gt;libadjoint -->
<g id="edge7" class="edge">
<title>slepc&#45;&gt;libadjoint</title>
<path fill="none" stroke="black" d="M260.25,-216.76C265.48,-208.44 271.98,-198.1 277.88,-188.73"/>
<polygon fill="black" stroke="black" points="280.92,-190.45 283.28,-180.12 275,-186.73 280.92,-190.45"/>
</g>
<!-- slepc&#45;&gt;slepc4py -->
<g id="edge8" class="edge">
<title>slepc&#45;&gt;slepc4py</title>
<path fill="none" stroke="black" d="M227.38,-220C209.14,-209.53 183.19,-194.64 162.39,-182.71"/>
<polygon fill="black" stroke="black" points="163.95,-179.57 153.54,-177.63 160.47,-185.64 163.95,-179.57"/>
</g>
<!-- slepc&#45;&gt;conda&#45;forge&#45;pinning -->
<g id="edge9" class="edge">
<title>slepc&#45;&gt;conda&#45;forge&#45;pinning</title>
<path fill="none" stroke="black" d="M282.89,-227.44C309.57,-221 345.55,-207.52 363.05,-180 391.74,-134.85 348.42,-75.74 318.51,-43.16"/>
<polygon fill="black" stroke="black" points="321.03,-40.73 311.62,-35.86 315.94,-45.54 321.03,-40.73"/>
</g>
<!-- slepc4py&#45;&gt;fenics -->
<g id="edge10" class="edge">
<title>slepc4py&#45;&gt;fenics</title>
<path fill="none" stroke="black" d="M131.75,-143.7C133.41,-135.98 135.39,-126.71 137.24,-118.11"/>
<polygon fill="black" stroke="black" points="140.71,-118.62 139.38,-108.1 133.86,-117.15 140.71,-118.62"/>
</g>
<!-- slepc4py&#45;&gt;conda&#45;forge&#45;pinning -->
<g id="edge11" class="edge">
<title>slepc4py&#45;&gt;conda&#45;forge&#45;pinning</title>
<path fill="none" stroke="black" d="M147.2,-145.36C159.97,-134.87 177.1,-120.71 192.05,-108 217.81,-86.1 246.84,-60.7 267.32,-42.65"/>
<polygon fill="black" stroke="black" points="269.81,-45.12 275,-35.88 265.18,-39.87 269.81,-45.12"/>
</g>
<!-- daetk -->
<g id="node6" class="node">
<title>daetk</title>
<ellipse fill="#35b779" stroke="black" cx="445.05" cy="-90" rx="35.19" ry="18"/>
<text text-anchor="middle" x="445.05" y="-86.3" font-family="Times,serif" font-size="14.00">daetk</text>
</g>
<!-- daetk&#45;&gt;conda&#45;forge&#45;pinning -->
<g id="edge12" class="edge">
<title>daetk&#45;&gt;conda&#45;forge&#45;pinning</title>
<path fill="none" stroke="black" d="M419.77,-77.28C397.47,-66.94 364.46,-51.64 337.86,-39.31"/>
<polygon fill="black" stroke="black" points="339.29,-36.12 328.75,-35.09 336.35,-42.47 339.29,-36.12"/>
</g>
<!-- damask -->
<g id="node7" class="node">
<title>damask</title>
<ellipse fill="#35b779" stroke="black" cx="538.05" cy="-90" rx="40.09" ry="18"/>
<text text-anchor="middle" x="538.05" y="-86.3" font-family="Times,serif" font-size="14.00">damask</text>
</g>
<!-- damask&#45;&gt;conda&#45;forge&#45;pinning -->
<g id="edge13" class="edge">
<title>damask&#45;&gt;conda&#45;forge&#45;pinning</title>
<path fill="none" stroke="black" d="M507.57,-78.06C501.46,-75.97 495.07,-73.86 489.05,-72 446.43,-58.83 398.05,-45.67 360.14,-35.76"/>
<polygon fill="black" stroke="black" points="360.79,-32.31 350.24,-33.18 359.03,-39.09 360.79,-32.31"/>
</g>
</g>
</svg>
