<?xml version="1.0" encoding="UTF-8" standalone="no"?>
<!DOCTYPE svg PUBLIC "-//W3C//DTD SVG 1.1//EN"
 "http://www.w3.org/Graphics/SVG/1.1/DTD/svg11.dtd">
<!-- Generated by graphviz version 2.42.3 (20191010.1750)
 -->
<!-- Title: %3 Pages: 1 -->
<svg width="853pt" height="116pt"
 viewBox="0.00 0.00 853.39 116.00" xmlns="http://www.w3.org/2000/svg" xmlns:xlink="http://www.w3.org/1999/xlink">
<g id="graph0" class="graph" transform="scale(1 1) rotate(0) translate(4 112)">
<title>%3</title>
<polygon fill="white" stroke="transparent" points="-4,4 -4,-112 849.39,-112 849.39,4 -4,4"/>
<!-- gdal -->
<g id="node1" class="node">
<title>gdal</title>
<g id="a_node1"><a xlink:href="https://github.com/conda-forge/gdal-feedstock/pull/380" xlink:title="gdal">
<ellipse fill="#31688e" stroke="black" cx="30.55" cy="-90" rx="30.59" ry="18"/>
<text text-anchor="middle" x="30.55" y="-86.3" font-family="Times,serif" font-size="14.00" fill="white">gdal</text>
</a>
</g>
</g>
<!-- conda&#45;forge&#45;pinning -->
<g id="node8" class="node">
<title>conda&#45;forge&#45;pinning</title>
<ellipse fill="none" stroke="black" cx="418.55" cy="-18" rx="103.18" ry="18"/>
<text text-anchor="middle" x="418.55" y="-14.3" font-family="Times,serif" font-size="14.00">conda&#45;forge&#45;pinning</text>
</g>
<!-- gdal&#45;&gt;conda&#45;forge&#45;pinning -->
<g id="edge1" class="edge">
<title>gdal&#45;&gt;conda&#45;forge&#45;pinning</title>
<path fill="none" stroke="black" d="M53.28,-77.91C58.53,-75.69 64.15,-73.56 69.55,-72 150.93,-48.52 246.15,-34.95 316.56,-27.42"/>
<polygon fill="black" stroke="black" points="317.18,-30.88 326.76,-26.36 316.45,-23.92 317.18,-30.88"/>
</g>
<!-- texlive&#45;core -->
<g id="node2" class="node">
<title>texlive&#45;core</title>
<g id="a_node2"><a xlink:href="https://github.com/conda-forge/texlive-core-feedstock/pull/34" xlink:title="texlive core">
<ellipse fill="#31688e" stroke="black" cx="148.55" cy="-90" rx="69.59" ry="18"/>
<text text-anchor="middle" x="148.55" y="-86.3" font-family="Times,serif" font-size="14.00" fill="white">texlive core</text>
</a>
</g>
</g>
<!-- texlive&#45;core&#45;&gt;conda&#45;forge&#45;pinning -->
<g id="edge2" class="edge">
<title>texlive&#45;core&#45;&gt;conda&#45;forge&#45;pinning</title>
<path fill="none" stroke="black" d="M195.89,-76.73C239.61,-65.39 304.94,-48.45 353.54,-35.85"/>
<polygon fill="black" stroke="black" points="354.53,-39.21 363.34,-33.31 352.78,-32.44 354.53,-39.21"/>
</g>
<!-- r&#45;pdftools -->
<g id="node3" class="node">
<title>r&#45;pdftools</title>
<g id="a_node3"><a xlink:href="https://github.com/conda-forge/r-pdftools-feedstock" xlink:title="r pdftools">
<ellipse fill="#35b779" stroke="black" cx="295.55" cy="-90" rx="59.59" ry="18"/>
<text text-anchor="middle" x="295.55" y="-86.3" font-family="Times,serif" font-size="14.00">r pdftools</text>
</a>
</g>
</g>
<!-- r&#45;pdftools&#45;&gt;conda&#45;forge&#45;pinning -->
<g id="edge3" class="edge">
<title>r&#45;pdftools&#45;&gt;conda&#45;forge&#45;pinning</title>
<path fill="none" stroke="black" d="M322.24,-73.81C339.44,-64.02 362.05,-51.15 381.05,-40.34"/>
<polygon fill="black" stroke="black" points="382.81,-43.37 389.77,-35.38 379.34,-37.28 382.81,-43.37"/>
</g>
<!-- libvips -->
<g id="node4" class="node">
<title>libvips</title>
<g id="a_node4"><a xlink:href="https://github.com/conda-forge/libvips-feedstock" xlink:title="libvips">
<ellipse fill="#35b779" stroke="black" cx="418.55" cy="-90" rx="44.69" ry="18"/>
<text text-anchor="middle" x="418.55" y="-86.3" font-family="Times,serif" font-size="14.00">libvips</text>
</a>
</g>
</g>
<!-- libvips&#45;&gt;conda&#45;forge&#45;pinning -->
<g id="edge4" class="edge">
<title>libvips&#45;&gt;conda&#45;forge&#45;pinning</title>
<path fill="none" stroke="black" d="M418.55,-71.7C418.55,-63.98 418.55,-54.71 418.55,-46.11"/>
<polygon fill="black" stroke="black" points="422.05,-46.1 418.55,-36.1 415.05,-46.1 422.05,-46.1"/>
</g>
<!-- kfilemetadata -->
<g id="node5" class="node">
<title>kfilemetadata</title>
<g id="a_node5"><a xlink:href="https://github.com/conda-forge/kfilemetadata-feedstock" xlink:title="kfilemetadata">
<ellipse fill="#35b779" stroke="black" cx="555.55" cy="-90" rx="74.19" ry="18"/>
<text text-anchor="middle" x="555.55" y="-86.3" font-family="Times,serif" font-size="14.00">kfilemetadata</text>
</a>
</g>
</g>
<!-- kfilemetadata&#45;&gt;conda&#45;forge&#45;pinning -->
<g id="edge5" class="edge">
<title>kfilemetadata&#45;&gt;conda&#45;forge&#45;pinning</title>
<path fill="none" stroke="black" d="M525.14,-73.46C505.78,-63.57 480.46,-50.63 459.35,-39.85"/>
<polygon fill="black" stroke="black" points="460.79,-36.65 450.3,-35.22 457.61,-42.89 460.79,-36.65"/>
</g>
<!-- pdf2svg -->
<g id="node6" class="node">
<title>pdf2svg</title>
<g id="a_node6"><a xlink:href="https://github.com/conda-forge/pdf2svg-feedstock" xlink:title="pdf2svg">
<ellipse fill="#35b779" stroke="black" cx="692.55" cy="-90" rx="44.69" ry="18"/>
<text text-anchor="middle" x="692.55" y="-86.3" font-family="Times,serif" font-size="14.00">pdf2svg</text>
</a>
</g>
</g>
<!-- pdf2svg&#45;&gt;conda&#45;forge&#45;pinning -->
<g id="edge6" class="edge">
<title>pdf2svg&#45;&gt;conda&#45;forge&#45;pinning</title>
<path fill="none" stroke="black" d="M658.95,-78.03C652.22,-75.94 645.18,-73.84 638.55,-72 589.2,-58.31 533.07,-44.82 489.86,-34.87"/>
<polygon fill="black" stroke="black" points="490.53,-31.44 480,-32.62 488.97,-38.26 490.53,-31.44"/>
</g>
<!-- pdfgrep -->
<g id="node7" class="node">
<title>pdfgrep</title>
<g id="a_node7"><a xlink:href="https://github.com/conda-forge/pdfgrep-feedstock" xlink:title="pdfgrep">
<ellipse fill="#35b779" stroke="black" cx="800.55" cy="-90" rx="44.69" ry="18"/>
<text text-anchor="middle" x="800.55" y="-86.3" font-family="Times,serif" font-size="14.00">pdfgrep</text>
</a>
</g>
</g>
<!-- pdfgrep&#45;&gt;conda&#45;forge&#45;pinning -->
<g id="edge7" class="edge">
<title>pdfgrep&#45;&gt;conda&#45;forge&#45;pinning</title>
<path fill="none" stroke="black" d="M767.34,-77.72C760.52,-75.63 753.34,-73.61 746.55,-72 667.8,-53.35 576.85,-39.22 510.73,-30.26"/>
<polygon fill="black" stroke="black" points="511.12,-26.78 500.75,-28.92 510.19,-33.72 511.12,-26.78"/>
</g>
</g>
</svg>
