<?xml version="1.0" encoding="UTF-8" standalone="no"?>
<!DOCTYPE svg PUBLIC "-//W3C//DTD SVG 1.1//EN"
 "http://www.w3.org/Graphics/SVG/1.1/DTD/svg11.dtd">
<!-- Generated by graphviz version 2.42.3 (20191010.1750)
 -->
<!-- Title: %3 Pages: 1 -->
<svg width="715pt" height="116pt"
 viewBox="0.00 0.00 715.39 116.00" xmlns="http://www.w3.org/2000/svg" xmlns:xlink="http://www.w3.org/1999/xlink">
<g id="graph0" class="graph" transform="scale(1 1) rotate(0) translate(4 112)">
<title>%3</title>
<polygon fill="white" stroke="transparent" points="-4,4 -4,-112 711.39,-112 711.39,4 -4,4"/>
<!-- gdal -->
<g id="node1" class="node">
<title>gdal</title>
<g id="a_node1"><a xlink:href="https://github.com/conda-forge/gdal-feedstock/pull/380" xlink:title="gdal">
<ellipse fill="#31688e" stroke="black" cx="30.55" cy="-90" rx="30.59" ry="18"/>
<text text-anchor="middle" x="30.55" y="-86.3" font-family="Times,serif" font-size="14.00" fill="white">gdal</text>
</a>
</g>
</g>
<!-- conda&#45;forge&#45;pinning -->
<g id="node7" class="node">
<title>conda&#45;forge&#45;pinning</title>
<ellipse fill="none" stroke="black" cx="348.55" cy="-18" rx="103.18" ry="18"/>
<text text-anchor="middle" x="348.55" y="-14.3" font-family="Times,serif" font-size="14.00">conda&#45;forge&#45;pinning</text>
</g>
<!-- gdal&#45;&gt;conda&#45;forge&#45;pinning -->
<g id="edge1" class="edge">
<title>gdal&#45;&gt;conda&#45;forge&#45;pinning</title>
<path fill="none" stroke="black" d="M53.74,-77.88C58.86,-75.71 64.32,-73.61 69.55,-72 131.3,-52.94 202.97,-39.5 258.21,-30.93"/>
<polygon fill="black" stroke="black" points="258.97,-34.35 268.32,-29.38 257.91,-27.43 258.97,-34.35"/>
</g>
<!-- texlive&#45;core -->
<g id="node2" class="node">
<title>texlive&#45;core</title>
<g id="a_node2"><a xlink:href="https://github.com/conda-forge/texlive-core-feedstock/pull/34" xlink:title="texlive core">
<ellipse fill="#31688e" stroke="black" cx="148.55" cy="-90" rx="69.59" ry="18"/>
<text text-anchor="middle" x="148.55" y="-86.3" font-family="Times,serif" font-size="14.00" fill="white">texlive core</text>
</a>
</g>
</g>
<!-- texlive&#45;core&#45;&gt;conda&#45;forge&#45;pinning -->
<g id="edge2" class="edge">
<title>texlive&#45;core&#45;&gt;conda&#45;forge&#45;pinning</title>
<path fill="none" stroke="black" d="M188.06,-75.17C218.63,-64.47 261.27,-49.55 294.92,-37.77"/>
<polygon fill="black" stroke="black" points="296.31,-40.99 304.6,-34.38 294,-34.38 296.31,-40.99"/>
</g>
<!-- libvips -->
<g id="node3" class="node">
<title>libvips</title>
<g id="a_node3"><a xlink:href="https://github.com/conda-forge/libvips-feedstock/pull/11" xlink:title="libvips">
<ellipse fill="#31688e" stroke="black" cx="280.55" cy="-90" rx="44.69" ry="18"/>
<text text-anchor="middle" x="280.55" y="-86.3" font-family="Times,serif" font-size="14.00" fill="white">libvips</text>
</a>
</g>
</g>
<!-- libvips&#45;&gt;conda&#45;forge&#45;pinning -->
<g id="edge3" class="edge">
<title>libvips&#45;&gt;conda&#45;forge&#45;pinning</title>
<path fill="none" stroke="black" d="M296.32,-72.76C304.74,-64.1 315.28,-53.25 324.68,-43.57"/>
<polygon fill="black" stroke="black" points="327.46,-45.74 331.91,-36.12 322.43,-40.86 327.46,-45.74"/>
</g>
<!-- kfilemetadata -->
<g id="node4" class="node">
<title>kfilemetadata</title>
<g id="a_node4"><a xlink:href="https://github.com/conda-forge/kfilemetadata-feedstock/pull/7" xlink:title="kfilemetadata">
<ellipse fill="#31688e" stroke="black" cx="417.55" cy="-90" rx="74.19" ry="18"/>
<text text-anchor="middle" x="417.55" y="-86.3" font-family="Times,serif" font-size="14.00" fill="white">kfilemetadata</text>
</a>
</g>
</g>
<!-- kfilemetadata&#45;&gt;conda&#45;forge&#45;pinning -->
<g id="edge4" class="edge">
<title>kfilemetadata&#45;&gt;conda&#45;forge&#45;pinning</title>
<path fill="none" stroke="black" d="M401.2,-72.41C392.64,-63.73 382.01,-52.95 372.54,-43.34"/>
<polygon fill="black" stroke="black" points="374.77,-40.62 365.26,-35.96 369.79,-45.54 374.77,-40.62"/>
</g>
<!-- pdf2svg -->
<g id="node5" class="node">
<title>pdf2svg</title>
<g id="a_node5"><a xlink:href="https://github.com/conda-forge/pdf2svg-feedstock/pull/1" xlink:title="pdf2svg">
<ellipse fill="#31688e" stroke="black" cx="554.55" cy="-90" rx="44.69" ry="18"/>
<text text-anchor="middle" x="554.55" y="-86.3" font-family="Times,serif" font-size="14.00" fill="white">pdf2svg</text>
</a>
</g>
</g>
<!-- pdf2svg&#45;&gt;conda&#45;forge&#45;pinning -->
<g id="edge5" class="edge">
<title>pdf2svg&#45;&gt;conda&#45;forge&#45;pinning</title>
<path fill="none" stroke="black" d="M521.45,-77.75C489.61,-66.93 440.89,-50.38 403.27,-37.59"/>
<polygon fill="black" stroke="black" points="404.06,-34.17 393.47,-34.27 401.81,-40.8 404.06,-34.17"/>
</g>
<!-- pdfgrep -->
<g id="node6" class="node">
<title>pdfgrep</title>
<g id="a_node6"><a xlink:href="https://github.com/conda-forge/pdfgrep-feedstock/pull/1" xlink:title="pdfgrep">
<ellipse fill="#31688e" stroke="black" cx="662.55" cy="-90" rx="44.69" ry="18"/>
<text text-anchor="middle" x="662.55" y="-86.3" font-family="Times,serif" font-size="14.00" fill="white">pdfgrep</text>
</a>
</g>
</g>
<!-- pdfgrep&#45;&gt;conda&#45;forge&#45;pinning -->
<g id="edge6" class="edge">
<title>pdfgrep&#45;&gt;conda&#45;forge&#45;pinning</title>
<path fill="none" stroke="black" d="M629,-77.85C622.26,-75.77 615.21,-73.72 608.55,-72 548.86,-56.57 480.52,-42.78 428.89,-33.15"/>
<polygon fill="black" stroke="black" points="429.27,-29.66 418.8,-31.27 427.99,-36.54 429.27,-29.66"/>
</g>
</g>
</svg>
