<?xml version="1.0" encoding="UTF-8" standalone="no"?>
<!DOCTYPE svg PUBLIC "-//W3C//DTD SVG 1.1//EN"
 "http://www.w3.org/Graphics/SVG/1.1/DTD/svg11.dtd">
<!-- Generated by graphviz version 2.42.3 (20191010.1750)
 -->
<!-- Title: %3 Pages: 1 -->
<svg width="333pt" height="116pt"
 viewBox="0.00 0.00 333.39 116.00" xmlns="http://www.w3.org/2000/svg" xmlns:xlink="http://www.w3.org/1999/xlink">
<g id="graph0" class="graph" transform="scale(1 1) rotate(0) translate(4 112)">
<title>%3</title>
<polygon fill="white" stroke="transparent" points="-4,4 -4,-112 329.39,-112 329.39,4 -4,4"/>
<!-- gdal -->
<g id="node1" class="node">
<title>gdal</title>
<g id="a_node1"><a xlink:href="https://github.com/conda-forge/gdal-feedstock/pull/388" xlink:title="gdal">
<ellipse fill="#31688e" stroke="black" cx="30.55" cy="-90" rx="30.59" ry="18"/>
<text text-anchor="middle" x="30.55" y="-86.3" font-family="Times,serif" font-size="14.00" fill="white">gdal</text>
</a>
</g>
</g>
<!-- conda&#45;forge&#45;pinning -->
<g id="node4" class="node">
<title>conda&#45;forge&#45;pinning</title>
<ellipse fill="none" stroke="black" cx="148.55" cy="-18" rx="103.18" ry="18"/>
<text text-anchor="middle" x="148.55" y="-14.3" font-family="Times,serif" font-size="14.00">conda&#45;forge&#45;pinning</text>
</g>
<!-- gdal&#45;&gt;conda&#45;forge&#45;pinning -->
<g id="edge1" class="edge">
<title>gdal&#45;&gt;conda&#45;forge&#45;pinning</title>
<path fill="none" stroke="black" d="M51.37,-76.65C68.13,-66.71 92.08,-52.5 112.01,-40.68"/>
<polygon fill="black" stroke="black" points="114.03,-43.55 120.84,-35.44 110.46,-37.53 114.03,-43.55"/>
</g>
<!-- texlive&#45;core -->
<g id="node2" class="node">
<title>texlive&#45;core</title>
<g id="a_node2"><a xlink:href="https://github.com/conda-forge/texlive-core-feedstock/pull/36" xlink:title="texlive core">
<ellipse fill="#31688e" stroke="black" cx="148.55" cy="-90" rx="69.59" ry="18"/>
<text text-anchor="middle" x="148.55" y="-86.3" font-family="Times,serif" font-size="14.00" fill="white">texlive core</text>
</a>
</g>
</g>
<!-- texlive&#45;core&#45;&gt;conda&#45;forge&#45;pinning -->
<g id="edge2" class="edge">
<title>texlive&#45;core&#45;&gt;conda&#45;forge&#45;pinning</title>
<path fill="none" stroke="black" d="M148.55,-71.7C148.55,-63.98 148.55,-54.71 148.55,-46.11"/>
<polygon fill="black" stroke="black" points="152.05,-46.1 148.55,-36.1 145.05,-46.1 152.05,-46.1"/>
</g>
<!-- pdfgrep -->
<g id="node3" class="node">
<title>pdfgrep</title>
<g id="a_node3"><a xlink:href="https://github.com/conda-forge/pdfgrep-feedstock/pull/2" xlink:title="pdfgrep">
<ellipse fill="#31688e" stroke="black" cx="280.55" cy="-90" rx="44.69" ry="18"/>
<text text-anchor="middle" x="280.55" y="-86.3" font-family="Times,serif" font-size="14.00" fill="white">pdfgrep</text>
</a>
</g>
</g>
<!-- pdfgrep&#45;&gt;conda&#45;forge&#45;pinning -->
<g id="edge3" class="edge">
<title>pdfgrep&#45;&gt;conda&#45;forge&#45;pinning</title>
<path fill="none" stroke="black" d="M254.47,-75.17C235.53,-65.13 209.58,-51.37 188.1,-39.98"/>
<polygon fill="black" stroke="black" points="189.68,-36.85 179.2,-35.26 186.4,-43.03 189.68,-36.85"/>
</g>
</g>
</svg>
