<?xml version="1.0" encoding="UTF-8" standalone="no"?>
<!DOCTYPE svg PUBLIC "-//W3C//DTD SVG 1.1//EN"
 "http://www.w3.org/Graphics/SVG/1.1/DTD/svg11.dtd">
<!-- Generated by graphviz version 2.42.3 (20191010.1750)
 -->
<!-- Title: %3 Pages: 1 -->
<svg width="579pt" height="116pt"
 viewBox="0.00 0.00 579.39 116.00" xmlns="http://www.w3.org/2000/svg" xmlns:xlink="http://www.w3.org/1999/xlink">
<g id="graph0" class="graph" transform="scale(1 1) rotate(0) translate(4 112)">
<title>%3</title>
<polygon fill="white" stroke="transparent" points="-4,4 -4,-112 575.39,-112 575.39,4 -4,4"/>
<!-- gdal -->
<g id="node1" class="node">
<title>gdal</title>
<g id="a_node1"><a xlink:href="https://github.com/conda-forge/gdal-feedstock/pull/388" xlink:title="gdal">
<ellipse fill="#31688e" stroke="black" cx="30.55" cy="-90" rx="30.59" ry="18"/>
<text text-anchor="middle" x="30.55" y="-86.3" font-family="Times,serif" font-size="14.00" fill="white">gdal</text>
</a>
</g>
</g>
<!-- conda&#45;forge&#45;pinning -->
<g id="node6" class="node">
<title>conda&#45;forge&#45;pinning</title>
<ellipse fill="none" stroke="black" cx="295.55" cy="-18" rx="103.18" ry="18"/>
<text text-anchor="middle" x="295.55" y="-14.3" font-family="Times,serif" font-size="14.00">conda&#45;forge&#45;pinning</text>
</g>
<!-- gdal&#45;&gt;conda&#45;forge&#45;pinning -->
<g id="edge1" class="edge">
<title>gdal&#45;&gt;conda&#45;forge&#45;pinning</title>
<path fill="none" stroke="black" d="M53.79,-78.05C58.91,-75.87 64.36,-73.72 69.55,-72 117.8,-55.97 173.39,-42.87 217.36,-33.7"/>
<polygon fill="black" stroke="black" points="218.33,-37.07 227.41,-31.63 216.91,-30.22 218.33,-37.07"/>
</g>
<!-- texlive&#45;core -->
<g id="node2" class="node">
<title>texlive&#45;core</title>
<g id="a_node2"><a xlink:href="https://github.com/conda-forge/texlive-core-feedstock/pull/36" xlink:title="texlive core">
<ellipse fill="#31688e" stroke="black" cx="148.55" cy="-90" rx="69.59" ry="18"/>
<text text-anchor="middle" x="148.55" y="-86.3" font-family="Times,serif" font-size="14.00" fill="white">texlive core</text>
</a>
</g>
</g>
<!-- texlive&#45;core&#45;&gt;conda&#45;forge&#45;pinning -->
<g id="edge2" class="edge">
<title>texlive&#45;core&#45;&gt;conda&#45;forge&#45;pinning</title>
<path fill="none" stroke="black" d="M180.44,-73.81C201.52,-63.77 229.4,-50.5 252.45,-39.52"/>
<polygon fill="black" stroke="black" points="254.14,-42.59 261.67,-35.13 251.13,-36.27 254.14,-42.59"/>
</g>
<!-- r&#45;pdftools -->
<g id="node3" class="node">
<title>r&#45;pdftools</title>
<g id="a_node3"><a xlink:href="https://github.com/conda-forge/r-pdftools-feedstock" xlink:title="r pdftools">
<ellipse fill="#35b779" stroke="black" cx="295.55" cy="-90" rx="59.59" ry="18"/>
<text text-anchor="middle" x="295.55" y="-86.3" font-family="Times,serif" font-size="14.00">r pdftools</text>
</a>
</g>
</g>
<!-- r&#45;pdftools&#45;&gt;conda&#45;forge&#45;pinning -->
<g id="edge3" class="edge">
<title>r&#45;pdftools&#45;&gt;conda&#45;forge&#45;pinning</title>
<path fill="none" stroke="black" d="M295.55,-71.7C295.55,-63.98 295.55,-54.71 295.55,-46.11"/>
<polygon fill="black" stroke="black" points="299.05,-46.1 295.55,-36.1 292.05,-46.1 299.05,-46.1"/>
</g>
<!-- libvips -->
<g id="node4" class="node">
<title>libvips</title>
<g id="a_node4"><a xlink:href="https://github.com/conda-forge/libvips-feedstock" xlink:title="libvips">
<ellipse fill="#35b779" stroke="black" cx="418.55" cy="-90" rx="44.69" ry="18"/>
<text text-anchor="middle" x="418.55" y="-86.3" font-family="Times,serif" font-size="14.00">libvips</text>
</a>
</g>
</g>
<!-- libvips&#45;&gt;conda&#45;forge&#45;pinning -->
<g id="edge4" class="edge">
<title>libvips&#45;&gt;conda&#45;forge&#45;pinning</title>
<path fill="none" stroke="black" d="M393.66,-74.83C376.25,-64.93 352.68,-51.52 333.01,-40.32"/>
<polygon fill="black" stroke="black" points="334.71,-37.26 324.28,-35.35 331.24,-43.34 334.71,-37.26"/>
</g>
<!-- pdfgrep -->
<g id="node5" class="node">
<title>pdfgrep</title>
<g id="a_node5"><a xlink:href="https://github.com/conda-forge/pdfgrep-feedstock/pull/2" xlink:title="pdfgrep">
<ellipse fill="#31688e" stroke="black" cx="526.55" cy="-90" rx="44.69" ry="18"/>
<text text-anchor="middle" x="526.55" y="-86.3" font-family="Times,serif" font-size="14.00" fill="white">pdfgrep</text>
</a>
</g>
</g>
<!-- pdfgrep&#45;&gt;conda&#45;forge&#45;pinning -->
<g id="edge5" class="edge">
<title>pdfgrep&#45;&gt;conda&#45;forge&#45;pinning</title>
<path fill="none" stroke="black" d="M492.58,-78.23C485.94,-76.14 479.03,-73.99 472.55,-72 433.61,-60.04 389.76,-46.91 355.45,-36.71"/>
<polygon fill="black" stroke="black" points="356.16,-33.27 345.58,-33.78 354.17,-39.98 356.16,-33.27"/>
</g>
</g>
</svg>
