<?xml version="1.0" encoding="UTF-8" standalone="no"?>
<!DOCTYPE svg PUBLIC "-//W3C//DTD SVG 1.1//EN"
 "http://www.w3.org/Graphics/SVG/1.1/DTD/svg11.dtd">
<!-- Generated by graphviz version 2.42.3 (20191010.1750)
 -->
<!-- Title: %3 Pages: 1 -->
<svg width="687pt" height="116pt"
 viewBox="0.00 0.00 687.39 116.00" xmlns="http://www.w3.org/2000/svg" xmlns:xlink="http://www.w3.org/1999/xlink">
<g id="graph0" class="graph" transform="scale(1 1) rotate(0) translate(4 112)">
<title>%3</title>
<polygon fill="white" stroke="transparent" points="-4,4 -4,-112 683.39,-112 683.39,4 -4,4"/>
<!-- gdal -->
<g id="node1" class="node">
<title>gdal</title>
<g id="a_node1"><a xlink:href="https://github.com/conda-forge/gdal-feedstock/pull/388" xlink:title="gdal">
<ellipse fill="#31688e" stroke="black" cx="30.55" cy="-90" rx="30.59" ry="18"/>
<text text-anchor="middle" x="30.55" y="-86.3" font-family="Times,serif" font-size="14.00" fill="white">gdal</text>
</a>
</g>
</g>
<!-- conda&#45;forge&#45;pinning -->
<g id="node7" class="node">
<title>conda&#45;forge&#45;pinning</title>
<ellipse fill="none" stroke="black" cx="356.55" cy="-18" rx="103.18" ry="18"/>
<text text-anchor="middle" x="356.55" y="-14.3" font-family="Times,serif" font-size="14.00">conda&#45;forge&#45;pinning</text>
</g>
<!-- gdal&#45;&gt;conda&#45;forge&#45;pinning -->
<g id="edge1" class="edge">
<title>gdal&#45;&gt;conda&#45;forge&#45;pinning</title>
<path fill="none" stroke="black" d="M53.73,-77.86C58.86,-75.69 64.32,-73.6 69.55,-72 133.42,-52.46 207.62,-38.99 264.57,-30.52"/>
<polygon fill="black" stroke="black" points="265.25,-33.96 274.64,-29.05 264.24,-27.03 265.25,-33.96"/>
</g>
<!-- texlive&#45;core -->
<g id="node2" class="node">
<title>texlive&#45;core</title>
<g id="a_node2"><a xlink:href="https://github.com/conda-forge/texlive-core-feedstock/pull/36" xlink:title="texlive core">
<ellipse fill="#31688e" stroke="black" cx="148.55" cy="-90" rx="69.59" ry="18"/>
<text text-anchor="middle" x="148.55" y="-86.3" font-family="Times,serif" font-size="14.00" fill="white">texlive core</text>
</a>
</g>
</g>
<!-- texlive&#45;core&#45;&gt;conda&#45;forge&#45;pinning -->
<g id="edge2" class="edge">
<title>texlive&#45;core&#45;&gt;conda&#45;forge&#45;pinning</title>
<path fill="none" stroke="black" d="M189.15,-75.34C221.24,-64.54 266.36,-49.35 301.68,-37.47"/>
<polygon fill="black" stroke="black" points="303,-40.72 311.36,-34.21 300.76,-34.08 303,-40.72"/>
</g>
<!-- r&#45;pdftools -->
<g id="node3" class="node">
<title>r&#45;pdftools</title>
<g id="a_node3"><a xlink:href="https://github.com/conda-forge/r-pdftools-feedstock" xlink:title="r pdftools">
<ellipse fill="#35b779" stroke="black" cx="295.55" cy="-90" rx="59.59" ry="18"/>
<text text-anchor="middle" x="295.55" y="-86.3" font-family="Times,serif" font-size="14.00">r pdftools</text>
</a>
</g>
</g>
<!-- r&#45;pdftools&#45;&gt;conda&#45;forge&#45;pinning -->
<g id="edge3" class="edge">
<title>r&#45;pdftools&#45;&gt;conda&#45;forge&#45;pinning</title>
<path fill="none" stroke="black" d="M310,-72.41C317.49,-63.82 326.78,-53.16 335.09,-43.63"/>
<polygon fill="black" stroke="black" points="337.84,-45.79 341.77,-35.96 332.56,-41.2 337.84,-45.79"/>
</g>
<!-- libvips -->
<g id="node4" class="node">
<title>libvips</title>
<g id="a_node4"><a xlink:href="https://github.com/conda-forge/libvips-feedstock" xlink:title="libvips">
<ellipse fill="#35b779" stroke="black" cx="418.55" cy="-90" rx="44.69" ry="18"/>
<text text-anchor="middle" x="418.55" y="-86.3" font-family="Times,serif" font-size="14.00">libvips</text>
</a>
</g>
</g>
<!-- libvips&#45;&gt;conda&#45;forge&#45;pinning -->
<g id="edge4" class="edge">
<title>libvips&#45;&gt;conda&#45;forge&#45;pinning</title>
<path fill="none" stroke="black" d="M404.17,-72.76C396.57,-64.18 387.07,-53.46 378.56,-43.86"/>
<polygon fill="black" stroke="black" points="380.96,-41.29 371.71,-36.12 375.72,-45.93 380.96,-41.29"/>
</g>
<!-- pdf2svg -->
<g id="node5" class="node">
<title>pdf2svg</title>
<g id="a_node5"><a xlink:href="https://github.com/conda-forge/pdf2svg-feedstock/pull/2" xlink:title="pdf2svg">
<ellipse fill="#31688e" stroke="black" cx="526.55" cy="-90" rx="44.69" ry="18"/>
<text text-anchor="middle" x="526.55" y="-86.3" font-family="Times,serif" font-size="14.00" fill="white">pdf2svg</text>
</a>
</g>
</g>
<!-- pdf2svg&#45;&gt;conda&#45;forge&#45;pinning -->
<g id="edge5" class="edge">
<title>pdf2svg&#45;&gt;conda&#45;forge&#45;pinning</title>
<path fill="none" stroke="black" d="M496.15,-76.49C470.65,-65.98 433.76,-50.79 404.31,-38.67"/>
<polygon fill="black" stroke="black" points="405.61,-35.42 395.03,-34.85 402.94,-41.89 405.61,-35.42"/>
</g>
<!-- pdfgrep -->
<g id="node6" class="node">
<title>pdfgrep</title>
<g id="a_node6"><a xlink:href="https://github.com/conda-forge/pdfgrep-feedstock/pull/2" xlink:title="pdfgrep">
<ellipse fill="#31688e" stroke="black" cx="634.55" cy="-90" rx="44.69" ry="18"/>
<text text-anchor="middle" x="634.55" y="-86.3" font-family="Times,serif" font-size="14.00" fill="white">pdfgrep</text>
</a>
</g>
</g>
<!-- pdfgrep&#45;&gt;conda&#45;forge&#45;pinning -->
<g id="edge6" class="edge">
<title>pdfgrep&#45;&gt;conda&#45;forge&#45;pinning</title>
<path fill="none" stroke="black" d="M600.96,-78.01C594.22,-75.92 587.18,-73.83 580.55,-72 530.04,-58.09 472.53,-44.53 428.42,-34.61"/>
<polygon fill="black" stroke="black" points="429.18,-31.19 418.65,-32.42 427.65,-38.02 429.18,-31.19"/>
</g>
</g>
</svg>
