<?xml version="1.0" encoding="UTF-8" standalone="no"?>
<!DOCTYPE svg PUBLIC "-//W3C//DTD SVG 1.1//EN"
 "http://www.w3.org/Graphics/SVG/1.1/DTD/svg11.dtd">
<!-- Generated by graphviz version 2.42.3 (20191010.1750)
 -->
<!-- Title: %3 Pages: 1 -->
<svg width="1243pt" height="548pt"
 viewBox="0.00 0.00 1242.54 548.00" xmlns="http://www.w3.org/2000/svg" xmlns:xlink="http://www.w3.org/1999/xlink">
<g id="graph0" class="graph" transform="scale(1 1) rotate(0) translate(4 544)">
<title>%3</title>
<polygon fill="white" stroke="transparent" points="-4,4 -4,-544 1238.54,-544 1238.54,4 -4,4"/>
<!-- basemap -->
<g id="node1" class="node">
<title>basemap</title>
<ellipse fill="#fde725" stroke="black" cx="45" cy="-90" rx="45" ry="18"/>
<text text-anchor="middle" x="45" y="-86.3" font-family="Times,serif" font-size="14.00">basemap</text>
</g>
<!-- conda&#45;forge&#45;pinning -->
<g id="node2" class="node">
<title>conda&#45;forge&#45;pinning</title>
<ellipse fill="none" stroke="black" cx="575" cy="-18" rx="103.5" ry="18"/>
<text text-anchor="middle" x="575" y="-14.3" font-family="Times,serif" font-size="14.00">conda&#45;forge&#45;pinning</text>
</g>
<!-- basemap&#45;&gt;conda&#45;forge&#45;pinning -->
<g id="edge1" class="edge">
<title>basemap&#45;&gt;conda&#45;forge&#45;pinning</title>
<path fill="none" stroke="black" d="M79.08,-78.12C87.18,-75.83 95.85,-73.62 104,-72 228.33,-47.28 373.58,-33.12 469.55,-25.76"/>
<polygon fill="black" stroke="black" points="469.84,-29.25 479.55,-25 469.32,-22.27 469.84,-29.25"/>
</g>
<!-- cartopy -->
<g id="node3" class="node">
<title>cartopy</title>
<ellipse fill="#35b779" stroke="black" cx="263" cy="-90" rx="45" ry="18"/>
<text text-anchor="middle" x="263" y="-86.3" font-family="Times,serif" font-size="14.00">cartopy</text>
</g>
<!-- cartopy&#45;&gt;conda&#45;forge&#45;pinning -->
<g id="edge2" class="edge">
<title>cartopy&#45;&gt;conda&#45;forge&#45;pinning</title>
<path fill="none" stroke="black" d="M297.83,-78.5C305.74,-76.25 314.14,-73.95 322,-72 380.59,-57.44 447.47,-43.55 497.75,-33.64"/>
<polygon fill="black" stroke="black" points="498.43,-37.07 507.57,-31.71 497.09,-30.2 498.43,-37.07"/>
</g>
<!-- cdo -->
<g id="node4" class="node">
<title>cdo</title>
<ellipse fill="#35b779" stroke="black" cx="173" cy="-90" rx="27" ry="18"/>
<text text-anchor="middle" x="173" y="-86.3" font-family="Times,serif" font-size="14.00">cdo</text>
</g>
<!-- cdo&#45;&gt;conda&#45;forge&#45;pinning -->
<g id="edge3" class="edge">
<title>cdo&#45;&gt;conda&#45;forge&#45;pinning</title>
<path fill="none" stroke="black" d="M193.52,-78.03C198.48,-75.74 203.84,-73.55 209,-72 294.43,-46.27 394.96,-32.86 469.02,-25.97"/>
<polygon fill="black" stroke="black" points="469.65,-29.43 479.29,-25.04 469.02,-22.46 469.65,-29.43"/>
</g>
<!-- gdal -->
<g id="node5" class="node">
<title>gdal</title>
<ellipse fill="#fde725" stroke="black" cx="515" cy="-450" rx="30.59" ry="18"/>
<text text-anchor="middle" x="515" y="-446.3" font-family="Times,serif" font-size="14.00">gdal</text>
</g>
<!-- gdal&#45;&gt;conda&#45;forge&#45;pinning -->
<g id="edge4" class="edge">
<title>gdal&#45;&gt;conda&#45;forge&#45;pinning</title>
<path fill="none" stroke="black" d="M512.56,-431.98C506.97,-393.43 492.49,-296.49 477,-216 470.91,-184.38 458.96,-174.59 469,-144 482.76,-102.11 518.7,-65.13 544.93,-42.46"/>
<polygon fill="black" stroke="black" points="547.33,-45.02 552.72,-35.9 542.82,-39.67 547.33,-45.02"/>
</g>
<!-- ncl -->
<g id="node6" class="node">
<title>ncl</title>
<ellipse fill="#fde725" stroke="black" cx="651" cy="-378" rx="27" ry="18"/>
<text text-anchor="middle" x="651" y="-374.3" font-family="Times,serif" font-size="14.00">ncl</text>
</g>
<!-- gdal&#45;&gt;ncl -->
<g id="edge5" class="edge">
<title>gdal&#45;&gt;ncl</title>
<path fill="none" stroke="black" d="M537.15,-437.6C559.98,-425.85 595.71,-407.46 621.04,-394.42"/>
<polygon fill="black" stroke="black" points="622.91,-397.4 630.2,-389.71 619.7,-391.17 622.91,-397.4"/>
</g>
<!-- postgis -->
<g id="node7" class="node">
<title>postgis</title>
<ellipse fill="#fde725" stroke="black" cx="707" cy="-306" rx="45" ry="18"/>
<text text-anchor="middle" x="707" y="-302.3" font-family="Times,serif" font-size="14.00">postgis</text>
</g>
<!-- gdal&#45;&gt;postgis -->
<g id="edge6" class="edge">
<title>gdal&#45;&gt;postgis</title>
<path fill="none" stroke="black" d="M545.61,-448.43C584.27,-445.99 650.19,-435.8 687,-396 702.33,-379.42 706.79,-353.7 707.73,-334.16"/>
<polygon fill="black" stroke="black" points="711.23,-334.11 707.94,-324.04 704.23,-333.97 711.23,-334.11"/>
</g>
<!-- pynio -->
<g id="node8" class="node">
<title>pynio</title>
<ellipse fill="#fde725" stroke="black" cx="433" cy="-234" rx="35.19" ry="18"/>
<text text-anchor="middle" x="433" y="-230.3" font-family="Times,serif" font-size="14.00">pynio</text>
</g>
<!-- gdal&#45;&gt;pynio -->
<g id="edge7" class="edge">
<title>gdal&#45;&gt;pynio</title>
<path fill="none" stroke="black" d="M503.44,-432.91C496.5,-422.71 487.91,-409.03 482,-396 461.49,-350.83 446.63,-294.74 438.95,-262.1"/>
<polygon fill="black" stroke="black" points="442.27,-260.94 436.62,-251.98 435.45,-262.51 442.27,-260.94"/>
</g>
<!-- qgis -->
<g id="node9" class="node">
<title>qgis</title>
<ellipse fill="#fde725" stroke="black" cx="353" cy="-162" rx="30.59" ry="18"/>
<text text-anchor="middle" x="353" y="-158.3" font-family="Times,serif" font-size="14.00">qgis</text>
</g>
<!-- gdal&#45;&gt;qgis -->
<g id="edge8" class="edge">
<title>gdal&#45;&gt;qgis</title>
<path fill="none" stroke="black" d="M503.5,-433.26C479.97,-400.62 425.51,-322.7 389,-252 378.47,-231.6 368.85,-207.39 362.21,-189.37"/>
<polygon fill="black" stroke="black" points="365.44,-188.02 358.75,-179.81 358.86,-190.41 365.44,-188.02"/>
</g>
<!-- r&#45;rgdal -->
<g id="node10" class="node">
<title>r&#45;rgdal</title>
<ellipse fill="#fde725" stroke="black" cx="523" cy="-162" rx="45" ry="18"/>
<text text-anchor="middle" x="523" y="-158.3" font-family="Times,serif" font-size="14.00">r rgdal</text>
</g>
<!-- gdal&#45;&gt;r&#45;rgdal -->
<g id="edge9" class="edge">
<title>gdal&#45;&gt;r&#45;rgdal</title>
<path fill="none" stroke="black" d="M515.48,-431.97C516.81,-384.29 520.59,-249.18 522.23,-190.63"/>
<polygon fill="black" stroke="black" points="525.73,-190.4 522.52,-180.31 518.74,-190.2 525.73,-190.4"/>
</g>
<!-- r&#45;sf -->
<g id="node11" class="node">
<title>r&#45;sf</title>
<ellipse fill="#fde725" stroke="black" cx="575" cy="-90" rx="30.59" ry="18"/>
<text text-anchor="middle" x="575" y="-86.3" font-family="Times,serif" font-size="14.00">r sf</text>
</g>
<!-- gdal&#45;&gt;r&#45;sf -->
<g id="edge10" class="edge">
<title>gdal&#45;&gt;r&#45;sf</title>
<path fill="none" stroke="black" d="M530.62,-434.01C554.16,-409.73 596,-359.22 596,-307 596,-307 596,-307 596,-233 596,-192.56 587.56,-146.33 581.38,-117.9"/>
<polygon fill="black" stroke="black" points="584.75,-116.92 579.15,-107.93 577.92,-118.45 584.75,-116.92"/>
</g>
<!-- ncl&#45;&gt;conda&#45;forge&#45;pinning -->
<g id="edge11" class="edge">
<title>ncl&#45;&gt;conda&#45;forge&#45;pinning</title>
<path fill="none" stroke="black" d="M647.64,-360.03C642.69,-333.48 634,-280.44 634,-235 634,-235 634,-235 634,-161 634,-120.55 631.8,-108.79 615,-72 610.47,-62.09 603.84,-52.28 597.27,-43.83"/>
<polygon fill="black" stroke="black" points="599.83,-41.44 590.8,-35.9 594.41,-45.86 599.83,-41.44"/>
</g>
<!-- postgis&#45;&gt;conda&#45;forge&#45;pinning -->
<g id="edge12" class="edge">
<title>postgis&#45;&gt;conda&#45;forge&#45;pinning</title>
<path fill="none" stroke="black" d="M704.24,-287.97C696.3,-240.56 672.46,-108.1 648,-72 639.66,-59.69 627.46,-49.22 615.42,-40.92"/>
<polygon fill="black" stroke="black" points="617.02,-37.78 606.73,-35.26 613.2,-43.65 617.02,-37.78"/>
</g>
<!-- pynio&#45;&gt;conda&#45;forge&#45;pinning -->
<g id="edge13" class="edge">
<title>pynio&#45;&gt;conda&#45;forge&#45;pinning</title>
<path fill="none" stroke="black" d="M427.68,-216.08C418.88,-184.52 405.14,-115.92 436,-72 448.94,-53.58 469.18,-41.56 490.25,-33.72"/>
<polygon fill="black" stroke="black" points="491.63,-36.95 499.97,-30.4 489.37,-30.32 491.63,-36.95"/>
</g>
<!-- qgis&#45;&gt;conda&#45;forge&#45;pinning -->
<g id="edge14" class="edge">
<title>qgis&#45;&gt;conda&#45;forge&#45;pinning</title>
<path fill="none" stroke="black" d="M357.18,-144.01C362.99,-123.94 375.43,-90.89 398,-72 422.09,-51.84 453.65,-39.35 483.44,-31.61"/>
<polygon fill="black" stroke="black" points="484.58,-34.93 493.46,-29.16 482.92,-28.13 484.58,-34.93"/>
</g>
<!-- r&#45;rgdal&#45;&gt;conda&#45;forge&#45;pinning -->
<g id="edge15" class="edge">
<title>r&#45;rgdal&#45;&gt;conda&#45;forge&#45;pinning</title>
<path fill="none" stroke="black" d="M522.77,-143.94C523.08,-125.52 525.27,-95.65 535,-72 539.08,-62.09 545.47,-52.38 551.96,-44.04"/>
<polygon fill="black" stroke="black" points="554.76,-46.15 558.4,-36.2 549.35,-41.71 554.76,-46.15"/>
</g>
<!-- r&#45;sf&#45;&gt;conda&#45;forge&#45;pinning -->
<g id="edge16" class="edge">
<title>r&#45;sf&#45;&gt;conda&#45;forge&#45;pinning</title>
<path fill="none" stroke="black" d="M575,-71.7C575,-63.98 575,-54.71 575,-46.11"/>
<polygon fill="black" stroke="black" points="578.5,-46.1 575,-36.1 571.5,-46.1 578.5,-46.1"/>
</g>
<!-- geotiff -->
<g id="node12" class="node">
<title>geotiff</title>
<g id="a_node12"><a xlink:href="https://github.com/conda-forge/geotiff-feedstock/pull/27" xlink:title="geotiff">
<ellipse fill="#31688e" stroke="black" cx="346" cy="-522" rx="45" ry="18"/>
<text text-anchor="middle" x="346" y="-518.3" font-family="Times,serif" font-size="14.00" fill="white">geotiff</text>
</a>
</g>
</g>
<!-- geotiff&#45;&gt;conda&#45;forge&#45;pinning -->
<g id="edge17" class="edge">
<title>geotiff&#45;&gt;conda&#45;forge&#45;pinning</title>
<path fill="none" stroke="black" d="M335.48,-504.24C320.28,-478.4 294,-426.78 294,-379 294,-379 294,-379 294,-233 294,-154.06 303,-115.31 369,-72 401.66,-50.56 442.52,-37.79 479.21,-30.19"/>
<polygon fill="black" stroke="black" points="480.3,-33.54 489.44,-28.17 478.95,-26.67 480.3,-33.54"/>
</g>
<!-- geotiff&#45;&gt;gdal -->
<g id="edge18" class="edge">
<title>geotiff&#45;&gt;gdal</title>
<path fill="none" stroke="black" d="M376.21,-508.49C405.77,-496.24 450.69,-477.64 481.37,-464.93"/>
<polygon fill="black" stroke="black" points="482.89,-468.09 490.79,-461.03 480.21,-461.62 482.89,-468.09"/>
</g>
<!-- libspatialite -->
<g id="node13" class="node">
<title>libspatialite</title>
<g id="a_node13"><a xlink:href="https://github.com/conda-forge/libspatialite-feedstock/pull/52" xlink:title="libspatialite">
<ellipse fill="#31688e" stroke="black" cx="515" cy="-522" rx="74.19" ry="18"/>
<text text-anchor="middle" x="515" y="-518.3" font-family="Times,serif" font-size="14.00" fill="white">libspatialite</text>
</a>
</g>
</g>
<!-- libspatialite&#45;&gt;conda&#45;forge&#45;pinning -->
<g id="edge19" class="edge">
<title>libspatialite&#45;&gt;conda&#45;forge&#45;pinning</title>
<path fill="none" stroke="black" d="M586.41,-517.07C673.72,-507.96 810,-477.9 810,-379 810,-379 810,-379 810,-233 810,-149.92 785.24,-116.38 715,-72 691.43,-57.11 663.04,-45.39 638,-36.81"/>
<polygon fill="black" stroke="black" points="638.81,-33.39 628.22,-33.55 636.6,-40.03 638.81,-33.39"/>
</g>
<!-- libspatialite&#45;&gt;gdal -->
<g id="edge20" class="edge">
<title>libspatialite&#45;&gt;gdal</title>
<path fill="none" stroke="black" d="M515,-503.7C515,-495.98 515,-486.71 515,-478.11"/>
<polygon fill="black" stroke="black" points="518.5,-478.1 515,-468.1 511.5,-478.1 518.5,-478.1"/>
</g>
<!-- libspatialite&#45;&gt;qgis -->
<g id="edge21" class="edge">
<title>libspatialite&#45;&gt;qgis</title>
<path fill="none" stroke="black" d="M469.29,-507.67C415.09,-488.73 332,-448.37 332,-379 332,-379 332,-379 332,-305 332,-264.56 340.44,-218.33 346.62,-189.9"/>
<polygon fill="black" stroke="black" points="350.08,-190.45 348.85,-179.93 343.25,-188.92 350.08,-190.45"/>
</g>
<!-- magics -->
<g id="node14" class="node">
<title>magics</title>
<ellipse fill="#35b779" stroke="black" cx="741" cy="-162" rx="40.5" ry="18"/>
<text text-anchor="middle" x="741" y="-158.3" font-family="Times,serif" font-size="14.00">magics</text>
</g>
<!-- magics&#45;&gt;conda&#45;forge&#45;pinning -->
<g id="edge22" class="edge">
<title>magics&#45;&gt;conda&#45;forge&#45;pinning</title>
<path fill="none" stroke="black" d="M734.18,-144.25C725.5,-124.72 708.85,-92.5 686,-72 670.09,-57.72 649.66,-46.51 630.66,-38.15"/>
<polygon fill="black" stroke="black" points="631.76,-34.81 621.19,-34.15 629.04,-41.26 631.76,-34.81"/>
</g>
<!-- pyproj -->
<g id="node15" class="node">
<title>pyproj</title>
<ellipse fill="#35b779" stroke="black" cx="172" cy="-234" rx="40.5" ry="18"/>
<text text-anchor="middle" x="172" y="-230.3" font-family="Times,serif" font-size="14.00">pyproj</text>
</g>
<!-- pyproj&#45;&gt;basemap -->
<g id="edge23" class="edge">
<title>pyproj&#45;&gt;basemap</title>
<path fill="none" stroke="black" d="M149.99,-218.61C135.89,-208.75 117.73,-194.83 104,-180 86.11,-160.69 69.91,-135.41 59.04,-116.74"/>
<polygon fill="black" stroke="black" points="61.99,-114.85 54,-107.89 55.91,-118.31 61.99,-114.85"/>
</g>
<!-- pyproj&#45;&gt;conda&#45;forge&#45;pinning -->
<g id="edge24" class="edge">
<title>pyproj&#45;&gt;conda&#45;forge&#45;pinning</title>
<path fill="none" stroke="black" d="M160.36,-216.55C139.27,-184.57 100.19,-113.53 137,-72 158.59,-47.64 344.59,-32.26 467.17,-24.68"/>
<polygon fill="black" stroke="black" points="467.58,-28.16 477.35,-24.06 467.16,-21.18 467.58,-28.16"/>
</g>
<!-- pyproj&#45;&gt;cartopy -->
<g id="edge25" class="edge">
<title>pyproj&#45;&gt;cartopy</title>
<path fill="none" stroke="black" d="M182.62,-216.43C198.35,-191.88 228.01,-145.6 246.56,-116.65"/>
<polygon fill="black" stroke="black" points="249.72,-118.21 252.17,-107.9 243.83,-114.43 249.72,-118.21"/>
</g>
<!-- pyproj&#45;&gt;qgis -->
<g id="edge26" class="edge">
<title>pyproj&#45;&gt;qgis</title>
<path fill="none" stroke="black" d="M201.48,-221.6C233.58,-209.19 284.83,-189.36 318.7,-176.26"/>
<polygon fill="black" stroke="black" points="320.12,-179.47 328.19,-172.6 317.6,-172.94 320.12,-179.47"/>
</g>
<!-- r&#45;proj4 -->
<g id="node16" class="node">
<title>r&#45;proj4</title>
<ellipse fill="#35b779" stroke="black" cx="883" cy="-162" rx="45" ry="18"/>
<text text-anchor="middle" x="883" y="-158.3" font-family="Times,serif" font-size="14.00">r proj4</text>
</g>
<!-- r&#45;proj4&#45;&gt;conda&#45;forge&#45;pinning -->
<g id="edge27" class="edge">
<title>r&#45;proj4&#45;&gt;conda&#45;forge&#45;pinning</title>
<path fill="none" stroke="black" d="M893.24,-144.15C903.7,-124.53 916.18,-92.22 899,-72 871.9,-40.1 769.24,-27.36 686.65,-22.29"/>
<polygon fill="black" stroke="black" points="686.62,-18.79 676.43,-21.7 686.21,-25.77 686.62,-18.79"/>
</g>
<!-- r&#45;gribr -->
<g id="node17" class="node">
<title>r&#45;gribr</title>
<ellipse fill="#fde725" stroke="black" cx="845" cy="-90" rx="45" ry="18"/>
<text text-anchor="middle" x="845" y="-86.3" font-family="Times,serif" font-size="14.00">r gribr</text>
</g>
<!-- r&#45;proj4&#45;&gt;r&#45;gribr -->
<g id="edge28" class="edge">
<title>r&#45;proj4&#45;&gt;r&#45;gribr</title>
<path fill="none" stroke="black" d="M873.8,-144.05C869.37,-135.89 863.95,-125.91 859.02,-116.82"/>
<polygon fill="black" stroke="black" points="861.96,-114.91 854.11,-107.79 855.81,-118.25 861.96,-114.91"/>
</g>
<!-- r&#45;gribr&#45;&gt;conda&#45;forge&#45;pinning -->
<g id="edge29" class="edge">
<title>r&#45;gribr&#45;&gt;conda&#45;forge&#45;pinning</title>
<path fill="none" stroke="black" d="M809.8,-78.64C801.98,-76.4 793.72,-74.08 786,-72 738.23,-59.12 684.1,-45.55 642.62,-35.36"/>
<polygon fill="black" stroke="black" points="643.45,-31.96 632.9,-32.97 641.78,-38.76 643.45,-31.96"/>
</g>
<!-- magics&#45;metview -->
<g id="node18" class="node">
<title>magics&#45;metview</title>
<ellipse fill="#35b779" stroke="black" cx="956" cy="-234" rx="79.5" ry="18"/>
<text text-anchor="middle" x="956" y="-230.3" font-family="Times,serif" font-size="14.00">magics metview</text>
</g>
<!-- magics&#45;metview&#45;&gt;conda&#45;forge&#45;pinning -->
<g id="edge30" class="edge">
<title>magics&#45;metview&#45;&gt;conda&#45;forge&#45;pinning</title>
<path fill="none" stroke="black" d="M957.68,-215.8C959.88,-182.52 959.4,-109.28 918,-72 884.46,-41.8 772.7,-28.79 685.76,-23.2"/>
<polygon fill="black" stroke="black" points="685.76,-19.7 675.56,-22.57 685.33,-26.68 685.76,-19.7"/>
</g>
<!-- magics&#45;metview&#45;batch -->
<g id="node19" class="node">
<title>magics&#45;metview&#45;batch</title>
<ellipse fill="#35b779" stroke="black" cx="1126" cy="-162" rx="108.58" ry="18"/>
<text text-anchor="middle" x="1126" y="-158.3" font-family="Times,serif" font-size="14.00">magics metview batch</text>
</g>
<!-- magics&#45;metview&#45;batch&#45;&gt;conda&#45;forge&#45;pinning -->
<g id="edge31" class="edge">
<title>magics&#45;metview&#45;batch&#45;&gt;conda&#45;forge&#45;pinning</title>
<path fill="none" stroke="black" d="M1136.2,-143.93C1146.58,-124.09 1158.83,-91.58 1141,-72 1111.09,-39.16 843.28,-26.29 687.01,-21.55"/>
<polygon fill="black" stroke="black" points="686.98,-18.05 676.88,-21.25 686.77,-25.05 686.98,-18.05"/>
</g>
<!-- metview&#45;batch -->
<g id="node20" class="node">
<title>metview&#45;batch</title>
<ellipse fill="#fde725" stroke="black" cx="1058" cy="-90" rx="74.19" ry="18"/>
<text text-anchor="middle" x="1058" y="-86.3" font-family="Times,serif" font-size="14.00">metview batch</text>
</g>
<!-- magics&#45;metview&#45;batch&#45;&gt;metview&#45;batch -->
<g id="edge32" class="edge">
<title>magics&#45;metview&#45;batch&#45;&gt;metview&#45;batch</title>
<path fill="none" stroke="black" d="M1109.54,-144.05C1101.1,-135.37 1090.68,-124.64 1081.42,-115.11"/>
<polygon fill="black" stroke="black" points="1083.79,-112.52 1074.31,-107.79 1078.77,-117.4 1083.79,-112.52"/>
</g>
<!-- metview&#45;batch&#45;&gt;conda&#45;forge&#45;pinning -->
<g id="edge33" class="edge">
<title>metview&#45;batch&#45;&gt;conda&#45;forge&#45;pinning</title>
<path fill="none" stroke="black" d="M1002.69,-77.81C991.87,-75.77 980.6,-73.73 970,-72 867.19,-55.19 748.68,-39.82 668.5,-30.01"/>
<polygon fill="black" stroke="black" points="668.78,-26.52 658.43,-28.78 667.93,-33.47 668.78,-26.52"/>
</g>
</g>
</svg>
