<?xml version="1.0" encoding="UTF-8" standalone="no"?>
<!DOCTYPE svg PUBLIC "-//W3C//DTD SVG 1.1//EN"
 "http://www.w3.org/Graphics/SVG/1.1/DTD/svg11.dtd">
<!-- Generated by graphviz version 2.42.3 (20191010.1750)
 -->
<!-- Title: %3 Pages: 1 -->
<svg width="1089pt" height="476pt"
 viewBox="0.00 0.00 1088.71 476.00" xmlns="http://www.w3.org/2000/svg" xmlns:xlink="http://www.w3.org/1999/xlink">
<g id="graph0" class="graph" transform="scale(1 1) rotate(0) translate(4 472)">
<title>%3</title>
<polygon fill="white" stroke="transparent" points="-4,4 -4,-472 1084.71,-472 1084.71,4 -4,4"/>
<!-- basemap -->
<g id="node1" class="node">
<title>basemap</title>
<ellipse fill="#fde725" stroke="black" cx="247.17" cy="-90" rx="45" ry="18"/>
<text text-anchor="middle" x="247.17" y="-86.3" font-family="Times,serif" font-size="14.00">basemap</text>
</g>
<!-- conda&#45;forge&#45;pinning -->
<g id="node2" class="node">
<title>conda&#45;forge&#45;pinning</title>
<ellipse fill="none" stroke="black" cx="453.17" cy="-18" rx="103.5" ry="18"/>
<text text-anchor="middle" x="453.17" y="-14.3" font-family="Times,serif" font-size="14.00">conda&#45;forge&#45;pinning</text>
</g>
<!-- basemap&#45;&gt;conda&#45;forge&#45;pinning -->
<g id="edge1" class="edge">
<title>basemap&#45;&gt;conda&#45;forge&#45;pinning</title>
<path fill="none" stroke="black" d="M280.26,-77.75C312.11,-66.93 360.83,-50.38 398.45,-37.59"/>
<polygon fill="black" stroke="black" points="399.9,-40.8 408.24,-34.27 397.65,-34.17 399.9,-40.8"/>
</g>
<!-- cartopy -->
<g id="node3" class="node">
<title>cartopy</title>
<g id="a_node3"><a xlink:href="https://github.com/conda-forge/cartopy-feedstock/pull/81" xlink:title="cartopy">
<ellipse fill="#31688e" stroke="black" cx="67.17" cy="-90" rx="45" ry="18"/>
<text text-anchor="middle" x="67.17" y="-86.3" font-family="Times,serif" font-size="14.00" fill="white">cartopy</text>
</a>
</g>
</g>
<!-- cartopy&#45;&gt;conda&#45;forge&#45;pinning -->
<g id="edge2" class="edge">
<title>cartopy&#45;&gt;conda&#45;forge&#45;pinning</title>
<path fill="none" stroke="black" d="M100.37,-77.71C107.2,-75.62 114.38,-73.6 121.17,-72 201.01,-53.17 293.24,-39.04 360.2,-30.13"/>
<polygon fill="black" stroke="black" points="360.85,-33.57 370.31,-28.79 359.94,-26.63 360.85,-33.57"/>
</g>
<!-- cdo -->
<g id="node4" class="node">
<title>cdo</title>
<g id="a_node4"><a xlink:href="https://github.com/conda-forge/cdo-feedstock/pull/77" xlink:title="cdo">
<ellipse fill="#31688e" stroke="black" cx="157.17" cy="-90" rx="27" ry="18"/>
<text text-anchor="middle" x="157.17" y="-86.3" font-family="Times,serif" font-size="14.00" fill="white">cdo</text>
</a>
</g>
</g>
<!-- cdo&#45;&gt;conda&#45;forge&#45;pinning -->
<g id="edge3" class="edge">
<title>cdo&#45;&gt;conda&#45;forge&#45;pinning</title>
<path fill="none" stroke="black" d="M177.76,-78.24C182.71,-75.94 188.05,-73.7 193.17,-72 249.11,-53.39 314.09,-40.14 365.09,-31.55"/>
<polygon fill="black" stroke="black" points="365.81,-34.98 375.1,-29.89 364.66,-28.07 365.81,-34.98"/>
</g>
<!-- gdal -->
<g id="node5" class="node">
<title>gdal</title>
<ellipse fill="#fde725" stroke="black" cx="464.17" cy="-450" rx="30.59" ry="18"/>
<text text-anchor="middle" x="464.17" y="-446.3" font-family="Times,serif" font-size="14.00">gdal</text>
</g>
<!-- gdal&#45;&gt;conda&#45;forge&#45;pinning -->
<g id="edge4" class="edge">
<title>gdal&#45;&gt;conda&#45;forge&#45;pinning</title>
<path fill="none" stroke="black" d="M436.72,-441.92C384.98,-426.72 278.17,-385.82 278.17,-307 278.17,-307 278.17,-307 278.17,-233 278.17,-153.49 294.96,-122.75 356.17,-72 371.5,-59.29 390.34,-48.17 407.33,-39.45"/>
<polygon fill="black" stroke="black" points="409.16,-42.45 416.54,-34.85 406.03,-36.19 409.16,-42.45"/>
</g>
<!-- ncl -->
<g id="node6" class="node">
<title>ncl</title>
<ellipse fill="#fde725" stroke="black" cx="400.17" cy="-378" rx="27" ry="18"/>
<text text-anchor="middle" x="400.17" y="-374.3" font-family="Times,serif" font-size="14.00">ncl</text>
</g>
<!-- gdal&#45;&gt;ncl -->
<g id="edge5" class="edge">
<title>gdal&#45;&gt;ncl</title>
<path fill="none" stroke="black" d="M450.28,-433.81C441.61,-424.33 430.29,-411.95 420.61,-401.35"/>
<polygon fill="black" stroke="black" points="422.92,-398.7 413.59,-393.68 417.75,-403.42 422.92,-398.7"/>
</g>
<!-- postgis -->
<g id="node7" class="node">
<title>postgis</title>
<ellipse fill="#fde725" stroke="black" cx="464.17" cy="-306" rx="45" ry="18"/>
<text text-anchor="middle" x="464.17" y="-302.3" font-family="Times,serif" font-size="14.00">postgis</text>
</g>
<!-- gdal&#45;&gt;postgis -->
<g id="edge6" class="edge">
<title>gdal&#45;&gt;postgis</title>
<path fill="none" stroke="black" d="M464.17,-431.87C464.17,-407.67 464.17,-363.21 464.17,-334.39"/>
<polygon fill="black" stroke="black" points="467.67,-334.19 464.17,-324.19 460.67,-334.19 467.67,-334.19"/>
</g>
<!-- pynio -->
<g id="node8" class="node">
<title>pynio</title>
<ellipse fill="#fde725" stroke="black" cx="507.17" cy="-234" rx="35.19" ry="18"/>
<text text-anchor="middle" x="507.17" y="-230.3" font-family="Times,serif" font-size="14.00">pynio</text>
</g>
<!-- gdal&#45;&gt;pynio -->
<g id="edge7" class="edge">
<title>gdal&#45;&gt;pynio</title>
<path fill="none" stroke="black" d="M473.78,-432.73C486.87,-409.54 509.65,-365.21 518.17,-324 522.46,-303.23 519.07,-279.35 514.96,-261.56"/>
<polygon fill="black" stroke="black" points="518.35,-260.7 512.5,-251.86 511.56,-262.42 518.35,-260.7"/>
</g>
<!-- qgis -->
<g id="node9" class="node">
<title>qgis</title>
<ellipse fill="#fde725" stroke="black" cx="337.17" cy="-162" rx="30.59" ry="18"/>
<text text-anchor="middle" x="337.17" y="-158.3" font-family="Times,serif" font-size="14.00">qgis</text>
</g>
<!-- gdal&#45;&gt;qgis -->
<g id="edge8" class="edge">
<title>gdal&#45;&gt;qgis</title>
<path fill="none" stroke="black" d="M436.41,-442.08C413.11,-434.72 381.02,-420.66 364.17,-396 320.9,-332.68 326.68,-236.42 332.76,-189.96"/>
<polygon fill="black" stroke="black" points="336.23,-190.44 334.16,-180.05 329.3,-189.46 336.23,-190.44"/>
</g>
<!-- r&#45;rgdal -->
<g id="node10" class="node">
<title>r&#45;rgdal</title>
<ellipse fill="#fde725" stroke="black" cx="545.17" cy="-162" rx="45" ry="18"/>
<text text-anchor="middle" x="545.17" y="-158.3" font-family="Times,serif" font-size="14.00">r rgdal</text>
</g>
<!-- gdal&#45;&gt;r&#45;rgdal -->
<g id="edge9" class="edge">
<title>gdal&#45;&gt;r&#45;rgdal</title>
<path fill="none" stroke="black" d="M481.32,-434.89C492.22,-425.06 505.81,-411.04 514.17,-396 553.83,-324.61 555.77,-297.54 551.17,-216 550.69,-207.55 549.79,-198.38 548.83,-190.07"/>
<polygon fill="black" stroke="black" points="552.3,-189.64 547.6,-180.14 545.35,-190.5 552.3,-189.64"/>
</g>
<!-- r&#45;sf -->
<g id="node11" class="node">
<title>r&#45;sf</title>
<ellipse fill="#fde725" stroke="black" cx="702.17" cy="-90" rx="30.59" ry="18"/>
<text text-anchor="middle" x="702.17" y="-86.3" font-family="Times,serif" font-size="14.00">r sf</text>
</g>
<!-- gdal&#45;&gt;r&#45;sf -->
<g id="edge10" class="edge">
<title>gdal&#45;&gt;r&#45;sf</title>
<path fill="none" stroke="black" d="M484.64,-436.54C500.03,-426.64 521.12,-411.85 537.17,-396 622.36,-311.87 657.93,-292.77 698.17,-180 705.26,-160.12 705.93,-136.15 705.01,-118.09"/>
<polygon fill="black" stroke="black" points="708.49,-117.69 704.29,-107.97 701.5,-118.19 708.49,-117.69"/>
</g>
<!-- ncl&#45;&gt;conda&#45;forge&#45;pinning -->
<g id="edge11" class="edge">
<title>ncl&#45;&gt;conda&#45;forge&#45;pinning</title>
<path fill="none" stroke="black" d="M401.85,-359.91C403.67,-341.97 406.77,-312.96 410.17,-288 422.23,-199.34 439.95,-94.81 448.37,-46.28"/>
<polygon fill="black" stroke="black" points="451.85,-46.72 450.12,-36.27 444.96,-45.52 451.85,-46.72"/>
</g>
<!-- postgis&#45;&gt;conda&#45;forge&#45;pinning -->
<g id="edge12" class="edge">
<title>postgis&#45;&gt;conda&#45;forge&#45;pinning</title>
<path fill="none" stroke="black" d="M463.51,-287.97C461.68,-240.29 456.48,-105.18 454.23,-46.63"/>
<polygon fill="black" stroke="black" points="457.71,-46.16 453.83,-36.31 450.72,-46.43 457.71,-46.16"/>
</g>
<!-- pynio&#45;&gt;conda&#45;forge&#45;pinning -->
<g id="edge13" class="edge">
<title>pynio&#45;&gt;conda&#45;forge&#45;pinning</title>
<path fill="none" stroke="black" d="M501.71,-215.89C498.48,-205.55 494.41,-192.07 491.17,-180 478.58,-133.15 466.06,-78.04 459,-45.96"/>
<polygon fill="black" stroke="black" points="462.38,-45.03 456.82,-36.01 455.54,-46.52 462.38,-45.03"/>
</g>
<!-- qgis&#45;&gt;conda&#45;forge&#45;pinning -->
<g id="edge14" class="edge">
<title>qgis&#45;&gt;conda&#45;forge&#45;pinning</title>
<path fill="none" stroke="black" d="M342.96,-144.24C350.08,-125.27 363.57,-94.14 382.17,-72 391.88,-60.44 404.59,-49.95 416.56,-41.41"/>
<polygon fill="black" stroke="black" points="418.83,-44.1 425.1,-35.55 414.87,-38.33 418.83,-44.1"/>
</g>
<!-- r&#45;rgdal&#45;&gt;conda&#45;forge&#45;pinning -->
<g id="edge15" class="edge">
<title>r&#45;rgdal&#45;&gt;conda&#45;forge&#45;pinning</title>
<path fill="none" stroke="black" d="M534.43,-144.43C518.52,-119.88 488.54,-73.6 469.78,-44.65"/>
<polygon fill="black" stroke="black" points="472.49,-42.39 464.12,-35.9 466.62,-46.2 472.49,-42.39"/>
</g>
<!-- r&#45;sf&#45;&gt;conda&#45;forge&#45;pinning -->
<g id="edge16" class="edge">
<title>r&#45;sf&#45;&gt;conda&#45;forge&#45;pinning</title>
<path fill="none" stroke="black" d="M677.58,-79.17C671,-76.69 663.85,-74.12 657.17,-72 612.96,-57.95 562.52,-44.82 522.85,-35.14"/>
<polygon fill="black" stroke="black" points="523.55,-31.71 513.01,-32.76 521.9,-38.52 523.55,-31.71"/>
</g>
<!-- magics -->
<g id="node12" class="node">
<title>magics</title>
<g id="a_node12"><a xlink:href="https://github.com/conda-forge/magics-feedstock/pull/69" xlink:title="magics">
<ellipse fill="#31688e" stroke="black" cx="649.17" cy="-162" rx="40.5" ry="18"/>
<text text-anchor="middle" x="649.17" y="-158.3" font-family="Times,serif" font-size="14.00" fill="white">magics</text>
</a>
</g>
</g>
<!-- magics&#45;&gt;conda&#45;forge&#45;pinning -->
<g id="edge17" class="edge">
<title>magics&#45;&gt;conda&#45;forge&#45;pinning</title>
<path fill="none" stroke="black" d="M628.93,-146.34C594.69,-121.53 525.09,-71.11 484.51,-41.7"/>
<polygon fill="black" stroke="black" points="486.46,-38.8 476.31,-35.76 482.35,-44.47 486.46,-38.8"/>
</g>
<!-- pyproj -->
<g id="node13" class="node">
<title>pyproj</title>
<g id="a_node13"><a xlink:href="https://github.com/conda-forge/pyproj-feedstock/pull/70" xlink:title="pyproj">
<ellipse fill="#31688e" stroke="black" cx="206.17" cy="-234" rx="40.5" ry="18"/>
<text text-anchor="middle" x="206.17" y="-230.3" font-family="Times,serif" font-size="14.00" fill="white">pyproj</text>
</a>
</g>
</g>
<!-- pyproj&#45;&gt;basemap -->
<g id="edge18" class="edge">
<title>pyproj&#45;&gt;basemap</title>
<path fill="none" stroke="black" d="M211.11,-215.87C218.13,-191.56 231.05,-146.82 239.37,-118.01"/>
<polygon fill="black" stroke="black" points="242.79,-118.77 242.2,-108.19 236.07,-116.83 242.79,-118.77"/>
</g>
<!-- pyproj&#45;&gt;conda&#45;forge&#45;pinning -->
<g id="edge19" class="edge">
<title>pyproj&#45;&gt;conda&#45;forge&#45;pinning</title>
<path fill="none" stroke="black" d="M174.45,-222.72C106.01,-198.99 -44.81,-137.38 13.17,-72 34.87,-47.52 221.98,-32.17 345.11,-24.63"/>
<polygon fill="black" stroke="black" points="345.57,-28.11 355.34,-24.01 345.15,-21.12 345.57,-28.11"/>
</g>
<!-- pyproj&#45;&gt;cartopy -->
<g id="edge20" class="edge">
<title>pyproj&#45;&gt;cartopy</title>
<path fill="none" stroke="black" d="M190.76,-217.26C166.36,-192.34 118.69,-143.64 90.21,-114.54"/>
<polygon fill="black" stroke="black" points="92.57,-111.94 83.07,-107.25 87.56,-116.84 92.57,-111.94"/>
</g>
<!-- pyproj&#45;&gt;qgis -->
<g id="edge21" class="edge">
<title>pyproj&#45;&gt;qgis</title>
<path fill="none" stroke="black" d="M231.12,-219.67C252.52,-208.23 283.44,-191.71 306.38,-179.45"/>
<polygon fill="black" stroke="black" points="308.19,-182.45 315.36,-174.65 304.89,-176.28 308.19,-182.45"/>
</g>
<!-- r&#45;gribr -->
<g id="node14" class="node">
<title>r&#45;gribr</title>
<g id="a_node14"><a xlink:href="https://github.com/conda-forge/r-gribr-feedstock/pull/10" xlink:title="r gribr">
<ellipse fill="#31688e" stroke="black" cx="761.17" cy="-234" rx="45" ry="18"/>
<text text-anchor="middle" x="761.17" y="-230.3" font-family="Times,serif" font-size="14.00" fill="white">r gribr</text>
</a>
</g>
</g>
<!-- r&#45;gribr&#45;&gt;conda&#45;forge&#45;pinning -->
<g id="edge22" class="edge">
<title>r&#45;gribr&#45;&gt;conda&#45;forge&#45;pinning</title>
<path fill="none" stroke="black" d="M764.99,-216C771.22,-183.38 779.43,-111.72 742.17,-72 717.42,-45.62 631.39,-32.2 559.57,-25.48"/>
<polygon fill="black" stroke="black" points="559.82,-21.99 549.54,-24.58 559.19,-28.96 559.82,-21.99"/>
</g>
<!-- magics&#45;metview -->
<g id="node15" class="node">
<title>magics&#45;metview</title>
<g id="a_node15"><a xlink:href="https://github.com/conda-forge/magics-metview-feedstock/pull/13" xlink:title="magics metview">
<ellipse fill="#31688e" stroke="black" cx="834.17" cy="-306" rx="79.5" ry="18"/>
<text text-anchor="middle" x="834.17" y="-302.3" font-family="Times,serif" font-size="14.00" fill="white">magics metview</text>
</a>
</g>
</g>
<!-- magics&#45;metview&#45;&gt;conda&#45;forge&#45;pinning -->
<g id="edge23" class="edge">
<title>magics&#45;metview&#45;&gt;conda&#45;forge&#45;pinning</title>
<path fill="none" stroke="black" d="M834.97,-287.93C836,-244.29 832.1,-128.13 766.17,-72 735.54,-45.93 638.11,-32.36 559.99,-25.51"/>
<polygon fill="black" stroke="black" points="559.85,-21.98 549.59,-24.63 559.26,-28.96 559.85,-21.98"/>
</g>
<!-- magics&#45;metview&#45;batch -->
<g id="node16" class="node">
<title>magics&#45;metview&#45;batch</title>
<g id="a_node16"><a xlink:href="https://github.com/conda-forge/magics-metview-batch-feedstock/pull/7" xlink:title="magics metview batch">
<ellipse fill="#31688e" stroke="black" cx="972.17" cy="-162" rx="108.58" ry="18"/>
<text text-anchor="middle" x="972.17" y="-158.3" font-family="Times,serif" font-size="14.00" fill="white">magics metview batch</text>
</a>
</g>
</g>
<!-- magics&#45;metview&#45;batch&#45;&gt;conda&#45;forge&#45;pinning -->
<g id="edge24" class="edge">
<title>magics&#45;metview&#45;batch&#45;&gt;conda&#45;forge&#45;pinning</title>
<path fill="none" stroke="black" d="M945,-144.35C929.01,-134.27 908.58,-120.92 891.17,-108 871.15,-93.15 870.97,-82.05 848.17,-72 797.59,-49.71 656.3,-34.6 557.22,-26.39"/>
<polygon fill="black" stroke="black" points="557.42,-22.89 547.17,-25.57 556.85,-29.87 557.42,-22.89"/>
</g>
<!-- metview&#45;batch -->
<g id="node17" class="node">
<title>metview&#45;batch</title>
<ellipse fill="#fde725" stroke="black" cx="974.17" cy="-90" rx="74.19" ry="18"/>
<text text-anchor="middle" x="974.17" y="-86.3" font-family="Times,serif" font-size="14.00">metview batch</text>
</g>
<!-- magics&#45;metview&#45;batch&#45;&gt;metview&#45;batch -->
<g id="edge25" class="edge">
<title>magics&#45;metview&#45;batch&#45;&gt;metview&#45;batch</title>
<path fill="none" stroke="black" d="M972.66,-143.7C972.88,-135.98 973.15,-126.71 973.39,-118.11"/>
<polygon fill="black" stroke="black" points="976.89,-118.2 973.68,-108.1 969.89,-118 976.89,-118.2"/>
</g>
<!-- metview&#45;batch&#45;&gt;conda&#45;forge&#45;pinning -->
<g id="edge26" class="edge">
<title>metview&#45;batch&#45;&gt;conda&#45;forge&#45;pinning</title>
<path fill="none" stroke="black" d="M919.35,-77.8C908.38,-75.74 896.93,-73.7 886.17,-72 771.09,-53.86 637.98,-38.39 550.05,-28.92"/>
<polygon fill="black" stroke="black" points="550.4,-25.44 540.08,-27.85 549.65,-32.4 550.4,-25.44"/>
</g>
</g>
</svg>
