<?xml version="1.0" encoding="UTF-8" standalone="no"?>
<!DOCTYPE svg PUBLIC "-//W3C//DTD SVG 1.1//EN"
 "http://www.w3.org/Graphics/SVG/1.1/DTD/svg11.dtd">
<!-- Generated by graphviz version 2.42.3 (20191010.1750)
 -->
<!-- Title: %3 Pages: 1 -->
<svg width="354pt" height="116pt"
 viewBox="0.00 0.00 353.84 116.00" xmlns="http://www.w3.org/2000/svg" xmlns:xlink="http://www.w3.org/1999/xlink">
<g id="graph0" class="graph" transform="scale(1 1) rotate(0) translate(4 112)">
<title>%3</title>
<polygon fill="white" stroke="transparent" points="-4,4 -4,-112 349.84,-112 349.84,4 -4,4"/>
<!-- magics -->
<g id="node1" class="node">
<title>magics</title>
<g id="a_node1"><a xlink:href="https://github.com/conda-forge/magics-feedstock/pull/69" xlink:title="magics">
<ellipse fill="#31688e" stroke="black" cx="40.3" cy="-90" rx="40.09" ry="18"/>
<text text-anchor="middle" x="40.3" y="-86.3" font-family="Times,serif" font-size="14.00" fill="white">magics</text>
</a>
</g>
</g>
<!-- conda&#45;forge&#45;pinning -->
<g id="node5" class="node">
<title>conda&#45;forge&#45;pinning</title>
<ellipse fill="none" stroke="black" cx="175.3" cy="-18" rx="103.18" ry="18"/>
<text text-anchor="middle" x="175.3" y="-14.3" font-family="Times,serif" font-size="14.00">conda&#45;forge&#45;pinning</text>
</g>
<!-- magics&#45;&gt;conda&#45;forge&#45;pinning -->
<g id="edge1" class="edge">
<title>magics&#45;&gt;conda&#45;forge&#45;pinning</title>
<path fill="none" stroke="black" d="M65.69,-75.83C85.16,-65.74 112.4,-51.61 134.86,-39.97"/>
<polygon fill="black" stroke="black" points="136.57,-43.02 143.84,-35.31 133.35,-36.81 136.57,-43.02"/>
</g>
<!-- qgis -->
<g id="node2" class="node">
<title>qgis</title>
<g id="a_node2"><a xlink:href="https://github.com/conda-forge/qgis-feedstock/pull/121" xlink:title="qgis">
<ellipse fill="#31688e" stroke="black" cx="129.3" cy="-90" rx="30.59" ry="18"/>
<text text-anchor="middle" x="129.3" y="-86.3" font-family="Times,serif" font-size="14.00" fill="white">qgis</text>
</a>
</g>
</g>
<!-- qgis&#45;&gt;conda&#45;forge&#45;pinning -->
<g id="edge2" class="edge">
<title>qgis&#45;&gt;conda&#45;forge&#45;pinning</title>
<path fill="none" stroke="black" d="M139.97,-72.76C145.44,-64.44 152.23,-54.1 158.39,-44.73"/>
<polygon fill="black" stroke="black" points="161.48,-46.4 164.04,-36.12 155.63,-42.56 161.48,-46.4"/>
</g>
<!-- r&#45;rgdal -->
<g id="node3" class="node">
<title>r&#45;rgdal</title>
<g id="a_node3"><a xlink:href="https://github.com/conda-forge/r-rgdal-feedstock/pull/36" xlink:title="r rgdal">
<ellipse fill="#31688e" stroke="black" cx="222.3" cy="-90" rx="44.69" ry="18"/>
<text text-anchor="middle" x="222.3" y="-86.3" font-family="Times,serif" font-size="14.00" fill="white">r rgdal</text>
</a>
</g>
</g>
<!-- r&#45;rgdal&#45;&gt;conda&#45;forge&#45;pinning -->
<g id="edge3" class="edge">
<title>r&#45;rgdal&#45;&gt;conda&#45;forge&#45;pinning</title>
<path fill="none" stroke="black" d="M211.16,-72.41C205.56,-64.08 198.66,-53.8 192.41,-44.49"/>
<polygon fill="black" stroke="black" points="195.16,-42.31 186.68,-35.96 189.35,-46.21 195.16,-42.31"/>
</g>
<!-- r&#45;sf -->
<g id="node4" class="node">
<title>r&#45;sf</title>
<g id="a_node4"><a xlink:href="https://github.com/conda-forge/r-sf-feedstock/pull/34" xlink:title="r sf">
<ellipse fill="#31688e" stroke="black" cx="315.3" cy="-90" rx="30.59" ry="18"/>
<text text-anchor="middle" x="315.3" y="-86.3" font-family="Times,serif" font-size="14.00" fill="white">r sf</text>
</a>
</g>
</g>
<!-- r&#45;sf&#45;&gt;conda&#45;forge&#45;pinning -->
<g id="edge4" class="edge">
<title>r&#45;sf&#45;&gt;conda&#45;forge&#45;pinning</title>
<path fill="none" stroke="black" d="M292.8,-77.75C272.38,-67.54 241.74,-52.22 216.87,-39.78"/>
<polygon fill="black" stroke="black" points="218.16,-36.52 207.65,-35.18 215.03,-42.78 218.16,-36.52"/>
</g>
</g>
</svg>
