<?xml version="1.0" encoding="UTF-8" standalone="no"?>
<!DOCTYPE svg PUBLIC "-//W3C//DTD SVG 1.1//EN"
 "http://www.w3.org/Graphics/SVG/1.1/DTD/svg11.dtd">
<!-- Generated by graphviz version 2.42.3 (20191010.1750)
 -->
<!-- Title: %3 Pages: 1 -->
<svg width="686pt" height="188pt"
 viewBox="0.00 0.00 685.94 188.00" xmlns="http://www.w3.org/2000/svg" xmlns:xlink="http://www.w3.org/1999/xlink">
<g id="graph0" class="graph" transform="scale(1 1) rotate(0) translate(4 184)">
<title>%3</title>
<polygon fill="white" stroke="transparent" points="-4,4 -4,-184 681.94,-184 681.94,4 -4,4"/>
<!-- cartopy -->
<g id="node1" class="node">
<title>cartopy</title>
<ellipse fill="#fde725" stroke="black" cx="44.85" cy="-18" rx="44.69" ry="18"/>
<text text-anchor="middle" x="44.85" y="-14.3" font-family="Times,serif" font-size="14.00">cartopy</text>
</g>
<!-- cdo -->
<g id="node2" class="node">
<title>cdo</title>
<ellipse fill="#31688e" stroke="black" cx="284.85" cy="-162" rx="27" ry="18"/>
<text text-anchor="middle" x="284.85" y="-158.3" font-family="Times,serif" font-size="14.00" fill="white">cdo</text>
</g>
<!-- gdal -->
<g id="node3" class="node">
<title>gdal</title>
<ellipse fill="#fde725" stroke="black" cx="136.85" cy="-90" rx="30.59" ry="18"/>
<text text-anchor="middle" x="136.85" y="-86.3" font-family="Times,serif" font-size="14.00">gdal</text>
</g>
<!-- qgis -->
<g id="node10" class="node">
<title>qgis</title>
<ellipse fill="#fde725" stroke="black" cx="137.85" cy="-18" rx="30.59" ry="18"/>
<text text-anchor="middle" x="137.85" y="-14.3" font-family="Times,serif" font-size="14.00">qgis</text>
</g>
<!-- gdal&#45;&gt;qgis -->
<g id="edge1" class="edge">
<title>gdal&#45;&gt;qgis</title>
<path fill="none" stroke="black" d="M137.09,-71.7C137.2,-63.98 137.34,-54.71 137.46,-46.11"/>
<polygon fill="black" stroke="black" points="140.96,-46.15 137.6,-36.1 133.96,-46.05 140.96,-46.15"/>
</g>
<!-- libspatialite -->
<g id="node4" class="node">
<title>libspatialite</title>
<ellipse fill="#31688e" stroke="black" cx="165.85" cy="-162" rx="74.19" ry="18"/>
<text text-anchor="middle" x="165.85" y="-158.3" font-family="Times,serif" font-size="14.00" fill="white">libspatialite</text>
</g>
<!-- libspatialite&#45;&gt;gdal -->
<g id="edge2" class="edge">
<title>libspatialite&#45;&gt;gdal</title>
<path fill="none" stroke="black" d="M158.83,-144.05C155.48,-135.97 151.4,-126.12 147.66,-117.11"/>
<polygon fill="black" stroke="black" points="150.86,-115.69 143.8,-107.79 144.4,-118.37 150.86,-115.69"/>
</g>
<!-- libspatialite&#45;&gt;qgis -->
<g id="edge3" class="edge">
<title>libspatialite&#45;&gt;qgis</title>
<path fill="none" stroke="black" d="M172.28,-143.84C178.14,-125.6 184.76,-96.11 176.85,-72 173.23,-60.98 166.34,-50.36 159.35,-41.56"/>
<polygon fill="black" stroke="black" points="161.86,-39.1 152.72,-33.73 156.51,-43.62 161.86,-39.1"/>
</g>
<!-- magics -->
<g id="node5" class="node">
<title>magics</title>
<ellipse fill="#31688e" stroke="black" cx="369.85" cy="-162" rx="40.09" ry="18"/>
<text text-anchor="middle" x="369.85" y="-158.3" font-family="Times,serif" font-size="14.00" fill="white">magics</text>
</g>
<!-- ncl -->
<g id="node6" class="node">
<title>ncl</title>
<ellipse fill="#31688e" stroke="black" cx="454.85" cy="-162" rx="27" ry="18"/>
<text text-anchor="middle" x="454.85" y="-158.3" font-family="Times,serif" font-size="14.00" fill="white">ncl</text>
</g>
<!-- postgis -->
<g id="node7" class="node">
<title>postgis</title>
<ellipse fill="#31688e" stroke="black" cx="544.85" cy="-162" rx="44.69" ry="18"/>
<text text-anchor="middle" x="544.85" y="-158.3" font-family="Times,serif" font-size="14.00" fill="white">postgis</text>
</g>
<!-- pynio -->
<g id="node8" class="node">
<title>pynio</title>
<ellipse fill="#31688e" stroke="black" cx="642.85" cy="-162" rx="35.19" ry="18"/>
<text text-anchor="middle" x="642.85" y="-158.3" font-family="Times,serif" font-size="14.00" fill="white">pynio</text>
</g>
<!-- pyproj -->
<g id="node9" class="node">
<title>pyproj</title>
<ellipse fill="#31688e" stroke="black" cx="46.85" cy="-90" rx="40.09" ry="18"/>
<text text-anchor="middle" x="46.85" y="-86.3" font-family="Times,serif" font-size="14.00" fill="white">pyproj</text>
</g>
<!-- pyproj&#45;&gt;cartopy -->
<g id="edge5" class="edge">
<title>pyproj&#45;&gt;cartopy</title>
<path fill="none" stroke="black" d="M46.35,-71.7C46.13,-63.98 45.87,-54.71 45.62,-46.11"/>
<polygon fill="black" stroke="black" points="49.12,-46 45.33,-36.1 42.12,-46.2 49.12,-46"/>
</g>
<!-- pyproj&#45;&gt;qgis -->
<g id="edge4" class="edge">
<title>pyproj&#45;&gt;qgis</title>
<path fill="none" stroke="black" d="M66.14,-74.15C79.4,-63.96 97.16,-50.29 111.69,-39.12"/>
<polygon fill="black" stroke="black" points="114.02,-41.74 119.81,-32.87 109.75,-36.19 114.02,-41.74"/>
</g>
</g>
</svg>
