<?xml version="1.0" encoding="UTF-8" standalone="no"?>
<!DOCTYPE svg PUBLIC "-//W3C//DTD SVG 1.1//EN"
 "http://www.w3.org/Graphics/SVG/1.1/DTD/svg11.dtd">
<!-- Generated by graphviz version 2.42.3 (20191010.1750)
 -->
<!-- Title: %3 Pages: 1 -->
<svg width="953pt" height="476pt"
 viewBox="0.00 0.00 952.54 476.00" xmlns="http://www.w3.org/2000/svg" xmlns:xlink="http://www.w3.org/1999/xlink">
<g id="graph0" class="graph" transform="scale(1 1) rotate(0) translate(4 472)">
<title>%3</title>
<polygon fill="white" stroke="transparent" points="-4,4 -4,-472 948.54,-472 948.54,4 -4,4"/>
<!-- basemap -->
<g id="node1" class="node">
<title>basemap</title>
<g id="a_node1"><a xlink:href="https://github.com/conda-forge/basemap-feedstock/pull/60" xlink:title="basemap">
<ellipse fill="#31688e" stroke="black" cx="45" cy="-90" rx="45" ry="18"/>
<text text-anchor="middle" x="45" y="-86.3" font-family="Times,serif" font-size="14.00" fill="white">basemap</text>
</a>
</g>
</g>
<!-- conda&#45;forge&#45;pinning -->
<g id="node2" class="node">
<title>conda&#45;forge&#45;pinning</title>
<ellipse fill="none" stroke="black" cx="411" cy="-18" rx="103.5" ry="18"/>
<text text-anchor="middle" x="411" y="-14.3" font-family="Times,serif" font-size="14.00">conda&#45;forge&#45;pinning</text>
</g>
<!-- basemap&#45;&gt;conda&#45;forge&#45;pinning -->
<g id="edge1" class="edge">
<title>basemap&#45;&gt;conda&#45;forge&#45;pinning</title>
<path fill="none" stroke="black" d="M79.46,-78.38C87.48,-76.11 96,-73.84 104,-72 177.4,-55.14 261.79,-40.94 323.48,-31.5"/>
<polygon fill="black" stroke="black" points="324.21,-34.93 333.57,-29.96 323.16,-28.01 324.21,-34.93"/>
</g>
<!-- cartopy -->
<g id="node3" class="node">
<title>cartopy</title>
<g id="a_node3"><a xlink:href="https://github.com/conda-forge/cartopy-feedstock/pull/81" xlink:title="cartopy">
<ellipse fill="#31688e" stroke="black" cx="100" cy="-162" rx="45" ry="18"/>
<text text-anchor="middle" x="100" y="-158.3" font-family="Times,serif" font-size="14.00" fill="white">cartopy</text>
</a>
</g>
</g>
<!-- cartopy&#45;&gt;conda&#45;forge&#45;pinning -->
<g id="edge2" class="edge">
<title>cartopy&#45;&gt;conda&#45;forge&#45;pinning</title>
<path fill="none" stroke="black" d="M106.52,-143.97C115.26,-123.53 132.77,-89.8 159,-72 200.27,-43.99 253.43,-30.33 300.27,-23.83"/>
<polygon fill="black" stroke="black" points="301.01,-27.26 310.48,-22.51 300.11,-20.32 301.01,-27.26"/>
</g>
<!-- gdal -->
<g id="node4" class="node">
<title>gdal</title>
<ellipse fill="#fde725" stroke="black" cx="382" cy="-450" rx="30.59" ry="18"/>
<text text-anchor="middle" x="382" y="-446.3" font-family="Times,serif" font-size="14.00">gdal</text>
</g>
<!-- gdal&#45;&gt;conda&#45;forge&#45;pinning -->
<g id="edge3" class="edge">
<title>gdal&#45;&gt;conda&#45;forge&#45;pinning</title>
<path fill="none" stroke="black" d="M353.38,-443.52C296.14,-430.73 173,-393.2 173,-307 173,-307 173,-307 173,-161 173,-86.71 259.58,-50.38 328.3,-33.24"/>
<polygon fill="black" stroke="black" points="329.39,-36.58 338.3,-30.85 327.76,-29.77 329.39,-36.58"/>
</g>
<!-- ncl -->
<g id="node5" class="node">
<title>ncl</title>
<ellipse fill="#fde725" stroke="black" cx="244" cy="-306" rx="27" ry="18"/>
<text text-anchor="middle" x="244" y="-302.3" font-family="Times,serif" font-size="14.00">ncl</text>
</g>
<!-- gdal&#45;&gt;ncl -->
<g id="edge4" class="edge">
<title>gdal&#45;&gt;ncl</title>
<path fill="none" stroke="black" d="M362.85,-435.67C348.9,-425.54 329.92,-410.86 315,-396 294.57,-375.65 274.36,-349.59 260.76,-330.94"/>
<polygon fill="black" stroke="black" points="263.51,-328.76 254.83,-322.68 257.83,-332.84 263.51,-328.76"/>
</g>
<!-- postgis -->
<g id="node6" class="node">
<title>postgis</title>
<ellipse fill="#fde725" stroke="black" cx="284" cy="-234" rx="45" ry="18"/>
<text text-anchor="middle" x="284" y="-230.3" font-family="Times,serif" font-size="14.00">postgis</text>
</g>
<!-- gdal&#45;&gt;postgis -->
<g id="edge5" class="edge">
<title>gdal&#45;&gt;postgis</title>
<path fill="none" stroke="black" d="M374.31,-432.21C357.32,-395.11 316.48,-305.92 296.05,-261.32"/>
<polygon fill="black" stroke="black" points="299.14,-259.65 291.79,-252.01 292.77,-262.56 299.14,-259.65"/>
</g>
<!-- pynio -->
<g id="node7" class="node">
<title>pynio</title>
<ellipse fill="#fde725" stroke="black" cx="382" cy="-234" rx="35.19" ry="18"/>
<text text-anchor="middle" x="382" y="-230.3" font-family="Times,serif" font-size="14.00">pynio</text>
</g>
<!-- gdal&#45;&gt;pynio -->
<g id="edge6" class="edge">
<title>gdal&#45;&gt;pynio</title>
<path fill="none" stroke="black" d="M382,-431.85C382,-394.83 382,-307.18 382,-262.39"/>
<polygon fill="black" stroke="black" points="385.5,-262.23 382,-252.23 378.5,-262.23 385.5,-262.23"/>
</g>
<!-- qgis -->
<g id="node8" class="node">
<title>qgis</title>
<ellipse fill="#fde725" stroke="black" cx="410" cy="-162" rx="30.59" ry="18"/>
<text text-anchor="middle" x="410" y="-158.3" font-family="Times,serif" font-size="14.00">qgis</text>
</g>
<!-- gdal&#45;&gt;qgis -->
<g id="edge7" class="edge">
<title>gdal&#45;&gt;qgis</title>
<path fill="none" stroke="black" d="M389.01,-432.41C404.24,-394.33 438.06,-297.65 426,-216 424.7,-207.21 422.26,-197.86 419.66,-189.5"/>
<polygon fill="black" stroke="black" points="422.95,-188.29 416.49,-179.9 416.3,-190.49 422.95,-188.29"/>
</g>
<!-- r&#45;rgdal -->
<g id="node9" class="node">
<title>r&#45;rgdal</title>
<ellipse fill="#fde725" stroke="black" cx="448" cy="-90" rx="45" ry="18"/>
<text text-anchor="middle" x="448" y="-86.3" font-family="Times,serif" font-size="14.00">r rgdal</text>
</g>
<!-- gdal&#45;&gt;r&#45;rgdal -->
<g id="edge8" class="edge">
<title>gdal&#45;&gt;r&#45;rgdal</title>
<path fill="none" stroke="black" d="M400.52,-435.58C429.68,-412.73 483,-363.27 483,-307 483,-307 483,-307 483,-233 483,-191.84 468.97,-145.88 458.67,-117.69"/>
<polygon fill="black" stroke="black" points="461.88,-116.28 455.08,-108.15 455.33,-118.74 461.88,-116.28"/>
</g>
<!-- r&#45;sf -->
<g id="node10" class="node">
<title>r&#45;sf</title>
<ellipse fill="#fde725" stroke="black" cx="542" cy="-378" rx="30.59" ry="18"/>
<text text-anchor="middle" x="542" y="-374.3" font-family="Times,serif" font-size="14.00">r sf</text>
</g>
<!-- gdal&#45;&gt;r&#45;sf -->
<g id="edge9" class="edge">
<title>gdal&#45;&gt;r&#45;sf</title>
<path fill="none" stroke="black" d="M405.95,-438.52C433.25,-426.58 478.04,-406.98 508.72,-393.56"/>
<polygon fill="black" stroke="black" points="510.39,-396.65 518.14,-389.44 507.58,-390.24 510.39,-396.65"/>
</g>
<!-- ncl&#45;&gt;conda&#45;forge&#45;pinning -->
<g id="edge10" class="edge">
<title>ncl&#45;&gt;conda&#45;forge&#45;pinning</title>
<path fill="none" stroke="black" d="M236.64,-288.46C229.61,-270.24 221.26,-240.28 230,-216 257.84,-138.61 333.77,-74.02 377.94,-41.55"/>
<polygon fill="black" stroke="black" points="380.01,-44.38 386.07,-35.68 375.91,-38.71 380.01,-44.38"/>
</g>
<!-- postgis&#45;&gt;conda&#45;forge&#45;pinning -->
<g id="edge11" class="edge">
<title>postgis&#45;&gt;conda&#45;forge&#45;pinning</title>
<path fill="none" stroke="black" d="M292.47,-216.17C307.61,-186.47 340.76,-123.03 373,-72 378.81,-62.81 385.6,-53.06 391.83,-44.46"/>
<polygon fill="black" stroke="black" points="394.71,-46.44 397.81,-36.31 389.07,-42.3 394.71,-46.44"/>
</g>
<!-- pynio&#45;&gt;conda&#45;forge&#45;pinning -->
<g id="edge12" class="edge">
<title>pynio&#45;&gt;conda&#45;forge&#45;pinning</title>
<path fill="none" stroke="black" d="M377.13,-215.98C374.44,-205.67 371.36,-192.19 370,-180 364.59,-131.56 373.4,-118.17 389,-72 391.98,-63.18 395.71,-53.74 399.26,-45.3"/>
<polygon fill="black" stroke="black" points="402.54,-46.53 403.27,-35.96 396.11,-43.77 402.54,-46.53"/>
</g>
<!-- qgis&#45;&gt;conda&#45;forge&#45;pinning -->
<g id="edge13" class="edge">
<title>qgis&#45;&gt;conda&#45;forge&#45;pinning</title>
<path fill="none" stroke="black" d="M403.51,-144.1C399.92,-133.84 395.83,-120.36 394,-108 391.66,-92.17 391.53,-87.81 394,-72 395.36,-63.31 397.9,-54.1 400.61,-45.84"/>
<polygon fill="black" stroke="black" points="403.94,-46.93 403.93,-36.33 397.33,-44.62 403.94,-46.93"/>
</g>
<!-- r&#45;rgdal&#45;&gt;conda&#45;forge&#45;pinning -->
<g id="edge14" class="edge">
<title>r&#45;rgdal&#45;&gt;conda&#45;forge&#45;pinning</title>
<path fill="none" stroke="black" d="M439.04,-72.05C434.79,-64.01 429.61,-54.2 424.86,-45.23"/>
<polygon fill="black" stroke="black" points="427.9,-43.48 420.13,-36.28 421.71,-46.75 427.9,-43.48"/>
</g>
<!-- r&#45;sf&#45;&gt;conda&#45;forge&#45;pinning -->
<g id="edge15" class="edge">
<title>r&#45;sf&#45;&gt;conda&#45;forge&#45;pinning</title>
<path fill="none" stroke="black" d="M537.85,-360.07C531.73,-333.57 521,-280.61 521,-235 521,-235 521,-235 521,-161 521,-120.55 525.73,-104.76 502,-72 491.96,-58.14 477.11,-47.34 462.29,-39.2"/>
<polygon fill="black" stroke="black" points="463.61,-35.94 453.12,-34.47 460.41,-42.16 463.61,-35.94"/>
</g>
<!-- magics -->
<g id="node11" class="node">
<title>magics</title>
<g id="a_node11"><a xlink:href="https://github.com/conda-forge/magics-feedstock/pull/69" xlink:title="magics">
<ellipse fill="#31688e" stroke="black" cx="590" cy="-234" rx="40.5" ry="18"/>
<text text-anchor="middle" x="590" y="-230.3" font-family="Times,serif" font-size="14.00" fill="white">magics</text>
</a>
</g>
</g>
<!-- magics&#45;&gt;conda&#45;forge&#45;pinning -->
<g id="edge16" class="edge">
<title>magics&#45;&gt;conda&#45;forge&#45;pinning</title>
<path fill="none" stroke="black" d="M588.64,-215.64C585.23,-183.35 573.58,-113.57 535,-72 520.02,-55.85 499.29,-44.41 479.08,-36.41"/>
<polygon fill="black" stroke="black" points="480.13,-33.06 469.53,-32.85 477.68,-39.62 480.13,-33.06"/>
</g>
<!-- r&#45;gribr -->
<g id="node12" class="node">
<title>r&#45;gribr</title>
<g id="a_node12"><a xlink:href="https://github.com/conda-forge/r-gribr-feedstock/pull/10" xlink:title="r gribr">
<ellipse fill="#31688e" stroke="black" cx="624" cy="-306" rx="45" ry="18"/>
<text text-anchor="middle" x="624" y="-302.3" font-family="Times,serif" font-size="14.00" fill="white">r gribr</text>
</a>
</g>
</g>
<!-- r&#45;gribr&#45;&gt;conda&#45;forge&#45;pinning -->
<g id="edge17" class="edge">
<title>r&#45;gribr&#45;&gt;conda&#45;forge&#45;pinning</title>
<path fill="none" stroke="black" d="M630.98,-288.1C637.48,-270.07 645.27,-240.76 639,-216 621.12,-145.44 616.34,-119.28 561,-72 540.42,-54.42 513.63,-42.53 488.38,-34.56"/>
<polygon fill="black" stroke="black" points="489.38,-31.2 478.8,-31.69 487.37,-37.91 489.38,-31.2"/>
</g>
<!-- magics&#45;metview -->
<g id="node13" class="node">
<title>magics&#45;metview</title>
<g id="a_node13"><a xlink:href="https://github.com/conda-forge/magics-metview-feedstock/pull/13" xlink:title="magics metview">
<ellipse fill="#31688e" stroke="black" cx="697" cy="-378" rx="79.5" ry="18"/>
<text text-anchor="middle" x="697" y="-374.3" font-family="Times,serif" font-size="14.00" fill="white">magics metview</text>
</a>
</g>
</g>
<!-- magics&#45;metview&#45;&gt;conda&#45;forge&#45;pinning -->
<g id="edge18" class="edge">
<title>magics&#45;metview&#45;&gt;conda&#45;forge&#45;pinning</title>
<path fill="none" stroke="black" d="M697,-359.95C697,-333.29 697,-280.11 697,-235 697,-235 697,-235 697,-161 697,-76.03 594.48,-41.91 512.2,-28.2"/>
<polygon fill="black" stroke="black" points="512.7,-24.74 502.28,-26.63 511.61,-31.65 512.7,-24.74"/>
</g>
<!-- magics&#45;metview&#45;batch -->
<g id="node14" class="node">
<title>magics&#45;metview&#45;batch</title>
<g id="a_node14"><a xlink:href="https://github.com/conda-forge/magics-metview-batch-feedstock/pull/7" xlink:title="magics metview batch">
<ellipse fill="#31688e" stroke="black" cx="836" cy="-162" rx="108.58" ry="18"/>
<text text-anchor="middle" x="836" y="-158.3" font-family="Times,serif" font-size="14.00" fill="white">magics metview batch</text>
</a>
</g>
</g>
<!-- magics&#45;metview&#45;batch&#45;&gt;conda&#45;forge&#45;pinning -->
<g id="edge19" class="edge">
<title>magics&#45;metview&#45;batch&#45;&gt;conda&#45;forge&#45;pinning</title>
<path fill="none" stroke="black" d="M808.47,-144.39C792.28,-134.33 771.6,-120.98 754,-108 733.94,-93.21 733.59,-82.52 711,-72 651.29,-44.18 578.67,-30.89 519.84,-24.57"/>
<polygon fill="black" stroke="black" points="520.08,-21.08 509.77,-23.54 519.36,-28.04 520.08,-21.08"/>
</g>
<!-- metview&#45;batch -->
<g id="node15" class="node">
<title>metview&#45;batch</title>
<ellipse fill="#fde725" stroke="black" cx="837" cy="-90" rx="74.19" ry="18"/>
<text text-anchor="middle" x="837" y="-86.3" font-family="Times,serif" font-size="14.00">metview batch</text>
</g>
<!-- magics&#45;metview&#45;batch&#45;&gt;metview&#45;batch -->
<g id="edge20" class="edge">
<title>magics&#45;metview&#45;batch&#45;&gt;metview&#45;batch</title>
<path fill="none" stroke="black" d="M836.25,-143.7C836.36,-135.98 836.49,-126.71 836.61,-118.11"/>
<polygon fill="black" stroke="black" points="840.11,-118.15 836.76,-108.1 833.11,-118.05 840.11,-118.15"/>
</g>
<!-- metview&#45;batch&#45;&gt;conda&#45;forge&#45;pinning -->
<g id="edge21" class="edge">
<title>metview&#45;batch&#45;&gt;conda&#45;forge&#45;pinning</title>
<path fill="none" stroke="black" d="M781.66,-78C770.84,-75.94 759.58,-73.85 749,-72 663.71,-57.08 565.97,-41.97 497.6,-31.72"/>
<polygon fill="black" stroke="black" points="497.72,-28.2 487.31,-30.18 496.68,-35.12 497.72,-28.2"/>
</g>
</g>
</svg>
