<?xml version="1.0" encoding="UTF-8" standalone="no"?>
<!DOCTYPE svg PUBLIC "-//W3C//DTD SVG 1.1//EN"
 "http://www.w3.org/Graphics/SVG/1.1/DTD/svg11.dtd">
<!-- Generated by graphviz version 2.42.3 (20191010.1750)
 -->
<!-- Title: %3 Pages: 1 -->
<svg width="768pt" height="188pt"
 viewBox="0.00 0.00 768.14 188.00" xmlns="http://www.w3.org/2000/svg" xmlns:xlink="http://www.w3.org/1999/xlink">
<g id="graph0" class="graph" transform="scale(1 1) rotate(0) translate(4 184)">
<title>%3</title>
<polygon fill="white" stroke="transparent" points="-4,4 -4,-184 764.14,-184 764.14,4 -4,4"/>
<!-- basemap -->
<g id="node1" class="node">
<title>basemap</title>
<g id="a_node1"><a xlink:href="https://github.com/conda-forge/basemap-feedstock/pull/60" xlink:title="basemap">
<ellipse fill="#31688e" stroke="black" cx="44.85" cy="-90" rx="44.69" ry="18"/>
<text text-anchor="middle" x="44.85" y="-86.3" font-family="Times,serif" font-size="14.00" fill="white">basemap</text>
</a>
</g>
</g>
<!-- conda&#45;forge&#45;pinning -->
<g id="node10" class="node">
<title>conda&#45;forge&#45;pinning</title>
<ellipse fill="none" stroke="black" cx="406.85" cy="-18" rx="103.18" ry="18"/>
<text text-anchor="middle" x="406.85" y="-14.3" font-family="Times,serif" font-size="14.00">conda&#45;forge&#45;pinning</text>
</g>
<!-- basemap&#45;&gt;conda&#45;forge&#45;pinning -->
<g id="edge1" class="edge">
<title>basemap&#45;&gt;conda&#45;forge&#45;pinning</title>
<path fill="none" stroke="black" d="M78.06,-77.77C84.89,-75.68 92.06,-73.64 98.85,-72 171.78,-54.33 255.8,-40.28 317.64,-31.1"/>
<polygon fill="black" stroke="black" points="318.38,-34.53 327.76,-29.62 317.36,-27.61 318.38,-34.53"/>
</g>
<!-- gdal -->
<g id="node2" class="node">
<title>gdal</title>
<ellipse fill="#fde725" stroke="black" cx="406.85" cy="-162" rx="30.59" ry="18"/>
<text text-anchor="middle" x="406.85" y="-158.3" font-family="Times,serif" font-size="14.00">gdal</text>
</g>
<!-- ncl -->
<g id="node4" class="node">
<title>ncl</title>
<ellipse fill="#fde725" stroke="black" cx="134.85" cy="-90" rx="27" ry="18"/>
<text text-anchor="middle" x="134.85" y="-86.3" font-family="Times,serif" font-size="14.00">ncl</text>
</g>
<!-- gdal&#45;&gt;ncl -->
<g id="edge2" class="edge">
<title>gdal&#45;&gt;ncl</title>
<path fill="none" stroke="black" d="M377.58,-156.56C332.4,-149.24 243.32,-132.91 170.85,-108 168.93,-107.34 166.99,-106.61 165.04,-105.84"/>
<polygon fill="black" stroke="black" points="166.03,-102.45 155.46,-101.69 163.25,-108.87 166.03,-102.45"/>
</g>
<!-- postgis -->
<g id="node5" class="node">
<title>postgis</title>
<ellipse fill="#fde725" stroke="black" cx="224.85" cy="-90" rx="44.69" ry="18"/>
<text text-anchor="middle" x="224.85" y="-86.3" font-family="Times,serif" font-size="14.00">postgis</text>
</g>
<!-- gdal&#45;&gt;postgis -->
<g id="edge3" class="edge">
<title>gdal&#45;&gt;postgis</title>
<path fill="none" stroke="black" d="M381.92,-151.41C352.02,-139.91 301.47,-120.47 265.81,-106.75"/>
<polygon fill="black" stroke="black" points="266.76,-103.37 256.17,-103.05 264.25,-109.9 266.76,-103.37"/>
</g>
<!-- pynio -->
<g id="node6" class="node">
<title>pynio</title>
<ellipse fill="#fde725" stroke="black" cx="322.85" cy="-90" rx="35.19" ry="18"/>
<text text-anchor="middle" x="322.85" y="-86.3" font-family="Times,serif" font-size="14.00">pynio</text>
</g>
<!-- gdal&#45;&gt;pynio -->
<g id="edge4" class="edge">
<title>gdal&#45;&gt;pynio</title>
<path fill="none" stroke="black" d="M389.85,-146.83C377.94,-136.91 361.81,-123.47 348.36,-112.26"/>
<polygon fill="black" stroke="black" points="350.32,-109.34 340.4,-105.63 345.84,-114.72 350.32,-109.34"/>
</g>
<!-- qgis -->
<g id="node7" class="node">
<title>qgis</title>
<ellipse fill="#fde725" stroke="black" cx="406.85" cy="-90" rx="30.59" ry="18"/>
<text text-anchor="middle" x="406.85" y="-86.3" font-family="Times,serif" font-size="14.00">qgis</text>
</g>
<!-- gdal&#45;&gt;qgis -->
<g id="edge5" class="edge">
<title>gdal&#45;&gt;qgis</title>
<path fill="none" stroke="black" d="M406.85,-143.7C406.85,-135.98 406.85,-126.71 406.85,-118.11"/>
<polygon fill="black" stroke="black" points="410.35,-118.1 406.85,-108.1 403.35,-118.1 410.35,-118.1"/>
</g>
<!-- r&#45;rgdal -->
<g id="node8" class="node">
<title>r&#45;rgdal</title>
<ellipse fill="#fde725" stroke="black" cx="499.85" cy="-90" rx="44.69" ry="18"/>
<text text-anchor="middle" x="499.85" y="-86.3" font-family="Times,serif" font-size="14.00">r rgdal</text>
</g>
<!-- gdal&#45;&gt;r&#45;rgdal -->
<g id="edge6" class="edge">
<title>gdal&#45;&gt;r&#45;rgdal</title>
<path fill="none" stroke="black" d="M425.22,-147.17C438.44,-137.22 456.52,-123.61 471.57,-112.28"/>
<polygon fill="black" stroke="black" points="473.69,-115.07 479.57,-106.26 469.48,-109.48 473.69,-115.07"/>
</g>
<!-- r&#45;sf -->
<g id="node9" class="node">
<title>r&#45;sf</title>
<ellipse fill="#fde725" stroke="black" cx="592.85" cy="-90" rx="30.59" ry="18"/>
<text text-anchor="middle" x="592.85" y="-86.3" font-family="Times,serif" font-size="14.00">r sf</text>
</g>
<!-- gdal&#45;&gt;r&#45;sf -->
<g id="edge7" class="edge">
<title>gdal&#45;&gt;r&#45;sf</title>
<path fill="none" stroke="black" d="M432.79,-152.22C462.32,-142.09 511.87,-124.69 553.85,-108 555.7,-107.26 557.6,-106.49 559.5,-105.7"/>
<polygon fill="black" stroke="black" points="561.18,-108.8 569.02,-101.68 558.45,-102.35 561.18,-108.8"/>
</g>
<!-- gdal&#45;&gt;conda&#45;forge&#45;pinning -->
<g id="edge8" class="edge">
<title>gdal&#45;&gt;conda&#45;forge&#45;pinning</title>
<path fill="none" stroke="black" d="M437.22,-158.45C493.1,-153.05 608.75,-138.4 632.85,-108 672.08,-58.5 588.04,-36.46 511.55,-26.69"/>
<polygon fill="black" stroke="black" points="511.66,-23.17 501.31,-25.44 510.81,-30.12 511.66,-23.17"/>
</g>
<!-- magics -->
<g id="node3" class="node">
<title>magics</title>
<g id="a_node3"><a xlink:href="https://github.com/conda-forge/magics-feedstock/pull/69" xlink:title="magics">
<ellipse fill="#31688e" stroke="black" cx="719.85" cy="-90" rx="40.09" ry="18"/>
<text text-anchor="middle" x="719.85" y="-86.3" font-family="Times,serif" font-size="14.00" fill="white">magics</text>
</a>
</g>
</g>
<!-- magics&#45;&gt;conda&#45;forge&#45;pinning -->
<g id="edge9" class="edge">
<title>magics&#45;&gt;conda&#45;forge&#45;pinning</title>
<path fill="none" stroke="black" d="M688.59,-78.56C681.18,-76.25 673.27,-73.92 665.85,-72 606.38,-56.6 538.31,-42.82 486.88,-33.17"/>
<polygon fill="black" stroke="black" points="487.3,-29.69 476.82,-31.3 486.01,-36.57 487.3,-29.69"/>
</g>
<!-- ncl&#45;&gt;conda&#45;forge&#45;pinning -->
<g id="edge10" class="edge">
<title>ncl&#45;&gt;conda&#45;forge&#45;pinning</title>
<path fill="none" stroke="black" d="M155.46,-78.31C160.41,-76.02 165.75,-73.75 170.85,-72 220.89,-54.8 278.84,-41.69 324.8,-32.82"/>
<polygon fill="black" stroke="black" points="325.54,-36.24 334.71,-30.93 324.23,-29.36 325.54,-36.24"/>
</g>
<!-- postgis&#45;&gt;conda&#45;forge&#45;pinning -->
<g id="edge11" class="edge">
<title>postgis&#45;&gt;conda&#45;forge&#45;pinning</title>
<path fill="none" stroke="black" d="M256.13,-76.97C283.67,-66.37 324.28,-50.76 356.4,-38.4"/>
<polygon fill="black" stroke="black" points="358,-41.54 366.08,-34.68 355.49,-35 358,-41.54"/>
</g>
<!-- pynio&#45;&gt;conda&#45;forge&#45;pinning -->
<g id="edge12" class="edge">
<title>pynio&#45;&gt;conda&#45;forge&#45;pinning</title>
<path fill="none" stroke="black" d="M340.66,-74.15C351.72,-64.94 366.18,-52.89 378.76,-42.41"/>
<polygon fill="black" stroke="black" points="381.26,-44.88 386.7,-35.79 376.78,-39.5 381.26,-44.88"/>
</g>
<!-- qgis&#45;&gt;conda&#45;forge&#45;pinning -->
<g id="edge13" class="edge">
<title>qgis&#45;&gt;conda&#45;forge&#45;pinning</title>
<path fill="none" stroke="black" d="M406.85,-71.7C406.85,-63.98 406.85,-54.71 406.85,-46.11"/>
<polygon fill="black" stroke="black" points="410.35,-46.1 406.85,-36.1 403.35,-46.1 410.35,-46.1"/>
</g>
<!-- r&#45;rgdal&#45;&gt;conda&#45;forge&#45;pinning -->
<g id="edge14" class="edge">
<title>r&#45;rgdal&#45;&gt;conda&#45;forge&#45;pinning</title>
<path fill="none" stroke="black" d="M479.67,-73.81C467.28,-64.49 451.18,-52.37 437.26,-41.9"/>
<polygon fill="black" stroke="black" points="439.03,-38.85 428.94,-35.63 434.82,-44.44 439.03,-38.85"/>
</g>
<!-- r&#45;sf&#45;&gt;conda&#45;forge&#45;pinning -->
<g id="edge15" class="edge">
<title>r&#45;sf&#45;&gt;conda&#45;forge&#45;pinning</title>
<path fill="none" stroke="black" d="M569.02,-78.32C564.03,-76.17 558.79,-73.97 553.85,-72 523.4,-59.89 488.97,-47.41 461.09,-37.61"/>
<polygon fill="black" stroke="black" points="462.11,-34.26 451.51,-34.26 459.8,-40.86 462.11,-34.26"/>
</g>
</g>
</svg>
