<?xml version="1.0" encoding="UTF-8" standalone="no"?>
<!DOCTYPE svg PUBLIC "-//W3C//DTD SVG 1.1//EN"
 "http://www.w3.org/Graphics/SVG/1.1/DTD/svg11.dtd">
<!-- Generated by graphviz version 2.42.3 (20191010.1750)
 -->
<!-- Title: %3 Pages: 1 -->
<svg width="702pt" height="188pt"
 viewBox="0.00 0.00 701.94 188.00" xmlns="http://www.w3.org/2000/svg" xmlns:xlink="http://www.w3.org/1999/xlink">
<g id="graph0" class="graph" transform="scale(1 1) rotate(0) translate(4 184)">
<title>%3</title>
<polygon fill="white" stroke="transparent" points="-4,4 -4,-184 697.94,-184 697.94,4 -4,4"/>
<!-- cartopy -->
<g id="node1" class="node">
<title>cartopy</title>
<ellipse fill="#31688e" stroke="black" cx="44.85" cy="-162" rx="44.69" ry="18"/>
<text text-anchor="middle" x="44.85" y="-158.3" font-family="Times,serif" font-size="14.00" fill="white">cartopy</text>
</g>
<!-- cdo -->
<g id="node2" class="node">
<title>cdo</title>
<ellipse fill="#31688e" stroke="black" cx="134.85" cy="-162" rx="27" ry="18"/>
<text text-anchor="middle" x="134.85" y="-158.3" font-family="Times,serif" font-size="14.00" fill="white">cdo</text>
</g>
<!-- gdal -->
<g id="node3" class="node">
<title>gdal</title>
<ellipse fill="#fde725" stroke="black" cx="223.85" cy="-90" rx="30.59" ry="18"/>
<text text-anchor="middle" x="223.85" y="-86.3" font-family="Times,serif" font-size="14.00">gdal</text>
</g>
<!-- qgis -->
<g id="node9" class="node">
<title>qgis</title>
<ellipse fill="#fde725" stroke="black" cx="252.85" cy="-18" rx="30.59" ry="18"/>
<text text-anchor="middle" x="252.85" y="-14.3" font-family="Times,serif" font-size="14.00">qgis</text>
</g>
<!-- gdal&#45;&gt;qgis -->
<g id="edge1" class="edge">
<title>gdal&#45;&gt;qgis</title>
<path fill="none" stroke="black" d="M230.72,-72.41C234.06,-64.34 238.17,-54.43 241.93,-45.35"/>
<polygon fill="black" stroke="black" points="245.23,-46.53 245.82,-35.96 238.76,-43.86 245.23,-46.53"/>
</g>
<!-- libspatialite -->
<g id="node4" class="node">
<title>libspatialite</title>
<ellipse fill="#31688e" stroke="black" cx="253.85" cy="-162" rx="74.19" ry="18"/>
<text text-anchor="middle" x="253.85" y="-158.3" font-family="Times,serif" font-size="14.00" fill="white">libspatialite</text>
</g>
<!-- libspatialite&#45;&gt;gdal -->
<g id="edge2" class="edge">
<title>libspatialite&#45;&gt;gdal</title>
<path fill="none" stroke="black" d="M246.58,-144.05C243.12,-135.97 238.9,-126.12 235.04,-117.11"/>
<polygon fill="black" stroke="black" points="238.2,-115.6 231.04,-107.79 231.76,-118.36 238.2,-115.6"/>
</g>
<!-- libspatialite&#45;&gt;qgis -->
<g id="edge3" class="edge">
<title>libspatialite&#45;&gt;qgis</title>
<path fill="none" stroke="black" d="M257.91,-143.93C260.15,-133.6 262.71,-120.12 263.85,-108 265.34,-92.07 265.48,-87.92 263.85,-72 262.97,-63.46 261.32,-54.26 259.55,-45.96"/>
<polygon fill="black" stroke="black" points="262.93,-45.03 257.31,-36.05 256.1,-46.57 262.93,-45.03"/>
</g>
<!-- magics -->
<g id="node5" class="node">
<title>magics</title>
<ellipse fill="#31688e" stroke="black" cx="385.85" cy="-162" rx="40.09" ry="18"/>
<text text-anchor="middle" x="385.85" y="-158.3" font-family="Times,serif" font-size="14.00" fill="white">magics</text>
</g>
<!-- ncl -->
<g id="node6" class="node">
<title>ncl</title>
<ellipse fill="#31688e" stroke="black" cx="470.85" cy="-162" rx="27" ry="18"/>
<text text-anchor="middle" x="470.85" y="-158.3" font-family="Times,serif" font-size="14.00" fill="white">ncl</text>
</g>
<!-- postgis -->
<g id="node7" class="node">
<title>postgis</title>
<ellipse fill="#31688e" stroke="black" cx="560.85" cy="-162" rx="44.69" ry="18"/>
<text text-anchor="middle" x="560.85" y="-158.3" font-family="Times,serif" font-size="14.00" fill="white">postgis</text>
</g>
<!-- pynio -->
<g id="node8" class="node">
<title>pynio</title>
<ellipse fill="#31688e" stroke="black" cx="658.85" cy="-162" rx="35.19" ry="18"/>
<text text-anchor="middle" x="658.85" y="-158.3" font-family="Times,serif" font-size="14.00" fill="white">pynio</text>
</g>
</g>
</svg>
