<?xml version="1.0" encoding="UTF-8" standalone="no"?>
<!DOCTYPE svg PUBLIC "-//W3C//DTD SVG 1.1//EN"
 "http://www.w3.org/Graphics/SVG/1.1/DTD/svg11.dtd">
<!-- Generated by graphviz version 2.42.3 (20191010.1750)
 -->
<!-- Title: %3 Pages: 1 -->
<svg width="729pt" height="116pt"
 viewBox="0.00 0.00 729.39 116.00" xmlns="http://www.w3.org/2000/svg" xmlns:xlink="http://www.w3.org/1999/xlink">
<g id="graph0" class="graph" transform="scale(1 1) rotate(0) translate(4 112)">
<title>%3</title>
<polygon fill="white" stroke="transparent" points="-4,4 -4,-112 725.39,-112 725.39,4 -4,4"/>
<!-- basemap -->
<g id="node1" class="node">
<title>basemap</title>
<g id="a_node1"><a xlink:href="https://github.com/conda-forge/basemap-feedstock/pull/60" xlink:title="basemap">
<ellipse fill="#31688e" stroke="black" cx="44.85" cy="-90" rx="44.69" ry="18"/>
<text text-anchor="middle" x="44.85" y="-86.3" font-family="Times,serif" font-size="14.00" fill="white">basemap</text>
</a>
</g>
</g>
<!-- conda&#45;forge&#45;pinning -->
<g id="node9" class="node">
<title>conda&#45;forge&#45;pinning</title>
<ellipse fill="none" stroke="black" cx="371.85" cy="-18" rx="103.18" ry="18"/>
<text text-anchor="middle" x="371.85" y="-14.3" font-family="Times,serif" font-size="14.00">conda&#45;forge&#45;pinning</text>
</g>
<!-- basemap&#45;&gt;conda&#45;forge&#45;pinning -->
<g id="edge1" class="edge">
<title>basemap&#45;&gt;conda&#45;forge&#45;pinning</title>
<path fill="none" stroke="black" d="M78.09,-77.89C84.92,-75.79 92.08,-73.72 98.85,-72 162.07,-55.97 234.59,-42.1 288.99,-32.57"/>
<polygon fill="black" stroke="black" points="289.67,-36 298.93,-30.84 288.47,-29.11 289.67,-36"/>
</g>
<!-- magics -->
<g id="node2" class="node">
<title>magics</title>
<g id="a_node2"><a xlink:href="https://github.com/conda-forge/magics-feedstock/pull/69" xlink:title="magics">
<ellipse fill="#31688e" stroke="black" cx="147.85" cy="-90" rx="40.09" ry="18"/>
<text text-anchor="middle" x="147.85" y="-86.3" font-family="Times,serif" font-size="14.00" fill="white">magics</text>
</a>
</g>
</g>
<!-- magics&#45;&gt;conda&#45;forge&#45;pinning -->
<g id="edge2" class="edge">
<title>magics&#45;&gt;conda&#45;forge&#45;pinning</title>
<path fill="none" stroke="black" d="M178.36,-78.2C184.47,-76.1 190.85,-73.95 196.85,-72 234.77,-59.68 277.6,-46.7 311.4,-36.66"/>
<polygon fill="black" stroke="black" points="312.54,-39.97 321.14,-33.78 310.55,-33.26 312.54,-39.97"/>
</g>
<!-- ncl -->
<g id="node3" class="node">
<title>ncl</title>
<g id="a_node3"><a xlink:href="https://github.com/conda-forge/ncl-feedstock/pull/77" xlink:title="ncl">
<ellipse fill="#31688e" stroke="black" cx="232.85" cy="-90" rx="27" ry="18"/>
<text text-anchor="middle" x="232.85" y="-86.3" font-family="Times,serif" font-size="14.00" fill="white">ncl</text>
</a>
</g>
</g>
<!-- ncl&#45;&gt;conda&#45;forge&#45;pinning -->
<g id="edge3" class="edge">
<title>ncl&#45;&gt;conda&#45;forge&#45;pinning</title>
<path fill="none" stroke="black" d="M253.66,-78.52C273.96,-68.3 305.4,-52.46 330.75,-39.69"/>
<polygon fill="black" stroke="black" points="332.43,-42.77 339.79,-35.14 329.28,-36.52 332.43,-42.77"/>
</g>
<!-- postgis -->
<g id="node4" class="node">
<title>postgis</title>
<g id="a_node4"><a xlink:href="https://github.com/conda-forge/postgis-feedstock/pull/42" xlink:title="postgis">
<ellipse fill="#31688e" stroke="black" cx="322.85" cy="-90" rx="44.69" ry="18"/>
<text text-anchor="middle" x="322.85" y="-86.3" font-family="Times,serif" font-size="14.00" fill="white">postgis</text>
</a>
</g>
</g>
<!-- postgis&#45;&gt;conda&#45;forge&#45;pinning -->
<g id="edge4" class="edge">
<title>postgis&#45;&gt;conda&#45;forge&#45;pinning</title>
<path fill="none" stroke="black" d="M334.46,-72.41C340.35,-63.99 347.64,-53.58 354.21,-44.2"/>
<polygon fill="black" stroke="black" points="357.11,-46.16 359.98,-35.96 351.37,-42.14 357.11,-46.16"/>
</g>
<!-- pynio -->
<g id="node5" class="node">
<title>pynio</title>
<ellipse fill="#35b779" stroke="black" cx="420.85" cy="-90" rx="35.19" ry="18"/>
<text text-anchor="middle" x="420.85" y="-86.3" font-family="Times,serif" font-size="14.00">pynio</text>
</g>
<!-- pynio&#45;&gt;conda&#45;forge&#45;pinning -->
<g id="edge5" class="edge">
<title>pynio&#45;&gt;conda&#45;forge&#45;pinning</title>
<path fill="none" stroke="black" d="M409.48,-72.76C403.59,-64.35 396.27,-53.89 389.65,-44.44"/>
<polygon fill="black" stroke="black" points="392.43,-42.31 383.83,-36.12 386.7,-46.32 392.43,-42.31"/>
</g>
<!-- qgis -->
<g id="node6" class="node">
<title>qgis</title>
<g id="a_node6"><a xlink:href="https://github.com/conda-forge/qgis-feedstock/pull/121" xlink:title="qgis">
<ellipse fill="#31688e" stroke="black" cx="504.85" cy="-90" rx="30.59" ry="18"/>
<text text-anchor="middle" x="504.85" y="-86.3" font-family="Times,serif" font-size="14.00" fill="white">qgis</text>
</a>
</g>
</g>
<!-- qgis&#45;&gt;conda&#45;forge&#45;pinning -->
<g id="edge6" class="edge">
<title>qgis&#45;&gt;conda&#45;forge&#45;pinning</title>
<path fill="none" stroke="black" d="M482.88,-77.44C463.6,-67.29 435.08,-52.28 411.77,-40.01"/>
<polygon fill="black" stroke="black" points="413.28,-36.85 402.8,-35.29 410.02,-43.05 413.28,-36.85"/>
</g>
<!-- r&#45;rgdal -->
<g id="node7" class="node">
<title>r&#45;rgdal</title>
<g id="a_node7"><a xlink:href="https://github.com/conda-forge/r-rgdal-feedstock/pull/36" xlink:title="r rgdal">
<ellipse fill="#31688e" stroke="black" cx="597.85" cy="-90" rx="44.69" ry="18"/>
<text text-anchor="middle" x="597.85" y="-86.3" font-family="Times,serif" font-size="14.00" fill="white">r rgdal</text>
</a>
</g>
</g>
<!-- r&#45;rgdal&#45;&gt;conda&#45;forge&#45;pinning -->
<g id="edge7" class="edge">
<title>r&#45;rgdal&#45;&gt;conda&#45;forge&#45;pinning</title>
<path fill="none" stroke="black" d="M563.94,-78.05C557.6,-76.02 551.02,-73.94 544.85,-72 506.93,-60.11 464.23,-47.03 430.75,-36.84"/>
<polygon fill="black" stroke="black" points="431.7,-33.47 421.12,-33.91 429.66,-40.16 431.7,-33.47"/>
</g>
<!-- r&#45;sf -->
<g id="node8" class="node">
<title>r&#45;sf</title>
<g id="a_node8"><a xlink:href="https://github.com/conda-forge/r-sf-feedstock/pull/34" xlink:title="r sf">
<ellipse fill="#31688e" stroke="black" cx="690.85" cy="-90" rx="30.59" ry="18"/>
<text text-anchor="middle" x="690.85" y="-86.3" font-family="Times,serif" font-size="14.00" fill="white">r sf</text>
</a>
</g>
</g>
<!-- r&#45;sf&#45;&gt;conda&#45;forge&#45;pinning -->
<g id="edge8" class="edge">
<title>r&#45;sf&#45;&gt;conda&#45;forge&#45;pinning</title>
<path fill="none" stroke="black" d="M667.66,-77.88C662.53,-75.71 657.07,-73.61 651.85,-72 589.87,-52.89 517.94,-39.46 462.51,-30.89"/>
<polygon fill="black" stroke="black" points="462.77,-27.39 452.36,-29.35 461.72,-34.31 462.77,-27.39"/>
</g>
</g>
</svg>
