<?xml version="1.0" encoding="UTF-8" standalone="no"?>
<!DOCTYPE svg PUBLIC "-//W3C//DTD SVG 1.1//EN"
 "http://www.w3.org/Graphics/SVG/1.1/DTD/svg11.dtd">
<!-- Generated by graphviz version 2.42.3 (20191010.1750)
 -->
<!-- Title: %3 Pages: 1 -->
<svg width="1042pt" height="188pt"
 viewBox="0.00 0.00 1041.94 188.00" xmlns="http://www.w3.org/2000/svg" xmlns:xlink="http://www.w3.org/1999/xlink">
<g id="graph0" class="graph" transform="scale(1 1) rotate(0) translate(4 184)">
<title>%3</title>
<polygon fill="white" stroke="transparent" points="-4,4 -4,-184 1037.94,-184 1037.94,4 -4,4"/>
<!-- basemap -->
<g id="node1" class="node">
<title>basemap</title>
<g id="a_node1"><a xlink:href="https://github.com/conda-forge/basemap-feedstock/pull/60" xlink:title="basemap">
<ellipse fill="#31688e" stroke="black" cx="44.85" cy="-90" rx="44.69" ry="18"/>
<text text-anchor="middle" x="44.85" y="-86.3" font-family="Times,serif" font-size="14.00" fill="white">basemap</text>
</a>
</g>
</g>
<!-- conda&#45;forge&#45;pinning -->
<g id="node12" class="node">
<title>conda&#45;forge&#45;pinning</title>
<ellipse fill="none" stroke="black" cx="514.85" cy="-18" rx="103.18" ry="18"/>
<text text-anchor="middle" x="514.85" y="-14.3" font-family="Times,serif" font-size="14.00">conda&#45;forge&#45;pinning</text>
</g>
<!-- basemap&#45;&gt;conda&#45;forge&#45;pinning -->
<g id="edge1" class="edge">
<title>basemap&#45;&gt;conda&#45;forge&#45;pinning</title>
<path fill="none" stroke="black" d="M77.72,-77.63C84.64,-75.52 91.93,-73.52 98.85,-72 204.43,-48.85 327.46,-34.72 412.19,-26.94"/>
<polygon fill="black" stroke="black" points="412.69,-30.41 422.33,-26.03 412.06,-23.44 412.69,-30.41"/>
</g>
<!-- cartopy -->
<g id="node2" class="node">
<title>cartopy</title>
<g id="a_node2"><a xlink:href="https://github.com/conda-forge/cartopy-feedstock/pull/81" xlink:title="cartopy">
<ellipse fill="#31688e" stroke="black" cx="152.85" cy="-90" rx="44.69" ry="18"/>
<text text-anchor="middle" x="152.85" y="-86.3" font-family="Times,serif" font-size="14.00" fill="white">cartopy</text>
</a>
</g>
</g>
<!-- cartopy&#45;&gt;conda&#45;forge&#45;pinning -->
<g id="edge2" class="edge">
<title>cartopy&#45;&gt;conda&#45;forge&#45;pinning</title>
<path fill="none" stroke="black" d="M186.06,-77.77C192.89,-75.68 200.06,-73.64 206.85,-72 279.78,-54.33 363.8,-40.28 425.64,-31.1"/>
<polygon fill="black" stroke="black" points="426.38,-34.53 435.76,-29.62 425.36,-27.61 426.38,-34.53"/>
</g>
<!-- gdal -->
<g id="node3" class="node">
<title>gdal</title>
<ellipse fill="#fde725" stroke="black" cx="514.85" cy="-162" rx="30.59" ry="18"/>
<text text-anchor="middle" x="514.85" y="-158.3" font-family="Times,serif" font-size="14.00">gdal</text>
</g>
<!-- ncl -->
<g id="node5" class="node">
<title>ncl</title>
<ellipse fill="#fde725" stroke="black" cx="242.85" cy="-90" rx="27" ry="18"/>
<text text-anchor="middle" x="242.85" y="-86.3" font-family="Times,serif" font-size="14.00">ncl</text>
</g>
<!-- gdal&#45;&gt;ncl -->
<g id="edge3" class="edge">
<title>gdal&#45;&gt;ncl</title>
<path fill="none" stroke="black" d="M485.58,-156.56C440.4,-149.24 351.32,-132.91 278.85,-108 276.93,-107.34 274.99,-106.61 273.04,-105.84"/>
<polygon fill="black" stroke="black" points="274.03,-102.45 263.46,-101.69 271.25,-108.87 274.03,-102.45"/>
</g>
<!-- postgis -->
<g id="node6" class="node">
<title>postgis</title>
<ellipse fill="#fde725" stroke="black" cx="332.85" cy="-90" rx="44.69" ry="18"/>
<text text-anchor="middle" x="332.85" y="-86.3" font-family="Times,serif" font-size="14.00">postgis</text>
</g>
<!-- gdal&#45;&gt;postgis -->
<g id="edge4" class="edge">
<title>gdal&#45;&gt;postgis</title>
<path fill="none" stroke="black" d="M489.92,-151.41C460.02,-139.91 409.47,-120.47 373.81,-106.75"/>
<polygon fill="black" stroke="black" points="374.76,-103.37 364.17,-103.05 372.25,-109.9 374.76,-103.37"/>
</g>
<!-- pynio -->
<g id="node7" class="node">
<title>pynio</title>
<ellipse fill="#fde725" stroke="black" cx="430.85" cy="-90" rx="35.19" ry="18"/>
<text text-anchor="middle" x="430.85" y="-86.3" font-family="Times,serif" font-size="14.00">pynio</text>
</g>
<!-- gdal&#45;&gt;pynio -->
<g id="edge5" class="edge">
<title>gdal&#45;&gt;pynio</title>
<path fill="none" stroke="black" d="M497.85,-146.83C485.94,-136.91 469.81,-123.47 456.36,-112.26"/>
<polygon fill="black" stroke="black" points="458.32,-109.34 448.4,-105.63 453.84,-114.72 458.32,-109.34"/>
</g>
<!-- qgis -->
<g id="node8" class="node">
<title>qgis</title>
<ellipse fill="#fde725" stroke="black" cx="514.85" cy="-90" rx="30.59" ry="18"/>
<text text-anchor="middle" x="514.85" y="-86.3" font-family="Times,serif" font-size="14.00">qgis</text>
</g>
<!-- gdal&#45;&gt;qgis -->
<g id="edge6" class="edge">
<title>gdal&#45;&gt;qgis</title>
<path fill="none" stroke="black" d="M514.85,-143.7C514.85,-135.98 514.85,-126.71 514.85,-118.11"/>
<polygon fill="black" stroke="black" points="518.35,-118.1 514.85,-108.1 511.35,-118.1 518.35,-118.1"/>
</g>
<!-- r&#45;rgdal -->
<g id="node9" class="node">
<title>r&#45;rgdal</title>
<ellipse fill="#fde725" stroke="black" cx="607.85" cy="-90" rx="44.69" ry="18"/>
<text text-anchor="middle" x="607.85" y="-86.3" font-family="Times,serif" font-size="14.00">r rgdal</text>
</g>
<!-- gdal&#45;&gt;r&#45;rgdal -->
<g id="edge7" class="edge">
<title>gdal&#45;&gt;r&#45;rgdal</title>
<path fill="none" stroke="black" d="M533.22,-147.17C546.44,-137.22 564.52,-123.61 579.57,-112.28"/>
<polygon fill="black" stroke="black" points="581.69,-115.07 587.57,-106.26 577.48,-109.48 581.69,-115.07"/>
</g>
<!-- r&#45;sf -->
<g id="node10" class="node">
<title>r&#45;sf</title>
<ellipse fill="#fde725" stroke="black" cx="700.85" cy="-90" rx="30.59" ry="18"/>
<text text-anchor="middle" x="700.85" y="-86.3" font-family="Times,serif" font-size="14.00">r sf</text>
</g>
<!-- gdal&#45;&gt;r&#45;sf -->
<g id="edge8" class="edge">
<title>gdal&#45;&gt;r&#45;sf</title>
<path fill="none" stroke="black" d="M540.79,-152.22C570.32,-142.09 619.87,-124.69 661.85,-108 663.7,-107.26 665.6,-106.49 667.5,-105.7"/>
<polygon fill="black" stroke="black" points="669.18,-108.8 677.02,-101.68 666.45,-102.35 669.18,-108.8"/>
</g>
<!-- gdal&#45;&gt;conda&#45;forge&#45;pinning -->
<g id="edge9" class="edge">
<title>gdal&#45;&gt;conda&#45;forge&#45;pinning</title>
<path fill="none" stroke="black" d="M545.22,-158.45C601.1,-153.05 716.75,-138.4 740.85,-108 780.08,-58.5 696.04,-36.46 619.55,-26.69"/>
<polygon fill="black" stroke="black" points="619.66,-23.17 609.31,-25.44 618.81,-30.12 619.66,-23.17"/>
</g>
<!-- magics -->
<g id="node4" class="node">
<title>magics</title>
<g id="a_node4"><a xlink:href="https://github.com/conda-forge/magics-feedstock/pull/69" xlink:title="magics">
<ellipse fill="#31688e" stroke="black" cx="827.85" cy="-90" rx="40.09" ry="18"/>
<text text-anchor="middle" x="827.85" y="-86.3" font-family="Times,serif" font-size="14.00" fill="white">magics</text>
</a>
</g>
</g>
<!-- magics&#45;&gt;conda&#45;forge&#45;pinning -->
<g id="edge10" class="edge">
<title>magics&#45;&gt;conda&#45;forge&#45;pinning</title>
<path fill="none" stroke="black" d="M796.59,-78.56C789.18,-76.25 781.27,-73.92 773.85,-72 714.38,-56.6 646.31,-42.82 594.88,-33.17"/>
<polygon fill="black" stroke="black" points="595.3,-29.69 584.82,-31.3 594.01,-36.57 595.3,-29.69"/>
</g>
<!-- ncl&#45;&gt;conda&#45;forge&#45;pinning -->
<g id="edge11" class="edge">
<title>ncl&#45;&gt;conda&#45;forge&#45;pinning</title>
<path fill="none" stroke="black" d="M263.46,-78.31C268.41,-76.02 273.75,-73.75 278.85,-72 328.89,-54.8 386.84,-41.69 432.8,-32.82"/>
<polygon fill="black" stroke="black" points="433.54,-36.24 442.71,-30.93 432.23,-29.36 433.54,-36.24"/>
</g>
<!-- postgis&#45;&gt;conda&#45;forge&#45;pinning -->
<g id="edge12" class="edge">
<title>postgis&#45;&gt;conda&#45;forge&#45;pinning</title>
<path fill="none" stroke="black" d="M364.13,-76.97C391.67,-66.37 432.28,-50.76 464.4,-38.4"/>
<polygon fill="black" stroke="black" points="466,-41.54 474.08,-34.68 463.49,-35 466,-41.54"/>
</g>
<!-- pynio&#45;&gt;conda&#45;forge&#45;pinning -->
<g id="edge13" class="edge">
<title>pynio&#45;&gt;conda&#45;forge&#45;pinning</title>
<path fill="none" stroke="black" d="M448.66,-74.15C459.72,-64.94 474.18,-52.89 486.76,-42.41"/>
<polygon fill="black" stroke="black" points="489.26,-44.88 494.7,-35.79 484.78,-39.5 489.26,-44.88"/>
</g>
<!-- qgis&#45;&gt;conda&#45;forge&#45;pinning -->
<g id="edge14" class="edge">
<title>qgis&#45;&gt;conda&#45;forge&#45;pinning</title>
<path fill="none" stroke="black" d="M514.85,-71.7C514.85,-63.98 514.85,-54.71 514.85,-46.11"/>
<polygon fill="black" stroke="black" points="518.35,-46.1 514.85,-36.1 511.35,-46.1 518.35,-46.1"/>
</g>
<!-- r&#45;rgdal&#45;&gt;conda&#45;forge&#45;pinning -->
<g id="edge15" class="edge">
<title>r&#45;rgdal&#45;&gt;conda&#45;forge&#45;pinning</title>
<path fill="none" stroke="black" d="M587.67,-73.81C575.28,-64.49 559.18,-52.37 545.26,-41.9"/>
<polygon fill="black" stroke="black" points="547.03,-38.85 536.94,-35.63 542.82,-44.44 547.03,-38.85"/>
</g>
<!-- r&#45;sf&#45;&gt;conda&#45;forge&#45;pinning -->
<g id="edge16" class="edge">
<title>r&#45;sf&#45;&gt;conda&#45;forge&#45;pinning</title>
<path fill="none" stroke="black" d="M677.02,-78.32C672.03,-76.17 666.79,-73.97 661.85,-72 631.4,-59.89 596.97,-47.41 569.09,-37.61"/>
<polygon fill="black" stroke="black" points="570.11,-34.26 559.51,-34.26 567.8,-40.86 570.11,-34.26"/>
</g>
<!-- metview&#45;batch -->
<g id="node11" class="node">
<title>metview&#45;batch</title>
<g id="a_node11"><a xlink:href="https://github.com/conda-forge/metview-batch-feedstock/pull/8" xlink:title="metview batch">
<ellipse fill="#31688e" stroke="black" cx="959.85" cy="-90" rx="74.19" ry="18"/>
<text text-anchor="middle" x="959.85" y="-86.3" font-family="Times,serif" font-size="14.00" fill="white">metview batch</text>
</a>
</g>
</g>
<!-- metview&#45;batch&#45;&gt;conda&#45;forge&#45;pinning -->
<g id="edge17" class="edge">
<title>metview&#45;batch&#45;&gt;conda&#45;forge&#45;pinning</title>
<path fill="none" stroke="black" d="M905.91,-77.49C896.25,-75.56 886.26,-73.65 876.85,-72 784.68,-55.83 678.71,-40.72 605.34,-30.8"/>
<polygon fill="black" stroke="black" points="605.59,-27.3 595.21,-29.44 604.66,-34.24 605.59,-27.3"/>
</g>
</g>
</svg>
