<?xml version="1.0" encoding="UTF-8" standalone="no"?>
<!DOCTYPE svg PUBLIC "-//W3C//DTD SVG 1.1//EN"
 "http://www.w3.org/Graphics/SVG/1.1/DTD/svg11.dtd">
<!-- Generated by graphviz version 2.42.3 (20191010.1750)
 -->
<!-- Title: %3 Pages: 1 -->
<svg width="621pt" height="116pt"
 viewBox="0.00 0.00 621.39 116.00" xmlns="http://www.w3.org/2000/svg" xmlns:xlink="http://www.w3.org/1999/xlink">
<g id="graph0" class="graph" transform="scale(1 1) rotate(0) translate(4 112)">
<title>%3</title>
<polygon fill="white" stroke="transparent" points="-4,4 -4,-112 617.39,-112 617.39,4 -4,4"/>
<!-- basemap -->
<g id="node1" class="node">
<title>basemap</title>
<g id="a_node1"><a xlink:href="https://github.com/conda-forge/basemap-feedstock/pull/61" xlink:title="basemap">
<ellipse fill="#31688e" stroke="black" cx="44.85" cy="-90" rx="44.69" ry="18"/>
<text text-anchor="middle" x="44.85" y="-86.3" font-family="Times,serif" font-size="14.00" fill="white">basemap</text>
</a>
</g>
</g>
<!-- conda&#45;forge&#45;pinning -->
<g id="node8" class="node">
<title>conda&#45;forge&#45;pinning</title>
<ellipse fill="none" stroke="black" cx="312.85" cy="-18" rx="103.18" ry="18"/>
<text text-anchor="middle" x="312.85" y="-14.3" font-family="Times,serif" font-size="14.00">conda&#45;forge&#45;pinning</text>
</g>
<!-- basemap&#45;&gt;conda&#45;forge&#45;pinning -->
<g id="edge1" class="edge">
<title>basemap&#45;&gt;conda&#45;forge&#45;pinning</title>
<path fill="none" stroke="black" d="M78.45,-78.07C85.18,-75.98 92.22,-73.86 98.85,-72 146.78,-58.53 201.25,-45.07 243.24,-35.08"/>
<polygon fill="black" stroke="black" points="244.16,-38.46 253.09,-32.75 242.55,-31.65 244.16,-38.46"/>
</g>
<!-- magics -->
<g id="node2" class="node">
<title>magics</title>
<g id="a_node2"><a xlink:href="https://github.com/conda-forge/magics-feedstock/pull/69" xlink:title="magics">
<ellipse fill="#31688e" stroke="black" cx="147.85" cy="-90" rx="40.09" ry="18"/>
<text text-anchor="middle" x="147.85" y="-86.3" font-family="Times,serif" font-size="14.00" fill="white">magics</text>
</a>
</g>
</g>
<!-- magics&#45;&gt;conda&#45;forge&#45;pinning -->
<g id="edge2" class="edge">
<title>magics&#45;&gt;conda&#45;forge&#45;pinning</title>
<path fill="none" stroke="black" d="M176.21,-76.97C200.88,-66.5 237.11,-51.13 266.07,-38.85"/>
<polygon fill="black" stroke="black" points="267.74,-41.94 275.58,-34.81 265.01,-35.49 267.74,-41.94"/>
</g>
<!-- ncl -->
<g id="node3" class="node">
<title>ncl</title>
<g id="a_node3"><a xlink:href="https://github.com/conda-forge/ncl-feedstock/pull/77" xlink:title="ncl">
<ellipse fill="#31688e" stroke="black" cx="232.85" cy="-90" rx="27" ry="18"/>
<text text-anchor="middle" x="232.85" y="-86.3" font-family="Times,serif" font-size="14.00" fill="white">ncl</text>
</a>
</g>
</g>
<!-- ncl&#45;&gt;conda&#45;forge&#45;pinning -->
<g id="edge3" class="edge">
<title>ncl&#45;&gt;conda&#45;forge&#45;pinning</title>
<path fill="none" stroke="black" d="M248.65,-75.17C259.26,-65.89 273.51,-53.42 285.88,-42.59"/>
<polygon fill="black" stroke="black" points="288.47,-44.98 293.69,-35.76 283.86,-39.72 288.47,-44.98"/>
</g>
<!-- pynio -->
<g id="node4" class="node">
<title>pynio</title>
<g id="a_node4"><a xlink:href="https://github.com/conda-forge/pynio-feedstock/pull/84" xlink:title="pynio">
<ellipse fill="#31688e" stroke="black" cx="312.85" cy="-90" rx="35.19" ry="18"/>
<text text-anchor="middle" x="312.85" y="-86.3" font-family="Times,serif" font-size="14.00" fill="white">pynio</text>
</a>
</g>
</g>
<!-- pynio&#45;&gt;conda&#45;forge&#45;pinning -->
<g id="edge4" class="edge">
<title>pynio&#45;&gt;conda&#45;forge&#45;pinning</title>
<path fill="none" stroke="black" d="M312.85,-71.7C312.85,-63.98 312.85,-54.71 312.85,-46.11"/>
<polygon fill="black" stroke="black" points="316.35,-46.1 312.85,-36.1 309.35,-46.1 316.35,-46.1"/>
</g>
<!-- qgis -->
<g id="node5" class="node">
<title>qgis</title>
<g id="a_node5"><a xlink:href="https://github.com/conda-forge/qgis-feedstock/pull/121" xlink:title="qgis">
<ellipse fill="#31688e" stroke="black" cx="396.85" cy="-90" rx="30.59" ry="18"/>
<text text-anchor="middle" x="396.85" y="-86.3" font-family="Times,serif" font-size="14.00" fill="white">qgis</text>
</a>
</g>
</g>
<!-- qgis&#45;&gt;conda&#45;forge&#45;pinning -->
<g id="edge5" class="edge">
<title>qgis&#45;&gt;conda&#45;forge&#45;pinning</title>
<path fill="none" stroke="black" d="M379.85,-74.83C368.65,-65.5 353.73,-53.07 340.81,-42.3"/>
<polygon fill="black" stroke="black" points="343,-39.57 333.08,-35.86 338.52,-44.95 343,-39.57"/>
</g>
<!-- r&#45;rgdal -->
<g id="node6" class="node">
<title>r&#45;rgdal</title>
<g id="a_node6"><a xlink:href="https://github.com/conda-forge/r-rgdal-feedstock/pull/36" xlink:title="r rgdal">
<ellipse fill="#31688e" stroke="black" cx="489.85" cy="-90" rx="44.69" ry="18"/>
<text text-anchor="middle" x="489.85" y="-86.3" font-family="Times,serif" font-size="14.00" fill="white">r rgdal</text>
</a>
</g>
</g>
<!-- r&#45;rgdal&#45;&gt;conda&#45;forge&#45;pinning -->
<g id="edge6" class="edge">
<title>r&#45;rgdal&#45;&gt;conda&#45;forge&#45;pinning</title>
<path fill="none" stroke="black" d="M459.01,-76.81C432.27,-66.23 393.07,-50.73 362,-38.44"/>
<polygon fill="black" stroke="black" points="363.22,-35.16 352.64,-34.74 360.65,-41.67 363.22,-35.16"/>
</g>
<!-- r&#45;sf -->
<g id="node7" class="node">
<title>r&#45;sf</title>
<g id="a_node7"><a xlink:href="https://github.com/conda-forge/r-sf-feedstock/pull/34" xlink:title="r sf">
<ellipse fill="#31688e" stroke="black" cx="582.85" cy="-90" rx="30.59" ry="18"/>
<text text-anchor="middle" x="582.85" y="-86.3" font-family="Times,serif" font-size="14.00" fill="white">r sf</text>
</a>
</g>
</g>
<!-- r&#45;sf&#45;&gt;conda&#45;forge&#45;pinning -->
<g id="edge7" class="edge">
<title>r&#45;sf&#45;&gt;conda&#45;forge&#45;pinning</title>
<path fill="none" stroke="black" d="M559.61,-78.03C554.49,-75.85 549.04,-73.71 543.85,-72 494.34,-55.69 437.27,-42.54 392.24,-33.42"/>
<polygon fill="black" stroke="black" points="392.73,-29.95 382.24,-31.42 391.36,-36.82 392.73,-29.95"/>
</g>
</g>
</svg>
