<?xml version="1.0" encoding="UTF-8" standalone="no"?>
<!DOCTYPE svg PUBLIC "-//W3C//DTD SVG 1.1//EN"
 "http://www.w3.org/Graphics/SVG/1.1/DTD/svg11.dtd">
<!-- Generated by graphviz version 2.42.3 (20191010.1750)
 -->
<!-- Title: %3 Pages: 1 -->
<svg width="357pt" height="116pt"
 viewBox="0.00 0.00 356.69 116.00" xmlns="http://www.w3.org/2000/svg" xmlns:xlink="http://www.w3.org/1999/xlink">
<g id="graph0" class="graph" transform="scale(1 1) rotate(0) translate(4 112)">
<title>%3</title>
<polygon fill="white" stroke="transparent" points="-4,4 -4,-112 352.69,-112 352.69,4 -4,4"/>
<!-- cartopy -->
<g id="node1" class="node">
<title>cartopy</title>
<ellipse fill="#31688e" stroke="black" cx="44.85" cy="-90" rx="44.69" ry="18"/>
<text text-anchor="middle" x="44.85" y="-86.3" font-family="Times,serif" font-size="14.00" fill="white">cartopy</text>
</g>
<!-- gdal -->
<g id="node2" class="node">
<title>gdal</title>
<ellipse fill="#31688e" stroke="black" cx="137.85" cy="-90" rx="30.59" ry="18"/>
<text text-anchor="middle" x="137.85" y="-86.3" font-family="Times,serif" font-size="14.00" fill="white">gdal</text>
</g>
<!-- qgis -->
<g id="node5" class="node">
<title>qgis</title>
<ellipse fill="#fde725" stroke="black" cx="137.85" cy="-18" rx="30.59" ry="18"/>
<text text-anchor="middle" x="137.85" y="-14.3" font-family="Times,serif" font-size="14.00">qgis</text>
</g>
<!-- gdal&#45;&gt;qgis -->
<g id="edge1" class="edge">
<title>gdal&#45;&gt;qgis</title>
<path fill="none" stroke="black" d="M137.85,-71.7C137.85,-63.98 137.85,-54.71 137.85,-46.11"/>
<polygon fill="black" stroke="black" points="141.35,-46.1 137.85,-36.1 134.35,-46.1 141.35,-46.1"/>
</g>
<!-- ncl -->
<g id="node3" class="node">
<title>ncl</title>
<ellipse fill="#31688e" stroke="black" cx="213.85" cy="-90" rx="27" ry="18"/>
<text text-anchor="middle" x="213.85" y="-86.3" font-family="Times,serif" font-size="14.00" fill="white">ncl</text>
</g>
<!-- postgis -->
<g id="node4" class="node">
<title>postgis</title>
<ellipse fill="#31688e" stroke="black" cx="303.85" cy="-90" rx="44.69" ry="18"/>
<text text-anchor="middle" x="303.85" y="-86.3" font-family="Times,serif" font-size="14.00" fill="white">postgis</text>
</g>
</g>
</svg>
