<?xml version="1.0" encoding="UTF-8" standalone="no"?>
<!DOCTYPE svg PUBLIC "-//W3C//DTD SVG 1.1//EN"
 "http://www.w3.org/Graphics/SVG/1.1/DTD/svg11.dtd">
<!-- Generated by graphviz version 2.42.3 (20191010.1750)
 -->
<!-- Title: %3 Pages: 1 -->
<svg width="275pt" height="116pt"
 viewBox="0.00 0.00 274.84 116.00" xmlns="http://www.w3.org/2000/svg" xmlns:xlink="http://www.w3.org/1999/xlink">
<g id="graph0" class="graph" transform="scale(1 1) rotate(0) translate(4 112)">
<title>%3</title>
<polygon fill="white" stroke="transparent" points="-4,4 -4,-112 270.84,-112 270.84,4 -4,4"/>
<!-- magics -->
<g id="node1" class="node">
<title>magics</title>
<g id="a_node1"><a xlink:href="https://github.com/conda-forge/magics-feedstock/pull/69" xlink:title="magics">
<ellipse fill="#31688e" stroke="black" cx="40.3" cy="-90" rx="40.09" ry="18"/>
<text text-anchor="middle" x="40.3" y="-86.3" font-family="Times,serif" font-size="14.00" fill="white">magics</text>
</a>
</g>
</g>
<!-- conda&#45;forge&#45;pinning -->
<g id="node4" class="node">
<title>conda&#45;forge&#45;pinning</title>
<ellipse fill="none" stroke="black" cx="143.3" cy="-18" rx="103.18" ry="18"/>
<text text-anchor="middle" x="143.3" y="-14.3" font-family="Times,serif" font-size="14.00">conda&#45;forge&#45;pinning</text>
</g>
<!-- magics&#45;&gt;conda&#45;forge&#45;pinning -->
<g id="edge1" class="edge">
<title>magics&#45;&gt;conda&#45;forge&#45;pinning</title>
<path fill="none" stroke="black" d="M61.64,-74.5C75.66,-64.97 94.28,-52.31 110.2,-41.49"/>
<polygon fill="black" stroke="black" points="112.42,-44.21 118.73,-35.7 108.49,-38.42 112.42,-44.21"/>
</g>
<!-- r&#45;rgdal -->
<g id="node2" class="node">
<title>r&#45;rgdal</title>
<g id="a_node2"><a xlink:href="https://github.com/conda-forge/r-rgdal-feedstock/pull/37" xlink:title="r rgdal">
<ellipse fill="#31688e" stroke="black" cx="143.3" cy="-90" rx="44.69" ry="18"/>
<text text-anchor="middle" x="143.3" y="-86.3" font-family="Times,serif" font-size="14.00" fill="white">r rgdal</text>
</a>
</g>
</g>
<!-- r&#45;rgdal&#45;&gt;conda&#45;forge&#45;pinning -->
<g id="edge2" class="edge">
<title>r&#45;rgdal&#45;&gt;conda&#45;forge&#45;pinning</title>
<path fill="none" stroke="black" d="M143.3,-71.7C143.3,-63.98 143.3,-54.71 143.3,-46.11"/>
<polygon fill="black" stroke="black" points="146.8,-46.1 143.3,-36.1 139.8,-46.1 146.8,-46.1"/>
</g>
<!-- r&#45;sf -->
<g id="node3" class="node">
<title>r&#45;sf</title>
<g id="a_node3"><a xlink:href="https://github.com/conda-forge/r-sf-feedstock/pull/34" xlink:title="r sf">
<ellipse fill="#31688e" stroke="black" cx="236.3" cy="-90" rx="30.59" ry="18"/>
<text text-anchor="middle" x="236.3" y="-86.3" font-family="Times,serif" font-size="14.00" fill="white">r sf</text>
</a>
</g>
</g>
<!-- r&#45;sf&#45;&gt;conda&#45;forge&#45;pinning -->
<g id="edge3" class="edge">
<title>r&#45;sf&#45;&gt;conda&#45;forge&#45;pinning</title>
<path fill="none" stroke="black" d="M217.92,-75.17C205.36,-65.71 188.4,-52.95 173.82,-41.98"/>
<polygon fill="black" stroke="black" points="175.66,-38.98 165.57,-35.76 171.45,-44.57 175.66,-38.98"/>
</g>
</g>
</svg>
