<?xml version="1.0" encoding="UTF-8" standalone="no"?>
<!DOCTYPE svg PUBLIC "-//W3C//DTD SVG 1.1//EN"
 "http://www.w3.org/Graphics/SVG/1.1/DTD/svg11.dtd">
<!-- Generated by graphviz version 2.42.3 (20191010.1750)
 -->
<!-- Title: %3 Pages: 1 -->
<svg width="215pt" height="116pt"
 viewBox="0.00 0.00 214.68 116.00" xmlns="http://www.w3.org/2000/svg" xmlns:xlink="http://www.w3.org/1999/xlink">
<g id="graph0" class="graph" transform="scale(1 1) rotate(0) translate(4 112)">
<title>%3</title>
<polygon fill="white" stroke="transparent" points="-4,4 -4,-112 210.68,-112 210.68,4 -4,4"/>
<!-- magics -->
<g id="node1" class="node">
<title>magics</title>
<g id="a_node1"><a xlink:href="https://github.com/conda-forge/magics-feedstock/pull/69" xlink:title="magics">
<ellipse fill="#31688e" stroke="black" cx="59.34" cy="-90" rx="40.09" ry="18"/>
<text text-anchor="middle" x="59.34" y="-86.3" font-family="Times,serif" font-size="14.00" fill="white">magics</text>
</a>
</g>
</g>
<!-- conda&#45;forge&#45;pinning -->
<g id="node3" class="node">
<title>conda&#45;forge&#45;pinning</title>
<ellipse fill="none" stroke="black" cx="103.34" cy="-18" rx="103.18" ry="18"/>
<text text-anchor="middle" x="103.34" y="-14.3" font-family="Times,serif" font-size="14.00">conda&#45;forge&#45;pinning</text>
</g>
<!-- magics&#45;&gt;conda&#45;forge&#45;pinning -->
<g id="edge1" class="edge">
<title>magics&#45;&gt;conda&#45;forge&#45;pinning</title>
<path fill="none" stroke="black" d="M69.77,-72.41C75.01,-64.08 81.47,-53.8 87.32,-44.49"/>
<polygon fill="black" stroke="black" points="90.32,-46.29 92.68,-35.96 84.4,-42.56 90.32,-46.29"/>
</g>
<!-- r&#45;sf -->
<g id="node2" class="node">
<title>r&#45;sf</title>
<g id="a_node2"><a xlink:href="https://github.com/conda-forge/r-sf-feedstock/pull/34" xlink:title="r sf">
<ellipse fill="#31688e" stroke="black" cx="148.34" cy="-90" rx="30.59" ry="18"/>
<text text-anchor="middle" x="148.34" y="-86.3" font-family="Times,serif" font-size="14.00" fill="white">r sf</text>
</a>
</g>
</g>
<!-- r&#45;sf&#45;&gt;conda&#45;forge&#45;pinning -->
<g id="edge2" class="edge">
<title>r&#45;sf&#45;&gt;conda&#45;forge&#45;pinning</title>
<path fill="none" stroke="black" d="M137.9,-72.76C132.55,-64.44 125.91,-54.1 119.88,-44.73"/>
<polygon fill="black" stroke="black" points="122.7,-42.64 114.35,-36.12 116.81,-46.43 122.7,-42.64"/>
</g>
</g>
</svg>
