<?xml version="1.0" encoding="UTF-8" standalone="no"?>
<!DOCTYPE svg PUBLIC "-//W3C//DTD SVG 1.1//EN"
 "http://www.w3.org/Graphics/SVG/1.1/DTD/svg11.dtd">
<!-- Generated by graphviz version 2.42.3 (20191010.1750)
 -->
<!-- Title: %3 Pages: 1 -->
<svg width="616pt" height="116pt"
 viewBox="0.00 0.00 615.94 116.00" xmlns="http://www.w3.org/2000/svg" xmlns:xlink="http://www.w3.org/1999/xlink">
<g id="graph0" class="graph" transform="scale(1 1) rotate(0) translate(4 112)">
<title>%3</title>
<polygon fill="white" stroke="transparent" points="-4,4 -4,-112 611.94,-112 611.94,4 -4,4"/>
<!-- cartopy -->
<g id="node1" class="node">
<title>cartopy</title>
<ellipse fill="#31688e" stroke="black" cx="44.85" cy="-90" rx="44.69" ry="18"/>
<text text-anchor="middle" x="44.85" y="-86.3" font-family="Times,serif" font-size="14.00" fill="white">cartopy</text>
</g>
<!-- cdo -->
<g id="node2" class="node">
<title>cdo</title>
<ellipse fill="#31688e" stroke="black" cx="134.85" cy="-90" rx="27" ry="18"/>
<text text-anchor="middle" x="134.85" y="-86.3" font-family="Times,serif" font-size="14.00" fill="white">cdo</text>
</g>
<!-- gdal -->
<g id="node3" class="node">
<title>gdal</title>
<ellipse fill="#31688e" stroke="black" cx="210.85" cy="-90" rx="30.59" ry="18"/>
<text text-anchor="middle" x="210.85" y="-86.3" font-family="Times,serif" font-size="14.00" fill="white">gdal</text>
</g>
<!-- qgis -->
<g id="node8" class="node">
<title>qgis</title>
<ellipse fill="#fde725" stroke="black" cx="210.85" cy="-18" rx="30.59" ry="18"/>
<text text-anchor="middle" x="210.85" y="-14.3" font-family="Times,serif" font-size="14.00">qgis</text>
</g>
<!-- gdal&#45;&gt;qgis -->
<g id="edge1" class="edge">
<title>gdal&#45;&gt;qgis</title>
<path fill="none" stroke="black" d="M210.85,-71.7C210.85,-63.98 210.85,-54.71 210.85,-46.11"/>
<polygon fill="black" stroke="black" points="214.35,-46.1 210.85,-36.1 207.35,-46.1 214.35,-46.1"/>
</g>
<!-- magics -->
<g id="node4" class="node">
<title>magics</title>
<ellipse fill="#31688e" stroke="black" cx="299.85" cy="-90" rx="40.09" ry="18"/>
<text text-anchor="middle" x="299.85" y="-86.3" font-family="Times,serif" font-size="14.00" fill="white">magics</text>
</g>
<!-- ncl -->
<g id="node5" class="node">
<title>ncl</title>
<ellipse fill="#31688e" stroke="black" cx="384.85" cy="-90" rx="27" ry="18"/>
<text text-anchor="middle" x="384.85" y="-86.3" font-family="Times,serif" font-size="14.00" fill="white">ncl</text>
</g>
<!-- postgis -->
<g id="node6" class="node">
<title>postgis</title>
<ellipse fill="#31688e" stroke="black" cx="474.85" cy="-90" rx="44.69" ry="18"/>
<text text-anchor="middle" x="474.85" y="-86.3" font-family="Times,serif" font-size="14.00" fill="white">postgis</text>
</g>
<!-- pynio -->
<g id="node7" class="node">
<title>pynio</title>
<ellipse fill="#31688e" stroke="black" cx="572.85" cy="-90" rx="35.19" ry="18"/>
<text text-anchor="middle" x="572.85" y="-86.3" font-family="Times,serif" font-size="14.00" fill="white">pynio</text>
</g>
</g>
</svg>
