<?xml version="1.0" encoding="UTF-8" standalone="no"?>
<!DOCTYPE svg PUBLIC "-//W3C//DTD SVG 1.1//EN"
 "http://www.w3.org/Graphics/SVG/1.1/DTD/svg11.dtd">
<!-- Generated by graphviz version 2.42.3 (20191010.1750)
 -->
<!-- Title: %3 Pages: 1 -->
<svg width="1000pt" height="188pt"
 viewBox="0.00 0.00 1000.14 188.00" xmlns="http://www.w3.org/2000/svg" xmlns:xlink="http://www.w3.org/1999/xlink">
<g id="graph0" class="graph" transform="scale(1 1) rotate(0) translate(4 184)">
<title>%3</title>
<polygon fill="white" stroke="transparent" points="-4,4 -4,-184 996.14,-184 996.14,4 -4,4"/>
<!-- cartopy -->
<g id="node1" class="node">
<title>cartopy</title>
<ellipse fill="#fde725" stroke="black" cx="44.85" cy="-18" rx="44.69" ry="18"/>
<text text-anchor="middle" x="44.85" y="-14.3" font-family="Times,serif" font-size="14.00">cartopy</text>
</g>
<!-- cdo -->
<g id="node2" class="node">
<title>cdo</title>
<ellipse fill="#31688e" stroke="black" cx="314.85" cy="-162" rx="27" ry="18"/>
<text text-anchor="middle" x="314.85" y="-158.3" font-family="Times,serif" font-size="14.00" fill="white">cdo</text>
</g>
<!-- gdal -->
<g id="node3" class="node">
<title>gdal</title>
<ellipse fill="#fde725" stroke="black" cx="136.85" cy="-90" rx="30.59" ry="18"/>
<text text-anchor="middle" x="136.85" y="-86.3" font-family="Times,serif" font-size="14.00">gdal</text>
</g>
<!-- qgis -->
<g id="node11" class="node">
<title>qgis</title>
<ellipse fill="#fde725" stroke="black" cx="137.85" cy="-18" rx="30.59" ry="18"/>
<text text-anchor="middle" x="137.85" y="-14.3" font-family="Times,serif" font-size="14.00">qgis</text>
</g>
<!-- gdal&#45;&gt;qgis -->
<g id="edge1" class="edge">
<title>gdal&#45;&gt;qgis</title>
<path fill="none" stroke="black" d="M137.09,-71.7C137.2,-63.98 137.34,-54.71 137.46,-46.11"/>
<polygon fill="black" stroke="black" points="140.96,-46.15 137.6,-36.1 133.96,-46.05 140.96,-46.15"/>
</g>
<!-- geotiff -->
<g id="node4" class="node">
<title>geotiff</title>
<ellipse fill="#31688e" stroke="black" cx="58.85" cy="-162" rx="44.69" ry="18"/>
<text text-anchor="middle" x="58.85" y="-158.3" font-family="Times,serif" font-size="14.00" fill="white">geotiff</text>
</g>
<!-- geotiff&#45;&gt;gdal -->
<g id="edge2" class="edge">
<title>geotiff&#45;&gt;gdal</title>
<path fill="none" stroke="black" d="M76.55,-145.12C87.36,-135.41 101.31,-122.89 113.08,-112.33"/>
<polygon fill="black" stroke="black" points="115.7,-114.68 120.81,-105.39 111.03,-109.47 115.7,-114.68"/>
</g>
<!-- libspatialite -->
<g id="node5" class="node">
<title>libspatialite</title>
<ellipse fill="#31688e" stroke="black" cx="195.85" cy="-162" rx="74.19" ry="18"/>
<text text-anchor="middle" x="195.85" y="-158.3" font-family="Times,serif" font-size="14.00" fill="white">libspatialite</text>
</g>
<!-- libspatialite&#45;&gt;gdal -->
<g id="edge3" class="edge">
<title>libspatialite&#45;&gt;gdal</title>
<path fill="none" stroke="black" d="M181.56,-144.05C174,-135.08 164.59,-123.92 156.36,-114.15"/>
<polygon fill="black" stroke="black" points="158.91,-111.75 149.79,-106.36 153.56,-116.26 158.91,-111.75"/>
</g>
<!-- libspatialite&#45;&gt;qgis -->
<g id="edge4" class="edge">
<title>libspatialite&#45;&gt;qgis</title>
<path fill="none" stroke="black" d="M194.36,-143.94C192.28,-125.51 187.47,-95.63 176.85,-72 172.09,-61.42 164.97,-50.89 158.11,-42.04"/>
<polygon fill="black" stroke="black" points="160.71,-39.69 151.7,-34.12 155.27,-44.1 160.71,-39.69"/>
</g>
<!-- magics -->
<g id="node6" class="node">
<title>magics</title>
<ellipse fill="#31688e" stroke="black" cx="399.85" cy="-162" rx="40.09" ry="18"/>
<text text-anchor="middle" x="399.85" y="-158.3" font-family="Times,serif" font-size="14.00" fill="white">magics</text>
</g>
<!-- ncl -->
<g id="node7" class="node">
<title>ncl</title>
<ellipse fill="#31688e" stroke="black" cx="484.85" cy="-162" rx="27" ry="18"/>
<text text-anchor="middle" x="484.85" y="-158.3" font-family="Times,serif" font-size="14.00" fill="white">ncl</text>
</g>
<!-- postgis -->
<g id="node8" class="node">
<title>postgis</title>
<ellipse fill="#31688e" stroke="black" cx="574.85" cy="-162" rx="44.69" ry="18"/>
<text text-anchor="middle" x="574.85" y="-158.3" font-family="Times,serif" font-size="14.00" fill="white">postgis</text>
</g>
<!-- pynio -->
<g id="node9" class="node">
<title>pynio</title>
<ellipse fill="#31688e" stroke="black" cx="672.85" cy="-162" rx="35.19" ry="18"/>
<text text-anchor="middle" x="672.85" y="-158.3" font-family="Times,serif" font-size="14.00" fill="white">pynio</text>
</g>
<!-- pyproj -->
<g id="node10" class="node">
<title>pyproj</title>
<ellipse fill="#31688e" stroke="black" cx="46.85" cy="-90" rx="40.09" ry="18"/>
<text text-anchor="middle" x="46.85" y="-86.3" font-family="Times,serif" font-size="14.00" fill="white">pyproj</text>
</g>
<!-- pyproj&#45;&gt;cartopy -->
<g id="edge6" class="edge">
<title>pyproj&#45;&gt;cartopy</title>
<path fill="none" stroke="black" d="M46.35,-71.7C46.13,-63.98 45.87,-54.71 45.62,-46.11"/>
<polygon fill="black" stroke="black" points="49.12,-46 45.33,-36.1 42.12,-46.2 49.12,-46"/>
</g>
<!-- pyproj&#45;&gt;qgis -->
<g id="edge5" class="edge">
<title>pyproj&#45;&gt;qgis</title>
<path fill="none" stroke="black" d="M66.14,-74.15C79.4,-63.96 97.16,-50.29 111.69,-39.12"/>
<polygon fill="black" stroke="black" points="114.02,-41.74 119.81,-32.87 109.75,-36.19 114.02,-41.74"/>
</g>
<!-- r&#45;proj4 -->
<g id="node12" class="node">
<title>r&#45;proj4</title>
<ellipse fill="#31688e" stroke="black" cx="770.85" cy="-162" rx="44.69" ry="18"/>
<text text-anchor="middle" x="770.85" y="-158.3" font-family="Times,serif" font-size="14.00" fill="white">r proj4</text>
</g>
<!-- r&#45;gribr -->
<g id="node13" class="node">
<title>r&#45;gribr</title>
<ellipse fill="#fde725" stroke="black" cx="770.85" cy="-90" rx="44.69" ry="18"/>
<text text-anchor="middle" x="770.85" y="-86.3" font-family="Times,serif" font-size="14.00">r gribr</text>
</g>
<!-- r&#45;proj4&#45;&gt;r&#45;gribr -->
<g id="edge7" class="edge">
<title>r&#45;proj4&#45;&gt;r&#45;gribr</title>
<path fill="none" stroke="black" d="M770.85,-143.7C770.85,-135.98 770.85,-126.71 770.85,-118.11"/>
<polygon fill="black" stroke="black" points="774.35,-118.1 770.85,-108.1 767.35,-118.1 774.35,-118.1"/>
</g>
<!-- magics&#45;metview -->
<g id="node14" class="node">
<title>magics&#45;metview</title>
<ellipse fill="#31688e" stroke="black" cx="912.85" cy="-162" rx="79.09" ry="18"/>
<text text-anchor="middle" x="912.85" y="-158.3" font-family="Times,serif" font-size="14.00" fill="white">magics metview</text>
</g>
</g>
</svg>
