<?xml version="1.0" encoding="UTF-8" standalone="no"?>
<!DOCTYPE svg PUBLIC "-//W3C//DTD SVG 1.1//EN"
 "http://www.w3.org/Graphics/SVG/1.1/DTD/svg11.dtd">
<!-- Generated by graphviz version 2.42.3 (20191010.1750)
 -->
<!-- Title: %3 Pages: 1 -->
<svg width="876pt" height="188pt"
 viewBox="0.00 0.00 876.14 188.00" xmlns="http://www.w3.org/2000/svg" xmlns:xlink="http://www.w3.org/1999/xlink">
<g id="graph0" class="graph" transform="scale(1 1) rotate(0) translate(4 184)">
<title>%3</title>
<polygon fill="white" stroke="transparent" points="-4,4 -4,-184 872.14,-184 872.14,4 -4,4"/>
<!-- basemap -->
<g id="node1" class="node">
<title>basemap</title>
<g id="a_node1"><a xlink:href="https://github.com/conda-forge/basemap-feedstock/pull/60" xlink:title="basemap">
<ellipse fill="#31688e" stroke="black" cx="44.85" cy="-90" rx="44.69" ry="18"/>
<text text-anchor="middle" x="44.85" y="-86.3" font-family="Times,serif" font-size="14.00" fill="white">basemap</text>
</a>
</g>
</g>
<!-- conda&#45;forge&#45;pinning -->
<g id="node11" class="node">
<title>conda&#45;forge&#45;pinning</title>
<ellipse fill="none" stroke="black" cx="472.85" cy="-18" rx="103.18" ry="18"/>
<text text-anchor="middle" x="472.85" y="-14.3" font-family="Times,serif" font-size="14.00">conda&#45;forge&#45;pinning</text>
</g>
<!-- basemap&#45;&gt;conda&#45;forge&#45;pinning -->
<g id="edge1" class="edge">
<title>basemap&#45;&gt;conda&#45;forge&#45;pinning</title>
<path fill="none" stroke="black" d="M77.74,-77.7C84.65,-75.59 91.94,-73.56 98.85,-72 191.27,-51.05 298.53,-36.87 374.42,-28.48"/>
<polygon fill="black" stroke="black" points="374.88,-31.95 384.45,-27.39 374.13,-24.99 374.88,-31.95"/>
</g>
<!-- cartopy -->
<g id="node2" class="node">
<title>cartopy</title>
<g id="a_node2"><a xlink:href="https://github.com/conda-forge/cartopy-feedstock/pull/82" xlink:title="cartopy">
<ellipse fill="#31688e" stroke="black" cx="152.85" cy="-90" rx="44.69" ry="18"/>
<text text-anchor="middle" x="152.85" y="-86.3" font-family="Times,serif" font-size="14.00" fill="white">cartopy</text>
</a>
</g>
</g>
<!-- cartopy&#45;&gt;conda&#45;forge&#45;pinning -->
<g id="edge2" class="edge">
<title>cartopy&#45;&gt;conda&#45;forge&#45;pinning</title>
<path fill="none" stroke="black" d="M186.1,-77.91C192.92,-75.81 200.09,-73.73 206.85,-72 268.23,-56.27 338.59,-42.43 391.52,-32.84"/>
<polygon fill="black" stroke="black" points="392.31,-36.26 401.53,-31.04 391.07,-29.37 392.31,-36.26"/>
</g>
<!-- gdal -->
<g id="node3" class="node">
<title>gdal</title>
<ellipse fill="#fde725" stroke="black" cx="514.85" cy="-162" rx="30.59" ry="18"/>
<text text-anchor="middle" x="514.85" y="-158.3" font-family="Times,serif" font-size="14.00">gdal</text>
</g>
<!-- ncl -->
<g id="node5" class="node">
<title>ncl</title>
<ellipse fill="#fde725" stroke="black" cx="242.85" cy="-90" rx="27" ry="18"/>
<text text-anchor="middle" x="242.85" y="-86.3" font-family="Times,serif" font-size="14.00">ncl</text>
</g>
<!-- gdal&#45;&gt;ncl -->
<g id="edge3" class="edge">
<title>gdal&#45;&gt;ncl</title>
<path fill="none" stroke="black" d="M485.58,-156.56C440.4,-149.24 351.32,-132.91 278.85,-108 276.93,-107.34 274.99,-106.61 273.04,-105.84"/>
<polygon fill="black" stroke="black" points="274.03,-102.45 263.46,-101.69 271.25,-108.87 274.03,-102.45"/>
</g>
<!-- postgis -->
<g id="node6" class="node">
<title>postgis</title>
<ellipse fill="#fde725" stroke="black" cx="332.85" cy="-90" rx="44.69" ry="18"/>
<text text-anchor="middle" x="332.85" y="-86.3" font-family="Times,serif" font-size="14.00">postgis</text>
</g>
<!-- gdal&#45;&gt;postgis -->
<g id="edge4" class="edge">
<title>gdal&#45;&gt;postgis</title>
<path fill="none" stroke="black" d="M489.92,-151.41C460.02,-139.91 409.47,-120.47 373.81,-106.75"/>
<polygon fill="black" stroke="black" points="374.76,-103.37 364.17,-103.05 372.25,-109.9 374.76,-103.37"/>
</g>
<!-- pynio -->
<g id="node7" class="node">
<title>pynio</title>
<ellipse fill="#fde725" stroke="black" cx="430.85" cy="-90" rx="35.19" ry="18"/>
<text text-anchor="middle" x="430.85" y="-86.3" font-family="Times,serif" font-size="14.00">pynio</text>
</g>
<!-- gdal&#45;&gt;pynio -->
<g id="edge5" class="edge">
<title>gdal&#45;&gt;pynio</title>
<path fill="none" stroke="black" d="M497.85,-146.83C485.94,-136.91 469.81,-123.47 456.36,-112.26"/>
<polygon fill="black" stroke="black" points="458.32,-109.34 448.4,-105.63 453.84,-114.72 458.32,-109.34"/>
</g>
<!-- qgis -->
<g id="node8" class="node">
<title>qgis</title>
<ellipse fill="#fde725" stroke="black" cx="514.85" cy="-90" rx="30.59" ry="18"/>
<text text-anchor="middle" x="514.85" y="-86.3" font-family="Times,serif" font-size="14.00">qgis</text>
</g>
<!-- gdal&#45;&gt;qgis -->
<g id="edge6" class="edge">
<title>gdal&#45;&gt;qgis</title>
<path fill="none" stroke="black" d="M514.85,-143.7C514.85,-135.98 514.85,-126.71 514.85,-118.11"/>
<polygon fill="black" stroke="black" points="518.35,-118.1 514.85,-108.1 511.35,-118.1 518.35,-118.1"/>
</g>
<!-- r&#45;rgdal -->
<g id="node9" class="node">
<title>r&#45;rgdal</title>
<ellipse fill="#fde725" stroke="black" cx="607.85" cy="-90" rx="44.69" ry="18"/>
<text text-anchor="middle" x="607.85" y="-86.3" font-family="Times,serif" font-size="14.00">r rgdal</text>
</g>
<!-- gdal&#45;&gt;r&#45;rgdal -->
<g id="edge7" class="edge">
<title>gdal&#45;&gt;r&#45;rgdal</title>
<path fill="none" stroke="black" d="M533.22,-147.17C546.44,-137.22 564.52,-123.61 579.57,-112.28"/>
<polygon fill="black" stroke="black" points="581.69,-115.07 587.57,-106.26 577.48,-109.48 581.69,-115.07"/>
</g>
<!-- r&#45;sf -->
<g id="node10" class="node">
<title>r&#45;sf</title>
<ellipse fill="#fde725" stroke="black" cx="700.85" cy="-90" rx="30.59" ry="18"/>
<text text-anchor="middle" x="700.85" y="-86.3" font-family="Times,serif" font-size="14.00">r sf</text>
</g>
<!-- gdal&#45;&gt;r&#45;sf -->
<g id="edge8" class="edge">
<title>gdal&#45;&gt;r&#45;sf</title>
<path fill="none" stroke="black" d="M540.79,-152.22C570.32,-142.09 619.87,-124.69 661.85,-108 663.7,-107.26 665.6,-106.49 667.5,-105.7"/>
<polygon fill="black" stroke="black" points="669.18,-108.8 677.02,-101.68 666.45,-102.35 669.18,-108.8"/>
</g>
<!-- gdal&#45;&gt;conda&#45;forge&#45;pinning -->
<g id="edge9" class="edge">
<title>gdal&#45;&gt;conda&#45;forge&#45;pinning</title>
<path fill="none" stroke="black" d="M545.25,-159.73C618.66,-155.6 795.59,-138.63 740.85,-72 720.05,-46.69 643.64,-33.26 577.71,-26.26"/>
<polygon fill="black" stroke="black" points="577.95,-22.77 567.64,-25.23 577.24,-29.73 577.95,-22.77"/>
</g>
<!-- magics -->
<g id="node4" class="node">
<title>magics</title>
<g id="a_node4"><a xlink:href="https://github.com/conda-forge/magics-feedstock/pull/69" xlink:title="magics">
<ellipse fill="#31688e" stroke="black" cx="827.85" cy="-90" rx="40.09" ry="18"/>
<text text-anchor="middle" x="827.85" y="-86.3" font-family="Times,serif" font-size="14.00" fill="white">magics</text>
</a>
</g>
</g>
<!-- magics&#45;&gt;conda&#45;forge&#45;pinning -->
<g id="edge10" class="edge">
<title>magics&#45;&gt;conda&#45;forge&#45;pinning</title>
<path fill="none" stroke="black" d="M796.63,-78.41C789.22,-76.11 781.29,-73.82 773.85,-72 702.95,-54.68 621.35,-40.67 561.01,-31.42"/>
<polygon fill="black" stroke="black" points="561.17,-27.9 550.76,-29.86 560.12,-34.82 561.17,-27.9"/>
</g>
<!-- ncl&#45;&gt;conda&#45;forge&#45;pinning -->
<g id="edge11" class="edge">
<title>ncl&#45;&gt;conda&#45;forge&#45;pinning</title>
<path fill="none" stroke="black" d="M263.9,-78.31C268.74,-76.06 273.92,-73.82 278.85,-72 318.98,-57.17 365.15,-44.39 402.37,-35.1"/>
<polygon fill="black" stroke="black" points="403.26,-38.49 412.13,-32.7 401.58,-31.69 403.26,-38.49"/>
</g>
<!-- postgis&#45;&gt;conda&#45;forge&#45;pinning -->
<g id="edge12" class="edge">
<title>postgis&#45;&gt;conda&#45;forge&#45;pinning</title>
<path fill="none" stroke="black" d="M359.84,-75.5C380.09,-65.38 408.19,-51.33 431.3,-39.78"/>
<polygon fill="black" stroke="black" points="433.15,-42.76 440.53,-35.16 430.02,-36.5 433.15,-42.76"/>
</g>
<!-- pynio&#45;&gt;conda&#45;forge&#45;pinning -->
<g id="edge13" class="edge">
<title>pynio&#45;&gt;conda&#45;forge&#45;pinning</title>
<path fill="none" stroke="black" d="M440.8,-72.41C445.75,-64.16 451.84,-54.01 457.38,-44.78"/>
<polygon fill="black" stroke="black" points="460.53,-46.33 462.67,-35.96 454.53,-42.73 460.53,-46.33"/>
</g>
<!-- qgis&#45;&gt;conda&#45;forge&#45;pinning -->
<g id="edge14" class="edge">
<title>qgis&#45;&gt;conda&#45;forge&#45;pinning</title>
<path fill="none" stroke="black" d="M505.1,-72.76C500.11,-64.44 493.91,-54.1 488.28,-44.73"/>
<polygon fill="black" stroke="black" points="491.27,-42.9 483.12,-36.12 485.26,-46.5 491.27,-42.9"/>
</g>
<!-- r&#45;rgdal&#45;&gt;conda&#45;forge&#45;pinning -->
<g id="edge15" class="edge">
<title>r&#45;rgdal&#45;&gt;conda&#45;forge&#45;pinning</title>
<path fill="none" stroke="black" d="M581.5,-75.34C562.16,-65.31 535.54,-51.51 513.48,-40.07"/>
<polygon fill="black" stroke="black" points="514.84,-36.83 504.35,-35.33 511.61,-43.04 514.84,-36.83"/>
</g>
<!-- r&#45;sf&#45;&gt;conda&#45;forge&#45;pinning -->
<g id="edge16" class="edge">
<title>r&#45;sf&#45;&gt;conda&#45;forge&#45;pinning</title>
<path fill="none" stroke="black" d="M677.55,-78.22C672.43,-76.03 666.99,-73.83 661.85,-72 622.23,-57.89 576.89,-45.07 540.56,-35.57"/>
<polygon fill="black" stroke="black" points="541.11,-32.1 530.56,-32.98 539.36,-38.88 541.11,-32.1"/>
</g>
</g>
</svg>
