<?xml version="1.0" encoding="UTF-8" standalone="no"?>
<!DOCTYPE svg PUBLIC "-//W3C//DTD SVG 1.1//EN"
 "http://www.w3.org/Graphics/SVG/1.1/DTD/svg11.dtd">
<!-- Generated by graphviz version 2.40.1 (20161225.0304)
 -->
<!-- Title: %3 Pages: 1 -->
<svg width="706pt" height="116pt"
 viewBox="0.00 0.00 705.88 116.00" xmlns="http://www.w3.org/2000/svg" xmlns:xlink="http://www.w3.org/1999/xlink">
<g id="graph0" class="graph" transform="scale(1 1) rotate(0) translate(4 112)">
<title>%3</title>
<polygon fill="#ffffff" stroke="transparent" points="-4,4 -4,-112 701.8847,-112 701.8847,4 -4,4"/>
<!-- arrow&#45;cpp -->
<g id="node1" class="node">
<title>arrow&#45;cpp</title>
<ellipse fill="#31688e" stroke="#000000" cx="54.5952" cy="-90" rx="54.6905" ry="18"/>
<text text-anchor="middle" x="54.5952" y="-86.3" font-family="Times,serif" font-size="14.00" fill="#ffffff">arrow cpp</text>
</g>
<!-- mosh -->
<g id="node2" class="node">
<title>mosh</title>
<ellipse fill="#31688e" stroke="#000000" cx="157.5952" cy="-90" rx="30.5947" ry="18"/>
<text text-anchor="middle" x="157.5952" y="-86.3" font-family="Times,serif" font-size="14.00" fill="#ffffff">mosh</text>
</g>
<!-- shogun -->
<g id="node3" class="node">
<title>shogun</title>
<ellipse fill="#fde725" stroke="#000000" cx="265.5952" cy="-18" rx="40.0939" ry="18"/>
<text text-anchor="middle" x="265.5952" y="-14.3" font-family="Times,serif" font-size="14.00" fill="#000000">shogun</text>
</g>
<!-- shogun&#45;cpp -->
<g id="node4" class="node">
<title>shogun&#45;cpp</title>
<ellipse fill="#31688e" stroke="#000000" cx="265.5952" cy="-90" rx="59.5901" ry="18"/>
<text text-anchor="middle" x="265.5952" y="-86.3" font-family="Times,serif" font-size="14.00" fill="#ffffff">shogun cpp</text>
</g>
<!-- shogun&#45;cpp&#45;&gt;shogun -->
<g id="edge1" class="edge">
<title>shogun&#45;cpp&#45;&gt;shogun</title>
<path fill="none" stroke="#000000" d="M265.5952,-71.8314C265.5952,-64.131 265.5952,-54.9743 265.5952,-46.4166"/>
<polygon fill="#000000" stroke="#000000" points="269.0953,-46.4132 265.5952,-36.4133 262.0953,-46.4133 269.0953,-46.4132"/>
</g>
<!-- libhdfs3 -->
<g id="node5" class="node">
<title>libhdfs3</title>
<ellipse fill="#31688e" stroke="#000000" cx="393.5952" cy="-90" rx="50.0912" ry="18"/>
<text text-anchor="middle" x="393.5952" y="-86.3" font-family="Times,serif" font-size="14.00" fill="#ffffff">libhdfs3</text>
</g>
<!-- libignition&#45;transport4 -->
<g id="node6" class="node">
<title>libignition&#45;transport4</title>
<ellipse fill="#31688e" stroke="#000000" cx="579.5952" cy="-90" rx="118.0794" ry="18"/>
<text text-anchor="middle" x="579.5952" y="-86.3" font-family="Times,serif" font-size="14.00" fill="#ffffff">libignition transport4</text>
</g>
</g>
</svg>
