<?xml version="1.0" encoding="UTF-8" standalone="no"?>
<!DOCTYPE svg PUBLIC "-//W3C//DTD SVG 1.1//EN"
 "http://www.w3.org/Graphics/SVG/1.1/DTD/svg11.dtd">
<!-- Generated by graphviz version 2.42.3 (20191010.1750)
 -->
<!-- Title: %3 Pages: 1 -->
<svg width="1264pt" height="116pt"
 viewBox="0.00 0.00 1264.34 116.00" xmlns="http://www.w3.org/2000/svg" xmlns:xlink="http://www.w3.org/1999/xlink">
<g id="graph0" class="graph" transform="scale(1 1) rotate(0) translate(4 112)">
<title>%3</title>
<polygon fill="white" stroke="transparent" points="-4,4 -4,-112 1260.34,-112 1260.34,4 -4,4"/>
<!-- arrow&#45;cpp -->
<g id="node1" class="node">
<title>arrow&#45;cpp</title>
<ellipse fill="#fde725" stroke="black" cx="98.05" cy="-18" rx="54.69" ry="18"/>
<text text-anchor="middle" x="98.05" y="-14.3" font-family="Times,serif" font-size="14.00">arrow cpp</text>
</g>
<!-- mosh -->
<g id="node2" class="node">
<title>mosh</title>
<ellipse fill="#35b779" stroke="black" cx="221.05" cy="-90" rx="30.59" ry="18"/>
<text text-anchor="middle" x="221.05" y="-86.3" font-family="Times,serif" font-size="14.00">mosh</text>
</g>
<!-- mysql&#45;connector&#45;python -->
<g id="node3" class="node">
<title>mysql&#45;connector&#45;python</title>
<ellipse fill="#35b779" stroke="black" cx="388.05" cy="-90" rx="118.08" ry="18"/>
<text text-anchor="middle" x="388.05" y="-86.3" font-family="Times,serif" font-size="14.00">mysql connector python</text>
</g>
<!-- paraview -->
<g id="node4" class="node">
<title>paraview</title>
<ellipse fill="#35b779" stroke="black" cx="574.05" cy="-90" rx="50.09" ry="18"/>
<text text-anchor="middle" x="574.05" y="-86.3" font-family="Times,serif" font-size="14.00">paraview</text>
</g>
<!-- shogun -->
<g id="node5" class="node">
<title>shogun</title>
<ellipse fill="#fde725" stroke="black" cx="702.05" cy="-18" rx="40.09" ry="18"/>
<text text-anchor="middle" x="702.05" y="-14.3" font-family="Times,serif" font-size="14.00">shogun</text>
</g>
<!-- shogun&#45;cpp -->
<g id="node6" class="node">
<title>shogun&#45;cpp</title>
<ellipse fill="#35b779" stroke="black" cx="702.05" cy="-90" rx="59.59" ry="18"/>
<text text-anchor="middle" x="702.05" y="-86.3" font-family="Times,serif" font-size="14.00">shogun cpp</text>
</g>
<!-- shogun&#45;cpp&#45;&gt;shogun -->
<g id="edge1" class="edge">
<title>shogun&#45;cpp&#45;&gt;shogun</title>
<path fill="none" stroke="black" d="M702.05,-71.7C702.05,-63.98 702.05,-54.71 702.05,-46.11"/>
<polygon fill="black" stroke="black" points="705.55,-46.1 702.05,-36.1 698.55,-46.1 705.55,-46.1"/>
</g>
<!-- libhdfs3 -->
<g id="node7" class="node">
<title>libhdfs3</title>
<ellipse fill="#35b779" stroke="black" cx="830.05" cy="-90" rx="50.09" ry="18"/>
<text text-anchor="middle" x="830.05" y="-86.3" font-family="Times,serif" font-size="14.00">libhdfs3</text>
</g>
<!-- r&#45;protolite -->
<g id="node8" class="node">
<title>r&#45;protolite</title>
<ellipse fill="#35b779" stroke="black" cx="962.05" cy="-90" rx="64.19" ry="18"/>
<text text-anchor="middle" x="962.05" y="-86.3" font-family="Times,serif" font-size="14.00">r protolite</text>
</g>
<!-- grpc&#45;cpp -->
<g id="node9" class="node">
<title>grpc&#45;cpp</title>
<ellipse fill="#35b779" stroke="black" cx="50.05" cy="-90" rx="50.09" ry="18"/>
<text text-anchor="middle" x="50.05" y="-86.3" font-family="Times,serif" font-size="14.00">grpc cpp</text>
</g>
<!-- grpc&#45;cpp&#45;&gt;arrow&#45;cpp -->
<g id="edge2" class="edge">
<title>grpc&#45;cpp&#45;&gt;arrow&#45;cpp</title>
<path fill="none" stroke="black" d="M61.42,-72.41C67.14,-64.08 74.18,-53.8 80.57,-44.49"/>
<polygon fill="black" stroke="black" points="83.65,-46.18 86.42,-35.96 77.88,-42.22 83.65,-46.18"/>
</g>
<!-- orc -->
<g id="node10" class="node">
<title>orc</title>
<ellipse fill="#31688e" stroke="black" cx="145.05" cy="-90" rx="27" ry="18"/>
<text text-anchor="middle" x="145.05" y="-86.3" font-family="Times,serif" font-size="14.00" fill="white">orc</text>
</g>
<!-- orc&#45;&gt;arrow&#45;cpp -->
<g id="edge3" class="edge">
<title>orc&#45;&gt;arrow&#45;cpp</title>
<path fill="none" stroke="black" d="M134.38,-73.12C128.66,-64.59 121.47,-53.89 115,-44.25"/>
<polygon fill="black" stroke="black" points="117.8,-42.15 109.32,-35.8 111.99,-46.05 117.8,-42.15"/>
</g>
<!-- libignition&#45;transport4 -->
<g id="node11" class="node">
<title>libignition&#45;transport4</title>
<ellipse fill="#fde725" stroke="black" cx="1138.05" cy="-18" rx="118.08" ry="18"/>
<text text-anchor="middle" x="1138.05" y="-14.3" font-family="Times,serif" font-size="14.00">libignition transport4</text>
</g>
<!-- libignition&#45;msgs1 -->
<g id="node12" class="node">
<title>libignition&#45;msgs1</title>
<ellipse fill="#35b779" stroke="black" cx="1138.05" cy="-90" rx="93.68" ry="18"/>
<text text-anchor="middle" x="1138.05" y="-86.3" font-family="Times,serif" font-size="14.00">libignition msgs1</text>
</g>
<!-- libignition&#45;msgs1&#45;&gt;libignition&#45;transport4 -->
<g id="edge4" class="edge">
<title>libignition&#45;msgs1&#45;&gt;libignition&#45;transport4</title>
<path fill="none" stroke="black" d="M1138.05,-71.7C1138.05,-63.98 1138.05,-54.71 1138.05,-46.11"/>
<polygon fill="black" stroke="black" points="1141.55,-46.1 1138.05,-36.1 1134.55,-46.1 1141.55,-46.1"/>
</g>
</g>
</svg>
