<?xml version="1.0" encoding="UTF-8" standalone="no"?>
<!DOCTYPE svg PUBLIC "-//W3C//DTD SVG 1.1//EN"
 "http://www.w3.org/Graphics/SVG/1.1/DTD/svg11.dtd">
<!-- Generated by graphviz version 2.42.3 (20191010.1750)
 -->
<!-- Title: %3 Pages: 1 -->
<svg width="943pt" height="116pt"
 viewBox="0.00 0.00 942.88 116.00" xmlns="http://www.w3.org/2000/svg" xmlns:xlink="http://www.w3.org/1999/xlink">
<g id="graph0" class="graph" transform="scale(1 1) rotate(0) translate(4 112)">
<title>%3</title>
<polygon fill="white" stroke="transparent" points="-4,4 -4,-112 938.88,-112 938.88,4 -4,4"/>
<!-- arrow&#45;cpp -->
<g id="node1" class="node">
<title>arrow&#45;cpp</title>
<ellipse fill="#fde725" stroke="black" cx="54.6" cy="-18" rx="54.69" ry="18"/>
<text text-anchor="middle" x="54.6" y="-14.3" font-family="Times,serif" font-size="14.00">arrow cpp</text>
</g>
<!-- mosh -->
<g id="node2" class="node">
<title>mosh</title>
<ellipse fill="#31688e" stroke="black" cx="153.6" cy="-90" rx="30.59" ry="18"/>
<text text-anchor="middle" x="153.6" y="-86.3" font-family="Times,serif" font-size="14.00" fill="white">mosh</text>
</g>
<!-- paraview -->
<g id="node3" class="node">
<title>paraview</title>
<ellipse fill="#31688e" stroke="black" cx="252.6" cy="-90" rx="50.09" ry="18"/>
<text text-anchor="middle" x="252.6" y="-86.3" font-family="Times,serif" font-size="14.00" fill="white">paraview</text>
</g>
<!-- shogun -->
<g id="node4" class="node">
<title>shogun</title>
<ellipse fill="#fde725" stroke="black" cx="380.6" cy="-18" rx="40.09" ry="18"/>
<text text-anchor="middle" x="380.6" y="-14.3" font-family="Times,serif" font-size="14.00">shogun</text>
</g>
<!-- shogun&#45;cpp -->
<g id="node5" class="node">
<title>shogun&#45;cpp</title>
<ellipse fill="#31688e" stroke="black" cx="380.6" cy="-90" rx="59.59" ry="18"/>
<text text-anchor="middle" x="380.6" y="-86.3" font-family="Times,serif" font-size="14.00" fill="white">shogun cpp</text>
</g>
<!-- shogun&#45;cpp&#45;&gt;shogun -->
<g id="edge1" class="edge">
<title>shogun&#45;cpp&#45;&gt;shogun</title>
<path fill="none" stroke="black" d="M380.6,-71.7C380.6,-63.98 380.6,-54.71 380.6,-46.11"/>
<polygon fill="black" stroke="black" points="384.1,-46.1 380.6,-36.1 377.1,-46.1 384.1,-46.1"/>
</g>
<!-- libhdfs3 -->
<g id="node6" class="node">
<title>libhdfs3</title>
<ellipse fill="#31688e" stroke="black" cx="508.6" cy="-90" rx="50.09" ry="18"/>
<text text-anchor="middle" x="508.6" y="-86.3" font-family="Times,serif" font-size="14.00" fill="white">libhdfs3</text>
</g>
<!-- r&#45;protolite -->
<g id="node7" class="node">
<title>r&#45;protolite</title>
<ellipse fill="#31688e" stroke="black" cx="640.6" cy="-90" rx="64.19" ry="18"/>
<text text-anchor="middle" x="640.6" y="-86.3" font-family="Times,serif" font-size="14.00" fill="white">r protolite</text>
</g>
<!-- grpc&#45;cpp -->
<g id="node8" class="node">
<title>grpc&#45;cpp</title>
<ellipse fill="#31688e" stroke="black" cx="54.6" cy="-90" rx="50.09" ry="18"/>
<text text-anchor="middle" x="54.6" y="-86.3" font-family="Times,serif" font-size="14.00" fill="white">grpc cpp</text>
</g>
<!-- grpc&#45;cpp&#45;&gt;arrow&#45;cpp -->
<g id="edge2" class="edge">
<title>grpc&#45;cpp&#45;&gt;arrow&#45;cpp</title>
<path fill="none" stroke="black" d="M54.6,-71.7C54.6,-63.98 54.6,-54.71 54.6,-46.11"/>
<polygon fill="black" stroke="black" points="58.1,-46.1 54.6,-36.1 51.1,-46.1 58.1,-46.1"/>
</g>
<!-- libignition&#45;transport4 -->
<g id="node9" class="node">
<title>libignition&#45;transport4</title>
<ellipse fill="#fde725" stroke="black" cx="816.6" cy="-18" rx="118.08" ry="18"/>
<text text-anchor="middle" x="816.6" y="-14.3" font-family="Times,serif" font-size="14.00">libignition transport4</text>
</g>
<!-- libignition&#45;msgs1 -->
<g id="node10" class="node">
<title>libignition&#45;msgs1</title>
<ellipse fill="#31688e" stroke="black" cx="816.6" cy="-90" rx="93.68" ry="18"/>
<text text-anchor="middle" x="816.6" y="-86.3" font-family="Times,serif" font-size="14.00" fill="white">libignition msgs1</text>
</g>
<!-- libignition&#45;msgs1&#45;&gt;libignition&#45;transport4 -->
<g id="edge3" class="edge">
<title>libignition&#45;msgs1&#45;&gt;libignition&#45;transport4</title>
<path fill="none" stroke="black" d="M816.6,-71.7C816.6,-63.98 816.6,-54.71 816.6,-46.11"/>
<polygon fill="black" stroke="black" points="820.1,-46.1 816.6,-36.1 813.1,-46.1 820.1,-46.1"/>
</g>
</g>
</svg>
