<?xml version="1.0" encoding="UTF-8" standalone="no"?>
<!DOCTYPE svg PUBLIC "-//W3C//DTD SVG 1.1//EN"
 "http://www.w3.org/Graphics/SVG/1.1/DTD/svg11.dtd">
<!-- Generated by graphviz version 2.40.1 (20161225.0304)
 -->
<!-- Title: %3 Pages: 1 -->
<svg width="957pt" height="116pt"
 viewBox="0.00 0.00 956.88 116.00" xmlns="http://www.w3.org/2000/svg" xmlns:xlink="http://www.w3.org/1999/xlink">
<g id="graph0" class="graph" transform="scale(1 1) rotate(0) translate(4 112)">
<title>%3</title>
<polygon fill="#ffffff" stroke="transparent" points="-4,4 -4,-112 952.8847,-112 952.8847,4 -4,4"/>
<!-- arrow&#45;cpp -->
<g id="node1" class="node">
<title>arrow&#45;cpp</title>
<ellipse fill="#fde725" stroke="#000000" cx="54.5952" cy="-18" rx="54.6905" ry="18"/>
<text text-anchor="middle" x="54.5952" y="-14.3" font-family="Times,serif" font-size="14.00" fill="#000000">arrow cpp</text>
</g>
<!-- mosh -->
<g id="node2" class="node">
<title>mosh</title>
<ellipse fill="#31688e" stroke="#000000" cx="153.5952" cy="-90" rx="30.5947" ry="18"/>
<text text-anchor="middle" x="153.5952" y="-86.3" font-family="Times,serif" font-size="14.00" fill="#ffffff">mosh</text>
</g>
<!-- mysql&#45;connector&#45;python -->
<g id="node3" class="node">
<title>mysql&#45;connector&#45;python</title>
<ellipse fill="#31688e" stroke="#000000" cx="320.5952" cy="-90" rx="118.0794" ry="18"/>
<text text-anchor="middle" x="320.5952" y="-86.3" font-family="Times,serif" font-size="14.00" fill="#ffffff">mysql connector python</text>
</g>
<!-- shogun -->
<g id="node4" class="node">
<title>shogun</title>
<ellipse fill="#fde725" stroke="#000000" cx="516.5952" cy="-18" rx="40.0939" ry="18"/>
<text text-anchor="middle" x="516.5952" y="-14.3" font-family="Times,serif" font-size="14.00" fill="#000000">shogun</text>
</g>
<!-- shogun&#45;cpp -->
<g id="node5" class="node">
<title>shogun&#45;cpp</title>
<ellipse fill="#31688e" stroke="#000000" cx="516.5952" cy="-90" rx="59.5901" ry="18"/>
<text text-anchor="middle" x="516.5952" y="-86.3" font-family="Times,serif" font-size="14.00" fill="#ffffff">shogun cpp</text>
</g>
<!-- shogun&#45;cpp&#45;&gt;shogun -->
<g id="edge1" class="edge">
<title>shogun&#45;cpp&#45;&gt;shogun</title>
<path fill="none" stroke="#000000" d="M516.5952,-71.8314C516.5952,-64.131 516.5952,-54.9743 516.5952,-46.4166"/>
<polygon fill="#000000" stroke="#000000" points="520.0953,-46.4132 516.5952,-36.4133 513.0953,-46.4133 520.0953,-46.4132"/>
</g>
<!-- libhdfs3 -->
<g id="node6" class="node">
<title>libhdfs3</title>
<ellipse fill="#31688e" stroke="#000000" cx="644.5952" cy="-90" rx="50.0912" ry="18"/>
<text text-anchor="middle" x="644.5952" y="-86.3" font-family="Times,serif" font-size="14.00" fill="#ffffff">libhdfs3</text>
</g>
<!-- grpc&#45;cpp -->
<g id="node7" class="node">
<title>grpc&#45;cpp</title>
<ellipse fill="#31688e" stroke="#000000" cx="54.5952" cy="-90" rx="50.0912" ry="18"/>
<text text-anchor="middle" x="54.5952" y="-86.3" font-family="Times,serif" font-size="14.00" fill="#ffffff">grpc cpp</text>
</g>
<!-- grpc&#45;cpp&#45;&gt;arrow&#45;cpp -->
<g id="edge2" class="edge">
<title>grpc&#45;cpp&#45;&gt;arrow&#45;cpp</title>
<path fill="none" stroke="#000000" d="M54.5952,-71.8314C54.5952,-64.131 54.5952,-54.9743 54.5952,-46.4166"/>
<polygon fill="#000000" stroke="#000000" points="58.0953,-46.4132 54.5952,-36.4133 51.0953,-46.4133 58.0953,-46.4132"/>
</g>
<!-- libignition&#45;transport4 -->
<g id="node8" class="node">
<title>libignition&#45;transport4</title>
<ellipse fill="#31688e" stroke="#000000" cx="830.5952" cy="-90" rx="118.0794" ry="18"/>
<text text-anchor="middle" x="830.5952" y="-86.3" font-family="Times,serif" font-size="14.00" fill="#ffffff">libignition transport4</text>
</g>
</g>
</svg>
