<?xml version="1.0" encoding="UTF-8" standalone="no"?>
<!DOCTYPE svg PUBLIC "-//W3C//DTD SVG 1.1//EN"
 "http://www.w3.org/Graphics/SVG/1.1/DTD/svg11.dtd">
<!-- Generated by graphviz version 2.40.1 (20161225.0304)
 -->
<!-- Title: %3 Pages: 1 -->
<svg width="1068pt" height="188pt"
 viewBox="0.00 0.00 1068.39 188.00" xmlns="http://www.w3.org/2000/svg" xmlns:xlink="http://www.w3.org/1999/xlink">
<g id="graph0" class="graph" transform="scale(1 1) rotate(0) translate(4 184)">
<title>%3</title>
<polygon fill="#ffffff" stroke="transparent" points="-4,4 -4,-184 1064.3899,-184 1064.3899,4 -4,4"/>
<!-- arrow&#45;cpp -->
<g id="node1" class="node">
<title>arrow&#45;cpp</title>
<ellipse fill="#fde725" stroke="#000000" cx="97.0456" cy="-90" rx="54.6905" ry="18"/>
<text text-anchor="middle" x="97.0456" y="-86.3" font-family="Times,serif" font-size="14.00" fill="#000000">arrow cpp</text>
</g>
<!-- mosh -->
<g id="node2" class="node">
<title>mosh</title>
<ellipse fill="#35b779" stroke="#000000" cx="300.0456" cy="-162" rx="30.5947" ry="18"/>
<text text-anchor="middle" x="300.0456" y="-158.3" font-family="Times,serif" font-size="14.00" fill="#000000">mosh</text>
</g>
<!-- mysql&#45;connector&#45;python -->
<g id="node3" class="node">
<title>mysql&#45;connector&#45;python</title>
<ellipse fill="#fde725" stroke="#000000" cx="288.0456" cy="-90" rx="118.0794" ry="18"/>
<text text-anchor="middle" x="288.0456" y="-86.3" font-family="Times,serif" font-size="14.00" fill="#000000">mysql connector python</text>
</g>
<!-- paraview -->
<g id="node4" class="node">
<title>paraview</title>
<ellipse fill="#31688e" stroke="#000000" cx="595.0456" cy="-162" rx="50.0912" ry="18"/>
<text text-anchor="middle" x="595.0456" y="-158.3" font-family="Times,serif" font-size="14.00" fill="#ffffff">paraview</text>
</g>
<!-- protobuf -->
<g id="node5" class="node">
<title>protobuf</title>
<ellipse fill="#31688e" stroke="#000000" cx="451.0456" cy="-162" rx="50.0912" ry="18"/>
<text text-anchor="middle" x="451.0456" y="-158.3" font-family="Times,serif" font-size="14.00" fill="#ffffff">protobuf</text>
</g>
<!-- protobuf&#45;&gt;mysql&#45;connector&#45;python -->
<g id="edge2" class="edge">
<title>protobuf&#45;&gt;mysql&#45;connector&#45;python</title>
<path fill="none" stroke="#000000" d="M419.2306,-147.9468C395.5278,-137.4768 362.7584,-123.002 335.9012,-111.1387"/>
<polygon fill="#000000" stroke="#000000" points="337.2342,-107.9013 326.6727,-107.0623 334.4058,-114.3045 337.2342,-107.9013"/>
</g>
<!-- libignition&#45;msgs1 -->
<g id="node13" class="node">
<title>libignition&#45;msgs1</title>
<ellipse fill="#fde725" stroke="#000000" cx="518.0456" cy="-90" rx="93.6835" ry="18"/>
<text text-anchor="middle" x="518.0456" y="-86.3" font-family="Times,serif" font-size="14.00" fill="#000000">libignition msgs1</text>
</g>
<!-- protobuf&#45;&gt;libignition&#45;msgs1 -->
<g id="edge1" class="edge">
<title>protobuf&#45;&gt;libignition&#45;msgs1</title>
<path fill="none" stroke="#000000" d="M467.2644,-144.5708C475.4542,-135.7698 485.5415,-124.9297 494.5619,-115.2362"/>
<polygon fill="#000000" stroke="#000000" points="497.2605,-117.4739 501.5106,-107.7689 492.136,-112.7053 497.2605,-117.4739"/>
</g>
<!-- shogun -->
<g id="node6" class="node">
<title>shogun</title>
<ellipse fill="#fde725" stroke="#000000" cx="736.0456" cy="-90" rx="40.0939" ry="18"/>
<text text-anchor="middle" x="736.0456" y="-86.3" font-family="Times,serif" font-size="14.00" fill="#000000">shogun</text>
</g>
<!-- shogun&#45;cpp -->
<g id="node7" class="node">
<title>shogun&#45;cpp</title>
<ellipse fill="#31688e" stroke="#000000" cx="736.0456" cy="-162" rx="59.5901" ry="18"/>
<text text-anchor="middle" x="736.0456" y="-158.3" font-family="Times,serif" font-size="14.00" fill="#ffffff">shogun cpp</text>
</g>
<!-- shogun&#45;cpp&#45;&gt;shogun -->
<g id="edge3" class="edge">
<title>shogun&#45;cpp&#45;&gt;shogun</title>
<path fill="none" stroke="#000000" d="M736.0456,-143.8314C736.0456,-136.131 736.0456,-126.9743 736.0456,-118.4166"/>
<polygon fill="#000000" stroke="#000000" points="739.5457,-118.4132 736.0456,-108.4133 732.5457,-118.4133 739.5457,-118.4132"/>
</g>
<!-- libhdfs3 -->
<g id="node8" class="node">
<title>libhdfs3</title>
<ellipse fill="#31688e" stroke="#000000" cx="864.0456" cy="-162" rx="50.0912" ry="18"/>
<text text-anchor="middle" x="864.0456" y="-158.3" font-family="Times,serif" font-size="14.00" fill="#ffffff">libhdfs3</text>
</g>
<!-- r&#45;protolite -->
<g id="node9" class="node">
<title>r&#45;protolite</title>
<ellipse fill="#31688e" stroke="#000000" cx="996.0456" cy="-162" rx="64.189" ry="18"/>
<text text-anchor="middle" x="996.0456" y="-158.3" font-family="Times,serif" font-size="14.00" fill="#ffffff">r protolite</text>
</g>
<!-- grpc&#45;cpp -->
<g id="node10" class="node">
<title>grpc&#45;cpp</title>
<ellipse fill="#31688e" stroke="#000000" cx="50.0456" cy="-162" rx="50.0912" ry="18"/>
<text text-anchor="middle" x="50.0456" y="-158.3" font-family="Times,serif" font-size="14.00" fill="#ffffff">grpc cpp</text>
</g>
<!-- grpc&#45;cpp&#45;&gt;arrow&#45;cpp -->
<g id="edge4" class="edge">
<title>grpc&#45;cpp&#45;&gt;arrow&#45;cpp</title>
<path fill="none" stroke="#000000" d="M61.6635,-144.2022C67.1432,-135.8079 73.7925,-125.6218 79.841,-116.3558"/>
<polygon fill="#000000" stroke="#000000" points="82.8629,-118.1295 85.3983,-107.8425 77.0012,-114.3032 82.8629,-118.1295"/>
</g>
<!-- orc -->
<g id="node11" class="node">
<title>orc</title>
<ellipse fill="#31688e" stroke="#000000" cx="145.0456" cy="-162" rx="27" ry="18"/>
<text text-anchor="middle" x="145.0456" y="-158.3" font-family="Times,serif" font-size="14.00" fill="#ffffff">orc</text>
</g>
<!-- orc&#45;&gt;arrow&#45;cpp -->
<g id="edge5" class="edge">
<title>orc&#45;&gt;arrow&#45;cpp</title>
<path fill="none" stroke="#000000" d="M133.9127,-145.3008C128.1453,-136.6496 120.9704,-125.8873 114.4871,-116.1623"/>
<polygon fill="#000000" stroke="#000000" points="117.2469,-113.9922 108.7877,-107.6132 111.4225,-117.8752 117.2469,-113.9922"/>
</g>
<!-- libignition&#45;transport4 -->
<g id="node12" class="node">
<title>libignition&#45;transport4</title>
<ellipse fill="#fde725" stroke="#000000" cx="518.0456" cy="-18" rx="118.0794" ry="18"/>
<text text-anchor="middle" x="518.0456" y="-14.3" font-family="Times,serif" font-size="14.00" fill="#000000">libignition transport4</text>
</g>
<!-- libignition&#45;msgs1&#45;&gt;libignition&#45;transport4 -->
<g id="edge6" class="edge">
<title>libignition&#45;msgs1&#45;&gt;libignition&#45;transport4</title>
<path fill="none" stroke="#000000" d="M518.0456,-71.8314C518.0456,-64.131 518.0456,-54.9743 518.0456,-46.4166"/>
<polygon fill="#000000" stroke="#000000" points="521.5457,-46.4132 518.0456,-36.4133 514.5457,-46.4133 521.5457,-46.4132"/>
</g>
</g>
</svg>
