<?xml version="1.0" encoding="UTF-8" standalone="no"?>
<!DOCTYPE svg PUBLIC "-//W3C//DTD SVG 1.1//EN"
 "http://www.w3.org/Graphics/SVG/1.1/DTD/svg11.dtd">
<!-- Generated by graphviz version 2.42.3 (20191010.1750)
 -->
<!-- Title: %3 Pages: 1 -->
<svg width="801pt" height="116pt"
 viewBox="0.00 0.00 800.88 116.00" xmlns="http://www.w3.org/2000/svg" xmlns:xlink="http://www.w3.org/1999/xlink">
<g id="graph0" class="graph" transform="scale(1 1) rotate(0) translate(4 112)">
<title>%3</title>
<polygon fill="white" stroke="transparent" points="-4,4 -4,-112 796.88,-112 796.88,4 -4,4"/>
<!-- arrow&#45;cpp -->
<g id="node1" class="node">
<title>arrow&#45;cpp</title>
<ellipse fill="#31688e" stroke="black" cx="54.6" cy="-90" rx="54.69" ry="18"/>
<text text-anchor="middle" x="54.6" y="-86.3" font-family="Times,serif" font-size="14.00" fill="white">arrow cpp</text>
</g>
<!-- mosh -->
<g id="node2" class="node">
<title>mosh</title>
<ellipse fill="#31688e" stroke="black" cx="157.6" cy="-90" rx="30.59" ry="18"/>
<text text-anchor="middle" x="157.6" y="-86.3" font-family="Times,serif" font-size="14.00" fill="white">mosh</text>
</g>
<!-- paraview -->
<g id="node3" class="node">
<title>paraview</title>
<ellipse fill="#31688e" stroke="black" cx="256.6" cy="-90" rx="50.09" ry="18"/>
<text text-anchor="middle" x="256.6" y="-86.3" font-family="Times,serif" font-size="14.00" fill="white">paraview</text>
</g>
<!-- shogun -->
<g id="node4" class="node">
<title>shogun</title>
<ellipse fill="#fde725" stroke="black" cx="384.6" cy="-18" rx="40.09" ry="18"/>
<text text-anchor="middle" x="384.6" y="-14.3" font-family="Times,serif" font-size="14.00">shogun</text>
</g>
<!-- shogun&#45;cpp -->
<g id="node5" class="node">
<title>shogun&#45;cpp</title>
<ellipse fill="#31688e" stroke="black" cx="384.6" cy="-90" rx="59.59" ry="18"/>
<text text-anchor="middle" x="384.6" y="-86.3" font-family="Times,serif" font-size="14.00" fill="white">shogun cpp</text>
</g>
<!-- shogun&#45;cpp&#45;&gt;shogun -->
<g id="edge1" class="edge">
<title>shogun&#45;cpp&#45;&gt;shogun</title>
<path fill="none" stroke="black" d="M384.6,-71.7C384.6,-63.98 384.6,-54.71 384.6,-46.11"/>
<polygon fill="black" stroke="black" points="388.1,-46.1 384.6,-36.1 381.1,-46.1 388.1,-46.1"/>
</g>
<!-- libhdfs3 -->
<g id="node6" class="node">
<title>libhdfs3</title>
<ellipse fill="#31688e" stroke="black" cx="512.6" cy="-90" rx="50.09" ry="18"/>
<text text-anchor="middle" x="512.6" y="-86.3" font-family="Times,serif" font-size="14.00" fill="white">libhdfs3</text>
</g>
<!-- libignition&#45;transport4 -->
<g id="node7" class="node">
<title>libignition&#45;transport4</title>
<ellipse fill="#fde725" stroke="black" cx="674.6" cy="-18" rx="118.08" ry="18"/>
<text text-anchor="middle" x="674.6" y="-14.3" font-family="Times,serif" font-size="14.00">libignition transport4</text>
</g>
<!-- libignition&#45;msgs1 -->
<g id="node8" class="node">
<title>libignition&#45;msgs1</title>
<ellipse fill="#31688e" stroke="black" cx="674.6" cy="-90" rx="93.68" ry="18"/>
<text text-anchor="middle" x="674.6" y="-86.3" font-family="Times,serif" font-size="14.00" fill="white">libignition msgs1</text>
</g>
<!-- libignition&#45;msgs1&#45;&gt;libignition&#45;transport4 -->
<g id="edge2" class="edge">
<title>libignition&#45;msgs1&#45;&gt;libignition&#45;transport4</title>
<path fill="none" stroke="black" d="M674.6,-71.7C674.6,-63.98 674.6,-54.71 674.6,-46.11"/>
<polygon fill="black" stroke="black" points="678.1,-46.1 674.6,-36.1 671.1,-46.1 678.1,-46.1"/>
</g>
</g>
</svg>
