<?xml version="1.0" encoding="UTF-8" standalone="no"?>
<!DOCTYPE svg PUBLIC "-//W3C//DTD SVG 1.1//EN"
 "http://www.w3.org/Graphics/SVG/1.1/DTD/svg11.dtd">
<!-- Generated by graphviz version 2.40.1 (20161225.0304)
 -->
<!-- Title: %3 Pages: 1 -->
<svg width="1031pt" height="188pt"
 viewBox="0.00 0.00 1030.94 188.00" xmlns="http://www.w3.org/2000/svg" xmlns:xlink="http://www.w3.org/1999/xlink">
<g id="graph0" class="graph" transform="scale(1 1) rotate(0) translate(4 184)">
<title>%3</title>
<polygon fill="#ffffff" stroke="transparent" points="-4,4 -4,-184 1026.9394,-184 1026.9394,4 -4,4"/>
<!-- arrow&#45;cpp -->
<g id="node1" class="node">
<title>arrow&#45;cpp</title>
<ellipse fill="#fde725" stroke="#000000" cx="54.5952" cy="-90" rx="54.6905" ry="18"/>
<text text-anchor="middle" x="54.5952" y="-86.3" font-family="Times,serif" font-size="14.00" fill="#000000">arrow cpp</text>
</g>
<!-- mosh -->
<g id="node2" class="node">
<title>mosh</title>
<ellipse fill="#31688e" stroke="#000000" cx="241.5952" cy="-162" rx="30.5947" ry="18"/>
<text text-anchor="middle" x="241.5952" y="-158.3" font-family="Times,serif" font-size="14.00" fill="#ffffff">mosh</text>
</g>
<!-- mysql&#45;connector&#45;python -->
<g id="node3" class="node">
<title>mysql&#45;connector&#45;python</title>
<ellipse fill="#fde725" stroke="#000000" cx="245.5952" cy="-90" rx="118.0794" ry="18"/>
<text text-anchor="middle" x="245.5952" y="-86.3" font-family="Times,serif" font-size="14.00" fill="#000000">mysql connector python</text>
</g>
<!-- paraview -->
<g id="node4" class="node">
<title>paraview</title>
<ellipse fill="#31688e" stroke="#000000" cx="554.5952" cy="-162" rx="50.0912" ry="18"/>
<text text-anchor="middle" x="554.5952" y="-158.3" font-family="Times,serif" font-size="14.00" fill="#ffffff">paraview</text>
</g>
<!-- protobuf -->
<g id="node5" class="node">
<title>protobuf</title>
<ellipse fill="#31688e" stroke="#000000" cx="404.5952" cy="-162" rx="50.0912" ry="18"/>
<text text-anchor="middle" x="404.5952" y="-158.3" font-family="Times,serif" font-size="14.00" fill="#ffffff">protobuf</text>
</g>
<!-- protobuf&#45;&gt;mysql&#45;connector&#45;python -->
<g id="edge2" class="edge">
<title>protobuf&#45;&gt;mysql&#45;connector&#45;python</title>
<path fill="none" stroke="#000000" d="M373.1819,-147.7751C350.2097,-137.3726 318.657,-123.0846 292.6776,-111.3204"/>
<polygon fill="#000000" stroke="#000000" points="293.938,-108.049 283.3846,-107.1122 291.0504,-114.4257 293.938,-108.049"/>
</g>
<!-- libignition&#45;msgs1 -->
<g id="node12" class="node">
<title>libignition&#45;msgs1</title>
<ellipse fill="#fde725" stroke="#000000" cx="475.5952" cy="-90" rx="93.6835" ry="18"/>
<text text-anchor="middle" x="475.5952" y="-86.3" font-family="Times,serif" font-size="14.00" fill="#000000">libignition msgs1</text>
</g>
<!-- protobuf&#45;&gt;libignition&#45;msgs1 -->
<g id="edge1" class="edge">
<title>protobuf&#45;&gt;libignition&#45;msgs1</title>
<path fill="none" stroke="#000000" d="M421.4212,-144.937C430.2441,-135.9898 441.2184,-124.8609 450.9779,-114.964"/>
<polygon fill="#000000" stroke="#000000" points="453.6191,-117.2703 458.1485,-107.6924 448.6349,-112.3553 453.6191,-117.2703"/>
</g>
<!-- shogun -->
<g id="node6" class="node">
<title>shogun</title>
<ellipse fill="#fde725" stroke="#000000" cx="698.5952" cy="-90" rx="40.0939" ry="18"/>
<text text-anchor="middle" x="698.5952" y="-86.3" font-family="Times,serif" font-size="14.00" fill="#000000">shogun</text>
</g>
<!-- shogun&#45;cpp -->
<g id="node7" class="node">
<title>shogun&#45;cpp</title>
<ellipse fill="#31688e" stroke="#000000" cx="698.5952" cy="-162" rx="59.5901" ry="18"/>
<text text-anchor="middle" x="698.5952" y="-158.3" font-family="Times,serif" font-size="14.00" fill="#ffffff">shogun cpp</text>
</g>
<!-- shogun&#45;cpp&#45;&gt;shogun -->
<g id="edge3" class="edge">
<title>shogun&#45;cpp&#45;&gt;shogun</title>
<path fill="none" stroke="#000000" d="M698.5952,-143.8314C698.5952,-136.131 698.5952,-126.9743 698.5952,-118.4166"/>
<polygon fill="#000000" stroke="#000000" points="702.0953,-118.4132 698.5952,-108.4133 695.0953,-118.4133 702.0953,-118.4132"/>
</g>
<!-- libhdfs3 -->
<g id="node8" class="node">
<title>libhdfs3</title>
<ellipse fill="#31688e" stroke="#000000" cx="826.5952" cy="-162" rx="50.0912" ry="18"/>
<text text-anchor="middle" x="826.5952" y="-158.3" font-family="Times,serif" font-size="14.00" fill="#ffffff">libhdfs3</text>
</g>
<!-- r&#45;protolite -->
<g id="node9" class="node">
<title>r&#45;protolite</title>
<ellipse fill="#31688e" stroke="#000000" cx="958.5952" cy="-162" rx="64.189" ry="18"/>
<text text-anchor="middle" x="958.5952" y="-158.3" font-family="Times,serif" font-size="14.00" fill="#ffffff">r protolite</text>
</g>
<!-- grpc&#45;cpp -->
<g id="node10" class="node">
<title>grpc&#45;cpp</title>
<ellipse fill="#31688e" stroke="#000000" cx="54.5952" cy="-162" rx="50.0912" ry="18"/>
<text text-anchor="middle" x="54.5952" y="-158.3" font-family="Times,serif" font-size="14.00" fill="#ffffff">grpc cpp</text>
</g>
<!-- grpc&#45;cpp&#45;&gt;arrow&#45;cpp -->
<g id="edge4" class="edge">
<title>grpc&#45;cpp&#45;&gt;arrow&#45;cpp</title>
<path fill="none" stroke="#000000" d="M54.5952,-143.8314C54.5952,-136.131 54.5952,-126.9743 54.5952,-118.4166"/>
<polygon fill="#000000" stroke="#000000" points="58.0953,-118.4132 54.5952,-108.4133 51.0953,-118.4133 58.0953,-118.4132"/>
</g>
<!-- libignition&#45;transport4 -->
<g id="node11" class="node">
<title>libignition&#45;transport4</title>
<ellipse fill="#fde725" stroke="#000000" cx="475.5952" cy="-18" rx="118.0794" ry="18"/>
<text text-anchor="middle" x="475.5952" y="-14.3" font-family="Times,serif" font-size="14.00" fill="#000000">libignition transport4</text>
</g>
<!-- libignition&#45;msgs1&#45;&gt;libignition&#45;transport4 -->
<g id="edge5" class="edge">
<title>libignition&#45;msgs1&#45;&gt;libignition&#45;transport4</title>
<path fill="none" stroke="#000000" d="M475.5952,-71.8314C475.5952,-64.131 475.5952,-54.9743 475.5952,-46.4166"/>
<polygon fill="#000000" stroke="#000000" points="479.0953,-46.4132 475.5952,-36.4133 472.0953,-46.4133 479.0953,-46.4132"/>
</g>
</g>
</svg>
