<?xml version="1.0" encoding="UTF-8" standalone="no"?>
<!DOCTYPE svg PUBLIC "-//W3C//DTD SVG 1.1//EN"
 "http://www.w3.org/Graphics/SVG/1.1/DTD/svg11.dtd">
<!-- Generated by graphviz version 2.40.1 (20161225.0304)
 -->
<!-- Title: %3 Pages: 1 -->
<svg width="640pt" height="116pt"
 viewBox="0.00 0.00 639.85 116.00" xmlns="http://www.w3.org/2000/svg" xmlns:xlink="http://www.w3.org/1999/xlink">
<g id="graph0" class="graph" transform="scale(1 1) rotate(0) translate(4 112)">
<title>%3</title>
<polygon fill="#ffffff" stroke="transparent" points="-4,4 -4,-112 635.846,-112 635.846,4 -4,4"/>
<!-- mss -->
<g id="node1" class="node">
<title>mss</title>
<ellipse fill="#31688e" stroke="#000000" cx="27" cy="-90" rx="27" ry="18"/>
<text text-anchor="middle" x="27" y="-86.3" font-family="Times,serif" font-size="14.00" fill="#ffffff">mss</text>
</g>
<!-- octave -->
<g id="node2" class="node">
<title>octave</title>
<ellipse fill="#fde725" stroke="#000000" cx="55" cy="-18" rx="40.0939" ry="18"/>
<text text-anchor="middle" x="55" y="-14.3" font-family="Times,serif" font-size="14.00" fill="#000000">octave</text>
</g>
<!-- qgis -->
<g id="node3" class="node">
<title>qgis</title>
<ellipse fill="#fde725" stroke="#000000" cx="256" cy="-18" rx="30.5947" ry="18"/>
<text text-anchor="middle" x="256" y="-14.3" font-family="Times,serif" font-size="14.00" fill="#000000">qgis</text>
</g>
<!-- qscintilla2 -->
<g id="node4" class="node">
<title>qscintilla2</title>
<ellipse fill="#31688e" stroke="#000000" cx="136" cy="-90" rx="64.189" ry="18"/>
<text text-anchor="middle" x="136" y="-86.3" font-family="Times,serif" font-size="14.00" fill="#ffffff">qscintilla2</text>
</g>
<!-- qscintilla2&#45;&gt;octave -->
<g id="edge1" class="edge">
<title>qscintilla2&#45;&gt;octave</title>
<path fill="none" stroke="#000000" d="M116.3922,-72.5708C105.7405,-63.1026 92.4337,-51.2744 80.9344,-41.0528"/>
<polygon fill="#000000" stroke="#000000" points="83.1163,-38.3094 73.3169,-34.2817 78.4657,-43.5413 83.1163,-38.3094"/>
</g>
<!-- qscintilla2&#45;&gt;qgis -->
<g id="edge3" class="edge">
<title>qscintilla2&#45;&gt;qgis</title>
<path fill="none" stroke="#000000" d="M163.2299,-73.6621C181.8551,-62.4869 206.5576,-47.6654 225.789,-36.1266"/>
<polygon fill="#000000" stroke="#000000" points="227.6943,-39.0651 234.4685,-30.9189 224.0928,-33.0627 227.6943,-39.0651"/>
</g>
<!-- ovito -->
<g id="node6" class="node">
<title>ovito</title>
<ellipse fill="#fde725" stroke="#000000" cx="148" cy="-18" rx="35.194" ry="18"/>
<text text-anchor="middle" x="148" y="-14.3" font-family="Times,serif" font-size="14.00" fill="#000000">ovito</text>
</g>
<!-- qscintilla2&#45;&gt;ovito -->
<g id="edge2" class="edge">
<title>qscintilla2&#45;&gt;ovito</title>
<path fill="none" stroke="#000000" d="M139.0281,-71.8314C140.3115,-64.131 141.8376,-54.9743 143.2639,-46.4166"/>
<polygon fill="#000000" stroke="#000000" points="146.7394,-46.8526 144.9311,-36.4133 139.8347,-45.7018 146.7394,-46.8526"/>
</g>
<!-- qwtpolar -->
<g id="node5" class="node">
<title>qwtpolar</title>
<ellipse fill="#31688e" stroke="#000000" cx="268" cy="-90" rx="50.0912" ry="18"/>
<text text-anchor="middle" x="268" y="-86.3" font-family="Times,serif" font-size="14.00" fill="#ffffff">qwtpolar</text>
</g>
<!-- qwtpolar&#45;&gt;qgis -->
<g id="edge4" class="edge">
<title>qwtpolar&#45;&gt;qgis</title>
<path fill="none" stroke="#000000" d="M264.9719,-71.8314C263.6885,-64.131 262.1624,-54.9743 260.7361,-46.4166"/>
<polygon fill="#000000" stroke="#000000" points="264.1653,-45.7018 259.0689,-36.4133 257.2606,-46.8526 264.1653,-45.7018"/>
</g>
<!-- veusz -->
<g id="node7" class="node">
<title>veusz</title>
<ellipse fill="#31688e" stroke="#000000" cx="371" cy="-90" rx="35.194" ry="18"/>
<text text-anchor="middle" x="371" y="-86.3" font-family="Times,serif" font-size="14.00" fill="#ffffff">veusz</text>
</g>
<!-- codes&#45;ui -->
<g id="node8" class="node">
<title>codes&#45;ui</title>
<ellipse fill="#31688e" stroke="#000000" cx="474" cy="-90" rx="50.0912" ry="18"/>
<text text-anchor="middle" x="474" y="-86.3" font-family="Times,serif" font-size="14.00" fill="#ffffff">codes ui</text>
</g>
<!-- metview -->
<g id="node9" class="node">
<title>metview</title>
<ellipse fill="#31688e" stroke="#000000" cx="587" cy="-90" rx="44.6926" ry="18"/>
<text text-anchor="middle" x="587" y="-86.3" font-family="Times,serif" font-size="14.00" fill="#ffffff">metview</text>
</g>
</g>
</svg>
