<?xml version="1.0" encoding="UTF-8" standalone="no"?>
<!DOCTYPE svg PUBLIC "-//W3C//DTD SVG 1.1//EN"
 "http://www.w3.org/Graphics/SVG/1.1/DTD/svg11.dtd">
<!-- Generated by graphviz version 2.40.1 (20161225.0304)
 -->
<!-- Title: %3 Pages: 1 -->
<svg width="602pt" height="188pt"
 viewBox="0.00 0.00 601.89 188.00" xmlns="http://www.w3.org/2000/svg" xmlns:xlink="http://www.w3.org/1999/xlink">
<g id="graph0" class="graph" transform="scale(1 1) rotate(0) translate(4 184)">
<title>%3</title>
<polygon fill="#ffffff" stroke="transparent" points="-4,4 -4,-184 597.8916,-184 597.8916,4 -4,4"/>
<!-- mss -->
<g id="node1" class="node">
<title>mss</title>
<ellipse fill="#fde725" stroke="#000000" cx="417.0456" cy="-90" rx="27" ry="18"/>
<text text-anchor="middle" x="417.0456" y="-86.3" font-family="Times,serif" font-size="14.00" fill="#000000">mss</text>
</g>
<!-- octave -->
<g id="node2" class="node">
<title>octave</title>
<ellipse fill="#fde725" stroke="#000000" cx="220.0456" cy="-18" rx="40.0939" ry="18"/>
<text text-anchor="middle" x="220.0456" y="-14.3" font-family="Times,serif" font-size="14.00" fill="#000000">octave</text>
</g>
<!-- pyqt -->
<g id="node3" class="node">
<title>pyqt</title>
<ellipse fill="#31688e" stroke="#000000" cx="337.0456" cy="-162" rx="30.5947" ry="18"/>
<text text-anchor="middle" x="337.0456" y="-158.3" font-family="Times,serif" font-size="14.00" fill="#ffffff">pyqt</text>
</g>
<!-- pyqt&#45;&gt;mss -->
<g id="edge1" class="edge">
<title>pyqt&#45;&gt;mss</title>
<path fill="none" stroke="#000000" d="M354.0115,-146.7307C365.4822,-136.407 380.7867,-122.633 393.4426,-111.2426"/>
<polygon fill="#000000" stroke="#000000" points="395.831,-113.8019 400.9225,-104.5107 391.1482,-108.5989 395.831,-113.8019"/>
</g>
<!-- qgis -->
<g id="node4" class="node">
<title>qgis</title>
<ellipse fill="#fde725" stroke="#000000" cx="128.0456" cy="-18" rx="30.5947" ry="18"/>
<text text-anchor="middle" x="128.0456" y="-14.3" font-family="Times,serif" font-size="14.00" fill="#000000">qgis</text>
</g>
<!-- pyqt&#45;&gt;qgis -->
<g id="edge3" class="edge">
<title>pyqt&#45;&gt;qgis</title>
<path fill="none" stroke="#000000" d="M307.4626,-157.3898C259.7328,-149.3524 168.8656,-131.3766 147.0456,-108 131.6914,-91.5505 127.4834,-65.943 126.8032,-46.2424"/>
<polygon fill="#000000" stroke="#000000" points="130.3017,-45.9791 126.7398,-36.001 123.3018,-46.0225 130.3017,-45.9791"/>
</g>
<!-- qscintilla2 -->
<g id="node5" class="node">
<title>qscintilla2</title>
<ellipse fill="#fde725" stroke="#000000" cx="220.0456" cy="-90" rx="64.189" ry="18"/>
<text text-anchor="middle" x="220.0456" y="-86.3" font-family="Times,serif" font-size="14.00" fill="#000000">qscintilla2</text>
</g>
<!-- pyqt&#45;&gt;qscintilla2 -->
<g id="edge4" class="edge">
<title>pyqt&#45;&gt;qscintilla2</title>
<path fill="none" stroke="#000000" d="M315.8577,-148.9613C299.0686,-138.6296 275.2424,-123.9673 255.5504,-111.8492"/>
<polygon fill="#000000" stroke="#000000" points="257.1848,-108.7453 246.8338,-106.4851 253.5161,-114.7069 257.1848,-108.7453"/>
</g>
<!-- ovito -->
<g id="node7" class="node">
<title>ovito</title>
<ellipse fill="#fde725" stroke="#000000" cx="392.0456" cy="-18" rx="35.194" ry="18"/>
<text text-anchor="middle" x="392.0456" y="-14.3" font-family="Times,serif" font-size="14.00" fill="#000000">ovito</text>
</g>
<!-- pyqt&#45;&gt;ovito -->
<g id="edge2" class="edge">
<title>pyqt&#45;&gt;ovito</title>
<path fill="none" stroke="#000000" d="M361.5716,-150.9786C395.2144,-135.8046 451.7058,-110.1014 453.0456,-108 461.6467,-94.5085 459.6149,-86.5892 453.0456,-72 446.8305,-58.1977 435.1507,-46.4979 423.6616,-37.5551"/>
<polygon fill="#000000" stroke="#000000" points="425.5529,-34.6025 415.4104,-31.5399 421.4293,-40.259 425.5529,-34.6025"/>
</g>
<!-- veusz -->
<g id="node8" class="node">
<title>veusz</title>
<ellipse fill="#fde725" stroke="#000000" cx="337.0456" cy="-90" rx="35.194" ry="18"/>
<text text-anchor="middle" x="337.0456" y="-86.3" font-family="Times,serif" font-size="14.00" fill="#000000">veusz</text>
</g>
<!-- pyqt&#45;&gt;veusz -->
<g id="edge5" class="edge">
<title>pyqt&#45;&gt;veusz</title>
<path fill="none" stroke="#000000" d="M337.0456,-143.8314C337.0456,-136.131 337.0456,-126.9743 337.0456,-118.4166"/>
<polygon fill="#000000" stroke="#000000" points="340.5457,-118.4132 337.0456,-108.4133 333.5457,-118.4133 340.5457,-118.4132"/>
</g>
<!-- qscintilla2&#45;&gt;octave -->
<g id="edge6" class="edge">
<title>qscintilla2&#45;&gt;octave</title>
<path fill="none" stroke="#000000" d="M220.0456,-71.8314C220.0456,-64.131 220.0456,-54.9743 220.0456,-46.4166"/>
<polygon fill="#000000" stroke="#000000" points="223.5457,-46.4132 220.0456,-36.4133 216.5457,-46.4133 223.5457,-46.4132"/>
</g>
<!-- qscintilla2&#45;&gt;qgis -->
<g id="edge8" class="edge">
<title>qscintilla2&#45;&gt;qgis</title>
<path fill="none" stroke="#000000" d="M198.2428,-72.937C185.2179,-62.7436 168.5746,-49.7184 154.7631,-38.9093"/>
<polygon fill="#000000" stroke="#000000" points="156.6192,-35.9176 146.587,-32.5107 152.305,-41.4301 156.6192,-35.9176"/>
</g>
<!-- qscintilla2&#45;&gt;ovito -->
<g id="edge7" class="edge">
<title>qscintilla2&#45;&gt;ovito</title>
<path fill="none" stroke="#000000" d="M256.1024,-74.9064C285.2199,-62.7177 326.0264,-45.6359 355.3208,-33.3732"/>
<polygon fill="#000000" stroke="#000000" points="356.9076,-36.5033 364.7805,-29.4133 354.2046,-30.0462 356.9076,-36.5033"/>
</g>
<!-- qwtpolar -->
<g id="node6" class="node">
<title>qwtpolar</title>
<ellipse fill="#31688e" stroke="#000000" cx="50.0456" cy="-90" rx="50.0912" ry="18"/>
<text text-anchor="middle" x="50.0456" y="-86.3" font-family="Times,serif" font-size="14.00" fill="#ffffff">qwtpolar</text>
</g>
<!-- qwtpolar&#45;&gt;qgis -->
<g id="edge9" class="edge">
<title>qwtpolar&#45;&gt;qgis</title>
<path fill="none" stroke="#000000" d="M68.5305,-72.937C79.1454,-63.1386 92.5949,-50.7237 104.0218,-40.1758"/>
<polygon fill="#000000" stroke="#000000" points="106.5759,-42.5814 111.55,-33.2267 101.8279,-37.4377 106.5759,-42.5814"/>
</g>
<!-- codes&#45;ui -->
<g id="node9" class="node">
<title>codes&#45;ui</title>
<ellipse fill="#31688e" stroke="#000000" cx="436.0456" cy="-162" rx="50.0912" ry="18"/>
<text text-anchor="middle" x="436.0456" y="-158.3" font-family="Times,serif" font-size="14.00" fill="#ffffff">codes ui</text>
</g>
<!-- metview -->
<g id="node10" class="node">
<title>metview</title>
<ellipse fill="#31688e" stroke="#000000" cx="549.0456" cy="-162" rx="44.6926" ry="18"/>
<text text-anchor="middle" x="549.0456" y="-158.3" font-family="Times,serif" font-size="14.00" fill="#ffffff">metview</text>
</g>
</g>
</svg>
