<?xml version="1.0" encoding="UTF-8" standalone="no"?>
<!DOCTYPE svg PUBLIC "-//W3C//DTD SVG 1.1//EN"
 "http://www.w3.org/Graphics/SVG/1.1/DTD/svg11.dtd">
<!-- Generated by graphviz version 2.40.1 (20161225.0304)
 -->
<!-- Title: %3 Pages: 1 -->
<svg width="680pt" height="116pt"
 viewBox="0.00 0.00 679.85 116.00" xmlns="http://www.w3.org/2000/svg" xmlns:xlink="http://www.w3.org/1999/xlink">
<g id="graph0" class="graph" transform="scale(1 1) rotate(0) translate(4 112)">
<title>%3</title>
<polygon fill="#ffffff" stroke="transparent" points="-4,4 -4,-112 675.846,-112 675.846,4 -4,4"/>
<!-- mss -->
<g id="node1" class="node">
<title>mss</title>
<ellipse fill="#31688e" stroke="#000000" cx="27" cy="-90" rx="27" ry="18"/>
<text text-anchor="middle" x="27" y="-86.3" font-family="Times,serif" font-size="14.00" fill="#ffffff">mss</text>
</g>
<!-- octave -->
<g id="node2" class="node">
<title>octave</title>
<ellipse fill="#31688e" stroke="#000000" cx="112" cy="-90" rx="40.0939" ry="18"/>
<text text-anchor="middle" x="112" y="-86.3" font-family="Times,serif" font-size="14.00" fill="#ffffff">octave</text>
</g>
<!-- qgis -->
<g id="node3" class="node">
<title>qgis</title>
<ellipse fill="#fde725" stroke="#000000" cx="220" cy="-18" rx="30.5947" ry="18"/>
<text text-anchor="middle" x="220" y="-14.3" font-family="Times,serif" font-size="14.00" fill="#000000">qgis</text>
</g>
<!-- qwtpolar -->
<g id="node4" class="node">
<title>qwtpolar</title>
<ellipse fill="#31688e" stroke="#000000" cx="220" cy="-90" rx="50.0912" ry="18"/>
<text text-anchor="middle" x="220" y="-86.3" font-family="Times,serif" font-size="14.00" fill="#ffffff">qwtpolar</text>
</g>
<!-- qwtpolar&#45;&gt;qgis -->
<g id="edge1" class="edge">
<title>qwtpolar&#45;&gt;qgis</title>
<path fill="none" stroke="#000000" d="M220,-71.8314C220,-64.131 220,-54.9743 220,-46.4166"/>
<polygon fill="#000000" stroke="#000000" points="223.5001,-46.4132 220,-36.4133 216.5001,-46.4133 223.5001,-46.4132"/>
</g>
<!-- ovito -->
<g id="node5" class="node">
<title>ovito</title>
<ellipse fill="#31688e" stroke="#000000" cx="323" cy="-90" rx="35.194" ry="18"/>
<text text-anchor="middle" x="323" y="-86.3" font-family="Times,serif" font-size="14.00" fill="#ffffff">ovito</text>
</g>
<!-- veusz -->
<g id="node6" class="node">
<title>veusz</title>
<ellipse fill="#31688e" stroke="#000000" cx="411" cy="-90" rx="35.194" ry="18"/>
<text text-anchor="middle" x="411" y="-86.3" font-family="Times,serif" font-size="14.00" fill="#ffffff">veusz</text>
</g>
<!-- codes&#45;ui -->
<g id="node7" class="node">
<title>codes&#45;ui</title>
<ellipse fill="#31688e" stroke="#000000" cx="514" cy="-90" rx="50.0912" ry="18"/>
<text text-anchor="middle" x="514" y="-86.3" font-family="Times,serif" font-size="14.00" fill="#ffffff">codes ui</text>
</g>
<!-- metview -->
<g id="node8" class="node">
<title>metview</title>
<ellipse fill="#31688e" stroke="#000000" cx="627" cy="-90" rx="44.6926" ry="18"/>
<text text-anchor="middle" x="627" y="-86.3" font-family="Times,serif" font-size="14.00" fill="#ffffff">metview</text>
</g>
</g>
</svg>
