<?xml version="1.0" encoding="UTF-8" standalone="no"?>
<!DOCTYPE svg PUBLIC "-//W3C//DTD SVG 1.1//EN"
 "http://www.w3.org/Graphics/SVG/1.1/DTD/svg11.dtd">
<!-- Generated by graphviz version 2.42.3 (20191010.1750)
 -->
<!-- Title: %3 Pages: 1 -->
<svg width="1853pt" height="476pt"
 viewBox="0.00 0.00 1853.30 476.00" xmlns="http://www.w3.org/2000/svg" xmlns:xlink="http://www.w3.org/1999/xlink">
<g id="graph0" class="graph" transform="scale(1 1) rotate(0) translate(4 472)">
<title>%3</title>
<polygon fill="white" stroke="transparent" points="-4,4 -4,-472 1849.3,-472 1849.3,4 -4,4"/>
<!-- r&#45;fst -->
<g id="node1" class="node">
<title>r&#45;fst</title>
<g id="a_node1"><a xlink:href="https://github.com/conda-forge/r-fst-feedstock/pull/11" xlink:title="r fst">
<ellipse fill="#31688e" stroke="black" cx="38.26" cy="-162" rx="35.19" ry="18"/>
<text text-anchor="middle" x="38.26" y="-158.3" font-family="Times,serif" font-size="14.00" fill="white">r fst</text>
</a>
</g>
</g>
<!-- r&#45;disk.frame -->
<g id="node2" class="node">
<title>r&#45;disk.frame</title>
<g id="a_node2"><a xlink:href="https://github.com/conda-forge/r-disk.frame-feedstock" xlink:title="r disk frame">
<ellipse fill="#fde725" stroke="black" cx="87.26" cy="-90" rx="69.59" ry="18"/>
<text text-anchor="middle" x="87.26" y="-86.3" font-family="Times,serif" font-size="14.00">r disk frame</text>
</a>
</g>
</g>
<!-- r&#45;fst&#45;&gt;r&#45;disk.frame -->
<g id="edge1" class="edge">
<title>r&#45;fst&#45;&gt;r&#45;disk.frame</title>
<path fill="none" stroke="black" d="M49.62,-144.76C55.51,-136.35 62.83,-125.89 69.45,-116.44"/>
<polygon fill="black" stroke="black" points="72.4,-118.32 75.27,-108.12 66.67,-114.31 72.4,-118.32"/>
</g>
<!-- conda&#45;forge&#45;pinning -->
<g id="node3" class="node">
<title>conda&#45;forge&#45;pinning</title>
<ellipse fill="none" stroke="black" cx="795.26" cy="-18" rx="103.5" ry="18"/>
<text text-anchor="middle" x="795.26" y="-14.3" font-family="Times,serif" font-size="14.00">conda&#45;forge&#45;pinning</text>
</g>
<!-- r&#45;fst&#45;&gt;conda&#45;forge&#45;pinning -->
<g id="edge2" class="edge">
<title>r&#45;fst&#45;&gt;conda&#45;forge&#45;pinning</title>
<path fill="none" stroke="black" d="M24.5,-145.16C9.23,-125.62 -10.9,-92.49 8.26,-72 53.18,-23.95 473.97,-18.17 681.13,-18.28"/>
<polygon fill="black" stroke="black" points="681.43,-21.78 691.44,-18.29 681.44,-14.78 681.43,-21.78"/>
</g>
<!-- r&#45;disk.frame&#45;&gt;conda&#45;forge&#45;pinning -->
<g id="edge3" class="edge">
<title>r&#45;disk.frame&#45;&gt;conda&#45;forge&#45;pinning</title>
<path fill="none" stroke="black" d="M138.18,-77.72C149.06,-75.58 160.51,-73.54 171.26,-72 351.18,-46.24 562.22,-31.52 687,-24.41"/>
<polygon fill="black" stroke="black" points="687.53,-27.89 697.32,-23.83 687.14,-20.9 687.53,-27.89"/>
</g>
<!-- r&#45;hive -->
<g id="node4" class="node">
<title>r&#45;hive</title>
<g id="a_node4"><a xlink:href="https://github.com/conda-forge/r-hive-feedstock" xlink:title="r hive">
<ellipse fill="#fde725" stroke="black" cx="154.26" cy="-234" rx="40.5" ry="18"/>
<text text-anchor="middle" x="154.26" y="-230.3" font-family="Times,serif" font-size="14.00">r hive</text>
</a>
</g>
</g>
<!-- r&#45;hive&#45;&gt;conda&#45;forge&#45;pinning -->
<g id="edge4" class="edge">
<title>r&#45;hive&#45;&gt;conda&#45;forge&#45;pinning</title>
<path fill="none" stroke="black" d="M154.42,-215.99C155.76,-182.37 163.97,-107.58 209.26,-72 245.68,-43.38 524.7,-28.71 684.23,-22.59"/>
<polygon fill="black" stroke="black" points="684.71,-26.07 694.57,-22.2 684.44,-19.08 684.71,-26.07"/>
</g>
<!-- r&#45;rjava -->
<g id="node5" class="node">
<title>r&#45;rjava</title>
<g id="a_node5"><a xlink:href="https://github.com/conda-forge/r-rjava-feedstock" xlink:title="r rjava">
<ellipse fill="#35b779" stroke="black" cx="815.26" cy="-450" rx="45" ry="18"/>
<text text-anchor="middle" x="815.26" y="-446.3" font-family="Times,serif" font-size="14.00">r rjava</text>
</a>
</g>
</g>
<!-- r&#45;rjava&#45;&gt;conda&#45;forge&#45;pinning -->
<g id="edge5" class="edge">
<title>r&#45;rjava&#45;&gt;conda&#45;forge&#45;pinning</title>
<path fill="none" stroke="black" d="M769.99,-448.4C637.45,-446.19 257.18,-436.36 220.26,-396 170.78,-341.91 222.2,-114.03 282.26,-72 344.59,-28.38 550.25,-19.31 681.46,-18.15"/>
<polygon fill="black" stroke="black" points="681.59,-21.65 691.56,-18.08 681.54,-14.65 681.59,-21.65"/>
</g>
<!-- r&#45;rjava&#45;&gt;r&#45;hive -->
<g id="edge6" class="edge">
<title>r&#45;rjava&#45;&gt;r&#45;hive</title>
<path fill="none" stroke="black" d="M770.31,-448.26C633.79,-445.61 230.66,-434.56 187.26,-396 149.66,-362.6 148.19,-298.86 150.93,-262.4"/>
<polygon fill="black" stroke="black" points="154.45,-262.31 151.87,-252.03 147.48,-261.67 154.45,-262.31"/>
</g>
<!-- r&#45;xlsx -->
<g id="node6" class="node">
<title>r&#45;xlsx</title>
<g id="a_node6"><a xlink:href="https://github.com/conda-forge/r-xlsx-feedstock" xlink:title="r xlsx">
<ellipse fill="#fde725" stroke="black" cx="516.26" cy="-306" rx="40.5" ry="18"/>
<text text-anchor="middle" x="516.26" y="-302.3" font-family="Times,serif" font-size="14.00">r xlsx</text>
</a>
</g>
</g>
<!-- r&#45;rjava&#45;&gt;r&#45;xlsx -->
<g id="edge7" class="edge">
<title>r&#45;rjava&#45;&gt;r&#45;xlsx</title>
<path fill="none" stroke="black" d="M774.09,-442.73C734.29,-435.48 673.14,-421.2 625.26,-396 603.2,-384.39 601.53,-375.8 582.26,-360 569.42,-349.48 555.07,-337.92 543.03,-328.3"/>
<polygon fill="black" stroke="black" points="545.11,-325.48 535.12,-321.98 540.75,-330.95 545.11,-325.48"/>
</g>
<!-- r&#45;xlsxjars -->
<g id="node7" class="node">
<title>r&#45;xlsxjars</title>
<g id="a_node7"><a xlink:href="https://github.com/conda-forge/r-xlsxjars-feedstock" xlink:title="r xlsxjars">
<ellipse fill="#fde725" stroke="black" cx="513.26" cy="-378" rx="60" ry="18"/>
<text text-anchor="middle" x="513.26" y="-374.3" font-family="Times,serif" font-size="14.00">r xlsxjars</text>
</a>
</g>
</g>
<!-- r&#45;rjava&#45;&gt;r&#45;xlsxjars -->
<g id="edge8" class="edge">
<title>r&#45;rjava&#45;&gt;r&#45;xlsxjars</title>
<path fill="none" stroke="black" d="M777.31,-440.21C724.79,-428.03 629.57,-405.96 568.97,-391.91"/>
<polygon fill="black" stroke="black" points="569.71,-388.49 559.18,-389.64 568.13,-395.31 569.71,-388.49"/>
</g>
<!-- r&#45;xlconnectjars -->
<g id="node8" class="node">
<title>r&#45;xlconnectjars</title>
<g id="a_node8"><a xlink:href="https://github.com/conda-forge/r-xlconnectjars-feedstock" xlink:title="r xlconnectjars">
<ellipse fill="#fde725" stroke="black" cx="313.26" cy="-378" rx="84" ry="18"/>
<text text-anchor="middle" x="313.26" y="-374.3" font-family="Times,serif" font-size="14.00">r xlconnectjars</text>
</a>
</g>
</g>
<!-- r&#45;rjava&#45;&gt;r&#45;xlconnectjars -->
<g id="edge9" class="edge">
<title>r&#45;rjava&#45;&gt;r&#45;xlconnectjars</title>
<path fill="none" stroke="black" d="M772.72,-444.01C698.98,-435.22 542.73,-416.02 411.26,-396 402.91,-394.73 394.18,-393.32 385.52,-391.88"/>
<polygon fill="black" stroke="black" points="385.85,-388.39 375.41,-390.18 384.69,-395.29 385.85,-388.39"/>
</g>
<!-- r&#45;xlconnect -->
<g id="node9" class="node">
<title>r&#45;xlconnect</title>
<g id="a_node9"><a xlink:href="https://github.com/conda-forge/r-xlconnect-feedstock" xlink:title="r xlconnect">
<ellipse fill="#fde725" stroke="black" cx="354.26" cy="-306" rx="64.5" ry="18"/>
<text text-anchor="middle" x="354.26" y="-302.3" font-family="Times,serif" font-size="14.00">r xlconnect</text>
</a>
</g>
</g>
<!-- r&#45;rjava&#45;&gt;r&#45;xlconnect -->
<g id="edge10" class="edge">
<title>r&#45;rjava&#45;&gt;r&#45;xlconnect</title>
<path fill="none" stroke="black" d="M771.12,-446.17C685.64,-440.11 500.93,-424.14 444.26,-396 440.14,-393.95 402.89,-356.5 377.63,-330.84"/>
<polygon fill="black" stroke="black" points="380.04,-328.3 370.54,-323.63 375.05,-333.21 380.04,-328.3"/>
</g>
<!-- r&#45;rcdklibs -->
<g id="node10" class="node">
<title>r&#45;rcdklibs</title>
<g id="a_node10"><a xlink:href="https://github.com/conda-forge/r-rcdklibs-feedstock" xlink:title="r rcdklibs">
<ellipse fill="#fde725" stroke="black" cx="727.26" cy="-378" rx="60" ry="18"/>
<text text-anchor="middle" x="727.26" y="-374.3" font-family="Times,serif" font-size="14.00">r rcdklibs</text>
</a>
</g>
</g>
<!-- r&#45;rjava&#45;&gt;r&#45;rcdklibs -->
<g id="edge11" class="edge">
<title>r&#45;rjava&#45;&gt;r&#45;rcdklibs</title>
<path fill="none" stroke="black" d="M795.73,-433.46C783.82,-423.99 768.4,-411.73 755.22,-401.24"/>
<polygon fill="black" stroke="black" points="757.35,-398.46 747.34,-394.98 752.99,-403.94 757.35,-398.46"/>
</g>
<!-- r&#45;rcdk -->
<g id="node11" class="node">
<title>r&#45;rcdk</title>
<g id="a_node11"><a xlink:href="https://github.com/conda-forge/r-rcdk-feedstock" xlink:title="r rcdk">
<ellipse fill="#fde725" stroke="black" cx="692.26" cy="-306" rx="40.5" ry="18"/>
<text text-anchor="middle" x="692.26" y="-302.3" font-family="Times,serif" font-size="14.00">r rcdk</text>
</a>
</g>
</g>
<!-- r&#45;rjava&#45;&gt;r&#45;rcdk -->
<g id="edge12" class="edge">
<title>r&#45;rjava&#45;&gt;r&#45;rcdk</title>
<path fill="none" stroke="black" d="M815.79,-431.8C815.52,-412.42 812.33,-380.93 796.26,-360 787.52,-348.62 756.62,-333.61 730.76,-322.47"/>
<polygon fill="black" stroke="black" points="732.08,-319.23 721.51,-318.56 729.36,-325.68 732.08,-319.23"/>
</g>
<!-- r&#45;rchoicedialogs -->
<g id="node12" class="node">
<title>r&#45;rchoicedialogs</title>
<g id="a_node12"><a xlink:href="https://github.com/conda-forge/r-rchoicedialogs-feedstock" xlink:title="r rchoicedialogs">
<ellipse fill="#fde725" stroke="black" cx="840.26" cy="-306" rx="89.08" ry="18"/>
<text text-anchor="middle" x="840.26" y="-302.3" font-family="Times,serif" font-size="14.00">r rchoicedialogs</text>
</a>
</g>
</g>
<!-- r&#45;rjava&#45;&gt;r&#45;rchoicedialogs -->
<g id="edge13" class="edge">
<title>r&#45;rjava&#45;&gt;r&#45;rchoicedialogs</title>
<path fill="none" stroke="black" d="M820.39,-431.95C823.34,-421.63 826.91,-408.15 829.26,-396 833.21,-375.49 836.05,-352.04 837.84,-334.35"/>
<polygon fill="black" stroke="black" points="841.35,-334.46 838.83,-324.17 834.38,-333.79 841.35,-334.46"/>
</g>
<!-- r&#45;rwekajars -->
<g id="node13" class="node">
<title>r&#45;rwekajars</title>
<g id="a_node13"><a xlink:href="https://github.com/conda-forge/r-rwekajars-feedstock" xlink:title="r rwekajars">
<ellipse fill="#fde725" stroke="black" cx="812.26" cy="-234" rx="64.5" ry="18"/>
<text text-anchor="middle" x="812.26" y="-230.3" font-family="Times,serif" font-size="14.00">r rwekajars</text>
</a>
</g>
</g>
<!-- r&#45;rjava&#45;&gt;r&#45;rwekajars -->
<g id="edge14" class="edge">
<title>r&#45;rjava&#45;&gt;r&#45;rwekajars</title>
<path fill="none" stroke="black" d="M840.41,-435.03C886.37,-407.67 975.92,-344.7 938.26,-288 924.24,-266.89 899.99,-254.17 876.48,-246.51"/>
<polygon fill="black" stroke="black" points="877.42,-243.14 866.84,-243.63 875.42,-249.85 877.42,-243.14"/>
</g>
<!-- r&#45;rweka -->
<g id="node14" class="node">
<title>r&#45;rweka</title>
<g id="a_node14"><a xlink:href="https://github.com/conda-forge/r-rweka-feedstock" xlink:title="r rweka">
<ellipse fill="#fde725" stroke="black" cx="859.26" cy="-162" rx="45" ry="18"/>
<text text-anchor="middle" x="859.26" y="-158.3" font-family="Times,serif" font-size="14.00">r rweka</text>
</a>
</g>
</g>
<!-- r&#45;rjava&#45;&gt;r&#45;rweka -->
<g id="edge15" class="edge">
<title>r&#45;rjava&#45;&gt;r&#45;rweka</title>
<path fill="none" stroke="black" d="M852.05,-439.45C876.48,-431.43 907.71,-417.72 928.26,-396 951.96,-370.94 950.69,-357.87 957.26,-324 960.3,-308.29 963.06,-302.91 957.26,-288 949.39,-267.77 938.01,-268.79 924.26,-252 907.06,-231.01 888.98,-205.97 876.26,-187.8"/>
<polygon fill="black" stroke="black" points="879.06,-185.7 870.47,-179.49 873.31,-189.69 879.06,-185.7"/>
</g>
<!-- r&#45;subspace -->
<g id="node15" class="node">
<title>r&#45;subspace</title>
<g id="a_node15"><a xlink:href="https://github.com/conda-forge/r-subspace-feedstock" xlink:title="r subspace">
<ellipse fill="#fde725" stroke="black" cx="993.26" cy="-234" rx="60" ry="18"/>
<text text-anchor="middle" x="993.26" y="-230.3" font-family="Times,serif" font-size="14.00">r subspace</text>
</a>
</g>
</g>
<!-- r&#45;rjava&#45;&gt;r&#45;subspace -->
<g id="edge16" class="edge">
<title>r&#45;rjava&#45;&gt;r&#45;subspace</title>
<path fill="none" stroke="black" d="M857.43,-443.47C908.78,-435.77 990.93,-420.01 1009.26,-396 1039.04,-356.98 1020.71,-296.21 1006.07,-261.57"/>
<polygon fill="black" stroke="black" points="1009.14,-259.85 1001.89,-252.12 1002.74,-262.68 1009.14,-259.85"/>
</g>
<!-- r&#45;rmcfs -->
<g id="node16" class="node">
<title>r&#45;rmcfs</title>
<g id="a_node16"><a xlink:href="https://github.com/conda-forge/r-rmcfs-feedstock" xlink:title="r rmcfs">
<ellipse fill="#fde725" stroke="black" cx="1052.26" cy="-162" rx="45" ry="18"/>
<text text-anchor="middle" x="1052.26" y="-158.3" font-family="Times,serif" font-size="14.00">r rmcfs</text>
</a>
</g>
</g>
<!-- r&#45;rjava&#45;&gt;r&#45;rmcfs -->
<g id="edge17" class="edge">
<title>r&#45;rjava&#45;&gt;r&#45;rmcfs</title>
<path fill="none" stroke="black" d="M857.94,-443.91C913.83,-436.37 1007.51,-420.44 1031.26,-396 1085.32,-340.37 1070.4,-238.06 1059.34,-189.69"/>
<polygon fill="black" stroke="black" points="1062.74,-188.85 1057,-179.95 1055.94,-190.49 1062.74,-188.85"/>
</g>
<!-- r&#45;rjdbc -->
<g id="node17" class="node">
<title>r&#45;rjdbc</title>
<g id="a_node17"><a xlink:href="https://github.com/conda-forge/r-rjdbc-feedstock" xlink:title="r rjdbc">
<ellipse fill="#fde725" stroke="black" cx="1092.26" cy="-90" rx="45" ry="18"/>
<text text-anchor="middle" x="1092.26" y="-86.3" font-family="Times,serif" font-size="14.00">r rjdbc</text>
</a>
</g>
</g>
<!-- r&#45;rjava&#45;&gt;r&#45;rjdbc -->
<g id="edge18" class="edge">
<title>r&#45;rjava&#45;&gt;r&#45;rjdbc</title>
<path fill="none" stroke="black" d="M858.41,-444.61C919.83,-437.55 1028.23,-421.77 1057.26,-396 1091.5,-365.6 1104.8,-197.63 1106.26,-180 1107.58,-164.05 1108.32,-159.87 1106.26,-144 1105.13,-135.28 1102.99,-125.95 1100.71,-117.58"/>
<polygon fill="black" stroke="black" points="1104.07,-116.6 1097.94,-107.96 1097.35,-118.54 1104.07,-116.6"/>
</g>
<!-- r&#45;tabulizer -->
<g id="node18" class="node">
<title>r&#45;tabulizer</title>
<g id="a_node18"><a xlink:href="https://github.com/conda-forge/r-tabulizer-feedstock" xlink:title="r tabulizer">
<ellipse fill="#fde725" stroke="black" cx="1202.26" cy="-306" rx="64.5" ry="18"/>
<text text-anchor="middle" x="1202.26" y="-302.3" font-family="Times,serif" font-size="14.00">r tabulizer</text>
</a>
</g>
</g>
<!-- r&#45;rjava&#45;&gt;r&#45;tabulizer -->
<g id="edge19" class="edge">
<title>r&#45;rjava&#45;&gt;r&#45;tabulizer</title>
<path fill="none" stroke="black" d="M858.59,-445.1C932.31,-437.89 1078.51,-420.89 1123.26,-396 1150.31,-380.95 1172.76,-353.03 1186.72,-332.46"/>
<polygon fill="black" stroke="black" points="1189.8,-334.16 1192.35,-323.88 1183.94,-330.32 1189.8,-334.16"/>
</g>
<!-- r&#45;tabulizerjars -->
<g id="node19" class="node">
<title>r&#45;tabulizerjars</title>
<g id="a_node19"><a xlink:href="https://github.com/conda-forge/r-tabulizerjars-feedstock" xlink:title="r tabulizerjars">
<ellipse fill="#fde725" stroke="black" cx="1259.26" cy="-378" rx="84" ry="18"/>
<text text-anchor="middle" x="1259.26" y="-374.3" font-family="Times,serif" font-size="14.00">r tabulizerjars</text>
</a>
</g>
</g>
<!-- r&#45;rjava&#45;&gt;r&#45;tabulizerjars -->
<g id="edge20" class="edge">
<title>r&#45;rjava&#45;&gt;r&#45;tabulizerjars</title>
<path fill="none" stroke="black" d="M856.84,-442.9C921.86,-433.31 1051.5,-413.92 1161.26,-396 1169.46,-394.66 1178.05,-393.22 1186.59,-391.77"/>
<polygon fill="black" stroke="black" points="1187.29,-395.2 1196.55,-390.07 1186.11,-388.3 1187.29,-395.2"/>
</g>
<!-- r&#45;destinie -->
<g id="node20" class="node">
<title>r&#45;destinie</title>
<g id="a_node20"><a xlink:href="https://github.com/conda-forge/r-destinie-feedstock" xlink:title="r destinie">
<ellipse fill="#fde725" stroke="black" cx="555.26" cy="-234" rx="60" ry="18"/>
<text text-anchor="middle" x="555.26" y="-230.3" font-family="Times,serif" font-size="14.00">r destinie</text>
</a>
</g>
</g>
<!-- r&#45;rjava&#45;&gt;r&#45;destinie -->
<g id="edge21" class="edge">
<title>r&#45;rjava&#45;&gt;r&#45;destinie</title>
<path fill="none" stroke="black" d="M774.13,-442.62C740.3,-435.71 692.51,-422.01 658.26,-396 611.39,-360.42 580.03,-296.88 565.18,-261.19"/>
<polygon fill="black" stroke="black" points="568.42,-259.87 561.43,-251.91 561.93,-262.49 568.42,-259.87"/>
</g>
<!-- r&#45;xlsx&#45;&gt;conda&#45;forge&#45;pinning -->
<g id="edge22" class="edge">
<title>r&#45;xlsx&#45;&gt;conda&#45;forge&#45;pinning</title>
<path fill="none" stroke="black" d="M504.15,-288.78C497.44,-278.75 489.76,-265.29 486.26,-252 482.18,-236.53 481.1,-231.15 486.26,-216 512.32,-139.51 530.01,-116.81 597.26,-72 628.25,-51.35 667,-38.72 701.98,-31.01"/>
<polygon fill="black" stroke="black" points="703.15,-34.34 712.22,-28.87 701.71,-27.49 703.15,-34.34"/>
</g>
<!-- r&#45;xlsx&#45;&gt;r&#45;destinie -->
<g id="edge23" class="edge">
<title>r&#45;xlsx&#45;&gt;r&#45;destinie</title>
<path fill="none" stroke="black" d="M525.5,-288.41C530.1,-280.16 535.75,-270.01 540.9,-260.78"/>
<polygon fill="black" stroke="black" points="544,-262.4 545.81,-251.96 537.89,-258.99 544,-262.4"/>
</g>
<!-- r&#45;xlsxjars&#45;&gt;conda&#45;forge&#45;pinning -->
<g id="edge24" class="edge">
<title>r&#45;xlsxjars&#45;&gt;conda&#45;forge&#45;pinning</title>
<path fill="none" stroke="black" d="M492.97,-360.63C482.87,-351.14 471.67,-338.26 466.26,-324 460.58,-309.04 464.83,-303.94 466.26,-288 475.39,-186.04 461.01,-128.68 546.26,-72 587.23,-44.76 639.66,-31.18 685.83,-24.55"/>
<polygon fill="black" stroke="black" points="686.44,-28 695.89,-23.19 685.51,-21.06 686.44,-28"/>
</g>
<!-- r&#45;xlsxjars&#45;&gt;r&#45;xlsx -->
<g id="edge25" class="edge">
<title>r&#45;xlsxjars&#45;&gt;r&#45;xlsx</title>
<path fill="none" stroke="black" d="M514,-359.7C514.33,-351.98 514.73,-342.71 515.1,-334.11"/>
<polygon fill="black" stroke="black" points="518.59,-334.25 515.52,-324.1 511.6,-333.95 518.59,-334.25"/>
</g>
<!-- r&#45;xlconnectjars&#45;&gt;conda&#45;forge&#45;pinning -->
<g id="edge26" class="edge">
<title>r&#45;xlconnectjars&#45;&gt;conda&#45;forge&#45;pinning</title>
<path fill="none" stroke="black" d="M300.65,-360.15C293.7,-350.12 285.45,-336.87 280.26,-324 265.12,-286.49 261.26,-275.45 261.26,-235 261.26,-235 261.26,-235 261.26,-161 261.26,-93.88 320.91,-96.84 383.26,-72 437.48,-50.4 587.84,-34.93 691.09,-26.47"/>
<polygon fill="black" stroke="black" points="691.56,-29.94 701.24,-25.65 690.99,-22.96 691.56,-29.94"/>
</g>
<!-- r&#45;xlconnectjars&#45;&gt;r&#45;xlconnect -->
<g id="edge27" class="edge">
<title>r&#45;xlconnectjars&#45;&gt;r&#45;xlconnect</title>
<path fill="none" stroke="black" d="M323.18,-360.05C327.95,-351.92 333.76,-342 339.06,-332.94"/>
<polygon fill="black" stroke="black" points="342.11,-334.67 344.14,-324.28 336.07,-331.14 342.11,-334.67"/>
</g>
<!-- r&#45;xlconnect&#45;&gt;conda&#45;forge&#45;pinning -->
<g id="edge28" class="edge">
<title>r&#45;xlconnect&#45;&gt;conda&#45;forge&#45;pinning</title>
<path fill="none" stroke="black" d="M352.93,-287.72C350.61,-244.1 351.19,-128.95 415.26,-72 453.84,-37.7 585.03,-25.51 682.53,-21.22"/>
<polygon fill="black" stroke="black" points="682.9,-24.71 692.75,-20.8 682.61,-17.72 682.9,-24.71"/>
</g>
<!-- r&#45;rcdklibs&#45;&gt;conda&#45;forge&#45;pinning -->
<g id="edge29" class="edge">
<title>r&#45;rcdklibs&#45;&gt;conda&#45;forge&#45;pinning</title>
<path fill="none" stroke="black" d="M689.79,-363.68C672.02,-355.25 652.47,-342.4 642.26,-324 634.49,-310.01 639.56,-303.77 642.26,-288 659.39,-187.68 656.41,-152.82 718.26,-72 727.79,-59.54 741.11,-48.93 753.99,-40.55"/>
<polygon fill="black" stroke="black" points="756.12,-43.35 762.79,-35.11 752.44,-37.4 756.12,-43.35"/>
</g>
<!-- r&#45;rcdklibs&#45;&gt;r&#45;rcdk -->
<g id="edge30" class="edge">
<title>r&#45;rcdklibs&#45;&gt;r&#45;rcdk</title>
<path fill="none" stroke="black" d="M718.79,-360.05C714.7,-351.89 709.71,-341.91 705.17,-332.82"/>
<polygon fill="black" stroke="black" points="708.25,-331.17 700.65,-323.79 701.99,-334.3 708.25,-331.17"/>
</g>
<!-- r&#45;rcdk&#45;&gt;conda&#45;forge&#45;pinning -->
<g id="edge31" class="edge">
<title>r&#45;rcdk&#45;&gt;conda&#45;forge&#45;pinning</title>
<path fill="none" stroke="black" d="M691.97,-287.84C692.05,-247.31 696.73,-143.69 739.26,-72 745.82,-60.94 755.35,-50.71 764.69,-42.25"/>
<polygon fill="black" stroke="black" points="767.13,-44.77 772.42,-35.59 762.56,-39.47 767.13,-44.77"/>
</g>
<!-- r&#45;rchoicedialogs&#45;&gt;conda&#45;forge&#45;pinning -->
<g id="edge32" class="edge">
<title>r&#45;rchoicedialogs&#45;&gt;conda&#45;forge&#45;pinning</title>
<path fill="none" stroke="black" d="M789.42,-291.14C769.9,-283.07 749.6,-270.68 738.26,-252 697.41,-184.73 747.93,-89.81 777.18,-44.72"/>
<polygon fill="black" stroke="black" points="780.27,-46.4 782.89,-36.13 774.44,-42.52 780.27,-46.4"/>
</g>
<!-- r&#45;rwekajars&#45;&gt;conda&#45;forge&#45;pinning -->
<g id="edge33" class="edge">
<title>r&#45;rwekajars&#45;&gt;conda&#45;forge&#45;pinning</title>
<path fill="none" stroke="black" d="M809.78,-215.84C808.33,-205.48 806.55,-192 805.26,-180 801.82,-148.07 801.31,-140.05 799.26,-108 797.93,-87.29 796.9,-63.85 796.21,-46.22"/>
<polygon fill="black" stroke="black" points="799.7,-45.93 795.83,-36.07 792.71,-46.2 799.7,-45.93"/>
</g>
<!-- r&#45;rwekajars&#45;&gt;r&#45;rweka -->
<g id="edge34" class="edge">
<title>r&#45;rwekajars&#45;&gt;r&#45;rweka</title>
<path fill="none" stroke="black" d="M823.64,-216.05C829.23,-207.71 836.1,-197.49 842.3,-188.25"/>
<polygon fill="black" stroke="black" points="845.32,-190.04 847.99,-179.79 839.5,-186.14 845.32,-190.04"/>
</g>
<!-- r&#45;rweka&#45;&gt;conda&#45;forge&#45;pinning -->
<g id="edge35" class="edge">
<title>r&#45;rweka&#45;&gt;conda&#45;forge&#45;pinning</title>
<path fill="none" stroke="black" d="M841.87,-144.9C832.33,-135.11 821.08,-121.86 814.26,-108 804.7,-88.56 799.93,-64.42 797.56,-46.19"/>
<polygon fill="black" stroke="black" points="801.03,-45.75 796.42,-36.21 794.08,-46.54 801.03,-45.75"/>
</g>
<!-- r&#45;fselector -->
<g id="node21" class="node">
<title>r&#45;fselector</title>
<g id="a_node21"><a xlink:href="https://github.com/conda-forge/r-fselector-feedstock" xlink:title="r fselector">
<ellipse fill="#fde725" stroke="black" cx="888.26" cy="-90" rx="64.5" ry="18"/>
<text text-anchor="middle" x="888.26" y="-86.3" font-family="Times,serif" font-size="14.00">r fselector</text>
</a>
</g>
</g>
<!-- r&#45;rweka&#45;&gt;r&#45;fselector -->
<g id="edge36" class="edge">
<title>r&#45;rweka&#45;&gt;r&#45;fselector</title>
<path fill="none" stroke="black" d="M866.28,-144.05C869.54,-136.18 873.5,-126.62 877.16,-117.79"/>
<polygon fill="black" stroke="black" points="880.51,-118.85 881.1,-108.28 874.04,-116.17 880.51,-118.85"/>
</g>
<!-- r&#45;subspace&#45;&gt;conda&#45;forge&#45;pinning -->
<g id="edge37" class="edge">
<title>r&#45;subspace&#45;&gt;conda&#45;forge&#45;pinning</title>
<path fill="none" stroke="black" d="M995.05,-216C997.48,-183.7 997.89,-113.02 961.26,-72 942.86,-51.4 916.48,-38.75 890.14,-31.01"/>
<polygon fill="black" stroke="black" points="891.02,-27.62 880.45,-28.37 889.18,-34.37 891.02,-27.62"/>
</g>
<!-- r&#45;rmcfs&#45;&gt;conda&#45;forge&#45;pinning -->
<g id="edge38" class="edge">
<title>r&#45;rmcfs&#45;&gt;conda&#45;forge&#45;pinning</title>
<path fill="none" stroke="black" d="M1045.81,-143.84C1037.33,-123.6 1020.46,-90.38 995.26,-72 965.54,-50.33 927.6,-37.51 892.77,-29.94"/>
<polygon fill="black" stroke="black" points="893.05,-26.42 882.56,-27.84 891.65,-33.28 893.05,-26.42"/>
</g>
<!-- r&#45;rjdbc&#45;&gt;conda&#45;forge&#45;pinning -->
<g id="edge39" class="edge">
<title>r&#45;rjdbc&#45;&gt;conda&#45;forge&#45;pinning</title>
<path fill="none" stroke="black" d="M1057.41,-78.58C1049.5,-76.31 1041.11,-74 1033.26,-72 978.59,-58.05 916.34,-44.26 869.22,-34.25"/>
<polygon fill="black" stroke="black" points="869.91,-30.82 859.4,-32.17 868.46,-37.66 869.91,-30.82"/>
</g>
<!-- r&#45;tabulizer&#45;&gt;conda&#45;forge&#45;pinning -->
<g id="edge40" class="edge">
<title>r&#45;tabulizer&#45;&gt;conda&#45;forge&#45;pinning</title>
<path fill="none" stroke="black" d="M1203.96,-287.81C1207.21,-244.38 1209.1,-129.66 1146.26,-72 1111.99,-40.56 996.12,-27.77 906.78,-22.57"/>
<polygon fill="black" stroke="black" points="906.75,-19.06 896.57,-22 906.36,-26.05 906.75,-19.06"/>
</g>
<!-- r&#45;tabulizerjars&#45;&gt;conda&#45;forge&#45;pinning -->
<g id="edge41" class="edge">
<title>r&#45;tabulizerjars&#45;&gt;conda&#45;forge&#45;pinning</title>
<path fill="none" stroke="black" d="M1266.34,-359.86C1272.83,-341.89 1280.68,-312.85 1275.26,-288 1252.66,-184.46 1259.97,-134.32 1174.26,-72 1132.54,-41.67 1002.03,-28.64 905.76,-23.07"/>
<polygon fill="black" stroke="black" points="905.86,-19.57 895.68,-22.51 905.47,-26.56 905.86,-19.57"/>
</g>
<!-- r&#45;tabulizerjars&#45;&gt;r&#45;tabulizer -->
<g id="edge42" class="edge">
<title>r&#45;tabulizerjars&#45;&gt;r&#45;tabulizer</title>
<path fill="none" stroke="black" d="M1245.46,-360.05C1238.53,-351.54 1230,-341.07 1222.36,-331.68"/>
<polygon fill="black" stroke="black" points="1224.96,-329.33 1215.93,-323.79 1219.53,-333.75 1224.96,-329.33"/>
</g>
<!-- r&#45;destinie&#45;&gt;conda&#45;forge&#45;pinning -->
<g id="edge43" class="edge">
<title>r&#45;destinie&#45;&gt;conda&#45;forge&#45;pinning</title>
<path fill="none" stroke="black" d="M558.37,-215.95C565.22,-183.25 584.68,-111.45 629.26,-72 651.14,-52.63 680.15,-40.33 707.79,-32.53"/>
<polygon fill="black" stroke="black" points="708.73,-35.9 717.49,-29.95 706.93,-29.13 708.73,-35.9"/>
</g>
<!-- r&#45;fselector&#45;&gt;conda&#45;forge&#45;pinning -->
<g id="edge49" class="edge">
<title>r&#45;fselector&#45;&gt;conda&#45;forge&#45;pinning</title>
<path fill="none" stroke="black" d="M866.69,-72.76C854.42,-63.53 838.87,-51.83 825.42,-41.7"/>
<polygon fill="black" stroke="black" points="827.45,-38.85 817.36,-35.63 823.24,-44.44 827.45,-38.85"/>
</g>
<!-- rpy2 -->
<g id="node22" class="node">
<title>rpy2</title>
<g id="a_node22"><a xlink:href="https://github.com/conda-forge/rpy2-feedstock/pull/55" xlink:title="rpy2">
<ellipse fill="#31688e" stroke="black" cx="1305.26" cy="-162" rx="30.59" ry="18"/>
<text text-anchor="middle" x="1305.26" y="-158.3" font-family="Times,serif" font-size="14.00" fill="white">rpy2</text>
</a>
</g>
</g>
<!-- rpy2&#45;&gt;conda&#45;forge&#45;pinning -->
<g id="edge44" class="edge">
<title>rpy2&#45;&gt;conda&#45;forge&#45;pinning</title>
<path fill="none" stroke="black" d="M1292.22,-145.56C1272.4,-122.49 1235.09,-80.79 1217.26,-72 1163.76,-45.63 1009.75,-31.44 903.38,-24.55"/>
<polygon fill="black" stroke="black" points="903.44,-21.05 893.23,-23.91 902.99,-28.03 903.44,-21.05"/>
</g>
<!-- iterativewgcna -->
<g id="node23" class="node">
<title>iterativewgcna</title>
<g id="a_node23"><a xlink:href="https://github.com/conda-forge/iterativewgcna-feedstock" xlink:title="iterativewgcna">
<ellipse fill="#fde725" stroke="black" cx="1348.26" cy="-90" rx="79.5" ry="18"/>
<text text-anchor="middle" x="1348.26" y="-86.3" font-family="Times,serif" font-size="14.00">iterativewgcna</text>
</a>
</g>
</g>
<!-- rpy2&#45;&gt;iterativewgcna -->
<g id="edge45" class="edge">
<title>rpy2&#45;&gt;iterativewgcna</title>
<path fill="none" stroke="black" d="M1315.23,-144.76C1320.34,-136.44 1326.69,-126.1 1332.46,-116.73"/>
<polygon fill="black" stroke="black" points="1335.49,-118.48 1337.74,-108.12 1329.52,-114.81 1335.49,-118.48"/>
</g>
<!-- iterativewgcna&#45;&gt;conda&#45;forge&#45;pinning -->
<g id="edge46" class="edge">
<title>iterativewgcna&#45;&gt;conda&#45;forge&#45;pinning</title>
<path fill="none" stroke="black" d="M1289.82,-77.71C1278.38,-75.67 1266.46,-73.67 1255.26,-72 1130.97,-53.5 986.97,-37.83 893.66,-28.44"/>
<polygon fill="black" stroke="black" points="893.97,-24.95 883.67,-27.43 893.27,-31.92 893.97,-24.95"/>
</g>
<!-- r&#45;rvaidememoire -->
<g id="node24" class="node">
<title>r&#45;rvaidememoire</title>
<g id="a_node24"><a xlink:href="https://github.com/conda-forge/r-rvaidememoire-feedstock" xlink:title="r rvaidememoire">
<ellipse fill="#35b779" stroke="black" cx="1529.26" cy="-90" rx="84" ry="18"/>
<text text-anchor="middle" x="1529.26" y="-86.3" font-family="Times,serif" font-size="14.00">r rvaidememoire</text>
</a>
</g>
</g>
<!-- r&#45;rvaidememoire&#45;&gt;conda&#45;forge&#45;pinning -->
<g id="edge47" class="edge">
<title>r&#45;rvaidememoire&#45;&gt;conda&#45;forge&#45;pinning</title>
<path fill="none" stroke="black" d="M1469.86,-77.24C1458.73,-75.3 1447.16,-73.44 1436.26,-72 1249.53,-47.27 1030.58,-32.12 902.94,-24.66"/>
<polygon fill="black" stroke="black" points="902.95,-21.16 892.77,-24.07 902.55,-28.15 902.95,-21.16"/>
</g>
<!-- r&#45;hiver -->
<g id="node25" class="node">
<title>r&#45;hiver</title>
<g id="a_node25"><a xlink:href="https://github.com/conda-forge/r-hiver-feedstock" xlink:title="r hiver">
<ellipse fill="#35b779" stroke="black" cx="1606.26" cy="-162" rx="45" ry="18"/>
<text text-anchor="middle" x="1606.26" y="-158.3" font-family="Times,serif" font-size="14.00">r hiver</text>
</a>
</g>
</g>
<!-- r&#45;hiver&#45;&gt;conda&#45;forge&#45;pinning -->
<g id="edge48" class="edge">
<title>r&#45;hiver&#45;&gt;conda&#45;forge&#45;pinning</title>
<path fill="none" stroke="black" d="M1616.64,-144.21C1627.47,-124.33 1640.52,-91.47 1622.26,-72 1598.17,-46.32 1127.3,-28.92 907.06,-22.16"/>
<polygon fill="black" stroke="black" points="906.86,-18.65 896.76,-21.84 906.65,-25.65 906.86,-18.65"/>
</g>
<!-- r&#45;littler -->
<g id="node26" class="node">
<title>r&#45;littler</title>
<g id="a_node26"><a xlink:href="https://github.com/conda-forge/r-littler-feedstock/pull/2" xlink:title="r littler">
<ellipse fill="#31688e" stroke="black" cx="1679.26" cy="-234" rx="54.69" ry="18"/>
<text text-anchor="middle" x="1679.26" y="-230.3" font-family="Times,serif" font-size="14.00" fill="white">r littler</text>
</a>
</g>
</g>
<!-- r&#45;littler&#45;&gt;conda&#45;forge&#45;pinning -->
<g id="edge50" class="edge">
<title>r&#45;littler&#45;&gt;conda&#45;forge&#45;pinning</title>
<path fill="none" stroke="black" d="M1681.18,-215.99C1683.93,-182.36 1684.53,-107.55 1641.26,-72 1585.99,-26.6 1126.75,-19.59 908.99,-18.84"/>
<polygon fill="black" stroke="black" points="908.81,-15.34 898.8,-18.81 908.79,-22.34 908.81,-15.34"/>
</g>
<!-- r&#45;rxode -->
<g id="node27" class="node">
<title>r&#45;rxode</title>
<g id="a_node27"><a xlink:href="https://github.com/conda-forge/r-rxode-feedstock/pull/3" xlink:title="r rxode">
<ellipse fill="#31688e" stroke="black" cx="1773.26" cy="-162" rx="45" ry="18"/>
<text text-anchor="middle" x="1773.26" y="-158.3" font-family="Times,serif" font-size="14.00" fill="white">r rxode</text>
</a>
</g>
</g>
<!-- r&#45;rxode&#45;&gt;conda&#45;forge&#45;pinning -->
<g id="edge51" class="edge">
<title>r&#45;rxode&#45;&gt;conda&#45;forge&#45;pinning</title>
<path fill="none" stroke="black" d="M1761.04,-144.66C1743.18,-121.27 1710.2,-80.16 1693.26,-72 1624.23,-38.76 1133.38,-25.34 907.95,-20.88"/>
<polygon fill="black" stroke="black" points="907.81,-17.38 897.75,-20.68 907.68,-24.38 907.81,-17.38"/>
</g>
<!-- r&#45;nlmixr -->
<g id="node28" class="node">
<title>r&#45;nlmixr</title>
<g id="a_node28"><a xlink:href="https://github.com/conda-forge/r-nlmixr-feedstock" xlink:title="r nlmixr">
<ellipse fill="#fde725" stroke="black" cx="1795.26" cy="-90" rx="50.09" ry="18"/>
<text text-anchor="middle" x="1795.26" y="-86.3" font-family="Times,serif" font-size="14.00">r nlmixr</text>
</a>
</g>
</g>
<!-- r&#45;rxode&#45;&gt;r&#45;nlmixr -->
<g id="edge52" class="edge">
<title>r&#45;rxode&#45;&gt;r&#45;nlmixr</title>
<path fill="none" stroke="black" d="M1778.58,-144.05C1781.03,-136.26 1784,-126.82 1786.75,-118.08"/>
<polygon fill="black" stroke="black" points="1790.17,-118.86 1789.83,-108.28 1783.49,-116.77 1790.17,-118.86"/>
</g>
<!-- r&#45;nlmixr&#45;&gt;conda&#45;forge&#45;pinning -->
<g id="edge53" class="edge">
<title>r&#45;nlmixr&#45;&gt;conda&#45;forge&#45;pinning</title>
<path fill="none" stroke="black" d="M1758.31,-77.82C1749.51,-75.54 1740.11,-73.41 1731.26,-72 1437.4,-25.15 1085.88,-18.19 908.93,-18.03"/>
<polygon fill="black" stroke="black" points="908.83,-14.53 898.83,-18.03 908.83,-21.53 908.83,-14.53"/>
</g>
</g>
</svg>
