<?xml version="1.0" encoding="UTF-8" standalone="no"?>
<!DOCTYPE svg PUBLIC "-//W3C//DTD SVG 1.1//EN"
 "http://www.w3.org/Graphics/SVG/1.1/DTD/svg11.dtd">
<!-- Generated by graphviz version 2.42.3 (20191010.1750)
 -->
<!-- Title: %3 Pages: 1 -->
<svg width="2392pt" height="476pt"
 viewBox="0.00 0.00 2391.90 476.00" xmlns="http://www.w3.org/2000/svg" xmlns:xlink="http://www.w3.org/1999/xlink">
<g id="graph0" class="graph" transform="scale(1 1) rotate(0) translate(4 472)">
<title>%3</title>
<polygon fill="white" stroke="transparent" points="-4,4 -4,-472 2387.9,-472 2387.9,4 -4,4"/>
<!-- r&#45;fst -->
<g id="node1" class="node">
<title>r&#45;fst</title>
<g id="a_node1"><a xlink:href="https://github.com/conda-forge/r-fst-feedstock/pull/11" xlink:title="r fst">
<ellipse fill="#31688e" stroke="black" cx="38.4" cy="-162" rx="35.19" ry="18"/>
<text text-anchor="middle" x="38.4" y="-158.3" font-family="Times,serif" font-size="14.00" fill="white">r fst</text>
</a>
</g>
</g>
<!-- r&#45;disk.frame -->
<g id="node2" class="node">
<title>r&#45;disk.frame</title>
<g id="a_node2"><a xlink:href="https://github.com/conda-forge/r-disk.frame-feedstock" xlink:title="r disk frame">
<ellipse fill="#fde725" stroke="black" cx="87.4" cy="-90" rx="69.59" ry="18"/>
<text text-anchor="middle" x="87.4" y="-86.3" font-family="Times,serif" font-size="14.00">r disk frame</text>
</a>
</g>
</g>
<!-- r&#45;fst&#45;&gt;r&#45;disk.frame -->
<g id="edge1" class="edge">
<title>r&#45;fst&#45;&gt;r&#45;disk.frame</title>
<path fill="none" stroke="black" d="M49.77,-144.76C55.66,-136.35 62.98,-125.89 69.6,-116.44"/>
<polygon fill="black" stroke="black" points="72.55,-118.32 75.42,-108.12 66.81,-114.31 72.55,-118.32"/>
</g>
<!-- conda&#45;forge&#45;pinning -->
<g id="node3" class="node">
<title>conda&#45;forge&#45;pinning</title>
<ellipse fill="none" stroke="black" cx="1202.4" cy="-18" rx="103.5" ry="18"/>
<text text-anchor="middle" x="1202.4" y="-14.3" font-family="Times,serif" font-size="14.00">conda&#45;forge&#45;pinning</text>
</g>
<!-- r&#45;fst&#45;&gt;conda&#45;forge&#45;pinning -->
<g id="edge2" class="edge">
<title>r&#45;fst&#45;&gt;conda&#45;forge&#45;pinning</title>
<path fill="none" stroke="black" d="M24.57,-145.09C9.22,-125.48 -10.98,-92.27 8.4,-72 45.39,-33.33 798.19,-22.57 1089.07,-19.85"/>
<polygon fill="black" stroke="black" points="1089.25,-23.34 1099.22,-19.75 1089.19,-16.34 1089.25,-23.34"/>
</g>
<!-- r&#45;disk.frame&#45;&gt;conda&#45;forge&#45;pinning -->
<g id="edge3" class="edge">
<title>r&#45;disk.frame&#45;&gt;conda&#45;forge&#45;pinning</title>
<path fill="none" stroke="black" d="M137.84,-77.53C148.85,-75.38 160.48,-73.38 171.4,-72 502.88,-30.17 898.29,-21.16 1088.76,-19.35"/>
<polygon fill="black" stroke="black" points="1088.82,-22.85 1098.79,-19.26 1088.76,-15.85 1088.82,-22.85"/>
</g>
<!-- r&#45;hive -->
<g id="node4" class="node">
<title>r&#45;hive</title>
<g id="a_node4"><a xlink:href="https://github.com/conda-forge/r-hive-feedstock" xlink:title="r hive">
<ellipse fill="#fde725" stroke="black" cx="1309.4" cy="-234" rx="40.5" ry="18"/>
<text text-anchor="middle" x="1309.4" y="-230.3" font-family="Times,serif" font-size="14.00">r hive</text>
</a>
</g>
</g>
<!-- r&#45;hive&#45;&gt;conda&#45;forge&#45;pinning -->
<g id="edge4" class="edge">
<title>r&#45;hive&#45;&gt;conda&#45;forge&#45;pinning</title>
<path fill="none" stroke="black" d="M1306.19,-215.94C1299.89,-185.32 1283.86,-119.77 1254.4,-72 1247.86,-61.39 1238.85,-51.24 1230.16,-42.71"/>
<polygon fill="black" stroke="black" points="1232.35,-39.97 1222.67,-35.66 1227.55,-45.06 1232.35,-39.97"/>
</g>
<!-- r&#45;rjava -->
<g id="node5" class="node">
<title>r&#45;rjava</title>
<g id="a_node5"><a xlink:href="https://github.com/conda-forge/r-rjava-feedstock" xlink:title="r rjava">
<ellipse fill="#35b779" stroke="black" cx="857.4" cy="-450" rx="45" ry="18"/>
<text text-anchor="middle" x="857.4" y="-446.3" font-family="Times,serif" font-size="14.00">r rjava</text>
</a>
</g>
</g>
<!-- r&#45;rjava&#45;&gt;conda&#45;forge&#45;pinning -->
<g id="edge5" class="edge">
<title>r&#45;rjava&#45;&gt;conda&#45;forge&#45;pinning</title>
<path fill="none" stroke="black" d="M902.13,-446.97C1014,-441.47 1299.24,-424.75 1330.4,-396 1389.91,-341.1 1378.71,-294.37 1358.4,-216 1340.04,-145.13 1327.47,-126.34 1278.4,-72 1267.72,-60.17 1253.91,-49.55 1241,-40.98"/>
<polygon fill="black" stroke="black" points="1242.57,-37.83 1232.26,-35.39 1238.8,-43.73 1242.57,-37.83"/>
</g>
<!-- r&#45;rjava&#45;&gt;r&#45;hive -->
<g id="edge6" class="edge">
<title>r&#45;rjava&#45;&gt;r&#45;hive</title>
<path fill="none" stroke="black" d="M901.84,-447.04C1010.08,-441.81 1280.53,-425.85 1307.4,-396 1340.34,-359.41 1328.91,-296.97 1318.56,-261.56"/>
<polygon fill="black" stroke="black" points="1321.88,-260.43 1315.57,-251.92 1315.19,-262.5 1321.88,-260.43"/>
</g>
<!-- r&#45;xlsx -->
<g id="node6" class="node">
<title>r&#45;xlsx</title>
<g id="a_node6"><a xlink:href="https://github.com/conda-forge/r-xlsx-feedstock" xlink:title="r xlsx">
<ellipse fill="#fde725" stroke="black" cx="441.4" cy="-306" rx="40.5" ry="18"/>
<text text-anchor="middle" x="441.4" y="-302.3" font-family="Times,serif" font-size="14.00">r xlsx</text>
</a>
</g>
</g>
<!-- r&#45;rjava&#45;&gt;r&#45;xlsx -->
<g id="edge7" class="edge">
<title>r&#45;rjava&#45;&gt;r&#45;xlsx</title>
<path fill="none" stroke="black" d="M812.99,-447.05C728.54,-442.61 548.67,-429.42 497.4,-396 474.8,-381.26 459.63,-353.87 450.84,-333.36"/>
<polygon fill="black" stroke="black" points="454.02,-331.89 447.04,-323.92 447.53,-334.5 454.02,-331.89"/>
</g>
<!-- r&#45;xlsxjars -->
<g id="node7" class="node">
<title>r&#45;xlsxjars</title>
<g id="a_node7"><a xlink:href="https://github.com/conda-forge/r-xlsxjars-feedstock" xlink:title="r xlsxjars">
<ellipse fill="#fde725" stroke="black" cx="385.4" cy="-378" rx="60" ry="18"/>
<text text-anchor="middle" x="385.4" y="-374.3" font-family="Times,serif" font-size="14.00">r xlsxjars</text>
</a>
</g>
</g>
<!-- r&#45;rjava&#45;&gt;r&#45;xlsxjars -->
<g id="edge8" class="edge">
<title>r&#45;rjava&#45;&gt;r&#45;xlsxjars</title>
<path fill="none" stroke="black" d="M814.2,-444.59C740.91,-436.8 587.67,-419.22 459.4,-396 453.19,-394.88 446.71,-393.58 440.28,-392.21"/>
<polygon fill="black" stroke="black" points="440.78,-388.73 430.27,-390.01 439.29,-395.57 440.78,-388.73"/>
</g>
<!-- r&#45;xlconnectjars -->
<g id="node8" class="node">
<title>r&#45;xlconnectjars</title>
<g id="a_node8"><a xlink:href="https://github.com/conda-forge/r-xlconnectjars-feedstock" xlink:title="r xlconnectjars">
<ellipse fill="#fde725" stroke="black" cx="185.4" cy="-378" rx="84" ry="18"/>
<text text-anchor="middle" x="185.4" y="-374.3" font-family="Times,serif" font-size="14.00">r xlconnectjars</text>
</a>
</g>
</g>
<!-- r&#45;rjava&#45;&gt;r&#45;xlconnectjars -->
<g id="edge9" class="edge">
<title>r&#45;rjava&#45;&gt;r&#45;xlconnectjars</title>
<path fill="none" stroke="black" d="M813.34,-446.13C716.97,-439.6 480.33,-422.13 283.4,-396 274.7,-394.84 265.58,-393.48 256.56,-392.03"/>
<polygon fill="black" stroke="black" points="256.89,-388.53 246.45,-390.36 255.75,-395.44 256.89,-388.53"/>
</g>
<!-- r&#45;xlconnect -->
<g id="node9" class="node">
<title>r&#45;xlconnect</title>
<g id="a_node9"><a xlink:href="https://github.com/conda-forge/r-xlconnect-feedstock" xlink:title="r xlconnect">
<ellipse fill="#fde725" stroke="black" cx="278.4" cy="-306" rx="64.5" ry="18"/>
<text text-anchor="middle" x="278.4" y="-302.3" font-family="Times,serif" font-size="14.00">r xlconnect</text>
</a>
</g>
</g>
<!-- r&#45;rjava&#45;&gt;r&#45;xlconnect -->
<g id="edge10" class="edge">
<title>r&#45;rjava&#45;&gt;r&#45;xlconnect</title>
<path fill="none" stroke="black" d="M812.54,-447.21C689.99,-441.95 356.08,-425.08 316.4,-396 296.67,-381.54 287.09,-354.73 282.5,-334.3"/>
<polygon fill="black" stroke="black" points="285.9,-333.44 280.52,-324.3 279.03,-334.79 285.9,-333.44"/>
</g>
<!-- r&#45;rcdklibs -->
<g id="node10" class="node">
<title>r&#45;rcdklibs</title>
<g id="a_node10"><a xlink:href="https://github.com/conda-forge/r-rcdklibs-feedstock" xlink:title="r rcdklibs">
<ellipse fill="#fde725" stroke="black" cx="626.4" cy="-378" rx="60" ry="18"/>
<text text-anchor="middle" x="626.4" y="-374.3" font-family="Times,serif" font-size="14.00">r rcdklibs</text>
</a>
</g>
</g>
<!-- r&#45;rjava&#45;&gt;r&#45;rcdklibs -->
<g id="edge11" class="edge">
<title>r&#45;rjava&#45;&gt;r&#45;rcdklibs</title>
<path fill="none" stroke="black" d="M822.57,-438.44C783.78,-426.69 720.76,-407.59 676.64,-394.22"/>
<polygon fill="black" stroke="black" points="677.56,-390.85 666.98,-391.29 675.53,-397.54 677.56,-390.85"/>
</g>
<!-- r&#45;rcdk -->
<g id="node11" class="node">
<title>r&#45;rcdk</title>
<g id="a_node11"><a xlink:href="https://github.com/conda-forge/r-rcdk-feedstock" xlink:title="r rcdk">
<ellipse fill="#fde725" stroke="black" cx="626.4" cy="-306" rx="40.5" ry="18"/>
<text text-anchor="middle" x="626.4" y="-302.3" font-family="Times,serif" font-size="14.00">r rcdk</text>
</a>
</g>
</g>
<!-- r&#45;rjava&#45;&gt;r&#45;rcdk -->
<g id="edge12" class="edge">
<title>r&#45;rjava&#45;&gt;r&#45;rcdk</title>
<path fill="none" stroke="black" d="M833.98,-434.6C792.17,-408.9 704.68,-355.12 657.75,-326.27"/>
<polygon fill="black" stroke="black" points="659.55,-323.27 649.2,-321.01 655.89,-329.23 659.55,-323.27"/>
</g>
<!-- r&#45;rchoicedialogs -->
<g id="node12" class="node">
<title>r&#45;rchoicedialogs</title>
<g id="a_node12"><a xlink:href="https://github.com/conda-forge/r-rchoicedialogs-feedstock" xlink:title="r rchoicedialogs">
<ellipse fill="#fde725" stroke="black" cx="685.4" cy="-234" rx="89.08" ry="18"/>
<text text-anchor="middle" x="685.4" y="-230.3" font-family="Times,serif" font-size="14.00">r rchoicedialogs</text>
</a>
</g>
</g>
<!-- r&#45;rjava&#45;&gt;r&#45;rchoicedialogs -->
<g id="edge13" class="edge">
<title>r&#45;rjava&#45;&gt;r&#45;rchoicedialogs</title>
<path fill="none" stroke="black" d="M844.19,-432.56C814.26,-395.32 741.13,-304.33 705.53,-260.04"/>
<polygon fill="black" stroke="black" points="708.13,-257.69 699.14,-252.09 702.67,-262.07 708.13,-257.69"/>
</g>
<!-- r&#45;rwekajars -->
<g id="node13" class="node">
<title>r&#45;rwekajars</title>
<g id="a_node13"><a xlink:href="https://github.com/conda-forge/r-rwekajars-feedstock" xlink:title="r rwekajars">
<ellipse fill="#fde725" stroke="black" cx="857.4" cy="-234" rx="64.5" ry="18"/>
<text text-anchor="middle" x="857.4" y="-230.3" font-family="Times,serif" font-size="14.00">r rwekajars</text>
</a>
</g>
</g>
<!-- r&#45;rjava&#45;&gt;r&#45;rwekajars -->
<g id="edge14" class="edge">
<title>r&#45;rjava&#45;&gt;r&#45;rwekajars</title>
<path fill="none" stroke="black" d="M857.4,-431.85C857.4,-394.83 857.4,-307.18 857.4,-262.39"/>
<polygon fill="black" stroke="black" points="860.9,-262.23 857.4,-252.23 853.9,-262.23 860.9,-262.23"/>
</g>
<!-- r&#45;rweka -->
<g id="node14" class="node">
<title>r&#45;rweka</title>
<g id="a_node14"><a xlink:href="https://github.com/conda-forge/r-rweka-feedstock" xlink:title="r rweka">
<ellipse fill="#fde725" stroke="black" cx="896.4" cy="-162" rx="45" ry="18"/>
<text text-anchor="middle" x="896.4" y="-158.3" font-family="Times,serif" font-size="14.00">r rweka</text>
</a>
</g>
</g>
<!-- r&#45;rjava&#45;&gt;r&#45;rweka -->
<g id="edge15" class="edge">
<title>r&#45;rjava&#45;&gt;r&#45;rweka</title>
<path fill="none" stroke="black" d="M865.98,-432.19C882.43,-398.87 917.91,-321.65 930.4,-252 933.23,-236.25 934.9,-231.35 930.4,-216 927.48,-206.03 922.05,-196.17 916.36,-187.7"/>
<polygon fill="black" stroke="black" points="919.12,-185.53 910.45,-179.43 913.42,-189.6 919.12,-185.53"/>
</g>
<!-- r&#45;subspace -->
<g id="node15" class="node">
<title>r&#45;subspace</title>
<g id="a_node15"><a xlink:href="https://github.com/conda-forge/r-subspace-feedstock" xlink:title="r subspace">
<ellipse fill="#fde725" stroke="black" cx="1038.4" cy="-234" rx="60" ry="18"/>
<text text-anchor="middle" x="1038.4" y="-230.3" font-family="Times,serif" font-size="14.00">r subspace</text>
</a>
</g>
</g>
<!-- r&#45;rjava&#45;&gt;r&#45;subspace -->
<g id="edge16" class="edge">
<title>r&#45;rjava&#45;&gt;r&#45;subspace</title>
<path fill="none" stroke="black" d="M892.53,-438.58C915.48,-430.23 944.74,-416.5 964.4,-396 1000.76,-358.09 990.17,-335.59 1012.4,-288 1016.5,-279.23 1021.11,-269.72 1025.31,-261.2"/>
<polygon fill="black" stroke="black" points="1028.51,-262.62 1029.81,-252.11 1022.23,-259.52 1028.51,-262.62"/>
</g>
<!-- r&#45;rmcfs -->
<g id="node16" class="node">
<title>r&#45;rmcfs</title>
<g id="a_node16"><a xlink:href="https://github.com/conda-forge/r-rmcfs-feedstock" xlink:title="r rmcfs">
<ellipse fill="#fde725" stroke="black" cx="1091.4" cy="-162" rx="45" ry="18"/>
<text text-anchor="middle" x="1091.4" y="-158.3" font-family="Times,serif" font-size="14.00">r rmcfs</text>
</a>
</g>
</g>
<!-- r&#45;rjava&#45;&gt;r&#45;rmcfs -->
<g id="edge17" class="edge">
<title>r&#45;rjava&#45;&gt;r&#45;rmcfs</title>
<path fill="none" stroke="black" d="M896.71,-441.06C925.65,-433.55 964.5,-419.77 991.4,-396 1032.39,-359.78 1012.97,-327.88 1050.4,-288 1070.91,-266.15 1092.94,-278.24 1107.4,-252 1118.07,-232.65 1112.17,-207.69 1104.7,-189.12"/>
<polygon fill="black" stroke="black" points="1107.84,-187.55 1100.61,-179.8 1101.43,-190.37 1107.84,-187.55"/>
</g>
<!-- r&#45;rjdbc -->
<g id="node17" class="node">
<title>r&#45;rjdbc</title>
<g id="a_node17"><a xlink:href="https://github.com/conda-forge/r-rjdbc-feedstock" xlink:title="r rjdbc">
<ellipse fill="#fde725" stroke="black" cx="1129.4" cy="-90" rx="45" ry="18"/>
<text text-anchor="middle" x="1129.4" y="-86.3" font-family="Times,serif" font-size="14.00">r rjdbc</text>
</a>
</g>
</g>
<!-- r&#45;rjava&#45;&gt;r&#45;rjdbc -->
<g id="edge18" class="edge">
<title>r&#45;rjava&#45;&gt;r&#45;rjdbc</title>
<path fill="none" stroke="black" d="M899.61,-443.43C934.56,-437 983.9,-423.53 1018.4,-396 1062.19,-361.06 1047.48,-330.99 1083.4,-288 1098.95,-269.39 1111.38,-272.45 1124.4,-252 1142.31,-223.88 1140.69,-213 1145.4,-180 1147.67,-164.16 1147.74,-159.83 1145.4,-144 1144.11,-135.21 1141.66,-125.86 1139.06,-117.5"/>
<polygon fill="black" stroke="black" points="1142.35,-116.29 1135.89,-107.9 1135.7,-118.49 1142.35,-116.29"/>
</g>
<!-- r&#45;tabulizer -->
<g id="node18" class="node">
<title>r&#45;tabulizer</title>
<g id="a_node18"><a xlink:href="https://github.com/conda-forge/r-tabulizer-feedstock" xlink:title="r tabulizer">
<ellipse fill="#fde725" stroke="black" cx="1157.4" cy="-306" rx="64.5" ry="18"/>
<text text-anchor="middle" x="1157.4" y="-302.3" font-family="Times,serif" font-size="14.00">r tabulizer</text>
</a>
</g>
</g>
<!-- r&#45;rjava&#45;&gt;r&#45;tabulizer -->
<g id="edge19" class="edge">
<title>r&#45;rjava&#45;&gt;r&#45;tabulizer</title>
<path fill="none" stroke="black" d="M901.44,-446.23C948.27,-441.59 1023.08,-429.17 1078.4,-396 1104.8,-380.17 1127.22,-352.63 1141.36,-332.37"/>
<polygon fill="black" stroke="black" points="1144.38,-334.16 1147.08,-323.91 1138.58,-330.23 1144.38,-334.16"/>
</g>
<!-- r&#45;tabulizerjars -->
<g id="node19" class="node">
<title>r&#45;tabulizerjars</title>
<g id="a_node19"><a xlink:href="https://github.com/conda-forge/r-tabulizerjars-feedstock" xlink:title="r tabulizerjars">
<ellipse fill="#fde725" stroke="black" cx="1214.4" cy="-378" rx="84" ry="18"/>
<text text-anchor="middle" x="1214.4" y="-374.3" font-family="Times,serif" font-size="14.00">r tabulizerjars</text>
</a>
</g>
</g>
<!-- r&#45;rjava&#45;&gt;r&#45;tabulizerjars -->
<g id="edge20" class="edge">
<title>r&#45;rjava&#45;&gt;r&#45;tabulizerjars</title>
<path fill="none" stroke="black" d="M896.97,-441.24C956.7,-429.53 1070.75,-407.17 1144.64,-392.68"/>
<polygon fill="black" stroke="black" points="1145.65,-396.05 1154.79,-390.69 1144.31,-389.18 1145.65,-396.05"/>
</g>
<!-- r&#45;destinie -->
<g id="node20" class="node">
<title>r&#45;destinie</title>
<g id="a_node20"><a xlink:href="https://github.com/conda-forge/r-destinie-feedstock" xlink:title="r destinie">
<ellipse fill="#fde725" stroke="black" cx="442.4" cy="-234" rx="60" ry="18"/>
<text text-anchor="middle" x="442.4" y="-230.3" font-family="Times,serif" font-size="14.00">r destinie</text>
</a>
</g>
</g>
<!-- r&#45;rjava&#45;&gt;r&#45;destinie -->
<g id="edge21" class="edge">
<title>r&#45;rjava&#45;&gt;r&#45;destinie</title>
<path fill="none" stroke="black" d="M813.57,-445.64C740.69,-439.35 598.52,-423.84 557.4,-396 510.63,-364.33 524.39,-333.12 490.4,-288 482.89,-278.03 473.88,-267.72 465.7,-258.87"/>
<polygon fill="black" stroke="black" points="468.18,-256.4 458.78,-251.51 463.08,-261.19 468.18,-256.4"/>
</g>
<!-- r&#45;xlsx&#45;&gt;conda&#45;forge&#45;pinning -->
<g id="edge22" class="edge">
<title>r&#45;xlsx&#45;&gt;conda&#45;forge&#45;pinning</title>
<path fill="none" stroke="black" d="M415.1,-292.24C399.88,-283.29 382.07,-269.75 373.4,-252 366.38,-237.62 368.38,-231.19 373.4,-216 398.45,-140.3 410.53,-110.4 480.4,-72 532.45,-43.39 901.26,-28.14 1090.69,-22.11"/>
<polygon fill="black" stroke="black" points="1091.07,-25.6 1100.96,-21.79 1090.85,-18.6 1091.07,-25.6"/>
</g>
<!-- r&#45;xlsx&#45;&gt;r&#45;destinie -->
<g id="edge23" class="edge">
<title>r&#45;xlsx&#45;&gt;r&#45;destinie</title>
<path fill="none" stroke="black" d="M441.65,-287.7C441.76,-279.98 441.89,-270.71 442.02,-262.11"/>
<polygon fill="black" stroke="black" points="445.52,-262.15 442.16,-252.1 438.52,-262.05 445.52,-262.15"/>
</g>
<!-- r&#45;xlsxjars&#45;&gt;conda&#45;forge&#45;pinning -->
<g id="edge24" class="edge">
<title>r&#45;xlsxjars&#45;&gt;conda&#45;forge&#45;pinning</title>
<path fill="none" stroke="black" d="M380.46,-359.85C365.68,-304.59 328.64,-131.29 426.4,-72 481.68,-38.47 888.56,-25.45 1090.02,-21.01"/>
<polygon fill="black" stroke="black" points="1090.13,-24.51 1100.05,-20.79 1089.97,-17.51 1090.13,-24.51"/>
</g>
<!-- r&#45;xlsxjars&#45;&gt;r&#45;xlsx -->
<g id="edge25" class="edge">
<title>r&#45;xlsxjars&#45;&gt;r&#45;xlsx</title>
<path fill="none" stroke="black" d="M398.67,-360.41C405.58,-351.78 414.15,-341.06 421.81,-331.5"/>
<polygon fill="black" stroke="black" points="424.71,-333.47 428.23,-323.47 419.25,-329.09 424.71,-333.47"/>
</g>
<!-- r&#45;xlconnectjars&#45;&gt;conda&#45;forge&#45;pinning -->
<g id="edge26" class="edge">
<title>r&#45;xlconnectjars&#45;&gt;conda&#45;forge&#45;pinning</title>
<path fill="none" stroke="black" d="M185.4,-359.95C185.4,-333.29 185.4,-280.11 185.4,-235 185.4,-235 185.4,-235 185.4,-161 185.4,-104.74 224,-94.86 275.4,-72 348.01,-39.71 858.79,-25.72 1089.62,-20.99"/>
<polygon fill="black" stroke="black" points="1089.8,-24.49 1099.73,-20.79 1089.66,-17.49 1089.8,-24.49"/>
</g>
<!-- r&#45;xlconnectjars&#45;&gt;r&#45;xlconnect -->
<g id="edge27" class="edge">
<title>r&#45;xlconnectjars&#45;&gt;r&#45;xlconnect</title>
<path fill="none" stroke="black" d="M207.44,-360.41C219.81,-351.1 235.4,-339.37 248.82,-329.27"/>
<polygon fill="black" stroke="black" points="250.96,-332.04 256.84,-323.23 246.75,-326.45 250.96,-332.04"/>
</g>
<!-- r&#45;xlconnect&#45;&gt;conda&#45;forge&#45;pinning -->
<g id="edge28" class="edge">
<title>r&#45;xlconnect&#45;&gt;conda&#45;forge&#45;pinning</title>
<path fill="none" stroke="black" d="M273.71,-287.81C263.02,-244.38 242.18,-129.64 302.4,-72 330.45,-45.16 855.72,-28.08 1090.57,-21.76"/>
<polygon fill="black" stroke="black" points="1090.94,-25.25 1100.85,-21.49 1090.76,-18.26 1090.94,-25.25"/>
</g>
<!-- r&#45;rcdklibs&#45;&gt;conda&#45;forge&#45;pinning -->
<g id="edge29" class="edge">
<title>r&#45;rcdklibs&#45;&gt;conda&#45;forge&#45;pinning</title>
<path fill="none" stroke="black" d="M605.11,-361.11C594.3,-351.68 582.24,-338.7 576.4,-324 571.14,-310.76 576.09,-237.85 580.4,-216 595.79,-138.03 613.66,-104 686.4,-72 756.58,-41.12 961.66,-27.87 1091.15,-22.46"/>
<polygon fill="black" stroke="black" points="1091.66,-25.95 1101.5,-22.04 1091.37,-18.95 1091.66,-25.95"/>
</g>
<!-- r&#45;rcdklibs&#45;&gt;r&#45;rcdk -->
<g id="edge30" class="edge">
<title>r&#45;rcdklibs&#45;&gt;r&#45;rcdk</title>
<path fill="none" stroke="black" d="M626.4,-359.7C626.4,-351.98 626.4,-342.71 626.4,-334.11"/>
<polygon fill="black" stroke="black" points="629.9,-334.1 626.4,-324.1 622.9,-334.1 629.9,-334.1"/>
</g>
<!-- r&#45;rcdk&#45;&gt;conda&#45;forge&#45;pinning -->
<g id="edge31" class="edge">
<title>r&#45;rcdk&#45;&gt;conda&#45;forge&#45;pinning</title>
<path fill="none" stroke="black" d="M610.76,-289.06C595.13,-271.1 575.07,-241.14 587.4,-216 633.44,-122.14 676.74,-111.83 773.4,-72 830.03,-48.66 988.87,-33.54 1096.54,-25.64"/>
<polygon fill="black" stroke="black" points="1097.08,-29.11 1106.8,-24.9 1096.57,-22.13 1097.08,-29.11"/>
</g>
<!-- r&#45;rchoicedialogs&#45;&gt;conda&#45;forge&#45;pinning -->
<g id="edge32" class="edge">
<title>r&#45;rchoicedialogs&#45;&gt;conda&#45;forge&#45;pinning</title>
<path fill="none" stroke="black" d="M694.2,-216.06C712.78,-182.22 759.51,-106.54 822.4,-72 868.15,-46.88 1000.28,-32.65 1095.89,-25.4"/>
<polygon fill="black" stroke="black" points="1096.19,-28.89 1105.9,-24.65 1095.67,-21.9 1096.19,-28.89"/>
</g>
<!-- r&#45;rwekajars&#45;&gt;conda&#45;forge&#45;pinning -->
<g id="edge33" class="edge">
<title>r&#45;rwekajars&#45;&gt;conda&#45;forge&#45;pinning</title>
<path fill="none" stroke="black" d="M848.53,-216C833.05,-183.7 805.96,-113.02 841.4,-72 873.02,-35.4 995.34,-23.61 1088.92,-20.05"/>
<polygon fill="black" stroke="black" points="1089.16,-23.54 1099.03,-19.69 1088.91,-16.55 1089.16,-23.54"/>
</g>
<!-- r&#45;rwekajars&#45;&gt;r&#45;rweka -->
<g id="edge34" class="edge">
<title>r&#45;rwekajars&#45;&gt;r&#45;rweka</title>
<path fill="none" stroke="black" d="M866.84,-216.05C871.44,-207.8 877.07,-197.7 882.17,-188.54"/>
<polygon fill="black" stroke="black" points="885.24,-190.23 887.05,-179.79 879.12,-186.82 885.24,-190.23"/>
</g>
<!-- r&#45;rweka&#45;&gt;conda&#45;forge&#45;pinning -->
<g id="edge35" class="edge">
<title>r&#45;rweka&#45;&gt;conda&#45;forge&#45;pinning</title>
<path fill="none" stroke="black" d="M878.08,-145.17C858.35,-126.24 832.21,-94.31 851.4,-72 881.77,-36.71 998.55,-24.61 1089.17,-20.63"/>
<polygon fill="black" stroke="black" points="1089.39,-24.12 1099.24,-20.21 1089.11,-17.13 1089.39,-24.12"/>
</g>
<!-- r&#45;fselector -->
<g id="node21" class="node">
<title>r&#45;fselector</title>
<g id="a_node21"><a xlink:href="https://github.com/conda-forge/r-fselector-feedstock" xlink:title="r fselector">
<ellipse fill="#fde725" stroke="black" cx="925.4" cy="-90" rx="64.5" ry="18"/>
<text text-anchor="middle" x="925.4" y="-86.3" font-family="Times,serif" font-size="14.00">r fselector</text>
</a>
</g>
</g>
<!-- r&#45;rweka&#45;&gt;r&#45;fselector -->
<g id="edge36" class="edge">
<title>r&#45;rweka&#45;&gt;r&#45;fselector</title>
<path fill="none" stroke="black" d="M903.42,-144.05C906.69,-136.18 910.65,-126.62 914.3,-117.79"/>
<polygon fill="black" stroke="black" points="917.65,-118.85 918.25,-108.28 911.18,-116.17 917.65,-118.85"/>
</g>
<!-- r&#45;subspace&#45;&gt;conda&#45;forge&#45;pinning -->
<g id="edge37" class="edge">
<title>r&#45;subspace&#45;&gt;conda&#45;forge&#45;pinning</title>
<path fill="none" stroke="black" d="M1035.5,-215.82C1031.03,-182.9 1026.59,-110.74 1065.4,-72 1082.46,-54.97 1105.59,-43.3 1127.99,-35.34"/>
<polygon fill="black" stroke="black" points="1129.15,-38.64 1137.52,-32.15 1126.93,-32 1129.15,-38.64"/>
</g>
<!-- r&#45;rmcfs&#45;&gt;conda&#45;forge&#45;pinning -->
<g id="edge38" class="edge">
<title>r&#45;rmcfs&#45;&gt;conda&#45;forge&#45;pinning</title>
<path fill="none" stroke="black" d="M1081.67,-144.12C1072.1,-125.04 1060.87,-93.82 1075.4,-72 1086.96,-54.66 1105.38,-42.98 1124.65,-35.12"/>
<polygon fill="black" stroke="black" points="1126.02,-38.35 1134.16,-31.56 1123.56,-31.79 1126.02,-38.35"/>
</g>
<!-- r&#45;rjdbc&#45;&gt;conda&#45;forge&#45;pinning -->
<g id="edge39" class="edge">
<title>r&#45;rjdbc&#45;&gt;conda&#45;forge&#45;pinning</title>
<path fill="none" stroke="black" d="M1145.97,-73.12C1155.31,-64.16 1167.17,-52.79 1177.6,-42.79"/>
<polygon fill="black" stroke="black" points="1180.09,-45.24 1184.89,-35.8 1175.25,-40.19 1180.09,-45.24"/>
</g>
<!-- r&#45;tabulizer&#45;&gt;conda&#45;forge&#45;pinning -->
<g id="edge40" class="edge">
<title>r&#45;tabulizer&#45;&gt;conda&#45;forge&#45;pinning</title>
<path fill="none" stroke="black" d="M1165.64,-287.73C1170.14,-277.56 1175.39,-264.31 1178.4,-252 1196.22,-179.17 1200.82,-90.39 1202,-46.41"/>
<polygon fill="black" stroke="black" points="1205.51,-46.31 1202.23,-36.23 1198.51,-46.15 1205.51,-46.31"/>
</g>
<!-- r&#45;tabulizerjars&#45;&gt;conda&#45;forge&#45;pinning -->
<g id="edge41" class="edge">
<title>r&#45;tabulizerjars&#45;&gt;conda&#45;forge&#45;pinning</title>
<path fill="none" stroke="black" d="M1221.06,-359.63C1224.61,-349.42 1228.61,-336.17 1230.4,-324 1232.74,-308.17 1230.99,-303.99 1230.4,-288 1226.84,-191.8 1228.63,-167.21 1214.4,-72 1213.13,-63.47 1211.23,-54.28 1209.33,-45.98"/>
<polygon fill="black" stroke="black" points="1212.68,-44.97 1206.95,-36.06 1205.88,-46.6 1212.68,-44.97"/>
</g>
<!-- r&#45;tabulizerjars&#45;&gt;r&#45;tabulizer -->
<g id="edge42" class="edge">
<title>r&#45;tabulizerjars&#45;&gt;r&#45;tabulizer</title>
<path fill="none" stroke="black" d="M1200.6,-360.05C1193.67,-351.54 1185.14,-341.07 1177.5,-331.68"/>
<polygon fill="black" stroke="black" points="1180.1,-329.33 1171.07,-323.79 1174.67,-333.75 1180.1,-329.33"/>
</g>
<!-- r&#45;destinie&#45;&gt;conda&#45;forge&#45;pinning -->
<g id="edge43" class="edge">
<title>r&#45;destinie&#45;&gt;conda&#45;forge&#45;pinning</title>
<path fill="none" stroke="black" d="M444.62,-215.77C450.01,-181.76 467.18,-106.29 516.4,-72 562.27,-40.04 907.92,-26.48 1090.36,-21.5"/>
<polygon fill="black" stroke="black" points="1090.63,-25 1100.53,-21.23 1090.44,-18 1090.63,-25"/>
</g>
<!-- r&#45;fselector&#45;&gt;conda&#45;forge&#45;pinning -->
<g id="edge49" class="edge">
<title>r&#45;fselector&#45;&gt;conda&#45;forge&#45;pinning</title>
<path fill="none" stroke="black" d="M971.45,-77.36C1016.45,-65.99 1085.41,-48.56 1136.27,-35.71"/>
<polygon fill="black" stroke="black" points="1137.35,-39.05 1146.19,-33.21 1135.63,-32.26 1137.35,-39.05"/>
</g>
<!-- rpy2 -->
<g id="node22" class="node">
<title>rpy2</title>
<g id="a_node22"><a xlink:href="https://github.com/conda-forge/rpy2-feedstock/pull/55" xlink:title="rpy2">
<ellipse fill="#31688e" stroke="black" cx="1434.4" cy="-162" rx="30.59" ry="18"/>
<text text-anchor="middle" x="1434.4" y="-158.3" font-family="Times,serif" font-size="14.00" fill="white">rpy2</text>
</a>
</g>
</g>
<!-- rpy2&#45;&gt;conda&#45;forge&#45;pinning -->
<g id="edge44" class="edge">
<title>rpy2&#45;&gt;conda&#45;forge&#45;pinning</title>
<path fill="none" stroke="black" d="M1417.82,-146.83C1405.33,-136.16 1387.79,-121.17 1372.4,-108 1353.73,-92.01 1351.35,-84.86 1330.4,-72 1308.07,-58.29 1281.57,-46.65 1258.49,-37.8"/>
<polygon fill="black" stroke="black" points="1259.42,-34.42 1248.83,-34.19 1256.96,-40.97 1259.42,-34.42"/>
</g>
<!-- iterativewgcna -->
<g id="node23" class="node">
<title>iterativewgcna</title>
<g id="a_node23"><a xlink:href="https://github.com/conda-forge/iterativewgcna-feedstock" xlink:title="iterativewgcna">
<ellipse fill="#fde725" stroke="black" cx="1461.4" cy="-90" rx="79.5" ry="18"/>
<text text-anchor="middle" x="1461.4" y="-86.3" font-family="Times,serif" font-size="14.00">iterativewgcna</text>
</a>
</g>
</g>
<!-- rpy2&#45;&gt;iterativewgcna -->
<g id="edge45" class="edge">
<title>rpy2&#45;&gt;iterativewgcna</title>
<path fill="none" stroke="black" d="M1440.94,-144.05C1443.98,-136.18 1447.67,-126.62 1451.07,-117.79"/>
<polygon fill="black" stroke="black" points="1454.41,-118.86 1454.74,-108.28 1447.88,-116.35 1454.41,-118.86"/>
</g>
<!-- iterativewgcna&#45;&gt;conda&#45;forge&#45;pinning -->
<g id="edge46" class="edge">
<title>iterativewgcna&#45;&gt;conda&#45;forge&#45;pinning</title>
<path fill="none" stroke="black" d="M1412.38,-75.75C1370.85,-64.53 1311.01,-48.35 1265.83,-36.14"/>
<polygon fill="black" stroke="black" points="1266.7,-32.75 1256.14,-33.52 1264.88,-39.51 1266.7,-32.75"/>
</g>
<!-- r&#45;rvaidememoire -->
<g id="node24" class="node">
<title>r&#45;rvaidememoire</title>
<g id="a_node24"><a xlink:href="https://github.com/conda-forge/r-rvaidememoire-feedstock" xlink:title="r rvaidememoire">
<ellipse fill="#35b779" stroke="black" cx="1642.4" cy="-90" rx="84" ry="18"/>
<text text-anchor="middle" x="1642.4" y="-86.3" font-family="Times,serif" font-size="14.00">r rvaidememoire</text>
</a>
</g>
</g>
<!-- r&#45;rvaidememoire&#45;&gt;conda&#45;forge&#45;pinning -->
<g id="edge47" class="edge">
<title>r&#45;rvaidememoire&#45;&gt;conda&#45;forge&#45;pinning</title>
<path fill="none" stroke="black" d="M1581.42,-77.59C1570.76,-75.67 1559.76,-73.74 1549.4,-72 1461.04,-57.18 1359.72,-41.9 1289.48,-31.58"/>
<polygon fill="black" stroke="black" points="1289.75,-28.08 1279.34,-30.09 1288.73,-35.01 1289.75,-28.08"/>
</g>
<!-- r&#45;hiver -->
<g id="node25" class="node">
<title>r&#45;hiver</title>
<g id="a_node25"><a xlink:href="https://github.com/conda-forge/r-hiver-feedstock" xlink:title="r hiver">
<ellipse fill="#35b779" stroke="black" cx="1719.4" cy="-162" rx="45" ry="18"/>
<text text-anchor="middle" x="1719.4" y="-158.3" font-family="Times,serif" font-size="14.00">r hiver</text>
</a>
</g>
</g>
<!-- r&#45;hiver&#45;&gt;conda&#45;forge&#45;pinning -->
<g id="edge48" class="edge">
<title>r&#45;hiver&#45;&gt;conda&#45;forge&#45;pinning</title>
<path fill="none" stroke="black" d="M1729.67,-144.31C1740.38,-124.54 1753.32,-91.78 1735.4,-72 1707.68,-41.38 1461.71,-27.74 1313.79,-22.25"/>
<polygon fill="black" stroke="black" points="1313.87,-18.75 1303.75,-21.88 1313.61,-25.75 1313.87,-18.75"/>
</g>
<!-- r&#45;littler -->
<g id="node26" class="node">
<title>r&#45;littler</title>
<g id="a_node26"><a xlink:href="https://github.com/conda-forge/r-littler-feedstock/pull/2" xlink:title="r littler">
<ellipse fill="#31688e" stroke="black" cx="1792.4" cy="-234" rx="54.69" ry="18"/>
<text text-anchor="middle" x="1792.4" y="-230.3" font-family="Times,serif" font-size="14.00" fill="white">r littler</text>
</a>
</g>
</g>
<!-- r&#45;littler&#45;&gt;conda&#45;forge&#45;pinning -->
<g id="edge50" class="edge">
<title>r&#45;littler&#45;&gt;conda&#45;forge&#45;pinning</title>
<path fill="none" stroke="black" d="M1794.25,-215.85C1796.79,-182.31 1796.97,-108.17 1754.4,-72 1721.55,-44.08 1464.39,-29.29 1312.93,-22.92"/>
<polygon fill="black" stroke="black" points="1312.79,-19.41 1302.66,-22.49 1312.5,-26.4 1312.79,-19.41"/>
</g>
<!-- r&#45;rxode -->
<g id="node27" class="node">
<title>r&#45;rxode</title>
<g id="a_node27"><a xlink:href="https://github.com/conda-forge/r-rxode-feedstock/pull/3" xlink:title="r rxode">
<ellipse fill="#31688e" stroke="black" cx="1887.4" cy="-162" rx="45" ry="18"/>
<text text-anchor="middle" x="1887.4" y="-158.3" font-family="Times,serif" font-size="14.00" fill="white">r rxode</text>
</a>
</g>
</g>
<!-- r&#45;rxode&#45;&gt;conda&#45;forge&#45;pinning -->
<g id="edge51" class="edge">
<title>r&#45;rxode&#45;&gt;conda&#45;forge&#45;pinning</title>
<path fill="none" stroke="black" d="M1874.68,-144.33C1856.45,-120.96 1823.25,-80.35 1806.4,-72 1723.02,-30.69 1466.69,-21.16 1316.09,-19.22"/>
<polygon fill="black" stroke="black" points="1315.92,-15.72 1305.88,-19.1 1315.84,-22.72 1315.92,-15.72"/>
</g>
<!-- r&#45;nlmixr -->
<g id="node28" class="node">
<title>r&#45;nlmixr</title>
<g id="a_node28"><a xlink:href="https://github.com/conda-forge/r-nlmixr-feedstock" xlink:title="r nlmixr">
<ellipse fill="#fde725" stroke="black" cx="1908.4" cy="-90" rx="50.09" ry="18"/>
<text text-anchor="middle" x="1908.4" y="-86.3" font-family="Times,serif" font-size="14.00">r nlmixr</text>
</a>
</g>
</g>
<!-- r&#45;rxode&#45;&gt;r&#45;nlmixr -->
<g id="edge52" class="edge">
<title>r&#45;rxode&#45;&gt;r&#45;nlmixr</title>
<path fill="none" stroke="black" d="M1892.49,-144.05C1894.82,-136.26 1897.66,-126.82 1900.28,-118.08"/>
<polygon fill="black" stroke="black" points="1903.7,-118.86 1903.22,-108.28 1896.99,-116.85 1903.7,-118.86"/>
</g>
<!-- r&#45;nlmixr&#45;&gt;conda&#45;forge&#45;pinning -->
<g id="edge53" class="edge">
<title>r&#45;nlmixr&#45;&gt;conda&#45;forge&#45;pinning</title>
<path fill="none" stroke="black" d="M1871.08,-77.9C1862.39,-75.64 1853.13,-73.51 1844.4,-72 1660.11,-40.18 1442.65,-27.31 1313.99,-22.22"/>
<polygon fill="black" stroke="black" points="1313.86,-18.71 1303.74,-21.82 1313.59,-25.71 1313.86,-18.71"/>
</g>
<!-- r&#45;fftw -->
<g id="node29" class="node">
<title>r&#45;fftw</title>
<g id="a_node29"><a xlink:href="https://github.com/conda-forge/r-fftw-feedstock/pull/1" xlink:title="r fftw">
<ellipse fill="#31688e" stroke="black" cx="1955.4" cy="-306" rx="40.5" ry="18"/>
<text text-anchor="middle" x="1955.4" y="-302.3" font-family="Times,serif" font-size="14.00" fill="white">r fftw</text>
</a>
</g>
</g>
<!-- r&#45;fftw&#45;&gt;conda&#45;forge&#45;pinning -->
<g id="edge54" class="edge">
<title>r&#45;fftw&#45;&gt;conda&#45;forge&#45;pinning</title>
<path fill="none" stroke="black" d="M1963.39,-288.17C1982.28,-245.6 2024.05,-132.71 1967.4,-72 1923.97,-25.46 1518.39,-18.88 1316.06,-18.52"/>
<polygon fill="black" stroke="black" points="1316,-15.02 1305.99,-18.51 1315.99,-22.02 1316,-15.02"/>
</g>
<!-- r&#45;phylotate -->
<g id="node30" class="node">
<title>r&#45;phylotate</title>
<g id="a_node30"><a xlink:href="https://github.com/conda-forge/r-phylotate-feedstock/pull/1" xlink:title="r phylotate">
<ellipse fill="#31688e" stroke="black" cx="2024.4" cy="-378" rx="64.5" ry="18"/>
<text text-anchor="middle" x="2024.4" y="-374.3" font-family="Times,serif" font-size="14.00" fill="white">r phylotate</text>
</a>
</g>
</g>
<!-- r&#45;phylotate&#45;&gt;conda&#45;forge&#45;pinning -->
<g id="edge55" class="edge">
<title>r&#45;phylotate&#45;&gt;conda&#45;forge&#45;pinning</title>
<path fill="none" stroke="black" d="M2024.4,-359.95C2024.4,-333.29 2024.4,-280.11 2024.4,-235 2024.4,-235 2024.4,-235 2024.4,-161 2024.4,-118.97 2025.96,-97.32 1992.4,-72 1939.73,-32.26 1521.65,-22.32 1315.94,-19.83"/>
<polygon fill="black" stroke="black" points="1315.74,-16.33 1305.7,-19.71 1315.66,-23.33 1315.74,-16.33"/>
</g>
<!-- r&#45;qpcr -->
<g id="node31" class="node">
<title>r&#45;qpcr</title>
<g id="a_node31"><a xlink:href="https://github.com/conda-forge/r-qpcr-feedstock/pull/1" xlink:title="r qpcr">
<ellipse fill="#31688e" stroke="black" cx="2093.4" cy="-90" rx="40.5" ry="18"/>
<text text-anchor="middle" x="2093.4" y="-86.3" font-family="Times,serif" font-size="14.00" fill="white">r qpcr</text>
</a>
</g>
</g>
<!-- r&#45;qpcr&#45;&gt;conda&#45;forge&#45;pinning -->
<g id="edge56" class="edge">
<title>r&#45;qpcr&#45;&gt;conda&#45;forge&#45;pinning</title>
<path fill="none" stroke="black" d="M2062.6,-78.08C2054.8,-75.7 2046.37,-73.46 2038.4,-72 1902.44,-47.04 1507.42,-29.93 1313.05,-22.77"/>
<polygon fill="black" stroke="black" points="1312.94,-19.26 1302.81,-22.39 1312.68,-26.26 1312.94,-19.26"/>
</g>
<!-- r&#45;aplot -->
<g id="node32" class="node">
<title>r&#45;aplot</title>
<g id="a_node32"><a xlink:href="https://github.com/conda-forge/r-aplot-feedstock/pull/1" xlink:title="r aplot">
<ellipse fill="#31688e" stroke="black" cx="2144.4" cy="-162" rx="45" ry="18"/>
<text text-anchor="middle" x="2144.4" y="-158.3" font-family="Times,serif" font-size="14.00" fill="white">r aplot</text>
</a>
</g>
</g>
<!-- r&#45;aplot&#45;&gt;conda&#45;forge&#45;pinning -->
<g id="edge57" class="edge">
<title>r&#45;aplot&#45;&gt;conda&#45;forge&#45;pinning</title>
<path fill="none" stroke="black" d="M2150.06,-144.01C2155.55,-123.94 2160.66,-90.89 2142.4,-72 2114.05,-42.67 1558.29,-26.86 1314.93,-21.31"/>
<polygon fill="black" stroke="black" points="1314.71,-17.81 1304.64,-21.08 1314.56,-24.8 1314.71,-17.81"/>
</g>
<!-- r&#45;simplecache -->
<g id="node33" class="node">
<title>r&#45;simplecache</title>
<g id="a_node33"><a xlink:href="https://github.com/conda-forge/r-simplecache-feedstock/pull/1" xlink:title="r simplecache">
<ellipse fill="#31688e" stroke="black" cx="2217.4" cy="-234" rx="74.19" ry="18"/>
<text text-anchor="middle" x="2217.4" y="-230.3" font-family="Times,serif" font-size="14.00" fill="white">r simplecache</text>
</a>
</g>
</g>
<!-- r&#45;simplecache&#45;&gt;conda&#45;forge&#45;pinning -->
<g id="edge58" class="edge">
<title>r&#45;simplecache&#45;&gt;conda&#45;forge&#45;pinning</title>
<path fill="none" stroke="black" d="M2217.82,-215.89C2217.61,-181.37 2211.52,-103.99 2163.4,-72 2094.38,-26.12 1555.14,-19.52 1315.98,-18.87"/>
<polygon fill="black" stroke="black" points="1315.87,-15.37 1305.86,-18.85 1315.85,-22.37 1315.87,-15.37"/>
</g>
<!-- r&#45;riverplot -->
<g id="node34" class="node">
<title>r&#45;riverplot</title>
<g id="a_node34"><a xlink:href="https://github.com/conda-forge/r-riverplot-feedstock/pull/1" xlink:title="r riverplot">
<ellipse fill="#31688e" stroke="black" cx="2319.4" cy="-306" rx="64.5" ry="18"/>
<text text-anchor="middle" x="2319.4" y="-302.3" font-family="Times,serif" font-size="14.00" fill="white">r riverplot</text>
</a>
</g>
</g>
<!-- r&#45;riverplot&#45;&gt;conda&#45;forge&#45;pinning -->
<g id="edge59" class="edge">
<title>r&#45;riverplot&#45;&gt;conda&#45;forge&#45;pinning</title>
<path fill="none" stroke="black" d="M2317.94,-287.93C2315.87,-269.5 2311.08,-239.61 2300.4,-216 2267.55,-143.35 2263.66,-109.71 2193.4,-72 2117.82,-31.44 1560.16,-21.91 1316.17,-19.68"/>
<polygon fill="black" stroke="black" points="1315.88,-16.18 1305.85,-19.59 1315.82,-23.18 1315.88,-16.18"/>
</g>
</g>
</svg>
