<?xml version="1.0" encoding="UTF-8" standalone="no"?>
<!DOCTYPE svg PUBLIC "-//W3C//DTD SVG 1.1//EN"
 "http://www.w3.org/Graphics/SVG/1.1/DTD/svg11.dtd">
<!-- Generated by graphviz version 2.42.3 (20191010.1750)
 -->
<!-- Title: %3 Pages: 1 -->
<svg width="2120pt" height="476pt"
 viewBox="0.00 0.00 2120.09 476.00" xmlns="http://www.w3.org/2000/svg" xmlns:xlink="http://www.w3.org/1999/xlink">
<g id="graph0" class="graph" transform="scale(1 1) rotate(0) translate(4 472)">
<title>%3</title>
<polygon fill="white" stroke="transparent" points="-4,4 -4,-472 2116.09,-472 2116.09,4 -4,4"/>
<!-- r&#45;fst -->
<g id="node1" class="node">
<title>r&#45;fst</title>
<g id="a_node1"><a xlink:href="https://github.com/conda-forge/r-fst-feedstock/pull/11" xlink:title="r fst">
<ellipse fill="#31688e" stroke="black" cx="106.54" cy="-162" rx="35.19" ry="18"/>
<text text-anchor="middle" x="106.54" y="-158.3" font-family="Times,serif" font-size="14.00" fill="white">r fst</text>
</a>
</g>
</g>
<!-- r&#45;disk.frame -->
<g id="node2" class="node">
<title>r&#45;disk.frame</title>
<g id="a_node2"><a xlink:href="https://github.com/conda-forge/r-disk.frame-feedstock" xlink:title="r disk frame">
<ellipse fill="#fde725" stroke="black" cx="69.54" cy="-90" rx="69.59" ry="18"/>
<text text-anchor="middle" x="69.54" y="-86.3" font-family="Times,serif" font-size="14.00">r disk frame</text>
</a>
</g>
</g>
<!-- r&#45;fst&#45;&gt;r&#45;disk.frame -->
<g id="edge1" class="edge">
<title>r&#45;fst&#45;&gt;r&#45;disk.frame</title>
<path fill="none" stroke="black" d="M97.78,-144.41C93.46,-136.25 88.16,-126.22 83.32,-117.07"/>
<polygon fill="black" stroke="black" points="86.27,-115.16 78.51,-107.96 80.09,-118.43 86.27,-115.16"/>
</g>
<!-- conda&#45;forge&#45;pinning -->
<g id="node3" class="node">
<title>conda&#45;forge&#45;pinning</title>
<ellipse fill="none" stroke="black" cx="959.54" cy="-18" rx="103.5" ry="18"/>
<text text-anchor="middle" x="959.54" y="-14.3" font-family="Times,serif" font-size="14.00">conda&#45;forge&#45;pinning</text>
</g>
<!-- r&#45;fst&#45;&gt;conda&#45;forge&#45;pinning -->
<g id="edge2" class="edge">
<title>r&#45;fst&#45;&gt;conda&#45;forge&#45;pinning</title>
<path fill="none" stroke="black" d="M119.33,-145.06C138.41,-121.76 173.94,-80.26 191.54,-72 249.41,-44.85 649.64,-28.68 848.26,-22.24"/>
<polygon fill="black" stroke="black" points="848.55,-25.74 858.43,-21.92 848.32,-18.74 848.55,-25.74"/>
</g>
<!-- r&#45;disk.frame&#45;&gt;conda&#45;forge&#45;pinning -->
<g id="edge3" class="edge">
<title>r&#45;disk.frame&#45;&gt;conda&#45;forge&#45;pinning</title>
<path fill="none" stroke="black" d="M120.44,-77.56C131.32,-75.44 142.78,-73.44 153.54,-72 399.9,-39.12 691.46,-26.37 847.56,-21.63"/>
<polygon fill="black" stroke="black" points="847.75,-25.12 857.64,-21.33 847.54,-18.13 847.75,-25.12"/>
</g>
<!-- r&#45;hive -->
<g id="node4" class="node">
<title>r&#45;hive</title>
<g id="a_node4"><a xlink:href="https://github.com/conda-forge/r-hive-feedstock" xlink:title="r hive">
<ellipse fill="#fde725" stroke="black" cx="274.54" cy="-234" rx="40.5" ry="18"/>
<text text-anchor="middle" x="274.54" y="-230.3" font-family="Times,serif" font-size="14.00">r hive</text>
</a>
</g>
</g>
<!-- r&#45;hive&#45;&gt;conda&#45;forge&#45;pinning -->
<g id="edge4" class="edge">
<title>r&#45;hive&#45;&gt;conda&#45;forge&#45;pinning</title>
<path fill="none" stroke="black" d="M274.69,-215.97C275.99,-182.3 284.14,-107.44 329.54,-72 369.36,-40.92 677.67,-27.13 847.75,-21.84"/>
<polygon fill="black" stroke="black" points="847.86,-25.34 857.74,-21.53 847.64,-18.34 847.86,-25.34"/>
</g>
<!-- r&#45;rjava -->
<g id="node5" class="node">
<title>r&#45;rjava</title>
<g id="a_node5"><a xlink:href="https://github.com/conda-forge/r-rjava-feedstock" xlink:title="r rjava">
<ellipse fill="#35b779" stroke="black" cx="857.54" cy="-450" rx="45" ry="18"/>
<text text-anchor="middle" x="857.54" y="-446.3" font-family="Times,serif" font-size="14.00">r rjava</text>
</a>
</g>
</g>
<!-- r&#45;rjava&#45;&gt;conda&#45;forge&#45;pinning -->
<g id="edge5" class="edge">
<title>r&#45;rjava&#45;&gt;conda&#45;forge&#45;pinning</title>
<path fill="none" stroke="black" d="M812.88,-447.8C679.14,-443.84 288.34,-429.49 242.54,-396 207.96,-370.71 205.54,-349.84 205.54,-307 205.54,-307 205.54,-307 205.54,-161 205.54,-104.11 245.7,-95.42 297.54,-72 392.48,-29.1 683.28,-20.36 846.1,-18.93"/>
<polygon fill="black" stroke="black" points="846.18,-22.43 856.15,-18.85 846.12,-15.43 846.18,-22.43"/>
</g>
<!-- r&#45;rjava&#45;&gt;r&#45;hive -->
<g id="edge6" class="edge">
<title>r&#45;rjava&#45;&gt;r&#45;hive</title>
<path fill="none" stroke="black" d="M812.28,-448.4C679.73,-446.19 299.47,-436.36 262.54,-396 228.99,-359.33 247.68,-296.21 262.34,-260.88"/>
<polygon fill="black" stroke="black" points="265.55,-262.26 266.31,-251.7 259.13,-259.48 265.55,-262.26"/>
</g>
<!-- r&#45;xlsx -->
<g id="node6" class="node">
<title>r&#45;xlsx</title>
<g id="a_node6"><a xlink:href="https://github.com/conda-forge/r-xlsx-feedstock" xlink:title="r xlsx">
<ellipse fill="#fde725" stroke="black" cx="587.54" cy="-306" rx="40.5" ry="18"/>
<text text-anchor="middle" x="587.54" y="-302.3" font-family="Times,serif" font-size="14.00">r xlsx</text>
</a>
</g>
</g>
<!-- r&#45;rjava&#45;&gt;r&#45;xlsx -->
<g id="edge7" class="edge">
<title>r&#45;rjava&#45;&gt;r&#45;xlsx</title>
<path fill="none" stroke="black" d="M814.77,-444.07C774.34,-437.86 713.23,-424.35 667.54,-396 641.25,-379.68 618.47,-352.22 604.01,-332.11"/>
<polygon fill="black" stroke="black" points="606.76,-329.92 598.16,-323.72 601.02,-333.93 606.76,-329.92"/>
</g>
<!-- r&#45;xlsxjars -->
<g id="node7" class="node">
<title>r&#45;xlsxjars</title>
<g id="a_node7"><a xlink:href="https://github.com/conda-forge/r-xlsxjars-feedstock" xlink:title="r xlsxjars">
<ellipse fill="#fde725" stroke="black" cx="555.54" cy="-378" rx="60" ry="18"/>
<text text-anchor="middle" x="555.54" y="-374.3" font-family="Times,serif" font-size="14.00">r xlsxjars</text>
</a>
</g>
</g>
<!-- r&#45;rjava&#45;&gt;r&#45;xlsxjars -->
<g id="edge8" class="edge">
<title>r&#45;rjava&#45;&gt;r&#45;xlsxjars</title>
<path fill="none" stroke="black" d="M819.6,-440.21C767.08,-428.03 671.85,-405.96 611.25,-391.91"/>
<polygon fill="black" stroke="black" points="612,-388.49 601.47,-389.64 610.42,-395.31 612,-388.49"/>
</g>
<!-- r&#45;xlconnectjars -->
<g id="node8" class="node">
<title>r&#45;xlconnectjars</title>
<g id="a_node8"><a xlink:href="https://github.com/conda-forge/r-xlconnectjars-feedstock" xlink:title="r xlconnectjars">
<ellipse fill="#fde725" stroke="black" cx="355.54" cy="-378" rx="84" ry="18"/>
<text text-anchor="middle" x="355.54" y="-374.3" font-family="Times,serif" font-size="14.00">r xlconnectjars</text>
</a>
</g>
</g>
<!-- r&#45;rjava&#45;&gt;r&#45;xlconnectjars -->
<g id="edge9" class="edge">
<title>r&#45;rjava&#45;&gt;r&#45;xlconnectjars</title>
<path fill="none" stroke="black" d="M815,-444.01C741.27,-435.22 585.02,-416.02 453.54,-396 445.2,-394.73 436.47,-393.32 427.81,-391.88"/>
<polygon fill="black" stroke="black" points="428.13,-388.39 417.69,-390.18 426.97,-395.29 428.13,-388.39"/>
</g>
<!-- r&#45;xlconnect -->
<g id="node9" class="node">
<title>r&#45;xlconnect</title>
<g id="a_node9"><a xlink:href="https://github.com/conda-forge/r-xlconnect-feedstock" xlink:title="r xlconnect">
<ellipse fill="#fde725" stroke="black" cx="425.54" cy="-306" rx="64.5" ry="18"/>
<text text-anchor="middle" x="425.54" y="-302.3" font-family="Times,serif" font-size="14.00">r xlconnect</text>
</a>
</g>
</g>
<!-- r&#45;rjava&#45;&gt;r&#45;xlconnect -->
<g id="edge10" class="edge">
<title>r&#45;rjava&#45;&gt;r&#45;xlconnect</title>
<path fill="none" stroke="black" d="M812.9,-447.07C726.52,-442.64 540.29,-429.39 486.54,-396 462.92,-381.32 446.18,-353.73 436.28,-333.14"/>
<polygon fill="black" stroke="black" points="439.43,-331.61 432.1,-323.97 433.06,-334.52 439.43,-331.61"/>
</g>
<!-- r&#45;rcdklibs -->
<g id="node10" class="node">
<title>r&#45;rcdklibs</title>
<g id="a_node10"><a xlink:href="https://github.com/conda-forge/r-rcdklibs-feedstock" xlink:title="r rcdklibs">
<ellipse fill="#fde725" stroke="black" cx="769.54" cy="-378" rx="60" ry="18"/>
<text text-anchor="middle" x="769.54" y="-374.3" font-family="Times,serif" font-size="14.00">r rcdklibs</text>
</a>
</g>
</g>
<!-- r&#45;rjava&#45;&gt;r&#45;rcdklibs -->
<g id="edge11" class="edge">
<title>r&#45;rjava&#45;&gt;r&#45;rcdklibs</title>
<path fill="none" stroke="black" d="M838.01,-433.46C826.1,-423.99 810.69,-411.73 797.5,-401.24"/>
<polygon fill="black" stroke="black" points="799.63,-398.46 789.63,-394.98 795.28,-403.94 799.63,-398.46"/>
</g>
<!-- r&#45;rcdk -->
<g id="node11" class="node">
<title>r&#45;rcdk</title>
<g id="a_node11"><a xlink:href="https://github.com/conda-forge/r-rcdk-feedstock" xlink:title="r rcdk">
<ellipse fill="#fde725" stroke="black" cx="763.54" cy="-306" rx="40.5" ry="18"/>
<text text-anchor="middle" x="763.54" y="-302.3" font-family="Times,serif" font-size="14.00">r rcdk</text>
</a>
</g>
</g>
<!-- r&#45;rjava&#45;&gt;r&#45;rcdk -->
<g id="edge12" class="edge">
<title>r&#45;rjava&#45;&gt;r&#45;rcdk</title>
<path fill="none" stroke="black" d="M857.5,-431.85C856.68,-412.82 852.98,-381.9 838.54,-360 828.8,-345.23 813.42,-333.31 799.11,-324.54"/>
<polygon fill="black" stroke="black" points="800.8,-321.47 790.4,-319.49 797.29,-327.53 800.8,-321.47"/>
</g>
<!-- r&#45;rchoicedialogs -->
<g id="node12" class="node">
<title>r&#45;rchoicedialogs</title>
<g id="a_node12"><a xlink:href="https://github.com/conda-forge/r-rchoicedialogs-feedstock" xlink:title="r rchoicedialogs">
<ellipse fill="#fde725" stroke="black" cx="911.54" cy="-306" rx="89.08" ry="18"/>
<text text-anchor="middle" x="911.54" y="-302.3" font-family="Times,serif" font-size="14.00">r rchoicedialogs</text>
</a>
</g>
</g>
<!-- r&#45;rjava&#45;&gt;r&#45;rchoicedialogs -->
<g id="edge13" class="edge">
<title>r&#45;rjava&#45;&gt;r&#45;rchoicedialogs</title>
<path fill="none" stroke="black" d="M863.95,-432.15C873.2,-407.84 890.38,-362.66 901.37,-333.75"/>
<polygon fill="black" stroke="black" points="904.69,-334.86 904.98,-324.27 898.15,-332.37 904.69,-334.86"/>
</g>
<!-- r&#45;rwekajars -->
<g id="node13" class="node">
<title>r&#45;rwekajars</title>
<g id="a_node13"><a xlink:href="https://github.com/conda-forge/r-rwekajars-feedstock" xlink:title="r rwekajars">
<ellipse fill="#fde725" stroke="black" cx="883.54" cy="-234" rx="64.5" ry="18"/>
<text text-anchor="middle" x="883.54" y="-230.3" font-family="Times,serif" font-size="14.00">r rwekajars</text>
</a>
</g>
</g>
<!-- r&#45;rjava&#45;&gt;r&#45;rwekajars -->
<g id="edge14" class="edge">
<title>r&#45;rjava&#45;&gt;r&#45;rwekajars</title>
<path fill="none" stroke="black" d="M885.58,-435.78C922,-416.84 983.93,-378.22 1009.54,-324 1016.38,-309.53 1018.4,-301.33 1009.54,-288 995.52,-266.89 971.27,-254.17 947.77,-246.51"/>
<polygon fill="black" stroke="black" points="948.71,-243.14 938.13,-243.63 946.7,-249.85 948.71,-243.14"/>
</g>
<!-- r&#45;rweka -->
<g id="node14" class="node">
<title>r&#45;rweka</title>
<g id="a_node14"><a xlink:href="https://github.com/conda-forge/r-rweka-feedstock" xlink:title="r rweka">
<ellipse fill="#fde725" stroke="black" cx="930.54" cy="-162" rx="45" ry="18"/>
<text text-anchor="middle" x="930.54" y="-158.3" font-family="Times,serif" font-size="14.00">r rweka</text>
</a>
</g>
</g>
<!-- r&#45;rjava&#45;&gt;r&#45;rweka -->
<g id="edge15" class="edge">
<title>r&#45;rjava&#45;&gt;r&#45;rweka</title>
<path fill="none" stroke="black" d="M894.67,-439.61C921.15,-431.46 956.38,-417.54 981.54,-396 1010.21,-371.46 1016.14,-360.27 1026.54,-324 1030.95,-308.62 1032.11,-303 1026.54,-288 1019.2,-268.21 1008.67,-268.54 995.54,-252 978.78,-230.88 960.77,-206.04 947.97,-187.98"/>
<polygon fill="black" stroke="black" points="950.76,-185.85 942.14,-179.7 945.04,-189.89 950.76,-185.85"/>
</g>
<!-- r&#45;subspace -->
<g id="node15" class="node">
<title>r&#45;subspace</title>
<g id="a_node15"><a xlink:href="https://github.com/conda-forge/r-subspace-feedstock" xlink:title="r subspace">
<ellipse fill="#fde725" stroke="black" cx="1064.54" cy="-234" rx="60" ry="18"/>
<text text-anchor="middle" x="1064.54" y="-230.3" font-family="Times,serif" font-size="14.00">r subspace</text>
</a>
</g>
</g>
<!-- r&#45;rjava&#45;&gt;r&#45;subspace -->
<g id="edge16" class="edge">
<title>r&#45;rjava&#45;&gt;r&#45;subspace</title>
<path fill="none" stroke="black" d="M900.92,-444.98C959.35,-438.56 1058.59,-423.79 1080.54,-396 1110.98,-357.49 1092.41,-296.53 1077.55,-261.72"/>
<polygon fill="black" stroke="black" points="1080.59,-259.93 1073.31,-252.22 1074.19,-262.78 1080.59,-259.93"/>
</g>
<!-- r&#45;rmcfs -->
<g id="node16" class="node">
<title>r&#45;rmcfs</title>
<g id="a_node16"><a xlink:href="https://github.com/conda-forge/r-rmcfs-feedstock" xlink:title="r rmcfs">
<ellipse fill="#fde725" stroke="black" cx="1121.54" cy="-162" rx="45" ry="18"/>
<text text-anchor="middle" x="1121.54" y="-158.3" font-family="Times,serif" font-size="14.00">r rmcfs</text>
</a>
</g>
</g>
<!-- r&#45;rjava&#45;&gt;r&#45;rmcfs -->
<g id="edge17" class="edge">
<title>r&#45;rjava&#45;&gt;r&#45;rmcfs</title>
<path fill="none" stroke="black" d="M901.14,-445.19C963.76,-438.82 1074.71,-423.86 1102.54,-396 1157.33,-341.16 1140.94,-238.46 1129.09,-189.84"/>
<polygon fill="black" stroke="black" points="1132.45,-188.87 1126.58,-180.05 1125.67,-190.6 1132.45,-188.87"/>
</g>
<!-- r&#45;rjdbc -->
<g id="node17" class="node">
<title>r&#45;rjdbc</title>
<g id="a_node17"><a xlink:href="https://github.com/conda-forge/r-rjdbc-feedstock" xlink:title="r rjdbc">
<ellipse fill="#fde725" stroke="black" cx="1163.54" cy="-90" rx="45" ry="18"/>
<text text-anchor="middle" x="1163.54" y="-86.3" font-family="Times,serif" font-size="14.00">r rjdbc</text>
</a>
</g>
</g>
<!-- r&#45;rjava&#45;&gt;r&#45;rjdbc -->
<g id="edge18" class="edge">
<title>r&#45;rjava&#45;&gt;r&#45;rjdbc</title>
<path fill="none" stroke="black" d="M901.34,-445.69C969.13,-439.72 1095.15,-424.99 1128.54,-396 1209.23,-325.96 1185.01,-178.59 1170.71,-117.95"/>
<polygon fill="black" stroke="black" points="1174.05,-116.87 1168.26,-108 1167.25,-118.54 1174.05,-116.87"/>
</g>
<!-- r&#45;tabulizer -->
<g id="node18" class="node">
<title>r&#45;tabulizer</title>
<g id="a_node18"><a xlink:href="https://github.com/conda-forge/r-tabulizer-feedstock" xlink:title="r tabulizer">
<ellipse fill="#fde725" stroke="black" cx="1273.54" cy="-306" rx="64.5" ry="18"/>
<text text-anchor="middle" x="1273.54" y="-302.3" font-family="Times,serif" font-size="14.00">r tabulizer</text>
</a>
</g>
</g>
<!-- r&#45;rjava&#45;&gt;r&#45;tabulizer -->
<g id="edge19" class="edge">
<title>r&#45;rjava&#45;&gt;r&#45;tabulizer</title>
<path fill="none" stroke="black" d="M901.47,-445.78C980.9,-439.37 1144.79,-423.21 1194.54,-396 1221.7,-381.15 1244.13,-353.19 1258.06,-332.56"/>
<polygon fill="black" stroke="black" points="1261.15,-334.24 1263.68,-323.95 1255.29,-330.42 1261.15,-334.24"/>
</g>
<!-- r&#45;tabulizerjars -->
<g id="node19" class="node">
<title>r&#45;tabulizerjars</title>
<g id="a_node19"><a xlink:href="https://github.com/conda-forge/r-tabulizerjars-feedstock" xlink:title="r tabulizerjars">
<ellipse fill="#fde725" stroke="black" cx="1330.54" cy="-378" rx="84" ry="18"/>
<text text-anchor="middle" x="1330.54" y="-374.3" font-family="Times,serif" font-size="14.00">r tabulizerjars</text>
</a>
</g>
</g>
<!-- r&#45;rjava&#45;&gt;r&#45;tabulizerjars -->
<g id="edge20" class="edge">
<title>r&#45;rjava&#45;&gt;r&#45;tabulizerjars</title>
<path fill="none" stroke="black" d="M899.79,-443.47C969.29,-434.27 1112.06,-414.96 1232.54,-396 1240.82,-394.7 1249.48,-393.28 1258.08,-391.83"/>
<polygon fill="black" stroke="black" points="1258.84,-395.25 1268.12,-390.13 1257.67,-388.35 1258.84,-395.25"/>
</g>
<!-- r&#45;destinie -->
<g id="node20" class="node">
<title>r&#45;destinie</title>
<g id="a_node20"><a xlink:href="https://github.com/conda-forge/r-destinie-feedstock" xlink:title="r destinie">
<ellipse fill="#fde725" stroke="black" cx="626.54" cy="-234" rx="60" ry="18"/>
<text text-anchor="middle" x="626.54" y="-230.3" font-family="Times,serif" font-size="14.00">r destinie</text>
</a>
</g>
</g>
<!-- r&#45;rjava&#45;&gt;r&#45;destinie -->
<g id="edge21" class="edge">
<title>r&#45;rjava&#45;&gt;r&#45;destinie</title>
<path fill="none" stroke="black" d="M814.89,-443.99C780.36,-437.92 732.41,-424.67 700.54,-396 660.45,-359.91 640.56,-297.72 632.01,-262.12"/>
<polygon fill="black" stroke="black" points="635.34,-260.96 629.71,-251.98 628.51,-262.51 635.34,-260.96"/>
</g>
<!-- r&#45;xlsx&#45;&gt;conda&#45;forge&#45;pinning -->
<g id="edge22" class="edge">
<title>r&#45;xlsx&#45;&gt;conda&#45;forge&#45;pinning</title>
<path fill="none" stroke="black" d="M575.44,-288.78C568.73,-278.75 561.04,-265.29 557.54,-252 553.47,-236.53 552.48,-231.18 557.54,-216 582.84,-140.11 597.46,-114.01 665.54,-72 697.85,-52.07 789.32,-37.6 861.74,-28.87"/>
<polygon fill="black" stroke="black" points="862.3,-32.33 871.82,-27.68 861.48,-25.38 862.3,-32.33"/>
</g>
<!-- r&#45;xlsx&#45;&gt;r&#45;destinie -->
<g id="edge23" class="edge">
<title>r&#45;xlsx&#45;&gt;r&#45;destinie</title>
<path fill="none" stroke="black" d="M596.79,-288.41C601.38,-280.16 607.04,-270.01 612.18,-260.78"/>
<polygon fill="black" stroke="black" points="615.29,-262.4 617.1,-251.96 609.17,-258.99 615.29,-262.4"/>
</g>
<!-- r&#45;xlsxjars&#45;&gt;conda&#45;forge&#45;pinning -->
<g id="edge24" class="edge">
<title>r&#45;xlsxjars&#45;&gt;conda&#45;forge&#45;pinning</title>
<path fill="none" stroke="black" d="M548.06,-359.7C544.07,-349.52 539.57,-336.27 537.54,-324 534.94,-308.21 536.12,-303.94 537.54,-288 546.62,-186.64 527.99,-127.11 613.54,-72 652.37,-46.99 767.04,-33 853.82,-25.75"/>
<polygon fill="black" stroke="black" points="854.31,-29.23 863.99,-24.92 853.74,-22.25 854.31,-29.23"/>
</g>
<!-- r&#45;xlsxjars&#45;&gt;r&#45;xlsx -->
<g id="edge25" class="edge">
<title>r&#45;xlsxjars&#45;&gt;r&#45;xlsx</title>
<path fill="none" stroke="black" d="M563.29,-360.05C566.98,-351.97 571.49,-342.12 575.61,-333.11"/>
<polygon fill="black" stroke="black" points="578.89,-334.34 579.87,-323.79 572.53,-331.43 578.89,-334.34"/>
</g>
<!-- r&#45;xlconnectjars&#45;&gt;conda&#45;forge&#45;pinning -->
<g id="edge26" class="edge">
<title>r&#45;xlconnectjars&#45;&gt;conda&#45;forge&#45;pinning</title>
<path fill="none" stroke="black" d="M352.1,-359.7C349.12,-341.6 346.06,-312.45 351.54,-288 374.77,-184.41 366.95,-133.43 453.54,-72 514.48,-28.77 715.84,-19.53 845.43,-18.24"/>
<polygon fill="black" stroke="black" points="845.82,-21.73 855.79,-18.15 845.76,-14.73 845.82,-21.73"/>
</g>
<!-- r&#45;xlconnectjars&#45;&gt;r&#45;xlconnect -->
<g id="edge27" class="edge">
<title>r&#45;xlconnectjars&#45;&gt;r&#45;xlconnect</title>
<path fill="none" stroke="black" d="M372.49,-360.05C381.17,-351.37 391.9,-340.64 401.43,-331.11"/>
<polygon fill="black" stroke="black" points="404.16,-333.33 408.75,-323.79 399.21,-328.39 404.16,-333.33"/>
</g>
<!-- r&#45;xlconnect&#45;&gt;conda&#45;forge&#45;pinning -->
<g id="edge28" class="edge">
<title>r&#45;xlconnect&#45;&gt;conda&#45;forge&#45;pinning</title>
<path fill="none" stroke="black" d="M424.14,-287.94C421.6,-244.32 421.56,-128.22 486.54,-72 513.63,-48.57 720.94,-32.57 851.96,-24.68"/>
<polygon fill="black" stroke="black" points="852.27,-28.17 862.04,-24.08 851.85,-21.18 852.27,-28.17"/>
</g>
<!-- r&#45;rcdklibs&#45;&gt;conda&#45;forge&#45;pinning -->
<g id="edge29" class="edge">
<title>r&#45;rcdklibs&#45;&gt;conda&#45;forge&#45;pinning</title>
<path fill="none" stroke="black" d="M745.47,-361.42C733.45,-352.16 720.11,-339.25 713.54,-324 707.22,-309.3 710.38,-303.68 713.54,-288 734.17,-185.89 728.38,-143.07 804.54,-72 824.37,-53.51 850.92,-41.44 876.44,-33.57"/>
<polygon fill="black" stroke="black" points="877.52,-36.9 886.15,-30.76 875.57,-30.18 877.52,-36.9"/>
</g>
<!-- r&#45;rcdklibs&#45;&gt;r&#45;rcdk -->
<g id="edge30" class="edge">
<title>r&#45;rcdklibs&#45;&gt;r&#45;rcdk</title>
<path fill="none" stroke="black" d="M768.06,-359.7C767.4,-351.98 766.6,-342.71 765.87,-334.11"/>
<polygon fill="black" stroke="black" points="769.35,-333.77 765.01,-324.1 762.38,-334.37 769.35,-333.77"/>
</g>
<!-- r&#45;rcdk&#45;&gt;conda&#45;forge&#45;pinning -->
<g id="edge31" class="edge">
<title>r&#45;rcdk&#45;&gt;conda&#45;forge&#45;pinning</title>
<path fill="none" stroke="black" d="M763.9,-288C765.69,-245.99 775.94,-136.08 833.54,-72 848.27,-55.62 868.87,-44.15 889.16,-36.19"/>
<polygon fill="black" stroke="black" points="890.58,-39.4 898.76,-32.66 888.16,-32.83 890.58,-39.4"/>
</g>
<!-- r&#45;rchoicedialogs&#45;&gt;conda&#45;forge&#45;pinning -->
<g id="edge32" class="edge">
<title>r&#45;rchoicedialogs&#45;&gt;conda&#45;forge&#45;pinning</title>
<path fill="none" stroke="black" d="M860.71,-291.14C841.19,-283.07 820.89,-270.68 809.54,-252 801.24,-238.32 806.74,-231.75 809.54,-216 821.51,-148.86 818,-123.64 862.54,-72 874.49,-58.15 890.98,-47.27 906.98,-39.06"/>
<polygon fill="black" stroke="black" points="908.84,-42.05 916.31,-34.54 905.78,-35.76 908.84,-42.05"/>
</g>
<!-- r&#45;rwekajars&#45;&gt;conda&#45;forge&#45;pinning -->
<g id="edge33" class="edge">
<title>r&#45;rwekajars&#45;&gt;conda&#45;forge&#45;pinning</title>
<path fill="none" stroke="black" d="M877.42,-215.69C867.58,-184.66 851.81,-118.5 877.54,-72 885.01,-58.5 897.53,-47.91 910.57,-39.85"/>
<polygon fill="black" stroke="black" points="912.68,-42.68 919.62,-34.68 909.2,-36.6 912.68,-42.68"/>
</g>
<!-- r&#45;rwekajars&#45;&gt;r&#45;rweka -->
<g id="edge34" class="edge">
<title>r&#45;rwekajars&#45;&gt;r&#45;rweka</title>
<path fill="none" stroke="black" d="M894.92,-216.05C900.52,-207.71 907.39,-197.49 913.59,-188.25"/>
<polygon fill="black" stroke="black" points="916.6,-190.04 919.27,-179.79 910.79,-186.14 916.6,-190.04"/>
</g>
<!-- r&#45;rweka&#45;&gt;conda&#45;forge&#45;pinning -->
<g id="edge35" class="edge">
<title>r&#45;rweka&#45;&gt;conda&#45;forge&#45;pinning</title>
<path fill="none" stroke="black" d="M912.04,-145.38C902.12,-135.75 890.87,-122.5 885.54,-108 880.03,-92.98 878.23,-86.23 885.54,-72 892.17,-59.11 903.55,-48.65 915.42,-40.53"/>
<polygon fill="black" stroke="black" points="917.52,-43.35 924.1,-35.04 913.78,-37.43 917.52,-43.35"/>
</g>
<!-- r&#45;fselector -->
<g id="node21" class="node">
<title>r&#45;fselector</title>
<g id="a_node21"><a xlink:href="https://github.com/conda-forge/r-fselector-feedstock" xlink:title="r fselector">
<ellipse fill="#fde725" stroke="black" cx="959.54" cy="-90" rx="64.5" ry="18"/>
<text text-anchor="middle" x="959.54" y="-86.3" font-family="Times,serif" font-size="14.00">r fselector</text>
</a>
</g>
</g>
<!-- r&#45;rweka&#45;&gt;r&#45;fselector -->
<g id="edge36" class="edge">
<title>r&#45;rweka&#45;&gt;r&#45;fselector</title>
<path fill="none" stroke="black" d="M937.56,-144.05C940.83,-136.18 944.79,-126.62 948.44,-117.79"/>
<polygon fill="black" stroke="black" points="951.79,-118.85 952.39,-108.28 945.33,-116.17 951.79,-118.85"/>
</g>
<!-- r&#45;subspace&#45;&gt;conda&#45;forge&#45;pinning -->
<g id="edge37" class="edge">
<title>r&#45;subspace&#45;&gt;conda&#45;forge&#45;pinning</title>
<path fill="none" stroke="black" d="M1065.08,-216C1065.26,-184.9 1061.89,-117.84 1032.54,-72 1024.59,-59.58 1012.62,-49.13 1000.65,-40.88"/>
<polygon fill="black" stroke="black" points="1002.29,-37.77 992,-35.26 998.48,-43.64 1002.29,-37.77"/>
</g>
<!-- r&#45;rmcfs&#45;&gt;conda&#45;forge&#45;pinning -->
<g id="edge38" class="edge">
<title>r&#45;rmcfs&#45;&gt;conda&#45;forge&#45;pinning</title>
<path fill="none" stroke="black" d="M1114.51,-143.96C1105.74,-124.45 1089.11,-92.54 1066.54,-72 1051.14,-57.97 1031.33,-46.79 1012.96,-38.38"/>
<polygon fill="black" stroke="black" points="1014.36,-35.17 1003.8,-34.35 1011.54,-41.58 1014.36,-35.17"/>
</g>
<!-- r&#45;rjdbc&#45;&gt;conda&#45;forge&#45;pinning -->
<g id="edge39" class="edge">
<title>r&#45;rjdbc&#45;&gt;conda&#45;forge&#45;pinning</title>
<path fill="none" stroke="black" d="M1130.31,-77.6C1098.81,-66.79 1050.91,-50.35 1013.86,-37.64"/>
<polygon fill="black" stroke="black" points="1014.8,-34.26 1004.2,-34.32 1012.52,-40.88 1014.8,-34.26"/>
</g>
<!-- r&#45;tabulizer&#45;&gt;conda&#45;forge&#45;pinning -->
<g id="edge40" class="edge">
<title>r&#45;tabulizer&#45;&gt;conda&#45;forge&#45;pinning</title>
<path fill="none" stroke="black" d="M1275.06,-288C1277.88,-245.04 1278.85,-131.3 1217.54,-72 1194.85,-50.05 1121.55,-36.35 1058.85,-28.4"/>
<polygon fill="black" stroke="black" points="1059.24,-24.92 1048.89,-27.17 1058.39,-31.87 1059.24,-24.92"/>
</g>
<!-- r&#45;tabulizerjars&#45;&gt;conda&#45;forge&#45;pinning -->
<g id="edge41" class="edge">
<title>r&#45;tabulizerjars&#45;&gt;conda&#45;forge&#45;pinning</title>
<path fill="none" stroke="black" d="M1337.65,-359.86C1344.17,-341.88 1352.04,-312.83 1346.54,-288 1323.61,-184.34 1328.99,-136.34 1244.54,-72 1215.88,-50.16 1130.1,-36.17 1060.08,-28.08"/>
<polygon fill="black" stroke="black" points="1060.2,-24.57 1049.87,-26.93 1059.41,-31.53 1060.2,-24.57"/>
</g>
<!-- r&#45;tabulizerjars&#45;&gt;r&#45;tabulizer -->
<g id="edge42" class="edge">
<title>r&#45;tabulizerjars&#45;&gt;r&#45;tabulizer</title>
<path fill="none" stroke="black" d="M1316.75,-360.05C1309.81,-351.54 1301.29,-341.07 1293.64,-331.68"/>
<polygon fill="black" stroke="black" points="1296.24,-329.33 1287.21,-323.79 1290.82,-333.75 1296.24,-329.33"/>
</g>
<!-- r&#45;destinie&#45;&gt;conda&#45;forge&#45;pinning -->
<g id="edge43" class="edge">
<title>r&#45;destinie&#45;&gt;conda&#45;forge&#45;pinning</title>
<path fill="none" stroke="black" d="M629.24,-215.77C635.41,-182.43 653.8,-109.1 700.54,-72 725.71,-52.02 800.82,-38.05 863.72,-29.48"/>
<polygon fill="black" stroke="black" points="864.24,-32.94 873.7,-28.15 863.32,-26 864.24,-32.94"/>
</g>
<!-- r&#45;fselector&#45;&gt;conda&#45;forge&#45;pinning -->
<g id="edge49" class="edge">
<title>r&#45;fselector&#45;&gt;conda&#45;forge&#45;pinning</title>
<path fill="none" stroke="black" d="M959.54,-71.7C959.54,-63.98 959.54,-54.71 959.54,-46.11"/>
<polygon fill="black" stroke="black" points="963.04,-46.1 959.54,-36.1 956.04,-46.1 963.04,-46.1"/>
</g>
<!-- rpy2 -->
<g id="node22" class="node">
<title>rpy2</title>
<g id="a_node22"><a xlink:href="https://github.com/conda-forge/rpy2-feedstock/pull/55" xlink:title="rpy2">
<ellipse fill="#31688e" stroke="black" cx="1376.54" cy="-162" rx="30.59" ry="18"/>
<text text-anchor="middle" x="1376.54" y="-158.3" font-family="Times,serif" font-size="14.00" fill="white">rpy2</text>
</a>
</g>
</g>
<!-- rpy2&#45;&gt;conda&#45;forge&#45;pinning -->
<g id="edge44" class="edge">
<title>rpy2&#45;&gt;conda&#45;forge&#45;pinning</title>
<path fill="none" stroke="black" d="M1363.47,-145.64C1343.59,-122.67 1306.22,-81.1 1288.54,-72 1249.47,-51.89 1140.92,-36.98 1059.1,-28.19"/>
<polygon fill="black" stroke="black" points="1059.33,-24.69 1049.01,-27.12 1058.59,-31.65 1059.33,-24.69"/>
</g>
<!-- iterativewgcna -->
<g id="node23" class="node">
<title>iterativewgcna</title>
<g id="a_node23"><a xlink:href="https://github.com/conda-forge/iterativewgcna-feedstock" xlink:title="iterativewgcna">
<ellipse fill="#fde725" stroke="black" cx="1419.54" cy="-90" rx="79.5" ry="18"/>
<text text-anchor="middle" x="1419.54" y="-86.3" font-family="Times,serif" font-size="14.00">iterativewgcna</text>
</a>
</g>
</g>
<!-- rpy2&#45;&gt;iterativewgcna -->
<g id="edge45" class="edge">
<title>rpy2&#45;&gt;iterativewgcna</title>
<path fill="none" stroke="black" d="M1386.52,-144.76C1391.63,-136.44 1397.98,-126.1 1403.74,-116.73"/>
<polygon fill="black" stroke="black" points="1406.77,-118.48 1409.02,-108.12 1400.81,-114.81 1406.77,-118.48"/>
</g>
<!-- iterativewgcna&#45;&gt;conda&#45;forge&#45;pinning -->
<g id="edge46" class="edge">
<title>iterativewgcna&#45;&gt;conda&#45;forge&#45;pinning</title>
<path fill="none" stroke="black" d="M1360.56,-77.88C1349.28,-75.85 1337.56,-73.8 1326.54,-72 1232.19,-56.57 1123.8,-41.2 1049.41,-31.02"/>
<polygon fill="black" stroke="black" points="1049.52,-27.51 1039.14,-29.62 1048.58,-34.44 1049.52,-27.51"/>
</g>
<!-- r&#45;rvaidememoire -->
<g id="node24" class="node">
<title>r&#45;rvaidememoire</title>
<g id="a_node24"><a xlink:href="https://github.com/conda-forge/r-rvaidememoire-feedstock" xlink:title="r rvaidememoire">
<ellipse fill="#35b779" stroke="black" cx="1600.54" cy="-90" rx="84" ry="18"/>
<text text-anchor="middle" x="1600.54" y="-86.3" font-family="Times,serif" font-size="14.00">r rvaidememoire</text>
</a>
</g>
</g>
<!-- r&#45;rvaidememoire&#45;&gt;conda&#45;forge&#45;pinning -->
<g id="edge47" class="edge">
<title>r&#45;rvaidememoire&#45;&gt;conda&#45;forge&#45;pinning</title>
<path fill="none" stroke="black" d="M1540.63,-77.28C1529.65,-75.35 1518.27,-73.5 1507.54,-72 1353.55,-50.52 1173.99,-34.94 1063.54,-26.43"/>
<polygon fill="black" stroke="black" points="1063.64,-22.93 1053.4,-25.65 1063.1,-29.91 1063.64,-22.93"/>
</g>
<!-- r&#45;hiver -->
<g id="node25" class="node">
<title>r&#45;hiver</title>
<g id="a_node25"><a xlink:href="https://github.com/conda-forge/r-hiver-feedstock" xlink:title="r hiver">
<ellipse fill="#35b779" stroke="black" cx="1677.54" cy="-162" rx="45" ry="18"/>
<text text-anchor="middle" x="1677.54" y="-158.3" font-family="Times,serif" font-size="14.00">r hiver</text>
</a>
</g>
</g>
<!-- r&#45;hiver&#45;&gt;conda&#45;forge&#45;pinning -->
<g id="edge48" class="edge">
<title>r&#45;hiver&#45;&gt;conda&#45;forge&#45;pinning</title>
<path fill="none" stroke="black" d="M1687.9,-144.23C1698.7,-124.38 1711.72,-91.54 1693.54,-72 1652.24,-27.61 1268.62,-19.91 1073.05,-18.9"/>
<polygon fill="black" stroke="black" points="1073.04,-15.4 1063.02,-18.85 1073,-22.4 1073.04,-15.4"/>
</g>
<!-- r&#45;littler -->
<g id="node26" class="node">
<title>r&#45;littler</title>
<g id="a_node26"><a xlink:href="https://github.com/conda-forge/r-littler-feedstock/pull/2" xlink:title="r littler">
<ellipse fill="#31688e" stroke="black" cx="1750.54" cy="-234" rx="54.69" ry="18"/>
<text text-anchor="middle" x="1750.54" y="-230.3" font-family="Times,serif" font-size="14.00" fill="white">r littler</text>
</a>
</g>
</g>
<!-- r&#45;littler&#45;&gt;conda&#45;forge&#45;pinning -->
<g id="edge50" class="edge">
<title>r&#45;littler&#45;&gt;conda&#45;forge&#45;pinning</title>
<path fill="none" stroke="black" d="M1752.47,-215.76C1755.15,-182.05 1755.57,-107.62 1712.54,-72 1664.48,-32.21 1271.23,-22.29 1072.95,-19.82"/>
<polygon fill="black" stroke="black" points="1072.83,-16.32 1062.79,-19.7 1072.75,-23.32 1072.83,-16.32"/>
</g>
<!-- r&#45;rxode -->
<g id="node27" class="node">
<title>r&#45;rxode</title>
<g id="a_node27"><a xlink:href="https://github.com/conda-forge/r-rxode-feedstock/pull/3" xlink:title="r rxode">
<ellipse fill="#31688e" stroke="black" cx="1850.54" cy="-162" rx="45" ry="18"/>
<text text-anchor="middle" x="1850.54" y="-158.3" font-family="Times,serif" font-size="14.00" fill="white">r rxode</text>
</a>
</g>
</g>
<!-- r&#45;rxode&#45;&gt;conda&#45;forge&#45;pinning -->
<g id="edge51" class="edge">
<title>r&#45;rxode&#45;&gt;conda&#45;forge&#45;pinning</title>
<path fill="none" stroke="black" d="M1837.27,-144.67C1817.87,-121.28 1782.19,-80.18 1764.54,-72 1703.31,-43.61 1277.95,-27.93 1071.48,-21.91"/>
<polygon fill="black" stroke="black" points="1071.31,-18.4 1061.22,-21.61 1071.11,-25.4 1071.31,-18.4"/>
</g>
<!-- r&#45;nlmixr -->
<g id="node28" class="node">
<title>r&#45;nlmixr</title>
<g id="a_node28"><a xlink:href="https://github.com/conda-forge/r-nlmixr-feedstock" xlink:title="r nlmixr">
<ellipse fill="#fde725" stroke="black" cx="1866.54" cy="-90" rx="50.09" ry="18"/>
<text text-anchor="middle" x="1866.54" y="-86.3" font-family="Times,serif" font-size="14.00">r nlmixr</text>
</a>
</g>
</g>
<!-- r&#45;rxode&#45;&gt;r&#45;nlmixr -->
<g id="edge52" class="edge">
<title>r&#45;rxode&#45;&gt;r&#45;nlmixr</title>
<path fill="none" stroke="black" d="M1854.42,-144.05C1856.2,-136.26 1858.36,-126.82 1860.35,-118.08"/>
<polygon fill="black" stroke="black" points="1863.78,-118.8 1862.6,-108.28 1856.95,-117.24 1863.78,-118.8"/>
</g>
<!-- r&#45;nlmixr&#45;&gt;conda&#45;forge&#45;pinning -->
<g id="edge53" class="edge">
<title>r&#45;nlmixr&#45;&gt;conda&#45;forge&#45;pinning</title>
<path fill="none" stroke="black" d="M1829.58,-77.86C1820.79,-75.58 1811.39,-73.44 1802.54,-72 1543.98,-29.95 1235.8,-20.78 1073.14,-19.08"/>
<polygon fill="black" stroke="black" points="1073.15,-15.58 1063.12,-18.98 1073.08,-22.58 1073.15,-15.58"/>
</g>
<!-- r&#45;gld -->
<g id="node29" class="node">
<title>r&#45;gld</title>
<g id="a_node29"><a xlink:href="https://github.com/conda-forge/r-gld-feedstock" xlink:title="r gld">
<ellipse fill="#35b779" stroke="black" cx="1959.54" cy="-162" rx="35.19" ry="18"/>
<text text-anchor="middle" x="1959.54" y="-158.3" font-family="Times,serif" font-size="14.00">r gld</text>
</a>
</g>
</g>
<!-- r&#45;gld&#45;&gt;conda&#45;forge&#45;pinning -->
<g id="edge54" class="edge">
<title>r&#45;gld&#45;&gt;conda&#45;forge&#45;pinning</title>
<path fill="none" stroke="black" d="M1958.39,-143.96C1955.97,-123.18 1948.53,-88.77 1925.54,-72 1858.2,-22.87 1314.38,-18.06 1073.58,-18.38"/>
<polygon fill="black" stroke="black" points="1073.39,-14.89 1063.39,-18.4 1073.4,-21.89 1073.39,-14.89"/>
</g>
<!-- r&#45;paireddata -->
<g id="node30" class="node">
<title>r&#45;paireddata</title>
<g id="a_node30"><a xlink:href="https://github.com/conda-forge/r-paireddata-feedstock" xlink:title="r paireddata">
<ellipse fill="#fde725" stroke="black" cx="2042.54" cy="-90" rx="69.59" ry="18"/>
<text text-anchor="middle" x="2042.54" y="-86.3" font-family="Times,serif" font-size="14.00">r paireddata</text>
</a>
</g>
</g>
<!-- r&#45;gld&#45;&gt;r&#45;paireddata -->
<g id="edge55" class="edge">
<title>r&#45;gld&#45;&gt;r&#45;paireddata</title>
<path fill="none" stroke="black" d="M1977.15,-146.15C1988.15,-136.87 2002.56,-124.72 2015.06,-114.18"/>
<polygon fill="black" stroke="black" points="2017.55,-116.66 2022.93,-107.54 2013.03,-111.31 2017.55,-116.66"/>
</g>
<!-- r&#45;paireddata&#45;&gt;conda&#45;forge&#45;pinning -->
<g id="edge56" class="edge">
<title>r&#45;paireddata&#45;&gt;conda&#45;forge&#45;pinning</title>
<path fill="none" stroke="black" d="M1992.1,-77.54C1981.09,-75.39 1969.47,-73.39 1958.54,-72 1639.21,-31.44 1258.63,-21.83 1072.87,-19.61"/>
<polygon fill="black" stroke="black" points="1072.86,-16.11 1062.82,-19.5 1072.78,-23.11 1072.86,-16.11"/>
</g>
</g>
</svg>
