<?xml version="1.0" encoding="UTF-8" standalone="no"?>
<!DOCTYPE svg PUBLIC "-//W3C//DTD SVG 1.1//EN"
 "http://www.w3.org/Graphics/SVG/1.1/DTD/svg11.dtd">
<!-- Generated by graphviz version 2.42.3 (20191010.1750)
 -->
<!-- Title: %3 Pages: 1 -->
<svg width="2603pt" height="476pt"
 viewBox="0.00 0.00 2603.40 476.00" xmlns="http://www.w3.org/2000/svg" xmlns:xlink="http://www.w3.org/1999/xlink">
<g id="graph0" class="graph" transform="scale(1 1) rotate(0) translate(4 472)">
<title>%3</title>
<polygon fill="white" stroke="transparent" points="-4,4 -4,-472 2599.4,-472 2599.4,4 -4,4"/>
<!-- r&#45;fst -->
<g id="node1" class="node">
<title>r&#45;fst</title>
<g id="a_node1"><a xlink:href="https://github.com/conda-forge/r-fst-feedstock/pull/11" xlink:title="r fst">
<ellipse fill="#31688e" stroke="black" cx="38.4" cy="-162" rx="35.19" ry="18"/>
<text text-anchor="middle" x="38.4" y="-158.3" font-family="Times,serif" font-size="14.00" fill="white">r fst</text>
</a>
</g>
</g>
<!-- r&#45;disk.frame -->
<g id="node2" class="node">
<title>r&#45;disk.frame</title>
<g id="a_node2"><a xlink:href="https://github.com/conda-forge/r-disk.frame-feedstock" xlink:title="r disk frame">
<ellipse fill="#fde725" stroke="black" cx="87.4" cy="-90" rx="69.59" ry="18"/>
<text text-anchor="middle" x="87.4" y="-86.3" font-family="Times,serif" font-size="14.00">r disk frame</text>
</a>
</g>
</g>
<!-- r&#45;fst&#45;&gt;r&#45;disk.frame -->
<g id="edge1" class="edge">
<title>r&#45;fst&#45;&gt;r&#45;disk.frame</title>
<path fill="none" stroke="black" d="M49.77,-144.76C55.65,-136.35 62.98,-125.89 69.6,-116.44"/>
<polygon fill="black" stroke="black" points="72.55,-118.32 75.41,-108.12 66.81,-114.31 72.55,-118.32"/>
</g>
<!-- conda&#45;forge&#45;pinning -->
<g id="node3" class="node">
<title>conda&#45;forge&#45;pinning</title>
<ellipse fill="none" stroke="black" cx="1194.4" cy="-18" rx="103.5" ry="18"/>
<text text-anchor="middle" x="1194.4" y="-14.3" font-family="Times,serif" font-size="14.00">conda&#45;forge&#45;pinning</text>
</g>
<!-- r&#45;fst&#45;&gt;conda&#45;forge&#45;pinning -->
<g id="edge2" class="edge">
<title>r&#45;fst&#45;&gt;conda&#45;forge&#45;pinning</title>
<path fill="none" stroke="black" d="M24.57,-145.09C9.22,-125.48 -10.98,-92.27 8.4,-72 45.11,-33.61 792,-22.68 1081.3,-19.88"/>
<polygon fill="black" stroke="black" points="1081.43,-23.38 1091.4,-19.78 1081.37,-16.38 1081.43,-23.38"/>
</g>
<!-- r&#45;disk.frame&#45;&gt;conda&#45;forge&#45;pinning -->
<g id="edge3" class="edge">
<title>r&#45;disk.frame&#45;&gt;conda&#45;forge&#45;pinning</title>
<path fill="none" stroke="black" d="M137.84,-77.53C148.85,-75.38 160.48,-73.38 171.4,-72 499.71,-30.5 891.23,-21.33 1080.61,-19.41"/>
<polygon fill="black" stroke="black" points="1080.89,-22.91 1090.86,-19.32 1080.82,-15.91 1080.89,-22.91"/>
</g>
<!-- r&#45;hive -->
<g id="node4" class="node">
<title>r&#45;hive</title>
<g id="a_node4"><a xlink:href="https://github.com/conda-forge/r-hive-feedstock" xlink:title="r hive">
<ellipse fill="#fde725" stroke="black" cx="1326.4" cy="-378" rx="40.5" ry="18"/>
<text text-anchor="middle" x="1326.4" y="-374.3" font-family="Times,serif" font-size="14.00">r hive</text>
</a>
</g>
</g>
<!-- r&#45;hive&#45;&gt;conda&#45;forge&#45;pinning -->
<g id="edge4" class="edge">
<title>r&#45;hive&#45;&gt;conda&#45;forge&#45;pinning</title>
<path fill="none" stroke="black" d="M1320.03,-359.73C1298.73,-301.96 1229.84,-115.13 1204.17,-45.49"/>
<polygon fill="black" stroke="black" points="1207.45,-44.27 1200.7,-36.09 1200.88,-46.69 1207.45,-44.27"/>
</g>
<!-- r&#45;rjava -->
<g id="node5" class="node">
<title>r&#45;rjava</title>
<g id="a_node5"><a xlink:href="https://github.com/conda-forge/r-rjava-feedstock" xlink:title="r rjava">
<ellipse fill="#35b779" stroke="black" cx="881.4" cy="-450" rx="45" ry="18"/>
<text text-anchor="middle" x="881.4" y="-446.3" font-family="Times,serif" font-size="14.00">r rjava</text>
</a>
</g>
</g>
<!-- r&#45;rjava&#45;&gt;conda&#45;forge&#45;pinning -->
<g id="edge5" class="edge">
<title>r&#45;rjava&#45;&gt;conda&#45;forge&#45;pinning</title>
<path fill="none" stroke="black" d="M926.33,-447.54C1042.46,-443.3 1345.64,-429.12 1375.4,-396 1441.6,-322.32 1629.01,-714.33 1234.4,-72 1228.61,-62.57 1221.53,-52.76 1214.96,-44.18"/>
<polygon fill="black" stroke="black" points="1217.53,-41.79 1208.61,-36.07 1212.02,-46.1 1217.53,-41.79"/>
</g>
<!-- r&#45;rjava&#45;&gt;r&#45;hive -->
<g id="edge6" class="edge">
<title>r&#45;rjava&#45;&gt;r&#45;hive</title>
<path fill="none" stroke="black" d="M925.45,-445.9C998.96,-440.1 1150.94,-425.45 1276.4,-396 1279.81,-395.2 1283.31,-394.26 1286.8,-393.24"/>
<polygon fill="black" stroke="black" points="1288.03,-396.53 1296.53,-390.21 1285.95,-389.84 1288.03,-396.53"/>
</g>
<!-- r&#45;xlsx -->
<g id="node6" class="node">
<title>r&#45;xlsx</title>
<g id="a_node6"><a xlink:href="https://github.com/conda-forge/r-xlsx-feedstock" xlink:title="r xlsx">
<ellipse fill="#fde725" stroke="black" cx="440.4" cy="-306" rx="40.5" ry="18"/>
<text text-anchor="middle" x="440.4" y="-302.3" font-family="Times,serif" font-size="14.00">r xlsx</text>
</a>
</g>
</g>
<!-- r&#45;rjava&#45;&gt;r&#45;xlsx -->
<g id="edge7" class="edge">
<title>r&#45;rjava&#45;&gt;r&#45;xlsx</title>
<path fill="none" stroke="black" d="M836.82,-447.47C748.04,-443.7 552.89,-431.5 497.4,-396 474.55,-381.38 459.09,-353.97 450.1,-333.42"/>
<polygon fill="black" stroke="black" points="453.25,-331.88 446.2,-323.96 446.77,-334.54 453.25,-331.88"/>
</g>
<!-- r&#45;xlsxjars -->
<g id="node7" class="node">
<title>r&#45;xlsxjars</title>
<g id="a_node7"><a xlink:href="https://github.com/conda-forge/r-xlsxjars-feedstock" xlink:title="r xlsxjars">
<ellipse fill="#fde725" stroke="black" cx="385.4" cy="-378" rx="60" ry="18"/>
<text text-anchor="middle" x="385.4" y="-374.3" font-family="Times,serif" font-size="14.00">r xlsxjars</text>
</a>
</g>
</g>
<!-- r&#45;rjava&#45;&gt;r&#45;xlsxjars -->
<g id="edge8" class="edge">
<title>r&#45;rjava&#45;&gt;r&#45;xlsxjars</title>
<path fill="none" stroke="black" d="M838.05,-445.01C761.34,-437.63 596.82,-420.35 459.4,-396 453.18,-394.9 446.7,-393.61 440.27,-392.25"/>
<polygon fill="black" stroke="black" points="440.77,-388.78 430.26,-390.07 439.28,-395.62 440.77,-388.78"/>
</g>
<!-- r&#45;xlconnectjars -->
<g id="node8" class="node">
<title>r&#45;xlconnectjars</title>
<g id="a_node8"><a xlink:href="https://github.com/conda-forge/r-xlconnectjars-feedstock" xlink:title="r xlconnectjars">
<ellipse fill="#fde725" stroke="black" cx="185.4" cy="-378" rx="84" ry="18"/>
<text text-anchor="middle" x="185.4" y="-374.3" font-family="Times,serif" font-size="14.00">r xlconnectjars</text>
</a>
</g>
</g>
<!-- r&#45;rjava&#45;&gt;r&#45;xlconnectjars -->
<g id="edge9" class="edge">
<title>r&#45;rjava&#45;&gt;r&#45;xlconnectjars</title>
<path fill="none" stroke="black" d="M837,-446.34C737.58,-440.09 489.58,-422.97 283.4,-396 274.69,-394.86 265.58,-393.5 256.56,-392.06"/>
<polygon fill="black" stroke="black" points="256.88,-388.57 246.45,-390.4 255.75,-395.47 256.88,-388.57"/>
</g>
<!-- r&#45;xlconnect -->
<g id="node9" class="node">
<title>r&#45;xlconnect</title>
<g id="a_node9"><a xlink:href="https://github.com/conda-forge/r-xlconnect-feedstock" xlink:title="r xlconnect">
<ellipse fill="#fde725" stroke="black" cx="278.4" cy="-306" rx="64.5" ry="18"/>
<text text-anchor="middle" x="278.4" y="-302.3" font-family="Times,serif" font-size="14.00">r xlconnect</text>
</a>
</g>
</g>
<!-- r&#45;rjava&#45;&gt;r&#45;xlconnect -->
<g id="edge10" class="edge">
<title>r&#45;rjava&#45;&gt;r&#45;xlconnect</title>
<path fill="none" stroke="black" d="M836.83,-447.42C710.77,-442.58 358.13,-426.45 316.4,-396 296.64,-381.58 287.06,-354.77 282.48,-334.33"/>
<polygon fill="black" stroke="black" points="285.88,-333.46 280.51,-324.32 279.01,-334.81 285.88,-333.46"/>
</g>
<!-- r&#45;rcdklibs -->
<g id="node10" class="node">
<title>r&#45;rcdklibs</title>
<g id="a_node10"><a xlink:href="https://github.com/conda-forge/r-rcdklibs-feedstock" xlink:title="r rcdklibs">
<ellipse fill="#fde725" stroke="black" cx="616.4" cy="-378" rx="60" ry="18"/>
<text text-anchor="middle" x="616.4" y="-374.3" font-family="Times,serif" font-size="14.00">r rcdklibs</text>
</a>
</g>
</g>
<!-- r&#45;rjava&#45;&gt;r&#45;rcdklibs -->
<g id="edge11" class="edge">
<title>r&#45;rjava&#45;&gt;r&#45;rcdklibs</title>
<path fill="none" stroke="black" d="M844.83,-439.34C799.48,-427.36 721.81,-406.84 669.8,-393.1"/>
<polygon fill="black" stroke="black" points="670.64,-389.71 660.07,-390.54 668.85,-396.47 670.64,-389.71"/>
</g>
<!-- r&#45;rcdk -->
<g id="node11" class="node">
<title>r&#45;rcdk</title>
<g id="a_node11"><a xlink:href="https://github.com/conda-forge/r-rcdk-feedstock" xlink:title="r rcdk">
<ellipse fill="#fde725" stroke="black" cx="616.4" cy="-306" rx="40.5" ry="18"/>
<text text-anchor="middle" x="616.4" y="-302.3" font-family="Times,serif" font-size="14.00">r rcdk</text>
</a>
</g>
</g>
<!-- r&#45;rjava&#45;&gt;r&#45;rcdk -->
<g id="edge12" class="edge">
<title>r&#45;rjava&#45;&gt;r&#45;rcdk</title>
<path fill="none" stroke="black" d="M855.51,-435.13C807.35,-409.32 704.02,-353.95 650.34,-325.19"/>
<polygon fill="black" stroke="black" points="651.7,-321.95 641.23,-320.31 648.4,-328.12 651.7,-321.95"/>
</g>
<!-- r&#45;rchoicedialogs -->
<g id="node12" class="node">
<title>r&#45;rchoicedialogs</title>
<g id="a_node12"><a xlink:href="https://github.com/conda-forge/r-rchoicedialogs-feedstock" xlink:title="r rchoicedialogs">
<ellipse fill="#fde725" stroke="black" cx="764.4" cy="-306" rx="89.08" ry="18"/>
<text text-anchor="middle" x="764.4" y="-302.3" font-family="Times,serif" font-size="14.00">r rchoicedialogs</text>
</a>
</g>
</g>
<!-- r&#45;rjava&#45;&gt;r&#45;rchoicedialogs -->
<g id="edge13" class="edge">
<title>r&#45;rjava&#45;&gt;r&#45;rchoicedialogs</title>
<path fill="none" stroke="black" d="M867.98,-432.71C847.66,-408.05 808.92,-361.03 785.01,-332.01"/>
<polygon fill="black" stroke="black" points="787.45,-329.47 778.39,-323.98 782.05,-333.92 787.45,-329.47"/>
</g>
<!-- r&#45;rwekajars -->
<g id="node13" class="node">
<title>r&#45;rwekajars</title>
<g id="a_node13"><a xlink:href="https://github.com/conda-forge/r-rwekajars-feedstock" xlink:title="r rwekajars">
<ellipse fill="#fde725" stroke="black" cx="776.4" cy="-234" rx="64.5" ry="18"/>
<text text-anchor="middle" x="776.4" y="-230.3" font-family="Times,serif" font-size="14.00">r rwekajars</text>
</a>
</g>
</g>
<!-- r&#45;rjava&#45;&gt;r&#45;rwekajars -->
<g id="edge14" class="edge">
<title>r&#45;rjava&#45;&gt;r&#45;rwekajars</title>
<path fill="none" stroke="black" d="M883.94,-431.9C887.66,-400.63 891.32,-333.32 862.4,-288 852.95,-273.19 837.72,-261.85 822.68,-253.54"/>
<polygon fill="black" stroke="black" points="823.89,-250.22 813.4,-248.75 820.68,-256.44 823.89,-250.22"/>
</g>
<!-- r&#45;rweka -->
<g id="node14" class="node">
<title>r&#45;rweka</title>
<g id="a_node14"><a xlink:href="https://github.com/conda-forge/r-rweka-feedstock" xlink:title="r rweka">
<ellipse fill="#fde725" stroke="black" cx="831.4" cy="-162" rx="45" ry="18"/>
<text text-anchor="middle" x="831.4" y="-158.3" font-family="Times,serif" font-size="14.00">r rweka</text>
</a>
</g>
</g>
<!-- r&#45;rjava&#45;&gt;r&#45;rweka -->
<g id="edge15" class="edge">
<title>r&#45;rjava&#45;&gt;r&#45;rweka</title>
<path fill="none" stroke="black" d="M889.1,-432.22C893.36,-421.99 898.22,-408.52 900.4,-396 903.14,-380.24 902.15,-375.9 900.4,-360 893.36,-295.85 862.72,-225.62 844.73,-188.81"/>
<polygon fill="black" stroke="black" points="847.82,-187.17 840.23,-179.77 841.55,-190.28 847.82,-187.17"/>
</g>
<!-- r&#45;subspace -->
<g id="node15" class="node">
<title>r&#45;subspace</title>
<g id="a_node15"><a xlink:href="https://github.com/conda-forge/r-subspace-feedstock" xlink:title="r subspace">
<ellipse fill="#fde725" stroke="black" cx="957.4" cy="-234" rx="60" ry="18"/>
<text text-anchor="middle" x="957.4" y="-230.3" font-family="Times,serif" font-size="14.00">r subspace</text>
</a>
</g>
</g>
<!-- r&#45;rjava&#45;&gt;r&#45;subspace -->
<g id="edge16" class="edge">
<title>r&#45;rjava&#45;&gt;r&#45;subspace</title>
<path fill="none" stroke="black" d="M901.62,-433.8C912.84,-424.23 925.99,-410.89 933.4,-396 954.9,-352.81 958.4,-295.64 958.34,-262.33"/>
<polygon fill="black" stroke="black" points="961.84,-261.95 958.21,-252 954.84,-262.05 961.84,-261.95"/>
</g>
<!-- r&#45;rmcfs -->
<g id="node16" class="node">
<title>r&#45;rmcfs</title>
<g id="a_node16"><a xlink:href="https://github.com/conda-forge/r-rmcfs-feedstock" xlink:title="r rmcfs">
<ellipse fill="#fde725" stroke="black" cx="1022.4" cy="-162" rx="45" ry="18"/>
<text text-anchor="middle" x="1022.4" y="-158.3" font-family="Times,serif" font-size="14.00">r rmcfs</text>
</a>
</g>
</g>
<!-- r&#45;rjava&#45;&gt;r&#45;rmcfs -->
<g id="edge17" class="edge">
<title>r&#45;rjava&#45;&gt;r&#45;rmcfs</title>
<path fill="none" stroke="black" d="M906.78,-434.84C922.04,-425.37 941.03,-411.77 954.4,-396 1000.67,-341.42 1009.96,-321.64 1026.4,-252 1031.22,-231.58 1029.81,-207.82 1027.42,-189.99"/>
<polygon fill="black" stroke="black" points="1030.86,-189.35 1025.89,-179.99 1023.94,-190.4 1030.86,-189.35"/>
</g>
<!-- r&#45;rjdbc -->
<g id="node17" class="node">
<title>r&#45;rjdbc</title>
<g id="a_node17"><a xlink:href="https://github.com/conda-forge/r-rjdbc-feedstock" xlink:title="r rjdbc">
<ellipse fill="#fde725" stroke="black" cx="1064.4" cy="-90" rx="45" ry="18"/>
<text text-anchor="middle" x="1064.4" y="-86.3" font-family="Times,serif" font-size="14.00">r rjdbc</text>
</a>
</g>
</g>
<!-- r&#45;rjava&#45;&gt;r&#45;rjdbc -->
<g id="edge18" class="edge">
<title>r&#45;rjava&#45;&gt;r&#45;rjdbc</title>
<path fill="none" stroke="black" d="M914.67,-437.59C936.12,-428.89 963.44,-415.12 982.4,-396 1015.38,-362.73 1074.17,-191.69 1076.4,-180 1080.36,-159.26 1076.77,-135.56 1072.51,-117.83"/>
<polygon fill="black" stroke="black" points="1075.9,-116.94 1069.98,-108.15 1069.12,-118.71 1075.9,-116.94"/>
</g>
<!-- r&#45;tabulizer -->
<g id="node18" class="node">
<title>r&#45;tabulizer</title>
<g id="a_node18"><a xlink:href="https://github.com/conda-forge/r-tabulizer-feedstock" xlink:title="r tabulizer">
<ellipse fill="#fde725" stroke="black" cx="1126.4" cy="-306" rx="64.5" ry="18"/>
<text text-anchor="middle" x="1126.4" y="-302.3" font-family="Times,serif" font-size="14.00">r tabulizer</text>
</a>
</g>
</g>
<!-- r&#45;rjava&#45;&gt;r&#45;tabulizer -->
<g id="edge19" class="edge">
<title>r&#45;rjava&#45;&gt;r&#45;tabulizer</title>
<path fill="none" stroke="black" d="M922.25,-442.28C957.57,-435.06 1008.86,-421.08 1047.4,-396 1073.04,-379.31 1095.45,-352.15 1109.79,-332.21"/>
<polygon fill="black" stroke="black" points="1112.75,-334.1 1115.61,-323.9 1107.01,-330.08 1112.75,-334.1"/>
</g>
<!-- r&#45;tabulizerjars -->
<g id="node19" class="node">
<title>r&#45;tabulizerjars</title>
<g id="a_node19"><a xlink:href="https://github.com/conda-forge/r-tabulizerjars-feedstock" xlink:title="r tabulizerjars">
<ellipse fill="#fde725" stroke="black" cx="1183.4" cy="-378" rx="84" ry="18"/>
<text text-anchor="middle" x="1183.4" y="-374.3" font-family="Times,serif" font-size="14.00">r tabulizerjars</text>
</a>
</g>
</g>
<!-- r&#45;rjava&#45;&gt;r&#45;tabulizerjars -->
<g id="edge20" class="edge">
<title>r&#45;rjava&#45;&gt;r&#45;tabulizerjars</title>
<path fill="none" stroke="black" d="M919.34,-440.21C969.32,-428.62 1057.94,-408.08 1118.62,-394.01"/>
<polygon fill="black" stroke="black" points="1119.54,-397.4 1128.49,-391.73 1117.96,-390.58 1119.54,-397.4"/>
</g>
<!-- r&#45;destinie -->
<g id="node20" class="node">
<title>r&#45;destinie</title>
<g id="a_node20"><a xlink:href="https://github.com/conda-forge/r-destinie-feedstock" xlink:title="r destinie">
<ellipse fill="#fde725" stroke="black" cx="503.4" cy="-234" rx="60" ry="18"/>
<text text-anchor="middle" x="503.4" y="-230.3" font-family="Times,serif" font-size="14.00">r destinie</text>
</a>
</g>
</g>
<!-- r&#45;rjava&#45;&gt;r&#45;destinie -->
<g id="edge21" class="edge">
<title>r&#45;rjava&#45;&gt;r&#45;destinie</title>
<path fill="none" stroke="black" d="M836.45,-447.75C755.39,-444.56 589.27,-433.52 547.4,-396 509.46,-362 502.88,-298.76 502.48,-262.49"/>
<polygon fill="black" stroke="black" points="505.98,-262.17 502.53,-252.15 498.98,-262.14 505.98,-262.17"/>
</g>
<!-- r&#45;xlsx&#45;&gt;conda&#45;forge&#45;pinning -->
<g id="edge22" class="edge">
<title>r&#45;xlsx&#45;&gt;conda&#45;forge&#45;pinning</title>
<path fill="none" stroke="black" d="M435.54,-288.12C431.13,-269.86 426.42,-240.11 434.4,-216 459.45,-140.3 471.67,-110.67 541.4,-72 587.57,-46.39 910.28,-30.05 1084.1,-23"/>
<polygon fill="black" stroke="black" points="1084.45,-26.49 1094.3,-22.59 1084.17,-19.5 1084.45,-26.49"/>
</g>
<!-- r&#45;xlsx&#45;&gt;r&#45;destinie -->
<g id="edge23" class="edge">
<title>r&#45;xlsx&#45;&gt;r&#45;destinie</title>
<path fill="none" stroke="black" d="M454.7,-289.12C462.6,-280.33 472.6,-269.23 481.47,-259.37"/>
<polygon fill="black" stroke="black" points="484.2,-261.57 488.28,-251.8 478.99,-256.89 484.2,-261.57"/>
</g>
<!-- r&#45;xlsxjars&#45;&gt;conda&#45;forge&#45;pinning -->
<g id="edge24" class="edge">
<title>r&#45;xlsxjars&#45;&gt;conda&#45;forge&#45;pinning</title>
<path fill="none" stroke="black" d="M382.63,-360C378.55,-333.42 371.4,-280.33 371.4,-235 371.4,-235 371.4,-235 371.4,-161 371.4,-96.02 426.69,-95.17 487.4,-72 592.75,-31.79 909.47,-21.99 1081.02,-19.67"/>
<polygon fill="black" stroke="black" points="1081.14,-23.16 1091.1,-19.53 1081.05,-16.16 1081.14,-23.16"/>
</g>
<!-- r&#45;xlsxjars&#45;&gt;r&#45;xlsx -->
<g id="edge25" class="edge">
<title>r&#45;xlsxjars&#45;&gt;r&#45;xlsx</title>
<path fill="none" stroke="black" d="M398.44,-360.41C405.22,-351.78 413.64,-341.06 421.15,-331.5"/>
<polygon fill="black" stroke="black" points="424.03,-333.5 427.46,-323.47 418.53,-329.17 424.03,-333.5"/>
</g>
<!-- r&#45;xlconnectjars&#45;&gt;conda&#45;forge&#45;pinning -->
<g id="edge26" class="edge">
<title>r&#45;xlconnectjars&#45;&gt;conda&#45;forge&#45;pinning</title>
<path fill="none" stroke="black" d="M185.4,-359.95C185.4,-333.29 185.4,-280.11 185.4,-235 185.4,-235 185.4,-235 185.4,-161 185.4,-88.76 252.83,-94.73 321.4,-72 459.06,-26.37 877.37,-19.33 1080.84,-18.69"/>
<polygon fill="black" stroke="black" points="1080.97,-22.19 1090.96,-18.66 1080.95,-15.19 1080.97,-22.19"/>
</g>
<!-- r&#45;xlconnectjars&#45;&gt;r&#45;xlconnect -->
<g id="edge27" class="edge">
<title>r&#45;xlconnectjars&#45;&gt;r&#45;xlconnect</title>
<path fill="none" stroke="black" d="M207.44,-360.41C219.81,-351.1 235.4,-339.37 248.82,-329.27"/>
<polygon fill="black" stroke="black" points="250.96,-332.04 256.84,-323.23 246.75,-326.45 250.96,-332.04"/>
</g>
<!-- r&#45;xlconnect&#45;&gt;conda&#45;forge&#45;pinning -->
<g id="edge28" class="edge">
<title>r&#45;xlconnect&#45;&gt;conda&#45;forge&#45;pinning</title>
<path fill="none" stroke="black" d="M278.27,-287.93C278.96,-243.77 287.54,-125.5 357.4,-72 413.48,-29.05 865.44,-20.76 1080.91,-19.26"/>
<polygon fill="black" stroke="black" points="1081.02,-22.76 1090.99,-19.2 1080.97,-15.76 1081.02,-22.76"/>
</g>
<!-- r&#45;rcdklibs&#45;&gt;conda&#45;forge&#45;pinning -->
<g id="edge29" class="edge">
<title>r&#45;rcdklibs&#45;&gt;conda&#45;forge&#45;pinning</title>
<path fill="none" stroke="black" d="M595.11,-361.11C584.3,-351.68 572.24,-338.7 566.4,-324 560.49,-309.13 562.55,-303.53 566.4,-288 592.6,-182.23 591.46,-132.03 682.4,-72 745.68,-30.23 950.06,-20.55 1080.66,-18.77"/>
<polygon fill="black" stroke="black" points="1080.76,-22.27 1090.71,-18.64 1080.67,-15.27 1080.76,-22.27"/>
</g>
<!-- r&#45;rcdklibs&#45;&gt;r&#45;rcdk -->
<g id="edge30" class="edge">
<title>r&#45;rcdklibs&#45;&gt;r&#45;rcdk</title>
<path fill="none" stroke="black" d="M616.4,-359.7C616.4,-351.98 616.4,-342.71 616.4,-334.11"/>
<polygon fill="black" stroke="black" points="619.9,-334.1 616.4,-324.1 612.9,-334.1 619.9,-334.1"/>
</g>
<!-- r&#45;rcdk&#45;&gt;conda&#45;forge&#45;pinning -->
<g id="edge31" class="edge">
<title>r&#45;rcdk&#45;&gt;conda&#45;forge&#45;pinning</title>
<path fill="none" stroke="black" d="M618.4,-287.97C624.55,-243.89 647.52,-125.81 721.4,-72 776.87,-31.6 959.44,-21.31 1080.86,-19.07"/>
<polygon fill="black" stroke="black" points="1081.01,-22.57 1090.95,-18.9 1080.89,-15.57 1081.01,-22.57"/>
</g>
<!-- r&#45;rchoicedialogs&#45;&gt;conda&#45;forge&#45;pinning -->
<g id="edge32" class="edge">
<title>r&#45;rchoicedialogs&#45;&gt;conda&#45;forge&#45;pinning</title>
<path fill="none" stroke="black" d="M736.2,-288.86C723.35,-279.83 709.45,-267.3 702.4,-252 674.79,-192.07 713.9,-104.82 755.4,-72 804.32,-33.32 967.97,-22.39 1081.01,-19.56"/>
<polygon fill="black" stroke="black" points="1081.19,-23.06 1091.11,-19.33 1081.03,-16.06 1081.19,-23.06"/>
</g>
<!-- r&#45;rwekajars&#45;&gt;conda&#45;forge&#45;pinning -->
<g id="edge33" class="edge">
<title>r&#45;rwekajars&#45;&gt;conda&#45;forge&#45;pinning</title>
<path fill="none" stroke="black" d="M769.92,-215.9C758.85,-183.43 740.73,-112.47 776.4,-72 796.74,-48.92 970.84,-33.29 1087.84,-25.28"/>
<polygon fill="black" stroke="black" points="1088.18,-28.76 1097.92,-24.6 1087.71,-21.78 1088.18,-28.76"/>
</g>
<!-- r&#45;rwekajars&#45;&gt;r&#45;rweka -->
<g id="edge34" class="edge">
<title>r&#45;rwekajars&#45;&gt;r&#45;rweka</title>
<path fill="none" stroke="black" d="M789.71,-216.05C796.5,-207.42 804.88,-196.76 812.33,-187.27"/>
<polygon fill="black" stroke="black" points="815.16,-189.33 818.59,-179.31 809.66,-185.01 815.16,-189.33"/>
</g>
<!-- r&#45;rweka&#45;&gt;conda&#45;forge&#45;pinning -->
<g id="edge35" class="edge">
<title>r&#45;rweka&#45;&gt;conda&#45;forge&#45;pinning</title>
<path fill="none" stroke="black" d="M813.35,-145.44C793.5,-126.48 766.86,-94.24 786.4,-72 806.11,-49.57 974.12,-33.83 1088.3,-25.61"/>
<polygon fill="black" stroke="black" points="1088.76,-29.09 1098.49,-24.89 1088.27,-22.1 1088.76,-29.09"/>
</g>
<!-- r&#45;fselector -->
<g id="node21" class="node">
<title>r&#45;fselector</title>
<g id="a_node21"><a xlink:href="https://github.com/conda-forge/r-fselector-feedstock" xlink:title="r fselector">
<ellipse fill="#fde725" stroke="black" cx="860.4" cy="-90" rx="64.5" ry="18"/>
<text text-anchor="middle" x="860.4" y="-86.3" font-family="Times,serif" font-size="14.00">r fselector</text>
</a>
</g>
</g>
<!-- r&#45;rweka&#45;&gt;r&#45;fselector -->
<g id="edge36" class="edge">
<title>r&#45;rweka&#45;&gt;r&#45;fselector</title>
<path fill="none" stroke="black" d="M838.42,-144.05C841.69,-136.18 845.65,-126.62 849.3,-117.79"/>
<polygon fill="black" stroke="black" points="852.65,-118.85 853.24,-108.28 846.18,-116.17 852.65,-118.85"/>
</g>
<!-- r&#45;subspace&#45;&gt;conda&#45;forge&#45;pinning -->
<g id="edge37" class="edge">
<title>r&#45;subspace&#45;&gt;conda&#45;forge&#45;pinning</title>
<path fill="none" stroke="black" d="M956.06,-215.99C954.47,-182.71 956.23,-108.99 998.4,-72 1024.57,-49.05 1059.72,-35.91 1093.02,-28.44"/>
<polygon fill="black" stroke="black" points="1093.74,-31.87 1102.81,-26.39 1092.31,-25.01 1093.74,-31.87"/>
</g>
<!-- r&#45;rmcfs&#45;&gt;conda&#45;forge&#45;pinning -->
<g id="edge38" class="edge">
<title>r&#45;rmcfs&#45;&gt;conda&#45;forge&#45;pinning</title>
<path fill="none" stroke="black" d="M1013.54,-144.1C1004.74,-124.72 994.65,-92.93 1010.4,-72 1023.15,-55.06 1068.88,-41.84 1111.56,-32.84"/>
<polygon fill="black" stroke="black" points="1112.36,-36.25 1121.46,-30.82 1110.96,-29.39 1112.36,-36.25"/>
</g>
<!-- r&#45;rjdbc&#45;&gt;conda&#45;forge&#45;pinning -->
<g id="edge39" class="edge">
<title>r&#45;rjdbc&#45;&gt;conda&#45;forge&#45;pinning</title>
<path fill="none" stroke="black" d="M1090.08,-75.17C1108.65,-65.17 1134.07,-51.49 1155.16,-40.13"/>
<polygon fill="black" stroke="black" points="1157.06,-43.08 1164.21,-35.26 1153.74,-36.92 1157.06,-43.08"/>
</g>
<!-- r&#45;tabulizer&#45;&gt;conda&#45;forge&#45;pinning -->
<g id="edge40" class="edge">
<title>r&#45;tabulizer&#45;&gt;conda&#45;forge&#45;pinning</title>
<path fill="none" stroke="black" d="M1126.62,-287.75C1127.64,-248.29 1133.05,-148.96 1161.4,-72 1164.87,-62.59 1170.14,-53.06 1175.46,-44.72"/>
<polygon fill="black" stroke="black" points="1178.51,-46.46 1181.17,-36.21 1172.69,-42.56 1178.51,-46.46"/>
</g>
<!-- r&#45;tabulizerjars&#45;&gt;conda&#45;forge&#45;pinning -->
<g id="edge41" class="edge">
<title>r&#45;tabulizerjars&#45;&gt;conda&#45;forge&#45;pinning</title>
<path fill="none" stroke="black" d="M1190.05,-359.63C1193.6,-349.42 1197.6,-336.17 1199.4,-324 1201.74,-308.17 1199.55,-304 1199.4,-288 1198.58,-199.63 1196.24,-94.96 1195.08,-46.34"/>
<polygon fill="black" stroke="black" points="1198.58,-46.22 1194.83,-36.31 1191.58,-46.39 1198.58,-46.22"/>
</g>
<!-- r&#45;tabulizerjars&#45;&gt;r&#45;tabulizer -->
<g id="edge42" class="edge">
<title>r&#45;tabulizerjars&#45;&gt;r&#45;tabulizer</title>
<path fill="none" stroke="black" d="M1169.6,-360.05C1162.67,-351.54 1154.14,-341.07 1146.5,-331.68"/>
<polygon fill="black" stroke="black" points="1149.1,-329.33 1140.07,-323.79 1143.67,-333.75 1149.1,-329.33"/>
</g>
<!-- r&#45;destinie&#45;&gt;conda&#45;forge&#45;pinning -->
<g id="edge43" class="edge">
<title>r&#45;destinie&#45;&gt;conda&#45;forge&#45;pinning</title>
<path fill="none" stroke="black" d="M505.64,-215.81C511.08,-181.86 528.33,-106.5 577.4,-72 617.7,-43.66 916.57,-28.74 1083.1,-22.54"/>
<polygon fill="black" stroke="black" points="1083.52,-26.03 1093.38,-22.16 1083.26,-19.03 1083.52,-26.03"/>
</g>
<!-- r&#45;fselector&#45;&gt;conda&#45;forge&#45;pinning -->
<g id="edge50" class="edge">
<title>r&#45;fselector&#45;&gt;conda&#45;forge&#45;pinning</title>
<path fill="none" stroke="black" d="M909.7,-78.34C919.53,-76.22 929.79,-74.03 939.4,-72 1000.37,-59.1 1069.59,-44.73 1120.52,-34.21"/>
<polygon fill="black" stroke="black" points="1121.36,-37.61 1130.45,-32.16 1119.95,-30.76 1121.36,-37.61"/>
</g>
<!-- rpy2 -->
<g id="node22" class="node">
<title>rpy2</title>
<g id="a_node22"><a xlink:href="https://github.com/conda-forge/rpy2-feedstock/pull/55" xlink:title="rpy2">
<ellipse fill="#31688e" stroke="black" cx="1375.4" cy="-162" rx="30.59" ry="18"/>
<text text-anchor="middle" x="1375.4" y="-158.3" font-family="Times,serif" font-size="14.00" fill="white">rpy2</text>
</a>
</g>
</g>
<!-- rpy2&#45;&gt;conda&#45;forge&#45;pinning -->
<g id="edge44" class="edge">
<title>rpy2&#45;&gt;conda&#45;forge&#45;pinning</title>
<path fill="none" stroke="black" d="M1357.32,-147.28C1343.52,-136.71 1324.09,-121.64 1307.4,-108 1288.37,-92.44 1284.6,-87.36 1265.4,-72 1252.62,-61.77 1238.19,-50.88 1225.7,-41.66"/>
<polygon fill="black" stroke="black" points="1227.53,-38.66 1217.4,-35.56 1223.39,-44.3 1227.53,-38.66"/>
</g>
<!-- iterativewgcna -->
<g id="node23" class="node">
<title>iterativewgcna</title>
<g id="a_node23"><a xlink:href="https://github.com/conda-forge/iterativewgcna-feedstock" xlink:title="iterativewgcna">
<ellipse fill="#fde725" stroke="black" cx="1396.4" cy="-90" rx="79.5" ry="18"/>
<text text-anchor="middle" x="1396.4" y="-86.3" font-family="Times,serif" font-size="14.00">iterativewgcna</text>
</a>
</g>
</g>
<!-- rpy2&#45;&gt;iterativewgcna -->
<g id="edge45" class="edge">
<title>rpy2&#45;&gt;iterativewgcna</title>
<path fill="none" stroke="black" d="M1380.48,-144.05C1382.82,-136.26 1385.65,-126.82 1388.28,-118.08"/>
<polygon fill="black" stroke="black" points="1391.7,-118.86 1391.22,-108.28 1384.99,-116.85 1391.7,-118.86"/>
</g>
<!-- iterativewgcna&#45;&gt;conda&#45;forge&#45;pinning -->
<g id="edge46" class="edge">
<title>iterativewgcna&#45;&gt;conda&#45;forge&#45;pinning</title>
<path fill="none" stroke="black" d="M1354.55,-74.5C1323.73,-63.82 1281.57,-49.21 1248.24,-37.66"/>
<polygon fill="black" stroke="black" points="1249.25,-34.3 1238.65,-34.33 1246.95,-40.92 1249.25,-34.3"/>
</g>
<!-- r&#45;rvaidememoire -->
<g id="node24" class="node">
<title>r&#45;rvaidememoire</title>
<g id="a_node24"><a xlink:href="https://github.com/conda-forge/r-rvaidememoire-feedstock" xlink:title="r rvaidememoire">
<ellipse fill="#35b779" stroke="black" cx="1577.4" cy="-90" rx="84" ry="18"/>
<text text-anchor="middle" x="1577.4" y="-86.3" font-family="Times,serif" font-size="14.00">r rvaidememoire</text>
</a>
</g>
</g>
<!-- r&#45;rvaidememoire&#45;&gt;conda&#45;forge&#45;pinning -->
<g id="edge47" class="edge">
<title>r&#45;rvaidememoire&#45;&gt;conda&#45;forge&#45;pinning</title>
<path fill="none" stroke="black" d="M1515.44,-77.68C1449.42,-65.61 1344.73,-46.48 1272.97,-33.36"/>
<polygon fill="black" stroke="black" points="1273.53,-29.91 1263.07,-31.55 1272.28,-36.79 1273.53,-29.91"/>
</g>
<!-- r&#45;bezier -->
<g id="node25" class="node">
<title>r&#45;bezier</title>
<g id="a_node25"><a xlink:href="https://github.com/conda-forge/r-bezier-feedstock/pull/3" xlink:title="r bezier">
<ellipse fill="#31688e" stroke="black" cx="1649.4" cy="-162" rx="50.09" ry="18"/>
<text text-anchor="middle" x="1649.4" y="-158.3" font-family="Times,serif" font-size="14.00" fill="white">r bezier</text>
</a>
</g>
</g>
<!-- r&#45;bezier&#45;&gt;conda&#45;forge&#45;pinning -->
<g id="edge48" class="edge">
<title>r&#45;bezier&#45;&gt;conda&#45;forge&#45;pinning</title>
<path fill="none" stroke="black" d="M1661.01,-144.43C1673.23,-124.76 1688.4,-92.11 1670.4,-72 1646.39,-45.16 1436.9,-30.38 1303.96,-23.62"/>
<polygon fill="black" stroke="black" points="1303.89,-20.11 1293.73,-23.11 1303.54,-27.11 1303.89,-20.11"/>
</g>
<!-- r&#45;hiver -->
<g id="node26" class="node">
<title>r&#45;hiver</title>
<g id="a_node26"><a xlink:href="https://github.com/conda-forge/r-hiver-feedstock" xlink:title="r hiver">
<ellipse fill="#35b779" stroke="black" cx="1727.4" cy="-234" rx="45" ry="18"/>
<text text-anchor="middle" x="1727.4" y="-230.3" font-family="Times,serif" font-size="14.00">r hiver</text>
</a>
</g>
</g>
<!-- r&#45;hiver&#45;&gt;conda&#45;forge&#45;pinning -->
<g id="edge49" class="edge">
<title>r&#45;hiver&#45;&gt;conda&#45;forge&#45;pinning</title>
<path fill="none" stroke="black" d="M1729.21,-215.89C1731.69,-182.43 1731.77,-108.4 1689.4,-72 1660.72,-47.36 1439.95,-31.64 1303.1,-24.16"/>
<polygon fill="black" stroke="black" points="1303.17,-20.66 1292.99,-23.61 1302.79,-27.65 1303.17,-20.66"/>
</g>
<!-- r&#45;feasts -->
<g id="node27" class="node">
<title>r&#45;feasts</title>
<g id="a_node27"><a xlink:href="https://github.com/conda-forge/r-feasts-feedstock" xlink:title="r feasts">
<ellipse fill="#fde725" stroke="black" cx="1881.4" cy="-90" rx="50.09" ry="18"/>
<text text-anchor="middle" x="1881.4" y="-86.3" font-family="Times,serif" font-size="14.00">r feasts</text>
</a>
</g>
</g>
<!-- r&#45;feasts&#45;&gt;conda&#45;forge&#45;pinning -->
<g id="edge51" class="edge">
<title>r&#45;feasts&#45;&gt;conda&#45;forge&#45;pinning</title>
<path fill="none" stroke="black" d="M1844.08,-77.91C1835.39,-75.66 1826.12,-73.52 1817.4,-72 1639.92,-41.12 1430.73,-28.01 1305.53,-22.6"/>
<polygon fill="black" stroke="black" points="1305.31,-19.09 1295.17,-22.16 1305.01,-26.08 1305.31,-19.09"/>
</g>
<!-- r&#45;littler -->
<g id="node28" class="node">
<title>r&#45;littler</title>
<g id="a_node28"><a xlink:href="https://github.com/conda-forge/r-littler-feedstock/pull/2" xlink:title="r littler">
<ellipse fill="#31688e" stroke="black" cx="1959.4" cy="-306" rx="54.69" ry="18"/>
<text text-anchor="middle" x="1959.4" y="-302.3" font-family="Times,serif" font-size="14.00" fill="white">r littler</text>
</a>
</g>
</g>
<!-- r&#45;littler&#45;&gt;conda&#45;forge&#45;pinning -->
<g id="edge52" class="edge">
<title>r&#45;littler&#45;&gt;conda&#45;forge&#45;pinning</title>
<path fill="none" stroke="black" d="M1964.48,-287.91C1976.15,-244.73 1999.54,-130.52 1940.4,-72 1896.52,-28.57 1506.08,-20.42 1308.24,-19.1"/>
<polygon fill="black" stroke="black" points="1308.12,-15.6 1298.1,-19.03 1308.08,-22.6 1308.12,-15.6"/>
</g>
<!-- r&#45;rxode -->
<g id="node29" class="node">
<title>r&#45;rxode</title>
<g id="a_node29"><a xlink:href="https://github.com/conda-forge/r-rxode-feedstock" xlink:title="r rxode">
<ellipse fill="#fde725" stroke="black" cx="2115.4" cy="-162" rx="45" ry="18"/>
<text text-anchor="middle" x="2115.4" y="-158.3" font-family="Times,serif" font-size="14.00">r rxode</text>
</a>
</g>
</g>
<!-- r&#45;rxode&#45;&gt;conda&#45;forge&#45;pinning -->
<g id="edge53" class="edge">
<title>r&#45;rxode&#45;&gt;conda&#45;forge&#45;pinning</title>
<path fill="none" stroke="black" d="M2117.29,-143.9C2118.49,-123.4 2116.9,-89.6 2096.4,-72 2037.92,-21.77 1537.39,-17.43 1308.18,-18.12"/>
<polygon fill="black" stroke="black" points="1308.13,-14.62 1298.14,-18.16 1308.15,-21.62 1308.13,-14.62"/>
</g>
<!-- r&#45;nlmixr -->
<g id="node30" class="node">
<title>r&#45;nlmixr</title>
<g id="a_node30"><a xlink:href="https://github.com/conda-forge/r-nlmixr-feedstock" xlink:title="r nlmixr">
<ellipse fill="#fde725" stroke="black" cx="2037.4" cy="-90" rx="50.09" ry="18"/>
<text text-anchor="middle" x="2037.4" y="-86.3" font-family="Times,serif" font-size="14.00">r nlmixr</text>
</a>
</g>
</g>
<!-- r&#45;rxode&#45;&gt;r&#45;nlmixr -->
<g id="edge54" class="edge">
<title>r&#45;rxode&#45;&gt;r&#45;nlmixr</title>
<path fill="none" stroke="black" d="M2097.7,-145.12C2087.4,-135.87 2074.25,-124.07 2062.85,-113.84"/>
<polygon fill="black" stroke="black" points="2065.08,-111.14 2055.3,-107.06 2060.41,-116.35 2065.08,-111.14"/>
</g>
<!-- r&#45;nlmixr&#45;&gt;conda&#45;forge&#45;pinning -->
<g id="edge55" class="edge">
<title>r&#45;nlmixr&#45;&gt;conda&#45;forge&#45;pinning</title>
<path fill="none" stroke="black" d="M2000.1,-77.81C1991.4,-75.56 1982.13,-73.44 1973.4,-72 1738.89,-33.24 1460.17,-22.71 1307.82,-19.93"/>
<polygon fill="black" stroke="black" points="1307.58,-16.42 1297.52,-19.75 1307.45,-23.42 1307.58,-16.42"/>
</g>
<!-- r&#45;lotri -->
<g id="node31" class="node">
<title>r&#45;lotri</title>
<g id="a_node31"><a xlink:href="https://github.com/conda-forge/r-lotri-feedstock" xlink:title="r lotri">
<ellipse fill="#35b779" stroke="black" cx="2184.4" cy="-234" rx="45" ry="18"/>
<text text-anchor="middle" x="2184.4" y="-230.3" font-family="Times,serif" font-size="14.00">r lotri</text>
</a>
</g>
</g>
<!-- r&#45;lotri&#45;&gt;conda&#45;forge&#45;pinning -->
<g id="edge56" class="edge">
<title>r&#45;lotri&#45;&gt;conda&#45;forge&#45;pinning</title>
<path fill="none" stroke="black" d="M2201.09,-217.24C2232.38,-185.85 2293.18,-114.87 2252.4,-72 2220.24,-38.18 1573.72,-24.67 1307.48,-20.53"/>
<polygon fill="black" stroke="black" points="1307.45,-17.02 1297.4,-20.37 1307.34,-24.02 1307.45,-17.02"/>
</g>
<!-- r&#45;lotri&#45;&gt;r&#45;rxode -->
<g id="edge57" class="edge">
<title>r&#45;lotri&#45;&gt;r&#45;rxode</title>
<path fill="none" stroke="black" d="M2168.74,-217.12C2159.87,-208.12 2148.6,-196.68 2138.71,-186.65"/>
<polygon fill="black" stroke="black" points="2140.99,-183.97 2131.47,-179.31 2136,-188.89 2140.99,-183.97"/>
</g>
<!-- r&#45;tiledb -->
<g id="node32" class="node">
<title>r&#45;tiledb</title>
<g id="a_node32"><a xlink:href="https://github.com/conda-forge/r-tiledb-feedstock/pull/5" xlink:title="r tiledb">
<ellipse fill="#31688e" stroke="black" cx="2399.4" cy="-378" rx="50.09" ry="18"/>
<text text-anchor="middle" x="2399.4" y="-374.3" font-family="Times,serif" font-size="14.00" fill="white">r tiledb</text>
</a>
</g>
</g>
<!-- r&#45;tiledb&#45;&gt;conda&#45;forge&#45;pinning -->
<g id="edge58" class="edge">
<title>r&#45;tiledb&#45;&gt;conda&#45;forge&#45;pinning</title>
<path fill="none" stroke="black" d="M2399.4,-359.95C2399.4,-333.29 2399.4,-280.11 2399.4,-235 2399.4,-235 2399.4,-235 2399.4,-161 2399.4,-105.99 2363.51,-94.68 2313.4,-72 2223.58,-31.36 1574.03,-21.85 1307.78,-19.65"/>
<polygon fill="black" stroke="black" points="1307.73,-16.15 1297.7,-19.57 1307.67,-23.15 1307.73,-16.15"/>
</g>
<!-- r&#45;raceid -->
<g id="node33" class="node">
<title>r&#45;raceid</title>
<g id="a_node33"><a xlink:href="https://github.com/conda-forge/r-raceid-feedstock" xlink:title="r raceid">
<ellipse fill="#35b779" stroke="black" cx="2193.4" cy="-90" rx="50.09" ry="18"/>
<text text-anchor="middle" x="2193.4" y="-86.3" font-family="Times,serif" font-size="14.00">r raceid</text>
</a>
</g>
</g>
<!-- r&#45;raceid&#45;&gt;conda&#45;forge&#45;pinning -->
<g id="edge59" class="edge">
<title>r&#45;raceid&#45;&gt;conda&#45;forge&#45;pinning</title>
<path fill="none" stroke="black" d="M2156.45,-77.82C2147.66,-75.54 2138.26,-73.41 2129.4,-72 1836.06,-25.22 1485.18,-18.22 1308.31,-18.04"/>
<polygon fill="black" stroke="black" points="1308.21,-14.54 1298.21,-18.04 1308.21,-21.54 1308.21,-14.54"/>
</g>
<!-- r&#45;botor -->
<g id="node34" class="node">
<title>r&#45;botor</title>
<g id="a_node34"><a xlink:href="https://github.com/conda-forge/r-botor-feedstock" xlink:title="r botor">
<ellipse fill="#35b779" stroke="black" cx="2326.4" cy="-162" rx="45" ry="18"/>
<text text-anchor="middle" x="2326.4" y="-158.3" font-family="Times,serif" font-size="14.00">r botor</text>
</a>
</g>
</g>
<!-- r&#45;botor&#45;&gt;conda&#45;forge&#45;pinning -->
<g id="edge60" class="edge">
<title>r&#45;botor&#45;&gt;conda&#45;forge&#45;pinning</title>
<path fill="none" stroke="black" d="M2323.89,-143.83C2319.82,-122.92 2309.65,-88.37 2285.4,-72 2245.35,-44.96 1577.12,-27.37 1306.68,-21.33"/>
<polygon fill="black" stroke="black" points="1306.52,-17.83 1296.45,-21.11 1306.37,-24.83 1306.52,-17.83"/>
</g>
<!-- r&#45;slider -->
<g id="node35" class="node">
<title>r&#45;slider</title>
<g id="a_node35"><a xlink:href="https://github.com/conda-forge/r-slider-feedstock" xlink:title="r slider">
<ellipse fill="#fde725" stroke="black" cx="1843.4" cy="-162" rx="50.09" ry="18"/>
<text text-anchor="middle" x="1843.4" y="-158.3" font-family="Times,serif" font-size="14.00">r slider</text>
</a>
</g>
</g>
<!-- r&#45;slider&#45;&gt;conda&#45;forge&#45;pinning -->
<g id="edge61" class="edge">
<title>r&#45;slider&#45;&gt;conda&#45;forge&#45;pinning</title>
<path fill="none" stroke="black" d="M1836.6,-144.15C1827.17,-123.23 1807.99,-88.33 1779.4,-72 1701.68,-27.62 1455.49,-19.18 1308.41,-18.26"/>
<polygon fill="black" stroke="black" points="1308.02,-14.76 1298,-18.21 1307.98,-21.76 1308.02,-14.76"/>
</g>
<!-- r&#45;slider&#45;&gt;r&#45;feasts -->
<g id="edge62" class="edge">
<title>r&#45;slider&#45;&gt;r&#45;feasts</title>
<path fill="none" stroke="black" d="M1852.6,-144.05C1857.03,-135.89 1862.45,-125.91 1867.38,-116.82"/>
<polygon fill="black" stroke="black" points="1870.59,-118.25 1872.29,-107.79 1864.44,-114.91 1870.59,-118.25"/>
</g>
<!-- r&#45;comparegroups -->
<g id="node36" class="node">
<title>r&#45;comparegroups</title>
<g id="a_node36"><a xlink:href="https://github.com/conda-forge/r-comparegroups-feedstock" xlink:title="r comparegroups">
<ellipse fill="#35b779" stroke="black" cx="2511.4" cy="-234" rx="84" ry="18"/>
<text text-anchor="middle" x="2511.4" y="-230.3" font-family="Times,serif" font-size="14.00">r comparegroups</text>
</a>
</g>
</g>
<!-- r&#45;comparegroups&#45;&gt;conda&#45;forge&#45;pinning -->
<g id="edge63" class="edge">
<title>r&#45;comparegroups&#45;&gt;conda&#45;forge&#45;pinning</title>
<path fill="none" stroke="black" d="M2506.87,-215.99C2496.73,-181.67 2468.62,-104.63 2413.4,-72 2366.26,-44.14 1599.82,-26.71 1306.95,-21.03"/>
<polygon fill="black" stroke="black" points="1306.8,-17.53 1296.74,-20.84 1306.67,-24.53 1306.8,-17.53"/>
</g>
<!-- r&#45;warp -->
<g id="node37" class="node">
<title>r&#45;warp</title>
<g id="a_node37"><a xlink:href="https://github.com/conda-forge/r-warp-feedstock" xlink:title="r warp">
<ellipse fill="#35b779" stroke="black" cx="1837.4" cy="-234" rx="40.5" ry="18"/>
<text text-anchor="middle" x="1837.4" y="-230.3" font-family="Times,serif" font-size="14.00">r warp</text>
</a>
</g>
</g>
<!-- r&#45;warp&#45;&gt;conda&#45;forge&#45;pinning -->
<g id="edge64" class="edge">
<title>r&#45;warp&#45;&gt;conda&#45;forge&#45;pinning</title>
<path fill="none" stroke="black" d="M1820.17,-217.65C1809.29,-207.51 1795.28,-193.63 1784.4,-180 1749.01,-135.67 1764.61,-101.89 1716.4,-72 1650.38,-31.06 1440.63,-21.15 1307.97,-19.09"/>
<polygon fill="black" stroke="black" points="1307.81,-15.59 1297.76,-18.95 1307.71,-22.59 1307.81,-15.59"/>
</g>
<!-- r&#45;warp&#45;&gt;r&#45;slider -->
<g id="edge65" class="edge">
<title>r&#45;warp&#45;&gt;r&#45;slider</title>
<path fill="none" stroke="black" d="M1838.88,-215.7C1839.55,-207.98 1840.34,-198.71 1841.08,-190.11"/>
<polygon fill="black" stroke="black" points="1844.57,-190.37 1841.93,-180.1 1837.59,-189.77 1844.57,-190.37"/>
</g>
</g>
</svg>
