<?xml version="1.0" encoding="UTF-8" standalone="no"?>
<!DOCTYPE svg PUBLIC "-//W3C//DTD SVG 1.1//EN"
 "http://www.w3.org/Graphics/SVG/1.1/DTD/svg11.dtd">
<!-- Generated by graphviz version 2.42.3 (20191010.1750)
 -->
<!-- Title: %3 Pages: 1 -->
<svg width="2945pt" height="476pt"
 viewBox="0.00 0.00 2944.59 476.00" xmlns="http://www.w3.org/2000/svg" xmlns:xlink="http://www.w3.org/1999/xlink">
<g id="graph0" class="graph" transform="scale(1 1) rotate(0) translate(4 472)">
<title>%3</title>
<polygon fill="white" stroke="transparent" points="-4,4 -4,-472 2940.59,-472 2940.59,4 -4,4"/>
<!-- r&#45;ahocorasicktrie -->
<g id="node1" class="node">
<title>r&#45;ahocorasicktrie</title>
<g id="a_node1"><a xlink:href="https://github.com/conda-forge/r-ahocorasicktrie-feedstock" xlink:title="r ahocorasicktrie">
<ellipse fill="#35b779" stroke="black" cx="93.59" cy="-90" rx="93.68" ry="18"/>
<text text-anchor="middle" x="93.59" y="-86.3" font-family="Times,serif" font-size="14.00">r ahocorasicktrie</text>
</a>
</g>
</g>
<!-- conda&#45;forge&#45;pinning -->
<g id="node2" class="node">
<title>conda&#45;forge&#45;pinning</title>
<ellipse fill="none" stroke="black" cx="1377.59" cy="-18" rx="103.5" ry="18"/>
<text text-anchor="middle" x="1377.59" y="-14.3" font-family="Times,serif" font-size="14.00">conda&#45;forge&#45;pinning</text>
</g>
<!-- r&#45;ahocorasicktrie&#45;&gt;conda&#45;forge&#45;pinning -->
<g id="edge1" class="edge">
<title>r&#45;ahocorasicktrie&#45;&gt;conda&#45;forge&#45;pinning</title>
<path fill="none" stroke="black" d="M160.27,-77.32C173.91,-75.26 188.18,-73.35 201.59,-72 590.22,-32.78 1054.03,-22.58 1264.16,-19.93"/>
<polygon fill="black" stroke="black" points="1264.32,-23.43 1274.28,-19.81 1264.23,-16.43 1264.32,-23.43"/>
</g>
<!-- r&#45;akima -->
<g id="node3" class="node">
<title>r&#45;akima</title>
<g id="a_node3"><a xlink:href="https://github.com/conda-forge/r-akima-feedstock" xlink:title="r akima">
<ellipse fill="#35b779" stroke="black" cx="215.59" cy="-162" rx="45" ry="18"/>
<text text-anchor="middle" x="215.59" y="-158.3" font-family="Times,serif" font-size="14.00">r akima</text>
</a>
</g>
</g>
<!-- r&#45;akima&#45;&gt;conda&#45;forge&#45;pinning -->
<g id="edge2" class="edge">
<title>r&#45;akima&#45;&gt;conda&#45;forge&#45;pinning</title>
<path fill="none" stroke="black" d="M219.07,-143.76C224.3,-122.78 236.41,-88.16 261.59,-72 303.31,-45.22 990.35,-27.41 1265.23,-21.32"/>
<polygon fill="black" stroke="black" points="1265.31,-24.82 1275.23,-21.1 1265.15,-17.82 1265.31,-24.82"/>
</g>
<!-- r&#45;fst -->
<g id="node4" class="node">
<title>r&#45;fst</title>
<g id="a_node4"><a xlink:href="https://github.com/conda-forge/r-fst-feedstock/pull/11" xlink:title="r fst">
<ellipse fill="#31688e" stroke="black" cx="335.59" cy="-162" rx="35.19" ry="18"/>
<text text-anchor="middle" x="335.59" y="-158.3" font-family="Times,serif" font-size="14.00" fill="white">r fst</text>
</a>
</g>
</g>
<!-- r&#45;fst&#45;&gt;conda&#45;forge&#45;pinning -->
<g id="edge3" class="edge">
<title>r&#45;fst&#45;&gt;conda&#45;forge&#45;pinning</title>
<path fill="none" stroke="black" d="M314.25,-147.42C288,-129.14 249.6,-96.12 272.59,-72 306.42,-36.51 989.52,-23.91 1264.43,-20.27"/>
<polygon fill="black" stroke="black" points="1264.48,-23.77 1274.44,-20.14 1264.39,-16.77 1264.48,-23.77"/>
</g>
<!-- r&#45;disk.frame -->
<g id="node5" class="node">
<title>r&#45;disk.frame</title>
<g id="a_node5"><a xlink:href="https://github.com/conda-forge/r-disk.frame-feedstock" xlink:title="r disk frame">
<ellipse fill="#fde725" stroke="black" cx="351.59" cy="-90" rx="69.59" ry="18"/>
<text text-anchor="middle" x="351.59" y="-86.3" font-family="Times,serif" font-size="14.00">r disk frame</text>
</a>
</g>
</g>
<!-- r&#45;fst&#45;&gt;r&#45;disk.frame -->
<g id="edge4" class="edge">
<title>r&#45;fst&#45;&gt;r&#45;disk.frame</title>
<path fill="none" stroke="black" d="M339.46,-144.05C341.25,-136.26 343.4,-126.82 345.4,-118.08"/>
<polygon fill="black" stroke="black" points="348.83,-118.8 347.64,-108.28 342,-117.24 348.83,-118.8"/>
</g>
<!-- r&#45;disk.frame&#45;&gt;conda&#45;forge&#45;pinning -->
<g id="edge5" class="edge">
<title>r&#45;disk.frame&#45;&gt;conda&#45;forge&#45;pinning</title>
<path fill="none" stroke="black" d="M402.03,-77.57C413.05,-75.42 424.67,-73.4 435.59,-72 733.21,-33.71 1087.26,-23.08 1264.57,-20.13"/>
<polygon fill="black" stroke="black" points="1264.75,-23.63 1274.7,-19.97 1264.64,-16.63 1264.75,-23.63"/>
</g>
<!-- r&#45;hive -->
<g id="node6" class="node">
<title>r&#45;hive</title>
<g id="a_node6"><a xlink:href="https://github.com/conda-forge/r-hive-feedstock" xlink:title="r hive">
<ellipse fill="#fde725" stroke="black" cx="1275.59" cy="-234" rx="40.5" ry="18"/>
<text text-anchor="middle" x="1275.59" y="-230.3" font-family="Times,serif" font-size="14.00">r hive</text>
</a>
</g>
</g>
<!-- r&#45;hive&#45;&gt;conda&#45;forge&#45;pinning -->
<g id="edge6" class="edge">
<title>r&#45;hive&#45;&gt;conda&#45;forge&#45;pinning</title>
<path fill="none" stroke="black" d="M1268.98,-215.89C1258.09,-184.63 1240.25,-117.3 1268.59,-72 1278.43,-56.27 1294.43,-45.09 1311.16,-37.19"/>
<polygon fill="black" stroke="black" points="1312.73,-40.33 1320.51,-33.13 1309.94,-33.91 1312.73,-40.33"/>
</g>
<!-- r&#45;rjava -->
<g id="node7" class="node">
<title>r&#45;rjava</title>
<g id="a_node7"><a xlink:href="https://github.com/conda-forge/r-rjava-feedstock" xlink:title="r rjava">
<ellipse fill="#35b779" stroke="black" cx="934.59" cy="-450" rx="45" ry="18"/>
<text text-anchor="middle" x="934.59" y="-446.3" font-family="Times,serif" font-size="14.00">r rjava</text>
</a>
</g>
</g>
<!-- r&#45;rjava&#45;&gt;conda&#45;forge&#45;pinning -->
<g id="edge7" class="edge">
<title>r&#45;rjava&#45;&gt;conda&#45;forge&#45;pinning</title>
<path fill="none" stroke="black" d="M979.23,-446.87C1085.17,-441.36 1344.9,-425 1370.59,-396 1381.2,-384.02 1371.48,-375.98 1370.59,-360 1367.92,-311.78 1362.27,-300.16 1358.59,-252 1356.16,-220.07 1356.26,-212.02 1355.59,-180 1355.26,-164 1355.26,-160 1355.59,-144 1356.26,-111.98 1352.45,-103.43 1358.59,-72 1360.3,-63.27 1363.19,-54.05 1366.21,-45.79"/>
<polygon fill="black" stroke="black" points="1369.54,-46.88 1369.89,-36.29 1363.02,-44.35 1369.54,-46.88"/>
</g>
<!-- r&#45;rjava&#45;&gt;r&#45;hive -->
<g id="edge8" class="edge">
<title>r&#45;rjava&#45;&gt;r&#45;hive</title>
<path fill="none" stroke="black" d="M979.01,-446.65C1081.77,-440.76 1329.08,-423.81 1353.59,-396 1364.17,-384 1358.08,-375.36 1353.59,-360 1348.27,-341.78 1340.69,-340.08 1330.59,-324 1317.1,-302.52 1301.96,-277.99 1290.98,-260.13"/>
<polygon fill="black" stroke="black" points="1293.87,-258.14 1285.66,-251.45 1287.9,-261.8 1293.87,-258.14"/>
</g>
<!-- r&#45;xlsx -->
<g id="node8" class="node">
<title>r&#45;xlsx</title>
<g id="a_node8"><a xlink:href="https://github.com/conda-forge/r-xlsx-feedstock" xlink:title="r xlsx">
<ellipse fill="#fde725" stroke="black" cx="796.59" cy="-306" rx="40.5" ry="18"/>
<text text-anchor="middle" x="796.59" y="-302.3" font-family="Times,serif" font-size="14.00">r xlsx</text>
</a>
</g>
</g>
<!-- r&#45;rjava&#45;&gt;r&#45;xlsx -->
<g id="edge9" class="edge">
<title>r&#45;rjava&#45;&gt;r&#45;xlsx</title>
<path fill="none" stroke="black" d="M904.66,-436.49C885.67,-427.41 861.57,-413.63 844.59,-396 827.27,-378.02 814.38,-352.55 806.35,-333.46"/>
<polygon fill="black" stroke="black" points="809.57,-332.1 802.59,-324.13 803.08,-334.72 809.57,-332.1"/>
</g>
<!-- r&#45;xlsxjars -->
<g id="node9" class="node">
<title>r&#45;xlsxjars</title>
<g id="a_node9"><a xlink:href="https://github.com/conda-forge/r-xlsxjars-feedstock" xlink:title="r xlsxjars">
<ellipse fill="#fde725" stroke="black" cx="732.59" cy="-378" rx="60" ry="18"/>
<text text-anchor="middle" x="732.59" y="-374.3" font-family="Times,serif" font-size="14.00">r xlsxjars</text>
</a>
</g>
</g>
<!-- r&#45;rjava&#45;&gt;r&#45;xlsxjars -->
<g id="edge10" class="edge">
<title>r&#45;rjava&#45;&gt;r&#45;xlsxjars</title>
<path fill="none" stroke="black" d="M901.69,-437.6C868.64,-426.15 817.39,-408.39 779.97,-395.42"/>
<polygon fill="black" stroke="black" points="780.89,-392.03 770.3,-392.07 778.6,-398.65 780.89,-392.03"/>
</g>
<!-- r&#45;xlconnectjars -->
<g id="node10" class="node">
<title>r&#45;xlconnectjars</title>
<g id="a_node10"><a xlink:href="https://github.com/conda-forge/r-xlconnectjars-feedstock" xlink:title="r xlconnectjars">
<ellipse fill="#fde725" stroke="black" cx="1522.59" cy="-378" rx="84" ry="18"/>
<text text-anchor="middle" x="1522.59" y="-374.3" font-family="Times,serif" font-size="14.00">r xlconnectjars</text>
</a>
</g>
</g>
<!-- r&#45;rjava&#45;&gt;r&#45;xlconnectjars -->
<g id="edge11" class="edge">
<title>r&#45;rjava&#45;&gt;r&#45;xlconnectjars</title>
<path fill="none" stroke="black" d="M978.3,-445.22C1064.08,-437.59 1260.42,-419.09 1424.59,-396 1433.16,-394.79 1442.14,-393.41 1451.03,-391.96"/>
<polygon fill="black" stroke="black" points="1451.71,-395.39 1461,-390.3 1450.56,-388.49 1451.71,-395.39"/>
</g>
<!-- r&#45;xlconnect -->
<g id="node11" class="node">
<title>r&#45;xlconnect</title>
<g id="a_node11"><a xlink:href="https://github.com/conda-forge/r-xlconnect-feedstock" xlink:title="r xlconnect">
<ellipse fill="#fde725" stroke="black" cx="1475.59" cy="-306" rx="64.5" ry="18"/>
<text text-anchor="middle" x="1475.59" y="-302.3" font-family="Times,serif" font-size="14.00">r xlconnect</text>
</a>
</g>
</g>
<!-- r&#45;rjava&#45;&gt;r&#45;xlconnect -->
<g id="edge12" class="edge">
<title>r&#45;rjava&#45;&gt;r&#45;xlconnect</title>
<path fill="none" stroke="black" d="M979.58,-448.95C1124.53,-448.33 1572.46,-442.62 1615.59,-396 1626.46,-384.26 1624.68,-373.17 1615.59,-360 1605.54,-345.45 1566.63,-331.4 1532.37,-321.42"/>
<polygon fill="black" stroke="black" points="1532.96,-317.95 1522.39,-318.59 1531.05,-324.68 1532.96,-317.95"/>
</g>
<!-- r&#45;rcdklibs -->
<g id="node12" class="node">
<title>r&#45;rcdklibs</title>
<g id="a_node12"><a xlink:href="https://github.com/conda-forge/r-rcdklibs-feedstock" xlink:title="r rcdklibs">
<ellipse fill="#fde725" stroke="black" cx="1060.59" cy="-378" rx="60" ry="18"/>
<text text-anchor="middle" x="1060.59" y="-374.3" font-family="Times,serif" font-size="14.00">r rcdklibs</text>
</a>
</g>
</g>
<!-- r&#45;rjava&#45;&gt;r&#45;rcdklibs -->
<g id="edge13" class="edge">
<title>r&#45;rjava&#45;&gt;r&#45;rcdklibs</title>
<path fill="none" stroke="black" d="M959.79,-435C978.3,-424.72 1003.74,-410.59 1024.42,-399.09"/>
<polygon fill="black" stroke="black" points="1026.21,-402.1 1033.26,-394.19 1022.82,-395.98 1026.21,-402.1"/>
</g>
<!-- r&#45;rcdk -->
<g id="node13" class="node">
<title>r&#45;rcdk</title>
<g id="a_node13"><a xlink:href="https://github.com/conda-forge/r-rcdk-feedstock" xlink:title="r rcdk">
<ellipse fill="#fde725" stroke="black" cx="1010.59" cy="-306" rx="40.5" ry="18"/>
<text text-anchor="middle" x="1010.59" y="-302.3" font-family="Times,serif" font-size="14.00">r rcdk</text>
</a>
</g>
</g>
<!-- r&#45;rjava&#45;&gt;r&#45;rcdk -->
<g id="edge14" class="edge">
<title>r&#45;rjava&#45;&gt;r&#45;rcdk</title>
<path fill="none" stroke="black" d="M943.61,-432.15C956.75,-407.6 981.28,-361.77 996.73,-332.91"/>
<polygon fill="black" stroke="black" points="999.95,-334.29 1001.59,-323.82 993.78,-330.99 999.95,-334.29"/>
</g>
<!-- r&#45;rchoicedialogs -->
<g id="node14" class="node">
<title>r&#45;rchoicedialogs</title>
<g id="a_node14"><a xlink:href="https://github.com/conda-forge/r-rchoicedialogs-feedstock" xlink:title="r rchoicedialogs">
<ellipse fill="#fde725" stroke="black" cx="395.59" cy="-306" rx="89.08" ry="18"/>
<text text-anchor="middle" x="395.59" y="-302.3" font-family="Times,serif" font-size="14.00">r rchoicedialogs</text>
</a>
</g>
</g>
<!-- r&#45;rjava&#45;&gt;r&#45;rchoicedialogs -->
<g id="edge15" class="edge">
<title>r&#45;rjava&#45;&gt;r&#45;rchoicedialogs</title>
<path fill="none" stroke="black" d="M890.31,-446.32C796.6,-440.18 581.25,-423.47 513.59,-396 476.8,-381.06 441.37,-351.66 419.1,-330.74"/>
<polygon fill="black" stroke="black" points="421.43,-328.13 411.79,-323.73 416.59,-333.18 421.43,-328.13"/>
</g>
<!-- r&#45;rwekajars -->
<g id="node15" class="node">
<title>r&#45;rwekajars</title>
<g id="a_node15"><a xlink:href="https://github.com/conda-forge/r-rwekajars-feedstock" xlink:title="r rwekajars">
<ellipse fill="#fde725" stroke="black" cx="480.59" cy="-234" rx="64.5" ry="18"/>
<text text-anchor="middle" x="480.59" y="-230.3" font-family="Times,serif" font-size="14.00">r rwekajars</text>
</a>
</g>
</g>
<!-- r&#45;rjava&#45;&gt;r&#45;rwekajars -->
<g id="edge16" class="edge">
<title>r&#45;rjava&#45;&gt;r&#45;rwekajars</title>
<path fill="none" stroke="black" d="M889.7,-447.82C801.9,-444.69 611.49,-433.64 559.59,-396 536.31,-379.11 505.48,-302.74 490.13,-261.54"/>
<polygon fill="black" stroke="black" points="493.4,-260.29 486.66,-252.12 486.83,-262.71 493.4,-260.29"/>
</g>
<!-- r&#45;rweka -->
<g id="node16" class="node">
<title>r&#45;rweka</title>
<g id="a_node16"><a xlink:href="https://github.com/conda-forge/r-rweka-feedstock" xlink:title="r rweka">
<ellipse fill="#fde725" stroke="black" cx="567.59" cy="-162" rx="45" ry="18"/>
<text text-anchor="middle" x="567.59" y="-158.3" font-family="Times,serif" font-size="14.00">r rweka</text>
</a>
</g>
</g>
<!-- r&#45;rjava&#45;&gt;r&#45;rweka -->
<g id="edge17" class="edge">
<title>r&#45;rjava&#45;&gt;r&#45;rweka</title>
<path fill="none" stroke="black" d="M890.36,-446.35C818.12,-441.17 679.19,-427.33 642.59,-396 581.07,-343.33 569.58,-239.94 567.73,-190.55"/>
<polygon fill="black" stroke="black" points="571.22,-190.21 567.46,-180.31 564.22,-190.4 571.22,-190.21"/>
</g>
<!-- r&#45;subspace -->
<g id="node17" class="node">
<title>r&#45;subspace</title>
<g id="a_node17"><a xlink:href="https://github.com/conda-forge/r-subspace-feedstock" xlink:title="r subspace">
<ellipse fill="#fde725" stroke="black" cx="661.59" cy="-234" rx="60" ry="18"/>
<text text-anchor="middle" x="661.59" y="-230.3" font-family="Times,serif" font-size="14.00">r subspace</text>
</a>
</g>
</g>
<!-- r&#45;rjava&#45;&gt;r&#45;subspace -->
<g id="edge18" class="edge">
<title>r&#45;rjava&#45;&gt;r&#45;subspace</title>
<path fill="none" stroke="black" d="M890.17,-446.89C820.87,-442.57 691.99,-430.06 663.59,-396 632.28,-358.45 642.82,-297.06 652.64,-261.93"/>
<polygon fill="black" stroke="black" points="656.12,-262.51 655.62,-251.92 649.41,-260.51 656.12,-262.51"/>
</g>
<!-- r&#45;rmcfs -->
<g id="node18" class="node">
<title>r&#45;rmcfs</title>
<g id="a_node18"><a xlink:href="https://github.com/conda-forge/r-rmcfs-feedstock" xlink:title="r rmcfs">
<ellipse fill="#fde725" stroke="black" cx="928.59" cy="-162" rx="45" ry="18"/>
<text text-anchor="middle" x="928.59" y="-158.3" font-family="Times,serif" font-size="14.00">r rmcfs</text>
</a>
</g>
</g>
<!-- r&#45;rjava&#45;&gt;r&#45;rmcfs -->
<g id="edge19" class="edge">
<title>r&#45;rjava&#45;&gt;r&#45;rmcfs</title>
<path fill="none" stroke="black" d="M928.91,-432.04C925.77,-421.74 922.18,-408.27 920.59,-396 914.4,-348.3 914.81,-334.37 927.59,-288 932.3,-270.94 940.72,-269.27 944.59,-252 948.09,-236.39 946.93,-231.83 944.59,-216 943.29,-207.21 940.85,-197.86 938.25,-189.5"/>
<polygon fill="black" stroke="black" points="941.54,-188.29 935.08,-179.9 934.89,-190.49 941.54,-188.29"/>
</g>
<!-- r&#45;rjdbc -->
<g id="node19" class="node">
<title>r&#45;rjdbc</title>
<g id="a_node19"><a xlink:href="https://github.com/conda-forge/r-rjdbc-feedstock" xlink:title="r rjdbc">
<ellipse fill="#fde725" stroke="black" cx="1001.59" cy="-90" rx="45" ry="18"/>
<text text-anchor="middle" x="1001.59" y="-86.3" font-family="Times,serif" font-size="14.00">r rjdbc</text>
</a>
</g>
</g>
<!-- r&#45;rjava&#45;&gt;r&#45;rjdbc -->
<g id="edge20" class="edge">
<title>r&#45;rjava&#45;&gt;r&#45;rjdbc</title>
<path fill="none" stroke="black" d="M937.14,-431.56C941.53,-401.97 950.97,-340.07 960.59,-288 966.58,-255.57 986.04,-163.83 995.84,-117.9"/>
<polygon fill="black" stroke="black" points="999.27,-118.56 997.94,-108.05 992.43,-117.1 999.27,-118.56"/>
</g>
<!-- r&#45;tabulizer -->
<g id="node20" class="node">
<title>r&#45;tabulizer</title>
<g id="a_node20"><a xlink:href="https://github.com/conda-forge/r-tabulizer-feedstock" xlink:title="r tabulizer">
<ellipse fill="#fde725" stroke="black" cx="1172.59" cy="-306" rx="64.5" ry="18"/>
<text text-anchor="middle" x="1172.59" y="-302.3" font-family="Times,serif" font-size="14.00">r tabulizer</text>
</a>
</g>
</g>
<!-- r&#45;rjava&#45;&gt;r&#45;tabulizer -->
<g id="edge21" class="edge">
<title>r&#45;rjava&#45;&gt;r&#45;tabulizer</title>
<path fill="none" stroke="black" d="M979.29,-447.25C1022.26,-443.38 1086.81,-431.53 1129.59,-396 1148.7,-380.13 1159.95,-353.75 1166.12,-333.82"/>
<polygon fill="black" stroke="black" points="1169.52,-334.65 1168.89,-324.07 1162.79,-332.73 1169.52,-334.65"/>
</g>
<!-- r&#45;tabulizerjars -->
<g id="node21" class="node">
<title>r&#45;tabulizerjars</title>
<g id="a_node21"><a xlink:href="https://github.com/conda-forge/r-tabulizerjars-feedstock" xlink:title="r tabulizerjars">
<ellipse fill="#fde725" stroke="black" cx="1260.59" cy="-378" rx="84" ry="18"/>
<text text-anchor="middle" x="1260.59" y="-374.3" font-family="Times,serif" font-size="14.00">r tabulizerjars</text>
</a>
</g>
</g>
<!-- r&#45;rjava&#45;&gt;r&#45;tabulizerjars -->
<g id="edge22" class="edge">
<title>r&#45;rjava&#45;&gt;r&#45;tabulizerjars</title>
<path fill="none" stroke="black" d="M973.27,-440.7C1027.49,-429.05 1126.91,-407.71 1193.38,-393.43"/>
<polygon fill="black" stroke="black" points="1194.3,-396.81 1203.35,-391.29 1192.83,-389.97 1194.3,-396.81"/>
</g>
<!-- r&#45;destinie -->
<g id="node22" class="node">
<title>r&#45;destinie</title>
<g id="a_node22"><a xlink:href="https://github.com/conda-forge/r-destinie-feedstock" xlink:title="r destinie">
<ellipse fill="#fde725" stroke="black" cx="875.59" cy="-234" rx="60" ry="18"/>
<text text-anchor="middle" x="875.59" y="-230.3" font-family="Times,serif" font-size="14.00">r destinie</text>
</a>
</g>
</g>
<!-- r&#45;rjava&#45;&gt;r&#45;destinie -->
<g id="edge23" class="edge">
<title>r&#45;rjava&#45;&gt;r&#45;destinie</title>
<path fill="none" stroke="black" d="M913.52,-433.85C902.16,-424.38 889.16,-411.13 882.59,-396 863.67,-352.42 866.77,-295.82 871,-262.64"/>
<polygon fill="black" stroke="black" points="874.52,-262.73 872.45,-252.34 867.59,-261.76 874.52,-262.73"/>
</g>
<!-- r&#45;xlsx&#45;&gt;conda&#45;forge&#45;pinning -->
<g id="edge24" class="edge">
<title>r&#45;xlsx&#45;&gt;conda&#45;forge&#45;pinning</title>
<path fill="none" stroke="black" d="M796.94,-287.8C798.91,-242.79 811.2,-121.61 885.59,-72 945.57,-32 1138.36,-21.67 1264.05,-19.3"/>
<polygon fill="black" stroke="black" points="1264.17,-22.79 1274.11,-19.12 1264.05,-15.8 1264.17,-22.79"/>
</g>
<!-- r&#45;xlsx&#45;&gt;r&#45;destinie -->
<g id="edge25" class="edge">
<title>r&#45;xlsx&#45;&gt;r&#45;destinie</title>
<path fill="none" stroke="black" d="M814.12,-289.46C824.54,-280.24 837.94,-268.36 849.57,-258.05"/>
<polygon fill="black" stroke="black" points="852.12,-260.47 857.28,-251.22 847.48,-255.23 852.12,-260.47"/>
</g>
<!-- r&#45;xlsxjars&#45;&gt;conda&#45;forge&#45;pinning -->
<g id="edge26" class="edge">
<title>r&#45;xlsxjars&#45;&gt;conda&#45;forge&#45;pinning</title>
<path fill="none" stroke="black" d="M732.77,-359.94C734.35,-306.44 747.31,-141.34 845.59,-72 879.34,-48.19 1123.3,-31.87 1268.87,-24.13"/>
<polygon fill="black" stroke="black" points="1269.37,-27.61 1279.18,-23.59 1269.01,-20.62 1269.37,-27.61"/>
</g>
<!-- r&#45;xlsxjars&#45;&gt;r&#45;xlsx -->
<g id="edge27" class="edge">
<title>r&#45;xlsxjars&#45;&gt;r&#45;xlsx</title>
<path fill="none" stroke="black" d="M747.76,-360.41C755.93,-351.48 766.14,-340.31 775.11,-330.5"/>
<polygon fill="black" stroke="black" points="777.81,-332.73 781.97,-322.99 772.64,-328.01 777.81,-332.73"/>
</g>
<!-- r&#45;xlconnectjars&#45;&gt;conda&#45;forge&#45;pinning -->
<g id="edge28" class="edge">
<title>r&#45;xlconnectjars&#45;&gt;conda&#45;forge&#45;pinning</title>
<path fill="none" stroke="black" d="M1464.09,-365.05C1440.94,-357.27 1416.37,-344.58 1401.59,-324 1340.46,-238.89 1359.3,-103.82 1371.15,-46.34"/>
<polygon fill="black" stroke="black" points="1374.65,-46.74 1373.34,-36.23 1367.8,-45.27 1374.65,-46.74"/>
</g>
<!-- r&#45;xlconnectjars&#45;&gt;r&#45;xlconnect -->
<g id="edge29" class="edge">
<title>r&#45;xlconnectjars&#45;&gt;r&#45;xlconnect</title>
<path fill="none" stroke="black" d="M1511.21,-360.05C1505.61,-351.71 1498.75,-341.49 1492.55,-332.25"/>
<polygon fill="black" stroke="black" points="1495.34,-330.14 1486.86,-323.79 1489.53,-334.04 1495.34,-330.14"/>
</g>
<!-- r&#45;xlconnect&#45;&gt;conda&#45;forge&#45;pinning -->
<g id="edge30" class="edge">
<title>r&#45;xlconnect&#45;&gt;conda&#45;forge&#45;pinning</title>
<path fill="none" stroke="black" d="M1462.23,-288.12C1454.78,-278.07 1445.78,-264.82 1439.59,-252 1405.8,-182 1388.41,-90.96 1381.41,-46.23"/>
<polygon fill="black" stroke="black" points="1384.84,-45.52 1379.88,-36.15 1377.92,-46.56 1384.84,-45.52"/>
</g>
<!-- r&#45;rcdklibs&#45;&gt;conda&#45;forge&#45;pinning -->
<g id="edge31" class="edge">
<title>r&#45;rcdklibs&#45;&gt;conda&#45;forge&#45;pinning</title>
<path fill="none" stroke="black" d="M1061.29,-359.81C1064.36,-308.01 1080.81,-152.06 1168.59,-72 1196.21,-46.81 1234.09,-33.21 1270.01,-25.99"/>
<polygon fill="black" stroke="black" points="1270.89,-29.38 1280.08,-24.11 1269.61,-22.5 1270.89,-29.38"/>
</g>
<!-- r&#45;rcdklibs&#45;&gt;r&#45;rcdk -->
<g id="edge32" class="edge">
<title>r&#45;rcdklibs&#45;&gt;r&#45;rcdk</title>
<path fill="none" stroke="black" d="M1048.49,-360.05C1042.38,-351.5 1034.86,-340.97 1028.13,-331.56"/>
<polygon fill="black" stroke="black" points="1030.9,-329.41 1022.24,-323.31 1025.2,-333.48 1030.9,-329.41"/>
</g>
<!-- r&#45;rcdk&#45;&gt;conda&#45;forge&#45;pinning -->
<g id="edge33" class="edge">
<title>r&#45;rcdk&#45;&gt;conda&#45;forge&#45;pinning</title>
<path fill="none" stroke="black" d="M1011.6,-287.73C1015.12,-244.13 1030.72,-129.02 1098.59,-72 1125.35,-49.52 1208.05,-35.68 1276.51,-27.81"/>
<polygon fill="black" stroke="black" points="1276.95,-31.28 1286.5,-26.69 1276.17,-24.33 1276.95,-31.28"/>
</g>
<!-- r&#45;rchoicedialogs&#45;&gt;conda&#45;forge&#45;pinning -->
<g id="edge34" class="edge">
<title>r&#45;rchoicedialogs&#45;&gt;conda&#45;forge&#45;pinning</title>
<path fill="none" stroke="black" d="M395.44,-287.73C395.8,-269.4 397.87,-239.83 406.59,-216 432.85,-144.22 434.51,-110.4 500.59,-72 565.05,-34.54 1042.5,-23.39 1264.58,-20.21"/>
<polygon fill="black" stroke="black" points="1264.69,-23.7 1274.64,-20.06 1264.59,-16.7 1264.69,-23.7"/>
</g>
<!-- r&#45;rwekajars&#45;&gt;conda&#45;forge&#45;pinning -->
<g id="edge35" class="edge">
<title>r&#45;rwekajars&#45;&gt;conda&#45;forge&#45;pinning</title>
<path fill="none" stroke="black" d="M480.34,-215.92C480.87,-182.16 487.36,-107.14 532.59,-72 588.97,-28.2 1046.5,-20.35 1263.79,-19.12"/>
<polygon fill="black" stroke="black" points="1263.98,-22.62 1273.96,-19.06 1263.94,-15.62 1263.98,-22.62"/>
</g>
<!-- r&#45;rwekajars&#45;&gt;r&#45;rweka -->
<g id="edge36" class="edge">
<title>r&#45;rwekajars&#45;&gt;r&#45;rweka</title>
<path fill="none" stroke="black" d="M500.77,-216.76C512.55,-207.29 527.56,-195.21 540.37,-184.9"/>
<polygon fill="black" stroke="black" points="542.82,-187.42 548.42,-178.43 538.43,-181.97 542.82,-187.42"/>
</g>
<!-- r&#45;rweka&#45;&gt;conda&#45;forge&#45;pinning -->
<g id="edge37" class="edge">
<title>r&#45;rweka&#45;&gt;conda&#45;forge&#45;pinning</title>
<path fill="none" stroke="black" d="M555.49,-144.66C542.45,-124.93 525.92,-91.9 544.59,-72 568.9,-46.1 1044.81,-28.78 1266.15,-22.09"/>
<polygon fill="black" stroke="black" points="1266.28,-25.59 1276.17,-21.79 1266.07,-18.59 1266.28,-25.59"/>
</g>
<!-- r&#45;fselector -->
<g id="node23" class="node">
<title>r&#45;fselector</title>
<g id="a_node23"><a xlink:href="https://github.com/conda-forge/r-fselector-feedstock" xlink:title="r fselector">
<ellipse fill="#fde725" stroke="black" cx="618.59" cy="-90" rx="64.5" ry="18"/>
<text text-anchor="middle" x="618.59" y="-86.3" font-family="Times,serif" font-size="14.00">r fselector</text>
</a>
</g>
</g>
<!-- r&#45;rweka&#45;&gt;r&#45;fselector -->
<g id="edge38" class="edge">
<title>r&#45;rweka&#45;&gt;r&#45;fselector</title>
<path fill="none" stroke="black" d="M579.68,-144.41C585.81,-135.99 593.39,-125.58 600.23,-116.2"/>
<polygon fill="black" stroke="black" points="603.18,-118.1 606.24,-107.96 597.52,-113.98 603.18,-118.1"/>
</g>
<!-- r&#45;subspace&#45;&gt;conda&#45;forge&#45;pinning -->
<g id="edge39" class="edge">
<title>r&#45;subspace&#45;&gt;conda&#45;forge&#45;pinning</title>
<path fill="none" stroke="black" d="M663.83,-215.8C669.24,-181.82 686.46,-106.42 735.59,-72 777.91,-42.35 1093.74,-27.89 1266.1,-22.14"/>
<polygon fill="black" stroke="black" points="1266.35,-25.63 1276.23,-21.8 1266.12,-18.63 1266.35,-25.63"/>
</g>
<!-- r&#45;rmcfs&#45;&gt;conda&#45;forge&#45;pinning -->
<g id="edge40" class="edge">
<title>r&#45;rmcfs&#45;&gt;conda&#45;forge&#45;pinning</title>
<path fill="none" stroke="black" d="M926.88,-143.76C925.91,-123.44 927.79,-90.14 947.59,-72 992.44,-30.92 1152.19,-20.59 1263.8,-18.56"/>
<polygon fill="black" stroke="black" points="1264.16,-22.05 1274.1,-18.39 1264.05,-15.05 1264.16,-22.05"/>
</g>
<!-- r&#45;rjdbc&#45;&gt;conda&#45;forge&#45;pinning -->
<g id="edge41" class="edge">
<title>r&#45;rjdbc&#45;&gt;conda&#45;forge&#45;pinning</title>
<path fill="none" stroke="black" d="M1036.05,-78.35C1044.06,-76.08 1052.59,-73.82 1060.59,-72 1136.78,-54.71 1224.45,-40.48 1288.25,-31.14"/>
<polygon fill="black" stroke="black" points="1288.89,-34.58 1298.28,-29.68 1287.88,-27.65 1288.89,-34.58"/>
</g>
<!-- r&#45;tabulizer&#45;&gt;conda&#45;forge&#45;pinning -->
<g id="edge42" class="edge">
<title>r&#45;tabulizer&#45;&gt;conda&#45;forge&#45;pinning</title>
<path fill="none" stroke="black" d="M1168.22,-287.98C1158.51,-245.94 1139.95,-135.95 1192.59,-72 1206.23,-55.43 1252.79,-42.14 1295.78,-33.01"/>
<polygon fill="black" stroke="black" points="1296.65,-36.41 1305.74,-30.96 1295.24,-29.55 1296.65,-36.41"/>
</g>
<!-- r&#45;tabulizerjars&#45;&gt;conda&#45;forge&#45;pinning -->
<g id="edge43" class="edge">
<title>r&#45;tabulizerjars&#45;&gt;conda&#45;forge&#45;pinning</title>
<path fill="none" stroke="black" d="M1259.44,-359.84C1257.81,-341.59 1254.04,-312.1 1245.59,-288 1239.54,-270.73 1230.18,-269.72 1225.59,-252 1211.09,-196.05 1232.54,-96.92 1252.59,-72 1265.93,-55.43 1285.39,-43.95 1305.01,-36.04"/>
<polygon fill="black" stroke="black" points="1306.49,-39.23 1314.62,-32.44 1304.03,-32.67 1306.49,-39.23"/>
</g>
<!-- r&#45;tabulizerjars&#45;&gt;r&#45;tabulizer -->
<g id="edge44" class="edge">
<title>r&#45;tabulizerjars&#45;&gt;r&#45;tabulizer</title>
<path fill="none" stroke="black" d="M1239.74,-360.41C1228.15,-351.19 1213.56,-339.59 1200.95,-329.55"/>
<polygon fill="black" stroke="black" points="1203,-326.71 1192.99,-323.23 1198.64,-332.19 1203,-326.71"/>
</g>
<!-- r&#45;destinie&#45;&gt;conda&#45;forge&#45;pinning -->
<g id="edge45" class="edge">
<title>r&#45;destinie&#45;&gt;conda&#45;forge&#45;pinning</title>
<path fill="none" stroke="black" d="M872.22,-215.79C869.37,-197.49 866.84,-167.97 874.59,-144 886.74,-106.44 892.56,-91.99 926.59,-72 982.22,-39.32 1151.09,-26.76 1265.65,-21.96"/>
<polygon fill="black" stroke="black" points="1266.02,-25.44 1275.87,-21.54 1265.74,-18.45 1266.02,-25.44"/>
</g>
<!-- r&#45;fselector&#45;&gt;conda&#45;forge&#45;pinning -->
<g id="edge57" class="edge">
<title>r&#45;fselector&#45;&gt;conda&#45;forge&#45;pinning</title>
<path fill="none" stroke="black" d="M666.03,-77.71C676.38,-75.55 687.32,-73.5 697.59,-72 897.15,-42.89 1132.15,-29.05 1267.11,-23.05"/>
<polygon fill="black" stroke="black" points="1267.62,-26.53 1277.46,-22.6 1267.31,-19.54 1267.62,-26.53"/>
</g>
<!-- r&#45;taxizesoap -->
<g id="node24" class="node">
<title>r&#45;taxizesoap</title>
<g id="a_node24"><a xlink:href="https://github.com/conda-forge/r-taxizesoap-feedstock" xlink:title="r taxizesoap">
<ellipse fill="#35b779" stroke="black" cx="1518.59" cy="-234" rx="69.59" ry="18"/>
<text text-anchor="middle" x="1518.59" y="-230.3" font-family="Times,serif" font-size="14.00">r taxizesoap</text>
</a>
</g>
</g>
<!-- r&#45;taxizesoap&#45;&gt;conda&#45;forge&#45;pinning -->
<g id="edge46" class="edge">
<title>r&#45;taxizesoap&#45;&gt;conda&#45;forge&#45;pinning</title>
<path fill="none" stroke="black" d="M1496.55,-216.76C1484.36,-207.03 1469.5,-193.87 1458.59,-180 1425.29,-137.65 1400.14,-79.43 1387.24,-45.85"/>
<polygon fill="black" stroke="black" points="1390.43,-44.4 1383.64,-36.27 1383.88,-46.86 1390.43,-44.4"/>
</g>
<!-- rpy2 -->
<g id="node25" class="node">
<title>rpy2</title>
<g id="a_node25"><a xlink:href="https://github.com/conda-forge/rpy2-feedstock/pull/55" xlink:title="rpy2">
<ellipse fill="#31688e" stroke="black" cx="1498.59" cy="-162" rx="30.59" ry="18"/>
<text text-anchor="middle" x="1498.59" y="-158.3" font-family="Times,serif" font-size="14.00" fill="white">rpy2</text>
</a>
</g>
</g>
<!-- rpy2&#45;&gt;conda&#45;forge&#45;pinning -->
<g id="edge47" class="edge">
<title>rpy2&#45;&gt;conda&#45;forge&#45;pinning</title>
<path fill="none" stroke="black" d="M1485.25,-145.74C1476.03,-135.18 1463.52,-120.78 1452.59,-108 1434.14,-86.43 1413.36,-61.73 1398.35,-43.83"/>
<polygon fill="black" stroke="black" points="1401,-41.54 1391.9,-36.12 1395.63,-46.04 1401,-41.54"/>
</g>
<!-- iterativewgcna -->
<g id="node26" class="node">
<title>iterativewgcna</title>
<g id="a_node26"><a xlink:href="https://github.com/conda-forge/iterativewgcna-feedstock" xlink:title="iterativewgcna">
<ellipse fill="#fde725" stroke="black" cx="1541.59" cy="-90" rx="79.5" ry="18"/>
<text text-anchor="middle" x="1541.59" y="-86.3" font-family="Times,serif" font-size="14.00">iterativewgcna</text>
</a>
</g>
</g>
<!-- rpy2&#45;&gt;iterativewgcna -->
<g id="edge48" class="edge">
<title>rpy2&#45;&gt;iterativewgcna</title>
<path fill="none" stroke="black" d="M1508.56,-144.76C1513.68,-136.44 1520.03,-126.1 1525.79,-116.73"/>
<polygon fill="black" stroke="black" points="1528.82,-118.48 1531.07,-108.12 1522.86,-114.81 1528.82,-118.48"/>
</g>
<!-- iterativewgcna&#45;&gt;conda&#45;forge&#45;pinning -->
<g id="edge49" class="edge">
<title>iterativewgcna&#45;&gt;conda&#45;forge&#45;pinning</title>
<path fill="none" stroke="black" d="M1506.01,-73.81C1482.01,-63.57 1450.11,-49.95 1424.1,-38.85"/>
<polygon fill="black" stroke="black" points="1425.39,-35.59 1414.82,-34.89 1422.64,-42.03 1425.39,-35.59"/>
</g>
<!-- r&#45;rvaidememoire -->
<g id="node27" class="node">
<title>r&#45;rvaidememoire</title>
<g id="a_node27"><a xlink:href="https://github.com/conda-forge/r-rvaidememoire-feedstock" xlink:title="r rvaidememoire">
<ellipse fill="#35b779" stroke="black" cx="1642.59" cy="-306" rx="84" ry="18"/>
<text text-anchor="middle" x="1642.59" y="-302.3" font-family="Times,serif" font-size="14.00">r rvaidememoire</text>
</a>
</g>
</g>
<!-- r&#45;rvaidememoire&#45;&gt;conda&#45;forge&#45;pinning -->
<g id="edge50" class="edge">
<title>r&#45;rvaidememoire&#45;&gt;conda&#45;forge&#45;pinning</title>
<path fill="none" stroke="black" d="M1647.87,-287.83C1659.72,-245.43 1683.44,-134.7 1629.59,-72 1609.79,-48.95 1539.97,-35.43 1478.83,-27.83"/>
<polygon fill="black" stroke="black" points="1479.05,-24.33 1468.71,-26.61 1478.22,-31.28 1479.05,-24.33"/>
</g>
<!-- r -->
<g id="node28" class="node">
<title>r</title>
<g id="a_node28"><a xlink:href="https://github.com/conda-forge/r-feedstock" xlink:title="r">
<ellipse fill="#35b779" stroke="black" cx="1754.59" cy="-378" rx="27" ry="18"/>
<text text-anchor="middle" x="1754.59" y="-374.3" font-family="Times,serif" font-size="14.00">r</text>
</a>
</g>
</g>
<!-- r&#45;&gt;conda&#45;forge&#45;pinning -->
<g id="edge51" class="edge">
<title>r&#45;&gt;conda&#45;forge&#45;pinning</title>
<path fill="none" stroke="black" d="M1754.75,-359.82C1754.22,-307.34 1744.91,-148.15 1654.59,-72 1628.11,-49.67 1546.29,-35.83 1478.39,-27.92"/>
<polygon fill="black" stroke="black" points="1478.38,-24.4 1468.05,-26.75 1477.59,-31.36 1478.38,-24.4"/>
</g>
<!-- r&#45;hier.part -->
<g id="node29" class="node">
<title>r&#45;hier.part</title>
<g id="a_node29"><a xlink:href="https://github.com/conda-forge/r-hier.part-feedstock/pull/5" xlink:title="r hier part">
<ellipse fill="#31688e" stroke="black" cx="1779.59" cy="-90" rx="64.5" ry="18"/>
<text text-anchor="middle" x="1779.59" y="-86.3" font-family="Times,serif" font-size="14.00" fill="white">r hier part</text>
</a>
</g>
</g>
<!-- r&#45;hier.part&#45;&gt;conda&#45;forge&#45;pinning -->
<g id="edge52" class="edge">
<title>r&#45;hier.part&#45;&gt;conda&#45;forge&#45;pinning</title>
<path fill="none" stroke="black" d="M1730.78,-78.1C1720.81,-75.99 1710.38,-73.85 1700.59,-72 1620.43,-56.81 1528.59,-41.99 1463.39,-31.9"/>
<polygon fill="black" stroke="black" points="1463.57,-28.39 1453.16,-30.32 1462.51,-35.3 1463.57,-28.39"/>
</g>
<!-- r&#45;aggregation -->
<g id="node30" class="node">
<title>r&#45;aggregation</title>
<g id="a_node30"><a xlink:href="https://github.com/conda-forge/r-aggregation-feedstock" xlink:title="r aggregation">
<ellipse fill="#35b779" stroke="black" cx="1808.59" cy="-162" rx="74.19" ry="18"/>
<text text-anchor="middle" x="1808.59" y="-158.3" font-family="Times,serif" font-size="14.00">r aggregation</text>
</a>
</g>
</g>
<!-- r&#45;aggregation&#45;&gt;conda&#45;forge&#45;pinning -->
<g id="edge53" class="edge">
<title>r&#45;aggregation&#45;&gt;conda&#45;forge&#45;pinning</title>
<path fill="none" stroke="black" d="M1827.46,-144.33C1846.92,-125.17 1871.9,-93.58 1852.59,-72 1828.65,-45.24 1619.88,-30.43 1487.2,-23.65"/>
<polygon fill="black" stroke="black" points="1487.15,-20.15 1476.99,-23.14 1486.8,-27.14 1487.15,-20.15"/>
</g>
<!-- r&#45;adehabitatlt -->
<g id="node31" class="node">
<title>r&#45;adehabitatlt</title>
<g id="a_node31"><a xlink:href="https://github.com/conda-forge/r-adehabitatlt-feedstock" xlink:title="r adehabitatlt">
<ellipse fill="#35b779" stroke="black" cx="1841.59" cy="-234" rx="79.5" ry="18"/>
<text text-anchor="middle" x="1841.59" y="-230.3" font-family="Times,serif" font-size="14.00">r adehabitatlt</text>
</a>
</g>
</g>
<!-- r&#45;adehabitatlt&#45;&gt;conda&#45;forge&#45;pinning -->
<g id="edge54" class="edge">
<title>r&#45;adehabitatlt&#45;&gt;conda&#45;forge&#45;pinning</title>
<path fill="none" stroke="black" d="M1863.4,-216.66C1874.08,-207.26 1885.85,-194.46 1891.59,-180 1909.64,-134.56 1908.08,-103.39 1870.59,-72 1841.72,-47.82 1621.95,-31.93 1485.76,-24.3"/>
<polygon fill="black" stroke="black" points="1485.88,-20.8 1475.7,-23.74 1485.49,-27.79 1485.88,-20.8"/>
</g>
<!-- r&#45;bezier -->
<g id="node32" class="node">
<title>r&#45;bezier</title>
<g id="a_node32"><a xlink:href="https://github.com/conda-forge/r-bezier-feedstock/pull/3" xlink:title="r bezier">
<ellipse fill="#31688e" stroke="black" cx="1908.59" cy="-306" rx="50.09" ry="18"/>
<text text-anchor="middle" x="1908.59" y="-302.3" font-family="Times,serif" font-size="14.00" fill="white">r bezier</text>
</a>
</g>
</g>
<!-- r&#45;bezier&#45;&gt;conda&#45;forge&#45;pinning -->
<g id="edge55" class="edge">
<title>r&#45;bezier&#45;&gt;conda&#45;forge&#45;pinning</title>
<path fill="none" stroke="black" d="M1917.31,-287.83C1921.97,-277.69 1927.22,-264.44 1929.59,-252 1941.41,-190.08 1902.25,-75.28 1898.59,-72 1868.63,-45.19 1631.35,-30.12 1487.54,-23.37"/>
<polygon fill="black" stroke="black" points="1487.51,-19.87 1477.35,-22.9 1487.18,-26.86 1487.51,-19.87"/>
</g>
<!-- r&#45;hiver -->
<g id="node33" class="node">
<title>r&#45;hiver</title>
<g id="a_node33"><a xlink:href="https://github.com/conda-forge/r-hiver-feedstock" xlink:title="r hiver">
<ellipse fill="#35b779" stroke="black" cx="1986.59" cy="-378" rx="45" ry="18"/>
<text text-anchor="middle" x="1986.59" y="-374.3" font-family="Times,serif" font-size="14.00">r hiver</text>
</a>
</g>
</g>
<!-- r&#45;hiver&#45;&gt;conda&#45;forge&#45;pinning -->
<g id="edge56" class="edge">
<title>r&#45;hiver&#45;&gt;conda&#45;forge&#45;pinning</title>
<path fill="none" stroke="black" d="M1986.59,-359.95C1986.59,-333.29 1986.59,-280.11 1986.59,-235 1986.59,-235 1986.59,-235 1986.59,-161 1986.59,-111.49 1962.77,-96.23 1919.59,-72 1848.61,-32.16 1627.9,-21.93 1491,-19.51"/>
<polygon fill="black" stroke="black" points="1490.94,-16.01 1480.89,-19.34 1490.83,-23.01 1490.94,-16.01"/>
</g>
<!-- r&#45;blogdown -->
<g id="node34" class="node">
<title>r&#45;blogdown</title>
<g id="a_node34"><a xlink:href="https://github.com/conda-forge/r-blogdown-feedstock" xlink:title="r blogdown">
<ellipse fill="#35b779" stroke="black" cx="2074.59" cy="-90" rx="60" ry="18"/>
<text text-anchor="middle" x="2074.59" y="-86.3" font-family="Times,serif" font-size="14.00">r blogdown</text>
</a>
</g>
</g>
<!-- r&#45;blogdown&#45;&gt;conda&#45;forge&#45;pinning -->
<g id="edge58" class="edge">
<title>r&#45;blogdown&#45;&gt;conda&#45;forge&#45;pinning</title>
<path fill="none" stroke="black" d="M2030.18,-77.73C2020.48,-75.57 2010.23,-73.51 2000.59,-72 1821.96,-44.03 1612.04,-30.02 1487.16,-23.64"/>
<polygon fill="black" stroke="black" points="1487,-20.13 1476.84,-23.12 1486.65,-27.12 1487,-20.13"/>
</g>
<!-- r&#45;alabama -->
<g id="node35" class="node">
<title>r&#45;alabama</title>
<g id="a_node35"><a xlink:href="https://github.com/conda-forge/r-alabama-feedstock" xlink:title="r alabama">
<ellipse fill="#35b779" stroke="black" cx="2117.59" cy="-162" rx="54.69" ry="18"/>
<text text-anchor="middle" x="2117.59" y="-158.3" font-family="Times,serif" font-size="14.00">r alabama</text>
</a>
</g>
</g>
<!-- r&#45;alabama&#45;&gt;conda&#45;forge&#45;pinning -->
<g id="edge59" class="edge">
<title>r&#45;alabama&#45;&gt;conda&#45;forge&#45;pinning</title>
<path fill="none" stroke="black" d="M2130.74,-144.39C2144.67,-124.69 2162.26,-92.01 2143.59,-72 2100.1,-25.4 1693.99,-18.85 1491.4,-18.51"/>
<polygon fill="black" stroke="black" points="1491.32,-15.01 1481.32,-18.5 1491.31,-22.01 1491.32,-15.01"/>
</g>
<!-- r&#45;airr -->
<g id="node36" class="node">
<title>r&#45;airr</title>
<g id="a_node36"><a xlink:href="https://github.com/conda-forge/r-airr-feedstock" xlink:title="r airr">
<ellipse fill="#35b779" stroke="black" cx="2200.59" cy="-234" rx="40.5" ry="18"/>
<text text-anchor="middle" x="2200.59" y="-230.3" font-family="Times,serif" font-size="14.00">r airr</text>
</a>
</g>
</g>
<!-- r&#45;airr&#45;&gt;conda&#45;forge&#45;pinning -->
<g id="edge60" class="edge">
<title>r&#45;airr&#45;&gt;conda&#45;forge&#45;pinning</title>
<path fill="none" stroke="black" d="M2202.5,-216.01C2205.22,-182.41 2205.78,-107.65 2162.59,-72 2112.06,-30.28 1696.24,-21.33 1491.13,-19.46"/>
<polygon fill="black" stroke="black" points="1490.96,-15.96 1480.93,-19.37 1490.9,-22.96 1490.96,-15.96"/>
</g>
<!-- r&#45;feasts -->
<g id="node37" class="node">
<title>r&#45;feasts</title>
<g id="a_node37"><a xlink:href="https://github.com/conda-forge/r-feasts-feedstock" xlink:title="r feasts">
<ellipse fill="#fde725" stroke="black" cx="2278.59" cy="-90" rx="50.09" ry="18"/>
<text text-anchor="middle" x="2278.59" y="-86.3" font-family="Times,serif" font-size="14.00">r feasts</text>
</a>
</g>
</g>
<!-- r&#45;feasts&#45;&gt;conda&#45;forge&#45;pinning -->
<g id="edge61" class="edge">
<title>r&#45;feasts&#45;&gt;conda&#45;forge&#45;pinning</title>
<path fill="none" stroke="black" d="M2241.63,-77.86C2232.84,-75.58 2223.44,-73.44 2214.59,-72 1958.48,-30.29 1653.33,-20.97 1491.53,-19.15"/>
<polygon fill="black" stroke="black" points="1491.12,-15.65 1481.08,-19.05 1491.04,-22.65 1491.12,-15.65"/>
</g>
<!-- r&#45;littler -->
<g id="node38" class="node">
<title>r&#45;littler</title>
<g id="a_node38"><a xlink:href="https://github.com/conda-forge/r-littler-feedstock/pull/2" xlink:title="r littler">
<ellipse fill="#31688e" stroke="black" cx="2394.59" cy="-306" rx="54.69" ry="18"/>
<text text-anchor="middle" x="2394.59" y="-302.3" font-family="Times,serif" font-size="14.00" fill="white">r littler</text>
</a>
</g>
</g>
<!-- r&#45;littler&#45;&gt;conda&#45;forge&#45;pinning -->
<g id="edge62" class="edge">
<title>r&#45;littler&#45;&gt;conda&#45;forge&#45;pinning</title>
<path fill="none" stroke="black" d="M2397.97,-287.93C2405.51,-244.31 2418.42,-128.18 2355.59,-72 2323.77,-43.55 1739.92,-27.12 1489.8,-21.36"/>
<polygon fill="black" stroke="black" points="1489.68,-17.85 1479.6,-21.13 1489.52,-24.85 1489.68,-17.85"/>
</g>
<!-- r&#45;rxode -->
<g id="node39" class="node">
<title>r&#45;rxode</title>
<g id="a_node39"><a xlink:href="https://github.com/conda-forge/r-rxode-feedstock" xlink:title="r rxode">
<ellipse fill="#35b779" stroke="black" cx="2489.59" cy="-162" rx="45" ry="18"/>
<text text-anchor="middle" x="2489.59" y="-158.3" font-family="Times,serif" font-size="14.00">r rxode</text>
</a>
</g>
</g>
<!-- r&#45;rxode&#45;&gt;conda&#45;forge&#45;pinning -->
<g id="edge63" class="edge">
<title>r&#45;rxode&#45;&gt;conda&#45;forge&#45;pinning</title>
<path fill="none" stroke="black" d="M2477.21,-144.64C2459.1,-121.23 2425.68,-80.09 2408.59,-72 2327.44,-33.61 1741.85,-22.85 1491.07,-19.98"/>
<polygon fill="black" stroke="black" points="1490.88,-16.48 1480.84,-19.87 1490.8,-23.48 1490.88,-16.48"/>
</g>
<!-- r&#45;nlmixr -->
<g id="node40" class="node">
<title>r&#45;nlmixr</title>
<g id="a_node40"><a xlink:href="https://github.com/conda-forge/r-nlmixr-feedstock" xlink:title="r nlmixr">
<ellipse fill="#fde725" stroke="black" cx="2510.59" cy="-90" rx="50.09" ry="18"/>
<text text-anchor="middle" x="2510.59" y="-86.3" font-family="Times,serif" font-size="14.00">r nlmixr</text>
</a>
</g>
</g>
<!-- r&#45;rxode&#45;&gt;r&#45;nlmixr -->
<g id="edge64" class="edge">
<title>r&#45;rxode&#45;&gt;r&#45;nlmixr</title>
<path fill="none" stroke="black" d="M2494.68,-144.05C2497.01,-136.26 2499.85,-126.82 2502.47,-118.08"/>
<polygon fill="black" stroke="black" points="2505.89,-118.86 2505.41,-108.28 2499.18,-116.85 2505.89,-118.86"/>
</g>
<!-- r&#45;nlmixr&#45;&gt;conda&#45;forge&#45;pinning -->
<g id="edge65" class="edge">
<title>r&#45;nlmixr&#45;&gt;conda&#45;forge&#45;pinning</title>
<path fill="none" stroke="black" d="M2473.65,-77.78C2464.85,-75.5 2455.45,-73.38 2446.59,-72 2265,-43.7 1725.79,-27.49 1490.04,-21.58"/>
<polygon fill="black" stroke="black" points="1489.81,-18.08 1479.72,-21.33 1489.63,-25.08 1489.81,-18.08"/>
</g>
<!-- r&#45;tiledb -->
<g id="node41" class="node">
<title>r&#45;tiledb</title>
<g id="a_node41"><a xlink:href="https://github.com/conda-forge/r-tiledb-feedstock/pull/5" xlink:title="r tiledb">
<ellipse fill="#31688e" stroke="black" cx="2706.59" cy="-378" rx="50.09" ry="18"/>
<text text-anchor="middle" x="2706.59" y="-374.3" font-family="Times,serif" font-size="14.00" fill="white">r tiledb</text>
</a>
</g>
</g>
<!-- r&#45;tiledb&#45;&gt;conda&#45;forge&#45;pinning -->
<g id="edge66" class="edge">
<title>r&#45;tiledb&#45;&gt;conda&#45;forge&#45;pinning</title>
<path fill="none" stroke="black" d="M2706.59,-359.95C2706.59,-333.29 2706.59,-280.11 2706.59,-235 2706.59,-235 2706.59,-235 2706.59,-161 2706.59,-120.55 2718.52,-98.07 2687.59,-72 2642.22,-33.75 1801.24,-22.65 1491.17,-19.84"/>
<polygon fill="black" stroke="black" points="1490.84,-16.34 1480.81,-19.75 1490.78,-23.34 1490.84,-16.34"/>
</g>
<!-- r&#45;raceid -->
<g id="node42" class="node">
<title>r&#45;raceid</title>
<g id="a_node42"><a xlink:href="https://github.com/conda-forge/r-raceid-feedstock" xlink:title="r raceid">
<ellipse fill="#35b779" stroke="black" cx="2628.59" cy="-90" rx="50.09" ry="18"/>
<text text-anchor="middle" x="2628.59" y="-86.3" font-family="Times,serif" font-size="14.00">r raceid</text>
</a>
</g>
</g>
<!-- r&#45;raceid&#45;&gt;conda&#45;forge&#45;pinning -->
<g id="edge67" class="edge">
<title>r&#45;raceid&#45;&gt;conda&#45;forge&#45;pinning</title>
<path fill="none" stroke="black" d="M2593.02,-77.29C2585.37,-75.18 2577.27,-73.26 2569.59,-72 2364.08,-38.31 1746.09,-24.85 1490.32,-20.62"/>
<polygon fill="black" stroke="black" points="1490.32,-17.12 1480.26,-20.46 1490.2,-24.12 1490.32,-17.12"/>
</g>
<!-- r&#45;botor -->
<g id="node43" class="node">
<title>r&#45;botor</title>
<g id="a_node43"><a xlink:href="https://github.com/conda-forge/r-botor-feedstock" xlink:title="r botor">
<ellipse fill="#35b779" stroke="black" cx="2779.59" cy="-162" rx="45" ry="18"/>
<text text-anchor="middle" x="2779.59" y="-158.3" font-family="Times,serif" font-size="14.00">r botor</text>
</a>
</g>
</g>
<!-- r&#45;botor&#45;&gt;conda&#45;forge&#45;pinning -->
<g id="edge68" class="edge">
<title>r&#45;botor&#45;&gt;conda&#45;forge&#45;pinning</title>
<path fill="none" stroke="black" d="M2773.82,-143.96C2765.66,-122.84 2748.54,-87.72 2720.59,-72 2667.4,-42.08 1804.07,-25.66 1490.37,-20.66"/>
<polygon fill="black" stroke="black" points="1490.41,-17.16 1480.35,-20.51 1490.29,-24.16 1490.41,-17.16"/>
</g>
<!-- r&#45;slider -->
<g id="node44" class="node">
<title>r&#45;slider</title>
<g id="a_node44"><a xlink:href="https://github.com/conda-forge/r-slider-feedstock" xlink:title="r slider">
<ellipse fill="#35b779" stroke="black" cx="2297.59" cy="-162" rx="50.09" ry="18"/>
<text text-anchor="middle" x="2297.59" y="-158.3" font-family="Times,serif" font-size="14.00">r slider</text>
</a>
</g>
</g>
<!-- r&#45;slider&#45;&gt;conda&#45;forge&#45;pinning -->
<g id="edge69" class="edge">
<title>r&#45;slider&#45;&gt;conda&#45;forge&#45;pinning</title>
<path fill="none" stroke="black" d="M2314.48,-145.04C2332.97,-125.68 2357.5,-93.04 2337.59,-72 2308.86,-41.64 1737.12,-26.34 1489.9,-21.12"/>
<polygon fill="black" stroke="black" points="1489.88,-17.62 1479.81,-20.91 1489.73,-24.62 1489.88,-17.62"/>
</g>
<!-- r&#45;slider&#45;&gt;r&#45;feasts -->
<g id="edge70" class="edge">
<title>r&#45;slider&#45;&gt;r&#45;feasts</title>
<path fill="none" stroke="black" d="M2292.99,-144.05C2290.88,-136.26 2288.31,-126.82 2285.94,-118.08"/>
<polygon fill="black" stroke="black" points="2289.28,-117.01 2283.28,-108.28 2282.52,-118.84 2289.28,-117.01"/>
</g>
<!-- r&#45;comparegroups -->
<g id="node45" class="node">
<title>r&#45;comparegroups</title>
<g id="a_node45"><a xlink:href="https://github.com/conda-forge/r-comparegroups-feedstock" xlink:title="r comparegroups">
<ellipse fill="#35b779" stroke="black" cx="2852.59" cy="-234" rx="84" ry="18"/>
<text text-anchor="middle" x="2852.59" y="-230.3" font-family="Times,serif" font-size="14.00">r comparegroups</text>
</a>
</g>
</g>
<!-- r&#45;comparegroups&#45;&gt;conda&#45;forge&#45;pinning -->
<g id="edge71" class="edge">
<title>r&#45;comparegroups&#45;&gt;conda&#45;forge&#45;pinning</title>
<path fill="none" stroke="black" d="M2852.07,-215.8C2850.81,-196.99 2846.71,-166.53 2833.59,-144 2809.36,-102.37 2797.28,-89.98 2752.59,-72 2637.24,-25.58 1800.07,-19.61 1491.45,-19"/>
<polygon fill="black" stroke="black" points="1491.15,-15.5 1481.14,-18.98 1491.13,-22.5 1491.15,-15.5"/>
</g>
</g>
</svg>
