<?xml version="1.0" encoding="UTF-8" standalone="no"?>
<!DOCTYPE svg PUBLIC "-//W3C//DTD SVG 1.1//EN"
 "http://www.w3.org/Graphics/SVG/1.1/DTD/svg11.dtd">
<!-- Generated by graphviz version 2.42.3 (20191010.1750)
 -->
<!-- Title: %3 Pages: 1 -->
<svg width="2276pt" height="476pt"
 viewBox="0.00 0.00 2276.09 476.00" xmlns="http://www.w3.org/2000/svg" xmlns:xlink="http://www.w3.org/1999/xlink">
<g id="graph0" class="graph" transform="scale(1 1) rotate(0) translate(4 472)">
<title>%3</title>
<polygon fill="white" stroke="transparent" points="-4,4 -4,-472 2272.09,-472 2272.09,4 -4,4"/>
<!-- r&#45;fst -->
<g id="node1" class="node">
<title>r&#45;fst</title>
<g id="a_node1"><a xlink:href="https://github.com/conda-forge/r-fst-feedstock/pull/11" xlink:title="r fst">
<ellipse fill="#31688e" stroke="black" cx="106.54" cy="-162" rx="35.19" ry="18"/>
<text text-anchor="middle" x="106.54" y="-158.3" font-family="Times,serif" font-size="14.00" fill="white">r fst</text>
</a>
</g>
</g>
<!-- r&#45;disk.frame -->
<g id="node2" class="node">
<title>r&#45;disk.frame</title>
<g id="a_node2"><a xlink:href="https://github.com/conda-forge/r-disk.frame-feedstock" xlink:title="r disk frame">
<ellipse fill="#fde725" stroke="black" cx="69.54" cy="-90" rx="69.59" ry="18"/>
<text text-anchor="middle" x="69.54" y="-86.3" font-family="Times,serif" font-size="14.00">r disk frame</text>
</a>
</g>
</g>
<!-- r&#45;fst&#45;&gt;r&#45;disk.frame -->
<g id="edge1" class="edge">
<title>r&#45;fst&#45;&gt;r&#45;disk.frame</title>
<path fill="none" stroke="black" d="M97.78,-144.41C93.46,-136.25 88.16,-126.22 83.32,-117.07"/>
<polygon fill="black" stroke="black" points="86.27,-115.16 78.51,-107.96 80.09,-118.43 86.27,-115.16"/>
</g>
<!-- conda&#45;forge&#45;pinning -->
<g id="node3" class="node">
<title>conda&#45;forge&#45;pinning</title>
<ellipse fill="none" stroke="black" cx="1105.54" cy="-18" rx="103.5" ry="18"/>
<text text-anchor="middle" x="1105.54" y="-14.3" font-family="Times,serif" font-size="14.00">conda&#45;forge&#45;pinning</text>
</g>
<!-- r&#45;fst&#45;&gt;conda&#45;forge&#45;pinning -->
<g id="edge2" class="edge">
<title>r&#45;fst&#45;&gt;conda&#45;forge&#45;pinning</title>
<path fill="none" stroke="black" d="M119.32,-145.04C138.38,-121.7 173.9,-80.16 191.54,-72 262.53,-39.17 764.65,-25.49 992.99,-20.92"/>
<polygon fill="black" stroke="black" points="993.06,-24.42 1002.99,-20.73 992.92,-17.43 993.06,-24.42"/>
</g>
<!-- r&#45;disk.frame&#45;&gt;conda&#45;forge&#45;pinning -->
<g id="edge3" class="edge">
<title>r&#45;disk.frame&#45;&gt;conda&#45;forge&#45;pinning</title>
<path fill="none" stroke="black" d="M119.99,-77.57C131,-75.41 142.62,-73.4 153.54,-72 454.93,-33.32 813.57,-22.86 992.4,-20.04"/>
<polygon fill="black" stroke="black" points="992.67,-23.53 1002.61,-19.88 992.56,-16.54 992.67,-23.53"/>
</g>
<!-- r&#45;hive -->
<g id="node4" class="node">
<title>r&#45;hive</title>
<g id="a_node4"><a xlink:href="https://github.com/conda-forge/r-hive-feedstock" xlink:title="r hive">
<ellipse fill="#fde725" stroke="black" cx="1344.54" cy="-234" rx="40.5" ry="18"/>
<text text-anchor="middle" x="1344.54" y="-230.3" font-family="Times,serif" font-size="14.00">r hive</text>
</a>
</g>
</g>
<!-- r&#45;hive&#45;&gt;conda&#45;forge&#45;pinning -->
<g id="edge4" class="edge">
<title>r&#45;hive&#45;&gt;conda&#45;forge&#45;pinning</title>
<path fill="none" stroke="black" d="M1336.82,-216.05C1321.37,-183.83 1283.68,-113.28 1232.54,-72 1213.76,-56.84 1190.02,-45.38 1168.16,-37.08"/>
<polygon fill="black" stroke="black" points="1169.19,-33.73 1158.6,-33.6 1166.8,-40.31 1169.19,-33.73"/>
</g>
<!-- r&#45;rjava -->
<g id="node5" class="node">
<title>r&#45;rjava</title>
<g id="a_node5"><a xlink:href="https://github.com/conda-forge/r-rjava-feedstock" xlink:title="r rjava">
<ellipse fill="#35b779" stroke="black" cx="901.54" cy="-450" rx="45" ry="18"/>
<text text-anchor="middle" x="901.54" y="-446.3" font-family="Times,serif" font-size="14.00">r rjava</text>
</a>
</g>
</g>
<!-- r&#45;rjava&#45;&gt;conda&#45;forge&#45;pinning -->
<g id="edge5" class="edge">
<title>r&#45;rjava&#45;&gt;conda&#45;forge&#45;pinning</title>
<path fill="none" stroke="black" d="M945.6,-446.31C1043.77,-439.87 1273.68,-422.14 1296.54,-396 1347.68,-337.55 1212.19,-134.1 1165.54,-72 1157.38,-61.13 1146.69,-50.82 1136.6,-42.24"/>
<polygon fill="black" stroke="black" points="1138.64,-39.39 1128.69,-35.75 1134.2,-44.8 1138.64,-39.39"/>
</g>
<!-- r&#45;rjava&#45;&gt;r&#45;hive -->
<g id="edge6" class="edge">
<title>r&#45;rjava&#45;&gt;r&#45;hive</title>
<path fill="none" stroke="black" d="M945.96,-446.61C1050.09,-440.58 1303.12,-423.24 1329.54,-396 1363.82,-360.67 1358.18,-298.2 1351.22,-262.34"/>
<polygon fill="black" stroke="black" points="1354.55,-261.19 1349.06,-252.13 1347.71,-262.64 1354.55,-261.19"/>
</g>
<!-- r&#45;xlsx -->
<g id="node6" class="node">
<title>r&#45;xlsx</title>
<g id="a_node6"><a xlink:href="https://github.com/conda-forge/r-xlsx-feedstock" xlink:title="r xlsx">
<ellipse fill="#fde725" stroke="black" cx="460.54" cy="-306" rx="40.5" ry="18"/>
<text text-anchor="middle" x="460.54" y="-302.3" font-family="Times,serif" font-size="14.00">r xlsx</text>
</a>
</g>
</g>
<!-- r&#45;rjava&#45;&gt;r&#45;xlsx -->
<g id="edge7" class="edge">
<title>r&#45;rjava&#45;&gt;r&#45;xlsx</title>
<path fill="none" stroke="black" d="M856.97,-447.47C768.18,-443.7 573.03,-431.5 517.54,-396 494.7,-381.38 479.23,-353.97 470.24,-333.42"/>
<polygon fill="black" stroke="black" points="473.39,-331.88 466.34,-323.96 466.92,-334.54 473.39,-331.88"/>
</g>
<!-- r&#45;xlsxjars -->
<g id="node7" class="node">
<title>r&#45;xlsxjars</title>
<g id="a_node7"><a xlink:href="https://github.com/conda-forge/r-xlsxjars-feedstock" xlink:title="r xlsxjars">
<ellipse fill="#fde725" stroke="black" cx="405.54" cy="-378" rx="60" ry="18"/>
<text text-anchor="middle" x="405.54" y="-374.3" font-family="Times,serif" font-size="14.00">r xlsxjars</text>
</a>
</g>
</g>
<!-- r&#45;rjava&#45;&gt;r&#45;xlsxjars -->
<g id="edge8" class="edge">
<title>r&#45;rjava&#45;&gt;r&#45;xlsxjars</title>
<path fill="none" stroke="black" d="M858.19,-445.01C781.49,-437.63 616.96,-420.35 479.54,-396 473.33,-394.9 466.84,-393.61 460.41,-392.25"/>
<polygon fill="black" stroke="black" points="460.91,-388.78 450.4,-390.07 459.42,-395.62 460.91,-388.78"/>
</g>
<!-- r&#45;xlconnectjars -->
<g id="node8" class="node">
<title>r&#45;xlconnectjars</title>
<g id="a_node8"><a xlink:href="https://github.com/conda-forge/r-xlconnectjars-feedstock" xlink:title="r xlconnectjars">
<ellipse fill="#fde725" stroke="black" cx="205.54" cy="-378" rx="84" ry="18"/>
<text text-anchor="middle" x="205.54" y="-374.3" font-family="Times,serif" font-size="14.00">r xlconnectjars</text>
</a>
</g>
</g>
<!-- r&#45;rjava&#45;&gt;r&#45;xlconnectjars -->
<g id="edge9" class="edge">
<title>r&#45;rjava&#45;&gt;r&#45;xlconnectjars</title>
<path fill="none" stroke="black" d="M857.14,-446.34C757.72,-440.09 509.72,-422.97 303.54,-396 294.84,-394.86 285.72,-393.5 276.7,-392.06"/>
<polygon fill="black" stroke="black" points="277.02,-388.57 266.59,-390.4 275.89,-395.47 277.02,-388.57"/>
</g>
<!-- r&#45;xlconnect -->
<g id="node9" class="node">
<title>r&#45;xlconnect</title>
<g id="a_node9"><a xlink:href="https://github.com/conda-forge/r-xlconnect-feedstock" xlink:title="r xlconnect">
<ellipse fill="#fde725" stroke="black" cx="298.54" cy="-306" rx="64.5" ry="18"/>
<text text-anchor="middle" x="298.54" y="-302.3" font-family="Times,serif" font-size="14.00">r xlconnect</text>
</a>
</g>
</g>
<!-- r&#45;rjava&#45;&gt;r&#45;xlconnect -->
<g id="edge10" class="edge">
<title>r&#45;rjava&#45;&gt;r&#45;xlconnect</title>
<path fill="none" stroke="black" d="M856.97,-447.42C730.91,-442.58 378.28,-426.45 336.54,-396 316.78,-381.58 307.21,-354.77 302.62,-334.33"/>
<polygon fill="black" stroke="black" points="306.02,-333.46 300.65,-324.32 299.15,-334.81 306.02,-333.46"/>
</g>
<!-- r&#45;rcdklibs -->
<g id="node10" class="node">
<title>r&#45;rcdklibs</title>
<g id="a_node10"><a xlink:href="https://github.com/conda-forge/r-rcdklibs-feedstock" xlink:title="r rcdklibs">
<ellipse fill="#fde725" stroke="black" cx="636.54" cy="-378" rx="60" ry="18"/>
<text text-anchor="middle" x="636.54" y="-374.3" font-family="Times,serif" font-size="14.00">r rcdklibs</text>
</a>
</g>
</g>
<!-- r&#45;rjava&#45;&gt;r&#45;rcdklibs -->
<g id="edge11" class="edge">
<title>r&#45;rjava&#45;&gt;r&#45;rcdklibs</title>
<path fill="none" stroke="black" d="M864.97,-439.34C819.62,-427.36 741.95,-406.84 689.94,-393.1"/>
<polygon fill="black" stroke="black" points="690.78,-389.71 680.22,-390.54 688.99,-396.47 690.78,-389.71"/>
</g>
<!-- r&#45;rcdk -->
<g id="node11" class="node">
<title>r&#45;rcdk</title>
<g id="a_node11"><a xlink:href="https://github.com/conda-forge/r-rcdk-feedstock" xlink:title="r rcdk">
<ellipse fill="#fde725" stroke="black" cx="636.54" cy="-306" rx="40.5" ry="18"/>
<text text-anchor="middle" x="636.54" y="-302.3" font-family="Times,serif" font-size="14.00">r rcdk</text>
</a>
</g>
</g>
<!-- r&#45;rjava&#45;&gt;r&#45;rcdk -->
<g id="edge12" class="edge">
<title>r&#45;rjava&#45;&gt;r&#45;rcdk</title>
<path fill="none" stroke="black" d="M875.65,-435.13C827.49,-409.32 724.17,-353.95 670.49,-325.19"/>
<polygon fill="black" stroke="black" points="671.85,-321.95 661.38,-320.31 668.54,-328.12 671.85,-321.95"/>
</g>
<!-- r&#45;rchoicedialogs -->
<g id="node12" class="node">
<title>r&#45;rchoicedialogs</title>
<g id="a_node12"><a xlink:href="https://github.com/conda-forge/r-rchoicedialogs-feedstock" xlink:title="r rchoicedialogs">
<ellipse fill="#fde725" stroke="black" cx="784.54" cy="-306" rx="89.08" ry="18"/>
<text text-anchor="middle" x="784.54" y="-302.3" font-family="Times,serif" font-size="14.00">r rchoicedialogs</text>
</a>
</g>
</g>
<!-- r&#45;rjava&#45;&gt;r&#45;rchoicedialogs -->
<g id="edge13" class="edge">
<title>r&#45;rjava&#45;&gt;r&#45;rchoicedialogs</title>
<path fill="none" stroke="black" d="M888.12,-432.71C867.8,-408.05 829.06,-361.03 805.15,-332.01"/>
<polygon fill="black" stroke="black" points="807.59,-329.47 798.53,-323.98 802.19,-333.92 807.59,-329.47"/>
</g>
<!-- r&#45;rwekajars -->
<g id="node13" class="node">
<title>r&#45;rwekajars</title>
<g id="a_node13"><a xlink:href="https://github.com/conda-forge/r-rwekajars-feedstock" xlink:title="r rwekajars">
<ellipse fill="#fde725" stroke="black" cx="789.54" cy="-234" rx="64.5" ry="18"/>
<text text-anchor="middle" x="789.54" y="-230.3" font-family="Times,serif" font-size="14.00">r rwekajars</text>
</a>
</g>
</g>
<!-- r&#45;rjava&#45;&gt;r&#45;rwekajars -->
<g id="edge14" class="edge">
<title>r&#45;rjava&#45;&gt;r&#45;rwekajars</title>
<path fill="none" stroke="black" d="M904.23,-431.8C908.2,-400.38 912.23,-332.81 882.54,-288 872.25,-272.46 855.74,-260.96 839.47,-252.72"/>
<polygon fill="black" stroke="black" points="840.51,-249.34 829.97,-248.24 837.52,-255.67 840.51,-249.34"/>
</g>
<!-- r&#45;rweka -->
<g id="node14" class="node">
<title>r&#45;rweka</title>
<g id="a_node14"><a xlink:href="https://github.com/conda-forge/r-rweka-feedstock" xlink:title="r rweka">
<ellipse fill="#fde725" stroke="black" cx="836.54" cy="-162" rx="45" ry="18"/>
<text text-anchor="middle" x="836.54" y="-158.3" font-family="Times,serif" font-size="14.00">r rweka</text>
</a>
</g>
</g>
<!-- r&#45;rjava&#45;&gt;r&#45;rweka -->
<g id="edge15" class="edge">
<title>r&#45;rjava&#45;&gt;r&#45;rweka</title>
<path fill="none" stroke="black" d="M909.24,-432.22C913.5,-421.99 918.37,-408.52 920.54,-396 923.28,-380.24 922.29,-375.9 920.54,-360 916.97,-327.42 916.04,-318.7 904.54,-288 890.94,-251.69 868.46,-212.92 853.1,-188.35"/>
<polygon fill="black" stroke="black" points="855.9,-186.24 847.59,-179.67 849.99,-189.99 855.9,-186.24"/>
</g>
<!-- r&#45;subspace -->
<g id="node15" class="node">
<title>r&#45;subspace</title>
<g id="a_node15"><a xlink:href="https://github.com/conda-forge/r-subspace-feedstock" xlink:title="r subspace">
<ellipse fill="#fde725" stroke="black" cx="970.54" cy="-234" rx="60" ry="18"/>
<text text-anchor="middle" x="970.54" y="-230.3" font-family="Times,serif" font-size="14.00">r subspace</text>
</a>
</g>
</g>
<!-- r&#45;rjava&#45;&gt;r&#45;subspace -->
<g id="edge16" class="edge">
<title>r&#45;rjava&#45;&gt;r&#45;subspace</title>
<path fill="none" stroke="black" d="M922,-433.92C933.3,-424.38 946.45,-411.04 953.54,-396 973.9,-352.83 974.73,-296.09 972.98,-262.78"/>
<polygon fill="black" stroke="black" points="976.45,-262.19 972.31,-252.44 969.47,-262.64 976.45,-262.19"/>
</g>
<!-- r&#45;rmcfs -->
<g id="node16" class="node">
<title>r&#45;rmcfs</title>
<g id="a_node16"><a xlink:href="https://github.com/conda-forge/r-rmcfs-feedstock" xlink:title="r rmcfs">
<ellipse fill="#fde725" stroke="black" cx="1029.54" cy="-162" rx="45" ry="18"/>
<text text-anchor="middle" x="1029.54" y="-158.3" font-family="Times,serif" font-size="14.00">r rmcfs</text>
</a>
</g>
</g>
<!-- r&#45;rjava&#45;&gt;r&#45;rmcfs -->
<g id="edge17" class="edge">
<title>r&#45;rjava&#45;&gt;r&#45;rmcfs</title>
<path fill="none" stroke="black" d="M927.15,-435.03C942.49,-425.62 961.49,-412.03 974.54,-396 1018.88,-341.55 1024.77,-320.65 1039.54,-252 1043.98,-231.38 1040.91,-207.63 1037.04,-189.86"/>
<polygon fill="black" stroke="black" points="1040.39,-188.8 1034.66,-179.89 1033.58,-190.43 1040.39,-188.8"/>
</g>
<!-- r&#45;rjdbc -->
<g id="node17" class="node">
<title>r&#45;rjdbc</title>
<g id="a_node17"><a xlink:href="https://github.com/conda-forge/r-rjdbc-feedstock" xlink:title="r rjdbc">
<ellipse fill="#fde725" stroke="black" cx="1069.54" cy="-90" rx="45" ry="18"/>
<text text-anchor="middle" x="1069.54" y="-86.3" font-family="Times,serif" font-size="14.00">r rjdbc</text>
</a>
</g>
</g>
<!-- r&#45;rjava&#45;&gt;r&#45;rjdbc -->
<g id="edge18" class="edge">
<title>r&#45;rjava&#45;&gt;r&#45;rjdbc</title>
<path fill="none" stroke="black" d="M934.82,-437.59C956.26,-428.89 983.58,-415.12 1002.54,-396 1074.73,-323.19 1068.4,-281.4 1083.54,-180 1085.91,-164.18 1085.6,-159.87 1083.54,-144 1082.41,-135.28 1080.27,-125.95 1078,-117.58"/>
<polygon fill="black" stroke="black" points="1081.36,-116.6 1075.22,-107.96 1074.63,-118.54 1081.36,-116.6"/>
</g>
<!-- r&#45;tabulizer -->
<g id="node18" class="node">
<title>r&#45;tabulizer</title>
<g id="a_node18"><a xlink:href="https://github.com/conda-forge/r-tabulizer-feedstock" xlink:title="r tabulizer">
<ellipse fill="#fde725" stroke="black" cx="1146.54" cy="-306" rx="64.5" ry="18"/>
<text text-anchor="middle" x="1146.54" y="-302.3" font-family="Times,serif" font-size="14.00">r tabulizer</text>
</a>
</g>
</g>
<!-- r&#45;rjava&#45;&gt;r&#45;tabulizer -->
<g id="edge19" class="edge">
<title>r&#45;rjava&#45;&gt;r&#45;tabulizer</title>
<path fill="none" stroke="black" d="M942.39,-442.28C977.71,-435.06 1029,-421.08 1067.54,-396 1093.19,-379.31 1115.6,-352.15 1129.93,-332.21"/>
<polygon fill="black" stroke="black" points="1132.89,-334.1 1135.75,-323.9 1127.15,-330.08 1132.89,-334.1"/>
</g>
<!-- r&#45;tabulizerjars -->
<g id="node19" class="node">
<title>r&#45;tabulizerjars</title>
<g id="a_node19"><a xlink:href="https://github.com/conda-forge/r-tabulizerjars-feedstock" xlink:title="r tabulizerjars">
<ellipse fill="#fde725" stroke="black" cx="1203.54" cy="-378" rx="84" ry="18"/>
<text text-anchor="middle" x="1203.54" y="-374.3" font-family="Times,serif" font-size="14.00">r tabulizerjars</text>
</a>
</g>
</g>
<!-- r&#45;rjava&#45;&gt;r&#45;tabulizerjars -->
<g id="edge20" class="edge">
<title>r&#45;rjava&#45;&gt;r&#45;tabulizerjars</title>
<path fill="none" stroke="black" d="M939.49,-440.21C989.46,-428.62 1078.08,-408.08 1138.77,-394.01"/>
<polygon fill="black" stroke="black" points="1139.68,-397.4 1148.63,-391.73 1138.1,-390.58 1139.68,-397.4"/>
</g>
<!-- r&#45;destinie -->
<g id="node20" class="node">
<title>r&#45;destinie</title>
<g id="a_node20"><a xlink:href="https://github.com/conda-forge/r-destinie-feedstock" xlink:title="r destinie">
<ellipse fill="#fde725" stroke="black" cx="523.54" cy="-234" rx="60" ry="18"/>
<text text-anchor="middle" x="523.54" y="-230.3" font-family="Times,serif" font-size="14.00">r destinie</text>
</a>
</g>
</g>
<!-- r&#45;rjava&#45;&gt;r&#45;destinie -->
<g id="edge21" class="edge">
<title>r&#45;rjava&#45;&gt;r&#45;destinie</title>
<path fill="none" stroke="black" d="M856.59,-447.75C775.54,-444.56 609.41,-433.52 567.54,-396 529.61,-362 523.02,-298.76 522.62,-262.49"/>
<polygon fill="black" stroke="black" points="526.12,-262.17 522.67,-252.15 519.12,-262.14 526.12,-262.17"/>
</g>
<!-- r&#45;xlsx&#45;&gt;conda&#45;forge&#45;pinning -->
<g id="edge22" class="edge">
<title>r&#45;xlsx&#45;&gt;conda&#45;forge&#45;pinning</title>
<path fill="none" stroke="black" d="M455.69,-288.12C451.27,-269.86 446.57,-240.11 454.54,-216 479.59,-140.3 492.13,-111.23 561.54,-72 632.72,-31.77 854.54,-21.69 991.97,-19.39"/>
<polygon fill="black" stroke="black" points="992.18,-22.89 1002.12,-19.23 992.07,-15.89 992.18,-22.89"/>
</g>
<!-- r&#45;xlsx&#45;&gt;r&#45;destinie -->
<g id="edge23" class="edge">
<title>r&#45;xlsx&#45;&gt;r&#45;destinie</title>
<path fill="none" stroke="black" d="M474.84,-289.12C482.75,-280.33 492.74,-269.23 501.61,-259.37"/>
<polygon fill="black" stroke="black" points="504.34,-261.57 508.43,-251.8 499.13,-256.89 504.34,-261.57"/>
</g>
<!-- r&#45;xlsxjars&#45;&gt;conda&#45;forge&#45;pinning -->
<g id="edge24" class="edge">
<title>r&#45;xlsxjars&#45;&gt;conda&#45;forge&#45;pinning</title>
<path fill="none" stroke="black" d="M402.78,-360C398.7,-333.42 391.54,-280.33 391.54,-235 391.54,-235 391.54,-235 391.54,-161 391.54,-40.13 790.12,-20.61 991.69,-18.46"/>
<polygon fill="black" stroke="black" points="991.76,-21.96 1001.72,-18.37 991.69,-14.96 991.76,-21.96"/>
</g>
<!-- r&#45;xlsxjars&#45;&gt;r&#45;xlsx -->
<g id="edge25" class="edge">
<title>r&#45;xlsxjars&#45;&gt;r&#45;xlsx</title>
<path fill="none" stroke="black" d="M418.58,-360.41C425.36,-351.78 433.78,-341.06 441.3,-331.5"/>
<polygon fill="black" stroke="black" points="444.18,-333.5 447.6,-323.47 438.67,-329.17 444.18,-333.5"/>
</g>
<!-- r&#45;xlconnectjars&#45;&gt;conda&#45;forge&#45;pinning -->
<g id="edge26" class="edge">
<title>r&#45;xlconnectjars&#45;&gt;conda&#45;forge&#45;pinning</title>
<path fill="none" stroke="black" d="M205.54,-359.95C205.54,-333.29 205.54,-280.11 205.54,-235 205.54,-235 205.54,-235 205.54,-161 205.54,-88.39 273.68,-95.03 342.54,-72 459.72,-32.81 809.77,-22.59 992.18,-19.93"/>
<polygon fill="black" stroke="black" points="992.39,-23.43 1002.34,-19.79 992.3,-16.43 992.39,-23.43"/>
</g>
<!-- r&#45;xlconnectjars&#45;&gt;r&#45;xlconnect -->
<g id="edge27" class="edge">
<title>r&#45;xlconnectjars&#45;&gt;r&#45;xlconnect</title>
<path fill="none" stroke="black" d="M227.58,-360.41C239.95,-351.1 255.54,-339.37 268.96,-329.27"/>
<polygon fill="black" stroke="black" points="271.1,-332.04 276.98,-323.23 266.89,-326.45 271.1,-332.04"/>
</g>
<!-- r&#45;xlconnect&#45;&gt;conda&#45;forge&#45;pinning -->
<g id="edge28" class="edge">
<title>r&#45;xlconnect&#45;&gt;conda&#45;forge&#45;pinning</title>
<path fill="none" stroke="black" d="M298.44,-287.97C299.2,-243.9 307.94,-125.83 377.54,-72 424.97,-35.32 800.09,-23.91 992.51,-20.45"/>
<polygon fill="black" stroke="black" points="992.73,-23.95 1002.66,-20.27 992.6,-16.95 992.73,-23.95"/>
</g>
<!-- r&#45;rcdklibs&#45;&gt;conda&#45;forge&#45;pinning -->
<g id="edge29" class="edge">
<title>r&#45;rcdklibs&#45;&gt;conda&#45;forge&#45;pinning</title>
<path fill="none" stroke="black" d="M615.25,-361.11C604.44,-351.68 592.38,-338.7 586.54,-324 580.64,-309.13 582.95,-303.59 586.54,-288 610.49,-183.98 604.84,-134.27 691.54,-72 738.44,-38.32 887.38,-26.03 993.14,-21.56"/>
<polygon fill="black" stroke="black" points="993.39,-25.05 1003.24,-21.15 993.1,-18.06 993.39,-25.05"/>
</g>
<!-- r&#45;rcdklibs&#45;&gt;r&#45;rcdk -->
<g id="edge30" class="edge">
<title>r&#45;rcdklibs&#45;&gt;r&#45;rcdk</title>
<path fill="none" stroke="black" d="M636.54,-359.7C636.54,-351.98 636.54,-342.71 636.54,-334.11"/>
<polygon fill="black" stroke="black" points="640.04,-334.1 636.54,-324.1 633.04,-334.1 640.04,-334.1"/>
</g>
<!-- r&#45;rcdk&#45;&gt;conda&#45;forge&#45;pinning -->
<g id="edge31" class="edge">
<title>r&#45;rcdk&#45;&gt;conda&#45;forge&#45;pinning</title>
<path fill="none" stroke="black" d="M637.6,-287.84C641.28,-243.97 657.53,-127.34 727.54,-72 767.84,-40.15 897.93,-27.44 994.3,-22.37"/>
<polygon fill="black" stroke="black" points="994.59,-25.86 1004.4,-21.86 994.23,-18.87 994.59,-25.86"/>
</g>
<!-- r&#45;rchoicedialogs&#45;&gt;conda&#45;forge&#45;pinning -->
<g id="edge32" class="edge">
<title>r&#45;rchoicedialogs&#45;&gt;conda&#45;forge&#45;pinning</title>
<path fill="none" stroke="black" d="M752.52,-289.11C738.44,-280.29 723.36,-267.85 715.54,-252 688.04,-196.2 712.26,-114.12 761.54,-72 796.06,-42.5 908.62,-29.37 995.69,-23.56"/>
<polygon fill="black" stroke="black" points="996.15,-27.03 1005.91,-22.9 995.7,-20.05 996.15,-27.03"/>
</g>
<!-- r&#45;rwekajars&#45;&gt;conda&#45;forge&#45;pinning -->
<g id="edge33" class="edge">
<title>r&#45;rwekajars&#45;&gt;conda&#45;forge&#45;pinning</title>
<path fill="none" stroke="black" d="M781.97,-216.03C768.88,-183.77 746.57,-113.16 781.54,-72 808.65,-40.1 911.3,-27.36 993.89,-22.29"/>
<polygon fill="black" stroke="black" points="994.33,-25.77 1004.11,-21.7 993.93,-18.79 994.33,-25.77"/>
</g>
<!-- r&#45;rwekajars&#45;&gt;r&#45;rweka -->
<g id="edge34" class="edge">
<title>r&#45;rwekajars&#45;&gt;r&#45;rweka</title>
<path fill="none" stroke="black" d="M800.92,-216.05C806.52,-207.71 813.39,-197.49 819.59,-188.25"/>
<polygon fill="black" stroke="black" points="822.6,-190.04 825.27,-179.79 816.79,-186.14 822.6,-190.04"/>
</g>
<!-- r&#45;rweka&#45;&gt;conda&#45;forge&#45;pinning -->
<g id="edge35" class="edge">
<title>r&#45;rweka&#45;&gt;conda&#45;forge&#45;pinning</title>
<path fill="none" stroke="black" d="M818.29,-145.23C798.62,-126.35 772.54,-94.48 791.54,-72 817.47,-41.33 915.1,-28.4 994.7,-22.96"/>
<polygon fill="black" stroke="black" points="995.06,-26.44 1004.81,-22.3 994.6,-19.45 995.06,-26.44"/>
</g>
<!-- r&#45;fselector -->
<g id="node21" class="node">
<title>r&#45;fselector</title>
<g id="a_node21"><a xlink:href="https://github.com/conda-forge/r-fselector-feedstock" xlink:title="r fselector">
<ellipse fill="#fde725" stroke="black" cx="865.54" cy="-90" rx="64.5" ry="18"/>
<text text-anchor="middle" x="865.54" y="-86.3" font-family="Times,serif" font-size="14.00">r fselector</text>
</a>
</g>
</g>
<!-- r&#45;rweka&#45;&gt;r&#45;fselector -->
<g id="edge36" class="edge">
<title>r&#45;rweka&#45;&gt;r&#45;fselector</title>
<path fill="none" stroke="black" d="M843.56,-144.05C846.83,-136.18 850.79,-126.62 854.44,-117.79"/>
<polygon fill="black" stroke="black" points="857.79,-118.85 858.39,-108.28 851.33,-116.17 857.79,-118.85"/>
</g>
<!-- r&#45;subspace&#45;&gt;conda&#45;forge&#45;pinning -->
<g id="edge37" class="edge">
<title>r&#45;subspace&#45;&gt;conda&#45;forge&#45;pinning</title>
<path fill="none" stroke="black" d="M969.1,-215.96C967.35,-183.59 968.36,-112.8 1005.54,-72 1018.39,-57.91 1035.86,-46.89 1052.61,-38.63"/>
<polygon fill="black" stroke="black" points="1054.23,-41.73 1061.81,-34.32 1051.26,-35.39 1054.23,-41.73"/>
</g>
<!-- r&#45;rmcfs&#45;&gt;conda&#45;forge&#45;pinning -->
<g id="edge38" class="edge">
<title>r&#45;rmcfs&#45;&gt;conda&#45;forge&#45;pinning</title>
<path fill="none" stroke="black" d="M1020.79,-144.09C1012.37,-125.27 1002.66,-94.54 1015.54,-72 1023.67,-57.79 1037.25,-47.01 1051.43,-39.01"/>
<polygon fill="black" stroke="black" points="1053.06,-42.11 1060.3,-34.38 1049.82,-35.91 1053.06,-42.11"/>
</g>
<!-- r&#45;rjdbc&#45;&gt;conda&#45;forge&#45;pinning -->
<g id="edge39" class="edge">
<title>r&#45;rjdbc&#45;&gt;conda&#45;forge&#45;pinning</title>
<path fill="none" stroke="black" d="M1078.26,-72.05C1082.4,-64.01 1087.44,-54.2 1092.06,-45.23"/>
<polygon fill="black" stroke="black" points="1095.2,-46.77 1096.66,-36.28 1088.97,-43.57 1095.2,-46.77"/>
</g>
<!-- r&#45;tabulizer&#45;&gt;conda&#45;forge&#45;pinning -->
<g id="edge40" class="edge">
<title>r&#45;tabulizer&#45;&gt;conda&#45;forge&#45;pinning</title>
<path fill="none" stroke="black" d="M1146.19,-287.84C1145.1,-248.98 1140.72,-151.46 1123.54,-72 1121.68,-63.36 1118.86,-54.16 1116.01,-45.9"/>
<polygon fill="black" stroke="black" points="1119.26,-44.6 1112.57,-36.38 1112.68,-46.98 1119.26,-44.6"/>
</g>
<!-- r&#45;tabulizerjars&#45;&gt;conda&#45;forge&#45;pinning -->
<g id="edge41" class="edge">
<title>r&#45;tabulizerjars&#45;&gt;conda&#45;forge&#45;pinning</title>
<path fill="none" stroke="black" d="M1210.2,-359.63C1213.75,-349.42 1217.75,-336.17 1219.54,-324 1221.88,-308.17 1222.3,-303.76 1219.54,-288 1201.95,-187.46 1187.91,-162.93 1141.54,-72 1136.74,-62.59 1130.55,-52.86 1124.65,-44.35"/>
<polygon fill="black" stroke="black" points="1127.35,-42.1 1118.69,-35.99 1121.65,-46.16 1127.35,-42.1"/>
</g>
<!-- r&#45;tabulizerjars&#45;&gt;r&#45;tabulizer -->
<g id="edge42" class="edge">
<title>r&#45;tabulizerjars&#45;&gt;r&#45;tabulizer</title>
<path fill="none" stroke="black" d="M1189.75,-360.05C1182.81,-351.54 1174.29,-341.07 1166.64,-331.68"/>
<polygon fill="black" stroke="black" points="1169.24,-329.33 1160.21,-323.79 1163.82,-333.75 1169.24,-329.33"/>
</g>
<!-- r&#45;destinie&#45;&gt;conda&#45;forge&#45;pinning -->
<g id="edge43" class="edge">
<title>r&#45;destinie&#45;&gt;conda&#45;forge&#45;pinning</title>
<path fill="none" stroke="black" d="M525.84,-215.89C531.37,-182.07 548.79,-106.95 597.54,-72 629.29,-49.24 858.03,-32.7 997.52,-24.6"/>
<polygon fill="black" stroke="black" points="998.04,-28.08 1007.82,-24.01 997.64,-21.09 998.04,-28.08"/>
</g>
<!-- r&#45;fselector&#45;&gt;conda&#45;forge&#45;pinning -->
<g id="edge49" class="edge">
<title>r&#45;fselector&#45;&gt;conda&#45;forge&#45;pinning</title>
<path fill="none" stroke="black" d="M908.45,-76.49C946.48,-65.39 1002.41,-49.08 1044.99,-36.66"/>
<polygon fill="black" stroke="black" points="1046.06,-39.99 1054.68,-33.83 1044.1,-33.27 1046.06,-39.99"/>
</g>
<!-- rpy2 -->
<g id="node22" class="node">
<title>rpy2</title>
<g id="a_node22"><a xlink:href="https://github.com/conda-forge/rpy2-feedstock/pull/55" xlink:title="rpy2">
<ellipse fill="#31688e" stroke="black" cx="1358.54" cy="-162" rx="30.59" ry="18"/>
<text text-anchor="middle" x="1358.54" y="-158.3" font-family="Times,serif" font-size="14.00" fill="white">rpy2</text>
</a>
</g>
</g>
<!-- rpy2&#45;&gt;conda&#45;forge&#45;pinning -->
<g id="edge44" class="edge">
<title>rpy2&#45;&gt;conda&#45;forge&#45;pinning</title>
<path fill="none" stroke="black" d="M1344.96,-145.58C1324.76,-122.97 1287.39,-82.35 1270.54,-72 1243.02,-55.09 1209.56,-43.04 1179.99,-34.75"/>
<polygon fill="black" stroke="black" points="1180.69,-31.32 1170.12,-32.08 1178.86,-38.07 1180.69,-31.32"/>
</g>
<!-- iterativewgcna -->
<g id="node23" class="node">
<title>iterativewgcna</title>
<g id="a_node23"><a xlink:href="https://github.com/conda-forge/iterativewgcna-feedstock" xlink:title="iterativewgcna">
<ellipse fill="#fde725" stroke="black" cx="1401.54" cy="-90" rx="79.5" ry="18"/>
<text text-anchor="middle" x="1401.54" y="-86.3" font-family="Times,serif" font-size="14.00">iterativewgcna</text>
</a>
</g>
</g>
<!-- rpy2&#45;&gt;iterativewgcna -->
<g id="edge45" class="edge">
<title>rpy2&#45;&gt;iterativewgcna</title>
<path fill="none" stroke="black" d="M1368.52,-144.76C1373.63,-136.44 1379.98,-126.1 1385.74,-116.73"/>
<polygon fill="black" stroke="black" points="1388.77,-118.48 1391.02,-108.12 1382.81,-114.81 1388.77,-118.48"/>
</g>
<!-- iterativewgcna&#45;&gt;conda&#45;forge&#45;pinning -->
<g id="edge46" class="edge">
<title>iterativewgcna&#45;&gt;conda&#45;forge&#45;pinning</title>
<path fill="none" stroke="black" d="M1348.62,-76.49C1299.88,-64.96 1227.28,-47.79 1174.12,-35.22"/>
<polygon fill="black" stroke="black" points="1174.63,-31.74 1164.09,-32.85 1173.02,-38.55 1174.63,-31.74"/>
</g>
<!-- r&#45;rvaidememoire -->
<g id="node24" class="node">
<title>r&#45;rvaidememoire</title>
<g id="a_node24"><a xlink:href="https://github.com/conda-forge/r-rvaidememoire-feedstock" xlink:title="r rvaidememoire">
<ellipse fill="#35b779" stroke="black" cx="1582.54" cy="-90" rx="84" ry="18"/>
<text text-anchor="middle" x="1582.54" y="-86.3" font-family="Times,serif" font-size="14.00">r rvaidememoire</text>
</a>
</g>
</g>
<!-- r&#45;rvaidememoire&#45;&gt;conda&#45;forge&#45;pinning -->
<g id="edge47" class="edge">
<title>r&#45;rvaidememoire&#45;&gt;conda&#45;forge&#45;pinning</title>
<path fill="none" stroke="black" d="M1521.58,-77.46C1510.91,-75.56 1499.92,-73.66 1489.54,-72 1389.86,-56.02 1275.14,-40.57 1197.24,-30.51"/>
<polygon fill="black" stroke="black" points="1197.34,-27 1186.98,-29.19 1196.45,-33.94 1197.34,-27"/>
</g>
<!-- r&#45;hiver -->
<g id="node25" class="node">
<title>r&#45;hiver</title>
<g id="a_node25"><a xlink:href="https://github.com/conda-forge/r-hiver-feedstock" xlink:title="r hiver">
<ellipse fill="#35b779" stroke="black" cx="1659.54" cy="-162" rx="45" ry="18"/>
<text text-anchor="middle" x="1659.54" y="-158.3" font-family="Times,serif" font-size="14.00">r hiver</text>
</a>
</g>
</g>
<!-- r&#45;hiver&#45;&gt;conda&#45;forge&#45;pinning -->
<g id="edge48" class="edge">
<title>r&#45;hiver&#45;&gt;conda&#45;forge&#45;pinning</title>
<path fill="none" stroke="black" d="M1669.83,-144.29C1680.57,-124.5 1693.52,-91.73 1675.54,-72 1645.37,-38.89 1374.98,-26.13 1217.7,-21.48"/>
<polygon fill="black" stroke="black" points="1217.6,-17.97 1207.5,-21.18 1217.4,-24.97 1217.6,-17.97"/>
</g>
<!-- r&#45;littler -->
<g id="node26" class="node">
<title>r&#45;littler</title>
<g id="a_node26"><a xlink:href="https://github.com/conda-forge/r-littler-feedstock/pull/2" xlink:title="r littler">
<ellipse fill="#31688e" stroke="black" cx="1732.54" cy="-234" rx="54.69" ry="18"/>
<text text-anchor="middle" x="1732.54" y="-230.3" font-family="Times,serif" font-size="14.00" fill="white">r littler</text>
</a>
</g>
</g>
<!-- r&#45;littler&#45;&gt;conda&#45;forge&#45;pinning -->
<g id="edge50" class="edge">
<title>r&#45;littler&#45;&gt;conda&#45;forge&#45;pinning</title>
<path fill="none" stroke="black" d="M1734.41,-215.83C1736.98,-182.25 1737.22,-108.04 1694.54,-72 1658.95,-41.94 1377.72,-27.86 1217.08,-22.22"/>
<polygon fill="black" stroke="black" points="1216.79,-18.7 1206.67,-21.86 1216.55,-25.7 1216.79,-18.7"/>
</g>
<!-- r&#45;rxode -->
<g id="node27" class="node">
<title>r&#45;rxode</title>
<g id="a_node27"><a xlink:href="https://github.com/conda-forge/r-rxode-feedstock/pull/3" xlink:title="r rxode">
<ellipse fill="#31688e" stroke="black" cx="1827.54" cy="-162" rx="45" ry="18"/>
<text text-anchor="middle" x="1827.54" y="-158.3" font-family="Times,serif" font-size="14.00" fill="white">r rxode</text>
</a>
</g>
</g>
<!-- r&#45;rxode&#45;&gt;conda&#45;forge&#45;pinning -->
<g id="edge51" class="edge">
<title>r&#45;rxode&#45;&gt;conda&#45;forge&#45;pinning</title>
<path fill="none" stroke="black" d="M1814.83,-144.32C1796.61,-120.93 1763.41,-80.3 1746.54,-72 1656.72,-27.78 1378.24,-19.51 1219.46,-18.51"/>
<polygon fill="black" stroke="black" points="1219.2,-15.01 1209.18,-18.46 1219.16,-22.01 1219.2,-15.01"/>
</g>
<!-- r&#45;nlmixr -->
<g id="node28" class="node">
<title>r&#45;nlmixr</title>
<g id="a_node28"><a xlink:href="https://github.com/conda-forge/r-nlmixr-feedstock" xlink:title="r nlmixr">
<ellipse fill="#fde725" stroke="black" cx="1848.54" cy="-90" rx="50.09" ry="18"/>
<text text-anchor="middle" x="1848.54" y="-86.3" font-family="Times,serif" font-size="14.00">r nlmixr</text>
</a>
</g>
</g>
<!-- r&#45;rxode&#45;&gt;r&#45;nlmixr -->
<g id="edge52" class="edge">
<title>r&#45;rxode&#45;&gt;r&#45;nlmixr</title>
<path fill="none" stroke="black" d="M1832.63,-144.05C1834.97,-136.26 1837.8,-126.82 1840.42,-118.08"/>
<polygon fill="black" stroke="black" points="1843.84,-118.86 1843.36,-108.28 1837.14,-116.85 1843.84,-118.86"/>
</g>
<!-- r&#45;nlmixr&#45;&gt;conda&#45;forge&#45;pinning -->
<g id="edge53" class="edge">
<title>r&#45;nlmixr&#45;&gt;conda&#45;forge&#45;pinning</title>
<path fill="none" stroke="black" d="M1811.23,-77.87C1802.54,-75.62 1793.27,-73.49 1784.54,-72 1586.88,-38.32 1353.14,-26 1217.85,-21.53"/>
<polygon fill="black" stroke="black" points="1217.59,-18.02 1207.48,-21.19 1217.37,-25.01 1217.59,-18.02"/>
</g>
<!-- r&#45;reactable -->
<g id="node29" class="node">
<title>r&#45;reactable</title>
<g id="a_node29"><a xlink:href="https://github.com/conda-forge/r-reactable-feedstock" xlink:title="r reactable">
<ellipse fill="#35b779" stroke="black" cx="1926.54" cy="-306" rx="64.5" ry="18"/>
<text text-anchor="middle" x="1926.54" y="-302.3" font-family="Times,serif" font-size="14.00">r reactable</text>
</a>
</g>
</g>
<!-- r&#45;reactable&#45;&gt;conda&#45;forge&#45;pinning -->
<g id="edge54" class="edge">
<title>r&#45;reactable&#45;&gt;conda&#45;forge&#45;pinning</title>
<path fill="none" stroke="black" d="M1931.64,-287.89C1943.35,-244.67 1966.83,-130.38 1907.54,-72 1859.61,-24.8 1428.8,-18.63 1219.15,-18.47"/>
<polygon fill="black" stroke="black" points="1219.03,-14.97 1209.03,-18.46 1219.03,-21.97 1219.03,-14.97"/>
</g>
<!-- r&#45;lmom -->
<g id="node30" class="node">
<title>r&#45;lmom</title>
<g id="a_node30"><a xlink:href="https://github.com/conda-forge/r-lmom-feedstock/pull/1" xlink:title="r lmom">
<ellipse fill="#31688e" stroke="black" cx="2011.54" cy="-234" rx="40.5" ry="18"/>
<text text-anchor="middle" x="2011.54" y="-230.3" font-family="Times,serif" font-size="14.00" fill="white">r lmom</text>
</a>
</g>
</g>
<!-- r&#45;lmom&#45;&gt;conda&#45;forge&#45;pinning -->
<g id="edge55" class="edge">
<title>r&#45;lmom&#45;&gt;conda&#45;forge&#45;pinning</title>
<path fill="none" stroke="black" d="M2001.99,-216.05C1996.35,-205.76 1989.21,-192.28 1983.54,-180 1961.89,-133.09 1982.36,-102.34 1940.54,-72 1883.54,-30.65 1433.76,-21.53 1218.98,-19.54"/>
<polygon fill="black" stroke="black" points="1218.96,-16.04 1208.93,-19.45 1218.9,-23.04 1218.96,-16.04"/>
</g>
<!-- r&#45;gld -->
<g id="node31" class="node">
<title>r&#45;gld</title>
<g id="a_node31"><a xlink:href="https://github.com/conda-forge/r-gld-feedstock" xlink:title="r gld">
<ellipse fill="#fde725" stroke="black" cx="2027.54" cy="-162" rx="35.19" ry="18"/>
<text text-anchor="middle" x="2027.54" y="-158.3" font-family="Times,serif" font-size="14.00">r gld</text>
</a>
</g>
</g>
<!-- r&#45;lmom&#45;&gt;r&#45;gld -->
<g id="edge56" class="edge">
<title>r&#45;lmom&#45;&gt;r&#45;gld</title>
<path fill="none" stroke="black" d="M2015.42,-216.05C2017.2,-208.26 2019.36,-198.82 2021.35,-190.08"/>
<polygon fill="black" stroke="black" points="2024.78,-190.8 2023.6,-180.28 2017.95,-189.24 2024.78,-190.8"/>
</g>
<!-- r&#45;gld&#45;&gt;conda&#45;forge&#45;pinning -->
<g id="edge57" class="edge">
<title>r&#45;gld&#45;&gt;conda&#45;forge&#45;pinning</title>
<path fill="none" stroke="black" d="M2023.46,-143.78C2017.49,-122.82 2004.18,-88.22 1978.54,-72 1915.87,-32.35 1440.39,-22.35 1218.7,-19.84"/>
<polygon fill="black" stroke="black" points="1218.7,-16.34 1208.66,-19.73 1218.62,-23.34 1218.7,-16.34"/>
</g>
<!-- r&#45;paireddata -->
<g id="node32" class="node">
<title>r&#45;paireddata</title>
<g id="a_node32"><a xlink:href="https://github.com/conda-forge/r-paireddata-feedstock" xlink:title="r paireddata">
<ellipse fill="#fde725" stroke="black" cx="2100.54" cy="-90" rx="69.59" ry="18"/>
<text text-anchor="middle" x="2100.54" y="-86.3" font-family="Times,serif" font-size="14.00">r paireddata</text>
</a>
</g>
</g>
<!-- r&#45;gld&#45;&gt;r&#45;paireddata -->
<g id="edge58" class="edge">
<title>r&#45;gld&#45;&gt;r&#45;paireddata</title>
<path fill="none" stroke="black" d="M2043.38,-145.81C2052.83,-136.75 2065.03,-125.05 2075.74,-114.79"/>
<polygon fill="black" stroke="black" points="2078.41,-117.08 2083.2,-107.63 2073.56,-112.02 2078.41,-117.08"/>
</g>
<!-- r&#45;paireddata&#45;&gt;conda&#45;forge&#45;pinning -->
<g id="edge59" class="edge">
<title>r&#45;paireddata&#45;&gt;conda&#45;forge&#45;pinning</title>
<path fill="none" stroke="black" d="M2050.1,-77.59C2039.09,-75.43 2027.46,-73.42 2016.54,-72 1730.79,-34.96 1391.24,-23.8 1218.57,-20.44"/>
<polygon fill="black" stroke="black" points="1218.52,-16.94 1208.45,-20.25 1218.38,-23.94 1218.52,-16.94"/>
</g>
<!-- r&#45;aiccmodavg -->
<g id="node33" class="node">
<title>r&#45;aiccmodavg</title>
<g id="a_node33"><a xlink:href="https://github.com/conda-forge/r-aiccmodavg-feedstock" xlink:title="r aiccmodavg">
<ellipse fill="#35b779" stroke="black" cx="2198.54" cy="-378" rx="69.59" ry="18"/>
<text text-anchor="middle" x="2198.54" y="-374.3" font-family="Times,serif" font-size="14.00">r aiccmodavg</text>
</a>
</g>
</g>
<!-- r&#45;aiccmodavg&#45;&gt;conda&#45;forge&#45;pinning -->
<g id="edge60" class="edge">
<title>r&#45;aiccmodavg&#45;&gt;conda&#45;forge&#45;pinning</title>
<path fill="none" stroke="black" d="M2198.54,-359.95C2198.54,-333.29 2198.54,-280.11 2198.54,-235 2198.54,-235 2198.54,-235 2198.54,-161 2198.54,-120.55 2210.35,-98.21 2179.54,-72 2143.39,-41.25 1486.79,-25.91 1218.42,-20.9"/>
<polygon fill="black" stroke="black" points="1218.32,-17.4 1208.26,-20.71 1218.19,-24.4 1218.32,-17.4"/>
</g>
</g>
</svg>
