<?xml version="1.0" encoding="UTF-8" standalone="no"?>
<!DOCTYPE svg PUBLIC "-//W3C//DTD SVG 1.1//EN"
 "http://www.w3.org/Graphics/SVG/1.1/DTD/svg11.dtd">
<!-- Generated by graphviz version 2.42.3 (20191010.1750)
 -->
<!-- Title: %3 Pages: 1 -->
<svg width="2834pt" height="476pt"
 viewBox="0.00 0.00 2834.46 476.00" xmlns="http://www.w3.org/2000/svg" xmlns:xlink="http://www.w3.org/1999/xlink">
<g id="graph0" class="graph" transform="scale(1 1) rotate(0) translate(4 472)">
<title>%3</title>
<polygon fill="white" stroke="transparent" points="-4,4 -4,-472 2830.46,-472 2830.46,4 -4,4"/>
<!-- r&#45;fst -->
<g id="node1" class="node">
<title>r&#45;fst</title>
<g id="a_node1"><a xlink:href="https://github.com/conda-forge/r-fst-feedstock/pull/11" xlink:title="r fst">
<ellipse fill="#31688e" stroke="black" cx="38.41" cy="-162" rx="35.19" ry="18"/>
<text text-anchor="middle" x="38.41" y="-158.3" font-family="Times,serif" font-size="14.00" fill="white">r fst</text>
</a>
</g>
</g>
<!-- r&#45;disk.frame -->
<g id="node2" class="node">
<title>r&#45;disk.frame</title>
<g id="a_node2"><a xlink:href="https://github.com/conda-forge/r-disk.frame-feedstock" xlink:title="r disk frame">
<ellipse fill="#fde725" stroke="black" cx="87.41" cy="-90" rx="69.59" ry="18"/>
<text text-anchor="middle" x="87.41" y="-86.3" font-family="Times,serif" font-size="14.00">r disk frame</text>
</a>
</g>
</g>
<!-- r&#45;fst&#45;&gt;r&#45;disk.frame -->
<g id="edge1" class="edge">
<title>r&#45;fst&#45;&gt;r&#45;disk.frame</title>
<path fill="none" stroke="black" d="M49.78,-144.76C55.66,-136.35 62.99,-125.89 69.61,-116.44"/>
<polygon fill="black" stroke="black" points="72.56,-118.32 75.42,-108.12 66.82,-114.31 72.56,-118.32"/>
</g>
<!-- conda&#45;forge&#45;pinning -->
<g id="node3" class="node">
<title>conda&#45;forge&#45;pinning</title>
<ellipse fill="none" stroke="black" cx="1236.41" cy="-18" rx="103.5" ry="18"/>
<text text-anchor="middle" x="1236.41" y="-14.3" font-family="Times,serif" font-size="14.00">conda&#45;forge&#45;pinning</text>
</g>
<!-- r&#45;fst&#45;&gt;conda&#45;forge&#45;pinning -->
<g id="edge2" class="edge">
<title>r&#45;fst&#45;&gt;conda&#45;forge&#45;pinning</title>
<path fill="none" stroke="black" d="M24.57,-145.08C9.22,-125.47 -10.99,-92.25 8.41,-72 46.6,-32.13 825.8,-22.08 1122.79,-19.7"/>
<polygon fill="black" stroke="black" points="1123.18,-23.2 1133.15,-19.62 1123.12,-16.2 1123.18,-23.2"/>
</g>
<!-- r&#45;disk.frame&#45;&gt;conda&#45;forge&#45;pinning -->
<g id="edge3" class="edge">
<title>r&#45;disk.frame&#45;&gt;conda&#45;forge&#45;pinning</title>
<path fill="none" stroke="black" d="M137.85,-77.52C148.86,-75.37 160.49,-73.37 171.41,-72 515.86,-28.82 927.12,-20.46 1122.5,-19.08"/>
<polygon fill="black" stroke="black" points="1122.8,-22.58 1132.78,-19.01 1122.76,-15.58 1122.8,-22.58"/>
</g>
<!-- r&#45;hive -->
<g id="node4" class="node">
<title>r&#45;hive</title>
<g id="a_node4"><a xlink:href="https://github.com/conda-forge/r-hive-feedstock" xlink:title="r hive">
<ellipse fill="#fde725" stroke="black" cx="1249.41" cy="-234" rx="40.5" ry="18"/>
<text text-anchor="middle" x="1249.41" y="-230.3" font-family="Times,serif" font-size="14.00">r hive</text>
</a>
</g>
</g>
<!-- r&#45;hive&#45;&gt;conda&#45;forge&#45;pinning -->
<g id="edge4" class="edge">
<title>r&#45;hive&#45;&gt;conda&#45;forge&#45;pinning</title>
<path fill="none" stroke="black" d="M1243.26,-216.14C1233.33,-186.9 1215.55,-124.84 1222.41,-72 1223.51,-63.51 1225.57,-54.43 1227.78,-46.24"/>
<polygon fill="black" stroke="black" points="1231.19,-47.02 1230.59,-36.44 1224.47,-45.09 1231.19,-47.02"/>
</g>
<!-- r&#45;rjava -->
<g id="node5" class="node">
<title>r&#45;rjava</title>
<g id="a_node5"><a xlink:href="https://github.com/conda-forge/r-rjava-feedstock" xlink:title="r rjava">
<ellipse fill="#35b779" stroke="black" cx="881.41" cy="-450" rx="45" ry="18"/>
<text text-anchor="middle" x="881.41" y="-446.3" font-family="Times,serif" font-size="14.00">r rjava</text>
</a>
</g>
</g>
<!-- r&#45;rjava&#45;&gt;conda&#45;forge&#45;pinning -->
<g id="edge5" class="edge">
<title>r&#45;rjava&#45;&gt;conda&#45;forge&#45;pinning</title>
<path fill="none" stroke="black" d="M925.99,-446.61C1028.5,-440.67 1274.05,-423.65 1298.41,-396 1383.64,-299.25 1302,-231.03 1263.41,-108 1256.87,-87.14 1249.69,-63.44 1244.38,-45.75"/>
<polygon fill="black" stroke="black" points="1247.71,-44.67 1241.49,-36.09 1241.01,-46.67 1247.71,-44.67"/>
</g>
<!-- r&#45;rjava&#45;&gt;r&#45;hive -->
<g id="edge6" class="edge">
<title>r&#45;rjava&#45;&gt;r&#45;hive</title>
<path fill="none" stroke="black" d="M925.47,-446.31C1023.64,-439.87 1253.55,-422.14 1276.41,-396 1309.5,-358.17 1283.79,-295.5 1264.87,-260.55"/>
<polygon fill="black" stroke="black" points="1267.72,-258.48 1259.76,-251.47 1261.61,-261.91 1267.72,-258.48"/>
</g>
<!-- r&#45;xlsx -->
<g id="node6" class="node">
<title>r&#45;xlsx</title>
<g id="a_node6"><a xlink:href="https://github.com/conda-forge/r-xlsx-feedstock" xlink:title="r xlsx">
<ellipse fill="#fde725" stroke="black" cx="440.41" cy="-306" rx="40.5" ry="18"/>
<text text-anchor="middle" x="440.41" y="-302.3" font-family="Times,serif" font-size="14.00">r xlsx</text>
</a>
</g>
</g>
<!-- r&#45;rjava&#45;&gt;r&#45;xlsx -->
<g id="edge7" class="edge">
<title>r&#45;rjava&#45;&gt;r&#45;xlsx</title>
<path fill="none" stroke="black" d="M836.83,-447.47C748.05,-443.7 552.9,-431.5 497.41,-396 474.56,-381.38 459.1,-353.97 450.11,-333.42"/>
<polygon fill="black" stroke="black" points="453.26,-331.88 446.21,-323.96 446.78,-334.54 453.26,-331.88"/>
</g>
<!-- r&#45;xlsxjars -->
<g id="node7" class="node">
<title>r&#45;xlsxjars</title>
<g id="a_node7"><a xlink:href="https://github.com/conda-forge/r-xlsxjars-feedstock" xlink:title="r xlsxjars">
<ellipse fill="#fde725" stroke="black" cx="385.41" cy="-378" rx="60" ry="18"/>
<text text-anchor="middle" x="385.41" y="-374.3" font-family="Times,serif" font-size="14.00">r xlsxjars</text>
</a>
</g>
</g>
<!-- r&#45;rjava&#45;&gt;r&#45;xlsxjars -->
<g id="edge8" class="edge">
<title>r&#45;rjava&#45;&gt;r&#45;xlsxjars</title>
<path fill="none" stroke="black" d="M838.06,-445.01C761.35,-437.63 596.83,-420.35 459.41,-396 453.19,-394.9 446.71,-393.61 440.28,-392.25"/>
<polygon fill="black" stroke="black" points="440.78,-388.78 430.27,-390.07 439.29,-395.62 440.78,-388.78"/>
</g>
<!-- r&#45;xlconnectjars -->
<g id="node8" class="node">
<title>r&#45;xlconnectjars</title>
<g id="a_node8"><a xlink:href="https://github.com/conda-forge/r-xlconnectjars-feedstock" xlink:title="r xlconnectjars">
<ellipse fill="#fde725" stroke="black" cx="185.41" cy="-378" rx="84" ry="18"/>
<text text-anchor="middle" x="185.41" y="-374.3" font-family="Times,serif" font-size="14.00">r xlconnectjars</text>
</a>
</g>
</g>
<!-- r&#45;rjava&#45;&gt;r&#45;xlconnectjars -->
<g id="edge9" class="edge">
<title>r&#45;rjava&#45;&gt;r&#45;xlconnectjars</title>
<path fill="none" stroke="black" d="M837.01,-446.34C737.59,-440.09 489.59,-422.97 283.41,-396 274.7,-394.86 265.59,-393.5 256.57,-392.06"/>
<polygon fill="black" stroke="black" points="256.89,-388.57 246.45,-390.4 255.76,-395.47 256.89,-388.57"/>
</g>
<!-- r&#45;xlconnect -->
<g id="node9" class="node">
<title>r&#45;xlconnect</title>
<g id="a_node9"><a xlink:href="https://github.com/conda-forge/r-xlconnect-feedstock" xlink:title="r xlconnect">
<ellipse fill="#fde725" stroke="black" cx="278.41" cy="-306" rx="64.5" ry="18"/>
<text text-anchor="middle" x="278.41" y="-302.3" font-family="Times,serif" font-size="14.00">r xlconnect</text>
</a>
</g>
</g>
<!-- r&#45;rjava&#45;&gt;r&#45;xlconnect -->
<g id="edge10" class="edge">
<title>r&#45;rjava&#45;&gt;r&#45;xlconnect</title>
<path fill="none" stroke="black" d="M836.84,-447.42C710.78,-442.58 358.14,-426.45 316.41,-396 296.65,-381.58 287.07,-354.77 282.49,-334.33"/>
<polygon fill="black" stroke="black" points="285.89,-333.46 280.52,-324.32 279.02,-334.81 285.89,-333.46"/>
</g>
<!-- r&#45;rcdklibs -->
<g id="node10" class="node">
<title>r&#45;rcdklibs</title>
<g id="a_node10"><a xlink:href="https://github.com/conda-forge/r-rcdklibs-feedstock" xlink:title="r rcdklibs">
<ellipse fill="#fde725" stroke="black" cx="616.41" cy="-378" rx="60" ry="18"/>
<text text-anchor="middle" x="616.41" y="-374.3" font-family="Times,serif" font-size="14.00">r rcdklibs</text>
</a>
</g>
</g>
<!-- r&#45;rjava&#45;&gt;r&#45;rcdklibs -->
<g id="edge11" class="edge">
<title>r&#45;rjava&#45;&gt;r&#45;rcdklibs</title>
<path fill="none" stroke="black" d="M844.84,-439.34C799.49,-427.36 721.82,-406.84 669.81,-393.1"/>
<polygon fill="black" stroke="black" points="670.65,-389.71 660.08,-390.54 668.86,-396.47 670.65,-389.71"/>
</g>
<!-- r&#45;rcdk -->
<g id="node11" class="node">
<title>r&#45;rcdk</title>
<g id="a_node11"><a xlink:href="https://github.com/conda-forge/r-rcdk-feedstock" xlink:title="r rcdk">
<ellipse fill="#fde725" stroke="black" cx="616.41" cy="-306" rx="40.5" ry="18"/>
<text text-anchor="middle" x="616.41" y="-302.3" font-family="Times,serif" font-size="14.00">r rcdk</text>
</a>
</g>
</g>
<!-- r&#45;rjava&#45;&gt;r&#45;rcdk -->
<g id="edge12" class="edge">
<title>r&#45;rjava&#45;&gt;r&#45;rcdk</title>
<path fill="none" stroke="black" d="M855.52,-435.13C807.36,-409.32 704.03,-353.95 650.35,-325.19"/>
<polygon fill="black" stroke="black" points="651.71,-321.95 641.24,-320.31 648.41,-328.12 651.71,-321.95"/>
</g>
<!-- r&#45;rchoicedialogs -->
<g id="node12" class="node">
<title>r&#45;rchoicedialogs</title>
<g id="a_node12"><a xlink:href="https://github.com/conda-forge/r-rchoicedialogs-feedstock" xlink:title="r rchoicedialogs">
<ellipse fill="#fde725" stroke="black" cx="764.41" cy="-306" rx="89.08" ry="18"/>
<text text-anchor="middle" x="764.41" y="-302.3" font-family="Times,serif" font-size="14.00">r rchoicedialogs</text>
</a>
</g>
</g>
<!-- r&#45;rjava&#45;&gt;r&#45;rchoicedialogs -->
<g id="edge13" class="edge">
<title>r&#45;rjava&#45;&gt;r&#45;rchoicedialogs</title>
<path fill="none" stroke="black" d="M867.99,-432.71C847.67,-408.05 808.93,-361.03 785.02,-332.01"/>
<polygon fill="black" stroke="black" points="787.46,-329.47 778.4,-323.98 782.06,-333.92 787.46,-329.47"/>
</g>
<!-- r&#45;rwekajars -->
<g id="node13" class="node">
<title>r&#45;rwekajars</title>
<g id="a_node13"><a xlink:href="https://github.com/conda-forge/r-rwekajars-feedstock" xlink:title="r rwekajars">
<ellipse fill="#fde725" stroke="black" cx="769.41" cy="-234" rx="64.5" ry="18"/>
<text text-anchor="middle" x="769.41" y="-230.3" font-family="Times,serif" font-size="14.00">r rwekajars</text>
</a>
</g>
</g>
<!-- r&#45;rjava&#45;&gt;r&#45;rwekajars -->
<g id="edge14" class="edge">
<title>r&#45;rjava&#45;&gt;r&#45;rwekajars</title>
<path fill="none" stroke="black" d="M884.1,-431.8C888.06,-400.38 892.1,-332.81 862.41,-288 852.11,-272.46 835.61,-260.96 819.34,-252.72"/>
<polygon fill="black" stroke="black" points="820.37,-249.34 809.84,-248.24 817.39,-255.67 820.37,-249.34"/>
</g>
<!-- r&#45;rweka -->
<g id="node14" class="node">
<title>r&#45;rweka</title>
<g id="a_node14"><a xlink:href="https://github.com/conda-forge/r-rweka-feedstock" xlink:title="r rweka">
<ellipse fill="#fde725" stroke="black" cx="816.41" cy="-162" rx="45" ry="18"/>
<text text-anchor="middle" x="816.41" y="-158.3" font-family="Times,serif" font-size="14.00">r rweka</text>
</a>
</g>
</g>
<!-- r&#45;rjava&#45;&gt;r&#45;rweka -->
<g id="edge15" class="edge">
<title>r&#45;rjava&#45;&gt;r&#45;rweka</title>
<path fill="none" stroke="black" d="M889.11,-432.22C893.37,-421.99 898.23,-408.52 900.41,-396 903.15,-380.24 902.16,-375.9 900.41,-360 896.83,-327.42 895.91,-318.7 884.41,-288 870.81,-251.69 848.33,-212.92 832.96,-188.35"/>
<polygon fill="black" stroke="black" points="835.77,-186.24 827.46,-179.67 829.86,-189.99 835.77,-186.24"/>
</g>
<!-- r&#45;subspace -->
<g id="node15" class="node">
<title>r&#45;subspace</title>
<g id="a_node15"><a xlink:href="https://github.com/conda-forge/r-subspace-feedstock" xlink:title="r subspace">
<ellipse fill="#fde725" stroke="black" cx="950.41" cy="-234" rx="60" ry="18"/>
<text text-anchor="middle" x="950.41" y="-230.3" font-family="Times,serif" font-size="14.00">r subspace</text>
</a>
</g>
</g>
<!-- r&#45;rjava&#45;&gt;r&#45;subspace -->
<g id="edge16" class="edge">
<title>r&#45;rjava&#45;&gt;r&#45;subspace</title>
<path fill="none" stroke="black" d="M901.87,-433.92C913.17,-424.38 926.32,-411.04 933.41,-396 953.76,-352.83 954.59,-296.09 952.85,-262.78"/>
<polygon fill="black" stroke="black" points="956.32,-262.19 952.18,-252.44 949.33,-262.64 956.32,-262.19"/>
</g>
<!-- r&#45;rmcfs -->
<g id="node16" class="node">
<title>r&#45;rmcfs</title>
<g id="a_node16"><a xlink:href="https://github.com/conda-forge/r-rmcfs-feedstock" xlink:title="r rmcfs">
<ellipse fill="#fde725" stroke="black" cx="1009.41" cy="-162" rx="45" ry="18"/>
<text text-anchor="middle" x="1009.41" y="-158.3" font-family="Times,serif" font-size="14.00">r rmcfs</text>
</a>
</g>
</g>
<!-- r&#45;rjava&#45;&gt;r&#45;rmcfs -->
<g id="edge17" class="edge">
<title>r&#45;rjava&#45;&gt;r&#45;rmcfs</title>
<path fill="none" stroke="black" d="M907.01,-435.03C922.36,-425.62 941.36,-412.03 954.41,-396 998.75,-341.55 1004.64,-320.65 1019.41,-252 1023.85,-231.38 1020.78,-207.63 1016.91,-189.86"/>
<polygon fill="black" stroke="black" points="1020.25,-188.8 1014.52,-179.89 1013.45,-190.43 1020.25,-188.8"/>
</g>
<!-- r&#45;rjdbc -->
<g id="node17" class="node">
<title>r&#45;rjdbc</title>
<g id="a_node17"><a xlink:href="https://github.com/conda-forge/r-rjdbc-feedstock" xlink:title="r rjdbc">
<ellipse fill="#fde725" stroke="black" cx="1049.41" cy="-90" rx="45" ry="18"/>
<text text-anchor="middle" x="1049.41" y="-86.3" font-family="Times,serif" font-size="14.00">r rjdbc</text>
</a>
</g>
</g>
<!-- r&#45;rjava&#45;&gt;r&#45;rjdbc -->
<g id="edge18" class="edge">
<title>r&#45;rjava&#45;&gt;r&#45;rjdbc</title>
<path fill="none" stroke="black" d="M914.68,-437.59C936.13,-428.89 963.45,-415.12 982.41,-396 1054.6,-323.19 1048.26,-281.4 1063.41,-180 1065.77,-164.18 1065.47,-159.87 1063.41,-144 1062.28,-135.28 1060.14,-125.95 1057.87,-117.58"/>
<polygon fill="black" stroke="black" points="1061.23,-116.6 1055.09,-107.96 1054.5,-118.54 1061.23,-116.6"/>
</g>
<!-- r&#45;tabulizer -->
<g id="node18" class="node">
<title>r&#45;tabulizer</title>
<g id="a_node18"><a xlink:href="https://github.com/conda-forge/r-tabulizer-feedstock" xlink:title="r tabulizer">
<ellipse fill="#fde725" stroke="black" cx="1126.41" cy="-306" rx="64.5" ry="18"/>
<text text-anchor="middle" x="1126.41" y="-302.3" font-family="Times,serif" font-size="14.00">r tabulizer</text>
</a>
</g>
</g>
<!-- r&#45;rjava&#45;&gt;r&#45;tabulizer -->
<g id="edge19" class="edge">
<title>r&#45;rjava&#45;&gt;r&#45;tabulizer</title>
<path fill="none" stroke="black" d="M922.26,-442.28C957.57,-435.06 1008.87,-421.08 1047.41,-396 1073.05,-379.31 1095.46,-352.15 1109.8,-332.21"/>
<polygon fill="black" stroke="black" points="1112.76,-334.1 1115.62,-323.9 1107.02,-330.08 1112.76,-334.1"/>
</g>
<!-- r&#45;tabulizerjars -->
<g id="node19" class="node">
<title>r&#45;tabulizerjars</title>
<g id="a_node19"><a xlink:href="https://github.com/conda-forge/r-tabulizerjars-feedstock" xlink:title="r tabulizerjars">
<ellipse fill="#fde725" stroke="black" cx="1183.41" cy="-378" rx="84" ry="18"/>
<text text-anchor="middle" x="1183.41" y="-374.3" font-family="Times,serif" font-size="14.00">r tabulizerjars</text>
</a>
</g>
</g>
<!-- r&#45;rjava&#45;&gt;r&#45;tabulizerjars -->
<g id="edge20" class="edge">
<title>r&#45;rjava&#45;&gt;r&#45;tabulizerjars</title>
<path fill="none" stroke="black" d="M919.35,-440.21C969.33,-428.62 1057.95,-408.08 1118.63,-394.01"/>
<polygon fill="black" stroke="black" points="1119.55,-397.4 1128.5,-391.73 1117.96,-390.58 1119.55,-397.4"/>
</g>
<!-- r&#45;destinie -->
<g id="node20" class="node">
<title>r&#45;destinie</title>
<g id="a_node20"><a xlink:href="https://github.com/conda-forge/r-destinie-feedstock" xlink:title="r destinie">
<ellipse fill="#fde725" stroke="black" cx="503.41" cy="-234" rx="60" ry="18"/>
<text text-anchor="middle" x="503.41" y="-230.3" font-family="Times,serif" font-size="14.00">r destinie</text>
</a>
</g>
</g>
<!-- r&#45;rjava&#45;&gt;r&#45;destinie -->
<g id="edge21" class="edge">
<title>r&#45;rjava&#45;&gt;r&#45;destinie</title>
<path fill="none" stroke="black" d="M836.46,-447.75C755.4,-444.56 589.28,-433.52 547.41,-396 509.47,-362 502.89,-298.76 502.49,-262.49"/>
<polygon fill="black" stroke="black" points="505.99,-262.17 502.54,-252.15 498.99,-262.14 505.99,-262.17"/>
</g>
<!-- r&#45;xlsx&#45;&gt;conda&#45;forge&#45;pinning -->
<g id="edge22" class="edge">
<title>r&#45;xlsx&#45;&gt;conda&#45;forge&#45;pinning</title>
<path fill="none" stroke="black" d="M435.55,-288.12C431.14,-269.86 426.43,-240.11 434.41,-216 459.46,-140.3 471.59,-110.5 541.41,-72 591.17,-44.56 942.03,-28.86 1125.38,-22.44"/>
<polygon fill="black" stroke="black" points="1125.72,-25.93 1135.59,-22.08 1125.48,-18.93 1125.72,-25.93"/>
</g>
<!-- r&#45;xlsx&#45;&gt;r&#45;destinie -->
<g id="edge23" class="edge">
<title>r&#45;xlsx&#45;&gt;r&#45;destinie</title>
<path fill="none" stroke="black" d="M454.71,-289.12C462.61,-280.33 472.6,-269.23 481.48,-259.37"/>
<polygon fill="black" stroke="black" points="484.2,-261.57 488.29,-251.8 479,-256.89 484.2,-261.57"/>
</g>
<!-- r&#45;xlsxjars&#45;&gt;conda&#45;forge&#45;pinning -->
<g id="edge24" class="edge">
<title>r&#45;xlsxjars&#45;&gt;conda&#45;forge&#45;pinning</title>
<path fill="none" stroke="black" d="M382.64,-360C378.56,-333.42 371.41,-280.33 371.41,-235 371.41,-235 371.41,-235 371.41,-161 371.41,-96.02 426.65,-95.05 487.41,-72 600.46,-29.12 942.92,-20.55 1122.99,-19.09"/>
<polygon fill="black" stroke="black" points="1123.05,-22.59 1133.02,-19.01 1123,-15.59 1123.05,-22.59"/>
</g>
<!-- r&#45;xlsxjars&#45;&gt;r&#45;xlsx -->
<g id="edge25" class="edge">
<title>r&#45;xlsxjars&#45;&gt;r&#45;xlsx</title>
<path fill="none" stroke="black" d="M398.44,-360.41C405.23,-351.78 413.65,-341.06 421.16,-331.5"/>
<polygon fill="black" stroke="black" points="424.04,-333.5 427.47,-323.47 418.54,-329.17 424.04,-333.5"/>
</g>
<!-- r&#45;xlconnectjars&#45;&gt;conda&#45;forge&#45;pinning -->
<g id="edge26" class="edge">
<title>r&#45;xlconnectjars&#45;&gt;conda&#45;forge&#45;pinning</title>
<path fill="none" stroke="black" d="M185.41,-359.95C185.41,-333.29 185.41,-280.11 185.41,-235 185.41,-235 185.41,-235 185.41,-161 185.41,-88.76 252.81,-94.63 321.41,-72 466.93,-23.99 911.38,-18.22 1122.61,-18.31"/>
<polygon fill="black" stroke="black" points="1122.79,-21.81 1132.8,-18.32 1122.8,-14.81 1122.79,-21.81"/>
</g>
<!-- r&#45;xlconnectjars&#45;&gt;r&#45;xlconnect -->
<g id="edge27" class="edge">
<title>r&#45;xlconnectjars&#45;&gt;r&#45;xlconnect</title>
<path fill="none" stroke="black" d="M207.45,-360.41C219.82,-351.1 235.41,-339.37 248.83,-329.27"/>
<polygon fill="black" stroke="black" points="250.96,-332.04 256.85,-323.23 246.76,-326.45 250.96,-332.04"/>
</g>
<!-- r&#45;xlconnect&#45;&gt;conda&#45;forge&#45;pinning -->
<g id="edge28" class="edge">
<title>r&#45;xlconnect&#45;&gt;conda&#45;forge&#45;pinning</title>
<path fill="none" stroke="black" d="M278.27,-287.92C278.94,-243.73 287.47,-125.39 357.41,-72 416.84,-26.63 898.69,-19.65 1122.69,-18.88"/>
<polygon fill="black" stroke="black" points="1122.85,-22.38 1132.84,-18.85 1122.83,-15.38 1122.85,-22.38"/>
</g>
<!-- r&#45;rcdklibs&#45;&gt;conda&#45;forge&#45;pinning -->
<g id="edge29" class="edge">
<title>r&#45;rcdklibs&#45;&gt;conda&#45;forge&#45;pinning</title>
<path fill="none" stroke="black" d="M595.12,-361.11C584.31,-351.68 572.25,-338.7 566.41,-324 560.5,-309.13 562.91,-303.61 566.41,-288 589.72,-184.03 582.49,-132.18 670.41,-72 707.11,-46.88 972.68,-30.86 1126.67,-23.58"/>
<polygon fill="black" stroke="black" points="1127.27,-27.05 1137.1,-23.09 1126.95,-20.06 1127.27,-27.05"/>
</g>
<!-- r&#45;rcdklibs&#45;&gt;r&#45;rcdk -->
<g id="edge30" class="edge">
<title>r&#45;rcdklibs&#45;&gt;r&#45;rcdk</title>
<path fill="none" stroke="black" d="M616.41,-359.7C616.41,-351.98 616.41,-342.71 616.41,-334.11"/>
<polygon fill="black" stroke="black" points="619.91,-334.1 616.41,-324.1 612.91,-334.1 619.91,-334.1"/>
</g>
<!-- r&#45;rcdk&#45;&gt;conda&#45;forge&#45;pinning -->
<g id="edge31" class="edge">
<title>r&#45;rcdk&#45;&gt;conda&#45;forge&#45;pinning</title>
<path fill="none" stroke="black" d="M617.31,-288C620.65,-244 636.15,-126.08 707.41,-72 740.06,-47.22 982.04,-31.32 1127.17,-23.9"/>
<polygon fill="black" stroke="black" points="1127.64,-27.38 1137.45,-23.38 1127.29,-20.39 1127.64,-27.38"/>
</g>
<!-- r&#45;rchoicedialogs&#45;&gt;conda&#45;forge&#45;pinning -->
<g id="edge32" class="edge">
<title>r&#45;rchoicedialogs&#45;&gt;conda&#45;forge&#45;pinning</title>
<path fill="none" stroke="black" d="M732.38,-289.11C718.31,-280.29 703.22,-267.85 695.41,-252 667.75,-195.87 691.45,-112.74 741.41,-72 770.73,-48.09 991.56,-32.09 1128.18,-24.37"/>
<polygon fill="black" stroke="black" points="1128.48,-27.86 1138.27,-23.8 1128.09,-20.87 1128.48,-27.86"/>
</g>
<!-- r&#45;rwekajars&#45;&gt;conda&#45;forge&#45;pinning -->
<g id="edge33" class="edge">
<title>r&#45;rwekajars&#45;&gt;conda&#45;forge&#45;pinning</title>
<path fill="none" stroke="black" d="M761.76,-216.11C748.35,-183.69 725.3,-112.36 761.41,-72 785.35,-45.24 994.13,-30.43 1126.81,-23.65"/>
<polygon fill="black" stroke="black" points="1127.2,-27.14 1137.02,-23.14 1126.85,-20.15 1127.2,-27.14"/>
</g>
<!-- r&#45;rwekajars&#45;&gt;r&#45;rweka -->
<g id="edge34" class="edge">
<title>r&#45;rwekajars&#45;&gt;r&#45;rweka</title>
<path fill="none" stroke="black" d="M780.79,-216.05C786.39,-207.71 793.25,-197.49 799.46,-188.25"/>
<polygon fill="black" stroke="black" points="802.47,-190.04 805.14,-179.79 796.66,-186.14 802.47,-190.04"/>
</g>
<!-- r&#45;rweka&#45;&gt;conda&#45;forge&#45;pinning -->
<g id="edge35" class="edge">
<title>r&#45;rweka&#45;&gt;conda&#45;forge&#45;pinning</title>
<path fill="none" stroke="black" d="M798.3,-145.39C778.4,-126.38 751.7,-94.09 771.41,-72 794.73,-45.88 997.49,-30.9 1127.46,-23.91"/>
<polygon fill="black" stroke="black" points="1127.66,-27.4 1137.46,-23.38 1127.29,-20.41 1127.66,-27.4"/>
</g>
<!-- r&#45;fselector -->
<g id="node21" class="node">
<title>r&#45;fselector</title>
<g id="a_node21"><a xlink:href="https://github.com/conda-forge/r-fselector-feedstock" xlink:title="r fselector">
<ellipse fill="#fde725" stroke="black" cx="845.41" cy="-90" rx="64.5" ry="18"/>
<text text-anchor="middle" x="845.41" y="-86.3" font-family="Times,serif" font-size="14.00">r fselector</text>
</a>
</g>
</g>
<!-- r&#45;rweka&#45;&gt;r&#45;fselector -->
<g id="edge36" class="edge">
<title>r&#45;rweka&#45;&gt;r&#45;fselector</title>
<path fill="none" stroke="black" d="M823.43,-144.05C826.69,-136.18 830.66,-126.62 834.31,-117.79"/>
<polygon fill="black" stroke="black" points="837.66,-118.85 838.25,-108.28 831.19,-116.17 837.66,-118.85"/>
</g>
<!-- r&#45;subspace&#45;&gt;conda&#45;forge&#45;pinning -->
<g id="edge37" class="edge">
<title>r&#45;subspace&#45;&gt;conda&#45;forge&#45;pinning</title>
<path fill="none" stroke="black" d="M947.88,-215.8C944.02,-182.18 941.08,-107.89 983.41,-72 1007.12,-51.9 1079.26,-38.03 1140.47,-29.54"/>
<polygon fill="black" stroke="black" points="1141.14,-32.98 1150.58,-28.17 1140.2,-26.04 1141.14,-32.98"/>
</g>
<!-- r&#45;rmcfs&#45;&gt;conda&#45;forge&#45;pinning -->
<g id="edge38" class="edge">
<title>r&#45;rmcfs&#45;&gt;conda&#45;forge&#45;pinning</title>
<path fill="none" stroke="black" d="M999.92,-144.29C990.25,-124.79 978.85,-92.6 995.41,-72 1013.43,-49.59 1078.81,-36.11 1136.94,-28.36"/>
<polygon fill="black" stroke="black" points="1137.47,-31.82 1146.94,-27.07 1136.57,-24.87 1137.47,-31.82"/>
</g>
<!-- r&#45;rjdbc&#45;&gt;conda&#45;forge&#45;pinning -->
<g id="edge39" class="edge">
<title>r&#45;rjdbc&#45;&gt;conda&#45;forge&#45;pinning</title>
<path fill="none" stroke="black" d="M1081.13,-77.13C1109.58,-66.47 1151.85,-50.65 1185.11,-38.2"/>
<polygon fill="black" stroke="black" points="1186.53,-41.41 1194.67,-34.62 1184.08,-34.85 1186.53,-41.41"/>
</g>
<!-- r&#45;tabulizer&#45;&gt;conda&#45;forge&#45;pinning -->
<g id="edge40" class="edge">
<title>r&#45;tabulizer&#45;&gt;conda&#45;forge&#45;pinning</title>
<path fill="none" stroke="black" d="M1122.92,-287.84C1115.58,-246.87 1102.59,-141.57 1146.41,-72 1155.29,-57.9 1169.4,-47.09 1183.84,-39.03"/>
<polygon fill="black" stroke="black" points="1185.56,-42.07 1192.82,-34.36 1182.34,-35.86 1185.56,-42.07"/>
</g>
<!-- r&#45;tabulizerjars&#45;&gt;conda&#45;forge&#45;pinning -->
<g id="edge41" class="edge">
<title>r&#45;tabulizerjars&#45;&gt;conda&#45;forge&#45;pinning</title>
<path fill="none" stroke="black" d="M1190.06,-359.63C1193.61,-349.42 1197.61,-336.17 1199.41,-324 1199.41,-324 1199.41,-216 1199.41,-216 1203.42,-151.63 1202.44,-134.74 1217.41,-72 1219.48,-63.35 1222.47,-54.15 1225.48,-45.89"/>
<polygon fill="black" stroke="black" points="1228.81,-46.96 1229.09,-36.37 1222.27,-44.48 1228.81,-46.96"/>
</g>
<!-- r&#45;tabulizerjars&#45;&gt;r&#45;tabulizer -->
<g id="edge42" class="edge">
<title>r&#45;tabulizerjars&#45;&gt;r&#45;tabulizer</title>
<path fill="none" stroke="black" d="M1169.61,-360.05C1162.68,-351.54 1154.15,-341.07 1146.51,-331.68"/>
<polygon fill="black" stroke="black" points="1149.11,-329.33 1140.08,-323.79 1143.68,-333.75 1149.11,-329.33"/>
</g>
<!-- r&#45;destinie&#45;&gt;conda&#45;forge&#45;pinning -->
<g id="edge43" class="edge">
<title>r&#45;destinie&#45;&gt;conda&#45;forge&#45;pinning</title>
<path fill="none" stroke="black" d="M505.64,-215.79C511.04,-181.79 528.25,-106.37 577.41,-72 621.1,-41.46 948.4,-27.33 1124.69,-21.88"/>
<polygon fill="black" stroke="black" points="1124.9,-25.38 1134.79,-21.57 1124.68,-18.38 1124.9,-25.38"/>
</g>
<!-- r&#45;fselector&#45;&gt;conda&#45;forge&#45;pinning -->
<g id="edge49" class="edge">
<title>r&#45;fselector&#45;&gt;conda&#45;forge&#45;pinning</title>
<path fill="none" stroke="black" d="M894.23,-78.15C904.2,-76.03 914.63,-73.88 924.41,-72 1001.49,-57.17 1089.7,-42.39 1152.62,-32.22"/>
<polygon fill="black" stroke="black" points="1153.18,-35.67 1162.49,-30.62 1152.06,-28.76 1153.18,-35.67"/>
</g>
<!-- rpy2 -->
<g id="node22" class="node">
<title>rpy2</title>
<g id="a_node22"><a xlink:href="https://github.com/conda-forge/rpy2-feedstock/pull/55" xlink:title="rpy2">
<ellipse fill="#31688e" stroke="black" cx="1360.41" cy="-162" rx="30.59" ry="18"/>
<text text-anchor="middle" x="1360.41" y="-158.3" font-family="Times,serif" font-size="14.00" fill="white">rpy2</text>
</a>
</g>
</g>
<!-- rpy2&#45;&gt;conda&#45;forge&#45;pinning -->
<g id="edge44" class="edge">
<title>rpy2&#45;&gt;conda&#45;forge&#45;pinning</title>
<path fill="none" stroke="black" d="M1340.45,-148.21C1326.03,-138.35 1306.67,-123.76 1292.41,-108 1275.13,-88.89 1259.88,-63.79 1249.67,-45.13"/>
<polygon fill="black" stroke="black" points="1252.75,-43.45 1244.95,-36.27 1246.57,-46.74 1252.75,-43.45"/>
</g>
<!-- iterativewgcna -->
<g id="node23" class="node">
<title>iterativewgcna</title>
<g id="a_node23"><a xlink:href="https://github.com/conda-forge/iterativewgcna-feedstock" xlink:title="iterativewgcna">
<ellipse fill="#fde725" stroke="black" cx="1381.41" cy="-90" rx="79.5" ry="18"/>
<text text-anchor="middle" x="1381.41" y="-86.3" font-family="Times,serif" font-size="14.00">iterativewgcna</text>
</a>
</g>
</g>
<!-- rpy2&#45;&gt;iterativewgcna -->
<g id="edge45" class="edge">
<title>rpy2&#45;&gt;iterativewgcna</title>
<path fill="none" stroke="black" d="M1365.49,-144.05C1367.83,-136.26 1370.66,-126.82 1373.29,-118.08"/>
<polygon fill="black" stroke="black" points="1376.71,-118.86 1376.23,-108.28 1370,-116.85 1376.71,-118.86"/>
</g>
<!-- iterativewgcna&#45;&gt;conda&#45;forge&#45;pinning -->
<g id="edge46" class="edge">
<title>iterativewgcna&#45;&gt;conda&#45;forge&#45;pinning</title>
<path fill="none" stroke="black" d="M1349.23,-73.46C1328.57,-63.49 1301.5,-50.42 1279.06,-39.59"/>
<polygon fill="black" stroke="black" points="1280.29,-36.29 1269.76,-35.1 1277.24,-42.6 1280.29,-36.29"/>
</g>
<!-- r&#45;rvaidememoire -->
<g id="node24" class="node">
<title>r&#45;rvaidememoire</title>
<g id="a_node24"><a xlink:href="https://github.com/conda-forge/r-rvaidememoire-feedstock" xlink:title="r rvaidememoire">
<ellipse fill="#35b779" stroke="black" cx="1562.41" cy="-90" rx="84" ry="18"/>
<text text-anchor="middle" x="1562.41" y="-86.3" font-family="Times,serif" font-size="14.00">r rvaidememoire</text>
</a>
</g>
</g>
<!-- r&#45;rvaidememoire&#45;&gt;conda&#45;forge&#45;pinning -->
<g id="edge47" class="edge">
<title>r&#45;rvaidememoire&#45;&gt;conda&#45;forge&#45;pinning</title>
<path fill="none" stroke="black" d="M1505.25,-76.73C1450.62,-65 1368.03,-47.26 1308.82,-34.55"/>
<polygon fill="black" stroke="black" points="1309.3,-31.07 1298.79,-32.39 1307.83,-37.92 1309.3,-31.07"/>
</g>
<!-- r&#45;hiver -->
<g id="node25" class="node">
<title>r&#45;hiver</title>
<g id="a_node25"><a xlink:href="https://github.com/conda-forge/r-hiver-feedstock" xlink:title="r hiver">
<ellipse fill="#35b779" stroke="black" cx="1639.41" cy="-162" rx="45" ry="18"/>
<text text-anchor="middle" x="1639.41" y="-158.3" font-family="Times,serif" font-size="14.00">r hiver</text>
</a>
</g>
</g>
<!-- r&#45;hiver&#45;&gt;conda&#45;forge&#45;pinning -->
<g id="edge48" class="edge">
<title>r&#45;hiver&#45;&gt;conda&#45;forge&#45;pinning</title>
<path fill="none" stroke="black" d="M1649.59,-144.39C1660.21,-124.7 1673.06,-92.02 1655.41,-72 1635.01,-48.85 1460.25,-33.23 1342.97,-25.24"/>
<polygon fill="black" stroke="black" points="1343.08,-21.74 1332.86,-24.57 1342.61,-28.73 1343.08,-21.74"/>
</g>
<!-- r&#45;littler -->
<g id="node26" class="node">
<title>r&#45;littler</title>
<g id="a_node26"><a xlink:href="https://github.com/conda-forge/r-littler-feedstock/pull/2" xlink:title="r littler">
<ellipse fill="#31688e" stroke="black" cx="1712.41" cy="-234" rx="54.69" ry="18"/>
<text text-anchor="middle" x="1712.41" y="-230.3" font-family="Times,serif" font-size="14.00" fill="white">r littler</text>
</a>
</g>
</g>
<!-- r&#45;littler&#45;&gt;conda&#45;forge&#45;pinning -->
<g id="edge50" class="edge">
<title>r&#45;littler&#45;&gt;conda&#45;forge&#45;pinning</title>
<path fill="none" stroke="black" d="M1714.18,-215.94C1716.58,-182.56 1716.53,-108.69 1674.41,-72 1627.46,-31.1 1463.46,-20.77 1350.04,-18.68"/>
<polygon fill="black" stroke="black" points="1349.97,-15.18 1339.91,-18.52 1349.85,-22.18 1349.97,-15.18"/>
</g>
<!-- r&#45;rxode -->
<g id="node27" class="node">
<title>r&#45;rxode</title>
<g id="a_node27"><a xlink:href="https://github.com/conda-forge/r-rxode-feedstock/pull/3" xlink:title="r rxode">
<ellipse fill="#31688e" stroke="black" cx="1806.41" cy="-162" rx="45" ry="18"/>
<text text-anchor="middle" x="1806.41" y="-158.3" font-family="Times,serif" font-size="14.00" fill="white">r rxode</text>
</a>
</g>
</g>
<!-- r&#45;rxode&#45;&gt;conda&#45;forge&#45;pinning -->
<g id="edge51" class="edge">
<title>r&#45;rxode&#45;&gt;conda&#45;forge&#45;pinning</title>
<path fill="none" stroke="black" d="M1793.85,-144.38C1775.84,-121.06 1743.05,-80.52 1726.41,-72 1662.56,-39.31 1472.17,-26.71 1348.37,-21.9"/>
<polygon fill="black" stroke="black" points="1348.22,-18.39 1338.1,-21.51 1347.96,-25.39 1348.22,-18.39"/>
</g>
<!-- r&#45;nlmixr -->
<g id="node28" class="node">
<title>r&#45;nlmixr</title>
<g id="a_node28"><a xlink:href="https://github.com/conda-forge/r-nlmixr-feedstock" xlink:title="r nlmixr">
<ellipse fill="#fde725" stroke="black" cx="1828.41" cy="-90" rx="50.09" ry="18"/>
<text text-anchor="middle" x="1828.41" y="-86.3" font-family="Times,serif" font-size="14.00">r nlmixr</text>
</a>
</g>
</g>
<!-- r&#45;rxode&#45;&gt;r&#45;nlmixr -->
<g id="edge52" class="edge">
<title>r&#45;rxode&#45;&gt;r&#45;nlmixr</title>
<path fill="none" stroke="black" d="M1811.74,-144.05C1814.19,-136.26 1817.15,-126.82 1819.9,-118.08"/>
<polygon fill="black" stroke="black" points="1823.32,-118.86 1822.98,-108.28 1816.64,-116.77 1823.32,-118.86"/>
</g>
<!-- r&#45;nlmixr&#45;&gt;conda&#45;forge&#45;pinning -->
<g id="edge53" class="edge">
<title>r&#45;nlmixr&#45;&gt;conda&#45;forge&#45;pinning</title>
<path fill="none" stroke="black" d="M1791.07,-78.01C1782.38,-75.75 1773.12,-73.58 1764.41,-72 1620.18,-45.78 1451.27,-31.68 1344.07,-24.76"/>
<polygon fill="black" stroke="black" points="1344.09,-21.26 1333.89,-24.11 1343.65,-28.24 1344.09,-21.26"/>
</g>
<!-- r&#45;reactr -->
<g id="node29" class="node">
<title>r&#45;reactr</title>
<g id="a_node29"><a xlink:href="https://github.com/conda-forge/r-reactr-feedstock/pull/2" xlink:title="r reactr">
<ellipse fill="#31688e" stroke="black" cx="1938.41" cy="-162" rx="50.09" ry="18"/>
<text text-anchor="middle" x="1938.41" y="-158.3" font-family="Times,serif" font-size="14.00" fill="white">r reactr</text>
</a>
</g>
</g>
<!-- r&#45;reactr&#45;&gt;conda&#45;forge&#45;pinning -->
<g id="edge54" class="edge">
<title>r&#45;reactr&#45;&gt;conda&#45;forge&#45;pinning</title>
<path fill="none" stroke="black" d="M1933.89,-143.85C1927.4,-122.95 1913.27,-88.42 1887.41,-72 1843.07,-43.84 1521.81,-28.68 1347.77,-22.45"/>
<polygon fill="black" stroke="black" points="1347.67,-18.94 1337.55,-22.09 1347.42,-25.94 1347.67,-18.94"/>
</g>
<!-- r&#45;reactable -->
<g id="node30" class="node">
<title>r&#45;reactable</title>
<g id="a_node30"><a xlink:href="https://github.com/conda-forge/r-reactable-feedstock" xlink:title="r reactable">
<ellipse fill="#fde725" stroke="black" cx="1999.41" cy="-90" rx="64.5" ry="18"/>
<text text-anchor="middle" x="1999.41" y="-86.3" font-family="Times,serif" font-size="14.00">r reactable</text>
</a>
</g>
</g>
<!-- r&#45;reactr&#45;&gt;r&#45;reactable -->
<g id="edge55" class="edge">
<title>r&#45;reactr&#45;&gt;r&#45;reactable</title>
<path fill="none" stroke="black" d="M1952.87,-144.41C1960.35,-135.82 1969.64,-125.16 1977.95,-115.63"/>
<polygon fill="black" stroke="black" points="1980.7,-117.79 1984.63,-107.96 1975.43,-113.2 1980.7,-117.79"/>
</g>
<!-- r&#45;reactable&#45;&gt;conda&#45;forge&#45;pinning -->
<g id="edge56" class="edge">
<title>r&#45;reactable&#45;&gt;conda&#45;forge&#45;pinning</title>
<path fill="none" stroke="black" d="M1951.97,-77.71C1941.62,-75.55 1930.68,-73.5 1920.41,-72 1719.33,-42.71 1482.48,-28.92 1346.84,-22.98"/>
<polygon fill="black" stroke="black" points="1346.99,-19.48 1336.85,-22.55 1346.69,-26.48 1346.99,-19.48"/>
</g>
<!-- r&#45;lmesplines -->
<g id="node31" class="node">
<title>r&#45;lmesplines</title>
<g id="a_node31"><a xlink:href="https://github.com/conda-forge/r-lmesplines-feedstock/pull/2" xlink:title="r lmesplines">
<ellipse fill="#31688e" stroke="black" cx="2113.41" cy="-162" rx="69.59" ry="18"/>
<text text-anchor="middle" x="2113.41" y="-158.3" font-family="Times,serif" font-size="14.00" fill="white">r lmesplines</text>
</a>
</g>
</g>
<!-- r&#45;lmesplines&#45;&gt;conda&#45;forge&#45;pinning -->
<g id="edge57" class="edge">
<title>r&#45;lmesplines&#45;&gt;conda&#45;forge&#45;pinning</title>
<path fill="none" stroke="black" d="M2110.86,-143.89C2106.75,-123.04 2096.54,-88.55 2072.41,-72 2014.27,-32.12 1564.5,-22.25 1349.79,-19.8"/>
<polygon fill="black" stroke="black" points="1349.78,-16.3 1339.75,-19.69 1349.71,-23.3 1349.78,-16.3"/>
</g>
<!-- r&#45;lmms -->
<g id="node32" class="node">
<title>r&#45;lmms</title>
<g id="a_node32"><a xlink:href="https://github.com/conda-forge/r-lmms-feedstock" xlink:title="r lmms">
<ellipse fill="#fde725" stroke="black" cx="2161.41" cy="-90" rx="40.5" ry="18"/>
<text text-anchor="middle" x="2161.41" y="-86.3" font-family="Times,serif" font-size="14.00">r lmms</text>
</a>
</g>
</g>
<!-- r&#45;lmesplines&#45;&gt;r&#45;lmms -->
<g id="edge58" class="edge">
<title>r&#45;lmesplines&#45;&gt;r&#45;lmms</title>
<path fill="none" stroke="black" d="M2125.03,-144.05C2130.89,-135.5 2138.11,-124.97 2144.57,-115.56"/>
<polygon fill="black" stroke="black" points="2147.46,-117.53 2150.23,-107.31 2141.69,-113.57 2147.46,-117.53"/>
</g>
<!-- r&#45;lmms&#45;&gt;conda&#45;forge&#45;pinning -->
<g id="edge59" class="edge">
<title>r&#45;lmms&#45;&gt;conda&#45;forge&#45;pinning</title>
<path fill="none" stroke="black" d="M2130.9,-78.15C2123.01,-75.74 2114.47,-73.47 2106.41,-72 1964.02,-46.04 1548.63,-29.28 1347.75,-22.47"/>
<polygon fill="black" stroke="black" points="1347.58,-18.96 1337.47,-22.12 1347.35,-25.96 1347.58,-18.96"/>
</g>
<!-- r&#45;kmer -->
<g id="node33" class="node">
<title>r&#45;kmer</title>
<g id="a_node33"><a xlink:href="https://github.com/conda-forge/r-kmer-feedstock" xlink:title="r kmer">
<ellipse fill="#35b779" stroke="black" cx="2230.41" cy="-306" rx="40.5" ry="18"/>
<text text-anchor="middle" x="2230.41" y="-302.3" font-family="Times,serif" font-size="14.00">r kmer</text>
</a>
</g>
</g>
<!-- r&#45;kmer&#45;&gt;conda&#45;forge&#45;pinning -->
<g id="edge60" class="edge">
<title>r&#45;kmer&#45;&gt;conda&#45;forge&#45;pinning</title>
<path fill="none" stroke="black" d="M2235.46,-287.84C2247.05,-244.49 2270.18,-129.93 2210.41,-72 2179.9,-42.43 1598.48,-26.65 1348.79,-21.21"/>
<polygon fill="black" stroke="black" points="1348.67,-17.71 1338.6,-20.99 1348.52,-24.71 1348.67,-17.71"/>
</g>
<!-- r&#45;lmom -->
<g id="node34" class="node">
<title>r&#45;lmom</title>
<g id="a_node34"><a xlink:href="https://github.com/conda-forge/r-lmom-feedstock/pull/1" xlink:title="r lmom">
<ellipse fill="#31688e" stroke="black" cx="2333.41" cy="-234" rx="40.5" ry="18"/>
<text text-anchor="middle" x="2333.41" y="-230.3" font-family="Times,serif" font-size="14.00" fill="white">r lmom</text>
</a>
</g>
</g>
<!-- r&#45;lmom&#45;&gt;conda&#45;forge&#45;pinning -->
<g id="edge61" class="edge">
<title>r&#45;lmom&#45;&gt;conda&#45;forge&#45;pinning</title>
<path fill="none" stroke="black" d="M2329.72,-215.82C2321.33,-181.55 2297.34,-105.12 2244.41,-72 2170.23,-25.58 1598.22,-19.33 1350.35,-18.83"/>
<polygon fill="black" stroke="black" points="1350.23,-15.33 1340.23,-18.81 1350.22,-22.33 1350.23,-15.33"/>
</g>
<!-- r&#45;gld -->
<g id="node35" class="node">
<title>r&#45;gld</title>
<g id="a_node35"><a xlink:href="https://github.com/conda-forge/r-gld-feedstock" xlink:title="r gld">
<ellipse fill="#fde725" stroke="black" cx="2366.41" cy="-162" rx="35.19" ry="18"/>
<text text-anchor="middle" x="2366.41" y="-158.3" font-family="Times,serif" font-size="14.00">r gld</text>
</a>
</g>
</g>
<!-- r&#45;lmom&#45;&gt;r&#45;gld -->
<g id="edge62" class="edge">
<title>r&#45;lmom&#45;&gt;r&#45;gld</title>
<path fill="none" stroke="black" d="M2341.4,-216.05C2345.21,-207.97 2349.85,-198.12 2354.1,-189.11"/>
<polygon fill="black" stroke="black" points="2357.4,-190.33 2358.5,-179.79 2351.07,-187.34 2357.4,-190.33"/>
</g>
<!-- r&#45;gld&#45;&gt;conda&#45;forge&#45;pinning -->
<g id="edge63" class="edge">
<title>r&#45;gld&#45;&gt;conda&#45;forge&#45;pinning</title>
<path fill="none" stroke="black" d="M2394.06,-150.6C2412.25,-142.14 2434.61,-128.26 2445.41,-108 2452.94,-93.88 2456.47,-83.56 2445.41,-72 2407.89,-32.8 1643.42,-22.35 1349.85,-19.78"/>
<polygon fill="black" stroke="black" points="1349.64,-16.28 1339.61,-19.69 1349.58,-23.28 1349.64,-16.28"/>
</g>
<!-- r&#45;paireddata -->
<g id="node36" class="node">
<title>r&#45;paireddata</title>
<g id="a_node36"><a xlink:href="https://github.com/conda-forge/r-paireddata-feedstock" xlink:title="r paireddata">
<ellipse fill="#fde725" stroke="black" cx="2366.41" cy="-90" rx="69.59" ry="18"/>
<text text-anchor="middle" x="2366.41" y="-86.3" font-family="Times,serif" font-size="14.00">r paireddata</text>
</a>
</g>
</g>
<!-- r&#45;gld&#45;&gt;r&#45;paireddata -->
<g id="edge64" class="edge">
<title>r&#45;gld&#45;&gt;r&#45;paireddata</title>
<path fill="none" stroke="black" d="M2366.41,-143.7C2366.41,-135.98 2366.41,-126.71 2366.41,-118.11"/>
<polygon fill="black" stroke="black" points="2369.91,-118.1 2366.41,-108.1 2362.91,-118.1 2369.91,-118.1"/>
</g>
<!-- r&#45;paireddata&#45;&gt;conda&#45;forge&#45;pinning -->
<g id="edge65" class="edge">
<title>r&#45;paireddata&#45;&gt;conda&#45;forge&#45;pinning</title>
<path fill="none" stroke="black" d="M2315.97,-77.52C2304.96,-75.37 2293.33,-73.37 2282.41,-72 1945.22,-29.58 1542.83,-20.85 1350.18,-19.23"/>
<polygon fill="black" stroke="black" points="1350.07,-15.73 1340.04,-19.15 1350.01,-22.73 1350.07,-15.73"/>
</g>
<!-- r&#45;kmlshape -->
<g id="node37" class="node">
<title>r&#45;kmlshape</title>
<g id="a_node37"><a xlink:href="https://github.com/conda-forge/r-kmlshape-feedstock" xlink:title="r kmlshape">
<ellipse fill="#35b779" stroke="black" cx="2502.41" cy="-378" rx="60" ry="18"/>
<text text-anchor="middle" x="2502.41" y="-374.3" font-family="Times,serif" font-size="14.00">r kmlshape</text>
</a>
</g>
</g>
<!-- r&#45;kmlshape&#45;&gt;conda&#45;forge&#45;pinning -->
<g id="edge66" class="edge">
<title>r&#45;kmlshape&#45;&gt;conda&#45;forge&#45;pinning</title>
<path fill="none" stroke="black" d="M2502.41,-359.95C2502.41,-333.29 2502.41,-280.11 2502.41,-235 2502.41,-235 2502.41,-235 2502.41,-161 2502.41,-117.81 2499.04,-96.4 2463.41,-72 2417.91,-40.84 1644.33,-25.43 1349.39,-20.66"/>
<polygon fill="black" stroke="black" points="1349.16,-17.16 1339.11,-20.5 1349.05,-24.16 1349.16,-17.16"/>
</g>
<!-- r&#45;unmarked -->
<g id="node38" class="node">
<title>r&#45;unmarked</title>
<g id="a_node38"><a xlink:href="https://github.com/conda-forge/r-unmarked-feedstock/pull/2" xlink:title="r unmarked">
<ellipse fill="#31688e" stroke="black" cx="2614.41" cy="-162" rx="60" ry="18"/>
<text text-anchor="middle" x="2614.41" y="-158.3" font-family="Times,serif" font-size="14.00" fill="white">r unmarked</text>
</a>
</g>
</g>
<!-- r&#45;unmarked&#45;&gt;conda&#45;forge&#45;pinning -->
<g id="edge67" class="edge">
<title>r&#45;unmarked&#45;&gt;conda&#45;forge&#45;pinning</title>
<path fill="none" stroke="black" d="M2597.42,-144.39C2572.04,-119.76 2526.14,-75.99 2516.41,-72 2410.25,-28.44 1643.47,-20.67 1350.13,-19.29"/>
<polygon fill="black" stroke="black" points="1349.91,-15.79 1339.9,-19.25 1349.88,-22.79 1349.91,-15.79"/>
</g>
<!-- r&#45;aiccmodavg -->
<g id="node39" class="node">
<title>r&#45;aiccmodavg</title>
<g id="a_node39"><a xlink:href="https://github.com/conda-forge/r-aiccmodavg-feedstock" xlink:title="r aiccmodavg">
<ellipse fill="#fde725" stroke="black" cx="2638.41" cy="-90" rx="69.59" ry="18"/>
<text text-anchor="middle" x="2638.41" y="-86.3" font-family="Times,serif" font-size="14.00">r aiccmodavg</text>
</a>
</g>
</g>
<!-- r&#45;unmarked&#45;&gt;r&#45;aiccmodavg -->
<g id="edge68" class="edge">
<title>r&#45;unmarked&#45;&gt;r&#45;aiccmodavg</title>
<path fill="none" stroke="black" d="M2620.22,-144.05C2622.92,-136.18 2626.2,-126.62 2629.22,-117.79"/>
<polygon fill="black" stroke="black" points="2632.56,-118.87 2632.49,-108.28 2625.93,-116.6 2632.56,-118.87"/>
</g>
<!-- r&#45;aiccmodavg&#45;&gt;conda&#45;forge&#45;pinning -->
<g id="edge69" class="edge">
<title>r&#45;aiccmodavg&#45;&gt;conda&#45;forge&#45;pinning</title>
<path fill="none" stroke="black" d="M2587.98,-77.44C2576.97,-75.29 2565.34,-73.32 2554.41,-72 2322.64,-44.07 1624.09,-27.01 1349.25,-21.22"/>
<polygon fill="black" stroke="black" points="1348.93,-17.72 1338.86,-21.01 1348.78,-24.71 1348.93,-17.72"/>
</g>
<!-- r&#45;cmplot -->
<g id="node40" class="node">
<title>r&#45;cmplot</title>
<g id="a_node40"><a xlink:href="https://github.com/conda-forge/r-cmplot-feedstock/pull/2" xlink:title="r cmplot">
<ellipse fill="#31688e" stroke="black" cx="2776.41" cy="-90" rx="50.09" ry="18"/>
<text text-anchor="middle" x="2776.41" y="-86.3" font-family="Times,serif" font-size="14.00" fill="white">r cmplot</text>
</a>
</g>
</g>
<!-- r&#45;cmplot&#45;&gt;conda&#45;forge&#45;pinning -->
<g id="edge70" class="edge">
<title>r&#45;cmplot&#45;&gt;conda&#45;forge&#45;pinning</title>
<path fill="none" stroke="black" d="M2740.85,-77.24C2733.19,-75.13 2725.1,-73.23 2717.41,-72 2454.62,-30.09 1649.52,-21.3 1350.12,-19.48"/>
<polygon fill="black" stroke="black" points="1349.71,-15.97 1339.69,-19.41 1349.67,-22.97 1349.71,-15.97"/>
</g>
</g>
</svg>
