<?xml version="1.0" encoding="UTF-8" standalone="no"?>
<!DOCTYPE svg PUBLIC "-//W3C//DTD SVG 1.1//EN"
 "http://www.w3.org/Graphics/SVG/1.1/DTD/svg11.dtd">
<!-- Generated by graphviz version 2.42.3 (20191010.1750)
 -->
<!-- Title: %3 Pages: 1 -->
<svg width="2639pt" height="476pt"
 viewBox="0.00 0.00 2638.59 476.00" xmlns="http://www.w3.org/2000/svg" xmlns:xlink="http://www.w3.org/1999/xlink">
<g id="graph0" class="graph" transform="scale(1 1) rotate(0) translate(4 472)">
<title>%3</title>
<polygon fill="white" stroke="transparent" points="-4,4 -4,-472 2634.59,-472 2634.59,4 -4,4"/>
<!-- r&#45;fst -->
<g id="node1" class="node">
<title>r&#45;fst</title>
<g id="a_node1"><a xlink:href="https://github.com/conda-forge/r-fst-feedstock/pull/11" xlink:title="r fst">
<ellipse fill="#31688e" stroke="black" cx="106.54" cy="-162" rx="35.19" ry="18"/>
<text text-anchor="middle" x="106.54" y="-158.3" font-family="Times,serif" font-size="14.00" fill="white">r fst</text>
</a>
</g>
</g>
<!-- r&#45;disk.frame -->
<g id="node2" class="node">
<title>r&#45;disk.frame</title>
<g id="a_node2"><a xlink:href="https://github.com/conda-forge/r-disk.frame-feedstock" xlink:title="r disk frame">
<ellipse fill="#fde725" stroke="black" cx="69.54" cy="-90" rx="69.59" ry="18"/>
<text text-anchor="middle" x="69.54" y="-86.3" font-family="Times,serif" font-size="14.00">r disk frame</text>
</a>
</g>
</g>
<!-- r&#45;fst&#45;&gt;r&#45;disk.frame -->
<g id="edge1" class="edge">
<title>r&#45;fst&#45;&gt;r&#45;disk.frame</title>
<path fill="none" stroke="black" d="M97.78,-144.41C93.46,-136.25 88.16,-126.22 83.32,-117.07"/>
<polygon fill="black" stroke="black" points="86.27,-115.16 78.51,-107.96 80.09,-118.43 86.27,-115.16"/>
</g>
<!-- conda&#45;forge&#45;pinning -->
<g id="node3" class="node">
<title>conda&#45;forge&#45;pinning</title>
<ellipse fill="none" stroke="black" cx="1199.54" cy="-18" rx="103.5" ry="18"/>
<text text-anchor="middle" x="1199.54" y="-14.3" font-family="Times,serif" font-size="14.00">conda&#45;forge&#45;pinning</text>
</g>
<!-- r&#45;fst&#45;&gt;conda&#45;forge&#45;pinning -->
<g id="edge2" class="edge">
<title>r&#45;fst&#45;&gt;conda&#45;forge&#45;pinning</title>
<path fill="none" stroke="black" d="M119.32,-145.02C138.37,-121.67 173.87,-80.11 191.54,-72 271.06,-35.49 840.08,-23.69 1086.38,-20.26"/>
<polygon fill="black" stroke="black" points="1086.49,-23.76 1096.44,-20.13 1086.39,-16.76 1086.49,-23.76"/>
</g>
<!-- r&#45;disk.frame&#45;&gt;conda&#45;forge&#45;pinning -->
<g id="edge3" class="edge">
<title>r&#45;disk.frame&#45;&gt;conda&#45;forge&#45;pinning</title>
<path fill="none" stroke="black" d="M119.98,-77.52C130.99,-75.37 142.62,-73.37 153.54,-72 490.74,-29.58 893.13,-20.85 1085.77,-19.23"/>
<polygon fill="black" stroke="black" points="1085.94,-22.73 1095.91,-19.15 1085.88,-15.73 1085.94,-22.73"/>
</g>
<!-- r&#45;hive -->
<g id="node4" class="node">
<title>r&#45;hive</title>
<g id="a_node4"><a xlink:href="https://github.com/conda-forge/r-hive-feedstock" xlink:title="r hive">
<ellipse fill="#fde725" stroke="black" cx="1342.54" cy="-234" rx="40.5" ry="18"/>
<text text-anchor="middle" x="1342.54" y="-230.3" font-family="Times,serif" font-size="14.00">r hive</text>
</a>
</g>
</g>
<!-- r&#45;hive&#45;&gt;conda&#45;forge&#45;pinning -->
<g id="edge4" class="edge">
<title>r&#45;hive&#45;&gt;conda&#45;forge&#45;pinning</title>
<path fill="none" stroke="black" d="M1331.56,-216.56C1306.78,-179.48 1246.38,-89.09 1216.65,-44.6"/>
<polygon fill="black" stroke="black" points="1219.43,-42.46 1210.96,-36.09 1213.61,-46.34 1219.43,-42.46"/>
</g>
<!-- r&#45;rjava -->
<g id="node5" class="node">
<title>r&#45;rjava</title>
<g id="a_node5"><a xlink:href="https://github.com/conda-forge/r-rjava-feedstock" xlink:title="r rjava">
<ellipse fill="#35b779" stroke="black" cx="901.54" cy="-450" rx="45" ry="18"/>
<text text-anchor="middle" x="901.54" y="-446.3" font-family="Times,serif" font-size="14.00">r rjava</text>
</a>
</g>
</g>
<!-- r&#45;rjava&#45;&gt;conda&#45;forge&#45;pinning -->
<g id="edge5" class="edge">
<title>r&#45;rjava&#45;&gt;conda&#45;forge&#45;pinning</title>
<path fill="none" stroke="black" d="M945.6,-446.31C1043.77,-439.87 1273.68,-422.14 1296.54,-396 1320.17,-368.99 1237.81,-127.25 1209.08,-45.71"/>
<polygon fill="black" stroke="black" points="1212.33,-44.42 1205.7,-36.16 1205.73,-46.76 1212.33,-44.42"/>
</g>
<!-- r&#45;rjava&#45;&gt;r&#45;hive -->
<g id="edge6" class="edge">
<title>r&#45;rjava&#45;&gt;r&#45;hive</title>
<path fill="none" stroke="black" d="M945.99,-446.63C1050.16,-440.64 1303.29,-423.4 1329.54,-396 1363.57,-360.49 1357.08,-298.09 1349.61,-262.29"/>
<polygon fill="black" stroke="black" points="1352.93,-261.08 1347.31,-252.1 1346.1,-262.62 1352.93,-261.08"/>
</g>
<!-- r&#45;xlsx -->
<g id="node6" class="node">
<title>r&#45;xlsx</title>
<g id="a_node6"><a xlink:href="https://github.com/conda-forge/r-xlsx-feedstock" xlink:title="r xlsx">
<ellipse fill="#fde725" stroke="black" cx="460.54" cy="-306" rx="40.5" ry="18"/>
<text text-anchor="middle" x="460.54" y="-302.3" font-family="Times,serif" font-size="14.00">r xlsx</text>
</a>
</g>
</g>
<!-- r&#45;rjava&#45;&gt;r&#45;xlsx -->
<g id="edge7" class="edge">
<title>r&#45;rjava&#45;&gt;r&#45;xlsx</title>
<path fill="none" stroke="black" d="M856.97,-447.47C768.18,-443.7 573.03,-431.5 517.54,-396 494.7,-381.38 479.23,-353.97 470.24,-333.42"/>
<polygon fill="black" stroke="black" points="473.39,-331.88 466.34,-323.96 466.92,-334.54 473.39,-331.88"/>
</g>
<!-- r&#45;xlsxjars -->
<g id="node7" class="node">
<title>r&#45;xlsxjars</title>
<g id="a_node7"><a xlink:href="https://github.com/conda-forge/r-xlsxjars-feedstock" xlink:title="r xlsxjars">
<ellipse fill="#fde725" stroke="black" cx="405.54" cy="-378" rx="60" ry="18"/>
<text text-anchor="middle" x="405.54" y="-374.3" font-family="Times,serif" font-size="14.00">r xlsxjars</text>
</a>
</g>
</g>
<!-- r&#45;rjava&#45;&gt;r&#45;xlsxjars -->
<g id="edge8" class="edge">
<title>r&#45;rjava&#45;&gt;r&#45;xlsxjars</title>
<path fill="none" stroke="black" d="M858.19,-445.01C781.49,-437.63 616.96,-420.35 479.54,-396 473.33,-394.9 466.84,-393.61 460.41,-392.25"/>
<polygon fill="black" stroke="black" points="460.91,-388.78 450.4,-390.07 459.42,-395.62 460.91,-388.78"/>
</g>
<!-- r&#45;xlconnectjars -->
<g id="node8" class="node">
<title>r&#45;xlconnectjars</title>
<g id="a_node8"><a xlink:href="https://github.com/conda-forge/r-xlconnectjars-feedstock" xlink:title="r xlconnectjars">
<ellipse fill="#fde725" stroke="black" cx="205.54" cy="-378" rx="84" ry="18"/>
<text text-anchor="middle" x="205.54" y="-374.3" font-family="Times,serif" font-size="14.00">r xlconnectjars</text>
</a>
</g>
</g>
<!-- r&#45;rjava&#45;&gt;r&#45;xlconnectjars -->
<g id="edge9" class="edge">
<title>r&#45;rjava&#45;&gt;r&#45;xlconnectjars</title>
<path fill="none" stroke="black" d="M857.14,-446.34C757.72,-440.09 509.72,-422.97 303.54,-396 294.84,-394.86 285.72,-393.5 276.7,-392.06"/>
<polygon fill="black" stroke="black" points="277.02,-388.57 266.59,-390.4 275.89,-395.47 277.02,-388.57"/>
</g>
<!-- r&#45;xlconnect -->
<g id="node9" class="node">
<title>r&#45;xlconnect</title>
<g id="a_node9"><a xlink:href="https://github.com/conda-forge/r-xlconnect-feedstock" xlink:title="r xlconnect">
<ellipse fill="#fde725" stroke="black" cx="298.54" cy="-306" rx="64.5" ry="18"/>
<text text-anchor="middle" x="298.54" y="-302.3" font-family="Times,serif" font-size="14.00">r xlconnect</text>
</a>
</g>
</g>
<!-- r&#45;rjava&#45;&gt;r&#45;xlconnect -->
<g id="edge10" class="edge">
<title>r&#45;rjava&#45;&gt;r&#45;xlconnect</title>
<path fill="none" stroke="black" d="M856.97,-447.42C730.91,-442.58 378.28,-426.45 336.54,-396 316.78,-381.58 307.21,-354.77 302.62,-334.33"/>
<polygon fill="black" stroke="black" points="306.02,-333.46 300.65,-324.32 299.15,-334.81 306.02,-333.46"/>
</g>
<!-- r&#45;rcdklibs -->
<g id="node10" class="node">
<title>r&#45;rcdklibs</title>
<g id="a_node10"><a xlink:href="https://github.com/conda-forge/r-rcdklibs-feedstock" xlink:title="r rcdklibs">
<ellipse fill="#fde725" stroke="black" cx="636.54" cy="-378" rx="60" ry="18"/>
<text text-anchor="middle" x="636.54" y="-374.3" font-family="Times,serif" font-size="14.00">r rcdklibs</text>
</a>
</g>
</g>
<!-- r&#45;rjava&#45;&gt;r&#45;rcdklibs -->
<g id="edge11" class="edge">
<title>r&#45;rjava&#45;&gt;r&#45;rcdklibs</title>
<path fill="none" stroke="black" d="M864.97,-439.34C819.62,-427.36 741.95,-406.84 689.94,-393.1"/>
<polygon fill="black" stroke="black" points="690.78,-389.71 680.22,-390.54 688.99,-396.47 690.78,-389.71"/>
</g>
<!-- r&#45;rcdk -->
<g id="node11" class="node">
<title>r&#45;rcdk</title>
<g id="a_node11"><a xlink:href="https://github.com/conda-forge/r-rcdk-feedstock" xlink:title="r rcdk">
<ellipse fill="#fde725" stroke="black" cx="636.54" cy="-306" rx="40.5" ry="18"/>
<text text-anchor="middle" x="636.54" y="-302.3" font-family="Times,serif" font-size="14.00">r rcdk</text>
</a>
</g>
</g>
<!-- r&#45;rjava&#45;&gt;r&#45;rcdk -->
<g id="edge12" class="edge">
<title>r&#45;rjava&#45;&gt;r&#45;rcdk</title>
<path fill="none" stroke="black" d="M875.65,-435.13C827.49,-409.32 724.17,-353.95 670.49,-325.19"/>
<polygon fill="black" stroke="black" points="671.85,-321.95 661.38,-320.31 668.54,-328.12 671.85,-321.95"/>
</g>
<!-- r&#45;rchoicedialogs -->
<g id="node12" class="node">
<title>r&#45;rchoicedialogs</title>
<g id="a_node12"><a xlink:href="https://github.com/conda-forge/r-rchoicedialogs-feedstock" xlink:title="r rchoicedialogs">
<ellipse fill="#fde725" stroke="black" cx="784.54" cy="-306" rx="89.08" ry="18"/>
<text text-anchor="middle" x="784.54" y="-302.3" font-family="Times,serif" font-size="14.00">r rchoicedialogs</text>
</a>
</g>
</g>
<!-- r&#45;rjava&#45;&gt;r&#45;rchoicedialogs -->
<g id="edge13" class="edge">
<title>r&#45;rjava&#45;&gt;r&#45;rchoicedialogs</title>
<path fill="none" stroke="black" d="M888.12,-432.71C867.8,-408.05 829.06,-361.03 805.15,-332.01"/>
<polygon fill="black" stroke="black" points="807.59,-329.47 798.53,-323.98 802.19,-333.92 807.59,-329.47"/>
</g>
<!-- r&#45;rwekajars -->
<g id="node13" class="node">
<title>r&#45;rwekajars</title>
<g id="a_node13"><a xlink:href="https://github.com/conda-forge/r-rwekajars-feedstock" xlink:title="r rwekajars">
<ellipse fill="#fde725" stroke="black" cx="789.54" cy="-234" rx="64.5" ry="18"/>
<text text-anchor="middle" x="789.54" y="-230.3" font-family="Times,serif" font-size="14.00">r rwekajars</text>
</a>
</g>
</g>
<!-- r&#45;rjava&#45;&gt;r&#45;rwekajars -->
<g id="edge14" class="edge">
<title>r&#45;rjava&#45;&gt;r&#45;rwekajars</title>
<path fill="none" stroke="black" d="M904.23,-431.8C908.2,-400.38 912.23,-332.81 882.54,-288 872.25,-272.46 855.74,-260.96 839.47,-252.72"/>
<polygon fill="black" stroke="black" points="840.51,-249.34 829.97,-248.24 837.52,-255.67 840.51,-249.34"/>
</g>
<!-- r&#45;rweka -->
<g id="node14" class="node">
<title>r&#45;rweka</title>
<g id="a_node14"><a xlink:href="https://github.com/conda-forge/r-rweka-feedstock" xlink:title="r rweka">
<ellipse fill="#fde725" stroke="black" cx="836.54" cy="-162" rx="45" ry="18"/>
<text text-anchor="middle" x="836.54" y="-158.3" font-family="Times,serif" font-size="14.00">r rweka</text>
</a>
</g>
</g>
<!-- r&#45;rjava&#45;&gt;r&#45;rweka -->
<g id="edge15" class="edge">
<title>r&#45;rjava&#45;&gt;r&#45;rweka</title>
<path fill="none" stroke="black" d="M909.24,-432.22C913.5,-421.99 918.37,-408.52 920.54,-396 923.28,-380.24 922.29,-375.9 920.54,-360 916.97,-327.42 916.04,-318.7 904.54,-288 890.94,-251.69 868.46,-212.92 853.1,-188.35"/>
<polygon fill="black" stroke="black" points="855.9,-186.24 847.59,-179.67 849.99,-189.99 855.9,-186.24"/>
</g>
<!-- r&#45;subspace -->
<g id="node15" class="node">
<title>r&#45;subspace</title>
<g id="a_node15"><a xlink:href="https://github.com/conda-forge/r-subspace-feedstock" xlink:title="r subspace">
<ellipse fill="#fde725" stroke="black" cx="970.54" cy="-234" rx="60" ry="18"/>
<text text-anchor="middle" x="970.54" y="-230.3" font-family="Times,serif" font-size="14.00">r subspace</text>
</a>
</g>
</g>
<!-- r&#45;rjava&#45;&gt;r&#45;subspace -->
<g id="edge16" class="edge">
<title>r&#45;rjava&#45;&gt;r&#45;subspace</title>
<path fill="none" stroke="black" d="M922,-433.92C933.3,-424.38 946.45,-411.04 953.54,-396 973.9,-352.83 974.73,-296.09 972.98,-262.78"/>
<polygon fill="black" stroke="black" points="976.45,-262.19 972.31,-252.44 969.47,-262.64 976.45,-262.19"/>
</g>
<!-- r&#45;rmcfs -->
<g id="node16" class="node">
<title>r&#45;rmcfs</title>
<g id="a_node16"><a xlink:href="https://github.com/conda-forge/r-rmcfs-feedstock" xlink:title="r rmcfs">
<ellipse fill="#fde725" stroke="black" cx="1031.54" cy="-162" rx="45" ry="18"/>
<text text-anchor="middle" x="1031.54" y="-158.3" font-family="Times,serif" font-size="14.00">r rmcfs</text>
</a>
</g>
</g>
<!-- r&#45;rjava&#45;&gt;r&#45;rmcfs -->
<g id="edge17" class="edge">
<title>r&#45;rjava&#45;&gt;r&#45;rmcfs</title>
<path fill="none" stroke="black" d="M927.15,-435.03C942.49,-425.62 961.49,-412.03 974.54,-396 1018.88,-341.55 1024.77,-320.65 1039.54,-252 1043.97,-231.43 1041.46,-207.68 1038.12,-189.89"/>
<polygon fill="black" stroke="black" points="1041.51,-188.99 1036.05,-179.92 1034.66,-190.42 1041.51,-188.99"/>
</g>
<!-- r&#45;rjdbc -->
<g id="node17" class="node">
<title>r&#45;rjdbc</title>
<g id="a_node17"><a xlink:href="https://github.com/conda-forge/r-rjdbc-feedstock" xlink:title="r rjdbc">
<ellipse fill="#fde725" stroke="black" cx="1069.54" cy="-90" rx="45" ry="18"/>
<text text-anchor="middle" x="1069.54" y="-86.3" font-family="Times,serif" font-size="14.00">r rjdbc</text>
</a>
</g>
</g>
<!-- r&#45;rjava&#45;&gt;r&#45;rjdbc -->
<g id="edge18" class="edge">
<title>r&#45;rjava&#45;&gt;r&#45;rjdbc</title>
<path fill="none" stroke="black" d="M934.82,-437.59C956.26,-428.89 983.58,-415.12 1002.54,-396 1074.95,-322.97 1069.71,-281.62 1085.54,-180 1088.01,-164.19 1087.88,-159.83 1085.54,-144 1084.25,-135.21 1081.8,-125.86 1079.2,-117.5"/>
<polygon fill="black" stroke="black" points="1082.49,-116.29 1076.03,-107.9 1075.84,-118.49 1082.49,-116.29"/>
</g>
<!-- r&#45;tabulizer -->
<g id="node18" class="node">
<title>r&#45;tabulizer</title>
<g id="a_node18"><a xlink:href="https://github.com/conda-forge/r-tabulizer-feedstock" xlink:title="r tabulizer">
<ellipse fill="#fde725" stroke="black" cx="1146.54" cy="-306" rx="64.5" ry="18"/>
<text text-anchor="middle" x="1146.54" y="-302.3" font-family="Times,serif" font-size="14.00">r tabulizer</text>
</a>
</g>
</g>
<!-- r&#45;rjava&#45;&gt;r&#45;tabulizer -->
<g id="edge19" class="edge">
<title>r&#45;rjava&#45;&gt;r&#45;tabulizer</title>
<path fill="none" stroke="black" d="M942.39,-442.28C977.71,-435.06 1029,-421.08 1067.54,-396 1093.19,-379.31 1115.6,-352.15 1129.93,-332.21"/>
<polygon fill="black" stroke="black" points="1132.89,-334.1 1135.75,-323.9 1127.15,-330.08 1132.89,-334.1"/>
</g>
<!-- r&#45;tabulizerjars -->
<g id="node19" class="node">
<title>r&#45;tabulizerjars</title>
<g id="a_node19"><a xlink:href="https://github.com/conda-forge/r-tabulizerjars-feedstock" xlink:title="r tabulizerjars">
<ellipse fill="#fde725" stroke="black" cx="1203.54" cy="-378" rx="84" ry="18"/>
<text text-anchor="middle" x="1203.54" y="-374.3" font-family="Times,serif" font-size="14.00">r tabulizerjars</text>
</a>
</g>
</g>
<!-- r&#45;rjava&#45;&gt;r&#45;tabulizerjars -->
<g id="edge20" class="edge">
<title>r&#45;rjava&#45;&gt;r&#45;tabulizerjars</title>
<path fill="none" stroke="black" d="M939.49,-440.21C989.46,-428.62 1078.08,-408.08 1138.77,-394.01"/>
<polygon fill="black" stroke="black" points="1139.68,-397.4 1148.63,-391.73 1138.1,-390.58 1139.68,-397.4"/>
</g>
<!-- r&#45;destinie -->
<g id="node20" class="node">
<title>r&#45;destinie</title>
<g id="a_node20"><a xlink:href="https://github.com/conda-forge/r-destinie-feedstock" xlink:title="r destinie">
<ellipse fill="#fde725" stroke="black" cx="523.54" cy="-234" rx="60" ry="18"/>
<text text-anchor="middle" x="523.54" y="-230.3" font-family="Times,serif" font-size="14.00">r destinie</text>
</a>
</g>
</g>
<!-- r&#45;rjava&#45;&gt;r&#45;destinie -->
<g id="edge21" class="edge">
<title>r&#45;rjava&#45;&gt;r&#45;destinie</title>
<path fill="none" stroke="black" d="M856.59,-447.75C775.54,-444.56 609.41,-433.52 567.54,-396 529.61,-362 523.02,-298.76 522.62,-262.49"/>
<polygon fill="black" stroke="black" points="526.12,-262.17 522.67,-252.15 519.12,-262.14 526.12,-262.17"/>
</g>
<!-- r&#45;xlsx&#45;&gt;conda&#45;forge&#45;pinning -->
<g id="edge22" class="edge">
<title>r&#45;xlsx&#45;&gt;conda&#45;forge&#45;pinning</title>
<path fill="none" stroke="black" d="M455.69,-288.12C451.27,-269.86 446.57,-240.11 454.54,-216 479.59,-140.3 491.85,-110.74 561.54,-72 606.46,-47.03 919.45,-30.48 1089.75,-23.21"/>
<polygon fill="black" stroke="black" points="1089.91,-26.71 1099.75,-22.79 1089.61,-19.72 1089.91,-26.71"/>
</g>
<!-- r&#45;xlsx&#45;&gt;r&#45;destinie -->
<g id="edge23" class="edge">
<title>r&#45;xlsx&#45;&gt;r&#45;destinie</title>
<path fill="none" stroke="black" d="M474.84,-289.12C482.75,-280.33 492.74,-269.23 501.61,-259.37"/>
<polygon fill="black" stroke="black" points="504.34,-261.57 508.43,-251.8 499.13,-256.89 504.34,-261.57"/>
</g>
<!-- r&#45;xlsxjars&#45;&gt;conda&#45;forge&#45;pinning -->
<g id="edge24" class="edge">
<title>r&#45;xlsxjars&#45;&gt;conda&#45;forge&#45;pinning</title>
<path fill="none" stroke="black" d="M402.78,-360C398.7,-333.42 391.54,-280.33 391.54,-235 391.54,-235 391.54,-235 391.54,-161 391.54,-96.02 446.85,-95.22 507.54,-72 610.17,-32.73 917.85,-22.51 1086.28,-19.89"/>
<polygon fill="black" stroke="black" points="1086.48,-23.38 1096.43,-19.73 1086.38,-16.38 1086.48,-23.38"/>
</g>
<!-- r&#45;xlsxjars&#45;&gt;r&#45;xlsx -->
<g id="edge25" class="edge">
<title>r&#45;xlsxjars&#45;&gt;r&#45;xlsx</title>
<path fill="none" stroke="black" d="M418.58,-360.41C425.36,-351.78 433.78,-341.06 441.3,-331.5"/>
<polygon fill="black" stroke="black" points="444.18,-333.5 447.6,-323.47 438.67,-329.17 444.18,-333.5"/>
</g>
<!-- r&#45;xlconnectjars&#45;&gt;conda&#45;forge&#45;pinning -->
<g id="edge26" class="edge">
<title>r&#45;xlconnectjars&#45;&gt;conda&#45;forge&#45;pinning</title>
<path fill="none" stroke="black" d="M205.54,-359.95C205.54,-333.29 205.54,-280.11 205.54,-235 205.54,-235 205.54,-235 205.54,-161 205.54,-88.39 273.6,-94.77 342.54,-72 477.24,-27.52 885.31,-19.88 1085.84,-18.89"/>
<polygon fill="black" stroke="black" points="1086.13,-22.39 1096.11,-18.85 1086.1,-15.39 1086.13,-22.39"/>
</g>
<!-- r&#45;xlconnectjars&#45;&gt;r&#45;xlconnect -->
<g id="edge27" class="edge">
<title>r&#45;xlconnectjars&#45;&gt;r&#45;xlconnect</title>
<path fill="none" stroke="black" d="M227.58,-360.41C239.95,-351.1 255.54,-339.37 268.96,-329.27"/>
<polygon fill="black" stroke="black" points="271.1,-332.04 276.98,-323.23 266.89,-326.45 271.1,-332.04"/>
</g>
<!-- r&#45;xlconnect&#45;&gt;conda&#45;forge&#45;pinning -->
<g id="edge28" class="edge">
<title>r&#45;xlconnect&#45;&gt;conda&#45;forge&#45;pinning</title>
<path fill="none" stroke="black" d="M298.42,-287.93C299.11,-243.79 307.72,-125.54 377.54,-72 432.39,-29.94 873.22,-21.18 1085.75,-19.41"/>
<polygon fill="black" stroke="black" points="1086.03,-22.91 1096.01,-19.33 1085.98,-15.91 1086.03,-22.91"/>
</g>
<!-- r&#45;rcdklibs&#45;&gt;conda&#45;forge&#45;pinning -->
<g id="edge29" class="edge">
<title>r&#45;rcdklibs&#45;&gt;conda&#45;forge&#45;pinning</title>
<path fill="none" stroke="black" d="M615.25,-361.11C604.44,-351.68 592.38,-338.7 586.54,-324 580.64,-309.13 583,-303.6 586.54,-288 610.15,-184.1 603.28,-133.13 690.54,-72 752.25,-28.78 955.56,-19.56 1085.79,-18.27"/>
<polygon fill="black" stroke="black" points="1085.85,-21.77 1095.82,-18.18 1085.79,-14.77 1085.85,-21.77"/>
</g>
<!-- r&#45;rcdklibs&#45;&gt;r&#45;rcdk -->
<g id="edge30" class="edge">
<title>r&#45;rcdklibs&#45;&gt;r&#45;rcdk</title>
<path fill="none" stroke="black" d="M636.54,-359.7C636.54,-351.98 636.54,-342.71 636.54,-334.11"/>
<polygon fill="black" stroke="black" points="640.04,-334.1 636.54,-324.1 633.04,-334.1 640.04,-334.1"/>
</g>
<!-- r&#45;rcdk&#45;&gt;conda&#45;forge&#45;pinning -->
<g id="edge31" class="edge">
<title>r&#45;rcdk&#45;&gt;conda&#45;forge&#45;pinning</title>
<path fill="none" stroke="black" d="M637.51,-287.72C640.99,-243.59 656.78,-126.37 727.54,-72 781.84,-30.28 964.34,-20.39 1085.85,-18.58"/>
<polygon fill="black" stroke="black" points="1086,-22.08 1095.95,-18.45 1085.9,-15.08 1086,-22.08"/>
</g>
<!-- r&#45;rchoicedialogs&#45;&gt;conda&#45;forge&#45;pinning -->
<g id="edge32" class="edge">
<title>r&#45;rchoicedialogs&#45;&gt;conda&#45;forge&#45;pinning</title>
<path fill="none" stroke="black" d="M752.52,-289.11C738.44,-280.29 723.36,-267.85 715.54,-252 687.93,-195.97 711.79,-113.15 761.54,-72 809.49,-32.34 973,-21.68 1086.07,-19.17"/>
<polygon fill="black" stroke="black" points="1086.24,-22.67 1096.17,-18.97 1086.1,-15.67 1086.24,-22.67"/>
</g>
<!-- r&#45;rwekajars&#45;&gt;conda&#45;forge&#45;pinning -->
<g id="edge33" class="edge">
<title>r&#45;rwekajars&#45;&gt;conda&#45;forge&#45;pinning</title>
<path fill="none" stroke="black" d="M781.84,-215.91C768.51,-183.45 745.83,-112.52 781.54,-72 801.88,-48.92 975.99,-33.29 1092.99,-25.28"/>
<polygon fill="black" stroke="black" points="1093.33,-28.76 1103.07,-24.6 1092.85,-21.78 1093.33,-28.76"/>
</g>
<!-- r&#45;rwekajars&#45;&gt;r&#45;rweka -->
<g id="edge34" class="edge">
<title>r&#45;rwekajars&#45;&gt;r&#45;rweka</title>
<path fill="none" stroke="black" d="M800.92,-216.05C806.52,-207.71 813.39,-197.49 819.59,-188.25"/>
<polygon fill="black" stroke="black" points="822.6,-190.04 825.27,-179.79 816.79,-186.14 822.6,-190.04"/>
</g>
<!-- r&#45;rweka&#45;&gt;conda&#45;forge&#45;pinning -->
<g id="edge35" class="edge">
<title>r&#45;rweka&#45;&gt;conda&#45;forge&#45;pinning</title>
<path fill="none" stroke="black" d="M818.49,-145.44C798.65,-126.48 772,-94.24 791.54,-72 811.25,-49.57 979.26,-33.83 1093.45,-25.61"/>
<polygon fill="black" stroke="black" points="1093.91,-29.09 1103.63,-24.89 1093.41,-22.1 1093.91,-29.09"/>
</g>
<!-- r&#45;fselector -->
<g id="node21" class="node">
<title>r&#45;fselector</title>
<g id="a_node21"><a xlink:href="https://github.com/conda-forge/r-fselector-feedstock" xlink:title="r fselector">
<ellipse fill="#fde725" stroke="black" cx="865.54" cy="-90" rx="64.5" ry="18"/>
<text text-anchor="middle" x="865.54" y="-86.3" font-family="Times,serif" font-size="14.00">r fselector</text>
</a>
</g>
</g>
<!-- r&#45;rweka&#45;&gt;r&#45;fselector -->
<g id="edge36" class="edge">
<title>r&#45;rweka&#45;&gt;r&#45;fselector</title>
<path fill="none" stroke="black" d="M843.56,-144.05C846.83,-136.18 850.79,-126.62 854.44,-117.79"/>
<polygon fill="black" stroke="black" points="857.79,-118.85 858.39,-108.28 851.33,-116.17 857.79,-118.85"/>
</g>
<!-- r&#45;subspace&#45;&gt;conda&#45;forge&#45;pinning -->
<g id="edge37" class="edge">
<title>r&#45;subspace&#45;&gt;conda&#45;forge&#45;pinning</title>
<path fill="none" stroke="black" d="M968.35,-215.81C965.17,-182.53 963.57,-109.32 1004.54,-72 1029.81,-48.99 1064.09,-35.81 1096.86,-28.32"/>
<polygon fill="black" stroke="black" points="1097.91,-31.68 1106.97,-26.18 1096.46,-24.83 1097.91,-31.68"/>
</g>
<!-- r&#45;rmcfs&#45;&gt;conda&#45;forge&#45;pinning -->
<g id="edge38" class="edge">
<title>r&#45;rmcfs&#45;&gt;conda&#45;forge&#45;pinning</title>
<path fill="none" stroke="black" d="M1021.55,-144.15C1011.53,-124.82 999.68,-93.07 1015.54,-72 1028.29,-55.06 1074.02,-41.84 1116.7,-32.84"/>
<polygon fill="black" stroke="black" points="1117.51,-36.25 1126.6,-30.82 1116.1,-29.39 1117.51,-36.25"/>
</g>
<!-- r&#45;rjdbc&#45;&gt;conda&#45;forge&#45;pinning -->
<g id="edge39" class="edge">
<title>r&#45;rjdbc&#45;&gt;conda&#45;forge&#45;pinning</title>
<path fill="none" stroke="black" d="M1095.23,-75.17C1113.79,-65.17 1139.21,-51.49 1160.31,-40.13"/>
<polygon fill="black" stroke="black" points="1162.21,-43.08 1169.35,-35.26 1158.89,-36.92 1162.21,-43.08"/>
</g>
<!-- r&#45;tabulizer&#45;&gt;conda&#45;forge&#45;pinning -->
<g id="edge40" class="edge">
<title>r&#45;tabulizer&#45;&gt;conda&#45;forge&#45;pinning</title>
<path fill="none" stroke="black" d="M1145.33,-287.79C1143.13,-248.41 1140.84,-149.24 1166.54,-72 1169.71,-62.48 1174.9,-52.92 1180.24,-44.59"/>
<polygon fill="black" stroke="black" points="1183.28,-46.34 1185.99,-36.1 1177.49,-42.41 1183.28,-46.34"/>
</g>
<!-- r&#45;tabulizerjars&#45;&gt;conda&#45;forge&#45;pinning -->
<g id="edge41" class="edge">
<title>r&#45;tabulizerjars&#45;&gt;conda&#45;forge&#45;pinning</title>
<path fill="none" stroke="black" d="M1210.2,-359.63C1213.75,-349.42 1217.75,-336.17 1219.54,-324 1221.88,-308.17 1220.65,-303.96 1219.54,-288 1216.2,-239.65 1208.64,-228.29 1204.54,-180 1200.59,-133.39 1199.67,-78.95 1199.51,-46.81"/>
<polygon fill="black" stroke="black" points="1203.01,-46.42 1199.48,-36.43 1196.01,-46.44 1203.01,-46.42"/>
</g>
<!-- r&#45;tabulizerjars&#45;&gt;r&#45;tabulizer -->
<g id="edge42" class="edge">
<title>r&#45;tabulizerjars&#45;&gt;r&#45;tabulizer</title>
<path fill="none" stroke="black" d="M1189.75,-360.05C1182.81,-351.54 1174.29,-341.07 1166.64,-331.68"/>
<polygon fill="black" stroke="black" points="1169.24,-329.33 1160.21,-323.79 1163.82,-333.75 1169.24,-329.33"/>
</g>
<!-- r&#45;destinie&#45;&gt;conda&#45;forge&#45;pinning -->
<g id="edge43" class="edge">
<title>r&#45;destinie&#45;&gt;conda&#45;forge&#45;pinning</title>
<path fill="none" stroke="black" d="M525.79,-215.82C531.24,-181.88 548.51,-106.56 597.54,-72 636.68,-44.42 926.12,-29.22 1088.98,-22.77"/>
<polygon fill="black" stroke="black" points="1089.19,-26.27 1099.04,-22.38 1088.92,-19.27 1089.19,-26.27"/>
</g>
<!-- r&#45;fselector&#45;&gt;conda&#45;forge&#45;pinning -->
<g id="edge49" class="edge">
<title>r&#45;fselector&#45;&gt;conda&#45;forge&#45;pinning</title>
<path fill="none" stroke="black" d="M914.84,-78.34C924.68,-76.22 934.94,-74.03 944.54,-72 1005.51,-59.1 1074.73,-44.73 1125.66,-34.21"/>
<polygon fill="black" stroke="black" points="1126.51,-37.61 1135.59,-32.16 1125.09,-30.76 1126.51,-37.61"/>
</g>
<!-- rpy2 -->
<g id="node22" class="node">
<title>rpy2</title>
<g id="a_node22"><a xlink:href="https://github.com/conda-forge/rpy2-feedstock/pull/55" xlink:title="rpy2">
<ellipse fill="#31688e" stroke="black" cx="1358.54" cy="-162" rx="30.59" ry="18"/>
<text text-anchor="middle" x="1358.54" y="-158.3" font-family="Times,serif" font-size="14.00" fill="white">rpy2</text>
</a>
</g>
</g>
<!-- rpy2&#45;&gt;conda&#45;forge&#45;pinning -->
<g id="edge44" class="edge">
<title>rpy2&#45;&gt;conda&#45;forge&#45;pinning</title>
<path fill="none" stroke="black" d="M1344.86,-145.83C1328.07,-127.54 1298.41,-96.25 1270.54,-72 1258.38,-61.42 1244.28,-50.61 1231.86,-41.55"/>
<polygon fill="black" stroke="black" points="1233.73,-38.58 1223.58,-35.57 1229.64,-44.26 1233.73,-38.58"/>
</g>
<!-- iterativewgcna -->
<g id="node23" class="node">
<title>iterativewgcna</title>
<g id="a_node23"><a xlink:href="https://github.com/conda-forge/iterativewgcna-feedstock" xlink:title="iterativewgcna">
<ellipse fill="#fde725" stroke="black" cx="1401.54" cy="-90" rx="79.5" ry="18"/>
<text text-anchor="middle" x="1401.54" y="-86.3" font-family="Times,serif" font-size="14.00">iterativewgcna</text>
</a>
</g>
</g>
<!-- rpy2&#45;&gt;iterativewgcna -->
<g id="edge45" class="edge">
<title>rpy2&#45;&gt;iterativewgcna</title>
<path fill="none" stroke="black" d="M1368.52,-144.76C1373.63,-136.44 1379.98,-126.1 1385.74,-116.73"/>
<polygon fill="black" stroke="black" points="1388.77,-118.48 1391.02,-108.12 1382.81,-114.81 1388.77,-118.48"/>
</g>
<!-- iterativewgcna&#45;&gt;conda&#45;forge&#45;pinning -->
<g id="edge46" class="edge">
<title>iterativewgcna&#45;&gt;conda&#45;forge&#45;pinning</title>
<path fill="none" stroke="black" d="M1359.69,-74.5C1328.87,-63.82 1286.71,-49.21 1253.39,-37.66"/>
<polygon fill="black" stroke="black" points="1254.39,-34.3 1243.79,-34.33 1252.1,-40.92 1254.39,-34.3"/>
</g>
<!-- r&#45;rvaidememoire -->
<g id="node24" class="node">
<title>r&#45;rvaidememoire</title>
<g id="a_node24"><a xlink:href="https://github.com/conda-forge/r-rvaidememoire-feedstock" xlink:title="r rvaidememoire">
<ellipse fill="#35b779" stroke="black" cx="1582.54" cy="-90" rx="84" ry="18"/>
<text text-anchor="middle" x="1582.54" y="-86.3" font-family="Times,serif" font-size="14.00">r rvaidememoire</text>
</a>
</g>
</g>
<!-- r&#45;rvaidememoire&#45;&gt;conda&#45;forge&#45;pinning -->
<g id="edge47" class="edge">
<title>r&#45;rvaidememoire&#45;&gt;conda&#45;forge&#45;pinning</title>
<path fill="none" stroke="black" d="M1520.58,-77.68C1454.56,-65.61 1349.88,-46.48 1278.11,-33.36"/>
<polygon fill="black" stroke="black" points="1278.68,-29.91 1268.21,-31.55 1277.42,-36.79 1278.68,-29.91"/>
</g>
<!-- r&#45;hiver -->
<g id="node25" class="node">
<title>r&#45;hiver</title>
<g id="a_node25"><a xlink:href="https://github.com/conda-forge/r-hiver-feedstock" xlink:title="r hiver">
<ellipse fill="#35b779" stroke="black" cx="1659.54" cy="-162" rx="45" ry="18"/>
<text text-anchor="middle" x="1659.54" y="-158.3" font-family="Times,serif" font-size="14.00">r hiver</text>
</a>
</g>
</g>
<!-- r&#45;hiver&#45;&gt;conda&#45;forge&#45;pinning -->
<g id="edge48" class="edge">
<title>r&#45;hiver&#45;&gt;conda&#45;forge&#45;pinning</title>
<path fill="none" stroke="black" d="M1669.77,-144.35C1680.45,-124.61 1693.34,-91.89 1675.54,-72 1651.53,-45.16 1442.04,-30.38 1309.1,-23.62"/>
<polygon fill="black" stroke="black" points="1309.03,-20.11 1298.87,-23.11 1308.68,-27.11 1309.03,-20.11"/>
</g>
<!-- r&#45;littler -->
<g id="node26" class="node">
<title>r&#45;littler</title>
<g id="a_node26"><a xlink:href="https://github.com/conda-forge/r-littler-feedstock/pull/2" xlink:title="r littler">
<ellipse fill="#31688e" stroke="black" cx="1732.54" cy="-234" rx="54.69" ry="18"/>
<text text-anchor="middle" x="1732.54" y="-230.3" font-family="Times,serif" font-size="14.00" fill="white">r littler</text>
</a>
</g>
</g>
<!-- r&#45;littler&#45;&gt;conda&#45;forge&#45;pinning -->
<g id="edge50" class="edge">
<title>r&#45;littler&#45;&gt;conda&#45;forge&#45;pinning</title>
<path fill="none" stroke="black" d="M1734.35,-215.89C1736.84,-182.43 1736.92,-108.4 1694.54,-72 1665.86,-47.36 1445.09,-31.64 1308.25,-24.16"/>
<polygon fill="black" stroke="black" points="1308.31,-20.66 1298.14,-23.61 1307.93,-27.65 1308.31,-20.66"/>
</g>
<!-- r&#45;rxode -->
<g id="node27" class="node">
<title>r&#45;rxode</title>
<g id="a_node27"><a xlink:href="https://github.com/conda-forge/r-rxode-feedstock/pull/3" xlink:title="r rxode">
<ellipse fill="#31688e" stroke="black" cx="1826.54" cy="-162" rx="45" ry="18"/>
<text text-anchor="middle" x="1826.54" y="-158.3" font-family="Times,serif" font-size="14.00" fill="white">r rxode</text>
</a>
</g>
</g>
<!-- r&#45;rxode&#45;&gt;conda&#45;forge&#45;pinning -->
<g id="edge51" class="edge">
<title>r&#45;rxode&#45;&gt;conda&#45;forge&#45;pinning</title>
<path fill="none" stroke="black" d="M1813.99,-144.35C1796.01,-121 1763.24,-80.43 1746.54,-72 1673.06,-34.9 1450.12,-23.73 1312.58,-20.4"/>
<polygon fill="black" stroke="black" points="1312.5,-16.89 1302.42,-20.16 1312.34,-23.89 1312.5,-16.89"/>
</g>
<!-- r&#45;nlmixr -->
<g id="node28" class="node">
<title>r&#45;nlmixr</title>
<g id="a_node28"><a xlink:href="https://github.com/conda-forge/r-nlmixr-feedstock" xlink:title="r nlmixr">
<ellipse fill="#fde725" stroke="black" cx="1848.54" cy="-90" rx="50.09" ry="18"/>
<text text-anchor="middle" x="1848.54" y="-86.3" font-family="Times,serif" font-size="14.00">r nlmixr</text>
</a>
</g>
</g>
<!-- r&#45;rxode&#45;&gt;r&#45;nlmixr -->
<g id="edge52" class="edge">
<title>r&#45;rxode&#45;&gt;r&#45;nlmixr</title>
<path fill="none" stroke="black" d="M1831.87,-144.05C1834.32,-136.26 1837.29,-126.82 1840.03,-118.08"/>
<polygon fill="black" stroke="black" points="1843.46,-118.86 1843.11,-108.28 1836.78,-116.77 1843.46,-118.86"/>
</g>
<!-- r&#45;nlmixr&#45;&gt;conda&#45;forge&#45;pinning -->
<g id="edge53" class="edge">
<title>r&#45;nlmixr&#45;&gt;conda&#45;forge&#45;pinning</title>
<path fill="none" stroke="black" d="M1811.22,-77.95C1802.52,-75.69 1793.26,-73.54 1784.54,-72 1620.49,-43 1427.59,-29.43 1309.47,-23.4"/>
<polygon fill="black" stroke="black" points="1309.49,-19.9 1299.33,-22.9 1309.14,-26.89 1309.49,-19.9"/>
</g>
<!-- r&#45;reactr -->
<g id="node29" class="node">
<title>r&#45;reactr</title>
<g id="a_node29"><a xlink:href="https://github.com/conda-forge/r-reactr-feedstock/pull/2" xlink:title="r reactr">
<ellipse fill="#31688e" stroke="black" cx="1979.54" cy="-162" rx="50.09" ry="18"/>
<text text-anchor="middle" x="1979.54" y="-158.3" font-family="Times,serif" font-size="14.00" fill="white">r reactr</text>
</a>
</g>
</g>
<!-- r&#45;reactr&#45;&gt;conda&#45;forge&#45;pinning -->
<g id="edge54" class="edge">
<title>r&#45;reactr&#45;&gt;conda&#45;forge&#45;pinning</title>
<path fill="none" stroke="black" d="M1968.46,-144.32C1952.55,-120.93 1923.39,-80.3 1907.54,-72 1856.08,-45.04 1496.43,-29.04 1310.43,-22.48"/>
<polygon fill="black" stroke="black" points="1310.46,-18.98 1300.34,-22.13 1310.21,-25.98 1310.46,-18.98"/>
</g>
<!-- r&#45;reactable -->
<g id="node30" class="node">
<title>r&#45;reactable</title>
<g id="a_node30"><a xlink:href="https://github.com/conda-forge/r-reactable-feedstock" xlink:title="r reactable">
<ellipse fill="#fde725" stroke="black" cx="2019.54" cy="-90" rx="64.5" ry="18"/>
<text text-anchor="middle" x="2019.54" y="-86.3" font-family="Times,serif" font-size="14.00">r reactable</text>
</a>
</g>
</g>
<!-- r&#45;reactr&#45;&gt;r&#45;reactable -->
<g id="edge55" class="edge">
<title>r&#45;reactr&#45;&gt;r&#45;reactable</title>
<path fill="none" stroke="black" d="M1989.23,-144.05C1993.83,-136.01 1999.43,-126.2 2004.56,-117.23"/>
<polygon fill="black" stroke="black" points="2007.75,-118.69 2009.67,-108.28 2001.67,-115.22 2007.75,-118.69"/>
</g>
<!-- r&#45;reactable&#45;&gt;conda&#45;forge&#45;pinning -->
<g id="edge56" class="edge">
<title>r&#45;reactable&#45;&gt;conda&#45;forge&#45;pinning</title>
<path fill="none" stroke="black" d="M1972.11,-77.66C1961.76,-75.5 1950.82,-73.47 1940.54,-72 1718.75,-40.36 1456.78,-27.26 1311.27,-22.1"/>
<polygon fill="black" stroke="black" points="1311.12,-18.59 1301,-21.74 1310.87,-25.59 1311.12,-18.59"/>
</g>
<!-- r&#45;lmms -->
<g id="node31" class="node">
<title>r&#45;lmms</title>
<g id="a_node31"><a xlink:href="https://github.com/conda-forge/r-lmms-feedstock" xlink:title="r lmms">
<ellipse fill="#35b779" stroke="black" cx="2112.54" cy="-306" rx="40.5" ry="18"/>
<text text-anchor="middle" x="2112.54" y="-302.3" font-family="Times,serif" font-size="14.00">r lmms</text>
</a>
</g>
</g>
<!-- r&#45;lmms&#45;&gt;conda&#45;forge&#45;pinning -->
<g id="edge57" class="edge">
<title>r&#45;lmms&#45;&gt;conda&#45;forge&#45;pinning</title>
<path fill="none" stroke="black" d="M2117.58,-287.86C2129.12,-244.55 2152.17,-130.07 2092.54,-72 2064.98,-45.16 1544.93,-28.11 1311.41,-21.78"/>
<polygon fill="black" stroke="black" points="1311.28,-18.28 1301.19,-21.51 1311.1,-25.27 1311.28,-18.28"/>
</g>
<!-- r&#45;lmom -->
<g id="node32" class="node">
<title>r&#45;lmom</title>
<g id="a_node32"><a xlink:href="https://github.com/conda-forge/r-lmom-feedstock/pull/1" xlink:title="r lmom">
<ellipse fill="#31688e" stroke="black" cx="2197.54" cy="-234" rx="40.5" ry="18"/>
<text text-anchor="middle" x="2197.54" y="-230.3" font-family="Times,serif" font-size="14.00" fill="white">r lmom</text>
</a>
</g>
</g>
<!-- r&#45;lmom&#45;&gt;conda&#45;forge&#45;pinning -->
<g id="edge58" class="edge">
<title>r&#45;lmom&#45;&gt;conda&#45;forge&#45;pinning</title>
<path fill="none" stroke="black" d="M2187.99,-216.05C2182.35,-205.76 2175.21,-192.28 2169.54,-180 2147.89,-133.09 2168.46,-102.21 2126.54,-72 2062.03,-25.51 1546.25,-19.2 1313.18,-18.75"/>
<polygon fill="black" stroke="black" points="1312.98,-15.25 1302.97,-18.73 1312.97,-22.25 1312.98,-15.25"/>
</g>
<!-- r&#45;gld -->
<g id="node33" class="node">
<title>r&#45;gld</title>
<g id="a_node33"><a xlink:href="https://github.com/conda-forge/r-gld-feedstock" xlink:title="r gld">
<ellipse fill="#fde725" stroke="black" cx="2213.54" cy="-162" rx="35.19" ry="18"/>
<text text-anchor="middle" x="2213.54" y="-158.3" font-family="Times,serif" font-size="14.00">r gld</text>
</a>
</g>
</g>
<!-- r&#45;lmom&#45;&gt;r&#45;gld -->
<g id="edge59" class="edge">
<title>r&#45;lmom&#45;&gt;r&#45;gld</title>
<path fill="none" stroke="black" d="M2201.42,-216.05C2203.2,-208.26 2205.36,-198.82 2207.35,-190.08"/>
<polygon fill="black" stroke="black" points="2210.78,-190.8 2209.6,-180.28 2203.95,-189.24 2210.78,-190.8"/>
</g>
<!-- r&#45;gld&#45;&gt;conda&#45;forge&#45;pinning -->
<g id="edge60" class="edge">
<title>r&#45;gld&#45;&gt;conda&#45;forge&#45;pinning</title>
<path fill="none" stroke="black" d="M2209.48,-143.76C2203.52,-122.77 2190.23,-88.15 2164.54,-72 2094.09,-27.71 1553.23,-20.24 1313.42,-19.12"/>
<polygon fill="black" stroke="black" points="1313.29,-15.61 1303.27,-19.07 1313.26,-22.61 1313.29,-15.61"/>
</g>
<!-- r&#45;paireddata -->
<g id="node34" class="node">
<title>r&#45;paireddata</title>
<g id="a_node34"><a xlink:href="https://github.com/conda-forge/r-paireddata-feedstock" xlink:title="r paireddata">
<ellipse fill="#fde725" stroke="black" cx="2286.54" cy="-90" rx="69.59" ry="18"/>
<text text-anchor="middle" x="2286.54" y="-86.3" font-family="Times,serif" font-size="14.00">r paireddata</text>
</a>
</g>
</g>
<!-- r&#45;gld&#45;&gt;r&#45;paireddata -->
<g id="edge61" class="edge">
<title>r&#45;gld&#45;&gt;r&#45;paireddata</title>
<path fill="none" stroke="black" d="M2229.38,-145.81C2238.83,-136.75 2251.03,-125.05 2261.74,-114.79"/>
<polygon fill="black" stroke="black" points="2264.41,-117.08 2269.2,-107.63 2259.56,-112.02 2264.41,-117.08"/>
</g>
<!-- r&#45;paireddata&#45;&gt;conda&#45;forge&#45;pinning -->
<g id="edge62" class="edge">
<title>r&#45;paireddata&#45;&gt;conda&#45;forge&#45;pinning</title>
<path fill="none" stroke="black" d="M2236.1,-77.54C2225.09,-75.39 2213.47,-73.39 2202.54,-72 1881.72,-31.28 1499.32,-21.74 1312.95,-19.58"/>
<polygon fill="black" stroke="black" points="1312.91,-16.08 1302.87,-19.47 1312.83,-23.08 1312.91,-16.08"/>
</g>
<!-- r&#45;unmarked -->
<g id="node35" class="node">
<title>r&#45;unmarked</title>
<g id="a_node35"><a xlink:href="https://github.com/conda-forge/r-unmarked-feedstock/pull/2" xlink:title="r unmarked">
<ellipse fill="#31688e" stroke="black" cx="2433.54" cy="-162" rx="60" ry="18"/>
<text text-anchor="middle" x="2433.54" y="-158.3" font-family="Times,serif" font-size="14.00" fill="white">r unmarked</text>
</a>
</g>
</g>
<!-- r&#45;unmarked&#45;&gt;conda&#45;forge&#45;pinning -->
<g id="edge63" class="edge">
<title>r&#45;unmarked&#45;&gt;conda&#45;forge&#45;pinning</title>
<path fill="none" stroke="black" d="M2422.97,-143.88C2408.07,-120.36 2380.97,-80.07 2365.54,-72 2273.98,-24.11 1588.06,-18.89 1313.07,-18.74"/>
<polygon fill="black" stroke="black" points="1313.07,-15.24 1303.07,-18.74 1313.07,-22.24 1313.07,-15.24"/>
</g>
<!-- r&#45;aiccmodavg -->
<g id="node36" class="node">
<title>r&#45;aiccmodavg</title>
<g id="a_node36"><a xlink:href="https://github.com/conda-forge/r-aiccmodavg-feedstock" xlink:title="r aiccmodavg">
<ellipse fill="#fde725" stroke="black" cx="2482.54" cy="-90" rx="69.59" ry="18"/>
<text text-anchor="middle" x="2482.54" y="-86.3" font-family="Times,serif" font-size="14.00">r aiccmodavg</text>
</a>
</g>
</g>
<!-- r&#45;unmarked&#45;&gt;r&#45;aiccmodavg -->
<g id="edge64" class="edge">
<title>r&#45;unmarked&#45;&gt;r&#45;aiccmodavg</title>
<path fill="none" stroke="black" d="M2445.41,-144.05C2451.24,-135.71 2458.4,-125.49 2464.87,-116.25"/>
<polygon fill="black" stroke="black" points="2467.92,-117.99 2470.79,-107.79 2462.19,-113.97 2467.92,-117.99"/>
</g>
<!-- r&#45;aiccmodavg&#45;&gt;conda&#45;forge&#45;pinning -->
<g id="edge65" class="edge">
<title>r&#45;aiccmodavg&#45;&gt;conda&#45;forge&#45;pinning</title>
<path fill="none" stroke="black" d="M2432.11,-77.47C2421.1,-75.32 2409.47,-73.34 2398.54,-72 2002.26,-23.44 1527.49,-17.88 1313.73,-18.16"/>
<polygon fill="black" stroke="black" points="1313.43,-14.66 1303.44,-18.17 1313.44,-21.66 1313.43,-14.66"/>
</g>
<!-- r&#45;cmplot -->
<g id="node37" class="node">
<title>r&#45;cmplot</title>
<g id="a_node37"><a xlink:href="https://github.com/conda-forge/r-cmplot-feedstock/pull/2" xlink:title="r cmplot">
<ellipse fill="#31688e" stroke="black" cx="2580.54" cy="-378" rx="50.09" ry="18"/>
<text text-anchor="middle" x="2580.54" y="-374.3" font-family="Times,serif" font-size="14.00" fill="white">r cmplot</text>
</a>
</g>
</g>
<!-- r&#45;cmplot&#45;&gt;conda&#45;forge&#45;pinning -->
<g id="edge66" class="edge">
<title>r&#45;cmplot&#45;&gt;conda&#45;forge&#45;pinning</title>
<path fill="none" stroke="black" d="M2580.54,-359.95C2580.54,-333.29 2580.54,-280.11 2580.54,-235 2580.54,-235 2580.54,-235 2580.54,-161 2580.54,-120.55 2592.49,-98.05 2561.54,-72 2514.11,-32.07 1631.34,-22 1312.89,-19.66"/>
<polygon fill="black" stroke="black" points="1312.74,-16.16 1302.71,-19.58 1312.69,-23.16 1312.74,-16.16"/>
</g>
</g>
</svg>
