<?xml version="1.0" encoding="UTF-8" standalone="no"?>
<!DOCTYPE svg PUBLIC "-//W3C//DTD SVG 1.1//EN"
 "http://www.w3.org/Graphics/SVG/1.1/DTD/svg11.dtd">
<!-- Generated by graphviz version 2.42.3 (20191010.1750)
 -->
<!-- Title: %3 Pages: 1 -->
<svg width="2373pt" height="476pt"
 viewBox="0.00 0.00 2373.09 476.00" xmlns="http://www.w3.org/2000/svg" xmlns:xlink="http://www.w3.org/1999/xlink">
<g id="graph0" class="graph" transform="scale(1 1) rotate(0) translate(4 472)">
<title>%3</title>
<polygon fill="white" stroke="transparent" points="-4,4 -4,-472 2369.09,-472 2369.09,4 -4,4"/>
<!-- r&#45;fst -->
<g id="node1" class="node">
<title>r&#45;fst</title>
<g id="a_node1"><a xlink:href="https://github.com/conda-forge/r-fst-feedstock/pull/11" xlink:title="r fst">
<ellipse fill="#31688e" stroke="black" cx="106.54" cy="-162" rx="35.19" ry="18"/>
<text text-anchor="middle" x="106.54" y="-158.3" font-family="Times,serif" font-size="14.00" fill="white">r fst</text>
</a>
</g>
</g>
<!-- r&#45;disk.frame -->
<g id="node2" class="node">
<title>r&#45;disk.frame</title>
<g id="a_node2"><a xlink:href="https://github.com/conda-forge/r-disk.frame-feedstock" xlink:title="r disk frame">
<ellipse fill="#fde725" stroke="black" cx="69.54" cy="-90" rx="69.59" ry="18"/>
<text text-anchor="middle" x="69.54" y="-86.3" font-family="Times,serif" font-size="14.00">r disk frame</text>
</a>
</g>
</g>
<!-- r&#45;fst&#45;&gt;r&#45;disk.frame -->
<g id="edge1" class="edge">
<title>r&#45;fst&#45;&gt;r&#45;disk.frame</title>
<path fill="none" stroke="black" d="M97.78,-144.41C93.46,-136.25 88.16,-126.22 83.32,-117.07"/>
<polygon fill="black" stroke="black" points="86.27,-115.16 78.51,-107.96 80.09,-118.43 86.27,-115.16"/>
</g>
<!-- conda&#45;forge&#45;pinning -->
<g id="node3" class="node">
<title>conda&#45;forge&#45;pinning</title>
<ellipse fill="none" stroke="black" cx="1142.54" cy="-18" rx="103.5" ry="18"/>
<text text-anchor="middle" x="1142.54" y="-14.3" font-family="Times,serif" font-size="14.00">conda&#45;forge&#45;pinning</text>
</g>
<!-- r&#45;fst&#45;&gt;conda&#45;forge&#45;pinning -->
<g id="edge2" class="edge">
<title>r&#45;fst&#45;&gt;conda&#45;forge&#45;pinning</title>
<path fill="none" stroke="black" d="M119.32,-145.03C138.37,-121.69 173.89,-80.14 191.54,-72 265.85,-37.74 793.76,-24.77 1029.42,-20.66"/>
<polygon fill="black" stroke="black" points="1029.8,-24.15 1039.74,-20.48 1029.68,-17.15 1029.8,-24.15"/>
</g>
<!-- r&#45;disk.frame&#45;&gt;conda&#45;forge&#45;pinning -->
<g id="edge3" class="edge">
<title>r&#45;disk.frame&#45;&gt;conda&#45;forge&#45;pinning</title>
<path fill="none" stroke="black" d="M119.98,-77.55C130.99,-75.4 142.62,-73.39 153.54,-72 468.9,-31.86 844.58,-22.05 1028.98,-19.7"/>
<polygon fill="black" stroke="black" points="1029.27,-23.2 1039.23,-19.58 1029.19,-16.2 1029.27,-23.2"/>
</g>
<!-- r&#45;hive -->
<g id="node4" class="node">
<title>r&#45;hive</title>
<g id="a_node4"><a xlink:href="https://github.com/conda-forge/r-hive-feedstock" xlink:title="r hive">
<ellipse fill="#fde725" stroke="black" cx="1350.54" cy="-234" rx="40.5" ry="18"/>
<text text-anchor="middle" x="1350.54" y="-230.3" font-family="Times,serif" font-size="14.00">r hive</text>
</a>
</g>
</g>
<!-- r&#45;hive&#45;&gt;conda&#45;forge&#45;pinning -->
<g id="edge4" class="edge">
<title>r&#45;hive&#45;&gt;conda&#45;forge&#45;pinning</title>
<path fill="none" stroke="black" d="M1339.76,-216.6C1315.81,-180.44 1258.25,-95.25 1232.54,-72 1218.83,-59.6 1201.76,-48.66 1186.18,-40"/>
<polygon fill="black" stroke="black" points="1187.68,-36.83 1177.22,-35.16 1184.36,-42.99 1187.68,-36.83"/>
</g>
<!-- r&#45;rjava -->
<g id="node5" class="node">
<title>r&#45;rjava</title>
<g id="a_node5"><a xlink:href="https://github.com/conda-forge/r-rjava-feedstock" xlink:title="r rjava">
<ellipse fill="#35b779" stroke="black" cx="901.54" cy="-450" rx="45" ry="18"/>
<text text-anchor="middle" x="901.54" y="-446.3" font-family="Times,serif" font-size="14.00">r rjava</text>
</a>
</g>
</g>
<!-- r&#45;rjava&#45;&gt;conda&#45;forge&#45;pinning -->
<g id="edge5" class="edge">
<title>r&#45;rjava&#45;&gt;conda&#45;forge&#45;pinning</title>
<path fill="none" stroke="black" d="M945.6,-446.31C1043.77,-439.87 1273.68,-422.14 1296.54,-396 1326,-362.32 1358.45,-380.22 1183.54,-72 1178.12,-62.44 1171.11,-52.71 1164.43,-44.25"/>
<polygon fill="black" stroke="black" points="1166.95,-41.81 1157.93,-36.26 1161.52,-46.22 1166.95,-41.81"/>
</g>
<!-- r&#45;rjava&#45;&gt;r&#45;hive -->
<g id="edge6" class="edge">
<title>r&#45;rjava&#45;&gt;r&#45;hive</title>
<path fill="none" stroke="black" d="M945.9,-446.55C1049.88,-440.37 1302.62,-422.75 1329.54,-396 1364.7,-361.07 1361.47,-298.18 1356,-262.21"/>
<polygon fill="black" stroke="black" points="1359.39,-261.25 1354.27,-251.97 1352.49,-262.42 1359.39,-261.25"/>
</g>
<!-- r&#45;xlsx -->
<g id="node6" class="node">
<title>r&#45;xlsx</title>
<g id="a_node6"><a xlink:href="https://github.com/conda-forge/r-xlsx-feedstock" xlink:title="r xlsx">
<ellipse fill="#fde725" stroke="black" cx="460.54" cy="-306" rx="40.5" ry="18"/>
<text text-anchor="middle" x="460.54" y="-302.3" font-family="Times,serif" font-size="14.00">r xlsx</text>
</a>
</g>
</g>
<!-- r&#45;rjava&#45;&gt;r&#45;xlsx -->
<g id="edge7" class="edge">
<title>r&#45;rjava&#45;&gt;r&#45;xlsx</title>
<path fill="none" stroke="black" d="M856.97,-447.47C768.18,-443.7 573.03,-431.5 517.54,-396 494.7,-381.38 479.23,-353.97 470.24,-333.42"/>
<polygon fill="black" stroke="black" points="473.39,-331.88 466.34,-323.96 466.92,-334.54 473.39,-331.88"/>
</g>
<!-- r&#45;xlsxjars -->
<g id="node7" class="node">
<title>r&#45;xlsxjars</title>
<g id="a_node7"><a xlink:href="https://github.com/conda-forge/r-xlsxjars-feedstock" xlink:title="r xlsxjars">
<ellipse fill="#fde725" stroke="black" cx="405.54" cy="-378" rx="60" ry="18"/>
<text text-anchor="middle" x="405.54" y="-374.3" font-family="Times,serif" font-size="14.00">r xlsxjars</text>
</a>
</g>
</g>
<!-- r&#45;rjava&#45;&gt;r&#45;xlsxjars -->
<g id="edge8" class="edge">
<title>r&#45;rjava&#45;&gt;r&#45;xlsxjars</title>
<path fill="none" stroke="black" d="M858.19,-445.01C781.49,-437.63 616.96,-420.35 479.54,-396 473.33,-394.9 466.84,-393.61 460.41,-392.25"/>
<polygon fill="black" stroke="black" points="460.91,-388.78 450.4,-390.07 459.42,-395.62 460.91,-388.78"/>
</g>
<!-- r&#45;xlconnectjars -->
<g id="node8" class="node">
<title>r&#45;xlconnectjars</title>
<g id="a_node8"><a xlink:href="https://github.com/conda-forge/r-xlconnectjars-feedstock" xlink:title="r xlconnectjars">
<ellipse fill="#fde725" stroke="black" cx="205.54" cy="-378" rx="84" ry="18"/>
<text text-anchor="middle" x="205.54" y="-374.3" font-family="Times,serif" font-size="14.00">r xlconnectjars</text>
</a>
</g>
</g>
<!-- r&#45;rjava&#45;&gt;r&#45;xlconnectjars -->
<g id="edge9" class="edge">
<title>r&#45;rjava&#45;&gt;r&#45;xlconnectjars</title>
<path fill="none" stroke="black" d="M857.14,-446.34C757.72,-440.09 509.72,-422.97 303.54,-396 294.84,-394.86 285.72,-393.5 276.7,-392.06"/>
<polygon fill="black" stroke="black" points="277.02,-388.57 266.59,-390.4 275.89,-395.47 277.02,-388.57"/>
</g>
<!-- r&#45;xlconnect -->
<g id="node9" class="node">
<title>r&#45;xlconnect</title>
<g id="a_node9"><a xlink:href="https://github.com/conda-forge/r-xlconnect-feedstock" xlink:title="r xlconnect">
<ellipse fill="#fde725" stroke="black" cx="298.54" cy="-306" rx="64.5" ry="18"/>
<text text-anchor="middle" x="298.54" y="-302.3" font-family="Times,serif" font-size="14.00">r xlconnect</text>
</a>
</g>
</g>
<!-- r&#45;rjava&#45;&gt;r&#45;xlconnect -->
<g id="edge10" class="edge">
<title>r&#45;rjava&#45;&gt;r&#45;xlconnect</title>
<path fill="none" stroke="black" d="M856.97,-447.42C730.91,-442.58 378.28,-426.45 336.54,-396 316.78,-381.58 307.21,-354.77 302.62,-334.33"/>
<polygon fill="black" stroke="black" points="306.02,-333.46 300.65,-324.32 299.15,-334.81 306.02,-333.46"/>
</g>
<!-- r&#45;rcdklibs -->
<g id="node10" class="node">
<title>r&#45;rcdklibs</title>
<g id="a_node10"><a xlink:href="https://github.com/conda-forge/r-rcdklibs-feedstock" xlink:title="r rcdklibs">
<ellipse fill="#fde725" stroke="black" cx="636.54" cy="-378" rx="60" ry="18"/>
<text text-anchor="middle" x="636.54" y="-374.3" font-family="Times,serif" font-size="14.00">r rcdklibs</text>
</a>
</g>
</g>
<!-- r&#45;rjava&#45;&gt;r&#45;rcdklibs -->
<g id="edge11" class="edge">
<title>r&#45;rjava&#45;&gt;r&#45;rcdklibs</title>
<path fill="none" stroke="black" d="M864.97,-439.34C819.62,-427.36 741.95,-406.84 689.94,-393.1"/>
<polygon fill="black" stroke="black" points="690.78,-389.71 680.22,-390.54 688.99,-396.47 690.78,-389.71"/>
</g>
<!-- r&#45;rcdk -->
<g id="node11" class="node">
<title>r&#45;rcdk</title>
<g id="a_node11"><a xlink:href="https://github.com/conda-forge/r-rcdk-feedstock" xlink:title="r rcdk">
<ellipse fill="#fde725" stroke="black" cx="636.54" cy="-306" rx="40.5" ry="18"/>
<text text-anchor="middle" x="636.54" y="-302.3" font-family="Times,serif" font-size="14.00">r rcdk</text>
</a>
</g>
</g>
<!-- r&#45;rjava&#45;&gt;r&#45;rcdk -->
<g id="edge12" class="edge">
<title>r&#45;rjava&#45;&gt;r&#45;rcdk</title>
<path fill="none" stroke="black" d="M875.65,-435.13C827.49,-409.32 724.17,-353.95 670.49,-325.19"/>
<polygon fill="black" stroke="black" points="671.85,-321.95 661.38,-320.31 668.54,-328.12 671.85,-321.95"/>
</g>
<!-- r&#45;rchoicedialogs -->
<g id="node12" class="node">
<title>r&#45;rchoicedialogs</title>
<g id="a_node12"><a xlink:href="https://github.com/conda-forge/r-rchoicedialogs-feedstock" xlink:title="r rchoicedialogs">
<ellipse fill="#fde725" stroke="black" cx="784.54" cy="-306" rx="89.08" ry="18"/>
<text text-anchor="middle" x="784.54" y="-302.3" font-family="Times,serif" font-size="14.00">r rchoicedialogs</text>
</a>
</g>
</g>
<!-- r&#45;rjava&#45;&gt;r&#45;rchoicedialogs -->
<g id="edge13" class="edge">
<title>r&#45;rjava&#45;&gt;r&#45;rchoicedialogs</title>
<path fill="none" stroke="black" d="M888.12,-432.71C867.8,-408.05 829.06,-361.03 805.15,-332.01"/>
<polygon fill="black" stroke="black" points="807.59,-329.47 798.53,-323.98 802.19,-333.92 807.59,-329.47"/>
</g>
<!-- r&#45;rwekajars -->
<g id="node13" class="node">
<title>r&#45;rwekajars</title>
<g id="a_node13"><a xlink:href="https://github.com/conda-forge/r-rwekajars-feedstock" xlink:title="r rwekajars">
<ellipse fill="#fde725" stroke="black" cx="789.54" cy="-234" rx="64.5" ry="18"/>
<text text-anchor="middle" x="789.54" y="-230.3" font-family="Times,serif" font-size="14.00">r rwekajars</text>
</a>
</g>
</g>
<!-- r&#45;rjava&#45;&gt;r&#45;rwekajars -->
<g id="edge14" class="edge">
<title>r&#45;rjava&#45;&gt;r&#45;rwekajars</title>
<path fill="none" stroke="black" d="M904.23,-431.8C908.2,-400.38 912.23,-332.81 882.54,-288 872.25,-272.46 855.74,-260.96 839.47,-252.72"/>
<polygon fill="black" stroke="black" points="840.51,-249.34 829.97,-248.24 837.52,-255.67 840.51,-249.34"/>
</g>
<!-- r&#45;rweka -->
<g id="node14" class="node">
<title>r&#45;rweka</title>
<g id="a_node14"><a xlink:href="https://github.com/conda-forge/r-rweka-feedstock" xlink:title="r rweka">
<ellipse fill="#fde725" stroke="black" cx="836.54" cy="-162" rx="45" ry="18"/>
<text text-anchor="middle" x="836.54" y="-158.3" font-family="Times,serif" font-size="14.00">r rweka</text>
</a>
</g>
</g>
<!-- r&#45;rjava&#45;&gt;r&#45;rweka -->
<g id="edge15" class="edge">
<title>r&#45;rjava&#45;&gt;r&#45;rweka</title>
<path fill="none" stroke="black" d="M909.24,-432.22C913.5,-421.99 918.37,-408.52 920.54,-396 923.28,-380.24 922.29,-375.9 920.54,-360 916.97,-327.42 916.04,-318.7 904.54,-288 890.94,-251.69 868.46,-212.92 853.1,-188.35"/>
<polygon fill="black" stroke="black" points="855.9,-186.24 847.59,-179.67 849.99,-189.99 855.9,-186.24"/>
</g>
<!-- r&#45;subspace -->
<g id="node15" class="node">
<title>r&#45;subspace</title>
<g id="a_node15"><a xlink:href="https://github.com/conda-forge/r-subspace-feedstock" xlink:title="r subspace">
<ellipse fill="#fde725" stroke="black" cx="970.54" cy="-234" rx="60" ry="18"/>
<text text-anchor="middle" x="970.54" y="-230.3" font-family="Times,serif" font-size="14.00">r subspace</text>
</a>
</g>
</g>
<!-- r&#45;rjava&#45;&gt;r&#45;subspace -->
<g id="edge16" class="edge">
<title>r&#45;rjava&#45;&gt;r&#45;subspace</title>
<path fill="none" stroke="black" d="M922,-433.92C933.3,-424.38 946.45,-411.04 953.54,-396 973.9,-352.83 974.73,-296.09 972.98,-262.78"/>
<polygon fill="black" stroke="black" points="976.45,-262.19 972.31,-252.44 969.47,-262.64 976.45,-262.19"/>
</g>
<!-- r&#45;rmcfs -->
<g id="node16" class="node">
<title>r&#45;rmcfs</title>
<g id="a_node16"><a xlink:href="https://github.com/conda-forge/r-rmcfs-feedstock" xlink:title="r rmcfs">
<ellipse fill="#fde725" stroke="black" cx="1029.54" cy="-162" rx="45" ry="18"/>
<text text-anchor="middle" x="1029.54" y="-158.3" font-family="Times,serif" font-size="14.00">r rmcfs</text>
</a>
</g>
</g>
<!-- r&#45;rjava&#45;&gt;r&#45;rmcfs -->
<g id="edge17" class="edge">
<title>r&#45;rjava&#45;&gt;r&#45;rmcfs</title>
<path fill="none" stroke="black" d="M927.15,-435.03C942.49,-425.62 961.49,-412.03 974.54,-396 1018.88,-341.55 1024.77,-320.65 1039.54,-252 1043.98,-231.38 1040.91,-207.63 1037.04,-189.86"/>
<polygon fill="black" stroke="black" points="1040.39,-188.8 1034.66,-179.89 1033.58,-190.43 1040.39,-188.8"/>
</g>
<!-- r&#45;rjdbc -->
<g id="node17" class="node">
<title>r&#45;rjdbc</title>
<g id="a_node17"><a xlink:href="https://github.com/conda-forge/r-rjdbc-feedstock" xlink:title="r rjdbc">
<ellipse fill="#fde725" stroke="black" cx="1069.54" cy="-90" rx="45" ry="18"/>
<text text-anchor="middle" x="1069.54" y="-86.3" font-family="Times,serif" font-size="14.00">r rjdbc</text>
</a>
</g>
</g>
<!-- r&#45;rjava&#45;&gt;r&#45;rjdbc -->
<g id="edge18" class="edge">
<title>r&#45;rjava&#45;&gt;r&#45;rjdbc</title>
<path fill="none" stroke="black" d="M934.82,-437.59C956.26,-428.89 983.58,-415.12 1002.54,-396 1074.73,-323.19 1068.4,-281.4 1083.54,-180 1085.91,-164.18 1085.6,-159.87 1083.54,-144 1082.41,-135.28 1080.27,-125.95 1078,-117.58"/>
<polygon fill="black" stroke="black" points="1081.36,-116.6 1075.22,-107.96 1074.63,-118.54 1081.36,-116.6"/>
</g>
<!-- r&#45;tabulizer -->
<g id="node18" class="node">
<title>r&#45;tabulizer</title>
<g id="a_node18"><a xlink:href="https://github.com/conda-forge/r-tabulizer-feedstock" xlink:title="r tabulizer">
<ellipse fill="#fde725" stroke="black" cx="1146.54" cy="-306" rx="64.5" ry="18"/>
<text text-anchor="middle" x="1146.54" y="-302.3" font-family="Times,serif" font-size="14.00">r tabulizer</text>
</a>
</g>
</g>
<!-- r&#45;rjava&#45;&gt;r&#45;tabulizer -->
<g id="edge19" class="edge">
<title>r&#45;rjava&#45;&gt;r&#45;tabulizer</title>
<path fill="none" stroke="black" d="M942.39,-442.28C977.71,-435.06 1029,-421.08 1067.54,-396 1093.19,-379.31 1115.6,-352.15 1129.93,-332.21"/>
<polygon fill="black" stroke="black" points="1132.89,-334.1 1135.75,-323.9 1127.15,-330.08 1132.89,-334.1"/>
</g>
<!-- r&#45;tabulizerjars -->
<g id="node19" class="node">
<title>r&#45;tabulizerjars</title>
<g id="a_node19"><a xlink:href="https://github.com/conda-forge/r-tabulizerjars-feedstock" xlink:title="r tabulizerjars">
<ellipse fill="#fde725" stroke="black" cx="1203.54" cy="-378" rx="84" ry="18"/>
<text text-anchor="middle" x="1203.54" y="-374.3" font-family="Times,serif" font-size="14.00">r tabulizerjars</text>
</a>
</g>
</g>
<!-- r&#45;rjava&#45;&gt;r&#45;tabulizerjars -->
<g id="edge20" class="edge">
<title>r&#45;rjava&#45;&gt;r&#45;tabulizerjars</title>
<path fill="none" stroke="black" d="M939.49,-440.21C989.46,-428.62 1078.08,-408.08 1138.77,-394.01"/>
<polygon fill="black" stroke="black" points="1139.68,-397.4 1148.63,-391.73 1138.1,-390.58 1139.68,-397.4"/>
</g>
<!-- r&#45;destinie -->
<g id="node20" class="node">
<title>r&#45;destinie</title>
<g id="a_node20"><a xlink:href="https://github.com/conda-forge/r-destinie-feedstock" xlink:title="r destinie">
<ellipse fill="#fde725" stroke="black" cx="523.54" cy="-234" rx="60" ry="18"/>
<text text-anchor="middle" x="523.54" y="-230.3" font-family="Times,serif" font-size="14.00">r destinie</text>
</a>
</g>
</g>
<!-- r&#45;rjava&#45;&gt;r&#45;destinie -->
<g id="edge21" class="edge">
<title>r&#45;rjava&#45;&gt;r&#45;destinie</title>
<path fill="none" stroke="black" d="M856.59,-447.75C775.54,-444.56 609.41,-433.52 567.54,-396 529.61,-362 523.02,-298.76 522.62,-262.49"/>
<polygon fill="black" stroke="black" points="526.12,-262.17 522.67,-252.15 519.12,-262.14 526.12,-262.17"/>
</g>
<!-- r&#45;xlsx&#45;&gt;conda&#45;forge&#45;pinning -->
<g id="edge22" class="edge">
<title>r&#45;xlsx&#45;&gt;conda&#45;forge&#45;pinning</title>
<path fill="none" stroke="black" d="M455.69,-288.12C451.27,-269.86 446.57,-240.11 454.54,-216 479.59,-140.3 492.01,-111.02 561.54,-72 638.91,-28.59 882.43,-19.77 1028.5,-18.53"/>
<polygon fill="black" stroke="black" points="1028.87,-22.03 1038.84,-18.45 1028.81,-15.03 1028.87,-22.03"/>
</g>
<!-- r&#45;xlsx&#45;&gt;r&#45;destinie -->
<g id="edge23" class="edge">
<title>r&#45;xlsx&#45;&gt;r&#45;destinie</title>
<path fill="none" stroke="black" d="M474.84,-289.12C482.75,-280.33 492.74,-269.23 501.61,-259.37"/>
<polygon fill="black" stroke="black" points="504.34,-261.57 508.43,-251.8 499.13,-256.89 504.34,-261.57"/>
</g>
<!-- r&#45;xlsxjars&#45;&gt;conda&#45;forge&#45;pinning -->
<g id="edge24" class="edge">
<title>r&#45;xlsxjars&#45;&gt;conda&#45;forge&#45;pinning</title>
<path fill="none" stroke="black" d="M402.78,-360C398.7,-333.42 391.54,-280.33 391.54,-235 391.54,-235 391.54,-235 391.54,-161 391.54,-96.02 446.93,-95.43 507.54,-72 599.87,-36.31 873.39,-24.62 1029.68,-20.81"/>
<polygon fill="black" stroke="black" points="1029.89,-24.31 1039.8,-20.58 1029.72,-17.31 1029.89,-24.31"/>
</g>
<!-- r&#45;xlsxjars&#45;&gt;r&#45;xlsx -->
<g id="edge25" class="edge">
<title>r&#45;xlsxjars&#45;&gt;r&#45;xlsx</title>
<path fill="none" stroke="black" d="M418.58,-360.41C425.36,-351.78 433.78,-341.06 441.3,-331.5"/>
<polygon fill="black" stroke="black" points="444.18,-333.5 447.6,-323.47 438.67,-329.17 444.18,-333.5"/>
</g>
<!-- r&#45;xlconnectjars&#45;&gt;conda&#45;forge&#45;pinning -->
<g id="edge26" class="edge">
<title>r&#45;xlconnectjars&#45;&gt;conda&#45;forge&#45;pinning</title>
<path fill="none" stroke="black" d="M205.54,-359.95C205.54,-333.29 205.54,-280.11 205.54,-235 205.54,-235 205.54,-235 205.54,-161 205.54,-88.39 273.65,-94.92 342.54,-72 466.62,-30.73 839.5,-21.49 1029.14,-19.49"/>
<polygon fill="black" stroke="black" points="1029.17,-22.99 1039.14,-19.39 1029.1,-15.99 1029.17,-22.99"/>
</g>
<!-- r&#45;xlconnectjars&#45;&gt;r&#45;xlconnect -->
<g id="edge27" class="edge">
<title>r&#45;xlconnectjars&#45;&gt;r&#45;xlconnect</title>
<path fill="none" stroke="black" d="M227.58,-360.41C239.95,-351.1 255.54,-339.37 268.96,-329.27"/>
<polygon fill="black" stroke="black" points="271.1,-332.04 276.98,-323.23 266.89,-326.45 271.1,-332.04"/>
</g>
<!-- r&#45;xlconnect&#45;&gt;conda&#45;forge&#45;pinning -->
<g id="edge28" class="edge">
<title>r&#45;xlconnect&#45;&gt;conda&#45;forge&#45;pinning</title>
<path fill="none" stroke="black" d="M298.43,-287.95C299.16,-243.85 307.85,-125.71 377.54,-72 427.88,-33.21 828.66,-22.8 1029.15,-20.01"/>
<polygon fill="black" stroke="black" points="1029.47,-23.51 1039.43,-19.88 1029.38,-16.51 1029.47,-23.51"/>
</g>
<!-- r&#45;rcdklibs&#45;&gt;conda&#45;forge&#45;pinning -->
<g id="edge29" class="edge">
<title>r&#45;rcdklibs&#45;&gt;conda&#45;forge&#45;pinning</title>
<path fill="none" stroke="black" d="M615.25,-361.11C604.44,-351.68 592.38,-338.7 586.54,-324 580.64,-309.13 582.95,-303.59 586.54,-288 610.49,-183.98 604.52,-133.82 691.54,-72 744.11,-34.66 913.61,-23.4 1029.16,-20.14"/>
<polygon fill="black" stroke="black" points="1029.57,-23.63 1039.47,-19.86 1029.38,-16.63 1029.57,-23.63"/>
</g>
<!-- r&#45;rcdklibs&#45;&gt;r&#45;rcdk -->
<g id="edge30" class="edge">
<title>r&#45;rcdklibs&#45;&gt;r&#45;rcdk</title>
<path fill="none" stroke="black" d="M636.54,-359.7C636.54,-351.98 636.54,-342.71 636.54,-334.11"/>
<polygon fill="black" stroke="black" points="640.04,-334.1 636.54,-324.1 633.04,-334.1 640.04,-334.1"/>
</g>
<!-- r&#45;rcdk&#45;&gt;conda&#45;forge&#45;pinning -->
<g id="edge31" class="edge">
<title>r&#45;rcdk&#45;&gt;conda&#45;forge&#45;pinning</title>
<path fill="none" stroke="black" d="M637.56,-287.79C641.15,-243.8 657.19,-126.91 727.54,-72 773.24,-36.34 923.26,-24.54 1029.76,-20.72"/>
<polygon fill="black" stroke="black" points="1030.05,-24.21 1039.93,-20.37 1029.82,-17.21 1030.05,-24.21"/>
</g>
<!-- r&#45;rchoicedialogs&#45;&gt;conda&#45;forge&#45;pinning -->
<g id="edge32" class="edge">
<title>r&#45;rchoicedialogs&#45;&gt;conda&#45;forge&#45;pinning</title>
<path fill="none" stroke="black" d="M752.52,-289.11C738.44,-280.29 723.36,-267.85 715.54,-252 687.99,-196.09 712.05,-113.68 761.54,-72 801.2,-38.61 932.89,-26.22 1030.39,-21.65"/>
<polygon fill="black" stroke="black" points="1030.78,-25.14 1040.61,-21.19 1030.47,-18.14 1030.78,-25.14"/>
</g>
<!-- r&#45;rwekajars&#45;&gt;conda&#45;forge&#45;pinning -->
<g id="edge33" class="edge">
<title>r&#45;rwekajars&#45;&gt;conda&#45;forge&#45;pinning</title>
<path fill="none" stroke="black" d="M781.91,-215.97C768.71,-183.63 746.23,-112.87 781.54,-72 813.16,-35.4 935.48,-23.61 1029.06,-20.05"/>
<polygon fill="black" stroke="black" points="1029.3,-23.54 1039.17,-19.69 1029.05,-16.55 1029.3,-23.54"/>
</g>
<!-- r&#45;rwekajars&#45;&gt;r&#45;rweka -->
<g id="edge34" class="edge">
<title>r&#45;rwekajars&#45;&gt;r&#45;rweka</title>
<path fill="none" stroke="black" d="M800.92,-216.05C806.52,-207.71 813.39,-197.49 819.59,-188.25"/>
<polygon fill="black" stroke="black" points="822.6,-190.04 825.27,-179.79 816.79,-186.14 822.6,-190.04"/>
</g>
<!-- r&#45;rweka&#45;&gt;conda&#45;forge&#45;pinning -->
<g id="edge35" class="edge">
<title>r&#45;rweka&#45;&gt;conda&#45;forge&#45;pinning</title>
<path fill="none" stroke="black" d="M818.22,-145.17C798.49,-126.24 772.35,-94.31 791.54,-72 821.91,-36.71 938.69,-24.61 1029.31,-20.63"/>
<polygon fill="black" stroke="black" points="1029.54,-24.12 1039.38,-20.21 1029.25,-17.13 1029.54,-24.12"/>
</g>
<!-- r&#45;fselector -->
<g id="node21" class="node">
<title>r&#45;fselector</title>
<g id="a_node21"><a xlink:href="https://github.com/conda-forge/r-fselector-feedstock" xlink:title="r fselector">
<ellipse fill="#fde725" stroke="black" cx="865.54" cy="-90" rx="64.5" ry="18"/>
<text text-anchor="middle" x="865.54" y="-86.3" font-family="Times,serif" font-size="14.00">r fselector</text>
</a>
</g>
</g>
<!-- r&#45;rweka&#45;&gt;r&#45;fselector -->
<g id="edge36" class="edge">
<title>r&#45;rweka&#45;&gt;r&#45;fselector</title>
<path fill="none" stroke="black" d="M843.56,-144.05C846.83,-136.18 850.79,-126.62 854.44,-117.79"/>
<polygon fill="black" stroke="black" points="857.79,-118.85 858.39,-108.28 851.33,-116.17 857.79,-118.85"/>
</g>
<!-- r&#45;subspace&#45;&gt;conda&#45;forge&#45;pinning -->
<g id="edge37" class="edge">
<title>r&#45;subspace&#45;&gt;conda&#45;forge&#45;pinning</title>
<path fill="none" stroke="black" d="M968.59,-215.83C965.88,-182.91 965.14,-110.77 1004.54,-72 1021.91,-54.91 1045.38,-43.21 1068.03,-35.25"/>
<polygon fill="black" stroke="black" points="1069.27,-38.52 1077.67,-32.06 1067.07,-31.88 1069.27,-38.52"/>
</g>
<!-- r&#45;rmcfs&#45;&gt;conda&#45;forge&#45;pinning -->
<g id="edge38" class="edge">
<title>r&#45;rmcfs&#45;&gt;conda&#45;forge&#45;pinning</title>
<path fill="none" stroke="black" d="M1020.39,-144.09C1011.43,-124.99 1001.06,-93.74 1015.54,-72 1027.1,-54.66 1045.52,-42.98 1064.8,-35.12"/>
<polygon fill="black" stroke="black" points="1066.16,-38.35 1074.3,-31.56 1063.71,-31.79 1066.16,-38.35"/>
</g>
<!-- r&#45;rjdbc&#45;&gt;conda&#45;forge&#45;pinning -->
<g id="edge39" class="edge">
<title>r&#45;rjdbc&#45;&gt;conda&#45;forge&#45;pinning</title>
<path fill="none" stroke="black" d="M1086.11,-73.12C1095.45,-64.16 1107.31,-52.79 1117.74,-42.79"/>
<polygon fill="black" stroke="black" points="1120.23,-45.24 1125.03,-35.8 1115.39,-40.19 1120.23,-45.24"/>
</g>
<!-- r&#45;tabulizer&#45;&gt;conda&#45;forge&#45;pinning -->
<g id="edge40" class="edge">
<title>r&#45;tabulizer&#45;&gt;conda&#45;forge&#45;pinning</title>
<path fill="none" stroke="black" d="M1146.31,-287.97C1145.64,-240.29 1143.75,-105.18 1142.93,-46.63"/>
<polygon fill="black" stroke="black" points="1146.43,-46.26 1142.79,-36.31 1139.43,-46.35 1146.43,-46.26"/>
</g>
<!-- r&#45;tabulizerjars&#45;&gt;conda&#45;forge&#45;pinning -->
<g id="edge41" class="edge">
<title>r&#45;tabulizerjars&#45;&gt;conda&#45;forge&#45;pinning</title>
<path fill="none" stroke="black" d="M1210.2,-359.63C1213.75,-349.42 1217.75,-336.17 1219.54,-324 1221.88,-308.17 1221.77,-303.84 1219.54,-288 1206.78,-197.02 1170.85,-93.65 1152.95,-45.86"/>
<polygon fill="black" stroke="black" points="1156.13,-44.37 1149.32,-36.26 1149.58,-46.85 1156.13,-44.37"/>
</g>
<!-- r&#45;tabulizerjars&#45;&gt;r&#45;tabulizer -->
<g id="edge42" class="edge">
<title>r&#45;tabulizerjars&#45;&gt;r&#45;tabulizer</title>
<path fill="none" stroke="black" d="M1189.75,-360.05C1182.81,-351.54 1174.29,-341.07 1166.64,-331.68"/>
<polygon fill="black" stroke="black" points="1169.24,-329.33 1160.21,-323.79 1163.82,-333.75 1169.24,-329.33"/>
</g>
<!-- r&#45;destinie&#45;&gt;conda&#45;forge&#45;pinning -->
<g id="edge43" class="edge">
<title>r&#45;destinie&#45;&gt;conda&#45;forge&#45;pinning</title>
<path fill="none" stroke="black" d="M525.82,-215.86C531.32,-181.99 548.67,-106.78 597.54,-72 632.18,-47.35 884.54,-31.27 1033.42,-23.82"/>
<polygon fill="black" stroke="black" points="1033.7,-27.31 1043.51,-23.32 1033.35,-20.32 1033.7,-27.31"/>
</g>
<!-- r&#45;fselector&#45;&gt;conda&#45;forge&#45;pinning -->
<g id="edge49" class="edge">
<title>r&#45;fselector&#45;&gt;conda&#45;forge&#45;pinning</title>
<path fill="none" stroke="black" d="M911.6,-77.36C956.59,-65.99 1025.55,-48.56 1076.41,-35.71"/>
<polygon fill="black" stroke="black" points="1077.49,-39.05 1086.33,-33.21 1075.77,-32.26 1077.49,-39.05"/>
</g>
<!-- rpy2 -->
<g id="node22" class="node">
<title>rpy2</title>
<g id="a_node22"><a xlink:href="https://github.com/conda-forge/rpy2-feedstock/pull/55" xlink:title="rpy2">
<ellipse fill="#31688e" stroke="black" cx="1358.54" cy="-162" rx="30.59" ry="18"/>
<text text-anchor="middle" x="1358.54" y="-158.3" font-family="Times,serif" font-size="14.00" fill="white">rpy2</text>
</a>
</g>
</g>
<!-- rpy2&#45;&gt;conda&#45;forge&#45;pinning -->
<g id="edge44" class="edge">
<title>rpy2&#45;&gt;conda&#45;forge&#45;pinning</title>
<path fill="none" stroke="black" d="M1344.85,-145.75C1324.51,-123.36 1286.95,-83.03 1270.54,-72 1249.23,-57.68 1223.44,-46.08 1200.61,-37.43"/>
<polygon fill="black" stroke="black" points="1201.62,-34.08 1191.02,-33.91 1199.2,-40.64 1201.62,-34.08"/>
</g>
<!-- iterativewgcna -->
<g id="node23" class="node">
<title>iterativewgcna</title>
<g id="a_node23"><a xlink:href="https://github.com/conda-forge/iterativewgcna-feedstock" xlink:title="iterativewgcna">
<ellipse fill="#fde725" stroke="black" cx="1401.54" cy="-90" rx="79.5" ry="18"/>
<text text-anchor="middle" x="1401.54" y="-86.3" font-family="Times,serif" font-size="14.00">iterativewgcna</text>
</a>
</g>
</g>
<!-- rpy2&#45;&gt;iterativewgcna -->
<g id="edge45" class="edge">
<title>rpy2&#45;&gt;iterativewgcna</title>
<path fill="none" stroke="black" d="M1368.52,-144.76C1373.63,-136.44 1379.98,-126.1 1385.74,-116.73"/>
<polygon fill="black" stroke="black" points="1388.77,-118.48 1391.02,-108.12 1382.81,-114.81 1388.77,-118.48"/>
</g>
<!-- iterativewgcna&#45;&gt;conda&#45;forge&#45;pinning -->
<g id="edge46" class="edge">
<title>iterativewgcna&#45;&gt;conda&#45;forge&#45;pinning</title>
<path fill="none" stroke="black" d="M1352.52,-75.75C1310.99,-64.53 1251.15,-48.35 1205.97,-36.14"/>
<polygon fill="black" stroke="black" points="1206.84,-32.75 1196.28,-33.52 1205.02,-39.51 1206.84,-32.75"/>
</g>
<!-- r&#45;rvaidememoire -->
<g id="node24" class="node">
<title>r&#45;rvaidememoire</title>
<g id="a_node24"><a xlink:href="https://github.com/conda-forge/r-rvaidememoire-feedstock" xlink:title="r rvaidememoire">
<ellipse fill="#35b779" stroke="black" cx="1582.54" cy="-90" rx="84" ry="18"/>
<text text-anchor="middle" x="1582.54" y="-86.3" font-family="Times,serif" font-size="14.00">r rvaidememoire</text>
</a>
</g>
</g>
<!-- r&#45;rvaidememoire&#45;&gt;conda&#45;forge&#45;pinning -->
<g id="edge47" class="edge">
<title>r&#45;rvaidememoire&#45;&gt;conda&#45;forge&#45;pinning</title>
<path fill="none" stroke="black" d="M1521.56,-77.59C1510.9,-75.67 1499.9,-73.74 1489.54,-72 1401.18,-57.18 1299.87,-41.9 1229.62,-31.58"/>
<polygon fill="black" stroke="black" points="1229.89,-28.08 1219.48,-30.09 1228.87,-35.01 1229.89,-28.08"/>
</g>
<!-- r&#45;hiver -->
<g id="node25" class="node">
<title>r&#45;hiver</title>
<g id="a_node25"><a xlink:href="https://github.com/conda-forge/r-hiver-feedstock" xlink:title="r hiver">
<ellipse fill="#35b779" stroke="black" cx="1659.54" cy="-162" rx="45" ry="18"/>
<text text-anchor="middle" x="1659.54" y="-158.3" font-family="Times,serif" font-size="14.00">r hiver</text>
</a>
</g>
</g>
<!-- r&#45;hiver&#45;&gt;conda&#45;forge&#45;pinning -->
<g id="edge48" class="edge">
<title>r&#45;hiver&#45;&gt;conda&#45;forge&#45;pinning</title>
<path fill="none" stroke="black" d="M1669.81,-144.31C1680.52,-124.54 1693.46,-91.78 1675.54,-72 1647.82,-41.38 1401.86,-27.74 1253.93,-22.25"/>
<polygon fill="black" stroke="black" points="1254.01,-18.75 1243.89,-21.88 1253.76,-25.75 1254.01,-18.75"/>
</g>
<!-- r&#45;littler -->
<g id="node26" class="node">
<title>r&#45;littler</title>
<g id="a_node26"><a xlink:href="https://github.com/conda-forge/r-littler-feedstock/pull/2" xlink:title="r littler">
<ellipse fill="#31688e" stroke="black" cx="1732.54" cy="-234" rx="54.69" ry="18"/>
<text text-anchor="middle" x="1732.54" y="-230.3" font-family="Times,serif" font-size="14.00" fill="white">r littler</text>
</a>
</g>
</g>
<!-- r&#45;littler&#45;&gt;conda&#45;forge&#45;pinning -->
<g id="edge50" class="edge">
<title>r&#45;littler&#45;&gt;conda&#45;forge&#45;pinning</title>
<path fill="none" stroke="black" d="M1734.39,-215.85C1736.93,-182.31 1737.11,-108.17 1694.54,-72 1661.69,-44.08 1404.53,-29.29 1253.07,-22.92"/>
<polygon fill="black" stroke="black" points="1252.94,-19.41 1242.8,-22.49 1252.65,-26.4 1252.94,-19.41"/>
</g>
<!-- r&#45;rxode -->
<g id="node27" class="node">
<title>r&#45;rxode</title>
<g id="a_node27"><a xlink:href="https://github.com/conda-forge/r-rxode-feedstock/pull/3" xlink:title="r rxode">
<ellipse fill="#31688e" stroke="black" cx="1827.54" cy="-162" rx="45" ry="18"/>
<text text-anchor="middle" x="1827.54" y="-158.3" font-family="Times,serif" font-size="14.00" fill="white">r rxode</text>
</a>
</g>
</g>
<!-- r&#45;rxode&#45;&gt;conda&#45;forge&#45;pinning -->
<g id="edge51" class="edge">
<title>r&#45;rxode&#45;&gt;conda&#45;forge&#45;pinning</title>
<path fill="none" stroke="black" d="M1814.82,-144.33C1796.59,-120.96 1763.39,-80.35 1746.54,-72 1663.16,-30.69 1406.83,-21.16 1256.23,-19.22"/>
<polygon fill="black" stroke="black" points="1256.06,-15.72 1246.02,-19.1 1255.98,-22.72 1256.06,-15.72"/>
</g>
<!-- r&#45;nlmixr -->
<g id="node28" class="node">
<title>r&#45;nlmixr</title>
<g id="a_node28"><a xlink:href="https://github.com/conda-forge/r-nlmixr-feedstock" xlink:title="r nlmixr">
<ellipse fill="#fde725" stroke="black" cx="1848.54" cy="-90" rx="50.09" ry="18"/>
<text text-anchor="middle" x="1848.54" y="-86.3" font-family="Times,serif" font-size="14.00">r nlmixr</text>
</a>
</g>
</g>
<!-- r&#45;rxode&#45;&gt;r&#45;nlmixr -->
<g id="edge52" class="edge">
<title>r&#45;rxode&#45;&gt;r&#45;nlmixr</title>
<path fill="none" stroke="black" d="M1832.63,-144.05C1834.97,-136.26 1837.8,-126.82 1840.42,-118.08"/>
<polygon fill="black" stroke="black" points="1843.84,-118.86 1843.36,-108.28 1837.14,-116.85 1843.84,-118.86"/>
</g>
<!-- r&#45;nlmixr&#45;&gt;conda&#45;forge&#45;pinning -->
<g id="edge53" class="edge">
<title>r&#45;nlmixr&#45;&gt;conda&#45;forge&#45;pinning</title>
<path fill="none" stroke="black" d="M1811.23,-77.9C1802.53,-75.64 1793.27,-73.51 1784.54,-72 1600.26,-40.18 1382.79,-27.31 1254.13,-22.22"/>
<polygon fill="black" stroke="black" points="1254,-18.71 1243.88,-21.82 1253.73,-25.71 1254,-18.71"/>
</g>
<!-- r&#45;lmms -->
<g id="node29" class="node">
<title>r&#45;lmms</title>
<g id="a_node29"><a xlink:href="https://github.com/conda-forge/r-lmms-feedstock" xlink:title="r lmms">
<ellipse fill="#35b779" stroke="black" cx="1895.54" cy="-306" rx="40.5" ry="18"/>
<text text-anchor="middle" x="1895.54" y="-302.3" font-family="Times,serif" font-size="14.00">r lmms</text>
</a>
</g>
</g>
<!-- r&#45;lmms&#45;&gt;conda&#45;forge&#45;pinning -->
<g id="edge54" class="edge">
<title>r&#45;lmms&#45;&gt;conda&#45;forge&#45;pinning</title>
<path fill="none" stroke="black" d="M1903.53,-288.17C1922.42,-245.6 1964.19,-132.71 1907.54,-72 1864.11,-25.46 1458.53,-18.88 1256.21,-18.52"/>
<polygon fill="black" stroke="black" points="1256.14,-15.02 1246.13,-18.51 1256.13,-22.02 1256.14,-15.02"/>
</g>
<!-- r&#45;reactable -->
<g id="node30" class="node">
<title>r&#45;reactable</title>
<g id="a_node30"><a xlink:href="https://github.com/conda-forge/r-reactable-feedstock" xlink:title="r reactable">
<ellipse fill="#35b779" stroke="black" cx="1964.54" cy="-378" rx="64.5" ry="18"/>
<text text-anchor="middle" x="1964.54" y="-374.3" font-family="Times,serif" font-size="14.00">r reactable</text>
</a>
</g>
</g>
<!-- r&#45;reactable&#45;&gt;conda&#45;forge&#45;pinning -->
<g id="edge55" class="edge">
<title>r&#45;reactable&#45;&gt;conda&#45;forge&#45;pinning</title>
<path fill="none" stroke="black" d="M1964.54,-359.95C1964.54,-333.29 1964.54,-280.11 1964.54,-235 1964.54,-235 1964.54,-235 1964.54,-161 1964.54,-118.97 1966.1,-97.32 1932.54,-72 1879.87,-32.26 1461.79,-22.32 1256.08,-19.83"/>
<polygon fill="black" stroke="black" points="1255.88,-16.33 1245.84,-19.71 1255.8,-23.33 1255.88,-16.33"/>
</g>
<!-- r&#45;lmom -->
<g id="node31" class="node">
<title>r&#45;lmom</title>
<g id="a_node31"><a xlink:href="https://github.com/conda-forge/r-lmom-feedstock/pull/1" xlink:title="r lmom">
<ellipse fill="#31688e" stroke="black" cx="2049.54" cy="-234" rx="40.5" ry="18"/>
<text text-anchor="middle" x="2049.54" y="-230.3" font-family="Times,serif" font-size="14.00" fill="white">r lmom</text>
</a>
</g>
</g>
<!-- r&#45;lmom&#45;&gt;conda&#45;forge&#45;pinning -->
<g id="edge56" class="edge">
<title>r&#45;lmom&#45;&gt;conda&#45;forge&#45;pinning</title>
<path fill="none" stroke="black" d="M2039.99,-216.05C2034.35,-205.76 2027.21,-192.28 2021.54,-180 1999.89,-133.09 2020.36,-102.34 1978.54,-72 1921.47,-30.6 1471.15,-21.51 1256.11,-19.53"/>
<polygon fill="black" stroke="black" points="1256.08,-16.03 1246.05,-19.45 1256.02,-23.03 1256.08,-16.03"/>
</g>
<!-- r&#45;gld -->
<g id="node32" class="node">
<title>r&#45;gld</title>
<g id="a_node32"><a xlink:href="https://github.com/conda-forge/r-gld-feedstock" xlink:title="r gld">
<ellipse fill="#fde725" stroke="black" cx="2065.54" cy="-162" rx="35.19" ry="18"/>
<text text-anchor="middle" x="2065.54" y="-158.3" font-family="Times,serif" font-size="14.00">r gld</text>
</a>
</g>
</g>
<!-- r&#45;lmom&#45;&gt;r&#45;gld -->
<g id="edge57" class="edge">
<title>r&#45;lmom&#45;&gt;r&#45;gld</title>
<path fill="none" stroke="black" d="M2053.42,-216.05C2055.2,-208.26 2057.36,-198.82 2059.35,-190.08"/>
<polygon fill="black" stroke="black" points="2062.78,-190.8 2061.6,-180.28 2055.95,-189.24 2062.78,-190.8"/>
</g>
<!-- r&#45;gld&#45;&gt;conda&#45;forge&#45;pinning -->
<g id="edge58" class="edge">
<title>r&#45;gld&#45;&gt;conda&#45;forge&#45;pinning</title>
<path fill="none" stroke="black" d="M2061.46,-143.78C2055.49,-122.82 2042.18,-88.22 2016.54,-72 1953.8,-32.31 1477.78,-22.33 1255.83,-19.83"/>
<polygon fill="black" stroke="black" points="1255.81,-16.33 1245.78,-19.72 1255.74,-23.33 1255.81,-16.33"/>
</g>
<!-- r&#45;paireddata -->
<g id="node33" class="node">
<title>r&#45;paireddata</title>
<g id="a_node33"><a xlink:href="https://github.com/conda-forge/r-paireddata-feedstock" xlink:title="r paireddata">
<ellipse fill="#fde725" stroke="black" cx="2138.54" cy="-90" rx="69.59" ry="18"/>
<text text-anchor="middle" x="2138.54" y="-86.3" font-family="Times,serif" font-size="14.00">r paireddata</text>
</a>
</g>
</g>
<!-- r&#45;gld&#45;&gt;r&#45;paireddata -->
<g id="edge59" class="edge">
<title>r&#45;gld&#45;&gt;r&#45;paireddata</title>
<path fill="none" stroke="black" d="M2081.38,-145.81C2090.83,-136.75 2103.03,-125.05 2113.74,-114.79"/>
<polygon fill="black" stroke="black" points="2116.41,-117.08 2121.2,-107.63 2111.56,-112.02 2116.41,-117.08"/>
</g>
<!-- r&#45;paireddata&#45;&gt;conda&#45;forge&#45;pinning -->
<g id="edge60" class="edge">
<title>r&#45;paireddata&#45;&gt;conda&#45;forge&#45;pinning</title>
<path fill="none" stroke="black" d="M2088.1,-77.59C2077.09,-75.43 2065.46,-73.41 2054.54,-72 1768.48,-34.93 1428.56,-23.78 1255.69,-20.43"/>
<polygon fill="black" stroke="black" points="1255.63,-16.93 1245.56,-20.24 1255.5,-23.93 1255.63,-16.93"/>
</g>
<!-- r&#45;aiccmodavg -->
<g id="node34" class="node">
<title>r&#45;aiccmodavg</title>
<g id="a_node34"><a xlink:href="https://github.com/conda-forge/r-aiccmodavg-feedstock" xlink:title="r aiccmodavg">
<ellipse fill="#35b779" stroke="black" cx="2295.54" cy="-90" rx="69.59" ry="18"/>
<text text-anchor="middle" x="2295.54" y="-86.3" font-family="Times,serif" font-size="14.00">r aiccmodavg</text>
</a>
</g>
</g>
<!-- r&#45;aiccmodavg&#45;&gt;conda&#45;forge&#45;pinning -->
<g id="edge61" class="edge">
<title>r&#45;aiccmodavg&#45;&gt;conda&#45;forge&#45;pinning</title>
<path fill="none" stroke="black" d="M2246.66,-77.05C2237.06,-75.07 2227.02,-73.26 2217.54,-72 1869.34,-25.79 1452.87,-18.87 1256.14,-18.45"/>
<polygon fill="black" stroke="black" points="1256.09,-14.95 1246.08,-18.43 1256.07,-21.95 1256.09,-14.95"/>
</g>
</g>
</svg>
