<?xml version="1.0" encoding="UTF-8" standalone="no"?>
<!DOCTYPE svg PUBLIC "-//W3C//DTD SVG 1.1//EN"
 "http://www.w3.org/Graphics/SVG/1.1/DTD/svg11.dtd">
<!-- Generated by graphviz version 2.42.3 (20191010.1750)
 -->
<!-- Title: %3 Pages: 1 -->
<svg width="2001pt" height="476pt"
 viewBox="0.00 0.00 2001.36 476.00" xmlns="http://www.w3.org/2000/svg" xmlns:xlink="http://www.w3.org/1999/xlink">
<g id="graph0" class="graph" transform="scale(1 1) rotate(0) translate(4 472)">
<title>%3</title>
<polygon fill="white" stroke="transparent" points="-4,4 -4,-472 1997.36,-472 1997.36,4 -4,4"/>
<!-- r&#45;fst -->
<g id="node1" class="node">
<title>r&#45;fst</title>
<g id="a_node1"><a xlink:href="https://github.com/conda-forge/r-fst-feedstock/pull/11" xlink:title="r fst">
<ellipse fill="#31688e" stroke="black" cx="38.31" cy="-162" rx="35.19" ry="18"/>
<text text-anchor="middle" x="38.31" y="-158.3" font-family="Times,serif" font-size="14.00" fill="white">r fst</text>
</a>
</g>
</g>
<!-- r&#45;disk.frame -->
<g id="node2" class="node">
<title>r&#45;disk.frame</title>
<g id="a_node2"><a xlink:href="https://github.com/conda-forge/r-disk.frame-feedstock" xlink:title="r disk frame">
<ellipse fill="#fde725" stroke="black" cx="87.31" cy="-90" rx="69.59" ry="18"/>
<text text-anchor="middle" x="87.31" y="-86.3" font-family="Times,serif" font-size="14.00">r disk frame</text>
</a>
</g>
</g>
<!-- r&#45;fst&#45;&gt;r&#45;disk.frame -->
<g id="edge1" class="edge">
<title>r&#45;fst&#45;&gt;r&#45;disk.frame</title>
<path fill="none" stroke="black" d="M49.68,-144.76C55.56,-136.35 62.89,-125.89 69.51,-116.44"/>
<polygon fill="black" stroke="black" points="72.46,-118.32 75.33,-108.12 66.72,-114.31 72.46,-118.32"/>
</g>
<!-- conda&#45;forge&#45;pinning -->
<g id="node3" class="node">
<title>conda&#45;forge&#45;pinning</title>
<ellipse fill="none" stroke="black" cx="911.31" cy="-18" rx="103.5" ry="18"/>
<text text-anchor="middle" x="911.31" y="-14.3" font-family="Times,serif" font-size="14.00">conda&#45;forge&#45;pinning</text>
</g>
<!-- r&#45;fst&#45;&gt;conda&#45;forge&#45;pinning -->
<g id="edge2" class="edge">
<title>r&#45;fst&#45;&gt;conda&#45;forge&#45;pinning</title>
<path fill="none" stroke="black" d="M24.53,-145.13C9.23,-125.57 -10.93,-92.4 8.31,-72 35.04,-43.66 562.83,-27.41 798.89,-21.54"/>
<polygon fill="black" stroke="black" points="799.31,-25.03 809.22,-21.28 799.14,-18.03 799.31,-25.03"/>
</g>
<!-- r&#45;disk.frame&#45;&gt;conda&#45;forge&#45;pinning -->
<g id="edge3" class="edge">
<title>r&#45;disk.frame&#45;&gt;conda&#45;forge&#45;pinning</title>
<path fill="none" stroke="black" d="M138.22,-77.61C149.1,-75.48 160.55,-73.47 171.31,-72 393.15,-41.73 654.91,-28.13 800.1,-22.52"/>
<polygon fill="black" stroke="black" points="800.49,-26.01 810.35,-22.13 800.22,-19.01 800.49,-26.01"/>
</g>
<!-- r&#45;hive -->
<g id="node4" class="node">
<title>r&#45;hive</title>
<g id="a_node4"><a xlink:href="https://github.com/conda-forge/r-hive-feedstock" xlink:title="r hive">
<ellipse fill="#fde725" stroke="black" cx="154.31" cy="-234" rx="40.5" ry="18"/>
<text text-anchor="middle" x="154.31" y="-230.3" font-family="Times,serif" font-size="14.00">r hive</text>
</a>
</g>
</g>
<!-- r&#45;hive&#45;&gt;conda&#45;forge&#45;pinning -->
<g id="edge4" class="edge">
<title>r&#45;hive&#45;&gt;conda&#45;forge&#45;pinning</title>
<path fill="none" stroke="black" d="M154.43,-215.94C155.69,-182.21 163.76,-107.25 209.31,-72 254.73,-36.86 611.73,-24.75 798.4,-20.8"/>
<polygon fill="black" stroke="black" points="798.61,-24.29 808.53,-20.59 798.46,-17.29 798.61,-24.29"/>
</g>
<!-- r&#45;rjava -->
<g id="node5" class="node">
<title>r&#45;rjava</title>
<g id="a_node5"><a xlink:href="https://github.com/conda-forge/r-rjava-feedstock" xlink:title="r rjava">
<ellipse fill="#35b779" stroke="black" cx="820.31" cy="-450" rx="45" ry="18"/>
<text text-anchor="middle" x="820.31" y="-446.3" font-family="Times,serif" font-size="14.00">r rjava</text>
</a>
</g>
</g>
<!-- r&#45;rjava&#45;&gt;conda&#45;forge&#45;pinning -->
<g id="edge5" class="edge">
<title>r&#45;rjava&#45;&gt;conda&#45;forge&#45;pinning</title>
<path fill="none" stroke="black" d="M775.04,-448.4C642.5,-446.19 262.24,-436.36 225.31,-396 214.51,-384.2 224.5,-375.98 225.31,-360 231.92,-229.85 173.68,-146.91 280.31,-72 321.72,-42.91 629.95,-28.25 799.78,-22.31"/>
<polygon fill="black" stroke="black" points="800.14,-25.8 810.02,-21.96 799.9,-18.8 800.14,-25.8"/>
</g>
<!-- r&#45;rjava&#45;&gt;r&#45;hive -->
<g id="edge6" class="edge">
<title>r&#45;rjava&#45;&gt;r&#45;hive</title>
<path fill="none" stroke="black" d="M775.41,-448.21C639.03,-445.39 236.28,-433.92 192.31,-396 153.98,-362.94 150.42,-299.08 151.92,-262.51"/>
<polygon fill="black" stroke="black" points="155.44,-262.28 152.51,-252.09 148.45,-261.88 155.44,-262.28"/>
</g>
<!-- r&#45;xlsx -->
<g id="node6" class="node">
<title>r&#45;xlsx</title>
<g id="a_node6"><a xlink:href="https://github.com/conda-forge/r-xlsx-feedstock" xlink:title="r xlsx">
<ellipse fill="#fde725" stroke="black" cx="518.31" cy="-306" rx="40.5" ry="18"/>
<text text-anchor="middle" x="518.31" y="-302.3" font-family="Times,serif" font-size="14.00">r xlsx</text>
</a>
</g>
</g>
<!-- r&#45;rjava&#45;&gt;r&#45;xlsx -->
<g id="edge7" class="edge">
<title>r&#45;rjava&#45;&gt;r&#45;xlsx</title>
<path fill="none" stroke="black" d="M779.15,-442.73C739.35,-435.48 678.19,-421.2 630.31,-396 608.26,-384.39 606.76,-375.59 587.31,-360 574,-349.33 559.01,-337.76 546.41,-328.16"/>
<polygon fill="black" stroke="black" points="548.19,-325.12 538.11,-321.86 543.96,-330.69 548.19,-325.12"/>
</g>
<!-- r&#45;xlsxjars -->
<g id="node7" class="node">
<title>r&#45;xlsxjars</title>
<g id="a_node7"><a xlink:href="https://github.com/conda-forge/r-xlsxjars-feedstock" xlink:title="r xlsxjars">
<ellipse fill="#fde725" stroke="black" cx="518.31" cy="-378" rx="60" ry="18"/>
<text text-anchor="middle" x="518.31" y="-374.3" font-family="Times,serif" font-size="14.00">r xlsxjars</text>
</a>
</g>
</g>
<!-- r&#45;rjava&#45;&gt;r&#45;xlsxjars -->
<g id="edge8" class="edge">
<title>r&#45;rjava&#45;&gt;r&#45;xlsxjars</title>
<path fill="none" stroke="black" d="M782.37,-440.21C729.85,-428.03 634.62,-405.96 574.02,-391.91"/>
<polygon fill="black" stroke="black" points="574.77,-388.49 564.24,-389.64 573.19,-395.31 574.77,-388.49"/>
</g>
<!-- r&#45;xlconnectjars -->
<g id="node8" class="node">
<title>r&#45;xlconnectjars</title>
<g id="a_node8"><a xlink:href="https://github.com/conda-forge/r-xlconnectjars-feedstock" xlink:title="r xlconnectjars">
<ellipse fill="#fde725" stroke="black" cx="318.31" cy="-378" rx="84" ry="18"/>
<text text-anchor="middle" x="318.31" y="-374.3" font-family="Times,serif" font-size="14.00">r xlconnectjars</text>
</a>
</g>
</g>
<!-- r&#45;rjava&#45;&gt;r&#45;xlconnectjars -->
<g id="edge9" class="edge">
<title>r&#45;rjava&#45;&gt;r&#45;xlconnectjars</title>
<path fill="none" stroke="black" d="M777.77,-444.01C704.04,-435.22 547.79,-416.02 416.31,-396 407.97,-394.73 399.24,-393.32 390.57,-391.88"/>
<polygon fill="black" stroke="black" points="390.9,-388.39 380.46,-390.18 389.74,-395.29 390.9,-388.39"/>
</g>
<!-- r&#45;xlconnect -->
<g id="node9" class="node">
<title>r&#45;xlconnect</title>
<g id="a_node9"><a xlink:href="https://github.com/conda-forge/r-xlconnect-feedstock" xlink:title="r xlconnect">
<ellipse fill="#fde725" stroke="black" cx="354.31" cy="-306" rx="64.5" ry="18"/>
<text text-anchor="middle" x="354.31" y="-302.3" font-family="Times,serif" font-size="14.00">r xlconnect</text>
</a>
</g>
</g>
<!-- r&#45;rjava&#45;&gt;r&#45;xlconnect -->
<g id="edge10" class="edge">
<title>r&#45;rjava&#45;&gt;r&#45;xlconnect</title>
<path fill="none" stroke="black" d="M776.23,-446.06C690.84,-439.82 506.28,-423.53 449.31,-396 428.37,-385.88 428.28,-375.92 411.31,-360 400.97,-350.3 389.53,-339.64 379.63,-330.45"/>
<polygon fill="black" stroke="black" points="381.78,-327.67 372.07,-323.43 377.02,-332.8 381.78,-327.67"/>
</g>
<!-- r&#45;rcdklibs -->
<g id="node10" class="node">
<title>r&#45;rcdklibs</title>
<g id="a_node10"><a xlink:href="https://github.com/conda-forge/r-rcdklibs-feedstock" xlink:title="r rcdklibs">
<ellipse fill="#fde725" stroke="black" cx="732.31" cy="-378" rx="60" ry="18"/>
<text text-anchor="middle" x="732.31" y="-374.3" font-family="Times,serif" font-size="14.00">r rcdklibs</text>
</a>
</g>
</g>
<!-- r&#45;rjava&#45;&gt;r&#45;rcdklibs -->
<g id="edge11" class="edge">
<title>r&#45;rjava&#45;&gt;r&#45;rcdklibs</title>
<path fill="none" stroke="black" d="M800.78,-433.46C788.87,-423.99 773.46,-411.73 760.27,-401.24"/>
<polygon fill="black" stroke="black" points="762.4,-398.46 752.4,-394.98 758.05,-403.94 762.4,-398.46"/>
</g>
<!-- r&#45;rcdk -->
<g id="node11" class="node">
<title>r&#45;rcdk</title>
<g id="a_node11"><a xlink:href="https://github.com/conda-forge/r-rcdk-feedstock" xlink:title="r rcdk">
<ellipse fill="#fde725" stroke="black" cx="732.31" cy="-306" rx="40.5" ry="18"/>
<text text-anchor="middle" x="732.31" y="-302.3" font-family="Times,serif" font-size="14.00">r rcdk</text>
</a>
</g>
</g>
<!-- r&#45;rjava&#45;&gt;r&#45;rcdk -->
<g id="edge12" class="edge">
<title>r&#45;rjava&#45;&gt;r&#45;rcdk</title>
<path fill="none" stroke="black" d="M820.11,-431.96C819.14,-413.02 815.31,-382.18 801.31,-360 792.6,-346.2 778.95,-334.6 766.08,-325.81"/>
<polygon fill="black" stroke="black" points="767.66,-322.67 757.37,-320.18 763.87,-328.55 767.66,-322.67"/>
</g>
<!-- r&#45;rchoicedialogs -->
<g id="node12" class="node">
<title>r&#45;rchoicedialogs</title>
<g id="a_node12"><a xlink:href="https://github.com/conda-forge/r-rchoicedialogs-feedstock" xlink:title="r rchoicedialogs">
<ellipse fill="#fde725" stroke="black" cx="761.31" cy="-234" rx="89.08" ry="18"/>
<text text-anchor="middle" x="761.31" y="-230.3" font-family="Times,serif" font-size="14.00">r rchoicedialogs</text>
</a>
</g>
</g>
<!-- r&#45;rjava&#45;&gt;r&#45;rchoicedialogs -->
<g id="edge13" class="edge">
<title>r&#45;rjava&#45;&gt;r&#45;rchoicedialogs</title>
<path fill="none" stroke="black" d="M823.16,-432.02C825.62,-413.92 827.98,-384.55 822.31,-360 813.83,-323.28 793.02,-284.88 778.07,-260.49"/>
<polygon fill="black" stroke="black" points="780.93,-258.48 772.66,-251.86 775,-262.19 780.93,-258.48"/>
</g>
<!-- r&#45;rwekajars -->
<g id="node13" class="node">
<title>r&#45;rwekajars</title>
<g id="a_node13"><a xlink:href="https://github.com/conda-forge/r-rwekajars-feedstock" xlink:title="r rwekajars">
<ellipse fill="#fde725" stroke="black" cx="933.31" cy="-234" rx="64.5" ry="18"/>
<text text-anchor="middle" x="933.31" y="-230.3" font-family="Times,serif" font-size="14.00">r rwekajars</text>
</a>
</g>
</g>
<!-- r&#45;rjava&#45;&gt;r&#45;rwekajars -->
<g id="edge14" class="edge">
<title>r&#45;rjava&#45;&gt;r&#45;rwekajars</title>
<path fill="none" stroke="black" d="M829.18,-432.21C848.81,-395.03 896.06,-305.55 919.56,-261.04"/>
<polygon fill="black" stroke="black" points="922.76,-262.49 924.33,-252.01 916.57,-259.22 922.76,-262.49"/>
</g>
<!-- r&#45;rweka -->
<g id="node14" class="node">
<title>r&#45;rweka</title>
<g id="a_node14"><a xlink:href="https://github.com/conda-forge/r-rweka-feedstock" xlink:title="r rweka">
<ellipse fill="#fde725" stroke="black" cx="950.31" cy="-162" rx="45" ry="18"/>
<text text-anchor="middle" x="950.31" y="-158.3" font-family="Times,serif" font-size="14.00">r rweka</text>
</a>
</g>
</g>
<!-- r&#45;rjava&#45;&gt;r&#45;rweka -->
<g id="edge15" class="edge">
<title>r&#45;rjava&#45;&gt;r&#45;rweka</title>
<path fill="none" stroke="black" d="M842.85,-434.2C884.7,-405.19 973.17,-336.26 1006.31,-252 1012.17,-237.11 1012.64,-230.7 1006.31,-216 1000.97,-203.58 991.12,-192.71 981.16,-184.1"/>
<polygon fill="black" stroke="black" points="983.21,-181.26 973.23,-177.7 978.81,-186.7 983.21,-181.26"/>
</g>
<!-- r&#45;subspace -->
<g id="node15" class="node">
<title>r&#45;subspace</title>
<g id="a_node15"><a xlink:href="https://github.com/conda-forge/r-subspace-feedstock" xlink:title="r subspace">
<ellipse fill="#fde725" stroke="black" cx="1114.31" cy="-234" rx="60" ry="18"/>
<text text-anchor="middle" x="1114.31" y="-230.3" font-family="Times,serif" font-size="14.00">r subspace</text>
</a>
</g>
</g>
<!-- r&#45;rjava&#45;&gt;r&#45;subspace -->
<g id="edge16" class="edge">
<title>r&#45;rjava&#45;&gt;r&#45;subspace</title>
<path fill="none" stroke="black" d="M865.41,-449.26C913.79,-447.23 990.39,-437.05 1040.31,-396 1082.27,-361.5 1101.55,-298 1109.48,-261.92"/>
<polygon fill="black" stroke="black" points="1112.91,-262.59 1111.5,-252.09 1106.06,-261.17 1112.91,-262.59"/>
</g>
<!-- r&#45;rmcfs -->
<g id="node16" class="node">
<title>r&#45;rmcfs</title>
<g id="a_node16"><a xlink:href="https://github.com/conda-forge/r-rmcfs-feedstock" xlink:title="r rmcfs">
<ellipse fill="#fde725" stroke="black" cx="1133.31" cy="-162" rx="45" ry="18"/>
<text text-anchor="middle" x="1133.31" y="-158.3" font-family="Times,serif" font-size="14.00">r rmcfs</text>
</a>
</g>
</g>
<!-- r&#45;rjava&#45;&gt;r&#45;rmcfs -->
<g id="edge17" class="edge">
<title>r&#45;rjava&#45;&gt;r&#45;rmcfs</title>
<path fill="none" stroke="black" d="M865.26,-448.53C918.11,-446.05 1006.67,-435.65 1070.31,-396 1139.36,-352.98 1156.74,-328.89 1183.31,-252 1188.54,-236.88 1189.22,-230.87 1183.31,-216 1178.69,-204.36 1170.16,-193.8 1161.45,-185.22"/>
<polygon fill="black" stroke="black" points="1163.56,-182.41 1153.83,-178.21 1158.82,-187.56 1163.56,-182.41"/>
</g>
<!-- r&#45;rjdbc -->
<g id="node17" class="node">
<title>r&#45;rjdbc</title>
<g id="a_node17"><a xlink:href="https://github.com/conda-forge/r-rjdbc-feedstock" xlink:title="r rjdbc">
<ellipse fill="#fde725" stroke="black" cx="1162.31" cy="-90" rx="45" ry="18"/>
<text text-anchor="middle" x="1162.31" y="-86.3" font-family="Times,serif" font-size="14.00">r rjdbc</text>
</a>
</g>
</g>
<!-- r&#45;rjava&#45;&gt;r&#45;rjdbc -->
<g id="edge18" class="edge">
<title>r&#45;rjava&#45;&gt;r&#45;rjdbc</title>
<path fill="none" stroke="black" d="M865.54,-449.78C925.26,-448.87 1031.87,-440.4 1109.31,-396 1174.99,-358.34 1185.91,-326.33 1200.31,-252 1209.51,-204.54 1202.05,-190.05 1187.31,-144 1184.38,-134.85 1180.21,-125.23 1176.12,-116.75"/>
<polygon fill="black" stroke="black" points="1179.2,-115.09 1171.59,-107.72 1172.95,-118.23 1179.2,-115.09"/>
</g>
<!-- r&#45;tabulizer -->
<g id="node18" class="node">
<title>r&#45;tabulizer</title>
<g id="a_node18"><a xlink:href="https://github.com/conda-forge/r-tabulizer-feedstock" xlink:title="r tabulizer">
<ellipse fill="#fde725" stroke="black" cx="1278.31" cy="-306" rx="64.5" ry="18"/>
<text text-anchor="middle" x="1278.31" y="-302.3" font-family="Times,serif" font-size="14.00">r tabulizer</text>
</a>
</g>
</g>
<!-- r&#45;rjava&#45;&gt;r&#45;tabulizer -->
<g id="edge19" class="edge">
<title>r&#45;rjava&#45;&gt;r&#45;tabulizer</title>
<path fill="none" stroke="black" d="M864.55,-446.64C951.71,-441.37 1142.14,-426.63 1199.31,-396 1226.6,-381.38 1249.01,-353.39 1262.9,-332.68"/>
<polygon fill="black" stroke="black" points="1266,-334.33 1268.49,-324.04 1260.12,-330.53 1266,-334.33"/>
</g>
<!-- r&#45;tabulizerjars -->
<g id="node19" class="node">
<title>r&#45;tabulizerjars</title>
<g id="a_node19"><a xlink:href="https://github.com/conda-forge/r-tabulizerjars-feedstock" xlink:title="r tabulizerjars">
<ellipse fill="#fde725" stroke="black" cx="1335.31" cy="-378" rx="84" ry="18"/>
<text text-anchor="middle" x="1335.31" y="-374.3" font-family="Times,serif" font-size="14.00">r tabulizerjars</text>
</a>
</g>
</g>
<!-- r&#45;rjava&#45;&gt;r&#45;tabulizerjars -->
<g id="edge20" class="edge">
<title>r&#45;rjava&#45;&gt;r&#45;tabulizerjars</title>
<path fill="none" stroke="black" d="M863.02,-444.22C938.63,-435.61 1100.91,-416.49 1237.31,-396 1245.66,-394.75 1254.39,-393.35 1263.06,-391.92"/>
<polygon fill="black" stroke="black" points="1263.89,-395.32 1273.17,-390.22 1262.73,-388.42 1263.89,-395.32"/>
</g>
<!-- r&#45;destinie -->
<g id="node20" class="node">
<title>r&#45;destinie</title>
<g id="a_node20"><a xlink:href="https://github.com/conda-forge/r-destinie-feedstock" xlink:title="r destinie">
<ellipse fill="#fde725" stroke="black" cx="518.31" cy="-234" rx="60" ry="18"/>
<text text-anchor="middle" x="518.31" y="-230.3" font-family="Times,serif" font-size="14.00">r destinie</text>
</a>
</g>
</g>
<!-- r&#45;rjava&#45;&gt;r&#45;destinie -->
<g id="edge21" class="edge">
<title>r&#45;rjava&#45;&gt;r&#45;destinie</title>
<path fill="none" stroke="black" d="M780.36,-441.52C747.01,-433.93 699.29,-419.82 663.31,-396 636.54,-378.27 588.88,-311.79 567.31,-288 558.72,-278.52 549.19,-268.17 540.83,-259.16"/>
<polygon fill="black" stroke="black" points="543.21,-256.58 533.84,-251.63 538.08,-261.34 543.21,-256.58"/>
</g>
<!-- r&#45;xlsx&#45;&gt;conda&#45;forge&#45;pinning -->
<g id="edge22" class="edge">
<title>r&#45;xlsx&#45;&gt;conda&#45;forge&#45;pinning</title>
<path fill="none" stroke="black" d="M491.63,-292.33C476.2,-283.42 458.13,-269.88 449.31,-252 442.24,-237.65 444.25,-231.18 449.31,-216 474.61,-140.11 488.61,-112.99 557.31,-72 598.23,-47.59 717.14,-33.4 805.93,-25.96"/>
<polygon fill="black" stroke="black" points="806.37,-29.43 816.05,-25.12 805.8,-22.45 806.37,-29.43"/>
</g>
<!-- r&#45;xlsx&#45;&gt;r&#45;destinie -->
<g id="edge23" class="edge">
<title>r&#45;xlsx&#45;&gt;r&#45;destinie</title>
<path fill="none" stroke="black" d="M518.31,-287.7C518.31,-279.98 518.31,-270.71 518.31,-262.11"/>
<polygon fill="black" stroke="black" points="521.81,-262.1 518.31,-252.1 514.81,-262.1 521.81,-262.1"/>
</g>
<!-- r&#45;xlsxjars&#45;&gt;conda&#45;forge&#45;pinning -->
<g id="edge24" class="edge">
<title>r&#45;xlsxjars&#45;&gt;conda&#45;forge&#45;pinning</title>
<path fill="none" stroke="black" d="M499.74,-360.8C489.38,-350.99 476.88,-337.74 468.31,-324 450.23,-295 447.41,-285.63 441.31,-252 426.16,-168.46 433.43,-117.18 505.31,-72 553.07,-41.98 697.67,-28.81 800.67,-23.14"/>
<polygon fill="black" stroke="black" points="801.02,-26.63 810.82,-22.6 800.64,-19.64 801.02,-26.63"/>
</g>
<!-- r&#45;xlsxjars&#45;&gt;r&#45;xlsx -->
<g id="edge25" class="edge">
<title>r&#45;xlsxjars&#45;&gt;r&#45;xlsx</title>
<path fill="none" stroke="black" d="M518.31,-359.7C518.31,-351.98 518.31,-342.71 518.31,-334.11"/>
<polygon fill="black" stroke="black" points="521.81,-334.1 518.31,-324.1 514.81,-334.1 521.81,-334.1"/>
</g>
<!-- r&#45;xlconnectjars&#45;&gt;conda&#45;forge&#45;pinning -->
<g id="edge26" class="edge">
<title>r&#45;xlconnectjars&#45;&gt;conda&#45;forge&#45;pinning</title>
<path fill="none" stroke="black" d="M303.33,-359.97C295.38,-350.09 286.08,-337.05 280.31,-324 263.96,-287.01 261.31,-275.45 261.31,-235 261.31,-235 261.31,-235 261.31,-161 261.31,-104.74 300.35,-95.81 351.31,-72 428.08,-36.13 658.09,-24.54 798.31,-20.79"/>
<polygon fill="black" stroke="black" points="798.76,-24.28 808.67,-20.52 798.58,-17.28 798.76,-24.28"/>
</g>
<!-- r&#45;xlconnectjars&#45;&gt;r&#45;xlconnect -->
<g id="edge27" class="edge">
<title>r&#45;xlconnectjars&#45;&gt;r&#45;xlconnect</title>
<path fill="none" stroke="black" d="M327.03,-360.05C331.17,-352.01 336.21,-342.2 340.82,-333.23"/>
<polygon fill="black" stroke="black" points="343.97,-334.77 345.43,-324.28 337.74,-331.57 343.97,-334.77"/>
</g>
<!-- r&#45;xlconnect&#45;&gt;conda&#45;forge&#45;pinning -->
<g id="edge28" class="edge">
<title>r&#45;xlconnect&#45;&gt;conda&#45;forge&#45;pinning</title>
<path fill="none" stroke="black" d="M349.76,-287.95C339.39,-244.86 319.26,-130.84 378.31,-72 407.59,-42.83 653.28,-28.61 800.66,-22.65"/>
<polygon fill="black" stroke="black" points="800.81,-26.15 810.66,-22.25 800.53,-19.15 800.81,-26.15"/>
</g>
<!-- r&#45;rcdklibs&#45;&gt;conda&#45;forge&#45;pinning -->
<g id="edge29" class="edge">
<title>r&#45;rcdklibs&#45;&gt;conda&#45;forge&#45;pinning</title>
<path fill="none" stroke="black" d="M713.8,-360.77C703.46,-350.94 690.96,-337.69 682.31,-324 663.97,-294.98 660.64,-285.75 654.31,-252 645.19,-203.37 654.24,-185.41 681.31,-144 706.42,-105.59 716.18,-95.97 755.31,-72 781.6,-55.89 813.41,-43.96 841.43,-35.53"/>
<polygon fill="black" stroke="black" points="842.54,-38.85 851.17,-32.69 840.59,-32.13 842.54,-38.85"/>
</g>
<!-- r&#45;rcdklibs&#45;&gt;r&#45;rcdk -->
<g id="edge30" class="edge">
<title>r&#45;rcdklibs&#45;&gt;r&#45;rcdk</title>
<path fill="none" stroke="black" d="M732.31,-359.7C732.31,-351.98 732.31,-342.71 732.31,-334.11"/>
<polygon fill="black" stroke="black" points="735.81,-334.1 732.31,-324.1 728.81,-334.1 735.81,-334.1"/>
</g>
<!-- r&#45;rcdk&#45;&gt;conda&#45;forge&#45;pinning -->
<g id="edge31" class="edge">
<title>r&#45;rcdk&#45;&gt;conda&#45;forge&#45;pinning</title>
<path fill="none" stroke="black" d="M705.63,-292.33C690.2,-283.42 672.13,-269.88 663.31,-252 656.24,-237.65 656.4,-230.43 663.31,-216 705.02,-128.91 806.2,-68.61 865.64,-39.32"/>
<polygon fill="black" stroke="black" points="867.33,-42.39 874.81,-34.88 864.28,-36.09 867.33,-42.39"/>
</g>
<!-- r&#45;rchoicedialogs&#45;&gt;conda&#45;forge&#45;pinning -->
<g id="edge32" class="edge">
<title>r&#45;rchoicedialogs&#45;&gt;conda&#45;forge&#45;pinning</title>
<path fill="none" stroke="black" d="M772.42,-215.84C791.75,-186.13 833.09,-123.4 870.31,-72 877.03,-62.72 884.65,-52.73 891.49,-43.96"/>
<polygon fill="black" stroke="black" points="894.33,-46.01 897.74,-35.98 888.82,-41.69 894.33,-46.01"/>
</g>
<!-- r&#45;rwekajars&#45;&gt;conda&#45;forge&#45;pinning -->
<g id="edge33" class="edge">
<title>r&#45;rwekajars&#45;&gt;conda&#45;forge&#45;pinning</title>
<path fill="none" stroke="black" d="M919.4,-216.25C911.68,-206.24 902.43,-192.99 896.31,-180 882.16,-149.95 880.8,-140.91 876.31,-108 874.15,-92.15 871.71,-87.32 876.31,-72 879.28,-62.12 884.75,-52.39 890.5,-44.01"/>
<polygon fill="black" stroke="black" points="893.41,-45.96 896.49,-35.83 887.76,-41.83 893.41,-45.96"/>
</g>
<!-- r&#45;rwekajars&#45;&gt;r&#45;rweka -->
<g id="edge34" class="edge">
<title>r&#45;rwekajars&#45;&gt;r&#45;rweka</title>
<path fill="none" stroke="black" d="M937.51,-215.7C939.41,-207.9 941.69,-198.51 943.8,-189.83"/>
<polygon fill="black" stroke="black" points="947.2,-190.65 946.16,-180.1 940.4,-189 947.2,-190.65"/>
</g>
<!-- r&#45;rweka&#45;&gt;conda&#45;forge&#45;pinning -->
<g id="edge35" class="edge">
<title>r&#45;rweka&#45;&gt;conda&#45;forge&#45;pinning</title>
<path fill="none" stroke="black" d="M923.75,-147.43C909.2,-138.42 892.51,-125.09 884.31,-108 874.56,-87.67 883.49,-63.03 893.61,-44.84"/>
<polygon fill="black" stroke="black" points="896.79,-46.35 898.92,-35.97 890.78,-42.75 896.79,-46.35"/>
</g>
<!-- r&#45;fselector -->
<g id="node21" class="node">
<title>r&#45;fselector</title>
<g id="a_node21"><a xlink:href="https://github.com/conda-forge/r-fselector-feedstock" xlink:title="r fselector">
<ellipse fill="#fde725" stroke="black" cx="958.31" cy="-90" rx="64.5" ry="18"/>
<text text-anchor="middle" x="958.31" y="-86.3" font-family="Times,serif" font-size="14.00">r fselector</text>
</a>
</g>
</g>
<!-- r&#45;rweka&#45;&gt;r&#45;fselector -->
<g id="edge36" class="edge">
<title>r&#45;rweka&#45;&gt;r&#45;fselector</title>
<path fill="none" stroke="black" d="M952.29,-143.7C953.17,-135.98 954.23,-126.71 955.21,-118.11"/>
<polygon fill="black" stroke="black" points="958.7,-118.44 956.36,-108.1 951.74,-117.64 958.7,-118.44"/>
</g>
<!-- r&#45;subspace&#45;&gt;conda&#45;forge&#45;pinning -->
<g id="edge37" class="edge">
<title>r&#45;subspace&#45;&gt;conda&#45;forge&#45;pinning</title>
<path fill="none" stroke="black" d="M1102.23,-216.26C1095.11,-206.04 1086.2,-192.57 1079.31,-180 1054.09,-133.93 1068.5,-109.1 1031.31,-72 1015.79,-56.52 994.98,-45.18 975.05,-37.07"/>
<polygon fill="black" stroke="black" points="976.26,-33.78 965.67,-33.45 973.74,-40.32 976.26,-33.78"/>
</g>
<!-- r&#45;rmcfs&#45;&gt;conda&#45;forge&#45;pinning -->
<g id="edge38" class="edge">
<title>r&#45;rmcfs&#45;&gt;conda&#45;forge&#45;pinning</title>
<path fill="none" stroke="black" d="M1124.52,-144.16C1113.31,-124.24 1092.12,-91.34 1065.31,-72 1041.72,-54.98 1012.23,-43.09 985.38,-34.94"/>
<polygon fill="black" stroke="black" points="986.2,-31.53 975.62,-32.1 984.25,-38.26 986.2,-31.53"/>
</g>
<!-- r&#45;rjdbc&#45;&gt;conda&#45;forge&#45;pinning -->
<g id="edge39" class="edge">
<title>r&#45;rjdbc&#45;&gt;conda&#45;forge&#45;pinning</title>
<path fill="none" stroke="black" d="M1127.08,-78.78C1119.26,-76.53 1111.01,-74.17 1103.31,-72 1060.24,-59.85 1011.64,-46.44 974.11,-36.14"/>
<polygon fill="black" stroke="black" points="974.9,-32.73 964.33,-33.46 973.05,-39.48 974.9,-32.73"/>
</g>
<!-- r&#45;tabulizer&#45;&gt;conda&#45;forge&#45;pinning -->
<g id="edge40" class="edge">
<title>r&#45;tabulizer&#45;&gt;conda&#45;forge&#45;pinning</title>
<path fill="none" stroke="black" d="M1280.1,-287.94C1283.69,-243.26 1286.23,-122.83 1216.31,-72 1184.54,-48.9 1089.6,-34.9 1013.99,-27.14"/>
<polygon fill="black" stroke="black" points="1014.23,-23.65 1003.93,-26.13 1013.53,-30.61 1014.23,-23.65"/>
</g>
<!-- r&#45;tabulizerjars&#45;&gt;conda&#45;forge&#45;pinning -->
<g id="edge41" class="edge">
<title>r&#45;tabulizerjars&#45;&gt;conda&#45;forge&#45;pinning</title>
<path fill="none" stroke="black" d="M1342.39,-359.86C1348.89,-341.89 1356.74,-312.85 1351.31,-288 1339.93,-235.86 1289.88,-102.82 1246.31,-72 1210.28,-46.51 1101.58,-32.7 1017.67,-25.63"/>
<polygon fill="black" stroke="black" points="1017.82,-22.13 1007.56,-24.8 1017.24,-29.11 1017.82,-22.13"/>
</g>
<!-- r&#45;tabulizerjars&#45;&gt;r&#45;tabulizer -->
<g id="edge42" class="edge">
<title>r&#45;tabulizerjars&#45;&gt;r&#45;tabulizer</title>
<path fill="none" stroke="black" d="M1321.51,-360.05C1314.58,-351.54 1306.05,-341.07 1298.41,-331.68"/>
<polygon fill="black" stroke="black" points="1301.01,-329.33 1291.98,-323.79 1295.58,-333.75 1301.01,-329.33"/>
</g>
<!-- r&#45;destinie&#45;&gt;conda&#45;forge&#45;pinning -->
<g id="edge43" class="edge">
<title>r&#45;destinie&#45;&gt;conda&#45;forge&#45;pinning</title>
<path fill="none" stroke="black" d="M520.84,-215.88C526.75,-182.39 544.76,-108.32 592.31,-72 625.2,-46.88 726.03,-33.11 805.62,-25.96"/>
<polygon fill="black" stroke="black" points="806.05,-29.43 815.71,-25.07 805.44,-22.46 806.05,-29.43"/>
</g>
<!-- r&#45;fselector&#45;&gt;conda&#45;forge&#45;pinning -->
<g id="edge49" class="edge">
<title>r&#45;fselector&#45;&gt;conda&#45;forge&#45;pinning</title>
<path fill="none" stroke="black" d="M946.94,-72.05C941.42,-63.84 934.67,-53.79 928.54,-44.66"/>
<polygon fill="black" stroke="black" points="931.39,-42.63 922.91,-36.28 925.58,-46.53 931.39,-42.63"/>
</g>
<!-- rpy2 -->
<g id="node22" class="node">
<title>rpy2</title>
<g id="a_node22"><a xlink:href="https://github.com/conda-forge/rpy2-feedstock/pull/55" xlink:title="rpy2">
<ellipse fill="#31688e" stroke="black" cx="1388.31" cy="-162" rx="30.59" ry="18"/>
<text text-anchor="middle" x="1388.31" y="-158.3" font-family="Times,serif" font-size="14.00" fill="white">rpy2</text>
</a>
</g>
</g>
<!-- rpy2&#45;&gt;conda&#45;forge&#45;pinning -->
<g id="edge44" class="edge">
<title>rpy2&#45;&gt;conda&#45;forge&#45;pinning</title>
<path fill="none" stroke="black" d="M1372.14,-146.53C1344.25,-121.62 1289.83,-73.16 1287.31,-72 1240.15,-50.3 1108.68,-35.24 1014.51,-26.86"/>
<polygon fill="black" stroke="black" points="1014.63,-23.36 1004.37,-25.97 1014.02,-30.33 1014.63,-23.36"/>
</g>
<!-- iterativewgcna -->
<g id="node23" class="node">
<title>iterativewgcna</title>
<g id="a_node23"><a xlink:href="https://github.com/conda-forge/iterativewgcna-feedstock" xlink:title="iterativewgcna">
<ellipse fill="#fde725" stroke="black" cx="1418.31" cy="-90" rx="79.5" ry="18"/>
<text text-anchor="middle" x="1418.31" y="-86.3" font-family="Times,serif" font-size="14.00">iterativewgcna</text>
</a>
</g>
</g>
<!-- rpy2&#45;&gt;iterativewgcna -->
<g id="edge45" class="edge">
<title>rpy2&#45;&gt;iterativewgcna</title>
<path fill="none" stroke="black" d="M1395.42,-144.41C1398.88,-136.34 1403.13,-126.43 1407.02,-117.35"/>
<polygon fill="black" stroke="black" points="1410.32,-118.53 1411.05,-107.96 1403.89,-115.77 1410.32,-118.53"/>
</g>
<!-- iterativewgcna&#45;&gt;conda&#45;forge&#45;pinning -->
<g id="edge46" class="edge">
<title>iterativewgcna&#45;&gt;conda&#45;forge&#45;pinning</title>
<path fill="none" stroke="black" d="M1359.36,-77.73C1348.07,-75.72 1336.34,-73.71 1325.31,-72 1216.08,-55.04 1090.02,-39.47 1005.98,-29.66"/>
<polygon fill="black" stroke="black" points="1006.28,-26.17 995.94,-28.49 1005.47,-33.12 1006.28,-26.17"/>
</g>
<!-- r&#45;rvaidememoire -->
<g id="node24" class="node">
<title>r&#45;rvaidememoire</title>
<g id="a_node24"><a xlink:href="https://github.com/conda-forge/r-rvaidememoire-feedstock" xlink:title="r rvaidememoire">
<ellipse fill="#35b779" stroke="black" cx="1599.31" cy="-90" rx="84" ry="18"/>
<text text-anchor="middle" x="1599.31" y="-86.3" font-family="Times,serif" font-size="14.00">r rvaidememoire</text>
</a>
</g>
</g>
<!-- r&#45;rvaidememoire&#45;&gt;conda&#45;forge&#45;pinning -->
<g id="edge47" class="edge">
<title>r&#45;rvaidememoire&#45;&gt;conda&#45;forge&#45;pinning</title>
<path fill="none" stroke="black" d="M1539.41,-77.21C1528.43,-75.29 1517.05,-73.46 1506.31,-72 1335.93,-48.89 1136.68,-33.48 1017.42,-25.5"/>
<polygon fill="black" stroke="black" points="1017.41,-21.99 1007.2,-24.82 1016.94,-28.97 1017.41,-21.99"/>
</g>
<!-- r&#45;hiver -->
<g id="node25" class="node">
<title>r&#45;hiver</title>
<g id="a_node25"><a xlink:href="https://github.com/conda-forge/r-hiver-feedstock" xlink:title="r hiver">
<ellipse fill="#35b779" stroke="black" cx="1676.31" cy="-162" rx="45" ry="18"/>
<text text-anchor="middle" x="1676.31" y="-158.3" font-family="Times,serif" font-size="14.00">r hiver</text>
</a>
</g>
</g>
<!-- r&#45;hiver&#45;&gt;conda&#45;forge&#45;pinning -->
<g id="edge48" class="edge">
<title>r&#45;hiver&#45;&gt;conda&#45;forge&#45;pinning</title>
<path fill="none" stroke="black" d="M1686.69,-144.22C1697.5,-124.35 1710.53,-91.5 1692.31,-72 1647.8,-24.37 1231.23,-18.36 1025.36,-18.34"/>
<polygon fill="black" stroke="black" points="1025.12,-14.84 1015.12,-18.35 1025.12,-21.84 1025.12,-14.84"/>
</g>
<!-- r&#45;littler -->
<g id="node26" class="node">
<title>r&#45;littler</title>
<g id="a_node26"><a xlink:href="https://github.com/conda-forge/r-littler-feedstock/pull/2" xlink:title="r littler">
<ellipse fill="#31688e" stroke="black" cx="1749.31" cy="-234" rx="54.69" ry="18"/>
<text text-anchor="middle" x="1749.31" y="-230.3" font-family="Times,serif" font-size="14.00" fill="white">r littler</text>
</a>
</g>
</g>
<!-- r&#45;littler&#45;&gt;conda&#45;forge&#45;pinning -->
<g id="edge50" class="edge">
<title>r&#45;littler&#45;&gt;conda&#45;forge&#45;pinning</title>
<path fill="none" stroke="black" d="M1751.23,-216C1753.95,-182.39 1754.52,-107.63 1711.31,-72 1659.6,-29.37 1232.9,-20.88 1024.71,-19.3"/>
<polygon fill="black" stroke="black" points="1024.68,-15.8 1014.66,-19.22 1024.63,-22.8 1024.68,-15.8"/>
</g>
<!-- r&#45;rxode -->
<g id="node27" class="node">
<title>r&#45;rxode</title>
<g id="a_node27"><a xlink:href="https://github.com/conda-forge/r-rxode-feedstock/pull/3" xlink:title="r rxode">
<ellipse fill="#31688e" stroke="black" cx="1844.31" cy="-162" rx="45" ry="18"/>
<text text-anchor="middle" x="1844.31" y="-158.3" font-family="Times,serif" font-size="14.00" fill="white">r rxode</text>
</a>
</g>
</g>
<!-- r&#45;rxode&#45;&gt;conda&#45;forge&#45;pinning -->
<g id="edge51" class="edge">
<title>r&#45;rxode&#45;&gt;conda&#45;forge&#45;pinning</title>
<path fill="none" stroke="black" d="M1831.92,-144.66C1813.79,-121.28 1780.36,-80.18 1763.31,-72 1698.28,-40.81 1239.53,-26.41 1023.42,-21.3"/>
<polygon fill="black" stroke="black" points="1023.39,-17.8 1013.31,-21.06 1023.23,-24.79 1023.39,-17.8"/>
</g>
<!-- r&#45;nlmixr -->
<g id="node28" class="node">
<title>r&#45;nlmixr</title>
<g id="a_node28"><a xlink:href="https://github.com/conda-forge/r-nlmixr-feedstock" xlink:title="r nlmixr">
<ellipse fill="#fde725" stroke="black" cx="1865.31" cy="-90" rx="50.09" ry="18"/>
<text text-anchor="middle" x="1865.31" y="-86.3" font-family="Times,serif" font-size="14.00">r nlmixr</text>
</a>
</g>
</g>
<!-- r&#45;rxode&#45;&gt;r&#45;nlmixr -->
<g id="edge52" class="edge">
<title>r&#45;rxode&#45;&gt;r&#45;nlmixr</title>
<path fill="none" stroke="black" d="M1849.4,-144.05C1851.73,-136.26 1854.57,-126.82 1857.19,-118.08"/>
<polygon fill="black" stroke="black" points="1860.61,-118.86 1860.13,-108.28 1853.9,-116.85 1860.61,-118.86"/>
</g>
<!-- r&#45;nlmixr&#45;&gt;conda&#45;forge&#45;pinning -->
<g id="edge53" class="edge">
<title>r&#45;nlmixr&#45;&gt;conda&#45;forge&#45;pinning</title>
<path fill="none" stroke="black" d="M1828.36,-77.84C1819.57,-75.56 1810.17,-73.42 1801.31,-72 1525,-27.54 1195.04,-19.44 1025.04,-18.52"/>
<polygon fill="black" stroke="black" points="1024.84,-15.02 1014.83,-18.48 1024.81,-22.02 1024.84,-15.02"/>
</g>
<!-- r&#45;glmpca -->
<g id="node29" class="node">
<title>r&#45;glmpca</title>
<g id="a_node29"><a xlink:href="https://github.com/conda-forge/r-glmpca-feedstock/pull/1" xlink:title="r glmpca">
<ellipse fill="#31688e" stroke="black" cx="1943.31" cy="-306" rx="50.09" ry="18"/>
<text text-anchor="middle" x="1943.31" y="-302.3" font-family="Times,serif" font-size="14.00" fill="white">r glmpca</text>
</a>
</g>
</g>
<!-- r&#45;glmpca&#45;&gt;conda&#45;forge&#45;pinning -->
<g id="edge54" class="edge">
<title>r&#45;glmpca&#45;&gt;conda&#45;forge&#45;pinning</title>
<path fill="none" stroke="black" d="M1948.46,-287.84C1960.28,-244.51 1983.99,-129.97 1924.31,-72 1892.45,-41.05 1281.33,-25.96 1024.01,-20.96"/>
<polygon fill="black" stroke="black" points="1023.95,-17.46 1013.89,-20.76 1023.82,-24.46 1023.95,-17.46"/>
</g>
</g>
</svg>
