<?xml version="1.0" encoding="UTF-8" standalone="no"?>
<!DOCTYPE svg PUBLIC "-//W3C//DTD SVG 1.1//EN"
 "http://www.w3.org/Graphics/SVG/1.1/DTD/svg11.dtd">
<!-- Generated by graphviz version 2.42.3 (20191010.1750)
 -->
<!-- Title: %3 Pages: 1 -->
<svg width="2543pt" height="476pt"
 viewBox="0.00 0.00 2542.94 476.00" xmlns="http://www.w3.org/2000/svg" xmlns:xlink="http://www.w3.org/1999/xlink">
<g id="graph0" class="graph" transform="scale(1 1) rotate(0) translate(4 472)">
<title>%3</title>
<polygon fill="white" stroke="transparent" points="-4,4 -4,-472 2538.94,-472 2538.94,4 -4,4"/>
<!-- r&#45;fst -->
<g id="node1" class="node">
<title>r&#45;fst</title>
<g id="a_node1"><a xlink:href="https://github.com/conda-forge/r-fst-feedstock/pull/11" xlink:title="r fst">
<ellipse fill="#31688e" stroke="black" cx="38.4" cy="-162" rx="35.19" ry="18"/>
<text text-anchor="middle" x="38.4" y="-158.3" font-family="Times,serif" font-size="14.00" fill="white">r fst</text>
</a>
</g>
</g>
<!-- r&#45;disk.frame -->
<g id="node2" class="node">
<title>r&#45;disk.frame</title>
<g id="a_node2"><a xlink:href="https://github.com/conda-forge/r-disk.frame-feedstock" xlink:title="r disk frame">
<ellipse fill="#fde725" stroke="black" cx="87.4" cy="-90" rx="69.59" ry="18"/>
<text text-anchor="middle" x="87.4" y="-86.3" font-family="Times,serif" font-size="14.00">r disk frame</text>
</a>
</g>
</g>
<!-- r&#45;fst&#45;&gt;r&#45;disk.frame -->
<g id="edge1" class="edge">
<title>r&#45;fst&#45;&gt;r&#45;disk.frame</title>
<path fill="none" stroke="black" d="M49.76,-144.76C55.65,-136.35 62.97,-125.89 69.59,-116.44"/>
<polygon fill="black" stroke="black" points="72.54,-118.32 75.41,-108.12 66.81,-114.31 72.54,-118.32"/>
</g>
<!-- conda&#45;forge&#45;pinning -->
<g id="node3" class="node">
<title>conda&#45;forge&#45;pinning</title>
<ellipse fill="none" stroke="black" cx="1173.4" cy="-18" rx="103.5" ry="18"/>
<text text-anchor="middle" x="1173.4" y="-14.3" font-family="Times,serif" font-size="14.00">conda&#45;forge&#45;pinning</text>
</g>
<!-- r&#45;fst&#45;&gt;conda&#45;forge&#45;pinning -->
<g id="edge2" class="edge">
<title>r&#45;fst&#45;&gt;conda&#45;forge&#45;pinning</title>
<path fill="none" stroke="black" d="M24.57,-145.09C9.22,-125.48 -10.98,-92.28 8.4,-72 44.34,-34.38 773.88,-23 1059.83,-19.98"/>
<polygon fill="black" stroke="black" points="1060.26,-23.48 1070.22,-19.87 1060.19,-16.48 1060.26,-23.48"/>
</g>
<!-- r&#45;disk.frame&#45;&gt;conda&#45;forge&#45;pinning -->
<g id="edge3" class="edge">
<title>r&#45;disk.frame&#45;&gt;conda&#45;forge&#45;pinning</title>
<path fill="none" stroke="black" d="M137.83,-77.54C148.85,-75.39 160.47,-73.39 171.4,-72 491.9,-31.31 873.92,-21.76 1060.1,-19.59"/>
<polygon fill="black" stroke="black" points="1060.22,-23.09 1070.18,-19.47 1060.14,-16.09 1060.22,-23.09"/>
</g>
<!-- r&#45;hive -->
<g id="node4" class="node">
<title>r&#45;hive</title>
<g id="a_node4"><a xlink:href="https://github.com/conda-forge/r-hive-feedstock" xlink:title="r hive">
<ellipse fill="#fde725" stroke="black" cx="1326.4" cy="-378" rx="40.5" ry="18"/>
<text text-anchor="middle" x="1326.4" y="-374.3" font-family="Times,serif" font-size="14.00">r hive</text>
</a>
</g>
</g>
<!-- r&#45;hive&#45;&gt;conda&#45;forge&#45;pinning -->
<g id="edge4" class="edge">
<title>r&#45;hive&#45;&gt;conda&#45;forge&#45;pinning</title>
<path fill="none" stroke="black" d="M1319.25,-360.12C1299.68,-313.95 1243.59,-181.72 1196.4,-72 1192.69,-63.39 1188.63,-54 1184.96,-45.56"/>
<polygon fill="black" stroke="black" points="1188.08,-43.95 1180.88,-36.17 1181.66,-46.74 1188.08,-43.95"/>
</g>
<!-- r&#45;rjava -->
<g id="node5" class="node">
<title>r&#45;rjava</title>
<g id="a_node5"><a xlink:href="https://github.com/conda-forge/r-rjava-feedstock" xlink:title="r rjava">
<ellipse fill="#35b779" stroke="black" cx="881.4" cy="-450" rx="45" ry="18"/>
<text text-anchor="middle" x="881.4" y="-446.3" font-family="Times,serif" font-size="14.00">r rjava</text>
</a>
</g>
</g>
<!-- r&#45;rjava&#45;&gt;conda&#45;forge&#45;pinning -->
<g id="edge5" class="edge">
<title>r&#45;rjava&#45;&gt;conda&#45;forge&#45;pinning</title>
<path fill="none" stroke="black" d="M926.32,-447.54C1042.46,-443.3 1345.64,-429.12 1375.4,-396 1447.3,-315.97 1656.57,-710.39 1218.4,-72 1211.7,-62.25 1203.54,-52.19 1196.01,-43.5"/>
<polygon fill="black" stroke="black" points="1198.58,-41.12 1189.34,-35.95 1193.34,-45.76 1198.58,-41.12"/>
</g>
<!-- r&#45;rjava&#45;&gt;r&#45;hive -->
<g id="edge6" class="edge">
<title>r&#45;rjava&#45;&gt;r&#45;hive</title>
<path fill="none" stroke="black" d="M925.45,-445.9C998.95,-440.1 1150.94,-425.45 1276.4,-396 1279.8,-395.2 1283.3,-394.26 1286.8,-393.24"/>
<polygon fill="black" stroke="black" points="1288.02,-396.53 1296.53,-390.21 1285.94,-389.84 1288.02,-396.53"/>
</g>
<!-- r&#45;xlsx -->
<g id="node6" class="node">
<title>r&#45;xlsx</title>
<g id="a_node6"><a xlink:href="https://github.com/conda-forge/r-xlsx-feedstock" xlink:title="r xlsx">
<ellipse fill="#fde725" stroke="black" cx="440.4" cy="-306" rx="40.5" ry="18"/>
<text text-anchor="middle" x="440.4" y="-302.3" font-family="Times,serif" font-size="14.00">r xlsx</text>
</a>
</g>
</g>
<!-- r&#45;rjava&#45;&gt;r&#45;xlsx -->
<g id="edge7" class="edge">
<title>r&#45;rjava&#45;&gt;r&#45;xlsx</title>
<path fill="none" stroke="black" d="M836.82,-447.47C748.03,-443.7 552.88,-431.5 497.4,-396 474.55,-381.38 459.08,-353.97 450.09,-333.42"/>
<polygon fill="black" stroke="black" points="453.24,-331.88 446.19,-323.96 446.77,-334.54 453.24,-331.88"/>
</g>
<!-- r&#45;xlsxjars -->
<g id="node7" class="node">
<title>r&#45;xlsxjars</title>
<g id="a_node7"><a xlink:href="https://github.com/conda-forge/r-xlsxjars-feedstock" xlink:title="r xlsxjars">
<ellipse fill="#fde725" stroke="black" cx="385.4" cy="-378" rx="60" ry="18"/>
<text text-anchor="middle" x="385.4" y="-374.3" font-family="Times,serif" font-size="14.00">r xlsxjars</text>
</a>
</g>
</g>
<!-- r&#45;rjava&#45;&gt;r&#45;xlsxjars -->
<g id="edge8" class="edge">
<title>r&#45;rjava&#45;&gt;r&#45;xlsxjars</title>
<path fill="none" stroke="black" d="M838.05,-445.01C761.34,-437.63 596.81,-420.35 459.4,-396 453.18,-394.9 446.7,-393.61 440.27,-392.25"/>
<polygon fill="black" stroke="black" points="440.77,-388.78 430.25,-390.07 439.27,-395.62 440.77,-388.78"/>
</g>
<!-- r&#45;xlconnectjars -->
<g id="node8" class="node">
<title>r&#45;xlconnectjars</title>
<g id="a_node8"><a xlink:href="https://github.com/conda-forge/r-xlconnectjars-feedstock" xlink:title="r xlconnectjars">
<ellipse fill="#fde725" stroke="black" cx="185.4" cy="-378" rx="84" ry="18"/>
<text text-anchor="middle" x="185.4" y="-374.3" font-family="Times,serif" font-size="14.00">r xlconnectjars</text>
</a>
</g>
</g>
<!-- r&#45;rjava&#45;&gt;r&#45;xlconnectjars -->
<g id="edge9" class="edge">
<title>r&#45;rjava&#45;&gt;r&#45;xlconnectjars</title>
<path fill="none" stroke="black" d="M837,-446.34C737.57,-440.09 489.57,-422.97 283.4,-396 274.69,-394.86 265.57,-393.5 256.55,-392.06"/>
<polygon fill="black" stroke="black" points="256.87,-388.57 246.44,-390.4 255.74,-395.47 256.87,-388.57"/>
</g>
<!-- r&#45;xlconnect -->
<g id="node9" class="node">
<title>r&#45;xlconnect</title>
<g id="a_node9"><a xlink:href="https://github.com/conda-forge/r-xlconnect-feedstock" xlink:title="r xlconnect">
<ellipse fill="#fde725" stroke="black" cx="278.4" cy="-306" rx="64.5" ry="18"/>
<text text-anchor="middle" x="278.4" y="-302.3" font-family="Times,serif" font-size="14.00">r xlconnect</text>
</a>
</g>
</g>
<!-- r&#45;rjava&#45;&gt;r&#45;xlconnect -->
<g id="edge10" class="edge">
<title>r&#45;rjava&#45;&gt;r&#45;xlconnect</title>
<path fill="none" stroke="black" d="M836.82,-447.42C710.77,-442.58 358.13,-426.45 316.4,-396 296.63,-381.58 287.06,-354.77 282.48,-334.33"/>
<polygon fill="black" stroke="black" points="285.87,-333.46 280.51,-324.32 279,-334.81 285.87,-333.46"/>
</g>
<!-- r&#45;rcdklibs -->
<g id="node10" class="node">
<title>r&#45;rcdklibs</title>
<g id="a_node10"><a xlink:href="https://github.com/conda-forge/r-rcdklibs-feedstock" xlink:title="r rcdklibs">
<ellipse fill="#fde725" stroke="black" cx="616.4" cy="-378" rx="60" ry="18"/>
<text text-anchor="middle" x="616.4" y="-374.3" font-family="Times,serif" font-size="14.00">r rcdklibs</text>
</a>
</g>
</g>
<!-- r&#45;rjava&#45;&gt;r&#45;rcdklibs -->
<g id="edge11" class="edge">
<title>r&#45;rjava&#45;&gt;r&#45;rcdklibs</title>
<path fill="none" stroke="black" d="M844.83,-439.34C799.47,-427.36 721.8,-406.84 669.79,-393.1"/>
<polygon fill="black" stroke="black" points="670.63,-389.71 660.07,-390.54 668.84,-396.47 670.63,-389.71"/>
</g>
<!-- r&#45;rcdk -->
<g id="node11" class="node">
<title>r&#45;rcdk</title>
<g id="a_node11"><a xlink:href="https://github.com/conda-forge/r-rcdk-feedstock" xlink:title="r rcdk">
<ellipse fill="#fde725" stroke="black" cx="616.4" cy="-306" rx="40.5" ry="18"/>
<text text-anchor="middle" x="616.4" y="-302.3" font-family="Times,serif" font-size="14.00">r rcdk</text>
</a>
</g>
</g>
<!-- r&#45;rjava&#45;&gt;r&#45;rcdk -->
<g id="edge12" class="edge">
<title>r&#45;rjava&#45;&gt;r&#45;rcdk</title>
<path fill="none" stroke="black" d="M855.5,-435.13C807.34,-409.32 704.02,-353.95 650.34,-325.19"/>
<polygon fill="black" stroke="black" points="651.7,-321.95 641.23,-320.31 648.39,-328.12 651.7,-321.95"/>
</g>
<!-- r&#45;rchoicedialogs -->
<g id="node12" class="node">
<title>r&#45;rchoicedialogs</title>
<g id="a_node12"><a xlink:href="https://github.com/conda-forge/r-rchoicedialogs-feedstock" xlink:title="r rchoicedialogs">
<ellipse fill="#fde725" stroke="black" cx="764.4" cy="-306" rx="89.08" ry="18"/>
<text text-anchor="middle" x="764.4" y="-302.3" font-family="Times,serif" font-size="14.00">r rchoicedialogs</text>
</a>
</g>
</g>
<!-- r&#45;rjava&#45;&gt;r&#45;rchoicedialogs -->
<g id="edge13" class="edge">
<title>r&#45;rjava&#45;&gt;r&#45;rchoicedialogs</title>
<path fill="none" stroke="black" d="M867.97,-432.71C847.65,-408.05 808.91,-361.03 785,-332.01"/>
<polygon fill="black" stroke="black" points="787.45,-329.47 778.39,-323.98 782.04,-333.92 787.45,-329.47"/>
</g>
<!-- r&#45;rwekajars -->
<g id="node13" class="node">
<title>r&#45;rwekajars</title>
<g id="a_node13"><a xlink:href="https://github.com/conda-forge/r-rwekajars-feedstock" xlink:title="r rwekajars">
<ellipse fill="#fde725" stroke="black" cx="776.4" cy="-234" rx="64.5" ry="18"/>
<text text-anchor="middle" x="776.4" y="-230.3" font-family="Times,serif" font-size="14.00">r rwekajars</text>
</a>
</g>
</g>
<!-- r&#45;rjava&#45;&gt;r&#45;rwekajars -->
<g id="edge14" class="edge">
<title>r&#45;rjava&#45;&gt;r&#45;rwekajars</title>
<path fill="none" stroke="black" d="M883.94,-431.9C887.66,-400.63 891.31,-333.32 862.4,-288 852.94,-273.19 837.71,-261.85 822.68,-253.54"/>
<polygon fill="black" stroke="black" points="823.89,-250.22 813.4,-248.75 820.68,-256.44 823.89,-250.22"/>
</g>
<!-- r&#45;rweka -->
<g id="node14" class="node">
<title>r&#45;rweka</title>
<g id="a_node14"><a xlink:href="https://github.com/conda-forge/r-rweka-feedstock" xlink:title="r rweka">
<ellipse fill="#fde725" stroke="black" cx="829.4" cy="-162" rx="45" ry="18"/>
<text text-anchor="middle" x="829.4" y="-158.3" font-family="Times,serif" font-size="14.00">r rweka</text>
</a>
</g>
</g>
<!-- r&#45;rjava&#45;&gt;r&#45;rweka -->
<g id="edge15" class="edge">
<title>r&#45;rjava&#45;&gt;r&#45;rweka</title>
<path fill="none" stroke="black" d="M889.09,-432.22C893.35,-421.99 898.22,-408.52 900.4,-396 903.14,-380.24 902.14,-375.9 900.4,-360 896.82,-327.42 894.6,-319.15 884.4,-288 872.86,-252.79 854.92,-214 842.68,-189.11"/>
<polygon fill="black" stroke="black" points="845.73,-187.37 838.14,-179.97 839.46,-190.48 845.73,-187.37"/>
</g>
<!-- r&#45;subspace -->
<g id="node15" class="node">
<title>r&#45;subspace</title>
<g id="a_node15"><a xlink:href="https://github.com/conda-forge/r-subspace-feedstock" xlink:title="r subspace">
<ellipse fill="#fde725" stroke="black" cx="957.4" cy="-234" rx="60" ry="18"/>
<text text-anchor="middle" x="957.4" y="-230.3" font-family="Times,serif" font-size="14.00">r subspace</text>
</a>
</g>
</g>
<!-- r&#45;rjava&#45;&gt;r&#45;subspace -->
<g id="edge16" class="edge">
<title>r&#45;rjava&#45;&gt;r&#45;subspace</title>
<path fill="none" stroke="black" d="M901.62,-433.8C912.84,-424.23 925.98,-410.89 933.4,-396 954.9,-352.81 958.39,-295.64 958.34,-262.33"/>
<polygon fill="black" stroke="black" points="961.83,-261.95 958.2,-252 954.83,-262.05 961.83,-261.95"/>
</g>
<!-- r&#45;rmcfs -->
<g id="node16" class="node">
<title>r&#45;rmcfs</title>
<g id="a_node16"><a xlink:href="https://github.com/conda-forge/r-rmcfs-feedstock" xlink:title="r rmcfs">
<ellipse fill="#fde725" stroke="black" cx="1020.4" cy="-162" rx="45" ry="18"/>
<text text-anchor="middle" x="1020.4" y="-158.3" font-family="Times,serif" font-size="14.00">r rmcfs</text>
</a>
</g>
</g>
<!-- r&#45;rjava&#45;&gt;r&#45;rmcfs -->
<g id="edge17" class="edge">
<title>r&#45;rjava&#45;&gt;r&#45;rmcfs</title>
<path fill="none" stroke="black" d="M906.78,-434.84C922.04,-425.37 941.03,-411.77 954.4,-396 1000.67,-341.42 1009.96,-321.64 1026.4,-252 1031.22,-231.56 1029.25,-207.8 1026.33,-189.97"/>
<polygon fill="black" stroke="black" points="1029.74,-189.18 1024.49,-179.98 1022.86,-190.44 1029.74,-189.18"/>
</g>
<!-- r&#45;rjdbc -->
<g id="node17" class="node">
<title>r&#45;rjdbc</title>
<g id="a_node17"><a xlink:href="https://github.com/conda-forge/r-rjdbc-feedstock" xlink:title="r rjdbc">
<ellipse fill="#fde725" stroke="black" cx="1062.4" cy="-90" rx="45" ry="18"/>
<text text-anchor="middle" x="1062.4" y="-86.3" font-family="Times,serif" font-size="14.00">r rjdbc</text>
</a>
</g>
</g>
<!-- r&#45;rjava&#45;&gt;r&#45;rjdbc -->
<g id="edge18" class="edge">
<title>r&#45;rjava&#45;&gt;r&#45;rjdbc</title>
<path fill="none" stroke="black" d="M914.67,-437.59C936.11,-428.89 963.43,-415.12 982.4,-396 1017.17,-360.93 1073.21,-186.45 1074.4,-180 1078.19,-159.43 1074.71,-135.98 1070.54,-118.31"/>
<polygon fill="black" stroke="black" points="1073.8,-116.95 1067.91,-108.14 1067.03,-118.7 1073.8,-116.95"/>
</g>
<!-- r&#45;tabulizer -->
<g id="node18" class="node">
<title>r&#45;tabulizer</title>
<g id="a_node18"><a xlink:href="https://github.com/conda-forge/r-tabulizer-feedstock" xlink:title="r tabulizer">
<ellipse fill="#fde725" stroke="black" cx="1126.4" cy="-306" rx="64.5" ry="18"/>
<text text-anchor="middle" x="1126.4" y="-302.3" font-family="Times,serif" font-size="14.00">r tabulizer</text>
</a>
</g>
</g>
<!-- r&#45;rjava&#45;&gt;r&#45;tabulizer -->
<g id="edge19" class="edge">
<title>r&#45;rjava&#45;&gt;r&#45;tabulizer</title>
<path fill="none" stroke="black" d="M922.24,-442.28C957.56,-435.06 1008.86,-421.08 1047.4,-396 1073.04,-379.31 1095.45,-352.15 1109.79,-332.21"/>
<polygon fill="black" stroke="black" points="1112.74,-334.1 1115.61,-323.9 1107.01,-330.08 1112.74,-334.1"/>
</g>
<!-- r&#45;tabulizerjars -->
<g id="node19" class="node">
<title>r&#45;tabulizerjars</title>
<g id="a_node19"><a xlink:href="https://github.com/conda-forge/r-tabulizerjars-feedstock" xlink:title="r tabulizerjars">
<ellipse fill="#fde725" stroke="black" cx="1183.4" cy="-378" rx="84" ry="18"/>
<text text-anchor="middle" x="1183.4" y="-374.3" font-family="Times,serif" font-size="14.00">r tabulizerjars</text>
</a>
</g>
</g>
<!-- r&#45;rjava&#45;&gt;r&#45;tabulizerjars -->
<g id="edge20" class="edge">
<title>r&#45;rjava&#45;&gt;r&#45;tabulizerjars</title>
<path fill="none" stroke="black" d="M919.34,-440.21C969.31,-428.62 1057.94,-408.08 1118.62,-394.01"/>
<polygon fill="black" stroke="black" points="1119.53,-397.4 1128.48,-391.73 1117.95,-390.58 1119.53,-397.4"/>
</g>
<!-- r&#45;destinie -->
<g id="node20" class="node">
<title>r&#45;destinie</title>
<g id="a_node20"><a xlink:href="https://github.com/conda-forge/r-destinie-feedstock" xlink:title="r destinie">
<ellipse fill="#fde725" stroke="black" cx="503.4" cy="-234" rx="60" ry="18"/>
<text text-anchor="middle" x="503.4" y="-230.3" font-family="Times,serif" font-size="14.00">r destinie</text>
</a>
</g>
</g>
<!-- r&#45;rjava&#45;&gt;r&#45;destinie -->
<g id="edge21" class="edge">
<title>r&#45;rjava&#45;&gt;r&#45;destinie</title>
<path fill="none" stroke="black" d="M836.45,-447.75C755.39,-444.56 589.26,-433.52 547.4,-396 509.46,-362 502.88,-298.76 502.48,-262.49"/>
<polygon fill="black" stroke="black" points="505.98,-262.17 502.52,-252.15 498.98,-262.14 505.98,-262.17"/>
</g>
<!-- r&#45;xlsx&#45;&gt;conda&#45;forge&#45;pinning -->
<g id="edge22" class="edge">
<title>r&#45;xlsx&#45;&gt;conda&#45;forge&#45;pinning</title>
<path fill="none" stroke="black" d="M435.54,-288.12C431.12,-269.86 426.42,-240.11 434.4,-216 459.44,-140.3 471.72,-110.76 541.4,-72 585.77,-47.31 894.39,-30.68 1063.37,-23.32"/>
<polygon fill="black" stroke="black" points="1063.71,-26.81 1073.55,-22.88 1063.4,-19.81 1063.71,-26.81"/>
</g>
<!-- r&#45;xlsx&#45;&gt;r&#45;destinie -->
<g id="edge23" class="edge">
<title>r&#45;xlsx&#45;&gt;r&#45;destinie</title>
<path fill="none" stroke="black" d="M454.69,-289.12C462.6,-280.33 472.59,-269.23 481.46,-259.37"/>
<polygon fill="black" stroke="black" points="484.19,-261.57 488.28,-251.8 478.99,-256.89 484.19,-261.57"/>
</g>
<!-- r&#45;xlsxjars&#45;&gt;conda&#45;forge&#45;pinning -->
<g id="edge24" class="edge">
<title>r&#45;xlsxjars&#45;&gt;conda&#45;forge&#45;pinning</title>
<path fill="none" stroke="black" d="M382.63,-360C378.55,-333.42 371.4,-280.33 371.4,-235 371.4,-235 371.4,-235 371.4,-161 371.4,-96.02 426.71,-95.24 487.4,-72 588.92,-33.11 892.91,-22.73 1060.11,-19.98"/>
<polygon fill="black" stroke="black" points="1060.23,-23.48 1070.18,-19.82 1060.12,-16.48 1060.23,-23.48"/>
</g>
<!-- r&#45;xlsxjars&#45;&gt;r&#45;xlsx -->
<g id="edge25" class="edge">
<title>r&#45;xlsxjars&#45;&gt;r&#45;xlsx</title>
<path fill="none" stroke="black" d="M398.43,-360.41C405.21,-351.78 413.63,-341.06 421.15,-331.5"/>
<polygon fill="black" stroke="black" points="424.03,-333.5 427.46,-323.47 418.52,-329.17 424.03,-333.5"/>
</g>
<!-- r&#45;xlconnectjars&#45;&gt;conda&#45;forge&#45;pinning -->
<g id="edge26" class="edge">
<title>r&#45;xlconnectjars&#45;&gt;conda&#45;forge&#45;pinning</title>
<path fill="none" stroke="black" d="M185.4,-359.95C185.4,-333.29 185.4,-280.11 185.4,-235 185.4,-235 185.4,-235 185.4,-161 185.4,-88.39 253.45,-94.78 322.4,-72 455.97,-27.86 860.31,-20.05 1059.72,-18.95"/>
<polygon fill="black" stroke="black" points="1059.95,-22.45 1069.93,-18.9 1059.91,-15.45 1059.95,-22.45"/>
</g>
<!-- r&#45;xlconnectjars&#45;&gt;r&#45;xlconnect -->
<g id="edge27" class="edge">
<title>r&#45;xlconnectjars&#45;&gt;r&#45;xlconnect</title>
<path fill="none" stroke="black" d="M207.44,-360.41C219.8,-351.1 235.39,-339.37 248.81,-329.27"/>
<polygon fill="black" stroke="black" points="250.95,-332.04 256.84,-323.23 246.74,-326.45 250.95,-332.04"/>
</g>
<!-- r&#45;xlconnect&#45;&gt;conda&#45;forge&#45;pinning -->
<g id="edge28" class="edge">
<title>r&#45;xlconnect&#45;&gt;conda&#45;forge&#45;pinning</title>
<path fill="none" stroke="black" d="M278.27,-287.94C278.97,-243.79 287.58,-125.56 357.4,-72 411.77,-30.29 848.34,-21.35 1059.63,-19.47"/>
<polygon fill="black" stroke="black" points="1059.85,-22.97 1069.82,-19.39 1059.79,-15.97 1059.85,-22.97"/>
</g>
<!-- r&#45;rcdklibs&#45;&gt;conda&#45;forge&#45;pinning -->
<g id="edge29" class="edge">
<title>r&#45;rcdklibs&#45;&gt;conda&#45;forge&#45;pinning</title>
<path fill="none" stroke="black" d="M595.1,-361.11C584.29,-351.68 572.23,-338.7 566.4,-324 560.49,-309.13 562.59,-303.54 566.4,-288 592.26,-182.36 590.75,-132.1 681.4,-72 741.48,-32.16 934.24,-21.78 1059.89,-19.35"/>
<polygon fill="black" stroke="black" points="1060.01,-22.85 1069.95,-19.17 1059.89,-15.85 1060.01,-22.85"/>
</g>
<!-- r&#45;rcdklibs&#45;&gt;r&#45;rcdk -->
<g id="edge30" class="edge">
<title>r&#45;rcdklibs&#45;&gt;r&#45;rcdk</title>
<path fill="none" stroke="black" d="M616.4,-359.7C616.4,-351.98 616.4,-342.71 616.4,-334.11"/>
<polygon fill="black" stroke="black" points="619.9,-334.1 616.4,-324.1 612.9,-334.1 619.9,-334.1"/>
</g>
<!-- r&#45;rcdk&#45;&gt;conda&#45;forge&#45;pinning -->
<g id="edge31" class="edge">
<title>r&#45;rcdk&#45;&gt;conda&#45;forge&#45;pinning</title>
<path fill="none" stroke="black" d="M618.26,-288C624.06,-243.99 646.07,-126.07 719.4,-72 771.8,-33.36 943.55,-22.48 1060.12,-19.65"/>
<polygon fill="black" stroke="black" points="1060.25,-23.15 1070.17,-19.42 1060.1,-16.15 1060.25,-23.15"/>
</g>
<!-- r&#45;rchoicedialogs&#45;&gt;conda&#45;forge&#45;pinning -->
<g id="edge32" class="edge">
<title>r&#45;rchoicedialogs&#45;&gt;conda&#45;forge&#45;pinning</title>
<path fill="none" stroke="black" d="M736.19,-288.86C723.34,-279.83 709.45,-267.3 702.4,-252 675.17,-192.91 711.21,-105.97 753.4,-72 799.21,-35.1 951.97,-23.63 1060,-20.21"/>
<polygon fill="black" stroke="black" points="1060.42,-23.7 1070.31,-19.9 1060.21,-16.7 1060.42,-23.7"/>
</g>
<!-- r&#45;rwekajars&#45;&gt;conda&#45;forge&#45;pinning -->
<g id="edge33" class="edge">
<title>r&#45;rwekajars&#45;&gt;conda&#45;forge&#45;pinning</title>
<path fill="none" stroke="black" d="M769.63,-215.92C758.04,-183.48 738.85,-112.58 774.4,-72 793.54,-50.15 956.2,-34.32 1067.83,-25.91"/>
<polygon fill="black" stroke="black" points="1068.42,-29.38 1078.13,-25.14 1067.9,-22.4 1068.42,-29.38"/>
</g>
<!-- r&#45;rwekajars&#45;&gt;r&#45;rweka -->
<g id="edge34" class="edge">
<title>r&#45;rwekajars&#45;&gt;r&#45;rweka</title>
<path fill="none" stroke="black" d="M789.23,-216.05C795.61,-207.63 803.44,-197.28 810.49,-187.97"/>
<polygon fill="black" stroke="black" points="813.44,-189.87 816.68,-179.79 807.86,-185.65 813.44,-189.87"/>
</g>
<!-- r&#45;rweka&#45;&gt;conda&#45;forge&#45;pinning -->
<g id="edge35" class="edge">
<title>r&#45;rweka&#45;&gt;conda&#45;forge&#45;pinning</title>
<path fill="none" stroke="black" d="M811.37,-145.46C791.54,-126.52 764.92,-94.3 784.4,-72 819.59,-31.69 957.96,-20.89 1059.69,-18.56"/>
<polygon fill="black" stroke="black" points="1059.8,-22.06 1069.73,-18.36 1059.66,-15.06 1059.8,-22.06"/>
</g>
<!-- r&#45;fselector -->
<g id="node21" class="node">
<title>r&#45;fselector</title>
<g id="a_node21"><a xlink:href="https://github.com/conda-forge/r-fselector-feedstock" xlink:title="r fselector">
<ellipse fill="#fde725" stroke="black" cx="858.4" cy="-90" rx="64.5" ry="18"/>
<text text-anchor="middle" x="858.4" y="-86.3" font-family="Times,serif" font-size="14.00">r fselector</text>
</a>
</g>
</g>
<!-- r&#45;rweka&#45;&gt;r&#45;fselector -->
<g id="edge36" class="edge">
<title>r&#45;rweka&#45;&gt;r&#45;fselector</title>
<path fill="none" stroke="black" d="M836.42,-144.05C839.68,-136.18 843.64,-126.62 847.3,-117.79"/>
<polygon fill="black" stroke="black" points="850.64,-118.85 851.24,-108.28 844.18,-116.17 850.64,-118.85"/>
</g>
<!-- r&#45;subspace&#45;&gt;conda&#45;forge&#45;pinning -->
<g id="edge37" class="edge">
<title>r&#45;subspace&#45;&gt;conda&#45;forge&#45;pinning</title>
<path fill="none" stroke="black" d="M955.86,-215.82C953.92,-182.55 954.95,-109.35 996.4,-72 1019.3,-51.36 1049.97,-38.74 1079.33,-31.04"/>
<polygon fill="black" stroke="black" points="1080.35,-34.39 1089.22,-28.61 1078.68,-27.6 1080.35,-34.39"/>
</g>
<!-- r&#45;rmcfs&#45;&gt;conda&#45;forge&#45;pinning -->
<g id="edge38" class="edge">
<title>r&#45;rmcfs&#45;&gt;conda&#45;forge&#45;pinning</title>
<path fill="none" stroke="black" d="M1011.65,-144.18C1002.95,-124.88 992.96,-93.16 1008.4,-72 1024.04,-50.55 1048.49,-37.59 1073.83,-29.82"/>
<polygon fill="black" stroke="black" points="1074.89,-33.15 1083.57,-27.08 1073,-26.42 1074.89,-33.15"/>
</g>
<!-- r&#45;rjdbc&#45;&gt;conda&#45;forge&#45;pinning -->
<g id="edge39" class="edge">
<title>r&#45;rjdbc&#45;&gt;conda&#45;forge&#45;pinning</title>
<path fill="none" stroke="black" d="M1085.4,-74.5C1100.75,-64.81 1121.24,-51.89 1138.58,-40.96"/>
<polygon fill="black" stroke="black" points="1140.72,-43.74 1147.31,-35.45 1136.99,-37.82 1140.72,-43.74"/>
</g>
<!-- r&#45;tabulizer&#45;&gt;conda&#45;forge&#45;pinning -->
<g id="edge40" class="edge">
<title>r&#45;tabulizer&#45;&gt;conda&#45;forge&#45;pinning</title>
<path fill="none" stroke="black" d="M1128.12,-287.93C1132.17,-249.25 1143.2,-152.09 1159.4,-72 1161.12,-63.47 1163.4,-54.28 1165.61,-45.98"/>
<polygon fill="black" stroke="black" points="1169.06,-46.64 1168.34,-36.07 1162.31,-44.78 1169.06,-46.64"/>
</g>
<!-- r&#45;tabulizerjars&#45;&gt;conda&#45;forge&#45;pinning -->
<g id="edge41" class="edge">
<title>r&#45;tabulizerjars&#45;&gt;conda&#45;forge&#45;pinning</title>
<path fill="none" stroke="black" d="M1190.05,-359.63C1193.6,-349.42 1197.6,-336.17 1199.4,-324 1201.73,-308.17 1200.17,-303.98 1199.4,-288 1195.12,-199.34 1182.96,-94.8 1176.91,-46.28"/>
<polygon fill="black" stroke="black" points="1180.37,-45.75 1175.65,-36.27 1173.43,-46.63 1180.37,-45.75"/>
</g>
<!-- r&#45;tabulizerjars&#45;&gt;r&#45;tabulizer -->
<g id="edge42" class="edge">
<title>r&#45;tabulizerjars&#45;&gt;r&#45;tabulizer</title>
<path fill="none" stroke="black" d="M1169.6,-360.05C1162.67,-351.54 1154.14,-341.07 1146.49,-331.68"/>
<polygon fill="black" stroke="black" points="1149.1,-329.33 1140.07,-323.79 1143.67,-333.75 1149.1,-329.33"/>
</g>
<!-- r&#45;destinie&#45;&gt;conda&#45;forge&#45;pinning -->
<g id="edge43" class="edge">
<title>r&#45;destinie&#45;&gt;conda&#45;forge&#45;pinning</title>
<path fill="none" stroke="black" d="M505.65,-215.82C511.1,-181.89 528.38,-106.58 577.4,-72 616.02,-44.76 900.97,-29.46 1062.48,-22.9"/>
<polygon fill="black" stroke="black" points="1063.08,-26.37 1072.93,-22.48 1062.8,-19.38 1063.08,-26.37"/>
</g>
<!-- r&#45;fselector&#45;&gt;conda&#45;forge&#45;pinning -->
<g id="edge49" class="edge">
<title>r&#45;fselector&#45;&gt;conda&#45;forge&#45;pinning</title>
<path fill="none" stroke="black" d="M907.27,-78.14C959.46,-66.54 1042.68,-48.05 1102.17,-34.83"/>
<polygon fill="black" stroke="black" points="1103.24,-38.18 1112.24,-32.59 1101.72,-31.34 1103.24,-38.18"/>
</g>
<!-- rpy2 -->
<g id="node22" class="node">
<title>rpy2</title>
<g id="a_node22"><a xlink:href="https://github.com/conda-forge/rpy2-feedstock/pull/55" xlink:title="rpy2">
<ellipse fill="#31688e" stroke="black" cx="1383.4" cy="-162" rx="30.59" ry="18"/>
<text text-anchor="middle" x="1383.4" y="-158.3" font-family="Times,serif" font-size="14.00" fill="white">rpy2</text>
</a>
</g>
</g>
<!-- rpy2&#45;&gt;conda&#45;forge&#45;pinning -->
<g id="edge44" class="edge">
<title>rpy2&#45;&gt;conda&#45;forge&#45;pinning</title>
<path fill="none" stroke="black" d="M1363.41,-148.31C1347.4,-137.92 1324.52,-122.62 1305.4,-108 1285.86,-93.07 1283.4,-86.29 1263.4,-72 1247.61,-60.72 1229.3,-49.61 1213.33,-40.5"/>
<polygon fill="black" stroke="black" points="1214.66,-37.24 1204.23,-35.38 1211.23,-43.33 1214.66,-37.24"/>
</g>
<!-- iterativewgcna -->
<g id="node23" class="node">
<title>iterativewgcna</title>
<g id="a_node23"><a xlink:href="https://github.com/conda-forge/iterativewgcna-feedstock" xlink:title="iterativewgcna">
<ellipse fill="#fde725" stroke="black" cx="1394.4" cy="-90" rx="79.5" ry="18"/>
<text text-anchor="middle" x="1394.4" y="-86.3" font-family="Times,serif" font-size="14.00">iterativewgcna</text>
</a>
</g>
</g>
<!-- rpy2&#45;&gt;iterativewgcna -->
<g id="edge45" class="edge">
<title>rpy2&#45;&gt;iterativewgcna</title>
<path fill="none" stroke="black" d="M1386.06,-144.05C1387.27,-136.35 1388.73,-127.03 1390.1,-118.36"/>
<polygon fill="black" stroke="black" points="1393.59,-118.7 1391.68,-108.28 1386.67,-117.61 1393.59,-118.7"/>
</g>
<!-- iterativewgcna&#45;&gt;conda&#45;forge&#45;pinning -->
<g id="edge46" class="edge">
<title>iterativewgcna&#45;&gt;conda&#45;forge&#45;pinning</title>
<path fill="none" stroke="black" d="M1350.2,-75C1315.86,-64.13 1267.96,-48.95 1230.68,-37.14"/>
<polygon fill="black" stroke="black" points="1231.54,-33.75 1220.95,-34.06 1229.43,-40.42 1231.54,-33.75"/>
</g>
<!-- r&#45;rvaidememoire -->
<g id="node24" class="node">
<title>r&#45;rvaidememoire</title>
<g id="a_node24"><a xlink:href="https://github.com/conda-forge/r-rvaidememoire-feedstock" xlink:title="r rvaidememoire">
<ellipse fill="#35b779" stroke="black" cx="1575.4" cy="-90" rx="84" ry="18"/>
<text text-anchor="middle" x="1575.4" y="-86.3" font-family="Times,serif" font-size="14.00">r rvaidememoire</text>
</a>
</g>
</g>
<!-- r&#45;rvaidememoire&#45;&gt;conda&#45;forge&#45;pinning -->
<g id="edge47" class="edge">
<title>r&#45;rvaidememoire&#45;&gt;conda&#45;forge&#45;pinning</title>
<path fill="none" stroke="black" d="M1513.88,-77.66C1503.38,-75.75 1492.58,-73.8 1482.4,-72 1405.35,-58.35 1317.41,-43.32 1255.09,-32.76"/>
<polygon fill="black" stroke="black" points="1255.37,-29.26 1244.93,-31.04 1254.2,-36.16 1255.37,-29.26"/>
</g>
<!-- r&#45;hiver -->
<g id="node25" class="node">
<title>r&#45;hiver</title>
<g id="a_node25"><a xlink:href="https://github.com/conda-forge/r-hiver-feedstock" xlink:title="r hiver">
<ellipse fill="#35b779" stroke="black" cx="1652.4" cy="-162" rx="45" ry="18"/>
<text text-anchor="middle" x="1652.4" y="-158.3" font-family="Times,serif" font-size="14.00">r hiver</text>
</a>
</g>
</g>
<!-- r&#45;hiver&#45;&gt;conda&#45;forge&#45;pinning -->
<g id="edge48" class="edge">
<title>r&#45;hiver&#45;&gt;conda&#45;forge&#45;pinning</title>
<path fill="none" stroke="black" d="M1662.64,-144.34C1673.33,-124.58 1686.23,-91.85 1668.4,-72 1643.16,-43.92 1421.72,-29.48 1283.7,-23.14"/>
<polygon fill="black" stroke="black" points="1283.65,-19.63 1273.5,-22.68 1283.33,-26.63 1283.65,-19.63"/>
</g>
<!-- r&#45;littler -->
<g id="node26" class="node">
<title>r&#45;littler</title>
<g id="a_node26"><a xlink:href="https://github.com/conda-forge/r-littler-feedstock/pull/2" xlink:title="r littler">
<ellipse fill="#31688e" stroke="black" cx="1725.4" cy="-234" rx="54.69" ry="18"/>
<text text-anchor="middle" x="1725.4" y="-230.3" font-family="Times,serif" font-size="14.00" fill="white">r littler</text>
</a>
</g>
</g>
<!-- r&#45;littler&#45;&gt;conda&#45;forge&#45;pinning -->
<g id="edge50" class="edge">
<title>r&#45;littler&#45;&gt;conda&#45;forge&#45;pinning</title>
<path fill="none" stroke="black" d="M1727.22,-215.88C1729.72,-182.39 1729.84,-108.32 1687.4,-72 1657.32,-46.26 1424.35,-30.82 1282.58,-23.71"/>
<polygon fill="black" stroke="black" points="1282.7,-20.21 1272.54,-23.21 1282.35,-27.2 1282.7,-20.21"/>
</g>
<!-- r&#45;rxode -->
<g id="node27" class="node">
<title>r&#45;rxode</title>
<g id="a_node27"><a xlink:href="https://github.com/conda-forge/r-rxode-feedstock/pull/3" xlink:title="r rxode">
<ellipse fill="#31688e" stroke="black" cx="1819.4" cy="-162" rx="45" ry="18"/>
<text text-anchor="middle" x="1819.4" y="-158.3" font-family="Times,serif" font-size="14.00" fill="white">r rxode</text>
</a>
</g>
</g>
<!-- r&#45;rxode&#45;&gt;conda&#45;forge&#45;pinning -->
<g id="edge51" class="edge">
<title>r&#45;rxode&#45;&gt;conda&#45;forge&#45;pinning</title>
<path fill="none" stroke="black" d="M1806.85,-144.35C1788.87,-120.99 1756.1,-80.4 1739.4,-72 1662.66,-33.41 1428.58,-22.79 1286.62,-19.95"/>
<polygon fill="black" stroke="black" points="1286.63,-16.45 1276.56,-19.76 1286.49,-23.45 1286.63,-16.45"/>
</g>
<!-- r&#45;nlmixr -->
<g id="node28" class="node">
<title>r&#45;nlmixr</title>
<g id="a_node28"><a xlink:href="https://github.com/conda-forge/r-nlmixr-feedstock" xlink:title="r nlmixr">
<ellipse fill="#fde725" stroke="black" cx="1841.4" cy="-90" rx="50.09" ry="18"/>
<text text-anchor="middle" x="1841.4" y="-86.3" font-family="Times,serif" font-size="14.00">r nlmixr</text>
</a>
</g>
</g>
<!-- r&#45;rxode&#45;&gt;r&#45;nlmixr -->
<g id="edge52" class="edge">
<title>r&#45;rxode&#45;&gt;r&#45;nlmixr</title>
<path fill="none" stroke="black" d="M1824.72,-144.05C1827.17,-136.26 1830.14,-126.82 1832.89,-118.08"/>
<polygon fill="black" stroke="black" points="1836.31,-118.86 1835.97,-108.28 1829.63,-116.77 1836.31,-118.86"/>
</g>
<!-- r&#45;nlmixr&#45;&gt;conda&#45;forge&#45;pinning -->
<g id="edge53" class="edge">
<title>r&#45;nlmixr&#45;&gt;conda&#45;forge&#45;pinning</title>
<path fill="none" stroke="black" d="M1804.07,-77.93C1795.38,-75.68 1786.12,-73.53 1777.4,-72 1606.59,-42.05 1405.48,-28.7 1283.81,-22.99"/>
<polygon fill="black" stroke="black" points="1283.89,-19.49 1273.74,-22.52 1283.57,-26.48 1283.89,-19.49"/>
</g>
<!-- r&#45;kmer -->
<g id="node29" class="node">
<title>r&#45;kmer</title>
<g id="a_node29"><a xlink:href="https://github.com/conda-forge/r-kmer-feedstock" xlink:title="r kmer">
<ellipse fill="#35b779" stroke="black" cx="1888.4" cy="-306" rx="40.5" ry="18"/>
<text text-anchor="middle" x="1888.4" y="-302.3" font-family="Times,serif" font-size="14.00">r kmer</text>
</a>
</g>
</g>
<!-- r&#45;kmer&#45;&gt;conda&#45;forge&#45;pinning -->
<g id="edge54" class="edge">
<title>r&#45;kmer&#45;&gt;conda&#45;forge&#45;pinning</title>
<path fill="none" stroke="black" d="M1896.37,-288.18C1915.23,-245.64 1956.94,-132.81 1900.4,-72 1859.6,-28.12 1481.38,-20.16 1287.24,-18.99"/>
<polygon fill="black" stroke="black" points="1287.02,-15.48 1277,-18.93 1286.98,-22.48 1287.02,-15.48"/>
</g>
<!-- r&#45;lmms -->
<g id="node30" class="node">
<title>r&#45;lmms</title>
<g id="a_node30"><a xlink:href="https://github.com/conda-forge/r-lmms-feedstock" xlink:title="r lmms">
<ellipse fill="#35b779" stroke="black" cx="1957.4" cy="-378" rx="40.5" ry="18"/>
<text text-anchor="middle" x="1957.4" y="-374.3" font-family="Times,serif" font-size="14.00">r lmms</text>
</a>
</g>
</g>
<!-- r&#45;lmms&#45;&gt;conda&#45;forge&#45;pinning -->
<g id="edge55" class="edge">
<title>r&#45;lmms&#45;&gt;conda&#45;forge&#45;pinning</title>
<path fill="none" stroke="black" d="M1957.4,-359.95C1957.4,-333.29 1957.4,-280.11 1957.4,-235 1957.4,-235 1957.4,-235 1957.4,-161 1957.4,-118.97 1958.91,-97.37 1925.4,-72 1875.72,-34.39 1483.8,-23.41 1286.32,-20.25"/>
<polygon fill="black" stroke="black" points="1286.25,-16.75 1276.2,-20.09 1286.14,-23.75 1286.25,-16.75"/>
</g>
<!-- r&#45;reactable -->
<g id="node31" class="node">
<title>r&#45;reactable</title>
<g id="a_node31"><a xlink:href="https://github.com/conda-forge/r-reactable-feedstock" xlink:title="r reactable">
<ellipse fill="#35b779" stroke="black" cx="2050.4" cy="-90" rx="64.5" ry="18"/>
<text text-anchor="middle" x="2050.4" y="-86.3" font-family="Times,serif" font-size="14.00">r reactable</text>
</a>
</g>
</g>
<!-- r&#45;reactable&#45;&gt;conda&#45;forge&#45;pinning -->
<g id="edge56" class="edge">
<title>r&#45;reactable&#45;&gt;conda&#45;forge&#45;pinning</title>
<path fill="none" stroke="black" d="M2002.97,-77.62C1992.62,-75.47 1981.68,-73.44 1971.4,-72 1728.36,-37.96 1440.54,-25.66 1285.61,-21.31"/>
<polygon fill="black" stroke="black" points="1285.7,-17.81 1275.6,-21.03 1285.5,-24.81 1285.7,-17.81"/>
</g>
<!-- r&#45;lmom -->
<g id="node32" class="node">
<title>r&#45;lmom</title>
<g id="a_node32"><a xlink:href="https://github.com/conda-forge/r-lmom-feedstock/pull/1" xlink:title="r lmom">
<ellipse fill="#31688e" stroke="black" cx="2175.4" cy="-234" rx="40.5" ry="18"/>
<text text-anchor="middle" x="2175.4" y="-230.3" font-family="Times,serif" font-size="14.00" fill="white">r lmom</text>
</a>
</g>
</g>
<!-- r&#45;lmom&#45;&gt;conda&#45;forge&#45;pinning -->
<g id="edge57" class="edge">
<title>r&#45;lmom&#45;&gt;conda&#45;forge&#45;pinning</title>
<path fill="none" stroke="black" d="M2171.07,-216.03C2160.85,-176.53 2135.17,-81.08 2123.4,-72 2058.6,-22.02 1524.94,-17.66 1287.07,-18.24"/>
<polygon fill="black" stroke="black" points="1286.99,-14.74 1277,-18.27 1287.01,-21.74 1286.99,-14.74"/>
</g>
<!-- r&#45;gld -->
<g id="node33" class="node">
<title>r&#45;gld</title>
<g id="a_node33"><a xlink:href="https://github.com/conda-forge/r-gld-feedstock" xlink:title="r gld">
<ellipse fill="#fde725" stroke="black" cx="2206.4" cy="-162" rx="35.19" ry="18"/>
<text text-anchor="middle" x="2206.4" y="-158.3" font-family="Times,serif" font-size="14.00">r gld</text>
</a>
</g>
</g>
<!-- r&#45;lmom&#45;&gt;r&#45;gld -->
<g id="edge58" class="edge">
<title>r&#45;lmom&#45;&gt;r&#45;gld</title>
<path fill="none" stroke="black" d="M2182.9,-216.05C2186.48,-207.97 2190.84,-198.12 2194.83,-189.11"/>
<polygon fill="black" stroke="black" points="2198.11,-190.35 2198.96,-179.79 2191.71,-187.52 2198.11,-190.35"/>
</g>
<!-- r&#45;gld&#45;&gt;conda&#45;forge&#45;pinning -->
<g id="edge59" class="edge">
<title>r&#45;gld&#45;&gt;conda&#45;forge&#45;pinning</title>
<path fill="none" stroke="black" d="M2202.33,-143.75C2196.38,-122.76 2183.09,-88.13 2157.4,-72 2085.31,-26.74 1530.61,-19.82 1287.24,-18.98"/>
<polygon fill="black" stroke="black" points="1286.96,-15.48 1276.95,-18.95 1286.94,-22.48 1286.96,-15.48"/>
</g>
<!-- r&#45;paireddata -->
<g id="node34" class="node">
<title>r&#45;paireddata</title>
<g id="a_node34"><a xlink:href="https://github.com/conda-forge/r-paireddata-feedstock" xlink:title="r paireddata">
<ellipse fill="#fde725" stroke="black" cx="2279.4" cy="-90" rx="69.59" ry="18"/>
<text text-anchor="middle" x="2279.4" y="-86.3" font-family="Times,serif" font-size="14.00">r paireddata</text>
</a>
</g>
</g>
<!-- r&#45;gld&#45;&gt;r&#45;paireddata -->
<g id="edge60" class="edge">
<title>r&#45;gld&#45;&gt;r&#45;paireddata</title>
<path fill="none" stroke="black" d="M2222.24,-145.81C2231.68,-136.75 2243.89,-125.05 2254.59,-114.79"/>
<polygon fill="black" stroke="black" points="2257.26,-117.08 2262.06,-107.63 2252.42,-112.02 2257.26,-117.08"/>
</g>
<!-- r&#45;paireddata&#45;&gt;conda&#45;forge&#45;pinning -->
<g id="edge61" class="edge">
<title>r&#45;paireddata&#45;&gt;conda&#45;forge&#45;pinning</title>
<path fill="none" stroke="black" d="M2228.96,-77.53C2217.95,-75.38 2206.32,-73.38 2195.4,-72 1867.41,-30.54 1476.27,-21.35 1287.07,-19.42"/>
<polygon fill="black" stroke="black" points="1286.87,-15.92 1276.84,-19.32 1286.8,-22.92 1286.87,-15.92"/>
</g>
<!-- r&#45;kmlshape -->
<g id="node35" class="node">
<title>r&#45;kmlshape</title>
<g id="a_node35"><a xlink:href="https://github.com/conda-forge/r-kmlshape-feedstock" xlink:title="r kmlshape">
<ellipse fill="#35b779" stroke="black" cx="2377.4" cy="-162" rx="60" ry="18"/>
<text text-anchor="middle" x="2377.4" y="-158.3" font-family="Times,serif" font-size="14.00">r kmlshape</text>
</a>
</g>
</g>
<!-- r&#45;kmlshape&#45;&gt;conda&#45;forge&#45;pinning -->
<g id="edge62" class="edge">
<title>r&#45;kmlshape&#45;&gt;conda&#45;forge&#45;pinning</title>
<path fill="none" stroke="black" d="M2379.32,-143.85C2380.57,-123.3 2379.01,-89.46 2358.4,-72 2317.9,-37.71 1574.42,-24.28 1286.22,-20.35"/>
<polygon fill="black" stroke="black" points="1286.21,-16.85 1276.16,-20.21 1286.12,-23.85 1286.21,-16.85"/>
</g>
<!-- r&#45;aiccmodavg -->
<g id="node36" class="node">
<title>r&#45;aiccmodavg</title>
<g id="a_node36"><a xlink:href="https://github.com/conda-forge/r-aiccmodavg-feedstock" xlink:title="r aiccmodavg">
<ellipse fill="#35b779" stroke="black" cx="2465.4" cy="-234" rx="69.59" ry="18"/>
<text text-anchor="middle" x="2465.4" y="-230.3" font-family="Times,serif" font-size="14.00">r aiccmodavg</text>
</a>
</g>
</g>
<!-- r&#45;aiccmodavg&#45;&gt;conda&#45;forge&#45;pinning -->
<g id="edge63" class="edge">
<title>r&#45;aiccmodavg&#45;&gt;conda&#45;forge&#45;pinning</title>
<path fill="none" stroke="black" d="M2464.33,-215.74C2462.6,-197.14 2458.1,-167.12 2446.4,-144 2427.06,-105.8 2421.06,-90.39 2382.4,-72 2285.23,-25.78 1569.48,-19.6 1287.29,-18.97"/>
<polygon fill="black" stroke="black" points="1287.04,-15.47 1277.03,-18.95 1287.03,-22.47 1287.04,-15.47"/>
</g>
</g>
</svg>
