<?xml version="1.0" encoding="UTF-8" standalone="no"?>
<!DOCTYPE svg PUBLIC "-//W3C//DTD SVG 1.1//EN"
 "http://www.w3.org/Graphics/SVG/1.1/DTD/svg11.dtd">
<!-- Generated by graphviz version 2.42.3 (20191010.1750)
 -->
<!-- Title: %3 Pages: 1 -->
<svg width="2650pt" height="476pt"
 viewBox="0.00 0.00 2649.59 476.00" xmlns="http://www.w3.org/2000/svg" xmlns:xlink="http://www.w3.org/1999/xlink">
<g id="graph0" class="graph" transform="scale(1 1) rotate(0) translate(4 472)">
<title>%3</title>
<polygon fill="white" stroke="transparent" points="-4,4 -4,-472 2645.59,-472 2645.59,4 -4,4"/>
<!-- r&#45;ahocorasicktrie -->
<g id="node1" class="node">
<title>r&#45;ahocorasicktrie</title>
<g id="a_node1"><a xlink:href="https://github.com/conda-forge/r-ahocorasicktrie-feedstock/pull/5" xlink:title="r ahocorasicktrie">
<ellipse fill="#31688e" stroke="black" cx="93.59" cy="-90" rx="93.68" ry="18"/>
<text text-anchor="middle" x="93.59" y="-86.3" font-family="Times,serif" font-size="14.00" fill="white">r ahocorasicktrie</text>
</a>
</g>
</g>
<!-- conda&#45;forge&#45;pinning -->
<g id="node2" class="node">
<title>conda&#45;forge&#45;pinning</title>
<ellipse fill="none" stroke="black" cx="1411.59" cy="-18" rx="103.5" ry="18"/>
<text text-anchor="middle" x="1411.59" y="-14.3" font-family="Times,serif" font-size="14.00">conda&#45;forge&#45;pinning</text>
</g>
<!-- r&#45;ahocorasicktrie&#45;&gt;conda&#45;forge&#45;pinning -->
<g id="edge1" class="edge">
<title>r&#45;ahocorasicktrie&#45;&gt;conda&#45;forge&#45;pinning</title>
<path fill="none" stroke="black" d="M160.27,-77.3C173.9,-75.25 188.18,-73.34 201.59,-72 603.46,-31.7 1083.45,-22.04 1298.1,-19.73"/>
<polygon fill="black" stroke="black" points="1298.16,-23.22 1308.12,-19.62 1298.09,-16.23 1298.16,-23.22"/>
</g>
<!-- r&#45;fst -->
<g id="node3" class="node">
<title>r&#45;fst</title>
<g id="a_node3"><a xlink:href="https://github.com/conda-forge/r-fst-feedstock/pull/11" xlink:title="r fst">
<ellipse fill="#31688e" stroke="black" cx="264.59" cy="-162" rx="35.19" ry="18"/>
<text text-anchor="middle" x="264.59" y="-158.3" font-family="Times,serif" font-size="14.00" fill="white">r fst</text>
</a>
</g>
</g>
<!-- r&#45;fst&#45;&gt;conda&#45;forge&#45;pinning -->
<g id="edge2" class="edge">
<title>r&#45;fst&#45;&gt;conda&#45;forge&#45;pinning</title>
<path fill="none" stroke="black" d="M250.76,-145.09C235.42,-125.48 215.21,-92.27 234.59,-72 270.99,-33.93 1010.91,-22.81 1298.58,-19.92"/>
<polygon fill="black" stroke="black" points="1298.65,-23.42 1308.62,-19.82 1298.58,-16.42 1298.65,-23.42"/>
</g>
<!-- r&#45;disk.frame -->
<g id="node4" class="node">
<title>r&#45;disk.frame</title>
<g id="a_node4"><a xlink:href="https://github.com/conda-forge/r-disk.frame-feedstock" xlink:title="r disk frame">
<ellipse fill="#fde725" stroke="black" cx="313.59" cy="-90" rx="69.59" ry="18"/>
<text text-anchor="middle" x="313.59" y="-86.3" font-family="Times,serif" font-size="14.00">r disk frame</text>
</a>
</g>
</g>
<!-- r&#45;fst&#45;&gt;r&#45;disk.frame -->
<g id="edge3" class="edge">
<title>r&#45;fst&#45;&gt;r&#45;disk.frame</title>
<path fill="none" stroke="black" d="M275.96,-144.76C281.84,-136.35 289.17,-125.89 295.79,-116.44"/>
<polygon fill="black" stroke="black" points="298.74,-118.32 301.6,-108.12 293,-114.31 298.74,-118.32"/>
</g>
<!-- r&#45;disk.frame&#45;&gt;conda&#45;forge&#45;pinning -->
<g id="edge4" class="edge">
<title>r&#45;disk.frame&#45;&gt;conda&#45;forge&#45;pinning</title>
<path fill="none" stroke="black" d="M364.03,-77.54C375.04,-75.39 386.67,-73.38 397.59,-72 722.58,-30.85 1110.06,-21.51 1298.06,-19.49"/>
<polygon fill="black" stroke="black" points="1298.27,-22.99 1308.23,-19.38 1298.2,-15.99 1298.27,-22.99"/>
</g>
<!-- r&#45;hive -->
<g id="node5" class="node">
<title>r&#45;hive</title>
<g id="a_node5"><a xlink:href="https://github.com/conda-forge/r-hive-feedstock" xlink:title="r hive">
<ellipse fill="#fde725" stroke="black" cx="1404.59" cy="-234" rx="40.5" ry="18"/>
<text text-anchor="middle" x="1404.59" y="-230.3" font-family="Times,serif" font-size="14.00">r hive</text>
</a>
</g>
</g>
<!-- r&#45;hive&#45;&gt;conda&#45;forge&#45;pinning -->
<g id="edge5" class="edge">
<title>r&#45;hive&#45;&gt;conda&#45;forge&#45;pinning</title>
<path fill="none" stroke="black" d="M1401.75,-215.87C1400.18,-205.52 1398.38,-192.04 1397.59,-180 1394.44,-132.1 1391.41,-119.6 1397.59,-72 1398.69,-63.51 1400.75,-54.43 1402.96,-46.24"/>
<polygon fill="black" stroke="black" points="1406.38,-47.02 1405.77,-36.44 1399.65,-45.09 1406.38,-47.02"/>
</g>
<!-- r&#45;rjava -->
<g id="node6" class="node">
<title>r&#45;rjava</title>
<g id="a_node6"><a xlink:href="https://github.com/conda-forge/r-rjava-feedstock" xlink:title="r rjava">
<ellipse fill="#35b779" stroke="black" cx="1086.59" cy="-450" rx="45" ry="18"/>
<text text-anchor="middle" x="1086.59" y="-446.3" font-family="Times,serif" font-size="14.00">r rjava</text>
</a>
</g>
</g>
<!-- r&#45;rjava&#45;&gt;conda&#45;forge&#45;pinning -->
<g id="edge6" class="edge">
<title>r&#45;rjava&#45;&gt;conda&#45;forge&#45;pinning</title>
<path fill="none" stroke="black" d="M1131.66,-448.31C1214.74,-446.07 1387.33,-436.52 1428.59,-396 1519.92,-306.32 1455.04,-233.24 1428.59,-108 1424.23,-87.35 1419.77,-63.9 1416.52,-46.26"/>
<polygon fill="black" stroke="black" points="1419.9,-45.31 1414.65,-36.1 1413.01,-46.57 1419.9,-45.31"/>
</g>
<!-- r&#45;rjava&#45;&gt;r&#45;hive -->
<g id="edge7" class="edge">
<title>r&#45;rjava&#45;&gt;r&#45;hive</title>
<path fill="none" stroke="black" d="M1131.45,-448.39C1210.83,-446.25 1370.97,-436.85 1405.59,-396 1437.34,-358.54 1425.05,-296.69 1414.21,-261.55"/>
<polygon fill="black" stroke="black" points="1417.51,-260.4 1411.08,-251.98 1410.86,-262.57 1417.51,-260.4"/>
</g>
<!-- r&#45;xlsx -->
<g id="node7" class="node">
<title>r&#45;xlsx</title>
<g id="a_node7"><a xlink:href="https://github.com/conda-forge/r-xlsx-feedstock" xlink:title="r xlsx">
<ellipse fill="#fde725" stroke="black" cx="499.59" cy="-306" rx="40.5" ry="18"/>
<text text-anchor="middle" x="499.59" y="-302.3" font-family="Times,serif" font-size="14.00">r xlsx</text>
</a>
</g>
</g>
<!-- r&#45;rjava&#45;&gt;r&#45;xlsx -->
<g id="edge8" class="edge">
<title>r&#45;rjava&#45;&gt;r&#45;xlsx</title>
<path fill="none" stroke="black" d="M1041.67,-448.65C932.09,-447.12 654.17,-438.99 573.59,-396 546.87,-381.75 525.97,-353.43 513.29,-332.55"/>
<polygon fill="black" stroke="black" points="516.27,-330.72 508.21,-323.84 510.22,-334.24 516.27,-330.72"/>
</g>
<!-- r&#45;xlsxjars -->
<g id="node8" class="node">
<title>r&#45;xlsxjars</title>
<g id="a_node8"><a xlink:href="https://github.com/conda-forge/r-xlsxjars-feedstock" xlink:title="r xlsxjars">
<ellipse fill="#fde725" stroke="black" cx="461.59" cy="-378" rx="60" ry="18"/>
<text text-anchor="middle" x="461.59" y="-374.3" font-family="Times,serif" font-size="14.00">r xlsxjars</text>
</a>
</g>
</g>
<!-- r&#45;rjava&#45;&gt;r&#45;xlsxjars -->
<g id="edge9" class="edge">
<title>r&#45;rjava&#45;&gt;r&#45;xlsxjars</title>
<path fill="none" stroke="black" d="M1042.06,-446.68C948.02,-441.36 722.47,-426.32 535.59,-396 529.27,-394.97 522.69,-393.73 516.17,-392.38"/>
<polygon fill="black" stroke="black" points="516.53,-388.88 506.02,-390.19 515.06,-395.72 516.53,-388.88"/>
</g>
<!-- r&#45;xlconnectjars -->
<g id="node9" class="node">
<title>r&#45;xlconnectjars</title>
<g id="a_node9"><a xlink:href="https://github.com/conda-forge/r-xlconnectjars-feedstock" xlink:title="r xlconnectjars">
<ellipse fill="#fde725" stroke="black" cx="1576.59" cy="-378" rx="84" ry="18"/>
<text text-anchor="middle" x="1576.59" y="-374.3" font-family="Times,serif" font-size="14.00">r xlconnectjars</text>
</a>
</g>
</g>
<!-- r&#45;rjava&#45;&gt;r&#45;xlconnectjars -->
<g id="edge10" class="edge">
<title>r&#45;rjava&#45;&gt;r&#45;xlconnectjars</title>
<path fill="none" stroke="black" d="M1129.01,-443.79C1201.01,-434.84 1351.67,-415.58 1478.59,-396 1486.93,-394.71 1495.66,-393.3 1504.32,-391.85"/>
<polygon fill="black" stroke="black" points="1505.16,-395.26 1514.44,-390.14 1503.99,-388.36 1505.16,-395.26"/>
</g>
<!-- r&#45;xlconnect -->
<g id="node10" class="node">
<title>r&#45;xlconnect</title>
<g id="a_node10"><a xlink:href="https://github.com/conda-forge/r-xlconnect-feedstock" xlink:title="r xlconnect">
<ellipse fill="#fde725" stroke="black" cx="1604.59" cy="-306" rx="64.5" ry="18"/>
<text text-anchor="middle" x="1604.59" y="-302.3" font-family="Times,serif" font-size="14.00">r xlconnect</text>
</a>
</g>
</g>
<!-- r&#45;rjava&#45;&gt;r&#45;xlconnect -->
<g id="edge11" class="edge">
<title>r&#45;rjava&#45;&gt;r&#45;xlconnect</title>
<path fill="none" stroke="black" d="M1131.41,-448.32C1261.71,-445.9 1633.48,-435.54 1669.59,-396 1689.07,-374.67 1662.98,-347.56 1638.29,-328.89"/>
<polygon fill="black" stroke="black" points="1640.19,-325.94 1630.04,-322.91 1636.08,-331.61 1640.19,-325.94"/>
</g>
<!-- r&#45;rcdklibs -->
<g id="node11" class="node">
<title>r&#45;rcdklibs</title>
<g id="a_node11"><a xlink:href="https://github.com/conda-forge/r-rcdklibs-feedstock" xlink:title="r rcdklibs">
<ellipse fill="#fde725" stroke="black" cx="704.59" cy="-378" rx="60" ry="18"/>
<text text-anchor="middle" x="704.59" y="-374.3" font-family="Times,serif" font-size="14.00">r rcdklibs</text>
</a>
</g>
</g>
<!-- r&#45;rjava&#45;&gt;r&#45;rcdklibs -->
<g id="edge12" class="edge">
<title>r&#45;rjava&#45;&gt;r&#45;rcdklibs</title>
<path fill="none" stroke="black" d="M1046.43,-441.64C979.15,-429.31 843.31,-404.42 764.64,-390"/>
<polygon fill="black" stroke="black" points="764.87,-386.49 754.4,-388.13 763.6,-393.37 764.87,-386.49"/>
</g>
<!-- r&#45;rcdk -->
<g id="node12" class="node">
<title>r&#45;rcdk</title>
<g id="a_node12"><a xlink:href="https://github.com/conda-forge/r-rcdk-feedstock" xlink:title="r rcdk">
<ellipse fill="#fde725" stroke="black" cx="704.59" cy="-306" rx="40.5" ry="18"/>
<text text-anchor="middle" x="704.59" y="-302.3" font-family="Times,serif" font-size="14.00">r rcdk</text>
</a>
</g>
</g>
<!-- r&#45;rjava&#45;&gt;r&#45;rcdk -->
<g id="edge13" class="edge">
<title>r&#45;rjava&#45;&gt;r&#45;rcdk</title>
<path fill="none" stroke="black" d="M1052.28,-438.2C1019.94,-427.87 970.22,-411.6 927.59,-396 861.9,-371.97 786.51,-341.2 742.36,-322.85"/>
<polygon fill="black" stroke="black" points="743.48,-319.53 732.9,-318.91 740.79,-325.99 743.48,-319.53"/>
</g>
<!-- r&#45;rchoicedialogs -->
<g id="node13" class="node">
<title>r&#45;rchoicedialogs</title>
<g id="a_node13"><a xlink:href="https://github.com/conda-forge/r-rchoicedialogs-feedstock" xlink:title="r rchoicedialogs">
<ellipse fill="#fde725" stroke="black" cx="780.59" cy="-234" rx="89.08" ry="18"/>
<text text-anchor="middle" x="780.59" y="-230.3" font-family="Times,serif" font-size="14.00">r rchoicedialogs</text>
</a>
</g>
</g>
<!-- r&#45;rjava&#45;&gt;r&#45;rchoicedialogs -->
<g id="edge14" class="edge">
<title>r&#45;rjava&#45;&gt;r&#45;rchoicedialogs</title>
<path fill="none" stroke="black" d="M1063.73,-434.4C1047.41,-423.89 1025.01,-409.29 1005.59,-396 935.17,-347.8 854.13,-288.96 811.13,-257.46"/>
<polygon fill="black" stroke="black" points="813.18,-254.63 803.05,-251.54 809.04,-260.28 813.18,-254.63"/>
</g>
<!-- r&#45;rwekajars -->
<g id="node14" class="node">
<title>r&#45;rwekajars</title>
<g id="a_node14"><a xlink:href="https://github.com/conda-forge/r-rwekajars-feedstock" xlink:title="r rwekajars">
<ellipse fill="#fde725" stroke="black" cx="952.59" cy="-234" rx="64.5" ry="18"/>
<text text-anchor="middle" x="952.59" y="-230.3" font-family="Times,serif" font-size="14.00">r rwekajars</text>
</a>
</g>
</g>
<!-- r&#45;rjava&#45;&gt;r&#45;rwekajars -->
<g id="edge15" class="edge">
<title>r&#45;rjava&#45;&gt;r&#45;rwekajars</title>
<path fill="none" stroke="black" d="M1067.38,-433.47C1055.99,-423.59 1041.83,-410.04 1031.59,-396 1000.01,-352.68 975.17,-294.8 962.29,-261.54"/>
<polygon fill="black" stroke="black" points="965.51,-260.16 958.69,-252.05 958.97,-262.65 965.51,-260.16"/>
</g>
<!-- r&#45;rweka -->
<g id="node15" class="node">
<title>r&#45;rweka</title>
<g id="a_node15"><a xlink:href="https://github.com/conda-forge/r-rweka-feedstock" xlink:title="r rweka">
<ellipse fill="#fde725" stroke="black" cx="991.59" cy="-162" rx="45" ry="18"/>
<text text-anchor="middle" x="991.59" y="-158.3" font-family="Times,serif" font-size="14.00">r rweka</text>
</a>
</g>
</g>
<!-- r&#45;rjava&#45;&gt;r&#45;rweka -->
<g id="edge16" class="edge">
<title>r&#45;rjava&#45;&gt;r&#45;rweka</title>
<path fill="none" stroke="black" d="M1084.03,-432.02C1077.7,-392.71 1059.34,-292.97 1025.59,-216 1021.36,-206.34 1015.48,-196.43 1009.81,-187.84"/>
<polygon fill="black" stroke="black" points="1012.58,-185.69 1004.05,-179.42 1006.81,-189.65 1012.58,-185.69"/>
</g>
<!-- r&#45;subspace -->
<g id="node16" class="node">
<title>r&#45;subspace</title>
<g id="a_node16"><a xlink:href="https://github.com/conda-forge/r-subspace-feedstock" xlink:title="r subspace">
<ellipse fill="#fde725" stroke="black" cx="1133.59" cy="-234" rx="60" ry="18"/>
<text text-anchor="middle" x="1133.59" y="-230.3" font-family="Times,serif" font-size="14.00">r subspace</text>
</a>
</g>
</g>
<!-- r&#45;rjava&#45;&gt;r&#45;subspace -->
<g id="edge17" class="edge">
<title>r&#45;rjava&#45;&gt;r&#45;subspace</title>
<path fill="none" stroke="black" d="M1087.68,-431.77C1089.88,-401.96 1095.98,-339.08 1110.59,-288 1113.13,-279.13 1116.81,-269.79 1120.49,-261.46"/>
<polygon fill="black" stroke="black" points="1123.74,-262.79 1124.74,-252.24 1117.38,-259.86 1123.74,-262.79"/>
</g>
<!-- r&#45;rmcfs -->
<g id="node17" class="node">
<title>r&#45;rmcfs</title>
<g id="a_node17"><a xlink:href="https://github.com/conda-forge/r-rmcfs-feedstock" xlink:title="r rmcfs">
<ellipse fill="#fde725" stroke="black" cx="1186.59" cy="-162" rx="45" ry="18"/>
<text text-anchor="middle" x="1186.59" y="-158.3" font-family="Times,serif" font-size="14.00">r rmcfs</text>
</a>
</g>
</g>
<!-- r&#45;rjava&#45;&gt;r&#45;rmcfs -->
<g id="edge18" class="edge">
<title>r&#45;rjava&#45;&gt;r&#45;rmcfs</title>
<path fill="none" stroke="black" d="M1093.46,-431.84C1097.6,-421.48 1102.94,-408 1107.59,-396 1126.16,-348.13 1116.6,-328.15 1148.59,-288 1166.57,-265.44 1188.98,-277.43 1202.59,-252 1213.02,-232.52 1207.15,-207.57 1199.75,-189.04"/>
<polygon fill="black" stroke="black" points="1202.9,-187.51 1195.69,-179.75 1196.48,-190.31 1202.9,-187.51"/>
</g>
<!-- r&#45;rjdbc -->
<g id="node18" class="node">
<title>r&#45;rjdbc</title>
<g id="a_node18"><a xlink:href="https://github.com/conda-forge/r-rjdbc-feedstock" xlink:title="r rjdbc">
<ellipse fill="#fde725" stroke="black" cx="1224.59" cy="-90" rx="45" ry="18"/>
<text text-anchor="middle" x="1224.59" y="-86.3" font-family="Times,serif" font-size="14.00">r rjdbc</text>
</a>
</g>
</g>
<!-- r&#45;rjava&#45;&gt;r&#45;rjdbc -->
<g id="edge19" class="edge">
<title>r&#45;rjava&#45;&gt;r&#45;rjdbc</title>
<path fill="none" stroke="black" d="M1100.76,-432.43C1109.1,-422.27 1119.55,-408.8 1127.59,-396 1156.15,-350.56 1149.63,-331.11 1181.59,-288 1195.45,-269.31 1207.47,-271.86 1219.59,-252 1236.96,-223.55 1235.88,-213 1240.59,-180 1242.85,-164.16 1242.93,-159.83 1240.59,-144 1239.29,-135.21 1236.85,-125.86 1234.25,-117.5"/>
<polygon fill="black" stroke="black" points="1237.54,-116.29 1231.08,-107.9 1230.89,-118.49 1237.54,-116.29"/>
</g>
<!-- r&#45;tabulizer -->
<g id="node19" class="node">
<title>r&#45;tabulizer</title>
<g id="a_node19"><a xlink:href="https://github.com/conda-forge/r-tabulizer-feedstock" xlink:title="r tabulizer">
<ellipse fill="#fde725" stroke="black" cx="1255.59" cy="-306" rx="64.5" ry="18"/>
<text text-anchor="middle" x="1255.59" y="-302.3" font-family="Times,serif" font-size="14.00">r tabulizer</text>
</a>
</g>
</g>
<!-- r&#45;rjava&#45;&gt;r&#45;tabulizer -->
<g id="edge20" class="edge">
<title>r&#45;rjava&#45;&gt;r&#45;tabulizer</title>
<path fill="none" stroke="black" d="M1114.42,-435.52C1132.98,-425.85 1157.41,-411.78 1176.59,-396 1199.8,-376.9 1222.14,-350.77 1237.11,-331.77"/>
<polygon fill="black" stroke="black" points="1239.89,-333.89 1243.25,-323.84 1234.35,-329.6 1239.89,-333.89"/>
</g>
<!-- r&#45;tabulizerjars -->
<g id="node20" class="node">
<title>r&#45;tabulizerjars</title>
<g id="a_node20"><a xlink:href="https://github.com/conda-forge/r-tabulizerjars-feedstock" xlink:title="r tabulizerjars">
<ellipse fill="#fde725" stroke="black" cx="1312.59" cy="-378" rx="84" ry="18"/>
<text text-anchor="middle" x="1312.59" y="-374.3" font-family="Times,serif" font-size="14.00">r tabulizerjars</text>
</a>
</g>
</g>
<!-- r&#45;rjava&#45;&gt;r&#45;tabulizerjars -->
<g id="edge21" class="edge">
<title>r&#45;rjava&#45;&gt;r&#45;tabulizerjars</title>
<path fill="none" stroke="black" d="M1121.41,-438.22C1157.59,-427.01 1214.76,-409.3 1257.16,-396.17"/>
<polygon fill="black" stroke="black" points="1258.27,-399.49 1266.78,-393.19 1256.2,-392.8 1258.27,-399.49"/>
</g>
<!-- r&#45;destinie -->
<g id="node21" class="node">
<title>r&#45;destinie</title>
<g id="a_node21"><a xlink:href="https://github.com/conda-forge/r-destinie-feedstock" xlink:title="r destinie">
<ellipse fill="#fde725" stroke="black" cx="537.59" cy="-234" rx="60" ry="18"/>
<text text-anchor="middle" x="537.59" y="-230.3" font-family="Times,serif" font-size="14.00">r destinie</text>
</a>
</g>
</g>
<!-- r&#45;rjava&#45;&gt;r&#45;destinie -->
<g id="edge22" class="edge">
<title>r&#45;rjava&#45;&gt;r&#45;destinie</title>
<path fill="none" stroke="black" d="M1041.57,-448.63C941.08,-447.02 702.11,-438.68 635.59,-396 586.5,-364.5 558.26,-298.82 545.64,-261.82"/>
<polygon fill="black" stroke="black" points="548.92,-260.61 542.49,-252.2 542.27,-262.79 548.92,-260.61"/>
</g>
<!-- r&#45;xlsx&#45;&gt;conda&#45;forge&#45;pinning -->
<g id="edge23" class="edge">
<title>r&#45;xlsx&#45;&gt;conda&#45;forge&#45;pinning</title>
<path fill="none" stroke="black" d="M487.09,-288.84C480.15,-278.83 472.22,-265.38 468.59,-252 464.41,-236.56 463.57,-231.19 468.59,-216 493.64,-140.3 505.52,-110.05 575.59,-72 637.52,-38.37 1084.91,-25.28 1298.57,-20.91"/>
<polygon fill="black" stroke="black" points="1298.95,-24.4 1308.87,-20.7 1298.81,-17.4 1298.95,-24.4"/>
</g>
<!-- r&#45;xlsx&#45;&gt;r&#45;destinie -->
<g id="edge24" class="edge">
<title>r&#45;xlsx&#45;&gt;r&#45;destinie</title>
<path fill="none" stroke="black" d="M508.6,-288.41C513.07,-280.16 518.59,-270.01 523.6,-260.78"/>
<polygon fill="black" stroke="black" points="526.69,-262.41 528.39,-251.96 520.54,-259.07 526.69,-262.41"/>
</g>
<!-- r&#45;xlsxjars&#45;&gt;conda&#45;forge&#45;pinning -->
<g id="edge25" class="edge">
<title>r&#45;xlsxjars&#45;&gt;conda&#45;forge&#45;pinning</title>
<path fill="none" stroke="black" d="M451.47,-360.19C436.86,-334.27 411.59,-282.57 411.59,-235 411.59,-235 411.59,-235 411.59,-161 411.59,-98.11 462.96,-94.73 521.59,-72 592.35,-44.57 1076.99,-28.06 1299.87,-21.84"/>
<polygon fill="black" stroke="black" points="1300.06,-25.34 1309.96,-21.56 1299.87,-18.34 1300.06,-25.34"/>
</g>
<!-- r&#45;xlsxjars&#45;&gt;r&#45;xlsx -->
<g id="edge26" class="edge">
<title>r&#45;xlsxjars&#45;&gt;r&#45;xlsx</title>
<path fill="none" stroke="black" d="M470.79,-360.05C475.22,-351.89 480.64,-341.91 485.57,-332.82"/>
<polygon fill="black" stroke="black" points="488.78,-334.25 490.48,-323.79 482.63,-330.91 488.78,-334.25"/>
</g>
<!-- r&#45;xlconnectjars&#45;&gt;conda&#45;forge&#45;pinning -->
<g id="edge27" class="edge">
<title>r&#45;xlconnectjars&#45;&gt;conda&#45;forge&#45;pinning</title>
<path fill="none" stroke="black" d="M1559.19,-360.04C1549.8,-350.18 1538.53,-337.14 1530.59,-324 1526.76,-317.65 1450.1,-118.98 1421.89,-45.76"/>
<polygon fill="black" stroke="black" points="1425.11,-44.36 1418.25,-36.29 1418.57,-46.88 1425.11,-44.36"/>
</g>
<!-- r&#45;xlconnectjars&#45;&gt;r&#45;xlconnect -->
<g id="edge28" class="edge">
<title>r&#45;xlconnectjars&#45;&gt;r&#45;xlconnect</title>
<path fill="none" stroke="black" d="M1583.37,-360.05C1586.52,-352.18 1590.35,-342.62 1593.87,-333.79"/>
<polygon fill="black" stroke="black" points="1597.22,-334.86 1597.68,-324.28 1590.72,-332.26 1597.22,-334.86"/>
</g>
<!-- r&#45;xlconnect&#45;&gt;conda&#45;forge&#45;pinning -->
<g id="edge29" class="edge">
<title>r&#45;xlconnect&#45;&gt;conda&#45;forge&#45;pinning</title>
<path fill="none" stroke="black" d="M1588.95,-288.33C1568.03,-265.38 1530.79,-222.07 1506.59,-180 1480.84,-135.21 1491.79,-115.29 1463.59,-72 1456.79,-61.56 1447.71,-51.44 1439.04,-42.9"/>
<polygon fill="black" stroke="black" points="1441.26,-40.18 1431.6,-35.83 1436.43,-45.25 1441.26,-40.18"/>
</g>
<!-- r&#45;rcdklibs&#45;&gt;conda&#45;forge&#45;pinning -->
<g id="edge30" class="edge">
<title>r&#45;rcdklibs&#45;&gt;conda&#45;forge&#45;pinning</title>
<path fill="none" stroke="black" d="M685.3,-360.48C674.97,-350.76 662.73,-337.71 654.59,-324 633.36,-288.22 625.59,-276.6 625.59,-235 625.59,-235 625.59,-235 625.59,-161 625.59,-82.33 703.56,-95.64 778.59,-72 872.9,-42.29 1145.65,-28.2 1300.6,-22.42"/>
<polygon fill="black" stroke="black" points="1300.77,-25.92 1310.64,-22.05 1300.51,-18.92 1300.77,-25.92"/>
</g>
<!-- r&#45;rcdklibs&#45;&gt;r&#45;rcdk -->
<g id="edge31" class="edge">
<title>r&#45;rcdklibs&#45;&gt;r&#45;rcdk</title>
<path fill="none" stroke="black" d="M704.59,-359.7C704.59,-351.98 704.59,-342.71 704.59,-334.11"/>
<polygon fill="black" stroke="black" points="708.09,-334.1 704.59,-324.1 701.09,-334.1 708.09,-334.1"/>
</g>
<!-- r&#45;rcdk&#45;&gt;conda&#45;forge&#45;pinning -->
<g id="edge32" class="edge">
<title>r&#45;rcdk&#45;&gt;conda&#45;forge&#45;pinning</title>
<path fill="none" stroke="black" d="M694.04,-288.54C683.68,-270.11 670.99,-239.74 682.59,-216 728.35,-122.39 770.8,-110.58 867.59,-72 943.75,-41.65 1164.96,-28.12 1300.7,-22.54"/>
<polygon fill="black" stroke="black" points="1300.87,-26.03 1310.72,-22.13 1300.59,-19.04 1300.87,-26.03"/>
</g>
<!-- r&#45;rchoicedialogs&#45;&gt;conda&#45;forge&#45;pinning -->
<g id="edge33" class="edge">
<title>r&#45;rchoicedialogs&#45;&gt;conda&#45;forge&#45;pinning</title>
<path fill="none" stroke="black" d="M789.2,-215.89C807.41,-181.75 853.41,-105.54 916.59,-72 980.79,-37.92 1174.31,-25.74 1299.5,-21.4"/>
<polygon fill="black" stroke="black" points="1299.64,-24.9 1309.52,-21.06 1299.4,-17.9 1299.64,-24.9"/>
</g>
<!-- r&#45;rwekajars&#45;&gt;conda&#45;forge&#45;pinning -->
<g id="edge34" class="edge">
<title>r&#45;rwekajars&#45;&gt;conda&#45;forge&#45;pinning</title>
<path fill="none" stroke="black" d="M943.72,-216.14C928.04,-183.76 900.35,-112.51 936.59,-72 960.54,-45.24 1169.31,-30.43 1301.99,-23.65"/>
<polygon fill="black" stroke="black" points="1302.38,-27.14 1312.2,-23.14 1302.03,-20.15 1302.38,-27.14"/>
</g>
<!-- r&#45;rwekajars&#45;&gt;r&#45;rweka -->
<g id="edge35" class="edge">
<title>r&#45;rwekajars&#45;&gt;r&#45;rweka</title>
<path fill="none" stroke="black" d="M962.03,-216.05C966.63,-207.8 972.26,-197.7 977.36,-188.54"/>
<polygon fill="black" stroke="black" points="980.43,-190.23 982.24,-179.79 974.31,-186.82 980.43,-190.23"/>
</g>
<!-- r&#45;rweka&#45;&gt;conda&#45;forge&#45;pinning -->
<g id="edge36" class="edge">
<title>r&#45;rweka&#45;&gt;conda&#45;forge&#45;pinning</title>
<path fill="none" stroke="black" d="M973.48,-145.39C953.58,-126.38 926.88,-94.09 946.59,-72 969.91,-45.88 1172.67,-30.9 1302.64,-23.91"/>
<polygon fill="black" stroke="black" points="1302.84,-27.4 1312.64,-23.38 1302.47,-20.41 1302.84,-27.4"/>
</g>
<!-- r&#45;fselector -->
<g id="node22" class="node">
<title>r&#45;fselector</title>
<g id="a_node22"><a xlink:href="https://github.com/conda-forge/r-fselector-feedstock" xlink:title="r fselector">
<ellipse fill="#fde725" stroke="black" cx="1020.59" cy="-90" rx="64.5" ry="18"/>
<text text-anchor="middle" x="1020.59" y="-86.3" font-family="Times,serif" font-size="14.00">r fselector</text>
</a>
</g>
</g>
<!-- r&#45;rweka&#45;&gt;r&#45;fselector -->
<g id="edge37" class="edge">
<title>r&#45;rweka&#45;&gt;r&#45;fselector</title>
<path fill="none" stroke="black" d="M998.61,-144.05C1001.88,-136.18 1005.84,-126.62 1009.49,-117.79"/>
<polygon fill="black" stroke="black" points="1012.84,-118.85 1013.43,-108.28 1006.37,-116.17 1012.84,-118.85"/>
</g>
<!-- r&#45;subspace&#45;&gt;conda&#45;forge&#45;pinning -->
<g id="edge38" class="edge">
<title>r&#45;subspace&#45;&gt;conda&#45;forge&#45;pinning</title>
<path fill="none" stroke="black" d="M1130.04,-215.84C1124.21,-182.27 1117.06,-108.09 1158.59,-72 1182.02,-51.65 1253.97,-37.82 1315.18,-29.4"/>
<polygon fill="black" stroke="black" points="1315.85,-32.84 1325.3,-28.05 1314.92,-25.9 1315.85,-32.84"/>
</g>
<!-- r&#45;rmcfs&#45;&gt;conda&#45;forge&#45;pinning -->
<g id="edge39" class="edge">
<title>r&#45;rmcfs&#45;&gt;conda&#45;forge&#45;pinning</title>
<path fill="none" stroke="black" d="M1176.54,-144.31C1166.27,-124.84 1153.97,-92.68 1170.59,-72 1188.61,-49.59 1253.99,-36.11 1312.12,-28.36"/>
<polygon fill="black" stroke="black" points="1312.65,-31.82 1322.12,-27.07 1311.76,-24.87 1312.65,-31.82"/>
</g>
<!-- r&#45;rjdbc&#45;&gt;conda&#45;forge&#45;pinning -->
<g id="edge40" class="edge">
<title>r&#45;rjdbc&#45;&gt;conda&#45;forge&#45;pinning</title>
<path fill="none" stroke="black" d="M1256.31,-77.13C1284.77,-66.47 1327.03,-50.65 1360.29,-38.2"/>
<polygon fill="black" stroke="black" points="1361.71,-41.41 1369.85,-34.62 1359.26,-34.85 1361.71,-41.41"/>
</g>
<!-- r&#45;tabulizer&#45;&gt;conda&#45;forge&#45;pinning -->
<g id="edge41" class="edge">
<title>r&#45;tabulizer&#45;&gt;conda&#45;forge&#45;pinning</title>
<path fill="none" stroke="black" d="M1261.72,-287.91C1265.35,-277.57 1269.93,-264.09 1273.59,-252 1297.58,-172.76 1271.51,-137.93 1321.59,-72 1331.95,-58.37 1346.9,-47.58 1361.66,-39.4"/>
<polygon fill="black" stroke="black" points="1363.54,-42.37 1370.78,-34.64 1360.3,-36.16 1363.54,-42.37"/>
</g>
<!-- r&#45;tabulizerjars&#45;&gt;conda&#45;forge&#45;pinning -->
<g id="edge42" class="edge">
<title>r&#45;tabulizerjars&#45;&gt;conda&#45;forge&#45;pinning</title>
<path fill="none" stroke="black" d="M1318.03,-359.89C1321.25,-349.54 1325.32,-336.06 1328.59,-324 1358.77,-212.68 1355.28,-181.8 1390.59,-72 1393.42,-63.2 1396.98,-53.76 1400.37,-45.32"/>
<polygon fill="black" stroke="black" points="1403.64,-46.56 1404.2,-35.98 1397.17,-43.9 1403.64,-46.56"/>
</g>
<!-- r&#45;tabulizerjars&#45;&gt;r&#45;tabulizer -->
<g id="edge43" class="edge">
<title>r&#45;tabulizerjars&#45;&gt;r&#45;tabulizer</title>
<path fill="none" stroke="black" d="M1298.79,-360.05C1291.86,-351.54 1283.33,-341.07 1275.69,-331.68"/>
<polygon fill="black" stroke="black" points="1278.29,-329.33 1269.26,-323.79 1272.86,-333.75 1278.29,-329.33"/>
</g>
<!-- r&#45;destinie&#45;&gt;conda&#45;forge&#45;pinning -->
<g id="edge44" class="edge">
<title>r&#45;destinie&#45;&gt;conda&#45;forge&#45;pinning</title>
<path fill="none" stroke="black" d="M539.74,-215.99C545.02,-182.02 562.06,-106.11 611.59,-72 666.75,-34.01 1091.19,-23.19 1298.44,-20.15"/>
<polygon fill="black" stroke="black" points="1298.5,-23.65 1308.45,-20.01 1298.4,-16.65 1298.5,-23.65"/>
</g>
<!-- r&#45;fselector&#45;&gt;conda&#45;forge&#45;pinning -->
<g id="edge53" class="edge">
<title>r&#45;fselector&#45;&gt;conda&#45;forge&#45;pinning</title>
<path fill="none" stroke="black" d="M1069.41,-78.15C1079.38,-76.03 1089.81,-73.88 1099.59,-72 1176.67,-57.17 1264.88,-42.39 1327.8,-32.22"/>
<polygon fill="black" stroke="black" points="1328.36,-35.67 1337.67,-30.62 1327.24,-28.76 1328.36,-35.67"/>
</g>
<!-- r&#45;taxizesoap -->
<g id="node23" class="node">
<title>r&#45;taxizesoap</title>
<g id="a_node23"><a xlink:href="https://github.com/conda-forge/r-taxizesoap-feedstock" xlink:title="r taxizesoap">
<ellipse fill="#35b779" stroke="black" cx="1585.59" cy="-162" rx="69.59" ry="18"/>
<text text-anchor="middle" x="1585.59" y="-158.3" font-family="Times,serif" font-size="14.00">r taxizesoap</text>
</a>
</g>
</g>
<!-- r&#45;taxizesoap&#45;&gt;conda&#45;forge&#45;pinning -->
<g id="edge45" class="edge">
<title>r&#45;taxizesoap&#45;&gt;conda&#45;forge&#45;pinning</title>
<path fill="none" stroke="black" d="M1572.25,-144.23C1556.63,-125.26 1529.33,-94.12 1501.59,-72 1486.78,-60.19 1469.06,-49.19 1453.28,-40.3"/>
<polygon fill="black" stroke="black" points="1454.7,-37.09 1444.25,-35.33 1451.32,-43.22 1454.7,-37.09"/>
</g>
<!-- rpy2 -->
<g id="node24" class="node">
<title>rpy2</title>
<g id="a_node24"><a xlink:href="https://github.com/conda-forge/rpy2-feedstock/pull/55" xlink:title="rpy2">
<ellipse fill="#31688e" stroke="black" cx="1703.59" cy="-162" rx="30.59" ry="18"/>
<text text-anchor="middle" x="1703.59" y="-158.3" font-family="Times,serif" font-size="14.00" fill="white">rpy2</text>
</a>
</g>
</g>
<!-- rpy2&#45;&gt;conda&#45;forge&#45;pinning -->
<g id="edge46" class="edge">
<title>rpy2&#45;&gt;conda&#45;forge&#45;pinning</title>
<path fill="none" stroke="black" d="M1679.67,-150.56C1674.69,-148.39 1669.47,-146.12 1664.59,-144 1627.72,-127.97 1616.26,-128.38 1581.59,-108 1558.91,-94.67 1557.29,-85.31 1534.59,-72 1512.3,-58.93 1486.19,-47.22 1463.77,-38.15"/>
<polygon fill="black" stroke="black" points="1464.99,-34.88 1454.41,-34.43 1462.41,-41.38 1464.99,-34.88"/>
</g>
<!-- iterativewgcna -->
<g id="node25" class="node">
<title>iterativewgcna</title>
<g id="a_node25"><a xlink:href="https://github.com/conda-forge/iterativewgcna-feedstock" xlink:title="iterativewgcna">
<ellipse fill="#fde725" stroke="black" cx="1670.59" cy="-90" rx="79.5" ry="18"/>
<text text-anchor="middle" x="1670.59" y="-86.3" font-family="Times,serif" font-size="14.00">iterativewgcna</text>
</a>
</g>
</g>
<!-- rpy2&#45;&gt;iterativewgcna -->
<g id="edge47" class="edge">
<title>rpy2&#45;&gt;iterativewgcna</title>
<path fill="none" stroke="black" d="M1695.77,-144.41C1691.92,-136.25 1687.2,-126.22 1682.88,-117.07"/>
<polygon fill="black" stroke="black" points="1686.02,-115.51 1678.59,-107.96 1679.68,-118.49 1686.02,-115.51"/>
</g>
<!-- iterativewgcna&#45;&gt;conda&#45;forge&#45;pinning -->
<g id="edge48" class="edge">
<title>iterativewgcna&#45;&gt;conda&#45;forge&#45;pinning</title>
<path fill="none" stroke="black" d="M1621.57,-75.75C1580.04,-64.53 1520.2,-48.35 1475.02,-36.14"/>
<polygon fill="black" stroke="black" points="1475.89,-32.75 1465.33,-33.52 1474.07,-39.51 1475.89,-32.75"/>
</g>
<!-- r&#45;rvaidememoire -->
<g id="node26" class="node">
<title>r&#45;rvaidememoire</title>
<g id="a_node26"><a xlink:href="https://github.com/conda-forge/r-rvaidememoire-feedstock" xlink:title="r rvaidememoire">
<ellipse fill="#35b779" stroke="black" cx="1703.59" cy="-234" rx="84" ry="18"/>
<text text-anchor="middle" x="1703.59" y="-230.3" font-family="Times,serif" font-size="14.00">r rvaidememoire</text>
</a>
</g>
</g>
<!-- r&#45;rvaidememoire&#45;&gt;conda&#45;forge&#45;pinning -->
<g id="edge49" class="edge">
<title>r&#45;rvaidememoire&#45;&gt;conda&#45;forge&#45;pinning</title>
<path fill="none" stroke="black" d="M1719.11,-215.91C1746.13,-184.07 1795.54,-115.02 1758.59,-72 1728.72,-37.22 1614.11,-25.02 1524.68,-20.86"/>
<polygon fill="black" stroke="black" points="1524.6,-17.36 1514.46,-20.42 1524.3,-24.35 1524.6,-17.36"/>
</g>
<!-- r&#45;hier.part -->
<g id="node27" class="node">
<title>r&#45;hier.part</title>
<g id="a_node27"><a xlink:href="https://github.com/conda-forge/r-hier.part-feedstock/pull/5" xlink:title="r hier part">
<ellipse fill="#31688e" stroke="black" cx="1760.59" cy="-306" rx="64.5" ry="18"/>
<text text-anchor="middle" x="1760.59" y="-302.3" font-family="Times,serif" font-size="14.00" fill="white">r hier part</text>
</a>
</g>
</g>
<!-- r&#45;hier.part&#45;&gt;conda&#45;forge&#45;pinning -->
<g id="edge50" class="edge">
<title>r&#45;hier.part&#45;&gt;conda&#45;forge&#45;pinning</title>
<path fill="none" stroke="black" d="M1775.83,-288.24C1783.69,-278.44 1792.47,-265.4 1796.59,-252 1812.27,-201.01 1818.21,-111.62 1779.59,-72 1745.03,-36.55 1619.74,-24.55 1524.87,-20.63"/>
<polygon fill="black" stroke="black" points="1524.76,-17.12 1514.63,-20.23 1524.48,-24.12 1524.76,-17.12"/>
</g>
<!-- r&#45;bezier -->
<g id="node28" class="node">
<title>r&#45;bezier</title>
<g id="a_node28"><a xlink:href="https://github.com/conda-forge/r-bezier-feedstock/pull/3" xlink:title="r bezier">
<ellipse fill="#31688e" stroke="black" cx="1853.59" cy="-378" rx="50.09" ry="18"/>
<text text-anchor="middle" x="1853.59" y="-374.3" font-family="Times,serif" font-size="14.00" fill="white">r bezier</text>
</a>
</g>
</g>
<!-- r&#45;bezier&#45;&gt;conda&#45;forge&#45;pinning -->
<g id="edge51" class="edge">
<title>r&#45;bezier&#45;&gt;conda&#45;forge&#45;pinning</title>
<path fill="none" stroke="black" d="M1853.59,-359.95C1853.59,-333.29 1853.59,-280.11 1853.59,-235 1853.59,-235 1853.59,-235 1853.59,-161 1853.59,-115.85 1841.84,-97.53 1804.59,-72 1759.98,-41.43 1622.11,-28.42 1522.25,-22.93"/>
<polygon fill="black" stroke="black" points="1522.28,-19.43 1512.11,-22.39 1521.91,-26.42 1522.28,-19.43"/>
</g>
<!-- r&#45;hiver -->
<g id="node29" class="node">
<title>r&#45;hiver</title>
<g id="a_node29"><a xlink:href="https://github.com/conda-forge/r-hiver-feedstock" xlink:title="r hiver">
<ellipse fill="#35b779" stroke="black" cx="1926.59" cy="-90" rx="45" ry="18"/>
<text text-anchor="middle" x="1926.59" y="-86.3" font-family="Times,serif" font-size="14.00">r hiver</text>
</a>
</g>
</g>
<!-- r&#45;hiver&#45;&gt;conda&#45;forge&#45;pinning -->
<g id="edge52" class="edge">
<title>r&#45;hiver&#45;&gt;conda&#45;forge&#45;pinning</title>
<path fill="none" stroke="black" d="M1892.51,-78.15C1884.41,-75.85 1875.74,-73.64 1867.59,-72 1748.28,-48.05 1609.08,-33.81 1516.16,-26.23"/>
<polygon fill="black" stroke="black" points="1516.43,-22.74 1506.18,-25.42 1515.87,-29.71 1516.43,-22.74"/>
</g>
<!-- r&#45;feasts -->
<g id="node30" class="node">
<title>r&#45;feasts</title>
<g id="a_node30"><a xlink:href="https://github.com/conda-forge/r-feasts-feedstock" xlink:title="r feasts">
<ellipse fill="#fde725" stroke="black" cx="2039.59" cy="-90" rx="50.09" ry="18"/>
<text text-anchor="middle" x="2039.59" y="-86.3" font-family="Times,serif" font-size="14.00">r feasts</text>
</a>
</g>
</g>
<!-- r&#45;feasts&#45;&gt;conda&#45;forge&#45;pinning -->
<g id="edge54" class="edge">
<title>r&#45;feasts&#45;&gt;conda&#45;forge&#45;pinning</title>
<path fill="none" stroke="black" d="M2003.34,-77.4C1995.88,-75.34 1988.03,-73.4 1980.59,-72 1822.91,-42.21 1637.34,-28.91 1522.07,-23.15"/>
<polygon fill="black" stroke="black" points="1521.99,-19.64 1511.83,-22.65 1521.65,-26.63 1521.99,-19.64"/>
</g>
<!-- r&#45;littler -->
<g id="node31" class="node">
<title>r&#45;littler</title>
<g id="a_node31"><a xlink:href="https://github.com/conda-forge/r-littler-feedstock/pull/2" xlink:title="r littler">
<ellipse fill="#31688e" stroke="black" cx="2155.59" cy="-162" rx="54.69" ry="18"/>
<text text-anchor="middle" x="2155.59" y="-158.3" font-family="Times,serif" font-size="14.00" fill="white">r littler</text>
</a>
</g>
</g>
<!-- r&#45;littler&#45;&gt;conda&#45;forge&#45;pinning -->
<g id="edge55" class="edge">
<title>r&#45;littler&#45;&gt;conda&#45;forge&#45;pinning</title>
<path fill="none" stroke="black" d="M2153.4,-143.96C2149.73,-123.18 2140.27,-88.77 2116.59,-72 2069.48,-38.62 1710.75,-25.68 1523.94,-21.16"/>
<polygon fill="black" stroke="black" points="1523.89,-17.66 1513.81,-20.92 1523.72,-24.66 1523.89,-17.66"/>
</g>
<!-- r&#45;rxode -->
<g id="node32" class="node">
<title>r&#45;rxode</title>
<g id="a_node32"><a xlink:href="https://github.com/conda-forge/r-rxode-feedstock" xlink:title="r rxode">
<ellipse fill="#35b779" stroke="black" cx="2273.59" cy="-162" rx="45" ry="18"/>
<text text-anchor="middle" x="2273.59" y="-158.3" font-family="Times,serif" font-size="14.00">r rxode</text>
</a>
</g>
</g>
<!-- r&#45;rxode&#45;&gt;conda&#45;forge&#45;pinning -->
<g id="edge56" class="edge">
<title>r&#45;rxode&#45;&gt;conda&#45;forge&#45;pinning</title>
<path fill="none" stroke="black" d="M2256.91,-145.01C2233.8,-123.99 2189.77,-87.88 2144.59,-72 2033.45,-32.93 1701.24,-22.65 1524.73,-19.95"/>
<polygon fill="black" stroke="black" points="1524.68,-16.45 1514.63,-19.8 1524.58,-23.45 1524.68,-16.45"/>
</g>
<!-- r&#45;nlmixr -->
<g id="node33" class="node">
<title>r&#45;nlmixr</title>
<g id="a_node33"><a xlink:href="https://github.com/conda-forge/r-nlmixr-feedstock" xlink:title="r nlmixr">
<ellipse fill="#fde725" stroke="black" cx="2271.59" cy="-90" rx="50.09" ry="18"/>
<text text-anchor="middle" x="2271.59" y="-86.3" font-family="Times,serif" font-size="14.00">r nlmixr</text>
</a>
</g>
</g>
<!-- r&#45;rxode&#45;&gt;r&#45;nlmixr -->
<g id="edge57" class="edge">
<title>r&#45;rxode&#45;&gt;r&#45;nlmixr</title>
<path fill="none" stroke="black" d="M2273.1,-143.7C2272.88,-135.98 2272.61,-126.71 2272.37,-118.11"/>
<polygon fill="black" stroke="black" points="2275.86,-118 2272.08,-108.1 2268.87,-118.2 2275.86,-118"/>
</g>
<!-- r&#45;nlmixr&#45;&gt;conda&#45;forge&#45;pinning -->
<g id="edge58" class="edge">
<title>r&#45;nlmixr&#45;&gt;conda&#45;forge&#45;pinning</title>
<path fill="none" stroke="black" d="M2234.29,-77.8C2225.6,-75.55 2216.33,-73.44 2207.59,-72 1966.55,-32.34 1679.8,-22.17 1524.75,-19.68"/>
<polygon fill="black" stroke="black" points="1524.78,-16.18 1514.73,-19.53 1524.67,-23.18 1524.78,-16.18"/>
</g>
<!-- r&#45;tiledb -->
<g id="node34" class="node">
<title>r&#45;tiledb</title>
<g id="a_node34"><a xlink:href="https://github.com/conda-forge/r-tiledb-feedstock/pull/5" xlink:title="r tiledb">
<ellipse fill="#31688e" stroke="black" cx="2309.59" cy="-234" rx="50.09" ry="18"/>
<text text-anchor="middle" x="2309.59" y="-230.3" font-family="Times,serif" font-size="14.00" fill="white">r tiledb</text>
</a>
</g>
</g>
<!-- r&#45;tiledb&#45;&gt;conda&#45;forge&#45;pinning -->
<g id="edge59" class="edge">
<title>r&#45;tiledb&#45;&gt;conda&#45;forge&#45;pinning</title>
<path fill="none" stroke="black" d="M2319.3,-216.24C2336.71,-183.72 2368.13,-111.77 2330.59,-72 2303.3,-43.09 1763.03,-27.1 1523.87,-21.41"/>
<polygon fill="black" stroke="black" points="1523.83,-17.91 1513.75,-21.17 1523.66,-24.91 1523.83,-17.91"/>
</g>
<!-- r&#45;raceid -->
<g id="node35" class="node">
<title>r&#45;raceid</title>
<g id="a_node35"><a xlink:href="https://github.com/conda-forge/r-raceid-feedstock" xlink:title="r raceid">
<ellipse fill="#35b779" stroke="black" cx="2367.59" cy="-306" rx="50.09" ry="18"/>
<text text-anchor="middle" x="2367.59" y="-302.3" font-family="Times,serif" font-size="14.00">r raceid</text>
</a>
</g>
</g>
<!-- r&#45;raceid&#45;&gt;conda&#45;forge&#45;pinning -->
<g id="edge60" class="edge">
<title>r&#45;raceid&#45;&gt;conda&#45;forge&#45;pinning</title>
<path fill="none" stroke="black" d="M2373.21,-288.09C2386.39,-244.81 2413.86,-129.47 2353.59,-72 2323.99,-43.78 1767.04,-27.33 1523.74,-21.46"/>
<polygon fill="black" stroke="black" points="1523.53,-17.96 1513.45,-21.22 1523.36,-24.96 1523.53,-17.96"/>
</g>
<!-- r&#45;botor -->
<g id="node36" class="node">
<title>r&#45;botor</title>
<g id="a_node36"><a xlink:href="https://github.com/conda-forge/r-botor-feedstock" xlink:title="r botor">
<ellipse fill="#35b779" stroke="black" cx="2445.59" cy="-378" rx="45" ry="18"/>
<text text-anchor="middle" x="2445.59" y="-374.3" font-family="Times,serif" font-size="14.00">r botor</text>
</a>
</g>
</g>
<!-- r&#45;botor&#45;&gt;conda&#45;forge&#45;pinning -->
<g id="edge61" class="edge">
<title>r&#45;botor&#45;&gt;conda&#45;forge&#45;pinning</title>
<path fill="none" stroke="black" d="M2445.59,-359.95C2445.59,-333.29 2445.59,-280.11 2445.59,-235 2445.59,-235 2445.59,-235 2445.59,-161 2445.59,-112.02 2423.64,-95.37 2380.59,-72 2307.1,-32.11 1764.86,-22.21 1525.08,-19.78"/>
<polygon fill="black" stroke="black" points="1524.97,-16.28 1514.94,-19.68 1524.9,-23.28 1524.97,-16.28"/>
</g>
<!-- r&#45;slider -->
<g id="node37" class="node">
<title>r&#45;slider</title>
<g id="a_node37"><a xlink:href="https://github.com/conda-forge/r-slider-feedstock" xlink:title="r slider">
<ellipse fill="#35b779" stroke="black" cx="2032.59" cy="-162" rx="50.09" ry="18"/>
<text text-anchor="middle" x="2032.59" y="-158.3" font-family="Times,serif" font-size="14.00">r slider</text>
</a>
</g>
</g>
<!-- r&#45;slider&#45;&gt;conda&#45;forge&#45;pinning -->
<g id="edge62" class="edge">
<title>r&#45;slider&#45;&gt;conda&#45;forge&#45;pinning</title>
<path fill="none" stroke="black" d="M2060.17,-146.8C2074.47,-137.8 2090.59,-124.7 2098.59,-108 2105.51,-93.57 2109.46,-83.74 2098.59,-72 2060.51,-30.87 1709.94,-21.56 1524.87,-19.52"/>
<polygon fill="black" stroke="black" points="1524.86,-16.02 1514.82,-19.41 1524.79,-23.02 1524.86,-16.02"/>
</g>
<!-- r&#45;slider&#45;&gt;r&#45;feasts -->
<g id="edge63" class="edge">
<title>r&#45;slider&#45;&gt;r&#45;feasts</title>
<path fill="none" stroke="black" d="M2034.32,-143.7C2035.09,-135.98 2036.02,-126.71 2036.88,-118.11"/>
<polygon fill="black" stroke="black" points="2040.37,-118.4 2037.88,-108.1 2033.4,-117.71 2040.37,-118.4"/>
</g>
<!-- r&#45;comparegroups -->
<g id="node38" class="node">
<title>r&#45;comparegroups</title>
<g id="a_node38"><a xlink:href="https://github.com/conda-forge/r-comparegroups-feedstock" xlink:title="r comparegroups">
<ellipse fill="#35b779" stroke="black" cx="2557.59" cy="-90" rx="84" ry="18"/>
<text text-anchor="middle" x="2557.59" y="-86.3" font-family="Times,serif" font-size="14.00">r comparegroups</text>
</a>
</g>
</g>
<!-- r&#45;comparegroups&#45;&gt;conda&#45;forge&#45;pinning -->
<g id="edge64" class="edge">
<title>r&#45;comparegroups&#45;&gt;conda&#45;forge&#45;pinning</title>
<path fill="none" stroke="black" d="M2497.38,-77.37C2484.92,-75.3 2471.86,-73.37 2459.59,-72 2120.75,-34.18 1717.23,-23.33 1524.7,-20.23"/>
<polygon fill="black" stroke="black" points="1524.62,-16.73 1514.57,-20.07 1524.51,-23.73 1524.62,-16.73"/>
</g>
</g>
</svg>
