<?xml version="1.0" encoding="UTF-8" standalone="no"?>
<!DOCTYPE svg PUBLIC "-//W3C//DTD SVG 1.1//EN"
 "http://www.w3.org/Graphics/SVG/1.1/DTD/svg11.dtd">
<!-- Generated by graphviz version 2.42.3 (20191010.1750)
 -->
<!-- Title: %3 Pages: 1 -->
<svg width="2185pt" height="476pt"
 viewBox="0.00 0.00 2185.45 476.00" xmlns="http://www.w3.org/2000/svg" xmlns:xlink="http://www.w3.org/1999/xlink">
<g id="graph0" class="graph" transform="scale(1 1) rotate(0) translate(4 472)">
<title>%3</title>
<polygon fill="white" stroke="transparent" points="-4,4 -4,-472 2181.45,-472 2181.45,4 -4,4"/>
<!-- r&#45;fst -->
<g id="node1" class="node">
<title>r&#45;fst</title>
<g id="a_node1"><a xlink:href="https://github.com/conda-forge/r-fst-feedstock/pull/11" xlink:title="r fst">
<ellipse fill="#31688e" stroke="black" cx="38.36" cy="-162" rx="35.19" ry="18"/>
<text text-anchor="middle" x="38.36" y="-158.3" font-family="Times,serif" font-size="14.00" fill="white">r fst</text>
</a>
</g>
</g>
<!-- r&#45;disk.frame -->
<g id="node2" class="node">
<title>r&#45;disk.frame</title>
<g id="a_node2"><a xlink:href="https://github.com/conda-forge/r-disk.frame-feedstock" xlink:title="r disk frame">
<ellipse fill="#fde725" stroke="black" cx="87.36" cy="-90" rx="69.59" ry="18"/>
<text text-anchor="middle" x="87.36" y="-86.3" font-family="Times,serif" font-size="14.00">r disk frame</text>
</a>
</g>
</g>
<!-- r&#45;fst&#45;&gt;r&#45;disk.frame -->
<g id="edge1" class="edge">
<title>r&#45;fst&#45;&gt;r&#45;disk.frame</title>
<path fill="none" stroke="black" d="M49.73,-144.76C55.62,-136.35 62.94,-125.89 69.56,-116.44"/>
<polygon fill="black" stroke="black" points="72.51,-118.32 75.38,-108.12 66.78,-114.31 72.51,-118.32"/>
</g>
<!-- conda&#45;forge&#45;pinning -->
<g id="node3" class="node">
<title>conda&#45;forge&#45;pinning</title>
<ellipse fill="none" stroke="black" cx="1056.36" cy="-18" rx="103.5" ry="18"/>
<text text-anchor="middle" x="1056.36" y="-14.3" font-family="Times,serif" font-size="14.00">conda&#45;forge&#45;pinning</text>
</g>
<!-- r&#45;fst&#45;&gt;conda&#45;forge&#45;pinning -->
<g id="edge2" class="edge">
<title>r&#45;fst&#45;&gt;conda&#45;forge&#45;pinning</title>
<path fill="none" stroke="black" d="M24.55,-145.11C9.22,-125.51 -10.96,-92.33 8.36,-72 40.18,-38.54 679.07,-24.83 943.39,-20.58"/>
<polygon fill="black" stroke="black" points="943.46,-24.08 953.4,-20.42 943.35,-17.08 943.46,-24.08"/>
</g>
<!-- r&#45;disk.frame&#45;&gt;conda&#45;forge&#45;pinning -->
<g id="edge3" class="edge">
<title>r&#45;disk.frame&#45;&gt;conda&#45;forge&#45;pinning</title>
<path fill="none" stroke="black" d="M137.81,-77.6C148.82,-75.45 160.45,-73.42 171.36,-72 447.32,-35.99 774.94,-24.41 943.58,-20.71"/>
<polygon fill="black" stroke="black" points="943.8,-24.21 953.72,-20.49 943.65,-17.21 943.8,-24.21"/>
</g>
<!-- r&#45;hive -->
<g id="node4" class="node">
<title>r&#45;hive</title>
<g id="a_node4"><a xlink:href="https://github.com/conda-forge/r-hive-feedstock" xlink:title="r hive">
<ellipse fill="#fde725" stroke="black" cx="1309.36" cy="-234" rx="40.5" ry="18"/>
<text text-anchor="middle" x="1309.36" y="-230.3" font-family="Times,serif" font-size="14.00">r hive</text>
</a>
</g>
</g>
<!-- r&#45;hive&#45;&gt;conda&#45;forge&#45;pinning -->
<g id="edge4" class="edge">
<title>r&#45;hive&#45;&gt;conda&#45;forge&#45;pinning</title>
<path fill="none" stroke="black" d="M1308.6,-215.87C1306.18,-183.04 1296.12,-111.02 1254.36,-72 1228.93,-48.23 1194.01,-34.88 1160.58,-27.47"/>
<polygon fill="black" stroke="black" points="1161.23,-24.03 1150.73,-25.44 1159.82,-30.89 1161.23,-24.03"/>
</g>
<!-- r&#45;rjava -->
<g id="node5" class="node">
<title>r&#45;rjava</title>
<g id="a_node5"><a xlink:href="https://github.com/conda-forge/r-rjava-feedstock" xlink:title="r rjava">
<ellipse fill="#35b779" stroke="black" cx="857.36" cy="-450" rx="45" ry="18"/>
<text text-anchor="middle" x="857.36" y="-446.3" font-family="Times,serif" font-size="14.00">r rjava</text>
</a>
</g>
</g>
<!-- r&#45;rjava&#45;&gt;conda&#45;forge&#45;pinning -->
<g id="edge5" class="edge">
<title>r&#45;rjava&#45;&gt;conda&#45;forge&#45;pinning</title>
<path fill="none" stroke="black" d="M902.09,-446.97C1013.96,-441.47 1299.2,-424.75 1330.36,-396 1437.4,-297.24 1396.81,-160.78 1281.36,-72 1247.93,-46.29 1204.03,-32.76 1163.89,-25.74"/>
<polygon fill="black" stroke="black" points="1164.2,-22.24 1153.77,-24.09 1163.08,-29.15 1164.2,-22.24"/>
</g>
<!-- r&#45;rjava&#45;&gt;r&#45;hive -->
<g id="edge6" class="edge">
<title>r&#45;rjava&#45;&gt;r&#45;hive</title>
<path fill="none" stroke="black" d="M901.8,-447.04C1010.04,-441.81 1280.49,-425.85 1307.36,-396 1340.3,-359.41 1328.87,-296.97 1318.52,-261.56"/>
<polygon fill="black" stroke="black" points="1321.84,-260.43 1315.54,-251.92 1315.15,-262.5 1321.84,-260.43"/>
</g>
<!-- r&#45;xlsx -->
<g id="node6" class="node">
<title>r&#45;xlsx</title>
<g id="a_node6"><a xlink:href="https://github.com/conda-forge/r-xlsx-feedstock" xlink:title="r xlsx">
<ellipse fill="#fde725" stroke="black" cx="440.36" cy="-306" rx="40.5" ry="18"/>
<text text-anchor="middle" x="440.36" y="-302.3" font-family="Times,serif" font-size="14.00">r xlsx</text>
</a>
</g>
</g>
<!-- r&#45;rjava&#45;&gt;r&#45;xlsx -->
<g id="edge7" class="edge">
<title>r&#45;rjava&#45;&gt;r&#45;xlsx</title>
<path fill="none" stroke="black" d="M812.98,-447.01C728.57,-442.51 548.77,-429.21 497.36,-396 474.58,-381.28 459.11,-353.89 450.09,-333.36"/>
<polygon fill="black" stroke="black" points="453.25,-331.83 446.19,-323.93 446.78,-334.5 453.25,-331.83"/>
</g>
<!-- r&#45;xlsxjars -->
<g id="node7" class="node">
<title>r&#45;xlsxjars</title>
<g id="a_node7"><a xlink:href="https://github.com/conda-forge/r-xlsxjars-feedstock" xlink:title="r xlsxjars">
<ellipse fill="#fde725" stroke="black" cx="385.36" cy="-378" rx="60" ry="18"/>
<text text-anchor="middle" x="385.36" y="-374.3" font-family="Times,serif" font-size="14.00">r xlsxjars</text>
</a>
</g>
</g>
<!-- r&#45;rjava&#45;&gt;r&#45;xlsxjars -->
<g id="edge8" class="edge">
<title>r&#45;rjava&#45;&gt;r&#45;xlsxjars</title>
<path fill="none" stroke="black" d="M814.16,-444.59C740.87,-436.8 587.63,-419.22 459.36,-396 453.15,-394.88 446.67,-393.58 440.24,-392.21"/>
<polygon fill="black" stroke="black" points="440.75,-388.73 430.23,-390.01 439.25,-395.57 440.75,-388.73"/>
</g>
<!-- r&#45;xlconnectjars -->
<g id="node8" class="node">
<title>r&#45;xlconnectjars</title>
<g id="a_node8"><a xlink:href="https://github.com/conda-forge/r-xlconnectjars-feedstock" xlink:title="r xlconnectjars">
<ellipse fill="#fde725" stroke="black" cx="185.36" cy="-378" rx="84" ry="18"/>
<text text-anchor="middle" x="185.36" y="-374.3" font-family="Times,serif" font-size="14.00">r xlconnectjars</text>
</a>
</g>
</g>
<!-- r&#45;rjava&#45;&gt;r&#45;xlconnectjars -->
<g id="edge9" class="edge">
<title>r&#45;rjava&#45;&gt;r&#45;xlconnectjars</title>
<path fill="none" stroke="black" d="M813.3,-446.13C716.93,-439.6 480.29,-422.13 283.36,-396 274.66,-394.84 265.54,-393.48 256.53,-392.03"/>
<polygon fill="black" stroke="black" points="256.85,-388.53 246.41,-390.36 255.71,-395.44 256.85,-388.53"/>
</g>
<!-- r&#45;xlconnect -->
<g id="node9" class="node">
<title>r&#45;xlconnect</title>
<g id="a_node9"><a xlink:href="https://github.com/conda-forge/r-xlconnect-feedstock" xlink:title="r xlconnect">
<ellipse fill="#fde725" stroke="black" cx="278.36" cy="-306" rx="64.5" ry="18"/>
<text text-anchor="middle" x="278.36" y="-302.3" font-family="Times,serif" font-size="14.00">r xlconnect</text>
</a>
</g>
</g>
<!-- r&#45;rjava&#45;&gt;r&#45;xlconnect -->
<g id="edge10" class="edge">
<title>r&#45;rjava&#45;&gt;r&#45;xlconnect</title>
<path fill="none" stroke="black" d="M812.5,-447.21C689.95,-441.95 356.04,-425.08 316.36,-396 296.63,-381.54 287.05,-354.73 282.46,-334.3"/>
<polygon fill="black" stroke="black" points="285.86,-333.44 280.49,-324.3 278.99,-334.79 285.86,-333.44"/>
</g>
<!-- r&#45;rcdklibs -->
<g id="node10" class="node">
<title>r&#45;rcdklibs</title>
<g id="a_node10"><a xlink:href="https://github.com/conda-forge/r-rcdklibs-feedstock" xlink:title="r rcdklibs">
<ellipse fill="#fde725" stroke="black" cx="627.36" cy="-378" rx="60" ry="18"/>
<text text-anchor="middle" x="627.36" y="-374.3" font-family="Times,serif" font-size="14.00">r rcdklibs</text>
</a>
</g>
</g>
<!-- r&#45;rjava&#45;&gt;r&#45;rcdklibs -->
<g id="edge11" class="edge">
<title>r&#45;rjava&#45;&gt;r&#45;rcdklibs</title>
<path fill="none" stroke="black" d="M822.43,-438.37C783.88,-426.63 721.49,-407.65 677.67,-394.31"/>
<polygon fill="black" stroke="black" points="678.65,-390.95 668.07,-391.39 676.61,-397.65 678.65,-390.95"/>
</g>
<!-- r&#45;rcdk -->
<g id="node11" class="node">
<title>r&#45;rcdk</title>
<g id="a_node11"><a xlink:href="https://github.com/conda-forge/r-rcdk-feedstock" xlink:title="r rcdk">
<ellipse fill="#fde725" stroke="black" cx="627.36" cy="-306" rx="40.5" ry="18"/>
<text text-anchor="middle" x="627.36" y="-302.3" font-family="Times,serif" font-size="14.00">r rcdk</text>
</a>
</g>
</g>
<!-- r&#45;rjava&#45;&gt;r&#45;rcdk -->
<g id="edge12" class="edge">
<title>r&#45;rjava&#45;&gt;r&#45;rcdk</title>
<path fill="none" stroke="black" d="M834.04,-434.6C792.42,-408.9 705.31,-355.12 658.57,-326.27"/>
<polygon fill="black" stroke="black" points="660.41,-323.29 650.06,-321.01 656.73,-329.25 660.41,-323.29"/>
</g>
<!-- r&#45;rchoicedialogs -->
<g id="node12" class="node">
<title>r&#45;rchoicedialogs</title>
<g id="a_node12"><a xlink:href="https://github.com/conda-forge/r-rchoicedialogs-feedstock" xlink:title="r rchoicedialogs">
<ellipse fill="#fde725" stroke="black" cx="685.36" cy="-234" rx="89.08" ry="18"/>
<text text-anchor="middle" x="685.36" y="-230.3" font-family="Times,serif" font-size="14.00">r rchoicedialogs</text>
</a>
</g>
</g>
<!-- r&#45;rjava&#45;&gt;r&#45;rchoicedialogs -->
<g id="edge13" class="edge">
<title>r&#45;rjava&#45;&gt;r&#45;rchoicedialogs</title>
<path fill="none" stroke="black" d="M844.15,-432.56C814.22,-395.32 741.09,-304.33 705.49,-260.04"/>
<polygon fill="black" stroke="black" points="708.09,-257.69 699.1,-252.09 702.63,-262.07 708.09,-257.69"/>
</g>
<!-- r&#45;rwekajars -->
<g id="node13" class="node">
<title>r&#45;rwekajars</title>
<g id="a_node13"><a xlink:href="https://github.com/conda-forge/r-rwekajars-feedstock" xlink:title="r rwekajars">
<ellipse fill="#fde725" stroke="black" cx="857.36" cy="-234" rx="64.5" ry="18"/>
<text text-anchor="middle" x="857.36" y="-230.3" font-family="Times,serif" font-size="14.00">r rwekajars</text>
</a>
</g>
</g>
<!-- r&#45;rjava&#45;&gt;r&#45;rwekajars -->
<g id="edge14" class="edge">
<title>r&#45;rjava&#45;&gt;r&#45;rwekajars</title>
<path fill="none" stroke="black" d="M857.36,-431.85C857.36,-394.83 857.36,-307.18 857.36,-262.39"/>
<polygon fill="black" stroke="black" points="860.86,-262.23 857.36,-252.23 853.86,-262.23 860.86,-262.23"/>
</g>
<!-- r&#45;rweka -->
<g id="node14" class="node">
<title>r&#45;rweka</title>
<g id="a_node14"><a xlink:href="https://github.com/conda-forge/r-rweka-feedstock" xlink:title="r rweka">
<ellipse fill="#fde725" stroke="black" cx="896.36" cy="-162" rx="45" ry="18"/>
<text text-anchor="middle" x="896.36" y="-158.3" font-family="Times,serif" font-size="14.00">r rweka</text>
</a>
</g>
</g>
<!-- r&#45;rjava&#45;&gt;r&#45;rweka -->
<g id="edge15" class="edge">
<title>r&#45;rjava&#45;&gt;r&#45;rweka</title>
<path fill="none" stroke="black" d="M865.94,-432.19C882.39,-398.87 917.87,-321.65 930.36,-252 933.19,-236.25 934.87,-231.35 930.36,-216 927.44,-206.03 922.01,-196.17 916.33,-187.7"/>
<polygon fill="black" stroke="black" points="919.08,-185.53 910.41,-179.43 913.38,-189.6 919.08,-185.53"/>
</g>
<!-- r&#45;subspace -->
<g id="node15" class="node">
<title>r&#45;subspace</title>
<g id="a_node15"><a xlink:href="https://github.com/conda-forge/r-subspace-feedstock" xlink:title="r subspace">
<ellipse fill="#fde725" stroke="black" cx="1038.36" cy="-234" rx="60" ry="18"/>
<text text-anchor="middle" x="1038.36" y="-230.3" font-family="Times,serif" font-size="14.00">r subspace</text>
</a>
</g>
</g>
<!-- r&#45;rjava&#45;&gt;r&#45;subspace -->
<g id="edge16" class="edge">
<title>r&#45;rjava&#45;&gt;r&#45;subspace</title>
<path fill="none" stroke="black" d="M892.49,-438.58C915.44,-430.23 944.7,-416.5 964.36,-396 1000.72,-358.09 990.13,-335.59 1012.36,-288 1016.46,-279.23 1021.08,-269.72 1025.27,-261.2"/>
<polygon fill="black" stroke="black" points="1028.47,-262.62 1029.77,-252.11 1022.2,-259.52 1028.47,-262.62"/>
</g>
<!-- r&#45;rmcfs -->
<g id="node16" class="node">
<title>r&#45;rmcfs</title>
<g id="a_node16"><a xlink:href="https://github.com/conda-forge/r-rmcfs-feedstock" xlink:title="r rmcfs">
<ellipse fill="#fde725" stroke="black" cx="1091.36" cy="-162" rx="45" ry="18"/>
<text text-anchor="middle" x="1091.36" y="-158.3" font-family="Times,serif" font-size="14.00">r rmcfs</text>
</a>
</g>
</g>
<!-- r&#45;rjava&#45;&gt;r&#45;rmcfs -->
<g id="edge17" class="edge">
<title>r&#45;rjava&#45;&gt;r&#45;rmcfs</title>
<path fill="none" stroke="black" d="M896.67,-441.06C925.62,-433.55 964.46,-419.77 991.36,-396 1032.35,-359.78 1012.93,-327.88 1050.36,-288 1070.87,-266.15 1092.9,-278.24 1107.36,-252 1118.03,-232.65 1112.13,-207.69 1104.66,-189.12"/>
<polygon fill="black" stroke="black" points="1107.8,-187.55 1100.57,-179.8 1101.39,-190.37 1107.8,-187.55"/>
</g>
<!-- r&#45;rjdbc -->
<g id="node17" class="node">
<title>r&#45;rjdbc</title>
<g id="a_node17"><a xlink:href="https://github.com/conda-forge/r-rjdbc-feedstock" xlink:title="r rjdbc">
<ellipse fill="#fde725" stroke="black" cx="1129.36" cy="-90" rx="45" ry="18"/>
<text text-anchor="middle" x="1129.36" y="-86.3" font-family="Times,serif" font-size="14.00">r rjdbc</text>
</a>
</g>
</g>
<!-- r&#45;rjava&#45;&gt;r&#45;rjdbc -->
<g id="edge18" class="edge">
<title>r&#45;rjava&#45;&gt;r&#45;rjdbc</title>
<path fill="none" stroke="black" d="M899.57,-443.43C934.52,-437 983.86,-423.53 1018.36,-396 1062.15,-361.06 1047.44,-330.99 1083.36,-288 1098.91,-269.39 1111.34,-272.45 1124.36,-252 1142.27,-223.88 1140.65,-213 1145.36,-180 1147.63,-164.16 1147.7,-159.83 1145.36,-144 1144.07,-135.21 1141.62,-125.86 1139.02,-117.5"/>
<polygon fill="black" stroke="black" points="1142.31,-116.29 1135.85,-107.9 1135.66,-118.49 1142.31,-116.29"/>
</g>
<!-- r&#45;tabulizer -->
<g id="node18" class="node">
<title>r&#45;tabulizer</title>
<g id="a_node18"><a xlink:href="https://github.com/conda-forge/r-tabulizer-feedstock" xlink:title="r tabulizer">
<ellipse fill="#fde725" stroke="black" cx="1157.36" cy="-306" rx="64.5" ry="18"/>
<text text-anchor="middle" x="1157.36" y="-302.3" font-family="Times,serif" font-size="14.00">r tabulizer</text>
</a>
</g>
</g>
<!-- r&#45;rjava&#45;&gt;r&#45;tabulizer -->
<g id="edge19" class="edge">
<title>r&#45;rjava&#45;&gt;r&#45;tabulizer</title>
<path fill="none" stroke="black" d="M901.4,-446.23C948.23,-441.59 1023.04,-429.17 1078.36,-396 1104.76,-380.17 1127.18,-352.63 1141.32,-332.37"/>
<polygon fill="black" stroke="black" points="1144.34,-334.16 1147.04,-323.91 1138.54,-330.23 1144.34,-334.16"/>
</g>
<!-- r&#45;tabulizerjars -->
<g id="node19" class="node">
<title>r&#45;tabulizerjars</title>
<g id="a_node19"><a xlink:href="https://github.com/conda-forge/r-tabulizerjars-feedstock" xlink:title="r tabulizerjars">
<ellipse fill="#fde725" stroke="black" cx="1214.36" cy="-378" rx="84" ry="18"/>
<text text-anchor="middle" x="1214.36" y="-374.3" font-family="Times,serif" font-size="14.00">r tabulizerjars</text>
</a>
</g>
</g>
<!-- r&#45;rjava&#45;&gt;r&#45;tabulizerjars -->
<g id="edge20" class="edge">
<title>r&#45;rjava&#45;&gt;r&#45;tabulizerjars</title>
<path fill="none" stroke="black" d="M896.93,-441.24C956.66,-429.53 1070.71,-407.17 1144.6,-392.68"/>
<polygon fill="black" stroke="black" points="1145.61,-396.05 1154.75,-390.69 1144.27,-389.18 1145.61,-396.05"/>
</g>
<!-- r&#45;destinie -->
<g id="node20" class="node">
<title>r&#45;destinie</title>
<g id="a_node20"><a xlink:href="https://github.com/conda-forge/r-destinie-feedstock" xlink:title="r destinie">
<ellipse fill="#fde725" stroke="black" cx="442.36" cy="-234" rx="60" ry="18"/>
<text text-anchor="middle" x="442.36" y="-230.3" font-family="Times,serif" font-size="14.00">r destinie</text>
</a>
</g>
</g>
<!-- r&#45;rjava&#45;&gt;r&#45;destinie -->
<g id="edge21" class="edge">
<title>r&#45;rjava&#45;&gt;r&#45;destinie</title>
<path fill="none" stroke="black" d="M813.72,-445.57C741.13,-439.16 599.52,-423.49 558.36,-396 511,-364.36 523.7,-333.45 489.36,-288 481.99,-278.23 473.24,-268.05 465.31,-259.25"/>
<polygon fill="black" stroke="black" points="467.64,-256.62 458.31,-251.61 462.48,-261.35 467.64,-256.62"/>
</g>
<!-- r&#45;xlsx&#45;&gt;conda&#45;forge&#45;pinning -->
<g id="edge22" class="edge">
<title>r&#45;xlsx&#45;&gt;conda&#45;forge&#45;pinning</title>
<path fill="none" stroke="black" d="M414.44,-292.15C399.44,-283.16 381.89,-269.62 373.36,-252 366.39,-237.6 368.34,-231.19 373.36,-216 398.41,-140.3 410.84,-111.05 480.36,-72 556.89,-29.02 797.47,-20.02 942.38,-18.64"/>
<polygon fill="black" stroke="black" points="942.68,-22.14 952.65,-18.55 942.62,-15.14 942.68,-22.14"/>
</g>
<!-- r&#45;xlsx&#45;&gt;r&#45;destinie -->
<g id="edge23" class="edge">
<title>r&#45;xlsx&#45;&gt;r&#45;destinie</title>
<path fill="none" stroke="black" d="M440.86,-287.7C441.08,-279.98 441.34,-270.71 441.59,-262.11"/>
<polygon fill="black" stroke="black" points="445.09,-262.2 441.88,-252.1 438.09,-262 445.09,-262.2"/>
</g>
<!-- r&#45;xlsxjars&#45;&gt;conda&#45;forge&#45;pinning -->
<g id="edge24" class="edge">
<title>r&#45;xlsxjars&#45;&gt;conda&#45;forge&#45;pinning</title>
<path fill="none" stroke="black" d="M380.46,-359.92C365.79,-304.84 329.08,-132.06 426.36,-72 469.38,-45.44 776.78,-29.66 945.74,-22.9"/>
<polygon fill="black" stroke="black" points="946.06,-26.39 955.92,-22.5 945.79,-19.39 946.06,-26.39"/>
</g>
<!-- r&#45;xlsxjars&#45;&gt;r&#45;xlsx -->
<g id="edge25" class="edge">
<title>r&#45;xlsxjars&#45;&gt;r&#45;xlsx</title>
<path fill="none" stroke="black" d="M398.4,-360.41C405.18,-351.78 413.6,-341.06 421.12,-331.5"/>
<polygon fill="black" stroke="black" points="424,-333.5 427.42,-323.47 418.49,-329.17 424,-333.5"/>
</g>
<!-- r&#45;xlconnectjars&#45;&gt;conda&#45;forge&#45;pinning -->
<g id="edge26" class="edge">
<title>r&#45;xlconnectjars&#45;&gt;conda&#45;forge&#45;pinning</title>
<path fill="none" stroke="black" d="M185.36,-359.95C185.36,-333.29 185.36,-280.11 185.36,-235 185.36,-235 185.36,-235 185.36,-161 185.36,-104.74 224.09,-95.13 275.36,-72 334.79,-45.19 743.92,-28.79 945.12,-22.26"/>
<polygon fill="black" stroke="black" points="945.25,-25.76 955.13,-21.94 945.02,-18.76 945.25,-25.76"/>
</g>
<!-- r&#45;xlconnectjars&#45;&gt;r&#45;xlconnect -->
<g id="edge27" class="edge">
<title>r&#45;xlconnectjars&#45;&gt;r&#45;xlconnect</title>
<path fill="none" stroke="black" d="M207.4,-360.41C219.77,-351.1 235.36,-339.37 248.78,-329.27"/>
<polygon fill="black" stroke="black" points="250.92,-332.04 256.8,-323.23 246.71,-326.45 250.92,-332.04"/>
</g>
<!-- r&#45;xlconnect&#45;&gt;conda&#45;forge&#45;pinning -->
<g id="edge28" class="edge">
<title>r&#45;xlconnect&#45;&gt;conda&#45;forge&#45;pinning</title>
<path fill="none" stroke="black" d="M273.71,-287.85C263.11,-244.51 242.47,-129.98 302.36,-72 347.28,-28.52 743.12,-20.4 942.55,-19.1"/>
<polygon fill="black" stroke="black" points="942.8,-22.59 952.78,-19.03 942.76,-15.59 942.8,-22.59"/>
</g>
<!-- r&#45;rcdklibs&#45;&gt;conda&#45;forge&#45;pinning -->
<g id="edge29" class="edge">
<title>r&#45;rcdklibs&#45;&gt;conda&#45;forge&#45;pinning</title>
<path fill="none" stroke="black" d="M606.07,-361.11C595.26,-351.68 583.2,-338.7 577.36,-324 573.23,-313.59 574.2,-243.26 579.36,-216 594.4,-136.6 616.69,-105.19 690.36,-72 736.21,-51.35 862.96,-36.13 954.46,-27.42"/>
<polygon fill="black" stroke="black" points="954.96,-30.89 964.59,-26.47 954.31,-23.92 954.96,-30.89"/>
</g>
<!-- r&#45;rcdklibs&#45;&gt;r&#45;rcdk -->
<g id="edge30" class="edge">
<title>r&#45;rcdklibs&#45;&gt;r&#45;rcdk</title>
<path fill="none" stroke="black" d="M627.36,-359.7C627.36,-351.98 627.36,-342.71 627.36,-334.11"/>
<polygon fill="black" stroke="black" points="630.86,-334.1 627.36,-324.1 623.86,-334.1 630.86,-334.1"/>
</g>
<!-- r&#45;rcdk&#45;&gt;conda&#45;forge&#45;pinning -->
<g id="edge31" class="edge">
<title>r&#45;rcdk&#45;&gt;conda&#45;forge&#45;pinning</title>
<path fill="none" stroke="black" d="M611.29,-289.45C602.36,-279.66 592.12,-266.21 587.36,-252 582.28,-236.83 580.3,-230.36 587.36,-216 633.68,-121.88 678.63,-114.87 774.36,-72 830.22,-46.99 897.41,-33.78 952.19,-26.8"/>
<polygon fill="black" stroke="black" points="952.77,-30.26 962.27,-25.57 951.92,-23.31 952.77,-30.26"/>
</g>
<!-- r&#45;rchoicedialogs&#45;&gt;conda&#45;forge&#45;pinning -->
<g id="edge32" class="edge">
<title>r&#45;rchoicedialogs&#45;&gt;conda&#45;forge&#45;pinning</title>
<path fill="none" stroke="black" d="M694.82,-215.99C714.25,-182.71 762.06,-108.99 823.36,-72 862.74,-48.24 911.71,-35.12 954.58,-27.88"/>
<polygon fill="black" stroke="black" points="955.16,-31.33 964.48,-26.29 954.05,-24.42 955.16,-31.33"/>
</g>
<!-- r&#45;rwekajars&#45;&gt;conda&#45;forge&#45;pinning -->
<g id="edge33" class="edge">
<title>r&#45;rwekajars&#45;&gt;conda&#45;forge&#45;pinning</title>
<path fill="none" stroke="black" d="M848.63,-215.8C833.73,-183.79 808.1,-114.45 841.36,-72 856.87,-52.21 912.64,-38.81 963.49,-30.43"/>
<polygon fill="black" stroke="black" points="964.26,-33.85 973.59,-28.82 963.16,-26.94 964.26,-33.85"/>
</g>
<!-- r&#45;rwekajars&#45;&gt;r&#45;rweka -->
<g id="edge34" class="edge">
<title>r&#45;rwekajars&#45;&gt;r&#45;rweka</title>
<path fill="none" stroke="black" d="M866.8,-216.05C871.4,-207.8 877.03,-197.7 882.14,-188.54"/>
<polygon fill="black" stroke="black" points="885.2,-190.23 887.01,-179.79 879.09,-186.82 885.2,-190.23"/>
</g>
<!-- r&#45;rweka&#45;&gt;conda&#45;forge&#45;pinning -->
<g id="edge35" class="edge">
<title>r&#45;rweka&#45;&gt;conda&#45;forge&#45;pinning</title>
<path fill="none" stroke="black" d="M878.1,-145.17C858.8,-126.51 833.45,-95.14 851.36,-72 865.97,-53.14 918.47,-39.78 966.68,-31.19"/>
<polygon fill="black" stroke="black" points="967.31,-34.63 976.57,-29.48 966.12,-27.73 967.31,-34.63"/>
</g>
<!-- r&#45;fselector -->
<g id="node21" class="node">
<title>r&#45;fselector</title>
<g id="a_node21"><a xlink:href="https://github.com/conda-forge/r-fselector-feedstock" xlink:title="r fselector">
<ellipse fill="#fde725" stroke="black" cx="925.36" cy="-90" rx="64.5" ry="18"/>
<text text-anchor="middle" x="925.36" y="-86.3" font-family="Times,serif" font-size="14.00">r fselector</text>
</a>
</g>
</g>
<!-- r&#45;rweka&#45;&gt;r&#45;fselector -->
<g id="edge36" class="edge">
<title>r&#45;rweka&#45;&gt;r&#45;fselector</title>
<path fill="none" stroke="black" d="M903.38,-144.05C906.65,-136.18 910.61,-126.62 914.26,-117.79"/>
<polygon fill="black" stroke="black" points="917.61,-118.85 918.21,-108.28 911.15,-116.17 917.61,-118.85"/>
</g>
<!-- r&#45;subspace&#45;&gt;conda&#45;forge&#45;pinning -->
<g id="edge37" class="edge">
<title>r&#45;subspace&#45;&gt;conda&#45;forge&#45;pinning</title>
<path fill="none" stroke="black" d="M1037.96,-215.82C1037.73,-205.44 1037.48,-191.96 1037.36,-180 1037.21,-164 1036.16,-159.95 1037.36,-144 1039.93,-110.1 1046.34,-71.47 1051.01,-46.24"/>
<polygon fill="black" stroke="black" points="1054.47,-46.77 1052.89,-36.3 1047.59,-45.47 1054.47,-46.77"/>
</g>
<!-- r&#45;rmcfs&#45;&gt;conda&#45;forge&#45;pinning -->
<g id="edge38" class="edge">
<title>r&#45;rmcfs&#45;&gt;conda&#45;forge&#45;pinning</title>
<path fill="none" stroke="black" d="M1085.81,-143.92C1082.55,-133.58 1078.48,-120.1 1075.36,-108 1070.08,-87.47 1065.12,-64.02 1061.59,-46.34"/>
<polygon fill="black" stroke="black" points="1064.95,-45.3 1059.59,-36.16 1058.08,-46.65 1064.95,-45.3"/>
</g>
<!-- r&#45;rjdbc&#45;&gt;conda&#45;forge&#45;pinning -->
<g id="edge39" class="edge">
<title>r&#45;rjdbc&#45;&gt;conda&#45;forge&#45;pinning</title>
<path fill="none" stroke="black" d="M1112.8,-73.12C1103.46,-64.16 1091.6,-52.79 1081.17,-42.79"/>
<polygon fill="black" stroke="black" points="1083.52,-40.19 1073.88,-35.8 1078.68,-45.24 1083.52,-40.19"/>
</g>
<!-- r&#45;tabulizer&#45;&gt;conda&#45;forge&#45;pinning -->
<g id="edge40" class="edge">
<title>r&#45;tabulizer&#45;&gt;conda&#45;forge&#45;pinning</title>
<path fill="none" stroke="black" d="M1166.14,-288.02C1185.98,-246.98 1229.18,-140.76 1183.36,-72 1171.81,-54.66 1153.38,-42.98 1134.11,-35.12"/>
<polygon fill="black" stroke="black" points="1135.2,-31.79 1124.61,-31.56 1132.75,-38.35 1135.2,-31.79"/>
</g>
<!-- r&#45;tabulizerjars&#45;&gt;conda&#45;forge&#45;pinning -->
<g id="edge41" class="edge">
<title>r&#45;tabulizerjars&#45;&gt;conda&#45;forge&#45;pinning</title>
<path fill="none" stroke="black" d="M1220.28,-359.98C1236.71,-309.33 1277.12,-157.7 1205.36,-72 1189.48,-53.04 1166.33,-40.86 1142.99,-33.03"/>
<polygon fill="black" stroke="black" points="1143.93,-29.66 1133.34,-30.04 1141.86,-36.35 1143.93,-29.66"/>
</g>
<!-- r&#45;tabulizerjars&#45;&gt;r&#45;tabulizer -->
<g id="edge42" class="edge">
<title>r&#45;tabulizerjars&#45;&gt;r&#45;tabulizer</title>
<path fill="none" stroke="black" d="M1200.57,-360.05C1193.63,-351.54 1185.11,-341.07 1177.46,-331.68"/>
<polygon fill="black" stroke="black" points="1180.06,-329.33 1171.03,-323.79 1174.64,-333.75 1180.06,-329.33"/>
</g>
<!-- r&#45;destinie&#45;&gt;conda&#45;forge&#45;pinning -->
<g id="edge43" class="edge">
<title>r&#45;destinie&#45;&gt;conda&#45;forge&#45;pinning</title>
<path fill="none" stroke="black" d="M444.64,-215.86C450.14,-182 467.5,-106.8 516.36,-72 550.61,-47.61 799.7,-31.46 947.33,-23.92"/>
<polygon fill="black" stroke="black" points="947.53,-27.42 957.34,-23.42 947.18,-20.43 947.53,-27.42"/>
</g>
<!-- r&#45;fselector&#45;&gt;conda&#45;forge&#45;pinning -->
<g id="edge49" class="edge">
<title>r&#45;fselector&#45;&gt;conda&#45;forge&#45;pinning</title>
<path fill="none" stroke="black" d="M953.79,-73.81C972.19,-63.98 996.41,-51.03 1016.7,-40.19"/>
<polygon fill="black" stroke="black" points="1018.54,-43.18 1025.71,-35.38 1015.24,-37.01 1018.54,-43.18"/>
</g>
<!-- rpy2 -->
<g id="node22" class="node">
<title>rpy2</title>
<g id="a_node22"><a xlink:href="https://github.com/conda-forge/rpy2-feedstock/pull/55" xlink:title="rpy2">
<ellipse fill="#31688e" stroke="black" cx="1418.36" cy="-162" rx="30.59" ry="18"/>
<text text-anchor="middle" x="1418.36" y="-158.3" font-family="Times,serif" font-size="14.00" fill="white">rpy2</text>
</a>
</g>
</g>
<!-- rpy2&#45;&gt;conda&#45;forge&#45;pinning -->
<g id="edge44" class="edge">
<title>rpy2&#45;&gt;conda&#45;forge&#45;pinning</title>
<path fill="none" stroke="black" d="M1405.25,-145.7C1385.33,-122.83 1347.9,-81.38 1330.36,-72 1279.69,-44.9 1217.15,-31.54 1164.63,-25"/>
<polygon fill="black" stroke="black" points="1164.94,-21.51 1154.6,-23.81 1164.12,-28.46 1164.94,-21.51"/>
</g>
<!-- iterativewgcna -->
<g id="node23" class="node">
<title>iterativewgcna</title>
<g id="a_node23"><a xlink:href="https://github.com/conda-forge/iterativewgcna-feedstock" xlink:title="iterativewgcna">
<ellipse fill="#fde725" stroke="black" cx="1461.36" cy="-90" rx="79.5" ry="18"/>
<text text-anchor="middle" x="1461.36" y="-86.3" font-family="Times,serif" font-size="14.00">iterativewgcna</text>
</a>
</g>
</g>
<!-- rpy2&#45;&gt;iterativewgcna -->
<g id="edge45" class="edge">
<title>rpy2&#45;&gt;iterativewgcna</title>
<path fill="none" stroke="black" d="M1428.34,-144.76C1433.45,-136.44 1439.8,-126.1 1445.56,-116.73"/>
<polygon fill="black" stroke="black" points="1448.59,-118.48 1450.84,-108.12 1442.63,-114.81 1448.59,-118.48"/>
</g>
<!-- iterativewgcna&#45;&gt;conda&#45;forge&#45;pinning -->
<g id="edge46" class="edge">
<title>iterativewgcna&#45;&gt;conda&#45;forge&#45;pinning</title>
<path fill="none" stroke="black" d="M1401.85,-78.01C1390.73,-75.98 1379.19,-73.91 1368.36,-72 1290.3,-58.23 1201.12,-43.15 1138.16,-32.61"/>
<polygon fill="black" stroke="black" points="1138.72,-29.15 1128.28,-30.95 1137.57,-36.06 1138.72,-29.15"/>
</g>
<!-- r&#45;rvaidememoire -->
<g id="node24" class="node">
<title>r&#45;rvaidememoire</title>
<g id="a_node24"><a xlink:href="https://github.com/conda-forge/r-rvaidememoire-feedstock" xlink:title="r rvaidememoire">
<ellipse fill="#35b779" stroke="black" cx="1642.36" cy="-90" rx="84" ry="18"/>
<text text-anchor="middle" x="1642.36" y="-86.3" font-family="Times,serif" font-size="14.00">r rvaidememoire</text>
</a>
</g>
</g>
<!-- r&#45;rvaidememoire&#45;&gt;conda&#45;forge&#45;pinning -->
<g id="edge47" class="edge">
<title>r&#45;rvaidememoire&#45;&gt;conda&#45;forge&#45;pinning</title>
<path fill="none" stroke="black" d="M1582.44,-77.38C1571.46,-75.44 1560.08,-73.55 1549.36,-72 1414.08,-52.39 1256.94,-36.72 1157.11,-27.64"/>
<polygon fill="black" stroke="black" points="1157.3,-24.14 1147.03,-26.73 1156.67,-31.11 1157.3,-24.14"/>
</g>
<!-- r&#45;hiver -->
<g id="node25" class="node">
<title>r&#45;hiver</title>
<g id="a_node25"><a xlink:href="https://github.com/conda-forge/r-hiver-feedstock" xlink:title="r hiver">
<ellipse fill="#35b779" stroke="black" cx="1719.36" cy="-162" rx="45" ry="18"/>
<text text-anchor="middle" x="1719.36" y="-158.3" font-family="Times,serif" font-size="14.00">r hiver</text>
</a>
</g>
</g>
<!-- r&#45;hiver&#45;&gt;conda&#45;forge&#45;pinning -->
<g id="edge48" class="edge">
<title>r&#45;hiver&#45;&gt;conda&#45;forge&#45;pinning</title>
<path fill="none" stroke="black" d="M1729.7,-144.25C1740.48,-124.41 1753.49,-91.59 1735.36,-72 1697.86,-31.45 1353.41,-21.86 1170.04,-19.64"/>
<polygon fill="black" stroke="black" points="1169.85,-16.13 1159.81,-19.52 1169.77,-23.13 1169.85,-16.13"/>
</g>
<!-- r&#45;littler -->
<g id="node26" class="node">
<title>r&#45;littler</title>
<g id="a_node26"><a xlink:href="https://github.com/conda-forge/r-littler-feedstock/pull/2" xlink:title="r littler">
<ellipse fill="#31688e" stroke="black" cx="1792.36" cy="-234" rx="54.69" ry="18"/>
<text text-anchor="middle" x="1792.36" y="-230.3" font-family="Times,serif" font-size="14.00" fill="white">r littler</text>
</a>
</g>
</g>
<!-- r&#45;littler&#45;&gt;conda&#45;forge&#45;pinning -->
<g id="edge50" class="edge">
<title>r&#45;littler&#45;&gt;conda&#45;forge&#45;pinning</title>
<path fill="none" stroke="black" d="M1794.27,-215.78C1796.92,-182.11 1797.29,-107.74 1754.36,-72 1710.52,-35.49 1355.38,-24.03 1169.26,-20.51"/>
<polygon fill="black" stroke="black" points="1169.23,-17.01 1159.17,-20.32 1169.1,-24.01 1169.23,-17.01"/>
</g>
<!-- r&#45;rxode -->
<g id="node27" class="node">
<title>r&#45;rxode</title>
<g id="a_node27"><a xlink:href="https://github.com/conda-forge/r-rxode-feedstock/pull/3" xlink:title="r rxode">
<ellipse fill="#31688e" stroke="black" cx="1887.36" cy="-162" rx="45" ry="18"/>
<text text-anchor="middle" x="1887.36" y="-158.3" font-family="Times,serif" font-size="14.00" fill="white">r rxode</text>
</a>
</g>
</g>
<!-- r&#45;rxode&#45;&gt;conda&#45;forge&#45;pinning -->
<g id="edge51" class="edge">
<title>r&#45;rxode&#45;&gt;conda&#45;forge&#45;pinning</title>
<path fill="none" stroke="black" d="M1874.96,-144.68C1856.82,-121.32 1823.38,-80.25 1806.36,-72 1750.44,-44.88 1362.56,-28.78 1167.65,-22.31"/>
<polygon fill="black" stroke="black" points="1167.48,-18.8 1157.37,-21.97 1167.25,-25.8 1167.48,-18.8"/>
</g>
<!-- r&#45;nlmixr -->
<g id="node28" class="node">
<title>r&#45;nlmixr</title>
<g id="a_node28"><a xlink:href="https://github.com/conda-forge/r-nlmixr-feedstock" xlink:title="r nlmixr">
<ellipse fill="#fde725" stroke="black" cx="1908.36" cy="-90" rx="50.09" ry="18"/>
<text text-anchor="middle" x="1908.36" y="-86.3" font-family="Times,serif" font-size="14.00">r nlmixr</text>
</a>
</g>
</g>
<!-- r&#45;rxode&#45;&gt;r&#45;nlmixr -->
<g id="edge52" class="edge">
<title>r&#45;rxode&#45;&gt;r&#45;nlmixr</title>
<path fill="none" stroke="black" d="M1892.45,-144.05C1894.79,-136.26 1897.62,-126.82 1900.24,-118.08"/>
<polygon fill="black" stroke="black" points="1903.66,-118.86 1903.18,-108.28 1896.96,-116.85 1903.66,-118.86"/>
</g>
<!-- r&#45;nlmixr&#45;&gt;conda&#45;forge&#45;pinning -->
<g id="edge53" class="edge">
<title>r&#45;nlmixr&#45;&gt;conda&#45;forge&#45;pinning</title>
<path fill="none" stroke="black" d="M1871.06,-77.8C1862.37,-75.55 1853.1,-73.44 1844.36,-72 1606.65,-32.81 1324.02,-22.45 1170.12,-19.8"/>
<polygon fill="black" stroke="black" points="1169.78,-16.3 1159.72,-19.63 1169.66,-23.3 1169.78,-16.3"/>
</g>
<!-- r&#45;tiledb -->
<g id="node29" class="node">
<title>r&#45;tiledb</title>
<g id="a_node29"><a xlink:href="https://github.com/conda-forge/r-tiledb-feedstock/pull/5" xlink:title="r tiledb">
<ellipse fill="#31688e" stroke="black" cx="1986.36" cy="-306" rx="50.09" ry="18"/>
<text text-anchor="middle" x="1986.36" y="-302.3" font-family="Times,serif" font-size="14.00" fill="white">r tiledb</text>
</a>
</g>
</g>
<!-- r&#45;tiledb&#45;&gt;conda&#45;forge&#45;pinning -->
<g id="edge54" class="edge">
<title>r&#45;tiledb&#45;&gt;conda&#45;forge&#45;pinning</title>
<path fill="none" stroke="black" d="M1991.49,-287.87C2003.26,-244.58 2026.88,-130.14 1967.36,-72 1939.21,-44.49 1405.56,-27.75 1168.37,-21.64"/>
<polygon fill="black" stroke="black" points="1168.42,-18.14 1158.34,-21.38 1168.24,-25.14 1168.42,-18.14"/>
</g>
<!-- r&#45;googlecloudstorager -->
<g id="node30" class="node">
<title>r&#45;googlecloudstorager</title>
<g id="a_node30"><a xlink:href="https://github.com/conda-forge/r-googlecloudstorager-feedstock/pull/1" xlink:title="r googlecloudstorager">
<ellipse fill="#31688e" stroke="black" cx="2064.36" cy="-378" rx="113.18" ry="18"/>
<text text-anchor="middle" x="2064.36" y="-374.3" font-family="Times,serif" font-size="14.00" fill="white">r googlecloudstorager</text>
</a>
</g>
</g>
<!-- r&#45;googlecloudstorager&#45;&gt;conda&#45;forge&#45;pinning -->
<g id="edge55" class="edge">
<title>r&#45;googlecloudstorager&#45;&gt;conda&#45;forge&#45;pinning</title>
<path fill="none" stroke="black" d="M2064.36,-359.95C2064.36,-333.29 2064.36,-280.11 2064.36,-235 2064.36,-235 2064.36,-235 2064.36,-161 2064.36,-110.4 2038.32,-95.23 1993.36,-72 1921.87,-35.06 1402.68,-23.57 1169.37,-20.25"/>
<polygon fill="black" stroke="black" points="1169.21,-16.75 1159.16,-20.11 1169.11,-23.75 1169.21,-16.75"/>
</g>
</g>
</svg>
