<?xml version="1.0" encoding="UTF-8" standalone="no"?>
<!DOCTYPE svg PUBLIC "-//W3C//DTD SVG 1.1//EN"
 "http://www.w3.org/Graphics/SVG/1.1/DTD/svg11.dtd">
<!-- Generated by graphviz version 2.42.3 (20191010.1750)
 -->
<!-- Title: %3 Pages: 1 -->
<svg width="2550pt" height="476pt"
 viewBox="0.00 0.00 2550.41 476.00" xmlns="http://www.w3.org/2000/svg" xmlns:xlink="http://www.w3.org/1999/xlink">
<g id="graph0" class="graph" transform="scale(1 1) rotate(0) translate(4 472)">
<title>%3</title>
<polygon fill="white" stroke="transparent" points="-4,4 -4,-472 2546.41,-472 2546.41,4 -4,4"/>
<!-- r&#45;fst -->
<g id="node1" class="node">
<title>r&#45;fst</title>
<g id="a_node1"><a xlink:href="https://github.com/conda-forge/r-fst-feedstock/pull/11" xlink:title="r fst">
<ellipse fill="#31688e" stroke="black" cx="38.41" cy="-162" rx="35.19" ry="18"/>
<text text-anchor="middle" x="38.41" y="-158.3" font-family="Times,serif" font-size="14.00" fill="white">r fst</text>
</a>
</g>
</g>
<!-- r&#45;disk.frame -->
<g id="node2" class="node">
<title>r&#45;disk.frame</title>
<g id="a_node2"><a xlink:href="https://github.com/conda-forge/r-disk.frame-feedstock" xlink:title="r disk frame">
<ellipse fill="#fde725" stroke="black" cx="87.41" cy="-90" rx="69.59" ry="18"/>
<text text-anchor="middle" x="87.41" y="-86.3" font-family="Times,serif" font-size="14.00">r disk frame</text>
</a>
</g>
</g>
<!-- r&#45;fst&#45;&gt;r&#45;disk.frame -->
<g id="edge1" class="edge">
<title>r&#45;fst&#45;&gt;r&#45;disk.frame</title>
<path fill="none" stroke="black" d="M49.77,-144.76C55.66,-136.35 62.98,-125.89 69.6,-116.44"/>
<polygon fill="black" stroke="black" points="72.55,-118.32 75.42,-108.12 66.82,-114.31 72.55,-118.32"/>
</g>
<!-- conda&#45;forge&#45;pinning -->
<g id="node3" class="node">
<title>conda&#45;forge&#45;pinning</title>
<ellipse fill="none" stroke="black" cx="1213.41" cy="-18" rx="103.5" ry="18"/>
<text text-anchor="middle" x="1213.41" y="-14.3" font-family="Times,serif" font-size="14.00">conda&#45;forge&#45;pinning</text>
</g>
<!-- r&#45;fst&#45;&gt;conda&#45;forge&#45;pinning -->
<g id="edge2" class="edge">
<title>r&#45;fst&#45;&gt;conda&#45;forge&#45;pinning</title>
<path fill="none" stroke="black" d="M24.57,-145.09C9.22,-125.47 -10.99,-92.26 8.41,-72 45.79,-32.94 807.29,-22.41 1100.08,-19.8"/>
<polygon fill="black" stroke="black" points="1100.33,-23.29 1110.29,-19.71 1100.26,-16.29 1100.33,-23.29"/>
</g>
<!-- r&#45;disk.frame&#45;&gt;conda&#45;forge&#45;pinning -->
<g id="edge3" class="edge">
<title>r&#45;disk.frame&#45;&gt;conda&#45;forge&#45;pinning</title>
<path fill="none" stroke="black" d="M137.84,-77.53C148.85,-75.38 160.48,-73.38 171.41,-72 507.09,-29.73 907.63,-20.93 1099.69,-19.26"/>
<polygon fill="black" stroke="black" points="1099.83,-22.76 1109.8,-19.18 1099.77,-15.76 1099.83,-22.76"/>
</g>
<!-- r&#45;hive -->
<g id="node4" class="node">
<title>r&#45;hive</title>
<g id="a_node4"><a xlink:href="https://github.com/conda-forge/r-hive-feedstock" xlink:title="r hive">
<ellipse fill="#fde725" stroke="black" cx="1326.41" cy="-378" rx="40.5" ry="18"/>
<text text-anchor="middle" x="1326.41" y="-374.3" font-family="Times,serif" font-size="14.00">r hive</text>
</a>
</g>
</g>
<!-- r&#45;hive&#45;&gt;conda&#45;forge&#45;pinning -->
<g id="edge4" class="edge">
<title>r&#45;hive&#45;&gt;conda&#45;forge&#45;pinning</title>
<path fill="none" stroke="black" d="M1320.45,-360.11C1305.64,-317.87 1266.24,-204.12 1237.41,-108 1231.24,-87.44 1224.94,-63.98 1220.35,-46.32"/>
<polygon fill="black" stroke="black" points="1223.61,-44.95 1217.72,-36.14 1216.83,-46.7 1223.61,-44.95"/>
</g>
<!-- r&#45;rjava -->
<g id="node5" class="node">
<title>r&#45;rjava</title>
<g id="a_node5"><a xlink:href="https://github.com/conda-forge/r-rjava-feedstock" xlink:title="r rjava">
<ellipse fill="#35b779" stroke="black" cx="881.41" cy="-450" rx="45" ry="18"/>
<text text-anchor="middle" x="881.41" y="-446.3" font-family="Times,serif" font-size="14.00">r rjava</text>
</a>
</g>
</g>
<!-- r&#45;rjava&#45;&gt;conda&#45;forge&#45;pinning -->
<g id="edge5" class="edge">
<title>r&#45;rjava&#45;&gt;conda&#45;forge&#45;pinning</title>
<path fill="none" stroke="black" d="M926.33,-447.54C1042.47,-443.3 1345.64,-429.12 1375.41,-396 1386.1,-384.1 1378.92,-375.61 1375.41,-360 1360.54,-294.05 1264.43,-112.95 1227.67,-45.11"/>
<polygon fill="black" stroke="black" points="1230.74,-43.43 1222.89,-36.32 1224.59,-46.77 1230.74,-43.43"/>
</g>
<!-- r&#45;rjava&#45;&gt;r&#45;hive -->
<g id="edge6" class="edge">
<title>r&#45;rjava&#45;&gt;r&#45;hive</title>
<path fill="none" stroke="black" d="M925.46,-445.9C998.96,-440.1 1150.95,-425.45 1276.41,-396 1279.81,-395.2 1283.31,-394.26 1286.81,-393.24"/>
<polygon fill="black" stroke="black" points="1288.03,-396.53 1296.54,-390.21 1285.95,-389.84 1288.03,-396.53"/>
</g>
<!-- r&#45;xlsx -->
<g id="node6" class="node">
<title>r&#45;xlsx</title>
<g id="a_node6"><a xlink:href="https://github.com/conda-forge/r-xlsx-feedstock" xlink:title="r xlsx">
<ellipse fill="#fde725" stroke="black" cx="440.41" cy="-306" rx="40.5" ry="18"/>
<text text-anchor="middle" x="440.41" y="-302.3" font-family="Times,serif" font-size="14.00">r xlsx</text>
</a>
</g>
</g>
<!-- r&#45;rjava&#45;&gt;r&#45;xlsx -->
<g id="edge7" class="edge">
<title>r&#45;rjava&#45;&gt;r&#45;xlsx</title>
<path fill="none" stroke="black" d="M836.83,-447.47C748.04,-443.7 552.89,-431.5 497.41,-396 474.56,-381.38 459.09,-353.97 450.1,-333.42"/>
<polygon fill="black" stroke="black" points="453.25,-331.88 446.2,-323.96 446.78,-334.54 453.25,-331.88"/>
</g>
<!-- r&#45;xlsxjars -->
<g id="node7" class="node">
<title>r&#45;xlsxjars</title>
<g id="a_node7"><a xlink:href="https://github.com/conda-forge/r-xlsxjars-feedstock" xlink:title="r xlsxjars">
<ellipse fill="#fde725" stroke="black" cx="385.41" cy="-378" rx="60" ry="18"/>
<text text-anchor="middle" x="385.41" y="-374.3" font-family="Times,serif" font-size="14.00">r xlsxjars</text>
</a>
</g>
</g>
<!-- r&#45;rjava&#45;&gt;r&#45;xlsxjars -->
<g id="edge8" class="edge">
<title>r&#45;rjava&#45;&gt;r&#45;xlsxjars</title>
<path fill="none" stroke="black" d="M838.06,-445.01C761.35,-437.63 596.82,-420.35 459.41,-396 453.19,-394.9 446.71,-393.61 440.28,-392.25"/>
<polygon fill="black" stroke="black" points="440.78,-388.78 430.26,-390.07 439.28,-395.62 440.78,-388.78"/>
</g>
<!-- r&#45;xlconnectjars -->
<g id="node8" class="node">
<title>r&#45;xlconnectjars</title>
<g id="a_node8"><a xlink:href="https://github.com/conda-forge/r-xlconnectjars-feedstock" xlink:title="r xlconnectjars">
<ellipse fill="#fde725" stroke="black" cx="185.41" cy="-378" rx="84" ry="18"/>
<text text-anchor="middle" x="185.41" y="-374.3" font-family="Times,serif" font-size="14.00">r xlconnectjars</text>
</a>
</g>
</g>
<!-- r&#45;rjava&#45;&gt;r&#45;xlconnectjars -->
<g id="edge9" class="edge">
<title>r&#45;rjava&#45;&gt;r&#45;xlconnectjars</title>
<path fill="none" stroke="black" d="M837.01,-446.34C737.58,-440.09 489.58,-422.97 283.41,-396 274.7,-394.86 265.58,-393.5 256.56,-392.06"/>
<polygon fill="black" stroke="black" points="256.88,-388.57 246.45,-390.4 255.75,-395.47 256.88,-388.57"/>
</g>
<!-- r&#45;xlconnect -->
<g id="node9" class="node">
<title>r&#45;xlconnect</title>
<g id="a_node9"><a xlink:href="https://github.com/conda-forge/r-xlconnect-feedstock" xlink:title="r xlconnect">
<ellipse fill="#fde725" stroke="black" cx="278.41" cy="-306" rx="64.5" ry="18"/>
<text text-anchor="middle" x="278.41" y="-302.3" font-family="Times,serif" font-size="14.00">r xlconnect</text>
</a>
</g>
</g>
<!-- r&#45;rjava&#45;&gt;r&#45;xlconnect -->
<g id="edge10" class="edge">
<title>r&#45;rjava&#45;&gt;r&#45;xlconnect</title>
<path fill="none" stroke="black" d="M836.83,-447.42C710.78,-442.58 358.14,-426.45 316.41,-396 296.64,-381.58 287.07,-354.77 282.48,-334.33"/>
<polygon fill="black" stroke="black" points="285.88,-333.46 280.52,-324.32 279.01,-334.81 285.88,-333.46"/>
</g>
<!-- r&#45;rcdklibs -->
<g id="node10" class="node">
<title>r&#45;rcdklibs</title>
<g id="a_node10"><a xlink:href="https://github.com/conda-forge/r-rcdklibs-feedstock" xlink:title="r rcdklibs">
<ellipse fill="#fde725" stroke="black" cx="616.41" cy="-378" rx="60" ry="18"/>
<text text-anchor="middle" x="616.41" y="-374.3" font-family="Times,serif" font-size="14.00">r rcdklibs</text>
</a>
</g>
</g>
<!-- r&#45;rjava&#45;&gt;r&#45;rcdklibs -->
<g id="edge11" class="edge">
<title>r&#45;rjava&#45;&gt;r&#45;rcdklibs</title>
<path fill="none" stroke="black" d="M844.84,-439.34C799.48,-427.36 721.81,-406.84 669.8,-393.1"/>
<polygon fill="black" stroke="black" points="670.64,-389.71 660.08,-390.54 668.85,-396.47 670.64,-389.71"/>
</g>
<!-- r&#45;rcdk -->
<g id="node11" class="node">
<title>r&#45;rcdk</title>
<g id="a_node11"><a xlink:href="https://github.com/conda-forge/r-rcdk-feedstock" xlink:title="r rcdk">
<ellipse fill="#fde725" stroke="black" cx="616.41" cy="-306" rx="40.5" ry="18"/>
<text text-anchor="middle" x="616.41" y="-302.3" font-family="Times,serif" font-size="14.00">r rcdk</text>
</a>
</g>
</g>
<!-- r&#45;rjava&#45;&gt;r&#45;rcdk -->
<g id="edge12" class="edge">
<title>r&#45;rjava&#45;&gt;r&#45;rcdk</title>
<path fill="none" stroke="black" d="M855.51,-435.13C807.35,-409.32 704.03,-353.95 650.35,-325.19"/>
<polygon fill="black" stroke="black" points="651.71,-321.95 641.24,-320.31 648.4,-328.12 651.71,-321.95"/>
</g>
<!-- r&#45;rchoicedialogs -->
<g id="node12" class="node">
<title>r&#45;rchoicedialogs</title>
<g id="a_node12"><a xlink:href="https://github.com/conda-forge/r-rchoicedialogs-feedstock" xlink:title="r rchoicedialogs">
<ellipse fill="#fde725" stroke="black" cx="764.41" cy="-306" rx="89.08" ry="18"/>
<text text-anchor="middle" x="764.41" y="-302.3" font-family="Times,serif" font-size="14.00">r rchoicedialogs</text>
</a>
</g>
</g>
<!-- r&#45;rjava&#45;&gt;r&#45;rchoicedialogs -->
<g id="edge13" class="edge">
<title>r&#45;rjava&#45;&gt;r&#45;rchoicedialogs</title>
<path fill="none" stroke="black" d="M867.98,-432.71C847.66,-408.05 808.92,-361.03 785.01,-332.01"/>
<polygon fill="black" stroke="black" points="787.46,-329.47 778.39,-323.98 782.05,-333.92 787.46,-329.47"/>
</g>
<!-- r&#45;rwekajars -->
<g id="node13" class="node">
<title>r&#45;rwekajars</title>
<g id="a_node13"><a xlink:href="https://github.com/conda-forge/r-rwekajars-feedstock" xlink:title="r rwekajars">
<ellipse fill="#fde725" stroke="black" cx="776.41" cy="-234" rx="64.5" ry="18"/>
<text text-anchor="middle" x="776.41" y="-230.3" font-family="Times,serif" font-size="14.00">r rwekajars</text>
</a>
</g>
</g>
<!-- r&#45;rjava&#45;&gt;r&#45;rwekajars -->
<g id="edge14" class="edge">
<title>r&#45;rjava&#45;&gt;r&#45;rwekajars</title>
<path fill="none" stroke="black" d="M883.95,-431.9C887.67,-400.63 891.32,-333.32 862.41,-288 852.95,-273.19 837.72,-261.85 822.69,-253.54"/>
<polygon fill="black" stroke="black" points="823.9,-250.22 813.41,-248.75 820.69,-256.44 823.9,-250.22"/>
</g>
<!-- r&#45;rweka -->
<g id="node14" class="node">
<title>r&#45;rweka</title>
<g id="a_node14"><a xlink:href="https://github.com/conda-forge/r-rweka-feedstock" xlink:title="r rweka">
<ellipse fill="#fde725" stroke="black" cx="831.41" cy="-162" rx="45" ry="18"/>
<text text-anchor="middle" x="831.41" y="-158.3" font-family="Times,serif" font-size="14.00">r rweka</text>
</a>
</g>
</g>
<!-- r&#45;rjava&#45;&gt;r&#45;rweka -->
<g id="edge15" class="edge">
<title>r&#45;rjava&#45;&gt;r&#45;rweka</title>
<path fill="none" stroke="black" d="M889.1,-432.22C893.36,-421.99 898.23,-408.52 900.41,-396 903.15,-380.24 902.15,-375.9 900.41,-360 893.36,-295.85 862.73,-225.62 844.73,-188.81"/>
<polygon fill="black" stroke="black" points="847.82,-187.17 840.24,-179.77 841.56,-190.28 847.82,-187.17"/>
</g>
<!-- r&#45;subspace -->
<g id="node15" class="node">
<title>r&#45;subspace</title>
<g id="a_node15"><a xlink:href="https://github.com/conda-forge/r-subspace-feedstock" xlink:title="r subspace">
<ellipse fill="#fde725" stroke="black" cx="957.41" cy="-234" rx="60" ry="18"/>
<text text-anchor="middle" x="957.41" y="-230.3" font-family="Times,serif" font-size="14.00">r subspace</text>
</a>
</g>
</g>
<!-- r&#45;rjava&#45;&gt;r&#45;subspace -->
<g id="edge16" class="edge">
<title>r&#45;rjava&#45;&gt;r&#45;subspace</title>
<path fill="none" stroke="black" d="M901.63,-433.8C912.85,-424.23 925.99,-410.89 933.41,-396 954.91,-352.81 958.4,-295.64 958.35,-262.33"/>
<polygon fill="black" stroke="black" points="961.84,-261.95 958.21,-252 954.84,-262.05 961.84,-261.95"/>
</g>
<!-- r&#45;rmcfs -->
<g id="node16" class="node">
<title>r&#45;rmcfs</title>
<g id="a_node16"><a xlink:href="https://github.com/conda-forge/r-rmcfs-feedstock" xlink:title="r rmcfs">
<ellipse fill="#fde725" stroke="black" cx="1022.41" cy="-162" rx="45" ry="18"/>
<text text-anchor="middle" x="1022.41" y="-158.3" font-family="Times,serif" font-size="14.00">r rmcfs</text>
</a>
</g>
</g>
<!-- r&#45;rjava&#45;&gt;r&#45;rmcfs -->
<g id="edge17" class="edge">
<title>r&#45;rjava&#45;&gt;r&#45;rmcfs</title>
<path fill="none" stroke="black" d="M906.79,-434.84C922.05,-425.37 941.04,-411.77 954.41,-396 1000.68,-341.42 1009.97,-321.64 1026.41,-252 1031.22,-231.58 1029.82,-207.82 1027.42,-189.99"/>
<polygon fill="black" stroke="black" points="1030.87,-189.35 1025.9,-179.99 1023.95,-190.4 1030.87,-189.35"/>
</g>
<!-- r&#45;rjdbc -->
<g id="node17" class="node">
<title>r&#45;rjdbc</title>
<g id="a_node17"><a xlink:href="https://github.com/conda-forge/r-rjdbc-feedstock" xlink:title="r rjdbc">
<ellipse fill="#fde725" stroke="black" cx="1064.41" cy="-90" rx="45" ry="18"/>
<text text-anchor="middle" x="1064.41" y="-86.3" font-family="Times,serif" font-size="14.00">r rjdbc</text>
</a>
</g>
</g>
<!-- r&#45;rjava&#45;&gt;r&#45;rjdbc -->
<g id="edge18" class="edge">
<title>r&#45;rjava&#45;&gt;r&#45;rjdbc</title>
<path fill="none" stroke="black" d="M914.68,-437.59C936.12,-428.89 963.44,-415.12 982.41,-396 1015.39,-362.73 1074.18,-191.69 1076.41,-180 1080.36,-159.26 1076.77,-135.56 1072.52,-117.83"/>
<polygon fill="black" stroke="black" points="1075.9,-116.94 1069.98,-108.15 1069.13,-118.71 1075.9,-116.94"/>
</g>
<!-- r&#45;tabulizer -->
<g id="node18" class="node">
<title>r&#45;tabulizer</title>
<g id="a_node18"><a xlink:href="https://github.com/conda-forge/r-tabulizer-feedstock" xlink:title="r tabulizer">
<ellipse fill="#fde725" stroke="black" cx="1126.41" cy="-306" rx="64.5" ry="18"/>
<text text-anchor="middle" x="1126.41" y="-302.3" font-family="Times,serif" font-size="14.00">r tabulizer</text>
</a>
</g>
</g>
<!-- r&#45;rjava&#45;&gt;r&#45;tabulizer -->
<g id="edge19" class="edge">
<title>r&#45;rjava&#45;&gt;r&#45;tabulizer</title>
<path fill="none" stroke="black" d="M922.25,-442.28C957.57,-435.06 1008.86,-421.08 1047.41,-396 1073.05,-379.31 1095.46,-352.15 1109.8,-332.21"/>
<polygon fill="black" stroke="black" points="1112.75,-334.1 1115.62,-323.9 1107.02,-330.08 1112.75,-334.1"/>
</g>
<!-- r&#45;tabulizerjars -->
<g id="node19" class="node">
<title>r&#45;tabulizerjars</title>
<g id="a_node19"><a xlink:href="https://github.com/conda-forge/r-tabulizerjars-feedstock" xlink:title="r tabulizerjars">
<ellipse fill="#fde725" stroke="black" cx="1183.41" cy="-378" rx="84" ry="18"/>
<text text-anchor="middle" x="1183.41" y="-374.3" font-family="Times,serif" font-size="14.00">r tabulizerjars</text>
</a>
</g>
</g>
<!-- r&#45;rjava&#45;&gt;r&#45;tabulizerjars -->
<g id="edge20" class="edge">
<title>r&#45;rjava&#45;&gt;r&#45;tabulizerjars</title>
<path fill="none" stroke="black" d="M919.35,-440.21C969.32,-428.62 1057.95,-408.08 1118.63,-394.01"/>
<polygon fill="black" stroke="black" points="1119.54,-397.4 1128.49,-391.73 1117.96,-390.58 1119.54,-397.4"/>
</g>
<!-- r&#45;destinie -->
<g id="node20" class="node">
<title>r&#45;destinie</title>
<g id="a_node20"><a xlink:href="https://github.com/conda-forge/r-destinie-feedstock" xlink:title="r destinie">
<ellipse fill="#fde725" stroke="black" cx="503.41" cy="-234" rx="60" ry="18"/>
<text text-anchor="middle" x="503.41" y="-230.3" font-family="Times,serif" font-size="14.00">r destinie</text>
</a>
</g>
</g>
<!-- r&#45;rjava&#45;&gt;r&#45;destinie -->
<g id="edge21" class="edge">
<title>r&#45;rjava&#45;&gt;r&#45;destinie</title>
<path fill="none" stroke="black" d="M836.45,-447.75C755.4,-444.56 589.27,-433.52 547.41,-396 509.47,-362 502.89,-298.76 502.48,-262.49"/>
<polygon fill="black" stroke="black" points="505.99,-262.17 502.53,-252.15 498.99,-262.14 505.99,-262.17"/>
</g>
<!-- r&#45;xlsx&#45;&gt;conda&#45;forge&#45;pinning -->
<g id="edge22" class="edge">
<title>r&#45;xlsx&#45;&gt;conda&#45;forge&#45;pinning</title>
<path fill="none" stroke="black" d="M435.55,-288.12C431.13,-269.86 426.43,-240.11 434.41,-216 459.45,-140.3 471.63,-110.59 541.41,-72 589.19,-45.57 924.44,-29.51 1102.63,-22.74"/>
<polygon fill="black" stroke="black" points="1102.97,-26.23 1112.83,-22.36 1102.71,-19.24 1102.97,-26.23"/>
</g>
<!-- r&#45;xlsx&#45;&gt;r&#45;destinie -->
<g id="edge23" class="edge">
<title>r&#45;xlsx&#45;&gt;r&#45;destinie</title>
<path fill="none" stroke="black" d="M454.7,-289.12C462.61,-280.33 472.6,-269.23 481.47,-259.37"/>
<polygon fill="black" stroke="black" points="484.2,-261.57 488.29,-251.8 479,-256.89 484.2,-261.57"/>
</g>
<!-- r&#45;xlsxjars&#45;&gt;conda&#45;forge&#45;pinning -->
<g id="edge24" class="edge">
<title>r&#45;xlsxjars&#45;&gt;conda&#45;forge&#45;pinning</title>
<path fill="none" stroke="black" d="M382.64,-360C378.56,-333.42 371.41,-280.33 371.41,-235 371.41,-235 371.41,-235 371.41,-161 371.41,-96.02 426.67,-95.11 487.41,-72 596.24,-30.58 924.64,-21.33 1100.06,-19.4"/>
<polygon fill="black" stroke="black" points="1100.14,-22.9 1110.1,-19.29 1100.07,-15.9 1100.14,-22.9"/>
</g>
<!-- r&#45;xlsxjars&#45;&gt;r&#45;xlsx -->
<g id="edge25" class="edge">
<title>r&#45;xlsxjars&#45;&gt;r&#45;xlsx</title>
<path fill="none" stroke="black" d="M398.44,-360.41C405.22,-351.78 413.64,-341.06 421.16,-331.5"/>
<polygon fill="black" stroke="black" points="424.04,-333.5 427.46,-323.47 418.53,-329.17 424.04,-333.5"/>
</g>
<!-- r&#45;xlconnectjars&#45;&gt;conda&#45;forge&#45;pinning -->
<g id="edge26" class="edge">
<title>r&#45;xlconnectjars&#45;&gt;conda&#45;forge&#45;pinning</title>
<path fill="none" stroke="black" d="M185.41,-359.95C185.41,-333.29 185.41,-280.11 185.41,-235 185.41,-235 185.41,-235 185.41,-161 185.41,-88.76 252.82,-94.68 321.41,-72 462.54,-25.32 892.24,-18.83 1099.38,-18.51"/>
<polygon fill="black" stroke="black" points="1099.68,-22.01 1109.67,-18.5 1099.67,-15.01 1099.68,-22.01"/>
</g>
<!-- r&#45;xlconnectjars&#45;&gt;r&#45;xlconnect -->
<g id="edge27" class="edge">
<title>r&#45;xlconnectjars&#45;&gt;r&#45;xlconnect</title>
<path fill="none" stroke="black" d="M207.45,-360.41C219.81,-351.1 235.4,-339.37 248.82,-329.27"/>
<polygon fill="black" stroke="black" points="250.96,-332.04 256.84,-323.23 246.75,-326.45 250.96,-332.04"/>
</g>
<!-- r&#45;xlconnect&#45;&gt;conda&#45;forge&#45;pinning -->
<g id="edge28" class="edge">
<title>r&#45;xlconnect&#45;&gt;conda&#45;forge&#45;pinning</title>
<path fill="none" stroke="black" d="M278.27,-287.92C278.95,-243.75 287.51,-125.45 357.41,-72 414.96,-27.98 879.92,-20.26 1099.44,-19.09"/>
<polygon fill="black" stroke="black" points="1099.72,-22.59 1109.7,-19.04 1099.68,-15.59 1099.72,-22.59"/>
</g>
<!-- r&#45;rcdklibs&#45;&gt;conda&#45;forge&#45;pinning -->
<g id="edge29" class="edge">
<title>r&#45;rcdklibs&#45;&gt;conda&#45;forge&#45;pinning</title>
<path fill="none" stroke="black" d="M595.11,-361.11C584.3,-351.68 572.24,-338.7 566.41,-324 560.5,-309.13 562.56,-303.53 566.41,-288 592.6,-182.23 591.35,-131.86 682.41,-72 748.71,-28.41 964,-19.43 1099.23,-18.25"/>
<polygon fill="black" stroke="black" points="1099.66,-21.75 1109.63,-18.17 1099.61,-14.75 1099.66,-21.75"/>
</g>
<!-- r&#45;rcdklibs&#45;&gt;r&#45;rcdk -->
<g id="edge30" class="edge">
<title>r&#45;rcdklibs&#45;&gt;r&#45;rcdk</title>
<path fill="none" stroke="black" d="M616.41,-359.7C616.41,-351.98 616.41,-342.71 616.41,-334.11"/>
<polygon fill="black" stroke="black" points="619.91,-334.1 616.41,-324.1 612.91,-334.1 619.91,-334.1"/>
</g>
<!-- r&#45;rcdk&#45;&gt;conda&#45;forge&#45;pinning -->
<g id="edge31" class="edge">
<title>r&#45;rcdk&#45;&gt;conda&#45;forge&#45;pinning</title>
<path fill="none" stroke="black" d="M618.39,-287.95C624.51,-243.83 647.41,-125.65 721.41,-72 779.81,-29.65 973.35,-20.06 1099.57,-18.47"/>
<polygon fill="black" stroke="black" points="1099.71,-21.97 1109.67,-18.35 1099.63,-14.97 1099.71,-21.97"/>
</g>
<!-- r&#45;rchoicedialogs&#45;&gt;conda&#45;forge&#45;pinning -->
<g id="edge32" class="edge">
<title>r&#45;rchoicedialogs&#45;&gt;conda&#45;forge&#45;pinning</title>
<path fill="none" stroke="black" d="M736.2,-288.86C723.35,-279.83 709.46,-267.3 702.41,-252 674.78,-192.04 713.85,-104.7 755.41,-72 807.17,-31.27 981.67,-21 1099.7,-18.87"/>
<polygon fill="black" stroke="black" points="1099.93,-22.36 1109.87,-18.7 1099.82,-15.36 1099.93,-22.36"/>
</g>
<!-- r&#45;rwekajars&#45;&gt;conda&#45;forge&#45;pinning -->
<g id="edge33" class="edge">
<title>r&#45;rwekajars&#45;&gt;conda&#45;forge&#45;pinning</title>
<path fill="none" stroke="black" d="M769.91,-215.88C758.8,-183.38 740.63,-112.38 776.41,-72 797.94,-47.69 983.52,-32.3 1105.82,-24.7"/>
<polygon fill="black" stroke="black" points="1106.21,-28.18 1115.98,-24.08 1105.78,-21.19 1106.21,-28.18"/>
</g>
<!-- r&#45;rwekajars&#45;&gt;r&#45;rweka -->
<g id="edge34" class="edge">
<title>r&#45;rwekajars&#45;&gt;r&#45;rweka</title>
<path fill="none" stroke="black" d="M789.72,-216.05C796.51,-207.42 804.88,-196.76 812.34,-187.27"/>
<polygon fill="black" stroke="black" points="815.17,-189.33 818.59,-179.31 809.66,-185.01 815.17,-189.33"/>
</g>
<!-- r&#45;rweka&#45;&gt;conda&#45;forge&#45;pinning -->
<g id="edge35" class="edge">
<title>r&#45;rweka&#45;&gt;conda&#45;forge&#45;pinning</title>
<path fill="none" stroke="black" d="M813.33,-145.42C793.47,-126.44 766.8,-94.19 786.41,-72 807.3,-48.36 986.59,-32.84 1106.11,-25.02"/>
<polygon fill="black" stroke="black" points="1106.65,-28.49 1116.41,-24.35 1106.2,-21.5 1106.65,-28.49"/>
</g>
<!-- r&#45;fselector -->
<g id="node21" class="node">
<title>r&#45;fselector</title>
<g id="a_node21"><a xlink:href="https://github.com/conda-forge/r-fselector-feedstock" xlink:title="r fselector">
<ellipse fill="#fde725" stroke="black" cx="860.41" cy="-90" rx="64.5" ry="18"/>
<text text-anchor="middle" x="860.41" y="-86.3" font-family="Times,serif" font-size="14.00">r fselector</text>
</a>
</g>
</g>
<!-- r&#45;rweka&#45;&gt;r&#45;fselector -->
<g id="edge36" class="edge">
<title>r&#45;rweka&#45;&gt;r&#45;fselector</title>
<path fill="none" stroke="black" d="M838.43,-144.05C841.69,-136.18 845.65,-126.62 849.3,-117.79"/>
<polygon fill="black" stroke="black" points="852.65,-118.85 853.25,-108.28 846.19,-116.17 852.65,-118.85"/>
</g>
<!-- r&#45;subspace&#45;&gt;conda&#45;forge&#45;pinning -->
<g id="edge37" class="edge">
<title>r&#45;subspace&#45;&gt;conda&#45;forge&#45;pinning</title>
<path fill="none" stroke="black" d="M955.99,-215.91C954.28,-182.48 955.82,-108.52 998.41,-72 1028.14,-46.5 1068.27,-32.9 1105.8,-25.77"/>
<polygon fill="black" stroke="black" points="1106.55,-29.2 1115.79,-24.01 1105.34,-22.3 1106.55,-29.2"/>
</g>
<!-- r&#45;rmcfs&#45;&gt;conda&#45;forge&#45;pinning -->
<g id="edge38" class="edge">
<title>r&#45;rmcfs&#45;&gt;conda&#45;forge&#45;pinning</title>
<path fill="none" stroke="black" d="M1013.45,-144.03C1004.57,-124.58 994.39,-92.73 1010.41,-72 1024.8,-53.36 1076.44,-40.03 1124.03,-31.4"/>
<polygon fill="black" stroke="black" points="1124.87,-34.81 1134.11,-29.63 1123.66,-27.91 1124.87,-34.81"/>
</g>
<!-- r&#45;rjdbc&#45;&gt;conda&#45;forge&#45;pinning -->
<g id="edge39" class="edge">
<title>r&#45;rjdbc&#45;&gt;conda&#45;forge&#45;pinning</title>
<path fill="none" stroke="black" d="M1092.43,-75.83C1114.26,-65.58 1144.95,-51.16 1169.95,-39.41"/>
<polygon fill="black" stroke="black" points="1171.66,-42.48 1179.23,-35.06 1168.69,-36.14 1171.66,-42.48"/>
</g>
<!-- r&#45;tabulizer&#45;&gt;conda&#45;forge&#45;pinning -->
<g id="edge40" class="edge">
<title>r&#45;tabulizer&#45;&gt;conda&#45;forge&#45;pinning</title>
<path fill="none" stroke="black" d="M1125.49,-287.85C1124.06,-247.76 1124.63,-145.77 1161.41,-72 1166.83,-61.11 1175.32,-51.05 1183.88,-42.69"/>
<polygon fill="black" stroke="black" points="1186.37,-45.15 1191.35,-35.79 1181.63,-40.01 1186.37,-45.15"/>
</g>
<!-- r&#45;tabulizerjars&#45;&gt;conda&#45;forge&#45;pinning -->
<g id="edge41" class="edge">
<title>r&#45;tabulizerjars&#45;&gt;conda&#45;forge&#45;pinning</title>
<path fill="none" stroke="black" d="M1190.06,-359.63C1193.61,-349.42 1197.61,-336.17 1199.41,-324 1215.77,-213.2 1184.98,-183.07 1199.41,-72 1200.51,-63.51 1202.57,-54.43 1204.77,-46.24"/>
<polygon fill="black" stroke="black" points="1208.19,-47.02 1207.58,-36.44 1201.46,-45.09 1208.19,-47.02"/>
</g>
<!-- r&#45;tabulizerjars&#45;&gt;r&#45;tabulizer -->
<g id="edge42" class="edge">
<title>r&#45;tabulizerjars&#45;&gt;r&#45;tabulizer</title>
<path fill="none" stroke="black" d="M1169.61,-360.05C1162.68,-351.54 1154.15,-341.07 1146.5,-331.68"/>
<polygon fill="black" stroke="black" points="1149.1,-329.33 1140.08,-323.79 1143.68,-333.75 1149.1,-329.33"/>
</g>
<!-- r&#45;destinie&#45;&gt;conda&#45;forge&#45;pinning -->
<g id="edge43" class="edge">
<title>r&#45;destinie&#45;&gt;conda&#45;forge&#45;pinning</title>
<path fill="none" stroke="black" d="M505.64,-215.8C511.06,-181.83 528.29,-106.44 577.41,-72 619.27,-42.65 931.37,-28.07 1102.28,-22.22"/>
<polygon fill="black" stroke="black" points="1102.44,-25.72 1112.32,-21.88 1102.21,-18.72 1102.44,-25.72"/>
</g>
<!-- r&#45;fselector&#45;&gt;conda&#45;forge&#45;pinning -->
<g id="edge51" class="edge">
<title>r&#45;fselector&#45;&gt;conda&#45;forge&#45;pinning</title>
<path fill="none" stroke="black" d="M909.68,-78.23C919.52,-76.13 929.78,-73.97 939.41,-72 1005.55,-58.49 1080.85,-43.99 1135.76,-33.57"/>
<polygon fill="black" stroke="black" points="1136.59,-36.98 1145.77,-31.68 1135.29,-30.1 1136.59,-36.98"/>
</g>
<!-- rpy2 -->
<g id="node22" class="node">
<title>rpy2</title>
<g id="a_node22"><a xlink:href="https://github.com/conda-forge/rpy2-feedstock/pull/55" xlink:title="rpy2">
<ellipse fill="#31688e" stroke="black" cx="1346.41" cy="-162" rx="30.59" ry="18"/>
<text text-anchor="middle" x="1346.41" y="-158.3" font-family="Times,serif" font-size="14.00" fill="white">rpy2</text>
</a>
</g>
</g>
<!-- rpy2&#45;&gt;conda&#45;forge&#45;pinning -->
<g id="edge44" class="edge">
<title>rpy2&#45;&gt;conda&#45;forge&#45;pinning</title>
<path fill="none" stroke="black" d="M1332.82,-145.72C1316.86,-127.87 1289.51,-97.51 1265.41,-72 1256.41,-62.48 1246.37,-52.18 1237.53,-43.2"/>
<polygon fill="black" stroke="black" points="1239.95,-40.68 1230.43,-36.03 1234.97,-45.6 1239.95,-40.68"/>
</g>
<!-- iterativewgcna -->
<g id="node23" class="node">
<title>iterativewgcna</title>
<g id="a_node23"><a xlink:href="https://github.com/conda-forge/iterativewgcna-feedstock" xlink:title="iterativewgcna">
<ellipse fill="#fde725" stroke="black" cx="1396.41" cy="-90" rx="79.5" ry="18"/>
<text text-anchor="middle" x="1396.41" y="-86.3" font-family="Times,serif" font-size="14.00">iterativewgcna</text>
</a>
</g>
</g>
<!-- rpy2&#45;&gt;iterativewgcna -->
<g id="edge45" class="edge">
<title>rpy2&#45;&gt;iterativewgcna</title>
<path fill="none" stroke="black" d="M1357.75,-145.12C1363.9,-136.51 1371.64,-125.67 1378.58,-115.96"/>
<polygon fill="black" stroke="black" points="1381.44,-117.97 1384.41,-107.8 1375.75,-113.9 1381.44,-117.97"/>
</g>
<!-- iterativewgcna&#45;&gt;conda&#45;forge&#45;pinning -->
<g id="edge46" class="edge">
<title>iterativewgcna&#45;&gt;conda&#45;forge&#45;pinning</title>
<path fill="none" stroke="black" d="M1357.6,-74.15C1330.35,-63.73 1293.66,-49.7 1264.11,-38.39"/>
<polygon fill="black" stroke="black" points="1264.97,-34.98 1254.38,-34.67 1262.47,-41.52 1264.97,-34.98"/>
</g>
<!-- r&#45;rvaidememoire -->
<g id="node24" class="node">
<title>r&#45;rvaidememoire</title>
<g id="a_node24"><a xlink:href="https://github.com/conda-forge/r-rvaidememoire-feedstock" xlink:title="r rvaidememoire">
<ellipse fill="#35b779" stroke="black" cx="1577.41" cy="-90" rx="84" ry="18"/>
<text text-anchor="middle" x="1577.41" y="-86.3" font-family="Times,serif" font-size="14.00">r rvaidememoire</text>
</a>
</g>
</g>
<!-- r&#45;rvaidememoire&#45;&gt;conda&#45;forge&#45;pinning -->
<g id="edge47" class="edge">
<title>r&#45;rvaidememoire&#45;&gt;conda&#45;forge&#45;pinning</title>
<path fill="none" stroke="black" d="M1516.89,-77.36C1454.68,-65.4 1357.63,-46.74 1290.09,-33.75"/>
<polygon fill="black" stroke="black" points="1290.41,-30.24 1279.93,-31.79 1289.09,-37.12 1290.41,-30.24"/>
</g>
<!-- r&#45;hier.part -->
<g id="node25" class="node">
<title>r&#45;hier.part</title>
<g id="a_node25"><a xlink:href="https://github.com/conda-forge/r-hier.part-feedstock/pull/5" xlink:title="r hier part">
<ellipse fill="#31688e" stroke="black" cx="1634.41" cy="-162" rx="64.5" ry="18"/>
<text text-anchor="middle" x="1634.41" y="-158.3" font-family="Times,serif" font-size="14.00" fill="white">r hier part</text>
</a>
</g>
</g>
<!-- r&#45;hier.part&#45;&gt;conda&#45;forge&#45;pinning -->
<g id="edge48" class="edge">
<title>r&#45;hier.part&#45;&gt;conda&#45;forge&#45;pinning</title>
<path fill="none" stroke="black" d="M1650.54,-144.44C1667.45,-125.08 1689.14,-93.03 1670.41,-72 1647.61,-46.41 1450.03,-31.31 1322.23,-24.14"/>
<polygon fill="black" stroke="black" points="1322.19,-20.63 1312.01,-23.57 1321.8,-27.62 1322.19,-20.63"/>
</g>
<!-- r&#45;bezier -->
<g id="node26" class="node">
<title>r&#45;bezier</title>
<g id="a_node26"><a xlink:href="https://github.com/conda-forge/r-bezier-feedstock/pull/3" xlink:title="r bezier">
<ellipse fill="#31688e" stroke="black" cx="1687.41" cy="-234" rx="50.09" ry="18"/>
<text text-anchor="middle" x="1687.41" y="-230.3" font-family="Times,serif" font-size="14.00" fill="white">r bezier</text>
</a>
</g>
</g>
<!-- r&#45;bezier&#45;&gt;conda&#45;forge&#45;pinning -->
<g id="edge49" class="edge">
<title>r&#45;bezier&#45;&gt;conda&#45;forge&#45;pinning</title>
<path fill="none" stroke="black" d="M1695.71,-215.79C1700.15,-205.63 1705.15,-192.38 1707.41,-180 1716.15,-132.05 1725.3,-103.84 1688.41,-72 1661.16,-48.49 1452.71,-32.5 1321.16,-24.64"/>
<polygon fill="black" stroke="black" points="1321.23,-21.14 1311.04,-24.04 1320.81,-28.13 1321.23,-21.14"/>
</g>
<!-- r&#45;hiver -->
<g id="node27" class="node">
<title>r&#45;hiver</title>
<g id="a_node27"><a xlink:href="https://github.com/conda-forge/r-hiver-feedstock" xlink:title="r hiver">
<ellipse fill="#35b779" stroke="black" cx="1765.41" cy="-306" rx="45" ry="18"/>
<text text-anchor="middle" x="1765.41" y="-302.3" font-family="Times,serif" font-size="14.00">r hiver</text>
</a>
</g>
</g>
<!-- r&#45;hiver&#45;&gt;conda&#45;forge&#45;pinning -->
<g id="edge50" class="edge">
<title>r&#45;hiver&#45;&gt;conda&#45;forge&#45;pinning</title>
<path fill="none" stroke="black" d="M1767.72,-288.01C1772.58,-244.56 1778.65,-128.82 1715.41,-72 1686.81,-46.3 1461.53,-30.93 1322.66,-23.81"/>
<polygon fill="black" stroke="black" points="1322.56,-20.3 1312.4,-23.29 1322.21,-27.29 1322.56,-20.3"/>
</g>
<!-- r&#45;feasts -->
<g id="node28" class="node">
<title>r&#45;feasts</title>
<g id="a_node28"><a xlink:href="https://github.com/conda-forge/r-feasts-feedstock" xlink:title="r feasts">
<ellipse fill="#fde725" stroke="black" cx="1881.41" cy="-90" rx="50.09" ry="18"/>
<text text-anchor="middle" x="1881.41" y="-86.3" font-family="Times,serif" font-size="14.00">r feasts</text>
</a>
</g>
</g>
<!-- r&#45;feasts&#45;&gt;conda&#45;forge&#45;pinning -->
<g id="edge52" class="edge">
<title>r&#45;feasts&#45;&gt;conda&#45;forge&#45;pinning</title>
<path fill="none" stroke="black" d="M1844.08,-77.93C1835.39,-75.68 1826.12,-73.53 1817.41,-72 1646.6,-42.05 1445.49,-28.7 1323.82,-22.99"/>
<polygon fill="black" stroke="black" points="1323.9,-19.49 1313.75,-22.52 1323.58,-26.48 1323.9,-19.49"/>
</g>
<!-- r&#45;littler -->
<g id="node29" class="node">
<title>r&#45;littler</title>
<g id="a_node29"><a xlink:href="https://github.com/conda-forge/r-littler-feedstock/pull/2" xlink:title="r littler">
<ellipse fill="#31688e" stroke="black" cx="1997.41" cy="-378" rx="54.69" ry="18"/>
<text text-anchor="middle" x="1997.41" y="-374.3" font-family="Times,serif" font-size="14.00" fill="white">r littler</text>
</a>
</g>
</g>
<!-- r&#45;littler&#45;&gt;conda&#45;forge&#45;pinning -->
<g id="edge53" class="edge">
<title>r&#45;littler&#45;&gt;conda&#45;forge&#45;pinning</title>
<path fill="none" stroke="black" d="M1997.41,-359.95C1997.41,-333.29 1997.41,-280.11 1997.41,-235 1997.41,-235 1997.41,-235 1997.41,-161 1997.41,-117.81 1993.69,-96.9 1958.41,-72 1908.06,-36.48 1521.79,-24.49 1326.17,-20.67"/>
<polygon fill="black" stroke="black" points="1326.21,-17.17 1316.15,-20.48 1326.08,-24.17 1326.21,-17.17"/>
</g>
<!-- r&#45;rxode -->
<g id="node30" class="node">
<title>r&#45;rxode</title>
<g id="a_node30"><a xlink:href="https://github.com/conda-forge/r-rxode-feedstock" xlink:title="r rxode">
<ellipse fill="#fde725" stroke="black" cx="2156.41" cy="-162" rx="45" ry="18"/>
<text text-anchor="middle" x="2156.41" y="-158.3" font-family="Times,serif" font-size="14.00">r rxode</text>
</a>
</g>
</g>
<!-- r&#45;rxode&#45;&gt;conda&#45;forge&#45;pinning -->
<g id="edge54" class="edge">
<title>r&#45;rxode&#45;&gt;conda&#45;forge&#45;pinning</title>
<path fill="none" stroke="black" d="M2127.32,-147.97C2106.38,-138.1 2077.82,-123.61 2054.41,-108 2033.67,-94.17 2034.54,-81.28 2011.41,-72 1949.35,-47.1 1528.89,-29.66 1324.51,-22.56"/>
<polygon fill="black" stroke="black" points="1324.46,-19.05 1314.34,-22.21 1324.22,-26.05 1324.46,-19.05"/>
</g>
<!-- r&#45;nlmixr -->
<g id="node31" class="node">
<title>r&#45;nlmixr</title>
<g id="a_node31"><a xlink:href="https://github.com/conda-forge/r-nlmixr-feedstock" xlink:title="r nlmixr">
<ellipse fill="#fde725" stroke="black" cx="2231.41" cy="-90" rx="50.09" ry="18"/>
<text text-anchor="middle" x="2231.41" y="-86.3" font-family="Times,serif" font-size="14.00">r nlmixr</text>
</a>
</g>
</g>
<!-- r&#45;rxode&#45;&gt;r&#45;nlmixr -->
<g id="edge55" class="edge">
<title>r&#45;rxode&#45;&gt;r&#45;nlmixr</title>
<path fill="none" stroke="black" d="M2173.42,-145.12C2183.23,-135.96 2195.73,-124.29 2206.62,-114.13"/>
<polygon fill="black" stroke="black" points="2209.27,-116.45 2214.19,-107.06 2204.5,-111.33 2209.27,-116.45"/>
</g>
<!-- r&#45;nlmixr&#45;&gt;conda&#45;forge&#45;pinning -->
<g id="edge56" class="edge">
<title>r&#45;nlmixr&#45;&gt;conda&#45;forge&#45;pinning</title>
<path fill="none" stroke="black" d="M2195.51,-77.27C2187.95,-75.19 2179.97,-73.28 2172.41,-72 2012.49,-44.9 1541.83,-28.38 1325.05,-22.01"/>
<polygon fill="black" stroke="black" points="1325.02,-18.51 1314.92,-21.72 1324.81,-25.51 1325.02,-18.51"/>
</g>
<!-- r&#45;lotri -->
<g id="node32" class="node">
<title>r&#45;lotri</title>
<g id="a_node32"><a xlink:href="https://github.com/conda-forge/r-lotri-feedstock" xlink:title="r lotri">
<ellipse fill="#35b779" stroke="black" cx="2216.41" cy="-234" rx="45" ry="18"/>
<text text-anchor="middle" x="2216.41" y="-230.3" font-family="Times,serif" font-size="14.00">r lotri</text>
</a>
</g>
</g>
<!-- r&#45;lotri&#45;&gt;conda&#45;forge&#45;pinning -->
<g id="edge57" class="edge">
<title>r&#45;lotri&#45;&gt;conda&#45;forge&#45;pinning</title>
<path fill="none" stroke="black" d="M2256.29,-225.43C2281.67,-218.33 2312.64,-204.9 2328.41,-180 2344.61,-154.4 2313.51,-75.32 2309.41,-72 2271.67,-41.45 1598.9,-25.95 1326.51,-20.9"/>
<polygon fill="black" stroke="black" points="1326.27,-17.39 1316.2,-20.71 1326.14,-24.39 1326.27,-17.39"/>
</g>
<!-- r&#45;lotri&#45;&gt;r&#45;rxode -->
<g id="edge58" class="edge">
<title>r&#45;lotri&#45;&gt;r&#45;rxode</title>
<path fill="none" stroke="black" d="M2202.49,-216.76C2194.92,-207.93 2185.4,-196.83 2176.99,-187.01"/>
<polygon fill="black" stroke="black" points="2179.41,-184.46 2170.25,-179.15 2174.1,-189.02 2179.41,-184.46"/>
</g>
<!-- r&#45;tiledb -->
<g id="node33" class="node">
<title>r&#45;tiledb</title>
<g id="a_node33"><a xlink:href="https://github.com/conda-forge/r-tiledb-feedstock/pull/5" xlink:title="r tiledb">
<ellipse fill="#31688e" stroke="black" cx="2113.41" cy="-90" rx="50.09" ry="18"/>
<text text-anchor="middle" x="2113.41" y="-86.3" font-family="Times,serif" font-size="14.00" fill="white">r tiledb</text>
</a>
</g>
</g>
<!-- r&#45;tiledb&#45;&gt;conda&#45;forge&#45;pinning -->
<g id="edge59" class="edge">
<title>r&#45;tiledb&#45;&gt;conda&#45;forge&#45;pinning</title>
<path fill="none" stroke="black" d="M2076.45,-77.86C2067.65,-75.58 2058.26,-73.44 2049.41,-72 1793.6,-30.33 1488.81,-20.99 1327.21,-19.17"/>
<polygon fill="black" stroke="black" points="1326.81,-15.66 1316.77,-19.06 1326.73,-22.66 1326.81,-15.66"/>
</g>
<!-- r&#45;raceid -->
<g id="node34" class="node">
<title>r&#45;raceid</title>
<g id="a_node34"><a xlink:href="https://github.com/conda-forge/r-raceid-feedstock" xlink:title="r raceid">
<ellipse fill="#35b779" stroke="black" cx="2269.41" cy="-162" rx="50.09" ry="18"/>
<text text-anchor="middle" x="2269.41" y="-158.3" font-family="Times,serif" font-size="14.00">r raceid</text>
</a>
</g>
</g>
<!-- r&#45;raceid&#45;&gt;conda&#45;forge&#45;pinning -->
<g id="edge60" class="edge">
<title>r&#45;raceid&#45;&gt;conda&#45;forge&#45;pinning</title>
<path fill="none" stroke="black" d="M2281.22,-144.23C2293.65,-124.38 2309.01,-91.55 2290.41,-72 2257.57,-37.51 1596.33,-24.36 1326.54,-20.42"/>
<polygon fill="black" stroke="black" points="1326.38,-16.92 1316.33,-20.27 1326.28,-23.92 1326.38,-16.92"/>
</g>
<!-- r&#45;botor -->
<g id="node35" class="node">
<title>r&#45;botor</title>
<g id="a_node35"><a xlink:href="https://github.com/conda-forge/r-botor-feedstock" xlink:title="r botor">
<ellipse fill="#35b779" stroke="black" cx="2385.41" cy="-234" rx="45" ry="18"/>
<text text-anchor="middle" x="2385.41" y="-230.3" font-family="Times,serif" font-size="14.00">r botor</text>
</a>
</g>
</g>
<!-- r&#45;botor&#45;&gt;conda&#45;forge&#45;pinning -->
<g id="edge61" class="edge">
<title>r&#45;botor&#45;&gt;conda&#45;forge&#45;pinning</title>
<path fill="none" stroke="black" d="M2385.48,-215.84C2384.59,-181.94 2377.27,-106.67 2331.41,-72 2291.76,-42.03 1601.39,-26.11 1325.74,-20.93"/>
<polygon fill="black" stroke="black" points="1325.77,-17.43 1315.71,-20.74 1325.64,-24.43 1325.77,-17.43"/>
</g>
<!-- r&#45;slider -->
<g id="node36" class="node">
<title>r&#45;slider</title>
<g id="a_node36"><a xlink:href="https://github.com/conda-forge/r-slider-feedstock" xlink:title="r slider">
<ellipse fill="#fde725" stroke="black" cx="1881.41" cy="-162" rx="50.09" ry="18"/>
<text text-anchor="middle" x="1881.41" y="-158.3" font-family="Times,serif" font-size="14.00">r slider</text>
</a>
</g>
</g>
<!-- r&#45;slider&#45;&gt;conda&#45;forge&#45;pinning -->
<g id="edge62" class="edge">
<title>r&#45;slider&#45;&gt;conda&#45;forge&#45;pinning</title>
<path fill="none" stroke="black" d="M1903.74,-145.76C1928.41,-127.13 1961.99,-95.22 1940.41,-72 1899.61,-28.12 1521.39,-20.16 1327.25,-18.99"/>
<polygon fill="black" stroke="black" points="1327.03,-15.48 1317.01,-18.93 1326.99,-22.48 1327.03,-15.48"/>
</g>
<!-- r&#45;slider&#45;&gt;r&#45;feasts -->
<g id="edge63" class="edge">
<title>r&#45;slider&#45;&gt;r&#45;feasts</title>
<path fill="none" stroke="black" d="M1881.41,-143.7C1881.41,-135.98 1881.41,-126.71 1881.41,-118.11"/>
<polygon fill="black" stroke="black" points="1884.91,-118.1 1881.41,-108.1 1877.91,-118.1 1884.91,-118.1"/>
</g>
<!-- r&#45;comparegroups -->
<g id="node37" class="node">
<title>r&#45;comparegroups</title>
<g id="a_node37"><a xlink:href="https://github.com/conda-forge/r-comparegroups-feedstock" xlink:title="r comparegroups">
<ellipse fill="#35b779" stroke="black" cx="2458.41" cy="-306" rx="84" ry="18"/>
<text text-anchor="middle" x="2458.41" y="-302.3" font-family="Times,serif" font-size="14.00">r comparegroups</text>
</a>
</g>
</g>
<!-- r&#45;comparegroups&#45;&gt;conda&#45;forge&#45;pinning -->
<g id="edge64" class="edge">
<title>r&#45;comparegroups&#45;&gt;conda&#45;forge&#45;pinning</title>
<path fill="none" stroke="black" d="M2457.48,-287.94C2453.99,-242.74 2437.49,-120.07 2360.41,-72 2317.02,-44.94 1606.14,-27.21 1325.8,-21.24"/>
<polygon fill="black" stroke="black" points="1325.67,-17.73 1315.6,-21.02 1325.52,-24.73 1325.67,-17.73"/>
</g>
<!-- r&#45;warp -->
<g id="node38" class="node">
<title>r&#45;warp</title>
<g id="a_node38"><a xlink:href="https://github.com/conda-forge/r-warp-feedstock" xlink:title="r warp">
<ellipse fill="#35b779" stroke="black" cx="1858.41" cy="-234" rx="40.5" ry="18"/>
<text text-anchor="middle" x="1858.41" y="-230.3" font-family="Times,serif" font-size="14.00">r warp</text>
</a>
</g>
</g>
<!-- r&#45;warp&#45;&gt;conda&#45;forge&#45;pinning -->
<g id="edge65" class="edge">
<title>r&#45;warp&#45;&gt;conda&#45;forge&#45;pinning</title>
<path fill="none" stroke="black" d="M1845.75,-216.4C1838.36,-206.24 1829.18,-192.77 1822.41,-180 1798.19,-134.36 1820.76,-102.96 1779.41,-72 1743.79,-45.34 1477.61,-29.94 1323.29,-23.17"/>
<polygon fill="black" stroke="black" points="1323.43,-19.67 1313.29,-22.74 1323.13,-26.67 1323.43,-19.67"/>
</g>
<!-- r&#45;warp&#45;&gt;r&#45;slider -->
<g id="edge66" class="edge">
<title>r&#45;warp&#45;&gt;r&#45;slider</title>
<path fill="none" stroke="black" d="M1863.97,-216.05C1866.56,-208.18 1869.7,-198.62 1872.6,-189.79"/>
<polygon fill="black" stroke="black" points="1875.93,-190.87 1875.73,-180.28 1869.28,-188.68 1875.93,-190.87"/>
</g>
</g>
</svg>
