<?xml version="1.0" encoding="UTF-8" standalone="no"?>
<!DOCTYPE svg PUBLIC "-//W3C//DTD SVG 1.1//EN"
 "http://www.w3.org/Graphics/SVG/1.1/DTD/svg11.dtd">
<!-- Generated by graphviz version 2.42.3 (20191010.1750)
 -->
<!-- Title: %3 Pages: 1 -->
<svg width="2524pt" height="476pt"
 viewBox="0.00 0.00 2524.40 476.00" xmlns="http://www.w3.org/2000/svg" xmlns:xlink="http://www.w3.org/1999/xlink">
<g id="graph0" class="graph" transform="scale(1 1) rotate(0) translate(4 472)">
<title>%3</title>
<polygon fill="white" stroke="transparent" points="-4,4 -4,-472 2520.4,-472 2520.4,4 -4,4"/>
<!-- r&#45;fst -->
<g id="node1" class="node">
<title>r&#45;fst</title>
<g id="a_node1"><a xlink:href="https://github.com/conda-forge/r-fst-feedstock/pull/11" xlink:title="r fst">
<ellipse fill="#31688e" stroke="black" cx="38.4" cy="-162" rx="35.19" ry="18"/>
<text text-anchor="middle" x="38.4" y="-158.3" font-family="Times,serif" font-size="14.00" fill="white">r fst</text>
</a>
</g>
</g>
<!-- r&#45;disk.frame -->
<g id="node2" class="node">
<title>r&#45;disk.frame</title>
<g id="a_node2"><a xlink:href="https://github.com/conda-forge/r-disk.frame-feedstock" xlink:title="r disk frame">
<ellipse fill="#fde725" stroke="black" cx="87.4" cy="-90" rx="69.59" ry="18"/>
<text text-anchor="middle" x="87.4" y="-86.3" font-family="Times,serif" font-size="14.00">r disk frame</text>
</a>
</g>
</g>
<!-- r&#45;fst&#45;&gt;r&#45;disk.frame -->
<g id="edge1" class="edge">
<title>r&#45;fst&#45;&gt;r&#45;disk.frame</title>
<path fill="none" stroke="black" d="M49.77,-144.76C55.66,-136.35 62.98,-125.89 69.6,-116.44"/>
<polygon fill="black" stroke="black" points="72.55,-118.32 75.42,-108.12 66.81,-114.31 72.55,-118.32"/>
</g>
<!-- conda&#45;forge&#45;pinning -->
<g id="node3" class="node">
<title>conda&#45;forge&#45;pinning</title>
<ellipse fill="none" stroke="black" cx="1204.4" cy="-18" rx="103.5" ry="18"/>
<text text-anchor="middle" x="1204.4" y="-14.3" font-family="Times,serif" font-size="14.00">conda&#45;forge&#45;pinning</text>
</g>
<!-- r&#45;fst&#45;&gt;conda&#45;forge&#45;pinning -->
<g id="edge2" class="edge">
<title>r&#45;fst&#45;&gt;conda&#45;forge&#45;pinning</title>
<path fill="none" stroke="black" d="M24.57,-145.09C9.22,-125.48 -10.98,-92.27 8.4,-72 45.47,-33.26 799.96,-22.54 1091.14,-19.84"/>
<polygon fill="black" stroke="black" points="1091.33,-23.33 1101.3,-19.74 1091.27,-16.33 1091.33,-23.33"/>
</g>
<!-- r&#45;disk.frame&#45;&gt;conda&#45;forge&#45;pinning -->
<g id="edge3" class="edge">
<title>r&#45;disk.frame&#45;&gt;conda&#45;forge&#45;pinning</title>
<path fill="none" stroke="black" d="M137.84,-77.53C148.85,-75.38 160.48,-73.38 171.4,-72 503.75,-30.08 900.23,-21.11 1090.92,-19.33"/>
<polygon fill="black" stroke="black" points="1090.99,-22.83 1100.96,-19.24 1090.93,-15.83 1090.99,-22.83"/>
</g>
<!-- r&#45;hive -->
<g id="node4" class="node">
<title>r&#45;hive</title>
<g id="a_node4"><a xlink:href="https://github.com/conda-forge/r-hive-feedstock" xlink:title="r hive">
<ellipse fill="#fde725" stroke="black" cx="1178.4" cy="-234" rx="40.5" ry="18"/>
<text text-anchor="middle" x="1178.4" y="-230.3" font-family="Times,serif" font-size="14.00">r hive</text>
</a>
</g>
</g>
<!-- r&#45;hive&#45;&gt;conda&#45;forge&#45;pinning -->
<g id="edge4" class="edge">
<title>r&#45;hive&#45;&gt;conda&#45;forge&#45;pinning</title>
<path fill="none" stroke="black" d="M1174.12,-215.66C1167.5,-185.69 1156.95,-122.57 1171.4,-72 1174.16,-62.36 1179.24,-52.76 1184.59,-44.44"/>
<polygon fill="black" stroke="black" points="1187.64,-46.19 1190.42,-35.96 1181.87,-42.22 1187.64,-46.19"/>
</g>
<!-- r&#45;rjava -->
<g id="node5" class="node">
<title>r&#45;rjava</title>
<g id="a_node5"><a xlink:href="https://github.com/conda-forge/r-rjava-feedstock" xlink:title="r rjava">
<ellipse fill="#35b779" stroke="black" cx="864.4" cy="-450" rx="45" ry="18"/>
<text text-anchor="middle" x="864.4" y="-446.3" font-family="Times,serif" font-size="14.00">r rjava</text>
</a>
</g>
</g>
<!-- r&#45;rjava&#45;&gt;conda&#45;forge&#45;pinning -->
<g id="edge5" class="edge">
<title>r&#45;rjava&#45;&gt;conda&#45;forge&#45;pinning</title>
<path fill="none" stroke="black" d="M909.25,-448.42C992.38,-446.37 1165.64,-437.13 1206.4,-396 1263.1,-338.79 1232.08,-296.41 1227.4,-216 1226.44,-199.47 1213.94,-96.53 1207.78,-46.39"/>
<polygon fill="black" stroke="black" points="1211.23,-45.76 1206.53,-36.26 1204.28,-46.61 1211.23,-45.76"/>
</g>
<!-- r&#45;rjava&#45;&gt;r&#45;hive -->
<g id="edge6" class="edge">
<title>r&#45;rjava&#45;&gt;r&#45;hive</title>
<path fill="none" stroke="black" d="M909.26,-448.39C988.65,-446.25 1148.78,-436.85 1183.4,-396 1215.16,-358.53 1200.98,-296.68 1188.96,-261.54"/>
<polygon fill="black" stroke="black" points="1192.19,-260.19 1185.5,-251.97 1185.6,-262.57 1192.19,-260.19"/>
</g>
<!-- r&#45;xlsx -->
<g id="node6" class="node">
<title>r&#45;xlsx</title>
<g id="a_node6"><a xlink:href="https://github.com/conda-forge/r-xlsx-feedstock" xlink:title="r xlsx">
<ellipse fill="#fde725" stroke="black" cx="273.4" cy="-306" rx="40.5" ry="18"/>
<text text-anchor="middle" x="273.4" y="-302.3" font-family="Times,serif" font-size="14.00">r xlsx</text>
</a>
</g>
</g>
<!-- r&#45;rjava&#45;&gt;r&#45;xlsx -->
<g id="edge7" class="edge">
<title>r&#45;rjava&#45;&gt;r&#45;xlsx</title>
<path fill="none" stroke="black" d="M819.13,-448.69C708.7,-447.24 428.62,-439.29 347.4,-396 320.68,-381.76 299.78,-353.44 287.1,-332.56"/>
<polygon fill="black" stroke="black" points="290.08,-330.72 282.02,-323.84 284.03,-334.25 290.08,-330.72"/>
</g>
<!-- r&#45;xlsxjars -->
<g id="node7" class="node">
<title>r&#45;xlsxjars</title>
<g id="a_node7"><a xlink:href="https://github.com/conda-forge/r-xlsxjars-feedstock" xlink:title="r xlsxjars">
<ellipse fill="#fde725" stroke="black" cx="235.4" cy="-378" rx="60" ry="18"/>
<text text-anchor="middle" x="235.4" y="-374.3" font-family="Times,serif" font-size="14.00">r xlsxjars</text>
</a>
</g>
</g>
<!-- r&#45;rjava&#45;&gt;r&#45;xlsxjars -->
<g id="edge8" class="edge">
<title>r&#45;rjava&#45;&gt;r&#45;xlsxjars</title>
<path fill="none" stroke="black" d="M819.91,-446.73C725.4,-441.47 497.87,-426.51 309.4,-396 303.08,-394.98 296.5,-393.73 289.98,-392.38"/>
<polygon fill="black" stroke="black" points="290.34,-388.88 279.83,-390.2 288.87,-395.72 290.34,-388.88"/>
</g>
<!-- r&#45;xlconnectjars -->
<g id="node8" class="node">
<title>r&#45;xlconnectjars</title>
<g id="a_node8"><a xlink:href="https://github.com/conda-forge/r-xlconnectjars-feedstock" xlink:title="r xlconnectjars">
<ellipse fill="#fde725" stroke="black" cx="1353.4" cy="-378" rx="84" ry="18"/>
<text text-anchor="middle" x="1353.4" y="-374.3" font-family="Times,serif" font-size="14.00">r xlconnectjars</text>
</a>
</g>
</g>
<!-- r&#45;rjava&#45;&gt;r&#45;xlconnectjars -->
<g id="edge9" class="edge">
<title>r&#45;rjava&#45;&gt;r&#45;xlconnectjars</title>
<path fill="none" stroke="black" d="M906.72,-443.79C978.53,-434.82 1128.8,-415.55 1255.4,-396 1263.74,-394.71 1272.47,-393.3 1281.14,-391.85"/>
<polygon fill="black" stroke="black" points="1281.97,-395.26 1291.25,-390.14 1280.81,-388.35 1281.97,-395.26"/>
</g>
<!-- r&#45;xlconnect -->
<g id="node9" class="node">
<title>r&#45;xlconnect</title>
<g id="a_node9"><a xlink:href="https://github.com/conda-forge/r-xlconnect-feedstock" xlink:title="r xlconnect">
<ellipse fill="#fde725" stroke="black" cx="1378.4" cy="-306" rx="64.5" ry="18"/>
<text text-anchor="middle" x="1378.4" y="-302.3" font-family="Times,serif" font-size="14.00">r xlconnect</text>
</a>
</g>
</g>
<!-- r&#45;rjava&#45;&gt;r&#45;xlconnect -->
<g id="edge10" class="edge">
<title>r&#45;rjava&#45;&gt;r&#45;xlconnect</title>
<path fill="none" stroke="black" d="M909.61,-448.31C1040.1,-445.85 1410.4,-435.43 1446.4,-396 1457.19,-384.18 1453.43,-374.38 1446.4,-360 1440.01,-346.9 1428.64,-336.1 1417.01,-327.75"/>
<polygon fill="black" stroke="black" points="1418.82,-324.75 1408.56,-322.1 1414.92,-330.56 1418.82,-324.75"/>
</g>
<!-- r&#45;rcdklibs -->
<g id="node10" class="node">
<title>r&#45;rcdklibs</title>
<g id="a_node10"><a xlink:href="https://github.com/conda-forge/r-rcdklibs-feedstock" xlink:title="r rcdklibs">
<ellipse fill="#fde725" stroke="black" cx="480.4" cy="-378" rx="60" ry="18"/>
<text text-anchor="middle" x="480.4" y="-374.3" font-family="Times,serif" font-size="14.00">r rcdklibs</text>
</a>
</g>
</g>
<!-- r&#45;rjava&#45;&gt;r&#45;rcdklibs -->
<g id="edge11" class="edge">
<title>r&#45;rjava&#45;&gt;r&#45;rcdklibs</title>
<path fill="none" stroke="black" d="M824.4,-441.71C756.83,-429.39 619.77,-404.41 540.57,-389.97"/>
<polygon fill="black" stroke="black" points="540.73,-386.44 530.27,-388.09 539.48,-393.33 540.73,-386.44"/>
</g>
<!-- r&#45;rcdk -->
<g id="node11" class="node">
<title>r&#45;rcdk</title>
<g id="a_node11"><a xlink:href="https://github.com/conda-forge/r-rcdk-feedstock" xlink:title="r rcdk">
<ellipse fill="#fde725" stroke="black" cx="480.4" cy="-306" rx="40.5" ry="18"/>
<text text-anchor="middle" x="480.4" y="-302.3" font-family="Times,serif" font-size="14.00">r rcdk</text>
</a>
</g>
</g>
<!-- r&#45;rjava&#45;&gt;r&#45;rcdk -->
<g id="edge12" class="edge">
<title>r&#45;rjava&#45;&gt;r&#45;rcdk</title>
<path fill="none" stroke="black" d="M826.84,-440C788.91,-430.52 728.87,-414.42 678.4,-396 619.98,-374.67 554.61,-343.86 515.52,-324.65"/>
<polygon fill="black" stroke="black" points="516.68,-321.33 506.17,-320.03 513.58,-327.6 516.68,-321.33"/>
</g>
<!-- r&#45;rchoicedialogs -->
<g id="node12" class="node">
<title>r&#45;rchoicedialogs</title>
<g id="a_node12"><a xlink:href="https://github.com/conda-forge/r-rchoicedialogs-feedstock" xlink:title="r rchoicedialogs">
<ellipse fill="#fde725" stroke="black" cx="554.4" cy="-234" rx="89.08" ry="18"/>
<text text-anchor="middle" x="554.4" y="-230.3" font-family="Times,serif" font-size="14.00">r rchoicedialogs</text>
</a>
</g>
</g>
<!-- r&#45;rjava&#45;&gt;r&#45;rchoicedialogs -->
<g id="edge13" class="edge">
<title>r&#45;rjava&#45;&gt;r&#45;rchoicedialogs</title>
<path fill="none" stroke="black" d="M840.02,-434.6C822.64,-424.19 798.84,-409.61 778.4,-396 707.56,-348.8 627.1,-289.52 584.54,-257.7"/>
<polygon fill="black" stroke="black" points="586.39,-254.72 576.29,-251.52 582.2,-260.32 586.39,-254.72"/>
</g>
<!-- r&#45;rwekajars -->
<g id="node13" class="node">
<title>r&#45;rwekajars</title>
<g id="a_node13"><a xlink:href="https://github.com/conda-forge/r-rwekajars-feedstock" xlink:title="r rwekajars">
<ellipse fill="#fde725" stroke="black" cx="726.4" cy="-234" rx="64.5" ry="18"/>
<text text-anchor="middle" x="726.4" y="-230.3" font-family="Times,serif" font-size="14.00">r rwekajars</text>
</a>
</g>
</g>
<!-- r&#45;rjava&#45;&gt;r&#45;rwekajars -->
<g id="edge14" class="edge">
<title>r&#45;rjava&#45;&gt;r&#45;rwekajars</title>
<path fill="none" stroke="black" d="M844,-433.94C831.71,-424.13 816.37,-410.5 805.4,-396 773.06,-353.24 748.49,-295.17 735.86,-261.72"/>
<polygon fill="black" stroke="black" points="739.08,-260.34 732.33,-252.18 732.52,-262.77 739.08,-260.34"/>
</g>
<!-- r&#45;rweka -->
<g id="node14" class="node">
<title>r&#45;rweka</title>
<g id="a_node14"><a xlink:href="https://github.com/conda-forge/r-rweka-feedstock" xlink:title="r rweka">
<ellipse fill="#fde725" stroke="black" cx="765.4" cy="-162" rx="45" ry="18"/>
<text text-anchor="middle" x="765.4" y="-158.3" font-family="Times,serif" font-size="14.00">r rweka</text>
</a>
</g>
</g>
<!-- r&#45;rjava&#45;&gt;r&#45;rweka -->
<g id="edge15" class="edge">
<title>r&#45;rjava&#45;&gt;r&#45;rweka</title>
<path fill="none" stroke="black" d="M861.47,-432.02C854.3,-392.74 833.92,-293.03 799.4,-216 795.09,-206.37 789.2,-196.48 783.53,-187.88"/>
<polygon fill="black" stroke="black" points="786.31,-185.74 777.78,-179.45 780.53,-189.69 786.31,-185.74"/>
</g>
<!-- r&#45;subspace -->
<g id="node15" class="node">
<title>r&#45;subspace</title>
<g id="a_node15"><a xlink:href="https://github.com/conda-forge/r-subspace-feedstock" xlink:title="r subspace">
<ellipse fill="#fde725" stroke="black" cx="907.4" cy="-234" rx="60" ry="18"/>
<text text-anchor="middle" x="907.4" y="-230.3" font-family="Times,serif" font-size="14.00">r subspace</text>
</a>
</g>
</g>
<!-- r&#45;rjava&#45;&gt;r&#45;subspace -->
<g id="edge16" class="edge">
<title>r&#45;rjava&#45;&gt;r&#45;subspace</title>
<path fill="none" stroke="black" d="M865.84,-431.86C868.58,-402.2 875.46,-339.53 888.4,-288 890.6,-279.24 893.69,-269.89 896.74,-261.53"/>
<polygon fill="black" stroke="black" points="900.11,-262.51 900.38,-251.92 893.56,-260.04 900.11,-262.51"/>
</g>
<!-- r&#45;rmcfs -->
<g id="node16" class="node">
<title>r&#45;rmcfs</title>
<g id="a_node16"><a xlink:href="https://github.com/conda-forge/r-rmcfs-feedstock" xlink:title="r rmcfs">
<ellipse fill="#fde725" stroke="black" cx="960.4" cy="-162" rx="45" ry="18"/>
<text text-anchor="middle" x="960.4" y="-158.3" font-family="Times,serif" font-size="14.00">r rmcfs</text>
</a>
</g>
</g>
<!-- r&#45;rjava&#45;&gt;r&#45;rmcfs -->
<g id="edge17" class="edge">
<title>r&#45;rjava&#45;&gt;r&#45;rmcfs</title>
<path fill="none" stroke="black" d="M871.71,-431.88C876.07,-421.53 881.67,-408.06 886.4,-396 905.11,-348.35 895.4,-328.73 926.4,-288 942.99,-266.21 963.92,-276.37 976.4,-252 986.47,-232.34 980.64,-207.4 973.34,-188.93"/>
<polygon fill="black" stroke="black" points="976.52,-187.46 969.35,-179.67 970.09,-190.23 976.52,-187.46"/>
</g>
<!-- r&#45;rjdbc -->
<g id="node17" class="node">
<title>r&#45;rjdbc</title>
<g id="a_node17"><a xlink:href="https://github.com/conda-forge/r-rjdbc-feedstock" xlink:title="r rjdbc">
<ellipse fill="#fde725" stroke="black" cx="998.4" cy="-90" rx="45" ry="18"/>
<text text-anchor="middle" x="998.4" y="-86.3" font-family="Times,serif" font-size="14.00">r rjdbc</text>
</a>
</g>
</g>
<!-- r&#45;rjava&#45;&gt;r&#45;rjdbc -->
<g id="edge18" class="edge">
<title>r&#45;rjava&#45;&gt;r&#45;rjdbc</title>
<path fill="none" stroke="black" d="M878.99,-432.5C887.55,-422.37 898.26,-408.91 906.4,-396 934.95,-350.79 928.93,-331.93 959.4,-288 971.95,-269.92 982.46,-271.1 993.4,-252 1009.98,-223.08 1009.69,-213 1014.4,-180 1016.67,-164.16 1016.74,-159.83 1014.4,-144 1013.11,-135.21 1010.66,-125.86 1008.06,-117.5"/>
<polygon fill="black" stroke="black" points="1011.35,-116.29 1004.89,-107.9 1004.7,-118.49 1011.35,-116.29"/>
</g>
<!-- r&#45;tabulizer -->
<g id="node18" class="node">
<title>r&#45;tabulizer</title>
<g id="a_node18"><a xlink:href="https://github.com/conda-forge/r-tabulizer-feedstock" xlink:title="r tabulizer">
<ellipse fill="#fde725" stroke="black" cx="1033.4" cy="-306" rx="64.5" ry="18"/>
<text text-anchor="middle" x="1033.4" y="-302.3" font-family="Times,serif" font-size="14.00">r tabulizer</text>
</a>
</g>
</g>
<!-- r&#45;rjava&#45;&gt;r&#45;tabulizer -->
<g id="edge19" class="edge">
<title>r&#45;rjava&#45;&gt;r&#45;tabulizer</title>
<path fill="none" stroke="black" d="M892.23,-435.52C910.79,-425.85 935.22,-411.78 954.4,-396 977.61,-376.9 999.95,-350.77 1014.92,-331.77"/>
<polygon fill="black" stroke="black" points="1017.7,-333.89 1021.06,-323.84 1012.17,-329.6 1017.7,-333.89"/>
</g>
<!-- r&#45;tabulizerjars -->
<g id="node19" class="node">
<title>r&#45;tabulizerjars</title>
<g id="a_node19"><a xlink:href="https://github.com/conda-forge/r-tabulizerjars-feedstock" xlink:title="r tabulizerjars">
<ellipse fill="#fde725" stroke="black" cx="1090.4" cy="-378" rx="84" ry="18"/>
<text text-anchor="middle" x="1090.4" y="-374.3" font-family="Times,serif" font-size="14.00">r tabulizerjars</text>
</a>
</g>
</g>
<!-- r&#45;rjava&#45;&gt;r&#45;tabulizerjars -->
<g id="edge20" class="edge">
<title>r&#45;rjava&#45;&gt;r&#45;tabulizerjars</title>
<path fill="none" stroke="black" d="M899.22,-438.22C935.4,-427.01 992.57,-409.3 1034.97,-396.17"/>
<polygon fill="black" stroke="black" points="1036.08,-399.49 1044.6,-393.19 1034.01,-392.8 1036.08,-399.49"/>
</g>
<!-- r&#45;destinie -->
<g id="node20" class="node">
<title>r&#45;destinie</title>
<g id="a_node20"><a xlink:href="https://github.com/conda-forge/r-destinie-feedstock" xlink:title="r destinie">
<ellipse fill="#fde725" stroke="black" cx="311.4" cy="-234" rx="60" ry="18"/>
<text text-anchor="middle" x="311.4" y="-230.3" font-family="Times,serif" font-size="14.00">r destinie</text>
</a>
</g>
</g>
<!-- r&#45;rjava&#45;&gt;r&#45;destinie -->
<g id="edge21" class="edge">
<title>r&#45;rjava&#45;&gt;r&#45;destinie</title>
<path fill="none" stroke="black" d="M819.21,-448.61C718.33,-446.96 478.42,-438.55 411.4,-396 361.76,-364.48 332.7,-298.52 319.67,-261.55"/>
<polygon fill="black" stroke="black" points="322.94,-260.3 316.42,-251.95 316.31,-262.54 322.94,-260.3"/>
</g>
<!-- r&#45;xlsx&#45;&gt;conda&#45;forge&#45;pinning -->
<g id="edge22" class="edge">
<title>r&#45;xlsx&#45;&gt;conda&#45;forge&#45;pinning</title>
<path fill="none" stroke="black" d="M260.9,-288.84C253.97,-278.83 246.03,-265.38 242.4,-252 238.22,-236.56 237.38,-231.19 242.4,-216 267.45,-140.3 279.31,-110 349.4,-72 413.03,-37.5 874.25,-24.82 1091.62,-20.73"/>
<polygon fill="black" stroke="black" points="1091.85,-24.23 1101.79,-20.54 1091.72,-17.23 1091.85,-24.23"/>
</g>
<!-- r&#45;xlsx&#45;&gt;r&#45;destinie -->
<g id="edge23" class="edge">
<title>r&#45;xlsx&#45;&gt;r&#45;destinie</title>
<path fill="none" stroke="black" d="M282.41,-288.41C286.89,-280.16 292.4,-270.01 297.41,-260.78"/>
<polygon fill="black" stroke="black" points="300.5,-262.41 302.2,-251.96 294.35,-259.07 300.5,-262.41"/>
</g>
<!-- r&#45;xlsxjars&#45;&gt;conda&#45;forge&#45;pinning -->
<g id="edge24" class="edge">
<title>r&#45;xlsxjars&#45;&gt;conda&#45;forge&#45;pinning</title>
<path fill="none" stroke="black" d="M225.29,-360.19C210.67,-334.27 185.4,-282.57 185.4,-235 185.4,-235 185.4,-235 185.4,-161 185.4,-98.11 236.76,-94.7 295.4,-72 367.91,-43.94 865.78,-27.71 1092.44,-21.7"/>
<polygon fill="black" stroke="black" points="1092.79,-25.19 1102.69,-21.43 1092.6,-18.19 1092.79,-25.19"/>
</g>
<!-- r&#45;xlsxjars&#45;&gt;r&#45;xlsx -->
<g id="edge25" class="edge">
<title>r&#45;xlsxjars&#45;&gt;r&#45;xlsx</title>
<path fill="none" stroke="black" d="M244.6,-360.05C249.04,-351.89 254.45,-341.91 259.38,-332.82"/>
<polygon fill="black" stroke="black" points="262.59,-334.25 264.29,-323.79 256.44,-330.91 262.59,-334.25"/>
</g>
<!-- r&#45;xlconnectjars&#45;&gt;conda&#45;forge&#45;pinning -->
<g id="edge26" class="edge">
<title>r&#45;xlconnectjars&#45;&gt;conda&#45;forge&#45;pinning</title>
<path fill="none" stroke="black" d="M1334.52,-360.41C1324.4,-350.66 1312.41,-337.61 1304.4,-324 1275.64,-275.08 1229.35,-110.96 1211.63,-45.9"/>
<polygon fill="black" stroke="black" points="1214.94,-44.73 1208.94,-35.99 1208.18,-46.56 1214.94,-44.73"/>
</g>
<!-- r&#45;xlconnectjars&#45;&gt;r&#45;xlconnect -->
<g id="edge27" class="edge">
<title>r&#45;xlconnectjars&#45;&gt;r&#45;xlconnect</title>
<path fill="none" stroke="black" d="M1359.58,-359.7C1362.4,-351.81 1365.79,-342.3 1368.92,-333.55"/>
<polygon fill="black" stroke="black" points="1372.23,-334.7 1372.29,-324.1 1365.64,-332.34 1372.23,-334.7"/>
</g>
<!-- r&#45;xlconnect&#45;&gt;conda&#45;forge&#45;pinning -->
<g id="edge28" class="edge">
<title>r&#45;xlconnect&#45;&gt;conda&#45;forge&#45;pinning</title>
<path fill="none" stroke="black" d="M1368.59,-287.98C1351.53,-258.49 1315.21,-196.07 1283.4,-144 1262.31,-109.46 1237.24,-70.06 1221.09,-44.88"/>
<polygon fill="black" stroke="black" points="1223.91,-42.81 1215.56,-36.29 1218.02,-46.59 1223.91,-42.81"/>
</g>
<!-- r&#45;rcdklibs&#45;&gt;conda&#45;forge&#45;pinning -->
<g id="edge29" class="edge">
<title>r&#45;rcdklibs&#45;&gt;conda&#45;forge&#45;pinning</title>
<path fill="none" stroke="black" d="M461.71,-360.88C451.31,-351.09 438.81,-337.84 430.4,-324 408.66,-288.2 399.4,-276.89 399.4,-235 399.4,-235 399.4,-235 399.4,-161 399.4,-82.33 477.34,-95.55 552.4,-72 650.09,-41.36 933.56,-27.59 1092.69,-22.12"/>
<polygon fill="black" stroke="black" points="1093.11,-25.61 1102.99,-21.78 1092.88,-18.62 1093.11,-25.61"/>
</g>
<!-- r&#45;rcdklibs&#45;&gt;r&#45;rcdk -->
<g id="edge30" class="edge">
<title>r&#45;rcdklibs&#45;&gt;r&#45;rcdk</title>
<path fill="none" stroke="black" d="M480.4,-359.7C480.4,-351.98 480.4,-342.71 480.4,-334.11"/>
<polygon fill="black" stroke="black" points="483.9,-334.1 480.4,-324.1 476.9,-334.1 483.9,-334.1"/>
</g>
<!-- r&#45;rcdk&#45;&gt;conda&#45;forge&#45;pinning -->
<g id="edge31" class="edge">
<title>r&#45;rcdk&#45;&gt;conda&#45;forge&#45;pinning</title>
<path fill="none" stroke="black" d="M469.26,-288.58C458.29,-270.2 444.74,-239.87 456.4,-216 502.16,-122.39 544.55,-110.42 641.4,-72 720.81,-40.5 952.41,-27.34 1092.6,-22.13"/>
<polygon fill="black" stroke="black" points="1093.09,-25.62 1102.95,-21.76 1092.83,-18.62 1093.09,-25.62"/>
</g>
<!-- r&#45;rchoicedialogs&#45;&gt;conda&#45;forge&#45;pinning -->
<g id="edge32" class="edge">
<title>r&#45;rchoicedialogs&#45;&gt;conda&#45;forge&#45;pinning</title>
<path fill="none" stroke="black" d="M563,-215.87C581.19,-181.69 627.16,-105.42 690.4,-72 757.69,-36.45 961.54,-24.74 1091.39,-20.89"/>
<polygon fill="black" stroke="black" points="1091.88,-24.38 1101.77,-20.59 1091.68,-17.38 1091.88,-24.38"/>
</g>
<!-- r&#45;rwekajars&#45;&gt;conda&#45;forge&#45;pinning -->
<g id="edge33" class="edge">
<title>r&#45;rwekajars&#45;&gt;conda&#45;forge&#45;pinning</title>
<path fill="none" stroke="black" d="M717.51,-216.13C701.81,-183.72 674.08,-112.43 710.4,-72 735.57,-43.99 956.27,-29.53 1094.03,-23.17"/>
<polygon fill="black" stroke="black" points="1094.38,-26.66 1104.21,-22.71 1094.07,-19.66 1094.38,-26.66"/>
</g>
<!-- r&#45;rwekajars&#45;&gt;r&#45;rweka -->
<g id="edge34" class="edge">
<title>r&#45;rwekajars&#45;&gt;r&#45;rweka</title>
<path fill="none" stroke="black" d="M735.84,-216.05C740.44,-207.8 746.07,-197.7 751.18,-188.54"/>
<polygon fill="black" stroke="black" points="754.24,-190.23 756.05,-179.79 748.12,-186.82 754.24,-190.23"/>
</g>
<!-- r&#45;rweka&#45;&gt;conda&#45;forge&#45;pinning -->
<g id="edge35" class="edge">
<title>r&#45;rweka&#45;&gt;conda&#45;forge&#45;pinning</title>
<path fill="none" stroke="black" d="M747.28,-145.37C727.36,-126.35 700.64,-94.05 720.4,-72 744.93,-44.64 959.34,-30 1094.44,-23.42"/>
<polygon fill="black" stroke="black" points="1095.01,-26.9 1104.83,-22.92 1094.67,-19.9 1095.01,-26.9"/>
</g>
<!-- r&#45;fselector -->
<g id="node21" class="node">
<title>r&#45;fselector</title>
<g id="a_node21"><a xlink:href="https://github.com/conda-forge/r-fselector-feedstock" xlink:title="r fselector">
<ellipse fill="#fde725" stroke="black" cx="794.4" cy="-90" rx="64.5" ry="18"/>
<text text-anchor="middle" x="794.4" y="-86.3" font-family="Times,serif" font-size="14.00">r fselector</text>
</a>
</g>
</g>
<!-- r&#45;rweka&#45;&gt;r&#45;fselector -->
<g id="edge36" class="edge">
<title>r&#45;rweka&#45;&gt;r&#45;fselector</title>
<path fill="none" stroke="black" d="M772.42,-144.05C775.69,-136.18 779.65,-126.62 783.3,-117.79"/>
<polygon fill="black" stroke="black" points="786.65,-118.85 787.25,-108.28 780.19,-116.17 786.65,-118.85"/>
</g>
<!-- r&#45;subspace&#45;&gt;conda&#45;forge&#45;pinning -->
<g id="edge37" class="edge">
<title>r&#45;subspace&#45;&gt;conda&#45;forge&#45;pinning</title>
<path fill="none" stroke="black" d="M903.8,-215.79C897.9,-182.13 890.62,-107.79 932.4,-72 958.12,-49.97 1037.8,-36.14 1104.32,-28.16"/>
<polygon fill="black" stroke="black" points="1104.93,-31.61 1114.45,-26.97 1104.12,-24.66 1104.93,-31.61"/>
</g>
<!-- r&#45;rmcfs&#45;&gt;conda&#45;forge&#45;pinning -->
<g id="edge38" class="edge">
<title>r&#45;rmcfs&#45;&gt;conda&#45;forge&#45;pinning</title>
<path fill="none" stroke="black" d="M950.3,-144.27C939.97,-124.75 927.62,-92.55 944.4,-72 964.35,-47.57 1037.34,-34.11 1100.93,-26.88"/>
<polygon fill="black" stroke="black" points="1101.48,-30.34 1111.04,-25.77 1100.72,-23.38 1101.48,-30.34"/>
</g>
<!-- r&#45;rjdbc&#45;&gt;conda&#45;forge&#45;pinning -->
<g id="edge39" class="edge">
<title>r&#45;rjdbc&#45;&gt;conda&#45;forge&#45;pinning</title>
<path fill="none" stroke="black" d="M1031.5,-77.75C1063.34,-66.93 1112.06,-50.38 1149.68,-37.59"/>
<polygon fill="black" stroke="black" points="1151.14,-40.8 1159.48,-34.27 1148.89,-34.17 1151.14,-40.8"/>
</g>
<!-- r&#45;tabulizer&#45;&gt;conda&#45;forge&#45;pinning -->
<g id="edge40" class="edge">
<title>r&#45;tabulizer&#45;&gt;conda&#45;forge&#45;pinning</title>
<path fill="none" stroke="black" d="M1037.93,-287.91C1052.13,-234.24 1094.96,-72.54 1095.4,-72 1107.94,-56.79 1125.89,-45.61 1143.62,-37.56"/>
<polygon fill="black" stroke="black" points="1145.02,-40.76 1152.84,-33.62 1142.27,-34.33 1145.02,-40.76"/>
</g>
<!-- r&#45;tabulizerjars&#45;&gt;conda&#45;forge&#45;pinning -->
<g id="edge41" class="edge">
<title>r&#45;tabulizerjars&#45;&gt;conda&#45;forge&#45;pinning</title>
<path fill="none" stroke="black" d="M1095.99,-359.93C1099.27,-349.59 1103.35,-336.12 1106.4,-324 1134.44,-212.84 1111.19,-175.05 1161.4,-72 1166.28,-61.99 1173.37,-52.19 1180.39,-43.79"/>
<polygon fill="black" stroke="black" points="1183.08,-46.04 1187.03,-36.21 1177.81,-41.43 1183.08,-46.04"/>
</g>
<!-- r&#45;tabulizerjars&#45;&gt;r&#45;tabulizer -->
<g id="edge42" class="edge">
<title>r&#45;tabulizerjars&#45;&gt;r&#45;tabulizer</title>
<path fill="none" stroke="black" d="M1076.61,-360.05C1069.67,-351.54 1061.14,-341.07 1053.5,-331.68"/>
<polygon fill="black" stroke="black" points="1056.1,-329.33 1047.07,-323.79 1050.67,-333.75 1056.1,-329.33"/>
</g>
<!-- r&#45;destinie&#45;&gt;conda&#45;forge&#45;pinning -->
<g id="edge43" class="edge">
<title>r&#45;destinie&#45;&gt;conda&#45;forge&#45;pinning</title>
<path fill="none" stroke="black" d="M313.55,-215.98C318.82,-182 335.85,-106.07 385.4,-72 442.12,-33.01 879.74,-22.68 1091,-19.96"/>
<polygon fill="black" stroke="black" points="1091.24,-23.46 1101.19,-19.84 1091.15,-16.46 1091.24,-23.46"/>
</g>
<!-- r&#45;fselector&#45;&gt;conda&#45;forge&#45;pinning -->
<g id="edge52" class="edge">
<title>r&#45;fselector&#45;&gt;conda&#45;forge&#45;pinning</title>
<path fill="none" stroke="black" d="M843.21,-78.07C853.18,-75.96 863.61,-73.84 873.4,-72 955.97,-56.52 1050.65,-41.65 1117.54,-31.62"/>
<polygon fill="black" stroke="black" points="1118.25,-35.05 1127.62,-30.11 1117.21,-28.13 1118.25,-35.05"/>
</g>
<!-- r&#45;taxizesoap -->
<g id="node22" class="node">
<title>r&#45;taxizesoap</title>
<g id="a_node22"><a xlink:href="https://github.com/conda-forge/r-taxizesoap-feedstock" xlink:title="r taxizesoap">
<ellipse fill="#35b779" stroke="black" cx="1359.4" cy="-90" rx="69.59" ry="18"/>
<text text-anchor="middle" x="1359.4" y="-86.3" font-family="Times,serif" font-size="14.00">r taxizesoap</text>
</a>
</g>
</g>
<!-- r&#45;taxizesoap&#45;&gt;conda&#45;forge&#45;pinning -->
<g id="edge44" class="edge">
<title>r&#45;taxizesoap&#45;&gt;conda&#45;forge&#45;pinning</title>
<path fill="none" stroke="black" d="M1326.15,-73.98C1303.59,-63.8 1273.51,-50.21 1248.9,-39.09"/>
<polygon fill="black" stroke="black" points="1250.31,-35.89 1239.76,-34.97 1247.43,-42.27 1250.31,-35.89"/>
</g>
<!-- rpy2 -->
<g id="node23" class="node">
<title>rpy2</title>
<g id="a_node23"><a xlink:href="https://github.com/conda-forge/rpy2-feedstock/pull/55" xlink:title="rpy2">
<ellipse fill="#31688e" stroke="black" cx="1461.4" cy="-162" rx="30.59" ry="18"/>
<text text-anchor="middle" x="1461.4" y="-158.3" font-family="Times,serif" font-size="14.00" fill="white">rpy2</text>
</a>
</g>
</g>
<!-- rpy2&#45;&gt;conda&#45;forge&#45;pinning -->
<g id="edge45" class="edge">
<title>rpy2&#45;&gt;conda&#45;forge&#45;pinning</title>
<path fill="none" stroke="black" d="M1461.95,-143.66C1461.58,-123.55 1457.76,-90.78 1438.4,-72 1418.2,-52.4 1354.13,-38.73 1298.12,-30.18"/>
<polygon fill="black" stroke="black" points="1298.54,-26.7 1288.13,-28.7 1297.51,-33.63 1298.54,-26.7"/>
</g>
<!-- iterativewgcna -->
<g id="node24" class="node">
<title>iterativewgcna</title>
<g id="a_node24"><a xlink:href="https://github.com/conda-forge/iterativewgcna-feedstock" xlink:title="iterativewgcna">
<ellipse fill="#fde725" stroke="black" cx="1564.4" cy="-90" rx="79.5" ry="18"/>
<text text-anchor="middle" x="1564.4" y="-86.3" font-family="Times,serif" font-size="14.00">iterativewgcna</text>
</a>
</g>
</g>
<!-- rpy2&#45;&gt;iterativewgcna -->
<g id="edge46" class="edge">
<title>rpy2&#45;&gt;iterativewgcna</title>
<path fill="none" stroke="black" d="M1480.78,-147.83C1495.17,-138.05 1515.13,-124.49 1531.94,-113.06"/>
<polygon fill="black" stroke="black" points="1534.1,-115.83 1540.4,-107.31 1530.16,-110.04 1534.1,-115.83"/>
</g>
<!-- iterativewgcna&#45;&gt;conda&#45;forge&#45;pinning -->
<g id="edge47" class="edge">
<title>iterativewgcna&#45;&gt;conda&#45;forge&#45;pinning</title>
<path fill="none" stroke="black" d="M1506.16,-77.68C1444.84,-65.75 1348.01,-46.92 1280.64,-33.82"/>
<polygon fill="black" stroke="black" points="1280.99,-30.33 1270.5,-31.85 1279.65,-37.2 1280.99,-30.33"/>
</g>
<!-- r&#45;rvaidememoire -->
<g id="node25" class="node">
<title>r&#45;rvaidememoire</title>
<g id="a_node25"><a xlink:href="https://github.com/conda-forge/r-rvaidememoire-feedstock" xlink:title="r rvaidememoire">
<ellipse fill="#35b779" stroke="black" cx="1597.4" cy="-162" rx="84" ry="18"/>
<text text-anchor="middle" x="1597.4" y="-158.3" font-family="Times,serif" font-size="14.00">r rvaidememoire</text>
</a>
</g>
</g>
<!-- r&#45;rvaidememoire&#45;&gt;conda&#45;forge&#45;pinning -->
<g id="edge48" class="edge">
<title>r&#45;rvaidememoire&#45;&gt;conda&#45;forge&#45;pinning</title>
<path fill="none" stroke="black" d="M1620.03,-144.43C1643.01,-125.64 1672.55,-94.67 1652.4,-72 1630.16,-46.97 1437.76,-31.73 1312.43,-24.37"/>
<polygon fill="black" stroke="black" points="1312.59,-20.88 1302.4,-23.79 1312.18,-27.86 1312.59,-20.88"/>
</g>
<!-- r&#45;hier.part -->
<g id="node26" class="node">
<title>r&#45;hier.part</title>
<g id="a_node26"><a xlink:href="https://github.com/conda-forge/r-hier.part-feedstock/pull/5" xlink:title="r hier part">
<ellipse fill="#31688e" stroke="black" cx="1654.4" cy="-234" rx="64.5" ry="18"/>
<text text-anchor="middle" x="1654.4" y="-230.3" font-family="Times,serif" font-size="14.00" fill="white">r hier part</text>
</a>
</g>
</g>
<!-- r&#45;hier.part&#45;&gt;conda&#45;forge&#45;pinning -->
<g id="edge49" class="edge">
<title>r&#45;hier.part&#45;&gt;conda&#45;forge&#45;pinning</title>
<path fill="none" stroke="black" d="M1669.64,-216.24C1677.5,-206.44 1686.28,-193.4 1690.4,-180 1704.75,-133.34 1707.53,-103.69 1670.4,-72 1643.66,-49.18 1440.93,-33.03 1311.82,-24.93"/>
<polygon fill="black" stroke="black" points="1311.7,-21.42 1301.5,-24.29 1311.27,-28.41 1311.7,-21.42"/>
</g>
<!-- r&#45;bezier -->
<g id="node27" class="node">
<title>r&#45;bezier</title>
<g id="a_node27"><a xlink:href="https://github.com/conda-forge/r-bezier-feedstock/pull/3" xlink:title="r bezier">
<ellipse fill="#31688e" stroke="black" cx="1707.4" cy="-306" rx="50.09" ry="18"/>
<text text-anchor="middle" x="1707.4" y="-302.3" font-family="Times,serif" font-size="14.00" fill="white">r bezier</text>
</a>
</g>
</g>
<!-- r&#45;bezier&#45;&gt;conda&#45;forge&#45;pinning -->
<g id="edge50" class="edge">
<title>r&#45;bezier&#45;&gt;conda&#45;forge&#45;pinning</title>
<path fill="none" stroke="black" d="M1715.71,-287.79C1720.14,-277.63 1725.14,-264.38 1727.4,-252 1738.62,-190.5 1702.35,-75.6 1698.4,-72 1670.54,-46.59 1450.23,-31.16 1313.4,-23.94"/>
<polygon fill="black" stroke="black" points="1313.45,-20.44 1303.29,-23.41 1313.09,-27.43 1313.45,-20.44"/>
</g>
<!-- r&#45;hiver -->
<g id="node28" class="node">
<title>r&#45;hiver</title>
<g id="a_node28"><a xlink:href="https://github.com/conda-forge/r-hiver-feedstock" xlink:title="r hiver">
<ellipse fill="#35b779" stroke="black" cx="1785.4" cy="-378" rx="45" ry="18"/>
<text text-anchor="middle" x="1785.4" y="-374.3" font-family="Times,serif" font-size="14.00">r hiver</text>
</a>
</g>
</g>
<!-- r&#45;hiver&#45;&gt;conda&#45;forge&#45;pinning -->
<g id="edge51" class="edge">
<title>r&#45;hiver&#45;&gt;conda&#45;forge&#45;pinning</title>
<path fill="none" stroke="black" d="M1785.4,-359.95C1785.4,-333.29 1785.4,-280.11 1785.4,-235 1785.4,-235 1785.4,-235 1785.4,-161 1785.4,-111.49 1761.51,-96.35 1718.4,-72 1652.08,-34.54 1447.55,-23.46 1317.37,-20.24"/>
<polygon fill="black" stroke="black" points="1317.43,-16.74 1307.35,-20 1317.27,-23.74 1317.43,-16.74"/>
</g>
<!-- r&#45;feasts -->
<g id="node29" class="node">
<title>r&#45;feasts</title>
<g id="a_node29"><a xlink:href="https://github.com/conda-forge/r-feasts-feedstock" xlink:title="r feasts">
<ellipse fill="#fde725" stroke="black" cx="1863.4" cy="-90" rx="50.09" ry="18"/>
<text text-anchor="middle" x="1863.4" y="-86.3" font-family="Times,serif" font-size="14.00">r feasts</text>
</a>
</g>
</g>
<!-- r&#45;feasts&#45;&gt;conda&#45;forge&#45;pinning -->
<g id="edge53" class="edge">
<title>r&#45;feasts&#45;&gt;conda&#45;forge&#45;pinning</title>
<path fill="none" stroke="black" d="M1826.08,-77.94C1817.39,-75.68 1808.12,-73.53 1799.4,-72 1631.93,-42.52 1434.89,-29.06 1314.87,-23.19"/>
<polygon fill="black" stroke="black" points="1314.73,-19.68 1304.57,-22.7 1314.39,-26.68 1314.73,-19.68"/>
</g>
<!-- r&#45;littler -->
<g id="node30" class="node">
<title>r&#45;littler</title>
<g id="a_node30"><a xlink:href="https://github.com/conda-forge/r-littler-feedstock/pull/2" xlink:title="r littler">
<ellipse fill="#31688e" stroke="black" cx="1986.4" cy="-90" rx="54.69" ry="18"/>
<text text-anchor="middle" x="1986.4" y="-86.3" font-family="Times,serif" font-size="14.00" fill="white">r littler</text>
</a>
</g>
</g>
<!-- r&#45;littler&#45;&gt;conda&#45;forge&#45;pinning -->
<g id="edge54" class="edge">
<title>r&#45;littler&#45;&gt;conda&#45;forge&#45;pinning</title>
<path fill="none" stroke="black" d="M1947.39,-77.41C1939.2,-75.32 1930.57,-73.37 1922.4,-72 1710.4,-36.34 1459.17,-24.67 1317.11,-20.86"/>
<polygon fill="black" stroke="black" points="1317.17,-17.36 1307.08,-20.59 1316.98,-24.35 1317.17,-17.36"/>
</g>
<!-- r&#45;rxode -->
<g id="node31" class="node">
<title>r&#45;rxode</title>
<g id="a_node31"><a xlink:href="https://github.com/conda-forge/r-rxode-feedstock" xlink:title="r rxode">
<ellipse fill="#35b779" stroke="black" cx="2109.4" cy="-162" rx="45" ry="18"/>
<text text-anchor="middle" x="2109.4" y="-158.3" font-family="Times,serif" font-size="14.00">r rxode</text>
</a>
</g>
</g>
<!-- r&#45;rxode&#45;&gt;conda&#45;forge&#45;pinning -->
<g id="edge55" class="edge">
<title>r&#45;rxode&#45;&gt;conda&#45;forge&#45;pinning</title>
<path fill="none" stroke="black" d="M2106.86,-143.88C2102.76,-123.02 2092.55,-88.53 2068.4,-72 2007.97,-30.64 1538.74,-21.54 1318.21,-19.55"/>
<polygon fill="black" stroke="black" points="1317.93,-16.05 1307.9,-19.46 1317.87,-23.05 1317.93,-16.05"/>
</g>
<!-- r&#45;nlmixr -->
<g id="node32" class="node">
<title>r&#45;nlmixr</title>
<g id="a_node32"><a xlink:href="https://github.com/conda-forge/r-nlmixr-feedstock" xlink:title="r nlmixr">
<ellipse fill="#fde725" stroke="black" cx="2185.4" cy="-90" rx="50.09" ry="18"/>
<text text-anchor="middle" x="2185.4" y="-86.3" font-family="Times,serif" font-size="14.00">r nlmixr</text>
</a>
</g>
</g>
<!-- r&#45;rxode&#45;&gt;r&#45;nlmixr -->
<g id="edge56" class="edge">
<title>r&#45;rxode&#45;&gt;r&#45;nlmixr</title>
<path fill="none" stroke="black" d="M2126.65,-145.12C2136.68,-135.87 2149.5,-124.07 2160.61,-113.84"/>
<polygon fill="black" stroke="black" points="2162.98,-116.41 2167.96,-107.06 2158.24,-111.26 2162.98,-116.41"/>
</g>
<!-- r&#45;nlmixr&#45;&gt;conda&#45;forge&#45;pinning -->
<g id="edge57" class="edge">
<title>r&#45;nlmixr&#45;&gt;conda&#45;forge&#45;pinning</title>
<path fill="none" stroke="black" d="M2148.45,-77.83C2139.66,-75.55 2130.26,-73.42 2121.4,-72 1834.82,-26.14 1492.24,-18.7 1318.13,-18.23"/>
<polygon fill="black" stroke="black" points="1317.94,-14.73 1307.93,-18.21 1317.93,-21.73 1317.94,-14.73"/>
</g>
<!-- r&#45;tiledb -->
<g id="node33" class="node">
<title>r&#45;tiledb</title>
<g id="a_node33"><a xlink:href="https://github.com/conda-forge/r-tiledb-feedstock/pull/5" xlink:title="r tiledb">
<ellipse fill="#31688e" stroke="black" cx="2223.4" cy="-162" rx="50.09" ry="18"/>
<text text-anchor="middle" x="2223.4" y="-158.3" font-family="Times,serif" font-size="14.00" fill="white">r tiledb</text>
</a>
</g>
</g>
<!-- r&#45;tiledb&#45;&gt;conda&#45;forge&#45;pinning -->
<g id="edge58" class="edge">
<title>r&#45;tiledb&#45;&gt;conda&#45;forge&#45;pinning</title>
<path fill="none" stroke="black" d="M2235.22,-144.24C2247.63,-124.39 2263,-91.56 2244.4,-72 2212.87,-38.82 1580.22,-24.97 1317.38,-20.63"/>
<polygon fill="black" stroke="black" points="1317.1,-17.12 1307.05,-20.46 1316.99,-24.12 1317.1,-17.12"/>
</g>
<!-- r&#45;raceid -->
<g id="node34" class="node">
<title>r&#45;raceid</title>
<g id="a_node34"><a xlink:href="https://github.com/conda-forge/r-raceid-feedstock" xlink:title="r raceid">
<ellipse fill="#35b779" stroke="black" cx="2281.4" cy="-234" rx="50.09" ry="18"/>
<text text-anchor="middle" x="2281.4" y="-230.3" font-family="Times,serif" font-size="14.00">r raceid</text>
</a>
</g>
</g>
<!-- r&#45;raceid&#45;&gt;conda&#45;forge&#45;pinning -->
<g id="edge59" class="edge">
<title>r&#45;raceid&#45;&gt;conda&#45;forge&#45;pinning</title>
<path fill="none" stroke="black" d="M2286.08,-215.82C2294.15,-181.88 2306,-106.55 2263.4,-72 2227.12,-42.58 1582.39,-26.49 1317.06,-21.09"/>
<polygon fill="black" stroke="black" points="1317.08,-17.59 1307.01,-20.89 1316.94,-24.59 1317.08,-17.59"/>
</g>
<!-- r&#45;botor -->
<g id="node35" class="node">
<title>r&#45;botor</title>
<g id="a_node35"><a xlink:href="https://github.com/conda-forge/r-botor-feedstock" xlink:title="r botor">
<ellipse fill="#35b779" stroke="black" cx="2359.4" cy="-306" rx="45" ry="18"/>
<text text-anchor="middle" x="2359.4" y="-302.3" font-family="Times,serif" font-size="14.00">r botor</text>
</a>
</g>
</g>
<!-- r&#45;botor&#45;&gt;conda&#45;forge&#45;pinning -->
<g id="edge60" class="edge">
<title>r&#45;botor&#45;&gt;conda&#45;forge&#45;pinning</title>
<path fill="none" stroke="black" d="M2360.42,-287.75C2362,-243.16 2359.21,-123.93 2289.4,-72 2250.89,-43.35 1587.15,-26.74 1317.2,-21.15"/>
<polygon fill="black" stroke="black" points="1317.06,-17.65 1306.99,-20.94 1316.91,-24.64 1317.06,-17.65"/>
</g>
<!-- r&#45;slider -->
<g id="node36" class="node">
<title>r&#45;slider</title>
<g id="a_node36"><a xlink:href="https://github.com/conda-forge/r-slider-feedstock" xlink:title="r slider">
<ellipse fill="#35b779" stroke="black" cx="1930.4" cy="-162" rx="50.09" ry="18"/>
<text text-anchor="middle" x="1930.4" y="-158.3" font-family="Times,serif" font-size="14.00">r slider</text>
</a>
</g>
</g>
<!-- r&#45;slider&#45;&gt;conda&#45;forge&#45;pinning -->
<g id="edge61" class="edge">
<title>r&#45;slider&#45;&gt;conda&#45;forge&#45;pinning</title>
<path fill="none" stroke="black" d="M1975.14,-153.71C2001.89,-146.79 2033.81,-133.47 2050.4,-108 2059.14,-94.59 2061.36,-83.66 2050.4,-72 2025.64,-45.64 1539.95,-28.51 1315.9,-21.98"/>
<polygon fill="black" stroke="black" points="1315.85,-18.48 1305.76,-21.68 1315.65,-25.47 1315.85,-18.48"/>
</g>
<!-- r&#45;slider&#45;&gt;r&#45;feasts -->
<g id="edge62" class="edge">
<title>r&#45;slider&#45;&gt;r&#45;feasts</title>
<path fill="none" stroke="black" d="M1914.86,-144.76C1906.24,-135.75 1895.36,-124.39 1885.83,-114.43"/>
<polygon fill="black" stroke="black" points="1888.3,-111.95 1878.86,-107.15 1883.24,-116.79 1888.3,-111.95"/>
</g>
<!-- r&#45;comparegroups -->
<g id="node37" class="node">
<title>r&#45;comparegroups</title>
<g id="a_node37"><a xlink:href="https://github.com/conda-forge/r-comparegroups-feedstock" xlink:title="r comparegroups">
<ellipse fill="#35b779" stroke="black" cx="2432.4" cy="-378" rx="84" ry="18"/>
<text text-anchor="middle" x="2432.4" y="-374.3" font-family="Times,serif" font-size="14.00">r comparegroups</text>
</a>
</g>
</g>
<!-- r&#45;comparegroups&#45;&gt;conda&#45;forge&#45;pinning -->
<g id="edge63" class="edge">
<title>r&#45;comparegroups&#45;&gt;conda&#45;forge&#45;pinning</title>
<path fill="none" stroke="black" d="M2432.4,-359.95C2432.4,-333.29 2432.4,-280.11 2432.4,-235 2432.4,-235 2432.4,-235 2432.4,-161 2432.4,-97.07 2379.29,-94.36 2319.4,-72 2227.43,-37.66 1582.41,-24.48 1317.53,-20.47"/>
<polygon fill="black" stroke="black" points="1317.56,-16.97 1307.5,-20.32 1317.45,-23.97 1317.56,-16.97"/>
</g>
</g>
</svg>
