<?xml version="1.0" encoding="UTF-8" standalone="no"?>
<!DOCTYPE svg PUBLIC "-//W3C//DTD SVG 1.1//EN"
 "http://www.w3.org/Graphics/SVG/1.1/DTD/svg11.dtd">
<!-- Generated by graphviz version 2.42.3 (20191010.1750)
 -->
<!-- Title: %3 Pages: 1 -->
<svg width="2273pt" height="476pt"
 viewBox="0.00 0.00 2272.88 476.00" xmlns="http://www.w3.org/2000/svg" xmlns:xlink="http://www.w3.org/1999/xlink">
<g id="graph0" class="graph" transform="scale(1 1) rotate(0) translate(4 472)">
<title>%3</title>
<polygon fill="white" stroke="transparent" points="-4,4 -4,-472 2268.88,-472 2268.88,4 -4,4"/>
<!-- r&#45;fst -->
<g id="node1" class="node">
<title>r&#45;fst</title>
<g id="a_node1"><a xlink:href="https://github.com/conda-forge/r-fst-feedstock/pull/11" xlink:title="r fst">
<ellipse fill="#31688e" stroke="black" cx="38.38" cy="-162" rx="35.19" ry="18"/>
<text text-anchor="middle" x="38.38" y="-158.3" font-family="Times,serif" font-size="14.00" fill="white">r fst</text>
</a>
</g>
</g>
<!-- r&#45;disk.frame -->
<g id="node2" class="node">
<title>r&#45;disk.frame</title>
<g id="a_node2"><a xlink:href="https://github.com/conda-forge/r-disk.frame-feedstock" xlink:title="r disk frame">
<ellipse fill="#fde725" stroke="black" cx="87.38" cy="-90" rx="69.59" ry="18"/>
<text text-anchor="middle" x="87.38" y="-86.3" font-family="Times,serif" font-size="14.00">r disk frame</text>
</a>
</g>
</g>
<!-- r&#45;fst&#45;&gt;r&#45;disk.frame -->
<g id="edge1" class="edge">
<title>r&#45;fst&#45;&gt;r&#45;disk.frame</title>
<path fill="none" stroke="black" d="M49.75,-144.76C55.64,-136.35 62.96,-125.89 69.58,-116.44"/>
<polygon fill="black" stroke="black" points="72.53,-118.32 75.4,-108.12 66.8,-114.31 72.53,-118.32"/>
</g>
<!-- conda&#45;forge&#45;pinning -->
<g id="node3" class="node">
<title>conda&#45;forge&#45;pinning</title>
<ellipse fill="none" stroke="black" cx="1129.38" cy="-18" rx="103.5" ry="18"/>
<text text-anchor="middle" x="1129.38" y="-14.3" font-family="Times,serif" font-size="14.00">conda&#45;forge&#45;pinning</text>
</g>
<!-- r&#45;fst&#45;&gt;conda&#45;forge&#45;pinning -->
<g id="edge2" class="edge">
<title>r&#45;fst&#45;&gt;conda&#45;forge&#45;pinning</title>
<path fill="none" stroke="black" d="M24.56,-145.1C9.22,-125.49 -10.97,-92.29 8.38,-72 42.78,-35.94 738.21,-23.67 1016.1,-20.19"/>
<polygon fill="black" stroke="black" points="1016.26,-23.69 1026.21,-20.07 1016.17,-16.69 1016.26,-23.69"/>
</g>
<!-- r&#45;disk.frame&#45;&gt;conda&#45;forge&#45;pinning -->
<g id="edge3" class="edge">
<title>r&#45;disk.frame&#45;&gt;conda&#45;forge&#45;pinning</title>
<path fill="none" stroke="black" d="M137.83,-77.56C148.84,-75.41 160.46,-73.4 171.38,-72 474.87,-33.1 836.05,-22.74 1015.89,-19.99"/>
<polygon fill="black" stroke="black" points="1016.21,-23.48 1026.16,-19.83 1016.11,-16.48 1016.21,-23.48"/>
</g>
<!-- r&#45;hive -->
<g id="node4" class="node">
<title>r&#45;hive</title>
<g id="a_node4"><a xlink:href="https://github.com/conda-forge/r-hive-feedstock" xlink:title="r hive">
<ellipse fill="#fde725" stroke="black" cx="1309.38" cy="-234" rx="40.5" ry="18"/>
<text text-anchor="middle" x="1309.38" y="-230.3" font-family="Times,serif" font-size="14.00">r hive</text>
</a>
</g>
</g>
<!-- r&#45;hive&#45;&gt;conda&#45;forge&#45;pinning -->
<g id="edge4" class="edge">
<title>r&#45;hive&#45;&gt;conda&#45;forge&#45;pinning</title>
<path fill="none" stroke="black" d="M1308.03,-215.63C1304.64,-183.32 1293.02,-113.52 1254.38,-72 1239.34,-55.84 1218.58,-44.41 1198.28,-36.41"/>
<polygon fill="black" stroke="black" points="1199.3,-33.05 1188.7,-32.86 1196.87,-39.62 1199.3,-33.05"/>
</g>
<!-- r&#45;rjava -->
<g id="node5" class="node">
<title>r&#45;rjava</title>
<g id="a_node5"><a xlink:href="https://github.com/conda-forge/r-rjava-feedstock" xlink:title="r rjava">
<ellipse fill="#35b779" stroke="black" cx="857.38" cy="-450" rx="45" ry="18"/>
<text text-anchor="middle" x="857.38" y="-446.3" font-family="Times,serif" font-size="14.00">r rjava</text>
</a>
</g>
</g>
<!-- r&#45;rjava&#45;&gt;conda&#45;forge&#45;pinning -->
<g id="edge5" class="edge">
<title>r&#45;rjava&#45;&gt;conda&#45;forge&#45;pinning</title>
<path fill="none" stroke="black" d="M902.11,-446.97C1013.98,-441.47 1299.22,-424.75 1330.38,-396 1437.42,-297.24 1392.06,-166.67 1281.38,-72 1260.67,-54.28 1233.67,-42.37 1208.19,-34.41"/>
<polygon fill="black" stroke="black" points="1209.1,-31.03 1198.52,-31.55 1207.11,-37.74 1209.1,-31.03"/>
</g>
<!-- r&#45;rjava&#45;&gt;r&#45;hive -->
<g id="edge6" class="edge">
<title>r&#45;rjava&#45;&gt;r&#45;hive</title>
<path fill="none" stroke="black" d="M901.82,-447.04C1010.06,-441.81 1280.51,-425.85 1307.38,-396 1340.32,-359.41 1328.89,-296.97 1318.54,-261.56"/>
<polygon fill="black" stroke="black" points="1321.86,-260.43 1315.56,-251.92 1315.17,-262.5 1321.86,-260.43"/>
</g>
<!-- r&#45;xlsx -->
<g id="node6" class="node">
<title>r&#45;xlsx</title>
<g id="a_node6"><a xlink:href="https://github.com/conda-forge/r-xlsx-feedstock" xlink:title="r xlsx">
<ellipse fill="#fde725" stroke="black" cx="440.38" cy="-306" rx="40.5" ry="18"/>
<text text-anchor="middle" x="440.38" y="-302.3" font-family="Times,serif" font-size="14.00">r xlsx</text>
</a>
</g>
</g>
<!-- r&#45;rjava&#45;&gt;r&#45;xlsx -->
<g id="edge7" class="edge">
<title>r&#45;rjava&#45;&gt;r&#45;xlsx</title>
<path fill="none" stroke="black" d="M813,-447.01C728.59,-442.51 548.79,-429.21 497.38,-396 474.6,-381.28 459.13,-353.89 450.12,-333.36"/>
<polygon fill="black" stroke="black" points="453.27,-331.83 446.21,-323.93 446.8,-334.5 453.27,-331.83"/>
</g>
<!-- r&#45;xlsxjars -->
<g id="node7" class="node">
<title>r&#45;xlsxjars</title>
<g id="a_node7"><a xlink:href="https://github.com/conda-forge/r-xlsxjars-feedstock" xlink:title="r xlsxjars">
<ellipse fill="#fde725" stroke="black" cx="385.38" cy="-378" rx="60" ry="18"/>
<text text-anchor="middle" x="385.38" y="-374.3" font-family="Times,serif" font-size="14.00">r xlsxjars</text>
</a>
</g>
</g>
<!-- r&#45;rjava&#45;&gt;r&#45;xlsxjars -->
<g id="edge8" class="edge">
<title>r&#45;rjava&#45;&gt;r&#45;xlsxjars</title>
<path fill="none" stroke="black" d="M814.18,-444.59C740.9,-436.8 587.65,-419.22 459.38,-396 453.17,-394.88 446.69,-393.58 440.26,-392.21"/>
<polygon fill="black" stroke="black" points="440.77,-388.73 430.25,-390.01 439.27,-395.57 440.77,-388.73"/>
</g>
<!-- r&#45;xlconnectjars -->
<g id="node8" class="node">
<title>r&#45;xlconnectjars</title>
<g id="a_node8"><a xlink:href="https://github.com/conda-forge/r-xlconnectjars-feedstock" xlink:title="r xlconnectjars">
<ellipse fill="#fde725" stroke="black" cx="185.38" cy="-378" rx="84" ry="18"/>
<text text-anchor="middle" x="185.38" y="-374.3" font-family="Times,serif" font-size="14.00">r xlconnectjars</text>
</a>
</g>
</g>
<!-- r&#45;rjava&#45;&gt;r&#45;xlconnectjars -->
<g id="edge9" class="edge">
<title>r&#45;rjava&#45;&gt;r&#45;xlconnectjars</title>
<path fill="none" stroke="black" d="M813.32,-446.13C716.95,-439.6 480.31,-422.13 283.38,-396 274.68,-394.84 265.56,-393.48 256.55,-392.03"/>
<polygon fill="black" stroke="black" points="256.87,-388.53 246.43,-390.36 255.73,-395.44 256.87,-388.53"/>
</g>
<!-- r&#45;xlconnect -->
<g id="node9" class="node">
<title>r&#45;xlconnect</title>
<g id="a_node9"><a xlink:href="https://github.com/conda-forge/r-xlconnect-feedstock" xlink:title="r xlconnect">
<ellipse fill="#fde725" stroke="black" cx="278.38" cy="-306" rx="64.5" ry="18"/>
<text text-anchor="middle" x="278.38" y="-302.3" font-family="Times,serif" font-size="14.00">r xlconnect</text>
</a>
</g>
</g>
<!-- r&#45;rjava&#45;&gt;r&#45;xlconnect -->
<g id="edge10" class="edge">
<title>r&#45;rjava&#45;&gt;r&#45;xlconnect</title>
<path fill="none" stroke="black" d="M812.52,-447.21C689.97,-441.95 356.06,-425.08 316.38,-396 296.65,-381.54 287.07,-354.73 282.48,-334.3"/>
<polygon fill="black" stroke="black" points="285.88,-333.44 280.51,-324.3 279.01,-334.79 285.88,-333.44"/>
</g>
<!-- r&#45;rcdklibs -->
<g id="node10" class="node">
<title>r&#45;rcdklibs</title>
<g id="a_node10"><a xlink:href="https://github.com/conda-forge/r-rcdklibs-feedstock" xlink:title="r rcdklibs">
<ellipse fill="#fde725" stroke="black" cx="626.38" cy="-378" rx="60" ry="18"/>
<text text-anchor="middle" x="626.38" y="-374.3" font-family="Times,serif" font-size="14.00">r rcdklibs</text>
</a>
</g>
</g>
<!-- r&#45;rjava&#45;&gt;r&#45;rcdklibs -->
<g id="edge11" class="edge">
<title>r&#45;rjava&#45;&gt;r&#45;rcdklibs</title>
<path fill="none" stroke="black" d="M822.55,-438.44C783.77,-426.69 720.74,-407.59 676.62,-394.22"/>
<polygon fill="black" stroke="black" points="677.54,-390.85 666.96,-391.29 675.51,-397.54 677.54,-390.85"/>
</g>
<!-- r&#45;rcdk -->
<g id="node11" class="node">
<title>r&#45;rcdk</title>
<g id="a_node11"><a xlink:href="https://github.com/conda-forge/r-rcdk-feedstock" xlink:title="r rcdk">
<ellipse fill="#fde725" stroke="black" cx="626.38" cy="-306" rx="40.5" ry="18"/>
<text text-anchor="middle" x="626.38" y="-302.3" font-family="Times,serif" font-size="14.00">r rcdk</text>
</a>
</g>
</g>
<!-- r&#45;rjava&#45;&gt;r&#45;rcdk -->
<g id="edge12" class="edge">
<title>r&#45;rjava&#45;&gt;r&#45;rcdk</title>
<path fill="none" stroke="black" d="M833.96,-434.6C792.15,-408.9 704.67,-355.12 657.73,-326.27"/>
<polygon fill="black" stroke="black" points="659.53,-323.27 649.18,-321.01 655.87,-329.23 659.53,-323.27"/>
</g>
<!-- r&#45;rchoicedialogs -->
<g id="node12" class="node">
<title>r&#45;rchoicedialogs</title>
<g id="a_node12"><a xlink:href="https://github.com/conda-forge/r-rchoicedialogs-feedstock" xlink:title="r rchoicedialogs">
<ellipse fill="#fde725" stroke="black" cx="685.38" cy="-234" rx="89.08" ry="18"/>
<text text-anchor="middle" x="685.38" y="-230.3" font-family="Times,serif" font-size="14.00">r rchoicedialogs</text>
</a>
</g>
</g>
<!-- r&#45;rjava&#45;&gt;r&#45;rchoicedialogs -->
<g id="edge13" class="edge">
<title>r&#45;rjava&#45;&gt;r&#45;rchoicedialogs</title>
<path fill="none" stroke="black" d="M844.17,-432.56C814.24,-395.32 741.11,-304.33 705.51,-260.04"/>
<polygon fill="black" stroke="black" points="708.11,-257.69 699.12,-252.09 702.65,-262.07 708.11,-257.69"/>
</g>
<!-- r&#45;rwekajars -->
<g id="node13" class="node">
<title>r&#45;rwekajars</title>
<g id="a_node13"><a xlink:href="https://github.com/conda-forge/r-rwekajars-feedstock" xlink:title="r rwekajars">
<ellipse fill="#fde725" stroke="black" cx="857.38" cy="-234" rx="64.5" ry="18"/>
<text text-anchor="middle" x="857.38" y="-230.3" font-family="Times,serif" font-size="14.00">r rwekajars</text>
</a>
</g>
</g>
<!-- r&#45;rjava&#45;&gt;r&#45;rwekajars -->
<g id="edge14" class="edge">
<title>r&#45;rjava&#45;&gt;r&#45;rwekajars</title>
<path fill="none" stroke="black" d="M857.38,-431.85C857.38,-394.83 857.38,-307.18 857.38,-262.39"/>
<polygon fill="black" stroke="black" points="860.88,-262.23 857.38,-252.23 853.88,-262.23 860.88,-262.23"/>
</g>
<!-- r&#45;rweka -->
<g id="node14" class="node">
<title>r&#45;rweka</title>
<g id="a_node14"><a xlink:href="https://github.com/conda-forge/r-rweka-feedstock" xlink:title="r rweka">
<ellipse fill="#fde725" stroke="black" cx="896.38" cy="-162" rx="45" ry="18"/>
<text text-anchor="middle" x="896.38" y="-158.3" font-family="Times,serif" font-size="14.00">r rweka</text>
</a>
</g>
</g>
<!-- r&#45;rjava&#45;&gt;r&#45;rweka -->
<g id="edge15" class="edge">
<title>r&#45;rjava&#45;&gt;r&#45;rweka</title>
<path fill="none" stroke="black" d="M865.96,-432.19C882.41,-398.87 917.9,-321.65 930.38,-252 933.21,-236.25 934.89,-231.35 930.38,-216 927.46,-206.03 922.03,-196.17 916.35,-187.7"/>
<polygon fill="black" stroke="black" points="919.1,-185.53 910.43,-179.43 913.4,-189.6 919.1,-185.53"/>
</g>
<!-- r&#45;subspace -->
<g id="node15" class="node">
<title>r&#45;subspace</title>
<g id="a_node15"><a xlink:href="https://github.com/conda-forge/r-subspace-feedstock" xlink:title="r subspace">
<ellipse fill="#fde725" stroke="black" cx="1038.38" cy="-234" rx="60" ry="18"/>
<text text-anchor="middle" x="1038.38" y="-230.3" font-family="Times,serif" font-size="14.00">r subspace</text>
</a>
</g>
</g>
<!-- r&#45;rjava&#45;&gt;r&#45;subspace -->
<g id="edge16" class="edge">
<title>r&#45;rjava&#45;&gt;r&#45;subspace</title>
<path fill="none" stroke="black" d="M892.51,-438.58C915.46,-430.23 944.73,-416.5 964.38,-396 1000.74,-358.09 990.15,-335.59 1012.38,-288 1016.48,-279.23 1021.1,-269.72 1025.29,-261.2"/>
<polygon fill="black" stroke="black" points="1028.49,-262.62 1029.79,-252.11 1022.22,-259.52 1028.49,-262.62"/>
</g>
<!-- r&#45;rmcfs -->
<g id="node16" class="node">
<title>r&#45;rmcfs</title>
<g id="a_node16"><a xlink:href="https://github.com/conda-forge/r-rmcfs-feedstock" xlink:title="r rmcfs">
<ellipse fill="#fde725" stroke="black" cx="1091.38" cy="-162" rx="45" ry="18"/>
<text text-anchor="middle" x="1091.38" y="-158.3" font-family="Times,serif" font-size="14.00">r rmcfs</text>
</a>
</g>
</g>
<!-- r&#45;rjava&#45;&gt;r&#45;rmcfs -->
<g id="edge17" class="edge">
<title>r&#45;rjava&#45;&gt;r&#45;rmcfs</title>
<path fill="none" stroke="black" d="M896.69,-441.06C925.64,-433.55 964.48,-419.77 991.38,-396 1032.37,-359.78 1012.95,-327.88 1050.38,-288 1070.89,-266.15 1092.92,-278.24 1107.38,-252 1118.05,-232.65 1112.15,-207.69 1104.68,-189.12"/>
<polygon fill="black" stroke="black" points="1107.82,-187.55 1100.59,-179.8 1101.41,-190.37 1107.82,-187.55"/>
</g>
<!-- r&#45;rjdbc -->
<g id="node17" class="node">
<title>r&#45;rjdbc</title>
<g id="a_node17"><a xlink:href="https://github.com/conda-forge/r-rjdbc-feedstock" xlink:title="r rjdbc">
<ellipse fill="#fde725" stroke="black" cx="1129.38" cy="-90" rx="45" ry="18"/>
<text text-anchor="middle" x="1129.38" y="-86.3" font-family="Times,serif" font-size="14.00">r rjdbc</text>
</a>
</g>
</g>
<!-- r&#45;rjava&#45;&gt;r&#45;rjdbc -->
<g id="edge18" class="edge">
<title>r&#45;rjava&#45;&gt;r&#45;rjdbc</title>
<path fill="none" stroke="black" d="M899.59,-443.43C934.54,-437 983.88,-423.53 1018.38,-396 1062.17,-361.06 1047.46,-330.99 1083.38,-288 1098.93,-269.39 1111.36,-272.45 1124.38,-252 1142.29,-223.88 1140.67,-213 1145.38,-180 1147.65,-164.16 1147.72,-159.83 1145.38,-144 1144.09,-135.21 1141.64,-125.86 1139.04,-117.5"/>
<polygon fill="black" stroke="black" points="1142.33,-116.29 1135.87,-107.9 1135.69,-118.49 1142.33,-116.29"/>
</g>
<!-- r&#45;tabulizer -->
<g id="node18" class="node">
<title>r&#45;tabulizer</title>
<g id="a_node18"><a xlink:href="https://github.com/conda-forge/r-tabulizer-feedstock" xlink:title="r tabulizer">
<ellipse fill="#fde725" stroke="black" cx="1157.38" cy="-306" rx="64.5" ry="18"/>
<text text-anchor="middle" x="1157.38" y="-302.3" font-family="Times,serif" font-size="14.00">r tabulizer</text>
</a>
</g>
</g>
<!-- r&#45;rjava&#45;&gt;r&#45;tabulizer -->
<g id="edge19" class="edge">
<title>r&#45;rjava&#45;&gt;r&#45;tabulizer</title>
<path fill="none" stroke="black" d="M901.42,-446.23C948.26,-441.59 1023.06,-429.17 1078.38,-396 1104.78,-380.17 1127.2,-352.63 1141.34,-332.37"/>
<polygon fill="black" stroke="black" points="1144.36,-334.16 1147.06,-323.91 1138.56,-330.23 1144.36,-334.16"/>
</g>
<!-- r&#45;tabulizerjars -->
<g id="node19" class="node">
<title>r&#45;tabulizerjars</title>
<g id="a_node19"><a xlink:href="https://github.com/conda-forge/r-tabulizerjars-feedstock" xlink:title="r tabulizerjars">
<ellipse fill="#fde725" stroke="black" cx="1214.38" cy="-378" rx="84" ry="18"/>
<text text-anchor="middle" x="1214.38" y="-374.3" font-family="Times,serif" font-size="14.00">r tabulizerjars</text>
</a>
</g>
</g>
<!-- r&#45;rjava&#45;&gt;r&#45;tabulizerjars -->
<g id="edge20" class="edge">
<title>r&#45;rjava&#45;&gt;r&#45;tabulizerjars</title>
<path fill="none" stroke="black" d="M896.95,-441.24C956.69,-429.53 1070.74,-407.17 1144.62,-392.68"/>
<polygon fill="black" stroke="black" points="1145.63,-396.05 1154.77,-390.69 1144.29,-389.18 1145.63,-396.05"/>
</g>
<!-- r&#45;destinie -->
<g id="node20" class="node">
<title>r&#45;destinie</title>
<g id="a_node20"><a xlink:href="https://github.com/conda-forge/r-destinie-feedstock" xlink:title="r destinie">
<ellipse fill="#fde725" stroke="black" cx="442.38" cy="-234" rx="60" ry="18"/>
<text text-anchor="middle" x="442.38" y="-230.3" font-family="Times,serif" font-size="14.00">r destinie</text>
</a>
</g>
</g>
<!-- r&#45;rjava&#45;&gt;r&#45;destinie -->
<g id="edge21" class="edge">
<title>r&#45;rjava&#45;&gt;r&#45;destinie</title>
<path fill="none" stroke="black" d="M813.57,-445.61C740.72,-439.28 598.59,-423.7 557.38,-396 510.31,-364.35 523.43,-333.37 489.38,-288 482.04,-278.21 473.3,-268.02 465.36,-259.22"/>
<polygon fill="black" stroke="black" points="467.7,-256.59 458.36,-251.59 462.54,-261.32 467.7,-256.59"/>
</g>
<!-- r&#45;xlsx&#45;&gt;conda&#45;forge&#45;pinning -->
<g id="edge22" class="edge">
<title>r&#45;xlsx&#45;&gt;conda&#45;forge&#45;pinning</title>
<path fill="none" stroke="black" d="M414.46,-292.15C399.46,-283.16 381.91,-269.62 373.38,-252 366.41,-237.6 368.36,-231.19 373.38,-216 398.43,-140.3 410.67,-110.69 480.38,-72 526.21,-46.57 846.16,-30.17 1019.07,-23.06"/>
<polygon fill="black" stroke="black" points="1019.38,-26.56 1029.23,-22.65 1019.09,-19.56 1019.38,-26.56"/>
</g>
<!-- r&#45;xlsx&#45;&gt;r&#45;destinie -->
<g id="edge23" class="edge">
<title>r&#45;xlsx&#45;&gt;r&#45;destinie</title>
<path fill="none" stroke="black" d="M440.88,-287.7C441.1,-279.98 441.36,-270.71 441.61,-262.11"/>
<polygon fill="black" stroke="black" points="445.11,-262.2 441.9,-252.1 438.11,-262 445.11,-262.2"/>
</g>
<!-- r&#45;xlsxjars&#45;&gt;conda&#45;forge&#45;pinning -->
<g id="edge24" class="edge">
<title>r&#45;xlsxjars&#45;&gt;conda&#45;forge&#45;pinning</title>
<path fill="none" stroke="black" d="M380.46,-359.88C365.73,-304.7 328.84,-131.64 426.38,-72 475.51,-41.97 832.21,-27.45 1017.8,-21.87"/>
<polygon fill="black" stroke="black" points="1017.98,-25.36 1027.87,-21.57 1017.77,-18.37 1017.98,-25.36"/>
</g>
<!-- r&#45;xlsxjars&#45;&gt;r&#45;xlsx -->
<g id="edge25" class="edge">
<title>r&#45;xlsxjars&#45;&gt;r&#45;xlsx</title>
<path fill="none" stroke="black" d="M398.42,-360.41C405.2,-351.78 413.62,-341.06 421.14,-331.5"/>
<polygon fill="black" stroke="black" points="424.02,-333.5 427.44,-323.47 418.51,-329.17 424.02,-333.5"/>
</g>
<!-- r&#45;xlconnectjars&#45;&gt;conda&#45;forge&#45;pinning -->
<g id="edge26" class="edge">
<title>r&#45;xlconnectjars&#45;&gt;conda&#45;forge&#45;pinning</title>
<path fill="none" stroke="black" d="M185.38,-359.95C185.38,-333.29 185.38,-280.11 185.38,-235 185.38,-235 185.38,-235 185.38,-161 185.38,-104.74 224.04,-94.98 275.38,-72 341.37,-42.46 800.78,-27.2 1017.15,-21.58"/>
<polygon fill="black" stroke="black" points="1017.37,-25.08 1027.27,-21.32 1017.19,-18.08 1017.37,-25.08"/>
</g>
<!-- r&#45;xlconnectjars&#45;&gt;r&#45;xlconnect -->
<g id="edge27" class="edge">
<title>r&#45;xlconnectjars&#45;&gt;r&#45;xlconnect</title>
<path fill="none" stroke="black" d="M207.42,-360.41C219.79,-351.1 235.38,-339.37 248.8,-329.27"/>
<polygon fill="black" stroke="black" points="250.94,-332.04 256.82,-323.23 246.73,-326.45 250.94,-332.04"/>
</g>
<!-- r&#45;xlconnect&#45;&gt;conda&#45;forge&#45;pinning -->
<g id="edge28" class="edge">
<title>r&#45;xlconnect&#45;&gt;conda&#45;forge&#45;pinning</title>
<path fill="none" stroke="black" d="M273.71,-287.82C263.06,-244.44 242.31,-129.8 302.38,-72 352.62,-23.67 800.74,-18.14 1015.54,-18.31"/>
<polygon fill="black" stroke="black" points="1015.58,-21.81 1025.59,-18.32 1015.59,-14.81 1015.58,-21.81"/>
</g>
<!-- r&#45;rcdklibs&#45;&gt;conda&#45;forge&#45;pinning -->
<g id="edge29" class="edge">
<title>r&#45;rcdklibs&#45;&gt;conda&#45;forge&#45;pinning</title>
<path fill="none" stroke="black" d="M605.09,-361.11C594.28,-351.68 582.22,-338.7 576.38,-324 571.13,-310.76 576.07,-237.85 580.38,-216 595.82,-137.77 614.58,-104.51 687.38,-72 745.21,-46.18 910.14,-31.7 1021.35,-24.62"/>
<polygon fill="black" stroke="black" points="1021.84,-28.1 1031.6,-23.98 1021.4,-21.11 1021.84,-28.1"/>
</g>
<!-- r&#45;rcdklibs&#45;&gt;r&#45;rcdk -->
<g id="edge30" class="edge">
<title>r&#45;rcdklibs&#45;&gt;r&#45;rcdk</title>
<path fill="none" stroke="black" d="M626.38,-359.7C626.38,-351.98 626.38,-342.71 626.38,-334.11"/>
<polygon fill="black" stroke="black" points="629.88,-334.1 626.38,-324.1 622.88,-334.1 629.88,-334.1"/>
</g>
<!-- r&#45;rcdk&#45;&gt;conda&#45;forge&#45;pinning -->
<g id="edge31" class="edge">
<title>r&#45;rcdk&#45;&gt;conda&#45;forge&#45;pinning</title>
<path fill="none" stroke="black" d="M610.74,-289.06C595.11,-271.1 575.05,-241.14 587.38,-216 633.42,-122.14 677.23,-113.03 773.38,-72 850.51,-39.09 944.59,-26.12 1016.67,-21.23"/>
<polygon fill="black" stroke="black" points="1016.93,-24.72 1026.69,-20.59 1016.49,-17.73 1016.93,-24.72"/>
</g>
<!-- r&#45;rchoicedialogs&#45;&gt;conda&#45;forge&#45;pinning -->
<g id="edge32" class="edge">
<title>r&#45;rchoicedialogs&#45;&gt;conda&#45;forge&#45;pinning</title>
<path fill="none" stroke="black" d="M694.42,-215.97C713.27,-182.31 760.22,-107.46 822.38,-72 857.29,-52.09 955.09,-37.44 1031.02,-28.65"/>
<polygon fill="black" stroke="black" points="1031.57,-32.11 1041.11,-27.5 1030.78,-25.15 1031.57,-32.11"/>
</g>
<!-- r&#45;rwekajars&#45;&gt;conda&#45;forge&#45;pinning -->
<g id="edge33" class="edge">
<title>r&#45;rwekajars&#45;&gt;conda&#45;forge&#45;pinning</title>
<path fill="none" stroke="black" d="M848.65,-216.12C833.4,-184.01 806.69,-113.66 841.38,-72 864.34,-44.44 949.5,-31.16 1021.3,-24.79"/>
<polygon fill="black" stroke="black" points="1021.67,-28.27 1031.34,-23.93 1021.08,-21.29 1021.67,-28.27"/>
</g>
<!-- r&#45;rwekajars&#45;&gt;r&#45;rweka -->
<g id="edge34" class="edge">
<title>r&#45;rwekajars&#45;&gt;r&#45;rweka</title>
<path fill="none" stroke="black" d="M866.83,-216.05C871.42,-207.8 877.05,-197.7 882.16,-188.54"/>
<polygon fill="black" stroke="black" points="885.22,-190.23 887.03,-179.79 879.11,-186.82 885.22,-190.23"/>
</g>
<!-- r&#45;rweka&#45;&gt;conda&#45;forge&#45;pinning -->
<g id="edge35" class="edge">
<title>r&#45;rweka&#45;&gt;conda&#45;forge&#45;pinning</title>
<path fill="none" stroke="black" d="M878.21,-145.29C858.62,-126.48 832.62,-94.68 851.38,-72 873.25,-45.57 953.97,-32.2 1022.84,-25.51"/>
<polygon fill="black" stroke="black" points="1023.27,-28.99 1032.9,-24.57 1022.62,-22.02 1023.27,-28.99"/>
</g>
<!-- r&#45;fselector -->
<g id="node21" class="node">
<title>r&#45;fselector</title>
<g id="a_node21"><a xlink:href="https://github.com/conda-forge/r-fselector-feedstock" xlink:title="r fselector">
<ellipse fill="#fde725" stroke="black" cx="925.38" cy="-90" rx="64.5" ry="18"/>
<text text-anchor="middle" x="925.38" y="-86.3" font-family="Times,serif" font-size="14.00">r fselector</text>
</a>
</g>
</g>
<!-- r&#45;rweka&#45;&gt;r&#45;fselector -->
<g id="edge36" class="edge">
<title>r&#45;rweka&#45;&gt;r&#45;fselector</title>
<path fill="none" stroke="black" d="M903.4,-144.05C906.67,-136.18 910.63,-126.62 914.28,-117.79"/>
<polygon fill="black" stroke="black" points="917.63,-118.85 918.23,-108.28 911.17,-116.17 917.63,-118.85"/>
</g>
<!-- r&#45;subspace&#45;&gt;conda&#45;forge&#45;pinning -->
<g id="edge37" class="edge">
<title>r&#45;subspace&#45;&gt;conda&#45;forge&#45;pinning</title>
<path fill="none" stroke="black" d="M1037.98,-215.82C1037.75,-205.44 1037.5,-191.96 1037.38,-180 1037.23,-164 1034.25,-159.69 1037.38,-144 1044.18,-110.01 1046.98,-100.03 1067.38,-72 1075.47,-60.89 1086.34,-50.58 1096.71,-42.07"/>
<polygon fill="black" stroke="black" points="1099.18,-44.59 1104.87,-35.65 1094.85,-39.09 1099.18,-44.59"/>
</g>
<!-- r&#45;rmcfs&#45;&gt;conda&#45;forge&#45;pinning -->
<g id="edge38" class="edge">
<title>r&#45;rmcfs&#45;&gt;conda&#45;forge&#45;pinning</title>
<path fill="none" stroke="black" d="M1082.96,-144.31C1074.9,-125.95 1065.36,-95.89 1075.38,-72 1080.1,-60.76 1088.5,-50.7 1097.28,-42.45"/>
<polygon fill="black" stroke="black" points="1099.8,-44.89 1105.02,-35.67 1095.19,-39.63 1099.8,-44.89"/>
</g>
<!-- r&#45;rjdbc&#45;&gt;conda&#45;forge&#45;pinning -->
<g id="edge39" class="edge">
<title>r&#45;rjdbc&#45;&gt;conda&#45;forge&#45;pinning</title>
<path fill="none" stroke="black" d="M1129.38,-71.7C1129.38,-63.98 1129.38,-54.71 1129.38,-46.11"/>
<polygon fill="black" stroke="black" points="1132.88,-46.1 1129.38,-36.1 1125.88,-46.1 1132.88,-46.1"/>
</g>
<!-- r&#45;tabulizer&#45;&gt;conda&#45;forge&#45;pinning -->
<g id="edge40" class="edge">
<title>r&#45;tabulizer&#45;&gt;conda&#45;forge&#45;pinning</title>
<path fill="none" stroke="black" d="M1165.94,-287.8C1170.54,-277.65 1175.79,-264.4 1178.38,-252 1194.75,-173.66 1214.36,-145.79 1183.38,-72 1178.67,-60.76 1170.27,-50.7 1161.49,-42.45"/>
<polygon fill="black" stroke="black" points="1163.58,-39.63 1153.75,-35.67 1158.97,-44.89 1163.58,-39.63"/>
</g>
<!-- r&#45;tabulizerjars&#45;&gt;conda&#45;forge&#45;pinning -->
<g id="edge41" class="edge">
<title>r&#45;tabulizerjars&#45;&gt;conda&#45;forge&#45;pinning</title>
<path fill="none" stroke="black" d="M1221.04,-359.63C1224.59,-349.42 1228.59,-336.17 1230.38,-324 1232.72,-308.17 1231.34,-303.97 1230.38,-288 1224.6,-191.48 1253.91,-155.05 1204.38,-72 1196.83,-59.33 1184.93,-48.89 1172.83,-40.73"/>
<polygon fill="black" stroke="black" points="1174.36,-37.56 1164.03,-35.19 1170.63,-43.48 1174.36,-37.56"/>
</g>
<!-- r&#45;tabulizerjars&#45;&gt;r&#45;tabulizer -->
<g id="edge42" class="edge">
<title>r&#45;tabulizerjars&#45;&gt;r&#45;tabulizer</title>
<path fill="none" stroke="black" d="M1200.59,-360.05C1193.66,-351.54 1185.13,-341.07 1177.48,-331.68"/>
<polygon fill="black" stroke="black" points="1180.08,-329.33 1171.06,-323.79 1174.66,-333.75 1180.08,-329.33"/>
</g>
<!-- r&#45;destinie&#45;&gt;conda&#45;forge&#45;pinning -->
<g id="edge43" class="edge">
<title>r&#45;destinie&#45;&gt;conda&#45;forge&#45;pinning</title>
<path fill="none" stroke="black" d="M444.63,-215.81C450.07,-181.86 467.32,-106.52 516.38,-72 556.39,-43.85 852.96,-28.85 1018.47,-22.59"/>
<polygon fill="black" stroke="black" points="1018.83,-26.08 1028.69,-22.21 1018.57,-19.09 1018.83,-26.08"/>
</g>
<!-- r&#45;fselector&#45;&gt;conda&#45;forge&#45;pinning -->
<g id="edge49" class="edge">
<title>r&#45;fselector&#45;&gt;conda&#45;forge&#45;pinning</title>
<path fill="none" stroke="black" d="M964.72,-75.5C996.15,-64.72 1040.54,-49.48 1075.32,-37.55"/>
<polygon fill="black" stroke="black" points="1076.53,-40.84 1084.85,-34.28 1074.26,-34.22 1076.53,-40.84"/>
</g>
<!-- rpy2 -->
<g id="node22" class="node">
<title>rpy2</title>
<g id="a_node22"><a xlink:href="https://github.com/conda-forge/rpy2-feedstock/pull/55" xlink:title="rpy2">
<ellipse fill="#31688e" stroke="black" cx="1439.38" cy="-162" rx="30.59" ry="18"/>
<text text-anchor="middle" x="1439.38" y="-158.3" font-family="Times,serif" font-size="14.00" fill="white">rpy2</text>
</a>
</g>
</g>
<!-- rpy2&#45;&gt;conda&#45;forge&#45;pinning -->
<g id="edge44" class="edge">
<title>rpy2&#45;&gt;conda&#45;forge&#45;pinning</title>
<path fill="none" stroke="black" d="M1421.6,-147.24C1408.01,-136.65 1388.87,-121.58 1372.38,-108 1353.41,-92.37 1352.16,-83.42 1330.38,-72 1294.45,-53.14 1251.3,-40.63 1214.21,-32.52"/>
<polygon fill="black" stroke="black" points="1214.93,-29.09 1204.42,-30.45 1213.48,-35.94 1214.93,-29.09"/>
</g>
<!-- iterativewgcna -->
<g id="node23" class="node">
<title>iterativewgcna</title>
<g id="a_node23"><a xlink:href="https://github.com/conda-forge/iterativewgcna-feedstock" xlink:title="iterativewgcna">
<ellipse fill="#fde725" stroke="black" cx="1461.38" cy="-90" rx="79.5" ry="18"/>
<text text-anchor="middle" x="1461.38" y="-86.3" font-family="Times,serif" font-size="14.00">iterativewgcna</text>
</a>
</g>
</g>
<!-- rpy2&#45;&gt;iterativewgcna -->
<g id="edge45" class="edge">
<title>rpy2&#45;&gt;iterativewgcna</title>
<path fill="none" stroke="black" d="M1444.71,-144.05C1447.16,-136.26 1450.13,-126.82 1452.87,-118.08"/>
<polygon fill="black" stroke="black" points="1456.3,-118.86 1455.96,-108.28 1449.62,-116.77 1456.3,-118.86"/>
</g>
<!-- iterativewgcna&#45;&gt;conda&#45;forge&#45;pinning -->
<g id="edge46" class="edge">
<title>iterativewgcna&#45;&gt;conda&#45;forge&#45;pinning</title>
<path fill="none" stroke="black" d="M1405.44,-77.2C1349.69,-65.45 1263.78,-47.34 1202.62,-34.44"/>
<polygon fill="black" stroke="black" points="1203.16,-30.98 1192.65,-32.34 1201.71,-37.83 1203.16,-30.98"/>
</g>
<!-- r&#45;rvaidememoire -->
<g id="node24" class="node">
<title>r&#45;rvaidememoire</title>
<g id="a_node24"><a xlink:href="https://github.com/conda-forge/r-rvaidememoire-feedstock" xlink:title="r rvaidememoire">
<ellipse fill="#35b779" stroke="black" cx="1642.38" cy="-90" rx="84" ry="18"/>
<text text-anchor="middle" x="1642.38" y="-86.3" font-family="Times,serif" font-size="14.00">r rvaidememoire</text>
</a>
</g>
</g>
<!-- r&#45;rvaidememoire&#45;&gt;conda&#45;forge&#45;pinning -->
<g id="edge47" class="edge">
<title>r&#45;rvaidememoire&#45;&gt;conda&#45;forge&#45;pinning</title>
<path fill="none" stroke="black" d="M1581.93,-77.45C1571.11,-75.52 1559.93,-73.63 1549.38,-72 1438.23,-54.84 1309.89,-39.26 1224.62,-29.5"/>
<polygon fill="black" stroke="black" points="1224.78,-25.99 1214.44,-28.34 1223.98,-32.95 1224.78,-25.99"/>
</g>
<!-- r&#45;hiver -->
<g id="node25" class="node">
<title>r&#45;hiver</title>
<g id="a_node25"><a xlink:href="https://github.com/conda-forge/r-hiver-feedstock" xlink:title="r hiver">
<ellipse fill="#35b779" stroke="black" cx="1719.38" cy="-162" rx="45" ry="18"/>
<text text-anchor="middle" x="1719.38" y="-158.3" font-family="Times,serif" font-size="14.00">r hiver</text>
</a>
</g>
</g>
<!-- r&#45;hiver&#45;&gt;conda&#45;forge&#45;pinning -->
<g id="edge48" class="edge">
<title>r&#45;hiver&#45;&gt;conda&#45;forge&#45;pinning</title>
<path fill="none" stroke="black" d="M1729.69,-144.28C1740.44,-124.47 1753.42,-91.68 1735.38,-72 1702.82,-36.46 1408.54,-24.66 1242.37,-20.81"/>
<polygon fill="black" stroke="black" points="1242.18,-17.3 1232.1,-20.58 1242.02,-24.3 1242.18,-17.3"/>
</g>
<!-- r&#45;littler -->
<g id="node26" class="node">
<title>r&#45;littler</title>
<g id="a_node26"><a xlink:href="https://github.com/conda-forge/r-littler-feedstock/pull/2" xlink:title="r littler">
<ellipse fill="#31688e" stroke="black" cx="1792.38" cy="-234" rx="54.69" ry="18"/>
<text text-anchor="middle" x="1792.38" y="-230.3" font-family="Times,serif" font-size="14.00" fill="white">r littler</text>
</a>
</g>
</g>
<!-- r&#45;littler&#45;&gt;conda&#45;forge&#45;pinning -->
<g id="edge50" class="edge">
<title>r&#45;littler&#45;&gt;conda&#45;forge&#45;pinning</title>
<path fill="none" stroke="black" d="M1794.26,-215.81C1796.87,-182.2 1797.16,-107.93 1754.38,-72 1716.08,-39.82 1410.78,-26.53 1241.49,-21.59"/>
<polygon fill="black" stroke="black" points="1241.38,-18.09 1231.29,-21.3 1241.18,-25.09 1241.38,-18.09"/>
</g>
<!-- r&#45;rxode -->
<g id="node27" class="node">
<title>r&#45;rxode</title>
<g id="a_node27"><a xlink:href="https://github.com/conda-forge/r-rxode-feedstock/pull/3" xlink:title="r rxode">
<ellipse fill="#31688e" stroke="black" cx="1887.38" cy="-162" rx="45" ry="18"/>
<text text-anchor="middle" x="1887.38" y="-158.3" font-family="Times,serif" font-size="14.00" fill="white">r rxode</text>
</a>
</g>
</g>
<!-- r&#45;rxode&#45;&gt;conda&#45;forge&#45;pinning -->
<g id="edge51" class="edge">
<title>r&#45;rxode&#45;&gt;conda&#45;forge&#45;pinning</title>
<path fill="none" stroke="black" d="M1874.67,-144.31C1856.46,-120.91 1823.27,-80.27 1806.38,-72 1756.88,-47.77 1418.48,-30.66 1239.64,-23.19"/>
<polygon fill="black" stroke="black" points="1239.55,-19.69 1229.41,-22.77 1239.26,-26.68 1239.55,-19.69"/>
</g>
<!-- r&#45;nlmixr -->
<g id="node28" class="node">
<title>r&#45;nlmixr</title>
<g id="a_node28"><a xlink:href="https://github.com/conda-forge/r-nlmixr-feedstock" xlink:title="r nlmixr">
<ellipse fill="#fde725" stroke="black" cx="1908.38" cy="-90" rx="50.09" ry="18"/>
<text text-anchor="middle" x="1908.38" y="-86.3" font-family="Times,serif" font-size="14.00">r nlmixr</text>
</a>
</g>
</g>
<!-- r&#45;rxode&#45;&gt;r&#45;nlmixr -->
<g id="edge52" class="edge">
<title>r&#45;rxode&#45;&gt;r&#45;nlmixr</title>
<path fill="none" stroke="black" d="M1892.47,-144.05C1894.81,-136.26 1897.64,-126.82 1900.26,-118.08"/>
<polygon fill="black" stroke="black" points="1903.68,-118.86 1903.2,-108.28 1896.98,-116.85 1903.68,-118.86"/>
</g>
<!-- r&#45;nlmixr&#45;&gt;conda&#45;forge&#45;pinning -->
<g id="edge53" class="edge">
<title>r&#45;nlmixr&#45;&gt;conda&#45;forge&#45;pinning</title>
<path fill="none" stroke="black" d="M1871.08,-77.84C1862.38,-75.59 1853.11,-73.47 1844.38,-72 1633.42,-36.48 1383.44,-24.76 1241.93,-20.9"/>
<polygon fill="black" stroke="black" points="1242.02,-17.4 1231.93,-20.64 1241.83,-24.4 1242.02,-17.4"/>
</g>
<!-- r&#45;glmpca -->
<g id="node29" class="node">
<title>r&#45;glmpca</title>
<g id="a_node29"><a xlink:href="https://github.com/conda-forge/r-glmpca-feedstock/pull/1" xlink:title="r glmpca">
<ellipse fill="#31688e" stroke="black" cx="1986.38" cy="-306" rx="50.09" ry="18"/>
<text text-anchor="middle" x="1986.38" y="-302.3" font-family="Times,serif" font-size="14.00" fill="white">r glmpca</text>
</a>
</g>
</g>
<!-- r&#45;glmpca&#45;&gt;conda&#45;forge&#45;pinning -->
<g id="edge54" class="edge">
<title>r&#45;glmpca&#45;&gt;conda&#45;forge&#45;pinning</title>
<path fill="none" stroke="black" d="M1991.49,-287.88C2003.22,-244.64 2026.75,-130.29 1967.38,-72 1916.86,-22.39 1460.34,-17.55 1243.18,-18.11"/>
<polygon fill="black" stroke="black" points="1243.01,-14.61 1233.02,-18.14 1243.03,-21.61 1243.01,-14.61"/>
</g>
<!-- r&#45;rcppcctz -->
<g id="node30" class="node">
<title>r&#45;rcppcctz</title>
<g id="a_node30"><a xlink:href="https://github.com/conda-forge/r-rcppcctz-feedstock/pull/1" xlink:title="r rcppcctz">
<ellipse fill="#31688e" stroke="black" cx="2093.38" cy="-162" rx="60" ry="18"/>
<text text-anchor="middle" x="2093.38" y="-158.3" font-family="Times,serif" font-size="14.00" fill="white">r rcppcctz</text>
</a>
</g>
</g>
<!-- r&#45;rcppcctz&#45;&gt;conda&#45;forge&#45;pinning -->
<g id="edge55" class="edge">
<title>r&#45;rcppcctz&#45;&gt;conda&#45;forge&#45;pinning</title>
<path fill="none" stroke="black" d="M2077.3,-144.42C2053.25,-119.81 2009.75,-76.1 2000.38,-72 1932.62,-42.38 1461.44,-27.11 1241.72,-21.53"/>
<polygon fill="black" stroke="black" points="1241.53,-18.03 1231.45,-21.27 1241.36,-25.02 1241.53,-18.03"/>
</g>
<!-- r&#45;nanotime -->
<g id="node31" class="node">
<title>r&#45;nanotime</title>
<g id="a_node31"><a xlink:href="https://github.com/conda-forge/r-nanotime-feedstock" xlink:title="r nanotime">
<ellipse fill="#fde725" stroke="black" cx="2112.38" cy="-90" rx="60" ry="18"/>
<text text-anchor="middle" x="2112.38" y="-86.3" font-family="Times,serif" font-size="14.00">r nanotime</text>
</a>
</g>
</g>
<!-- r&#45;rcppcctz&#45;&gt;r&#45;nanotime -->
<g id="edge56" class="edge">
<title>r&#45;rcppcctz&#45;&gt;r&#45;nanotime</title>
<path fill="none" stroke="black" d="M2098.08,-143.7C2100.2,-135.9 2102.75,-126.51 2105.1,-117.83"/>
<polygon fill="black" stroke="black" points="2108.5,-118.67 2107.74,-108.1 2101.74,-116.84 2108.5,-118.67"/>
</g>
<!-- r&#45;nanotime&#45;&gt;conda&#45;forge&#45;pinning -->
<g id="edge57" class="edge">
<title>r&#45;nanotime&#45;&gt;conda&#45;forge&#45;pinning</title>
<path fill="none" stroke="black" d="M2068.39,-77.62C2058.58,-75.44 2048.17,-73.4 2038.38,-72 1754.15,-31.36 1415.66,-21.71 1242.99,-19.53"/>
<polygon fill="black" stroke="black" points="1242.91,-16.03 1232.87,-19.41 1242.83,-23.03 1242.91,-16.03"/>
</g>
<!-- r&#45;postlogic -->
<g id="node32" class="node">
<title>r&#45;postlogic</title>
<g id="a_node32"><a xlink:href="https://github.com/conda-forge/r-postlogic-feedstock/pull/1" xlink:title="r postlogic">
<ellipse fill="#31688e" stroke="black" cx="2200.38" cy="-378" rx="64.5" ry="18"/>
<text text-anchor="middle" x="2200.38" y="-374.3" font-family="Times,serif" font-size="14.00" fill="white">r postlogic</text>
</a>
</g>
</g>
<!-- r&#45;postlogic&#45;&gt;conda&#45;forge&#45;pinning -->
<g id="edge58" class="edge">
<title>r&#45;postlogic&#45;&gt;conda&#45;forge&#45;pinning</title>
<path fill="none" stroke="black" d="M2200.38,-359.95C2200.38,-333.29 2200.38,-280.11 2200.38,-235 2200.38,-235 2200.38,-235 2200.38,-161 2200.38,-120.55 2212.18,-98.22 2181.38,-72 2146.07,-41.93 1505.95,-26.23 1241.87,-21.01"/>
<polygon fill="black" stroke="black" points="1241.94,-17.52 1231.87,-20.82 1241.8,-24.51 1241.94,-17.52"/>
</g>
</g>
</svg>
