<?xml version="1.0" encoding="UTF-8" standalone="no"?>
<!DOCTYPE svg PUBLIC "-//W3C//DTD SVG 1.1//EN"
 "http://www.w3.org/Graphics/SVG/1.1/DTD/svg11.dtd">
<!-- Generated by graphviz version 2.42.3 (20191010.1750)
 -->
<!-- Title: %3 Pages: 1 -->
<svg width="2262pt" height="476pt"
 viewBox="0.00 0.00 2262.38 476.00" xmlns="http://www.w3.org/2000/svg" xmlns:xlink="http://www.w3.org/1999/xlink">
<g id="graph0" class="graph" transform="scale(1 1) rotate(0) translate(4 472)">
<title>%3</title>
<polygon fill="white" stroke="transparent" points="-4,4 -4,-472 2258.38,-472 2258.38,4 -4,4"/>
<!-- r&#45;fst -->
<g id="node1" class="node">
<title>r&#45;fst</title>
<g id="a_node1"><a xlink:href="https://github.com/conda-forge/r-fst-feedstock/pull/11" xlink:title="r fst">
<ellipse fill="#31688e" stroke="black" cx="38.38" cy="-162" rx="35.19" ry="18"/>
<text text-anchor="middle" x="38.38" y="-158.3" font-family="Times,serif" font-size="14.00" fill="white">r fst</text>
</a>
</g>
</g>
<!-- r&#45;disk.frame -->
<g id="node2" class="node">
<title>r&#45;disk.frame</title>
<g id="a_node2"><a xlink:href="https://github.com/conda-forge/r-disk.frame-feedstock" xlink:title="r disk frame">
<ellipse fill="#fde725" stroke="black" cx="87.38" cy="-90" rx="69.59" ry="18"/>
<text text-anchor="middle" x="87.38" y="-86.3" font-family="Times,serif" font-size="14.00">r disk frame</text>
</a>
</g>
</g>
<!-- r&#45;fst&#45;&gt;r&#45;disk.frame -->
<g id="edge1" class="edge">
<title>r&#45;fst&#45;&gt;r&#45;disk.frame</title>
<path fill="none" stroke="black" d="M49.75,-144.76C55.64,-136.35 62.96,-125.89 69.58,-116.44"/>
<polygon fill="black" stroke="black" points="72.53,-118.32 75.4,-108.12 66.8,-114.31 72.53,-118.32"/>
</g>
<!-- conda&#45;forge&#45;pinning -->
<g id="node3" class="node">
<title>conda&#45;forge&#45;pinning</title>
<ellipse fill="none" stroke="black" cx="1129.38" cy="-18" rx="103.5" ry="18"/>
<text text-anchor="middle" x="1129.38" y="-14.3" font-family="Times,serif" font-size="14.00">conda&#45;forge&#45;pinning</text>
</g>
<!-- r&#45;fst&#45;&gt;conda&#45;forge&#45;pinning -->
<g id="edge2" class="edge">
<title>r&#45;fst&#45;&gt;conda&#45;forge&#45;pinning</title>
<path fill="none" stroke="black" d="M24.56,-145.1C9.22,-125.49 -10.97,-92.29 8.38,-72 42.78,-35.94 738.21,-23.67 1016.1,-20.19"/>
<polygon fill="black" stroke="black" points="1016.26,-23.69 1026.21,-20.07 1016.17,-16.69 1016.26,-23.69"/>
</g>
<!-- r&#45;disk.frame&#45;&gt;conda&#45;forge&#45;pinning -->
<g id="edge3" class="edge">
<title>r&#45;disk.frame&#45;&gt;conda&#45;forge&#45;pinning</title>
<path fill="none" stroke="black" d="M137.83,-77.56C148.84,-75.41 160.46,-73.4 171.38,-72 474.87,-33.1 836.05,-22.74 1015.89,-19.99"/>
<polygon fill="black" stroke="black" points="1016.21,-23.48 1026.16,-19.83 1016.11,-16.48 1016.21,-23.48"/>
</g>
<!-- r&#45;hive -->
<g id="node4" class="node">
<title>r&#45;hive</title>
<g id="a_node4"><a xlink:href="https://github.com/conda-forge/r-hive-feedstock" xlink:title="r hive">
<ellipse fill="#fde725" stroke="black" cx="1309.38" cy="-234" rx="40.5" ry="18"/>
<text text-anchor="middle" x="1309.38" y="-230.3" font-family="Times,serif" font-size="14.00">r hive</text>
</a>
</g>
</g>
<!-- r&#45;hive&#45;&gt;conda&#45;forge&#45;pinning -->
<g id="edge4" class="edge">
<title>r&#45;hive&#45;&gt;conda&#45;forge&#45;pinning</title>
<path fill="none" stroke="black" d="M1308.03,-215.63C1304.64,-183.32 1293.02,-113.52 1254.38,-72 1239.34,-55.84 1218.58,-44.41 1198.28,-36.41"/>
<polygon fill="black" stroke="black" points="1199.3,-33.05 1188.7,-32.86 1196.87,-39.62 1199.3,-33.05"/>
</g>
<!-- r&#45;rjava -->
<g id="node5" class="node">
<title>r&#45;rjava</title>
<g id="a_node5"><a xlink:href="https://github.com/conda-forge/r-rjava-feedstock" xlink:title="r rjava">
<ellipse fill="#35b779" stroke="black" cx="857.38" cy="-450" rx="45" ry="18"/>
<text text-anchor="middle" x="857.38" y="-446.3" font-family="Times,serif" font-size="14.00">r rjava</text>
</a>
</g>
</g>
<!-- r&#45;rjava&#45;&gt;conda&#45;forge&#45;pinning -->
<g id="edge5" class="edge">
<title>r&#45;rjava&#45;&gt;conda&#45;forge&#45;pinning</title>
<path fill="none" stroke="black" d="M901.99,-446.94C1013.57,-441.36 1298.1,-424.49 1329.38,-396 1437.07,-297.95 1391.47,-166.19 1280.38,-72 1259.62,-54.39 1232.63,-42.5 1207.22,-34.53"/>
<polygon fill="black" stroke="black" points="1208.16,-31.16 1197.58,-31.66 1206.17,-37.86 1208.16,-31.16"/>
</g>
<!-- r&#45;rjava&#45;&gt;r&#45;hive -->
<g id="edge6" class="edge">
<title>r&#45;rjava&#45;&gt;r&#45;hive</title>
<path fill="none" stroke="black" d="M901.82,-447.04C1010.06,-441.81 1280.51,-425.85 1307.38,-396 1340.32,-359.41 1328.89,-296.97 1318.54,-261.56"/>
<polygon fill="black" stroke="black" points="1321.86,-260.43 1315.56,-251.92 1315.17,-262.5 1321.86,-260.43"/>
</g>
<!-- r&#45;xlsx -->
<g id="node6" class="node">
<title>r&#45;xlsx</title>
<g id="a_node6"><a xlink:href="https://github.com/conda-forge/r-xlsx-feedstock" xlink:title="r xlsx">
<ellipse fill="#fde725" stroke="black" cx="441.38" cy="-306" rx="40.5" ry="18"/>
<text text-anchor="middle" x="441.38" y="-302.3" font-family="Times,serif" font-size="14.00">r xlsx</text>
</a>
</g>
</g>
<!-- r&#45;rjava&#45;&gt;r&#45;xlsx -->
<g id="edge7" class="edge">
<title>r&#45;rjava&#45;&gt;r&#45;xlsx</title>
<path fill="none" stroke="black" d="M812.97,-447.05C728.53,-442.61 548.65,-429.42 497.38,-396 474.78,-381.26 459.61,-353.87 450.82,-333.36"/>
<polygon fill="black" stroke="black" points="454,-331.89 447.02,-323.92 447.51,-334.5 454,-331.89"/>
</g>
<!-- r&#45;xlsxjars -->
<g id="node7" class="node">
<title>r&#45;xlsxjars</title>
<g id="a_node7"><a xlink:href="https://github.com/conda-forge/r-xlsxjars-feedstock" xlink:title="r xlsxjars">
<ellipse fill="#fde725" stroke="black" cx="385.38" cy="-378" rx="60" ry="18"/>
<text text-anchor="middle" x="385.38" y="-374.3" font-family="Times,serif" font-size="14.00">r xlsxjars</text>
</a>
</g>
</g>
<!-- r&#45;rjava&#45;&gt;r&#45;xlsxjars -->
<g id="edge8" class="edge">
<title>r&#45;rjava&#45;&gt;r&#45;xlsxjars</title>
<path fill="none" stroke="black" d="M814.18,-444.59C740.9,-436.8 587.65,-419.22 459.38,-396 453.17,-394.88 446.69,-393.58 440.26,-392.21"/>
<polygon fill="black" stroke="black" points="440.77,-388.73 430.25,-390.01 439.27,-395.57 440.77,-388.73"/>
</g>
<!-- r&#45;xlconnectjars -->
<g id="node8" class="node">
<title>r&#45;xlconnectjars</title>
<g id="a_node8"><a xlink:href="https://github.com/conda-forge/r-xlconnectjars-feedstock" xlink:title="r xlconnectjars">
<ellipse fill="#fde725" stroke="black" cx="185.38" cy="-378" rx="84" ry="18"/>
<text text-anchor="middle" x="185.38" y="-374.3" font-family="Times,serif" font-size="14.00">r xlconnectjars</text>
</a>
</g>
</g>
<!-- r&#45;rjava&#45;&gt;r&#45;xlconnectjars -->
<g id="edge9" class="edge">
<title>r&#45;rjava&#45;&gt;r&#45;xlconnectjars</title>
<path fill="none" stroke="black" d="M813.32,-446.13C716.95,-439.6 480.31,-422.13 283.38,-396 274.68,-394.84 265.56,-393.48 256.55,-392.03"/>
<polygon fill="black" stroke="black" points="256.87,-388.53 246.43,-390.36 255.73,-395.44 256.87,-388.53"/>
</g>
<!-- r&#45;xlconnect -->
<g id="node9" class="node">
<title>r&#45;xlconnect</title>
<g id="a_node9"><a xlink:href="https://github.com/conda-forge/r-xlconnect-feedstock" xlink:title="r xlconnect">
<ellipse fill="#fde725" stroke="black" cx="278.38" cy="-306" rx="64.5" ry="18"/>
<text text-anchor="middle" x="278.38" y="-302.3" font-family="Times,serif" font-size="14.00">r xlconnect</text>
</a>
</g>
</g>
<!-- r&#45;rjava&#45;&gt;r&#45;xlconnect -->
<g id="edge10" class="edge">
<title>r&#45;rjava&#45;&gt;r&#45;xlconnect</title>
<path fill="none" stroke="black" d="M812.52,-447.21C689.97,-441.95 356.06,-425.08 316.38,-396 296.65,-381.54 287.07,-354.73 282.48,-334.3"/>
<polygon fill="black" stroke="black" points="285.88,-333.44 280.51,-324.3 279.01,-334.79 285.88,-333.44"/>
</g>
<!-- r&#45;rcdklibs -->
<g id="node10" class="node">
<title>r&#45;rcdklibs</title>
<g id="a_node10"><a xlink:href="https://github.com/conda-forge/r-rcdklibs-feedstock" xlink:title="r rcdklibs">
<ellipse fill="#fde725" stroke="black" cx="627.38" cy="-378" rx="60" ry="18"/>
<text text-anchor="middle" x="627.38" y="-374.3" font-family="Times,serif" font-size="14.00">r rcdklibs</text>
</a>
</g>
</g>
<!-- r&#45;rjava&#45;&gt;r&#45;rcdklibs -->
<g id="edge11" class="edge">
<title>r&#45;rjava&#45;&gt;r&#45;rcdklibs</title>
<path fill="none" stroke="black" d="M822.45,-438.37C783.9,-426.63 721.51,-407.65 677.69,-394.31"/>
<polygon fill="black" stroke="black" points="678.67,-390.95 668.09,-391.39 676.63,-397.65 678.67,-390.95"/>
</g>
<!-- r&#45;rcdk -->
<g id="node11" class="node">
<title>r&#45;rcdk</title>
<g id="a_node11"><a xlink:href="https://github.com/conda-forge/r-rcdk-feedstock" xlink:title="r rcdk">
<ellipse fill="#fde725" stroke="black" cx="627.38" cy="-306" rx="40.5" ry="18"/>
<text text-anchor="middle" x="627.38" y="-302.3" font-family="Times,serif" font-size="14.00">r rcdk</text>
</a>
</g>
</g>
<!-- r&#45;rjava&#45;&gt;r&#45;rcdk -->
<g id="edge12" class="edge">
<title>r&#45;rjava&#45;&gt;r&#45;rcdk</title>
<path fill="none" stroke="black" d="M834.07,-434.6C792.44,-408.9 705.33,-355.12 658.59,-326.27"/>
<polygon fill="black" stroke="black" points="660.43,-323.29 650.08,-321.01 656.75,-329.25 660.43,-323.29"/>
</g>
<!-- r&#45;rchoicedialogs -->
<g id="node12" class="node">
<title>r&#45;rchoicedialogs</title>
<g id="a_node12"><a xlink:href="https://github.com/conda-forge/r-rchoicedialogs-feedstock" xlink:title="r rchoicedialogs">
<ellipse fill="#fde725" stroke="black" cx="685.38" cy="-234" rx="89.08" ry="18"/>
<text text-anchor="middle" x="685.38" y="-230.3" font-family="Times,serif" font-size="14.00">r rchoicedialogs</text>
</a>
</g>
</g>
<!-- r&#45;rjava&#45;&gt;r&#45;rchoicedialogs -->
<g id="edge13" class="edge">
<title>r&#45;rjava&#45;&gt;r&#45;rchoicedialogs</title>
<path fill="none" stroke="black" d="M844.17,-432.56C814.24,-395.32 741.11,-304.33 705.51,-260.04"/>
<polygon fill="black" stroke="black" points="708.11,-257.69 699.12,-252.09 702.65,-262.07 708.11,-257.69"/>
</g>
<!-- r&#45;rwekajars -->
<g id="node13" class="node">
<title>r&#45;rwekajars</title>
<g id="a_node13"><a xlink:href="https://github.com/conda-forge/r-rwekajars-feedstock" xlink:title="r rwekajars">
<ellipse fill="#fde725" stroke="black" cx="857.38" cy="-234" rx="64.5" ry="18"/>
<text text-anchor="middle" x="857.38" y="-230.3" font-family="Times,serif" font-size="14.00">r rwekajars</text>
</a>
</g>
</g>
<!-- r&#45;rjava&#45;&gt;r&#45;rwekajars -->
<g id="edge14" class="edge">
<title>r&#45;rjava&#45;&gt;r&#45;rwekajars</title>
<path fill="none" stroke="black" d="M857.38,-431.85C857.38,-394.83 857.38,-307.18 857.38,-262.39"/>
<polygon fill="black" stroke="black" points="860.88,-262.23 857.38,-252.23 853.88,-262.23 860.88,-262.23"/>
</g>
<!-- r&#45;rweka -->
<g id="node14" class="node">
<title>r&#45;rweka</title>
<g id="a_node14"><a xlink:href="https://github.com/conda-forge/r-rweka-feedstock" xlink:title="r rweka">
<ellipse fill="#fde725" stroke="black" cx="896.38" cy="-162" rx="45" ry="18"/>
<text text-anchor="middle" x="896.38" y="-158.3" font-family="Times,serif" font-size="14.00">r rweka</text>
</a>
</g>
</g>
<!-- r&#45;rjava&#45;&gt;r&#45;rweka -->
<g id="edge15" class="edge">
<title>r&#45;rjava&#45;&gt;r&#45;rweka</title>
<path fill="none" stroke="black" d="M866.07,-432.2C882.75,-398.91 918.72,-321.74 931.38,-252 934.24,-236.26 935.99,-231.32 931.38,-216 928.37,-205.97 922.77,-196.08 916.93,-187.62"/>
<polygon fill="black" stroke="black" points="919.59,-185.33 910.84,-179.36 913.96,-189.49 919.59,-185.33"/>
</g>
<!-- r&#45;subspace -->
<g id="node15" class="node">
<title>r&#45;subspace</title>
<g id="a_node15"><a xlink:href="https://github.com/conda-forge/r-subspace-feedstock" xlink:title="r subspace">
<ellipse fill="#fde725" stroke="black" cx="1038.38" cy="-234" rx="60" ry="18"/>
<text text-anchor="middle" x="1038.38" y="-230.3" font-family="Times,serif" font-size="14.00">r subspace</text>
</a>
</g>
</g>
<!-- r&#45;rjava&#45;&gt;r&#45;subspace -->
<g id="edge16" class="edge">
<title>r&#45;rjava&#45;&gt;r&#45;subspace</title>
<path fill="none" stroke="black" d="M892.51,-438.58C915.46,-430.23 944.73,-416.5 964.38,-396 1000.74,-358.09 990.15,-335.59 1012.38,-288 1016.48,-279.23 1021.1,-269.72 1025.29,-261.2"/>
<polygon fill="black" stroke="black" points="1028.49,-262.62 1029.79,-252.11 1022.22,-259.52 1028.49,-262.62"/>
</g>
<!-- r&#45;rmcfs -->
<g id="node16" class="node">
<title>r&#45;rmcfs</title>
<g id="a_node16"><a xlink:href="https://github.com/conda-forge/r-rmcfs-feedstock" xlink:title="r rmcfs">
<ellipse fill="#fde725" stroke="black" cx="1091.38" cy="-162" rx="45" ry="18"/>
<text text-anchor="middle" x="1091.38" y="-158.3" font-family="Times,serif" font-size="14.00">r rmcfs</text>
</a>
</g>
</g>
<!-- r&#45;rjava&#45;&gt;r&#45;rmcfs -->
<g id="edge17" class="edge">
<title>r&#45;rjava&#45;&gt;r&#45;rmcfs</title>
<path fill="none" stroke="black" d="M896.35,-440.94C925.06,-433.36 963.6,-419.56 990.38,-396 1031.61,-359.73 1012.66,-327.9 1050.38,-288 1070.97,-266.23 1092.92,-278.24 1107.38,-252 1118.05,-232.65 1112.15,-207.69 1104.68,-189.12"/>
<polygon fill="black" stroke="black" points="1107.82,-187.55 1100.59,-179.8 1101.41,-190.37 1107.82,-187.55"/>
</g>
<!-- r&#45;rjdbc -->
<g id="node17" class="node">
<title>r&#45;rjdbc</title>
<g id="a_node17"><a xlink:href="https://github.com/conda-forge/r-rjdbc-feedstock" xlink:title="r rjdbc">
<ellipse fill="#fde725" stroke="black" cx="1129.38" cy="-90" rx="45" ry="18"/>
<text text-anchor="middle" x="1129.38" y="-86.3" font-family="Times,serif" font-size="14.00">r rjdbc</text>
</a>
</g>
</g>
<!-- r&#45;rjava&#45;&gt;r&#45;rjdbc -->
<g id="edge18" class="edge">
<title>r&#45;rjava&#45;&gt;r&#45;rjdbc</title>
<path fill="none" stroke="black" d="M899.27,-443.06C933.69,-436.42 982.16,-422.85 1016.38,-396 1061.01,-360.99 1048.12,-331.61 1084.38,-288 1099.47,-269.86 1110.84,-271.97 1123.38,-252 1141.19,-223.67 1140.44,-213.09 1145.38,-180 1147.75,-164.18 1147.72,-159.83 1145.38,-144 1144.09,-135.21 1141.64,-125.86 1139.04,-117.5"/>
<polygon fill="black" stroke="black" points="1142.33,-116.29 1135.87,-107.9 1135.69,-118.49 1142.33,-116.29"/>
</g>
<!-- r&#45;tabulizer -->
<g id="node18" class="node">
<title>r&#45;tabulizer</title>
<g id="a_node18"><a xlink:href="https://github.com/conda-forge/r-tabulizer-feedstock" xlink:title="r tabulizer">
<ellipse fill="#fde725" stroke="black" cx="1157.38" cy="-306" rx="64.5" ry="18"/>
<text text-anchor="middle" x="1157.38" y="-302.3" font-family="Times,serif" font-size="14.00">r tabulizer</text>
</a>
</g>
</g>
<!-- r&#45;rjava&#45;&gt;r&#45;tabulizer -->
<g id="edge19" class="edge">
<title>r&#45;rjava&#45;&gt;r&#45;tabulizer</title>
<path fill="none" stroke="black" d="M901.42,-446.23C948.26,-441.59 1023.06,-429.17 1078.38,-396 1104.78,-380.17 1127.2,-352.63 1141.34,-332.37"/>
<polygon fill="black" stroke="black" points="1144.36,-334.16 1147.06,-323.91 1138.56,-330.23 1144.36,-334.16"/>
</g>
<!-- r&#45;tabulizerjars -->
<g id="node19" class="node">
<title>r&#45;tabulizerjars</title>
<g id="a_node19"><a xlink:href="https://github.com/conda-forge/r-tabulizerjars-feedstock" xlink:title="r tabulizerjars">
<ellipse fill="#fde725" stroke="black" cx="1214.38" cy="-378" rx="84" ry="18"/>
<text text-anchor="middle" x="1214.38" y="-374.3" font-family="Times,serif" font-size="14.00">r tabulizerjars</text>
</a>
</g>
</g>
<!-- r&#45;rjava&#45;&gt;r&#45;tabulizerjars -->
<g id="edge20" class="edge">
<title>r&#45;rjava&#45;&gt;r&#45;tabulizerjars</title>
<path fill="none" stroke="black" d="M896.95,-441.24C956.69,-429.53 1070.74,-407.17 1144.62,-392.68"/>
<polygon fill="black" stroke="black" points="1145.63,-396.05 1154.77,-390.69 1144.29,-389.18 1145.63,-396.05"/>
</g>
<!-- r&#45;destinie -->
<g id="node20" class="node">
<title>r&#45;destinie</title>
<g id="a_node20"><a xlink:href="https://github.com/conda-forge/r-destinie-feedstock" xlink:title="r destinie">
<ellipse fill="#fde725" stroke="black" cx="442.38" cy="-234" rx="60" ry="18"/>
<text text-anchor="middle" x="442.38" y="-230.3" font-family="Times,serif" font-size="14.00">r destinie</text>
</a>
</g>
</g>
<!-- r&#45;rjava&#45;&gt;r&#45;destinie -->
<g id="edge21" class="edge">
<title>r&#45;rjava&#45;&gt;r&#45;destinie</title>
<path fill="none" stroke="black" d="M813.72,-445.6C741.1,-439.24 599.45,-423.62 558.38,-396 511.32,-364.34 524.66,-333.19 490.38,-288 482.84,-278.06 473.82,-267.75 465.64,-258.89"/>
<polygon fill="black" stroke="black" points="468.13,-256.43 458.73,-251.53 463.03,-261.22 468.13,-256.43"/>
</g>
<!-- r&#45;xlsx&#45;&gt;conda&#45;forge&#45;pinning -->
<g id="edge22" class="edge">
<title>r&#45;xlsx&#45;&gt;conda&#45;forge&#45;pinning</title>
<path fill="none" stroke="black" d="M415.08,-292.24C399.86,-283.29 382.06,-269.75 373.38,-252 366.36,-237.62 368.36,-231.19 373.38,-216 398.43,-140.3 410.67,-110.69 480.38,-72 526.21,-46.57 846.16,-30.17 1019.07,-23.06"/>
<polygon fill="black" stroke="black" points="1019.38,-26.56 1029.23,-22.65 1019.09,-19.56 1019.38,-26.56"/>
</g>
<!-- r&#45;xlsx&#45;&gt;r&#45;destinie -->
<g id="edge23" class="edge">
<title>r&#45;xlsx&#45;&gt;r&#45;destinie</title>
<path fill="none" stroke="black" d="M441.63,-287.7C441.74,-279.98 441.87,-270.71 442,-262.11"/>
<polygon fill="black" stroke="black" points="445.5,-262.15 442.14,-252.1 438.5,-262.05 445.5,-262.15"/>
</g>
<!-- r&#45;xlsxjars&#45;&gt;conda&#45;forge&#45;pinning -->
<g id="edge24" class="edge">
<title>r&#45;xlsxjars&#45;&gt;conda&#45;forge&#45;pinning</title>
<path fill="none" stroke="black" d="M380.46,-359.88C365.73,-304.7 328.84,-131.64 426.38,-72 475.51,-41.97 832.21,-27.45 1017.8,-21.87"/>
<polygon fill="black" stroke="black" points="1017.98,-25.36 1027.87,-21.57 1017.77,-18.37 1017.98,-25.36"/>
</g>
<!-- r&#45;xlsxjars&#45;&gt;r&#45;xlsx -->
<g id="edge25" class="edge">
<title>r&#45;xlsxjars&#45;&gt;r&#45;xlsx</title>
<path fill="none" stroke="black" d="M398.66,-360.41C405.56,-351.78 414.13,-341.06 421.79,-331.5"/>
<polygon fill="black" stroke="black" points="424.69,-333.47 428.21,-323.47 419.23,-329.09 424.69,-333.47"/>
</g>
<!-- r&#45;xlconnectjars&#45;&gt;conda&#45;forge&#45;pinning -->
<g id="edge26" class="edge">
<title>r&#45;xlconnectjars&#45;&gt;conda&#45;forge&#45;pinning</title>
<path fill="none" stroke="black" d="M185.38,-359.95C185.38,-333.29 185.38,-280.11 185.38,-235 185.38,-235 185.38,-235 185.38,-161 185.38,-104.74 224.04,-94.98 275.38,-72 341.37,-42.46 800.78,-27.2 1017.15,-21.58"/>
<polygon fill="black" stroke="black" points="1017.37,-25.08 1027.27,-21.32 1017.19,-18.08 1017.37,-25.08"/>
</g>
<!-- r&#45;xlconnectjars&#45;&gt;r&#45;xlconnect -->
<g id="edge27" class="edge">
<title>r&#45;xlconnectjars&#45;&gt;r&#45;xlconnect</title>
<path fill="none" stroke="black" d="M207.42,-360.41C219.79,-351.1 235.38,-339.37 248.8,-329.27"/>
<polygon fill="black" stroke="black" points="250.94,-332.04 256.82,-323.23 246.73,-326.45 250.94,-332.04"/>
</g>
<!-- r&#45;xlconnect&#45;&gt;conda&#45;forge&#45;pinning -->
<g id="edge28" class="edge">
<title>r&#45;xlconnect&#45;&gt;conda&#45;forge&#45;pinning</title>
<path fill="none" stroke="black" d="M273.71,-287.82C263.06,-244.44 242.31,-129.8 302.38,-72 352.62,-23.67 800.74,-18.14 1015.54,-18.31"/>
<polygon fill="black" stroke="black" points="1015.58,-21.81 1025.59,-18.32 1015.59,-14.81 1015.58,-21.81"/>
</g>
<!-- r&#45;rcdklibs&#45;&gt;conda&#45;forge&#45;pinning -->
<g id="edge29" class="edge">
<title>r&#45;rcdklibs&#45;&gt;conda&#45;forge&#45;pinning</title>
<path fill="none" stroke="black" d="M606.09,-361.11C595.28,-351.68 583.22,-338.7 577.38,-324 573.25,-313.59 574.22,-243.26 579.38,-216 594.27,-137.4 614.34,-104.62 687.38,-72 745.21,-46.18 910.14,-31.7 1021.35,-24.62"/>
<polygon fill="black" stroke="black" points="1021.84,-28.1 1031.6,-23.98 1021.4,-21.11 1021.84,-28.1"/>
</g>
<!-- r&#45;rcdklibs&#45;&gt;r&#45;rcdk -->
<g id="edge30" class="edge">
<title>r&#45;rcdklibs&#45;&gt;r&#45;rcdk</title>
<path fill="none" stroke="black" d="M627.38,-359.7C627.38,-351.98 627.38,-342.71 627.38,-334.11"/>
<polygon fill="black" stroke="black" points="630.88,-334.1 627.38,-324.1 623.88,-334.1 630.88,-334.1"/>
</g>
<!-- r&#45;rcdk&#45;&gt;conda&#45;forge&#45;pinning -->
<g id="edge31" class="edge">
<title>r&#45;rcdk&#45;&gt;conda&#45;forge&#45;pinning</title>
<path fill="none" stroke="black" d="M611.31,-289.45C602.39,-279.66 592.15,-266.21 587.38,-252 582.3,-236.83 580.34,-230.37 587.38,-216 633.42,-122.14 677.23,-113.03 773.38,-72 850.51,-39.09 944.59,-26.12 1016.67,-21.23"/>
<polygon fill="black" stroke="black" points="1016.93,-24.72 1026.69,-20.59 1016.49,-17.73 1016.93,-24.72"/>
</g>
<!-- r&#45;rchoicedialogs&#45;&gt;conda&#45;forge&#45;pinning -->
<g id="edge32" class="edge">
<title>r&#45;rchoicedialogs&#45;&gt;conda&#45;forge&#45;pinning</title>
<path fill="none" stroke="black" d="M694.42,-215.97C713.27,-182.31 760.22,-107.46 822.38,-72 857.29,-52.09 955.09,-37.44 1031.02,-28.65"/>
<polygon fill="black" stroke="black" points="1031.57,-32.11 1041.11,-27.5 1030.78,-25.15 1031.57,-32.11"/>
</g>
<!-- r&#45;rwekajars&#45;&gt;conda&#45;forge&#45;pinning -->
<g id="edge33" class="edge">
<title>r&#45;rwekajars&#45;&gt;conda&#45;forge&#45;pinning</title>
<path fill="none" stroke="black" d="M848.65,-216.12C833.4,-184.01 806.69,-113.66 841.38,-72 864.34,-44.44 949.5,-31.16 1021.3,-24.79"/>
<polygon fill="black" stroke="black" points="1021.67,-28.27 1031.34,-23.93 1021.08,-21.29 1021.67,-28.27"/>
</g>
<!-- r&#45;rwekajars&#45;&gt;r&#45;rweka -->
<g id="edge34" class="edge">
<title>r&#45;rwekajars&#45;&gt;r&#45;rweka</title>
<path fill="none" stroke="black" d="M866.83,-216.05C871.42,-207.8 877.05,-197.7 882.16,-188.54"/>
<polygon fill="black" stroke="black" points="885.22,-190.23 887.03,-179.79 879.11,-186.82 885.22,-190.23"/>
</g>
<!-- r&#45;rweka&#45;&gt;conda&#45;forge&#45;pinning -->
<g id="edge35" class="edge">
<title>r&#45;rweka&#45;&gt;conda&#45;forge&#45;pinning</title>
<path fill="none" stroke="black" d="M878.5,-145.26C859.24,-126.42 833.71,-94.58 852.38,-72 874.13,-45.7 954.32,-32.33 1022.86,-25.6"/>
<polygon fill="black" stroke="black" points="1023.26,-29.08 1032.88,-24.66 1022.6,-22.11 1023.26,-29.08"/>
</g>
<!-- r&#45;fselector -->
<g id="node21" class="node">
<title>r&#45;fselector</title>
<g id="a_node21"><a xlink:href="https://github.com/conda-forge/r-fselector-feedstock" xlink:title="r fselector">
<ellipse fill="#fde725" stroke="black" cx="925.38" cy="-90" rx="64.5" ry="18"/>
<text text-anchor="middle" x="925.38" y="-86.3" font-family="Times,serif" font-size="14.00">r fselector</text>
</a>
</g>
</g>
<!-- r&#45;rweka&#45;&gt;r&#45;fselector -->
<g id="edge36" class="edge">
<title>r&#45;rweka&#45;&gt;r&#45;fselector</title>
<path fill="none" stroke="black" d="M903.4,-144.05C906.67,-136.18 910.63,-126.62 914.28,-117.79"/>
<polygon fill="black" stroke="black" points="917.63,-118.85 918.23,-108.28 911.17,-116.17 917.63,-118.85"/>
</g>
<!-- r&#45;subspace&#45;&gt;conda&#45;forge&#45;pinning -->
<g id="edge37" class="edge">
<title>r&#45;subspace&#45;&gt;conda&#45;forge&#45;pinning</title>
<path fill="none" stroke="black" d="M1037.98,-215.82C1037.75,-205.44 1037.5,-191.96 1037.38,-180 1037.23,-164 1034.34,-159.71 1037.38,-144 1043.95,-110.13 1046.14,-99.93 1066.38,-72 1074.61,-60.66 1085.77,-50.23 1096.41,-41.68"/>
<polygon fill="black" stroke="black" points="1098.61,-44.4 1104.39,-35.53 1094.34,-38.86 1098.61,-44.4"/>
</g>
<!-- r&#45;rmcfs&#45;&gt;conda&#45;forge&#45;pinning -->
<g id="edge38" class="edge">
<title>r&#45;rmcfs&#45;&gt;conda&#45;forge&#45;pinning</title>
<path fill="none" stroke="black" d="M1082.96,-144.31C1074.9,-125.95 1065.36,-95.89 1075.38,-72 1080.1,-60.76 1088.5,-50.7 1097.28,-42.45"/>
<polygon fill="black" stroke="black" points="1099.8,-44.89 1105.02,-35.67 1095.19,-39.63 1099.8,-44.89"/>
</g>
<!-- r&#45;rjdbc&#45;&gt;conda&#45;forge&#45;pinning -->
<g id="edge39" class="edge">
<title>r&#45;rjdbc&#45;&gt;conda&#45;forge&#45;pinning</title>
<path fill="none" stroke="black" d="M1129.38,-71.7C1129.38,-63.98 1129.38,-54.71 1129.38,-46.11"/>
<polygon fill="black" stroke="black" points="1132.88,-46.1 1129.38,-36.1 1125.88,-46.1 1132.88,-46.1"/>
</g>
<!-- r&#45;tabulizer&#45;&gt;conda&#45;forge&#45;pinning -->
<g id="edge40" class="edge">
<title>r&#45;tabulizer&#45;&gt;conda&#45;forge&#45;pinning</title>
<path fill="none" stroke="black" d="M1165.94,-287.8C1170.54,-277.65 1175.79,-264.4 1178.38,-252 1194.75,-173.66 1214.36,-145.79 1183.38,-72 1178.67,-60.76 1170.27,-50.7 1161.49,-42.45"/>
<polygon fill="black" stroke="black" points="1163.58,-39.63 1153.75,-35.67 1158.97,-44.89 1163.58,-39.63"/>
</g>
<!-- r&#45;tabulizerjars&#45;&gt;conda&#45;forge&#45;pinning -->
<g id="edge41" class="edge">
<title>r&#45;tabulizerjars&#45;&gt;conda&#45;forge&#45;pinning</title>
<path fill="none" stroke="black" d="M1221.45,-359.67C1225.22,-349.47 1229.47,-336.22 1231.38,-324 1233.86,-308.19 1232.42,-303.97 1231.38,-288 1225.15,-191.4 1253.08,-155.07 1203.38,-72 1195.81,-59.34 1183.92,-48.87 1171.87,-40.67"/>
<polygon fill="black" stroke="black" points="1173.44,-37.52 1163.13,-35.1 1169.69,-43.42 1173.44,-37.52"/>
</g>
<!-- r&#45;tabulizerjars&#45;&gt;r&#45;tabulizer -->
<g id="edge42" class="edge">
<title>r&#45;tabulizerjars&#45;&gt;r&#45;tabulizer</title>
<path fill="none" stroke="black" d="M1200.59,-360.05C1193.66,-351.54 1185.13,-341.07 1177.48,-331.68"/>
<polygon fill="black" stroke="black" points="1180.08,-329.33 1171.06,-323.79 1174.66,-333.75 1180.08,-329.33"/>
</g>
<!-- r&#45;destinie&#45;&gt;conda&#45;forge&#45;pinning -->
<g id="edge43" class="edge">
<title>r&#45;destinie&#45;&gt;conda&#45;forge&#45;pinning</title>
<path fill="none" stroke="black" d="M444.63,-215.81C450.07,-181.86 467.32,-106.52 516.38,-72 556.39,-43.85 852.96,-28.85 1018.47,-22.59"/>
<polygon fill="black" stroke="black" points="1018.83,-26.08 1028.69,-22.21 1018.57,-19.09 1018.83,-26.08"/>
</g>
<!-- r&#45;fselector&#45;&gt;conda&#45;forge&#45;pinning -->
<g id="edge49" class="edge">
<title>r&#45;fselector&#45;&gt;conda&#45;forge&#45;pinning</title>
<path fill="none" stroke="black" d="M964.72,-75.5C996.15,-64.72 1040.54,-49.48 1075.32,-37.55"/>
<polygon fill="black" stroke="black" points="1076.53,-40.84 1084.85,-34.28 1074.26,-34.22 1076.53,-40.84"/>
</g>
<!-- rpy2 -->
<g id="node22" class="node">
<title>rpy2</title>
<g id="a_node22"><a xlink:href="https://github.com/conda-forge/rpy2-feedstock/pull/55" xlink:title="rpy2">
<ellipse fill="#31688e" stroke="black" cx="1434.38" cy="-162" rx="30.59" ry="18"/>
<text text-anchor="middle" x="1434.38" y="-158.3" font-family="Times,serif" font-size="14.00" fill="white">rpy2</text>
</a>
</g>
</g>
<!-- rpy2&#45;&gt;conda&#45;forge&#45;pinning -->
<g id="edge44" class="edge">
<title>rpy2&#45;&gt;conda&#45;forge&#45;pinning</title>
<path fill="none" stroke="black" d="M1417.71,-146.56C1388.96,-121.7 1332.88,-73.31 1330.38,-72 1294.44,-53.16 1251.29,-40.64 1214.2,-32.53"/>
<polygon fill="black" stroke="black" points="1214.92,-29.11 1204.41,-30.46 1213.47,-35.96 1214.92,-29.11"/>
</g>
<!-- iterativewgcna -->
<g id="node23" class="node">
<title>iterativewgcna</title>
<g id="a_node23"><a xlink:href="https://github.com/conda-forge/iterativewgcna-feedstock" xlink:title="iterativewgcna">
<ellipse fill="#fde725" stroke="black" cx="1461.38" cy="-90" rx="79.5" ry="18"/>
<text text-anchor="middle" x="1461.38" y="-86.3" font-family="Times,serif" font-size="14.00">iterativewgcna</text>
</a>
</g>
</g>
<!-- rpy2&#45;&gt;iterativewgcna -->
<g id="edge45" class="edge">
<title>rpy2&#45;&gt;iterativewgcna</title>
<path fill="none" stroke="black" d="M1440.92,-144.05C1443.96,-136.18 1447.65,-126.62 1451.05,-117.79"/>
<polygon fill="black" stroke="black" points="1454.39,-118.86 1454.72,-108.28 1447.86,-116.35 1454.39,-118.86"/>
</g>
<!-- iterativewgcna&#45;&gt;conda&#45;forge&#45;pinning -->
<g id="edge46" class="edge">
<title>iterativewgcna&#45;&gt;conda&#45;forge&#45;pinning</title>
<path fill="none" stroke="black" d="M1405.44,-77.2C1349.69,-65.45 1263.78,-47.34 1202.62,-34.44"/>
<polygon fill="black" stroke="black" points="1203.16,-30.98 1192.65,-32.34 1201.71,-37.83 1203.16,-30.98"/>
</g>
<!-- r&#45;rvaidememoire -->
<g id="node24" class="node">
<title>r&#45;rvaidememoire</title>
<g id="a_node24"><a xlink:href="https://github.com/conda-forge/r-rvaidememoire-feedstock" xlink:title="r rvaidememoire">
<ellipse fill="#35b779" stroke="black" cx="1642.38" cy="-90" rx="84" ry="18"/>
<text text-anchor="middle" x="1642.38" y="-86.3" font-family="Times,serif" font-size="14.00">r rvaidememoire</text>
</a>
</g>
</g>
<!-- r&#45;rvaidememoire&#45;&gt;conda&#45;forge&#45;pinning -->
<g id="edge47" class="edge">
<title>r&#45;rvaidememoire&#45;&gt;conda&#45;forge&#45;pinning</title>
<path fill="none" stroke="black" d="M1582.09,-77.35C1571.54,-75.45 1560.66,-73.59 1550.38,-72 1438.87,-54.69 1310.07,-39.12 1224.6,-29.4"/>
<polygon fill="black" stroke="black" points="1224.99,-25.93 1214.65,-28.28 1224.2,-32.88 1224.99,-25.93"/>
</g>
<!-- r&#45;hiver -->
<g id="node25" class="node">
<title>r&#45;hiver</title>
<g id="a_node25"><a xlink:href="https://github.com/conda-forge/r-hiver-feedstock" xlink:title="r hiver">
<ellipse fill="#35b779" stroke="black" cx="1719.38" cy="-162" rx="45" ry="18"/>
<text text-anchor="middle" x="1719.38" y="-158.3" font-family="Times,serif" font-size="14.00">r hiver</text>
</a>
</g>
</g>
<!-- r&#45;hiver&#45;&gt;conda&#45;forge&#45;pinning -->
<g id="edge48" class="edge">
<title>r&#45;hiver&#45;&gt;conda&#45;forge&#45;pinning</title>
<path fill="none" stroke="black" d="M1729.69,-144.28C1740.44,-124.47 1753.42,-91.68 1735.38,-72 1702.82,-36.46 1408.54,-24.66 1242.37,-20.81"/>
<polygon fill="black" stroke="black" points="1242.18,-17.3 1232.1,-20.58 1242.02,-24.3 1242.18,-17.3"/>
</g>
<!-- r&#45;littler -->
<g id="node26" class="node">
<title>r&#45;littler</title>
<g id="a_node26"><a xlink:href="https://github.com/conda-forge/r-littler-feedstock/pull/2" xlink:title="r littler">
<ellipse fill="#31688e" stroke="black" cx="1792.38" cy="-234" rx="54.69" ry="18"/>
<text text-anchor="middle" x="1792.38" y="-230.3" font-family="Times,serif" font-size="14.00" fill="white">r littler</text>
</a>
</g>
</g>
<!-- r&#45;littler&#45;&gt;conda&#45;forge&#45;pinning -->
<g id="edge50" class="edge">
<title>r&#45;littler&#45;&gt;conda&#45;forge&#45;pinning</title>
<path fill="none" stroke="black" d="M1794.17,-215.77C1796.59,-182.09 1796.44,-107.71 1753.38,-72 1714.94,-40.12 1410.21,-26.7 1241.26,-21.66"/>
<polygon fill="black" stroke="black" points="1241.18,-18.16 1231.08,-21.37 1240.97,-25.16 1241.18,-18.16"/>
</g>
<!-- r&#45;rxode -->
<g id="node27" class="node">
<title>r&#45;rxode</title>
<g id="a_node27"><a xlink:href="https://github.com/conda-forge/r-rxode-feedstock/pull/3" xlink:title="r rxode">
<ellipse fill="#31688e" stroke="black" cx="1887.38" cy="-162" rx="45" ry="18"/>
<text text-anchor="middle" x="1887.38" y="-158.3" font-family="Times,serif" font-size="14.00" fill="white">r rxode</text>
</a>
</g>
</g>
<!-- r&#45;rxode&#45;&gt;conda&#45;forge&#45;pinning -->
<g id="edge51" class="edge">
<title>r&#45;rxode&#45;&gt;conda&#45;forge&#45;pinning</title>
<path fill="none" stroke="black" d="M1874.67,-144.31C1856.46,-120.91 1823.27,-80.27 1806.38,-72 1756.88,-47.77 1418.48,-30.66 1239.64,-23.19"/>
<polygon fill="black" stroke="black" points="1239.55,-19.69 1229.41,-22.77 1239.26,-26.68 1239.55,-19.69"/>
</g>
<!-- r&#45;nlmixr -->
<g id="node28" class="node">
<title>r&#45;nlmixr</title>
<g id="a_node28"><a xlink:href="https://github.com/conda-forge/r-nlmixr-feedstock" xlink:title="r nlmixr">
<ellipse fill="#fde725" stroke="black" cx="1908.38" cy="-90" rx="50.09" ry="18"/>
<text text-anchor="middle" x="1908.38" y="-86.3" font-family="Times,serif" font-size="14.00">r nlmixr</text>
</a>
</g>
</g>
<!-- r&#45;rxode&#45;&gt;r&#45;nlmixr -->
<g id="edge52" class="edge">
<title>r&#45;rxode&#45;&gt;r&#45;nlmixr</title>
<path fill="none" stroke="black" d="M1892.47,-144.05C1894.81,-136.26 1897.64,-126.82 1900.26,-118.08"/>
<polygon fill="black" stroke="black" points="1903.68,-118.86 1903.2,-108.28 1896.98,-116.85 1903.68,-118.86"/>
</g>
<!-- r&#45;nlmixr&#45;&gt;conda&#45;forge&#45;pinning -->
<g id="edge53" class="edge">
<title>r&#45;nlmixr&#45;&gt;conda&#45;forge&#45;pinning</title>
<path fill="none" stroke="black" d="M1871.08,-77.84C1862.38,-75.59 1853.11,-73.47 1844.38,-72 1633.42,-36.48 1383.44,-24.76 1241.93,-20.9"/>
<polygon fill="black" stroke="black" points="1242.02,-17.4 1231.93,-20.64 1241.83,-24.4 1242.02,-17.4"/>
</g>
<!-- r&#45;tiledb -->
<g id="node29" class="node">
<title>r&#45;tiledb</title>
<g id="a_node29"><a xlink:href="https://github.com/conda-forge/r-tiledb-feedstock/pull/5" xlink:title="r tiledb">
<ellipse fill="#31688e" stroke="black" cx="1946.38" cy="-306" rx="50.09" ry="18"/>
<text text-anchor="middle" x="1946.38" y="-302.3" font-family="Times,serif" font-size="14.00" fill="white">r tiledb</text>
</a>
</g>
</g>
<!-- r&#45;tiledb&#45;&gt;conda&#45;forge&#45;pinning -->
<g id="edge54" class="edge">
<title>r&#45;tiledb&#45;&gt;conda&#45;forge&#45;pinning</title>
<path fill="none" stroke="black" d="M1955.34,-288.17C1976.62,-245.6 2024.37,-132.7 1967.38,-72 1942.91,-45.93 1463.56,-28.69 1241.08,-22.05"/>
<polygon fill="black" stroke="black" points="1241.11,-18.55 1231.01,-21.76 1240.9,-25.55 1241.11,-18.55"/>
</g>
<!-- r&#45;raceid -->
<g id="node30" class="node">
<title>r&#45;raceid</title>
<g id="a_node30"><a xlink:href="https://github.com/conda-forge/r-raceid-feedstock" xlink:title="r raceid">
<ellipse fill="#35b779" stroke="black" cx="2024.38" cy="-378" rx="50.09" ry="18"/>
<text text-anchor="middle" x="2024.38" y="-374.3" font-family="Times,serif" font-size="14.00">r raceid</text>
</a>
</g>
</g>
<!-- r&#45;raceid&#45;&gt;conda&#45;forge&#45;pinning -->
<g id="edge55" class="edge">
<title>r&#45;raceid&#45;&gt;conda&#45;forge&#45;pinning</title>
<path fill="none" stroke="black" d="M2024.38,-359.95C2024.38,-333.29 2024.38,-280.11 2024.38,-235 2024.38,-235 2024.38,-235 2024.38,-161 2024.38,-118.81 2025.26,-97.15 1991.38,-72 1932.72,-28.45 1463.72,-20.49 1243.21,-19.17"/>
<polygon fill="black" stroke="black" points="1242.92,-15.67 1232.9,-19.12 1242.88,-22.67 1242.92,-15.67"/>
</g>
<!-- r&#45;botor -->
<g id="node31" class="node">
<title>r&#45;botor</title>
<g id="a_node31"><a xlink:href="https://github.com/conda-forge/r-botor-feedstock" xlink:title="r botor">
<ellipse fill="#35b779" stroke="black" cx="2097.38" cy="-90" rx="45" ry="18"/>
<text text-anchor="middle" x="2097.38" y="-86.3" font-family="Times,serif" font-size="14.00">r botor</text>
</a>
</g>
</g>
<!-- r&#45;botor&#45;&gt;conda&#45;forge&#45;pinning -->
<g id="edge56" class="edge">
<title>r&#45;botor&#45;&gt;conda&#45;forge&#45;pinning</title>
<path fill="none" stroke="black" d="M2063.68,-77.89C2055.48,-75.58 2046.69,-73.42 2038.38,-72 1888.14,-46.3 1448.45,-29.25 1240.63,-22.39"/>
<polygon fill="black" stroke="black" points="1240.72,-18.9 1230.61,-22.07 1240.49,-25.89 1240.72,-18.9"/>
</g>
<!-- r&#45;comparegroups -->
<g id="node32" class="node">
<title>r&#45;comparegroups</title>
<g id="a_node32"><a xlink:href="https://github.com/conda-forge/r-comparegroups-feedstock" xlink:title="r comparegroups">
<ellipse fill="#35b779" stroke="black" cx="2170.38" cy="-162" rx="84" ry="18"/>
<text text-anchor="middle" x="2170.38" y="-158.3" font-family="Times,serif" font-size="14.00">r comparegroups</text>
</a>
</g>
</g>
<!-- r&#45;comparegroups&#45;&gt;conda&#45;forge&#45;pinning -->
<g id="edge57" class="edge">
<title>r&#45;comparegroups&#45;&gt;conda&#45;forge&#45;pinning</title>
<path fill="none" stroke="black" d="M2172.29,-143.88C2173.51,-123.35 2171.94,-89.53 2151.38,-72 2117.24,-42.88 1500.36,-26.71 1241.87,-21.19"/>
<polygon fill="black" stroke="black" points="1241.78,-17.69 1231.7,-20.97 1241.63,-24.69 1241.78,-17.69"/>
</g>
</g>
</svg>
