<?xml version="1.0" encoding="UTF-8" standalone="no"?>
<!DOCTYPE svg PUBLIC "-//W3C//DTD SVG 1.1//EN"
 "http://www.w3.org/Graphics/SVG/1.1/DTD/svg11.dtd">
<!-- Generated by graphviz version 2.42.3 (20191010.1750)
 -->
<!-- Title: %3 Pages: 1 -->
<svg width="2412pt" height="476pt"
 viewBox="0.00 0.00 2411.99 476.00" xmlns="http://www.w3.org/2000/svg" xmlns:xlink="http://www.w3.org/1999/xlink">
<g id="graph0" class="graph" transform="scale(1 1) rotate(0) translate(4 472)">
<title>%3</title>
<polygon fill="white" stroke="transparent" points="-4,4 -4,-472 2407.99,-472 2407.99,4 -4,4"/>
<!-- r&#45;fst -->
<g id="node1" class="node">
<title>r&#45;fst</title>
<g id="a_node1"><a xlink:href="https://github.com/conda-forge/r-fst-feedstock/pull/11" xlink:title="r fst">
<ellipse fill="#31688e" stroke="black" cx="38.4" cy="-162" rx="35.19" ry="18"/>
<text text-anchor="middle" x="38.4" y="-158.3" font-family="Times,serif" font-size="14.00" fill="white">r fst</text>
</a>
</g>
</g>
<!-- r&#45;disk.frame -->
<g id="node2" class="node">
<title>r&#45;disk.frame</title>
<g id="a_node2"><a xlink:href="https://github.com/conda-forge/r-disk.frame-feedstock" xlink:title="r disk frame">
<ellipse fill="#fde725" stroke="black" cx="87.4" cy="-90" rx="69.59" ry="18"/>
<text text-anchor="middle" x="87.4" y="-86.3" font-family="Times,serif" font-size="14.00">r disk frame</text>
</a>
</g>
</g>
<!-- r&#45;fst&#45;&gt;r&#45;disk.frame -->
<g id="edge1" class="edge">
<title>r&#45;fst&#45;&gt;r&#45;disk.frame</title>
<path fill="none" stroke="black" d="M49.76,-144.76C55.65,-136.35 62.98,-125.89 69.59,-116.44"/>
<polygon fill="black" stroke="black" points="72.54,-118.32 75.41,-108.12 66.81,-114.31 72.54,-118.32"/>
</g>
<!-- conda&#45;forge&#45;pinning -->
<g id="node3" class="node">
<title>conda&#45;forge&#45;pinning</title>
<ellipse fill="none" stroke="black" cx="1185.4" cy="-18" rx="103.5" ry="18"/>
<text text-anchor="middle" x="1185.4" y="-14.3" font-family="Times,serif" font-size="14.00">conda&#45;forge&#45;pinning</text>
</g>
<!-- r&#45;fst&#45;&gt;conda&#45;forge&#45;pinning -->
<g id="edge2" class="edge">
<title>r&#45;fst&#45;&gt;conda&#45;forge&#45;pinning</title>
<path fill="none" stroke="black" d="M24.57,-145.09C9.22,-125.48 -10.98,-92.27 8.4,-72 44.79,-33.93 784.71,-22.81 1072.38,-19.92"/>
<polygon fill="black" stroke="black" points="1072.46,-23.42 1082.42,-19.82 1072.39,-16.42 1072.46,-23.42"/>
</g>
<!-- r&#45;disk.frame&#45;&gt;conda&#45;forge&#45;pinning -->
<g id="edge3" class="edge">
<title>r&#45;disk.frame&#45;&gt;conda&#45;forge&#45;pinning</title>
<path fill="none" stroke="black" d="M137.84,-77.54C148.85,-75.39 160.48,-73.38 171.4,-72 496.39,-30.85 883.87,-21.51 1071.87,-19.49"/>
<polygon fill="black" stroke="black" points="1072.08,-22.99 1082.04,-19.38 1072,-15.99 1072.08,-22.99"/>
</g>
<!-- r&#45;hive -->
<g id="node4" class="node">
<title>r&#45;hive</title>
<g id="a_node4"><a xlink:href="https://github.com/conda-forge/r-hive-feedstock" xlink:title="r hive">
<ellipse fill="#fde725" stroke="black" cx="1178.4" cy="-234" rx="40.5" ry="18"/>
<text text-anchor="middle" x="1178.4" y="-230.3" font-family="Times,serif" font-size="14.00">r hive</text>
</a>
</g>
</g>
<!-- r&#45;hive&#45;&gt;conda&#45;forge&#45;pinning -->
<g id="edge4" class="edge">
<title>r&#45;hive&#45;&gt;conda&#45;forge&#45;pinning</title>
<path fill="none" stroke="black" d="M1175.75,-216C1171.58,-186.54 1164.63,-124.16 1171.4,-72 1172.5,-63.51 1174.56,-54.43 1176.76,-46.24"/>
<polygon fill="black" stroke="black" points="1180.18,-47.02 1179.58,-36.44 1173.45,-45.09 1180.18,-47.02"/>
</g>
<!-- r&#45;rjava -->
<g id="node5" class="node">
<title>r&#45;rjava</title>
<g id="a_node5"><a xlink:href="https://github.com/conda-forge/r-rjava-feedstock" xlink:title="r rjava">
<ellipse fill="#35b779" stroke="black" cx="864.4" cy="-450" rx="45" ry="18"/>
<text text-anchor="middle" x="864.4" y="-446.3" font-family="Times,serif" font-size="14.00">r rjava</text>
</a>
</g>
</g>
<!-- r&#45;rjava&#45;&gt;conda&#45;forge&#45;pinning -->
<g id="edge5" class="edge">
<title>r&#45;rjava&#45;&gt;conda&#45;forge&#45;pinning</title>
<path fill="none" stroke="black" d="M909.25,-448.42C992.38,-446.37 1165.64,-437.13 1206.4,-396 1296.51,-305.08 1228.85,-233.25 1202.4,-108 1198.04,-87.35 1193.58,-63.9 1190.32,-46.26"/>
<polygon fill="black" stroke="black" points="1193.71,-45.31 1188.46,-36.1 1186.82,-46.57 1193.71,-45.31"/>
</g>
<!-- r&#45;rjava&#45;&gt;r&#45;hive -->
<g id="edge6" class="edge">
<title>r&#45;rjava&#45;&gt;r&#45;hive</title>
<path fill="none" stroke="black" d="M909.26,-448.39C988.64,-446.25 1148.78,-436.85 1183.4,-396 1215.16,-358.53 1200.98,-296.68 1188.95,-261.54"/>
<polygon fill="black" stroke="black" points="1192.18,-260.19 1185.5,-251.97 1185.6,-262.57 1192.18,-260.19"/>
</g>
<!-- r&#45;xlsx -->
<g id="node6" class="node">
<title>r&#45;xlsx</title>
<g id="a_node6"><a xlink:href="https://github.com/conda-forge/r-xlsx-feedstock" xlink:title="r xlsx">
<ellipse fill="#fde725" stroke="black" cx="273.4" cy="-306" rx="40.5" ry="18"/>
<text text-anchor="middle" x="273.4" y="-302.3" font-family="Times,serif" font-size="14.00">r xlsx</text>
</a>
</g>
</g>
<!-- r&#45;rjava&#45;&gt;r&#45;xlsx -->
<g id="edge7" class="edge">
<title>r&#45;rjava&#45;&gt;r&#45;xlsx</title>
<path fill="none" stroke="black" d="M819.12,-448.69C708.69,-447.24 428.62,-439.29 347.4,-396 320.67,-381.76 299.77,-353.44 287.1,-332.56"/>
<polygon fill="black" stroke="black" points="290.08,-330.72 282.02,-323.84 284.03,-334.25 290.08,-330.72"/>
</g>
<!-- r&#45;xlsxjars -->
<g id="node7" class="node">
<title>r&#45;xlsxjars</title>
<g id="a_node7"><a xlink:href="https://github.com/conda-forge/r-xlsxjars-feedstock" xlink:title="r xlsxjars">
<ellipse fill="#fde725" stroke="black" cx="235.4" cy="-378" rx="60" ry="18"/>
<text text-anchor="middle" x="235.4" y="-374.3" font-family="Times,serif" font-size="14.00">r xlsxjars</text>
</a>
</g>
</g>
<!-- r&#45;rjava&#45;&gt;r&#45;xlsxjars -->
<g id="edge8" class="edge">
<title>r&#45;rjava&#45;&gt;r&#45;xlsxjars</title>
<path fill="none" stroke="black" d="M819.9,-446.73C725.4,-441.47 497.87,-426.51 309.4,-396 303.08,-394.98 296.5,-393.73 289.97,-392.38"/>
<polygon fill="black" stroke="black" points="290.34,-388.88 279.82,-390.2 288.86,-395.72 290.34,-388.88"/>
</g>
<!-- r&#45;xlconnectjars -->
<g id="node8" class="node">
<title>r&#45;xlconnectjars</title>
<g id="a_node8"><a xlink:href="https://github.com/conda-forge/r-xlconnectjars-feedstock" xlink:title="r xlconnectjars">
<ellipse fill="#fde725" stroke="black" cx="1354.4" cy="-378" rx="84" ry="18"/>
<text text-anchor="middle" x="1354.4" y="-374.3" font-family="Times,serif" font-size="14.00">r xlconnectjars</text>
</a>
</g>
</g>
<!-- r&#45;rjava&#45;&gt;r&#45;xlconnectjars -->
<g id="edge9" class="edge">
<title>r&#45;rjava&#45;&gt;r&#45;xlconnectjars</title>
<path fill="none" stroke="black" d="M906.82,-443.79C978.82,-434.84 1129.48,-415.58 1256.4,-396 1264.74,-394.71 1273.47,-393.3 1282.13,-391.85"/>
<polygon fill="black" stroke="black" points="1282.97,-395.26 1292.24,-390.14 1281.8,-388.36 1282.97,-395.26"/>
</g>
<!-- r&#45;xlconnect -->
<g id="node9" class="node">
<title>r&#45;xlconnect</title>
<g id="a_node9"><a xlink:href="https://github.com/conda-forge/r-xlconnect-feedstock" xlink:title="r xlconnect">
<ellipse fill="#fde725" stroke="black" cx="1378.4" cy="-306" rx="64.5" ry="18"/>
<text text-anchor="middle" x="1378.4" y="-302.3" font-family="Times,serif" font-size="14.00">r xlconnect</text>
</a>
</g>
</g>
<!-- r&#45;rjava&#45;&gt;r&#45;xlconnect -->
<g id="edge10" class="edge">
<title>r&#45;rjava&#45;&gt;r&#45;xlconnect</title>
<path fill="none" stroke="black" d="M909.22,-448.32C1039.52,-445.9 1411.29,-435.54 1447.4,-396 1458.19,-384.19 1454.47,-374.35 1447.4,-360 1440.9,-346.81 1429.36,-335.98 1417.56,-327.63"/>
<polygon fill="black" stroke="black" points="1419.26,-324.57 1408.99,-321.99 1415.42,-330.41 1419.26,-324.57"/>
</g>
<!-- r&#45;rcdklibs -->
<g id="node10" class="node">
<title>r&#45;rcdklibs</title>
<g id="a_node10"><a xlink:href="https://github.com/conda-forge/r-rcdklibs-feedstock" xlink:title="r rcdklibs">
<ellipse fill="#fde725" stroke="black" cx="507.4" cy="-378" rx="60" ry="18"/>
<text text-anchor="middle" x="507.4" y="-374.3" font-family="Times,serif" font-size="14.00">r rcdklibs</text>
</a>
</g>
</g>
<!-- r&#45;rjava&#45;&gt;r&#45;rcdklibs -->
<g id="edge11" class="edge">
<title>r&#45;rjava&#45;&gt;r&#45;rcdklibs</title>
<path fill="none" stroke="black" d="M824.83,-441.24C762.06,-428.93 639.32,-404.87 566.22,-390.53"/>
<polygon fill="black" stroke="black" points="566.74,-387.07 556.25,-388.58 565.39,-393.94 566.74,-387.07"/>
</g>
<!-- r&#45;rcdk -->
<g id="node11" class="node">
<title>r&#45;rcdk</title>
<g id="a_node11"><a xlink:href="https://github.com/conda-forge/r-rcdk-feedstock" xlink:title="r rcdk">
<ellipse fill="#fde725" stroke="black" cx="507.4" cy="-306" rx="40.5" ry="18"/>
<text text-anchor="middle" x="507.4" y="-302.3" font-family="Times,serif" font-size="14.00">r rcdk</text>
</a>
</g>
</g>
<!-- r&#45;rjava&#45;&gt;r&#45;rcdk -->
<g id="edge12" class="edge">
<title>r&#45;rjava&#45;&gt;r&#45;rcdk</title>
<path fill="none" stroke="black" d="M827.28,-439.62C791.45,-430.13 735.93,-414.29 689.4,-396 636.06,-375.04 576.89,-344.71 540.92,-325.42"/>
<polygon fill="black" stroke="black" points="542.32,-322.2 531.85,-320.53 538.99,-328.36 542.32,-322.2"/>
</g>
<!-- r&#45;rchoicedialogs -->
<g id="node12" class="node">
<title>r&#45;rchoicedialogs</title>
<g id="a_node12"><a xlink:href="https://github.com/conda-forge/r-rchoicedialogs-feedstock" xlink:title="r rchoicedialogs">
<ellipse fill="#fde725" stroke="black" cx="554.4" cy="-234" rx="89.08" ry="18"/>
<text text-anchor="middle" x="554.4" y="-230.3" font-family="Times,serif" font-size="14.00">r rchoicedialogs</text>
</a>
</g>
</g>
<!-- r&#45;rjava&#45;&gt;r&#45;rchoicedialogs -->
<g id="edge13" class="edge">
<title>r&#45;rjava&#45;&gt;r&#45;rchoicedialogs</title>
<path fill="none" stroke="black" d="M840.01,-434.6C822.64,-424.19 798.83,-409.61 778.4,-396 707.55,-348.8 627.1,-289.52 584.53,-257.7"/>
<polygon fill="black" stroke="black" points="586.39,-254.72 576.29,-251.52 582.19,-260.32 586.39,-254.72"/>
</g>
<!-- r&#45;rwekajars -->
<g id="node13" class="node">
<title>r&#45;rwekajars</title>
<g id="a_node13"><a xlink:href="https://github.com/conda-forge/r-rwekajars-feedstock" xlink:title="r rwekajars">
<ellipse fill="#fde725" stroke="black" cx="726.4" cy="-234" rx="64.5" ry="18"/>
<text text-anchor="middle" x="726.4" y="-230.3" font-family="Times,serif" font-size="14.00">r rwekajars</text>
</a>
</g>
</g>
<!-- r&#45;rjava&#45;&gt;r&#45;rwekajars -->
<g id="edge14" class="edge">
<title>r&#45;rjava&#45;&gt;r&#45;rwekajars</title>
<path fill="none" stroke="black" d="M844,-433.94C831.71,-424.13 816.36,-410.5 805.4,-396 773.06,-353.24 748.48,-295.17 735.86,-261.72"/>
<polygon fill="black" stroke="black" points="739.08,-260.34 732.33,-252.18 732.51,-262.77 739.08,-260.34"/>
</g>
<!-- r&#45;rweka -->
<g id="node14" class="node">
<title>r&#45;rweka</title>
<g id="a_node14"><a xlink:href="https://github.com/conda-forge/r-rweka-feedstock" xlink:title="r rweka">
<ellipse fill="#fde725" stroke="black" cx="765.4" cy="-162" rx="45" ry="18"/>
<text text-anchor="middle" x="765.4" y="-158.3" font-family="Times,serif" font-size="14.00">r rweka</text>
</a>
</g>
</g>
<!-- r&#45;rjava&#45;&gt;r&#45;rweka -->
<g id="edge15" class="edge">
<title>r&#45;rjava&#45;&gt;r&#45;rweka</title>
<path fill="none" stroke="black" d="M861.47,-432.02C854.3,-392.74 833.91,-293.03 799.4,-216 795.09,-206.37 789.19,-196.48 783.53,-187.88"/>
<polygon fill="black" stroke="black" points="786.31,-185.74 777.78,-179.45 780.52,-189.69 786.31,-185.74"/>
</g>
<!-- r&#45;subspace -->
<g id="node15" class="node">
<title>r&#45;subspace</title>
<g id="a_node15"><a xlink:href="https://github.com/conda-forge/r-subspace-feedstock" xlink:title="r subspace">
<ellipse fill="#fde725" stroke="black" cx="907.4" cy="-234" rx="60" ry="18"/>
<text text-anchor="middle" x="907.4" y="-230.3" font-family="Times,serif" font-size="14.00">r subspace</text>
</a>
</g>
</g>
<!-- r&#45;rjava&#45;&gt;r&#45;subspace -->
<g id="edge16" class="edge">
<title>r&#45;rjava&#45;&gt;r&#45;subspace</title>
<path fill="none" stroke="black" d="M865.84,-431.86C868.58,-402.2 875.46,-339.53 888.4,-288 890.6,-279.24 893.69,-269.89 896.74,-261.53"/>
<polygon fill="black" stroke="black" points="900.11,-262.51 900.37,-251.92 893.56,-260.04 900.11,-262.51"/>
</g>
<!-- r&#45;rmcfs -->
<g id="node16" class="node">
<title>r&#45;rmcfs</title>
<g id="a_node16"><a xlink:href="https://github.com/conda-forge/r-rmcfs-feedstock" xlink:title="r rmcfs">
<ellipse fill="#fde725" stroke="black" cx="960.4" cy="-162" rx="45" ry="18"/>
<text text-anchor="middle" x="960.4" y="-158.3" font-family="Times,serif" font-size="14.00">r rmcfs</text>
</a>
</g>
</g>
<!-- r&#45;rjava&#45;&gt;r&#45;rmcfs -->
<g id="edge17" class="edge">
<title>r&#45;rjava&#45;&gt;r&#45;rmcfs</title>
<path fill="none" stroke="black" d="M871.7,-431.88C876.07,-421.53 881.67,-408.06 886.4,-396 905.1,-348.35 895.39,-328.73 926.4,-288 942.99,-266.21 963.91,-276.37 976.4,-252 986.47,-232.34 980.64,-207.4 973.34,-188.93"/>
<polygon fill="black" stroke="black" points="976.52,-187.46 969.35,-179.67 970.09,-190.23 976.52,-187.46"/>
</g>
<!-- r&#45;rjdbc -->
<g id="node17" class="node">
<title>r&#45;rjdbc</title>
<g id="a_node17"><a xlink:href="https://github.com/conda-forge/r-rjdbc-feedstock" xlink:title="r rjdbc">
<ellipse fill="#fde725" stroke="black" cx="998.4" cy="-90" rx="45" ry="18"/>
<text text-anchor="middle" x="998.4" y="-86.3" font-family="Times,serif" font-size="14.00">r rjdbc</text>
</a>
</g>
</g>
<!-- r&#45;rjava&#45;&gt;r&#45;rjdbc -->
<g id="edge18" class="edge">
<title>r&#45;rjava&#45;&gt;r&#45;rjdbc</title>
<path fill="none" stroke="black" d="M878.99,-432.5C887.55,-422.37 898.25,-408.91 906.4,-396 934.94,-350.79 928.92,-331.93 959.4,-288 971.94,-269.92 982.46,-271.1 993.4,-252 1009.97,-223.08 1009.68,-213 1014.4,-180 1016.66,-164.16 1016.74,-159.83 1014.4,-144 1013.1,-135.21 1010.66,-125.86 1008.06,-117.5"/>
<polygon fill="black" stroke="black" points="1011.35,-116.29 1004.88,-107.9 1004.7,-118.49 1011.35,-116.29"/>
</g>
<!-- r&#45;tabulizer -->
<g id="node18" class="node">
<title>r&#45;tabulizer</title>
<g id="a_node18"><a xlink:href="https://github.com/conda-forge/r-tabulizer-feedstock" xlink:title="r tabulizer">
<ellipse fill="#fde725" stroke="black" cx="1033.4" cy="-306" rx="64.5" ry="18"/>
<text text-anchor="middle" x="1033.4" y="-302.3" font-family="Times,serif" font-size="14.00">r tabulizer</text>
</a>
</g>
</g>
<!-- r&#45;rjava&#45;&gt;r&#45;tabulizer -->
<g id="edge19" class="edge">
<title>r&#45;rjava&#45;&gt;r&#45;tabulizer</title>
<path fill="none" stroke="black" d="M892.23,-435.52C910.79,-425.85 935.22,-411.78 954.4,-396 977.61,-376.9 999.95,-350.77 1014.91,-331.77"/>
<polygon fill="black" stroke="black" points="1017.7,-333.89 1021.05,-323.84 1012.16,-329.6 1017.7,-333.89"/>
</g>
<!-- r&#45;tabulizerjars -->
<g id="node19" class="node">
<title>r&#45;tabulizerjars</title>
<g id="a_node19"><a xlink:href="https://github.com/conda-forge/r-tabulizerjars-feedstock" xlink:title="r tabulizerjars">
<ellipse fill="#fde725" stroke="black" cx="1090.4" cy="-378" rx="84" ry="18"/>
<text text-anchor="middle" x="1090.4" y="-374.3" font-family="Times,serif" font-size="14.00">r tabulizerjars</text>
</a>
</g>
</g>
<!-- r&#45;rjava&#45;&gt;r&#45;tabulizerjars -->
<g id="edge20" class="edge">
<title>r&#45;rjava&#45;&gt;r&#45;tabulizerjars</title>
<path fill="none" stroke="black" d="M899.22,-438.22C935.4,-427.01 992.56,-409.3 1034.97,-396.17"/>
<polygon fill="black" stroke="black" points="1036.07,-399.49 1044.59,-393.19 1034,-392.8 1036.07,-399.49"/>
</g>
<!-- r&#45;destinie -->
<g id="node20" class="node">
<title>r&#45;destinie</title>
<g id="a_node20"><a xlink:href="https://github.com/conda-forge/r-destinie-feedstock" xlink:title="r destinie">
<ellipse fill="#fde725" stroke="black" cx="311.4" cy="-234" rx="60" ry="18"/>
<text text-anchor="middle" x="311.4" y="-230.3" font-family="Times,serif" font-size="14.00">r destinie</text>
</a>
</g>
</g>
<!-- r&#45;rjava&#45;&gt;r&#45;destinie -->
<g id="edge21" class="edge">
<title>r&#45;rjava&#45;&gt;r&#45;destinie</title>
<path fill="none" stroke="black" d="M819.69,-447.69C724.02,-444.21 502.92,-432.37 438.4,-396 382.74,-364.62 342.71,-298.12 323.74,-261.15"/>
<polygon fill="black" stroke="black" points="326.77,-259.38 319.17,-252 320.51,-262.51 326.77,-259.38"/>
</g>
<!-- r&#45;xlsx&#45;&gt;conda&#45;forge&#45;pinning -->
<g id="edge22" class="edge">
<title>r&#45;xlsx&#45;&gt;conda&#45;forge&#45;pinning</title>
<path fill="none" stroke="black" d="M260.9,-288.84C253.96,-278.83 246.02,-265.38 242.4,-252 238.21,-236.56 237.37,-231.19 242.4,-216 267.44,-140.3 279.33,-110.05 349.4,-72 411.33,-38.37 858.71,-25.28 1072.37,-20.91"/>
<polygon fill="black" stroke="black" points="1072.75,-24.4 1082.68,-20.7 1072.61,-17.4 1072.75,-24.4"/>
</g>
<!-- r&#45;xlsx&#45;&gt;r&#45;destinie -->
<g id="edge23" class="edge">
<title>r&#45;xlsx&#45;&gt;r&#45;destinie</title>
<path fill="none" stroke="black" d="M282.4,-288.41C286.88,-280.16 292.39,-270.01 297.41,-260.78"/>
<polygon fill="black" stroke="black" points="300.5,-262.41 302.19,-251.96 294.35,-259.07 300.5,-262.41"/>
</g>
<!-- r&#45;xlsxjars&#45;&gt;conda&#45;forge&#45;pinning -->
<g id="edge24" class="edge">
<title>r&#45;xlsxjars&#45;&gt;conda&#45;forge&#45;pinning</title>
<path fill="none" stroke="black" d="M225.28,-360.19C210.67,-334.27 185.4,-282.57 185.4,-235 185.4,-235 185.4,-235 185.4,-161 185.4,-98.11 236.76,-94.73 295.4,-72 366.16,-44.57 850.8,-28.06 1073.68,-21.84"/>
<polygon fill="black" stroke="black" points="1073.87,-25.34 1083.77,-21.56 1073.68,-18.34 1073.87,-25.34"/>
</g>
<!-- r&#45;xlsxjars&#45;&gt;r&#45;xlsx -->
<g id="edge25" class="edge">
<title>r&#45;xlsxjars&#45;&gt;r&#45;xlsx</title>
<path fill="none" stroke="black" d="M244.6,-360.05C249.03,-351.89 254.45,-341.91 259.38,-332.82"/>
<polygon fill="black" stroke="black" points="262.59,-334.25 264.28,-323.79 256.44,-330.91 262.59,-334.25"/>
</g>
<!-- r&#45;xlconnectjars&#45;&gt;conda&#45;forge&#45;pinning -->
<g id="edge26" class="edge">
<title>r&#45;xlconnectjars&#45;&gt;conda&#45;forge&#45;pinning</title>
<path fill="none" stroke="black" d="M1335.41,-360.3C1325.17,-350.52 1312.92,-337.47 1304.4,-324 1300.43,-317.74 1223.86,-119.01 1195.69,-45.76"/>
<polygon fill="black" stroke="black" points="1198.9,-44.37 1192.04,-36.29 1192.37,-46.88 1198.9,-44.37"/>
</g>
<!-- r&#45;xlconnectjars&#45;&gt;r&#45;xlconnect -->
<g id="edge27" class="edge">
<title>r&#45;xlconnectjars&#45;&gt;r&#45;xlconnect</title>
<path fill="none" stroke="black" d="M1360.33,-359.7C1363.01,-351.9 1366.22,-342.51 1369.2,-333.83"/>
<polygon fill="black" stroke="black" points="1372.6,-334.7 1372.53,-324.1 1365.98,-332.43 1372.6,-334.7"/>
</g>
<!-- r&#45;xlconnect&#45;&gt;conda&#45;forge&#45;pinning -->
<g id="edge28" class="edge">
<title>r&#45;xlconnect&#45;&gt;conda&#45;forge&#45;pinning</title>
<path fill="none" stroke="black" d="M1370.01,-287.95C1350.01,-248.09 1296.73,-146.55 1237.4,-72 1229.37,-61.91 1219.68,-51.62 1210.85,-42.82"/>
<polygon fill="black" stroke="black" points="1213.29,-40.31 1203.69,-35.82 1208.39,-45.31 1213.29,-40.31"/>
</g>
<!-- r&#45;rcdklibs&#45;&gt;conda&#45;forge&#45;pinning -->
<g id="edge29" class="edge">
<title>r&#45;rcdklibs&#45;&gt;conda&#45;forge&#45;pinning</title>
<path fill="none" stroke="black" d="M483.96,-361.24C452.2,-337.78 399.4,-290.44 399.4,-235 399.4,-235 399.4,-235 399.4,-161 399.4,-82.33 477.37,-95.64 552.4,-72 646.7,-42.29 919.46,-28.2 1074.41,-22.42"/>
<polygon fill="black" stroke="black" points="1074.58,-25.92 1084.44,-22.05 1074.32,-18.92 1074.58,-25.92"/>
</g>
<!-- r&#45;rcdklibs&#45;&gt;r&#45;rcdk -->
<g id="edge30" class="edge">
<title>r&#45;rcdklibs&#45;&gt;r&#45;rcdk</title>
<path fill="none" stroke="black" d="M507.4,-359.7C507.4,-351.98 507.4,-342.71 507.4,-334.11"/>
<polygon fill="black" stroke="black" points="510.9,-334.1 507.4,-324.1 503.9,-334.1 510.9,-334.1"/>
</g>
<!-- r&#45;rcdk&#45;&gt;conda&#45;forge&#45;pinning -->
<g id="edge31" class="edge">
<title>r&#45;rcdk&#45;&gt;conda&#45;forge&#45;pinning</title>
<path fill="none" stroke="black" d="M487.01,-290.31C475.66,-280.82 462.6,-267.4 456.4,-252 450.42,-237.16 449.37,-230.37 456.4,-216 502.16,-122.39 544.61,-110.58 641.4,-72 717.56,-41.65 938.76,-28.12 1074.5,-22.54"/>
<polygon fill="black" stroke="black" points="1074.68,-26.03 1084.53,-22.13 1074.4,-19.04 1074.68,-26.03"/>
</g>
<!-- r&#45;rchoicedialogs&#45;&gt;conda&#45;forge&#45;pinning -->
<g id="edge32" class="edge">
<title>r&#45;rchoicedialogs&#45;&gt;conda&#45;forge&#45;pinning</title>
<path fill="none" stroke="black" d="M563.01,-215.89C581.22,-181.75 627.22,-105.54 690.4,-72 754.6,-37.92 948.11,-25.74 1073.31,-21.4"/>
<polygon fill="black" stroke="black" points="1073.45,-24.9 1083.32,-21.06 1073.21,-17.9 1073.45,-24.9"/>
</g>
<!-- r&#45;rwekajars&#45;&gt;conda&#45;forge&#45;pinning -->
<g id="edge33" class="edge">
<title>r&#45;rwekajars&#45;&gt;conda&#45;forge&#45;pinning</title>
<path fill="none" stroke="black" d="M717.52,-216.14C701.84,-183.76 674.16,-112.51 710.4,-72 734.34,-45.24 943.12,-30.43 1075.79,-23.65"/>
<polygon fill="black" stroke="black" points="1076.19,-27.14 1086,-23.14 1075.84,-20.15 1076.19,-27.14"/>
</g>
<!-- r&#45;rwekajars&#45;&gt;r&#45;rweka -->
<g id="edge34" class="edge">
<title>r&#45;rwekajars&#45;&gt;r&#45;rweka</title>
<path fill="none" stroke="black" d="M735.84,-216.05C740.44,-207.8 746.07,-197.7 751.17,-188.54"/>
<polygon fill="black" stroke="black" points="754.24,-190.23 756.04,-179.79 748.12,-186.82 754.24,-190.23"/>
</g>
<!-- r&#45;rweka&#45;&gt;conda&#45;forge&#45;pinning -->
<g id="edge35" class="edge">
<title>r&#45;rweka&#45;&gt;conda&#45;forge&#45;pinning</title>
<path fill="none" stroke="black" d="M747.29,-145.39C727.39,-126.38 700.68,-94.09 720.4,-72 743.71,-45.88 946.48,-30.9 1076.44,-23.91"/>
<polygon fill="black" stroke="black" points="1076.65,-27.4 1086.45,-23.38 1076.28,-20.41 1076.65,-27.4"/>
</g>
<!-- r&#45;fselector -->
<g id="node21" class="node">
<title>r&#45;fselector</title>
<g id="a_node21"><a xlink:href="https://github.com/conda-forge/r-fselector-feedstock" xlink:title="r fselector">
<ellipse fill="#fde725" stroke="black" cx="794.4" cy="-90" rx="64.5" ry="18"/>
<text text-anchor="middle" x="794.4" y="-86.3" font-family="Times,serif" font-size="14.00">r fselector</text>
</a>
</g>
</g>
<!-- r&#45;rweka&#45;&gt;r&#45;fselector -->
<g id="edge36" class="edge">
<title>r&#45;rweka&#45;&gt;r&#45;fselector</title>
<path fill="none" stroke="black" d="M772.42,-144.05C775.68,-136.18 779.64,-126.62 783.3,-117.79"/>
<polygon fill="black" stroke="black" points="786.65,-118.85 787.24,-108.28 780.18,-116.17 786.65,-118.85"/>
</g>
<!-- r&#45;subspace&#45;&gt;conda&#45;forge&#45;pinning -->
<g id="edge37" class="edge">
<title>r&#45;subspace&#45;&gt;conda&#45;forge&#45;pinning</title>
<path fill="none" stroke="black" d="M903.84,-215.84C898.01,-182.27 890.87,-108.09 932.4,-72 955.82,-51.65 1027.78,-37.82 1088.99,-29.4"/>
<polygon fill="black" stroke="black" points="1089.66,-32.84 1099.1,-28.05 1088.73,-25.9 1089.66,-32.84"/>
</g>
<!-- r&#45;rmcfs&#45;&gt;conda&#45;forge&#45;pinning -->
<g id="edge38" class="edge">
<title>r&#45;rmcfs&#45;&gt;conda&#45;forge&#45;pinning</title>
<path fill="none" stroke="black" d="M950.35,-144.31C940.07,-124.84 927.77,-92.68 944.4,-72 962.41,-49.59 1027.8,-36.11 1085.92,-28.36"/>
<polygon fill="black" stroke="black" points="1086.46,-31.82 1095.93,-27.07 1085.56,-24.87 1086.46,-31.82"/>
</g>
<!-- r&#45;rjdbc&#45;&gt;conda&#45;forge&#45;pinning -->
<g id="edge39" class="edge">
<title>r&#45;rjdbc&#45;&gt;conda&#45;forge&#45;pinning</title>
<path fill="none" stroke="black" d="M1030.12,-77.13C1058.57,-66.47 1100.84,-50.65 1134.1,-38.2"/>
<polygon fill="black" stroke="black" points="1135.52,-41.41 1143.66,-34.62 1133.07,-34.85 1135.52,-41.41"/>
</g>
<!-- r&#45;tabulizer&#45;&gt;conda&#45;forge&#45;pinning -->
<g id="edge40" class="edge">
<title>r&#45;tabulizer&#45;&gt;conda&#45;forge&#45;pinning</title>
<path fill="none" stroke="black" d="M1037.92,-287.91C1052.14,-234.24 1094.98,-72.56 1095.4,-72 1105.75,-58.37 1120.71,-47.58 1135.46,-39.39"/>
<polygon fill="black" stroke="black" points="1137.34,-42.36 1144.58,-34.63 1134.1,-36.16 1137.34,-42.36"/>
</g>
<!-- r&#45;tabulizerjars&#45;&gt;conda&#45;forge&#45;pinning -->
<g id="edge41" class="edge">
<title>r&#45;tabulizerjars&#45;&gt;conda&#45;forge&#45;pinning</title>
<path fill="none" stroke="black" d="M1095.99,-359.93C1099.26,-349.59 1103.34,-336.12 1106.4,-324 1118.38,-276.5 1117.41,-263.74 1128.4,-216 1143.22,-151.6 1145.48,-135.01 1165.4,-72 1168.17,-63.24 1171.58,-53.81 1174.8,-45.37"/>
<polygon fill="black" stroke="black" points="1178.07,-46.61 1178.43,-36.02 1171.55,-44.07 1178.07,-46.61"/>
</g>
<!-- r&#45;tabulizerjars&#45;&gt;r&#45;tabulizer -->
<g id="edge42" class="edge">
<title>r&#45;tabulizerjars&#45;&gt;r&#45;tabulizer</title>
<path fill="none" stroke="black" d="M1076.6,-360.05C1069.67,-351.54 1061.14,-341.07 1053.5,-331.68"/>
<polygon fill="black" stroke="black" points="1056.1,-329.33 1047.07,-323.79 1050.67,-333.75 1056.1,-329.33"/>
</g>
<!-- r&#45;destinie&#45;&gt;conda&#45;forge&#45;pinning -->
<g id="edge43" class="edge">
<title>r&#45;destinie&#45;&gt;conda&#45;forge&#45;pinning</title>
<path fill="none" stroke="black" d="M313.54,-215.99C318.83,-182.02 335.87,-106.11 385.4,-72 440.56,-34.01 865,-23.19 1072.25,-20.15"/>
<polygon fill="black" stroke="black" points="1072.3,-23.65 1082.25,-20.01 1072.2,-16.65 1072.3,-23.65"/>
</g>
<!-- r&#45;fselector&#45;&gt;conda&#45;forge&#45;pinning -->
<g id="edge49" class="edge">
<title>r&#45;fselector&#45;&gt;conda&#45;forge&#45;pinning</title>
<path fill="none" stroke="black" d="M843.22,-78.15C853.19,-76.03 863.62,-73.88 873.4,-72 950.47,-57.17 1038.69,-42.39 1101.6,-32.22"/>
<polygon fill="black" stroke="black" points="1102.16,-35.67 1111.48,-30.62 1101.05,-28.76 1102.16,-35.67"/>
</g>
<!-- rpy2 -->
<g id="node22" class="node">
<title>rpy2</title>
<g id="a_node22"><a xlink:href="https://github.com/conda-forge/rpy2-feedstock/pull/55" xlink:title="rpy2">
<ellipse fill="#31688e" stroke="black" cx="1390.4" cy="-162" rx="30.59" ry="18"/>
<text text-anchor="middle" x="1390.4" y="-158.3" font-family="Times,serif" font-size="14.00" fill="white">rpy2</text>
</a>
</g>
</g>
<!-- rpy2&#45;&gt;conda&#45;forge&#45;pinning -->
<g id="edge44" class="edge">
<title>rpy2&#45;&gt;conda&#45;forge&#45;pinning</title>
<path fill="none" stroke="black" d="M1371.18,-147.68C1356.28,-137.21 1335.22,-122.07 1317.4,-108 1298.1,-92.77 1295.4,-86.29 1275.4,-72 1259.61,-60.72 1241.3,-49.61 1225.33,-40.5"/>
<polygon fill="black" stroke="black" points="1226.67,-37.24 1216.24,-35.38 1223.23,-43.33 1226.67,-37.24"/>
</g>
<!-- iterativewgcna -->
<g id="node23" class="node">
<title>iterativewgcna</title>
<g id="a_node23"><a xlink:href="https://github.com/conda-forge/iterativewgcna-feedstock" xlink:title="iterativewgcna">
<ellipse fill="#fde725" stroke="black" cx="1406.4" cy="-90" rx="79.5" ry="18"/>
<text text-anchor="middle" x="1406.4" y="-86.3" font-family="Times,serif" font-size="14.00">iterativewgcna</text>
</a>
</g>
</g>
<!-- rpy2&#45;&gt;iterativewgcna -->
<g id="edge45" class="edge">
<title>rpy2&#45;&gt;iterativewgcna</title>
<path fill="none" stroke="black" d="M1394.27,-144.05C1396.05,-136.26 1398.21,-126.82 1400.21,-118.08"/>
<polygon fill="black" stroke="black" points="1403.63,-118.8 1402.45,-108.28 1396.81,-117.24 1403.63,-118.8"/>
</g>
<!-- iterativewgcna&#45;&gt;conda&#45;forge&#45;pinning -->
<g id="edge46" class="edge">
<title>iterativewgcna&#45;&gt;conda&#45;forge&#45;pinning</title>
<path fill="none" stroke="black" d="M1362.21,-75C1327.86,-64.13 1279.96,-48.95 1242.68,-37.14"/>
<polygon fill="black" stroke="black" points="1243.55,-33.75 1232.96,-34.06 1241.43,-40.42 1243.55,-33.75"/>
</g>
<!-- r&#45;rvaidememoire -->
<g id="node24" class="node">
<title>r&#45;rvaidememoire</title>
<g id="a_node24"><a xlink:href="https://github.com/conda-forge/r-rvaidememoire-feedstock" xlink:title="r rvaidememoire">
<ellipse fill="#35b779" stroke="black" cx="1587.4" cy="-90" rx="84" ry="18"/>
<text text-anchor="middle" x="1587.4" y="-86.3" font-family="Times,serif" font-size="14.00">r rvaidememoire</text>
</a>
</g>
</g>
<!-- r&#45;rvaidememoire&#45;&gt;conda&#45;forge&#45;pinning -->
<g id="edge47" class="edge">
<title>r&#45;rvaidememoire&#45;&gt;conda&#45;forge&#45;pinning</title>
<path fill="none" stroke="black" d="M1525.88,-77.66C1515.38,-75.75 1504.58,-73.8 1494.4,-72 1417.36,-58.35 1329.41,-43.32 1267.09,-32.76"/>
<polygon fill="black" stroke="black" points="1267.37,-29.26 1256.93,-31.04 1266.21,-36.16 1267.37,-29.26"/>
</g>
<!-- r&#45;hiver -->
<g id="node25" class="node">
<title>r&#45;hiver</title>
<g id="a_node25"><a xlink:href="https://github.com/conda-forge/r-hiver-feedstock" xlink:title="r hiver">
<ellipse fill="#35b779" stroke="black" cx="1664.4" cy="-162" rx="45" ry="18"/>
<text text-anchor="middle" x="1664.4" y="-158.3" font-family="Times,serif" font-size="14.00">r hiver</text>
</a>
</g>
</g>
<!-- r&#45;hiver&#45;&gt;conda&#45;forge&#45;pinning -->
<g id="edge48" class="edge">
<title>r&#45;hiver&#45;&gt;conda&#45;forge&#45;pinning</title>
<path fill="none" stroke="black" d="M1674.64,-144.34C1685.33,-124.58 1698.24,-91.85 1680.4,-72 1655.16,-43.92 1433.72,-29.48 1295.7,-23.14"/>
<polygon fill="black" stroke="black" points="1295.65,-19.63 1285.5,-22.68 1295.33,-26.63 1295.65,-19.63"/>
</g>
<!-- r&#45;littler -->
<g id="node26" class="node">
<title>r&#45;littler</title>
<g id="a_node26"><a xlink:href="https://github.com/conda-forge/r-littler-feedstock/pull/2" xlink:title="r littler">
<ellipse fill="#31688e" stroke="black" cx="1737.4" cy="-234" rx="54.69" ry="18"/>
<text text-anchor="middle" x="1737.4" y="-230.3" font-family="Times,serif" font-size="14.00" fill="white">r littler</text>
</a>
</g>
</g>
<!-- r&#45;littler&#45;&gt;conda&#45;forge&#45;pinning -->
<g id="edge50" class="edge">
<title>r&#45;littler&#45;&gt;conda&#45;forge&#45;pinning</title>
<path fill="none" stroke="black" d="M1739.22,-215.88C1741.73,-182.39 1741.84,-108.32 1699.4,-72 1669.32,-46.26 1436.35,-30.82 1294.59,-23.71"/>
<polygon fill="black" stroke="black" points="1294.7,-20.21 1284.54,-23.21 1294.36,-27.2 1294.7,-20.21"/>
</g>
<!-- r&#45;rxode -->
<g id="node27" class="node">
<title>r&#45;rxode</title>
<g id="a_node27"><a xlink:href="https://github.com/conda-forge/r-rxode-feedstock/pull/3" xlink:title="r rxode">
<ellipse fill="#31688e" stroke="black" cx="1832.4" cy="-162" rx="45" ry="18"/>
<text text-anchor="middle" x="1832.4" y="-158.3" font-family="Times,serif" font-size="14.00" fill="white">r rxode</text>
</a>
</g>
</g>
<!-- r&#45;rxode&#45;&gt;conda&#45;forge&#45;pinning -->
<g id="edge51" class="edge">
<title>r&#45;rxode&#45;&gt;conda&#45;forge&#45;pinning</title>
<path fill="none" stroke="black" d="M1819.67,-144.35C1801.43,-120.99 1768.22,-80.4 1751.4,-72 1674.54,-33.64 1440.51,-22.94 1298.59,-20.02"/>
<polygon fill="black" stroke="black" points="1298.6,-16.52 1288.53,-19.83 1298.46,-23.52 1298.6,-16.52"/>
</g>
<!-- r&#45;nlmixr -->
<g id="node28" class="node">
<title>r&#45;nlmixr</title>
<g id="a_node28"><a xlink:href="https://github.com/conda-forge/r-nlmixr-feedstock" xlink:title="r nlmixr">
<ellipse fill="#fde725" stroke="black" cx="1853.4" cy="-90" rx="50.09" ry="18"/>
<text text-anchor="middle" x="1853.4" y="-86.3" font-family="Times,serif" font-size="14.00">r nlmixr</text>
</a>
</g>
</g>
<!-- r&#45;rxode&#45;&gt;r&#45;nlmixr -->
<g id="edge52" class="edge">
<title>r&#45;rxode&#45;&gt;r&#45;nlmixr</title>
<path fill="none" stroke="black" d="M1837.48,-144.05C1839.82,-136.26 1842.65,-126.82 1845.28,-118.08"/>
<polygon fill="black" stroke="black" points="1848.7,-118.86 1848.22,-108.28 1841.99,-116.85 1848.7,-118.86"/>
</g>
<!-- r&#45;nlmixr&#45;&gt;conda&#45;forge&#45;pinning -->
<g id="edge53" class="edge">
<title>r&#45;nlmixr&#45;&gt;conda&#45;forge&#45;pinning</title>
<path fill="none" stroke="black" d="M1816.07,-77.93C1807.38,-75.68 1798.12,-73.53 1789.4,-72 1618.59,-42.05 1417.49,-28.7 1295.82,-22.99"/>
<polygon fill="black" stroke="black" points="1295.9,-19.49 1285.75,-22.52 1295.58,-26.48 1295.9,-19.49"/>
</g>
<!-- r&#45;paireddata -->
<g id="node29" class="node">
<title>r&#45;paireddata</title>
<g id="a_node29"><a xlink:href="https://github.com/conda-forge/r-paireddata-feedstock" xlink:title="r paireddata">
<ellipse fill="#35b779" stroke="black" cx="1871.4" cy="-306" rx="69.59" ry="18"/>
<text text-anchor="middle" x="1871.4" y="-302.3" font-family="Times,serif" font-size="14.00">r paireddata</text>
</a>
</g>
</g>
<!-- r&#45;paireddata&#45;&gt;conda&#45;forge&#45;pinning -->
<g id="edge54" class="edge">
<title>r&#45;paireddata&#45;&gt;conda&#45;forge&#45;pinning</title>
<path fill="none" stroke="black" d="M1882.65,-287.97C1909.25,-245.43 1969.59,-133.51 1912.4,-72 1871.61,-28.12 1493.38,-20.16 1299.24,-18.99"/>
<polygon fill="black" stroke="black" points="1299.02,-15.48 1289,-18.93 1298.98,-22.48 1299.02,-15.48"/>
</g>
<!-- r&#45;glmpca -->
<g id="node30" class="node">
<title>r&#45;glmpca</title>
<g id="a_node30"><a xlink:href="https://github.com/conda-forge/r-glmpca-feedstock/pull/1" xlink:title="r glmpca">
<ellipse fill="#31688e" stroke="black" cx="1969.4" cy="-378" rx="50.09" ry="18"/>
<text text-anchor="middle" x="1969.4" y="-374.3" font-family="Times,serif" font-size="14.00" fill="white">r glmpca</text>
</a>
</g>
</g>
<!-- r&#45;glmpca&#45;&gt;conda&#45;forge&#45;pinning -->
<g id="edge55" class="edge">
<title>r&#45;glmpca&#45;&gt;conda&#45;forge&#45;pinning</title>
<path fill="none" stroke="black" d="M1969.4,-359.95C1969.4,-333.29 1969.4,-280.11 1969.4,-235 1969.4,-235 1969.4,-235 1969.4,-161 1969.4,-118.81 1970.16,-97.3 1936.4,-72 1886.63,-34.71 1495.8,-23.57 1298.52,-20.31"/>
<polygon fill="black" stroke="black" points="1298.46,-16.81 1288.41,-20.15 1298.35,-23.81 1298.46,-16.81"/>
</g>
<!-- r&#45;fgarch -->
<g id="node31" class="node">
<title>r&#45;fgarch</title>
<g id="a_node31"><a xlink:href="https://github.com/conda-forge/r-fgarch-feedstock/pull/1" xlink:title="r fgarch">
<ellipse fill="#31688e" stroke="black" cx="2047.4" cy="-90" rx="50.09" ry="18"/>
<text text-anchor="middle" x="2047.4" y="-86.3" font-family="Times,serif" font-size="14.00" fill="white">r fgarch</text>
</a>
</g>
</g>
<!-- r&#45;fgarch&#45;&gt;conda&#45;forge&#45;pinning -->
<g id="edge56" class="edge">
<title>r&#45;fgarch&#45;&gt;conda&#45;forge&#45;pinning</title>
<path fill="none" stroke="black" d="M2010.1,-77.8C2001.4,-75.55 1992.13,-73.44 1983.4,-72 1741.75,-32.26 1454.28,-22.12 1298.84,-19.66"/>
<polygon fill="black" stroke="black" points="1298.84,-16.16 1288.79,-19.51 1298.74,-23.16 1298.84,-16.16"/>
</g>
<!-- r&#45;repmis -->
<g id="node32" class="node">
<title>r&#45;repmis</title>
<g id="a_node32"><a xlink:href="https://github.com/conda-forge/r-repmis-feedstock/pull/1" xlink:title="r repmis">
<ellipse fill="#31688e" stroke="black" cx="2085.4" cy="-162" rx="50.09" ry="18"/>
<text text-anchor="middle" x="2085.4" y="-158.3" font-family="Times,serif" font-size="14.00" fill="white">r repmis</text>
</a>
</g>
</g>
<!-- r&#45;repmis&#45;&gt;conda&#45;forge&#45;pinning -->
<g id="edge57" class="edge">
<title>r&#45;repmis&#45;&gt;conda&#45;forge&#45;pinning</title>
<path fill="none" stroke="black" d="M2097.19,-144.26C2109.59,-124.43 2124.93,-91.62 2106.4,-72 2079.03,-43.01 1536.93,-27.05 1297.47,-21.39"/>
<polygon fill="black" stroke="black" points="1297.42,-17.89 1287.34,-21.15 1297.26,-24.89 1297.42,-17.89"/>
</g>
<!-- r&#45;tarifx -->
<g id="node33" class="node">
<title>r&#45;tarifx</title>
<g id="a_node33"><a xlink:href="https://github.com/conda-forge/r-tarifx-feedstock/pull/1" xlink:title="r tarifx">
<ellipse fill="#31688e" stroke="black" cx="2123.4" cy="-234" rx="50.09" ry="18"/>
<text text-anchor="middle" x="2123.4" y="-230.3" font-family="Times,serif" font-size="14.00" fill="white">r tarifx</text>
</a>
</g>
</g>
<!-- r&#45;tarifx&#45;&gt;conda&#45;forge&#45;pinning -->
<g id="edge58" class="edge">
<title>r&#45;tarifx&#45;&gt;conda&#45;forge&#45;pinning</title>
<path fill="none" stroke="black" d="M2132.12,-215.83C2136.77,-205.69 2142.02,-192.44 2144.4,-180 2153.54,-132.13 2163.16,-102.82 2125.4,-72 2093.8,-46.21 1539.86,-28.41 1297.45,-21.83"/>
<polygon fill="black" stroke="black" points="1297.29,-18.32 1287.2,-21.55 1297.1,-25.32 1297.29,-18.32"/>
</g>
<!-- r&#45;sparsepca -->
<g id="node34" class="node">
<title>r&#45;sparsepca</title>
<g id="a_node34"><a xlink:href="https://github.com/conda-forge/r-sparsepca-feedstock/pull/1" xlink:title="r sparsepca">
<ellipse fill="#31688e" stroke="black" cx="2173.4" cy="-306" rx="64.5" ry="18"/>
<text text-anchor="middle" x="2173.4" y="-302.3" font-family="Times,serif" font-size="14.00" fill="white">r sparsepca</text>
</a>
</g>
</g>
<!-- r&#45;sparsepca&#45;&gt;conda&#45;forge&#45;pinning -->
<g id="edge59" class="edge">
<title>r&#45;sparsepca&#45;&gt;conda&#45;forge&#45;pinning</title>
<path fill="none" stroke="black" d="M2178.57,-288.05C2190.78,-244.18 2215.84,-126.54 2152.4,-72 2120.45,-44.53 1545.54,-27.58 1297.64,-21.52"/>
<polygon fill="black" stroke="black" points="1297.61,-18.02 1287.52,-21.28 1297.44,-25.02 1297.61,-18.02"/>
</g>
<!-- r&#45;cpgassoc -->
<g id="node35" class="node">
<title>r&#45;cpgassoc</title>
<g id="a_node35"><a xlink:href="https://github.com/conda-forge/r-cpgassoc-feedstock/pull/1" xlink:title="r cpgassoc">
<ellipse fill="#31688e" stroke="black" cx="2266.4" cy="-378" rx="60" ry="18"/>
<text text-anchor="middle" x="2266.4" y="-374.3" font-family="Times,serif" font-size="14.00" fill="white">r cpgassoc</text>
</a>
</g>
</g>
<!-- r&#45;cpgassoc&#45;&gt;conda&#45;forge&#45;pinning -->
<g id="edge60" class="edge">
<title>r&#45;cpgassoc&#45;&gt;conda&#45;forge&#45;pinning</title>
<path fill="none" stroke="black" d="M2266.4,-359.95C2266.4,-333.29 2266.4,-280.11 2266.4,-235 2266.4,-235 2266.4,-235 2266.4,-161 2266.4,-105.99 2230.45,-94.82 2180.4,-72 2101.99,-36.24 1542.81,-24.04 1298.8,-20.39"/>
<polygon fill="black" stroke="black" points="1298.54,-16.88 1288.49,-20.23 1298.43,-23.88 1298.54,-16.88"/>
</g>
<!-- r&#45;pkgcond -->
<g id="node36" class="node">
<title>r&#45;pkgcond</title>
<g id="a_node36"><a xlink:href="https://github.com/conda-forge/r-pkgcond-feedstock/pull/1" xlink:title="r pkgcond">
<ellipse fill="#31688e" stroke="black" cx="2349.4" cy="-90" rx="54.69" ry="18"/>
<text text-anchor="middle" x="2349.4" y="-86.3" font-family="Times,serif" font-size="14.00" fill="white">r pkgcond</text>
</a>
</g>
</g>
<!-- r&#45;pkgcond&#45;&gt;conda&#45;forge&#45;pinning -->
<g id="edge61" class="edge">
<title>r&#45;pkgcond&#45;&gt;conda&#45;forge&#45;pinning</title>
<path fill="none" stroke="black" d="M2309.16,-77.7C2299.79,-75.46 2289.8,-73.37 2280.4,-72 2093.34,-44.69 1537.26,-27.85 1297.49,-21.68"/>
<polygon fill="black" stroke="black" points="1297.44,-18.17 1287.35,-21.42 1297.26,-25.17 1297.44,-18.17"/>
</g>
</g>
</svg>
