<?xml version="1.0" encoding="UTF-8" standalone="no"?>
<!DOCTYPE svg PUBLIC "-//W3C//DTD SVG 1.1//EN"
 "http://www.w3.org/Graphics/SVG/1.1/DTD/svg11.dtd">
<!-- Generated by graphviz version 2.42.3 (20191010.1750)
 -->
<!-- Title: %3 Pages: 1 -->
<svg width="3111pt" height="476pt"
 viewBox="0.00 0.00 3110.59 476.00" xmlns="http://www.w3.org/2000/svg" xmlns:xlink="http://www.w3.org/1999/xlink">
<g id="graph0" class="graph" transform="scale(1 1) rotate(0) translate(4 472)">
<title>%3</title>
<polygon fill="white" stroke="transparent" points="-4,4 -4,-472 3106.59,-472 3106.59,4 -4,4"/>
<!-- r&#45;ahocorasicktrie -->
<g id="node1" class="node">
<title>r&#45;ahocorasicktrie</title>
<g id="a_node1"><a xlink:href="https://github.com/conda-forge/r-ahocorasicktrie-feedstock" xlink:title="r ahocorasicktrie">
<ellipse fill="#35b779" stroke="black" cx="93.59" cy="-90" rx="93.68" ry="18"/>
<text text-anchor="middle" x="93.59" y="-86.3" font-family="Times,serif" font-size="14.00">r ahocorasicktrie</text>
</a>
</g>
</g>
<!-- conda&#45;forge&#45;pinning -->
<g id="node2" class="node">
<title>conda&#45;forge&#45;pinning</title>
<ellipse fill="none" stroke="black" cx="1538.59" cy="-18" rx="103.5" ry="18"/>
<text text-anchor="middle" x="1538.59" y="-14.3" font-family="Times,serif" font-size="14.00">conda&#45;forge&#45;pinning</text>
</g>
<!-- r&#45;ahocorasicktrie&#45;&gt;conda&#45;forge&#45;pinning -->
<g id="edge1" class="edge">
<title>r&#45;ahocorasicktrie&#45;&gt;conda&#45;forge&#45;pinning</title>
<path fill="none" stroke="black" d="M159.98,-77.3C173.7,-75.24 188.09,-73.33 201.59,-72 653.21,-27.66 1194.1,-20.13 1425.05,-19.05"/>
<polygon fill="black" stroke="black" points="1425.16,-22.55 1435.15,-19 1425.13,-15.55 1425.16,-22.55"/>
</g>
<!-- r&#45;akima -->
<g id="node3" class="node">
<title>r&#45;akima</title>
<g id="a_node3"><a xlink:href="https://github.com/conda-forge/r-akima-feedstock" xlink:title="r akima">
<ellipse fill="#35b779" stroke="black" cx="215.59" cy="-162" rx="45" ry="18"/>
<text text-anchor="middle" x="215.59" y="-158.3" font-family="Times,serif" font-size="14.00">r akima</text>
</a>
</g>
</g>
<!-- r&#45;akima&#45;&gt;conda&#45;forge&#45;pinning -->
<g id="edge2" class="edge">
<title>r&#45;akima&#45;&gt;conda&#45;forge&#45;pinning</title>
<path fill="none" stroke="black" d="M219.05,-143.74C224.27,-122.73 236.37,-88.08 261.59,-72 310.24,-40.98 1122.95,-25.38 1425.93,-20.62"/>
<polygon fill="black" stroke="black" points="1426.11,-24.12 1436.05,-20.46 1426,-17.12 1426.11,-24.12"/>
</g>
<!-- r&#45;fst -->
<g id="node4" class="node">
<title>r&#45;fst</title>
<g id="a_node4"><a xlink:href="https://github.com/conda-forge/r-fst-feedstock/pull/11" xlink:title="r fst">
<ellipse fill="#31688e" stroke="black" cx="332.59" cy="-162" rx="35.19" ry="18"/>
<text text-anchor="middle" x="332.59" y="-158.3" font-family="Times,serif" font-size="14.00" fill="white">r fst</text>
</a>
</g>
</g>
<!-- r&#45;fst&#45;&gt;conda&#45;forge&#45;pinning -->
<g id="edge3" class="edge">
<title>r&#45;fst&#45;&gt;conda&#45;forge&#45;pinning</title>
<path fill="none" stroke="black" d="M312.03,-147.29C286.76,-128.86 249.89,-95.67 272.59,-72 312.15,-30.75 1121.85,-21.55 1425.18,-19.54"/>
<polygon fill="black" stroke="black" points="1425.34,-23.04 1435.32,-19.48 1425.29,-16.04 1425.34,-23.04"/>
</g>
<!-- r&#45;disk.frame -->
<g id="node5" class="node">
<title>r&#45;disk.frame</title>
<g id="a_node5"><a xlink:href="https://github.com/conda-forge/r-disk.frame-feedstock" xlink:title="r disk frame">
<ellipse fill="#fde725" stroke="black" cx="351.59" cy="-90" rx="69.59" ry="18"/>
<text text-anchor="middle" x="351.59" y="-86.3" font-family="Times,serif" font-size="14.00">r disk frame</text>
</a>
</g>
</g>
<!-- r&#45;fst&#45;&gt;r&#45;disk.frame -->
<g id="edge4" class="edge">
<title>r&#45;fst&#45;&gt;r&#45;disk.frame</title>
<path fill="none" stroke="black" d="M337.19,-144.05C339.31,-136.26 341.87,-126.82 344.24,-118.08"/>
<polygon fill="black" stroke="black" points="347.66,-118.84 346.9,-108.28 340.91,-117.01 347.66,-118.84"/>
</g>
<!-- r&#45;disk.frame&#45;&gt;conda&#45;forge&#45;pinning -->
<g id="edge5" class="edge">
<title>r&#45;disk.frame&#45;&gt;conda&#45;forge&#45;pinning</title>
<path fill="none" stroke="black" d="M402.03,-77.5C413.04,-75.35 424.67,-73.36 435.59,-72 794.85,-27.28 1224.28,-19.7 1424.87,-18.8"/>
<polygon fill="black" stroke="black" points="1425.13,-22.29 1435.12,-18.75 1425.11,-15.29 1425.13,-22.29"/>
</g>
<!-- r&#45;hive -->
<g id="node6" class="node">
<title>r&#45;hive</title>
<g id="a_node6"><a xlink:href="https://github.com/conda-forge/r-hive-feedstock" xlink:title="r hive">
<ellipse fill="#fde725" stroke="black" cx="1556.59" cy="-234" rx="40.5" ry="18"/>
<text text-anchor="middle" x="1556.59" y="-230.3" font-family="Times,serif" font-size="14.00">r hive</text>
</a>
</g>
</g>
<!-- r&#45;hive&#45;&gt;conda&#45;forge&#45;pinning -->
<g id="edge6" class="edge">
<title>r&#45;hive&#45;&gt;conda&#45;forge&#45;pinning</title>
<path fill="none" stroke="black" d="M1536.2,-218.31C1524.85,-208.82 1511.8,-195.4 1505.59,-180 1487.65,-135.48 1492.4,-118.15 1505.59,-72 1508.35,-62.36 1513.42,-52.76 1518.78,-44.44"/>
<polygon fill="black" stroke="black" points="1521.83,-46.19 1524.61,-35.96 1516.06,-42.22 1521.83,-46.19"/>
</g>
<!-- r&#45;rjava -->
<g id="node7" class="node">
<title>r&#45;rjava</title>
<g id="a_node7"><a xlink:href="https://github.com/conda-forge/r-rjava-feedstock" xlink:title="r rjava">
<ellipse fill="#35b779" stroke="black" cx="1011.59" cy="-450" rx="45" ry="18"/>
<text text-anchor="middle" x="1011.59" y="-446.3" font-family="Times,serif" font-size="14.00">r rjava</text>
</a>
</g>
</g>
<!-- r&#45;rjava&#45;&gt;conda&#45;forge&#45;pinning -->
<g id="edge7" class="edge">
<title>r&#45;rjava&#45;&gt;conda&#45;forge&#45;pinning</title>
<path fill="none" stroke="black" d="M1056.23,-447.27C1127.78,-443.45 1263.09,-431.59 1292.59,-396 1343.65,-334.41 1273.57,-293.71 1292.59,-216 1309.75,-145.91 1312.2,-118.24 1367.59,-72 1390.86,-52.58 1421.21,-40.26 1449.87,-32.46"/>
<polygon fill="black" stroke="black" points="1451.1,-35.76 1459.92,-29.88 1449.36,-28.97 1451.1,-35.76"/>
</g>
<!-- r&#45;rjava&#45;&gt;r&#45;hive -->
<g id="edge8" class="edge">
<title>r&#45;rjava&#45;&gt;r&#45;hive</title>
<path fill="none" stroke="black" d="M1056.34,-447.79C1178.47,-444.03 1510.74,-430.7 1544.59,-396 1579.15,-360.57 1571.75,-297.43 1563.82,-261.65"/>
<polygon fill="black" stroke="black" points="1567.23,-260.82 1561.5,-251.91 1560.42,-262.45 1567.23,-260.82"/>
</g>
<!-- r&#45;xlsx -->
<g id="node8" class="node">
<title>r&#45;xlsx</title>
<g id="a_node8"><a xlink:href="https://github.com/conda-forge/r-xlsx-feedstock" xlink:title="r xlsx">
<ellipse fill="#fde725" stroke="black" cx="1418.59" cy="-306" rx="40.5" ry="18"/>
<text text-anchor="middle" x="1418.59" y="-302.3" font-family="Times,serif" font-size="14.00">r xlsx</text>
</a>
</g>
</g>
<!-- r&#45;rjava&#45;&gt;r&#45;xlsx -->
<g id="edge9" class="edge">
<title>r&#45;rjava&#45;&gt;r&#45;xlsx</title>
<path fill="none" stroke="black" d="M1056.01,-446.92C1139.03,-442.29 1313.82,-428.85 1363.59,-396 1386,-381.21 1400.87,-353.83 1409.43,-333.33"/>
<polygon fill="black" stroke="black" points="1412.74,-334.49 1413.14,-323.9 1406.22,-331.93 1412.74,-334.49"/>
</g>
<!-- r&#45;xlsxjars -->
<g id="node9" class="node">
<title>r&#45;xlsxjars</title>
<g id="a_node9"><a xlink:href="https://github.com/conda-forge/r-xlsxjars-feedstock" xlink:title="r xlsxjars">
<ellipse fill="#fde725" stroke="black" cx="1475.59" cy="-378" rx="60" ry="18"/>
<text text-anchor="middle" x="1475.59" y="-374.3" font-family="Times,serif" font-size="14.00">r xlsxjars</text>
</a>
</g>
</g>
<!-- r&#45;rjava&#45;&gt;r&#45;xlsxjars -->
<g id="edge10" class="edge">
<title>r&#45;rjava&#45;&gt;r&#45;xlsxjars</title>
<path fill="none" stroke="black" d="M1054.5,-444.46C1126.53,-436.55 1276.22,-418.87 1401.59,-396 1407.8,-394.87 1414.28,-393.56 1420.71,-392.19"/>
<polygon fill="black" stroke="black" points="1421.71,-395.56 1430.72,-389.99 1420.21,-388.72 1421.71,-395.56"/>
</g>
<!-- r&#45;xlconnectjars -->
<g id="node10" class="node">
<title>r&#45;xlconnectjars</title>
<g id="a_node10"><a xlink:href="https://github.com/conda-forge/r-xlconnectjars-feedstock" xlink:title="r xlconnectjars">
<ellipse fill="#fde725" stroke="black" cx="533.59" cy="-378" rx="84" ry="18"/>
<text text-anchor="middle" x="533.59" y="-374.3" font-family="Times,serif" font-size="14.00">r xlconnectjars</text>
</a>
</g>
</g>
<!-- r&#45;rjava&#45;&gt;r&#45;xlconnectjars -->
<g id="edge11" class="edge">
<title>r&#45;rjava&#45;&gt;r&#45;xlconnectjars</title>
<path fill="none" stroke="black" d="M969.35,-443.57C899.13,-434.45 754,-415.15 631.59,-396 623.31,-394.71 614.66,-393.29 606.06,-391.85"/>
<polygon fill="black" stroke="black" points="606.46,-388.37 596.01,-390.15 605.29,-395.27 606.46,-388.37"/>
</g>
<!-- r&#45;xlconnect -->
<g id="node11" class="node">
<title>r&#45;xlconnect</title>
<g id="a_node11"><a xlink:href="https://github.com/conda-forge/r-xlconnect-feedstock" xlink:title="r xlconnect">
<ellipse fill="#fde725" stroke="black" cx="542.59" cy="-306" rx="64.5" ry="18"/>
<text text-anchor="middle" x="542.59" y="-302.3" font-family="Times,serif" font-size="14.00">r xlconnect</text>
</a>
</g>
</g>
<!-- r&#45;rjava&#45;&gt;r&#45;xlconnect -->
<g id="edge12" class="edge">
<title>r&#45;rjava&#45;&gt;r&#45;xlconnect</title>
<path fill="none" stroke="black" d="M967.86,-445.59C886.94,-438.76 717.28,-421.78 664.59,-396 643.69,-385.78 644.96,-374.28 626.59,-360 611.57,-348.32 593.89,-336.87 578.64,-327.61"/>
<polygon fill="black" stroke="black" points="580.35,-324.56 569.97,-322.43 576.76,-330.56 580.35,-324.56"/>
</g>
<!-- r&#45;rcdklibs -->
<g id="node12" class="node">
<title>r&#45;rcdklibs</title>
<g id="a_node12"><a xlink:href="https://github.com/conda-forge/r-rcdklibs-feedstock" xlink:title="r rcdklibs">
<ellipse fill="#fde725" stroke="black" cx="733.59" cy="-378" rx="60" ry="18"/>
<text text-anchor="middle" x="733.59" y="-374.3" font-family="Times,serif" font-size="14.00">r rcdklibs</text>
</a>
</g>
</g>
<!-- r&#45;rjava&#45;&gt;r&#45;rcdklibs -->
<g id="edge13" class="edge">
<title>r&#45;rjava&#45;&gt;r&#45;rcdklibs</title>
<path fill="none" stroke="black" d="M974.68,-439.7C926.84,-427.66 843.07,-406.57 787.96,-392.69"/>
<polygon fill="black" stroke="black" points="788.57,-389.23 778.02,-390.19 786.86,-396.02 788.57,-389.23"/>
</g>
<!-- r&#45;rcdk -->
<g id="node13" class="node">
<title>r&#45;rcdk</title>
<g id="a_node13"><a xlink:href="https://github.com/conda-forge/r-rcdk-feedstock" xlink:title="r rcdk">
<ellipse fill="#fde725" stroke="black" cx="733.59" cy="-306" rx="40.5" ry="18"/>
<text text-anchor="middle" x="733.59" y="-302.3" font-family="Times,serif" font-size="14.00">r rcdk</text>
</a>
</g>
</g>
<!-- r&#45;rjava&#45;&gt;r&#45;rcdk -->
<g id="edge14" class="edge">
<title>r&#45;rjava&#45;&gt;r&#45;rcdk</title>
<path fill="none" stroke="black" d="M972.29,-441C937.52,-432.89 886.14,-418.31 845.59,-396 823.75,-383.98 822.03,-375.59 802.59,-360 789.28,-349.33 774.29,-337.76 761.69,-328.16"/>
<polygon fill="black" stroke="black" points="763.47,-325.12 753.39,-321.86 759.24,-330.69 763.47,-325.12"/>
</g>
<!-- r&#45;rchoicedialogs -->
<g id="node14" class="node">
<title>r&#45;rchoicedialogs</title>
<g id="a_node14"><a xlink:href="https://github.com/conda-forge/r-rchoicedialogs-feedstock" xlink:title="r rchoicedialogs">
<ellipse fill="#fde725" stroke="black" cx="680.59" cy="-234" rx="89.08" ry="18"/>
<text text-anchor="middle" x="680.59" y="-230.3" font-family="Times,serif" font-size="14.00">r rchoicedialogs</text>
</a>
</g>
</g>
<!-- r&#45;rjava&#45;&gt;r&#45;rchoicedialogs -->
<g id="edge15" class="edge">
<title>r&#45;rjava&#45;&gt;r&#45;rchoicedialogs</title>
<path fill="none" stroke="black" d="M980.43,-436.84C957.67,-427.29 926.55,-412.82 901.59,-396 842.36,-356.09 841.21,-328.8 782.59,-288 764.66,-275.52 743.4,-264.01 724.95,-254.94"/>
<polygon fill="black" stroke="black" points="726.4,-251.75 715.87,-250.55 723.35,-258.05 726.4,-251.75"/>
</g>
<!-- r&#45;rwekajars -->
<g id="node15" class="node">
<title>r&#45;rwekajars</title>
<g id="a_node15"><a xlink:href="https://github.com/conda-forge/r-rwekajars-feedstock" xlink:title="r rwekajars">
<ellipse fill="#fde725" stroke="black" cx="852.59" cy="-234" rx="64.5" ry="18"/>
<text text-anchor="middle" x="852.59" y="-230.3" font-family="Times,serif" font-size="14.00">r rwekajars</text>
</a>
</g>
</g>
<!-- r&#45;rjava&#45;&gt;r&#45;rwekajars -->
<g id="edge16" class="edge">
<title>r&#45;rjava&#45;&gt;r&#45;rwekajars</title>
<path fill="none" stroke="black" d="M980.69,-436.79C961.55,-427.91 937.65,-414.24 921.59,-396 916.85,-390.61 881.6,-305.67 863.4,-261.4"/>
<polygon fill="black" stroke="black" points="866.62,-260.02 859.58,-252.1 860.14,-262.68 866.62,-260.02"/>
</g>
<!-- r&#45;rweka -->
<g id="node16" class="node">
<title>r&#45;rweka</title>
<g id="a_node16"><a xlink:href="https://github.com/conda-forge/r-rweka-feedstock" xlink:title="r rweka">
<ellipse fill="#fde725" stroke="black" cx="911.59" cy="-162" rx="45" ry="18"/>
<text text-anchor="middle" x="911.59" y="-158.3" font-family="Times,serif" font-size="14.00">r rweka</text>
</a>
</g>
</g>
<!-- r&#45;rjava&#45;&gt;r&#45;rweka -->
<g id="edge17" class="edge">
<title>r&#45;rjava&#45;&gt;r&#45;rweka</title>
<path fill="none" stroke="black" d="M1003.74,-431.98C999.1,-421.66 993.24,-408.18 988.59,-396 960.49,-322.29 932.76,-233.32 919.56,-189.72"/>
<polygon fill="black" stroke="black" points="922.91,-188.71 916.68,-180.14 916.21,-190.73 922.91,-188.71"/>
</g>
<!-- r&#45;subspace -->
<g id="node17" class="node">
<title>r&#45;subspace</title>
<g id="a_node17"><a xlink:href="https://github.com/conda-forge/r-subspace-feedstock" xlink:title="r subspace">
<ellipse fill="#fde725" stroke="black" cx="1033.59" cy="-234" rx="60" ry="18"/>
<text text-anchor="middle" x="1033.59" y="-230.3" font-family="Times,serif" font-size="14.00">r subspace</text>
</a>
</g>
</g>
<!-- r&#45;rjava&#45;&gt;r&#45;subspace -->
<g id="edge18" class="edge">
<title>r&#45;rjava&#45;&gt;r&#45;subspace</title>
<path fill="none" stroke="black" d="M1006.01,-432.1C997.06,-402.29 982.01,-338.69 997.59,-288 1000.65,-278.06 1006.28,-268.31 1012.19,-259.93"/>
<polygon fill="black" stroke="black" points="1015.13,-261.85 1018.36,-251.76 1009.54,-257.63 1015.13,-261.85"/>
</g>
<!-- r&#45;rmcfs -->
<g id="node18" class="node">
<title>r&#45;rmcfs</title>
<g id="a_node18"><a xlink:href="https://github.com/conda-forge/r-rmcfs-feedstock" xlink:title="r rmcfs">
<ellipse fill="#fde725" stroke="black" cx="1086.59" cy="-162" rx="45" ry="18"/>
<text text-anchor="middle" x="1086.59" y="-158.3" font-family="Times,serif" font-size="14.00">r rmcfs</text>
</a>
</g>
</g>
<!-- r&#45;rjava&#45;&gt;r&#45;rmcfs -->
<g id="edge19" class="edge">
<title>r&#45;rjava&#45;&gt;r&#45;rmcfs</title>
<path fill="none" stroke="black" d="M1009.44,-431.67C1006.47,-400.04 1004.54,-332.15 1035.59,-288 1055.04,-260.35 1085.24,-281.01 1102.59,-252 1114.05,-232.84 1107.84,-207.5 1100.06,-188.76"/>
<polygon fill="black" stroke="black" points="1103.24,-187.3 1095.93,-179.63 1096.86,-190.19 1103.24,-187.3"/>
</g>
<!-- r&#45;rjdbc -->
<g id="node19" class="node">
<title>r&#45;rjdbc</title>
<g id="a_node19"><a xlink:href="https://github.com/conda-forge/r-rjdbc-feedstock" xlink:title="r rjdbc">
<ellipse fill="#fde725" stroke="black" cx="1124.59" cy="-90" rx="45" ry="18"/>
<text text-anchor="middle" x="1124.59" y="-86.3" font-family="Times,serif" font-size="14.00">r rjdbc</text>
</a>
</g>
</g>
<!-- r&#45;rjava&#45;&gt;r&#45;rjdbc -->
<g id="edge20" class="edge">
<title>r&#45;rjava&#45;&gt;r&#45;rjdbc</title>
<path fill="none" stroke="black" d="M1016.22,-431.82C1026.29,-395.3 1050.72,-311.38 1068.59,-288 1085.66,-265.67 1104.3,-274.91 1120.59,-252 1139.84,-224.93 1136.11,-212.91 1140.59,-180 1142.75,-164.15 1142.93,-159.83 1140.59,-144 1139.29,-135.21 1136.85,-125.86 1134.25,-117.5"/>
<polygon fill="black" stroke="black" points="1137.54,-116.29 1131.08,-107.9 1130.89,-118.49 1137.54,-116.29"/>
</g>
<!-- r&#45;tabulizer -->
<g id="node20" class="node">
<title>r&#45;tabulizer</title>
<g id="a_node20"><a xlink:href="https://github.com/conda-forge/r-tabulizer-feedstock" xlink:title="r tabulizer">
<ellipse fill="#fde725" stroke="black" cx="1142.59" cy="-306" rx="64.5" ry="18"/>
<text text-anchor="middle" x="1142.59" y="-302.3" font-family="Times,serif" font-size="14.00">r tabulizer</text>
</a>
</g>
</g>
<!-- r&#45;rjava&#45;&gt;r&#45;tabulizer -->
<g id="edge21" class="edge">
<title>r&#45;rjava&#45;&gt;r&#45;tabulizer</title>
<path fill="none" stroke="black" d="M1027.73,-432.97C1038.11,-422.56 1051.81,-408.63 1063.59,-396 1083.64,-374.52 1105.79,-349.44 1121.53,-331.39"/>
<polygon fill="black" stroke="black" points="1124.35,-333.47 1128.27,-323.62 1119.07,-328.88 1124.35,-333.47"/>
</g>
<!-- r&#45;tabulizerjars -->
<g id="node21" class="node">
<title>r&#45;tabulizerjars</title>
<g id="a_node21"><a xlink:href="https://github.com/conda-forge/r-tabulizerjars-feedstock" xlink:title="r tabulizerjars">
<ellipse fill="#fde725" stroke="black" cx="1199.59" cy="-378" rx="84" ry="18"/>
<text text-anchor="middle" x="1199.59" y="-374.3" font-family="Times,serif" font-size="14.00">r tabulizerjars</text>
</a>
</g>
</g>
<!-- r&#45;rjava&#45;&gt;r&#45;tabulizerjars -->
<g id="edge22" class="edge">
<title>r&#45;rjava&#45;&gt;r&#45;tabulizerjars</title>
<path fill="none" stroke="black" d="M1043.48,-437.13C1072.66,-426.26 1116.29,-410.02 1150.01,-397.46"/>
<polygon fill="black" stroke="black" points="1151.53,-400.63 1159.68,-393.86 1149.09,-394.07 1151.53,-400.63"/>
</g>
<!-- r&#45;destinie -->
<g id="node22" class="node">
<title>r&#45;destinie</title>
<g id="a_node22"><a xlink:href="https://github.com/conda-forge/r-destinie-feedstock" xlink:title="r destinie">
<ellipse fill="#fde725" stroke="black" cx="1361.59" cy="-234" rx="60" ry="18"/>
<text text-anchor="middle" x="1361.59" y="-230.3" font-family="Times,serif" font-size="14.00">r destinie</text>
</a>
</g>
</g>
<!-- r&#45;rjava&#45;&gt;r&#45;destinie -->
<g id="edge23" class="edge">
<title>r&#45;rjava&#45;&gt;r&#45;destinie</title>
<path fill="none" stroke="black" d="M1056.15,-447.44C1133.39,-443.8 1287.54,-432.1 1325.59,-396 1362.13,-361.35 1365.46,-298.35 1363.96,-262.29"/>
<polygon fill="black" stroke="black" points="1367.44,-261.81 1363.37,-252.03 1360.45,-262.21 1367.44,-261.81"/>
</g>
<!-- r&#45;xlsx&#45;&gt;conda&#45;forge&#45;pinning -->
<g id="edge24" class="edge">
<title>r&#45;xlsx&#45;&gt;conda&#45;forge&#45;pinning</title>
<path fill="none" stroke="black" d="M1423.46,-287.98C1426.16,-277.67 1429.23,-264.19 1430.59,-252 1439.48,-172.49 1387.16,-139.82 1429.59,-72 1439.43,-56.27 1455.43,-45.09 1472.16,-37.19"/>
<polygon fill="black" stroke="black" points="1473.73,-40.33 1481.51,-33.13 1470.94,-33.91 1473.73,-40.33"/>
</g>
<!-- r&#45;xlsx&#45;&gt;r&#45;destinie -->
<g id="edge25" class="edge">
<title>r&#45;xlsx&#45;&gt;r&#45;destinie</title>
<path fill="none" stroke="black" d="M1405.37,-288.76C1398.28,-280.06 1389.4,-269.15 1381.49,-259.43"/>
<polygon fill="black" stroke="black" points="1384.16,-257.18 1375.14,-251.63 1378.74,-261.6 1384.16,-257.18"/>
</g>
<!-- r&#45;xlsxjars&#45;&gt;conda&#45;forge&#45;pinning -->
<g id="edge26" class="edge">
<title>r&#45;xlsxjars&#45;&gt;conda&#45;forge&#45;pinning</title>
<path fill="none" stroke="black" d="M1475.1,-359.71C1473.73,-303.22 1471.22,-124.71 1492.59,-72 1496.82,-61.56 1504,-51.75 1511.44,-43.47"/>
<polygon fill="black" stroke="black" points="1514.17,-45.68 1518.57,-36.04 1509.12,-40.84 1514.17,-45.68"/>
</g>
<!-- r&#45;xlsxjars&#45;&gt;r&#45;xlsx -->
<g id="edge27" class="edge">
<title>r&#45;xlsxjars&#45;&gt;r&#45;xlsx</title>
<path fill="none" stroke="black" d="M1462.08,-360.41C1455.06,-351.78 1446.33,-341.06 1438.54,-331.5"/>
<polygon fill="black" stroke="black" points="1441.03,-329.01 1432,-323.47 1435.6,-333.43 1441.03,-329.01"/>
</g>
<!-- r&#45;xlconnectjars&#45;&gt;conda&#45;forge&#45;pinning -->
<g id="edge28" class="edge">
<title>r&#45;xlconnectjars&#45;&gt;conda&#45;forge&#45;pinning</title>
<path fill="none" stroke="black" d="M506.09,-360.87C492.8,-351.7 477.78,-339.03 468.59,-324 447.5,-289.49 449.59,-275.45 449.59,-235 449.59,-235 449.59,-235 449.59,-161 449.59,-118.5 450.08,-96.81 484.59,-72 522.33,-44.88 1162.44,-27.45 1426.29,-21.39"/>
<polygon fill="black" stroke="black" points="1426.74,-24.88 1436.66,-21.16 1426.58,-17.89 1426.74,-24.88"/>
</g>
<!-- r&#45;xlconnectjars&#45;&gt;r&#45;xlconnect -->
<g id="edge29" class="edge">
<title>r&#45;xlconnectjars&#45;&gt;r&#45;xlconnect</title>
<path fill="none" stroke="black" d="M535.82,-359.7C536.81,-351.98 538,-342.71 539.11,-334.11"/>
<polygon fill="black" stroke="black" points="542.59,-334.47 540.39,-324.1 535.65,-333.58 542.59,-334.47"/>
</g>
<!-- r&#45;xlconnect&#45;&gt;conda&#45;forge&#45;pinning -->
<g id="edge30" class="edge">
<title>r&#45;xlconnect&#45;&gt;conda&#45;forge&#45;pinning</title>
<path fill="none" stroke="black" d="M529.45,-287.91C522.67,-278.01 515.1,-264.96 511.59,-252 490.67,-174.78 456.5,-130.01 511.59,-72 542.66,-39.28 1165.19,-25.19 1425.6,-20.7"/>
<polygon fill="black" stroke="black" points="1425.9,-24.2 1435.84,-20.53 1425.78,-17.2 1425.9,-24.2"/>
</g>
<!-- r&#45;rcdklibs&#45;&gt;conda&#45;forge&#45;pinning -->
<g id="edge31" class="edge">
<title>r&#45;rcdklibs&#45;&gt;conda&#45;forge&#45;pinning</title>
<path fill="none" stroke="black" d="M713.54,-360.99C690.38,-342.72 650.94,-312.23 615.59,-288 590.57,-270.85 574.13,-277.43 557.59,-252 531.31,-211.59 524.49,-186.31 547.59,-144 575.95,-92.06 603.34,-90.38 659.59,-72 798.48,-26.62 1220.02,-19.46 1424.68,-18.74"/>
<polygon fill="black" stroke="black" points="1424.87,-22.24 1434.86,-18.71 1424.85,-15.24 1424.87,-22.24"/>
</g>
<!-- r&#45;rcdklibs&#45;&gt;r&#45;rcdk -->
<g id="edge32" class="edge">
<title>r&#45;rcdklibs&#45;&gt;r&#45;rcdk</title>
<path fill="none" stroke="black" d="M733.59,-359.7C733.59,-351.98 733.59,-342.71 733.59,-334.11"/>
<polygon fill="black" stroke="black" points="737.09,-334.1 733.59,-324.1 730.09,-334.1 737.09,-334.1"/>
</g>
<!-- r&#45;rcdk&#45;&gt;conda&#45;forge&#45;pinning -->
<g id="edge33" class="edge">
<title>r&#45;rcdk&#45;&gt;conda&#45;forge&#45;pinning</title>
<path fill="none" stroke="black" d="M697.83,-297.43C657.63,-288.12 596.17,-271.15 582.59,-252 512.83,-153.58 554.37,-151.84 746.59,-72 807.8,-46.58 1224.27,-29.43 1427.49,-22.48"/>
<polygon fill="black" stroke="black" points="1427.73,-25.98 1437.6,-22.14 1427.49,-18.98 1427.73,-25.98"/>
</g>
<!-- r&#45;rchoicedialogs&#45;&gt;conda&#45;forge&#45;pinning -->
<g id="edge34" class="edge">
<title>r&#45;rchoicedialogs&#45;&gt;conda&#45;forge&#45;pinning</title>
<path fill="none" stroke="black" d="M686.5,-215.79C699.31,-181.47 733.19,-104.95 790.59,-72 844.31,-41.16 1231.56,-26.88 1426.74,-21.59"/>
<polygon fill="black" stroke="black" points="1426.84,-25.09 1436.75,-21.32 1426.66,-18.09 1426.84,-25.09"/>
</g>
<!-- r&#45;rwekajars&#45;&gt;conda&#45;forge&#45;pinning -->
<g id="edge35" class="edge">
<title>r&#45;rwekajars&#45;&gt;conda&#45;forge&#45;pinning</title>
<path fill="none" stroke="black" d="M838.99,-215.99C814.85,-183.66 770.51,-112.95 808.59,-72 849.59,-27.92 1229.83,-20.06 1424.66,-18.95"/>
<polygon fill="black" stroke="black" points="1424.95,-22.45 1434.93,-18.89 1424.92,-15.45 1424.95,-22.45"/>
</g>
<!-- r&#45;rwekajars&#45;&gt;r&#45;rweka -->
<g id="edge36" class="edge">
<title>r&#45;rwekajars&#45;&gt;r&#45;rweka</title>
<path fill="none" stroke="black" d="M866.57,-216.41C873.92,-207.69 883.06,-196.85 891.19,-187.21"/>
<polygon fill="black" stroke="black" points="893.94,-189.37 897.71,-179.47 888.59,-184.86 893.94,-189.37"/>
</g>
<!-- r&#45;rweka&#45;&gt;conda&#45;forge&#45;pinning -->
<g id="edge37" class="edge">
<title>r&#45;rweka&#45;&gt;conda&#45;forge&#45;pinning</title>
<path fill="none" stroke="black" d="M925.25,-144.74C945.2,-121.45 981.84,-80.46 999.59,-72 1072.63,-37.21 1290.99,-25.24 1426.32,-21.14"/>
<polygon fill="black" stroke="black" points="1426.43,-24.64 1436.32,-20.84 1426.22,-17.64 1426.43,-24.64"/>
</g>
<!-- r&#45;fselector -->
<g id="node23" class="node">
<title>r&#45;fselector</title>
<g id="a_node23"><a xlink:href="https://github.com/conda-forge/r-fselector-feedstock" xlink:title="r fselector">
<ellipse fill="#fde725" stroke="black" cx="882.59" cy="-90" rx="64.5" ry="18"/>
<text text-anchor="middle" x="882.59" y="-86.3" font-family="Times,serif" font-size="14.00">r fselector</text>
</a>
</g>
</g>
<!-- r&#45;rweka&#45;&gt;r&#45;fselector -->
<g id="edge38" class="edge">
<title>r&#45;rweka&#45;&gt;r&#45;fselector</title>
<path fill="none" stroke="black" d="M904.57,-144.05C901.31,-136.18 897.35,-126.62 893.69,-117.79"/>
<polygon fill="black" stroke="black" points="896.81,-116.17 889.75,-108.28 890.34,-118.85 896.81,-116.17"/>
</g>
<!-- r&#45;subspace&#45;&gt;conda&#45;forge&#45;pinning -->
<g id="edge39" class="edge">
<title>r&#45;subspace&#45;&gt;conda&#45;forge&#45;pinning</title>
<path fill="none" stroke="black" d="M1029.84,-216.01C1023.48,-182.07 1015.15,-106.22 1058.59,-72 1087.24,-49.44 1298.62,-33.07 1431.14,-24.89"/>
<polygon fill="black" stroke="black" points="1431.57,-28.37 1441.33,-24.27 1431.14,-21.38 1431.57,-28.37"/>
</g>
<!-- r&#45;rmcfs&#45;&gt;conda&#45;forge&#45;pinning -->
<g id="edge40" class="edge">
<title>r&#45;rmcfs&#45;&gt;conda&#45;forge&#45;pinning</title>
<path fill="none" stroke="black" d="M1076.37,-144.36C1065.7,-124.62 1052.81,-91.91 1070.59,-72 1094.1,-45.68 1298.71,-30.76 1429.49,-23.83"/>
<polygon fill="black" stroke="black" points="1429.75,-27.32 1439.56,-23.3 1429.39,-20.33 1429.75,-27.32"/>
</g>
<!-- r&#45;rjdbc&#45;&gt;conda&#45;forge&#45;pinning -->
<g id="edge41" class="edge">
<title>r&#45;rjdbc&#45;&gt;conda&#45;forge&#45;pinning</title>
<path fill="none" stroke="black" d="M1159.03,-78.25C1167.04,-75.98 1175.57,-73.75 1183.59,-72 1271.11,-52.95 1372.27,-38.58 1444.16,-29.64"/>
<polygon fill="black" stroke="black" points="1444.6,-33.12 1454.1,-28.42 1443.75,-26.17 1444.6,-33.12"/>
</g>
<!-- r&#45;tabulizer&#45;&gt;conda&#45;forge&#45;pinning -->
<g id="edge42" class="edge">
<title>r&#45;tabulizer&#45;&gt;conda&#45;forge&#45;pinning</title>
<path fill="none" stroke="black" d="M1154.15,-287.95C1160.59,-277.84 1168.34,-264.59 1173.59,-252 1205.45,-175.58 1160.33,-127.7 1221.59,-72 1251.78,-44.55 1350.93,-31.17 1430.4,-24.74"/>
<polygon fill="black" stroke="black" points="1430.78,-28.22 1440.48,-23.95 1430.24,-21.24 1430.78,-28.22"/>
</g>
<!-- r&#45;tabulizerjars&#45;&gt;conda&#45;forge&#45;pinning -->
<g id="edge43" class="edge">
<title>r&#45;tabulizerjars&#45;&gt;conda&#45;forge&#45;pinning</title>
<path fill="none" stroke="black" d="M1206.88,-359.87C1217.4,-333.53 1235.59,-281.29 1235.59,-235 1235.59,-235 1235.59,-235 1235.59,-161 1235.59,-120.03 1229.55,-99.85 1259.59,-72 1285.09,-48.36 1367.2,-34.68 1435.79,-27.16"/>
<polygon fill="black" stroke="black" points="1436.23,-30.63 1445.81,-26.1 1435.49,-23.67 1436.23,-30.63"/>
</g>
<!-- r&#45;tabulizerjars&#45;&gt;r&#45;tabulizer -->
<g id="edge44" class="edge">
<title>r&#45;tabulizerjars&#45;&gt;r&#45;tabulizer</title>
<path fill="none" stroke="black" d="M1185.79,-360.05C1178.86,-351.54 1170.33,-341.07 1162.69,-331.68"/>
<polygon fill="black" stroke="black" points="1165.29,-329.33 1156.26,-323.79 1159.86,-333.75 1165.29,-329.33"/>
</g>
<!-- r&#45;destinie&#45;&gt;conda&#45;forge&#45;pinning -->
<g id="edge45" class="edge">
<title>r&#45;destinie&#45;&gt;conda&#45;forge&#45;pinning</title>
<path fill="none" stroke="black" d="M1359.65,-215.64C1357.04,-183.36 1356.24,-113.59 1391.59,-72 1407.5,-53.29 1430.54,-41.18 1453.67,-33.35"/>
<polygon fill="black" stroke="black" points="1454.73,-36.69 1463.22,-30.35 1452.64,-30.01 1454.73,-36.69"/>
</g>
<!-- r&#45;fselector&#45;&gt;conda&#45;forge&#45;pinning -->
<g id="edge58" class="edge">
<title>r&#45;fselector&#45;&gt;conda&#45;forge&#45;pinning</title>
<path fill="none" stroke="black" d="M930.46,-77.73C940.69,-75.6 951.47,-73.55 961.59,-72 1124.48,-47.09 1315.15,-32.36 1431.37,-24.98"/>
<polygon fill="black" stroke="black" points="1431.92,-28.45 1441.68,-24.33 1431.48,-21.46 1431.92,-28.45"/>
</g>
<!-- r&#45;taxizesoap -->
<g id="node24" class="node">
<title>r&#45;taxizesoap</title>
<g id="a_node24"><a xlink:href="https://github.com/conda-forge/r-taxizesoap-feedstock" xlink:title="r taxizesoap">
<ellipse fill="#35b779" stroke="black" cx="1684.59" cy="-234" rx="69.59" ry="18"/>
<text text-anchor="middle" x="1684.59" y="-230.3" font-family="Times,serif" font-size="14.00">r taxizesoap</text>
</a>
</g>
</g>
<!-- r&#45;taxizesoap&#45;&gt;conda&#45;forge&#45;pinning -->
<g id="edge46" class="edge">
<title>r&#45;taxizesoap&#45;&gt;conda&#45;forge&#45;pinning</title>
<path fill="none" stroke="black" d="M1642.62,-219.6C1621.86,-211.12 1597.83,-198.25 1581.59,-180 1548.13,-142.39 1540.29,-81.53 1538.7,-46.4"/>
<polygon fill="black" stroke="black" points="1542.2,-46.26 1538.39,-36.38 1535.2,-46.48 1542.2,-46.26"/>
</g>
<!-- rpy2 -->
<g id="node25" class="node">
<title>rpy2</title>
<g id="a_node25"><a xlink:href="https://github.com/conda-forge/rpy2-feedstock/pull/55" xlink:title="rpy2">
<ellipse fill="#31688e" stroke="black" cx="1621.59" cy="-162" rx="30.59" ry="18"/>
<text text-anchor="middle" x="1621.59" y="-158.3" font-family="Times,serif" font-size="14.00" fill="white">rpy2</text>
</a>
</g>
</g>
<!-- rpy2&#45;&gt;conda&#45;forge&#45;pinning -->
<g id="edge47" class="edge">
<title>rpy2&#45;&gt;conda&#45;forge&#45;pinning</title>
<path fill="none" stroke="black" d="M1606.5,-146.27C1596.75,-136.17 1584.31,-122.09 1575.59,-108 1563.46,-88.4 1553.67,-64.13 1547.22,-45.89"/>
<polygon fill="black" stroke="black" points="1550.44,-44.51 1543.9,-36.18 1543.82,-46.78 1550.44,-44.51"/>
</g>
<!-- iterativewgcna -->
<g id="node26" class="node">
<title>iterativewgcna</title>
<g id="a_node26"><a xlink:href="https://github.com/conda-forge/iterativewgcna-feedstock" xlink:title="iterativewgcna">
<ellipse fill="#fde725" stroke="black" cx="1664.59" cy="-90" rx="79.5" ry="18"/>
<text text-anchor="middle" x="1664.59" y="-86.3" font-family="Times,serif" font-size="14.00">iterativewgcna</text>
</a>
</g>
</g>
<!-- rpy2&#45;&gt;iterativewgcna -->
<g id="edge48" class="edge">
<title>rpy2&#45;&gt;iterativewgcna</title>
<path fill="none" stroke="black" d="M1631.56,-144.76C1636.68,-136.44 1643.03,-126.1 1648.79,-116.73"/>
<polygon fill="black" stroke="black" points="1651.82,-118.48 1654.07,-108.12 1645.86,-114.81 1651.82,-118.48"/>
</g>
<!-- iterativewgcna&#45;&gt;conda&#45;forge&#45;pinning -->
<g id="edge49" class="edge">
<title>iterativewgcna&#45;&gt;conda&#45;forge&#45;pinning</title>
<path fill="none" stroke="black" d="M1636,-73.12C1618.45,-63.37 1595.76,-50.76 1576.69,-40.17"/>
<polygon fill="black" stroke="black" points="1578.39,-37.1 1567.94,-35.31 1574.99,-43.22 1578.39,-37.1"/>
</g>
<!-- r&#45;rvaidememoire -->
<g id="node27" class="node">
<title>r&#45;rvaidememoire</title>
<g id="a_node27"><a xlink:href="https://github.com/conda-forge/r-rvaidememoire-feedstock" xlink:title="r rvaidememoire">
<ellipse fill="#35b779" stroke="black" cx="1708.59" cy="-306" rx="84" ry="18"/>
<text text-anchor="middle" x="1708.59" y="-302.3" font-family="Times,serif" font-size="14.00">r rvaidememoire</text>
</a>
</g>
</g>
<!-- r&#45;rvaidememoire&#45;&gt;conda&#45;forge&#45;pinning -->
<g id="edge50" class="edge">
<title>r&#45;rvaidememoire&#45;&gt;conda&#45;forge&#45;pinning</title>
<path fill="none" stroke="black" d="M1733.11,-288.65C1744.68,-279.41 1757.31,-266.77 1763.59,-252 1781.99,-208.72 1810.52,-140.47 1752.59,-72 1736.37,-52.82 1680.53,-39.38 1629.96,-30.83"/>
<polygon fill="black" stroke="black" points="1630.36,-27.35 1619.93,-29.18 1629.23,-34.26 1630.36,-27.35"/>
</g>
<!-- r -->
<g id="node28" class="node">
<title>r</title>
<g id="a_node28"><a xlink:href="https://github.com/conda-forge/r-feedstock" xlink:title="r">
<ellipse fill="#35b779" stroke="black" cx="1820.59" cy="-378" rx="27" ry="18"/>
<text text-anchor="middle" x="1820.59" y="-374.3" font-family="Times,serif" font-size="14.00">r</text>
</a>
</g>
</g>
<!-- r&#45;&gt;conda&#45;forge&#45;pinning -->
<g id="edge51" class="edge">
<title>r&#45;&gt;conda&#45;forge&#45;pinning</title>
<path fill="none" stroke="black" d="M1824.58,-359.98C1835.67,-307.96 1860.84,-149.95 1778.59,-72 1757.51,-52.02 1690.99,-38.3 1633.32,-29.84"/>
<polygon fill="black" stroke="black" points="1633.8,-26.37 1623.4,-28.42 1632.81,-33.3 1633.8,-26.37"/>
</g>
<!-- r&#45;essentials -->
<g id="node29" class="node">
<title>r&#45;essentials</title>
<g id="a_node29"><a xlink:href="https://github.com/conda-forge/r-essentials-feedstock" xlink:title="r essentials">
<ellipse fill="#35b779" stroke="black" cx="1907.59" cy="-90" rx="69.59" ry="18"/>
<text text-anchor="middle" x="1907.59" y="-86.3" font-family="Times,serif" font-size="14.00">r essentials</text>
</a>
</g>
</g>
<!-- r&#45;essentials&#45;&gt;conda&#45;forge&#45;pinning -->
<g id="edge52" class="edge">
<title>r&#45;essentials&#45;&gt;conda&#45;forge&#45;pinning</title>
<path fill="none" stroke="black" d="M1854.74,-78.17C1844.42,-76.09 1833.67,-73.96 1823.59,-72 1754.03,-58.49 1674.78,-43.81 1617.53,-33.33"/>
<polygon fill="black" stroke="black" points="1617.93,-29.85 1607.47,-31.49 1616.67,-36.74 1617.93,-29.85"/>
</g>
<!-- r&#45;hier.part -->
<g id="node30" class="node">
<title>r&#45;hier.part</title>
<g id="a_node30"><a xlink:href="https://github.com/conda-forge/r-hier.part-feedstock/pull/5" xlink:title="r hier part">
<ellipse fill="#31688e" stroke="black" cx="1950.59" cy="-162" rx="64.5" ry="18"/>
<text text-anchor="middle" x="1950.59" y="-158.3" font-family="Times,serif" font-size="14.00" fill="white">r hier part</text>
</a>
</g>
</g>
<!-- r&#45;hier.part&#45;&gt;conda&#45;forge&#45;pinning -->
<g id="edge53" class="edge">
<title>r&#45;hier.part&#45;&gt;conda&#45;forge&#45;pinning</title>
<path fill="none" stroke="black" d="M1966.72,-144.44C1983.62,-125.1 2005.3,-93.06 1986.59,-72 1964.35,-46.97 1771.95,-31.73 1646.62,-24.37"/>
<polygon fill="black" stroke="black" points="1646.78,-20.88 1636.59,-23.79 1646.37,-27.86 1646.78,-20.88"/>
</g>
<!-- r&#45;aggregation -->
<g id="node31" class="node">
<title>r&#45;aggregation</title>
<g id="a_node31"><a xlink:href="https://github.com/conda-forge/r-aggregation-feedstock" xlink:title="r aggregation">
<ellipse fill="#35b779" stroke="black" cx="1979.59" cy="-234" rx="74.19" ry="18"/>
<text text-anchor="middle" x="1979.59" y="-230.3" font-family="Times,serif" font-size="14.00">r aggregation</text>
</a>
</g>
</g>
<!-- r&#45;aggregation&#45;&gt;conda&#45;forge&#45;pinning -->
<g id="edge54" class="edge">
<title>r&#45;aggregation&#45;&gt;conda&#45;forge&#45;pinning</title>
<path fill="none" stroke="black" d="M1998.61,-216.38C2008.08,-206.82 2018.56,-193.95 2023.59,-180 2040.14,-134.16 2041.46,-103.88 2004.59,-72 1978,-49 1775.22,-32.92 1646.06,-24.88"/>
<polygon fill="black" stroke="black" points="1645.93,-21.36 1635.73,-24.24 1645.5,-28.35 1645.93,-21.36"/>
</g>
<!-- r&#45;adehabitatlt -->
<g id="node32" class="node">
<title>r&#45;adehabitatlt</title>
<g id="a_node32"><a xlink:href="https://github.com/conda-forge/r-adehabitatlt-feedstock" xlink:title="r adehabitatlt">
<ellipse fill="#35b779" stroke="black" cx="2012.59" cy="-306" rx="79.5" ry="18"/>
<text text-anchor="middle" x="2012.59" y="-302.3" font-family="Times,serif" font-size="14.00">r adehabitatlt</text>
</a>
</g>
</g>
<!-- r&#45;adehabitatlt&#45;&gt;conda&#45;forge&#45;pinning -->
<g id="edge55" class="edge">
<title>r&#45;adehabitatlt&#45;&gt;conda&#45;forge&#45;pinning</title>
<path fill="none" stroke="black" d="M2034.4,-288.66C2045.08,-279.26 2056.85,-266.46 2062.59,-252 2083.67,-198.95 2075.43,-110.82 2032.59,-72 2004.65,-46.68 1784.37,-31.22 1647.56,-23.97"/>
<polygon fill="black" stroke="black" points="1647.62,-20.46 1637.45,-23.44 1647.25,-27.45 1647.62,-20.46"/>
</g>
<!-- r&#45;bezier -->
<g id="node33" class="node">
<title>r&#45;bezier</title>
<g id="a_node33"><a xlink:href="https://github.com/conda-forge/r-bezier-feedstock/pull/3" xlink:title="r bezier">
<ellipse fill="#31688e" stroke="black" cx="2119.59" cy="-378" rx="50.09" ry="18"/>
<text text-anchor="middle" x="2119.59" y="-374.3" font-family="Times,serif" font-size="14.00" fill="white">r bezier</text>
</a>
</g>
</g>
<!-- r&#45;bezier&#45;&gt;conda&#45;forge&#45;pinning -->
<g id="edge56" class="edge">
<title>r&#45;bezier&#45;&gt;conda&#45;forge&#45;pinning</title>
<path fill="none" stroke="black" d="M2119.59,-359.95C2119.59,-333.29 2119.59,-280.11 2119.59,-235 2119.59,-235 2119.59,-235 2119.59,-161 2119.59,-113.3 2100.52,-96.51 2059.59,-72 1993.12,-32.2 1784.23,-21.9 1652.02,-19.47"/>
<polygon fill="black" stroke="black" points="1651.9,-15.96 1641.84,-19.29 1651.78,-22.96 1651.9,-15.96"/>
</g>
<!-- r&#45;hiver -->
<g id="node34" class="node">
<title>r&#45;hiver</title>
<g id="a_node34"><a xlink:href="https://github.com/conda-forge/r-hiver-feedstock" xlink:title="r hiver">
<ellipse fill="#35b779" stroke="black" cx="2192.59" cy="-90" rx="45" ry="18"/>
<text text-anchor="middle" x="2192.59" y="-86.3" font-family="Times,serif" font-size="14.00">r hiver</text>
</a>
</g>
</g>
<!-- r&#45;hiver&#45;&gt;conda&#45;forge&#45;pinning -->
<g id="edge57" class="edge">
<title>r&#45;hiver&#45;&gt;conda&#45;forge&#45;pinning</title>
<path fill="none" stroke="black" d="M2158.85,-78.08C2150.66,-75.76 2141.87,-73.55 2133.59,-72 1966.68,-40.82 1769.89,-27.84 1649.71,-22.54"/>
<polygon fill="black" stroke="black" points="1649.55,-19.03 1639.4,-22.1 1649.24,-26.02 1649.55,-19.03"/>
</g>
<!-- r&#45;blogdown -->
<g id="node35" class="node">
<title>r&#45;blogdown</title>
<g id="a_node35"><a xlink:href="https://github.com/conda-forge/r-blogdown-feedstock" xlink:title="r blogdown">
<ellipse fill="#35b779" stroke="black" cx="2215.59" cy="-162" rx="60" ry="18"/>
<text text-anchor="middle" x="2215.59" y="-158.3" font-family="Times,serif" font-size="14.00">r blogdown</text>
</a>
</g>
</g>
<!-- r&#45;blogdown&#45;&gt;conda&#45;forge&#45;pinning -->
<g id="edge59" class="edge">
<title>r&#45;blogdown&#45;&gt;conda&#45;forge&#45;pinning</title>
<path fill="none" stroke="black" d="M2230.14,-144.52C2245.63,-124.95 2265.51,-92.39 2246.59,-72 2207.08,-29.42 1841.88,-20.81 1652.05,-19.23"/>
<polygon fill="black" stroke="black" points="1652.06,-15.73 1642.04,-19.15 1652.01,-22.73 1652.06,-15.73"/>
</g>
<!-- r&#45;alabama -->
<g id="node36" class="node">
<title>r&#45;alabama</title>
<g id="a_node36"><a xlink:href="https://github.com/conda-forge/r-alabama-feedstock" xlink:title="r alabama">
<ellipse fill="#35b779" stroke="black" cx="2258.59" cy="-234" rx="54.69" ry="18"/>
<text text-anchor="middle" x="2258.59" y="-230.3" font-family="Times,serif" font-size="14.00">r alabama</text>
</a>
</g>
</g>
<!-- r&#45;alabama&#45;&gt;conda&#45;forge&#45;pinning -->
<g id="edge60" class="edge">
<title>r&#45;alabama&#45;&gt;conda&#45;forge&#45;pinning</title>
<path fill="none" stroke="black" d="M2269.37,-216.08C2275.13,-206.03 2281.63,-192.78 2284.59,-180 2295.63,-132.45 2302.35,-102.94 2264.59,-72 2218.37,-34.13 1844.24,-23.29 1651.9,-20.21"/>
<polygon fill="black" stroke="black" points="1651.81,-16.71 1641.75,-20.05 1651.7,-23.71 1651.81,-16.71"/>
</g>
<!-- r&#45;airr -->
<g id="node37" class="node">
<title>r&#45;airr</title>
<g id="a_node37"><a xlink:href="https://github.com/conda-forge/r-airr-feedstock" xlink:title="r airr">
<ellipse fill="#35b779" stroke="black" cx="2341.59" cy="-306" rx="40.5" ry="18"/>
<text text-anchor="middle" x="2341.59" y="-302.3" font-family="Times,serif" font-size="14.00">r airr</text>
</a>
</g>
</g>
<!-- r&#45;airr&#45;&gt;conda&#45;forge&#45;pinning -->
<g id="edge61" class="edge">
<title>r&#45;airr&#45;&gt;conda&#45;forge&#45;pinning</title>
<path fill="none" stroke="black" d="M2344.02,-287.88C2349.15,-244.12 2355.82,-127.71 2291.59,-72 2244.46,-31.12 1850.75,-21.73 1652.18,-19.6"/>
<polygon fill="black" stroke="black" points="1652.04,-16.1 1642,-19.5 1651.97,-23.1 1652.04,-16.1"/>
</g>
<!-- r&#45;feasts -->
<g id="node38" class="node">
<title>r&#45;feasts</title>
<g id="a_node38"><a xlink:href="https://github.com/conda-forge/r-feasts-feedstock" xlink:title="r feasts">
<ellipse fill="#fde725" stroke="black" cx="2457.59" cy="-90" rx="50.09" ry="18"/>
<text text-anchor="middle" x="2457.59" y="-86.3" font-family="Times,serif" font-size="14.00">r feasts</text>
</a>
</g>
</g>
<!-- r&#45;feasts&#45;&gt;conda&#45;forge&#45;pinning -->
<g id="edge62" class="edge">
<title>r&#45;feasts&#45;&gt;conda&#45;forge&#45;pinning</title>
<path fill="none" stroke="black" d="M2420.63,-77.85C2411.84,-75.57 2402.44,-73.44 2393.59,-72 2130.63,-29.36 1817.06,-20.44 1652.45,-18.93"/>
<polygon fill="black" stroke="black" points="1652.34,-15.43 1642.31,-18.85 1652.28,-22.43 1652.34,-15.43"/>
</g>
<!-- r&#45;littler -->
<g id="node39" class="node">
<title>r&#45;littler</title>
<g id="a_node39"><a xlink:href="https://github.com/conda-forge/r-littler-feedstock/pull/2" xlink:title="r littler">
<ellipse fill="#31688e" stroke="black" cx="2535.59" cy="-378" rx="54.69" ry="18"/>
<text text-anchor="middle" x="2535.59" y="-374.3" font-family="Times,serif" font-size="14.00" fill="white">r littler</text>
</a>
</g>
</g>
<!-- r&#45;littler&#45;&gt;conda&#45;forge&#45;pinning -->
<g id="edge63" class="edge">
<title>r&#45;littler&#45;&gt;conda&#45;forge&#45;pinning</title>
<path fill="none" stroke="black" d="M2535.59,-359.95C2535.59,-333.29 2535.59,-280.11 2535.59,-235 2535.59,-235 2535.59,-235 2535.59,-161 2535.59,-120.55 2547.34,-98.28 2516.59,-72 2484.14,-44.26 1900.65,-27.43 1650.72,-21.46"/>
<polygon fill="black" stroke="black" points="1650.6,-17.95 1640.52,-21.22 1650.43,-24.95 1650.6,-17.95"/>
</g>
<!-- r&#45;rxode -->
<g id="node40" class="node">
<title>r&#45;rxode</title>
<g id="a_node40"><a xlink:href="https://github.com/conda-forge/r-rxode-feedstock" xlink:title="r rxode">
<ellipse fill="#35b779" stroke="black" cx="2630.59" cy="-162" rx="45" ry="18"/>
<text text-anchor="middle" x="2630.59" y="-158.3" font-family="Times,serif" font-size="14.00">r rxode</text>
</a>
</g>
</g>
<!-- r&#45;rxode&#45;&gt;conda&#45;forge&#45;pinning -->
<g id="edge64" class="edge">
<title>r&#45;rxode&#45;&gt;conda&#45;forge&#45;pinning</title>
<path fill="none" stroke="black" d="M2618.21,-144.64C2600.1,-121.23 2566.68,-80.09 2549.59,-72 2470.23,-34.4 1898.61,-23.21 1651.7,-20.1"/>
<polygon fill="black" stroke="black" points="1651.66,-16.6 1641.62,-19.98 1651.57,-23.6 1651.66,-16.6"/>
</g>
<!-- r&#45;nlmixr -->
<g id="node41" class="node">
<title>r&#45;nlmixr</title>
<g id="a_node41"><a xlink:href="https://github.com/conda-forge/r-nlmixr-feedstock" xlink:title="r nlmixr">
<ellipse fill="#fde725" stroke="black" cx="2651.59" cy="-90" rx="50.09" ry="18"/>
<text text-anchor="middle" x="2651.59" y="-86.3" font-family="Times,serif" font-size="14.00">r nlmixr</text>
</a>
</g>
</g>
<!-- r&#45;rxode&#45;&gt;r&#45;nlmixr -->
<g id="edge65" class="edge">
<title>r&#45;rxode&#45;&gt;r&#45;nlmixr</title>
<path fill="none" stroke="black" d="M2635.68,-144.05C2638.01,-136.26 2640.85,-126.82 2643.47,-118.08"/>
<polygon fill="black" stroke="black" points="2646.89,-118.86 2646.41,-108.28 2640.18,-116.85 2646.89,-118.86"/>
</g>
<!-- r&#45;nlmixr&#45;&gt;conda&#45;forge&#45;pinning -->
<g id="edge66" class="edge">
<title>r&#45;nlmixr&#45;&gt;conda&#45;forge&#45;pinning</title>
<path fill="none" stroke="black" d="M2614.65,-77.78C2605.85,-75.5 2596.45,-73.38 2587.59,-72 2409.85,-44.22 1882.91,-27.78 1650.67,-21.7"/>
<polygon fill="black" stroke="black" points="1650.59,-18.2 1640.51,-21.43 1650.41,-25.19 1650.59,-18.2"/>
</g>
<!-- r&#45;tiledb -->
<g id="node42" class="node">
<title>r&#45;tiledb</title>
<g id="a_node42"><a xlink:href="https://github.com/conda-forge/r-tiledb-feedstock/pull/5" xlink:title="r tiledb">
<ellipse fill="#31688e" stroke="black" cx="2769.59" cy="-90" rx="50.09" ry="18"/>
<text text-anchor="middle" x="2769.59" y="-86.3" font-family="Times,serif" font-size="14.00" fill="white">r tiledb</text>
</a>
</g>
</g>
<!-- r&#45;tiledb&#45;&gt;conda&#45;forge&#45;pinning -->
<g id="edge67" class="edge">
<title>r&#45;tiledb&#45;&gt;conda&#45;forge&#45;pinning</title>
<path fill="none" stroke="black" d="M2734.02,-77.29C2726.37,-75.19 2718.27,-73.26 2710.59,-72 2509.13,-38.9 1904.49,-25.14 1651.66,-20.73"/>
<polygon fill="black" stroke="black" points="1651.41,-17.22 1641.35,-20.55 1651.29,-24.22 1651.41,-17.22"/>
</g>
<!-- r&#45;raceid -->
<g id="node43" class="node">
<title>r&#45;raceid</title>
<g id="a_node43"><a xlink:href="https://github.com/conda-forge/r-raceid-feedstock" xlink:title="r raceid">
<ellipse fill="#35b779" stroke="black" cx="2807.59" cy="-162" rx="50.09" ry="18"/>
<text text-anchor="middle" x="2807.59" y="-158.3" font-family="Times,serif" font-size="14.00">r raceid</text>
</a>
</g>
</g>
<!-- r&#45;raceid&#45;&gt;conda&#45;forge&#45;pinning -->
<g id="edge68" class="edge">
<title>r&#45;raceid&#45;&gt;conda&#45;forge&#45;pinning</title>
<path fill="none" stroke="black" d="M2819.44,-144.21C2831.89,-124.33 2847.28,-91.47 2828.59,-72 2788.19,-29.9 1959.79,-21.22 1652.23,-19.45"/>
<polygon fill="black" stroke="black" points="1651.97,-15.95 1641.95,-19.39 1651.93,-22.95 1651.97,-15.95"/>
</g>
<!-- r&#45;botor -->
<g id="node44" class="node">
<title>r&#45;botor</title>
<g id="a_node44"><a xlink:href="https://github.com/conda-forge/r-botor-feedstock" xlink:title="r botor">
<ellipse fill="#35b779" stroke="black" cx="2867.59" cy="-234" rx="45" ry="18"/>
<text text-anchor="middle" x="2867.59" y="-230.3" font-family="Times,serif" font-size="14.00">r botor</text>
</a>
</g>
</g>
<!-- r&#45;botor&#45;&gt;conda&#45;forge&#45;pinning -->
<g id="edge69" class="edge">
<title>r&#45;botor&#45;&gt;conda&#45;forge&#45;pinning</title>
<path fill="none" stroke="black" d="M2871.96,-216.05C2879.55,-182.19 2890.53,-106.48 2847.59,-72 2801.36,-34.87 1961.58,-23.06 1651.99,-19.96"/>
<polygon fill="black" stroke="black" points="1651.68,-16.46 1641.64,-19.86 1651.61,-23.46 1651.68,-16.46"/>
</g>
<!-- r&#45;slider -->
<g id="node45" class="node">
<title>r&#45;slider</title>
<g id="a_node45"><a xlink:href="https://github.com/conda-forge/r-slider-feedstock" xlink:title="r slider">
<ellipse fill="#35b779" stroke="black" cx="2438.59" cy="-162" rx="50.09" ry="18"/>
<text text-anchor="middle" x="2438.59" y="-158.3" font-family="Times,serif" font-size="14.00">r slider</text>
</a>
</g>
</g>
<!-- r&#45;slider&#45;&gt;conda&#45;forge&#45;pinning -->
<g id="edge70" class="edge">
<title>r&#45;slider&#45;&gt;conda&#45;forge&#45;pinning</title>
<path fill="none" stroke="black" d="M2425.53,-144.28C2406.83,-120.83 2372.78,-80.14 2355.59,-72 2293.51,-42.58 1859.23,-27.37 1650.33,-21.68"/>
<polygon fill="black" stroke="black" points="1650.34,-18.18 1640.25,-21.41 1650.16,-25.18 1650.34,-18.18"/>
</g>
<!-- r&#45;slider&#45;&gt;r&#45;feasts -->
<g id="edge71" class="edge">
<title>r&#45;slider&#45;&gt;r&#45;feasts</title>
<path fill="none" stroke="black" d="M2443.19,-144.05C2445.31,-136.26 2447.87,-126.82 2450.24,-118.08"/>
<polygon fill="black" stroke="black" points="2453.66,-118.84 2452.9,-108.28 2446.91,-117.01 2453.66,-118.84"/>
</g>
<!-- r&#45;conflr -->
<g id="node46" class="node">
<title>r&#45;conflr</title>
<g id="a_node46"><a xlink:href="https://github.com/conda-forge/r-conflr-feedstock" xlink:title="r conflr">
<ellipse fill="#35b779" stroke="black" cx="2940.59" cy="-306" rx="50.09" ry="18"/>
<text text-anchor="middle" x="2940.59" y="-302.3" font-family="Times,serif" font-size="14.00">r conflr</text>
</a>
</g>
</g>
<!-- r&#45;conflr&#45;&gt;conda&#45;forge&#45;pinning -->
<g id="edge72" class="edge">
<title>r&#45;conflr&#45;&gt;conda&#45;forge&#45;pinning</title>
<path fill="none" stroke="black" d="M2941.86,-287.77C2944.05,-243.22 2942.91,-124.08 2873.59,-72 2825.12,-35.58 1965.14,-23.3 1651.7,-20.02"/>
<polygon fill="black" stroke="black" points="1651.72,-16.52 1641.68,-19.91 1651.64,-23.52 1651.72,-16.52"/>
</g>
<!-- r&#45;comparegroups -->
<g id="node47" class="node">
<title>r&#45;comparegroups</title>
<g id="a_node47"><a xlink:href="https://github.com/conda-forge/r-comparegroups-feedstock" xlink:title="r comparegroups">
<ellipse fill="#35b779" stroke="black" cx="3018.59" cy="-378" rx="84" ry="18"/>
<text text-anchor="middle" x="3018.59" y="-374.3" font-family="Times,serif" font-size="14.00">r comparegroups</text>
</a>
</g>
</g>
<!-- r&#45;comparegroups&#45;&gt;conda&#45;forge&#45;pinning -->
<g id="edge73" class="edge">
<title>r&#45;comparegroups&#45;&gt;conda&#45;forge&#45;pinning</title>
<path fill="none" stroke="black" d="M3018.59,-359.95C3018.59,-333.29 3018.59,-280.11 3018.59,-235 3018.59,-235 3018.59,-235 3018.59,-161 3018.59,-96.37 2964.33,-94.08 2903.59,-72 2787.69,-29.86 1958.92,-21.21 1652.28,-19.45"/>
<polygon fill="black" stroke="black" points="1652.06,-15.95 1642.04,-19.39 1652.02,-22.95 1652.06,-15.95"/>
</g>
</g>
</svg>
