<?xml version="1.0" encoding="UTF-8" standalone="no"?>
<!DOCTYPE svg PUBLIC "-//W3C//DTD SVG 1.1//EN"
 "http://www.w3.org/Graphics/SVG/1.1/DTD/svg11.dtd">
<!-- Generated by graphviz version 2.42.3 (20191010.1750)
 -->
<!-- Title: %3 Pages: 1 -->
<svg width="2374pt" height="476pt"
 viewBox="0.00 0.00 2374.39 476.00" xmlns="http://www.w3.org/2000/svg" xmlns:xlink="http://www.w3.org/1999/xlink">
<g id="graph0" class="graph" transform="scale(1 1) rotate(0) translate(4 472)">
<title>%3</title>
<polygon fill="white" stroke="transparent" points="-4,4 -4,-472 2370.39,-472 2370.39,4 -4,4"/>
<!-- r&#45;fst -->
<g id="node1" class="node">
<title>r&#45;fst</title>
<g id="a_node1"><a xlink:href="https://github.com/conda-forge/r-fst-feedstock/pull/11" xlink:title="r fst">
<ellipse fill="#31688e" stroke="black" cx="38.39" cy="-162" rx="35.19" ry="18"/>
<text text-anchor="middle" x="38.39" y="-158.3" font-family="Times,serif" font-size="14.00" fill="white">r fst</text>
</a>
</g>
</g>
<!-- r&#45;disk.frame -->
<g id="node2" class="node">
<title>r&#45;disk.frame</title>
<g id="a_node2"><a xlink:href="https://github.com/conda-forge/r-disk.frame-feedstock" xlink:title="r disk frame">
<ellipse fill="#fde725" stroke="black" cx="87.39" cy="-90" rx="69.59" ry="18"/>
<text text-anchor="middle" x="87.39" y="-86.3" font-family="Times,serif" font-size="14.00">r disk frame</text>
</a>
</g>
</g>
<!-- r&#45;fst&#45;&gt;r&#45;disk.frame -->
<g id="edge1" class="edge">
<title>r&#45;fst&#45;&gt;r&#45;disk.frame</title>
<path fill="none" stroke="black" d="M49.76,-144.76C55.65,-136.35 62.97,-125.89 69.59,-116.44"/>
<polygon fill="black" stroke="black" points="72.54,-118.32 75.41,-108.12 66.81,-114.31 72.54,-118.32"/>
</g>
<!-- conda&#45;forge&#45;pinning -->
<g id="node3" class="node">
<title>conda&#45;forge&#45;pinning</title>
<ellipse fill="none" stroke="black" cx="1165.39" cy="-18" rx="103.5" ry="18"/>
<text text-anchor="middle" x="1165.39" y="-14.3" font-family="Times,serif" font-size="14.00">conda&#45;forge&#45;pinning</text>
</g>
<!-- r&#45;fst&#45;&gt;conda&#45;forge&#45;pinning -->
<g id="edge2" class="edge">
<title>r&#45;fst&#45;&gt;conda&#45;forge&#45;pinning</title>
<path fill="none" stroke="black" d="M24.57,-145.09C9.22,-125.48 -10.98,-92.28 8.39,-72 44.07,-34.66 767.75,-23.12 1052.09,-20.02"/>
<polygon fill="black" stroke="black" points="1052.47,-23.51 1062.43,-19.9 1052.39,-16.51 1052.47,-23.51"/>
</g>
<!-- r&#45;disk.frame&#45;&gt;conda&#45;forge&#45;pinning -->
<g id="edge3" class="edge">
<title>r&#45;disk.frame&#45;&gt;conda&#45;forge&#45;pinning</title>
<path fill="none" stroke="black" d="M137.83,-77.55C148.84,-75.4 160.47,-73.39 171.39,-72 488.71,-31.65 866.8,-21.94 1051.9,-19.66"/>
<polygon fill="black" stroke="black" points="1051.96,-23.16 1061.92,-19.54 1051.88,-16.16 1051.96,-23.16"/>
</g>
<!-- r&#45;hive -->
<g id="node4" class="node">
<title>r&#45;hive</title>
<g id="a_node4"><a xlink:href="https://github.com/conda-forge/r-hive-feedstock" xlink:title="r hive">
<ellipse fill="#fde725" stroke="black" cx="1309.39" cy="-234" rx="40.5" ry="18"/>
<text text-anchor="middle" x="1309.39" y="-230.3" font-family="Times,serif" font-size="14.00">r hive</text>
</a>
</g>
</g>
<!-- r&#45;hive&#45;&gt;conda&#45;forge&#45;pinning -->
<g id="edge4" class="edge">
<title>r&#45;hive&#45;&gt;conda&#45;forge&#45;pinning</title>
<path fill="none" stroke="black" d="M1307.46,-215.86C1303.12,-184.23 1290.02,-115.93 1254.39,-72 1243.51,-58.58 1228.26,-47.77 1213.46,-39.5"/>
<polygon fill="black" stroke="black" points="1214.82,-36.26 1204.34,-34.68 1211.55,-42.45 1214.82,-36.26"/>
</g>
<!-- r&#45;rjava -->
<g id="node5" class="node">
<title>r&#45;rjava</title>
<g id="a_node5"><a xlink:href="https://github.com/conda-forge/r-rjava-feedstock" xlink:title="r rjava">
<ellipse fill="#35b779" stroke="black" cx="857.39" cy="-450" rx="45" ry="18"/>
<text text-anchor="middle" x="857.39" y="-446.3" font-family="Times,serif" font-size="14.00">r rjava</text>
</a>
</g>
</g>
<!-- r&#45;rjava&#45;&gt;conda&#45;forge&#45;pinning -->
<g id="edge5" class="edge">
<title>r&#45;rjava&#45;&gt;conda&#45;forge&#45;pinning</title>
<path fill="none" stroke="black" d="M902.12,-446.97C1013.99,-441.47 1299.23,-424.75 1330.39,-396 1437.53,-297.15 1385.85,-171.59 1279.39,-72 1263.64,-57.26 1243.06,-46.01 1223.73,-37.74"/>
<polygon fill="black" stroke="black" points="1224.95,-34.46 1214.37,-33.92 1222.3,-40.94 1224.95,-34.46"/>
</g>
<!-- r&#45;rjava&#45;&gt;r&#45;hive -->
<g id="edge6" class="edge">
<title>r&#45;rjava&#45;&gt;r&#45;hive</title>
<path fill="none" stroke="black" d="M901.83,-447.04C1010.07,-441.81 1280.52,-425.85 1307.39,-396 1340.33,-359.41 1328.9,-296.97 1318.55,-261.56"/>
<polygon fill="black" stroke="black" points="1321.87,-260.43 1315.57,-251.92 1315.18,-262.5 1321.87,-260.43"/>
</g>
<!-- r&#45;xlsx -->
<g id="node6" class="node">
<title>r&#45;xlsx</title>
<g id="a_node6"><a xlink:href="https://github.com/conda-forge/r-xlsx-feedstock" xlink:title="r xlsx">
<ellipse fill="#fde725" stroke="black" cx="441.39" cy="-306" rx="40.5" ry="18"/>
<text text-anchor="middle" x="441.39" y="-302.3" font-family="Times,serif" font-size="14.00">r xlsx</text>
</a>
</g>
</g>
<!-- r&#45;rjava&#45;&gt;r&#45;xlsx -->
<g id="edge7" class="edge">
<title>r&#45;rjava&#45;&gt;r&#45;xlsx</title>
<path fill="none" stroke="black" d="M812.98,-447.05C728.54,-442.61 548.66,-429.42 497.39,-396 474.79,-381.26 459.62,-353.87 450.83,-333.36"/>
<polygon fill="black" stroke="black" points="454.01,-331.89 447.03,-323.92 447.52,-334.5 454.01,-331.89"/>
</g>
<!-- r&#45;xlsxjars -->
<g id="node7" class="node">
<title>r&#45;xlsxjars</title>
<g id="a_node7"><a xlink:href="https://github.com/conda-forge/r-xlsxjars-feedstock" xlink:title="r xlsxjars">
<ellipse fill="#fde725" stroke="black" cx="385.39" cy="-378" rx="60" ry="18"/>
<text text-anchor="middle" x="385.39" y="-374.3" font-family="Times,serif" font-size="14.00">r xlsxjars</text>
</a>
</g>
</g>
<!-- r&#45;rjava&#45;&gt;r&#45;xlsxjars -->
<g id="edge8" class="edge">
<title>r&#45;rjava&#45;&gt;r&#45;xlsxjars</title>
<path fill="none" stroke="black" d="M814.19,-444.59C740.9,-436.8 587.66,-419.22 459.39,-396 453.18,-394.88 446.7,-393.58 440.27,-392.21"/>
<polygon fill="black" stroke="black" points="440.78,-388.73 430.26,-390.01 439.28,-395.57 440.78,-388.73"/>
</g>
<!-- r&#45;xlconnectjars -->
<g id="node8" class="node">
<title>r&#45;xlconnectjars</title>
<g id="a_node8"><a xlink:href="https://github.com/conda-forge/r-xlconnectjars-feedstock" xlink:title="r xlconnectjars">
<ellipse fill="#fde725" stroke="black" cx="185.39" cy="-378" rx="84" ry="18"/>
<text text-anchor="middle" x="185.39" y="-374.3" font-family="Times,serif" font-size="14.00">r xlconnectjars</text>
</a>
</g>
</g>
<!-- r&#45;rjava&#45;&gt;r&#45;xlconnectjars -->
<g id="edge9" class="edge">
<title>r&#45;rjava&#45;&gt;r&#45;xlconnectjars</title>
<path fill="none" stroke="black" d="M813.33,-446.13C716.96,-439.6 480.32,-422.13 283.39,-396 274.69,-394.84 265.57,-393.48 256.56,-392.03"/>
<polygon fill="black" stroke="black" points="256.88,-388.53 246.44,-390.36 255.74,-395.44 256.88,-388.53"/>
</g>
<!-- r&#45;xlconnect -->
<g id="node9" class="node">
<title>r&#45;xlconnect</title>
<g id="a_node9"><a xlink:href="https://github.com/conda-forge/r-xlconnect-feedstock" xlink:title="r xlconnect">
<ellipse fill="#fde725" stroke="black" cx="278.39" cy="-306" rx="64.5" ry="18"/>
<text text-anchor="middle" x="278.39" y="-302.3" font-family="Times,serif" font-size="14.00">r xlconnect</text>
</a>
</g>
</g>
<!-- r&#45;rjava&#45;&gt;r&#45;xlconnect -->
<g id="edge10" class="edge">
<title>r&#45;rjava&#45;&gt;r&#45;xlconnect</title>
<path fill="none" stroke="black" d="M812.53,-447.21C689.98,-441.95 356.07,-425.08 316.39,-396 296.66,-381.54 287.08,-354.73 282.49,-334.3"/>
<polygon fill="black" stroke="black" points="285.89,-333.44 280.52,-324.3 279.02,-334.79 285.89,-333.44"/>
</g>
<!-- r&#45;rcdklibs -->
<g id="node10" class="node">
<title>r&#45;rcdklibs</title>
<g id="a_node10"><a xlink:href="https://github.com/conda-forge/r-rcdklibs-feedstock" xlink:title="r rcdklibs">
<ellipse fill="#fde725" stroke="black" cx="628.39" cy="-378" rx="60" ry="18"/>
<text text-anchor="middle" x="628.39" y="-374.3" font-family="Times,serif" font-size="14.00">r rcdklibs</text>
</a>
</g>
</g>
<!-- r&#45;rjava&#45;&gt;r&#45;rcdklibs -->
<g id="edge11" class="edge">
<title>r&#45;rjava&#45;&gt;r&#45;rcdklibs</title>
<path fill="none" stroke="black" d="M822.61,-438.37C784.31,-426.66 722.37,-407.73 678.76,-394.39"/>
<polygon fill="black" stroke="black" points="679.5,-390.96 668.92,-391.39 677.46,-397.66 679.5,-390.96"/>
</g>
<!-- r&#45;rcdk -->
<g id="node11" class="node">
<title>r&#45;rcdk</title>
<g id="a_node11"><a xlink:href="https://github.com/conda-forge/r-rcdk-feedstock" xlink:title="r rcdk">
<ellipse fill="#fde725" stroke="black" cx="628.39" cy="-306" rx="40.5" ry="18"/>
<text text-anchor="middle" x="628.39" y="-302.3" font-family="Times,serif" font-size="14.00">r rcdk</text>
</a>
</g>
</g>
<!-- r&#45;rjava&#45;&gt;r&#45;rcdk -->
<g id="edge12" class="edge">
<title>r&#45;rjava&#45;&gt;r&#45;rcdk</title>
<path fill="none" stroke="black" d="M833.75,-434.34C792.29,-408.63 706.47,-355.41 659.98,-326.59"/>
<polygon fill="black" stroke="black" points="661.57,-323.46 651.23,-321.16 657.88,-329.4 661.57,-323.46"/>
</g>
<!-- r&#45;rchoicedialogs -->
<g id="node12" class="node">
<title>r&#45;rchoicedialogs</title>
<g id="a_node12"><a xlink:href="https://github.com/conda-forge/r-rchoicedialogs-feedstock" xlink:title="r rchoicedialogs">
<ellipse fill="#fde725" stroke="black" cx="685.39" cy="-234" rx="89.08" ry="18"/>
<text text-anchor="middle" x="685.39" y="-230.3" font-family="Times,serif" font-size="14.00">r rchoicedialogs</text>
</a>
</g>
</g>
<!-- r&#45;rjava&#45;&gt;r&#45;rchoicedialogs -->
<g id="edge13" class="edge">
<title>r&#45;rjava&#45;&gt;r&#45;rchoicedialogs</title>
<path fill="none" stroke="black" d="M844.18,-432.56C814.25,-395.32 741.12,-304.33 705.52,-260.04"/>
<polygon fill="black" stroke="black" points="708.12,-257.69 699.13,-252.09 702.66,-262.07 708.12,-257.69"/>
</g>
<!-- r&#45;rwekajars -->
<g id="node13" class="node">
<title>r&#45;rwekajars</title>
<g id="a_node13"><a xlink:href="https://github.com/conda-forge/r-rwekajars-feedstock" xlink:title="r rwekajars">
<ellipse fill="#fde725" stroke="black" cx="857.39" cy="-234" rx="64.5" ry="18"/>
<text text-anchor="middle" x="857.39" y="-230.3" font-family="Times,serif" font-size="14.00">r rwekajars</text>
</a>
</g>
</g>
<!-- r&#45;rjava&#45;&gt;r&#45;rwekajars -->
<g id="edge14" class="edge">
<title>r&#45;rjava&#45;&gt;r&#45;rwekajars</title>
<path fill="none" stroke="black" d="M857.39,-431.85C857.39,-394.83 857.39,-307.18 857.39,-262.39"/>
<polygon fill="black" stroke="black" points="860.89,-262.23 857.39,-252.23 853.89,-262.23 860.89,-262.23"/>
</g>
<!-- r&#45;rweka -->
<g id="node14" class="node">
<title>r&#45;rweka</title>
<g id="a_node14"><a xlink:href="https://github.com/conda-forge/r-rweka-feedstock" xlink:title="r rweka">
<ellipse fill="#fde725" stroke="black" cx="896.39" cy="-162" rx="45" ry="18"/>
<text text-anchor="middle" x="896.39" y="-158.3" font-family="Times,serif" font-size="14.00">r rweka</text>
</a>
</g>
</g>
<!-- r&#45;rjava&#45;&gt;r&#45;rweka -->
<g id="edge15" class="edge">
<title>r&#45;rjava&#45;&gt;r&#45;rweka</title>
<path fill="none" stroke="black" d="M865.97,-432.19C882.42,-398.87 917.9,-321.65 930.39,-252 933.22,-236.25 934.9,-231.35 930.39,-216 927.47,-206.03 922.04,-196.17 916.36,-187.7"/>
<polygon fill="black" stroke="black" points="919.11,-185.53 910.44,-179.43 913.41,-189.6 919.11,-185.53"/>
</g>
<!-- r&#45;subspace -->
<g id="node15" class="node">
<title>r&#45;subspace</title>
<g id="a_node15"><a xlink:href="https://github.com/conda-forge/r-subspace-feedstock" xlink:title="r subspace">
<ellipse fill="#fde725" stroke="black" cx="1038.39" cy="-234" rx="60" ry="18"/>
<text text-anchor="middle" x="1038.39" y="-230.3" font-family="Times,serif" font-size="14.00">r subspace</text>
</a>
</g>
</g>
<!-- r&#45;rjava&#45;&gt;r&#45;subspace -->
<g id="edge16" class="edge">
<title>r&#45;rjava&#45;&gt;r&#45;subspace</title>
<path fill="none" stroke="black" d="M892.52,-438.58C915.47,-430.23 944.73,-416.5 964.39,-396 1000.75,-358.09 990.16,-335.59 1012.39,-288 1016.49,-279.23 1021.11,-269.72 1025.3,-261.2"/>
<polygon fill="black" stroke="black" points="1028.5,-262.62 1029.8,-252.11 1022.23,-259.52 1028.5,-262.62"/>
</g>
<!-- r&#45;rmcfs -->
<g id="node16" class="node">
<title>r&#45;rmcfs</title>
<g id="a_node16"><a xlink:href="https://github.com/conda-forge/r-rmcfs-feedstock" xlink:title="r rmcfs">
<ellipse fill="#fde725" stroke="black" cx="1091.39" cy="-162" rx="45" ry="18"/>
<text text-anchor="middle" x="1091.39" y="-158.3" font-family="Times,serif" font-size="14.00">r rmcfs</text>
</a>
</g>
</g>
<!-- r&#45;rjava&#45;&gt;r&#45;rmcfs -->
<g id="edge17" class="edge">
<title>r&#45;rjava&#45;&gt;r&#45;rmcfs</title>
<path fill="none" stroke="black" d="M896.7,-441.06C925.65,-433.55 964.49,-419.77 991.39,-396 1032.38,-359.78 1012.96,-327.88 1050.39,-288 1070.9,-266.15 1092.93,-278.24 1107.39,-252 1118.06,-232.65 1112.16,-207.69 1104.69,-189.12"/>
<polygon fill="black" stroke="black" points="1107.83,-187.55 1100.6,-179.8 1101.42,-190.37 1107.83,-187.55"/>
</g>
<!-- r&#45;rjdbc -->
<g id="node17" class="node">
<title>r&#45;rjdbc</title>
<g id="a_node17"><a xlink:href="https://github.com/conda-forge/r-rjdbc-feedstock" xlink:title="r rjdbc">
<ellipse fill="#fde725" stroke="black" cx="1129.39" cy="-90" rx="45" ry="18"/>
<text text-anchor="middle" x="1129.39" y="-86.3" font-family="Times,serif" font-size="14.00">r rjdbc</text>
</a>
</g>
</g>
<!-- r&#45;rjava&#45;&gt;r&#45;rjdbc -->
<g id="edge18" class="edge">
<title>r&#45;rjava&#45;&gt;r&#45;rjdbc</title>
<path fill="none" stroke="black" d="M899.6,-443.43C934.55,-437 983.89,-423.53 1018.39,-396 1062.18,-361.06 1047.47,-330.99 1083.39,-288 1098.94,-269.39 1111.37,-272.45 1124.39,-252 1142.3,-223.88 1140.68,-213 1145.39,-180 1147.66,-164.16 1147.73,-159.83 1145.39,-144 1144.1,-135.21 1141.65,-125.86 1139.05,-117.5"/>
<polygon fill="black" stroke="black" points="1142.34,-116.29 1135.88,-107.9 1135.69,-118.49 1142.34,-116.29"/>
</g>
<!-- r&#45;tabulizer -->
<g id="node18" class="node">
<title>r&#45;tabulizer</title>
<g id="a_node18"><a xlink:href="https://github.com/conda-forge/r-tabulizer-feedstock" xlink:title="r tabulizer">
<ellipse fill="#fde725" stroke="black" cx="1157.39" cy="-306" rx="64.5" ry="18"/>
<text text-anchor="middle" x="1157.39" y="-302.3" font-family="Times,serif" font-size="14.00">r tabulizer</text>
</a>
</g>
</g>
<!-- r&#45;rjava&#45;&gt;r&#45;tabulizer -->
<g id="edge19" class="edge">
<title>r&#45;rjava&#45;&gt;r&#45;tabulizer</title>
<path fill="none" stroke="black" d="M901.43,-446.23C948.26,-441.59 1023.07,-429.17 1078.39,-396 1104.79,-380.17 1127.21,-352.63 1141.35,-332.37"/>
<polygon fill="black" stroke="black" points="1144.37,-334.16 1147.07,-323.91 1138.57,-330.23 1144.37,-334.16"/>
</g>
<!-- r&#45;tabulizerjars -->
<g id="node19" class="node">
<title>r&#45;tabulizerjars</title>
<g id="a_node19"><a xlink:href="https://github.com/conda-forge/r-tabulizerjars-feedstock" xlink:title="r tabulizerjars">
<ellipse fill="#fde725" stroke="black" cx="1214.39" cy="-378" rx="84" ry="18"/>
<text text-anchor="middle" x="1214.39" y="-374.3" font-family="Times,serif" font-size="14.00">r tabulizerjars</text>
</a>
</g>
</g>
<!-- r&#45;rjava&#45;&gt;r&#45;tabulizerjars -->
<g id="edge20" class="edge">
<title>r&#45;rjava&#45;&gt;r&#45;tabulizerjars</title>
<path fill="none" stroke="black" d="M896.96,-441.24C956.69,-429.53 1070.74,-407.17 1144.63,-392.68"/>
<polygon fill="black" stroke="black" points="1145.64,-396.05 1154.78,-390.69 1144.3,-389.18 1145.64,-396.05"/>
</g>
<!-- r&#45;destinie -->
<g id="node20" class="node">
<title>r&#45;destinie</title>
<g id="a_node20"><a xlink:href="https://github.com/conda-forge/r-destinie-feedstock" xlink:title="r destinie">
<ellipse fill="#fde725" stroke="black" cx="442.39" cy="-234" rx="60" ry="18"/>
<text text-anchor="middle" x="442.39" y="-230.3" font-family="Times,serif" font-size="14.00">r destinie</text>
</a>
</g>
</g>
<!-- r&#45;rjava&#45;&gt;r&#45;destinie -->
<g id="edge21" class="edge">
<title>r&#45;rjava&#45;&gt;r&#45;destinie</title>
<path fill="none" stroke="black" d="M813.6,-445.53C741.17,-439.08 600.35,-423.37 559.39,-396 512.04,-364.35 524.97,-333.27 490.39,-288 482.82,-278.08 473.79,-267.78 465.62,-258.92"/>
<polygon fill="black" stroke="black" points="468.11,-256.46 458.71,-251.56 463,-261.25 468.11,-256.46"/>
</g>
<!-- r&#45;xlsx&#45;&gt;conda&#45;forge&#45;pinning -->
<g id="edge22" class="edge">
<title>r&#45;xlsx&#45;&gt;conda&#45;forge&#45;pinning</title>
<path fill="none" stroke="black" d="M415.09,-292.24C399.87,-283.29 382.07,-269.75 373.39,-252 366.37,-237.62 368.37,-231.19 373.39,-216 398.44,-140.3 410.59,-110.54 480.39,-72 529.3,-45 873.44,-29.13 1054.54,-22.57"/>
<polygon fill="black" stroke="black" points="1054.76,-26.06 1064.63,-22.2 1054.51,-19.06 1054.76,-26.06"/>
</g>
<!-- r&#45;xlsx&#45;&gt;r&#45;destinie -->
<g id="edge23" class="edge">
<title>r&#45;xlsx&#45;&gt;r&#45;destinie</title>
<path fill="none" stroke="black" d="M441.64,-287.7C441.75,-279.98 441.88,-270.71 442.01,-262.11"/>
<polygon fill="black" stroke="black" points="445.51,-262.15 442.15,-252.1 438.51,-262.05 445.51,-262.15"/>
</g>
<!-- r&#45;xlsxjars&#45;&gt;conda&#45;forge&#45;pinning -->
<g id="edge24" class="edge">
<title>r&#45;xlsxjars&#45;&gt;conda&#45;forge&#45;pinning</title>
<path fill="none" stroke="black" d="M380.46,-359.87C365.7,-304.64 328.74,-131.46 426.39,-72 478.51,-40.27 859.29,-26.46 1052.94,-21.44"/>
<polygon fill="black" stroke="black" points="1053.25,-24.93 1063.16,-21.18 1053.07,-17.93 1053.25,-24.93"/>
</g>
<!-- r&#45;xlsxjars&#45;&gt;r&#45;xlsx -->
<g id="edge25" class="edge">
<title>r&#45;xlsxjars&#45;&gt;r&#45;xlsx</title>
<path fill="none" stroke="black" d="M398.67,-360.41C405.57,-351.78 414.14,-341.06 421.8,-331.5"/>
<polygon fill="black" stroke="black" points="424.7,-333.47 428.22,-323.47 419.24,-329.09 424.7,-333.47"/>
</g>
<!-- r&#45;xlconnectjars&#45;&gt;conda&#45;forge&#45;pinning -->
<g id="edge26" class="edge">
<title>r&#45;xlconnectjars&#45;&gt;conda&#45;forge&#45;pinning</title>
<path fill="none" stroke="black" d="M185.39,-359.95C185.39,-333.29 185.39,-280.11 185.39,-235 185.39,-235 185.39,-235 185.39,-161 185.39,-104.74 224.02,-94.92 275.39,-72 344.65,-41.1 829.5,-26.45 1053.02,-21.28"/>
<polygon fill="black" stroke="black" points="1053.22,-24.77 1063.13,-21.05 1053.06,-17.78 1053.22,-24.77"/>
</g>
<!-- r&#45;xlconnectjars&#45;&gt;r&#45;xlconnect -->
<g id="edge27" class="edge">
<title>r&#45;xlconnectjars&#45;&gt;r&#45;xlconnect</title>
<path fill="none" stroke="black" d="M207.43,-360.41C219.8,-351.1 235.39,-339.37 248.81,-329.27"/>
<polygon fill="black" stroke="black" points="250.95,-332.04 256.83,-323.23 246.74,-326.45 250.95,-332.04"/>
</g>
<!-- r&#45;xlconnect&#45;&gt;conda&#45;forge&#45;pinning -->
<g id="edge28" class="edge">
<title>r&#45;xlconnect&#45;&gt;conda&#45;forge&#45;pinning</title>
<path fill="none" stroke="black" d="M273.71,-287.81C263.04,-244.41 242.24,-129.72 302.39,-72 329.08,-46.4 826.22,-28.8 1053.59,-22.06"/>
<polygon fill="black" stroke="black" points="1053.98,-25.55 1063.88,-21.76 1053.78,-18.55 1053.98,-25.55"/>
</g>
<!-- r&#45;rcdklibs&#45;&gt;conda&#45;forge&#45;pinning -->
<g id="edge29" class="edge">
<title>r&#45;rcdklibs&#45;&gt;conda&#45;forge&#45;pinning</title>
<path fill="none" stroke="black" d="M607.1,-361.11C596.29,-351.68 584.23,-338.7 578.39,-324 574.86,-315.11 573.88,-246.24 579.39,-216 593.69,-137.56 613.54,-104.4 686.39,-72 750.34,-43.56 935.27,-29.66 1055.75,-23.44"/>
<polygon fill="black" stroke="black" points="1055.95,-26.93 1065.76,-22.93 1055.59,-19.94 1055.95,-26.93"/>
</g>
<!-- r&#45;rcdklibs&#45;&gt;r&#45;rcdk -->
<g id="edge30" class="edge">
<title>r&#45;rcdklibs&#45;&gt;r&#45;rcdk</title>
<path fill="none" stroke="black" d="M628.39,-359.7C628.39,-351.98 628.39,-342.71 628.39,-334.11"/>
<polygon fill="black" stroke="black" points="631.89,-334.1 628.39,-324.1 624.89,-334.1 631.89,-334.1"/>
</g>
<!-- r&#45;rcdk&#45;&gt;conda&#45;forge&#45;pinning -->
<g id="edge31" class="edge">
<title>r&#45;rcdk&#45;&gt;conda&#45;forge&#45;pinning</title>
<path fill="none" stroke="black" d="M611.93,-289.52C602.78,-279.75 592.28,-266.31 587.39,-252 582.22,-236.86 580.35,-230.37 587.39,-216 633.43,-122.14 676.96,-112.38 773.39,-72 823.99,-50.81 964.11,-35.43 1062.3,-26.85"/>
<polygon fill="black" stroke="black" points="1062.61,-30.34 1072.27,-26 1062,-23.37 1062.61,-30.34"/>
</g>
<!-- r&#45;rchoicedialogs&#45;&gt;conda&#45;forge&#45;pinning -->
<g id="edge32" class="edge">
<title>r&#45;rchoicedialogs&#45;&gt;conda&#45;forge&#45;pinning</title>
<path fill="none" stroke="black" d="M694.38,-215.88C713.13,-182.05 759.92,-106.91 822.39,-72 862.56,-49.56 976.85,-35.03 1062.54,-26.96"/>
<polygon fill="black" stroke="black" points="1062.95,-30.44 1072.58,-26.03 1062.3,-23.47 1062.95,-30.44"/>
</g>
<!-- r&#45;rwekajars&#45;&gt;conda&#45;forge&#45;pinning -->
<g id="edge33" class="edge">
<title>r&#45;rwekajars&#45;&gt;conda&#45;forge&#45;pinning</title>
<path fill="none" stroke="black" d="M848.59,-216.05C833.21,-183.84 806.29,-113.31 841.39,-72 868.5,-40.1 971.15,-27.36 1053.74,-22.29"/>
<polygon fill="black" stroke="black" points="1054.18,-25.77 1063.96,-21.7 1053.78,-18.79 1054.18,-25.77"/>
</g>
<!-- r&#45;rwekajars&#45;&gt;r&#45;rweka -->
<g id="edge34" class="edge">
<title>r&#45;rwekajars&#45;&gt;r&#45;rweka</title>
<path fill="none" stroke="black" d="M866.83,-216.05C871.43,-207.8 877.06,-197.7 882.17,-188.54"/>
<polygon fill="black" stroke="black" points="885.23,-190.23 887.04,-179.79 879.12,-186.82 885.23,-190.23"/>
</g>
<!-- r&#45;rweka&#45;&gt;conda&#45;forge&#45;pinning -->
<g id="edge35" class="edge">
<title>r&#45;rweka&#45;&gt;conda&#45;forge&#45;pinning</title>
<path fill="none" stroke="black" d="M878.14,-145.23C858.47,-126.35 832.39,-94.48 851.39,-72 877.32,-41.33 974.95,-28.4 1054.55,-22.96"/>
<polygon fill="black" stroke="black" points="1054.91,-26.44 1064.66,-22.3 1054.45,-19.45 1054.91,-26.44"/>
</g>
<!-- r&#45;fselector -->
<g id="node21" class="node">
<title>r&#45;fselector</title>
<g id="a_node21"><a xlink:href="https://github.com/conda-forge/r-fselector-feedstock" xlink:title="r fselector">
<ellipse fill="#fde725" stroke="black" cx="925.39" cy="-90" rx="64.5" ry="18"/>
<text text-anchor="middle" x="925.39" y="-86.3" font-family="Times,serif" font-size="14.00">r fselector</text>
</a>
</g>
</g>
<!-- r&#45;rweka&#45;&gt;r&#45;fselector -->
<g id="edge36" class="edge">
<title>r&#45;rweka&#45;&gt;r&#45;fselector</title>
<path fill="none" stroke="black" d="M903.41,-144.05C906.68,-136.18 910.64,-126.62 914.29,-117.79"/>
<polygon fill="black" stroke="black" points="917.64,-118.85 918.24,-108.28 911.18,-116.17 917.64,-118.85"/>
</g>
<!-- r&#45;subspace&#45;&gt;conda&#45;forge&#45;pinning -->
<g id="edge37" class="edge">
<title>r&#45;subspace&#45;&gt;conda&#45;forge&#45;pinning</title>
<path fill="none" stroke="black" d="M1035.89,-215.97C1032.15,-183.62 1029.03,-112.86 1065.39,-72 1077.96,-57.88 1095.2,-46.89 1111.83,-38.67"/>
<polygon fill="black" stroke="black" points="1113.4,-41.8 1120.97,-34.38 1110.43,-35.46 1113.4,-41.8"/>
</g>
<!-- r&#45;rmcfs&#45;&gt;conda&#45;forge&#45;pinning -->
<g id="edge38" class="edge">
<title>r&#45;rmcfs&#45;&gt;conda&#45;forge&#45;pinning</title>
<path fill="none" stroke="black" d="M1082.06,-144.12C1073.03,-125.33 1062.46,-94.62 1075.39,-72 1083.52,-57.79 1097.1,-47.01 1111.28,-39.01"/>
<polygon fill="black" stroke="black" points="1112.91,-42.11 1120.15,-34.38 1109.67,-35.91 1112.91,-42.11"/>
</g>
<!-- r&#45;rjdbc&#45;&gt;conda&#45;forge&#45;pinning -->
<g id="edge39" class="edge">
<title>r&#45;rjdbc&#45;&gt;conda&#45;forge&#45;pinning</title>
<path fill="none" stroke="black" d="M1138.11,-72.05C1142.25,-64.01 1147.29,-54.2 1151.91,-45.23"/>
<polygon fill="black" stroke="black" points="1155.05,-46.77 1156.51,-36.28 1148.82,-43.57 1155.05,-46.77"/>
</g>
<!-- r&#45;tabulizer&#45;&gt;conda&#45;forge&#45;pinning -->
<g id="edge40" class="edge">
<title>r&#45;tabulizer&#45;&gt;conda&#45;forge&#45;pinning</title>
<path fill="none" stroke="black" d="M1165.95,-287.8C1170.55,-277.65 1175.8,-264.4 1178.39,-252 1194.76,-173.66 1196.44,-150.96 1183.39,-72 1181.95,-63.28 1179.26,-54.06 1176.39,-45.8"/>
<polygon fill="black" stroke="black" points="1179.63,-44.46 1172.87,-36.3 1173.06,-46.89 1179.63,-44.46"/>
</g>
<!-- r&#45;tabulizerjars&#45;&gt;conda&#45;forge&#45;pinning -->
<g id="edge41" class="edge">
<title>r&#45;tabulizerjars&#45;&gt;conda&#45;forge&#45;pinning</title>
<path fill="none" stroke="black" d="M1221.05,-359.63C1224.6,-349.42 1228.6,-336.17 1230.39,-324 1232.73,-308.17 1231.5,-303.96 1230.39,-288 1223.71,-191.31 1234.61,-162.68 1200.39,-72 1196.75,-62.35 1191.1,-52.68 1185.4,-44.29"/>
<polygon fill="black" stroke="black" points="1188.17,-42.16 1179.51,-36.06 1182.48,-46.23 1188.17,-42.16"/>
</g>
<!-- r&#45;tabulizerjars&#45;&gt;r&#45;tabulizer -->
<g id="edge42" class="edge">
<title>r&#45;tabulizerjars&#45;&gt;r&#45;tabulizer</title>
<path fill="none" stroke="black" d="M1200.6,-360.05C1193.66,-351.54 1185.14,-341.07 1177.49,-331.68"/>
<polygon fill="black" stroke="black" points="1180.09,-329.33 1171.06,-323.79 1174.67,-333.75 1180.09,-329.33"/>
</g>
<!-- r&#45;destinie&#45;&gt;conda&#45;forge&#45;pinning -->
<g id="edge43" class="edge">
<title>r&#45;destinie&#45;&gt;conda&#45;forge&#45;pinning</title>
<path fill="none" stroke="black" d="M444.63,-215.79C450.04,-181.81 467.25,-106.4 516.39,-72 559.27,-41.99 879.73,-27.66 1053.73,-22.03"/>
<polygon fill="black" stroke="black" points="1054.07,-25.52 1063.95,-21.71 1053.85,-18.53 1054.07,-25.52"/>
</g>
<!-- r&#45;fselector&#45;&gt;conda&#45;forge&#45;pinning -->
<g id="edge49" class="edge">
<title>r&#45;fselector&#45;&gt;conda&#45;forge&#45;pinning</title>
<path fill="none" stroke="black" d="M968.3,-76.49C1006.33,-65.39 1062.26,-49.08 1104.84,-36.66"/>
<polygon fill="black" stroke="black" points="1105.91,-39.99 1114.53,-33.83 1103.95,-33.27 1105.91,-39.99"/>
</g>
<!-- rpy2 -->
<g id="node22" class="node">
<title>rpy2</title>
<g id="a_node22"><a xlink:href="https://github.com/conda-forge/rpy2-feedstock/pull/55" xlink:title="rpy2">
<ellipse fill="#31688e" stroke="black" cx="1418.39" cy="-162" rx="30.59" ry="18"/>
<text text-anchor="middle" x="1418.39" y="-158.3" font-family="Times,serif" font-size="14.00" fill="white">rpy2</text>
</a>
</g>
</g>
<!-- rpy2&#45;&gt;conda&#45;forge&#45;pinning -->
<g id="edge44" class="edge">
<title>rpy2&#45;&gt;conda&#45;forge&#45;pinning</title>
<path fill="none" stroke="black" d="M1404.81,-145.58C1384.61,-122.97 1347.24,-82.35 1330.39,-72 1302.87,-55.09 1269.41,-43.04 1239.84,-34.75"/>
<polygon fill="black" stroke="black" points="1240.54,-31.32 1229.97,-32.08 1238.71,-38.07 1240.54,-31.32"/>
</g>
<!-- iterativewgcna -->
<g id="node23" class="node">
<title>iterativewgcna</title>
<g id="a_node23"><a xlink:href="https://github.com/conda-forge/iterativewgcna-feedstock" xlink:title="iterativewgcna">
<ellipse fill="#fde725" stroke="black" cx="1461.39" cy="-90" rx="79.5" ry="18"/>
<text text-anchor="middle" x="1461.39" y="-86.3" font-family="Times,serif" font-size="14.00">iterativewgcna</text>
</a>
</g>
</g>
<!-- rpy2&#45;&gt;iterativewgcna -->
<g id="edge45" class="edge">
<title>rpy2&#45;&gt;iterativewgcna</title>
<path fill="none" stroke="black" d="M1428.37,-144.76C1433.48,-136.44 1439.83,-126.1 1445.59,-116.73"/>
<polygon fill="black" stroke="black" points="1448.62,-118.48 1450.87,-108.12 1442.66,-114.81 1448.62,-118.48"/>
</g>
<!-- iterativewgcna&#45;&gt;conda&#45;forge&#45;pinning -->
<g id="edge46" class="edge">
<title>iterativewgcna&#45;&gt;conda&#45;forge&#45;pinning</title>
<path fill="none" stroke="black" d="M1408.48,-76.49C1359.73,-64.96 1287.13,-47.79 1233.97,-35.22"/>
<polygon fill="black" stroke="black" points="1234.48,-31.74 1223.94,-32.85 1232.87,-38.55 1234.48,-31.74"/>
</g>
<!-- r&#45;rvaidememoire -->
<g id="node24" class="node">
<title>r&#45;rvaidememoire</title>
<g id="a_node24"><a xlink:href="https://github.com/conda-forge/r-rvaidememoire-feedstock" xlink:title="r rvaidememoire">
<ellipse fill="#35b779" stroke="black" cx="1642.39" cy="-90" rx="84" ry="18"/>
<text text-anchor="middle" x="1642.39" y="-86.3" font-family="Times,serif" font-size="14.00">r rvaidememoire</text>
</a>
</g>
</g>
<!-- r&#45;rvaidememoire&#45;&gt;conda&#45;forge&#45;pinning -->
<g id="edge47" class="edge">
<title>r&#45;rvaidememoire&#45;&gt;conda&#45;forge&#45;pinning</title>
<path fill="none" stroke="black" d="M1581.43,-77.46C1570.76,-75.56 1559.77,-73.66 1549.39,-72 1449.71,-56.02 1334.99,-40.57 1257.09,-30.51"/>
<polygon fill="black" stroke="black" points="1257.19,-27 1246.83,-29.19 1256.3,-33.94 1257.19,-27"/>
</g>
<!-- r&#45;hiver -->
<g id="node25" class="node">
<title>r&#45;hiver</title>
<g id="a_node25"><a xlink:href="https://github.com/conda-forge/r-hiver-feedstock" xlink:title="r hiver">
<ellipse fill="#35b779" stroke="black" cx="1719.39" cy="-162" rx="45" ry="18"/>
<text text-anchor="middle" x="1719.39" y="-158.3" font-family="Times,serif" font-size="14.00">r hiver</text>
</a>
</g>
</g>
<!-- r&#45;hiver&#45;&gt;conda&#45;forge&#45;pinning -->
<g id="edge48" class="edge">
<title>r&#45;hiver&#45;&gt;conda&#45;forge&#45;pinning</title>
<path fill="none" stroke="black" d="M1729.68,-144.29C1740.42,-124.5 1753.37,-91.73 1735.39,-72 1705.22,-38.89 1434.83,-26.13 1277.55,-21.48"/>
<polygon fill="black" stroke="black" points="1277.45,-17.97 1267.35,-21.18 1277.25,-24.97 1277.45,-17.97"/>
</g>
<!-- r&#45;littler -->
<g id="node26" class="node">
<title>r&#45;littler</title>
<g id="a_node26"><a xlink:href="https://github.com/conda-forge/r-littler-feedstock/pull/2" xlink:title="r littler">
<ellipse fill="#31688e" stroke="black" cx="1792.39" cy="-234" rx="54.69" ry="18"/>
<text text-anchor="middle" x="1792.39" y="-230.3" font-family="Times,serif" font-size="14.00" fill="white">r littler</text>
</a>
</g>
</g>
<!-- r&#45;littler&#45;&gt;conda&#45;forge&#45;pinning -->
<g id="edge50" class="edge">
<title>r&#45;littler&#45;&gt;conda&#45;forge&#45;pinning</title>
<path fill="none" stroke="black" d="M1794.26,-215.83C1796.83,-182.25 1797.07,-108.04 1754.39,-72 1718.8,-41.94 1437.57,-27.86 1276.93,-22.22"/>
<polygon fill="black" stroke="black" points="1276.64,-18.7 1266.52,-21.86 1276.4,-25.7 1276.64,-18.7"/>
</g>
<!-- r&#45;rxode -->
<g id="node27" class="node">
<title>r&#45;rxode</title>
<g id="a_node27"><a xlink:href="https://github.com/conda-forge/r-rxode-feedstock/pull/3" xlink:title="r rxode">
<ellipse fill="#31688e" stroke="black" cx="1887.39" cy="-162" rx="45" ry="18"/>
<text text-anchor="middle" x="1887.39" y="-158.3" font-family="Times,serif" font-size="14.00" fill="white">r rxode</text>
</a>
</g>
</g>
<!-- r&#45;rxode&#45;&gt;conda&#45;forge&#45;pinning -->
<g id="edge51" class="edge">
<title>r&#45;rxode&#45;&gt;conda&#45;forge&#45;pinning</title>
<path fill="none" stroke="black" d="M1874.68,-144.32C1856.46,-120.93 1823.26,-80.3 1806.39,-72 1716.57,-27.78 1438.09,-19.51 1279.31,-18.51"/>
<polygon fill="black" stroke="black" points="1279.05,-15.01 1269.03,-18.46 1279.01,-22.01 1279.05,-15.01"/>
</g>
<!-- r&#45;nlmixr -->
<g id="node28" class="node">
<title>r&#45;nlmixr</title>
<g id="a_node28"><a xlink:href="https://github.com/conda-forge/r-nlmixr-feedstock" xlink:title="r nlmixr">
<ellipse fill="#fde725" stroke="black" cx="1908.39" cy="-90" rx="50.09" ry="18"/>
<text text-anchor="middle" x="1908.39" y="-86.3" font-family="Times,serif" font-size="14.00">r nlmixr</text>
</a>
</g>
</g>
<!-- r&#45;rxode&#45;&gt;r&#45;nlmixr -->
<g id="edge52" class="edge">
<title>r&#45;rxode&#45;&gt;r&#45;nlmixr</title>
<path fill="none" stroke="black" d="M1892.48,-144.05C1894.82,-136.26 1897.65,-126.82 1900.27,-118.08"/>
<polygon fill="black" stroke="black" points="1903.69,-118.86 1903.21,-108.28 1896.99,-116.85 1903.69,-118.86"/>
</g>
<!-- r&#45;nlmixr&#45;&gt;conda&#45;forge&#45;pinning -->
<g id="edge53" class="edge">
<title>r&#45;nlmixr&#45;&gt;conda&#45;forge&#45;pinning</title>
<path fill="none" stroke="black" d="M1871.08,-77.87C1862.39,-75.62 1853.12,-73.49 1844.39,-72 1646.73,-38.32 1412.99,-26 1277.7,-21.53"/>
<polygon fill="black" stroke="black" points="1277.44,-18.02 1267.33,-21.19 1277.22,-25.01 1277.44,-18.02"/>
</g>
<!-- r&#45;tiledb -->
<g id="node29" class="node">
<title>r&#45;tiledb</title>
<g id="a_node29"><a xlink:href="https://github.com/conda-forge/r-tiledb-feedstock/pull/5" xlink:title="r tiledb">
<ellipse fill="#31688e" stroke="black" cx="1946.39" cy="-306" rx="50.09" ry="18"/>
<text text-anchor="middle" x="1946.39" y="-302.3" font-family="Times,serif" font-size="14.00" fill="white">r tiledb</text>
</a>
</g>
</g>
<!-- r&#45;tiledb&#45;&gt;conda&#45;forge&#45;pinning -->
<g id="edge54" class="edge">
<title>r&#45;tiledb&#45;&gt;conda&#45;forge&#45;pinning</title>
<path fill="none" stroke="black" d="M1955.34,-288.18C1976.6,-245.63 2024.29,-132.78 1967.39,-72 1921.42,-22.89 1489.62,-17.69 1279.36,-18.12"/>
<polygon fill="black" stroke="black" points="1279.2,-14.62 1269.21,-18.14 1279.22,-21.62 1279.2,-14.62"/>
</g>
<!-- r&#45;raceid -->
<g id="node30" class="node">
<title>r&#45;raceid</title>
<g id="a_node30"><a xlink:href="https://github.com/conda-forge/r-raceid-feedstock" xlink:title="r raceid">
<ellipse fill="#35b779" stroke="black" cx="2024.39" cy="-378" rx="50.09" ry="18"/>
<text text-anchor="middle" x="2024.39" y="-374.3" font-family="Times,serif" font-size="14.00">r raceid</text>
</a>
</g>
</g>
<!-- r&#45;raceid&#45;&gt;conda&#45;forge&#45;pinning -->
<g id="edge55" class="edge">
<title>r&#45;raceid&#45;&gt;conda&#45;forge&#45;pinning</title>
<path fill="none" stroke="black" d="M2024.39,-359.95C2024.39,-333.29 2024.39,-280.11 2024.39,-235 2024.39,-235 2024.39,-235 2024.39,-161 2024.39,-118.97 2025.99,-97.27 1992.39,-72 1936.75,-30.15 1492.38,-21.29 1278.99,-19.45"/>
<polygon fill="black" stroke="black" points="1278.73,-15.95 1268.7,-19.37 1278.67,-22.95 1278.73,-15.95"/>
</g>
<!-- r&#45;botor -->
<g id="node31" class="node">
<title>r&#45;botor</title>
<g id="a_node31"><a xlink:href="https://github.com/conda-forge/r-botor-feedstock" xlink:title="r botor">
<ellipse fill="#fde725" stroke="black" cx="2097.39" cy="-90" rx="45" ry="18"/>
<text text-anchor="middle" x="2097.39" y="-86.3" font-family="Times,serif" font-size="14.00">r botor</text>
</a>
</g>
</g>
<!-- r&#45;botor&#45;&gt;conda&#45;forge&#45;pinning -->
<g id="edge56" class="edge">
<title>r&#45;botor&#45;&gt;conda&#45;forge&#45;pinning</title>
<path fill="none" stroke="black" d="M2063.68,-77.91C2055.49,-75.6 2046.69,-73.43 2038.39,-72 1895.01,-47.3 1477.08,-29.88 1276,-22.68"/>
<polygon fill="black" stroke="black" points="1276.12,-19.18 1266,-22.33 1275.87,-26.18 1276.12,-19.18"/>
</g>
<!-- r&#45;logger -->
<g id="node32" class="node">
<title>r&#45;logger</title>
<g id="a_node32"><a xlink:href="https://github.com/conda-forge/r-logger-feedstock" xlink:title="r logger">
<ellipse fill="#35b779" stroke="black" cx="2136.39" cy="-162" rx="50.09" ry="18"/>
<text text-anchor="middle" x="2136.39" y="-158.3" font-family="Times,serif" font-size="14.00">r logger</text>
</a>
</g>
</g>
<!-- r&#45;logger&#45;&gt;conda&#45;forge&#45;pinning -->
<g id="edge57" class="edge">
<title>r&#45;logger&#45;&gt;conda&#45;forge&#45;pinning</title>
<path fill="none" stroke="black" d="M2146.54,-144.16C2157.09,-124.24 2169.72,-91.33 2151.39,-72 2121.77,-40.74 1531.03,-25.9 1278.4,-20.96"/>
<polygon fill="black" stroke="black" points="1278.16,-17.46 1268.1,-20.76 1278.03,-24.45 1278.16,-17.46"/>
</g>
<!-- r&#45;logger&#45;&gt;r&#45;botor -->
<g id="edge58" class="edge">
<title>r&#45;logger&#45;&gt;r&#45;botor</title>
<path fill="none" stroke="black" d="M2126.95,-144.05C2122.35,-135.8 2116.73,-125.7 2111.62,-116.54"/>
<polygon fill="black" stroke="black" points="2114.67,-114.82 2106.75,-107.79 2108.56,-118.23 2114.67,-114.82"/>
</g>
<!-- r&#45;comparegroups -->
<g id="node33" class="node">
<title>r&#45;comparegroups</title>
<g id="a_node33"><a xlink:href="https://github.com/conda-forge/r-comparegroups-feedstock" xlink:title="r comparegroups">
<ellipse fill="#35b779" stroke="black" cx="2282.39" cy="-90" rx="84" ry="18"/>
<text text-anchor="middle" x="2282.39" y="-86.3" font-family="Times,serif" font-size="14.00">r comparegroups</text>
</a>
</g>
</g>
<!-- r&#45;comparegroups&#45;&gt;conda&#45;forge&#45;pinning -->
<g id="edge59" class="edge">
<title>r&#45;comparegroups&#45;&gt;conda&#45;forge&#45;pinning</title>
<path fill="none" stroke="black" d="M2222.18,-77.39C2209.72,-75.31 2196.66,-73.38 2184.39,-72 1856.82,-35.2 1467.08,-23.9 1278.62,-20.47"/>
<polygon fill="black" stroke="black" points="1278.48,-16.96 1268.42,-20.29 1278.36,-23.96 1278.48,-16.96"/>
</g>
</g>
</svg>
