<?xml version="1.0" encoding="UTF-8" standalone="no"?>
<!DOCTYPE svg PUBLIC "-//W3C//DTD SVG 1.1//EN"
 "http://www.w3.org/Graphics/SVG/1.1/DTD/svg11.dtd">
<!-- Generated by graphviz version 2.42.3 (20191010.1750)
 -->
<!-- Title: %3 Pages: 1 -->
<svg width="2524pt" height="476pt"
 viewBox="0.00 0.00 2524.39 476.00" xmlns="http://www.w3.org/2000/svg" xmlns:xlink="http://www.w3.org/1999/xlink">
<g id="graph0" class="graph" transform="scale(1 1) rotate(0) translate(4 472)">
<title>%3</title>
<polygon fill="white" stroke="transparent" points="-4,4 -4,-472 2520.39,-472 2520.39,4 -4,4"/>
<!-- r&#45;fst -->
<g id="node1" class="node">
<title>r&#45;fst</title>
<g id="a_node1"><a xlink:href="https://github.com/conda-forge/r-fst-feedstock/pull/11" xlink:title="r fst">
<ellipse fill="#31688e" stroke="black" cx="38.39" cy="-162" rx="35.19" ry="18"/>
<text text-anchor="middle" x="38.39" y="-158.3" font-family="Times,serif" font-size="14.00" fill="white">r fst</text>
</a>
</g>
</g>
<!-- r&#45;disk.frame -->
<g id="node2" class="node">
<title>r&#45;disk.frame</title>
<g id="a_node2"><a xlink:href="https://github.com/conda-forge/r-disk.frame-feedstock" xlink:title="r disk frame">
<ellipse fill="#fde725" stroke="black" cx="87.39" cy="-90" rx="69.59" ry="18"/>
<text text-anchor="middle" x="87.39" y="-86.3" font-family="Times,serif" font-size="14.00">r disk frame</text>
</a>
</g>
</g>
<!-- r&#45;fst&#45;&gt;r&#45;disk.frame -->
<g id="edge1" class="edge">
<title>r&#45;fst&#45;&gt;r&#45;disk.frame</title>
<path fill="none" stroke="black" d="M49.76,-144.76C55.65,-136.35 62.97,-125.89 69.59,-116.44"/>
<polygon fill="black" stroke="black" points="72.54,-118.32 75.41,-108.12 66.81,-114.31 72.54,-118.32"/>
</g>
<!-- conda&#45;forge&#45;pinning -->
<g id="node3" class="node">
<title>conda&#45;forge&#45;pinning</title>
<ellipse fill="none" stroke="black" cx="1166.39" cy="-18" rx="103.5" ry="18"/>
<text text-anchor="middle" x="1166.39" y="-14.3" font-family="Times,serif" font-size="14.00">conda&#45;forge&#45;pinning</text>
</g>
<!-- r&#45;fst&#45;&gt;conda&#45;forge&#45;pinning -->
<g id="edge2" class="edge">
<title>r&#45;fst&#45;&gt;conda&#45;forge&#45;pinning</title>
<path fill="none" stroke="black" d="M24.57,-145.09C9.22,-125.48 -10.98,-92.28 8.39,-72 44.1,-34.63 768.4,-23.1 1052.99,-20.01"/>
<polygon fill="black" stroke="black" points="1053.38,-23.51 1063.34,-19.9 1053.3,-16.51 1053.38,-23.51"/>
</g>
<!-- r&#45;disk.frame&#45;&gt;conda&#45;forge&#45;pinning -->
<g id="edge3" class="edge">
<title>r&#45;disk.frame&#45;&gt;conda&#45;forge&#45;pinning</title>
<path fill="none" stroke="black" d="M137.83,-77.55C148.84,-75.39 160.47,-73.39 171.39,-72 489.24,-31.59 868,-21.91 1053.15,-19.65"/>
<polygon fill="black" stroke="black" points="1053.22,-23.15 1063.18,-19.53 1053.14,-16.15 1053.22,-23.15"/>
</g>
<!-- r&#45;hive -->
<g id="node4" class="node">
<title>r&#45;hive</title>
<g id="a_node4"><a xlink:href="https://github.com/conda-forge/r-hive-feedstock" xlink:title="r hive">
<ellipse fill="#fde725" stroke="black" cx="1140.39" cy="-378" rx="40.5" ry="18"/>
<text text-anchor="middle" x="1140.39" y="-374.3" font-family="Times,serif" font-size="14.00">r hive</text>
</a>
</g>
</g>
<!-- r&#45;hive&#45;&gt;conda&#45;forge&#45;pinning -->
<g id="edge4" class="edge">
<title>r&#45;hive&#45;&gt;conda&#45;forge&#45;pinning</title>
<path fill="none" stroke="black" d="M1123.72,-361.22C1114.18,-351.34 1102.69,-337.89 1095.39,-324 1076.34,-287.73 1071.39,-275.97 1071.39,-235 1071.39,-235 1071.39,-235 1071.39,-161 1071.39,-120.03 1072.38,-105.89 1095.39,-72 1103.67,-59.81 1115.69,-49.33 1127.49,-40.98"/>
<polygon fill="black" stroke="black" points="1129.63,-43.75 1135.99,-35.28 1125.74,-37.94 1129.63,-43.75"/>
</g>
<!-- r&#45;rjava -->
<g id="node5" class="node">
<title>r&#45;rjava</title>
<g id="a_node5"><a xlink:href="https://github.com/conda-forge/r-rjava-feedstock" xlink:title="r rjava">
<ellipse fill="#35b779" stroke="black" cx="771.39" cy="-450" rx="45" ry="18"/>
<text text-anchor="middle" x="771.39" y="-446.3" font-family="Times,serif" font-size="14.00">r rjava</text>
</a>
</g>
</g>
<!-- r&#45;rjava&#45;&gt;conda&#45;forge&#45;pinning -->
<g id="edge5" class="edge">
<title>r&#45;rjava&#45;&gt;conda&#45;forge&#45;pinning</title>
<path fill="none" stroke="black" d="M815.7,-446.64C918.23,-440.73 1164.94,-423.75 1189.39,-396 1199.97,-384 1194.45,-375.18 1189.39,-360 1183.07,-341.03 1173.53,-340.62 1162.39,-324 1136.77,-285.75 1109.39,-281.04 1109.39,-235 1109.39,-235 1109.39,-235 1109.39,-161 1109.39,-117.8 1132.39,-72.19 1149.17,-44.66"/>
<polygon fill="black" stroke="black" points="1152.23,-46.37 1154.58,-36.04 1146.3,-42.65 1152.23,-46.37"/>
</g>
<!-- r&#45;rjava&#45;&gt;r&#45;hive -->
<g id="edge6" class="edge">
<title>r&#45;rjava&#45;&gt;r&#45;hive</title>
<path fill="none" stroke="black" d="M814.16,-444.15C875.8,-436.64 992.93,-420.49 1090.39,-396 1093.74,-395.16 1097.18,-394.2 1100.62,-393.17"/>
<polygon fill="black" stroke="black" points="1101.74,-396.49 1110.22,-390.14 1099.63,-389.81 1101.74,-396.49"/>
</g>
<!-- r&#45;xlsx -->
<g id="node6" class="node">
<title>r&#45;xlsx</title>
<g id="a_node6"><a xlink:href="https://github.com/conda-forge/r-xlsx-feedstock" xlink:title="r xlsx">
<ellipse fill="#fde725" stroke="black" cx="254.39" cy="-306" rx="40.5" ry="18"/>
<text text-anchor="middle" x="254.39" y="-302.3" font-family="Times,serif" font-size="14.00">r xlsx</text>
</a>
</g>
</g>
<!-- r&#45;rjava&#45;&gt;r&#45;xlsx -->
<g id="edge7" class="edge">
<title>r&#45;rjava&#45;&gt;r&#45;xlsx</title>
<path fill="none" stroke="black" d="M726.45,-448.74C624.25,-447.38 377.98,-439.55 309.39,-396 286.73,-381.61 271.9,-354.16 263.42,-333.54"/>
<polygon fill="black" stroke="black" points="266.62,-332.12 259.75,-324.05 260.09,-334.64 266.62,-332.12"/>
</g>
<!-- r&#45;xlsxjars -->
<g id="node7" class="node">
<title>r&#45;xlsxjars</title>
<g id="a_node7"><a xlink:href="https://github.com/conda-forge/r-xlsxjars-feedstock" xlink:title="r xlsxjars">
<ellipse fill="#fde725" stroke="black" cx="197.39" cy="-378" rx="60" ry="18"/>
<text text-anchor="middle" x="197.39" y="-374.3" font-family="Times,serif" font-size="14.00">r xlsxjars</text>
</a>
</g>
</g>
<!-- r&#45;rjava&#45;&gt;r&#45;xlsxjars -->
<g id="edge8" class="edge">
<title>r&#45;rjava&#45;&gt;r&#45;xlsxjars</title>
<path fill="none" stroke="black" d="M727.35,-446.12C639.96,-440.01 438.64,-423.97 271.39,-396 265.08,-394.94 258.5,-393.68 251.98,-392.32"/>
<polygon fill="black" stroke="black" points="252.35,-388.82 241.83,-390.12 250.86,-395.66 252.35,-388.82"/>
</g>
<!-- r&#45;xlconnectjars -->
<g id="node8" class="node">
<title>r&#45;xlconnectjars</title>
<g id="a_node8"><a xlink:href="https://github.com/conda-forge/r-xlconnectjars-feedstock" xlink:title="r xlconnectjars">
<ellipse fill="#fde725" stroke="black" cx="1321.39" cy="-378" rx="84" ry="18"/>
<text text-anchor="middle" x="1321.39" y="-374.3" font-family="Times,serif" font-size="14.00">r xlconnectjars</text>
</a>
</g>
</g>
<!-- r&#45;rjava&#45;&gt;r&#45;xlconnectjars -->
<g id="edge9" class="edge">
<title>r&#45;rjava&#45;&gt;r&#45;xlconnectjars</title>
<path fill="none" stroke="black" d="M814.5,-444.74C895.02,-436.62 1073.66,-417.75 1223.39,-396 1231.9,-394.76 1240.8,-393.37 1249.62,-391.92"/>
<polygon fill="black" stroke="black" points="1250.24,-395.36 1259.53,-390.26 1249.09,-388.46 1250.24,-395.36"/>
</g>
<!-- r&#45;xlconnect -->
<g id="node9" class="node">
<title>r&#45;xlconnect</title>
<g id="a_node9"><a xlink:href="https://github.com/conda-forge/r-xlconnect-feedstock" xlink:title="r xlconnect">
<ellipse fill="#fde725" stroke="black" cx="1321.39" cy="-306" rx="64.5" ry="18"/>
<text text-anchor="middle" x="1321.39" y="-302.3" font-family="Times,serif" font-size="14.00">r xlconnect</text>
</a>
</g>
</g>
<!-- r&#45;rjava&#45;&gt;r&#45;xlconnect -->
<g id="edge10" class="edge">
<title>r&#45;rjava&#45;&gt;r&#45;xlconnect</title>
<path fill="none" stroke="black" d="M816.3,-448.73C955.69,-447.43 1373.99,-439.87 1414.39,-396 1425.23,-384.23 1422.43,-373.83 1414.39,-360 1405.11,-344.02 1388.99,-332.45 1372.76,-324.29"/>
<polygon fill="black" stroke="black" points="1373.79,-320.9 1363.24,-319.86 1370.84,-327.25 1373.79,-320.9"/>
</g>
<!-- r&#45;rcdklibs -->
<g id="node10" class="node">
<title>r&#45;rcdklibs</title>
<g id="a_node10"><a xlink:href="https://github.com/conda-forge/r-rcdklibs-feedstock" xlink:title="r rcdklibs">
<ellipse fill="#fde725" stroke="black" cx="430.39" cy="-378" rx="60" ry="18"/>
<text text-anchor="middle" x="430.39" y="-374.3" font-family="Times,serif" font-size="14.00">r rcdklibs</text>
</a>
</g>
</g>
<!-- r&#45;rjava&#45;&gt;r&#45;rcdklibs -->
<g id="edge11" class="edge">
<title>r&#45;rjava&#45;&gt;r&#45;rcdklibs</title>
<path fill="none" stroke="black" d="M732.28,-440.97C672.42,-428.68 557.74,-405.14 488.24,-390.88"/>
<polygon fill="black" stroke="black" points="488.83,-387.42 478.33,-388.84 487.42,-394.28 488.83,-387.42"/>
</g>
<!-- r&#45;rcdk -->
<g id="node11" class="node">
<title>r&#45;rcdk</title>
<g id="a_node11"><a xlink:href="https://github.com/conda-forge/r-rcdk-feedstock" xlink:title="r rcdk">
<ellipse fill="#fde725" stroke="black" cx="430.39" cy="-306" rx="40.5" ry="18"/>
<text text-anchor="middle" x="430.39" y="-302.3" font-family="Times,serif" font-size="14.00">r rcdk</text>
</a>
</g>
</g>
<!-- r&#45;rjava&#45;&gt;r&#45;rcdk -->
<g id="edge12" class="edge">
<title>r&#45;rjava&#45;&gt;r&#45;rcdk</title>
<path fill="none" stroke="black" d="M739.68,-437.17C711.82,-426.67 670.24,-410.75 634.39,-396 575.51,-371.78 507.9,-341.86 467.2,-323.62"/>
<polygon fill="black" stroke="black" points="468.51,-320.37 457.95,-319.46 465.64,-326.75 468.51,-320.37"/>
</g>
<!-- r&#45;rchoicedialogs -->
<g id="node12" class="node">
<title>r&#45;rchoicedialogs</title>
<g id="a_node12"><a xlink:href="https://github.com/conda-forge/r-rchoicedialogs-feedstock" xlink:title="r rchoicedialogs">
<ellipse fill="#fde725" stroke="black" cx="578.39" cy="-306" rx="89.08" ry="18"/>
<text text-anchor="middle" x="578.39" y="-302.3" font-family="Times,serif" font-size="14.00">r rchoicedialogs</text>
</a>
</g>
</g>
<!-- r&#45;rjava&#45;&gt;r&#45;rchoicedialogs -->
<g id="edge13" class="edge">
<title>r&#45;rjava&#45;&gt;r&#45;rchoicedialogs</title>
<path fill="none" stroke="black" d="M745.01,-435.12C726.65,-425.06 701.87,-410.69 681.39,-396 653.26,-375.81 623.58,-349.57 603.35,-330.82"/>
<polygon fill="black" stroke="black" points="605.51,-328.06 595.82,-323.79 600.73,-333.17 605.51,-328.06"/>
</g>
<!-- r&#45;rwekajars -->
<g id="node13" class="node">
<title>r&#45;rwekajars</title>
<g id="a_node13"><a xlink:href="https://github.com/conda-forge/r-rwekajars-feedstock" xlink:title="r rwekajars">
<ellipse fill="#fde725" stroke="black" cx="595.39" cy="-234" rx="64.5" ry="18"/>
<text text-anchor="middle" x="595.39" y="-230.3" font-family="Times,serif" font-size="14.00">r rwekajars</text>
</a>
</g>
</g>
<!-- r&#45;rjava&#45;&gt;r&#45;rwekajars -->
<g id="edge14" class="edge">
<title>r&#45;rjava&#45;&gt;r&#45;rwekajars</title>
<path fill="none" stroke="black" d="M752.65,-433.33C741.81,-423.49 728.54,-410.04 719.39,-396 691.19,-352.71 709.09,-328.01 676.39,-288 665.47,-274.64 650.28,-263.47 636,-254.88"/>
<polygon fill="black" stroke="black" points="637.69,-251.81 627.27,-249.87 634.21,-257.89 637.69,-251.81"/>
</g>
<!-- r&#45;rweka -->
<g id="node14" class="node">
<title>r&#45;rweka</title>
<g id="a_node14"><a xlink:href="https://github.com/conda-forge/r-rweka-feedstock" xlink:title="r rweka">
<ellipse fill="#fde725" stroke="black" cx="674.39" cy="-162" rx="45" ry="18"/>
<text text-anchor="middle" x="674.39" y="-158.3" font-family="Times,serif" font-size="14.00">r rweka</text>
</a>
</g>
</g>
<!-- r&#45;rjava&#45;&gt;r&#45;rweka -->
<g id="edge15" class="edge">
<title>r&#45;rjava&#45;&gt;r&#45;rweka</title>
<path fill="none" stroke="black" d="M765.62,-431.97C749.34,-383.98 703.02,-247.41 683.38,-189.49"/>
<polygon fill="black" stroke="black" points="686.67,-188.29 680.14,-179.94 680.04,-190.54 686.67,-188.29"/>
</g>
<!-- r&#45;subspace -->
<g id="node15" class="node">
<title>r&#45;subspace</title>
<g id="a_node15"><a xlink:href="https://github.com/conda-forge/r-subspace-feedstock" xlink:title="r subspace">
<ellipse fill="#fde725" stroke="black" cx="776.39" cy="-234" rx="60" ry="18"/>
<text text-anchor="middle" x="776.39" y="-230.3" font-family="Times,serif" font-size="14.00">r subspace</text>
</a>
</g>
</g>
<!-- r&#45;rjava&#45;&gt;r&#45;subspace -->
<g id="edge16" class="edge">
<title>r&#45;rjava&#45;&gt;r&#45;subspace</title>
<path fill="none" stroke="black" d="M771.79,-431.85C772.66,-394.83 774.71,-307.18 775.75,-262.39"/>
<polygon fill="black" stroke="black" points="779.26,-262.31 775.99,-252.23 772.26,-262.15 779.26,-262.31"/>
</g>
<!-- r&#45;rmcfs -->
<g id="node16" class="node">
<title>r&#45;rmcfs</title>
<g id="a_node16"><a xlink:href="https://github.com/conda-forge/r-rmcfs-feedstock" xlink:title="r rmcfs">
<ellipse fill="#fde725" stroke="black" cx="849.39" cy="-162" rx="45" ry="18"/>
<text text-anchor="middle" x="849.39" y="-158.3" font-family="Times,serif" font-size="14.00">r rmcfs</text>
</a>
</g>
</g>
<!-- r&#45;rjava&#45;&gt;r&#45;rmcfs -->
<g id="edge17" class="edge">
<title>r&#45;rjava&#45;&gt;r&#45;rmcfs</title>
<path fill="none" stroke="black" d="M777.89,-432.13C795.6,-386.14 843.48,-261.33 845.39,-252 849.56,-231.67 850.46,-208.21 850.37,-190.48"/>
<polygon fill="black" stroke="black" points="853.87,-190.2 850.21,-180.26 846.87,-190.31 853.87,-190.2"/>
</g>
<!-- r&#45;rjdbc -->
<g id="node17" class="node">
<title>r&#45;rjdbc</title>
<g id="a_node17"><a xlink:href="https://github.com/conda-forge/r-rjdbc-feedstock" xlink:title="r rjdbc">
<ellipse fill="#fde725" stroke="black" cx="922.39" cy="-90" rx="45" ry="18"/>
<text text-anchor="middle" x="922.39" y="-86.3" font-family="Times,serif" font-size="14.00">r rjdbc</text>
</a>
</g>
</g>
<!-- r&#45;rjava&#45;&gt;r&#45;rjdbc -->
<g id="edge18" class="edge">
<title>r&#45;rjava&#45;&gt;r&#45;rjdbc</title>
<path fill="none" stroke="black" d="M786.27,-432.68C794.94,-422.61 805.65,-409.15 813.39,-396 839.79,-351.2 887.9,-229.64 903.39,-180 909.78,-159.55 914.73,-135.79 917.98,-117.96"/>
<polygon fill="black" stroke="black" points="921.45,-118.42 919.73,-107.97 914.55,-117.21 921.45,-118.42"/>
</g>
<!-- r&#45;tabulizer -->
<g id="node18" class="node">
<title>r&#45;tabulizer</title>
<g id="a_node18"><a xlink:href="https://github.com/conda-forge/r-tabulizer-feedstock" xlink:title="r tabulizer">
<ellipse fill="#fde725" stroke="black" cx="940.39" cy="-306" rx="64.5" ry="18"/>
<text text-anchor="middle" x="940.39" y="-302.3" font-family="Times,serif" font-size="14.00">r tabulizer</text>
</a>
</g>
</g>
<!-- r&#45;rjava&#45;&gt;r&#45;tabulizer -->
<g id="edge19" class="edge">
<title>r&#45;rjava&#45;&gt;r&#45;tabulizer</title>
<path fill="none" stroke="black" d="M799.22,-435.52C817.78,-425.85 842.21,-411.78 861.39,-396 884.6,-376.9 906.94,-350.77 921.91,-331.77"/>
<polygon fill="black" stroke="black" points="924.69,-333.89 928.05,-323.84 919.16,-329.6 924.69,-333.89"/>
</g>
<!-- r&#45;tabulizerjars -->
<g id="node19" class="node">
<title>r&#45;tabulizerjars</title>
<g id="a_node19"><a xlink:href="https://github.com/conda-forge/r-tabulizerjars-feedstock" xlink:title="r tabulizerjars">
<ellipse fill="#fde725" stroke="black" cx="997.39" cy="-378" rx="84" ry="18"/>
<text text-anchor="middle" x="997.39" y="-374.3" font-family="Times,serif" font-size="14.00">r tabulizerjars</text>
</a>
</g>
</g>
<!-- r&#45;rjava&#45;&gt;r&#45;tabulizerjars -->
<g id="edge20" class="edge">
<title>r&#45;rjava&#45;&gt;r&#45;tabulizerjars</title>
<path fill="none" stroke="black" d="M806.21,-438.22C842.4,-427.01 899.56,-409.3 941.96,-396.17"/>
<polygon fill="black" stroke="black" points="943.07,-399.49 951.59,-393.19 941,-392.8 943.07,-399.49"/>
</g>
<!-- r&#45;destinie -->
<g id="node20" class="node">
<title>r&#45;destinie</title>
<g id="a_node20"><a xlink:href="https://github.com/conda-forge/r-destinie-feedstock" xlink:title="r destinie">
<ellipse fill="#fde725" stroke="black" cx="317.39" cy="-234" rx="60" ry="18"/>
<text text-anchor="middle" x="317.39" y="-230.3" font-family="Times,serif" font-size="14.00">r destinie</text>
</a>
</g>
</g>
<!-- r&#45;rjava&#45;&gt;r&#45;destinie -->
<g id="edge21" class="edge">
<title>r&#45;rjava&#45;&gt;r&#45;destinie</title>
<path fill="none" stroke="black" d="M726.41,-449.26C631.49,-448.86 415.06,-442.71 361.39,-396 322.87,-362.46 316.54,-298.78 316.33,-262.37"/>
<polygon fill="black" stroke="black" points="319.83,-262.04 316.43,-252 312.83,-261.97 319.83,-262.04"/>
</g>
<!-- r&#45;xlsx&#45;&gt;conda&#45;forge&#45;pinning -->
<g id="edge22" class="edge">
<title>r&#45;xlsx&#45;&gt;conda&#45;forge&#45;pinning</title>
<path fill="none" stroke="black" d="M249.54,-288.12C245.12,-269.86 240.42,-240.11 248.39,-216 273.44,-140.3 285.36,-110.12 355.39,-72 415.18,-39.46 845.62,-25.86 1053.97,-21.14"/>
<polygon fill="black" stroke="black" points="1054.11,-24.64 1064.03,-20.91 1053.95,-17.64 1054.11,-24.64"/>
</g>
<!-- r&#45;xlsx&#45;&gt;r&#45;destinie -->
<g id="edge23" class="edge">
<title>r&#45;xlsx&#45;&gt;r&#45;destinie</title>
<path fill="none" stroke="black" d="M268.69,-289.12C276.6,-280.33 286.59,-269.23 295.46,-259.37"/>
<polygon fill="black" stroke="black" points="298.19,-261.57 302.28,-251.8 292.99,-256.89 298.19,-261.57"/>
</g>
<!-- r&#45;xlsxjars&#45;&gt;conda&#45;forge&#45;pinning -->
<g id="edge24" class="edge">
<title>r&#45;xlsxjars&#45;&gt;conda&#45;forge&#45;pinning</title>
<path fill="none" stroke="black" d="M195.02,-359.99C191.53,-333.38 185.39,-280.28 185.39,-235 185.39,-235 185.39,-235 185.39,-161 185.39,-96.02 240.53,-94.76 301.39,-72 370.19,-46.28 837.34,-28.96 1055.09,-22.19"/>
<polygon fill="black" stroke="black" points="1055.38,-25.68 1065.26,-21.87 1055.16,-18.69 1055.38,-25.68"/>
</g>
<!-- r&#45;xlsxjars&#45;&gt;r&#45;xlsx -->
<g id="edge25" class="edge">
<title>r&#45;xlsxjars&#45;&gt;r&#45;xlsx</title>
<path fill="none" stroke="black" d="M210.9,-360.41C217.93,-351.78 226.66,-341.06 234.45,-331.5"/>
<polygon fill="black" stroke="black" points="237.38,-333.43 240.98,-323.47 231.95,-329.01 237.38,-333.43"/>
</g>
<!-- r&#45;xlconnectjars&#45;&gt;conda&#45;forge&#45;pinning -->
<g id="edge26" class="edge">
<title>r&#45;xlconnectjars&#45;&gt;conda&#45;forge&#45;pinning</title>
<path fill="none" stroke="black" d="M1277.04,-362.66C1225.48,-342.87 1147.39,-301.87 1147.39,-235 1147.39,-235 1147.39,-235 1147.39,-161 1147.39,-120.86 1154.94,-74.9 1160.53,-46.4"/>
<polygon fill="black" stroke="black" points="1164,-46.88 1162.55,-36.39 1157.14,-45.5 1164,-46.88"/>
</g>
<!-- r&#45;xlconnectjars&#45;&gt;r&#45;xlconnect -->
<g id="edge27" class="edge">
<title>r&#45;xlconnectjars&#45;&gt;r&#45;xlconnect</title>
<path fill="none" stroke="black" d="M1321.39,-359.7C1321.39,-351.98 1321.39,-342.71 1321.39,-334.11"/>
<polygon fill="black" stroke="black" points="1324.89,-334.1 1321.39,-324.1 1317.89,-334.1 1324.89,-334.1"/>
</g>
<!-- r&#45;xlconnect&#45;&gt;conda&#45;forge&#45;pinning -->
<g id="edge28" class="edge">
<title>r&#45;xlconnect&#45;&gt;conda&#45;forge&#45;pinning</title>
<path fill="none" stroke="black" d="M1310.28,-288.04C1288.5,-254.46 1239.33,-176.81 1204.39,-108 1193.98,-87.49 1183.84,-63.47 1176.66,-45.55"/>
<polygon fill="black" stroke="black" points="1179.82,-44.04 1172.89,-36.03 1173.32,-46.62 1179.82,-44.04"/>
</g>
<!-- r&#45;rcdklibs&#45;&gt;conda&#45;forge&#45;pinning -->
<g id="edge29" class="edge">
<title>r&#45;rcdklibs&#45;&gt;conda&#45;forge&#45;pinning</title>
<path fill="none" stroke="black" d="M409.1,-361.11C398.29,-351.68 386.23,-338.7 380.39,-324 374.49,-309.13 376.02,-303.39 380.39,-288 411.46,-178.65 419.43,-129.68 517.39,-72 562.52,-45.43 882.38,-29.55 1055.59,-22.81"/>
<polygon fill="black" stroke="black" points="1055.9,-26.3 1065.76,-22.42 1055.63,-19.31 1055.9,-26.3"/>
</g>
<!-- r&#45;rcdklibs&#45;&gt;r&#45;rcdk -->
<g id="edge30" class="edge">
<title>r&#45;rcdklibs&#45;&gt;r&#45;rcdk</title>
<path fill="none" stroke="black" d="M430.39,-359.7C430.39,-351.98 430.39,-342.71 430.39,-334.11"/>
<polygon fill="black" stroke="black" points="433.89,-334.1 430.39,-324.1 426.89,-334.1 433.89,-334.1"/>
</g>
<!-- r&#45;rcdk&#45;&gt;conda&#45;forge&#45;pinning -->
<g id="edge31" class="edge">
<title>r&#45;rcdk&#45;&gt;conda&#45;forge&#45;pinning</title>
<path fill="none" stroke="black" d="M434.02,-288.07C444.49,-243.72 479.33,-124.02 559.39,-72 599.96,-45.65 892.46,-29.89 1056.16,-23.05"/>
<polygon fill="black" stroke="black" points="1056.42,-26.54 1066.27,-22.63 1056.13,-19.55 1056.42,-26.54"/>
</g>
<!-- r&#45;rchoicedialogs&#45;&gt;conda&#45;forge&#45;pinning -->
<g id="edge32" class="edge">
<title>r&#45;rchoicedialogs&#45;&gt;conda&#45;forge&#45;pinning</title>
<path fill="none" stroke="black" d="M552.71,-288.61C540.8,-279.44 527.87,-266.87 521.39,-252 515,-237.33 517.26,-231.46 521.39,-216 540.49,-144.64 542.24,-111.92 604.39,-72 641.52,-48.15 904.6,-31.63 1057.3,-23.92"/>
<polygon fill="black" stroke="black" points="1057.84,-27.4 1067.65,-23.41 1057.49,-20.41 1057.84,-27.4"/>
</g>
<!-- r&#45;rwekajars&#45;&gt;conda&#45;forge&#45;pinning -->
<g id="edge33" class="edge">
<title>r&#45;rwekajars&#45;&gt;conda&#45;forge&#45;pinning</title>
<path fill="none" stroke="black" d="M593.64,-215.96C591.26,-182.61 591.36,-108.79 633.39,-72 664.48,-44.78 909.32,-29.81 1056.12,-23.2"/>
<polygon fill="black" stroke="black" points="1056.68,-26.68 1066.51,-22.74 1056.37,-19.69 1056.68,-26.68"/>
</g>
<!-- r&#45;rwekajars&#45;&gt;r&#45;rweka -->
<g id="edge34" class="edge">
<title>r&#45;rwekajars&#45;&gt;r&#45;rweka</title>
<path fill="none" stroke="black" d="M614.12,-216.41C624.57,-207.15 637.74,-195.48 649.1,-185.41"/>
<polygon fill="black" stroke="black" points="651.46,-188 656.62,-178.75 646.81,-182.76 651.46,-188"/>
</g>
<!-- r&#45;rweka&#45;&gt;conda&#45;forge&#45;pinning -->
<g id="edge35" class="edge">
<title>r&#45;rweka&#45;&gt;conda&#45;forge&#45;pinning</title>
<path fill="none" stroke="black" d="M660.22,-144.58C645.14,-125.07 625.81,-92.57 644.39,-72 671.38,-42.13 909.96,-28.24 1055.07,-22.51"/>
<polygon fill="black" stroke="black" points="1055.49,-25.99 1065.35,-22.11 1055.22,-19 1055.49,-25.99"/>
</g>
<!-- r&#45;fselector -->
<g id="node21" class="node">
<title>r&#45;fselector</title>
<g id="a_node21"><a xlink:href="https://github.com/conda-forge/r-fselector-feedstock" xlink:title="r fselector">
<ellipse fill="#fde725" stroke="black" cx="718.39" cy="-90" rx="64.5" ry="18"/>
<text text-anchor="middle" x="718.39" y="-86.3" font-family="Times,serif" font-size="14.00">r fselector</text>
</a>
</g>
</g>
<!-- r&#45;rweka&#45;&gt;r&#45;fselector -->
<g id="edge36" class="edge">
<title>r&#45;rweka&#45;&gt;r&#45;fselector</title>
<path fill="none" stroke="black" d="M684.82,-144.41C690.06,-136.08 696.52,-125.8 702.37,-116.49"/>
<polygon fill="black" stroke="black" points="705.38,-118.29 707.74,-107.96 699.45,-114.56 705.38,-118.29"/>
</g>
<!-- r&#45;subspace&#45;&gt;conda&#45;forge&#45;pinning -->
<g id="edge37" class="edge">
<title>r&#45;subspace&#45;&gt;conda&#45;forge&#45;pinning</title>
<path fill="none" stroke="black" d="M777.88,-215.81C781.92,-181.16 796.51,-103.55 847.39,-72 882.97,-49.94 985.34,-35.6 1064.62,-27.47"/>
<polygon fill="black" stroke="black" points="1065.06,-30.94 1074.66,-26.46 1064.36,-23.98 1065.06,-30.94"/>
</g>
<!-- r&#45;rmcfs&#45;&gt;conda&#45;forge&#45;pinning -->
<g id="edge38" class="edge">
<title>r&#45;rmcfs&#45;&gt;conda&#45;forge&#45;pinning</title>
<path fill="none" stroke="black" d="M847.85,-143.94C847.04,-123.79 849.08,-90.66 868.39,-72 895.46,-45.84 985.56,-32.37 1059.67,-25.57"/>
<polygon fill="black" stroke="black" points="1060.36,-29.02 1070.01,-24.65 1059.74,-22.05 1060.36,-29.02"/>
</g>
<!-- r&#45;rjdbc&#45;&gt;conda&#45;forge&#45;pinning -->
<g id="edge39" class="edge">
<title>r&#45;rjdbc&#45;&gt;conda&#45;forge&#45;pinning</title>
<path fill="none" stroke="black" d="M957.96,-78.74C965.68,-76.52 973.81,-74.18 981.39,-72 1022.63,-60.15 1069.05,-46.85 1105.08,-36.54"/>
<polygon fill="black" stroke="black" points="1106.3,-39.83 1114.95,-33.71 1104.37,-33.1 1106.3,-39.83"/>
</g>
<!-- r&#45;tabulizer&#45;&gt;conda&#45;forge&#45;pinning -->
<g id="edge40" class="edge">
<title>r&#45;tabulizer&#45;&gt;conda&#45;forge&#45;pinning</title>
<path fill="none" stroke="black" d="M941.3,-287.76C944.44,-245.23 958.37,-134.2 1019.39,-72 1037.09,-53.96 1061.38,-42.03 1085.11,-34.15"/>
<polygon fill="black" stroke="black" points="1086.36,-37.43 1094.87,-31.12 1084.29,-30.74 1086.36,-37.43"/>
</g>
<!-- r&#45;tabulizerjars&#45;&gt;conda&#45;forge&#45;pinning -->
<g id="edge41" class="edge">
<title>r&#45;tabulizerjars&#45;&gt;conda&#45;forge&#45;pinning</title>
<path fill="none" stroke="black" d="M1004.68,-359.87C1015.2,-333.53 1033.39,-281.29 1033.39,-235 1033.39,-235 1033.39,-235 1033.39,-161 1033.39,-117.63 1044.23,-104.1 1073.39,-72 1085.62,-58.55 1102.08,-47.64 1117.75,-39.29"/>
<polygon fill="black" stroke="black" points="1119.51,-42.32 1126.85,-34.68 1116.35,-36.08 1119.51,-42.32"/>
</g>
<!-- r&#45;tabulizerjars&#45;&gt;r&#45;tabulizer -->
<g id="edge42" class="edge">
<title>r&#45;tabulizerjars&#45;&gt;r&#45;tabulizer</title>
<path fill="none" stroke="black" d="M983.6,-360.05C976.66,-351.54 968.14,-341.07 960.49,-331.68"/>
<polygon fill="black" stroke="black" points="963.09,-329.33 954.07,-323.79 957.67,-333.75 963.09,-329.33"/>
</g>
<!-- r&#45;destinie&#45;&gt;conda&#45;forge&#45;pinning -->
<g id="edge43" class="edge">
<title>r&#45;destinie&#45;&gt;conda&#45;forge&#45;pinning</title>
<path fill="none" stroke="black" d="M319.55,-216C324.84,-182.04 341.9,-106.16 391.39,-72 444.5,-35.34 851.39,-23.87 1053.38,-20.42"/>
<polygon fill="black" stroke="black" points="1053.49,-23.92 1063.43,-20.25 1053.37,-16.92 1053.49,-23.92"/>
</g>
<!-- r&#45;fselector&#45;&gt;conda&#45;forge&#45;pinning -->
<g id="edge52" class="edge">
<title>r&#45;fselector&#45;&gt;conda&#45;forge&#45;pinning</title>
<path fill="none" stroke="black" d="M766.75,-78.04C776.85,-75.91 787.45,-73.78 797.39,-72 891.25,-55.18 999.28,-40.17 1074.09,-30.45"/>
<polygon fill="black" stroke="black" points="1074.96,-33.87 1084.42,-29.12 1074.06,-26.93 1074.96,-33.87"/>
</g>
<!-- r&#45;taxizesoap -->
<g id="node22" class="node">
<title>r&#45;taxizesoap</title>
<g id="a_node22"><a xlink:href="https://github.com/conda-forge/r-taxizesoap-feedstock" xlink:title="r taxizesoap">
<ellipse fill="#35b779" stroke="black" cx="1283.39" cy="-90" rx="69.59" ry="18"/>
<text text-anchor="middle" x="1283.39" y="-86.3" font-family="Times,serif" font-size="14.00">r taxizesoap</text>
</a>
</g>
</g>
<!-- r&#45;taxizesoap&#45;&gt;conda&#45;forge&#45;pinning -->
<g id="edge44" class="edge">
<title>r&#45;taxizesoap&#45;&gt;conda&#45;forge&#45;pinning</title>
<path fill="none" stroke="black" d="M1257.14,-73.29C1241.07,-63.68 1220.29,-51.25 1202.67,-40.7"/>
<polygon fill="black" stroke="black" points="1204.16,-37.52 1193.78,-35.39 1200.57,-43.52 1204.16,-37.52"/>
</g>
<!-- rpy2 -->
<g id="node23" class="node">
<title>rpy2</title>
<g id="a_node23"><a xlink:href="https://github.com/conda-forge/rpy2-feedstock/pull/55" xlink:title="rpy2">
<ellipse fill="#31688e" stroke="black" cx="1385.39" cy="-162" rx="30.59" ry="18"/>
<text text-anchor="middle" x="1385.39" y="-158.3" font-family="Times,serif" font-size="14.00" fill="white">rpy2</text>
</a>
</g>
</g>
<!-- rpy2&#45;&gt;conda&#45;forge&#45;pinning -->
<g id="edge45" class="edge">
<title>rpy2&#45;&gt;conda&#45;forge&#45;pinning</title>
<path fill="none" stroke="black" d="M1385.8,-143.79C1385.31,-123.82 1381.36,-91.18 1362.39,-72 1338.58,-47.92 1305.05,-34.45 1272.43,-27.02"/>
<polygon fill="black" stroke="black" points="1272.86,-23.53 1262.35,-24.9 1271.42,-30.38 1272.86,-23.53"/>
</g>
<!-- iterativewgcna -->
<g id="node24" class="node">
<title>iterativewgcna</title>
<g id="a_node24"><a xlink:href="https://github.com/conda-forge/iterativewgcna-feedstock" xlink:title="iterativewgcna">
<ellipse fill="#fde725" stroke="black" cx="1488.39" cy="-90" rx="79.5" ry="18"/>
<text text-anchor="middle" x="1488.39" y="-86.3" font-family="Times,serif" font-size="14.00">iterativewgcna</text>
</a>
</g>
</g>
<!-- rpy2&#45;&gt;iterativewgcna -->
<g id="edge46" class="edge">
<title>rpy2&#45;&gt;iterativewgcna</title>
<path fill="none" stroke="black" d="M1404.77,-147.83C1419.16,-138.05 1439.12,-124.49 1455.93,-113.06"/>
<polygon fill="black" stroke="black" points="1458.09,-115.83 1464.39,-107.31 1454.16,-110.04 1458.09,-115.83"/>
</g>
<!-- iterativewgcna&#45;&gt;conda&#45;forge&#45;pinning -->
<g id="edge47" class="edge">
<title>iterativewgcna&#45;&gt;conda&#45;forge&#45;pinning</title>
<path fill="none" stroke="black" d="M1433.04,-76.97C1379.24,-65.27 1297.27,-47.45 1238.41,-34.66"/>
<polygon fill="black" stroke="black" points="1238.96,-31.19 1228.44,-32.49 1237.47,-38.03 1238.96,-31.19"/>
</g>
<!-- r&#45;rvaidememoire -->
<g id="node25" class="node">
<title>r&#45;rvaidememoire</title>
<g id="a_node25"><a xlink:href="https://github.com/conda-forge/r-rvaidememoire-feedstock" xlink:title="r rvaidememoire">
<ellipse fill="#35b779" stroke="black" cx="1521.39" cy="-162" rx="84" ry="18"/>
<text text-anchor="middle" x="1521.39" y="-158.3" font-family="Times,serif" font-size="14.00">r rvaidememoire</text>
</a>
</g>
</g>
<!-- r&#45;rvaidememoire&#45;&gt;conda&#45;forge&#45;pinning -->
<g id="edge48" class="edge">
<title>r&#45;rvaidememoire&#45;&gt;conda&#45;forge&#45;pinning</title>
<path fill="none" stroke="black" d="M1543.98,-144.47C1566.91,-125.72 1596.42,-94.78 1576.39,-72 1556.56,-49.43 1387.26,-33.71 1272.51,-25.54"/>
<polygon fill="black" stroke="black" points="1272.5,-22.03 1262.27,-24.82 1272,-29.01 1272.5,-22.03"/>
</g>
<!-- r&#45;hier.part -->
<g id="node26" class="node">
<title>r&#45;hier.part</title>
<g id="a_node26"><a xlink:href="https://github.com/conda-forge/r-hier.part-feedstock/pull/5" xlink:title="r hier part">
<ellipse fill="#31688e" stroke="black" cx="1578.39" cy="-234" rx="64.5" ry="18"/>
<text text-anchor="middle" x="1578.39" y="-230.3" font-family="Times,serif" font-size="14.00" fill="white">r hier part</text>
</a>
</g>
</g>
<!-- r&#45;hier.part&#45;&gt;conda&#45;forge&#45;pinning -->
<g id="edge49" class="edge">
<title>r&#45;hier.part&#45;&gt;conda&#45;forge&#45;pinning</title>
<path fill="none" stroke="black" d="M1593.63,-216.24C1601.49,-206.44 1610.27,-193.4 1614.39,-180 1628.74,-133.34 1631.37,-103.88 1594.39,-72 1548.68,-32.59 1390.81,-21.8 1280.16,-19.21"/>
<polygon fill="black" stroke="black" points="1280.02,-15.7 1269.94,-18.99 1279.87,-22.7 1280.02,-15.7"/>
</g>
<!-- r&#45;bezier -->
<g id="node27" class="node">
<title>r&#45;bezier</title>
<g id="a_node27"><a xlink:href="https://github.com/conda-forge/r-bezier-feedstock/pull/3" xlink:title="r bezier">
<ellipse fill="#31688e" stroke="black" cx="1631.39" cy="-306" rx="50.09" ry="18"/>
<text text-anchor="middle" x="1631.39" y="-302.3" font-family="Times,serif" font-size="14.00" fill="white">r bezier</text>
</a>
</g>
</g>
<!-- r&#45;bezier&#45;&gt;conda&#45;forge&#45;pinning -->
<g id="edge50" class="edge">
<title>r&#45;bezier&#45;&gt;conda&#45;forge&#45;pinning</title>
<path fill="none" stroke="black" d="M1639.7,-287.79C1644.14,-277.63 1649.14,-264.38 1651.39,-252 1662.61,-190.5 1626.34,-75.63 1622.39,-72 1597.2,-48.81 1400.35,-32.87 1273.66,-24.9"/>
<polygon fill="black" stroke="black" points="1273.72,-21.4 1263.52,-24.27 1273.29,-28.38 1273.72,-21.4"/>
</g>
<!-- r&#45;hiver -->
<g id="node28" class="node">
<title>r&#45;hiver</title>
<g id="a_node28"><a xlink:href="https://github.com/conda-forge/r-hiver-feedstock" xlink:title="r hiver">
<ellipse fill="#35b779" stroke="black" cx="1709.39" cy="-378" rx="45" ry="18"/>
<text text-anchor="middle" x="1709.39" y="-374.3" font-family="Times,serif" font-size="14.00">r hiver</text>
</a>
</g>
</g>
<!-- r&#45;hiver&#45;&gt;conda&#45;forge&#45;pinning -->
<g id="edge51" class="edge">
<title>r&#45;hiver&#45;&gt;conda&#45;forge&#45;pinning</title>
<path fill="none" stroke="black" d="M1709.39,-359.95C1709.39,-333.29 1709.39,-280.11 1709.39,-235 1709.39,-235 1709.39,-235 1709.39,-161 1709.39,-111.49 1685.41,-96.52 1642.39,-72 1582.32,-37.75 1399.38,-25.63 1278.59,-21.35"/>
<polygon fill="black" stroke="black" points="1278.66,-17.85 1268.55,-21 1278.42,-24.84 1278.66,-17.85"/>
</g>
<!-- r&#45;feasts -->
<g id="node29" class="node">
<title>r&#45;feasts</title>
<g id="a_node29"><a xlink:href="https://github.com/conda-forge/r-feasts-feedstock" xlink:title="r feasts">
<ellipse fill="#fde725" stroke="black" cx="1953.39" cy="-90" rx="50.09" ry="18"/>
<text text-anchor="middle" x="1953.39" y="-86.3" font-family="Times,serif" font-size="14.00">r feasts</text>
</a>
</g>
</g>
<!-- r&#45;feasts&#45;&gt;conda&#45;forge&#45;pinning -->
<g id="edge53" class="edge">
<title>r&#45;feasts&#45;&gt;conda&#45;forge&#45;pinning</title>
<path fill="none" stroke="black" d="M1917.48,-77.37C1909.92,-75.28 1901.95,-73.35 1894.39,-72 1679.21,-33.6 1423.51,-22.88 1279.57,-19.98"/>
<polygon fill="black" stroke="black" points="1279.47,-16.48 1269.41,-19.78 1279.34,-23.48 1279.47,-16.48"/>
</g>
<!-- r&#45;littler -->
<g id="node30" class="node">
<title>r&#45;littler</title>
<g id="a_node30"><a xlink:href="https://github.com/conda-forge/r-littler-feedstock/pull/2" xlink:title="r littler">
<ellipse fill="#31688e" stroke="black" cx="1830.39" cy="-90" rx="54.69" ry="18"/>
<text text-anchor="middle" x="1830.39" y="-86.3" font-family="Times,serif" font-size="14.00" fill="white">r littler</text>
</a>
</g>
</g>
<!-- r&#45;littler&#45;&gt;conda&#45;forge&#45;pinning -->
<g id="edge54" class="edge">
<title>r&#45;littler&#45;&gt;conda&#45;forge&#45;pinning</title>
<path fill="none" stroke="black" d="M1789.74,-77.89C1780.48,-75.67 1770.64,-73.54 1761.39,-72 1593.29,-43.97 1395.82,-30.09 1275.96,-23.74"/>
<polygon fill="black" stroke="black" points="1275.85,-20.23 1265.68,-23.2 1275.48,-27.22 1275.85,-20.23"/>
</g>
<!-- r&#45;rxode -->
<g id="node31" class="node">
<title>r&#45;rxode</title>
<g id="a_node31"><a xlink:href="https://github.com/conda-forge/r-rxode-feedstock" xlink:title="r rxode">
<ellipse fill="#fde725" stroke="black" cx="2072.39" cy="-162" rx="45" ry="18"/>
<text text-anchor="middle" x="2072.39" y="-158.3" font-family="Times,serif" font-size="14.00">r rxode</text>
</a>
</g>
</g>
<!-- r&#45;rxode&#45;&gt;conda&#45;forge&#45;pinning -->
<g id="edge55" class="edge">
<title>r&#45;rxode&#45;&gt;conda&#45;forge&#45;pinning</title>
<path fill="none" stroke="black" d="M2069.65,-143.87C2065.32,-122.99 2054.72,-88.49 2030.39,-72 1969.77,-30.92 1500.64,-21.67 1280.17,-19.6"/>
<polygon fill="black" stroke="black" points="1279.9,-16.09 1269.86,-19.5 1279.83,-23.09 1279.9,-16.09"/>
</g>
<!-- r&#45;nlmixr -->
<g id="node32" class="node">
<title>r&#45;nlmixr</title>
<g id="a_node32"><a xlink:href="https://github.com/conda-forge/r-nlmixr-feedstock" xlink:title="r nlmixr">
<ellipse fill="#fde725" stroke="black" cx="2147.39" cy="-90" rx="50.09" ry="18"/>
<text text-anchor="middle" x="2147.39" y="-86.3" font-family="Times,serif" font-size="14.00">r nlmixr</text>
</a>
</g>
</g>
<!-- r&#45;rxode&#45;&gt;r&#45;nlmixr -->
<g id="edge56" class="edge">
<title>r&#45;rxode&#45;&gt;r&#45;nlmixr</title>
<path fill="none" stroke="black" d="M2089.41,-145.12C2099.22,-135.96 2111.72,-124.29 2122.61,-114.13"/>
<polygon fill="black" stroke="black" points="2125.26,-116.45 2130.18,-107.06 2120.48,-111.33 2125.26,-116.45"/>
</g>
<!-- r&#45;nlmixr&#45;&gt;conda&#45;forge&#45;pinning -->
<g id="edge57" class="edge">
<title>r&#45;nlmixr&#45;&gt;conda&#45;forge&#45;pinning</title>
<path fill="none" stroke="black" d="M2110.44,-77.83C2101.65,-75.55 2092.25,-73.42 2083.39,-72 1796.81,-26.14 1454.23,-18.7 1280.13,-18.23"/>
<polygon fill="black" stroke="black" points="1279.93,-14.73 1269.92,-18.21 1279.92,-21.73 1279.93,-14.73"/>
</g>
<!-- r&#45;lotri -->
<g id="node33" class="node">
<title>r&#45;lotri</title>
<g id="a_node33"><a xlink:href="https://github.com/conda-forge/r-lotri-feedstock" xlink:title="r lotri">
<ellipse fill="#35b779" stroke="black" cx="2120.39" cy="-234" rx="45" ry="18"/>
<text text-anchor="middle" x="2120.39" y="-230.3" font-family="Times,serif" font-size="14.00">r lotri</text>
</a>
</g>
</g>
<!-- r&#45;lotri&#45;&gt;conda&#45;forge&#45;pinning -->
<g id="edge58" class="edge">
<title>r&#45;lotri&#45;&gt;conda&#45;forge&#45;pinning</title>
<path fill="none" stroke="black" d="M2162.28,-227.13C2190.69,-220.74 2226.27,-207.45 2244.39,-180 2261.05,-154.77 2230.43,-76.08 2225.39,-72 2189.11,-42.58 1544.38,-26.49 1279.05,-21.09"/>
<polygon fill="black" stroke="black" points="1279.07,-17.59 1269,-20.89 1278.93,-24.59 1279.07,-17.59"/>
</g>
<!-- r&#45;lotri&#45;&gt;r&#45;rxode -->
<g id="edge59" class="edge">
<title>r&#45;lotri&#45;&gt;r&#45;rxode</title>
<path fill="none" stroke="black" d="M2109.02,-216.41C2103.16,-207.87 2095.9,-197.28 2089.39,-187.79"/>
<polygon fill="black" stroke="black" points="2092.23,-185.74 2083.69,-179.47 2086.46,-189.7 2092.23,-185.74"/>
</g>
<!-- r&#45;tiledb -->
<g id="node34" class="node">
<title>r&#45;tiledb</title>
<g id="a_node34"><a xlink:href="https://github.com/conda-forge/r-tiledb-feedstock/pull/5" xlink:title="r tiledb">
<ellipse fill="#31688e" stroke="black" cx="2185.39" cy="-162" rx="50.09" ry="18"/>
<text text-anchor="middle" x="2185.39" y="-158.3" font-family="Times,serif" font-size="14.00" fill="white">r tiledb</text>
</a>
</g>
</g>
<!-- r&#45;tiledb&#45;&gt;conda&#45;forge&#45;pinning -->
<g id="edge60" class="edge">
<title>r&#45;tiledb&#45;&gt;conda&#45;forge&#45;pinning</title>
<path fill="none" stroke="black" d="M2197.21,-144.24C2209.62,-124.39 2224.99,-91.56 2206.39,-72 2174.86,-38.82 1542.21,-24.97 1279.37,-20.63"/>
<polygon fill="black" stroke="black" points="1279.09,-17.12 1269.04,-20.46 1278.98,-24.12 1279.09,-17.12"/>
</g>
<!-- r&#45;raceid -->
<g id="node35" class="node">
<title>r&#45;raceid</title>
<g id="a_node35"><a xlink:href="https://github.com/conda-forge/r-raceid-feedstock" xlink:title="r raceid">
<ellipse fill="#35b779" stroke="black" cx="2281.39" cy="-234" rx="50.09" ry="18"/>
<text text-anchor="middle" x="2281.39" y="-230.3" font-family="Times,serif" font-size="14.00">r raceid</text>
</a>
</g>
</g>
<!-- r&#45;raceid&#45;&gt;conda&#45;forge&#45;pinning -->
<g id="edge61" class="edge">
<title>r&#45;raceid&#45;&gt;conda&#45;forge&#45;pinning</title>
<path fill="none" stroke="black" d="M2283.77,-215.83C2287.34,-182.25 2289.68,-108.04 2247.39,-72 2210.99,-40.98 1548.53,-25.77 1279.03,-20.85"/>
<polygon fill="black" stroke="black" points="1278.89,-17.35 1268.83,-20.67 1278.76,-24.35 1278.89,-17.35"/>
</g>
<!-- r&#45;botor -->
<g id="node36" class="node">
<title>r&#45;botor</title>
<g id="a_node36"><a xlink:href="https://github.com/conda-forge/r-botor-feedstock" xlink:title="r botor">
<ellipse fill="#35b779" stroke="black" cx="2359.39" cy="-306" rx="45" ry="18"/>
<text text-anchor="middle" x="2359.39" y="-302.3" font-family="Times,serif" font-size="14.00">r botor</text>
</a>
</g>
</g>
<!-- r&#45;botor&#45;&gt;conda&#45;forge&#45;pinning -->
<g id="edge62" class="edge">
<title>r&#45;botor&#45;&gt;conda&#45;forge&#45;pinning</title>
<path fill="none" stroke="black" d="M2359.35,-287.82C2358.19,-242.86 2348.06,-121.8 2274.39,-72 2233.66,-44.46 1552.62,-27.13 1278.93,-21.25"/>
<polygon fill="black" stroke="black" points="1278.65,-17.74 1268.58,-21.02 1278.5,-24.74 1278.65,-17.74"/>
</g>
<!-- r&#45;slider -->
<g id="node37" class="node">
<title>r&#45;slider</title>
<g id="a_node37"><a xlink:href="https://github.com/conda-forge/r-slider-feedstock" xlink:title="r slider">
<ellipse fill="#fde725" stroke="black" cx="1953.39" cy="-162" rx="50.09" ry="18"/>
<text text-anchor="middle" x="1953.39" y="-158.3" font-family="Times,serif" font-size="14.00">r slider</text>
</a>
</g>
</g>
<!-- r&#45;slider&#45;&gt;conda&#45;forge&#45;pinning -->
<g id="edge63" class="edge">
<title>r&#45;slider&#45;&gt;conda&#45;forge&#45;pinning</title>
<path fill="none" stroke="black" d="M1975.77,-145.72C2000.48,-127.05 2034.1,-95.11 2012.39,-72 1987.63,-45.64 1501.94,-28.51 1277.89,-21.98"/>
<polygon fill="black" stroke="black" points="1277.84,-18.48 1267.75,-21.68 1277.64,-25.47 1277.84,-18.48"/>
</g>
<!-- r&#45;slider&#45;&gt;r&#45;feasts -->
<g id="edge64" class="edge">
<title>r&#45;slider&#45;&gt;r&#45;feasts</title>
<path fill="none" stroke="black" d="M1953.39,-143.7C1953.39,-135.98 1953.39,-126.71 1953.39,-118.11"/>
<polygon fill="black" stroke="black" points="1956.89,-118.1 1953.39,-108.1 1949.89,-118.1 1956.89,-118.1"/>
</g>
<!-- r&#45;comparegroups -->
<g id="node38" class="node">
<title>r&#45;comparegroups</title>
<g id="a_node38"><a xlink:href="https://github.com/conda-forge/r-comparegroups-feedstock" xlink:title="r comparegroups">
<ellipse fill="#35b779" stroke="black" cx="2432.39" cy="-378" rx="84" ry="18"/>
<text text-anchor="middle" x="2432.39" y="-374.3" font-family="Times,serif" font-size="14.00">r comparegroups</text>
</a>
</g>
</g>
<!-- r&#45;comparegroups&#45;&gt;conda&#45;forge&#45;pinning -->
<g id="edge65" class="edge">
<title>r&#45;comparegroups&#45;&gt;conda&#45;forge&#45;pinning</title>
<path fill="none" stroke="black" d="M2432.39,-359.95C2432.39,-333.29 2432.39,-280.11 2432.39,-235 2432.39,-235 2432.39,-235 2432.39,-161 2432.39,-92.44 2371.24,-94.26 2306.39,-72 2211.17,-39.31 1548.48,-25.12 1279.48,-20.66"/>
<polygon fill="black" stroke="black" points="1279.36,-17.16 1269.3,-20.49 1279.24,-24.16 1279.36,-17.16"/>
</g>
<!-- r&#45;warp -->
<g id="node39" class="node">
<title>r&#45;warp</title>
<g id="a_node39"><a xlink:href="https://github.com/conda-forge/r-warp-feedstock" xlink:title="r warp">
<ellipse fill="#35b779" stroke="black" cx="1865.39" cy="-234" rx="40.5" ry="18"/>
<text text-anchor="middle" x="1865.39" y="-230.3" font-family="Times,serif" font-size="14.00">r warp</text>
</a>
</g>
</g>
<!-- r&#45;warp&#45;&gt;conda&#45;forge&#45;pinning -->
<g id="edge66" class="edge">
<title>r&#45;warp&#45;&gt;conda&#45;forge&#45;pinning</title>
<path fill="none" stroke="black" d="M1853.38,-216.53C1825.61,-179.01 1756.85,-89.05 1723.39,-72 1648.41,-33.77 1419.72,-23.01 1279.77,-20.05"/>
<polygon fill="black" stroke="black" points="1279.51,-16.55 1269.44,-19.84 1279.36,-23.54 1279.51,-16.55"/>
</g>
<!-- r&#45;warp&#45;&gt;r&#45;slider -->
<g id="edge67" class="edge">
<title>r&#45;warp&#45;&gt;r&#45;slider</title>
<path fill="none" stroke="black" d="M1884.49,-217.81C1896.54,-208.22 1912.32,-195.67 1925.73,-185"/>
<polygon fill="black" stroke="black" points="1928.08,-187.61 1933.73,-178.64 1923.72,-182.13 1928.08,-187.61"/>
</g>
</g>
</svg>
