<?xml version="1.0" encoding="UTF-8" standalone="no"?>
<!DOCTYPE svg PUBLIC "-//W3C//DTD SVG 1.1//EN"
 "http://www.w3.org/Graphics/SVG/1.1/DTD/svg11.dtd">
<!-- Generated by graphviz version 2.42.3 (20191010.1750)
 -->
<!-- Title: %3 Pages: 1 -->
<svg width="2456pt" height="476pt"
 viewBox="0.00 0.00 2456.39 476.00" xmlns="http://www.w3.org/2000/svg" xmlns:xlink="http://www.w3.org/1999/xlink">
<g id="graph0" class="graph" transform="scale(1 1) rotate(0) translate(4 472)">
<title>%3</title>
<polygon fill="white" stroke="transparent" points="-4,4 -4,-472 2452.39,-472 2452.39,4 -4,4"/>
<!-- r&#45;fst -->
<g id="node1" class="node">
<title>r&#45;fst</title>
<g id="a_node1"><a xlink:href="https://github.com/conda-forge/r-fst-feedstock/pull/11" xlink:title="r fst">
<ellipse fill="#31688e" stroke="black" cx="38.39" cy="-162" rx="35.19" ry="18"/>
<text text-anchor="middle" x="38.39" y="-158.3" font-family="Times,serif" font-size="14.00" fill="white">r fst</text>
</a>
</g>
</g>
<!-- r&#45;disk.frame -->
<g id="node2" class="node">
<title>r&#45;disk.frame</title>
<g id="a_node2"><a xlink:href="https://github.com/conda-forge/r-disk.frame-feedstock" xlink:title="r disk frame">
<ellipse fill="#fde725" stroke="black" cx="87.39" cy="-90" rx="69.59" ry="18"/>
<text text-anchor="middle" x="87.39" y="-86.3" font-family="Times,serif" font-size="14.00">r disk frame</text>
</a>
</g>
</g>
<!-- r&#45;fst&#45;&gt;r&#45;disk.frame -->
<g id="edge1" class="edge">
<title>r&#45;fst&#45;&gt;r&#45;disk.frame</title>
<path fill="none" stroke="black" d="M49.75,-144.76C55.64,-136.35 62.96,-125.89 69.58,-116.44"/>
<polygon fill="black" stroke="black" points="72.53,-118.32 75.4,-108.12 66.8,-114.31 72.53,-118.32"/>
</g>
<!-- conda&#45;forge&#45;pinning -->
<g id="node3" class="node">
<title>conda&#45;forge&#45;pinning</title>
<ellipse fill="none" stroke="black" cx="1141.39" cy="-18" rx="103.5" ry="18"/>
<text text-anchor="middle" x="1141.39" y="-14.3" font-family="Times,serif" font-size="14.00">conda&#45;forge&#45;pinning</text>
</g>
<!-- r&#45;fst&#45;&gt;conda&#45;forge&#45;pinning -->
<g id="edge2" class="edge">
<title>r&#45;fst&#45;&gt;conda&#45;forge&#45;pinning</title>
<path fill="none" stroke="black" d="M24.56,-145.09C9.22,-125.49 -10.97,-92.29 8.39,-72 43.2,-35.52 747.73,-23.49 1027.91,-20.13"/>
<polygon fill="black" stroke="black" points="1028.14,-23.63 1038.1,-20.01 1028.06,-16.63 1028.14,-23.63"/>
</g>
<!-- r&#45;disk.frame&#45;&gt;conda&#45;forge&#45;pinning -->
<g id="edge3" class="edge">
<title>r&#45;disk.frame&#45;&gt;conda&#45;forge&#45;pinning</title>
<path fill="none" stroke="black" d="M137.83,-77.56C148.84,-75.41 160.47,-73.4 171.39,-72 479.65,-32.6 846.7,-22.46 1028.2,-19.87"/>
<polygon fill="black" stroke="black" points="1028.34,-23.37 1038.29,-19.73 1028.24,-16.37 1028.34,-23.37"/>
</g>
<!-- r&#45;hive -->
<g id="node4" class="node">
<title>r&#45;hive</title>
<g id="a_node4"><a xlink:href="https://github.com/conda-forge/r-hive-feedstock" xlink:title="r hive">
<ellipse fill="#fde725" stroke="black" cx="1243.39" cy="-234" rx="40.5" ry="18"/>
<text text-anchor="middle" x="1243.39" y="-230.3" font-family="Times,serif" font-size="14.00">r hive</text>
</a>
</g>
</g>
<!-- r&#45;hive&#45;&gt;conda&#45;forge&#45;pinning -->
<g id="edge4" class="edge">
<title>r&#45;hive&#45;&gt;conda&#45;forge&#45;pinning</title>
<path fill="none" stroke="black" d="M1237.15,-216.16C1225.91,-186.43 1200.97,-122.96 1174.39,-72 1169.67,-62.97 1163.97,-53.42 1158.65,-44.96"/>
<polygon fill="black" stroke="black" points="1161.42,-42.8 1153.07,-36.27 1155.53,-46.58 1161.42,-42.8"/>
</g>
<!-- r&#45;rjava -->
<g id="node5" class="node">
<title>r&#45;rjava</title>
<g id="a_node5"><a xlink:href="https://github.com/conda-forge/r-rjava-feedstock" xlink:title="r rjava">
<ellipse fill="#35b779" stroke="black" cx="881.39" cy="-450" rx="45" ry="18"/>
<text text-anchor="middle" x="881.39" y="-446.3" font-family="Times,serif" font-size="14.00">r rjava</text>
</a>
</g>
</g>
<!-- r&#45;rjava&#45;&gt;conda&#45;forge&#45;pinning -->
<g id="edge5" class="edge">
<title>r&#45;rjava&#45;&gt;conda&#45;forge&#45;pinning</title>
<path fill="none" stroke="black" d="M925.97,-446.61C1028.48,-440.67 1274.03,-423.65 1298.39,-396 1398.09,-282.82 1294.33,-187.55 1197.39,-72 1188.85,-61.83 1178.52,-51.58 1169.07,-42.84"/>
<polygon fill="black" stroke="black" points="1171.15,-40.01 1161.39,-35.89 1166.46,-45.2 1171.15,-40.01"/>
</g>
<!-- r&#45;rjava&#45;&gt;r&#45;hive -->
<g id="edge6" class="edge">
<title>r&#45;rjava&#45;&gt;r&#45;hive</title>
<path fill="none" stroke="black" d="M925.45,-446.31C1023.62,-439.87 1253.52,-422.14 1276.39,-396 1309.84,-357.76 1280.78,-294.81 1259.99,-260.03"/>
<polygon fill="black" stroke="black" points="1262.91,-258.09 1254.67,-251.43 1256.95,-261.77 1262.91,-258.09"/>
</g>
<!-- r&#45;xlsx -->
<g id="node6" class="node">
<title>r&#45;xlsx</title>
<g id="a_node6"><a xlink:href="https://github.com/conda-forge/r-xlsx-feedstock" xlink:title="r xlsx">
<ellipse fill="#fde725" stroke="black" cx="440.39" cy="-306" rx="40.5" ry="18"/>
<text text-anchor="middle" x="440.39" y="-302.3" font-family="Times,serif" font-size="14.00">r xlsx</text>
</a>
</g>
</g>
<!-- r&#45;rjava&#45;&gt;r&#45;xlsx -->
<g id="edge7" class="edge">
<title>r&#45;rjava&#45;&gt;r&#45;xlsx</title>
<path fill="none" stroke="black" d="M836.81,-447.47C748.02,-443.7 552.87,-431.5 497.39,-396 474.54,-381.38 459.08,-353.97 450.08,-333.42"/>
<polygon fill="black" stroke="black" points="453.23,-331.88 446.18,-323.96 446.76,-334.54 453.23,-331.88"/>
</g>
<!-- r&#45;xlsxjars -->
<g id="node7" class="node">
<title>r&#45;xlsxjars</title>
<g id="a_node7"><a xlink:href="https://github.com/conda-forge/r-xlsxjars-feedstock" xlink:title="r xlsxjars">
<ellipse fill="#fde725" stroke="black" cx="385.39" cy="-378" rx="60" ry="18"/>
<text text-anchor="middle" x="385.39" y="-374.3" font-family="Times,serif" font-size="14.00">r xlsxjars</text>
</a>
</g>
</g>
<!-- r&#45;rjava&#45;&gt;r&#45;xlsxjars -->
<g id="edge8" class="edge">
<title>r&#45;rjava&#45;&gt;r&#45;xlsxjars</title>
<path fill="none" stroke="black" d="M838.04,-445.01C761.33,-437.63 596.8,-420.35 459.39,-396 453.17,-394.9 446.69,-393.61 440.26,-392.25"/>
<polygon fill="black" stroke="black" points="440.76,-388.78 430.24,-390.07 439.27,-395.62 440.76,-388.78"/>
</g>
<!-- r&#45;xlconnectjars -->
<g id="node8" class="node">
<title>r&#45;xlconnectjars</title>
<g id="a_node8"><a xlink:href="https://github.com/conda-forge/r-xlconnectjars-feedstock" xlink:title="r xlconnectjars">
<ellipse fill="#fde725" stroke="black" cx="185.39" cy="-378" rx="84" ry="18"/>
<text text-anchor="middle" x="185.39" y="-374.3" font-family="Times,serif" font-size="14.00">r xlconnectjars</text>
</a>
</g>
</g>
<!-- r&#45;rjava&#45;&gt;r&#45;xlconnectjars -->
<g id="edge9" class="edge">
<title>r&#45;rjava&#45;&gt;r&#45;xlconnectjars</title>
<path fill="none" stroke="black" d="M836.99,-446.34C737.56,-440.09 489.56,-422.97 283.39,-396 274.68,-394.86 265.56,-393.5 256.55,-392.06"/>
<polygon fill="black" stroke="black" points="256.87,-388.57 246.43,-390.4 255.73,-395.47 256.87,-388.57"/>
</g>
<!-- r&#45;xlconnect -->
<g id="node9" class="node">
<title>r&#45;xlconnect</title>
<g id="a_node9"><a xlink:href="https://github.com/conda-forge/r-xlconnect-feedstock" xlink:title="r xlconnect">
<ellipse fill="#fde725" stroke="black" cx="278.39" cy="-306" rx="64.5" ry="18"/>
<text text-anchor="middle" x="278.39" y="-302.3" font-family="Times,serif" font-size="14.00">r xlconnect</text>
</a>
</g>
</g>
<!-- r&#45;rjava&#45;&gt;r&#45;xlconnect -->
<g id="edge10" class="edge">
<title>r&#45;rjava&#45;&gt;r&#45;xlconnect</title>
<path fill="none" stroke="black" d="M836.81,-447.42C710.76,-442.58 358.12,-426.45 316.39,-396 296.63,-381.58 287.05,-354.77 282.47,-334.33"/>
<polygon fill="black" stroke="black" points="285.86,-333.46 280.5,-324.32 278.99,-334.81 285.86,-333.46"/>
</g>
<!-- r&#45;rcdklibs -->
<g id="node10" class="node">
<title>r&#45;rcdklibs</title>
<g id="a_node10"><a xlink:href="https://github.com/conda-forge/r-rcdklibs-feedstock" xlink:title="r rcdklibs">
<ellipse fill="#fde725" stroke="black" cx="616.39" cy="-378" rx="60" ry="18"/>
<text text-anchor="middle" x="616.39" y="-374.3" font-family="Times,serif" font-size="14.00">r rcdklibs</text>
</a>
</g>
</g>
<!-- r&#45;rjava&#45;&gt;r&#45;rcdklibs -->
<g id="edge11" class="edge">
<title>r&#45;rjava&#45;&gt;r&#45;rcdklibs</title>
<path fill="none" stroke="black" d="M844.82,-439.34C799.47,-427.36 721.8,-406.84 669.78,-393.1"/>
<polygon fill="black" stroke="black" points="670.62,-389.71 660.06,-390.54 668.84,-396.47 670.62,-389.71"/>
</g>
<!-- r&#45;rcdk -->
<g id="node11" class="node">
<title>r&#45;rcdk</title>
<g id="a_node11"><a xlink:href="https://github.com/conda-forge/r-rcdk-feedstock" xlink:title="r rcdk">
<ellipse fill="#fde725" stroke="black" cx="616.39" cy="-306" rx="40.5" ry="18"/>
<text text-anchor="middle" x="616.39" y="-302.3" font-family="Times,serif" font-size="14.00">r rcdk</text>
</a>
</g>
</g>
<!-- r&#45;rjava&#45;&gt;r&#45;rcdk -->
<g id="edge12" class="edge">
<title>r&#45;rjava&#45;&gt;r&#45;rcdk</title>
<path fill="none" stroke="black" d="M855.5,-435.13C807.34,-409.32 704.01,-353.95 650.33,-325.19"/>
<polygon fill="black" stroke="black" points="651.69,-321.95 641.22,-320.31 648.38,-328.12 651.69,-321.95"/>
</g>
<!-- r&#45;rchoicedialogs -->
<g id="node12" class="node">
<title>r&#45;rchoicedialogs</title>
<g id="a_node12"><a xlink:href="https://github.com/conda-forge/r-rchoicedialogs-feedstock" xlink:title="r rchoicedialogs">
<ellipse fill="#fde725" stroke="black" cx="764.39" cy="-306" rx="89.08" ry="18"/>
<text text-anchor="middle" x="764.39" y="-302.3" font-family="Times,serif" font-size="14.00">r rchoicedialogs</text>
</a>
</g>
</g>
<!-- r&#45;rjava&#45;&gt;r&#45;rchoicedialogs -->
<g id="edge13" class="edge">
<title>r&#45;rjava&#45;&gt;r&#45;rchoicedialogs</title>
<path fill="none" stroke="black" d="M867.97,-432.71C847.64,-408.05 808.9,-361.03 784.99,-332.01"/>
<polygon fill="black" stroke="black" points="787.44,-329.47 778.38,-323.98 782.04,-333.92 787.44,-329.47"/>
</g>
<!-- r&#45;rwekajars -->
<g id="node13" class="node">
<title>r&#45;rwekajars</title>
<g id="a_node13"><a xlink:href="https://github.com/conda-forge/r-rwekajars-feedstock" xlink:title="r rwekajars">
<ellipse fill="#fde725" stroke="black" cx="769.39" cy="-234" rx="64.5" ry="18"/>
<text text-anchor="middle" x="769.39" y="-230.3" font-family="Times,serif" font-size="14.00">r rwekajars</text>
</a>
</g>
</g>
<!-- r&#45;rjava&#45;&gt;r&#45;rwekajars -->
<g id="edge14" class="edge">
<title>r&#45;rjava&#45;&gt;r&#45;rwekajars</title>
<path fill="none" stroke="black" d="M884.08,-431.8C888.04,-400.38 892.08,-332.81 862.39,-288 852.09,-272.46 835.58,-260.96 819.32,-252.72"/>
<polygon fill="black" stroke="black" points="820.35,-249.34 809.81,-248.24 817.37,-255.67 820.35,-249.34"/>
</g>
<!-- r&#45;rweka -->
<g id="node14" class="node">
<title>r&#45;rweka</title>
<g id="a_node14"><a xlink:href="https://github.com/conda-forge/r-rweka-feedstock" xlink:title="r rweka">
<ellipse fill="#fde725" stroke="black" cx="816.39" cy="-162" rx="45" ry="18"/>
<text text-anchor="middle" x="816.39" y="-158.3" font-family="Times,serif" font-size="14.00">r rweka</text>
</a>
</g>
</g>
<!-- r&#45;rjava&#45;&gt;r&#45;rweka -->
<g id="edge15" class="edge">
<title>r&#45;rjava&#45;&gt;r&#45;rweka</title>
<path fill="none" stroke="black" d="M889.08,-432.22C893.35,-421.99 898.21,-408.52 900.39,-396 903.13,-380.24 902.13,-375.9 900.39,-360 896.81,-327.42 895.89,-318.7 884.39,-288 870.79,-251.69 848.3,-212.92 832.94,-188.35"/>
<polygon fill="black" stroke="black" points="835.75,-186.24 827.44,-179.67 829.83,-189.99 835.75,-186.24"/>
</g>
<!-- r&#45;subspace -->
<g id="node15" class="node">
<title>r&#45;subspace</title>
<g id="a_node15"><a xlink:href="https://github.com/conda-forge/r-subspace-feedstock" xlink:title="r subspace">
<ellipse fill="#fde725" stroke="black" cx="950.39" cy="-234" rx="60" ry="18"/>
<text text-anchor="middle" x="950.39" y="-230.3" font-family="Times,serif" font-size="14.00">r subspace</text>
</a>
</g>
</g>
<!-- r&#45;rjava&#45;&gt;r&#45;subspace -->
<g id="edge16" class="edge">
<title>r&#45;rjava&#45;&gt;r&#45;subspace</title>
<path fill="none" stroke="black" d="M901.85,-433.92C913.15,-424.38 926.3,-411.04 933.39,-396 953.74,-352.83 954.57,-296.09 952.83,-262.78"/>
<polygon fill="black" stroke="black" points="956.29,-262.19 952.16,-252.44 949.31,-262.64 956.29,-262.19"/>
</g>
<!-- r&#45;rmcfs -->
<g id="node16" class="node">
<title>r&#45;rmcfs</title>
<g id="a_node16"><a xlink:href="https://github.com/conda-forge/r-rmcfs-feedstock" xlink:title="r rmcfs">
<ellipse fill="#fde725" stroke="black" cx="1009.39" cy="-162" rx="45" ry="18"/>
<text text-anchor="middle" x="1009.39" y="-158.3" font-family="Times,serif" font-size="14.00">r rmcfs</text>
</a>
</g>
</g>
<!-- r&#45;rjava&#45;&gt;r&#45;rmcfs -->
<g id="edge17" class="edge">
<title>r&#45;rjava&#45;&gt;r&#45;rmcfs</title>
<path fill="none" stroke="black" d="M906.99,-435.03C922.33,-425.62 941.33,-412.03 954.39,-396 998.73,-341.55 1004.61,-320.65 1019.39,-252 1023.82,-231.38 1020.75,-207.63 1016.89,-189.86"/>
<polygon fill="black" stroke="black" points="1020.23,-188.8 1014.5,-179.89 1013.42,-190.43 1020.23,-188.8"/>
</g>
<!-- r&#45;rjdbc -->
<g id="node17" class="node">
<title>r&#45;rjdbc</title>
<g id="a_node17"><a xlink:href="https://github.com/conda-forge/r-rjdbc-feedstock" xlink:title="r rjdbc">
<ellipse fill="#fde725" stroke="black" cx="1049.39" cy="-90" rx="45" ry="18"/>
<text text-anchor="middle" x="1049.39" y="-86.3" font-family="Times,serif" font-size="14.00">r rjdbc</text>
</a>
</g>
</g>
<!-- r&#45;rjava&#45;&gt;r&#45;rjdbc -->
<g id="edge18" class="edge">
<title>r&#45;rjava&#45;&gt;r&#45;rjdbc</title>
<path fill="none" stroke="black" d="M914.66,-437.59C936.11,-428.89 963.43,-415.12 982.39,-396 1054.58,-323.19 1048.24,-281.4 1063.39,-180 1065.75,-164.18 1065.45,-159.87 1063.39,-144 1062.26,-135.28 1060.12,-125.95 1057.84,-117.58"/>
<polygon fill="black" stroke="black" points="1061.2,-116.6 1055.07,-107.96 1054.48,-118.54 1061.2,-116.6"/>
</g>
<!-- r&#45;tabulizer -->
<g id="node18" class="node">
<title>r&#45;tabulizer</title>
<g id="a_node18"><a xlink:href="https://github.com/conda-forge/r-tabulizer-feedstock" xlink:title="r tabulizer">
<ellipse fill="#fde725" stroke="black" cx="1126.39" cy="-306" rx="64.5" ry="18"/>
<text text-anchor="middle" x="1126.39" y="-302.3" font-family="Times,serif" font-size="14.00">r tabulizer</text>
</a>
</g>
</g>
<!-- r&#45;rjava&#45;&gt;r&#45;tabulizer -->
<g id="edge19" class="edge">
<title>r&#45;rjava&#45;&gt;r&#45;tabulizer</title>
<path fill="none" stroke="black" d="M922.24,-442.28C957.55,-435.06 1008.85,-421.08 1047.39,-396 1073.03,-379.31 1095.44,-352.15 1109.78,-332.21"/>
<polygon fill="black" stroke="black" points="1112.73,-334.1 1115.6,-323.9 1107,-330.08 1112.73,-334.1"/>
</g>
<!-- r&#45;tabulizerjars -->
<g id="node19" class="node">
<title>r&#45;tabulizerjars</title>
<g id="a_node19"><a xlink:href="https://github.com/conda-forge/r-tabulizerjars-feedstock" xlink:title="r tabulizerjars">
<ellipse fill="#fde725" stroke="black" cx="1183.39" cy="-378" rx="84" ry="18"/>
<text text-anchor="middle" x="1183.39" y="-374.3" font-family="Times,serif" font-size="14.00">r tabulizerjars</text>
</a>
</g>
</g>
<!-- r&#45;rjava&#45;&gt;r&#45;tabulizerjars -->
<g id="edge20" class="edge">
<title>r&#45;rjava&#45;&gt;r&#45;tabulizerjars</title>
<path fill="none" stroke="black" d="M919.33,-440.21C969.3,-428.62 1057.93,-408.08 1118.61,-394.01"/>
<polygon fill="black" stroke="black" points="1119.52,-397.4 1128.47,-391.73 1117.94,-390.58 1119.52,-397.4"/>
</g>
<!-- r&#45;destinie -->
<g id="node20" class="node">
<title>r&#45;destinie</title>
<g id="a_node20"><a xlink:href="https://github.com/conda-forge/r-destinie-feedstock" xlink:title="r destinie">
<ellipse fill="#fde725" stroke="black" cx="503.39" cy="-234" rx="60" ry="18"/>
<text text-anchor="middle" x="503.39" y="-230.3" font-family="Times,serif" font-size="14.00">r destinie</text>
</a>
</g>
</g>
<!-- r&#45;rjava&#45;&gt;r&#45;destinie -->
<g id="edge21" class="edge">
<title>r&#45;rjava&#45;&gt;r&#45;destinie</title>
<path fill="none" stroke="black" d="M836.44,-447.75C755.38,-444.56 589.25,-433.52 547.39,-396 509.45,-362 502.87,-298.76 502.47,-262.49"/>
<polygon fill="black" stroke="black" points="505.97,-262.17 502.51,-252.15 498.97,-262.14 505.97,-262.17"/>
</g>
<!-- r&#45;xlsx&#45;&gt;conda&#45;forge&#45;pinning -->
<g id="edge22" class="edge">
<title>r&#45;xlsx&#45;&gt;conda&#45;forge&#45;pinning</title>
<path fill="none" stroke="black" d="M435.53,-288.12C431.12,-269.86 426.41,-240.11 434.39,-216 459.43,-140.3 471.8,-110.92 541.39,-72 622.02,-26.91 877.17,-18.81 1027.52,-18.12"/>
<polygon fill="black" stroke="black" points="1027.73,-21.62 1037.72,-18.09 1027.71,-14.62 1027.73,-21.62"/>
</g>
<!-- r&#45;xlsx&#45;&gt;r&#45;destinie -->
<g id="edge23" class="edge">
<title>r&#45;xlsx&#45;&gt;r&#45;destinie</title>
<path fill="none" stroke="black" d="M454.68,-289.12C462.59,-280.33 472.58,-269.23 481.46,-259.37"/>
<polygon fill="black" stroke="black" points="484.18,-261.57 488.27,-251.8 478.98,-256.89 484.18,-261.57"/>
</g>
<!-- r&#45;xlsxjars&#45;&gt;conda&#45;forge&#45;pinning -->
<g id="edge24" class="edge">
<title>r&#45;xlsxjars&#45;&gt;conda&#45;forge&#45;pinning</title>
<path fill="none" stroke="black" d="M382.62,-360C378.54,-333.42 371.39,-280.33 371.39,-235 371.39,-235 371.39,-235 371.39,-161 371.39,-96.02 426.75,-95.36 487.39,-72 583.08,-35.14 867.67,-23.91 1028.11,-20.49"/>
<polygon fill="black" stroke="black" points="1028.57,-23.99 1038.5,-20.28 1028.43,-16.99 1028.57,-23.99"/>
</g>
<!-- r&#45;xlsxjars&#45;&gt;r&#45;xlsx -->
<g id="edge25" class="edge">
<title>r&#45;xlsxjars&#45;&gt;r&#45;xlsx</title>
<path fill="none" stroke="black" d="M398.42,-360.41C405.2,-351.78 413.62,-341.06 421.14,-331.5"/>
<polygon fill="black" stroke="black" points="424.02,-333.5 427.45,-323.47 418.52,-329.17 424.02,-333.5"/>
</g>
<!-- r&#45;xlconnectjars&#45;&gt;conda&#45;forge&#45;pinning -->
<g id="edge26" class="edge">
<title>r&#45;xlconnectjars&#45;&gt;conda&#45;forge&#45;pinning</title>
<path fill="none" stroke="black" d="M185.39,-359.95C185.39,-333.29 185.39,-280.11 185.39,-235 185.39,-235 185.39,-235 185.39,-161 185.39,-88.39 253.47,-94.87 322.39,-72 449.93,-29.68 834.16,-20.95 1027.57,-19.29"/>
<polygon fill="black" stroke="black" points="1027.79,-22.79 1037.76,-19.2 1027.73,-15.79 1027.79,-22.79"/>
</g>
<!-- r&#45;xlconnectjars&#45;&gt;r&#45;xlconnect -->
<g id="edge27" class="edge">
<title>r&#45;xlconnectjars&#45;&gt;r&#45;xlconnect</title>
<path fill="none" stroke="black" d="M207.43,-360.41C219.79,-351.1 235.39,-339.37 248.8,-329.27"/>
<polygon fill="black" stroke="black" points="250.94,-332.04 256.83,-323.23 246.73,-326.45 250.94,-332.04"/>
</g>
<!-- r&#45;xlconnect&#45;&gt;conda&#45;forge&#45;pinning -->
<g id="edge28" class="edge">
<title>r&#45;xlconnect&#45;&gt;conda&#45;forge&#45;pinning</title>
<path fill="none" stroke="black" d="M278.27,-287.95C278.99,-243.83 287.65,-125.65 357.39,-72 409.23,-32.12 823.31,-22.25 1027.86,-19.8"/>
<polygon fill="black" stroke="black" points="1028.08,-23.3 1038.04,-19.69 1028,-16.3 1028.08,-23.3"/>
</g>
<!-- r&#45;rcdklibs&#45;&gt;conda&#45;forge&#45;pinning -->
<g id="edge29" class="edge">
<title>r&#45;rcdklibs&#45;&gt;conda&#45;forge&#45;pinning</title>
<path fill="none" stroke="black" d="M595.09,-361.11C584.28,-351.68 572.23,-338.7 566.39,-324 560.48,-309.13 562.83,-303.6 566.39,-288 590.09,-184.12 583.49,-133.65 670.39,-72 726.04,-32.52 907.24,-21.95 1027.98,-19.4"/>
<polygon fill="black" stroke="black" points="1028.08,-22.9 1038.01,-19.2 1027.95,-15.9 1028.08,-22.9"/>
</g>
<!-- r&#45;rcdklibs&#45;&gt;r&#45;rcdk -->
<g id="edge30" class="edge">
<title>r&#45;rcdklibs&#45;&gt;r&#45;rcdk</title>
<path fill="none" stroke="black" d="M616.39,-359.7C616.39,-351.98 616.39,-342.71 616.39,-334.11"/>
<polygon fill="black" stroke="black" points="619.89,-334.1 616.39,-324.1 612.89,-334.1 619.89,-334.1"/>
</g>
<!-- r&#45;rcdk&#45;&gt;conda&#45;forge&#45;pinning -->
<g id="edge31" class="edge">
<title>r&#45;rcdk&#45;&gt;conda&#45;forge&#45;pinning</title>
<path fill="none" stroke="black" d="M617.38,-287.76C620.93,-243.73 636.89,-126.72 707.39,-72 755.87,-34.37 916.26,-23.13 1027.85,-19.96"/>
<polygon fill="black" stroke="black" points="1028.24,-23.45 1038.15,-19.69 1028.06,-16.45 1028.24,-23.45"/>
</g>
<!-- r&#45;rchoicedialogs&#45;&gt;conda&#45;forge&#45;pinning -->
<g id="edge32" class="edge">
<title>r&#45;rchoicedialogs&#45;&gt;conda&#45;forge&#45;pinning</title>
<path fill="none" stroke="black" d="M732.36,-289.11C718.28,-280.29 703.2,-267.85 695.39,-252 667.81,-196.05 691.8,-113.49 741.39,-72 783.77,-36.55 925.8,-24.66 1028.58,-20.76"/>
<polygon fill="black" stroke="black" points="1028.84,-24.25 1038.71,-20.4 1028.59,-17.26 1028.84,-24.25"/>
</g>
<!-- r&#45;rwekajars&#45;&gt;conda&#45;forge&#45;pinning -->
<g id="edge33" class="edge">
<title>r&#45;rwekajars&#45;&gt;conda&#45;forge&#45;pinning</title>
<path fill="none" stroke="black" d="M761.73,-215.95C748.48,-183.56 725.93,-112.75 761.39,-72 795.42,-32.89 928.55,-21.75 1027.69,-19.02"/>
<polygon fill="black" stroke="black" points="1027.87,-22.52 1037.78,-18.77 1027.69,-15.52 1027.87,-22.52"/>
</g>
<!-- r&#45;rwekajars&#45;&gt;r&#45;rweka -->
<g id="edge34" class="edge">
<title>r&#45;rwekajars&#45;&gt;r&#45;rweka</title>
<path fill="none" stroke="black" d="M780.77,-216.05C786.37,-207.71 793.23,-197.49 799.43,-188.25"/>
<polygon fill="black" stroke="black" points="802.45,-190.04 805.12,-179.79 796.63,-186.14 802.45,-190.04"/>
</g>
<!-- r&#45;rweka&#45;&gt;conda&#45;forge&#45;pinning -->
<g id="edge35" class="edge">
<title>r&#45;rweka&#45;&gt;conda&#45;forge&#45;pinning</title>
<path fill="none" stroke="black" d="M798.38,-145.48C778.59,-126.57 751.99,-94.37 771.39,-72 804.13,-34.23 931.44,-22.73 1027.66,-19.55"/>
<polygon fill="black" stroke="black" points="1027.86,-23.05 1037.75,-19.25 1027.65,-16.05 1027.86,-23.05"/>
</g>
<!-- r&#45;fselector -->
<g id="node21" class="node">
<title>r&#45;fselector</title>
<g id="a_node21"><a xlink:href="https://github.com/conda-forge/r-fselector-feedstock" xlink:title="r fselector">
<ellipse fill="#fde725" stroke="black" cx="845.39" cy="-90" rx="64.5" ry="18"/>
<text text-anchor="middle" x="845.39" y="-86.3" font-family="Times,serif" font-size="14.00">r fselector</text>
</a>
</g>
</g>
<!-- r&#45;rweka&#45;&gt;r&#45;fselector -->
<g id="edge36" class="edge">
<title>r&#45;rweka&#45;&gt;r&#45;fselector</title>
<path fill="none" stroke="black" d="M823.41,-144.05C826.67,-136.18 830.63,-126.62 834.29,-117.79"/>
<polygon fill="black" stroke="black" points="837.64,-118.85 838.23,-108.28 831.17,-116.17 837.64,-118.85"/>
</g>
<!-- r&#45;subspace&#45;&gt;conda&#45;forge&#45;pinning -->
<g id="edge37" class="edge">
<title>r&#45;subspace&#45;&gt;conda&#45;forge&#45;pinning</title>
<path fill="none" stroke="black" d="M948.31,-215.94C945.34,-182.89 944.09,-110.05 984.39,-72 1004.23,-53.26 1030.93,-41.13 1056.68,-33.29"/>
<polygon fill="black" stroke="black" points="1057.83,-36.6 1066.49,-30.49 1055.91,-29.87 1057.83,-36.6"/>
</g>
<!-- r&#45;rmcfs&#45;&gt;conda&#45;forge&#45;pinning -->
<g id="edge38" class="edge">
<title>r&#45;rmcfs&#45;&gt;conda&#45;forge&#45;pinning</title>
<path fill="none" stroke="black" d="M1000.22,-144.31C991.05,-125.12 980.31,-93.52 995.39,-72 1008.86,-52.77 1030.06,-40.5 1052.16,-32.66"/>
<polygon fill="black" stroke="black" points="1053.25,-35.99 1061.67,-29.57 1051.08,-29.33 1053.25,-35.99"/>
</g>
<!-- r&#45;rjdbc&#45;&gt;conda&#45;forge&#45;pinning -->
<g id="edge39" class="edge">
<title>r&#45;rjdbc&#45;&gt;conda&#45;forge&#45;pinning</title>
<path fill="none" stroke="black" d="M1069.35,-73.81C1081.6,-64.49 1097.53,-52.37 1111.3,-41.9"/>
<polygon fill="black" stroke="black" points="1113.7,-44.47 1119.53,-35.63 1109.46,-38.9 1113.7,-44.47"/>
</g>
<!-- r&#45;tabulizer&#45;&gt;conda&#45;forge&#45;pinning -->
<g id="edge40" class="edge">
<title>r&#45;tabulizer&#45;&gt;conda&#45;forge&#45;pinning</title>
<path fill="none" stroke="black" d="M1127.28,-287.97C1129.78,-240.29 1136.87,-105.18 1139.94,-46.63"/>
<polygon fill="black" stroke="black" points="1143.45,-46.48 1140.48,-36.31 1136.46,-46.11 1143.45,-46.48"/>
</g>
<!-- r&#45;tabulizerjars&#45;&gt;conda&#45;forge&#45;pinning -->
<g id="edge41" class="edge">
<title>r&#45;tabulizerjars&#45;&gt;conda&#45;forge&#45;pinning</title>
<path fill="none" stroke="black" d="M1190.04,-359.63C1193.59,-349.42 1197.59,-336.17 1199.39,-324 1201.72,-308.17 1201.08,-303.91 1199.39,-288 1196.83,-263.97 1162.1,-109.94 1147.64,-46.37"/>
<polygon fill="black" stroke="black" points="1150.97,-45.27 1145.34,-36.29 1144.15,-46.82 1150.97,-45.27"/>
</g>
<!-- r&#45;tabulizerjars&#45;&gt;r&#45;tabulizer -->
<g id="edge42" class="edge">
<title>r&#45;tabulizerjars&#45;&gt;r&#45;tabulizer</title>
<path fill="none" stroke="black" d="M1169.59,-360.05C1162.66,-351.54 1154.13,-341.07 1146.49,-331.68"/>
<polygon fill="black" stroke="black" points="1149.09,-329.33 1140.06,-323.79 1143.66,-333.75 1149.09,-329.33"/>
</g>
<!-- r&#45;destinie&#45;&gt;conda&#45;forge&#45;pinning -->
<g id="edge43" class="edge">
<title>r&#45;destinie&#45;&gt;conda&#45;forge&#45;pinning</title>
<path fill="none" stroke="black" d="M505.66,-215.84C511.13,-181.95 528.46,-106.7 577.39,-72 613.49,-46.4 877.62,-30.6 1031.3,-23.47"/>
<polygon fill="black" stroke="black" points="1031.88,-26.95 1041.71,-22.99 1031.56,-19.96 1031.88,-26.95"/>
</g>
<!-- r&#45;fselector&#45;&gt;conda&#45;forge&#45;pinning -->
<g id="edge50" class="edge">
<title>r&#45;fselector&#45;&gt;conda&#45;forge&#45;pinning</title>
<path fill="none" stroke="black" d="M892.95,-77.75C941.56,-66.26 1017.55,-48.28 1072.7,-35.24"/>
<polygon fill="black" stroke="black" points="1073.82,-38.58 1082.74,-32.87 1072.2,-31.76 1073.82,-38.58"/>
</g>
<!-- rpy2 -->
<g id="node22" class="node">
<title>rpy2</title>
<g id="a_node22"><a xlink:href="https://github.com/conda-forge/rpy2-feedstock/pull/55" xlink:title="rpy2">
<ellipse fill="#31688e" stroke="black" cx="1338.39" cy="-162" rx="30.59" ry="18"/>
<text text-anchor="middle" x="1338.39" y="-158.3" font-family="Times,serif" font-size="14.00" fill="white">rpy2</text>
</a>
</g>
</g>
<!-- rpy2&#45;&gt;conda&#45;forge&#45;pinning -->
<g id="edge44" class="edge">
<title>rpy2&#45;&gt;conda&#45;forge&#45;pinning</title>
<path fill="none" stroke="black" d="M1325.71,-145.24C1309.71,-126.08 1280.59,-93.64 1250.39,-72 1232.16,-58.94 1210.22,-47.57 1190.82,-38.74"/>
<polygon fill="black" stroke="black" points="1192.09,-35.48 1181.53,-34.62 1189.25,-41.87 1192.09,-35.48"/>
</g>
<!-- iterativewgcna -->
<g id="node23" class="node">
<title>iterativewgcna</title>
<g id="a_node23"><a xlink:href="https://github.com/conda-forge/iterativewgcna-feedstock" xlink:title="iterativewgcna">
<ellipse fill="#fde725" stroke="black" cx="1381.39" cy="-90" rx="79.5" ry="18"/>
<text text-anchor="middle" x="1381.39" y="-86.3" font-family="Times,serif" font-size="14.00">iterativewgcna</text>
</a>
</g>
</g>
<!-- rpy2&#45;&gt;iterativewgcna -->
<g id="edge45" class="edge">
<title>rpy2&#45;&gt;iterativewgcna</title>
<path fill="none" stroke="black" d="M1348.36,-144.76C1353.47,-136.44 1359.82,-126.1 1365.59,-116.73"/>
<polygon fill="black" stroke="black" points="1368.62,-118.48 1370.87,-108.12 1362.65,-114.81 1368.62,-118.48"/>
</g>
<!-- iterativewgcna&#45;&gt;conda&#45;forge&#45;pinning -->
<g id="edge46" class="edge">
<title>iterativewgcna&#45;&gt;conda&#45;forge&#45;pinning</title>
<path fill="none" stroke="black" d="M1334.54,-75.34C1296.66,-64.29 1243.04,-48.65 1201.9,-36.65"/>
<polygon fill="black" stroke="black" points="1202.84,-33.28 1192.26,-33.84 1200.88,-40 1202.84,-33.28"/>
</g>
<!-- r&#45;rvaidememoire -->
<g id="node24" class="node">
<title>r&#45;rvaidememoire</title>
<g id="a_node24"><a xlink:href="https://github.com/conda-forge/r-rvaidememoire-feedstock" xlink:title="r rvaidememoire">
<ellipse fill="#35b779" stroke="black" cx="1562.39" cy="-90" rx="84" ry="18"/>
<text text-anchor="middle" x="1562.39" y="-86.3" font-family="Times,serif" font-size="14.00">r rvaidememoire</text>
</a>
</g>
</g>
<!-- r&#45;rvaidememoire&#45;&gt;conda&#45;forge&#45;pinning -->
<g id="edge47" class="edge">
<title>r&#45;rvaidememoire&#45;&gt;conda&#45;forge&#45;pinning</title>
<path fill="none" stroke="black" d="M1501.14,-77.62C1490.56,-75.71 1479.66,-73.77 1469.39,-72 1386.66,-57.76 1291.99,-42.58 1225.69,-32.13"/>
<polygon fill="black" stroke="black" points="1226.14,-28.66 1215.71,-30.56 1225.05,-35.57 1226.14,-28.66"/>
</g>
<!-- r&#45;bezier -->
<g id="node25" class="node">
<title>r&#45;bezier</title>
<g id="a_node25"><a xlink:href="https://github.com/conda-forge/r-bezier-feedstock/pull/3" xlink:title="r bezier">
<ellipse fill="#31688e" stroke="black" cx="1634.39" cy="-162" rx="50.09" ry="18"/>
<text text-anchor="middle" x="1634.39" y="-158.3" font-family="Times,serif" font-size="14.00" fill="white">r bezier</text>
</a>
</g>
</g>
<!-- r&#45;bezier&#45;&gt;conda&#45;forge&#45;pinning -->
<g id="edge48" class="edge">
<title>r&#45;bezier&#45;&gt;conda&#45;forge&#45;pinning</title>
<path fill="none" stroke="black" d="M1646.03,-144.4C1658.27,-124.71 1673.47,-92.04 1655.39,-72 1628.91,-42.65 1395.2,-28.59 1252.2,-22.68"/>
<polygon fill="black" stroke="black" points="1252.2,-19.18 1242.06,-22.27 1251.91,-26.17 1252.2,-19.18"/>
</g>
<!-- r&#45;hiver -->
<g id="node26" class="node">
<title>r&#45;hiver</title>
<g id="a_node26"><a xlink:href="https://github.com/conda-forge/r-hiver-feedstock" xlink:title="r hiver">
<ellipse fill="#35b779" stroke="black" cx="1712.39" cy="-234" rx="45" ry="18"/>
<text text-anchor="middle" x="1712.39" y="-230.3" font-family="Times,serif" font-size="14.00">r hiver</text>
</a>
</g>
</g>
<!-- r&#45;hiver&#45;&gt;conda&#45;forge&#45;pinning -->
<g id="edge49" class="edge">
<title>r&#45;hiver&#45;&gt;conda&#45;forge&#45;pinning</title>
<path fill="none" stroke="black" d="M1714.22,-215.86C1716.75,-182.35 1716.9,-108.24 1674.39,-72 1642.94,-45.19 1398.25,-30.06 1251.56,-23.32"/>
<polygon fill="black" stroke="black" points="1251.33,-19.8 1241.18,-22.84 1251.01,-26.79 1251.33,-19.8"/>
</g>
<!-- r&#45;feasts -->
<g id="node27" class="node">
<title>r&#45;feasts</title>
<g id="a_node27"><a xlink:href="https://github.com/conda-forge/r-feasts-feedstock" xlink:title="r feasts">
<ellipse fill="#fde725" stroke="black" cx="1790.39" cy="-90" rx="50.09" ry="18"/>
<text text-anchor="middle" x="1790.39" y="-86.3" font-family="Times,serif" font-size="14.00">r feasts</text>
</a>
</g>
</g>
<!-- r&#45;feasts&#45;&gt;conda&#45;forge&#45;pinning -->
<g id="edge51" class="edge">
<title>r&#45;feasts&#45;&gt;conda&#45;forge&#45;pinning</title>
<path fill="none" stroke="black" d="M1753.06,-77.95C1744.37,-75.69 1735.1,-73.54 1726.39,-72 1562.34,-43 1369.44,-29.43 1251.31,-23.4"/>
<polygon fill="black" stroke="black" points="1251.34,-19.9 1241.18,-22.9 1250.99,-26.89 1251.34,-19.9"/>
</g>
<!-- r&#45;littler -->
<g id="node28" class="node">
<title>r&#45;littler</title>
<g id="a_node28"><a xlink:href="https://github.com/conda-forge/r-littler-feedstock/pull/2" xlink:title="r littler">
<ellipse fill="#31688e" stroke="black" cx="1906.39" cy="-306" rx="54.69" ry="18"/>
<text text-anchor="middle" x="1906.39" y="-302.3" font-family="Times,serif" font-size="14.00" fill="white">r littler</text>
</a>
</g>
</g>
<!-- r&#45;littler&#45;&gt;conda&#45;forge&#45;pinning -->
<g id="edge52" class="edge">
<title>r&#45;littler&#45;&gt;conda&#45;forge&#45;pinning</title>
<path fill="none" stroke="black" d="M1909.71,-288C1917.1,-244.54 1929.69,-128.76 1867.39,-72 1823.19,-31.73 1447.62,-22.04 1254.74,-19.72"/>
<polygon fill="black" stroke="black" points="1254.61,-16.22 1244.57,-19.6 1254.53,-23.22 1254.61,-16.22"/>
</g>
<!-- r&#45;rxode -->
<g id="node29" class="node">
<title>r&#45;rxode</title>
<g id="a_node29"><a xlink:href="https://github.com/conda-forge/r-rxode-feedstock" xlink:title="r rxode">
<ellipse fill="#35b779" stroke="black" cx="2001.39" cy="-162" rx="45" ry="18"/>
<text text-anchor="middle" x="2001.39" y="-158.3" font-family="Times,serif" font-size="14.00">r rxode</text>
</a>
</g>
</g>
<!-- r&#45;rxode&#45;&gt;conda&#45;forge&#45;pinning -->
<g id="edge53" class="edge">
<title>r&#45;rxode&#45;&gt;conda&#45;forge&#45;pinning</title>
<path fill="none" stroke="black" d="M1988.99,-144.68C1970.85,-121.31 1937.41,-80.23 1920.39,-72 1861.88,-43.72 1453.92,-28.07 1252.87,-22"/>
<polygon fill="black" stroke="black" points="1252.96,-18.5 1242.86,-21.7 1252.76,-25.49 1252.96,-18.5"/>
</g>
<!-- r&#45;nlmixr -->
<g id="node30" class="node">
<title>r&#45;nlmixr</title>
<g id="a_node30"><a xlink:href="https://github.com/conda-forge/r-nlmixr-feedstock" xlink:title="r nlmixr">
<ellipse fill="#fde725" stroke="black" cx="2022.39" cy="-90" rx="50.09" ry="18"/>
<text text-anchor="middle" x="2022.39" y="-86.3" font-family="Times,serif" font-size="14.00">r nlmixr</text>
</a>
</g>
</g>
<!-- r&#45;rxode&#45;&gt;r&#45;nlmixr -->
<g id="edge54" class="edge">
<title>r&#45;rxode&#45;&gt;r&#45;nlmixr</title>
<path fill="none" stroke="black" d="M2006.47,-144.05C2008.81,-136.26 2011.64,-126.82 2014.26,-118.08"/>
<polygon fill="black" stroke="black" points="2017.68,-118.86 2017.21,-108.28 2010.98,-116.85 2017.68,-118.86"/>
</g>
<!-- r&#45;nlmixr&#45;&gt;conda&#45;forge&#45;pinning -->
<g id="edge55" class="edge">
<title>r&#45;nlmixr&#45;&gt;conda&#45;forge&#45;pinning</title>
<path fill="none" stroke="black" d="M1985.09,-77.79C1976.39,-75.54 1967.12,-73.43 1958.39,-72 1709.61,-31.29 1413.4,-21.55 1254.89,-19.41"/>
<polygon fill="black" stroke="black" points="1254.69,-15.9 1244.65,-19.28 1254.6,-22.9 1254.69,-15.9"/>
</g>
<!-- r&#45;tiledb -->
<g id="node31" class="node">
<title>r&#45;tiledb</title>
<g id="a_node31"><a xlink:href="https://github.com/conda-forge/r-tiledb-feedstock/pull/5" xlink:title="r tiledb">
<ellipse fill="#31688e" stroke="black" cx="2218.39" cy="-378" rx="50.09" ry="18"/>
<text text-anchor="middle" x="2218.39" y="-374.3" font-family="Times,serif" font-size="14.00" fill="white">r tiledb</text>
</a>
</g>
</g>
<!-- r&#45;tiledb&#45;&gt;conda&#45;forge&#45;pinning -->
<g id="edge56" class="edge">
<title>r&#45;tiledb&#45;&gt;conda&#45;forge&#45;pinning</title>
<path fill="none" stroke="black" d="M2218.39,-359.95C2218.39,-333.29 2218.39,-280.11 2218.39,-235 2218.39,-235 2218.39,-235 2218.39,-161 2218.39,-120.55 2230.19,-98.22 2199.39,-72 2163.85,-41.75 1519.31,-26.15 1254.03,-20.98"/>
<polygon fill="black" stroke="black" points="1254.05,-17.48 1243.99,-20.79 1253.92,-24.48 1254.05,-17.48"/>
</g>
<!-- r&#45;raceid -->
<g id="node32" class="node">
<title>r&#45;raceid</title>
<g id="a_node32"><a xlink:href="https://github.com/conda-forge/r-raceid-feedstock" xlink:title="r raceid">
<ellipse fill="#35b779" stroke="black" cx="2140.39" cy="-90" rx="50.09" ry="18"/>
<text text-anchor="middle" x="2140.39" y="-86.3" font-family="Times,serif" font-size="14.00">r raceid</text>
</a>
</g>
</g>
<!-- r&#45;raceid&#45;&gt;conda&#45;forge&#45;pinning -->
<g id="edge57" class="edge">
<title>r&#45;raceid&#45;&gt;conda&#45;forge&#45;pinning</title>
<path fill="none" stroke="black" d="M2104.49,-77.27C2096.93,-75.19 2088.95,-73.29 2081.39,-72 1925.22,-45.45 1466.68,-28.72 1253.16,-22.16"/>
<polygon fill="black" stroke="black" points="1252.97,-18.65 1242.87,-21.85 1252.76,-25.65 1252.97,-18.65"/>
</g>
<!-- r&#45;botor -->
<g id="node33" class="node">
<title>r&#45;botor</title>
<g id="a_node33"><a xlink:href="https://github.com/conda-forge/r-botor-feedstock" xlink:title="r botor">
<ellipse fill="#35b779" stroke="black" cx="2291.39" cy="-162" rx="45" ry="18"/>
<text text-anchor="middle" x="2291.39" y="-158.3" font-family="Times,serif" font-size="14.00">r botor</text>
</a>
</g>
</g>
<!-- r&#45;botor&#45;&gt;conda&#45;forge&#45;pinning -->
<g id="edge58" class="edge">
<title>r&#45;botor&#45;&gt;conda&#45;forge&#45;pinning</title>
<path fill="none" stroke="black" d="M2285.6,-144C2277.41,-122.92 2260.27,-87.85 2232.39,-72 2149.12,-24.66 1517.67,-19.03 1255.23,-18.76"/>
<polygon fill="black" stroke="black" points="1254.91,-15.26 1244.91,-18.75 1254.91,-22.26 1254.91,-15.26"/>
</g>
<!-- r&#45;slider -->
<g id="node34" class="node">
<title>r&#45;slider</title>
<g id="a_node34"><a xlink:href="https://github.com/conda-forge/r-slider-feedstock" xlink:title="r slider">
<ellipse fill="#35b779" stroke="black" cx="1809.39" cy="-162" rx="50.09" ry="18"/>
<text text-anchor="middle" x="1809.39" y="-158.3" font-family="Times,serif" font-size="14.00">r slider</text>
</a>
</g>
</g>
<!-- r&#45;slider&#45;&gt;conda&#45;forge&#45;pinning -->
<g id="edge59" class="edge">
<title>r&#45;slider&#45;&gt;conda&#45;forge&#45;pinning</title>
<path fill="none" stroke="black" d="M1826.53,-144.76C1844.91,-125.43 1868.98,-93.11 1849.39,-72 1809.88,-29.42 1444.68,-20.81 1254.85,-19.23"/>
<polygon fill="black" stroke="black" points="1254.86,-15.73 1244.83,-19.15 1254.8,-22.73 1254.86,-15.73"/>
</g>
<!-- r&#45;slider&#45;&gt;r&#45;feasts -->
<g id="edge60" class="edge">
<title>r&#45;slider&#45;&gt;r&#45;feasts</title>
<path fill="none" stroke="black" d="M1804.79,-144.05C1802.67,-136.26 1800.11,-126.82 1797.74,-118.08"/>
<polygon fill="black" stroke="black" points="1801.07,-117.01 1795.08,-108.28 1794.32,-118.84 1801.07,-117.01"/>
</g>
<!-- r&#45;comparegroups -->
<g id="node35" class="node">
<title>r&#45;comparegroups</title>
<g id="a_node35"><a xlink:href="https://github.com/conda-forge/r-comparegroups-feedstock" xlink:title="r comparegroups">
<ellipse fill="#35b779" stroke="black" cx="2364.39" cy="-234" rx="84" ry="18"/>
<text text-anchor="middle" x="2364.39" y="-230.3" font-family="Times,serif" font-size="14.00">r comparegroups</text>
</a>
</g>
</g>
<!-- r&#45;comparegroups&#45;&gt;conda&#45;forge&#45;pinning -->
<g id="edge61" class="edge">
<title>r&#45;comparegroups&#45;&gt;conda&#45;forge&#45;pinning</title>
<path fill="none" stroke="black" d="M2363.86,-215.8C2362.61,-196.99 2358.5,-166.53 2345.39,-144 2321.15,-102.37 2308.99,-90.17 2264.39,-72 2172.7,-34.64 1520.96,-23.21 1254.49,-20.07"/>
<polygon fill="black" stroke="black" points="1254.45,-16.57 1244.41,-19.96 1254.36,-23.57 1254.45,-16.57"/>
</g>
</g>
</svg>
