<?xml version="1.0" encoding="UTF-8" standalone="no"?>
<!DOCTYPE svg PUBLIC "-//W3C//DTD SVG 1.1//EN"
 "http://www.w3.org/Graphics/SVG/1.1/DTD/svg11.dtd">
<!-- Generated by graphviz version 2.42.3 (20191010.1750)
 -->
<!-- Title: %3 Pages: 1 -->
<svg width="2287pt" height="476pt"
 viewBox="0.00 0.00 2286.54 476.00" xmlns="http://www.w3.org/2000/svg" xmlns:xlink="http://www.w3.org/1999/xlink">
<g id="graph0" class="graph" transform="scale(1 1) rotate(0) translate(4 472)">
<title>%3</title>
<polygon fill="white" stroke="transparent" points="-4,4 -4,-472 2282.54,-472 2282.54,4 -4,4"/>
<!-- r&#45;fst -->
<g id="node1" class="node">
<title>r&#45;fst</title>
<g id="a_node1"><a xlink:href="https://github.com/conda-forge/r-fst-feedstock/pull/11" xlink:title="r fst">
<ellipse fill="#31688e" stroke="black" cx="106.54" cy="-162" rx="35.19" ry="18"/>
<text text-anchor="middle" x="106.54" y="-158.3" font-family="Times,serif" font-size="14.00" fill="white">r fst</text>
</a>
</g>
</g>
<!-- r&#45;disk.frame -->
<g id="node2" class="node">
<title>r&#45;disk.frame</title>
<g id="a_node2"><a xlink:href="https://github.com/conda-forge/r-disk.frame-feedstock" xlink:title="r disk frame">
<ellipse fill="#fde725" stroke="black" cx="69.54" cy="-90" rx="69.59" ry="18"/>
<text text-anchor="middle" x="69.54" y="-86.3" font-family="Times,serif" font-size="14.00">r disk frame</text>
</a>
</g>
</g>
<!-- r&#45;fst&#45;&gt;r&#45;disk.frame -->
<g id="edge1" class="edge">
<title>r&#45;fst&#45;&gt;r&#45;disk.frame</title>
<path fill="none" stroke="black" d="M97.78,-144.41C93.46,-136.25 88.16,-126.22 83.32,-117.07"/>
<polygon fill="black" stroke="black" points="86.27,-115.16 78.51,-107.96 80.09,-118.43 86.27,-115.16"/>
</g>
<!-- conda&#45;forge&#45;pinning -->
<g id="node3" class="node">
<title>conda&#45;forge&#45;pinning</title>
<ellipse fill="none" stroke="black" cx="1106.54" cy="-18" rx="103.5" ry="18"/>
<text text-anchor="middle" x="1106.54" y="-14.3" font-family="Times,serif" font-size="14.00">conda&#45;forge&#45;pinning</text>
</g>
<!-- r&#45;fst&#45;&gt;conda&#45;forge&#45;pinning -->
<g id="edge2" class="edge">
<title>r&#45;fst&#45;&gt;conda&#45;forge&#45;pinning</title>
<path fill="none" stroke="black" d="M119.32,-145.04C138.38,-121.7 173.9,-80.16 191.54,-72 262.61,-39.14 765.27,-25.48 993.86,-20.92"/>
<polygon fill="black" stroke="black" points="993.95,-24.42 1003.88,-20.72 993.81,-17.42 993.95,-24.42"/>
</g>
<!-- r&#45;disk.frame&#45;&gt;conda&#45;forge&#45;pinning -->
<g id="edge3" class="edge">
<title>r&#45;disk.frame&#45;&gt;conda&#45;forge&#45;pinning</title>
<path fill="none" stroke="black" d="M119.99,-77.57C131,-75.41 142.62,-73.4 153.54,-72 455.24,-33.29 814.26,-22.84 993.28,-20.03"/>
<polygon fill="black" stroke="black" points="993.56,-23.53 1003.5,-19.87 993.45,-16.53 993.56,-23.53"/>
</g>
<!-- r&#45;hive -->
<g id="node4" class="node">
<title>r&#45;hive</title>
<g id="a_node4"><a xlink:href="https://github.com/conda-forge/r-hive-feedstock" xlink:title="r hive">
<ellipse fill="#fde725" stroke="black" cx="1342.54" cy="-234" rx="40.5" ry="18"/>
<text text-anchor="middle" x="1342.54" y="-230.3" font-family="Times,serif" font-size="14.00">r hive</text>
</a>
</g>
</g>
<!-- r&#45;hive&#45;&gt;conda&#45;forge&#45;pinning -->
<g id="edge4" class="edge">
<title>r&#45;hive&#45;&gt;conda&#45;forge&#45;pinning</title>
<path fill="none" stroke="black" d="M1335.15,-216.04C1320.32,-183.81 1283.97,-113.24 1233.54,-72 1214.86,-56.72 1191.13,-45.24 1169.26,-36.95"/>
<polygon fill="black" stroke="black" points="1170.29,-33.6 1159.7,-33.47 1167.9,-40.18 1170.29,-33.6"/>
</g>
<!-- r&#45;rjava -->
<g id="node5" class="node">
<title>r&#45;rjava</title>
<g id="a_node5"><a xlink:href="https://github.com/conda-forge/r-rjava-feedstock" xlink:title="r rjava">
<ellipse fill="#35b779" stroke="black" cx="901.54" cy="-450" rx="45" ry="18"/>
<text text-anchor="middle" x="901.54" y="-446.3" font-family="Times,serif" font-size="14.00">r rjava</text>
</a>
</g>
</g>
<!-- r&#45;rjava&#45;&gt;conda&#45;forge&#45;pinning -->
<g id="edge5" class="edge">
<title>r&#45;rjava&#45;&gt;conda&#45;forge&#45;pinning</title>
<path fill="none" stroke="black" d="M945.6,-446.31C1043.77,-439.87 1273.68,-422.14 1296.54,-396 1347.62,-337.61 1213.14,-134.03 1166.54,-72 1158.38,-61.13 1147.69,-50.82 1137.6,-42.24"/>
<polygon fill="black" stroke="black" points="1139.64,-39.39 1129.69,-35.75 1135.2,-44.8 1139.64,-39.39"/>
</g>
<!-- r&#45;rjava&#45;&gt;r&#45;hive -->
<g id="edge6" class="edge">
<title>r&#45;rjava&#45;&gt;r&#45;hive</title>
<path fill="none" stroke="black" d="M945.99,-446.63C1050.16,-440.64 1303.29,-423.4 1329.54,-396 1363.57,-360.49 1357.08,-298.09 1349.61,-262.29"/>
<polygon fill="black" stroke="black" points="1352.93,-261.08 1347.31,-252.1 1346.1,-262.62 1352.93,-261.08"/>
</g>
<!-- r&#45;xlsx -->
<g id="node6" class="node">
<title>r&#45;xlsx</title>
<g id="a_node6"><a xlink:href="https://github.com/conda-forge/r-xlsx-feedstock" xlink:title="r xlsx">
<ellipse fill="#fde725" stroke="black" cx="460.54" cy="-306" rx="40.5" ry="18"/>
<text text-anchor="middle" x="460.54" y="-302.3" font-family="Times,serif" font-size="14.00">r xlsx</text>
</a>
</g>
</g>
<!-- r&#45;rjava&#45;&gt;r&#45;xlsx -->
<g id="edge7" class="edge">
<title>r&#45;rjava&#45;&gt;r&#45;xlsx</title>
<path fill="none" stroke="black" d="M856.97,-447.47C768.18,-443.7 573.03,-431.5 517.54,-396 494.7,-381.38 479.23,-353.97 470.24,-333.42"/>
<polygon fill="black" stroke="black" points="473.39,-331.88 466.34,-323.96 466.92,-334.54 473.39,-331.88"/>
</g>
<!-- r&#45;xlsxjars -->
<g id="node7" class="node">
<title>r&#45;xlsxjars</title>
<g id="a_node7"><a xlink:href="https://github.com/conda-forge/r-xlsxjars-feedstock" xlink:title="r xlsxjars">
<ellipse fill="#fde725" stroke="black" cx="405.54" cy="-378" rx="60" ry="18"/>
<text text-anchor="middle" x="405.54" y="-374.3" font-family="Times,serif" font-size="14.00">r xlsxjars</text>
</a>
</g>
</g>
<!-- r&#45;rjava&#45;&gt;r&#45;xlsxjars -->
<g id="edge8" class="edge">
<title>r&#45;rjava&#45;&gt;r&#45;xlsxjars</title>
<path fill="none" stroke="black" d="M858.19,-445.01C781.49,-437.63 616.96,-420.35 479.54,-396 473.33,-394.9 466.84,-393.61 460.41,-392.25"/>
<polygon fill="black" stroke="black" points="460.91,-388.78 450.4,-390.07 459.42,-395.62 460.91,-388.78"/>
</g>
<!-- r&#45;xlconnectjars -->
<g id="node8" class="node">
<title>r&#45;xlconnectjars</title>
<g id="a_node8"><a xlink:href="https://github.com/conda-forge/r-xlconnectjars-feedstock" xlink:title="r xlconnectjars">
<ellipse fill="#fde725" stroke="black" cx="205.54" cy="-378" rx="84" ry="18"/>
<text text-anchor="middle" x="205.54" y="-374.3" font-family="Times,serif" font-size="14.00">r xlconnectjars</text>
</a>
</g>
</g>
<!-- r&#45;rjava&#45;&gt;r&#45;xlconnectjars -->
<g id="edge9" class="edge">
<title>r&#45;rjava&#45;&gt;r&#45;xlconnectjars</title>
<path fill="none" stroke="black" d="M857.14,-446.34C757.72,-440.09 509.72,-422.97 303.54,-396 294.84,-394.86 285.72,-393.5 276.7,-392.06"/>
<polygon fill="black" stroke="black" points="277.02,-388.57 266.59,-390.4 275.89,-395.47 277.02,-388.57"/>
</g>
<!-- r&#45;xlconnect -->
<g id="node9" class="node">
<title>r&#45;xlconnect</title>
<g id="a_node9"><a xlink:href="https://github.com/conda-forge/r-xlconnect-feedstock" xlink:title="r xlconnect">
<ellipse fill="#fde725" stroke="black" cx="298.54" cy="-306" rx="64.5" ry="18"/>
<text text-anchor="middle" x="298.54" y="-302.3" font-family="Times,serif" font-size="14.00">r xlconnect</text>
</a>
</g>
</g>
<!-- r&#45;rjava&#45;&gt;r&#45;xlconnect -->
<g id="edge10" class="edge">
<title>r&#45;rjava&#45;&gt;r&#45;xlconnect</title>
<path fill="none" stroke="black" d="M856.97,-447.42C730.91,-442.58 378.28,-426.45 336.54,-396 316.78,-381.58 307.21,-354.77 302.62,-334.33"/>
<polygon fill="black" stroke="black" points="306.02,-333.46 300.65,-324.32 299.15,-334.81 306.02,-333.46"/>
</g>
<!-- r&#45;rcdklibs -->
<g id="node10" class="node">
<title>r&#45;rcdklibs</title>
<g id="a_node10"><a xlink:href="https://github.com/conda-forge/r-rcdklibs-feedstock" xlink:title="r rcdklibs">
<ellipse fill="#fde725" stroke="black" cx="636.54" cy="-378" rx="60" ry="18"/>
<text text-anchor="middle" x="636.54" y="-374.3" font-family="Times,serif" font-size="14.00">r rcdklibs</text>
</a>
</g>
</g>
<!-- r&#45;rjava&#45;&gt;r&#45;rcdklibs -->
<g id="edge11" class="edge">
<title>r&#45;rjava&#45;&gt;r&#45;rcdklibs</title>
<path fill="none" stroke="black" d="M864.97,-439.34C819.62,-427.36 741.95,-406.84 689.94,-393.1"/>
<polygon fill="black" stroke="black" points="690.78,-389.71 680.22,-390.54 688.99,-396.47 690.78,-389.71"/>
</g>
<!-- r&#45;rcdk -->
<g id="node11" class="node">
<title>r&#45;rcdk</title>
<g id="a_node11"><a xlink:href="https://github.com/conda-forge/r-rcdk-feedstock" xlink:title="r rcdk">
<ellipse fill="#fde725" stroke="black" cx="636.54" cy="-306" rx="40.5" ry="18"/>
<text text-anchor="middle" x="636.54" y="-302.3" font-family="Times,serif" font-size="14.00">r rcdk</text>
</a>
</g>
</g>
<!-- r&#45;rjava&#45;&gt;r&#45;rcdk -->
<g id="edge12" class="edge">
<title>r&#45;rjava&#45;&gt;r&#45;rcdk</title>
<path fill="none" stroke="black" d="M875.65,-435.13C827.49,-409.32 724.17,-353.95 670.49,-325.19"/>
<polygon fill="black" stroke="black" points="671.85,-321.95 661.38,-320.31 668.54,-328.12 671.85,-321.95"/>
</g>
<!-- r&#45;rchoicedialogs -->
<g id="node12" class="node">
<title>r&#45;rchoicedialogs</title>
<g id="a_node12"><a xlink:href="https://github.com/conda-forge/r-rchoicedialogs-feedstock" xlink:title="r rchoicedialogs">
<ellipse fill="#fde725" stroke="black" cx="784.54" cy="-306" rx="89.08" ry="18"/>
<text text-anchor="middle" x="784.54" y="-302.3" font-family="Times,serif" font-size="14.00">r rchoicedialogs</text>
</a>
</g>
</g>
<!-- r&#45;rjava&#45;&gt;r&#45;rchoicedialogs -->
<g id="edge13" class="edge">
<title>r&#45;rjava&#45;&gt;r&#45;rchoicedialogs</title>
<path fill="none" stroke="black" d="M888.12,-432.71C867.8,-408.05 829.06,-361.03 805.15,-332.01"/>
<polygon fill="black" stroke="black" points="807.59,-329.47 798.53,-323.98 802.19,-333.92 807.59,-329.47"/>
</g>
<!-- r&#45;rwekajars -->
<g id="node13" class="node">
<title>r&#45;rwekajars</title>
<g id="a_node13"><a xlink:href="https://github.com/conda-forge/r-rwekajars-feedstock" xlink:title="r rwekajars">
<ellipse fill="#fde725" stroke="black" cx="790.54" cy="-234" rx="64.5" ry="18"/>
<text text-anchor="middle" x="790.54" y="-230.3" font-family="Times,serif" font-size="14.00">r rwekajars</text>
</a>
</g>
</g>
<!-- r&#45;rjava&#45;&gt;r&#45;rwekajars -->
<g id="edge14" class="edge">
<title>r&#45;rjava&#45;&gt;r&#45;rwekajars</title>
<path fill="none" stroke="black" d="M904.21,-431.81C908.14,-400.41 912.13,-332.88 882.54,-288 872.37,-272.56 856.04,-261.08 839.94,-252.83"/>
<polygon fill="black" stroke="black" points="841.08,-249.5 830.54,-248.34 838.06,-255.81 841.08,-249.5"/>
</g>
<!-- r&#45;rweka -->
<g id="node14" class="node">
<title>r&#45;rweka</title>
<g id="a_node14"><a xlink:href="https://github.com/conda-forge/r-rweka-feedstock" xlink:title="r rweka">
<ellipse fill="#fde725" stroke="black" cx="837.54" cy="-162" rx="45" ry="18"/>
<text text-anchor="middle" x="837.54" y="-158.3" font-family="Times,serif" font-size="14.00">r rweka</text>
</a>
</g>
</g>
<!-- r&#45;rjava&#45;&gt;r&#45;rweka -->
<g id="edge15" class="edge">
<title>r&#45;rjava&#45;&gt;r&#45;rweka</title>
<path fill="none" stroke="black" d="M909.24,-432.22C913.5,-421.99 918.37,-408.52 920.54,-396 923.28,-380.24 922.29,-375.9 920.54,-360 916.97,-327.42 915.95,-318.73 904.54,-288 891.1,-251.77 868.96,-212.98 853.83,-188.39"/>
<polygon fill="black" stroke="black" points="856.67,-186.33 848.42,-179.69 850.73,-190.03 856.67,-186.33"/>
</g>
<!-- r&#45;subspace -->
<g id="node15" class="node">
<title>r&#45;subspace</title>
<g id="a_node15"><a xlink:href="https://github.com/conda-forge/r-subspace-feedstock" xlink:title="r subspace">
<ellipse fill="#fde725" stroke="black" cx="971.54" cy="-234" rx="60" ry="18"/>
<text text-anchor="middle" x="971.54" y="-230.3" font-family="Times,serif" font-size="14.00">r subspace</text>
</a>
</g>
</g>
<!-- r&#45;rjava&#45;&gt;r&#45;subspace -->
<g id="edge16" class="edge">
<title>r&#45;rjava&#45;&gt;r&#45;subspace</title>
<path fill="none" stroke="black" d="M921.97,-433.9C933.26,-424.36 946.41,-411.02 953.54,-396 974.04,-352.86 975.27,-296.12 973.77,-262.79"/>
<polygon fill="black" stroke="black" points="977.24,-262.23 973.18,-252.45 970.25,-262.63 977.24,-262.23"/>
</g>
<!-- r&#45;rmcfs -->
<g id="node16" class="node">
<title>r&#45;rmcfs</title>
<g id="a_node16"><a xlink:href="https://github.com/conda-forge/r-rmcfs-feedstock" xlink:title="r rmcfs">
<ellipse fill="#fde725" stroke="black" cx="1028.54" cy="-162" rx="45" ry="18"/>
<text text-anchor="middle" x="1028.54" y="-158.3" font-family="Times,serif" font-size="14.00">r rmcfs</text>
</a>
</g>
</g>
<!-- r&#45;rjava&#45;&gt;r&#45;rmcfs -->
<g id="edge17" class="edge">
<title>r&#45;rjava&#45;&gt;r&#45;rmcfs</title>
<path fill="none" stroke="black" d="M927.11,-435C942.44,-425.58 961.44,-411.99 974.54,-396 1019.16,-341.54 1025.53,-320.78 1040.54,-252 1045.07,-231.24 1041.38,-207.37 1036.94,-189.58"/>
<polygon fill="black" stroke="black" points="1040.3,-188.6 1034.29,-179.87 1033.55,-190.44 1040.3,-188.6"/>
</g>
<!-- r&#45;rjdbc -->
<g id="node17" class="node">
<title>r&#45;rjdbc</title>
<g id="a_node17"><a xlink:href="https://github.com/conda-forge/r-rjdbc-feedstock" xlink:title="r rjdbc">
<ellipse fill="#fde725" stroke="black" cx="1070.54" cy="-90" rx="45" ry="18"/>
<text text-anchor="middle" x="1070.54" y="-86.3" font-family="Times,serif" font-size="14.00">r rjdbc</text>
</a>
</g>
</g>
<!-- r&#45;rjava&#45;&gt;r&#45;rjdbc -->
<g id="edge18" class="edge">
<title>r&#45;rjava&#45;&gt;r&#45;rjdbc</title>
<path fill="none" stroke="black" d="M934.82,-437.59C956.26,-428.89 983.58,-415.12 1002.54,-396 1074.62,-323.3 1067.74,-281.3 1082.54,-180 1085.57,-159.3 1082.13,-135.86 1078.17,-118.23"/>
<polygon fill="black" stroke="black" points="1081.46,-116.96 1075.69,-108.08 1074.66,-118.62 1081.46,-116.96"/>
</g>
<!-- r&#45;tabulizer -->
<g id="node18" class="node">
<title>r&#45;tabulizer</title>
<g id="a_node18"><a xlink:href="https://github.com/conda-forge/r-tabulizer-feedstock" xlink:title="r tabulizer">
<ellipse fill="#fde725" stroke="black" cx="1146.54" cy="-306" rx="64.5" ry="18"/>
<text text-anchor="middle" x="1146.54" y="-302.3" font-family="Times,serif" font-size="14.00">r tabulizer</text>
</a>
</g>
</g>
<!-- r&#45;rjava&#45;&gt;r&#45;tabulizer -->
<g id="edge19" class="edge">
<title>r&#45;rjava&#45;&gt;r&#45;tabulizer</title>
<path fill="none" stroke="black" d="M942.39,-442.28C977.71,-435.06 1029,-421.08 1067.54,-396 1093.19,-379.31 1115.6,-352.15 1129.93,-332.21"/>
<polygon fill="black" stroke="black" points="1132.89,-334.1 1135.75,-323.9 1127.15,-330.08 1132.89,-334.1"/>
</g>
<!-- r&#45;tabulizerjars -->
<g id="node19" class="node">
<title>r&#45;tabulizerjars</title>
<g id="a_node19"><a xlink:href="https://github.com/conda-forge/r-tabulizerjars-feedstock" xlink:title="r tabulizerjars">
<ellipse fill="#fde725" stroke="black" cx="1203.54" cy="-378" rx="84" ry="18"/>
<text text-anchor="middle" x="1203.54" y="-374.3" font-family="Times,serif" font-size="14.00">r tabulizerjars</text>
</a>
</g>
</g>
<!-- r&#45;rjava&#45;&gt;r&#45;tabulizerjars -->
<g id="edge20" class="edge">
<title>r&#45;rjava&#45;&gt;r&#45;tabulizerjars</title>
<path fill="none" stroke="black" d="M939.49,-440.21C989.46,-428.62 1078.08,-408.08 1138.77,-394.01"/>
<polygon fill="black" stroke="black" points="1139.68,-397.4 1148.63,-391.73 1138.1,-390.58 1139.68,-397.4"/>
</g>
<!-- r&#45;destinie -->
<g id="node20" class="node">
<title>r&#45;destinie</title>
<g id="a_node20"><a xlink:href="https://github.com/conda-forge/r-destinie-feedstock" xlink:title="r destinie">
<ellipse fill="#fde725" stroke="black" cx="522.54" cy="-234" rx="60" ry="18"/>
<text text-anchor="middle" x="522.54" y="-230.3" font-family="Times,serif" font-size="14.00">r destinie</text>
</a>
</g>
</g>
<!-- r&#45;rjava&#45;&gt;r&#45;destinie -->
<g id="edge21" class="edge">
<title>r&#45;rjava&#45;&gt;r&#45;destinie</title>
<path fill="none" stroke="black" d="M856.61,-447.72C775.59,-444.5 609.52,-433.4 567.54,-396 529.45,-362.06 522.45,-298.8 521.81,-262.5"/>
<polygon fill="black" stroke="black" points="525.31,-262.16 521.79,-252.17 518.31,-262.17 525.31,-262.16"/>
</g>
<!-- r&#45;xlsx&#45;&gt;conda&#45;forge&#45;pinning -->
<g id="edge22" class="edge">
<title>r&#45;xlsx&#45;&gt;conda&#45;forge&#45;pinning</title>
<path fill="none" stroke="black" d="M455.39,-288.13C450.68,-269.87 445.56,-240.13 453.54,-216 478.59,-140.3 491.12,-111.22 560.54,-72 632.03,-31.61 854.94,-21.59 992.84,-19.34"/>
<polygon fill="black" stroke="black" points="993.09,-22.84 1003.03,-19.19 992.98,-15.84 993.09,-22.84"/>
</g>
<!-- r&#45;xlsx&#45;&gt;r&#45;destinie -->
<g id="edge23" class="edge">
<title>r&#45;xlsx&#45;&gt;r&#45;destinie</title>
<path fill="none" stroke="black" d="M474.61,-289.12C482.39,-280.33 492.23,-269.23 500.96,-259.37"/>
<polygon fill="black" stroke="black" points="503.66,-261.6 507.67,-251.8 498.42,-256.96 503.66,-261.6"/>
</g>
<!-- r&#45;xlsxjars&#45;&gt;conda&#45;forge&#45;pinning -->
<g id="edge24" class="edge">
<title>r&#45;xlsxjars&#45;&gt;conda&#45;forge&#45;pinning</title>
<path fill="none" stroke="black" d="M402.78,-360C398.7,-333.42 391.54,-280.33 391.54,-235 391.54,-235 391.54,-235 391.54,-161 391.54,-39.89 791.2,-20.5 992.91,-18.43"/>
<polygon fill="black" stroke="black" points="992.99,-21.93 1002.96,-18.34 992.93,-14.93 992.99,-21.93"/>
</g>
<!-- r&#45;xlsxjars&#45;&gt;r&#45;xlsx -->
<g id="edge25" class="edge">
<title>r&#45;xlsxjars&#45;&gt;r&#45;xlsx</title>
<path fill="none" stroke="black" d="M418.58,-360.41C425.36,-351.78 433.78,-341.06 441.3,-331.5"/>
<polygon fill="black" stroke="black" points="444.18,-333.5 447.6,-323.47 438.67,-329.17 444.18,-333.5"/>
</g>
<!-- r&#45;xlconnectjars&#45;&gt;conda&#45;forge&#45;pinning -->
<g id="edge26" class="edge">
<title>r&#45;xlconnectjars&#45;&gt;conda&#45;forge&#45;pinning</title>
<path fill="none" stroke="black" d="M205.54,-359.95C205.54,-333.29 205.54,-280.11 205.54,-235 205.54,-235 205.54,-235 205.54,-161 205.54,-88.39 273.68,-95.03 342.54,-72 459.88,-32.77 810.39,-22.57 993.03,-19.92"/>
<polygon fill="black" stroke="black" points="993.26,-23.42 1003.21,-19.78 993.16,-16.42 993.26,-23.42"/>
</g>
<!-- r&#45;xlconnectjars&#45;&gt;r&#45;xlconnect -->
<g id="edge27" class="edge">
<title>r&#45;xlconnectjars&#45;&gt;r&#45;xlconnect</title>
<path fill="none" stroke="black" d="M227.58,-360.41C239.95,-351.1 255.54,-339.37 268.96,-329.27"/>
<polygon fill="black" stroke="black" points="271.1,-332.04 276.98,-323.23 266.89,-326.45 271.1,-332.04"/>
</g>
<!-- r&#45;xlconnect&#45;&gt;conda&#45;forge&#45;pinning -->
<g id="edge28" class="edge">
<title>r&#45;xlconnect&#45;&gt;conda&#45;forge&#45;pinning</title>
<path fill="none" stroke="black" d="M298.44,-287.97C299.2,-243.9 307.94,-125.83 377.54,-72 425.04,-35.28 800.67,-23.88 993.36,-20.44"/>
<polygon fill="black" stroke="black" points="993.58,-23.94 1003.52,-20.26 993.46,-16.94 993.58,-23.94"/>
</g>
<!-- r&#45;rcdklibs&#45;&gt;conda&#45;forge&#45;pinning -->
<g id="edge29" class="edge">
<title>r&#45;rcdklibs&#45;&gt;conda&#45;forge&#45;pinning</title>
<path fill="none" stroke="black" d="M615.25,-361.11C604.44,-351.68 592.38,-338.7 586.54,-324 580.64,-309.13 582.93,-303.59 586.54,-288 610.73,-183.83 605.57,-134.22 692.54,-72 739.5,-38.41 888.42,-26.1 994.17,-21.59"/>
<polygon fill="black" stroke="black" points="994.41,-25.09 1004.26,-21.18 994.13,-18.09 994.41,-25.09"/>
</g>
<!-- r&#45;rcdklibs&#45;&gt;r&#45;rcdk -->
<g id="edge30" class="edge">
<title>r&#45;rcdklibs&#45;&gt;r&#45;rcdk</title>
<path fill="none" stroke="black" d="M636.54,-359.7C636.54,-351.98 636.54,-342.71 636.54,-334.11"/>
<polygon fill="black" stroke="black" points="640.04,-334.1 636.54,-324.1 633.04,-334.1 640.04,-334.1"/>
</g>
<!-- r&#45;rcdk&#45;&gt;conda&#45;forge&#45;pinning -->
<g id="edge31" class="edge">
<title>r&#45;rcdk&#45;&gt;conda&#45;forge&#45;pinning</title>
<path fill="none" stroke="black" d="M637.75,-287.83C641.84,-243.94 659.13,-127.25 729.54,-72 769.78,-40.42 899.17,-27.66 995.2,-22.5"/>
<polygon fill="black" stroke="black" points="995.45,-25.99 1005.26,-21.98 995.09,-19 995.45,-25.99"/>
</g>
<!-- r&#45;rchoicedialogs&#45;&gt;conda&#45;forge&#45;pinning -->
<g id="edge32" class="edge">
<title>r&#45;rchoicedialogs&#45;&gt;conda&#45;forge&#45;pinning</title>
<path fill="none" stroke="black" d="M752.97,-289.01C739.09,-280.16 724.23,-267.74 716.54,-252 689.22,-196.05 713.99,-113.5 762.54,-72 797.06,-42.5 909.62,-29.37 996.69,-23.56"/>
<polygon fill="black" stroke="black" points="997.15,-27.03 1006.91,-22.9 996.7,-20.05 997.15,-27.03"/>
</g>
<!-- r&#45;rwekajars&#45;&gt;conda&#45;forge&#45;pinning -->
<g id="edge33" class="edge">
<title>r&#45;rwekajars&#45;&gt;conda&#45;forge&#45;pinning</title>
<path fill="none" stroke="black" d="M782.97,-216.03C769.88,-183.77 747.57,-113.16 782.54,-72 809.65,-40.1 912.3,-27.36 994.89,-22.29"/>
<polygon fill="black" stroke="black" points="995.33,-25.77 1005.11,-21.7 994.93,-18.79 995.33,-25.77"/>
</g>
<!-- r&#45;rwekajars&#45;&gt;r&#45;rweka -->
<g id="edge34" class="edge">
<title>r&#45;rwekajars&#45;&gt;r&#45;rweka</title>
<path fill="none" stroke="black" d="M801.92,-216.05C807.52,-207.71 814.39,-197.49 820.59,-188.25"/>
<polygon fill="black" stroke="black" points="823.6,-190.04 826.27,-179.79 817.79,-186.14 823.6,-190.04"/>
</g>
<!-- r&#45;rweka&#45;&gt;conda&#45;forge&#45;pinning -->
<g id="edge35" class="edge">
<title>r&#45;rweka&#45;&gt;conda&#45;forge&#45;pinning</title>
<path fill="none" stroke="black" d="M819.29,-145.23C799.62,-126.35 773.54,-94.48 792.54,-72 818.47,-41.33 916.1,-28.4 995.7,-22.96"/>
<polygon fill="black" stroke="black" points="996.06,-26.44 1005.81,-22.3 995.6,-19.45 996.06,-26.44"/>
</g>
<!-- r&#45;fselector -->
<g id="node21" class="node">
<title>r&#45;fselector</title>
<g id="a_node21"><a xlink:href="https://github.com/conda-forge/r-fselector-feedstock" xlink:title="r fselector">
<ellipse fill="#fde725" stroke="black" cx="866.54" cy="-90" rx="64.5" ry="18"/>
<text text-anchor="middle" x="866.54" y="-86.3" font-family="Times,serif" font-size="14.00">r fselector</text>
</a>
</g>
</g>
<!-- r&#45;rweka&#45;&gt;r&#45;fselector -->
<g id="edge36" class="edge">
<title>r&#45;rweka&#45;&gt;r&#45;fselector</title>
<path fill="none" stroke="black" d="M844.56,-144.05C847.83,-136.18 851.79,-126.62 855.44,-117.79"/>
<polygon fill="black" stroke="black" points="858.79,-118.85 859.39,-108.28 852.33,-116.17 858.79,-118.85"/>
</g>
<!-- r&#45;subspace&#45;&gt;conda&#45;forge&#45;pinning -->
<g id="edge37" class="edge">
<title>r&#45;subspace&#45;&gt;conda&#45;forge&#45;pinning</title>
<path fill="none" stroke="black" d="M970.02,-215.88C968.11,-183.37 968.88,-112.36 1006.54,-72 1019.61,-58 1037.22,-46.98 1054.02,-38.7"/>
<polygon fill="black" stroke="black" points="1055.67,-41.79 1063.23,-34.38 1052.69,-35.45 1055.67,-41.79"/>
</g>
<!-- r&#45;rmcfs&#45;&gt;conda&#45;forge&#45;pinning -->
<g id="edge38" class="edge">
<title>r&#45;rmcfs&#45;&gt;conda&#45;forge&#45;pinning</title>
<path fill="none" stroke="black" d="M1020.37,-144.07C1012.56,-125.22 1003.7,-94.47 1016.54,-72 1024.67,-57.79 1038.25,-47.01 1052.43,-39.01"/>
<polygon fill="black" stroke="black" points="1054.06,-42.11 1061.3,-34.38 1050.82,-35.91 1054.06,-42.11"/>
</g>
<!-- r&#45;rjdbc&#45;&gt;conda&#45;forge&#45;pinning -->
<g id="edge39" class="edge">
<title>r&#45;rjdbc&#45;&gt;conda&#45;forge&#45;pinning</title>
<path fill="none" stroke="black" d="M1079.26,-72.05C1083.4,-64.01 1088.44,-54.2 1093.06,-45.23"/>
<polygon fill="black" stroke="black" points="1096.2,-46.77 1097.66,-36.28 1089.97,-43.57 1096.2,-46.77"/>
</g>
<!-- r&#45;tabulizer&#45;&gt;conda&#45;forge&#45;pinning -->
<g id="edge40" class="edge">
<title>r&#45;tabulizer&#45;&gt;conda&#45;forge&#45;pinning</title>
<path fill="none" stroke="black" d="M1146.29,-287.84C1145.41,-248.98 1141.55,-151.46 1124.54,-72 1122.69,-63.35 1119.88,-54.16 1117.03,-45.89"/>
<polygon fill="black" stroke="black" points="1120.28,-44.59 1113.59,-36.38 1113.7,-46.97 1120.28,-44.59"/>
</g>
<!-- r&#45;tabulizerjars&#45;&gt;conda&#45;forge&#45;pinning -->
<g id="edge41" class="edge">
<title>r&#45;tabulizerjars&#45;&gt;conda&#45;forge&#45;pinning</title>
<path fill="none" stroke="black" d="M1210.2,-359.63C1213.75,-349.42 1217.75,-336.17 1219.54,-324 1221.88,-308.17 1222.27,-303.77 1219.54,-288 1202.18,-187.57 1188.66,-162.89 1142.54,-72 1137.76,-62.58 1131.57,-52.85 1125.68,-44.34"/>
<polygon fill="black" stroke="black" points="1128.37,-42.09 1119.71,-35.98 1122.67,-46.15 1128.37,-42.09"/>
</g>
<!-- r&#45;tabulizerjars&#45;&gt;r&#45;tabulizer -->
<g id="edge42" class="edge">
<title>r&#45;tabulizerjars&#45;&gt;r&#45;tabulizer</title>
<path fill="none" stroke="black" d="M1189.75,-360.05C1182.81,-351.54 1174.29,-341.07 1166.64,-331.68"/>
<polygon fill="black" stroke="black" points="1169.24,-329.33 1160.21,-323.79 1163.82,-333.75 1169.24,-329.33"/>
</g>
<!-- r&#45;destinie&#45;&gt;conda&#45;forge&#45;pinning -->
<g id="edge43" class="edge">
<title>r&#45;destinie&#45;&gt;conda&#45;forge&#45;pinning</title>
<path fill="none" stroke="black" d="M524.84,-215.88C530.37,-182.07 547.78,-106.94 596.54,-72 628.44,-49.14 858.38,-32.63 998.39,-24.56"/>
<polygon fill="black" stroke="black" points="998.94,-28.04 1008.73,-23.97 998.54,-21.05 998.94,-28.04"/>
</g>
<!-- r&#45;fselector&#45;&gt;conda&#45;forge&#45;pinning -->
<g id="edge50" class="edge">
<title>r&#45;fselector&#45;&gt;conda&#45;forge&#45;pinning</title>
<path fill="none" stroke="black" d="M909.45,-76.49C947.48,-65.39 1003.41,-49.08 1045.99,-36.66"/>
<polygon fill="black" stroke="black" points="1047.06,-39.99 1055.68,-33.83 1045.1,-33.27 1047.06,-39.99"/>
</g>
<!-- rpy2 -->
<g id="node22" class="node">
<title>rpy2</title>
<g id="a_node22"><a xlink:href="https://github.com/conda-forge/rpy2-feedstock/pull/55" xlink:title="rpy2">
<ellipse fill="#31688e" stroke="black" cx="1359.54" cy="-162" rx="30.59" ry="18"/>
<text text-anchor="middle" x="1359.54" y="-158.3" font-family="Times,serif" font-size="14.00" fill="white">rpy2</text>
</a>
</g>
</g>
<!-- rpy2&#45;&gt;conda&#45;forge&#45;pinning -->
<g id="edge44" class="edge">
<title>rpy2&#45;&gt;conda&#45;forge&#45;pinning</title>
<path fill="none" stroke="black" d="M1345.96,-145.58C1325.76,-122.97 1288.39,-82.35 1271.54,-72 1244.02,-55.09 1210.56,-43.04 1180.99,-34.75"/>
<polygon fill="black" stroke="black" points="1181.69,-31.32 1171.12,-32.08 1179.86,-38.07 1181.69,-31.32"/>
</g>
<!-- iterativewgcna -->
<g id="node23" class="node">
<title>iterativewgcna</title>
<g id="a_node23"><a xlink:href="https://github.com/conda-forge/iterativewgcna-feedstock" xlink:title="iterativewgcna">
<ellipse fill="#fde725" stroke="black" cx="1402.54" cy="-90" rx="79.5" ry="18"/>
<text text-anchor="middle" x="1402.54" y="-86.3" font-family="Times,serif" font-size="14.00">iterativewgcna</text>
</a>
</g>
</g>
<!-- rpy2&#45;&gt;iterativewgcna -->
<g id="edge45" class="edge">
<title>rpy2&#45;&gt;iterativewgcna</title>
<path fill="none" stroke="black" d="M1369.52,-144.76C1374.63,-136.44 1380.98,-126.1 1386.74,-116.73"/>
<polygon fill="black" stroke="black" points="1389.77,-118.48 1392.02,-108.12 1383.81,-114.81 1389.77,-118.48"/>
</g>
<!-- iterativewgcna&#45;&gt;conda&#45;forge&#45;pinning -->
<g id="edge46" class="edge">
<title>iterativewgcna&#45;&gt;conda&#45;forge&#45;pinning</title>
<path fill="none" stroke="black" d="M1349.62,-76.49C1300.88,-64.96 1228.28,-47.79 1175.12,-35.22"/>
<polygon fill="black" stroke="black" points="1175.63,-31.74 1165.09,-32.85 1174.02,-38.55 1175.63,-31.74"/>
</g>
<!-- r&#45;rvaidememoire -->
<g id="node24" class="node">
<title>r&#45;rvaidememoire</title>
<g id="a_node24"><a xlink:href="https://github.com/conda-forge/r-rvaidememoire-feedstock" xlink:title="r rvaidememoire">
<ellipse fill="#35b779" stroke="black" cx="1583.54" cy="-90" rx="84" ry="18"/>
<text text-anchor="middle" x="1583.54" y="-86.3" font-family="Times,serif" font-size="14.00">r rvaidememoire</text>
</a>
</g>
</g>
<!-- r&#45;rvaidememoire&#45;&gt;conda&#45;forge&#45;pinning -->
<g id="edge47" class="edge">
<title>r&#45;rvaidememoire&#45;&gt;conda&#45;forge&#45;pinning</title>
<path fill="none" stroke="black" d="M1522.58,-77.46C1511.91,-75.56 1500.92,-73.66 1490.54,-72 1390.86,-56.02 1276.14,-40.57 1198.24,-30.51"/>
<polygon fill="black" stroke="black" points="1198.34,-27 1187.98,-29.19 1197.45,-33.94 1198.34,-27"/>
</g>
<!-- r&#45;bezier -->
<g id="node25" class="node">
<title>r&#45;bezier</title>
<g id="a_node25"><a xlink:href="https://github.com/conda-forge/r-bezier-feedstock/pull/3" xlink:title="r bezier">
<ellipse fill="#31688e" stroke="black" cx="1655.54" cy="-162" rx="50.09" ry="18"/>
<text text-anchor="middle" x="1655.54" y="-158.3" font-family="Times,serif" font-size="14.00" fill="white">r bezier</text>
</a>
</g>
</g>
<!-- r&#45;bezier&#45;&gt;conda&#45;forge&#45;pinning -->
<g id="edge48" class="edge">
<title>r&#45;bezier&#45;&gt;conda&#45;forge&#45;pinning</title>
<path fill="none" stroke="black" d="M1667.22,-144.37C1679.5,-124.65 1694.72,-91.95 1676.54,-72 1646.37,-38.89 1375.98,-26.13 1218.7,-21.48"/>
<polygon fill="black" stroke="black" points="1218.6,-17.97 1208.5,-21.18 1218.4,-24.97 1218.6,-17.97"/>
</g>
<!-- r&#45;hiver -->
<g id="node26" class="node">
<title>r&#45;hiver</title>
<g id="a_node26"><a xlink:href="https://github.com/conda-forge/r-hiver-feedstock" xlink:title="r hiver">
<ellipse fill="#35b779" stroke="black" cx="1698.54" cy="-234" rx="45" ry="18"/>
<text text-anchor="middle" x="1698.54" y="-230.3" font-family="Times,serif" font-size="14.00">r hiver</text>
</a>
</g>
</g>
<!-- r&#45;hiver&#45;&gt;conda&#45;forge&#45;pinning -->
<g id="edge49" class="edge">
<title>r&#45;hiver&#45;&gt;conda&#45;forge&#45;pinning</title>
<path fill="none" stroke="black" d="M1705.12,-216.18C1717.03,-182.56 1737.3,-107.26 1695.54,-72 1659.95,-41.94 1378.72,-27.86 1218.08,-22.22"/>
<polygon fill="black" stroke="black" points="1217.79,-18.7 1207.67,-21.86 1217.55,-25.7 1217.79,-18.7"/>
</g>
<!-- r&#45;littler -->
<g id="node27" class="node">
<title>r&#45;littler</title>
<g id="a_node27"><a xlink:href="https://github.com/conda-forge/r-littler-feedstock/pull/2" xlink:title="r littler">
<ellipse fill="#31688e" stroke="black" cx="1771.54" cy="-306" rx="54.69" ry="18"/>
<text text-anchor="middle" x="1771.54" y="-302.3" font-family="Times,serif" font-size="14.00" fill="white">r littler</text>
</a>
</g>
</g>
<!-- r&#45;littler&#45;&gt;conda&#45;forge&#45;pinning -->
<g id="edge51" class="edge">
<title>r&#45;littler&#45;&gt;conda&#45;forge&#45;pinning</title>
<path fill="none" stroke="black" d="M1773.85,-287.92C1778.67,-244.26 1784.57,-128.05 1720.54,-72 1683.71,-39.75 1385.65,-26.52 1218.75,-21.6"/>
<polygon fill="black" stroke="black" points="1218.54,-18.09 1208.44,-21.3 1218.34,-25.09 1218.54,-18.09"/>
</g>
<!-- r&#45;rxode -->
<g id="node28" class="node">
<title>r&#45;rxode</title>
<g id="a_node28"><a xlink:href="https://github.com/conda-forge/r-rxode-feedstock/pull/3" xlink:title="r rxode">
<ellipse fill="#31688e" stroke="black" cx="1866.54" cy="-162" rx="45" ry="18"/>
<text text-anchor="middle" x="1866.54" y="-158.3" font-family="Times,serif" font-size="14.00" fill="white">r rxode</text>
</a>
</g>
</g>
<!-- r&#45;rxode&#45;&gt;conda&#45;forge&#45;pinning -->
<g id="edge52" class="edge">
<title>r&#45;rxode&#45;&gt;conda&#45;forge&#45;pinning</title>
<path fill="none" stroke="black" d="M1853.83,-144.31C1835.62,-120.91 1802.43,-80.27 1785.54,-72 1735.86,-47.68 1396.05,-30.6 1216.78,-23.17"/>
<polygon fill="black" stroke="black" points="1216.66,-19.66 1206.52,-22.74 1216.37,-26.65 1216.66,-19.66"/>
</g>
<!-- r&#45;nlmixr -->
<g id="node29" class="node">
<title>r&#45;nlmixr</title>
<g id="a_node29"><a xlink:href="https://github.com/conda-forge/r-nlmixr-feedstock" xlink:title="r nlmixr">
<ellipse fill="#fde725" stroke="black" cx="1887.54" cy="-90" rx="50.09" ry="18"/>
<text text-anchor="middle" x="1887.54" y="-86.3" font-family="Times,serif" font-size="14.00">r nlmixr</text>
</a>
</g>
</g>
<!-- r&#45;rxode&#45;&gt;r&#45;nlmixr -->
<g id="edge53" class="edge">
<title>r&#45;rxode&#45;&gt;r&#45;nlmixr</title>
<path fill="none" stroke="black" d="M1871.63,-144.05C1873.97,-136.26 1876.8,-126.82 1879.42,-118.08"/>
<polygon fill="black" stroke="black" points="1882.84,-118.86 1882.36,-108.28 1876.14,-116.85 1882.84,-118.86"/>
</g>
<!-- r&#45;nlmixr&#45;&gt;conda&#45;forge&#45;pinning -->
<g id="edge54" class="edge">
<title>r&#45;nlmixr&#45;&gt;conda&#45;forge&#45;pinning</title>
<path fill="none" stroke="black" d="M1850.23,-77.84C1841.54,-75.59 1832.27,-73.47 1823.54,-72 1611.84,-36.38 1360.95,-24.7 1219.1,-20.87"/>
<polygon fill="black" stroke="black" points="1219.16,-17.37 1209.07,-20.61 1218.98,-24.37 1219.16,-17.37"/>
</g>
<!-- r&#45;tiledb -->
<g id="node30" class="node">
<title>r&#45;tiledb</title>
<g id="a_node30"><a xlink:href="https://github.com/conda-forge/r-tiledb-feedstock/pull/5" xlink:title="r tiledb">
<ellipse fill="#31688e" stroke="black" cx="1965.54" cy="-378" rx="50.09" ry="18"/>
<text text-anchor="middle" x="1965.54" y="-374.3" font-family="Times,serif" font-size="14.00" fill="white">r tiledb</text>
</a>
</g>
</g>
<!-- r&#45;tiledb&#45;&gt;conda&#45;forge&#45;pinning -->
<g id="edge55" class="edge">
<title>r&#45;tiledb&#45;&gt;conda&#45;forge&#45;pinning</title>
<path fill="none" stroke="black" d="M1965.54,-359.95C1965.54,-333.29 1965.54,-280.11 1965.54,-235 1965.54,-235 1965.54,-235 1965.54,-161 1965.54,-120.55 1977.17,-98.42 1946.54,-72 1892.83,-25.67 1437.37,-19.13 1220.48,-18.67"/>
<polygon fill="black" stroke="black" points="1220.34,-15.17 1210.34,-18.66 1220.33,-22.17 1220.34,-15.17"/>
</g>
<!-- r&#45;raceid -->
<g id="node31" class="node">
<title>r&#45;raceid</title>
<g id="a_node31"><a xlink:href="https://github.com/conda-forge/r-raceid-feedstock" xlink:title="r raceid">
<ellipse fill="#35b779" stroke="black" cx="2043.54" cy="-90" rx="50.09" ry="18"/>
<text text-anchor="middle" x="2043.54" y="-86.3" font-family="Times,serif" font-size="14.00">r raceid</text>
</a>
</g>
</g>
<!-- r&#45;raceid&#45;&gt;conda&#45;forge&#45;pinning -->
<g id="edge56" class="edge">
<title>r&#45;raceid&#45;&gt;conda&#45;forge&#45;pinning</title>
<path fill="none" stroke="black" d="M2006.59,-77.85C1997.8,-75.57 1988.4,-73.43 1979.54,-72 1709.62,-28.4 1387.49,-19.92 1220.14,-18.72"/>
<polygon fill="black" stroke="black" points="1220.11,-15.22 1210.08,-18.65 1220.06,-22.22 1220.11,-15.22"/>
</g>
<!-- r&#45;botor -->
<g id="node32" class="node">
<title>r&#45;botor</title>
<g id="a_node32"><a xlink:href="https://github.com/conda-forge/r-botor-feedstock" xlink:title="r botor">
<ellipse fill="#35b779" stroke="black" cx="2121.54" cy="-162" rx="45" ry="18"/>
<text text-anchor="middle" x="2121.54" y="-158.3" font-family="Times,serif" font-size="14.00">r botor</text>
</a>
</g>
</g>
<!-- r&#45;botor&#45;&gt;conda&#45;forge&#45;pinning -->
<g id="edge57" class="edge">
<title>r&#45;botor&#45;&gt;conda&#45;forge&#45;pinning</title>
<path fill="none" stroke="black" d="M2123.45,-143.88C2124.66,-123.36 2123.09,-89.55 2102.54,-72 2069.4,-43.7 1472.34,-27.13 1218.86,-21.35"/>
<polygon fill="black" stroke="black" points="1218.6,-17.84 1208.52,-21.11 1218.44,-24.84 1218.6,-17.84"/>
</g>
<!-- r&#45;comparegroups -->
<g id="node33" class="node">
<title>r&#45;comparegroups</title>
<g id="a_node33"><a xlink:href="https://github.com/conda-forge/r-comparegroups-feedstock" xlink:title="r comparegroups">
<ellipse fill="#35b779" stroke="black" cx="2194.54" cy="-234" rx="84" ry="18"/>
<text text-anchor="middle" x="2194.54" y="-230.3" font-family="Times,serif" font-size="14.00">r comparegroups</text>
</a>
</g>
</g>
<!-- r&#45;comparegroups&#45;&gt;conda&#45;forge&#45;pinning -->
<g id="edge58" class="edge">
<title>r&#45;comparegroups&#45;&gt;conda&#45;forge&#45;pinning</title>
<path fill="none" stroke="black" d="M2193.67,-215.96C2190.82,-180.85 2178.64,-101.31 2126.54,-72 2049.24,-28.5 1469.59,-20.62 1220.14,-19.25"/>
<polygon fill="black" stroke="black" points="1219.98,-15.75 1209.96,-19.2 1219.95,-22.75 1219.98,-15.75"/>
</g>
</g>
</svg>
