<?xml version="1.0" encoding="UTF-8" standalone="no"?>
<!DOCTYPE svg PUBLIC "-//W3C//DTD SVG 1.1//EN"
 "http://www.w3.org/Graphics/SVG/1.1/DTD/svg11.dtd">
<!-- Generated by graphviz version 2.42.3 (20191010.1750)
 -->
<!-- Title: %3 Pages: 1 -->
<svg width="2180pt" height="476pt"
 viewBox="0.00 0.00 2180.42 476.00" xmlns="http://www.w3.org/2000/svg" xmlns:xlink="http://www.w3.org/1999/xlink">
<g id="graph0" class="graph" transform="scale(1 1) rotate(0) translate(4 472)">
<title>%3</title>
<polygon fill="white" stroke="transparent" points="-4,4 -4,-472 2176.42,-472 2176.42,4 -4,4"/>
<!-- r&#45;fst -->
<g id="node1" class="node">
<title>r&#45;fst</title>
<g id="a_node1"><a xlink:href="https://github.com/conda-forge/r-fst-feedstock/pull/11" xlink:title="r fst">
<ellipse fill="#31688e" stroke="black" cx="38.37" cy="-162" rx="35.19" ry="18"/>
<text text-anchor="middle" x="38.37" y="-158.3" font-family="Times,serif" font-size="14.00" fill="white">r fst</text>
</a>
</g>
</g>
<!-- r&#45;disk.frame -->
<g id="node2" class="node">
<title>r&#45;disk.frame</title>
<g id="a_node2"><a xlink:href="https://github.com/conda-forge/r-disk.frame-feedstock" xlink:title="r disk frame">
<ellipse fill="#fde725" stroke="black" cx="87.37" cy="-90" rx="69.59" ry="18"/>
<text text-anchor="middle" x="87.37" y="-86.3" font-family="Times,serif" font-size="14.00">r disk frame</text>
</a>
</g>
</g>
<!-- r&#45;fst&#45;&gt;r&#45;disk.frame -->
<g id="edge1" class="edge">
<title>r&#45;fst&#45;&gt;r&#45;disk.frame</title>
<path fill="none" stroke="black" d="M49.74,-144.76C55.63,-136.35 62.95,-125.89 69.57,-116.44"/>
<polygon fill="black" stroke="black" points="72.52,-118.32 75.39,-108.12 66.79,-114.31 72.52,-118.32"/>
</g>
<!-- conda&#45;forge&#45;pinning -->
<g id="node3" class="node">
<title>conda&#45;forge&#45;pinning</title>
<ellipse fill="none" stroke="black" cx="1092.37" cy="-18" rx="103.5" ry="18"/>
<text text-anchor="middle" x="1092.37" y="-14.3" font-family="Times,serif" font-size="14.00">conda&#45;forge&#45;pinning</text>
</g>
<!-- r&#45;fst&#45;&gt;conda&#45;forge&#45;pinning -->
<g id="edge2" class="edge">
<title>r&#45;fst&#45;&gt;conda&#45;forge&#45;pinning</title>
<path fill="none" stroke="black" d="M24.56,-145.1C9.22,-125.5 -10.97,-92.31 8.37,-72 41.45,-37.27 707.77,-24.26 979,-20.39"/>
<polygon fill="black" stroke="black" points="979.32,-23.88 989.27,-20.24 979.22,-16.88 979.32,-23.88"/>
</g>
<!-- r&#45;disk.frame&#45;&gt;conda&#45;forge&#45;pinning -->
<g id="edge3" class="edge">
<title>r&#45;disk.frame&#45;&gt;conda&#45;forge&#45;pinning</title>
<path fill="none" stroke="black" d="M137.82,-77.58C148.83,-75.43 160.45,-73.41 171.37,-72 460.85,-34.57 804.93,-23.57 979.16,-20.34"/>
<polygon fill="black" stroke="black" points="979.44,-23.84 989.37,-20.16 979.31,-16.84 979.44,-23.84"/>
</g>
<!-- r&#45;hive -->
<g id="node4" class="node">
<title>r&#45;hive</title>
<g id="a_node4"><a xlink:href="https://github.com/conda-forge/r-hive-feedstock" xlink:title="r hive">
<ellipse fill="#fde725" stroke="black" cx="1309.37" cy="-234" rx="40.5" ry="18"/>
<text text-anchor="middle" x="1309.37" y="-230.3" font-family="Times,serif" font-size="14.00">r hive</text>
</a>
</g>
</g>
<!-- r&#45;hive&#45;&gt;conda&#45;forge&#45;pinning -->
<g id="edge4" class="edge">
<title>r&#45;hive&#45;&gt;conda&#45;forge&#45;pinning</title>
<path fill="none" stroke="black" d="M1308.39,-215.82C1305.6,-183.22 1294.95,-112.05 1254.37,-72 1234.59,-52.47 1207.5,-40.13 1181.14,-32.34"/>
<polygon fill="black" stroke="black" points="1182.05,-28.96 1171.47,-29.68 1180.18,-35.71 1182.05,-28.96"/>
</g>
<!-- r&#45;rjava -->
<g id="node5" class="node">
<title>r&#45;rjava</title>
<g id="a_node5"><a xlink:href="https://github.com/conda-forge/r-rjava-feedstock" xlink:title="r rjava">
<ellipse fill="#35b779" stroke="black" cx="857.37" cy="-450" rx="45" ry="18"/>
<text text-anchor="middle" x="857.37" y="-446.3" font-family="Times,serif" font-size="14.00">r rjava</text>
</a>
</g>
</g>
<!-- r&#45;rjava&#45;&gt;conda&#45;forge&#45;pinning -->
<g id="edge5" class="edge">
<title>r&#45;rjava&#45;&gt;conda&#45;forge&#45;pinning</title>
<path fill="none" stroke="black" d="M902.1,-446.97C1013.97,-441.47 1299.21,-424.75 1330.37,-396 1437.41,-297.24 1394.93,-163.19 1281.37,-72 1254.89,-50.73 1220.37,-37.99 1188.09,-30.36"/>
<polygon fill="black" stroke="black" points="1188.68,-26.9 1178.16,-28.15 1187.16,-33.74 1188.68,-26.9"/>
</g>
<!-- r&#45;rjava&#45;&gt;r&#45;hive -->
<g id="edge6" class="edge">
<title>r&#45;rjava&#45;&gt;r&#45;hive</title>
<path fill="none" stroke="black" d="M901.81,-447.04C1010.05,-441.81 1280.5,-425.85 1307.37,-396 1340.31,-359.41 1328.88,-296.97 1318.53,-261.56"/>
<polygon fill="black" stroke="black" points="1321.85,-260.43 1315.55,-251.92 1315.16,-262.5 1321.85,-260.43"/>
</g>
<!-- r&#45;xlsx -->
<g id="node6" class="node">
<title>r&#45;xlsx</title>
<g id="a_node6"><a xlink:href="https://github.com/conda-forge/r-xlsx-feedstock" xlink:title="r xlsx">
<ellipse fill="#fde725" stroke="black" cx="441.37" cy="-306" rx="40.5" ry="18"/>
<text text-anchor="middle" x="441.37" y="-302.3" font-family="Times,serif" font-size="14.00">r xlsx</text>
</a>
</g>
</g>
<!-- r&#45;rjava&#45;&gt;r&#45;xlsx -->
<g id="edge7" class="edge">
<title>r&#45;rjava&#45;&gt;r&#45;xlsx</title>
<path fill="none" stroke="black" d="M812.96,-447.05C728.52,-442.61 548.64,-429.42 497.37,-396 474.77,-381.26 459.6,-353.87 450.81,-333.36"/>
<polygon fill="black" stroke="black" points="453.99,-331.89 447.01,-323.92 447.5,-334.5 453.99,-331.89"/>
</g>
<!-- r&#45;xlsxjars -->
<g id="node7" class="node">
<title>r&#45;xlsxjars</title>
<g id="a_node7"><a xlink:href="https://github.com/conda-forge/r-xlsxjars-feedstock" xlink:title="r xlsxjars">
<ellipse fill="#fde725" stroke="black" cx="385.37" cy="-378" rx="60" ry="18"/>
<text text-anchor="middle" x="385.37" y="-374.3" font-family="Times,serif" font-size="14.00">r xlsxjars</text>
</a>
</g>
</g>
<!-- r&#45;rjava&#45;&gt;r&#45;xlsxjars -->
<g id="edge8" class="edge">
<title>r&#45;rjava&#45;&gt;r&#45;xlsxjars</title>
<path fill="none" stroke="black" d="M814.17,-444.59C740.89,-436.8 587.64,-419.22 459.37,-396 453.16,-394.88 446.68,-393.58 440.25,-392.21"/>
<polygon fill="black" stroke="black" points="440.76,-388.73 430.24,-390.01 439.26,-395.57 440.76,-388.73"/>
</g>
<!-- r&#45;xlconnectjars -->
<g id="node8" class="node">
<title>r&#45;xlconnectjars</title>
<g id="a_node8"><a xlink:href="https://github.com/conda-forge/r-xlconnectjars-feedstock" xlink:title="r xlconnectjars">
<ellipse fill="#fde725" stroke="black" cx="185.37" cy="-378" rx="84" ry="18"/>
<text text-anchor="middle" x="185.37" y="-374.3" font-family="Times,serif" font-size="14.00">r xlconnectjars</text>
</a>
</g>
</g>
<!-- r&#45;rjava&#45;&gt;r&#45;xlconnectjars -->
<g id="edge9" class="edge">
<title>r&#45;rjava&#45;&gt;r&#45;xlconnectjars</title>
<path fill="none" stroke="black" d="M813.31,-446.13C716.94,-439.6 480.3,-422.13 283.37,-396 274.67,-394.84 265.55,-393.48 256.54,-392.03"/>
<polygon fill="black" stroke="black" points="256.86,-388.53 246.42,-390.36 255.72,-395.44 256.86,-388.53"/>
</g>
<!-- r&#45;xlconnect -->
<g id="node9" class="node">
<title>r&#45;xlconnect</title>
<g id="a_node9"><a xlink:href="https://github.com/conda-forge/r-xlconnect-feedstock" xlink:title="r xlconnect">
<ellipse fill="#fde725" stroke="black" cx="278.37" cy="-306" rx="64.5" ry="18"/>
<text text-anchor="middle" x="278.37" y="-302.3" font-family="Times,serif" font-size="14.00">r xlconnect</text>
</a>
</g>
</g>
<!-- r&#45;rjava&#45;&gt;r&#45;xlconnect -->
<g id="edge10" class="edge">
<title>r&#45;rjava&#45;&gt;r&#45;xlconnect</title>
<path fill="none" stroke="black" d="M812.51,-447.21C689.96,-441.95 356.05,-425.08 316.37,-396 296.64,-381.54 287.06,-354.73 282.47,-334.3"/>
<polygon fill="black" stroke="black" points="285.87,-333.44 280.5,-324.3 279,-334.79 285.87,-333.44"/>
</g>
<!-- r&#45;rcdklibs -->
<g id="node10" class="node">
<title>r&#45;rcdklibs</title>
<g id="a_node10"><a xlink:href="https://github.com/conda-forge/r-rcdklibs-feedstock" xlink:title="r rcdklibs">
<ellipse fill="#fde725" stroke="black" cx="627.37" cy="-378" rx="60" ry="18"/>
<text text-anchor="middle" x="627.37" y="-374.3" font-family="Times,serif" font-size="14.00">r rcdklibs</text>
</a>
</g>
</g>
<!-- r&#45;rjava&#45;&gt;r&#45;rcdklibs -->
<g id="edge11" class="edge">
<title>r&#45;rjava&#45;&gt;r&#45;rcdklibs</title>
<path fill="none" stroke="black" d="M822.44,-438.37C783.89,-426.63 721.5,-407.65 677.68,-394.31"/>
<polygon fill="black" stroke="black" points="678.66,-390.95 668.08,-391.39 676.62,-397.65 678.66,-390.95"/>
</g>
<!-- r&#45;rcdk -->
<g id="node11" class="node">
<title>r&#45;rcdk</title>
<g id="a_node11"><a xlink:href="https://github.com/conda-forge/r-rcdk-feedstock" xlink:title="r rcdk">
<ellipse fill="#fde725" stroke="black" cx="627.37" cy="-306" rx="40.5" ry="18"/>
<text text-anchor="middle" x="627.37" y="-302.3" font-family="Times,serif" font-size="14.00">r rcdk</text>
</a>
</g>
</g>
<!-- r&#45;rjava&#45;&gt;r&#45;rcdk -->
<g id="edge12" class="edge">
<title>r&#45;rjava&#45;&gt;r&#45;rcdk</title>
<path fill="none" stroke="black" d="M834.06,-434.6C792.43,-408.9 705.32,-355.12 658.58,-326.27"/>
<polygon fill="black" stroke="black" points="660.42,-323.29 650.07,-321.01 656.74,-329.25 660.42,-323.29"/>
</g>
<!-- r&#45;rchoicedialogs -->
<g id="node12" class="node">
<title>r&#45;rchoicedialogs</title>
<g id="a_node12"><a xlink:href="https://github.com/conda-forge/r-rchoicedialogs-feedstock" xlink:title="r rchoicedialogs">
<ellipse fill="#fde725" stroke="black" cx="685.37" cy="-234" rx="89.08" ry="18"/>
<text text-anchor="middle" x="685.37" y="-230.3" font-family="Times,serif" font-size="14.00">r rchoicedialogs</text>
</a>
</g>
</g>
<!-- r&#45;rjava&#45;&gt;r&#45;rchoicedialogs -->
<g id="edge13" class="edge">
<title>r&#45;rjava&#45;&gt;r&#45;rchoicedialogs</title>
<path fill="none" stroke="black" d="M844.16,-432.56C814.23,-395.32 741.1,-304.33 705.5,-260.04"/>
<polygon fill="black" stroke="black" points="708.1,-257.69 699.11,-252.09 702.64,-262.07 708.1,-257.69"/>
</g>
<!-- r&#45;rwekajars -->
<g id="node13" class="node">
<title>r&#45;rwekajars</title>
<g id="a_node13"><a xlink:href="https://github.com/conda-forge/r-rwekajars-feedstock" xlink:title="r rwekajars">
<ellipse fill="#fde725" stroke="black" cx="857.37" cy="-234" rx="64.5" ry="18"/>
<text text-anchor="middle" x="857.37" y="-230.3" font-family="Times,serif" font-size="14.00">r rwekajars</text>
</a>
</g>
</g>
<!-- r&#45;rjava&#45;&gt;r&#45;rwekajars -->
<g id="edge14" class="edge">
<title>r&#45;rjava&#45;&gt;r&#45;rwekajars</title>
<path fill="none" stroke="black" d="M857.37,-431.85C857.37,-394.83 857.37,-307.18 857.37,-262.39"/>
<polygon fill="black" stroke="black" points="860.87,-262.23 857.37,-252.23 853.87,-262.23 860.87,-262.23"/>
</g>
<!-- r&#45;rweka -->
<g id="node14" class="node">
<title>r&#45;rweka</title>
<g id="a_node14"><a xlink:href="https://github.com/conda-forge/r-rweka-feedstock" xlink:title="r rweka">
<ellipse fill="#fde725" stroke="black" cx="896.37" cy="-162" rx="45" ry="18"/>
<text text-anchor="middle" x="896.37" y="-158.3" font-family="Times,serif" font-size="14.00">r rweka</text>
</a>
</g>
</g>
<!-- r&#45;rjava&#45;&gt;r&#45;rweka -->
<g id="edge15" class="edge">
<title>r&#45;rjava&#45;&gt;r&#45;rweka</title>
<path fill="none" stroke="black" d="M865.95,-432.19C882.4,-398.87 917.88,-321.65 930.37,-252 933.2,-236.25 934.88,-231.35 930.37,-216 927.45,-206.03 922.02,-196.17 916.34,-187.7"/>
<polygon fill="black" stroke="black" points="919.09,-185.53 910.42,-179.43 913.39,-189.6 919.09,-185.53"/>
</g>
<!-- r&#45;subspace -->
<g id="node15" class="node">
<title>r&#45;subspace</title>
<g id="a_node15"><a xlink:href="https://github.com/conda-forge/r-subspace-feedstock" xlink:title="r subspace">
<ellipse fill="#fde725" stroke="black" cx="1038.37" cy="-234" rx="60" ry="18"/>
<text text-anchor="middle" x="1038.37" y="-230.3" font-family="Times,serif" font-size="14.00">r subspace</text>
</a>
</g>
</g>
<!-- r&#45;rjava&#45;&gt;r&#45;subspace -->
<g id="edge16" class="edge">
<title>r&#45;rjava&#45;&gt;r&#45;subspace</title>
<path fill="none" stroke="black" d="M892.5,-438.58C915.45,-430.23 944.72,-416.5 964.37,-396 1000.73,-358.09 990.14,-335.59 1012.37,-288 1016.47,-279.23 1021.09,-269.72 1025.28,-261.2"/>
<polygon fill="black" stroke="black" points="1028.48,-262.62 1029.78,-252.11 1022.21,-259.52 1028.48,-262.62"/>
</g>
<!-- r&#45;rmcfs -->
<g id="node16" class="node">
<title>r&#45;rmcfs</title>
<g id="a_node16"><a xlink:href="https://github.com/conda-forge/r-rmcfs-feedstock" xlink:title="r rmcfs">
<ellipse fill="#fde725" stroke="black" cx="1091.37" cy="-162" rx="45" ry="18"/>
<text text-anchor="middle" x="1091.37" y="-158.3" font-family="Times,serif" font-size="14.00">r rmcfs</text>
</a>
</g>
</g>
<!-- r&#45;rjava&#45;&gt;r&#45;rmcfs -->
<g id="edge17" class="edge">
<title>r&#45;rjava&#45;&gt;r&#45;rmcfs</title>
<path fill="none" stroke="black" d="M896.68,-441.06C925.63,-433.55 964.47,-419.77 991.37,-396 1032.36,-359.78 1012.94,-327.88 1050.37,-288 1070.88,-266.15 1092.91,-278.24 1107.37,-252 1118.04,-232.65 1112.14,-207.69 1104.67,-189.12"/>
<polygon fill="black" stroke="black" points="1107.81,-187.55 1100.58,-179.8 1101.4,-190.37 1107.81,-187.55"/>
</g>
<!-- r&#45;rjdbc -->
<g id="node17" class="node">
<title>r&#45;rjdbc</title>
<g id="a_node17"><a xlink:href="https://github.com/conda-forge/r-rjdbc-feedstock" xlink:title="r rjdbc">
<ellipse fill="#fde725" stroke="black" cx="1129.37" cy="-90" rx="45" ry="18"/>
<text text-anchor="middle" x="1129.37" y="-86.3" font-family="Times,serif" font-size="14.00">r rjdbc</text>
</a>
</g>
</g>
<!-- r&#45;rjava&#45;&gt;r&#45;rjdbc -->
<g id="edge18" class="edge">
<title>r&#45;rjava&#45;&gt;r&#45;rjdbc</title>
<path fill="none" stroke="black" d="M899.58,-443.43C934.53,-437 983.87,-423.53 1018.37,-396 1062.16,-361.06 1047.45,-330.99 1083.37,-288 1098.92,-269.39 1111.35,-272.45 1124.37,-252 1142.28,-223.88 1140.66,-213 1145.37,-180 1147.64,-164.16 1147.71,-159.83 1145.37,-144 1144.08,-135.21 1141.63,-125.86 1139.03,-117.5"/>
<polygon fill="black" stroke="black" points="1142.32,-116.29 1135.86,-107.9 1135.68,-118.49 1142.32,-116.29"/>
</g>
<!-- r&#45;tabulizer -->
<g id="node18" class="node">
<title>r&#45;tabulizer</title>
<g id="a_node18"><a xlink:href="https://github.com/conda-forge/r-tabulizer-feedstock" xlink:title="r tabulizer">
<ellipse fill="#fde725" stroke="black" cx="1157.37" cy="-306" rx="64.5" ry="18"/>
<text text-anchor="middle" x="1157.37" y="-302.3" font-family="Times,serif" font-size="14.00">r tabulizer</text>
</a>
</g>
</g>
<!-- r&#45;rjava&#45;&gt;r&#45;tabulizer -->
<g id="edge19" class="edge">
<title>r&#45;rjava&#45;&gt;r&#45;tabulizer</title>
<path fill="none" stroke="black" d="M901.41,-446.23C948.25,-441.59 1023.05,-429.17 1078.37,-396 1104.77,-380.17 1127.19,-352.63 1141.33,-332.37"/>
<polygon fill="black" stroke="black" points="1144.35,-334.16 1147.05,-323.91 1138.55,-330.23 1144.35,-334.16"/>
</g>
<!-- r&#45;tabulizerjars -->
<g id="node19" class="node">
<title>r&#45;tabulizerjars</title>
<g id="a_node19"><a xlink:href="https://github.com/conda-forge/r-tabulizerjars-feedstock" xlink:title="r tabulizerjars">
<ellipse fill="#fde725" stroke="black" cx="1214.37" cy="-378" rx="84" ry="18"/>
<text text-anchor="middle" x="1214.37" y="-374.3" font-family="Times,serif" font-size="14.00">r tabulizerjars</text>
</a>
</g>
</g>
<!-- r&#45;rjava&#45;&gt;r&#45;tabulizerjars -->
<g id="edge20" class="edge">
<title>r&#45;rjava&#45;&gt;r&#45;tabulizerjars</title>
<path fill="none" stroke="black" d="M896.94,-441.24C956.68,-429.53 1070.73,-407.17 1144.61,-392.68"/>
<polygon fill="black" stroke="black" points="1145.62,-396.05 1154.76,-390.69 1144.28,-389.18 1145.62,-396.05"/>
</g>
<!-- r&#45;destinie -->
<g id="node20" class="node">
<title>r&#45;destinie</title>
<g id="a_node20"><a xlink:href="https://github.com/conda-forge/r-destinie-feedstock" xlink:title="r destinie">
<ellipse fill="#fde725" stroke="black" cx="442.37" cy="-234" rx="60" ry="18"/>
<text text-anchor="middle" x="442.37" y="-230.3" font-family="Times,serif" font-size="14.00">r destinie</text>
</a>
</g>
</g>
<!-- r&#45;rjava&#45;&gt;r&#45;destinie -->
<g id="edge21" class="edge">
<title>r&#45;rjava&#45;&gt;r&#45;destinie</title>
<path fill="none" stroke="black" d="M813.71,-445.6C741.09,-439.24 599.44,-423.62 558.37,-396 511.31,-364.34 524.65,-333.19 490.37,-288 482.83,-278.06 473.81,-267.75 465.63,-258.89"/>
<polygon fill="black" stroke="black" points="468.12,-256.43 458.72,-251.53 463.02,-261.22 468.12,-256.43"/>
</g>
<!-- r&#45;xlsx&#45;&gt;conda&#45;forge&#45;pinning -->
<g id="edge22" class="edge">
<title>r&#45;xlsx&#45;&gt;conda&#45;forge&#45;pinning</title>
<path fill="none" stroke="black" d="M415.07,-292.24C399.85,-283.29 382.05,-269.75 373.37,-252 366.35,-237.62 368.35,-231.19 373.37,-216 398.42,-140.3 410.75,-110.86 480.37,-72 523.07,-48.17 818.73,-31.28 982.96,-23.62"/>
<polygon fill="black" stroke="black" points="983.27,-27.11 993.1,-23.15 982.95,-20.12 983.27,-27.11"/>
</g>
<!-- r&#45;xlsx&#45;&gt;r&#45;destinie -->
<g id="edge23" class="edge">
<title>r&#45;xlsx&#45;&gt;r&#45;destinie</title>
<path fill="none" stroke="black" d="M441.62,-287.7C441.73,-279.98 441.86,-270.71 441.99,-262.11"/>
<polygon fill="black" stroke="black" points="445.49,-262.15 442.13,-252.1 438.49,-262.05 445.49,-262.15"/>
</g>
<!-- r&#45;xlsxjars&#45;&gt;conda&#45;forge&#45;pinning -->
<g id="edge24" class="edge">
<title>r&#45;xlsxjars&#45;&gt;conda&#45;forge&#45;pinning</title>
<path fill="none" stroke="black" d="M380.46,-359.9C365.76,-304.77 328.95,-131.84 426.37,-72 472.4,-43.73 804.01,-28.54 981.27,-22.36"/>
<polygon fill="black" stroke="black" points="981.54,-25.86 991.42,-22.01 981.3,-18.86 981.54,-25.86"/>
</g>
<!-- r&#45;xlsxjars&#45;&gt;r&#45;xlsx -->
<g id="edge25" class="edge">
<title>r&#45;xlsxjars&#45;&gt;r&#45;xlsx</title>
<path fill="none" stroke="black" d="M398.65,-360.41C405.55,-351.78 414.12,-341.06 421.78,-331.5"/>
<polygon fill="black" stroke="black" points="424.68,-333.47 428.2,-323.47 419.22,-329.09 424.68,-333.47"/>
</g>
<!-- r&#45;xlconnectjars&#45;&gt;conda&#45;forge&#45;pinning -->
<g id="edge26" class="edge">
<title>r&#45;xlconnectjars&#45;&gt;conda&#45;forge&#45;pinning</title>
<path fill="none" stroke="black" d="M185.37,-359.95C185.37,-333.29 185.37,-280.11 185.37,-235 185.37,-235 185.37,-235 185.37,-161 185.37,-104.74 224.06,-95.06 275.37,-72 338.04,-43.84 772.02,-27.99 980.74,-21.91"/>
<polygon fill="black" stroke="black" points="980.91,-25.41 990.81,-21.62 980.71,-18.41 980.91,-25.41"/>
</g>
<!-- r&#45;xlconnectjars&#45;&gt;r&#45;xlconnect -->
<g id="edge27" class="edge">
<title>r&#45;xlconnectjars&#45;&gt;r&#45;xlconnect</title>
<path fill="none" stroke="black" d="M207.41,-360.41C219.78,-351.1 235.37,-339.37 248.79,-329.27"/>
<polygon fill="black" stroke="black" points="250.93,-332.04 256.81,-323.23 246.72,-326.45 250.93,-332.04"/>
</g>
<!-- r&#45;xlconnect&#45;&gt;conda&#45;forge&#45;pinning -->
<g id="edge28" class="edge">
<title>r&#45;xlconnect&#45;&gt;conda&#45;forge&#45;pinning</title>
<path fill="none" stroke="black" d="M273.71,-287.83C263.08,-244.48 242.39,-129.89 302.37,-72 349.89,-26.15 771.07,-19.27 978.27,-18.69"/>
<polygon fill="black" stroke="black" points="978.58,-22.19 988.57,-18.67 978.56,-15.19 978.58,-22.19"/>
</g>
<!-- r&#45;rcdklibs&#45;&gt;conda&#45;forge&#45;pinning -->
<g id="edge29" class="edge">
<title>r&#45;rcdklibs&#45;&gt;conda&#45;forge&#45;pinning</title>
<path fill="none" stroke="black" d="M606.08,-361.11C595.27,-351.68 583.21,-338.7 577.37,-324 573.24,-313.59 574.21,-243.26 579.37,-216 594.36,-136.87 615.83,-104.82 689.37,-72 741.01,-48.96 885.91,-34 987.08,-26.03"/>
<polygon fill="black" stroke="black" points="987.64,-29.49 997.34,-25.23 987.1,-22.52 987.64,-29.49"/>
</g>
<!-- r&#45;rcdklibs&#45;&gt;r&#45;rcdk -->
<g id="edge30" class="edge">
<title>r&#45;rcdklibs&#45;&gt;r&#45;rcdk</title>
<path fill="none" stroke="black" d="M627.37,-359.7C627.37,-351.98 627.37,-342.71 627.37,-334.11"/>
<polygon fill="black" stroke="black" points="630.87,-334.1 627.37,-324.1 623.87,-334.1 630.87,-334.1"/>
</g>
<!-- r&#45;rcdk&#45;&gt;conda&#45;forge&#45;pinning -->
<g id="edge31" class="edge">
<title>r&#45;rcdk&#45;&gt;conda&#45;forge&#45;pinning</title>
<path fill="none" stroke="black" d="M611.3,-289.45C602.38,-279.66 592.13,-266.21 587.37,-252 582.29,-236.83 580.33,-230.37 587.37,-216 633.41,-122.14 677.57,-113.84 773.37,-72 839.43,-43.16 919.46,-29.91 982.83,-23.88"/>
<polygon fill="black" stroke="black" points="983.21,-27.36 992.86,-22.97 982.58,-20.39 983.21,-27.36"/>
</g>
<!-- r&#45;rchoicedialogs&#45;&gt;conda&#45;forge&#45;pinning -->
<g id="edge32" class="edge">
<title>r&#45;rchoicedialogs&#45;&gt;conda&#45;forge&#45;pinning</title>
<path fill="none" stroke="black" d="M694.48,-216.09C713.45,-182.65 760.62,-108.17 822.37,-72 870.49,-43.82 930.85,-30.32 982.3,-23.97"/>
<polygon fill="black" stroke="black" points="982.93,-27.42 992.46,-22.8 982.13,-20.47 982.93,-27.42"/>
</g>
<!-- r&#45;rwekajars&#45;&gt;conda&#45;forge&#45;pinning -->
<g id="edge33" class="edge">
<title>r&#45;rwekajars&#45;&gt;conda&#45;forge&#45;pinning</title>
<path fill="none" stroke="black" d="M848.51,-215.7C833.39,-183.51 807.41,-113.89 841.37,-72 860.37,-48.57 929.54,-35.1 990.47,-27.6"/>
<polygon fill="black" stroke="black" points="991.04,-31.06 1000.56,-26.41 990.21,-24.11 991.04,-31.06"/>
</g>
<!-- r&#45;rwekajars&#45;&gt;r&#45;rweka -->
<g id="edge34" class="edge">
<title>r&#45;rwekajars&#45;&gt;r&#45;rweka</title>
<path fill="none" stroke="black" d="M866.82,-216.05C871.41,-207.8 877.04,-197.7 882.15,-188.54"/>
<polygon fill="black" stroke="black" points="885.21,-190.23 887.02,-179.79 879.1,-186.82 885.21,-190.23"/>
</g>
<!-- r&#45;rweka&#45;&gt;conda&#45;forge&#45;pinning -->
<g id="edge35" class="edge">
<title>r&#45;rweka&#45;&gt;conda&#45;forge&#45;pinning</title>
<path fill="none" stroke="black" d="M878.31,-145.38C858.83,-126.66 832.93,-94.94 851.37,-72 869.39,-49.59 934.78,-36.11 992.9,-28.36"/>
<polygon fill="black" stroke="black" points="993.43,-31.82 1002.9,-27.07 992.54,-24.87 993.43,-31.82"/>
</g>
<!-- r&#45;fselector -->
<g id="node21" class="node">
<title>r&#45;fselector</title>
<g id="a_node21"><a xlink:href="https://github.com/conda-forge/r-fselector-feedstock" xlink:title="r fselector">
<ellipse fill="#fde725" stroke="black" cx="925.37" cy="-90" rx="64.5" ry="18"/>
<text text-anchor="middle" x="925.37" y="-86.3" font-family="Times,serif" font-size="14.00">r fselector</text>
</a>
</g>
</g>
<!-- r&#45;rweka&#45;&gt;r&#45;fselector -->
<g id="edge36" class="edge">
<title>r&#45;rweka&#45;&gt;r&#45;fselector</title>
<path fill="none" stroke="black" d="M903.39,-144.05C906.66,-136.18 910.62,-126.62 914.27,-117.79"/>
<polygon fill="black" stroke="black" points="917.62,-118.85 918.22,-108.28 911.16,-116.17 917.62,-118.85"/>
</g>
<!-- r&#45;subspace&#45;&gt;conda&#45;forge&#45;pinning -->
<g id="edge37" class="edge">
<title>r&#45;subspace&#45;&gt;conda&#45;forge&#45;pinning</title>
<path fill="none" stroke="black" d="M1035.99,-215.72C1033.99,-197.63 1032.22,-168.5 1037.37,-144 1044.95,-107.95 1063.59,-69.61 1077.08,-45.05"/>
<polygon fill="black" stroke="black" points="1080.29,-46.46 1082.13,-36.03 1074.19,-43.04 1080.29,-46.46"/>
</g>
<!-- r&#45;rmcfs&#45;&gt;conda&#45;forge&#45;pinning -->
<g id="edge38" class="edge">
<title>r&#45;rmcfs&#45;&gt;conda&#45;forge&#45;pinning</title>
<path fill="none" stroke="black" d="M1084.89,-144.1C1081.3,-133.84 1077.2,-120.36 1075.37,-108 1073.04,-92.17 1072.9,-87.81 1075.37,-72 1076.73,-63.31 1079.27,-54.1 1081.99,-45.84"/>
<polygon fill="black" stroke="black" points="1085.31,-46.93 1085.31,-36.33 1078.71,-44.62 1085.31,-46.93"/>
</g>
<!-- r&#45;rjdbc&#45;&gt;conda&#45;forge&#45;pinning -->
<g id="edge39" class="edge">
<title>r&#45;rjdbc&#45;&gt;conda&#45;forge&#45;pinning</title>
<path fill="none" stroke="black" d="M1120.42,-72.05C1116.16,-64.01 1110.98,-54.2 1106.24,-45.23"/>
<polygon fill="black" stroke="black" points="1109.27,-43.48 1101.51,-36.28 1103.08,-46.75 1109.27,-43.48"/>
</g>
<!-- r&#45;tabulizer&#45;&gt;conda&#45;forge&#45;pinning -->
<g id="edge40" class="edge">
<title>r&#45;tabulizer&#45;&gt;conda&#45;forge&#45;pinning</title>
<path fill="none" stroke="black" d="M1165.69,-288.09C1184.27,-247.66 1224.45,-143.46 1183.37,-72 1175.15,-57.69 1161.41,-46.89 1147.07,-38.89"/>
<polygon fill="black" stroke="black" points="1148.6,-35.74 1138.11,-34.27 1145.39,-41.96 1148.6,-35.74"/>
</g>
<!-- r&#45;tabulizerjars&#45;&gt;conda&#45;forge&#45;pinning -->
<g id="edge41" class="edge">
<title>r&#45;tabulizerjars&#45;&gt;conda&#45;forge&#45;pinning</title>
<path fill="none" stroke="black" d="M1221.03,-359.63C1224.58,-349.42 1228.58,-336.17 1230.37,-324 1232.71,-308.17 1231.26,-303.98 1230.37,-288 1225.03,-191.45 1261.61,-149.94 1204.37,-72 1192.83,-56.28 1175.41,-45.04 1157.72,-37.09"/>
<polygon fill="black" stroke="black" points="1159.05,-33.85 1148.48,-33.22 1156.35,-40.31 1159.05,-33.85"/>
</g>
<!-- r&#45;tabulizerjars&#45;&gt;r&#45;tabulizer -->
<g id="edge42" class="edge">
<title>r&#45;tabulizerjars&#45;&gt;r&#45;tabulizer</title>
<path fill="none" stroke="black" d="M1200.58,-360.05C1193.64,-351.54 1185.12,-341.07 1177.47,-331.68"/>
<polygon fill="black" stroke="black" points="1180.07,-329.33 1171.05,-323.79 1174.65,-333.75 1180.07,-329.33"/>
</g>
<!-- r&#45;destinie&#45;&gt;conda&#45;forge&#45;pinning -->
<g id="edge43" class="edge">
<title>r&#45;destinie&#45;&gt;conda&#45;forge&#45;pinning</title>
<path fill="none" stroke="black" d="M444.64,-215.84C450.1,-181.93 467.41,-106.65 516.37,-72 553.45,-45.76 825.75,-30.14 982.33,-23.23"/>
<polygon fill="black" stroke="black" points="982.63,-26.72 992.47,-22.79 982.33,-19.73 982.63,-26.72"/>
</g>
<!-- r&#45;fselector&#45;&gt;conda&#45;forge&#45;pinning -->
<g id="edge49" class="edge">
<title>r&#45;fselector&#45;&gt;conda&#45;forge&#45;pinning</title>
<path fill="none" stroke="black" d="M959.57,-74.67C984.33,-64.29 1018.09,-50.14 1045.38,-38.7"/>
<polygon fill="black" stroke="black" points="1046.86,-41.87 1054.73,-34.78 1044.16,-35.42 1046.86,-41.87"/>
</g>
<!-- rpy2 -->
<g id="node22" class="node">
<title>rpy2</title>
<g id="a_node22"><a xlink:href="https://github.com/conda-forge/rpy2-feedstock/pull/55" xlink:title="rpy2">
<ellipse fill="#31688e" stroke="black" cx="1433.37" cy="-162" rx="30.59" ry="18"/>
<text text-anchor="middle" x="1433.37" y="-158.3" font-family="Times,serif" font-size="14.00" fill="white">rpy2</text>
</a>
</g>
</g>
<!-- rpy2&#45;&gt;conda&#45;forge&#45;pinning -->
<g id="edge44" class="edge">
<title>rpy2&#45;&gt;conda&#45;forge&#45;pinning</title>
<path fill="none" stroke="black" d="M1416.62,-146.43C1387.76,-121.35 1331.63,-72.63 1330.37,-72 1286.69,-50.04 1233.97,-37.1 1189.26,-29.52"/>
<polygon fill="black" stroke="black" points="1189.7,-26.05 1179.26,-27.89 1188.57,-32.95 1189.7,-26.05"/>
</g>
<!-- iterativewgcna -->
<g id="node23" class="node">
<title>iterativewgcna</title>
<g id="a_node23"><a xlink:href="https://github.com/conda-forge/iterativewgcna-feedstock" xlink:title="iterativewgcna">
<ellipse fill="#fde725" stroke="black" cx="1461.37" cy="-90" rx="79.5" ry="18"/>
<text text-anchor="middle" x="1461.37" y="-86.3" font-family="Times,serif" font-size="14.00">iterativewgcna</text>
</a>
</g>
</g>
<!-- rpy2&#45;&gt;iterativewgcna -->
<g id="edge45" class="edge">
<title>rpy2&#45;&gt;iterativewgcna</title>
<path fill="none" stroke="black" d="M1440.01,-144.41C1443.24,-136.34 1447.2,-126.43 1450.83,-117.35"/>
<polygon fill="black" stroke="black" points="1454.13,-118.54 1454.59,-107.96 1447.63,-115.94 1454.13,-118.54"/>
</g>
<!-- iterativewgcna&#45;&gt;conda&#45;forge&#45;pinning -->
<g id="edge46" class="edge">
<title>iterativewgcna&#45;&gt;conda&#45;forge&#45;pinning</title>
<path fill="none" stroke="black" d="M1402.5,-77.83C1339.37,-65.86 1238.88,-46.79 1169.48,-33.63"/>
<polygon fill="black" stroke="black" points="1169.96,-30.16 1159.48,-31.73 1168.65,-37.03 1169.96,-30.16"/>
</g>
<!-- r&#45;rvaidememoire -->
<g id="node24" class="node">
<title>r&#45;rvaidememoire</title>
<g id="a_node24"><a xlink:href="https://github.com/conda-forge/r-rvaidememoire-feedstock" xlink:title="r rvaidememoire">
<ellipse fill="#35b779" stroke="black" cx="1642.37" cy="-90" rx="84" ry="18"/>
<text text-anchor="middle" x="1642.37" y="-86.3" font-family="Times,serif" font-size="14.00">r rvaidememoire</text>
</a>
</g>
</g>
<!-- r&#45;rvaidememoire&#45;&gt;conda&#45;forge&#45;pinning -->
<g id="edge47" class="edge">
<title>r&#45;rvaidememoire&#45;&gt;conda&#45;forge&#45;pinning</title>
<path fill="none" stroke="black" d="M1581.94,-77.36C1571.12,-75.45 1559.93,-73.57 1549.37,-72 1426.21,-53.62 1283.57,-37.97 1190.85,-28.54"/>
<polygon fill="black" stroke="black" points="1190.94,-25.03 1180.64,-27.51 1190.23,-32 1190.94,-25.03"/>
</g>
<!-- r&#45;hiver -->
<g id="node25" class="node">
<title>r&#45;hiver</title>
<g id="a_node25"><a xlink:href="https://github.com/conda-forge/r-hiver-feedstock" xlink:title="r hiver">
<ellipse fill="#35b779" stroke="black" cx="1719.37" cy="-162" rx="45" ry="18"/>
<text text-anchor="middle" x="1719.37" y="-158.3" font-family="Times,serif" font-size="14.00">r hiver</text>
</a>
</g>
</g>
<!-- r&#45;hiver&#45;&gt;conda&#45;forge&#45;pinning -->
<g id="edge48" class="edge">
<title>r&#45;hiver&#45;&gt;conda&#45;forge&#45;pinning</title>
<path fill="none" stroke="black" d="M1729.7,-144.26C1740.47,-124.44 1753.45,-91.63 1735.37,-72 1700.3,-33.91 1380.42,-23.19 1205.47,-20.18"/>
<polygon fill="black" stroke="black" points="1205.51,-16.68 1195.45,-20.01 1205.39,-23.68 1205.51,-16.68"/>
</g>
<!-- r&#45;littler -->
<g id="node26" class="node">
<title>r&#45;littler</title>
<g id="a_node26"><a xlink:href="https://github.com/conda-forge/r-littler-feedstock/pull/2" xlink:title="r littler">
<ellipse fill="#31688e" stroke="black" cx="1792.37" cy="-234" rx="54.69" ry="18"/>
<text text-anchor="middle" x="1792.37" y="-230.3" font-family="Times,serif" font-size="14.00" fill="white">r littler</text>
</a>
</g>
</g>
<!-- r&#45;littler&#45;&gt;conda&#45;forge&#45;pinning -->
<g id="edge50" class="edge">
<title>r&#45;littler&#45;&gt;conda&#45;forge&#45;pinning</title>
<path fill="none" stroke="black" d="M1794.27,-215.79C1796.9,-182.15 1797.23,-107.83 1754.37,-72 1713.27,-37.63 1382.8,-25.23 1204.88,-21.01"/>
<polygon fill="black" stroke="black" points="1204.77,-17.51 1194.7,-20.78 1204.61,-24.51 1204.77,-17.51"/>
</g>
<!-- r&#45;rxode -->
<g id="node27" class="node">
<title>r&#45;rxode</title>
<g id="a_node27"><a xlink:href="https://github.com/conda-forge/r-rxode-feedstock/pull/3" xlink:title="r rxode">
<ellipse fill="#31688e" stroke="black" cx="1887.37" cy="-162" rx="45" ry="18"/>
<text text-anchor="middle" x="1887.37" y="-158.3" font-family="Times,serif" font-size="14.00" fill="white">r rxode</text>
</a>
</g>
</g>
<!-- r&#45;rxode&#45;&gt;conda&#45;forge&#45;pinning -->
<g id="edge51" class="edge">
<title>r&#45;rxode&#45;&gt;conda&#45;forge&#45;pinning</title>
<path fill="none" stroke="black" d="M1874.97,-144.69C1856.83,-121.34 1823.37,-80.28 1806.37,-72 1753.64,-46.31 1390.42,-29.69 1203.31,-22.73"/>
<polygon fill="black" stroke="black" points="1203.28,-19.23 1193.16,-22.36 1203.03,-26.22 1203.28,-19.23"/>
</g>
<!-- r&#45;nlmixr -->
<g id="node28" class="node">
<title>r&#45;nlmixr</title>
<g id="a_node28"><a xlink:href="https://github.com/conda-forge/r-nlmixr-feedstock" xlink:title="r nlmixr">
<ellipse fill="#fde725" stroke="black" cx="1908.37" cy="-90" rx="50.09" ry="18"/>
<text text-anchor="middle" x="1908.37" y="-86.3" font-family="Times,serif" font-size="14.00">r nlmixr</text>
</a>
</g>
</g>
<!-- r&#45;rxode&#45;&gt;r&#45;nlmixr -->
<g id="edge52" class="edge">
<title>r&#45;rxode&#45;&gt;r&#45;nlmixr</title>
<path fill="none" stroke="black" d="M1892.46,-144.05C1894.8,-136.26 1897.63,-126.82 1900.25,-118.08"/>
<polygon fill="black" stroke="black" points="1903.67,-118.86 1903.19,-108.28 1896.97,-116.85 1903.67,-118.86"/>
</g>
<!-- r&#45;nlmixr&#45;&gt;conda&#45;forge&#45;pinning -->
<g id="edge53" class="edge">
<title>r&#45;nlmixr&#45;&gt;conda&#45;forge&#45;pinning</title>
<path fill="none" stroke="black" d="M1871.07,-77.82C1862.38,-75.57 1853.11,-73.45 1844.37,-72 1619.96,-34.63 1353.59,-23.58 1205.71,-20.33"/>
<polygon fill="black" stroke="black" points="1205.34,-16.82 1195.27,-20.11 1205.19,-23.82 1205.34,-16.82"/>
</g>
<!-- r&#45;tiledb -->
<g id="node29" class="node">
<title>r&#45;tiledb</title>
<g id="a_node29"><a xlink:href="https://github.com/conda-forge/r-tiledb-feedstock/pull/5" xlink:title="r tiledb">
<ellipse fill="#31688e" stroke="black" cx="1966.37" cy="-306" rx="50.09" ry="18"/>
<text text-anchor="middle" x="1966.37" y="-302.3" font-family="Times,serif" font-size="14.00" fill="white">r tiledb</text>
</a>
</g>
</g>
<!-- r&#45;tiledb&#45;&gt;conda&#45;forge&#45;pinning -->
<g id="edge54" class="edge">
<title>r&#45;tiledb&#45;&gt;conda&#45;forge&#45;pinning</title>
<path fill="none" stroke="black" d="M1973.24,-288.13C1989.38,-245.47 2024.21,-132.38 1967.37,-72 1941.61,-44.63 1434.49,-27.94 1204.31,-21.75"/>
<polygon fill="black" stroke="black" points="1204.32,-18.25 1194.23,-21.48 1204.14,-25.24 1204.32,-18.25"/>
</g>
<!-- r&#45;googlecloudstorager -->
<g id="node30" class="node">
<title>r&#45;googlecloudstorager</title>
<g id="a_node30"><a xlink:href="https://github.com/conda-forge/r-googlecloudstorager-feedstock/pull/1" xlink:title="r googlecloudstorager">
<ellipse fill="#31688e" stroke="black" cx="2044.37" cy="-378" rx="113.18" ry="18"/>
<text text-anchor="middle" x="2044.37" y="-374.3" font-family="Times,serif" font-size="14.00" fill="white">r googlecloudstorager</text>
</a>
</g>
</g>
<!-- r&#45;googlecloudstorager&#45;&gt;conda&#45;forge&#45;pinning -->
<g id="edge55" class="edge">
<title>r&#45;googlecloudstorager&#45;&gt;conda&#45;forge&#45;pinning</title>
<path fill="none" stroke="black" d="M2044.37,-359.95C2044.37,-333.29 2044.37,-280.11 2044.37,-235 2044.37,-235 2044.37,-235 2044.37,-161 2044.37,-115.19 2031.42,-95.96 1992.37,-72 1926.93,-31.84 1432.99,-22.11 1205.93,-19.75"/>
<polygon fill="black" stroke="black" points="1205.69,-16.25 1195.65,-19.65 1205.62,-23.25 1205.69,-16.25"/>
</g>
<!-- r&#45;drtmle -->
<g id="node31" class="node">
<title>r&#45;drtmle</title>
<g id="a_node31"><a xlink:href="https://github.com/conda-forge/r-drtmle-feedstock/pull/1" xlink:title="r drtmle">
<ellipse fill="#31688e" stroke="black" cx="2122.37" cy="-90" rx="50.09" ry="18"/>
<text text-anchor="middle" x="2122.37" y="-86.3" font-family="Times,serif" font-size="14.00" fill="white">r drtmle</text>
</a>
</g>
</g>
<!-- r&#45;drtmle&#45;&gt;conda&#45;forge&#45;pinning -->
<g id="edge56" class="edge">
<title>r&#45;drtmle&#45;&gt;conda&#45;forge&#45;pinning</title>
<path fill="none" stroke="black" d="M2085.42,-77.81C2076.63,-75.53 2067.23,-73.4 2058.37,-72 1896.81,-46.39 1421.86,-29.07 1203.96,-22.25"/>
<polygon fill="black" stroke="black" points="1203.88,-18.74 1193.78,-21.93 1203.66,-25.74 1203.88,-18.74"/>
</g>
</g>
</svg>
