<?xml version="1.0" encoding="UTF-8" standalone="no"?>
<!DOCTYPE svg PUBLIC "-//W3C//DTD SVG 1.1//EN"
 "http://www.w3.org/Graphics/SVG/1.1/DTD/svg11.dtd">
<!-- Generated by graphviz version 2.42.3 (20191010.1750)
 -->
<!-- Title: %3 Pages: 1 -->
<svg width="333pt" height="188pt"
 viewBox="0.00 0.00 332.59 188.00" xmlns="http://www.w3.org/2000/svg" xmlns:xlink="http://www.w3.org/1999/xlink">
<g id="graph0" class="graph" transform="scale(1 1) rotate(0) translate(4 184)">
<title>%3</title>
<polygon fill="white" stroke="transparent" points="-4,4 -4,-184 328.59,-184 328.59,4 -4,4"/>
<!-- fwlite -->
<g id="node1" class="node">
<title>fwlite</title>
<g id="a_node1"><a xlink:href="https://github.com/conda-forge/fwlite-feedstock/pull/25" xlink:title="fwlite">
<ellipse fill="#31688e" stroke="black" cx="40.3" cy="-90" rx="40.09" ry="18"/>
<text text-anchor="middle" x="40.3" y="-86.3" font-family="Times,serif" font-size="14.00" fill="white">fwlite</text>
</a>
</g>
</g>
<!-- conda&#45;forge&#45;pinning -->
<g id="node5" class="node">
<title>conda&#45;forge&#45;pinning</title>
<ellipse fill="none" stroke="black" cx="179.3" cy="-18" rx="103.18" ry="18"/>
<text text-anchor="middle" x="179.3" y="-14.3" font-family="Times,serif" font-size="14.00">conda&#45;forge&#45;pinning</text>
</g>
<!-- fwlite&#45;&gt;conda&#45;forge&#45;pinning -->
<g id="edge1" class="edge">
<title>fwlite&#45;&gt;conda&#45;forge&#45;pinning</title>
<path fill="none" stroke="black" d="M66.12,-76C86.35,-65.81 114.9,-51.43 138.27,-39.66"/>
<polygon fill="black" stroke="black" points="139.91,-42.76 147.26,-35.13 136.76,-36.5 139.91,-42.76"/>
</g>
<!-- gwollum -->
<g id="node2" class="node">
<title>gwollum</title>
<g id="a_node2"><a xlink:href="https://github.com/conda-forge/gwollum-feedstock/pull/5" xlink:title="gwollum">
<ellipse fill="#31688e" stroke="black" cx="179.3" cy="-162" rx="44.69" ry="18"/>
<text text-anchor="middle" x="179.3" y="-158.3" font-family="Times,serif" font-size="14.00" fill="white">gwollum</text>
</a>
</g>
</g>
<!-- omicron -->
<g id="node3" class="node">
<title>omicron</title>
<g id="a_node3"><a xlink:href="https://github.com/conda-forge/omicron-feedstock" xlink:title="omicron">
<ellipse fill="#fde725" stroke="black" cx="143.3" cy="-90" rx="44.69" ry="18"/>
<text text-anchor="middle" x="143.3" y="-86.3" font-family="Times,serif" font-size="14.00">omicron</text>
</a>
</g>
</g>
<!-- gwollum&#45;&gt;omicron -->
<g id="edge2" class="edge">
<title>gwollum&#45;&gt;omicron</title>
<path fill="none" stroke="black" d="M170.58,-144.05C166.38,-135.89 161.25,-125.91 156.58,-116.82"/>
<polygon fill="black" stroke="black" points="159.62,-115.08 151.93,-107.79 153.39,-118.28 159.62,-115.08"/>
</g>
<!-- gwollum&#45;&gt;conda&#45;forge&#45;pinning -->
<g id="edge3" class="edge">
<title>gwollum&#45;&gt;conda&#45;forge&#45;pinning</title>
<path fill="none" stroke="black" d="M186.59,-144.18C190.63,-133.94 195.24,-120.46 197.3,-108 199.9,-92.21 199.9,-87.79 197.3,-72 195.86,-63.28 193.16,-54.06 190.29,-45.8"/>
<polygon fill="black" stroke="black" points="193.53,-44.46 186.78,-36.3 186.97,-46.89 193.53,-44.46"/>
</g>
<!-- omicron&#45;&gt;conda&#45;forge&#45;pinning -->
<g id="edge4" class="edge">
<title>omicron&#45;&gt;conda&#45;forge&#45;pinning</title>
<path fill="none" stroke="black" d="M152.01,-72.05C156.15,-64.01 161.19,-54.2 165.81,-45.23"/>
<polygon fill="black" stroke="black" points="168.95,-46.77 170.41,-36.28 162.73,-43.57 168.95,-46.77"/>
</g>
<!-- hammer -->
<g id="node4" class="node">
<title>hammer</title>
<g id="a_node4"><a xlink:href="https://github.com/conda-forge/hammer-feedstock/pull/7" xlink:title="hammer">
<ellipse fill="#31688e" stroke="black" cx="284.3" cy="-90" rx="40.09" ry="18"/>
<text text-anchor="middle" x="284.3" y="-86.3" font-family="Times,serif" font-size="14.00" fill="white">hammer</text>
</a>
</g>
</g>
<!-- hammer&#45;&gt;conda&#45;forge&#45;pinning -->
<g id="edge5" class="edge">
<title>hammer&#45;&gt;conda&#45;forge&#45;pinning</title>
<path fill="none" stroke="black" d="M262.79,-74.67C248.42,-65.08 229.21,-52.27 212.84,-41.36"/>
<polygon fill="black" stroke="black" points="214.35,-38.16 204.09,-35.53 210.47,-43.99 214.35,-38.16"/>
</g>
</g>
</svg>
