<?xml version="1.0" encoding="UTF-8" standalone="no"?>
<!DOCTYPE svg PUBLIC "-//W3C//DTD SVG 1.1//EN"
 "http://www.w3.org/Graphics/SVG/1.1/DTD/svg11.dtd">
<!-- Generated by graphviz version 2.42.3 (20191010.1750)
 -->
<!-- Title: %3 Pages: 1 -->
<svg width="902pt" height="188pt"
 viewBox="0.00 0.00 902.09 188.00" xmlns="http://www.w3.org/2000/svg" xmlns:xlink="http://www.w3.org/1999/xlink">
<g id="graph0" class="graph" transform="scale(1 1) rotate(0) translate(4 184)">
<title>%3</title>
<polygon fill="white" stroke="transparent" points="-4,4 -4,-184 898.09,-184 898.09,4 -4,4"/>
<!-- root_numpy -->
<g id="node1" class="node">
<title>root_numpy</title>
<g id="a_node1"><a xlink:href="https://github.com/conda-forge/root_numpy-feedstock" xlink:title="root_numpy">
<ellipse fill="#35b779" stroke="black" cx="59.79" cy="-90" rx="59.59" ry="18"/>
<text text-anchor="middle" x="59.79" y="-86.3" font-family="Times,serif" font-size="14.00">root_numpy</text>
</a>
</g>
</g>
<!-- conda&#45;forge&#45;pinning -->
<g id="node9" class="node">
<title>conda&#45;forge&#45;pinning</title>
<ellipse fill="none" stroke="black" cx="481.79" cy="-18" rx="103.18" ry="18"/>
<text text-anchor="middle" x="481.79" y="-14.3" font-family="Times,serif" font-size="14.00">conda&#45;forge&#45;pinning</text>
</g>
<!-- root_numpy&#45;&gt;conda&#45;forge&#45;pinning -->
<g id="edge1" class="edge">
<title>root_numpy&#45;&gt;conda&#45;forge&#45;pinning</title>
<path fill="none" stroke="black" d="M103.46,-77.6C111.84,-75.59 120.56,-73.63 128.79,-72 216.87,-54.58 318.31,-39.9 389.78,-30.44"/>
<polygon fill="black" stroke="black" points="390.65,-33.86 400.11,-29.08 389.73,-26.92 390.65,-33.86"/>
</g>
<!-- rapidsim -->
<g id="node2" class="node">
<title>rapidsim</title>
<g id="a_node2"><a xlink:href="https://github.com/conda-forge/rapidsim-feedstock" xlink:title="rapidsim">
<ellipse fill="#35b779" stroke="black" cx="187.79" cy="-90" rx="50.09" ry="18"/>
<text text-anchor="middle" x="187.79" y="-86.3" font-family="Times,serif" font-size="14.00">rapidsim</text>
</a>
</g>
</g>
<!-- rapidsim&#45;&gt;conda&#45;forge&#45;pinning -->
<g id="edge2" class="edge">
<title>rapidsim&#45;&gt;conda&#45;forge&#45;pinning</title>
<path fill="none" stroke="black" d="M225.16,-77.88C232.32,-75.85 239.77,-73.8 246.79,-72 300.58,-58.2 361.78,-44.46 408.24,-34.43"/>
<polygon fill="black" stroke="black" points="409.18,-37.81 418.22,-32.28 407.71,-30.96 409.18,-37.81"/>
</g>
<!-- fwlite -->
<g id="node3" class="node">
<title>fwlite</title>
<g id="a_node3"><a xlink:href="https://github.com/conda-forge/fwlite-feedstock" xlink:title="fwlite">
<ellipse fill="#35b779" stroke="black" cx="295.79" cy="-90" rx="40.09" ry="18"/>
<text text-anchor="middle" x="295.79" y="-86.3" font-family="Times,serif" font-size="14.00">fwlite</text>
</a>
</g>
</g>
<!-- fwlite&#45;&gt;conda&#45;forge&#45;pinning -->
<g id="edge3" class="edge">
<title>fwlite&#45;&gt;conda&#45;forge&#45;pinning</title>
<path fill="none" stroke="black" d="M325.68,-77.75C354,-67.1 397.1,-50.87 430.85,-38.17"/>
<polygon fill="black" stroke="black" points="432.42,-41.32 440.55,-34.52 429.95,-34.77 432.42,-41.32"/>
</g>
<!-- ostaphep -->
<g id="node4" class="node">
<title>ostaphep</title>
<g id="a_node4"><a xlink:href="https://github.com/conda-forge/ostaphep-feedstock" xlink:title="ostaphep">
<ellipse fill="#35b779" stroke="black" cx="403.79" cy="-90" rx="50.09" ry="18"/>
<text text-anchor="middle" x="403.79" y="-86.3" font-family="Times,serif" font-size="14.00">ostaphep</text>
</a>
</g>
</g>
<!-- ostaphep&#45;&gt;conda&#45;forge&#45;pinning -->
<g id="edge4" class="edge">
<title>ostaphep&#45;&gt;conda&#45;forge&#45;pinning</title>
<path fill="none" stroke="black" d="M421.49,-73.12C431.57,-64.07 444.39,-52.57 455.62,-42.49"/>
<polygon fill="black" stroke="black" points="457.97,-45.08 463.08,-35.8 453.3,-39.87 457.97,-45.08"/>
</g>
<!-- lhcb&#45;simpletools -->
<g id="node5" class="node">
<title>lhcb&#45;simpletools</title>
<g id="a_node5"><a xlink:href="https://github.com/conda-forge/lhcb-simpletools-feedstock" xlink:title="lhcb simpletools">
<ellipse fill="#35b779" stroke="black" cx="560.79" cy="-90" rx="89.08" ry="18"/>
<text text-anchor="middle" x="560.79" y="-86.3" font-family="Times,serif" font-size="14.00">lhcb simpletools</text>
</a>
</g>
</g>
<!-- lhcb&#45;simpletools&#45;&gt;conda&#45;forge&#45;pinning -->
<g id="edge5" class="edge">
<title>lhcb&#45;simpletools&#45;&gt;conda&#45;forge&#45;pinning</title>
<path fill="none" stroke="black" d="M541.67,-72.05C531.68,-63.2 519.28,-52.22 508.37,-42.55"/>
<polygon fill="black" stroke="black" points="510.55,-39.8 500.74,-35.79 505.91,-45.04 510.55,-39.8"/>
</g>
<!-- gwollum -->
<g id="node6" class="node">
<title>gwollum</title>
<g id="a_node6"><a xlink:href="https://github.com/conda-forge/gwollum-feedstock" xlink:title="gwollum">
<ellipse fill="#35b779" stroke="black" cx="748.79" cy="-162" rx="44.69" ry="18"/>
<text text-anchor="middle" x="748.79" y="-158.3" font-family="Times,serif" font-size="14.00">gwollum</text>
</a>
</g>
</g>
<!-- omicron -->
<g id="node7" class="node">
<title>omicron</title>
<g id="a_node7"><a xlink:href="https://github.com/conda-forge/omicron-feedstock" xlink:title="omicron">
<ellipse fill="#fde725" stroke="black" cx="712.79" cy="-90" rx="44.69" ry="18"/>
<text text-anchor="middle" x="712.79" y="-86.3" font-family="Times,serif" font-size="14.00">omicron</text>
</a>
</g>
</g>
<!-- gwollum&#45;&gt;omicron -->
<g id="edge6" class="edge">
<title>gwollum&#45;&gt;omicron</title>
<path fill="none" stroke="black" d="M740.08,-144.05C735.88,-135.89 730.75,-125.91 726.08,-116.82"/>
<polygon fill="black" stroke="black" points="729.12,-115.08 721.43,-107.79 722.89,-118.28 729.12,-115.08"/>
</g>
<!-- gwollum&#45;&gt;conda&#45;forge&#45;pinning -->
<g id="edge7" class="edge">
<title>gwollum&#45;&gt;conda&#45;forge&#45;pinning</title>
<path fill="none" stroke="black" d="M759.52,-144.25C770.52,-124.71 783.82,-92.49 766.79,-72 744.18,-44.79 660.45,-31.49 589.56,-25.02"/>
<polygon fill="black" stroke="black" points="589.46,-21.49 579.2,-24.11 588.85,-28.47 589.46,-21.49"/>
</g>
<!-- omicron&#45;&gt;conda&#45;forge&#45;pinning -->
<g id="edge8" class="edge">
<title>omicron&#45;&gt;conda&#45;forge&#45;pinning</title>
<path fill="none" stroke="black" d="M678.83,-78.23C672.19,-76.14 665.28,-73.99 658.79,-72 619.86,-60.04 576.01,-46.91 541.69,-36.71"/>
<polygon fill="black" stroke="black" points="542.41,-33.27 531.82,-33.78 540.41,-39.98 542.41,-33.27"/>
</g>
<!-- hammer -->
<g id="node8" class="node">
<title>hammer</title>
<g id="a_node8"><a xlink:href="https://github.com/conda-forge/hammer-feedstock" xlink:title="hammer">
<ellipse fill="#35b779" stroke="black" cx="853.79" cy="-90" rx="40.09" ry="18"/>
<text text-anchor="middle" x="853.79" y="-86.3" font-family="Times,serif" font-size="14.00">hammer</text>
</a>
</g>
</g>
<!-- hammer&#45;&gt;conda&#45;forge&#45;pinning -->
<g id="edge9" class="edge">
<title>hammer&#45;&gt;conda&#45;forge&#45;pinning</title>
<path fill="none" stroke="black" d="M822.88,-78.45C815.38,-76.12 807.35,-73.81 799.79,-72 723.97,-53.84 636.51,-39.75 572.53,-30.68"/>
<polygon fill="black" stroke="black" points="572.86,-27.19 562.47,-29.27 571.88,-34.12 572.86,-27.19"/>
</g>
</g>
</svg>
