<?xml version="1.0" encoding="UTF-8" standalone="no"?>
<!DOCTYPE svg PUBLIC "-//W3C//DTD SVG 1.1//EN"
 "http://www.w3.org/Graphics/SVG/1.1/DTD/svg11.dtd">
<!-- Generated by graphviz version 2.42.3 (20191010.1750)
 -->
<!-- Title: %3 Pages: 1 -->
<svg width="255pt" height="188pt"
 viewBox="0.00 0.00 254.64 188.00" xmlns="http://www.w3.org/2000/svg" xmlns:xlink="http://www.w3.org/1999/xlink">
<g id="graph0" class="graph" transform="scale(1 1) rotate(0) translate(4 184)">
<title>%3</title>
<polygon fill="white" stroke="transparent" points="-4,4 -4,-184 250.64,-184 250.64,4 -4,4"/>
<!-- fwlite -->
<g id="node1" class="node">
<title>fwlite</title>
<g id="a_node1"><a xlink:href="https://github.com/conda-forge/fwlite-feedstock/pull/25" xlink:title="fwlite">
<ellipse fill="#31688e" stroke="black" cx="40.3" cy="-90" rx="40.09" ry="18"/>
<text text-anchor="middle" x="40.3" y="-86.3" font-family="Times,serif" font-size="14.00" fill="white">fwlite</text>
</a>
</g>
</g>
<!-- conda&#45;forge&#45;pinning -->
<g id="node4" class="node">
<title>conda&#45;forge&#45;pinning</title>
<ellipse fill="none" stroke="black" cx="143.3" cy="-18" rx="103.18" ry="18"/>
<text text-anchor="middle" x="143.3" y="-14.3" font-family="Times,serif" font-size="14.00">conda&#45;forge&#45;pinning</text>
</g>
<!-- fwlite&#45;&gt;conda&#45;forge&#45;pinning -->
<g id="edge1" class="edge">
<title>fwlite&#45;&gt;conda&#45;forge&#45;pinning</title>
<path fill="none" stroke="black" d="M61.64,-74.5C75.66,-64.97 94.28,-52.31 110.2,-41.49"/>
<polygon fill="black" stroke="black" points="112.42,-44.21 118.73,-35.7 108.49,-38.42 112.42,-44.21"/>
</g>
<!-- gwollum -->
<g id="node2" class="node">
<title>gwollum</title>
<g id="a_node2"><a xlink:href="https://github.com/conda-forge/gwollum-feedstock/pull/5" xlink:title="gwollum">
<ellipse fill="#31688e" stroke="black" cx="179.3" cy="-162" rx="44.69" ry="18"/>
<text text-anchor="middle" x="179.3" y="-158.3" font-family="Times,serif" font-size="14.00" fill="white">gwollum</text>
</a>
</g>
</g>
<!-- omicron -->
<g id="node3" class="node">
<title>omicron</title>
<g id="a_node3"><a xlink:href="https://github.com/conda-forge/omicron-feedstock" xlink:title="omicron">
<ellipse fill="#fde725" stroke="black" cx="143.3" cy="-90" rx="44.69" ry="18"/>
<text text-anchor="middle" x="143.3" y="-86.3" font-family="Times,serif" font-size="14.00">omicron</text>
</a>
</g>
</g>
<!-- gwollum&#45;&gt;omicron -->
<g id="edge2" class="edge">
<title>gwollum&#45;&gt;omicron</title>
<path fill="none" stroke="black" d="M170.58,-144.05C166.38,-135.89 161.25,-125.91 156.58,-116.82"/>
<polygon fill="black" stroke="black" points="159.62,-115.08 151.93,-107.79 153.39,-118.28 159.62,-115.08"/>
</g>
<!-- gwollum&#45;&gt;conda&#45;forge&#45;pinning -->
<g id="edge3" class="edge">
<title>gwollum&#45;&gt;conda&#45;forge&#45;pinning</title>
<path fill="none" stroke="black" d="M188.32,-144.35C196.98,-126.02 207.36,-95.98 197.3,-72 192.58,-60.76 184.18,-50.7 175.4,-42.45"/>
<polygon fill="black" stroke="black" points="177.49,-39.63 167.66,-35.67 172.88,-44.89 177.49,-39.63"/>
</g>
<!-- omicron&#45;&gt;conda&#45;forge&#45;pinning -->
<g id="edge4" class="edge">
<title>omicron&#45;&gt;conda&#45;forge&#45;pinning</title>
<path fill="none" stroke="black" d="M143.3,-71.7C143.3,-63.98 143.3,-54.71 143.3,-46.11"/>
<polygon fill="black" stroke="black" points="146.8,-46.1 143.3,-36.1 139.8,-46.1 146.8,-46.1"/>
</g>
</g>
</svg>
