<?xml version="1.0" encoding="UTF-8" standalone="no"?>
<!DOCTYPE svg PUBLIC "-//W3C//DTD SVG 1.1//EN"
 "http://www.w3.org/Graphics/SVG/1.1/DTD/svg11.dtd">
<!-- Generated by graphviz version 2.42.3 (20191010.1750)
 -->
<!-- Title: %3 Pages: 1 -->
<svg width="215pt" height="116pt"
 viewBox="0.00 0.00 214.68 116.00" xmlns="http://www.w3.org/2000/svg" xmlns:xlink="http://www.w3.org/1999/xlink">
<g id="graph0" class="graph" transform="scale(1 1) rotate(0) translate(4 112)">
<title>%3</title>
<polygon fill="white" stroke="transparent" points="-4,4 -4,-112 210.68,-112 210.68,4 -4,4"/>
<!-- fenics -->
<g id="node1" class="node">
<title>fenics</title>
<g id="a_node1"><a xlink:href="https://github.com/conda-forge/fenics-feedstock" xlink:title="fenics">
<ellipse fill="#35b779" stroke="black" cx="57.34" cy="-90" rx="40.09" ry="18"/>
<text text-anchor="middle" x="57.34" y="-86.3" font-family="Times,serif" font-size="14.00">fenics</text>
</a>
</g>
</g>
<!-- conda&#45;forge&#45;pinning -->
<g id="node3" class="node">
<title>conda&#45;forge&#45;pinning</title>
<ellipse fill="none" stroke="black" cx="103.34" cy="-18" rx="103.18" ry="18"/>
<text text-anchor="middle" x="103.34" y="-14.3" font-family="Times,serif" font-size="14.00">conda&#45;forge&#45;pinning</text>
</g>
<!-- fenics&#45;&gt;conda&#45;forge&#45;pinning -->
<g id="edge1" class="edge">
<title>fenics&#45;&gt;conda&#45;forge&#45;pinning</title>
<path fill="none" stroke="black" d="M68.24,-72.41C73.72,-64.08 80.47,-53.8 86.59,-44.49"/>
<polygon fill="black" stroke="black" points="89.63,-46.24 92.2,-35.96 83.78,-42.39 89.63,-46.24"/>
</g>
<!-- neper -->
<g id="node2" class="node">
<title>neper</title>
<g id="a_node2"><a xlink:href="https://github.com/conda-forge/neper-feedstock/pull/1" xlink:title="neper">
<ellipse fill="#31688e" stroke="black" cx="150.34" cy="-90" rx="35.19" ry="18"/>
<text text-anchor="middle" x="150.34" y="-86.3" font-family="Times,serif" font-size="14.00" fill="white">neper</text>
</a>
</g>
</g>
<!-- neper&#45;&gt;conda&#45;forge&#45;pinning -->
<g id="edge2" class="edge">
<title>neper&#45;&gt;conda&#45;forge&#45;pinning</title>
<path fill="none" stroke="black" d="M139.44,-72.76C133.79,-64.35 126.77,-53.89 120.42,-44.44"/>
<polygon fill="black" stroke="black" points="123.32,-42.48 114.84,-36.12 117.51,-46.38 123.32,-42.48"/>
</g>
</g>
</svg>
