<?xml version="1.0" encoding="UTF-8" standalone="no"?>
<!DOCTYPE svg PUBLIC "-//W3C//DTD SVG 1.1//EN"
 "http://www.w3.org/Graphics/SVG/1.1/DTD/svg11.dtd">
<!-- Generated by graphviz version 2.42.3 (20191010.1750)
 -->
<!-- Title: %3 Pages: 1 -->
<svg width="252pt" height="260pt"
 viewBox="0.00 0.00 252.39 260.00" xmlns="http://www.w3.org/2000/svg" xmlns:xlink="http://www.w3.org/1999/xlink">
<g id="graph0" class="graph" transform="scale(1 1) rotate(0) translate(4 256)">
<title>%3</title>
<polygon fill="white" stroke="transparent" points="-4,4 -4,-256 248.39,-256 248.39,4 -4,4"/>
<!-- fenics -->
<g id="node1" class="node">
<title>fenics</title>
<g id="a_node1"><a xlink:href="https://github.com/conda-forge/fenics-feedstock" xlink:title="fenics">
<ellipse fill="#fde725" stroke="black" cx="40.3" cy="-90" rx="40.09" ry="18"/>
<text text-anchor="middle" x="40.3" y="-86.3" font-family="Times,serif" font-size="14.00">fenics</text>
</a>
</g>
</g>
<!-- conda&#45;forge&#45;pinning -->
<g id="node5" class="node">
<title>conda&#45;forge&#45;pinning</title>
<ellipse fill="none" stroke="black" cx="127.3" cy="-18" rx="103.18" ry="18"/>
<text text-anchor="middle" x="127.3" y="-14.3" font-family="Times,serif" font-size="14.00">conda&#45;forge&#45;pinning</text>
</g>
<!-- fenics&#45;&gt;conda&#45;forge&#45;pinning -->
<g id="edge1" class="edge">
<title>fenics&#45;&gt;conda&#45;forge&#45;pinning</title>
<path fill="none" stroke="black" d="M59.17,-73.81C70.57,-64.64 85.33,-52.77 98.19,-42.42"/>
<polygon fill="black" stroke="black" points="100.72,-44.87 106.32,-35.88 96.34,-39.42 100.72,-44.87"/>
</g>
<!-- mumps -->
<g id="node2" class="node">
<title>mumps</title>
<g id="a_node2"><a xlink:href="https://github.com/conda-forge/mumps-feedstock/pull/60" xlink:title="mumps">
<ellipse fill="#31688e" stroke="black" cx="114.3" cy="-234" rx="35.19" ry="18"/>
<text text-anchor="middle" x="114.3" y="-230.3" font-family="Times,serif" font-size="14.00" fill="white">mumps</text>
</a>
</g>
</g>
<!-- petsc -->
<g id="node3" class="node">
<title>petsc</title>
<g id="a_node3"><a xlink:href="https://github.com/conda-forge/petsc-feedstock" xlink:title="petsc">
<ellipse fill="#fde725" stroke="black" cx="83.3" cy="-162" rx="35.19" ry="18"/>
<text text-anchor="middle" x="83.3" y="-158.3" font-family="Times,serif" font-size="14.00">petsc</text>
</a>
</g>
</g>
<!-- mumps&#45;&gt;petsc -->
<g id="edge2" class="edge">
<title>mumps&#45;&gt;petsc</title>
<path fill="none" stroke="black" d="M106.79,-216.05C103.21,-207.97 98.85,-198.12 94.86,-189.11"/>
<polygon fill="black" stroke="black" points="97.98,-187.52 90.73,-179.79 91.58,-190.35 97.98,-187.52"/>
</g>
<!-- mumps&#45;&gt;conda&#45;forge&#45;pinning -->
<g id="edge3" class="edge">
<title>mumps&#45;&gt;conda&#45;forge&#45;pinning</title>
<path fill="none" stroke="black" d="M119.57,-216.01C122.49,-205.7 125.82,-192.23 127.3,-180 132.94,-133.33 131.17,-78.5 129.29,-46.37"/>
<polygon fill="black" stroke="black" points="132.76,-45.76 128.63,-36 125.77,-46.2 132.76,-45.76"/>
</g>
<!-- petsc&#45;&gt;fenics -->
<g id="edge4" class="edge">
<title>petsc&#45;&gt;fenics</title>
<path fill="none" stroke="black" d="M73.11,-144.41C67.91,-135.95 61.49,-125.49 55.7,-116.08"/>
<polygon fill="black" stroke="black" points="58.63,-114.16 50.41,-107.47 52.67,-117.82 58.63,-114.16"/>
</g>
<!-- petsc&#45;&gt;conda&#45;forge&#45;pinning -->
<g id="edge5" class="edge">
<title>petsc&#45;&gt;conda&#45;forge&#45;pinning</title>
<path fill="none" stroke="black" d="M88.52,-144.15C96.02,-119.94 109.93,-75.05 118.89,-46.13"/>
<polygon fill="black" stroke="black" points="122.33,-46.86 121.95,-36.27 115.64,-44.78 122.33,-46.86"/>
</g>
<!-- neper -->
<g id="node4" class="node">
<title>neper</title>
<g id="a_node4"><a xlink:href="https://github.com/conda-forge/neper-feedstock/pull/1" xlink:title="neper">
<ellipse fill="#31688e" stroke="black" cx="209.3" cy="-90" rx="35.19" ry="18"/>
<text text-anchor="middle" x="209.3" y="-86.3" font-family="Times,serif" font-size="14.00" fill="white">neper</text>
</a>
</g>
</g>
<!-- neper&#45;&gt;conda&#45;forge&#45;pinning -->
<g id="edge6" class="edge">
<title>neper&#45;&gt;conda&#45;forge&#45;pinning</title>
<path fill="none" stroke="black" d="M191.91,-74.15C181.11,-64.94 167,-52.89 154.72,-42.41"/>
<polygon fill="black" stroke="black" points="156.84,-39.62 146.96,-35.79 152.3,-44.94 156.84,-39.62"/>
</g>
</g>
</svg>
