<?xml version="1.0" encoding="UTF-8" standalone="no"?>
<!DOCTYPE svg PUBLIC "-//W3C//DTD SVG 1.1//EN"
 "http://www.w3.org/Graphics/SVG/1.1/DTD/svg11.dtd">
<!-- Generated by graphviz version 2.42.3 (20191010.1750)
 -->
<!-- Title: %3 Pages: 1 -->
<svg width="215pt" height="188pt"
 viewBox="0.00 0.00 214.68 188.00" xmlns="http://www.w3.org/2000/svg" xmlns:xlink="http://www.w3.org/1999/xlink">
<g id="graph0" class="graph" transform="scale(1 1) rotate(0) translate(4 184)">
<title>%3</title>
<polygon fill="white" stroke="transparent" points="-4,4 -4,-184 210.68,-184 210.68,4 -4,4"/>
<!-- mumps -->
<g id="node1" class="node">
<title>mumps</title>
<g id="a_node1"><a xlink:href="https://github.com/conda-forge/mumps-feedstock/pull/60" xlink:title="mumps">
<ellipse fill="#31688e" stroke="black" cx="71.34" cy="-162" rx="35.19" ry="18"/>
<text text-anchor="middle" x="71.34" y="-158.3" font-family="Times,serif" font-size="14.00" fill="white">mumps</text>
</a>
</g>
</g>
<!-- petsc -->
<g id="node2" class="node">
<title>petsc</title>
<ellipse fill="#fde725" stroke="black" cx="40.34" cy="-90" rx="35.19" ry="18"/>
<text text-anchor="middle" x="40.34" y="-86.3" font-family="Times,serif" font-size="14.00">petsc</text>
</g>
<!-- mumps&#45;&gt;petsc -->
<g id="edge1" class="edge">
<title>mumps&#45;&gt;petsc</title>
<path fill="none" stroke="black" d="M63.84,-144.05C60.26,-135.97 55.89,-126.12 51.9,-117.11"/>
<polygon fill="black" stroke="black" points="55.03,-115.52 47.78,-107.79 48.63,-118.35 55.03,-115.52"/>
</g>
<!-- conda&#45;forge&#45;pinning -->
<g id="node4" class="node">
<title>conda&#45;forge&#45;pinning</title>
<ellipse fill="none" stroke="black" cx="103.34" cy="-18" rx="103.18" ry="18"/>
<text text-anchor="middle" x="103.34" y="-14.3" font-family="Times,serif" font-size="14.00">conda&#45;forge&#45;pinning</text>
</g>
<!-- mumps&#45;&gt;conda&#45;forge&#45;pinning -->
<g id="edge2" class="edge">
<title>mumps&#45;&gt;conda&#45;forge&#45;pinning</title>
<path fill="none" stroke="black" d="M75.69,-143.85C78.28,-133.48 81.59,-120 84.34,-108 89.08,-87.34 94.07,-63.89 97.75,-46.25"/>
<polygon fill="black" stroke="black" points="101.25,-46.6 99.85,-36.1 94.39,-45.18 101.25,-46.6"/>
</g>
<!-- petsc&#45;&gt;conda&#45;forge&#45;pinning -->
<g id="edge3" class="edge">
<title>petsc&#45;&gt;conda&#45;forge&#45;pinning</title>
<path fill="none" stroke="black" d="M54.32,-73.46C62.22,-64.69 72.26,-53.53 81.2,-43.6"/>
<polygon fill="black" stroke="black" points="83.99,-45.74 88.08,-35.96 78.78,-41.05 83.99,-45.74"/>
</g>
<!-- neper -->
<g id="node3" class="node">
<title>neper</title>
<g id="a_node3"><a xlink:href="https://github.com/conda-forge/neper-feedstock/pull/1" xlink:title="neper">
<ellipse fill="#31688e" stroke="black" cx="166.34" cy="-90" rx="35.19" ry="18"/>
<text text-anchor="middle" x="166.34" y="-86.3" font-family="Times,serif" font-size="14.00" fill="white">neper</text>
</a>
</g>
</g>
<!-- neper&#45;&gt;conda&#45;forge&#45;pinning -->
<g id="edge4" class="edge">
<title>neper&#45;&gt;conda&#45;forge&#45;pinning</title>
<path fill="none" stroke="black" d="M152.36,-73.46C144.46,-64.69 134.42,-53.53 125.48,-43.6"/>
<polygon fill="black" stroke="black" points="127.9,-41.05 118.61,-35.96 122.69,-45.74 127.9,-41.05"/>
</g>
</g>
</svg>
