<?xml version="1.0" encoding="UTF-8" standalone="no"?>
<!DOCTYPE svg PUBLIC "-//W3C//DTD SVG 1.1//EN"
 "http://www.w3.org/Graphics/SVG/1.1/DTD/svg11.dtd">
<!-- Generated by graphviz version 2.42.3 (20191010.1750)
 -->
<!-- Title: %3 Pages: 1 -->
<svg width="220pt" height="188pt"
 viewBox="0.00 0.00 219.64 188.00" xmlns="http://www.w3.org/2000/svg" xmlns:xlink="http://www.w3.org/1999/xlink">
<g id="graph0" class="graph" transform="scale(1 1) rotate(0) translate(4 184)">
<title>%3</title>
<polygon fill="white" stroke="transparent" points="-4,4 -4,-184 215.64,-184 215.64,4 -4,4"/>
<!-- fenics -->
<g id="node1" class="node">
<title>fenics</title>
<g id="a_node1"><a xlink:href="https://github.com/conda-forge/fenics-feedstock" xlink:title="fenics">
<ellipse fill="#fde725" stroke="black" cx="40.3" cy="-90" rx="40.09" ry="18"/>
<text text-anchor="middle" x="40.3" y="-86.3" font-family="Times,serif" font-size="14.00">fenics</text>
</a>
</g>
</g>
<!-- conda&#45;forge&#45;pinning -->
<g id="node4" class="node">
<title>conda&#45;forge&#45;pinning</title>
<ellipse fill="none" stroke="black" cx="108.3" cy="-18" rx="103.18" ry="18"/>
<text text-anchor="middle" x="108.3" y="-14.3" font-family="Times,serif" font-size="14.00">conda&#45;forge&#45;pinning</text>
</g>
<!-- fenics&#45;&gt;conda&#45;forge&#45;pinning -->
<g id="edge1" class="edge">
<title>fenics&#45;&gt;conda&#45;forge&#45;pinning</title>
<path fill="none" stroke="black" d="M55.73,-73.12C64.34,-64.24 75.26,-53.01 84.91,-43.08"/>
<polygon fill="black" stroke="black" points="87.52,-45.41 91.98,-35.8 82.5,-40.53 87.52,-45.41"/>
</g>
<!-- petsc -->
<g id="node2" class="node">
<title>petsc</title>
<g id="a_node2"><a xlink:href="https://github.com/conda-forge/petsc-feedstock/pull/84" xlink:title="petsc">
<ellipse fill="#31688e" stroke="black" cx="74.3" cy="-162" rx="35.19" ry="18"/>
<text text-anchor="middle" x="74.3" y="-158.3" font-family="Times,serif" font-size="14.00" fill="white">petsc</text>
</a>
</g>
</g>
<!-- petsc&#45;&gt;fenics -->
<g id="edge2" class="edge">
<title>petsc&#45;&gt;fenics</title>
<path fill="none" stroke="black" d="M66.24,-144.41C62.27,-136.25 57.4,-126.22 52.96,-117.07"/>
<polygon fill="black" stroke="black" points="56.05,-115.42 48.53,-107.96 49.75,-118.48 56.05,-115.42"/>
</g>
<!-- petsc&#45;&gt;conda&#45;forge&#45;pinning -->
<g id="edge3" class="edge">
<title>petsc&#45;&gt;conda&#45;forge&#45;pinning</title>
<path fill="none" stroke="black" d="M79.45,-143.89C82.48,-133.54 86.3,-120.07 89.3,-108 94.4,-87.43 99.37,-63.97 102.95,-46.31"/>
<polygon fill="black" stroke="black" points="106.45,-46.63 104.98,-36.14 99.59,-45.26 106.45,-46.63"/>
</g>
<!-- neper -->
<g id="node3" class="node">
<title>neper</title>
<g id="a_node3"><a xlink:href="https://github.com/conda-forge/neper-feedstock/pull/1" xlink:title="neper">
<ellipse fill="#31688e" stroke="black" cx="171.3" cy="-90" rx="35.19" ry="18"/>
<text text-anchor="middle" x="171.3" y="-86.3" font-family="Times,serif" font-size="14.00" fill="white">neper</text>
</a>
</g>
</g>
<!-- neper&#45;&gt;conda&#45;forge&#45;pinning -->
<g id="edge4" class="edge">
<title>neper&#45;&gt;conda&#45;forge&#45;pinning</title>
<path fill="none" stroke="black" d="M157.31,-73.46C149.42,-64.69 139.37,-53.53 130.43,-43.6"/>
<polygon fill="black" stroke="black" points="132.85,-41.05 123.56,-35.96 127.65,-45.74 132.85,-41.05"/>
</g>
</g>
</svg>
