<?xml version="1.0" encoding="UTF-8" standalone="no"?>
<!DOCTYPE svg PUBLIC "-//W3C//DTD SVG 1.1//EN"
 "http://www.w3.org/Graphics/SVG/1.1/DTD/svg11.dtd">
<!-- Generated by graphviz version 2.42.3 (20191010.1750)
 -->
<!-- Title: %3 Pages: 1 -->
<svg width="1598pt" height="188pt"
 viewBox="0.00 0.00 1598.39 188.00" xmlns="http://www.w3.org/2000/svg" xmlns:xlink="http://www.w3.org/1999/xlink">
<g id="graph0" class="graph" transform="scale(1 1) rotate(0) translate(4 184)">
<title>%3</title>
<polygon fill="white" stroke="transparent" points="-4,4 -4,-184 1594.39,-184 1594.39,4 -4,4"/>
<!-- cvxopt -->
<g id="node1" class="node">
<title>cvxopt</title>
<ellipse fill="#31688e" stroke="black" cx="40.3" cy="-162" rx="40.09" ry="18"/>
<text text-anchor="middle" x="40.3" y="-158.3" font-family="Times,serif" font-size="14.00" fill="white">cvxopt</text>
</g>
<!-- fenics -->
<g id="node2" class="node">
<title>fenics</title>
<ellipse fill="#fde725" stroke="black" cx="132.3" cy="-18" rx="40.09" ry="18"/>
<text text-anchor="middle" x="132.3" y="-14.3" font-family="Times,serif" font-size="14.00">fenics</text>
</g>
<!-- julia -->
<g id="node3" class="node">
<title>julia</title>
<ellipse fill="#31688e" stroke="black" cx="221.3" cy="-162" rx="35.19" ry="18"/>
<text text-anchor="middle" x="221.3" y="-158.3" font-family="Times,serif" font-size="14.00" fill="white">julia</text>
</g>
<!-- octave -->
<g id="node4" class="node">
<title>octave</title>
<ellipse fill="#31688e" stroke="black" cx="314.3" cy="-162" rx="40.09" ry="18"/>
<text text-anchor="middle" x="314.3" y="-158.3" font-family="Times,serif" font-size="14.00" fill="white">octave</text>
</g>
<!-- scikit&#45;sparse -->
<g id="node5" class="node">
<title>scikit&#45;sparse</title>
<ellipse fill="#31688e" stroke="black" cx="446.3" cy="-162" rx="74.19" ry="18"/>
<text text-anchor="middle" x="446.3" y="-158.3" font-family="Times,serif" font-size="14.00" fill="white">scikit sparse</text>
</g>
<!-- scikit&#45;umfpack -->
<g id="node6" class="node">
<title>scikit&#45;umfpack</title>
<ellipse fill="#31688e" stroke="black" cx="617.3" cy="-162" rx="79.09" ry="18"/>
<text text-anchor="middle" x="617.3" y="-158.3" font-family="Times,serif" font-size="14.00" fill="white">scikit umfpack</text>
</g>
<!-- sundials -->
<g id="node7" class="node">
<title>sundials</title>
<ellipse fill="#31688e" stroke="black" cx="764.3" cy="-162" rx="50.09" ry="18"/>
<text text-anchor="middle" x="764.3" y="-158.3" font-family="Times,serif" font-size="14.00" fill="white">sundials</text>
</g>
<!-- petsc -->
<g id="node8" class="node">
<title>petsc</title>
<ellipse fill="#31688e" stroke="black" cx="133.3" cy="-162" rx="35.19" ry="18"/>
<text text-anchor="middle" x="133.3" y="-158.3" font-family="Times,serif" font-size="14.00" fill="white">petsc</text>
</g>
<!-- petsc&#45;&gt;fenics -->
<g id="edge1" class="edge">
<title>petsc&#45;&gt;fenics</title>
<path fill="none" stroke="black" d="M128.02,-144.01C125.1,-133.7 121.77,-120.23 120.3,-108 118.38,-92.12 118.52,-87.9 120.3,-72 121.25,-63.43 123.06,-54.22 124.98,-45.93"/>
<polygon fill="black" stroke="black" points="128.43,-46.57 127.43,-36.02 121.63,-44.89 128.43,-46.57"/>
</g>
<!-- slepc -->
<g id="node9" class="node">
<title>slepc</title>
<ellipse fill="#fde725" stroke="black" cx="164.3" cy="-90" rx="35.19" ry="18"/>
<text text-anchor="middle" x="164.3" y="-86.3" font-family="Times,serif" font-size="14.00">slepc</text>
</g>
<!-- petsc&#45;&gt;slepc -->
<g id="edge2" class="edge">
<title>petsc&#45;&gt;slepc</title>
<path fill="none" stroke="black" d="M140.8,-144.05C144.38,-135.97 148.74,-126.12 152.73,-117.11"/>
<polygon fill="black" stroke="black" points="156.01,-118.35 156.86,-107.79 149.61,-115.52 156.01,-118.35"/>
</g>
<!-- slepc&#45;&gt;fenics -->
<g id="edge3" class="edge">
<title>slepc&#45;&gt;fenics</title>
<path fill="none" stroke="black" d="M156.71,-72.41C152.98,-64.25 148.4,-54.22 144.21,-45.07"/>
<polygon fill="black" stroke="black" points="147.39,-43.6 140.05,-35.96 141.02,-46.51 147.39,-43.6"/>
</g>
<!-- polyfempy -->
<g id="node10" class="node">
<title>polyfempy</title>
<ellipse fill="#31688e" stroke="black" cx="887.3" cy="-162" rx="54.69" ry="18"/>
<text text-anchor="middle" x="887.3" y="-158.3" font-family="Times,serif" font-size="14.00" fill="white">polyfempy</text>
</g>
<!-- scilab -->
<g id="node11" class="node">
<title>scilab</title>
<ellipse fill="#31688e" stroke="black" cx="1000.3" cy="-162" rx="40.09" ry="18"/>
<text text-anchor="middle" x="1000.3" y="-158.3" font-family="Times,serif" font-size="14.00" fill="white">scilab</text>
</g>
<!-- photospline -->
<g id="node12" class="node">
<title>photospline</title>
<ellipse fill="#31688e" stroke="black" cx="1123.3" cy="-162" rx="64.19" ry="18"/>
<text text-anchor="middle" x="1123.3" y="-158.3" font-family="Times,serif" font-size="14.00" fill="white">photospline</text>
</g>
<!-- ceres&#45;solver -->
<g id="node13" class="node">
<title>ceres&#45;solver</title>
<ellipse fill="#31688e" stroke="black" cx="1275.3" cy="-162" rx="69.59" ry="18"/>
<text text-anchor="middle" x="1275.3" y="-158.3" font-family="Times,serif" font-size="14.00" fill="white">ceres solver</text>
</g>
<!-- esys&#45;escript -->
<g id="node14" class="node">
<title>esys&#45;escript</title>
<ellipse fill="#31688e" stroke="black" cx="1432.3" cy="-162" rx="69.59" ry="18"/>
<text text-anchor="middle" x="1432.3" y="-158.3" font-family="Times,serif" font-size="14.00" fill="white">esys escript</text>
</g>
<!-- toast -->
<g id="node15" class="node">
<title>toast</title>
<ellipse fill="#31688e" stroke="black" cx="1555.3" cy="-162" rx="35.19" ry="18"/>
<text text-anchor="middle" x="1555.3" y="-158.3" font-family="Times,serif" font-size="14.00" fill="white">toast</text>
</g>
</g>
</svg>
