<?xml version="1.0" encoding="UTF-8" standalone="no"?>
<!DOCTYPE svg PUBLIC "-//W3C//DTD SVG 1.1//EN"
 "http://www.w3.org/Graphics/SVG/1.1/DTD/svg11.dtd">
<!-- Generated by graphviz version 2.40.1 (20161225.0304)
 -->
<!-- Title: %3 Pages: 1 -->
<svg width="526pt" height="116pt"
 viewBox="0.00 0.00 525.84 116.00" xmlns="http://www.w3.org/2000/svg" xmlns:xlink="http://www.w3.org/1999/xlink">
<g id="graph0" class="graph" transform="scale(1 1) rotate(0) translate(4 112)">
<title>%3</title>
<polygon fill="#ffffff" stroke="transparent" points="-4,4 -4,-112 521.8403,-112 521.8403,4 -4,4"/>
<!-- fenics -->
<g id="node1" class="node">
<title>fenics</title>
<ellipse fill="#fde725" stroke="#000000" cx="40.2964" cy="-18" rx="40.0939" ry="18"/>
<text text-anchor="middle" x="40.2964" y="-14.3" font-family="Times,serif" font-size="14.00" fill="#000000">fenics</text>
</g>
<!-- julia -->
<g id="node2" class="node">
<title>julia</title>
<ellipse fill="#31688e" stroke="#000000" cx="128.2964" cy="-90" rx="35.194" ry="18"/>
<text text-anchor="middle" x="128.2964" y="-86.3" font-family="Times,serif" font-size="14.00" fill="#ffffff">julia</text>
</g>
<!-- octave -->
<g id="node3" class="node">
<title>octave</title>
<ellipse fill="#31688e" stroke="#000000" cx="221.2964" cy="-90" rx="40.0939" ry="18"/>
<text text-anchor="middle" x="221.2964" y="-86.3" font-family="Times,serif" font-size="14.00" fill="#ffffff">octave</text>
</g>
<!-- slepc -->
<g id="node4" class="node">
<title>slepc</title>
<ellipse fill="#31688e" stroke="#000000" cx="40.2964" cy="-90" rx="35.194" ry="18"/>
<text text-anchor="middle" x="40.2964" y="-86.3" font-family="Times,serif" font-size="14.00" fill="#ffffff">slepc</text>
</g>
<!-- slepc&#45;&gt;fenics -->
<g id="edge1" class="edge">
<title>slepc&#45;&gt;fenics</title>
<path fill="none" stroke="#000000" d="M40.2964,-71.8314C40.2964,-64.131 40.2964,-54.9743 40.2964,-46.4166"/>
<polygon fill="#000000" stroke="#000000" points="43.7965,-46.4132 40.2964,-36.4133 36.7965,-46.4133 43.7965,-46.4132"/>
</g>
<!-- scilab -->
<g id="node5" class="node">
<title>scilab</title>
<ellipse fill="#31688e" stroke="#000000" cx="320.2964" cy="-90" rx="40.0939" ry="18"/>
<text text-anchor="middle" x="320.2964" y="-86.3" font-family="Times,serif" font-size="14.00" fill="#ffffff">scilab</text>
</g>
<!-- esys&#45;escript -->
<g id="node6" class="node">
<title>esys&#45;escript</title>
<ellipse fill="#31688e" stroke="#000000" cx="448.2964" cy="-90" rx="69.5877" ry="18"/>
<text text-anchor="middle" x="448.2964" y="-86.3" font-family="Times,serif" font-size="14.00" fill="#ffffff">esys escript</text>
</g>
</g>
</svg>
