<?xml version="1.0" encoding="UTF-8" standalone="no"?>
<!DOCTYPE svg PUBLIC "-//W3C//DTD SVG 1.1//EN"
 "http://www.w3.org/Graphics/SVG/1.1/DTD/svg11.dtd">
<!-- Generated by graphviz version 2.40.1 (20161225.0304)
 -->
<!-- Title: %3 Pages: 1 -->
<svg width="1598pt" height="188pt"
 viewBox="0.00 0.00 1598.39 188.00" xmlns="http://www.w3.org/2000/svg" xmlns:xlink="http://www.w3.org/1999/xlink">
<g id="graph0" class="graph" transform="scale(1 1) rotate(0) translate(4 184)">
<title>%3</title>
<polygon fill="#ffffff" stroke="transparent" points="-4,4 -4,-184 1594.3933,-184 1594.3933,4 -4,4"/>
<!-- cvxopt -->
<g id="node1" class="node">
<title>cvxopt</title>
<ellipse fill="#31688e" stroke="#000000" cx="40.2964" cy="-162" rx="40.0939" ry="18"/>
<text text-anchor="middle" x="40.2964" y="-158.3" font-family="Times,serif" font-size="14.00" fill="#ffffff">cvxopt</text>
</g>
<!-- fenics -->
<g id="node2" class="node">
<title>fenics</title>
<ellipse fill="#fde725" stroke="#000000" cx="132.2964" cy="-18" rx="40.0939" ry="18"/>
<text text-anchor="middle" x="132.2964" y="-14.3" font-family="Times,serif" font-size="14.00" fill="#000000">fenics</text>
</g>
<!-- julia -->
<g id="node3" class="node">
<title>julia</title>
<ellipse fill="#31688e" stroke="#000000" cx="221.2964" cy="-162" rx="35.194" ry="18"/>
<text text-anchor="middle" x="221.2964" y="-158.3" font-family="Times,serif" font-size="14.00" fill="#ffffff">julia</text>
</g>
<!-- octave -->
<g id="node4" class="node">
<title>octave</title>
<ellipse fill="#31688e" stroke="#000000" cx="314.2964" cy="-162" rx="40.0939" ry="18"/>
<text text-anchor="middle" x="314.2964" y="-158.3" font-family="Times,serif" font-size="14.00" fill="#ffffff">octave</text>
</g>
<!-- scikit&#45;sparse -->
<g id="node5" class="node">
<title>scikit&#45;sparse</title>
<ellipse fill="#35b779" stroke="#000000" cx="446.2964" cy="-162" rx="74.187" ry="18"/>
<text text-anchor="middle" x="446.2964" y="-158.3" font-family="Times,serif" font-size="14.00" fill="#000000">scikit sparse</text>
</g>
<!-- scikit&#45;umfpack -->
<g id="node6" class="node">
<title>scikit&#45;umfpack</title>
<ellipse fill="#35b779" stroke="#000000" cx="617.2964" cy="-162" rx="79.0865" ry="18"/>
<text text-anchor="middle" x="617.2964" y="-158.3" font-family="Times,serif" font-size="14.00" fill="#000000">scikit umfpack</text>
</g>
<!-- sundials -->
<g id="node7" class="node">
<title>sundials</title>
<ellipse fill="#31688e" stroke="#000000" cx="764.2964" cy="-162" rx="50.0912" ry="18"/>
<text text-anchor="middle" x="764.2964" y="-158.3" font-family="Times,serif" font-size="14.00" fill="#ffffff">sundials</text>
</g>
<!-- petsc -->
<g id="node8" class="node">
<title>petsc</title>
<ellipse fill="#31688e" stroke="#000000" cx="133.2964" cy="-162" rx="35.194" ry="18"/>
<text text-anchor="middle" x="133.2964" y="-158.3" font-family="Times,serif" font-size="14.00" fill="#ffffff">petsc</text>
</g>
<!-- petsc&#45;&gt;fenics -->
<g id="edge1" class="edge">
<title>petsc&#45;&gt;fenics</title>
<path fill="none" stroke="#000000" d="M127.8874,-144.1926C125.001,-133.7568 121.751,-120.2568 120.2964,-108 118.4109,-92.1115 118.5506,-87.9045 120.2964,-72 121.2248,-63.5425 122.9478,-54.4715 124.8042,-46.2246"/>
<polygon fill="#000000" stroke="#000000" points="128.2491,-46.8678 127.1773,-36.3273 121.4421,-45.2356 128.2491,-46.8678"/>
</g>
<!-- slepc -->
<g id="node9" class="node">
<title>slepc</title>
<ellipse fill="#fde725" stroke="#000000" cx="164.2964" cy="-90" rx="35.194" ry="18"/>
<text text-anchor="middle" x="164.2964" y="-86.3" font-family="Times,serif" font-size="14.00" fill="#000000">slepc</text>
</g>
<!-- petsc&#45;&gt;slepc -->
<g id="edge2" class="edge">
<title>petsc&#45;&gt;slepc</title>
<path fill="none" stroke="#000000" d="M140.9593,-144.2022C144.4881,-136.0064 148.7523,-126.1024 152.6652,-117.0145"/>
<polygon fill="#000000" stroke="#000000" points="155.9817,-118.162 156.7216,-107.593 149.5523,-115.3938 155.9817,-118.162"/>
</g>
<!-- slepc&#45;&gt;fenics -->
<g id="edge3" class="edge">
<title>slepc&#45;&gt;fenics</title>
<path fill="none" stroke="#000000" d="M156.3863,-72.2022C152.7709,-64.0675 148.4076,-54.2501 144.3934,-45.2181"/>
<polygon fill="#000000" stroke="#000000" points="147.4862,-43.5592 140.2264,-35.8425 141.0895,-46.4022 147.4862,-43.5592"/>
</g>
<!-- polyfempy -->
<g id="node10" class="node">
<title>polyfempy</title>
<ellipse fill="#35b779" stroke="#000000" cx="887.2964" cy="-162" rx="54.6905" ry="18"/>
<text text-anchor="middle" x="887.2964" y="-158.3" font-family="Times,serif" font-size="14.00" fill="#000000">polyfempy</text>
</g>
<!-- scilab -->
<g id="node11" class="node">
<title>scilab</title>
<ellipse fill="#35b779" stroke="#000000" cx="1000.2964" cy="-162" rx="40.0939" ry="18"/>
<text text-anchor="middle" x="1000.2964" y="-158.3" font-family="Times,serif" font-size="14.00" fill="#000000">scilab</text>
</g>
<!-- photospline -->
<g id="node12" class="node">
<title>photospline</title>
<ellipse fill="#35b779" stroke="#000000" cx="1123.2964" cy="-162" rx="64.189" ry="18"/>
<text text-anchor="middle" x="1123.2964" y="-158.3" font-family="Times,serif" font-size="14.00" fill="#000000">photospline</text>
</g>
<!-- ceres&#45;solver -->
<g id="node13" class="node">
<title>ceres&#45;solver</title>
<ellipse fill="#31688e" stroke="#000000" cx="1275.2964" cy="-162" rx="69.5877" ry="18"/>
<text text-anchor="middle" x="1275.2964" y="-158.3" font-family="Times,serif" font-size="14.00" fill="#ffffff">ceres solver</text>
</g>
<!-- esys&#45;escript -->
<g id="node14" class="node">
<title>esys&#45;escript</title>
<ellipse fill="#35b779" stroke="#000000" cx="1432.2964" cy="-162" rx="69.5877" ry="18"/>
<text text-anchor="middle" x="1432.2964" y="-158.3" font-family="Times,serif" font-size="14.00" fill="#000000">esys escript</text>
</g>
<!-- toast -->
<g id="node15" class="node">
<title>toast</title>
<ellipse fill="#31688e" stroke="#000000" cx="1555.2964" cy="-162" rx="35.194" ry="18"/>
<text text-anchor="middle" x="1555.2964" y="-158.3" font-family="Times,serif" font-size="14.00" fill="#ffffff">toast</text>
</g>
</g>
</svg>
