<?xml version="1.0" encoding="UTF-8" standalone="no"?>
<!DOCTYPE svg PUBLIC "-//W3C//DTD SVG 1.1//EN"
 "http://www.w3.org/Graphics/SVG/1.1/DTD/svg11.dtd">
<!-- Generated by graphviz version 2.42.3 (20191010.1750)
 -->
<!-- Title: %3 Pages: 1 -->
<svg width="481pt" height="116pt"
 viewBox="0.00 0.00 480.64 116.00" xmlns="http://www.w3.org/2000/svg" xmlns:xlink="http://www.w3.org/1999/xlink">
<g id="graph0" class="graph" transform="scale(1 1) rotate(0) translate(4 112)">
<title>%3</title>
<polygon fill="white" stroke="transparent" points="-4,4 -4,-112 476.64,-112 476.64,4 -4,4"/>
<!-- tiledb&#45;py -->
<g id="node1" class="node">
<title>tiledb&#45;py</title>
<g id="a_node1"><a xlink:href="https://github.com/conda-forge/tiledb-py-feedstock/pull/38" xlink:title="tiledb py">
<ellipse fill="#31688e" stroke="black" cx="54.6" cy="-90" rx="54.69" ry="18"/>
<text text-anchor="middle" x="54.6" y="-86.3" font-family="Times,serif" font-size="14.00" fill="white">tiledb py</text>
</a>
</g>
</g>
<!-- conda&#45;forge&#45;pinning -->
<g id="node5" class="node">
<title>conda&#45;forge&#45;pinning</title>
<ellipse fill="none" stroke="black" cx="218.6" cy="-18" rx="103.18" ry="18"/>
<text text-anchor="middle" x="218.6" y="-14.3" font-family="Times,serif" font-size="14.00">conda&#45;forge&#45;pinning</text>
</g>
<!-- tiledb&#45;py&#45;&gt;conda&#45;forge&#45;pinning -->
<g id="edge1" class="edge">
<title>tiledb&#45;py&#45;&gt;conda&#45;forge&#45;pinning</title>
<path fill="none" stroke="black" d="M86.61,-75.34C110.95,-64.94 144.81,-50.49 172.14,-38.83"/>
<polygon fill="black" stroke="black" points="173.68,-41.98 181.51,-34.83 170.93,-35.54 173.68,-41.98"/>
</g>
<!-- pdal -->
<g id="node2" class="node">
<title>pdal</title>
<g id="a_node2"><a xlink:href="https://github.com/conda-forge/pdal-feedstock/pull/105" xlink:title="pdal">
<ellipse fill="#31688e" stroke="black" cx="157.6" cy="-90" rx="30.59" ry="18"/>
<text text-anchor="middle" x="157.6" y="-86.3" font-family="Times,serif" font-size="14.00" fill="white">pdal</text>
</a>
</g>
</g>
<!-- pdal&#45;&gt;conda&#45;forge&#45;pinning -->
<g id="edge2" class="edge">
<title>pdal&#45;&gt;conda&#45;forge&#45;pinning</title>
<path fill="none" stroke="black" d="M171.13,-73.46C178.78,-64.69 188.51,-53.53 197.16,-43.6"/>
<polygon fill="black" stroke="black" points="199.88,-45.8 203.81,-35.96 194.61,-41.2 199.88,-45.8"/>
</g>
<!-- libtiledb&#45;sql -->
<g id="node3" class="node">
<title>libtiledb&#45;sql</title>
<g id="a_node3"><a xlink:href="https://github.com/conda-forge/libtiledb-sql-feedstock/pull/15" xlink:title="libtiledb sql">
<ellipse fill="#31688e" stroke="black" cx="280.6" cy="-90" rx="74.19" ry="18"/>
<text text-anchor="middle" x="280.6" y="-86.3" font-family="Times,serif" font-size="14.00" fill="white">libtiledb sql</text>
</a>
</g>
</g>
<!-- libtiledb&#45;sql&#45;&gt;conda&#45;forge&#45;pinning -->
<g id="edge3" class="edge">
<title>libtiledb&#45;sql&#45;&gt;conda&#45;forge&#45;pinning</title>
<path fill="none" stroke="black" d="M265.59,-72.05C258.08,-63.58 248.86,-53.17 240.57,-43.82"/>
<polygon fill="black" stroke="black" points="243.15,-41.44 233.9,-36.28 237.91,-46.08 243.15,-41.44"/>
</g>
<!-- r&#45;tiledb -->
<g id="node4" class="node">
<title>r&#45;tiledb</title>
<g id="a_node4"><a xlink:href="https://github.com/conda-forge/r-tiledb-feedstock/pull/3" xlink:title="r tiledb">
<ellipse fill="#31688e" stroke="black" cx="422.6" cy="-90" rx="50.09" ry="18"/>
<text text-anchor="middle" x="422.6" y="-86.3" font-family="Times,serif" font-size="14.00" fill="white">r tiledb</text>
</a>
</g>
</g>
<!-- r&#45;tiledb&#45;&gt;conda&#45;forge&#45;pinning -->
<g id="edge4" class="edge">
<title>r&#45;tiledb&#45;&gt;conda&#45;forge&#45;pinning</title>
<path fill="none" stroke="black" d="M387.53,-76.97C355.94,-66.13 309.04,-50.03 272.66,-37.55"/>
<polygon fill="black" stroke="black" points="273.77,-34.23 263.18,-34.3 271.5,-40.85 273.77,-34.23"/>
</g>
</g>
</svg>
