<?xml version="1.0" encoding="UTF-8" standalone="no"?>
<!DOCTYPE svg PUBLIC "-//W3C//DTD SVG 1.1//EN"
 "http://www.w3.org/Graphics/SVG/1.1/DTD/svg11.dtd">
<!-- Generated by graphviz version 2.42.3 (20191010.1750)
 -->
<!-- Title: %3 Pages: 1 -->
<svg width="247pt" height="116pt"
 viewBox="0.00 0.00 247.43 116.00" xmlns="http://www.w3.org/2000/svg" xmlns:xlink="http://www.w3.org/1999/xlink">
<g id="graph0" class="graph" transform="scale(1 1) rotate(0) translate(4 112)">
<title>%3</title>
<polygon fill="white" stroke="transparent" points="-4,4 -4,-112 243.43,-112 243.43,4 -4,4"/>
<!-- pdal -->
<g id="node1" class="node">
<title>pdal</title>
<g id="a_node1"><a xlink:href="https://github.com/conda-forge/pdal-feedstock/pull/105" xlink:title="pdal">
<ellipse fill="#31688e" stroke="black" cx="42.34" cy="-90" rx="30.59" ry="18"/>
<text text-anchor="middle" x="42.34" y="-86.3" font-family="Times,serif" font-size="14.00" fill="white">pdal</text>
</a>
</g>
</g>
<!-- conda&#45;forge&#45;pinning -->
<g id="node3" class="node">
<title>conda&#45;forge&#45;pinning</title>
<ellipse fill="none" stroke="black" cx="103.34" cy="-18" rx="103.18" ry="18"/>
<text text-anchor="middle" x="103.34" y="-14.3" font-family="Times,serif" font-size="14.00">conda&#45;forge&#45;pinning</text>
</g>
<!-- pdal&#45;&gt;conda&#45;forge&#45;pinning -->
<g id="edge1" class="edge">
<title>pdal&#45;&gt;conda&#45;forge&#45;pinning</title>
<path fill="none" stroke="black" d="M55.88,-73.46C63.52,-64.69 73.25,-53.53 81.91,-43.6"/>
<polygon fill="black" stroke="black" points="84.63,-45.8 88.56,-35.96 79.35,-41.2 84.63,-45.8"/>
</g>
<!-- libtiledb&#45;sql -->
<g id="node2" class="node">
<title>libtiledb&#45;sql</title>
<g id="a_node2"><a xlink:href="https://github.com/conda-forge/libtiledb-sql-feedstock/pull/15" xlink:title="libtiledb sql">
<ellipse fill="#31688e" stroke="black" cx="165.34" cy="-90" rx="74.19" ry="18"/>
<text text-anchor="middle" x="165.34" y="-86.3" font-family="Times,serif" font-size="14.00" fill="white">libtiledb sql</text>
</a>
</g>
</g>
<!-- libtiledb&#45;sql&#45;&gt;conda&#45;forge&#45;pinning -->
<g id="edge2" class="edge">
<title>libtiledb&#45;sql&#45;&gt;conda&#45;forge&#45;pinning</title>
<path fill="none" stroke="black" d="M150.33,-72.05C142.83,-63.58 133.6,-53.17 125.32,-43.82"/>
<polygon fill="black" stroke="black" points="127.89,-41.44 118.64,-36.28 122.65,-46.08 127.89,-41.44"/>
</g>
</g>
</svg>
