<?xml version="1.0" encoding="UTF-8" standalone="no"?>
<!DOCTYPE svg PUBLIC "-//W3C//DTD SVG 1.1//EN"
 "http://www.w3.org/Graphics/SVG/1.1/DTD/svg11.dtd">
<!-- Generated by graphviz version 2.42.3 (20191010.1750)
 -->
<!-- Title: %3 Pages: 1 -->
<svg width="249pt" height="188pt"
 viewBox="0.00 0.00 248.94 188.00" xmlns="http://www.w3.org/2000/svg" xmlns:xlink="http://www.w3.org/1999/xlink">
<g id="graph0" class="graph" transform="scale(1 1) rotate(0) translate(4 184)">
<title>%3</title>
<polygon fill="white" stroke="transparent" points="-4,4 -4,-184 244.94,-184 244.94,4 -4,4"/>
<!-- gdal -->
<g id="node1" class="node">
<title>gdal</title>
<g id="a_node1"><a xlink:href="https://github.com/conda-forge/gdal-feedstock/pull/395" xlink:title="gdal">
<ellipse fill="#31688e" stroke="black" cx="73.34" cy="-162" rx="30.59" ry="18"/>
<text text-anchor="middle" x="73.34" y="-158.3" font-family="Times,serif" font-size="14.00" fill="white">gdal</text>
</a>
</g>
</g>
<!-- pdal -->
<g id="node3" class="node">
<title>pdal</title>
<g id="a_node3"><a xlink:href="https://github.com/conda-forge/pdal-feedstock" xlink:title="pdal">
<ellipse fill="#fde725" stroke="black" cx="44.34" cy="-90" rx="30.59" ry="18"/>
<text text-anchor="middle" x="44.34" y="-86.3" font-family="Times,serif" font-size="14.00">pdal</text>
</a>
</g>
</g>
<!-- gdal&#45;&gt;pdal -->
<g id="edge1" class="edge">
<title>gdal&#45;&gt;pdal</title>
<path fill="none" stroke="black" d="M66.47,-144.41C63.12,-136.34 59.02,-126.43 55.26,-117.35"/>
<polygon fill="black" stroke="black" points="58.43,-115.86 51.37,-107.96 51.96,-118.53 58.43,-115.86"/>
</g>
<!-- conda&#45;forge&#45;pinning -->
<g id="node4" class="node">
<title>conda&#45;forge&#45;pinning</title>
<ellipse fill="none" stroke="black" cx="103.34" cy="-18" rx="103.18" ry="18"/>
<text text-anchor="middle" x="103.34" y="-14.3" font-family="Times,serif" font-size="14.00">conda&#45;forge&#45;pinning</text>
</g>
<!-- gdal&#45;&gt;conda&#45;forge&#45;pinning -->
<g id="edge2" class="edge">
<title>gdal&#45;&gt;conda&#45;forge&#45;pinning</title>
<path fill="none" stroke="black" d="M76.96,-143.87C82.09,-119.56 91.55,-74.82 97.63,-46.01"/>
<polygon fill="black" stroke="black" points="101.07,-46.7 99.71,-36.19 94.22,-45.25 101.07,-46.7"/>
</g>
<!-- tiledb&#45;py -->
<g id="node2" class="node">
<title>tiledb&#45;py</title>
<g id="a_node2"><a xlink:href="https://github.com/conda-forge/tiledb-py-feedstock/pull/40" xlink:title="tiledb py">
<ellipse fill="#31688e" stroke="black" cx="186.34" cy="-90" rx="54.69" ry="18"/>
<text text-anchor="middle" x="186.34" y="-86.3" font-family="Times,serif" font-size="14.00" fill="white">tiledb py</text>
</a>
</g>
</g>
<!-- tiledb&#45;py&#45;&gt;conda&#45;forge&#45;pinning -->
<g id="edge3" class="edge">
<title>tiledb&#45;py&#45;&gt;conda&#45;forge&#45;pinning</title>
<path fill="none" stroke="black" d="M167.09,-72.76C156.43,-63.77 142.99,-52.44 131.2,-42.49"/>
<polygon fill="black" stroke="black" points="133.25,-39.65 123.35,-35.88 128.74,-45 133.25,-39.65"/>
</g>
<!-- pdal&#45;&gt;conda&#45;forge&#45;pinning -->
<g id="edge4" class="edge">
<title>pdal&#45;&gt;conda&#45;forge&#45;pinning</title>
<path fill="none" stroke="black" d="M57.43,-73.46C64.76,-64.78 74.05,-53.75 82.36,-43.89"/>
<polygon fill="black" stroke="black" points="85.28,-45.86 89.04,-35.96 79.92,-41.35 85.28,-45.86"/>
</g>
</g>
</svg>
