<?xml version="1.0" encoding="UTF-8" standalone="no"?>
<!DOCTYPE svg PUBLIC "-//W3C//DTD SVG 1.1//EN"
 "http://www.w3.org/Graphics/SVG/1.1/DTD/svg11.dtd">
<!-- Generated by graphviz version 2.42.3 (20191010.1750)
 -->
<!-- Title: %3 Pages: 1 -->
<svg width="520pt" height="188pt"
 viewBox="0.00 0.00 519.59 188.00" xmlns="http://www.w3.org/2000/svg" xmlns:xlink="http://www.w3.org/1999/xlink">
<g id="graph0" class="graph" transform="scale(1 1) rotate(0) translate(4 184)">
<title>%3</title>
<polygon fill="white" stroke="transparent" points="-4,4 -4,-184 515.59,-184 515.59,4 -4,4"/>
<!-- gdal -->
<g id="node1" class="node">
<title>gdal</title>
<g id="a_node1"><a xlink:href="https://github.com/conda-forge/gdal-feedstock/pull/378" xlink:title="gdal">
<ellipse fill="#31688e" stroke="black" cx="59.55" cy="-162" rx="30.59" ry="18"/>
<text text-anchor="middle" x="59.55" y="-158.3" font-family="Times,serif" font-size="14.00" fill="white">gdal</text>
</a>
</g>
</g>
<!-- pdal -->
<g id="node3" class="node">
<title>pdal</title>
<g id="a_node3"><a xlink:href="https://github.com/conda-forge/pdal-feedstock" xlink:title="pdal">
<ellipse fill="#fde725" stroke="black" cx="30.55" cy="-90" rx="30.59" ry="18"/>
<text text-anchor="middle" x="30.55" y="-86.3" font-family="Times,serif" font-size="14.00">pdal</text>
</a>
</g>
</g>
<!-- gdal&#45;&gt;pdal -->
<g id="edge1" class="edge">
<title>gdal&#45;&gt;pdal</title>
<path fill="none" stroke="black" d="M52.67,-144.41C49.33,-136.34 45.23,-126.43 41.47,-117.35"/>
<polygon fill="black" stroke="black" points="44.63,-115.86 37.57,-107.96 38.17,-118.53 44.63,-115.86"/>
</g>
<!-- conda&#45;forge&#45;pinning -->
<g id="node6" class="node">
<title>conda&#45;forge&#45;pinning</title>
<ellipse fill="none" stroke="black" cx="172.55" cy="-18" rx="103.18" ry="18"/>
<text text-anchor="middle" x="172.55" y="-14.3" font-family="Times,serif" font-size="14.00">conda&#45;forge&#45;pinning</text>
</g>
<!-- gdal&#45;&gt;conda&#45;forge&#45;pinning -->
<g id="edge2" class="edge">
<title>gdal&#45;&gt;conda&#45;forge&#45;pinning</title>
<path fill="none" stroke="black" d="M66.39,-144.44C74.64,-125.65 89.77,-94.7 108.55,-72 117.71,-60.93 129.43,-50.45 140.33,-41.78"/>
<polygon fill="black" stroke="black" points="142.67,-44.39 148.45,-35.52 138.4,-38.85 142.67,-44.39"/>
</g>
<!-- tiledb&#45;py -->
<g id="node2" class="node">
<title>tiledb&#45;py</title>
<g id="a_node2"><a xlink:href="https://github.com/conda-forge/tiledb-py-feedstock" xlink:title="tiledb py">
<ellipse fill="#35b779" stroke="black" cx="172.55" cy="-90" rx="54.69" ry="18"/>
<text text-anchor="middle" x="172.55" y="-86.3" font-family="Times,serif" font-size="14.00">tiledb py</text>
</a>
</g>
</g>
<!-- tiledb&#45;py&#45;&gt;conda&#45;forge&#45;pinning -->
<g id="edge3" class="edge">
<title>tiledb&#45;py&#45;&gt;conda&#45;forge&#45;pinning</title>
<path fill="none" stroke="black" d="M172.55,-71.7C172.55,-63.98 172.55,-54.71 172.55,-46.11"/>
<polygon fill="black" stroke="black" points="176.05,-46.1 172.55,-36.1 169.05,-46.1 176.05,-46.1"/>
</g>
<!-- pdal&#45;&gt;conda&#45;forge&#45;pinning -->
<g id="edge4" class="edge">
<title>pdal&#45;&gt;conda&#45;forge&#45;pinning</title>
<path fill="none" stroke="black" d="M53.36,-77.75C74.17,-67.5 105.43,-52.09 130.72,-39.62"/>
<polygon fill="black" stroke="black" points="132.31,-42.74 139.73,-35.18 129.22,-36.46 132.31,-42.74"/>
</g>
<!-- libtiledb&#45;sql -->
<g id="node4" class="node">
<title>libtiledb&#45;sql</title>
<g id="a_node4"><a xlink:href="https://github.com/conda-forge/libtiledb-sql-feedstock/pull/15" xlink:title="libtiledb sql">
<ellipse fill="#31688e" stroke="black" cx="319.55" cy="-90" rx="74.19" ry="18"/>
<text text-anchor="middle" x="319.55" y="-86.3" font-family="Times,serif" font-size="14.00" fill="white">libtiledb sql</text>
</a>
</g>
</g>
<!-- libtiledb&#45;sql&#45;&gt;conda&#45;forge&#45;pinning -->
<g id="edge5" class="edge">
<title>libtiledb&#45;sql&#45;&gt;conda&#45;forge&#45;pinning</title>
<path fill="none" stroke="black" d="M287.29,-73.64C266.19,-63.59 238.39,-50.36 215.44,-39.43"/>
<polygon fill="black" stroke="black" points="216.8,-36.19 206.26,-35.06 213.79,-42.51 216.8,-36.19"/>
</g>
<!-- r&#45;tiledb -->
<g id="node5" class="node">
<title>r&#45;tiledb</title>
<g id="a_node5"><a xlink:href="https://github.com/conda-forge/r-tiledb-feedstock" xlink:title="r tiledb">
<ellipse fill="#35b779" stroke="black" cx="461.55" cy="-90" rx="50.09" ry="18"/>
<text text-anchor="middle" x="461.55" y="-86.3" font-family="Times,serif" font-size="14.00">r tiledb</text>
</a>
</g>
</g>
<!-- r&#45;tiledb&#45;&gt;conda&#45;forge&#45;pinning -->
<g id="edge6" class="edge">
<title>r&#45;tiledb&#45;&gt;conda&#45;forge&#45;pinning</title>
<path fill="none" stroke="black" d="M424.18,-77.9C417.02,-75.87 409.56,-73.82 402.55,-72 349.89,-58.36 289.99,-44.61 244.52,-34.54"/>
<polygon fill="black" stroke="black" points="245.28,-31.12 234.76,-32.38 243.77,-37.95 245.28,-31.12"/>
</g>
</g>
</svg>
