<?xml version="1.0" encoding="UTF-8" standalone="no"?>
<!DOCTYPE svg PUBLIC "-//W3C//DTD SVG 1.1//EN"
 "http://www.w3.org/Graphics/SVG/1.1/DTD/svg11.dtd">
<!-- Generated by graphviz version 2.42.3 (20191010.1750)
 -->
<!-- Title: %3 Pages: 1 -->
<svg width="217pt" height="116pt"
 viewBox="0.00 0.00 216.94 116.00" xmlns="http://www.w3.org/2000/svg" xmlns:xlink="http://www.w3.org/1999/xlink">
<g id="graph0" class="graph" transform="scale(1 1) rotate(0) translate(4 112)">
<title>%3</title>
<polygon fill="white" stroke="transparent" points="-4,4 -4,-112 212.94,-112 212.94,4 -4,4"/>
<!-- tiledb&#45;py -->
<g id="node1" class="node">
<title>tiledb&#45;py</title>
<g id="a_node1"><a xlink:href="https://github.com/conda-forge/tiledb-py-feedstock/pull/40" xlink:title="tiledb py">
<ellipse fill="#31688e" stroke="black" cx="54.6" cy="-90" rx="54.69" ry="18"/>
<text text-anchor="middle" x="54.6" y="-86.3" font-family="Times,serif" font-size="14.00" fill="white">tiledb py</text>
</a>
</g>
</g>
<!-- conda&#45;forge&#45;pinning -->
<g id="node3" class="node">
<title>conda&#45;forge&#45;pinning</title>
<ellipse fill="none" stroke="black" cx="105.6" cy="-18" rx="103.18" ry="18"/>
<text text-anchor="middle" x="105.6" y="-14.3" font-family="Times,serif" font-size="14.00">conda&#45;forge&#45;pinning</text>
</g>
<!-- tiledb&#45;py&#45;&gt;conda&#45;forge&#45;pinning -->
<g id="edge1" class="edge">
<title>tiledb&#45;py&#45;&gt;conda&#45;forge&#45;pinning</title>
<path fill="none" stroke="black" d="M66.68,-72.41C72.82,-63.99 80.4,-53.58 87.23,-44.2"/>
<polygon fill="black" stroke="black" points="90.18,-46.1 93.24,-35.96 84.52,-41.98 90.18,-46.1"/>
</g>
<!-- pdal -->
<g id="node2" class="node">
<title>pdal</title>
<g id="a_node2"><a xlink:href="https://github.com/conda-forge/pdal-feedstock" xlink:title="pdal">
<ellipse fill="#35b779" stroke="black" cx="157.6" cy="-90" rx="30.59" ry="18"/>
<text text-anchor="middle" x="157.6" y="-86.3" font-family="Times,serif" font-size="14.00">pdal</text>
</a>
</g>
</g>
<!-- pdal&#45;&gt;conda&#45;forge&#45;pinning -->
<g id="edge2" class="edge">
<title>pdal&#45;&gt;conda&#45;forge&#45;pinning</title>
<path fill="none" stroke="black" d="M145.8,-73.12C139.49,-64.63 131.58,-53.98 124.45,-44.38"/>
<polygon fill="black" stroke="black" points="127.21,-42.23 118.44,-36.29 121.59,-46.41 127.21,-42.23"/>
</g>
</g>
</svg>
