<?xml version="1.0" encoding="UTF-8" standalone="no"?>
<!DOCTYPE svg PUBLIC "-//W3C//DTD SVG 1.1//EN"
 "http://www.w3.org/Graphics/SVG/1.1/DTD/svg11.dtd">
<!-- Generated by graphviz version 2.42.3 (20191010.1750)
 -->
<!-- Title: %3 Pages: 1 -->
<svg width="354pt" height="188pt"
 viewBox="0.00 0.00 353.59 188.00" xmlns="http://www.w3.org/2000/svg" xmlns:xlink="http://www.w3.org/1999/xlink">
<g id="graph0" class="graph" transform="scale(1 1) rotate(0) translate(4 184)">
<title>%3</title>
<polygon fill="white" stroke="transparent" points="-4,4 -4,-184 349.59,-184 349.59,4 -4,4"/>
<!-- gdal -->
<g id="node1" class="node">
<title>gdal</title>
<g id="a_node1"><a xlink:href="https://github.com/conda-forge/gdal-feedstock/pull/392" xlink:title="gdal">
<ellipse fill="#31688e" stroke="black" cx="59.55" cy="-162" rx="30.59" ry="18"/>
<text text-anchor="middle" x="59.55" y="-158.3" font-family="Times,serif" font-size="14.00" fill="white">gdal</text>
</a>
</g>
</g>
<!-- pdal -->
<g id="node3" class="node">
<title>pdal</title>
<g id="a_node3"><a xlink:href="https://github.com/conda-forge/pdal-feedstock" xlink:title="pdal">
<ellipse fill="#fde725" stroke="black" cx="30.55" cy="-90" rx="30.59" ry="18"/>
<text text-anchor="middle" x="30.55" y="-86.3" font-family="Times,serif" font-size="14.00">pdal</text>
</a>
</g>
</g>
<!-- gdal&#45;&gt;pdal -->
<g id="edge1" class="edge">
<title>gdal&#45;&gt;pdal</title>
<path fill="none" stroke="black" d="M52.67,-144.41C49.33,-136.34 45.23,-126.43 41.47,-117.35"/>
<polygon fill="black" stroke="black" points="44.63,-115.86 37.57,-107.96 38.17,-118.53 44.63,-115.86"/>
</g>
<!-- conda&#45;forge&#45;pinning -->
<g id="node5" class="node">
<title>conda&#45;forge&#45;pinning</title>
<ellipse fill="none" stroke="black" cx="130.55" cy="-18" rx="103.18" ry="18"/>
<text text-anchor="middle" x="130.55" y="-14.3" font-family="Times,serif" font-size="14.00">conda&#45;forge&#45;pinning</text>
</g>
<!-- gdal&#45;&gt;conda&#45;forge&#45;pinning -->
<g id="edge2" class="edge">
<title>gdal&#45;&gt;conda&#45;forge&#45;pinning</title>
<path fill="none" stroke="black" d="M67.83,-144.43C79.99,-120.11 102.8,-74.5 117.3,-45.49"/>
<polygon fill="black" stroke="black" points="120.53,-46.86 121.87,-36.35 114.27,-43.73 120.53,-46.86"/>
</g>
<!-- tiledb&#45;py -->
<g id="node2" class="node">
<title>tiledb&#45;py</title>
<g id="a_node2"><a xlink:href="https://github.com/conda-forge/tiledb-py-feedstock/pull/40" xlink:title="tiledb py">
<ellipse fill="#31688e" stroke="black" cx="172.55" cy="-90" rx="54.69" ry="18"/>
<text text-anchor="middle" x="172.55" y="-86.3" font-family="Times,serif" font-size="14.00" fill="white">tiledb py</text>
</a>
</g>
</g>
<!-- tiledb&#45;py&#45;&gt;conda&#45;forge&#45;pinning -->
<g id="edge3" class="edge">
<title>tiledb&#45;py&#45;&gt;conda&#45;forge&#45;pinning</title>
<path fill="none" stroke="black" d="M162.38,-72.05C157.5,-63.92 151.55,-54 146.11,-44.94"/>
<polygon fill="black" stroke="black" points="149.06,-43.05 140.91,-36.28 143.06,-46.65 149.06,-43.05"/>
</g>
<!-- pdal&#45;&gt;conda&#45;forge&#45;pinning -->
<g id="edge4" class="edge">
<title>pdal&#45;&gt;conda&#45;forge&#45;pinning</title>
<path fill="none" stroke="black" d="M49.83,-75.5C63.52,-65.92 82.24,-52.81 98.2,-41.64"/>
<polygon fill="black" stroke="black" points="100.55,-44.27 106.74,-35.67 96.54,-38.53 100.55,-44.27"/>
</g>
<!-- r&#45;tiledb -->
<g id="node4" class="node">
<title>r&#45;tiledb</title>
<g id="a_node4"><a xlink:href="https://github.com/conda-forge/r-tiledb-feedstock/pull/6" xlink:title="r tiledb">
<ellipse fill="#31688e" stroke="black" cx="295.55" cy="-90" rx="50.09" ry="18"/>
<text text-anchor="middle" x="295.55" y="-86.3" font-family="Times,serif" font-size="14.00" fill="white">r tiledb</text>
</a>
</g>
</g>
<!-- r&#45;tiledb&#45;&gt;conda&#45;forge&#45;pinning -->
<g id="edge5" class="edge">
<title>r&#45;tiledb&#45;&gt;conda&#45;forge&#45;pinning</title>
<path fill="none" stroke="black" d="M264.51,-75.83C239.96,-65.42 205.29,-50.71 177.36,-38.86"/>
<polygon fill="black" stroke="black" points="178.37,-35.49 167.8,-34.8 175.64,-41.93 178.37,-35.49"/>
</g>
</g>
</svg>
