<?xml version="1.0" encoding="UTF-8" standalone="no"?>
<!DOCTYPE svg PUBLIC "-//W3C//DTD SVG 1.1//EN"
 "http://www.w3.org/Graphics/SVG/1.1/DTD/svg11.dtd">
<!-- Generated by graphviz version 2.42.3 (20191010.1750)
 -->
<!-- Title: %3 Pages: 1 -->
<svg width="215pt" height="116pt"
 viewBox="0.00 0.00 214.68 116.00" xmlns="http://www.w3.org/2000/svg" xmlns:xlink="http://www.w3.org/1999/xlink">
<g id="graph0" class="graph" transform="scale(1 1) rotate(0) translate(4 112)">
<title>%3</title>
<polygon fill="white" stroke="transparent" points="-4,4 -4,-112 210.68,-112 210.68,4 -4,4"/>
<!-- root -->
<g id="node1" class="node">
<title>root</title>
<g id="a_node1"><a xlink:href="https://github.com/conda-forge/root-feedstock" xlink:title="root">
<ellipse fill="#35b779" stroke="black" cx="61.34" cy="-90" rx="30.59" ry="18"/>
<text text-anchor="middle" x="61.34" y="-86.3" font-family="Times,serif" font-size="14.00">root</text>
</a>
</g>
</g>
<!-- conda&#45;forge&#45;pinning -->
<g id="node3" class="node">
<title>conda&#45;forge&#45;pinning</title>
<ellipse fill="none" stroke="black" cx="103.34" cy="-18" rx="103.18" ry="18"/>
<text text-anchor="middle" x="103.34" y="-14.3" font-family="Times,serif" font-size="14.00">conda&#45;forge&#45;pinning</text>
</g>
<!-- root&#45;&gt;conda&#45;forge&#45;pinning -->
<g id="edge1" class="edge">
<title>root&#45;&gt;conda&#45;forge&#45;pinning</title>
<path fill="none" stroke="black" d="M71.08,-72.76C76.08,-64.44 82.28,-54.1 87.91,-44.73"/>
<polygon fill="black" stroke="black" points="90.92,-46.5 93.07,-36.12 84.92,-42.9 90.92,-46.5"/>
</g>
<!-- gfal2 -->
<g id="node2" class="node">
<title>gfal2</title>
<g id="a_node2"><a xlink:href="https://github.com/conda-forge/gfal2-feedstock" xlink:title="gfal2">
<ellipse fill="#35b779" stroke="black" cx="145.34" cy="-90" rx="35.19" ry="18"/>
<text text-anchor="middle" x="145.34" y="-86.3" font-family="Times,serif" font-size="14.00">gfal2</text>
</a>
</g>
</g>
<!-- gfal2&#45;&gt;conda&#45;forge&#45;pinning -->
<g id="edge2" class="edge">
<title>gfal2&#45;&gt;conda&#45;forge&#45;pinning</title>
<path fill="none" stroke="black" d="M135.39,-72.41C130.44,-64.16 124.35,-54.01 118.81,-44.78"/>
<polygon fill="black" stroke="black" points="121.66,-42.73 113.51,-35.96 115.66,-46.33 121.66,-42.73"/>
</g>
</g>
</svg>
