<?xml version="1.0" encoding="UTF-8" standalone="no"?>
<!DOCTYPE svg PUBLIC "-//W3C//DTD SVG 1.1//EN"
 "http://www.w3.org/Graphics/SVG/1.1/DTD/svg11.dtd">
<!-- Generated by graphviz version 2.40.1 (20161225.0304)
 -->
<!-- Title: %3 Pages: 1 -->
<svg width="666pt" height="116pt"
 viewBox="0.00 0.00 665.88 116.00" xmlns="http://www.w3.org/2000/svg" xmlns:xlink="http://www.w3.org/1999/xlink">
<g id="graph0" class="graph" transform="scale(1 1) rotate(0) translate(4 112)">
<title>%3</title>
<polygon fill="#ffffff" stroke="transparent" points="-4,4 -4,-112 661.8812,-112 661.8812,4 -4,4"/>
<!-- bgen -->
<g id="node1" class="node">
<title>bgen</title>
<ellipse fill="#fde725" stroke="#000000" cx="137.7878" cy="-18" rx="30.5947" ry="18"/>
<text text-anchor="middle" x="137.7878" y="-14.3" font-family="Times,serif" font-size="14.00" fill="#000000">bgen</text>
</g>
<!-- pdal -->
<g id="node2" class="node">
<title>pdal</title>
<ellipse fill="#31688e" stroke="#000000" cx="323.7878" cy="-90" rx="30.5947" ry="18"/>
<text text-anchor="middle" x="323.7878" y="-86.3" font-family="Times,serif" font-size="14.00" fill="#ffffff">pdal</text>
</g>
<!-- _libarchive_static_for_cph -->
<g id="node3" class="node">
<title>_libarchive_static_for_cph</title>
<ellipse fill="#31688e" stroke="#000000" cx="137.7878" cy="-90" rx="137.5759" ry="18"/>
<text text-anchor="middle" x="137.7878" y="-86.3" font-family="Times,serif" font-size="14.00" fill="#ffffff">_libarchive_static_for_cph</text>
</g>
<!-- _libarchive_static_for_cph&#45;&gt;bgen -->
<g id="edge1" class="edge">
<title>_libarchive_static_for_cph&#45;&gt;bgen</title>
<path fill="none" stroke="#000000" d="M137.7878,-71.8314C137.7878,-64.131 137.7878,-54.9743 137.7878,-46.4166"/>
<polygon fill="#000000" stroke="#000000" points="141.2879,-46.4132 137.7878,-36.4133 134.2879,-46.4133 141.2879,-46.4132"/>
</g>
<!-- r&#45;seqminer -->
<g id="node4" class="node">
<title>r&#45;seqminer</title>
<ellipse fill="#31688e" stroke="#000000" cx="431.7878" cy="-90" rx="59.5901" ry="18"/>
<text text-anchor="middle" x="431.7878" y="-86.3" font-family="Times,serif" font-size="14.00" fill="#ffffff">r seqminer</text>
</g>
<!-- libtiledb&#45;sql -->
<g id="node5" class="node">
<title>libtiledb&#45;sql</title>
<ellipse fill="#31688e" stroke="#000000" cx="583.7878" cy="-90" rx="74.187" ry="18"/>
<text text-anchor="middle" x="583.7878" y="-86.3" font-family="Times,serif" font-size="14.00" fill="#ffffff">libtiledb sql</text>
</g>
</g>
</svg>
