<?xml version="1.0" encoding="UTF-8" standalone="no"?>
<!DOCTYPE svg PUBLIC "-//W3C//DTD SVG 1.1//EN"
 "http://www.w3.org/Graphics/SVG/1.1/DTD/svg11.dtd">
<!-- Generated by graphviz version 2.40.1 (20161225.0304)
 -->
<!-- Title: %3 Pages: 1 -->
<svg width="649pt" height="116pt"
 viewBox="0.00 0.00 649.39 116.00" xmlns="http://www.w3.org/2000/svg" xmlns:xlink="http://www.w3.org/1999/xlink">
<g id="graph0" class="graph" transform="scale(1 1) rotate(0) translate(4 112)">
<title>%3</title>
<polygon fill="#ffffff" stroke="transparent" points="-4,4 -4,-112 645.3899,-112 645.3899,4 -4,4"/>
<!-- arrow&#45;cpp -->
<g id="node1" class="node">
<title>arrow&#45;cpp</title>
<ellipse fill="#31688e" stroke="#000000" cx="54.5952" cy="-90" rx="54.6905" ry="18"/>
<text text-anchor="middle" x="54.5952" y="-86.3" font-family="Times,serif" font-size="14.00" fill="#ffffff">arrow cpp</text>
</g>
<!-- bgen -->
<g id="node2" class="node">
<title>bgen</title>
<ellipse fill="#fde725" stroke="#000000" cx="264.5952" cy="-18" rx="30.5947" ry="18"/>
<text text-anchor="middle" x="264.5952" y="-14.3" font-family="Times,serif" font-size="14.00" fill="#000000">bgen</text>
</g>
<!-- tiledb -->
<g id="node3" class="node">
<title>tiledb</title>
<ellipse fill="#31688e" stroke="#000000" cx="463.5952" cy="-90" rx="40.0939" ry="18"/>
<text text-anchor="middle" x="463.5952" y="-86.3" font-family="Times,serif" font-size="14.00" fill="#ffffff">tiledb</text>
</g>
<!-- pdal -->
<g id="node4" class="node">
<title>pdal</title>
<ellipse fill="#fde725" stroke="#000000" cx="343.5952" cy="-18" rx="30.5947" ry="18"/>
<text text-anchor="middle" x="343.5952" y="-14.3" font-family="Times,serif" font-size="14.00" fill="#000000">pdal</text>
</g>
<!-- tiledb&#45;&gt;pdal -->
<g id="edge2" class="edge">
<title>tiledb&#45;&gt;pdal</title>
<path fill="none" stroke="#000000" d="M439.3114,-75.4297C420.4255,-64.0982 394.1169,-48.313 373.8601,-36.1589"/>
<polygon fill="#000000" stroke="#000000" points="375.4028,-33.003 365.0271,-30.8592 371.8013,-39.0054 375.4028,-33.003"/>
</g>
<!-- libtiledb&#45;sql -->
<g id="node7" class="node">
<title>libtiledb&#45;sql</title>
<ellipse fill="#fde725" stroke="#000000" cx="466.5952" cy="-18" rx="74.187" ry="18"/>
<text text-anchor="middle" x="466.5952" y="-14.3" font-family="Times,serif" font-size="14.00" fill="#000000">libtiledb sql</text>
</g>
<!-- tiledb&#45;&gt;libtiledb&#45;sql -->
<g id="edge1" class="edge">
<title>tiledb&#45;&gt;libtiledb&#45;sql</title>
<path fill="none" stroke="#000000" d="M464.3522,-71.8314C464.673,-64.131 465.0546,-54.9743 465.4111,-46.4166"/>
<polygon fill="#000000" stroke="#000000" points="468.9085,-46.5503 465.8279,-36.4133 461.9146,-46.2589 468.9085,-46.5503"/>
</g>
<!-- _libarchive_static_for_cph -->
<g id="node5" class="node">
<title>_libarchive_static_for_cph</title>
<ellipse fill="#31688e" stroke="#000000" cx="264.5952" cy="-90" rx="137.5759" ry="18"/>
<text text-anchor="middle" x="264.5952" y="-86.3" font-family="Times,serif" font-size="14.00" fill="#ffffff">_libarchive_static_for_cph</text>
</g>
<!-- _libarchive_static_for_cph&#45;&gt;bgen -->
<g id="edge3" class="edge">
<title>_libarchive_static_for_cph&#45;&gt;bgen</title>
<path fill="none" stroke="#000000" d="M264.5952,-71.8314C264.5952,-64.131 264.5952,-54.9743 264.5952,-46.4166"/>
<polygon fill="#000000" stroke="#000000" points="268.0953,-46.4132 264.5952,-36.4133 261.0953,-46.4133 268.0953,-46.4132"/>
</g>
<!-- r&#45;seqminer -->
<g id="node6" class="node">
<title>r&#45;seqminer</title>
<ellipse fill="#31688e" stroke="#000000" cx="581.5952" cy="-90" rx="59.5901" ry="18"/>
<text text-anchor="middle" x="581.5952" y="-86.3" font-family="Times,serif" font-size="14.00" fill="#ffffff">r seqminer</text>
</g>
</g>
</svg>
