<?xml version="1.0" encoding="UTF-8" standalone="no"?>
<!DOCTYPE svg PUBLIC "-//W3C//DTD SVG 1.1//EN"
 "http://www.w3.org/Graphics/SVG/1.1/DTD/svg11.dtd">
<!-- Generated by graphviz version 2.40.1 (20161225.0304)
 -->
<!-- Title: %3 Pages: 1 -->
<svg width="766pt" height="116pt"
 viewBox="0.00 0.00 765.59 116.00" xmlns="http://www.w3.org/2000/svg" xmlns:xlink="http://www.w3.org/1999/xlink">
<g id="graph0" class="graph" transform="scale(1 1) rotate(0) translate(4 112)">
<title>%3</title>
<polygon fill="#ffffff" stroke="transparent" points="-4,4 -4,-112 761.5894,-112 761.5894,4 -4,4"/>
<!-- bgen -->
<g id="node1" class="node">
<title>bgen</title>
<ellipse fill="#fde725" stroke="#000000" cx="167.7947" cy="-18" rx="30.5947" ry="18"/>
<text text-anchor="middle" x="167.7947" y="-14.3" font-family="Times,serif" font-size="14.00" fill="#000000">bgen</text>
</g>
<!-- libarchive -->
<g id="node2" class="node">
<title>libarchive</title>
<ellipse fill="#31688e" stroke="#000000" cx="59.7947" cy="-90" rx="59.5901" ry="18"/>
<text text-anchor="middle" x="59.7947" y="-86.3" font-family="Times,serif" font-size="14.00" fill="#ffffff">libarchive</text>
</g>
<!-- libarchive&#45;&gt;bgen -->
<g id="edge1" class="edge">
<title>libarchive&#45;&gt;bgen</title>
<path fill="none" stroke="#000000" d="M84.5721,-73.4817C100.7998,-62.6632 122.0661,-48.4857 139.0389,-37.1705"/>
<polygon fill="#000000" stroke="#000000" points="141.0947,-40.0065 147.4738,-31.5473 137.2118,-34.1821 141.0947,-40.0065"/>
</g>
<!-- libtiff -->
<g id="node3" class="node">
<title>libtiff</title>
<ellipse fill="#31688e" stroke="#000000" cx="476.7947" cy="-90" rx="44.6926" ry="18"/>
<text text-anchor="middle" x="476.7947" y="-86.3" font-family="Times,serif" font-size="14.00" fill="#ffffff">libtiff</text>
</g>
<!-- tiledb -->
<g id="node4" class="node">
<title>tiledb</title>
<ellipse fill="#31688e" stroke="#000000" cx="579.7947" cy="-90" rx="40.0939" ry="18"/>
<text text-anchor="middle" x="579.7947" y="-86.3" font-family="Times,serif" font-size="14.00" fill="#ffffff">tiledb</text>
</g>
<!-- pdal -->
<g id="node5" class="node">
<title>pdal</title>
<ellipse fill="#fde725" stroke="#000000" cx="579.7947" cy="-18" rx="30.5947" ry="18"/>
<text text-anchor="middle" x="579.7947" y="-14.3" font-family="Times,serif" font-size="14.00" fill="#000000">pdal</text>
</g>
<!-- tiledb&#45;&gt;pdal -->
<g id="edge2" class="edge">
<title>tiledb&#45;&gt;pdal</title>
<path fill="none" stroke="#000000" d="M579.7947,-71.8314C579.7947,-64.131 579.7947,-54.9743 579.7947,-46.4166"/>
<polygon fill="#000000" stroke="#000000" points="583.2948,-46.4132 579.7947,-36.4133 576.2948,-46.4133 583.2948,-46.4132"/>
</g>
<!-- _libarchive_static_for_cph -->
<g id="node6" class="node">
<title>_libarchive_static_for_cph</title>
<ellipse fill="#31688e" stroke="#000000" cx="275.7947" cy="-90" rx="137.5759" ry="18"/>
<text text-anchor="middle" x="275.7947" y="-86.3" font-family="Times,serif" font-size="14.00" fill="#ffffff">_libarchive_static_for_cph</text>
</g>
<!-- _libarchive_static_for_cph&#45;&gt;bgen -->
<g id="edge3" class="edge">
<title>_libarchive_static_for_cph&#45;&gt;bgen</title>
<path fill="none" stroke="#000000" d="M249.0981,-72.2022C233.1813,-61.5911 212.9697,-48.1167 196.6806,-37.2573"/>
<polygon fill="#000000" stroke="#000000" points="198.3489,-34.163 188.0869,-31.5281 194.4659,-39.9873 198.3489,-34.163"/>
</g>
<!-- r&#45;seqminer -->
<g id="node7" class="node">
<title>r&#45;seqminer</title>
<ellipse fill="#31688e" stroke="#000000" cx="697.7947" cy="-90" rx="59.5901" ry="18"/>
<text text-anchor="middle" x="697.7947" y="-86.3" font-family="Times,serif" font-size="14.00" fill="#ffffff">r seqminer</text>
</g>
</g>
</svg>
