<?xml version="1.0" encoding="UTF-8" standalone="no"?>
<!DOCTYPE svg PUBLIC "-//W3C//DTD SVG 1.1//EN"
 "http://www.w3.org/Graphics/SVG/1.1/DTD/svg11.dtd">
<!-- Generated by graphviz version 2.40.1 (20161225.0304)
 -->
<!-- Title: %3 Pages: 1 -->
<svg width="892pt" height="116pt"
 viewBox="0.00 0.00 892.39 116.00" xmlns="http://www.w3.org/2000/svg" xmlns:xlink="http://www.w3.org/1999/xlink">
<g id="graph0" class="graph" transform="scale(1 1) rotate(0) translate(4 112)">
<title>%3</title>
<polygon fill="#ffffff" stroke="transparent" points="-4,4 -4,-112 888.3899,-112 888.3899,4 -4,4"/>
<!-- arrow&#45;cpp -->
<g id="node1" class="node">
<title>arrow&#45;cpp</title>
<ellipse fill="#31688e" stroke="#000000" cx="54.5952" cy="-90" rx="54.6905" ry="18"/>
<text text-anchor="middle" x="54.5952" y="-86.3" font-family="Times,serif" font-size="14.00" fill="#ffffff">arrow cpp</text>
</g>
<!-- bgen -->
<g id="node2" class="node">
<title>bgen</title>
<ellipse fill="#fde725" stroke="#000000" cx="294.5952" cy="-18" rx="30.5947" ry="18"/>
<text text-anchor="middle" x="294.5952" y="-14.3" font-family="Times,serif" font-size="14.00" fill="#000000">bgen</text>
</g>
<!-- libarchive -->
<g id="node3" class="node">
<title>libarchive</title>
<ellipse fill="#31688e" stroke="#000000" cx="186.5952" cy="-90" rx="59.5901" ry="18"/>
<text text-anchor="middle" x="186.5952" y="-86.3" font-family="Times,serif" font-size="14.00" fill="#ffffff">libarchive</text>
</g>
<!-- libarchive&#45;&gt;bgen -->
<g id="edge1" class="edge">
<title>libarchive&#45;&gt;bgen</title>
<path fill="none" stroke="#000000" d="M211.3725,-73.4817C227.6003,-62.6632 248.8665,-48.4857 265.8393,-37.1705"/>
<polygon fill="#000000" stroke="#000000" points="267.8952,-40.0065 274.2742,-31.5473 264.0123,-34.1821 267.8952,-40.0065"/>
</g>
<!-- libtiff -->
<g id="node4" class="node">
<title>libtiff</title>
<ellipse fill="#31688e" stroke="#000000" cx="603.5952" cy="-90" rx="44.6926" ry="18"/>
<text text-anchor="middle" x="603.5952" y="-86.3" font-family="Times,serif" font-size="14.00" fill="#ffffff">libtiff</text>
</g>
<!-- tiledb -->
<g id="node5" class="node">
<title>tiledb</title>
<ellipse fill="#31688e" stroke="#000000" cx="706.5952" cy="-90" rx="40.0939" ry="18"/>
<text text-anchor="middle" x="706.5952" y="-86.3" font-family="Times,serif" font-size="14.00" fill="#ffffff">tiledb</text>
</g>
<!-- pdal -->
<g id="node6" class="node">
<title>pdal</title>
<ellipse fill="#fde725" stroke="#000000" cx="644.5952" cy="-18" rx="30.5947" ry="18"/>
<text text-anchor="middle" x="644.5952" y="-14.3" font-family="Times,serif" font-size="14.00" fill="#000000">pdal</text>
</g>
<!-- tiledb&#45;&gt;pdal -->
<g id="edge3" class="edge">
<title>tiledb&#45;&gt;pdal</title>
<path fill="none" stroke="#000000" d="M691.902,-72.937C683.9905,-63.7494 674.0979,-52.2613 665.4073,-42.1689"/>
<polygon fill="#000000" stroke="#000000" points="667.9335,-39.7388 658.7561,-34.4449 662.6291,-44.3065 667.9335,-39.7388"/>
</g>
<!-- libtiledb&#45;sql -->
<g id="node9" class="node">
<title>libtiledb&#45;sql</title>
<ellipse fill="#fde725" stroke="#000000" cx="767.5952" cy="-18" rx="74.187" ry="18"/>
<text text-anchor="middle" x="767.5952" y="-14.3" font-family="Times,serif" font-size="14.00" fill="#000000">libtiledb sql</text>
</g>
<!-- tiledb&#45;&gt;libtiledb&#45;sql -->
<g id="edge2" class="edge">
<title>tiledb&#45;&gt;libtiledb&#45;sql</title>
<path fill="none" stroke="#000000" d="M721.0513,-72.937C728.4829,-64.1652 737.6912,-53.2965 745.9507,-43.5476"/>
<polygon fill="#000000" stroke="#000000" points="748.812,-45.5848 752.6057,-35.6924 743.4711,-41.0598 748.812,-45.5848"/>
</g>
<!-- _libarchive_static_for_cph -->
<g id="node7" class="node">
<title>_libarchive_static_for_cph</title>
<ellipse fill="#31688e" stroke="#000000" cx="402.5952" cy="-90" rx="137.5759" ry="18"/>
<text text-anchor="middle" x="402.5952" y="-86.3" font-family="Times,serif" font-size="14.00" fill="#ffffff">_libarchive_static_for_cph</text>
</g>
<!-- _libarchive_static_for_cph&#45;&gt;bgen -->
<g id="edge4" class="edge">
<title>_libarchive_static_for_cph&#45;&gt;bgen</title>
<path fill="none" stroke="#000000" d="M375.8985,-72.2022C359.9818,-61.5911 339.7702,-48.1167 323.4811,-37.2573"/>
<polygon fill="#000000" stroke="#000000" points="325.1493,-34.163 314.8873,-31.5281 321.2664,-39.9873 325.1493,-34.163"/>
</g>
<!-- r&#45;seqminer -->
<g id="node8" class="node">
<title>r&#45;seqminer</title>
<ellipse fill="#31688e" stroke="#000000" cx="824.5952" cy="-90" rx="59.5901" ry="18"/>
<text text-anchor="middle" x="824.5952" y="-86.3" font-family="Times,serif" font-size="14.00" fill="#ffffff">r seqminer</text>
</g>
</g>
</svg>
